<svg viewBox="-990 -662 2188 1324" xmlns="http://www.w3.org/2000/svg" xmlns:xlink="http://www.w3.org/1999/xlink"><defs><g id="a"><path d="m144 104v48h-64v-48z"/><path d="m144 152v-48z"/><path d="m80 104v48z"/><path d="m144 152h-64z"/><path d="m136 112h-48v32h48z"/><path d="m136 112v32z"/><path d="m136 144h-48v-32h48z"/><path d="m88 144v-32z"/><path d="m136 144h-48z"/><path d="m88 112h48z"/><path d="m144 152v-48h-64v48z"/><path d="m144 104h-64z"/><path d="m160 192v-192z"/><path d="m128 0h32v192l-48 32h-48v-160z"/><path d="m112 224-48 32v-32z"/><path d="m112 224 48-32-96 64z"/><path d="m64 64v160 32z"/><path d="m160 192v-192z"/><path d="m160 0h-32z"/><path d="m160 192-96 64z"/><path d="m128 0-64 64z"/><path d="m64 64v192z"/><path d="m160 0v192z"/><path d="m160 0h-32z"/><path d="m160 192-96 64z"/><path d="m128 0-64 64z"/><path d="m160 88h-96v24h96z"/><path d="m160 200h-96v24h96z"/><path d="m160 32h-96v24h96z"/><path d="m160 144h-96v24h96z"/><path d="m456-552v8h-16v-8z"/><path d="m520-552v8h-16v-8z"/><path d="m440-544h16 48 16 24v40 16 40h-128v-40-16-40z"/><path d="m128 0h32v192l-96 64v-192z"/><path d="m160 192v-192h-32l-64 64v192z"/><path d="m488 544v-96h24v64 32z"/><path d="m424 544v-96h48v96z"/><path d="m472 544v-96h16v96 8h-16z"/><path d="m384 544v-32-64h24v96z"/><path d="m408 544v-96h16v96 8h-16z"/><path d="m-384-96v96h-128v-96z"/><path d="m-384 160v128h-80v-64-64z"/><path d="m-664-256h24v96h-24z"/><path d="m-744-160h-24v-96h24z"/><path d="m-728-256h48v96h-48z"/><path d="m-744-256v-8h16v8 96h-16z"/><path d="m-680-256v-8h16v8 96h-16z"/><path d="m-832-64 64-64v96h-64z"/><path d="m-608 224h-96l-128-32v-32h64 160z"/><path d="m-544 160h80v64h-112-32v-64z"/><path d="m-576 224h112v64h-48z"/><path d="m-832 160v32z"/><path d="m-384 288v-128z"/><path d="m544-448h-128z"/><path d="m512 448h-24-16-48-16-24z"/><path d="m320 448h-128z"/><path d="m160 0v64 128z"/><path d="m160 192-64 42.6667-32 21.3333z"/><path d="m-464 288h80-128z"/><path d="m-384 0h-24-80-24z"/><path d="m-512-96v96z"/><path d="m-744-160h16 48 16 24-128z"/><path d="m-768-32v-96z"/><path d="m-832-64 64-64z"/><path d="m-544 160h-64-160 192z"/><path d="m-608 224h32-128z"/><path d="m-704 224-128-32z"/><path d="m64 64v192z"/><path d="m160 0h-32z"/><path d="m128 0-64 64z"/><path d="m-832 160v32z"/><path d="m-832-64v32z"/><path d="m-384 0v-96z"/><path d="m-384 288v-128z"/><path d="m-384 288h-16-64-48z"/><path d="m-488 0h80 24-128z"/><path d="m-512-96v96z"/><path d="m-488-96h-24z"/><path d="m-488-96h16 48 16 24-128z"/><path d="m-408-64v32z"/><path d="m-408-32v16z"/><path d="m-384-96v96h-24v-16-16-32-16-16z"/><path d="m-384 0v-96h-24v16 16 32 16 16z"/><path d="m-488-80v-16 16 16z"/><path d="m-488-32v-32 32 16z"/><path d="m-408-16h-80z"/><path d="m-472-80h48z"/><path d="m-472-96v16z"/><path d="m-424-80v-16z"/><path d="m-424-96v16h16v-16z"/><path d="m-424-80v-16h-48v16z"/><path d="m-424-96v16h-48v-16z"/><path d="m-488-96v16h16v-16z"/><path d="m-416-64v32h8v-32z"/><path d="m-416-32h-64-8v16h80v-16z"/><path d="m-424-80h-48-16v16h8 64 8v-16z"/><path d="m-480-64v32h64v-32z"/><path d="m-488-64v32h8v-32z"/><path d="m-408-16h-80v16h80z"/><path d="m-488-16h80v16h-80z"/><path d="m-488-16v-16-32-16-16h-24v96h24z"/><path d="m-512-96h24v16 16 32 16 16h-24z"/><path d="m-768-32v-96z"/><path d="m-832-32h64z"/><path d="m-832-64 64-64v96h-64z"/><path d="m-768-128-64 64v32h64z"/><path d="m-832-64 64-64z"/><path d="m-544 160h-32-192 160z"/><path d="m-384 160h-80-80z"/><path d="m-768 160h-64z"/><path d="m-544 160h160v128h-128l-64-64v-64z"/><path d="m-384 288v-128h-160-32v64l64 64z"/><path d="m-768 160h192v64h-128l-128-32v-32z"/><path d="m-576 224v-64h-192-64v32l128 32z"/><path d="m-576 224h-128z"/><path d="m-704 224-128-32z"/><path d="m-576 224 64 64z"/><path d="m160 112h-96z"/><path d="m64 112v-24z"/><path d="m160 88v24z"/><path d="m64 88h96z"/><path d="m160 112h-96v-24h96z"/><path d="m64 200h96z"/><path d="m160 200v24z"/><path d="m64 224v-24z"/><path d="m160 224h-96z"/><path d="m160 224h-96v-24h96z"/><path d="m160 56h-96z"/><path d="m64 56v-24z"/><path d="m160 32v24z"/><path d="m64 32h96z"/><path d="m160 56h-96v-24h96z"/><path d="m64 144h96z"/><path d="m160 144v24z"/><path d="m64 168v-24z"/><path d="m160 168h-96z"/><path d="m160 168h-96v-24h96z"/><path d="m944-128h16z"/><path d="m960-352h32 64v16h-32-64z"/><path d="m1024-280v-24h32v96h-32z"/><path d="m960-336h64v32 24h-32-32z"/><path d="m960-384h32v32h-32z"/><path d="m864-336v-48h96v32 16 56h-32-64z"/><path d="m736-384h96 32v48h-160v-48z"/><path d="m864-392v8h-32v-8z"/><path d="m864-336v56h-160v-56z"/><path d="m992-176h32 32v16h-64z"/><path d="m1024-280v72 32h-32v-104z"/><path d="m928-160h-96-64-64v-16-104h160 64z"/><path d="m960-280h32v104 16h-64v-120z"/><path d="m960-128h-16l-5.3337-10.6675-10.6663-21.3325h64v32z"/><path d="m768-160-16 32h-16-32v-32z"/><path d="m1056-304v8 8 8 48 8 8 8z"/><path d="m938.6663-138.6675 5.3337 10.6675-5.3333-10.6667z"/><path d="m992-384h-32z"/><path d="m864-384h32 64z"/><path d="m928-160h-96z"/><path d="m-832-64v32z"/><path d="m576 272v-16 48z"/><path d="m704-176h-32-64v-104h96z"/><path d="m704-280h-96v-56h64 32z"/><path d="m672-176v16z"/><path d="m576-176v-160h32v56 104z"/><path d="m512 448v64z"/><path d="m-384 0v-96z"/><path d="m-384 288v-128z"/><path d="m416-448v64z"/><path d="m544-448v-40 40 64z"/><path d="m544-488v40z"/><path d="m544-448v64h-128v-64z"/><path d="m-64 224v-64 96z"/><path d="m-64 48v64z"/><path d="m96 432-32-16h32z"/><path d="m-64 256h32 80 16 32v16 144h-32-128z"/><path d="m-8 252h56v4h-80v-4z"/><path d="m96 234.6667v21.3333h-32z"/><path d="m0 112v48h-64v-48z"/><path d="m0 112v-64h32v88 24h-32z"/><path d="m32 0v48h-32-64v-48z"/><path d="m320 448h-128-64l-32-16v-16-144h64 160z"/><path d="m544 416-32 32h-128-64v-176h32 192z"/><path d="m576 272v32 80l-32 32v-144z"/><path d="m160 192v80h-64v-16-21.3333z"/><path d="m512 192 64 64v16h-32-192v-144z"/><path d="m160-352v-32h64 128v224h-192z"/><path d="m352-160v32 192h-192v-64-56-72-32z"/><path d="m352 64v48 16 144h-32-160v-80-128z"/><path d="m352-384h64 128 32v48 160 16h-224z"/><path d="m576-160v32h-64-128-32v-32z"/><path d="m160-352v192 32-32z"/><path d="m512-128v16z"/><path d="m96 432 32 16-64-32z"/><path d="m352 64v-192 56 16 56 112z"/><path d="m512-128v16h-24-16-48-16-24v-13-3z"/><path d="m0 160h32-96z"/><path d="m32 48v-48 24 16 80 16z"/><path d="m0 112h-64z"/><path d="m-64 48h64z"/><path d="m-8 252h16 40z"/><path d="m-32 252v4z"/><path d="m160 0h-32z"/><path d="m64 64v192z"/><path d="m128 0-64 64z"/><path d="m320 448v16z"/><path d="m-384 0h128z"/><path d="m-256 160v-160h192v48 64 48 64h-192z"/><path d="m-64 224v32 160h-192v-64-128z"/><path d="m-256 160h-128z"/><path d="m-256 0v160h-128v-160z"/><path d="m-640-256v96z"/><path d="m-424-96h-48z"/><path d="m-384-96h-24z"/><path d="m-408-80v-16 16 16z"/><path d="m-424-80v-16h16v16z"/><path d="m-488-80v-16h8 8v16z"/><path d="m-488-32v-32h8v32z"/><path d="m-480-32v-32h64v32z"/><path d="m-416-64h-64-8v-16h16 48 16v16z"/><path d="m-488-16v-16h8 64 8v16z"/><path d="m-416-32v-32h8v32z"/><path d="m-640-128 128 32v96h-96-32z"/><path d="m-768-160v-40-16-40z"/><path d="m-640-128v128h-128v-32-96-32h128z"/><path d="m-832-32h64z"/><path d="m-832 0v-16-16h64v32z"/><path d="m-384 160h-160z"/><path d="m-768 160h-64z"/><path d="m-608 160h-160-64v-16-32-96-16h64 128 32z"/><path d="m-384 160h-160-64v-160h96 128z"/><path d="m-576 224h-56-16-24-32z"/><path d="m-704 224-48-12-16-4-48-12-16-4z"/><path d="m-576 224 64 64z"/><path d="m-864 112v-96h32v96z"/><path d="m-864 160v-16h32v16z"/><path d="m-864-16v-16h32v16z"/><path d="m-832-32h-32v32h32z"/><path d="m48 252h-80v4h80z"/><path d="m1056-304h-1v96h1z"/><path d="m1056-208h-1z"/><path d="m1055-304h1z"/><path d="m-863 16h-1v96h1z"/><path d="m-863 112h-1z"/><path d="m-864 16h1z"/><path d="m0 48v64z"/><path d="m-64 48h64v64h-64z"/><path d="m416-504v-40z"/><path d="m416-504v16z"/><path d="m544-488v-16z"/><path d="m512 192 64 64z"/><path d="m480 112h-64z"/><path d="m352-128v56z"/><path d="m384 0h-32z"/><path d="m512 0h-96-32 88z"/><path d="m416 112v-64z"/><path d="m416 48h64z"/><path d="m512 0v48h-32-64v-48z"/><path d="m480 48v64z"/><path d="m512 48v64h-32v-64z"/><path d="m416 48v64h-64v-112h32 32z"/><path d="m160-72v-56 72z"/><path d="m352 112v16z"/><path d="m352 128v-16h64 64 32v80z"/><path d="m512 192-160-64z"/><path d="m32 40v80z"/><path d="m32 136v24z"/><path d="m48 256h16z"/><path d="m48 256v-4z"/><path d="m8 252v4h40v-4z"/><path d="m8 256v-4h-16v4z"/><path d="m8 416h-16-56 128z"/><path d="m-768-256h24z"/><path d="m-640-216v16 72-32-96z"/><path d="m-480-96h-8-24z"/><path d="m-464-96h32 16 32-24-16-48-8z"/><path d="m-432-100v4z"/><path d="m-416-96h-16v-4h16z"/><path d="m-464-96h-16v-4h16z"/><path d="m-480-100v4z"/><path d="m-640-128 128 32z"/><path d="m-768-256v40z"/><path d="m48 252v4z"/><path d="m-32 256v-4z"/><path d="m48 256h-80v-4h80z"/><path d="m48 256h-80z"/><path d="m-32 252h80z"/><path d="m-8 252h-24v4h24z"/><path d="m416 112v-64h64v64z"/><path d="m736-128h16z"/><path d="m736-128h-32z"/><path d="m832-128h96-160z"/><path d="m938.6667-138.6667 5.3333 10.6667h-16z"/><path d="m928-160 10.6667 21.3333-10.6667 10.6667h-96v-32z"/><path d="m928-160 10.6663 21.3325.0004.0008z"/><path d="m832-160h-64z"/><path d="m832-128h-64-16l16-32h64z"/><path d="m752-128 16-32z"/><path d="m416-504v16z"/><path d="m416-488v40z"/><path d="m544-488v-16z"/><path d="m384-128h-32z"/><path d="m352-56v-16z"/><path d="m352 0v-56z"/><path d="m352-56v-16-56 128z"/><path d="m384-125v-3z"/><path d="m160-72v16z"/><path d="m160-72v16 56-128z"/><path d="m160 0v-56z"/><path d="m160-128v56z"/><path d="m32 40v-16z"/><path d="m32 136v-16z"/><path d="m48 256h-40z"/><path d="m-32 256h-32z"/><path d="m8 256h-16z"/><path d="m-32 252v4h24v-4z"/><path d="m-8 256v-4z"/><path d="m-32 252h24z"/><path d="m-8 416h16z"/><path d="m-64 416h56z"/><path d="m8 416h56z"/><path d="m-8 416h16 56-128z"/><path d="m-640-216v-40z"/><path d="m-640-128v-72z"/><path d="m-640-200v-16z"/><path d="m-480-100v4h16v-4z"/><path d="m-432-100v4h16v-4z"/><path d="m-432-96h-32z"/><path d="m-384-96h-32z"/><path d="m-416-96v-4z"/><path d="m-416-100h-16z"/><path d="m-464-96v-4z"/><path d="m-464-100h-16z"/><path d="m-768-200v40z"/><path d="m-768-216v16z"/><path d="m-768-160v32z"/><path d="m-8 252v4z"/><path d="m-32 256v-4z"/><path d="m-8 256h-24v-4h24z"/><path d="m-8 256h-24z"/><path d="m-32 252h24z"/><path d="m768-128h-32 16z"/><path d="m1056-184v-8-16 16 32-16z"/><path d="m1024-328v-8h32v8z"/><path d="m1024-184v8-32-8z"/><path d="m1024-296v-8-32 8z"/><path d="m1056-184v8h-32v-8z"/><path d="m1024-216v8h32v-8z"/><path d="m1056-296v-8h-32v8z"/><path d="m928-96v-32z"/><path d="m928-96h-160z"/><path d="m928-128v32h-160v-32z"/><path d="m-832 104v8 32-8z"/><path d="m-832-8v-8 16 16 8z"/><path d="m576 336v48-80z"/><path d="m584 336h-8v-32h8z"/><path d="m584 304h-8z"/><path d="m576 384-48 48-16 16 32-32z"/><path d="m-464 288h-48z"/><path d="m-432 288h-32 64z"/><path d="m-464 296v-8h32v8z"/><path d="m-432 288v8z"/><path d="m-464 296h32z"/><path d="m-864-8v-8h32v8z"/><path d="m-832 24v-8h-32v8z"/><path d="m-864 104v8h32v-8z"/><path d="m-832 136v8h-32v-8z"/><path d="m768-128v32z"/><path d="m928-64h-160z"/><path d="m928-96v32h-160v-32z"/><path d="m960-420h-8-48z"/><path d="m832-384v-8z"/><path d="m904-380h56v-4h-64v4z"/><path d="m736-384v4h64v-4z"/><path d="m736-380h8 48 8z"/><path d="m800-384h32-96z"/><path d="m704-176v-32z"/><path d="m1024-320v-8h32v8z"/><path d="m1024-192v8-32-8z"/><path d="m1024-288v-8-32 8z"/><path d="m1056-192v8h-32v-8z"/><path d="m1024-224v8h32v-8z"/><path d="m1056-288v-8h-32v8z"/><path d="m792-420h-48-8 64z"/><path d="m952-380h-48v-40h48z"/><path d="m952-380h8-56z"/><path d="m744-420h48v40h-48z"/><path d="m928-32v-32z"/><path d="m768-64v-64 32z"/><path d="m928-32h-160z"/><path d="m928-64v32h-160v-32z"/><path d="m-832 96v8 32-8z"/><path d="m-832 0v-8 32 8z"/><path d="m576-336v32z"/><path d="m576-176v16 32-32z"/><path d="m608-176v-32z"/><path d="m608-176v16z"/><path d="m608-336v-16z"/><path d="m672-352v16z"/><path d="m672-336v32z"/><path d="m672-176h32z"/><path d="m704-336h-32z"/><path d="m704-336h-32v32h32z"/><path d="m672-176h32v-32h-32z"/><path d="m672-352v16h-64v-16z"/><path d="m608-160v-16h64v16z"/><path d="m576-176h32z"/><path d="m608-336h-32z"/><path d="m576-176h32v-32h-32z"/><path d="m608-336h-32v32h32z"/><path d="m-384 0v32z"/><path d="m-64 160v-32 64 96-32z"/><path d="m-64 0v32z"/><path d="m352-128h-32z"/><path d="m64 256v-192z"/><path d="m64 416v-32z"/><path d="m160 0h32z"/><path d="m160 0h-32z"/><path d="m352-128h-32v128h32z"/><path d="m-64 0h96z"/><path d="m32 0v24z"/><path d="m-64 0v32h96v-8-24z"/><path d="m32 160v-24-8h-96v32z"/><path d="m48 256h-40-16-24z"/><path d="m-256 160v-32z"/><path d="m-256 160v-32h-128v32z"/><path d="m-864 32v-8-8 96-8-8-8-48z"/><path d="m-864 0v-8h32v8z"/><path d="m-832 32v-8h-32v8z"/><path d="m-864 96v8h32v-8z"/><path d="m-832 128v8h-32v-8z"/><path d="m928 0v-32-32z"/><path d="m768-64v32z"/><path d="m928-32v32h-160v-32z"/><path d="m952-420h8z"/><path d="m792-420h8z"/><path d="m736-420h8z"/><path d="m904-420v40z"/><path d="m952-380v-40z"/><path d="m960-380h-8z"/><path d="m904-380h-8z"/><path d="m744-380h-8z"/><path d="m800-380h-8z"/><path d="m792-380v-40z"/><path d="m744-420v40z"/><path d="m32 136v-16 8z"/><path d="m704-352v16 32 96 32 48z"/><path d="m704-352v-32 48z"/><path d="m704-304v-32z"/><path d="m704-176v16 32z"/><path d="m1024-200v8-32-8z"/><path d="m1024-232v-48-32 8 96 8z"/><path d="m1024-280v-8-32 8z"/><path d="m1024-200v-8h32v16h-32z"/><path d="m1024-280v48h32v-48z"/><path d="m1024-232v8h32v-8z"/><path d="m1056-280v-8h-32v8z"/><path d="m896-420h8z"/><path d="m960-384v4z"/><path d="m896-380v-4z"/><path d="m896-380h8z"/><path d="m736-380v-4z"/><path d="m736-380h8z"/><path d="m800-384v4z"/><path d="m800-384h32z"/><path d="m704-384h32z"/><path d="m928 0v-64 96z"/><path d="m768 0v-64 32z"/><path d="m768 0v32z"/><path d="m768 0h160z"/><path d="m928 32h-160v-32h160z"/><path d="m-832 8v-8 32 8z"/><path d="m-832 88v8 32-8z"/><path d="m576-384v32 16z"/><path d="m576-208v-96-32 80 80z"/><path d="m576-208v32z"/><path d="m576 336v-32-48 128z"/><path d="m576 384v-48z"/><path d="m632-352h16 24-64z"/><path d="m648-160h-16-24 64z"/><path d="m608-304v-32z"/><path d="m672-208v32z"/><path d="m704-304h-32v96h32z"/><path d="m632-352v16h16v-16z"/><path d="m648-336h-16v160h16z"/><path d="m672-176v-32-96-32-16h-24v16 160 16h24z"/><path d="m632-176v-160-16h-24v16 32 96 32 16h24z"/><path d="m632-176v16h16v-16z"/><path d="m576-304v96h32v-96z"/><path d="m584 304h-8v32h8z"/><path d="m576 336h8z"/><path d="m584 336v-32z"/><path d="m-384 128v-80-16-32 64 96z"/><path d="m-384 128v32z"/><path d="m224-384h-64z"/><path d="m416-384h-64z"/><path d="m544-384h32z"/><path d="m352-384v-16z"/><path d="m544-448v-40z"/><path d="m544-384v-64h-128v64z"/><path d="m224-384v-16z"/><path d="m-64 384v32z"/><path d="m192-128h-32z"/><path d="m512-128h64z"/><path d="m160-384v32z"/><path d="m384-128-16-32z"/><path d="m352-384 16 32z"/><path d="m512-128h64v-32h-48z"/><path d="m160-160v32l32-32z"/><path d="m192-128h128 32 32l-16-32h-16-160l-32 32z"/><path d="m224-384h-64l32 32h16z"/><path d="m64 288v-32z"/><path d="m352 0h-32-128-32-32 128z"/><path d="m320 0h32z"/><path d="m320-128h-128v128h128z"/><path d="m192-128h-32v128h32z"/><path d="m32 120v-80-8h-96v96h96z"/><path d="m32 40v-16 8z"/><path d="m-64 288v96h128v-96z"/><path d="m64 288v-32h-16-80-32v32z"/><path d="m-64 384v32h128v-32z"/><path d="m-256 352v64z"/><path d="m-256 160v64z"/><path d="m-256 32v-32z"/><path d="m-256 48v-16h-128v16z"/><path d="m-256 48h-128v80h128z"/><path d="m-256 32v-32h-128v32z"/><path d="m-256 352h-16z"/><path d="m-432 288h-32v8h32z"/><path d="m-464 288v8z"/><path d="m-832 8v8h-32v-16h32z"/><path d="m-832 40v-8h-32v8z"/><path d="m-864 88v8h32v-8z"/><path d="m-864 40v48h32v-48z"/><path d="m1056-208h-1v-96h1z"/><path d="m1056-304v96z"/><path d="m1055-208v-96z"/><path d="m-863 112h-1v-96h1z"/><path d="m-864 112v-96z"/><path d="m-863 16v96z"/><path d="m864-392v8z"/><path d="m864-392h-32z"/><path d="m768 64h160z"/><path d="m928 32v-96 64 64z"/><path d="m768 0v32 32z"/><path d="m928 64h-160v-32h160z"/><path d="m768 32h160z"/><path d="m-384 0v-96 160z"/><path d="m-384 0v-96z"/><path d="m-384 288h-16z"/><path d="m488 528h-16v24h16z"/><path d="m424 528h-16v24h16z"/><path d="m40 144v16z"/><path d="m24 160v-16z"/><path d="m40 160h-16v-16h16z"/><path d="m40 224v16z"/><path d="m24 240v-16z"/><path d="m40 240h-16v-16h16z"/><path d="m1088 112v-48 32 96 32z"/><path d="m416-544h24z"/><path d="m488 552h-16z"/><path d="m424 552h-16z"/><path d="m408 544h-24z"/><path d="m472 544h-48z"/><path d="m408 544h16 48 16 24-128z"/><path d="m512 544h-24z"/><path d="m704-368v-16 32z"/><path d="m960-128h-32 16z"/><path d="m928-128h32-64z"/><path d="m992-384v64-32z"/><path d="m992-192v64-32z"/><path d="m1024-192h32v-16h-32z"/><path d="m1024-208v-96-16h-32v40 88h32z"/><path d="m1056-304v-16h-32v16z"/><path d="m1056-320v16-16-8-8-16z"/><path d="m1056-304h-32v-8-8h32z"/><path d="m1024-320h32v-32h-64v32z"/><path d="m1056-192h-32-32v32h64z"/><path d="m864-384v-8z"/><path d="m896-384v4z"/><path d="m896-384h-32z"/><path d="m736-384v4z"/><path d="m736-352h-16-16v224l32-32z"/><path d="m704-384v16l16 16h16z"/><path d="m704-368v16h16z"/><path d="m704 64h64z"/><path d="m928-128v64-32z"/><path d="m928-128h-32v32 32h32z"/><path d="m928-64h-32l32 64z"/><path d="m768-128v64h32v-64z"/><path d="m1040 224h48-160z"/><path d="m1088 64v48h-48-64-48v-48z"/><path d="m1088 224h-48v-48-64h48z"/><path d="m928 112h48v64h-48z"/><path d="m928 176h48 64v48h-112z"/><path d="m768 64h160v48 64 48h-224v-160z"/><path d="m976 176v-64z"/><path d="m976 112h64z"/><path d="m1040 176h-64z"/><path d="m1040 112v64z"/><path d="m-832 16v-8 32 48 32-8z"/><path d="m-832 144v-16 32 32z"/><path d="m-832-64v32 32z"/><path d="m704 224h-128z"/><path d="m704 64v160h-128v-32-128z"/><path d="m512 448v64z"/><path d="m-384 64v64 160-128z"/><path d="m416-336h96v-16h-144l8 16z"/><path d="m576-336v-16h-64v16 32 16 80 32h24l40-80z"/><path d="m376-336-8-16-16-32h-24-16-48-16-24l-16 32-5.3333 10.6667 5.3333 5.3333z"/><path d="m248-400v16h16v-16z"/><path d="m328-400v16h24v-16z"/><path d="m224-384h24v-16h-24z"/><path d="m264-400v16h48v-16z"/><path d="m312-400v16h16v-16z"/><path d="m192-352 10.6667 10.6667 5.3333-10.6667z"/><path d="m202.6667-341.3333-10.6667-10.6667v16h16z"/><path d="m416-336h-40-168-16v32h32 16 176z"/><path d="m464-304h48v-32h-96v32z"/><path d="m512-176v-32h-16-32-112v16l8 16z"/><path d="m576-176v-80l-40 80-8 16h48z"/><path d="m360-176-8-16v32h16z"/><path d="m408-128h16 48 16 24l16-32 8-16h-24-152l8 16 16 32z"/><path d="m512-128h-24v16h24z"/><path d="m472-128v16h16v-16z"/><path d="m472-112v-16h-48v16z"/><path d="m384-128v16h24v-16z"/><path d="m408-128v16h16v-16z"/><path d="m352-192v-16h-112-16-32v48h160z"/><path d="m192-208h32v-96h-32z"/><path d="m512 0h-40v32 96h40z"/><path d="m512 192v-64h-40-16-16-40l-16 64z"/><path d="m384 32h16 40 16 16v-32h-88-32-96l64 32z"/><path d="m456 72v-40h-16v40z"/><path d="m440 88v-16-40h-40v96h40z"/><path d="m384 128v64l16-64v-96h-16z"/><path d="m456 32v40 16 40h16v-96z"/><path d="m456 88h-16v40h16z"/><path d="m456 72h-16v16h16z"/><path d="m384 192v-64l-32 128h16z"/><path d="m336 288 32-32h-16l-56 56-8 8v16z"/><path d="m576 256-64-64h-128l-16 64v32 144h160l48-48z"/><path d="m368 256-32 32h16 16z"/><path d="m384 448h128l16-16h-160v16z"/><path d="m352 336v112h16v-16-144h-16z"/><path d="m288 320 8-8-56 8z"/><path d="m336 288-48 48h64v-48z"/><path d="m288 336v-16h-48-64-112v16z"/><path d="m288 336h-224v80l64 32h64 24 16 48 8z"/><path d="m296 448h24 32v-112h-64v112z"/><path d="m280 464v-16h-48v16z"/><path d="m320 448h-24v16h24z"/><path d="m296 448h-8-8v16h16z"/><path d="m216 448h-24v16h24z"/><path d="m232 448h-16v16h16z"/><path d="m40 144h-16-24v-16l48-48v64z"/><path d="m48 144v-64l16-16v192 32h-16z"/><path d="m64 288v32l-16-16v-16z"/><path d="m-112 64v-64h-96v64z"/><path d="m-96 192v-192h-16v64 16 32 112h16z"/><path d="m-112 224v112 16 32h16v-160z"/><path d="m-208 128v-48-16-64h-16v208 16h16z"/><path d="m-224 224v128h16v-128z"/><path d="m48 288v16l-8-8v-56-16-64-16h8z"/><path d="m40 224h-16v-64h16z"/><path d="m24 240h16v56l-16-16z"/><path d="m24 160v64 16 40l-24-24v-112h24z"/><path d="m-112 384v-32h-48v32z"/><path d="m-96 416v-32h-16-48v32z"/><path d="m-256 224v24 16 48 16 24h32v-128-16z"/><path d="m-256 312h-16v16h16z"/><path d="m-256 264h-16v48h16z"/><path d="m-272 352h16v-24h-16z"/><path d="m-272 248h16v-24h-16z"/><path d="m-256 248h-16v16h16z"/><path d="m-160 384v-32h-32-16l-16 16v48h64z"/><path d="m-224 368 16-16h-16-32z"/><path d="m112 16-48 48-16 16-48 48z"/><path d="m240 320h-64z"/><path d="m352 256-56 56z"/><path d="m384 128-32 128z"/><path d="m296 312-56 8z"/><path d="m-112 64-16 16h16z"/><path d="m-160 352h48l-16-16h-64v16z"/><path d="m-208 128v96 128l16-16v-168-40z"/><path d="m416-504v16z"/><path d="m544-488v-16z"/><path d="m544-544v40z"/><path d="m416-448h128z"/><path d="m248-400h16 48 16 24v16h-128v-16z"/><path d="m384 448h-16-16-32z"/><path d="m192 448h-64z"/><path d="m512-352h64v-32h-32-128-64l16 32z"/><path d="m528-160-16 32z"/><path d="m192-208v-96-32-16l-32-32v32 192h32z"/><path d="m208-352 16-32z"/><path d="m64 416v-80-16-32-32 32 96z"/><path d="m512 0v128 64-80-64z"/><path d="m384 0h-32z"/><path d="m384-112v-16 3z"/><path d="m112 16 16-16-64 64z"/><path d="m40 224h-16z"/><path d="m24 160h16z"/><path d="m40 144h-16z"/><path d="m24 240h16z"/><path d="m384 512v-64z"/><path d="m192 464v-16z"/><path d="m320 464h-24-16-48-16-24v-16h128z"/><path d="m-96 416h-64-64-32 192z"/><path d="m-224 0h16 96 16 32-192z"/><path d="m-96 192v32 160 32h32v-32-96-96z"/><path d="m-96 0v192h32v-64-96-32z"/><path d="m-224 208v-208h-32v32 16 80 32 64z"/><path d="m-224 416v-48l-32-16v64z"/><path d="m-256 224 32-16z"/><path d="m-224 368-32-16z"/><path d="m-272 224h16z"/><path d="m-272 352v-24-16-48-16-24h16v128z"/><path d="m-464 288h32z"/><path d="m-400 288h-32z"/><path d="m-384 64v-160h-16v224h16z"/><path d="m-400 128v32 128h16v-160z"/><path d="m-496-96h-16v32 192h16z"/><path d="m-512 128v32h16v-32z"/><path d="m-400-96h-96v224h96z"/><path d="m-496 128v32h32 64v-32z"/><path d="m-768-128h128v-32h-128z"/><path d="m-800-64v-32l-16 16v208h16z"/><path d="m-816 128v16 16h16v-32z"/><path d="m-816 128v-208l-16 16v64 16 96 16 16h16z"/><path d="m-832 144v48l16 4v-24-12-16z"/><path d="m-464 224v64h32 32v-128h-64z"/><path d="m-632 206v2 16h56 80v-52z"/><path d="m-640 208h8v-2z"/><path d="m-632 224v-16h-8-8v16z"/><path d="m-632 206 136-34v-12h-16l-128 32v16z"/><path d="m-496 160v12 52h32v-64z"/><path d="m-496 224h-80l64 64h48v-64z"/><path d="m-648 208h-24v16h24z"/><path d="m-768 192h16v-4l-16-4z"/><path d="m-752 192h-16v16h16z"/><path d="m-768 184 16 4 80 20v-16l-128-32h-16v12z"/><path d="m-672 192v16h24 8v-16z"/><path d="m-704 224h32v-16l-80-20v4 16 4z"/><path d="m-752 208h-16l16 4z"/><path d="m-768 208v-16-8l-48-12v24z"/><path d="m-672 192-96-24-32-8z"/><path d="m-512-96v32z"/><path d="m-640-160v-96 16z"/><path d="m-800-64v192 32-32z"/><path d="m-640-160v32-72-16-40z"/><path d="m-496-96h96 16-32-16-32-16-32z"/><path d="m-768-160v-96 40 16z"/><path d="m-816-80 16-16 32-32-64 64z"/><path d="m-576 224 64 64z"/><path d="m512 512v32z"/><path d="m384 544v-32z"/><path d="m-864 112v16h32v-16z"/><path d="m-864 0v16h32v-16z"/><path d="m-864 0v-32 16 8 8 16z"/><path d="m-864 128v-16 16 8 8 16z"/><path d="m-832 128h-32v32h32z"/><path d="m-864 112h32v8 8h-32z"/><path d="m424 544h-16v8h16z"/><path d="m488 544h-16v8h16z"/><path d="m472 552v-8z"/><path d="m488 544v8z"/><path d="m408 552v-8z"/><path d="m424 544v8z"/><path d="m976 176v-64h64v64z"/><path d="m176 320h-112z"/><path d="m256 336v-16z"/><path d="m256 336h-32-35.3886-11.7056z"/><path d="m176 320h64 16v16h-79.0942-112.9058v-16z"/><path d="m64 320-64-64 24 24 16 16 8 8z"/><path d="m488 552h-16z"/><path d="m424 552h-16z"/><path d="m424 448h-16v64h16z"/><path d="m408 448h-24v96h24z"/><path d="m488 448h-16v64h16z"/><path d="m424 552h-16v-8h16z"/><path d="m488 552h-16v-8h16z"/><path d="m512 448h-24v96h24z"/><path d="m472 448h-48v96h48z"/><path d="m424 512v16 24z"/><path d="m472 552v-24-16z"/><path d="m488 512v16 24z"/><path d="m472 512v16h16v-16z"/><path d="m408 552v-24-16z"/><path d="m408 512v16h16v-16z"/><path d="m64 336v-16z"/><path d="m256 320v16z"/><path d="m64 320v16h192v-16z"/><path d="m130.0835 320h125.9165-91.8193z"/><path d="m408-288h-168z"/><path d="m496-288h16v-16z"/><path d="m240-288h168 56v-16h-48-176z"/><path d="m464-288h32l16-16h-48z"/><path d="m496-224v16h16z"/><path d="m496-288v64l16 16v-80z"/><path d="m464-224h32-32-56z"/><path d="m464-224h-56-168v16h112 112z"/><path d="m496-224h-32v16h32z"/><path d="m240-224-16 16h16z"/><path d="m240-224v-64l-16-16v96z"/><path d="m240-288v-16h-16z"/><path d="m-192 80-16-16v16z"/><path d="m-128 80 16-16h-96l16 16z"/><path d="m-192 168v168-32z"/><path d="m-128 336h-64z"/><path d="m-128 112v-32 88z"/><path d="m-128 112v56 168h16v-112-112z"/><path d="m-128 80v32h16v-32z"/><path d="m-128 336 16 16v-16z"/><path d="m-192 80h-16v48h16z"/><path d="m-192 336-16 16h16z"/><path d="m384 544v-96z"/><path d="m512 448v96z"/><path d="m384 448h128z"/><path d="m512 544h-128z"/><path d="m512 544h-128v-96h128z"/><path d="m736-128h32 32z"/><path d="m960-128h32z"/><path d="m832-392v8z"/><path d="m864-392v8z"/><path d="m704-128 16-16 16-16z"/><path d="m864-120h-32v24h32z"/><path d="m896-64v-32h-32-32v32z"/><path d="m896-128h-32v8 24h32z"/><path d="m864-120v-8z"/><path d="m896-64v128h32v-64z"/><path d="m896-64h-64v128h64z"/><path d="m800-64h32v-32-24-8h-32z"/><path d="m832-64h-32v128h32z"/><path d="m800-64-32 64v64h32z"/><path d="m800-64h-32v64z"/><path d="m576 256v-32z"/><path d="m576 256h16z"/><path d="m576 256h16v32h-16z"/><path d="m576 384v48h-48z"/><path d="m528 432v16h-16z"/><path d="m528 448v-16h48v80h-48z"/><path d="m512 512v-64h16v64z"/><path d="m464-288h-56-168v64h168 56z"/><path d="m496-224v-64h-32v64z"/><path d="m240-288v64z"/><path d="m464-288h32-32-56z"/><path d="m496-224v-64z"/><path d="m408-224h-168z"/><path d="m64 320v16z"/><path d="m188.6114 336h35.3886v-16h-32-32-64-32v16z"/><path d="m296 312-8 8h-32-16z"/><path d="m256 448h-32v-112h32 32z"/><path d="m288 336h-32v-16h32z"/><path d="m368 480v-48h16v16 64l-16-8z"/><path d="m528 432-16 16h-128v-16z"/><path d="m368 256 16-64h16 176v32 32 32 96l-48 48h-144-16z"/><path d="m368 256v176 48h-48l-64-32 32-112z"/><path d="m368 480v24l-48-24z"/><path d="m296 312 56-56h16l-80 80v-16z"/><path d="m400 128v64h-16z"/><path d="m384 128h16l-16 64-16 64h-16z"/><path d="m384 128v-96h16v96z"/><path d="m448 32h24 104v32 128h-176v-64-96z"/><path d="m192 320h32z"/><path d="m224 448h32z"/><path d="m320 480 48 24 16 8-64-32-16-8-48-24z"/><path d="m384 512v-64z"/><path d="m384 32v96z"/><path d="m512 448h-128z"/><path d="m240 320h16z"/><path d="m188.6114 336h-124.6114 112.9058z"/><path d="m-128 168v-88h-64v88 136h64z"/><path d="m-192 304v32h64v-32z"/><path d="m-128 80h-64z"/><path d="m-192 80v48 40z"/><path d="m-128 168v136 32z"/><path d="m-640 192h-32z"/><path d="m-672 200v-8h32v8z"/><path d="m-640 200v-8z"/><path d="m512 512v32z"/><path d="m384 544v-32z"/><path d="m256 336h-192z"/><path d="m448 32h24z"/><path d="m448 32h-48-16z"/><path d="m192 320h-32z"/><path d="m192 448h32 32z"/><path d="m224 320v16 112z"/><path d="m192 320h32v128h-32z"/><path d="m864-128h96 32-64z"/><path d="m864-128h32 64z"/><path d="m1088 64h-160z"/><path d="m864-120h-32z"/><path d="m928 224h-224z"/><path d="m1088 224v-32h-120-40v32z"/><path d="m928 64h-32v32z"/><path d="m768 64 32 32v-32z"/><path d="m576 32v32z"/><path d="m704 64h-128z"/><path d="m704 224v-32h-128v32z"/><path d="m504 32h72-104z"/><path d="m472 24v8z"/><path d="m504 32h-32v-8h32z"/><path d="m160 448h32 64z"/><path d="m160 320h32v128h-32z"/><path d="m192 320v128z"/><path d="m-800-96 8-8 24-24z"/><path d="m-816 64v-128h16v192h-16z"/><path d="m-800-96v32z"/><path d="m-520 162-120 30 128-32z"/><path d="m-816 64h-16z"/><path d="m-816-64h-16z"/><path d="m-832-64h16v128h-16z"/><path d="m-880-64h48v128h-48z"/><path d="m992-280v-40-64 64z"/><path d="m992-280v48 104-64z"/><path d="m992-280h-32v48h32z"/><path d="m128 320h-32 64z"/><path d="m96 320h-32z"/><path d="m128 448h32 96z"/><path d="m160 320v128z"/><path d="m160 448h-32v-128h32z"/><path d="m648-48h-16v24h16z"/><path d="m520-552h-16v24h16z"/><path d="m456-552h-16v24h16z"/><path d="m-664-264h-16v24h16z"/><path d="m-728-264h-16v24h16z"/><path d="m520-544h24z"/><path d="m456-544h48z"/><path d="m440-552v8h16v-8z"/><path d="m504-552v8h16v-8z"/><path d="m456-552v8z"/><path d="m520-552v8z"/><path d="m504-544v-8z"/><path d="m504-552h16z"/><path d="m440-544v-8z"/><path d="m440-552h16z"/><path d="m992-192v64-104z"/><path d="m864-392h-32z"/><path d="m928-232v-48-8 64z"/><path d="m992-232h-32-16z"/><path d="m944-280h16 32z"/><path d="m928-288v8h16 48v-40h-32z"/><path d="m928-280v48h16v-48z"/><path d="m944-232h16v-48h-16z"/><path d="m960-192h32v-40h-48-16v8z"/><path d="m968 136h-16v16h16z"/><path d="m712 136h-8v16h8z"/><path d="m968 96v40 16 40h120v-96z"/><path d="m896 96v40h56 16v-40z"/><path d="m832 64h-32v32 40h96v-40-32z"/><path d="m704 96v40h8 16 72v-40z"/><path d="m928 152h-200-16-8v40h224z"/><path d="m968 192v-40h-16-24v40z"/><path d="m952 136h-56-96-72v16h200 24z"/><path d="m728 136h-16v16h16z"/><path d="m928 192h-224v32h224z"/><path d="m968 96h120v-32h-160l-32 32z"/><path d="m800 96-32-32h-64v32z"/><path d="m576 64v32z"/><path d="m576 224v-32z"/><path d="m704 96v-32h-128v32z"/><path d="m704 192v-40-16-40h-128v96z"/><path d="m592 256v32z"/><path d="m592 288v224h-16v-80-48-96z"/><path d="m544-448h-128z"/><path d="m544-448h-128z"/><path d="m544-544v96-40-16z"/><path d="m416-448v-96 40 16z"/><path d="m96 320h32z"/><path d="m96 448h32 128z"/><path d="m128 320v128z"/><path d="m128 448h-32v-128h32z"/><path d="m-664-256h24z"/><path d="m-728-256h48z"/><path d="m-680-264v8h16v-8z"/><path d="m-744-264v8h16v-8z"/><path d="m-680-256v-8z"/><path d="m-664-264v8z"/><path d="m-680-264h16z"/><path d="m-728-264v8z"/><path d="m-744-256v-8z"/><path d="m-744-264h16z"/><path d="m-640-96 64-16-64-16h-128l-24 24 24 8z"/><path d="m-792-104-8 8z"/><path d="m-640-96 64-16z"/><path d="m-768-128h128z"/><path d="m-576-112 64 16-128-32z"/><path d="m648-24h-16z"/><path d="m632-96h-24v64h24z"/><path d="m648-96h-16v32h16z"/><path d="m648-24h-16v-8h16z"/><path d="m672-96h-24v64h24z"/><path d="m648-64v16 24z"/><path d="m632-24v-24-16z"/><path d="m632-64v16h16v-16z"/><path d="m440-552h16z"/><path d="m504-552h16z"/><path d="m504-512v64h16v-64z"/><path d="m544-544h-24v96h24z"/><path d="m440-512v64h16v-64z"/><path d="m504-544v-8h16v8z"/><path d="m440-544v-8h16v8z"/><path d="m440-544h-24v96h24z"/><path d="m504-544h-48v96h48z"/><path d="m504-512v-16-24z"/><path d="m520-552v24 16z"/><path d="m520-512v-16h-16v16z"/><path d="m456-552v24 16z"/><path d="m440-512v-16-24z"/><path d="m456-512v-16h-16v16z"/><path d="m-744-264h16z"/><path d="m-680-264h16z"/><path d="m-680-224v64h16v-64z"/><path d="m-640-256h-24v96h24z"/><path d="m-744-224v64h16v-64z"/><path d="m-680-256v-8h16v8z"/><path d="m-744-256v-8h16v8z"/><path d="m-744-256h-24v96h24z"/><path d="m-680-256h-48v96h48z"/><path d="m-728-264v24 16z"/><path d="m-680-224v-16-24z"/><path d="m-664-264v24 16z"/><path d="m-664-224v-16h-16v16z"/><path d="m-744-224v-16-24z"/><path d="m-728-224v-16h-16v16z"/><path d="m864-128v8z"/><path d="m648-32v-64h24v64z"/><path d="m608-96h24v64h-24z"/><path d="m648-32v8h-16v-8-64h16z"/><path d="m96 448h160-192z"/><path d="m96 320v128z"/><path d="m64 336v-16h32v128h-32z"/><path d="m992-192v64z"/><path d="m960-320h32z"/><path d="m960-192h32z"/><path d="m928-288v64z"/><path d="m928-288 32-32z"/><path d="m928-224 32 32z"/><path d="m608-96h64z"/><path d="m672-96v64z"/><path d="m608-32v-64z"/><path d="m672-32h-64z"/><path d="m672-32h-64v-64h64z"/><path d="m416-448v-96z"/><path d="m544-544v96z"/><path d="m544-448h-128z"/><path d="m416-544h128z"/><path d="m544-448h-128v-96h128z"/><path d="m-768-160v-96z"/><path d="m-640-256v96z"/><path d="m-640-160h-128z"/><path d="m-768-256h128z"/><path d="m-640-160h-128v-96h128z"/><path d="m544-544h-24-16-48-16-24z"/><path d="m992-320h16v56 16 56h-16z"/><path d="m960-320h32z"/><path d="m992-192h-32z"/><path d="m928-288 32-32h32v128h-32l-32-32z"/><path d="m928-288 32-32z"/><path d="m960-192-32-32z"/><path d="m736-352v192z"/><path d="m704-160v-208l16 16v192l-16 16z"/><path d="m720-160v-192-16l16 16v192l-16 16z"/><path d="m704-384 16 16v16l-16-16z"/><path d="m720-160v16l-16 16v-16z"/><path d="m736-352-16-16-16-16z"/><path d="m688-432-48-48 32 32 32 32z"/><path d="m-832 72v28 8-24z"/><path d="m-40 512h40-96-32z"/><path d="m576 192v-96-32z"/><path d="m672-96h-24-16-24z"/><path d="m608-432v-48h32l48 48v48h-80z"/><path d="m688-432 16 16v32h-16z"/><path d="m608-208v-176h80l16 16v208h-96z"/><path d="m704-160v16l-16 16h-80v-32z"/><path d="m688-384h16v16z"/><path d="m704-128-16 16v-16l16-16z"/><path d="m688-112-16 16h-64v-32h80z"/><path d="m576-480h32v48h-32z"/><path d="m576-288v-32-112h32v48 176h-32z"/><path d="m608-208v48 32 32l-32-32v-32-48z"/><path d="m672-96v64z"/><path d="m544-544v16 16 32z"/><path d="m416-544v64-52z"/><path d="m560-448h-16v-32h16z"/><path d="m560-448v-32h16v48h-16z"/><path d="m384-480h16v32 16h-16z"/><path d="m416-448h-16v-32h16z"/><path d="m400-432v-16h16 128 16v16z"/><path d="m544-320h-128-32v-112h16 160 16v112z"/><path d="m224-416v-64h160v48 112 32h-32-128z"/><path d="m384-160v-32h32v32z"/><path d="m384-288v96 32h-32v-32-96z"/><path d="m416-128v128h-64v-32-64-64h32 32z"/><path d="m320-192h-96v-96h128v96z"/><path d="m96-192h64 64 96v96h-32-32-160z"/><path d="m320-192h32v32 64h-32z"/><path d="m96-192v-32l64 32z"/><path d="m288 0v-32h64v32z"/><path d="m288-32v32l-32-16v-80h32z"/><path d="m256-16 32 16h-32-128v-16z"/><path d="m96-32v-64h160v80h-128-32z"/><path d="m96 16 32-32v16l-16 16-112 112v-16z"/><path d="m96-16h32l-32 32z"/><path d="m472 24v8h32v-8z"/><path d="m416 192h32v-160h-32z"/><path d="m352 0h64v16h-96l-32-16z"/><path d="m416 16v16h-32-64v-16z"/><path d="m448 192h-32l-48 128h32z"/><path d="m320 32-64-32h32l32 16z"/><path d="m320 426.6667 80-106.6667h-32l-112 128h48z"/><path d="m304 448h-48l48 24z"/><path d="m-96-64v-160-32h80v224h-80z"/><path d="m-16-32v160 16h-56-24v-144-32z"/><path d="m-16-256h48l64 32v32 96 64h-112z"/><path d="m96-32v16 32l-96 96-16 16v-160z"/><path d="m-96-224v160h-64v-160z"/><path d="m-16 144v-16l16-16v16 128 16l-16-16z"/><path d="m-128 144v-80l32-64v144z"/><path d="m-320-224h160v160 64h-160z"/><path d="m-160 0v144h-160v-144z"/><path d="m-352 0h32v144h-64v-144z"/><path d="m64 336-64-64v-16l64 64z"/><path d="m0 272 64 64h-80v-80z"/><path d="m-96 144h24l-56 112v-96-16z"/><path d="m-128 256 56-112h56v112 80h-24-64-56v-16z"/><path d="m-40 416v-64-16h24 80v112l-64 64h-40z"/><path d="m-104 336h64v16h-64z"/><path d="m-104 336v16 64h-56v-80z"/><path d="m-128 512-32-64v-32h56 64v96z"/><path d="m-320 144h160v16h-224v-16z"/><path d="m576-480h-16-16z"/><path d="m416-544v64z"/><path d="m544-544v64z"/><path d="m224-416v128 96-64z"/><path d="m416-160v-32 64z"/><path d="m544-320v16h-128v-16z"/><path d="m384-288v-32 128z"/><path d="m352-96v64z"/><path d="m288-32v-64z"/><path d="m352-32h-64z"/><path d="m288-96h32 32z"/><path d="m448 32h16 2.2857 5.7143z"/><path d="m416 192-48 128z"/><path d="m-96-256v32z"/><path d="m-160 160h-224z"/><path d="m-160 144v-144-64 192 32z"/><path d="m-128 144v-32-48z"/><path d="m-384-224h16v24 168h-16z"/><path d="m-128 160v96z"/><path d="m-40 352v64z"/><path d="m384 512-32-16-32-16z"/><path d="m304 448v24l16 8v-32z"/><path d="m320 426.6667-16 21.3333h16z"/><path d="m256 448h-32-16-16-80-16-32z"/><path d="m368 320-42 48-70 80z"/><path d="m64 448-32 32-32 32z"/><path d="m-104 416v-64z"/><path d="m-40 416h-64z"/><path d="m-104 352h64z"/><path d="m-160 448h-16z"/><path d="m-160 448h-16v-6.4z"/><path d="m128 0h128z"/><path d="m544-480v32-96z"/><path d="m416-480v-64 96z"/><path d="m0 128v16 112z"/><path d="m128 0-16 16z"/><path d="m576 32h-72z"/><path d="m416 32h32-64z"/><path d="m384 32h-64z"/><path d="m504 32v-8z"/><path d="m504 24h-32z"/><path d="m256 0 64 32z"/><path d="m64 320v16z"/><path d="m64 336v112z"/><path d="m-640-256h-24-16-48-16-24z"/><path d="m-832 100v-28-8h16v64h-16z"/><path d="m-400 48v64z"/><path d="m-400-240v-16h16v32 192h-16z"/><path d="m-384-32v32 144h-16v-32-64-64-16z"/><path d="m-384 160h-16v-16h16z"/><path d="m-512-64v176 48-32z"/><path d="m-400 144v16h-48-48v-48h32 64z"/><path d="m-496 112v-64h32v64z"/><path d="m-496-240v132l-16-4v-128z"/><path d="m-496-108v-132h96v208 16h-96z"/><path d="m-400-16v64h-64-32v-64z"/><path d="m-512-64v-32-16l16 4v92 64 64h-16z"/><path d="m-496 112v48h-16v-48z"/><path d="m-400-256v16h-96-16v-16z"/><path d="m-464 48h64z"/><path d="m-400 112h-64z"/><path d="m-464 112v-64z"/><path d="m-640-96h-128z"/><path d="m-768-96-24-8 24-24z"/><path d="m-640-144v16 32h-128v-32-32h128z"/><path d="m-640-96v-32l64 16z"/><path d="m-624-140 112 28v16l-64-16-64-16v-16z"/><path d="m-624-140-16-4v-16-80h16z"/><path d="m-512-112-112-28v-100h48 64z"/><path d="m-512-240h-64l64-16z"/><path d="m-640-160h-128z"/><path d="m-768-160v-96z"/><path d="m-512-96-64-16z"/><path d="m-768-96-24-8z"/><path d="m-512 160-8 2z"/><path d="m-832-64h-48 16 16z"/><path d="m-832 64h-16-16-8z"/><path d="m-832 64h-40-8z"/><path d="m64 320h66.0835 34.0972z"/><path d="m64 336v-16h192v16z"/><path d="m288-32v-64h64v64z"/><path d="m-104 416v-64h64v64z"/><path d="m-464 112v-64h64v64z"/><path d="m-832 84v24h32 48v-24z"/><path d="m-752 84-12-12h-36-32v12z"/><path d="m-800 108v12h12z"/><path d="m-800 108h-32v12h32z"/><path d="m-800 128v32z"/><path d="m-596 181-44 11 120-30z"/><path d="m-832 128h16 16z"/><path d="m160-192h64z"/><path d="m112-224-4 6-32-16 4-6z"/><path d="m80-240-4 6z"/><path d="m76-234 32 16 52 26-64-32-64-32z"/><path d="m-128 64 32-64z"/><path d="m-128 144h-8v-32h8z"/><path d="m-832 120v-12-8 28z"/><path d="m-832 120v8z"/><path d="m-832 72v12z"/><path d="m-764 120 12-12h-48l12 12z"/><path d="m-788 120h-12z"/><path d="m-800 120h-32z"/><path d="m464 32h-16v160h16z"/><path d="m464 192h-16l-48 128h16z"/><path d="m320 480-16-8z"/><path d="m416 320h-16l-80 106.6667v21.3333z"/><path d="m512 528h-24-16-48-16-24v16h128z"/><path d="m592 512h-16-64 16 48z"/><path d="m592 456h-16v56h16z"/><path d="m592 440h-16v16h16z"/><path d="m592 328h-16v56 48 8h16z"/><path d="m592 312h-16v8 8h16z"/><path d="m592 288v-32h-16v56h16z"/><path d="m592 288v24 16 112 16 56z"/><path d="m528 432h48v-48z"/><path d="m472 512h16 24 64v-56-16-8h-48l-80 80z"/><path d="m464 32h2.2857z"/><path d="m504 32h-32z"/><path d="m504 32h72z"/><path d="m464 32v160z"/><path d="m576 192v-128-32h-72-32-5.7143-2.2857v160z"/><path d="m576 312v-56-32-32h-112l-48 128h160z"/><path d="m416 192h8l-48 128h-8z"/><path d="m424 192-48 128z"/><path d="m464 192-48 128z"/><path d="m376 320-43.8288 51.7977z"/><path d="m352 432v-26.6667l-32 42.6667v32l32 16z"/><path d="m528 432h-120-56v64l32 16h24 16 24z"/><path d="m416 320-8 10.6667v10.6666z"/><path d="m408 432v-90.6667-10.6666l-56 74.6666v26.6667z"/><path d="m416 320-8 21.3333v90.6667h120l48-48v-56-8z"/><path d="m320 448v32z"/><path d="m352 405.3333 56-74.6666 8-10.6667-96 128z"/><path d="m368 320h8l-43.8288 51.7977-6.1712-3.7977z"/><path d="m424 512h-16v16h16z"/><path d="m408 512h-24v16h24z"/><path d="m512 512h-24v16h24z"/><path d="m472 512h-24-24v16h48z"/><path d="m488 512h-16v16h16z"/><path d="m512 512v16 16z"/><path d="m384 528v-16 32z"/><path d="m-640 200h-32z"/><path d="m-512 160h16 48z"/><path d="m-512 160-8 2z"/><path d="m-520 162-44 11-32 8z"/><path d="m-584 182v-4l16-4v8z"/><path d="m-568 182v-8z"/><path d="m-584 178-56 14z"/><path d="m-564 173-4 1-16 4-56 14 44-11z"/><path d="m-640 200v-8z"/><path d="m-764 120h-24z"/><path d="m-788 72h-12 36z"/><path d="m-764 120 12-12z"/><path d="m-788 72-12 12v-12z"/><path d="m-800 72h-32z"/><path d="m904-420h48 8z"/><path d="m960-420h-8z"/><path d="m904-420h-8z"/><path d="m800-420h-8z"/><path d="m744-420h-8z"/><path d="m960-380v-4z"/><path d="m952-420h-48v40h48z"/><path d="m904-380v-40z"/><path d="m952-420v40z"/><path d="m952-380h8z"/><path d="m792-380h8z"/><path d="m792-420v40z"/><path d="m800-380v-4z"/><path d="m792-420h-48v40h48z"/><path d="m744-380v-40z"/><path d="m-832 84v24-8-28z"/><path d="m-832 108v12 8-28z"/><path d="m-832 84v-12z"/><path d="m-800 108v-24z"/><path d="m-584 178v4z"/><path d="m-568 174-16 4v4h16z"/><path d="m-584 178 16-4z"/><path d="m-584 182h16z"/><path d="m-800 108 12 12h-12z"/><path d="m-832 108v-24h32v24z"/><path d="m-800 84h-32v-12h32z"/><path d="m-800 108v12h-32v-12z"/><path d="m-640 200v-8z"/><path d="m-864 8v-16-56h-16v128h8 8z"/><path d="m992-384v64z"/><path d="m736-420h8 48 8z"/><path d="m832-384v-8z"/><path d="m960-380h-64v-4h64z"/><path d="m992-384h-32z"/><path d="m960-380h-8-48-8z"/><path d="m896-384h-32z"/><path d="m800-380h-64v-4h64z"/><path d="m800-380h-8-48-8z"/><path d="m832-384h-32z"/><path d="m736-384h-32z"/><path d="m-832 64v8z"/><path d="m576-320v32z"/><path d="m576-160v32z"/><path d="m640-480h-32-32z"/><path d="m576-320 32-32h-32z"/><path d="m576-288 32-16z"/><path d="m576-160v32l32 32v-48z"/><path d="m576-128 32 32z"/><path d="m576-480h-32v32h32z"/><path d="m544-480v32z"/><path d="m-384 0v32z"/><path d="m416-480h-16-16-160z"/><path d="m224-480v64z"/><path d="m416-320v-32z"/><path d="m544-320h32z"/><path d="m576-320v-32h-32v32z"/><path d="m544-320v16z"/><path d="m576-160h-16z"/><path d="m576-288h-16z"/><path d="m560-288h16v80 48h-16z"/><path d="m416-192h-32z"/><path d="m224-256v64h32v-64z"/><path d="m384-320h32z"/><path d="m384-320h32v-32h-64z"/><path d="m384-320-32-32v32z"/><path d="m384-320h-32v128h32z"/><path d="m-96-64v-32z"/><path d="m-160-224h64-64-160z"/><path d="m-160-64h64z"/><path d="m-160-64h64v-32h-64z"/><path d="m-160 160-32-32h-56-120-16v32z"/><path d="m-320-224v224z"/><path d="m-320 0 32 32v-32z"/><path d="m-160-224h-160l32 32h128z"/><path d="m-160-64-32-32v184 40h32z"/><path d="m-160-64v-32h-32z"/><path d="m-368-224v24z"/><path d="m-352 0h-32z"/><path d="m-320 0h-32z"/><path d="m-320 0h-32-32v32h64z"/><path d="m-576 192h36 20 8-8-12-24-12-16-12-24-12-8z"/><path d="m-800 160 32 8z"/><path d="m-384 160h-16z"/><path d="m-512 160v-32z"/><path d="m-400 160h-48z"/><path d="m-800-96 32-32-24 24z"/><path d="m-512 176v16h-8v-14z"/><path d="m-512 160v16l-8 2v-16z"/><path d="m-816-64h16-16-16z"/><path d="m-800-96v32z"/><path d="m-520 192h-20v-9l20-5z"/><path d="m-520 178-20 5v-16l20-5z"/><path d="m-520 162-20 5-24 6z"/><path d="m-800-64v84-8z"/><path d="m-800-64h-16v84h16z"/><path d="m-816-64h-16v84h16z"/><path d="m-800 20v8-8-8z"/><path d="m-816 20v8h16v-8z"/><path d="m-832 20v8h16v-8z"/><path d="m-800 28v20-12-16z"/><path d="m-800 160v-32z"/><path d="m-800 108 12 12z"/><path d="m-540 183-36 9h-64l56-14 16-4 28-7z"/><path d="m-540 192h-36l36-9z"/><path d="m-540 167-28 7 4-1z"/><path d="m-832 64v8 28 28h16v-100h-16z"/><path d="m-816 28v100h16v-20-24-36-20z"/><path d="m-800 128h-16-16z"/><path d="m-832 20v-84h-16v56 16 20h16z"/><path d="m-848-64h-16v56h16z"/><path d="m-848-8h-16v16h16z"/><path d="m-848 28v36h16v-36z"/><path d="m-848 28v-20h-16v56h16z"/><path d="m-368-32h-16z"/><path d="m-368-200v-24 32 8 16 80 16 8 32z"/><path d="m-368-200v168z"/><path d="m-532 192h12z"/><path d="m-568 192h12z"/><path d="m-632 192h12z"/><path d="m-596 192h12z"/><path d="m-640 192h8z"/><path d="m-672 192-48-12-16-4-16-4-16-4z"/><path d="m-512 192v-16-16z"/><path d="m-800-96v32z"/><path d="m-532 12 12-12h-56v12z"/><path d="m-532 12-8 8h8z"/><path d="m-576 12h-224v8h132 92z"/><path d="m-540 20 8-8h-44v8z"/><path d="m-800 36v12z"/><path d="m-632 36h12 24 12 28l16-16h-36-92v16z"/><path d="m-596 36h-24v156h24z"/><path d="m-540 20-16 16v12 144h24v-172z"/><path d="m-620 36-12 12v144h12z"/><path d="m-556 36-12 12h12z"/><path d="m-668 20h-132v16h132z"/><path d="m-668 36h-132v12h144z"/><path d="m-752 176v-4z"/><path d="m-720 184v-4z"/><path d="m-736 184v-8l16 4v4z"/><path d="m-768 176v-8l16 4v4z"/><path d="m-640 192v8z"/><path d="m864-392h-32z"/><path d="m108-218 4-6-32-16-4 6z"/><path d="m108-218 4-6z"/><path d="m160-192-52-26z"/><path d="m76-234-44-22z"/><path d="m112-224-32-16z"/><path d="m-128 144h-8z"/><path d="m-128 64v48z"/><path d="m-128 112h-8v32h8z"/><path d="m-136 112h8z"/><path d="m-136 144v-32z"/><path d="m-128 144v16z"/><path d="m-568 192h-16z"/><path d="m-520 0-12 12v8 172h12z"/><path d="m-576 0h-224v12h224z"/><path d="m-800 0v-36-8-20 76z"/><path d="m-520 0h-56z"/><path d="m-800 0v-36z"/><path d="m-632 48v144z"/><path d="m-584 48h16l12-12h-28z"/><path d="m-568 48v144z"/><path d="m-568 48v144h12v-144z"/><path d="m-584 48-12-12v156h12z"/><path d="m-584 48v-12h-12z"/><path d="m-632 48 12-12h-12z"/><path d="m-632 48v-12h-36l12 12z"/><path d="m-720 180 48 12z"/><path d="m-752 172 16 4 16 4 48 12-58.6666-14.6667-5.3334-1.3333-32-8z"/><path d="m-752 172 16 4z"/><path d="m-720 180-16-4v8h16z"/><path d="m-736 176v8z"/><path d="m-736 184h16z"/><path d="m-768 168v8z"/><path d="m-752 172-16-4v8h16z"/><path d="m-768 176h16z"/><path d="m416-532v4h24 16 48 16 24v-16h-128z"/><path d="m704-416v8 16 8z"/><path d="m832-128h-64-64 32 64z"/><path d="m768-128h64z"/><path d="m928-128h-64z"/><path d="m992-128h-64z"/><path d="m992-320h16z"/><path d="m928-128h64v-64z"/><path d="m928-384h-32z"/><path d="m928-384h32-64z"/><path d="m960-384h32z"/><path d="m992-320v-64h-32-32z"/><path d="m704-384h32z"/><path d="m800-384h32z"/><path d="m768-384h32-64z"/><path d="m704-192v24 40h64z"/><path d="m768-384h-32-32v64z"/><path d="m672-448h-64v40h24 16 56v-8z"/><path d="m704-192v-128-64-8h-56-16-24v40 48 136h96z"/><path d="m608-168v24 48h64l32-32v-40z"/><path d="m632-408h-24v16h24z"/><path d="m704-408h-56v16h56z"/><path d="m648-408h-16v16h16z"/><path d="m608-168v-136l-32 16v24 16 48 16 24l32 16z"/><path d="m576-352h32v-40-16-40h-32z"/><path d="m608-448h64l-32-32h-64v32z"/><path d="m672-96 16-16 16-16z"/><path d="m608-144-32-16z"/><path d="m608-352-32 32v32l32-16z"/><path d="m416-448v-32h-192l32 32z"/><path d="m544-480v64-32z"/><path d="m416-448v-32z"/><path d="m-384-256v32z"/><path d="m-384-32v32z"/><path d="m-160 320h-16z"/><path d="m416-128h16z"/><path d="m416-320v16z"/><path d="m416-448v40 56 32-32-64z"/><path d="m520-304h-16-48-16-24 128z"/><path d="m544-352v32z"/><path d="m544-408v16 40h32v-96h-32z"/><path d="m416-320h24 16 48 16 24v-32h-128z"/><path d="m440-320v16h16v-16z"/><path d="m504-320v16h16v-16z"/><path d="m520-320v16h24v-16z"/><path d="m456-320v16h48v-16z"/><path d="m416-320v16h24v-16z"/><path d="m576-264h-16v16h16z"/><path d="m576-160v-24h-16v24z"/><path d="m576-288h-16v24h16z"/><path d="m576-248h-16v48h16z"/><path d="m576-200h-16v16h16z"/><path d="m560-184v-16-48-16-24 128z"/><path d="m224-192h32z"/><path d="m416-192h-32-32z"/><path d="m296-408h-40v16h40z"/><path d="m352-320v-32l-40-40h-16-40v136 64h96z"/><path d="m312-408h-16v16h16z"/><path d="m296-408h16 104v-40h-160v40z"/><path d="m416-352v-56h-104v16l40 40z"/><path d="m256-392v-16-40l-32-32v64 160h32z"/><path d="m416-128v-64l-32 32v16z"/><path d="m416 192h8z"/><path d="m416 0v192-160-16z"/><path d="m416 0-32 16z"/><path d="m416 0-32 16v32 144h32z"/><path d="m424 192h-8l-48 128h8z"/><path d="m416 192h-32l-24 64-24 64h32z"/><path d="m-96-256h128-48z"/><path d="m-368 128v-40h-16v40z"/><path d="m-384 88h16v-40h-16z"/><path d="m-248 88v-16-24h-24-96v40 40h120z"/><path d="m-192 128-40-40h-16v40z"/><path d="m-248 48v24h16v-24z"/><path d="m-232 72h-16v16h16z"/><path d="m-384-72v8h16v-8z"/><path d="m-384-64v32h16v-32z"/><path d="m-384-88v16h16v-16z"/><path d="m-368 48h96l-16-16h-32-64v16z"/><path d="m-248 48h16v-144h-16-40v96 32l16 16z"/><path d="m-368-168h-16v80h16z"/><path d="m-384-192v8h16v-8z"/><path d="m-384-192h16v-32h-16z"/><path d="m-384-184v16h16v-16z"/><path d="m-232-152h-16v16h16z"/><path d="m-192-96-40-40v40 144 24 16h40z"/><path d="m-232 88 40 40v-40z"/><path d="m-248-136v-16-32h-40v88h40z"/><path d="m-160-184h-72v32 16l40 40h32z"/><path d="m-288-192v8h40 16 72v-8z"/><path d="m-232-184h-16v32h16z"/><path d="m-232-136h-16v40h16z"/><path d="m-160-192v8 88h64v-96z"/><path d="m32-256h-128l32 32h96z"/><path d="m224-192h-64v32h64z"/><path d="m-96-32v32h32v-8-24z"/><path d="m-96-192v-32z"/><path d="m-96 0v-32-32 32z"/><path d="m160-192-52-26-32-16-44-22z"/><path d="m-384-224h16z"/><path d="m-128 256-32 64z"/><path d="m-96-192v-32h-64v32z"/><path d="m-128 64v48 32z"/><path d="m-288-96v-88-8l-32-32v224h32z"/><path d="m-192 128 32 32v-32z"/><path d="m-288 32-32-32v32z"/><path d="m376 320h-8l-42 48 6.1712 3.7977z"/><path d="m326 368 42-48h-32l-16 18.2858-82 93.7142-14 16h32z"/><path d="m332.1712 371.7977-6.1712-3.7977z"/><path d="m326 368-70 80z"/><path d="m-160 448 32 64h32l-24-48z"/><path d="m-160 448 32 64z"/><path d="m-400-256h16-16-112z"/><path d="m-384-64v-8-16-80-16-8-32-32h-16v16 208h16z"/><path d="m-400-32v16 64h16v-16-32-32z"/><path d="m-400 72v16h16v-40h-16z"/><path d="m-384 88h-16v40h16z"/><path d="m-384 128h-16v32h16z"/><path d="m-512-96v32z"/><path d="m-400 72h-24v16h24z"/><path d="m-440 72h-72v16h72z"/><path d="m-424 72h-16v16h16z"/><path d="m-400-32v-208h-112v144 32 48h112z"/><path d="m-512-16v88h72 16 24v-24-64z"/><path d="m-400-240v-16h-112v16z"/><path d="m-400 88h-24-16-72v40h112z"/><path d="m-400 128h-112v32h64 48z"/><path d="m-640-240v-16 12z"/><path d="m-640-160v-80-4 4 16z"/><path d="m-576-240h-48-16z"/><path d="m-512-256-64 16h64z"/><path d="m-512-256-64 16z"/><path d="m-576-240h-64v80 32l128 32v-144z"/><path d="m-768-160v-84-12 96 32z"/><path d="m-768-244v84-64-16z"/><path d="m-640-160h-128z"/><path d="m-768-244v4h24 16 48 16 24v-4-12h-128z"/><path d="m-768-128h128v-32h-128z"/><path d="m-568 192h12z"/><path d="m-632 192h12z"/><path d="m-520 0v192z"/><path d="m-576 0h-224z"/><path d="m-800 48v-12z"/><path d="m-520 0-12 12h-44v-12z"/><path d="m-632 48 12-12v156h-12z"/><path d="m-584 48v144z"/><path d="m-568 48 12-12v156h-12z"/><path d="m-568 48h-16z"/><path d="m-584 48h16z"/><path d="m-568 48h-16v-12h28z"/><path d="m-584 48-12-12h12z"/><path d="m-632 48h-24z"/><path d="m-632 48h-24-144z"/><path d="m608-32h24 16 24z"/><path d="m632-32h-24z"/><path d="m672-32h-24z"/><path d="m608-32v-64z"/><path d="m648-32h-16v8h16z"/><path d="m648-32v8z"/><path d="m632-24v-8z"/><path d="m648-24h-16z"/><path d="m-520 192h8z"/><path d="m-568 192h12 24 12-20-44z"/><path d="m-532 192h12z"/><path d="m-584 192h-20 8z"/><path d="m-532 12 12-12v192h-12z"/><path d="m-800 0v12 24 12-28z"/><path d="m-800 12v-12z"/><path d="m-576 12h-44-180v-12h224z"/><path d="m-576 12h44l-24 24h-28-12-24v-24z"/><path d="m-620 36h24v156h-24z"/><path d="m-556 36 24-24v180h-24z"/><path d="m-596 36 12 12v144h-12z"/><path d="m-620 36h-180v-24h180z"/><path d="m-620 36-12 12h-168v-12z"/><path d="m704-320v128z"/><path d="m1008-192h-16z"/><path d="m1008-264h-16v16h16z"/><path d="m992-192h16v-56h-16z"/><path d="m1008-320h-16v56h16z"/><path d="m832-392v8h32v-8z"/><path d="m928-384h-32-32-32-32-32l-64 64v128l32 32h192z"/><path d="m736-160 32 32h64 32 64v-32z"/><path d="m992-248v-16-56l-64-64v224h32l32-32z"/><path d="m928-160v32l32-32z"/><path d="m960-160-32 32 64-64z"/><path d="m864-384h32z"/><path d="m992-320-64-64z"/><path d="m832-392h32z"/><path d="m800-384h-32z"/><path d="m768-384-64 64z"/><path d="m736-160-32-32 64 64z"/><path d="m832-128v8h32v-8z"/><path d="m832-120v-8z"/><path d="m608-96h64z"/><path d="m608-32h64v64h-64z"/><path d="m672-32v-64 128z"/><path d="m440-528v16h16v-16z"/><path d="m520-528v16h24v-16z"/><path d="m544-480v-32h-24-16-48-16-24v96h128z"/><path d="m416-528v16h24v-16z"/><path d="m456-528v16h48v-16z"/><path d="m504-528v16h16v-16z"/><path d="m416-512v-16-4 52 32 32z"/><path d="m416-416v64h128v-40-16-8z"/><path d="m416-24v-16-48-16-24l-32-16-32-16v128 32h64z"/><path d="m384-144v-16h-32z"/><path d="m432-40h-16v16h16z"/><path d="m432-88h-16v48h16z"/><path d="m416-128v24h16v-24z"/><path d="m432-24h-16v24h16z"/><path d="m432-104h-16v16h16z"/><path d="m320-32h32v-128h-128-64v64l64 64z"/><path d="m320-32h-96-128v24 8h16 144 64z"/><path d="m336 0h16v-32h-32v32z"/><path d="m224-32-64-64-64-64v96 32z"/><path d="m96-160 64 64v-64l-96-48v16z"/><path d="m384 16-48 24v8h48z"/><path d="m320 256h40l24-64v-144h-48-32v32 96 32 48z"/><path d="m336 40 48-24 32-16h-64-16z"/><path d="m320 256h-16-48-144-16v176h16 80 16 30l82-93.7142z"/><path d="m360 256h-40v82.2858l16-18.2858z"/><path d="m304 256v-48l-48 48z"/><path d="m304 48h32v-8-40h-16-64z"/><path d="m304 80-32 16v64l32 16z"/><path d="m112 0h-16v16z"/><path d="m96 256h16l-16-16z"/><path d="m112 432h-16v16h16z"/><path d="m238 432h-30v16h16z"/><path d="m192 432h-80v16h80z"/><path d="m208 432h-16v16h16z"/><path d="m32-224v96l32-64v-16z"/><path d="m-64-224v160h96v-64-96z"/><path d="m64-192-32 64v64h64v-96z"/><path d="m64-8h32v-24-32h-64-96v32 24z"/><path d="m96 0v-8h-32v8 48l32-32z"/><path d="m64 0v-8h-128v8z"/><path d="m64 208v-160-48h-128l-32 64v160h160z"/><path d="m-96 224v32h96 64v-32z"/><path d="m64 224v32 192h32v-16-176-16l-32-32z"/><path d="m0 256h-96l-24 48z"/><path d="m-96 512h96l-80-32-40-16z"/><path d="m32 480 32-32v-192h-64l-120 48-40 16v24 16 48 16 24l40 16 40 16z"/><path d="m0 512 32-32h-112z"/><path d="m-160 344h-16v16h16z"/><path d="m-160 320h-16v24h16z"/><path d="m-160 360h-16v48h16z"/><path d="m-176 441.6v6.4h16v-24h-16z"/><path d="m-160 408h-16v16h16z"/><path d="m112 0h144z"/><path d="m304 48v32z"/><path d="m96 240 16 16-48-48z"/><path d="m304 208-48 48z"/><path d="m-120 464-40-16z"/><path d="m544-392v-16z"/><path d="m544-352v32-32-40z"/><path d="m544-416v8-40z"/><path d="m352-160h32l32-32h-64-96-32v32z"/><path d="m384-144 32 16z"/><path d="m432 0h-16z"/><path d="m432-128v24 16 48 16 24h-16v-128z"/><path d="m-120 304-40 16z"/><path d="m64-208 96 48v-32l-128-64v32z"/><path d="m-120 304 24-48h-32l-32 64z"/><path d="m-96 64 32-64h-32l-32 64z"/><path d="m-96 224v-160h-32v80 16 96h32z"/><path d="m-64-64v-160l-32-32v32 32 96 32 32h32z"/><path d="m-176 424v-16-48-16-24h16v16 80 32l-16-6.4z"/><path d="m-612 192h-28 8 12 24-8z"/><path d="m-768 168 32 8-64-16z"/><path d="m-512-64v192 32-32-40-16-88z"/><path d="m-540-96h28l-128-32v32z"/><path d="m-512-96-128-32z"/><path d="m-640-128h-128z"/><path d="m-744-240v16h16v-16z"/><path d="m-768-240v16h24v-16z"/><path d="m-768-160h128v-64h-24-16-48-16-24z"/><path d="m-664-240v16h24v-16z"/><path d="m-728-240v16h48v-16z"/><path d="m-680-240v16h16v-16z"/><path d="m-640-128h-128l-32 32h160z"/><path d="m-512-64v-32h-28v32 20 44 20 108h28z"/><path d="m-540 128v64h20 8v-32-32z"/><path d="m-800-64v-32z"/><path d="m-800-96v32h160v-32z"/><path d="m-540-96h-100v32h100z"/><path d="m-800-64v20h160v-20z"/><path d="m-640-64v20h100v-20z"/><path d="m-800-44v8 36z"/><path d="m-640-44v44h100v-44z"/><path d="m-800-44v44h160v-44z"/><path d="m-800 48v36z"/><path d="m-800 108v20 32z"/><path d="m-800 0v20h160v-20z"/><path d="m-640 0v20h28 72v-20z"/><path d="m-612 48v144h8 20 44v-64-108h-72z"/><path d="m-640 20v28h28v-28z"/><path d="m-800 20v28h64 64 32v-28z"/><path d="m-736 48v4 68 52z"/><path d="m-640 48h-32v144h32z"/><path d="m-672 48h-64v124l5.3334 5.3333 58.6666 14.6667z"/><path d="m-640 48v144h28v-144z"/><path d="m-736 172v4l5.3334 1.3333z"/><path d="m-672 192v8h32v-8z"/><path d="m-672 200v-8z"/><path d="m672 64h-64z"/><path d="m672 64h-64v-32h64z"/><path d="m672 32v-128 160z"/><path d="m608 32h64z"/><path d="m608-96v64 64z"/><path d="m-736 48v4z"/><path d="m-736 48h-64z"/><path d="m256 0h-144-8l8-8h144l8 8z"/><path d="m608 96v-32h64v96h-64z"/><path d="m536 160h-224v-64h224z"/><path d="m608 96v64h-72v-64z"/><path d="m304 176-32-16v-64l32-16z"/><path d="m112 256h-8l-40-40v-8z"/><path d="m104 0h8l-48 48v-8z"/><path d="m312 96v64 48l-8 9.1429v-9.1429-32-96-32h8z"/><path d="m112 264-8-8h8 144 14l-7 8z"/><path d="m312 48h-8l-48-48h8z"/><path d="m304 208v9.1429l-34 38.8571h-14z"/><path d="m56 48 8-8v8 160 8l-8-8z"/><path d="m-752 72v12 24 12h16v-68-4h-16z"/><path d="m-736 172v-52h-16-12-24-12v40l64 16z"/><path d="m-788 72h24 12v-24h-48v24z"/><path d="m-800 84 12-12h-12z"/><path d="m-764 72 12 12v-12z"/><path d="m-800 120h12l-12-12z"/><path d="m-764 120h12v-12z"/><path d="m312 208v-48z"/><path d="m672-96v32 128z"/><path d="m672 160v-96z"/><path d="m536 96h-224 216z"/><path d="m608 160h64-136z"/><path d="m256-8h-144z"/><path d="m112 264h151z"/><path d="m64 216 40 40 8 8-8-8-40-40-8-8z"/><path d="m264 0-8-8 8 8 40 40 8 8z"/><path d="m270 256 34-38.8571 8-9.1429-8 9.1429-34 38.8571-7 8z"/><path d="m672-96h-64z"/><path d="m608-96v128 32z"/><path d="m112 256h144z"/><path d="m304 208v-32z"/><path d="m64 48v160z"/><path d="m112 0-16 16-32 32z"/><path d="m304 176-32-16z"/><path d="m304 48-48-48z"/><path d="m272 160v-64z"/><path d="m272 96 32-16z"/><path d="m-800 72v-24 36z"/><path d="m-800 120v-12 52z"/><path d="m-752 48h16-64z"/><path d="m-788 120h24z"/><path d="m-764 72h-24z"/><path d="m-752 108v-24z"/><path d="m-752 84-12-12z"/><path d="m-788 72-12 12z"/><path d="m-736 172v4z"/><path d="m336 112h-32v32h32z"/><path d="m336 112v32z"/><path d="m304 112h32z"/><path d="m336 144h-32z"/><path d="m304 144v-32z"/><path d="m336 144h-32v-32h32z"/><path d="m64 208v-160-8l-8 8v160l8 8z"/><path d="m256 256h-144-8l8 8h151l7-8z"/><path d="m256 256h14l34-38.8571v-9.1429z"/><path d="m104 256h8l-48-48v8z"/><path d="m312 160h-8v16 32 9.1429l8-9.1429z"/><path d="m112 0h-8l-40 40v8z"/><path d="m304 48v-8l-40-40h-8z"/><path d="m304 48v32 16h8v-48l-8-8z"/><path d="m112-8-8 8h8 144 8l-8-8z"/><path d="m672-96v32z"/><path d="m672-96h-64 24 16z"/><path d="m536 160h136-24-16-24-32-48z"/><path d="m528 96h-216-8 144z"/><path d="m256 0h-144z"/><path d="m304 208v-32z"/><path d="m112 256-16-16-32-32z"/><path d="m56 48v160z"/><path d="m312 96v-48z"/><path d="m608 96h-72z"/><path d="m608-96h64z"/><path d="m608-96v160 32z"/><path d="m536 160h-8-216z"/><path d="m64 40 40-40 8-8-8 8-40 40-8 8z"/><path d="m672-64v192 32-96z"/><path d="m528 160h-80-144 8z"/><path d="m608-96v192z"/><path d="m648-72h-16v16h16z"/><path d="m632-96v24h16v-24z"/><path d="m632 120v-176-16-24h-24v192 32h24z"/><path d="m608 128v32h24v-24-8z"/><path d="m672-64v-32h-24v24 16 176 8h24z"/><path d="m648 128v8 24h24v-32z"/><path d="m648-56h-16v176h16z"/><path d="m648 136h-16v24h16z"/><path d="m648 128v-8h-16v8 8h16z"/><path d="m576 96h32-72-8z"/><path d="m304 96v-16z"/><path d="m304 80-32 16h32z"/><path d="m504 120h-56v16h56z"/><path d="m520 136h-16-56v24h80 48v-24z"/><path d="m528 96h-80v24h56 16 56v-24z"/><path d="m576 96v24 16 24h32v-32-32z"/><path d="m576 120h-56v16h56z"/><path d="m520 120h-16v16h16z"/><path d="m304 160h144v-24-16-24h-144-32v64z"/><path d="m304 176v-16z"/><path d="m272 160 32 16v-16z"/><path d="m32-32h32v32 48 144h-32z"/><path d="m64 192v16 48 32h-32v-96z"/><path d="m112 256h144 48v32h-240v-32z"/><path d="m304 208v16 32h-48z"/><path d="m96 240 16 16h-48v-48z"/><path d="m112 0-16 16-32 32v-48z"/><path d="m288 0h16v48l-32-32-16-16z"/><path d="m272 96 32-16v96l-32-16z"/><path d="m304 208v-32-96-32-48h32v224h-32z"/><path d="m336 224v64h-32v-32-32z"/><path d="m288 0h-32-144-48v-32h224z"/><path d="m336-32v32h-32-16v-32z"/><path d="m64 192v-144 160z"/><path d="m304 48v32z"/><path d="m96 16 16-16-48 48z"/><path d="m272 16 32 32-48-48z"/><path d="m272 96 32-16z"/><path d="m272 160v-64z"/><path d="m256 256h-144z"/><path d="m304 176-32-16z"/><path d="m304 208-48 48z"/></g></defs><path d="m-990-662h2188v1324h-2188z" fill="#fff"/><g stroke="#000"><use fill="none" stroke-miterlimit="0" stroke-width="15" xlink:href="#a"/><use fill="#fff" xlink:href="#a"/></g></svg>