<?xml version="1.0" encoding="utf-8" ?>
<svg baseProfile="tiny" height="100%" version="1.2" viewBox="-820.0 -596.25 1592.0 1944.25" width="100%" xmlns="http://www.w3.org/2000/svg" xmlns:ev="http://www.w3.org/2001/xml-events" xmlns:xlink="http://www.w3.org/1999/xlink"><defs><g id="bsp_ref"><polygon points="-304,-448.25 -304,-448.25 -208,-448.25 -208,-448.25" /><polygon points="-208,-448.25 -208,-448.25 -208,-352.25 -208,-352.25" /><polygon points="-304,-352.25 -304,-352.25 -304,-448.25 -304,-448.25" /><polygon points="-304,-352.25 -304,-448.25 -208,-448.25 -208,-352.25" /><polygon points="-240,-400.25 -245,-411.25 -256,-416.25 -267,-411.25 -272,-400.25 -267,-389.25 -256,-384.25 -245,-389.25" /><polygon points="-208,-336.25 -256,-336.25 -304,-336.25 -304,-352.25 -208,-352.25" /><polygon points="-208,-448.25 -304,-448.25 -304,-448.25 -272,-448.25 -240,-448.25 -208,-448.25" /><polygon points="-304,-352.25 -304,-352.25 -208,-352.25 -208,-352.25" /><polygon points="-192,559.75 -192,687.75 -256,751.75 -320,751.75 -384,687.75 -384,559.75" /><polygon points="-256,751.75 -192,687.75 -192,783.75 -192,879.75 -256,879.75" /><polygon points="-192,687.75 -192,559.75 -160,559.75 -128,559.75 -128,783.75 -192,783.75" /><polygon points="-128,783.75 -128,879.75 -192,911.75 -192,879.75 -192,783.75" /><polygon points="-320,239.75 -192,367.75 -384,367.75 -400,367.75 -400,239.75" /><polygon points="-320,-48.25 -288,-48.25 -320,-16.25 -448,-16.25 -448,-48.25" /><polygon points="-336,-128.25 -336,-112.25 -432,-112.25 -432,-128.25" /><polygon points="-320,-80.25 -320,-48.25 -448,-48.25 -448,-80.25" /><polygon points="-448,-272.25 -384,-336.25 -320,-336.25 -320,-128.25 -336,-128.25 -432,-128.25 -448,-128.25" /><polygon points="-304,-336.25 -256,-336.25 -256,-112.25 -320,-112.25 -320,-128.25 -320,-336.25" /><polygon points="-256,-112.25 -256,-80.25 -288,-48.25 -320,-48.25 -320,-80.25 -320,-112.25" /><polygon points="-256,-336.25 -208,-336.25 -192,-336.25 -128,-336.25 -128,-256.25 -128,-160.25 -128,-112.25 -256,-112.25" /><polygon points="-128,-112.25 -128,-80.25 -256,-80.25 -256,-112.25" /><polygon points="160,367.75 64,367.75 32,367.75 32,335.75 160,335.75" /><polygon points="-384,463.75 -384,367.75 -192,367.75 -160,367.75 -160,559.75 -192,559.75 -384,559.75" /><polygon points="-160,367.75 -128,367.75 0,367.75 32,367.75 64,367.75 64,559.75 -128,559.75 -160,559.75" /><polygon points="64,367.75 160,367.75 192,367.75 192,527.75 192,559.75 96,559.75 64,559.75" /><polygon points="-128,-256.25 -128,-256.25 -128,-240.25 -128,-176.25 -128,-160.25 -128,-160.25" /><polygon points="192,367.75 192,367.75 192,431.75 192,527.75 192,527.75" /><polygon points="160,335.75 32,335.75 32,111.75 160,111.75" /><polygon points="192,559.75 192,751.75 96,751.75 96,559.75" /><polygon points="192,911.75 192,917.0833 170.6667,911.75" /><polygon points="-448,-80.25 -448,-48.25 -448,-16.25 -448,-16.25" /><polygon points="-432,-128.25 -432,-128.25 -448,-128.25 -448,-128.25" /><polygon points="-320,-128.25 -320,-128.25 -336,-128.25 -336,-128.25" /><polygon points="-256,-80.25 -128,-80.25 -128,-80.25 -256,-80.25" /><polygon points="-288,-48.25 -256,-80.25 -256,-80.25 -320,-16.25 -320,-16.25 -320,-16.25" /><polygon points="-320,-16.25 -320,-16.25 -448,-16.25 -448,-16.25" /><polygon points="-336,-112.25 -336,-128.25 -336,-128.25 -336,-112.25" /><polygon points="-320,-80.25 -448,-80.25 -448,-16.25 -320,-16.25" /><polygon points="-128,367.75 -160,367.75 -192,367.75 -192,367.75 -128,367.75" /><polygon points="-320,751.75 -256,751.75 -256,751.75 -320,751.75" /><polygon points="-384,463.75 -384,559.75 -384,687.75 -384,687.75 -384,591.75 -384,463.75" /><polygon points="-320,239.75 -320,239.75 -320,239.75 -192,367.75 -192,367.75" /><polygon points="-400,367.75 -384,367.75 -384,367.75 -400,367.75" /><polygon points="-128,-160.25 -128,-176.25 -128,-160.25" /><polygon points="-96,-176.25 -96,-160.25 -128,-160.25 -128,-176.25" /><polygon points="-96,-176.25 -96,-240.25 -64,-240.25 -64,-176.25" /><polygon points="-96,-240.25 -96,-176.25 -128,-176.25 -128,-240.25" /><polygon points="-64,-240.25 -96,-240.25 -96,-256.25 -64,-256.25" /><polygon points="-400,239.75 -320,239.75 -320,239.75 -400,239.75" /><polygon points="-320,-128.25 -320,-128.25 -320,-112.25 -320,-80.25 -320,-16.25 -320,-16.25 -320,-32.25" /><polygon points="-432,-112.25 -432,-128.25 -432,-128.25 -432,-112.25" /><polygon points="-336,-80.25 -336,-112.25 -336,-128.25 -336,-96.25 -336,-80.25" /><polygon points="-432,-112.25 -432,-112.25 -336,-112.25 -336,-112.25" /><polygon points="-432,-80.25 -432,-112.25 -336,-112.25 -336,-80.25" /><polygon points="-400,367.75 -384,367.75 -384,367.75 -407.1111,367.75 -407.1111,367.75" /><polygon points="-400,239.75 -400,239.75 -400,367.75 -400,367.75" /><polygon points="-448,239.75 -400,239.75 -400,367.75 -407.1111,367.75 -459.0769,250.8269" /><polygon points="-407.1111,367.75 -407.1111,367.75 -459.0769,250.8269 -459.0769,250.8269" /><polygon points="-240,-400.25 -240,-400.25 -245,-389.25 -245,-389.25" /><polygon points="-245,-411.25 -245,-411.25 -240,-400.25 -240,-400.25" /><polygon points="-245,-389.25 -245,-389.25 -256,-384.25 -256,-384.25" /><polygon points="-256,-416.25 -256,-416.25 -245,-411.25 -245,-411.25" /><polygon points="-256,-384.25 -256,-384.25 -267,-389.25 -267,-389.25" /><polygon points="-267,-411.25 -267,-411.25 -256,-416.25 -256,-416.25" /><polygon points="-267,-389.25 -267,-389.25 -272,-400.25 -272,-400.25" /><polygon points="-272,-400.25 -272,-400.25 -267,-411.25 -267,-411.25" /><polygon points="-16,888.1944 16,867.75 16,890.4167 0,901.0833 -16,911.75" /><polygon points="16,703.75 16,783.75 -128,783.75 -128,559.75" /><polygon points="16,783.75 16,867.75 -16,888.1944 -32,898.4167 -128,879.75 -128,783.75" /><polygon points="16,783.75 16,703.75 64,751.75 64,869.0833 16,867.75" /><polygon points="16,867.75 64,869.0833 64,890.4167 16,890.4167" /><polygon points="-208,-448.25 -240,-448.25 -240,-448.25 -208,-448.25" /><polygon points="-272,-464.25 -240,-464.25 -240,-448.25 -272,-448.25" /><polygon points="192,751.75 192,751.75 192,879.75 192,879.75" /><polygon points="192,911.75 192,917.0833 192,911.75" /><polygon points="192,911.75 192,879.75 192,879.75 192,879.75 192,911.75 192,938.4167 192,920.6389 192,917.0833" /><polygon points="64,751.75 96,751.75 192,751.75 192,879.75 192,911.75 170.6667,911.75 128,901.0833 64,869.0833" /><polygon points="128,901.0833 128,902.8611 64,869.0833" /><polygon points="170.6667,911.75 192,917.0833 192,920.6389 128,902.8611 128,901.0833" /><polygon points="192,911.75 192,911.75 170.6667,911.75" /><polygon points="96,751.75 64,751.75 16,703.75 -128,559.75 64,559.75 96,559.75" /><polygon points="-448,239.75 -448,239.75 -448,239.75 -320,239.75 -320,239.75 -400,239.75 -448,239.75" /><polygon points="-432,-48.25 -432,-80.25 -336,-80.25 -336,-48.25" /><polygon points="-336,-48.25 -336,-80.25 -336,-96.25 -336,-64.25 -336,-48.25" /><polygon points="-432,-80.25 -432,-80.25 -336,-80.25 -336,-80.25" /><polygon points="-432,-80.25 -432,-96.25 -432,-128.25 -432,-112.25 -432,-80.25" /><polygon points="-407.1111,367.75 -419.5555,367.75 -505.6,297.35 -459.0769,250.8269" /><polygon points="-407.1111,367.75 -384,367.75 -384,367.75 -419.5555,367.75 -419.5555,367.75" /><polygon points="-419.5555,367.75 -419.5555,367.75 -448,344.4773 -505.6,297.35 -505.6,297.35" /><polygon points="-459.0769,250.8269 -448,239.75 -448,239.75 -459.0769,250.8269" /><polygon points="-272,-464.25 -272,-440.25 -240,-440.25 -240,-464.25" /><polygon points="128,902.8611 128,922.4167 106.6667,911.75 64,890.4167 64,869.0833" /><polygon points="-576,511.75 -576,511.75 -576,607.75 -576,607.75" /><polygon points="-128,-256.25 -128,-240.25 -128,-256.25" /><polygon points="-96,-160.25 -96,-176.25 -64,-176.25 -64,-160.25" /><polygon points="-96,-160.25 -96,-176.25 -96,-240.25 -96,-256.25 -96,-224.25 -96,-192.25" /><polygon points="-64,-160.25 -64,-176.25 -64,-240.25 -64,-256.25 -64,-224.25 -64,-192.25" /><polygon points="-64,-256.25 -96,-256.25 -96,-224.25 -64,-224.25" /><polygon points="-96,-256.25 -96,-240.25 -128,-240.25 -128,-256.25" /><polygon points="-96,-160.25 -96,-192.25 -128,-192.25 -128,-160.25" /><polygon points="-448,-128.25 -448,-128.25 -448,-64.25" /><polygon points="-448,-272.25 -448,-272.25 -448,-128.25 -448,-128.25 -448,-128.25" /><polygon points="-448,-64.25 -448,-128.25 -432,-128.25 -432,-96.25 -432,-64.25 -432,-32.25 -448,-32.25" /><polygon points="-336,-64.25 -336,-96.25 -336,-128.25 -320,-128.25 -320,-32.25 -336,-32.25" /><polygon points="-336,-48.25 -336,-64.25 -336,-32.25 -336,-16.25 -336,-16.25" /><polygon points="-432,-48.25 -432,-64.25 -432,-96.25 -432,-80.25 -432,-48.25" /><polygon points="-432,-64.25 -432,-48.25 -432,-16.25 -432,-16.25 -432,-32.25" /><polygon points="-432,-48.25 -432,-48.25 -336,-48.25 -336,-48.25" /><polygon points="-336,-16.25 -432,-16.25 -432,-48.25 -336,-48.25" /><polygon points="-448,344.4773 -419.5555,367.75 -448,367.75" /><polygon points="-550.8572,342.6071 -505.6,297.35 -448,344.4773 -448,367.75 -448,370.6591" /><polygon points="-448,370.6591 -448,367.75 -448,367.75 -448,370.6592" /><polygon points="-505.6,297.35 -448,239.75 -448,239.75 -459.0769,250.8269 -505.6,297.35" /><polygon points="-672,511.75 -672,511.75 -576,511.75 -576,511.75" /><polygon points="-576,607.75 -576,607.75 -672,607.75 -672,607.75" /><polygon points="-672,511.75 -576,511.75 -576,607.75 -672,607.75" /><polygon points="-624,543.75 -635,548.75 -640,559.75 -635,570.75 -624,575.75 -613,570.75 -608,559.75 -613,548.75" /><polygon points="192,920.6389 192,938.4167 128,922.4167 128,902.8611" /><polygon points="-272,-448.25 -272,-448.25 -304,-448.25 -304,-448.25" /><polygon points="-272,-448.25 -240,-448.25 -240,-464.25 -272,-464.25" /><polygon points="-240,-448.25 -240,-448.25 -240,-464.25 -240,-464.25" /><polygon points="-272,-464.25 -272,-464.25 -272,-448.25 -272,-448.25" /><polygon points="-240,-464.25 -240,-464.25 -272,-464.25 -272,-464.25" /><polygon points="-128,159.75 -128,127.75 -128,111.75 -128,175.75 -128,175.75" /><polygon points="-128,-16.25 -128,-32.25 -128,-16.25 -128,-0.25 -128,15.75" /><polygon points="-128,-80.25 -128,-80.25 -128,-112.25 -128,-160.25 -128,-160.25 -128,-160.25 -128,-160.25" /><polygon points="-128,-160.25 -128,-160.25 -128,-192.25 -128,-160.25" /><polygon points="-128,-64.25 -128,-80.25 -128,-160.25 -128,-160.25 -128,-160.25 -128,-16.25 -128,-32.25" /><polygon points="128,-16.25 96,-16.25 -96,-16.25 -96,15.75 32,15.75 128,15.75" /><polygon points="352,-16.25 320,-16.25 128,-16.25 128,15.75 160,15.75 352,15.75" /><polygon points="512,-16.25 480,15.75 512,15.75" /><polygon points="512,239.75 512,431.75 497.2308,431.75" /><polygon points="512,239.75 480,239.75 494.7692,431.75 512,431.75" /><polygon points="320,111.75 384,111.75 384,79.75 160,79.75 160,111.75" /><polygon points="384,111.75 416,79.75 384,79.75" /><polygon points="32,111.75 32,79.75 -96,79.75 -96,111.75" /><polygon points="-96,111.75 -96,79.75 -128,79.75 -128,111.75" /><polygon points="512,-16.25 512,15.75 512,111.75 384,111.75" /><polygon points="96,-16.25 128,-16.25 320,-16.25 320,111.75 160,111.75 96,47.75" /><polygon points="320,-16.25 352,-16.25 512,-16.25 384,111.75 320,111.75" /><polygon points="96,-16.25 96,47.75 32,111.75 -96,111.75 -96,-16.25" /><polygon points="96,47.75 160,111.75 32,111.75" /><polygon points="-96,-16.25 -96,111.75 -128,111.75 -128,-16.25" /><polygon points="192,367.75 192,367.75 192,431.75 192,431.75" /><polygon points="192,527.75 192,655.75 192,751.75 192,751.75 192,559.75 192,527.75" /><polygon points="512,111.75 512,239.75 384,239.75 384,111.75" /><polygon points="384,239.75 512,239.75 497.2308,431.75 384,431.75" /><polygon points="0,367.75 0,367.75 32,367.75 32,367.75 0,367.75" /><polygon points="0,367.75 0,367.75 -128,367.75 -128,367.75" /><polygon points="160,111.75 160,79.75 160,111.75" /><polygon points="-448,239.75 -448,239.75 -384,239.75 -320,239.75 -320,239.75" /><polygon points="-128,175.75 -128,175.75 -224,175.75 -224,175.75" /><polygon points="-448,-48.25 -448,-272.25 -448,-272.25 -448,-128.25 -448,-64.25 -448,-32.25" /><polygon points="-448,-48.25 -448,-32.25 -448,175.75 -448,175.75 -448,-48.25" /><polygon points="-320,-0.25 -336,-0.25 -320,-16.25" /><polygon points="-432,159.75 -432,-0.25 -336,-0.25 -320,-0.25 -320,159.75" /><polygon points="-432,-0.25 -432,-16.25 -336,-16.25 -336,-0.25" /><polygon points="-320,-16.25 -336,-0.25 -336,-16.25 -336,-32.25 -320,-32.25" /><polygon points="-432,-16.25 -432,-0.25 -432,159.75 -448,175.75 -448,-32.25 -432,-32.25" /><polygon points="-224,175.75 -448,175.75 -432,159.75 -320,159.75 -224,159.75" /><polygon points="-128,159.75 -128,175.75 -224,175.75 -224,159.75" /><polygon points="-256,-64.25 -128,-64.25 -128,-32.25 -128,-16.25 -128,111.75 -128,127.75 -128,159.75 -224,159.75 -320,159.75 -320,-0.25" /><polygon points="-128,-64.25 -256,-64.25 -256,-80.25 -128,-80.25" /><polygon points="-256,-80.25 -256,-64.25 -320,-0.25 -320,-16.25" /><polygon points="-432,-16.25 -432,-16.25 -336,-16.25 -336,-16.25" /><polygon points="-128,367.75 -192,367.75 -192,367.75 -128,367.75" /><polygon points="-272,879.75 -256,879.75 -256,879.75 -272,879.75 -288,879.75 -352,879.75 -368,879.75 -368,879.75" /><polygon points="-448,370.6592 -448,367.75 -384,367.75 -400,383.75 -448,383.75" /><polygon points="-384,367.75 -384,463.75 -384,591.75 -400,591.75 -400,383.75" /><polygon points="-384,591.75 -384,687.75 -400,687.75 -400,607.75 -400,591.75" /><polygon points="-576,367.75 -550.8572,342.6071 -448,370.6592 -448,383.75 -576,383.75" /><polygon points="-384,687.75 -320,751.75 -320,767.75 -400,687.75" /><polygon points="-256,751.75 -272,767.75 -320,767.75 -320,751.75" /><polygon points="-272,767.75 -256,751.75 -256,879.75 -272,879.75" /><polygon points="-320,767.75 -512,767.75 -512,687.75 -400,687.75" /><polygon points="-576,511.75 -576,495.75 -576,383.75 -448,383.75 -400,383.75 -400,591.75 -400,607.75 -576,607.75" /><polygon points="-400,607.75 -400,687.75 -512,687.75 -576,623.75 -576,607.75" /><polygon points="-320,767.75 -272,767.75 -272,879.75 -368,879.75 -448,879.75 -512,815.75 -512,767.75" /><polygon points="-512,687.75 -512,687.75 -576,623.75 -576,623.75" /><polygon points="-384,367.75 -384,367.75 -384,367.75 -384,367.75 -384,367.75 -384,463.75 -384,463.75" /><polygon points="-320,751.75 -384,687.75 -384,687.75 -320,751.75" /><polygon points="-448,367.75 -448,367.75 -419.5555,367.75 -384,367.75 -384,367.75" /><polygon points="-550.8572,342.6071 -448,239.75 -448,239.75 -505.6,297.35 -550.8572,342.6071" /><polygon points="-550.8572,342.6071 -550.8572,342.6071 -448,370.6591 -448,370.6592" /><polygon points="-256,751.75 -256,751.75 -256,879.75 -256,879.75" /><polygon points="-672,511.75 -672,575.75 -672,575.75 -672,543.75 -672,511.75" /><polygon points="-672,575.75 -672,511.75 -672,511.75 -672,607.75 -672,607.75" /><polygon points="-272,-440.25 -272,-464.25 -240,-464.25 -240,-440.25" /><polygon points="-240,-464.25 -240,-464.25 -240,-440.25 -240,-440.25" /><polygon points="-272,-440.25 -272,-440.25 -272,-464.25 -272,-464.25" /><polygon points="-272,-464.25 -272,-464.25 -240,-464.25 -240,-464.25" /><polygon points="-240,-440.25 -240,-440.25 -272,-440.25 -272,-440.25" /><polygon points="-288,943.75 -272,943.75 -304,943.75 -336,943.75 -368,943.75 -352,943.75" /><polygon points="-368,879.75 -352,879.75 -368,879.75" /><polygon points="-288,911.75 -352,911.75 -352,879.75 -288,879.75" /><polygon points="-352,911.75 -288,911.75 -288,943.75 -352,943.75" /><polygon points="-288,911.75 -272,911.75 -304,911.75 -336,911.75 -368,911.75 -352,911.75" /><polygon points="-352,911.75 -368,911.75 -368,879.75 -352,879.75" /><polygon points="-288,943.75 -288,911.75 -272,911.75 -272,943.75" /><polygon points="-672,511.75 -672,543.75 -672,543.75 -672,511.75" /><polygon points="-688,575.75 -688,543.75 -672,543.75 -672,575.75" /><polygon points="-664,543.75 -688,543.75 -688,575.75 -664,575.75" /><polygon points="-192,-336.25 -192,-336.25 -128,-336.25 -128,-336.25 -192,-336.25" /><polygon points="-192,-336.25 -192,-336.25 -208,-336.25 -208,-336.25" /><polygon points="-320,-336.25 -320,-336.25 -384,-336.25 -384,-336.25 -320,-336.25" /><polygon points="-304,-336.25 -304,-336.25 -320,-336.25 -320,-336.25" /><polygon points="-208,-352.25 -304,-352.25 -304,-336.25 -208,-336.25" /><polygon points="-304,-352.25 -304,-352.25 -304,-336.25 -304,-336.25" /><polygon points="-208,-336.25 -208,-336.25 -208,-352.25 -208,-352.25" /><polygon points="-128,-224.25 -128,-256.25 -128,-256.25" /><polygon points="-96,-224.25 -96,-192.25 -64,-192.25 -64,-224.25" /><polygon points="-96,-192.25 -96,-224.25 -128,-224.25 -128,-192.25" /><polygon points="-96,-192.25 -96,-224.25 -96,-256.25 -96,-240.25 -96,-176.25 -96,-160.25" /><polygon points="-96,-192.25 -96,-160.25 -64,-160.25 -64,-192.25" /><polygon points="-96,-224.25 -96,-256.25 -128,-256.25 -128,-224.25" /><polygon points="-368,879.75 -336,879.75 -368,879.75" /><polygon points="-272,879.75 -272,879.75 -304,879.75" /><polygon points="-272,879.75 -288,879.75 -272,879.75" /><polygon points="-272,911.75 -288,911.75 -352,911.75 -368,911.75 -336,911.75 -304,911.75" /><polygon points="-272,911.75 -272,879.75 -304,879.75 -304,911.75" /><polygon points="-368,911.75 -336,911.75 -336,879.75 -368,879.75" /><polygon points="-272,911.75 -288,911.75 -288,879.75 -272,879.75" /><polygon points="-272,943.75 -272,911.75 -304,911.75 -304,943.75" /><polygon points="-368,911.75 -352,911.75 -352,943.75 -368,943.75" /><polygon points="512,431.75 512,655.75 480,655.75 497.2308,431.75" /><polygon points="384,431.75 384,655.75 401.2308,431.75" /><polygon points="497.2308,431.75 480,655.75 384,655.75 384,431.75" /><polygon points="-192,-336.25 -192,-336.25 -208,-336.25 -304,-336.25 -320,-336.25 -320,-336.25" /><polygon points="-384,-336.25 -384,-336.25 -448,-272.25 -448,-272.25 -448,-272.25 -448,-272.25" /><polygon points="-128,111.75 -128,95.75 -128,175.75 -128,175.75" /><polygon points="-128,111.75 -128,127.75 -128,111.75 -128,79.75 -128,95.75" /><polygon points="-128,-224.25 -128,-160.25 -128,-160.25 -128,-192.25 -128,-224.25 -128,-256.25 -128,-256.25" /><polygon points="-128,-256.25 -128,-336.25 -128,-336.25 -128,-272.25 -128,-224.25 -128,-224.25" /><polygon points="-128,-336.25 -128,-256.25 -128,-256.25 -128,-256.25 -128,-256.25 -128,-256.25 -128,-336.25" /><polygon points="160,367.75 192,367.75 192,367.75 192,367.75 160,367.75" /><polygon points="32,335.75 32,111.75 32,111.75 32,335.75" /><polygon points="32,367.75 32,335.75 32,335.75 32,367.75" /><polygon points="160,335.75 160,367.75 160,367.75 160,335.75" /><polygon points="160,335.75 32,335.75 32,367.75 160,367.75" /><polygon points="-128,175.75 -128,175.75 -224,175.75 -224,175.75" /><polygon points="-224,175.75 -448,175.75 -448,175.75 -224,175.75" /><polygon points="-448,-48.25 -448,175.75 -448,175.75 -448,-48.25" /><polygon points="-448,-272.25 -448,-272.25 -448,-48.25 -448,-48.25" /><polygon points="-672,575.75 -672,575.75 -672,575.75 -672,607.75 -672,607.75 -672,607.75 -672,575.75" /><polygon points="-672,543.75 -672,543.75 -688,543.75 -688,543.75" /><polygon points="-688,575.75 -688,575.75 -672,575.75 -672,575.75" /><polygon points="-688,543.75 -688,575.75 -672,575.75 -672,543.75" /><polygon points="-688,543.75 -688,543.75 -688,575.75 -688,575.75" /><polygon points="-664,575.75 -688,575.75 -688,543.75 -664,543.75" /><polygon points="-664,575.75 -664,575.75 -688,575.75 -688,575.75" /><polygon points="-688,543.75 -688,543.75 -664,543.75 -664,543.75" /><polygon points="-688,575.75 -688,575.75 -688,543.75 -688,543.75" /><polygon points="-664,543.75 -664,543.75 -664,575.75 -664,575.75" /><polygon points="-208,-352.25 -208,-352.25 -304,-352.25 -304,-352.25 -304,-352.25 -208,-352.25" /><polygon points="-208,-448.25 -208,-448.25 -240,-448.25 -272,-448.25 -304,-448.25 -304,-448.25" /><polygon points="-304,-448.25 -304,-448.25 -304,-448.25 -304,-448.25 -304,-352.25 -304,-352.25 -304,-352.25" /><polygon points="-208,-352.25 -208,-352.25 -208,-352.25 -208,-448.25 -208,-448.25 -208,-448.25 -208,-448.25" /><polygon points="-32,922.4167 -32,927.75 -128,911.75 -128,879.75 -32,898.4167" /><polygon points="192,431.75 192,367.75 192,367.75 192,375.75 192,447.75 192,447.75" /><polygon points="192,655.75 192,671.75 192,687.75 192,879.75 192,879.75 192,751.75 192,655.75" /><polygon points="192,431.75 192,447.75 192,655.75 192,655.75 192,527.75 192,431.75" /><polygon points="192,367.75 160,367.75 32,367.75 0,367.75" /><polygon points="160,375.75 192,367.75 0,367.75 32,375.75" /><polygon points="64,751.75 128,687.75 128,671.75 48,751.75" /><polygon points="192,671.75 128,671.75 128,687.75 192,687.75" /><polygon points="192,879.75 192,687.75 128,687.75 64,751.75 64,879.75 64,890.4167 106.6667,911.75 192,911.75" /><polygon points="106.6667,911.75 128,922.4167 192,938.4167 192,911.75" /><polygon points="64,751.75 48,751.75 48,879.75 64,879.75" /><polygon points="64,879.75 48,879.75 16,879.75 16,890.4167 64,890.4167" /><polygon points="16,879.75 0,879.75 0,901.0833 16,890.4167" /><polygon points="0,879.75 0,879.75 0,906.4167 0,901.0833" /><polygon points="48,751.75 48,751.75 48,879.75 48,879.75" /><polygon points="128,671.75 128,671.75 48,751.75 48,751.75" /><polygon points="-16,911.75 0,901.0833 0,906.4167 -16,917.0833" /><polygon points="-32,922.4167 -32,898.4167 -16,888.1944 -16,911.75" /><polygon points="-576,511.75 -576,511.75 -672,511.75 -672,511.75 -672,511.75 -672,511.75" /><polygon points="-672,607.75 -672,607.75 -576,607.75 -576,607.75" /><polygon points="-272,879.75 -272,879.75 -272,879.75 -256,879.75 -256,879.75" /><polygon points="-336,879.75 -304,879.75 -272,879.75 -256,879.75 -256,879.75 -320,879.75 -368,879.75 -368,879.75" /><polygon points="-336,911.75 -304,911.75 -304,879.75 -336,879.75" /><polygon points="-304,911.75 -336,911.75 -336,943.75 -304,943.75" /><polygon points="-336,911.75 -368,911.75 -368,943.75 -336,943.75" /><polygon points="-192,-336.25 -192,-336.25 -320,-336.25 -320,-336.25" /><polygon points="-576,367.75 -576,367.75 -576,383.75 -576,495.75 -576,495.75" /><polygon points="-576,495.75 -576,495.75 -576,511.75 -576,511.75 -576,511.75" /><polygon points="-576,607.75 -576,607.75 -576,607.75 -576,623.75 -576,623.75" /><polygon points="576,879.75 624,831.75 640,815.75 640,815.75 624,831.75 576,879.75" /><polygon points="-512,815.75 -512,815.75 -448,879.75 -448,879.75" /><polygon points="-448,-272.25 -448,-272.25 -384,-336.25 -384,-336.25 -448,-272.25" /><polygon points="640,815.75 624,831.75 624,815.75" /><polygon points="624,751.75 624,735.75 640,751.75 640,815.75 624,815.75" /><polygon points="576,687.75 624,735.75 624,751.75 560,751.75 560,687.75" /><polygon points="624,831.75 576,879.75 560,879.75 560,815.75 624,815.75" /><polygon points="576,879.75 576,879.75 560,879.75 560,879.75" /><polygon points="480,79.75 416,79.75 416,239.75 480,239.75" /><polygon points="384,15.75 352,15.75 160,15.75 160,79.75 384,79.75" /><polygon points="416,79.75 416,15.75 384,15.75 384,79.75" /><polygon points="480,15.75 416,15.75 416,79.75 480,79.75" /><polygon points="160,79.75 32,79.75 32,111.75 160,111.75" /><polygon points="128,15.75 32,15.75 32,79.75 160,79.75 160,15.75" /><polygon points="32,79.75 32,15.75 -96,15.75 -96,79.75" /><polygon points="192,367.75 160,375.75 192,375.75" /><polygon points="-64,375.75 -16,375.75 32,375.75 0,367.75 -128,367.75 -192,367.75 -192,375.75" /><polygon points="-96,79.75 -96,15.75 -128,15.75 -128,79.75" /><polygon points="-256,655.75 -256,687.75 -256,879.75 -192,879.75 -192,655.75" /><polygon points="-256,431.75 -256,463.75 -256,655.75 -192,655.75 -192,623.75 -192,543.75 -192,431.75" /><polygon points="-192,375.75 -192,367.75 -256,303.75 -256,431.75 -192,431.75" /><polygon points="-256,431.75 -256,303.75 -320,239.75 -320,303.75 -320,367.75 -320,463.75 -256,463.75" /><polygon points="-320,463.75 -320,591.75 -320,687.75 -256,687.75 -256,655.75 -256,463.75" /><polygon points="-320,687.75 -320,751.75 -320,815.75 -320,879.75 -256,879.75 -256,687.75" /><polygon points="-384,367.75 -384,303.75 -384,239.75 -448,239.75 -448,463.75 -384,463.75" /><polygon points="-448,463.75 -448,495.75 -448,559.75 -448,687.75 -384,687.75 -384,591.75 -384,463.75" /><polygon points="-448,687.75 -448,751.75 -432,767.75 -384,767.75 -384,751.75 -384,687.75" /><polygon points="-320,303.75 -384,303.75 -384,367.75 -320,367.75" /><polygon points="-384,239.75 -384,303.75 -320,303.75 -320,239.75" /><polygon points="-320,463.75 -320,367.75 -384,367.75 -384,463.75 -384,591.75 -320,591.75" /><polygon points="-384,591.75 -384,687.75 -384,751.75 -320,751.75 -320,687.75 -320,591.75" /><polygon points="-448,239.75 -512,303.75 -512,463.75 -448,463.75" /><polygon points="-512,463.75 -512,495.75 -448,495.75 -448,463.75" /><polygon points="-512,495.75 -512,463.75 -512,303.75 -576,367.75 -576,495.75 -576,511.75 -576,527.75 -512,527.75" /><polygon points="-576,527.75 -576,607.75 -576,623.75 -512,687.75 -512,559.75 -512,527.75" /><polygon points="384,655.75 480,655.75 512,655.75 512,687.75 416,687.75 384,687.75" /><polygon points="416,815.75 192,815.75 192,687.75 256,687.75 368,687.75 384,687.75 416,687.75" /><polygon points="512,687.75 528,687.75 560,687.75 560,751.75 560,815.75 416,815.75 416,687.75" /><polygon points="-16,495.75 0,495.75 192,495.75 192,447.75 192,375.75 160,375.75 32,375.75 -16,375.75" /><polygon points="-16,559.75 0,559.75 0,495.75 -16,495.75" /><polygon points="48,751.75 64,751.75 64,879.75 48,879.75" /><polygon points="64,895.75 64,879.75 64,751.75 128,687.75 192,687.75 192,815.75 192,879.75 192,895.75 192,911.75 64,911.75" /><polygon points="192,911.75 192,927.75 192,943.75 64,943.75 64,927.75 64,911.75" /><polygon points="192,687.75 128,687.75 128,671.75 192,671.75" /><polygon points="128,671.75 128,687.75 64,751.75 48,751.75" /><polygon points="416,879.75 256,879.75 192,879.75 192,815.75 416,815.75" /><polygon points="560,879.75 480,879.75 416,879.75 416,815.75 560,815.75" /><polygon points="-64,543.75 -64,559.75 -16,559.75 -16,495.75 -16,375.75 -64,375.75" /><polygon points="-128,543.75 -128,559.75 -64,559.75 -64,543.75" /><polygon points="-192,431.75 -192,543.75 -128,543.75 -64,543.75 -64,375.75 -192,375.75" /><polygon points="-128,559.75 -128,543.75 -192,543.75 -192,623.75" /><polygon points="-320,751.75 -384,751.75 -384,767.75 -384,815.75 -320,815.75" /><polygon points="-448,495.75 -512,495.75 -512,527.75 -512,559.75 -448,559.75" /><polygon points="-512,687.75 -448,751.75 -448,687.75 -448,559.75 -512,559.75" /><polygon points="-432,767.75 -448,751.75 -512,687.75 -512,767.75" /><polygon points="-320,815.75 -384,815.75 -384,879.75 -368,879.75 -320,879.75" /><polygon points="-432,767.75 -512,767.75 -512,815.75 -448,879.75 -384,879.75 -384,815.75 -384,767.75" /><polygon points="560,687.75 528,687.75 496,687.75 512,687.75 560,687.75" /><polygon points="512,655.75 480,655.75 480,687.75 512,687.75" /><polygon points="480,239.75 480,431.75 494.7692,431.75" /><polygon points="401.2308,431.75 384,655.75 416,655.75 416,463.75 416,431.75" /><polygon points="416,239.75 401.2308,431.75 416,431.75" /><polygon points="-128,175.75 -128,175.75 -224,175.75 -224,175.75" /><polygon points="-448,-48.25 -448,175.75 -448,175.75 -448,47.75 -448,-48.25" /><polygon points="-128,-336.25 -128,-336.25 -128,-272.25 -128,-272.25" /><polygon points="48,879.75 64,879.75 64,879.75 0,879.75 0,879.75" /><polygon points="256,879.75 256,879.75 192,879.75 192,879.75" /><polygon points="192,671.75 192,495.75 192,495.75 192,591.75 192,703.75 192,687.75" /><polygon points="-16,917.0833 0,906.4167 0,906.4167 0,906.4167 -16,917.0833 -32,927.75 -32,927.75" /><polygon points="-192,655.75 -192,879.75 -192,879.75 -192,847.75 -192,655.75" /><polygon points="-128,-224.25 -128,-48.25 -128,-0.25 -128,-16.25 -128,-160.25 -128,-224.25" /><polygon points="384,15.75 416,15.75 480,15.75 512,-16.25 352,-16.25 352,15.75" /><polygon points="-96,15.75 -96,-16.25 -128,-16.25 -128,15.75" /><polygon points="480,15.75 480,79.75 480,239.75 512,239.75 512,111.75 512,15.75" /><polygon points="494.7692,431.75 512,655.75 512,431.75" /><polygon points="192,447.75 192,495.75 192,671.75 192,671.75 192,655.75 192,447.75" /><polygon points="416,239.75 384,239.75 384,431.75 401.2308,431.75" /><polygon points="416,79.75 384,111.75 384,239.75 416,239.75" /><polygon points="160,375.75 160,375.75 32,375.75 32,375.75" /><polygon points="0,367.75 0,367.75 0,367.75 -128,367.75 -128,367.75" /><polygon points="32,79.75 32,111.75 32,111.75" /><polygon points="160,111.75 160,335.75 160,335.75 160,111.75" /><polygon points="160,111.75 32,111.75 32,335.75 160,335.75" /><polygon points="32,375.75 32,375.75 0,367.75 0,367.75" /><polygon points="192,367.75 192,367.75 160,375.75 160,375.75" /><polygon points="128,671.75 128,671.75 192,671.75 192,671.75" /><polygon points="0,879.75 0,879.75 16,879.75 48,879.75 48,879.75" /><polygon points="-16,917.0833 -32,927.75 -32,922.4167 -16,911.75" /><polygon points="-224,175.75 -448,175.75 -448,175.75 -224,175.75" /><polygon points="-448,-272.25 -448,-272.25 -448,-48.25 -448,-48.25" /><polygon points="-192,879.75 -192,879.75 -192,911.75 -192,943.75" /><polygon points="-128,911.75 -192,943.75 -192,911.75 -128,879.75" /><polygon points="-384,879.75 -448,879.75 -448,879.75 -368,879.75 -368,879.75 -368,879.75 -368,879.75 -368,879.75" /><polygon points="-192,879.75 -256,879.75 -256,879.75 -256,879.75 -256,879.75 -256,879.75 -192,879.75" /><polygon points="-512,303.75 -448,239.75 -448,239.75 -550.8572,342.6071 -576,367.75 -576,367.75" /><polygon points="-256,303.75 -192,367.75 -192,367.75 -320,239.75 -320,239.75" /><polygon points="-512,767.75 -512,687.75 -512,687.75 -512,767.75 -512,815.75 -512,815.75" /><polygon points="256,943.75 256,943.75 256,975.75 256,975.75" /><polygon points="160,1135.75 0,1135.75 -16,1135.75 -48,1135.75 -64,1135.75 -64,1007.75 -48,1007.75 -16,1007.75 0,1007.75 160,1007.75" /><polygon points="224,1007.75 256,1007.75 256,1135.75 224,1135.75 160,1135.75 160,1007.75" /><polygon points="224,1007.75 160,1007.75 0,1007.75 0,943.75 64,943.75 192,943.75 224,943.75" /><polygon points="256,943.75 256,975.75 256,1007.75 224,1007.75 224,943.75" /><polygon points="224,1199.75 0,1199.75 0,1135.75 160,1135.75 224,1135.75" /><polygon points="256,1135.75 256,1199.75 224,1199.75 224,1135.75" /><polygon points="0,1199.75 0,1199.75 0,1135.75 0,1135.75" /><polygon points="256,1199.75 256,1199.75 224,1199.75 224,1199.75" /><polygon points="-672,511.75 -672,511.75 -656,511.75 -592,511.75 -576,511.75 -576,511.75 -576,511.75 -576,511.75 -672,511.75" /><polygon points="-576,607.75 -576,607.75 -576,607.75 -592,607.75 -656,607.75 -672,607.75 -672,607.75 -672,607.75 -576,607.75" /><polygon points="-672,511.75 -672,511.75 -672,511.75 -672,543.75 -672,575.75 -672,575.75" /><polygon points="624,751.75 624,751.75 624,815.75 624,815.75" /><polygon points="560,815.75 560,815.75 560,751.75 560,751.75" /><polygon points="624,815.75 624,815.75 560,815.75 560,815.75" /><polygon points="624,815.75 560,815.75 560,751.75 624,751.75" /><polygon points="560,751.75 560,751.75 624,751.75 624,751.75" /><polygon points="-224,-256.25 -224,-288.25 -352,-288.25 -352,-256.25" /><polygon points="-224,-288.25 -224,-288.25 -352,-288.25 -352,-288.25" /><polygon points="-256,95.75 -256,95.75 -384,95.75 -384,95.75" /><polygon points="-256,127.75 -256,95.75 -384,95.75 -384,127.75" /><polygon points="-128,-336.25 -128,-336.25 -128,-336.25 -192,-336.25 -192,-336.25 -192,-336.25" /><polygon points="-224,-336.25 -192,-336.25 -192,-336.25 -320,-336.25 -320,-336.25" /><polygon points="-384,-336.25 -320,-336.25 -320,-336.25 -320,-336.25 -384,-336.25" /><polygon points="-224,175.75 -256,175.75 -384,175.75 -448,175.75 -448,175.75 -224,175.75" /><polygon points="-448,-144.25 -448,-208.25 -448,-256.25 -448,-272.25 -448,-272.25 -448,-48.25 -448,-48.25" /><polygon points="-128,-48.25 -128,-192.25 -128,-192.25 -128,-144.25 -128,-32.25 -128,-32.25" /><polygon points="-128,-48.25 -128,-32.25 -128,-16.25 -128,47.75 -128,175.75 -128,175.75 -128,95.75 -128,79.75 -128,15.75 -128,-0.25 -128,-48.25" /><polygon points="-128,-272.25 -128,-256.25 -128,-208.25 -128,-192.25 -128,-48.25 -128,-48.25 -128,-224.25 -128,-272.25" /><polygon points="-384,47.75 -256,47.75 -208,47.75 -208,47.75 -224,47.75 -432,47.75 -432,47.75" /><polygon points="-224,-256.25 -224,-256.25 -352,-256.25 -352,-256.25" /><polygon points="-224,-288.25 -224,-288.25 -224,-256.25 -224,-256.25" /><polygon points="-128,-256.25 -128,-272.25 -128,-336.25 -192,-336.25 -224,-336.25 -224,-288.25 -224,-256.25" /><polygon points="-384,-288.25 -384,-336.25 -448,-272.25 -448,-256.25 -384,-256.25" /><polygon points="-352,-256.25 -352,-288.25 -384,-288.25 -384,-256.25" /><polygon points="-352,-288.25 -224,-288.25 -224,-336.25 -320,-336.25 -384,-336.25 -384,-288.25" /><polygon points="-352,-256.25 -352,-256.25 -352,-288.25 -352,-288.25" /><polygon points="-160,-208.25 -224,-208.25 -384,-208.25 -384,-192.25 -160,-192.25" /><polygon points="-128,-192.25 -128,-208.25 -160,-208.25 -160,-192.25" /><polygon points="-224,-256.25 -352,-256.25 -384,-256.25 -448,-256.25 -448,-208.25 -384,-208.25 -224,-208.25" /><polygon points="-160,-208.25 -128,-208.25 -128,-256.25 -224,-256.25 -224,-208.25" /><polygon points="-384,-192.25 -384,-208.25 -448,-144.25 -432,-144.25" /><polygon points="-384,-208.25 -448,-208.25 -448,-144.25" /><polygon points="-432,-144.25 -448,-144.25 -448,-48.25 -448,47.75 -432,47.75" /><polygon points="-128,-16.25 -192,47.75 -128,47.75" /><polygon points="-128,-16.25 -128,-32.25 -208,47.75 -192,47.75" /><polygon points="-128,-32.25 -128,-32.25 -208,47.75 -208,47.75" /><polygon points="-256,95.75 -256,95.75 -256,127.75 -256,127.75" /><polygon points="-192,47.75 -208,47.75 -256,47.75 -256,95.75 -256,127.75 -256,175.75 -224,175.75 -128,175.75 -128,47.75" /><polygon points="-384,127.75 -384,127.75 -384,95.75 -384,95.75" /><polygon points="-256,95.75 -256,47.75 -384,47.75 -384,95.75" /><polygon points="-256,127.75 -256,127.75 -384,127.75 -384,127.75" /><polygon points="-256,175.75 -256,127.75 -384,127.75 -384,175.75" /><polygon points="-432,47.75 -448,47.75 -448,175.75 -384,175.75 -384,127.75 -384,95.75 -384,47.75" /><polygon points="-576,511.75 -592,527.75 -592,591.75 -576,607.75" /><polygon points="-624,543.75 -631.2329,540.4623 -635,548.75" /><polygon points="-592,527.75 -656,527.75 -653.3333,530.4167 -613,548.75" /><polygon points="-613,548.75 -594.6666,589.0834 -592,591.75 -592,527.75" /><polygon points="-653.3333,530.4167 -656,527.75 -656,561.2045 -635,570.75" /><polygon points="-656,561.2045 -656,590.2955 -624,575.75" /><polygon points="-656,591.75 -672,607.75 -576,607.75 -592,591.75" /><polygon points="-592,591.75 -613,570.75 -656,590.2955 -656,591.75" /><polygon points="-594.6666,589.0834 -608,559.75 -613,570.75" /><polygon points="-631.2329,540.4623 -653.3333,530.4167 -640,559.75" /><polygon points="-672,607.75 -656,591.75 -656,527.75 -672,511.75" /><polygon points="-672,511.75 -656,527.75 -592,527.75 -576,511.75" /><polygon points="-672,607.75 -672,607.75 -576,607.75 -576,607.75" /><polygon points="-624,543.75 -624,543.75 -613,548.75 -613,548.75" /><polygon points="-635,548.75 -635,548.75 -624,543.75 -624,543.75" /><polygon points="-613,548.75 -613,548.75 -608,559.75 -608,559.75" /><polygon points="-640,559.75 -640,559.75 -635,548.75 -635,548.75" /><polygon points="-608,559.75 -608,559.75 -613,570.75 -613,570.75" /><polygon points="-635,570.75 -635,570.75 -640,559.75 -640,559.75" /><polygon points="-613,570.75 -613,570.75 -624,575.75 -624,575.75" /><polygon points="-624,575.75 -624,575.75 -635,570.75 -635,570.75" /><polygon points="-304,-448.25 -288,-432.25 -224,-432.25 -208,-448.25" /><polygon points="-224,-432.25 -225.4546,-432.25 -254.5455,-368.25 -224,-368.25" /><polygon points="-288,-398.7954 -288,-369.7046 -256,-384.25" /><polygon points="-257.4546,-432.25 -286.5455,-432.25 -272,-400.25" /><polygon points="-226.6667,-429.5833 -256,-416.25 -245,-411.25" /><polygon points="-245,-411.25 -240,-400.25 -226.6667,-429.5833" /><polygon points="-288,-368.25 -288,-432.25 -304,-448.25 -304,-352.25" /><polygon points="-226.6667,-429.5833 -225.4546,-432.25 -257.4546,-432.25 -267,-411.25" /><polygon points="-288,-432.25 -288,-398.7954 -267,-389.25 -286.5455,-432.25" /><polygon points="-288,-369.7046 -288,-368.25 -254.5455,-368.25 -245,-389.25" /><polygon points="-208,-352.25 -224,-368.25 -288,-368.25 -304,-352.25" /><polygon points="-224,-432.25 -224,-368.25 -208,-352.25 -208,-448.25" /><polygon points="-304,-448.25 -304,-448.25 -304,-352.25 -304,-352.25" /><polygon points="-240,-400.25 -240,-400.25 -245,-389.25 -245,-389.25" /><polygon points="-245,-411.25 -245,-411.25 -240,-400.25 -240,-400.25" /><polygon points="-245,-389.25 -245,-389.25 -256,-384.25 -256,-384.25" /><polygon points="-256,-416.25 -256,-416.25 -245,-411.25 -245,-411.25" /><polygon points="-256,-384.25 -256,-384.25 -267,-389.25 -267,-389.25" /><polygon points="-267,-411.25 -267,-411.25 -256,-416.25 -256,-416.25" /><polygon points="-267,-389.25 -267,-389.25 -272,-400.25 -272,-400.25" /><polygon points="-272,-400.25 -272,-400.25 -267,-411.25 -267,-411.25" /><polygon points="480,431.75 480,463.75 480,655.75 512,655.75 494.7692,431.75" /><polygon points="480,431.75 480,239.75 416,239.75 416,431.75 416,463.75 480,463.75" /><polygon points="96,-336.25 32,-336.25 0,-336.25 -128,-336.25 -128,-336.25 -128,-336.25 0,-336.25 96,-336.25" /><polygon points="-304,-352.25 -304,-352.25 -304,-352.25 -304,-368.25 -304,-432.25 -304,-448.25 -304,-448.25 -304,-352.25" /><polygon points="-208,-336.25 -224,-336.25 -304,-336.25 -304,-352.25 -208,-352.25" /><polygon points="-576,-176.25 -576,-144.25 -576,-48.25 -576,47.75 -576,47.75 -576,47.75 -576,-176.25" /><polygon points="-576,511.75 -576,599.75 -576,607.75 -576,607.75 -576,527.75 -576,511.75" /><polygon points="-352,239.75 -576,239.75 -576,111.75 -448,111.75 -352,111.75" /><polygon points="-320,111.75 -320,239.75 -352,239.75 -352,111.75" /><polygon points="-64,47.75 -128,111.75 -192,47.75 -128,-16.25" /><polygon points="-128,-16.25 -192,47.75 -208,47.75 -128,-32.25" /><polygon points="-320,239.75 -320,111.75 -224,111.75 -192,111.75 -192,143.75 -192,335.75 -320,335.75" /><polygon points="-192,335.75 -192,367.75 -232,367.75 -320,367.75 -320,335.75" /><polygon points="-448,-48.25 -448,-144.25 -432,-144.25 -432,47.75 -448,47.75" /><polygon points="-448,-272.25 -448,-208.25 -448,-144.25 -448,-48.25 -576,-48.25 -576,-144.25" /><polygon points="-448,-48.25 -448,47.75 -448,111.75 -576,111.75 -576,47.75 -576,-48.25" /><polygon points="-448,-208.25 -384,-208.25 -448,-144.25" /><polygon points="-384,-208.25 -384,-192.25 -432,-144.25 -448,-144.25" /><polygon points="-112,-160.25 -112,-208.25 -64,-208.25" /><polygon points="-160,-192.25 -384,-192.25 -384,-208.25 -224,-208.25 -160,-208.25" /><polygon points="-112,-208.25 -128,-192.25 -160,-192.25 -160,-208.25" /><polygon points="-128,-144.25 -128,-192.25 -112,-208.25 -112,-160.25" /><polygon points="-224,-208.25 -384,-208.25 -448,-208.25 -448,-272.25 -384,-336.25 -320,-336.25 -304,-336.25 -224,-336.25" /><polygon points="0,-208.25 -32,-208.25 -64,-208.25 -112,-208.25 -160,-208.25 -224,-208.25 -224,-336.25 -208,-336.25 -192,-336.25 -128,-336.25 0,-336.25" /><polygon points="32,-336.25 32,-208.25 16,-208.25 0,-208.25 0,-336.25" /><polygon points="32,-176.25 32,-208.25 32,-336.25 96,-336.25 160,-336.25 160,-208.25 160,-176.25 160,-112.25 32,-112.25" /><polygon points="160,-112.25 160,111.75 32,111.75 32,-112.25" /><polygon points="160,111.75 160,335.75 32,335.75 32,111.75" /><polygon points="160,335.75 160,367.75 32,367.75 32,335.75" /><polygon points="176,-208.25 160,-208.25 160,-336.25 192,-336.25 192,-208.25" /><polygon points="-192,111.75 -192,111.75 -192,143.75 -192,143.75" /><polygon points="0,-208.25 16,-208.25 48,-208.25 -32,-208.25 -32,-208.25" /><polygon points="32,111.75 32,335.75 64,335.75 64,111.75" /><polygon points="32,-112.25 32,111.75 64,111.75 64,47.75 64,15.75 64,-112.25" /><polygon points="160,335.75 128,335.75 128,367.75 160,367.75" /><polygon points="160,-176.25 128,-176.25 128,-112.25 160,-112.25" /><polygon points="160,-208.25 128,-208.25 128,-176.25 160,-176.25" /><polygon points="-112,-160.25 -64,-208.25 -64,-208.25 -128,-144.25 -128,-144.25" /><polygon points="-64,47.75 -64,47.75 -128,111.75 -128,111.75" /><polygon points="-128,-32.25 -128,-144.25 -128,-144.25 -128,-16.25 -128,-16.25 -128,-16.25" /><polygon points="-208,47.75 -192,47.75 -192,47.75 -224,47.75 -224,47.75" /><polygon points="-224,111.75 -320,111.75 -352,111.75 -448,111.75 -448,111.75 -320,111.75 -224,111.75" /><polygon points="-448,47.75 -448,47.75 -448,111.75 -448,111.75" /><polygon points="-320,239.75 -320,239.75 -352,239.75 -352,239.75" /><polygon points="-432,-144.25 -432,-144.25 -432,47.75 -432,47.75" /><polygon points="-384,-192.25 -160,-192.25 -160,-192.25 -384,-192.25" /><polygon points="-160,-192.25 -128,-192.25 -128,-192.25 -160,-192.25" /><polygon points="-432,-144.25 -384,-192.25 -384,-192.25 -432,-144.25" /><polygon points="0,559.75 0,559.75 0,495.75 0,495.75 0,495.75 0,559.75" /><polygon points="192,591.75 192,591.75 192,655.75 192,719.75 192,703.75" /><polygon points="192,495.75 192,479.75 192,367.75 192,367.75 192,559.75 192,591.75 192,591.75 192,591.75" /><polygon points="0,495.75 192,495.75 192,495.75 0,495.75" /><polygon points="192,495.75 0,495.75 0,479.75 192,479.75" /><polygon points="0,367.75 16,367.75 32,367.75 160,367.75 176,367.75 192,367.75 192,479.75 0,479.75" /><polygon points="-192,623.75 -192,623.75 -192,655.75 -192,655.75" /><polygon points="-64,367.75 -64,375.75 -192,375.75 -192,367.75" /><polygon points="-64,375.75 -64,495.75 -64,543.75 -128,543.75 -192,543.75 -192,375.75" /><polygon points="-64,543.75 -64,559.75 -128,559.75 -128,543.75" /><polygon points="-128,543.75 -128,559.75 -192,623.75 -192,607.75" /><polygon points="-192,543.75 -128,543.75 -192,607.75" /><polygon points="-64,375.75 -64,367.75 -64,367.75 -64,495.75 -64,495.75" /><polygon points="-64,559.75 0,559.75 0,559.75 -16,559.75 -64,559.75 -128,559.75 -128,559.75" /><polygon points="-192,623.75 -128,559.75 -128,559.75 -192,623.75" /><polygon points="-208,879.75 -192,879.75 -192,879.75 -224,879.75 -256,879.75 -256,879.75" /><polygon points="-232,375.75 -384,375.75 -456,375.75 -448,367.75 -320,367.75 -232,367.75" /><polygon points="-192,375.75 -232,375.75 -232,367.75 -192,367.75" /><polygon points="-192,543.75 -256,543.75 -384,543.75 -384,375.75 -232,375.75 -192,375.75" /><polygon points="-192,623.75 -208,623.75 -192,607.75" /><polygon points="-208,767.75 -208,623.75 -192,623.75 -192,655.75 -192,847.75 -208,847.75" /><polygon points="-192,847.75 -192,879.75 -208,879.75 -208,847.75" /><polygon points="-208,623.75 -256,671.75 -256,543.75 -192,543.75 -192,607.75" /><polygon points="-256,671.75 -208,623.75 -208,767.75 -256,767.75" /><polygon points="-384,599.75 -384,543.75 -256,543.75 -256,671.75 -256,767.75 -384,767.75" /><polygon points="-576,511.75 -576,495.75 -456,375.75 -384,375.75 -384,543.75 -384,599.75 -576,599.75" /><polygon points="-384,599.75 -384,767.75 -432,767.75 -448,751.75 -576,623.75 -576,607.75 -576,599.75" /><polygon points="-448,767.75 -448,751.75 -432,767.75" /><polygon points="-432,767.75 -384,767.75 -256,767.75 -208,767.75 -208,847.75 -208,879.75 -256,879.75 -288,879.75 -384,879.75 -448,879.75 -448,767.75" /><polygon points="-448,751.75 -448,751.75 -576,623.75 -576,623.75" /><polygon points="-288,943.75 -288,879.75 -256,879.75 -256,943.75" /><polygon points="-384,879.75 -288,879.75 -288,943.75 -384,943.75" /><polygon points="-256,943.75 -256,879.75 -256,879.75 -256,943.75" /><polygon points="-448,-272.25 -448,-336.25 -384,-336.25" /><polygon points="-576,-176.25 -576,-208.25 -448,-336.25 -448,-272.25 -576,-144.25" /><polygon points="-256,943.75 -256,943.75 -256,1007.75 -256,1007.75" /><polygon points="-256,1183.75 -256,1167.75 -256,1135.75 -256,1135.75 -256,1183.75" /><polygon points="-256,1007.75 -256,1007.75 -64,1007.75 -64,1007.75" /><polygon points="-256,1135.75 -256,1007.75 -64,1007.75 -64,1135.75" /><polygon points="-288,1167.75 -288,1135.75 -288,943.75 -256,943.75 -256,1007.75 -256,1135.75 -256,1167.75" /><polygon points="-256,1183.75 -288,1205.25 -288,1199.75 -288,1167.75 -256,1167.75" /><polygon points="-288,943.75 -288,1135.75 -352,1135.75 -384,1135.75 -384,943.75" /><polygon points="-304,1215.75 -304,1199.75 -288,1199.75 -288,1205.25 -304,1216" /><polygon points="-304,1199.75 -304,1215.75 -336,1215.75 -336,1199.75" /><polygon points="-352,1205.2504 -352,1199.75 -336,1199.75 -336,1215.75 -336,1215.9999" /><polygon points="-384,1183.75 -384,1135.75 -352,1135.75 -352,1199.75 -352,1205.2504" /><polygon points="-256,1183.75 -256,1183.75 -304,1216 -304,1216" /><polygon points="-672,511.75 -672,511.75 -576,511.75 -576,511.75" /><polygon points="-672,607.75 -672,607.75 -672,511.75 -672,511.75" /><polygon points="-576,511.75 -576,511.75 -576,607.75 -576,607.75" /><polygon points="-576,607.75 -592,591.75 -592,527.7487 -576,511.75" /><polygon points="-656,527.75 -592,527.7487 -592,591.75 -656,591.75" /><polygon points="-672,607.75 -656,591.75 -592,591.75 -576,607.75" /><polygon points="-672,511.75 -656,527.75 -656,591.75 -672,607.75" /><polygon points="-592,527.7487 -656,527.75 -672,511.75 -576,511.75" /><polygon points="-304,-448.25 -304,-448.25 -208,-448.25 -208,-448.25" /><polygon points="-208,-352.25 -208,-352.25 -304,-352.25 -304,-352.25" /><polygon points="-208,-448.25 -208,-448.25 -208,-352.25 -208,-352.25" /><polygon points="-288,-432.25 -304,-448.25 -208,-448.25 -224,-432.25" /><polygon points="-288,-368.25 -288,-432.25 -224,-432.25 -224,-368.25" /><polygon points="-304,-448.25 -288,-432.25 -288,-368.25 -304,-352.25" /><polygon points="-304,-352.25 -288,-368.25 -224,-368.25 -208,-352.25" /><polygon points="-208,-352.25 -224,-368.25 -224,-432.25 -208,-448.25" /><polygon points="-352,1135.75 -352,1135.75 -288,1135.75 -288,1135.75" /><polygon points="-352,1199.75 -352,1199.75 -352,1135.75 -352,1135.75" /><polygon points="-288,1135.75 -288,1135.75 -288,1167.75 -288,1199.75 -288,1199.75" /><polygon points="-288,1199.75 -288,1199.75 -304,1199.75 -336,1199.75 -352,1199.75 -352,1199.75" /><polygon points="-288,1199.75 -352,1199.75 -352,1135.75 -288,1135.75" /><polygon points="416,463.75 416,655.75 480,655.75 480,463.75" /><polygon points="640,751.75 640,815.75 640,815.75 640,751.75" /><polygon points="224,943.75 256,943.75 256,943.75 224,943.75 192,943.75 192,943.75" /><polygon points="64,943.75 64,943.75 0,943.75 0,943.75" /><polygon points="624,831.75 640,815.75 624,815.75" /><polygon points="640,815.75 640,751.75 624,735.75 624,815.75" /><polygon points="624,735.75 640,751.75 640,751.75 624,735.75" /><polygon points="576,687.75 624,735.75 624,735.75 576,687.75" /><polygon points="576,687.75 576,687.75 560,687.75 560,687.75" /><polygon points="624,735.75 576,687.75 560,687.75 560,815.75 624,815.75" /><polygon points="576,879.75 624,831.75 624,815.75 560,815.75 560,879.75" /><polygon points="256,687.75 256,687.75 256,719.75" /><polygon points="480,687.75 496,687.75 528,687.75 512,687.75" /><polygon points="400,687.75 416,687.75 384,687.75 368,687.75" /><polygon points="400,687.75 368,687.75 256,687.75 256,687.75" /><polygon points="480,655.75 416,655.75 416,687.75 480,687.75" /><polygon points="416,655.75 384,655.75 384,687.75 416,687.75" /><polygon points="560,687.75 512,687.75 512,751.75 512,815.75 560,815.75" /><polygon points="480,687.75 416,687.75 400,687.75 256,687.75 256,719.75 256,751.75 320,751.75 448,751.75 480,751.75" /><polygon points="512,751.75 512,687.75 496,687.75 480,687.75 480,751.75" /><polygon points="480,815.75 512,815.75 512,751.75 480,751.75 448,751.75 448,815.75" /><polygon points="448,815.75 448,751.75 320,751.75 320,815.75" /><polygon points="320,815.75 320,751.75 256,751.75 256,815.75" /><polygon points="480,815.75 448,815.75 320,815.75 256,815.75 256,879.75 480,879.75" /><polygon points="560,815.75 512,815.75 480,815.75 480,879.75 560,879.75" /><polygon points="480,879.75 256,879.75 256,879.75 416,879.75 480,879.75" /><polygon points="560,879.75 480,879.75 480,879.75 560,879.75" /><polygon points="0,906.4167 0,906.4167 0,879.75 0,879.75" /><polygon points="192,591.75 192,591.75 192,655.75 192,655.75" /><polygon points="256,815.75 256,751.75 256,719.75 192,719.75 192,815.75" /><polygon points="256,815.75 192,815.75 192,879.75 256,879.75" /><polygon points="256,719.75 256,687.75 192,687.75 192,703.75 192,719.75" /><polygon points="192,943.75 192,943.75 192,927.75 192,927.75" /><polygon points="192,895.75 192,895.75 192,879.75 192,879.75" /><polygon points="192,927.75 192,927.75 192,911.75 192,895.75 192,895.75" /><polygon points="64,895.75 64,895.75 64,911.75 64,927.75 64,927.75" /><polygon points="64,879.75 64,879.75 64,895.75 64,895.75" /><polygon points="64,927.75 64,927.75 64,943.75 64,943.75" /><polygon points="192,943.75 192,927.75 192,895.75 192,879.75 64,879.75 64,895.75 64,927.75 64,943.75" /><polygon points="256,975.75 256,1007.75 256,1135.75 256,1199.75 256,1199.75 256,1135.75 256,1007.75 256,975.75" /><polygon points="-64,1135.75 -256,1135.75 -256,1135.75 -64,1135.75" /><polygon points="-16,1135.75 -48,1135.75 -48,1135.75 -16,1135.75" /><polygon points="-48,1135.75 -64,1135.75 -64,1135.75 -48,1135.75" /><polygon points="-16,1135.75 -16,1135.75 0,1135.75 0,1135.75" /><polygon points="-48,1007.75 -16,1007.75 -16,1007.75 -48,1007.75" /><polygon points="-64,1007.75 -48,1007.75 -48,1007.75 -64,1007.75" /><polygon points="0,1007.75 0,1007.75 -16,1007.75 -16,1007.75" /><polygon points="0,943.75 0,943.75 0,1007.75 0,1007.75" /><polygon points="224,943.75 192,943.75 64,943.75 0,943.75 0,1007.75 160,1007.75 224,1007.75" /><polygon points="256,1007.75 256,975.75 256,943.75 224,943.75 224,1007.75" /><polygon points="160,1007.75 0,1007.75 -16,1007.75 -48,1007.75 -64,1007.75 -64,1135.75 -48,1135.75 -16,1135.75 0,1135.75 160,1135.75" /><polygon points="224,1135.75 256,1135.75 256,1007.75 224,1007.75 160,1007.75 160,1135.75" /><polygon points="-64,1135.75 -64,1007.75 -256,1007.75 -256,1135.75" /><polygon points="224,1135.75 160,1135.75 0,1135.75 0,1199.75 224,1199.75" /><polygon points="256,1199.75 256,1135.75 224,1135.75 224,1199.75" /><polygon points="224,1199.75 0,1199.75 0,1199.75 224,1199.75" /><polygon points="-16,917.0833 0,906.4167 0,893.6167 -16,904.2833" /><polygon points="-192,943.75 -192,930.95 -192,879.75 -192,879.75 -192,879.75 -192,943.75" /><polygon points="-128,911.75 -192,943.75 -192,943.75 -128,911.75" /><polygon points="-32,927.75 -128,911.75 -128,911.75 -32,927.75" /><polygon points="-192,-336.25 -192,-336.25 -208,-336.25 -208,-336.25" /><polygon points="-304,-336.25 -304,-336.25 -320,-336.25 -320,-336.25" /><polygon points="-304,-352.25 -208,-352.25 -208,-352.25 -304,-352.25" /><polygon points="-208,-352.25 -304,-352.25 -304,-336.25 -208,-336.25" /><polygon points="-304,-352.25 -304,-352.25 -304,-336.25 -304,-336.25" /><polygon points="-208,-336.25 -208,-336.25 -208,-352.25 -208,-352.25" /><polygon points="-320,159.75 -448,159.75 -448,191.75 -320,191.75" /><polygon points="-336,1215.9999 -336.3714,1215.75 -384,1183.75 -384,1183.75 -352,1205.2504 -336,1215.9999" /><polygon points="-128,-336.25 -128,-336.25 -192,-336.25 -192,-336.25 -192,-336.25" /><polygon points="-192,-336.25 -192,-336.25 -208,-336.25 -304,-336.25 -320,-336.25 -320,-336.25" /><polygon points="-320,-336.25 -320,-336.25 -320,-336.25 -384,-336.25 -384,-336.25 -320,-336.25" /><polygon points="-288,-432.25 -288,-368.25 -224,-368.25 -224,-432.25" /><polygon points="-208,-432.25 -224,-432.25 -224,-368.25 -208,-368.25" /><polygon points="-304,-448.25 -304,-432.25 -288,-432.25 -224,-432.25 -208,-432.25 -208,-448.25" /><polygon points="-208,-368.25 -224,-368.25 -288,-368.25 -304,-368.25 -304,-352.25 -208,-352.25" /><polygon points="-304,-368.25 -288,-368.25 -288,-432.25 -304,-432.25" /><polygon points="-304,-448.25 -208,-448.25 -208,-448.25 -304,-448.25" /><polygon points="-208,-448.25 -208,-432.25 -208,-368.25 -208,-352.25 -208,-352.25 -208,-352.25 -208,-352.25 -208,-448.25" /><polygon points="-576,111.75 -576,111.75 -576,239.75 -576,239.75" /><polygon points="-576,47.75 -576,47.75 -576,111.75 -576,111.75" /><polygon points="-576,495.75 -576,495.75 -576,511.75 -576,511.75" /><polygon points="-576,607.75 -576,607.75 -576,623.75 -576,623.75" /><polygon points="192,367.75 192,367.75 176,367.75 144,367.75" /><polygon points="144,367.75 176,367.75 160,367.75 128,367.75" /><polygon points="48,367.75 16,367.75 0,367.75 0,367.75" /><polygon points="64,367.75 32,367.75 16,367.75 48,367.75" /><polygon points="-64,367.75 -64,367.75 -192,367.75 -192,367.75" /><polygon points="-320,367.75 -320,367.75 -448,367.75 -448,367.75" /><polygon points="-192,143.75 -192,335.75 -192,367.75 -192,367.75 -192,335.75 -192,143.75" /><polygon points="48,-208.25 16,-208.25 32,-208.25 64,-208.25" /><polygon points="128,-208.25 160,-208.25 176,-208.25 144,-208.25" /><polygon points="144,-208.25 176,-208.25 192,-208.25 192,-208.25" /><polygon points="64,335.75 32,335.75 32,367.75 64,367.75" /><polygon points="64,-176.25 32,-176.25 32,-112.25 64,-112.25" /><polygon points="64,-208.25 32,-208.25 32,-176.25 64,-176.25" /><polygon points="128,-112.25 128,-176.25 128,-208.25 64,-208.25 64,-176.25 64,-112.25 64,15.75 128,15.75" /><polygon points="64,15.75 64,47.75 128,47.75 128,15.75" /><polygon points="128,47.75 64,47.75 64,111.75 128,111.75" /><polygon points="128,111.75 64,111.75 64,335.75 128,335.75" /><polygon points="64,335.75 64,367.75 128,367.75 128,335.75" /><polygon points="128,111.75 128,335.75 160,335.75 160,111.75" /><polygon points="128,-112.25 128,15.75 128,47.75 128,111.75 160,111.75 160,-112.25" /><polygon points="-192,47.75 -192,47.75 -128,111.75 -128,111.75" /><polygon points="-64,47.75 -64,47.75 -128,-16.25 -128,-16.25" /><polygon points="-64,47.75 -128,-16.25 -192,47.75 -128,111.75" /><polygon points="-224,47.75 -352,47.75 -448,47.75 -448,47.75 -432,47.75 -224,47.75" /><polygon points="-224,47.75 -192,47.75 -192,47.75 -352,47.75 -352,47.75" /><polygon points="-192,111.75 -192,111.75 -224,111.75 -224,111.75" /><polygon points="-448,47.75 -576,47.75 -576,111.75 -448,111.75" /><polygon points="-320,335.75 -320,239.75 -320,239.75 -320,335.75 -320,367.75 -320,367.75" /><polygon points="-320,159.75 -320,159.75 -320,191.75 -320,191.75" /><polygon points="-192,335.75 -192,143.75 -192,111.75 -224,111.75 -320,111.75 -320,159.75 -320,191.75 -320,239.75 -320,335.75" /><polygon points="-320,367.75 -256,367.75 -192,367.75 -192,335.75 -320,335.75" /><polygon points="-352,239.75 -320,239.75 -320,191.75 -448,191.75 -448,239.75" /><polygon points="-448,191.75 -448,159.75 -448,111.75 -576,111.75 -576,239.75 -448,239.75" /><polygon points="-320,111.75 -448,111.75 -448,159.75 -320,159.75" /><polygon points="-448,159.75 -448,159.75 -320,159.75 -320,159.75" /><polygon points="-320,191.75 -320,191.75 -448,191.75 -448,191.75" /><polygon points="-448,191.75 -448,191.75 -448,159.75 -448,159.75" /><polygon points="-352,239.75 -448,239.75 -576,239.75 -576,239.75 -352,239.75" /><polygon points="-456,375.75 -448,367.75 -448,367.75 -456,375.75 -576,495.75 -576,495.75" /><polygon points="0,879.75 0,893.6167 0,906.4167 0,906.4167 0,879.75" /><polygon points="0,367.75 0,367.75 0,479.75 0,495.75 0,495.75" /><polygon points="192,367.75 144,367.75 128,367.75 64,367.75 48,367.75 0,367.75 0,495.75 0,559.75 192,559.75" /><polygon points="192,879.75 192,930.95 160,922.95 128,914.95 64,882.95 64,879.75" /><polygon points="16,882.95 16,879.75 64,879.75 64,882.95" /><polygon points="0,893.6167 0,879.75 16,879.75 16,882.95" /><polygon points="192,655.75 192,591.75 192,559.75 160,591.75 160,706.95 192,706.95" /><polygon points="192,879.75 64,879.75 16,879.75 0,879.75 0,879.75 64,879.75 192,879.75" /><polygon points="192,655.75 192,706.95 192,879.75 192,879.75 192,815.75 192,719.75 192,655.75" /><polygon points="-16,904.2833 -16,853.0833 -32,863.75 -32,927.75 -16,917.0833" /><polygon points="0,559.75 0,559.75 -64,559.75 -64,559.75" /><polygon points="-64,495.75 -64,367.75 -192,367.75 -192,431.75 -192,495.75 -192,543.75 -192,559.75 -64,559.75" /><polygon points="-64,495.75 -64,559.75 -64,559.75 -64,543.75 -64,495.75" /><polygon points="-192,559.75 -192,591.75 -160,591.75" /><polygon points="0,559.75 -64,559.75 -192,559.75 -160,591.75 0,591.75" /><polygon points="-192,706.95 -192,767.75 -192,879.75 -192,930.95 -184,920.55 -160,889.35 -160,706.95" /><polygon points="-192,591.75 -192,706.95 -160,706.95 -160,665.35 -160,591.75" /><polygon points="-448,879.75 -448,879.75 -384,879.75 -384,879.75" /><polygon points="-384,375.75 -256,375.75 -256,367.75 -320,367.75 -448,367.75 -456,375.75" /><polygon points="-192,367.75 -256,367.75 -256,375.75 -256,431.75 -192,431.75" /><polygon points="-192,706.95 -192,591.75 -192,559.75 -192,543.75 -256,543.75 -320,543.75 -320,687.75 -320,751.75 -320,767.75 -224,767.75 -192,767.75" /><polygon points="-192,543.75 -192,495.75 -256,495.75 -256,543.75" /><polygon points="-192,495.75 -192,431.75 -256,431.75 -256,495.75" /><polygon points="-384,543.75 -320,543.75 -256,543.75 -256,495.75 -256,431.75 -256,375.75 -384,375.75" /><polygon points="-320,543.75 -384,543.75 -384,599.75 -384,687.75 -320,687.75" /><polygon points="-320,687.75 -384,687.75 -384,751.75 -320,751.75" /><polygon points="-320,751.75 -384,751.75 -384,767.75 -320,767.75" /><polygon points="-384,543.75 -384,375.75 -456,375.75 -576,495.75 -576,511.75 -576,599.75 -384,599.75" /><polygon points="-576,599.75 -576,607.75 -576,623.75 -448,751.75 -432,767.75 -384,767.75 -384,751.75 -384,687.75 -384,599.75" /><polygon points="-432,767.75 -448,751.75 -448,767.75" /><polygon points="-224,767.75 -320,767.75 -384,767.75 -432,767.75 -448,767.75 -448,879.75 -384,879.75 -256,879.75 -224,879.75" /><polygon points="-192,879.75 -192,767.75 -224,767.75 -224,879.75" /><polygon points="-448,767.75 -448,751.75 -448,751.75 -448,767.75 -448,879.75 -448,879.75" /><polygon points="-256,943.75 -256,879.75 -384,879.75 -384,943.75" /><polygon points="-384,879.75 -384,879.75 -384,943.75 -384,943.75" /><polygon points="-384,1135.75 -384,943.75 -384,943.75 -384,1135.75 -384,1183.75 -384,1183.75" /><polygon points="-256,1135.75 -256,1007.75 -256,943.75 -384,943.75 -384,1135.75" /><polygon points="-256,1183.75 -256,1135.75 -384,1135.75 -384,1183.75 -336.3714,1215.75 -336,1215.75 -304,1215.75 -303.6279,1215.75" /><polygon points="-336.3714,1215.75 -336,1215.9999 -336,1215.75" /><polygon points="-304,1216 -303.6279,1215.75 -304,1215.75" /><polygon points="-304,1216 -304,1215.75 -304,1215.75 -304,1216" /><polygon points="-336,1215.75 -336,1215.9999 -336,1215.9999 -336,1215.75" /><polygon points="-304,1215.75 -336,1215.75 -336,1215.75 -304,1215.75" /><polygon points="-592,527.75 -656,527.75 -656,591.75 -592,591.75" /><polygon points="-656,511.75 -656,527.75 -592,527.75 -592,511.75" /><polygon points="-672,607.75 -656,607.75 -656,591.75 -656,527.75 -656,511.75 -672,511.75" /><polygon points="-576,599.75 -576,511.75 -592,511.75 -592,527.75 -592,591.75 -592,607.75 -576,607.75" /><polygon points="-592,591.75 -656,591.75 -656,607.75 -592,607.75" /><polygon points="-672,607.75 -672,511.75 -672,511.75 -672,575.75 -672,607.75" /><polygon points="-128,892.55 -160,908.55 -184,920.55 -192,930.95 -192,943.75 -128,911.75" /><polygon points="-160,908.55 -160,889.35 -184,920.55" /><polygon points="-224,-336.25 -320,-336.25 -384,-336.25 -448,-336.25 -448,-336.25 -224,-336.25" /><polygon points="0,-336.25 -128,-336.25 -224,-336.25 -224,-336.25 -128,-336.25 0,-336.25" /><polygon points="192,-336.25 192,-336.25 160,-336.25 96,-336.25 96,-336.25" /><polygon points="-224,-336.25 -128,-336.25 -128,-336.25 -192,-336.25 -320,-336.25 -320,-336.25" /><polygon points="-384,-336.25 -384,-336.25 -448,-336.25 -448,-336.25" /><polygon points="-448,-336.25 -448,-336.25 -576,-208.25 -576,-208.25" /><polygon points="-576,-176.25 -576,47.75 -576,47.75 -576,-176.25" /><polygon points="-576,-208.25 -576,-208.25 -576,-176.25 -576,-176.25" /><polygon points="256,815.75 256,751.75 256,751.75 256,815.75" /><polygon points="192,-336.25 192,-208.25 192,-208.25 192,-208.25 192,-336.25" /><polygon points="-64,-208.25 -64,-208.25 -32,-208.25 -32,-208.25 -32,-208.25" /><polygon points="192,-208.25 160,-208.25 -32,-208.25 -32,-208.25 48,-208.25 64,-208.25 128,-208.25 144,-208.25 192,-208.25" /><polygon points="192,-208.25 192,-208.25 160,-208.25 160,-208.25" /><polygon points="-64,-208.25 -64,-208.25 -128,-144.25 -128,-144.25" /><polygon points="-128,-144.25 -128,-144.25 -128,-16.25 -128,-16.25" /><polygon points="-128,-16.25 -192,47.75 -192,47.75 -128,-16.25" /><polygon points="-352,47.75 -576,47.75 -576,47.75 -448,47.75 -352,47.75" /><polygon points="-192,47.75 -192,47.75 -352,47.75 -352,47.75" /><polygon points="160,897.35 160,871.75 128,863.75 128,914.95 160,922.95" /><polygon points="160,897.35 160,922.95 192,930.95" /><polygon points="256,751.75 256,815.75 176,815.75 176,751.75" /><polygon points="160,815.75 160,751.75 176,751.75 176,815.75" /><polygon points="160,706.95 160,591.75 160,591.75 160,751.75 160,751.75" /><polygon points="176,815.75 176,815.75 160,815.75 160,815.75" /><polygon points="160,706.95 160,751.75 160,815.75 160,897.35 192,930.95 192,879.75 192,706.95" /><polygon points="160,591.75 192,559.75 0,559.75 0,591.75" /><polygon points="0,591.75 -160,591.75 -160,591.75 -128,591.75 0,591.75" /><polygon points="-160,665.35 -160,706.95 -160,889.35 -160,863.75 -160,665.35" /><polygon points="176,751.75 160,751.75 160,815.75 176,815.75" /><polygon points="192,-336.25 192,-336.25 96,-336.25 0,-336.25 0,-336.25" /><polygon points="-448,-336.25 -448,-336.25 -576,-208.25 -576,-208.25" /><polygon points="-576,-208.25 -576,-208.25 -576,-176.25 -576,-176.25" /><polygon points="-16,853.0833 0,842.4167 16,831.75 64,831.75 128,863.75 128,879.75 -32,879.75 -32,863.75" /><polygon points="160,871.75 160,879.75 128,879.75 128,863.75" /><polygon points="-160,879.75 -160,863.75 -128,847.75 -32,863.75 -32,879.75" /><polygon points="192,-208.25 192,-208.25 192,-336.25 192,-336.25" /><polygon points="160,-208.25 -64,-208.25 -64,-208.25 -32,-208.25 160,-208.25" /><polygon points="-192,47.75 -192,47.75 -128,-16.25 -128,-16.25" /><polygon points="-352,47.75 -576,47.75 -576,47.75 -352,47.75" /><polygon points="128,863.75 64,831.75 64,882.95 128,914.95" /><polygon points="256,751.75 256,751.75 176,751.75 176,751.75" /><polygon points="160,751.75 176,751.75 176,751.75 160,751.75" /><polygon points="16,591.75 64,591.75 160,591.75 160,591.75 0,591.75 0,591.75" /><polygon points="160,871.75 160,897.35 160,815.75 160,815.75" /><polygon points="176,815.75 176,815.75 256,815.75 256,815.75" /><polygon points="64,831.75 16,831.75 16,882.95 64,882.95" /><polygon points="16,831.75 0,842.4167 0,893.6167 16,882.95" /><polygon points="0,842.4167 -16,853.0833 -16,904.2833 0,893.6167" /><polygon points="-128,847.75 -160,863.75 -160,889.35 -160,908.55 -128,892.55" /><polygon points="-160,591.75 -160,591.75 -160,665.35 -160,665.35" /><polygon points="-32,863.75 -128,847.75 -128,892.55 -128,911.75" /><polygon points="-32,863.75 -128,911.75 -32,927.75" /><polygon points="160,751.75 160,751.75 176,751.75 176,751.75" /><polygon points="176,815.75 160,815.75 160,751.75 176,751.75" /><polygon points="176,815.75 176,815.75 160,815.75 160,815.75" /><polygon points="176,751.75 176,751.75 176,815.75 176,815.75" /><polygon points="160,815.75 160,815.75 160,751.75 160,751.75" /></g></defs><rect fill="#fff" height="1944.25" id="background" width="1592.0" x="-820.0" y="-596.25" /><use fill="none" stroke="black" stroke-miterlimit="0" stroke-width="15" xlink:href="#bsp_ref" /><use fill="white" stroke="black" stroke-width="1" xlink:href="#bsp_ref" /></svg>