<svg viewBox="-914 -722 1756 1276" xmlns="http://www.w3.org/2000/svg" xmlns:xlink="http://www.w3.org/1999/xlink"><defs><g id="a"><path d="m-320-104h-64v-128h64z"/><path d="m-320-104v-128z"/><path d="m-384-104h64z"/><path d="m-320-232h-64z"/><path d="m-384-232v128z"/><path d="m-336-216h-32v32h32z"/><path d="m-336-152h-32v32h32z"/><path d="m-320-232v128z"/><path d="m-320-104h-64z"/><path d="m-384-232h64z"/><path d="m-384-104v-128z"/><path d="m-368-152h32z"/><path d="m-336-184h-32z"/><path d="m-368-184v-32z"/><path d="m-336-216v32z"/><path d="m-368-216h32z"/><path d="m-336-152v32z"/><path d="m-368-120v-32z"/><path d="m-336-120h-32z"/><path d="m128-488h64v128h-64z"/><path d="m192-488v128z"/><path d="m176-472h-32v32h32z"/><path d="m176-408h-32v32h32z"/><path d="m-384-232v128h64v-128z"/><path d="m-320-240v8 128 8z"/><path d="m-376-96h48 8-72z"/><path d="m-328-112v-48-16-48-16h8v144h-8z"/><path d="m-376-224v-16h48v16z"/><path d="m-376-160v-16h48v16z"/><path d="m-328-96h-48v-16h48z"/><path d="m-392-240h16v16 48 16 48 16h-16z"/><path d="m-368-232h-16v128h16z"/><path d="m-336-232h-32v16h32z"/><path d="m-368-120v16h32v-16z"/><path d="m-368-184v32h32v-32z"/><path d="m-320-232h-16v128h16z"/><path d="m-368-152h32z"/><path d="m-336-184h-32z"/><path d="m-368-184v-32z"/><path d="m-336-216v32z"/><path d="m-368-216h32z"/><path d="m-336-152v32z"/><path d="m-368-120v-32z"/><path d="m-336-120h-32z"/><path d="m-376-112v-48z"/><path d="m-376-176v-48z"/><path d="m-328-160v48z"/><path d="m-328-224v48z"/><path d="m-328-176h-48z"/><path d="m-376-224h48z"/><path d="m-328-176h-48v-48h48z"/><path d="m-376-160h48z"/><path d="m-328-112h-48z"/><path d="m-328-112h-48v-48h48z"/><path d="m-624-600h64-32-96-32z"/><path d="m-560-600v-16z"/><path d="m-560-616v16h-64-96v-16z"/><path d="m-720-600v16z"/><path d="m-624-600h64v16h-64z"/><path d="m-624-584h-8-16-72v-16h96z"/><path d="m-408-80v-8h16 72v8z"/><path d="m-432-88h24v8 40h-72-96v-48z"/><path d="m-320-80v8l-32 32h-56v-40z"/><path d="m-592-136v-16h16v16z"/><path d="m-544-152h16 96v64h-144v-48-16z"/><path d="m-528-152v-16-96-16h96v128z"/><path d="m-480-296h48v16h-96-16-48v-16z"/><path d="m-720-424h16v16 48h-16z"/><path d="m-648-488h16 8v64h-64-16-16-16-32v-64z"/><path d="m-632-512h-16v-72h16z"/><path d="m-648-496v-16h16v16z"/><path d="m-720-584h72v72 16 8h-120v-64l32-32z"/><path d="m-632-488v-8-16-72h8v80 16z"/><path d="m-648-488v-8h16v8z"/><path d="m-576-408v-16h16v64h-16z"/><path d="m-560-504h48v80h-32-16-16-16-32v-64-16z"/><path d="m-560-584v80h-64v-80z"/><path d="m-544-584 32 32v48h-48v-80z"/><path d="m-320-96v8h-72v-8z"/><path d="m-408-256h16v16 144 8h-16z"/><path d="m-432-152v-128-16h24v40 168h-24z"/><path d="m-320-256v16h-72v-16z"/><path d="m-320-264v8h-72-16v-40h56z"/><path d="m192-488v128z"/><path d="m-624-424h32-96z"/><path d="m-592-424h16z"/><path d="m-704-424h16z"/><path d="m-512-504v-48 48 32 48z"/><path d="m-576-424v16z"/><path d="m-320-232v-8-16-8h-16v32z"/><path d="m-320-80v-8-8-8h-16v32h16z"/><path d="m-408-40h56-128z"/><path d="m-592-296v16z"/><path d="m-528-264v96z"/><path d="m-528-168v16z"/><path d="m-528-280v16z"/><path d="m-592-152v16z"/><path d="m-528-152h-16z"/><path d="m128-360h64z"/><path d="m192-488h-64z"/><path d="m128-488v128z"/><path d="m-320-240h-8-48-16z"/><path d="m-392-240v144z"/><path d="m-592-152v16z"/><path d="m-592-152v16h48v-16z"/><path d="m-592-136h16 32z"/><path d="m-544-136h-32v-16h32z"/><path d="m-592-296v16z"/><path d="m-592-296v16h48v-16z"/><path d="m-592-280h16 32z"/><path d="m-544-280h-32v-16h32z"/><path d="m-320-104h-64z"/><path d="m-384-232h64z"/><path d="m-384-104v-128z"/><path d="m-320-232v128z"/><path d="m-320-104h-64v-128h64z"/><path d="m-576-408v32 16z"/><path d="m-576-360h16z"/><path d="m-560-408h-16v48h16z"/><path d="m-560-360v-16-32z"/><path d="m-560-408v32h-16v-32z"/><path d="m-704-360v-16-32z"/><path d="m-720-360h16z"/><path d="m-704-408h-16v48h16z"/><path d="m-720-408v32 16z"/><path d="m-704-408v32h-16v-32z"/><path d="m-720-360h16z"/><path d="m-576-360h16z"/><path d="m-688-424h96 16v64h-128v-64z"/><path d="m-704-424v16z"/><path d="m-704-360v-48-16z"/><path d="m-576-424v16 48z"/><path d="m-528-280h-16z"/><path d="m-592-280h48 16z"/><path d="m-528-152h-16-32-16z"/><path d="m-592-280h64v16 96 16h-64z"/><path d="m-416 248h-128-32z"/><path d="m-544-360h-16z"/><path d="m-704-360h-16 16 128z"/><path d="m-320-264-32-32z"/><path d="m-784 24h-16z"/><path d="m-320-72-32 32z"/><path d="m-352-40 32-32z"/><path d="m-416-296h64-56-24-48z"/><path d="m-352-296h-64z"/><path d="m-320-264h-16z"/><path d="m-352-40h-128z"/><path d="m-768-56h128v80h-128z"/><path d="m-624-40v64h-16v-80h16z"/><path d="m-784-40v-16h16v80h-16z"/><path d="m-608-40h-16v-16h32v16z"/><path d="m-784-72v-144h32 32 128v80 80h-32-16-128-16z"/><path d="m-784-216v-64h32v32 32z"/><path d="m-800-104v-64-128h16v16 64 144h-16z"/><path d="m-784-72v16 16h-16v-32z"/><path d="m-752-248v-32h32v32z"/><path d="m-736-296h16v16h-32-32v-16z"/><path d="m-704-344h-16v-16h16z"/><path d="m-736-296v-64h16v16 48z"/><path d="m-704-344h112v32 16 16 64h-128v-32-32-16-48z"/><path d="m-592-56v-80h16v96h-16z"/><path d="m-576-344h32l32 32h-80v-32z"/><path d="m-480-296h-16l-16-16-32-32v-16z"/><path d="m-560-360h16v16h-32v-16z"/><path d="m-512-312 16 16h-96v-16z"/><path d="m-576-360v16h-16-112v-16z"/><path d="m-480-40h-16-32-16z"/><path d="m-784 24v-64z"/><path d="m-592-136h16z"/><path d="m-496-296h16-112z"/><path d="m-592-216v-64 128 16z"/><path d="m-576-136v48 48z"/><path d="m-480-40h-64-32z"/><path d="m-384 56v32 96 32z"/><path d="m-400 56v32 96 32z"/><path d="m-400 216h16z"/><path d="m-400 56h16v160h-16z"/><path d="m-400 56h-16z"/><path d="m-416 200v-128-16h16v160h-16z"/><path d="m-624 24h16 192v16h-16-32-176v-16z"/><path d="m-464 168h-96-128v-16-32-80h48 176z"/><path d="m-432 40v32 96h-32v-128z"/><path d="m-416 56v16h-16v-32h16z"/><path d="m-432 168v-96h16v128h-16z"/><path d="m-768 24v16h-16v-16z"/><path d="m-640 24v16h-48-32-48v-16z"/><path d="m-720 40h32v80h-32z"/><path d="m-688 152v16h-32v-16z"/><path d="m-784 40h16 48v80 32 16h-64z"/><path d="m-800 24h16v16 128 64h-16z"/><path d="m-560 232h-16-208v-64h64 32 128z"/><path d="m-464 168h32v32 32h-128v-64z"/><path d="m-432 200h16v16 16h-16z"/><path d="m-576 248h-224v-16h16 208z"/><path d="m-560 232h128 16v16h-160v-16z"/><path d="m-528 248v-16z"/><path d="m-496 232h-32v16h32z"/><path d="m-496 248h-32z"/><path d="m-528 232h32v16h-32z"/><path d="m-752 248v-16z"/><path d="m-720 232h-32v16h32z"/><path d="m-720 248h-32z"/><path d="m-752 232h32v16h-32z"/><path d="m-592-136v-16h16v16z"/><path d="m-592-152h48-32z"/><path d="m-592-280v-16h16v16z"/><path d="m-592-296h48-32z"/><path d="m-320-184h-8v32h8z"/><path d="m-560-360h-16v-16h16z"/><path d="m-704-360h-16v-16h16z"/><path d="m-720-216h-32z"/><path d="m-752-216v-32z"/><path d="m-720-216h-32v-32h32z"/><path d="m-720-248v32z"/><path d="m-752-248h32z"/><path d="m-688 152h-32v-32h32z"/><path d="m-688 120v32z"/><path d="m-688 152h-32z"/><path d="m-720 120h32z"/><path d="m-720 152v-32z"/><path d="m-800 24v64z"/><path d="m-800 184v-16-64-16-64 208 16z"/><path d="m-800 168v-64z"/><path d="m-800 104v-16z"/><path d="m-720-616v16z"/><path d="m-560-600v-16h-32v16z"/><path d="m-720-616v16h32v-16z"/><path d="m-736-584-32 32z"/><path d="m-736-584h16z"/><path d="m-560-584h16z"/><path d="m-560-584v-16z"/><path d="m-720-600v16h32v-16z"/><path d="m-512-424h-32z"/><path d="m-544-424h-16z"/><path d="m-768-424h32z"/><path d="m-736-424h16z"/><path d="m-768-424h32z"/><path d="m-512-552-32-32z"/><path d="m-512-472v-32z"/><path d="m-768-472v-32-48 64 64z"/><path d="m-808 104h8v64h-8z"/><path d="m-496 248v-16z"/><path d="m-720 248v-16z"/><path d="m-320-152h-8z"/><path d="m-328-184h8z"/><path d="m-320-152h-8v-32h8z"/><path d="m-320-184v32z"/><path d="m-328-152v-32z"/><path d="m-560-584h-32 48z"/><path d="m-192-232v128h-16v-128z"/><path d="m-128-232 16 16v96l-16 16h-64v-128z"/><path d="m480-72v-128 48 16 80 48z"/><path d="m544-536v96z"/><path d="m544-440v16z"/><path d="m544-552v16z"/><path d="m720-408h16z"/><path d="m720-568h-16z"/><path d="m704-568h16v160h-16z"/><path d="m720-568h16v160h-16z"/><path d="m720-568v32 96 32z"/><path d="m736-568v32 96 32z"/><path d="m616-616h16v120h-16z"/><path d="m632-480v-16-120h40l32 32v16 160 16h-72z"/><path d="m704-392-32 32h-40v-32z"/><path d="m544-408v-16-16-96-16-16-16-32h72v120 16 88h-72z"/><path d="m616-392v32h-72v-32z"/><path d="m632-480h-16v-16h16z"/><path d="m616-360v-32-88h16v88 32z"/><path d="m544-424h-16z"/><path d="m528-552h-48v-16h64v16z"/><path d="m528-424h16v16h-64v-16z"/><path d="m-800 184v64z"/><path d="m-800 184v-16z"/><path d="m-800 24v64z"/><path d="m-800-168v64z"/><path d="m-800-104v32 32z"/><path d="m-800-296v128z"/><path d="m-592-600h32-64-96 32z"/><path d="m-592-600v-16h-96v16z"/><path d="m-592-616h32-160 32z"/><path d="m-592-584h32z"/><path d="m-592-584v-16h-96v16z"/><path d="m-592-584h32v-16h-32z"/><path d="m-576 248h-128-96z"/><path d="m-576 248h32-16-128-16z"/><path d="m416-8h64z"/><path d="m416-88v-176l64 64v128h-64z"/><path d="m416-72h64v64h-64z"/><path d="m416-264 64 64z"/><path d="m-64-72h-64z"/><path d="m0-72h-64z"/><path d="m32-72h32-64z"/><path d="m256-72h-64z"/><path d="m128-488v128z"/><path d="m352-264h-96z"/><path d="m256-264h-16z"/><path d="m368-264h-16z"/><path d="m368-328h16v64h-16z"/><path d="m192-488h-64v128h64z"/><path d="m224-328h16v64h-16z"/><path d="m240-328v64z"/><path d="m128-360h64z"/><path d="m192-488h-64z"/><path d="m288-88h80 48v16h-160-64v-16z"/><path d="m192-88v-96h96v32 64z"/><path d="m288-88v-64h32 48v64z"/><path d="m320-152v-32h48v32z"/><path d="m208-264h16 16 16 96 16v80h-48-32-96v-64-16z"/><path d="m368-152v-32-80h16 16 16v176h-48z"/><path d="m192-248v64 96h-64v-160z"/><path d="m-32-264v-8h64v8z"/><path d="m-128-104h16l-16 16h-64v-16z"/><path d="m-128-232v-16l16 16v16z"/><path d="m-128-232h-64v-16h64z"/><path d="m-112-120h16l-16 16h-16z"/><path d="m-96-248v32l-16-16-16-16z"/><path d="m-112-216v-16l16 16v96h-16z"/><path d="m32-72h-32-64-64-64v-16h64 160z"/><path d="m112-88h16v16h-64-32v-16z"/><path d="m32-248h80v128h-208v-96-32z"/><path d="m32-248h-128-32-64v-16h144 16 64z"/><path d="m48-264h80v16h-16-80v-16z"/><path d="m112-120v32h-80-160l16-16 16-16z"/><path d="m128-88h-16v-32-128h16z"/><path d="m-208-104h16z"/><path d="m-192-104h64z"/><path d="m-192-232h-16z"/><path d="m-128-232h-64z"/><path d="m-112-120v-96z"/><path d="m-128-104 16-16z"/><path d="m-112-216-16-16z"/><path d="m400-8h-80l-64-64h160v64z"/><path d="m400-8h16z"/><path d="m-736-360h16z"/><path d="m-544-360h-48z"/><path d="m-544-424h32z"/><path d="m-768-424h32 32z"/><path d="m-720-424v64z"/><path d="m-560-424v64z"/><path d="m-560-424h-32v64h32z"/><path d="m-320-264-32-32z"/><path d="m-416 24h-192z"/><path d="m-608 24h-16-32 16z"/><path d="m-608 24h-16z"/><path d="m-352-40 32-32z"/><path d="m-464-296h32 16-64z"/><path d="m-416-296h-16v16 16h16z"/><path d="m-464-296v16h32v-16z"/><path d="m-464-280v-16h-16v32h16z"/><path d="m-464-264v16-32z"/><path d="m-352-40h-128z"/><path d="m-480-296-64-64z"/><path d="m-624-40h16-32-16z"/><path d="m-624-40h16z"/><path d="m-608-40h16 16 32z"/><path d="m-800-40h16z"/><path d="m-800-40h16z"/><path d="m-496-56h-32v16h32z"/><path d="m-480-72h-16v16 16h16z"/><path d="m-544-40h16v-16-16h-16z"/><path d="m-496-72v-16 32z"/><path d="m-528-72v-16h-16v16z"/><path d="m-800-296h64-48z"/><path d="m-800-104h16v-16-32-16h-16z"/><path d="m-784-168v16h16v-16z"/><path d="m-768-120h-16v16h16z"/><path d="m-784-152v32z"/><path d="m-784-152h32-16z"/><path d="m-768-168v16h16v-16z"/><path d="m-624 24v-64z"/><path d="m-624-40h-32v64h32z"/><path d="m-384 56h-16z"/><path d="m-400 216h16v-32h-16z"/><path d="m-416 40v-16z"/><path d="m-416 248v-16z"/><path d="m-416 232v-16z"/><path d="m-416 56v-16z"/><path d="m-416 216h16z"/><path d="m-400 56h-16v32h16z"/><path d="m-48-264h-32v16h32z"/><path d="m-48-264v16z"/><path d="m-80-264h32z"/><path d="m-48-248h-32v-16h32z"/><path d="m80-264h-32v16h32z"/><path d="m80-264v16z"/><path d="m48-264h32z"/><path d="m80-248h-32v-16h32z"/><path d="m240-280v-32-16z"/><path d="m368-328v16 32z"/><path d="m384-328h-16z"/><path d="m384-328h-16v48h16z"/><path d="m384-280v-32-16z"/><path d="m368-280v-32h16v32z"/><path d="m240-328h-16z"/><path d="m240-328h-16v48h16z"/><path d="m224-328v16 32z"/><path d="m224-280v-32h16v32z"/><path d="m528-424h-32-16z"/><path d="m480-568v16z"/><path d="m480-568v16h48v-16z"/><path d="m528-568h-32-16z"/><path d="m528-552h-32v-16h32z"/><path d="m480-424v16z"/><path d="m480-424v16h48v-16z"/><path d="m528-408h-32v-16h32z"/><path d="m320-152h-32v-32h32z"/><path d="m320-184v32z"/><path d="m288-184h32z"/><path d="m288-152v-32z"/><path d="m320-152h-32z"/><path d="m480-136v64 16z"/><path d="m480-552v-16z"/><path d="m480-552h64v16 96 16h-64z"/><path d="m544-424h-16-48z"/><path d="m544-552h-16z"/><path d="m480-552h48 16z"/><path d="m-720-584h-16z"/><path d="m-688-584h-32z"/><path d="m-720-584h32z"/><path d="m-592-584h-96z"/><path d="m-704 248h-96z"/><path d="m-128-72h-58.1818-5.8182z"/><path d="m368-328h16z"/><path d="m184-352h16-72z"/><path d="m200-480v-16 144z"/><path d="m136-368h48v16h-56v-16z"/><path d="m136-416v-16h48v16z"/><path d="m184-368v-48-16-48h16v128h-16z"/><path d="m128-496h8v16 48 16 48h-8z"/><path d="m200-496v16h-16-48v-16z"/><path d="m368-328v64h-16-96-16v-64z"/><path d="m368-264v-64z"/><path d="m0-72h64v8h-64z"/><path d="m-544-584 32 32z"/><path d="m-512-504h-32v32h32z"/><path d="m-768-472v48z"/><path d="m-768-504v32z"/><path d="m144-488h-16v128h16z"/><path d="m176-488h-32v16h32z"/><path d="m144-376v16h32v-16z"/><path d="m144-440v32h32v-32z"/><path d="m192-488h-16v128h16z"/><path d="m144-408h32z"/><path d="m176-440h-32z"/><path d="m176-472v32z"/><path d="m144-472h32z"/><path d="m144-440v-32z"/><path d="m144-376v-32z"/><path d="m176-408v32z"/><path d="m176-376h-32z"/><path d="m184-368h-48v-48h48z"/><path d="m184-432h-48v-48h48z"/><path d="m136-416h48z"/><path d="m136-480h48z"/><path d="m184-480v48z"/><path d="m184-432h-48z"/><path d="m136-432v-48z"/><path d="m184-416v48z"/><path d="m184-368h-48z"/><path d="m136-368v-48z"/><path d="m-624-520h-32v32h32z"/><path d="m480-136v-16z"/><path d="m480-408v-16z"/><path d="m480-552v128z"/><path d="m480-568h64z"/><path d="m480-72h8z"/><path d="m480-136h8v64h-8z"/><path d="m488-136h-8z"/><path d="m488-136v64z"/><path d="m-800 104v64z"/><path d="m-736-584-32 32z"/><path d="m-656-584h32 80-48-96-32z"/><path d="m480-584v16h-16-48v-16z"/><path d="m480-552h-16v-16h16z"/><path d="m464-552h16v128h-16z"/><path d="m416-520v-48h48v16 128 32l-48 48z"/><path d="m480-408v16h-16v-32h16z"/><path d="m464-392h16l-64 64v-16z"/><path d="m480-392-48 48-16 16z"/><path d="m416-568h-48-80v-16h128z"/><path d="m368-568h48v48h-48z"/><path d="m224-520 64-64v16l-48 48z"/><path d="m288-568h80v48h-128z"/><path d="m128-360v-128-8 128 16z"/><path d="m368-328h-128z"/><path d="m224-328h16z"/><path d="m416-520v176h-48v-160-16z"/><path d="m416-344v16h-16-16-16v-16z"/><path d="m216-344h-16v-8-144-8h16z"/><path d="m224-328h-16-8v-16h16 24v16z"/><path d="m200-344v16h-72v-24h72z"/><path d="m224-520h16l-16 16z"/><path d="m240-344h-24v-160h8 144v160z"/><path d="m368-520v16h-144l16-16z"/><path d="m216-504h-16-72v-16h96v16z"/><path d="m200-496h-72v-8h72z"/><path d="m240-344h128v16h-128z"/><path d="m200-496h-64-8z"/><path d="m384-328v64z"/><path d="m-592-360h48-16z"/><path d="m-592-424h32 16-32z"/><path d="m-576-424h32 32z"/><path d="m-688-424h-16-32 16z"/><path d="m-624-504v-16 32z"/><path d="m-624-584v64 16h80 32v-48l-32-32z"/><path d="m-624-504v16 16h80v-32z"/><path d="m-544-472h-80v48h32 16 64v-48z"/><path d="m-512-552v48z"/><path d="m-512-424v-48z"/><path d="m-544-504h32z"/><path d="m-512-472h-32z"/><path d="m-656-504v16-32z"/><path d="m-624-488h-32z"/><path d="m-656-520h32z"/><path d="m-624-520v-64h-32v64z"/><path d="m-656-472v48h32v-48-16h-32z"/><path d="m-736-504h80v-16-64h-64-16l-32 32v48z"/><path d="m-656-488v-16h-80v32h80z"/><path d="m-704-424h16 32v-48h-80-32v48z"/><path d="m-768-552v48z"/><path d="m-768-504h32z"/><path d="m-736-472h-32z"/><path d="m-736-504h-32v32h32z"/><path d="m-592-360v-64h-32-32-32v64z"/><path d="m-688-360v-64h-32v64z"/><path d="m-336-232h-16z"/><path d="m-336-104h-16v32h16z"/><path d="m-432-280h-32z"/><path d="m-432-280v32-16z"/><path d="m-432-248v8h16v-24h-16z"/><path d="m-464-280v32h32v-32z"/><path d="m-432-248h-32v8h32z"/><path d="m-640-40h32 64-112z"/><path d="m-656-40h16-16-96z"/><path d="m-752-40h-32-16 16z"/><path d="m-544-88v-8 56-32z"/><path d="m-528-56h32z"/><path d="m-496-88h-32v32h32z"/><path d="m-544-88h16 32 16v-8h-64z"/><path d="m-528-56v-32 16z"/><path d="m-496-88v16h16v-16z"/><path d="m-752-120v-32h-32v32z"/><path d="m-752-168v16 32 16h8v-64z"/><path d="m-784-120h16 16z"/><path d="m-752-120h-16v16h16z"/><path d="m-752 24h96v-64h-96z"/><path d="m-752-40h-32v64h32z"/><path d="m-400 88v-32 160-32z"/><path d="m-384 88h-16v96h16z"/><path d="m-384 88v-32h-16v32z"/><path d="m-416 184v48-16z"/><path d="m-400 88h-16v96h16z"/><path d="m-416 184v32h16v-32z"/><path d="m-808 168h8v-64h-8z"/><path d="m-808 104h8z"/><path d="m-800 168h-8z"/><path d="m-808 104v64z"/><path d="m-80-264v16z"/><path d="m48-264v16z"/><path d="m128-488h64z"/><path d="m192-360h-64z"/><path d="m128-360v-128z"/><path d="m192-488v128z"/><path d="m192-360h-64v-128h64z"/><path d="m384-312h-16v-16h16z"/><path d="m240-312h-16v-16h16z"/><path d="m496-552h32-48z"/><path d="m480-552v-16h16v16z"/><path d="m480-408v-16h16v16z"/><path d="m496-408h32-48z"/><path d="m480-584v16z"/><path d="m-800 248v-64z"/><path d="m160 440h16-16-16-96-32z"/><path d="m336-584h96 48-64-128z"/><path d="m176 424v16h-16z"/><path d="m48 248h-16z"/><path d="m160 248h-16z"/><path d="m16 232v16-48z"/><path d="m32 248v-16z"/><path d="m160 232v16-32z"/><path d="m176 248h-16v-16h16z"/><path d="m176 232h-16v-16-16h16z"/><path d="m32 248h-16v-16h16z"/><path d="m-320-232v56 16 56z"/><path d="m-688-360h-48 64z"/><path d="m-688-360h-32-16z"/><path d="m-672-360h64 16-96z"/><path d="m-688-360h-48z"/><path d="m-800 24h48z"/><path d="m-752 24h-32-16z"/><path d="m-656 24h16-16-96z"/><path d="m-528 24h112-192-32-16z"/><path d="m-528 24h-128-96 64 128z"/><path d="m-480-96v8z"/><path d="m-416-296h64z"/><path d="m-320-232h-16z"/><path d="m-352-232h16v-32h-16z"/><path d="m-352-264h-32v32h32z"/><path d="m-352-104h-32v32h32z"/><path d="m-416-240v72-64-64z"/><path d="m-416-296v32 24z"/><path d="m-416-240h-16-32-16v8 24 16 24h64z"/><path d="m-480-240h16v-8-16h-16z"/><path d="m-544-360 48 48 16 16z"/><path d="m-752-40h96 112-32-208z"/><path d="m-752-40h-32z"/><path d="m-480-208h-56v16h56z"/><path d="m-536-192h-16-56v24h64 64v-24z"/><path d="m-608-232v24h56 16 56v-24z"/><path d="m-536-208h-16v16h16z"/><path d="m-552-208h-56v16h56z"/><path d="m-480-168h-64v72h64z"/><path d="m-744-104h-8-16-16-16z"/><path d="m-672-296v-64 48 16 128z"/><path d="m-632-144h-16v16h16z"/><path d="m-648-296v152h16v-152z"/><path d="m-672-168v64h24v-24-16-152h-24z"/><path d="m-632-144v16 24h24v-64-24-16-24-64h-24z"/><path d="m-632-128h-16v24h16z"/><path d="m-608-360h-64v64h24 16 24z"/><path d="m-744-104h72v-64h-72z"/><path d="m-416 184v-96z"/><path d="m-416 88v-32-16z"/><path d="m-416 184v-96 32z"/><path d="m-416 184v64-16z"/><path d="m-416 24v64-48z"/><path d="m224 248v48 32 48z"/><path d="m112 344v-32-64h32 16 16 16 32v128l-32 32h-16-64z"/><path d="m80 312v32z"/><path d="m80 312v-64h32v64z"/><path d="m112 408h-32v-64h32z"/><path d="m-32 248h32 16 16 16 32v64 32 64h-64-16l-32-32z"/><path d="m16 424v16z"/><path d="m176 424v-16z"/><path d="m176 424-16 16h-144v-16z"/><path d="m80 408h32 64v16h-160v-16z"/><path d="m176 424h-32-96-32z"/><path d="m112 312v32z"/><path d="m112 344h-32z"/><path d="m80 312h32v32h-32z"/><path d="m80 312h32z"/><path d="m480-8v-48z"/><path d="m480-56v-16z"/><path d="m480-152v-48z"/><path d="m624-360h-32-48 72 16 40z"/><path d="m592-360h32z"/><path d="m592-616h32 48-40-16-72z"/><path d="m624-616h-32z"/><path d="m544-616v32z"/><path d="m544-392v-16z"/><path d="m544-584v16z"/><path d="m544-392v32z"/><path d="m544-616v32z"/><path d="m704-408v16z"/><path d="m704-568v-16z"/><path d="m704-408h16z"/><path d="m736-568h-16z"/><path d="m720-568v32h16v-32z"/><path d="m720-568h-16v32h16z"/><path d="m704-584-32-32z"/><path d="m672-360 32-32z"/><path d="m-800 120v-16-80 64 16 64 16 64z"/><path d="m-800-104v64z"/><path d="m-800-168v-128z"/><path d="m352-584h64 16-96z"/><path d="m432-584h-16z"/><path d="m432-584h32 16z"/><path d="m416-592v8h-64v-8z"/><path d="m416-584v-8z"/><path d="m-416 248h-48-16-64z"/><path d="m-704 248h16-112z"/><path d="m-544 248h64-80z"/><path d="m144 248h-32-32-32z"/><path d="m416-264 64 64z"/><path d="m-186.1818-72h58.1818-56.7273z"/><path d="m0-72h-64z"/><path d="m128-72h-64z"/><path d="m256-72h-64z"/><path d="m128-264v16z"/><path d="m128-88v16z"/><path d="m400-264h16z"/><path d="m416-264h-16z"/><path d="m208-264h16z"/><path d="m192-264h16z"/><path d="m192-264v16 32-16z"/><path d="m192-248v-16z"/><path d="m192-72v-16z"/><path d="m128-88h64z"/><path d="m128-248h64z"/><path d="m192-88v-32h-64v32z"/><path d="m320-8h80z"/><path d="m256-72 64 64z"/><path d="m-192-40v128h-16v-128z"/><path d="m-128-72v6z"/><path d="m0-72v8z"/><path d="m64-72v8z"/><path d="m-64-72v8z"/><path d="m-112-24v96l-16 16v-128z"/><path d="m-128 88h-64v-128h64z"/><path d="m-192-40h64z"/><path d="m32 248v-16-16z"/><path d="m32 216v-16-16z"/><path d="m160 248v-16z"/><path d="m160 184v16 16z"/><path d="m160 184v32 32h-16-96-16v-32-32z"/><path d="m32 216v16h-16v-32h16z"/><path d="m-544-360h-48-16z"/><path d="m-352-296 32 32z"/><path d="m-352-296 32 32z"/><path d="m-464 24h48-112z"/><path d="m-320-72-32 32z"/><path d="m-480-40v-48 16z"/><path d="m-480-296v56-24z"/><path d="m-384-72h32z"/><path d="m-384-232v128z"/><path d="m-384-232h64-16-16z"/><path d="m-416-232v-64z"/><path d="m-384-104v-128-32l-32 32v64 64l32 32z"/><path d="m-416-104 32 32z"/><path d="m-352-40h-64-64z"/><path d="m-544-40h-32z"/><path d="m-608-296v-16-48 64 64z"/><path d="m-608-360v48h112l-48-48z"/><path d="m-480-296-16-16h-112v16z"/><path d="m-800-104h192-24-16-24-72z"/><path d="m-672-296v128z"/><path d="m-736-360v48h64v-48z"/><path d="m-672-312h-64v16h64z"/><path d="m-736-296v-16-48z"/><path d="m-672-168h-72z"/><path d="m-416 88v-64h-48v80 16h48z"/><path d="m-464 104h-16v16h16z"/><path d="m-528 24h-32v80h80 16v-80z"/><path d="m-480 104h-80v16h16 64z"/><path d="m-480 120v64 64z"/><path d="m-480 120v128h16v-128z"/><path d="m-464 120v128h48v-64-64z"/><path d="m-544 152v-32z"/><path d="m-544 120h-16v32h16z"/><path d="m-544 152h-16v96h16z"/><path d="m-688 248v-16z"/><path d="m-560 152v-32-16-80h-128v80 16 32z"/><path d="m-560 152h-128v96h128z"/><path d="m-800 120h96z"/><path d="m-752 24h-48v80h112v-80z"/><path d="m-800 104v16h96 16v-16z"/><path d="m-704 152v-32z"/><path d="m-704 152v96z"/><path d="m-688 120h-16v32h16z"/><path d="m-688 152h-16v96h16z"/><path d="m136-440h-8v32h8z"/><path d="m-560 248h16z"/><path d="m-560 248h16v-128h-16z"/><path d="m-688 248v-112 16z"/><path d="m-704 248h16z"/><path d="m-704 248h16v-128h-16z"/><path d="m-560 232v-32z"/><path d="m-560 232v-32-32-32-16h16v32 96h-16z"/><path d="m704-408v-32 48z"/><path d="m-800 120v128z"/><path d="m-800-104v64z"/><path d="m-800-296v128z"/><path d="m-800-168v-8-112-8z"/><path d="m-528 440h32-64-96-80z"/><path d="m16 248h-16z"/><path d="m176 248h16z"/><path d="m160 184h-128z"/><path d="m64-72h64z"/><path d="m128-88v-32-32 16 64z"/><path d="m192 168v-128 96z"/><path d="m-128-72v6 2z"/><path d="m160-24-32-32v-16l64 64h-16z"/><path d="m176 104v-32-32-48h16v48 128h-16z"/><path d="m96-24h-72-16-40-64l-32-32h64 64 64 32z"/><path d="m128-56 32 32h-64v-32z"/><path d="m96-24h64l16 16v48h-152v-8-16-40z"/><path d="m64-64v-8h64v16h-32-32z"/><path d="m64-56h-64v-8h64z"/><path d="m0-72v8 8h-64v-8-8z"/><path d="m8 40v-8h16v8z"/><path d="m8-24v40 16 8h-40v-64z"/><path d="m24 16h-16v-40h16z"/><path d="m24 32h-16v-16h16z"/><path d="m96 104h80v64h-16-128-32l-48-48-16-16z"/><path d="m8 40h16 152v32h-80-128v-32z"/><path d="m96 104h-160-64l32-32h64 128z"/><path d="m176 72v32h-80v-32z"/><path d="m176 184h-16v-16h16 16v16z"/><path d="m160 168v16h-128v-16z"/><path d="m32 168v16h-16-16v-16z"/><path d="m0 168v16l-64-64h16z"/><path d="m-112-24-16-16v-16l32 32z"/><path d="m-32 40v32h-64v-96h64z"/><path d="m-64 104 16 16h-16-64v-16z"/><path d="m-96 72h-16v-96h16z"/><path d="m-96 72-32 32v-16l16-16z"/><path d="m-64-56h-64v-8h64z"/><path d="m-64 120h-64z"/><path d="m0 184-64-64z"/><path d="m-112-24-16-16z"/><path d="m-64-64h-64v-2-6h64z"/><path d="m-112 72v-96z"/><path d="m-128 88 16-16z"/><path d="m-192 88h-32 16z"/><path d="m-192 88h64z"/><path d="m-208-40h-16 32z"/><path d="m-192-72h7.2727 56.7273v8 8 16h-64z"/><path d="m-128 104v16h-64v-32h64z"/><path d="m176 248v-16-32z"/><path d="m176 200v-16 64z"/><path d="m176 184v16h-16v-16z"/><path d="m32 200h-16v-16h16z"/><path d="m-312-176h-8z"/><path d="m-320-160v-16h8v16z"/><path d="m-352-40 32-32h-16-16-32-32v32z"/><path d="m-480-240v-56h-128v64h128z"/><path d="m-384-264 32-32h-64v64z"/><path d="m-416-104v32h32z"/><path d="m-416-72v-32-64h-64v80 48h64z"/><path d="m-544-168h-64v64h32 32z"/><path d="m-576-104h-32-192v64h224z"/><path d="m-544-96v-8h-32v64h32z"/><path d="m-352-296-32 32h32 16 16z"/><path d="m-480-88v-80 72z"/><path d="m-480-240v8z"/><path d="m-336-72h16z"/><path d="m-352-72h16z"/><path d="m-352-296h-64z"/><path d="m-352-264h-32z"/><path d="m-336-264h-16z"/><path d="m-352-104h-32z"/><path d="m-336-104h-16z"/><path d="m-320-104h-16z"/><path d="m-416-104v-64z"/><path d="m-416-232 32-32z"/><path d="m-480-168h64z"/><path d="m-576-40h-224 16z"/><path d="m-608-232v-64z"/><path d="m-608-104v-64z"/><path d="m-480-232h-128z"/><path d="m-480-296h-128z"/><path d="m-608-168h64z"/><path d="m-544-168v64 8z"/><path d="m-672-296h-64-64z"/><path d="m-744-168h-56 16 16 16z"/><path d="m-560 232v16z"/><path d="m-544 120h64z"/><path d="m-480 184v-64z"/><path d="m-544 152v-32z"/><path d="m-544 152v96z"/><path d="m-688 232v-32z"/><path d="m-560 232v16h-128v-16z"/><path d="m-704 152v96z"/><path d="m-800 376h16l48 48h-16z"/><path d="m-800 312v-48h16v112h-16z"/><path d="m-688 248v16h-96-16v-16z"/><path d="m-464 360h32v48h-64v-48z"/><path d="m-528 440h-208l-16-16h16 176 32z"/><path d="m-496 424h16v16h-16-32v-16z"/><path d="m-432 408v16h-48-16v-16z"/><path d="m-496 328v-16h32v16z"/><path d="m-464 360v-32-16h32v48z"/><path d="m-560 248v16h-128v-16z"/><path d="m-560 424h-176l-48-48v-112h96 128z"/><path d="m-496 264v16 32 16 32 48 16h-32-32v-160z"/><path d="m-480 248v16h-16-64v-16z"/><path d="m-432 280v32h-32-32v-32z"/><path d="m-432 408v-48-48-32-16h16v160h-16z"/><path d="m-480 264h48v16h-64v-16z"/><path d="m-544 248h-16v-112h16z"/><path d="m-704 248v-96-16z"/><path d="m-688 248h-16v-112h16z"/><path d="m-496 360v-32z"/><path d="m-464 360h-32v-32h32z"/><path d="m-496 328h32z"/><path d="m-464 360h-32z"/><path d="m-464 328v32z"/><path d="m-800-296h128z"/><path d="m480-72v-64-16 96z"/><path d="m480-392v-16z"/><path d="m544-392v32z"/><path d="m544-616v32 32-32z"/><path d="m704-440v32z"/><path d="m704-536v96z"/><path d="m736-536h-16v96h16z"/><path d="m720-536h-16v96h16z"/><path d="m720-536v-32 160-32z"/><path d="m736-440h-16v32h16z"/><path d="m704-440v32h16v-32z"/><path d="m544-408h-64z"/><path d="m488-136h-8v64h8z"/><path d="m-560 440h-16-64-16z"/><path d="m-736 440-64-64 48 48z"/><path d="m288-584h16 32z"/><path d="m336-584h16z"/><path d="m128-216v-16 16 16 80z"/><path d="m128-120v32z"/><path d="m128-216v-32-16 32z"/><path d="m384-264h16z"/><path d="m208-264h-16z"/><path d="m400-328h-16z"/><path d="m400-328h16z"/><path d="m384-328h-32z"/><path d="m224-328h-16z"/><path d="m208-328h16-32-32-16-5.3333z"/><path d="m208-328h-69.3333-10.6667 72z"/><path d="m138.6667-328h5.3333v-32h-16v8 24z"/><path d="m224-264v-64z"/><path d="m384-264v-64h-32v64z"/><path d="m192-232v16-48z"/><path d="m128-216v96h64v-96z"/><path d="m192-216v-32h-64v32z"/><path d="m192 40v16 64 16z"/><path d="m192 168v-32z"/><path d="m192 168v16z"/><path d="m-312-160v-16z"/><path d="m-320-176v-56z"/><path d="m-320-104v-56z"/><path d="m-320-160h8z"/><path d="m-320-176v16h8v-16z"/><path d="m-672 200h-16z"/><path d="m-560 232h-128z"/><path d="m-672 200h96 16v32h-128v-32z"/><path d="m136-408h-8z"/><path d="m128-440h8z"/><path d="m136-408h-8v-32h8z"/><path d="m128-408v-32z"/><path d="m136-440v32z"/><path d="m-560 168v-32z"/><path d="m480-24v16-48z"/><path d="m480-152v96z"/><path d="m480-200v16 32z"/><path d="m480-184v-16z"/><path d="m480-408v-16-16 48z"/><path d="m624-360h48z"/><path d="m624-616h48z"/><path d="m592-616h-48z"/><path d="m704-440v-96-48 80 32 80z"/><path d="m704-584v48z"/><path d="m704-536v-32-16z"/><path d="m592-616v32h32v-32z"/><path d="m704-392-32 32z"/><path d="m-656 440h16z"/><path d="m-656 440h-16-32-32z"/><path d="m192 408 32-32z"/><path d="m176 440v-16z"/><path d="m176 440v-16l-16 16z"/><path d="m0 248h-32z"/><path d="m192 248h32z"/><path d="m224 248h-32z"/><path d="m480-8h-64z"/><path d="m480-152h-32z"/><path d="m480-184h-32v32h32z"/><path d="m480-24h-32z"/><path d="m480-56h-32v32h32z"/><path d="m192 184h-16z"/><path d="m128-200v-16z"/><path d="m128-200v48 32z"/><path d="m384-328h16 16-64z"/><path d="m192-216v-16 16 96z"/><path d="m192-216v96z"/><path d="m192-120v32z"/><path d="m192 56v-16z"/><path d="m200 56h-8z"/><path d="m192 120h8z"/><path d="m192 120v-64h8v64z"/><path d="m-560 168v32z"/><path d="m-544 152v96z"/><path d="m-688 152v16 32z"/><path d="m-576 200h-96z"/><path d="m-576 200h16z"/><path d="m-688 168h128v32h-16-96-16z"/><path d="m-704 152v-32h16v16 16 48 32 16h-16z"/><path d="m-32 328v-32-48 128z"/><path d="m-32 296v32z"/><path d="m224 328v-32z"/><path d="m192 408h-16z"/><path d="m16 408h-16z"/><path d="m-32 376 32 32z"/><path d="m16 408v16z"/><path d="m176 424v-16h-32v16z"/><path d="m16 424v16h32v-16z"/><path d="m176 424h-32v16h16z"/><path d="m-576 448v-8z"/><path d="m-640 440v8z"/><path d="m-576 440v8h-64v-8z"/><path d="m-576 448h-64z"/><path d="m-704 152v-32z"/><path d="m608-504v32h32v-32z"/><path d="m480-8v-16z"/><path d="m480-440v16 16z"/><path d="m480-536v-32 16z"/><path d="m480-440v-96-16 16 96 16z"/><path d="m544-360h48z"/><path d="m544-424v32 32z"/><path d="m544-440v32 16-32z"/><path d="m544-552v-32 16 32z"/><path d="m608-504h32z"/><path d="m592-616h-48v32h48z"/><path d="m608-504h32 64v-80h-80-32-48v32 16 32z"/><path d="m704-584-32-32h-48v32z"/><path d="m624-616v32z"/><path d="m672-616 32 32z"/><path d="m592-584v-32z"/><path d="m624-472h16-32z"/><path d="m640-504v32z"/><path d="m704-472v-32h-64v32z"/><path d="m608-472v-32z"/><path d="m592-472h16v-32h-64v32z"/><path d="m624-360v-32z"/><path d="m672-360 32-32v-80h-64-16v80 32z"/><path d="m592-392v-80h-48v32 16 64h48z"/><path d="m624-472h-16-16v80h32z"/><path d="m592-392v32z"/><path d="m624-392h-32v32h32z"/><path d="m544-472v-32-32h-64v96h64z"/><path d="m544-440h-64v32h64z"/><path d="m544-536v-32h-64v32z"/><path d="m416-584v-8h-64v8z"/><path d="m352-584v-8z"/><path d="m416-592h-64z"/><path d="m448-184h32z"/><path d="m416-264v80h32 32v-16z"/><path d="m448-56h32z"/><path d="m448-184h-32v32h32z"/><path d="m480-152h-32-32v64 16 16h32 32z"/><path d="m416-8h64v-16h-32-32z"/><path d="m448-56h-32v32h32z"/><path d="m144-520h16 32 32-96z"/><path d="m368-264h32-16-32z"/><path d="m384-264h32-16-32z"/><path d="m256-264h-32 16z"/><path d="m224-264h16-16-16-16z"/><path d="m256-328h-32z"/><path d="m144-360h-16z"/><path d="m144-488v-32h-16v16 8 8z"/><path d="m352-328h-96v64h96z"/><path d="m256-328h-32v64h32z"/><path d="m192-88v-32 32 16z"/><path d="m256-72h160v-16h-32-160-32v16z"/><path d="m256-120h16v-16-64-16h-16z"/><path d="m336-136h-64v16h80v-16z"/><path d="m272-216v16h64v-16z"/><path d="m352-216h-16v16 64h16z"/><path d="m224-104v-128-32h-32v48 96 32h32z"/><path d="m384-88v-16h-160v16z"/><path d="m416-152v-32-80h-32v32 128 16h32z"/><path d="m384-232v-32h-16-16-96-16-16v32z"/><path d="m384-232v128z"/><path d="m336-136v-64z"/><path d="m272-200v64z"/><path d="m256-120v-96z"/><path d="m384-104h-16-16-128z"/><path d="m256-72 64 64h96v-16-32-16z"/><path d="m416-8h-96 80z"/><path d="m256-72 64 64z"/><path d="m-560 120v16z"/><path d="m-544 120h64z"/><path d="m-688 168v-16-16z"/><path d="m-688 136v-16z"/><path d="m-560 168h-128z"/><path d="m-672 136h-16z"/><path d="m-672 136h96 16v32h-128v-32z"/><path d="m-704 120h-96z"/><path d="m-704 120v32z"/><path d="m16 408h32-48z"/><path d="m-560 120v128z"/><path d="m-688 120v32z"/><path d="m272-136h64z"/><path d="m336-200h-64z"/><path d="m336-200h-64v64h64z"/><path d="m-560 136v-16z"/><path d="m-544 136h-16v-16h16z"/><path d="m-688 136h-16v-16h16z"/><path d="m480-536v16 80z"/><path d="m480-584v48-16-16z"/><path d="m-800-168v-8z"/><path d="m-480 440h-16z"/><path d="m304-584h-16z"/><path d="m304-584h32z"/><path d="m432-584h-16-64-16z"/><path d="m0 248h-32z"/><path d="m224 248h-32-32z"/><path d="m176 248h-32 16 32z"/><path d="m464-584v32z"/><path d="m432-584v32h32v-32z"/><path d="m16 184h-16z"/><path d="m0 184h16 32z"/><path d="m336-584v32z"/><path d="m304-584v32h32v-32z"/><path d="m128-136v64z"/><path d="m128-264v64-16-16z"/><path d="m256-328h96 64-192z"/><path d="m256-328h96z"/><path d="m256-328h-32z"/><path d="m160-520h-16v32h16z"/><path d="m160-360h-16v32h16z"/><path d="m384-232h-16v16 112h16z"/><path d="m224-232v16h32 96 16v-16z"/><path d="m368-216h-16v96 16h16z"/><path d="m352-104v-16h-96-32v16z"/><path d="m224-216v96h32v-96z"/><path d="m128-136v-16-48h8v64z"/><path d="m224-120v-96-16 128z"/><path d="m256-216h16 64 16z"/><path d="m368-232h16-160z"/><path d="m352-120h-80-16z"/><path d="m352-216v80 16z"/><path d="m48-264h80z"/><path d="m-48-264h16z"/><path d="m-178.9091-264h130.9091-144z"/><path d="m192-8v16 32z"/><path d="m192 184v-16-32z"/><path d="m192 136v-16z"/><path d="m128-72 64 64z"/><path d="m-64 120h-64z"/><path d="m0 184-48-48-16-16z"/><path d="m-128 120h-57.6-6.4z"/><path d="m-185.6 120h6.4 1.6 1.6v-32h-16v32z"/><path d="m16 184v16 48z"/><path d="m176 184h-32v64h32z"/><path d="m-672-296v32 96z"/><path d="m-672-168h-128 56z"/><path d="m-480 120h-64-16z"/><path d="m-576 136h16z"/><path d="m-576 136h-96z"/><path d="m-560 104v16 16h-16-96-16v-16-16z"/><path d="m-688 120h-16z"/><path d="m-416 264v32 96 32z"/><path d="m144 408h-96z"/><path d="m48 408h-32z"/><path d="m144 440v-16h-96v16z"/><path d="m144 424v-16h-96v16z"/><path d="m144 424h32-160 32z"/><path d="m48 408h-32v16h32z"/><path d="m-480 424h48 16z"/><path d="m-416 264h-16-48z"/><path d="m-480 264v-16z"/><path d="m-480 264v-16z"/><path d="m-416 424v-32h-64v32z"/><path d="m-480 440v-16z"/><path d="m-544 120v128z"/><path d="m-800 248v16 48z"/><path d="m-800 232v16z"/><path d="m-800 232v-96-16 128z"/><path d="m416-584h16-96z"/><path d="m480-584h-16z"/><path d="m416-520v192z"/><path d="m480-520v-16-48h-16v32 32z"/><path d="m464-520v-32h-32v16 16z"/><path d="m432-536v-16-32h-16v48z"/><path d="m432-520v-16h-16v16z"/><path d="m432-520h-16v192l16-16z"/><path d="m480-392v-48-80h-16-32v176z"/><path d="m432-552v-32z"/><path d="m416-584h-80v32 16h80z"/><path d="m416-536h-80-32-64l-16 16h192z"/><path d="m304-552v16h32v-16z"/><path d="m304-536v-16-32h-16l-48 48z"/><path d="m304-552v-32z"/><path d="m224-520 16-16 48-48z"/><path d="m224-328h192-48-176z"/><path d="m368-472v16 64 16z"/><path d="m288-456v64z"/><path d="m352-456h16v-16h-80v16z"/><path d="m352-456v64h16v-64z"/><path d="m368-376v-16h-16-64v16z"/><path d="m352-392v-64z"/><path d="m272-376h16v-16-64-16h-16z"/><path d="m272-376v-96z"/><path d="m192-360v-48z"/><path d="m192-488v48z"/><path d="m224-488-32-32v32 48h32z"/><path d="m224-360v-48h-32v48 32z"/><path d="m224-408v-32h-32v32z"/><path d="m192-520 32 32z"/><path d="m192-360h-32z"/><path d="m192-520h-32v32h32z"/><path d="m192-360h-32v32h32z"/><path d="m32-272v8z"/><path d="m-32-272h64z"/><path d="m-192-40h16z"/><path d="m-672-264v-32-192h16v16 16 16 176z"/><path d="m-656-216v32 16h-16v-96h16z"/><path d="m-560-216v-32-192h64v160 16 48z"/><path d="m-496-184h-16-48v-32h64z"/><path d="m-560-216v32h-32v-32z"/><path d="m-496-440h-64-8v-16h72z"/><path d="m-568-456h-16-72v-16h160v16z"/><path d="m-512-184h16v16 96 16h-16z"/><path d="m-480-440v-16h32 16v16z"/><path d="m-480-456v16h-16v-16-16-16h16z"/><path d="m-432-424v128 16h-64v-160h16 48z"/><path d="m-352-456v16h-64-16v-16z"/><path d="m-416-280h64v16h-80v-16z"/><path d="m-496-472h-160v-16h160z"/><path d="m-640-184h48 32 48v128h-16-112z"/><path d="m-432-280v16h-16-32-16v-16z"/><path d="m-480-232v64h-16v-16-32-48h16z"/><path d="m-320-160v-16h8v16z"/><path d="m-656-72v-96-16h16v128h-16z"/><path d="m-568-440h-16v-16h16z"/><path d="m-584-440h-8-64v-16h72z"/><path d="m-592-440h8 16 8v192h-32z"/><path d="m-656-216v-48-176h64v192 32z"/><path d="m-592-184h-48-16v-32h64z"/><path d="m-528 104h-32-128-64v-72-16-72h96 16 112z"/><path d="m-512-56h16v16 128 16h-32v-160z"/><path d="m-432-40h16v16 96 16h-16z"/><path d="m-496-40h16 32 16v128h-16-32-16z"/><path d="m-480-56v16h-16v-16-16h16z"/><path d="m-480 104h-16v-16h16z"/><path d="m-528 104h32 16v16h-80v-16z"/><path d="m-784-56h16v72 16 72h-16z"/><path d="m-768 16h16v16h-16z"/><path d="m-752-56h-16-16v-16h48 64 16v16z"/><path d="m-800-72h16v16 160h-16z"/><path d="m-752 16h-16v-72h16z"/><path d="m-752 104h-16v-72h16z"/><path d="m-784 104h16 16 64v16h-112v-16z"/><path d="m-416-280h-2 18 48z"/><path d="m-496-168v96z"/><path d="m-480-56v-16z"/><path d="m-416 88v-16z"/><path d="m-416 72v-96z"/><path d="m-416-24v-16z"/><path d="m-480-40h32z"/><path d="m-320-232v56 16 56-56-16z"/><path d="m-320-232h-64z"/><path d="m-384-104h32 16 16z"/><path d="m-384-232v128z"/><path d="m-800-168h128z"/><path d="m-672-296h-128z"/><path d="m-560 120v-16z"/><path d="m-480 120h-80z"/><path d="m-480 248v-64z"/><path d="m-688 104v16z"/><path d="m-560 104h-128z"/><path d="m-688 120h-16-96z"/><path d="m-32 328v48z"/><path d="m224 328v48z"/><path d="m224 296v-48z"/><path d="m192 408h-48 32z"/><path d="m48 408h96 48-80-32-80z"/><path d="m144 408h32z"/><path d="m224 296h-32v32h32z"/><path d="m0 408-32-32z"/><path d="m-480 248v16z"/><path d="m-352-440v-16z"/><path d="m-464-456v16h112v-16z"/><path d="m-400-456h-64z"/><path d="m-400-440h16 32z"/><path d="m-464-440h64z"/><path d="m-400-264v-16z"/><path d="m-400-280h-64v16h64z"/><path d="m-464-264h64z"/><path d="m-400-280h-64z"/><path d="m-352-280h-48v16h48z"/><path d="m-400-280v16z"/><path d="m-352-264v-16z"/><path d="m-400-264h16 32z"/><path d="m-544 120h-16z"/><path d="m-544 120v16z"/><path d="m-688 120h-16z"/><path d="m-221.5-232h27.5 2-16z"/><path d="m-192-232h2 12.7273z"/><path d="m-190-232h14-1.2727z"/><path d="m-221.5-232h-2.5 30z"/><path d="m-177.2727-232h1.2727v-32h-2.9091-13.0909v16 16z"/><path d="m-192-104h-2-27.5 13.5z"/><path d="m-177.2727-104h-12.7273-2z"/><path d="m-194-104h-30 2.5z"/><path d="m-221.5-104h-2.5v-128h2.5 13.5v128z"/><path d="m-400-280h-18-14z"/><path d="m-418-440h-14 16z"/><path d="m-368-440h-32-32 14z"/><path d="m-368-440h-50 2 64z"/><path d="m-352-280v16z"/><path d="m-592-248h32z"/><path d="m-560-248v32z"/><path d="m-560-216h-32v-32h32z"/><path d="m-592-216v-32z"/><path d="m-560-216h-32z"/><path d="m288-392h64z"/><path d="m352-456h-64z"/><path d="m352-456h-64v64h64z"/><path d="m80 312v16 16z"/><path d="m112 312h-32v32h32z"/><path d="m-800 248v64-64-16z"/><path d="m-800 216v-64-16 96z"/><path d="m-800 136v-16z"/><path d="m-576 440h16z"/><path d="m-640 440h64 16-96z"/><path d="m224 376-32 32z"/><path d="m32 248h16-32-16z"/><path d="m-32 248h64-32z"/><path d="m144 184h32 16z"/><path d="m224-520h144 48-192-32z"/><path d="m128-360v-128z"/><path d="m416-520h-48v48 96 32 16h48z"/><path d="m272-472h96v-48h-144v32 16z"/><path d="m224-520h-32l32 32z"/><path d="m368-344v-32h-96-48v16 16z"/><path d="m272-376v-96h-48v32 32 32z"/><path d="m224-360-16 16h16z"/><path d="m368-328v-16h-144-16l-16 16z"/><path d="m192-488h-48-16 16z"/><path d="m224-440v32z"/><path d="m224-376v-32 48z"/><path d="m224-472v-16 48z"/><path d="m272-472h16 80z"/><path d="m368-376h-80-16z"/><path d="m192-408v-32z"/><path d="m208-344 16-16-32 32z"/><path d="m160-360h-16z"/><path d="m128-488h16z"/><path d="m192-488h-32-16z"/><path d="m192-488h-32z"/><path d="m-176-264h16 32 80-130.9091z"/><path d="m-176-104h-14 12.7273z"/><path d="m-176-104h-1.2727-14.7273v16 16h5.8182 1.4545 8.7273z"/><path d="m192 120v-64-16 96z"/><path d="m192 168v16z"/><path d="m192 136v32z"/><path d="m192 168v16-48z"/><path d="m200 120v-64z"/><path d="m192 56v64h8v-64z"/><path d="m80 248h32 32v-64h-96v64z"/><path d="m48 248v-64h-32v64z"/><path d="m-432-280h14 2z"/><path d="m-400-440v160z"/><path d="m-432-296v16z"/><path d="m-432-424v128z"/><path d="m-432-440v16z"/><path d="m-432-296v-128-16h32v160h-32z"/><path d="m-320-160v56z"/><path d="m-320-160v-16-56 128z"/><path d="m-320-232v56z"/><path d="m-320-176h8z"/><path d="m-320-176v16h8v-16z"/><path d="m-312-160h-8z"/><path d="m-312-176v16z"/><path d="m-320-104h-64z"/><path d="m-672-296v-48-16-80-48z"/><path d="m-672-488h192-16-160z"/><path d="m-416 72v-96-16h32v128h-32z"/><path d="m-384-40v128z"/><path d="m-416 88h-32 16z"/><path d="m-32 248v48z"/><path d="m112 328v-16 32z"/><path d="m192 328h-80v16 64h80l32-32v-48z"/><path d="m112 296v16 16h80v-32z"/><path d="m160 248h-16-32v48h80 32v-48z"/><path d="m224 328h-32z"/><path d="m192 296h32z"/><path d="m112 344h-32z"/><path d="m80 312h32z"/><path d="m112 296v-48h-32v48 16h32z"/><path d="m80 408h32v-64h-32z"/><path d="m0 328h-32z"/><path d="m80 328v-16-16h-80v32z"/><path d="m0 296h80v-48h-32-16-64v48z"/><path d="m0 296h-32z"/><path d="m0 328v-32h-32v32z"/><path d="m80 408v-64-16h-80-32v48l32 32z"/><path d="m-480 296v96z"/><path d="m-480 392v32z"/><path d="m-416 296h-64v96h64z"/><path d="m-416 296v-32h-64v32z"/><path d="m-576 448v-8h-64v8z"/><path d="m-800 152h-8z"/><path d="m-808 216h8z"/><path d="m-808 152h8v64h-8z"/><path d="m-496 440h-16-32-16z"/><path d="m-656 440h96 16-128z"/><path d="m-512 440h16 16z"/><path d="m48 184h16-64z"/><path d="m48 184h96-16-32-32z"/><path d="m48 184h96z"/><path d="m192-360h-48z"/><path d="m144-360h-16 16 16 32z"/><path d="m192-488v80 48-48-32z"/><path d="m-160-264h-16v32h16z"/><path d="m-160-104h32z"/><path d="m-224-104h30 2 2 14 16 32-128z"/><path d="m-224-232v128h-32v-72-56z"/><path d="m-160-104h-16v32h16z"/><path d="m192 8v-16z"/><path d="m192 40v-32z"/><path d="m192 40v32 64z"/><path d="m192 8h-16-16z"/><path d="m192 40v-32h-32v32z"/><path d="m192 136h-32v32h32z"/><path d="m192 168h-32z"/><path d="m-224-40h-32 64z"/><path d="m-224-40h16v128h-16z"/><path d="m-368-280h16-48z"/><path d="m-352-280h-16z"/><path d="m-368-440h16z"/><path d="m-400-440h32z"/><path d="m-368-440h16z"/><path d="m-368-424v-16z"/><path d="m-368-424v128z"/><path d="m-368-280v-16z"/><path d="m-400-440h32v16 128 16h-32z"/><path d="m-672-424v-16 80z"/><path d="m-672-424h-8z"/><path d="m-680-360h8z"/><path d="m-680-424h8v64h-8z"/><path d="m-384 88h-32z"/><path d="m-384 88h32z"/><path d="m-352 88v-16z"/><path d="m-352 72v-96z"/><path d="m-352-24v-16z"/><path d="m-352-24v96 16h-32v-128h32z"/><path d="m-480 296v16 16 64z"/><path d="m-480 296v-32z"/><path d="m-480 392v32z"/><path d="m-400-440h-64v-16h64z"/><path d="m-400-264h-64v-16h64z"/><path d="m-800 376v-48-16z"/><path d="m-736 440h32z"/><path d="m128 184h16 48z"/><path d="m128-264v64z"/><path d="m128-136v-64-64 176 16z"/><path d="m136-200v64z"/><path d="m128-200h8z"/><path d="m136-136h-8z"/><path d="m128-200v64h8v-64z"/><path d="m48-264h80z"/><path d="m-128-136v-16z"/><path d="m-96-232-32-32v32 32 16h32z"/><path d="m-96-184h-32v32h32z"/><path d="m-96-152h-32v16 32 32l32-32z"/><path d="m-128-232h-32z"/><path d="m-128-264h-32v32h32z"/><path d="m-128-104h-32v32h32z"/><path d="m144-56 32 32 16 16-64-64z"/><path d="m176-24h-16v16 16h16z"/><path d="m128-8h16v-16-32l-16-16z"/><path d="m192-8-16-16v32h16z"/><path d="m144-24h16 16l-32-32z"/><path d="m144-8h16v-16h-16z"/><path d="m192 40h-16v32h16z"/><path d="m176 40h-16v16 16h16z"/><path d="m128 88v16l16-16v-16-16h-16z"/><path d="m128 136h16v-48l-16 16z"/><path d="m160 56h-16v16h16z"/><path d="m144 88v48h16 32v-64h-16-16-16z"/><path d="m160 168v-32h-16-16v32z"/><path d="m192 184v-16h-32-32v16z"/><path d="m0 184h64 32v-48h-144z"/><path d="m96 136v48h32v-16-32-32z"/><path d="m128 88-32 32v16l32-32z"/><path d="m96 136v-16h-160l16 16z"/><path d="m128 56v16 16z"/><path d="m160-8h-16 8z"/><path d="m160 40v-32-16 64z"/><path d="m-64 120h160-224z"/><path d="m176 40h16-32z"/><path d="m160 136h32z"/><path d="m-128 120h-51.2-6.4z"/><path d="m-480-264v32z"/><path d="m-448-264h-32z"/><path d="m-352-264h-96 16z"/><path d="m-448-264h96-96-32z"/><path d="m-448-456h96-80z"/><path d="m-368-280h16z"/><path d="m-368-440h16z"/><path d="m-352-456v16z"/><path d="m-336-440v160z"/><path d="m-368-296v-128-16h16 16v160h-16-16z"/><path d="m-352 88h32z"/><path d="m-352-40h-32z"/><path d="m-352 72v-96-16h32v128h-32z"/><path d="m-736 320v-8h-64v16h64z"/><path d="m-736 440h32v-32-80h-32-64v48z"/><path d="m-672 328h-32v80h32z"/><path d="m-672 320h-64v8h32 32z"/><path d="m-544 440v-32-80h-64-64v80 32z"/><path d="m-512 328h-32v80h32z"/><path d="m-608 328v-8-8h-64v8 8z"/><path d="m-544 320h-64v8h64z"/><path d="m-480 424v-32-64h-32v80 32h32z"/><path d="m-512 328h32v-16h-64v8 8z"/><path d="m-544 320v-8z"/><path d="m-672 320v-8z"/><path d="m-608 312h-64z"/><path d="m-672 408v32z"/><path d="m-544 440v-32z"/><path d="m-480 264v32z"/><path d="m-480 424v16z"/><path d="m-512 408v32z"/><path d="m-544 408v32h32v-32z"/><path d="m-704 440v-32z"/><path d="m-704 408v32h32v-32z"/><path d="m152-8h-8z"/><path d="m152 56h-8 16z"/><path d="m160-8h-8v64h8z"/><path d="m152-8h-8-8v64h8 8z"/><path d="m-177.6-72h1.6-8.7273-7.2727z"/><path d="m-176-72h48-32z"/><path d="m-128-72h-32z"/><path d="m128-264v-16-48 80 32 96 32z"/><path d="m192-488h-48z"/><path d="m192-360h-48z"/><path d="m144-360h-16z"/><path d="m192-360v-48z"/><path d="m192-488v48 32z"/><path d="m128-264h-80-16z"/><path d="m32-264h16z"/><path d="m-32-264h-16-80z"/><path d="m112-440v-64-16h16v32 128 32 48h-16z"/><path d="m112-520v16h-64-32-80v-16z"/><path d="m48-280h-16-64-144v-16-128-16h48 144 32z"/><path d="m112-440v160h-64v-160z"/><path d="m112-504v64h-64v-32-32z"/><path d="m16-504h32v32h-32z"/><path d="m16-504v32 32h-144l64-64z"/><path d="m48-280h64 16v16h-96v-8-8z"/><path d="m32-272h-64v-8h64z"/><path d="m-128-456 64-64v16l-64 64z"/><path d="m-128-440h-48-16v-16h64z"/><path d="m-192-440h16v16h-80v-16z"/><path d="m-256-424h80v128h-80z"/><path d="m-176-280h144v8 8h-96-64v-16z"/><path d="m-176-296v16h-16-64v-16z"/><path d="m-192-280h-64z"/><path d="m-32-264v-8z"/><path d="m-32-272h64z"/><path d="m-96-152v48z"/><path d="m-96-184v32z"/><path d="m-96-232v48z"/><path d="m-96-104-32 32z"/><path d="m-128-152v-32z"/><path d="m-128-152v-32z"/><path d="m-96-232-32-32z"/><path d="m-128-232h-32-16-14-2-2-30-32z"/><path d="m-128-104h-112-16z"/><path d="m128-72v48 16z"/><path d="m128-8h8 8z"/><path d="m144 56h8z"/><path d="m128 56h16-8z"/><path d="m96 120h-16-144-16-48z"/><path d="m96 120 32-32z"/><path d="m-256 88v-128h32v128z"/><path d="m-128 120h-49.6-1.6z"/><path d="m-480-72h-16z"/><path d="m-672-72h-64z"/><path d="m-656-72h-16z"/><path d="m-480-232v64z"/><path d="m-480-232v32 32z"/><path d="m-480-488v32z"/><path d="m-352-264h16 80-192z"/><path d="m-352-456h-96z"/><path d="m-256-424h-16v-16h16z"/><path d="m-272-424h16v128h-16z"/><path d="m-272-440h-64v-16h80v16z"/><path d="m-336-440h64v16 128 16h-64z"/><path d="m-336-440h-16v-16h16z"/><path d="m-256-280h-16v-16h16z"/><path d="m-336-264v-16h64 16v16z"/><path d="m-336-264h-16v-16h16z"/><path d="m-352-280h16z"/><path d="m-336-440h-16z"/><path d="m-256-232v56h-24-16-8v-56z"/><path d="m-320-232h16v56 72h-16z"/><path d="m-280-160h-16v-16h16z"/><path d="m-296-104v-56h16v56z"/><path d="m-256-104h-24v-56-16h24z"/><path d="m-296-176v16 56h-8v-72z"/><path d="m-256-232h-48-16 16z"/><path d="m-672-488v48z"/><path d="m-672-440v-48z"/><path d="m-672-344v-16z"/><path d="m-672-344v48z"/><path d="m-800-296h128z"/><path d="m-672-168h-128z"/><path d="m-656-168h-16z"/><path d="m-480-168h-16z"/><path d="m-656-168v96z"/><path d="m-496-168h-32v96h32z"/><path d="m-256 88h-64z"/><path d="m-320 88v-128z"/><path d="m-256 88h-64v-128h64z"/><path d="m-608 312v8z"/><path d="m-544 312h64z"/><path d="m-608 312h-64z"/><path d="m-736 312v8z"/><path d="m-800 312h64z"/><path d="m-352-440h-32v-16h32z"/><path d="m-384-456h-16 48z"/><path d="m-384-440h-16v-16h16z"/><path d="m-352-264h-32v-16h32z"/><path d="m-384-280h-16 48z"/><path d="m-384-264h-16v-16h16z"/><path d="m16-440v-32z"/><path d="m48-440h-32z"/><path d="m48-472v32z"/><path d="m48-440h-32v-32h32z"/><path d="m16-472h32z"/><path d="m128 56v16z"/><path d="m136-8v64z"/><path d="m-800 216v16z"/><path d="m-800 152v-16z"/><path d="m80-520h-16z"/><path d="m-16-520h80 16 48-16-176z"/><path d="m128-216v16 64 16z"/><path d="m128-88v16z"/><path d="m-96-120v-16-80-16 48 32 48z"/><path d="m-96-232v16z"/><path d="m80 120h-16-128z"/><path d="m-176 88h-16z"/><path d="m-176-40v-32h-1.6-14.4v32z"/><path d="m-176 120h-1.6 49.6-32z"/><path d="m-656-168h32-48-128 128z"/><path d="m-800 312h64-32z"/><path d="m-800 152h-8v64h8z"/><path d="m-808 152v64z"/><path d="m-800 248v-16z"/><path d="m-800 152v64 16z"/><path d="m0-520h64-80z"/><path d="m64-520v-8z"/><path d="m0-528v8z"/><path d="m64-520h-64v-8h64z"/><path d="m128-120v32z"/><path d="m128-136v-64h64v64z"/><path d="m128-200h64z"/><path d="m-96-200v-16 80z"/><path d="m-96-216v16z"/><path d="m-128-200v16z"/><path d="m-128-136v32z"/><path d="m-96-200h-32z"/><path d="m-128-136h32z"/><path d="m-128-152v-32-16h32v64h-32z"/><path d="m136 56h-8z"/><path d="m-64 120h-16z"/><path d="m64 128v-8z"/><path d="m64 120v8h-128v-8z"/><path d="m64 128h-128z"/><path d="m-160 88h32z"/><path d="m-160 88h32-48z"/><path d="m-160-72h-16v32h16z"/><path d="m-160 88h-16v32h16z"/><path d="m-528-72h48-16z"/><path d="m-624-72h-32 16z"/><path d="m-672-424v-16z"/><path d="m-672-424v64 16z"/><path d="m-680-360h8v-64h-8z"/><path d="m-680-424v64z"/><path d="m-624-168h-32z"/><path d="m-528-168h-96v96h96z"/><path d="m-624-168h-32v96h32z"/><path d="m-800-288v-8z"/><path d="m-800-176v-112z"/><path d="m-800-296h48 32 48z"/><path d="m-800-296v8 112 8z"/><path d="m-128-72h-48-1.6 1.6 16z"/><path d="m192-440h-8v32h8z"/><path d="m192-408h-8z"/><path d="m-128 88v-48z"/><path d="m-96 40h-32v48 32l32-32z"/><path d="m-96 8h-32v32h32z"/><path d="m-96-40-32-32v32 48h32z"/><path d="m-128 120 32-32z"/><path d="m-128-72 32 32z"/><path d="m-128-40h-32z"/><path d="m-128-72h-32v32h32z"/><path d="m-128 88h-32v32h32z"/><path d="m-528-72h-96-16 16z"/><path d="m-528-72h-16 64z"/><path d="m-672-296v-48z"/><path d="m-528-168h32 16z"/><path d="m-624-168h96z"/><path d="m-624-168h96z"/><path d="m-544 312h-64v8h64z"/><path d="m-672 312h-64v8h64z"/><path d="m-720-248h-32v32h32z"/><path d="m-800 312v-64z"/><path d="m-800 120v16 16 80 16z"/><path d="m-800 88v-128-32 176 16z"/><path d="m-800-200v-96 128z"/><path d="m-544 248h-64-16 80 16z"/><path d="m-256-264v-16-32z"/><path d="m-256-264v-16z"/><path d="m-256-456v16z"/><path d="m-192-440v-16z"/><path d="m-192-280v16z"/><path d="m-192-456h64z"/><path d="m-192-440h-64z"/><path d="m-192-280v-32h-64v32z"/><path d="m-128 8v-48z"/><path d="m-128 40v-32z"/><path d="m-96 8v32z"/><path d="m-96 56v-16 48z"/><path d="m-96-8v-32 48z"/><path d="m-192 88h-64 32z"/><path d="m-128-40h-32-16z"/><path d="m-576-72h32 16-96 16z"/><path d="m-608-72h-16-16-16-16-64-48-16z"/><path d="m-448-264h-32z"/><path d="m-256-264h-32-160z"/><path d="m-480-456h32z"/><path d="m-256-456h-80-16-96z"/><path d="m-512-200h-16-96-16z"/><path d="m-672-488v48 16 80 48z"/><path d="m-640-488h128 32-192z"/><path d="m-640-424v160 64-32z"/><path d="m-480-456v-32h-32v32 32 160h32z"/><path d="m-512-264v64h32v-32-32z"/><path d="m-512-456v-32h-128v32z"/><path d="m-624-440v16h16 64v-16z"/><path d="m-528-440h-16v16 64h16z"/><path d="m-608-360v-64h-16v64z"/><path d="m-544-360h-64-16v16h96v-16z"/><path d="m-544-296h16v-16h-80v16z"/><path d="m-608-232v-64-16h-16v96h16z"/><path d="m-544-232h-64v16h64z"/><path d="m-544-296v64 16h16v-80z"/><path d="m-512-456v32z"/><path d="m-624-312v80 16z"/><path d="m-624-344h96z"/><path d="m-544-424h-64z"/><path d="m-544-360v-64z"/><path d="m-608-424v64z"/><path d="m-608-360h64z"/><path d="m-544-296h-64z"/><path d="m-608-232h64z"/><path d="m-608-296v64z"/><path d="m-544-232v-64z"/><path d="m-544-216h-64-16 96z"/><path d="m-640-424v-32-32h-32v192 32h32z"/><path d="m-672-264v64h32v-64z"/><path d="m-720-248v32z"/><path d="m-672-200v-64-32h-48v48 32 16z"/><path d="m-752-216v-32z"/><path d="m-752-248h32z"/><path d="m-720-296h-32v48h32z"/><path d="m-720-216h-32z"/><path d="m-752-216v16h32v-16z"/><path d="m-752-216v-32-48h-48v96h48z"/><path d="m-480-168h-48z"/><path d="m-624-168h96 48v-32h-32-128-32v32z"/><path d="m-720-200h-32-48v32h128v-32z"/><path d="m-480 184v64z"/><path d="m-480 120v64-64-16z"/><path d="m-480 104v-16z"/><path d="m-480-40v-16z"/><path d="m-448-40h32-16z"/><path d="m-448-40h-32v128h32z"/><path d="m-480 88h32z"/><path d="m-512 88h-32z"/><path d="m-576-72h-32-192v32h32 192z"/><path d="m-544-40h32 32v-16-16h-64-32v32z"/><path d="m-480-40h-32v128h32z"/><path d="m-768-40h-32v128h32z"/><path d="m-544-40h-32-192z"/><path d="m-544 120h-32-192z"/><path d="m-576 88h-192-32v32h32 192z"/><path d="m-544 120h32 32v-16-16h-32-32-32v32z"/><path d="m-512 120v32 96z"/><path d="m-480 184v-64h-32v128h32z"/><path d="m-608 152h64 16-16-80z"/><path d="m-736 152h64 16-96z"/><path d="m-624 152v96z"/><path d="m-544 168v64z"/><path d="m-528 152h-16v16 64 16h16z"/><path d="m-608 152v16h64v-16z"/><path d="m-544 232h-64v16h64z"/><path d="m-608 232v-64-16h-16v96h16z"/><path d="m-672 168v64z"/><path d="m-656 152h-16v16 64 16h16z"/><path d="m-736 152v16h64v-16z"/><path d="m-672 232h-64v16h64z"/><path d="m-752 152v96z"/><path d="m-736 232v-64-16h-16v96h16z"/><path d="m-768 120h-32v128h32z"/><path d="m-480 248v64-16-32z"/><path d="m-800 248v64h32v-32-32z"/><path d="m-512 248v32 32h32v-64z"/><path d="m-544 280h-224v32h32 64 64 64z"/><path d="m-512 312v-32h-32v32z"/><path d="m-768 248v32z"/><path d="m-512 280h-32z"/><path d="m-480 312h-32-32z"/><path d="m-608 312h64z"/><path d="m-736 312h64z"/><path d="m-608 168v64z"/><path d="m-544 168h-64z"/><path d="m-608 232h64z"/><path d="m-544 168h-64v64h64z"/><path d="m-736 168v64z"/><path d="m-672 168h-64z"/><path d="m-736 232h64z"/><path d="m-672 168h-64v64h64z"/><path d="m-656 248h-16-64-16z"/><path d="m184-408v-32z"/><path d="m192-440v-48z"/><path d="m192-408v-32-48z"/><path d="m192-408h-8v-32h8z"/><path d="m184-440h8z"/><path d="m-640-456v32z"/><path d="m-624-456h96 16-128z"/><path d="m-528-440v80 16z"/><path d="m-528-232v-80 16 80z"/><path d="m-512-424v-32h-16v16 96 32 80h16z"/><path d="m-528-232v16 16h16v-32z"/><path d="m-512-424v192 32-64z"/><path d="m-624-344v-16-64-16z"/><path d="m-624-440h80 16z"/><path d="m-624-456v16h96v-16z"/><path d="m-624-312h16 80z"/><path d="m-624-344v32h96v-32z"/><path d="m-528-216h-96v16h96z"/><path d="m-624-312v-32-96-16h-16v32 192h16z"/><path d="m-640-232v32h16v-16-16z"/><path d="m-544 88h32z"/><path d="m-544 88h-32-48-32-48-32-32 192z"/><path d="m-576 88h-48z"/><path d="m-768 88h32z"/><path d="m-704 88h48z"/><path d="m-576 88v-48z"/><path d="m-544 40h-32v48h32z"/><path d="m-576 40 16-32z"/><path d="m-576 40h32l-16-32z"/><path d="m-544 40-16-32z"/><path d="m-656 88v-48z"/><path d="m-624 40h-32v48h32z"/><path d="m-624 40-16-32z"/><path d="m-656 40h32l-16-32z"/><path d="m-656 40 16-32z"/><path d="m-736 88v-48z"/><path d="m-704 40h-32v48h32z"/><path d="m-736 40 16-32z"/><path d="m-736 40h32l-16-32z"/><path d="m-704 40-16-32z"/><path d="m-512 120h-32z"/><path d="m-768 152v-32 128z"/><path d="m-544 120h-224v32h16 96 32 80z"/><path d="m-528 152h16v-32h-32v32z"/><path d="m-528 152v96z"/><path d="m-512 152h-16v96h16z"/><path d="m-656 152v96z"/><path d="m-624 152h-32v96h32z"/><path d="m-752 152h-16v96h16z"/><path d="m-512 248v32z"/><path d="m-544 280h-224z"/><path d="m-544 248h-80-32-96-16v32h224z"/><path d="m-512 280v-32h-16-16v32z"/><path d="m-256-408v-32 16z"/><path d="m-256-408v-16 16 96z"/><path d="m0-520h-16z"/><path d="m0-528v8h64v-8z"/><path d="m64-528h-64z"/><path d="m128-216v-32z"/><path d="m128-216v16z"/><path d="m128-136v-64z"/><path d="m128-136v16z"/><path d="m192-136v-64z"/><path d="m128-136h64z"/><path d="m128-200v64h64v-64z"/><path d="m-192-408v-32z"/><path d="m-192-312v32 16z"/><path d="m-192-312v-96h-64v96z"/><path d="m-192-408v-32h-64v32z"/><path d="m128-88h-16z"/><path d="m-96-136v16z"/><path d="m-128-200v-32z"/><path d="m-128-200v48 16z"/><path d="m-96-200h-32v64h32z"/><path d="m-128-40v128-48-32z"/><path d="m128 56v-64z"/><path d="m128-8v64h8v-64z"/><path d="m128-8h8z"/><path d="m136 56v-64z"/><path d="m-64 120h128-144z"/><path d="m-80 120h-48z"/><path d="m-64 128v-8z"/><path d="m64 128v-8h-128v8z"/><path d="m-192 88h-16-48z"/><path d="m-128-40h-48-16z"/><path d="m-528-312v16h-16-64v-16z"/><path d="m-528-344h-16v-16-64-16h16z"/><path d="m-608-344v-16h64v16z"/><path d="m-544-424h-64v-16h64z"/><path d="m-624-440h16v16 64 16h-16z"/><path d="m-624-312h16v16 64 16h-16z"/><path d="m-528-216h-16v-16-64h16z"/><path d="m-608-216v-16h64v16z"/><path d="m-320-40h64z"/><path d="m-256-40h-64z"/><path d="m-560 8 16 32h-32z"/><path d="m-640 8 16 32h-32z"/><path d="m-720 8 16 32h-32z"/><path d="m-256-312v48z"/><path d="m-256-312v-96z"/><path d="m-16-520h-48z"/><path d="m80-520h-16-64-16z"/><path d="m128-520h-48z"/><path d="m128-136v-64-16 16 80z"/><path d="m-192-456v16 32z"/><path d="m-192-408v96z"/><path d="m128-120h-16z"/><path d="m-96-120v16z"/><path d="m-96-216v16 64z"/><path d="m128 56v-64-16 96z"/><path d="m128-24v16z"/><path d="m128 72v16z"/><path d="m80 120h-16z"/><path d="m-80 120h144 16 16-224z"/><path d="m96 120h-16z"/><path d="m-128 120 32-32z"/><path d="m-704 88h48 32 48 32 32-32-192z"/><path d="m-624 40v48z"/><path d="m-544 40v48z"/><path d="m-576 40h32v48h-32z"/><path d="m-704 40v48z"/><path d="m-656 40h32v48h-32z"/><path d="m-736 40h32v48h-32z"/><path d="m-176-184h-32v32h32z"/><path d="m-176 8h-32v32h32z"/><path d="m-256-456v48-16-16z"/><path d="m64-520h64-48-96-48z"/><path d="m112-72h-32-32-64-32-32z"/><path d="m128-328v-32z"/><path d="m128-488v-32z"/><path d="m128-488v32z"/><path d="m128-328v32 48z"/><path d="m192-488h-48z"/><path d="m144-488h-16z"/><path d="m192-360h-48z"/><path d="m192-408v-80 128z"/><path d="m-80-72v-16h-16-16l-16 16z"/><path d="m-240-152v-80h-16v128h16z"/><path d="m-96-88v-16l-16 16z"/><path d="m-128-136v-16h-48-32-32v48h112z"/><path d="m-176-232h-32v48h32z"/><path d="m-208-184v-48h-32v80h32z"/><path d="m-128-200v-32h-48v48 32h48z"/><path d="m-80-232h-16v128 16h16z"/><path d="m-80-296v-32h-16v96h16z"/><path d="m-128-456h-64v128 64h64z"/><path d="m-96-328v-16-112h-32v192l32 32z"/><path d="m112-88v16h16v-16z"/><path d="m128-200h-16v80h16z"/><path d="m112-216 16 16v-16z"/><path d="m112-216-32-32-16-16h-16l64 64h16z"/><path d="m48-264h16v-32-32h-16z"/><path d="m80-248 32 32v-32z"/><path d="m-80-328h128 16v-16h-160v16z"/><path d="m64-344v-112h-160v112z"/><path d="m-96-456h160v-64h-128l-64 64z"/><path d="m128-328v-32-96-32-32h-64v64 112 16 32h64z"/><path d="m64-296v32l16 16h32 16v-48z"/><path d="m112-88v-32-80 128z"/><path d="m-80-296v64 144 16-160z"/><path d="m-128-264h-64z"/><path d="m-192-456v48 96-16z"/><path d="m-192-328v16 48z"/><path d="m-64-520-64 64z"/><path d="m112-248v32h16v-32z"/><path d="m112-120v32h16v-32z"/><path d="m112-216h16z"/><path d="m128-248h-16z"/><path d="m-96-232v16 80 16 16z"/><path d="m-112-88 16-16-32 32z"/><path d="m-128-264 32 32z"/><path d="m-240-232h32 32 48-128z"/><path d="m-176-184v32z"/><path d="m-176-152h-32z"/><path d="m-208-184h32z"/><path d="m-208-152v-32z"/><path d="m-208 40v-32-48h-48v128h48z"/><path d="m-208 40v48h16 16v-48z"/><path d="m-64 56h-16-16v32h32z"/><path d="m-128-40h-48v48 32 48h48z"/><path d="m-208-40v48h32v-48z"/><path d="m-64-8h-16v64h16z"/><path d="m-64-40h-16-16v32h16 16z"/><path d="m-96-40h16v-32h-48z"/><path d="m48 56h-64-16v16h96v-16z"/><path d="m96 120v-32h-160-32l-32 32z"/><path d="m-16 56v-64-16h-16v80z"/><path d="m-16-24v16h64v-16z"/><path d="m64-24h-16v16 64h16z"/><path d="m-64-40h160 32v-32h-16-192v32z"/><path d="m128 72v-96-16h-32v128 32l32-32z"/><path d="m96-40v16 112z"/><path d="m96 88h-32-96-32z"/><path d="m-32 72v-16-80z"/><path d="m-16-24h64 16-96z"/><path d="m128-72v32 16z"/><path d="m-96 88v-32z"/><path d="m-96-8v-32z"/><path d="m-96 56h16z"/><path d="m-80-8h-16z"/><path d="m-80 56v-64h-16v16 32 16z"/><path d="m128 88-32 32z"/><path d="m-96-40-32-32z"/><path d="m-128 88h-48-16 16z"/><path d="m-208-40h32 48-64-64z"/><path d="m-208 40v-32z"/><path d="m-176 40h-32z"/><path d="m-208 8h32z"/><path d="m-176 8v32z"/><path d="m-480-296v-128-32 192z"/><path d="m-288-456h32-192z"/><path d="m-288-424v16 96 16z"/><path d="m-256-312v-96-48h-32v32 128 32h32z"/><path d="m-288-296h-144-16z"/><path d="m-448-424h160v-32h-160-32v32z"/><path d="m-448-424v128z"/><path d="m-320-408h-16v16 64 16h16z"/><path d="m-400-408v16h64v-16z"/><path d="m-400-328v-64-16h-16v96h16z"/><path d="m-336-328h-64v16h64z"/><path d="m-416-408v96z"/><path d="m-320-408v96z"/><path d="m-400-408h64 16-96z"/><path d="m-400-392v64z"/><path d="m-336-328v-64z"/><path d="m-336-312h-64-16 96z"/><path d="m-448-296v-128h-32v128z"/><path d="m-448-264h160v-32h-160-32v32z"/><path d="m-304-232h-16v128h16z"/><path d="m-256-232h-48v128h48z"/><path d="m-320-232v16 32 32 32 16z"/><path d="m-256-104h-48-16 16 8 16z"/><path d="m-384-232h64z"/><path d="m-384-104v-128z"/><path d="m-448-40v128z"/><path d="m-416 88h160v-128h-64-64-32-32v128z"/><path d="m-256 88h-160 32 32 32z"/><path d="m-384-40h64-32z"/><path d="m-416-40h32z"/><path d="m-496 88h-16v-128h16z"/><path d="m-544-40h-224v-16h224z"/><path d="m-512-56v16h-32v-16z"/><path d="m-544 152h-224v-32h224z"/><path d="m-512 120v32h-32v-32z"/><path d="m-496 120h-16v-32h16z"/><path d="m-544 120h-224v-32h32 192z"/><path d="m-512 88v32h-32v-32z"/><path d="m-768 88h-16v-128h16z"/><path d="m-768 120h-16v-32h16z"/><path d="m-512 88v-128z"/><path d="m-768-40v128z"/><path d="m-512-40h-32z"/><path d="m-16 56h64z"/><path d="m48-8h-64z"/><path d="m48 56v-64z"/><path d="m-16-8v64z"/><path d="m48-8h-64v64h64z"/><path d="m-400-328h64z"/><path d="m-336-392h-64z"/><path d="m-336-392h-64v64h64z"/><path d="m128-456v96z"/><path d="m144-360h48v-128h-48-16v32 96z"/><path d="m192-488h-48z"/><path d="m48-104v32z"/><path d="m80-104h-32v32h32z"/><path d="m80-104-16-32-16 32z"/><path d="m80-104-16-32z"/><path d="m48-104 16-32z"/><path d="m-48-104v32z"/><path d="m-16-72v-32h-32v32z"/><path d="m-16-104-16-32-16 32z"/><path d="m-48-104 16-32z"/><path d="m-16-104-16-32z"/><path d="m-64-40v32 64 32z"/><path d="m-32-40h128-160z"/><path d="m64-24h32v-16h-128v16z"/><path d="m64-24v80 16z"/><path d="m96-24h-32v96 16h32z"/><path d="m64 72h-96z"/><path d="m64 88v-16h-96v16z"/><path d="m-32 72v-96-16h-32v128h32z"/><path d="m-432-424h16 128-160z"/><path d="m-320-408h32v-16h-128v16z"/><path d="m-320-408v96h32v-96z"/><path d="m-416-408v-16h-16v112h16z"/><path d="m-288-296v-16h-32-96-16v16z"/><path d="m-432-312v-112h-16v128h16z"/><path d="m-384-232h64z"/><path d="m-320-104h-64z"/><path d="m-320-152h-64v32h64z"/><path d="m-320-216h-64v32h64z"/><path d="m-384-120v16z"/><path d="m-384-184v32z"/><path d="m-320-152v-32z"/><path d="m-320-216v-16z"/><path d="m-384-120v-32-32-32-16 128z"/><path d="m64-136 16 32h-32z"/><path d="m-32-136 16 32h-32z"/><path d="m-48-72h-32z"/><path d="m-16-72h-32z"/><path d="m48-72h-64z"/><path d="m80-72h-32z"/><path d="m-16-104v32z"/><path d="m80-104v32z"/><path d="m48-104h32v32h-32z"/><path d="m-16-104v32h-32v-32z"/><path d="m-384-232v16z"/><path d="m-320-104v-16z"/><path d="m-320-120v-32-32-32-16 128z"/><path d="m-320-184h-64z"/><path d="m-384-216h64z"/><path d="m-320-184h-64v-32h64z"/><path d="m-384-152h64z"/><path d="m-320-120h-64z"/><path d="m-320-120h-64v-32h64z"/><path d="m64-344v16h-16-128v-16z"/><path d="m112-216-48-48v-64h48z"/><path d="m48-264h16l48 48v16z"/><path d="m112-200h16v128h-16z"/><path d="m48-328h16v64h-16z"/><path d="m128-200h-16v-16z"/><path d="m-48-72h32 64 32 32v16h-192v-16z"/><path d="m-96-328h16v32 64h-16z"/><path d="m-96-232h16v160h-16z"/><path d="m112-72h-32z"/><path d="m48-328h-128z"/><path d="m48-328v64z"/><path d="m48-264 64 64z"/><path d="m-80-328v32z"/><path d="m-320-88h-64v-16h64z"/><path d="m-320-232h-64v-16h64z"/><path d="m-400-232h16v128h-16z"/><path d="m-320-232h16v128h-16z"/><path d="m-384-232v16 32 32 32 16z"/></g></defs><path d="m-914-722h1756v1276h-1756z" fill="#fff"/><g stroke="#000"><use fill="none" stroke-miterlimit="0" stroke-width="15" xlink:href="#a"/><use fill="#fff" xlink:href="#a"/></g></svg>