<svg viewBox="-960 -576.41235352 736 768.41235352" xmlns="http://www.w3.org/2000/svg" xmlns:xlink="http://www.w3.org/1999/xlink"><defs><g id="a"><path d="m-576-384.4124v32z"/><path d="m-576-352.4124h32z"/><path d="m-544-352.4124h-32v160h32z"/><path d="m-544-224.4124v-128z"/><path d="m-544-224.4124v32z"/><path d="m-736-352.4124h160v-32h-160z"/><path d="m-576-320.4124v-32h-88v32z"/><path d="m-608-224.4124v-96h-56v96z"/><path d="m-576-224.4124v-96h-32v96z"/><path d="m-664-192.4124h88v-32h-88z"/><path d="m-664-352.4124h-40v32h40z"/><path d="m-704-320.4124v-32h-32v32z"/><path d="m-664-320.4124h-40v96h40z"/><path d="m-736-224.4124h32v-96h-32z"/><path d="m-736-192.4124h72v-32h-72z"/><path d="m-960-384.4124v24h224v-24z"/><path d="m-960-360.4124v-24z"/><path d="m-736-384.4124h-224z"/><path d="m-928-352.4124h192v-8h-192z"/><path d="m-896-192.4124v-32h-32v32z"/><path d="m-928-352.4124v128h192v-128z"/><path d="m-896-224.4124v32h160v-32z"/><path d="m-928-192.4124v-160h-32v160z"/><path d="m-960-360.4124v8h32v-8z"/><path d="m-960-224.4124v32z"/><path d="m-544-96.4124v32z"/><path d="m-544-96.4124v-96z"/><path d="m-576 31.5876h32v-24h-32z"/><path d="m-576-192.4124v200h32v-200z"/><path d="m-576-96.4124v-96h-32v96z"/><path d="m-608-.4124h32v-96h-32z"/><path d="m-608 31.5876h32v-24h-32z"/><path d="m-608 7.5876h32v-8h-32z"/><path d="m-704-192.4124v96h96v-96z"/><path d="m-704-96.4124v-96h-64v96z"/><path d="m-768-.4124h64v-96h-64z"/><path d="m-704-.4124h96v-96h-96z"/><path d="m-800-192.4124v96h32v-96z"/><path d="m-800-192.4124h-96v96h96z"/><path d="m-960-96.4124v-96z"/><path d="m-896-96.4124v-96h-32v96z"/><path d="m-928-96.4124v-96h-32v96z"/><path d="m-928-.4124h32v-96h-32z"/><path d="m-800-96.4124h-96v96h96z"/><path d="m-800-96.4124v96h32v-96z"/><path d="m-928-.4124v-96h-32v96z"/><path d="m-960-.4124v-64z"/><path d="m-768 7.5876v24h160v-24z"/><path d="m-768-.4124v8h160v-8z"/><path d="m-960 159.5876h32v-160h-32z"/><path d="m-928-.4124v32h160v-32z"/><path d="m-928 31.5876v128z"/><path d="m-928 31.5876h160z"/><path d="m-928 159.5876h-32z"/><path d="m-800-192.4124h-96z"/><path d="m-576-192.4124v-160z"/><path d="m-608-320.4124h-56z"/><path d="m-664-352.4124h88v32h-88z"/><path d="m-576-320.4124v96h-32v-96z"/><path d="m-608-224.4124v-96z"/><path d="m-664-224.4124h88v32h-88z"/><path d="m-664-224.4124h-40z"/><path d="m-704-352.4124h40v32h-40z"/><path d="m-736-352.4124h32v32h-32z"/><path d="m-704-320.4124v96h-32v-96z"/><path d="m-704-320.4124v96z"/><path d="m-736-224.4124h72v32h-72z"/><path d="m-928-352.4124h192z"/><path d="m-928-192.4124v-32h32v32z"/><path d="m-928-224.4124v-128h192v128z"/><path d="m-896-192.4124v-32h160v32z"/><path d="m-608-96.4124v-96z"/><path d="m-576-.4124h-32z"/><path d="m-608-96.4124v-96h32v96z"/><path d="m-576-.4124h-32v-96h32z"/><path d="m-704-96.4124h96z"/><path d="m-768-192.4124h64v96h-64z"/><path d="m-704-96.4124v96h-64v-96z"/><path d="m-608-.4124h-96v-96h96z"/><path d="m-896-96.4124h96z"/><path d="m-800-96.4124v-96h32v96z"/><path d="m-928-96.4124v-96h32v96z"/><path d="m-928-192.4124v96z"/><path d="m-960-192.4124v96z"/><path d="m-928-96.4124v96z"/><path d="m-896-.4124h-32v-96h32z"/><path d="m-896-96.4124h96v96h-96z"/><path d="m-800-.4124v-96h32v96z"/><path d="m-960-384.4124v24z"/><path d="m-736-384.4124h-224z"/><path d="m-544-64.4124v96z"/><path d="m-544 31.5876h-32z"/><path d="m-576 31.5876h-32z"/><path d="m-928 159.5876v-128z"/><path d="m-928 31.5876h160z"/><path d="m-960 159.5876h32z"/><path d="m-960 159.5876v-160z"/></g><g id="b"><path d="m-800-192.4124h-96z"/><path d="m-704-192.4124h96z"/><path d="m-608-192.4124h-16z"/><path d="m-576-224.4124v32z"/><path d="m-736-352.4124h32z"/><path d="m-736-352.4124h160z"/><path d="m-664-192.4124h88v-32h-88z"/><path d="m-664-224.4124h88v32h-88z"/><path d="m-664-320.4124h88v-32h-88z"/><path d="m-664-352.4124h88v32h-88z"/><path d="m-576-320.4124v96h-32v-96z"/><path d="m-608-320.4124v96h32v-96z"/><path d="m-608-320.4124h-16z"/><path d="m-608-224.4124v-96z"/><path d="m-608-224.4124h-56z"/><path d="m-736-192.4124h72v-32h-72z"/><path d="m-736-224.4124h72v32h-72z"/><path d="m-704-320.4124h40v-32h-40z"/><path d="m-704-352.4124h40v32h-40z"/><path d="m-736-352.4124h32v128h-32z"/><path d="m-736-224.4124h32v-128h-32z"/><path d="m-704-224.4124h16z"/><path d="m-704-320.4124v96z"/><path d="m-664-320.4124h-40z"/><path d="m-928-224.4124v-128z"/><path d="m-928-352.4124v160z"/><path d="m-896-224.4124h-32v32h32z"/><path d="m-928-224.4124h32v32h-32z"/><path d="m-896-224.4124v32h160v-32z"/><path d="m-896-192.4124v-32h160v32z"/><path d="m-928-224.4124v-128h192v128z"/><path d="m-928-352.4124v128h192v-128z"/><path d="m-896-352.4124h64z"/><path d="m-832-352.4124h96z"/><path d="m-608-96.4124v-16z"/><path d="m-576-64.4124v64z"/><path d="m-576-.4124v-192z"/><path d="m-608-.4124h32z"/><path d="m-608-192.4124h32v96h-32z"/><path d="m-576-192.4124h-32v96h32z"/><path d="m-576-96.4124v96h-32v-96z"/><path d="m-608-96.4124v96h32v-96z"/><path d="m-608-.4124h-96z"/><path d="m-704-.4124h-224z"/><path d="m-704-.4124h-64z"/><path d="m-704-96.4124h96z"/><path d="m-704-192.4124v16z"/><path d="m-704-96.4124v-96z"/><path d="m-768-192.4124h64v96h-64z"/><path d="m-704-96.4124v-96h-64v96z"/><path d="m-768-.4124h64v-96h-64z"/><path d="m-704-96.4124v96h-64v-96z"/><path d="m-608-96.4124h-96v96h96z"/><path d="m-704-96.4124h96v96h-96z"/><path d="m-896-96.4124h96z"/><path d="m-896-96.4124v-96z"/><path d="m-896-192.4124v16z"/><path d="m-800-96.4124v-96h32v96z"/><path d="m-800-192.4124v96h32v-96z"/><path d="m-800-96.4124v-16z"/><path d="m-800-192.4124v96z"/><path d="m-896-192.4124v96h-32v-96z"/><path d="m-928-192.4124v96h32v-96z"/><path d="m-960-192.4124v96z"/><path d="m-928-.4124v-64z"/><path d="m-928-64.4124v-32z"/><path d="m-800-.4124h-96v-96h96z"/><path d="m-896-.4124h96v-96h-96z"/><path d="m-800-.4124v-96h32v96z"/><path d="m-800-96.4124v96h32v-96z"/><path d="m-896-96.4124v96h-32v-96z"/><path d="m-928-96.4124v96h32v-96z"/><path d="m-608-192.4124h32z"/><path d="m-928-192.4124h32z"/><path d="m-704-192.4124h16z"/><path d="m-664-192.4124h16z"/><path d="m-704-192.4124h-96z"/><path d="m-576-512.4124v96z"/><path d="m-576-416.4124v32z"/><path d="m-576-544.4124v32z"/><path d="m-480-384.4124h32z"/><path d="m-352-384.4124h32z"/><path d="m-432-544.4124v-16z"/><path d="m-320-544.4124h-16z"/><path d="m-288-512.4124-32-32h-16v32z"/><path d="m-320-544.4124 32 32z"/><path d="m-256-480.4124v32z"/><path d="m-336-384.4124h16l64-64v-32l-32-32h-48z"/><path d="m-256-448.4124-64 64z"/><path d="m-288-512.4124 32 32z"/><path d="m-368-560.4124v16z"/><path d="m-336-512.4124v-32h-32v32z"/><path d="m-432-560.4124h64z"/><path d="m-432-544.4124h64v-16h-64z"/><path d="m-368-544.4124h-64v32h64z"/><path d="m-432-384.4124h96v-128h-96z"/><path d="m-464-512.4124h32v-32h-32z"/><path d="m-464-544.4124h32z"/><path d="m-480-544.4124-32 32h48v-32z"/><path d="m-480-544.4124-32 32z"/><path d="m-544-448.4124v-32z"/><path d="m-512-512.4124-32 32v32l64 64h48v-128z"/><path d="m-480-384.4124-64-64z"/><path d="m-448-192.4124h96v-192h-96z"/><path d="m-736-544.4124v160z"/><path d="m-648-352.4124h-16z"/><path d="m-688-352.4124h-16z"/><path d="m-608-352.4124h-16z"/><path d="m-736-384.4124h160z"/><path d="m-704-544.4124h-32v160h32z"/><path d="m-576-544.4124h-32v160h32z"/><path d="m-704-512.4124v128h96v-128z"/><path d="m-704-512.4124h96v-32h-96z"/><path d="m-664-320.4124v-32z"/><path d="m-664-192.4124v-32z"/><path d="m-608-224.4124h-16z"/><path d="m-648-224.4124h-16z"/><path d="m-664-320.4124h16z"/><path d="m-624-320.4124v-32z"/><path d="m-624-352.4124v32h16v-32z"/><path d="m-608-352.4124v32z"/><path d="m-664-352.4124v32h16v-32z"/><path d="m-648-352.4124v32z"/><path d="m-624-192.4124v-32z"/><path d="m-624-224.4124v32h16v-32z"/><path d="m-608-224.4124v32z"/><path d="m-664-224.4124v32h16v-32z"/><path d="m-648-224.4124v32z"/><path d="m-704-320.4124h16z"/><path d="m-704-320.4124v-32z"/><path d="m-704-352.4124v32h16v-32z"/><path d="m-688-352.4124v32z"/><path d="m-704-192.4124v-32z"/><path d="m-704-224.4124v32h16v-32z"/><path d="m-688-224.4124v32z"/><path d="m-608-152.4124v16z"/><path d="m-608-192.4124v16z"/><path d="m-576-136.4124v-16z"/><path d="m-576-96.4124v-16z"/><path d="m-576-176.4124v-16z"/><path d="m-352-192.4124v96z"/><path d="m-352-96.4124v-96h-192v96z"/><path d="m-576-96.4124h-32z"/><path d="m-576-136.4124h-32z"/><path d="m-608-176.4124h32v-16h-32z"/><path d="m-608-136.4124h32v-16h-32z"/><path d="m-576-176.4124h-32z"/><path d="m-608-152.4124h32z"/><path d="m-608-96.4124h32v-16h-32z"/><path d="m-608-112.4124h32z"/><path d="m-768-112.4124v-24z"/><path d="m-768-152.4124v-24z"/><path d="m-768-112.4124h32v-80h-32z"/><path d="m-736-176.4124h32v-16h-32z"/><path d="m-736-136.4124h32v-16h-32z"/><path d="m-768-96.4124h64v-16h-64z"/><path d="m-704-96.4124h96z"/><path d="m-704-136.4124h-32z"/><path d="m-736-176.4124v24z"/><path d="m-704-176.4124h-32z"/><path d="m-736-152.4124h32z"/><path d="m-736-136.4124v24z"/><path d="m-736-112.4124h32z"/><path d="m-704-136.4124v-16z"/><path d="m-704-96.4124v-16z"/><path d="m-704-112.4124v-24z"/><path d="m-704-152.4124v-24z"/><path d="m-800-176.4124h32v-16h-32z"/><path d="m-800-136.4124h32v-16h-32z"/><path d="m-928-96.4124h32v-16h-32z"/><path d="m-928-176.4124h32v-16h-32z"/><path d="m-928-136.4124h32v-16h-32z"/><path d="m-800-112.4124v16h32v-16z"/><path d="m-768-96.4124h-32z"/><path d="m-896-96.4124h96z"/><path d="m-896-96.4124h-32z"/><path d="m-800-152.4124h32z"/><path d="m-768-176.4124h-32z"/><path d="m-800-112.4124h32z"/><path d="m-768-136.4124h-32z"/><path d="m-928-152.4124h32z"/><path d="m-896-176.4124h-32z"/><path d="m-896-136.4124h-32z"/><path d="m-928-112.4124h32z"/><path d="m-928-.4124v-64z"/><path d="m-928-64.4124v-32z"/><path d="m-960-64.4124v64z"/><path d="m-896-152.4124v-24z"/><path d="m-896-112.4124v-24z"/><path d="m-896-96.4124v-16z"/><path d="m-896-136.4124v-16z"/><path d="m-800-136.4124v24z"/><path d="m-800-152.4124v16z"/><path d="m-800-192.4124v16z"/><path d="m-800-176.4124v24z"/><path d="m-928-176.4124v24z"/><path d="m-928-192.4124v16z"/><path d="m-928-136.4124v24z"/><path d="m-928-112.4124v16z"/><path d="m-928-152.4124v16z"/><path d="m-960-64.4124v-32z"/><path d="m-448-192.4124h-32z"/><path d="m-480-192.4124h-64z"/><path d="m-544-192.4124h96z"/><path d="m-544-192.4124h-32z"/><path d="m-664-192.4124h-24z"/><path d="m-624-192.4124h-24z"/><path d="m-576-384.4124v32z"/><path d="m-576-192.4124v-32z"/><path d="m-480-384.4124h32z"/><path d="m-352-384.4124h32z"/><path d="m-432-544.4124v32z"/><path d="m-432-560.4124v16z"/><path d="m-336-544.4124v32z"/><path d="m-256-512.4124h32z"/><path d="m-320-544.4124 32 32h-48v-32z"/><path d="m-320-560.4124h-16v16h16z"/><path d="m-320-576.4124v32l32 32h32z"/><path d="m-336-560.4124h16v-16h-16z"/><path d="m-320-544.4124h-16z"/><path d="m-320-576.4124h-16z"/><path d="m-288-544.4124 32 32z"/><path d="m-288-512.4124-32-32z"/><path d="m-288-512.4124 32 32v32l-64 64h-16v-128z"/><path d="m-288-512.4124 32 32v-32z"/><path d="m-224-512.4124h-32v96h32z"/><path d="m-320-384.4124h32l32-32v-32z"/><path d="m-224-416.4124h-32z"/><path d="m-256-448.4124v-32z"/><path d="m-288-416.4124 32-32z"/><path d="m-256-480.4124-32-32z"/><path d="m-320-384.4124 32-32z"/><path d="m-336-512.4124h-32z"/><path d="m-368-544.4124h-64v-16h64z"/><path d="m-336-560.4124h-32v16h32z"/><path d="m-432-576.4124v16h96v-16z"/><path d="m-432-512.4124v-32h64v32z"/><path d="m-368-544.4124v-16z"/><path d="m-368-512.4124v-32z"/><path d="m-368-576.4124h32z"/><path d="m-368-544.4124h-64z"/><path d="m-368-560.4124h-64z"/><path d="m-336-544.4124h-32z"/><path d="m-336-512.4124v128h-32v-128z"/><path d="m-368-384.4124h-64v-128h64z"/><path d="m-432-512.4124h-32z"/><path d="m-576-512.4124h32z"/><path d="m-464-512.4124v-32z"/><path d="m-464-544.4124h32v-32h-32z"/><path d="m-512-512.4124 32-32h16v32z"/><path d="m-464-560.4124v-16h-16l-64 64h32z"/><path d="m-480-544.4124h16v-16z"/><path d="m-464-544.4124h-16z"/><path d="m-512-544.4124 32-32z"/><path d="m-544-512.4124 32-32z"/><path d="m-480-544.4124h16z"/><path d="m-480-384.4124-64-64v32l32 32z"/><path d="m-544-512.4124h-32v96h32z"/><path d="m-544-512.4124v32l32-32z"/><path d="m-464-384.4124v-128h32v128z"/><path d="m-480-384.4124-64-64v-32l32-32h48v128z"/><path d="m-544-480.4124v32z"/><path d="m-544-416.4124 32 32z"/><path d="m-544-480.4124 32-32z"/><path d="m-544-448.4124 64 64z"/><path d="m-544-416.4124h-32z"/><path d="m-512-512.4124-32 32z"/><path d="m-320-192.4124v-160h-32v160z"/><path d="m-480-192.4124h32v-32h-32z"/><path d="m-480-224.4124h32v-128h-32z"/><path d="m-544-192.4124h64v-32h-64z"/><path d="m-352-192.4124h-96v-192h96z"/><path d="m-352-352.4124h32v-32h-32z"/><path d="m-448-352.4124v-32h-32v32z"/><path d="m-320-384.4124v32l32-32z"/><path d="m-480-384.4124h-32l32 32z"/><path d="m-448-384.4124v32z"/><path d="m-448-352.4124v128z"/><path d="m-448-224.4124v32z"/><path d="m-352-352.4124v-32z"/><path d="m-352-192.4124v-160z"/><path d="m-320-352.4124v160z"/><path d="m-320-352.4124 32-32z"/><path d="m-544-352.4124h-32z"/><path d="m-544-224.4124h64z"/><path d="m-480-224.4124v-128z"/><path d="m-544-224.4124v-128z"/><path d="m-448-192.4124v-192z"/><path d="m-352-384.4124v192z"/><path d="m-608-352.4124h32z"/><path d="m-704-352.4124h-32z"/><path d="m-688-352.4124h24z"/><path d="m-648-352.4124h24z"/><path d="m-688-480.4124v-32h80v32z"/><path d="m-624-384.4124h-64v-32h64z"/><path d="m-608-352.4124h-96v-32h96z"/><path d="m-608-384.4124h-16v-96h16z"/><path d="m-688-384.4124h-16v-128h16z"/><path d="m-624-416.4124h-64z"/><path d="m-688-416.4124v-64z"/><path d="m-688-480.4124h64z"/><path d="m-608-512.4124v32z"/><path d="m-608-544.4124h32z"/><path d="m-688-544.4124h80z"/><path d="m-624-480.4124v64z"/><path d="m-704-512.4124h16z"/><path d="m-704-384.4124v32z"/><path d="m-704-384.4124v-32z"/><path d="m-736-544.4124h160z"/><path d="m-648-320.4124h-16v-32h16z"/><path d="m-608-320.4124h-16v-32h16z"/><path d="m-608-192.4124h-16v-32h16z"/><path d="m-648-192.4124h-16v-32h16z"/><path d="m-608-320.4124v96h-80v-96z"/><path d="m-704-352.4124h16v160h-16z"/><path d="m-648-224.4124h24z"/><path d="m-624-320.4124h-24z"/><path d="m-688-224.4124h24z"/><path d="m-664-320.4124h-24z"/><path d="m-832-360.4124h-64z"/><path d="m-896-352.4124v-8h64v8z"/><path d="m-832-352.4124h96z"/><path d="m-896-352.4124v-8z"/><path d="m-960-352.4124v-8z"/><path d="m-928-224.4124v-128z"/><path d="m-928-224.4124v32z"/><path d="m-960-192.4124v-32z"/><path d="m-928-192.4124v-32z"/><path d="m-896-352.4124h-32z"/><path d="m-960-224.4124v-136z"/><path d="m-608-112.4124v-24z"/><path d="m-608-152.4124v-24z"/><path d="m-576-176.4124v24z"/><path d="m-576-136.4124v24z"/><path d="m-576-96.4124v32z"/><path d="m-576-64.4124v-32z"/><path d="m-352-128.4124h32v-64h-32z"/><path d="m-320-64.4124v-32h-64v32z"/><path d="m-544-192.4124h192v96h-192z"/><path d="m-544-64.4124h160v-32h-160z"/><path d="m-320-96.4124v-32h-32v32z"/><path d="m-352-160.4124v-32z"/><path d="m-352-96.4124v-32z"/><path d="m-352-128.4124v-32z"/><path d="m-320-160.4124v32z"/><path d="m-320-192.4124v32z"/><path d="m-544-96.4124h160z"/><path d="m-384-96.4124h32z"/><path d="m-384-64.4124h-160z"/><path d="m-352-64.4124h-32z"/><path d="m-352-96.4124h-192z"/><path d="m-576-96.4124v-96h32v96z"/><path d="m-576-96.4124h32z"/><path d="m-608-112.4124h32v16h-32z"/><path d="m-576-136.4124h-32v-16h32z"/><path d="m-576-176.4124h-32v-16h32z"/><path d="m-704-96.4124h-64z"/><path d="m-704-136.4124v24z"/><path d="m-704-176.4124v24z"/><path d="m-704-112.4124v-80h96v80z"/><path d="m-704-112.4124h96v16h-96z"/><path d="m-704-176.4124h-32v-16h32z"/><path d="m-704-136.4124h-32v-16h32z"/><path d="m-768-136.4124v-56h32v56z"/><path d="m-736-112.4124h32v16h-32z"/><path d="m-736-112.4124h-32v-24h32z"/><path d="m-768-112.4124h32v16h-32z"/><path d="m-896-176.4124v24z"/><path d="m-896-136.4124v24z"/><path d="m-800-152.4124v-24z"/><path d="m-800-112.4124v-24z"/><path d="m-768-176.4124h-32v-16h32z"/><path d="m-768-136.4124h-32v-16h32z"/><path d="m-800-112.4124h32v16h-32z"/><path d="m-896-112.4124h96v16h-96z"/><path d="m-800-112.4124h-96v-80h96z"/><path d="m-896-176.4124h-32v-16h32z"/><path d="m-896-136.4124h-32v-16h32z"/><path d="m-928-96.4124v-16h32v16z"/><path d="m-960-96.4124v-96z"/><path d="m-928-152.4124v-24z"/><path d="m-960-192.4124v40z"/><path d="m-928-112.4124v-24z"/><path d="m-960-152.4124v56z"/><path d="m-928-96.4124v32z"/><path d="m-960-96.4124v32z"/><path d="m-960-64.4124v-32z"/><path d="m-768 7.5876v-8h64v8z"/><path d="m-704-.4124v8z"/><path d="m-768 7.5876h64z"/><path d="m-608 31.5876h-160z"/><path d="m-624-416.4124h-64v-64h64z"/><path d="m-608-416.4124v-64z"/><path d="m-352-192.4124h8z"/><path d="m-832-360.4124v8z"/><path d="m-832-352.4124v-8h-64v8z"/><path d="m-960-352.4124v-8z"/><path d="m-928-224.4124v-128z"/><path d="m-928-192.4124v-32z"/><path d="m-960-224.4124v32z"/><path d="m-896-352.4124h-32z"/><path d="m-960-224.4124v-128z"/><path d="m-344-160.4124h-8v-32h8z"/><path d="m-344-160.4124h-8z"/><path d="m-344-192.4124v32z"/><path d="m-320-160.4124v-32z"/><path d="m-320-128.4124v-32z"/><path d="m-320-128.4124v64z"/><path d="m-768 7.5876v-8z"/><path d="m-768-.4124v8h64v-8z"/><path d="m-368-512.4124h-64z"/><path d="m-432-512.4124h64v-32h-64z"/><path d="m-368-544.4124v-16h-64v16z"/><path d="m-368-544.4124h-64z"/><path d="m-432-576.4124h64z"/><path d="m-352-160.4124v-32z"/><path d="m-344-192.4124h-8v32h8z"/><path d="m-320-128.4124v-32z"/><path d="m-320-192.4124v32z"/><path d="m-320-128.4124v64z"/><path d="m-576-544.4124v32z"/><path d="m-576-192.4124v-96.2142z"/><path d="m-576-224.4124v-128z"/><path d="m-576-416.4124v32z"/><path d="m-576-384.4124h32z"/><path d="m-256-512.4124h32z"/><path d="m-336-576.4124h16z"/><path d="m-320-576.4124 32 32z"/><path d="m-256-512.4124-32-32z"/><path d="m-288-512.4124-32-32z"/><path d="m-224-416.4124h-32z"/><path d="m-256-448.4124v-32z"/><path d="m-224-512.4124v96z"/><path d="m-288-416.4124 32-32z"/><path d="m-256-480.4124-32-32z"/><path d="m-320-384.4124 32-32z"/><path d="m-288-384.4124 32-32z"/><path d="m-432-544.4124h96v32h-96z"/><path d="m-432-576.4124h96z"/><path d="m-336-576.4124h-96z"/><path d="m-576-512.4124h32z"/><path d="m-464-512.4124v-32h32v32z"/><path d="m-480-544.4124h48z"/><path d="m-512-544.4124 32-32z"/><path d="m-544-512.4124 32-32z"/><path d="m-432-576.4124h-32z"/><path d="m-464-576.4124h-16z"/><path d="m-512-512.4124 32-32z"/><path d="m-544-480.4124v32z"/><path d="m-544-416.4124 32 32z"/><path d="m-512-512.4124-32 32z"/><path d="m-544-416.4124h-32z"/><path d="m-448-192.4124v-160z"/><path d="m-352-352.4124v160z"/><path d="m-320-352.4124v160z"/><path d="m-320-352.4124 32-32z"/><path d="m-448-384.4124v32h96v-32z"/><path d="m-576-352.4124h32v-32h-32z"/><path d="m-512-384.4124 32 32z"/><path d="m-544-224.4124h64z"/><path d="m-480-352.4124v128z"/><path d="m-544-352.4124v128z"/><path d="m-736-544.4124v160z"/><path d="m-576-352.4124h-32z"/><path d="m-608-480.4124v-32z"/><path d="m-608-544.4124h32z"/><path d="m-688-512.4124h80z"/><path d="m-608-512.4124h-80z"/><path d="m-688-544.4124h80z"/><path d="m-608-480.4124v64z"/><path d="m-608-416.4124v-64z"/><path d="m-688-512.4124h-16z"/><path d="m-736-544.4124h48z"/><path d="m-704-512.4124v96z"/><path d="m-704-416.4124v-96z"/><path d="m-704-416.4124v32z"/><path d="m-704-384.4124v32h96v-32z"/><path d="m-608-384.4124v-32z"/><path d="m-608-416.4124v32z"/><path d="m-608-352.4124v-32z"/><path d="m-576-288.6266v-63.7858h-31.9642z"/><path d="m-576-288.6266-31.9642-63.7858z"/><path d="m-960-360.4124v-24z"/><path d="m-864-352.4124h32z"/><path d="m-832-352.4124h-64z"/><path d="m-896-352.4124h-32z"/><path d="m-960-352.4124v-8z"/><path d="m-864-352.4124h-64v64z"/><path d="m-864-352.4124-64 64z"/><path d="m-960-224.4124v-128z"/><path d="m-960-192.4124v-160z"/><path d="m-576-64.4124v-128z"/><path d="m-544-96.4124v-96z"/><path d="m-544-64.4124v96z"/><path d="m-544 31.5876v-96z"/><path d="m-320-64.4124h-32z"/><path d="m-320-64.4124v-96z"/><path d="m-320-128.4124v64z"/><path d="m-320-160.4124v-32z"/><path d="m-352-96.4124h-192z"/><path d="m-544-64.4124h192z"/><path d="m-576 31.5876h32z"/><path d="m-544-192.4124h-32v96h32z"/><path d="m-608-.4124h32v-64l-32 32z"/><path d="m-608-32.4124 32-32z"/><path d="m-608 31.5876h32z"/><path d="m-928-.4124h160z"/><path d="m-704-.4124h96z"/><path d="m-768-.4124h64z"/><path d="m-640-.4124h32v-32z"/><path d="m-640-.4124 32-32z"/><path d="m-928-192.4124v96z"/><path d="m-928-192.4124v96z"/><path d="m-960-96.4124v-96z"/><path d="m-928-96.4124v32z"/><path d="m-928-64.4124v64h64z"/><path d="m-928-64.4124 64 64z"/><path d="m-960-.4124v-96z"/><path d="m-704 31.5876h96z"/><path d="m-768 31.5876h64z"/><path d="m-928 159.5876h-32v-128h32z"/><path d="m-960 31.5876h192z"/><path d="m-960 159.5876v-160z"/></g><g id="c"><path d="m-448-192.4124h-96z"/><path d="m-576-384.4124v-32z"/><path d="m-576-192.4124v-96.2142z"/><path d="m-480-384.4124h160z"/><path d="m-320-384.4124h-32z"/><path d="m-336-576.4124h16v32h-16z"/><path d="m-288-512.4124-32-32h-16v32z"/><path d="m-288-512.4124-32-32v-32l64 64z"/><path d="m-336-544.4124h16z"/><path d="m-320-544.4124 32 32z"/><path d="m-336-544.4124h16z"/><path d="m-288-544.4124-32-32z"/><path d="m-336-384.4124h16l64-64v-32l-32-32h-48z"/><path d="m-256-512.4124h32v32z"/><path d="m-224-480.4124v32l-64 64h-32z"/><path d="m-256-448.4124v-32l16 16z"/><path d="m-224-416.4124h-32l32-32z"/><path d="m-224-480.4124-16 16-48-48h32z"/><path d="m-256-480.4124v32z"/><path d="m-256-448.4124-64 64z"/><path d="m-288-512.4124 32 32z"/><path d="m-224-512.4124v96z"/><path d="m-288-384.4124 32-32z"/><path d="m-432-544.4124h96z"/><path d="m-432-544.4124h96z"/><path d="m-432-576.4124h96v32h-96z"/><path d="m-336-512.4124v-32h-96v32z"/><path d="m-432-384.4124h96v-128h-96z"/><path d="m-464-544.4124h-16l16-16z"/><path d="m-464-576.4124h32v32h-32z"/><path d="m-480-576.4124h16v16l-16 16h-32z"/><path d="m-480-576.4124h48z"/><path d="m-480-544.4124-32 32h80v-32z"/><path d="m-480-544.4124-32 32h-32l32-32z"/><path d="m-480-544.4124-32 32z"/><path d="m-480-544.4124-32 32z"/><path d="m-512-512.4124-32 32v-32z"/><path d="m-576-480.4124 64 64h-64z"/><path d="m-534.8036-384.4124 15.1911-7.6125-24.3875-24.3875h-32v32z"/><path d="m-519.6125-392.0249-15.1911 7.6125h22.8036z"/><path d="m-576-480.4124v-32h32v64z"/><path d="m-512-512.4124-32 32v32l64 64h48v-128z"/><path d="m-544-448.4124v-32z"/><path d="m-512-416.4124h-32z"/><path d="m-512-416.4124-32-32z"/><path d="m-544-448.4124 64 64z"/><path d="m-352-384.4124h32v192h-32z"/><path d="m-288-384.4124-32 32v-32z"/><path d="m-352-352.4124h-96z"/><path d="m-352-192.4124v-160h-96v160z"/><path d="m-544-384.4124v32z"/><path d="m-534.8036-384.4124h-9.1964v4.6085z"/><path d="m-534.8036-384.4124-9.1964 4.6085v27.3915h64l-32-32z"/><path d="m-512-384.4124 32 32z"/><path d="m-544-352.4124v128h64v-128z"/><path d="m-736-352.4124h128.0358z"/><path d="m-608-416.4124v-96h-80v96z"/><path d="m-688-544.4124h112v32h-112z"/><path d="m-608-416.4124v-96h32v96z"/><path d="m-688-512.4124h80z"/><path d="m-608-512.4124v96z"/><path d="m-688-512.4124h-16v96h16z"/><path d="m-736-544.4124h32v128h-32z"/><path d="m-704-512.4124v-32h16v32z"/><path d="m-704-512.4124h16z"/><path d="m-704-416.4124v-96z"/><path d="m-736-544.4124h48z"/><path d="m-704-384.4124v-32z"/><path d="m-608-416.4124v32z"/><path d="m-576-384.4124h-32v-32h32z"/><path d="m-608-384.4124h32z"/><path d="m-704-384.4124h96v-32h-96z"/><path d="m-704-384.4124h96z"/><path d="m-704-416.4124v32h-32v-32z"/><path d="m-736-384.4124h32z"/><path d="m-576-288.6266-31.9642-63.7858z"/><path d="m-960-360.4124v-24z"/><path d="m-960-384.4124h224z"/><path d="m-960-384.4124h32z"/><path d="m-784.0358-352.4124h-47.9642z"/><path d="m-784.0358-352.4124h48.0358z"/><path d="m-832-352.4124h96z"/><path d="m-832-352.4124h-31.9642z"/><path d="m-863.9642-352.4124h-.0358z"/><path d="m-960-352.4124v-8z"/><path d="m-928-288.4124v64z"/><path d="m-928-224.4124v32z"/><path d="m-928-288.4124v96z"/><path d="m-864-352.4124-64 64z"/><path d="m-960-224.4124v32z"/><path d="m-576 159.2907v.2969z"/><path d="m-320-.4124h-128.4295z"/><path d="m-352-192.4124v96z"/><path d="m-352-192.4124v96z"/><path d="m-352-64.4124h32z"/><path d="m-352-160.4124v-32h8v32z"/><path d="m-344-96.4124v32h-8v-32z"/><path d="m-320-160.4124v32h-32v-32z"/><path d="m-320-64.4124h-24v-64h24z"/><path d="m-352-96.4124v-32h8v32z"/><path d="m-320-160.4124h-24v-32h24z"/><path d="m-288-160.4124h-32v96h32z"/><path d="m-320-128.4124v-32z"/><path d="m-320-128.4124v64z"/><path d="m-320-64.4124v64h32v-64z"/><path d="m-400.3221-96.4124h48.3221z"/><path d="m-448-96.4124h96v-96h-96z"/><path d="m-448-192.4124h-96v96h96z"/><path d="m-352-64.4124h-64.3579l16.0358-32h48.3221z"/><path d="m-544-64.4124v64h95.5705l32.0716-64z"/><path d="m-448.4295-.4124 48.1074-96z"/><path d="m-320-.4124h-128v160h128z"/><path d="m-448-.4124h-96v151.7197l96-23.9506z"/><path d="m-320-.4124v160h32v-160z"/><path d="m-448 127.3567v32.2309z"/><path d="m-320 159.5876h32z"/><path d="m-288 159.5876v-160z"/><path d="m-576 31.5876h32z"/><path d="m-576 159.2907 32-7.9834v-119.7197h-32z"/><path d="m-576 159.2907 32-7.9834z"/><path d="m-608-32.4124 32-32z"/><path d="m-576 159.5876v-128h-32v128z"/><path d="m-608 31.5876h32z"/><path d="m-928 31.5876h-32v128h32z"/><path d="m-928 31.5876v96.4784l128 31.934v-128.4124z"/><path d="m-608 31.5876h-192v128h192z"/><path d="m-640-.4124h-224z"/><path d="m-640-.4124 32-32z"/><path d="m-928-192.4124v96z"/><path d="m-928-96.4124v32z"/><path d="m-928-64.4124 64 64z"/><path d="m-960-64.4124v64z"/><path d="m-800 159.5876v.4124z"/><path d="m-800 159.5876h32z"/><path d="m-832 152.0165-32-7.9835z"/><path d="m-960 63.5876v-64z"/><path d="m-928 159.5876h-32z"/><path d="m-928 128.066v31.5216z"/><path d="m-864 144.033-64-15.967z"/><path d="m-864-.4124h224z"/><path d="m-704 31.5876h96z"/><path d="m-768 31.5876h64z"/><path d="m-960 31.5876v-32z"/><path d="m-277.4367-501.849 21.4367 21.4366v32l-21.4367 21.4367z"/><path d="m-501.4367-522.9757 21.4367-21.4367h160l42.5633 42.5634v74.8733l-42.5633 42.5633h-112z"/><path d="m-501.4367-522.9757 53.4009 106.5633h-63.9642l-32-32v-32z"/><path d="m-352-288.4124h-31.8926l-48.1074-96h80z"/><path d="m-384-288.4124h32v96h-32z"/><path d="m-512-416.4124h-64z"/><path d="m-384-288.4124h.1074z"/><path d="m-383.8926-288.4124-16.0358-32z"/><path d="m-480-544.4124h48z"/><path d="m-512-512.4124-32 32z"/><path d="m-544-416.4124h-32z"/><path d="m-352-384.4124v192z"/><path d="m-608-384.4124h-96v-128h96z"/><path d="m-768-384.4124h64z"/><path d="m-576-384.4124h-32z"/><path d="m-608-384.4124h-96z"/><path d="m-607.9642-352.4124 31.9642 63.7858z"/><path d="m-928-384.4124h-32z"/><path d="m-864-352.4124h.0358z"/><path d="m-863.9642-352.4124h79.9284z"/><path d="m-784.0358-352.4124h16.0358z"/><path d="m-928-224.4124v-64z"/><path d="m-928-192.4124v-32z"/><path d="m-928-288.4124 64-64z"/><path d="m-960-224.4124v32z"/><path d="m-736-352.4124h128.0358z"/><path d="m-784-384.4124h48z"/><path d="m-864-384.4124h80z"/><path d="m-928-384.4124h64z"/><path d="m-960-224.4124v-128z"/><path d="m-448 95.5876v-48l32-4v52z"/><path d="m-320 31.5876v64h-32v-60z"/><path d="m-416 143.5876v-16h64v16z"/><path d="m-352-128.4124v32h-48.3221l16.0358-32z"/><path d="m-352-192.4124v64h-32v-64z"/><path d="m-416 43.5876 64-8v92h-64z"/><path d="m-320-.4124h-128.4295z"/><path d="m-384-128.4124v-64z"/><path d="m-320-160.4124v32z"/><path d="m-320-128.4124v128z"/><path d="m-384.2863-128.4124h.2863z"/><path d="m-400.3221-96.4124.3221-.6428z"/><path d="m-448.4295-.4124.4295-.8571z"/><path d="m-576-64.4124-32 32z"/><path d="m-448 127.5876v31.7691z"/><path d="m-448 95.5876v-48z"/><path d="m-448 159.3567v.2309z"/><path d="m-448 127.5876v-.2309z"/><path d="m-352 127.5876v16z"/><path d="m-352 127.5876v-32z"/><path d="m-352 95.5876h32z"/><path d="m-320 31.5876-32 4z"/><path d="m-288 159.5876v-64z"/><path d="m-320 159.5876h32z"/><path d="m-448 95.5876h32z"/><path d="m-352 35.5876-96 12z"/><path d="m-416 127.5876v-32z"/><path d="m-416 143.5876v-16z"/><path d="m-416 127.5876h64z"/><path d="m-448 159.5876h32z"/><path d="m-576 159.5876v-.2969z"/><path d="m-576 159.2907 62.9421-15.7031z"/><path d="m-576-64.4124v-128z"/><path d="m-320-160.4124h32z"/><path d="m-288-64.4124v-96z"/><path d="m-320-64.4124v64z"/><path d="m-288-.4124v-64z"/><path d="m-320 159.5876h-128z"/><path d="m-544 151.3073 96-23.9506z"/><path d="m-576 159.5876h-32z"/><path d="m-576-416.4124v-32z"/><path d="m-512-416.4124h63.9642z"/><path d="m-448-416.4124h-.0358z"/><path d="m-576-448.4124v32h128v-32z"/><path d="m-864-384.4124h80z"/><path d="m-864-384.4124v-128z"/><path d="m-864-512.4124h80z"/><path d="m-784-512.4124v128z"/><path d="m-864-384.4124h80v-128h-80z"/><path d="m-800.0716-320.4124h-47.8568z"/><path d="m-847.9284-320.4124h47.8568l16.0358-32h-79.9284z"/><path d="m-864-352.4124h.0358z"/><path d="m-784.0358-352.4124h16.0358z"/><path d="m-784.0358-352.4124-16.0358 32z"/><path d="m-847.9284-320.4124-16.0358-32z"/><path d="m-352-128.4124h32z"/><path d="m-352-.4124h32v-128h-32z"/><path d="m-384-.4124h32v-128h-32z"/><path d="m-400-.4124h16v-128h-.2863l-15.7137 31.3572z"/><path d="m-400-97.0552 15.7137-31.3572z"/><path d="m-400-96.4124v-.6428l-.3221.6428z"/><path d="m-448-.4124h48v-96h-.3221l-47.6779 95.1429z"/><path d="m-448-1.2695 47.6779-95.1429z"/><path d="m-448.4295-.4124h.4295v-.8571z"/><path d="m-320 31.5876-32 4v-36h32z"/><path d="m-320-.4124v32z"/><path d="m-320 95.5876v-64z"/><path d="m-288-.4124v96z"/><path d="m-352 35.5876-96 12v-48h96z"/><path d="m-704 63.5876h64z"/><path d="m-704 127.5876v-64z"/><path d="m-640 63.5876v64z"/><path d="m-640 127.5876h-64v-64h64z"/><path d="m-576-351.7681v-.6443z"/><path d="m-576-384.4124v.6443z"/><path d="m-416-416.4124h-.0358z"/><path d="m-416-448.4124v32z"/><path d="m-416.0358-416.4124h.0358v-32h-16.0716z"/><path d="m-448-448.4124v32h31.9642l-16.0358-32z"/><path d="m-576-448.4124h128v.5012l-62.8571 31.4988h-65.1429z"/><path d="m-448-447.9112v-.5012z"/><path d="m-510.8571-416.4124 62.8571-31.4988z"/><path d="m-448-448.4124v32z"/><path d="m-576-448.4124h128z"/><path d="m-432-384.4124 32.0716 64h32l-48.1074-96h-15.9642z"/><path d="m-432-384.4124 32.0716 64h-32.0716z"/><path d="m-399.9284-320.4124-32.0716-64z"/><path d="m-399.9284-320.4124 16.0358 32h32l-16.0358-32z"/><path d="m-384-288.4124v96h-48v-96z"/><path d="m-399.9284-320.4124 16.0358 32h-48.1074v-32z"/><path d="m-352-192.4124v-96h-32v96z"/><path d="m-351.8926-288.4124h-.1074z"/><path d="m-384-288.4124h.1074z"/><path d="m-351.8926-288.4124-16.0358-32z"/><path d="m-384-192.4124v-96z"/><path d="m-384-192.4124v-96z"/><path d="m-448-416.3409v-.0715h-.0358z"/><path d="m-510.8571-384.4124h78.8571v96h-144v-63.3557z"/><path d="m-448-416.3409 16 31.9285h-16z"/><path d="m-432-192.4124h-144v-96h144z"/><path d="m-448-415.9112v31.4988h-62.8571z"/><path d="m-448-416.4124v.0715l16 31.9285v-32z"/><path d="m-510.8571-416.4124-65.1429 32.6443v-32.6443z"/><path d="m-448-416.3409v.4297z"/><path d="m-448-416.3409 16 31.9285z"/><path d="m-448-415.9112-63.6185 31.8804z"/><path d="m-511.6185-384.0308-.3815.1912z"/><path d="m-512-383.8396-32 16.0357z"/><path d="m-544-399.8039 32-16.0357z"/><path d="m-432-384.4124-16.0358-32z"/><path d="m-576-384.4124h-160z"/><path d="m-752-384.4124h16z"/><path d="m-752-552.4124h-16v168h16z"/><path d="m-752-552.4124h-16z"/><path d="m-607.9642-352.4124h31.9642v63.7858z"/><path d="m-736-352.4124h128.0358z"/><path d="m-768-352.4124h32z"/><path d="m-784-384.4124h16z"/><path d="m-928-384.4124h64z"/><path d="m-928-384.4124h32z"/><path d="m-864-512.4124h80v128h-80z"/><path d="m-768-552.4124h-16v168h16z"/><path d="m-864-512.4124h80v-40h-80z"/><path d="m-784-512.4124h-80z"/><path d="m-784-512.4124v128z"/><path d="m-864-552.4124h-32v168h32z"/><path d="m-896-552.4124v168z"/><path d="m-864-384.4124v32z"/><path d="m-784-384.4124v32h-80v-32z"/><path d="m-800.0716-320.4124h-47.8568l-16.0358-32h79.9284z"/><path d="m-768-352.4124h-16z"/><path d="m-320-.4124h-128z"/><path d="m-352-192.4124v32z"/><path d="m-352-128.4124h32v-32h-32z"/><path d="m-352-160.4124h32z"/><path d="m-320-160.4124h32z"/><path d="m-288-160.4124v32z"/><path d="m-320-128.4124v128h-32v-128z"/><path d="m-288-128.4124v128z"/><path d="m-384-128.4124h32z"/><path d="m-352-128.4124h-32z"/><path d="m-384-128.4124h32v-64h-32z"/><path d="m-352-.4124h-32v-128h32z"/><path d="m-384-192.4124v64h-16v-64z"/><path d="m-384-.4124h-16v-128h16z"/><path d="m-448-96.4124v-32h48v32z"/><path d="m-400-128.4124h-48v-64h48z"/><path d="m-400-.4124h-48v-96h48z"/><path d="m-448-.4124h-128v-128h128z"/><path d="m-448-128.4124h-128v-64h128z"/><path d="m-576-.4124h-32v-32l32-32z"/><path d="m-576-64.4124v-128z"/><path d="m-448 95.5876v-32z"/><path d="m-448 47.5876v-48z"/><path d="m-448-.4124v64h-64v-64z"/><path d="m-512 63.5876h64z"/><path d="m-544 63.5876h32z"/><path d="m-512 63.5876h-32v-64h32z"/><path d="m-608 63.5876h32v24h-32z"/><path d="m-544 63.5876h-64v-64h64z"/><path d="m-576 63.5876h31.4989z"/><path d="m-544.5011 63.5876h.5011z"/><path d="m-576 87.5876v-8z"/><path d="m-576 79.5876v-16z"/><path d="m-576 103.5876v-16z"/><path d="m-576 87.5876v16h-32v-16z"/><path d="m-576 103.5876v16h-32v-16z"/><path d="m-576 119.5876v-16z"/><path d="m-576 119.5876v24z"/><path d="m-448 143.5876v-16.2309l-65.0579 16.2309z"/><path d="m-513.0579 143.5876 65.0579-16.2309z"/><path d="m-576 119.5876v24h-32v-24z"/><path d="m-576 143.5876v16z"/><path d="m-576 159.2907v32l128-31.934v-15.7691h-65.0579z"/><path d="m-576 191.2907 128-31.934z"/><path d="m-576 143.5876v16h-32v-16z"/><path d="m-576 159.5876h-32v32h32z"/><path d="m-608 159.5876h32z"/><path d="m-608 159.5876h32z"/><path d="m-608-.4124h-32l32-32z"/><path d="m-928-.4124v-32z"/><path d="m-864-.4124h-64v-64z"/><path d="m-608 63.5876h-96v-64h96z"/><path d="m-768-.4124h64v64h-64z"/><path d="m-704 191.5876h64v-32h-64z"/><path d="m-704 159.5876v-32h64v32z"/><path d="m-640 159.5876v-96h32v96z"/><path d="m-640 191.5876h32v-32h-32z"/><path d="m-704 159.5876h64z"/><path d="m-640 159.5876h32z"/><path d="m-640 191.5876h-64z"/><path d="m-608 191.5876h-32z"/><path d="m-704 127.5876h64z"/><path d="m-704 159.5876h96z"/><path d="m-736 191.5876h32v-32h-32z"/><path d="m-768 191.5876h32v-32h-32z"/><path d="m-704 63.5876v96h-64v-96z"/><path d="m-736 159.5876h32z"/><path d="m-768 159.5876h32z"/><path d="m-704 191.5876h-32z"/><path d="m-736 191.5876h-32z"/><path d="m-768 159.5876h64z"/><path d="m-800 63.5876v16z"/><path d="m-800 103.5876v16z"/><path d="m-800 79.5876v24z"/><path d="m-800 191.5876v.4124z"/><path d="m-800 119.5876v24z"/><path d="m-800 143.5876v16z"/><path d="m-800 159.5876h32z"/><path d="m-800 159.5876v-160h32v160z"/><path d="m-800 191.5876h32v-32h-32z"/><path d="m-768 191.5876h-32z"/><path d="m-832 63.5876h32z"/><path d="m-800-.4124v64h-32v-64z"/><path d="m-800 192v-32l-32-7.9835v32z"/><path d="m-800 160-32-7.9835z"/><path d="m-864 63.5876h32z"/><path d="m-832 63.5876h-32v-64h32z"/><path d="m-832 152.0165-32-7.9835v32l32 7.9835z"/><path d="m-832 184.0165-32-7.9835z"/><path d="m-928 63.5876h64z"/><path d="m-864 63.5876h-64v-64h64z"/><path d="m-960-.4124v64z"/><path d="m-864 144.033-64-15.967v32l64 15.967z"/><path d="m-960 159.5876h32z"/><path d="m-928 160.066v-.4784z"/><path d="m-864 176.033-64-15.967z"/><path d="m-960 159.5876v-96z"/><path d="m-928-192.4124h96z"/><path d="m-832-192.4124v96z"/><path d="m-832-96.4124h-96z"/><path d="m-832-96.4124v-96h-96v96z"/><path d="m-960-96.4124v-96z"/><path d="m-576-352.4124v.6443z"/><path d="m-576-383.7681v-.6443z"/><path d="m-416.0358-416.4124h.0358z"/><path d="m-416-416.4124v-32z"/><path d="m-448-448.4124v.5012z"/><path d="m-448-448.4124h32z"/><path d="m-448-447.9112-62.8571 31.4988z"/><path d="m-576-384.4124h-160z"/><path d="m-928-384.4124h-32z"/><path d="m-896-384.4124h-32z"/><path d="m-928-224.4124v32z"/><path d="m-960-192.4124v-32z"/><path d="m-512 87.5876h-32z"/><path d="m-512 63.5876v8z"/><path d="m-544 71.5876v-8h32v8z"/><path d="m-544 71.5876h32z"/><path d="m-544 103.5876v-16h32v16z"/><path d="m-544 103.5876v16z"/><path d="m-544 119.5876v-16h32v16z"/><path d="m-512 143.3237-1.0579.2639h-30.9421v-24h32z"/><path d="m-576 119.5876v24z"/><path d="m-544 119.5876v24z"/><path d="m-513.0579 143.5876 1.0579-.2639z"/><path d="m-513.0579 143.5876-30.9421 7.7197v-7.7197z"/><path d="m-544 143.5876v7.7197z"/><path d="m-576 143.5876v16z"/><path d="m-576 191.2907 32-7.9834z"/><path d="m-576 159.5876h-32z"/><path d="m-576 191.2907v.2969z"/><path d="m-576 191.5876h-32z"/><path d="m-832-96.4124v32z"/><path d="m-928-96.4124h96z"/><path d="m-928-192.4124v96z"/><path d="m-928-96.4124v-96h96v96z"/><path d="m-960-192.4124v96z"/><path d="m-960-96.4124v-96z"/><path d="m-928-64.4124h96v-32h-96z"/><path d="m-928-.4124v-32z"/><path d="m-832-64.4124h-96z"/><path d="m-960-64.4124v64z"/><path d="m-960-64.4124v-32z"/><path d="m-928-64.4124v32z"/><path d="m-960-96.4124v32z"/><path d="m-832 63.5876v8z"/><path d="m-832 87.5876v64.4289z"/><path d="m-864 71.5876v-8z"/><path d="m-864 144.033v-56.4454z"/><path d="m-832 87.5876h-32z"/><path d="m-864 71.5876v-8h32v8z"/><path d="m-864 71.5876h32z"/><path d="m-832 152.0165-32-7.9835v-56.4454h32z"/><path d="m-864 176.033 32 7.9835z"/><path d="m-832 152.0165-32-7.9835z"/><path d="m-832-64.4124v32z"/><path d="m-928-64.4124v32z"/><path d="m-928-64.4124v-32z"/><path d="m-832-32.4124h-96z"/><path d="m-928-64.4124h96z"/><path d="m-832-64.4124h-96v-32h96z"/><path d="m-928-32.4124h96v-32h-96z"/><path d="m-416 95.5876h64z"/><path d="m-416 127.5876h64v-32h-64z"/><path d="m-416 127.5876v16h64v-16z"/><path d="m-448 159.5876h96z"/><path d="m-416 127.5876h64z"/><path d="m-416 143.5876h64z"/><path d="m-416 159.5876h64z"/><path d="m-544 71.5876v-8z"/><path d="m-512 71.5876v-8h-32v8z"/><path d="m-544 63.5876h32z"/><path d="m-448 63.5876h-64z"/><path d="m-512 103.5876v-16h-32v16z"/><path d="m-576 87.5876v16z"/><path d="m-544 87.5876v16z"/><path d="m-512 87.5876v16z"/><path d="m-512 119.5876v-16h-32v16z"/><path d="m-576 103.5876v16z"/><path d="m-512 103.5876v16z"/><path d="m-513.0579 143.5876 1.0579-.2639v-23.7361h-32v24z"/><path d="m-512 119.5876v23.7361z"/><path d="m-544 151.3073 30.9421-7.7197h-30.9421z"/><path d="m-544 151.3073 30.9421-7.7197z"/><path d="m-448 159.3567-96 23.9506z"/><path d="m-832-.4124h-96z"/><path d="m-832-32.4124v32z"/><path d="m-928-32.4124h96z"/><path d="m-832-32.4124h-96v-32h96z"/><path d="m-928-.4124h96v-32h-96z"/><path d="m-640 159.5876h32z"/><path d="m-608 191.5876h-32z"/><path d="m-768 159.5876h32z"/><path d="m-736 191.5876h-32z"/><path d="m-832 63.5876h-32v8h32z"/><path d="m-864 63.5876h32z"/><path d="m-864 87.5876v56.4454l32 7.9835v-64.4289z"/><path d="m-864 176.033 32 7.9835z"/><path d="m-928-.4124h96z"/><path d="m-832-.4124h-96v-32h96z"/><path d="m-928-96.4124v-96z"/><path d="m-928-64.4124v-32z"/><path d="m-928-.4124v-32z"/><path d="m-960-192.4124v96z"/><path d="m-960-96.4124v32z"/><path d="m-960-64.4124v64z"/><path d="m-928-64.4124v32z"/><path d="m-832-.4124v32z"/><path d="m-832 31.5876h-32z"/><path d="m-864 31.5876h32v-32h-32z"/><path d="m-928 31.5876h64v-32h-64z"/><path d="m-864 31.5876h-64z"/><path d="m-960-.4124v64z"/><path d="m-928-.4124v32z"/><path d="m-928 31.5876v32z"/><path d="m-512-395.8396v12z"/><path d="m-512-383.8396-32 16.0357v-12l32-16.0357z"/><path d="m-544-367.8039v-12z"/><path d="m-544-379.8039 32-16.0357z"/><path d="m-512-415.8396-32 16.0357z"/><path d="m-544-367.8039-32 16.0358z"/><path d="m-576-383.7681 32-16.0358z"/><path d="m-768-352.4124v-8z"/><path d="m-736-360.4124v8h-32v-8z"/><path d="m-736-352.4124h-32z"/><path d="m-320 95.5876v32h-32v-32z"/><path d="m-352 127.5876h32z"/><path d="m-320 95.5876v32z"/><path d="m-288 159.5876v-32z"/><path d="m-320 159.5876h32z"/><path d="m-320 159.5876h-32z"/><path d="m-352 127.5876h-96v-32h96z"/><path d="m-704 159.5876h64z"/><path d="m-640 191.5876h-64z"/><path d="m-736 159.5876h32z"/><path d="m-704 191.5876h-32z"/><path d="m-832 31.5876v32z"/><path d="m-832 31.5876h-32z"/><path d="m-832 31.5876h-32v-32h32z"/><path d="m-864 63.5876h32v-32h-32z"/><path d="m-928 31.5876v32z"/><path d="m-864 31.5876h-64v-32h64z"/><path d="m-928 31.5876v32h64v-32z"/></g><g id="d"><path d="m-432-320.4124v32z"/><path d="m-416-320.4124h-16z"/><path d="m-399.9284-320.4124h-.0716z"/><path d="m-432-320.4124h32.0716l-32.0716-64z"/><path d="m-432-384.4124 32.0716 64z"/><path d="m-416.0358-416.4124 48.1074 96z"/><path d="m-400-288.4124h16z"/><path d="m-383.8926-288.4124h31.8926z"/><path d="m-432-288.4124h16z"/><path d="m-416-288.4124h16v-32h-16z"/><path d="m-400-320.4124v32z"/><path d="m-351.8926-288.4124-16.0358-32z"/><path d="m-416-288.4124v-32z"/><path d="m-383.8926-288.4124-16.0358-32z"/><path d="m-384-192.4124v-96h32v96z"/><path d="m-384-192.4124v-96h-48v96z"/><path d="m-352-288.4124v96z"/><path d="m-448-416.3409v95.9285h16v-64z"/><path d="m-432-288.4124h-16v96h16z"/><path d="m-448-288.4124h16v-32h-16z"/><path d="m-511.6185-384.0308 63.6185 63.6184v-95.4988z"/><path d="m-448-320.4124v128z"/><path d="m-448-320.4124-63.6185-63.6184z"/><path d="m-512-383.8396.3815-.1912z"/><path d="m-512-415.8396 1.1429-.5728z"/><path d="m-608 119.5876v24z"/><path d="m-608 79.5876v24z"/><path d="m-400-128.4124v31.3572z"/><path d="m-384-128.4124v-64z"/><path d="m-384-128.4124v-64z"/><path d="m-352-128.4124h32z"/><path d="m-320-128.4124h-32z"/><path d="m-320-128.4124h-32v-32h32z"/><path d="m-320-160.4124v32z"/><path d="m-320-160.4124h32z"/><path d="m-288-160.4124v32z"/><path d="m-320-.4124v-128h-32v128z"/><path d="m-320-.4124v-128z"/><path d="m-288-128.4124v128z"/><path d="m-352-128.4124h-32v-64h32z"/><path d="m-352-128.4124h-32v128h32z"/><path d="m-384.2863-128.4124h-15.7137z"/><path d="m-400-128.4124h16v-64h-16z"/><path d="m-384-128.4124h-.2863l-15.7137 31.3572v96.6428h16z"/><path d="m-432-96.4124h16z"/><path d="m-448-128.4124h48v-64h-48z"/><path d="m-448-96.4124h16v-32h-16z"/><path d="m-400-96.4124v-32h-16v32z"/><path d="m-416-128.4124h-16z"/><path d="m-432-128.4124v32z"/><path d="m-416-96.4124v-32z"/><path d="m-448-96.4124v96h48v-96z"/><path d="m-448-.4124v-128.5714l-64.4295 128.5714z"/><path d="m-512.4295-.4124 64.4295-128.5714z"/><path d="m-448 95.5876v32z"/><path d="m-320-.4124h-32v96h32z"/><path d="m-320 31.5876v64z"/><path d="m-288-.4124v96z"/><path d="m-352 95.5876v32h32v-32z"/><path d="m-352-.4124h-96v96h96z"/><path d="m-448 127.5876h96z"/><path d="m-448 95.5876v32h96v-32z"/><path d="m-544 63.5876h96v-64h-64.4295l-31.5705 63z"/><path d="m-544 62.5876 31.5705-63z"/><path d="m-608 79.5876h32v-16h-32z"/><path d="m-544.5011 63.5876h.5011v-1z"/><path d="m-576 79.5876v8z"/><path d="m-544.5011 63.5876h-31.4989z"/><path d="m-576 79.5876h-32z"/><path d="m-608 63.5876h32z"/><path d="m-608 103.5876h32z"/><path d="m-576 119.5876h-32z"/><path d="m-608 119.5876h32v-16h-32z"/><path d="m-608 143.5876h32z"/><path d="m-608 159.5876h32v-16h-32z"/><path d="m-576 191.2907 32-7.9834z"/><path d="m-576 191.2907v.2969z"/><path d="m-576 191.5876h-32z"/><path d="m-768 103.5876v-24z"/><path d="m-768 143.5876v-24z"/><path d="m-640 191.5876h-96v-32h96z"/><path d="m-768 63.5876v96h160v-96z"/><path d="m-768 63.5876h160z"/><path d="m-640 159.5876v32z"/><path d="m-640 191.5876h32z"/><path d="m-640 159.5876h-96z"/><path d="m-768 191.5876h32z"/><path d="m-800 79.5876h32v-16h-32z"/><path d="m-800 119.5876h32v-16h-32z"/><path d="m-800 159.5876h32v-16h-32z"/><path d="m-928 63.5876v-32h96v32z"/><path d="m-800 103.5876h32z"/><path d="m-800 103.5876v-24z"/><path d="m-768 79.5876h-32z"/><path d="m-800 63.5876h-32z"/><path d="m-832 63.5876h-96z"/><path d="m-800 143.5876v-24z"/><path d="m-800 192v-.4124z"/><path d="m-800 143.5876h32z"/><path d="m-768 119.5876h-32z"/><path d="m-800 191.5876h32z"/><path d="m-928 159.5876v.4784z"/><path d="m-960 159.5876h32z"/><path d="m-800 192-32-7.9835z"/><path d="m-928-.4124v32z"/><path d="m-864 31.5876h-64z"/><path d="m-960 159.5876v-96z"/><path d="m-448-320.4124-63.6185-63.6184 63.6185-31.8804z"/><path d="m-384-288.4124v32h32v-32z"/><path d="m-400-288.4124h-16v-32h16z"/><path d="m-448-192.4124v-96h64v96z"/><path d="m-448-416.3409 48.0716 95.9285h-48.0716z"/><path d="m-432-288.4124h-16v-32h16z"/><path d="m-544-367.8039 32-16.0357v-12l-32 16.0357z"/><path d="m-352-192.4124v-64h-32v64z"/><path d="m-448-415.9112v-.4297z"/><path d="m-352-288.4124h.1074z"/><path d="m-384-288.4124h.1074z"/><path d="m-351.8926-288.4124-64.1432-128z"/><path d="m-448-416.3409 48.0716 95.9285z"/><path d="m-384-192.4124v-64z"/><path d="m-384-256.4124v-32z"/><path d="m-352-256.4124v64z"/><path d="m-352-288.4124v32z"/><path d="m-512-383.8396-32 16.0357z"/><path d="m-512-383.8396.3815-.1912z"/><path d="m-511.6185-384.0308 63.6185-31.8804z"/><path d="m-544-399.8039 32-16.0357z"/><path d="m-367.9284-320.4124-48.1074-96z"/><path d="m-383.8926-288.4124-16.0358-32z"/><path d="m-384-192.4124v-96z"/><path d="m-512-415.8396 1.1429-.5728z"/><path d="m-576-383.7681 32-16.0358z"/><path d="m-544-367.8039-32 16.0358z"/><path d="m-752-384.4124h16z"/><path d="m-752-552.4124v168z"/><path d="m-768-552.4124h16z"/><path d="m-736-352.4124v-8h-32v8z"/><path d="m-736-352.4124v-8z"/><path d="m-576-352.4124h-160z"/><path d="m-736-360.4124h-32z"/><path d="m-864-512.4124v128z"/><path d="m-864-512.4124v128z"/><path d="m-784-512.4124h-80z"/><path d="m-768-552.4124h-96z"/><path d="m-864-552.4124h96z"/><path d="m-784-384.4124v-128z"/><path d="m-864-552.4124h-32z"/><path d="m-896-552.4124v168z"/><path d="m-864-352.4124h80v-32h-80z"/><path d="m-928-192.4124v-32z"/><path d="m-928-224.4124v-64z"/><path d="m-784-352.4124h-80z"/><path d="m-784-352.4124h16z"/><path d="m-928-288.4124 64-64z"/><path d="m-960-224.4124v32z"/><path d="m-784-384.4124v32z"/><path d="m-960-224.4124v-160z"/><path d="m-320-.4124h4z"/><path d="m-448.4295-.4124h.4295z"/><path d="m-320-128.4124v-32h32v32z"/><path d="m-384-160.4124v32h32v-32z"/><path d="m-400.3221-96.4124h-15.6779v-32h16v31.3572z"/><path d="m-448-1.2695v-95.1429h47.6779z"/><path d="m-384-128.4124h-64v-64h64z"/><path d="m-432-96.4124h-16v-32h16z"/><path d="m-512.4295-.4124 64.4295-128.5714v127.7143l-.4295.8571z"/><path d="m-316-128.4124h28v128h-28z"/><path d="m-352-160.4124v-32h-32v32z"/><path d="m-384-128.4124h-.2863z"/><path d="m-384-160.4124v-32z"/><path d="m-352-192.4124v32z"/><path d="m-352-160.4124v32z"/><path d="m-316-.4124v-128z"/><path d="m-448-1.2695 48-95.7857z"/><path d="m-448-192.4124v63.4286z"/><path d="m-288-128.4124v-32z"/><path d="m-320-160.4124h32z"/><path d="m-288-.4124v-128z"/><path d="m-384-128.4124h32z"/><path d="m-400-97.0552 15.7137-31.3572z"/><path d="m-576 159.5876h-32v-16h32z"/><path d="m-576 79.5876h-32v-16h32z"/><path d="m-576 119.5876h-32v-16h32z"/><path d="m-576 159.2907v-95.7031h128v63.7691z"/><path d="m-448 63.5876h-32.5011l32.0716-64h.4295z"/><path d="m-544.5011 63.5876 32.0716-64h64l-32.0716 64z"/><path d="m-320-.4124h32v160h-32z"/><path d="m-448-.4124v127.7691z"/><path d="m-448 159.3567v.2309z"/><path d="m-320 159.5876v-160z"/><path d="m-448 159.5876h128z"/><path d="m-608 159.5876h32z"/><path d="m-576 159.2907v.2969z"/><path d="m-576 191.2907 127.0744-31.7031z"/><path d="m-288 95.5876v-96z"/><path d="m-288 127.5876v-32z"/><path d="m-352 159.5876h32z"/><path d="m-544.5011 63.5876.5011-1z"/><path d="m-544 183.3073 96-23.9506z"/><path d="m-576 191.2907v.2969z"/><path d="m-576 191.5876h-32z"/><path d="m-640 63.5876h32v96h-32z"/><path d="m-640 159.5876h32z"/><path d="m-608 191.5876h-32z"/><path d="m-736 159.5876v32z"/><path d="m-736 191.5876h96v-32h-96z"/><path d="m-736 63.5876h96v96h-96z"/><path d="m-736 159.5876h96z"/><path d="m-640 191.5876h-96z"/><path d="m-768 159.5876v-96h32v96z"/><path d="m-768 159.5876h32z"/><path d="m-736 191.5876h-32z"/><path d="m-768 79.5876h-32v-16h32z"/><path d="m-800 63.5876h32z"/><path d="m-800 63.5876v40h-128v-40z"/><path d="m-800 160v-.4124z"/><path d="m-768 119.5876h-32v-16h32z"/><path d="m-768 159.5876h-32v-16h32z"/><path d="m-800 159.5876h32z"/><path d="m-768 191.5876h-32z"/><path d="m-800 103.5876v56.4124l-128-31.934v-24.4784z"/><path d="m-928 159.5876v.4784z"/><path d="m-928 128.066v-24.4784z"/><path d="m-800 160-128-31.934z"/><path d="m-960 159.5876h32z"/><path d="m-800 192-128-31.934z"/><path d="m-960 159.5876v-56z"/><path d="m-768-384.4124h16z"/><path d="m-768-552.4124h16v168h-16z"/><path d="m-752-552.4124v168z"/><path d="m-864-384.4124h-32z"/><path d="m-864-384.4124h80z"/><path d="m-864-384.4124h80v-128h-80z"/><path d="m-784-552.4124h16v168h-16z"/><path d="m-864-384.4124h-32v-128h32z"/><path d="m-896-512.4124v-40h112v40z"/><path d="m-864-384.4124v-128z"/><path d="m-864-512.4124h80z"/><path d="m-784-512.4124v128z"/><path d="m-896-552.4124h32z"/><path d="m-784-352.4124h-80z"/><path d="m-784-384.4124h-80z"/><path d="m-784-384.4124h-80v-128h80z"/><path d="m-960-224.4124v32z"/><path d="m-928-192.4124v128z"/><path d="m-928-224.4124v32z"/><path d="m-928-224.4124v32z"/><path d="m-960-192.4124v-32z"/><path d="m-608 167.5876v-8z"/><path d="m-576 191.5876v-.2969z"/><path d="m-576 191.5876v-.2969z"/><path d="m-576 159.5876v8z"/><path d="m-608 167.5876v-8h32v8z"/><path d="m-576 167.5876h-32z"/><path d="m-608 191.5876h32z"/><path d="m-608 191.5876h32z"/><path d="m-928-192.4124v128z"/><path d="m-960-192.4124v128z"/><path d="m-960-64.4124v-128z"/><path d="m-768 159.5876v8z"/><path d="m-800 167.5876v-8h32v8z"/><path d="m-800 191.5876h32z"/><path d="m-608 159.5876h32z"/><path d="m-576 167.5876v-8h-32v8z"/><path d="m-576 191.2907v.2969z"/><path d="m-576 191.2907 127.0744-31.7031z"/><path d="m-576 191.5876h-32z"/><path d="m-800 160v-.4124z"/><path d="m-800 167.5876v-7.5876z"/><path d="m-768 167.5876v-8h-32v8z"/><path d="m-800 159.5876h32z"/><path d="m-800 191.5876h32z"/><path d="m-800 167.5876h32z"/><path d="m-576-351.7681v-.6443z"/><path d="m-576-384.4124v.6443z"/><path d="m-416-416.4124h-.0358z"/><path d="m-416-448.4124v32z"/><path d="m-448-447.9112v-.5012z"/><path d="m-448-448.4124h32z"/><path d="m-510.8571-416.4124 62.8571-31.4988z"/><path d="m-448-416.3409v.4297z"/><path d="m-351.8926-288.4124h-.1074z"/><path d="m-384-288.4124h.1074z"/><path d="m-383.8926-288.4124-16.0358-32z"/><path d="m-448-416.3409 64.1074 127.9285z"/><path d="m-384-192.4124v-96z"/><path d="m-576-351.7681 128-64.1431z"/><path d="m-544-367.8039-32 16.0358z"/><path d="m-576-383.7681 32-16.0358z"/><path d="m-512-415.8396 1.1429-.5728z"/><path d="m-768-384.4124h192z"/><path d="m-736-352.4124h-32z"/><path d="m-576-352.4124h-160z"/><path d="m-784-384.4124h16z"/><path d="m-864-352.4124h96z"/><path d="m-864-352.4124-64 64z"/><path d="m-960-384.4124v192z"/><path d="m-960-224.4124v-160z"/><path d="m-448-.4124h-.4295z"/><path d="m-416.4295-.4124h.4295z"/><path d="m-352-128.4124h-.2863z"/><path d="m-352-128.4124h36z"/><path d="m-384.2863-128.4124h.2863z"/><path d="m-384-128.4124v-32z"/><path d="m-352-128.4124v-64z"/><path d="m-416.4295-.4124 64.1432-128h36.2863v128z"/><path d="m-384.2863-128.4124-63.7137 127.1429z"/><path d="m-416.4295-.4124 64.1432-128z"/><path d="m-384.2863-128.4124-15.7137 31.3572z"/><path d="m-448.4295-.4124.4295-.8571z"/><path d="m-448 159.5876v-.2309z"/><path d="m-448-.4124v127.7691z"/><path d="m-320 159.5876h-96v-160h96z"/><path d="m-416 159.5876h-32z"/><path d="m-576 159.5876h-32z"/><path d="m-576 159.5876v-.2969z"/><path d="m-576 159.2907 128-31.934z"/><path d="m-576 159.2907 128-31.934z"/><path d="m-448.9256 159.5876.9256-.2309z"/><path d="m-576 191.2907v.2969z"/><path d="m-576 191.2907 127.0744-31.7031z"/><path d="m-928-32.4124v-32z"/><path d="m-928-192.4124v192z"/><path d="m-608 191.5876h-32z"/><path d="m-640 191.5876h-96z"/><path d="m-736 191.5876h-32z"/><path d="m-928 63.5876v-32z"/><path d="m-928 31.5876v-32z"/><path d="m-928-.4124v104z"/><path d="m-928 103.5876v-40z"/><path d="m-960-.4124v104z"/><path d="m-800 191.5876v.4124z"/><path d="m-800 160v-.4124z"/><path d="m-768 191.5876h-32z"/><path d="m-928 160.066v-.4784z"/><path d="m-928 103.5876v24.4784z"/><path d="m-928 128.066 128 31.934z"/><path d="m-800 192-128-31.934z"/><path d="m-928 159.5876h-32z"/><path d="m-960 103.5876v56z"/></g><g id="e"><path d="m-576-352.4124v-31.3557z"/><path d="m-416-416.4124h-.0358l-16.0358-32h16.0716z"/><path d="m-448-448.4124h15.9284l16.0358 32h-31.9642z"/><path d="m-510.8571-416.4124 62.8571-31.4988z"/><path d="m-448-448.4124h32z"/><path d="m-448-416.4124v.0715z"/><path d="m-416.0358-416.4124 64.1432 128h-32l-64.1074-127.9285v-.0715z"/><path d="m-384-288.4124v-.2142l-64-127.7143v127.9285z"/><path d="m-448-416.3409 64 127.7143z"/><path d="m-416.0358-416.4124 64.1432 128z"/><path d="m-384-192.4124v-96h32v96z"/><path d="m-384-192.4124v-96h-64v96z"/><path d="m-384-288.4124v96z"/><path d="m-352-192.4124v-96z"/><path d="m-448-415.9112-128 64.1431v159.3557h128z"/><path d="m-576-383.7681 65.1429-32.6443z"/><path d="m-768-352.4124h192z"/><path d="m-768-352.4124h192z"/><path d="m-768-384.4124h192v32h-192z"/><path d="m-576-192.4124v-160h-192v160z"/><path d="m-960-384.4124h192z"/><path d="m-928-288.4124v96z"/><path d="m-928-192.4124v-160z"/><path d="m-928-352.4124v-32h160v32z"/><path d="m-800-192.4124v-160h-64l-64 64v96z"/><path d="m-768-352.4124h-32v160h32z"/><path d="m-960-384.4124h32v192h-32z"/><path d="m-384-192.4124v63.4286z"/><path d="m-384-128.4124v-64z"/><path d="m-352-128.4124h-32v-64h32z"/><path d="m-384.2863-128.4124.2863-.5714v-63.4286h-64v64z"/><path d="m-416.4295-.4124h-31.5705v-.8571l63.7137-127.1429h32z"/><path d="m-448-1.2695 63.7137-127.1429h-63.7137z"/><path d="m-448-1.2695 63.7137-127.1429z"/><path d="m-576-192.4124v192h127.5705l.4295-.8571v-191.1429z"/><path d="m-576-.4124v-192h-32v192z"/><path d="m-448-1.2695-.4295.8571z"/><path d="m-448 127.3567v-127.7691z"/><path d="m-448-.4124h32v160h-32z"/><path d="m-416-.4124v160z"/><path d="m-576 159.5876h-32z"/><path d="m-576 159.2907v.2969z"/><path d="m-448 127.3567v-127.7691h-.4295l-73.2374 146.1479z"/><path d="m-576 159.5876v-.2969l128-31.934v32l-.9256.2309z"/><path d="m-576-.4124v159.7031l54.3331-13.5552 73.2374-146.1479z"/><path d="m-576 159.2907 128-31.934z"/><path d="m-448.9256 159.5876.9256-.2309z"/><path d="m-608 159.5876h32v-160h-32z"/><path d="m-576 191.2907v-31.7031h127.0744z"/><path d="m-576 159.5876v32h-32v-32z"/><path d="m-576 191.5876h-32z"/><path d="m-800-.4124v-192h-32v192z"/><path d="m-608-.4124v-192h-192v192z"/><path d="m-928-192.4124v192h-32v-192z"/><path d="m-832-192.4124h-96v192h96z"/><path d="m-928-.4124v-192z"/><path d="m-960-192.4124v192z"/><path d="m-608 63.5876v-64h-160v64z"/><path d="m-768 159.5876h160v-96h-160z"/><path d="m-608 191.5876h-160v-32h160z"/><path d="m-608 159.5876h-160z"/><path d="m-608 159.5876h-32z"/><path d="m-640 159.5876h-96z"/><path d="m-736 159.5876h-32z"/><path d="m-768 103.5876v-104h-32v104z"/><path d="m-928 103.5876v-104z"/><path d="m-800 63.5876v-64h-128v64z"/><path d="m-800 103.5876v-40h-128v40z"/><path d="m-928-.4124v104h-32v-104z"/><path d="m-960-.4124v104z"/><path d="m-800 159.5876v.4124z"/><path d="m-768 159.5876h-32z"/><path d="m-768 159.5876h-32z"/><path d="m-800 159.5876h32v-56h-32z"/><path d="m-768 191.5876h-32v-32h32z"/><path d="m-928 103.5876v56h-32v-56z"/><path d="m-928 128.066 128 31.934v-56.4124h-128z"/><path d="m-800 192-128-31.934v-32l128 31.934z"/><path d="m-800 160-128-31.934z"/><path d="m-800 192-128-31.934z"/><path d="m-960 103.5876v56z"/></g><g id="f"><path d="m-448-447.9112v31.4988z"/><path d="m-510.8571-416.4124 62.8571-31.4988v31.4988z"/><path d="m-384-288.6266v.2142z"/><path d="m-448-416.3409 64 127.7143v.2142h-64z"/><path d="m-384-288.4124v96h-64v-96z"/><path d="m-576-192.4124v-191.3557l65.1429-32.6443h62.8571v224z"/><path d="m-576-383.7681 65.1429-32.6443z"/><path d="m-576-352.4124v160h-192v-160z"/><path d="m-928-352.4124h160z"/><path d="m-800-352.4124v160h-128v-160z"/><path d="m-768-192.4124h-32v-160h32z"/><path d="m-448-.4124v-.8571z"/><path d="m-384-192.4124v63.4286l-.2863.5714h-63.7137v-64z"/><path d="m-384.2863-128.4124.2863-.5714z"/><path d="m-384.2863-128.4124-63.7137 127.1429v-127.1429z"/><path d="m-576-.4124v-192h128v192z"/><path d="m-576-192.4124v192h-32v-192z"/><path d="m-448 127.3567-128 31.934v-159.7031h128z"/><path d="m-576-.4124v160h-32v-160z"/><path d="m-800-192.4124v192h-32v-192z"/><path d="m-800-.4124v-192h192v192z"/><path d="m-832-.4124h-96v-192h96z"/><path d="m-768 63.5876v-64h160v64z"/><path d="m-608 159.5876h-160v-96h160z"/><path d="m-800 103.5876v-104h32v104z"/><path d="m-800-.4124v64h-128v-64z"/><path d="m-800 63.5876v40h-128v-40z"/><path d="m-768 159.5876h-32v-56h32z"/><path d="m-928 128.066v-24.4784z"/><path d="m-800 103.5876v56.4124l-128-31.934v-24.4784z"/></g></defs><g stroke="#000"><use fill="none" stroke-miterlimit="0" stroke-width="10" xlink:href="#a"/><use fill="#bfbfbf" xlink:href="#a"/><use fill="none" stroke-miterlimit="0" stroke-width="10" xlink:href="#b"/><use fill="#ccc" xlink:href="#b"/><use fill="none" stroke-miterlimit="0" stroke-width="10" xlink:href="#c"/><use fill="#d9d9d9" xlink:href="#c"/><use fill="none" stroke-miterlimit="0" stroke-width="10" xlink:href="#d"/><use fill="#e5e5e5" xlink:href="#d"/><use fill="none" stroke-miterlimit="0" stroke-width="10" xlink:href="#e"/><use fill="#f2f2f2" xlink:href="#e"/><use fill="none" stroke-miterlimit="0" stroke-width="10" xlink:href="#f"/><use fill="#fff" xlink:href="#f"/></g></svg>