<svg viewBox="-1212 -948 1780 2304" xmlns="http://www.w3.org/2000/svg" xmlns:xlink="http://www.w3.org/1999/xlink"><defs><g id="a"><path d="m208 1080v40 16 40z"/><path d="m-800 1080h-224z"/><path d="m-576 1080h-224z"/><path d="m-352 1080h-224z"/><path d="m-128 1080h-224z"/><path d="m96 1080h-224z"/><path d="m208 1176h-112z"/><path d="m-800 1176h-224v-96h224z"/><path d="m-576 1176h-224v-96h224z"/><path d="m-352 1176h-224v-96h224z"/><path d="m-128 1176h-224v-96h224z"/><path d="m96 1176h-224v-96h224z"/><path d="m208 1080v96h-112v-96z"/><path d="m-112 456h-128z"/><path d="m-688 232v96 128-144-48z"/><path d="m-688 8v96 128-192z"/><path d="m-464-120h-224 184z"/><path d="m-240-120h-224 144z"/><path d="m-112-120v128z"/><path d="m-688 8v-128h224v224h-224z"/><path d="m-464 104v224h-224v-96-128z"/><path d="m-464 328v128h-224v-128z"/><path d="m-464-120h224v224h-224z"/><path d="m-240 104v224h-224v-224z"/><path d="m-240 328v128h-224v-128z"/><path d="m-240-120h128v128 96h-128z"/><path d="m-112 104v128 96h-128v-224z"/><path d="m-112 328v128h-128v-128z"/><path d="m-1024 1080v96z"/><path d="m-800 1080h-224 32 16 32 16 32 16 32 16z"/><path d="m-576 1080h-224 16 32 16 32 16 32 16 32 16z"/><path d="m-352 1080h-224 16 16 32 16 32 16 32 16 32z"/><path d="m-128 1080h-224 32 16 32 16 32 16 32 16z"/><path d="m96 1080h-224 16 32 16 32 16 32 16 32 16z"/><path d="m208 1080h-112z"/><path d="m208 1176h-32-16-32-16-16z"/><path d="m-800 1176h-224z"/><path d="m-576 1176h-224z"/><path d="m-352 1176h-224z"/><path d="m-128 1176h-224z"/><path d="m96 1176h-224z"/><path d="m-800 1176h224 224 224 224 112v-40-16-40h-112-224-224-224-224-224v96z"/><path d="m-800 1080h224 224 224 224 112v40 16 40h-112-224-224-224-224-224v-96z"/><path d="m-688 456v-144h48 48v144z"/><path d="m-640 312h-48v144h96v-144z"/><path d="m-640 264v-24-36h48v108h-48z"/><path d="m-592 204h-48v36 24 48h48z"/><path d="m-464 456h192v-144-108h-48-184-88v108 144z"/><path d="m-504 204h184 48v108 144h-192-128v-144-108z"/><path d="m-160 312h-112v144h32 128v-144z"/><path d="m-240 456h-32v-144h112 48v144z"/><path d="m-272 204h112v36 24 48h-112z"/><path d="m-160 264v-24-36h-112v108h112z"/><path d="m-640 240v-36-100-64h-48v192 32h48z"/><path d="m-688 264v48h48v-48z"/><path d="m-640 104v-64h136v164h-88-48z"/><path d="m-504 40h-136v64 100h48 88z"/><path d="m-640 40h136v-160h-184v128 32z"/><path d="m-504-120v160h-136-48v-32-128z"/><path d="m-504 40v-160h40 144v160 164h-184z"/><path d="m-320 40v-160h-144-40v160 164h184z"/><path d="m-160 104v-64h-160v164h48 112z"/><path d="m-320 40h160v64 100h-112-48z"/><path d="m-112 232v-192h-48v64 100 36 24h48z"/><path d="m-160 264v48h48v-48z"/><path d="m-160 40h-160v-160h80 128v128 32z"/><path d="m-240-120h-80v160h160 48v-32-128z"/><path d="m-112 40h-48z"/><path d="m-464-120h-40-184z"/><path d="m-240-120h-80-144 24 112z"/><path d="m-160 104v-64z"/><path d="m-688 312h48z"/><path d="m-640 240v24 48z"/><path d="m-160 204v-100h-41.8461l-.0001 136h41.8462z"/><path d="m-112 456h-32-96z"/><path d="m-464 456h-128-96z"/><path d="m-240 456h-32-192z"/><path d="m-688-120v128z"/><path d="m-112-120h-128z"/><path d="m-112 232v32 48 144-128z"/><path d="m-112 8v32 192-128z"/><path d="m208 1176v-40z"/><path d="m208 1120v16z"/><path d="m208 1120v-40z"/><path d="m-1024 1136v40z"/><path d="m-1024 1136v-16-40 96z"/><path d="m-1024 1080v40z"/><path d="m112 1080h16 32 16 32-112z"/><path d="m-800 1176h-32-16-32-16-32-16-32-16-32z"/><path d="m-576 1176h-16-16-32-16-32-16-32-16-32-16z"/><path d="m-352 1176h-16-32-16-32-16-32-16-32-16-16z"/><path d="m-128 1176h-32-16-32-16-32-16-32-16-32z"/><path d="m96 1176h-16-16-32-16-32-16-32-16-32-16z"/><path d="m-368 1120v-40z"/><path d="m-80 1120v-40z"/><path d="m32 1136v40z"/><path d="m128 1136v40z"/><path d="m128 1120h32z"/><path d="m176 1120h32z"/><path d="m160 1120v-40z"/><path d="m160 1080v40h16v-40z"/><path d="m160 1136h-32z"/><path d="m160 1136h16 32v-16h-32-16-32v16z"/><path d="m176 1136v40z"/><path d="m160 1136v40h16v-40z"/><path d="m112 1120v-40z"/><path d="m128 1136v-16-40h-16v40 16 40h16z"/><path d="m112 1136h-32z"/><path d="m64 1136h-32z"/><path d="m80 1120h32z"/><path d="m32 1120h32z"/><path d="m64 1120v-40z"/><path d="m64 1080v40h16v-40z"/><path d="m64 1136h16 32v-16h-32-16-32v16z"/><path d="m80 1136v40z"/><path d="m64 1136v40h16v-40z"/><path d="m-32 1120v-40z"/><path d="m16 1120v-40z"/><path d="m32 1136v-16-40h-16v40 16 40h16z"/><path d="m-16 1136v40z"/><path d="m-16 1120h32z"/><path d="m16 1136h-32z"/><path d="m16 1120h-32v16h32z"/><path d="m-16 1136v-16-40h-16v40 16 40h16z"/><path d="m-64 1136v40z"/><path d="m-32 1136h-32z"/><path d="m-64 1120h32z"/><path d="m-32 1120h-32v16h32z"/><path d="m-64 1136v-16-40h-16v40 16 40h16z"/><path d="m-256 1136v40z"/><path d="m-160 1136v40z"/><path d="m-160 1120h32z"/><path d="m-112 1120h32z"/><path d="m-128 1120v-40z"/><path d="m-128 1080v40h16v-40z"/><path d="m-80 1136h-32z"/><path d="m-128 1136h-32z"/><path d="m-128 1136h16 32v-16h-32-16-32v16z"/><path d="m-112 1136v40z"/><path d="m-128 1136v40h16v-40z"/><path d="m-176 1120v-40z"/><path d="m-160 1136v-16-40h-16v40 16 40h16z"/><path d="m-176 1136h-32z"/><path d="m-224 1136h-32z"/><path d="m-208 1120h32z"/><path d="m-256 1120h32z"/><path d="m-224 1120v-40z"/><path d="m-224 1080v40h16v-40z"/><path d="m-224 1136h16 32v-16h-32-16-32v16z"/><path d="m-208 1136v40z"/><path d="m-224 1136v40h16v-40z"/><path d="m-352 1136v40z"/><path d="m-272 1120v-40z"/><path d="m-256 1136v-16-40h-16v40 16 40h16z"/><path d="m-272 1136h-32z"/><path d="m-320 1136h-32z"/><path d="m-304 1120h32z"/><path d="m-352 1120h32z"/><path d="m-320 1120v-40z"/><path d="m-320 1080v40h16v-40z"/><path d="m-320 1136h16 32v-16h-32-16-32v16z"/><path d="m-304 1136v40z"/><path d="m-320 1136v40h16v-40z"/><path d="m-352 1136v-16-40h-16v40 16 40h16z"/><path d="m-704 1120v-40z"/><path d="m-512 1120v-40z"/><path d="m-496 1136v40z"/><path d="m-496 1120h32z"/><path d="m-448 1120h32z"/><path d="m-400 1120h32z"/><path d="m-416 1120v-40z"/><path d="m-416 1080v40h16v-40z"/><path d="m-464 1120v-40z"/><path d="m-464 1080v40h16v-40z"/><path d="m-464 1136h-32z"/><path d="m-416 1136h-32z"/><path d="m-368 1136h-32z"/><path d="m-464 1136h16 32 16 32v-16h-32-16-32-16-32v16z"/><path d="m-400 1136v40z"/><path d="m-416 1136v40h16v-40z"/><path d="m-448 1136v40z"/><path d="m-464 1136v40h16v-40z"/><path d="m-496 1136v-16-40h-16v40 16 40h16z"/><path d="m-608 1120v-40z"/><path d="m-592 1136v40z"/><path d="m-512 1136h-32z"/><path d="m-560 1136h-32z"/><path d="m-592 1120h32z"/><path d="m-544 1120h32z"/><path d="m-560 1120v-40z"/><path d="m-560 1080v40h16v-40z"/><path d="m-560 1136h16 32v-16h-32-16-32v16z"/><path d="m-544 1136v40z"/><path d="m-560 1136v40h16v-40z"/><path d="m-592 1136v-16-40h-16v40 16 40h16z"/><path d="m-688 1136v40z"/><path d="m-608 1136h-32z"/><path d="m-656 1136h-32z"/><path d="m-640 1120h32z"/><path d="m-688 1120h32z"/><path d="m-656 1120v-40z"/><path d="m-656 1080v40h16v-40z"/><path d="m-656 1136h16 32v-16h-32-16-32v16z"/><path d="m-640 1136v40z"/><path d="m-656 1136v40h16v-40z"/><path d="m-688 1136v-16-40h-16v40 16 40h16z"/><path d="m-848 1120v-40z"/><path d="m-784 1136v40z"/><path d="m-736 1120h32z"/><path d="m-784 1120h32z"/><path d="m-752 1120v-40z"/><path d="m-752 1080v40h16v-40z"/><path d="m-752 1136h-32z"/><path d="m-704 1136h-32z"/><path d="m-752 1136h16 32v-16h-32-16-32v16z"/><path d="m-736 1136v40z"/><path d="m-752 1136v40h16v-40z"/><path d="m-800 1120v-40z"/><path d="m-784 1136v-16-40h-16v40 16 40h16z"/><path d="m-832 1136v40z"/><path d="m-832 1120h32z"/><path d="m-800 1136h-32z"/><path d="m-800 1120h-32v16h32z"/><path d="m-832 1136v-16-40h-16v40 16 40h16z"/><path d="m-896 1120v-40z"/><path d="m-880 1136v40z"/><path d="m-848 1136h-32z"/><path d="m-880 1120h32z"/><path d="m-848 1120h-32v16h32z"/><path d="m-880 1136v-16-40h-16v40 16 40h16z"/><path d="m-976 1136v40z"/><path d="m-896 1136h-32z"/><path d="m-944 1136h-32z"/><path d="m-976 1120h32z"/><path d="m-928 1120h32z"/><path d="m-944 1120v-40z"/><path d="m-944 1080v40h16v-40z"/><path d="m-944 1136h16 32v-16h-32-16-32v16z"/><path d="m-928 1136v40z"/><path d="m-944 1136v40h16v-40z"/><path d="m-992 1120v-40z"/><path d="m-976 1136v-16-40h-16v40 16 40h16z"/><path d="m-992 1136h-32z"/><path d="m-992 1120h-32v16h32z"/><path d="m-656 1048h-176-48 48z"/><path d="m-432 1048h-176-48 48z"/><path d="m-208 1048h-176-48 48z"/><path d="m16 1048h-176-48 48z"/><path d="m-632-800h-224 148 32z"/><path d="m-336-800h-104-120 200z"/><path d="m-112-800h-216-8 200z"/><path d="m112-800h-32-184-8 200z"/><path d="m-1064-800v192z"/><path d="m-1064 264v24 180 20-20-180z"/><path d="m-1064 40v24 200-200z"/><path d="m-1064-184v24 200-200z"/><path d="m-1064-408v24 200-200z"/><path d="m-856-608v-16z"/><path d="m240-624v-176z"/><path d="m80-624v-176h32 96v176 16h-128z"/><path d="m240-800v176h-16-16v-176z"/><path d="m208-624v16z"/><path d="m72-624h-176z"/><path d="m-104-624h-224v-176h216 8z"/><path d="m80-800v176h-8-176v-176z"/><path d="m-440-624v16z"/><path d="m-440-624v-176h104 8v176 16h-112z"/><path d="m-440-624h-144-32z"/><path d="m-632-624h-208-16v-176h224z"/><path d="m-560-800h120v176h-176-16v-176z"/><path d="m-1064-800h208v176 16h-200-8z"/><path d="m-1056 924h16v28h-16z"/><path d="m-880 924h48 136v28h-184z"/><path d="m-1056 728v-16h224v212h-48-144-16-16z"/><path d="m-832 712h48 88v160 16 32 4h-136z"/><path d="m-1056 592v-40h16v40z"/><path d="m-1056 468h16v20h-16z"/><path d="m-832 712h-224v-120h16 16 144 48z"/><path d="m-784 592v40 80h-48v-120z"/><path d="m-880 552h96v40h-48-48z"/><path d="m-880 488v-20h24v20z"/><path d="m-752 264v112h-104v-88-24z"/><path d="m-688 456h96v16 64h-112-32v-80z"/><path d="m-712 632h16v80h-88v-80z"/><path d="m-592 568h48v56 24 64h-72v-112-32z"/><path d="m-416 648v64h-128v-64z"/><path d="m-544 624v-56h24 80 24v56z"/><path d="m-528 472h8v64h-8z"/><path d="m-520 568v-16h80v16z"/><path d="m-520 536v-64h80v64 16h-80z"/><path d="m-440 472h8v64h-8z"/><path d="m-752 376v-112h16v112z"/><path d="m-736 428v-52-112-60h32 16v108 116z"/><path d="m-688 456h-48v-28h48z"/><path d="m-640 240v72h-48v-108h48z"/><path d="m-392 824h-224v-112h72 128 24z"/><path d="m-344 712v112h-48v-112z"/><path d="m-80 756v168 12h-32v-192h32z"/><path d="m48 936h-128v-12h128z"/><path d="m-80 756v-12h112 16v12z"/><path d="m144 924h-80-16-128v-168h128 16 80z"/><path d="m208 756v168h-64v-168z"/><path d="m208 924v-168-12h16 16v192h-32z"/><path d="m32 692v-12h16v12z"/><path d="m-272 472v64h-96v-64z"/><path d="m-416 648v-24-56h72v32 112h-48-24z"/><path d="m-368 472h-64-8-80-8-64v-16h128 96z"/><path d="m-144 472h-64-64-96v-16h128 96z"/><path d="m-112 456v16h-32v-16z"/><path d="m-208 472h64 32v64h-96z"/><path d="m-112 312h-48v-72-36h48z"/><path d="m-112 312v-108h16v140 84h-16z"/><path d="m-96 428v108h-16v-64-16-28z"/><path d="m-72 344h8v192h-32v-108-84z"/><path d="m32 468v-124h8 168v224h-176z"/><path d="m208 568v112h-144-16-16v-112z"/><path d="m-72 204v108 32h-24v-140z"/><path d="m40 204v28 80h-112v-108z"/><path d="m-752 56v120h-104v-112-8z"/><path d="m-752 176v-120h16v120z"/><path d="m-736-168h32v208 16h-32z"/><path d="m-704 56v148h-32v-28-120z"/><path d="m-688 40h48v64 100h-48-16v-148-16z"/><path d="m-704-168h16v48 160h-16z"/><path d="m-440-168v-16h112v16 48h-112z"/><path d="m-464-120h-224v-48h176 48z"/><path d="m-456-168h16v48h-24v-48z"/><path d="m-440-184v-128h68 44v128z"/><path d="m-1056-608h200v216 8h-200z"/><path d="m-856-384v216 8h-200v-224z"/><path d="m-856-160v216 8h-200v-224z"/><path d="m-856 64v112 88 24h-200v-224z"/><path d="m-856 288v88 92h-24-144-16-16v-180z"/><path d="m-440-312v-96-44h44 24v108 20 12z"/><path d="m-372-312v-12h44v12z"/><path d="m-372-344v-108h44v108z"/><path d="m-440-472v-112h44v112z"/><path d="m-328-584v16 116h-44-24v-20-112z"/><path d="m-328-608v24h-68-44v-24z"/><path d="m-104-120h32v128 32h-40v-160z"/><path d="m-72-120v-48h8v176h-8z"/><path d="m-104-120h-8-128-88v-48h224z"/><path d="m-72-168v48h-32v-48z"/><path d="m-112 40h40 112v164h-112-24-16-48v-100-64z"/><path d="m40 204v-164-32h168v112 112h-168z"/><path d="m208 232v112h-168v-32-80z"/><path d="m48-320h16 128 16v216 8h-176v-72-152z"/><path d="m208-96v104h-168-8v-104z"/><path d="m32-320v-8h16v8z"/><path d="m-32-376v-8h80v8z"/><path d="m48-384h-80v-184h96v8 176z"/><path d="m208-320v-8h16v160 64h-16z"/><path d="m224-104v224h-16v-112-104-8z"/><path d="m224 120v224h-16v-112-112z"/><path d="m224 344v112 112h-16v-224z"/><path d="m224 568v112 12h-16v-12-112z"/><path d="m80-560h112v176 64h-128v-64-176z"/><path d="m208-384v-176h16v184h-16z"/><path d="m80-584h112v24h-112z"/><path d="m192-560v-24h16v24 176h-16z"/><path d="m208-584h-16-112v-24h128z"/><path d="m-1056 952h16z"/><path d="m-512-168h-176-16-32 16 34 30 64 34z"/><path d="m-104-168h-224 112z"/><path d="m224-328v160z"/><path d="m224-560v184z"/><path d="m80-608v24 24z"/><path d="m64-560v-8z"/><path d="m64-568h-96z"/><path d="m192-384v64z"/><path d="m-328-584v-24 40z"/><path d="m-328-312v-12z"/><path d="m-328-184v-128z"/><path d="m-440-408v96 128-200z"/><path d="m-856-608v216z"/><path d="m144 756h-80 128 16z"/><path d="m40 8v32z"/><path d="m-72 8h8z"/><path d="m32 8h8z"/><path d="m-64-168v148 28z"/><path d="m32-168v72 104z"/><path d="m32 468v100 112 12-124z"/><path d="m48 680h16z"/><path d="m240 744h-16z"/><path d="m224 744h-16z"/><path d="m208 692h16z"/><path d="m32 692h16z"/><path d="m48 756v-12z"/><path d="m48 744h-16z"/><path d="m-112 536h16z"/><path d="m32 744h-112z"/><path d="m144 924h64-16-128z"/><path d="m48 924h16z"/><path d="m48 936v-12z"/><path d="m-80 936h128z"/><path d="m-160 240h-41.8462-94.1538z"/><path d="m-201.8461 104h-94.1539v136h94.1538z"/><path d="m-640 204v-100h136v136h-136z"/><path d="m-272 536h-96z"/><path d="m-368 472h-64z"/><path d="m-592 536h-88-24z"/><path d="m-856 468v-92 92 20z"/><path d="m-856 176v88z"/><path d="m-752 176h-104z"/><path d="m-752 376h-104z"/><path d="m-752 376h16z"/><path d="m-1040 468h16z"/><path d="m-880 468h-16-128z"/><path d="m-1040 924v28z"/><path d="m-344 568v32z"/><path d="m-616 600v112 112-112z"/><path d="m-344 824h-48z"/><path d="m-696 924v-4 32z"/><path d="m-696 920v-32z"/><path d="m-696 712v-80 80 160z"/><path d="m-880 924h-16-128z"/><path d="m-1040 924h16z"/><path d="m-201.8461 104h41.8461z"/><path d="m-640 104h41.8461z"/><path d="m-112-120v160-32z"/><path d="m-688 40v-160 128z"/><path d="m-640 40h-48z"/><path d="m-112-120h-128z"/><path d="m-640 40v64z"/><path d="m-112 312v116 28z"/><path d="m-688 428v-116 144z"/><path d="m-160 312h48z"/><path d="m-160 312v-48-24z"/><path d="m-160 240h-41.8462z"/><path d="m-598.1539 240h-41.8461z"/><path d="m-598.1539 104h-41.8461v100 36h41.8461z"/><path d="m-464 456h-128-96 96z"/><path d="m-240 456h-128-96 192z"/><path d="m-1064-408v-200h8v224h-8z"/><path d="m-1056-384v224h-8v-24-200z"/><path d="m-1056-160v224h-8v-24-200z"/><path d="m-1056 64v224h-8v-24-200z"/><path d="m-1056 288v180h-8v-180z"/><path d="m-1064 488v-20h8v20z"/><path d="m240 1176v-96-32 160z"/><path d="m-832 1080h-16-32-16-32-16-32-16-32-32v-32h16 16 144 48z"/><path d="m-608 1080h-32-16-32-16-32-16-32-16-32v-32h176 48z"/><path d="m-384 1080h-16-16-32-16-32-16-32-16-32-16v-32h176 48z"/><path d="m-160 1080h-16-32-16-32-16-32-16-32-16-16v-32h176 48z"/><path d="m64 1080h-32-16-32-16-32-16-32-16-32v-32h176 32 16z"/><path d="m208 1048h32v32h-32-32-16-32-16-32-16v-32z"/><path d="m112 1176v-40-16-40h16v40 16 40z"/><path d="m160 1136h-32v-16h32z"/><path d="m112 1136h-32v-16h32z"/><path d="m240 1080v96h-32v-40-16-40z"/><path d="m-832 1208h-224v-32h32 32 16 32 16 32 16 32 16z"/><path d="m-608 1208h-224v-32h32 16 32 16 32 16 32 16 32z"/><path d="m-384 1208h-224v-32h16 32 16 32 16 32 16 32 16 16z"/><path d="m-160 1208h-224v-32h16 16 32 16 32 16 32 16 32 16z"/><path d="m64 1208h-224v-32h32 16 32 16 32 16 32 16 32z"/><path d="m80 1176h32 16 32 16 32 32v32h-176v-32z"/><path d="m208 1136h-32v-16h32z"/><path d="m160 1176v-40-16-40h16v40 16 40z"/><path d="m16 1176v-40-16-40h16v40 16 40z"/><path d="m-80 1176v-40-16-40h16v40 16 40z"/><path d="m-32 1136h-32v-16h32z"/><path d="m16 1136h-32v-16h32z"/><path d="m64 1136h-32v-16h32z"/><path d="m-32 1176v-40-16-40h16v40 16 40z"/><path d="m64 1176v-40-16-40h16v40 16 40z"/><path d="m-128 1176v-40-16-40h16v40 16 40z"/><path d="m-224 1176v-40-16-40h16v40 16 40z"/><path d="m-128 1136h-32v-16h32z"/><path d="m-176 1136h-32v-16h32z"/><path d="m-80 1136h-32v-16h32z"/><path d="m-224 1136h-32v-16h32z"/><path d="m-176 1176v-40-16-40h16v40 16 40z"/><path d="m-320 1176v-40-16-40h16v40 16 40z"/><path d="m-416 1176v-40-16-40h16v40 16 40z"/><path d="m-320 1136h-32v-16h32z"/><path d="m-368 1136h-32v-16h32z"/><path d="m-272 1136h-32v-16h32z"/><path d="m-368 1176v-40-16-40h16v40 16 40z"/><path d="m-272 1176v-40-16-40h16v40 16 40z"/><path d="m-512 1136v-16-40h16v40 16 40h-16z"/><path d="m-560 1136v-16-40h16v40 16 40h-16z"/><path d="m-464 1136v-16-40h16v40 16 40h-16z"/><path d="m-608 1136v-16-40h16v40 16 40h-16z"/><path d="m-704 1136v-16-40h16v40 16 40h-16z"/><path d="m-752 1136v-16-40h16v40 16 40h-16z"/><path d="m-656 1136v-16-40h16v40 16 40h-16z"/><path d="m-800 1136v-16-40h16v40 16 40h-16z"/><path d="m-896 1136v-16-40h16v40 16 40h-16z"/><path d="m-848 1136v-16-40h16v40 16 40h-16z"/><path d="m-992 1136v-16-40h16v40 16 40h-16z"/><path d="m-1056 1080h32v40 16 40h-32z"/><path d="m-944 1136v-16-40h16v40 16 40h-16z"/><path d="m-512 1136h-32v-16h32z"/><path d="m-560 1136h-32v-16h32z"/><path d="m-464 1136h-32v-16h32z"/><path d="m-416 1136h-32v-16h32z"/><path d="m-704 1136h-32v-16h32z"/><path d="m-656 1136h-32v-16h32z"/><path d="m-608 1136h-32v-16h32z"/><path d="m-752 1136h-32v-16h32z"/><path d="m-848 1136h-32v-16h32z"/><path d="m-800 1136h-32v-16h32z"/><path d="m-896 1136h-32v-16h32z"/><path d="m-944 1136h-32v-16h32z"/><path d="m-992 1136h-32v-16h32z"/><path d="m240 1208h-176z"/><path d="m176 1080h32z"/><path d="m80 1080h32-16z"/><path d="m128 1080h32z"/><path d="m32 1080h32z"/><path d="m-16 1080h32z"/><path d="m-64 1080h32z"/><path d="m-256 1080h32z"/><path d="m-112 1080h32z"/><path d="m-208 1080h32z"/><path d="m-160 1080h32z"/><path d="m-304 1080h32z"/><path d="m-352 1080h32z"/><path d="m-400 1080h16 16z"/><path d="m-448 1080h32z"/><path d="m-640 1080h32z"/><path d="m-832 1080h32z"/><path d="m-1024 1080h32z"/><path d="m-880 1080h32z"/><path d="m-688 1080h32z"/><path d="m-496 1080h32z"/><path d="m-592 1080h32-16z"/><path d="m-784 1080h32z"/><path d="m-976 1080h32z"/><path d="m-928 1080h32z"/><path d="m-736 1080h32z"/><path d="m-544 1080h32z"/><path d="m208 1176h-32z"/><path d="m160 1176h-32z"/><path d="m112 1176h-32 16z"/><path d="m64 1176h-32z"/><path d="m16 1176h-32z"/><path d="m-32 1176h-32z"/><path d="m-128 1176h-32z"/><path d="m-80 1176h-32z"/><path d="m-176 1176h-32z"/><path d="m-224 1176h-32z"/><path d="m-272 1176h-32z"/><path d="m-320 1176h-32z"/><path d="m-368 1176h-16-16z"/><path d="m-416 1176h-32z"/><path d="m-464 1176h-32z"/><path d="m-560 1176h-32 16z"/><path d="m-512 1176h-32z"/><path d="m-608 1176h-32z"/><path d="m-656 1176h-32z"/><path d="m-704 1176h-32z"/><path d="m-800 1176h-32z"/><path d="m-752 1176h-32z"/><path d="m-848 1176h-32z"/><path d="m-944 1176h-32z"/><path d="m-896 1176h-32z"/><path d="m-992 1176h-32z"/><path d="m-368 1176v-40z"/><path d="m-80 1176v-40z"/><path d="m32 1080v40z"/><path d="m128 1080v40z"/><path d="m176 1080v40z"/><path d="m208 1136h-32z"/><path d="m160 1176v-40z"/><path d="m112 1176v-40z"/><path d="m80 1080v40z"/><path d="m64 1176v-40z"/><path d="m-32 1176v-40z"/><path d="m16 1176v-40z"/><path d="m-16 1080v40z"/><path d="m-64 1080v40z"/><path d="m-256 1080v40z"/><path d="m-160 1080v40z"/><path d="m-112 1080v40z"/><path d="m-128 1176v-40z"/><path d="m-176 1176v-40z"/><path d="m-208 1080v40z"/><path d="m-224 1176v-40z"/><path d="m-352 1080v40z"/><path d="m-272 1176v-40z"/><path d="m-304 1080v40z"/><path d="m-320 1176v-40z"/><path d="m-704 1176v-40z"/><path d="m-512 1176v-40z"/><path d="m-496 1080v40z"/><path d="m-448 1080v40z"/><path d="m-400 1080v40z"/><path d="m-416 1176v-40z"/><path d="m-464 1176v-40z"/><path d="m-608 1176v-40z"/><path d="m-592 1080v40z"/><path d="m-544 1080v40z"/><path d="m-560 1176v-40z"/><path d="m-688 1080v40z"/><path d="m-640 1080v40z"/><path d="m-656 1176v-40z"/><path d="m-848 1176v-40z"/><path d="m-784 1080v40z"/><path d="m-736 1080v40z"/><path d="m-752 1176v-40z"/><path d="m-800 1176v-40z"/><path d="m-832 1080v40z"/><path d="m-896 1176v-40z"/><path d="m-880 1080v40z"/><path d="m-976 1080v40z"/><path d="m-928 1080v40z"/><path d="m-944 1176v-40z"/><path d="m-992 1176v-40z"/><path d="m-1024 1120h32z"/><path d="m80-512h-56v64h56z"/><path d="m16 805h-44v67h44z"/><path d="m-440 552h-80v16h80z"/><path d="m-440-472v20h44v-20z"/><path d="m-328-344h-44v20h44z"/><path d="m-328-568v-40 72z"/><path d="m-328-568v32 192-108z"/><path d="m-440-608v24 112z"/><path d="m-328-324h-44v-20h44z"/><path d="m-396-452h-44v-20h44z"/><path d="m-372-344h44z"/><path d="m-440-472h44z"/><path d="m-396-452h-44z"/><path d="m-396-472v20z"/><path d="m-328-324h-44z"/><path d="m-372-324v-20z"/><path d="m-896 1048h16-144z"/><path d="m-1024 1048h-16z"/><path d="m-880 1048h-16z"/><path d="m48 1048h16z"/><path d="m64 1048h128 16-144-16z"/><path d="m208 1048h32z"/><path d="m-768 952h-112 184z"/><path d="m-696 952h-40-32z"/><path d="m208 756h-16z"/><path d="m192 680h16z"/><path d="m192 680h-128 144z"/><path d="m192 680v76z"/><path d="m208 756v-12z"/><path d="m64 680h128v76h-128z"/><path d="m192 924h16z"/><path d="m192 924v28z"/><path d="m64 924h128v28h-128z"/><path d="m-896 468h16z"/><path d="m-896 552v-84z"/><path d="m-1024 552v-84h128v84z"/><path d="m-880 592h-16z"/><path d="m-896 592h16-144z"/><path d="m-1024 592h-16z"/><path d="m-880 592v-40z"/><path d="m-896 592h-128v-40h128z"/><path d="m-1024 592v-40z"/><path d="m-1024 924h128v28h-128z"/><path d="m-896 924v28z"/><path d="m-896 924h16z"/><path d="m64 952v96z"/><path d="m192 952v96h-128v-96z"/><path d="m-896 952v96h-128v-96z"/><path d="m-1024 952v96z"/><path d="m-328-608h8z"/><path d="m-440-184h-8z"/><path d="m-328-536v152 72-12-20z"/><path d="m-328-536v-72h8v43.2 180.8h-8z"/><path d="m-320-384v9.6 190.4h-8v-128-72z"/><path d="m-320-608v43.2z"/><path d="m-440-608v136 20z"/><path d="m-440-452v44z"/><path d="m-448-385.6v-201.6-20.8h8v156 44 24h-8z"/><path d="m-440-384v200h-8v-200z"/><path d="m-448-385.6v1.6 200-200z"/><path d="m-448-587.2v201.6z"/><path d="m-328-184v16z"/><path d="m-96 536h32z"/><path d="m-64 536v-192z"/><path d="m-468 156v32z"/><path d="m-332 68h-136z"/><path d="m-416 240h32z"/><path d="m-368 240h36z"/><path d="m-432 104h-36z"/><path d="m-384 104h-32z"/><path d="m-432 104h16 32 16 36 36l-36-36h-136v36z"/><path d="m-296 104-20-20-16-16z"/><path d="m-332 188v-32z"/><path d="m-296 104h-36v36 16 32 16 36h36z"/><path d="m-384 156h-32z"/><path d="m-432 156h-36z"/><path d="m-416 140h32z"/><path d="m-368 140h36z"/><path d="m-368 104h-16v36h16z"/><path d="m-416 104h-16v36h16z"/><path d="m-432 156h16 32 16 36v-16h-36-16-32-16-36v16z"/><path d="m-432 204h-36z"/><path d="m-384 204h-32z"/><path d="m-368 188h36z"/><path d="m-416 188h32z"/><path d="m-368 156h-16v32h16z"/><path d="m-416 156h-16v32h16z"/><path d="m-432 204h16 32 16 36v-16h-36-16-32-16-36v16z"/><path d="m-368 204h-16v36h16z"/><path d="m-416 204h-16v36h16z"/><path d="m-332 276 36-36h-36-36-16-32-16-36v36z"/><path d="m-504 104v136z"/><path d="m-468 240v-36-16-32-16-36-36l-36 36v136l36 36z"/><path d="m-468 276-36-36 20 20z"/><path d="m-296 104v136z"/><path d="m-504 104h-136 41.8461z"/><path d="m-504 104h-94.1539v136h94.1539z"/><path d="m-784 632v-40-40z"/><path d="m-712 632h-72z"/><path d="m-440 568h-80z"/><path d="m-272 536v-64z"/><path d="m-208 536h96-8z"/><path d="m-592 536v-64z"/><path d="m-416 240h-16v-36h16z"/><path d="m-468 276-16-16v-4h16z"/><path d="m-484 256v4l-20-20h20z"/><path d="m-332 276v-20h16v4z"/><path d="m-432 240h16 32 16 36v16 20h-136v-20-16z"/><path d="m-368 240h-16v-36h16z"/><path d="m-368 204h-16-32-16-36v-16h36 16 32 16 36v16z"/><path d="m-368 140h-16v-36h16z"/><path d="m-368 188h-16v-32h16z"/><path d="m-504 104 20-20v4 16z"/><path d="m-504 104h20 16v36 16 32 16 36h-16-20z"/><path d="m-484 84 16-16v20h-16z"/><path d="m-332 68v20 16h-36-16-32-16-36v-16-20z"/><path d="m-416 188h-16v-32h16z"/><path d="m-416 140h-16v-36h16z"/><path d="m-368 156h-16-32-16-36v-16h36 16 32 16 36v16z"/><path d="m-316 256v-16-136-16-4l20 20v136l-20 20z"/><path d="m-316 84v4h-16v-20z"/><path d="m-332 204v-16-32-16-36h16v136h-16z"/><path d="m-316 88h-16z"/><path d="m-468 240v-36z"/><path d="m-468 140v-36z"/><path d="m-296 104h94.1539 41.8461z"/><path d="m-296 104h136v100 36h-136z"/><path d="m-468 240h36z"/><path d="m-332 104h-36z"/><path d="m-332 104v36z"/><path d="m-332 204v36z"/><path d="m-332 156h-36z"/><path d="m-468 140h36z"/><path d="m-384 140v-36z"/><path d="m-368 104v36z"/><path d="m-432 140v-36z"/><path d="m-416 104v36z"/><path d="m-332 204h-36z"/><path d="m-468 188h36z"/><path d="m-416 156v32z"/><path d="m-368 156v32z"/><path d="m-384 188v-32z"/><path d="m-432 188v-32z"/><path d="m-384 240v-36z"/><path d="m-368 204v36z"/><path d="m-432 240v-36z"/><path d="m-416 204v36z"/><path d="m-332 276h-136z"/><path d="m-332 276 16-16 20-20z"/><path d="m-468 68-16 16-20 20z"/><path d="m-504 240h-94.1539-41.8461z"/><path d="m-560-800h-72z"/><path d="m-560-800h-72-44 44z"/><path d="m-676-796v-4h-32v4z"/><path d="m-432 526.4478v9.5522-64z"/><path d="m-432 472v54.4478z"/><path d="m-432 536h-8z"/><path d="m-416 648v-24z"/><path d="m-456 648h-40v8h40z"/><path d="m-496 648h40 40-128z"/><path d="m-456 648h-40v8h40z"/><path d="m-696 952h-40z"/><path d="m-768 952h-112z"/><path d="m-696 888h-4v32h4z"/><path d="m-768 948v4h32v-4z"/><path d="m-440-608h-8z"/><path d="m-328-184h8z"/><path d="m-328-608v200z"/><path d="m-320-564.8v-43.2h-8v200 24h8z"/><path d="m-328-384v200h8v-190.4-9.6z"/><path d="m-320-374.4v190.4z"/><path d="m-320-564.8v180.8 9.6-9.6z"/><path d="m-440-408v24 200-200z"/><path d="m-440-408v-200h-8v20.8 201.6 1.6h8z"/><path d="m-448-384v200h8v-200z"/><path d="m-448-608v20.8z"/><path d="m-664-744h-64v60h64z"/><path d="m-720 904h-32v32h32z"/><path d="m-316 88h-16z"/><path d="m-484 88h16z"/><path d="m-468 256h-16z"/><path d="m-316 88v16z"/><path d="m-484 104v-16z"/><path d="m-484 256v-16z"/><path d="m-328-624v16z"/><path d="m-328-624h-112v16h112z"/><path d="m-64-168h-8-32z"/><path d="m-216-168h-112-112 208z"/><path d="m-328-408v24 200-200z"/><path d="m-440-608v200z"/><path d="m-328-408v-200h-112v200 24h112z"/><path d="m-440-384v200h112v-200z"/><path d="m-440-168v-16z"/><path d="m-328-184h-112v16h112z"/><path d="m-456 656h-40z"/><path d="m-496 656v-8z"/><path d="m-456 656h-40v-8h40z"/><path d="m-456 648v8z"/><path d="m-416 648h-40z"/><path d="m-496 648h-48z"/><path d="m-440-452v-20h44v20z"/><path d="m-440-452v-20z"/><path d="m-396-472v20z"/><path d="m-396-452h-44z"/><path d="m-440-472h44z"/><path d="m-328-324h-44v-20h44z"/><path d="m-328-344v20z"/><path d="m-372-324v-20z"/><path d="m-328-324h-44z"/><path d="m-372-344h44z"/><path d="m-456 648v8z"/><path d="m-456 656h-40v-8h40z"/><path d="m-496 656v-8z"/><path d="m-456 656h-40z"/><path d="m-496 648h40z"/><path d="m40 312v32z"/><path d="m40 312v32-104z"/><path d="m40 40h-112z"/><path d="m-72 312h112z"/><path d="m-72 312v-72z"/><path d="m-72 312v32z"/><path d="m-736-32v-136 224z"/><path d="m-736 176v28 60z"/><path d="m-736 468v-88-4 52 28 80z"/><path d="m-736 176h-16z"/><path d="m-456-168h16z"/><path d="m-64-168h-40-112z"/><path d="m-232-168h-208-16 58 32 64 32z"/><path d="m-432 472v-41.0746 105.0746-9.5522z"/><path d="m-272 472v-41.0746 105.0746z"/><path d="m-208 472v64z"/><path d="m-272 472h64z"/><path d="m-368 472v64z"/><path d="m-368 472v-41.0746h-64v41.0746z"/><path d="m-592 472v-41.0746 105.0746z"/><path d="m-528 472h-64z"/><path d="m-708-800h-148z"/><path d="m-632-800h-44-32-148 56z"/><path d="m-676-800v4z"/><path d="m-708-796v-4z"/><path d="m-676-796h-32z"/><path d="m-676-800v4h-32v-4z"/><path d="m-736 952h40-72z"/><path d="m-696 888v-16z"/><path d="m-700 920v-32z"/><path d="m-700 888h4z"/><path d="m-696 920h-4v-32h4z"/><path d="m-696 920h-4z"/><path d="m-768 952v-4z"/><path d="m-768 952v-4h32v4z"/><path d="m-736 948v4z"/><path d="m-768 948h32z"/><path d="m-664-744v60z"/><path d="m-728-684v-60z"/><path d="m-664-684h-64z"/><path d="m-728-744h64z"/><path d="m-752 936v-32z"/><path d="m-752 904h32z"/><path d="m-720 904v32z"/><path d="m-720 936h-32z"/><path d="m80-624v16z"/><path d="m224-624h16z"/><path d="m80-624h128 16-136z"/><path d="m208-624h16z"/><path d="m208-624h-128v16h128z"/><path d="m80-624h-8z"/><path d="m192-384h16z"/><path d="m64-384h128 16-160z"/><path d="m48-384h16z"/><path d="m224-560h-16-128z"/><path d="m224-560h-16z"/><path d="m80-608v48h128v-48z"/><path d="m208-608v48-24z"/><path d="m48-384v8z"/><path d="m64-320h-16z"/><path d="m208-320h-16-128-16z"/><path d="m208-320h-16z"/><path d="m208-320v-8z"/><path d="m192-320v-64h-128v64z"/><path d="m64-384v64z"/><path d="m-1040 1048h-16z"/><path d="m192 1048h16z"/><path d="m64 756h-16z"/><path d="m64 680v76z"/><path d="m192 680h-128v76h128z"/><path d="m48 680v12z"/><path d="m192 924h16-144z"/><path d="m64 924v28z"/><path d="m192 924h-128v28h128z"/><path d="m-368 342.1714-32-6.1714-140 27-52 37.2157v30.7097h64 96 64z"/><path d="m-272 430.9254h64 42.9094l-94.9094-67.9254-108-20.8286v88.754z"/><path d="m-158 436-7.0906-5.0746h-42.9094v105.0746h88z"/><path d="m-272 430.9254h-96v105.0746h96z"/><path d="m-432 430.9254h-96v41.0746 64h8 80 8z"/><path d="m-592 430.9254v-30.7097l-50 35.7843-38 100h88z"/><path d="m-440 536h-80v16h80z"/><path d="m-400 336-56 10.8-84 16.2z"/><path d="m-368 342.1714 108 20.8286-140-27z"/><path d="m-592 400.2157 52-37.2157-102 73z"/><path d="m-642 436-38 100z"/><path d="m-208 430.9254v41.0746 64z"/><path d="m-208 430.9254h-64v41.0746h64z"/><path d="m-368 430.9254v41.0746 64z"/><path d="m-528 430.9254v41.0746z"/><path d="m-528 430.9254h-64v41.0746h64z"/><path d="m-440 536v16z"/><path d="m-520 552v-16z"/><path d="m-520 536h-8z"/><path d="m-528 536v-64z"/><path d="m-736 536v-32-36z"/><path d="m-704 536h-32z"/><path d="m-1024 468h128 16-160z"/><path d="m-1024 552v-84z"/><path d="m-896 552v-84h-128v84z"/><path d="m-1040 468v20z"/><path d="m-592 568h-24z"/><path d="m-592 568h72-24z"/><path d="m-368 568h24-72-24z"/><path d="m-368 568h-72-80-72 48 128z"/><path d="m-520 552v16h80v-16z"/><path d="m-440 552v16z"/><path d="m-520 568v-16z"/><path d="m-896 592v-40z"/><path d="m-1024 592h128v-40h-128z"/><path d="m-896 924h-128v28h128z"/><path d="m-1024 924h128 16-160z"/><path d="m-1024 924v28z"/><path d="m64 952v96h128v-96z"/><path d="m192 952v96z"/><path d="m-1024 952v96h128v-96z"/><path d="m-896 952v96z"/><path d="m-440 568h-80v-16h80z"/><path d="m-440 552v16z"/><path d="m-520 568v-16z"/><path d="m-520 552h80z"/><path d="m-440 568h-80z"/><path d="m-1064-800h208z"/><path d="m-584-800h24-72z"/><path d="m240-800h-32-96z"/><path d="m-856-608h-208 8z"/><path d="m-800-800h-56v176h16 40z"/><path d="m-360-800h-200-24v176h144 80z"/><path d="m-136-800h-200-24v176h32 192z"/><path d="m88-800h-200-24v176h32 176 8 8z"/><path d="m224-624h16v-176h-128-24v176z"/><path d="m-800-624v-176z"/><path d="m-584-624v-176 174z"/><path d="m-616-624h32-216z"/><path d="m-104-624h-32-192z"/><path d="m-328-624h-32-80z"/><path d="m-616-624h-184-40 208z"/><path d="m-840-624h-16z"/><path d="m-856-624v-176h-208v192h208z"/><path d="m224-560v-8z"/><path d="m192-568h32v8h-144-16v-8z"/><path d="m192-568h-128-96z"/><path d="m64-560h16z"/><path d="m48-328v8z"/><path d="m208-376v-8z"/><path d="m208-328h16z"/><path d="m208-384v8h-160v-8z"/><path d="m208-328v8h-160v-8z"/><path d="m48-376h-32-48z"/><path d="m-72 344h8z"/><path d="m40 40v72z"/><path d="m40 120v120 104-64z"/><path d="m-72 40v-32z"/><path d="m40 120v-8h-112v8 120h112z"/><path d="m-72 112v-72 80z"/><path d="m-72 112v-72z"/><path d="m40 112v-72h-112v72z"/><path d="m-72 240v72h112v-72z"/><path d="m-736-32v-88-48z"/><path d="m-736 380v-4z"/><path d="m-736-32h17.0667z"/><path d="m-718.9333 56h-17.0667z"/><path d="m-718.9333 56h14.9333v-88h-14.9333-17.0667v88z"/><path d="m-736 380h17.0667z"/><path d="m-718.9333 468h-17.0667z"/><path d="m-880 1048h-16-128-16z"/><path d="m48 1048h-32z"/><path d="m64 1048h128-128-16z"/><path d="m-1064-608v200z"/><path d="m-832 952h-48 112 72z"/><path d="m-832 952h136z"/><path d="m-856-392v8 216-216z"/><path d="m-856-392v-216h-200v224h200z"/><path d="m-1056-384v216h200v-216z"/><path d="m240 936v-192z"/><path d="m-112 936v-16-160-16z"/><path d="m208 756h-16-128z"/><path d="m48 680h16 128 16z"/><path d="m48 692v-12h160v12z"/><path d="m208 744v12h-144-16v-12z"/><path d="m224 744h-16-160-16z"/><path d="m32 692h16 160 16z"/><path d="m208 692v-12z"/><path d="m-80 744h-32z"/><path d="m64 924h144v12h-64-96v-12z"/><path d="m208 936h32-96z"/><path d="m208 936v-12z"/><path d="m240 936h-32z"/><path d="m-112 936h32z"/><path d="m-784 552h-96z"/><path d="m-736 264h32z"/><path d="m-856-168v224-216z"/><path d="m-752 56h-104v120h104z"/><path d="m-736 56h-16v120h16z"/><path d="m-752 56h-104z"/><path d="m-752 56h16z"/><path d="m-752 376h16v-112h-16z"/><path d="m-752 376v-112h-104v16 96z"/><path d="m-752 264h-104z"/><path d="m-752 264h16z"/><path d="m-1056-168v8 216h200v-224z"/><path d="m-1056 56v8 216h200v-16-88-120z"/><path d="m-1056 280v8 180h16 160 24v-92-96z"/><path d="m-880 468v20h24v-20z"/><path d="m-880 488v-20z"/><path d="m-856 488h-24z"/><path d="m-1056 488h16v-20h-16z"/><path d="m-1040 488h-16z"/><path d="m-1040 552v40z"/><path d="m-960 552h80v40h-160v-40z"/><path d="m-880 592h-16-128-16z"/><path d="m-1040 924h160v28h-160z"/><path d="m-880 924v28z"/><path d="m-1056 488h-8z"/><path d="m-1056-608h-8v200 24h8z"/><path d="m-1064-384v200 24h8v-8-216z"/><path d="m-1064-160v200 24h8v-8-216z"/><path d="m-1064 64v200 24h8v-8-216z"/><path d="m-1064 288v180h8v-180z"/><path d="m-1064 468v20h8v-20z"/><path d="m-1056 1048v32 96 32z"/><path d="m-832 1048h-48-160-16v160h224z"/><path d="m-608 1048h-48-176v160h224z"/><path d="m-384 1048h-48-176v160h224z"/><path d="m-160 1048h-48-176v160h224z"/><path d="m64 1048h-16-32-176v160h224z"/><path d="m240 1208v-160h-32-16-128v160z"/><path d="m-832 1208h-224z"/><path d="m-608 1208h-224z"/><path d="m-384 1208h-224z"/><path d="m-160 1208h-224z"/><path d="m64 1208h-224z"/><path d="m-800-624 48.8444-48.8445v-80.311l-46.8444-46.8445h-2z"/><path d="m-584-624v-2l-46.8444-46.8445h-117.1556-3.1556l-48.8444 48.8445z"/><path d="m-584-800h-48-168 2z"/><path d="m-468 240v16z"/><path d="m-468 88v16z"/><path d="m-332 256v-16z"/><path d="m-332 104v-16z"/><path d="m-332 104v136z"/><path d="m-316 104h-16z"/><path d="m-332 240h16z"/><path d="m-316 104h-16v136h16z"/><path d="m-332 240h-136z"/><path d="m-468 88v16h136v-16z"/><path d="m-332 256v-16h-136v16z"/><path d="m-484 240h16z"/><path d="m-468 104h-16z"/><path d="m-468 104h-16v136h16z"/><path d="m-484 104v136z"/><path d="m-32-376v-16-16-128-16-16 184z"/><path d="m224-328h-16-160-8v160h184z"/><path d="m40-328h-8v160h8z"/><path d="m208-376h16z"/><path d="m208-328h-160z"/><path d="m48-376h160z"/><path d="m32-328h8 8z"/><path d="m32-328v8 152z"/><path d="m240 744v12 4 176z"/><path d="m32 344h8z"/><path d="m-72 120v-80-32h8v196 28h-8z"/><path d="m-64 232v112h-8v-112z"/><path d="m40-168v176 32 16h184v-160-64z"/><path d="m40 56v64 160h184v-160-64z"/><path d="m40 280v64h184v-64z"/><path d="m32-168v176h8v-176z"/><path d="m40 56v-16 72 8z"/><path d="m224 120v160 64z"/><path d="m224-104v160 64z"/><path d="m224-168v64z"/><path d="m-72 120v112 112-32-72z"/><path d="m32 344v124z"/><path d="m224 456v-112h-184-8v124 100h192z"/><path d="m32 568v124h192v-12-112z"/><path d="m224 456v112 112-112z"/><path d="m224 344v112z"/><path d="m224 680v12z"/><path d="m240 744h-16z"/><path d="m-64 536h-32z"/><path d="m32 744h-112z"/><path d="m-344 600v112 112-112z"/><path d="m-616 568v32z"/><path d="m-344 568h-24z"/><path d="m-392 824h-224z"/><path d="m-344 600v-32h-24-48v56 24 64h24 48z"/><path d="m-392 712h-24-176-24v112h224z"/><path d="m-344 824v-112h-48v112z"/><path d="m-416 624v-56h-128v56z"/><path d="m-416 712v-64h-80-48-48v64z"/><path d="m-544 648v-24-56h-48v80z"/><path d="m-616 568v32 112h24v-64-80z"/><path d="m-544 624v24z"/><path d="m-416 624h-128z"/><path d="m-416 648h-40-40z"/><path d="m24-552h-48v144h48z"/><path d="m80-552h-56v40h56z"/><path d="m24-448v40h56v-40z"/><path d="m128-552h-48v144h48z"/><path d="m80-512v64z"/><path d="m24-512h56z"/><path d="m24-448v-64z"/><path d="m80-448h-56z"/><path d="m-800-32h-16v-54-26h16z"/><path d="m-816-86v54h-128v-54z"/><path d="m-944-86v54h-16v-80h16z"/><path d="m-944-32h128 16v128h-160v-128z"/><path d="m-800 96h-16-128-16z"/><path d="m-816-86h-128v182h128z"/><path d="m-468 88h136z"/><path d="m-332 256h-136z"/><path d="m-468 104v136z"/><path d="m-332 104h16v136h-16z"/><path d="m-316 104v136z"/><path d="m-468 104v-16h136v16z"/><path d="m-332 240v16h-136v-16z"/><path d="m-332 104h-136z"/><path d="m-484 104h16v136h-16z"/><path d="m-1056 728v196 28z"/><path d="m-1056 552v40 120 16z"/><path d="m-494-168h32 6-8-48z"/><path d="m-206-168h32 64 30 16-152-16z"/><path d="m-174-168h-32-41.5789 32z"/><path d="m-270-168h-32-41.5789 32z"/><path d="m-80-168h16z"/><path d="m-32-408v16z"/><path d="m-32-552v16z"/><path d="m-32-568v16z"/><path d="m-32-376h48z"/><path d="m208-376h-160z"/><path d="m224-376h-16z"/><path d="m48-376h160 16-32-176z"/><path d="m48-376h-32z"/><path d="m-544-408h-168-56v-128h56 168z"/><path d="m-320-408h-168-56v-128h56 168z"/><path d="m-96-408h-168-56v-128h56 168z"/><path d="m-88-536h56v128h-56-8v-128z"/><path d="m-488-392h-8-216v-16h168 56z"/><path d="m-264-392h-8-216v-16h168 56z"/><path d="m-96-408h8v16h-176v-16z"/><path d="m-496-184h-62-34-64-30-34v-128-80h8 216z"/><path d="m-272-184h-30-64-32-64-32-2v-208h8 216z"/><path d="m-264-392h176 8v208h-30-64-32-64-2v-208z"/><path d="m-488-536h-56-168v-16h216 8z"/><path d="m-264-536h-56-168v-16h216 8z"/><path d="m-88-552v16h-8-168v-16z"/><path d="m-496-552h-216-8v-32h224z"/><path d="m-272-552h-216-8v-32h224z"/><path d="m-80-584v32h-8-176-8v-32z"/><path d="m-302-184v16h-64v-16z"/><path d="m-110-168h-64v-16h64z"/><path d="m-206-168h-26-38v-16h64z"/><path d="m-784-536h16v128h-16z"/><path d="m-398-184v16h-58-6v-16z"/><path d="m-558-184h62 2v16h-18-46z"/><path d="m-656-184h64v16h-64z"/><path d="m-686-184v16h-34v-16z"/><path d="m-206-184h32-41.5789-32z"/><path d="m-302-184h30 2-41.5789-32z"/><path d="m-496-584h-224z"/><path d="m-272-584h-224z"/><path d="m-88-536v-16z"/><path d="m-88-392v-16z"/><path d="m-32-408h-56z"/><path d="m-80-392v208z"/><path d="m-80-184v16z"/><path d="m-686-168v-16h-34v16z"/><path d="m-174-184v16h-41.5789v-16z"/><path d="m-206-168v-16h-41.5789v16z"/><path d="m-270-184v16h-41.5789v-16z"/><path d="m-302-168v-16h-41.5789v16z"/><path d="m-800-568v224h-160v-224z"/><path d="m-800-344v32h-16-128-16v-32z"/><path d="m-800-568h16v16 16 128 16 48h-16z"/><path d="m-784-344v32 144h-16v-8-136-32z"/><path d="m-976-392v-176h16v224h-16z"/><path d="m-960-344v32 136 8h-16v-176z"/><path d="m-816-312v136 8h-128v-8-136z"/><path d="m-800-312v136h-16v-136z"/><path d="m-944-176h-16v-136h16z"/><path d="m-976-392v48 176z"/><path d="m-1056 552h16z"/><path d="m-816-112h16z"/><path d="m-816-152v40h-128v-40z"/><path d="m-816-168v16h-128v-16z"/><path d="m-24-408v-144z"/><path d="m128-552v144z"/><path d="m128-408h-152z"/><path d="m-24-552h152z"/><path d="m128-408h-152v-144h152z"/><path d="m-688-312v-16h-16v16 80 16h16z"/><path d="m-704-232v-80z"/><path d="m-976-168h16z"/><path d="m-800-168h16z"/><path d="m-800-168v-8z"/><path d="m-736-168h16z"/><path d="m-96 536h-16z"/><path d="m-112 536h16z"/><path d="m-112 744h32z"/><path d="m-112 920h20v-16-128-16h-20z"/><path d="m-92 760v16z"/><path d="m-944 552h128 16 16-96-80z"/><path d="m-704-32v88z"/><path d="m-416 552h-224v-16h184 40z"/><path d="m-192 552h-224v-16h184 40z"/><path d="m-160 536v16h-32v-16z"/><path d="m-456 536h-184-40l38-100 102-73 84-16.2z"/><path d="m-232 536h-184-40v-189.2l56-10.8 140 27 28 20.0392z"/><path d="m-158 436 38 100h-40-32-40v-152.9608z"/><path d="m-640 536v16-15.1708z"/><path d="m-160 552v-16 6.2439z"/><path d="m-704 536h24 40-17.1633z"/><path d="m-112 536h-8z"/><path d="m-680 536h-24z"/><path d="m-158 436-74-52.9608-28-20.0392 94.9094 67.9254z"/><path d="m-158 436 38 100z"/><path d="m-704 176h-32z"/><path d="m-704 176h-32v88h32z"/><path d="m-704 380h-14.9333-17.0667v88h17.0667 14.9333z"/><path d="m-704 536h-32z"/><path d="m-960 96v-208 80z"/><path d="m-800 96h-16z"/><path d="m-816 96v-208 26z"/><path d="m-416 712h-208-16v-160h224z"/><path d="m-192 712h-224v-160h224z"/><path d="m-160 552v160h-20-12v-160z"/><path d="m-180 760v16 144 16h-220-16v-64-160h224 12z"/><path d="m-180 760v-48h20v48z"/><path d="m-180 936v-16h20v16z"/><path d="m-696 712h-16v16 128 16h16z"/><path d="m-624 856v-128-16h208v160h-208z"/><path d="m-640 872h16 208v64h-208-16z"/><path d="m-180 936h20-240z"/><path d="m-160 712v-160 208z"/><path d="m-640 712h16z"/><path d="m-696 872v16z"/><path d="m-696 920v32z"/><path d="m-696 920v-32z"/><path d="m-696 632h-16z"/><path d="m-712 728h-104v128h104z"/><path d="m-944 552v80z"/><path d="m-816 552h-128v80 96h128z"/><path d="m-816 728h-128v128h128z"/><path d="m-28 760h-52v160h52z"/><path d="m16 760h-44v45h44z"/><path d="m-28 872v48h44v-48z"/><path d="m68 760h-52v160h52z"/><path d="m16 872h-44z"/><path d="m-28 872v-67z"/><path d="m-28 805h44z"/><path d="m16 805v67z"/><path d="m-603.579-168h11.579v-16h-11.579z"/><path d="m-784-312v-32-48z"/><path d="m-704-311v80h16v-80z"/><path d="m-704-311h16z"/><path d="m-688-231h-16z"/><path d="m-704-231v-80z"/><path d="m-688-311v80z"/><path d="m-704-232v-80 28 28z"/><path d="m-704-232v-80h16v80z"/><path d="m-688-312v80-24-28z"/><path d="m-688-232v-80 96z"/><path d="m-168 616v-16h-16v16 96h16z"/><path d="m-184 616v80 16z"/><path d="m-112 536h16z"/><path d="m-379 370h73.0938l-6.0453-4.2988-64.0485-11.7012h-45.8125-2.1875v16z"/><path d="m-311.9515 365.7012 6.0453 4.2988 25.2709 17.9705 84.0937 59.7999-1.4584-3.7704-9.282-23.9974-64.9998-45.4998-3.0045-2.1032z"/><path d="m-183 437-24.282-16.9974 9.282 23.9974 13.8353-5.1882z"/><path d="m-196.5416 447.7704 34.1265 88.2296h2.4151 14.9811l-36.9811-98-2.1647.8118-13.8353 5.1882z"/><path d="m-160 536h-2.4151l2.4151 6.2439z"/><path d="m-379 370 98.3647 17.9705-25.2709-17.9705z"/><path d="m-272.2818 374.5028.2818-1.5028-3.2863-.6004z"/><path d="m-424 354h2.1875l-.1875-1-4.9524 1z"/><path d="m-517.5912 388.9079 93.6388-18.9079-.0476-16h-2.9524l-99.0476 20-30.6085 22.7863z"/><path d="m-605.0562 453.3051 87.465-64.3972-39.0173 7.8784-58.8672 43.8234-2.5842 1.9238-10.6544 25.4665h3.6993z"/><path d="m-615.4757 440.6097-1.5243-.6097-1.0599 2.5335z"/><path d="m-611.2041 468 6.1479-14.6949-19.9588 14.6949z"/><path d="m-625.015 468h-3.6993l-28.449 68h17.1633.3469l28.449-68z"/><path d="m-640 536.8292.3469-.8292h-.3469z"/><path d="m-628.7143 468 10.6544-25.4665 1.0599-2.5335-1.0599 2.5335-10.6544 25.4665-28.449 68z"/><path d="m-640 552v-15.1708z"/><path d="m-556.6085 396.7863 30.6085-22.7863-30.6085 22.7863-58.8672 43.8234z"/><path d="m-207.282 420.0026 24.282 16.9974-24.282-16.9974-64.9998-45.4998z"/><path d="m-182 438-2.1647.8118z"/><path d="m-426.9524 354 4.9524-1-4.9524 1-99.0476 20z"/><path d="m-376 354h-45.8125z"/><path d="m-517.5912 388.9079-87.465 64.3972 87.465-64.3973z"/><path d="m-280.6353 387.9705 84.0937 59.7999z"/><path d="m-280.6353 387.9705-98.3647-17.9705z"/><path d="m-145.0189 536h-14.9811 40 8z"/><path d="m-736 536h32z"/><path d="m-784-168h-16z"/><path d="m-784-552v-16z"/><path d="m-784-552v16z"/><path d="m-784-168v-144z"/><path d="m-976-168v-8-78.4-78.4-59.2z"/><path d="m-976-568v176z"/><path d="m-784-568h-16-160-16z"/><path d="m-1056 280v120 104-36-140z"/><path d="m-1056 56v48 72 104-176z"/><path d="m-92 904v-128z"/><path d="m-92 776v128h-20v-128z"/><path d="m-92 904h-20z"/><path d="m-816 552h16z"/><path d="m-960 552h16z"/><path d="m-1040 552h80z"/><path d="m-736-120v88z"/><path d="m-736 176v-120z"/><path d="m-736 376v-112z"/><path d="m-960-112v-8z"/><path d="m-800-112v80 128-128z"/><path d="m-752-120h16v88h-16z"/><path d="m-800-112v-8h48v88h-16-32z"/><path d="m-736-120h-16z"/><path d="m-800 96v-128h32v88 120h-32z"/><path d="m-752 56h16v120h-16z"/><path d="m-768 56h16v120h-16z"/><path d="m-752 56h-16 16 16z"/><path d="m-944 96h-16z"/><path d="m-960-112h16z"/><path d="m-944 96v-182-26z"/><path d="m-816 96h-128v-208h128z"/><path d="m-816 96h16v80h-16z"/><path d="m-944 96h128v80h-128z"/><path d="m-960 104v-8h16v80h-16z"/><path d="m-1056 56v-176h96v8 208 8h-96z"/><path d="m-960 104v72h-96v-72z"/><path d="m-752 504h16z"/><path d="m-768 380v-116h16v116z"/><path d="m-768 504v-36h16v36z"/><path d="m-736 468v36h-16v-36z"/><path d="m-752 264h16v112 4h-16z"/><path d="m-768 176v88 116 20h-32v-224z"/><path d="m-768 400v68 36h-32v-24-80z"/><path d="m-752 380h16z"/><path d="m-768 176v88z"/><path d="m-800 176v224h-16v-224z"/><path d="m-800 400v80h-16v-80z"/><path d="m-816 176v224h-128v-224z"/><path d="m-816 400v80 24h-128v-24-80z"/><path d="m-944 504h128v48h-128z"/><path d="m-1056 504h96z"/><path d="m-960 176v224h-96v-120-104z"/><path d="m-960 400v80 24h-96v-104z"/><path d="m-944 176v224h-16v-224z"/><path d="m-944 400v80h-16v-80z"/><path d="m-712 856v16z"/><path d="m-712 728v-16z"/><path d="m-624 728v128z"/><path d="m-624 728v-16z"/><path d="m-180 904v16-144z"/><path d="m-180 776v-16z"/><path d="m-180 920v-16z"/><path d="m-112 904h-68v-128h68z"/><path d="m-112 776h-68z"/><path d="m-180 920h20z"/><path d="m-712 728h88v128h-88z"/><path d="m-712 728h88z"/><path d="m-816 856h104-104-128z"/><path d="m-816 552v176z"/><path d="m-816 728h104z"/><path d="m-816 728h104v128h-104z"/><path d="m-944 632v96 128-128z"/><path d="m-944 632v-80h128v176h-128z"/><path d="m-944 728h128v128h-128z"/><path d="m-80 760h148z"/><path d="m68 920h-148z"/><path d="m68 760v160z"/><path d="m-80 920v-160z"/><path d="m68 920h-148v-160h148z"/><path d="m-184 617v80h16v-80z"/><path d="m-184 617h16z"/><path d="m-168 697h-16z"/><path d="m-184 697v-80z"/><path d="m-168 617v80z"/><path d="m-168 696v-80 96z"/><path d="m-168 616v28 28 24z"/><path d="m-168 616v-16z"/><path d="m-184 712h16z"/><path d="m-184 616v-16z"/><path d="m-184 616h16v80h-16z"/><path d="m-184 616v28 28 24z"/><path d="m-311.9515 365.7012 6.0453 4.2988h-73.0938-45v-16h2.1875 45.8125z"/><path d="m-280.6353 387.9705-25.2709-17.9705-6.0453-4.2988 36.6652 6.6984 3.0045 2.1032 64.9998 45.4998 9.282 23.9974 1.4584 3.7704z"/><path d="m-183 437-1.1647 1.8118-13.8353 5.1882-9.282-23.9974z"/><path d="m-184.1647 438.8118 2.1647-.8118 36.9811 98h-14.9811-2.4151l-34.1265-88.2296-1.4584-3.7704z"/><path d="m-160 542.2439-2.4151-6.2439h2.4151z"/><path d="m-379 370h73.0938l25.2709 17.9705z"/><path d="m-275.2863 372.3996 3.2863.6004-.2818 1.5028z"/><path d="m-424 354h-2.9524l4.9524-1 .1875 1z"/><path d="m-426.9524 354h2.9524l.0476 16-93.6388 18.9078-39.0173 7.8785 30.6085-22.7863z"/><path d="m-625.015 468 19.9588-14.6949-6.1479 14.6949z"/><path d="m-618.0599 442.5335 1.0599-2.5335 1.5243.6097z"/><path d="m-615.4757 440.6097 58.8672-43.8234 39.0173-7.8785-87.465 64.3973-19.9588 14.6949h-3.6993l10.6544-25.4665z"/><path d="m-628.7143 468h3.6993 13.8109l-28.449 68h-.3469-17.1633z"/><path d="m-640 536h.3469l-.3469.8292z"/><path d="m-182 438 36.9811 98z"/><path d="m-145.0189 536h33.0189z"/><path d="m-160 542.2439v9.7561z"/><path d="m-275.2863 372.3996-36.6652-6.6984-64.0485-11.7012 64.0485 11.7012 36.6652 6.6984 3.2863.6004z"/><path d="m-617 440 1.5243.6097z"/><path d="m-272 373-.2818 1.5028z"/><path d="m-639.6531 536 28.449-68 6.1479-14.6949-6.1479 14.6949-28.449 68-.3469.8292z"/><path d="m-162.4151 536 2.4151 6.2439-2.4151-6.2439-34.1265-88.2296z"/><path d="m-183 437-1.1647 1.8118z"/><path d="m-379 370h-45z"/><path d="m-422 353 .1875 1z"/><path d="m-423.9524 370-93.6388 18.9079v-.0001z"/><path d="m-657.1633 536h-46.8367z"/><path d="m-736 536v-32z"/><path d="m-704 536h-32z"/><path d="m-752 176h-16 16 16z"/><path d="m-752-32h-16 16 16z"/><path d="m-752-120v88z"/><path d="m-736-120h-16v88h16z"/><path d="m-768-32v88z"/><path d="m-752 56v120z"/><path d="m-736 56h-16v120h16z"/><path d="m-752 504h-48 32z"/><path d="m-752 380h-16z"/><path d="m-752 264h16z"/><path d="m-736 264h-16v116h16z"/><path d="m-752 468h16z"/><path d="m-736 468h-16v36h16z"/><path d="m-944 552v-72 24z"/><path d="m-816 504v48z"/><path d="m-816 552v-48z"/><path d="m-736 872h-224z"/><path d="m-800 552h-16v160h16z"/><path d="m-800 712h-16v16h104v-16z"/><path d="m-944 632v144 80-80z"/><path d="m-944 632v-80h-16v80 144h16z"/><path d="m-960 776v80h16v-80z"/><path d="m-960 552v80z"/><path d="m-736 856h-208-16v16h224z"/><path d="m-712 872v-16h-24v16z"/><path d="m-736-168v48z"/><path d="m-751.1556-672.8445h3.1556v-80.311h-3.1556z"/><path d="m-748-672.8445v-.4952-2.6603-74-2.6603-.4952z"/><path d="m-630.8444-672.8445-1.1556-1.1555h-116v1.1555z"/><path d="m-748-753.1555h117.1556l46.8444-46.8445h-214l46.8444 46.8445z"/><path d="m-630.8444-753.1555v4.6555 75.6555l46.8444 46.8445v-174z"/><path d="m-748-673.3397v-.6603-2z"/><path d="m-748-750v-2-.6603z"/><path d="m-632-752v78l1.1556 1.1555v-75.6555z"/><path d="m-632-674v-78l4-4v80.6793z"/><path d="m-632-752 1.1556 3.5v-4.6555z"/><path d="m-632-752 1.1556-1.1555h-117.1556v1.1555z"/><path d="m-632-674 4-1.3207v3.3207h-2z"/><path d="m-632-674 2 2h-118v-2z"/><path d="m-628-756-4 4h-116v-4z"/><path d="m-591.2632-168h33.2632-34-11.579-21.6842z"/><path d="m-720-312v128z"/><path d="m-720-312v-80z"/><path d="m-784 552h-16z"/><path d="m-816 552h16z"/><path d="m-704 176v88z"/><path d="m-704 56v-88z"/><path d="m-704 380v88z"/><path d="m-736-120v-48z"/><path d="m-736-120v88z"/><path d="m-736 56v120z"/><path d="m-736 264v116z"/><path d="m-736 468v36z"/><path d="m-704 176h-32z"/><path d="m-768 176h16z"/><path d="m-752-32h-16z"/><path d="m-752-32h16z"/><path d="m-736-32h-16v-88h16z"/><path d="m-736 176h-16v-120h16z"/><path d="m-752 504h16z"/><path d="m-752 380h16z"/><path d="m-736 264h-16z"/><path d="m-752 264h-16z"/><path d="m-736 380h-16v-116h16z"/><path d="m-752 380v-116z"/><path d="m-752 468h-16z"/><path d="m-736 504h-16v-36h16z"/><path d="m-752 504v-36z"/><path d="m-816 504v48z"/><path d="m-696 872h-16z"/><path d="m-640 872h16z"/><path d="m-712 712h16z"/><path d="m-696 872v16z"/><path d="m-696 920v-32z"/><path d="m-696 920v32z"/><path d="m-640 872v64z"/><path d="m-712 872h-24z"/><path d="m-736 856h-208 208 24z"/><path d="m-816 552h16v160h-16z"/><path d="m-960 632v-80h16v80 144h-16z"/><path d="m-944 776v80h-16v-80z"/><path d="m-816 728v-16h16 88v16z"/><path d="m-816 552v160 16-16z"/><path d="m-800 712h88z"/><path d="m-784 632v-80z"/><path d="m-712 632h-72z"/><path d="m-800 552v160z"/><path d="m-712 728h-104z"/><path d="m-944 552v80z"/><path d="m-960 632v144 80-80z"/><path d="m-960 856v16z"/><path d="m-960 872v-16h16 208v16z"/><path d="m-736 856h24v16h-24z"/><path d="m-720-184v-128z"/><path d="m-720-168v-16z"/><path d="m-80-392v208z"/><path d="m-316 256h-16z"/><path d="m-316 240h-16z"/><path d="m-316 240v16z"/><path d="m-160 760h-20z"/><path d="m-160 552v208z"/><path d="m-407.5789-168h41.5789-32-41.5789z"/><path d="m-503.5789-168h41.5789-32-41.5789z"/><path d="m-247.5789-168h-116.4211 32 116.4211z"/><path d="m-343.5789-168h-116.4211 12 20 116.4211z"/><path d="m-121.5789-168h41.5789-30-41.5789z"/><path d="m-151.5789-184h41.5789 30-41.5789z"/><path d="m-215.5789-184h-116.4211-32 116.4211z"/><path d="m-311.5789-184h-116.4211-32 116.4211z"/><path d="m-439.5789-184h41.5789 32-41.5789z"/><path d="m-633.579-184h30 11.579 34-41.5789z"/><path d="m-535.5789-184h41.5789 32-41.5789z"/><path d="m-720-584h224z"/><path d="m-496-584h224z"/><path d="m-80-584h-192z"/><path d="m-633.579-184h-86.421v16h116.421v-16z"/><path d="m-121.5789-184h41.5789v16h-41.5789z"/><path d="m-599.5789-184h41.5789v16h-33.2632-8.3155z"/><path d="m-151.5789-168h41.5789v-16h-41.5789z"/><path d="m-535.5789-168h41.5789v-16h-41.5789z"/><path d="m-215.5789-168h-116.4211v-16h116.4211z"/><path d="m-503.5789-184h41.5789v16h-41.5789z"/><path d="m-247.5789-184h-116.4211v16h116.4211z"/><path d="m-439.5789-168h41.5789v-16h-41.5789z"/><path d="m-311.5789-168h-116.4211v-16h116.4211z"/><path d="m-407.5789-184h41.5789v16h-41.5789z"/><path d="m-343.5789-184h-116.4211v16h116.4211z"/><path d="m-784 632v-80z"/><path d="m-712 632h-72z"/><path d="m-64 344v-112-28z"/><path d="m-64 204v-196-28z"/><path d="m-64-20v-148z"/><path d="m-1056 952h16 160 48z"/><path d="m-696 952h-136z"/><path d="m-316 88h-16z"/><path d="m-484 88h16z"/><path d="m-468 256h-16z"/><path d="m-468 256v-16z"/><path d="m-332 88v16z"/><path d="m-316 88v16z"/><path d="m-484 104h16z"/><path d="m-484 104v-16z"/><path d="m-484 256v-16z"/><path d="m-628-672v-3.3207-80.6793z"/><path d="m-80-168h-94 32 62 16z"/><path d="m-720-184h34 30z"/><path d="m-720-168h64-30-34-16z"/><path d="m-720-168v-16h64v16z"/><path d="m-704-231v-80h16v80z"/><path d="m-688-328h-16z"/><path d="m-704-232v-24z"/><path d="m-704-232v-24-28-28z"/><path d="m-704-284v-28z"/><path d="m-684-284h-4v28h4z"/><path d="m-704-312v28h16v-28z"/><path d="m-704-256v24h16v-24z"/><path d="m-688-284h-16v28h16z"/><path d="m-688-284h4z"/><path d="m-688-312v28z"/><path d="m-688-256v24z"/><path d="m-688-312h-16z"/><path d="m-688-328v16z"/><path d="m-704-232h16z"/><path d="m-688-312v28 28 24z"/><path d="m-688-232v16z"/><path d="m-332 256h16z"/><path d="m-468 104v-16z"/><path d="m-332 240v16z"/><path d="m-332 104v136z"/><path d="m-316 104h-16z"/><path d="m-316 104h-16v136h16z"/><path d="m-332 240h-136z"/><path d="m-468 88v16h136v-16z"/><path d="m-332 256v-16h-136v16z"/><path d="m-468 240h-16z"/><path d="m-468 104h-16v136h16z"/><path d="m-484 104v136z"/><path d="m-944-176h128z"/><path d="m-944-176h-16z"/><path d="m-816-176h-128v8h128z"/><path d="m-816-176v8z"/><path d="m-944-168v-8z"/><path d="m-944-168v56h128v-56z"/><path d="m-944-112v-56 16z"/><path d="m-816-168v56-40z"/><path d="m-664-744v60z"/><path d="m-728-684v-60z"/><path d="m-664-684h-64z"/><path d="m-728-744h64z"/><path d="m-184 697v-80h16v80z"/><path d="m-784-408v16z"/><path d="m-88-408v-128-16 160z"/><path d="m-88-392h8z"/><path d="m-32-536h-56z"/><path d="m-32-408v-128h-56v128z"/><path d="m-712-536v-16z"/><path d="m-712-536v128z"/><path d="m-704-216h16z"/><path d="m-704-312v-16z"/><path d="m-704-216v-16z"/><path d="m-688-284h4-20z"/><path d="m-704-312v-16h16v16 28h-16z"/><path d="m-688-312v-16z"/><path d="m-688-256h4z"/><path d="m-704-256h16z"/><path d="m-704-232v-24h16v24 16h-16z"/><path d="m-688-232v16z"/><path d="m-784-536h72-56z"/><path d="m-712-408v-128h-72v128z"/><path d="m-712-408h-72 16z"/><path d="m-468 88h136z"/><path d="m-332 256h-136z"/><path d="m-468 104v136z"/><path d="m-332 104h16v136h-16z"/><path d="m-316 104v136z"/><path d="m-468 104v-16h136v16z"/><path d="m-332 240v16h-136v-16z"/><path d="m-332 104h-136z"/><path d="m-484 104h16v136h-16z"/><path d="m-168 672v-28-28 80z"/><path d="m-168 600h-16z"/><path d="m-168 672h-16v24h16z"/><path d="m-168 644h-16v28h16z"/><path d="m-184 644h-4v28h4z"/><path d="m-184 616v28h16v-28z"/><path d="m-184 616v-16 44z"/><path d="m-184 696v-24 40z"/><path d="m-184 616h16z"/><path d="m-184 696h16z"/><path d="m-184 672v-28-28 80z"/><path d="m-184 712v-16z"/><path d="m-64-168v116 32z"/><path d="m-960-168h-16z"/><path d="m-960-168h160 16-24-168z"/><path d="m-800-176h-16z"/><path d="m-960-176v8z"/><path d="m-944-176h128 16v8h-160v-8z"/><path d="m-800-112v-8z"/><path d="m-800-120h48z"/><path d="m-752-120h16z"/><path d="m-800-120v8h-16-128-16v-8z"/><path d="m-800-120h-160 128z"/><path d="m-944-112h128z"/><path d="m-960-120h-96z"/><path d="m-960-120h-96z"/><path d="m-684-284v28z"/><path d="m-684-284v28h-4-16v-28z"/><path d="m-704-256v-28z"/><path d="m-752 936v-32z"/><path d="m-752 904h32z"/><path d="m-720 904v32z"/><path d="m-720 936h-32z"/><path d="m-32-552v16 128 16z"/><path d="m-32-392v16z"/><path d="m-784-312v-80-16-144 62.4 78.4 78.4z"/><path d="m-784-408v-128-16z"/><path d="m-784-392v80z"/><path d="m-784-312v57.6 78.4 8z"/><path d="m-88-552h8v160h-8z"/><path d="m-80-552h-8z"/><path d="m-80-552v-32z"/><path d="m-712-392v-16z"/><path d="m-720-392h8z"/><path d="m-720-552h8v16 128 16h-8z"/><path d="m-712-552h-8z"/><path d="m-720-584v32z"/><path d="m-720-392v80z"/><path d="m-168 712v-16z"/><path d="m-168 672v24z"/><path d="m-168 600v16 28z"/><path d="m-168 644h-16z"/><path d="m-184 600h16v44h-16z"/><path d="m-184 672h-4z"/><path d="m-184 672h16v24 16h-16z"/><path d="m-32-568v16 160z"/><path d="m192-568h-224v176 16h48 176z"/><path d="m224-376v-192h-32v192z"/><path d="m224-568v192-184z"/><path d="m224-568h-32z"/><path d="m-784-568v16z"/><path d="m-808-568h-168v78.4h168z"/><path d="m-976-489.6v78.4h168v-78.4z"/><path d="m-976-411.2v19.2 59.2h168v-78.4z"/><path d="m-976-332.8v78.4h168v-78.4z"/><path d="m-976-254.4v78.4h168v-78.4z"/><path d="m-976-176v8h168v-8z"/><path d="m-784-552v-16h-24v78.4h24z"/><path d="m-808-489.6v78.4h24v-78.4z"/><path d="m-808-411.2v78.4h24v-78.4z"/><path d="m-808-332.8v78.4h24v-57.6-20.8z"/><path d="m-808-254.4v78.4h24v-78.4z"/><path d="m-808-176v8h24v-8z"/><path d="m-976-411.2v-78.4-78.4 176z"/><path d="m-976-568h168 24z"/><path d="m-92 760h-20z"/><path d="m-92 776v128 16-160z"/><path d="m-92 920v-16z"/><path d="m-112 904h20v-128h-20z"/><path d="m-92 776h-20z"/><path d="m-800 552h16z"/><path d="m-640 536v.8292 15.1708z"/><path d="m-160 552v-9.7561-6.2439z"/><path d="m-160 536h14.9811 33.0189z"/><path d="m-704 536h46.8367 17.1633z"/><path d="m-736 536h32z"/><path d="m-944 552h128v-48-24h-128z"/><path d="m-944 480h128 16z"/><path d="m-816 480v24z"/><path d="m-800 480h-16z"/><path d="m-944 480h-16z"/><path d="m-712 856v16z"/><path d="m-712 728v128z"/><path d="m-624 856v16z"/><path d="m-624 936h208 16z"/><path d="m-160 936h-32-208z"/><path d="m-112 904h-68z"/><path d="m-180 776v128h68v-128z"/><path d="m-640 552v160-64z"/><path d="m-624 728h-88v128h88z"/><path d="m-712 856h88z"/><path d="m-640 936h16z"/><path d="m-188 672v-28z"/><path d="m-168 644v28z"/><path d="m-184 672h-4v-28h4 16v28z"/><path d="m-188 644h4z"/><path d="m-168 672h-16z"/><path d="m-704 468v-88z"/><path d="m-736-32h17.0667 14.9333z"/><path d="m-704 56h-14.9333-17.0667z"/><path d="m-736 380h17.0667 14.9333z"/><path d="m-704 468h-14.9333-17.0667z"/><path d="m-736 56h-16z"/><path d="m-736 468h-16z"/><path d="m-112 760v-4-12z"/><path d="m-112 936v-16z"/><path d="m112 744h-80-112-32v12h224z"/><path d="m240 756v-12h-128v12z"/><path d="m112 744h128-16-192z"/><path d="m-112 536h16 32z"/><path d="m-64 536v-192z"/><path d="m112 756h-224v4h20 12 192z"/><path d="m144 760h96v-4h-128v4z"/><path d="m-80 936v-16h-12-20v16z"/><path d="m-80 920v-160h-12v160z"/><path d="m144 760h-32-192v160 16h224z"/><path d="m240 936v-176h-96v176z"/><path d="m-112 920h20z"/><path d="m-80 936h-32z"/><path d="m144 936h-224 128z"/><path d="m-832 552h-112-16-96 104z"/><path d="m-944 552h112 32-16z"/><path d="m-1056 552h96-80z"/><path d="m-960 552h16z"/><path d="m-640 552v-16z"/><path d="m-112 536h-8-40z"/><path d="m-800 504v-24z"/><path d="m-944 480h144v24h-32-128v-24z"/><path d="m-800 504h-32z"/><path d="m-960 480v24z"/><path d="m-712 712v16z"/><path d="m-624 728v128z"/><path d="m-180 920v-16-128-16z"/><path d="m-180 760h20v160h-20z"/><path d="m-160 936v-16z"/><path d="m-640 712h16v16 128 16h-16z"/><path d="m-712 856v-128-16h16v160h-16z"/><path d="m-640 648v64 160z"/><path d="m-696 712v-80 240z"/><path d="m-696 632v80z"/><path d="m-696 632h-16z"/><path d="m-1056 728v224z"/><path d="m-1056 552v176z"/><path d="m-720-168v-16z"/><path d="m-748-756v4 2 74 4z"/><path d="m-628-756v84z"/><path d="m-628-756h-120z"/><path d="m-748-672h118 2z"/><path d="m-1056-120v176z"/><path d="m-736-168h16z"/><path d="m-736 56h32z"/><path d="m-704 264h-32z"/><path d="m-736 468h32z"/><path d="m-768-120v88h16v-88z"/><path d="m-736-32v-88h-16v88z"/><path d="m-832-120h-128-96v176 48h224z"/><path d="m-1056 104v176 48h224v-224z"/><path d="m-1056 328v140h224v-140z"/><path d="m-768 56v-88-88h-32-32v224h64z"/><path d="m-832 104v224h64v-64-88-72z"/><path d="m-832 328v140h64v-88-52z"/><path d="m-768 56v48 72h16v-120z"/><path d="m-736 176v-120h-16v120z"/><path d="m-736 380v-116h-16v116z"/><path d="m-736 504v-36h-16v36z"/><path d="m-768 264v64 52h16v-116z"/><path d="m-832 468h-224v36h224z"/><path d="m-800 504h48v-36h-16-64v36z"/><path d="m-736 176h-16-16 16z"/><path d="m-768-120h16-48z"/><path d="m-768 56h16z"/><path d="m-768 380v88-68z"/><path d="m-832 504h-224 96z"/><path d="m-736-168h16 12.3158 108.1055 8.3155-34z"/><path d="m-720-552v-32z"/><path d="m-720-552v160z"/><path d="m-720-392v80 128-176z"/><path d="m-784 552h-16-32-120z"/><path d="m-800 552h-32z"/><path d="m-704 176v88z"/><path d="m-736 520v-52z"/><path d="m-736 520v16z"/><path d="m-736 520v-52 36 32z"/><path d="m-704 176h-32z"/><path d="m-704-32h-32z"/><path d="m-704-32v88h-32v-88z"/><path d="m-704 380h-32z"/><path d="m-640 552v96z"/><path d="m-640 648v224-96z"/><path d="m-696 872v-240 96z"/><path d="m-696 888v32z"/><path d="m-640 872v64z"/><path d="m-640 872v64z"/><path d="m-80-552v-32 192z"/><path d="m-80-584v32z"/><path d="m-80-552v160z"/><path d="m-80-184v16z"/><path d="m-468 256v-16z"/><path d="m-468 104v-16z"/><path d="m-332 256v-16z"/><path d="m-332 88v16z"/><path d="m-332 104v136z"/><path d="m-316 104h-16z"/><path d="m-316 104h-16v136h16z"/><path d="m-332 240h16z"/><path d="m-316 256v-16z"/><path d="m-468 88v16h136v-16z"/><path d="m-332 256v-16h-136v16z"/><path d="m-332 240h-136z"/><path d="m-468 240h-16z"/><path d="m-484 104h16z"/><path d="m-468 104h-16v136h16z"/><path d="m-484 104v136z"/><path d="m-160 552v208z"/><path d="m-160 760v160z"/><path d="m-160 920v16z"/><path d="m-556-168h32 116.4211-32z"/><path d="m-716-168h8.3158-12.3158z"/><path d="m-652-168h32 116.4211-32z"/><path d="m-496-168h-28-32-64-32-64-4z"/><path d="m-448-168h-12-36z"/><path d="m-268-168h30 116.4211-30z"/><path d="m-80-168h16z"/><path d="m-224-168h-14-30-64-32-64-20 96z"/><path d="m-142-184h-32 94z"/><path d="m-238-184h-30 116.4211 30z"/><path d="m-524-184h-32 116.4211 32z"/><path d="m-716-184h-4 86.421 34.0001z"/><path d="m-620-184h-32 116.4211 32z"/><path d="m-80-584h-192z"/><path d="m-496-584h-224v192 32h224z"/><path d="m-720-360v176h4 64 32 64 32 28v-176z"/><path d="m-272-584h-224v224h224z"/><path d="m-496-360v176h36 32 64 32 60v-176z"/><path d="m-80-360v-32-192h-192v224z"/><path d="m-268-184h30 64 32 62v-176h-192v176z"/><path d="m-80-392v32 176z"/><path d="m-720-584v32 160z"/><path d="m-652-184h-64v16h64z"/><path d="m-556-184h-64v16h64z"/><path d="m-460-184h-36-28v16h28 36z"/><path d="m-364-184h-64v16h64z"/><path d="m-268-168v-16h-4-60v16z"/><path d="m-80-184h-62v16h62z"/><path d="m-174-184h-64v16h14 50z"/><path d="m-142-168v-16h62v16z"/><path d="m-174-184v16h94v-16z"/><path d="m-238-168v-16h116.4211v16z"/><path d="m-716-168v-16h116.4211l.0002 16z"/><path d="m-268-184v16h116.4211v-16z"/><path d="m-652-184v16h116.4211v-16z"/><path d="m-620-168v-16h116.4211v16z"/><path d="m-556-184v16h116.4211v-16z"/><path d="m-524-168v-16h116.4211v16z"/><path d="m-168 176-28-32v60 4z"/><path d="m-168 176-28 32h8 48z"/><path d="m-468 88h136z"/><path d="m-332 256h16-16-136z"/><path d="m-468 104v136z"/><path d="m-332 104h16v136h-16z"/><path d="m-316 240v-136 136 16z"/><path d="m-468 104v-16h136v16z"/><path d="m-332 240v16h-136v-16z"/><path d="m-332 104h-136z"/><path d="m-484 104h16v136h-16z"/><path d="m-632 176-28-32v56 8z"/><path d="m-632 176-28 32h56z"/><path d="m-952 552h168z"/><path d="m-736 56v120z"/><path d="m-736 536v-16z"/><path d="m-784 632v-80z"/><path d="m-712 632h-72z"/><path d="m-72-52v16 120 16z"/><path d="m-64-20v-32h-8v152h8z"/><path d="m-64 344v-140z"/><path d="m-64-20v120 104z"/><path d="m-1056 952h224z"/><path d="m-696 952h-136z"/><path d="m-720-168h-16z"/><path d="m-720-168h64 160z"/><path d="m-496-168h48z"/><path d="m-64 536h-48z"/><path d="m-64 536v-192z"/><path d="m-952 552h-104z"/><path d="m-316 88h-16z"/><path d="m-484 88h16z"/><path d="m-468 256h-16z"/><path d="m-316 256h-16z"/><path d="m-316 88v16z"/><path d="m-316 240v16z"/><path d="m-484 104v-16z"/><path d="m-484 256v-16z"/><path d="m-736-168v48 88z"/><path d="m312-532v-56-84-84h108v168 56z"/><path d="m312-308v-56-168h108v168 56z"/><path d="m312-84v-176-24-24h108v168 56z"/><path d="m420 84h-108v-120-48h108z"/><path d="m-404-672h-224v-84h224z"/><path d="m-180-672h-224v-84h224z"/><path d="m44-672h-224v-84h224z"/><path d="m268-672h-224v-84h224z"/><path d="m312-756v84h-44v-84z"/><path d="m312-672h-44z"/><path d="m-404-756h-224 104z"/><path d="m-180-756h-224 104z"/><path d="m44-756h-224 104z"/><path d="m268-756h-224 104z"/><path d="m312-756h-44z"/><path d="m-628-672h-120z"/><path d="m296-284v-80h16v56 24z"/><path d="m312-36v120h-16v-120z"/><path d="m252-404v-16-16h44v72 80 72h-44z"/><path d="m296 84h-44v-120h44z"/><path d="m168-436h84v16h-84z"/><path d="m252-404v192h-84v-192z"/><path d="m126-212v-224h42v16 16 192z"/><path d="m252 84h-12v-120h12z"/><path d="m-72 100h8z"/><path d="m152 84h-224v-120h224z"/><path d="m240 84h-88v-120h88z"/><path d="m364-756h-196v84h196z"/><path d="m168-756h-224v84h224z"/><path d="m-56-756h-224v84h224z"/><path d="m-280-756h-224v84h224z"/><path d="m-504-756h-224v84h224z"/><path d="m364-672h-196z"/><path d="m168-672h-224z"/><path d="m-56-672h-224z"/><path d="m-280-672h-224z"/><path d="m-504-672h-224z"/><path d="m168-756h196z"/><path d="m-56-756h224z"/><path d="m-280-756h224z"/><path d="m-504-756h224z"/><path d="m-728-756h224z"/><path d="m348-84v108h72v-108z"/><path d="m348-308v224h72v-224z"/><path d="m348-532v224h72v-224z"/><path d="m348-756v224h72v-224z"/><path d="m420-756v108z"/><path d="m420-648v224z"/><path d="m420-424v224z"/><path d="m420-200v224z"/><path d="m348-648v-108z"/><path d="m348-424v-224z"/><path d="m348-200v-224z"/><path d="m348 24v-224z"/><path d="m420-8h-84v92h84z"/><path d="m336-8h-224v92h224z"/><path d="m112-8h-224v92h224z"/><path d="m420 84h-84z"/><path d="m336 84h-224z"/><path d="m112 84h-224z"/><path d="m336-8h84z"/><path d="m112-8h224z"/><path d="m-112-8h224z"/><path d="m-48-36h-24v120h24z"/><path d="m312-364h-16v80h16z"/><path d="m312-284h-16z"/><path d="m296-284v-80z"/><path d="m312-364v24z"/><path d="m312-340v56z"/><path d="m252-404v-16z"/><path d="m168-420v16z"/><path d="m184-404h52 16-84z"/><path d="m236-404h-52v-4h52z"/><path d="m184-408v-12h52v12z"/><path d="m236-420h-52-16 84z"/><path d="m236-420h-52v12h52z"/><path d="m184-420h52z"/><path d="m236-408h-52z"/><path d="m312-364v-168-56 56z"/><path d="m296-284v72z"/><path d="m296-284h16z"/><path d="m312-364h-16z"/><path d="m312-340v-24z"/><path d="m312-284v-56z"/><path d="m-664-684h-64v-60h64z"/><path d="m-664-744v60z"/><path d="m-728-684v-60z"/><path d="m-664-684h-64z"/><path d="m-728-744h64z"/><path d="m-196 144h56-8-40z"/><path d="m-140 144h-56l28 32z"/><path d="m-148 200h-40v-48h40z"/><path d="m-140 208h-48 40z"/><path d="m-148 200v-48z"/><path d="m-140 204v-4-48-8z"/><path d="m-188 152v48z"/><path d="m-188 200h40z"/><path d="m-148 152h-40z"/><path d="m-140 204v-60l-28 32 28 32z"/><path d="m-604 204v-4-48-8l-28 32 28 32z"/><path d="m-660 144h56-8-40z"/><path d="m-612 200h-40v-48h40z"/><path d="m-604 208h-56 8 40z"/><path d="m-652 152v48z"/><path d="m-612 200v-48z"/><path d="m-604 152v48z"/><path d="m-652 200h40z"/><path d="m-612 152h-40z"/><path d="m-660 144v8 48z"/><path d="m-660 200v8z"/><path d="m-604 144h-56l28 32z"/><path d="m-148 200v8z"/><path d="m-140 204v-4z"/><path d="m-148 200v-48h8v48z"/><path d="m-148 152h-40v-8h40z"/><path d="m-188 200h40v8h-40z"/><path d="m-196 204v4z"/><path d="m-196 152v48 4-60z"/><path d="m-196 200v-48h8v48z"/><path d="m-612 200v8z"/><path d="m-604 152v-8z"/><path d="m-604 208v-4z"/><path d="m-612 200v-48h8v48z"/><path d="m-612 152h-40v-8h40z"/><path d="m-652 200h40v8h-40z"/><path d="m-660 200v-48h8v48z"/><path d="m-752 936v-32z"/><path d="m-752 904h32z"/><path d="m-720 904v32z"/><path d="m-720 936h-32z"/><path d="m-456 346.8-84 16.2-102 73-38 100h40 184z"/><path d="m-232 383.0392-28-20.0392-140-27-56 10.8v189.2h40 184z"/><path d="m-192 536h32 40l-38-100-74-52.9608v152.9608z"/><path d="m-416 536h-40-184v16h224z"/><path d="m-192 536h-40-184v16h224z"/><path d="m-160 552v-16h-32v16z"/><path d="m-120 536h8-7z"/><path d="m-456 346.8 56-10.8-56 10.8-84 16.2z"/><path d="m-540 363-102 73z"/><path d="m-120 536-38-100z"/><path d="m-160 536v16z"/><path d="m-640 536h-40-24z"/><path d="m-704 536h-32z"/><path d="m-416 552h-224v96 128h224z"/><path d="m-640 776v96 64h16 208v-160z"/><path d="m-192 552h-224v224h224z"/><path d="m-416 776v160h16 208v-160z"/><path d="m-160 776v-16-208h-32v224z"/><path d="m-160 936v-160h-32v160z"/><path d="m-400 936h-16-208z"/><path d="m-160 760v16 160-16z"/><path d="m-640 552v96z"/><path d="m-696 632h-16z"/><path d="m-696 952v-32-32-16z"/><path d="m-624 936h-16z"/><path d="m-736-32v88z"/><path d="m-736 176v-88-32z"/><path d="m-736 296v84 88 52-208z"/><path d="m-736 380v-84-32z"/><path d="m-736 264h32z"/><path d="m-736 176h32v88h-32z"/><path d="m-736 468v-88h32v88z"/><path d="m-188 144h-8z"/><path d="m-188 144h40z"/><path d="m-148 208h8z"/><path d="m-148 208h-40z"/><path d="m-148 152v-8z"/><path d="m-148 200v-48z"/><path d="m-140 200v4-4-48z"/><path d="m-140 152v-8z"/><path d="m-148 200h8z"/><path d="m-140 152h-8z"/><path d="m-148 152v48h8v-48z"/><path d="m-188 200v8z"/><path d="m-188 144v8z"/><path d="m-188 152v48z"/><path d="m-148 200h-40v8h40z"/><path d="m-148 144h-40v8h40z"/><path d="m-188 200h40z"/><path d="m-148 152h-40z"/><path d="m-196 200v-48z"/><path d="m-196 200v4z"/><path d="m-196 200h8z"/><path d="m-188 152h-8z"/><path d="m-196 152v48h8v-48z"/><path d="m-652 144h-8z"/><path d="m-652 144h40z"/><path d="m-612 208h-40z"/><path d="m-612 208h8z"/><path d="m-652 144v8z"/><path d="m-652 152v48z"/><path d="m-652 200v8z"/><path d="m-612 152v-8z"/><path d="m-612 200v-48z"/><path d="m-604 152v48z"/><path d="m-612 200h8z"/><path d="m-604 152h-8z"/><path d="m-612 152v48h8v-48z"/><path d="m-652 200h40z"/><path d="m-612 152h-40z"/><path d="m-612 144h-40v8h40z"/><path d="m-612 200h-40v8h40z"/><path d="m-660 200h8z"/><path d="m-652 152h-8z"/><path d="m-660 152v48h8v-48z"/><path d="m-660 200v-48z"/><path d="m312-340v-24z"/><path d="m312-284v-56z"/><path d="m-148 200v8z"/><path d="m-148 200v-48h8v48z"/><path d="m-148 152h-40v-8h40z"/><path d="m-188 200h40v8h-40z"/><path d="m-196 200v-48h8v48z"/><path d="m-612 200v8z"/><path d="m-612 200v-48h8v48z"/><path d="m-652 200h40v8h-40z"/><path d="m-612 152h-40v-8h40z"/><path d="m-660 200v-48h8v48z"/><path d="m-1056 728v224z"/><path d="m-1056 552v176z"/><path d="m-112 536h48z"/><path d="m-112 536h-7z"/><path d="m236-404h16z"/><path d="m184-408v4h52v-4z"/><path d="m236-420h-52v12h52z"/><path d="m236-408v4z"/><path d="m236-420v12z"/><path d="m252-420h-16z"/><path d="m184-408v-12z"/><path d="m184-404v-4z"/><path d="m236-420h-52z"/><path d="m184-420h52z"/><path d="m236-408h-52z"/><path d="m184-408h52z"/><path d="m184-420h-16z"/><path d="m236-408h-52v-12h52z"/><path d="m236-420v12z"/><path d="m184-408v-12z"/><path d="m-468 88h-16z"/><path d="m-332 256h16z"/><path d="m-468 240v16z"/><path d="m-468 88v16z"/><path d="m-332 256v-16z"/><path d="m-332 104v-16z"/><path d="m-332 104v136z"/><path d="m-316 104h-16z"/><path d="m-316 104v-16z"/><path d="m-332 240h16z"/><path d="m-316 104h-16v136h16z"/><path d="m-468 88v16h136v-16z"/><path d="m-332 256v-16h-136v16z"/><path d="m-332 240h-136z"/><path d="m-484 240h16z"/><path d="m-468 104h-16z"/><path d="m-468 104h-16v136h16z"/><path d="m-484 104v136z"/><path d="m-484 240v16z"/><path d="m-64 536h-48z"/><path d="m-140 144h-8z"/><path d="m-148 208h-40z"/><path d="m-148 144v8z"/><path d="m-140 204v-4z"/><path d="m-148 152v48h8v-48z"/><path d="m-140 200h-8z"/><path d="m-148 152h8z"/><path d="m-188 200v8z"/><path d="m-188 152v-8z"/><path d="m-148 200h-40v8h40z"/><path d="m-148 144h-40v8h40z"/><path d="m-196 144v8z"/><path d="m-196 152v48h8v-48z"/><path d="m-196 152h8z"/><path d="m-188 200h-8z"/><path d="m-652 144h40z"/><path d="m-612 208h-40z"/><path d="m-652 152v48z"/><path d="m-652 144v8z"/><path d="m-652 200v8z"/><path d="m-612 200v-48z"/><path d="m-612 152v-8z"/><path d="m-604 152v48z"/><path d="m-612 152v48h8v-48z"/><path d="m-612 200h8z"/><path d="m-604 152h-8z"/><path d="m-612 152h-40z"/><path d="m-612 144h-40v8h40z"/><path d="m-652 200h40z"/><path d="m-612 200h-40v8h40z"/><path d="m-660 200h8z"/><path d="m-652 152h-8z"/><path d="m-660 152v48h8v-48z"/><path d="m-660 200v-48z"/><path d="m-680 536h-24z"/><path d="m-704 536h24 40z"/><path d="m-352 536h-64z"/><path d="m-456 536h-184-40l38-100 102-73 84-16.2z"/><path d="m-232 536h-120-64-40v-189.2l56-10.8 140 27 28 20.0392z"/><path d="m-120 536h-112v-152.9608l74 52.9608z"/><path d="m-260 363-140-27z"/><path d="m-158 436-74-52.9608-28-20.0392 28 20.0392z"/><path d="m-642 436-38 100z"/><path d="m-704 536h-32z"/><path d="m168-404h16z"/><path d="m184-404h68-16z"/><path d="m252-420h-84 16 52z"/><path d="m252-420v16h-68-16v-16z"/><path d="m-140 144h-8-40-8 8 40z"/><path d="m-148 152v48z"/><path d="m-148 200v8z"/><path d="m-140 204v-4-48-8 8 48z"/><path d="m-148 200v-48h8v48z"/><path d="m-188 200v-48z"/><path d="m-188 152h40z"/><path d="m-148 152h-40v-8h40z"/><path d="m-148 200h-40z"/><path d="m-188 200h40v8h-40z"/><path d="m-196 152v48z"/><path d="m-196 200v-48h8v48z"/><path d="m-468 88h136z"/><path d="m-332 256h-136z"/><path d="m-468 104v136z"/><path d="m-332 104h16v136h-16z"/><path d="m-316 104v136z"/><path d="m-468 104v-16h136v16z"/><path d="m-332 240v16h-136v-16z"/><path d="m-332 104h-136z"/><path d="m-484 104h16v136h-16z"/><path d="m-612 200v8z"/><path d="m-612 200v-48h8v48z"/><path d="m-612 152h-40v-8h40z"/><path d="m-652 200h40v8h-40z"/><path d="m-660 200v-48h8v48z"/><path d="m420-140v56 168-168z"/><path d="m420-364v56 168-168z"/><path d="m420-588v56 168-168z"/><path d="m420-756v168z"/><path d="m312-36v-48-176 176z"/><path d="m312-260v-24z"/><path d="m312-588v-84z"/><path d="m420-756h-108z"/><path d="m420 84h-108z"/><path d="m420-532v-56-168h-108v84 84 56z"/><path d="m420-308v-56-168h-108v168 56z"/><path d="m420-84v-56-168h-108v24 24 176z"/><path d="m312-36v120h108v-168h-108z"/><path d="m-748-672v-84z"/><path d="m-524-756h-104-120v84h120 104z"/><path d="m-300-756h-104-120v84h120 104z"/><path d="m-76-756h-104-120v84h120 104z"/><path d="m148-756h-104-120v84h120 104z"/><path d="m268-672h44v-84h-44-120v84z"/><path d="m-404-672h-120-104z"/><path d="m-180-672h-120-104z"/><path d="m44-672h-120-104z"/><path d="m268-672h-120-104z"/><path d="m-748-756h120z"/><path d="m296-436v72z"/><path d="m296-36h16z"/><path d="m296-364v80h16v-24-56z"/><path d="m312-284h-16z"/><path d="m296-364h16z"/><path d="m312 84v-120h-16v120z"/><path d="m312 84h-16z"/><path d="m296-212h-44z"/><path d="m252-436h44z"/><path d="m252-212h44v-72-80-72h-44z"/><path d="m296-36h-44v120h44z"/><path d="m252-36h44z"/><path d="m296 84h-44z"/><path d="m252-212h-126 42z"/><path d="m126-436h126-84z"/><path d="m126-436v224h126v-224z"/><path d="m126-212v-224z"/><path d="m252-36h-12v120h12z"/><path d="m240-36h12z"/><path d="m252 84h-12z"/><path d="m-72 84v-120-16 152z"/><path d="m-72-52v16z"/><path d="m-72 84v16z"/><path d="m-72-36h224z"/><path d="m152-36h88z"/><path d="m152-36h-224v120h224z"/><path d="m240-36h-88v120h88z"/><path d="m152 84h-224z"/><path d="m240 84h-88z"/><path d="m-728-672v-84z"/><path d="m364-756v84z"/><path d="m364-672h-196v-84h196z"/><path d="m168-672h-224v-84h224z"/><path d="m-56-672h-224v-84h224z"/><path d="m-280-672h-224v-84h224z"/><path d="m-504-672h-224v-84h224z"/><path d="m348-756h72z"/><path d="m420 24h-72z"/><path d="m348 24v-108h72v108z"/><path d="m348-84v-224h72v224z"/><path d="m348-308v-224h72v224z"/><path d="m348-532v-224h72v224z"/><path d="m420-8v92z"/><path d="m-112 84v-92z"/><path d="m420 84h-84v-92h84z"/><path d="m336 84h-224v-92h224z"/><path d="m112 84h-224v-92h224z"/><path d="m-48 84h-24v-120h24z"/><path d="m-72-36h24z"/><path d="m-48 84h-24z"/><path d="m-48-36v120z"/><path d="m-72 84v-120z"/><path d="m312-284h-16v-80h16z"/><path d="m296-364h16z"/><path d="m-64 100h-8v-152h8z"/><path d="m-64-52h-8z"/><path d="m-64-168v44 72z"/><path d="m-64 100v104z"/><path d="m-64 204v76 64z"/><path d="m-188 144h40 8z"/><path d="m-188 144h-8z"/><path d="m-140 144h-8z"/><path d="m-196 208h8z"/><path d="m-140 208h-8-40-8z"/><path d="m-148 144v8z"/><path d="m-148 200v-48z"/><path d="m-140 204v4z"/><path d="m-140 152v-8z"/><path d="m-140 204v-4z"/><path d="m-148 152h8z"/><path d="m-140 200h-8z"/><path d="m-148 152v48h8v-48z"/><path d="m-188 200v8z"/><path d="m-188 152v-8z"/><path d="m-188 152v48z"/><path d="m-148 152h-40z"/><path d="m-148 144h-40v8h40z"/><path d="m-188 200h40z"/><path d="m-148 200h-40v8h40z"/><path d="m-196 200v-48-8 60z"/><path d="m-196 152h8z"/><path d="m-188 200h-8z"/><path d="m-196 152v48h8v-48z"/><path d="m-604 144h-8z"/><path d="m-652 144h40 8-56z"/><path d="m-660 208h8z"/><path d="m-604 208h-8-40-8z"/><path d="m-652 152v48z"/><path d="m-652 144v8z"/><path d="m-652 200v8z"/><path d="m-612 200v-48z"/><path d="m-612 152v-8z"/><path d="m-604 204v-4z"/><path d="m-604 152h-8z"/><path d="m-612 200h8z"/><path d="m-612 152v48h8v-48z"/><path d="m-612 152h-40z"/><path d="m-612 144h-40v8h40z"/><path d="m-652 200h40z"/><path d="m-612 200h-40v8h40z"/><path d="m-660 200h8z"/><path d="m-660 152v48h8v-48z"/><path d="m-660 152v-8 56z"/><path d="m-652 152h-8z"/><path d="m-660 144v8z"/><path d="m-188 200h40v-48h-40z"/><path d="m-140 144v8 48 4z"/><path d="m-652 200h40v-48h-40z"/><path d="m-604 144-21 24h-14l-21-24z"/><path d="m-660 200v-56l21 24v16l-21 24z"/><path d="m-604 144v8 48 4z"/><path d="m-280 24h-32-40z"/><path d="m-448 24h96z"/><path d="m-280 56v-32h-72-96-72v32z"/><path d="m-280 328v-32h-32v32z"/><path d="m-280 296h-32z"/><path d="m-312 296h-208v32h208z"/><path d="m-128-168h64-16-62-32-50z"/><path d="m-128-168h-96-128 144 64z"/><path d="m-64-168v44z"/><path d="m-520 328h32 40z"/><path d="m-448 328h96 72-32-208z"/><path d="m-520 56v-32z"/><path d="m-520 88v-32-32 48 32z"/><path d="m-520 328v-32z"/><path d="m-280 104v192 32-48z"/><path d="m-280 24v32z"/><path d="m-280 296v32z"/><path d="m-448 24h-40-32z"/><path d="m-352-168h-96v192h96z"/><path d="m-448-168v192z"/><path d="m-488 56h40 96 40 32-240z"/><path d="m-448 56h-40z"/><path d="m-352 56v32z"/><path d="m-312 56v32z"/><path d="m-280 56h-32v32h32z"/><path d="m-448 56v32h96v-32z"/><path d="m-488 56h-32v32h32z"/><path d="m-312 88v208h32v-192-16z"/><path d="m-352 256h-96z"/><path d="m-520 88v16 152h32v-168z"/><path d="m-520 256v40h32v-40z"/><path d="m-352 296v-40h-96v40z"/><path d="m-448 296v-40z"/><path d="m-352 296h40z"/><path d="m-488 296h40z"/><path d="m-488 256v40-16z"/><path d="m-312 296h-40-96-40-32z"/><path d="m-640 536h192-64z"/><path d="m-416 536h-32-192 184z"/><path d="m-448 328v152 56z"/><path d="m-416 536h64v-208h-96v208z"/><path d="m-736 312v208 16-192z"/><path d="m-736 88v88 120 16-32-76z"/><path d="m-736 176v88 32z"/><path d="m-736 536h32z"/><path d="m-712 632h-72v88h56 32v-88z"/><path d="m-784 632v-80h-168v168h168z"/><path d="m-728 720h-56-168 168z"/><path d="m-952 552v64 104z"/><path d="m-696 952v-224-8z"/><path d="m-712 632h16z"/><path d="m-696 728v224-80z"/><path d="m-696 632v88 8z"/><path d="m-784 552v80z"/><path d="m-784 632h72z"/><path d="m-332 104h-136v136h136z"/><path d="m-312 328h32-72z"/><path d="m-448-168v192z"/><path d="m-352-168v192z"/><path d="m-448 88h96z"/><path d="m-312 24v32h-40v-32z"/><path d="m-448 56h-40v-32h40z"/><path d="m-352 24v32 32-32z"/><path d="m-312 56v-32 48 16z"/><path d="m-312 56h-40z"/><path d="m-448 88v-32z"/><path d="m-488 88v-32z"/><path d="m-312 88v208z"/><path d="m-448 328v-32-40z"/><path d="m-352 256v40z"/><path d="m-312 328h-40v-32h40z"/><path d="m-488 296v32z"/><path d="m-448 328h-40v-32h40z"/><path d="m-1056 952v-224z"/><path d="m-784 616v88 16h-168v-104z"/><path d="m-696 704v16h-32-56v-16z"/><path d="m-560 704h-136-88v-88h56 168z"/><path d="m-504 616h88v88h-56-88v-88z"/><path d="m-468 256h-16v-16h16z"/><path d="m-480 280h-8v16 32h8z"/><path d="m-616 280h-32-88v32 32h128v-16-48z"/><path d="m-520 280h-88v48h88z"/><path d="m-488 328h-32-88v16h96 32v-16z"/><path d="m-728 616h-56-168v-64h16 184 16 8z"/><path d="m-504 616h-56-168v-64h216 8z"/><path d="m-416 552v8 56h-88v-64z"/><path d="m-616 280v-76h-9-23v76z"/><path d="m-192 704h-56-168v-88-56h224z"/><path d="m32 704h-56-168v-144h144 80z"/><path d="m132 560v144h-100v-144z"/><path d="m-280 328h-32-8v16h128v-16z"/><path d="m-312 280h-8v48h8z"/><path d="m-192 280h-88v48h88z"/><path d="m-352 256v72 152h-96v-152-72z"/><path d="m-352 480v56h-96v-56z"/><path d="m-316 256h-16v-16h16z"/><path d="m-152 280v-76h-9-23v76z"/><path d="m-512 552h-216-8v-16h32 64 128z"/><path d="m-288 552h-128-88-8v-16h64 96 64z"/><path d="m-161 536h49 48v16h-128-96v-16z"/><path d="m-64 344v-64h-88-32-8v48 16z"/><path d="m-192 560h-224v-8h128 96z"/><path d="m-64 552h16v8h-144v-8z"/><path d="m-936-360h184v176 48h-184z"/><path d="m-752-136v16 208h-184v-224z"/><path d="m-752 88v16 208h-184v-224z"/><path d="m-752 312v16 224h-184v-16-224z"/><path d="m-616 72h-9v96 16 20h9z"/><path d="m-639 168v-96h-9v112h9z"/><path d="m-480 8h-32-96v16h88 32 8z"/><path d="m-608 24v48h88v-48z"/><path d="m-720 72h72 9 14 9 8v-48-16h-128v64z"/><path d="m-488 72h8v-48h-8z"/><path d="m-520 104v-32h32v16 168 24h-32z"/><path d="m-468 104h-16v-16h16z"/><path d="m-625 72h-14v96h14z"/><path d="m-639 184h-9v20h23v-20z"/><path d="m-448 24v-192h16 80v192 32h-96z"/><path d="m-352 56v32h-96v-32z"/><path d="m-175 184h-9v20h23v-20z"/><path d="m-161 72h-14v96h14z"/><path d="m-48-120v-64h180v216 8h-180z"/><path d="m132 40v216 8h-180v-160-64z"/><path d="m132 264v216 8h-180v-160-64z"/><path d="m132 488v72h-100-80v-8-64z"/><path d="m-192 8h-128v16h8 32 88z"/><path d="m-320 24v48h8v-48z"/><path d="m-432-168h-16-48-160v-16h128 96z"/><path d="m-208-168h-144-80v-16h128 96z"/><path d="m-144-184v16h-64v-16z"/><path d="m-280 72h88v-48h-88z"/><path d="m-96 8h-96v16 48h8 9 14 9 88v-64z"/><path d="m-312 88v-16h32v32 176h-32z"/><path d="m-316 88v16h-16v-16z"/><path d="m-528-184h-128-96v-176h40 184z"/><path d="m-304-184h-128-96v-176h40 184z"/><path d="m-80-184h-64-64-96v-176h40 184z"/><path d="m-40-360h172v168 8h-180-32v-176z"/><path d="m-175 168v-96h-9v112h9z"/><path d="m-152 72h-9v96 16 20h9z"/><path d="m-712-360h-40-184z"/><path d="m-488-360h-40-184z"/><path d="m-264-360h-40-184z"/><path d="m-40-360h-40-184z"/><path d="m132-360v168z"/><path d="m32 704h100-156z"/><path d="m-936 312v224-208z"/><path d="m-936 88v224-208z"/><path d="m-936-136v224-208z"/><path d="m-936 536v16z"/><path d="m-656-184h-56-40z"/><path d="m-736 204v76z"/><path d="m-64 536v-192 192 16z"/><path d="m-64 204v-104-28 48 160z"/><path d="m-48 552h-16z"/><path d="m-48 328v160 64-64z"/><path d="m-48 104v160 64-64z"/><path d="m-48-120v160 64-64z"/><path d="m-64 280h-88z"/><path d="m-488 72h-32-88-8 8 128z"/><path d="m-192 72h-88-32-8 136z"/><path d="m-480 8h-32z"/><path d="m-656-184v16z"/><path d="m-184 204v-20-112 208z"/><path d="m-648 204v-20-112 208z"/><path d="m-512 344h-96-128 128z"/><path d="m-736 552h-16z"/><path d="m-752-136v-48 64z"/><path d="m-696 720v-16z"/><path d="m-696 720v232z"/><path d="m-1056 952h224z"/><path d="m-720-168h-16z"/><path d="m-64-168h-64z"/><path d="m-64-124v132 64 28-152z"/><path d="m-64 100v104z"/><path d="m-64 344v192z"/><path d="m-161 184v-16l21-24v60 4z"/><path d="m-112 536h-49 42z"/><path d="m-952 552h-104z"/><path d="m-488 328h-32z"/><path d="m-280 328h-32z"/><path d="m-161 168h-14l-21-24h8 48z"/><path d="m-175 184h14l21 24h-56z"/><path d="m-175 168v16l-21 24v-4-60z"/><path d="m-520 104v176 48-32-40z"/><path d="m-280 72v-48 32 32 16z"/><path d="m-312 24h32z"/><path d="m-520 24h32z"/><path d="m-352-168v192z"/><path d="m-448 24v32 32-32z"/><path d="m-488 72v-48 32 32z"/><path d="m-312 88v192 48-32z"/><path d="m-484 256h16z"/><path d="m-468 240v16z"/><path d="m-468 88v16z"/><path d="m-332 240v16z"/><path d="m-332 104v-16z"/><path d="m-316 104h-16z"/><path d="m-316 240h-16z"/><path d="m-316 256v-16z"/><path d="m-488 88v168z"/><path d="m-468 240h-16z"/><path d="m-468 104h-16z"/><path d="m-484 88v16z"/><path d="m-352 256v40 32z"/><path d="m-625 184v-16l21-24v60 4z"/><path d="m-639 184h14l21 24h-56z"/><path d="m-161 536h-127-64 120 112 1z"/><path d="m-352 536v-56-152z"/><path d="m-736-168v136z"/><path d="m-736 72v-64-40 88 32z"/><path d="m-696 720h-32z"/><path d="m-332 240h-136z"/><path d="m-468 240v-136z"/><path d="m-468 104h136z"/><path d="m-332 104v136z"/><path d="m-332 240h-136v-136h136z"/><path d="m-704 700h-60v224h60z"/><path d="m-736-32v40z"/><path d="m-736-168v136z"/><path d="m-648 280h-88z"/><path d="m-152 280h88-120z"/><path d="m-648 72h-72z"/><path d="m-616 72h-32-72z"/><path d="m-96 72h32-88z"/><path d="m-152 72h-32-136 128 96z"/><path d="m-656-168h-64z"/><path d="m-720-168h-16z"/><path d="m-616 72v132 76z"/><path d="m-184 72h32v208h-32z"/><path d="m-152 72v132 76z"/><path d="m-648 72h32v208h-32z"/><path d="m-720 936h-32v-32h32z"/><path d="m-752 936v-32z"/><path d="m-752 904h32z"/><path d="m-720 904v32z"/><path d="m-720 936h-32z"/><path d="m-736 312v32 192-192z"/><path d="m-736 536v16z"/><path d="m-736 344v192z"/><path d="m-736 72v16 116z"/><path d="m-736-32v-136z"/><path d="m-64-168v64 112-132z"/><path d="m-64-168v64z"/><path d="m-616 280h-32z"/><path d="m-608 280h-8 8 88 32 8z"/><path d="m-192 280h-128 8 32 88 8z"/><path d="m-192 280h-128z"/><path d="m-736 72h16z"/><path d="m-96 72h32z"/><path d="m-512 8h-96-128 128z"/><path d="m-512 8h32 80-48-16-16-128z"/><path d="m-96 8h-96-128 128z"/><path d="m-64 8h-32z"/><path d="m-64 72h-32-96v-64h96 32z"/><path d="m-608 8v64h-8-104-16v-64z"/><path d="m-320 72v-64h-80v64z"/><path d="m-480 8v64h80v-64z"/><path d="m-480 72v-64 16z"/><path d="m-320 8v64-48z"/><path d="m-480 344h-32z"/><path d="m-320 344h128z"/><path d="m-64 344h-128z"/><path d="m-184 280h120v64h-128v-64z"/><path d="m-648 280h32 8v64h-128v-32-32z"/><path d="m-192 344h-128v-64h128z"/><path d="m-320 344v-64h-80v64z"/><path d="m-480 344v-64 48z"/><path d="m-320 280v64-16z"/><path d="m-704 924h-60z"/><path d="m-764 700h60z"/><path d="m-704 924h-60v-224h60z"/><path d="m-704 700v224z"/><path d="m-764 924v-224z"/><path d="m-1056 728v-8-16-152z"/><path d="m-832 952h-224z"/><path d="m-696 952h-136z"/><path d="m-696 704h-240z"/><path d="m-936 552h-16z"/><path d="m-1056 552h104z"/><path d="m-936 552h-16-104v152h120z"/><path d="m-1056 704v16h120v-16z"/><path d="m-832 720h136v-16h-240v16z"/><path d="m-832 720h-104-120v8 224h224z"/><path d="m-696 952v-232h-136v232z"/><path d="m-696 704h-40-200z"/><path d="m-936 328v208 16-64z"/><path d="m-936 104v208 16-64z"/><path d="m-936-120v208 16-64z"/><path d="m-936-360v224z"/><path d="m-936 552v-16 16 152z"/><path d="m132-360h-172z"/><path d="m132 480v8 72 144-144-72z"/><path d="m132 256v8 216-216z"/><path d="m132 32v8 216-216z"/><path d="m132-192v8 216-216z"/><path d="m-472 704h-40-184 136z"/><path d="m-248 704h-168-56 56z"/><path d="m-24 704h-40-128-56 56z"/><path d="m-936-184v-176 224 16z"/><path d="m-936 552v152z"/><path d="m-48-184h-96 64z"/><path d="m-712-360h-224v176h184 40z"/><path d="m-488-360h-224v176h56 168z"/><path d="m-264-360h-224v176h56 168z"/><path d="m-40-360h-224v176h56 64 96 8z"/><path d="m132-184v-8-168h-172v176z"/><path d="m-736-32v40 64z"/><path d="m-24 704h156v-144h-180-16v144z"/><path d="m-48 560v-8h-16v8z"/><path d="m132 32v-216h-172-8v64 160h180z"/><path d="m-48 40v64 160h180v-8-216z"/><path d="m-48 264v64 160h180v-8-216z"/><path d="m-48 488v64 8h180v-72z"/><path d="m-48-184v64z"/><path d="m-432-184h-56-168v16h224z"/><path d="m-208-184h-56-168v16h224z"/><path d="m-144-168v-16h-64v16z"/><path d="m-432-168h-224 136z"/><path d="m-208-168h-224 136 31.5789z"/><path d="m-144-184v16z"/><path d="m-144-168h80-64z"/><path d="m-64 536h-224z"/><path d="m-512 552h-224v152h40 184z"/><path d="m-416 560v-8h-96v152h40 56z"/><path d="m-192 560h-224v144h168 56z"/><path d="m-64 560h-128v144h128z"/><path d="m-192 552h-96-128v8h224z"/><path d="m-64 552h-128v8h128z"/><path d="m-512 536h-224v16h224z"/><path d="m-288 536h-224v16h96 128z"/><path d="m-192 552h128v-16h-224v16z"/><path d="m-752 328v160 64z"/><path d="m-752 104v160 64-16z"/><path d="m-752-120v160 64-16z"/><path d="m-752-120v-64h-184v64 160h184z"/><path d="m-936 40v64 160h184v-160-64z"/><path d="m-936 264v64 160h184v-160-64z"/><path d="m-936 488v64h184v-64z"/><path d="m-736 552h-16-184v152h200z"/><path d="m-400 280h80-17.4391-62.5609-6.2316-41.7684z"/><path d="m-400 280h-48-16-16-128 128z"/><path d="m-400 344v-64h-80v64z"/><path d="m-448 72h-16 2.0521z"/><path d="m-480 72h16 16 48-80-128z"/><path d="m-320 72h-80-48 41.7684 6.2316 62.5609z"/><path d="m-320 72h128z"/><path d="m-320 8h128z"/><path d="m-320 72v-64h128v64z"/><path d="m-480 72h-128v-64h128z"/><path d="m-448 344h-16 2.0521z"/><path d="m-448 344h48-80-32-96 128 16z"/><path d="m-480 344h-128v-64h128z"/><path d="m-480 280h16 2.0521-.613z"/><path d="m-480 8h16 2.0521-.613z"/><path d="m-320 8v64z"/><path d="m-320 8v64h-17.4391v-64z"/><path d="m-480 72v-64z"/><path d="m-320 280v64z"/><path d="m-320 280v64h-17.4391v-64z"/><path d="m-480 344v-64h17.4391v64z"/><path d="m-480 344v-64z"/><path d="m-464 72h-16 17.4391.613z"/><path d="m-464 344h-16 17.4391.613z"/><path d="m-461.9479 280h-2.0521 16z"/><path d="m-461.9479 8h-2.0521 16z"/><path d="m-462.5609 280h.613 13.9479-72z"/><path d="m-462.5609 8h.613 13.9479-72z"/><path d="m-462.5609 8v64h-17.4391v-64z"/><path d="m-462.5609 72v-64h-57.4391v64z"/><path d="m-462.5609 344v-64h-57.4391v64z"/><path d="m-448 8h48 80-17.4391-62.5609-6.2316z"/><path d="m-448 344h-13.9479-.613-57.4391 8z"/><path d="m-400 72h-6.2316v-64h6.2316z"/><path d="m-400 344h-6.2316v-64h6.2316z"/><path d="m-520 344v-64-76h-200-16v108 32z"/><path d="m-393.7685 344v-64h-12.4631v64z"/><path d="m-280 280v64h15.5789v-64z"/><path d="m-296 204h-200-24v76h72 41.7684 12.4631 97.7685z"/><path d="m-280 280h15.5789v-76h-31.5789v76z"/><path d="m-512 344h-8-216v192h224z"/><path d="m-288 344h-105.7685-12.4631-41.7684-64v192h224z"/><path d="m-64 536v-192h-200.4211-15.5789-8v192z"/><path d="m-720-168h-16v136 88h16z"/><path d="m-736 56v148h16v-132-16z"/><path d="m-406.2316 72h12.4631v-64h-12.4631z"/><path d="m-520 8v-176h-136-64v224 16h200z"/><path d="m-296-168h-136-88v176h72 41.7684 12.4631 97.7685z"/><path d="m-280 8h15.5789v-176h-31.5789v176z"/><path d="m-64-104v-64h-144-56.4211v176 48h200.4211z"/><path d="m-264.4211 56v16 132 76h200.4211v-160-64z"/><path d="m-264.4211 280v64h200.4211v-64z"/><path d="m-280 8v64h15.5789v-16-48z"/><path d="m-496 72h-24-200v132h200 24z"/><path d="m-296 204h31.5789v-132h-15.5789-113.7685-12.4631-41.7684-48v132z"/><path d="m-736 204v76 32z"/><path d="m-736 204v-148-88 104z"/><path d="m-64 536v-192z"/><path d="m-64 120v160 64-64z"/><path d="m-64-104v160 64-48-64z"/><path d="m-280 280h-16-97.7685-6.2315 62.5609z"/><path d="m-496 72h48-13.9479-.613-57.4391z"/><path d="m-280 72h-57.4391-62.5609 6.2315z"/><path d="m-280 8h-16-97.7685-6.2315 62.5609z"/><path d="m-64-168h-80-64z"/><path d="m-720-168h64z"/><path d="m-736-168h16z"/><path d="m-280 72v-64h-57.4391v64z"/><path d="m-393.7685 72h-6.2315v-64h6.2315z"/><path d="m-512 536h-224z"/><path d="m-288 536h-224z"/><path d="m-406.2316 344h6.2316 62.5609 17.4391-80-48z"/><path d="m-288 344h8-57.4391-62.5609 6.2315z"/><path d="m-280 344v-64h-57.4391v64z"/><path d="m-393.7685 344h-6.2315v-64h6.2315z"/></g></defs><path d="m-1212-948h1780v2304h-1780z" fill="#fff"/><g stroke="#000"><use fill="none" stroke-miterlimit="0" stroke-width="15" xlink:href="#a"/><use fill="#fff" xlink:href="#a"/></g></svg>