<svg viewBox="-1256.61584473 -1183.65844727 2487.29748535 2381.86474609" xmlns="http://www.w3.org/2000/svg" xmlns:xlink="http://www.w3.org/1999/xlink"><defs><g id="a"><path d="m-830.9495 648.3539 49.0505-40.4603.0668-.0552 79.1481 39.2286 65.2086 32.3194z"/><path d="m-792.3473 555.5479 10.4287 52.2478.0196.0979-49.0505 40.4603-9.5264-1.528 47.4772-94.5415z"/><path d="m-896.9246 31.6158 15.1562 75.9321 15.3211 76.759-46.5335-36.3976z"/><path d="m-896.9246 31.6158-16.0562 116.2935-145.6349-113.9124 167.8005-46.6302z"/><path d="m-702.6841 647.067-79.1481-39.2286 63.3922-52.2905 45.5154-37.5445 115.0924-94.9366v56.6892 167.3108z"/><path d="m-557.8322 703.756v15.1043l-79.6433-39.4739-65.2086-32.3194 144.8519-.0002z"/><path d="m-557.8322 479.756v-56.6892l108.9076-89.835 93.9246-77.4758v110.7919 113.2081z"/><path d="m-557.8322 703.756v-56.6892-167.3108h202.8322v110.7919 113.2081z"/><path d="m-355 814.5479v4.8428l-58.4748-28.982-144.3574-71.5484v-15.1043h202.8322z"/><path d="m-876.4813-116.4521 16.5931-120.1805 14.334-103.8195h172.6296v224z"/><path d="m-881.7684 107.5479-15.1562-75.9321 6.1094-44.2491 14.3339-103.8188h203.5567v224z"/><path d="m-837.0579 331.5479-12.2442-61.3434-17.1452-85.8976-15.3211-76.759h208.8438v224z"/><path d="m-672.9246 518.0034-45.5154 37.5445h-73.9073l-.6514-3.2635-11.5927-58.0797-32.4665-162.6568h164.1333z"/><path d="m-718.44 555.5479-63.3922 52.2905-.0668.0552-.0196-.0979-10.4287-52.2478z"/><path d="m-672.9246-116.4521v-224h51.3704 124.3228 48.3068v224z"/><path d="m-672.9246 107.5479v-224h224v224z"/><path d="m-672.9246 331.5479v-224h224v224z"/><path d="m-448.9246 333.2318-108.9076 89.835-115.0924 94.9366v-186.4555h224z"/><path d="m-448.9246-116.4521v-224h.3233 93.6013v75.642 148.358z"/><path d="m-448.9246 107.5479v-224h93.9246v65.9315 35.3185 23.75 29.375 30.4929 39.1321z"/><path d="m-355 179.882v75.874l-93.9246 77.4758v-1.6839-224h93.9246z"/><path d="m-139.3679 926.2651-137.412 38.9007 52.5779-80.9473z"/><path d="m-52.7793 901.7522-36.7114 10.3928 4.3929-97.5971.2878-6.3959 14.6638 6.3959 128.0761 55.863z"/><path d="m-355 590.5479v-110.7919-113.2081h79.2994 144.7006v224z"/><path d="m-355 814.5479v-110.7919-113.2081h224v224z"/><path d="m-131 923.8962-8.3679 2.3689-84.8341-42.0466-130.798-64.8278v-4.8428h224z"/><path d="m-64.9335 366.5479-10.0822 224h-55.9843v-224z"/><path d="m-75.0157 590.5479-9.7943 217.6041-.2878 6.3959h-45.9022v-224z"/><path d="m-85.0978 814.5479-4.3929 97.5971-41.5093 11.7512v-109.3483z"/><path d="m-75.0157 590.5479 10.0822-224h9.2246 31.8818 17.8271 29.4376 33.3236 82.4288v224z"/><path d="m-70.1462 814.5479-14.6638-6.3959 9.7943-217.6041h214.2057v224z"/><path d="m139.19 905.8541-81.2601-35.4432-128.0761-55.863h209.3362z"/><path d="m162.8734 366.5479h179.1037 10.0229v147.7005 76.2995h-212.81v-224z"/><path d="m352 590.5479v147.7005 35.2496 41.0499h-212.81v-224z"/><path d="m352 814.5479v150.7055 33.4221l-70.0695-30.5623-142.7405-62.2591v-91.3062z"/><path d="m182.4313 314.6267-24.4203 17.6958-18.3324 5.9477-10.2647 3.3302z"/><path d="m345.4729 79.1875 2.5858.1164-5.0792 15.6235z"/><path d="m352 79.4813-3.9413-.1774-2.5858-.1164 6.5271-41.2021z"/><path d="m255.4832 261.6905-5.2313 3.7908 3.9207-5.3796z"/><path d="m326.8428 144.5629-9.2897 28.5749-17.968 24.6537z"/><path d="m299.5851 197.7915 17.968-24.6537-17.4886 53.7941-11.4997-14.0195z"/><path d="m341.9771 366.5479-86.4939-104.8574-1.3106-1.5888 9.8956-13.5777 24.4966-33.6116 63.4352 77.336v76.2995z"/><path d="m55.9013 365.4505 24.367-7.9055 49.1456-15.9446 10.2647-3.3302 3.7744 4.6016 19.4204 23.6761h-23.6834-82.4288z"/><path d="m55.9013 365.4505-2.8198-3.5987 27.1868-4.3068z"/><path d="m23.4375-340.4521h30.1954l28.6972 9.3294z"/><path d="m130.6702-315.4071 28.9198 9.4019 24.41 17.7906z"/><path d="m-303.5851-170.6958-17.3811 23.8484 17.8043-54.765 11.7072 14.2726z"/><path d="m-257.0703-234.5184 3.7911-5.2018 20.197-14.6002-34.9786 34.8819z"/><path d="m-141.4874-311.3796-42.7515 21.7508 38.0379-27.4974z"/><path d="m247.9538-241.6044 3.0275 2.2064 18.3777 25.3612-43.6833-43.8042z"/><path d="m269.359-214.0368-18.3777-25.3612-2.1334-2.9439 103.1521-85.0874v90.9995 88.1043l-21.9672 18.0186z"/><path d="m-345.6524 97.0465-9.3476-28.6307v-30.4929z"/><path d="m-219.7274 313.225-29.8016-41.2256 2.2188-1.8302 17.9843 13.1072 45.4475 33.1228 21.0061 15.3095z"/><path d="m-23.8271 366.5479h-31.8818l-31.0473-10.0936z"/><path d="m-326.2947 156.3367 1.4318-1.1747 21.6862 42.6248-27.4157-37.9252z"/><path d="m53.0815 361.8518 3.6797 4.6961h-33.3236z"/><path d="m-162.8723 331.7087 25.1657 8.1815 50.9504 16.5641 31.0473 10.0936h-9.2246-66.0665-144.7006l59.3361-48.6709 3.1073-2.5485z"/><path d="m-247.3102 270.1692-2.2188 1.8302-23.6019-32.6493 28.5165 28.5954z"/><path d="m-137.7066 339.8902-25.1657-8.1815-21.0061-15.3095z"/><path d="m-229.3259 283.2764-17.9843-13.1072 2.6958-2.2237z"/><path d="m-216.3645 317.877-3.3629-4.652 6.4702 2.1035z"/><path d="m-303.1767 197.7868 30.0458 41.5633 23.6019 32.6493 29.8016 41.2256 3.3629 4.652-59.3361 48.6709h-79.2994v-110.7919-75.874l24.4076-20.0204z"/><path d="m-326.2947 156.3367-3.6352-11.1338 5.067 9.9591z"/><path d="m-355-15.2021v-35.3185l2.6785.1205 2.8769.1295z"/><path d="m-355 107.5479v-39.1321l9.3476 28.6307 15.7225 48.1564 3.6352 11.1338-4.2977 3.5249-24.4076 20.0204z"/><path d="m-349.4446-50.2706-2.8769-.1295 5.651-17.3821z"/><path d="m330.0328-130.3069-5.573 4.5713-.2715.2227-22.2836-43.6108z"/><path d="m324.4598-125.7356.682 2.089-.9535-1.8663z"/><path d="m330.0328-130.3069 21.9672-18.0186v106.9425l-10-30.6263-16.8582-51.6373-.682-2.089z"/><path d="m248.8479-242.3419 2.1334 2.9439-3.0275-2.2064z"/><path d="m-344.4518-340.4521 86.1099 104.3916 1.2716 1.5421-10.9905 15.0799-23.3939 32.0987-11.7072-14.2726-51.8381-63.1977v-75.642z"/><path d="m-136.4079-314.5038 2.9616-.9669-2.6044 1.325z"/><path d="m-82.4987-332.1046-50.9476 16.6339-2.9616.9669-25.8766-25.9483h77.8922l6.745 6.7636z"/><path d="m-258.3419-236.0605 5.0627-3.6597-3.7911 5.2018z"/><path d="m-355-116.4521v-148.358l51.8381 63.1977-17.8043 54.765-8.9863 27.6415-16.718 51.4237-5.651 17.3821-2.6785-.1205z"/><path d="m-320.9662-146.8474 17.3811-23.8484-26.3674 51.4899z"/><path d="m184-288.2146-24.41-17.7906 55.6972 18.1073-14.5156 11.9064z"/><path d="m-77.6473-333.6885-6.745-6.7636h36.5089 18.1834l-47.2436 7.4693z"/><path d="m-76.9436-332.9828-5.5551.8782 4.8514-1.5839z"/><path d="m254.1726 260.1017-3.9207 5.3796-18.999 13.7674 32.8153-32.7247z"/><path d="m352-12.4298v3.5401l-10-63.1196 10 30.6263z"/><path d="m158.011 332.3225-14.558 10.5493-3.7744-4.6016z"/><path d="m162.8734 366.5479-19.4204-23.6761 14.558-10.5493 24.4203-17.6958 48.8216-35.378 18.999-13.7674 5.2313-3.7908 86.4939 104.8574z"/><path d="m12.1706-834.7548-9.1706-3.933-50.8836-21.8227-163.9458-70.3122 224 24.2044z"/><path d="m175.4747-888.9725-92.5949 84.5431-70.7092-30.3254v-71.8635z"/><path d="m-594.4366-643.5107 98.5532-99.9259 125.4468 152.9367v71.0633h-121.6546z"/><path d="m-370.4366-519.4366v147.4828l-78.1647-94.7595-43.4899-52.7233z"/><path d="m-370.4366-519.4366v-71.0633l183.7366 224h-179.2379l-4.4987-5.4539z"/><path d="m-186.7-366.4999 40.499 49.3737-38.0379 27.4974-48.8433 35.3084-20.197 14.6002-5.0627 3.6597-86.1099-104.3916-21.4861-26.0478z"/><path d="m-179.468-357.6832 17.1835 17.2311 25.8766 25.9483.3572.3581-5.4367 2.7661z"/><path d="m-842.4741-362.7613 3.8487-27.8754 6.0831-44.0588 142.3075-152.0658 17.6335 22.5037 51.0471 65.1458v136.3505z"/><path d="m-621.5542-340.4521h-51.3704-172.6296l3.0801-22.3092h220.9199z"/><path d="m-497.2314-340.4521h-124.3228v-22.3092-136.3505z"/><path d="m-838.6254-390.6367-16.4933-19.9343 22.5764-24.1245z"/><path d="m267.4161-927.2837-16.2276-30.8188 27.9162-25.4887z"/><path d="m-339.689-985.6584 58.1174 24.9251-97.0296 98.3809z"/><path d="m-606.3943-631.3867-66.207 67.1291-76.4801-97.6031z"/><path d="m-559.1802-419.5107-113.4211-144.7469 66.207-67.1291 11.9577-12.124 102.3454 124.0741 43.4899 52.7233v47.2026z"/><path d="m-448.9246-340.4521h-48.3068l-61.9488-79.0586h110.5789v79.0586z"/><path d="m-448.6013-419.5107v-47.2026l78.1647 94.7595 4.4987 5.4539 21.4861 26.0478h-10.5482-93.6013z"/><path d="m53.6329-340.4521h-30.1954-20.4375v-16.461z"/><path d="m-490.3851-736.7333-5.4983-6.7033 117.2822-118.9158 97.0296-98.3809 9.6882 4.1549v219.8451z"/><path d="m-306.6483-512.7333-183.7368-224h218.5017v4.1549 219.8451z"/><path d="m-271.8834-508.5784v38.2282l-34.7649-42.3831h34.7649z"/><path d="m-271.8834-732.5784v-4.1549-219.8451l60.054 25.7557 163.9458 70.3122.0002 127.9321z"/><path d="m-271.8834-508.5784v-4.1549-219.8451h224v96.068 127.932z"/><path d="m-47.8834-412.5104v72.0583h-36.5089-77.8922l-17.1835-17.2311-92.4154-112.667v-38.2282h224z"/><path d="m3-838.6878v202.1774h-50.8834v-96.068l-.0002-127.9321z"/><path d="m3-636.5104v21.8226 202.1774h-50.8834v-96.068-127.932z"/><path d="m3-412.5104v21.8226 33.7747 16.461h-9-23.7-18.1834v-72.0583z"/><path d="m969.0687-6.2592 63.6128 24.0375-93.0159 36.0753z"/><path d="m971.7739 228.4496-110.9578 31.5733 4.899-31.7809z"/><path d="m892.775-35.0883 76.2937 28.8291-29.4031 60.1128-22.0944 45.1709-16.7283-90.4766z"/><path d="m784.4407-621.0253-5.3795-29.0959 8.2789 2.6466 24.0746 7.696z"/><path d="m246.8597-734.1025-19.8597-8.5174-144.1202-61.8095 92.5949-84.5431 75.7138-69.13 16.2276 30.8188 39.4637 74.9478v118.2334z"/><path d="m306.8798-708.3615-60.0201-25.741h60.0201z"/><path d="m339.3406-790.6876 65.462 124.3228-97.9228-41.9967v-25.741-118.2334z"/><path d="m362.7088 303.3039-62.6443-76.372 17.4886-53.7941 9.2897-28.5749 16.1367-49.6355 5.0792-15.6235 3.9413.1774 172.0645 7.7446v216.078z"/><path d="m524.0645 311.2259v188.7925l-161.3557-196.7145h161.3557z"/><path d="m524.0645 311.2259v-7.922-216.078l51.9355 2.3376 172.0645 7.7446v213.9178z"/><path d="m748.0645 321.3081v124.2636l-3.2518 6.6481-40.6008 83.0061h-151.2684l-28.879-35.2075v-188.7925h224z"/><path d="m704.2119 535.2259-56.5075 115.5264-71.7044-87.4175-23.0565-28.1089z"/><path d="m808.3422 100.0212 56.3737 107.0629-10.338 21.1357-45.5324 93.0883h-60.781v-10.0822-213.9178z"/><path d="m808.8455 321.3081-60.781 124.2636v-124.2636z"/><path d="m744.8127 452.2198 3.2518-6.6481 60.781-124.2636 45.5324-93.0883 11.3372.0222-4.899 31.7809-2.9016 18.8234-26.7256 173.3735z"/><path d="m823.3848 502.8462-16.7103 108.4028-140.3144 50.0706-28.8624 10.2996 10.2067-20.8669 56.5075-115.5264 40.6008-83.0061h86.3762z"/><path d="m855.9485 610.4384-28.976-6.4327 24.3944-8.705z"/><path d="m352 965.2534v-150.7055-41.0499l90.36-32.2446-11.7228 34.9525-63.4047 189.0475z"/><path d="m355.5096 1000.2062-3.5096-1.5307v-33.4221h15.2325z"/><path d="m424.7716-387.4567-72.7716 60.0274-103.1521 85.0874-.8941.7375-22.2781-16.2366-24.9041-18.1505 14.5156-11.9064 11.7128-9.6074 197.7716-162.2228z"/><path d="m451-481.2421 35.8116-29.3745 26.4259 50.1869-88.4659 72.973v-72.2714z"/><path d="m352-327.4293 72.7716-60.0274 88.4659-72.973 50.1031 95.1538 12.6594 24.0421v104.804h-224z"/><path d="m576-236.4298v119.196 104.804h-224v-28.9532-106.9425-88.1043z"/><path d="m576-12.4298v101.9933l-51.9355-2.3376-172.0645-7.7446v-41.4959-29.4375-17.4376-3.5401z"/><path d="m576-236.4298v-104.804l36.9388 70.1528 81.0081 153.8472h-117.9469z"/><path d="m693.9469-117.2338 36.9388 70.1529 24.505 46.5387 31.9499 60.678 3.435 6.5237 17.5666 33.3617-60.2777-2.7131-172.0645-7.7446v-101.9933-104.804z"/><path d="m3-614.6878v-21.8226-202.1774l9.1706 3.933 70.7092 30.3254 144.1202 61.8095v127.9321z"/><path d="m3-390.6878v-21.8226-202.1774h224v96.0679 127.9321z"/><path d="m227-297.5053-11.7128 9.6074-55.6972-18.1073-28.9198-9.4019-48.3401-15.7156-28.6972-9.3294-50.6329-16.461v-33.7747h224z"/><path d="m246.8597-734.1025 60.0201 25.741 97.9228 41.9967 46.1974 87.7362v60.0087h-224v-96.0679-127.9321z"/><path d="m451-518.6199v37.3778l-26.2284 21.514-197.7716 162.2228v-93.1825-127.9321z"/><path d="m451-518.6199v-60.0087l6.2875 11.941 29.5241 56.071-35.8116 29.3745z"/><path d="m352 366.5479v-76.2995l10.7088 13.0555 161.3557 196.7145 11.6722 14.23h-183.7367z"/><path d="m535.7367 514.2484 17.2068 20.9775 23.0565 28.1089v130.2297l-125.219 44.6839h-98.781v-147.7005-76.2995z"/><path d="m450.781 738.2484-8.421 3.005-90.36 32.2446v-35.2496z"/><path d="m576 563.3348 71.7044 87.4175-10.2067 20.8669-61.4977 21.9453z"/><path d="m823.3848 502.8462 27.9821 92.4545-24.3944 8.705-20.298 7.2433z"/><path d="m457.2875-566.6876-6.2875-11.941-46.1974-87.7362-65.462-124.3228 224.0001 71.6066v152.3934z"/><path d="m563.3407-495.081-.0001 129.8051-50.1031-95.1538-26.4259-50.1869-29.5241-56.071h106.0532z"/><path d="m563.3407-495.081v-71.6066-152.3934l215.7205 68.9598 5.3795 29.0959 2.9 15.6848v110.2595z"/><path d="m612.9388-271.081-36.9388-70.1528-12.6594-24.0421.0001-129.8051h224v113.7405 110.2595z"/><path d="m730.8857-47.0809-36.9388-70.1529-81.0081-153.8472h174.4019v113.7405 110.2595z"/><path d="m787.3406 60.1358-31.9499-60.678-24.505-46.5387 56.455-.0001z"/><path d="m787.3407-381.3405v-113.7405-110.2595l22.6033 122.2518 18.8122 101.7482z"/><path d="m787.3407-157.3405v-113.7405-110.2595h41.4155l22.6034 122.2516 18.8122 101.7484z"/><path d="m790.7756 66.6595-3.435-6.5237.0001-107.2168v-110.2595h82.8311l22.6032 122.2522 18.8123 101.7478z"/><path d="m917.5712 99.0245-52.8553 108.0596-56.3737-107.0629-17.5666-33.3617h120.8117z"/><path d="m352 998.6755 3.5096 1.5307v.0001l-73.5793-32.0931h.0002z"/><path d="m860.8161 260.0229 110.9578-31.5733h-.0001z"/><path d="m-6 366.5479h-17.8271z"/><path d="m-6 366.5479h29.4376z"/><path d="m-137.7066 339.8902.0011.0005 16.6092 5.3997 34.3392 11.1637.0009.0002z"/><path d="m939.6656 53.8536 93.0159-36.0753h.0001l-93.016 36.0754z"/><path d="m-355 8.5479v-23.75.0002z"/><path d="m-355 8.5479v29.3749.0001z"/><path d="m1032.6815 17.7783-63.6128-24.0375-76.2937-28.8291v-.0001l139.9066 52.8667z"/><path d="m784.4407-621.0253 26.974-18.7533h.0002l-26.9742 18.7535z"/><path d="m563.3407-719.081-224.0001-71.6066.0002.0001 223.9999 71.6066z"/><path d="m787.3401-647.4746-8.2789-2.6466-215.7205-68.9598v.0001l224 71.6065z"/><path d="m784.4407-621.0253v.0002l25.5033 137.937v-.0006z"/><path d="m-329.9525-119.2059-4.0669 12.5097-12.6512 38.9143.0001-.0003z"/><path d="m299.5851 197.7915v-.0001l27.2577-53.2285z"/><path d="m129.4139 341.6004h.0001l9.1695-4.6652 43.8477-22.3085h.0001z"/><path d="m-141.4874-311.3796 8.0411-4.0911h.0001l-8.0412 4.0911-42.7515 21.7507v.0001z"/><path d="m-303.5851-170.6958-26.3674 51.4899z"/><path d="m-76.9436-332.9828 47.2436-7.4693-52.7987 8.3476v-.0001z"/><path d="m326.8428 144.5629 2.914-8.9633 13.2218-40.6694.0009-.0028z"/><path d="m-324.8629 155.162-5.067-9.9591.0001.0001 5.0669 9.959 21.6862 42.6247v.0001z"/><path d="m324.1883-125.5129.9535 1.8663h.0001l-.9536-1.8663-22.2837-43.6108h.0001z"/><path d="m82.3301-331.1227h-.0002l-58.8924-9.3294z"/><path d="m854.3779 228.2198 10.338-21.1357 52.8553-108.0596 22.0944-45.1709v.0001l-85.2877 174.3663z"/><path d="m971.7739 228.4496-106.0588-.2076-11.3372-.0222v.0002l117.3959.2296z"/><path d="m855.9485 610.4384-4.5816-15.1377-27.9821-92.4545v.0001z"/><path d="m860.8161 260.0229-2.9017 18.8234h.0001z"/><path d="m826.9725 604.0057 28.976 6.4327-28.976-6.4326z"/><path d="m806.6745 611.249 20.298-7.2433v.0001l-160.6125 57.314.0001-.0002z"/><path d="m442.36 741.2534-11.7229 34.9528.0001-.0003z"/><path d="m-23.8271 366.5479-62.9291-10.0936-.0009-.0002z"/><path d="m-183.878 316.3994-.0004-.0002-45.4475-33.1228-.0004-.0004z"/><path d="m-230-48.68-68.5684-56.4175 90.0251 4.0601 4.639.2091 27.0407 22.1241 42.9059 35.1049 3.916 3.204-5.9583-.2682-.8627-.0388-55.1373-2.4817-33.132-1.4911z"/><path d="m-192 72.2798 56-2.5206 6.8599-.3089-4.3037 3.55-42.7371 35.2526-26.1414 21.5633-6.0109.2701-90.9393 4.085 69.2725-56.8209 4.3346-3.5556z"/><path d="m-93.252 191.4115 35.1048-42.906 3.2042-3.9161-2.7889 61.9585-1.4913 33.1328-4.0047 4.8672-56.4174 68.5688 4.06-90.0255.2091-4.6391z"/><path d="m57.7319 206.5479-2.5206-56-.3089-6.8599 3.55 4.3037 35.2526 42.737 21.5633 26.1414.2701 6.011 4.0851 90.9392-56.821-69.2724-3.5555-4.3346z"/><path d="m176.8636 107.7999-42.9059-35.1049-3.9162-3.2041 5.9585.2683.8627.0388 55.1373 2.4818 33.1328 1.4912 4.8672 4.0047 68.5689 56.4174-90.0256-4.06-4.639-.2091z"/><path d="m208.3332-100.9906 90.9393-4.0851-69.2725 56.821-4.3345 3.5553-33.6655 1.5154-56 2.5205-6.8595.3086 4.3033-3.5497 42.7371-35.2526 26.1414-21.5633z"/><path d="m63.2279-215.4521 56.4174-68.5684-4.06 90.025-.2091 4.6391-22.1242 27.0406-35.1048 42.906-3.204 3.9159.2682-5.9582 2.5205-56 1.4911-33.132z"/><path d="m-115.5384-193.7854-4.0852-90.9392 56.8211 69.2725 3.5552 4.3344 1.5154 33.6656 2.5206 56 .3086 6.8594-3.5497-4.3033-35.2526-42.737-21.5634-26.1414z"/><path d="m-130.0417-40.3953 127.1312 5.7221-97.4105 80.3513-28.8191 23.7722-6.8599.3089v-110.4227z"/><path d="m-54.943 144.5894-3.2042 3.9161-75.2966-75.5052 4.3037-3.55 28.8191-23.7722 47.2377 57.5893z"/><path d="m130.0415 69.4909 3.9162 3.2041-75.5053 75.2967-3.55-4.3037-60.2822-73.0806 8.2903-6.8385z"/><path d="m115.7763-29.3311 13.3642-11.0238 6.8595-.3086v110.4227l-5.9585-.2683-127.131-5.722z"/><path d="m-49.8106 107.2571 35.5093 43.2908h-40.91l.2683-5.9585 1.8597-41.322z"/><path d="m-55.2113-121.4521h12.2426l-.9103 20.2236-11.0237-13.3642z"/><path d="m-44.2211-93.6268.3421-7.6017.9103-20.2236h98.1801l-.2682 5.9582-1.1832 26.2858z"/><path d="m89.8904-87.5787-36.1304-1.6294 1.1832-26.2858 3.204-3.9159z"/><path d="m90.0423-30.4894-92.9528-4.1838-127.1312-5.7221-3.916-3.204 51.8782-51.7349 37.8584 1.7074 97.9811 4.4187 36.1304 1.6294.1519.1524z"/><path d="m133.4438-43.9046-4.3033 3.5497-13.3642 11.0238-25.734-1.1583v-56.9369z"/><path d="m-58.1472 148.5055-35.1048 42.906-20.0001-20.0555-62.9288-63.1031 42.7371-35.2526z"/><path d="m133.9577 72.695 42.9059 35.1049-20.0555 20.0001-63.1031 62.9287-35.2526-42.737z"/><path d="m136.8627 69.798 52.3949-52.2501 2.7424-2.7341v57.466z"/><path d="m-136.8627-40.7023-49.3866 49.2502-5.7507 5.734v-57.4659z"/><path d="m-205.768 132.6586-2.5652-2.5723 6.0109-.2701z"/><path d="m-59.4423 244.5479h-3.7856l4.0047-4.8672z"/><path d="m118.1107 220.3159-2.5723 2.5652-.2701-6.011z"/><path d="m225.1328 73.771 4.8672.2191v3.7856z"/><path d="m230 8.5479v65.4422l-4.8672-.2191-33.1328-1.4912v-57.466-31.8988l33.6655-27.6144 4.3345-3.5553z"/><path d="m118.1107 220.3159-2.8424-3.4458-21.5633-26.1414 63.1031-62.9287 47.0962 2.124 4.639.2091z"/><path d="m-230 8.5479v-53.4423l4.868.2193 33.132 1.4911v57.4659 31.8988l-33.6654 27.6141-4.3346 3.5556z"/><path d="m-59.2473-211.1177 19.2577 23.4776-.4585 10.188h-17.2838z"/><path d="m-38.7378-215.4521-1.2518 27.812-19.2577-23.4776-3.5552-4.3344z"/><path d="m-115.2684-187.7744 21.5634 26.1414-63.1031 62.9287-47.0962-2.124-4.639-.2091 90.4326-90.1828z"/><path d="m59.4423-215.4521h3.7856l-4.0049 4.868z"/><path d="m-118.1107-191.2202 2.5723-2.5652.27 6.011z"/><path d="m205.768-103.5629-3.4457 2.8424-26.1414 21.5633-62.9288-63.1031 2.1241-47.0961.2091-4.6391z"/><path d="m115.3762-189.3564-2.1241 47.0961-20.0001-20.0555z"/><path d="m-230-44.8944v-3.7856l4.868 4.0049z"/><path d="m-230 8.5479v68.8025l-69.2725 56.8209-25.5904 20.9907-5.0669-9.959-15.7226-48.1566-9.3476-59.1236v-29.3749z"/><path d="m-205.768 132.6586 90.1827 90.4326-4.06 90.0255-1.451 32.1737-16.6092-5.3997-46.1725-23.4913-45.4483-33.1234-43.8047-43.926-30.0457-41.5633-21.6862-42.6247 25.5904-20.9907 90.9393-4.085z"/><path d="m299.2725-105.0757 24.9158-20.4372.9536 1.8663 16.8581 51.6372 10 63.1198v17.4375h-122v-56.8026z"/><path d="m-230-44.8944v53.4423h-125v-23.7498l8.3294-52.58 12.6512-38.9143 35.451 1.5987 68.5684 56.4175z"/><path d="m-303.5851-170.6958 35.5232-48.7412 34.9811-34.8845 48.8419-35.3074 42.7515-21.7507 21.8638 26.655 4.0852 90.9392-2.5723 2.5652-90.4326 90.1828-90.0251-4.0601-35.451-1.5987 4.0669-12.5097z"/><path d="m-29.7-340.4521h23.7v125h-32.7378-24.0647l-56.8211-69.2725-21.8638-26.655 8.0412-4.0911 50.9475-16.6338z"/><path d="m205.768-103.5629-90.1827-90.4326 4.06-90.025 1.5543-34.4655 9.4708 3.079 53.3296 27.1924 41.6743 30.3726 43.6857 43.8066 32.5446 44.9117 22.2837 43.6108-24.9158 20.4372-90.9393 4.0851z"/><path d="m82.3299-331.1227 38.8697 12.6367-1.5543 34.4655-56.4174 68.5684h-3.7856-65.4423v-125h29.4375z"/><path d="m-59.4423 244.5479h53.4423v122h-17.8271l-62.93-10.0938-34.3392-11.1637 1.451-32.1737 56.4174-68.5688z"/><path d="m352 8.5479v29.4344l-9.0214 56.9479-13.2218 40.6694-31.1879-1.4065-68.5689-56.4174v-3.7856-65.4422z"/><path d="m299.5851 197.7914-35.5159 48.7313-32.8176 32.7269-48.8204 35.3771-43.8477 22.3085-18.96-23.1149-4.0851-90.9392 2.5723-2.5652 90.4326-90.1828 90.0256 4.06 31.1879 1.4065-2.914 8.9633z"/><path d="m-6 244.5479h68.8025l56.821 69.2724 18.96 23.1149-9.1695 4.6652-49.1457 15.9446-56.8307 9.0029h-29.4376z"/><path d="m-203.9043-100.8283 47.0962 2.124-20.0555 20.0001z"/><path d="m205.768-103.5629 2.5652 2.5723-6.0109.2701z"/><path d="m-40.4481-177.4521.4585-10.188 1.2518-27.812h32.7378 65.4423l-.2193 4.868-1.4911 33.132z"/><path d="m-202.3223 129.8162 26.1414-21.5633 62.9288 63.1031-2.1241 47.0961-.2091 4.6391-90.1827-90.4326z"/><path d="m59.247 240.2133 3.5555 4.3346h-68.8025-53.4423l.2191-4.8672 1.4913-33.1328h89.3648z"/><path d="m192-17.085v-26.099l33.6655-1.5154z"/><path d="m156.8081 127.8 20.0555-20.0001 27.0407 22.1241z"/><path d="m31.6329 206.5479h26.099l1.5151 33.6654z"/><path d="m-115.3762 218.4521 2.1241-47.0961 20.0001 20.0555z"/><path d="m-192 46.1807v26.0991l-33.6654 1.515z"/><path d="m90.0423-87.4263-.1519-.1524-31.7432-31.8311 35.1048-42.906 20.0001 20.0555 62.9288 63.1031-42.7371 35.2526z"/><path d="m-156.8081-98.7043 63.1031-62.9287 35.2526 42.737-23.6271 23.5618-51.8782 51.7349-42.9059-35.1049z"/><path d="m-42.9687-121.4521h-12.2426l-2.5206-56h17.2838 98.18l-2.5205 56z"/><path d="m192-17.085v31.8988l-2.7424 2.7341-52.3949 52.2501-.8627-.0388v-110.4227l56-2.5205z"/><path d="m-14.3013 150.5479h69.5126l2.5206 56h-26.099-89.3648l2.5206-56z"/><path d="m-136 69.7592-56 2.5206v-26.0991-31.8988l5.7507-5.734 49.3866-49.2502.8627.0388z"/><path d="m-82.0795-95.3342 23.6271-23.5618 3.5497 4.3033 11.0237 13.3642-.3421 7.6017z"/><path d="m-49.8106 107.2571 44.4308-36.6497 60.2822 73.0806.3089 6.8599h-69.5126z"/><path d="m-53.0833 103.2674-47.2377-57.5893 97.4105-80.3513 92.9528 4.1838 25.734 1.1583-112.8658 93.1-8.2903 6.8385-44.4308 36.6497z"/><path d="m352-8.8896v-.0001 17.4376z"/><path d="m352 8.5479v29.4375-.0031z"/><path d="m-6-340.4521h9 20.4375z"/><path d="m-29.7-340.4521h23.7z"/><path d="m352 37.9823v.0031l-6.5271 41.2021-2.4934 15.7399-.0009.0028z"/><path d="m-233.0808-254.3215-.0014.0011 48.8433-35.3084v-.0001z"/><path d="m264.0692 246.5227-.001.0013-32.8153 32.7247-.0013.0009z"/><path d="m80.2683 357.545-27.1868 4.3068-29.6439 4.6961z"/><path d="m-133.4462-315.4707h-.0001l50.9476-16.6339v.0001z"/><path d="m-303.5851-170.6958 12.1304-16.644 23.3939-32.0987-.0011.0015z"/><path d="m299.5851 197.7914v.0001l-11.0203 15.1209-24.4966 33.6116.001-.0013z"/><path d="m129.414 341.6004h-.0001l-49.1456 15.9446z"/><path d="m-268.0619-219.437.0011-.0015 34.9786-34.8819.0014-.0011z"/><path d="m231.2516 279.2496.0013-.0009-48.8216 35.378h-.0001z"/><path d="m-355-15.2019v-.0002l5.5554-35.0685 2.7741-17.5116-.0001.0003z"/><path d="m-229.3263 283.276.0004.0004-15.2885-15.3309-28.5165-28.5954-.0001-.0001z"/><path d="m269.36-214.0354-.001-.0014 32.5457 44.9131h-.0001z"/><path d="m-345.6524 97.0464v.0001l-9.3476-59.1236v-.0001z"/><path d="m121.1996-318.486-38.8697-12.6367h.0002l48.3401 15.7156.0002.0001z"/><path d="m-137.7055 339.8907-.0011-.0005-46.1718-23.491.0004.0002z"/><path d="m325.1419-123.6466h-.0001l16.8582 51.6373v-.0001z"/><path d="m184-288.2146 16.7716 12.2231 24.9041 18.1505-.0014-.001z"/><path d="m-329.9298 145.203-.0001-.0001-15.7225-48.1564v-.0001z"/><path d="m-273.131 239.35.0001.0001-30.0458-41.5633v-.0001z"/><path d="m130.6704-315.407-.0002-.0001 53.3298 27.1925z"/><path d="m342-72.0094v.0001l10 63.1196v.0001z"/><path d="m225.6743-257.842.0014.001 43.6833 43.8042.001.0014z"/><path d="m57.9303 870.411-.0004-.0001 81.2601 35.4432 142.7405 62.2591h-.0002z"/><path d="m355.5096 1000.2063-73.5793-32.0931z"/><path d="m971.7738 228.4496-110.9577 31.5733z"/><path d="m-1058.6158 33.9969h.0001l145.6349 113.9124 46.5335 36.3976z"/><path d="m1032.6816 17.7783-93.016 36.0754z"/><path d="m-855.1187-410.571 16.4933 19.9343.0001-.0007z"/><path d="m279.1047-983.5912-27.9162 25.4887-75.7138 69.13h-.0001z"/><path d="m-749.0815-661.8608.0001.0001 58.8466 75.0994-.0001.0001z"/><path d="m-211.8294-930.8227-60.054-25.7557-9.6882-4.1549-58.1174-24.9251z"/><path d="m12.1704-906.6184.0002.0001-224-24.2044z"/><path d="m175.4746-888.9725h.0001l-163.3041-17.6458-.0002-.0001z"/><path d="m-378.601-862.3522-.0002-.0002-117.2822 118.9158-98.5532 99.9259-11.9577 12.124h.0003z"/><path d="m-339.689-985.6584-38.9122 123.306.0002.0002z"/><path d="m-606.394-631.3867h-.0003l-142.6871-30.474-.0001-.0001z"/><path d="m-690.2349-586.7612.0001-.0001-142.3075 152.0658-22.5764 24.1245z"/><path d="m892.775-35.0884 139.9066 52.8667z"/><path d="m339.3408-790.6875-.0002-.0001-32.4608-61.6483-39.4637-74.9478h.0002z"/><path d="m811.4149-639.7786-26.9742 18.7535z"/><path d="m339.3408-790.6875 223.9999 71.6066z"/><path d="m563.3407-719.0809 224 71.6065z"/><path d="m811.4149-639.7786h-.0002l-24.0746-7.696.0006.0002z"/><path d="m267.4163-927.2837h-.0002l11.6886-56.3075z"/><path d="m892.775-35.0884v.0001l-41.4154-224.0006-.0001.0008z"/><path d="m851.3595-259.0881.0001-.0008-41.4156-223.9998v.0006z"/><path d="m784.4407-621.0251 25.5033 137.937z"/><path d="m-859.8882-236.6333v.0007l-16.5931 120.1805-14.3339 103.8188z"/><path d="m-838.6253-390.6374-.0001.0007-3.8487 27.8754-3.0801 22.3092-14.334 103.8195v-.0007z"/><path d="m-890.8152-12.6333-167.8005 46.6302h-.0001z"/><path d="m939.6656 53.8537-85.2877 174.3663z"/><path d="m854.3779 228.22 117.3959.2296z"/><path d="m-849.3021 270.2047v-.0002l12.2442 61.3434 32.4665 162.6568h-.0001z"/><path d="m-866.4473 184.3069 17.1452 85.8976v.0002z"/><path d="m823.3848 502.8463 32.5637 107.5921z"/><path d="m823.3848 502.8463v-.0001l7.8041-50.6264 26.7256-173.3735h-.0001z"/><path d="m860.8161 260.0229-2.9017 18.8234z"/><path d="m855.9485 610.4384-28.976-6.4326z"/><path d="m442.36 741.2534 195.1377-69.6342 28.8624-10.2996-.0001.0002z"/><path d="m826.9725 604.0058-160.6125 57.314z"/><path d="m355.5096 1000.2063v-.0001l11.7229-34.9528 63.4047-189.0475-.0001.0003z"/><path d="m442.36 741.2534-11.7229 34.9528z"/><path d="m-792.9987 552.2841v.0003l-47.4772 94.5415h-.0002z"/><path d="m-276.78 965.1659.0001-.0001 224.0006-63.4136-.0007.0002z"/><path d="m-52.78 901.7524.0007-.0002 110.7092-31.3413.0004.0001z"/><path d="m-840.4761 646.8259h.0002l9.5264 1.528 193.474 31.0325.0002.0001z"/><path d="m-637.4753 679.3865-.0002-.0001 79.6433 39.4739 144.3574 71.5484.0001-.0002z"/><path d="m-413.4747 790.4085-.0001.0002 58.4748 28.982 130.798 64.8278.0001-.0001z"/><path d="m-224.2019 884.2184-.0001.0001-52.5779 80.9473-.0001.0001z"/><path d="m-804.5915 494.2047h.0001l11.5927 58.0797v-.0003z"/><path d="m57.9303 870.411 224 97.7022z"/><path d="m355.5096 1000.2063-73.5793-32.0931z"/><path d="m971.7738 228.4496-110.9577 31.5733z"/><path d="m-1058.6158 33.9969 192.1685 150.31z"/><path d="m1032.6816 17.7783-93.016 36.0754z"/><path d="m-855.1187-410.571 16.4934 19.9336z"/><path d="m279.1047-983.5912-103.6301 94.6187h.0001z"/><path d="m-749.0815-661.8608 58.8466 75.0996z"/><path d="m-211.8294-930.8227-127.8596-54.8357z"/><path d="m12.1704-906.6184-223.9998-24.2043z"/><path d="m175.4747-888.9725h-.0001l-163.3042-17.6459z"/><path d="m-378.601-862.3522-227.793 230.9655z"/><path d="m-339.689-985.6584-38.912 123.3062z"/><path d="m-606.394-631.3867-142.6875-30.4741z"/><path d="m-690.2349-586.7612-164.8838 176.1902z"/><path d="m892.775-35.0884 139.9066 52.8667z"/><path d="m339.3408-790.6875-71.9245-136.5962z"/><path d="m811.4149-639.7786-26.9742 18.7535z"/><path d="m339.3408-790.6875 223.9999 71.6066z"/><path d="m563.3407-719.0809 224 71.6065z"/><path d="m811.4149-639.7786-24.0742-7.6958z"/><path d="m267.4163-927.2837 11.6884-56.3075z"/><path d="m892.775-35.0884-41.4155-223.9997z"/><path d="m851.3595-259.0881-41.4155-224z"/><path d="m784.4407-621.0251 25.5033 137.937z"/><path d="m-859.8882-236.6333-30.927 224z"/><path d="m-838.6253-390.6374-21.2629 154.0041z"/><path d="m-890.8152-12.6333-167.8006 46.6302z"/><path d="m939.6656 53.8537-85.2877 174.3663z"/><path d="m854.3779 228.22 117.3959.2296z"/><path d="m-849.3021 270.2047 44.7106 224z"/><path d="m-866.4473 184.3069 17.1452 85.8978z"/><path d="m823.3848 502.8463 32.5637 107.5921z"/><path d="m823.3848 502.8463 34.5296-224z"/><path d="m860.8161 260.0229-2.9017 18.8234z"/><path d="m855.9485 610.4384-28.976-6.4326z"/><path d="m442.36 741.2534 224-79.9336z"/><path d="m826.9725 604.0058-160.6125 57.314z"/><path d="m355.5096 1000.2063 75.1275-224.0001z"/><path d="m442.36 741.2534-11.7229 34.9528z"/><path d="m-792.9987 552.2841-47.4774 94.5418z"/><path d="m-276.78 965.1659 224-63.4135z"/><path d="m-52.78 901.7524 110.7103-31.3414z"/><path d="m-840.4761 646.8259 203.0008 32.5606z"/><path d="m-637.4753 679.3865 224.0006 111.022z"/><path d="m-413.4747 790.4085 189.2728 93.8099z"/><path d="m-224.2019 884.2184-52.5781 80.9475z"/><path d="m-804.5915 494.2047 11.5928 58.0794z"/><path d="m57.9303 870.411 224 97.7022z"/><path d="m355.5096 1000.2063-73.5793-32.0931z"/><path d="m971.7738 228.4496-110.9577 31.5733z"/><path d="m-1058.6158 33.9969 192.1685 150.31v.0001z"/><path d="m1032.6816 17.7783-93.016 36.0754z"/><path d="m-855.1187-410.571 16.4934 19.9336v.0001z"/><path d="m279.1047-983.5912-103.63 94.6187v.0001z"/><path d="m-749.0815-661.8608 58.8466 75.0996v-.0001z"/><path d="m-211.8295-930.8228.0001.0001-127.8596-54.8357z"/><path d="m12.1704-906.6184-223.9998-24.2043-.0001-.0001z"/><path d="m175.4747-888.9724v-.0001l-163.3043-17.6459z"/><path d="m-378.601-862.3522-227.793 230.9655h.0001z"/><path d="m-339.689-985.6584-38.912 123.3062z"/><path d="m-606.3939-631.3867h-.0001l-142.6875-30.4741z"/><path d="m-690.2349-586.7613v.0001l-164.8838 176.1902z"/><path d="m892.775-35.0884 139.9066 52.8667z"/><path d="m339.3408-790.6875-71.9245-136.5962v-.0001z"/><path d="m811.4149-639.7786-26.9742 18.7535z"/><path d="m339.3408-790.6875 223.9999 71.6066z"/><path d="m563.3407-719.0809 224 71.6065z"/><path d="m811.4149-639.7786-24.0742-7.6958z"/><path d="m267.4163-927.2838v.0001l11.6884-56.3075z"/><path d="m892.775-35.0884-41.4155-223.9997z"/><path d="m851.3595-259.0881-41.4155-224z"/><path d="m784.4407-621.0251 25.5033 137.937z"/><path d="m-859.8882-236.6333-30.927 224z"/><path d="m-838.6253-390.6373v-.0001l-21.2629 154.0041z"/><path d="m-890.8152-12.6333-167.8006 46.6302z"/><path d="m939.6656 53.8537-85.2877 174.3663z"/><path d="m854.3779 228.22 117.3959.2296z"/><path d="m-849.3021 270.2047 44.7106 224z"/><path d="m-866.4473 184.307v-.0001l17.1452 85.8978z"/><path d="m823.3848 502.8463 32.5637 107.5921z"/><path d="m823.3848 502.8463 34.5296-224z"/><path d="m860.8161 260.0229-2.9017 18.8234z"/><path d="m855.9485 610.4384-28.976-6.4326z"/><path d="m442.36 741.2534 224-79.9336z"/><path d="m826.9725 604.0058-160.6125 57.314z"/><path d="m355.5096 1000.2063 75.1275-224.0001z"/><path d="m442.36 741.2534-11.7229 34.9528z"/><path d="m-792.9987 552.2841-47.4774 94.5418z"/><path d="m-276.78 965.1659 224-63.4135z"/><path d="m-52.78 901.7524 110.7103-31.3414z"/><path d="m-840.4761 646.8259 203.0008 32.5606z"/><path d="m-637.4753 679.3865 224.0006 111.022z"/><path d="m-413.4747 790.4085 189.2728 93.8099z"/><path d="m-224.2019 884.2184-52.5781 80.9475z"/><path d="m-804.5915 494.2047 11.5928 58.0794z"/><path d="m57.9303 870.411 224 97.7022z"/><path d="m355.5096 1000.2063-73.5793-32.0931z"/><path d="m971.7738 228.4496-110.9577 31.5733z"/><path d="m-1058.6158 33.9969 192.1685 150.3101z"/><path d="m1032.6816 17.7783-93.016 36.0754z"/><path d="m-855.1187-410.571 16.4934 19.9337z"/><path d="m279.1047-983.5912-103.63 94.6188z"/><path d="m-749.0815-661.8608 58.8466 75.0995z"/><path d="m-211.8295-930.8228-127.8595-54.8356z"/><path d="m12.1704-906.6184-223.9999-24.2044z"/><path d="m175.4747-888.9724-163.3043-17.646z"/><path d="m-378.601-862.3522-227.7929 230.9655z"/><path d="m-339.689-985.6584-38.912 123.3062z"/><path d="m-606.3939-631.3867-142.6876-30.4741z"/><path d="m-690.2349-586.7613-164.8838 176.1903z"/><path d="m892.775-35.0884 139.9066 52.8667z"/><path d="m339.3408-790.6875-71.9245-136.5963z"/><path d="m811.4149-639.7786-26.9742 18.7535z"/><path d="m339.3408-790.6875 223.9999 71.6066z"/><path d="m563.3407-719.0809 224 71.6065z"/><path d="m811.4149-639.7786-24.0742-7.6958z"/><path d="m267.4163-927.2838 11.6884-56.3074z"/><path d="m892.775-35.0884-41.4155-223.9997z"/><path d="m851.3595-259.0881-41.4155-224z"/><path d="m784.4407-621.0251 25.5033 137.937z"/><path d="m-859.8882-236.6333-30.927 224v-.0001z"/><path d="m-838.6253-390.6373-21.2629 154.004z"/><path d="m-890.8152-12.6334v.0001l-167.8006 46.6302z"/><path d="m939.6656 53.8537-85.2877 174.3662v.0001z"/><path d="m854.3779 228.22v-.0001l117.3959.2297z"/><path d="m-849.3021 270.2047 44.7106 224z"/><path d="m-866.4473 184.307 17.1452 85.8977z"/><path d="m823.3848 502.8463 32.5637 107.5921z"/><path d="m823.3848 502.8463 34.5296-224z"/><path d="m860.8161 260.0229-2.9017 18.8234z"/><path d="m855.9485 610.4384-28.976-6.4326z"/><path d="m442.36 741.2534 224-79.9336z"/><path d="m826.9725 604.0058-160.6125 57.314z"/><path d="m355.5096 1000.2063 75.1275-224.0001z"/><path d="m442.36 741.2534h.0001l-11.723 34.9528z"/><path d="m-792.9987 552.2841-47.4774 94.5418z"/><path d="m-276.78 965.1659 224-63.4135z"/><path d="m-52.78 901.7524 110.7103-31.3414z"/><path d="m-840.4761 646.8259 203.0008 32.5606z"/><path d="m-637.4753 679.3865 224.0006 111.022z"/><path d="m-413.4747 790.4085 189.2728 93.8099z"/><path d="m-224.2019 884.2184-52.5781 80.9475z"/><path d="m-804.5915 494.2047 11.5928 58.0794z"/><path d="m57.9303 870.411 224 97.7022z"/><path d="m355.5096 1000.2063-73.5793-32.0931z"/><path d="m971.7738 228.4496-110.9577 31.5733z"/><path d="m-1058.6158 33.9969 192.1685 150.3101z"/><path d="m1032.6816 17.7783-93.016 36.0754z"/><path d="m-855.1187-410.571 16.4934 19.9337z"/><path d="m279.1047-983.5911v-.0001l-103.63 94.6188z"/><path d="m-749.0815-661.8608 58.8466 75.0995-.0001-.0001z"/><path d="m-211.8295-930.8228-127.8595-54.8356z"/><path d="m12.1704-906.6184-223.9999-24.2044z"/><path d="m175.4747-888.9724-163.3043-17.646z"/><path d="m-378.601-862.3522-227.7929 230.9655z"/><path d="m-339.689-985.6584-38.912 123.3062z"/><path d="m-606.3939-631.3867-142.6876-30.4741z"/><path d="m-690.235-586.7614.0001.0001-164.8838 176.1903z"/><path d="m892.775-35.0884 139.9066 52.8667z"/><path d="m339.3408-790.6875-71.9245-136.5963h-.0001z"/><path d="m811.4149-639.7786-26.9742 18.7535z"/><path d="m339.3408-790.6875 223.9999 71.6066z"/><path d="m563.3407-719.0809 224 71.6065z"/><path d="m811.4149-639.7786-24.0742-7.6958z"/><path d="m267.4162-927.2838h.0001l11.6884-56.3074v.0001z"/><path d="m892.775-35.0884-41.4155-223.9997z"/><path d="m851.3595-259.0881-41.4155-224z"/><path d="m784.4407-621.0251 25.5033 137.937z"/><path d="m-859.8882-236.6333-30.927 223.9999z"/><path d="m-838.6253-390.6373-21.2629 154.004z"/><path d="m-890.8152-12.6334-167.8006 46.6303z"/><path d="m939.6656 53.8537-85.2877 174.3662z"/><path d="m854.3779 228.2199 117.3959.2297z"/><path d="m-849.3021 270.2047 44.7106 224z"/><path d="m-866.4473 184.307 17.1452 85.8977z"/><path d="m823.3848 502.8463 32.5637 107.5921z"/><path d="m823.3848 502.8463 34.5296-224z"/><path d="m860.8161 260.0229-2.9017 18.8234z"/><path d="m855.9485 610.4384-28.976-6.4326z"/><path d="m442.3601 741.2534h-.0001l224-79.9336z"/><path d="m826.9725 604.0058-160.6125 57.314z"/><path d="m355.5096 1000.2063 75.1275-224.0001z"/><path d="m442.3601 741.2534-11.723 34.9528z"/><path d="m-792.9987 552.2841-47.4774 94.5418z"/><path d="m-276.78 965.1659 224-63.4135z"/><path d="m-52.78 901.7524 110.7103-31.3414z"/><path d="m-840.4761 646.8259 203.0008 32.5606z"/><path d="m-637.4753 679.3865 224.0006 111.022z"/><path d="m-413.4747 790.4085 189.2728 93.8099h.0001z"/><path d="m-224.2018 884.2184h-.0001l-52.5781 80.9475z"/><path d="m-804.5915 494.2047 11.5928 58.0794z"/><path d="m57.9303 870.411 224 97.7022z"/><path d="m355.5096 1000.2063-73.5793-32.0931z"/><path d="m971.7738 228.4496-110.9577 31.5733z"/><path d="m-1058.6158 33.9969 192.1685 150.3101z"/><path d="m1032.6816 17.7783-93.016 36.0754z"/><path d="m-855.1187-410.571 16.4934 19.9337z"/><path d="m279.1047-983.5911-103.63 94.6187z"/><path d="m-749.0815-661.8608 58.8465 75.0994z"/><path d="m-211.8295-930.8228-127.8595-54.8356z"/><path d="m12.1704-906.6184-223.9999-24.2044z"/><path d="m175.4747-888.9724-163.3043-17.646z"/><path d="m-378.601-862.3522-227.7929 230.9655z"/><path d="m-339.689-985.6584-38.912 123.3062z"/><path d="m-606.3939-631.3867-142.6876-30.4741z"/><path d="m-690.235-586.7614-164.8837 176.1904z"/><path d="m892.775-35.0884 139.9066 52.8667z"/><path d="m339.3408-790.6875-71.9246-136.5963z"/><path d="m811.4149-639.7786-26.9742 18.7535z"/><path d="m339.3408-790.6875 223.9999 71.6066z"/><path d="m563.3407-719.0809 224 71.6065z"/><path d="m811.4149-639.7786-24.0742-7.6958z"/><path d="m267.4162-927.2838 11.6885-56.3073z"/><path d="m892.775-35.0884-41.4155-223.9997z"/><path d="m851.3595-259.0881-41.4155-224z"/><path d="m784.4407-621.0251 25.5033 137.937z"/><path d="m-859.8882-236.6333-30.927 223.9999z"/><path d="m-838.6253-390.6373-21.2629 154.004z"/><path d="m-890.8152-12.6334-167.8006 46.6303z"/><path d="m939.6656 53.8537-85.2877 174.3662z"/><path d="m854.3779 228.2199 117.3959.2297z"/><path d="m-849.3021 270.2047 44.7106 224z"/><path d="m-866.4473 184.307 17.1452 85.8977z"/><path d="m823.3848 502.8463 32.5637 107.5921z"/><path d="m823.3848 502.8463 34.5296-224z"/><path d="m860.8161 260.0229-2.9017 18.8234z"/><path d="m855.9485 610.4384-28.976-6.4326z"/><path d="m442.3601 741.2534 223.9999-79.9336z"/><path d="m826.9725 604.0058-160.6125 57.314z"/><path d="m355.5096 1000.2063 75.1275-224.0001z"/><path d="m442.3601 741.2534-11.723 34.9528z"/><path d="m-792.9987 552.2841-47.4774 94.5418z"/><path d="m-276.78 965.1659 224-63.4135z"/><path d="m-52.78 901.7524 110.7103-31.3414z"/><path d="m-840.4761 646.8259 203.0008 32.5606z"/><path d="m-637.4753 679.3865 224.0006 111.022z"/><path d="m-413.4747 790.4085 189.2729 93.8099z"/><path d="m-224.2018 884.2184-52.5782 80.9475z"/><path d="m-804.5915 494.2047 11.5928 58.0794z"/><path d="m57.9303 870.411 224 97.7022z"/><path d="m355.5096 1000.2063-73.5793-32.0931z"/><path d="m971.7738 228.4496-110.9577 31.5733z"/><path d="m-1058.6158 33.9969 192.1685 150.3101z"/><path d="m1032.6816 17.7783-93.016 36.0754z"/><path d="m-855.1187-410.571 16.4934 19.9337z"/><path d="m279.1047-983.5911-103.63 94.6187z"/><path d="m-749.0815-661.8608 58.8465 75.0994z"/><path d="m-211.8295-930.8228-127.8595-54.8356z"/><path d="m12.1704-906.6184-223.9999-24.2044z"/><path d="m175.4747-888.9724-163.3043-17.646z"/><path d="m-378.601-862.3522-227.7929 230.9655z"/><path d="m-339.689-985.6584-38.912 123.3062z"/><path d="m-606.3939-631.3867-142.6876-30.4741z"/><path d="m-690.235-586.7614-164.8837 176.1904z"/><path d="m892.775-35.0884 139.9066 52.8667z"/><path d="m339.3408-790.6875-71.9246-136.5963v-.0001z"/><path d="m811.4149-639.7786-26.9742 18.7535z"/><path d="m339.3408-790.6875 223.9999 71.6066z"/><path d="m563.3407-719.0809 224 71.6065z"/><path d="m811.4149-639.7786-24.0742-7.6958z"/><path d="m267.4162-927.2839v.0001l11.6885-56.3073z"/><path d="m892.775-35.0884-41.4155-223.9997z"/><path d="m851.3595-259.0881-41.4155-224z"/><path d="m784.4407-621.0251 25.5033 137.937z"/><path d="m-859.8882-236.6333-30.927 223.9999z"/><path d="m-838.6253-390.6373-21.2629 154.004z"/><path d="m-890.8152-12.6334-167.8006 46.6303z"/><path d="m939.6656 53.8537-85.2877 174.3662z"/><path d="m854.3779 228.2199 117.3959.2297z"/><path d="m-849.3021 270.2047 44.7106 224z"/><path d="m-866.4473 184.307 17.1452 85.8977z"/><path d="m823.3848 502.8463 32.5637 107.5921z"/><path d="m823.3848 502.8463 34.5296-224z"/><path d="m860.8161 260.0229-2.9017 18.8234z"/><path d="m855.9485 610.4384-28.976-6.4326z"/><path d="m442.3601 741.2534 223.9999-79.9336z"/><path d="m826.9725 604.0058-160.6125 57.314z"/><path d="m355.5096 1000.2063 75.1275-224.0001z"/><path d="m442.3601 741.2534-11.723 34.9528z"/><path d="m-792.9987 552.2841-47.4774 94.5418z"/><path d="m-276.78 965.1659 224-63.4135z"/><path d="m-52.78 901.7524 110.7103-31.3414z"/><path d="m-840.4761 646.8259 203.0008 32.5606z"/><path d="m-637.4753 679.3865 224.0006 111.022z"/><path d="m-413.4747 790.4085 189.2729 93.8099z"/><path d="m-224.2018 884.2184-52.5782 80.9475z"/><path d="m-804.5915 494.2047 11.5928 58.0794z"/><path d="m57.9303 870.411 224 97.7022z"/><path d="m355.5096 1000.2063-73.5793-32.0931z"/><path d="m971.7738 228.4496-110.9577 31.5733z"/><path d="m-1058.6158 33.9969 192.1685 150.3101z"/><path d="m1032.6816 17.7783-93.016 36.0754z"/><path d="m-855.1187-410.571 16.4934 19.9337z"/><path d="m279.1047-983.5911-103.63 94.6187h.0001z"/><path d="m-749.0815-661.8608 58.8465 75.0994z"/><path d="m-211.8296-930.8228h.0001l-127.8595-54.8356z"/><path d="m12.1704-906.6184-223.9999-24.2044h-.0001z"/><path d="m175.4748-888.9724h-.0001l-163.3043-17.646z"/><path d="m-378.601-862.3522-227.7929 230.9655z"/><path d="m-339.689-985.6584-38.912 123.3062z"/><path d="m-606.3939-631.3867-142.6876-30.4741z"/><path d="m-690.235-586.7614-164.8837 176.1904z"/><path d="m892.775-35.0884 139.9066 52.8667z"/><path d="m339.3408-790.6875-71.9246-136.5964z"/><path d="m811.4149-639.7786-26.9742 18.7535z"/><path d="m339.3408-790.6875 223.9999 71.6066z"/><path d="m563.3407-719.0809 224 71.6065z"/><path d="m811.4149-639.7786-24.0742-7.6958z"/><path d="m267.4162-927.2839 11.6885-56.3072z"/><path d="m892.775-35.0884-41.4155-223.9997z"/><path d="m851.3595-259.0881-41.4155-224z"/><path d="m784.4407-621.0251 25.5033 137.937z"/><path d="m-859.8882-236.6333-30.927 223.9999z"/><path d="m-838.6253-390.6373-21.2629 154.004z"/><path d="m-890.8152-12.6334-167.8006 46.6303z"/><path d="m939.6656 53.8537-85.2877 174.3662z"/><path d="m854.3779 228.2199 117.3959.2297z"/><path d="m-849.3021 270.2047 44.7106 224z"/><path d="m-866.4473 184.307 17.1452 85.8977z"/><path d="m823.3848 502.8463 32.5637 107.5921z"/><path d="m823.3848 502.8463 34.5296-224z"/><path d="m860.8161 260.0229-2.9017 18.8234z"/><path d="m855.9485 610.4384-28.976-6.4326z"/><path d="m442.3601 741.2534 223.9999-79.9336z"/><path d="m826.9725 604.0058-160.6125 57.314z"/><path d="m355.5096 1000.2063 75.1275-224.0001z"/><path d="m442.3601 741.2534-11.723 34.9528z"/><path d="m-792.9987 552.2841-47.4774 94.5418z"/><path d="m-276.78 965.1659 224-63.4135z"/><path d="m-52.78 901.7524 110.7103-31.3414z"/><path d="m-840.4761 646.8259 203.0008 32.5606z"/><path d="m-637.4753 679.3865 224.0006 111.022z"/><path d="m-413.4747 790.4085 189.2729 93.8099z"/><path d="m-224.2018 884.2184-52.5782 80.9475z"/><path d="m-804.5915 494.2047 11.5928 58.0794z"/><path d="m57.9303 870.411 224 97.7022z"/><path d="m355.5096 1000.2063-73.5793-32.0931z"/><path d="m971.7738 228.4496-110.9577 31.5733z"/><path d="m-1058.6158 33.9969 192.1685 150.3101z"/><path d="m1032.6816 17.7783-93.016 36.0754z"/><path d="m-855.1187-410.571 16.4934 19.9337z"/><path d="m279.1047-983.5911-103.6299 94.6187z"/><path d="m-749.0815-661.8608 58.8465 75.0994-.0001-.0001z"/><path d="m-211.8296-930.8228-127.8594-54.8356z"/><path d="m12.1704-906.6184-224-24.2044z"/><path d="m175.4748-888.9724-163.3044-17.646z"/><path d="m-378.601-862.3522-227.7929 230.9655z"/><path d="m-339.689-985.6584-38.912 123.3062z"/><path d="m-606.3939-631.3867-142.6876-30.4741z"/><path d="m-690.2351-586.7615.0001.0001-164.8837 176.1904z"/><path d="m892.775-35.0884 139.9066 52.8667z"/><path d="m339.3408-790.6875-71.9246-136.5964h-.0001z"/><path d="m811.4149-639.7786-26.9742 18.7535z"/><path d="m339.3408-790.6875 223.9999 71.6066z"/><path d="m563.3407-719.0809 224 71.6065z"/><path d="m811.4149-639.7786-24.0742-7.6958z"/><path d="m267.4161-927.2839h.0001l11.6885-56.3072z"/><path d="m892.775-35.0884-41.4155-223.9997z"/><path d="m851.3595-259.0881-41.4155-224z"/><path d="m784.4407-621.0251 25.5033 137.937z"/><path d="m-859.8882-236.6333-30.927 223.9999z"/><path d="m-838.6253-390.6373-21.2629 154.004z"/><path d="m-890.8152-12.6334-167.8006 46.6303z"/><path d="m939.6656 53.8537-85.2877 174.3662z"/><path d="m854.3779 228.2199 117.3959.2297z"/><path d="m-849.3021 270.2047 44.7106 224z"/><path d="m-866.4473 184.307 17.1452 85.8977z"/><path d="m823.3848 502.8463 32.5637 107.5921z"/><path d="m823.3848 502.8463 34.5296-224z"/><path d="m860.8161 260.0229-2.9017 18.8234z"/><path d="m855.9485 610.4384-28.976-6.4326z"/><path d="m442.3601 741.2534 223.9999-79.9336z"/><path d="m826.9725 604.0058-160.6125 57.314z"/><path d="m355.5096 1000.2063 75.1275-224.0001z"/><path d="m442.3601 741.2534-11.723 34.9528z"/><path d="m-792.9987 552.2841-47.4774 94.5418z"/><path d="m-276.78 965.1659 224-63.4135z"/><path d="m-52.78 901.7524 110.7103-31.3414z"/><path d="m-840.4761 646.8259 203.0008 32.5606z"/><path d="m-637.4753 679.3865 224.0006 111.022z"/><path d="m-413.4747 790.4085 189.2729 93.8099z"/><path d="m-224.2018 884.2184-52.5782 80.9475z"/><path d="m-804.5915 494.2047 11.5928 58.0794z"/><path d="m57.9303 870.411 224 97.7022z"/><path d="m355.5096 1000.2063v-.0001l-52.5419-22.9172-21.0374-9.1759v.0001z"/><path d="m971.7738 228.4496h.0001l-110.9578 31.5733z"/><path d="m-1058.6158 33.9969 192.1685 150.3101z"/><path d="m1032.6816 17.7783h-.0001l-93.0159 36.0753v.0001z"/><path d="m-855.1187-410.571 16.4934 19.9337z"/><path d="m279.1047-983.5911-103.6299 94.6187z"/><path d="m-749.0815-661.8608 58.8464 75.0993z"/><path d="m-211.8296-930.8228-127.8594-54.8356z"/><path d="m12.1704-906.6184-224-24.2044z"/><path d="m175.4748-888.9724-163.3044-17.646z"/><path d="m-378.601-862.3522-227.7929 230.9655z"/><path d="m-339.689-985.6584-38.912 123.3062z"/><path d="m-606.3939-631.3867-142.6876-30.4741z"/><path d="m-690.2351-586.7615-164.8836 176.1905z"/><path d="m892.775-35.0884v.0001l76.2937 28.8291 63.6128 24.0375h.0001z"/><path d="m339.3408-790.6875-71.9247-136.5964v-.0001z"/><path d="m811.4149-639.7786h-.0002l-26.974 18.7533v.0002z"/><path d="m339.3408-790.6875h-.0001l224 71.6066z"/><path d="m563.3407-719.0809 215.7205 68.9597 8.2787 2.6465.0008.0003z"/><path d="m811.4149-639.7786-24.0742-7.6958z"/><path d="m267.4161-927.284v.0001l11.6886-56.3072z"/><path d="m892.775-35.0884-41.4155-223.9997z"/><path d="m851.3595-259.0881-41.4155-224z"/><path d="m784.4407-621.0251v-.0002l25.5033 137.9372z"/><path d="m-859.8882-236.6333-30.927 223.9999z"/><path d="m-838.6253-390.6373-21.2629 154.004z"/><path d="m-890.8152-12.6334-167.8006 46.6303z"/><path d="m939.6656 53.8537v-.0001l-22.0944 45.1709-52.8552 108.0596-10.3381 21.1357v.0001z"/><path d="m854.3779 228.2199v-.0001l11.3372.0222 106.0588.2076h-.0001z"/><path d="m-849.3021 270.2047 44.7106 224z"/><path d="m-866.4473 184.307 17.1452 85.8977z"/><path d="m823.3848 502.8463 27.9821 92.4544 4.5816 15.1377z"/><path d="m823.3848 502.8463 34.5296-224z"/><path d="m860.8161 260.0229-2.9015 18.8224-.0002.001z"/><path d="m855.9485 610.4384-28.976-6.4327v.0001z"/><path d="m442.3601 741.2534 223.9999-79.9336z"/><path d="m826.9725 604.0058v-.0001l-20.298 7.2433-140.3145 50.0708z"/><path d="m355.5096 1000.2063 75.1275-224.0001z"/><path d="m442.3601 741.2534h-.0001l-11.7228 34.9525-.0001.0003z"/><path d="m-792.9987 552.2841-47.4774 94.5418z"/><path d="m-276.78 965.1659 224-63.4135z"/><path d="m-52.78 901.7524 110.7103-31.3414z"/><path d="m-840.4761 646.8259 203.0008 32.5606z"/><path d="m-637.4753 679.3865 224.0006 111.022z"/><path d="m-413.4747 790.4085 189.2729 93.8099z"/><path d="m-224.2018 884.2184-52.5782 80.9475z"/><path d="m-804.5915 494.2047 11.5928 58.0794z"/><path d="m-6.4556 842.3278-138.5767-60.443-79.8923 92.8089-5.531 6.4253 6.2536 3.0995 84.8341 42.0466 86.588-24.5128 46.3243-13.1141z"/><path d="m57.9299 870.4109-64.3855-28.0831v46.3104z"/><path d="m-672.9246-564.6701-17.3101-22.0911-142.3076 152.0657-6.083 44.0581-3.8488 27.8762h169.5495z"/><path d="m-842.4741-362.7612-17.4141 126.1272-13.5129 97.8728h200.4765v-201.9089-22.0911z"/><path d="m-873.4011-138.7612-17.4143 126.1271-6.1092 44.2498 10.7032 53.6231h213.2968v-201.9089-22.0911z"/><path d="m-886.2214 85.2388 19.7742 99.0677 24.9364 124.9323h168.5862v-201.9089-22.0911z"/><path d="m-841.5108 309.2388 36.9194 184.9656 7.7912 39.0344h123.8756v-201.9089-22.0911z"/><path d="m-796.8002 533.2388 3.8015 19.0456 11.0801 55.5113 108.994 54.021v-106.4868-22.0911z"/><path d="m-497.4022-340.6701-2.1211-2.7073-173.0778-220.8802-.3235-.4125v201.9089 22.0911z"/><path d="m-448.9246-278.8034-48.4776-61.8667h-175.5224v201.9089 22.0911h224z"/><path d="m-672.9246-116.6701v201.9089 22.0911h224v-162.1333-61.8667z"/><path d="m-672.9246 107.3299v201.9089 22.0911h224v-162.1333-61.8667z"/><path d="m-672.9246 331.3299v201.9089 22.0911h224v-162.1333-61.8667z"/><path d="m-672.9246 555.3299v106.4868l35.4491 17.5698 188.5509 93.4521v-155.6421-61.8666z"/><path d="m-273.4022-54.8034-7.7808-9.93-167.4182-213.6575-.3234-.4125v162.1333 61.8667z"/><path d="m-224.9246 7.0632-48.4776-61.8666h-175.5224v162.1333 61.8667h224z"/><path d="m-448.9246 169.1966v162.1333 61.8667h224v-162.1334-61.8666z"/><path d="m-448.9246 393.1966v162.1333 61.8666h224v-162.1333-61.8666z"/><path d="m-448.9246 617.1965v155.6421l35.4497 17.57 102.4708 50.7879h86.0795v-162.1333-61.8667z"/><path d="m-311.0041 841.1965 80.5485 39.9225 5.531-6.4253v-33.4972z"/><path d="m-49.4021 231.0632-37.1131-47.3634-138.086-176.2241-.3234-.4125v162.1334 61.8666z"/><path d="m-.9246 292.9298-48.4775-61.8666h-175.5225v162.1334 61.8666h224z"/><path d="m-224.9246 455.0632v162.1333 61.8667h168.4036l55.5964-64.5851v-97.5483-61.8666z"/><path d="m-224.9246 679.0632v162.1333 33.4972l79.8923-92.8089 31.1752-36.2156 57.3361-66.606z"/><path d="m110.1429 485.4537 20.83-24.1977-131.5741-167.9136-.3234-.4126v162.1334 61.8666h83.9721z"/><path d="m-.9246 516.9298v97.5483l79.8923-92.8089 4.0798-4.7394z"/><path d="m-749.0813-661.8607 58.8466 75.0995 17.6336 22.5036 3.0761-3.1189 63.1308-64.0102z"/><path d="m-771.9337 657.8199 134.4582 21.5666-35.4491-17.5698-108.994-54.021z"/><path d="m-912.9808 147.9094 46.5336 36.3971-19.7742-99.0677-10.7032-53.6231z"/><path d="m-838.6253-390.6374 6.083-44.0581-22.5764 24.1245z"/><path d="m-1058.6157 33.9969 145.6349 113.9125 22.1654-160.5435z"/><path d="m-840.4759 646.826 68.5422 10.9939-9.9849-50.0242-11.0801-55.5113z"/><path d="m-276.7799 965.1658 137.412-38.9007-84.8341-42.0466z"/><path d="m279.1047-983.5912-27.9162 25.4887 16.2276 30.8187z"/><path d="m-339.689-985.6584-38.9122 123.3061 97.0296-98.381z"/><path d="m78.9677 709.4537v-187.7845l-79.8923 92.8089-55.5964 64.5851-57.3361 66.606h192.8248z"/><path d="m-113.8571 745.6692-31.1752 36.2156 138.5767 60.443 85.4233 37.2591v-133.9177z"/><path d="m302.9677 428.494v-167.0403l-79.5689 92.4332-92.4259 107.3691-20.83 24.1977h192.8248z"/><path d="m110.1429 485.4537-27.0954 31.4761-4.0798 4.7394v187.7845h224v-56.9597-167.0403z"/><path d="m78.9677 709.4537v36.2155 133.9177l123.4994 53.8668h100.5006v-56.9597-167.0403z"/><path d="m202.4671 933.4537 79.4632 34.6594 21.0374 9.1759v-43.8353z"/><path d="m352 392.2784v-187.7844l-49.0323 56.9597v167.0403h49.0323z"/><path d="m302.9677 428.494v56.9597 167.0403h49.0323v-36.2156-187.7844z"/><path d="m302.9677 652.494v56.9597 167.0403h49.0323v-102.996-121.004z"/><path d="m302.9677 876.494v56.9597 43.8353l49.0323 21.3865v-33.4221-88.7594z"/><path d="m12.1706-906.6183-224-24.2044 211.2284 90.5904 12.7716 5.4775z"/><path d="m82.8798-804.4294 92.5949-84.5431-163.3041-17.6458v71.8635z"/><path d="m1032.6815 17.7783-63.6128-24.0375-29.4031 60.1128z"/><path d="m971.7739 228.4496-106.0588-.2076-4.899 31.7809z"/><path d="m826.9725 604.0057 24.3944-8.705-27.9821-92.4544-16.7103 108.4027z"/><path d="m811.4147-639.7786-24.0748-7.6961-8.2787-2.6465 5.3795 29.0959z"/><path d="m306.8798-852.3359-55.6913-105.7666-75.7138 69.13-92.5949 84.5431 140.519 60.265 23.461 10.0619h60.02z"/><path d="m246.8598-734.1025 60.02 25.741v-25.741z"/><path d="m404.8027-666.3648-97.9229-185.9711v118.2334 25.741z"/><path d="m-448.6012-736.7333v-54.644l-157.793 159.9906-63.1308 64.0102 220.9238-.0008z"/><path d="m-669.525-567.3765-3.0761 3.1189 173.0778 220.8802 50.9221.0001v-169.356-54.644z"/><path d="m-499.5233-343.3774 2.1211 2.7073 48.4776 61.8667.3234.4125v-10.3424-54.644z"/><path d="m-224.6012-936.3002-56.9704-24.4331-97.0296 98.381-70 70.975v54.644h224z"/><path d="m-448.6012-736.7333v169.356 54.644h224v-199.5669-24.4331z"/><path d="m-448.6012-512.7333v169.356 54.644h224v-199.5669-24.4331z"/><path d="m-448.6012-288.7333v10.3424l167.4182 213.6575 56.5818.0001v-199.5669-24.4331z"/><path d="m-281.183-64.7334 7.7808 9.93 48.4776 61.8666.3234.4125v-47.7759-24.4331z"/><path d="m-.601-840.2323-211.2284-90.5904-12.7718-5.4775v199.5669 24.4331h224z"/><path d="m-224.6012-712.3002v199.5669 24.4331h224v-127.9321-96.0679z"/><path d="m-224.6012-488.3002v199.5669 24.4331h224v-127.9321-96.0679z"/><path d="m-224.6012-264.3002v199.5669 24.4331h224v-127.9321-96.0679z"/><path d="m-224.6012-40.3002v47.7759l138.086 176.2241h85.914v-127.9321-96.0679z"/><path d="m-86.5152 183.6998 37.1131 47.3634 48.4775 61.8666.3234.4126v-13.5747-96.0679z"/><path d="m223.3988-744.1644-140.519-60.265-70.7092-30.3254-12.7716-5.4775-.0002 127.9321v96.0679h224z"/><path d="m-.6012-616.2323v127.9321 96.0679h224v-127.9321-96.0679z"/><path d="m-.6012-392.2323v127.9321 96.0679h224v-127.9321-96.0679z"/><path d="m-.6012-168.2323v127.9321 96.0679h224v-127.9321-96.0679z"/><path d="m-.6012 55.7677v127.9321 96.0679h224v-127.9321-96.0679z"/><path d="m-.6012 279.7677v13.5747l131.5741 167.9136 92.4259-107.3691v-74.1192z"/><path d="m447.3988-585.4679-42.5961-80.8969-97.9229-41.9967-60.02-25.741-23.461-10.0619v127.9321 96.0679h224z"/><path d="m223.3988-520.1644v127.9321 96.0679h224v-65.3035-158.6965z"/><path d="m223.3988-296.1644v127.9321 96.0679h224v-65.3035-158.6965z"/><path d="m223.3988-72.1644v127.9321 96.0679h173.9308l50.0692-58.1642v-165.8358z"/><path d="m223.3988 151.8356v127.9321 74.1192l79.5689-92.4332 49.0323-56.9597 31.1752-36.2155 14.1544-16.4429z"/><path d="m565.3457-361.4679-117.9469-224v65.3035 158.6965z"/><path d="m669.2791-164.0818-103.9334-197.3861h-117.9469v65.3035 158.6965h198.9704z"/><path d="m447.3988-137.4679v65.3035 165.8358l128.6012-149.393 70.3692-81.7463z"/><path d="m831.1889 452.2198 26.7257-173.3745 7.8005-50.6033-11.3372-.0222-39.11 79.958-15.2679 31.2143-55.1874 112.8277z"/><path d="m717.5687 507.9184-80.071 163.7008 28.8623-10.2994 140.3145-50.0708 16.7103-108.4027 7.8041-50.6265h-86.3763z"/><path d="m855.9485 610.4384-4.5816-15.1377-24.3944 8.705z"/><path d="m367.2325 965.2534 63.4047-189.0475 11.7228-34.9525-90.36 32.2446v102.996 88.7594z"/><path d="m352 998.6755 3.5096 1.5307 11.7229-34.9528h-15.2325z"/><path d="m576 59.9182v-115.6398l-128.6012 149.393-50.0692 58.1642-14.1544 16.4429 192.8248-.0001z"/><path d="m383.1752 168.2785-31.1752 36.2155v187.7844h224v-108.3602-115.6398z"/><path d="m352 392.2784v36.2156 187.7844h224v-108.3602-115.6398z"/><path d="m352 616.2784v36.2156 121.004l90.36-32.2446 133.64-47.6889v-77.2861z"/><path d="m787.226 59.9182-56.3401-106.9989-61.6068-117.0011-22.9099 26.6139-70.3692 81.7463v115.6398z"/><path d="m800 84.1781-12.774-24.2599h-211.226v108.3602 115.6398h224z"/><path d="m576 283.9182v108.3602 115.6398l141.5687.0002 27.2439-55.6986 55.1874-112.8277v-31.2141-24.2598z"/><path d="m576 507.9182v108.3602 77.2861l61.4977-21.9453 80.071-163.7008z"/><path d="m854.3779 228.2198 10.3381-21.1357-64.716-122.906v199.7401 24.2598l15.2679-.0002z"/><path d="m800 308.178v31.2141l15.2679-31.2143z"/><path d="m917.5712 99.0245 22.0944-45.1709 29.4031-60.1128-76.2937-28.8291z"/><path d="m563.3407-719.0809-224-71.6066 65.462 124.3227 52.4849 99.6773h106.0531z"/><path d="m457.2876-566.6875 106.0531 201.4117v-129.8051-71.6066z"/><path d="m787.3407-605.3405-8.2795-44.7807-215.7205-68.9597v152.3934 71.6066h224z"/><path d="m563.3407-495.0809v129.8051l2.005 3.8079 47.5931 90.387h174.4019v-110.2596-113.7404z"/><path d="m612.9388-271.0809 56.3403 106.9991 61.6068 117.0011 56.4548-.0002v-110.2596-113.7404z"/><path d="m730.8859-47.0807 56.3401 106.9989.1147.2178v-107.2169z"/><path d="m828.7562-381.3405-41.4155-224v110.2596 113.7404z"/><path d="m870.1718-157.3405-41.4156-224h-41.4155v110.2596 113.7404z"/><path d="m911.5872 66.6595-18.8122-101.7478-22.6032-122.2522h-82.8311v110.2596 107.2169l3.435 6.5235z"/><path d="m800 84.1781 64.716 122.906 52.8552-108.0596-5.984-32.365h-120.8115z"/><path d="m281.9303 968.1131-224.0004-97.7022.0004.0001 224 97.7022z"/><path d="m-866.4472 184.3065-46.5336-36.3971-145.6349-113.9125h-.0001l192.1685 150.3101z"/><path d="m-838.6253-390.6374-16.4934-19.9336 16.4934 19.9337z"/><path d="m175.4747-888.9725 75.7138-69.13 27.9162-25.4887v.0001l-103.6299 94.6187z"/><path d="m-690.2347-586.7612-58.8466-75.0995-.0002-.0001 58.8464 75.0993z"/><path d="m-339.689-985.6584 58.1174 24.9251 69.7422 29.9106-.0002-.0001z"/><path d="m-211.8294-930.8227 224 24.2044-.0002-.0001-224-24.2044z"/><path d="m12.1706-906.6183 163.3041 17.6458.0001.0001-163.3044-17.646z"/><path d="m-606.3942-631.3867 157.793-159.9906 70-70.975.0002.0001-227.7929 230.9655z"/><path d="m-378.6012-862.3523 38.9122-123.3061-38.912 123.3062z"/><path d="m-749.0813-661.8607 142.6871 30.474h.0003l-142.6876-30.4741z"/><path d="m-855.1187-410.571 22.5764-24.1245 142.3076-152.0657-.0004-.0003z"/><path d="m267.4161-927.2838 71.9246 136.5963h.0001l-71.9247-136.5965z"/><path d="m811.4147-639.7786h.0002l-24.0742-7.6958-.0008-.0003z"/><path d="m279.1047-983.5912-11.6886 56.3074v-.0002l11.6886-56.3071z"/><path d="m851.3595-259.0881 41.4155 223.9998v-.0001z"/><path d="m809.944-483.0881 41.4155 224z"/><path d="m-890.8154-12.6341 17.4143-126.1271 13.5129-97.8728v.0007l-30.927 223.9999z"/><path d="m-859.8882-236.634 17.4141-126.1272 3.8488-27.8762v.0001l-21.2629 154.004z"/><path d="m-1058.6157 33.9969 167.8003-46.631.0002.0007-167.8006 46.6303z"/><path d="m-804.5914 494.2044-36.9194-184.9656-7.7913-39.0341 44.7106 224z"/><path d="m-849.3021 270.2047-17.1451-85.8982-.0001.0005z"/><path d="m857.9146 278.8453-26.7257 173.3745-7.8041 50.6265 34.5296-224z"/><path d="m666.36 661.3198-28.8623 10.2994-61.4977 21.9453-133.64 47.6889h.0001z"/><path d="m430.6372 776.2059-63.4047 189.0475-11.7229 34.9528v.0001l75.1275-224.0001z"/><path d="m-840.4759 646.826 47.4772-94.5416v-.0003l-47.4774 94.5418z"/><path d="m-52.7799 901.7523-86.588 24.5128-137.412 38.9007-.0001.0001 224-63.4135z"/><path d="m57.9299 870.4109-64.3855 18.2273-46.3243 13.1141-.0001.0001 110.7103-31.3414z"/><path d="m-637.4755 679.3865-134.4582-21.5666-68.5422-10.9939-.0002-.0001 203.0008 32.5606z"/><path d="m-413.4749 790.4086-35.4497-17.57-188.5509-93.4521h.0002l224.0006 111.022z"/><path d="m-224.202 884.2185-189.2729-93.8099.0002-.0001 189.2729 93.8099z"/><path d="m-276.7799 965.1658 52.5779-80.9473.0002-.0001-52.5782 80.9475z"/><path d="m-792.9987 552.2844-11.5927-58.08-.0001.0003 11.5928 58.0794z"/></g></defs><path d="m-1256.6158-1183.6584h2487.2975v2381.8647h-2487.2975z" fill="#fff"/><g stroke="#000"><use fill="none" stroke-miterlimit="0" stroke-width="15" xlink:href="#a"/><use fill="#fff" xlink:href="#a"/></g></svg>