<svg viewBox="-2288 -2528 3200 2720" xmlns="http://www.w3.org/2000/svg" xmlns:xlink="http://www.w3.org/1999/xlink"><defs><g id="a"><path d="m-464-1312h-48-176v-104l31.3832 13.2508 79.3862 33.5185 113.2306 47.8086z"/><path d="m-441.6845-1312h-22.3155v-9.4221z"/><path d="m-419-1312h-22.6845l-22.3155-9.4221-113.2306-47.8086-46.7694-110.7693-19-45 179 75.5778 45 19z"/><path d="m-320-1388.6222v76.6222h-99v-118.4222z"/><path d="m-464-1472v22.5778l-179-75.5778-45-19 179-75.5778 45-19z"/><path d="m-328-1696h8v160 64h-144v-166.5778z"/><path d="m-320-1472v83.3778l-99-41.8-45-19v-22.5778z"/><path d="m-509-1619.5778-179 75.5778-45 19 72.2-171h52.8 96 3z"/><path d="m-464-1696h136l-136 57.4222-45 19v-76.4222z"/><path d="m-832-1696h171.2l-72.2 171-19 45-80-189.4736-11.2-26.5264z"/><path d="m-656.6168-1402.7492-31.3832-13.2508 45-19z"/><path d="m-577.2306-1369.2307-79.3862-33.5185 13.6168-32.2508 19-45z"/><path d="m-688-1088v-192-32h176v224z"/><path d="m-688-1056v-32h176v32z"/><path d="m-688-1007.579v-16.421-32h176 48v192h-91.3685l-87.6315-37-45-19z"/><path d="m-464-1056h144v192h-83.3779-60.6221z"/><path d="m-627.3779-864-15.6221-37 87.6315 37z"/><path d="m-577.2309-745.2308-79.386-33.5186 13.6169-32.2506 19-45z"/><path d="m-403.3779-671.8262-60.6221-25.5958-113.2309-47.8088-46.7691-110.7692-3.3779-8h72.0094 91.3685 60.6221z"/><path d="m-320-864v224h-8l-75.3779-31.8262v-192.1738z"/><path d="m-912-662.5778v-137.4222-86.5778l179 75.5778 45 19v129.4222z"/><path d="m-688-640h-224v-22.5778h224z"/><path d="m-464-640h-48-176v-22.5778-129.4222l31.3831 13.2506 79.386 33.5186 113.2309 47.8088z"/><path d="m-403.3779-671.8262 75.3779 31.8262h-136v-57.422z"/><path d="m-656.6169-778.7494-31.3831-13.2506 45-19z"/><path d="m-1053.6249-1570.3748-2.3751-1.0029v-124.6223h212.8l11.2 26.5264v192.6737z"/><path d="m-832-1669.4736 80 189.4736 19 45-99-41.7999z"/><path d="m-1056-1504v-67.3777l2.3751 1.0029 221.6249 93.5749v129.4222h-224z"/><path d="m-832-1347.3777v67.3777h-32-192v-67.3777z"/><path d="m-832-1347.3777v-129.4222l99 41.7999 45 19v104 32h-144z"/><path d="m-864-1056v-224h32 144v192 32z"/><path d="m-688-1024h-134.9333-41.0667v-32h176z"/><path d="m-752-856 19 45-179-75.5778v-137.4222h48 41.0667z"/><path d="m-733-901-19 45-70.9333-168h134.9333v16.421z"/><path d="m-688-920-45 19 45-106.579z"/><path d="m-1056-864v-160h144v137.4222 86.5778h-144z"/><path d="m-912-800v137.4222 22.5778h-144v-160z"/><path d="m-320-1696v160z"/><path d="m-320-1056v64 128z"/><path d="m-512-1088v-224h192v224z"/><path d="m-832-1696h-11.2-212.8 144z"/><path d="m-608-1696h-52.8-171.2 144z"/><path d="m-752-1480 12.1324 28.7347 6.8676 16.2653z"/><path d="m-1056-1280h192-32z"/><path d="m-1056-1504v156.6223 67.3777-64z"/><path d="m-864-1280v224h-32v-224z"/><path d="m-864-1056v32h-32v-32z"/><path d="m-1056-864v64 160z"/><path d="m-1056-640h144z"/><path d="m-320-1056h-144-48z"/><path d="m-320-1696h-8-136z"/><path d="m-512-1312h48 22.3155 22.6845 99z"/><path d="m-464-640h136 8-144-48z"/><path d="m-896-1024h32-48-144z"/><path d="m-896-1024h-160-64v-32h224z"/><path d="m-464-1696h80 64z"/><path d="m-464-1696h-45-3z"/><path d="m-632.1003-1460.8151 8.1003-19.1849-19 45z"/><path d="m-654-1514-34-14v-16l45 19 7.9367 18.7975z"/><path d="m-640-1480-14-34 18.9367 7.7975 11.0633 26.2025-8.1003 19.1849z"/><path d="m-661.0482-1427.3797-6.7916 2.8676-20.1602-7.4879 34-13z"/><path d="m-643-1435-18.0482 7.6203 7.0482-17.6203 14-35 7.8997 19.1849z"/><path d="m-723-1445 35 13 20.1602 7.4879-20.1602 8.5121-45-19-6.8676-16.2653z"/><path d="m-752-1480 8.512-20.16 7.488 20.16 13 35-16.8676-6.2653z"/><path d="m-723-1514 6.9407-18.1528 28.0593-11.8472v16z"/><path d="m-723-1514-13 34-7.488-20.16 10.488-24.84 16.9407-7.1528z"/><path d="m-736-1480 13 35z"/><path d="m-667.8398-1424.5121 24.8398-10.4879-45 19z"/><path d="m-688-1416-45-19z"/><path d="m-635.0633-1506.2025-7.9367-18.7975 19 45z"/><path d="m-743.488-1500.16-8.512 20.16 19-45z"/><path d="m-688-1544 45 19z"/><path d="m-716.0593-1532.1528-16.9407 7.1528 45-19z"/><path d="m-912-640h-144z"/><path d="m-688-904 19.4595-7.7838 25.5405 10.7838 7.9367 18.7975z"/><path d="m-640-856-14-34 18.9367 7.7975 11.0633 26.2025-8.1003 19.1851z"/><path d="m-688-920 19.4595 8.2162-19.4595 7.7838-35 14 6.9407-18.1527z"/><path d="m-661.0482-803.3796-6.7918 2.8676-20.16-7.488 34-13z"/><path d="m-643-811-18.0482 7.6204 7.0482-17.6204 14-35 7.8997 19.1851z"/><path d="m-723-821 35 13 20.16 7.488-20.16 8.512-45-19-6.8675-16.265z"/><path d="m-736-856 13 35-16.8675-6.265-12.1325-28.735 8.5121-20.1603z"/><path d="m-723-890-13 34-7.4879-20.1603 10.4879-24.8397 16.9407-7.1527z"/><path d="m-643-811-45 19z"/><path d="m-688-792-45-19z"/><path d="m-632.1003-836.8149 8.1003-19.1851-19 45z"/><path d="m-733-811-19-45z"/><path d="m-635.0633-882.2025-7.9367-18.7975 15.6221 37 3.3779 8z"/><path d="m-752-856 19-45z"/><path d="m-688-920 45 19z"/><path d="m-733-901 45-19z"/><path d="m-320-1056h64z"/><path d="m-320-1056h-192v-32h192z"/><path d="m-1056-1280h-64z"/><path d="m-320-640h-144z"/><path d="m-2208-160v48z"/><path d="m352-2528h-32-32-160z"/><path d="m576-2528h-109-115z"/><path d="m-1568 192h64-192z"/><path d="m-2208 64 30.5454 61.0908 33.4546 66.9092z"/><path d="m880-2080 16-32v96h-48z"/><path d="m896-2112v-32h16v128h-16z"/><path d="m848-2144 32 64-32 64z"/><path d="m896-2144v32l-16 32-32-64z"/><path d="m832-2224v-80-96 224z"/><path d="m832-1984v-192l16 32v128z"/><path d="m16-2224 3-3 7.1052 3z"/><path d="m288-2496-45 45-147 147h-32v-96l64-128h160z"/><path d="m96-2304-32 32v-32z"/><path d="m320-2528-32 32v-32z"/><path d="m243-2304v80h-216.8948l-7.1052-3 45-45 32-32 147-147z"/><path d="m243-2304v-147l45-45 32-32h32 115v224z"/><path d="m467-2224h-216.8948-7.1052v-80h224z"/><path d="m467-2304v-224h109 115v224z"/><path d="m691-2224h-216.8948-7.1052v-80h224z"/><path d="m768-2528 64 128v96h-141v-224z"/><path d="m832-2304v80h-133.8948-7.1052v-80z"/><path d="m813-1843 19-45v128l-64 64h-17.0667z"/><path d="m768-1696h-17.0667z"/><path d="m128-928h36.9778 27.0222-96z"/><path d="m250.1052-2129.4222-141.1052-59.5778-45-19-31.3831-13.2506-6.5117-2.7494h216.8948 7.1052z"/><path d="m474.1052-2034.8445-141.1052-59.5777-82.8948-35v-94.5778h216.8948 7.1052z"/><path d="m698.1052-1984h-5.8947-28.7438-55.4667-13.4736l-37.5264-15.8443-82.8948-35.0002v-189.1555h216.8948 7.1052z"/><path d="m832-2224v48 192h-133.8948v-240z"/><path d="m192-2016v-51.2l141 59.5333 56.0527 23.6667h-197.0527z"/><path d="m333-2007.6667-141-59.5333-38.4231-16.2231-25.5769-60.5769-19-45 141.1052 59.5778 82.8948 35z"/><path d="m557-1984h-141-26.9473l-56.0527-23.6667v-86.7555l141.1052 59.5777 82.8948 35.0002z"/><path d="m594.5264-1984h-37.5264v-15.8443z"/><path d="m698.1052-1984h133.8948v32l-19 19-45-19-31.3831-13.2506-44.4064-18.7494z"/><path d="m813-1933 19-19v64z"/><path d="m608-1760v-131.5556l115 48.5556 45 19-160 67.5555z"/><path d="m736.6169-1965.2506 31.3831 13.2506-45 19z"/><path d="m723-1933-19 45-40.5333-96h28.7438l44.4064 18.7494z"/><path d="m704-1888 19 45-115-48.5556v-92.4444h55.4667z"/><path d="m608-1756.4445 160-67.5555 45-19-62.0667 147h-174.9333v-46.9333z"/><path d="m512-1715.9112 64-27.0221v46.9333l-64 64z"/><path d="m384-1632-21-21 21-8.8667z"/><path d="m215.579-1760-23.579-9.9556v-22.0444-192h197.0527 26.9473v224z"/><path d="m416-1675.3778-96-40.5333-104.421-44.0889h200.421z"/><path d="m416-1760v-224h141 37.5264 13.4736v92.4444 131.5556z"/><path d="m608-1756.4445-32 13.5112-64 27.0221-96 40.5334v-84.6222h192z"/><path d="m139.7894-1792 52.2106 22.0444 23.579 9.9556 104.421 44.0889v19.9111h-32-132.9778l-27.0222-64-19-45z"/><path d="m416-1675.3778-32 13.5111-21 8.8667-43-43v-19.9111z"/><path d="m384-1584v-48-29.8667l32-13.5111 96-40.5334v83.9112 140.0889h-128z"/><path d="m512-1491.9111v83.9111 96h-128v-48-131.9111z"/><path d="m19-2189-19 45v-64l16-16h10.1052l6.5117 2.7494z"/><path d="m0-2052.9778v-54.0444l19 8.0222 45 19z"/><path d="m0-2016v-36.9778l64-27.0222 45-19-35.0444 83z"/><path d="m110.1626-2101.7536 17.8374-42.2464 25.5769 60.5769z"/><path d="m19-2189 13.6169-32.2506 31.3831 13.2506z"/><path d="m109-2099 1.1626-2.7536 43.4143 18.3305 38.4231 16.2231v51.2h-118.0444z"/><path d="m0-2107.0222v-36.9778l19 45z"/><path d="m109-1805-45-19-31.3831-13.2506-32.6169-13.7716v-132.9778-32h73.9556 118.0444v32 192h-52.2106z"/><path d="m192-1792v22.0444l-52.2106-22.0444z"/><path d="m100.9778-1696 8.0222-19 19-45 27.0222 64z"/><path d="m64-1696 45-19-8.0222 19z"/><path d="m19-1805 13.6169-32.2506 31.3831 13.2506z"/><path d="m0-1851.0222 32.6169 13.7716-13.6169 32.2506-19 45z"/><path d="m164.9778-1312 8.0222-19 19-45v64z"/><path d="m36.9778-1440h54.0445l-8.0223 19-19 45z"/><path d="m173-1421 19 8.0222v36.9778z"/><path d="m91.0223-1440h4.9777 32l-45 19z"/><path d="m173-1421-45-19h64v27.0222z"/><path d="m-64-1393.0667v-46.9333h100.9778l27.0222 64 19 45z"/><path d="m87.6521-1312h-119.6521-19.4783-12.5217v-81.0667l147 62.0667 45 19z"/><path d="m128-1312 45-19-8.0222 19z"/><path d="m-128-1440h64v46.9333 81.0667 32 64h-64z"/><path d="m-64-1216v128 19.4783 12.5217 64h-64v-224z"/><path d="m-64-992v64h-64v-64z"/><path d="m320-1248v128l-64 32h-64v-224z"/><path d="m256-1088-64 32v-32z"/><path d="m320-1120v-128l64-64h128v128l-64 64z"/><path d="m7.403-1106.9188 64.3609-164.4781 15.8882-40.6031h40.3479 36.9778 27.0222v224h-139.7893z"/><path d="m192-1088v32 27.0222l-19-8.0222-45-19-48.3333-20.4073-27.456-11.5927z"/><path d="m0-1056v-32l7.403-18.9188 44.8077 18.9188 27.456 11.5927 9.6065 24.5498-6.2732 14.8575-9.4212 22.3134-22.9492-8.9801-50.6296-19.8116z"/><path d="m0-1280v-19.4784l71.7639 28.0815-64.3609 164.4781-7.403 18.9188z"/><path d="m87.6521-1312-15.8882 40.6031-71.7639-28.0815-9-3.5216-23-9z"/><path d="m96-928h-96v-54.0444l83 35.0444 45 19z"/><path d="m50.6296-1023.6667 13.3704 31.6667 19 45-83-35.0444v-61.4339z"/><path d="m64-992-13.3704-31.6667 22.9492 8.9801z"/><path d="m192-928h-27.0222l8.0222-19 19-45z"/><path d="m192-1028.9778v36.9778l-19-45z"/><path d="m83-1037 6.2732-14.8575 4.1 10.4777z"/><path d="m128-928 45-19-8.0222 19z"/><path d="m89.2732-1051.8575-9.6065-24.5498 48.3333 20.4073-34.6268 14.6202z"/><path d="m-64-1312h12.5217l-3.5217 9-9 23z"/><path d="m-64-1068.5217 32 12.5217h-32z"/><path d="m-32-1312-23 9 3.5217-9z"/><path d="m-9-1065-3.5217 9h-19.4783z"/><path d="m-64-992v-64h32 19.4783 12.5217v12.5217 61.4339 54.0444h-64z"/><path d="m0-1280-9-23 9 3.5216z"/><path d="m-12.5217-1056 3.5217-9 9-23v32z"/><path d="m-55-1065-9-3.5217v-19.4783z"/><path d="m0-1984v132.9778 91.0222z"/><path d="m320-1696h-32z"/><path d="m192-1376v-36.9778-27.0222 128z"/><path d="m512-1491.9111v-140.0889 32 192z"/><path d="m384-1584v92.0889 131.9111z"/><path d="m256-1088 64-32-128 64z"/><path d="m96-1440h-4.9777-54.0445-100.9778-64z"/><path d="m-64-1088v-128-64z"/><path d="m-256-1312 128-128v224h-128z"/><path d="m-128-1216v224h-64l-64-64v-32-128z"/><path d="m-128-992v64l-64-64z"/><path d="m-256-1312h-64z"/><path d="m-256-1312v96 128h-64v-224z"/><path d="m-256-1088v32h-64v-32z"/><path d="m-1120-1024h64z"/><path d="m-1248-1408 128 128h-128z"/><path d="m-1248-1408 128 128z"/><path d="m-1120-1280v224h-128v-128-96z"/><path d="m-1120-1056v32h-128v-32z"/><path d="m-1120-1056v-224h64 160v224z"/><path d="m-1120-1024-128 128v-128z"/><path d="m-1344-1408h-160-36.9778-27.0222z"/><path d="m-1888-928v128 96-32z"/><path d="m-1312-1248v-19.4785-59.4547-81.0668h64v128 96h-64z"/><path d="m-1248-1184v128 32h-64v-32-128z"/><path d="m-1360.8917-1286.61 16.8917 6.61-23 9z"/><path d="m-1344-1280-32-12.522v-61.4335l64 27.0223v59.4547z"/><path d="m-1344-1024 23-9-3.5217 9z"/><path d="m-1376-1056 9 23-9-3.5219z"/><path d="m-1321-1271 9 3.5215v19.4785z"/><path d="m-1324.5217-1024 3.5217-9 9-23v32z"/><path d="m-1376-1036.5219 9 3.5219 23 9h-32z"/><path d="m-1344-1408h32v81.0668l-64-27.0223-83-35.0445-45-19z"/><path d="m-1376-1280v-12.522l15.1083 5.912-6.1083 15.61-9 23z"/><path d="m-1568-1280h64 32v224h-160l-64-32v-128z"/><path d="m-1472-1056v32h-96l-64-32z"/><path d="m-1472-1280h4.9778 54.0444 36.9778v32 192h-96z"/><path d="m-1376-1056v19.4781 12.5219h-96v-32z"/><path d="m-1568-1280v-27.0222l64 27.0222z"/><path d="m-1549-1389-19 45v-64h27.0222z"/><path d="m-1467.0222-1280h-4.9778-32l45-19z"/><path d="m-1376-1292.522v12.522h-36.9778l-27.0222-64-19-45 83 35.0445z"/><path d="m-1549-1389 8.0222-19h36.9778z"/><path d="m-1467.0222-1280 8.0222-19 19-45 27.0222 64z"/><path d="m-1568-1307.0222v-36.9778l19 45z"/><path d="m-1696-1216v128l-64 64h-128v-128l64-64z"/><path d="m-1248-896h-96-32v-73.9556-54.0444h32 19.4783 12.5217 64z"/><path d="m-1459-1005-45-19h32 96v54.0444z"/><path d="m-1549-1005-19 45v-64h27.0222z"/><path d="m-1568-896v-27.0222l64 27.0222z"/><path d="m-1459-915 19-45 27.0222 64h-54.0444z"/><path d="m-1440-960-19-45 83 35.0444v73.9556h-36.9778z"/><path d="m-1459-915-8.0222 19h-36.9778z"/><path d="m-1568-923.0222v-36.9778l19 45z"/><path d="m-1549-1005 8.0222-19h36.9778z"/><path d="m-1888-928v-96h128v48 48 128h-128z"/><path d="m-1760-800v96h-128v-96z"/><path d="m-1568-960v36.9778 27.0222-128z"/><path d="m-1248-896h-96z"/><path d="m-1312-1248v64 128z"/><path d="m-1760-976v16 32z"/><path d="m-1568-1024-128-64z"/><path d="m-1376-484.9778v-91.0222 224z"/><path d="m-1844.2109-257.4221-99.256-41.9082-124.744-52.6697h28.7442 164.4667 30.7891z"/><path d="m-1620.2109-162.8445-224-94.5776v-94.5779h79.1588 69.0521 75.7891z"/><path d="m-1568-352v8.421 161.5346 41.2446l-52.2109-22.0447v-189.1555z"/><path d="m-2144-384 45-19-13.6169 32.2507z"/><path d="m-2080-448 40.5333 96h-28.7442l-44.406-18.7493z"/><path d="m-1792-660.6222 53-22.3778 43 43v19.9111z"/><path d="m-1920-436.6222v19.2l-179-75.5778-45-19 224-94.5778z"/><path d="m-1920-436.6222v-169.9556l128-54.0444 96 40.5333v183.4667z"/><path d="m-1765.0521-352-109.9479-46.4222-45-19v-19.2h224v40.5333 44.0889z"/><path d="m-1696-436.6222v-183.4667l128 54.0445v169.9555h-128z"/><path d="m-1568-396.0889v44.0889h-52.2109-75.7891v-44.0889z"/><path d="m-1875-352h-164.4667l-40.5333-96-19-45 179 75.5778 45 19z"/><path d="m-1765.0521-352h-79.1588-30.7891v-46.4222z"/><path d="m-1888-704h128l21 21-181 76.4222-32 13.5111v-46.9333z"/><path d="m-1952-640v46.9333l-192 81.0667-45 19 62.0667-147z"/><path d="m-1395-147 19-45v64h-27.0222z"/><path d="m-1395-237-45-19 15.4374-6.5181 48.5626-20.5041v54.0444z"/><path d="m-1537.6847-128-30.3153-12.7998v-41.2446l83 35.0444 45 19z"/><path d="m-1440-128 45-19-8.0222 19z"/><path d="m-1395-237 19 8.0222v36.9778z"/><path d="m-1440.6479-342.0446 61-144.4735 3.6479 1.5403v132.9778 68.9778l-48.5626 20.5041h-49.6631z"/><path d="m-1424.5626-262.5181-60.4374 25.5181 10.7743-25.5181z"/><path d="m-1476.9778-640-27.0222 64-27.0222-64z"/><path d="m-1440-640-45 19 8.0222-19z"/><path d="m-1440-512 45-19-13.6169 32.2506z"/><path d="m-1568-343.579.6479 1.5346 63.3521 150.0444 19 45-83-35.0444z"/><path d="m-1531.0222-640 27.0222 64 19 45-83-35.0444-128-54.0445v-19.9111z"/><path d="m-1568-343.579v-8.421-44.0889-169.9555l83 35.0444 45 19 60.3521 25.4819-61 144.4735-126.7042.0002z"/><path d="m-1440.6479-342.0446-63.3521 150.0446-63.3521-150.0444z"/><path d="m-1376-484.9778-32.6169-13.7716 13.6169-32.2506 19-45z"/><path d="m-1472-640h-224z"/><path d="m-1943.4668-128h-129.4221l-94.5779-224h99.2559l124.744 52.6697z"/><path d="m-1719.4668-128h-129.4221-94.5779l-.0001-171.3303 224.0001 94.5779z"/><path d="m-1568-140.7998v12.7998h-56.8889-94.5779v-76.7524z"/><path d="m-2189-403 45 19 75.7891 32h-99.2559z"/><path d="m-1568-140.7998 30.3153 12.7998h-30.3153z"/><path d="m-1537.6847-128 37.8949 16h-68.2102v-16z"/><path d="m-1440-128h36.9778l-5.5947 13.2507z"/><path d="m-1499.7898-112-37.8949-16h97.6847l37.8948 16z"/><path d="m-1376-128-16 16h-10.1052l-6.5117-2.7493 5.5947-13.2507z"/><path d="m-1848.8889-112h-135.1111-82.1333l-6.7556-16h129.4221 94.5779z"/><path d="m-1624.8889-112h-135.1111-88.8889v-16h129.4221 94.5779z"/><path d="m-1568-128v16h-56.8889v-16z"/><path d="m-2072.8889-128 6.7556 16h-141.8667v-48-192h40.5332z"/><path d="m-2208-352v-32l19-19 21.5332 51z"/><path d="m-2189-403-19 19v-64z"/><path d="m-1499.7898-112 75.7898 32-16 16h-128v-48z"/><path d="m-1395-109-29 29-16-6.7554-59.7898-25.2446h97.6846z"/><path d="m-1392-112-3 3-7.1052-3z"/><path d="m-1568-64h128v41.6001l-128 25.5999z"/><path d="m-1984 86.3999-193.4546 38.6909-30.5454-61.0908v-176h141.8667 82.1333z"/><path d="m-1760 41.5999-193.4545 38.6909-30.5455 6.1091v-198.3999h135.1111 88.8889z"/><path d="m-1624.8889-112h56.8889v48 67.2l-192 38.3999v-153.5999z"/><path d="m-1440-64v41.6001z"/><path d="m-1953.4546 192h-190.5454l-33.4546-66.9092 193.4546-38.6909 30.5455-6.1091z"/><path d="m-1729.4546 192h-224l.0001-111.7092 193.4545-38.6909 30.5454-6.1092z"/><path d="m-1568 3.2v188.8h-128-33.4546v-156.5093z"/><path d="m-1440-22.3999v86.3999l-64 128h-64v-188.8z"/><path d="m-2189-493-19 45v-128l64-64h17.0667z"/><path d="m-2126.9333-640h-17.0667z"/><path d="m-2256-256-16 32v-96h48z"/><path d="m-2272-224v32h-16v-128h16z"/><path d="m-2208-352v192l-16-32-32-64z"/><path d="m-2272-192v-32l16-32 32 64z"/><path d="m912-2144h-16v128h16z"/><path d="m-2272-320h-16v128h16z"/><path d="m-2208-112v-16-32z"/><path d="m832-2400-64-128z"/><path d="m832-2400v176 16 32z"/><path d="m-2208-448 19-45z"/><path d="m64-2400v96 32z"/><path d="m64-2272-45 45-3 3z"/><path d="m823.8997-1868.8151 8.1003-19.1849-19 45z"/><path d="m52.6667-1707.3333 11.3333 11.3333-11.3332-11.3333-15.8668-15.8667z"/><path d="m16-2224-16 16z"/><path d="m112-1760-14-34 18.9367 7.7974 11.0633 26.2026-8.1003 19.1849z"/><path d="m90.2025-1707.0633-26.2025 11.0633-11.3333-11.3333 11.3333-4.6667 34-14z"/><path d="m16-1760 11.2 27.2-27.2-27.2 8.1003-19.185z"/><path d="m30-1794 7.7975-18.9367 7.0176-2.963 19.1849 7.8997z"/><path d="m30-1794-14 34-7.8997-19.185 10.8997-25.815 18.7975-7.9367z"/><path d="m52.6667-1707.3333-15.8667-15.8667 27.2 11.2z"/><path d="m109-1715-18.7975 7.9367 7.7975-18.9367 14-34 7.8997 19.1849z"/><path d="m98-1794-34-14-19.1849-7.8997 19.1849-8.1003 45 19 7.9367 18.7974z"/><path d="m98-2178-34-14-19.1849-7.8997 19.1849-8.1003 45 19 7.9367 18.7975z"/><path d="m109-2099-18.7975 7.9367 7.7975-18.9367 14-34 7.8997 19.185z"/><path d="m44.815-2088.1003-25.815-10.8997-7.9367-18.7975 18.9367 7.7975 34 14z"/><path d="m8.1003-2163.185 10.8997-25.815 18.7975-7.9367-7.7975 18.9367-14 34z"/><path d="m37.7975-2196.9367 7.0176-2.963 19.1849 7.8997-34 14z"/><path d="m11.0633-2117.7975-11.0633-26.2025 8.1003-19.185 7.8997 19.185 14 34z"/><path d="m90.2025-2091.0633-26.2025 11.0633-19.185-8.1003 19.185-7.8997 34-14z"/><path d="m112-2144-14-34 18.9367 7.7975 11.0633 26.2025-8.1003 19.185z"/><path d="m816-1888-14-34 18.9367 7.7975 11.0633 26.2025-8.1003 19.1849z"/><path d="m794.2025-1835.0633-26.2025 11.0633-19.185-8.1003 19.185-7.8997 34-14z"/><path d="m715.0633-1861.7975-11.0633-26.2025 8.1003-19.185 7.8997 19.185 14 34z"/><path d="m741.7974-1940.9367 7.0177-2.963 19.1849 7.8997-34 14z"/><path d="m712.1003-1907.185 10.8997-25.815 18.7974-7.9367-7.7974 18.9367-14 34z"/><path d="m748.815-1832.1003-25.815-10.8997-7.9367-18.7975 18.9367 7.7975 34 14z"/><path d="m813-1843-18.7975 7.9367 7.7975-18.9367 14-34 7.8997 19.1849z"/><path d="m802-1922-34-14-19.1849-7.8997 19.1849-8.1003 45 19 7.9367 18.7975z"/><path d="m27.2-1732.8-11.2-27.2z"/><path d="m748.8151-1943.8997-7.0177 2.963-18.7974 7.9367 45-19z"/><path d="m64-1824 45 19z"/><path d="m44.8151-2199.8997-7.0176 2.963-18.7975 7.9367 45-19z"/><path d="m64-2208 45 19z"/><path d="m8.1003-2163.185-8.1003 19.185 19-45z"/><path d="m116.9367-2170.2025-7.9367-18.7975 19 45z"/><path d="m11.0633-2117.7975 7.9367 18.7975-19-45z"/><path d="m119.8997-2124.815 8.1003-19.185-17.8374 42.2464-1.1626 2.7536z"/><path d="m44.815-2088.1003 19.185 8.1003-45-19z"/><path d="m90.2025-2091.0633 18.7975-7.9367-45 19z"/><path d="m44.8151-1815.8997-7.0176 2.963-18.7975 7.9367 45-19z"/><path d="m116.9367-1786.2026-7.9367-18.7974 19 45z"/><path d="m8.1003-1779.185-8.1003 19.185 19-45z"/><path d="m119.8997-1740.8151 8.1003-19.1849-19 45z"/><path d="m90.2025-1707.0633 18.7975-7.9367-45 19z"/><path d="m768-1952 45 19z"/><path d="m712.1003-1907.185-8.1003 19.185 19-45z"/><path d="m820.9367-1914.2025-7.9367-18.7975 19 45z"/><path d="m715.0633-1861.7975 7.9367 18.7975-19-45z"/><path d="m794.2025-1835.0633 18.7975-7.9367-45 19z"/><path d="m748.815-1832.1003 19.185 8.1003-45-19z"/><path d="m-64-1280v64 128z"/><path d="m0-1280v192z"/><path d="m111.1082-1030.61 16.8918 6.61-23 9z"/><path d="m67.5185-983.6667-3.5185-8.3333 16.6081-39.335 15.3919 39.335 9 23z"/><path d="m136.3333-931.5186-8.3333 3.5186-39.3349-16.608 39.3349-15.392 23-9z"/><path d="m160-992-9-23 37.4814 14.6665 3.5186 8.3335-16.6081 39.335z"/><path d="m151-1015-23-9-16.8918-6.61-22.4429-8.782 39.3347-16.608 45 19 15.4814 36.6665z"/><path d="m173-947-36.6667 15.4814 14.6667-37.4814 9-23 15.3919 39.335z"/><path d="m88.6651-944.608-5.6651-2.392-15.4815-36.6667 37.4815 14.6667 23 9z"/><path d="m80.6081-1031.335 2.3919-5.665 5.6653-2.392 22.4429 8.782-6.1082 15.61-9 23z"/><path d="m111.1082-1414.6098 16.8918 6.6098-23 9z"/><path d="m67.5185-1367.6666-3.5185-8.3334 16.6081-39.3349 15.3919 39.3349 9 23z"/><path d="m136.3333-1315.5185-8.3333 3.5185-39.3349-16.6081 39.3349-15.3919 23-9z"/><path d="m160-1376-9-23 37.4815 14.6667 3.5185 8.3333-16.6081 39.3349z"/><path d="m128-1408-16.8918-6.6098-22.4431-8.7821 39.3349-16.6081 45 19 15.4815 36.6667z"/><path d="m173-1331-36.6667 15.4815 14.6667-37.4815 9-23 15.3919 39.3349z"/><path d="m88.6651-1328.6081-5.6651-2.3919-15.4815-36.6666 37.4815 14.6666 23 9z"/><path d="m80.6081-1415.3349 2.3919-5.6651 5.6651-2.3919 22.4431 8.7821-6.1082 15.6098-9 23z"/><path d="m128-1440 45 19z"/><path d="m83-1037 10.3732-4.3798 34.6268-14.6202z"/><path d="m188.4815-1384.3333-15.4815-36.6667 19 45z"/><path d="m88.6651-1423.3919-5.6651 2.3919 45-19z"/><path d="m175.3919-1336.6651 16.6081-39.3349-19 45z"/><path d="m80.6081-1415.3349-16.6081 39.3349 19-45z"/><path d="m136.3333-1315.5185 36.6667-15.4815-45 19z"/><path d="m67.5185-1367.6666 15.4815 36.6666-19-45z"/><path d="m88.6651-1328.6081 39.3349 16.6081-45-19z"/><path d="m128-1056 45 19z"/><path d="m80.6081-1031.335-16.6081 39.335 9.5788-22.6866 9.4212-22.3134z"/><path d="m188.4814-1000.3335-15.4814-36.6665 19 45z"/><path d="m67.5185-983.6667 15.4815 36.6667-19-45z"/><path d="m175.3919-952.665 16.6081-39.335-19 45z"/><path d="m88.6651-944.608 39.3349 16.608-45-19z"/><path d="m173-947-45 19z"/><path d="m-32-1312 23 9z"/><path d="m-9-1065-23 9z"/><path d="m-9-1303 9 23z"/><path d="m0-1088-9 23z"/><path d="m-64-1280 9-23z"/><path d="m-55-1065-9-23z"/><path d="m-55-1303 23-9z"/><path d="m-32-1056-23-9z"/><path d="m-2189-403-19-45z"/><path d="m-2144-384-45-19z"/><path d="m-1312-1056v-128-64z"/><path d="m-1376-1056v-192z"/><path d="m-1367-1271 23-9z"/><path d="m-1344-1024-23-9z"/><path d="m-1376-1248 9-23z"/><path d="m-1367-1033-9-23z"/><path d="m-1321-1271 9 23z"/><path d="m-1312-1056-9 23z"/><path d="m-1344-1280 23 9z"/><path d="m-1321-1033-23 9z"/><path d="m-1459-1299-5.6649 2.3918-22.4431-8.7821 6.108-15.6097 9-23 15.392 39.3348z"/><path d="m-1481-1367-23-9 39.3348-15.392 5.6652 2.392 15.4814 36.6665z"/><path d="m-1527-1367-9 23-15.392-39.3349 2.392-5.6651 36.6666-15.4814z"/><path d="m-1527-1321 62.3351 24.3918-39.3351 16.6082-45-19-15.4816-36.6669z"/><path d="m-1536-1344 9 23-37.4816-14.6669-3.5184-8.3331 16.608-39.3349z"/><path d="m-1504-1376-23 9 14.6666-37.4814 8.3334-3.5186 39.3348 16.608z"/><path d="m-1481-1367 37.4814 14.6665 3.5186 8.3335-16.608 39.3348z"/><path d="m-1487.108-1305.3903-16.892-6.6097 23-9z"/><path d="m-1459-915-5.6649 2.3918-22.4433-8.7821 15.1082-38.6097 15.392 39.3348z"/><path d="m-1481-983-23-9 39.3348-15.392 5.6652 2.392 15.4814 36.6665z"/><path d="m-1536-960-15.3918-39.3351 2.3918-5.6649 36.6666-15.4814z"/><path d="m-1487.1082-921.3903 22.4433 8.7821-39.3351 16.6082-45-19-15.4816-36.6667z"/><path d="m-1536-960 9 23-37.4816-14.6667-3.5184-8.3333 16.6082-39.3351z"/><path d="m-1504-992-23 9 14.6666-37.4814 8.3334-3.5186 39.3348 16.608z"/><path d="m-1472-960-9-23 37.4814 14.6665 3.5186 8.3335-16.608 39.3348z"/><path d="m-1487.1082-921.3903-16.8918-6.6097 23-9z"/><path d="m-1464.6649-1296.6082 5.6649-2.3918-45 19z"/><path d="m-1504-1280-45-19z"/><path d="m-1456.608-1304.6652 16.608-39.3348-19 45z"/><path d="m-1564.4816-1335.6669 15.4816 36.6669-19-45z"/><path d="m-1459-1389 19 45z"/><path d="m-1568-1344 19-45z"/><path d="m-1464.6652-1391.392-39.3348-16.608 45 19z"/><path d="m-1512.3334-1404.4814-36.6666 15.4814 45-19z"/><path d="m-1504-896-45-19z"/><path d="m-1464.6649-912.6082 5.6649-2.3918-45 19z"/><path d="m-1549-915-19-45z"/><path d="m-1456.608-920.6652 16.608-39.3348-19 45z"/><path d="m-1551.3918-999.3351-16.6082 39.3351 19-45z"/><path d="m-1459-1005 19 45z"/><path d="m-1512.3334-1020.4814-36.6666 15.4814 45-19z"/><path d="m-1464.6652-1007.392-39.3348-16.608 45 19z"/><path d="m-1474-542 34 14 19.1849 7.8997-19.1849 8.1003-45-19-7.9368-18.7975z"/><path d="m-1488-576-7.8997-19.1851 10.8997-25.8149 18.7975-7.9368z"/><path d="m-1440-624 11.3334-4.6666 15.8667 15.8667z"/><path d="m-1395-531-18.7974 7.9366 21.7974-52.9366 7.8997 19.1849z"/><path d="m-1413.7974-523.0634-7.0177 2.9631-19.1849-7.8997 34-14z"/><path d="m-1392-576-11.2-27.2 27.2 27.2-8.1003 19.1849z"/><path d="m-1474-610 7.7975-18.9368 26.2025-11.0632 11.3334 11.3334z"/><path d="m-1474-542-18.9368-7.7975-11.0632-26.2025 8.1003-19.1851z"/><path d="m-1474-158-18.9366-7.7974-11.0634-26.2026 8.1003-19.1851z"/><path d="m-1440-240-34 14 7.7975-18.9368 26.2025-11.0632 19.1849 8.1003z"/><path d="m-1406-226 18.9368 7.7976 11.0632 26.2024-8.1003 19.1851z"/><path d="m-1413.7975-139.0632-7.0176 2.9629-19.1849-7.8997 34-14z"/><path d="m-1395-147-18.7975 7.9368 7.7975-18.9368 14-34 7.8997 19.1851z"/><path d="m-1440-240 19.1849-7.8997 25.8151 10.8997 7.9368 18.7976z"/><path d="m-1474-226-14 34-7.8997-19.1851 10.8997-25.8149 18.7975-7.9368z"/><path d="m-1440-144 19.1849 7.8997-19.1849 8.1003-45-19-7.9366-18.7974z"/><path d="m-2144-400 19.1848 7.8998-19.1848 8.1002-26.2021-11.0631-7.7979-18.9369z"/><path d="m-2178-482-14 34-7.8997-19.1852 10.8997-25.8148 18.7974-7.9366z"/><path d="m-2110-482-34-14 19.1848-7.8997 25.8152 10.8997 7.9368 18.7976z"/><path d="m-2099-403-18.7974 7.9366 21.7974-52.9366 7.8997 19.1851z"/><path d="m-2117.7974-395.0634-7.0178 2.9632-19.1848-7.8998 34-14z"/><path d="m-2096-448-14-34 18.9368 7.7976 11.0632 26.2024-8.1003 19.1851z"/><path d="m-2178-482 7.7974-18.9366 26.2026-11.0634 19.1848 8.1003z"/><path d="m-1428.6666-628.6666-11.3334-11.3334 11.3334 11.3334 15.8667 15.8667z"/><path d="m-1403.2-603.2 11.2 27.2z"/><path d="m-1440-512-45-19z"/><path d="m-1395-531-45 19z"/><path d="m-1485-531-19-45z"/><path d="m-1376-576-19 45z"/><path d="m-1504-576 19-45z"/><path d="m-1485-621 45-19z"/><path d="m-2099-403-45 19z"/><path d="m-2189-493 45-19z"/><path d="m-2080-448-19 45z"/><path d="m-2144-512 45 19z"/><path d="m-2091.0632-474.2024-7.9368-18.7976 19 45z"/><path d="m-1440-128-45-19z"/><path d="m-1395-147-45 19z"/><path d="m-1485-147-19-45z"/><path d="m-1376-192-19 45z"/><path d="m-1504-192 19-45z"/><path d="m-1387.0632-218.2024-7.9368-18.7976 19 45z"/><path d="m-1485-237 45-19z"/><path d="m-1440-256 45 19z"/><path d="m-2170.2021-395.0631-18.7979-7.9369-7.9368-18.7974 18.9368 7.7974z"/><path d="m-2192-448 14 34-18.9368-7.7974-11.0632-26.2026 8.1003-19.1852z"/><path d="m-1392-112 16-16z"/><path d="m-1440-64v41.6001z"/><path d="m-1440-64 16-16 29-29 3-3z"/><path d="m-1440 64v-86.3999z"/><path d="m-64-1120h-8z"/><path d="m-72-1248h8z"/><path d="m-72-1248v64h8v-64z"/><path d="m-328-1696v8z"/><path d="m-456-1688v-8z"/><path d="m-328-1696h-64v8h64z"/><path d="m-920-1696v8z"/><path d="m-1048-1688v-8z"/><path d="m-920-1696h-64v8h64z"/><path d="m-1304-1088h-8z"/><path d="m-1312-1216h8z"/><path d="m-1312-1216v64h8v-64z"/><path d="m-920-648v8z"/><path d="m-1048-640v-8z"/><path d="m-920-648h-64v8h64z"/><path d="m-328-648v8z"/><path d="m-456-640v-8z"/><path d="m-328-648h-64v8h64z"/><path d="m-2208-112v176z"/><path d="m128-2528h224z"/><path d="m352-2528h224z"/><path d="m768-2528h-77-115z"/><path d="m768-2528 64 128z"/><path d="m-2144 192h190.5454 33.4546z"/><path d="m-1920 192h190.5454 33.4546z"/><path d="m-1504 192h-192z"/><path d="m-2144 192-64-128z"/><path d="m128-2528-64 128z"/><path d="m-1504 192 64-128z"/><path d="m-2208-576v128 64 32z"/><path d="m832-1760v-128-64-32z"/><path d="m848-2144-16-32z"/><path d="m832-1984 16-32z"/><path d="m768-1696h-17.0667z"/><path d="m768-1696 64-64z"/><path d="m0-1760v-80.8421-34.1579-109z"/><path d="m0-2208v64 36.9778 54.0444 36.9778 32z"/><path d="m576-1696h174.9333z"/><path d="m64-1696h36.9778 54.0444 132.9778z"/><path d="m320-1696h-32z"/><path d="m0-2208 16-16z"/><path d="m512-1632 64-64z"/><path d="m320-1696 43 43 21 21z"/><path d="m-832-1824h-224z"/><path d="m-400-1824h-208-16 48z"/><path d="m-320-577.1001v-46.8999 112z"/><path d="m-832-1792h-224v-32h224z"/><path d="m-608-1792h-224v-32h32 48 128 16z"/><path d="m-384-1792h-224v-32h208 16z"/><path d="m-320-1824v32h-64v-32z"/><path d="m-752-512h-48-32z"/><path d="m-624-512h-128z"/><path d="m-1056-1792v80z"/><path d="m-320-1712h-64z"/><path d="m-832-1712h-224v-80h224z"/><path d="m-608-1712h-224v-80h224z"/><path d="m-384-1712h-224v-80h224z"/><path d="m-320-1792v80h-64v-80z"/><path d="m-688-624h-144-80z"/><path d="m-464-624h-144-80z"/><path d="m-832-512h-224v-112h144 80z"/><path d="m-608-512h-16-128-80v-112h144 80z"/><path d="m-384-519.5-8.3334 7.5h-183.6666-32v-112h144 80z"/><path d="m-320-624v46.8999l-64 57.6001v-104.5z"/><path d="m-1376-128v-64-36.9778-54.0444-68.9778z"/><path d="m-1376-576v80.8422 143.1578z"/><path d="m-1696-640h128 36.9778 54.0444 4.9778z"/><path d="m-1440-640h-32z"/><path d="m-1952-640h-174.9333z"/><path d="m-1696-640-43-43-21-21z"/><path d="m-1888-704-64 64z"/><path d="m-1376-128-16 16z"/><path d="m-384-519.5 64-57.6001v65.1001h-72.3334z"/><path d="m-320-512h-72.3334z"/><path d="m-2144-640h17.0667z"/><path d="m-2144-640-64 64z"/><path d="m-2224-192 16 32z"/><path d="m-2208-352-16 32z"/><path d="m-72-1184v-64z"/><path d="m-72-1184v64h8v-64z"/><path d="m-392-1688h-64z"/><path d="m-392-1696h-64v8h64z"/><path d="m-984-1688h-64z"/><path d="m-984-1696h-64v8h64z"/><path d="m-1304-1152v64z"/><path d="m-1312-1152v64h8v-64z"/><path d="m-984-648h64z"/><path d="m-984-648h-64v8h64z"/><path d="m-392-648h64z"/><path d="m-392-648h-64v8h64z"/><path d="m848-2016h48 16z"/><path d="m912-2144h-16-48z"/><path d="m848-2016-16 32z"/><path d="m-624-1824h-128z"/><path d="m-624-1872v48h-128v-48z"/><path d="m-624-1872v48z"/><path d="m-739.8676-1451.2653-12.1324-28.7347 19 45z"/><path d="m-688-1544v16l34 14 18.9367 7.7975-7.9367-18.7975z"/><path d="m-640-1480 7.8997 19.1849 8.1003-19.1849-11.0633-26.2025-18.9367-7.7975z"/><path d="m-667.8398-1424.5121 6.7916-2.8676 7.0482-17.6203-34 13z"/><path d="m-654-1445-7.0482 17.6203 18.0482-7.6203 10.8997-25.8151-7.8997-19.1849z"/><path d="m-688-1416 20.1602-8.5121-20.1602-7.4879-35-13-16.8676-6.2653 6.8676 16.2653z"/><path d="m-736-1480-7.488-20.16-8.512 20.16 12.1324 28.7347 16.8676 6.2653z"/><path d="m-688-1544-28.0593 11.8472-6.9407 18.1528 35-14z"/><path d="m-723-1514 6.9407-18.1528-16.9407 7.1528-10.488 24.84 7.488 20.16z"/><path d="m-654-1445-34 13z"/><path d="m-688-1432-35-13z"/><path d="m-640-1480-14 35z"/><path d="m-654-1514 14 34z"/><path d="m-736-1480 13-34z"/><path d="m-688-1528 34 14z"/><path d="m-723-1514 35-14z"/><path d="m-635.0633-882.2025-7.9367-18.7975-25.5405-10.7838-19.4595 7.7838z"/><path d="m-635.0633-882.2025-18.9367-7.7975 14 34 7.8997 19.1851 8.1003-19.1851z"/><path d="m-688-904 19.4595-7.7838-19.4595-8.2162-28.0593 11.8473-6.9407 18.1527z"/><path d="m-667.84-800.512 6.7918-2.8676 7.0482-17.6204-34 13z"/><path d="m-654-821-7.0482 17.6204 18.0482-7.6204 10.8997-25.8149-7.8997-19.1851z"/><path d="m-688-792 20.16-8.512-20.16-7.488-35-13-16.8675-6.265 6.8675 16.265z"/><path d="m-736-856-7.4879-20.1603-8.5121 20.1603 12.1325 28.735 16.8675 6.265z"/><path d="m-723-890 6.9407-18.1527-16.9407 7.1527-10.4879 24.8397 7.4879 20.1603z"/><path d="m-654-821-34 13z"/><path d="m-688-808-35-13z"/><path d="m-640-856-14 35z"/><path d="m-723-821-13-35z"/><path d="m-654-890 14 34z"/><path d="m-736-856 13-34z"/><path d="m-688-904 34 14z"/><path d="m-723-890 35-14z"/><path d="m-624-464h-128z"/><path d="m-624-512v48h-128v-48z"/><path d="m-624-512v32 16z"/><path d="m-2224-320 16-32z"/><path d="m-2288-192h16 48z"/><path d="m-2224-320h-48-16z"/><path d="m912-2016h-16z"/><path d="m896-2144h16z"/><path d="m912-2144v128z"/><path d="m896-2016v-128z"/><path d="m-2288-320h16z"/><path d="m-2272-192h-16z"/><path d="m-2288-192v-128z"/><path d="m-2272-320v128z"/><path d="m-624-1872h-128z"/><path d="m-623-1921-1 49h-128l5-82z"/><path d="m-464-1696h-48-96z"/><path d="m-832-1712h-80-144z"/><path d="m-608-1712h-80-144z"/><path d="m-384-1712h-80-144z"/><path d="m-1056-1712h144z"/><path d="m-688-1696h-144-80v-16h80 144z"/><path d="m-608-1712h144v16h-144-80v-16z"/><path d="m-688-640h-224z"/><path d="m-464-640h-224 176z"/><path d="m-320-624h-64-80z"/><path d="m-320-624h-144z"/><path d="m-688-624h-224v-16h224z"/><path d="m-464-640v16h-224v-16z"/><path d="m-624-464-5 82-124-33 1-49z"/><path d="m-629-382-124-33z"/><path d="m-72-1248v128z"/><path d="m-64-1248v64z"/><path d="m-456-1688h128z"/><path d="m-456-1696h64z"/><path d="m-1048-1688h128z"/><path d="m-1048-1696h64z"/><path d="m-1304-1088v-128z"/><path d="m-1312-1088v-64z"/><path d="m-920-648h-128z"/><path d="m-920-640h-64z"/><path d="m-328-648h-128z"/><path d="m-328-640h-64z"/><path d="m-623-1921-124-33z"/><path d="m-611-1968-12 47-124-33 26-78z"/><path d="m-624-1480-8.1003 19.1849-10.8997 25.8151z"/><path d="m-688-1544 45 19 19 45-19 45-45 19-45-19-19-45 19-45z"/><path d="m-643-1435-24.8398 10.4879-20.1602 8.5121z"/><path d="m-688-1416-45-19z"/><path d="m-643-1525 7.9367 18.7975 11.0633 26.2025z"/><path d="m-752-1480 8.512-20.16 10.488-24.84z"/><path d="m-688-1544 45 19z"/><path d="m-733-1525 16.9407-7.1528 28.0593-11.8472z"/><path d="m-688-920 45 19 19 45-19 45-45 19-45-19-19-45 19-45z"/><path d="m-643-811-45 19z"/><path d="m-688-792-45-19z"/><path d="m-624-856-8.1003 19.1851-10.8997 25.8149z"/><path d="m-733-811-19-45z"/><path d="m-643-901 7.9367 18.7975 11.0633 26.2025z"/><path d="m-752-856 19-45z"/><path d="m-688-920 45 19z"/><path d="m-733-901 45-19z"/><path d="m-655-304-110-64z"/><path d="m-629-382-26 78-110-64 12-47z"/><path d="m576-2528v8z"/><path d="m320-2520v-8z"/><path d="m576-2528h-128v8h128z"/><path d="m-1952 192v-8z"/><path d="m-1696 184v8z"/><path d="m-1696 184h-128v8h128z"/><path d="m544-2528h32z"/><path d="m-677-2100 90 90z"/><path d="m-677-2100 90 90-24 42-110-64z"/><path d="m-611-1968-110-64z"/><path d="m-655-304-44 68-90-90 24-42z"/><path d="m-655-304-44 68z"/><path d="m448-1120 64-64z"/><path d="m-1824-1216-64 64z"/><path d="m192-928h-96z"/><path d="m96-928h-224 64 64z"/><path d="m384-1632h128z"/><path d="m384-1632-64-64z"/><path d="m192-1056v64 64-64-36.9778z"/><path d="m192-1440v64 64z"/><path d="m512-1360v48 128z"/><path d="m512-1408v48 176-128z"/><path d="m512-1600v-32h-128v32z"/><path d="m384-1600h128z"/><path d="m320-1120-64 32-64 32z"/><path d="m320-1120h128z"/><path d="m384-1360v48z"/><path d="m384-1600v-32 48z"/><path d="m384-1312-64 64z"/><path d="m320-1248-128-64z"/><path d="m96-1440h-224z"/><path d="m192-1440h-64-32z"/><path d="m-581.202-2020.1465-35.798-133.8535 64 110-27.2844 27.2844z"/><path d="m-677-2100 60-54 35.798 133.8535.9176 3.4309-6.7156 6.7156z"/><path d="m-580.2844-2016.7156 27.2844-27.2844-34 34z"/><path d="m-128-928-128-128z"/><path d="m-256-1056 64 64 64 64z"/><path d="m-128-1440-128 128z"/><path d="m-320-1696v160z"/><path d="m-320-1536v224-76.6222-83.3778z"/><path d="m-320-992v128z"/><path d="m-320-864v224z"/><path d="m-832-1696h-80-144z"/><path d="m-608-1696h-80-144z"/><path d="m-912-1696h-144z"/><path d="m-688-1712h-144-80v16h80 144z"/><path d="m-608-1696h144v-16h-144-80v16z"/><path d="m-320-1712h-64z"/><path d="m-384-1712h-80 80 64z"/><path d="m-464-1696v-16z"/><path d="m-912-1712v16z"/><path d="m-1056-1568v64 160z"/><path d="m-1056-1568v-128 124.6223 67.3777z"/><path d="m-1248-896 128-128z"/><path d="m-1056-864v224z"/><path d="m-1056-1024v160z"/><path d="m-464-640h144z"/><path d="m-320-640h-64-80z"/><path d="m-688-624h-224 80z"/><path d="m-464-624h-224 80z"/><path d="m-464-624v-16z"/><path d="m-912-640v16z"/><path d="m-688-640h-224v16h224z"/><path d="m-464-624v-16h-224v16z"/><path d="m-789-326 90 90z"/><path d="m-789-326 90 90-60 54-64-110z"/><path d="m-1760-704h-128z"/><path d="m-1344-1408h-224z"/><path d="m-1248-1408h-64-32z"/><path d="m-1888-960v-192 128 96z"/><path d="m-1888-960v32 192-64z"/><path d="m-1568-1280v-128 64 36.9778z"/><path d="m-1568-896v-128z"/><path d="m-1344-896h-224 64 36.9778 54.0444 36.9778z"/><path d="m-1248-896h-96z"/><path d="m-1888-736v32h128v-32z"/><path d="m-1760-736h-128z"/><path d="m-1760-976v-48 64z"/><path d="m-1568-1024-128-64z"/><path d="m-1696-1216h-128z"/><path d="m-1568-1280-128 64z"/><path d="m-1760-928v192 32-96z"/><path d="m-1760-976v-48z"/><path d="m-1760-1024 64-64z"/><path d="m-1760-704 32 32 32 32z"/><path d="m576-2520v-8z"/><path d="m320-2528v8z"/><path d="m576-2528h-32z"/><path d="m490.6667-2528h53.3333z"/><path d="m-1952 184v8z"/><path d="m-1696 192v-8z"/><path d="m-1866.6666 192h-85.3334z"/><path d="m-553-2044-64-110z"/><path d="m-544-2192 33 124-42 24-64-110z"/><path d="m-823-292 64 110z"/><path d="m-832-144-33-124 42-24 64 110z"/><path d="m448-2520h-128z"/><path d="m448-2528h-128v8h128z"/><path d="m-1824 184h128z"/><path d="m-1824 184h-128v8h128z"/><path d="m448-1120 64-64z"/><path d="m-1824-1216-64 64z"/><path d="m96-928h-224z"/><path d="m192-928h-27.0222-36.9778-32z"/><path d="m192-992v-64z"/><path d="m192-928v-64z"/><path d="m192-1440v27.0222 36.9778z"/><path d="m512-1376v16-48-192z"/><path d="m512-1376v-224h-128v224z"/><path d="m384-1360v48h128v-48-16h-128z"/><path d="m448-1120 64-64v-128h-128l-64 64v128z"/><path d="m320-1120v-128l-128-64v160 64h64z"/><path d="m192-1088v32l64-32z"/><path d="m320-1120h128z"/><path d="m384-1376v-224 16 224z"/><path d="m384-1360v48z"/><path d="m384-1312-64 64z"/><path d="m320-1248-128-64z"/><path d="m96-1440h-224 64 155.0223z"/><path d="m192-1440h-96z"/><path d="m-800-1824h-32z"/><path d="m-752-1824h-48z"/><path d="m-832-1824h-224z"/><path d="m-352-1824h-48-176 192z"/><path d="m-352-1824h32-64-16z"/><path d="m-511-2068-33-124z"/><path d="m-511-2068-33-124 80-16v128z"/><path d="m-624-1872v16 32z"/><path d="m-752-1872v48z"/><path d="m-624-1824v-32h-64-64v32z"/><path d="m-256-1280v192 32-160z"/><path d="m-128-928-64-64-64-64z"/><path d="m-128-1440-128 128z"/><path d="m-320-1536v224z"/><path d="m-320-1824v112-80z"/><path d="m-320-1696v160z"/><path d="m-320-864v224z"/><path d="m-320-992v-64z"/><path d="m-320-624v46.8999 65.1001z"/><path d="m-320-1056h64z"/><path d="m-256-1312h-64z"/><path d="m-256-1088v-192-32h-64v224z"/><path d="m-320-1056h64v-32h-64z"/><path d="m-1056-1824v32z"/><path d="m-800-512h-32z"/><path d="m-832-512h-224z"/><path d="m-392.3334-512h-183.6666z"/><path d="m-624-512h16 32z"/><path d="m-752-512h128-176z"/><path d="m-1056-1056v-32-192h-64v32 192z"/><path d="m-1120-1024h64v-32h-64z"/><path d="m-320-640h-64z"/><path d="m-832-1696h-224z"/><path d="m-608-1696h-224z"/><path d="m-384-1696h-80-144z"/><path d="m-1056-1792v80z"/><path d="m-320-1712h-64z"/><path d="m-1056-864v224-160z"/><path d="m-1056-1088v32 32 160-160z"/><path d="m-1056-1312v32 192-160z"/><path d="m-1056-1568v224-128z"/><path d="m-1120-1280v32z"/><path d="m-832-624h-80-144z"/><path d="m-608-624h-80-144z"/><path d="m-384-624h-80-144z"/><path d="m-1120-1024h64z"/><path d="m-464-1696h-144z"/><path d="m-832-1712h-224 144z"/><path d="m-608-1712h-224 144z"/><path d="m-384-1712h-224 144z"/><path d="m-1056-1280h-64z"/><path d="m-1056-1312v-32 64z"/><path d="m-1056-1696v128z"/><path d="m-1120-1280-128-128z"/><path d="m-1248-896 128-128z"/><path d="m-1056-1024v160z"/><path d="m-1056-512v-112z"/><path d="m-688-640h-144-80z"/><path d="m-464-640h-144-80z"/><path d="m-384-624h64-144z"/><path d="m-1056-624h144z"/><path d="m-624-512v32z"/><path d="m-752-512v32z"/><path d="m-752-480v-32 48z"/><path d="m-865-268 33 124z"/><path d="m-865-268 33 124-80 16v-128z"/><path d="m-1248-1408h-96z"/><path d="m-1344-1408h-224 27.0222 36.9778 128z"/><path d="m-1888-1024v-128 192z"/><path d="m-1568-1120v64 32 128-27.0223-36.9777-123.0222z"/><path d="m-1568-1344v-64 128z"/><path d="m-1344-896h-224z"/><path d="m-1248-896h-64-32z"/><path d="m-1568-1056v-64-160l-128 64v128l64 32z"/><path d="m-1568-1024v-32h-64z"/><path d="m-1824-1216-64 64v128h128l64-64v-128z"/><path d="m-1760-800v-160-64h-128v64 160z"/><path d="m-1888-736h128v-64h-128z"/><path d="m-1696-1216h-128z"/><path d="m-1568-1280-128 64z"/><path d="m-1760-960v160 64-192z"/><path d="m-1760-1024 64-64z"/><path d="m-320-512h-72.3334z"/><path d="m-72-1248h8v128h-8z"/><path d="m-64-1248v128z"/><path d="m-456-1688v-8h128v8z"/><path d="m-456-1696h128z"/><path d="m-1048-1688v-8h128v8z"/><path d="m-1048-1696h128z"/><path d="m-1304-1088h-8v-128h8z"/><path d="m-1312-1088v-128z"/><path d="m-920-648v8h-128v-8z"/><path d="m-920-640h-128z"/><path d="m-328-648v8h-128v-8z"/><path d="m-328-640h-128z"/><path d="m-464-2080v-128z"/><path d="m-416-2208h-48z"/><path d="m-416-2080h-48v-128h48z"/><path d="m-960-128h48z"/><path d="m-912-256v128z"/><path d="m-912-128h-48v-128h48z"/><path d="m-1728 192h-138.6666-85.3334z"/><path d="m-544-2192-73 38z"/><path d="m912-2016v-128z"/><path d="m-832-144 73-38z"/><path d="m912-2016h-64z"/><path d="m-464-2208-80 16z"/><path d="m-912-128 80-16z"/><path d="m-752-1824h-48-32z"/><path d="m-624-1824h-128z"/><path d="m-608-1824h32-48z"/><path d="m-320-1824h-32z"/><path d="m-368-2208h-48-48z"/><path d="m-464-2080h48z"/><path d="m-416-2080v-128z"/><path d="m-368-2080h-48v-128h48z"/><path d="m-747-1954-5 82z"/><path d="m-511-2068 47-12z"/><path d="m-721-2032-26 78z"/><path d="m-553-2044 42-24z"/><path d="m-677-2100-44 68z"/><path d="m-553-2044-34 34z"/><path d="m-617-2154-60 54z"/><path d="m-611-1968 24-42z"/><path d="m-623-1921 12-47z"/><path d="m-624-1872 1-49z"/><path d="m-752-1872v16z"/><path d="m-752-1856v-16 48z"/><path d="m-320-1792v80-112z"/><path d="m-759-182 60-54z"/><path d="m-1056-1824v32z"/><path d="m-832-1824h-224v32h224z"/><path d="m-608-1824h-16-128-80v32h224z"/><path d="m-384-1824h-192-32v32h224z"/><path d="m-320-1792v-32h-32-32v32z"/><path d="m-832-512h-224z"/><path d="m-392.3334-512h-215.6666-16 48z"/><path d="m-320-640h-64z"/><path d="m-832-640h-224 144z"/><path d="m-608-640h-224 144z"/><path d="m-384-640h-224 144z"/><path d="m-832-1696h-224z"/><path d="m-608-1696h-224 144z"/><path d="m-384-1696h-224 144z"/><path d="m-320-1696h-64z"/><path d="m-832-1712h-224z"/><path d="m-608-1712h-224z"/><path d="m-384-1712h-224z"/><path d="m-832-1792h-224v80h224z"/><path d="m-608-1792h-224v80h224z"/><path d="m-384-1792h-224v80h224z"/><path d="m-320-1712v-80h-64v80z"/><path d="m-1056-624v112z"/><path d="m-320-624h-64z"/><path d="m-832-624h-224v112h224z"/><path d="m-608-624h-224v112h32 176 16z"/><path d="m-384-624h-224v112h215.6666l8.3334-7.5z"/><path d="m-320-577.1001v-46.8999h-64v104.5z"/><path d="m-624-464v-16z"/><path d="m-752-480v16z"/><path d="m-624-480v-32h-128v32z"/><path d="m-629-382 5-82z"/><path d="m-655-304 26-78z"/><path d="m-753-415-12 47z"/><path d="m-752-464-1 49z"/><path d="m-765-368-24 42z"/><path d="m-655-304-44 68z"/><path d="m-789-326-34 34z"/><path d="m-823-292-42 24z"/><path d="m-865-268-47 12z"/><path d="m-912-256h-48z"/><path d="m-960-256v128z"/><path d="m-960-128h-48v-128h48z"/><path d="m-320-512v-65.1001l-64 57.6001-8.3334 7.5z"/><path d="m-2288-320h64z"/><path d="m-2288-320v128z"/><path d="m320-2520h256z"/><path d="m320-2528h128z"/><path d="m-1696 184h-256z"/><path d="m-1696 192h-128z"/><path d="m-320-2208h-48-96z"/><path d="m-368-2080v-128z"/><path d="m-368-2080h48z"/><path d="m-320-2080h-48v-128h48z"/><path d="m-368-2080h-96 48z"/><path d="m-1056-128h48z"/><path d="m-912-256 47-12z"/><path d="m-912-256h-48-48z"/><path d="m-1008-256v128z"/><path d="m-1008-128h-48v-128h48z"/><path d="m192-1376v64 87.6521 72.3479-160z"/><path d="m128-1024-16.8918-6.61-6.1082 15.61z"/><path d="m96-992-15.3919-39.335-16.6081 39.335 3.5185 8.3333 37.4815 14.6667z"/><path d="m128-960-39.3349 15.392 39.3349 16.608 8.3333-3.5186 14.6667-37.4814z"/><path d="m160-992 15.3919 39.335 16.6081-39.335-3.5186-8.3335-37.4814-14.6665z"/><path d="m128-1056-39.3347 16.608 22.4429 8.782 16.8918 6.61 23 9 37.4814 14.6665-15.4814-36.6665z"/><path d="m151-969-14.6667 37.4814 36.6667-15.4814 2.3919-5.665-15.3919-39.335z"/><path d="m105-969-37.4815-14.6667 15.4815 36.6667 5.6651 2.392 39.3349-15.392z"/><path d="m88.6653-1039.392-5.6653 2.392-2.3919 5.665 15.3919 39.335 9-23 6.1082-15.61z"/><path d="m88.6651-1423.3919-5.6651 2.3919-2.3919 5.6651 15.3919 39.3349 9-23 6.1082-15.6098z"/><path d="m105-1353-37.4815-14.6666 15.4815 36.6666 5.665 2.3919 39.335-15.3919z"/><path d="m151-1353-14.6667 37.4815 36.6667-15.4815 2.3919-5.6651-15.3919-39.3349z"/><path d="m128-1440-39.3349 16.6081 22.4431 8.7821 16.8918 6.6098 23 9 37.4815 14.6667-15.4815-36.6667z"/><path d="m160-1376 15.3919 39.3349 16.6081-39.3349-3.5185-8.3333-37.4815-14.6667z"/><path d="m128-1344-39.335 15.3919 39.335 16.6081 8.3333-3.5185 14.6667-37.4815z"/><path d="m96-1376-15.3919-39.3349-16.6081 39.3349 3.5185 8.3334 37.4815 14.6666z"/><path d="m128-1408-16.8918-6.6098-6.1082 15.6098z"/><path d="m128-1408 23 9z"/><path d="m105-1015 23-9z"/><path d="m151-1399 9 23z"/><path d="m105-1399 23-9z"/><path d="m160-1376-9 23z"/><path d="m96-1376 9-23z"/><path d="m151-1353-23 9z"/><path d="m105-1353-9-23z"/><path d="m128-1344-23-9z"/><path d="m128-1024 23 9z"/><path d="m96-992 9-23z"/><path d="m151-1015 9 23z"/><path d="m105-969-9-23z"/><path d="m160-992-9 23z"/><path d="m128-960-23-9z"/><path d="m151-969-23 9z"/><path d="m-272-2080h-48v-128h48z"/><path d="m-464-2080h96 48 48z"/><path d="m-320-2080v-128z"/><path d="m-464-2080-47 12z"/><path d="m-912-128h-96 48z"/><path d="m-912-256h-96-48z"/><path d="m-1056-256v128z"/><path d="m-1056-128h-48v-128h48z"/><path d="m-1568-1344v64 160-187.0222z"/><path d="m-1464.6649-1296.6082 5.6649-2.3918 2.392-5.6652-15.392-39.3348-9 23-6.108 15.6097z"/><path d="m-1443.5186-1352.3335-15.4814-36.6665-5.6652-2.392-39.3348 15.392z"/><path d="m-1527-1367 14.6666-37.4814-36.6666 15.4814-2.392 5.6651 15.392 39.3349z"/><path d="m-1504-1280 39.3351-16.6082-62.3351-24.3918-37.4816-14.6669 15.4816 36.6669z"/><path d="m-1536-1344-15.392-39.3349-16.608 39.3349 3.5184 8.3331 37.4816 14.6669z"/><path d="m-1504-1376 39.3348-15.392-39.3348-16.608-8.3334 3.5186-14.6666 37.4814z"/><path d="m-1456.608-1304.6652 16.608-39.3348-3.5186-8.3335-37.4814-14.6665z"/><path d="m-1504-1312 16.892 6.6097 6.108-15.6097z"/><path d="m-1504-928 16.8918 6.6097 6.1082-15.6097z"/><path d="m-1472-960 15.392 39.3348 16.608-39.3348-3.5186-8.3335-37.4814-14.6665z"/><path d="m-1464.6652-1007.392-39.3348-16.608-8.3334 3.5186-14.6666 37.4814z"/><path d="m-1536-960-15.3918-39.3351-16.6082 39.3351 3.5184 8.3333 37.4816 14.6667z"/><path d="m-1504-896 39.3351-16.6082-22.4433-8.7821-77.3734-30.2764 15.4816 36.6667z"/><path d="m-1527-983 14.6666-37.4814-36.6666 15.4814-2.3918 5.6649 15.3918 39.3351z"/><path d="m-1481-983 37.4814 14.6665-15.4814-36.6665-5.6652-2.392-39.3348 15.392z"/><path d="m-1464.6649-912.6082 5.6649-2.3918 2.392-5.6652-15.392-39.3348-15.1082 38.6097z"/><path d="m-1481-1321-23 9z"/><path d="m-1504-1312-23-9z"/><path d="m-1472-1344-9 23z"/><path d="m-1527-1321-9-23z"/><path d="m-1481-1367 9 23z"/><path d="m-1536-1344 9-23z"/><path d="m-1504-1376 23 9z"/><path d="m-1527-1367 23-9z"/><path d="m-1504-928-23-9z"/><path d="m-1481-937-23 9z"/><path d="m-1527-937-9-23z"/><path d="m-1472-960-9 23z"/><path d="m-1536-960 9-23z"/><path d="m-1481-983 9 23z"/><path d="m-1527-983 23-9z"/><path d="m-1504-992 23 9z"/><path d="m0-1760 27.2 27.2z"/><path d="m64-1824-19.1849 8.1003 19.1849 7.8997 34 14 18.9367 7.7974-7.9367-18.7974z"/><path d="m98-1726-7.7975 18.9367 18.7975-7.9367 10.8997-25.8151-7.8997-19.1849z"/><path d="m36.8-1723.2 15.8668 15.8667 11.3332-4.6667z"/><path d="m30-1794 7.7975-18.9367-18.7975 7.9367-10.8997 25.815 7.8997 19.185z"/><path d="m44.8151-1815.8997-7.0176 2.963-7.7975 18.9367 34-14z"/><path d="m16-1760-7.8997-19.185-8.1003 19.185 27.2 27.2z"/><path d="m64-1712-11.3332 4.6667 11.3332 11.3333 26.2025-11.0633 7.7975-18.9367z"/><path d="m112-1760 7.8997 19.1849 8.1003-19.1849-11.0633-26.2026-18.9367-7.7974z"/><path d="m64-2208-19.1849 8.1003 19.1849 7.8997 34 14 18.9367 7.7975-7.9367-18.7975z"/><path d="m98-2110-7.7975 18.9367 18.7975-7.9367 10.8997-25.815-7.8997-19.185z"/><path d="m30-2110-18.9367-7.7975 7.9367 18.7975 25.815 10.8997 19.185-7.8997z"/><path d="m30-2178 7.7975-18.9367-18.7975 7.9367-10.8997 25.815 7.8997 19.185z"/><path d="m44.8151-2199.8997-7.0176 2.963-7.7975 18.9367 34-14z"/><path d="m16-2144-7.8997-19.185-8.1003 19.185 11.0633 26.2025 18.9367 7.7975z"/><path d="m64-2096-19.185 7.8997 19.185 8.1003 26.2025-11.0633 7.7975-18.9367z"/><path d="m112-2144 7.8997 19.185 8.1003-19.185-11.0633-26.2025-18.9367-7.7975z"/><path d="m816-1888 7.8997 19.1849 8.1003-19.1849-11.0633-26.2025-18.9367-7.7975z"/><path d="m768-1840-19.185 7.8997 19.185 8.1003 26.2025-11.0633 7.7975-18.9367z"/><path d="m720-1888-7.8997-19.185-8.1003 19.185 11.0633 26.2025 18.9367 7.7975z"/><path d="m748.8151-1943.8997-7.0177 2.963-7.7974 18.9367 34-14z"/><path d="m734-1922 7.7974-18.9367-18.7974 7.9367-10.8997 25.815 7.8997 19.185z"/><path d="m734-1854-18.9367-7.7975 7.9367 18.7975 25.815 10.8997 19.185-7.8997z"/><path d="m794.2025-1835.0633 18.7975-7.9367 10.8997-25.8151-7.8997-19.1849z"/><path d="m768-1952-19.1849 8.1003 19.1849 7.8997 34 14 18.9367 7.7975-7.9367-18.7975z"/><path d="m734-1922 34-14z"/><path d="m64-1808 34 14z"/><path d="m64-2192-34 14z"/><path d="m98-2178-34-14z"/><path d="m30-2178-14 34z"/><path d="m112-2144-14-34z"/><path d="m16-2144 14 34z"/><path d="m98-2110 14-34z"/><path d="m30-2110 34 14z"/><path d="m64-2096 34-14z"/><path d="m30-1794 34-14z"/><path d="m98-1794 14 34z"/><path d="m16-1760 14-34z"/><path d="m112-1760-14 34z"/><path d="m98-1726-34 14z"/><path d="m64-1712-27.2-11.2z"/><path d="m768-1936 34 14z"/><path d="m720-1888 14-34z"/><path d="m802-1922 14 34z"/><path d="m734-1854-14-34z"/><path d="m816-1888-14 34z"/><path d="m768-1840-34-14z"/><path d="m802-1854-34 14z"/><path d="m-272-2080h48z"/><path d="m-224-2208h-48z"/><path d="m-272-2080v-128z"/><path d="m-224-2080h-48v-128h48z"/><path d="m-1152-128h48z"/><path d="m-2178-414-14-34z"/><path d="m-912-256h-144-48z"/><path d="m-1104-256v128z"/><path d="m-1104-128h-48v-128h48z"/><path d="m-1495.8997-595.1851-8.1003 19.1851 11.0632 26.2025 18.9368 7.7975z"/><path d="m-1428.6666-628.6666-11.3334-11.3334-26.2025 11.0632-7.7975 18.9368z"/><path d="m-1392-576 7.8997 19.1849 8.1003-19.1849-27.2-27.2z"/><path d="m-1420.8151-520.1003 7.0177-2.9631 7.7974-18.9366-34 14z"/><path d="m-1413.7974-523.0634 18.7974-7.9366 10.8997-25.8151-7.8997-19.1849z"/><path d="m-1412.7999-612.7999-15.8667-15.8667-11.3334 4.6666z"/><path d="m-1466.2025-628.9368-18.7975 7.9368-10.8997 25.8149 7.8997 19.1851z"/><path d="m-1440-512 19.1849-8.1003-19.1849-7.8997-34-14-18.9368-7.7975 7.9368 18.7975z"/><path d="m-1495.8997-211.1851-8.1003 19.1851 11.0634 26.2026 18.9366 7.7974z"/><path d="m-1440-240 19.1849-7.8997-19.1849-8.1003-26.2025 11.0632-7.7975 18.9368z"/><path d="m-1384.1003-172.8149 8.1003-19.1851-11.0632-26.2024-18.9368-7.7976z"/><path d="m-1420.8151-136.1003 7.0176-2.9629 7.7975-18.9368-34 14z"/><path d="m-1406-158-7.7975 18.9368 18.7975-7.9368 10.8997-25.8149-7.8997-19.1851z"/><path d="m-1387.0632-218.2024-7.9368-18.7976-25.8151-10.8997-19.1849 7.8997z"/><path d="m-1474-226 7.7975-18.9368-18.7975 7.9368-10.8997 25.8149 7.8997 19.1851z"/><path d="m-1440-128 19.1849-8.1003-19.1849-7.8997-52.9366-21.7974 7.9366 18.7974z"/><path d="m-2144-384 19.1848-8.1002-19.1848-7.8998-34-14 7.7979 18.9369z"/><path d="m-2178-482 7.7974-18.9366-18.7974 7.9366-10.8997 25.8148 7.8997 19.1852z"/><path d="m-2110-482 18.9368 7.7976-7.9368-18.7976-25.8152-10.8997-19.1848 7.8997z"/><path d="m-2117.7974-395.0634 18.7974-7.9366 10.8997-25.8149-7.8997-19.1851z"/><path d="m-2124.8152-392.1002 7.0178-2.9632 7.7974-18.9366-34 14z"/><path d="m-2096-448 7.8997 19.1851 8.1003-19.1851-11.0632-26.2024-18.9368-7.7976z"/><path d="m-2124.8152-503.8997-19.1848-8.1003-26.2026 11.0634-7.7974 18.9366z"/><path d="m-1376-576-27.2-27.2z"/><path d="m-2110-414-34 14z"/><path d="m-2144-400-34-14z"/><path d="m-2096-448-14 34z"/><path d="m-2192-448 14-34z"/><path d="m-2110-482 14 34z"/><path d="m-2178-482 34-14z"/><path d="m-2144-496 34 14z"/><path d="m-1440-528-34-14z"/><path d="m-1406-542-34 14z"/><path d="m-1474-542-14-34z"/><path d="m-1392-576-14 34z"/><path d="m-1488-576 14-34z"/><path d="m-1474-610 34-14z"/><path d="m-1440-624 27.2001 11.2001z"/><path d="m-1440-144 34-14z"/><path d="m-1474-158 34 14z"/><path d="m-1406-158 14-34z"/><path d="m-1488-192 14 34z"/><path d="m-1392-192-14-34z"/><path d="m-1474-226-14 34z"/><path d="m-1406-226-34-14z"/><path d="m-1440-240-34 14z"/><path d="m-2178-414-18.9368-7.7974 7.9368 18.7974 18.7979 7.9369z"/><path d="m-2192-448-7.8997-19.1852-8.1003 19.1852 11.0632 26.2026 18.9368 7.7974z"/></g><g id="b"><path d="m-2208-160v32z"/><path d="m832-2176v-32z"/><path d="m832-2224v-176z"/><path d="m832-2176 16 32z"/><path d="m128-2224h-112z"/><path d="m768-2224h64z"/><path d="m64-2400v128z"/><path d="m64-2400 64-128z"/><path d="m16-2224 48-48z"/><path d="m96-928h-160-64z"/><path d="m192-2144v32z"/><path d="m480-1824h-208-16 160z"/><path d="m208-2112v176 48-48z"/><path d="m704-2112v192 32-91.0222-4.9778z"/><path d="m768-2224-64 64z"/><path d="m704-2144 64-64v-16l-64 64z"/><path d="m832-2224h-64v16h64z"/><path d="m832-2208h-64z"/><path d="m704-1888 19 45-7.9367-18.7975z"/><path d="m688-2144h16v-16z"/><path d="m704-2112v-32h-16v32 192h16z"/><path d="m688-1920v32h16v-32z"/><path d="m704-1888h-16l-48 48v16z"/><path d="m480-1840h-224l16 16h208z"/><path d="m640-1824v-16h-160v16z"/><path d="m688-2144v32z"/><path d="m640-1840h-160z"/><path d="m256-1824v-16l-48-48v16z"/><path d="m256-1840v16h16z"/><path d="m208-2112v-32l-16-16v16 32 176h16z"/><path d="m192-1936v48h16v-48z"/><path d="m208-1888h-16l16 16z"/><path d="m208-2144-16-16z"/><path d="m128-2208h16l-16-16h-112l-16 16z"/><path d="m128-2208 46.7692 46.7692 17.2308 17.2308z"/><path d="m128-2208 64 64v-16l-48-48z"/><path d="m192-1152v76.5216 46.5006 36.9778 64-64-64-32z"/><path d="m128-1440h64-96z"/><path d="m-64-1440v46.9333l40.421 17.0667h87.579l19-45 8.0223-19z"/><path d="m128-1440 45 19 19 8.0222v-27.0222z"/><path d="m192-1412.9778-19-8.0222 19 45z"/><path d="m128-1440h-36.9777l-8.0223 19z"/><path d="m83-1331-106.579-45-40.421-17.0667v68.5449l15.1082 5.9119 16.8918 6.6099h160z"/><path d="m-23.579-1376 106.579 45-19-45z"/><path d="m192-1376-19 45-8.0222 19h27.0222z"/><path d="m164.9778-1312 8.0222-19-45 19z"/><path d="m-32-1312-16.8918-6.6099-6.1082 15.6099z"/><path d="m-55-1303 6.1082-15.6099-15.1082-5.9119v44.5218z"/><path d="m-32-1056 16.8918 6.6099 6.1082-15.6099z"/><path d="m83-947-83-35.0444-64-27.0223v17.0667 64h160 32z"/><path d="m192-1075.4784v-76.5216-72.3479l-192-75.1305v19.4784 169.9554l81.8671 34.5662z"/><path d="m128-1056 45 19 19 8.0222v-46.5006h-110.1329z"/><path d="m0-1110.0446v22.0446 44.5217 61.4339l83 35.0444-19-45-46.7693-110.7693z"/><path d="m192-1028.9778-19-8.0222 19 45z"/><path d="m83-1037 13.617-32.2507-79.3863-33.5186 46.7693 110.7693z"/><path d="m164.9778-928 8.0222-19-45 19z"/><path d="m128-1056-31.383-13.2507-13.617 32.2507z"/><path d="m192-992-19 45-8.0222 19h27.0222z"/><path d="m-9-1303 201 78.6521v-87.6521h-27.0222-36.9778-160z"/><path d="m0-1299.4784-9-3.5216 9 23z"/><path d="m-64-1009.0667 64 27.0223v-61.4339l-32-12.5217-23-9-9-3.5217z"/><path d="m0-1088-9 23-6.1082 15.6099 15.1082 5.9118z"/><path d="m-64-1068.5217 9 3.5217-9-23z"/><path d="m0-1088v-22.0446-169.9554z"/><path d="m83-1037 45-19z"/><path d="m128-1440 45 19z"/><path d="m83-1421 5.6651-2.3919 39.3349-16.6081z"/><path d="m173-1421 15.4815 36.6667 3.5185 8.3333z"/><path d="m64-1376 16.6081-39.3349 2.3919-5.6651z"/><path d="m192-1376-16.6081 39.3349-2.3919 5.6651z"/><path d="m83-1331-15.4815-36.6666-3.5185-8.3334z"/><path d="m173-1331-36.6667 15.4815-8.3333 3.5185z"/><path d="m128-1312-39.335-16.6081-5.665-2.3919z"/><path d="m128-1056 45 19z"/><path d="m64-992 16.6081-39.335 2.3919-5.665z"/><path d="m173-1037 15.4814 36.6665 3.5186 8.3335z"/><path d="m83-947-15.4815-36.6667-3.5185-8.3333z"/><path d="m192-992-16.6081 39.335-2.3919 5.665z"/><path d="m128-928-39.3349-16.608-5.6651-2.392z"/><path d="m173-947-45 19z"/><path d="m-9-1303-23-9z"/><path d="m-32-1056 23-9z"/><path d="m0-1280-9-23z"/><path d="m-9-1065 9-23z"/><path d="m-55-1303-9 23z"/><path d="m-64-1088 9 23z"/><path d="m-32-1312-23 9z"/><path d="m-55-1065 23 9z"/><path d="m-64-1280v-44.5218-68.5449-46.9333h-64v224h64z"/><path d="m-128-1216v224h64v-17.0667-59.455-19.4783-128z"/><path d="m-128-992v64h64v-64z"/><path d="m-176-2208h-48-48z"/><path d="m-224-2080v-128z"/><path d="m-176-2080h-48v-128h48z"/><path d="m-752-1856h64z"/><path d="m-256-1312v32z"/><path d="m-128-1440-128 128v32 64h128z"/><path d="m-256-1216v160l64 64h64v-224z"/><path d="m-192-992 64 64v-64z"/><path d="m-128-1440-128 128z"/><path d="m-320-864v64 160z"/><path d="m-320-1088v64 160-128-64z"/><path d="m-320-1312v64 160z"/><path d="m-320-1536v64 160z"/><path d="m-2144-112h-64z"/><path d="m-1200-128h48 48z"/><path d="m-832-640h-224z"/><path d="m-608-640h-80-144z"/><path d="m-384-640h-80-144z"/><path d="m-320-1696h-64z"/><path d="m-1056-1344v32z"/><path d="m-1056-1696v128z"/><path d="m-832-1696h-224v128 96h224z"/><path d="m-1056-1472v128 32 64h224v-224z"/><path d="m-1056-1248v160 64h224v-224z"/><path d="m-1056-1024v160 64h224v-224z"/><path d="m-1056-800v160h224v-160z"/><path d="m-688-1696h-144v224h144z"/><path d="m-832-1472v224h144v-224z"/><path d="m-832-1248v224h144v-224z"/><path d="m-832-1024v224h144v-224z"/><path d="m-832-800v160h144v-160z"/><path d="m-464-1696h-144-80v224h224z"/><path d="m-688-1472v224h224v-224z"/><path d="m-688-1248v224h224v-224z"/><path d="m-688-1024v224h224v-224z"/><path d="m-688-800v160h80 144v-160z"/><path d="m-320-1536v-160h-64-80v224h144z"/><path d="m-464-1472v224h144v-64-160z"/><path d="m-464-1248v224h144v-64-160z"/><path d="m-464-1024v224h144v-64-160z"/><path d="m-464-800v160h80 64v-160z"/><path d="m-1120-1248v64 160-32z"/><path d="m-1120-1248v-32l-128-128v224h128z"/><path d="m-1248-1184v224h64l64-64v-160z"/><path d="m-1248-960v64l64-64z"/><path d="m-1184-960-64 64 128-128z"/><path d="m-1120-1280-128-128z"/><path d="m-1152-128h-48v-128h48z"/><path d="m-976-256h-176-48 176z"/><path d="m-1152-256v128z"/><path d="m-976-256h64-192-48z"/><path d="m-1312-1408h64-96z"/><path d="m-1568-1408v64z"/><path d="m-1344-896h-123.0222-36.9778-64z"/><path d="m-1248-1408h-64v140.5216 19.4784 64h64z"/><path d="m-1312-1184v128 32 64h64v-224z"/><path d="m-1312-960v64h64v-64z"/><path d="m-1568-923.0223 19 8.0223-19-45z"/><path d="m-1344-896h32v-64h-128l-27.0222 64z"/><path d="m-1504-896h36.9778l8.0222-19z"/><path d="m-1568-923.0223v27.0223h64z"/><path d="m-1324.5217-1024h-19.4783-32v54.0444 9.9556h64v-64z"/><path d="m-1376-960v-9.9556l-83-35.0444 19 45z"/><path d="m-1463.6521-1024h-40.3479l45 19 83 35.0444v-54.0444z"/><path d="m-1504-1408h-36.9778l-8.0222 19z"/><path d="m-1455.6666-1044.4073 7.9027-20.1961 34.1987-87.3966 30.1622-77.0812-60.2448-25.4367-72.4095 171.4957-22.1683 52.5043h49.663z"/><path d="m-1538.2256-1030.5179-10.7744 25.5179 45-19 15.4374-6.5179z"/><path d="m-1383.403-1229.0812 7.403-18.9188 9-23 6.1083-15.61-15.1083-5.9122-50.6298-19.8114-22.9489-8.98-9.4213 22.3136-6.2732 14.8574 9.6066 24.5501z"/><path d="m-1465.2732-1284.1426 6.2732-14.8574-10.373 4.3798z"/><path d="m-1568-1307.0222 19 8.0222-19-45z"/><path d="m-1376-1056v-192l-7.403 18.9188-30.1622 77.0812z"/><path d="m-1312-1056-9 23-3.5217 9h12.5217z"/><path d="m-1312-1408h-32-32v54.0445 61.4333l15.1083 5.9122 16.8917 6.61 23 9 9 3.5216z"/><path d="m-1312-1267.4784-9-3.5216 9 23z"/><path d="m-1344-1280-16.8917-6.61-6.1083 15.61z"/><path d="m-1344-1024h19.4783l3.5217-9z"/><path d="m-1376-1024h32l-23-9-80.7639-31.6034-15.8882 40.6034z"/><path d="m-1413.5652-1152-34.1987 87.3966 80.7639 31.6034z"/><path d="m-1455.6666-1044.4073-32.896 13.8894-15.4374 6.5179h40.3479z"/><path d="m-1469.373-1294.6202-34.627 14.6202 48.3334 20.4075z"/><path d="m-1443.6478-1254.5179-12.0188-5.0746-48.3334-20.4075-64-27.0222v187.0222 36.9778h51.9427z"/><path d="m-1568-1083.0222v123.0222l19-45 10.7744-25.5179 22.1683-52.5043z"/><path d="m-1549-1389 8.0222-19h-27.0222v64z"/><path d="m-1426.6298-1312.3336-13.3702-31.6664-9.5787 22.6864z"/><path d="m-1459-1389 19 45 13.3702 31.6664 50.6298 19.8114v-61.4333z"/><path d="m-1459-1389 83 35.0445v-54.0445h-128z"/><path d="m-1376-1248v192z"/><path d="m-1344-1280-23 9z"/><path d="m-1367-1033 23 9z"/><path d="m-1367-1271-9 23z"/><path d="m-1376-1056 9 23z"/><path d="m-1312-1248-9-23z"/><path d="m-1321-1033 9-23z"/><path d="m-1321-1271-23-9z"/><path d="m-1344-1024 23-9z"/><path d="m-1504-896-45-19z"/><path d="m-1459-1299-5.6649 2.3918-39.3351 16.6082z"/><path d="m-1504-1280-45-19z"/><path d="m-1449.5787-1321.3136 9.5787-22.6864-16.608 39.3348-2.392 5.6652z"/><path d="m-1549-1299-15.4816-36.6669-3.5184-8.3331z"/><path d="m-1459-1389 19 45z"/><path d="m-1568-1344 19-45z"/><path d="m-1504-1408 39.3348 16.608 5.6652 2.392z"/><path d="m-1549-1389 36.6666-15.4814 8.3334-3.5186z"/><path d="m-1549-915-19-45z"/><path d="m-1459-915-5.6649 2.3918-39.3351 16.6082z"/><path d="m-1568-960 16.6082-39.3351 2.3918-5.6649z"/><path d="m-1440-960-16.608 39.3348-2.392 5.6652z"/><path d="m-1549-1005 36.6666-15.4814 8.3334-3.5186z"/><path d="m-1459-1005 19 45z"/><path d="m-1504-1024 39.3348 16.608 5.6652 2.392z"/><path d="m-1568-416v192 32-150.0444z"/><path d="m-1520-128-48-48z"/><path d="m-1504-128-46.7693-46.7693-17.2307-17.2307z"/><path d="m-1504-128-64-64v16l48 48z"/><path d="m-2080-448v91.0223z"/><path d="m-1632-512h-160z"/><path d="m-2064-448h-16v91.0223l16 6.7557z"/><path d="m-2016-496v-16l-64 64h16z"/><path d="m-1632-512v16l48 48h16z"/><path d="m-1568-416v-32h-16v32 192h16z"/><path d="m-1584-224v32l16 16v-16-32z"/><path d="m-1792-512h-224v16h224z"/><path d="m-1632-496v-16h-160v16z"/><path d="m-1568-448-64-64z"/><path d="m-1584-448v32z"/><path d="m-1568-176-16-16z"/><path d="m-2016-512-64 64z"/><path d="m-1792-496h-224 64z"/><path d="m-2080-448-19-45 7.9368 18.7976z"/><path d="m-2064-192h-16l-14 14 4.75 11.25z"/><path d="m-2080-356.9777v164.9777h16v-158.222z"/><path d="m-2064-350.222v158.222z"/><path d="m-2094-178 14-14z"/><path d="m-1392-112 16-16h-128-16l16 16z"/><path d="m-2094-178-50 50v16l54.75-54.75z"/><path d="m-2144-128h-64v16h64z"/><path d="m-2089.25-166.75-54.75 54.75z"/><path d="m-2208-128h64z"/><path d="m-1440-64v41.6001z"/><path d="m-1392-112-48 48z"/><path d="m-1440-22.3999v86.3999z"/><path d="m-1440 64-64 128z"/><path d="m-2208-160-16-32z"/><path d="m-2208-112v176z"/><path d="m-2208 64v-176z"/><path d="m352-2528h-224z"/><path d="m576-2528h-224z"/><path d="m768-2528h-192z"/><path d="m-1920 192h-224z"/><path d="m-1696 192h-224z"/><path d="m-1504 192h-192z"/><path d="m832-2224v-176z"/><path d="m-2208-352v-59.0221-36.9779-128z"/><path d="m848-2144v128z"/><path d="m848-2144h64z"/><path d="m832-1984v59.0222 36.9778 64 64z"/><path d="m832-1984 16-32v-128h-16z"/><path d="m832-2176v32h16z"/><path d="m-2189-493-19 45z"/><path d="m813-1843 19-45-8.1003 19.1849z"/><path d="m768-1696 64-64v-64h-27.0222l-54.0445 128z"/><path d="m832-1824v-64l-19 45-8.0222 19z"/><path d="m832-1760-64 64z"/><path d="m-128-2080v-128z"/><path d="m512-1632h-128z"/><path d="m0-2052.9778v-54.0444-36.9778-64 224z"/><path d="m750.9333-1696h-110.9333-64z"/><path d="m288-1696h-96-36.9778-54.0444-36.9778z"/><path d="m192-2112v192 32-48z"/><path d="m640-1824h-160z"/><path d="m256-1824-48-48-16-16z"/><path d="m768-1824 45-19-18.7975 7.9367z"/><path d="m704-2144v32z"/><path d="m813-1933-45-19z"/><path d="m704-1984v4.9778l32.6169 13.7715 31.3831 13.2507 45 19 19 8.0222v-59.0222z"/><path d="m704-2144v32 128h128v-160z"/><path d="m832-2176v-32h-64l-64 64h128z"/><path d="m768-2208-64 64z"/><path d="m832-1888v-36.9778l-19-8.0222z"/><path d="m768-1952-31.3831-13.2507-13.6169 32.2507z"/><path d="m704-1979.0222v91.0222l19-45 13.6169-32.2507z"/><path d="m723-1843-19-45v36.9778z"/><path d="m704-1824h64l-45-19-19-8.0222z"/><path d="m832-1888-19-45 7.9367 18.7975z"/><path d="m768-1952-45 19 18.7974-7.9367 7.0177-2.963z"/><path d="m723-1843 45 19-19.185-8.1003z"/><path d="m723-1933-19 45 8.1003-19.185z"/><path d="m704-1851.0222v-36.9778l-64 64h64z"/><path d="m704-1888-64 64z"/><path d="m804.9778-1824 8.0222-19-45 19z"/><path d="m256-1824-64-64v64z"/><path d="m416-1824h-160-64v54.0444 73.9556h96 32 96z"/><path d="m640-1824h-160-64v128h128 32 64z"/><path d="m804.9778-1824h-36.9778-64-64v128h110.9333z"/><path d="m27.0222-2208h36.9778 64-128z"/><path d="m64-2208h-36.9778l-8.0222 19z"/><path d="m33.4222-1920 75.5778-179-45 19-64 27.0222v68.9778 109h14.4222z"/><path d="m0-1875v34.1579l3.648-8.6399 10.7742-25.518z"/><path d="m0-2052.9778 64-27.0222-45-19-19-8.0222z"/><path d="m0-2144v36.9778l19 8.0222z"/><path d="m192-2112v-32h-64l-19 45-75.5778 179h158.5778z"/><path d="m33.4222-1920-19 45-10.7742 25.518 28.9689 12.2314 31.3831 13.2506 45 19 83 35.0444v-54.0444-64-32z"/><path d="m19-2189 8.0222-19h-27.0222v64z"/><path d="m128-2144h64l-17.2308-17.2308-65.7692-27.7692z"/><path d="m128-2208h-64l45 19 65.7692 27.7692z"/><path d="m64-1824-31.3831-13.2506-13.6169 32.2506z"/><path d="m64-1696h36.9778l8.0222-19z"/><path d="m128-1760 27.0222 64h36.9778v-73.9556l-83-35.0444z"/><path d="m109-1715-8.0222 19h54.0444l-27.0222-64z"/><path d="m0-1840.8421v80.8421l19-45 13.6169-32.2506-28.9689-12.2314z"/><path d="m64-2208-45 19 18.7975-7.9367 7.0176-2.963z"/><path d="m64-1824 45 19z"/><path d="m19-2189-19 45 8.1003-19.185z"/><path d="m109-2189-45-19z"/><path d="m0-2144 19 45-7.9367-18.7975z"/><path d="m128-2144-19-45 7.9367 18.7975z"/><path d="m19-2099 45 19-19.185-8.1003z"/><path d="m109-2099 19-45-8.1003 19.185z"/><path d="m64-2080 45-19-18.7975 7.9367z"/><path d="m19-1805 18.7975-7.9367 7.0176-2.963 19.1849-8.1003z"/><path d="m109-1805 7.9367 18.7974 11.0633 26.2026z"/><path d="m0-1760 8.1003-19.185 10.8997-25.815z"/><path d="m128-1760-8.1003 19.1849-10.8997 25.8151z"/><path d="m109-1715-18.7975 7.9367-26.2025 11.0633z"/><path d="m544-1696h-128-96l64 64h128l32-32z"/><path d="m576-1696h-32v32z"/><path d="m576-1696-32 32-32 32z"/><path d="m-176-2080h-96 48z"/><path d="m-176-2080h48z"/><path d="m-128-2080h-48v-128h48z"/><path d="m-176-2080v-128z"/><path d="m-2208-448 19 45z"/><path d="m-912-128h-112-80 48 48z"/><path d="m-912-128h-112z"/><path d="m-1403.0222-128h-36.9778-64 128z"/><path d="m-2189-403 45 19z"/><path d="m-1248-256v128z"/><path d="m-1200-256h-48z"/><path d="m-1200-256v128z"/><path d="m-1200-128h-48v-128h48z"/><path d="m-1888-704h128z"/><path d="m-1376-352v68.9778 54.0444 36.9778 64z"/><path d="m-1440-640h-32z"/><path d="m-2080-640h64 64-174.9333z"/><path d="m-1728-672-32-32h-128l-64 64h160 64z"/><path d="m-1696-640-32-32v32z"/><path d="m-1952-640 64-64z"/><path d="m-1395-147 19-45z"/><path d="m-1376-192-19 45-8.0222 19h27.0222z"/><path d="m-1440-128 45-19z"/><path d="m-1568-448v32z"/><path d="m-1440-512 31.3831 13.2506 13.6169-32.2506z"/><path d="m-1440-640h-32-4.9778l-8.0222 19z"/><path d="m-1504-576-27.0222-64h-36.9778v73.9556l83 35.0444z"/><path d="m-1376-352v-143.1578l-94.5779 224.0001h66.4778l28.1001-11.8645z"/><path d="m-1470.5779-271.1577-14.4221 34.1577 45-19 35.8999-15.1577z"/><path d="m-1485-621 8.0222-19h-54.0444l27.0222 64z"/><path d="m-1395-531-13.6169 32.2506 28.969 12.2313 3.6479-8.6397v-80.8422z"/><path d="m-1379.6479-486.5181-28.969-12.2313-31.3831-13.2506-45-19-83-35.0444v54.0444 64 32 73.9556h127.3521z"/><path d="m-1568-342.0444v150.0444h64l63.3521-150.0444z"/><path d="m-1376-283.0222-28.1001 11.8645-35.8999 15.1577 45 19 19 8.0222z"/><path d="m-1376-192v-36.9778l-19-8.0222z"/><path d="m-1504-192h-64l17.2307 17.2307 65.7693 27.7693z"/><path d="m-1504-128h64l-45-19-65.7693-27.7693z"/><path d="m-1376-192-19-45 7.9368 18.7976z"/><path d="m-1440-512-45-19z"/><path d="m-1395-531-45 19z"/><path d="m-1485-531-19-45z"/><path d="m-1376-576-19 45z"/><path d="m-1504-576 19-45z"/><path d="m-1485-621 45-19z"/><path d="m-1485-147 45 19z"/><path d="m-1395-237-45-19z"/><path d="m-1504-192 19 45z"/><path d="m-1440-256-45 19z"/><path d="m-1485-237-19 45z"/><path d="m-1792-512h-224z"/><path d="m-2016-566.0444v-73.9556h-64v100.9778z"/><path d="m-2016-512v-54.0444l-64 27.0222v27.0222z"/><path d="m-1792-640h-160-64v73.9556 54.0444h224z"/><path d="m-1632-512h64v-54.0444-73.9556h-128-32-64v128z"/><path d="m-1568-448v-64h-64z"/><path d="m-2016-512h-64v27.0221 36.9779z"/><path d="m-2080-539.0222-64 27.0222h64z"/><path d="m-2080-640h-46.9333l-62.0667 147 45-19 64-27.0222z"/><path d="m-2144-384 31.3831 13.2507 13.6169-32.2507z"/><path d="m-2080-356.9777v-91.0223l-32.6169 77.2507z"/><path d="m-2099-493 19 45v-36.9779z"/><path d="m-2080-512h-64l45 19 19 8.0221z"/><path d="m-2144-512-45 19z"/><path d="m-2144-384 45-19z"/><path d="m-2099-493-45-19z"/><path d="m-2099-403 19-45z"/><path d="m-1440-128h36.9778l8.0222-19z"/><path d="m-2080-356.9777v164.9777z"/><path d="m-2080-356.9777-64-27.0223-45-19 91.1907 215.978 3.8093 9.022 14-14z"/><path d="m-2144-128 50-50z"/><path d="m-2189-403-19-8.0221v59.0221 164.978h110.1907z"/><path d="m-2208-187.022v27.022 32h64l50-50-3.8093-9.022z"/><path d="m-2208-448v36.9779l19 8.0221z"/><path d="m-2189-493 62.0667-147h-17.0667l-64 64v128z"/><path d="m-2208-576 64-64z"/><path d="m-2224-192v-128z"/><path d="m-2208-187.022v-164.978l-16 32v128l16 32z"/><path d="m-2224-192h-64z"/><path d="m-2208-576v128 96z"/><path d="m912-2144v128z"/><path d="m352-2528h-224z"/><path d="m576-2528h-224z"/><path d="m768-2528h-192z"/><path d="m832-2400-64-128z"/><path d="m-1504 192h-192z"/><path d="m-1920 192h-224z"/><path d="m-1696 192h-224z"/><path d="m-2208 64 64 128z"/><path d="m912-2016h-64z"/><path d="m832-1760v-64-64-96z"/><path d="m832-2224v-176 224z"/><path d="m832-1984v-160h16v128z"/><path d="m832-2144v-32l16 32z"/><path d="m64-2400v128z"/><path d="m128-2528-64 128z"/><path d="m16-2224 48-48z"/><path d="m768-1696h-17.0667z"/><path d="m832-1888v64h-27.0222z"/><path d="m832-1824v64l-64 64h-17.0667l54.0445-128z"/><path d="m-128-640h64v32l-64 64z"/><path d="m160-1216-128 128h-96v-64-160h64 160z"/><path d="m32-1088-32 32-64 64v-96z"/><path d="m192-1312 42.6667 21.3334-10.6667 10.6666-64 64v-96z"/><path d="m224-1072-32 16h-192l32-32 128-128 64-64z"/><path d="m320-1248v128l-96 48v-208l10.6667-10.6666z"/><path d="m320-1120v-128l64-64h128v128l-64 64z"/><path d="m-64-1312v-64l64 64z"/><path d="m64-1792v-192-32h96 32v80 112 32z"/><path d="m192-1696h-64l-64-64v-32h128z"/><path d="m-128-1824 64 64v160h-64z"/><path d="m-64-1600v224h-64v-224z"/><path d="m-64-1376v64 160h-64v-224z"/><path d="m-64-1152v64 96 64h-64v-224z"/><path d="m-64-928v96 128h-64v-224z"/><path d="m-64-704v64h-64v-64z"/><path d="m-128-2080v-128h64v64 64z"/><path d="m-64-2144 64 64h-64z"/><path d="m160-2016h-96l-64-64-64-64v-64h64 144l16 16z"/><path d="m192-2160v144h-32v-176z"/><path d="m128-2224 16 16h-144l16-16z"/><path d="m384-1536v-96h128v224h-128z"/><path d="m512-1408v96h-128v-96z"/><path d="m512-1632h-128l-64-64h96 128v32z"/><path d="m544-1696h32l-32 32z"/><path d="m208-1888 48 48v16h-48z"/><path d="m416-1696h-96-128v-96-32h16 48 160z"/><path d="m640-1696h-64-32-128v-128h64 160z"/><path d="m750.9333-1696h-110.9333v-128h64 100.9778z"/><path d="m480-1824h-64-160v-16h224z"/><path d="m640-1840v16h-160v-16z"/><path d="m704-1824v-64-32-64h128v96l-27.0222 64z"/><path d="m640-1824v-16l48-48h16z"/><path d="m640-1824 64-64v64z"/><path d="m192-2016v-144l16 16v32 176h-16z"/><path d="m208-1936v48 64h-16v-112z"/><path d="m688-2112v-32h16v160 64h-16z"/><path d="m704-1920v32h-16v-32z"/><path d="m832-1984h-128v-160h128z"/><path d="m704-2144h-16l16-16 64-64h64v48 32z"/><path d="m192-1696h128-192z"/><path d="m64-1984v192 32z"/><path d="m-64-2080h64-128z"/><path d="m16-2224-16 16z"/><path d="m512-1632v224z"/><path d="m384-1536v128 96z"/><path d="m-64-1760v160z"/><path d="m224-1072 96-48-128 64z"/><path d="m-64-928v-64 160z"/><path d="m208-2144v32z"/><path d="m256-1840-48-48z"/><path d="m688-1888-48 48z"/><path d="m688-2112v192 32-32z"/><path d="m704-2160-16 16z"/><path d="m480-1840h-224z"/><path d="m192-2160-32-32-16-16-16-16 16 16z"/><path d="m-448-1824h-224z"/><path d="m-128-2208h-48-96z"/><path d="m-128-2208h-144 32z"/><path d="m-752-1872 5-82z"/><path d="m-688-1856h-16-48z"/><path d="m-256-1024v96 128-192z"/><path d="m-256-1248v96 128-192z"/><path d="m-256-1472v96 128-192z"/><path d="m-128-544h-128z"/><path d="m-256-1824h128v224h-128z"/><path d="m-128-1600v224h-128v-96-96-32z"/><path d="m-128-1376v224h-128v-96-128z"/><path d="m-128-1152v224h-128v-96-128z"/><path d="m-128-928v224h-128v-96-128z"/><path d="m-128-704v64h-128v-64z"/><path d="m-256-640h128v96h-128z"/><path d="m-320-1568v96z"/><path d="m-288-1600-32-32v-160-32h64v224z"/><path d="m-256-1568-32-32h32z"/><path d="m-288-1600 32 32-32-32-32-32z"/><path d="m-320-736 64-64v96 64h-64z"/><path d="m-320-577.1001v-62.8999h64v96h-64z"/><path d="m-1392-112h-112z"/><path d="m-1024-1792h-224 128 64z"/><path d="m-448-1824v32h-224v-32z"/><path d="m-448-1824h128v32h-128z"/><path d="m-1024-128h-128-96 48 96z"/><path d="m-1024-128h112-240z"/><path d="m-1120-512h64-64-128z"/><path d="m-704-512h-128z"/><path d="m-320-1792v160 64h-128v-224z"/><path d="m-320-1568v96 128h-128v-64-160z"/><path d="m-320-1344v96 128h-128v-64-160z"/><path d="m-320-1120v96 96h-128v-32-160z"/><path d="m-448-1792v224h-224v-128-96z"/><path d="m-448-1568v160h-224v-64-96z"/><path d="m-672-928v-32h224v32z"/><path d="m-672-768v-160h224v224h-224z"/><path d="m-448-704v64h-224v-64z"/><path d="m-448-928h128v128 64l-32 32h-96z"/><path d="m-352-704-64 64h-32v-64z"/><path d="m-416-640 64-64 32-32v96z"/><path d="m-672-640h224v96h-224z"/><path d="m-448-640h32 96v62.8999l-36.7778 33.1001h-91.2222z"/><path d="m-960-1696 32-32v160 64h-128v-32-64z"/><path d="m-928-1504v128 96h-128v-160-64z"/><path d="m-928-1280v128 96h-128v-160-64z"/><path d="m-928-1056v128 96h-128v-160-64z"/><path d="m-928-832v128 96h-128v-96-64-64z"/><path d="m-928-608v96h-128v-32-64z"/><path d="m-928-1728v-64h144 80v128 96h-224z"/><path d="m-704-1568v128 64h-224v-128-64z"/><path d="m-1248-1792h224v96h-96-128z"/><path d="m-1024-1792h96v64l-32 32h-64z"/><path d="m-1024-1696h64l-96 96-64 64v-160z"/><path d="m-1248-1696h128v160 64h-128z"/><path d="m-1120-1472v32 192h-128v-224z"/><path d="m-1120-1248v32 192h-128v-224z"/><path d="m-1120-1024v32 192h-128v-224z"/><path d="m-1120-800v32 192h-128v-224z"/><path d="m-1120-576v32 32h-128v-64z"/><path d="m-704-928v192 32h-224v-128-96z"/><path d="m-704-704v192h-128-96v-96-96z"/><path d="m-1056-704v96 64h-64v-32-192z"/><path d="m-1056-544v32h-64v-32z"/><path d="m-704-512v-192-32z"/><path d="m-704-736v-192-32z"/><path d="m-704-1792v96 32z"/><path d="m-672-1472v64 160-128z"/><path d="m-672-1696v128 96-128z"/><path d="m-672-1792v96z"/><path d="m-672-960v32-192z"/><path d="m-672-768v64 64 96z"/><path d="m-672-960v-160h64l160 160z"/><path d="m-448-1184v64 160l-160-160v-64z"/><path d="m-448-1408v64 160h-160v-64z"/><path d="m-448-1408-160 160h-64v-160z"/><path d="m-1056-992v160 64-192z"/><path d="m-1056-1216v160 64-192z"/><path d="m-1056-1440v160 64-192z"/><path d="m-928-1280v-96l160 160v64h-160z"/><path d="m-704-1376v160h-64l-160-160z"/><path d="m-1120-1472v-64 96z"/><path d="m-912-256h-64z"/><path d="m-1024-256h-176-48z"/><path d="m-2080-416v-32h16v97.778l-16-6.7557z"/><path d="m-2126.9333-640h46.9333v192 32h-98.8232l-21.0765-51.1853z"/><path d="m-2080-416v59.0223l-90.2021-38.0852-8.6211-20.9371z"/><path d="m-2080-640h64v144l-48 48h-16z"/><path d="m-1952-640v128 16h-64v-144z"/><path d="m-1584-448-48-48v-16h48z"/><path d="m-1728-496h-64-160v-16h224z"/><path d="m-1632-512v16h-96v-16z"/><path d="m-1584-416v-32-64h16v64 160h-16z"/><path d="m-1568-288v64 48l-16-16v-96z"/><path d="m-1952-512v-128h224v128z"/><path d="m-1728-640h32 128v128h-16-48-96z"/><path d="m-1888-704h128l32 32v32h-224z"/><path d="m-1728-672 32 32h-32z"/><path d="m-1888-928v-96h128v96 128h-128z"/><path d="m-1760-800v96h-128v-96z"/><path d="m-1248-256v128h-128v-96-32z"/><path d="m-1312-960-64-64h64z"/><path d="m-1568-288v-160l192 192v32h-192z"/><path d="m-1376-224v96h-144l-48-48v-48z"/><path d="m-1536-416-32-32v-64-128h64l64 64v32 128z"/><path d="m-1440-320-96-96h96z"/><path d="m-1696-1216v128l-64 64h-128v-128l64-64z"/><path d="m-1472-1184-138.6666 138.6666-85.3334-42.6666v-128l128-64h96z"/><path d="m-1376-1280-10.6666 10.6666-85.3334 85.3334v-96z"/><path d="m-1610.6666-1045.3334 138.6666-138.6666 85.3334-85.3334v149.3334 74.6666z"/><path d="m-1386.6666-1024h-181.3334l-42.6666-21.3334h224z"/><path d="m-1376-1280 64-64v96 128h-74.6666v-149.3334z"/><path d="m-1312-1120v96h-64-10.6666v-21.3334-74.6666z"/><path d="m-1312-1568v-128h64v224h-64z"/><path d="m-1248-1472v224h-64v-96-128z"/><path d="m-1248-1248v224h-64v-96-128z"/><path d="m-1248-1024v224h-64v-160-64z"/><path d="m-1248-800v224h-64v-224z"/><path d="m-1248-576v64l-64-64z"/><path d="m-1312-1728 64-64v96h-64z"/><path d="m-1312-1568v96 128z"/><path d="m-1568-1024-128-64z"/><path d="m-1312-800v224z"/><path d="m-1888-928v128 96z"/><path d="m-1760-1024v96z"/><path d="m-1440-576v32z"/><path d="m-1248-256h-128z"/><path d="m-1584-416v128 96-32z"/><path d="m-2064-448v97.778z"/><path d="m-1728-496h96-160z"/><path d="m-1632-496 48 48z"/><path d="m-2064-448 48-48z"/><path d="m-2170.2021-395.0629-18.7979-7.9371-19-45 8.1003-19.1853z"/><path d="m-2080-356.9777v164.9777h-19.9111l-13.511-32-75.5779-179z"/><path d="m-2064-350.222v158.222h-16v-164.9777z"/><path d="m-2099.9111-192h19.9111 16l-25.25 25.25z"/><path d="m-2064-192-25.25 25.25z"/><path d="m-1376-128-16 16h-112l-16-16z"/><path d="m-1392-112 16-16z"/><path d="m-1504-112-16-16z"/><path d="m-2208-112v-48-32h108.0889l10.6611 25.25-54.75 54.75z"/><path d="m-2208-224v-128-96l19 45 75.5779 179z"/><path d="m-2099.9111-192h-108.0889v-32h94.5779z"/><path d="m-320-577.1001v33.1001h-36.7778z"/><path d="m-1440-64v41.6001z"/><path d="m-1392-112-48 48z"/><path d="m-1440-22.3999v86.3999z"/><path d="m-1504 192 64-128z"/><path d="m-2126.9333-640h-17.0667z"/><path d="m-2208-576 64-64h17.0667l-72.9664 172.8147-8.1003 19.1853z"/><path d="m-2224-192v-128l16-32v128 32 32z"/><path d="m-2224-192h-64z"/><path d="m-2288-192v-128z"/><path d="m912-2016h-16v-128h16z"/><path d="m912-2016h-16z"/><path d="m896-2144h16z"/><path d="m912-2144v128z"/><path d="m896-2016v-128z"/><path d="m-2272-192h-16v-128h16z"/><path d="m-2288-320h16z"/><path d="m-2272-192h-16z"/><path d="m-2288-192v-128z"/><path d="m-2272-320v128z"/><path d="m-256-1248h8z"/><path d="m-248-1120h-8z"/><path d="m-256-1248v64h8v-64z"/><path d="m-1128-1216h8z"/><path d="m-1120-1088h-8z"/><path d="m-1128-1216v64h8v-64z"/><path d="m-608-1816v-8z"/><path d="m-352-1824v8z"/><path d="m-352-1824h-128v8h128z"/><path d="m-608-544v-8z"/><path d="m-352-552v8z"/><path d="m-352-552h-128v8h128z"/><path d="m-768-520v8z"/><path d="m-1024-512v-8z"/><path d="m-768-520h-128v8h128z"/><path d="m-768-1792v8z"/><path d="m-1024-1784v-8z"/><path d="m-768-1792h-128v8h128z"/><path d="m-704-960v-64z"/><path d="m-384-1824h32z"/><path d="m-800-1792h32z"/><path d="m-256-1184v-64z"/><path d="m-256-1184v64h8v-64z"/><path d="m-1120-1152v64z"/><path d="m-1128-1152v64h8v-64z"/><path d="m-608-1824v8z"/><path d="m-352-1816v-8z"/><path d="m-352-1824h-32z"/><path d="m-437.3333-1824h53.3333z"/><path d="m-608-552v8z"/><path d="m-352-544v-8z"/><path d="m-522.6667-544h-85.3333z"/><path d="m-768-512v-8z"/><path d="m-1024-520v8z"/><path d="m-938.6667-512h-85.3333z"/><path d="m-768-1784v-8z"/><path d="m-1024-1792v8z"/><path d="m-768-1792h-32z"/><path d="m-853.3333-1792h53.3333z"/><path d="m912-2144h-64v128h64z"/><path d="m544-2528h32v8h-32z"/><path d="m320-2520v-8h224v8z"/><path d="m320-2528h170.6667 53.3333z"/><path d="m-248-1248v64z"/><path d="m-256-1248v128z"/><path d="m-2224-320h-64v128h64z"/><path d="m-1696 184v8h-32v-8z"/><path d="m-1728 192h-224v-8h224z"/><path d="m-1696 192h-32z"/><path d="m-1128-1088v-64z"/><path d="m-1120-1088v-128z"/><path d="m-480-1816h-128z"/><path d="m-480-1824h-128v8h128z"/><path d="m-480-552h128z"/><path d="m-480-552h-128v8h128z"/><path d="m-896-520h128z"/><path d="m-896-520h-128v8h128z"/><path d="m-896-1784h-128z"/><path d="m-896-1792h-128v8h128z"/><path d="m912-2016h-64z"/><path d="m848-2144h64z"/><path d="m848-2016v-128z"/><path d="m912-2144v128z"/><path d="m912-2016h-64v-128h64z"/><path d="m-2288-320h64z"/><path d="m-2224-192h-64z"/><path d="m-2224-320v128z"/><path d="m-2288-192v-128z"/><path d="m-2224-192h-64v-128h64z"/><path d="m-704-1024v-64z"/><path d="m-384-544h-138.6667-85.3333z"/><path d="m-800-512h-138.6667-85.3333z"/><path d="m-608-1816h256z"/><path d="m-608-1824h128z"/><path d="m-352-552h-256z"/><path d="m-352-544h-128z"/><path d="m-768-520h-256z"/><path d="m-768-512h-128z"/><path d="m-1024-1784h256z"/><path d="m-1024-1792h128z"/><path d="m-617-2154 73-38z"/><path d="m-2208-576v224-64-32z"/><path d="m-2208-160v48 176z"/><path d="m912-2016v-128z"/><path d="m352-2528h-224 64 16z"/><path d="m576-2528h-224 80z"/><path d="m768-2528h-192z"/><path d="m832-2400-64-128z"/><path d="m-1504 192h-64-128z"/><path d="m-1920 192h-224z"/><path d="m-1696 192h-224z"/><path d="m-128-544 64-64z"/><path d="m448-1120 64-64z"/><path d="m-759-182-73 38z"/><path d="m-2208 64 64 128z"/><path d="m-1824-1216-64 64z"/><path d="m-1248-1792-64 64z"/><path d="m912-2016h-16-48z"/><path d="m912-2144h-64z"/><path d="m832-1760v-224z"/><path d="m832-2400v96 128z"/><path d="m832-1984 16-32z"/><path d="m848-2144-16-32z"/><path d="m64-2400v128z"/><path d="m128-2528-64 128z"/><path d="m64-2272-48 48z"/><path d="m-544-2192 80-16z"/><path d="m768-1696h-17.0667z"/><path d="m768-1696 64-64z"/><path d="m-832-144-80 16z"/><path d="m320-1120h128z"/><path d="m-64-1760-64-64z"/><path d="m320-1696h-112-16-64z"/><path d="m750.9333-1696h-174.9333 64z"/><path d="m64-2016v32z"/><path d="m64-1984v224-32z"/><path d="m64-1760 64 64z"/><path d="m0-2080h-128z"/><path d="m0-2208h-64-64z"/><path d="m16-2224-16 16z"/><path d="m0-2080 64 64z"/><path d="m512-1408v224-128z"/><path d="m512-1632v224z"/><path d="m512-1632 32-32 32-32z"/><path d="m384-1632v96z"/><path d="m384-1536v224-96z"/><path d="m320-1696 64 64z"/><path d="m192-1312h-192z"/><path d="m192-1312h-32-160z"/><path d="m-64-1600v224z"/><path d="m-64-1760v160z"/><path d="m0-1312-64-64z"/><path d="m320-1248-85.3333-42.6666-42.6667-21.3334z"/><path d="m384-1312-64 64z"/><path d="m0-1056h192z"/><path d="m320-1120-85.3334 42.6665-42.6666 21.3335z"/><path d="m-64-832v224-32-64z"/><path d="m-64-992v64 96z"/><path d="m-64-992 64-64z"/><path d="m-256-1824h128-128-64z"/><path d="m-128-1824h-128z"/><path d="m-128-2080h-112-32 96z"/><path d="m-464-2208h192-48z"/><path d="m-240-2208h-32-192z"/><path d="m-747-1954 26-78z"/><path d="m-511-2068-42 24z"/><path d="m-677-2100-44 68z"/><path d="m-553-2044-23 23-11 11z"/><path d="m-677-2100 60-54z"/><path d="m-587-2010-24 42z"/><path d="m-611-1968-12 47z"/><path d="m-623-1921-1 49z"/><path d="m-624-1856v-16z"/><path d="m-624-1872v16z"/><path d="m-752-1872v16z"/><path d="m-752-1856h48z"/><path d="m-688-1856h-16z"/><path d="m-672-1856h48z"/><path d="m-624-1856h-48-16z"/><path d="m-256-1568v96z"/><path d="m-256-768v192 32-160z"/><path d="m-256-992v192 32-160z"/><path d="m-256-1216v192 32-160z"/><path d="m-256-1440v192 32-160z"/><path d="m-256-1664v64 32 96 32-160z"/><path d="m-320-1824v160z"/><path d="m-320-1024v32 192-128z"/><path d="m-320-1248v32 192-96z"/><path d="m-320-1472v32 192-96z"/><path d="m-320-1568v-64z"/><path d="m-320-768v32-64z"/><path d="m-256-1600v-64-160h-64v160 32l32 32z"/><path d="m-256-1568v-32h-32z"/><path d="m-256-544h-64z"/><path d="m-256-768v-32l-64 64v160h64z"/><path d="m-320-576v32h64v-32z"/><path d="m-256-800-64 64z"/><path d="m-699-236-60 54z"/><path d="m-704-1792h-80z"/><path d="m-832-1792h-192-32z"/><path d="m-832-1792h48-144-96z"/><path d="m-912-128h-240z"/><path d="m-1152-128h-224 128z"/><path d="m-1248-512h128z"/><path d="m-448-544h-224z"/><path d="m-356.7778-544h-91.2222z"/><path d="m-1056-736v-32 64z"/><path d="m-1056-1600v64z"/><path d="m-1056-1536v32 64z"/><path d="m-1056-736v32 160 32z"/><path d="m-1056-960v192 32z"/><path d="m-1056-1184v192 32z"/><path d="m-1056-1408v192 32z"/><path d="m-1056-1632v32 64 96 32z"/><path d="m-1120-992v32 192-32z"/><path d="m-1120-1216v32 192-32z"/><path d="m-1120-1440v32 192-32z"/><path d="m-1120-1792v160z"/><path d="m-1056-544v-160l-64-64v32 192z"/><path d="m-1056-512v-32h-64v32z"/><path d="m-1056-1632v-160h-64v160 64h32l32-32z"/><path d="m-1120-1568v32l32-32z"/><path d="m-1088-1568-32 32 64-64z"/><path d="m-1056-704-64-64z"/><path d="m-624-480v16z"/><path d="m-752-464v-16z"/><path d="m-752-480v16z"/><path d="m-704-480h-48z"/><path d="m-688-480h64z"/><path d="m-704-480h16 64-128z"/><path d="m-624-464-5 82z"/><path d="m-629-382-26 78z"/><path d="m-765-368 12-47z"/><path d="m-753-415 1-49z"/><path d="m-789-326 24-42z"/><path d="m-655-304-31.0588 48-12.9412 20z"/><path d="m-789-326-34 34z"/><path d="m-865-268 42-24z"/><path d="m-1024-256h-224 96z"/><path d="m-912-256h-64-48z"/><path d="m-1696-1216h-128z"/><path d="m-1376-1280h-96-96z"/><path d="m-1312-1568v224z"/><path d="m-1312-1728v32 128z"/><path d="m-1312-1344-64 64z"/><path d="m-1568-1280-128 64z"/><path d="m-1312-576 64 64z"/><path d="m-1568-1024h192-96z"/><path d="m-1568-1024h181.3334 10.6666z"/><path d="m-1568-1024-128-64z"/><path d="m-1760-1024 64-64z"/><path d="m-1312-800v224-96z"/><path d="m-1312-960v160z"/><path d="m-1376-1024 64 64z"/><path d="m-1952-640h-64-64-46.9333z"/><path d="m-1504-640h-64-128z"/><path d="m-1888-928v224-96z"/><path d="m-1888-1152v128 96z"/><path d="m-1760-1024v96z"/><path d="m-1760-928v224-96z"/><path d="m-1696-640-32-32-32-32z"/><path d="m-1888-704-64 64z"/><path d="m-1440-576v32z"/><path d="m-1440-544v224-96z"/><path d="m-1248-256h-128z"/><path d="m-1376-256-64-64z"/><path d="m-1440-576-64-64z"/><path d="m-1392-112 16-16z"/><path d="m-320-544h-36.7778z"/><path d="m-320-544h-36.7778z"/><path d="m-1440-64v41.6001z"/><path d="m-1440-64 48-48z"/><path d="m-1440-22.3999v86.3999z"/><path d="m-1504 192 64-128z"/><path d="m-2126.9333-640h-17.0667z"/><path d="m-2144-640-64 64z"/><path d="m-2208-352-16 32z"/><path d="m-2224-192 16 32z"/><path d="m-2224-192h-48-16z"/><path d="m-2224-320h-64z"/><path d="m-2288-320v128z"/><path d="m-256-1248h8v128h-8z"/><path d="m-248-1248v128z"/><path d="m-1120-1088h-8v-128h8z"/><path d="m-1128-1088v-128z"/></g><g id="c"><path d="m-592.4626-2166.7729 48.4626-25.2271-73 38z"/><path d="m-2208-128v-32 224z"/><path d="m656-2528h32 80-192z"/><path d="m832-2400-64-128z"/><path d="m-1920 192h-64-160z"/><path d="m-1696 192h-64-160z"/><path d="m-128-544 64-64z"/><path d="m448-1120 64-64z"/><path d="m-832-144 73-38z"/><path d="m-2192 96-16-32 64 128z"/><path d="m-1824-1216-64 64z"/><path d="m-1248-1792-64 64z"/><path d="m912-2144h-16v32 96h16z"/><path d="m848-2016 48-96v-32h-48z"/><path d="m896-2112-48 96h48z"/><path d="m896-2144h16-64z"/><path d="m832-1984 16-32v-128h-16z"/><path d="m848-2144-16-32v32z"/><path d="m832-1984 16-32z"/><path d="m848-2144-16-32z"/><path d="m832-2400-64-128h-80v224h144z"/><path d="m688-2304v160h144v-32-128z"/><path d="m688-2144v64 96h112 32v-160z"/><path d="m432-2528h-80-144v224h224z"/><path d="m208-2304v224h224v-224z"/><path d="m208-2080v96h224v-96z"/><path d="m656-2528h-80-144v224h224z"/><path d="m432-2304v224h224v-224z"/><path d="m432-2080v96h144 80v-96z"/><path d="m688-2304v-224h-32v224z"/><path d="m688-2080v-64-160h-32v224z"/><path d="m688-1984v-96h-32v96z"/><path d="m208-2528h-16v224h16z"/><path d="m192-2304v96 128h16v-224z"/><path d="m192-2080v64 160h16v-128-96z"/><path d="m192-1856v64 96h16v-112-48z"/><path d="m800-1760v-224h-112-32-80v224z"/><path d="m750.9333-1696h17.0667l32-32v-32h-224v64z"/><path d="m832-1760v-224h-32v224z"/><path d="m800-1728 32-32h-32z"/><path d="m432-1984h-224v128 48l48 48h176z"/><path d="m256-1760 64 64 64 64h48v-128z"/><path d="m576-1984h-144v224h144z"/><path d="m432-1760v128h80l64-64v-64z"/><path d="m208-1696h112l-64-64-48-48z"/><path d="m512-1632h-80-48v96 128h128z"/><path d="m384-1408v96h128v-96z"/><path d="m192-2528h-64l-64 128v96h128z"/><path d="m64-2304v32 64h128v-96z"/><path d="m64-2272-48 48-16 16h64z"/><path d="m-240-2208h-224v128h224z"/><path d="m-128-2080h128v-128h-128-112v128z"/><path d="m192-2080v-128h-128-64v128l64 64h128z"/><path d="m-672-2058.0435v42.0435h48 2.9388 22.3165 1.1293z"/><path d="m-576-2021v-8.25l-5.202 9.1035.9176 3.4309z"/><path d="m-592.4626-2166.7729 16.4626 51.2173 23 71.5556 42-24-7.4487-129.1103-25.5513 5.1103z"/><path d="m-518.4487-2197.1103 7.4487 129.1103 47-12v-128z"/><path d="m-672-2058.0435v-46.4565l-5 4.5-11 17v67h16z"/><path d="m-576-2029.25v8.25l23-23-23-71.5556z"/><path d="m-576-2115.5556-16.4626-51.2173-24.5374 12.7729 35.798 133.8535 5.202-9.1035z"/><path d="m-580.2844-2016.7156-.9176-3.4309-35.798-133.8535-55 49.5v46.4565l74.3846 42.0435 10.6154 6z"/><path d="m192-1856v-160h-128v32 192h128z"/><path d="m64-1792v32l64 64h64v-96z"/><path d="m-64-1760-64-64h-128v160 64h192z"/><path d="m-256-1600v160 64h192v-224z"/><path d="m-256-1376v160 64h192v-224z"/><path d="m-256-1152v160 64h192v-64-160z"/><path d="m-256-928v160 64h192v-128-96z"/><path d="m-256-704v160h128l64-64v-96z"/><path d="m0-1312-64-64v224h160l32-32z"/><path d="m-64-1152v160l64-64 96-96z"/><path d="m-598.7447-2016-12.2553 48 24-42-10.6154-6z"/><path d="m-621.0612-2016-1.9388 95 12-47 12.2553-48z"/><path d="m-672-2016h-16v160h16 48v-16-144z"/><path d="m-624-1872 1-49 1.9388-95h-2.9388z"/><path d="m384-1312-64 64v128h128l64-64v-128z"/><path d="m224-1296-32-16h-192l128 128 96 96z"/><path d="m320-1120v-128l-96-48v208l10.6666 10.6665z"/><path d="m234.6666-1077.3335-10.6666-10.6665-96-96-32 32-96 96h192z"/><path d="m-608-1184v64h-64v-32-96h64z"/><path d="m-655-304 26-78 5-82v-16h-64-16v160 64h17.9412z"/><path d="m-704-256v24.5l5-4.5 12.9412-20z"/><path d="m-688-2016v-67l-33 51-26 78-5 82v16h48 16z"/><path d="m-1120-1632v-160h-128l-64 64v160h192z"/><path d="m-1312-1568v224h192v-64-160z"/><path d="m-1312-1344v64 160h192v-64-160z"/><path d="m-1312-1120v64 96 64h192v-64-160z"/><path d="m-1312-896v96 128h192v-64-160z"/><path d="m-1312-672v96l64 64h128v-160z"/><path d="m-768-1152v-64h64v128h-64z"/><path d="m-1312-1280v-64l-64 64z"/><path d="m-1472-1120-138.6666-138.6666-85.3334 42.6666v128l128 64h96z"/><path d="m-1376-1024-10.6666-10.6666-21.3334-21.3334-64-64v96z"/><path d="m-1386.6666-1280h-181.3334l-42.6666 21.3334 138.6666 138.6666 64 64h21.3334z"/><path d="m-1408-1056 21.3334 21.3334v-21.3334z"/><path d="m-1312-1120v-160h-64-10.6666v224h74.6666z"/><path d="m-1386.6666-1056v21.3334l10.6666 10.6666 64 64v-96z"/><path d="m-1760-1024 64-64v-128h-128l-64 64v128z"/><path d="m-778.3846-320-10.6154-6-6 6z"/><path d="m-752-320v-144l-1 49-1.9388 95z"/><path d="m-754.9388-320 1.9388-95-12 47-12.2553 48z"/><path d="m-777.2553-320 12.2553-48-24 42 10.6154 6z"/><path d="m-752-480v16 144h48v-160z"/><path d="m-1440-544v-32l-64-64h-64v128 96h128z"/><path d="m-1568-416v64 160h128v-128-96z"/><path d="m-1568-192v64 160h128v-54.3999-41.6001-32-96z"/><path d="m-1568 32v64 96h64l64-128v-32z"/><path d="m-704-256v-64h-48-2.9388-22.3165-1.1293-16.6154l-28 28 39.4625 122.7729 24.5375-12.7729 55-49.5z"/><path d="m-857.5513-138.8896-7.4487-129.1104-47 12v128z"/><path d="m-1152-256h-96-128v128h224z"/><path d="m-912-128v-128h-240v128z"/><path d="m-783.5375-169.2271-39.4625-122.7729-42 24 7.4487 129.1104 25.5513-5.1104z"/><path d="m-1392-112 16-16v-128l-64-64v128 96h32z"/><path d="m-1440-96v32l32-32z"/><path d="m-1760-928v-96h-128v96 128h128z"/><path d="m-1888-800v96h128v-96z"/><path d="m-1696-640 112 112v-112z"/><path d="m-1568-512v-128h-16v112 16z"/><path d="m-1728-672-32-32h-128l-64 64v128h224z"/><path d="m-1584-512v-16l-112-112-32-32v160z"/><path d="m-1728-512h-224v96 64h192 32z"/><path d="m-1568-352v-64-96h-16-144v160z"/><path d="m-1984-640h-142.9333l-81.0667 192v32h224z"/><path d="m-2208-416v64h224v-64z"/><path d="m-1952-416v-96-128h-32v224z"/><path d="m-1952-352v-64h-32v64z"/><path d="m-1984-352h-224v192 32h224z"/><path d="m-2208-128v192l16 32h208v-224z"/><path d="m-2192 96 48 96h160v-96z"/><path d="m-1760-352h-192-32v224h224z"/><path d="m-1984-128v224h224v-224z"/><path d="m-1984 96v96h64 160v-96z"/><path d="m-1568-128v-64-160h-160-32v224z"/><path d="m-1568 96v-64-160h-192v224z"/><path d="m-1696 192h128v-96h-192v96z"/><path d="m-672-768v224-160z"/><path d="m-672-1152v32 192z"/><path d="m-672-1376v128 96z"/><path d="m-672-1600v128 96z"/><path d="m-448-1824h-224z"/><path d="m-356.7778-544h36.7778-128z"/><path d="m-320-1824v160z"/><path d="m-832-1792h-224z"/><path d="m-704-512h-128z"/><path d="m-1056-736v224-160z"/><path d="m-1056-960v224-160z"/><path d="m-1056-1184v224-160z"/><path d="m-1056-1408v224-160z"/><path d="m-1056-1632v224-160z"/><path d="m-704-1024v64z"/><path d="m-704-1792v96z"/><path d="m64-2304v-96 128z"/><path d="m128-2528-64 128z"/><path d="m64-2272-48 48z"/><path d="m-518.4487-2197.1103 54.4487-10.8897-80 16z"/><path d="m800-1728-32 32 64-64z"/><path d="m-912-128 80-16z"/><path d="m320-1120h128z"/><path d="m-64-1760-64-64z"/><path d="m750.9333-1696h-174.9333z"/><path d="m64-2016v32z"/><path d="m64-1760 64 64z"/><path d="m0-2208h-128z"/><path d="m0-2080 64 64z"/><path d="m512-1408v96 128z"/><path d="m512-1632 64-64z"/><path d="m384-1632v96z"/><path d="m320-1696 64 64z"/><path d="m-64-1600v224z"/><path d="m0-1312-64-64z"/><path d="m224-1296 96 48-128-64z"/><path d="m384-1312-64 64z"/><path d="m0-1056h192z"/><path d="m-64-832v128 96z"/><path d="m-64-992 64-64z"/><path d="m-320-1824h-128z"/><path d="m-240-2080h-224 192z"/><path d="m-128-2080h-112z"/><path d="m-128-2208h-112z"/><path d="m-747-1954-5 82z"/><path d="m-511-2068 47-12z"/><path d="m-721-2032-26 78z"/><path d="m-553-2044 42-24z"/><path d="m-688-2083 11-17-44 68z"/><path d="m-672-2104.5 55-49.5-60 54z"/><path d="m-611-1968 24-42z"/><path d="m-623-1921 12-47z"/><path d="m-624-1872 1-49z"/><path d="m-752-1872v16z"/><path d="m-752-1856h48z"/><path d="m-688-1856h16z"/><path d="m-256-1824v160z"/><path d="m-256-544h128z"/><path d="m-320-768v224-32-160z"/><path d="m-320-992v224-32z"/><path d="m-320-1216v224-32z"/><path d="m-320-1440v224-32z"/><path d="m-320-1664v224-32-96-64z"/><path d="m-759-182 60-54z"/><path d="m-704-1792h-80-48z"/><path d="m-1120-1792h-128z"/><path d="m-672-1824v32z"/><path d="m-1152-128h-224z"/><path d="m-832-512h-224 128z"/><path d="m-704-1440v192 32-160z"/><path d="m-704-1664v192 32-128z"/><path d="m-448-544h-224z"/><path d="m-356.7778-544h-91.2222z"/><path d="m-672-928v160z"/><path d="m-1056-1792v160z"/><path d="m-768-1152v64l-160 160v-128-96z"/><path d="m-768-1088h64v64 64 32h-224z"/><path d="m-1120-736v64 160-32z"/><path d="m-1120-960v64 160-32z"/><path d="m-1120-1184v64 160-32z"/><path d="m-1120-1408v64 160-32z"/><path d="m-1120-1632v64 160-32-96-32z"/><path d="m-624-464v-16z"/><path d="m-688-480h-16z"/><path d="m-629-382 5-82z"/><path d="m-655-304 26-78z"/><path d="m-753-415-12 47z"/><path d="m-752-464-1 49z"/><path d="m-765-368-24 42z"/><path d="m-795-320 6-6-34 34z"/><path d="m-823-292-42 24z"/><path d="m-865-268-47 12z"/><path d="m-912-256h-112z"/><path d="m-1696-1216h-128z"/><path d="m-1386.6666-1280h10.6666-192z"/><path d="m-1312-1728v160z"/><path d="m-1312-1344-64 64z"/><path d="m-1568-1280-128 64z"/><path d="m-1312-576 64 64z"/><path d="m-1760-1024 64-64z"/><path d="m-1312-896v-64 160z"/><path d="m-1376-1024 64 64z"/><path d="m-1984-640h32-174.9333z"/><path d="m-1584-640h16 64-192z"/><path d="m-1888-1024v-128 224z"/><path d="m-1760-928v128 96z"/><path d="m-1728-672 32 32-64-64z"/><path d="m-1888-704-64 64z"/><path d="m-1440-544v128 96z"/><path d="m-1376-256-64-64z"/><path d="m-1440-576-64-64z"/><path d="m-1408-96-32 32 48-48z"/><path d="m-1440-22.3999v54.3999 32z"/><path d="m-1504 192 64-128z"/><path d="m-2126.9333-640h-17.0667l-64 64v128z"/><path d="m-2144-640-64 64z"/><path d="m-2288-192h16v-32-96h-16z"/><path d="m-2272-224 16-32 32-64h-48z"/><path d="m-2208-352-48 96 32 64 16 32z"/><path d="m-2272-224v32h48l-32-64z"/><path d="m-2208-352-16 32z"/><path d="m-2224-192 16 32z"/><path d="m-2272-320h48-64z"/><path d="m-384-1824h32v8h-32z"/><path d="m-608-1816v-8h224v8z"/><path d="m-608-1824h170.6667 53.3333z"/><path d="m-352-552v8h-32v-8z"/><path d="m-384-544h-224v-8h224z"/><path d="m-352-544h-32z"/><path d="m-768-520v8h-32v-8z"/><path d="m-800-512h-224v-8h224z"/><path d="m-768-512h-32z"/><path d="m-800-1792h32v8h-32z"/><path d="m-1024-1784v-8h224v8z"/><path d="m-1024-1792h170.6667 53.3333z"/></g><g id="d"><path d="m-832-1792h-224v160 64h224z"/><path d="m-1056-1568v160 64h224v-224z"/><path d="m-1056-1344v160 64h224v-224z"/><path d="m-1056-1120v160 64h224v-224z"/><path d="m-1056-896v160 64h224v-224z"/><path d="m-1056-672v160h224v-160z"/><path d="m-704-1696v-96h-128v224h128z"/><path d="m-832-1568v224h128v-128-96z"/><path d="m-832-1344v224h128v-128-96z"/><path d="m-832-1120v224h128v-64-64-96z"/><path d="m-832-896v224h128v-64-160z"/><path d="m-832-672v160h128v-160z"/><path d="m-448-1824h-224v224h224z"/><path d="m-672-1600v224h224v-224z"/><path d="m-672-1376v224h224v-224z"/><path d="m-672-1152v224h224v-224z"/><path d="m-672-928v160 64h224v-224z"/><path d="m-672-704v160h224v-160z"/><path d="m-320-1664v-160h-128v224h128z"/><path d="m-448-1600v224h128v-64-160z"/><path d="m-448-1376v224h128v-64-160z"/><path d="m-448-1152v224h128v-64-160z"/><path d="m-448-928v224h128v-64-160z"/><path d="m-448-704v160h128v-160z"/><path d="m-672-928v160z"/><path d="m-672-1824v32 96 96z"/><path d="m-320-1824h-128z"/><path d="m-448-544h-224z"/><path d="m-320-768v64 160z"/><path d="m-320-992v64 160z"/><path d="m-320-1216v64 160z"/><path d="m-320-1440v64 160z"/><path d="m-320-1664v64 160z"/><path d="m-704-1792h-128z"/><path d="m-832-512h-224z"/><path d="m-1056-1792v160z"/><path d="m-704-736v64 160z"/><path d="m-704-960v64 160z"/><path d="m-704-1248v128 96-64-128z"/><path d="m-704-1472v128 96-192z"/><path d="m-704-1696v128 96-192z"/></g></defs><g stroke="#000"><use fill="none" stroke-miterlimit="0" stroke-width="10" xlink:href="#a"/><use fill="#c4c4c4" xlink:href="#a"/><use fill="none" stroke-miterlimit="0" stroke-width="10" xlink:href="#b"/><use fill="#d9d9d9" xlink:href="#b"/><use fill="none" stroke-miterlimit="0" stroke-width="10" xlink:href="#c"/><use fill="#ebebeb" xlink:href="#c"/><use fill="none" stroke-miterlimit="0" stroke-width="10" xlink:href="#d"/><use fill="#fff" xlink:href="#d"/></g></svg>