<svg viewBox="-534 -582 1612 1676" xmlns="http://www.w3.org/2000/svg" xmlns:xlink="http://www.w3.org/1999/xlink"><defs><g id="a"><path d="m48 16v96z"/><path d="m48 112h-96z"/><path d="m48 16v96h-96v-96z"/><path d="m-16 48v32h32v-32z"/><path d="m16 48v32z"/><path d="m-16 48h32z"/><path d="m-16 80v-32z"/><path d="m16 80h-32z"/><path d="m-64 16h16v96h-16z"/><path d="m-48 112h96 16v16h-128v-16z"/><path d="m48 112v-96h16v96z"/><path d="m192 112h24v16h-24z"/><path d="m232 112h24v16h-24z"/><path d="m64 0v16h-16-96-16v-16z"/><path d="m144-24h48v24h-64v-24z"/><path d="m64 112v-96-16h64 64v112 16h-64-64z"/><path d="m168-128h24 64v88h-112-16v-24-64z"/><path d="m256-40v8 8h-64-48v-16z"/><path d="m192 0v-24h64v24 16 16 64 16h-24-16-24z"/><path d="m128-256h40v64 64h-40z"/><path d="m192-128v-64h64v64z"/><path d="m168-192h24v64h-24z"/><path d="m168-256h88v64h-64-24z"/><path d="m576-96h32v64h-32z"/><path d="m256-32v-8-88-64-64h96 32 64 32v224z"/><path d="m480 0h-128-96v-24-8h224z"/><path d="m512-256v32 64 64 64h-32v-224z"/><path d="m512-32v32h-32v-32z"/><path d="m448-256h-64z"/><path d="m192 128h24-24-64z"/><path d="m576-96v64z"/><path d="m576-32h32z"/><path d="m608-96h-32z"/><path d="m512-160 32 32z"/><path d="m512-224v64z"/><path d="m256 112v-16z"/><path d="m256 32v-16z"/><path d="m256 96v-64z"/><path d="m256 128v-16z"/><path d="m256 16v-16z"/><path d="m512-32v-64h32v64z"/><path d="m512-160 32 32v32h-32z"/><path d="m480 0h32 32-192z"/><path d="m512 0v-32h32v32z"/><path d="m128-40h16z"/><path d="m144-24h-16z"/><path d="m144-40v16z"/><path d="m216 112h16z"/><path d="m216 128v-16z"/><path d="m232 112v16z"/><path d="m-48 16v96z"/><path d="m48 16h-96z"/><path d="m488-256h-16v2h16z"/><path d="m472-256h16z"/><path d="m488-254h-16z"/><path d="m360-2h-16v2h16z"/><path d="m360 0h-16z"/><path d="m344-2h16z"/><path d="m232-256h-16v2h16z"/><path d="m216-256h16z"/><path d="m232-254h-16z"/><path d="m128-24v24z"/><path d="m128-24v-16z"/><path d="m232 128h-16z"/><path d="m232 128h24z"/><path d="m128-24v-16h16v16z"/><path d="m216 128v-16h16v16z"/><path d="m256 16h32z"/><path d="m288 16v96z"/><path d="m256 96v-64-16h32v96h-32z"/><path d="m472-254v-2z"/><path d="m488-254h-16v-2h16z"/><path d="m488-256v2z"/><path d="m344 0v-2z"/><path d="m360 0h-16v-2h16z"/><path d="m360-2v2z"/><path d="m232-254h-16v-2h16z"/><path d="m232-256v2z"/><path d="m216-254v-2z"/><path d="m608-32v-64z"/><path d="m544-128-32-32z"/><path d="m576-32h-32v-64h32z"/><path d="m544-96h32z"/><path d="m288 112h32 32 32 32 32 32v16h-224v-16z"/><path d="m544 0h-64-128z"/><path d="m352 0h128z"/><path d="m320 16h-32z"/><path d="m352 0h-96z"/><path d="m320 112h-32z"/><path d="m320 112v-16z"/><path d="m320 32v-16z"/><path d="m320 96v-64z"/><path d="m288 16h32v16 64 16h-32z"/><path d="m288 112h-32z"/><path d="m-56 48h-8v32h8z"/><path d="m-64 48h8z"/><path d="m-56 80h-8z"/><path d="m-64 80v-32z"/><path d="m-56 48v32z"/><path d="m352 16v96z"/><path d="m320 16h32z"/><path d="m352 112h-32z"/><path d="m320 96v-64-16h32v96h-32z"/><path d="m384-304v-8h40 24v8z"/><path d="m352-256h32z"/><path d="m448-256h64-32z"/><path d="m256-256h-64z"/><path d="m320-256h32z"/><path d="m192-256h64 64 32-96-88-40z"/><path d="m80-256h48z"/><path d="m64-256h16z"/><path d="m448-304v48h-64v-48z"/><path d="m320-304v48h-64v-48z"/><path d="m192-304v48h-64v-48z"/><path d="m128-256v128 64z"/><path d="m128-64v24z"/><path d="m352 0h128v16h-32-32-32-32-32-32-32v-16z"/><path d="m352 16h32z"/><path d="m384 112h-32z"/><path d="m384 96v-64z"/><path d="m384 32v-16z"/><path d="m384 112v-16z"/><path d="m352 16h32v16 64 16h-32z"/><path d="m64-128v-128h16 48v192h-64z"/><path d="m64-128v-24-16-72-16z"/><path d="m64-64v-16-48z"/><path d="m-56 80h-8v-32h8z"/><path d="m384 16h32z"/><path d="m416 16v96z"/><path d="m416 112h-32z"/><path d="m384 96v-64-16h32v96h-32z"/><path d="m576-96v64z"/><path d="m576-32v-64z"/><path d="m608-96h-32v64h32z"/><path d="m608-32h-32z"/><path d="m576-96h32z"/><path d="m544-128-32-32z"/><path d="m512-224v32 32z"/><path d="m512-224v-32z"/><path d="m512-160v-64z"/><path d="m576-32h-32z"/><path d="m544-128v32z"/><path d="m544-32v-64z"/><path d="m544-96v64h32v-64z"/><path d="m544-32v32z"/><path d="m416 16h32z"/><path d="m544 0h-64z"/><path d="m448 112h-32z"/><path d="m448 112v-16z"/><path d="m448 32v-16z"/><path d="m448 96v-64z"/><path d="m416 16h32v16 64 16h-32z"/><path d="m448 16h32z"/><path d="m480 112h-32z"/><path d="m480 16v96z"/><path d="m448 96v-64-16h32v96h-32z"/><path d="m896 88v-24z"/><path d="m896-104v-24z"/><path d="m896-64v-24z"/><path d="m424-312v-7.75-.25h24v8z"/><path d="m384-312v-7.75h24 16v7.75z"/><path d="m448 192h-128z"/><path d="m832-256h-32z"/><path d="m736-256h-32z"/><path d="m448-312v-8 16 48-48z"/><path d="m800-256h-64v-30h64z"/><path d="m736-286v-2h64v2z"/><path d="m736-286v30z"/><path d="m736-288v2z"/><path d="m800-286v-2z"/><path d="m800-256v-30z"/><path d="m800-286h-64z"/><path d="m800-288h-64z"/><path d="m480 128h-32-128-64z"/><path d="m880 128h16-64z"/><path d="m816-232h-112v-24h32 64 32v24z"/><path d="m896-128v24h-16v-40z"/><path d="m880-88h16v24h-16z"/><path d="m816-192v-40h16v40z"/><path d="m816-64v-128h16l48 48v40 16 24z"/><path d="m704-128v-64-40h112v40 128h-48-64z"/><path d="m688-128h16v64 64h-16z"/><path d="m704-192v64h-16-48z"/><path d="m880 0h16v64 24h-16z"/><path d="m816-64h64 16v64h-16-112v-64z"/><path d="m896 104v24h-16v-24z"/><path d="m880 88v16 24h-48-96-48v-32-96h16 64 112z"/><path d="m704 0v-64h64v64z"/><path d="m576-128h16 32 16 48v128 96h-112z"/><path d="m688 96v32h-112v-32z"/><path d="m896-88h-16z"/><path d="m880-104h16z"/><path d="m880-88v-16z"/><path d="m640-128h-16z"/><path d="m592-128h-16z"/><path d="m624-128h-32z"/><path d="m704-192v-24-16z"/><path d="m880 104v-16z"/><path d="m880 88h16z"/><path d="m896 104h-16z"/><path d="m544 112v16h-32-32v-16z"/><path d="m480 16h64v80 16h-64z"/><path d="m480 16v-16h64v16z"/><path d="m544 16v-16-32-64-32h32v224h-32z"/><path d="m576 96v32h-32v-16-16z"/><path d="m544-128-32-32v-32l64 64z"/><path d="m512-224v-32 64z"/><path d="m512-192 16 16 16 16 16 16 16 16z"/><path d="m736 192h-160l-64-64h32 32 112 48z"/><path d="m832 128-64 64h-32v-64z"/><path d="m512 128 64 64z"/><path d="m448 128v64h-128v-64z"/><path d="m128 0h-64v128h64z"/><path d="m64 128h-128z"/><path d="m64 0v128z"/><path d="m-64 0v16 96 16z"/><path d="m64 0h64-64-128z"/><path d="m128 128h-64-128 128z"/><path d="m768 240v16 64 96z"/><path d="m768 640h-160z"/><path d="m544 640h-160-64v-16h192 32z"/><path d="m736 624h32v16h-160-64v-16z"/><path d="m384 448h128v64 64 48h-192v-48-128z"/><path d="m512 512h128v64h-128z"/><path d="m704 512v64h-64v-64z"/><path d="m736 624h-192-32v-48h128 64 32z"/><path d="m768 576v48h-32v-48z"/><path d="m736 512h-32-64-128v-64h64 160z"/><path d="m768 448v64h-32v-64z"/><path d="m736 576h-32v-64h32 32v64z"/><path d="m576 320v-64-64h160 32v48 176h-192z"/><path d="m768 416v32h-32-160v-32z"/><path d="m576 320v96 32z"/><path d="m232 328v-8h24v24h-24z"/><path d="m216 320h16v8h-16z"/><path d="m216 328v16h-24v-24h24z"/><path d="m256 384 64 64h-64z"/><path d="m256 384v64h-64v-32-32-40h24 16 24z"/><path d="m320 576h-128v-128h64 64z"/><path d="m160 704h-224v-128h128 96z"/><path d="m192 576h128v48 16l-64 64h-96v-128z"/><path d="m64 320h64v8h-24-16-24z"/><path d="m128 384h64v32h-64z"/><path d="m128 328v16h-24v-16z"/><path d="m88 344h-24v-16h24z"/><path d="m128 384v32h-64v-32-40h24 16 24z"/><path d="m192 448v128h-32-96v-32-16-96-16h64 64z"/><path d="m-32 416h32 32v128h-32-32-32v-128z"/><path d="m-64 576h32 96z"/><path d="m64 528v16z"/><path d="m64 432v96z"/><path d="m64 544v32z"/><path d="m64 416v16z"/><path d="m64 320v8 16 40z"/><path d="m64 384v32z"/><path d="m192 320v24 40z"/><path d="m232 328v16z"/><path d="m232 344h-16z"/><path d="m216 344v-16z"/><path d="m216 328h16z"/><path d="m104 328v16z"/><path d="m104 344h-16z"/><path d="m88 344v-16z"/><path d="m88 328h16z"/><path d="m0 544h32z"/><path d="m-32 544h32z"/><path d="m-64 416v128z"/><path d="m256 704h-96z"/><path d="m360 536v16z"/><path d="m360 552h-16z"/><path d="m344 552v-16z"/><path d="m344 536h16z"/><path d="m344 536v16h16v-16z"/><path d="m424 448h-16v2h16z"/><path d="m408 448h16z"/><path d="m424 450h-16z"/><path d="m552 638h-16v2h16z"/><path d="m552 640h-16z"/><path d="m536 638h16z"/><path d="m766 408v16h2v-16z"/><path d="m768 408v16z"/><path d="m766 424v-16z"/><path d="m576 280v16h2v-16z"/><path d="m576 296v-16z"/><path d="m578 280v16z"/><path d="m680 216v16z"/><path d="m680 232h-16z"/><path d="m664 232v-16z"/><path d="m664 216h16z"/><path d="m664 216v16h16v-16z"/><path d="m896 104v24z"/><path d="m896 88v-24 32 8z"/><path d="m896-88v-16-24 64z"/><path d="m896 64h32 16-16z"/><path d="m880-88v-16h16v16z"/><path d="m880 104v-16h16v16z"/><path d="m216 344v-16h16v16z"/><path d="m88 344v-16h16v16z"/><path d="m344 552v-16h16v16z"/><path d="m664 232v-16h16v16z"/><path d="m-64 632v16h2v-16z"/><path d="m128 0v16z"/><path d="m128 0v-32-32 24 16z"/><path d="m128 112v-96-16 128z"/><path d="m128 16v96z"/><path d="m80-64h-16 64z"/><path d="m80-64h-16z"/><path d="m128-64h-48z"/><path d="m64-80v-48z"/><path d="m64-64v-16z"/><path d="m80 128v-128-16 16 128 16z"/><path d="m112 16h-16z"/><path d="m96 112h16z"/><path d="m96 112v-96h16v96z"/><path d="m96 16v96z"/><path d="m112 112v-96z"/><path d="m64 0h-128z"/><path d="m80-16v16h-16-128-16v-16z"/><path d="m-64 144h144-144-16z"/><path d="m-64 0v128z"/><path d="m64 0h16v128h-16z"/><path d="m64 128h16v16h-144v-16z"/><path d="m-80 0h16v128 16h-16z"/><path d="m32 416h-32z"/><path d="m64 544h-32z"/><path d="m32 544v-128z"/><path d="m32 544v-128z"/><path d="m64 432v96 16h-32v-128h32z"/><path d="m0 544h32v-128h-32z"/><path d="m424 448v2z"/><path d="m424 450h-16v-2h16z"/><path d="m408 450v-2z"/><path d="m552 638v2z"/><path d="m552 640h-16v-2h16z"/><path d="m536 640v-2z"/><path d="m766 408h2z"/><path d="m766 424v-16h2v16z"/><path d="m768 424h-2z"/><path d="m576 280h2z"/><path d="m576 296v-16h2v16z"/><path d="m578 296h-2z"/><path d="m-64 648v-16h2v16z"/><path d="m-64 632h2z"/><path d="m-62 648h-2z"/><path d="m-64 648v-16z"/><path d="m-62 632v16z"/><path d="m928-64h-32 32 16z"/><path d="m928-64h16z"/><path d="m944 64h-16v-128h16z"/><path d="m928 64h-32v-64-64h32z"/><path d="m-96 416v128z"/><path d="m-32 416h-32z"/><path d="m0 416h-32z"/><path d="m32 416h32z"/><path d="m32 416h-32-32v-32h96v32z"/><path d="m-64 544h32z"/><path d="m32 544h-32z"/><path d="m-64 544h-32z"/><path d="m-64 416v128h-32v-128z"/><path d="m-32 544h32v-16-96-16h-32z"/><path d="m32 544h-32v-16-96-16h32z"/><path d="m0 528v16z"/><path d="m0 432v96z"/><path d="m0 416v16z"/><path d="m0 432v96 16-128z"/><path d="m-64 576v128z"/><path d="m160 704h-224z"/><path d="m256 704h-96z"/><path d="m256 704 64-64z"/><path d="m944 64h-16z"/><path d="m944-64v128z"/><path d="m128 112v16z"/><path d="m80-16h-160z"/><path d="m80 0h-16v128h16z"/><path d="m-64 0h128 16v-16h-160v16z"/><path d="m96 16v96h16v-96z"/><path d="m80 144v-16h-16-128v16z"/><path d="m-64 128v-128h-16v144h16z"/><path d="m64 0v128z"/><path d="m64 128h-128z"/><path d="m-80 0v-16 16 144z"/><path d="m-208 240h96z"/><path d="m-112 240v-32z"/><path d="m-208 208v32z"/><path d="m-112 208h-96z"/><path d="m-208 208h96v32h-96z"/><path d="m0 416h32z"/><path d="m-64 416h-32z"/><path d="m0 544h-32z"/><path d="m-64 544h32v-128h-32-32v128z"/><path d="m0 432v96 16h-32v-128h32z"/><path d="m-32 544v-128z"/><path d="m-32 544v-128z"/><path d="m-368 784h96z"/><path d="m-272 784v96z"/><path d="m-368 880v-96z"/><path d="m-368 880v-96h96v96z"/><path d="m-336 816v32h32v-32z"/><path d="m-304 848h-32z"/><path d="m-336 848v-32z"/><path d="m-336 816h32z"/><path d="m-304 816v32z"/><path d="m-32 80v16h64v-16z"/><path d="m-32 48v32h16v-32z"/><path d="m32 96v16h16v-16z"/><path d="m-48 96v16h16v-16z"/><path d="m-48 16v16h16v-16z"/><path d="m32 16v16h16v-16z"/><path d="m32 32v64h16v-64z"/><path d="m32 16h-64v16h64z"/><path d="m-48 32v64h16v-64z"/><path d="m32 96h-64v16h64z"/><path d="m16 80h16v-32h-16z"/><path d="m-32 32v16h64v-16z"/><path d="m48 112v-96z"/><path d="m296-319.75v-.25h24v.25z"/><path d="m280-319.75h16 24v15.75h-64v-15.75z"/><path d="m152-319.75h16 24v15.75h-64v-15.75z"/><path d="m128-319.75v-.25h24v.25z"/><path d="m408-319.75v15.75h16v-15.75z"/><path d="m424-304h-16z"/><path d="m424-319.75v15.75-16z"/><path d="m408-304v-15.75-.25z"/><path d="m280-304v-15.75-.25z"/><path d="m296-319.75v15.75-16z"/><path d="m320-319.75v-.25 16 48-48z"/><path d="m280-319.75v15.75h16v-15.75z"/><path d="m296-304h-16z"/><path d="m168-319.75v15.75-16z"/><path d="m192-319.75v-.25 16 48-48z"/><path d="m152-304v-15.75-.25z"/><path d="m152-319.75v15.75h16v-15.75z"/><path d="m168-304h-16z"/><path d="m80-256v16z"/><path d="m80-168v16z"/><path d="m80-80v16z"/><path d="m64-168v-72z"/><path d="m64-128v-24z"/><path d="m80-152h-16z"/><path d="m64-168v16h16v-16z"/><path d="m64-256v16h16v-16z"/><path d="m64-168h16z"/><path d="m80-240h-16z"/><path d="m64-80v16h16v-16z"/><path d="m64-80h16z"/><path d="m384-320h24v.25h-24z"/><path d="m256-320h24v.25h-24z"/><path d="m168-320h24v.25h-24z"/><path d="m-224 64v128-64z"/><path d="m256-256v-48-16 .25 15.75z"/><path d="m384-256v-48-16 .25 7.75 8z"/><path d="m448-320h-24v16h24z"/><path d="m408-304v-16h-24v16z"/><path d="m416-256h32v-48h-24-16-24v48z"/><path d="m296-304h-16-24v48h64v-48z"/><path d="m280-320h-24v16h24z"/><path d="m320-320h-24v16h24z"/><path d="m192-320h-24v16h24z"/><path d="m192-256v-48h-24-16-24v48z"/><path d="m152-320h-24v16h24z"/><path d="m128-256v-48-16 .25 15.75z"/><path d="m-192 0-32 64z"/><path d="m128 0v16 96z"/><path d="m416-256h-32-32-32-64-64v64h224z"/><path d="m128-32v32 112 16h64v-160z"/><path d="m192-256h-64l64 64z"/><path d="m576 192h-32l-32-32v-32z"/><path d="m128-64v-16h-48v16z"/><path d="m128-152h-48-16v24 48h16 48z"/><path d="m80-168h48v-72h-48-16v72z"/><path d="m80-256v16h48v-16z"/><path d="m128-152v-16h-48v16z"/><path d="m32 0h32-128z"/><path d="m32 0h-96-32-96 192z"/><path d="m-64 0v128z"/><path d="m64 128h-64-64z"/><path d="m-224 64 32-64h96v192h-128z"/><path d="m-96 0h32v128l-32 64z"/><path d="m-64 128-32 64z"/><path d="m320 640v32z"/><path d="m192 896h24z"/><path d="m216 896h8 8z"/><path d="m-384 896h16 48z"/><path d="m-240 240h16z"/><path d="m-96 240h16z"/><path d="m-80 240v-32z"/><path d="m-240 208v32z"/><path d="m-224 208h16v32h-16-16v-32z"/><path d="m-96 192v16h-16-96-16v-16z"/><path d="m-96 240h-16v-32h16 16v32z"/><path d="m-224 192v16z"/><path d="m-96 208v-16z"/><path d="m-80 208h-16z"/><path d="m-224 208h-16z"/><path d="m-224 240v16z"/><path d="m256 384h32z"/><path d="m256 384h32l32 32v32z"/><path d="m320 448-64-64z"/><path d="m-96 256v-16z"/><path d="m-32 416h32z"/><path d="m-80 288 16 32v64h-16z"/><path d="m-80 384h16 32v32h-48z"/><path d="m-32 384h-32v-64h32l32 32v32z"/><path d="m-96 256 16 32v96 32h-16z"/><path d="m-64 320h32z"/><path d="m0 384h64z"/><path d="m-32 384h32 64z"/><path d="m-80 416h48v128h-48-16v-64-64z"/><path d="m-96 576v-32h16v32z"/><path d="m-80 544h48v32h-32-16z"/><path d="m-32 576v-32h32 32 32v32z"/><path d="m-224 256h128v160 64h-128z"/><path d="m-96 480v64 32h-128v-96z"/><path d="m-208 240h96 16v16h-128v-16z"/><path d="m-224 784v-80-96h96v208 16h-96z"/><path d="m-128 832v32h-96v-32z"/><path d="m-128 832v-16h32 96v16 32h-128z"/><path d="m64 864h-64v-32h64z"/><path d="m-96 704v-96h16 16v96z"/><path d="m-128 816v-208h32v96 32 80z"/><path d="m-64 736h64v32 48h-96v-80z"/><path d="m0 816v-48h64v64h-64z"/><path d="m-80 608h-16v-32h16z"/><path d="m-96 576v32h-32-96v-32z"/><path d="m-80 576h16v32h-16z"/><path d="m286 800h2v64h-2z"/><path d="m0 896h-128-64-32v-32h96 128z"/><path d="m224 896h-8-24-128-64v-32h64 160z"/><path d="m256 864v32h-24-8v-32z"/><path d="m256 800h30v64h-30-32v-64z"/><path d="m160 736h64v32h-160-64v-32z"/><path d="m224 800v-32-32h32v8 24 32z"/><path d="m320 640v32l-32 32h-32z"/><path d="m160 736h-160-64v-32h224z"/><path d="m256 704v24 8h-32-64v-32z"/><path d="m224 768v32 64h-160v-32-64z"/><path d="m-64 704v32z"/><path d="m288 704 32-32z"/><path d="m256 704v24z"/><path d="m256 736v-8 16z"/><path d="m286 800h-30z"/><path d="m288 800h-2z"/><path d="m256 864h30z"/><path d="m286 864h2z"/><path d="m286 864v-64z"/><path d="m288 864v-64z"/><path d="m256 896v-32z"/><path d="m-64 736h-32z"/><path d="m-96 736v-32z"/><path d="m-96 704h32z"/><path d="m-64 608v-32 128z"/><path d="m160 704h-224z"/><path d="m-256 320v64z"/><path d="m-256 384v-64l32-64v224h-32z"/><path d="m-224 480v96 32 96h-32v-128-64-32z"/><path d="m-224 704v80h-32v-16-64z"/><path d="m-224 256-32 64z"/><path d="m-256 384h-32z"/><path d="m-256 768v16h-16-96-16v-16z"/><path d="m-224 832v32 32h-48v-16-96h16 32z"/><path d="m-384 784h16v96 16h-16z"/><path d="m-272 896h-48-48v-16h96z"/><path d="m-368 880h96z"/><path d="m-128 896v32 16-16z"/><path d="m64 896v32 32-32z"/><path d="m64 896h128v32h-128z"/><path d="m-128 896h128v32h-128z"/><path d="m-272 896h48 32v32h-128v-32z"/><path d="m-48 112v-96z"/><path d="m48 112h-96z"/><path d="m-48 16h96z"/><path d="m32 96h-64v-64h64z"/><path d="m32 112h-64v-16h64z"/><path d="m-48 96v-64h16v64z"/><path d="m32 32h-64v-16h64z"/><path d="m32 96v-64h16v64z"/><path d="m32 32v-16h16v16z"/><path d="m-48 32v-16h16v16z"/><path d="m-48 112v-16h16v16z"/><path d="m32 112v-16h16v16z"/><path d="m944-64h-16z"/><path d="m944 64h-16z"/><path d="m944-64h-16v128h16z"/><path d="m928 64v-128h-32v128z"/><path d="m448 192h-24-16-48-16-24z"/><path d="m736-256h-32 96z"/><path d="m800-288h-64v2h64z"/><path d="m736-286v30h64v-30z"/><path d="m800-286h-64z"/><path d="m320 192v-16-48z"/><path d="m-320 384h32v128h-32z"/><path d="m-288 384h32v96 32h-32z"/><path d="m-288 704h-16z"/><path d="m-304 576h16v128h-16z"/><path d="m-288 576h32v128h-32z"/><path d="m0 928v32z"/><path d="m64 960v-32z"/><path d="m192 928v32z"/><path d="m192 928v-32 32 32z"/><path d="m64 960v-32h128v32z"/><path d="m-128 960v-16-16h128v32z"/><path d="m-320 928v16z"/><path d="m-192 928v16z"/><path d="m-192 928v16h-64-64v-16z"/><path d="m-256 944h-64z"/><path d="m-256 944h64z"/><path d="m-376 848h-8z"/><path d="m-376 816h-8v32h8z"/><path d="m-384 816h8z"/><path d="m-384 848v-32z"/><path d="m-376 816v32z"/><path d="m-304 576h16z"/><path d="m-304 704h16 32-32z"/><path d="m-128 944v-16z"/><path d="m-192 944v-16-32 32z"/><path d="m704-232h16z"/><path d="m816-232h16z"/><path d="m704-232v-24z"/><path d="m832-232v-24z"/><path d="m720-232v16z"/><path d="m816-216v-16z"/><path d="m832-216v24z"/><path d="m832-216v24-40z"/><path d="m832-216h-16z"/><path d="m816-232v16h16v-16z"/><path d="m704-192v-24z"/><path d="m704-232v16h16v-16z"/><path d="m720-216h-16z"/><path d="m896 64v-128-64h-64v224h64z"/><path d="m192 128h-64z"/><path d="m720-232h96 16v-24h-32-96v24z"/><path d="m704-128v-64l-64 64z"/><path d="m704-192v64h16v-88h-16z"/><path d="m720-216v88h80 16v-88-16h-96z"/><path d="m816-128h16v-64-24h-16z"/><path d="m896-128-64-64v64z"/><path d="m800-128h-80-16-64-16-32-16 112z"/><path d="m896-128-16-16-48-48z"/><path d="m704-192-64 64z"/><path d="m192-96v64 160-48-48z"/><path d="m416-192h-224 16z"/><path d="m512-192v-64h-64-32v64z"/><path d="m192-96v-96l-64-64v16 72 16 72 16 32h64z"/><path d="m768 416v128 32 64-16-48-64-64z"/><path d="m768 240v16z"/><path d="m768 240v-48z"/><path d="m384 640h-64z"/><path d="m608 640h-224 160z"/><path d="m704 576h-32z"/><path d="m704 320v32z"/><path d="m768 320v-64h-64v64z"/><path d="m768 416v-96h-64v32 192h64z"/><path d="m704 544v32h64v-32z"/><path d="m576 256v64z"/><path d="m704 256h-64-64v64h64 64z"/><path d="m576 448h-64-128z"/><path d="m384 448h-64z"/><path d="m576 448h32 32v-128h-64z"/><path d="m608 448h-32-192v64h64 160z"/><path d="m640 512v-64h-32v64z"/><path d="m448 512h-64v64h64z"/><path d="m384 512v-64h-64v64z"/><path d="m384 576v-64h-64v64z"/><path d="m608 576h-160-64v64h224z"/><path d="m768 576h-64-32-64v64h160z"/><path d="m384 576h-64v64h64z"/><path d="m192 320h64-24-16z"/><path d="m256 320v64-40z"/><path d="m192 320v64h64v-64z"/><path d="m128 320v64-40-16z"/><path d="m64 320h64z"/><path d="m128 320h-64v64h64z"/><path d="m-320 512h32z"/><path d="m64 960v-32z"/><path d="m-376 848h-8v-32h8z"/><path d="m768 240v-48h-64v64h64z"/><path d="m-128 944v16z"/><path d="m688 352h-32v128h32z"/><path d="m688 480h-32z"/><path d="m656 352h32z"/><path d="m656 352v128z"/><path d="m608 528v32z"/><path d="m608 528h-128z"/><path d="m480 560v-32z"/><path d="m608 560v-32h-128v32z"/><path d="m672 576h-32-32-160 160z"/><path d="m704 352v128 96-32z"/><path d="m656 320h48-64z"/><path d="m640 320v128 64z"/><path d="m672 576h32l-48-48-16-16v64z"/><path d="m688 480h-32v48l48 48v-96z"/><path d="m656 480v-128-32h-16v192l16 16z"/><path d="m704 352h-16v128h16z"/><path d="m688 352h16v-32h-48v32z"/><path d="m688 352v128z"/><path d="m448 560v-32-16 64z"/><path d="m608 512h32-32-160z"/><path d="m640 512h-32v16 32 16h32z"/><path d="m608 560h-128z"/><path d="m480 528h128v-16h-160v16z"/><path d="m448 528v32h32v-32z"/><path d="m608 576v-16h-128-32v16z"/><path d="m-192 896h64z"/><path d="m256 800v-32z"/><path d="m256 800v64h30v-64z"/><path d="m286 864h2v-64h-2z"/><path d="m286 864v-64z"/><path d="m-256 576v-64z"/><path d="m-304 576h16 32-32z"/><path d="m-288 576h32z"/><path d="m-320 384h32z"/><path d="m-320 512h32z"/><path d="m-288 512h-32 32 32z"/><path d="m-288 384h-32v128h32z"/><path d="m-256 704h-32z"/><path d="m-288 576h-16v128h16z"/><path d="m-304 576v128z"/><path d="m-128 944v-16z"/><path d="m0 960v-32z"/><path d="m192 960v-32z"/><path d="m64 928v32h128v-32z"/><path d="m64 928h128v-32h-128z"/><path d="m-128 928v16 16h128v-32z"/><path d="m-128 928h128v-32h-128z"/><path d="m-320 928v-32z"/><path d="m-256 944h64v-16h-128v16z"/><path d="m-192 896v32z"/><path d="m-192 928v-32h-32-32-64v32z"/><path d="m344 192h-24z"/><path d="m408 192h-48z"/><path d="m448 192h-24z"/><path d="m408 192v-16z"/><path d="m424 176v16z"/><path d="m408 176v16h16v-16z"/><path d="m408 176h16z"/><path d="m360 176v16z"/><path d="m344 192v-16z"/><path d="m360 192v-16h-16v16z"/><path d="m360 176h-16z"/><path d="m232 896h24z"/><path d="m216 896v-16z"/><path d="m256 744h-16z"/><path d="m240 728h16z"/><path d="m240 744h16v-16h-16z"/><path d="m256 744v24z"/><path d="m232 880v16z"/><path d="m216 880h16z"/><path d="m216 880v16h16v-16z"/><path d="m0 832h-192l-32 32h224z"/><path d="m192 864v-32h-160-32v32z"/><path d="m0 864h-224v32h32 64 128z"/><path d="m64 896h128v-16-16h-192v32z"/><path d="m128 736h-192-32v32h192 32z"/><path d="m192 768v-32h-32-32v32z"/><path d="m-192 608v-160-32h-32v224h32z"/><path d="m-224 640v224l32-32v-192z"/><path d="m-224 416h-32v96 64 64h32z"/><path d="m-256 640v64 64 96h32v-224z"/><path d="m-256 864v32h32v-32z"/><path d="m-96 416h-96v32h64 32z"/><path d="m-96 640v-192h-32v96 128h32z"/><path d="m-128 672v96h32v-32-32-32z"/><path d="m-80 320v-32l-16-32h-128l-32 64v64h176z"/><path d="m-112 240h-96-16v16h128v-16z"/><path d="m-64 480v-64h-32v32 192h32z"/><path d="m-96 640v32 32h32v-64z"/><path d="m-224 416h32 96 32v-16-16h-16-176v32z"/><path d="m-80 384h16 64v-32l-32-32h-32-16z"/><path d="m-80 320h16l-16-32z"/><path d="m216 896v-16h-24v16z"/><path d="m216 880h16 24v-16h-32-32v16z"/><path d="m232 896h24v-16h-24z"/><path d="m256 800v-32-24h-16-16v120h32z"/><path d="m224 744v-8h-32v32 64 32h32z"/><path d="m224 736v8h16v-8z"/><path d="m160 704h-224v32h192 32z"/><path d="m192 736h32 16v-8-24h-80v32z"/><path d="m240 728h16v-24h-16z"/><path d="m256 704h32l32-32v-32z"/><path d="m320 448v-32l-32-32h-32z"/><path d="m-224 192h128l32-64h-160z"/><path d="m-96 208h-16v32h16 16v-32z"/><path d="m-224 240h16v-32h-16-16v32z"/><path d="m-208 208h96 16v-16h-128v16z"/><path d="m192 128h48v-48h-32-16z"/><path d="m320 192h24v-16h-24z"/><path d="m0 0h-192l-32 64v64h160 64z"/><path d="m64 128v-128h-32-32v128z"/><path d="m256 112v-112h-16v80 48h16z"/><path d="m240 0h16l-32-32h-16z"/><path d="m240 80v-80l-32-32v64 48z"/><path d="m208-32v-144-16h-16v96 128h16z"/><path d="m192 32v48h16v-48z"/><path d="m224-160v-16h-16v144h16z"/><path d="m360 192h48v-16h-48z"/><path d="m448 192v-16h-24v16z"/><path d="m344 176h16 48 16 24v-48h-128v48z"/><path d="m544 192h32l-64-64v32z"/><path d="m576 192h16l-64-64h-16z"/><path d="m528 128v-128h-16v112 16z"/><path d="m688 96v-128h-128l-32 32v128l64 64h48 48z"/><path d="m560-32h-16l-32 32h16z"/><path d="m576-96h-16v64h128v-64z"/><path d="m576-128v32h112v-32z"/><path d="m560-96v-48l-16-16v128h16z"/><path d="m432-192h-16-208v16h16 208z"/><path d="m448-176h80l-16-16h-80v16z"/><path d="m448-176h-16-208v16h224z"/><path d="m544-160-16-16h-80v16z"/><path d="m576-96v-32l-16-16v48z"/><path d="m832-128h-32-112v32 64 128h144z"/><path d="m688 96v96h16 64l64-64v-32z"/><path d="m320 128h128-128-64z"/><path d="m544-160v128z"/><path d="m448-160h-224z"/><path d="m512 0v112z"/><path d="m544-32-32 32z"/><path d="m224-32 32 32z"/><path d="m256 112v16z"/><path d="m512 128v-16z"/><path d="m-112 240v-32z"/><path d="m-208 240h96z"/><path d="m-208 208v32z"/><path d="m320 576v-64-64 192z"/><path d="m-192 608v32 192-176z"/><path d="m96 768h-192-32 112z"/><path d="m-64 480v160 64-80z"/><path d="m240 704h-80z"/><path d="m-128 448h-64z"/><path d="m-128 448v80 16z"/><path d="m192 832v-64 48z"/><path d="m192 832h-96-64z"/><path d="m-320 896h64-128z"/><path d="m-256 864v-96 128z"/><path d="m576 192h-32z"/><path d="m832 96v32h64v-24-8z"/><path d="m320 128h-64-16-48 24 16 24z"/><path d="m448 128h32 32z"/><path d="m832-128h64-64-16-16z"/><path d="m192-192v96z"/><path d="m432-192h80-96z"/><path d="m512 160v-32z"/><path d="m768 192 64-64z"/><path d="m544 192-32-32z"/><path d="m448 128v48 16z"/><path d="m64 0v128z"/><path d="m64 0h-32z"/><path d="m320 416v32z"/><path d="m576 192v64z"/><path d="m704 192h-16-48v64h64z"/><path d="m640 192h-48-16v64h64z"/><path d="m64 896h-64z"/><path d="m320 416-32-32z"/><path d="m192 384h-64z"/><path d="m-80 288 16 32-16-32-16-32z"/><path d="m0 352v32z"/><path d="m0 352-32-32z"/><path d="m256 704h32z"/><path d="m240 736v8-16z"/><path d="m256 864v16 16-32-64z"/><path d="m-384 768v16 112z"/><path d="m-256 768v-64z"/><path d="m-256 416v-32h-32v128h32z"/><path d="m-256 640v-64h-32v128h32z"/><path d="m-256 768h-128z"/><path d="m0 896v32 32-32z"/><path d="m-176 528v128z"/><path d="m-144 656h-32z"/><path d="m-176 528h32z"/><path d="m-144 528h-32v128h32z"/><path d="m112 816h-128 112z"/><path d="m-16 816v-32z"/><path d="m112 784v32z"/><path d="m-16 784h128z"/><path d="m-16 784v32h128v-32z"/><path d="m558-160v-14 14 128z"/><path d="m434-174h-210-14 14z"/><path d="m448-160h-224v-14h210 14z"/><path d="m558-174v14h-14-96v-14z"/><path d="m544-160h14v128h-14z"/><path d="m544-32h14l-32 32h-14z"/><path d="m512 0h14v112h-14z"/><path d="m210-174h14v14 128h-14z"/><path d="m210-32h14l32 32h-14z"/><path d="m256 112h-14v-112h14z"/><path d="m526 0v112z"/><path d="m526 0 32-32z"/><path d="m224-160v128z"/><path d="m544-160h-96z"/><path d="m256 0v112z"/><path d="m-112 208h-96z"/><path d="m-112 240v-32h-96v32z"/><path d="m-64 400v-16z"/><path d="m144 720h-224v-16h16 208z"/><path d="m160 704h80v16h-96v-16z"/><path d="m-80 496v-96h16v80 144h-16z"/><path d="m-64 624v80h-16v-80z"/><path d="m-192 448v80h16 32 16v-80z"/><path d="m-128 544v-16h-16v128h16z"/><path d="m-176 528h-16v80 48h16z"/><path d="m192 768h-80v16 32h80z"/><path d="m112 768h-16-112v16h128z"/><path d="m-16 784v-16h-112v48h112z"/><path d="m96 816h-112-112v16h160 64z"/><path d="m192 832v-16h-80-16v16z"/><path d="m-128 656h-16-32-16v176l64-64z"/><path d="m-128 816v-48l-64 64h64z"/><path d="m240 720h-96z"/><path d="m-80 496v128 80 16-16-80z"/><path d="m-192 528v-80 160z"/><path d="m112 768h80-64-32z"/><path d="m-64 400v16 64z"/><path d="m160 704h-16-208z"/><path d="m-144 528v128z"/><path d="m-128 544v112 112-96z"/><path d="m32 832h-160-64 192z"/><path d="m-240 896v-144 144 16z"/><path d="m-240 912h-144-16z"/><path d="m-256 768v-16h16v144h-16z"/><path d="m-384 768v128z"/><path d="m-256 768h-128z"/><path d="m-256 752v16h-128v-16z"/><path d="m-400 752h16v16 128h-16z"/><path d="m-384 896h128 16v16h-160v-16z"/><path d="m656 80v-64z"/><path d="m656 16h-64z"/><path d="m592 16v64z"/><path d="m592 80v-64h64v64z"/><path d="m192 864h32-192z"/><path d="m-192 608h64 32-32-80-16z"/><path d="m-128 608v-160h32v160z"/><path d="m-96 448h-32-64-32v-32h128z"/><path d="m-192 608v-160h64v160z"/><path d="m-224 608v-160h32v160z"/><path d="m224 736v32 64 32z"/><path d="m192 864v-32-64-32h32v128z"/><path d="m192 832h-160v-64h160z"/><path d="m192 768h-160v-32h160z"/><path d="m192 864h-160v-32h160z"/><path d="m-400 752v144 16z"/><path d="m592 80h64z"/><path d="m592 16v64h64v-64z"/><path d="m210-174v142z"/><path d="m448-174h110-110-14z"/><path d="m512 112h14z"/><path d="m256 112h-14z"/><path d="m448-174h-14-210v14h224z"/><path d="m544-160h14v-14h-110v14z"/><path d="m558-160h-14v128h14z"/><path d="m526 0 32-32h-14l-32 32z"/><path d="m526 0h-14v112h14z"/><path d="m224-160v-14h-14v142h14z"/><path d="m242 112h14v-112h-14z"/><path d="m256 0-32-32h-14l32 32z"/><path d="m544-160v128z"/><path d="m448-160h-224 208z"/><path d="m512 0v112z"/><path d="m544-32-32 32z"/><path d="m224-32 32 32z"/><path d="m242 112v-112z"/><path d="m242 0-32-32z"/><path d="m256 112v16z"/><path d="m256 128v-16z"/><path d="m-240 272v32z"/><path d="m-144 304v-32z"/><path d="m-240 304h96z"/><path d="m-144 272h-96z"/><path d="m-240 272h96v32h-96z"/><path d="m368 784h-32z"/><path d="m336 880h32z"/><path d="m336 784v96z"/><path d="m368 880v-96z"/><path d="m336 880v-96h32v96z"/><path d="m-224 416v32 160z"/><path d="m-80 400h16z"/><path d="m240 704v16z"/><path d="m144 704h-208-16v16h224z"/><path d="m240 720v-16h-80-16v16z"/><path d="m224 832v-64h-96v64z"/><path d="m128 768h96v-32h-160v32z"/><path d="m224 864v-32h-96-64-32v32z"/><path d="m-64 480v-80h-16v96 128h16z"/><path d="m-80 624v80h16v-80z"/><path d="m-208 512h16 64 32v-96h-112z"/><path d="m-128 576v32h32v-96h-32z"/><path d="m-208 608h80v-32h-64-16z"/><path d="m-208 576h16v-64h-16z"/><path d="m-192 512v64h64v-64z"/><path d="m-208 576v-64-96h-16v192h16z"/><path d="m128 768h-64v64h64z"/><path d="m64 768v-32h-32v96h32z"/><path d="m-64 480v144 80-96z"/><path d="m240 704h-80z"/><path d="m144 720h-224z"/><path d="m-80 400v96z"/><path d="m-208 416h112-128z"/><path d="m-96 512v96-160-32z"/><path d="m32 832v-96 32 64 32z"/><path d="m64 736h160-32-160z"/><path d="m-384 752h128 16-16-128-16z"/><path d="m-256 768v128h16v-144h-16z"/><path d="m-256 896h-128v16h144v-16z"/><path d="m-384 768h128v-16h-128z"/><path d="m-400 912h16v-16-128-16h-16z"/><path d="m-384 768v128z"/><path d="m-256 768h-128z"/><path d="m-384 896h128z"/><path d="m-352 848v16h64v-16z"/><path d="m-352 816v32h16v-32z"/><path d="m-288 864v16h16v-16z"/><path d="m-368 864v16h16v-16z"/><path d="m-368 784v16h16v-16z"/><path d="m-288 784v16h16v-16z"/><path d="m-288 800v64h16v-64z"/><path d="m-288 784h-64v16h64z"/><path d="m-368 800v64h16v-64z"/><path d="m-288 864h-64v16h64z"/><path d="m-304 848h16v-32h-16z"/><path d="m-352 800v16h64v-16z"/><path d="m-272 880v-96z"/><path d="m64-320h-32-32 32z"/><path d="m448-320v-32z"/><path d="m640-320v-32z"/><path d="m640-320h-64-64v-32h128z"/><path d="m64-432h16v32 64 16h-16z"/><path d="m80-336v-64h32v64z"/><path d="m240-432v32h-64-64-32v-32z"/><path d="m176-400h64v64h-64z"/><path d="m80-336h32 64 64v16h-160z"/><path d="m176-400v64h-64v-64z"/><path d="m240-448v16h-160-16v-16z"/><path d="m240-336v-64-32-16h16v128h-16z"/><path d="m832-208v-96-16 56 56 16z"/><path d="m448 384h-96-32z"/><path d="m192 384h64z"/><path d="m128 384h64z"/><path d="m-64 384h64 64 64-64-64z"/><path d="m816-320v16h-128-32v-16z"/><path d="m816-208v-96h16v96z"/><path d="m816-208h-112-16v-96h128z"/><path d="m816-304v-16h16v16z"/><path d="m816-192v-16h16v16z"/><path d="m816-192h-112v-16h112z"/><path d="m688-80v-128h16v16 64 128 16h-16z"/><path d="m704 16v48 112h-16v-96-64z"/><path d="m688 176h16v16h-48v-16z"/><path d="m656-304h32v96 128h-32z"/><path d="m688-80v96h-32v-96z"/><path d="m656 80v-64h32v64z"/><path d="m688 80v96h-32v-96z"/><path d="m704 0h32z"/><path d="m704-128h32z"/><path d="m704-128h32v128h-32z"/><path d="m704 192v-16-112h32v128z"/><path d="m656 192h48v64h-48z"/><path d="m656 368h32 16v16h-48z"/><path d="m688 368v-96h16v96z"/><path d="m704 256v16h-16-32v-16z"/><path d="m688 272v96h-32v-96z"/><path d="m704 368v-96-16-64 64 32 64 32z"/><path d="m576-304h80v224h-80z"/><path d="m656-80v96h-64-16v-96z"/><path d="m656-304h-80v-16h64 16z"/><path d="m592 80v-64h64v64z"/><path d="m576 16h16v64h-16z"/><path d="m656 192h-80v-16h80z"/><path d="m576 192h80v64h-80z"/><path d="m656 176h-80v-96h16 64z"/><path d="m576 368h80v16h-80z"/><path d="m656 272h-80v-16h80z"/><path d="m656 368h-80v-96h80z"/><path d="m-240 272v32h-16v-32z"/><path d="m-128 320v64h-128v-64z"/><path d="m-128 304h-16v-32h16 16v32z"/><path d="m-240 304h96 16v16h-128v-16z"/><path d="m-128 256v16h-16-96-16v-16z"/><path d="m0 384h-64v-48h64z"/><path d="m128 336v48h-64v-48z"/><path d="m192 336h64v48h-64z"/><path d="m336 368h96 16v16h-128v-16z"/><path d="m448 368h16v16h-16z"/><path d="m576 368h-16-96-16-16v-96h16 128z"/><path d="m576 272h-128v-16h128z"/><path d="m560 384v-16h16v16z"/><path d="m464 368h96v16h-96z"/><path d="m-240 176v16h-16v-112h16z"/><path d="m-256 192h16 112v64h-128z"/><path d="m320 192h16v16 160h-16z"/><path d="m-32 80h-208-16v-16h224z"/><path d="m64 64h16v16h-96-16v-16z"/><path d="m240 0v80h-32v-112z"/><path d="m240 0-32-32h16l32 32z"/><path d="m256 128v32l-32 32h-32z"/><path d="m-16 192h-112-112v-16h224z"/><path d="m192 176v16h-96-112v-16z"/><path d="m192 192v-16l16-16 32-32h16z"/><path d="m240 80v-80h16v112 16h-16z"/><path d="m-16 176h-224v-96h208 16z"/><path d="m208 160-16 16h-208v-96h96 128z"/><path d="m240 80v48l-32 32v-80z"/><path d="m208-80v-80h16v128h-16z"/><path d="m80-96v-208h128v128 16 80h-128z"/><path d="m208-80v48 112h-128v-16-144z"/><path d="m80-320v16 208h-16v-32-64-128z"/><path d="m80-96v16 144h-16v-64-96z"/><path d="m240-320v16h-32-128v-16z"/><path d="m336 208h96v64 96h-96z"/><path d="m432 192v16h-96v-16z"/><path d="m448 128v64h-16-96-16v-32-32z"/><path d="m432 208v-16h16v64 16h-16z"/><path d="m528 128 48 48v16l-64-64z"/><path d="m576 176-48-48v-48h32 16z"/><path d="m576 192h-32l-32-32v-32z"/><path d="m528 0 32-32v48 64h-32z"/><path d="m544-32h16l-32 32h-16z"/><path d="m528 0v80 48h-16v-16-112z"/><path d="m560 80v-64h16v64z"/><path d="m544-160h16v80 48h-16z"/><path d="m560-160v-16-128h16v224h-16z"/><path d="m576-80v96h-16v-48-48z"/><path d="m432-160h-208-16v-16h224z"/><path d="m560-176v16h-16-96-16v-16z"/><path d="m432-176h-224v-128h32 192z"/><path d="m464-304h96v128h-128v-128z"/><path d="m464-304h-32-192v-16h16 64 128 16z"/><path d="m576-304h-16-96v-16h48 64z"/><path d="m448 192v-64 24 16 72 16z"/><path d="m544 192h32z"/><path d="m544 192-32-32z"/><path d="m320 160v32 176 16-128-16z"/><path d="m64 0h-32z"/><path d="m64-128h-32-32 32z"/><path d="m64-192h-32z"/><path d="m64-320v128h-32v-128z"/><path d="m64-128v32 96h-32v-128z"/><path d="m192 192h32-32-96z"/><path d="m-32 64h-224 32z"/><path d="m192 336v-15.75h24 16 24v15.75z"/><path d="m64 336v-15.75h24 16 24v15.75z"/><path d="m-128 320v64z"/><path d="m-128 320v-16z"/><path d="m-128 272v-16z"/><path d="m-128 192v64z"/><path d="m-64 336v-15.75h24 16 24v15.75z"/><path d="m-112 272h-16z"/><path d="m-128 304h16z"/><path d="m-112 304v-32z"/><path d="m448 128h64z"/><path d="m224-160v128z"/><path d="m544-160h-96z"/><path d="m256 0v112z"/><path d="m-256 304h-16v-32h16z"/><path d="m384 448v17.28z"/><path d="m448 896h128-128-64z"/><path d="m448 544v64 160-64z"/><path d="m560 384v224h-96v-224z"/><path d="m560 608v224h-96v-224z"/><path d="m560 832v48h-96v-48z"/><path d="m560 384h16v64 160h-16z"/><path d="m576 608v64 160h-16v-224z"/><path d="m576 832v48h-16v-48z"/><path d="m464 384v224h-16v-64-160z"/><path d="m464 608v224h-16v-64-160z"/><path d="m464 832v48h-16v-48z"/><path d="m464 880h96 16v16h-128v-16z"/><path d="m576 384v64z"/><path d="m384 768h64v64 48 16h-64z"/><path d="m384 640h-16z"/><path d="m256 384h32l32 32v32z"/><path d="m256 384 64 64z"/><path d="m320 448h48 16v17.28 174.72h-16-48z"/><path d="m368 752h-32z"/><path d="m320 640v32l-32 32h-32z"/><path d="m320 640v32z"/><path d="m288 704 32-32z"/><path d="m320 640-64 64z"/><path d="m368 880v-96-16h16v128h-16z"/><path d="m320 768h16v16 96 16h-16z"/><path d="m256 880v-112h64v128h-64z"/><path d="m336 768v-16h32v16 16h-32z"/><path d="m368 896v16h-32v-16-16h32z"/><path d="m336 768h-16z"/><path d="m256 768h64z"/><path d="m368 768v-16z"/><path d="m336 752v16z"/><path d="m368 896h16z"/><path d="m368 912v-16z"/><path d="m160 736h64v32h-96-64v-32z"/><path d="m224 768v64h-96v-64z"/><path d="m224 864v-32-64-32h32v32 112h-32z"/><path d="m160 736h-96-128v-32h224z"/><path d="m240 704h16v32h-32-64v-32z"/><path d="m64 832h64 96v32h-32-160v-32z"/><path d="m192 880v-16h32v16z"/><path d="m256 896h-64v-16h32 32z"/><path d="m-80 416v-32h16v16 80 128h-16z"/><path d="m-128 384h48v32h-16-112-16-32v-32z"/><path d="m-192 576v-64h64v64z"/><path d="m-208 512h16v64h-16z"/><path d="m-128 608v-32-64h32v96 96h-32z"/><path d="m-80 416v192h-16v-96-96z"/><path d="m-208 416h112v96h-32-64-16z"/><path d="m-208 576h16 64v32h-80z"/><path d="m-224 416h16v96 64 32h-16z"/><path d="m-256 576v-64-96h32v192 32h-32z"/><path d="m-224 640v192 32h-32v-96-64-64z"/><path d="m-224 864v32h-32v-32z"/><path d="m64 736v32 48h-32-96v-48-32z"/><path d="m64 816v-48h64v64h-64z"/><path d="m-80 608h16v96h-32v-96z"/><path d="m-128 816v-48h64v48z"/><path d="m0 896h-64-64-96v-32h96 128z"/><path d="m32 864h160v16 16h-64-64-64v-32z"/><path d="m64 816v16h-32v-16z"/><path d="m0 864h-128v-32-16h64 96v16 32z"/><path d="m-224 640v-32h16 80v96 64 48 16h-96z"/><path d="m-128 832v32h-96v-32z"/><path d="m128 896v32z"/><path d="m192 896h64v32h-128v-32z"/><path d="m64 896v32z"/><path d="m0 896h64v32h-128v-32z"/><path d="m-96 704h32-64z"/><path d="m-256 704h-32z"/><path d="m-256 576h-32z"/><path d="m-256 768v-64z"/><path d="m-256 896v32z"/><path d="m-64 768h-64z"/><path d="m-128 704v64z"/><path d="m-384 768v128z"/><path d="m-384 768h128z"/><path d="m-256 896h-128z"/><path d="m256 704h-16z"/><path d="m-64 400v80z"/><path d="m160 704h-224 208z"/><path d="m-256 864v32-128z"/><path d="m-368 880v-96z"/><path d="m-368 784h96z"/><path d="m-272 880h-96z"/><path d="m-288 864h-64v-64h64z"/><path d="m-288 880h-64v-16h64z"/><path d="m-368 864v-64h16v64z"/><path d="m-288 800h-64v-16h64z"/><path d="m-288 864v-64h16v64z"/><path d="m-288 800v-16h16v16z"/><path d="m-368 800v-16h16v16z"/><path d="m-368 880v-16h16v16z"/><path d="m-288 880v-16h16v16z"/><path d="m392 382h-16v2h16z"/><path d="m392 384h-16z"/><path d="m376 382h16z"/><path d="m648 382h-16v2h16z"/><path d="m648 384h-16z"/><path d="m632 382h16z"/><path d="m520 256h-16v2h16z"/><path d="m504 256h16z"/><path d="m520 258h-16z"/><path d="m520 894h-16v2h16z"/><path d="m520 896h-16z"/><path d="m504 894h16z"/><path d="m392 384h-16v-2h16z"/><path d="m392 382v2z"/><path d="m376 384v-2z"/><path d="m632 384v-2z"/><path d="m648 382v2z"/><path d="m648 384h-16v-2h16z"/><path d="m504 258v-2z"/><path d="m520 256v2z"/><path d="m520 258h-16v-2h16z"/><path d="m504 896v-2z"/><path d="m520 894v2z"/><path d="m520 896h-16v-2h16z"/><path d="m0-320h32z"/><path d="m448-320h32 32-48z"/><path d="m320-416v32z"/><path d="m320-352v-32z"/><path d="m512-352v32-32-32z"/><path d="m512-352v-32z"/><path d="m512-352v-32h128v32z"/><path d="m448-384v32h-128v-32z"/><path d="m448-352v32h-128v-32z"/><path d="m-320 384h32z"/><path d="m-288 384h-32 32 32z"/><path d="m768 192h-32z"/><path d="m736-128h-32 32 32z"/><path d="m736-128h32v128h-32z"/><path d="m736 64h-32 32 32z"/><path d="m736 64h32z"/><path d="m704 0v64-48z"/><path d="m768 192h-32v-128h32z"/><path d="m0 0h32 32-32z"/><path d="m0-128h32z"/><path d="m32-192h-32v-128h32z"/><path d="m0-192h32 32-32z"/><path d="m32 0h-32v-128h32z"/><path d="m256 928v32z"/><path d="m-64 960v-32z"/><path d="m-64 928v32-32-32z"/><path d="m128 896h-64z"/><path d="m256 928v32h-128v-32z"/><path d="m64 928v32h-128v-32z"/><path d="m64 960v-32-32 32z"/><path d="m-288 704h32-32-32z"/><path d="m-352 704h32z"/><path d="m-288 512h-32z"/><path d="m-320 384h32v128h-32z"/><path d="m-288 384h32v32 96h-32z"/><path d="m-256 576v-64z"/><path d="m-320 576h32v128h-32z"/><path d="m-288 576h32v64 64h-32z"/><path d="m-256 928v32z"/><path d="m-128 928v-32 32 32z"/><path d="m-128 928v32z"/><path d="m-256 960v-32h128v32z"/><path d="m-256 928v-32h32 96v32z"/><path d="m0-320h32z"/><path d="m768-128h32z"/><path d="m0-128h32z"/><path d="m256 960v-32-32 32z"/><path d="m384 465.28v-17.28 16z"/><path d="m384 465.28v174.72z"/><path d="m-320 512h32 32-32z"/><path d="m320-320h-64z"/><path d="m320-320v-32z"/><path d="m320-352v-32 32 32z"/><path d="m448-352v32z"/><path d="m448-352v32-32-32z"/><path d="m512-384v32z"/><path d="m640-352v-32h-128v32z"/><path d="m640-352v32z"/><path d="m640-384v32 32-32z"/><path d="m448-352v-32h-128v32z"/><path d="m-288 384h32z"/><path d="m736 192h-32 32 32z"/><path d="m736 192h-32z"/><path d="m736 0h-32z"/><path d="m768 0h-32-32 32z"/><path d="m768-128h-32z"/><path d="m768-128h-32v128h32z"/><path d="m736-128h-32v96 32h32z"/><path d="m768 64h-32z"/><path d="m768 64h-32v128h32z"/><path d="m736 192v-128h-32v128z"/><path d="m-256 384v-64z"/><path d="m0 0h-32z"/><path d="m64 0h-32z"/><path d="m64-192h-32z"/><path d="m32-320h-32v128h32z"/><path d="m32-320v128h32v-128z"/><path d="m32-128h-32v128h32z"/><path d="m256 896v32z"/><path d="m-64 928v-32z"/><path d="m128 928v-32z"/><path d="m128 928v-32 32 32z"/><path d="m256 960v-32h-128v32z"/><path d="m256 928v-32h-96-32v32z"/><path d="m64 896v32z"/><path d="m64 960v-32h-128v32z"/><path d="m64 928v-32h-128v32z"/><path d="m-256 704h-32z"/><path d="m-256 512h-32z"/><path d="m-288 384h-32v128h32z"/><path d="m-288 576h-32v128h32z"/><path d="m-288 576h32z"/><path d="m-320 576h32 32-32z"/><path d="m-64 896h-64z"/><path d="m-128 960v-32z"/><path d="m-256 928v32h128v-32z"/><path d="m-256 928h128v-32h-128z"/><path d="m760-248h16z"/><path d="m760-248v-16z"/><path d="m760-264v16h16v-16z"/><path d="m776-264v16z"/><path d="m256 320.25v-.25 16 48-48z"/><path d="m392 152v16z"/><path d="m376 168v-16z"/><path d="m392 168h-16z"/><path d="m376 152v16h16v-16z"/><path d="m376 152h16z"/><path d="m0 320.25v-.25 16 48-48z"/><path d="m192 320.25v15.75 48-64z"/><path d="m216 320.25v15.75h16v-15.75z"/><path d="m216 336v-15.75-.25z"/><path d="m232 336h-16z"/><path d="m232 320.25v15.75-16z"/><path d="m232 320.25v-.25h24v.25z"/><path d="m192 320.25v-.25h24v.25z"/><path d="m128 320.25v-.25 16 48-48z"/><path d="m64 320.25v15.75 48-48-16z"/><path d="m88 320.25v15.75h16v-15.75z"/><path d="m88 336v-15.75-.25z"/><path d="m104 336h-16z"/><path d="m104 320.25v15.75-16z"/><path d="m104 320.25v-.25h24v.25z"/><path d="m64 320.25v-.25h24v.25z"/><path d="m-40 320.25v15.75h16v-15.75z"/><path d="m-24 320.25v15.75-16z"/><path d="m-24 320.25v-.25h24v.25z"/><path d="m-24 336h-16z"/><path d="m-40 336v-15.75-.25z"/><path d="m-64 320.25v-.25h24v.25z"/><path d="m384 465.28v-1.28 72z"/><path d="m384 552v72z"/><path d="m384 536v16 72 16-174.72z"/><path d="m384 448h-16z"/><path d="m368 448v16h16v-16z"/><path d="m368 536v16h16v-16z"/><path d="m368 624v16h16v-16z"/><path d="m368 640v-16z"/><path d="m368 464v-16z"/><path d="m368 552v-16z"/><path d="m384 552h-16z"/><path d="m384 464h-16z"/><path d="m368 536h16z"/><path d="m368 624h16z"/><path d="m256-448h-16-176z"/><path d="m480-320h-32-128-64 64z"/><path d="m704-320h128-16-160-16z"/><path d="m576-320h64v-32h-128v32z"/><path d="m448-320v-32h-128v32z"/><path d="m256-448v128z"/><path d="m64-448v16 112z"/><path d="m192-320h64v-128h-192v128z"/><path d="m576 384h80 48z"/><path d="m256 384h32z"/><path d="m0 384h64z"/><path d="m-64 384h-16-48z"/><path d="m-272 304v-32z"/><path d="m776-248v40h56v-56h-56z"/><path d="m760-264h16 56v-56h-128v56z"/><path d="m776-248h-16v40h16z"/><path d="m704-208h56v-40-16h-56z"/><path d="m832-192v-16h-56-16-56v16z"/><path d="m704-128v-64h-128v64z"/><path d="m704 192h-128v64h128z"/><path d="m576-128v-64-128h-64v128 64 32h64z"/><path d="m512-96v224h64v-160-64z"/><path d="m512 128v32l32 32h32v-64z"/><path d="m480-192h-224v64h224z"/><path d="m512-128v-64h-32v64z"/><path d="m392 168h56v-16h-56z"/><path d="m376 152h16 56v-24h-96v24z"/><path d="m352 168h24v-16h-24z"/><path d="m448 168h-56-16-24v72h96z"/><path d="m256-128v-64-128h-64v128 64 32h64z"/><path d="m192-96v64 160h64v-224z"/><path d="m192 128v64h32l32-32v-32z"/><path d="m192-192h-128v64h128z"/><path d="m352 168v-16-24h-32v32 80h32z"/><path d="m0 64v128h64v-128z"/><path d="m-32 96v-32h-192v32z"/><path d="m-32 96v64 32h32v-128h-32z"/><path d="m-128 192h96v-32h-192v32z"/><path d="m-128 192h-96-32v64h128z"/><path d="m-256 192h32v-32-64-32h-32z"/><path d="m672 288v64h32v-64z"/><path d="m576 352h-224v32h96 128z"/><path d="m704 384v-32h-32-96v32z"/><path d="m576 256h-128-96v32h224z"/><path d="m672 288h32v-32h-128v32z"/><path d="m352 256h96v-16h-96-32v16z"/><path d="m352 352v-64-32h-32v128h32z"/><path d="m256 336v-16h-24v16z"/><path d="m192 320v16h24v-16z"/><path d="m232 336h-16-24v48h64v-48z"/><path d="m128 336v-16h-24v16z"/><path d="m88 320h-24v16h24z"/><path d="m64 384h64v-48h-24-16-24z"/><path d="m-24 336h24v-16h-24z"/><path d="m-40 384h40v-48h-24-16z"/><path d="m-40 336v-16h-24v64h24z"/><path d="m-240 272h96 16v-16h-128v16z"/><path d="m-128 384v-64h-128v64z"/><path d="m-128 320v-16h-16-96-16v16z"/><path d="m-128 272h-16v32h16 16v-32z"/><path d="m-256 304h16v-32h-16-16v32z"/><path d="m256-96v224z"/><path d="m480-128h-224z"/><path d="m512-320v48 32 48z"/><path d="m704-208v-56-56 128z"/><path d="m704-192h-128z"/><path d="m512-192h-32z"/><path d="m704 192h-16-64-48z"/><path d="m512-128v32z"/><path d="m704-128v96z"/><path d="m576-32v160 64z"/><path d="m352 128h96-128z"/><path d="m352 352v-64z"/><path d="m672 352h-96z"/><path d="m576 288h-224 96z"/><path d="m64-128h80 48z"/><path d="m64-192h128z"/><path d="m64-320v128z"/><path d="m192-192v-128z"/><path d="m-32 160v-64 48z"/><path d="m96 192h96-80-48z"/><path d="m192-96v-32 96z"/><path d="m64-32v32 64 128z"/><path d="m-32 160h-192z"/><path d="m-224 96v64-16z"/><path d="m-240 272v32z"/><path d="m-144 304v-32z"/><path d="m-144 272h-96z"/><path d="m-240 304h96z"/><path d="m760-264h16z"/><path d="m704-192v64z"/><path d="m832-192h-128 112z"/><path d="m576 192v64z"/><path d="m-256 192v-128 16 112 64z"/><path d="m-256 272v-16z"/><path d="m-256 320v-16z"/><path d="m256 128v32z"/><path d="m256 128h64z"/><path d="m448 128h64z"/><path d="m576 256h-128z"/><path d="m512 160v-32z"/><path d="m320 128v32z"/><path d="m64-128v-64z"/><path d="m64-32v-96h-32v128h32z"/><path d="m96 192h-32-64-32-96 112z"/><path d="m64 64v-64z"/><path d="m256 160-32 32z"/><path d="m0 64h64-96z"/><path d="m-64 384v-64 .25 15.75z"/><path d="m-272 272h16z"/><path d="m-256 304h-16z"/><path d="m256 768v-32-32z"/><path d="m256 768v128z"/><path d="m368 912h-32z"/><path d="m448 480v-32-64 160z"/><path d="m576 672v-192h-32v160 64h32z"/><path d="m544 704v160h32v-160z"/><path d="m480 480h64 32v-32h-128v32z"/><path d="m576 448v-64h-128v64z"/><path d="m480 640v-160h-32v64 160h32z"/><path d="m448 704v64 96h32v-160z"/><path d="m576 896v-32h-32-64-32v32z"/><path d="m544 864h-16-48z"/><path d="m544 480v160z"/><path d="m480 640v64 160-80z"/><path d="m576 672v32 160 32-16-48z"/><path d="m576 448v32 192-64z"/><path d="m448 864v-96h-64v128h64z"/><path d="m384 768h64z"/><path d="m320 640h48z"/><path d="m368 448h-48z"/><path d="m320 448v-32l-32-32h-32z"/><path d="m320 416v32z"/><path d="m288 384 32 32z"/><path d="m320 448v192z"/><path d="m368 536h16v-72h-16z"/><path d="m384 552h-16v72h16z"/><path d="m368 624v-72-16-72-16h-48v192h48z"/><path d="m256 704h32l32-32v-32z"/><path d="m256 704 64-64z"/><path d="m288 704h-32z"/><path d="m384 768h-16v16 96 16h16z"/><path d="m336 768v16h32v-16-16h-32z"/><path d="m320 768h-64v128h64z"/><path d="m336 880v-96-16h-16v128h16z"/><path d="m368 896v-16h-32v16 16h32z"/><path d="m336 880h32z"/><path d="m368 784h-32z"/><path d="m368 880v-96z"/><path d="m336 784v96z"/><path d="m368 768h16z"/><path d="m336 896h-16z"/><path d="m320 896h-64z"/><path d="m336 912v-16z"/><path d="m160 704h-224v64h224z"/><path d="m256 768v-64h-96v64z"/><path d="m-64 480v-96h-64v96 128h64z"/><path d="m-128 608v96h64v-96z"/><path d="m-64 768h-64v128h64z"/><path d="m-256 704v64h128v-64z"/><path d="m-384 768v128h128v-128z"/><path d="m-64 480v128 96z"/><path d="m256 704h-96z"/><path d="m256 896h-64-32z"/><path d="m160 768h-224 96z"/><path d="m-256 704h128z"/><path d="m-256 480v32 64 128-96z"/><path d="m-128 384v96z"/><path d="m-256 896h128z"/><path d="m-128 896v-128z"/><path d="m-64 704v32 32z"/><path d="m-256 480v-96h-32v128h32z"/><path d="m-256 576h-32v128h32z"/><path d="m448 336v-32z"/><path d="m576 304v32z"/><path d="m576 304h-128z"/><path d="m576 336v-32h-128v32z"/><path d="m-192 144v-32z"/><path d="m-64 112v32z"/><path d="m-64 112h-128z"/><path d="m-64 144v-32h-128v32z"/><path d="m528 608h-32z"/><path d="m528 608h-32v128h32z"/><path d="m528 736h-32z"/><path d="m496 608v128z"/><path d="m672 288v48 16z"/><path d="m576 352h-128-96z"/><path d="m672 288h-96z"/><path d="m576 336h-128z"/><path d="m672 288h-96v16 32h96z"/><path d="m576 304v-16h-128v16z"/><path d="m576 352h96v-16h-96-128v16z"/><path d="m448 336v-32-16h-96v64h96z"/><path d="m-64 144h-128z"/><path d="m-192 96h128 32-192z"/><path d="m-32 96h-32v16 32h32z"/><path d="m-64 112v-16h-128v16z"/><path d="m-192 112v-16h-32v48h32z"/><path d="m-32 160v-16h-32-128-32v16z"/><path d="m-240 304h96v-32h-96z"/><path d="m528 480h16-64z"/><path d="m528 640v-32 128z"/><path d="m528 640v96 48 80h16v-224z"/><path d="m544 480h-16v128 32h16z"/><path d="m544 640v224-160z"/><path d="m480 608v-128 160z"/><path d="m496 608h32v-128h-48v128z"/><path d="m528 864v-80h-32-16v80z"/><path d="m496 736v48h32v-48z"/><path d="m496 736v-128h-16v32 144h16z"/><path d="m336 784v96h32v-96z"/><path d="m320-240v-32z"/><path d="m448-272h-128z"/><path d="m448-272v32z"/><path d="m448-240v-32h-128v32z"/><path d="m656-32h-32v128h32z"/><path d="m656 96h-32z"/><path d="m624-32h32z"/><path d="m624-32v128z"/><path d="m144-32h-32v128h32z"/><path d="m144 96h-32z"/><path d="m112-32h32z"/><path d="m112-32v128z"/><path d="m32 848v-32z"/><path d="m32 816v32h128v-32z"/><path d="m160 816v32z"/><path d="m32 816h128z"/><path d="m160 848h-128z"/><path d="m-176 608h-32z"/><path d="m-208 608v-128z"/><path d="m-176 480v128z"/><path d="m-208 480h32z"/><path d="m-176 480h-32v128h32z"/><path d="m192-320h-128z"/><path d="m512-320h-32z"/><path d="m704-320h-64-64z"/><path d="m-208 384h32 48-128z"/><path d="m256-240v-80 128z"/><path d="m656-128h32 16-128z"/><path d="m576-320v128z"/><path d="m704-192v-128l-128 128z"/><path d="m704-320h-128v128z"/><path d="m448-240h-128z"/><path d="m448-272h64v-48h-32-160v48z"/><path d="m480-240h32v-32h-64v32z"/><path d="m256-240h64v-32-48h-64z"/><path d="m480-192h-224z"/><path d="m480-240h-32-128-64v48h224z"/><path d="m512-192v-48h-32v48z"/><path d="m704-32v128 96-128-64z"/><path d="m576-128v32 64z"/><path d="m704-32v-96h-16v224h16z"/><path d="m688 96v96h16v-96z"/><path d="m688-128h-32v96 128h32z"/><path d="m656-128h-80v96h48 32z"/><path d="m624 96v-128h-48v224h48z"/><path d="m688 192v-96h-32-32v96z"/><path d="m656-32v128z"/><path d="m192-320h-128l128 128z"/><path d="m64-320v128h128z"/><path d="m192-32v128 96-64z"/><path d="m64-128v96z"/><path d="m64-128v96h48 32v-96z"/><path d="m192-32v-96h-48v96 128h48z"/><path d="m112 96v-128h-48v224h48z"/><path d="m192 192v-96h-48-32v96z"/><path d="m144-32v128z"/><path d="m-64 768v128z"/><path d="m160 896h-128-96 128 64z"/><path d="m192 768h64-96z"/><path d="m32 896h128v-48h-128z"/><path d="m160 848v48h32v-80h-32z"/><path d="m192 768h-32-128v48h128 32z"/><path d="m256 768h-64v48 80h64z"/><path d="m32 848v-32-48h-96v128h96z"/><path d="m-256 384v96z"/><path d="m-128 480v128 96-96z"/><path d="m-128 480v-96h-48v96 128h48z"/><path d="m-176 384h-32v96h32z"/><path d="m-208 480v-96h-48v96 128h48z"/><path d="m-176 608h-32-48v96h128v-96z"/><path d="m-256 768v128z"/><path d="m-128 768h-128z"/><path d="m-256 768v128l128-128z"/><path d="m-256 896h128v-128z"/><path d="m256 704 64-64v64z"/><path d="m320 384v64l-64-64z"/><path d="m160 384h-96-64-64v-64h224z"/><path d="m256 320v64h-96v-64z"/><path d="m160 384h96-64-64-64z"/><path d="m0 384h-40-24z"/><path d="m256-128v32z"/><path d="m512-128h-32z"/><path d="m512-96v224z"/><path d="m512 128h-64z"/><path d="m320 128h-64z"/><path d="m320 448-64-64z"/><path d="m-64 384v96z"/><path d="m160 704h-224z"/></g></defs><path d="m-534-582h1612v1676h-1612z" fill="#fff"/><g stroke="#000"><use fill="none" stroke-miterlimit="0" stroke-width="15" xlink:href="#a"/><use fill="#fff" xlink:href="#a"/></g></svg>