<?xml version="1.0" encoding="utf-8" ?>
<svg baseProfile="tiny" height="100%" version="1.2" viewBox="-211.0 -1043.0 422.0 2086.0" width="100%" xmlns="http://www.w3.org/2000/svg" xmlns:ev="http://www.w3.org/2001/xml-events" xmlns:xlink="http://www.w3.org/1999/xlink"><defs><g id="bsp_ref"><polygon points="48,-1008 -71,-1008 -176,-1008 -176,-1008 -55,-1008 -48,-1008 48,-1008" /><polygon points="176,1008 176,1008 48,1008 48,1008" /><polygon points="176,-877 176,-1008 176,-1008 176,-784 176,-784" /><polygon points="-176,784 -176,960 -176,1008 -176,1008 -176,960 -176,784" /><polygon points="-176,560 -176,736 -176,784 -176,784 -176,736 -176,560" /><polygon points="-176,336 -176,512 -176,560 -176,560 -176,512 -176,336" /><polygon points="-176,112 -176,288 -176,336 -176,336 -176,288 -176,112" /><polygon points="-176,-112 -176,19 -176,64 -176,112 -176,112 -176,64 -176,-64 -176,-112" /><polygon points="-176,-336 -176,-205 -176,-112 -176,-112 -176,-205 -176,-336" /><polygon points="-176,-560 -176,-429 -176,-336 -176,-336 -176,-429 -176,-560" /><polygon points="-176,-784 -176,-653 -176,-560 -176,-560 -176,-653 -176,-784" /><polygon points="49,-877 49,-877 49,-1005 49,-1005" /><polygon points="49,-877 49,-1005 49,-1008 176,-1008 176,-877" /><polygon points="49,-1005 49,-1005 41,-1005 1,-1005 1,-1005" /><polygon points="-71,-1005 1,-1005 1,-1005 1,-1005 1,-1005 1,-1005 1,-1005 1,-1005 1,-1005 -7,-1005 -71,-1005" /><polygon points="48,-1008 49,-1008 49,-1005 1,-1005 -71,-1005 -71,-1008" /><polygon points="-176,-1008 -71,-1008 -71,-1005 -71,-877 -176,-877" /><polygon points="49,-877 176,-877 176,-784 176,-653 -64,-653 -64,-877" /><polygon points="176,-653 176,-560 176,-429 -64,-429 -64,-653" /><polygon points="176,-429 176,-336 176,-205 -64,-205 -64,-429" /><polygon points="176,-205 176,-112 176,-64 64,-64 48,-64 -48,-64 -64,-64 -64,-205" /><polygon points="64,48 64,-48 64,-64 176,-64 176,64 64,64" /><polygon points="48,48 48,-48 64,-48 64,48" /><polygon points="-48,48 -48,-48 -48,-64 48,-64 48,-48 48,48 48,64 -48,64" /><polygon points="-64,48 -64,19 -64,-48 -48,-48 -48,48" /><polygon points="-176,-784 -176,-877 -71,-877 -64,-877 -64,-653 -176,-653" /><polygon points="-64,-653 -64,-429 -176,-429 -176,-560 -176,-653" /><polygon points="-64,-429 -64,-205 -176,-205 -176,-336 -176,-429" /><polygon points="-64,-205 -64,-64 -64,-48 -64,19 -176,19 -176,-112 -176,-205" /><polygon points="-64,19 -64,48 -64,64 -176,64 -176,19" /><polygon points="-176,288 -176,112 -176,64 -64,64 -48,64 48,64 48,288" /><polygon points="-176,512 -176,336 -176,288 48,288 48,512" /><polygon points="-176,736 -176,560 -176,512 48,512 48,736" /><polygon points="-176,960 -176,784 -176,736 48,736 48,960" /><polygon points="48,1008 -48,1008 -176,1008 -176,960 48,960" /><polygon points="64,64 176,64 176,112 176,288 48,288 48,64" /><polygon points="176,288 176,336 176,512 48,512 48,288" /><polygon points="176,512 176,560 176,736 48,736 48,512" /><polygon points="176,736 176,784 176,960 48,960 48,736" /><polygon points="176,960 176,1008 48,1008 48,960" /><polygon points="41,-877 49,-877 49,-877 -64,-877 -71,-877 -71,-877" /><polygon points="41,-1005 41,-1005 33,-1005 1,-1005 1,-1005" /><polygon points="41,-1005 41,-877 41,-877 41,-1005" /><polygon points="49,-877 41,-877 41,-1005 49,-1005" /><polygon points="33,-877 41,-877 41,-877 -71,-877 -71,-877" /><polygon points="33,-1005 33,-1005 25,-1005 1,-1005 1,-1005" /><polygon points="33,-1005 33,-877 33,-877 33,-1005" /><polygon points="41,-877 33,-877 33,-1005 41,-1005" /><polygon points="25,-877 33,-877 33,-877 -71,-877 -71,-877" /><polygon points="25,-1005 25,-1005 17,-1005 1,-1005 1,-1005" /><polygon points="33,-877 25,-877 25,-1005 33,-1005" /><polygon points="25,-1005 25,-877 25,-877 25,-1005" /><polygon points="17,-877 25,-877 25,-877 -71,-877 -71,-877" /><polygon points="17,-1005 17,-1005 9,-1005 1,-1005 1,-1005" /><polygon points="25,-877 17,-877 17,-1005 25,-1005" /><polygon points="17,-1005 17,-877 17,-877 17,-1005" /><polygon points="9,-877 17,-877 17,-877 -71,-877 -71,-877" /><polygon points="9,-1005 9,-1005 1,-1005 1,-1005" /><polygon points="9,-1005 9,-877 9,-877 9,-1005" /><polygon points="17,-877 9,-877 9,-1005 17,-1005" /><polygon points="1,-877 9,-877 9,-877 -71,-877 -71,-877" /><polygon points="9,-877 1,-877 1,-1005 9,-1005" /><polygon points="1,-1005 1,-877 1,-877 1,-1005" /><polygon points="-7,-877 1,-877 1,-877 -71,-877 -71,-877" /><polygon points="-71,-1005 -71,-1005 -71,-1005 -71,-1005 -71,-1005 -71,-1005 -71,-1005 -71,-1005 -71,-877 -71,-877 -71,-877 -71,-877 -71,-877 -71,-877 -71,-877 -71,-877 -71,-877 -71,-877 -71,-877 -71,-877 -71,-877 -71,-877 -71,-877 -71,-1005" /><polygon points="-7,-1005 -7,-1005 -15,-1005 -71,-1005 -71,-1005" /><polygon points="-7,-1005 -7,-877 -7,-877 -7,-1005" /><polygon points="1,-877 -7,-877 -7,-1005 1,-1005" /><polygon points="-15,-877 -7,-877 -7,-877 -71,-877 -71,-877" /><polygon points="-15,-1005 -15,-1005 -23,-1005 -71,-1005 -71,-1005" /><polygon points="-15,-1005 -15,-877 -15,-877 -15,-1005" /><polygon points="-7,-877 -15,-877 -15,-1005 -7,-1005" /><polygon points="-23,-877 -15,-877 -15,-877 -71,-877 -71,-877" /><polygon points="-23,-1005 -23,-1005 -31,-1005 -71,-1005 -71,-1005" /><polygon points="-15,-877 -23,-877 -23,-1005 -15,-1005" /><polygon points="-23,-1005 -23,-877 -23,-877 -23,-1005" /><polygon points="-31,-877 -23,-877 -23,-877 -71,-877 -71,-877" /><polygon points="-31,-1005 -31,-1005 -39,-1005 -71,-1005 -71,-1005" /><polygon points="-31,-1005 -31,-877 -31,-877 -31,-1005" /><polygon points="-23,-877 -31,-877 -31,-1005 -23,-1005" /><polygon points="-39,-877 -31,-877 -31,-877 -71,-877 -71,-877" /><polygon points="-39,-1005 -39,-1005 -47,-1005 -71,-1005 -71,-1005" /><polygon points="-39,-1005 -39,-877 -39,-877 -39,-1005" /><polygon points="-31,-877 -39,-877 -39,-1005 -31,-1005" /><polygon points="-47,-877 -39,-877 -39,-877 -71,-877 -71,-877" /><polygon points="-47,-1005 -47,-1005 -55,-1005 -71,-1005 -71,-1005" /><polygon points="-47,-1005 -47,-877 -47,-877 -47,-1005" /><polygon points="-39,-877 -47,-877 -47,-1005 -39,-1005" /><polygon points="-55,-877 -47,-877 -47,-877 -71,-877 -71,-877" /><polygon points="-55,-1005 -55,-1005 -71,-1005 -71,-1005" /><polygon points="-55,-1005 -55,-877 -55,-877 -55,-1005" /><polygon points="-47,-877 -55,-877 -55,-1005 -47,-1005" /><polygon points="176,-1008 176,-1008 49,-1008 48,-1008 48,-1008" /><polygon points="-176,1008 -176,1008 -48,1008 -48,1008" /><polygon points="48,1008 48,1008 48,1008 -48,1008 -48,1008 -48,1008 -48,1008 48,1008" /><polygon points="176,784 176,960 176,1008 176,1008 176,960 176,784" /><polygon points="176,560 176,736 176,784 176,784 176,736 176,560" /><polygon points="176,336 176,512 176,560 176,560 176,512 176,336" /><polygon points="176,112 176,288 176,336 176,336 176,288 176,112" /><polygon points="176,-112 176,-64 176,64 176,112 176,112 176,64 176,-64 176,-112" /><polygon points="176,-336 176,-112 176,-112 176,-205 176,-336" /><polygon points="176,-560 176,-336 176,-336 176,-429 176,-560" /><polygon points="176,-784 176,-560 176,-560 176,-653 176,-784" /><polygon points="-176,-877 -176,-1005 -176,-1008 -176,-1008 -176,-877 -176,-784 -176,-784" /><polygon points="-48,64 -48,64 -64,64 -64,64" /><polygon points="64,64 64,64 48,64 48,64" /><polygon points="48,64 -48,64 -48,64 48,64" /><polygon points="176,-1008 48,-1008 48,-960 48,-784 176,-784" /><polygon points="48,-784 48,-736 48,-560 176,-560 176,-784" /><polygon points="48,-560 48,-512 48,-336 176,-336 176,-560" /><polygon points="48,-336 48,-288 48,-112 176,-112 176,-336" /><polygon points="48,-112 48,-64 64,-64 176,-64 176,-112" /><polygon points="-176,-1005 -176,-877 -71,-877 -71,-1005" /><polygon points="-48,-877 -48,-960 -48,-1008 -55,-1008 -55,-1005 -55,-877" /><polygon points="-176,-1008 -176,-1005 -71,-1005 -55,-1005 -55,-1008" /><polygon points="-55,-877 -71,-877 -176,-877 -176,-784 -176,-653 -48,-653 -48,-736 -48,-877" /><polygon points="-176,-653 -176,-560 -176,-429 -48,-429 -48,-512 -48,-653" /><polygon points="-176,-429 -176,-336 -176,-205 -48,-205 -48,-288 -48,-429" /><polygon points="-176,-205 -176,-112 -176,-64 -64,-64 -48,-64 -48,-205" /><polygon points="176,-64 64,-64 64,-48 64,48 64,64 176,64" /><polygon points="-48,48 48,48 64,48 64,-48 48,-48 -48,-48 -64,-48 -64,48" /><polygon points="48,-64 -48,-64 -48,-48 48,-48" /><polygon points="-64,48 -64,-48 -64,-64 -176,-64 -176,64 -64,64" /><polygon points="-48,48 -48,64 48,64 48,48" /><polygon points="-48,-64 48,-64 48,-64 -48,-64" /><polygon points="-48,-288 -48,-205 -48,-64 -48,-64 -48,-112 -48,-288" /><polygon points="-48,-512 -48,-429 -48,-288 -48,-288 -48,-336 -48,-512" /><polygon points="-48,-736 -48,-653 -48,-512 -48,-512 -48,-560 -48,-736" /><polygon points="-48,-960 -48,-877 -48,-736 -48,-736 -48,-784 -48,-960" /><polygon points="48,-1008 48,-1008 48,-960 48,-960" /><polygon points="-55,-877 -55,-877 -71,-877 -71,-877" /><polygon points="-64,-48 -64,-48 -64,-64 -64,-64" /><polygon points="-64,64 -64,64 -64,48 -64,48" /><polygon points="-64,-64 -64,-64 -48,-64 -48,-64" /><polygon points="48,-64 48,-64 64,-64 64,-64" /><polygon points="48,64 48,64 48,48 48,48" /><polygon points="48,-48 48,-48 48,-64 48,-64" /><polygon points="64,48 64,48 64,64 64,64" /><polygon points="64,-64 64,-64 64,-48 64,-48" /><polygon points="48,48 48,48 64,48 64,48" /><polygon points="64,-48 64,-48 48,-48 48,-48" /><polygon points="-48,48 -48,48 -48,64 -48,64" /><polygon points="-48,-64 -48,-64 -48,-48 -48,-48" /><polygon points="-64,48 -64,48 -48,48 -48,48" /><polygon points="-48,-48 -48,-48 -64,-48 -64,-48" /><polygon points="176,288 176,112 176,64 64,64 48,64 48,112 48,288" /><polygon points="176,512 176,336 176,288 48,288 48,336 48,512" /><polygon points="176,736 176,560 176,512 48,512 48,560 48,736" /><polygon points="176,960 176,784 176,736 48,736 48,784 48,960" /><polygon points="176,1008 176,960 48,960 48,1008" /><polygon points="-64,64 -176,64 -176,112 -176,288 -48,288 -48,112 -48,64" /><polygon points="-176,288 -176,336 -176,512 -48,512 -48,336 -48,288" /><polygon points="-176,512 -176,560 -176,736 -48,736 -48,560 -48,512" /><polygon points="-176,736 -176,784 -176,960 -48,960 -48,784 -48,736" /><polygon points="-176,960 -176,1008 -48,1008 -48,960" /><polygon points="48,64 48,64 48,112 48,112" /><polygon points="-48,784 -48,960 -48,1008 -48,1008 -48,960 -48,784" /><polygon points="-48,560 -48,736 -48,784 -48,784 -48,736 -48,560" /><polygon points="-48,336 -48,512 -48,560 -48,560 -48,512 -48,336" /><polygon points="-48,112 -48,288 -48,336 -48,336 -48,288 -48,112" /><polygon points="-176,-1008 -176,-1008 -48,-1008 -48,-1008" /><polygon points="176,1008 176,1008 48,1008 48,1008" /><polygon points="176,-1008 176,-1008 176,-877 176,-784 176,-784" /><polygon points="-176,784 -176,960 -176,1008 -176,1008 -176,960 -176,784" /><polygon points="-176,560 -176,736 -176,784 -176,784 -176,736 -176,560" /><polygon points="-176,336 -176,512 -176,560 -176,560 -176,512 -176,336" /><polygon points="-176,112 -176,288 -176,336 -176,336 -176,288 -176,112" /><polygon points="-176,-112 -176,-64 -176,64 -176,112 -176,112 -176,64 -176,19 -176,-112" /><polygon points="-176,-336 -176,-112 -176,-112 -176,-205 -176,-336" /><polygon points="-176,-560 -176,-336 -176,-336 -176,-429 -176,-560" /><polygon points="-176,-784 -176,-560 -176,-560 -176,-653 -176,-784" /><polygon points="48,-960 48,-1008 64,-1008 64,-784 48,-784" /><polygon points="64,-784 64,-560 48,-560 48,-736 48,-784" /><polygon points="64,-560 64,-336 48,-336 48,-512 48,-560" /><polygon points="64,-336 64,-112 48,-112 48,-288 48,-336" /><polygon points="64,-112 64,-64 48,-64 48,-112" /><polygon points="64,-1008 176,-1008 176,-784 64,-784" /><polygon points="176,-784 176,-560 64,-560 64,-784" /><polygon points="176,-560 176,-336 64,-336 64,-560" /><polygon points="176,-336 176,-112 64,-112 64,-336" /><polygon points="176,-112 176,64 64,64 64,48 64,-48 64,-64 64,-112" /><polygon points="-176,-1008 -48,-1008 -48,-960 -48,-784 -176,-784" /><polygon points="-48,-784 -48,-736 -48,-560 -176,-560 -176,-784" /><polygon points="-48,-560 -48,-512 -48,-336 -176,-336 -176,-560" /><polygon points="-48,-336 -48,-288 -48,-112 -176,-112 -176,-336" /><polygon points="-48,-112 -48,-64 -64,-64 -176,-64 -176,-112" /><polygon points="48,48 48,-48 64,-48 64,48" /><polygon points="-48,48 -48,-48 -48,-64 48,-64 48,-48 48,48 48,64 -48,64" /><polygon points="-64,48 -64,-48 -48,-48 -48,48" /><polygon points="-176,-64 -64,-64 -64,-48 -64,48 -64,64 -176,64" /><polygon points="-48,-1008 -48,-1008 -48,-960 -48,-960" /><polygon points="48,-288 48,-112 48,-64 48,-64 48,-112 48,-288" /><polygon points="48,-512 48,-336 48,-288 48,-288 48,-336 48,-512" /><polygon points="48,-736 48,-560 48,-512 48,-512 48,-560 48,-736" /><polygon points="48,-960 48,-784 48,-736 48,-736 48,-784 48,-960" /><polygon points="48,288 48,112 48,64 64,64 176,64 176,112 176,288" /><polygon points="48,512 48,336 48,288 176,288 176,336 176,512" /><polygon points="48,736 48,560 48,512 176,512 176,560 176,736" /><polygon points="48,960 48,784 48,736 176,736 176,784 176,960" /><polygon points="48,1008 48,960 176,960 176,1008" /><polygon points="-176,288 -176,112 -176,64 -64,64 -48,64 -48,112 -48,288" /><polygon points="-176,512 -176,336 -176,288 -48,288 -48,336 -48,512" /><polygon points="-176,736 -176,560 -176,512 -48,512 -48,560 -48,736" /><polygon points="-176,960 -176,784 -176,736 -48,736 -48,784 -48,960" /><polygon points="-176,1008 -176,960 -48,960 -48,1008" /><polygon points="48,784 48,960 48,1008 48,1008 48,960 48,784" /><polygon points="48,560 48,736 48,784 48,784 48,736 48,560" /><polygon points="48,336 48,512 48,560 48,560 48,512 48,336" /><polygon points="48,112 48,288 48,336 48,336 48,288 48,112" /><polygon points="-48,64 -48,64 -48,112 -48,112" /><polygon points="48,-64 48,-64 64,-64 64,-64" /><polygon points="48,-48 48,-48 48,-64 48,-64" /><polygon points="64,-64 64,-64 64,-48 64,-48" /><polygon points="64,-48 64,-48 48,-48 48,-48" /><polygon points="64,-48 48,-48 48,-64 64,-64" /><polygon points="48,-1008 48,-1008 48,-1008 -48,-1008 -48,-1008 -48,-1008" /><polygon points="176,-1008 176,-1008 64,-1008 48,-1008 48,-1008" /><polygon points="-48,1008 -176,1008 -176,1008 -48,1008" /><polygon points="176,784 176,960 176,1008 176,1008 176,960 176,784" /><polygon points="176,560 176,736 176,784 176,784 176,736 176,560" /><polygon points="176,336 176,512 176,560 176,560 176,512 176,336" /><polygon points="176,112 176,288 176,336 176,336 176,288 176,112" /><polygon points="176,-112 176,19 176,64 176,112 176,112 176,64 176,-112" /><polygon points="176,-336 176,-205 176,-112 176,-112 176,-336" /><polygon points="176,-560 176,-429 176,-336 176,-336 176,-560" /><polygon points="176,-784 176,-653 176,-560 176,-560 176,-784" /><polygon points="-176,-877 -176,-1008 -176,-1008 -176,-784 -176,-784" /><polygon points="64,64 64,64 48,64 48,64" /><polygon points="-48,64 -48,64 -64,64 -64,64" /><polygon points="48,-1008 -48,-1008 -176,-1008 -176,-877 -64,-877 48,-877" /><polygon points="64,-877 176,-877 176,-1008 48,-1008 48,-877" /><polygon points="64,-653 64,-877 48,-877 -64,-877 -64,-653" /><polygon points="64,-429 64,-653 -64,-653 -64,-429" /><polygon points="64,-205 64,-429 -64,-429 -64,-205" /><polygon points="-48,-64 48,-64 64,-64 64,-205 -64,-205 -64,-64" /><polygon points="176,-784 176,-877 64,-877 64,-653 176,-653" /><polygon points="64,-653 64,-429 176,-429 176,-560 176,-653" /><polygon points="64,-429 64,-205 176,-205 176,-336 176,-429" /><polygon points="64,-205 64,-64 64,19 176,19 176,-112 176,-205" /><polygon points="64,19 64,48 64,64 176,64 176,19" /><polygon points="-64,-877 -176,-877 -176,-784 -176,-653 -64,-653" /><polygon points="-176,-653 -176,-560 -176,-429 -64,-429 -64,-653" /><polygon points="-176,-429 -176,-336 -176,-205 -64,-205 -64,-429" /><polygon points="-176,-205 -176,-112 -176,19 -64,19 -64,-48 -64,-64 -64,-205" /><polygon points="-176,19 -176,64 -64,64 -64,48 -64,19" /><polygon points="48,-64 48,48 64,48 64,19 64,-64" /><polygon points="48,48 48,-64 -48,-64 -48,-48 -48,48 -48,64 48,64" /><polygon points="-64,-48 -64,19 -64,48 -48,48 -48,-48" /><polygon points="-64,-64 -64,-64 -48,-64 -48,-64" /><polygon points="48,64 48,64 48,48 48,48" /><polygon points="48,48 48,48 64,48 64,48" /><polygon points="64,48 64,48 64,64 64,64" /><polygon points="-64,-48 -64,-48 -64,-64 -64,-64" /><polygon points="-64,64 -64,64 -64,48 -64,48" /><polygon points="-48,-48 -48,-48 -64,-48 -64,-48" /><polygon points="-48,-64 -48,-64 -48,-48 -48,-48" /><polygon points="-64,48 -64,48 -48,48 -48,48" /><polygon points="-48,48 -48,48 -48,64 -48,64" /><polygon points="48,64 -48,64 -64,64 -176,64 -176,112 -176,288 48,288" /><polygon points="-176,288 -176,336 -176,512 48,512 48,288" /><polygon points="-176,512 -176,560 -176,736 48,736 48,512" /><polygon points="-176,736 -176,784 -176,960 48,960 48,736" /><polygon points="-176,960 -176,1008 -48,1008 48,1008 48,960" /><polygon points="176,288 176,112 176,64 64,64 48,64 48,288" /><polygon points="176,512 176,336 176,288 48,288 48,512" /><polygon points="176,736 176,560 176,512 48,512 48,736" /><polygon points="176,960 176,784 176,736 48,736 48,960" /><polygon points="176,1008 176,960 48,960 48,1008" /></g></defs><rect fill="#fff" height="2086.0" id="background" width="422.0" x="-211.0" y="-1043.0" /><use fill="none" stroke="black" stroke-miterlimit="0" stroke-width="15" xlink:href="#bsp_ref" /><use fill="white" stroke="black" stroke-width="1" xlink:href="#bsp_ref" /></svg>