<svg viewBox="-1062 -966 1996 2028" xmlns="http://www.w3.org/2000/svg" xmlns:xlink="http://www.w3.org/1999/xlink"><defs><g id="a"><path d="m-176 32h-240z"/><path d="m64 32h-240z"/><path d="m304 32h-120-120z"/><path d="m424 32h-40-64-16z"/><path d="m-464-64h48v96h-48z"/><path d="m-416 32v-96z"/><path d="m624 160h-200z"/><path d="m624 32v128z"/><path d="m384 128v-16-32-16-32h40 200v128h-200-40z"/><path d="m320 80 16-16h32l16 16v32l-16 16h-32l-16-16z"/><path d="m368 64h16v16z"/><path d="m320 32h64v32h-16-32-16z"/><path d="m320 80v-16h16z"/><path d="m184 160h-120v-128h120z"/><path d="m304 32h16v32 16 32 16 32h-16-120v-128z"/><path d="m336 128h-16v-16z"/><path d="m320 128h16 32 16v32h-64z"/><path d="m384 112v16h-16z"/><path d="m-176 160h-240v-8-120h240z"/><path d="m64 160h-240v-128h240z"/><path d="m-464 304h48z"/><path d="m-416 32v120h-48v-120z"/><path d="m-416 152v8 144h-48v-120-32z"/><path d="m-464 184v120z"/><path d="m-464 32v120 32-32z"/><path d="m624 32v128z"/><path d="m-464-64h48z"/><path d="m-464-64v96z"/><path d="m-480-64h16v96h-16z"/><path d="m640 32v120 8z"/><path d="m624 160h16z"/><path d="m624 32h16v128h-16z"/><path d="m-416 304v-144z"/><path d="m-480 304h16 48z"/><path d="m-464 32v120h-16v-120z"/><path d="m-464 152v32 120h-16v-120-32z"/><path d="m-480 184v120z"/><path d="m-480 32v120 32-32z"/><path d="m624 32h-200z"/><path d="m624 32h16z"/><path d="m-176 32h-240z"/><path d="m64 32h-240z"/><path d="m304 32h-240z"/><path d="m424 32h-120z"/><path d="m768-128v160z"/><path d="m640-128h128v160h-128z"/><path d="m-496-64h16v96h-16z"/><path d="m-480-64h64-48z"/><path d="m-480-64v96z"/><path d="m640 352h128z"/><path d="m768 32v120h-128v-120z"/><path d="m768 152v80 120h-128v-192-8z"/><path d="m624 160h16-216z"/><path d="m304 160h-240 120z"/><path d="m424 160h-120 16 64z"/><path d="m-176 160h-240z"/><path d="m64 160h-240z"/><path d="m-480 304h64-80z"/><path d="m-496 184v120z"/><path d="m-496 32v120 32z"/><path d="m-480 32v120h-16v-120z"/><path d="m-480 152v32 120h-16v-120-32z"/><path d="m640 32h-16-200z"/><path d="m-176 32h-240 32 120z"/><path d="m64 32h-240 32z"/><path d="m304 32h-240z"/><path d="m424 32h-120z"/><path d="m768-128v160z"/><path d="m640-128v160z"/><path d="m640-128h128z"/><path d="m640-128h128v160h-128z"/><path d="m768-128h-128v160h128z"/><path d="m-416-64h-64-16z"/><path d="m-416 32v-96z"/><path d="m-496-64v96z"/><path d="m-416-64h-80v96h80z"/><path d="m-496-64h80v96h-80z"/><path d="m640 160v192z"/><path d="m640 352h128z"/><path d="m768 232v120z"/><path d="m768 32v200-80z"/><path d="m768 32v200 120h-128v-192-128z"/><path d="m640 32v128 192h128v-120-200z"/><path d="m640 160h-216z"/><path d="m304 160h-240z"/><path d="m424 160h-120z"/><path d="m304 32h120 216v128h-216-120-240v-128z"/><path d="m304 160h120 216v-128h-216-120-240v128z"/><path d="m-416 304v-144z"/><path d="m-176 160h-240z"/><path d="m64 160h-240z"/><path d="m64 160h-240-240v-128h240 240z"/><path d="m64 32h-240-240v128h240 240z"/><path d="m-416 304h-80z"/><path d="m-496 184v120z"/><path d="m-496 32v152-32z"/><path d="m-416 32v128 144h-80v-120-152z"/><path d="m-496 32v152 120h80v-144-128z"/><path d="m640 32h-216z"/><path d="m768-128v-32 192z"/><path d="m768-160h-128z"/><path d="m640 32v-160z"/><path d="m640-128v-32h128v32z"/><path d="m640-128h128z"/><path d="m-496-64h80z"/><path d="m-416-64v96z"/><path d="m-512-64h16v96h-16z"/><path d="m-496-64v96z"/><path d="m640 384v-32h128v32z"/><path d="m640 384h128z"/><path d="m304 32h-240v4h240z"/><path d="m424 32h-120v4h120z"/><path d="m640 160v-4h-216v4z"/><path d="m640 160v192z"/><path d="m768 232v32 88z"/><path d="m768 32v200z"/><path d="m304 160h-240z"/><path d="m424 160h-120z"/><path d="m-496 32v120h-16v-120z"/><path d="m-496 152v32 120h-16v-120-32z"/><path d="m-264 32h-120v4h120z"/><path d="m-144 32h-32-88v4h120z"/><path d="m64 32h-208v4h208z"/><path d="m-496 304h80-96z"/><path d="m-416 160h32z"/><path d="m-512 184v120-16z"/><path d="m-512 32v120 32-32z"/><path d="m-416 160v144z"/><path d="m-176 160h-88-120-32z"/><path d="m64 160h-208-32z"/><path d="m768-160h-128z"/><path d="m-511-16v-16z"/><path d="m-511-32h94z"/><path d="m-417-32h-94v16h94z"/><path d="m-511 32v-16z"/><path d="m-511 16h94z"/><path d="m-417 16h-94v16h94z"/><path d="m640 384h128z"/><path d="m-417 160h-94z"/><path d="m-511 176v-16z"/><path d="m-511 224v-16z"/><path d="m-417 208h-94z"/><path d="m-417 176v-16h-94v16z"/><path d="m-417 224v-16h-94v16z"/><path d="m-417 256h-94z"/><path d="m-511 272v-16z"/><path d="m-417 272v-16h-94v16z"/><path d="m-511 32h94z"/><path d="m-416 32h32z"/><path d="m-64-416v-128z"/><path d="m768-552v-120 152 72z"/><path d="m600-160h40-136z"/><path d="m376-672h-120z"/><path d="m496-672h-112-8z"/><path d="m752-688v16h-96v-16z"/><path d="m656-736h96v48h-96z"/><path d="m752-672v-16z"/><path d="m752-688v-48z"/><path d="m656-688h96z"/><path d="m384-672h112 8v120h-120z"/><path d="m504-552v120h-120v-112-8z"/><path d="m504-432v144h-24-64-32v-8-120-16z"/><path d="m504-672h120v120h-120z"/><path d="m624-552v120h-120v-120z"/><path d="m624-432v144h-24-96v-144z"/><path d="m624-672h16 16 96 16v120h-144z"/><path d="m768-552v104 16h-144v-120z"/><path d="m768-432v104 40h-144v-144z"/><path d="m600-160h-96-24v-32-16-32-16-32h24 96z"/><path d="m624-288h144v80 48h-128-40v-128z"/><path d="m384-160v-128h32v32 16 32 16 32z"/><path d="m464-256h-32-16v-32h64v32z"/><path d="m432-256h32l16 16v32l-16 16h-32l-16-16v-32z"/><path d="m432-192h-16v-16z"/><path d="m464-256h16v16z"/><path d="m416-240v-16h16z"/><path d="m480-208v16h-16z"/><path d="m416-160v-32h16 32 16v32z"/><path d="m256-544v-128h120 8v120 8z"/><path d="m184-416h-120v-128h120z"/><path d="m256-544h128v112 16h-128-64-8v-128z"/><path d="m256-296v-120h128v120z"/><path d="m256-288v-8h128v8 128z"/><path d="m56-288h-120v-128h120z"/><path d="m64-416h120 8v128h-128-8v-128z"/><path d="m56-288h8-128z"/><path d="m192-288v-128 32z"/><path d="m192-416h64z"/><path d="m640-128v-32z"/><path d="m-768 32v-64l64-64h64v128z"/><path d="m-511 16h94v16h-94z"/><path d="m-511-32h94v16h-94z"/><path d="m-384-64v96h-32v-96z"/><path d="m-384-96v32h-32-96v-32z"/><path d="m-560-480h32l16 16v32l-16 16h-32l-16-16v-32z"/><path d="m-560-416h-16v-16z"/><path d="m-528-480h16v16z"/><path d="m-640-480h64v16 32 16h-64z"/><path d="m-576-544h64v64h-16-32-16-64z"/><path d="m-576-464v-16h16z"/><path d="m-512-432v8 8h-16z"/><path d="m-640-336v-80h64 16 32 16v120h-128z"/><path d="m-512-296v8 112h-128v-40-80z"/><path d="m-512-176v80 32 96h-128v-128-80z"/><path d="m-512-432v-32-16-64h120v120h-120z"/><path d="m-392-424v136h-120v-8-120-8z"/><path d="m-392-544h56 80v120h-136z"/><path d="m-256-424v8 96 32h-136v-136z"/><path d="m-216-544h152v128h-128-64v-8-120z"/><path d="m-64-288h-128v-32-96h128z"/><path d="m-640-216v40 80z"/><path d="m-640-336v40 80z"/><path d="m-256-288h-136z"/><path d="m-256-416h64z"/><path d="m-336-544h-56-120-64 120z"/><path d="m-216-544h-40-80 80z"/><path d="m-256-320v-96 32z"/><path d="m-384-64v-32 128z"/><path d="m-512-64h96-80z"/><path d="m-416-64v96z"/><path d="m-512-64v96z"/><path d="m-511-16h94z"/><path d="m-417-16v-16z"/><path d="m-417 32v-16z"/><path d="m768 264v88 32-32z"/><path d="m768 32v200 32-32z"/><path d="m640 32v4z"/><path d="m640 160v-4z"/><path d="m640 352v-176-16 192 32z"/><path d="m640 352v32 32z"/><path d="m640 416h128z"/><path d="m640 416v-32h128v32z"/><path d="m-768 168v24 96z"/><path d="m-768 32v32 104z"/><path d="m-416 352h-64-32z"/><path d="m-384 32v4z"/><path d="m-384 160v-4z"/><path d="m-384 304v-144 72 120z"/><path d="m-417 256v16h-94v-16z"/><path d="m-417 208v16h-94v-16z"/><path d="m-417 160v16h-94v-16z"/><path d="m-416 160h32v144h-32z"/><path d="m-416 160v144z"/><path d="m-417 224h-94z"/><path d="m-417 176v-16z"/><path d="m-417 224v-16z"/><path d="m-417 176h-94z"/><path d="m-417 272v-16z"/><path d="m-417 272h-94z"/><path d="m-416 304h32v48h-32-96v-48z"/><path d="m-512 32v120h-128v-88-32z"/><path d="m-512 152v32 104h-128v-96-40z"/><path d="m-768 168v-104h128v88 40h-128z"/><path d="m-768 64v-32h128v32z"/><path d="m-640 192v96h-8-120v-96z"/><path d="m-648 352h-56l-64-64h120z"/><path d="m-640 288h128v16 48h-128-8v-64z"/><path d="m-640 352h128v120h-128z"/><path d="m-512 472v16 104h-128v-104-16z"/><path d="m-512 592v16 128h-96l-32-32v-96-16z"/><path d="m-640 488v104 16z"/><path d="m-512 472v-120 120 16z"/><path d="m-608 736h96z"/><path d="m640-416h-64z"/><path d="m576-352v-64z"/><path d="m640-352v-64h-64v64z"/><path d="m64-288h-128z"/><path d="m-64-288h-128z"/><path d="m640 416h128z"/><path d="m-512 608v128z"/><path d="m640 36v12-16z"/><path d="m640 156v-12h-216v12z"/><path d="m640 36v-4h-216v4z"/><path d="m304 156h-240v4h240z"/><path d="m424 156h-120v4h120z"/><path d="m304 36h-240v12h240z"/><path d="m424 36h-120v12h120z"/><path d="m-384 156v-12 16z"/><path d="m-264 156h-120v4h120z"/><path d="m-144 156h-120v4h88 32z"/><path d="m64 156h-208v4h208z"/><path d="m-264 36h-120v12h120z"/><path d="m-144 36h-120v12h120z"/><path d="m64 36h-208v12h208z"/><path d="m-64-288v32z"/><path d="m64-256h-128z"/><path d="m64-288v32h-128v-32z"/><path d="m768 352v64-32z"/><path d="m640 352v64 32z"/><path d="m640 448h128z"/><path d="m640 448v-32h128v32z"/><path d="m-608 736h96 32z"/><path d="m-512 608v128z"/><path d="m-480 736h-32v-128h32z"/><path d="m-608 736-32-32z"/><path d="m64-256h-128z"/><path d="m640 448h128z"/><path d="m-480 608v128z"/><path d="m-64-288v32 32z"/><path d="m64-288v32z"/><path d="m64-224h-128z"/><path d="m64-256v32h-128v-32z"/><path d="m768 352v96-32z"/><path d="m640 480h128z"/><path d="m640 480v-32h128v32z"/><path d="m304 144h-240v12h240z"/><path d="m424 144h-120v12h120z"/><path d="m640 144v-20h-216v20z"/><path d="m304 48h-240v20h240z"/><path d="m424 48h-120v20h120z"/><path d="m640 48v-12h-216v12z"/><path d="m-264 144h-120v12h120z"/><path d="m-144 144h-120v12h120z"/><path d="m64 144h-208v12h208z"/><path d="m-264 48h-120v20h120z"/><path d="m-144 48h-120v20h120z"/><path d="m64 48h-208v20h208z"/><path d="m-608 736h128 32z"/><path d="m-480 608v128z"/><path d="m-448 736h-32v-128h32z"/><path d="m64-224h-128z"/><path d="m640 480h128z"/><path d="m640 480v-128 96z"/><path d="m-448 608v128z"/><path d="m640 124v20 16z"/><path d="m304 68h-240v28h240z"/><path d="m424 68h-120v28h120z"/><path d="m304 124h-240v20h240z"/><path d="m424 124h-120v20h120z"/><path d="m640 68v-20h-216v20z"/><path d="m640 124v-28h-216v28z"/><path d="m-384 68v-20-16z"/><path d="m-384 68v-36 48 16z"/><path d="m-264 68h-120v28h120z"/><path d="m-144 68h-120v28h120z"/><path d="m64 68h-208v28h208z"/><path d="m-264 124h-120v20h120z"/><path d="m-144 124h-120v20h120z"/><path d="m64 124h-208v20h208z"/><path d="m-64-288v64 32-32z"/><path d="m64-288v64-32z"/><path d="m64-192h-128z"/><path d="m64-224v32h-128v-32z"/><path d="m640 32v16 20z"/><path d="m640 80v-48 36 28z"/><path d="m640 160v-16 12z"/><path d="m640 176v-16z"/><path d="m640 96v28 36z"/><path d="m640 96v-28h-216v28z"/><path d="m304 96h-240v28h240z"/><path d="m424 96h-120v28h120z"/><path d="m640 480v32z"/><path d="m640 512h128z"/><path d="m640 512v-32h128v32z"/><path d="m-384 32v16-12z"/><path d="m-384 160v-64-16z"/><path d="m-384 160v-36-28z"/><path d="m-384 160v-16-20z"/><path d="m-264 96h-120v28h120z"/><path d="m-144 96h-120v28h120z"/><path d="m64 96h-208v28h208z"/><path d="m-608 736h160 32-96z"/><path d="m-448 608v128z"/><path d="m-416 736h-32v-128h32z"/><path d="m64-192h-128z"/><path d="m640 512h128z"/><path d="m-416 608v128z"/><path d="m-64-416v-128z"/><path d="m-64-288v64z"/><path d="m256-544v-128z"/><path d="m256-288v-96-32 120z"/><path d="m192-288h-128z"/><path d="m64-416v-128z"/><path d="m64-544h192-72z"/><path d="m192-384v-32z"/><path d="m192-288v-96z"/><path d="m192-416h64z"/><path d="m64-416h-8-120z"/><path d="m64-192v32h-96-32v-32z"/><path d="m64-160v-32-96z"/><path d="m64-288v96-32z"/><path d="m256-160v192z"/><path d="m-64-160h32v192h-32z"/><path d="m88 32h-24-96v-192h96 24z"/><path d="m256-160v192h-168v-192z"/><path d="m-640-216v120z"/><path d="m-640-336v120-104z"/><path d="m-640-480v64 80z"/><path d="m-512-288h32z"/><path d="m-392-288h-88-32z"/><path d="m-392-288h136-224z"/><path d="m-256-416h64z"/><path d="m-456-544h-120z"/><path d="m-64-544h-152z"/><path d="m-640-480 64-64z"/><path d="m-256-320v-64z"/><path d="m-256-384v-32z"/><path d="m-256-320v32z"/><path d="m-192-320v-64-32z"/><path d="m-384-96v128z"/><path d="m-256-160h192v192h-192z"/><path d="m-480-96h96-128z"/><path d="m-512-288v192-80z"/><path d="m-704-96h64z"/><path d="m768 480v32z"/><path d="m640 80v-48z"/><path d="m640 352v-64-56z"/><path d="m640 80v16 64 16z"/><path d="m640 232v-56 176z"/><path d="m128 224h-32-32z"/><path d="m88 32h168v32h-192v-32z"/><path d="m64 64h192v64h-192z"/><path d="m64 128h192v96h-128-64z"/><path d="m384 352h32v32 16 32 16 32h-32z"/><path d="m432 384h32l16 16v32l-16 16h-32l-16-16v-32z"/><path d="m432 448h-16v-16z"/><path d="m464 384h16v16z"/><path d="m416 400v-16h16z"/><path d="m480 432v16h-16z"/><path d="m416 448h16 32 16v32h-64z"/><path d="m416 352h64v32h-16-32-16z"/><path d="m504 480h-24v-32-16-32-16-32h32 128v128z"/><path d="m96 832v32l-32 16v-48z"/><path d="m96 736v96h-32v-96z"/><path d="m216 864h-120v-32-96h120z"/><path d="m336 864h-120v-128h40 80z"/><path d="m384 736h128v128h-176v-128z"/><path d="m384 672h120 8v64h-128z"/><path d="m384 616v-136h32 64 24v192h-120z"/><path d="m504 480h136v32 160h-128-8z"/><path d="m640 512h128v160h-128z"/><path d="m512 864h-176z"/><path d="m384 616v56 64-64z"/><path d="m384 480v136z"/><path d="m640 672h128z"/><path d="m512 864v-128-64z"/><path d="m96 864-32 16z"/><path d="m-32 896h24 16 24z"/><path d="m-256 224h128z"/><path d="m-64 32h32v32 16 32 16 96h-96-128v-192z"/><path d="m-16 128h-16v-16z"/><path d="m32 112v16h-16z"/><path d="m-32 128h16 32 16 32v96h-96z"/><path d="m-32 80 16-16h32l16 16v32l-16 16h-32l-16-16z"/><path d="m16 64h16v16z"/><path d="m-32 80v-16h16z"/><path d="m32 112v-32-16h32v64h-32z"/><path d="m64 64h-32-16-32-16v-32h96z"/><path d="m-256 32v192z"/><path d="m-96 864v-128h32 32v96 24 16 24z"/><path d="m-264 864h-56l-64-64v-64h120z"/><path d="m-128 736h32v128h-168v-128z"/><path d="m-384 608h120v128h-120z"/><path d="m-264 608h136v128h-136z"/><path d="m-264 608h-120v-128h120z"/><path d="m-256 480 128 128h-136v-128z"/><path d="m8 840v-8h24v24h-8-16z"/><path d="m-32 872h8 16v16 8h-24z"/><path d="m-24 856h16 16 16v16h-16-16-16z"/><path d="m-8 888h16v8h-16z"/><path d="m24 856h8v16h-8z"/><path d="m-8 832h16v8h-16z"/><path d="m-32 856h8v16h-8z"/><path d="m-8 840h16v16h-16z"/><path d="m-8 872h16v16h-16z"/><path d="m8 888v-16h16 8v24h-24z"/><path d="m-32 832h24v8 16h-16-8z"/><path d="m64 880-32 16v-24-16-24h32z"/><path d="m64 832h-32-24-16-24v-96h96z"/><path d="m-384 800 64 64z"/><path d="m-264 864h168-32-136-56z"/><path d="m-128 608v128z"/><path d="m-608 736h96z"/><path d="m-416 608h32v128h-32z"/><path d="m-416 608v128z"/><path d="m256 224h-128z"/><path d="m64 736h120 72-40-120z"/><path d="m-256 224h128z"/><path d="m-384 608v-128z"/><path d="m64 736h-96-32z"/><path d="m-384 480h128-8z"/><path d="m-416 608h32z"/><path d="m256-160v192z"/><path d="m-256-160v192z"/><path d="m256 232v120h-128v-128h128z"/><path d="m96 224h-32z"/><path d="m256 224h-128z"/><path d="m256 32v192-96-64z"/><path d="m-256 352h128z"/><path d="m-384 352h-32z"/><path d="m-384 160v-80 152z"/><path d="m-256 240v-16h128v128h-128z"/><path d="m-128 224v128z"/><path d="m-128 224h32z"/><path d="m64 224h-160-32 96z"/><path d="m-384 608v-128z"/><path d="m64 736h-128z"/><path d="m64 704v32h-128v-32z"/><path d="m-256 480 120 120 8 8z"/><path d="m-416 608h32z"/><path d="m-448 608h32z"/><path d="m-416 480h32v128h-32z"/><path d="m64 704v8 24z"/><path d="m128 352v-128z"/><path d="m128 224h-32z"/><path d="m-128 224v128z"/><path d="m-128 224h32z"/><path d="m64 704h-128z"/><path d="m-448 608h32z"/><path d="m-416 480h32z"/><path d="m-416 608v-128z"/><path d="m256-384v-32z"/><path d="m256-288v-96z"/><path d="m192-288v-96-32z"/><path d="m192-416h64z"/><path d="m-256-416h64z"/><path d="m-256-320v-64-32 96 32z"/><path d="m-192-384v-32z"/><path d="m-192-320v-64z"/><path d="m-192-288v-32z"/><path d="m64 704v-32z"/><path d="m768 696v-24z"/><path d="m128 352h128-128-32z"/><path d="m256 352h-128z"/><path d="m128 352v-128z"/><path d="m128 224h-32z"/><path d="m128 352h-32v-128h32z"/><path d="m640 672h-128z"/><path d="m640 696h128z"/><path d="m640 672h128v24h-128z"/><path d="m-256 352h128 32z"/><path d="m-416 352h-64z"/><path d="m-96 224v128z"/><path d="m64 224h-128-32z"/><path d="m64 224h-128z"/><path d="m-96 224h32z"/><path d="m-128 224h32v128h-32z"/><path d="m-256 352v-112z"/><path d="m64 704h-128z"/><path d="m64 672v32h-128v-32z"/><path d="m-384 480h128z"/><path d="m-448 608h32z"/><path d="m-480 608h32z"/><path d="m-416 608v-128z"/><path d="m-448 480h32v128h-32z"/><path d="m96 224h-32z"/><path d="m96 352v-128z"/><path d="m-96 224v128z"/><path d="m-96 224h32z"/><path d="m64 672h-128z"/><path d="m-480 608h32z"/><path d="m-448 480h64-32z"/><path d="m-448 608v-128z"/><path d="m752-672h16z"/><path d="m640-672h16z"/><path d="m752-736h-96v48h96z"/><path d="m656-688v16h96v-16z"/><path d="m656-688v-48z"/><path d="m656-672v-16z"/><path d="m656-688h96z"/><path d="m656-736h96z"/><path d="m-512-288h-32z"/><path d="m-512-288h32-8z"/><path d="m-512-96h32z"/><path d="m-512-288v192z"/><path d="m64 704v-32-32z"/><path d="m128 352h128z"/><path d="m96 352h-32v-128h32z"/><path d="m96 224h-32z"/><path d="m96 352v-128z"/><path d="m-480 352h-32z"/><path d="m64 224h-128z"/><path d="m-64 224v128z"/><path d="m-96 224h32v128h-32z"/><path d="m64 672h-128z"/><path d="m64 640v32h-128v-32z"/><path d="m-384 480h128z"/><path d="m-512 608h32z"/><path d="m-480 608h32z"/><path d="m-480 480h32v128h-32z"/><path d="m-512 352h-32v120h32z"/><path d="m-512 488v120-16z"/><path d="m-448 608v-128z"/><path d="m64 640h-128z"/><path d="m-512 608h32z"/><path d="m-480 480h96-64z"/><path d="m-480 608v-128z"/><path d="m-64-416v128 64-64z"/><path d="m-64-224v32 32z"/><path d="m768-672v152z"/><path d="m768-208v48 192-192z"/><path d="m768-328v120-80z"/><path d="m768-448v48 72-104z"/><path d="m504-160h-120z"/><path d="m504-160h-120 32 64z"/><path d="m496-672h-120-120 48 32 48 32z"/><path d="m616-672h-120 112z"/><path d="m768-672h-16-96-16z"/><path d="m616-672h24-16-120-8z"/><path d="m256-544v-128z"/><path d="m256-536v120z"/><path d="m256-288v-8-120 64z"/><path d="m256-288v-8-120 32z"/><path d="m640-416h-64z"/><path d="m384-416h192-200z"/><path d="m640-352v-64z"/><path d="m576-352h64z"/><path d="m504-352h72v-64h-192v64z"/><path d="m504-352h-120v56 136h120z"/><path d="m640-160v-192h-64-72v192z"/><path d="m384-352v-64h-8-120v120h128z"/><path d="m256-296v8l128 128v-136z"/><path d="m384-160h-128v-128z"/><path d="m384-160-128-128z"/><path d="m64-416v-8-120z"/><path d="m64-544h128 64z"/><path d="m256-536v-8h-64v120 8h64z"/><path d="m192-416h64v120 8h-64z"/><path d="m192-424v-120h-128v120z"/><path d="m64-416v128h128v-128-8h-128z"/><path d="m64-416h-128z"/><path d="m640-160v192z"/><path d="m640-160v32 160z"/><path d="m768-160h-128v192h128z"/><path d="m384-160h120v192h-120z"/><path d="m504-160h136v192h-136z"/><path d="m-768-32v64z"/><path d="m-608-96h24 40v-192h-64z"/><path d="m-640-216v120h32v-192l-32-32z"/><path d="m-64-416h-128v128h128z"/><path d="m-64-544h-192v128h64 128z"/><path d="m-640-480v144 16z"/><path d="m-456-544h-120z"/><path d="m-640-320 32 32z"/><path d="m-384-96v128z"/><path d="m-584-96h-24-32-64 56z"/><path d="m-640-480v144z"/><path d="m-256-544h-80-120z"/><path d="m-256-544h192-152z"/><path d="m-640-480 64-64z"/><path d="m-192-416v32 64 32z"/><path d="m-256-160v192z"/><path d="m-64-160h-192z"/><path d="m-384-96h-96z"/><path d="m-512-96h32z"/><path d="m-544-96h32z"/><path d="m-544-288v192h32v-192z"/><path d="m-704-96h64z"/><path d="m-768-32 64-64z"/><path d="m64 352v-128z"/><path d="m64 472v-120 232z"/><path d="m768 232v120-88z"/><path d="m768 32v120 80z"/><path d="m768 696v-24 192z"/><path d="m640 232v-64-16-72 96z"/><path d="m640 32v48 72h128v-120z"/><path d="m640 152v16 64 56 64h128v-120-80z"/><path d="m384 168v120z"/><path d="m384 32v120 16z"/><path d="m640 288h-128-8z"/><path d="m384 152v-120h120v120z"/><path d="m504 288h-120v-120-16h120z"/><path d="m640 32v48 72h-136v-120z"/><path d="m640 152v16 64 56h-136v-136z"/><path d="m640 864h128z"/><path d="m640 696v-24z"/><path d="m640 696h128v168h-128z"/><path d="m-768 168v120z"/><path d="m-768 32v136-16z"/><path d="m-544 352h64 64 32-144-56z"/><path d="m-544 352h32 32z"/><path d="m-640 352h-64 56z"/><path d="m-384 32v48z"/><path d="m-384 232v120z"/><path d="m64 224v128h-128v-128z"/><path d="m-256 32v192 16-32-96-32z"/><path d="m-704 352-64-64z"/><path d="m-768 288 64 64z"/><path d="m-64 704v-32z"/><path d="m-64 672v-32z"/><path d="m-64 584v56 32 32-112z"/><path d="m64 352v120h-128v-120z"/><path d="m64 472v112 56h-128v-56-112z"/><path d="m64 640h-128z"/><path d="m-384 480h128z"/><path d="m-512 608h32z"/><path d="m-544 608h32z"/><path d="m-640 472v-120 120 16z"/><path d="m-384 480h-96-32z"/><path d="m-480 608v-128z"/><path d="m-512 480h32v128h-32z"/><path d="m-544 352h-40-56v120h96z"/><path d="m-640 472v16 120h96v-136z"/><path d="m-544 472v136h32v-120-16z"/><path d="m-544 608h32z"/><path d="m-512 608v-128z"/><path d="m-768-32v64z"/><path d="m-528-96h144-96-32-32-40z"/><path d="m-648-96h-56l-64 64v64h120z"/><path d="m-528-96h-56-64v128h120z"/><path d="m-384-96h-144v128h144z"/><path d="m-704-96-64 64z"/><path d="m-584 352h-64-56 64z"/><path d="m-768 32v120h120v-120z"/><path d="m-768 152v16 120l64 64h56v-200z"/><path d="m-528 152v-120h-120v120z"/><path d="m-648 352h64 56v-200h-120z"/><path d="m-384 152v-120h-144v120z"/><path d="m-528 352h144v-120-80h-144z"/><path d="m-384 232v120z"/><path d="m-384 32v120 80-152z"/><path d="m-256 480h-128z"/><path d="m-544 608h32z"/><path d="m-640 608h64 32z"/><path d="m-544 480h32v128h-32z"/><path d="m-384 480h-128-32z"/><path d="m-512 608v-128z"/><path d="m-576 608h32z"/><path d="m-544 608v-128z"/><path d="m576-160h64-136z"/><path d="m384-160h-128z"/><path d="m256-160h128z"/><path d="m256-288v-64 32z"/><path d="m576-416h-200z"/><path d="m376-416h-120z"/><path d="m640-160v-192z"/><path d="m640-352v192z"/><path d="m640-352v-64z"/><path d="m576-352v192h-72-120v-128-64z"/><path d="m384-288v128l-128-128z"/><path d="m256-288 128 128z"/><path d="m256-288h-48-16z"/><path d="m384-160v192z"/><path d="m256-160v192z"/><path d="m-640-480v160z"/><path d="m-456-544h-120z"/><path d="m-256-544h-200z"/><path d="m-640-480 64-64z"/><path d="m-640-320 32 32z"/><path d="m512 352h128z"/><path d="m384 168v120z"/><path d="m384 32v136-8-32-64z"/><path d="m504 288h-120z"/><path d="m512 288h128z"/><path d="m256 232v120z"/><path d="m256 32v200-8z"/><path d="m-128 608v128 8-8z"/><path d="m-64 736v-32z"/><path d="m-128 736h64-32z"/><path d="m-256 480h-128z"/><path d="m-640 608h32 32z"/><path d="m-576 608h32z"/><path d="m-384 480h-160-32z"/><path d="m-544 608v-128z"/><path d="m-576 480h32v128h-32z"/><path d="m-640 704v-96z"/><path d="m-608 736h96z"/><path d="m-640 704 32 32z"/><path d="m-608 608h32z"/><path d="m-576 608v-128z"/><path d="m384 32h128z"/><path d="m640-160h-64z"/><path d="m640-160h128z"/><path d="m256-160h128z"/><path d="m256-288v-32z"/><path d="m256-288v128z"/><path d="m376-416h-120z"/><path d="m576-416h-192-8z"/><path d="m640-352v192z"/><path d="m384-288v-64z"/><path d="m384-352h192z"/><path d="m576-352v192z"/><path d="m576-352h-192v64 128h128 64z"/><path d="m256-288h128z"/><path d="m192-320v-96 128z"/><path d="m192-320h64v-32-64h-64z"/><path d="m384-160v192z"/><path d="m640-160h-64-64v192h128z"/><path d="m256-160v192z"/><path d="m-640-480v160z"/><path d="m-256-544h-200z"/><path d="m-456-544h-120 56z"/><path d="m-640-480 64-64z"/><path d="m-640-320 32 32z"/><path d="m640 168v120-56z"/><path d="m640 32v120 16-16-72z"/><path d="m512 352h-32-64-32z"/><path d="m512 352h128z"/><path d="m384 288h120 8z"/><path d="m512 152v-24h-32-64-32v32h128z"/><path d="m512 32h-128v32h32 64 32z"/><path d="m512 64h-32v64h32z"/><path d="m416 64h-32v64h32z"/><path d="m480 64h-64v64h64z"/><path d="m512 32v32 64 24h128v-120z"/><path d="m512 152v8 128h128v-120-16z"/><path d="m256 232v120z"/><path d="m256 32v200z"/><path d="m-256 480h-128z"/><path d="m-608 608h32z"/><path d="m-640 608h32z"/><path d="m-384 480h-192-32 88z"/><path d="m-576 608v-128z"/><path d="m-608 480h32v128h-32z"/><path d="m-640 704v-96z"/><path d="m-608 736h96z"/><path d="m-608 736-32-32z"/><path d="m768 480v-32-96z"/><path d="m768 480v72 120-160z"/><path d="m-64 744v-8h-64v8z"/><path d="m512 32h-128z"/><path d="m-64-408v120z"/><path d="m-64-672h32v120h-32z"/><path d="m-32-552v120h-32v-112-8z"/><path d="m-32-432v16 128h-32v-120-24z"/><path d="m56-160h8v-128h-8-88-32v64 64z"/><path d="m256-160h128v192h-128z"/><path d="m256-160h128v-128h-128z"/><path d="m88-288h-24-8-88v-128h96 24z"/><path d="m208-288h-16-16-88v-128h120z"/><path d="m256-416h120 8v120 8h-128-48v-128z"/><path d="m-32-672h96v120h-96z"/><path d="m64-552v16 120h-96v-16-120z"/><path d="m512-160h-128v192h128z"/><path d="m512-160h64 64v192h-128z"/><path d="m640-352v192h-64v-136-56z"/><path d="m384-416h192v64 56h-192z"/><path d="m576-296v136h-64-128v-128-8z"/><path d="m768-672v128 24z"/><path d="m640-160v192z"/><path d="m640-672v32z"/><path d="m720-672v32z"/><path d="m720-672h-32v32h32z"/><path d="m640-160h128-64z"/><path d="m416-672v32z"/><path d="m640-672h-24-8v32h32z"/><path d="m416-672h-32v32h32z"/><path d="m336-672h-32v32h32z"/><path d="m576-352v-64 32z"/><path d="m512-160v192z"/><path d="m56-160h-120z"/><path d="m176-160h-112-8 72z"/><path d="m192-288h16 48 128-208z"/><path d="m768-400v240-48-120z"/><path d="m768-520v120-48z"/><path d="m384-160h128z"/><path d="m176-160h80-168-24z"/><path d="m640-672h48 32 48-128-24z"/><path d="m256-672v128 8z"/><path d="m376-416h-120z"/><path d="m384-288v128z"/><path d="m256-288h128z"/><path d="m64-288v-128z"/><path d="m192-288h16 48v-32h-64z"/><path d="m-32-288h88 8v-128h-128v128z"/><path d="m384 32v-192z"/><path d="m512-160v192z"/><path d="m-768-408v88 32-16-32-48z"/><path d="m-520-672h-120 64 32z"/><path d="m-400-672h-120 24 32 48z"/><path d="m-64-672h-192z"/><path d="m-640-288h-128z"/><path d="m-64-672v120 8h-192v-128z"/><path d="m-256-544h192z"/><path d="m-640-320 32 32h-32-128v-32z"/><path d="m-768-320v-88-136l128 64v160z"/><path d="m-768-544 128-128 64 128-64 64z"/><path d="m-520-544h-56l-64-128h120z"/><path d="m-400-544h-56-64v-128h120z"/><path d="m-256-544h-144v-128h144z"/><path d="m-400-544h144-200z"/><path d="m-640-480 64-64z"/><path d="m-256-160h192z"/><path d="m-256-16v-32-112 192z"/><path d="m768 352v128z"/><path d="m768 672v192z"/><path d="m512 160h-128v128h128z"/><path d="m384 152v-24h32 64 32v24 8h-128z"/><path d="m384 32v32 64 24h-128v-120z"/><path d="m384 152v8 128 64h-128v-120-80z"/><path d="m384 32h128v32h-32-64-32z"/><path d="m480 64h32v64h-32z"/><path d="m384 64h32v64h-32z"/><path d="m416 64h64v64h-64z"/><path d="m640 32v120h-128v-24-64-32z"/><path d="m640 152v80 120h-128v-64-128-8z"/><path d="m384 352v-64-128z"/><path d="m512 352h-128z"/><path d="m256 352h-8-120z"/><path d="m256 352h128z"/><path d="m768 352h-128z"/><path d="m64 352h32 32z"/><path d="m512 352h128z"/><path d="m384 288v-128 8z"/><path d="m384 160h128z"/><path d="m512 160v128z"/><path d="m256 232v120z"/><path d="m256 32v120 80z"/><path d="m384 352v128z"/><path d="m640 864h128z"/><path d="m512 864h-128-48z"/><path d="m216 864h-120z"/><path d="m336 864h-120z"/><path d="m384 672v64z"/><path d="m512 672h128-16z"/><path d="m640 864v-192 24z"/><path d="m512 864v-192z"/><path d="m256 736h128-48z"/><path d="m96 864-32 16z"/><path d="m64 880-32 16z"/><path d="m-384 736v64z"/><path d="m-256 480h-128z"/><path d="m-640 608h32z"/><path d="m-768 480h128v128h-128z"/><path d="m-640 480h32v128h-32z"/><path d="m-608 608v-128z"/><path d="m-656 832h-16v-16z"/><path d="m-672 784v-16h16z"/><path d="m-768 800v-32h96v16 32 16 32h-32z"/><path d="m-640 608v96 32 32h-16-16-96v-32-120-8z"/><path d="m-640 768h16l16 16v32l-16 16h-32l-16-16v-32l16-16z"/><path d="m-624 768h16v16z"/><path d="m-656 832h32 16v32h-64v-32z"/><path d="m-608 816v16h-16z"/><path d="m-608 736h96v32h-96-16-16v-32z"/><path d="m-608 832v-16-32-16h96v32l-64 64h-32z"/><path d="m-640 704 32 32h-32z"/><path d="m-640 704v-96z"/><path d="m-512 736h96 32z"/><path d="m400-256h64z"/><path d="m400-192v-64z"/><path d="m464-256h-64v64h64z"/><path d="m400-192h64z"/><path d="m464-192v-64z"/><path d="m400-256h64v64h-64z"/><path d="m-640-288h-128z"/><path d="m-640 480h24 96-88z"/><path d="m-768 480h128z"/><path d="m-64 754v-10h-64v10z"/><path d="m-768-288v32z"/><path d="m-640-256h-128z"/><path d="m-640-288v32h-128v-32z"/><path d="m-768 480h128z"/><path d="m-640 448v32h-128v-32z"/><path d="m-248-48h-8v32h8z"/><path d="m-640-256h-128z"/><path d="m-248 80h-8v32h8z"/><path d="m-248 208h-8v32h8z"/><path d="m-640 448v32z"/><path d="m-640 448h-128z"/><path d="m640-160v192z"/><path d="m720-640h-32z"/><path d="m688-640v-32z"/><path d="m640-160h64z"/><path d="m704-160h64z"/><path d="m640-640h-32z"/><path d="m384 32v-192z"/><path d="m384-160v192z"/><path d="m384-160h128z"/><path d="m512-160h-128z"/><path d="m-768-544 128-128z"/><path d="m-768-464v48z"/><path d="m-768-384v48z"/><path d="m-768-416v8 24z"/><path d="m-768-496v32z"/><path d="m-768-416v-48-32-48 136z"/><path d="m-464-672h-32z"/><path d="m-544-672h-32z"/><path d="m-384-672h-16-16z"/><path d="m-384-672h48 32 48-144z"/><path d="m-304-672h-32z"/><path d="m-256 32v-48z"/><path d="m-256-160v112z"/><path d="m-640-256v32h-128v-32z"/><path d="m-640-224h-128z"/><path d="m-640-288v32z"/><path d="m-656-688 16 16-128 128-16-16z"/><path d="m-784-560 16 16z"/><path d="m640 232v120z"/><path d="m640 32v200-80z"/><path d="m640 352h64 64z"/><path d="m384 160h128z"/><path d="m512 160h-128z"/><path d="m512 160v128 64z"/><path d="m-768 480v-32z"/><path d="m-256 80v-48z"/><path d="m-256 208v-96z"/><path d="m-64 768v-14h-64v14z"/><path d="m-128 768v18h64v-18z"/><path d="m-640 448v-32z"/><path d="m-640 448h-128z"/><path d="m-640 416v32h-128v-32z"/><path d="m-768-224v-64 32z"/><path d="m-640-224h-128z"/><path d="m-640 416h-128z"/><path d="m-238-48h-10v32h10z"/><path d="m-238 80h-10v32h10z"/><path d="m-238 208h-10v32h10z"/><path d="m-128 786v22h64v-22z"/><path d="m-768-224v32z"/><path d="m-256 32v-48z"/><path d="m-256-160v112z"/><path d="m-256-48h8z"/><path d="m-640-192h-128z"/><path d="m-640-224v32h-128v-32z"/><path d="m-768 480v-64 32z"/><path d="m-256 352h160 32-96z"/><path d="m-256 80v-48z"/><path d="m-256 208v-96z"/><path d="m-256 80h8z"/><path d="m-256 208h8z"/><path d="m-256 352v-112z"/><path d="m-640 416h-128z"/><path d="m-640 384v32h-128v-32z"/><path d="m-248-48h10 14 18 22 26 30-128z"/><path d="m-248-48h10z"/><path d="m-248-16h-8z"/><path d="m-640-192h-128z"/><path d="m-248 240h-8z"/><path d="m-248 112h-8z"/><path d="m-248 80h10z"/><path d="m-248 208h10z"/><path d="m-248 208h10 14 18 22 26 30-128z"/><path d="m-128 808v26h64v-26z"/><path d="m-640 384v96-32-32z"/><path d="m-640 384h-128z"/><path d="m-128 834v30h32 32v-30z"/><path d="m384 32h128z"/><path d="m640-160v192z"/><path d="m512 32v-192z"/><path d="m248-160h136-128-80z"/><path d="m-768-288v-16z"/><path d="m-640-672h64z"/><path d="m-264-160h-120z"/><path d="m-64-160h-192-8 136z"/><path d="m-256 32v-48z"/><path d="m-256-160v112z"/><path d="m-224-48h-14v32h14z"/><path d="m-384-32v-128h120 8v112 32 48h-128z"/><path d="m-768-192h128l32 32v128h-8-120l-32-32z"/><path d="m-384-160v128h-64-160v-128z"/><path d="m-384-160h-224z"/><path d="m-384-32v64l-64-64z"/><path d="m-672-704 16 16-128 128-16-16z"/><path d="m-800-576 16 16 16 16z"/><path d="m-656-688 16 16z"/><path d="m-784-560 128-128z"/><path d="m64 584v8 112-64z"/><path d="m384 160v192z"/><path d="m640 232v120z"/><path d="m640 32v200z"/><path d="m704 352h64z"/><path d="m640 352h64z"/><path d="m384 352h128z"/><path d="m512 160v192z"/><path d="m128 352h-64z"/><path d="m128 352h-64z"/><path d="m216 864h-32-88z"/><path d="m336 864h-120z"/><path d="m512 672h-8-120v64 128h128z"/><path d="m768 672h-128v192h128z"/><path d="m640 864v-192z"/><path d="m184 736h-120v128h32 88z"/><path d="m216 864h120 48v-128h-128-72v128z"/><path d="m256 736h128z"/><path d="m96 864h-32v16z"/><path d="m-768 384v32 64z"/><path d="m64 880-32 16z"/><path d="m-256 80v-48z"/><path d="m-256 208v-96z"/><path d="m-256 80h8 10 14 18 22 26 30z"/><path d="m-224 80h-14v32h14z"/><path d="m-224 208h-14v32h14z"/><path d="m-256 352v-112z"/><path d="m-768 256 32-32h96v128h-128z"/><path d="m-616 224h168 32v16 112h-224v-128z"/><path d="m-384 240h128v112h-24-120-16v-112z"/><path d="m-384 160v64h-32-32z"/><path d="m-416 224h32v16h-32z"/><path d="m-256 32v48 32 96 32h-128v-16-64-128z"/><path d="m-128 834v-26z"/><path d="m-128 808v-22z"/><path d="m-128 768v-14z"/><path d="m-128 754v-10z"/><path d="m-128 786v-18z"/><path d="m-128 864v-30z"/><path d="m-64 834v30z"/><path d="m-64 768v18z"/><path d="m-64 744v10z"/><path d="m-64 754v14z"/><path d="m-64 786v22z"/><path d="m-64 808v26z"/><path d="m-64 712v-8 32 8z"/><path d="m-64 352v120 112z"/><path d="m-32 352h-32v232 8h32z"/><path d="m-64 592v112 8h32v-120z"/><path d="m-64 712v32 10 14 18 22 26 30h32v-152z"/><path d="m64 584v-232h-96v240h96z"/><path d="m-32 592v120h96v-8-112z"/><path d="m-32 712v152h96v-128-24z"/><path d="m-136 600-120-120v120z"/><path d="m-128 608-8-8h-120v16 120h128z"/><path d="m-264 736h-120v64l64 64h56z"/><path d="m-128 864v-30-26-22-18-14-10-8h-128-8v128z"/><path d="m-32 864h-32-32l64 32z"/><path d="m-32 864v32h64l32-16v-16z"/><path d="m-32 896-64-32z"/><path d="m-640 384v-32z"/><path d="m-640 352v32h-128v-32z"/><path d="m-640 384h-128z"/><path d="m-384 736h-112-16z"/><path d="m-238-48h14z"/><path d="m-238-16h-10z"/><path d="m-238 240h-10z"/><path d="m-238 112h-10z"/><path d="m-238 80h14z"/><path d="m-238 208h14z"/><path d="m-608-288h64 32 24z"/><path d="m-488-288h8 224z"/><path d="m-608-288h-32z"/><path d="m-206-48h-18v32h18z"/><path d="m-206 80h-18v32h18z"/><path d="m-206 208h-18v32h18z"/><path d="m-224-16h-14z"/><path d="m-224 240h-14z"/><path d="m-224 112h-14z"/><path d="m-224 80h18z"/><path d="m-184-48h-22v32h22z"/><path d="m-184 80h-22v32h22z"/><path d="m-184 208h-22v32h22z"/><path d="m-158-48h-26v32h26z"/><path d="m-158 80h-26v32h26z"/><path d="m-158 208h-26v32h26z"/><path d="m-64-544v-8z"/><path d="m720-592h-32z"/><path d="m720-640h-32v48h32z"/><path d="m688-640v-32 80z"/><path d="m608-592v-48z"/><path d="m608-640v-32z"/><path d="m640-592h-32z"/><path d="m640-640h-32v48h32z"/><path d="m336-640v-32z"/><path d="m384-640h32z"/><path d="m416-640h-32v48h32z"/><path d="m384-592v-48z"/><path d="m304-640h32z"/><path d="m304-640v-32z"/><path d="m336-640h-32v48h32z"/><path d="m304-592v-48z"/><path d="m128-160h-72-120z"/><path d="m128-160h64 56-72z"/><path d="m64 32h64v-192h-192v192z"/><path d="m-768-800-128 128z"/><path d="m-544-672h48-24z"/><path d="m-464-672h48z"/><path d="m-384-672h48z"/><path d="m-304-672h48z"/><path d="m-264-160h-120 64 8 10 14 18z"/><path d="m-128 32v-48z"/><path d="m-64-160h-64v112 32 48h64z"/><path d="m-128-48h-30z"/><path d="m-128-48h-30v32h30z"/><path d="m-640-192v-32z"/><path d="m-640-288v64-32z"/><path d="m-384-160h-224 80z"/><path d="m-640-192 32 32z"/><path d="m-768-800 96 96-128 128-96-96z"/><path d="m-896-672 96 96 32 32z"/><path d="m-800-576 128-128z"/><path d="m-672-704 32 32-16-16z"/><path d="m128 232v120-64z"/><path d="m128 32v120 80-80z"/><path d="m128 152v-120h-64v120z"/><path d="m128 352v-120-80h-64v200z"/><path d="m-768 256v96 32z"/><path d="m-400 352h-120-120 224z"/><path d="m-280 352h-120z"/><path d="m-160 352h-32-88 24z"/><path d="m64 352h-192-32 96 32z"/><path d="m-192 352h32 32z"/><path d="m-280 352h88-30-26-22-18-14-10-8-64-16z"/><path d="m64 32h-128-64v48 32 40h192z"/><path d="m-128 152v56 32 112h192v-200z"/><path d="m-128 80h-30v32h30z"/><path d="m-128 208h-30z"/><path d="m-128 208h-30v32h30z"/><path d="m-768 256 32-32z"/><path d="m-206-48h-18z"/><path d="m-206-16h-18z"/><path d="m-206-16h22z"/><path d="m-206 240h-18z"/><path d="m-206 240h22z"/><path d="m-206 112h-18z"/><path d="m-206 112h22z"/><path d="m-206 80h22z"/><path d="m-206 208h-18z"/><path d="m768-400v120 120z"/><path d="m768-520v120z"/><path d="m768-520v-24 144z"/><path d="m720-672h48z"/><path d="m640-672h48z"/><path d="m416-672h192-112z"/><path d="m640-592v-48z"/><path d="m720-592h-32v32h32z"/><path d="m720-560h-32z"/><path d="m688-592v-80 112z"/><path d="m720-592v-48z"/><path d="m416-592v-48z"/><path d="m640-560h-32z"/><path d="m608-592v-48-32 112z"/><path d="m640-592h-32v32h32z"/><path d="m336-592v-48z"/><path d="m336-592v32-80z"/><path d="m384-592h32z"/><path d="m416-592h-32v32h32z"/><path d="m336-592h-32v32h32z"/><path d="m304-592v-48-32 112z"/><path d="m304-592h32z"/><path d="m576-352h32 32z"/><path d="m768 480v-128 200z"/><path d="m384 352h128z"/><path d="m496 64h-96v64h96z"/><path d="m384 128h16z"/><path d="m496 128h16z"/><path d="m400 64h96 16v-32h-128v32z"/><path d="m400 64v64z"/><path d="m256 352h128-64-72z"/><path d="m-256-552v8h192v-8z"/><path d="m-304-664v-8h-32v8z"/><path d="m-384-664v-8h-32v8z"/><path d="m-464-664v-8h-32v8z"/><path d="m-544-664v-8h-32v8z"/><path d="m-184-48h-22z"/><path d="m-184-16h26z"/><path d="m-184 240h26z"/><path d="m-184 112h26z"/><path d="m-184 80h26z"/><path d="m-184 208h-22z"/><path d="m384 32h128z"/><path d="m768-672v112 16z"/><path d="m336-672h48z"/><path d="m256-672h48z"/><path d="m640-352v-32-32z"/><path d="m640-672v32 48 32z"/><path d="m720-672v32 48 32z"/><path d="m768-672h-48v112h48z"/><path d="m688-672h-48v112h48z"/><path d="m768-544v-16h-48-32-48v16z"/><path d="m208-320h-176-64 64z"/><path d="m328-320h-56-64 64z"/><path d="m32-544v160z"/><path d="m640-416h-64z"/><path d="m256-416v-120z"/><path d="m256-536v-8-16-112z"/><path d="m256-544v8 120z"/><path d="m376-560h-40-32-48v16h120z"/><path d="m496-560h-80-32-8v16h120z"/><path d="m640-560h-32-112v16h144z"/><path d="m608-672h-192v112h80 112z"/><path d="m304-672h-48v112h48z"/><path d="m384-640v-32h-48v32 80h40 8z"/><path d="m376-544h-120z"/><path d="m496-544h-120z"/><path d="m640-544h-144z"/><path d="m416-672v32 48 32z"/><path d="m416-560h-32z"/><path d="m304-560h32z"/><path d="m384-672v32z"/><path d="m384-560v-32-48z"/><path d="m576-384v32z"/><path d="m576-384v-32z"/><path d="m608-384v32h-32v-32z"/><path d="m608-320v-32h-32v32z"/><path d="m576-352h32z"/><path d="m608-352v-32z"/><path d="m272-384h-240v64h176 64z"/><path d="m392-384h-120v64h56 64z"/><path d="m544-320h32v-32-32h-184v64z"/><path d="m576-384h-32-152z"/><path d="m-32-544h64z"/><path d="m-32-384v64h64v-64z"/><path d="m-32-544v160h64v-160z"/><path d="m-32-384v-160 224z"/><path d="m512 32v-192z"/><path d="m608-320h-32-32v120h64z"/><path d="m544-200v112 120h64v-120-112z"/><path d="m608-88v120z"/><path d="m608-320v120 112-112z"/><path d="m544-200v-120 120 112z"/><path d="m416-288h96z"/><path d="m512-288h-96v96h96z"/><path d="m416-192v-96z"/><path d="m384 160v128 64z"/><path d="m416 384h120 8-8z"/><path d="m608 384h128z"/><path d="m544 32v120h64v-120z"/><path d="m544 152v112 120h64v-120-112z"/><path d="m608 264v120z"/><path d="m608 32v120 112-112z"/><path d="m512 160h-128z"/><path d="m512 160v-32h-16-96-16v32z"/><path d="m512 352v-120-72z"/><path d="m736 384v64z"/><path d="m536 384h-120v64h120z"/><path d="m544 448h64 128v-64h-128-64-8v64z"/><path d="m-768 480v-136-88 128z"/><path d="m-768 480v136 56z"/><path d="m-768 736v-64-56z"/><path d="m-768 616v-136 128z"/><path d="m-768 800v-64 32z"/><path d="m-704 864-64-64z"/><path d="m-576 864h-128 32 64z"/><path d="m-512 736v64-32z"/><path d="m-768 672v64 64l64 64v-128z"/><path d="m-576 864 64-64v-64h-192v128z"/><path d="m-512 736h-192z"/><path d="m-512 800-64 64z"/><path d="m-256-562v10h192v-10z"/><path d="m-304-654v-10h-32v10z"/><path d="m-384-654v-10h-32v10z"/><path d="m-464-654v-10h-32v10z"/><path d="m-544-654v-10h-32v10z"/><path d="m-256-320v-96-128z"/><path d="m-158-48h-26z"/><path d="m-158-16h30z"/><path d="m-158 240h30z"/><path d="m-158 112h30z"/><path d="m-158 80h30z"/><path d="m-158 208h-26z"/><path d="m-64-288v-120z"/><path d="m-64-544v112 24z"/><path d="m64-672h-96z"/><path d="m256-416h-48-120-24z"/><path d="m64-416v-120z"/><path d="m64-536v-16-120z"/><path d="m384-288v128z"/><path d="m384-160v64 128z"/><path d="m-64-288h32 88z"/><path d="m56-288h8 24 88z"/><path d="m384-288h-208z"/><path d="m-256-288h-48-32-152z"/><path d="m-256-288v-32z"/><path d="m384 352v128z"/><path d="m384 480v136 56z"/><path d="m-768-800-128 128 120-120z"/><path d="m-768-544v48z"/><path d="m-256-576v14h192v-14z"/><path d="m-304-640v-14h-32v14z"/><path d="m-336-640v18h32v-18z"/><path d="m-384-640v-14h-32v14z"/><path d="m-416-640v18h32v-18z"/><path d="m-464-640v-14h-32v14z"/><path d="m-496-640v18h32v-18z"/><path d="m-544-640v-14h-32v14z"/><path d="m-576-640v18h32v-18z"/><path d="m-896-672 128 128-8-8z"/><path d="m-768-800 128 128-32-32z"/><path d="m-64-594h-192v18h192z"/><path d="m-336-622v22h32v-22z"/><path d="m-416-622v22h32v-22z"/><path d="m-496-622v22h32v-22z"/><path d="m-576-622v22h32v-22z"/><path d="m384 64v64z"/><path d="m384 128v24 8z"/><path d="m512 128v32z"/><path d="m512 64v-32z"/><path d="m496 128h-96z"/><path d="m400 64h-16z"/><path d="m512 64h-16z"/><path d="m496 64v64z"/><path d="m496 64v64z"/><path d="m512 64h-16v64h16z"/><path d="m400 64h96v64h-96z"/><path d="m400 64h-16v64h16z"/><path d="m-128 208v-56-40z"/><path d="m-128 80v-48z"/><path d="m-64-616h-192v22h192z"/><path d="m-336-600v26h32v-26z"/><path d="m-416-600v26h32v-26z"/><path d="m-496-600v26h32v-26z"/><path d="m-576-600v26h32v-26z"/><path d="m-64-642h-192v26h192z"/><path d="m-336-574v30h32v-30z"/><path d="m-416-574v30h32v-30z"/><path d="m-496-574v30h32v-30z"/><path d="m-576-574v30h32v-30z"/><path d="m-64-672v30 26 22 18 14 10 8z"/><path d="m-64-672v30z"/><path d="m-64-594v18z"/><path d="m-64-562v10z"/><path d="m-64-576v14z"/><path d="m-64-616v22z"/><path d="m-64-642v26z"/><path d="m-32-672h-32z"/><path d="m640-352v-32z"/><path d="m640-384v-32z"/><path d="m392-320h152-152-64z"/><path d="m640-416h-64z"/><path d="m576-352v-32z"/><path d="m576-352v-32-32z"/><path d="m608-352h32z"/><path d="m576-384v32h32v-32z"/><path d="m576-384h32z"/><path d="m576-352h32v32h-32z"/><path d="m608-352v32z"/><path d="m544-352h32v32h-32z"/><path d="m544-384h32v32h-32z"/><path d="m272-320h-64-176v-64h240z"/><path d="m392-320h-64-56v-64h120z"/><path d="m544-384v32 32h-152v-64z"/><path d="m272-384h-240z"/><path d="m392-384h-120z"/><path d="m-32-544h64v160 64h-64z"/><path d="m512-192v-96z"/><path d="m576-320h32v120h-64v-120z"/><path d="m608-200v112 120h-64v-120-112z"/><path d="m544-88v120z"/><path d="m416-192h96z"/><path d="m416-288h96v96h-96z"/><path d="m248-160h72 64z"/><path d="m160-96h-32v128h32z"/><path d="m128-96h32 32v-32-32h-64z"/><path d="m320-160h-72-56v32h128z"/><path d="m320-128v32h32 32v-64h-64z"/><path d="m384-96h-32v128h32z"/><path d="m320-96v-32z"/><path d="m352-96h-32z"/><path d="m352-96v128z"/><path d="m192-128v32z"/><path d="m320-128h-128z"/><path d="m128-96v-64 192z"/><path d="m-768-320v-16 32z"/><path d="m-768-64v-96-128 64 32z"/><path d="m-488-288h152-120-88z"/><path d="m-488-288h-56-32-32z"/><path d="m-256-616v-26z"/><path d="m-256-594v-22z"/><path d="m-256-562v-14z"/><path d="m-256-544v-8z"/><path d="m-256-552v-10z"/><path d="m-256-576v-18z"/><path d="m-256-642v-30z"/><path d="m-256-672v30h192v-30z"/><path d="m-640-288h32l-32-32h-128v16 16z"/><path d="m-768-544v48 32 48 32 48 16h128v-160z"/><path d="m-544-672v8 10 14 18 22 26 30h48v-30-26-22-18-14-10-8z"/><path d="m-576-544v-30-26-22-18-14-10-8h-64l-128 128 128 64z"/><path d="m-464-672v8 10 14 18 22 26 30h8 40v-30-26-22-18-14-10-8z"/><path d="m-304-672v8 10 14 18 22 26 30h48v-8-10-14-18-22-26-30z"/><path d="m-384-672v8 10 14 18 22 26 30h48v-30-26-22-18-14-10-8z"/><path d="m-456-544h-8-32-48-32 56z"/><path d="m-496-574v-26z"/><path d="m-496-600v-22z"/><path d="m-496-640v-14z"/><path d="m-496-664v-8z"/><path d="m-496-654v-10z"/><path d="m-496-622v-18z"/><path d="m-496-544v-30z"/><path d="m-384-574v30z"/><path d="m-384-640v18z"/><path d="m-384-664v10z"/><path d="m-384-672v8z"/><path d="m-384-654v14z"/><path d="m-384-622v22z"/><path d="m-384-600v26z"/><path d="m-336-574v-26z"/><path d="m-336-600v-22z"/><path d="m-336-640v-14z"/><path d="m-336-664v-8z"/><path d="m-336-654v-10z"/><path d="m-336-622v-18z"/><path d="m-336-544v-30z"/><path d="m-304-600v26z"/><path d="m-304-622v22z"/><path d="m-304-654v14z"/><path d="m-304-672v8z"/><path d="m-304-664v10z"/><path d="m-304-640v18z"/><path d="m-304-574v30z"/><path d="m-464-574v30z"/><path d="m-464-640v18z"/><path d="m-464-664v10z"/><path d="m-464-672v8z"/><path d="m-464-654v14z"/><path d="m-464-622v22z"/><path d="m-464-600v26z"/><path d="m-416-574v-26z"/><path d="m-416-600v-22z"/><path d="m-416-640v-14z"/><path d="m-416-664v-8z"/><path d="m-416-654v-10z"/><path d="m-416-622v-18z"/><path d="m-416-544v-30z"/><path d="m-576-574v-26z"/><path d="m-576-600v-22z"/><path d="m-576-640v-14z"/><path d="m-576-664v-8z"/><path d="m-576-654v-10z"/><path d="m-576-622v-18z"/><path d="m-576-544v-30z"/><path d="m-544-574v30z"/><path d="m-544-640v18z"/><path d="m-544-664v10z"/><path d="m-544-672v8z"/><path d="m-544-654v14z"/><path d="m-544-622v22z"/><path d="m-544-600v26z"/><path d="m-248-160h26 30 64-136z"/><path d="m-128-160v112z"/><path d="m-128 32v-48-32z"/><path d="m-320-16v-32-16-96h-64v128 64h64z"/><path d="m-248-160v8l26-6v-2z"/><path d="m-264-160h-6v18l22-10v-8z"/><path d="m-302-160v50l14-18v-32z"/><path d="m-320-64 8-24v-72h-8z"/><path d="m-312-160v72l10-22v-50z"/><path d="m-288-160v32l18-14v-18z"/><path d="m-222-160v2l30-2z"/><path d="m-192-160-30 2z"/><path d="m-128-16h-30-26-22-18-14-10-8z"/><path d="m-128-48v32h-128v-32z"/><path d="m-616-32h-32-88z"/><path d="m-448-32h-80-88 8z"/><path d="m-648-160h-120v96l32 32h88z"/><path d="m-528-160h-80-32-8v128h32 88z"/><path d="m-448-32h64v-128h-144v128z"/><path d="m-640-192v32h32z"/><path d="m-640-192v-96h-128v128h120 8z"/><path d="m-640-288v96-32z"/><path d="m-736-32-32-32z"/><path d="m-384 32v-64h-64z"/><path d="m-384 32-64-64z"/><path d="m-776-680v-112l-120 120 120 120z"/><path d="m-648-680-120-120-8 8v112z"/><path d="m-768-544 128-128-8-8h-128v128z"/><path d="m-768-800 120 120 8 8z"/><path d="m384 32v32z"/><path d="m544 264v120z"/><path d="m544 32v120 112-112z"/><path d="m608 32v120h-64v-120z"/><path d="m608 152v112 120h-64v-120-112z"/><path d="m496 64h-96v64h96z"/><path d="m512 232v120z"/><path d="m512 32v32 64 32 72z"/><path d="m512 64v64z"/><path d="m400 64h96z"/><path d="m400 64v64z"/><path d="m536 448h-120v-64h120z"/><path d="m544 384h64 128v64h-128-64-8v-64z"/><path d="m416 384v64z"/><path d="m416 448h120 8-8z"/><path d="m608 448h128z"/><path d="m544 448h64z"/><path d="m352 32v120h32v-24-64-32z"/><path d="m352 152v16 120h32v-128-8z"/><path d="m128 32v120h32v-120z"/><path d="m128 152v80 56h32v-120-16z"/><path d="m320 320h-128v32h56 72z"/><path d="m384 288h-32-32v32 32h64z"/><path d="m192 320v-32h-32-32v64h64z"/><path d="m320 288h32z"/><path d="m160 168v120z"/><path d="m160 32v120 16z"/><path d="m192 288v32z"/><path d="m320 320v-32z"/><path d="m192 320h128z"/><path d="m248 352h-56-64z"/><path d="m-736 672h-32l32 32h32z"/><path d="m-768 672h32v-160-32h-32z"/><path d="m-616 480h-24-96v32h120z"/><path d="m-496 480h-24-96v32h120z"/><path d="m-416 512h128v-32h-96-112v32z"/><path d="m-288 512v192h32v-88-136h-32z"/><path d="m-496 704h-112-32-64-32l32 32h192 16z"/><path d="m-384 736h128v-32h-32-128-32-48v32z"/><path d="m-640 224h-96l-32 32v88h128z"/><path d="m-768 344v136h32 96v-128-8z"/><path d="m-520 224h-96-24v120 8h120z"/><path d="m-400 352h16v-128h-64-72v128z"/><path d="m-448 224h64v-64z"/><path d="m-192 352-30-2v2z"/><path d="m-270 352v-18l-18-14v32z"/><path d="m-302 352v-50l-10-22v72z"/><path d="m-312 352v-72l-8-24v96z"/><path d="m-288 352v-32l-14-18v50z"/><path d="m-248 352v-8l-22-10v18z"/><path d="m-222 352v-2l-26-6v8z"/><path d="m-384 32v120h64v-40-32-48z"/><path d="m-384 152v8 64 128h64v-96-16-32-56z"/><path d="m-128 352h-64z"/><path d="m-128 80v-48z"/><path d="m-320 256 8 24z"/><path d="m-248 344 26 6z"/><path d="m-312 280 10 22z"/><path d="m-222 350 30 2z"/><path d="m-302 302 14 18z"/><path d="m-270 334 22 10z"/><path d="m-288 320 18 14z"/><path d="m-288 512h-128z"/><path d="m-288 704v-192z"/><path d="m-616 512h-120 96z"/><path d="m-704 704h64z"/><path d="m-520 352h-120z"/><path d="m-400 352h-120z"/><path d="m-128 208v32h-128v-32z"/><path d="m-128 80v32h-128v-32z"/><path d="m-128 352v-112z"/><path d="m-128 240h-30-26-22-18-14-10-8z"/><path d="m-128 112h-30-26-22-18-14-10-8z"/><path d="m-384 152v-120 128z"/><path d="m-736 224h96 24-24z"/><path d="m-616 224h96 72z"/><path d="m-448 224 64-64z"/><path d="m-256 736h-128 120z"/><path d="m-256 616v88 32z"/><path d="m-256 480v136-16z"/><path d="m-384 480h96 32z"/><path d="m-640 352v128-96z"/><path d="m-520 480h24 112z"/><path d="m-736 704-32-32 64 64z"/><path d="m640-352v-64 32z"/><path d="m576-352h32z"/><path d="m640-416v64h-32-32v-64z"/><path d="m-336-292v4h32v-4z"/><path d="m-576-292v4h32v-4z"/><path d="m-316-48h-4v32h4z"/><path d="m-316 80h-4v32h4z"/><path d="m-316 208h-4v32h4z"/><path d="m-448 700v4h32v-4z"/><path d="m-640 700v4h32v-4z"/><path d="m-256-320v-224z"/><path d="m-64-288v-120z"/><path d="m-64-544v136z"/><path d="m768-160v-120z"/><path d="m768-280v-120z"/><path d="m768-544v144z"/><path d="m64-672h-96z"/><path d="m-32-672h-32z"/><path d="m640-160v192z"/><path d="m768-544h-128z"/><path d="m640-160h64 64z"/><path d="m256-416h-192z"/><path d="m256-416v-128z"/><path d="m256-544h120z"/><path d="m376-544h120z"/><path d="m496-544h144z"/><path d="m64-416v-120z"/><path d="m64-536v-136z"/><path d="m384-288v128z"/><path d="m384-160h128z"/><path d="m-64-288h120z"/><path d="m56-288h120z"/><path d="m384-288h-208z"/><path d="m-256-288v-32z"/><path d="m768 672v-120z"/><path d="m768 352v200z"/><path d="m384 352v128z"/><path d="m640 352v-120z"/><path d="m640 232v-200z"/><path d="m768 352h-64-64z"/><path d="m512 352h-128z"/><path d="m384 480v192z"/><path d="m384 672h120z"/><path d="m504 672h8 112z"/><path d="m624 672h16 128z"/><path d="m-336-300v8h32v-8z"/><path d="m-576-300v8h32v-8z"/><path d="m-308-48h-8v32h8z"/><path d="m-308 80h-8v32h8z"/><path d="m-308 208h-8v32h8z"/><path d="m-448 692v8h32v-8z"/><path d="m-640 692v8h32v-8z"/><path d="m-304-288h48z"/><path d="m-336-288v-4z"/><path d="m-576-288v-4z"/><path d="m-320-48v-16z"/><path d="m-320-48h4z"/><path d="m-320 208v-56-40 40z"/><path d="m-320 80v-48z"/><path d="m-320 80h4z"/><path d="m-320 208h4z"/><path d="m-608 704h112 48-136z"/><path d="m-448 704v-4z"/><path d="m-640 704v-4z"/><path d="m-544-292v4z"/><path d="m-336-292v-8z"/><path d="m-336-292v-8-16-20-28-32-42-42 192z"/><path d="m-304-292v4z"/><path d="m-576-292v-8z"/><path d="m-576-292v-8-16-20-28-32-42-42 192z"/><path d="m-316-48h8 16 20 28 32 42 42-192z"/><path d="m-316-48h8z"/><path d="m-316-16h-4z"/><path d="m-316 240h-4z"/><path d="m-316 80h8z"/><path d="m-316 112h-4z"/><path d="m-316 208h8 16 20 28 32 42 42-192z"/><path d="m-316 208h8z"/><path d="m-416 700v4z"/><path d="m-608 700v4z"/><path d="m-448 700v-8z"/><path d="m-448 700v-8-16-20-28-32-42-42 192z"/><path d="m-640 700v-8z"/><path d="m-640 700v-8-16-20-28-32-42-42 192z"/><path d="m-336-316v16h32v-16z"/><path d="m-576-316v16h32v-16z"/><path d="m-292-48h-16v32h16z"/><path d="m-292 80h-16v32h16z"/><path d="m-292 208h-16v32h16z"/><path d="m-448 676v16h32v-16z"/><path d="m-640 676v16h32v-16z"/><path d="m-544-300v8z"/><path d="m-304-300v8z"/><path d="m-308-16h-8z"/><path d="m-308 240h-8z"/><path d="m-308 80h16z"/><path d="m-308 112h-8z"/><path d="m-416 692v8z"/><path d="m-608 692v8z"/><path d="m-448 692v-16z"/><path d="m-640 692v-16z"/><path d="m-336-288h32 48-200z"/><path d="m-192-160h64z"/><path d="m-264-160h-6-18-14-10-8-64z"/><path d="m-128-48v-112 112 32 48z"/><path d="m-320 32v-48z"/><path d="m-222-160v2l-26 6v-8z"/><path d="m-264-160h16v8l-22 10v-18z"/><path d="m-288-160v32l-14 18v-50z"/><path d="m-312-160v72l-8 24v-96z"/><path d="m-302-160v50l-10 22v-72z"/><path d="m-270-160v18l-18 14v-32z"/><path d="m-192-160-30 2v-2z"/><path d="m-222-158-26 6z"/><path d="m-312-88-8 24z"/><path d="m-302-110-10 22z"/><path d="m-248-152-22 10z"/><path d="m-288-128-14 18z"/><path d="m-270-142-18 14z"/><path d="m-320-16h192-42-42-32-28-20-16-8z"/><path d="m-320-48h192v32h-192z"/><path d="m-384-64h64v16 32 48h-64z"/><path d="m-320-64h-64v-96h64z"/><path d="m-248 352h26 30 64-136z"/><path d="m-320 256v-16z"/><path d="m-320 240h192-42-42-32-28-20-16-8z"/><path d="m-320 80h4 8 16 20 28 32 42 42z"/><path d="m-128 80v32 96 32-32-96z"/><path d="m-320 112h192-42-42-32-28-20-16-8z"/><path d="m-320 80h192v32h-192z"/><path d="m-320 208h192v32h-192z"/><path d="m-248 352v-8l26 6v2z"/><path d="m-264 352h-6v-18l22 10v8z"/><path d="m-302 352v-50l14 18v32z"/><path d="m-320 352v-96l8 24v72z"/><path d="m-312 352v-72l10 22v50z"/><path d="m-288 352v-32l18 14v18z"/><path d="m-222 352v-2l30 2z"/><path d="m-320 32v48 32 40h-64v-120z"/><path d="m-320 152v56 32 16 96h-64v-120-80z"/><path d="m-384 232v120z"/><path d="m-384 32v120 80z"/><path d="m-544-316v16z"/><path d="m-336-316v16z"/><path d="m-304-316v16z"/><path d="m-576-316v16z"/><path d="m-292-48h-16z"/><path d="m-292-16h-16z"/><path d="m-292-16h20z"/><path d="m-292 240h20z"/><path d="m-292 240h-16z"/><path d="m-292 80h20z"/><path d="m-292 112h20z"/><path d="m-292 112h-16z"/><path d="m-292 208h-16z"/><path d="m-416 676v16z"/><path d="m-608 676v16z"/><path d="m-448 676v-20z"/><path d="m-640 676v-20z"/><path d="m-336-336v20z"/><path d="m-304-336h-32v20h32z"/><path d="m-576-336v20z"/><path d="m-544-336h-32v20h32z"/><path d="m-272-48h-20z"/><path d="m-272-16v-32h-20v32z"/><path d="m-272 112v-32h-20v32z"/><path d="m-272 208h-20z"/><path d="m-272 240v-32h-20v32z"/><path d="m-448 656v20h32v-20z"/><path d="m-640 656v20h32v-20z"/><path d="m328 96v4h16v-4z"/><path d="m344 96v-4h-16v4z"/><path d="m-544-336v20z"/><path d="m-336-336v-28z"/><path d="m-304-336v20z"/><path d="m-576-336v-28z"/><path d="m-272-48h28z"/><path d="m-272 80h28z"/><path d="m-272 208h28z"/><path d="m-416 656v20z"/><path d="m-608 656v20z"/><path d="m-448 656v-28z"/><path d="m-640 656v-28z"/><path d="m-304-364h-32v28h32z"/><path d="m-544-364h-32v28h32z"/><path d="m-244-48h-28v32h28z"/><path d="m-244 80h-28v32h28z"/><path d="m-244 208h-28v32h28z"/><path d="m-416 628h-32v28h32z"/><path d="m-608 628h-32v28h32z"/><path d="m328 100h16z"/><path d="m328 92v8-4z"/><path d="m344 92h-16z"/><path d="m344 100v-8 4z"/><path d="m-304-396h-32v32h32z"/><path d="m-544-396h-32v32h32z"/><path d="m-212-48h-32v32h32z"/><path d="m-212 80h-32v32h32z"/><path d="m-212 208h-32v32h32z"/><path d="m-416 596h-32v32h32z"/><path d="m-608 596h-32v32h32z"/><path d="m-544-364v28z"/><path d="m-304-364v28z"/><path d="m-244-48h32z"/><path d="m-244-16h-28z"/><path d="m-244 240h-28z"/><path d="m-244 80h32z"/><path d="m-244 112h-28z"/><path d="m-244 208h32z"/><path d="m-416 628v28z"/><path d="m-608 628v28z"/><path d="m-304-438h-32v42h32z"/><path d="m-544-438h-32v42h32z"/><path d="m-170-48h-42v32h42z"/><path d="m328 100v2h16v-2z"/><path d="m344 90h-16v2h16z"/><path d="m328 102v-2 8 6z"/><path d="m344 102h-16v12h16z"/><path d="m-170 80h-42v32h42z"/><path d="m-170 208h-42v32h42z"/><path d="m-416 554h-32v42h32z"/><path d="m-608 554h-32v42h32z"/><path d="m-256-320v32z"/><path d="m-256-544v64 160z"/><path d="m-256-320v-160z"/><path d="m-640-480v160z"/><path d="m-520-544h-56l-64 64h64 32 24z"/><path d="m-400-544h-56-64v64h120z"/><path d="m-336-480h32 48v-64h-144v64z"/><path d="m-400-544h144-48-32-48-32-40z"/><path d="m-640-480 64-64z"/><path d="m-336-480v42z"/><path d="m-304-480h-32v42h32z"/><path d="m-576-480v42z"/><path d="m-544-480h-32v42h32z"/><path d="m-128 32v-48z"/><path d="m-128-48h-42v32h42z"/><path d="m-128 32v48z"/><path d="m-128 80h-42v32h42z"/><path d="m-128 208h-42v32h42z"/><path d="m-608 512h160 32-80-120z"/><path d="m-448 512v42z"/><path d="m-416 512h-32v42h32z"/><path d="m-640 512v42z"/><path d="m-608 512h-8-24v42h32z"/><path d="m328 78v-8 6 8z"/><path d="m328 78v6 8-2z"/><path d="m344 78v12 2-8z"/><path d="m344 78h-16v12h16z"/><path d="m-64-544v-128z"/><path d="m768-160v-120z"/><path d="m768-280v-120z"/><path d="m768-544v144z"/><path d="m-32-672h96z"/><path d="m-64-672h32z"/><path d="m640-160v192z"/><path d="m768-544h-128z"/><path d="m640-160h128z"/><path d="m256-416v-128z"/><path d="m256-544h120z"/><path d="m376-544h8 112z"/><path d="m496-544h144z"/><path d="m384-160v-128z"/><path d="m512-160v192z"/><path d="m384-160h128z"/><path d="m320-128v32z"/><path d="m320-96h32z"/><path d="m352-96v128z"/><path d="m192-96h-32z"/><path d="m192-96v-32z"/><path d="m192-128h128z"/><path d="m160-96v128z"/><path d="m-608-288h32z"/><path d="m-640-320v-160z"/><path d="m-640-480h64z"/><path d="m-640-320 32 32z"/><path d="m768 672v-120z"/><path d="m768 352v200z"/><path d="m640 352v-120z"/><path d="m640 232v-200z"/><path d="m768 352h-128z"/><path d="m512 352h-128z"/><path d="m512 352v-120z"/><path d="m512 232v-200z"/><path d="m352 288h-32z"/><path d="m160 288h32z"/><path d="m160 288v-120z"/><path d="m160 168v-88-48z"/><path d="m352 288v-120z"/><path d="m352 168v-16-120z"/><path d="m192 320v-32z"/><path d="m320 288v32z"/><path d="m320 320h-128z"/><path d="m384 672v-192z"/><path d="m384 672h120z"/><path d="m504 672h120z"/><path d="m624 672h144z"/><path d="m-128 352v-112z"/><path d="m-416 704h128z"/><path d="m-416 512h128z"/><path d="m-288 512v192z"/><path d="m-736 512v160z"/><path d="m-736 512h96z"/><path d="m-416 704h-168 136z"/><path d="m-736 672 32 32z"/><path d="m328 92v8 2-2-8-2z"/><path d="m328 122v-6 6 8z"/><path d="m344 122v-6-8 6z"/><path d="m344 100v2 12-6z"/><path d="m344 92v8z"/><path d="m344 92v-2 2 8 2-2z"/><path d="m344 70v6-6-8z"/><path d="m344 70h-16v8h16z"/><path d="m328 100h16v8h-16z"/><path d="m344 100h-16z"/><path d="m328 122h16v-8h-16z"/><path d="m328 84h16v8h-16z"/><path d="m328 116v6-8-6z"/><path d="m344 76v-6 8 6z"/><path d="m344 76h-16v-6h16z"/><path d="m328 76h16v8h-16z"/><path d="m328 116h16v6h-16z"/><path d="m344 116h-16v-8h16z"/><path d="m328 62v8 6-6z"/><path d="m328 92v8z"/><path d="m344 130v-8-6 6z"/><path d="m344 62h-16v8h16z"/><path d="m328 130h16v-8h-16z"/><path d="m344 92h-16z"/><path d="m344 100h-16v4h16z"/><path d="m328 122v4 6-2z"/><path d="m344 70v-4-6 2z"/><path d="m328 104h16z"/><path d="m344 70h-16v-4h16z"/><path d="m344 88h-16v4h16z"/><path d="m-544-396v32z"/><path d="m-544-396v-42z"/><path d="m-336-396v32z"/><path d="m-304-396v32z"/><path d="m-304-396v-42z"/><path d="m-576-396v32z"/><path d="m-212-48h42z"/><path d="m-212-16h-32z"/><path d="m328 88v16-4-8z"/><path d="m344 126v-2.6667-1.3333 8 1.2z"/><path d="m344 88v4 8 4z"/><path d="m344 104h-16v-16h16z"/><path d="m344 88h-16z"/><path d="m344 123.3333v2.6667h-16v-4h16z"/><path d="m-212 240h-32z"/><path d="m-212 80h42z"/><path d="m-212 112h-32z"/><path d="m-212 208h42z"/><path d="m-416 596v32z"/><path d="m-608 596v-42z"/><path d="m-608 596v32z"/><path d="m-448 596v32z"/><path d="m-640 596v32z"/><path d="m328 60v6 4-8z"/><path d="m328 132v-6z"/><path d="m344 60v6z"/><path d="m344 60h-16v2h16z"/><path d="m328 132h16v-.8-1.2h-16z"/><path d="m344 126v-2.6667z"/><path d="m344 66h-16z"/><path d="m328 126h16z"/><path d="m328 132h16z"/><path d="m328 60v6z"/><path d="m328 132v-6-2 6z"/><path d="m344 60h-16z"/><path d="m344 60v6 2-6z"/><path d="m344 66h-16v2h16z"/><path d="m328 126h16v-2h-16z"/><path d="m328 62v6-2-6z"/><path d="m344 126v5.2.8-2z"/><path d="m344 126v-2z"/><path d="m344 68h-16v2h16z"/><path d="m328 62h16v6h-16z"/><path d="m344 62h-16v-2h16z"/><path d="m328 130h16v2h-16z"/><path d="m328 124h16v-2h-16z"/><path d="m328 70v-2-6 6 6z"/><path d="m328 122v-4 6 6-6z"/><path d="m344 124v-6 4 2 2z"/><path d="m344 68v-6 6 2 4z"/><path d="m328 124h16v2 4h-16z"/><path d="m328 74v-6h16v6z"/><path d="m344 74v-4h-16v4z"/><path d="m344 118v6h-16v-6z"/><path d="m328 118v4h16v-4z"/><path d="m-544-438v-42z"/><path d="m-336-438v42z"/><path d="m-304-438v-42z"/><path d="m-576-438v42z"/><path d="m-170-48h42z"/><path d="m-170-16h-42z"/><path d="m-170 240h-42z"/><path d="m-170 80h42z"/><path d="m-170 112h-42z"/><path d="m-170 208h42z"/><path d="m-416 554v42z"/><path d="m-608 554v-42z"/><path d="m-448 554v42z"/><path d="m-640 554v42z"/><path d="m-304-480h48z"/><path d="m-128-48v-112z"/><path d="m-128-16h-42z"/><path d="m-128 240h-42z"/><path d="m-128 80v-48z"/><path d="m-128 208v-96z"/><path d="m-128 112h-42z"/><path d="m-128 240v112z"/><path d="m-416 512v42z"/><path d="m-608 512h160z"/><path d="m-64-544v136z"/><path d="m768-280v120z"/><path d="m768-400v80 40z"/><path d="m768-544h-128z"/><path d="m768-160h-128z"/><path d="m64-416h192z"/><path d="m64-536v120z"/><path d="m64-672v136z"/><path d="m512-160v192z"/><path d="m512-160h-128z"/><path d="m56-288h-88-32z"/><path d="m176-288h-120z"/><path d="m160-96h32z"/><path d="m160-96v128z"/><path d="m-456-288h-120 32z"/><path d="m-576-288h-32z"/><path d="m-336-480h-64-120-24z"/><path d="m-544-480v42 42 32 28 20 16 8 4z"/><path d="m-304-480v42 42 32 28 20 16 8 4z"/><path d="m-336-480h32v192h-32z"/><path d="m-576-480h32v192h-32z"/><path d="m-608-288-32-32z"/><path d="m-384-160v96 96z"/><path d="m-128-160h-64-30-26-16z"/><path d="m768 552v120z"/><path d="m384 480v-128z"/><path d="m640 232v120z"/><path d="m640 32v200z"/><path d="m640 352h128z"/><path d="m512 352h-128z"/><path d="m192 288h-32z"/><path d="m352 168v120z"/><path d="m352 32v48 88z"/><path d="m504 672h-120z"/><path d="m624 672h-120z"/><path d="m768 672h-144z"/><path d="m-264 352h-120 64 8 10 14 18z"/><path d="m-416 512v42 42 32 28 20 16 8 4z"/><path d="m-288 704h-128z"/><path d="m-736 672v-160z"/><path d="m-584 704h-120 64 32z"/><path d="m-608 512v42 42 32 28 20 16 8 4z"/><path d="m-448 512h32v192h-32z"/><path d="m-640 512h32v192h-32z"/><path d="m-704 704-32-32z"/></g></defs><path d="m-1062-966h1996v2028h-1996z" fill="#fff"/><g stroke="#000"><use fill="none" stroke-miterlimit="0" stroke-width="15" xlink:href="#a"/><use fill="#fff" xlink:href="#a"/></g></svg>