<svg viewBox="-768 -448 1472 704" xmlns="http://www.w3.org/2000/svg" xmlns:xlink="http://www.w3.org/1999/xlink"><defs><g id="a"><path d="m480 32h-160z"/><path d="m-384 32h32z"/><path d="m320-320h-224z"/><path d="m96-320h-224z"/><path d="m384-64v-32z"/><path d="m384-96v-224z"/><path d="m384-64h96v96h-96z"/><path d="m384-128v160h-96v-160z"/><path d="m288 32h-224v-160h224z"/><path d="m64 32h-224v-160h224z"/><path d="m-160 32h-224v-160h224z"/><path d="m384-320v192h-64v-192z"/><path d="m320-128h-224v-192h224z"/><path d="m96-128h-224v-192h224z"/><path d="m-160-128h-224v-192h224z"/><path d="m-384-192v64 160-64z"/><path d="m480-281.3113v217.3113h-96v-217.3113z"/><path d="m480-192v-224z"/><path d="m480-320v128z"/><path d="m480-192v224-96z"/><path d="m384-320h-64z"/><path d="m480-416v96h-64v-96z"/><path d="m416-320h-224v-96h224z"/><path d="m192-320h-224v-96h224z"/><path d="m-32-320h-224v-96h224z"/><path d="m-256-320h-224v-96h224z"/><path d="m-416-416h-64z"/><path d="m-192-416h-224z"/><path d="m32-416h-224z"/><path d="m256-416h-224z"/><path d="m384-320h96v38.6887h-96z"/><path d="m-384-320v128z"/><path d="m-128-320v192z"/><path d="m-128-320v192h-32v-192z"/><path d="m-480-320h96v83.3066h-96z"/><path d="m480-416v224z"/><path d="m480 32v-224z"/><path d="m-384-236.6934v204.6934h-96v-204.6934z"/><path d="m480 32h-160z"/><path d="m96 32h224z"/><path d="m-128 32h224z"/><path d="m-352 32h224z"/><path d="m-480-32v-160z"/><path d="m-480-192v-224 96z"/><path d="m-480 32h128z"/><path d="m-480-32h96v64h-96z"/><path d="m-352 32h-128z"/><path d="m-480-32v64z"/><path d="m-480-256v224z"/><path d="m-480-416h64z"/><path d="m-416-416h224z"/><path d="m-192-416h224z"/><path d="m32-416h224z"/><path d="m480-416h-224z"/></g><g id="b"><path d="m-480-416v32z"/><path d="m-480-256v-160z"/><path d="m480-416v32z"/><path d="m480 32v-224z"/><path d="m704-256h-192z"/><path d="m704-256v224z"/><path d="m512-256h192v224h-192z"/><path d="m512-160h-32z"/><path d="m480-32v-128h32v128z"/><path d="m-352 64v192z"/><path d="m288 256v-192z"/><path d="m-160 64h-192z"/><path d="m64 64h-224z"/><path d="m288 256h-192z"/><path d="m288 64v192h-192v-192z"/><path d="m96 256h-224v-192h224z"/><path d="m-128 256h-224v-192h224z"/><path d="m-512-256h32z"/><path d="m-512-384h32v128h-32z"/><path d="m-512-128h-32z"/><path d="m-768-128v-32z"/><path d="m-736-384h-32z"/><path d="m-512-384h-224z"/><path d="m-544-384h32v32h-32z"/><path d="m-512-352v224h-32v-224z"/><path d="m-768-384h224v32h-224z"/><path d="m-544-352v224h-224v-224z"/><path d="m480 32h-192z"/><path d="m320 32h-224z"/><path d="m96 32h-224z"/><path d="m-128 32h-224z"/><path d="m-352 32h224z"/><path d="m288 64h-224z"/><path d="m-128 64h-224z"/><path d="m64 64v-32z"/><path d="m-128 32h192v32h-192z"/><path d="m480-384v224z"/><path d="m480-416v160z"/><path d="m512-160v128z"/><path d="m512-32h-32z"/><path d="m480-160v128h32v-128z"/><path d="m-512-384v128z"/><path d="m-480-384h-32z"/><path d="m-480-384h-32v128h32z"/><path d="m288 32h-224z"/><path d="m480 32h-64z"/><path d="m-160 64h-192z"/><path d="m64 64h-224z"/><path d="m64 64h224z"/><path d="m-128 32v32z"/><path d="m-128 64h192v-32h-192z"/></g><g id="c"><path d="m-480-416v224z"/><path d="m-480-192v224z"/><path d="m-480-384v128z"/><path d="m-480 32v-64z"/><path d="m-480-32v-224z"/><path d="m480-448v224z"/><path d="m480-256v224z"/><path d="m480-32v64z"/><path d="m512-160v-96z"/><path d="m704-32h-192z"/><path d="m704-256h-192v224h192z"/><path d="m416 32h-224z"/><path d="m192 32h-224z"/><path d="m-32 32h-224z"/><path d="m-256 32h-224z"/><path d="m480 32h-224z"/><path d="m480-448v32h-64v-32z"/><path d="m416-416h-224v-32h224z"/><path d="m192-416h-224v-32h224z"/><path d="m-32-416h-224v-32h224z"/><path d="m-256-416h-224v-32h224z"/><path d="m480-416h-224z"/><path d="m288 64h-224z"/><path d="m96 256h-224z"/><path d="m-128 256h-224z"/><path d="m288 256v-192h-192v192z"/><path d="m96 64h-224v192h224z"/><path d="m-128 64h-224v192h224z"/><path d="m-512-256v128z"/><path d="m-544-128h-224z"/><path d="m-768-160v-224z"/><path d="m-544-160v32h32v-32z"/><path d="m-512-384h-32v224h32z"/><path d="m-768-160v32h224v-32z"/><path d="m-544-384h-224v224h224z"/><path d="m-480-448v32z"/><path d="m480 0v32z"/><path d="m480-224v224z"/><path d="m-416 32h-64z"/><path d="m-192 32h-224z"/><path d="m32 32h-224z"/><path d="m256 32h-224z"/></g></defs><g stroke="#000"><use fill="none" stroke-miterlimit="0" stroke-width="10" xlink:href="#a"/><use fill="#ccc" xlink:href="#a"/><use fill="none" stroke-miterlimit="0" stroke-width="10" xlink:href="#b"/><use fill="#e5e5e5" xlink:href="#b"/><use fill="none" stroke-miterlimit="0" stroke-width="10" xlink:href="#c"/><use fill="#fff" xlink:href="#c"/></g></svg>