<?xml version="1.0" encoding="utf-8" ?>
<svg baseProfile="tiny" height="100%" version="1.2" viewBox="-441.0 -1225.0 2194.0 1650.0" width="100%" xmlns="http://www.w3.org/2000/svg" xmlns:ev="http://www.w3.org/2001/xml-events" xmlns:xlink="http://www.w3.org/1999/xlink"><defs><g id="bsp_ref"><polygon points="128,-396 160,-396 160,-292 160,-240 96,-240 96,-396" /><polygon points="160,-240 160,-292 236,-292 260,-292 288,-292 288,-240" /><polygon points="160,-292 160,-396 236,-396 236,-292" /><polygon points="260,-292 260,-396 288,-396 288,-292" /><polygon points="96,-396 96,-448 128,-448 128,-396" /><polygon points="128,-544 129,-544 128,-512" /><polygon points="208,-544 210.5484,-541.4516 161,-543 129,-544" /><polygon points="240,-448 240,-396 236,-396 160,-396 128,-396 128,-448 128,-512 161,-543 210.5484,-541.4516 240,-512" /><polygon points="288,-448 288,-396 260,-396 240,-396 240,-448" /><polygon points="160,-240 288,-240 288,-240 96,-240 96,-240" /><polygon points="240,-448 240,-512 240,-512 240,-496 240,-448" /><polygon points="208,-544 129,-544 128,-544 128,-544 129,-544 208,-544" /><polygon points="240,-512 210.5484,-541.4516 208,-544 208,-544 210.5483,-541.4517 240,-512" /><polygon points="128,-512 129,-544 129,-544 128,-512" /><polygon points="161,-543 128,-512 128,-512 161,-543" /><polygon points="260,-292 260,-292 260,-316 260,-372 260,-396 260,-396" /><polygon points="244,-380 236,-380 236,-308 244,-308" /><polygon points="96,-240 288,-240 288,-240 256,-240 64,-240 64,-240" /><polygon points="128,-448 128,-448 96,-448 96,-448" /><polygon points="128,-448 128,-448 128,-448 128,-448 128,-496 128,-512 128,-544 128,-544.0312 128,-544.0312 128,-544 128,-512 128,-448" /><polygon points="96,-448 96,-448 96,-396 96,-240 96,-240" /><polygon points="236,-372 236,-396 236,-396 236,-372" /><polygon points="236,-292 236,-316 236,-316 236,-292" /><polygon points="236,-372 236,-316 236,-292 236,-292 236,-396 236,-396" /><polygon points="236,-292 236,-292 236,-292 260,-292 260,-292 260,-292 236,-292" /><polygon points="236,-316 236,-372 260,-372 260,-316" /><polygon points="64,-448 96,-448 96,-240 64,-240" /><polygon points="288,-240 288,-240 256,-240 256,-240" /><polygon points="96,-448 128,-448 128,-448 96,-448 64,-448 64,-448" /><polygon points="64,-448 64,-448 64,-240 64,-240" /><polygon points="32,-448 64,-448 64,-240 32,-240" /><polygon points="256,-240 288,-240 288,-240 224,-240 224,-240" /><polygon points="256,-240 224,-240 32,-240 32,-240 64,-240 256,-240" /><polygon points="32,-448 32,-448 96,-448 96,-448 64,-448 32,-448" /><polygon points="32,-448 0,-448 0,-448 32,-448" /><polygon points="0,-448 32,-448 32,-240 0,-240" /><polygon points="32,-448 32,-448 32,-240 32,-240" /><polygon points="0,-240 160,-240 160,-240 -32,-240 -32,-240" /><polygon points="224,-240 160,-240 0,-240 0,-240 32,-240 224,-240" /><polygon points="0,-448 0,-448 0,-240 0,-240" /><polygon points="-32,-448 0,-448 0,-240 -32,-240" /><polygon points="96,-448 96,-448 32,-448 0,-448 -32,-448 -32,-448" /><polygon points="128,-448 128,-448 96,-448 96,-448 96,-448" /><polygon points="-64,-448 -32,-448 -32,-240 -64,-240" /><polygon points="-32,-448 -32,-448 -32,-240 -32,-240" /><polygon points="-64,-192 -64,-192 -64,16 -64,16" /><polygon points="-64,-448 -64,-448 -64,-240 -64,-240" /><polygon points="-64,-240 -64,-240 -32,-240 160,-240 160,-240 -64,-240" /><polygon points="-304,-288 -304,-224 -304,-64 -304,-64 -304,-224 -304,-288" /><polygon points="-224,-448 -64,-448 -64,-240 -64,-224 -304,-224 -304,-288 -304,-368" /><polygon points="-64,-224 -64,-192 -64,16 -224,16 -304,-64 -304,-224" /><polygon points="-304,-64 -224,16 -224,16 -304,-64" /><polygon points="-64,-192 -64,-192 -32,-192 -32,-192" /><polygon points="-64,16 -32,16 -32,16 -64,16" /><polygon points="-32,-192 -32,-192 -32,16 -32,16" /><polygon points="-64,16 -64,-192 -32,-192 -32,16" /><polygon points="-64,16 -64,16 -64,16 -64,16 -64,16 -64,16 -64,16 -64,16 -128,16 -224,16 -224,16 -64,16" /><polygon points="236,-396 236,-396 236,-396 240,-396 260,-396 260,-396 260,-396 236,-396" /><polygon points="236,-316 236,-316 236,-372 236,-372" /><polygon points="236,-372 236,-372 236,-316 236,-316" /><polygon points="260,-372 260,-372 236,-372 236,-372" /><polygon points="260,-372 260,-372 260,-396 260,-396 260,-372" /><polygon points="236,-316 236,-316 260,-316 260,-316" /><polygon points="260,-372 236,-372 236,-316 260,-316" /><polygon points="260,-316 260,-316 260,-372 260,-372" /><polygon points="260,-372 260,-372 260,-316 260,-316" /><polygon points="-32,-192 -64,-192 -64,-192 0,-192 0,-192" /><polygon points="0,-192 0,-192 0,16 0,16" /><polygon points="-32,16 -32,-192 0,-192 0,16" /><polygon points="244,-308 236,-308 236,-380 244,-380" /><polygon points="244,-308 244,-308 236,-308 236,-308" /><polygon points="236,-380 236,-380 244,-380 244,-380" /><polygon points="236,-308 236,-308 236,-380 236,-380" /><polygon points="244,-380 244,-380 244,-308 244,-308" /><polygon points="236,-396 260,-396 260,-372 260,-316 260,-292 236,-292" /><polygon points="236,-292 236,-292 236,-316 236,-372 236,-396 236,-396" /><polygon points="260,-372 260,-372 260,-316 260,-316" /><polygon points="260,-292 260,-316 260,-316 260,-316 260,-292" /><polygon points="0,-192 -64,-192 -64,-192 32,-192 32,-192" /><polygon points="0,16 -64,16 -64,16 -32,16 0,16" /><polygon points="32,-192 32,-192 32,16 32,16" /><polygon points="0,16 0,-192 32,-192 32,16" /><polygon points="32,-192 -64,-192 -64,-192 64,-192 64,-192" /><polygon points="32,16 -64,16 -64,16 0,16 32,16" /><polygon points="64,-192 64,-192 64,16 64,16" /><polygon points="32,16 32,-192 64,-192 64,16" /><polygon points="129,-544 161,-543 210.5483,-541.4517 208,-544" /><polygon points="129,-544 129,-544 161,-543 161,-543" /><polygon points="64,-192 -64,-192 -64,-192 96,-192 96,-192" /><polygon points="64,16 -64,16 -64,16 32,16 64,16" /><polygon points="96,-192 96,-192 96,16 96,16" /><polygon points="64,16 64,-192 96,-192 96,16" /><polygon points="128,-512 129,-544 128,-544" /><polygon points="288,-448 288,-448 288,-396 288,-396 288,-448" /><polygon points="240,-448 288,-448 288,-448 240,-448" /><polygon points="240,-496 128,-496 128,-448 240,-448" /><polygon points="128,-496 240,-496 240,-512 210.5483,-541.4517 161,-543 128,-512" /><polygon points="96,-192 -64,-192 -64,-192 128,-192 128,-192" /><polygon points="96,16 -64,16 -64,16 64,16 96,16" /><polygon points="-64,16 96,16 128,16 128,16 -64,16" /><polygon points="128,16 128,-192 128,-192 128,16" /><polygon points="96,16 96,-192 128,-192 128,16" /><polygon points="288,-396 288,-396 288,-240 288,-240 288,-240 288,-240 288,-240 288,-240 288,-292 288,-396" /><polygon points="288,-396 288,-448 288,-496 288,-496 288,-448 288,-396" /><polygon points="288,-240 160,-240 160,-240 160,-240 224,-240 288,-240" /><polygon points="288,-496 288,-496 286.4355,-496" /><polygon points="288,-448 288,-496 286.4355,-496 286.4358,-448" /><polygon points="288,-396 288,-448 286.4358,-448 160,-448 160,-240 288,-240" /><polygon points="286.4355,-496 288,-496 288,-448 286.4358,-448" /><polygon points="160,-192 192,-192 192,16 160,16 128,16 128,-192" /><polygon points="192,-192 192,-192 192,16 192,16" /><polygon points="361.5,-192 361.5,16 320,16 320,-192" /><polygon points="361.5,-192 384,-192 384,16 361.5,16" /><polygon points="160,-192 192,-192 192,-192 160,-192" /><polygon points="160,-192 160,-192 128,-192 -64,-192 -64,-192 -64,-192 64,-192 160,-192" /><polygon points="192,16 160,16 160,16 192,16" /><polygon points="320,16 192,16 192,-192 320,-192" /><polygon points="544,-1088 480,-1088 320,-1088 320,-1088 336,-1088 544,-1088" /><polygon points="320,-768 320,-752 320,-544 320,-544 320,-704 320,-768" /><polygon points="320,-992 320,-864 320,-768 320,-768 320,-928 320,-992" /><polygon points="1136,-912 1136,-1024 1296,-1024 1296,-976 1296,-800 1136,-800" /><polygon points="1296,-800 1296,-752 1296,-576 1136,-576 1136,-688 1136,-800" /><polygon points="1296,-576 1296,-544 1136,-544 1136,-576" /><polygon points="1136,-544 1296,-544 1296,-528 1152,-528 1056,-528 1056,-544" /><polygon points="1056,-688 1136,-688 1136,-576 1136,-544 1056,-544" /><polygon points="544,-1088 704,-1088 704,-928 544,-928 480,-928 480,-1088" /><polygon points="640,-880 704,-880 864,-880 864,-720 864,-704 864,-672 864,-656 640,-656" /><polygon points="864,-656 864,-544 864,-512 864,-432 640,-432 640,-656" /><polygon points="864,-432 864,-384 640,-384 640,-396 640,-432" /><polygon points="704,-928 704,-880 640,-880 544,-880 544,-928" /><polygon points="928,-544 928,-672 928,-688 1056,-688 1056,-544 1056,-528 928,-528" /><polygon points="928,-544 864,-544 864,-656 864,-672 914.2857,-672 928,-672" /><polygon points="864,-384 864,-432 864,-512 918.8572,-384" /><polygon points="768,-96 768,-192 864,-192 960,-192 992,-192 992,16 835.2,16" /><polygon points="992,-192 1024,-192 1024,16 995,16 992,16" /><polygon points="864,-192 768,-192 640,-192 640,-384 864,-384" /><polygon points="960,-288 960,-240 960,-192 864,-192 864,-384 918.8572,-384" /><polygon points="320,-992 320,-1088 480,-1088 480,-928 480,-864 320,-864" /><polygon points="480,-864 480,-840 480,-808 480,-768 464,-752 400,-752 320,-752 320,-768 320,-864" /><polygon points="544,-672 544,-704 544,-752 544,-880 640,-880 640,-656 544,-656" /><polygon points="640,-656 640,-432 544,-432 544,-512 544,-544 544,-656" /><polygon points="640,-432 640,-396 544,-396 544,-432" /><polygon points="416,-672 400,-672 400,-688 416,-704" /><polygon points="400,-752 464,-752 416,-704 400,-688" /><polygon points="544,-656 544,-544 480,-544 480,-672 544,-672" /><polygon points="400,-672 416,-672 480,-672 480,-544 400,-544" /><polygon points="544,-512 544,-432 544,-396 494.2857,-396" /><polygon points="320,-752 400,-752 400,-688 400,-672 400,-544 320,-544" /><polygon points="448,-192 448,-288 458.9091,-313.4546 494.2857,-396 544,-396 640,-396 640,-384 640,-192 640,-172 448,-172" /><polygon points="640,-172 640,-96 572.8,16 448,16 448,-172" /><polygon points="384,-192 448,-192 448,-172 448,16 384,16" /><polygon points="1296,-1024 1296,-1024 1296,-1008 1296,-976 1296,-976" /><polygon points="992,-192 960,-192 960,-192 1024,-192 1024,-192" /><polygon points="768,-192 768,-192 640,-192 640,-192" /><polygon points="448,-192 384,-192 448,-192" /><polygon points="1136,-912 1136,-800 1136,-688 1136,-688 1136,-896 1136,-912" /><polygon points="1296,-528 1296,-528 1280,-528 1194.6667,-528 1152,-528 1152,-528" /><polygon points="928,-688 928,-672 928,-672 928,-688" /><polygon points="928,-544 928,-544 864,-544 864,-544" /><polygon points="960,-240 960,-288 960,-288 960,-240" /><polygon points="918.8572,-384 864,-512 864,-512 864,-512 960,-288 960,-288" /><polygon points="400,-544 480,-544 480,-544 416,-544 400,-544 336,-544 320,-544 320,-544" /><polygon points="480,-928 544,-928 544,-928 480,-928" /><polygon points="704,-1088 704,-1088 704,-928 704,-928" /><polygon points="544,-928 544,-880 544,-752 544,-752 544,-880 544,-928" /><polygon points="864,-720 864,-880 864,-880 864,-800 864,-720" /><polygon points="914.2857,-672 864,-672 864,-672 914.2857,-672" /><polygon points="464,-752 480,-768 480,-768 464,-752 416,-704 416,-704" /><polygon points="458.9091,-313.4546 448,-288 448,-288 448,-288 497.0909,-402.5454" /><polygon points="1024,16 1024,16 995,16 995,16" /><polygon points="1024,-192 1024,-192 1024,16 1024,16" /><polygon points="640,-96 640,-96 572.8,16 572.8,16" /><polygon points="384,-192 361.5,-192 320,-192 320,-192" /><polygon points="320,16 320,16 361.5,16 384,16" /><polygon points="320,-192 320,-192 192,-192 160,-192 160,-192 288,-192 320,-192" /><polygon points="320,16 320,16 288,16 160,16 160,16 192,16 320,16" /><polygon points="480,-840 480,-840 480,-808 480,-808" /><polygon points="448,-880 416,-880 416,-768 448,-768" /><polygon points="448,-808 448,-768 480,-768 480,-808" /><polygon points="480,-880 448,-880 448,-840 480,-840" /><polygon points="448,-840 480,-840 480,-840" /><polygon points="480,-808 480,-808 448,-808" /><polygon points="448,-808 480,-808 480,-840 448,-840" /><polygon points="160,-448 128,-448 -64,-448 -64,-240 160,-240" /><polygon points="128,-448 160,-448 286.4358,-448 288,-448 288,-448 240,-448 128,-448" /><polygon points="128,-448 128,-448 128,-448 96,-448 -32,-448 -64,-448 -64,-448 -64,-448" /><polygon points="1024,-192 960,-192 960,-192 1065.1428,-192 1065.1428,-192 1065.1428,-192 1065.1428,-192" /><polygon points="960,-192 960,-192 960,-240 960,-240 960,-192" /><polygon points="1024,16 1072,16 1072,16 995,16 995,16" /><polygon points="1072,-192 1072,-192 1072,16 1072,16" /><polygon points="1024,-192 1065.1428,-192 1072,-192 1072,16 1024,16" /><polygon points="480,-768 480,-768 416,-768 416,-768" /><polygon points="416,-880 416,-880 480,-880 480,-880" /><polygon points="416,-768 416,-768 416,-880 416,-880" /><polygon points="480,-880 480,-880 480,-768 480,-768" /><polygon points="480,-768 416,-768 416,-880 480,-880" /><polygon points="480,-808 480,-808 480,-768 480,-768 480,-768 480,-768 480,-808" /><polygon points="480,-808 480,-808 480,-840 480,-840" /><polygon points="1065.1428,-192 1072,-192 1072,-192 1065.1428,-192" /><polygon points="1120,-192 1120,-192 1120,16 1120,16" /><polygon points="1072,-192 1120,-192 1120,16 1072,16" /><polygon points="448,-192 448,-192 448,-288 448,-288 448,-192" /><polygon points="1065.1428,-192 1120,-192 1120,-192 1072,-192 1065.1428,-192" /><polygon points="1168,16 1168,16 1152,16 1152,16" /><polygon points="1120,16 1152,16 1152,16 1152,16 1152,16 1120,16" /><polygon points="1120,16 1120,16 995,16 995,16 995,16 1072,16 1120,16" /><polygon points="1168,-192 1168,-192 1168,16 1168,16" /><polygon points="1152,-192 1168,-192 1168,16 1152,16 1120,16 1120,-192" /><polygon points="-64,-240 -64,-224 -64,-192 -64,-192 -64,-192 -64,-192 -64,-192 -64,-192 -64,-192 -64,-192 -64,-192 -64,-224 -64,-240" /><polygon points="-64,-192 -64,16 -64,16 -64,-192" /><polygon points="1152,-192 1168,-192 1168,-192 1152,-192" /><polygon points="1168,16 1216,16 1216,16 1152,16 1152,16" /><polygon points="1216,-192 1216,-192 1216,16 1216,16" /><polygon points="1168,-192 1216,-192 1216,16 1168,16" /><polygon points="-64,16 -64,16 128,16 160,16 160,16 160,16 64,16 -64,16" /><polygon points="-224,-448 -128,-448 -64,-448 -64,-448 -224,-448" /><polygon points="-128,-448 -224,-448 -224,-320 -128,-320" /><polygon points="-224,-320 -224,-448 -304,-368 -304,-288 -304,-224 -224,-224" /><polygon points="-304,-224 -304,-64 -224,16 -224,-96 -224,-224" /><polygon points="-64,-240 -64,-448 -128,-448 -128,-320 -128,-224 -64,-224" /><polygon points="-128,-224 -128,-96 -128,16 -64,16 -64,-192 -64,-224" /><polygon points="-128,-96 -224,-96 -224,16 -128,16" /><polygon points="-224,-320 -224,-224 -224,-96 -224,-96 -224,-144 -224,-176 -224,-177 -224,-256 -224,-288 -224,-289 -224,-320" /><polygon points="-128,-224 -128,-320 -128,-320 -128,-288 -128,-240 -128,-208 -128,-176 -128,-128 -128,-96 -128,-96" /><polygon points="-304,-368 -304,-368 -304,-288 -304,-288" /><polygon points="-224,-448 -224,-448 -304,-368 -304,-368" /><polygon points="1296,-192 1440,-192 1472,-192 1472,0 1472,16 1296,16" /><polygon points="1472,-192 1472,-192 1472,-40 1472,0 1472,0" /><polygon points="1152,-192 1216,-192 1216,-192 1168,-192 1152,-192" /><polygon points="864,-880 864,-880 864,-800 864,-800" /><polygon points="768,-96 768,-96 835.2,16 835.2,16" /><polygon points="835.2,16 835.2,16 992,16 995,16 995,16 995,16 995,16" /><polygon points="1216,-192 1264,-192 1296,-192 1296,16 1216,16" /><polygon points="-224,-96 -224,-96 -128,-96 -128,-96 -128,-96 -224,-96" /><polygon points="-128,-320 -128,-320 -224,-320 -224,-320 -224,-320 -128,-320" /><polygon points="-224,-96 -224,-96 -224,-144 -224,-144" /><polygon points="-128,-128 -128,-176 -128,-176 -128,-176 -128,-128" /><polygon points="-128,-320 -222.8148,-288.3951 -224,-288 -224,-256 -222.8148,-256.3951 -184.8889,-269.037 -128,-288" /><polygon points="-128,-240 -184.8889,-269.037 -222.8148,-256.3951 -128,-208" /><polygon points="-222.8148,-176.3951 -224,-177 -224,-176" /><polygon points="-128,-128 -184.8889,-157.037 -222.8148,-144.3951 -128,-96" /><polygon points="-128,-208 -222.8148,-176.3951 -224,-176 -224,-144 -222.8148,-144.3951 -184.8889,-157.037 -128,-176" /><polygon points="-222.8148,-288.3951 -224,-289 -224,-288" /><polygon points="-184.8889,-157.037 -128,-128 -128,-128 -184.8889,-157.037" /><polygon points="-222.8148,-256.3951 -224,-256 -224,-256 -222.8148,-256.3951" /><polygon points="-222.8148,-288.3951 -128,-320 -128,-320 -222.8148,-288.3951" /><polygon points="-222.8148,-176.3951 -128,-208 -128,-208 -222.8148,-176.3951" /><polygon points="-184.8889,-269.037 -128,-240 -128,-240 -184.8889,-269.037" /><polygon points="-222.8148,-144.3951 -224,-144 -224,-144 -222.8149,-144.3951" /><polygon points="1616,0 1616,-40 1616,-208 1616,-208 1616,-192 1616,-40 1616,0 1616,16 1616,16" /><polygon points="1472,16 1472,16 1296,16 1296,16 1472,16" /><polygon points="1560,-144 1560,-208 1584,-208 1584,-144" /><polygon points="1584,-120 1584,-144 1584,-208 1616,-208 1616,-40 1584,-40" /><polygon points="1472,-192 1472,-208 1560,-208 1560,-144 1560,-40 1472,-40" /><polygon points="1560,-40 1584,-40 1616,-40 1616,0 1472,0 1472,-40" /><polygon points="1584,-120 1584,-40 1584,-40 1584,-64 1584,-120" /><polygon points="1440,-192 1440,-192 1296,-192 1296,-192" /><polygon points="1472,-192 1472,-192 1440,-192 1440,-192" /><polygon points="1616,0 1616,16 1472,16 1472,0" /><polygon points="1472,0 1472,16 1472,16 1472,0" /><polygon points="560,-1088 688,-1088 704,-1088 704,-1088 544,-1088 544,-1088" /><polygon points="320,-1088 320,-1088 320,-992 320,-992" /><polygon points="704,-1088 688,-1088 688,-1072 688,-928 704,-928" /><polygon points="560,-1088 544,-1088 336,-1088 336,-1072 560,-1072" /><polygon points="1296,-240 1296,-208 1296,-208 1296,-240" /><polygon points="1440,-192 1440,-192 1296,-192 1296,-192" /><polygon points="1440,-192 1440,-192 1440,-192 1440,-192 1440,-192 1440,-192 1472,-192 1472,-192 1440,-192" /><polygon points="1296,-240 1296,-240 1440,-240 1440,-240" /><polygon points="1296,-208 1296,-240 1440,-240 1440,-192 1296,-192" /><polygon points="864,-544 864,-512 864,-512 864,-544" /><polygon points="928,-544 928,-544 928,-528 928,-528" /><polygon points="928,-672 928,-672 914.2857,-672 914.2857,-672" /><polygon points="928,-544 928,-672 914.2857,-672 864,-554.6667 864,-544" /><polygon points="480,-544 480,-544 544,-544 544,-544" /><polygon points="544,-672 544,-704 544,-704 544,-672" /><polygon points="544,-704 544,-704 544,-704 544,-752 544,-752 544,-752 544,-704" /><polygon points="784,-880 864,-880 864,-880 864,-880 704,-880 704,-880" /><polygon points="864,-800 864,-800.0011 864,-720 864,-720 864,-800" /><polygon points="864,-704 864,-704 864,-720 864,-720 864,-720 864,-704" /><polygon points="864,-880 784,-880 864,-800" /><polygon points="864,-800 784,-880 784,-880 864,-800.0011" /><polygon points="914.2857,-672 864,-672 864,-554.6667" /><polygon points="864,-554.6667 864,-672 864,-704 864,-704 864,-554.6667" /><polygon points="864,-704 864,-672 864,-672 864,-704" /><polygon points="480,-672 544,-672 544,-672 480,-672" /><polygon points="480,-672 480,-544 544,-544 544,-672" /><polygon points="544,-544 544,-544 544,-512 544,-512 544,-544" /><polygon points="688,-1072 688,-1088 688,-1072" /><polygon points="336,-1072 336,-1088 336,-944 336,-944" /><polygon points="560,-1072 336,-1072 336,-1072 560,-1072" /><polygon points="688,-1072 688,-1088 560,-1088 560,-1072" /><polygon points="1584,-40 1584,-40 1560,-40 1560,-40 1560,-40 1584,-40" /><polygon points="1560,-120 1560,-64 1560,-40 1560,-40 1560,-144 1560,-144" /><polygon points="1584,-120 1584,-120 1584,-120 1584,-144 1584,-144 1584,-120" /><polygon points="1560,-64 1560,-120 1584,-120 1584,-64" /><polygon points="1568,-128 1552,-128 1552,-56 1568,-56" /><polygon points="1296,-288 1296,-240 1296,-208 1296,-208 1296,-288" /><polygon points="1440,-192 1440,-192 1440,-240 1440,-240" /><polygon points="1296,-288 1296,-288 1440,-288 1440,-288" /><polygon points="1440,-240 1296,-240 1296,-288 1440,-288" /><polygon points="336,-1072 336,-1072 336,-944 336,-944" /><polygon points="560,-1072 336,-1072 336,-944 464,-944 560,-944" /><polygon points="688,-1072 688,-1072 560,-1072 560,-1072" /><polygon points="640,288 768,288 864,288 864,288 640,288" /><polygon points="864,288 995,288 995,288 995,288 864,288" /><polygon points="1296,-752 1296,-528 1296,-528 1296,-544 1296,-576 1296,-752" /><polygon points="1296,-976 1296,-752 1296,-752 1296,-800 1296,-976" /><polygon points="1440,-192 1440,-192 1440,-240 1440,-288 1440,-288" /><polygon points="1296,-336 1296,-336 1440,-336 1440,-336" /><polygon points="1440,-288 1296,-288 1296,-336 1440,-336" /><polygon points="1264,-192 1264,-192 1264,-192 1264,-192 1280,-192 1296,-192 1296,-192 1296,-192 1296,-192 1296,-192 1296,-192 1264,-192" /><polygon points="1152,-192 1264,-192 1264,-192 1216,-192 1152,-192" /><polygon points="1065.1428,-192 1088,-192 1152,-192 1152,-192 1152,-192 1152,-192 1120,-192 1065.1428,-192" /><polygon points="448,-192 448,-192 384,-192 320,-192 320,-192" /><polygon points="768,-192 840.7272,-228.3636 768,-272" /><polygon points="1152,-1024 1296,-1024 1296,-1024 1136,-1024 1136,-1024" /><polygon points="864,-512 864,-512 864,-544 864,-554.6667 864,-554.6667" /><polygon points="1280,-1008 1296,-1008 1296,-1024 1152,-1024 1152,-1008" /><polygon points="1280,-752 1280,-544 1280,-528 1296,-528 1296,-752" /><polygon points="1280,-976 1280,-768 1280,-752 1296,-752 1296,-976" /><polygon points="1296,-1008 1280,-1008 1280,-976 1296,-976" /><polygon points="1136,-896 1136,-688 1136,-672 1152,-672 1152,-896" /><polygon points="1152,-1008 1152,-1024 1136,-1024 1136,-912 1136,-896 1152,-896" /><polygon points="1194.6667,-544 1008,-544 992,-544 970.6667,-544 970.6667,-528 1152,-528 1194.6667,-528" /><polygon points="1280,-528 1280,-544 1232,-544 1194.6667,-544 1194.6667,-528" /><polygon points="992,-672 1008,-672 1136,-672 1136,-688 970.6667,-688 970.6667,-672" /><polygon points="1008,-672 992,-672 992,-544 1008,-544" /><polygon points="960,-240 960,-288 864,-240" /><polygon points="1280,-544 1280,-544 1232,-544 1232,-544" /><polygon points="1152,-896 1152,-672 1152,-672 1152,-784 1152,-896" /><polygon points="1280,-976 1280,-1008 1280,-1008 1280,-784 1280,-768 1280,-768" /><polygon points="970.6667,-544 992,-544 992,-544" /><polygon points="992,-672 970.6667,-672 992,-672" /><polygon points="970.6667,-672 970.6667,-544 992,-544 992,-672" /><polygon points="864,-512 928,-512 1024,-288 960,-288" /><polygon points="864,-240 960,-288 960,-288 960,-288 864,-240" /><polygon points="1136,-688 1136,-688 1056,-688 928,-688 928,-688 970.6667,-688" /><polygon points="1136,-1024 1136,-1024 1136,-912 1136,-912" /><polygon points="1152,-528 970.6667,-528 928,-528 928,-528 1056,-528 1152,-528" /><polygon points="970.6667,-544 970.6667,-672 970.6667,-688 928,-688 928,-672 928,-544 928,-528 970.6667,-528" /><polygon points="544,-544 544,-704 544,-704 544,-672 544,-544" /><polygon points="864,-720 864,-800.0011 864,-880 939.4285,-880 864,-704" /><polygon points="864,-800.0011 784,-880 864,-880" /><polygon points="939.4285,-880 950.0952,-880 960.7619,-880 1003.4286,-880 928,-704 864,-704" /><polygon points="1264,-192 1264,-208 1264,-208 1264,-192" /><polygon points="1264,-208 1264,-192 1152,-192 1088,-192 1088,-208" /><polygon points="960,-192 960,-240 864,-240 768,-192" /><polygon points="768,-192 768,-272 640,-272 640,-192" /><polygon points="448,-288 448,-192 640,-192" /><polygon points="640,-192 640,-96 640,-96 640,-172 640,-192" /><polygon points="768,-192 768,-192 768,-96 768,-96 768,-96" /><polygon points="848,-144 855.2734,-139.6363 960,-192 768,-192" /><polygon points="855.2734,-139.6363 848,-144 848,-136" /><polygon points="768,-96 848,-136 848,-144 768,-192" /><polygon points="848,-136 768,-96 768,-96 768,-96 768,-96 960,-192 960,-192" /><polygon points="768,160 768,128 995,128 995,288 864,288 768,288" /><polygon points="640,288 640,160 768,160 768,288" /><polygon points="572.8,16 544,16 416,16 385,16 384,16 384,16 448,16 572.8,16" /><polygon points="384,16 320,16 320,16 384,16" /><polygon points="640,-192 560,-144 560,-136 640,-96" /><polygon points="560,-136 560,-144 552.7273,-139.6364" /><polygon points="640,-96 544,16 572.8,16" /><polygon points="448,-192 552.7273,-139.6364 640,-192" /><polygon points="448,-192 320,-192 320,16 384,16 385,16" /><polygon points="560,-136 552.7273,-139.6364 448,-192 448,-192 530.9093,-150.5453 640,-96 640,-96" /><polygon points="416,128 416,64 416,16 544,16 544,128" /><polygon points="416,288 416,128 544,128 640,128 640,160 640,288" /><polygon points="288,-192 160,-192 64,-192 64,16 160,16 288,16" /><polygon points="320,-192 288,-192 288,16 320,16" /><polygon points="64,-192 -64,-192 -64,16 64,16" /><polygon points="-224,-288 -224,-289 -222.8148,-288.3951" /><polygon points="-128,-176 -184.8889,-157.037 -222.8149,-144.3951 -224,-144 -224,-176 -222.8148,-176.3951 -128,-208" /><polygon points="-128,-96 -222.8149,-144.3951 -184.8889,-157.037 -128,-128" /><polygon points="-224,-176 -224,-177 -222.8148,-176.3951" /><polygon points="-128,-208 -222.8148,-256.3951 -184.8889,-269.037 -128,-240" /><polygon points="-128,-288 -184.8889,-269.037 -222.8148,-256.3951 -224,-256 -224,-288 -222.8148,-288.3951 -128,-320" /><polygon points="-224,-289 -224,-320 -224,-320 -224,-289" /><polygon points="-224,-177 -224,-256 -224,-256 -224,-177" /><polygon points="-128,-288 -128,-240 -128,-240 -128,-288" /><polygon points="-224,-177 -224,-177 -222.8148,-176.3951 -222.8148,-176.3951" /><polygon points="-128,-288 -128,-288 -184.8889,-269.037 -184.8889,-269.037" /><polygon points="-224,-289 -224,-289 -222.8148,-288.3951 -222.8148,-288.3951" /><polygon points="-128,-208 -128,-208 -222.8148,-256.3951 -222.8148,-256.3951" /><polygon points="-128,-176 -128,-176 -128,-176 -184.8889,-157.037 -184.8889,-157.037" /><polygon points="-128,-96 -128,-96 -222.8148,-144.3951 -222.8149,-144.3951" /><polygon points="1120,128 1092,128 1068,128 995,128 995,128 1120,128" /><polygon points="995,16 1120,16 1152,16 1152,16 1152,16 1059.2,16 995,16" /><polygon points="995,16 995,16 835.2,16 835.2,16 995,16" /><polygon points="995,288 995,288 995,128 995,128" /><polygon points="1068,156 1068,156 1068,180 1068,236 1068,260 1068,260" /><polygon points="1120,288 1092,288 1092,260 1092,156 1092,128 1120,128" /><polygon points="1092,288 1068,288 1068,260 1092,260" /><polygon points="1068,156 1068,128 1092,128 1092,156" /><polygon points="1068,156 1068,260 1068,288 995,288 995,128 1068,128" /><polygon points="336,-944 336,-1088 320,-1088 320,-992 320,-928 336,-928" /><polygon points="640,160 640,160 640,128 640,128" /><polygon points="768,128 768,128 768,128 768,128 768,128 768,128 768,128 992,128 995,128 995,128 995,128 768,128" /><polygon points="768,128 768,128 768,160 768,160" /><polygon points="768,160 768,160 640,160 640,160" /><polygon points="768,160 640,160 640,128 768,128" /><polygon points="1296,-208 1296,-336 1296,-336 1296,-288 1296,-208" /><polygon points="1296,-208 1296,-208 1296,-208 1296,-208 1296,-192 1296,-192 1296,-208" /><polygon points="1440,-192 1440,-192 1440,-288 1440,-336 1440,-336" /><polygon points="1296,-384 1296,-384 1440,-384 1440,-384" /><polygon points="1440,-336 1296,-336 1296,-384 1440,-384" /><polygon points="1280,-1008 1280,-1008 1152,-1008 1152,-1008" /><polygon points="992,-544 992,-544 992,-672 992,-672" /><polygon points="1232,-544 1152,-544 1008,-544 1008,-544 1194.6667,-544 1232,-544" /><polygon points="1152,-1008 1152,-1008 1152,-896 1152,-896" /><polygon points="1280,-768 1280,-544 1280,-544 1280,-752 1280,-768" /><polygon points="1280,-1008 1152,-1008 1152,-896 1152,-784 1280,-784" /><polygon points="1152,-784 1152,-672 1152,-544 1232,-544 1280,-544 1280,-768 1280,-784" /><polygon points="1008,-672 1008,-672 1008,-544 1008,-544" /><polygon points="1152,-672 1152,-672 1136,-672 1008,-672 1008,-672" /><polygon points="1152,-544 1152,-672 1008,-672 1008,-544" /><polygon points="464,-928 464,-928 336,-928 336,-928" /><polygon points="688,-944 688,-928 688,-1072 688,-1072 688,-1072 688,-980.2449" /><polygon points="688,-944 688,-980.2449 688,-944" /><polygon points="336,-928 336,-928 336,-944 336,-944 336,-944" /><polygon points="688,-944 688,-944 560,-944 464,-944 464,-944" /><polygon points="464,-944 464,-944 464,-928 464,-928" /><polygon points="480,-928 544,-928 688,-928 688,-944 464,-944 464,-928" /><polygon points="768,-880 704,-880 544,-880 544,-880 560,-880 720,-880 736,-880 768,-880" /><polygon points="950.0952,-880 939.4285,-880 864,-880 784,-880 784,-880" /><polygon points="768,-880 784,-880 784,-880 784,-880 704,-880 704,-880" /><polygon points="704,-928 704,-880 704,-880 704,-880 704,-928" /><polygon points="704,-880 704,-928 688,-928 544,-928 544,-880" /><polygon points="480,-928 480,-880 480,-840 480,-840 480,-840 480,-864 480,-928" /><polygon points="480,-840 480,-840 480,-840 480,-808 480,-808 480,-808 480,-840" /><polygon points="416,-752 464,-752 480,-768 400,-768 400,-752" /><polygon points="464,-928 464,-912 464,-896 464,-880 480,-880 480,-928" /><polygon points="384,-768 368,-768 336,-768 336,-752 400,-752 400,-768" /><polygon points="384,-880 368,-880 368,-768 384,-768" /><polygon points="384,-880 464,-880 464,-896 368,-896 368,-880" /><polygon points="336,-928 336,-912 464,-912 464,-928" /><polygon points="336,-752 336,-768 336,-912 336,-928 320,-928 320,-768 320,-704 336,-704" /><polygon points="416,-672 416,-704 416,-752 400,-752 400,-560 400,-544 416,-544" /><polygon points="336,-560 336,-704 320,-704 320,-544 336,-544" /><polygon points="400,-560 336,-560 336,-544 400,-544" /><polygon points="336,-752 336,-752 400,-752 400,-752" /><polygon points="400,-768 480,-768 480,-768 384,-768 384,-768" /><polygon points="368,-768 368,-768 336,-768 336,-768" /><polygon points="368,-880 368,-896 368,-896 368,-768 368,-768" /><polygon points="464,-896 464,-896 368,-896 368,-896" /><polygon points="384,-768 384,-768 384,-880 384,-880" /><polygon points="464,-752 464,-752 416,-704 416,-704" /><polygon points="416,-672 480,-672 480,-672 416,-672" /><polygon points="416,-704 416,-672 416,-672 416,-704" /><polygon points="416,-672 416,-544 480,-544 480,-672" /><polygon points="1068,260 1068,260 1068,260 1092,260 1092,260 1092,260 1092,260 1068,260" /><polygon points="1068,236 1068,180 1092,180 1092,236" /><polygon points="1092,236 1092,180 1092,156 1092,156 1092,260 1092,260" /><polygon points="1080,168 1064,168 1064,248 1080,248" /><polygon points="688,-944 688,-980.2449 688,-1072 560,-1072 560,-944" /><polygon points="1440,-384 1440,-432 1440,-432 1440,-384" /><polygon points="1440,-384 1440,-384 1440,-384 1440,-384 1440,-256 1440,-192 1440,-192 1440,-336 1440,-384" /><polygon points="1440,-384 1296,-384 1296,-432 1440,-432" /><polygon points="464,-928 464,-944 336,-944 336,-928" /><polygon points="544,-880 544,-880 544,-752 544,-752" /><polygon points="960,-880 768,-880 736,-880 736,-880 736,-880 768,-880 896,-880 928,-880 960,-880" /><polygon points="960,-880 960.7619,-880 950.0952,-880 784,-880 768,-880 768,-880" /><polygon points="672,-704 688,-720 667,-720 560,-720 560,-704" /><polygon points="720,-772 667,-720 688,-720 720,-752" /><polygon points="736,-880 720,-880 720,-864 720,-772 720,-752 736,-768" /><polygon points="720,-864 720,-880 560,-880 560,-864" /><polygon points="720,-772 720,-864 720,-864 720,-772" /><polygon points="667,-720 667,-720 560,-720 560,-720" /><polygon points="560,-720 560,-864 560,-880 544,-880 544,-752 544,-704 560,-704" /><polygon points="480,-880 480,-880 480,-840 480,-840 480,-880" /><polygon points="416,-752 464,-752 464,-752 416,-752" /><polygon points="336,-912 336,-912 336,-768 336,-768" /><polygon points="480,-768 480,-768 384,-768 384,-768" /><polygon points="368,-912 464,-912 464,-912 336,-912 336,-912" /><polygon points="480,-880 480,-880 464,-880 384,-880 384,-880" /><polygon points="464,-912 464,-896 464,-896 464,-912" /><polygon points="464,-896 464,-912 368,-912 368,-896" /><polygon points="368,-896 368,-912 336,-912 336,-768 368,-768" /><polygon points="336,-560 336,-560 400,-560 400,-560" /><polygon points="400,-560 400,-560 400,-752 400,-752" /><polygon points="416,-752 416,-752 416,-704 416,-704" /><polygon points="416,-752 416,-704 464,-752" /><polygon points="336,-752 336,-752 336,-704 336,-560 336,-560" /><polygon points="400,-752 336,-752 336,-560 400,-560" /><polygon points="640,96 640,128 640,128 640,96" /><polygon points="768,128 768,128 640,128 640,128" /><polygon points="768,128 640,128 640,96 768,96" /><polygon points="544,-1088 320,-1088 320,-1088 544,-1088" /><polygon points="704,-1088 704,-1084.7347 544,-1084.7346 544,-1088" /><polygon points="704,-1088 704,-1088 544,-1088 544,-1088" /><polygon points="320,-1084.7346 320,-1088 320,-1088" /><polygon points="1296,-384 1296,-432 1296,-432 1296,-384" /><polygon points="1440,-384 1440,-432 1440,-480 1440,-480 1440,-384" /><polygon points="1296,-432 1440,-432 1440,-432 1296,-432" /><polygon points="1440,-432 1296,-432 1296,-480 1440,-480" /><polygon points="704,-1088 704,-1084.7347 704,-1088" /><polygon points="544,-1088 320,-1088 320,-1084.7346 544,-1084.7346" /><polygon points="704,-1084.7347 704,-1088 544,-1088 544,-1084.7346" /><polygon points="544,-1084.7346 320,-1084.7346 320,-1088 544,-1088" /><polygon points="672,-704 672,-704 560,-704 560,-704" /><polygon points="560,-704 560,-704 544,-704 544,-704" /><polygon points="736,-880 736,-880 736,-768 736,-768" /><polygon points="667,-720 720,-772 720,-864 560,-864 560,-720" /><polygon points="560,-864 560,-864 560,-720 560,-720" /><polygon points="720,-864 720,-864 560,-864 560,-864" /><polygon points="736,-768 736,-768 720,-752 688,-720 672,-704 672,-704" /><polygon points="667,-720 667,-720 720,-772 720,-772" /><polygon points="768,128 768,128 768,96 768,96" /><polygon points="768,96 768,96 640,96 640,96" /><polygon points="768,96 640,96 640,64 768,64" /><polygon points="448,-192 448,-192 480,-176 530.9093,-150.5453" /><polygon points="640,-96 640,-96 640,-96 640,-96 640,-96 544,16 544,16 544,16 544,16 640,-96" /><polygon points="1296,-416 1296,-384 1296,-208 1296,-192 1296,-192 1296,-240 1296,-256 1296,-416" /><polygon points="1296,-384 1296,-416 1296,-480 1296,-480 1296,-432 1296,-384" /><polygon points="1296,-208 1296,-384 1296,-384 1296,-384 1296,-384 1296,-336 1296,-208" /><polygon points="1296,-496 1296,-528 1440,-528 1440,-496" /><polygon points="1296,-480 1440,-480 1440,-480 1296,-480" /><polygon points="1440,-480 1296,-480 1296,-496 1440,-496" /><polygon points="544,-704 544,-704 544,-704 544,-704 544,-544 544,-544" /><polygon points="1088,-192 1088,-208 1088,-208 1088,-192" /><polygon points="1264,-192 1264,-208 1088,-208 1088,-192" /><polygon points="1264,-208 1264,-208 1088,-208 1088,-208" /><polygon points="640,64 640,64 640,32 640,32" /><polygon points="768,128 768,128 768,96 768,64 768,64" /><polygon points="768,64 768,64 640,64 640,64" /><polygon points="768,64 640,64 640,32 768,32" /><polygon points="1296,-480 1296,-528 1296,-528 1296,-496 1296,-480 1296,-416 1296,-416" /><polygon points="1296,-176 1296,-192 1296,-192 1296,-176" /><polygon points="1296,-528 1440,-528 1440,-528 1296,-528" /><polygon points="1440,-528 1440,-624 1440,-624 1440,-528" /><polygon points="1296,-624 1440,-624 1440,-528 1296,-528" /><polygon points="1440,-528 1440,-528 1440,-528 1440,-496 1440,-496 1440,-528" /><polygon points="1312,-240 1296,-240 1296,-192 1312,-192" /><polygon points="1312,-256 1296,-256 1296,-240 1312,-240" /><polygon points="1440,-256 1424,-256 1424,-192 1440,-192" /><polygon points="1424,-192 1424,-256 1424,-256 1424,-240 1424,-192" /><polygon points="1296,-256 1312,-256 1312,-256 1296,-256" /><polygon points="1560,-120 1560,-64 1560,-64 1560,-120" /><polygon points="1560,-64 1560,-120 1560,-120 1560,-64" /><polygon points="1560,-64 1560,-64 1560,-40 1560,-40 1560,-64" /><polygon points="1560,-120 1584,-120 1584,-120 1560,-120" /><polygon points="1584,-64 1560,-64 1560,-64 1584,-64" /><polygon points="1584,-120 1560,-120 1560,-64 1584,-64" /><polygon points="1584,-64 1584,-120 1584,-120 1584,-64" /><polygon points="1584,-120 1584,-64 1584,-64 1584,-120" /><polygon points="1296,-192 1296,-176 1312,-176 1312,-192" /><polygon points="1424,-192 1424,-176 1440,-176 1440,-192" /><polygon points="1312,-176 1296,-176 1296,-176 1312,-176" /><polygon points="544,-544 544,-544 544,-544 544,-512 544,-512" /><polygon points="640,16 640,16 640,0 640,0" /><polygon points="640,64 640,64 640,64 640,96 640,128 640,128 640,128 640,64" /><polygon points="640,32 640,64 640,64 640,16 640,16 640,16 640,16 640,16" /><polygon points="768,16 768,0 768,0 768,16" /><polygon points="768,128 768,128 768,64 768,32 768,32" /><polygon points="768,32 768,32 640,32 640,32" /><polygon points="768,16 768,32 640,32 640,16 640,0 768,0" /><polygon points="1568,-56 1552,-56 1552,-128 1568,-128" /><polygon points="1552,-128 1552,-128 1568,-128 1568,-128" /><polygon points="1568,-56 1568,-56 1552,-56 1552,-56" /><polygon points="1568,-128 1568,-128 1568,-56 1568,-56" /><polygon points="1552,-56 1552,-56 1552,-128 1552,-128" /><polygon points="592,-1088 480,-1088 368,-1088 368,-1088 464,-1088 484,-1088 592,-1088" /><polygon points="816,-1088 704,-1088 592,-1088 592,-1088 708,-1088 816,-1088" /><polygon points="320,-928 320,-880 320,-704 320,-704 320,-928" /><polygon points="1296,-528 1296,-624 1296,-624 1296,-528" /><polygon points="1296,-832 1296,-896 1440,-896 1440,-752 1440,-672 1296,-672" /><polygon points="1440,-672 1440,-624 1296,-624 1296,-672" /><polygon points="1440,-896 1440,-896 1440,-848 1440,-752 1440,-752" /><polygon points="1296,-624 1440,-624 1440,-624 1296,-624" /><polygon points="1424,-192 1312,-192 1312,-192 1424,-192" /><polygon points="1424,-256 1424,-256 1440,-256 1440,-256 1424,-256" /><polygon points="1312,-240 1424,-240 1424,-240 1424,-240 1312,-240" /><polygon points="1312,-192 1312,-240 1312,-240 1312,-192" /><polygon points="1312,-192 1424,-192 1424,-240 1312,-240" /><polygon points="1424,-176 1424,-176 1440,-176 1440,-176 1424,-176" /><polygon points="1424,-176 1424,-176 1424,-192 1424,-192" /><polygon points="1120,-192 1232,-192 1264,-192 1264,-192 1088,-192 1088,-192" /><polygon points="1003.4286,-880 1003.4286,-880 1003.4286,-880 1003.4286,-880 1003.4285,-880 928,-704 928,-704 928,-704 928,-704" /><polygon points="928,-512 928,-512 928,-512 1024,-288 1024,-288" /><polygon points="1088,-288 1152,-288 1152,-240 1120,-240 1088,-240" /><polygon points="1088,-288 1046.8572,-384 1152,-384 1152,-288" /><polygon points="1152,-288 1152,-384 1216,-384 1264,-384 1264,-240 1232,-240 1152,-240" /><polygon points="1074.2853,-896 1216,-896 1216,-672 992,-672 992,-704" /><polygon points="1216,-672 1216,-448 1019.4286,-448 992,-512 992,-544 992,-672" /><polygon points="1216,-448 1216,-384 1152,-384 1046.8572,-384 1019.4286,-448" /><polygon points="1216,-896 1264,-896 1264,-832 1264,-672 1216,-672" /><polygon points="1264,-672 1264,-608 1264,-448 1216,-448 1216,-672" /><polygon points="1264,-448 1264,-384 1216,-384 1216,-448" /><polygon points="1264,-832 1296,-832 1296,-672 1264,-672" /><polygon points="1264,-672 1264,-672 1264,-608 1264,-608" /><polygon points="992,-672 992,-544 928,-544 928,-672" /><polygon points="992,-544 992,-544 928,-544 928,-544" /><polygon points="928,-704 928,-672 928,-544 928,-512 886.8571,-608" /><polygon points="960,-288 960,-288 1024,-288" /><polygon points="928,-512 864,-512 864,-554.6667 886.8571,-608" /><polygon points="736,-928 736,-928 736,-928 704,-928 704,-928" /><polygon points="320,-1040 368,-1088 480,-1088 480,-928 320,-928" /><polygon points="704,-928 480,-928 480,-1088 592,-1088 704,-1088" /><polygon points="928,-928 896,-928 768,-928 736,-928 704,-928 704,-1088 816,-1088 928,-1088" /><polygon points="976,-1088 976,-928 928,-928 928,-1088" /><polygon points="368,-1088 320,-1040 320,-1040 368,-1088" /><polygon points="1003.4286,-880 960.7619,-880 960,-880 960,-880" /><polygon points="768,-880 736,-880 736,-880 768,-880" /><polygon points="896,-880 768,-880 768,-928 896,-928" /><polygon points="768,-928 768,-880 768,-880 768,-928" /><polygon points="928,-704 886.8571,-608 864,-554.6667 864,-704" /><polygon points="480,-768 480,-808 480,-808 480,-720 480,-720" /><polygon points="480,-880 480,-928 480,-928 480,-840 480,-840" /><polygon points="480,-928 480,-880 384,-880 320,-880 320,-928" /><polygon points="480,-768 480,-720 480,-704 384,-704 384,-768" /><polygon points="384,-768 384,-704 320,-704 320,-880 384,-880" /><polygon points="384,-704 480,-704 480,-704 464,-704 336,-704 320,-704 320,-704" /><polygon points="480,-880 480,-880 384,-880 384,-880" /><polygon points="384,-880 384,-880 384,-768 384,-768" /><polygon points="544,-512 544,-512 544,-544 544,-544 544,-544 544,-512" /><polygon points="544,-512 544,-512 544,-512 544,-512 494.2857,-396 458.9091,-313.4546 497.0909,-402.5454" /><polygon points="1152,-240 1232,-240 1232,-192 1120,-192 1120,-240" /><polygon points="448,-288 448,-288 448,-288 535.2729,-491.6367 497.0909,-402.5454" /><polygon points="640,0 640,16 640,16 640,-32 640,-32" /><polygon points="768,16 768,0 768,-32 768,-32 768,16" /><polygon points="768,0 640,0 640,-32 768,-32" /><polygon points="768,0 768,0 640,0 640,0" /><polygon points="1424,-240 1424,-240 1424,-256 1424,-256" /><polygon points="1560,-64 1560,-64 1560,-120 1560,-120" /><polygon points="1560,-144 1560,-120 1560,-120 1560,-120 1560,-144" /><polygon points="1560,-64 1560,-120 1560,-144 1584,-144 1584,-120 1584,-64 1584,-40 1560,-40" /><polygon points="1584,-144 1560,-144 1560,-144 1560,-144 1584,-144" /><polygon points="1584,-120 1584,-120 1584,-64 1584,-64" /><polygon points="1584,-40 1584,-64 1584,-64 1584,-64 1584,-40" /><polygon points="560,-824 484,-824 484,-764 560,-764" /><polygon points="1616,16 1520,16 1472,16 1472,16 1616,16" /><polygon points="1600,0 1600,0 1520,0 1520,0" /><polygon points="1488,-192 1600,-192 1616,-192 1616,-208 1472,-208 1472,-192" /><polygon points="1472,-192 1472,-208 1472,-208 1472,-192" /><polygon points="1472,-208 1616,-208 1616,-208 1584,-208 1560,-208 1472,-208" /><polygon points="1312,-256 1312,-256 1312,-240 1312,-240 1312,-240 1312,-256" /><polygon points="1600,-192 1600,-192 1600,-40 1600,-40" /><polygon points="1616,-192 1600,-192 1600,-40 1616,-40" /><polygon points="1440,-176 1440,-192 1440,-192 1440,-176" /><polygon points="1488,-176 1488,-192 1472,-192 1440,-192 1440,-176" /><polygon points="1424,-176 1424,-176 1424,-192 1424,-192" /><polygon points="1312,-176 1312,-192 1312,-192 1312,-192 1312,-176" /><polygon points="1424,-192 1312,-192 1312,-176 1424,-176" /><polygon points="1600,-40 1600,0 1616,0 1616,-40" /><polygon points="1520,0 1296,0 1296,16 1472,16 1520,16" /><polygon points="1616,16 1616,0 1600,0 1520,0 1520,16" /><polygon points="640,-32 640,16 640,16 640,-64 640,-64" /><polygon points="768,-32 768,-64 768,-64 768,-32" /><polygon points="768,128 768,128 768,32 768,16 768,16 768,16" /><polygon points="768,128 768,16 768,-32 768,-32 768,-32 768,64 768,128" /><polygon points="1296,16 1280,16 1264,16 1152,16 1152,16 1152,16 1216,16 1296,16" /><polygon points="1296,-192 1280,-192 1280,-176 1296,-176" /><polygon points="1280,0 1280,-176 1280,-192 1264,-192 1264,16 1280,16" /><polygon points="1296,0 1280,0 1280,16 1296,16" /><polygon points="1264,-192 1264,-192 1264,16 1264,16" /><polygon points="1296,-176 1280,-176 1280,-176 1296,-176" /><polygon points="768,-32 768,-32 640,-32 640,-32" /><polygon points="768,-32 640,-32 640,-64 768,-64" /><polygon points="480,-720 480,-720 480,-704 480,-704 480,-720" /><polygon points="480,-808 480,-840 480,-928 480,-928 480,-720 480,-720" /><polygon points="1520,0 1296,0 1296,0 1520,0" /><polygon points="1560,-192 1600,-192 1600,-192 1488,-192 1488,-192" /><polygon points="1600,-192 1560,-192 1560,-176 1560,-40 1600,-40" /><polygon points="1488,-176 1488,-176 1440,-176 1424,-176 1312,-176 1296,-176 1296,-176" /><polygon points="1488,-192 1488,-192 1488,-176 1488,-176" /><polygon points="1560,-192 1488,-192 1488,-176 1520,-176 1560,-176" /><polygon points="1520,-176 1488,-176 1296,-176 1296,-40 1520,-40" /><polygon points="1560,-40 1560,-176 1520,-176 1520,-40" /><polygon points="1600,-40 1600,0 1600,0 1600,-40" /><polygon points="1520,-40 1296,-40 1296,0 1520,0" /><polygon points="1600,0 1600,-40 1560,-40 1520,-40 1520,0" /><polygon points="768,-32 768,-64 768,-96 768,-96 768,-96 768,-32" /><polygon points="1264,16 1264,16 1152,16 1152,16 1264,16" /><polygon points="1264,-192 1264,-192 1264,16 1264,16" /><polygon points="1296,0 1280,0 1280,0 1296,0" /><polygon points="1296,-40 1296,-176 1280,-176 1280,0 1296,0" /><polygon points="1280,-176 1280,-176 1280,0 1280,0" /><polygon points="768,-64 640,-64 640,-96 768,-96" /><polygon points="768,-64 768,-64 640,-64 640,-64" /><polygon points="1068,260 1068,260 1068,236 1068,236" /><polygon points="1068,236 1068,236 1068,180 1068,180" /><polygon points="1068,180 1068,180 1068,236 1068,236" /><polygon points="1068,236 1068,180 1068,156 1068,156 1068,260 1068,260" /><polygon points="1068,180 1068,180 1068,156 1068,156" /><polygon points="1068,156 1068,156 1068,156 1092,156 1092,156 1092,156 1092,156 1068,156" /><polygon points="1092,180 1068,180 1068,236 1092,236" /><polygon points="1068,236 1068,236 1092,236 1092,236" /><polygon points="1092,180 1092,180 1068,180 1068,180" /><polygon points="1092,156 1092,156 1092,180 1092,180" /><polygon points="1092,180 1092,180 1092,236 1092,236" /><polygon points="1092,236 1092,236 1092,180 1092,180" /><polygon points="1092,236 1092,236 1092,260 1092,260" /><polygon points="416,16 416,16 385,16 385,16 416,16" /><polygon points="640,128 544,128 544,144 640,144" /><polygon points="544,128 544,64 528,64 528,80 528,128 528,144 544,144" /><polygon points="432,64 528,64 544,64 544,16 416,16 416,64" /><polygon points="432,64 432,80 528,80 528,64" /><polygon points="432,80 432,64 416,64 416,272 432,272" /><polygon points="528,80 432,80 432,80 432,80 528,80" /><polygon points="432,80 432,272 432,272 432,144 432,128 432,80" /><polygon points="528,128 528,80 528,80 528,128" /><polygon points="416,288 416,272 416,64 416,64 416,128 416,288" /><polygon points="416,64 416,16 416,16 416,64" /><polygon points="544,128 640,128 640,128 640,128 640,128 640,128 544,128" /><polygon points="544,16 544,64 544,128 544,128 544,16" /><polygon points="192,-736 128,-736 128,-672 192,-672" /><polygon points="432,272 472,272 432,272" /><polygon points="432,272 432,272 416,272" /><polygon points="432,80 432,128 432,128 432,80" /><polygon points="432,144 432,272 432,272 432,144" /><polygon points="432,128 472,128 432,128" /><polygon points="1312,-272 1312,-496 1312,-496 1312,-256 1312,-256" /><polygon points="1312,-272 1312,-256 1312,-240 1424,-240 1424,-272" /><polygon points="1080,248 1064,248 1064,168 1080,168" /><polygon points="1080,248 1080,248 1064,248 1064,248" /><polygon points="1064,168 1064,168 1080,168 1080,168" /><polygon points="1080,168 1080,168 1080,248 1080,248" /><polygon points="1064,248 1064,248 1064,168 1064,168" /><polygon points="768,-96 768,-96 640,-96 640,-96" /><polygon points="768,-96 640,-96 640,-128 768,-128" /><polygon points="432,272 472,272 640,272 624,272 584,272 416,272" /><polygon points="432,144 432,144 624,144 624,144 624,144 432,144" /><polygon points="624,144 640,144 640,144 544,144 528,144 528,144" /><polygon points="472,128 528,128 528,80 432,80 432,128" /><polygon points="528,144 528,144 528,128 528,128" /><polygon points="624,128 624,144 528,144 528,128" /><polygon points="432,144 416,144 432,144" /><polygon points="432,272 416,272 416,144 432,144" /><polygon points="1068,156 1092,156 1092,260 1068,260" /><polygon points="1092,156 1092,156 1092,180 1092,236 1092,260 1092,260" /><polygon points="640,-192 640,-192 768,-192 768,-192" /><polygon points="567.2729,-228.3636 560,-232 448,-288 448,-288 448,-288 640,-192" /><polygon points="840.7272,-228.3636 768,-192 864,-240 864,-240 848,-232" /><polygon points="768,-272 768,-280 640,-280 640,-272" /><polygon points="640,-272 640,-280 560,-232 567.2729,-228.3636" /><polygon points="640,-272 567.2729,-228.3636 640,-192" /><polygon points="640,128 640,128 640,144 640,144 640,144 640,144 640,128" /><polygon points="768,-128 768,-128 768,-128 768,-96 768,-96 768,-96 768,-96 768,-128" /><polygon points="640,-192 768,-192 768,-128 640,-128" /><polygon points="768,-128 768,-128 640,-128 640,-128" /><polygon points="544,16 416,16 416,16 544,16" /><polygon points="385,16 385,16 448,-192 448,-192 448,-192 448,-192 448,-192 385,16" /><polygon points="480,-176 448,-192 448,-192 472.7274,-179.6363" /><polygon points="560,-824 560,-824 560,-764 560,-764" /><polygon points="484,-764 484,-764 484,-824 484,-824" /><polygon points="560,-764 484,-764 484,-824 560,-824" /><polygon points="484,-824 484,-824 560,-824 560,-824" /><polygon points="560,-764 560,-764 484,-764 484,-764" /><polygon points="640,288 640,288 416,288 416,288 640,288" /><polygon points="1120,288 1088,288 995,288 995,288 1068,288 1092,288 1120,288" /><polygon points="1120,288 1120,288 1104,288 1088,288 1088,288" /><polygon points="1088,-192 1088,-192 1120,-192 1120,-192 1088,-192" /><polygon points="960,-192 960,-192 1088,-192 1088,-192 1088,-192 1088,-192" /><polygon points="960,-192 1088,-192 1088,-192 1088,-192 1088,-192 1065.1428,-192 960,-192" /><polygon points="784,-270.4 768,-280 768,-272 840.7272,-228.3636 848,-232" /><polygon points="960,-288 960,-288 913.455,-264.7275 864,-240 864,-240" /><polygon points="640,-280 768,-280 784,-270.4 784,-200 768,-192 640,-192 608,-208 560,-232" /><polygon points="784,-270.4 848,-232 800,-208 784,-200" /><polygon points="640,-192 640,-192 640,-128 640,-128 640,-192" /><polygon points="640,-96 640,-96 640,-96 640,-96 640,-96 640,-128 640,-128 640,-128 640,-128 640,-96" /><polygon points="992,128 768,128 768,128 784,128 992,128" /><polygon points="768,-192 768,-192 768,-128 768,-128 768,-192" /><polygon points="768,-32 768,-96 768,-96 768,64 768,64" /><polygon points="768,-96 768,-96 768,-96 768,-96 768,-96 835.2,16 835.2,16" /><polygon points="1152,16 1264,16 1264,16 1059.2,16 1059.2,16" /><polygon points="1264,-192 1264,-192 1264,-192 1264,-192 1264,16 1264,16" /><polygon points="768,-96 768,-96 960,-192 960,-192" /><polygon points="1120,128 1120,128 1120,288 1120,288 1120,288 1120,128" /><polygon points="472.7274,-179.6363 448,-192 448,-192 640,-96 640,-96" /><polygon points="640,-96 640,-96 640,-96 640,-96 530.9093,-150.5453 480,-176 472.7274,-179.6363" /><polygon points="624,144 624,144 640,144 640,144 624,144" /><polygon points="624,144 624,144 624,128 624,128" /><polygon points="624,128 624,128 528,128 472,128" /><polygon points="624,144 624,128 472,128 432,128 432,144" /><polygon points="864,288 640,288 640,288 864,288" /><polygon points="1088,288 864,288 864,288 995,288 1088,288" /><polygon points="1008,128 1104,128 1120,128 1120,128 995,128 992,128 992,128" /><polygon points="1104,144 1104,272 1104,288 1120,288 1120,128 1104,128" /><polygon points="1104,272 1104,272 1008,272 1008,272" /><polygon points="1008,144 784,144 784,144 1008,144" /><polygon points="1008,128 992,128 784,128 784,144 1008,144" /><polygon points="1104,144 1104,128 1008,128 1008,144" /><polygon points="768,272 784,272 784,144 784,128 768,128" /><polygon points="864,272 784,272 768,272 640,272 640,288 864,288" /><polygon points="1088,288 1104,288 1104,272 1008,272 864,272 864,288" /><polygon points="385,16 385,16 416,16 544,16 544,16" /><polygon points="385,16 384,16 384,-192 448,-192" /><polygon points="544,16 640,-96 640,-96 544,16" /><polygon points="584,272 624,272 624,144 432,144 416,144 416,272" /><polygon points="640,144 624,144 624,272 640,272" /><polygon points="640,288 640,272 472,272 432,272 416,272 416,288" /><polygon points="128,-736 128,-736 192,-736 192,-736" /><polygon points="128,-672 128,-672 128,-736 128,-736" /><polygon points="192,-672 192,-672 128,-672 128,-672" /><polygon points="192,-736 192,-736 192,-672 192,-672" /><polygon points="192,-672 128,-672 128,-736 192,-736" /><polygon points="1440,-384 1440,-256 1440,-256 1440,-384" /><polygon points="1440,-384 1440,-426.1266 1440,-496 1424,-496 1424,-464 1424,-256 1440,-256" /><polygon points="624,272 584,272 624,272" /><polygon points="624,272 624,272 624,144 624,144" /><polygon points="640,128 640,64 640,16 640,16 640,64 640,128" /><polygon points="640,144 640,144 640,272 640,272" /><polygon points="768,64 768,128 768,128 768,128 768,64" /><polygon points="768,128 768,64 720,64 688,64 640,64 640,128" /><polygon points="1104,272 1104,272 1104,144 1104,144" /><polygon points="640,272 640,272 768,272 768,272" /><polygon points="1008,272 784,272 784,272 864,272 1008,272" /><polygon points="784,144 784,144 784,272 784,272" /><polygon points="1104,144 1104,144 1008,144 1008,144" /><polygon points="1008,144 784,144 784,272 1008,272" /><polygon points="1104,272 1104,144 1008,144 1008,272" /><polygon points="768,272 768,128 768,128 768,272" /><polygon points="768,272 768,272 768,128 768,128" /><polygon points="864,-240 848,-232 864,-240" /><polygon points="864,-240 913.455,-264.7275 800,-208 800,-208 848,-232" /><polygon points="1296,-896 1296,-896 1296,-832 1296,-832" /><polygon points="1296,-528 1296,-672 1296,-672 1296,-624 1296,-528" /><polygon points="1296,-426.1266 1296,-480 1296,-480 1296,-416 1296,-256 1296,-256" /><polygon points="1296,-480 1296,-496 1296,-528 1296,-528 1296,-528 1296,-480" /><polygon points="1296,-896 1296,-896 1312,-896 1424,-896 1440,-896 1440,-896 1440,-896 1296,-896" /><polygon points="1440,-752 1440,-624 1440,-528 1440,-528 1440,-624 1440,-672 1440,-752" /><polygon points="1440,-624 1440,-624 1440,-528 1440,-528" /><polygon points="1440,-896 1440,-896 1440,-848 1440,-848" /><polygon points="1440,-426.1266 1440,-496 1440,-496 1440,-496" /><polygon points="1440,-496 1440,-426.1266 1440,-384 1440,-384 1440,-384 1440,-480 1440,-496" /><polygon points="1232,-192 1264,-192 1264,-192 1264,-192 1264,-192 1264,-192 1232,-192" /><polygon points="1120,-240 1232,-240 1264,-240 1264,-240 1248,-240 1104,-240 1088,-240 1088,-240" /><polygon points="1264,-240 1232,-240 1232,-240 1264,-240" /><polygon points="1120,-240 1088,-240 1088,-240 1120,-240" /><polygon points="992,-704 992,-704 992,-672 992,-672" /><polygon points="1074.2858,-896 1074.2858,-896 1075,-896 1091,-896 1264,-896 1264,-896 1264,-896 1216,-896 1074.2853,-896" /><polygon points="1264,-240 1264,-240 1264,-384 1264,-384 1264,-384 1264,-240" /><polygon points="1264,-608 1264,-384 1264,-384 1264,-448 1264,-608" /><polygon points="1264,-832 1264,-832 1264,-896 1264,-896" /><polygon points="1264,-896 1264,-896 1264,-880 1264,-832 1264,-832" /><polygon points="1296,-832 1296,-832 1264,-832 1264,-832" /><polygon points="1264,-672 1264,-672 1296,-672 1296,-672" /><polygon points="1264,-832 1264,-672 1296,-672 1296,-832" /><polygon points="1088,-240 1088,-240 1088,-288 1088,-288 1088,-288 1088,-240" /><polygon points="1072,-890.6666 1074.2858,-896 1074.2853,-896 1056,-853.3332 1056,-853.3332" /><polygon points="928,-672 928,-704 928,-704 928,-544 928,-544" /><polygon points="928,-544 928,-544 928,-512 928,-512 928,-544" /><polygon points="928,-672 928,-672 928,-704 928,-704" /><polygon points="992,-672 928,-672 928,-544 992,-544" /><polygon points="992,-672 992,-672 928,-672 928,-672" /><polygon points="736,-928 736,-928 768,-928 768,-928" /><polygon points="768,-880 736,-880 736,-880 896,-880 896,-880" /><polygon points="896,-880 896,-880 928,-880 928,-880 896,-880" /><polygon points="768,-928 768,-880 896,-880 896,-928" /><polygon points="896,-880 896,-880 896,-928 896,-928" /><polygon points="1232,-192 1232,-240 1120,-240 1120,-192" /><polygon points="1232,-240 1232,-192 1232,-192 1232,-240" /><polygon points="1120,-192 1120,-240 1120,-240 1120,-192" /><polygon points="688,64 688,64 720,64 720,64" /><polygon points="640,16 640,16 640,64" /><polygon points="992,-512 992,-512 992,-544 992,-544 992,-544 992,-512" /><polygon points="1008,-512 992,-512 1088,-288 1104,-288" /><polygon points="992,-512 992,-512 1019.4286,-448 1046.8572,-384 1088,-288 1088,-288" /><polygon points="932,-1088 960,-1088 976,-1088 976,-1088 928,-1088 816,-1088 816,-1088" /><polygon points="320,-944 320,-1040 320,-1040 320,-928 320,-928" /><polygon points="1296,-528 1296,-672 1296,-672 1296,-528 1296,-496 1296,-496" /><polygon points="1296,-496 1296,-496 1296,-480 1296,-426.1266 1296,-496" /><polygon points="1440,-624 1440,-624 1440,-528 1440,-528" /><polygon points="1440,-496 1440,-528 1296,-528 1296,-496" /><polygon points="1440,-528 1440,-496 1440,-496 1440,-528" /><polygon points="1264,-192 1264,-192 1232,-192 1120,-192 1088,-192 1088,-192" /><polygon points="448,-192 448,-192 384,-192 384,-192" /><polygon points="992,-704 992,-704 992,-672 992,-544 992,-544" /><polygon points="1264,-608 1264,-464 1264,-384 1264,-384 1264,-608" /><polygon points="1264,-832 1264,-688 1264,-608 1264,-608 1264,-672 1264,-832" /><polygon points="1068.0835,-880 1072,-889.0602 1072,-889.0604 992,-704 992,-704" /><polygon points="1084.0834,-880 1084.0834,-880 1104,-880 1248,-880 1248,-880" /><polygon points="1084.0834,-880 1248,-880 1264,-880 1264,-896 1091,-896" /><polygon points="1091,-896 1075,-896 1068.0835,-880 1084.0834,-880" /><polygon points="1248,-464 1248,-256 1248,-240 1264,-240 1264,-384 1264,-464" /><polygon points="1248,-688 1248,-480 1248,-464 1264,-464 1264,-608 1264,-688" /><polygon points="1264,-832 1264,-880 1248,-880 1248,-704 1248,-688 1264,-688" /><polygon points="1248,-240 1248,-256 1104,-256 1104,-240" /><polygon points="1248,-256 1248,-256 1104,-256 1104,-256" /><polygon points="1248,-880 1248,-880 1248,-704 1248,-704" /><polygon points="992,-512 992,-512 1008,-512 1008,-512" /><polygon points="992,-544 992,-512 1008,-512 1008,-704 992,-704" /><polygon points="1068.0835,-880 992,-704 1008,-704 1084.0834,-880" /><polygon points="1104,-288 1104,-288 1088,-288 1088,-288" /><polygon points="1104,-256 1104,-288 1088,-288 1088,-240 1104,-240" /><polygon points="1072,-890.6666 1074.2858,-896 1074.2858,-896 1072,-890.6666" /><polygon points="1075,-896 1074.2858,-896 1072,-890.6666 1072,-889.0602" /><polygon points="1072,-889.0602 1072,-890.6666 1072,-890.6667 1072,-889.0604" /><polygon points="928,-544 928,-704 928,-704 928,-512 928,-512" /><polygon points="704,-928 560,-928 480,-928 480,-928 480,-928 704,-928" /><polygon points="976,-928 960,-928 928,-928 928,-928 976,-928" /><polygon points="928,-928 896,-928 896,-928 896,-928 928,-928" /><polygon points="784,-928 736,-928 736,-928 768,-928 896,-928 896,-928" /><polygon points="976,-1088 976,-928 976,-928 976,-1088" /><polygon points="960,-1088 960,-1072 960,-944 960,-928 976,-928 976,-1088" /><polygon points="708,-1088 592,-1088 484,-1088 484,-1072 708,-1072" /><polygon points="932,-1088 816,-1088 708,-1088 708,-1072 932,-1072" /><polygon points="960,-1072 960,-1088 932,-1088 932,-1072" /><polygon points="560,-944 484,-944 464,-944 336,-944 336,-928 464,-928 480,-928 560,-928" /><polygon points="784,-944 708,-944 560,-944 560,-928 704,-928 736,-928 784,-928" /><polygon points="896,-928 928,-928 960,-928 960,-944 932,-944 784,-944 784,-928" /><polygon points="484,-1072 484,-1088 464,-1088 464,-944 484,-944" /><polygon points="320,-944 336,-944 464,-944 464,-1088 368,-1088 320,-1040" /><polygon points="336,-944 320,-944 320,-928 336,-928" /><polygon points="484,-944 484,-944 484,-1072 484,-1072" /><polygon points="708,-1072 484,-1072 484,-1072 708,-1072" /><polygon points="932,-1072 708,-1072 708,-1072 932,-1072" /><polygon points="960,-944 960,-944 932,-944 932,-944" /><polygon points="960,-880 928,-880 896,-880 736,-880 736,-880 960,-880" /><polygon points="928,-880 960,-880 1003.4286,-880 1003.4286,-880 960,-880 928,-880" /><polygon points="320,-928 320,-704 336,-704 336,-720 336,-928" /><polygon points="480,-720 480,-928 464,-928 464,-720 464,-704 480,-704" /><polygon points="336,-720 336,-704 464,-704 464,-720" /><polygon points="464,-928 464,-928 464,-720 464,-720" /><polygon points="640,128 640,128 640,144 640,272 640,272" /><polygon points="640,-96 640,-96 640,-96 640,-96 640,-96 640,-64 640,16 640,16 640,16 640,16 640,-96" /><polygon points="640,128 768,128 768,128 640,128" /><polygon points="768,288 640,288 640,272 768,272" /><polygon points="768,272 640,272 640,272 768,272" /><polygon points="640,-96 640,-96 448,-192 448,-192" /><polygon points="1424,-464 1424,-272 1424,-240 1424,-240 1424,-256 1424,-464" /><polygon points="1424,-464 1424,-496 1312,-496 1312,-272 1424,-272" /><polygon points="960,-1072 960,-944 960,-944 960,-1072" /><polygon points="960,-1072 960,-1072 932,-1072 932,-1072" /><polygon points="708,-944 484,-944 484,-944 560,-944 708,-944" /><polygon points="932,-944 708,-944 708,-944 784,-944 932,-944" /><polygon points="708,-1072 484,-1072 484,-944 708,-944" /><polygon points="932,-1072 708,-1072 708,-944 932,-944" /><polygon points="960,-944 960,-1072 932,-1072 932,-944" /><polygon points="1312,-496 1424,-496 1440,-496 1440,-496 1296,-496 1296,-496" /><polygon points="1424,-496 1312,-496 1312,-496 1424,-496" /><polygon points="1424,-496 1424,-496 1424,-464 1424,-464" /><polygon points="1312,-496 1296,-496 1296,-426.1266 1296,-256 1312,-256" /><polygon points="1296,-752 1296,-896 1296,-896 1296,-832 1296,-672 1296,-672 1296,-672" /><polygon points="1296,-672 1296,-672 1296,-528 1296,-528" /><polygon points="1312,-528 1424,-528 1424,-528 1312,-528" /><polygon points="1424,-528 1312,-528 1296,-528 1296,-528 1440,-528 1440,-528" /><polygon points="1424,-752 1424,-528 1440,-528 1440,-624 1440,-752" /><polygon points="1440,-848 1440,-896 1424,-896 1424,-880 1424,-752 1440,-752" /><polygon points="1424,-896 1312,-896 1312,-880 1424,-880" /><polygon points="1296,-752 1296,-672 1296,-528 1312,-528 1312,-752" /><polygon points="1312,-880 1312,-896 1296,-896 1296,-752 1312,-752" /><polygon points="1424,-880 1424,-880 1424,-752 1424,-752" /><polygon points="1312,-752 1312,-528 1312,-528 1312,-656 1312,-752" /><polygon points="1440,-848 1440,-752 1440,-624 1440,-624 1440,-624 1440,-752 1440,-848" /><polygon points="1264,-192 1264,-192 1088,-192 1088,-192" /><polygon points="1104,-656 1104,-880 1084.0834,-880 1008,-704 1008,-656" /><polygon points="1104,-432 1104,-656 1008,-656 1008,-512 1042.2858,-432" /><polygon points="1104,-288 1104,-432 1042.2858,-432" /><polygon points="1248,-704 1248,-880 1104,-880 1104,-656 1248,-656" /><polygon points="1104,-656 1104,-432 1248,-432 1248,-480 1248,-656" /><polygon points="1104,-432 1104,-288 1104,-256 1248,-256 1248,-432" /><polygon points="1072,-889.0604 1072,-890.6667 1056,-853.3333 992,-704" /><polygon points="1104,-288 1104,-288 1104,-256 1104,-256" /><polygon points="1248,-480 1248,-432 1248,-256 1248,-256 1248,-464 1248,-480" /><polygon points="1248,-704 1248,-656 1248,-480 1248,-480 1248,-688 1248,-704" /><polygon points="1008,-656 1008,-704 1008,-704 1008,-512 1008,-512" /><polygon points="1084.0834,-880 1084.0834,-880 1008,-704 1008,-704" /><polygon points="1042.2858,-432 1008,-512 1008,-512 1008,-512 1104,-288 1104,-288 1104,-288" /><polygon points="1056,-853.3333 1056,-853.3332 1056,-853.3332 992,-704 992,-704 992,-704 992,-704" /><polygon points="1072,-890.6667 1072,-890.6666 1072,-890.6666 1056,-853.3332 1056,-853.3333" /><polygon points="336,-928 464,-928 464,-928 336,-928" /><polygon points="336,-720 336,-928 336,-928 336,-720" /><polygon points="464,-928 336,-928 336,-720 464,-720" /><polygon points="336,-720 336,-720 464,-720 464,-720" /><polygon points="1264,-192 1264,-192 1264,16 1264,16" /><polygon points="1264,16 1264,16 1059.2,16 1059.2,16" /><polygon points="835.2,16 768,-96 768,-96 835.2,16" /><polygon points="1059.2,16 835.2,16 835.2,16 995,16 1059.2,16" /><polygon points="640,-96 688,-96 688,-96 688,-96 640,-96" /><polygon points="720,-96 720,-96 720,64 720,64" /><polygon points="768,-96 720,-96 720,64 768,64" /><polygon points="688,-96 640,-96 640,16 640,64 688,64" /><polygon points="1424,-656 1424,-752 1424,-880 1312,-880 1312,-752 1312,-656" /><polygon points="1312,-528 1424,-528 1424,-656 1312,-656" /><polygon points="1424,-880 1424,-880 1312,-880 1312,-880" /><polygon points="1424,-752 1424,-656 1424,-528 1424,-528 1424,-752" /><polygon points="1312,-880 1312,-880 1312,-752 1312,-752" /><polygon points="640,-192 640,-192 608,-208 608,-208 640,-192" /><polygon points="720,-864 720,-772 667,-720 560,-720 560,-864" /><polygon points="960,-880 736,-880 736,-880 960,-880" /><polygon points="560,-864 560,-720 560,-720 560,-864" /><polygon points="720,-772 720,-864 720,-864 720,-772" /><polygon points="667,-720 667,-720 560,-720 560,-720" /><polygon points="544,-704 544,-704 544,-544 544,-544 544,-544" /><polygon points="560,-704 672,-704 672,-704 560,-704 544,-704 544,-704 544,-704" /><polygon points="1003.4286,-880 1003.4286,-880 960,-880 960,-880" /><polygon points="736,-768 736,-880 736,-880 736,-880 736,-880 736,-880 736,-768" /><polygon points="736,-768 736,-768 672,-704 672,-704" /><polygon points="720,-96 720,-96 768,-96 768,-96 720,-96" /><polygon points="720,-128 688,-128 688,-96 720,-96" /><polygon points="640,-192 640,-128 688,-128 720,-128 768,-128 768,-192" /><polygon points="720,-128 720,-96 720,-96 720,-128" /><polygon points="688,-96 688,-128 688,-128 688,-96" /><polygon points="688,-128 640,-128 640,-128 688,-128" /><polygon points="688,-96 688,-96 688,64 688,64" /><polygon points="720,-96 688,-96 688,64 720,64" /><polygon points="544,-768 544,-880 560,-880 560,-864 560,-720 560,-704 544,-704" /><polygon points="667,-720 688,-720 672,-704 560,-704 560,-720" /><polygon points="688,-720 667,-720 720,-772 720,-752" /><polygon points="736,-768 720,-752 720,-772 720,-864 720,-880 736,-880" /><polygon points="720,-880 720,-864 560,-864 560,-880" /><polygon points="544,-768 544,-704 544,-544 544,-544 544,-736 544,-768" /><polygon points="960,-880 736,-880 736,-880 768,-880 960,-880" /><polygon points="736,-880 736,-880 736,-768 736,-768" /><polygon points="1003.4286,-880 1003.4286,-880 960,-880 960,-880" /><polygon points="672,-704 672,-704 560,-704 560,-704" /><polygon points="560,-704 560,-704 544,-704 544,-704" /><polygon points="720,-864 720,-864 560,-864 560,-864" /><polygon points="667,-720 667,-720 720,-772 720,-772" /><polygon points="688,-720 720,-752 736,-768 736,-768 672,-704 672,-704" /><polygon points="544,-544 544,-704 544,-704 544,-544" /><polygon points="544,-544 544,-512 544,-512 544,-544" /><polygon points="640,-128 640,-96 688,-96 688,-128" /><polygon points="720,-96 768,-96 768,-128 720,-128" /><polygon points="768,16 768,-96 835.2,16" /><polygon points="544,-736 544,-544 544,-512 544,-512 544,-736" /><polygon points="768,-880 736,-880 544,-880 544,-880 701.7143,-880 768,-880" /><polygon points="928,-512 928,-512 960,-437.3333 1024,-288 1024,-288" /><polygon points="1003.4285,-880 1003.4285,-880 928,-704 928,-704" /><polygon points="768,-96 768,-96 960,-192 960,-192" /><polygon points="448,-288 608,-208 640,-192 640,-192 448,-288" /><polygon points="1264,-192 1264,-192 1088,-192 1088,-192" /><polygon points="1088,-192 1088,-192 960,-192 960,-192" /><polygon points="640,-192 640,-192 768,-192 768,-192" /><polygon points="448,-288 448,-288 560,-232 608,-208 608,-208" /><polygon points="1024,-288 960,-288 960,-288 960,-288 1024,-288" /><polygon points="544,-880 544,-880 544,-768 544,-768" /><polygon points="736,-880 736,-880 720,-880 560,-880 544,-880 544,-880" /><polygon points="1003.4285,-880 1003.4286,-880 960,-880 960,-880" /><polygon points="544,-512 544,-512 544,-512 497.0909,-402.5454 535.2729,-491.6367" /><polygon points="800,-208 768,-192 768,-192 768,-192 784,-200 800,-208" /><polygon points="1059.2,16 835.2,16 835.2,16 1059.2,16" /><polygon points="835.2,16 768,-96 768,-96 835.2,16" /><polygon points="960,-192 960,-192 768,-96 768,-96" /><polygon points="768,-128 768,-128 720,-128 720,-128" /><polygon points="768,-96 768,-96 768,16 768,16" /><polygon points="960,-192 1088,-192 1088,-192 960,-192" /><polygon points="1264,-192 1264,-192 1088,-192 1088,-192" /><polygon points="544,-736 544,-512 544,-512 544,-656 544,-736" /><polygon points="1003.4285,-880 1003.4286,-880 934.8571,-720 928,-704 928,-704" /><polygon points="960,-437.3333 928,-512 928,-512 1024,-288 1024,-288" /><polygon points="768,-880 701.7143,-880 544,-880 544,-880 704,-880 768,-880" /><polygon points="480,-928 480,-928 480,-880 480,-736 480,-736" /><polygon points="480,-512 480,-512 430.2857,-396 384,-288 384,-288" /><polygon points="960,-192 960,-192 1088,-192 1088,-192" /><polygon points="640,-192 640,-192 448,-288 448,-288" /><polygon points="768,-96 768,-96 864,-144 960,-192 960,-192" /><polygon points="1024,-288 960,-288 960,-288 1024,-288" /><polygon points="544,-880 544,-880 544,-768 544,-736 544,-736" /><polygon points="928,-880 1003.4285,-880 1003.4285,-880 960,-880 768,-880 768,-880" /><polygon points="928,-512 928,-512 928,-704 928,-704" /><polygon points="544,-512 544,-512 535.2729,-491.6367 448,-288 448,-288" /><polygon points="960,-288 768,-192 768,-192 800,-208 913.455,-264.7275 960,-288" /><polygon points="768,-192 640,-192 640,-192 768,-192" /><polygon points="480,-396 494.2857,-396 448,-288 384,-288 430.2857,-396" /><polygon points="640,-192 640,-96 448,-192 448,-288" /><polygon points="430.2857,-396 480,-512 480,-432 480,-396" /><polygon points="480,-736 480,-880 544,-880 544,-736 544,-656 480,-656" /><polygon points="544,-656 544,-512 509.7143,-432 480,-432 480,-512 480,-656" /><polygon points="509.7143,-432 494.2857,-396 480,-396 480,-432" /><polygon points="864,-144 768,-96 640,-96 640,-192 768,-192 864,-192" /><polygon points="960,-192 864,-144 864,-192" /><polygon points="960,-288 960,-192 864,-192 768,-192" /><polygon points="1088,-192 960,-192 960,-288 1024,-288 1088,-288" /><polygon points="928,-512 992,-512 1088,-288 1024,-288" /><polygon points="928,-704 934.8571,-720 992,-720 992,-704 992,-512 928,-512" /><polygon points="992,-704 992,-720 998.8571,-720" /><polygon points="1067.4286,-880 998.8571,-720 992,-720 934.8571,-720 1003.4286,-880" /><polygon points="704,-880 544,-880 480,-880 480,-928 704,-928" /><polygon points="928,-880 768,-880 704,-880 704,-928 928,-928" /><polygon points="1088,-928 1067.4286,-880 1003.4286,-880 928,-880 928,-928" /><polygon points="448,-288 448,-288 384,-288 384,-288" /><polygon points="960,-288 960,-288 1024,-288 1024,-288" /><polygon points="544,-880 544,-880 544,-736 544,-736" /><polygon points="928,-512 928,-512 928,-704 928,-704" /><polygon points="992,-512 992,-512 1088,-288 1088,-288" /><polygon points="992,-704 992,-704 992,-512 992,-512" /><polygon points="998.8571,-720 1067.4286,-880 1088,-928 1088,-928 992,-704 992,-704" /><polygon points="928,-880 1003.4286,-880 1003.4285,-880 928,-880 768,-880 768,-880" /><polygon points="494.2857,-396 509.7143,-432 544,-512 544,-512 448,-288 448,-288" /><polygon points="480,-736 480,-656 480,-512 480,-512 480,-736" /><polygon points="448,-192 448,-192 448,-288 448,-288" /><polygon points="640,-192 640,-192 768,-192 768,-192" /><polygon points="768,-192 768,-192 960,-288 960,-288" /><polygon points="640,-96 640,-96 448,-192 448,-192" /></g></defs><rect fill="#fff" height="1650.0" id="background" width="2194.0" x="-441.0" y="-1225.0" /><use fill="none" stroke="black" stroke-miterlimit="0" stroke-width="15" xlink:href="#bsp_ref" /><use fill="white" stroke="black" stroke-width="1" xlink:href="#bsp_ref" /></svg>