<svg viewBox="-601 -1625 4562 2418" xmlns="http://www.w3.org/2000/svg" xmlns:xlink="http://www.w3.org/1999/xlink"><defs><g id="a"><path d="m3744-992h-64-128z"/><path d="m3744-576v32 192-64-96-48z"/><path d="m3744-800v32 192-160-32-16z"/><path d="m3104-992v192z"/><path d="m3328-352h-224 64z"/><path d="m3552-352h-224 64z"/><path d="m3328-992h-224v192 32h224z"/><path d="m3104-768v192 32h224v-224z"/><path d="m3104-544v192h224v-192z"/><path d="m3552-992h-224v224h224z"/><path d="m3328-768v224h224v-224z"/><path d="m3328-544v192h224v-192z"/><path d="m3744-800v-192h-192v224h192z"/><path d="m3552-768v224h192v-32-192z"/><path d="m3552-544v192h192v-192z"/><path d="m2416-560v144 80z"/><path d="m2416-784v144 80z"/><path d="m1824-864v80z"/><path d="m2416-864h-16-24-104z"/><path d="m2048-336h-224 208z"/><path d="m2272-336h-224 208z"/><path d="m2048-864h-224v80 144h224z"/><path d="m1824-640v80 144h224v-224z"/><path d="m1824-416v80h224v-80z"/><path d="m2272-864h-224v224h224z"/><path d="m2048-640v224h224v-224z"/><path d="m2048-416v80h224v-80z"/><path d="m2416-640v-144-80h-144v224z"/><path d="m2416-416v-144-80h-144v224z"/><path d="m2416-336v-80h-144v80z"/><path d="m1984-192v96z"/><path d="m2624 352v128 96-64-48z"/><path d="m2624 128v128 96-64-48z"/><path d="m2624-96v128 96-64-48z"/><path d="m2208 576h-224z"/><path d="m2432 576h-224 192z"/><path d="m2624-192h-160-32z"/><path d="m2208-192h-224v96 128h224z"/><path d="m1984 32v96 128h224v-224z"/><path d="m1984 256v96 128h224v-224z"/><path d="m1984 480v96h224v-96z"/><path d="m2432-192h-224v224h224z"/><path d="m2208 32v224h224v-224z"/><path d="m2208 256v224h224v-224z"/><path d="m2208 480v96h224v-96z"/><path d="m2624 32v-128-96h-192v224z"/><path d="m2624 256v-128-96h-192v224z"/><path d="m2624 480v-128-96h-192v224z"/><path d="m2624 576v-96h-192v96z"/><path d="m1216-704v64 160-160-32z"/><path d="m1088-864v160z"/><path d="m1216-640v-64-160h-128v160 64z"/><path d="m1088-480h128v-160h-128z"/><path d="m1728 288v32 192-208z"/><path d="m1728 64v32 192-32-96-80z"/><path d="m1312 512h-224 64z"/><path d="m1536 512h-224 32z"/><path d="m1088-128v192z"/><path d="m1728-128h-128-64z"/><path d="m1312-128h-224v192 32h224z"/><path d="m1088 96v192 32h224v-224z"/><path d="m1088 320v192h224v-192z"/><path d="m1536-128h-224v224h224z"/><path d="m1312 96v224h224v-224z"/><path d="m1312 320v192h224v-192z"/><path d="m1728 96v-32-192h-192v224z"/><path d="m1728 320v-32-192h-192v224z"/><path d="m1728 512v-192h-192v192z"/><path d="m720-1408h-144v224h144z"/><path d="m576-1184v224h144v-224z"/><path d="m576-960v224h144v-224z"/><path d="m576-736v224h144v-224z"/><path d="m736-1408h-16v224h16z"/><path d="m720-1184v224h16v-224z"/><path d="m720-960v224h16v-224z"/><path d="m720-736v224h16v-224z"/><path d="m576-1408v224z"/><path d="m736-736v224z"/><path d="m736-960v224z"/><path d="m736-1184v224z"/><path d="m832-384h-80-32z"/><path d="m720 512h-224 16 16 112 16z"/><path d="m496-384v160 64z"/><path d="m832 288v224-96-64z"/><path d="m832 64v224z"/><path d="m832-160v224z"/><path d="m720-384h-224v224h224z"/><path d="m496-160v224h224v-224z"/><path d="m496 64v224h224v-224z"/><path d="m496 288v224h224v-224z"/><path d="m832-160v-224h-112v224z"/><path d="m832 64v-224h-112v224z"/><path d="m832 288v-224h-112v224z"/><path d="m832 512v-224h-112v224z"/><path d="m256-736v32 192-64-144z"/><path d="m256-960v32 192-64-144z"/><path d="m-384-1152v128 64z"/><path d="m256-1152h-176-16z"/><path d="m-160-512h-224z"/><path d="m64-512h-224z"/><path d="m-160-1152h-224v192 32h224z"/><path d="m-384-928v192 32h224v-224z"/><path d="m-384-704v192h224v-192z"/><path d="m64-1152h-224v224h224z"/><path d="m-160-928v224h224v-224z"/><path d="m-160-704v192h224v-192z"/><path d="m256-960v-192h-192v224h192z"/><path d="m64-928v224h192v-32-192z"/><path d="m64-704v192h192v-192z"/><path d="m256 80v32 192-32-176z"/><path d="m256-144v32 192-32-128-32-16z"/><path d="m-384-336v192z"/><path d="m-160 304h-224z"/><path d="m64 304h-224z"/><path d="m256-336h-192z"/><path d="m-160-336h-224v192 32h224z"/><path d="m-384-112v192 32h224v-224z"/><path d="m-384 112v192h224v-192z"/><path d="m64-336h-224v224h224z"/><path d="m-160-112v224h224v-224z"/><path d="m-160 112v192h224v-192z"/><path d="m256-144v-192h-192v224h192z"/><path d="m64-112v224h192v-32-192z"/><path d="m64 112v192h192v-192z"/><path d="m3016 256h-152v224h152z"/><path d="m2864 480h152z"/><path d="m3760-1008h-16v16 192 16h16z"/><path d="m3744-784v16 32 160 16h16v-224z"/><path d="m3744-560v48 96 64 16h16v-224z"/><path d="m3328-1008h-16-208v16h224z"/><path d="m3552-1008h-16-208v16h128 80 16z"/><path d="m3680-992h64v-16h-192v16z"/><path d="m3616-768-16-16-64-64 144-144h64v192 16 16z"/><path d="m3744-736h-96l-32-32h128z"/><path d="m3392-768 32 32h-64-32l48-48z"/><path d="m3232-768 16-16 48 48h-96z"/><path d="m3536-848-64 64-16 16h-64l-16-16-64-64 16-16 128-128h80z"/><path d="m3456-768-32 32-32-32z"/><path d="m3552-992h128l-144 144v-144z"/><path d="m3536-720 64-64 16 16 32 32-112 112-48 48v-32-64z"/><path d="m3520-736h-32-64l32-32 16-16z"/><path d="m3328-864-16 16-64 64-16 16h-128v-16-16-192h224z"/><path d="m3232-768-32 32h-96v-32z"/><path d="m3456-992-128 128v-128z"/><path d="m3104-800v-192-16h-16v224h16z"/><path d="m3088-784v224h16v-16-32-128-32-16z"/><path d="m3088-560v224h16v-16-64-144z"/><path d="m3488-736h32l16 16-48 48z"/><path d="m3648-512-48-48-64-64 112-112h96v160 16 48z"/><path d="m3744-416-32-32-64-64h96z"/><path d="m3536-496-48 48-64-64 48-48z"/><path d="m3712-352h-128l-96-96 48-48 64-64 48 48 64 64z"/><path d="m3744-416v64h-32v-96z"/><path d="m3392-352h-64-160l144-144 64-64 16 16z"/><path d="m3424-512 64 64 96 96h-32-160v-192z"/><path d="m3328-352h-160-64v16h208 16z"/><path d="m3552-352h-160-64v16h208 16z"/><path d="m3744-336v-16h-32-128-32v16z"/><path d="m3104-736h96 96l16 16-112 112h-96z"/><path d="m3312-720 16-16h32v64l-48 48-16 16h-96z"/><path d="m3360-672v64h-32l-16-16z"/><path d="m3392-544-16-16-48-48h32 128v32l-16 16-48 48z"/><path d="m3104-560v-16-32h96 96l-48 48-144 144z"/><path d="m3168-352h-64v-64l144-144 64 64z"/><path d="m3552-1008h192-208z"/><path d="m3088-1008v224z"/><path d="m3760-560v224z"/><path d="m3760-784v224z"/><path d="m3312-336h-208-16z"/><path d="m3536-336h-208-16z"/><path d="m3744-992v192z"/><path d="m3104-576v16 144 64z"/><path d="m3104-800v16 16 32 128 32z"/><path d="m3584-352h128 32-192z"/><path d="m3328-992h-224z"/><path d="m3552-992h-16-80-128z"/><path d="m3488-576 48-48-64 64z"/><path d="m3360-672v-64 128z"/><path d="m3520-736-48-48 64 64z"/><path d="m3424-736h64-128z"/><path d="m3296-608 16-16-64 64z"/><path d="m3296-736-48-48 64 64z"/><path d="m3328-992h-224z"/><path d="m3552-992h-16-80-128z"/><path d="m3744-992v192z"/><path d="m3104-576v16 144 64-192z"/><path d="m3104-800v16 16 32 128 32-192z"/><path d="m3584-352h128 32-192z"/><path d="m2416-560v224z"/><path d="m2416-784v224z"/><path d="m2416-864v80z"/><path d="m1824-352v-112h-16v128h16z"/><path d="m1808-688v224h16v-96-128z"/><path d="m1824-784v-80h-16v176h16z"/><path d="m2048-352h-224v-112h224z"/><path d="m2088-464h156v40 72h-196v-112z"/><path d="m2120-616h124v152h-156v-152z"/><path d="m2244-648v32h-124v-32z"/><path d="m2088-864h64v160h-32-32z"/><path d="m2312-648h-68-124-32v-32h112 112z"/><path d="m2400-680v32h-88v-32z"/><path d="m2244-464v-152-32h68 88v72 152h-156z"/><path d="m2400-424v72h-128-28v-72z"/><path d="m2400-704v24h-88-112v-24z"/><path d="m2272-864h104 24v64 96h-200-16v-160z"/><path d="m2032-896h-224v32h16 208z"/><path d="m2048-864h40v-16-16h-56v32z"/><path d="m2376-880h-224v16h32 88 104z"/><path d="m2400-864v-16h-24v16z"/><path d="m2032-336h-208-16z"/><path d="m2256-336h-208-16z"/><path d="m1808-464v128z"/><path d="m1808-864v-32 16 96 96z"/><path d="m2088-896h-56z"/><path d="m2400-880h-24z"/><path d="m2400-864v64z"/><path d="m2088-616v152z"/><path d="m2088-880v16 160-160z"/><path d="m2088-704h32z"/><path d="m2120-704h32z"/><path d="m2152-704v-160z"/><path d="m2184-864v160z"/><path d="m2200-704v24z"/><path d="m2048-464h-224z"/><path d="m2400-352h-128z"/><path d="m1824-560v96 112 16-80z"/><path d="m1824-784v96 128-80z"/><path d="m2048-864h-16-208z"/><path d="m2272-864h-88-32-64-40z"/><path d="m2400-336h16-144z"/><path d="m2640 368v96 128z"/><path d="m2640 144v96 128z"/><path d="m2640-80v96 128z"/><path d="m2872 472h136z"/><path d="m3008 472v-208z"/><path d="m2872 264h136v208h-136z"/><path d="m2624-208h16z"/><path d="m2432-208h192-208z"/><path d="m2192 592h-208-16z"/><path d="m2416 592h-208-16z"/><path d="m1968-208v128z"/><path d="m1984 352v112 16 96-96z"/><path d="m1984 128v112 16 96-96z"/><path d="m1984-96v112 16 96-96z"/><path d="m1984 352v112 16 96-64z"/><path d="m1984 128v112 16 96-64z"/><path d="m1984-96v112 16 96-64z"/><path d="m2624-160v-32 96z"/><path d="m2624-160v-32 96z"/><path d="m2640-80v-128h-16v16 32 64 112h16z"/><path d="m2624 16v48 64 112h16v-96-128z"/><path d="m2624 240v48 64 112h16v-96-128z"/><path d="m2624 464v48 64 16h16v-128z"/><path d="m2432 576h144 48-224z"/><path d="m2576 576h48-192z"/><path d="m2208-192h-224z"/><path d="m2432-192h-192-32z"/><path d="m2208-192h-224z"/><path d="m2432-192h-192-32z"/><path d="m2208-208h-16-208v16h224z"/><path d="m2432-208h-16-208v16h32 192z"/><path d="m2464-192h160v-16h-192v16z"/><path d="m2576-16v-144h48v64 112 48h-48z"/><path d="m2624 64v64 112 48h-48v-80-144z"/><path d="m2624 288v64 112 48h-48v-192-32z"/><path d="m2624 512v64h-48v-32-32z"/><path d="m2464-160h-96-128v-32h192 32z"/><path d="m2624-192v32h-48-112v-32z"/><path d="m2432-16h-64v-32-112h96 112v144z"/><path d="m2208-192h32v32 112 32h-32z"/><path d="m1984 16v-112-96h224v176 48h-224z"/><path d="m2208 32v176 48h-224v-16-112-96z"/><path d="m2208 256v64 8 48 48 56h-224v-16-112-96z"/><path d="m2208 480v96h-224v-96z"/><path d="m2208 208v-176-48h32 128 64v224z"/><path d="m2400 320h-192v-64-48h224v112z"/><path d="m2432-16h144v80 144h-144z"/><path d="m2576 208v80 32h-144v-112z"/><path d="m2400 544v-120-48-48-8h32 144v192 32z"/><path d="m2576 576h-144-32v-32h176z"/><path d="m2400 328v48h-192v-48z"/><path d="m2368-160h-128z"/><path d="m2400 376v48-40z"/><path d="m2400 544v32-32-120z"/><path d="m2208 576h-224v16h208 16z"/><path d="m2432 576h-32-192v16h208 16z"/><path d="m2624 592v-16h-48-144v16z"/><path d="m1984-96v-96-16h-16v128 96h16z"/><path d="m1968 16v128 96h16v-112-96-16z"/><path d="m1968 240v128 96h16v-112-96-16z"/><path d="m1968 464v128h16v-16-96-16z"/><path d="m480-384v16 208z"/><path d="m720 528h-224 208z"/><path d="m1296 528h-208-16z"/><path d="m1520 528h-208-16z"/><path d="m912-1424h-112z"/><path d="m1024-864v-160 192z"/><path d="m1600-1280h64-160z"/><path d="m1664-1248v192 32z"/><path d="m1056-384h32v-64h-64v64z"/><path d="m1248-448h-32v64h64v-64z"/><path d="m1248-480h-32-128-64v32h64 128 32z"/><path d="m1280-448v-32h-32v32z"/><path d="m1088-640v-64-160h128v160 32 32z"/><path d="m1216-480h-128v-160h128z"/><path d="m1088-896v32h128v-32z"/><path d="m1280-832v-64h-64v32 160 32h64z"/><path d="m1216-672v32 160h32 32v-128-64z"/><path d="m1088-896v-128-32-32l-64 64v160h64z"/><path d="m1024-864v32 192h64v-64-160z"/><path d="m1024-640v32 128h64v-160z"/><path d="m1216-1152 64-64v-64l-32 32-160 160v32h32z"/><path d="m1088-1056v32l32-32z"/><path d="m1504-896h-32-32-160v64h192l32-32z"/><path d="m1536-896h-32v32z"/><path d="m1504-896h32l64-64v-64l-128 128z"/><path d="m1504-1280h-224v64h224z"/><path d="m1600-1216v-64h-96v64z"/><path d="m1664-1056v-192-32h-64v64 64 96z"/><path d="m1600-1024v64l64-64v-32h-64z"/><path d="m1088-384h-32z"/><path d="m1280-1280-32 32z"/><path d="m1504-1216h-224 160z"/><path d="m1088-704v64 160-160z"/><path d="m1216-1152-96 96-32 32z"/><path d="m1472-896h-32z"/><path d="m1280-608v128 32 64z"/><path d="m1280-832h192z"/><path d="m1504-864-32 32z"/><path d="m1216-864v32 128z"/><path d="m1088-864h128z"/><path d="m1216-480h-128z"/><path d="m1216-864v160z"/><path d="m1088-704v64 160-160z"/><path d="m1536-144h192-208z"/><path d="m1744 304v224z"/><path d="m1744 80v224z"/><path d="m1072-144v224z"/><path d="m1728-64v-64 192z"/><path d="m1728-64v-64 192z"/><path d="m1744-144h-16v16 64 128 16h16z"/><path d="m1728 80v80 96 32 16h16v-224z"/><path d="m1728 304v208 16h16v-224z"/><path d="m1312 512h-160v-64h128 64v64z"/><path d="m1280 448v-40h48 16v40z"/><path d="m1328 360h16v48h-16z"/><path d="m1152 128h128 64v128 48 16h-64-128z"/><path d="m1088 80v-16-192h64v64 160h-64z"/><path d="m1152 96v32 192h-64v-16-16-192z"/><path d="m1152 320v128 64h-64v-192z"/><path d="m1088 64v-192-16h-16v224h16z"/><path d="m1072 80v224h16v-16-192-16z"/><path d="m1072 304v224h16v-16-192-16z"/><path d="m1312 512h-160-64v16h208 16z"/><path d="m1536 512h-192-32v16h208 16z"/><path d="m1728 528v-16h-136-24-32v16z"/><path d="m1568 320h-64-160v-16h224z"/><path d="m1576 304h16v16h-24v-16z"/><path d="m1504 360h-160-16-48v-40h64 160z"/><path d="m1568 320h24v40h-24-64v-40z"/><path d="m1568 512h-32-192v-64-40-48h160 64z"/><path d="m1592 360v152h-24v-152z"/><path d="m1624 304h104v208h-136v-152-40-16z"/><path d="m1504 128h-32-128-64v-64h224z"/><path d="m1536 64v64h-32v-64z"/><path d="m1472 128h32 32v128h-64z"/><path d="m1472 256h64 40v48h-8-224v-48z"/><path d="m1624 256h40 64v32 16h-104z"/><path d="m1376-64h-224v-64h160 64z"/><path d="m1600-64h-224v-64h160 64z"/><path d="m1728-128v64h-64-64v-64z"/><path d="m1664 64v-128h64v128 16 80h-64z"/><path d="m1728 160v96h-64v-96z"/><path d="m1312-144h-16-208v16h64 160z"/><path d="m1536-144h-16-208v16h64 160z"/><path d="m1600-128h128v-16h-192v16z"/><path d="m1312-128h-160-64z"/><path d="m1536-128h-160-64z"/><path d="m1088 288v16 16 192z"/><path d="m1088 64v16 16 192z"/><path d="m1576 256h-40z"/><path d="m1152 96v-160 128 48 16z"/><path d="m1504 64h-224z"/><path d="m1664-64h-64z"/><path d="m1152 128h48 32 48z"/><path d="m1576 256v48z"/><path d="m1152 320h128z"/><path d="m1328 360h-48z"/><path d="m1280 408v40z"/><path d="m1568 512h24 136-192z"/><path d="m1568 512h24 136-192z"/><path d="m1088 288v16 16 192-192z"/><path d="m1088 64v16 16 192-192z"/><path d="m1312-128h-160-64z"/><path d="m1536-128h-160-64z"/><path d="m800-496h-224z"/><path d="m560-1408v224z"/><path d="m576-512h-16z"/><path d="m736-512h-16z"/><path d="m720-512h-144z"/><path d="m720-512h-144z"/><path d="m752-512h48 112-104-4-5.7778z"/><path d="m720-1408h-144z"/><path d="m720-1408h16z"/><path d="m576-1408h144z"/><path d="m560-1408h16z"/><path d="m576-1408v-16z"/><path d="m800-1424h-224v16h144 16 16 48z"/><path d="m912-1408v-16h-112v16z"/><path d="m576-736v224z"/><path d="m576-960v224z"/><path d="m576-1184v224z"/><path d="m576-736v224z"/><path d="m576-960v224-208z"/><path d="m576-1184v224-16z"/><path d="m720-1408v224z"/><path d="m576-1408h144v224h-144z"/><path d="m720-1184v224h-144v-224z"/><path d="m720-960v224h-144v-224z"/><path d="m720-736v224h-144v-224z"/><path d="m576-1408h-16v224h16z"/><path d="m560-1184v224h16v-224z"/><path d="m560-960v224h16v-224z"/><path d="m560-736v224h16v-224z"/><path d="m576-496v-16z"/><path d="m912-512v16z"/><path d="m800-512h-48-16-16-144v16h224z"/><path d="m912-496v-16h-112v16z"/><path d="m832-400h-112z"/><path d="m848-384h-16v224h16z"/><path d="m832-160v224h16v-224z"/><path d="m832 64v224h16v-224z"/><path d="m832 288v64 64 96h16v-224z"/><path d="m720-400h-224v16h224z"/><path d="m752-384h80v-16h-112v16z"/><path d="m752-224v-160h80v224h-80z"/><path d="m832-160v224h-80v-192-32z"/><path d="m832 64v224h-80v-192-32z"/><path d="m832 288v64h-64-16v-32-32z"/><path d="m768 352h64v64h-64z"/><path d="m704 416h64 64v96h-112-64v-16-16-64z"/><path d="m720 512h-64-16-112-16-16v16h224z"/><path d="m832 528v-16h-112v16z"/><path d="m720-224h-48-64-112v-160h224z"/><path d="m752-384v160h-32v-160z"/><path d="m720-128h-48v-32-64h48 32v64 32z"/><path d="m608-160h64v32h-64z"/><path d="m608-160v32h-112v-32-64h112z"/><path d="m496-224v-160h-16v224h16z"/><path d="m480-160v224h16v-192-32z"/><path d="m480 64v224h16v-192-32z"/><path d="m480 288v224h16v-192-32z"/><path d="m496 96v-32-192h112 64 48v224z"/><path d="m704 320h-64-128-16v-32-192h224v224z"/><path d="m720-128h32v192 32h-32z"/><path d="m752 96v192 32h-32v-224z"/><path d="m752 352h-48v-32h16 32z"/><path d="m640 320h64v32 64h-48-16z"/><path d="m640 416h16v64h-16z"/><path d="m640 496h16v16h-16z"/><path d="m640 416v64h-112-16v-160h128z"/><path d="m640 496v16h-112v-16-16h112z"/><path d="m512 496h16v16h-16z"/><path d="m512 480v16 16h-16v-192h16z"/><path d="m832-384v224z"/><path d="m848 288v224-208z"/><path d="m848 64v224-208z"/><path d="m848-160v224-208z"/><path d="m496 288v32 192z"/><path d="m496 64v32 192z"/><path d="m496-160v32 192z"/><path d="m720-384h-224z"/><path d="m608-224v16 32 16z"/><path d="m752 352h16-16-48z"/><path d="m704 352v16 32 16z"/><path d="m832 512h-112z"/><path d="m720-384h-224z"/><path d="m832 512h-112z"/><path d="m496 288v32 192z"/><path d="m496 64v32 192z"/><path d="m496-160v32 192z"/><path d="m832-384v224z"/><path d="m272-720v224z"/><path d="m272-944v224z"/><path d="m-176-496h-208-16z"/><path d="m48-496h-208-16z"/><path d="m64-1168h192-208z"/><path d="m-400-1168v224z"/><path d="m256-1024v-128 192z"/><path d="m256-1024v-128 192z"/><path d="m272-1168h-16v16 128 64 16h16z"/><path d="m256-944v144 64 16h16v-224z"/><path d="m256-720v144 64 16h16v-224z"/><path d="m-384-736v16 144 64-192z"/><path d="m-384-960v16 144 64-192z"/><path d="m-384-736v16 144 64z"/><path d="m-384-960v16 144 64z"/><path d="m-160-1152h-48-176z"/><path d="m64-1152h-48-176z"/><path d="m-160-1152h-48-176z"/><path d="m64-1152h-48-176z"/><path d="m-160-1168h-16-208v16h176 48z"/><path d="m64-1168h-16-208v16h176 48z"/><path d="m80-1152h176v-16h-192v16z"/><path d="m256-512h-192z"/><path d="m256-512h-192z"/><path d="m80-1040v-112h176v128h-176z"/><path d="m16-1040h-208-16v-112h48 176z"/><path d="m64-1152h16v112h-16-32-16v-112z"/><path d="m32-1024h-192-32v-16h208 16z"/><path d="m64-1040v16h-32v-16z"/><path d="m-384-1152h176v112 16h-176z"/><path d="m-384-800v-144-16-64h176 16 32v224z"/><path d="m-384-576v-144-16-64h224v224z"/><path d="m-384-512v-64h224v64z"/><path d="m-160-1024h192 32v224h-224z"/><path d="m64-800v224h-224v-224z"/><path d="m64-576v64h-224v-64z"/><path d="m64-1024h16 176v64 16 144h-192z"/><path d="m256-800v64 16 144h-192v-224z"/><path d="m256-576v64h-192v-64z"/><path d="m-160-512h-224v16h208 16z"/><path d="m64-512h-224v16h208 16z"/><path d="m256-496v-16h-192v16z"/><path d="m-384-960v-64-128-16h-16v224h16z"/><path d="m-400-944v224h16v-16-64-144z"/><path d="m-400-720v224h16v-16-64-144z"/><path d="m272 96v224z"/><path d="m272-128v224z"/><path d="m-176 320h-208-16z"/><path d="m48 320h-208-16z"/><path d="m64-352h192-208z"/><path d="m-400-352v224z"/><path d="m256-336v192z"/><path d="m256-336v192z"/><path d="m272-352h-16v16 192 16h16z"/><path d="m256-128v16 32 128 32 16h16v-224z"/><path d="m256 96v176 32 16h16v-224z"/><path d="m-384 80v16 176 32z"/><path d="m-384-144v16 16 32 128 32z"/><path d="m-384 80v16 176 32-192z"/><path d="m-384-144v16 16 32 128 32-192z"/><path d="m256 304h-192z"/><path d="m256 304h-192z"/><path d="m-160-336h-224z"/><path d="m64-336h-224z"/><path d="m-160-336h-224z"/><path d="m64-336h-224z"/><path d="m-160-352h-16-208v16h224z"/><path d="m64-352h-16-208v16h224z"/><path d="m256-336v-16h-192v16z"/><path d="m-384-112v-16-16-192h224v224z"/><path d="m-160-80h-224v-32h224z"/><path d="m-160-112v-224h224v224z"/><path d="m64-80h-64-128-32v-32h224z"/><path d="m256-336v192 16 16h-192v-224z"/><path d="m256-112v32h-32-160v-32z"/><path d="m224 48h-160-64v-128h64 160z"/><path d="m256-80v128h-32v-128z"/><path d="m-384 272v-176-16-32h224v224z"/><path d="m-160 304h-224v-32h224z"/><path d="m-160 272v-224h32 128 64v224z"/><path d="m64 304h-224v-32h224z"/><path d="m224 48h32v32 16 176h-192v-224z"/><path d="m256 272v32h-192v-32z"/><path d="m-160 48h-224v-128h224z"/><path d="m-128-80v128h-32v-128z"/><path d="m-160 304h-224v16h208 16z"/><path d="m64 304h-224v16h208 16z"/><path d="m256 320v-16h-192v16z"/><path d="m-384-144v-192-16h-16v224h16z"/><path d="m-400-128v224h16v-16-32-128-32-16z"/><path d="m-400 96v224h16v-16-32-176z"/><path d="m1984-160v-32 96z"/><path d="m1984 352v160 64z"/><path d="m1984 128v160 64z"/><path d="m1984-96v160 64z"/><path d="m2624-192v96z"/><path d="m2624 352v192 32-64-48z"/><path d="m2624 128v128 64 32-64-48z"/><path d="m2624-96v128 96-64-48z"/><path d="m2624 576h-224z"/><path d="m1984 576h224z"/><path d="m2208-192h-224z"/><path d="m2432-192h-224z"/><path d="m2576-192h48-160-32z"/><path d="m2576-16v-144-32h48v96 128h-48z"/><path d="m2624 32v96 128h-48v-48-176z"/><path d="m2624 256v64h-48v-64z"/><path d="m2624-96v-96h-48v32 144 48h48z"/><path d="m2576 32v176 48h48v-128-96z"/><path d="m2576 256v64h48v-64z"/><path d="m2624 544v-192-32h-48-144-32v8 56 40 120z"/><path d="m2624 576v-32h-224v32z"/><path d="m2432 320h144 48v32 192h-224v-120-40-56-8z"/><path d="m2624 544v32h-224v-32z"/><path d="m2208-160h-224v-32h224z"/><path d="m2432-160h-64-128-32v-32h224z"/><path d="m2576-192v32h-144v-32z"/><path d="m2208-192h-224v32h224z"/><path d="m2432-192h-224v32h32 128 64z"/><path d="m2576-160v-32h-144v32z"/><path d="m2576-160h-144-64v112 32h64 144z"/><path d="m2368-48v-112h64 144v144h-144-64z"/><path d="m2208-160h32v112 32h-32z"/><path d="m1984-96v-64h224v144 80h-224z"/><path d="m2208 64v144 80h-224v-160-64z"/><path d="m2208 288v32 8 56 40 88h-224v-160-64z"/><path d="m2208 512v64h-224v-64z"/><path d="m2240-48v-112h-32v144h32z"/><path d="m2208-16v-144h-224v64 160h224z"/><path d="m1984 64v64 160h224v-80-144z"/><path d="m1984 288v64 160h224v-88-40-56-8-32z"/><path d="m1984 512v64h224v-64z"/><path d="m2208 208v-144-80h32 128 64v224z"/><path d="m2432 320h-32-192v-32-80h224z"/><path d="m2576-16v48 176h-144v-224z"/><path d="m2576 208v48 64h-144v-112z"/><path d="m2432-16h-64-128-32v80 144h224z"/><path d="m2208 208v80 32h192 32v-112z"/><path d="m2576 208v-176-48h-144v224z"/><path d="m2576 320v-64-48h-144v112z"/><path d="m2400 328v56h-192v-56z"/><path d="m2400 384v-56h-192v56z"/><path d="m2368-160v112z"/><path d="m2368-160h-128z"/><path d="m2400 424v-40z"/><path d="m2208 320h192z"/><path d="m2240-48v-112z"/><path d="m2240-16v-32z"/><path d="m2368-16h-128z"/><path d="m2368-160v112z"/><path d="m2368-48v32z"/><path d="m2208 424v-48 8z"/><path d="m2208 328v-8z"/><path d="m2208 512v64-96-56z"/><path d="m2400 320v8z"/><path d="m2400 328h-192z"/><path d="m2208 384v-8h192v8z"/><path d="m1088-864v160z"/><path d="m1216-864h-128z"/><path d="m1216-704v64 160-160-32z"/><path d="m1216-832v128z"/><path d="m1088-480h128z"/><path d="m1088-640v-64-160h128v32 128 64z"/><path d="m1216-480h-128v-160h128z"/><path d="m1216-640v-64-128-32h-128v160 64z"/><path d="m1088-480h128v-160h-128z"/><path d="m1608 288v-16z"/><path d="m1608 288h-16v-16h16z"/><path d="m1312 392v-16z"/><path d="m1312 392h-16v-16h16z"/><path d="m3536-624-64 64z"/><path d="m3536-496-64-64z"/><path d="m3600-560-64 64z"/><path d="m3536-624 64 64z"/><path d="m3376-784-48 48-16 16z"/><path d="m3312-624 16 16 48 48z"/><path d="m3488-608h-128z"/><path d="m3472-784 64 64z"/><path d="m3472-784 64-64z"/><path d="m3600-784-64 64z"/><path d="m3536-848 64 64z"/><path d="m3360-736h128z"/><path d="m3488-736v128z"/><path d="m3488-736v64 64z"/><path d="m3376-560-64 64z"/><path d="m3312-496-64-64z"/><path d="m3248-784 64-64z"/><path d="m3248-784 64 64z"/><path d="m3312-848 64 64z"/><path d="m2928-1264h-112z"/><path d="m2816-1264h-224v16h144 14.6667 65.3333z"/><path d="m2824-1248h104v-16h-112v16z"/><path d="m2592-1248h-16v224h16z"/><path d="m2576-1024v224h16v-224z"/><path d="m2576-800v224h16v-224z"/><path d="m2576-576v224h16v-224z"/><path d="m2736-1248h-144v224h144z"/><path d="m2592-1024v224h144v-224z"/><path d="m2592-800v224h144v-224z"/><path d="m2592-576v224h144v-224z"/><path d="m2816-352h-65.3333-14.6667-144v16h224z"/><path d="m2928-336v-16h-104-8v16z"/><path d="m2576-1248v16 208z"/><path d="m2816-336h-224 208z"/><path d="m2928-352h-104z"/><path d="m2750.6667-1248h-14.6667 4 12 1.5557z"/><path d="m2736-1024v224h16v-224z"/><path d="m2736-800v224h16v-224z"/><path d="m2736-576v224h4 12v-224z"/><path d="m2592-336v-16z"/><path d="m2184-704h16z"/><path d="m2184-704h-32z"/><path d="m2152-864v160z"/><path d="m2184-864h192 24-24-104z"/><path d="m2152-864h32z"/><path d="m2152-704v-160h32v160z"/><path d="m2120-864h32z"/><path d="m2120-704v-160z"/><path d="m2120-864v160h32v-160z"/><path d="m2208 320h192z"/><path d="m2368-48v32z"/><path d="m2368-16h-128z"/><path d="m2240-16v-32z"/><path d="m2240-48v-112z"/><path d="m2368-48v32h-128v-32z"/><path d="m2400 320v8z"/><path d="m2400 328h-192v-8h192z"/><path d="m2208 328v-8z"/><path d="m2400 328h-192z"/><path d="m1216-384h64z"/><path d="m1088-928v-96 128z"/><path d="m1088-480v-128-96 64z"/><path d="m1088-384v-64z"/><path d="m1216-864h-128z"/><path d="m1536-960-32 32-32 32 128-128z"/><path d="m1600-1024v-32-96z"/><path d="m1600-1152v-64z"/><path d="m1440-896h-128-96 64z"/><path d="m1216-896h-128z"/><path d="m1216-896h-128z"/><path d="m1536-1152h64-160z"/><path d="m1312-1152h-96l-128 128v96h224z"/><path d="m1088-928v32h128 96v-32z"/><path d="m1536-1152h-96-128v224h192l32-32z"/><path d="m1312-928v32h128 32l32-32z"/><path d="m1600-1024v-128h-64v192z"/><path d="m1216-864h-128v-32h128z"/><path d="m1216-864v32z"/><path d="m1216-448v64z"/><path d="m1088-480h128z"/><path d="m1088-448h128z"/><path d="m1216-384v-64h-128v64z"/><path d="m1664 256h-40z"/><path d="m1472 256h-128z"/><path d="m1664 256v-16-112-64 96z"/><path d="m1344 256v-128z"/><path d="m1472 128v128z"/><path d="m1344 128h128z"/><path d="m1328 376v-16 48z"/><path d="m1592 304h16 16-32-16z"/><path d="m1624 256v48z"/><path d="m1608 304h-16v-16h16z"/><path d="m1608 272h-16v-16h16z"/><path d="m1576 256h16v16 16 16h-16z"/><path d="m1608 288v-16-16h16v48h-16z"/><path d="m1608 272h-16z"/><path d="m1592 288v-16z"/><path d="m1592 288h16z"/><path d="m1328 360v16h-16-16-16v-16z"/><path d="m1328 376v32h-16v-16-16z"/><path d="m1296 376v16 16h-16v-32z"/><path d="m1312 408h-16v-16h16z"/><path d="m1296 392h16z"/><path d="m1280 320v40z"/><path d="m1296 392v-16z"/><path d="m1312 376h-16z"/><path d="m1296 408h16 16-48z"/><path d="m656-160h16-64z"/><path d="m608-224h64z"/><path d="m672-208v-16 64z"/><path d="m656-208h-32-16v-16h64v16z"/><path d="m656-160h-48v-16h16 32z"/><path d="m608-176v-32h16v32z"/><path d="m672-160h-16v-16-32h16z"/><path d="m624-176v-32z"/><path d="m656-176h-32z"/><path d="m624-208h32z"/><path d="m656-208v32z"/><path d="m752 416h16-64z"/><path d="m752 400v-32-16h16v64h-16z"/><path d="m704 400v-32h16v32z"/><path d="m752 416h-48v-16h16 32z"/><path d="m720 368h-16v-16h48v16z"/><path d="m752 368v32z"/><path d="m768 352v64z"/><path d="m-128-80h128z"/><path d="m-128 48v-128z"/><path d="m0-80v128z"/><path d="m0 48h-128z"/><path d="m2752-352h-12z"/><path d="m2752-352h-12-4 14.6667 2.889z"/><path d="m2592-352h144 16 46.2222 11.5556z"/><path d="m2592-816v16 16z"/><path d="m2753.5557-1248h-1.5557 16z"/><path d="m2753.5557-1248h14.4443 46.2222 9.7778-8-65.3333z"/><path d="m2740-1248h12z"/><path d="m2736-1248h16v224h-16z"/><path d="m2592-1040v-208h144v224h-144z"/><path d="m2736-1024v224h-144v-16-208z"/><path d="m2736-800v224h-144v-208-16z"/><path d="m2736-576v224h-144v-224z"/><path d="m2592-1248h-16z"/><path d="m3312-1008h-224 16z"/><path d="m3536-1008h-224 16z"/><path d="m3744-1008h16-16-192-16z"/><path d="m3744-1008h16z"/><path d="m3088-560v224z"/><path d="m3088-784v224z"/><path d="m3088-1008v224z"/><path d="m3760-1008v224z"/><path d="m3760-560v224z"/><path d="m3760-784v224z"/><path d="m3760-336h-16z"/><path d="m3744-336h-192-16z"/><path d="m3312-336h-224 16z"/><path d="m3536-336h-224 16z"/><path d="m3744-992v192z"/><path d="m3744-576v224-64-96-48z"/><path d="m3744-800v224-160-32-16z"/><path d="m3104-576v224-208z"/><path d="m3104-800v224-208z"/><path d="m3104-992v192z"/><path d="m3328-352h-224 64z"/><path d="m3552-352h-224 64z"/><path d="m3744-352h-192z"/><path d="m3328-992h-224z"/><path d="m3552-992h-224z"/><path d="m3744-992h-64-128z"/><path d="m2416-560v224-96z"/><path d="m2416-784v224-96z"/><path d="m2416-864v80z"/><path d="m2032-336h-224 16z"/><path d="m2256-336h-224 16z"/><path d="m2416-336h-16z"/><path d="m2400-336h-128-16z"/><path d="m1808-688v128 96z"/><path d="m1808-896v16z"/><path d="m1808-880v96z"/><path d="m2152-880h32-32-64z"/><path d="m2376-880h-192-32z"/><path d="m2400-880h-24z"/><path d="m2088-896v16z"/><path d="m2088-880v-16z"/><path d="m2400-880v16z"/><path d="m2400-864v64z"/><path d="m2400-576v224-72z"/><path d="m2400-800v224-72-32-24z"/><path d="m2400-864h16z"/><path d="m2416-880h-16v16h16z"/><path d="m1824-464v112z"/><path d="m2152-704h-32z"/><path d="m2152-864v-16z"/><path d="m2376-864h-192-32z"/><path d="m2152-880h-64v16h32 32z"/><path d="m2120-704v-160h32v160z"/><path d="m2088-864v160h32v-160z"/><path d="m2120-864v160z"/><path d="m2400-352h-128z"/><path d="m2048-352h-224z"/><path d="m2272-352h-224 196z"/><path d="m2640 368v224-128z"/><path d="m2640 144v224-128z"/><path d="m2640-80v224-128z"/><path d="m2640-208v128z"/><path d="m2192-208h-224 16z"/><path d="m2416-208h-224 16z"/><path d="m2624-208h16-16-192-16z"/><path d="m2192 592h-224 16 192z"/><path d="m2416 592h-224z"/><path d="m2624 592h-192-16z"/><path d="m2624 592h16z"/><path d="m1968 368v224-128z"/><path d="m1968 144v224-128z"/><path d="m1968-80v224-128z"/><path d="m1968-208v128z"/><path d="m1984 352v224-112z"/><path d="m1984 128v224-112z"/><path d="m1984-96v224-112z"/><path d="m1984-192v32 64z"/><path d="m2624-192v96z"/><path d="m2624 352v224-32z"/><path d="m2624 128v224-32-64z"/><path d="m2624-96v224-96z"/><path d="m2624 576h-208-16z"/><path d="m1984 576h224z"/><path d="m2624-192h-48-144z"/><path d="m2208-192h-224z"/><path d="m2432-192h-224z"/><path d="m2240-160v112z"/><path d="m2368-48h-128z"/><path d="m2368-160h-112-16z"/><path d="m480-384v-16 32z"/><path d="m480 288v16 208z"/><path d="m480 64v16 208z"/><path d="m480-160v16 208z"/><path d="m832 528h-112z"/><path d="m704 528h-208-16 16z"/><path d="m1728 528h-192-16z"/><path d="m1296 528h-224 16z"/><path d="m1520 528h-224 16z"/><path d="m1744 528h-16z"/><path d="m576-1424h224z"/><path d="m912-1424h-112z"/><path d="m1088-384h112 16 64-64-128-32z"/><path d="m1600-1216h-96z"/><path d="m1280-1216-64 64z"/><path d="m1440-1152h-224 96z"/><path d="m1440-1216h-160l-64 64h224z"/><path d="m1600-1152v-64h-96-64v64z"/><path d="m1216-896v32z"/><path d="m1216-704v96 128-160z"/><path d="m1216-704v-128 224z"/><path d="m1088-480h128z"/><path d="m1216-448h-128v-32h128z"/><path d="m1216-384h-16v-32-16h16z"/><path d="m1216-448v16h-16-16-64-16-16v-16z"/><path d="m1120-416v-16h64v16z"/><path d="m1104-416h16 64 16v32h-112v-32z"/><path d="m1088-416v-16h16v16z"/><path d="m1728-144h16-16-208z"/><path d="m1296-144h-224 16z"/><path d="m1520-144h-224 16z"/><path d="m1728-144h16z"/><path d="m1744-144v224z"/><path d="m1744 304v224z"/><path d="m1744 80v224z"/><path d="m1072 304v224z"/><path d="m1072 80v224z"/><path d="m1072-144v16 208z"/><path d="m1728-128v192z"/><path d="m1728 288v224-208z"/><path d="m1728 64v224-32-96-80z"/><path d="m1312-128h-224 208z"/><path d="m1536-128h-224 208z"/><path d="m1728-128h-128-64z"/><path d="m1088 288v224-192z"/><path d="m1088 64v224-192z"/><path d="m1088-128v192z"/><path d="m1280 448h-128z"/><path d="m1152 448v-128z"/><path d="m1280 320h-128z"/><path d="m1280 448v-128 40 16 32z"/><path d="m1728 512h-192z"/><path d="m1312 512h-224 64z"/><path d="m1536 512h-224 32z"/><path d="m576-496h208 16z"/><path d="m912-496h-112z"/><path d="m560-512v-224z"/><path d="m560-736v-224z"/><path d="m560-960v-224z"/><path d="m560-1408v16 208z"/><path d="m560-512h16z"/><path d="m912-1408h-112-48 46.2222 5.7778 4z"/><path d="m576-1408h-16z"/><path d="m912-1424v16z"/><path d="m576-1424v16z"/><path d="m576-512v16z"/><path d="m912-496v-16z"/><path d="m720-400h112 16-16-112-16z"/><path d="m720-400h-16-208z"/><path d="m832 512v16z"/><path d="m832-384v208 16z"/><path d="m832-400v16z"/><path d="m832 288v224-96-64z"/><path d="m832 64v224z"/><path d="m832-160v224z"/><path d="m848 304v208 16-32z"/><path d="m848 80v208 16-32z"/><path d="m848-144v208 16-32z"/><path d="m848-368v208 16-32z"/><path d="m848-368v-16 224z"/><path d="m848 512h-16z"/><path d="m848-400h-16v16h16z"/><path d="m832-384h16z"/><path d="m832 512v16h16v-16z"/><path d="m496-384v-16z"/><path d="m496-384v160 64z"/><path d="m496 288v224-16z"/><path d="m496 64v224-16z"/><path d="m496-160v224-16z"/><path d="m496 528v-16z"/><path d="m832-384h-80-32z"/><path d="m720-384h-224z"/><path d="m832 512h-112z"/><path d="m720 512h-224 16 16 112 16z"/><path d="m480-384h16z"/><path d="m480-400v16h16v-16z"/><path d="m480 512v16h16v-16z"/><path d="m496 512h-16z"/><path d="m272-720v224z"/><path d="m272-944v224z"/><path d="m272-1168v224z"/><path d="m-176-496h-224 16z"/><path d="m48-496h-224 16z"/><path d="m272-496h-16z"/><path d="m256-496h-192-16z"/><path d="m256-1168h16z"/><path d="m256-1168h16-16-192-16z"/><path d="m-176-1168h-224 16z"/><path d="m48-1168h-224 16z"/><path d="m-400-1168v224z"/><path d="m-400-720v224z"/><path d="m-400-944v224z"/><path d="m256-1152v192z"/><path d="m256-736v224-64-144z"/><path d="m256-960v224-64-144z"/><path d="m-384-736v224-208z"/><path d="m-384-960v224-208z"/><path d="m-384-1152v128 64z"/><path d="m256-1152h-176-16z"/><path d="m-160-1152h-224z"/><path d="m64-1152h-224z"/><path d="m256-512h-192z"/><path d="m-160-512h-224z"/><path d="m64-512h-224z"/><path d="m272-352v224z"/><path d="m272 96v224z"/><path d="m272-128v224z"/><path d="m-176 320h-224 16z"/><path d="m48 320h-224 16z"/><path d="m272 320h-16z"/><path d="m256 320h-192-16z"/><path d="m256-352h16z"/><path d="m256-352h16-16-192-16z"/><path d="m-176-352h-224 16z"/><path d="m48-352h-224 16z"/><path d="m-400 96v224z"/><path d="m-400-128v224z"/><path d="m-400-352v224z"/><path d="m256-336v192z"/><path d="m256 80v224-32-176z"/><path d="m256-144v224-32-128-32-16z"/><path d="m-384-336v192z"/><path d="m-384 80v224-208z"/><path d="m-384-144v224-208z"/><path d="m-160 304h-224z"/><path d="m64 304h-224z"/><path d="m256 304h-192z"/><path d="m256-336h-192z"/><path d="m-160-336h-224z"/><path d="m64-336h-224z"/><path d="m2952 384v16h16v-16z"/><path d="m2952 384v16h16v-16z"/><path d="m2952 384v16h16v-16z"/><path d="m2952 384v16h16v-16z"/><path d="m2952 384v16h16v-16z"/><path d="m2952 384v16h16v-16z"/><path d="m2952 384v16h16v-16z"/><path d="m2952 384v16h16v-16z"/><path d="m2952 384v16h16v-16z"/><path d="m2952 384v16h16v-16z"/><path d="m2952 384v16h16v-16z"/><path d="m2952 384v16h16v-16z"/><path d="m2952 384v16h16v-16z"/><path d="m2952 384v16h16v-16z"/><path d="m2952 384v16h16v-16z"/><path d="m2952 384v16h16v-16z"/><path d="m2952 384v16h16v-16z"/><path d="m2952 384v16h16v-16z"/><path d="m2952 384v16h16v-16z"/><path d="m2952 384v16h16v-16z"/><path d="m2952 384v16h16v-16z"/><path d="m2952 384v16h16v-16z"/><path d="m2952 384v16h16v-16z"/><path d="m2952 384v16h16v-16z"/><path d="m2952 384v16h16v-16z"/><path d="m2952 384v16h16v-16z"/><path d="m2952 384v16h16v-16z"/><path d="m2952 384v16h16v-16z"/><path d="m2952 384v16h16v-16z"/><path d="m2952 384v16h16v-16z"/><path d="m2952 384v16h16v-16z"/><path d="m2952 384v16h16v-16z"/><path d="m2952 384v16h16v-16z"/><path d="m2952 384v16h16v-16z"/><path d="m2952 384v16h16v-16z"/><path d="m2952 384v16h16v-16z"/><path d="m2952 384v16h16v-16z"/><path d="m2952 384v16h16v-16z"/><path d="m2952 384v16h16v-16z"/><path d="m2952 384v16h16v-16z"/><path d="m2952 384v16h16v-16z"/><path d="m2952 384v16h16v-16z"/><path d="m2952 384v16h16v-16z"/><path d="m2952 384v16h16v-16z"/><path d="m2952 384v16h16v-16z"/><path d="m2952 384v16h16v-16z"/><path d="m2952 384v16h16v-16z"/><path d="m2952 384v16h16v-16z"/><path d="m2952 384v16h16v-16z"/><path d="m2952 384v16h16v-16z"/><path d="m2952 384v16h16v-16z"/><path d="m2952 384v16h16v-16z"/><path d="m2952 384v16h16v-16z"/><path d="m2952 384v16h16v-16z"/><path d="m2952 384v16h16v-16z"/><path d="m2952 384v16h16v-16z"/><path d="m2952 384v16h16v-16z"/><path d="m2952 384v16h16v-16z"/><path d="m2952 384v16h16v-16z"/><path d="m2952 384v16h16v-16z"/><path d="m2952 384v16h16v-16z"/><path d="m2952 384v16h16v-16z"/><path d="m2952 384v16h16v-16z"/><path d="m2952 384v16h16v-16z"/><path d="m2952 384v16h16v-16z"/><path d="m2952 384v16h16v-16z"/><path d="m2952 384v16h16v-16z"/><path d="m2952 384v16h16v-16z"/><path d="m2952 384v16h16v-16z"/><path d="m2952 384v16h16v-16z"/><path d="m2952 384v16h16v-16z"/><path d="m2952 384v16h16v-16z"/><path d="m2952 384v16h16v-16z"/><path d="m2952 384v16h16v-16z"/><path d="m2952 384v16h16v-16z"/><path d="m2952 384v16h16v-16z"/><path d="m2952 384v16h16v-16z"/><path d="m2952 384v16h16v-16z"/><path d="m2952 384v16h16v-16z"/><path d="m2952 384v16h16v-16z"/><path d="m2952 384v16h16v-16z"/><path d="m2952 384v16h16v-16z"/><path d="m2952 384v16h16v-16z"/><path d="m2952 384v16h16v-16z"/><path d="m2952 384v16h16v-16z"/><path d="m2952 384v16h16v-16z"/><path d="m2952 384v16h16v-16z"/><path d="m2952 384v16h16v-16z"/><path d="m2952 384v16h16v-16z"/><path d="m2952 384v16h16v-16z"/><path d="m2952 384v16h16v-16z"/><path d="m2952 384v16h16v-16z"/><path d="m2952 384v16h16v-16z"/><path d="m2952 384v16h16v-16z"/><path d="m2952 384v16h16v-16z"/><path d="m2952 384v16h16v-16z"/><path d="m2952 384v16h16v-16z"/><path d="m2952 384v16h16v-16z"/><path d="m2952 384v16h16v-16z"/><path d="m2952 384v16h16v-16z"/><path d="m2952 384v16h16v-16z"/><path d="m2952 384v16h16v-16z"/><path d="m2952 384v16h16v-16z"/><path d="m2952 384v16h16v-16z"/><path d="m2952 384v16h16v-16z"/><path d="m3312-1008h-208-16z"/><path d="m3536-1008h-208-16z"/><path d="m3088-560v224z"/><path d="m3088-784v224z"/><path d="m3760-1008v224z"/><path d="m3552-336h192 16-16-208z"/><path d="m3744-576v16 208z"/><path d="m3744-800v16 208z"/><path d="m3744-800v-192-16h16v224h-16z"/><path d="m3760-784v224h-16v-16-208z"/><path d="m3760-560v224h-16v-16-208z"/><path d="m3104-992v192z"/><path d="m3328-352h-224z"/><path d="m3552-352h-224z"/><path d="m3744-992h-192z"/><path d="m3328-992h-224v-16h208 16z"/><path d="m3552-992h-224v-16h208 16z"/><path d="m3744-1008v16h-192v-16z"/><path d="m3328-336h-16-208v-16h224z"/><path d="m3552-336h-16-208v-16h224z"/><path d="m3744-352v16h-192v-16z"/><path d="m3088-1008h16v16 192 16h-16z"/><path d="m3104-784v208 16h-16v-224z"/><path d="m3104-560v208 16h-16v-224z"/><path d="m2416-880v16 80z"/><path d="m2752-1024v224z"/><path d="m2752-800v224z"/><path d="m2752-576v224z"/><path d="m2752-1248h-12-4v224h16z"/><path d="m2272-336h128-144z"/><path d="m2416-336h-16z"/><path d="m1808-784v-96 192z"/><path d="m1808-880v-16z"/><path d="m1808-560v96 16 112-128z"/><path d="m1808-784v96 128-128z"/><path d="m2088-896h-56z"/><path d="m2032-896h-224z"/><path d="m2152-880h-64z"/><path d="m2376-880h-224 32z"/><path d="m2400-880h16z"/><path d="m2088-896v16z"/><path d="m2400-576v144 80z"/><path d="m2400-800v144 80z"/><path d="m2400-800v-64-16h16v96 128h-16z"/><path d="m2416-656v96 128h-16v-144-80z"/><path d="m2416-432v96h-16v-16-80z"/><path d="m1824-448v-16 112z"/><path d="m2088-680v32z"/><path d="m2088-864v160-136z"/><path d="m2088-648v-32z"/><path d="m2376-864h-224v-16h224z"/><path d="m2400-880v16h-24v-16z"/><path d="m2400-864h-24z"/><path d="m2120-864h32z"/><path d="m2088-864h32z"/><path d="m2088-704v-160h32v160z"/><path d="m2088-680h112z"/><path d="m2088-464h-40z"/><path d="m2048-464h-224 104 80 32z"/><path d="m2048-336h-16-208v-16h224z"/><path d="m2272-336h-16-208v-16h224z"/><path d="m2400-352v16h-128v-16z"/><path d="m2048-352h-224z"/><path d="m2272-352h-224z"/><path d="m1824-352v16h-16v-112h16z"/><path d="m2640-208v128z"/><path d="m2192-208h-208-16z"/><path d="m2416-208h-208-16z"/><path d="m2624 592h16-16-208z"/><path d="m1968 368v96 128z"/><path d="m1968 144v96 128z"/><path d="m1968-80v96 128z"/><path d="m1984-192v96z"/><path d="m2624 352v112 112z"/><path d="m2624 128v112 112z"/><path d="m2624-96v112 112z"/><path d="m2624-96v-96-16h16v128 96h-16z"/><path d="m2640 16v128 96h-16v-112-112z"/><path d="m2640 240v128 96h-16v-112-112z"/><path d="m2640 464v128h-16v-16-112z"/><path d="m2400 576h16z"/><path d="m2176 576h32z"/><path d="m2176 576h-192 224z"/><path d="m2624-192h-192z"/><path d="m2208-192h-224v-16h208 16z"/><path d="m2432-192h-224v-16h208 16z"/><path d="m2624-208v16h-192v-16z"/><path d="m2368-144v-16 112z"/><path d="m2256-48h16 64 16 16-128z"/><path d="m2256-128v-16z"/><path d="m2256-144h16z"/><path d="m2256-160h112v16h-16-16-64-16z"/><path d="m2368-48h-16v-80-16h16z"/><path d="m2352-48h-16v-80h16z"/><path d="m2336-128v80h-64v-80-16h64z"/><path d="m2272-48h-16v-80h16z"/><path d="m2240-160h16v16 16 80h-16z"/><path d="m2400 424v120 32z"/><path d="m2208 576v-64-88z"/><path d="m2208 424v-40z"/><path d="m2400 424h-192v-40h192z"/><path d="m2176 592h-192v-16h192z"/><path d="m2624 576v16h-208v-16z"/><path d="m1968-80v-128h16v16 96 112h-16z"/><path d="m1984 16v112 112h-16v-96-128z"/><path d="m1984 240v112 112h-16v-96-128z"/><path d="m1984 464v112 16h-16v-128z"/><path d="m480 304v192 32-16z"/><path d="m480 80v192 32-16z"/><path d="m480-144v192 32-16z"/><path d="m480-368v192 32-16z"/><path d="m720 528h112 16-16-112-16z"/><path d="m1536 528h192 16-16-208z"/><path d="m1504-1216h-192-32z"/><path d="m1088-864v-32z"/><path d="m1472-896h-32z"/><path d="m1216-896h-128z"/><path d="m1280-1216h32v224h-224v-32z"/><path d="m1312-992v80h-96-128v-80z"/><path d="m1312-1216h192 32v224h-224z"/><path d="m1536-992v32l-48 48h-48-128v-80z"/><path d="m1536-1216h64v192l-32 32h-32z"/><path d="m1568-992-32 32v-32z"/><path d="m1440-896h-224v-16h96 128z"/><path d="m1488-912-16 16h-32v-16z"/><path d="m1088-912h128v16h-128z"/><path d="m1296-144h-224z"/><path d="m1520-144h-224z"/><path d="m1744-144v224z"/><path d="m1072 304v16 208z"/><path d="m1072 80v16 208z"/><path d="m1728 288v16 208z"/><path d="m1728 64v16 208z"/><path d="m1728 64v-192-16h16v224h-16z"/><path d="m1744 80v224h-16v-16-208z"/><path d="m1744 304v224h-16v-16-208z"/><path d="m1728-128h-192z"/><path d="m1296-128h-208-16v-16h224z"/><path d="m1520-128h-208-16v-16h224z"/><path d="m1728-144v16h-192-16v-16z"/><path d="m1088-128v192z"/><path d="m1472 256h-128z"/><path d="m1344 256v-128z"/><path d="m1472 128v128z"/><path d="m1344 128h128z"/><path d="m1312 528h-16-208v-16h224z"/><path d="m1536 528h-16-208v-16h224z"/><path d="m1728 512v16h-192v-16z"/><path d="m1312 512h-224z"/><path d="m1536 512h-224z"/><path d="m1072 80v-208h16v192 32h-16z"/><path d="m1088 96v192 32h-16v-16-208z"/><path d="m1088 320v192 16h-16v-208z"/><path d="m736-1408h16z"/><path d="m720-1408h-144z"/><path d="m576-1200v-208 224z"/><path d="m736-1184v224z"/><path d="m736-960v224z"/><path d="m736-736v224z"/><path d="m736-1408v224z"/><path d="m720-736v224z"/><path d="m720-960v224z"/><path d="m720-1184v224z"/><path d="m720-1408v224z"/><path d="m576-1200v-208h144v224h-144z"/><path d="m720-1184v224h-144v-16-208z"/><path d="m720-960v224h-144v-208-16z"/><path d="m720-736v224h-144v-224z"/><path d="m720-1408h-144v208 16h144z"/><path d="m576-1184v208 16h144v-224z"/><path d="m576-960v16 208h144v-224z"/><path d="m576-736v224h144v-224z"/><path d="m704-400h-208-16 16z"/><path d="m832 288v208 16z"/><path d="m832 64v208 16z"/><path d="m832-160v208 16z"/><path d="m832-384v-16h16v32 192h-16z"/><path d="m848-176v32 192h-16v-208-16z"/><path d="m848 48v32 192h-16v-208-16z"/><path d="m848 272v32 192h-16v-208-16z"/><path d="m848 496v32h-16v-16-16z"/><path d="m848-400v16 16z"/><path d="m496-176v-208 224z"/><path d="m720-384h-224v-16h208 16z"/><path d="m832-400v16h-112v-16z"/><path d="m832-384h-112z"/><path d="m720 512h-224z"/><path d="m720 528h-16-208v-16h224z"/><path d="m832 512v16h-112v-16z"/><path d="m480-368v-32h16v16 208h-16z"/><path d="m496-176v16 208h-16v-192-32z"/><path d="m496 48v16 208h-16v-192-32z"/><path d="m496 272v16 208h-16v-192-32z"/><path d="m496 496v16 16h-16v-32z"/><path d="m272-1168v224z"/><path d="m64-496h192 16-16-208z"/><path d="m-176-1168h-208-16z"/><path d="m48-1168h-208-16z"/><path d="m-400-720v224z"/><path d="m-400-944v224z"/><path d="m256-736v16 208z"/><path d="m256-960v16 208z"/><path d="m256-960v-192-16h16v224h-16z"/><path d="m272-944v224h-16v-16-208z"/><path d="m272-720v224h-16v-16-208z"/><path d="m-384-1152v192z"/><path d="m256-1152h-192z"/><path d="m-160-1152h-224v-16h208 16z"/><path d="m64-1152h-224v-16h208 16z"/><path d="m256-1168v16h-192v-16z"/><path d="m-160-512h-224z"/><path d="m64-512h-224z"/><path d="m-160-496h-16-208v-16h224z"/><path d="m64-496h-16-208v-16h224z"/><path d="m256-512v16h-192v-16z"/><path d="m-400-1168h16v16 192 16h-16z"/><path d="m-384-944v208 16h-16v-224z"/><path d="m-384-720v208 16h-16v-224z"/><path d="m272-352v224z"/><path d="m64 320h192 16-16-208z"/><path d="m-176-352h-208-16z"/><path d="m48-352h-208-16z"/><path d="m-400 96v224z"/><path d="m-400-128v224z"/><path d="m256 80v16 208z"/><path d="m256-144v16 208z"/><path d="m256-144v-192-16h16v224h-16z"/><path d="m272-128v224h-16v-16-208z"/><path d="m272 96v224h-16v-16-208z"/><path d="m-384-336v192z"/><path d="m-160 304h-224z"/><path d="m64 304h-224z"/><path d="m256-336h-192z"/><path d="m-160-336h-224v-16h208 16z"/><path d="m64-336h-224v-16h208 16z"/><path d="m256-352v16h-192v-16z"/><path d="m-128-80h128z"/><path d="m-128 48v-128z"/><path d="m0 48v-112-16z"/><path d="m0-80v128z"/><path d="m0 48h-128z"/><path d="m-160 320h-16-208v-16h224z"/><path d="m64 320h-16-208v-16h224z"/><path d="m256 304v16h-192v-16z"/><path d="m-400-352h16v16 192 16h-16z"/><path d="m-384-128v208 16h-16v-224z"/><path d="m-384 96v208 16h-16v-224z"/><path d="m2752-352h1.5557 14.4443z"/><path d="m2752-1248v224z"/><path d="m2768-1248h-16v224h16z"/><path d="m2752-1024v224h16v-224z"/><path d="m2752-800v224h16v-224z"/><path d="m2752-576v224h16v-224z"/><path d="m2752-1248h46.2222v208 16h-46.2222z"/><path d="m2768-576v224h46.2222v-224z"/><path d="m2768-800v224h46.2222v-208-16z"/><path d="m2768-1024v224h46.2222v-16-208z"/><path d="m2752-1024v224h-16v-224z"/><path d="m2752-800v224h-16v-224z"/><path d="m2752-576v224h-16v-224z"/><path d="m1808-448v-16z"/><path d="m1808-688v-192 16 192z"/><path d="m1808-688v16 208-96z"/><path d="m2032-896h-224z"/><path d="m2088-880h-40z"/><path d="m2032-880h-208-16v-16h224z"/><path d="m2088-896v16h-40-16v-16z"/><path d="m1824-672v24 32 152 16-192z"/><path d="m1824-464v16z"/><path d="m2088-480v-136 152z"/><path d="m2088-616v-32z"/><path d="m2088-704v24z"/><path d="m2120-704h-32z"/><path d="m2120-864h-32v-16h64v16z"/><path d="m2120-616h-32z"/><path d="m2120-648v32z"/><path d="m2088-464h-40z"/><path d="m2048-864h-120-104z"/><path d="m1824-616h40 64v64 72 16h-104z"/><path d="m1824-648h40v32h-40z"/><path d="m1824-672v-192h104v24 192h-64-40z"/><path d="m1928-480h64 16v16h-80z"/><path d="m2040-480h48v16h-40-8z"/><path d="m1928-552h64v72h-64z"/><path d="m2088-480h-48-32-16v-72-64h96z"/><path d="m2088-840v136 24 32 32h-96-64v-32-192z"/><path d="m1928-864h120 40v24h-160z"/><path d="m1864-648h64z"/><path d="m1928-648v32z"/><path d="m1992-552h-64z"/><path d="m1992-552v-64z"/><path d="m1928-616h64z"/><path d="m1824-448h-16z"/><path d="m1456 256h16-128z"/><path d="m1344 144v96 16-128z"/><path d="m1472 144v-16 128z"/><path d="m1456 144h-96-16v-16h128v16z"/><path d="m1344 128h128z"/><path d="m1472 256h-16v-16-96h16z"/><path d="m1344 240v-96h16v96z"/><path d="m1456 256h-112v-16h16 96z"/><path d="m576-512h144z"/><path d="m752-512h-16z"/><path d="m576-512v-224z"/><path d="m736-1408v224z"/><path d="m752-1408h-16v224h16z"/><path d="m736-1184v224h16v-224z"/><path d="m736-960v224h16v-224z"/><path d="m736-736v224h16v-224z"/><path d="m752-736v224h46.2222v-224z"/><path d="m752-960v224h46.2222v-208-16z"/><path d="m752-1184v224h46.2222v-16-208z"/><path d="m720-1408h16v224h-16z"/><path d="m736-1184v224h-16v-224z"/><path d="m736-960v224h-16v-224z"/><path d="m736-736v224h-16v-224z"/><path d="m720-1184v224z"/><path d="m720-960v224z"/><path d="m720-736v224z"/><path d="m0 48h-16v-16-96h16z"/><path d="m-112-80h112v16h-16-96z"/><path d="m-16 48h-96v-16h96z"/><path d="m-112-64v96 16h-16v-128h16z"/><path d="m-112-80h-16 128z"/><path d="m-128 48v-128z"/><path d="m-112 48h96 16-128z"/><path d="m2968 400h-16v-16h16z"/><path d="m2952 384h16z"/><path d="m2968 384v16z"/><path d="m2968 400h-16z"/><path d="m2952 400v-16z"/><path d="m2968 400h-16v-16h16z"/><path d="m2952 384h16z"/><path d="m2968 384v16z"/><path d="m2968 400h-16z"/><path d="m2952 400v-16z"/><path d="m2968 400h-16v-16h16z"/><path d="m2952 384h16z"/><path d="m2968 384v16z"/><path d="m2968 400h-16z"/><path d="m2952 400v-16z"/><path d="m2968 400h-16v-16h16z"/><path d="m2952 384h16z"/><path d="m2968 384v16z"/><path d="m2968 400h-16z"/><path d="m2952 400v-16z"/><path d="m2968 400h-16v-16h16z"/><path d="m2952 384h16z"/><path d="m2968 384v16z"/><path d="m2968 400h-16z"/><path d="m2952 400v-16z"/><path d="m2968 400h-16v-16h16z"/><path d="m2952 384h16z"/><path d="m2968 384v16z"/><path d="m2968 400h-16z"/><path d="m2952 400v-16z"/><path d="m2968 400h-16v-16h16z"/><path d="m2952 384h16z"/><path d="m2968 384v16z"/><path d="m2968 400h-16z"/><path d="m2952 400v-16z"/><path d="m2968 400h-16v-16h16z"/><path d="m2952 384h16z"/><path d="m2968 384v16z"/><path d="m2968 400h-16z"/><path d="m2952 400v-16z"/><path d="m2968 400h-16v-16h16z"/><path d="m2952 384h16z"/><path d="m2968 384v16z"/><path d="m2968 400h-16z"/><path d="m2952 400v-16z"/><path d="m2968 400h-16v-16h16z"/><path d="m2952 384h16z"/><path d="m2968 384v16z"/><path d="m2968 400h-16z"/><path d="m2952 400v-16z"/><path d="m2968 400h-16v-16h16z"/><path d="m2952 384h16z"/><path d="m2968 384v16z"/><path d="m2968 400h-16z"/><path d="m2952 400v-16z"/><path d="m2968 400h-16v-16h16z"/><path d="m2952 384h16z"/><path d="m2968 384v16z"/><path d="m2968 400h-16z"/><path d="m2952 400v-16z"/><path d="m2968 400h-16v-16h16z"/><path d="m2952 384h16z"/><path d="m2968 384v16z"/><path d="m2968 400h-16z"/><path d="m2952 400v-16z"/><path d="m2968 400h-16v-16h16z"/><path d="m2952 384h16z"/><path d="m2968 384v16z"/><path d="m2968 400h-16z"/><path d="m2952 400v-16z"/><path d="m2968 400h-16v-16h16z"/><path d="m2952 384h16z"/><path d="m2968 384v16z"/><path d="m2968 400h-16z"/><path d="m2952 400v-16z"/><path d="m2968 400h-16v-16h16z"/><path d="m2952 384h16z"/><path d="m2968 384v16z"/><path d="m2968 400h-16z"/><path d="m2952 400v-16z"/><path d="m2968 400h-16v-16h16z"/><path d="m2952 384h16z"/><path d="m2968 384v16z"/><path d="m2968 400h-16z"/><path d="m2952 400v-16z"/><path d="m2968 400h-16v-16h16z"/><path d="m2952 384h16z"/><path d="m2968 384v16z"/><path d="m2968 400h-16z"/><path d="m2952 400v-16z"/><path d="m2968 400h-16v-16h16z"/><path d="m2952 384h16z"/><path d="m2968 384v16z"/><path d="m2968 400h-16z"/><path d="m2952 400v-16z"/><path d="m2968 400h-16v-16h16z"/><path d="m2952 384h16z"/><path d="m2968 384v16z"/><path d="m2968 400h-16z"/><path d="m2952 400v-16z"/><path d="m2968 400h-16v-16h16z"/><path d="m2952 384h16z"/><path d="m2968 384v16z"/><path d="m2968 400h-16z"/><path d="m2952 400v-16z"/><path d="m2968 400h-16v-16h16z"/><path d="m2952 384h16z"/><path d="m2968 384v16z"/><path d="m2968 400h-16z"/><path d="m2952 400v-16z"/><path d="m2968 400h-16v-16h16z"/><path d="m2952 384h16z"/><path d="m2968 384v16z"/><path d="m2968 400h-16z"/><path d="m2952 400v-16z"/><path d="m2968 400h-16v-16h16z"/><path d="m2952 384h16z"/><path d="m2968 384v16z"/><path d="m2968 400h-16z"/><path d="m2952 400v-16z"/><path d="m2968 400h-16v-16h16z"/><path d="m2952 384h16z"/><path d="m2968 384v16z"/><path d="m2968 400h-16z"/><path d="m2952 400v-16z"/><path d="m2968 400h-16v-16h16z"/><path d="m2952 384h16z"/><path d="m2968 384v16z"/><path d="m2968 400h-16z"/><path d="m2952 400v-16z"/><path d="m2968 400h-16v-16h16z"/><path d="m2952 384h16z"/><path d="m2968 384v16z"/><path d="m2968 400h-16z"/><path d="m2952 400v-16z"/><path d="m2968 400h-16v-16h16z"/><path d="m2952 384h16z"/><path d="m2968 384v16z"/><path d="m2968 400h-16z"/><path d="m2952 400v-16z"/><path d="m2968 400h-16v-16h16z"/><path d="m2952 384h16z"/><path d="m2968 384v16z"/><path d="m2968 400h-16z"/><path d="m2952 400v-16z"/><path d="m2968 400h-16v-16h16z"/><path d="m2952 384h16z"/><path d="m2968 384v16z"/><path d="m2968 400h-16z"/><path d="m2952 400v-16z"/><path d="m2968 400h-16v-16h16z"/><path d="m2952 384h16z"/><path d="m2968 384v16z"/><path d="m2968 400h-16z"/><path d="m2952 400v-16z"/><path d="m2968 400h-16v-16h16z"/><path d="m2952 384h16z"/><path d="m2968 384v16z"/><path d="m2968 400h-16z"/><path d="m2952 400v-16z"/><path d="m2968 400h-16v-16h16z"/><path d="m2952 384h16z"/><path d="m2968 384v16z"/><path d="m2968 400h-16z"/><path d="m2952 400v-16z"/><path d="m2968 400h-16v-16h16z"/><path d="m2952 384h16z"/><path d="m2968 384v16z"/><path d="m2968 400h-16z"/><path d="m2952 400v-16z"/><path d="m2968 400h-16v-16h16z"/><path d="m2952 384h16z"/><path d="m2968 384v16z"/><path d="m2968 400h-16z"/><path d="m2952 400v-16z"/><path d="m2968 400h-16v-16h16z"/><path d="m2952 384h16z"/><path d="m2968 384v16z"/><path d="m2968 400h-16z"/><path d="m2952 400v-16z"/><path d="m2968 400h-16v-16h16z"/><path d="m2952 384h16z"/><path d="m2968 384v16z"/><path d="m2968 400h-16z"/><path d="m2952 400v-16z"/><path d="m2968 400h-16v-16h16z"/><path d="m2952 384h16z"/><path d="m2968 384v16z"/><path d="m2968 400h-16z"/><path d="m2952 400v-16z"/><path d="m2968 400h-16v-16h16z"/><path d="m2952 384h16z"/><path d="m2968 384v16z"/><path d="m2968 400h-16z"/><path d="m2952 400v-16z"/><path d="m2968 400h-16v-16h16z"/><path d="m2952 384h16z"/><path d="m2968 384v16z"/><path d="m2968 400h-16z"/><path d="m2952 400v-16z"/><path d="m2968 400h-16v-16h16z"/><path d="m2952 384h16z"/><path d="m2968 384v16z"/><path d="m2968 400h-16z"/><path d="m2952 400v-16z"/><path d="m2968 400h-16v-16h16z"/><path d="m2952 384h16z"/><path d="m2968 384v16z"/><path d="m2968 400h-16z"/><path d="m2952 400v-16z"/><path d="m2968 400h-16v-16h16z"/><path d="m2952 384h16z"/><path d="m2968 384v16z"/><path d="m2968 400h-16z"/><path d="m2952 400v-16z"/><path d="m2968 400h-16v-16h16z"/><path d="m2952 384h16z"/><path d="m2968 384v16z"/><path d="m2968 400h-16z"/><path d="m2952 400v-16z"/><path d="m2968 400h-16v-16h16z"/><path d="m2952 384h16z"/><path d="m2968 384v16z"/><path d="m2968 400h-16z"/><path d="m2952 400v-16z"/><path d="m2968 400h-16v-16h16z"/><path d="m2952 384h16z"/><path d="m2968 384v16z"/><path d="m2968 400h-16z"/><path d="m2952 400v-16z"/><path d="m2968 400h-16v-16h16z"/><path d="m2952 384h16z"/><path d="m2968 384v16z"/><path d="m2968 400h-16z"/><path d="m2952 400v-16z"/><path d="m2968 400h-16v-16h16z"/><path d="m2952 384h16z"/><path d="m2968 384v16z"/><path d="m2968 400h-16z"/><path d="m2952 400v-16z"/><path d="m2968 400h-16v-16h16z"/><path d="m2952 384h16z"/><path d="m2968 384v16z"/><path d="m2968 400h-16z"/><path d="m2952 400v-16z"/><path d="m2968 400h-16v-16h16z"/><path d="m2952 384h16z"/><path d="m2968 384v16z"/><path d="m2968 400h-16z"/><path d="m2952 400v-16z"/><path d="m2968 400h-16v-16h16z"/><path d="m2952 384h16z"/><path d="m2968 384v16z"/><path d="m2968 400h-16z"/><path d="m2952 400v-16z"/><path d="m2968 400h-16v-16h16z"/><path d="m2952 384h16z"/><path d="m2968 384v16z"/><path d="m2968 400h-16z"/><path d="m2952 400v-16z"/><path d="m2968 400h-16v-16h16z"/><path d="m2952 384h16z"/><path d="m2968 384v16z"/><path d="m2968 400h-16z"/><path d="m2952 400v-16z"/><path d="m2968 400h-16v-16h16z"/><path d="m2952 384h16z"/><path d="m2968 384v16z"/><path d="m2968 400h-16z"/><path d="m2952 400v-16z"/><path d="m2968 400h-16v-16h16z"/><path d="m2952 384h16z"/><path d="m2968 384v16z"/><path d="m2968 400h-16z"/><path d="m2952 400v-16z"/><path d="m2968 400h-16v-16h16z"/><path d="m2952 384h16z"/><path d="m2968 384v16z"/><path d="m2968 400h-16z"/><path d="m2952 400v-16z"/><path d="m2968 400h-16v-16h16z"/><path d="m2952 384h16z"/><path d="m2968 384v16z"/><path d="m2968 400h-16z"/><path d="m2952 400v-16z"/><path d="m2968 400h-16v-16h16z"/><path d="m2952 384h16z"/><path d="m2968 384v16z"/><path d="m2968 400h-16z"/><path d="m2952 400v-16z"/><path d="m2968 400h-16v-16h16z"/><path d="m2952 384h16z"/><path d="m2968 384v16z"/><path d="m2968 400h-16z"/><path d="m2952 400v-16z"/><path d="m2968 400h-16v-16h16z"/><path d="m2952 384h16z"/><path d="m2968 384v16z"/><path d="m2968 400h-16z"/><path d="m2952 400v-16z"/><path d="m2968 400h-16v-16h16z"/><path d="m2952 384h16z"/><path d="m2968 384v16z"/><path d="m2968 400h-16z"/><path d="m2952 400v-16z"/><path d="m2968 400h-16v-16h16z"/><path d="m2952 384h16z"/><path d="m2968 384v16z"/><path d="m2968 400h-16z"/><path d="m2952 400v-16z"/><path d="m2968 400h-16v-16h16z"/><path d="m2952 384h16z"/><path d="m2968 384v16z"/><path d="m2968 400h-16z"/><path d="m2952 400v-16z"/><path d="m2968 400h-16v-16h16z"/><path d="m2952 384h16z"/><path d="m2968 384v16z"/><path d="m2968 400h-16z"/><path d="m2952 400v-16z"/><path d="m2968 400h-16v-16h16z"/><path d="m2952 384h16z"/><path d="m2968 384v16z"/><path d="m2968 400h-16z"/><path d="m2952 400v-16z"/><path d="m2968 400h-16v-16h16z"/><path d="m2952 384h16z"/><path d="m2968 384v16z"/><path d="m2968 400h-16z"/><path d="m2952 400v-16z"/><path d="m2968 400h-16v-16h16z"/><path d="m2952 384h16z"/><path d="m2968 384v16z"/><path d="m2968 400h-16z"/><path d="m2952 400v-16z"/><path d="m2968 400h-16v-16h16z"/><path d="m2952 384h16z"/><path d="m2968 384v16z"/><path d="m2968 400h-16z"/><path d="m2952 400v-16z"/><path d="m2968 400h-16v-16h16z"/><path d="m2952 384h16z"/><path d="m2968 384v16z"/><path d="m2968 400h-16z"/><path d="m2952 400v-16z"/><path d="m2968 400h-16v-16h16z"/><path d="m2952 384h16z"/><path d="m2968 384v16z"/><path d="m2968 400h-16z"/><path d="m2952 400v-16z"/><path d="m2968 400h-16v-16h16z"/><path d="m2952 384h16z"/><path d="m2968 384v16z"/><path d="m2968 400h-16z"/><path d="m2952 400v-16z"/><path d="m2968 400h-16v-16h16z"/><path d="m2952 384h16z"/><path d="m2968 384v16z"/><path d="m2968 400h-16z"/><path d="m2952 400v-16z"/><path d="m2968 400h-16v-16h16z"/><path d="m2952 384h16z"/><path d="m2968 384v16z"/><path d="m2968 400h-16z"/><path d="m2952 400v-16z"/><path d="m2968 400h-16v-16h16z"/><path d="m2952 384h16z"/><path d="m2968 384v16z"/><path d="m2968 400h-16z"/><path d="m2952 400v-16z"/><path d="m2968 400h-16v-16h16z"/><path d="m2952 384h16z"/><path d="m2968 384v16z"/><path d="m2968 400h-16z"/><path d="m2952 400v-16z"/><path d="m2968 400h-16v-16h16z"/><path d="m2952 384h16z"/><path d="m2968 384v16z"/><path d="m2968 400h-16z"/><path d="m2952 400v-16z"/><path d="m2968 400h-16v-16h16z"/><path d="m2952 384h16z"/><path d="m2968 384v16z"/><path d="m2968 400h-16z"/><path d="m2952 400v-16z"/><path d="m2968 400h-16v-16h16z"/><path d="m2952 384h16z"/><path d="m2968 384v16z"/><path d="m2968 400h-16z"/><path d="m2952 400v-16z"/><path d="m2968 400h-16v-16h16z"/><path d="m2952 384h16z"/><path d="m2968 384v16z"/><path d="m2968 400h-16z"/><path d="m2952 400v-16z"/><path d="m2968 400h-16v-16h16z"/><path d="m2952 384h16z"/><path d="m2968 384v16z"/><path d="m2968 400h-16z"/><path d="m2952 400v-16z"/><path d="m2968 400h-16v-16h16z"/><path d="m2952 384h16z"/><path d="m2968 384v16z"/><path d="m2968 400h-16z"/><path d="m2952 400v-16z"/><path d="m2968 400h-16v-16h16z"/><path d="m2952 384h16z"/><path d="m2968 384v16z"/><path d="m2968 400h-16z"/><path d="m2952 400v-16z"/><path d="m2968 400h-16v-16h16z"/><path d="m2952 384h16z"/><path d="m2968 384v16z"/><path d="m2968 400h-16z"/><path d="m2952 400v-16z"/><path d="m2968 400h-16v-16h16z"/><path d="m2952 384h16z"/><path d="m2968 384v16z"/><path d="m2968 400h-16z"/><path d="m2952 400v-16z"/><path d="m2968 400h-16v-16h16z"/><path d="m2952 384h16z"/><path d="m2968 384v16z"/><path d="m2968 400h-16z"/><path d="m2952 400v-16z"/><path d="m2968 400h-16v-16h16z"/><path d="m2952 384h16z"/><path d="m2968 384v16z"/><path d="m2968 400h-16z"/><path d="m2952 400v-16z"/><path d="m2968 400h-16v-16h16z"/><path d="m2952 384h16z"/><path d="m2968 384v16z"/><path d="m2968 400h-16z"/><path d="m2952 400v-16z"/><path d="m2968 400h-16v-16h16z"/><path d="m2952 384h16z"/><path d="m2968 384v16z"/><path d="m2968 400h-16z"/><path d="m2952 400v-16z"/><path d="m2968 400h-16v-16h16z"/><path d="m2952 384h16z"/><path d="m2968 384v16z"/><path d="m2968 400h-16z"/><path d="m2952 400v-16z"/><path d="m2968 400h-16v-16h16z"/><path d="m2952 384h16z"/><path d="m2968 384v16z"/><path d="m2968 400h-16z"/><path d="m2952 400v-16z"/><path d="m2968 400h-16v-16h16z"/><path d="m2952 384h16z"/><path d="m2968 384v16z"/><path d="m2968 400h-16z"/><path d="m2952 400v-16z"/><path d="m2968 400h-16v-16h16z"/><path d="m2952 384h16z"/><path d="m2968 384v16z"/><path d="m2968 400h-16z"/><path d="m2952 400v-16z"/><path d="m2968 400h-16v-16h16z"/><path d="m2952 384h16z"/><path d="m2968 384v16z"/><path d="m2968 400h-16z"/><path d="m2952 400v-16z"/><path d="m2968 400h-16v-16h16z"/><path d="m2952 384h16z"/><path d="m2968 384v16z"/><path d="m2968 400h-16z"/><path d="m2952 400v-16z"/><path d="m2968 400h-16v-16h16z"/><path d="m2952 384h16z"/><path d="m2968 384v16z"/><path d="m2968 400h-16z"/><path d="m2952 400v-16z"/><path d="m2968 400h-16v-16h16z"/><path d="m2952 384h16z"/><path d="m2968 384v16z"/><path d="m2968 400h-16z"/><path d="m2952 400v-16z"/><path d="m2968 400h-16v-16h16z"/><path d="m2952 384h16z"/><path d="m2968 384v16z"/><path d="m2968 400h-16z"/><path d="m2952 400v-16z"/><path d="m2968 400h-16v-16h16z"/><path d="m2952 384h16z"/><path d="m2968 384v16z"/><path d="m2968 400h-16z"/><path d="m2952 400v-16z"/><path d="m2968 400h-16v-16h16z"/><path d="m2952 384h16z"/><path d="m2968 384v16z"/><path d="m2968 400h-16z"/><path d="m2952 400v-16z"/><path d="m2968 400h-16v-16h16z"/><path d="m2952 384h16z"/><path d="m2968 384v16z"/><path d="m2968 400h-16z"/><path d="m2952 400v-16z"/><path d="m2968 400h-16v-16h16z"/><path d="m2952 384h16z"/><path d="m2968 384v16z"/><path d="m2968 400h-16z"/><path d="m2952 400v-16z"/><path d="m2968 400h-16v-16h16z"/><path d="m2952 384h16z"/><path d="m2968 384v16z"/><path d="m2968 400h-16z"/><path d="m2952 400v-16z"/><path d="m2968 400h-16v-16h16z"/><path d="m2952 384h16z"/><path d="m2968 384v16z"/><path d="m2968 400h-16z"/><path d="m2952 400v-16z"/><path d="m2968 400h-16v-16h16z"/><path d="m2952 384h16z"/><path d="m2968 384v16z"/><path d="m2968 400h-16z"/><path d="m2952 400v-16z"/><path d="m2968 400h-16v-16h16z"/><path d="m2952 384h16z"/><path d="m2968 384v16z"/><path d="m2968 400h-16z"/><path d="m2952 400v-16z"/><path d="m1808-672v32 192-16z"/><path d="m1808-880h16z"/><path d="m2048-880h-224 208z"/><path d="m1824-864v192z"/><path d="m2088-680v-24h32 32 32 16v24z"/><path d="m2088-864h-40z"/><path d="m2048-864h-224v-16h224z"/><path d="m2088-880v16h-40v-16z"/><path d="m1824-448h-16z"/><path d="m1824-864h-16v-16h16z"/><path d="m1808-672v-192h16v192 32h-16z"/><path d="m1824-640v192h-16v-192z"/><path d="m2416 576h-16z"/><path d="m2208 576h-16-16z"/><path d="m2400 576v-152z"/><path d="m2208 424v152z"/><path d="m2088-648v32z"/><path d="m2088-648h32z"/><path d="m2088-616h32z"/><path d="m2120-616v-32z"/><path d="m624-208v32z"/><path d="m624-176h32z"/><path d="m656-208h-32z"/><path d="m656-176v-32z"/><path d="m752 400v-32z"/><path d="m720 368h32z"/><path d="m752 400h-32z"/><path d="m720 400v-32z"/><path d="m752-1408h30.2222v208 16h-46.2222v-224z"/><path d="m3536-624-64 64z"/><path d="m3536-496-64-64z"/><path d="m3600-560-64 64z"/><path d="m3536-624 64 64z"/><path d="m3376-784-64 64z"/><path d="m3312-624 64 64z"/><path d="m3360-608v-128z"/><path d="m3488-608h-128z"/><path d="m3472-784 64 64z"/><path d="m3472-784 64-64z"/><path d="m3600-784-64 64z"/><path d="m3536-848 64 64z"/><path d="m3488-736h-128z"/><path d="m3488-608v-128z"/><path d="m3376-560-64 64z"/><path d="m3312-496-64-64z"/><path d="m3248-560 64-64z"/><path d="m3248-784 64-64z"/><path d="m3248-784 64 64z"/><path d="m3312-848 64 64z"/><path d="m1120-416h64v-16h-64z"/><path d="m1120-432v16z"/><path d="m1184-432h16z"/><path d="m1184-416v-16z"/><path d="m1200-416h-16z"/><path d="m1200-432v16z"/><path d="m1104-432h16z"/><path d="m1120-416h-16z"/><path d="m1104-416v-16z"/><path d="m528 496h112v-16h-112z"/><path d="m528 480h112 16-144z"/><path d="m512 480h16z"/><path d="m656 480h-16z"/><path d="m656 496v-16z"/><path d="m528 496v-16z"/><path d="m640 496v-16z"/><path d="m640 496h16z"/><path d="m512 496v-16z"/><path d="m512 496h16z"/><path d="m2872 472h136v-208h-136z"/><path d="m2872 264h136z"/><path d="m2872 472v-208z"/><path d="m2208 424h192z"/><path d="m1664-64v128z"/><path d="m1536 64h-32z"/><path d="m1504 64h-224 96z"/><path d="m1376-64h-224z"/><path d="m1600-64h-224z"/><path d="m1664-64h-64z"/><path d="m1536 64v64 112 16-128z"/><path d="m1280 112v-48 64z"/><path d="m3016 256v224z"/><path d="m1864-648h64z"/><path d="m1928-584v32-64z"/><path d="m1992-552h-64v-32-32h64z"/><path d="m1928-584h-64z"/><path d="m1864-616v32h64v-32z"/><path d="m1864-616v-32 64z"/><path d="m1864-648v32z"/><path d="m1864-616h64z"/><path d="m2864 480v-224z"/><path d="m2864 256h152z"/><path d="m2864 480v-224h152v224z"/><path d="m2336-128v-16z"/><path d="m2272-128h-16z"/><path d="m2272-144v16h64v-16z"/><path d="m2272-144v16z"/><path d="m1200-432v16z"/><path d="m1104-416v-16z"/><path d="m1104-432h16 64 16z"/><path d="m1200-416h-96v-16h96z"/><path d="m1200-416h-16-64-16z"/><path d="m1360 144h96z"/><path d="m1344 128v16h16 96 16v-16z"/><path d="m1456 144v96z"/><path d="m1456 240v16h16v-112h-16z"/><path d="m1456 240h-96z"/><path d="m1344 144v96h16v-96z"/><path d="m1360 240v-96z"/><path d="m1360 240h-16v16h112v-16z"/><path d="m656 496h-144v-16h144z"/><path d="m656 480v16z"/><path d="m512 496v-16z"/><path d="m656 496h-16-112-16z"/><path d="m32-1040h-16-208v16h208 16z"/><path d="m64-1024v-16h-32v16z"/><path d="m32-1040h32 16-64z"/><path d="m16-1024h-208-16z"/><path d="m-192-1040v16z"/><path d="m80-1024h-16z"/><path d="m64-1024v-16z"/><path d="m80-1040v16z"/><path d="m80-1040h-16z"/><path d="m-192-1024h-16z"/><path d="m-208-1024v-16z"/><path d="m-192-1040h-16z"/><path d="m-112-64h96 16v-16h-112z"/><path d="m0 32v-96h-16v96z"/><path d="m-16 32h-96v16h112v-16z"/><path d="m-112 32v-96-16h-16v128h16z"/><path d="m-112-64h96z"/><path d="m-16-64v96z"/><path d="m-112 32v-96z"/><path d="m-16 32h-96z"/><path d="m2308-464v64z"/><path d="m2308-468v4z"/><path d="m2308-400v-64h-80v64z"/><path d="m2308-464v-4h-64-16v4z"/><path d="m2228-464v-4z"/><path d="m2244-468h64-16z"/><path d="m2308-392v-8h-80v8z"/><path d="m2228-392v-8z"/><path d="m1536 256h128-40-16-16-16z"/><path d="m1664 128v112-96z"/><path d="m1664-64v128z"/><path d="m1152 128v-16z"/><path d="m1152 112v-48z"/><path d="m1152 64v-128z"/><path d="m1536 64h-32z"/><path d="m1376-64h-224z"/><path d="m1600-64h-224z"/><path d="m1376 64h-96-128v-128h224z"/><path d="m1600 64h-64-32-128v-128h224z"/><path d="m1664-64v128h-64v-128z"/><path d="m1536 128v-64h64 64v64z"/><path d="m1232 128h-32v-16h32z"/><path d="m1280 112h-48-32-48v-48h128z"/><path d="m1280 128h-48v-16h48z"/><path d="m1200 128h-48v-16h48z"/><path d="m1200 128h-48z"/><path d="m1280 128h-48z"/><path d="m1232 128h-32z"/><path d="m1280 64v48z"/><path d="m1280 112v16z"/><path d="m2256-144h16 64z"/><path d="m2336-144h16z"/><path d="m2352-128h-16z"/><path d="m2352-128h-16v-16h16z"/><path d="m2352-144v16z"/><path d="m2336-128h-64z"/><path d="m2336-144v16h-64-16v-16z"/><path d="m1472 256h-16-112z"/><path d="m1344 256v-16-96-16z"/><path d="m1472 128v16 112z"/><path d="m1344 128h128z"/><path d="m16-1024h-224v-16h224z"/><path d="m80-1040v16h-64v-16z"/><path d="m80-1040v16z"/><path d="m-208-1024v-16z"/><path d="m16-1040h-224 16z"/><path d="m80-1024h-16-32-16z"/><path d="m-128-80h16 112z"/><path d="m-128 48v-128z"/><path d="m0-80v16 96 16z"/><path d="m0 48h-112-16z"/><path d="m2308-468v4z"/><path d="m2308-464v64z"/><path d="m2244-464v64z"/><path d="m2244-468v4z"/><path d="m2244-464h48v64h-48z"/><path d="m2244-468h48v4h-48z"/><path d="m2292-464v-4z"/><path d="m2292-400v-64z"/><path d="m2244-468h-16z"/><path d="m1664 256h-128z"/><path d="m1664 240v16z"/><path d="m1536 256v-16z"/><path d="m1536 240v-112 16z"/><path d="m1664 256h-128v-16h128z"/><path d="m1664 240h-128v-96h128z"/><path d="m1536 144v-16h128v16z"/><path d="m1024-1024v160 32z"/><path d="m1024-608v224-64-32z"/><path d="m1024-832v224-32z"/><path d="m1664-1280h-64-96z"/><path d="m1504-1280h-224z"/><path d="m1664-1280v32z"/><path d="m1664-1248v224-32z"/><path d="m1024-384h32z"/><path d="m1056-384h32z"/><path d="m1280-384h-64z"/><path d="m1280-1280-32 32z"/><path d="m1248-1248-224 224 64-64z"/><path d="m1600-1216h-64-32z"/><path d="m1504-1216h-224z"/><path d="m1088-608v128 96-32z"/><path d="m1088-832v128 96-32z"/><path d="m1088-1024v32 80 16 32z"/><path d="m1088-704v-128-32z"/><path d="m1088-480v32 16 16 32z"/><path d="m1280-1216-192 192z"/><path d="m1472-896 16-16 48-48 32-32 32-32z"/><path d="m1664-1024-64 64-64 64-32 32z"/><path d="m1600-1024v-192z"/><path d="m1440-896h-224z"/><path d="m1472-896h-32z"/><path d="m1216-896v32z"/><path d="m1280-608v224-64z"/><path d="m1280-832v160 64z"/><path d="m1504-864-32 32z"/><path d="m1216-608v224-48-16-32z"/><path d="m2416 592h-224-16z"/><path d="m2416 576v16z"/><path d="m2176 592v-16z"/><path d="m1864-648h64z"/><path d="m1928-648v64z"/><path d="m1928-648v32 32z"/><path d="m1928-584h-64z"/><path d="m1864-584v-64z"/><path d="m1024-608v192 32z"/><path d="m1024-832v192 32z"/><path d="m1504-1280h-224z"/><path d="m1664-1280v32z"/><path d="m1216-832v-32-32h64v64 160h-64z"/><path d="m1280-672v64 160h-64v-160-64z"/><path d="m1280-448v64h-64v-64z"/><path d="m1024-1024 64-64v32 32 80 80h-64z"/><path d="m1088-864v32 192h-64v-192-32z"/><path d="m1088-640v32 192h-64v-192-32z"/><path d="m1088-416v32h-64v-32z"/><path d="m1248-1248 32-32v64l-160 160h-32v-32z"/><path d="m1120-1056-32 32v-32z"/><path d="m1280-896h160 32 32v32l-32 32h-192z"/><path d="m1504-896h32l-32 32z"/><path d="m1600-960-64 64h-32-32l128-128z"/><path d="m1504-1216h-224v-64h224z"/><path d="m1600-1280v64h-96v-64z"/><path d="m1600-1056v-160-64h64v32 192z"/><path d="m1664-1024-64 64v-64-32h64z"/><path d="m1088-384h-32-32z"/><path d="m1280-384h-64z"/><path d="m1248-1248-160 160-64 64z"/><path d="m1600-1216h-96z"/><path d="m1088-864v-80-80 160 32z"/><path d="m1120-1056 160-160-192 192z"/><path d="m1472-896 128-128z"/><path d="m1536-896 64-64 64-64-160 160z"/><path d="m1600-1056v32-192z"/><path d="m1440-896h-160-64z"/><path d="m1280-672v-160 224z"/><path d="m1472-832h-192z"/><path d="m1216-608v160 64z"/><path d="m1216-832v160 64z"/><path d="m1216-864v32z"/><path d="m2592-816v-224 16z"/><path d="m2798.2222-1248h-46.2222-16-144 217.7778z"/><path d="m2814.2222-800v16h1.7778v-32h-1.7778z"/><path d="m2592-816v32h206.2222v-16-16z"/><path d="m2814.2222-816h1.7778z"/><path d="m2814.2222-1040v16 208h1.7778 4 4v-224z"/><path d="m2798.2222-1248h11.5556v208h-11.5556z"/><path d="m2798.2222-784h-206.2222 212z"/><path d="m2798.2222-784h5.7778 5.7778v208h-11.5556z"/><path d="m2798.2222-576v224h-46.2222v-224z"/><path d="m2798.2222-800v16 208h-46.2222v-224z"/><path d="m2798.2222-1024v208 16h-46.2222v-224z"/><path d="m2814.2222-1040v-208h-46.2222v224h46.2222z"/><path d="m1864-584v-64h64v64z"/><path d="m1472 256h-128z"/><path d="m1344 128v16 96 16z"/><path d="m1344 256v-128z"/><path d="m1472 128v128z"/><path d="m1344 128h128z"/><path d="m782.2222-512h11.5556-41.7778z"/><path d="m576-944v-32 16z"/><path d="m576-976v-224 16z"/><path d="m782.2222-944v-16-16h-206.2222v32z"/><path d="m798.2222-960v16h1.7778v-32h-1.7778z"/><path d="m782.2222-976h5.7778-212z"/><path d="m798.2222-976h1.7778z"/><path d="m798.2222-1200v16 208h1.7778 4 4v-224z"/><path d="m782.2222-1408h11.5556v208h-11.5556z"/><path d="m782.2222-736v224h-30.2222-16v-224z"/><path d="m782.2222-960v16 208h-46.2222v-224z"/><path d="m782.2222-1184v208 16h-46.2222v-224z"/><path d="m798.2222-1200v-208h-46.2222v224h46.2222z"/><path d="m-128-80h128z"/><path d="m-128-80v128z"/><path d="m-128 48v-128z"/><path d="m0-80v128z"/><path d="m0 48h-128z"/><path d="m2816-784h-1.7778z"/><path d="m2816-816v32z"/><path d="m800-944h-1.7778z"/><path d="m800-976v32z"/><path d="m2824-352h-9.7778-46.2222-14.4443-2.889 65.3333z"/><path d="m2824-1248h104z"/><path d="m2928-1248v-16z"/><path d="m2820-816h4z"/><path d="m2592-816h206.2222 5.7778z"/><path d="m2824-1248v208z"/><path d="m2928-1040v16 208-176-32z"/><path d="m2928-1040v-208h-104v208 16h104z"/><path d="m2824-1024v208h104v-208z"/><path d="m2928-576v16 208-208z"/><path d="m2824-784h-4z"/><path d="m2824-784h104v-32h-104-4v32z"/><path d="m2820-784v-32h-4v32z"/><path d="m2824-784v208z"/><path d="m2928-560v-16-208h-104v208 16z"/><path d="m2824-352h104v-208h-104z"/><path d="m1456 256h16-128z"/><path d="m1472 144v-16 128z"/><path d="m1456 144h-96-16v-16h128v16z"/><path d="m1344 128h128z"/><path d="m1456 256h-112v-16h16 96z"/><path d="m1344 240v-96h16v96z"/><path d="m1472 256h-16v-16-96h16z"/><path d="m804-512h4z"/><path d="m808-1408h-4z"/><path d="m912-1408v-16z"/><path d="m788-976h5.7778 11.5555-5.3333-224z"/><path d="m804-976h4z"/><path d="m808-1408v208z"/><path d="m912-1200v16 208-176-32z"/><path d="m912-1200v-208h-104v208 16h104z"/><path d="m808-1184v208h104v-208z"/><path d="m912-736v16 208-208z"/><path d="m808-944h-4z"/><path d="m788-944h-5.7778-206.2222z"/><path d="m804-944h4 104v-32h-104-4z"/><path d="m804-944v-32h-4v32z"/><path d="m808-944v208z"/><path d="m912-720v-16-208h-104v208 16z"/><path d="m808-512h104v-208h-104z"/><path d="m788-944h5.7778v208h-11.5556v-208z"/><path d="m804-512h4v-224h-9.7778v224z"/><path d="m-112-80h112v16h-16-96z"/><path d="m-16 48h-96v-16h96z"/><path d="m0 48h-16v-16-96h16z"/><path d="m-128-80h16v16 96 16h-16z"/><path d="m-112-80h-16 128z"/><path d="m0-64v-16 128z"/><path d="m-112 48h96 16-128z"/><path d="m2824-1040v224-208z"/><path d="m2824-1248h-9.7778v208h9.7778z"/><path d="m2824-576v224-208z"/><path d="m2824-352v-224h-9.7778v224z"/><path d="m2824-576v-208h-4-4-1.7778v208z"/><path d="m808-1200v224-208z"/><path d="m808-1408h-4-5.7778v208h9.7778z"/><path d="m808-736v224-208z"/><path d="m808-736v-208h-4-4-1.7778v208z"/><path d="m2944-576v224-208z"/><path d="m2944-800v208 16-208z"/><path d="m2944-1024v208 16-16z"/><path d="m2824-352h104-112z"/><path d="m2592-352v-224z"/><path d="m2816-1248h-6.2222-217.7778z"/><path d="m2809.7778-816h11.5555-5.3333-224 212z"/><path d="m2824-816h104-106.6667-11.5555z"/><path d="m2928-1216v-16-16 208z"/><path d="m2928-1216v-16-16 208z"/><path d="m2944-1248h-16v16 16 176 16h16z"/><path d="m2928-1024v32 176h16v-208z"/><path d="m2824-1024v-192h16 16 48 16 8v176 16 32h-104z"/><path d="m2928-992v176h-104v-176z"/><path d="m2824-1216v-16h16v16z"/><path d="m2840-1232h-16v-16h32v16z"/><path d="m2856-1232v-16h48v16 16h-48z"/><path d="m2904-1248h24v16h-8-16z"/><path d="m2920-1216v-16h8v16z"/><path d="m2809.7778-1024v-16-208h6.2222 8v16 16 192z"/><path d="m2824-992v176h-14.2222v-208h14.2222z"/><path d="m2809.7778-1040v16 208h-5.7778-5.7778v-208-16z"/><path d="m2928-816v32z"/><path d="m2928-592v-192 208z"/><path d="m2928-592v-192 208z"/><path d="m2928-816v32 192h16v-208-16z"/><path d="m2928-592v16 16 208h16v-224-16z"/><path d="m2824-560v-224h104v192 16 16z"/><path d="m2928-352h-104v-208h104z"/><path d="m2809.7778-560v-16-208h14.2222v224z"/><path d="m2824-352h-8-6.2222v-208h14.2222z"/><path d="m2809.7778-576v16 208h-11.5556v-224z"/><path d="m2928-352v16z"/><path d="m928-736v224-208z"/><path d="m928-960v208 16-208z"/><path d="m928-1184v208 16-16z"/><path d="m752-512h-176 144 16z"/><path d="m793.7778-512h14.2222 104-112-48z"/><path d="m752-1408h41.7778-11.5556z"/><path d="m808-976h104-106.6667-11.5555z"/><path d="m912-1376v-16-16 208z"/><path d="m912-1376v-16-16 208z"/><path d="m928-1408h-16v16 16 176 16h16z"/><path d="m912-1184v32 176h16v-208z"/><path d="m896-1392h16v16h-16z"/><path d="m912-1408v16h-16-16v-16z"/><path d="m832-1392v-16h48v16 16h-48z"/><path d="m808-1376v-16h8v16z"/><path d="m816-1392h-8v-16h24v16z"/><path d="m808-1152v-32-192h8 16 48 16 16v176 16 32z"/><path d="m808-976v-176h104v176z"/><path d="m793.7778-1200v-208h14.2222v16 16 192h-14.2222z"/><path d="m808-1184v32 176h-14.2222v-208z"/><path d="m793.7778-1200v16 208h-5.7778-5.7778v-208-16z"/><path d="m912-976v32z"/><path d="m912-752v-192 208z"/><path d="m912-752v-192 208z"/><path d="m912-976v32 192h16v-208-16z"/><path d="m912-752v16 16 208h16v-224-16z"/><path d="m808-720v-224h104v192 16 16z"/><path d="m912-512h-104v-208h104z"/><path d="m793.7778-720v-16-208h14.2222v224z"/><path d="m808-512h-14.2222v-208h14.2222z"/><path d="m793.7778-736v16 208h-11.5556v-224z"/><path d="m2816-1264h112 16-16-112-16z"/><path d="m2816-1264h-16-208z"/><path d="m2576-576v16 208z"/><path d="m2576-800v16 208z"/><path d="m2576-1024v16 208z"/><path d="m2576-1248v-16 32z"/><path d="m2928-336h-112z"/><path d="m2800-336h-208-16z"/><path d="m2944-1040v16 208-208z"/><path d="m2944-1040v-208 224z"/><path d="m2944-560v208 16-16z"/><path d="m2576-352h16z"/><path d="m2928-352h-112z"/><path d="m2944-352h-16z"/><path d="m2816-352h-224 217.7778z"/><path d="m2592-1264v16z"/><path d="m2592-1040v224z"/><path d="m2592-1040v-208z"/><path d="m2592-576v-208z"/><path d="m2592-576v224z"/><path d="m2928-1248h-24-48-32-8z"/><path d="m2928-1248h16z"/><path d="m2816-1248h-224z"/><path d="m2928-1264v16h16v-16z"/><path d="m2821.3333-816h106.6667-112z"/><path d="m2928-1248v208z"/><path d="m2928-1040v224-176-32z"/><path d="m2928-576v224-208z"/><path d="m2928-784v208z"/><path d="m2592-784h224 5.3333-11.5555-5.7778z"/><path d="m2816-784h-224z"/><path d="m2928-784h-104-14.2222 11.5555z"/><path d="m2576-1264v16h16v-16z"/><path d="m2928-352v16h16v-16z"/><path d="m2576-352v16h16v-16z"/><path d="m800-1424h-16-208z"/><path d="m800-1424h112 16-16-128z"/><path d="m1152 448h128z"/><path d="m1152 320v128z"/><path d="m784-496h-208-16z"/><path d="m912-496h-112z"/><path d="m928-720v208 16-16z"/><path d="m928-1200v-208 224z"/><path d="m928-1200v16 208-208z"/><path d="m560-736v16 208z"/><path d="m560-960v16 208z"/><path d="m560-1184v16 208z"/><path d="m560-1408v-16 16 16z"/><path d="m912-512h-112z"/><path d="m928-512h-16z"/><path d="m912-1408h16z"/><path d="m800-1408h-48-176 208z"/><path d="m800-1408h112-32-48-24-14.2222-41.7778z"/><path d="m576-1408h176-16-16z"/><path d="m912-1424v16h16v-16z"/><path d="m560-1424v16h16v-16z"/><path d="m576-736v224z"/><path d="m576-736v-208z"/><path d="m576-1200v224-208z"/><path d="m576-1200v-208z"/><path d="m805.3333-976h106.6667-112z"/><path d="m912-1408v208z"/><path d="m912-1200v224-176-32z"/><path d="m912-736v224-208z"/><path d="m912-944v208z"/><path d="m912-944h-104-14.2222 11.5555z"/><path d="m800-944h5.3333-11.5555-5.7778-212z"/><path d="m800-944h-224z"/><path d="m560-512v16h16v-16z"/><path d="m912-512v16h16v-16z"/><path d="m2244-400h48z"/><path d="m2292-468h16z"/><path d="m2244-464v64h48v-64z"/><path d="m2244-468v4h48v-4z"/><path d="m2244-468h48z"/><path d="m2008-480v16z"/><path d="m2040-480h-32z"/><path d="m2800-1264h-208-16 16z"/><path d="m2576-560v208 16-16z"/><path d="m2576-784v192 32-16z"/><path d="m2576-1008v192 32-16z"/><path d="m2576-1232v192 32-16z"/><path d="m2944-336h-16-112-16z"/><path d="m2944-1248v-16 16 208z"/><path d="m2944-816v16 16z"/><path d="m2944-784v208 16z"/><path d="m2816-352h-16-208z"/><path d="m2592-1248v208z"/><path d="m2592-592v-192 208z"/><path d="m2928-1248h-112z"/><path d="m2928-1264h16v16h-16z"/><path d="m2816-1248h-224v-16h208 16z"/><path d="m2928-1264v16h-112v-16z"/><path d="m2816-816h-224z"/><path d="m2928-1040v16 208z"/><path d="m2944-1248v208 16h-16v-16-208z"/><path d="m2944-1024v208h-16v-208z"/><path d="m2928-560v-16-208h16v224z"/><path d="m2944-352h-16v-208h16z"/><path d="m2816-784h-224v-32h224z"/><path d="m2928-816h16v32h-16-112v-32z"/><path d="m2928-576v16 208z"/><path d="m2928-784h-106.6667-5.3333z"/><path d="m2576-1232v-32h16v16 208h-16z"/><path d="m2592-1040v224h-16v-192-32z"/><path d="m2592-816v32 192h-16v-192-32z"/><path d="m2592-592v16 224h-16v-208-32z"/><path d="m2800-336h-224v-16h16 208z"/><path d="m2816-352h112 16v16h-144v-16z"/><path d="m784-1424h-224 16z"/><path d="m1344 128v16h16 96 16v-16z"/><path d="m1360 240h-16v16h112v-16z"/><path d="m1344 144v96h16v-96z"/><path d="m1456 240v16h16v-112h-16z"/><path d="m1280 448h-128v-128h128z"/><path d="m1360 144h96z"/><path d="m1360 240v-96z"/><path d="m1456 144v96z"/><path d="m1456 240h-96z"/><path d="m1280 448h-128z"/><path d="m1152 448v-128z"/><path d="m1152 320h128z"/><path d="m1280 320v128z"/><path d="m928-496h-16-112-16z"/><path d="m928-944v208 16z"/><path d="m928-976v16 16z"/><path d="m928-1408v-16 16 208z"/><path d="m560-720v208 16-16z"/><path d="m560-944v208 16-16z"/><path d="m560-1168v208 16-16z"/><path d="m560-1392v208 16-16z"/><path d="m800-512h-16-208 176z"/><path d="m912-1408h-112z"/><path d="m912-1424h16v16h-16z"/><path d="m784-1408h-208-16v-16h224z"/><path d="m912-1424v16h-112-16v-16z"/><path d="m576-944v208z"/><path d="m576-1408v208z"/><path d="m800-976h-224z"/><path d="m912-1200v16 208z"/><path d="m928-1408v208 16h-16v-16-208z"/><path d="m928-1184v208h-16v-208z"/><path d="m800-944h-224v-16-16h224z"/><path d="m912-976h16v32h-16-112v-32z"/><path d="m912-720v-16-208h16v224z"/><path d="m928-512h-16v-208h16z"/><path d="m912-736v16 208z"/><path d="m912-944h-106.6667-5.3333z"/><path d="m560-1392v-16h16v208 16h-16z"/><path d="m576-1184v208 16h-16v-208-16z"/><path d="m576-960v16 208h-16v-208-16z"/><path d="m576-736v224h-16v-208-16z"/><path d="m784-496h-224v-16h16 208z"/><path d="m800-512h112 16v16h-144v-16z"/><path d="m-112 32v-96z"/><path d="m-112-64h96z"/><path d="m-112-64h96 16v-16h-112z"/><path d="m-16 32h-96z"/><path d="m0 32v-96h-16v96z"/><path d="m-16-64v96z"/><path d="m-16 32h-96v16h112v-16z"/><path d="m-112 32v-96-16h-16v128h16z"/><path d="m2228-464v64z"/><path d="m2244-468h48 16v4h-80v-4z"/><path d="m2308-464v64h-80v-64z"/><path d="m2308-400v8h-80v-8z"/><path d="m2308-392v-8z"/><path d="m2308-392h-80z"/><path d="m2920-1216h-16z"/><path d="m2856-1216h-16z"/><path d="m2840-1232v16z"/><path d="m2920-1216v-16z"/><path d="m2856-1216h48v-16h-48z"/><path d="m2856-1232h48 16-80z"/><path d="m2904-1216v-16z"/><path d="m2920-1232h-16z"/><path d="m2856-1216v-16z"/><path d="m2856-1232h-16z"/><path d="m2120-648h-32z"/><path d="m2288-648h-168z"/><path d="m2248-616h40v-32h-168v32z"/><path d="m2248-616v200z"/><path d="m2288-616h-40v200h40z"/><path d="m1344 128h128z"/><path d="m1344 256v-16-96-16z"/><path d="m1472 128v16 112z"/><path d="m1472 256h-16-112z"/><path d="m896-1376h-16z"/><path d="m832-1376h-16z"/><path d="m896-1376v-16z"/><path d="m816-1392v16z"/><path d="m832-1376h48v-16h-48z"/><path d="m832-1392h48 16-80z"/><path d="m880-1392v16z"/><path d="m896-1392h-16z"/><path d="m832-1392v16z"/><path d="m832-1392h-16z"/><path d="m-128-80h16 112z"/><path d="m-128 48v-128z"/><path d="m0-80v16 96 16z"/><path d="m0 48h-112-16z"/><path d="m2008-464h32z"/><path d="m2008-480v-56 27.5z"/><path d="m2040-464v-16z"/><path d="m2008-480h32z"/><path d="m2008-464v-16h32v16z"/><path d="m2008-536h32z"/><path d="m2040-536v56-28.5z"/><path d="m2008-480v-28.5h32v28.5z"/><path d="m2008-536v56h32v-56z"/><path d="m2920-1232v16h-80v-16z"/><path d="m2920-1216h-16-48-16z"/><path d="m2840-1216v-16z"/><path d="m896-1392v16h-80v-16z"/><path d="m896-1376h-16-48-16z"/><path d="m816-1376v-16z"/><path d="m2400 424v-40z"/><path d="m2400 384v40 152h16v-208h-16z"/><path d="m2416 576v-208z"/><path d="m2208 368h192-192-16z"/><path d="m2208 384v40z"/><path d="m2400 424h-192z"/><path d="m2208 368v16h192v-16z"/><path d="m2192 576h16v-152-40-16h-16z"/><path d="m2176 576v16z"/><path d="m2288-616h-40-128v-32h168z"/><path d="m2288-416h-40v-200h40z"/><path d="m2040-508.5h-32v-27.5h32z"/><path d="m2120-616h-32v-32h32z"/><path d="m2248-616h-128z"/><path d="m2288-648v32z"/><path d="m2288-416h-40z"/><path d="m2288-616v200z"/><path d="m1344 128h128z"/><path d="m1344 256v-128z"/><path d="m1472 128v128z"/><path d="m1472 256h-128z"/><path d="m688 368v32h32v-32z"/><path d="m672 336v96h16v-32-32-32z"/><path d="m688 336v32h32 32v-32z"/><path d="m720 400h-32v32h64v-32z"/><path d="m592-208v32h32v-32z"/><path d="m656-176v32h32v-64h-32z"/><path d="m688-240v32 64h16v-96z"/><path d="m704-128v-16h-16-32-64-16v16z"/><path d="m576-256v16h16 96 16v-16z"/><path d="m576-240v96h16v-32-32-32z"/><path d="m592-240v32h32 32 32v-32z"/><path d="m624-176h-32v32h64v-32z"/><path d="m784 336v96h16v-96z"/><path d="m800 448v-16h-16-32-64-16v16z"/><path d="m688 336h64 32 16v-16h-128v16z"/><path d="m784 336h-32v32 32 32h32z"/><path d="m800 320h-128z"/><path d="m752 368h-32z"/><path d="m720 400h32z"/><path d="m720 368v32z"/><path d="m-128-80h128z"/><path d="m-128 48v-128z"/><path d="m0-80v128z"/><path d="m0 48h-128z"/><path d="m2400 576h16z"/><path d="m2176 576h16z"/><path d="m2400 576v-152z"/><path d="m2400 368h16z"/><path d="m2416 576h-16v-152-40-16h16z"/><path d="m2192 576v-208z"/><path d="m2400 384h-192v-16h192z"/><path d="m2400 384h-192z"/><path d="m2208 384v40 152h-16v-208h16z"/><path d="m3536-624-64 64z"/><path d="m3536-496-64-64z"/><path d="m3600-560-64 64z"/><path d="m3536-624 64 64z"/><path d="m3376-784-64 64z"/><path d="m3312-624 64 64z"/><path d="m3360-608v-128z"/><path d="m3488-608h-128z"/><path d="m3472-784 64 64z"/><path d="m3472-784 64-64z"/><path d="m3600-784-64 64z"/><path d="m3536-848 64 64z"/><path d="m3488-736h-128z"/><path d="m3488-608v-128z"/><path d="m3376-560-64 64z"/><path d="m3312-496-64-64z"/><path d="m3248-560 64-64z"/><path d="m3248-784 64-64z"/><path d="m3248-784 64 64z"/><path d="m3312-848 64 64z"/><path d="m1472 256h-128v-128h128z"/><path d="m1344 128h128z"/><path d="m1344 256v-128z"/><path d="m1472 128v128z"/><path d="m1472 256h-128z"/><path d="m704-128h-128z"/><path d="m704-240v96z"/><path d="m704-256v16z"/><path d="m704-144v16z"/><path d="m704-144h-16v-96h16z"/><path d="m592-144h96 16v16h-128v-16z"/><path d="m704-240h-16-96-16v-16h128z"/><path d="m592-144h-16v-96h16z"/><path d="m688-144h-96v-96h96z"/><path d="m576-256h128z"/><path d="m576-128v-16z"/><path d="m576-240v-16z"/><path d="m576-144v-96z"/><path d="m672 432v-96z"/><path d="m672 336v-16z"/><path d="m672 448v-16z"/><path d="m800 432h-16v-96h16z"/><path d="m688 432h96 16v16h-128v-16z"/><path d="m800 320v16h-16-96-16v-16z"/><path d="m784 336v96h-96v-96z"/><path d="m688 432h-16v-96h16z"/><path d="m800 448h-128z"/><path d="m800 336v96z"/><path d="m800 320v16z"/><path d="m800 432v16z"/><path d="m0-80v128h-128v-128z"/><path d="m-128-80h128z"/><path d="m-128 48v-128z"/><path d="m0-80v128z"/><path d="m0 48h-128z"/><path d="m2192 576h-16 16 16z"/><path d="m2400 384v40 152h16v-208h-16z"/><path d="m2208 368v16h192v-16z"/><path d="m2192 576h16v-152-40-16h-16z"/><path d="m2416 576v-208z"/><path d="m2208 368h192-192-16z"/><path d="m2208 424v16-56z"/><path d="m2208 424v152z"/><path d="m2416 576h-16z"/><path d="m2176 576h16z"/><path d="m2400 440v-16-40z"/><path d="m2400 368h16z"/><path d="m2416 576h-16v-136-56-16h16z"/><path d="m2192 576v-208z"/><path d="m2400 384h-192z"/><path d="m2400 384h-192v-16h192z"/><path d="m2400 576h-192v-136h192z"/><path d="m2208 440v-16h192v16z"/><path d="m2208 384v56 136h-16v-208h16z"/><path d="m2208 576h192z"/><path d="m2208 576h-16-16 16z"/><path d="m2400 368v16 192h16v-208z"/><path d="m2208 368h192-192-16z"/><path d="m2208 384v192z"/><path d="m2208 368v16h192v-16z"/><path d="m2192 368v208h16v-192-16z"/><path d="m2416 592h-240z"/><path d="m2416 576h-16v-192-16h16z"/><path d="m2192 576h16 192 16v16h-240v-16z"/><path d="m2400 384h-192v-16h192z"/><path d="m2208 384v192h-16v-208h16z"/><path d="m2176 576h16z"/><path d="m2400 576v-192z"/><path d="m2400 368h16z"/><path d="m2416 368v208z"/><path d="m2192 576v-208z"/><path d="m2400 384h-192z"/><path d="m2416 592v-16z"/><path d="m3536-624-64 64z"/><path d="m3536-496-64-64z"/><path d="m3536-496 64-64z"/><path d="m3600-560-64-64z"/><path d="m3376-784-64 64z"/><path d="m3376-560-64-64z"/><path d="m3360-736v128z"/><path d="m3360-608h128z"/><path d="m3360-608h128z"/><path d="m3472-784 64 64z"/><path d="m3536-848-64 64z"/><path d="m3600-784-64 64z"/><path d="m3600-784-64-64z"/><path d="m3488-608v-128z"/><path d="m3312-496 64-64z"/><path d="m3248-560 64 64z"/><path d="m3312-624-64 64z"/><path d="m3312-624-64 64z"/><path d="m3312-848-64 64z"/><path d="m3248-784 64 64z"/><path d="m3376-784-64-64z"/><path d="m3248-784 64-64 64 64-64 64z"/><path d="m3472-784 64-64 64 64-64 64z"/><path d="m3376-560-64 64-64-64 64-64z"/><path d="m3536-624 64 64-64 64-64-64z"/><path d="m3488-608h-128v-128h128z"/><path d="m3536-496-64-64z"/><path d="m3600-560-64 64z"/><path d="m3536-624 64 64z"/><path d="m3376-784-64 64z"/><path d="m3312-624 64 64z"/><path d="m3360-608v-128z"/><path d="m3472-784 64-64z"/><path d="m3600-784-64 64z"/><path d="m3536-848 64 64z"/><path d="m3360-736h128z"/><path d="m3376-560-64 64z"/><path d="m3312-496-64-64z"/><path d="m3248-784 64-64z"/><path d="m3312-848 64 64z"/></g></defs><path d="m-601-1625h4562v2418h-4562z" fill="#fff"/><g stroke="#000"><use fill="none" stroke-miterlimit="0" stroke-width="15" xlink:href="#a"/><use fill="#fff" xlink:href="#a"/></g></svg>