<svg viewBox="-688 -688 1376 1376" xmlns="http://www.w3.org/2000/svg" xmlns:xlink="http://www.w3.org/1999/xlink"><defs><g id="a"><path d="m0-256h32z"/><path d="m-32-256h32z"/><path d="m256-32v32z"/><path d="m-90-241.5 58-14.5h32 32l64 16 38 19v189h-224z"/><path d="m134-32v35 87h-224v-107.5-14.5z"/><path d="m134-32v-189l26 13 48 48 32 64 16 64v32 3h-122z"/><path d="m256 3v29l-14.5 58h-107.5v-87z"/><path d="m32-256 64 16z"/><path d="m256 32-14.5 58z"/><path d="m134-221-38-19 64 32z"/><path d="m208-160 32 64z"/><path d="m240-96 16 64z"/><path d="m-256-17.5v17.5-32z"/><path d="m-256 32v-32z"/><path d="m-256-17.5v-14.5l16-64 32-64 48-48 64-32 6-1.5v209.5 14.5z"/><path d="m-256 32v-32-17.5h166v107.5h-151.5z"/><path d="m-90-241.5-6 1.5z"/><path d="m-256-32 16-64z"/><path d="m-240-96 32-64z"/><path d="m134 221-38 19-64 16h-32-32l-58-14.5v-151.5h224z"/><path d="m241.5 90-1.5 6-32 64-48 48-26 13v-131z"/><path d="m208 160-1 1-6.6667 6.6667-3.7333 3.7333-3.6 3.6-3.3333 3.3333-2.6667 2.6667-6 6-6 6-15 15z"/><path d="m-32 256-58-14.5z"/><path d="m240 96-32 64z"/><path d="m-90 241.5-6-1.5-64-32-48-48-32-64-1.5-6h151.5z"/><path d="m-160 208-15-15-3.3333-3.3333-2.6667-2.6667-6-6-21-21z"/><path d="m-241.5 90 1.5 6z"/><path d="m-208 160-32-64z"/><path d="m256 32 32 4-13.5 54h-33z"/><path d="m270-108-30 12-32-64 26-20z"/><path d="m270-108 18 72-32 4-16-64z"/><path d="m-36-288 4 32-58 14.5v-33z"/><path d="m32-256 4-32 72 18-12 30z"/><path d="m108-270 72 36-20 26-64-32z"/><path d="m32-256 4-32z"/><path d="m256 32 32 4z"/><path d="m180-234-5 6.5-15 19.5z"/><path d="m256-32 32-4z"/><path d="m270-108 18 72z"/><path d="m108-270 72 36z"/><path d="m288 36-13.5 54z"/><path d="m-32-256-4-32z"/><path d="m256 0v32-29z"/><path d="m-32-256-58 14.5z"/><path d="m175-193 6 6 6 6 6 6 15 15-48-48z"/><path d="m-240-96-16 64-32-4 18-72z"/><path d="m-288 36 32-4 14.5 58h-33z"/><path d="m-234-180 26 20-32 64-30-12z"/><path d="m-108-270 12 30-64 32-20-26z"/><path d="m-90-241.5-6 1.5-12-30 18-4.5z"/><path d="m-288 36 32-4z"/><path d="m-160-208-15-19.5-5-6.5z"/><path d="m-90-274.5-18 4.5z"/><path d="m-160-208-15 15v-6-4-8-10-6.5z"/><path d="m-234-180 6.5 5 19.5 15z"/><path d="m-256-32-32-4z"/><path d="m-288-36 18-72z"/><path d="m-256 32 14.5 58z"/><path d="m-193-175 6-6 6-6 6-6 15-15-48 48z"/><path d="m-96-240-64 32z"/><path d="m102.4 256h33.6l-28 14-72 18-4-32z"/><path d="m32 256 64-16 6.4 16z"/><path d="m-32 256-4 32-54-13.5v-33z"/><path d="m180 234-44 22h-33.6l-6.4-16 64-32z"/><path d="m240 96 30 12-36 72-26-20z"/><path d="m274.5 90-4.5 18-30-12 1.5-6z"/><path d="m208 160 26 20z"/><path d="m270 108-36 72z"/><path d="m187 181 2.6667-2.6667 5.3333-1.3333z"/><path d="m175 193 6-6-4 8-2 4z"/><path d="m175 193v6 4 8 4 6 6.5l-15-19.5z"/><path d="m-32 256-4 32z"/><path d="m36 288-4-32z"/><path d="m136 256 44-22-72 36z"/><path d="m-36 288-54-13.5z"/><path d="m-32 256h32z"/><path d="m0 256h32z"/><path d="m241.5 90-1.5 6z"/><path d="m32 256 64-16z"/><path d="m96 240 38-19 26-13z"/><path d="m-208 160-26 20-36-72 30-12z"/><path d="m-180 234 20-26 64 32-12 30z"/><path d="m-90 274.5-18-4.5 12-30 6 1.5z"/><path d="m-241.5 90 1.5 6-30 12-4.5-18z"/><path d="m-181 187 2.6667 2.6667 1.3333 5.3333z"/><path d="m-208 160-8.2727 6.3636-5.2179 4.0138-6.0094 4.6226-6.5 5z"/><path d="m-274.5 90 4.5 18z"/><path d="m-234 180-36-72z"/><path d="m-90 241.5-6-1.5z"/><path d="m-160 208 64 32z"/><path d="m195-177 8 2h-4z"/><path d="m177-195-2-4v-4z"/><path d="m177-195 4 8-6-6v-6z"/><path d="m195-177 4 2h-6l-6-6z"/><path d="m-177-195 2-4v6l-6 6z"/><path d="m-177-195 2-8v4z"/><path d="m-195-177-4 2h-4z"/><path d="m-195-177 8-4-6 6h-6z"/><path d="m195 177-5.3333 1.3333 3.3333-3.3333h10z"/><path d="m-177 195-1.3333-5.3333 3.3333 3.3333v10z"/><path d="m-195 177-21.2727-10.6364 8.2727-6.3636 21 21z"/><path d="m199-175h4 8 4 6 6.5l-19.5 15-15-15z"/><path d="m175 199 2-4-2 8z"/><path d="m203 175h-10l3.6-3.6 14.4 3.6z"/><path d="m-203 175-18.4906-4.6226 5.2179-4.0138 21.2727 10.6364z"/><path d="m211-175 8-2-4 2z"/><path d="m-211-175h8z"/><path d="m-211-175h-4l-4-2z"/><path d="m211 175-14.4-3.6 3.7333-3.7333 18.6667 9.3333z"/><path d="m-211 175h-10-6.5l6.0094-4.6226 18.4906 4.6226z"/><path d="m-175 211v4l-2 4z"/><path d="m215-175 4-2 8-4-6 6z"/><path d="m175-215 2-4-2 8z"/><path d="m175-221 6-6-4 8-2 4z"/><path d="m175-221v6 4 8 4 6l-15-15 15-19.5z"/><path d="m-177-219-1.3333-5.3333 3.3333 3.3333v10z"/><path d="m-219-177 4 2h-6l-6-6z"/><path d="m219 177-18.6667-9.3333 6.6667-6.6667 20 20z"/><path d="m177 219-2-4v-4z"/><path d="m177 219 4 8-6-6v-6z"/><path d="m-175 221v-6-4-8-10l15 15-15 19.5z"/><path d="m-177 219 2-4v6l-6 6z"/><path d="m-219 177-5.3333 1.3333 3.3333-3.3333h10z"/><path d="m227.5-175 6.5-5-26 20z"/><path d="m-227.5-175h6.5 6 4 8 4 6l-15 15z"/><path d="m175 227.5 5 6.5-20-26z"/><path d="m-175 227.5 15-19.5-20 26z"/><path d="m-178.3333-224.3333-2.6667-2.6667-6-6-6-6h9.1538l3.8462 5 5 6.5v6.5z"/><path d="m-178.3333-224.3333 1.3333 5.3333-4-8z"/><path d="m-224.3333 178.3333-2.6667 2.6667-6 6-6 6v-9.1538l5-3.8462 6.5-5h6.5z"/><path d="m-224.3333 178.3333 5.3333-1.3333-8 4z"/><path d="m181 227 6 6 6 6h-9.1538l-3.8462-5-5-6.5v-6.5z"/><path d="m36-288 4-32z"/><path d="m288 36 32 4z"/><path d="m200-260-16.1538 21-3.8462 5z"/><path d="m180-234 3.8462-5h9.1538l-6 6-6 6-6 6v-6.5z"/><path d="m233.4-180.6.6.6-6.5 5h-6.5l6-6 3-3z"/><path d="m300-120 7.5 30 12.5 50z"/><path d="m320-40-32 4z"/><path d="m270-108 30-12 20 80-32 4z"/><path d="m260-200 40 80-30 12-36-72z"/><path d="m260-200 40 80z"/><path d="m270-108-36-72z"/><path d="m288-36 32-4v40h-64v-32z"/><path d="m120-300-12 30-72-18 4-32z"/><path d="m108-270 12-30 80 40-20 26z"/><path d="m108-270-72-18z"/><path d="m288 36 32 4-12.5 50h-33z"/><path d="m320 40-12.5 50z"/><path d="m-40-320 4 32z"/><path d="m-36-288-4-32h40v64h-32z"/><path d="m-40-320 4 32-54 13.5v-33z"/><path d="m-36-288-54 13.5z"/><path d="m-320 40 32-4z"/><path d="m-120-300 12 30-72 36-20-26z"/><path d="m-90-274.5-18 4.5-12-30 30-7.5z"/><path d="m-90-307.5-30 7.5z"/><path d="m-108-270-72 36z"/><path d="m-234-180-5-3.8462v-9.1538l6 6 6 6 6 6h-6.5z"/><path d="m-320-40 20-80z"/><path d="m-288-36-32-4z"/><path d="m-234-180-36 72-30-12 40-80z"/><path d="m-288-36-32-4 20-80 30 12z"/><path d="m-300-120 40-80z"/><path d="m-234-180-36 72z"/><path d="m-288 36-32 4v-40h64v32z"/><path d="m-320 40 32-4 13.5 54h-33z"/><path d="m-288 36 13.5 54z"/><path d="m180 234 3.8462 5 16.1538 21z"/><path d="m260 200-21-16.1538-5-3.8462z"/><path d="m307.5 90-7.5 30-30-12 4.5-18z"/><path d="m270 108 30 12-40 80-26-20z"/><path d="m300 120-17 34-23 46z"/><path d="m274.5 90-4.5 18z"/><path d="m-36 288-4 32z"/><path d="m40 320-4-32z"/><path d="m180 234 20 26-80 40-12-30z"/><path d="m120 300-80 20-4-32 72-18z"/><path d="m36 288 72-18z"/><path d="m36 288 4 32h-40v-64h32z"/><path d="m-36 288-4 32-50-12.5v-33z"/><path d="m-40 320-50-12.5z"/><path d="m-180 234 72 36-12 30-80-40z"/><path d="m-90 307.5-30-7.5 12-30 18 4.5z"/><path d="m-180 234 72 36z"/><path d="m-90 274.5-18-4.5z"/><path d="m-234 180-5 3.8462-21 16.1538z"/><path d="m-234 180-26 20-40-80 30-12z"/><path d="m-274.5 90 4.5 18-30 12-7.5-30z"/><path d="m-307.5 90 7.5 30z"/><path d="m-180 234-3.8462 5h-9.1538l6-6 6-6 6-6v6.5z"/><path d="m233-187 2.6667-2.6667-2.2667 9.0667-3.4-3.4z"/><path d="m233 187-6-6-20-20 1-1 26 20 5 3.8462v9.1538z"/><path d="m187 233 8 4 4 2h-6z"/><path d="m239-183.8462 21-16.1538-26 20z"/><path d="m239-183.8462-5 3.8462-.6-.6 2.2667-9.0667 1.3333-5.3333 2-8z"/><path d="m-183.8462-239-16.1538-21 20 26z"/><path d="m-239-183.8462 5 3.8462-26-20z"/><path d="m183.8462 239h9.1538 6 4 8 4 6l-21 21z"/><path d="m-183.8462 239 3.8462-5-20 26z"/><path d="m237-195-1.3333 5.3333-2.6667 2.6667z"/><path d="m193-239h6l-4 2-8 4z"/><path d="m-193-239 6 6-8-4-4-2z"/><path d="m-237-195-2-4v-4z"/><path d="m-237-195 4 8-6-6v-6z"/><path d="m239 193v6l-2-4-4-8z"/><path d="m-239 193 6-6-4 8-2 4z"/><path d="m-239 193v6 4 8 4 6l-21-21 21-16.1538z"/><path d="m199-239h4l-8 2z"/><path d="m-199-239 4 2-8-2z"/><path d="m239 199v4l-2-8z"/><path d="m-239 199 2-4-2 8z"/><path d="m-199 239 4-2 8-4-6 6z"/><path d="m203 239h-4l-4-2z"/><path d="m-203 239 8-2-4 2z"/><path d="m-211 239h8z"/><path d="m239-215v4l-2-8z"/><path d="m215-239 4 2-8-2z"/><path d="m-215-239h4l-8 2z"/><path d="m-239-215 2-4-2 8z"/><path d="m219 237-4 2h-4z"/><path d="m219 237 8-4-6 6h-6z"/><path d="m-237 219-2-4v-4z"/><path d="m-219 237 8 2h-4z"/><path d="m-237 219 4 8-6-6v-6z"/><path d="m233-227-2-2-4-4z"/><path d="m239-221-6-6-6-6-6-6-21-21 80-104 84 84-104 80z"/><path d="m280-364 84 84z"/><path d="m200-260 21 21h-6-4-8-4-6-9.1538z"/><path d="m260-200-21 16.1538v-19.1538-8-4-6z"/><path d="m239-221v6l-2-4-4-8z"/><path d="m221-239 6 6-8-4-4-2z"/><path d="m227-233-8-4z"/><path d="m364-280 56 112-120 48-40-80z"/><path d="m424-131.5 2-3.5-2 9z"/><path d="m426-110 4 7-6-7v-3.5z"/><path d="m430-103 6 7-12-6.8571v-7.1429z"/><path d="m424-102.8571 12 6.8571 2.3333 1.3333 1.1667 4.6667h-15.5z"/><path d="m424-152 2.5 10 1.0652 4.2609-1.5652 2.7391-2 3.5z"/><path d="m426-110-2-3.5v-4.5z"/><path d="m420-168 4 16v20.5 5.5 8 4.5 3.5 7.1429 12.8571h-116.5l-7.5-30z"/><path d="m424-90h15.5l8.5 34-128 16-12.5-50z"/><path d="m448 56-128-16v-40h128z"/><path d="m448 0h-128v-40l128-16z"/><path d="m436-96 2.3333 1.3333z"/><path d="m426.5-142-2.5-10-4-16z"/><path d="m364-280 56 112z"/><path d="m438.3333-94.6667.4314 1.7255.7353 2.9412z"/><path d="m448-56v56z"/><path d="m320 0v40l-32-4-32-4v-32z"/><path d="m83.5556-441.1111 6.4444 1.6111v2.0714 6.4286 7 116.5l-50-12.5 16-128z"/><path d="m92.7059-438.8235 1.9608.4902 1.3333 2.3333z"/><path d="m90-437.4286 13 7.4286 7 4-20-5z"/><path d="m131.5-424 3.5-2 2.7391-1.5652 4.2609 1.0652 10 2.5z"/><path d="m126-424 9-2-3.5 2z"/><path d="m90-431 20 5 8 2h-28z"/><path d="m90-439.5 2.7059.6765 3.2941 2.8235 7 6-13-7.4286z"/><path d="m168-420 112 56-80 104-80-40z"/><path d="m168-420-48 120-30-7.5v-116.5h28 8 5.5 20.5z"/><path d="m168-420 112 56z"/><path d="m142-426.5-4.2609-1.0652 1.7903.4476z"/><path d="m135-426 2.7391-1.5652z"/><path d="m90-439.5-6.4444-1.6111z"/><path d="m83.5556-441.1111-27.5556-6.8889z"/><path d="m90-307.5 30 7.5-80-20z"/><path d="m200-260-80-40z"/><path d="m424 90h-116.5l12.5-50 128 16-8.5 34z"/><path d="m448 56-8.5 34z"/><path d="m-56-448h56z"/><path d="m0-448h56z"/><path d="m0-320h-40l-16-128h56z"/><path d="m-90-424v-15.5l34-8.5 16 128-50 12.5z"/><path d="m40-320h-40v-128h56z"/><path d="m0-320h40l-4 32-4 32h-32z"/><path d="m-40-320-50 12.5z"/><path d="m-168-420 14-3.5v38.5 102l-46 23-80-104z"/><path d="m-120-300-34 17v-102z"/><path d="m-126-424h8 4.5 3.5 7.1429 12.8571v116.5l-30 7.5-34-85v-38.5l2-.5z"/><path d="m-139.7647-427.0588 2.0256-.5064 2.7391 1.5652z"/><path d="m-113.5-424 3.5-2 7-4-7 6z"/><path d="m-102.8571-424 6.8571-12 1.3333-2.3333 1.7255-.4314 2.9412-.7353v15.5z"/><path d="m-110-424 7-6 7-6-6.8571 12z"/><path d="m-118-424 8-2-3.5 2z"/><path d="m-152-424 12.2353-3.0588 4.7647 1.0588 9 2z"/><path d="m-90-439.5-2.9412.7353z"/><path d="m-96-436 1.3333-2.3333z"/><path d="m-92.9412-438.7647-1.7255.4314z"/><path d="m-280-364 112-56z"/><path d="m-154-423.5-14 3.5z"/><path d="m-154-283 34-17-80 40z"/><path d="m-364-280 84-84z"/><path d="m-200-260 16.1538 21h-9.1538-6-4-8-4-6z"/><path d="m-221-239h6l-4 2-8 4z"/><path d="m-239-221 6-6-4 8-2 4z"/><path d="m-239-221v6 4 8 4 6 9.1538l-21-16.1538z"/><path d="m-233-227-4 8z"/><path d="m-364-280 84-84 80 104-21 21-6 6-6 6-6 6-21 21z"/><path d="m-364-280 104 80-40 80-120-48z"/><path d="m-320 0h-104v-53l104 13z"/><path d="m-424 0h104v40l-119.7576 14.9697-8.2424 1.0303v-56z"/><path d="m-320-40-104-13v-37-28-8-26l4-16 120 48z"/><path d="m-438.8235-92.7059.4902-1.9608 2.3333-1.3333z"/><path d="m-437.4286-90 7.4286-13 4-7-5 20z"/><path d="m-431-90 5-20 2-8v28z"/><path d="m-426-135-1.0588-4.7647 3.0588-12.2353v26z"/><path d="m-427.5652-137.7391.5064-2.0256 1.0588 4.7647z"/><path d="m-439.5-90 .6765-2.7059 2.8235-3.2941 6-7-7.4286 13z"/><path d="m-441.1111-83.5556 1.6111-6.4444h2.0714 6.4286 7v37 53h-24v-56z"/><path d="m-441.1111-83.5556-6.8889 27.5556z"/><path d="m-424-118v-8z"/><path d="m-439.5-90-1.6111 6.4444z"/><path d="m-448 0v-56z"/><path d="m-448 56v-56z"/><path d="m-320 0v-40l32 4 32 4v32z"/><path d="m-441.1111 83.5556 3.6825 6.4444h-2.0714z"/><path d="m-441.1111 83.5556-6.8889-27.5556 8.2424-1.0303 8.7576 35.0303h-6.4286z"/><path d="m-439.7576 54.9697 15.7576-1.9697v37h-7z"/><path d="m-424 53 104-13 12.5 50h-116.5z"/><path d="m-320 40 12.5 50z"/><path d="m424 113.5 2-3.5-2 8z"/><path d="m424 110 6-7-4 7-2 3.5z"/><path d="m424 152v-20.5l2 3.5 1.5652 2.7391z"/><path d="m438.7647 92.9412-.4314 1.7255-2.3333 1.3333-12 6.8571v-12.8571h15.5z"/><path d="m424 102.8571 12-6.8571-6 7-6 7z"/><path d="m426 135-2-3.5v-5.5z"/><path d="m424 102.8571v7.1429 3.5 4.5 8 5.5 20.5l-.5 2h-38.5l-85-34 7.5-30h116.5z"/><path d="m283 154 17-34 85 34z"/><path d="m385 154h38.5l-3.5 14-56 112-104-80 23-46z"/><path d="m426 135 1.5652 2.7391z"/><path d="m423.5 154 .5-2 3.5652-14.2609-.4476 1.7903-.6176 2.4706-6.5 26z"/><path d="m307.5 90-7.5 30z"/><path d="m227 233 4-4 2-2z"/><path d="m221 239 6-6 6-6 2.6667-2.6667 3.3333-3.3333 21-21 104 80-84 84-80-104z"/><path d="m260 200-21 21v-10-8-4-6-9.1538z"/><path d="m239 221-3.3333 3.3333 1.3333-5.3333 2-8z"/><path d="m235.6667 224.3333-2.6667 2.6667 4-8z"/><path d="m233 227 4-8z"/><path d="m280 364-112 56-48-120 80-40z"/><path d="m-53 424 13-104h40v104z"/><path d="m118 424h-28-37l-2.0857-16.6857 75.0857 16.6857z"/><path d="m135 426-88.0385-50.3077-6.9615-55.6923 80-20 48 120-16 4-14.2609 3.5652z"/><path d="m0 424v-104h40l6.9615 55.6923 3.9528 31.622 2.0857 16.6857z"/><path d="m126 424-75.0857-16.6857-3.9528-31.622 88.0385 50.3077z"/><path d="m-90 307.5 50 12.5-13 104h-37z"/><path d="m96 436-3.2941 2.8235-2.7059.6765v-2.0714l13-7.4286z"/><path d="m90 424h28l-8 2-20 5z"/><path d="m90 431 20-5-7 4-13 7.4286z"/><path d="m94.6667 438.3333-1.9608.4902 3.2941-2.8235z"/><path d="m-53 424h53v24h-56l-34-8.5v-15.5z"/><path d="m83.5556 441.1111-27.5556 6.8889h-56v-24h53 37v7 6.4286 2.0714z"/><path d="m96 436-1.3333 2.3333z"/><path d="m168 420-16 4z"/><path d="m280 364-112 56z"/><path d="m137.7391 427.5652-2.7391-1.5652z"/><path d="m92.7059 438.8235 1.9608-.4902-4.6667 1.1667z"/><path d="m-56 448-34-8.5z"/><path d="m120 300 80-40z"/><path d="m40 320 80-20z"/><path d="m0 320h-40l4-32 4-32h32z"/><path d="m-137.7391 427.5652-2.0256-.5064 4.7647-1.0588z"/><path d="m-113.5 424 3.5 2-8-2z"/><path d="m-135 426-4.7647 1.0588-12.2353-3.0588h26z"/><path d="m-110 426-3.5-2-45.6628-26.093 4.7798-11.9495 51.383 44.0425z"/><path d="m-96 436-46.1176-80.7059 22.1176-55.2941 30 7.5v116.5 15.5l-2.9412-.7353-1.7255-.4314z"/><path d="m-142.1176 355.2941-12.2654 30.6634-4.7798 11.9495-8.8372 22.093-112-56 80-104 80 40z"/><path d="m-103 430-51.383-44.0425 12.2654-30.6634 46.1176 80.7059z"/><path d="m-159.1628 397.907 45.6628 26.093h-4.5-8-26l-16-4z"/><path d="m-135 426-2.7391 1.5652z"/><path d="m-200 260 80 40z"/><path d="m-90 307.5-30-7.5z"/><path d="m-438.3333 94.6667-.4902-1.9608 2.8235 3.2941z"/><path d="m-427.0588 139.7647-.5064-2.0256 1.5652-2.7391z"/><path d="m-424 152-3.0588-12.2353 1.0588-4.7647 2-9z"/><path d="m-364 280-20.5-41h73.8z"/><path d="m-384.5 239-35.5-71 120-48 40 80-50.7 39z"/><path d="m-437.4286 90 7.4286 13-6-7-2.8235-3.2941-.6765-2.7059z"/><path d="m-431 90 5 20-4-7-7.4286-13z"/><path d="m-424 90v28l-2-8-5-20z"/><path d="m-307.5 90 7.5 30-120 48-4-16v-26-8-28z"/><path d="m-436 96-2.3333-1.3333z"/><path d="m-439.5 90 .6765 2.7059.4902 1.9608z"/><path d="m-424 126v-8z"/><path d="m-420 168-4-16z"/><path d="m-300 120 40 80z"/><path d="m-227 233 8 4 4 2h-6z"/><path d="m-227 233 8 4z"/><path d="m-239 221 6 6 6 6 6 6h-89.7l50.7-39z"/><path d="m-221 239 21 21-80 104-84-84 53.3-41z"/><path d="m-221 239h6 4 8 4 6 9.1538l-16.1538 21z"/><path d="m-452 90h-4z"/><path d="m-90-452v-4z"/><path d="m57.0333-456.2667-1.0333 8.2667 2-16z"/><path d="m448 56 16 2z"/><path d="m280-364 10-13z"/><path d="m364-280 13-10z"/><path d="m448-56 16-2z"/><path d="m452-90h4z"/><path d="m435-174 5 20 .7333 2.9333.2042.8167z"/><path d="m377-290 58 116z"/><path d="m435-174 5.9375 23.75-3.9375 2.25-10.5 6-6.5-26z"/><path d="m364-280 13-10 58 116-15 6z"/><path d="m424-126v8z"/><path d="m427.5652-137.7391-.4476-1.7903 2.8824-2.4706z"/><path d="m430-142-2.8824 2.4706-.6176-2.4706 10.5-6z"/><path d="m426-135 1.5652-2.7391z"/><path d="m424-126 2-9z"/><path d="m427.1176-139.5294.4476 1.7903-1.0652-4.2609z"/><path d="m443-92 9 2h-5.5z"/><path d="m439.5-90-.7353-2.9412 4.2353.9412 3.5 2z"/><path d="m438.7647-92.9412-.4314-1.7255 4.6667 2.6667z"/><path d="m446.5-90h5.5 4l8 32-16 2-8.5-34z"/><path d="m456-90 8 32z"/><path d="m439.5-90 8.5 34z"/><path d="m448 0v56z"/><path d="m96-436-1.3333-2.3333z"/><path d="m96-436 7 6z"/><path d="m174-435 116 58z"/><path d="m148-437 2.25-3.9375z"/><path d="m174-435-6 15-26-6.5 6-10.5 2.25-3.9375z"/><path d="m280-364-112-56 6-15 116 58z"/><path d="m168-420-16-4-10-2.5z"/><path d="m142-426.5-2.4706-.6176 2.4706-2.8824 6-7z"/><path d="m139.5294-427.1176-1.7903-.4476 4.2609-2.4348z"/><path d="m135-426-9 2z"/><path d="m90-452 2 9-2-3.5z"/><path d="m90-439.5v-7l2 3.5 2.6667 4.6667z"/><path d="m94.6667-438.3333-1.9608-.4902-2.7059-.6765z"/><path d="m57.0333-456.2667.9667-7.7333 32 8v4 5.5 7l-6.4444-1.6111z"/><path d="m56-448 1.0333-8.2667 26.5223 15.1556z"/><path d="m448 56 16 2-8 32h-4-12.5z"/><path d="m-90-452v-4l32-8 2 16-34 8.5z"/><path d="m-56-448-2-16z"/><path d="m-90-456 32-8z"/><path d="m-56-448-34 8.5z"/><path d="m-464 58 16-2z"/><path d="m-280-364-10-13z"/><path d="m-90-439.5-2.9412.7353.9412-4.2353 2-9z"/><path d="m-92.9412-438.7647-1.7255.4314 2.6667-4.6667z"/><path d="m-137.7391-427.5652-2.0256.5064-12.2353 3.0588-2 .5z"/><path d="m-148-437 6 7-12-6.8571v-3.1429l2.8235-.7059z"/><path d="m-148-437-3.1765-3.7059.9265-.2316z"/><path d="m-154-436.8571 12 6.8571 4.2609 2.4348-16.2609 4.0652z"/><path d="m-137.7391-427.5652.4982.2847 2.2409 1.2805z"/><path d="m-154-440v3.1429 13.3571l-14 3.5-6-15z"/><path d="m-168-420-112 56-10-13 116-58z"/><path d="m-154-440-20 5z"/><path d="m-377-290 13 10z"/><path d="m-448-56-16-2z"/><path d="m-441.1111-83.5556-6.8889 27.5556-8.2667-1.0333z"/><path d="m-438.3333-94.6667 2.3333-1.3333z"/><path d="m-424-169.6v17.6l-3.5652 14.2609-2.4348-4.2609-9.0435-15.8261 4.0435-16.1739 11-22z"/><path d="m-420-168-4 16v-17.6z"/><path d="m-377-290 13 10-56 112-4-1.6v-26.4z"/><path d="m-364-280-56 112z"/><path d="m-424-152 4-16-4 16-3.0588 12.2353-.5064 2.0256z"/><path d="m-440.9375-150.25.2316-.9265 3.7059 3.1765z"/><path d="m-437-148-3.7059-3.1765 1.6624-6.6496 9.0435 15.8261z"/><path d="m-437-148-3.9375-2.25z"/><path d="m-440.7059-151.1765-.2316.9265 1.894-7.5761z"/><path d="m-452-90 9-2-3.5 2z"/><path d="m-446.5-90 3.5-2 4.6667-2.6667-1.1667 4.6667z"/><path d="m-438.3333-94.6667-.4902 1.9608-.6765 2.7059z"/><path d="m-452-90h5.5 7l-1.6111 6.4444-15.1556 26.5223-7.7333-.9667 8-32z"/><path d="m-452 90h-4l-8-32 16-2v33.1429.8571z"/><path d="m-448 89.1429v-33.1429l8.5 34h-7z"/><path d="m-448 89.1429 1.5.8571h-1.5z"/><path d="m-456 90-8-32z"/><path d="m-448 56 6.8889 27.5556 1.6111 6.4444z"/><path d="m-90 456v-4z"/><path d="m280 364 10 13z"/><path d="m364 280 13 10z"/><path d="m443 92-4.2353.9412.7353-2.9412h12.5z"/><path d="m439.5 90-.7353 2.9412z"/><path d="m436 96-6 7z"/><path d="m436 96 2.3333-1.3333z"/><path d="m438.3333 94.6667.4314-1.7255 4.2353-.9412z"/><path d="m438.7647 92.9412-.4314 1.7255z"/><path d="m377 290-13-10 56-112 15 6z"/><path d="m426.5 142 10.5 6 3.9375 2.25-.9375 3.75-5 20-15-6z"/><path d="m427.1176 139.5294.4476-1.7903 2.4348 4.2609z"/><path d="m426.5 142 .6176-2.4706 2.8824 2.4706 7 6z"/><path d="m440.9375 150.25-.2042.8167-.7333 2.9333z"/><path d="m437 148 3.9375 2.25z"/><path d="m435 174-58 116z"/><path d="m424 126v-8z"/><path d="m424 118 2-8z"/><path d="m426 135-2-9z"/><path d="m364 280 56-112z"/><path d="m280 364 84-84z"/><path d="m-56 448-2 16z"/><path d="m57.0333 456.2667.9667 7.7333-2-16z"/><path d="m56 448 27.5556-6.8889-26.5223 15.1556z"/><path d="m83.5556 441.1111-27.5556 6.8889z"/><path d="m90 452v4z"/><path d="m196 424 94-47-116 58z"/><path d="m280 364 10 13-94 47h-26.4l-1.6-4z"/><path d="m168 420 1.6 4h-17.6z"/><path d="m142 430-2.4706-2.8824 2.4706-.6176 6 10.5z"/><path d="m137.7391 427.5652 1.7903-.4476 2.4706 2.8824z"/><path d="m174 435-23.75 5.9375-2.25-3.9375-6-10.5 10-2.5h17.6 26.4z"/><path d="m150.25 440.9375-2.25-3.9375z"/><path d="m152 424-10 2.5-2.4706.6176-1.7903.4476z"/><path d="m126 424 9 2z"/><path d="m90 446.5 2-3.5-2 9z"/><path d="m90 439.5 4.6667-1.1667-2.6667 4.6667-2 3.5z"/><path d="m83.5556 441.1111 6.4444-1.6111v7 5.5 4l-32 8-.9667-7.7333z"/><path d="m90 456-32 8z"/><path d="m90 439.5-6.4444 1.6111z"/><path d="m0 448h56z"/><path d="m-56 448h56z"/><path d="m-90 452v-12.5l34 8.5-2 16-32-8z"/><path d="m-58 464-32-8z"/><path d="m-290 377 10-13z"/><path d="m-92 443-.9412-4.2353 2.9412.7353v12.5z"/><path d="m-90 439.5-2.9412-.7353z"/><path d="m-94.6667 438.3333-1.3333-2.3333z"/><path d="m-94.6667 438.3333 1.7255.4314.9412 4.2353z"/><path d="m-92.9412 438.7647-1.7255-.4314z"/><path d="m-157.8261 439.0435 3.8261.9565 2.8235.7059.9265.2316-3.75-.9375-20-5z"/><path d="m-168 420 16 4h-2-15.6z"/><path d="m-196 424-94-47 10-13 112 56-1.6 4z"/><path d="m-152 424 14.2609 3.5652-4.2609 2.4348-12 6.8571v-12.8571z"/><path d="m-157.8261 439.0435-16.1739-4.0435-22-11h26.4 15.6v12.8571z"/><path d="m-152 424-16-4 16 4 12.2353 3.0588 2.0256.5064z"/><path d="m-280 364 112 56z"/><path d="m-148 437-2.25 3.9375z"/><path d="m-150.25 440.9375-.9265-.2316 3.1765-3.7059z"/><path d="m-148 437-3.1765 3.7059-2.8235-.7059v-3.1429l12-6.8571z"/><path d="m-154 440-3.8261-.9565 3.8261-2.1864z"/><path d="m-364 280-13 10z"/><path d="m-439.5 90 1.1667 4.6667-4.6667-2.6667-3.5-2z"/><path d="m-448 90h1.5l3.5 2-9-2z"/><path d="m-424 196 47 94-58-116z"/><path d="m-420 168-4 1.6v-15.6-2z"/><path d="m-424 196v-26.4l4-1.6 56 112-13 10z"/><path d="m-420 168 35.5 71 20.5 41z"/><path d="m-424 152-3.5652-14.2609.5064 2.0256z"/><path d="m-427.5652 137.7391.4238-.7415 1.1414-1.9976z"/><path d="m-436.8571 154 6.8571-12 2.4348-4.2609 3.5652 14.2609v2z"/><path d="m-440.7059 151.1765-.2316-.9265 3.9375-2.25z"/><path d="m-440 154-.7059-2.8235 3.7059-3.1765 7-6-6.8571 12z"/><path d="m-424 169.6v26.4l-11-22-5-20h3.1429 12.8571z"/><path d="m-440.9375 150.25 3.9375-2.25z"/><path d="m-364 280 84 84z"/><path d="m452 90h4z"/><path d="m-90-456v-4z"/><path d="m58-464 2-16z"/><path d="m464 58 16 2z"/><path d="m300-390-10 13z"/><path d="m377-290 13-10z"/><path d="m290-377 10-13 10-13 93 93-13 10-13 10-13 10-84-84z"/><path d="m480-60-16 2z"/><path d="m456-90h-4 6.2946 1.7054z"/><path d="m450-180 5 20 1.2941 5.1765.2059.8235z"/><path d="m417-246-27-54 60 120z"/><path d="m440.9375-150.25-.2042-.8167 3.2667-.9333z"/><path d="m444-152-3.2667.9333-.7333-2.9333h11z"/><path d="m450-180 6.5 26h-5.5-11l-5-20z"/><path d="m417-246 33 66-15 6z"/><path d="m377-290 13-10 27 54 18 72z"/><path d="m437-148 3.9375-2.25z"/><path d="m437-148-7 6z"/><path d="m460-90 8-2-3.5 2z"/><path d="m464.5-90 3.5-2 3.5-2 1 4z"/><path d="m471.5-94 .2059.8235.7941 3.1765z"/><path d="m456-90h4 4.5 8l7.5 30-16 2z"/><path d="m464-58 16-2 16-2v62h-48v-56z"/><path d="m154-456.5 26 6.5z"/><path d="m246-417-66-33 120 60z"/><path d="m90-452v-4z"/><path d="m90-452 2 9z"/><path d="m151.0667-440.7333 2.9333.7333 20 5-23.75-5.9375z"/><path d="m174-435-20-5v-11-5.5l26 6.5z"/><path d="m174-435 6-15 66 33z"/><path d="m154-440-2.9333-.7333.9333-3.2667 2-7z"/><path d="m151.0667-440.7333-.8167-.2042 1.75-3.0625z"/><path d="m154-451v-5.5z"/><path d="m290-377-116-58 72 18 54 27z"/><path d="m90-464.5 2-3.5-2 8z"/><path d="m90-472.5 4 1-2 3.5-2 3.5z"/><path d="m58-464 2-16 30 7.5v8 4.5 4z"/><path d="m90-456-32-8z"/><path d="m456 90 .2353-.9412 3.7647.9412z"/><path d="m456.2353 89.0588.8272-3.3088 7.4375 4.25h-4.5z"/><path d="m457.0625 85.75 6.9375-27.75 16 2-7.5 30h-8z"/><path d="m480 60-6.3333 25.3333-1.1667 4.6667z"/><path d="m457.0625 85.75-.8272 3.3088-.2353.9412 8-32z"/><path d="m-58-464-2-16-2-16h62v48h-56z"/><path d="m-58-464-32 8v-4-12.5l30-7.5z"/><path d="m-290-377-10-13z"/><path d="m-90-472.5-2.9412.7353-1.0588.2647z"/><path d="m-180-450 26-6.5z"/><path d="m-92-468-.9412-3.7647 2.9412-.7353v12.5z"/><path d="m-94-471.5 1.0588-.2647.9412 3.7647z"/><path d="m-148-437-2.25-3.9375z"/><path d="m-148-437 6 7z"/><path d="m-152-444-2-3.5v-3.5z"/><path d="m-154-447.5 2 3.5 1.75 3.0625-3.75.9375z"/><path d="m-150.25-440.9375-.9265.2316-2.8235.7059z"/><path d="m-154-456.5v5.5 3.5 7.5l-20 5-6-15z"/><path d="m-174-435-116 58-10-13 120-60z"/><path d="m-290-377 116-58z"/><path d="m-377-290-13-10-13-10 93-93 10 13 10 13 10 13-84 84z"/><path d="m-464-58-16-2z"/><path d="m-456-90h4z"/><path d="m-450-180 15 6-4.0435 16.1739-11.4782-20.0869z"/><path d="m-390-300 13 10-58 116-15-6z"/><path d="m-377-290-47 94-11 22z"/><path d="m-439.0435-157.8261 4.0435-16.1739z"/><path d="m-439.0435-157.8261-1.894 7.5761-3.0625-1.75-11.375-6.5 4.8533-19.413z"/><path d="m-451-154-5.1333-1.4667.7583-3.0333 11.375 6.5z"/><path d="m-456.5-154 .3667-1.4667 5.1333 1.4667z"/><path d="m-471.7647-92.9412.2647-1.0588 3.5 2z"/><path d="m-472.5-90 .7353-2.9412 3.7647.9412 8 2z"/><path d="m-464-58-16-2 7.5-30h12.5 4z"/><path d="m-456-90-8 32z"/><path d="m-464 58-16 2-16 2v-62h48v56z"/><path d="m-464 58 8 32h-4-12.5l-7.5-30z"/><path d="m-90 460v-4z"/><path d="m290 377 10 13z"/><path d="m390 300-13-10z"/><path d="m452 90-9 2z"/><path d="m451 154h.5734 4.9266z"/><path d="m472.5 90-1 4-3.5-2-3.5-2z"/><path d="m464.5 90 3.5 2-8-2z"/><path d="m440.7333 151.0667.2042-.8167 3.0625 1.75z"/><path d="m440 154 .7333-2.9333 3.2667.9333 7 2z"/><path d="m437 148-7-6z"/><path d="m450 180-15-6 5-20h11 5.5z"/><path d="m390 300-13-10 58-116 15 6z"/><path d="m450 180-60 120z"/><path d="m440 154-5 20z"/><path d="m377 290 13 10 13 10-93 93-10-13-10-13-10-13 84-84z"/><path d="m-58 464-2 16z"/><path d="m60 480-2-16z"/><path d="m92 468 2 3.5z"/><path d="m180 450-26 6.5z"/><path d="m246 417 54-27-120 60z"/><path d="m154 440-2.9333.7333-.8167.2042 23.75-5.9375z"/><path d="m148 437-6-7z"/><path d="m290 377 10 13-54 27-72 18z"/><path d="m246 417-66 33-6-15z"/><path d="m152 444-.9333-3.2667 2.9333-.7333v11z"/><path d="m150.25 440.9375.8167-.2042.9333 3.2667z"/><path d="m180 450-26 6.5v-5.5-11l20-5z"/><path d="m92 468-2-3.5v-4.5z"/><path d="m90 464.5 2 3.5 2 3.5-4 1z"/><path d="m94 471.5-.8235.2059-3.1765.7941z"/><path d="m90 460v4.5 8l-30 7.5-2-16 32-8z"/><path d="m58 464 2 16 2 16h-62v-48h56z"/><path d="m-60 480-30-7.5v-8-4.5-4l32 8z"/><path d="m-60 480-30-7.5z"/><path d="m-300 390 10-13z"/><path d="m-90 472.5-2.9412-.7353.9412-3.7647 2-3.5z"/><path d="m-92.9412 471.7647-1.0588-.2647 2-3.5z"/><path d="m-92 468 2-8v4.5z"/><path d="m-290 377 94 47 22 11z"/><path d="m-300 390 10-13 116 58-72-18z"/><path d="m-174 435-6 15-66-33z"/><path d="m-154 440 3.75.9375-1.75 3.0625-2 3.5z"/><path d="m-154 447.5 2-3.5-2 7z"/><path d="m-154 447.5v3.5 5.5l-26-6.5 6-15 20 5z"/><path d="m-377 290-13 10z"/><path d="m-472.5 90 .7353 2.9412.2647 1.0588z"/><path d="m-450 180-6.5-26z"/><path d="m-468 92-3.7647.9412-.7353-2.9412h12.5z"/><path d="m-417 246 27 54-60-120z"/><path d="m-471.5 94-.2647-1.0588 3.7647-.9412z"/><path d="m-440 154-.9375-3.75.2316.9265.7059 2.8235 5 20z"/><path d="m-437 148 7-6z"/><path d="m-377 290-13 10-27-54-18-72z"/><path d="m-417 246-33-66 15-6z"/><path d="m-447.5 154 3.5-2 3.0625-1.75.9375 3.75z"/><path d="m-451 154 7-2-3.5 2z"/><path d="m-456.5 154h5.5 3.5 7.5l5 20-15 6z"/><path d="m-290 377-10 13-10 13-93-93 13-10 13-10 13-10 84 84z"/><path d="m310-403-10 13z"/><path d="m390-300 13-10z"/><path d="m488-61 8-1-16 2z"/><path d="m488-90v-4l8 32-8 1z"/><path d="m432-252-29-58 62 124z"/><path d="m482-102 2.6667-5.3333z"/><path d="m476-90 4.6-9.2 1.4-2.8 2.6667-5.3333 3.3333 13.3333v4z"/><path d="m488-94-3.3333-13.3333.3333 1.3333z"/><path d="m465-186 5 20 4 16 .25 1z"/><path d="m456.5-154-.2059-.8235 3.7059.8235z"/><path d="m474.25-149-5.25-3-14-8-5-20 15-6z"/><path d="m460-154-3.7059-.8235-1.2941-5.1765 14 8z"/><path d="m432-252 33 66-15 6z"/><path d="m456.5-154h3.5z"/><path d="m474.25-149-5.25-3z"/><path d="m390-300 13-10 29 58 18 72z"/><path d="m451-154h5.5z"/><path d="m451-154-7 2z"/><path d="m475-96 7-6-1.4 2.8z"/><path d="m471.7059-93.1765-.2059-.8235 3.5-2z"/><path d="m472.5-90-.7941-3.1765 3.2941-2.8235 5.6-3.2-4.6 9.2z"/><path d="m476-90h12v29l-8 1-7.5-30z"/><path d="m472.5-90 7.5 30z"/><path d="m252-432-66-33 124 62z"/><path d="m85.3333-473.6667 7.8432 1.9608.8235.2059-4-1-30-7.5z"/><path d="m180-450 6-15 66 33z"/><path d="m180-450-26-6.5v-3.5-13l32 8z"/><path d="m62-496 32 8 12 3 1.3333.3333-5.3333 2.6667-16.6667 8.3333-25.3333-6.3333z"/><path d="m96-475-2.8235 3.2941-7.8432-1.9608 16.6667-8.3333z"/><path d="m149-474.25 1.9412.4853 1.0588 4.7647z"/><path d="m152-469-1.0588-4.7647 3.0588.7647v13z"/><path d="m94-471.5-.8235-.2059 2.8235-3.2941z"/><path d="m152-469-3-5.25z"/><path d="m154-456.5v-3.5z"/><path d="m62-496 32 8z"/><path d="m300-390-120-60 72 18 58 29z"/><path d="m92-468 2-3.5z"/><path d="m92-468-2 8z"/><path d="m473.6667 85.3333 6.3333-25.3333 16 2-7 28h-13z"/><path d="m473.6667 85.3333 2.3333 4.6667h-3.5z"/><path d="m496 62-7 28z"/><path d="m-62-496 2 16z"/><path d="m-60-480 2 16z"/><path d="m-62-496 2 16-30 7.5v-16.5z"/><path d="m-60-480-30 7.5z"/><path d="m-496 62 16-2z"/><path d="m-480 60 16-2z"/><path d="m-310-403 10 13z"/><path d="m-90-489-12.25 3.0625-2.5735.6434-2.5098.6274z"/><path d="m-252-432-58 29 124-62z"/><path d="m-154-460v3.5z"/><path d="m-149-474.25-3 5.25-2 3.5v-7.5z"/><path d="m-102-482-2.8235-3.2941 2.5735-.6434 6.25 10.9375z"/><path d="m-107.3333-484.6667 2.5098-.6274 2.8235 3.2941z"/><path d="m-152-469-2 9v-5.5z"/><path d="m-90-472.5-4 1-2-3.5-6.25-10.9375 12.25-3.0625z"/><path d="m-180-450-72 18 66-33z"/><path d="m-154-465.5v5.5 3.5l-26 6.5-6-15 32-8z"/><path d="m-300-390 120-60z"/><path d="m-180-450-120 60-10-13 58-29z"/><path d="m-403-310 13 10z"/><path d="m-390-300 13 10z"/><path d="m-488-61 8 1-16-2z"/><path d="m-471.5-94-.2647 1.0588-.7353 2.9412-7.5 30z"/><path d="m-450-180-.5217 2.087-4.8533 19.413-.7583 3.0333-.3667 1.4667z"/><path d="m-390-300-60 120z"/><path d="m-468-92 8 2z"/><path d="m-468-92-3.5-2z"/><path d="m-403-310 13 10-60 120 18-72z"/><path d="m-485.9375-102.25.6434-2.5735 3.2941 2.8235 7 6z"/><path d="m-474.25-149 .4853-1.9412 4.7647-1.0588z"/><path d="m-469-152-4.7647 1.0588.7647-3.0588h13z"/><path d="m-485.9375-102.25 10.9375 6.25 3.5 2-8.5 34-8-1v-33z"/><path d="m-485.2941-104.8235.6274-2.5098 2.6667 5.3333z"/><path d="m-456.5-154h-3.5-13l8-32 15 6z"/><path d="m-450-180-15-6 33-66z"/><path d="m-469-152-5.25 3z"/><path d="m-488-61-8-1 8-32z"/><path d="m-488-94-8 32z"/><path d="m-496 62 16-2 7.5 30h-16.5z"/><path d="m-480 60 7.5 30z"/><path d="m300 390 10 13z"/><path d="m403 310-13-10z"/><path d="m456.5 154h3.5z"/><path d="m472.5 90-.7941 3.1765-.2059.8235z"/><path d="m460 154 9-2-3.5 2z"/><path d="m471.5 94 .2059-.8235 3.2941 2.8235z"/><path d="m465.5 154 3.5-2 5.25-3-1.25 5z"/><path d="m476 90 6 12-7-6-3.2941-2.8235.7941-3.1765z"/><path d="m489 90-1 4-3 12-.3333 1.3333-2.6667-5.3333-6-12z"/><path d="m484.6667 107.3333-2.6667-5.3333z"/><path d="m474.25 149-.25 1-1 4z"/><path d="m469 152 5.25-3z"/><path d="m471.5 94-3.5-2z"/><path d="m403 310-13-10 60-120 15 6z"/><path d="m460 154h5.5 7.5l-8 32-15-6 6.5-26z"/><path d="m450 180 6.5-26z"/><path d="m-60 480-2 16z"/><path d="m61 488 1 8-2-16z"/><path d="m102 482 5.3333 2.6667z"/><path d="m252 432 58-29-71 35.5-53 26.5z"/><path d="m154 456.5v-5.5z"/><path d="m300 390 10 13-58 29-72 18z"/><path d="m252 432-66 33-6-15z"/><path d="m186 465-32 8v-13-3.5l26-6.5z"/><path d="m150.9412 473.7647-1.9412.4853 3-5.25z"/><path d="m154 473-3.0588.7647 1.0588-4.7647 2-9z"/><path d="m149 474.25 3-5.25z"/><path d="m150.9412 473.7647 3.0588-.7647 32-8-37 9.25z"/><path d="m102 482-2.8-1.4-3.2-5.6z"/><path d="m99.2 480.6-9.2-4.6v-3.5l3.1765-.7941 2.8235 3.2941z"/><path d="m96 475-2.8235-3.2941.8235-.2059z"/><path d="m90 476 9.2 4.6 2.8 1.4 5.3333 2.6667-13.3333 3.3333h-4z"/><path d="m107.3333 484.6667-1.3333.3333-12 3z"/><path d="m61 488-1-8 30-7.5v3.5 12z"/><path d="m90 472.5-30 7.5z"/><path d="m90 489-28 7-1-8h29z"/><path d="m94 488-4 1v-1z"/><path d="m-60 480-2 16-28-7v-16.5z"/><path d="m-62 496-28-7z"/><path d="m-154 473 5 1.25-1-.25-4-1-32-8z"/><path d="m-92 468-2 3.5z"/><path d="m-90 489-12.25-3.0625 6.25-10.9375 2-3.5 4 1z"/><path d="m-90 472.5-4-1 1.0588.2647z"/><path d="m-92 468 2-8z"/><path d="m-102.25 485.9375-2.5735-.6434 2.8235-3.2941 6-7z"/><path d="m-180 450 26 6.5z"/><path d="m-300 390 54 27 66 33z"/><path d="m-154 456.5v-5.5z"/><path d="m-310 403 10-13 120 60-72-18z"/><path d="m-180 450-6 15-66-33z"/><path d="m-154 460 2 9-2-3.5z"/><path d="m-154 465.5 2 3.5 3 5.25-5-1.25z"/><path d="m-154 456.5v3.5 5.5 7.5l-32-8 6-15z"/><path d="m-104.8235 485.2941-2.5098-.6274 5.3333-2.6667z"/><path d="m-390 300-13 10z"/><path d="m-489 90 3.0625 12.25.6434 2.5735.6274 2.5098-3.3333-13.3333z"/><path d="m-432 252 29 58-62-124z"/><path d="m-456.5 154h4.9266.5734z"/><path d="m-390 300-13 10-29-58-18-72z"/><path d="m-460 154h3.5z"/><path d="m-484.6667 107.3333-.6274-2.5098 3.2941-2.8235z"/><path d="m-473.7647 150.9412-.4853-1.9412 5.25 3z"/><path d="m-473 154-.7647-3.0588 4.7647 1.0588 9 2z"/><path d="m-482 102-3.2941 2.8235-.6434-2.5735 10.9375-6.25z"/><path d="m-472.5 90 1 4-3.5 2-10.9375 6.25-3.0625-12.25z"/><path d="m-473 154h13 3.5l6.5 26-15 6z"/><path d="m-432 252-33-66 15-6z"/><path d="m62-496-2 16z"/><path d="m496 62-16-2z"/><path d="m481-370-51.1802 39.3694-26.8198 20.6306-93-93 60-78z"/><path d="m370-481 111 111z"/><path d="m488-127-2-7z"/><path d="m486-134-6.6667-23.3333-8.8205-30.8718 17.4872-6.9949v68.2z"/><path d="m592-74-85.7931 10.7241-18.2069-63.7241v-68.2l67-26.8z"/><path d="m429.8198-330.6306 51.1802-39.3694 74 148-67 26.8-17.4872 6.9949z"/><path d="m481-370 74 148z"/><path d="m555-222 37 148z"/><path d="m488-118v-9z"/><path d="m506.2069-63.2759-10.2069 1.2759-8-32v-20-4-9z"/><path d="m496-62-8-32z"/><path d="m465-186 5.5128-2.2051 8.8205 30.8718z"/><path d="m403-310 26.8198-20.6306 40.693 142.4255-5.5128 2.2051z"/><path d="m484.6667-107.3333-2.6667 5.3333 1.3458-2.6916 2.6542-5.3084z"/><path d="m488-94-3-12 1-4 2-4z"/><path d="m485-106-.3333-1.3333 1.3333-2.6667z"/><path d="m486-110 2-8z"/><path d="m486-110 2-8v4z"/><path d="m482-142-12-24-5-20 14.3333 28.6667 6.6667 23.3333z"/><path d="m470-166 12 24-6-6-2-2z"/><path d="m474.25-149-.25-1 2 2z"/><path d="m482-142-6-6z"/><path d="m486-134-.1722-.3443-3.8278-7.6557z"/><path d="m476-148-1.75-1z"/><path d="m469-152-9-2z"/><path d="m592 0h-96v-62l96-12z"/><path d="m592 74-96-12v-62h96z"/><path d="m496 0v62l-16-2-16-2-16-2v-56z"/><path d="m222-555 148 74z"/><path d="m69.3333-554.6667 4.6667-37.3333 9 2.25 58.6 102.55-9.6-4.8z"/><path d="m65.6471-525.1765 3.6862-29.4902 62.6667 62.6667z"/><path d="m310-403-124-62 36-90 148 74z"/><path d="m222-555-36 90-44.4-22.2-58.6-102.55z"/><path d="m149-474.25 3 5.25-1.1959-2.0927-2.8041-4.9073z"/><path d="m186-465-37-9.25-1-1.75-6.4-11.2z"/><path d="m186-465-32-8-3.0588-.7647-1.9412-.4853z"/><path d="m148-476-6-6z"/><path d="m141.6-487.2 6.4 11.2-6-6-10-10z"/><path d="m142-482-8-4z"/><path d="m134-486-68.9412-34.4706.5883-4.7059 66.3529 33.1765 10 10z"/><path d="m134-486-7-2z"/><path d="m127-488-63.7241-18.2069 1.7829-14.2637 68.9412 34.4706z"/><path d="m118-488h-24l-32-8 1.2759-10.2069 63.7241 18.2069z"/><path d="m110-486-4 1-12-3h24z"/><path d="m94-488 12 3z"/><path d="m102-482 5.3333-2.6667z"/><path d="m107.3333-484.6667-1.3333-.3333 4-1z"/><path d="m106-485 1.3333.3333z"/><path d="m102-482-6 7z"/><path d="m496 62 96 12-4 16h-99z"/><path d="m592 74-4 16z"/><path d="m0-496h-62l-12-96h74z"/><path d="m-74-592 12 96-28 7v-99z"/><path d="m69.3333-554.6667-3.6862 29.4902-.5883 4.7059-1.7829 14.2637-1.2759 10.2069h-62v-96h74z"/><path d="m74-592h-74-74z"/><path d="m0-496h62l-2 16-2 16-2 16h-56z"/><path d="m-62-496-28 7z"/><path d="m-154-473 4-1 1-.25-5 1.25-32 8z"/><path d="m-90-489-17.3333 4.3333-2.6667-1.3333-44-22v-64l64-16z"/><path d="m-154-497 36 9h-9-27z"/><path d="m-118-488-36-9v-11l44 22z"/><path d="m-149-474.25-1 .25 2-2z"/><path d="m-154-480.2857 20-5.7143-8 4-12 6z"/><path d="m-154-488h27l-7 2-20 5.7143z"/><path d="m-148-476-2 2-4 1v-3l12-6z"/><path d="m-154-508v11 9 7.7143 4.2857 3l-32 8-36-90 68-17z"/><path d="m-186-465-144 36-40-52 148-74z"/><path d="m-148-476-1 1.75z"/><path d="m-107.3333-484.6667-2.6667-1.3333z"/><path d="m-110-486-8-2z"/><path d="m-90-588-64 16-68 17z"/><path d="m-370-481 148-74z"/><path d="m-186-465-124 62-20-26z"/><path d="m-149-474.25-1.8041 3.1573-1.1959 2.0927z"/><path d="m-403-310-78-60 111-111 40 52 20 26z"/><path d="m-481-370 111-111z"/><path d="m-403-310-29 58-33 66z"/><path d="m-465-186-9.25 37-1.75 1-11.2 6.4z"/><path d="m-465-186-8 32-.7647 3.0588-.4853 1.9412z"/><path d="m-482-102-2.6667-5.3333z"/><path d="m-482-102 7 6z"/><path d="m-486-110-2-4v-4z"/><path d="m-488-114 2 4 1.3333 2.6667-3.3333 13.3333z"/><path d="m-484.6667-107.3333-.6274 2.5098-.6434 2.5735-2.0625 8.25z"/><path d="m-488-130 2-4-2 7z"/><path d="m-488-136 6-6-4 8-2 4z"/><path d="m-487.2-141.6 11.2-6.4-6 6-6 6v-4z"/><path d="m-481-370 78 60-62 124-23-9.2v-160.8z"/><path d="m-488-195.2 23 9.2-22.2 44.4-.8.4571z"/><path d="m-488-141.1429.8-.4571-.8 1.6z"/><path d="m-555-222 67 26.8v54.0571 1.1429 4 6 3 9 4 20l-8 32-96-12z"/><path d="m-488-195.2-67-26.8 67-134z"/><path d="m-496 0h-96v-74l96 12z"/><path d="m-592 74v-74h96v62z"/><path d="m-592-74v74 74z"/><path d="m-496 0v-62l16 2 16 2 16 2v56z"/><path d="m-592 74 96-12 7 28h-99z"/><path d="m-496 62 7 28z"/><path d="m488 127v-9z"/><path d="m588 90-16 64h-84v-27-9-24l1-4z"/><path d="m489 90-1 4z"/><path d="m486 134 2-7z"/><path d="m480.2857 154 5.7143-20 2-7v27z"/><path d="m482 142 3.8278-7.6557.1722-.3443z"/><path d="m476 154 6-12 4-8-5.7143 20z"/><path d="m488 118-2-8z"/><path d="m486 110-1-4 3-12v24z"/><path d="m488 94-3 12z"/><path d="m484.6667 107.3333 1.3333 2.6667-2.6542-5.3084-1.3458-2.6916z"/><path d="m484.6667 107.3333.3333-1.3333 1 4z"/><path d="m485 106-.3333 1.3333z"/><path d="m482 102-7-6z"/><path d="m473 154 1-4 2-2 6-6-6 12z"/><path d="m474 150 .25-1 1.75-1z"/><path d="m476 148 6-6z"/><path d="m474.25 149-5.25 3 7-4z"/><path d="m469 152-9 2z"/><path d="m476 154h4.2857 7.7143 84l-17 68-90-36 8-32z"/><path d="m481 370-78-60 62-124 90 36z"/><path d="m403 310 62-124z"/><path d="m473 154-8 32z"/><path d="m370 481-60-78 93-93 78 60z"/><path d="m222 555-148 37z"/><path d="m239 546.5 117-58.5 14-7-148 74z"/><path d="m186 465-44.4 22.2 6.4-11.2 1-1.75z"/><path d="m136 488 6-6 6-6-6.4 11.2-1.6.8z"/><path d="m152 469 2-9z"/><path d="m130 488 4-2 8-4-6 6z"/><path d="m127 488 7-2-4 2z"/><path d="m141.6 487.2-.4571.8h-1.1429z"/><path d="m195.2 488-9.2-23 53-26.5v49.5z"/><path d="m186 465 9.2 23h-54.0571l.4571-.8z"/><path d="m370 481-14 7h-117v-49.5l71-35.5z"/><path d="m110 486 8 2h-4z"/><path d="m106 485 1.3333-.3333 2.6667 1.3333z"/><path d="m94 488 12-3 4 1 4 2z"/><path d="m94 488h20 4 9 3 6 4 1.1429 54.0571 43.8v58.5l-17 8.5-148 37-12-96z"/><path d="m356 488-117 58.5v-58.5z"/><path d="m94 488-32 8 28-7z"/><path d="m0 592h-74l12-96h62z"/><path d="m74 592h-74v-96h62z"/><path d="m0 496h-62l2-16 2-16 2-16h56z"/><path d="m-62 496-12 96-16-4v-99z"/><path d="m-74 592-16-4z"/><path d="m-310 403 10-13z"/><path d="m-90 489-4-1-13.3333-3.3333 2.5098.6274 2.5735.6434z"/><path d="m-268 424-42-21 58 29 66 33z"/><path d="m-107.3333 484.6667 5.3333-2.6667z"/><path d="m-330 429 3.8462-5h58.1538l82 41z"/><path d="m-326.1538 424 16.1538-21 42 21z"/><path d="m-90 588-64-16v-84h27 9 4 20l4 1z"/><path d="m-154 473 4 1 2 2 6 6-12-6z"/><path d="m-154 480.2857 20 5.7143 7 2h-27z"/><path d="m-118 488 8-2-4 2z"/><path d="m-114 488 4-2 2.6667-1.3333 13.3333 3.3333z"/><path d="m-154 476 12 6 8 4-20-5.7143z"/><path d="m-150 474 1 .25 1 1.75z"/><path d="m-154 476v4.2857 7.7143 84l-68-17 36-90 32 8z"/><path d="m-370 481 40-52 144 36-36 90z"/><path d="m-127 488h.6533 8.3467z"/><path d="m-110 486 2.6667-1.3333z"/><path d="m-118 488 8-2z"/><path d="m-588 90 16 64 17 68z"/><path d="m-473 154-1.25-5 .4853 1.9412.7647 3.0588 8 32z"/><path d="m-469 152 9 2z"/><path d="m-469 152-5.25-3z"/><path d="m-403 310-26 20-36-144z"/><path d="m-489 90 1 4v20 4 9 3 6 5.1429 12.8571h-84l-16-64z"/><path d="m-429 330-52 40-74-148 90-36z"/><path d="m-488 114 2-4-2 8z"/><path d="m-486 134 4 8-6-6v-6z"/><path d="m-482 142 6 6-12-6.8571v-5.1429z"/><path d="m-488 141.1429 12 6.8571 1.75 1 1.25 5h-15z"/><path d="m-488 94 3.3333 13.3333-1.3333 2.6667-2 4z"/><path d="m-486 134-2-4v-3z"/><path d="m-488 154h15l8 32-90 36-17-68z"/><path d="m-474.25 149-1.75-1z"/><path d="m-429 330 26-20 93 93-16.1538 21h-100.8462l-54-54z"/><path d="m-330 429-40 52-57-57h100.8462z"/><path d="m74-592 4-32z"/><path d="m592 74 32 4z"/><path d="m481-370 26-20 78 156-30 12z"/><path d="m555-222 30-12 36 144z"/><path d="m592 74v-74-74z"/><path d="m222-555-139-34.75-9-2.25z"/><path d="m222-555 12-30 132 66z"/><path d="m222-555 144 36 24 12-20 26z"/><path d="m592 74 32 4-3 12h-33z"/><path d="m-74-592-16 4z"/><path d="m-592 74-32 4z"/><path d="m-90-588-132 33-12-30 144-36z"/><path d="m-222-555-148 74-20-26 24-12z"/><path d="m-481-370-7 14-67 134z"/><path d="m-555-222-37 148z"/><path d="m-555-222-37 148-32-4 3-12z"/><path d="m-592 74 4 16z"/><path d="m555 222-74 148z"/><path d="m555 222 30 12-78 156-26-20z"/><path d="m588 90-33 132 17-68z"/><path d="m370 481 111-111 26 20-117 117z"/><path d="m370 481 111-111z"/><path d="m-74 592-4 32z"/><path d="m74 592 4 32z"/><path d="m370 481 20 26-24 12-144 36z"/><path d="m222 555 12 30-156 39-4-32z"/><path d="m-74 592-4 32-12-3v-33z"/><path d="m-90 588-132-33 68 17z"/><path d="m-370 481 148 74z"/><path d="m-222 555-12 30-132-66z"/><path d="m-555 222 74 148z"/><path d="m-588 90 33 132-66-132z"/><path d="m-555 222-30 12-36-144z"/><path d="m-555 222 74 148-26 20-78-156z"/><path d="m-481 370 54 54 57 57z"/></g><g id="b"><path d="m688 86-1 4z"/><path d="m175-211v8z"/><path d="m175-211 2-8 4-8 6-6 8-4 8-2v28z"/><path d="m185-183-4-4-4-8-2-8v-8h28v28z"/><path d="m203-175-8-2-8-4-2-2h18z"/><path d="m203-211v-28h8l8 2 8 4 4 4v18z"/><path d="m231-201v16l-2 2h-26v-28h28z"/><path d="m229-183-2 2-8 4-8 2h-8v-8z"/><path d="m233-227 4 8 2 8v8l-.5 2h-7.5v-10-18z"/><path d="m238.5-201-1.5 6-4 8-2 2v-16z"/><path d="m559-430-52 40-117-117 3.871-5.0323 36.129-46.9677z"/><path d="m559-430-129-129z"/><path d="m507-390-26 20-111-111 20-26z"/><path d="m211-239h-8z"/><path d="m239-203v-8z"/><path d="m203-175h8z"/><path d="m237-219-4-8z"/><path d="m181-187 4 4 2 2z"/><path d="m239-211-2-8z"/><path d="m237-195 1.5-6 .5-2z"/><path d="m175-203 2 8z"/><path d="m233-187 4-8z"/><path d="m177-219-2 8z"/><path d="m227-181 2-2 2-2 2-2-3 3z"/><path d="m177-195 4 8z"/><path d="m181-227-4 8z"/><path d="m219-177 8-4z"/><path d="m187-233-6 6z"/><path d="m219-237-8-2z"/><path d="m187-181 8 4z"/><path d="m211-175 8-2z"/><path d="m195-237-8 4z"/><path d="m203-239-8 2z"/><path d="m195-177 8 2z"/><path d="m645-258 43 172z"/><path d="m645-258-86-172z"/><path d="m592-74 32-4z"/><path d="m645-258 43 172-64 8-3-12-36-144z"/><path d="m507-390 52-40 86 172-60 24z"/><path d="m624-78-32 4-37-148 66 132z"/><path d="m430-559-172-86z"/><path d="m366-519-132-66 24-60 172 86-36.129 46.9677z"/><path d="m258-645-24 60-156-39 8-64z"/><path d="m234-585-12 30-148-37 4-32z"/><path d="m390-507-24-12 27.871 6.9677z"/><path d="m624 78 64 8-1 4h-66z"/><path d="m-86-688 8 64-12 3v-66z"/><path d="m-78-624 4 32-16 4v-33z"/><path d="m-90-687-168 42z"/><path d="m-234-585-132 66-24 12-40-52 172-86z"/><path d="m-90-621-144 36-24-60 168-42z"/><path d="m-234-585 12 30-144 36z"/><path d="m-175-203v-8z"/><path d="m-203-239 8 2 8 4 6 6 4 8 2 8h-28z"/><path d="m-175-211v8l-2 8-4 8-4 4h-18v-28z"/><path d="m-185-183-2 2-8 4-8 2v-8z"/><path d="m-231-229 4-4 8-4 8-2h8v28h-28z"/><path d="m-203-211v28h-26l-2-2v-16-10z"/><path d="m-203-183v8h-8l-8-2-8-4-2-2z"/><path d="m-238.5-201-.5-2v-8l2-8 4-8 2-2v18 10z"/><path d="m-233-187-4-8-1.5-6h7.5v16z"/><path d="m-507-390-52-40 129-129 40 52z"/><path d="m-430-559-129 129z"/><path d="m-181-187 4-8z"/><path d="m-211-239h8z"/><path d="m-239-211v8z"/><path d="m-175-211-2-8z"/><path d="m-187-181 2-2 4-4z"/><path d="m-177-195 2-8z"/><path d="m-239-203 .5 2 1.5 6z"/><path d="m-177-219-4-8z"/><path d="m-237-219-2 8z"/><path d="m-181-227-6-6z"/><path d="m-237-195 4 8z"/><path d="m-187-233-8-4z"/><path d="m-195-177 8-4z"/><path d="m-233-187 2 2 2 2 2 2z"/><path d="m-195-237-8-2z"/><path d="m-231-229-2 2 6-6z"/><path d="m-203-175 8-2z"/><path d="m-227-181 8 4z"/><path d="m-211-239-8 2z"/><path d="m-219-237-8 4z"/><path d="m-219-177 8 2z"/><path d="m-390-507 20 26-111 111-26-20z"/><path d="m-621-90-3 12-2.8235-.3529z"/><path d="m-645-258 60 24-36 144-5.8235 11.6471-61.1765-7.6471z"/><path d="m-645-258 86-172 52 40-78 156z"/><path d="m-585-234 30 12-66 132z"/><path d="m-507-390 26 20-74 148-30-12z"/><path d="m-688 86 64-8 3 12h-66z"/><path d="m-624 78 32-4 4 16h-33z"/><path d="m175 203v8z"/><path d="m181 187-4 8z"/><path d="m687 90-42 168-60-24 36-144z"/><path d="m559 430-52-40 78-156 60 24z"/><path d="m621 90-36 144-30-12z"/><path d="m621 90-66 132 33-132z"/><path d="m430 559-36.129-46.9677-3.871-5.0323 117-117 52 40z"/><path d="m203 239-8-2-8-4-6-6-4-8-2-8h28z"/><path d="m175 211v-8l2-8 4-8 4-4h18v28z"/><path d="m185 183 2-2 8-4 8-2v8z"/><path d="m231 229-4 4-8 4-8 2h-8v-28h28z"/><path d="m203 211v-28h26l2 2v16 10z"/><path d="m203 183v-8h8l8 2 8 4 2 2z"/><path d="m238.5 201 .5 2v8l-2 8-4 8-2 2v-18-10z"/><path d="m233 187 4 8 1.5 6h-7.5v-16z"/><path d="m187 181-2 2-4 4z"/><path d="m203 239h8z"/><path d="m239 211v-8z"/><path d="m181 227 6 6z"/><path d="m237 219 2-8z"/><path d="m233 187-2-2-2-2-2-2z"/><path d="m237 195-4-8z"/><path d="m211 175h-8z"/><path d="m175 211 2 8z"/><path d="m239 203-.5-2-1.5-6z"/><path d="m177 195-2 8z"/><path d="m177 219 4 8z"/><path d="m227 181-8-4z"/><path d="m187 233 8 4z"/><path d="m219 237 8-4z"/><path d="m195 177-8 4z"/><path d="m219 177-8-2z"/><path d="m195 237 8 2z"/><path d="m211 239 8-2z"/><path d="m203 175-8 2z"/><path d="m258 645-172 43z"/><path d="m-86 688 8-64 4-32-4 32z"/><path d="m78 624 8 64-8-64-4-32z"/><path d="m390 507 3.871 5.0323-27.871 6.9677z"/><path d="m258 645-172 43-8-64 156-39z"/><path d="m393.871 512.0323 36.129 46.9677-172 86-24-60 132-66z"/><path d="m366 519-132 66-12-30z"/><path d="m-78 624-8 64-4-1v-66z"/><path d="m-86 688-4-1z"/><path d="m-687 90 42 168z"/><path d="m-258 645-172-86 40-52 24 12 132 66z"/><path d="m-90 687-168-42 24-60 144 36z"/><path d="m-390 507 20-26 148 74-144-36z"/><path d="m-90 621-144-36 12-30 132 33z"/><path d="m-175 211v-8z"/><path d="m-175 203-2-8z"/><path d="m-177 195-4-8z"/><path d="m-621 90 36 144-60 24-42-168z"/><path d="m-645 258 60-24 78 156-52 40z"/><path d="m-175 211-2 8-4 8-6 6-8 4-8 2v-28z"/><path d="m-185 183 4 4 4 8 2 8v8h-28v-28z"/><path d="m-203 175 8 2 8 4 2 2h-18z"/><path d="m-203 211v28h-8l-8-2-8-4-4-4v-18z"/><path d="m-231 201v-16l2-2h26v28h-28z"/><path d="m-229 183 2-2 8-4 8-2h8v8z"/><path d="m-233 227-4-8-2-8v-8l.5-2h7.5v10 18z"/><path d="m-238.5 201 1.5-6 4-8 2-2v16z"/><path d="m-187 181-8-4z"/><path d="m-187 233 6-6z"/><path d="m-181 227 4-8z"/><path d="m-239 211v-8z"/><path d="m-203 175h-8z"/><path d="m-177 219 2-8z"/><path d="m-227 181-2 2-2 2-2 2z"/><path d="m-195 237 8-4z"/><path d="m-181 187-4-4-2-2z"/><path d="m-195 177-8-2z"/><path d="m-239 211 2 8z"/><path d="m-203 239 8-2z"/><path d="m-237 195-1.5 6-.5 2z"/><path d="m-211 175-8 2z"/><path d="m-237 219 4 8z"/><path d="m-219 237 8 2z"/><path d="m-233 187-4 8z"/><path d="m-219 177-8 4z"/><path d="m-231 229 4 4-6-6z"/><path d="m-507 390 117 117-40 52-129-129z"/><path d="m-507 390 26-20 111 111-20 26z"/><path d="m74-592 4-32 8-64-8 64z"/><path d="m592 74 32 4 64 8-64-8z"/><path d="m592 74v-148z"/><path d="m-74-592-4-32-1-8z"/><path d="m74-592h-148z"/><path d="m-632-79 8 1 32 4z"/><path d="m-592-74v148z"/><path d="m-74 592h74 74z"/><path d="m-458.2946 90h-1.7054 4z"/><path d="m458.2946 90h-6.2946 4 4z"/><path d="m451.5734-154h4.9266 3.5l9 2 5.25 3 1.75 1 6 6 3.8278 7.6557-26.8553 7.1958-.1906.0511z"/><path d="m427.1414-136.9976 2.8586-5.0024 7-6 3.9375-2.25 3.0625-1.75 7-2h.5734l7.2085 26.9026-26.8553 7.1958-.1906.0511z"/><path d="m424.0521-117.7916-.0521-.2084v-8l2-9 1.1414-1.9976 4.5946 17.1471z"/><path d="m458.9725-127.1485 26.8553-7.1958.1722.3443 2 7v9l-2 8-2.6542 5.3084-17.1264 4.589z"/><path d="m456.2999-97.4446-15.5408 4.1641-2.0067-1.1467-6.8258-25.4744 26.8553-7.1958.1906-.0511 7.2469 27.0459z"/><path d="m438.7524-94.4272-2.7524-1.5728-6-7-4-7-1.9479-7.7916 7.6839-2.0589.1906-.0511z"/><path d="m482-102-7 6-3.5 2-3.5 2-8 2h-1.7054l-1.9947-7.4446 9.9195-2.658 17.1264-4.589z"/><path d="m458.2946-90h-6.2946l-9-2-2.2409-1.2805 15.5408-4.1641z"/><path d="m426-110 4 7z"/><path d="m436-96 2.7524 1.5728 2.0067 1.1467 2.2409 1.2805-4.6667-2.6667z"/><path d="m443-92 9 2z"/><path d="m430-103 6 7z"/><path d="m468-92 3.5-2z"/><path d="m471.5-94 3.5-2z"/><path d="m460-90 8-2z"/><path d="m475-96 7-6z"/><path d="m474.25-149-5.25-3z"/><path d="m451.5734-154h-.5734 5.5z"/><path d="m444-152-3.0625 1.75z"/><path d="m440.9375-150.25-3.9375 2.25z"/><path d="m424-118 .0521.2084 1.9479 7.7916z"/><path d="m426-135-2 9z"/><path d="m430-142-2.8586 5.0024-1.1414 1.9976 1.5652-2.7391z"/><path d="m92.1068-468.1868 1.8932-3.3132 2-3.5 6-7 8-4 8-2h8.3467l-7.2032 26.8826-.0437.1633z"/><path d="m94.5453-438.5457-2.5453-4.4543-2-9v-8l2-8 .1068-.1868 26.993 7.2327-7.2032 26.8826-.0437.1633z"/><path d="m109.7692-426.1319-6.7692-3.8681-7-6-1.4547-2.5457 17.3076 4.6375z"/><path d="m119.1435-461.1174 7.2032-26.8826h.6533l7 2 8 4 6 6 2.8041 4.9073-4.6146 17.2222z"/><path d="m143.5572-444.0468-4.1628 15.5357-2.1535 1.2306-25.3443-6.791 7.2032-26.8826.0437-.1633 27.046 7.2469z"/><path d="m137.2409-427.2805-2.2409 1.2805-9 2h-8l-8-2-.2308-.1319 2.0837-7.7763.0437-.1633z"/><path d="m152-469 2 9v3.5 5.5l-2 7-1.0978 1.9212-7.345-1.968 2.6323-9.8237 4.6146-17.2222z"/><path d="m150.9022-442.0788-.6522 1.1413-2.25 3.9375-6 7-2.6056 1.4889 4.1628-15.5357z"/><path d="m103-430 6.7692 3.8681.2308.1319z"/><path d="m154-460-2-9z"/><path d="m126.3467-488h-8.3467 9z"/><path d="m110-486 8-2z"/><path d="m96-475-2 3.5z"/><path d="m102-482 5.3333-2.6667 2.6667-1.3333z"/><path d="m90-460v8-4z"/><path d="m94-471.5-1.8932 3.3132-.1068.1868z"/><path d="m92-443 2.5453 4.4543 1.4547 2.5457-1.3333-2.3333z"/><path d="m152-444 2-7z"/><path d="m150.25-440.9375.6522-1.1413 1.0978-1.9212z"/><path d="m148-437 2.25-3.9375z"/><path d="m118-424h8z"/><path d="m110-426 8 2z"/><path d="m126-424 9-2z"/><path d="m142-430 6-7z"/><path d="m135-426 2.2409-1.2805 2.1535-1.2306 2.6056-1.4889-4.2609 2.4348z"/><path d="m-110-426 .2308-.1319 6.7692-3.8681z"/><path d="m-119.1435-461.1174-7.2032-26.8826h8.3467l8 2 2.6667 1.3333 5.3333 2.6667 6 7 2 3.5 1.8932 3.3132-26.993 7.2327z"/><path d="m-92.1068-468.1868.1068.1868 2 8v4 4l-2 9-2.5453 4.4543-17.3076 4.6375-.0437-.1633-7.2032-26.8826z"/><path d="m-94.5453-438.5457-1.4547 2.5457-7 6-6.7692 3.8681-2.0837-7.7763z"/><path d="m-150.8041-471.0927 1.8041-3.1573 1-1.75 6-6 8-4 7-2h.6533l7.2032 26.8826-27.046 7.2469z"/><path d="m-119.1435-461.1174.0437.1633 7.2032 26.8826-25.3443 6.791-.4982-.2847-1.6553-.9459-4.1628-15.5357-2.6323-9.8237z"/><path d="m-111.8966-434.0715.0437.1633 2.0837 7.7763-.2308.1319-8 2h-8l-9-2-2.2409-1.2805z"/><path d="m-150.9022-442.0788-1.0978-1.9212-2-7v-5.5-3.5l2-9 1.1959-2.0927 4.6146 17.2222 2.6323 9.8237z"/><path d="m-142-430-6-7-2.9022-5.0788 7.345-1.968 4.1628 15.5357z"/><path d="m-92-443 2-9z"/><path d="m-103-430 7-6z"/><path d="m-96-436 1.4547-2.5457 2.5453-4.4543-2.6667 4.6667z"/><path d="m-126.3467-488h-.6533 9z"/><path d="m-148-476 6-6z"/><path d="m-142-482 8-4z"/><path d="m-134-486 7-2z"/><path d="m-94-471.5-2-3.5z"/><path d="m-152-469-2 9z"/><path d="m-96-475-6-7z"/><path d="m-102-482-5.3333-2.6667z"/><path d="m-90-460-2-8z"/><path d="m-92-468-.1068-.1868-1.8932-3.3132z"/><path d="m-154-451v-5.5z"/><path d="m-118-424 8-2z"/><path d="m-152-444 1.0978 1.9212 2.9022 5.0788-2.25-3.9375z"/><path d="m-142-430 2.6056 1.4889 1.6553.9459z"/><path d="m-154-451 2 7z"/><path d="m-126-424h8z"/><path d="m-135-426 9 2z"/><path d="m-458.9725-127.1485-26.8553-7.1958 3.8278-7.6557 6-6 7-4 9-2h3.5 4.9266l-7.2085 26.9026z"/><path d="m-451.5734-154h.5734l7 2 7 4 7 6 2.4348 4.2609.4238.7415-4.5946 17.1471-.1906-.0511-26.8553-7.1958z"/><path d="m-427.1414-136.9976 1.1414 1.9976 2 9v8l-.0521.2084-7.6839-2.0589z"/><path d="m-483.3458-104.6916-2.6542-5.3084-2-8v-9l2-7 .1722-.3443 26.8553 7.1958-7.2469 27.0459z"/><path d="m-458.9725-127.1485.1906.0511 26.8553 7.1958-6.8258 25.4744-2.0067 1.1467-15.5408-4.1641-9.9195-2.658z"/><path d="m-431.9266-119.9016.1906.0511 7.6839 2.0589-1.9479 7.7916-4 7-6 7-2.3333 1.3333-.4191.2395z"/><path d="m-458.2946-90h-1.7054l-8-2-3.5-2-3.5-2-7-6-1.3458-2.6916 17.1264 4.589 9.9195 2.658z"/><path d="m-443-92-9 2h-4-2.2946l1.9947-7.4446 15.5408 4.1641z"/><path d="m-430-103 4-7z"/><path d="m-488-127v9z"/><path d="m-460-90h1.7054 2.2946z"/><path d="m-443-92 2.2409-1.2805 2.0067-1.1467.4191-.2395z"/><path d="m-471.5-94 3.5 2z"/><path d="m-436-96 6-7z"/><path d="m-452-90 9-2z"/><path d="m-427.5652-137.7391-2.4348-4.2609z"/><path d="m-426-135-1.1414-1.9976-.4238-.7415z"/><path d="m-426-110 1.9479-7.7916.0521-.2084z"/><path d="m-424-126-2-9z"/><path d="m-437-148-7-4 3.0625 1.75z"/><path d="m-430-142-7-6z"/><path d="m-451-154h-.5734-4.9266z"/><path d="m-444-152-7-2z"/><path d="m-469-152-7 4 1.75-1z"/><path d="m-456.5-154h-3.5z"/><path d="m-460-154-9 2z"/><path d="m-476-148-6 6z"/><path d="m-482-142-3.8278 7.6557-.1722.3443z"/><path d="m-486-134-2 7z"/><path d="m-486-110 2.6542 5.3084 1.3458 2.6916-2.6667-5.3333z"/><path d="m-488-118 2 8z"/><path d="m-475-96 3.5 2z"/><path d="m458.9725 127.1485 26.8553 7.1958-3.8278 7.6557-6 6-7 4-9 2h-3.5-4.9266l7.2085-26.9026z"/><path d="m451.5734 154h-.5734l-7-2-7-4-7-6-2.8586-5.0024 4.5946-17.1471.1906.0511 26.8553 7.1958z"/><path d="m427.1414 136.9976-1.1414-1.9976-2-9v-8l.0521-.2084 7.6839 2.0589z"/><path d="m483.3458 104.6916 2.6542 5.3084 2 8v9l-2 7-.1722.3443-26.8553-7.1958 7.2469-27.0459z"/><path d="m458.9725 127.1485-.1906-.0511-26.8553-7.1958 6.8258-25.4744 2.0067-1.1467 15.5408 4.1641 9.9195 2.658z"/><path d="m431.9266 119.9016-.1906-.0511-7.6839-2.0589 1.9479-7.7916 4-7 6-7 2.7524-1.5728z"/><path d="m458.2946 90h1.7054l8 2 3.5 2 3.5 2 7 6 1.3458 2.6916-17.1264-4.589-9.9195-2.658z"/><path d="m443 92 9-2h6.2946l-1.9947 7.4446-15.5408-4.1641z"/><path d="m430 103-4 7z"/><path d="m443 92-2.2409 1.2805-2.0067 1.1467-2.7524 1.5728 2.3333-1.3333z"/><path d="m424 118v8z"/><path d="m426 135 1.1414 1.9976 2.8586 5.0024-2.4348-4.2609z"/><path d="m475 96-3.5-2z"/><path d="m460 154 9-2z"/><path d="m424 126 2 9z"/><path d="m468 92-8-2z"/><path d="m426 110-1.9479 7.7916-.0521.2084z"/><path d="m430 142 7 6z"/><path d="m444 152 7 2z"/><path d="m437 148 7 4-3.0625-1.75z"/><path d="m119.1435 461.1174 7.2032 26.8826h-8.3467l-8-2-8-4-6-7-3.8932-6.8132 26.993-7.2327z"/><path d="m92.1068 468.1868-.1068-.1868-2-8v-8l2-9 2.5453-4.4543 17.3076-4.6375.0437.1633 7.2032 26.8826z"/><path d="m94.5453 438.5457 1.4547-2.5457 7-6 6.7692-3.8681 2.0837 7.7763z"/><path d="m150.8041 471.0927-2.8041 4.9073-6 6-8 4-7 2h-.6533l-7.2032-26.8826 27.046-7.2469z"/><path d="m119.1435 461.1174-.0437-.1633-7.2032-26.8826 25.3443-6.791 2.1535 1.2306 4.1628 15.5357 2.6323 9.8237z"/><path d="m111.8966 434.0715-.0437-.1633-2.0837-7.7763.2308-.1319 8-2h8l9 2 2.2409 1.2805z"/><path d="m150.9022 442.0788 1.0978 1.9212 2 7v5.5 3.5l-2 9-1.1959 2.0927-4.6146-17.2222-2.6323-9.8237z"/><path d="m142 430 6 7 2.25 3.9375.6522 1.1413-7.345 1.968-4.1628-15.5357z"/><path d="m110 426-.2308.1319-6.7692 3.8681z"/><path d="m118 488h8.3467.6533z"/><path d="m90 452v8-4z"/><path d="m96 436-1.4547 2.5457-2.5453 4.4543 2.6667-4.6667z"/><path d="m92 443-2 9z"/><path d="m103 430-7 6z"/><path d="m102 482 8 4-2.6667-1.3333z"/><path d="m110 486 8 2z"/><path d="m92 468 .1068.1868 3.8932 6.8132-2-3.5z"/><path d="m96 475 6 7z"/><path d="m90 460 2 8z"/><path d="m118 424h8z"/><path d="m118 424-8 2z"/><path d="m150.25 440.9375-2.25-3.9375z"/><path d="m135 426-9-2z"/><path d="m142 430-2.6056-1.4889-2.1535-1.2306-2.2409-1.2805 2.7391 1.5652z"/><path d="m154 451-2-7z"/><path d="m152 444-1.0978-1.9212-.6522-1.1413z"/><path d="m148 476 2.8041-4.9073 1.1959-2.0927-3 5.25z"/><path d="m154 460v-3.5z"/><path d="m142 482 6-6z"/><path d="m134 486 8-4z"/><path d="m127 488 7-2z"/><path d="m-92.1068 468.1868-3.8932 6.8132-6 7-5.3333 2.6667-2.6667 1.3333-8 2h-8.3467l7.2032-26.8826.0437-.1633z"/><path d="m-94.5453 438.5457 2.5453 4.4543 2 9v4 4l-2 8-.1068.1868-26.993-7.2327 7.2032-26.8826.0437-.1633z"/><path d="m-109.7692 426.1319 6.7692 3.8681 7 6 1.3333 2.3333.1214.2124-17.3076-4.6375z"/><path d="m-119.1435 461.1174-7.2032 26.8826h-.6533l-7-2-8-4-6-6-1-1.75-1.8041-3.1573 4.6146-17.2222z"/><path d="m-143.5572 444.0468 4.1628-15.5357 2.1535-1.2306 25.3443 6.791-7.2032 26.8826-.0437.1633-27.046-7.2469z"/><path d="m-137.2409 427.2805 2.2409-1.2805 9-2h8l8 2 .2308.1319-2.0837 7.7763-.0437.1633z"/><path d="m-152 469-2-9v-3.5-5.5l2-7 1.0978-1.9212 7.345 1.968-2.6323 9.8237-4.6146 17.2222z"/><path d="m-150.9022 442.0788.6522-1.1413 2.25-3.9375 6-7 2.6056-1.4889-4.1628 15.5357z"/><path d="m-451.5734 154h-4.9266-3.5l-9-2-5.25-3-1.75-1-6-6-3.8278-7.6557 26.8553-7.1958.1906-.0511z"/><path d="m-427.1414 136.9976-.4238.7415-2.4348 4.2609-7 6-3.9375 2.25-3.0625 1.75-7 2h-.5734l-7.2085-26.9026 26.8553-7.1958.1906-.0511z"/><path d="m-424.0521 117.7916.0521.2084v8l-2 9-1.1414 1.9976-4.5946-17.1471z"/><path d="m-458.9725 127.1485-26.8553 7.1958-.1722-.3443-2-7v-9l2-8 1.3333-2.6667 1.3209-2.6417 17.1264-4.589z"/><path d="m-456.2999 97.4446 15.5408-4.1641 2.0067 1.1467 6.8258 25.4744-26.8553 7.1958-.1906.0511-7.2469-27.0459z"/><path d="m-438.7524 94.4272 2.7524 1.5728 6 7 4 7 1.9479 7.7916-7.6839 2.0589-.1906.0511z"/><path d="m-482 102 7-6 3.5-2 3.5-2 8-2h1.7054l1.9947 7.4446-9.9195 2.658-17.1264 4.589z"/><path d="m-458.2946 90h2.2946 4l9 2 2.2409 1.2805-15.5408 4.1641z"/><path d="m-103 430-6.7692-3.8681-.2308-.1319z"/><path d="m-90 452-2-9z"/><path d="m-96 436-7-6z"/><path d="m-92 443-2.5453-4.4543-.1214-.2124z"/><path d="m-96 475 3.8932-6.8132.1068-.1868-2 3.5z"/><path d="m-102 482 6-7z"/><path d="m-135 426-2.2409 1.2805-2.1535 1.2306-2.6056 1.4889 4.2609-2.4348z"/><path d="m-126 424h8z"/><path d="m-142 430-6 7z"/><path d="m-110 426-8-2z"/><path d="m-148 437-2.25 3.9375z"/><path d="m-126 424-9 2z"/><path d="m-150.25 440.9375-.6522 1.1413-1.0978 1.9212z"/><path d="m-152 444-2 7z"/><path d="m-154 460v-3.5z"/><path d="m-152 469 1.1959 2.0927 1.8041 3.1573z"/><path d="m-154 460 2 9z"/><path d="m-148 476-1-1.75z"/><path d="m-142 482-6-6z"/><path d="m-134 486-8-4z"/><path d="m-127 488-7-2z"/><path d="m-436 96-2.7524-1.5728-2.0067-1.1467-2.2409-1.2805 4.6667 2.6667z"/><path d="m-426 110-4-7z"/><path d="m-443 92-9-2z"/><path d="m-430 103-6-7z"/><path d="m-460 90-8 2z"/><path d="m-468 92-3.5 2z"/><path d="m-424 118-.0521-.2084-1.9479-7.7916z"/><path d="m-426 135 2-9z"/><path d="m-440.9375 150.25 3.9375-2.25z"/><path d="m-430 142 2.4348-4.2609z"/><path d="m-444 152 3.0625-1.75z"/><path d="m-451 154 7-2z"/><path d="m-482 102-1.3458 2.6916-1.3209 2.6417z"/><path d="m-471.5 94-3.5 2z"/><path d="m-475 96-7 6z"/><path d="m-469 152-5.25-3z"/><path d="m-488 127v-9z"/><path d="m-476 148-6-6z"/><path d="m-486 110 1.3333-2.6667z"/><path d="m-488 118 2-8z"/><path d="m-485.8278 134.3443 3.8278 7.6557-4-8z"/><path d="m-486 134-2-7z"/><path d="m-86-688 2.5 20 4.5 36 1 8z"/><path d="m-688-86 64 8-8-1-36-4.5z"/><path d="m74-592 2.1143-16.9143 1.8857-15.0857z"/><path d="m592 74 32 4z"/><path d="m430-559-40 52 117 117 52-40z"/><path d="m688-86-64 8-32 4 32-4z"/><path d="m645-258-60 24 39 156 64-8z"/><path d="m645-258-86-172-52 40 78 156z"/><path d="m507-390-10.9688 8.4375 58.9688 159.5625 30-12z"/><path d="m430-559-172-86-24 60 156 78z"/><path d="m234-585 24-60-172-43-8 64z"/><path d="m390-507-156-78-12 30 148 74z"/><path d="m258-645-172-43z"/><path d="m688 86-64-8-3 12h66z"/><path d="m624 78-32-4-4 16h33z"/><path d="m-86-688-4 1z"/><path d="m-78-624-8-64-4 1v66z"/><path d="m-78-624-5.5-44-2.5-20z"/><path d="m-78-624 4 32-5-40-4.5-36z"/><path d="m-688 86 1 4z"/><path d="m-624 78 32-4z"/><path d="m-624 78 32-4-32 4-64 8z"/><path d="m-645-258-43 172z"/><path d="m-258-645-172 86 40 52 156-78z"/><path d="m-90-687-168 42 24 60 144-36z"/><path d="m-90-621-144 36 12 30 132-33z"/><path d="m-430-559 172-86z"/><path d="m-430-559-129 129 52 40 117-117z"/><path d="m-645-258 86-172z"/><path d="m-688-86 20 2.5 44 5.5z"/><path d="m-507-390-52-40-86 172 60 24z"/><path d="m-645-258-43 172 64 8 39-156z"/><path d="m-624 78-64 8 1 4h66z"/><path d="m687 90-42 168z"/><path d="m645 258-60-24-78 156 52 40z"/><path d="m559 430-52-40-117 117 40 52z"/><path d="m621 90-31.3333 125.3333-4.6667 18.6667 60 24 42-168z"/><path d="m585 234-4.7727-1.9091-59.5364 82.7455-39.6909 55.1636 26 20z"/><path d="m559 430 86-172z"/><path d="m430 559 129-129z"/><path d="m258 645 172-86z"/><path d="m-74 592-4 32z"/><path d="m258 645 172-86-40-52-156 78z"/><path d="m258 645-24-60-156 39 8 64z"/><path d="m390 507-8.4375-10.9688-159.5625 58.9688 12 30z"/><path d="m234 585-12-30-148 37 4 32z"/><path d="m-86 688 8-64-12-3v66z"/><path d="m-78 624 4-32-16-4v33z"/><path d="m-234 585-156-78-40 52 172 86z"/><path d="m-585 234-60 24 86 172 52-40z"/><path d="m-471 426-36-36-52 40 129 129 40-52z"/><path d="m-90 621-144-36-24 60 168 42z"/><path d="m-687 90 42 168 60-24-36-144z"/><path d="m-621 90 36 144 30-12-33-132z"/><path d="m-90 687-168-42z"/><path d="m-258 645-172-86z"/><path d="m-559 430-86-172z"/><path d="m-430 559-129-129z"/><path d="m580.2273 232.0909 4.7727 1.9091 4.6667-18.6667z"/><path d="m580.2273 232.0909-25.2273-10.0909-34.3091 92.8364z"/><path d="m496.0312-381.5625-15.0312 11.5625 74 148z"/><path d="m381.5625 496.0312-11.5625-15.0312-148 74z"/><path d="m-496.0312 381.5625-10.9688 8.4375 36 36z"/><path d="m481-370-111-111 20-26 117 117z"/><path d="m481-370 15.0312-11.5625 10.9688-8.4375-117-117-20 26z"/><path d="m592-74 32-4z"/><path d="m592-74 32-4z"/><path d="m592-74 32-4-39-156-30 12z"/><path d="m481-370 26-20 78 156-30 12z"/><path d="m592 74v-148z"/><path d="m370-481-148-74 12-30 156 78z"/><path d="m222-555 12-30-156-39-1.8857 15.0857z"/><path d="m222-555-145.8857-53.9143-2.1143 16.9143z"/><path d="m592 74 32 4-3 12h-33z"/><path d="m-74-592-4-32-12 3v33z"/><path d="m74-592h-148z"/><path d="m-222-555-159.5625 58.9688-8.4375-10.9688 156-78z"/><path d="m-90-588-132 33-12-30 144-36z"/><path d="m-370-481 148-74-12-30-156 78z"/><path d="m-222-555-148 74-11.5625-15.0312z"/><path d="m-481-370 111-111-20-26-117 117z"/><path d="m-592-74-16.9143-2.1143-15.0857-1.8857-44-5.5 36 4.5z"/><path d="m-592-74 37-148-53.9143 145.8857z"/><path d="m-555-222-30-12-39 156 15.0857 1.8857z"/><path d="m-481-370-26-20-78 156 30 12z"/><path d="m-592-74v148z"/><path d="m-592 74-32 4 3 12h33z"/><path d="m481 370-111 111 11.5625 15.0312 8.4375 10.9688 117-117z"/><path d="m588 90-33 132 25.2273 10.0909 9.4394-16.7576 31.3333-125.3333z"/><path d="m555 222-74 148 39.6909-55.1636z"/><path d="m74 592 4 32z"/><path d="m74 592 4 32z"/><path d="m74 592 148-37 12 30-156 39z"/><path d="m370 481 20 26-156 78-12-30z"/><path d="m-74 592h148z"/><path d="m-74 592-4 32-12-3v-33z"/><path d="m-588 90 33 132-30 12-36-144z"/><path d="m-481 370-74-148 58.9688 159.5625z"/><path d="m-90 588-132-33-10.0909 25.2273-1.9091 4.7727 144 36z"/><path d="m-481 370 111 111-11.5625 15.0312-14.7241-8.2939z"/><path d="m-222 555-148-74 137.9091 99.2273z"/><path d="m-370 481 148 74-159.5625-58.9688z"/><path d="m-370 481-20 26 156 78 1.9091-4.7727z"/><path d="m-481 370-15.0312 11.5625 25.0312 44.4375 81 81 20-26z"/><path d="m-222 555-12 30-138-69-14.0869-14.0869 4.5244-5.8819z"/><path d="m-555 222-30 12 78 156 10.9688-8.4375z"/><path d="m-381.5625-496.0312 11.5625 15.0312-111 111-26-20 117-117z"/><path d="m-381.5625 496.0312-4.5244 5.8819-10.1997-14.1758z"/><path d="m78-624-4 32z"/><path d="m507-390-117-117-20 26 111 111z"/><path d="m624-78-32 4-37-148 30-12z"/><path d="m507-390-26 20 74 148 30-12z"/><path d="m234-585-12 30-148-37 4-32z"/><path d="m390-507-156-78-12 30 148 74z"/><path d="m624 78-32-4-4 16h33z"/><path d="m-78-624 4 32-16 4v-33z"/><path d="m-234-585-156 78 20 26 148-74z"/><path d="m-90-621-144 36 12 30 132-33z"/><path d="m-390-507-117 117 26 20 111-111z"/><path d="m-624-78 32 4z"/><path d="m-507-390 26 20-74 148-30-12z"/><path d="m-585-234 30 12-37 148-32-4z"/><path d="m-624 78 32-4 4 16h-33z"/><path d="m390 507-20-26 111-111 26 20z"/><path d="m621 90-36 144-30-12 33-132z"/><path d="m507 390-26-20 74-148 30 12z"/><path d="m-78 624 4-32z"/><path d="m234 585-12-30-148 37 4 32z"/><path d="m390 507-20-26-148 74 12 30z"/><path d="m-78 624 4-32-16-4v33z"/><path d="m-90 621-144-36 12-30 132 33z"/><path d="m-372 516-18-9 3.9131-5.0869z"/><path d="m-507 390-78-156 30-12 74 148z"/><path d="m-471 426-36-36 26-20 84.7134 117.7373 10.1997 14.1758-3.9131 5.0869z"/><path d="m-621 90 36 144 30-12-33-132z"/><path d="m-496.0312 381.5625-10.9688 8.4375 36 36z"/><path d="m74-592 4-32z"/><path d="m592 74 32 4z"/><path d="m592 74 32 4z"/><path d="m481-370 26-20 78 156-30 12z"/><path d="m592-74 32-4-39-156-30 12z"/><path d="m222-555 12-30-156-39-4 32z"/><path d="m592 74 32 4-3 12h-33z"/><path d="m-74-592-4-32z"/><path d="m-74-592-4-32-12 3v33z"/><path d="m-592 74-32 4z"/><path d="m-222-555-12-30 144-36v17.2174z"/><path d="m-90-588-132 33 132-48.7826z"/><path d="m-370-481-111 111-15.0312-11.5625-10.9688-8.4375 117-117z"/><path d="m-592-74 37-148-30-12-39 156z"/><path d="m-481-370-26-20-78 156 30 12z"/><path d="m-592 74-32 4 3 12h33z"/><path d="m588 90-33 132 25.2273 10.0909 4.7727 1.9091 36-144z"/><path d="m555 222 30 12-78 156-10.9688-8.4375z"/><path d="m481 370 26 20 78-156-4.7727-1.9091z"/><path d="m370 481 20 26 117-117-26-20z"/><path d="m481 370 99.2273-137.9091-25.2273-10.0909z"/><path d="m481 370 74-148-58.9688 159.5625z"/><path d="m370 481 11.5625 15.0312-159.5625 58.9688z"/><path d="m74 592 148-37 12 30-156 39z"/><path d="m-74 592-4 32-12-3v-33z"/><path d="m-90 588-132-33-12 30 144 36z"/><path d="m-222 555-148-74-20 26 18 9 138 69z"/><path d="m-588 90 33 132-25.2273 10.0909-4.7727 1.9091-36-144z"/><path d="m-370 481-111-111-15.0312 11.5625 25.0312 44.4375 81 81z"/><path d="m-555 222 74 148-99.2273-137.9091z"/><path d="m-555 222 58.9688 159.5625 15.0312-11.5625z"/><path d="m-481 370-20.9131 16.0869-14.0869-14.0869-69-138 4.7727-1.9091z"/><path d="m-481 370 111 111-131.9131-94.9131z"/><path d="m-555 222-30 12 78 156 10.9688-8.4375z"/><path d="m-370 481 148 74-159.5625-58.9688z"/><path d="m-370 481-11.5625 15.0312-44.4375-25.0312-81-81 5.0869-3.9131z"/><path d="m-222 555-12 30-156-78 8.4375-10.9688z"/><path d="m608.9143-76.1143-16.9143 2.1143-37-148z"/><path d="m381.5625-496.0312 8.4375-10.9688 117 117-26 20-111-111z"/><path d="m381.5625-496.0312-11.5625 15.0312-148-74z"/><path d="m-496.0312-381.5625 15.0312 11.5625-74 148z"/><path d="m496.0312 381.5625 10.9688 8.4375-36 36z"/><path d="m381.5625 496.0312-11.5625-15.0312 111-111 15.0312 11.5625-25.0312 44.4375-81 81z"/><path d="m381.5625 496.0312 8.4375 10.9688-156 78-12-30z"/><path d="m-381.5625 496.0312-8.4375 10.9688-36-36z"/><path d="m-501.9131 386.0869-5.0869 3.9131-9-18z"/><path d="m688 86-1 4z"/><path d="m86-688-8 64-4 32z"/><path d="m688 86-64-8-32-4z"/><path d="m559-430-52 40-117-117 40-52z"/><path d="m559-430-129-129z"/><path d="m688-86-43-172z"/><path d="m592-74 32-4 64-8z"/><path d="m592-74 16.9143-2.1143 15.0857-1.8857z"/><path d="m645-258-60 24-78-156 52-40z"/><path d="m688-86-64 8-39-156 60-24z"/><path d="m624-78-15.0857 1.8857-53.9143-145.8857 30-12z"/><path d="m234-585-156-39 8-64 172 43z"/><path d="m390-507-156-78 24-60 172 86z"/><path d="m258-645 172 86z"/><path d="m258-645-172-43z"/><path d="m390-507-8.4375 10.9688-159.5625-58.9688 12-30z"/><path d="m234-585-12 30-148-37 4-32z"/><path d="m624 78 64 8-1 4h-66z"/><path d="m-86-688 8 64-12 3v-66z"/><path d="m-74-592-4-32z"/><path d="m-78-624 4 32-16 4v-15.7826-17.2174z"/><path d="m-688 86 48-6 16-2z"/><path d="m-645-258-43 172z"/><path d="m-234-585-156 78-40-52 172-86z"/><path d="m-90-621-144 36-24-60 168-42z"/><path d="m-258-645-172 86z"/><path d="m-90-687-168 42z"/><path d="m-234-585 12 30-148 74-20-26z"/><path d="m-507-390-52-40 129-129 40 52z"/><path d="m-430-559-129 129z"/><path d="m-585-234-60-24 86-172 52 40z"/><path d="m-624-78-64-8 43-172 60 24z"/><path d="m-507-390 10.9688 8.4375-58.9688 159.5625-30-12z"/><path d="m-585-234 30 12-37 148-32-4z"/><path d="m-688 86 64-8 3 12h-66z"/><path d="m-624 78 32-4 4 16h-33z"/><path d="m430 559-40-52 81-81 36-36 52 40z"/><path d="m559 430-52-40 78-156 60 24z"/><path d="m687 90-42 168-60-24 36-144z"/><path d="m559 430 86-172z"/><path d="m430 559 129-129z"/><path d="m621 90-36 144-30-12 33-132z"/><path d="m430 559-172 86z"/><path d="m86 688 172-43z"/><path d="m78 624-4-32z"/><path d="m74 592 4 32 8 64z"/><path d="m430 559-172 86-24-60 156-78z"/><path d="m258 645-172 43-8-64 156-39z"/><path d="m-78 624-8 64-4-1v-66z"/><path d="m-86 688-4-1z"/><path d="m-430 559-129-129 52-40 81 81 36 36z"/><path d="m-559 430-86-172 60-24 69 138 9 18z"/><path d="m-258 645-172-86 40-52 156 78z"/><path d="m-90 687-168-42 24-60 144 36z"/><path d="m-621 90 36 144-60 24-42-168z"/><path d="m-687 90 42 168z"/><path d="m-430 559 172 86z"/><path d="m-645 258 86 172z"/><path d="m-559 430 129 129z"/><path d="m-90 621-144-36 12-30 132 33z"/><path d="m688 86-1 4z"/><path d="m74-592 4-32 8-64z"/><path d="m592 74 32 4 64 8z"/><path d="m430-559 129 129z"/><path d="m645-258 43 172z"/><path d="m645-258-86-172z"/><path d="m688-86-64 8-32 4z"/><path d="m592 74v-148z"/><path d="m258-645 172 86z"/><path d="m86-688 172 43z"/><path d="m-86-688-4 1z"/><path d="m-74-592-4-32-8-64z"/><path d="m74-592h-148z"/><path d="m-688 86 1 4z"/><path d="m-592 74-32 4-16 2z"/><path d="m-688-86 43-172z"/><path d="m-430-559 172-86z"/><path d="m-258-645 168-42z"/><path d="m-559-430 129-129z"/><path d="m-559-430-86 172z"/><path d="m-640-80-48-6 64 8z"/><path d="m-640-80 16 2 32 4z"/><path d="m-592-74v148z"/><path d="m645 258 42-168z"/><path d="m645 258-86 172z"/><path d="m559 430-129 129z"/><path d="m430 559-66 33-62 31-44 22z"/><path d="m258 645-172 43z"/><path d="m-80 640-6 48 8-64z"/><path d="m-80 640 2-16 4-32z"/><path d="m86 688-8-64-4-32z"/><path d="m-74 592h148z"/><path d="m-86 688-4-1z"/><path d="m-258 645 168 42z"/><path d="m-645 258-42-168z"/><path d="m-258 645-172-86z"/><path d="m-559 430-86-172z"/><path d="m-430 559-129-129z"/><path d="m-688 86 64-8 32-4-48 6z"/><path d="m430-559-40 52 81 81 36 36 52-40z"/><path d="m688 86-64-8-3 12h66z"/><path d="m645-258-86-172-52 40 78 156z"/><path d="m624-78 64-8-43-172-60 24z"/><path d="m258-645-172-43-8 64 137.3333 34.3333 18.6667 4.6667z"/><path d="m-78-624-8-64-4 1v66z"/><path d="m258-645-24 60 138 69 18 9 40-52z"/><path d="m74-592 4-32z"/><path d="m592 74 32 4z"/><path d="m507-390-36-36 25.0312 44.4375z"/><path d="m585-234-78-156-10.9688 8.4375 58.9688 159.5625z"/><path d="m471-426-81-81-3.9131 5.0869 94.9131 131.9131 15.0312-11.5625z"/><path d="m78-624-4 32 148 37 10.0909-25.2273-16.7576-9.4394z"/><path d="m624 78-32-4-4 16h33z"/><path d="m645-258-86-172z"/><path d="m592 74v-148z"/><path d="m-86-688-4 1z"/><path d="m-86-688 8 64 4 32z"/><path d="m74-592h-148z"/><path d="m-624 78-64 8 1 4h66z"/><path d="m-585-234-60-24-43 172 64 8z"/><path d="m-258-645-172 86 40 52 18-9 138-69z"/><path d="m-430-559-129 129 52 40 36-36 81-81z"/><path d="m-585-234 78-156-52-40-86 172z"/><path d="m-90-687-168 42 24 60 18.6667-4.6667 125.3333-31.3333z"/><path d="m-624 78 32-4z"/><path d="m-592-74-32-4z"/><path d="m-90-621-125.3333 31.3333-16.7576 9.4394 10.0909 25.2273 132-33z"/><path d="m-215.3333-589.6667-18.6667 4.6667 1.9091 4.7727z"/><path d="m-372-516-18 9 3.9131 5.0869z"/><path d="m-471-426-36 36 10.9688 8.4375z"/><path d="m-507-390-78 156 30 12 58.9688-159.5625z"/><path d="m-688 86 1 4z"/><path d="m-559-430-86 172z"/><path d="m-624-78-64-8 48 6 48 6z"/><path d="m-592-74v148z"/><path d="m-86 688 8-64-12-3v66z"/><path d="m236.8 592h-30.8l-128 32 8 64 172-43 44-22v-31z"/><path d="m302 623 62-31h-62z"/><path d="m390 507-156 78 2.8 7h65.2 62l66-33z"/><path d="m645 258-60-24-69 138-9 18 52 40z"/><path d="m559 430-52-40-81 81-36 36 40 52z"/><path d="m234 585-28 7h30.8z"/><path d="m621 90-36 144 60 24 42-168z"/><path d="m-74 592-4 32z"/><path d="m426 471 81-81-5.0869-3.9131-131.9131 94.9131 11.5625 15.0312z"/><path d="m390 507 36-36-44.4375 25.0312z"/><path d="m206 592 28-7-12-30-148 37 4 32z"/><path d="m390 507-8.4375-10.9688-159.5625 58.9688 12 30z"/><path d="m-78 624 4-32-16-4v33z"/><path d="m687 90-42 168z"/><path d="m-86 688 6-48 6-48z"/><path d="m-74 592h148z"/><path d="m-585 234-60 24 86 172 52-40z"/><path d="m-234 585-138-69-18-9-40 52 172 86z"/><path d="m-471 426-36-36-52 40 129 129 40-52z"/><path d="m-90 621-144-36-24 60 168 42z"/><path d="m-687 90 42 168 60-24-36-144z"/><path d="m-390 507 3.9131-5.0869-94.9131-131.9131-15.0312 11.5625 25.0312 44.4375z"/><path d="m-621 90 36 144 30-12-33-132z"/><path d="m-90 687-168-42z"/><path d="m232.0909-580.2273 1.9091-4.7727-18.6667-4.6667z"/><path d="m386.0869-501.9131 3.9131-5.0869-18-9z"/><path d="m386.0869-501.9131-16.0869 20.9131 111 111z"/><path d="m-386.0869-501.9131-3.9131-5.0869-81 81-25.0312 44.4375 15.0312 11.5625z"/><path d="m501.9131 386.0869-20.9131-16.0869-111 111z"/><path d="m501.9131 386.0869 5.0869 3.9131 9-18z"/><path d="m-386.0869 501.9131 16.0869-20.9131-111-111z"/><path d="m-386.0869 501.9131-3.9131 5.0869 18 9z"/><path d="m496.0312-381.5625-15.0312 11.5625 74 148z"/><path d="m381.5625 496.0312-11.5625-15.0312-148 74z"/><path d="m-496.0312 381.5625-10.9688 8.4375 36 36z"/><path d="m314.8364-520.6909 55.1636 39.6909 16.0869-20.9131-14.0869-14.0869-138-69-1.9091 4.7727z"/><path d="m314.8364-520.6909-82.7455-59.5364-10.0909 25.2273z"/><path d="m592-74 32-4z"/><path d="m592-74 32-4-39-156-30 12z"/><path d="m555-222-74-148 26-20 78 156z"/><path d="m481-370-111-111 20-26 117 117z"/><path d="m74-592 4-32 156 39-12 30z"/><path d="m370-481-148-74 12-30 156 78z"/><path d="m370-481-55.1636-39.6909-92.8364-34.3091z"/><path d="m592 74 32 4-3 12h-33z"/><path d="m-74-592-4-32z"/><path d="m-74-592-4-32-12 3v33z"/><path d="m-592-74-32-4z"/><path d="m-481-370-74 148-30-12 69-138 9-18z"/><path d="m-90-588-132 33-12-30 144-36z"/><path d="m-222-555-10.0909-25.2273-82.7455 59.5364z"/><path d="m-370-481 148-74-92.8364 34.3091z"/><path d="m-370-481-16.0869-20.9131-94.9131 131.9131z"/><path d="m-370-481 55.1636-39.6909 82.7455-59.5364-1.9091-4.7727-138 69-14.0869 14.0869z"/><path d="m-555-222 74-148-15.0312-11.5625z"/><path d="m-592-74 37-148-30-12-39 156z"/><path d="m-592 74-32 4 3 12h33z"/><path d="m-74 592-4 32z"/><path d="m74 592 4 32z"/><path d="m74 592 148-37 12 30-156 39z"/><path d="m588 90-33 132 30 12 36-144z"/><path d="m481 370 39.6909-55.1636-24.6597 66.7261z"/><path d="m481 370 15.0312 11.5625-25.0312 44.4375-81 81-20-26z"/><path d="m481 370 74-148-34.3091 92.8364z"/><path d="m481 370 20.9131 16.0869 14.0869-14.0869 69-138-30-12z"/><path d="m-74 592-4 32-12-3v-33z"/><path d="m-588 90 33 132-30 12-36-144z"/><path d="m-90 588-132-33-12 30 144 36z"/><path d="m-370 481 148 74-92.8364-34.3091z"/><path d="m-370 481-16.0869 20.9131 14.0869 14.0869 138 69 12-30z"/><path d="m-370 481 55.1636 39.6909-66.7261-24.6597z"/><path d="m-481 370-74-148 58.9688 159.5625z"/><path d="m-555 222-30 12 78 156 10.9688-8.4375z"/><path d="m520.6909 314.8364 34.3091-92.8364 30 12-78 156-10.9688-8.4375z"/><path d="m-314.8364 520.6909 92.8364 34.3091-12 30-156-78 8.4375-10.9688z"/><path d="m496.0312 381.5625 10.9688 8.4375-36 36z"/><path d="m-381.5625 496.0312-8.4375 10.9688-36-36z"/><path d="m78-624-4 32z"/><path d="m624-78-32 4z"/><path d="m589.6667-215.3333 34.3333 137.3333-32 4-37-148 30-12z"/><path d="m78-624-4 32 148 37 12-30z"/><path d="m390-507-156-78-12 30 148 74z"/><path d="m589.6667-215.3333-4.6667-18.6667-4.7727 1.9091z"/><path d="m507-390-117-117-20 26 111 111z"/><path d="m585-234-78-156-26 20 39.6909 55.1636 59.5364 82.7455z"/><path d="m624 78-32-4-4 16h33z"/><path d="m-78-624 4 32-16 4v-33z"/><path d="m-624 78 32-4z"/><path d="m-585-234 30 12-37 148-32-4z"/><path d="m-90-621-144 36 12 30 132-33z"/><path d="m-507-390-9 18 14.0869-14.0869z"/><path d="m-390-507-117 117 5.0869 3.9131 131.9131-94.9131z"/><path d="m-390-507 20 26-111 111-26-20z"/><path d="m-234-585 12 30-148 74-20-26z"/><path d="m-516-372-69 138 4.7727 1.9091 99.2273-137.9091-20.9131-16.0869z"/><path d="m-624 78 32-4 4 16h-33z"/><path d="m78 624-4-32z"/><path d="m372 516-138 69-12-30 148-74 20 26z"/><path d="m372 516 18-9-3.9131-5.0869z"/><path d="m507 390 78-156-30-12-74 148z"/><path d="m471 426 36-36-26-20-94.9131 131.9131 3.9131 5.0869z"/><path d="m621 90-36 144-30-12 33-132z"/><path d="m234 585-1.9091-4.7727-10.0909-25.2273-148 37 4 32z"/><path d="m-78 624 4-32-16-4v33z"/><path d="m-507 390-9-18-69-138 30-12 74 148z"/><path d="m-621 90 36 144 4.7727-1.9091 25.2273-10.0909-33-132z"/><path d="m-516 372 9 18 5.0869-3.9131z"/><path d="m-234 585 12-30-148-74-20 26z"/><path d="m-507 390 26-20 111 111-11.5625 15.0312-44.4375-25.0312z"/><path d="m-90 621-144-36 12-30 132 33z"/><path d="m-580.2273-232.0909 25.2273 10.0909 74-148z"/><path d="m232.0909 580.2273 1.9091 4.7727 138-69 14.0869-14.0869-16.0869-20.9131z"/><path d="m-580.2273 232.0909-4.7727 1.9091 69 138 14.0869 14.0869 20.9131-16.0869z"/><path d="m-501.9131-386.0869 20.9131 16.0869 111-111z"/><path d="m-501.9131 386.0869-5.0869 3.9131 81 81 36 36 20-26z"/><path d="m74-592 4-32z"/><path d="m592 74 32 4z"/><path d="m592 74 32 4z"/><path d="m74-592 4-32 156 39-12 30z"/><path d="m370-481 11.5625-15.0312 44.4375 25.0312 81 81-5.0869 3.9131z"/><path d="m481-370-111-111 131.9131 94.9131z"/><path d="m555-222 25.2273-10.0909-59.5364-82.7455z"/><path d="m592-74 32-4-34.3333-137.3333-9.4394-16.7576-25.2273 10.0909z"/><path d="m481-370 20.9131-16.0869 14.0869 14.0869 69 138-30 12z"/><path d="m481-370 74 148-34.3091-92.8364z"/><path d="m592 74 32 4-3 12h-33z"/><path d="m-74-592-4-32z"/><path d="m-74-592-4-32-12 3v33z"/><path d="m-90-588-132 33-12-30 144-36z"/><path d="m-222-555-159.5625 58.9688-8.4375-10.9688 156-78z"/><path d="m-222-555-148 74-11.5625-15.0312z"/><path d="m-222-555-12-30-156 78 20 26z"/><path d="m-592-74 37-148-25.2273-10.0909-4.7727-1.9091-39 156z"/><path d="m-370-481-111 111-15.0312-11.5625 25.0312-44.4375 45-45 44.4375-25.0312z"/><path d="m-481-370-74 148 58.9688-159.5625z"/><path d="m-555-222-30-12 78-156 10.9688 8.4375z"/><path d="m-592 74-32 4 3 12h33z"/><path d="m-74 592-4 32z"/><path d="m588 90-33 132 30 12 36-144z"/><path d="m481 370-111 111 16.0869 20.9131z"/><path d="m370 481 11.5625 15.0312-159.5625 58.9688z"/><path d="m222 555 10.0909 25.2273 137.9091-99.2273z"/><path d="m-74 592-4 32-12-3v-33z"/><path d="m-90 588-132-33-12 30 144 36z"/><path d="m-370 481 148 74-159.5625-58.9688z"/><path d="m-481 370 111 111-11.5625 15.0312-44.4375-25.0312-45-45-25.0312-44.4375z"/><path d="m-555 222 74 148-15.0312 11.5625z"/><path d="m-555 222-25.2273 10.0909 99.2273 137.9091z"/><path d="m-481 370-20.9131 16.0869 131.9131 94.9131z"/><path d="m-588 90 33 132-30 12-36-144z"/><path d="m-555 222 58.9688 159.5625-10.9688 8.4375-78-156z"/><path d="m-222 555-12 30-156-78 8.4375-10.9688z"/><path d="m592 74v-148z"/><path d="m74-592h-148z"/><path d="m-608-76 16 2z"/><path d="m-592-74v148z"/><path d="m-74 592h148z"/><path d="m381.5625-496.0312 8.4375-10.9688 36 36z"/><path d="m381.5625-496.0312-11.5625 15.0312-148-74z"/><path d="m-496.0312-381.5625-10.9688-8.4375 36-36z"/><path d="m496.0312 381.5625 10.9688 8.4375-36 36z"/><path d="m496.0312 381.5625-15.0312-11.5625 74-148z"/><path d="m381.5625 496.0312-11.5625-15.0312 111-111 15.0312 11.5625-25.0312 44.4375-45 45z"/><path d="m381.5625 496.0312 8.4375 10.9688-156 78-12-30z"/><path d="m-381.5625 496.0312-8.4375 10.9688-36-36z"/><path d="m501.9131-386.0869 5.0869-3.9131 9 18z"/><path d="m688 86-1 4z"/><path d="m78-624-4 32 4-32 8-64z"/><path d="m624 78-32-4 32 4 64 8z"/><path d="m592-74 32-4z"/><path d="m688-86-64 8-39-156 60-24z"/><path d="m559-430-52 40-81-81-36-36 40-52z"/><path d="m645-258-60 24-69-138-9-18 52-40z"/><path d="m78-624 8-64 172 43-24 60z"/><path d="m258-645 172 86-40 52-156-78z"/><path d="m645-258 43 172z"/><path d="m86-688 172 43z"/><path d="m258-645 172 86z"/><path d="m430-559 129 129z"/><path d="m234-585 156 78-8.4375 10.9688-159.5625-58.9688z"/><path d="m624-78-32 4-37-148 30-12z"/><path d="m592-74v148z"/><path d="m624 78 64 8-1 4h-66z"/><path d="m-78-624-8-64 8 64 4 32z"/><path d="m-74-592-4-32z"/><path d="m-74-592h148z"/><path d="m-86-688 8 64-12 3v-66z"/><path d="m-78-624 4 32-16 4v-33z"/><path d="m-592 74-32 4z"/><path d="m-688-86 43-172z"/><path d="m-688-86 64 8-32-4z"/><path d="m-624-78-64-8 43-172 60 24z"/><path d="m-426-471-45 45-36 36-52-40 129-129 40 52z"/><path d="m-234-585-156 78-40-52 172-86z"/><path d="m-585-234-60-24 86-172 52 40z"/><path d="m-90-621-144 36-24-60 168-42z"/><path d="m-90-687-168 42z"/><path d="m-559-430 129-129z"/><path d="m-430-559 172-86z"/><path d="m-426-471 36-36 8.4375 10.9688z"/><path d="m-585-234 30 12-37 148-16-2-16-2z"/><path d="m-592 74v-148z"/><path d="m-688 86 64-8 3 12h-66z"/><path d="m-624 78 32-4 4 16h-33z"/><path d="m-86 688 8-64 4-32-4 32z"/><path d="m78 624 8 64-8-64-4-32z"/><path d="m78 624-4-32z"/><path d="m258 645-172 43-8-64 156-39z"/><path d="m430 559-40-52 36-36 45-45 36-36 52 40z"/><path d="m559 430-52-40 78-156 60 24z"/><path d="m430 559-172 86-24-60 156-78z"/><path d="m687 90-42 168-60-24 36-144z"/><path d="m430 559-66 33-62 31-44 22z"/><path d="m621 90-36 144-30-12 33-132z"/><path d="m585 234-78 156-10.9688-8.4375 58.9688-159.5625z"/><path d="m390 507-8.4375-10.9688 44.4375-25.0312z"/><path d="m234 585-156 39-4-32 148-37z"/><path d="m74 592h-148z"/><path d="m-78 624-8 64-4-1v-66z"/><path d="m-86 688-4-1z"/><path d="m-559 430-86-172 60-24 78 156z"/><path d="m-258 645-172-86 40-52 156 78z"/><path d="m-430 559-129-129 52-40 36 36 45 45 36 36z"/><path d="m-90 687-168-42 24-60 144 36z"/><path d="m-621 90 36 144-60 24-42-168z"/><path d="m-687 90 42 168z"/><path d="m-471 426-36-36 10.9688-8.4375z"/><path d="m-90 621-144-36 12-30 132 33z"/><path d="m74-592 4-32z"/><path d="m592 74 32 4z"/><path d="m624-78-32 4 32-4 64-8z"/><path d="m430-559-40 52 36 36 45 45 36 36 52-40z"/><path d="m645-258-86-172-52 40 78 156z"/><path d="m624-78 64-8-43-172-60 24z"/><path d="m258-645-24 60 156 78 40-52z"/><path d="m258-645-172-43-8 64 156 39z"/><path d="m426-471-36-36-8.4375 10.9688z"/><path d="m78-624-4 32 148 37 12-30z"/><path d="m390-507-156-78-12 30 159.5625 58.9688z"/><path d="m507-390-36-36 16.7373 29.7134 8.2939 14.7241z"/><path d="m585-234-78-156-10.9688 8.4375 58.9688 159.5625z"/><path d="m471-426-45-45-44.4375-25.0312-11.5625 15.0312 117.7373 84.7134z"/><path d="m645-258-86-172z"/><path d="m688 86-64-8-3 12h66z"/><path d="m624 78-32-4-4 16h33z"/><path d="m-86-688-4 1z"/><path d="m-78-624-8-64-4 1v66z"/><path d="m-688 86 1 4z"/><path d="m-624 78 32-4z"/><path d="m-624 78 32-4-96 12z"/><path d="m-688-86 32 4 32 4z"/><path d="m-585-234 78-156-52-40-86 172z"/><path d="m-430-559-129 129 52 40 117-117z"/><path d="m-258-645-172 86 40 52 156-78z"/><path d="m-585-234-60-24-43 172 64 8z"/><path d="m-90-687-168 42 24 60 144-36z"/><path d="m-90-621-144 36 12 30 132-33z"/><path d="m-507-390-78 156 30 12 74-148z"/><path d="m-390-507-117 117 26 20 111-111z"/><path d="m-559-430-86 172z"/><path d="m-624 78-64 8 1 4h66z"/><path d="m687 90-42 168z"/><path d="m-74 592-4 32z"/><path d="m559 430 86-172z"/><path d="m258 645 44-22v-31h-65.2-30.8l-128 32 8 64z"/><path d="m302 623 62-31h-62z"/><path d="m234 585-28 7h30.8z"/><path d="m559 430-52-40-117 117 40 52z"/><path d="m645 258-60-24-78 156 52 40z"/><path d="m390 507-156 78 2.8 7h65.2 62l66-33z"/><path d="m621 90-36 144 60 24 42-168z"/><path d="m206 592 28-7-12-30-148 37 4 32z"/><path d="m507 390-5.0869-3.9131-131.9131 94.9131 20 26z"/><path d="m430 559 129-129z"/><path d="m86 688 172-43z"/><path d="m-86 688 8-64-12-3v66z"/><path d="m-78 624 4-32-16-4v33z"/><path d="m-585 234-60 24 86 172 52-40z"/><path d="m-234 585-156-78-40 52 172 86z"/><path d="m-507 390-52 40 129 129 40-52z"/><path d="m-90 621-144-36-24 60 168 42z"/><path d="m-687 90 42 168 60-24-36-144z"/><path d="m-621 90 36 144 30-12-33-132z"/><path d="m-390 507 20-26-131.9131-94.9131-5.0869 3.9131z"/><path d="m-90 687-168-42z"/><path d="m-430 559 172 86z"/><path d="m-645 258 86 172z"/><path d="m-559 430 129 129z"/><path d="m501.9131 386.0869 5.0869 3.9131 78-156-30-12-74 148z"/><path d="m501.9131 386.0869-20.9131-16.0869-111 111z"/><path d="m-501.9131 386.0869 20.9131-16.0869-74-148-30 12 78 156z"/><path d="m496.0312-381.5625-15.0312 11.5625 74 148z"/><path d="m592-74 32-4z"/><path d="m74-592 4-32 156 39-12 30z"/><path d="m592-74 32-4-39-156-30 12z"/><path d="m222-555 148 74 11.5625-15.0312z"/><path d="m481-370-111-111 16.0869-20.9131z"/><path d="m370-481 111 111 15.0312-11.5625-8.2939-14.7241z"/><path d="m592 74 32 4-3 12h-33z"/><path d="m-74-592-4-32z"/><path d="m-74-592-4-32-12 3v33z"/><path d="m-592-74-32-4-32-4 32 4 16 2z"/><path d="m-90-588-132 33-12-30 144-36z"/><path d="m-592-74 37-148-30-12-39 156z"/><path d="m-222-555-12-30-156 78 20 26z"/><path d="m-222-555-148 74-11.5625-15.0312z"/><path d="m-370-481-111 111 46.4468-64.5532z"/><path d="m-481-370-15.0312-11.5625 8.2939-14.7241 53.1841-38.2666z"/><path d="m-592 74-32 4 3 12h33z"/><path d="m74 592 4 32z"/><path d="m588 90-33 132 30 12 36-144z"/><path d="m222 555 148-74 11.5625 15.0312z"/><path d="m222 555 12 30 156-78-20-26z"/><path d="m74 592 148-37 12 30-28 7-128 32z"/><path d="m-74 592-4 32-12-3v-33z"/><path d="m-90 588-132-33-12 30 144 36z"/><path d="m-370 481-111-111-20.9131 16.0869z"/><path d="m-481 370 111 111-11.5625 15.0312-14.7241-8.2939z"/><path d="m-222 555-148-74-20 26 156 78z"/><path d="m-555 222 74 148-15.0312 11.5625z"/><path d="m-588 90 33 132-30 12-36-144z"/><path d="m-496.0312-381.5625 15.0312 11.5625-74 148z"/><path d="m496.0312 381.5625-15.0312-11.5625 74-148z"/><path d="m-381.5625 496.0312 11.5625-15.0312 148 74z"/><path d="m396.2866 487.7373-14.7241 8.2939-11.5625-15.0312 111-111z"/><path d="m396.2866 487.7373 29.7134-16.7373-36 36-8.4375-10.9688z"/></g><g id="c"><path d="m559-430-52 40-117-117 40-52z"/><path d="m645-258 43 172-64 8-39-156z"/><path d="m688 86-64-8v-156l64-8z"/><path d="m645-258-60 24-78-156 52-40z"/><path d="m624 78 64 8-1 4h-66z"/><path d="m78-624 8-64 172 43-24 60z"/><path d="m78-624h-156l-8-64h172z"/><path d="m-86-688 8 64-12 3v-66z"/><path d="m258-645 172 86-40 52-156-78z"/><path d="m624-78-32 4-37-148 30-12z"/><path d="m234-585 156 78-3.9131 5.0869-16.0869 20.9131-148-74z"/><path d="m390-507 117 117-26 20-94.9131-131.9131z"/><path d="m507-390 78 156-30 12-74-148z"/><path d="m624-78v156l-32-4v-148z"/><path d="m-78-624h156l-4 32h-148z"/><path d="m-78-624 4 32-16 4v-33z"/><path d="m-688 86 64-8 3 12h-66z"/><path d="m-624 78-64 8v-172l64 8z"/><path d="m-585-234-39 156-64-8 43-172z"/><path d="m-426-471-45 45-36 36-52-40 129-129 40 52z"/><path d="m-234-585-156 78-40-52 130-65 42-21z"/><path d="m-592-364 33-66 52 40-78 156-60-24z"/><path d="m-90-621-144 36-24-60 168-42z"/><path d="m-426-471 36-36 8.4375 10.9688z"/><path d="m-390-507 156-78 12 30-159.5625 58.9688z"/><path d="m-471-426 45-45 44.4375-25.0312 11.5625 15.0312-64.5532 46.4468-53.1841 38.2666z"/><path d="m-507-390 36-36-16.7373 29.7134-8.2939 14.7241z"/><path d="m-585-234 78-156 10.9688 8.4375-58.9688 159.5625z"/><path d="m-585-234 30 12-37 148-32-4z"/><path d="m-624 78v-156l32 4v148z"/><path d="m-624 78 32-4 4 16h-33z"/><path d="m-78 624-8 64-4-1v-66z"/><path d="m86 688h-172l8-64h156z"/><path d="m258 645-172 43-8-64 128-32h30.8 65.2v31z"/><path d="m302 592h62l-62 31z"/><path d="m206 592 28-7 2.8 7z"/><path d="m430 559-40-52 36-36 45-45 36-36 52 40z"/><path d="m559 430-52-40 78-156 60 24z"/><path d="m430 559-66 33h-62-65.2l-2.8-7 156-78z"/><path d="m687 90-42 168-60-24 36-144z"/><path d="m507 390-36 36 25.0312-44.4375z"/><path d="m621 90-36 144-30-12 33-132z"/><path d="m585 234-78 156-10.9688-8.4375 58.9688-159.5625z"/><path d="m471 426-45 45-29.7134 16.7373 84.7134-117.7373 15.0312 11.5625z"/><path d="m390 507-156 78-12-30 159.5625-58.9688z"/><path d="m78 624h-156l4-32h148z"/><path d="m-559 430-86-172 60-24 78 156z"/><path d="m-258 645-172-86 40-52 156 78z"/><path d="m-430 559-129-129 52-40 36 36 45 45 36 36z"/><path d="m-90 687-168-42 24-60 144 36z"/><path d="m-621 90 36 144-60 24-42-168z"/><path d="m-426 471-45-45-25.0312-44.4375 15.0312-11.5625 84.7134 117.7373z"/><path d="m-390 507-36-36 29.7134 16.7373 14.7241 8.2939z"/><path d="m-90 621-144-36 12-30 132 33z"/><path d="m-234 585-156-78 8.4375-10.9688 159.5625 58.9688z"/><path d="m-471 426-36-36 10.9688-8.4375z"/><path d="m-507 390-78-156 30-12 58.9688 159.5625z"/></g></defs><g stroke="#000"><use fill="none" stroke-miterlimit="0" stroke-width="10" xlink:href="#a"/><use fill="#ccc" xlink:href="#a"/><use fill="none" stroke-miterlimit="0" stroke-width="10" xlink:href="#b"/><use fill="#e5e5e5" xlink:href="#b"/><use fill="none" stroke-miterlimit="0" stroke-width="10" xlink:href="#c"/><use fill="#fff" xlink:href="#c"/></g></svg>