<?xml version="1.0" encoding="utf-8" ?>
<svg baseProfile="tiny" height="100%" version="1.2" viewBox="-1469.0 -1061.0 2946.0 2274.0" width="100%" xmlns="http://www.w3.org/2000/svg" xmlns:ev="http://www.w3.org/2001/xml-events" xmlns:xlink="http://www.w3.org/1999/xlink"><defs><g id="bsp_ref"><polygon points="-1280,24 -1152,24 -1152,24 -1280,24" /><polygon points="-768,-392 -768,-616 -768,-616 -768,-392" /><polygon points="-768,-232 -768,-248 -768,-248 -768,-232" /><polygon points="-768,-616 -896,-616 -896,-616 -896,-616 -768,-616" /><polygon points="-896,-456 -896,-392 -896,-232 -896,-232 -896,-456" /><polygon points="-896,-232 -768,-232 -768,-232 -896,-232" /><polygon points="-896,-456 -896,-616 -768,-616 -768,-392 -896,-392" /><polygon points="-768,-392 -768,-248 -768,-232 -896,-232 -896,-392" /><polygon points="-1280,-424 -1280,-616 -1152,-616 -1152,-392 -1280,-392" /><polygon points="-1152,-392 -1152,-168 -1280,-168 -1280,-200 -1280,-392" /><polygon points="-1152,-168 -1152,24 -1280,24 -1280,-168" /><polygon points="-1280,-200 -1280,-168 -1280,24 -1280,24 -1280,-200" /><polygon points="-1280,-424 -1280,-392 -1280,-200 -1280,-200 -1280,-424" /><polygon points="-1152,-616 -1152,-616 -1152,-392 -1152,-392" /><polygon points="-1280,0 -1280,24 -1152,24 -1152,0" /><polygon points="-1152,0 -1152,0 -1152,24 -1152,24" /><polygon points="-1280,24 -1280,24 -1280,0 -1280,0" /><polygon points="-1280,24 -1280,0 -1152,0 -1152,24" /><polygon points="-1152,24 -1152,24 -1280,24 -1280,24" /><polygon points="-1280,0 -1280,0 -1152,0 -1152,0" /><polygon points="-1152,24 -1152,24 -1280,24 -1280,24" /><polygon points="-768,-248 -768,-248 -768,-392 -768,-392 -768,-248" /><polygon points="-768,-248 -768,-248 -768,-248 -768,-232 -768,-232" /><polygon points="-1152,-616 -1152,-616 -1280,-616 -1280,-616 -1280,-616 -1152,-616" /><polygon points="-896,-232 -896,-232 -896,-248 -896,-456 -896,-456" /><polygon points="-896,-616 -896,-616 -896,-456 -896,-456" /><polygon points="-768,-232 -768,-232 -896,-232 -896,-232" /><polygon points="-1280,24 -1280,24 -1280,8 -1280,-200 -1280,-200" /><polygon points="-1280,-200 -1280,-200 -1280,-216 -1280,-424 -1280,-424" /><polygon points="-1280,-616 -1280,-616 -1280,-424 -1280,-424" /><polygon points="-1152,-616 -1152,-616 -1152,-616 -1152,-392 -1152,-392" /><polygon points="-1152,-168 -1152,-168 -1152,-392 -1152,-392" /><polygon points="-1152,24 -1152,24 -1152,-168 -1152,-168" /><polygon points="896,344 896,152 896,152 896,344" /><polygon points="896,344 896,344 672,344 672,344" /><polygon points="224,152 0,152 0,152 224,152" /><polygon points="448,152 224,152 224,152 448,152" /><polygon points="672,152 448,152 448,152 672,152" /><polygon points="224,344 0,344 0,152 224,152" /><polygon points="448,344 224,344 224,152 448,152" /><polygon points="672,344 448,344 448,152 672,152" /><polygon points="896,152 896,344 672,344 672,152" /><polygon points="896,-504 896,-424 896,-280 896,-280 896,-504" /><polygon points="896,-728 896,-648 896,-504 896,-504 896,-728" /><polygon points="1120,-872 896,-872 896,-872 1120,-872" /><polygon points="928,-280 1120,-280 1152,-280 1152,-280 928,-280" /><polygon points="1152,-872 1152,-872 1152,-648 1152,-648" /><polygon points="896,-728 896,-872 1120,-872 1120,-648 896,-648" /><polygon points="1120,-648 1120,-424 896,-424 896,-504 896,-648" /><polygon points="1120,-424 1120,-280 928,-280 896,-280 896,-424" /><polygon points="1120,-872 1152,-872 1152,-648 1120,-648" /><polygon points="1152,-648 1152,-424 1120,-424 1120,-648" /><polygon points="1152,-424 1152,-280 1120,-280 1120,-424" /><polygon points="-768,-616 -768,-616 -768,-472 -768,-392 -768,-392" /><polygon points="-768,-392 -768,-392 -768,-248 -768,-248 -768,-248 -768,-248 -768,-248" /><polygon points="-1280,-616 -1280,-616 -1280,-616 -1152,-616 -1152,-616 -1152,-616" /><polygon points="-896,-616 -896,-616 -896,-616 -768,-616 -768,-616" /><polygon points="896,344 896,152 896,152 896,344" /><polygon points="672,344 448,344 448,344 672,344" /><polygon points="448,344 224,344 224,344 448,344" /><polygon points="224,344 0,344 0,344 224,344" /><polygon points="896,344 896,344 896,344 672,344 672,344" /><polygon points="224,344 448,344 672,344 896,344 896,152 672,152 448,152 224,152 0,152 0,344" /><polygon points="224,152 448,152 672,152 896,152 896,344 672,344 448,344 224,344 0,344 0,152" /><polygon points="224,152 0,152 0,152 0,152 0,152 160,152 224,152" /><polygon points="448,152 224,152 224,152 384,152 448,152" /><polygon points="672,152 448,152 448,152 608,152 672,152" /><polygon points="0,152 0,152 0,344 0,344" /><polygon points="896,152 896,152 672,152 672,152" /><polygon points="0,152 0,152 0,344 0,344" /><polygon points="896,376 896,344 896,344 896,376" /><polygon points="896,344 896,344 896,152 896,152 896,208 896,344" /><polygon points="672,344 448,344 448,344 672,344" /><polygon points="448,344 224,344 224,344 448,344" /><polygon points="224,344 0,344 0,344 0,344 224,344" /><polygon points="896,376 896,376 672,376 672,376" /><polygon points="224,376 0,376 0,344 224,344" /><polygon points="448,376 224,376 224,344 448,344" /><polygon points="672,376 448,376 448,344 672,344" /><polygon points="896,344 896,376 672,376 672,344" /><polygon points="224,152 448,152 448,152 224,152" /><polygon points="448,152 672,152 672,152 448,152" /><polygon points="672,152 896,152 896,152 672,152" /><polygon points="672,376 448,376 448,376 672,376" /><polygon points="448,376 224,376 224,376 448,376" /><polygon points="224,376 0,376 0,376 224,376" /><polygon points="672,376 896,376 896,152 672,152" /><polygon points="448,376 672,376 672,152 448,152" /><polygon points="224,376 448,376 448,152 224,152" /><polygon points="0,152 0,376 224,376 224,152" /><polygon points="752,344 528,344 528,344 752,344" /><polygon points="528,344 304,344 304,344 528,344" /><polygon points="304,344 80,344 80,344 304,344" /><polygon points="112,172 336,172 336,172 112,172" /><polygon points="336,172 560,172 560,172 336,172" /><polygon points="560,172 784,172 784,172 560,172" /><polygon points="752,344 784,344 784,172 752,172" /><polygon points="528,344 752,344 752,172 528,172" /><polygon points="304,344 528,344 528,172 304,172" /><polygon points="80,172 80,344 304,344 304,172" /><polygon points="896,-872 896,-872 896,-728 896,-728" /><polygon points="896,-504 896,-280 896,-280 896,-296 896,-504" /><polygon points="896,-728 896,-504 896,-504 896,-520 896,-728" /><polygon points="1152,-872 1152,-872 1120,-872 1120,-872" /><polygon points="1120,-872 896,-872 896,-872 1120,-872" /><polygon points="928,-280 1152,-280 1152,-280 1120,-280 928,-280" /><polygon points="896,-280 896,-280 928,-280 928,-280" /><polygon points="1152,-648 1152,-424 1152,-424 1152,-648" /><polygon points="1152,-424 1152,-280 1152,-280 1152,-424" /><polygon points="1152,-872 1152,-872 1152,-648 1152,-648" /><polygon points="896,-504 896,-728 896,-872 1120,-872 1152,-872 1152,-648 1152,-424 1152,-280 928,-280 896,-280" /><polygon points="1152,-424 1152,-648 1152,-872 1120,-872 896,-872 896,-728 896,-504 896,-280 928,-280 1152,-280" /><polygon points="-192,120 -192,168 -192,344 -192,344 -192,120" /><polygon points="-192,-272 -192,-56 -192,-48 -192,-48 -192,-96 -192,-272" /><polygon points="896,440 896,664 896,664 896,664 896,664 896,440" /><polygon points="896,-296 896,-280 896,-232 896,-72 896,-72 896,-296" /><polygon points="896,-520 896,-504 896,-296 896,-296 896,-408 896,-520" /><polygon points="896,-744 896,-728 896,-520 896,-520 896,-632 896,-744" /><polygon points="896,-744 896,-872 896,-872 896,-728 896,-728" /><polygon points="1120,664 1152,664 1152,664 1048,664 1000,664 928,664 928,664" /><polygon points="1120,-872 896,-872 896,-872 1120,-872" /><polygon points="1152,-872 1152,-872 1120,-872 1120,-872" /><polygon points="896,-16 896,-24 896,-72 960,-72 960,-16" /><polygon points="1152,208 1152,152 1280,152 1280,344 1152,344" /><polygon points="896,152 896,104 896,-16 960,-16 1088,-16 1120,-16 1120,208 896,208" /><polygon points="1120,208 1120,432 896,432 896,392 896,376 896,344 896,208" /><polygon points="1120,432 1120,664 928,664 896,664 896,440 896,432" /><polygon points="1120,-16 1152,-16 1152,104 1152,152 1152,208 1120,208" /><polygon points="1152,208 1152,344 1152,392 1152,432 1120,432 1120,208" /><polygon points="1152,432 1152,616 1152,664 1120,664 1120,432" /><polygon points="1088,-72 1120,-72 1152,-72 1152,-24 1152,-16 1120,-16 1088,-16" /><polygon points="1120,-72 1088,-72 960,-72 896,-72 896,-232 1120,-232" /><polygon points="1152,-232 1152,-200 1152,-72 1120,-72 1120,-232" /><polygon points="1120,-232 896,-232 896,-280 928,-280 1120,-280" /><polygon points="1152,-280 1152,-232 1120,-232 1120,-280" /><polygon points="1152,-872 1152,-872 1152,-648 1152,-648" /><polygon points="1152,-24 1152,-72 1152,-72 1152,-72 1152,-24" /><polygon points="1152,616 1152,432 1152,392 1152,392 1152,440 1152,616" /><polygon points="896,-280 896,-280 928,-280 928,-280" /><polygon points="1152,-648 1152,-424 1152,-424 1152,-648" /><polygon points="1152,-424 1152,-280 1152,-280 1152,-424" /><polygon points="-192,344 -128,344 -128,344 -128,344 -128,344 -192,344" /><polygon points="896,344 896,344 672,344 672,344" /><polygon points="0,168 0,152 0,152 0,344 0,344 0,344" /><polygon points="0,-48 0,-56 0,-96 0,-96 0,-48" /><polygon points="0,-504 0,-504 0,-328 0,-280 0,-280" /><polygon points="-192,-504 0,-504 0,-280 -192,-280" /><polygon points="0,-280 0,-96 0,-56 -192,-56 -192,-272 -192,-280" /><polygon points="0,-56 0,-48 0,104 0,152 0,168 -192,168 -192,120 -192,-48 -192,-56" /><polygon points="0,168 0,344 -128,344 -192,344 -192,168" /><polygon points="0,344 0,344 0,376 0,376" /><polygon points="224,376 0,376 0,376 224,376" /><polygon points="448,376 224,376 224,376 448,376" /><polygon points="672,376 448,376 448,376 672,376" /><polygon points="224,344 0,344 0,376 224,376" /><polygon points="448,344 224,344 224,376 448,376" /><polygon points="672,344 448,344 448,376 672,376" /><polygon points="896,376 896,344 672,344 672,376" /><polygon points="-896,-472 -896,-456 -896,-248 -896,-248 -896,-248 -896,-248 -896,-472" /><polygon points="-896,-472 -896,-616 -896,-616 -896,-616 -896,-456 -896,-456" /><polygon points="-896,-248 -896,-232 -768,-232 -768,-248" /><polygon points="-1280,8 -1280,24 -1152,24 -1152,8" /><polygon points="-1280,-216 -1280,-200 -1280,8 -1280,8 -1280,8 -1280,8 -1280,-216" /><polygon points="-1280,-440 -1280,-424 -1280,-216 -1280,-216 -1280,-440" /><polygon points="-1152,-616 -1152,-616 -1152,-440 -1152,-392 -1152,-392" /><polygon points="-1280,-440 -1280,-616 -1280,-616 -1280,-616 -1280,-424 -1280,-424" /><polygon points="-1152,-392 -1152,-168 -1152,-168 -1152,-392" /><polygon points="-1152,-168 -1152,8 -1152,24 -1152,24 -1152,-168" /><polygon points="896,152 896,152 896,376 896,376" /><polygon points="0,376 0,376 0,152 0,152" /><polygon points="0,152 0,152 224,152 224,152" /><polygon points="896,376 896,376 672,376 672,376" /><polygon points="672,152 896,152 896,376 672,376" /><polygon points="448,152 672,152 672,376 448,376" /><polygon points="224,152 448,152 448,376 224,376" /><polygon points="0,376 0,152 224,152 224,376" /><polygon points="-96,232 -96,264 -64,264 -64,232" /><polygon points="-64,232 -64,232 -64,264 -64,264" /><polygon points="-64,264 -64,264 -96,264 -96,264" /><polygon points="-96,264 -96,264 -96,232 -96,232" /><polygon points="-96,232 -96,232 -64,232 -64,232" /><polygon points="-96,264 -96,232 -64,232 -64,264" /><polygon points="896,-872 896,-872 896,-744 896,-744" /><polygon points="1152,-872 1152,-872 1120,-872 1120,-872" /><polygon points="1152,-648 1152,-632 1152,-424 1152,-424 1152,-648" /><polygon points="1152,-424 1152,-408 1152,-200 1152,-200 1152,-232 1152,-280 1152,-424" /><polygon points="1152,-200 1152,-184 1152,-72 1152,-72 1152,-200" /><polygon points="896,-632 896,-520 896,-408 1000,-408 1120,-408 1120,-632" /><polygon points="1120,-872 896,-872 896,-744 896,-632 1120,-632" /><polygon points="1120,-632 1120,-408 1152,-408 1152,-424 1152,-632" /><polygon points="1152,-648 1152,-872 1120,-872 1120,-632 1152,-632" /><polygon points="-784,-248 -880,-248 -896,-248 -896,-248 -768,-248 -768,-248" /><polygon points="-880,-248 -784,-248 -784,-232 -880,-232" /><polygon points="-880,-232 -784,-232 -784,-232 -880,-232" /><polygon points="-1168,8 -1264,8 -1280,8 -1280,8 -1152,8 -1152,8" /><polygon points="-1264,8 -1168,8 -1168,24 -1264,24" /><polygon points="-1264,-8 -1264,24 -1168,24 -1168,-8" /><polygon points="-880,-264 -880,-232 -784,-232 -784,-264" /><polygon points="960,-72 960,-72 1088,-72 1088,-72" /><polygon points="1088,-72 1088,-72 1088,-16 1088,-16" /><polygon points="1088,-16 1088,-16 960,-16 960,-16" /><polygon points="960,-16 960,-16 960,-72 960,-72" /><polygon points="960,-16 960,-72 1088,-72 1088,-16" /><polygon points="-192,-504 -192,-328 -192,-328 -192,-504" /><polygon points="-192,-280 -192,-328 -192,-504 -192,-504 -192,-280 -192,-272 -192,-272" /><polygon points="896,-24 896,-72 896,-72 896,-72 896,-24" /><polygon points="896,-72 896,-72 896,-120 896,-296 896,-296 896,-72" /><polygon points="896,664 928,664 1000,664 1000,664 928,664 896,664" /><polygon points="928,664 896,664 896,664 928,664" /><polygon points="1152,664 1152,664 1048,664 1048,664" /><polygon points="1280,224 1280,272 1280,344 1280,344 1280,152 1280,152" /><polygon points="1280,272 1280,224 1288,224 1288,272" /><polygon points="1288,224 1280,224 1280,224 1288,224" /><polygon points="1160,-72 1152,-72 1152,-72 1160,-72" /><polygon points="1152,-408 1152,-408 1152,-408 1152,-296 1152,-184 1152,-184 1152,-200 1152,-408" /><polygon points="1048,-408 1152,-408 1152,-408 1120,-408 1000,-408 1000,-408" /><polygon points="1048,-416 1048,-408 1000,-408 1000,-416" /><polygon points="1000,-416 1000,-408 1000,-408 1000,-416" /><polygon points="1152,-24 1152,-24 1152,-24 1152,104 1152,104 1152,-16 1152,-24" /><polygon points="1152,-24 1152,-72 1160,-72 1160,-24" /><polygon points="1280,344 1280,344 1280,344 1152,344 1152,344 1280,344" /><polygon points="1048,672 1048,664 1048,664 1048,672" /><polygon points="1000,664 1048,664 1048,672 1000,672" /><polygon points="-120,-504 -72,-504 0,-504 0,-504 -192,-504 -192,-504" /><polygon points="-120,-512 -120,-504 -120,-504 -120,-512" /><polygon points="-72,-512 -72,-504 -120,-504 -120,-512" /><polygon points="-128,344 -112,344 -112,344 -128,344" /><polygon points="672,344 448,344 448,344 672,344" /><polygon points="448,344 224,344 224,344 448,344" /><polygon points="224,344 0,344 0,344 224,344" /><polygon points="0,344 -64,344 -112,344 -128,344 -128,344 0,344" /><polygon points="896,344 896,344 672,344 672,344" /><polygon points="0,-48 0,-48 0,-48 0,104 0,104 0,-48" /><polygon points="0,-96 0,-96 0,-280 0,-280 0,-280 0,-96" /><polygon points="8,-96 0,-96 0,-96 8,-96" /><polygon points="8,-328 0,-328 0,-328 8,-328" /><polygon points="0,-280 0,-328 8,-328 8,-280" /><polygon points="888,-24 896,-24 896,-24 888,-24" /><polygon points="888,-72 896,-72 896,-24 888,-24" /><polygon points="0,-48 0,-96 8,-96 8,-48" /><polygon points="-64,352 -64,344 -64,344 -64,352" /><polygon points="-112,344 -64,344 -64,352 -112,352" /><polygon points="-200,-328 -192,-328 -192,-280 -200,-280" /><polygon points="-200,-280 -192,-280 -192,-280 -200,-280" /><polygon points="-200,-48 -192,-48 -192,-48 -200,-48" /><polygon points="-200,-96 -192,-96 -192,-48 -200,-48" /><polygon points="784,172 784,172 784,344 784,344" /><polygon points="80,344 80,344 80,172 80,172" /><polygon points="784,344 784,344 752,344 752,344" /><polygon points="80,172 80,172 112,172 112,172" /><polygon points="752,172 784,172 784,344 752,344" /><polygon points="528,172 752,172 752,344 528,344" /><polygon points="304,172 528,172 528,344 304,344" /><polygon points="80,344 80,172 304,172 304,344" /><polygon points="-192,-272 -192,-280 -192,-280 -192,-272 -192,-96 -192,-96" /><polygon points="-192,-272 -192,-96 -192,-48 -192,-48 -192,-104 -192,-272" /><polygon points="896,104 896,-24 896,-24 896,-24 896,-16 896,104" /><polygon points="896,-120 896,-72 896,-24 896,104 896,104 896,-8 896,-120" /><polygon points="896,-344 896,-296 896,-120 896,-120 896,-232 896,-344" /><polygon points="896,-296 896,-344 896,-408 896,-408 896,-296" /><polygon points="1000,664 1048,664 1152,664 1152,664 1088,664 960,664 928,664 928,664" /><polygon points="1280,344 1280,344 1280,272 1280,272" /><polygon points="1280,224 1280,224 1280,152 1280,152" /><polygon points="1280,224 1280,272 1288,272 1288,224" /><polygon points="1280,272 1280,272 1288,272 1288,272" /><polygon points="1288,272 1288,272 1288,224 1288,224" /><polygon points="1000,-408 1000,-408 1000,-408 896,-408 896,-408 896,-408 960,-408 1000,-408" /><polygon points="1152,-408 1152,-408 1048,-408 1048,-408" /><polygon points="1000,-408 1048,-408 1048,-416 1000,-416" /><polygon points="1048,-408 1048,-408 1048,-416 1048,-416" /><polygon points="1048,-416 1048,-416 1000,-416 1000,-416" /><polygon points="1152,-24 1152,-72 1152,-72 1152,-24" /><polygon points="1160,-24 1160,-24 1160,-72 1160,-72" /><polygon points="1152,-72 1152,-24 1160,-24 1160,-72" /><polygon points="1152,-24 1152,-24 1160,-24 1160,-24" /><polygon points="1000,664 1000,664 1000,672 1000,672" /><polygon points="1048,672 1048,664 1000,664 1000,672" /><polygon points="1000,672 1000,672 1048,672 1048,672" /><polygon points="0,-504 0,-504 -72,-504 -72,-504" /><polygon points="-120,-504 -120,-504 -192,-504 -192,-504" /><polygon points="-120,-504 -72,-504 -72,-512 -120,-512" /><polygon points="-72,-504 -72,-504 -72,-512 -72,-512" /><polygon points="-72,-512 -72,-512 -120,-512 -120,-512" /><polygon points="896,344 896,344 768,344 672,344 672,344" /><polygon points="672,344 448,344 448,344 672,344" /><polygon points="448,344 224,344 224,344 448,344" /><polygon points="224,344 0,344 0,344 224,344" /><polygon points="0,344 -64,344 -64,344 0,344" /><polygon points="0,-328 0,-328 0,-504 0,-504" /><polygon points="0,-328 0,-504 0,-504 0,-296 0,-280 0,-280" /><polygon points="0,-280 0,-280 8,-280 8,-280" /><polygon points="0,-328 0,-280 8,-280 8,-328" /><polygon points="8,-280 8,-280 8,-328 8,-328" /><polygon points="888,-72 888,-72 888,-24 888,-24" /><polygon points="896,-72 896,-72 888,-72 888,-72" /><polygon points="888,-24 896,-24 896,-72 888,-72" /><polygon points="0,-96 0,-48 8,-48 8,-96" /><polygon points="0,-48 0,-48 8,-48 8,-48" /><polygon points="8,-48 8,-48 8,-96 8,-96" /><polygon points="-112,344 -112,344 -112,352 -112,352" /><polygon points="-64,352 -64,344 -112,344 -112,352" /><polygon points="-112,352 -112,352 -64,352 -64,352" /><polygon points="-192,-96 -192,-96 -200,-96 -200,-96" /><polygon points="-192,-328 -192,-328 -200,-328 -200,-328" /><polygon points="-200,-280 -192,-280 -192,-328 -200,-328" /><polygon points="-200,-328 -200,-328 -200,-280 -200,-280" /><polygon points="-200,-48 -192,-48 -192,-96 -200,-96" /><polygon points="-200,-96 -200,-96 -200,-48 -200,-48" /><polygon points="-1168,24 -1264,24 -1264,24 -1168,24" /><polygon points="-896,-248 -896,-248 -880,-248 -880,-248" /><polygon points="-784,-248 -784,-248 -768,-248 -768,-248" /><polygon points="-880,-248 -880,-248 -880,-232 -880,-232" /><polygon points="-880,-232 -784,-232 -784,-248 -880,-248" /><polygon points="-784,-232 -784,-232 -784,-248 -784,-248" /><polygon points="-1280,8 -1280,8 -1264,8 -1264,8" /><polygon points="-1168,8 -1168,8 -1152,8 -1152,8" /><polygon points="-1264,8 -1264,8 -1264,24 -1264,24" /><polygon points="-1264,24 -1168,24 -1168,8 -1264,8" /><polygon points="-1168,24 -1168,24 -1168,8 -1168,8" /><polygon points="-1264,24 -1264,-8 -1168,-8 -1168,24" /><polygon points="-1264,24 -1264,24 -1264,-8 -1264,-8" /><polygon points="-1168,-8 -1168,-8 -1168,24 -1168,24" /><polygon points="-1168,24 -1168,24 -1264,24 -1264,24" /><polygon points="-1264,-8 -1264,-8 -1168,-8 -1168,-8" /><polygon points="-880,-232 -880,-264 -784,-264 -784,-232" /><polygon points="-880,-232 -880,-232 -880,-264 -880,-264" /><polygon points="-784,-264 -784,-264 -784,-232 -784,-232" /><polygon points="-784,-232 -784,-232 -880,-232 -880,-232" /><polygon points="-880,-264 -880,-264 -784,-264 -784,-264" /><polygon points="-896,-616 -896,-616 -896,-472 -896,-472" /><polygon points="-896,-248 -896,-248 -880,-248 -784,-248 -768,-248 -768,-248" /><polygon points="-896,-472 -896,-248 -768,-248 -768,-392 -768,-472" /><polygon points="-768,-616 -896,-616 -896,-472 -768,-472" /><polygon points="-1280,8 -1280,8 -1264,8 -1168,8 -1152,8 -1152,8" /><polygon points="-1280,-616 -1280,-616 -1280,-440 -1280,-440" /><polygon points="-1280,-216 -1280,8 -1152,8 -1152,-168 -1152,-216" /><polygon points="-1280,-440 -1280,-216 -1152,-216 -1152,-392 -1152,-440" /><polygon points="-1152,-616 -1280,-616 -1280,-440 -1152,-440" /><polygon points="-1152,-392 -1152,-216 -1152,-168 -1152,-168 -1152,-392" /><polygon points="-1152,-168 -1152,8 -1152,8 -1152,8 -1152,8 -1152,-168" /><polygon points="-192,-48 -192,-48 -192,-48 -192,-48 -192,120 -192,120" /><polygon points="-192,-328 -192,-504 -192,-504 -192,-328 -192,-280 -192,-272 -192,-272" /><polygon points="896,392 896,344 896,344 896,344 896,344 896,376 896,392" /><polygon points="896,392 896,392 896,432 896,440 896,440" /><polygon points="896,152 896,104 896,104 896,104 896,152" /><polygon points="896,-408 896,-408 896,-344 896,-344" /><polygon points="928,664 896,664 896,664 928,664" /><polygon points="1280,280 1280,216 1280,216 1280,280" /><polygon points="1280,216 1280,280 1280,344 1280,344 1280,272 1280,224 1280,152 1280,152" /><polygon points="1152,152 1088,152 1088,216 1280,216 1280,152" /><polygon points="896,-8 896,104 896,152 896,216 960,216 960,-8" /><polygon points="896,-232 896,-120 896,-8 960,-8 960,-232" /><polygon points="960,-408 896,-408 896,-344 896,-232 960,-232" /><polygon points="1088,-72 1088,40 1088,152 1152,152 1152,104 1152,-24 1152,-72" /><polygon points="1088,-296 1088,-184 1088,-72 1152,-72 1152,-184 1152,-296" /><polygon points="1152,-408 1088,-408 1088,-296 1152,-296" /><polygon points="960,-8 960,216 960,216 960,-8" /><polygon points="960,-232 960,-8 960,-8 960,-232" /><polygon points="1088,-296 1088,-408 1088,-408 1088,-232 1088,-184 1088,-184" /><polygon points="1152,-184 1152,-72 1152,-72 1152,-72 1152,-72 1152,-184" /><polygon points="1088,-408 1152,-408 1152,-408 1048,-408 1000,-408 1000,-408" /><polygon points="1152,152 1152,152 1152,104 1152,104" /><polygon points="1152,152 1280,152 1280,152 1280,152 1280,152 1152,152" /><polygon points="1088,568 1088,440 1088,344 1088,344 1088,440 1088,568" /><polygon points="1088,280 1088,344 1152,344 1280,344 1280,280" /><polygon points="1088,440 1088,568 1088,664 1152,664 1152,616 1152,440" /><polygon points="1152,392 1152,344 1088,344 1088,440 1152,440" /><polygon points="1152,392 1152,392 1152,344 1152,344" /><polygon points="1152,664 1152,664 1152,664 1152,664 1152,616 1152,616" /><polygon points="960,440 960,664 960,664 960,440" /><polygon points="896,440 896,664 928,664 960,664 960,440" /><polygon points="960,280 896,280 896,344 896,392 896,440 960,440" /><polygon points="-64,-504 -128,-504 -128,-504 -64,-504" /><polygon points="-128,-504 -64,-504 0,-504 0,-504 -72,-504 -120,-504 -192,-504 -192,-504" /><polygon points="672,344 544,344 448,344 448,344 672,344" /><polygon points="448,344 320,344 224,344 224,344 448,344" /><polygon points="224,344 96,344 0,344 0,344 224,344" /><polygon points="0,344 -128,344 -128,344 -112,344 -64,344 0,344" /><polygon points="-192,120 -192,344 -128,344 -128,280 -128,120" /><polygon points="-192,-104 -192,-48 -192,120 -128,120 -128,56 -128,-104" /><polygon points="-192,-328 -192,-272 -192,-104 -128,-104 -128,-168 -128,-328" /><polygon points="-128,-392 -128,-504 -192,-504 -192,-328 -128,-328" /><polygon points="-64,-72 -64,-56 -64,152 0,152 0,104 0,-48 0,-72" /><polygon points="-64,-296 -64,-280 -64,-72 0,-72 0,-280 0,-296" /><polygon points="0,-504 -64,-504 -64,-296 0,-296" /><polygon points="160,152 0,152 -64,152 -64,216 160,216" /><polygon points="384,152 224,152 160,152 160,216 384,216" /><polygon points="608,152 448,152 384,152 384,216 608,216" /><polygon points="832,152 672,152 608,152 608,216 832,216" /><polygon points="896,216 896,152 832,152 832,216" /><polygon points="96,280 0,280 -128,280 -128,344 0,344 96,344" /><polygon points="320,280 224,280 96,280 96,344 224,344 320,344" /><polygon points="544,280 448,280 320,280 320,344 448,344 544,344" /><polygon points="768,280 672,280 544,280 544,344 672,344 768,344" /><polygon points="896,344 896,280 768,280 768,344" /><polygon points="-128,56 -128,120 -128,280 -128,280 -128,216 -128,56" /><polygon points="-128,-168 -128,-104 -128,56 -128,56 -128,-8 -128,-168" /><polygon points="-128,-392 -128,-328 -128,-168 -128,-168 -128,-232 -128,-392" /><polygon points="160,216 -64,216 -64,216 64,216 160,216" /><polygon points="384,216 160,216 160,216 288,216 384,216" /><polygon points="608,216 384,216 384,216 512,216 608,216" /><polygon points="832,216 608,216 608,216 736,216 832,216" /><polygon points="-64,-296 -64,-504 -64,-504 -64,-456 -64,-280 -64,-280" /><polygon points="768,280 896,280 896,280 736,280 672,280 672,280" /><polygon points="0,152 0,152 0,104 0,104" /><polygon points="0,-280 0,-72 0,-48 0,-48 0,-96 0,-280" /><polygon points="832,152 896,152 896,152 896,152 896,152 672,152 672,152" /><polygon points="1088,664 960,664 960,664 1088,664" /><polygon points="960,216 960,216 896,216 896,216" /><polygon points="1120,216 1152,216 1280,216 1280,216 1088,216 1088,216" /><polygon points="1088,-408 1088,-408 1000,-408 960,-408 960,-408" /><polygon points="960,-408 960,-408 960,-232 960,-232" /><polygon points="1088,216 1088,216 1088,152 1088,152" /><polygon points="1088,-184 1088,-8 1088,40 1088,40 1088,-72 1088,-184" /><polygon points="1088,40 1088,152 1088,152 1088,40" /><polygon points="960,-8 960,216 1088,216 1088,152 1088,40 1088,-8" /><polygon points="960,-232 960,-8 1088,-8 1088,-184 1088,-232" /><polygon points="1088,-408 960,-408 960,-232 1088,-232" /><polygon points="896,280 896,280 960,280 960,280" /><polygon points="1152,280 1120,280 1088,280 1088,280 1280,280 1280,280" /><polygon points="1280,280 1280,216 1152,216 1152,280" /><polygon points="1120,216 1088,216 960,216 896,216 896,280 960,280 1088,280 1120,280" /><polygon points="1152,280 1152,216 1120,216 1120,280" /><polygon points="1088,344 1088,344 1088,280 1088,280" /><polygon points="1088,664 1088,664 1088,568 1088,568" /><polygon points="960,280 960,280 960,440 960,440" /><polygon points="960,440 960,664 1088,664 1088,568 1088,440" /><polygon points="1088,344 1088,280 960,280 960,440 1088,440" /><polygon points="-128,-456 -128,-504 -128,-504 -128,-392 -128,-392" /><polygon points="896,216 896,216 832,216 832,216" /><polygon points="-64,-280 -64,-232 -64,-56 -64,-56 -64,-72 -64,-280" /><polygon points="-64,-56 -64,-8 -64,152 -64,152 -64,-56" /><polygon points="-64,216 -64,216 -64,152 -64,152" /><polygon points="-128,-8 -128,56 -128,216 -64,216 -64,152 -64,-8" /><polygon points="-128,-232 -128,-168 -128,-8 -64,-8 -64,-56 -64,-232" /><polygon points="-128,-456 -128,-392 -128,-232 -64,-232 -64,-280 -64,-456" /><polygon points="-64,-504 -128,-504 -128,-456 -64,-456" /><polygon points="672,280 512,280 448,280 448,280 544,280 672,280" /><polygon points="448,280 288,280 224,280 224,280 320,280 448,280" /><polygon points="224,280 64,280 0,280 0,280 96,280 224,280" /><polygon points="0,280 -128,280 -128,280 0,280" /><polygon points="288,216 160,216 64,216 64,280 224,280 288,280" /><polygon points="512,216 384,216 288,216 288,280 448,280 512,280" /><polygon points="736,216 608,216 512,216 512,280 672,280 736,280" /><polygon points="896,280 896,216 832,216 736,216 736,280" /><polygon points="0,280 64,280 64,216 -64,216 -128,216 -128,280" /><polygon points="-1008,1024 -1008,1024 -1208,1024 -1208,1024" /><polygon points="-1008,800 -1008,800 -1008,892 -1008,1024 -1008,1024" /><polygon points="-1208,800 -1008,800 -1008,1024 -1208,1024" /><polygon points="-1208,800 -1208,1024 -1008,1024 -1008,800" /><polygon points="-1008,800 -1008,800 -1208,800 -1208,800" /><polygon points="-1008,1024 -1008,1024 -1008,1024 -1208,1024 -1208,1024" /><polygon points="-1008,800 -1008,800 -1008,852 -1008,856 -1008,872 -1008,888 -1008,892 -1008,892" /><polygon points="-1208,800 -1208,800 -1208,1024 -1208,1024" /><polygon points="-1008,892 -1008,800 -1208,800 -1208,1024 -1008,1024" /><polygon points="-1208,800 -1008,800 -1008,892 -1008,1024 -1208,1024" /><polygon points="-1008,800 -1008,800 -1008,852 -1008,852" /><polygon points="-1008,872 -1008,856 -1008,856 -1008,872" /><polygon points="-1008,892 -1008,892 -1008,900 -1008,1024 -1008,1024 -1008,892" /><polygon points="-1008,852 -1008,856 -1012,856 -1012,852" /><polygon points="-1012,852 -1012,856 -1008,856 -1008,852" /><polygon points="-1012,888 -1012,892 -1008,892 -1008,888" /><polygon points="-1008,888 -1008,892 -1012,892 -1012,888" /><polygon points="-1012,856 -1012,872 -1008,872 -1008,856" /><polygon points="-1008,856 -1008,872 -1012,872 -1012,856" /><polygon points="-1008,872 -1008,856 -1008,856 -1008,872" /><polygon points="-1008,872 -1008,872 -1008,872 -1008,880 -1008,888 -1008,888 -1008,872" /><polygon points="-1012,856 -1012,856 -1012,872 -1012,872" /><polygon points="-1012,872 -1012,872 -1012,856 -1012,856" /><polygon points="-1012,872 -1012,872 -1008,872 -1008,872" /><polygon points="-1008,872 -1008,872 -1012,872 -1012,872" /><polygon points="-1012,872 -1012,856 -1008,856 -1008,872" /><polygon points="-1008,872 -1008,856 -1012,856 -1012,872" /><polygon points="-1008,892 -1008,892 -1008,888 -1008,888 -1008,888 -1008,892" /><polygon points="-1008,892 -1008,892 -1012,892 -1012,892" /><polygon points="-1012,892 -1012,892 -1008,892 -1008,892" /><polygon points="-1008,888 -1008,888 -1012,888 -1012,888" /><polygon points="-1012,888 -1012,888 -1008,888 -1008,888" /><polygon points="-1008,892 -1008,892 -1008,900 -1008,892" /><polygon points="-1012,888 -1012,888 -1012,888 -1012,892 -1012,892 -1012,892" /><polygon points="-1012,892 -1012,892 -1012,892 -1012,888 -1012,888 -1012,888" /><polygon points="-1008,892 -1008,888 -1012,888 -1012,892" /><polygon points="-1012,892 -1012,888 -1008,888 -1008,892" /><polygon points="-1008,856 -1008,856 -1012,856 -1012,856" /><polygon points="-1012,856 -1012,856 -1008,856 -1008,856" /><polygon points="-1012,856 -1012,872 -1008,872 -1008,856" /><polygon points="-1008,856 -1008,872 -1012,872 -1012,856" /><polygon points="-1008,900 -1008,892 -1008,888 -1008,880 -1008,872 -1008,856 -1008,852 -1008,800 -1008,800 -1008,1024 -1008,1024" /><polygon points="-1008,852 -1008,856 -1008,856 -1008,856 -1008,856 -1008,852" /><polygon points="-1008,856 -1008,872 -1008,872 -1008,856" /><polygon points="-1008,880 -1008,888 -1008,888 -1008,888" /><polygon points="-1008,888 -1008,892 -1008,892 -1008,888" /><polygon points="-1008,900 -1008,892 -1012,892 -1012,900" /><polygon points="-1012,900 -1012,892 -1008,892 -1008,900" /><polygon points="-1008,872 -1008,856 -1012,856 -1012,872" /><polygon points="-1012,872 -1012,856 -1008,856 -1008,872" /><polygon points="-1008,888 -1008,880 -1012,880 -1012,888" /><polygon points="-1012,888 -1012,880 -1008,880 -1008,888" /><polygon points="-1012,856 -1012,852 -1008,852 -1008,856" /><polygon points="-1008,856 -1008,852 -1012,852 -1012,856" /><polygon points="-1008,892 -1008,892 -1012,892 -1012,892" /><polygon points="-1012,892 -1012,892 -1008,892 -1008,892" /><polygon points="-1012,888 -1012,888 -1012,888 -1012,880" /><polygon points="-1012,880 -1012,888 -1012,888 -1012,888" /><polygon points="-1012,856 -1012,856 -1012,856 -1012,856 -1012,852 -1012,852" /><polygon points="-1012,852 -1012,852 -1012,856 -1012,856 -1012,856 -1012,856" /><polygon points="-1012,872 -1012,872 -1012,856 -1012,856" /><polygon points="-1012,856 -1012,856 -1012,872 -1012,872" /><polygon points="-1008,852 -1008,852 -1012,852 -1012,852" /><polygon points="-1012,852 -1012,852 -1008,852 -1008,852" /><polygon points="-1008,872 -1008,872 -1012,872 -1012,872" /><polygon points="-1012,872 -1012,872 -1008,872 -1008,872" /><polygon points="-1008,888 -1008,888 -1012,888 -1012,888" /><polygon points="-1012,888 -1012,888 -1008,888 -1008,888" /><polygon points="-1008,880 -1012,880 -1012,888 -1008,888" /><polygon points="-1012,880 -1008,880 -1008,888 -1012,888" /><polygon points="-1012,892 -1012,892 -1012,892 -1012,900" /><polygon points="-1012,900 -1012,892 -1012,892 -1012,892" /><polygon points="-1008,900 -1008,892 -1012,892 -1012,900" /><polygon points="-1012,900 -1012,892 -1008,892 -1008,900" /><polygon points="-1208,800 -1208,800 -1008,800 -1008,800" /><polygon points="-1008,1024 -1008,1024 -1208,1024 -1208,1024" /><polygon points="-1008,800 -1008,800 -1008,1024 -1008,1024" /><polygon points="-1208,1024 -1208,1024 -1208,800 -1208,800" /><polygon points="-1208,1024 -1208,800 -1008,800 -1008,1024" /><polygon points="-1008,800 -1008,800 -1008,800 -1008,800 -1208,800 -1208,800" /><polygon points="-1208,800 -1208,800 -1208,1024 -1208,1024" /><polygon points="-1008,800 -1208,800 -1208,1024 -1008,1024" /></g></defs><rect fill="#fff" height="2274.0" id="background" width="2946.0" x="-1469.0" y="-1061.0" /><use fill="none" stroke="black" stroke-miterlimit="0" stroke-width="15" xlink:href="#bsp_ref" /><use fill="white" stroke="black" stroke-width="1" xlink:href="#bsp_ref" /></svg>