<svg viewBox="-219 -667 1238 1094" xmlns="http://www.w3.org/2000/svg" xmlns:xlink="http://www.w3.org/1999/xlink"><defs><g id="a"><path d="m832-144h64v64h-64z"/><path d="m832-80h64l32 32h-128z"/><path d="m896-144 32-32v128l-32-32z"/><path d="m896-144h-64l-32-32h128z"/><path d="m928-176v16 16 24 16 24 16 16z"/><path d="m800-176 32 32v64l-32 32z"/><path d="m-16-208v32 128 32z"/><path d="m0-176v32 64 32z"/><path d="m256-256-104 47v-47z"/><path d="m32-48v-128-32-48h120v47 177h-120z"/><path d="m152-32v16 48h-120v-48-16z"/><path d="m0-176h16v128h-16z"/><path d="m16-176h16v128h-16z"/><path d="m256 32h-104v-48z"/><path d="m152 32h104-32-192z"/><path d="m152-32v-177 193z"/><path d="m256-256-80 36.1538-24 10.8462z"/><path d="m16-176v32 64 32z"/><path d="m-16-176h16v128h-16z"/><path d="m256-256v16z"/><path d="m256-256v16l-80 42v-21.8462z"/><path d="m152-209 24-10.8462v21.8462 171 22.0769l-24-11.0769z"/><path d="m256 16v16l-80-36.9231v-22.0769z"/><path d="m176-198v171z"/><path d="m256-240-56 29.4-24 12.6z"/><path d="m176-4.9231 80 36.9231-104-48z"/><path d="m256 16v16z"/><path d="m256 32v-16-16z"/><path d="m256-224v-16-16z"/><path d="m256 32h-32z"/><path d="m224-256h-192-32 32z"/><path d="m224-256h32-104-120z"/><path d="m200-187v-23.6l56-29.4v16z"/><path d="m176-198 24-12.6v23.6 149 23.9l-24-12.9z"/><path d="m256 0v16l-56-30.1v-23.9z"/><path d="m200-187v149z"/><path d="m256-224-32 21.1429-24 15.8571z"/><path d="m200-14.1 56 30.1-80-43z"/><path d="m0-16h32z"/><path d="m32-256v48z"/><path d="m32-208h-32v-48h32z"/><path d="m32-16v-32 16z"/><path d="m32-16v48z"/><path d="m32 32h-32v-48h32z"/><path d="m256 32v-32-16z"/><path d="m256-208v-16-32z"/><path d="m256 0-32-21.7143v-26.2857l32 32z"/><path d="m200-187 24-15.8571v26.8571 128 26.2857l-24-16.2857z"/><path d="m224-176v-26.8571l32-21.1429v16z"/><path d="m224-176v128z"/><path d="m224-21.7143 32 21.7143-56-38z"/><path d="m928-160v-16z"/><path d="m928-120v-24z"/><path d="m928-48v-16z"/><path d="m928-80v-24z"/><path d="m0-208v-48z"/><path d="m0-16v48z"/><path d="m800-144v24z"/><path d="m800-64v-16-24-16-24-16-16 128z"/><path d="m800-64v16z"/><path d="m800-104v24z"/><path d="m928-48h-128z"/><path d="m800-176h128z"/><path d="m928-160h-128v16h128z"/><path d="m928-120h-128v16h128z"/><path d="m928-80h-128v16h128z"/><path d="m272-368h-16z"/><path d="m352-368h-64z"/><path d="m384-368h-16z"/><path d="m768-176v128z"/><path d="m352 144h-64v-16h64z"/><path d="m272-144v-208h16 64 16v208 16h-96z"/><path d="m368-128v208 16h-96v-16-208z"/><path d="m368 96v32h-16-64-16v-32z"/><path d="m256-208v-48-112h16v16 208h-16z"/><path d="m272-144v16 208h-16v-48-48-128z"/><path d="m272 80v16 32 16h-16v-64z"/><path d="m288-352v-16h64v16z"/><path d="m368-352v-16h16v112 80 32h-16z"/><path d="m384-144v96 128h-16v-208-16z"/><path d="m384 80v64h-16v-16-32-16z"/><path d="m624 160v24h-64v-24z"/><path d="m560 128v-24h64v24z"/><path d="m560 72v-24h64v24z"/><path d="m656-48h-48-16v-32h64z"/><path d="m720 160v24h-64v-24z"/><path d="m720 104v24h-64v-24z"/><path d="m720 48v24h-64v-24z"/><path d="m592-176v32 64 32h-208v-96-32z"/><path d="m592-144v-32h16 48v32z"/><path d="m656-80v-64-32h16 96v128h-112z"/><path d="m384-368v64 48z"/><path d="m368-352h-16z"/><path d="m384 80v-128 64 64 64z"/><path d="m560 48h64z"/><path d="m608-176h-16-208 96 32 64z"/><path d="m768-176h-96z"/><path d="m592-144v64z"/><path d="m656-48h112-64-32-64z"/><path d="m656 160v24z"/><path d="m656 104v24z"/><path d="m720 72v-24z"/><path d="m720 72h-64z"/><path d="m720 128v-24z"/><path d="m720 128h-64z"/><path d="m720 184h-64z"/><path d="m624 72v-24z"/><path d="m624 128v-24z"/><path d="m560 104v24z"/><path d="m560 160v24z"/><path d="m624 184h-64z"/><path d="m368 144h16z"/><path d="m288 144h64z"/><path d="m256 144h16z"/><path d="m224 32h-192-32 32z"/><path d="m224 32h32-96-64-64z"/><path d="m256-256h-32z"/><path d="m224-176 32-32v64 128l-32-32z"/><path d="m256-16-32-32z"/><path d="m224-176 32-32z"/><path d="m0-208h32z"/><path d="m32-256h-32v48h32z"/><path d="m32-16h-32v48h32z"/><path d="m656-80h-64z"/><path d="m592-144h64z"/><path d="m656-144v64z"/><path d="m592-144h64v64h-64z"/><path d="m928-64v-16-24-16-24-16-16 128z"/><path d="m800-176v16z"/><path d="m928-144h-128v-16h128z"/><path d="m928-104h-128v-16h128z"/><path d="m928-64h-128v-16h128z"/><path d="m928-104h-128z"/><path d="m928-144h-128z"/><path d="m800-160h128z"/><path d="m800-120h128z"/><path d="m800-80h128z"/><path d="m928-64h-128z"/><path d="m768-176h32v16 16 24 16 24 16 16h-32z"/><path d="m800-176h-32z"/><path d="m288-368v16z"/><path d="m352-352v-16z"/><path d="m352-368h-64v16h64z"/><path d="m560 48h64z"/><path d="m720 48h-64z"/><path d="m768-176h-96 32z"/><path d="m656 160v24z"/><path d="m656 104v24z"/><path d="m656 48v24z"/><path d="m720 104h-64z"/><path d="m720 72v-24z"/><path d="m720 48v24h-64v-24z"/><path d="m720 72v-24h-64v24z"/><path d="m720 72h-64z"/><path d="m720 160h-64z"/><path d="m720 128v-24z"/><path d="m720 104v24h-64v-24z"/><path d="m720 128v-24h-64v24z"/><path d="m720 128h-64z"/><path d="m720 184v-24z"/><path d="m720 160v24h-64v-24z"/><path d="m720 184v-24h-64v24z"/><path d="m720 184h-48-16z"/><path d="m624 104h-64z"/><path d="m560 48v24z"/><path d="m624 72v-24z"/><path d="m560 72v-24h64v24z"/><path d="m624 72v-24h-64v24z"/><path d="m560 72h64z"/><path d="m624 160h-64z"/><path d="m624 128v-24z"/><path d="m560 104v24z"/><path d="m560 128v-24h64v24z"/><path d="m624 128v-24h-64v24z"/><path d="m560 128h64z"/><path d="m624 184v-24z"/><path d="m560 160v24z"/><path d="m624 184v-24h-64v24z"/><path d="m624 160v24h-64v-24z"/><path d="m624 184h-32-32z"/><path d="m272 128h16z"/><path d="m352 128h16z"/><path d="m352 144v-16z"/><path d="m288 128v16z"/><path d="m352 128h-64v16h64z"/><path d="m928-176v128z"/><path d="m576 208h16z"/><path d="m352-368h-64z"/><path d="m768 48v-32-24 152z"/><path d="m800-48h-32z"/><path d="m256 32v48 64z"/><path d="m256-368v112z"/><path d="m384-368v64z"/><path d="m384-256v-48z"/><path d="m352-352h-64z"/><path d="m352-352h-64v-16h64z"/><path d="m272-368v16z"/><path d="m720 72v32h-64v-32z"/><path d="m576 16h32 64 32 64v32h-48-64-32-64-16v-32z"/><path d="m768-8v24h-64v-24z"/><path d="m720 160v-32-24-32-24h48v96l-40 40h-8z"/><path d="m688 208h-16v-24h48 8l-24 24z"/><path d="m624 128h32 64v32h-64-32-64v-32z"/><path d="m544-16v-16h32 32v16z"/><path d="m672 16h-64v-32-16-16h64z"/><path d="m544-8h32v24h-32z"/><path d="m624 128v-24-32-24h32v24 32 24z"/><path d="m544 48h16v24 32 24h-16z"/><path d="m624 104h-64v-32h64z"/><path d="m544 16v32 80h-32v-136h32z"/><path d="m656 184h-32v-24h32z"/><path d="m592 208v-24h32 32 16v24z"/><path d="m552 184h8 32v24h-16z"/><path d="m560 160v24h-8l-40-40v-16h32 16z"/><path d="m352 144h-64v-16h64z"/><path d="m384-48v64z"/><path d="m384 80v64z"/><path d="m576-48h-64z"/><path d="m576-48h32z"/><path d="m576-32h-32z"/><path d="m608-32h-32z"/><path d="m608-16h-64z"/><path d="m480-48h-96z"/><path d="m288 144h64z"/><path d="m384-256v16 64z"/><path d="m720 48h-64z"/><path d="m672-176h-16-48z"/><path d="m608-48h-32-64-32-96 208z"/><path d="m656 48v24z"/><path d="m720 104h-64z"/><path d="m720 160h-64z"/><path d="m720 184v-24z"/><path d="m624 104h-64z"/><path d="m560 48v24z"/><path d="m560 72h64z"/><path d="m624 160h-64z"/><path d="m560 128h64z"/><path d="m624 184v-24z"/><path d="m352 128h-64-16 16 64 16z"/><path d="m368 128v16z"/><path d="m272 144v-16z"/><path d="m256 32h-32-64z"/><path d="m96-256h64 96-32-192z"/><path d="m144-288 16 16v16h-64v-16l16-16z"/><path d="m0-16h32z"/><path d="m32-256v48z"/><path d="m32-208h-32v-48h32z"/><path d="m32-48v32-64z"/><path d="m32-176v-32z"/><path d="m16-48h-16z"/><path d="m32-48h-16z"/><path d="m0-176h16z"/><path d="m16-176h16z"/><path d="m16-48h16v-32h-16z"/><path d="m32-176h-16v32h16z"/><path d="m0-48h16v-32h-16z"/><path d="m16-176h-16v32h16z"/><path d="m32-16v48z"/><path d="m32 32h-32v-48h32z"/><path d="m96 48v-16h64v16l-16 16h-32z"/><path d="m688 208v40l-16 16v-56z"/><path d="m672 264-8 8h-48l-24-24v-40h80z"/><path d="m688 208v40z"/><path d="m616 272h48z"/><path d="m672 264 16-16-24 24z"/><path d="m-16-176v32z"/><path d="m-16-48v32z"/><path d="m-16-176h16z"/><path d="m0-48h-16z"/><path d="m0-176h-16v32h16z"/><path d="m-16-48h16v-32h-16z"/><path d="m-16-48h-16z"/><path d="m-32-48h16v-32h-16z"/><path d="m672-48h-64v16h64z"/><path d="m288-368v16z"/><path d="m352-352v-16z"/><path d="m352-368h-64v16h64z"/><path d="m272 128v16z"/><path d="m352 128h-64v16h64z"/><path d="m352 144v-16z"/><path d="m352 128h16z"/><path d="m288 128v16z"/><path d="m272 128h16z"/><path d="m0-208v-48z"/><path d="m0-208v32z"/><path d="m0-144v-32 128-32z"/><path d="m352-368h-64z"/><path d="m288-352h-16z"/><path d="m352-352h-64z"/><path d="m352-352h-64v-16h64z"/><path d="m352 144h-64v-16h64z"/><path d="m288 144h64z"/><path d="m352 128h-64-16 16 64 16z"/><path d="m32-144h-16v64h16z"/><path d="m16-144h-16v64h16z"/><path d="m32-208v32h-32v-32z"/><path d="m0-208h32z"/><path d="m32-208v32 32z"/><path d="m16-144v-32 128-32z"/><path d="m-16-48v-32-64-32 128 32z"/><path d="m0-144h-16v64h16z"/><path d="m-16-48h-16v-32h16z"/><path d="m368-352v-16z"/><path d="m288-368v16z"/><path d="m352-352v-16z"/><path d="m352-368h-64v16h64z"/><path d="m352 128h-64v16h64z"/><path d="m352 144v-16z"/><path d="m352 128h16z"/><path d="m288 128v16z"/><path d="m272 128h16z"/><path d="m928-176v128z"/><path d="m0-48v32z"/><path d="m0 32v-48z"/><path d="m800-48h128z"/><path d="m928-176h-128z"/><path d="m704 208h32-32-16z"/><path d="m688 208h16z"/><path d="m272-368h-16z"/><path d="m256-368h16z"/><path d="m352-368h-64z"/><path d="m384-368h-16z"/><path d="m368-368h16z"/><path d="m704 208 24-24 40-40z"/><path d="m768 144v32l-32 32h-32z"/><path d="m768-8v152z"/><path d="m256 32v112z"/><path d="m256-368v112z"/><path d="m384-304v-64 112z"/><path d="m288-352h64 16-16-64-16z"/><path d="m352-352h-64v-16h64z"/><path d="m384-176v-64z"/><path d="m384-240v-16z"/><path d="m384 80v-64-64 192z"/><path d="m384 80v-64z"/><path d="m512-8v136 16z"/><path d="m768-8h-64z"/><path d="m576-8h-32-32z"/><path d="m576-8v24z"/><path d="m576 208h-32l-32-32v-32z"/><path d="m512 144 40 40 24 24z"/><path d="m480-176h32z"/><path d="m480-176h-96z"/><path d="m480-48h-96z"/><path d="m368 144v-16z"/><path d="m384 144h-16z"/><path d="m352 144h-64v-16h64z"/><path d="m288 144h64z"/><path d="m352 128h-64-16 16 64 16z"/><path d="m272 144h-16z"/><path d="m96 32h-96 32z"/><path d="m256 32h-32z"/><path d="m96-256h-64-32z"/><path d="m224-256h32-96z"/><path d="m224-256h-64-64-96z"/><path d="m96-272v16z"/><path d="m160-256v-16z"/><path d="m160-256v-16l-16-16h-32l-16 16v16z"/><path d="m144-288h-32z"/><path d="m112-288-16 16z"/><path d="m160-272-16-16z"/><path d="m32-48h-32v-48h32z"/><path d="m0-128v-48h32v48z"/><path d="m32-96v-32-48-32 64 64 64-32z"/><path d="m0-48h32v32h-32z"/><path d="m160 32v16z"/><path d="m96 48v-16z"/><path d="m160 48v-16h-64v16l16 16h32z"/><path d="m144 64h-32z"/><path d="m160 48-16 16z"/><path d="m112 64-16-16z"/><path d="m592 248v-40z"/><path d="m592 208v40z"/><path d="m688 208v40z"/><path d="m616 272h48z"/><path d="m592 248 24 24z"/><path d="m688 248-24 24z"/><path d="m-16-208v32z"/><path d="m-16-48v32z"/><path d="m288-352h-16z"/><path d="m368-352h-16z"/><path d="m288-368v16z"/><path d="m352-352v-16z"/><path d="m352-368h-64v16h64z"/><path d="m352 128h-64v16h64z"/><path d="m288 128v16z"/><path d="m352 144v-16z"/><path d="m352 128h16z"/><path d="m272 128h16z"/><path d="m928-176v128z"/><path d="m0-256v48 32 48z"/><path d="m0 0v-96 48 32 48z"/><path d="m800-48h128z"/><path d="m928-176h-128z"/><path d="m736 208 32-32z"/><path d="m592 208h96 16-32-96z"/><path d="m576 208h-32 32 16z"/><path d="m352-368h-64z"/><path d="m384-368h-16z"/><path d="m768 144v32z"/><path d="m704 208h32l32-32v-32z"/><path d="m768-8v24 128z"/><path d="m256 32v112z"/><path d="m256-368v112z"/><path d="m384-368v112z"/><path d="m288-352h64 16-16-64-16z"/><path d="m352-352h-64v-16h64z"/><path d="m384-256v80-64z"/><path d="m384-48v48 32 112z"/><path d="m512 144v-152 152 32z"/><path d="m704-8v24z"/><path d="m768-8h-64z"/><path d="m576-8h-64z"/><path d="m512 144v32l32 32h32z"/><path d="m512 176 32 32z"/><path d="m480-176h-96z"/><path d="m480-48h-80-16z"/><path d="m384 144h-16z"/><path d="m368 144h16z"/><path d="m352 128h-64-16 16 64 16z"/><path d="m288 144h64z"/><path d="m352 144h-64v-16h64z"/><path d="m272 144h-16z"/><path d="m256 144h16z"/><path d="m224 32h-224 96 64z"/><path d="m256 32h-32z"/><path d="m256-256h-32z"/><path d="m224-256h-224 32z"/><path d="m0-96v96h32v-32-64z"/><path d="m0-96h32z"/><path d="m688 248v-40h-96v40l24 24h48z"/><path d="m592 248 24 24z"/><path d="m32-256h-32v128h32z"/><path d="m32-32v32h192 32v-32z"/><path d="m32-128v32z"/><path d="m32-128h-32z"/><path d="m0-192v160 64z"/><path d="m368-352h-16z"/><path d="m288-368v16z"/><path d="m352-368h-64v16h64z"/><path d="m352-352v-16z"/><path d="m608-176h-32z"/><path d="m512-176h64z"/><path d="m608-176h64z"/><path d="m704-176h-32z"/><path d="m704-176h64z"/><path d="m672-48v-128 192z"/><path d="m672-48v64z"/><path d="m672 16h32z"/><path d="m704-48h-32z"/><path d="m704-176h-32v128h32z"/><path d="m608-176h-32v128h32z"/><path d="m576-176v128z"/><path d="m608-48v16z"/><path d="m480-176v128z"/><path d="m512-48h-32z"/><path d="m512-176h-32v128h32z"/><path d="m368-144h-16v24 40h16z"/><path d="m352-144h16l-16-16h-64v16z"/><path d="m288-80v-40-24-16l-16 16v64l16 16z"/><path d="m288-64h64l16-16h-16-64z"/><path d="m272-144v64z"/><path d="m288 128h-16z"/><path d="m352 144v-16z"/><path d="m288 128v16z"/><path d="m352 128h-64v16h64z"/><path d="m0-192v-64h128 96v224h-224z"/><path d="m224 32h-224z"/><path d="m224 0h-192-32v32h224z"/><path d="m648 80h-16v16h16z"/><path d="m0-256v64z"/><path d="m0-192v224-64z"/><path d="m800-48h128z"/><path d="m928-176h-128z"/><path d="m256-368h16z"/><path d="m704 208 64-64z"/><path d="m800-176h-32v128h32z"/><path d="m768-176h32z"/><path d="m256 32v112z"/><path d="m256-368v112z"/><path d="m272-256h80 32-128z"/><path d="m384-368v112z"/><path d="m368-352h-16z"/><path d="m352-352h16-16-64z"/><path d="m288-368v16z"/><path d="m352-352v-16z"/><path d="m352-352h-64v-16h64z"/><path d="m384-256v80z"/><path d="m384 32v112z"/><path d="m512 128v-136 152z"/><path d="m512-176v128z"/><path d="m768-48h-64z"/><path d="m704-176v128z"/><path d="m768-176h-64v128h64z"/><path d="m704 16h64v-24h-64z"/><path d="m768-8h-64z"/><path d="m768 16h-64-32v80 32 80h32l64-64z"/><path d="m672-176h-64v128 16 16 32h24 16 24z"/><path d="m576-176h-64v128h64z"/><path d="m608-16v-16h-32-32v16z"/><path d="m576 16v-24h-32v24z"/><path d="m648 80v-64h-16v64z"/><path d="m672 16h-24v64 16h24z"/><path d="m672 128v-32h-24-16v32z"/><path d="m608 16h-32-32v112h88v-32-16-64z"/><path d="m512-8v136h32v-112-24z"/><path d="m672 208v-80h-40-88-32v16l64 64z"/><path d="m576 16h32z"/><path d="m608-176v128z"/><path d="m608 16v-32z"/><path d="m544-8h32-64z"/><path d="m544-16v-16z"/><path d="m648 96h-16z"/><path d="m632 96v-16z"/><path d="m632 80h16z"/><path d="m648 80v16z"/><path d="m512 144 64 64z"/><path d="m400-176h80-96z"/><path d="m400-80h-16v32h16z"/><path d="m400-120h-16v40h16z"/><path d="m384-176v32 24h16v-56z"/><path d="m480-176h-80v56 40 32h80z"/><path d="m256 32h128z"/><path d="m384-176v-80h-32v96l16 16h16z"/><path d="m352-256h-80v96h16 64z"/><path d="m288-160h-16v16z"/><path d="m272-160v-96h-16v112h16z"/><path d="m288-160h64z"/><path d="m352-160 16 16z"/><path d="m272-144 16-16z"/><path d="m384-120h-16v40h16z"/><path d="m368-144v24h16v-24z"/><path d="m368-120v-24 64z"/><path d="m256-144v64h16v-64z"/><path d="m352 0h-64-32v32h128v-32z"/><path d="m288 0v-64l-16-16h-16v48 32z"/><path d="m352-48v-16h-64v64h64z"/><path d="m352-48v48h32v-48z"/><path d="m384-80h-16l-16 16v16h32z"/><path d="m352-64h-64z"/><path d="m288-64-16-16z"/><path d="m368-80-16 16z"/><path d="m288 128h64z"/><path d="m352 144h-64v-16h64z"/><path d="m352 144v-16z"/><path d="m288 128v16z"/><path d="m256 144h16z"/><path d="m128 32h-128z"/><path d="m128-256h-128z"/><path d="m256-256h-32z"/><path d="m256 32v-32h-32v32z"/><path d="m256-80v-64-112h-32-192v128 32 64h224z"/><path d="m672-32h-64v-16h64z"/><path d="m608-32v-16z"/><path d="m672-48v16z"/><path d="m672-32h-64z"/><path d="m608-48h64z"/><path d="m224-256h-96-128z"/><path d="m224-32v64h-96-128v-64z"/><path d="m224-256h32v224h-32z"/><path d="m384-432h-128z"/><path d="m384-560v128z"/><path d="m384-560v128h-128v-128z"/><path d="m0-256v64z"/><path d="m288 336h64z"/><path d="m256 208h128z"/><path d="m224-256h-224v64 160h224z"/><path d="m0-32v64h224v-64z"/><path d="m256-256h-32v224h32z"/><path d="m224-32v64h32v-64z"/><path d="m224 32h-224 128z"/><path d="m256 32h-32z"/><path d="m256-256h-32z"/><path d="m256-32v64h-32v-64z"/><path d="m384 304v-96z"/><path d="m352 336h-64l-32-32v-96h128v96z"/><path d="m336-512h-32v32h32z"/><path d="m288 336h64z"/><path d="m256 208h128z"/><path d="m384 304v-96z"/><path d="m256 208v96z"/><path d="m384 304v-96h-128v96l32 32h64z"/><path d="m352 336h-64l-32-32v-96h128v96z"/><path d="m256 304 32 32z"/><path d="m352 336 32-32z"/><path d="m856-176v2h16v-2z"/><path d="m256-560v128z"/><path d="m384-560v128z"/><path d="m384-560h-128z"/><path d="m0-224v96z"/><path d="m512 208h-128z"/><path d="m256-368h16z"/><path d="m288-368h64z"/><path d="m368-368h16z"/><path d="m224-368h-64-64-80-16l128-64h96z"/><path d="m448-368h-48-16-16-16-64-16-16-16-16v-64h32 128 64z"/><path d="m512-432 128 64h-16-176v-64z"/><path d="m768-240v32z"/><path d="m256 128v-96 112z"/><path d="m256-368v112z"/><path d="m400-256v-112h48 176v112z"/><path d="m624-256v-112h16v112z"/><path d="m368-352h-16v-16h16z"/><path d="m288-352h-16v-16h16z"/><path d="m384-368h16v112h-16z"/><path d="m640-256v-112z"/><path d="m272-352h16z"/><path d="m384-224v96z"/><path d="m384 32h16v112h-16z"/><path d="m384-96h16v64 32h-16z"/><path d="m384-128v-96h16v96z"/><path d="m624-128v-80h32v80z"/><path d="m624-16v-16-64h32v80z"/><path d="m608 160-96 48h-128v-64h16 208z"/><path d="m624 144h16l-32 16v-16z"/><path d="m656-16v-80-32-80-16-16h112v32 192z"/><path d="m768 16h-112v-16-16h112z"/><path d="m640 144h-16v-112h16z"/><path d="m400-32v-64-32-96-32h224v48 80 32 64z"/><path d="m624-16v48 112h-16-208v-112-32-32h224z"/><path d="m656-240v16z"/><path d="m656-96h-32 16z"/><path d="m624-256v48z"/><path d="m624-128v32z"/><path d="m352-80h-16-32-16z"/><path d="m288-144h16 32 16z"/><path d="m384-256v16h-128v-16z"/><path d="m288-224v48 32h-16v-80z"/><path d="m352-144v-32-48h16v80z"/><path d="m288-176v-48h64v48z"/><path d="m384-240h-128z"/><path d="m272-224v80z"/><path d="m368-144v-80z"/><path d="m352-144v16 8z"/><path d="m288-80v-24-16z"/><path d="m384 16v16h-128v-16z"/><path d="m288-80v32 48h-16v-80z"/><path d="m352-48h16v48h-80v-48z"/><path d="m352-80h16v32h-16z"/><path d="m384 208h-128v-64h16 16 64 16 16z"/><path d="m368 144h-16v-16h16z"/><path d="m288 144h-16v-16h16z"/><path d="m384 144h-16z"/><path d="m368 128h-16z"/><path d="m352 144h-64z"/><path d="m96-144v64z"/><path d="m240-80v-16h16v16z"/><path d="m240-128v-16-80h16v96z"/><path d="m240-368h16v112h-16z"/><path d="m160-368h64 16v112 32 80h-80z"/><path d="m240-144v16 32 16h-80v-64z"/><path d="m240-256v32z"/><path d="m240-128v32z"/><path d="m160-144h-64z"/><path d="m160-368v224h-64v-80-144z"/><path d="m160-80h80 16v80h-16-64-80v-80z"/><path d="m0-368h16v112h-16z"/><path d="m16-256v-112h80v144h-64-16z"/><path d="m32-96v-32-96h64v80 64 80h-64z"/><path d="m16-224h16v96h-16-16v-96z"/><path d="m16-128h16v32h-16z"/><path d="m16-96h16v96h-16-16v-96z"/><path d="m256 208h-16v-64h16z"/><path d="m240 0v32h-64v-32z"/><path d="m240 32h16v96h-16-64v-80-16z"/><path d="m32 0h64 80v32 16h-160v-16-32z"/><path d="m16 48h160v80h-176v-80z"/><path d="m0 48v-16h16v16z"/><path d="m256 144h-16v-16h16z"/><path d="m0 144v-16h176 64v16 64h-112z"/><path d="m256 208v96z"/><path d="m256 304 32 32z"/><path d="m352 336 32-32z"/><path d="m160-80h-64z"/><path d="m160-144v64z"/><path d="m96-144h64v64h-64z"/><path d="m856-174v-2z"/><path d="m856-174v-2h16v2z"/><path d="m872-176v2z"/><path d="m856-176h16z"/><path d="m872-174h-16z"/><path d="m652-208h-8v80h8z"/><path d="m652-96h-8v80h8z"/><path d="m802-120h-2v16h2z"/><path d="m336-560h-32v4h32z"/><path d="m644-208h8z"/><path d="m652-128h-8z"/><path d="m652-128h-8v-80h8z"/><path d="m644-128v-80z"/><path d="m652-208v80z"/><path d="m652-16h-8z"/><path d="m644-96h8z"/><path d="m652-16h-8v-80h8z"/><path d="m644-16v-80z"/><path d="m652-96v80z"/><path d="m802-104h-2z"/><path d="m802-104h-2v-16h2z"/><path d="m800-120h2z"/><path d="m800-104v-16z"/><path d="m802-120v16z"/><path d="m352-80h16z"/><path d="m352-120v16 24z"/><path d="m352-80v-24z"/><path d="m352-104v-16h4v16z"/><path d="m356-120h-4z"/><path d="m288-120v-8-16z"/><path d="m284-104h4z"/><path d="m284-120h4v16h-4z"/><path d="m288-80v32z"/><path d="m652-208h-8v80h8z"/><path d="m652-96h-8v80h8z"/><path d="m856-50v2h16v-2z"/><path d="m256-432h-32-96z"/><path d="m512-432h-64-64z"/><path d="m256-560v128z"/><path d="m384-560v128z"/><path d="m272-560h112-128z"/><path d="m0-368v112z"/><path d="m0-224v96-40-16z"/><path d="m0 0v-96z"/><path d="m0-96v96-40-16z"/><path d="m0 144v-112 16 80z"/><path d="m0 32v112z"/><path d="m352 336h-64z"/><path d="m352 336h-64z"/><path d="m640-368-128-64z"/><path d="m128-432-128 64z"/><path d="m512 208h-128z"/><path d="m256 208h-128 112z"/><path d="m128 208-128-64z"/><path d="m768-240v32z"/><path d="m768-208v224-32z"/><path d="m256-96v96-80z"/><path d="m256-224v96z"/><path d="m256-224v40 16 40z"/><path d="m256-240v-16z"/><path d="m640-256h-16z"/><path d="m640-256v-112z"/><path d="m384-224v96-40-16z"/><path d="m384 16v16z"/><path d="m384 0v-96z"/><path d="m512 208 96-48 32-16z"/><path d="m656 0v16z"/><path d="m656 0v-16z"/><path d="m656-224v16z"/><path d="m656-240v16z"/><path d="m656 16h112z"/><path d="m768-240h-112z"/><path d="m384-96h16z"/><path d="m384-224h16z"/><path d="m640 144v-112z"/><path d="m272-80h16z"/><path d="m368-144h-16z"/><path d="m384-240h-56-16-56z"/><path d="m272-224v80z"/><path d="m368-144v-80z"/><path d="m368-224h-16-64-16z"/><path d="m256 16h128z"/><path d="m368-80v80-48z"/><path d="m272 0v-80z"/><path d="m368 0h-96 16z"/><path d="m256 0h-16z"/><path d="m256-128h-16z"/><path d="m0-224h16z"/><path d="m0-96h16z"/><path d="m0 32h16z"/><path d="m384 208v96z"/><path d="m384 208v96z"/><path d="m256 304v-96z"/><path d="m288 336-32-32z"/><path d="m384 304-32 32z"/><path d="m384 304-32 32z"/><path d="m336-560v4z"/><path d="m336-556h-32v-4h32z"/><path d="m304-556v-4z"/><path d="m304-560h32z"/><path d="m336-556h-32z"/><path d="m352-104h4z"/><path d="m352-120v16h4v-16z"/><path d="m356-104v-16z"/><path d="m288-104v24z"/><path d="m284-104h4v-16h-4z"/><path d="m288-120h-4z"/><path d="m284-120v16z"/><path d="m644-208h8z"/><path d="m652-128h-8z"/><path d="m652-128h-8v-80h8z"/><path d="m652-208v80z"/><path d="m644-128v-80z"/><path d="m652-16h-8z"/><path d="m644-96h8z"/><path d="m652-16h-8v-80h8z"/><path d="m652-96v80z"/><path d="m644-16v-80z"/><path d="m856-48v-2z"/><path d="m856-48v-2h16v2z"/><path d="m872-50v2z"/><path d="m872-48h-16z"/><path d="m856-50h16z"/><path d="m272-560h16 64 32z"/><path d="m272-560h-16z"/><path d="m288-576h24 16 24v16h-64z"/><path d="m928-120h-2v16h2z"/><path d="m712-120h-16v16h16z"/><path d="m256-432h-128z"/><path d="m512-432h-128z"/><path d="m256-560v128z"/><path d="m384-560v112 16z"/><path d="m288-560h-16z"/><path d="m384-560h-32z"/><path d="m352-560v-16z"/><path d="m288-576v16z"/><path d="m288-576h24z"/><path d="m0-368v112z"/><path d="m0-224v40z"/><path d="m0-184v16z"/><path d="m0-96v40z"/><path d="m0-56v16z"/><path d="m0 32v112z"/><path d="m352 336h-64z"/><path d="m640-368-128-64z"/><path d="m128-432-128 64z"/><path d="m512 208h-128z"/><path d="m256 208h-32-96z"/><path d="m128 208h128z"/><path d="m0 144 128 64z"/><path d="m768-208v192 32z"/><path d="m256 32v-16z"/><path d="m256 0v-40z"/><path d="m256-40v-16z"/><path d="m256-96v40 16 40z"/><path d="m256-128v-40z"/><path d="m256-168v-16z"/><path d="m400-256h-16z"/><path d="m400-256h32-80 32z"/><path d="m624-256h-32z"/><path d="m640-256v-112z"/><path d="m384-256v16z"/><path d="m384-224v40z"/><path d="m384-184v16z"/><path d="m384 0v-40-16-40z"/><path d="m384-56v16z"/><path d="m512 208 128-64z"/><path d="m384 32h16z"/><path d="m624 32h16z"/><path d="m656 0v16z"/><path d="m656-128v32z"/><path d="m656 16h112z"/><path d="m768-240h-112z"/><path d="m768-208v-32h-112v16 16 80 32 80h112z"/><path d="m656-16v16 16h112v-32z"/><path d="m400-96h16 16z"/><path d="m624-128h16-16-32z"/><path d="m640-128h-16 32z"/><path d="m400-128h-16z"/><path d="m400-224v-32z"/><path d="m640-208h16-32z"/><path d="m624-256h-32v32 16h32z"/><path d="m400-224h16 16z"/><path d="m400-256v32h32v-32z"/><path d="m640-128v-32z"/><path d="m640-160v-16z"/><path d="m640-176v16 32h16v-80h-16z"/><path d="m400-96v-32z"/><path d="m624-128h-32v32h32z"/><path d="m640-16h-16 32z"/><path d="m624-16h16-16-32z"/><path d="m640-16v-32z"/><path d="m640-48v-16z"/><path d="m640-64v16 32h16v-80h-16z"/><path d="m624 32v-48z"/><path d="m624 32v-48h-32v48z"/><path d="m400 32v-32z"/><path d="m400 0v32h32v-16-16z"/><path d="m400 0h-16z"/><path d="m640 144v-112z"/><path d="m384 32h-32z"/><path d="m312-240h16z"/><path d="m384-240h-32-24z"/><path d="m312-240h-24-32z"/><path d="m272-144v-80z"/><path d="m368-224h-96z"/><path d="m328 16h-16z"/><path d="m384 16h-56 24z"/><path d="m256 16h56 16 56z"/><path d="m368-80v80z"/><path d="m368-80v80z"/><path d="m272 0v-80z"/><path d="m272 0v-80z"/><path d="m368 0h-96z"/><path d="m368 0h-96z"/><path d="m384 32v-16h-32v16z"/><path d="m240 0h-16-16z"/><path d="m16 0h32z"/><path d="m16 0h-16z"/><path d="m240-224h16z"/><path d="m256-256h-16z"/><path d="m240-256h-32v16 16h32z"/><path d="m240-96h16z"/><path d="m240-128h-16-16z"/><path d="m240-128h-32v32h32z"/><path d="m16-224h32z"/><path d="m16-256h32z"/><path d="m16-256h-16z"/><path d="m16-224v-32z"/><path d="m16-256v32h32v-32z"/><path d="m16-128h-16z"/><path d="m16-128v32z"/><path d="m16-96h32z"/><path d="m16 32h-16 48z"/><path d="m240 32h-32 16 32z"/><path d="m240 32h16z"/><path d="m16 32v-32z"/><path d="m240 0v32z"/><path d="m240 32v-32h-32v16 16z"/><path d="m16 0v32h32v-32z"/><path d="m384 208v16 80z"/><path d="m256 208v96z"/><path d="m256 304 32 32z"/><path d="m384 304-16 16-16 16z"/><path d="m712-104h-16z"/><path d="m696-104v-16z"/><path d="m696-120h16z"/><path d="m712-120v16z"/><path d="m712-104h-16v-16h16z"/><path d="m928-104h-2v-16h2z"/><path d="m928-104h-2z"/><path d="m926-120h2z"/><path d="m928-120v16z"/><path d="m926-104v-16z"/><path d="m0-168v40z"/><path d="m0-40v40z"/><path d="m256-56v-40z"/><path d="m256-184v-40z"/><path d="m384-168v40z"/><path d="m384-40v40z"/><path d="m640-176v-32z"/><path d="m640-176h-16z"/><path d="m640-160v-16h-16v16z"/><path d="m384-168h16z"/><path d="m384-184v16h16v-16z"/><path d="m640-64v-32z"/><path d="m640-64h-16z"/><path d="m640-48v-16h-16v16z"/><path d="m384-40h16z"/><path d="m384-56v16h16v-16z"/><path d="m328-240v-16z"/><path d="m312-240h16v-16h-16z"/><path d="m312 16v16z"/><path d="m328 16h-16v16h16z"/><path d="m256-184h-16z"/><path d="m256-168v-16h-16v16z"/><path d="m256-56h-16z"/><path d="m256-40v-16h-16v16z"/><path d="m0-168h16z"/><path d="m0-184v16h16v-16z"/><path d="m0-40h16z"/><path d="m0-56v16h16v-16z"/><path d="m856-176v2h16v-2z"/><path d="m224-432h32-128z"/><path d="m448-432h64-128z"/><path d="m256-448v-112 128z"/><path d="m288-560h-16-16z"/><path d="m352-560h32z"/><path d="m384-560h-32z"/><path d="m352-576v16z"/><path d="m352-560v-16z"/><path d="m352-576h-24z"/><path d="m288-576v16z"/><path d="m288-560v-16z"/><path d="m384-432v-16h-128v16z"/><path d="m0-368v112z"/><path d="m640-368-128-64z"/><path d="m128-432-128 64z"/><path d="m0 144 128 64z"/><path d="m224-432h-96l-128 64h224z"/><path d="m448-432h-64-128-32v64h32 192z"/><path d="m480-368h160l-128-64h-64v64z"/><path d="m288-256h-32z"/><path d="m480-368h-32-192v112h32 24 16 24 80 48z"/><path d="m592-256h32 16v-112h-160v112z"/><path d="m384-96v40z"/><path d="m608 160-96 48 128-64z"/><path d="m432 32h-32-16z"/><path d="m608 32h32-16-32z"/><path d="m624-96h16-16-32z"/><path d="m432-128h-16-16z"/><path d="m432-224h32 48 80v-32h-112-48z"/><path d="m624-176h16v-32h-16z"/><path d="m624-128h16v-32h-16z"/><path d="m512-176v48h80 32v-32-16-32h-32-80z"/><path d="m512-224v16h80v-16z"/><path d="m400-168v40h16v-48-8h-16z"/><path d="m448-208h-32v24 8z"/><path d="m432-224h-16v16h32 32l-16-16z"/><path d="m400-184h16v-24-16h-16-16v40z"/><path d="m480-208 32 32v-32-16h-48z"/><path d="m384-168v40h16v-40z"/><path d="m512-176v48z"/><path d="m480-208h-32z"/><path d="m624-208h16-16-32z"/><path d="m624-160h16z"/><path d="m400-184h-16z"/><path d="m592-128h-80-80v32h80 80z"/><path d="m432-128h-32v32h32z"/><path d="m512-96v48z"/><path d="m624-64h16v-32h-16z"/><path d="m640-16v-32h-16v32z"/><path d="m512-48v32h80 32v-32-16-32h-32-80z"/><path d="m624-48h16z"/><path d="m512 16v16h80v-48h-80z"/><path d="m512-16v-32l-32 32-16 16-16 16h64z"/><path d="m416-16v-32-48h-16v40 16 40h16z"/><path d="m432 16h16l16-16h-32z"/><path d="m416-48v32h32z"/><path d="m448 16h-16v16h80v-16z"/><path d="m480-16h-32-32v16h16 32z"/><path d="m400-96h-16v40h16z"/><path d="m384-40v40h16v-40z"/><path d="m448-16h32z"/><path d="m400-56h-16z"/><path d="m432 0h-16-16z"/><path d="m640 144v-112z"/><path d="m512 208 96-48v-128h-16-80-80-48v176z"/><path d="m608 160 32-16v-112h-32z"/><path d="m256 32h32z"/><path d="m328-256v16h24v-16z"/><path d="m288-240h24v-16h-24z"/><path d="m352-256v16h32v-16z"/><path d="m312-256v16z"/><path d="m288-240v-16h-32v16z"/><path d="m368-144v-80z"/><path d="m272-224v-16h16 24 16 24 16v16z"/><path d="m368-224h-96z"/><path d="m288 16h24-56z"/><path d="m352 16h-24-16-24-16v-16h96v16z"/><path d="m312 16h-24v16h24z"/><path d="m352 16h-24v16h24z"/><path d="m328 32v-16z"/><path d="m288 32v-16h-32v16z"/><path d="m384 32h-32-24-16-24-32v176h128z"/><path d="m16 0h32 80v-40h-112-16v40z"/><path d="m128 16v-16h-80v32h80z"/><path d="m0-96v40h16v-40z"/><path d="m128-40v-8-48h-80-32v40 16z"/><path d="m224-48v32 16h16v-40-16h-16z"/><path d="m224-16h-32-32l16 16h32 16z"/><path d="m208 32v-16h-16-64v16z"/><path d="m192-16h32v-32z"/><path d="m192 16h16v-16h-32z"/><path d="m256 0v-40h-16v40z"/><path d="m240-96h-16v40h16 16v-40z"/><path d="m176 0-16-16-32-32v8 40 16h64z"/><path d="m16-168h-16v40h16z"/><path d="m16-168v40h32 80v-48-8h-112z"/><path d="m48-224h80v-16-16h-80z"/><path d="m16-184h112v-40h-80-32-16v40z"/><path d="m128-224v40 8l32-32 16-16 16-16h-64z"/><path d="m240-224h-16v16 24h16 16v-40z"/><path d="m256-128v-40h-16v40z"/><path d="m160-208h32 32v-16h-16-32z"/><path d="m224-176v-8-24h-32z"/><path d="m208-240h-16l-16 16h32z"/><path d="m224-176v48h16v-40-16h-16z"/><path d="m208-128h-80-80v32h80 80z"/><path d="m192-240h16v-16h-80v16z"/><path d="m224 32h-16-80-80-48v112l128 64h96z"/><path d="m256 32h-32v176h32z"/><path d="m224-368h-224v112h16 32 80 80 16z"/><path d="m256-368h-32v112h32z"/><path d="m208-224h16 16z"/><path d="m256-256h-32-16 32z"/><path d="m240-168h16z"/><path d="m208-96h16 16z"/><path d="m240-40h16z"/><path d="m48-128h-32z"/><path d="m16-184h-16z"/><path d="m16-56h-16z"/><path d="m48-128h-32v32h32z"/><path d="m256 224v-16 96z"/><path d="m272 224h32 32 32 16v-16h-128v16z"/><path d="m384 224h-16v32 32 32l16-16z"/><path d="m368 256v-32h-32z"/><path d="m336 320h32v-32z"/><path d="m352 336 16-16h-32-32-32l16 16z"/><path d="m304 224h-32v32z"/><path d="m272 288v-32-32h-16v80l16 16z"/><path d="m272 288v32h32z"/><path d="m336 320h-8-16-8z"/><path d="m368 288v-32z"/><path d="m272 320-16-16 32 32z"/><path d="m856-174v-2h16v2z"/><path d="m872-176v2z"/><path d="m856-174v-2z"/><path d="m856-176h16z"/><path d="m872-174h-16z"/><path d="m328 264h-16v16h16z"/><path d="m328-576h-16v16h16z"/><path d="m312-576h16z"/><path d="m384-560v112z"/><path d="m288-560h24v-16h-24z"/><path d="m328-560h24v-16h-24z"/><path d="m328-560h-16z"/><path d="m288-560h-32z"/><path d="m328-576v16z"/><path d="m312-560v-16z"/><path d="m304-80h32z"/><path d="m336-144h-32z"/><path d="m288-144h-16z"/><path d="m352-144v-32z"/><path d="m304-144h-16v16z"/><path d="m352-128v-16h-16z"/><path d="m336-80h16v-16z"/><path d="m288-96v16h16z"/><path d="m352-120v-8 32z"/><path d="m352-120v24 16-24z"/><path d="m288-80v-16-24 16z"/><path d="m272 288 32 32z"/><path d="m336 320 32-32z"/><path d="m312 224h16 8-32z"/><path d="m328 264v16z"/><path d="m336 224h-8v40 16 40h8l32-32v-32z"/><path d="m368 256-32-32z"/><path d="m312 280v-16z"/><path d="m328 280h-16z"/><path d="m312 264h16z"/><path d="m328 224h-16v40h16z"/><path d="m312 280v40h16v-40z"/><path d="m272 256v32z"/><path d="m312 280v-16-40h-8l-32 32v32l32 32h8z"/><path d="m304 224-32 32z"/><path d="m288-528h-16v64h16z"/><path d="m272-464 16 16h64l16-16z"/><path d="m352-528h-16v64h16z"/><path d="m304-480v16h32v-16z"/><path d="m336-528h-32v16h32z"/><path d="m304-528h-16v64h16z"/><path d="m368-528h-16v64h16z"/><path d="m368-528v-16h-96v16z"/><path d="m336-512v32z"/><path d="m304-512h32z"/><path d="m304-480v-32z"/><path d="m336-480h-32z"/><path d="m336-128h-32v32h32z"/><path d="m928-176v128z"/><path d="m256-448v-112z"/><path d="m384-448v-112 128z"/><path d="m256-448h128v16h-128z"/><path d="m384-448h-128z"/><path d="m384-560h-32-24-16-24-32z"/><path d="m-16 16h-48l-32-32v-16h80z"/><path d="m-112-32h-16v-64h16z"/><path d="m-96-120h80v40 48h-80-16v-64-24z"/><path d="m0 16v-8h72 56v104 96l-128-64z"/><path d="m-16-32v-48h16v88 8h-16z"/><path d="m0-80h8 64v64 24h-72z"/><path d="m224 256v80h-96v-80z"/><path d="m224 256v-48h128v128h-128z"/><path d="m128 112h128 96v96h-128-96z"/><path d="m352 112h48v96h-48z"/><path d="m256 16v96h-128v-104-24h32 32 32 32z"/><path d="m160-16h-32v-32z"/><path d="m224-48v32h-32z"/><path d="m224-16v-32-48h32v80z"/><path d="m272 16h96 16 16v96h-48-96v-96z"/><path d="m368 0h-96v16h96z"/><path d="m304-80h-16v-16z"/><path d="m304-80h32 16v32h-64v-32z"/><path d="m272-80v32h16v-32z"/><path d="m352-96v16h-16z"/><path d="m368-32v-16h-16-64-16v16z"/><path d="m368-48v-32h-16v32z"/><path d="m-128-192h16v64h-16z"/><path d="m-112-120v-8-64h16v72z"/><path d="m-96-192v-16l32-32h48v120h-80z"/><path d="m-16-120v-120h16 8v96 64h-8-16z"/><path d="m8-240h64v96h-64z"/><path d="m72-80v-64-96h56v32 32 48 32 48 32h-56z"/><path d="m128-16v24h-56v-24z"/><path d="m128-128h96 32 16v32h-16-32-96z"/><path d="m128-176v-32h32z"/><path d="m192-208h32v32z"/><path d="m224-176v-32-32h32v112h-32z"/><path d="m224-240v32h-32-32-32v-32z"/><path d="m336-144h16v16z"/><path d="m272-192v16h16 64v-16z"/><path d="m352-176v32h-16-32-16v-32z"/><path d="m368-240h-96v16h96z"/><path d="m352-96v-32-16l16 16v32l-16 16z"/><path d="m272-128 16-16v16 32 16l-16-16z"/><path d="m272-176v32h16v-32z"/><path d="m368-192h-16v16 32h16z"/><path d="m288-128v-16h16z"/><path d="m512-48h128v32h-160z"/><path d="m416-96v48 32 32h-16-16v-112z"/><path d="m448-16h-32v-32z"/><path d="m400 112v-96h16 224v128l-128 64h-112z"/><path d="m416 16v-32h32 32 160v32z"/><path d="m640-48h-128v-48h80 48z"/><path d="m480-208h-32-32v-32h32 192v32z"/><path d="m416-176v-32h32z"/><path d="m416-240v32 32 48h-32v-112z"/><path d="m640-208v32h-128l-32-32z"/><path d="m512-176h128v48h-48-80z"/><path d="m592-96h-80-96-32-16v-32h16 32 96 80z"/><path d="m640-128v32h-48v-32z"/><path d="m224-240h-96-56-64-8v-128l128-64h96z"/><path d="m448-240h-32-32-16-96-16-32v-192h32 128 64z"/><path d="m512-432 128 64v128h-192v-192z"/><path d="m640-96v-32-48h160v128h-160z"/><path d="m864-176h-64-160z"/><path d="m928-48h-32-32z"/><path d="m272-240h96 16-128z"/><path d="m256-240v112z"/><path d="m272-224v32z"/><path d="m368-192v-32z"/><path d="m352-192h16-96z"/><path d="m256-16v-80 112z"/><path d="m352-48h-64z"/><path d="m272-32v32z"/><path d="m368 0v-32z"/><path d="m8-144v64z"/><path d="m-16 16h16-64z"/><path d="m-128-32h16z"/><path d="m-112-192h-16z"/><path d="m-96-192h-16z"/><path d="m-128-128h16 16-16z"/><path d="m-128-192v64h16v-64z"/><path d="m-128-96v64h16v-64z"/><path d="m128 256v80z"/><path d="m400 208h112-160z"/><path d="m352 208v128z"/><path d="m224 336h128-224z"/><path d="m800-48v-128z"/><path d="m928-48h-64-64z"/><path d="m800-176h64 64z"/><path d="m512-96h-80-16z"/><path d="m416-128h16 80z"/><path d="m416-176v48z"/><path d="m448-208-32 32z"/><path d="m512-176-32-32z"/><path d="m416-96v48z"/><path d="m480-16 32-32z"/><path d="m416-48 32 32z"/><path d="m272-240h96-16-24-16-24z"/><path d="m272-144v-32-16-32-16 16z"/><path d="m368-240v16 32 48-80z"/><path d="m352-176h-64z"/><path d="m288-176v32z"/><path d="m288-128v8 24z"/><path d="m336-80 16-16z"/><path d="m288-96 16 16z"/><path d="m352-128-16-16z"/><path d="m304-144-16 16z"/><path d="m368 16h-96 16 24 16 24z"/><path d="m368-80v32 16 32 16-16z"/><path d="m272 16v-16-32-16-32 80z"/><path d="m288-48h64z"/><path d="m352-48v-32z"/><path d="m224-128h-96 80z"/><path d="m128-128v-48z"/><path d="m224-176v48z"/><path d="m160-208h32z"/><path d="m192-208 32 32z"/><path d="m128-176 32-32z"/><path d="m128-48v-48z"/><path d="m224-96v48-8z"/><path d="m192-16h-32z"/><path d="m128-96h96-16z"/><path d="m160-16-32-32z"/><path d="m224-48-32 32z"/><path d="m352-448h-64z"/><path d="m272-544h96z"/><path d="m272-464v-80z"/><path d="m368-544v80z"/><path d="m288-464h-16v-64h16z"/><path d="m352-448h-64l-16-16h96z"/><path d="m352-464h-64v-64h64z"/><path d="m368-464h-16v-64h16z"/><path d="m368-544v16h-96v-16z"/><path d="m368-464-16 16z"/><path d="m288-448-16-16z"/><path d="m336-96h-32z"/><path d="m304-96v-32z"/><path d="m304-128h32z"/><path d="m336-128v32z"/><path d="m336-96h-32v-32h32z"/><path d="m8-144h64z"/><path d="m72-144v64z"/><path d="m72-80h-64z"/><path d="m8-144h64v64h-64z"/><path d="m928-176h-32-32-32v128h32 32 32z"/><path d="m-112-32h16z"/><path d="m-96-96h-16-16 16z"/><path d="m-112-128h16z"/><path d="m-112-192v64z"/><path d="m-96-128h-16v8 24h16z"/><path d="m-112-96v64z"/><path d="m256-432h-32-96z"/><path d="m512-432h-64-64z"/><path d="m256-560v112 16z"/><path d="m384-560v128z"/><path d="m384-560h-128z"/><path d="m640-176v-32-32-128z"/><path d="m640 144v-128-32-32z"/><path d="m896-176h32-64z"/><path d="m896-48h-32z"/><path d="m864-48h-224 160z"/><path d="m640-368-128-64z"/><path d="m512 208 128-64z"/><path d="m352-176h-64-16v-16h96v16z"/><path d="m288-176v16h64v-16z"/><path d="m288-48h64 16v16h-96v-16z"/><path d="m352-48v-16h-64v16z"/><path d="m384-240h-112-16z"/><path d="m256-240v112z"/><path d="m256-96v32 80z"/><path d="m288-176h64 16-16-64-16z"/><path d="m272-224v32 16z"/><path d="m368-176v-16-32z"/><path d="m352-144 16 16z"/><path d="m352-80 16-16z"/><path d="m288-160v16z"/><path d="m352-160h-64v16h64z"/><path d="m288-144-16 16z"/><path d="m368-96h16z"/><path d="m256-96h16z"/><path d="m384-240v112z"/><path d="m352-176h-64z"/><path d="m368-224h-96z"/><path d="m288-160v-16 32z"/><path d="m352-160v16-32z"/><path d="m384-128h-16z"/><path d="m368-128-16-16z"/><path d="m272-128h-16z"/><path d="m288-144-16 16z"/><path d="m384 0v-96 112z"/><path d="m384 16h-16-96-16z"/><path d="m288-64v-16 32z"/><path d="m352-64v16-32z"/><path d="m352-80 16-16z"/><path d="m272-96 16 16z"/><path d="m368-32h-96z"/><path d="m272 0h96z"/><path d="m0 16v128z"/><path d="m0-368v128z"/><path d="m128-432-128 64z"/><path d="m0-240h-16-48z"/><path d="m0 16h-64z"/><path d="m-96-32v16z"/><path d="m-96-208v16z"/><path d="m-96-128v32z"/><path d="m-64-240-32 32z"/><path d="m-96-16 32 32z"/><path d="m-112-32h16-16-16z"/><path d="m-112-192h-16 16 16z"/><path d="m-96-96h-16z"/><path d="m-96-128h-16-16 16z"/><path d="m-112-192v64h-16v-64z"/><path d="m-112-96v64h-16v-64z"/><path d="m128 256v80z"/><path d="m512 208h-160z"/><path d="m128 208h96z"/><path d="m224 208h-96z"/><path d="m352 208v112 16z"/><path d="m352 336h-224z"/><path d="m224 208v48z"/><path d="m224 256h-96z"/><path d="m0 144 128 64z"/><path d="m384-96v96z"/><path d="m256-128v16z"/><path d="m352-144v-16z"/><path d="m352-128v-16 32z"/><path d="m352-80v16z"/><path d="m384-128h-16z"/><path d="m352-144v16h16z"/><path d="m368-96h16z"/><path d="m384-128h-16-16v16h32z"/><path d="m352-96v16l16-16z"/><path d="m288-80v8-8-32 16z"/><path d="m288-80v16-8z"/><path d="m256-96h16z"/><path d="m272-128h-16z"/><path d="m272-128h16v-16z"/><path d="m288-128h-16-16v16h32z"/><path d="m272-96h16v-16h-32v16z"/><path d="m272-96 16 16v-16z"/><path d="m272-96 16 16z"/><path d="m168 288h-16v16h16z"/><path d="m-40-120h-16v16h16z"/><path d="m256-432h-128z"/><path d="m512-432h-128z"/><path d="m256-560v128z"/><path d="m384-560v112 16z"/><path d="m384-560h-128z"/><path d="m640-176v-192z"/><path d="m640 144v-192z"/><path d="m864-176h-224z"/><path d="m864-176h32z"/><path d="m864-48h-32-192z"/><path d="m864-48h-224z"/><path d="m640-368-128-64z"/><path d="m512 208 128-64z"/><path d="m368-64v16h-96v-16z"/><path d="m272-144v-32h16v16 16z"/><path d="m288-160v-16h64v16z"/><path d="m352-144v-16-16h16v32z"/><path d="m272-224v48 32z"/><path d="m384-240h-16-96z"/><path d="m368-176v-48 80z"/><path d="m384-224v96 16 48-32-32-32z"/><path d="m352-112v-32 64z"/><path d="m288-80h64z"/><path d="m256-96v-16-16-112 16 64 32 32 32z"/><path d="m384-64v64 16-16z"/><path d="m272-64v16 48z"/><path d="m368-48v-16 64z"/><path d="m384 16h-128z"/><path d="m384-224v-16 112z"/><path d="m384-128v16z"/><path d="m384-64v-48 16 96z"/><path d="m384 16v-16z"/><path d="m256-112v16z"/><path d="m368-224h-96z"/><path d="m272-48h96-16-64z"/><path d="m352-80v-16-16z"/><path d="m352-112v16h16 16v-16z"/><path d="m288-144v16 16z"/><path d="m352-80h-64v8 8h64z"/><path d="m368-48v48-32z"/><path d="m272 0v-48 16z"/><path d="m272 0h96z"/><path d="m0 16v128z"/><path d="m0-304v-64 128z"/><path d="m0-80v64 32 128-80-32-32-32z"/><path d="m0-304v64 160-16-32-64-32-32-32z"/><path d="m128-432-128 64z"/><path d="m0-240h-64z"/><path d="m0-80v-160h-64l-32 32v16 160 16h96z"/><path d="m-96-16 32 32h64v-32z"/><path d="m-64-240-32 32z"/><path d="m-96-16 32 32z"/><path d="m-128-128h16v-64h-16z"/><path d="m-96-192h-16v64 32 64h16z"/><path d="m-112-32v-64h-16v64z"/><path d="m-112-96h16-16-16z"/><path d="m-112-128h16v32h-16z"/><path d="m512 208h-160z"/><path d="m352 336v-16l-128-64h-96v80z"/><path d="m352 208h-128v48l128 64z"/><path d="m224 208v48z"/><path d="m224 256h-96z"/><path d="m0 144 128 64z"/><path d="m0 144 128 64z"/><path d="m152 288h16z"/><path d="m168 288v16z"/><path d="m168 304h-16z"/><path d="m152 304v-16z"/><path d="m168 304h-16v-16h16z"/><path d="m-40-104h-16z"/><path d="m-40-120v16z"/><path d="m-56-120h16z"/><path d="m-56-104v-16z"/><path d="m-40-104h-16v-16h16z"/><path d="m256-432h-128z"/><path d="m512-432h-128z"/><path d="m256-448v-112 128z"/><path d="m256-432h48 32 48v-16h-16-32-32-32-16z"/><path d="m272-480v32h32z"/><path d="m336-448h32v-32z"/><path d="m368-512v-32h-32z"/><path d="m304-544h-32v32z"/><path d="m272-480v-32-32-16h-16v112h16z"/><path d="m384-560h-16v16 32 32 32h16z"/><path d="m272-560v16h32 32 32v-16z"/><path d="m304-448h32-8-16z"/><path d="m368-512v32z"/><path d="m336-544h-32 8 16z"/><path d="m272-560h96 16-128z"/><path d="m640-288v-80z"/><path d="m640-256v24 8z"/><path d="m640-128v-48-16 32 16z"/><path d="m640-288v32 32 32 16-192z"/><path d="m640 32v-32z"/><path d="m640 64v80z"/><path d="m640-32v32 32 32 80-192z"/><path d="m832-176h32-224z"/><path d="m832-176h-192v48 32 48h192z"/><path d="m640-368-128-64z"/><path d="m640-288h-32v32h32z"/><path d="m640-224h-32v32h32z"/><path d="m608-224v-32-32l-32 32v32l32 32z"/><path d="m576-224v-32z"/><path d="m576-256 32-32z"/><path d="m640-224h-24-8z"/><path d="m608-256v32z"/><path d="m608-192-32-32z"/><path d="m640-128h-128v32h128z"/><path d="m640 64h-32z"/><path d="m608-32h32z"/><path d="m608 32v-32-32l-32 32v32l32 32z"/><path d="m640 32h-32v32h32z"/><path d="m640-32h-32v32h32z"/><path d="m576 32v-32z"/><path d="m640 32h-8-16-8z"/><path d="m576 0 32-32z"/><path d="m608 0v32z"/><path d="m608 64-32-32z"/><path d="m512 208 128-64z"/><path d="m128 48v-128-16 16 160z"/><path d="m416-368h32-32-80z"/><path d="m304-432v64h32v-64z"/><path d="m480-336 32 32-32-32-32-32z"/><path d="m160 112-32-32 32 32 32 32z"/><path d="m448 112h-32z"/><path d="m416-336h-224z"/><path d="m192-336v-32l-32 32z"/><path d="m448-368v32h32z"/><path d="m416-368h-80-32-112v32h224z"/><path d="m448-336v-32h-32v32z"/><path d="m480-304v160z"/><path d="m480 112 32-32h-32z"/><path d="m512-96v-32-176h-32v160 64h32z"/><path d="m480-80v160h32v-160z"/><path d="m480-304h32l-32-32z"/><path d="m456-328-8-8z"/><path d="m448-336 8 8 16 16 8 8v-32z"/><path d="m472 88 8-8z"/><path d="m472 88-16 16-8 8h32v-32z"/><path d="m184 104 8 8z"/><path d="m160-144v64 160-160z"/><path d="m368-64h-96z"/><path d="m256-64h-32z"/><path d="m224-64-32-32z"/><path d="m448-96-32 32z"/><path d="m288-224h64 16-96z"/><path d="m384-240h16l72-72-16-16-88 88z"/><path d="m384-240v16l16-16z"/><path d="m456-328-88 88z"/><path d="m384-240v16z"/><path d="m416-128v24 8z"/><path d="m448-128-32-32v32 32 32l32-32z"/><path d="m416-160 32 32z"/><path d="m416-128v-32h-32v32z"/><path d="m416-64v-32h-32v32z"/><path d="m416-160h-32z"/><path d="m416-96h-32z"/><path d="m288-144h64z"/><path d="m352-144h16z"/><path d="m272-144h16z"/><path d="m352-160v16z"/><path d="m368-224h-16v64 16h16z"/><path d="m288-144v-16z"/><path d="m288-160h64z"/><path d="m352-224h-64v64h64z"/><path d="m288-160v-64h-16v80h16z"/><path d="m256-96h-32v32h32z"/><path d="m256-160h-32v32h32z"/><path d="m224-96v-32-32l-32 32v32l32 32z"/><path d="m256-240v-16l-72-72-16 16 88 88z"/><path d="m272-240-16-16v16z"/><path d="m192-128v32z"/><path d="m256-96h-8-16-8z"/><path d="m256-128v8 24z"/><path d="m272-240h-16z"/><path d="m456 104 16-16-88-88v16 16z"/><path d="m368 0v-64h-96v64z"/><path d="m368 16 16 16v-16z"/><path d="m256 16v-16l-88 88 16 16 72-72z"/><path d="m256 16v16l16-16z"/><path d="m384-64v64-16z"/><path d="m472 88-88-88z"/><path d="m272 16h16 64 16z"/><path d="m256-64v48 16z"/><path d="m256-64v64 16z"/><path d="m272 0h96z"/><path d="m272 16h96 16-128z"/><path d="m128-272v144 32 16h32v-64-160z"/><path d="m128-80v128l32 32v-160z"/><path d="m128 48v32h32z"/><path d="m192 112-8-8-16-16-8-8h-32l32 32z"/><path d="m160-304 8-8 16-16 8-8h-32z"/><path d="m160-336-32 32v32l32-32z"/><path d="m384 112h-192-32l32 32h112 32 48z"/><path d="m448 144v-32h-32-32v32z"/><path d="m448 112v32l32-32z"/><path d="m0-192v64-16-16z"/><path d="m0-368v64 16z"/><path d="m0-368v64z"/><path d="m128-432-128 64z"/><path d="m32-224h-32v32h32z"/><path d="m32-288h-32v32h32z"/><path d="m64-256-32-32v32 32 32l32-32z"/><path d="m64-256v32z"/><path d="m32-288 32 32z"/><path d="m32-256v24 8z"/><path d="m64-224-32 32z"/><path d="m128-128h-128v32h128z"/><path d="m32-32h-32v32h32z"/><path d="m64 0-32-32v32 32 32l32-32z"/><path d="m32 32h-32v32h32z"/><path d="m32 32h-8-24z"/><path d="m32-32 32 32z"/><path d="m32 0v8 24z"/><path d="m64 32-32 32z"/><path d="m352 208h160-144-16-16z"/><path d="m352 208h-16-32-176 96z"/><path d="m304 144v64h32v-64z"/><path d="m632-248h-16v16h16z"/><path d="m632 8h-16v16h16z"/><path d="m408-120h-16z"/><path d="m408-104v-16h-16v16z"/><path d="m248-120h-16v16h16z"/><path d="m24-248h-16v16h16z"/><path d="m24 8h-16v16h16z"/><path d="m328-504h-16v16h16z"/><path d="m368-512-32-32z"/><path d="m272-512v32z"/><path d="m304-544-32 32z"/><path d="m312-488v-16z"/><path d="m328-504v16z"/><path d="m336-544h-8v40 16 40h8l32-32v-32z"/><path d="m336-448 32-32z"/><path d="m328-488h-16z"/><path d="m312-504h16z"/><path d="m328-544h-16v40h16z"/><path d="m312-488v40h16v-40z"/><path d="m312-488v-16-40h-8l-32 32v32l32 32h8z"/><path d="m272-480 32 32z"/><path d="m616-256h16 8-32z"/><path d="m616-232v-16z"/><path d="m632-232h-16z"/><path d="m632-248v16z"/><path d="m640-256h-8v8 16h8z"/><path d="m616-248h16z"/><path d="m632-256h-16v8h16z"/><path d="m632-232h-16v8h24v-8z"/><path d="m616-232v-16-8h-8v32h8z"/><path d="m616 0h16 8-32z"/><path d="m616 24v-16z"/><path d="m632 8v16z"/><path d="m640 0h-8v8 16 8h8z"/><path d="m616 8h16z"/><path d="m632 0h-16v8h16z"/><path d="m632 24h-16z"/><path d="m616 24v8h16v-8z"/><path d="m616 24v-16-8h-8v32h8z"/><path d="m384-104v-24 32z"/><path d="m408-104h-16z"/><path d="m392-128h16 8-32z"/><path d="m392-104v-16z"/><path d="m408-120v16z"/><path d="m416-128h-8v8 16h8z"/><path d="m408-120v-8h-16v8z"/><path d="m392-120v-8h-8v24h8z"/><path d="m416-96v-8h-8-16-8v8z"/><path d="m224-128v32z"/><path d="m232-128h24-32z"/><path d="m232-104v-16z"/><path d="m232-120h16z"/><path d="m248-120h8v-8h-24v8z"/><path d="m248-120v16z"/><path d="m248-120v16 8h8v-24z"/><path d="m248-104h-16z"/><path d="m232-104v8h16v-8z"/><path d="m232-104v-16-8h-8v32h8z"/><path d="m0 24v-24 32z"/><path d="m0-232v-24 32z"/><path d="m0-224h32z"/><path d="m8-256h16 8-32z"/><path d="m24-232h-16z"/><path d="m8-232v-16z"/><path d="m24-248v16z"/><path d="m32-256h-8v8 16h8z"/><path d="m8-248h16z"/><path d="m24-256h-16v8h16z"/><path d="m8-248v-8h-8v24h8z"/><path d="m32-224v-8h-8-16-8v8z"/><path d="m8 0h24-32z"/><path d="m24 8h8v-8h-24v8z"/><path d="m8 8v-8h-8v24h8z"/><path d="m24 8v16 8h8v-24z"/><path d="m24 32v-8h-16-8v8z"/><path d="m24 24h-16z"/><path d="m24 8v16z"/><path d="m8 8h16z"/><path d="m8 24v-16z"/><path d="m64 32-32 32v-32-32-32l32 32z"/><path d="m32 32h-32v-32h32z"/><path d="m32 64h-32v-32h32z"/><path d="m32 0h-32v-32h32z"/><path d="m304 208v-64h32v64z"/><path d="m272 16-16 16v-16z"/><path d="m384 32-16-16h16z"/><path d="m256 16v16l-72 72-16-16 88-88z"/><path d="m128 80h32l8 8 16 16 8 8h-32z"/><path d="m288 16v-32-64h64v64 32z"/><path d="m32-256h-32v-32h32z"/><path d="m32-192h-32v-32h32z"/><path d="m32-224h-32v-32h32z"/><path d="m64-224-32 32v-32-32-32l32 32z"/><path d="m0-128h128v32h-128z"/><path d="m128-96v-32-176h32v160 64h-32z"/><path d="m160-80v160h-32v-160z"/><path d="m256-240v16l-88-88 16-16 72 72z"/><path d="m192-128 32-32h32v96h-32l-32-32z"/><path d="m352-144h-64v-96h64z"/><path d="m256-64v-96-64-16h16 16v96 64 64h-32z"/><path d="m288-16v32h-16-16v-16-16z"/><path d="m400-240-16 16v-16z"/><path d="m352-80v-64-96h16 16v16 64 96 48h-32z"/><path d="m384-16v16 16h-16-16v-32z"/><path d="m256-240v-16l16 16z"/><path d="m192-368v32l-8 8-16 16-8 8h-32z"/><path d="m304-368v-64h32v64z"/><path d="m384 144h-48-32-112l-32-32h32 192z"/><path d="m416 112h32 32l-32 32h-64v-32z"/><path d="m472 88-16 16-72-72v-16-16z"/><path d="m456 104 16-16 8-8h32l-32 32h-32z"/><path d="m640 64h-32v-32h32z"/><path d="m640 32h-32v-32h32z"/><path d="m608 32v32l-32-32v-32h32z"/><path d="m608 0h-32l32-32h32v32z"/><path d="m416-160 32 32v32l-32 32h-32v-96z"/><path d="m512-112v-16h128v32h-128z"/><path d="m640-256h-32v-32h32z"/><path d="m640-192h-32v-32h32z"/><path d="m640-224h-32v-32h32z"/><path d="m608-256v32 32l-32-32v-32l32-32z"/><path d="m456-328 16 16-72 72h-16-16z"/><path d="m480-304-8-8-16-16-8-8h32z"/><path d="m416-336h-224v-32h112 32 80z"/><path d="m448-368 32 32h-32-32v-32z"/><path d="m480-144v-160-32l32 32v176 16h-32z"/><path d="m512-112v16 176h-32v-192z"/><path d="m640-192v-32-32-32-80 64 144z"/><path d="m640-96v-32-16 64z"/><path d="m640 64v-32-32-32-32 208z"/><path d="m512 208h-144z"/><path d="m128-432h144 16 16-48z"/><path d="m352-432h16 144-128-48z"/><path d="m512-304v176z"/><path d="m512-96v16 160z"/><path d="m640-96v16 16 32-16z"/><path d="m640-96h-128z"/><path d="m640-288h-32z"/><path d="m640-368-128-64z"/><path d="m608-192h32z"/><path d="m512-128h128z"/><path d="m512 208 128-64z"/><path d="m304 144h-112z"/><path d="m384 144h64-64-48z"/><path d="m128-128v-144-32z"/><path d="m304-368h-112z"/><path d="m336-368v-64z"/><path d="m304-432v64z"/><path d="m192-368-64 64 32-32z"/><path d="m480 112 32-32-32 32-32 32z"/><path d="m416 112h-32-192 192z"/><path d="m448-336h-32z"/><path d="m160-304 8-8z"/><path d="m184-328 8-8z"/><path d="m480-144v32 192-160z"/><path d="m480-304-8-8z"/><path d="m448 112 8-8z"/><path d="m160 80 8 8z"/><path d="m160-304v160z"/><path d="m416-64h-32z"/><path d="m400-240 72-72-72 72-16 16z"/><path d="m368-240h-16-64-16z"/><path d="m448-128v32z"/><path d="m384-160v-64z"/><path d="m288-144v32 32z"/><path d="m256-160h-32z"/><path d="m168-312 88 88z"/><path d="m272-240-16-16-72-72 72 72z"/><path d="m256-224v64z"/><path d="m224-160-32 32z"/><path d="m168 88 88-88z"/><path d="m384 32 72 72-72-72-16-16z"/><path d="m256 32 16-16-16 16-72 72z"/><path d="m0 144v-80z"/><path d="m0-32v-32-16-16 16z"/><path d="m32-288h-32z"/><path d="m128-432-128 64z"/><path d="m0-192h32z"/><path d="m32-32h-32z"/><path d="m128-96h-128z"/><path d="m0-128h128z"/><path d="m0 64h32z"/><path d="m64 0v32z"/><path d="m288 208h-16-144 176z"/><path d="m336 144v64z"/><path d="m304 208v-64z"/><path d="m0 144 128 64z"/><path d="m0-64v32 32 32 32 80z"/><path d="m0-80v16z"/><path d="m0-160v16z"/><path d="m0-144v16 32 16z"/><path d="m0-80v16 208-64z"/><path d="m0-304v144 16 64-64z"/><path d="m0-304v-64 80 32 32 32 32z"/><path d="m512-432h-144z"/><path d="m352-432h-64-16-144z"/><path d="m352-432h-16-32-16z"/><path d="m272-432h-144z"/><path d="m288-432h-16z"/><path d="m368-432h-16z"/><path d="m640-368v64z"/><path d="m640-144v-16z"/><path d="m640-64v-16z"/><path d="m288 208h16 32 16z"/><path d="m128 208h144z"/><path d="m272 208h16z"/><path d="m352 208h16z"/><path d="m368 208h144-160z"/><path d="m0 144 128 64z"/><path d="m512 208 128-64z"/><path d="m128-432-128 64z"/><path d="m640-368-128-64z"/><path d="m-16 144h16l128 64v16z"/><path d="m-16-256v-112h16v64 160h-16z"/><path d="m0-144v64 160h-16v-160-64z"/><path d="m0 80v64h-16v-64z"/><path d="m0-368h-16l144-80v16z"/><path d="m512 224v-16l128-64v8.8889z"/><path d="m352 224h-188-36v-16h224z"/><path d="m512 208v16h-152-8v-16z"/><path d="m656-368h-16l-128-64v-16z"/><path d="m640-304v-64h16v48 128 48h-16z"/><path d="m656-144v176 48h-16v-160-64z"/><path d="m656 80v64l-16 8.8889v-8.8889-64z"/><path d="m352-432h-224v-16h224z"/><path d="m450.2857-448h61.7143v16h-160v-16z"/><path d="m-64-368v64z"/><path d="m512-496h-144-96z"/><path d="m704-256v224-64-48z"/><path d="m128 272h96 112 24z"/><path d="m704-368-109.7143-73.1429-10.2857-6.8571-72-48z"/><path d="m-16-80v160 64z"/><path d="m656-368v48z"/><path d="m352-448h-224z"/><path d="m512 224h-25.2332-86.7668-74.1053 34.1053z"/><path d="m656 80v-48 112z"/><path d="m0-368v64z"/><path d="m512-432h-144-16z"/><path d="m640-80v160 64-208z"/><path d="m640-304v160 64-64-16z"/><path d="m352 208h-224 144 16z"/><path d="m0 144 128 64z"/><path d="m512 208 128-64z"/><path d="m128-432-128 64z"/><path d="m640-368-128-64z"/><path d="m-64-112v-2.2857 34.2857z"/><path d="m-64-80v224z"/><path d="m-64-304v112 80 32z"/><path d="m-64-192v21.3333 42.6667 13.7143 2.2857z"/><path d="m512-496h-64-144.8101 64.8101z"/><path d="m368-496h-64.8101-31.1899z"/><path d="m128-496h144-32z"/><path d="m704 144v-112-64z"/><path d="m704-96v64z"/><path d="m704-368v112z"/><path d="m224 272h32.6531 47.3469 21.8947 10.1053z"/><path d="m128 272h64 64.6531-32.6531z"/><path d="m128-496-72 48-10.2857 6.8571-61.7143 41.1429-48 32z"/><path d="m675.2 163.2 28.8-19.2-32 21.3335v-.0002z"/><path d="m-64 144 48 32 25.8462 17.2308 46.1538 30.7692 72 48z"/><path d="m-16-80v224-112z"/><path d="m-16-112v-80-64 112 64z"/><path d="m-16-368v112z"/><path d="m704-368h-48v-32z"/><path d="m512-448v-48l72 48 10.2857 6.8571-26.9011 23.9121z"/><path d="m512-448h-64v-48h64z"/><path d="m368-448h144-61.7143-98.2857z"/><path d="m352-448h-224 112 63.1899 64.8101z"/><path d="m128-496v48h-72z"/><path d="m128-496h112v48h-112z"/><path d="m-16-368 88.6153-49.2307 55.3847-30.7693z"/><path d="m128-448-55.3847 30.7693-26.901-23.9122 10.2857-6.8571z"/><path d="m512-448h-61.7143z"/><path d="m656-368-88.6154-49.2308 26.9011-23.9121 61.7143 41.1429z"/><path d="m512-448 55.3846 30.7692 88.6154 49.2308z"/><path d="m704-368v112h-48v-112z"/><path d="m-16 144 61.7143 34.2857-35.8681 14.9451-25.8462-17.2308z"/><path d="m128 224h36 92.653-64.653z"/><path d="m128 224-82.2857-45.7143-61.7143-34.2857z"/><path d="m128 224v48l-72-48z"/><path d="m128 224h64v48h-64z"/><path d="m656-192v-176 112 112z"/><path d="m656-192v48 48 128-176z"/><path d="m656-368v176-128z"/><path d="m656-144h48v48h-48z"/><path d="m704 144-28.8 19.2-19.2-19.2z"/><path d="m675.2 163.2-19.2 12.8v-32z"/><path d="m704-96v64 64h-48v-128z"/><path d="m656 144-72 40-72 40 128-71.1111z"/><path d="m512 224-19.5294 10.8497z"/><path d="m-16-368h-48l48-32z"/><path d="m-16-368v112h-48v-112z"/><path d="m-16 144v32l-48-32z"/><path d="m672 165.3333 3.2-2.1333z"/><path d="m-16-114.2857v2.2857 32z"/><path d="m-16-114.2857v-13.7143-42.6667-21.3333 80z"/><path d="m486.7668 224h25.2332l-19.5294 10.8497z"/><path d="m-64-170.6667v-85.3333h48v85.3333z"/><path d="m325.8947 224h74.1053v48h-74.1053z"/><path d="m325.8947 224h-21.8947-47.347-92.653 188 8z"/><path d="m656 176 16-10.6667v.0002l-160 106.6665 72-48 24-16z"/><path d="m656 176-48 32-24-24 72-40z"/><path d="m-64-80v112 112z"/><path d="m-16-80v112h-48v-112-34.2857h48z"/><path d="m256.653 224h47.347v48h-47.3469z"/><path d="m-64-256v85.3333-21.3333-112-64z"/><path d="m400 272h112-152-24-10.1053z"/><path d="m-16-256v64 21.3333z"/><path d="m240-496h32 31.1899v48h-63.1899z"/><path d="m656 32v-128z"/><path d="m704 32v112h-48v-112z"/><path d="m400 272v-48h86.7668l5.7038 10.8497 19.5294 37.1503z"/><path d="m-16-128h-48v-42.6667h48z"/><path d="m-64-128h48v13.7143h-48z"/><path d="m584 224-72 48-19.5294-37.1503 19.5294-10.8497z"/><path d="m9.8462 193.2308 35.8681-14.9451 82.2857 45.7143h-72z"/><path d="m304 224h21.8947v48h-21.8947z"/><path d="m45.7143-441.1429 26.901 23.9122-88.6153 49.2307v-32z"/><path d="m584 184 24 24-24 16h-72z"/><path d="m704-256v-112 112 112z"/><path d="m448-448h64-144-64.8101z"/><path d="m448-496v48h-144.8101v-48z"/><path d="m192 224h64.653l.0001 48h-64.6531z"/><path d="m704-256v112h-48v-112z"/><path d="m-64 32h48v112h-48z"/></g></defs><path d="m-219-667h1238v1094h-1238z" fill="#fff"/><g stroke="#000"><use fill="none" stroke-miterlimit="0" stroke-width="15" xlink:href="#a"/><use fill="#fff" xlink:href="#a"/></g></svg>