<?xml version="1.0" encoding="utf-8" ?>
<svg baseProfile="tiny" height="100%" version="1.2" viewBox="-654.0 -766.0 1516.0 1628.0" width="100%" xmlns="http://www.w3.org/2000/svg" xmlns:ev="http://www.w3.org/2001/xml-events" xmlns:xlink="http://www.w3.org/1999/xlink"><defs><g id="bsp_ref"><polygon points="-512,-352 -480,-352 -480,-192 -512,-192" /><polygon points="-480,-352 -384,-352 -256,-352 -256,-320 -256,-256 -256,-192 -384,-192 -480,-192" /><polygon points="-256,-448 -256,-352 -384,-352 -384,-576 -256,-576" /><polygon points="-192,-576 -128,-576 -64,-576 -64,-544 -64,-480 -64,-448 -128,-448 -192,-448 -256,-448 -256,-576" /><polygon points="32,-480 32,-544 64,-544 64,-480" /><polygon points="32,-544 -32,-544 -64,-544 -64,-576 -32,-576 32,-576 64,-576 64,-544" /><polygon points="-64,-352 -64,-448 -64,-480 -32,-480 32,-480 64,-480 64,-448 64,-416 64,-320 -64,-320" /><polygon points="-32,-480 -32,-544 32,-544 32,-480" /><polygon points="-64,-480 -64,-544 -32,-544 -32,-480" /><polygon points="-256,-256 -256,-320 -256,-320 -256,-320 -256,-272 -256,-256" /><polygon points="-256,-320 -256,-352 -256,-448 -256,-448 -256,-352 -256,-320" /><polygon points="-64,-448 -64,-448 -128,-448 -128,-448 -128,-448" /><polygon points="64,-320 64,-416 64,-416 64,-224 64,-192 64,-192 64,-192" /><polygon points="-64,-320 64,-320 64,-192 -64,-192" /><polygon points="-480,-192 -384,-192 -384,-192 -448,-192" /><polygon points="-480,-352 -512,-352 -512,-352 -448,-352" /><polygon points="-480,-352 -448,-352 -448,-192 -480,-192" /><polygon points="-384,-192 -256,-192 -256,-160 -384,-160" /><polygon points="-512,-352 -512,-192 -480,-192 -480,-352" /><polygon points="-256,-160 -256,-192 -256,-256 -256,-256 -256,-160 -256,-32 -256,-32" /><polygon points="-256,-160 -256,-32 -256,64 -384,64 -384,-64 -384,-160" /><polygon points="-128,-576 -128,-576 -192,-576 -192,-576" /><polygon points="-192,-592 -192,-576 -192,-576 -192,-592" /><polygon points="-192,-576 -192,-592 -128,-592 -128,-576" /><polygon points="-192,-448 -192,-448 -192,-448 -256,-448 -256,-448 -192,-448" /><polygon points="-192,-448 -192,-448 -128,-448 -128,-448" /><polygon points="-192,-432 -192,-448 -128,-448 -128,-432" /><polygon points="-128,-432 -128,-448 -128,-448 -128,-432" /><polygon points="64,-192 64,-32 -64,-32 -64,-192" /><polygon points="32,-576 32,-576 -32,-576 -32,-576" /><polygon points="32,-576 32,-576 32,-576 64,-576 64,-576 32,-576" /><polygon points="-32,-576 -32,-592 32,-592 32,-576" /><polygon points="-384,-64 -384,64 -384,-64" /><polygon points="-128,-576 -128,-576 -128,-592 -128,-592" /><polygon points="-192,-592 -192,-576 -128,-576 -128,-592" /><polygon points="-128,-592 -128,-592 -192,-592 -192,-592" /><polygon points="-128,-448 -64,-448 -64,-448 -192,-448 -192,-448" /><polygon points="416,464 416,448 416,448 416,464" /><polygon points="528,192 512,192 512,192 528,192" /><polygon points="416,192 416,160 448,160 512,160 512,192" /><polygon points="448,64 512,64 512,160 448,160" /><polygon points="512,160 512,64 512,64 512,160 512,192 512,192" /><polygon points="512,256 416,256 416,192 512,192 528,192 528,256" /><polygon points="528,288 512,288 512,288 528,288" /><polygon points="416,288 416,256 512,256 512,288" /><polygon points="416,384 425,407 441.0435,448 416,448" /><polygon points="441.0435,448 425,407 448,416 512,441.0435 512,448" /><polygon points="512,441.0435 448,416 471,407 512,390.9565" /><polygon points="471,361 448,352 500.5714,331.4286 492.5217,352 486.6098,367.1082" /><polygon points="416,384 425,361 448,352 471,361 480,384 471,407 448,416 425,407" /><polygon points="500.5714,331.4286 528,320.6956 528,352 512,352 492.5217,352" /><polygon points="500.5714,331.4286 448,352 425,361 416,364.5217 416,352 416,288 512,288 528,288 528,320.6956" /><polygon points="480,384 486.6098,367.1082 492.5217,352 512,352 512,390.9565 471,407" /><polygon points="471,361 486.6098,367.1082 480,384" /><polygon points="416,384 416,364.5217 425,361" /><polygon points="512,441.0435 512,390.9565 512,352 512,352 512,390.9565 512,441.0435 512,448 512,448" /><polygon points="-64,-448 -64,-448 -64,-352 -64,-352" /><polygon points="-192,-448 -192,-448 -192,-432 -192,-432" /><polygon points="-192,-448 -192,-432 -128,-432 -128,-448" /><polygon points="-192,-432 -192,-432 -128,-432 -128,-432" /><polygon points="-224,432 -224,480 -256,480 -256,432" /><polygon points="-224,384 -224,432 -256,432 -256,384" /><polygon points="-256,256 -256,144 -192,144 -64,144 -64,192 -64,256" /><polygon points="-64,80 -64,144 -192,144" /><polygon points="64,256 64,192 64,80 80,88 80,144 80,256" /><polygon points="256,448 320,448 320,464 256,464" /><polygon points="352,448 416,448 416,464 352,464" /><polygon points="416,384 416,448 352,448 320,448 256,448 224,448 224,384" /><polygon points="-32,352 -256,352 -256,320 -32,320" /><polygon points="192,352 -32,352 -32,320 192,320" /><polygon points="288,320 288,352 192,352 192,320" /><polygon points="-32,320 -256,320 -256,256 -64,256 -32,256" /><polygon points="192,320 -32,320 -32,256 64,256 80,256 192,256" /><polygon points="288,256 288,288 288,320 192,320 192,256" /><polygon points="288,256 192,256 80,256 80,144 192,144 288,144" /><polygon points="80,88 192,144 80,144" /><polygon points="-32,384 -192,384 -224,384 -256,384 -256,352 -32,352" /><polygon points="192,384 32,384 -32,384 -32,352 192,352" /><polygon points="288,352 416,352 416,364.5217 416,384 224,384 192,384 192,352" /><polygon points="288,288 288,256 288,144 288,64 416,64 416,160 416,192 416,256 416,288" /><polygon points="416,352 288,352 288,320 288,288 416,288" /><polygon points="-80,64 -192,64 -192,0 -80,0" /><polygon points="-64,144 -64,80 -64,64 -64,0 -64,-32 64,-32 64,0 64,64 64,80 64,192 -64,192" /><polygon points="64,192 64,256 -32,256 -64,256 -64,192" /><polygon points="288,64 288,-32 288,-64 416,-64 416,64" /><polygon points="64,0 64,0 64,64 64,64" /><polygon points="-64,64 -64,64 -64,0 -64,0" /><polygon points="-80,0 -80,0 -80,64 -80,64" /><polygon points="-80,0 -192,0 -192,0 -96,0 -80,0" /><polygon points="320,464 320,448 320,448 320,464" /><polygon points="192,384 224,384 224,384 224,384 32,384 32,384" /><polygon points="-192,384 -32,384 32,384 32,384 -32,384 -192,384" /><polygon points="-224,384 -192,384 -192,384" /><polygon points="64,-32 64,-192 64,-192" /><polygon points="-64,-192 -64,-192 -64,-32" /><polygon points="-384,160 -384,64 -256,64 -256,144 -256,256 -288,256 -384,256" /><polygon points="-384,160 -384,256 -512,256 -512,160" /><polygon points="-288,320 -464,320 -512,320 -512,256 -384,256 -288,256" /><polygon points="-256,320 -288,320 -288,256 -256,256" /><polygon points="-448,352 -411.0222,352 -403,371" /><polygon points="-403,461 -411.0222,480 -448,480" /><polygon points="-493,371 -484.9778,352 -464,352 -448,352" /><polygon points="-493,371 -512,416 -512,352 -484.9778,352" /><polygon points="-403,461 -384,416 -384,432 -384,480 -411.0222,480" /><polygon points="-403,371 -411.0222,352 -384,352 -384,384 -384,416" /><polygon points="-512,416 -493,371 -448,352 -403,371 -384,416 -403,461 -448,480 -493,461" /><polygon points="-384,384 -384,352 -288,352 -288,384" /><polygon points="-256,480 -320,480 -352,480 -352,432 -256,432" /><polygon points="-256,432 -352,432 -384,432 -384,416 -384,384 -288,384 -256,384" /><polygon points="-256,352 -288,352 -384,352 -411.0222,352 -448,352 -464,352 -464,320 -288,320 -256,320" /><polygon points="-256,384 -288,384 -288,352 -256,352" /><polygon points="-512,452.9778 -512,416 -493,461" /><polygon points="-512,480 -512,452.9778 -493,461 -448,480" /><polygon points="428,364 428,404 468,404 468,364" /><polygon points="-512,372 -512,480 -404,480 -404,372" /><polygon points="64,64 64,0 80,0 80,64" /><polygon points="-64,0 -64,0 -64,-32 -64,-32 -64,0" /><polygon points="-192,64 -192,64 -192,0 -192,0 -192,0 -192,64" /><polygon points="80,64 80,64 64,64 64,64" /><polygon points="-96,64 -192,64 -192,64 -80,64 -80,64" /><polygon points="-80,0 -80,0 -64,0 -64,0" /><polygon points="-80,64 -80,0 -64,0 -64,64" /><polygon points="-96,0 -96,64 -80,64 -80,0" /><polygon points="-96,0 -192,0 -192,0 -96,0" /><polygon points="-192,384 -32,384 -32,480 -64,480 -224,480 -224,432 -224,384" /><polygon points="-512,96 -512,160 -512,256 -512,320 -512,320 -512,288 -512,224 -512,96" /><polygon points="-512,96 -512,64 -512,0 -512,-64 -384,-64 -384,160 -512,160" /><polygon points="-512,-352 -512,-352 -512,-192 -512,-192" /><polygon points="-512,64 -512,64 -512,0 -512,0 -512,0 -512,64" /><polygon points="-512,96 -512,224 -512,224 -512,64 -512,64 -512,64" /><polygon points="-512,64 -512,64 -512,96 -512,96" /><polygon points="-256,-576 -192,-576 -192,-576 -192,-576 -192,-576 -256,-576 -384,-576 -384,-576" /><polygon points="-128,-576 -128,-576 -192,-576 -192,-576" /><polygon points="-64,-576 -32,-576 -32,-576 -32,-576 -64,-576 -128,-576 -128,-576 -128,-576 -128,-576" /><polygon points="-32,-576 -32,-576 -32,-592 -32,-592 -32,-576" /><polygon points="-256,496 -256,480 -256,480 -256,496" /><polygon points="-256,480 -256,480 -224,480 -64,480 -64,480 -64,480 -256,480" /><polygon points="-256,-448 -192,-448 -64,-448 -64,-576 -128,-576 -192,-576 -256,-576" /><polygon points="-512,-192 -512,-192 -480,-192 -448,-192" /><polygon points="-384,-352 -384,-352 -480,-352 -448,-352" /><polygon points="-384,-352 -256,-352 -256,-448 -256,-576 -384,-576" /><polygon points="-384,-576 -384,-576 -384,-352 -384,-352" /><polygon points="-448,-352 -512,-352 -512,-192 -448,-192" /><polygon points="-384,-352 -448,-352 -448,-192 -384,-192" /><polygon points="-448,-352 -480,-352 -480,-192 -448,-192" /><polygon points="-320,480 -320,480 -256,480 -256,480" /><polygon points="-320,480 -320,480 -352,480 -352,480 -320,480" /><polygon points="-320,496 -320,480 -256,480 -256,496" /><polygon points="-528,224 -512,224 -512,288 -528,288" /><polygon points="-528,288 -512,288 -512,288 -528,288" /><polygon points="-512,-352 -512,-352 -480,-352 -448,-352" /><polygon points="-448,-192 -480,-192 -512,-192 -512,-192" /><polygon points="-512,-192 -512,-352 -448,-352 -448,-192" /><polygon points="-512,-192 -512,-192 -512,-352 -512,-352" /><polygon points="-448,-352 -480,-352 -480,-192 -448,-192" /><polygon points="-32,-592 -32,-576 32,-576 32,-592" /><polygon points="32,-592 32,-576 32,-576 32,-592" /><polygon points="-32,-592 32,-592 32,-592 -32,-592" /><polygon points="-512,-64 -512,0 -512,0" /><polygon points="-64,-448 -64,-448 -64,-576 -64,-576 -64,-448" /><polygon points="64,-448 64,-416 64,-416 64,-448" /><polygon points="-64,-224 -64,-352 -64,-352 -64,-352 -64,-320 -64,-192 -64,-192 -64,-192" /><polygon points="-64,-352 -64,-448 -64,-448 -64,-448 -64,-352" /><polygon points="64,-416 64,-448 -64,-448 -64,-352 -64,-224 64,-224" /><polygon points="-64,-224 -64,-192 64,-192 64,-224" /><polygon points="64,-192 64,-32 64,-32 64,-32 64,-192" /><polygon points="-64,-192 -64,-32 64,-32 64,-192" /><polygon points="-512,-192 -384,-192 -384,-64 -512,-64" /><polygon points="-384,-64 -384,-64 -384,64 -384,160" /><polygon points="-384,-192 -384,-192 -384,-192 -384,-160 -384,-64 -384,-64 -384,-64" /><polygon points="-64,480 -32,480 -64,480" /><polygon points="512,-192 512,-160 512,-64 416,-64 416,-192" /><polygon points="288,144 288,144 192,144 192,144" /><polygon points="416,-64 288,-64 256,-64 256,-192 320,-192 416,-192" /><polygon points="288,-64 288,-32 288,-32" /><polygon points="288,-32 288,-32 288,64 288,144 288,144" /><polygon points="-32,480 -32,384 32,384 32,480" /><polygon points="64,-32 64,0 64,0 64,0 64,-32" /><polygon points="64,0 64,-32 64,-32 64,64 64,64" /><polygon points="64,0 64,64 80,64 80,0" /><polygon points="64,0 80,0 80,0 64,0" /><polygon points="80,64 80,64 80,0 80,0" /><polygon points="-64,64 -80,64 -80,64 -64,64" /><polygon points="-192,64 -192,64 -96,64 -96,64" /><polygon points="-64,-32 -64,-32 -64,-192 -64,-192 -64,-32" /><polygon points="-80,0 -80,0 -80,64 -80,64" /><polygon points="-80,64 -64,64 -64,0 -80,0" /><polygon points="-96,64 -96,64 -96,0 -96,0" /><polygon points="-192,0 -192,64 -96,64 -96,0" /><polygon points="-512,-576 -512,-352 -512,-352 -512,-384 -512,-576" /><polygon points="32,-576 32,-576 -32,-576 -32,-576" /><polygon points="-64,-576 -32,-576 -32,-576 -32,-576 -64,-576" /><polygon points="-288,-576 -512,-576 -512,-576 -448,-576 -320,-576 -288,-576" /><polygon points="-64,-576 -256,-576 -288,-576 -288,-576 -96,-576 -64,-576" /><polygon points="-256,144 -256,144 -256,64 -256,64" /><polygon points="-256,-32 -256,64 -256,64 -256,-32" /><polygon points="-256,-256 -256,-272 -256,-272 -256,-192 -256,-160 -256,-160" /><polygon points="-256,-352 -256,-320 -256,-320 -256,-352" /><polygon points="-256,-320 -256,-352 -256,-352 -256,-272 -256,-272 -256,-272" /><polygon points="-64,-448 -64,-448 -192,-448" /><polygon points="64,-576 64,-448 64,-448 64,-448 64,-480 64,-544 64,-576" /><polygon points="-256,-576 -64,-576 -64,-448 -192,-448 -256,-448" /><polygon points="416,320 416,160 416,160 416,320" /><polygon points="512,64 512,64 448,64 448,64" /><polygon points="441.0435,448 416,448 416,448 441.0435,448 512,448 512,448" /><polygon points="471,407 448,416 512,441.0435 512,390.9565" /><polygon points="425,407 416,384 416,448 441.0435,448" /><polygon points="448,416 425,407 441.0435,448 512,448 512,441.0435" /><polygon points="480,384 471,361 448,352 425,361 416,384 425,407 448,416 471,407" /><polygon points="471,361 486.6098,367.1082 500.5714,331.4286 448,352" /><polygon points="448,160 416,160 416,320 416,364.5217 425,361 448,352 500.5714,331.4286 512,326.9565 512,288 512,256 512,224 512,192 512,160" /><polygon points="512,192 512,224 528,224 528,192" /><polygon points="512,288 512,326.9565 512,352 528,352 528,288" /><polygon points="512,224 512,256 528,256 528,224" /><polygon points="416,364.5217 416,384 425,361" /><polygon points="512,352 512,326.9565 500.5714,331.4286 486.6098,367.1082 480,384 471,407 512,390.9565" /><polygon points="480,384 486.6098,367.1082 471,361" /><polygon points="448,64 448,160 512,160 512,64" /><polygon points="512,256 512,256 528,256 528,256" /><polygon points="448,64 448,64 448,160 448,160" /><polygon points="448,160 448,160 416,160 416,160" /><polygon points="528,224 528,256 528,256 528,192 528,192" /><polygon points="512,288 512,288 512,256 512,256" /><polygon points="512,352 512,352 528,352 528,352" /><polygon points="528,352 528,352 528,320.6956 528,288 528,288" /><polygon points="416,384 416,384 425,407 425,407" /><polygon points="425,407 425,407 416,384 416,384" /><polygon points="471,361 471,361 480,384 480,384" /><polygon points="480,384 480,384 471,361 471,361" /><polygon points="425,407 425,407 448,416 448,416" /><polygon points="448,416 448,416 425,407 425,407" /><polygon points="448,352 448,352 471,361 471,361" /><polygon points="471,361 471,361 448,352 448,352" /><polygon points="425,361 425,361 448,352 448,352" /><polygon points="448,352 448,352 425,361 425,361" /><polygon points="480,384 480,384 471,407 471,407" /><polygon points="471,407 471,407 480,384 480,384" /><polygon points="425,361 425,361 416,384 416,384" /><polygon points="416,384 416,384 425,361 425,361" /><polygon points="448,416 448,416 471,407 471,407" /><polygon points="471,407 471,407 448,416 448,416" /><polygon points="-256,-448 -192,-448 -192,-352 -256,-352" /><polygon points="-192,-352 -192,-448 -64,-448 -64,-352" /><polygon points="160,144 32,144 -64,144 -64,144 64,144 160,144" /><polygon points="192,144 192,144 192,144 192,144 288,144 288,144 192,144" /><polygon points="-192,144 -192,144 -256,144 -256,144" /><polygon points="64,64 64,-32 -64,-32 -64,64 -64,80 32,80 64,80" /><polygon points="32,80 -64,80 -192,144 -64,144 32,144" /><polygon points="160,144 192,144 64,80 32,80 32,144" /><polygon points="64,80 64,80 64,64 64,64 64,64 64,64" /><polygon points="192,144 192,144 192,144 80,88 64,80 64,80" /><polygon points="-64,-32 -64,-32 -64,0 -64,64 -64,64" /><polygon points="-64,64 -64,64 -64,64 -64,64 -64,80 -64,80" /><polygon points="-64,80 -64,80 -192,144 -192,144" /><polygon points="224,448 224,384 224,384 224,448" /><polygon points="256,464 256,464 320,464 320,464" /><polygon points="352,464 352,464 416,464 416,464" /><polygon points="416,448 416,384 416,364.5217 416,320 352,384 352,448 352,464 416,464" /><polygon points="256,448 256,464 320,464 320,448" /><polygon points="224,384 224,448 256,448 320,448 352,448 352,384" /><polygon points="224,448 224,448 256,448 256,448" /><polygon points="320,448 320,448 352,448 352,448" /><polygon points="352,448 352,448 352,464 352,464" /><polygon points="256,448 256,448 256,464 256,464" /><polygon points="-288,-352 -384,-352 -512,-352 -512,-576 -288,-576" /><polygon points="-256,-576 -256,-448 -256,-352 -288,-352 -288,-576" /><polygon points="-288,-352 -256,-352 -256,-352 -384,-352 -384,-352" /><polygon points="-384,-352 -384,-352 -384,-192 -384,-192" /><polygon points="-512,-352 -384,-352 -384,-192 -512,-192" /><polygon points="428,404 428,364 468,364 468,404" /><polygon points="468,364 468,364 468,404 468,404" /><polygon points="468,404 468,404 428,404 428,404" /><polygon points="428,404 428,404 428,364 428,364" /><polygon points="428,364 428,364 468,364 468,364" /><polygon points="192,-192 96,-192 288,-192 320,-192 320,-192 256,-192" /><polygon points="192,-192 256,-192 256,-64 192,-64" /><polygon points="-256,64 -256,64 -256,144 -256,144 -256,144 -256,144 -256,144 -256,64" /><polygon points="-256,-160 -256,32 -256,64 -256,64 -256,-32 -256,-160" /><polygon points="-256,-272 -240,-272 -240,-192 -256,-192" /><polygon points="-240,-192 -240,-272 -240,-272 -240,-192" /><polygon points="192,144 192,144 160,144 160,144" /><polygon points="-64,144 -64,144 -192,144 -192,144 -64,144" /><polygon points="-240,64 -240,64 -256,64 -256,64" /><polygon points="-240,-160 -240,-192 -240,-192 -240,-160" /><polygon points="-240,-192 -240,-160 -240,32 -256,32 -256,-160 -256,-192" /><polygon points="-240,32 -240,64 -256,64 -256,32" /><polygon points="-64,144 -32,176 32,176 64,144" /><polygon points="-528,0 -512,0 -512,64 -528,64" /><polygon points="-528,64 -512,64 -512,64 -528,64" /><polygon points="160,-576 64,-576 32,-576 -32,-576 -64,-576 -64,-576 -32,-576 32,-576 160,-576" /><polygon points="160,-576 192,-576 192,-448 64,-448 64,-576" /><polygon points="-512,-256 -512,-320 -512,-352 -512,-352 -512,-192 -512,-192" /><polygon points="-512,-64 -512,-128 -512,-192 -512,-192 -512,-64 -512,0 -512,0 -512,0" /><polygon points="-512,288 -512,288 -512,320 -512,320" /><polygon points="-512,480 -512,452.9778 -512,416 -512,352 -512,352 -512,416 -512,452.9778 -512,480" /><polygon points="736,-576 718,-622 710.9565,-640 736,-640" /><polygon points="672,-640 710.9565,-640 718,-622" /><polygon points="-448,480 -493,461 -493,461 -448,480" /><polygon points="-493,461 -448,480 -448,480 -493,461" /><polygon points="-512,416 -493,461 -493,461 -512,416" /><polygon points="-493,461 -512,416 -512,416 -493,461" /><polygon points="192,-576 160,-576 160,-576" /><polygon points="576,-640 582.9565,-640 594.7803,-609.7836 608,-576 576,-576" /><polygon points="672,-640 626,-622 594.7803,-609.7836 582.9565,-640" /><polygon points="736,-576 608,-576 626,-622 672,-640 718,-622" /><polygon points="608,-576 594.7803,-609.7836 626,-622" /><polygon points="416,-592 544,-592 544,-576 416,-576" /><polygon points="256,-576 256,-592 384,-592 384,-576" /><polygon points="-320,-576 -448,-576 -448,-592 -320,-592" /><polygon points="-256,496 -256,480 -256,480 -256,496" /><polygon points="736,-576 718,-530 672,-512 626,-530 608,-576" /><polygon points="608,-576 626,-530 628.5714,-523.4286 576,-576" /><polygon points="718,-530 705.7836,-498.7803 672,-512" /><polygon points="628.5714,-523.4286 626,-530 672,-512 705.7836,-498.7803 736,-486.9565 736,-480 672,-480" /><polygon points="736,-486.9565 705.7836,-498.7803 718,-530 736,-576" /><polygon points="688,-320 688,-352 688,-352 688,-288 688,-288" /><polygon points="672,-448 688,-448 688,-384 672,-384" /><polygon points="688,-320 672,-320 672,-352 688,-352" /><polygon points="672,-320 688,-320 688,-288 672,-288" /><polygon points="416,480 416,480 384,480 384,480" /><polygon points="160,480 -64,480 -64,480 -32,480 32,480 160,480" /><polygon points="224,480 160,480 160,480" /><polygon points="192,-448 64,-448 64,-448" /><polygon points="-64,-448 -64,-448 -64,-448 64,-448 64,-448 64,-448" /><polygon points="645.5652,-480 628.5714,-523.4286 672,-480" /><polygon points="628.5714,-523.4286 645.5652,-480 576,-480 576,-576" /><polygon points="576,-480 645.5652,-480 672,-480 672,-448 576,-448" /><polygon points="416,-576 544,-576 576,-576 576,-480 576,-448 416,-448" /><polygon points="256,-576 384,-576 416,-576 416,-448 320,-448 288,-448 192,-448 192,-576" /><polygon points="416,160 416,160 416,160 416,64 416,64" /><polygon points="416,64 416,64 416,-64" /><polygon points="416,-320 512,-320 512,-288 512,-256 416,-288" /><polygon points="512,-320 576,-320 672,-320 672,-288 512,-288" /><polygon points="672,-256 544,-256 512,-256 512,-288 672,-288" /><polygon points="576,-448 576,-320 512,-320 416,-320 416,-448" /><polygon points="672,-448 672,-384 672,-352 672,-320 576,-320 576,-448" /><polygon points="416,320 416,160 512,160 512,384 416,384" /><polygon points="512,384 416,480 416,448 416,384" /><polygon points="512,64 512,160 416,160 416,64" /><polygon points="512,64 512,64 512,160 512,160" /><polygon points="416,-192 512,-192 512,-192 416,-192" /><polygon points="512,-160 512,64 512,-64 512,-160" /><polygon points="512,-192 512,-160 512,-160 512,-192" /><polygon points="512,64 416,64 416,-64 512,-64" /><polygon points="320,-192 416,-192 416,-192 320,-192" /><polygon points="288,-192 96,-192 64,-192 64,-192 128,-192 288,-192" /><polygon points="320,-320 320,-416 320,-448 416,-448 416,-320 416,-288 416,-224 320,-224" /><polygon points="416,-224 416,-192 320,-192 320,-224" /><polygon points="288,-416 256,-416 96,-416 64,-416 64,-448 192,-448 288,-448" /><polygon points="320,-448 320,-416 288,-416 288,-448" /><polygon points="64,-320 64,-416 96,-416 96,-320" /><polygon points="96,-320 96,-416 256,-416 160,-320" /><polygon points="96,-320 160,-320 160,-320 64,-320 64,-320" /><polygon points="-64,-352 -64,-448 64,-448 64,-416 64,-320 64,-224 -64,-224" /><polygon points="64,-224 64,-192 -64,-192 -64,-224" /><polygon points="160,144 192,144 192,144 160,144 64,144 64,144" /><polygon points="-192,144 -192,144 -256,144 -256,144" /><polygon points="192,-32 192,-32 192,32 192,64 192,64" /><polygon points="96,64 192,64 192,144 160,128 64,80 64,64" /><polygon points="160,144 64,144 -64,144 -64,80 64,80 160,128" /><polygon points="192,144 160,144 160,128" /><polygon points="64,-192 96,-192 96,-64 96,32 64,32" /><polygon points="96,32 96,64 64,64 64,32" /><polygon points="-64,-64 -64,-192 64,-192 64,32 -64,32" /><polygon points="64,32 64,64 64,80 -64,80 -64,32" /><polygon points="192,-32 192,64 96,64 96,32 96,-64 192,-64" /><polygon points="96,-64 192,-64 192,-64" /><polygon points="96,-64 96,-192 192,-192 192,-64" /><polygon points="352,448 416,448 416,480 384,480 224,480 224,448" /><polygon points="224,448 224,384 352,384 352,448" /><polygon points="352,384 416,320 416,384 416,448 352,448" /><polygon points="224,384 224,384 352,384 352,384" /><polygon points="352,384 352,384 416,320 416,320" /><polygon points="64,144 32,176 -32,176 -64,144" /><polygon points="-64,144 -64,224 -64,224 -64,176 -64,144" /><polygon points="-192,144 -256,144 -256,224 -64,224 -64,144" /><polygon points="32,176 32,176 -32,176 -32,176" /><polygon points="-32,176 -32,176 -64,144 -64,144" /><polygon points="64,144 64,144 32,176 32,176" /><polygon points="224,384 224,448 224,480 160,480 32,480 32,384" /><polygon points="-464,320 -512,320 -512,320 -512,320 -464,320" /><polygon points="-464,320 -384,320 -384,320 -512,320 -512,320" /><polygon points="-384,432 -384,480 -384,480 -384,432" /><polygon points="-352,480 -320,480 -320,480 -320,480 -352,480" /><polygon points="-352,352 -384,320 -384,324.9778 -384,416 -384,432 -352,432" /><polygon points="-352,432 -352,480 -352,480 -352,352 -352,352" /><polygon points="-352,432 -384,432 -384,432 -352,432" /><polygon points="-352,480 -352,432 -352,432 -352,480" /><polygon points="-320,480 -320,480 -320,496 -320,496" /><polygon points="-416.6169,338.7494 -448,352 -403,371" /><polygon points="-416.6169,338.7494 -384,324.9778 -384,320 -464,320 -464,352 -448,352" /><polygon points="-384,324.9778 -416.6169,338.7494 -403,371 -384,416" /><polygon points="-448,480 -411.0222,480 -403,461" /><polygon points="-464,352 -484.9778,352 -493,371 -448,352" /><polygon points="-512,352 -512,416 -493,371 -484.9778,352" /><polygon points="-512,416 -493,461 -448,480 -403,461 -384,416 -403,371 -448,352 -493,371" /><polygon points="-403,461 -411.0222,480 -384,480 -384,432 -384,416" /><polygon points="-484.9778,352 -464,352 -464,352 -484.9778,352 -512,352 -512,352" /><polygon points="-464,352 -464,320 -464,320 -464,352" /><polygon points="-384,480 -411.0222,480 -448,480 -448,480 -411.0222,480 -384,480" /><polygon points="-493,371 -512,416 -512,416 -493,371" /><polygon points="-512,416 -493,371 -493,371 -512,416" /><polygon points="-403,371 -448,352 -448,352 -403,371" /><polygon points="-448,352 -403,371 -403,371 -448,352" /><polygon points="-493,371 -448,352 -448,352 -493,371" /><polygon points="-448,352 -493,371 -493,371 -448,352" /><polygon points="-384,416 -403,371 -403,371 -384,416" /><polygon points="-403,371 -384,416 -384,416 -403,371" /><polygon points="-384,416 -403,461 -403,461 -384,416" /><polygon points="-403,461 -384,416 -384,416 -403,461" /><polygon points="-403,461 -448,480 -448,480 -403,461" /><polygon points="-448,480 -403,461 -403,461 -448,480" /><polygon points="-512,416 -512,452.9778 -493,461" /><polygon points="-493,461 -512,452.9778 -512,480 -448,480" /><polygon points="-448,480 -512,480 -512,480 -448,480" /><polygon points="-528,-256 -512,-256 -512,-192 -528,-192" /><polygon points="-528,-128 -512,-128 -512,-64 -528,-64" /><polygon points="-512,224 -512,224 -528,224 -528,224" /><polygon points="-512,0 -512,0 -528,0 -528,0" /><polygon points="-528,64 -512,64 -512,64 -512,64 -512,64 -528,64" /><polygon points="-528,64 -528,64 -528,64 -528,0 -528,0 -528,0 -528,0 -528,64" /><polygon points="-528,288 -512,288 -512,288 -528,288" /><polygon points="-512,480 -512,372 -404,372 -404,480" /><polygon points="-512,480 -512,480 -512,372 -512,372" /><polygon points="-512,372 -512,372 -404,372 -404,372" /><polygon points="-404,480 -404,480 -512,480 -512,480" /><polygon points="-404,372 -404,372 -404,480 -404,480" /><polygon points="632,-620 632,-532 712,-532 712,-620" /><polygon points="32,-576 32,-576 -32,-576 -32,-576" /><polygon points="-32,-576 -32,-592 32,-592 32,-576" /><polygon points="-64,-192 -64,-192 -64,-64 -64,-64" /><polygon points="-64,-64 -64,-64 -64,32 -64,80 -64,144 -64,144" /><polygon points="-64,-192 -64,-64 -192,-64 -192,-160 -192,-192" /><polygon points="-512,-384 -512,-384 -512,-576 -512,-576 -512,-384" /><polygon points="-512,-384 -512,-384 -512,-352 -512,-320 -512,-320" /><polygon points="320,-336 320,-400 320,-416 320,-416 320,-320 320,-320" /><polygon points="320,-416 320,-416 256,-416 256,-416 288,-416 320,-416" /><polygon points="304,-400 320,-400 320,-336 304,-336" /><polygon points="304,-336 320,-336 320,-336 304,-336" /><polygon points="-192,-160 -192,-160 -192,-192 -192,-192 -192,-160" /><polygon points="-192,-96 -192,-160 -192,-160 -192,-64 -192,-34.2857" /><polygon points="192,32 192,32 192,64 192,64" /><polygon points="192,32 192,-32 208,-32 208,32" /><polygon points="208,-32 192,-32 192,-32 208,-32" /><polygon points="-192,-34.2857 -192,-64 -64,-64 -64,144 -80,144 -192,144" /><polygon points="-208,-160 -192,-160 -192,-96 -208,-96" /><polygon points="-208,-96 -192,-96 -192,-96 -208,-96" /><polygon points="-320,480 -320,496 -256,496 -256,480" /><polygon points="-320,480 -320,480 -320,496 -320,496" /><polygon points="-320,496 -320,496 -320,496 -256,496 -256,496 -256,496" /><polygon points="-528,-384 -512,-384 -512,-320 -528,-320" /><polygon points="-528,-320 -512,-320 -512,-320 -528,-320" /><polygon points="-512,224 -512,224 -528,224 -528,224" /><polygon points="-528,288 -512,288 -512,224 -528,224" /><polygon points="-528,224 -528,224 -528,224 -528,288 -528,288 -528,288" /><polygon points="-512,144 -512,64 -512,64 -512,224 -512,224 -512,224" /><polygon points="-512,320 -512,288 -512,288 -512,288 -512,320" /><polygon points="-512,256 -512,224 -512,224 -512,288 -512,288" /><polygon points="-256,224 -256,144 -256,144" /><polygon points="672,64 672,0 672,0 672,32 672,160 672,224" /><polygon points="672,0 672,-64 672,-64 672,-32 672,0" /><polygon points="-256,480 -256,480 -256,480 -64,480 -64,480" /><polygon points="544,-256 544,-256 512,-256 512,-256 544,-256" /><polygon points="544,0 544,64 544,224 544,0" /><polygon points="544,-64 544,-256 544,-256" /><polygon points="544,64 544,0 544,-64 672,-64 672,0 672,64" /><polygon points="544,64 672,64 672,224 544,224" /><polygon points="672,-64 544,-64 544,-256 672,-256" /><polygon points="512,-160 512,-64 512,0 512,64 512,64 512,-160" /><polygon points="512,-192 512,-160 512,-160 512,-192" /><polygon points="512,-160 512,-192 512,-192 512,-64 512,-64" /><polygon points="512,-64 512,-64 512,0 512,0" /><polygon points="-64,256 -64,224 -256,224 -256,256 -256,320 -256,352 -256,448 -64,448" /><polygon points="-256,448 -256,480 -64,480 -64,448" /><polygon points="-288,144 -512,144 -512,224 -512,256 -288,256" /><polygon points="-256,256 -256,224 -256,144 -288,144 -288,256" /><polygon points="-256,144 -256,144 -288,144 -288,144" /><polygon points="-288,256 -512,256 -512,288 -512,320 -384,320 -288,320" /><polygon points="-256,320 -256,256 -288,256 -288,320" /><polygon points="-352,352 -256,352 -256,320 -288,320 -384,320" /><polygon points="-352,352 -352,480 -320,480 -256,480 -256,448 -256,352" /><polygon points="-320,480 -320,480 -256,480 -256,480" /><polygon points="-384,320 -384,320 -352,352 -352,352" /><polygon points="-512,64 -512,64 -512,144 -512,144" /><polygon points="-256,256 -256,256 -288,256 -288,256" /><polygon points="-288,144 -480,144 -512,144 -512,144 -288,144" /><polygon points="-480,144 -288,144 -256,144 -256,256 -288,256 -480,256" /><polygon points="-512,256 -512,224 -512,144 -480,144 -480,256" /><polygon points="512,160 512,224 512,384 512,384 512,160" /><polygon points="-32,-592 -32,-576 32,-576 32,-592" /><polygon points="-32,-576 -32,-592 -32,-592 -32,-576" /><polygon points="32,-592 32,-576 32,-576 32,-592" /><polygon points="-32,-592 32,-592 32,-592 -32,-592" /><polygon points="80,608 80,608 32,608 -32,608 -32,608" /><polygon points="-80,608 -32,608 -32,608 -32,608 -32,608 -80,608 -192,608 -192,608" /><polygon points="-512,-128 -512,-192 -512,-192 -512,-128" /><polygon points="-512,-256 -512,-320 -512,-320 -512,-320 -512,-256" /><polygon points="-512,0 -512,-64 -512,-64 -512,0" /><polygon points="-512,64 -512,64 -512,144 -512,224 -512,224" /><polygon points="-512,224 -512,224 -512,256 -512,256" /><polygon points="736,-640 736,-576 736,-486.9565 736,-480 736,-480 736,-486.9565 736,-576 736,-640" /><polygon points="576,-640 582.9565,-640 672,-640 710.9565,-640 736,-640 736,-640 710.9565,-640 672,-640 582.9565,-640 576,-640" /><polygon points="736,-576 718,-622 718,-622 736,-576" /><polygon points="718,-622 736,-576 736,-576 718,-622" /><polygon points="718,-622 736,-576 736,-640 710.9565,-640" /><polygon points="718,-622 672,-640 672,-640 718,-622" /><polygon points="672,-640 718,-622 718,-622 672,-640" /><polygon points="718,-622 710.9565,-640 672,-640" /><polygon points="-512,-576 -448,-576 -448,-576 -512,-576" /><polygon points="32,-576 32,-576 -32,-576 -32,-576" /><polygon points="-320,-576 -288,-576 -96,-576 -96,-576 -288,-576 -320,-576" /><polygon points="-96,-576 -64,-576 -32,-576 -32,-576 -32,-576 -32,-576 -64,-576 -96,-576" /><polygon points="384,-576 416,-576 416,-576 384,-576" /><polygon points="160,-576 256,-576 256,-576 192,-576 160,-576 32,-576 32,-576 32,-576 32,-576" /><polygon points="544,-576 576,-576 576,-576 544,-576" /><polygon points="-288,-576 -320,-576 -448,-576 -512,-576 -512,-576 -352,-576 -288,-576" /><polygon points="-64,-576 -96,-576 -288,-576 -288,-576 -256,-576 -64,-576" /><polygon points="160,-576 32,-576 -32,-576 -64,-576 -64,-576 -32,-576 0,-576 160,-576" /><polygon points="384,-576 256,-576 160,-576 160,-576 192,-576 384,-576" /><polygon points="256,-576 256,-592 256,-592 256,-576" /><polygon points="544,-592 544,-576 544,-576 544,-592" /><polygon points="576,-576 576,-640 576,-640 576,-576" /><polygon points="576,-640 576,-576 608,-576 594.7803,-609.7836 582.9565,-640" /><polygon points="594.7803,-609.7836 608,-576 626,-622" /><polygon points="608,-576 736,-576 718,-622 672,-640 626,-622" /><polygon points="582.9565,-640 594.7803,-609.7836 626,-622 672,-640" /><polygon points="626,-622 608,-576 608,-576 626,-622" /><polygon points="608,-576 626,-622 626,-622 608,-576" /><polygon points="626,-622 672,-640 672,-640 626,-622" /><polygon points="672,-640 626,-622 626,-622 672,-640" /><polygon points="416,-576 416,-592 416,-592 416,-576" /><polygon points="416,-576 544,-576 544,-592 416,-592" /><polygon points="416,-592 544,-592 544,-592 416,-592" /><polygon points="384,-592 384,-576 384,-576 384,-592" /><polygon points="256,-576 384,-576 384,-592 256,-592" /><polygon points="256,-592 384,-592 384,-592 256,-592" /><polygon points="-448,-576 -448,-592 -448,-592 -448,-576" /><polygon points="-448,-576 -320,-576 -320,-592 -448,-592" /><polygon points="-320,-592 -320,-576 -320,-576 -320,-592" /><polygon points="-448,-592 -320,-592 -320,-592 -448,-592" /><polygon points="-256,272 -256,336 -256,336 -256,272" /><polygon points="-256,144 -256,64 -256,64 -256,64 -256,192 -256,256 -256,256" /><polygon points="-256,256 -256,256 -256,144 -256,144" /><polygon points="-256,-352 -256,-352 -256,-352 -256,-272 -256,-272 -256,-272" /><polygon points="736,-576 718,-530 705.7836,-498.7803 736,-486.9565" /><polygon points="576,-576 628.5714,-523.4286 626,-530 608,-576" /><polygon points="736,-576 608,-576 626,-530 672,-512 718,-530" /><polygon points="672,-512 705.7836,-498.7803 718,-530" /><polygon points="628.5714,-523.4286 672,-480 736,-480 736,-486.9565 705.7836,-498.7803 672,-512 626,-530" /><polygon points="736,-480 672,-480 672,-480 736,-480" /><polygon points="672,-512 718,-530 718,-530 672,-512" /><polygon points="718,-530 672,-512 672,-512 718,-530" /><polygon points="626,-530 608,-576 608,-576 626,-530" /><polygon points="608,-576 626,-530 626,-530 608,-576" /><polygon points="718,-530 736,-576 736,-576 718,-530" /><polygon points="736,-576 718,-530 718,-530 736,-576" /><polygon points="626,-530 672,-512 672,-512 626,-530" /><polygon points="672,-512 626,-530 626,-530 672,-512" /><polygon points="688,-448 688,-384 688,-384 688,-448" /><polygon points="688,-160 688,-160 688,-96 688,-96" /><polygon points="688,528 688,480 688,480 688,528" /><polygon points="672,-288 672,-352 672,-384 672,-448 672,-480 672,-480 672,-268 672,-268 672,-268 672,-268 672,-268 672,-268 672,-268 672,-268 672,-268 672,-268" /><polygon points="672,-480 672,-448 672,-448 672,-480" /><polygon points="672,-384 672,-352 672,-352 672,-384" /><polygon points="672,-288 672,-268 672,-236 672,-160 672,-96 672,-64 672,-64 672,-256 672,-288" /><polygon points="672,32 672,32 672,32 672,32 672,160 672,160" /><polygon points="672,-352 688,-352 688,-352 672,-352" /><polygon points="672,-448 672,-384 688,-384 688,-448" /><polygon points="672,-448 688,-448 688,-448 672,-448" /><polygon points="688,-384 672,-384 672,-384 688,-384" /><polygon points="688,-352 672,-352 672,-288 688,-288" /><polygon points="688,-288 672,-288 672,-288 688,-288" /><polygon points="672,-160 688,-160 688,-96 672,-96" /><polygon points="672,224 672,160 688,160 688,224" /><polygon points="688,160 672,160 672,160 688,160" /><polygon points="672,528 672,480 688,480 688,528" /><polygon points="688,480 672,480 672,480 688,480" /><polygon points="-192,480 -80,480 -80,500 -80,528 -192,528" /><polygon points="-208,272 -192,272 -192,336 -208,336" /><polygon points="-256,336 -256,272 -224,272 -224,336" /><polygon points="-192,336 -192,272 -192,144 -80,144 -80,224 -80,368 -192,368" /><polygon points="-80,368 -80,384 -80,480 -192,480 -192,464 -192,368" /><polygon points="-80,368 -80,224 -64,224 -64,256 -64,384 -80,384" /><polygon points="304,500 144,500 80,500 80,480 160,480 304,480" /><polygon points="384,480 416,480 416,500 368,500 304,500 304,480" /><polygon points="160,74 -64,144 -64,176 160,148" /><polygon points="192,144 192,64 160,74 160,148" /><polygon points="416,528 416,500 416,480 432,496 464,528" /><polygon points="512,384 544,384 528,400" /><polygon points="544,384 512,384 512,224 544,224 672,224 672,352 672,384" /><polygon points="512,528 512,416 528,400 544,384 672,384 672,416 672,480 672,528" /><polygon points="512,416 512,528 464,528 432,496" /><polygon points="144,528 -80,528 -80,500 80,500 144,500" /><polygon points="368,528 144,528 144,500 304,500 368,500" /><polygon points="416,500 416,528 368,528 368,500" /><polygon points="296,-96 320,-192 288,-192 128,-192 192,-64 288,-64" /><polygon points="416,-288 320,-320 320,-192 416,-192" /><polygon points="512,32 288,32 288,96 512,160" /><polygon points="-224,272 -256,272 -256,272 -224,272" /><polygon points="544,0 544,224 544,224 544,192 544,0" /><polygon points="544,-224 544,-64 544,0 544,0 544,-32 544,-224" /><polygon points="160,-320 160,-320 64,-320 64,-320 64,-320" /><polygon points="320,-416 320,-416 256,-416 256,-416" /><polygon points="192,64 192,32 192,32 192,64" /><polygon points="512,32 512,32 512,32 512,32 288,32 288,32 288,32 288,32" /><polygon points="416,-288 512,-256 512,-256 320,-320 320,-320 320,-320" /><polygon points="288,-32 288,32 288,32 288,0 288,-16 288,-48 288,-64 288,-64" /><polygon points="512,0 512,-64 512,-192 512,-192 512,-160 512,-144 512,-112 512,-96 512,-64 512,-48 512,-16 512,0 512,32 512,32" /><polygon points="208,-32 192,-32 192,-32 208,-32" /><polygon points="512,224 512,160 512,160 512,192 512,224" /><polygon points="-64,-320 -64,-192 -64,-192 -64,-208 -64,-320" /><polygon points="128,-192 128,-192 192,-64 192,-64 192,-64" /><polygon points="160,148 -64,176 -64,176 -32,172 160,148" /><polygon points="192,64 192,64 192,64 160,74 160,74" /><polygon points="-208,-96 -192,-96 -192,-96 -208,-96" /><polygon points="512,384 512,384 480,416 448,448 416,480 416,480" /><polygon points="-208,336 -192,336 -192,336 -208,336" /><polygon points="-80,480 -80,384 -80,384 -80,416 -80,448 -80,500 -80,500" /><polygon points="-64,480 80,480 80,480 -64,480" /><polygon points="160,480 80,480 -64,480 -64,480 -64,480 160,480" /><polygon points="384,480 304,480 160,480 160,480 224,480 384,480" /><polygon points="416,-288 416,-192 416,-192 416,-224 416,-288" /><polygon points="512,-256 416,-288 416,-288 512,-256" /><polygon points="544,-64 544,-64 544,0 544,0" /><polygon points="544,-224 544,-256 544,-256 544,-64 544,-64" /><polygon points="416,-192 512,-192 512,-192 512,-192 416,-192" /><polygon points="512,0 512,32 512,160 512,224 512,160 512,64 512,0" /><polygon points="416,480 416,480 512,384 512,384" /><polygon points="-192,-192 -64,-192 -64,-192 -192,-192" /><polygon points="320,-192 320,-192 288,-192 288,-192" /><polygon points="64,-320 64,-192 64,-192 64,-224 64,-320" /><polygon points="320,-416 320,-416 320,-400 320,-400" /><polygon points="320,-336 320,-336 320,-320 320,-320" /><polygon points="320,-192 320,-320 320,-320 320,-320 320,-224 320,-192" /><polygon points="304,-400 304,-400 304,-336 304,-336" /><polygon points="320,-400 320,-400 304,-400 304,-400" /><polygon points="256,-416 160,-320 160,-320 256,-416" /><polygon points="-64,-320 -64,-352 -64,-352 -64,-224 -64,-192 -64,-192 -64,-192" /><polygon points="-64,-352 -256,-352 -256,-352 -192,-352 -64,-352" /><polygon points="-256,-272 -240,-272 -240,-272 -256,-272" /><polygon points="-192,140 -192,108 -192,-96 -192,-96 -192,-34.2857 -192,144" /><polygon points="192,-64 192,-32 192,-32 192,-32 192,-64" /><polygon points="192,144 192,144 192,64 192,64 192,64" /><polygon points="288,-64 192,-64 192,-64 192,-64 256,-64 288,-64" /><polygon points="288,-32 288,-64 288,-64 288,-32" /><polygon points="288,96 288,32 288,-32 288,-32 288,144 288,144" /><polygon points="192,32 192,32 208,32 208,32" /><polygon points="208,32 208,32 208,-32 208,-32" /><polygon points="-240,64 -240,64 -240,32 -240,-160 -240,-160" /><polygon points="-192,-160 -192,-160 -208,-160 -208,-160" /><polygon points="-208,-160 -208,-160 -208,-96 -208,-96" /><polygon points="-64,480 -64,384 -64,256 -64,256 -64,448 -64,480" /><polygon points="-64,256 -64,224 -64,224 -64,256" /><polygon points="-288,256 -352,256 -416,256 -512,256 -512,256 -480,256 -288,256" /><polygon points="672,544 672,528 688,528 688,544" /><polygon points="144,608 80,608 -32,608 -80,608 -80,528 144,528" /><polygon points="368,608 352,608 160,608 144,608 144,528 368,528" /><polygon points="416,528 416,608 368,608 368,528" /><polygon points="512,528 512,576 464,528" /><polygon points="544,608 512,608 512,576 512,528 672,528 672,544 672,608" /><polygon points="480,608 416,608 416,528 464,528 512,576 512,608" /><polygon points="-80,528 -80,608 -192,608 -192,528" /><polygon points="-528,-64 -512,-64 -512,-64 -528,-64" /><polygon points="-512,-64 -528,-64 -528,-64 -512,-64" /><polygon points="-528,-256 -512,-256 -512,-256 -528,-256" /><polygon points="-512,-384 -512,-384 -528,-384 -528,-384" /><polygon points="-528,-320 -528,-320 -528,-384 -528,-384 -528,-384 -528,-320" /><polygon points="-528,-192 -512,-192 -512,-192 -528,-192" /><polygon points="-512,-192 -528,-192 -528,-192 -512,-192" /><polygon points="-528,-192 -528,-192 -528,-256 -528,-256 -528,-256 -528,-192" /><polygon points="-528,-128 -512,-128 -512,-128 -528,-128" /><polygon points="-528,-64 -528,-64 -528,-128 -528,-128 -528,-128 -528,-64" /><polygon points="-528,0 -512,0 -512,0 -528,0" /><polygon points="-528,64 -512,64 -512,64 -528,64" /><polygon points="192,640 320,640 320,736 192,736" /><polygon points="160,608 352,608 320,640 192,640" /><polygon points="632,-532 632,-620 712,-620 712,-532" /><polygon points="632,-620 632,-620 712,-620 712,-620" /><polygon points="712,-532 712,-532 632,-532 632,-532" /><polygon points="712,-620 712,-620 712,-532 712,-532" /><polygon points="632,-532 632,-532 632,-620 632,-620" /><polygon points="672,-236 672,-236 672,-236 672,-236 672,-236 672,-236 672,-236 672,-236 672,-236 672,-160 672,-160 672,-236" /><polygon points="672,-236 672,-236 672,-268 672,-268" /><polygon points="-192,108 -192,108 -192,140 -192,140" /><polygon points="288,-16 288,-16 288,-48 288,-48" /><polygon points="288,0 288,32 288,32 288,0" /><polygon points="288,-64 288,-64 296,-96 296,-96 296,-96 288,-64" /><polygon points="300,-112 308,-144 312,-160 320,-192 320,-192 296,-96 296,-96" /><polygon points="308,-144 300,-112 300,-112 308,-144" /><polygon points="512,-192 512,-192 512,-160 512,-160" /><polygon points="512,-64 512,-64 288,-64 288,-64" /><polygon points="512,-160 512,-160 312,-160 312,-160" /><polygon points="512,-144 512,-160 312,-160 308,-144" /><polygon points="512,-112 512,-112 300,-112 300,-112" /><polygon points="512,-96 512,-112 300,-112 296,-96" /><polygon points="512,-16 512,-16 288,-16 288,-16" /><polygon points="512,-48 512,-64 288,-64 288,-48" /><polygon points="512,0 512,-16 288,-16 288,0" /><polygon points="672,-236 672,-236 672,-268 672,-268" /><polygon points="-192,108 -192,108 -192,140 -192,140" /><polygon points="80,608 80,608 144,608 160,608 160,608 80,608" /><polygon points="480,608 480,608 512,608 544,608 544,608" /><polygon points="-208,528 -192,528 -192,528 -208,528" /><polygon points="-256,528 -256,528 -256,464 -256,464" /><polygon points="672,32 672,32 672,0 672,-32 672,-32" /><polygon points="672,416 672,416 672,384 672,352 672,352" /><polygon points="688,-32 672,-32 672,-32 688,-32" /><polygon points="672,32 672,-32 688,-32 688,32" /><polygon points="688,352 672,352 672,352 688,352" /><polygon points="672,416 672,352 688,352 688,416" /><polygon points="288,-48 288,-16 288,0 288,32 288,32 288,-64 288,-64" /><polygon points="320,-192 320,-192 312,-160 312,-160" /><polygon points="512,0 512,-16 512,-48 512,-64 512,-96 512,-112 512,-144 512,-160 512,-192 512,-192 512,-64 512,32 512,32" /><polygon points="512,-144 512,-112 512,-112 512,-144" /><polygon points="512,-96 512,-64 512,-64 512,-96" /><polygon points="512,-48 512,-16 512,-16 512,-48" /><polygon points="512,0 512,32 512,32 512,0" /><polygon points="512,-144 512,-144 308,-144 308,-144" /><polygon points="512,-160 512,-144 308,-144 312,-160" /><polygon points="512,-112 512,-96 296,-96 300,-112" /><polygon points="512,-96 512,-96 296,-96 296,-96" /><polygon points="512,-16 512,0 288,0 288,-16" /><polygon points="512,-64 512,-48 288,-48 288,-64" /><polygon points="512,-48 512,-48 288,-48 288,-48" /><polygon points="512,0 512,0 288,0 288,0" /><polygon points="288,144 288,144 288,144 288,96 288,96 288,144" /><polygon points="256,148 256,144 192,144 192,148" /><polygon points="256,144 288,144 288,144 192,144 192,144" /><polygon points="192,144 192,144 160,148 160,148" /><polygon points="192,148 192,144 160,148 -32,172 -32,176" /><polygon points="-240,-272 -240,-272 -256,-272 -256,-272" /><polygon points="-240,64 -256,64 -256,64 -240,64" /><polygon points="-240,64 -224,64 -224,64 -240,64" /><polygon points="-224,64 -224,-48 -224,-96 -224,-96 -224,-96 -224,-48 -224,64" /><polygon points="-240,-160 -240,-272 -224,-272 -224,-192 -224,-160 -224,-96 -224,-48 -240,-48" /><polygon points="-224,-48 -224,64 -240,64 -240,-48" /><polygon points="-240,-160 -240,-48 -240,64 -240,64 -240,-48 -240,-160" /><polygon points="-240,-160 -240,-272 -256,-272 -256,-160 -256,-48 -240,-48" /><polygon points="-240,-160 -240,-48 -240,64 -240,64 -240,-160" /><polygon points="-240,-272 -240,-160 -240,-160 -240,-192 -240,-272" /><polygon points="-224,464 -256,464 -256,464 -224,464" /><polygon points="-192,464 -192,464 -192,480 -192,528 -192,528" /><polygon points="-208,464 -192,464 -192,528 -208,528" /><polygon points="-256,528 -256,464 -224,464 -224,528" /><polygon points="-416,256 -416,256 -352,256 -352,256" /><polygon points="-416,272 -416,256 -352,256 -352,272" /><polygon points="-352,272 -352,256 -352,256 -352,272" /><polygon points="-528,64 -512,64 -512,0 -528,0" /><polygon points="-512,0 -512,0 -528,0 -528,0" /><polygon points="544,624 544,608 544,608 544,624" /><polygon points="480,624 480,608 544,608 544,624" /><polygon points="32,624 32,608 32,608 32,624" /><polygon points="296,736 216,736 192,736 192,736 320,736 320,736" /><polygon points="296,736 320,736 320,736 296,736" /><polygon points="296,736 288,728 224,728 216,736" /><polygon points="-32,624 -32,608 32,608 32,624" /><polygon points="672,-236 672,-236 672,-268 672,-268" /><polygon points="-192,108 -192,108 -192,140 -192,140" /><polygon points="-256,-272 -256,-272 -256,-202.6667 -256,-160 -256,-160" /><polygon points="-256,-48 -256,64 -240,64 -240,-48" /><polygon points="672,-236 672,-236 672,-268 672,-268" /><polygon points="-192,108 -192,108 -192,140 -192,140" /><polygon points="-512,-160 -512,-128 -512,-64 -512,0 -512,64 -512,64 -512,-128 -512,-160" /><polygon points="-512,-320 -512,-320 -512,-256 -512,-256" /><polygon points="-512,-160 -512,-192 -512,-192 -512,-128 -512,-128" /><polygon points="-512,-64 -512,-64 -512,0 -512,0 -512,0" /><polygon points="-512,0 -512,0 -512,64 -512,64" /><polygon points="-352,-576 -512,-576 -512,-576 -512,-576 -480,-576 -352,-576" /><polygon points="416,-576 544,-576 576,-576 576,-576 544,-576 416,-576 384,-576 384,-576" /><polygon points="576,-576 576,-576 672,-480 672,-480 628.5714,-523.4286 576,-576" /><polygon points="416,-576 384,-576 192,-576 256,-416 320,-416 416,-484.5714" /><polygon points="544,-576 416,-576 416,-484.5714" /><polygon points="256,-416 256,-416 160,-320 160,-320 256,-416" /><polygon points="-256,-352 -256,-352 -64,-352 -64,-352" /><polygon points="-32,-576 -64,-576 -256,-576 -256,-352 -64,-352 -32,-464" /><polygon points="0,-576 -32,-576 -32,-464" /><polygon points="-64,-352 -64,-352 -64,-320 -64,-320" /><polygon points="-64,-320 -64,-208 64,-240 64,-320" /><polygon points="64,-240 64,-192 64,-192 64,-320 64,-320" /><polygon points="-256,-576 -288,-576 -352,-576 -256,-352" /><polygon points="-512,-256 -512,-256 -528,-256 -528,-256" /><polygon points="-512,-320 -512,-320 -528,-320 -528,-320 -512,-320" /><polygon points="-528,-192 -512,-192 -512,-256 -528,-256" /><polygon points="-528,-64 -512,-64 -512,-128 -528,-128" /><polygon points="-512,-128 -512,-128 -528,-128 -528,-128" /><polygon points="672,-236 672,-236 672,-268 672,-268" /><polygon points="-192,108 -192,108 -192,140 -192,140" /><polygon points="672,-236 672,-236 672,-268 672,-268" /><polygon points="-192,108 -192,108 -192,140 -192,140" /><polygon points="-512,-544 -512,-384 -512,-320 -512,-320 -512,-352 -512,-544" /><polygon points="-512,-384 -512,-544 -512,-576 -512,-576 -512,-576 -512,-384" /><polygon points="-256,528 -256,528 -224,528 -224,528" /><polygon points="688,32 688,32 688,-32 688,-32" /><polygon points="688,416 688,416 688,352 688,352" /><polygon points="672,32 672,32 688,32 688,32" /><polygon points="672,-32 672,32 688,32 688,-32" /><polygon points="672,416 672,416 688,416 688,416" /><polygon points="672,352 672,416 688,416 688,352" /><polygon points="304,-400 320,-400 320,-400 304,-400" /><polygon points="320,-400 320,-400 320,-416 320,-416 320,-416 320,-400" /><polygon points="304,-336 320,-336 320,-400 304,-400" /><polygon points="320,-336 320,-320 320,-320 320,-400 320,-400" /><polygon points="320,-336 304,-336 304,-336 320,-336" /><polygon points="304,-336 304,-400 304,-400 304,-336" /><polygon points="320,-320 320,-336 320,-336 320,-320" /><polygon points="192,-32 192,-32 192,-64 192,-64" /><polygon points="192,32 192,32 208,32 208,32" /><polygon points="192,-32 192,32 208,32 208,-32" /><polygon points="208,-32 208,32 208,32 208,-32" /><polygon points="256,144 256,148 192,148 192,144" /><polygon points="256,144 256,144 256,148 256,148" /><polygon points="288,144 288,144 256,144 256,144" /><polygon points="256,148 256,148 192,148 192,148" /><polygon points="192,148 192,148 -32,176 -32,176" /><polygon points="-32,176 -32,176 -32,172 -32,172" /><polygon points="192,144 192,148 -32,176 -32,172" /><polygon points="-192,-160 -192,-192 -192,-192 -192,-160" /><polygon points="-192,-192 -192,-192 -128,-192 -64,-192 -64,-192 -64,-192 -192,-192" /><polygon points="-224,-96 -224,-96 -224,-160 -224,-160" /><polygon points="-224,-160 -224,-160 -224,-192 -224,-192" /><polygon points="-224,-160 -224,-192 -224,-192 -224,-96 -224,-96" /><polygon points="-208,-96 -192,-96 -192,-160 -208,-160" /><polygon points="-208,-160 -192,-160 -192,-160 -208,-160" /><polygon points="-208,-96 -208,-160 -208,-160 -208,-96" /><polygon points="-192,464 -192,464 -208,464 -208,464" /><polygon points="-224,528 -224,528 -224,464 -224,464" /><polygon points="-208,528 -192,528 -192,464 -208,464" /><polygon points="-208,464 -208,464 -208,528 -208,528" /><polygon points="-256,464 -256,528 -224,528 -224,464" /><polygon points="-416,256 -416,272 -352,272 -352,256" /><polygon points="-416,256 -416,256 -416,272 -416,272" /><polygon points="-416,272 -416,272 -352,272 -352,272" /><polygon points="-528,-320 -512,-320 -512,-384 -528,-384" /><polygon points="-528,-384 -512,-384 -512,-384 -528,-384" /><polygon points="480,608 480,608 480,624 480,624" /><polygon points="480,608 480,624 544,624 544,608" /><polygon points="480,624 480,624 544,624 544,624" /><polygon points="192,736 192,736 216,736 216,736" /><polygon points="320,736 320,736 320,736 320,640 320,640 320,736" /><polygon points="216,736 224,728 288,728 296,736" /><polygon points="224,728 224,728 288,728 288,728" /><polygon points="288,728 288,728 296,736 296,736" /><polygon points="216,736 216,736 224,728 224,728" /><polygon points="-32,608 -32,608 -32,624 -32,624" /><polygon points="-32,608 -32,624 32,624 32,608" /><polygon points="-32,624 -32,624 32,624 32,624" /><polygon points="672,-236 672,-236 672,-268 672,-268" /><polygon points="-192,108 -192,108 -192,140 -192,140" /><polygon points="672,-236 672,-236 672,-268 672,-268" /><polygon points="-192,108 -192,108 -192,140 -192,140" /><polygon points="512,32 512,32 288,32 288,32" /><polygon points="288,32 288,32 288,-64 288,-64" /><polygon points="320,-192 320,-192 312,-160 308,-144 300,-112 296,-96 288,-64 288,-64" /><polygon points="512,-64 512,-192 512,-192 512,32 512,32" /><polygon points="512,-192 512,-192 512,-192 512,-192 416,-192 320,-192 320,-192 320,-192 320,-192" /><polygon points="80,608 32,608 32,608 32,608 80,608" /><polygon points="-32,608 -32,608 32,608 32,608" /><polygon points="352,608 352,608 368,608 416,608 480,608 480,608 480,608 480,608" /><polygon points="656,608 544,608 544,608 544,608 544,608 672,608 672,608" /><polygon points="480,608 480,608 544,608 544,608" /><polygon points="-512,-576 -512,-576 -512,-544 -512,-544" /><polygon points="-512,-320 -512,-320 -512,-320 -512,-256 -512,-192 -512,-160 -512,-160" /><polygon points="-512,96 -512,64 -512,64 -512,64 -512,64 -512,224 -512,256 -512,256" /><polygon points="-256,192 -288,192 -288,256 -256,256" /><polygon points="-80,500 -80,448 -192,448 -192,464 -192,528 -192,608 -80,608" /><polygon points="80,500 -80,500 -80,608 -32,608 32,608 80,608" /><polygon points="-64,448 32,448 32,384 -64,384" /><polygon points="32,448 -64,448 -64,480 80,480 80,448" /><polygon points="-256,336 -224,336 -224,272 -256,272" /><polygon points="-208,336 -192,336 -192,272 -208,272" /><polygon points="-80,384 -80,224 -80,192 -192,192 -192,272 -192,336 -192,416 -80,416" /><polygon points="-192,416 -192,448 -80,448 -80,416" /><polygon points="-80,192 -80,144 -80,64 -128,64 -192,64 -192,108 -192,140 -192,192" /><polygon points="32,352 32,288 32,224 -64,224 -80,224 -80,384 -64,384 32,384" /><polygon points="-64,224 32,224 32,192 -64,192" /><polygon points="160,608 320,608 320,480 320,448 160,448 80,448 80,480 80,500 80,608" /><polygon points="448,448 480,416 368,416 352,416 352,448" /><polygon points="320,480 416,480 448,448 352,448 320,448" /><polygon points="352,608 480,608 544,608 416,480 320,480 320,608" /><polygon points="544,608 656,608 656,448 480,448 432,496" /><polygon points="656,608 672,608 672,544 672,480 672,448 656,448" /><polygon points="688,528 688,480 672,480 672,544 688,544" /><polygon points="32,192 128,192 128,152 -32,172 -64,176 -64,192" /><polygon points="128,84 128,64 96,64 -80,64 -80,144 -64,144" /><polygon points="368,224 368,192 352,192 352,416 368,416" /><polygon points="288,192 288,144 192,144 128,152 128,192" /><polygon points="352,192 368,192 512,192 512,160 288,96 288,144 288,192" /><polygon points="368,224 512,224 512,192 368,192" /><polygon points="672,416 672,352 672,256 528,400 480,448 656,448 672,448" /><polygon points="592,224 544,224 512,224 368,224 368,416 480,416 512,384 592,304" /><polygon points="672,224 592,224 592,304" /><polygon points="672,256 672,224 592,304 512,384 528,400" /><polygon points="592,224 672,224 688,224 688,192 672,192 544,192 544,224" /><polygon points="672,192 688,192 688,160 672,160" /><polygon points="-288,192 -288,32 -480,48 -480,96 -480,256 -416,256 -352,256 -288,256" /><polygon points="-128,-160 -128,-192 -192,-192 -192,-96 -192,32 -128,32" /><polygon points="-192,32 -192,64 -128,64 -128,32" /><polygon points="-224,-96 -224,-192 -224,-272 -240,-272 -240,-160 -240,-48 -224,-48" /><polygon points="-240,-48 -240,64 -224,64 -224,-48" /><polygon points="-64,-192 64,-192 64,-240 -64,-208" /><polygon points="-256,-272 -256,-352 -288,-426.6667 -288,-352 -288,-288 -288,-202.6667 -256,-202.6667" /><polygon points="-288,-202.6667 -288,-192 -288,21.3333 -256,21.3333 -256,-160 -256,-202.6667" /><polygon points="-288,21.3333 -288,32 -288,192 -256,192 -256,64 -256,21.3333" /><polygon points="-288,-426.6667 -352,-576 -480,-576 -480,-352 -288,-352" /><polygon points="-480,-352 -480,-272 -288,-288 -288,-352" /><polygon points="-480,-576 -512,-576 -512,-544 -512,-352 -480,-352" /><polygon points="-512,-352 -512,-320 -512,-160 -512,-128 -480,-128 -480,-176 -480,-272 -480,-352" /><polygon points="-512,-128 -512,64 -512,96 -480,96 -480,48 -480,-128" /><polygon points="-512,96 -512,256 -480,256 -480,96" /><polygon points="96,-192 64,-192 -64,-192 -128,-192 -128,-160 96,-160" /><polygon points="128,-160 128,-192 96,-192 96,-160" /><polygon points="128,-192 128,-160 128,32 192,32 192,-64" /><polygon points="128,32 128,64 128,84 160,74 192,64 192,32" /><polygon points="512,32 512,-192 320,-192 288,-64 288,32" /><polygon points="512,-256 320,-256 320,-320" /><polygon points="672,-96 672,-160 672,-236 672,-256 544,-256 544,-224 544,-32 672,-32" /><polygon points="544,-32 544,0 544,192 672,192 672,160 672,32 672,-32" /><polygon points="688,-160 672,-160 672,-96 688,-96" /><polygon points="256,-416 192,-576 224,-576 256,-576" /><polygon points="544,-576 320,-416 320,-480 320,-576" /><polygon points="672,-480 576,-576 672,-576" /><polygon points="128,64 128,64 96,64 96,64" /><polygon points="672,-576 672,-576 672,-576 672,-576 672,-480 672,-480" /><polygon points="320,-480 320,-416 320,-400 320,-320 320,-256 320,-256 320,-256 320,-256 320,-480" /><polygon points="672,-256 672,-256 592,-256 560,-256 544,-256 544,-256" /><polygon points="544,-576 320,-576 320,-576 400,-576 432,-576 496,-576 528,-576 544,-576" /><polygon points="64,-320 160,-320 160,-320 128,-320 96,-320 64,-320 32,-320 0,-320 -64,-320 -64,-320" /><polygon points="224,-576 192,-576 0,-576 0,-576 32,-576 64,-576 96,-576 128,-576 160,-576 192,-576 224,-576" /><polygon points="128,32 128,-160 128,-160 128,-80 128,64 128,64" /><polygon points="96,-160 -128,-160 -128,-160 16,-160 96,-160" /><polygon points="-288,-202.6667 -288,-288 -288,-288 -288,-240 -288,-208 -288,-192 -288,-192" /><polygon points="-480,-176 -480,-128 -480,48 -480,48 -480,0 -480,-32 -480,-64 -480,-96 -480,-128 -480,-160 -480,-176" /><polygon points="80,448 160,448 160,448 160,448 160,448 32,448 32,448" /><polygon points="320,448 352,448 352,448 224,448 160,448 160,448" /><polygon points="352,192 352,192 352,288 352,352 352,416 352,416" /><polygon points="32,192 32,224 32,288 32,288 32,288 32,192" /><polygon points="32,288 32,352 32,352 32,288" /><polygon points="192,-576 192,-576 160,-576 0,-576 0,-576" /><polygon points="576,-576 576,-576 544,-576 544,-576" /><polygon points="-256,-160 -256,21.3333 -256,64 -256,64 -256,-48 -256,-160" /><polygon points="688,192 688,224 688,224 688,160 688,160" /><polygon points="672,-268 672,-256 672,-236 672,-236 672,-268" /><polygon points="672,32 672,32 672,-32 672,-32" /><polygon points="672,-96 672,-32 672,-32 672,-32 672,-32 672,-64 672,-96" /><polygon points="672,256 672,352 672,352 672,352 672,352 672,224 672,224" /><polygon points="672,416 672,416 672,352 672,352" /><polygon points="672,448 672,480 672,480 672,416 672,416 672,416 672,416" /><polygon points="672,-160 688,-160 688,-160 672,-160" /><polygon points="688,-96 672,-96 672,-96 688,-96" /><polygon points="672,224 672,224 688,224 688,224" /><polygon points="-192,272 -192,272 -208,272 -208,272" /><polygon points="544,-256 544,-256 544,-224 544,-224" /><polygon points="-64,-320 -64,-320 64,-320 64,-320" /><polygon points="256,-416 256,-416 192,-576 192,-576" /><polygon points="544,-576 544,-576 416,-484.5714 320,-416 320,-416" /><polygon points="0,-576 0,-576 -32,-464 -64,-352 -64,-352" /><polygon points="-64,-352 -64,-352 -64,-320 -64,-320" /><polygon points="192,32 192,64 192,64 192,32 192,-32 192,-64 192,-64" /><polygon points="544,-256 512,-256 512,-256 544,-256" /><polygon points="320,-192 320,-192 288,-64 288,-64" /><polygon points="512,-192 512,-192 320,-192 320,-192" /><polygon points="544,224 544,224 512,224 512,224" /><polygon points="512,160 512,160 288,96 288,96" /><polygon points="288,144 288,144 256,144 192,144 192,144" /><polygon points="-64,192 -64,176 -64,176 -64,176 -64,224 -64,224" /><polygon points="-64,-192 -64,-208 -64,-208 -64,-192" /><polygon points="96,-192 128,-192 128,-192 64,-192 64,-192 64,-192" /><polygon points="64,-240 64,-192 64,-192 64,-240" /><polygon points="-64,-208 64,-240 64,-240 -64,-208" /><polygon points="-64,176 -32,172 -32,172 -32,172 -64,176" /><polygon points="128,152 192,144 192,144 -32,172 -32,172" /><polygon points="160,74 128,84 -64,144 -64,144 160,74" /><polygon points="-240,-272 -224,-272 -224,-272 -240,-272" /><polygon points="-192,-192 -192,-192 -192,-160 -192,-96 -192,-96" /><polygon points="-192,64 -192,32 -192,-96 -192,-96 -192,-96 -192,108 -192,108 -192,108 -192,108 -192,108 -192,108 -192,108 -192,108 -192,108 -192,108" /><polygon points="-192,108 -192,108 -192,140 -192,140" /><polygon points="-192,192 -192,140 -192,140 -192,140 -192,140 -192,140 -192,140 -192,140 -192,140 -192,140 -192,140 -192,144 -192,272 -192,272" /><polygon points="-64,144 -80,144 -80,144 -64,144" /><polygon points="-64,224 -64,224 -80,224 -80,224" /><polygon points="-80,192 -80,224 -80,224 -80,144 -80,144" /><polygon points="-224,-272 -224,-192 -224,-192 -224,-192 -224,-272" /><polygon points="-240,-272 -240,-272 -240,-160 -240,-160" /><polygon points="80,480 80,480 80,500 80,500" /><polygon points="512,384 512,384 528,400 528,400" /><polygon points="432,496 432,496 416,480 416,480" /><polygon points="480,448 528,400 528,400 512,416 432,496 432,496" /><polygon points="-256,336 -256,336 -224,336 -224,336" /><polygon points="-208,272 -208,272 -208,336 -208,336" /><polygon points="-224,336 -224,336 -224,272 -224,272" /><polygon points="-80,384 -80,384 -64,384 -64,384" /><polygon points="-64,448 -64,384 -64,384 -64,480 -64,480" /><polygon points="80,500 80,500 -80,500 -80,500" /><polygon points="-192,448 -192,416 -192,336 -192,336 -192,368 -192,464 -192,464 -192,464 -192,464" /><polygon points="-192,464 -192,464 -192,528 -192,528" /><polygon points="-288,-426.6667 -256,-352 -256,-352 -352,-576 -352,-576" /><polygon points="-416,256 -416,256 -352,256 -352,256" /><polygon points="-480,256 -512,256 -512,256 -416,256 -416,256 -416,256 -416,256" /><polygon points="-288,256 -352,256 -352,256 -352,256 -352,256 -288,256 -256,256 -256,256" /><polygon points="672,608 672,608 672,544 672,544" /><polygon points="672,544 672,544 688,544 688,544" /><polygon points="688,544 688,544 688,528 688,528" /><polygon points="-192,528 -192,528 -192,528 -192,528 -192,608 -192,608" /><polygon points="192,736 192,736 216,736 296,736 320,736 320,736" /><polygon points="192,736 320,736 320,640 192,640" /><polygon points="320,640 352,608 320,608 160,608 192,640" /><polygon points="192,640 192,640 192,736 192,736 192,736 192,736" /><polygon points="320,640 320,640 352,608 352,608" /><polygon points="160,608 160,608 192,640 192,640" /><polygon points="0,-144 -96,-48 0,48 96,-48" /><polygon points="0,-144 0,-144 -96,-48 -96,-48" /><polygon points="352,448 352,448 224,448 224,448" /><polygon points="128,192 128,192 160,192 160,192" /><polygon points="160,192 224,192 352,192 352,192 288,192 128,192 128,192" /><polygon points="352,288 352,192 352,192 352,288" /><polygon points="352,416 352,352 352,352 352,416" /><polygon points="320,288 320,352 352,352 352,288" /><polygon points="32,288 32,352 64,352 64,288" /><polygon points="96,64 16,64 -128,64 -128,64 -80,64 96,64" /><polygon points="-128,-80 -128,-160 -128,-160 -128,32 -128,64 -128,64" /><polygon points="128,-160 128,-160 96,-160 96,-160" /><polygon points="0,48 -96,-48 -128,-80 -128,64 16,64" /><polygon points="0,-144 16,-160 -128,-160 -128,-80 -96,-48" /><polygon points="96,64 128,64 128,-80 96,-48 0,48 16,64" /><polygon points="96,-48 128,-80 128,-160 96,-160 16,-160 0,-144" /><polygon points="0,-144 0,-144 96,-48 96,-48" /><polygon points="0,48 0,48 -96,-48 -96,-48" /><polygon points="96,-48 96,-48 0,48 0,48" /><polygon points="-288,-288 -288,-288 -288,-240 -288,-240" /><polygon points="-288,-144 -288,-144 -288,-112 -288,-112" /><polygon points="-288,-192 -288,-176 -288,-144 -288,-112 -288,-80 -288,-48 -288,-16 -288,32 -288,32 -288,21.3333 -288,-192" /><polygon points="-480,48 -480,48 -480,0 -480,0" /><polygon points="-480,-192 -480,-224 -480,-272 -480,-272 -480,-176 -480,-176" /><polygon points="-480,-272 -480,-272 -480,-272 -288,-288 -288,-288 -288,-288 -288,-288 -480,-272" /><polygon points="-480,-224 -480,-192 -288,-208 -288,-240" /><polygon points="-480,-160 -480,-128 -288,-144 -288,-176" /><polygon points="-480,-96 -480,-64 -288,-80 -288,-112" /><polygon points="-288,32 -288,32 -288,32 -480,48 -480,48 -480,48 -480,48 -288,32" /><polygon points="-480,-32 -480,0 -288,-16 -288,-48" /><polygon points="464,-256 464,-256 400,-256 400,-256" /><polygon points="672,-256 672,-256 592,-256 592,-256" /><polygon points="544,-256 496,-256 464,-256 400,-256 368,-256 320,-256 320,-256 512,-256 544,-256" /><polygon points="544,-256 560,-256 560,-256 544,-256 496,-256 496,-256" /><polygon points="320,-576 320,-576 400,-576 400,-576" /><polygon points="592,-576 624,-576 672,-576 672,-576 576,-576 544,-576 544,-576" /><polygon points="518.4,-480 528,-576 496,-576 486.4,-480 473.6,-352 505.6,-352" /><polygon points="473.6,-352 464,-256 496,-256 505.6,-352" /><polygon points="614.4,-480 624,-576 592,-576 582.4,-480 569.6,-352 601.6,-352" /><polygon points="569.6,-352 560,-256 592,-256 601.6,-352" /><polygon points="422.4,-480 432,-576 400,-576 390.4,-480 377.6,-352 409.6,-352" /><polygon points="377.6,-352 368,-256 400,-256 409.6,-352" /><polygon points="422.4,-480 409.6,-352 400,-256 400,-256 409.6,-352 422.4,-480" /><polygon points="592,-576 592,-576 582.4,-480 582.4,-480" /><polygon points="614.4,-480 601.6,-352 592,-256 592,-256 601.6,-352 614.4,-480" /><polygon points="518.4,-480 505.6,-352 496,-256 496,-256 505.6,-352 518.4,-480" /><polygon points="496,-576 496,-576 486.4,-480 486.4,-480" /><polygon points="400,-576 400,-576 390.4,-480 390.4,-480" /><polygon points="96,-320 128,-320 128,-320 96,-320" /><polygon points="32,-320 64,-320 64,-320 32,-320" /><polygon points="-64,-320 0,-320 0,-320 -64,-320" /><polygon points="256,-576 256,-576 224,-576 224,-576" /><polygon points="224,-384 256,-416 256,-416 224,-384" /><polygon points="224,-384 192,-352 160,-320 160,-320 256,-416 256,-416" /><polygon points="96,-544 96,-352 96,-320 96,-320 96,-352 96,-544" /><polygon points="192,-576 192,-352 224,-384 224,-576" /><polygon points="160,-352 160,-544 160,-576 128,-576 128,-544 128,-352" /><polygon points="128,-320 160,-320 160,-352 128,-352" /><polygon points="160,-544 160,-352 160,-320 160,-320 160,-352 160,-544" /><polygon points="128,-576 128,-576 128,-544 128,-544" /><polygon points="32,-544 32,-352 32,-320 32,-320 32,-352 32,-544" /><polygon points="96,-352 96,-544 96,-576 64,-576 64,-544 64,-352" /><polygon points="64,-320 96,-320 96,-352 64,-352" /><polygon points="64,-576 64,-576 64,-544 64,-544" /><polygon points="32,-352 32,-544 32,-576 0,-576 0,-544 0,-352" /><polygon points="0,-320 32,-320 32,-352 0,-352" /><polygon points="0,-576 0,-576 0,-544 0,-544" /><polygon points="-288,-16 -288,32 -288,32 -288,-16" /><polygon points="-288,-80 -288,-48 -288,-48 -288,-80" /><polygon points="-288,-208 -288,-240 -288,-288 -288,-288 -288,-192 -288,-192" /><polygon points="-288,-208 -288,-192 -288,-176 -288,-176 -288,-192 -288,-208" /><polygon points="-480,-32 -480,-64 -480,-64 -480,-32" /><polygon points="-480,-96 -480,-128 -480,-128 -480,-96" /><polygon points="-480,-224 -480,-272 -480,-272 -480,-224" /><polygon points="-480,-176 -480,-160 -480,-128 -480,-96 -480,-64 -480,-32 -480,0 -480,48 -480,48 -480,-176" /><polygon points="-480,-160 -480,-176 -480,-192 -480,-192 -480,-176 -480,-160" /><polygon points="-480,-32 -480,-32 -288,-48 -288,-48" /><polygon points="-480,-128 -480,-160 -288,-176 -288,-144" /><polygon points="-480,-192 -480,-224 -288,-240 -288,-208" /><polygon points="-480,-64 -480,-96 -288,-112 -288,-80" /><polygon points="-480,-224 -480,-224 -288,-240 -288,-240" /><polygon points="-288,-80 -288,-80 -480,-64 -480,-64" /><polygon points="-288,-208 -288,-208 -480,-192 -480,-192" /><polygon points="-480,-96 -480,-96 -288,-112 -288,-112" /><polygon points="-480,-160 -480,-160 -288,-176 -288,-176" /><polygon points="-288,-144 -288,-144 -480,-128 -480,-128" /><polygon points="-480,0 -480,-32 -288,-48 -288,-16" /><polygon points="-288,-16 -288,-16 -480,0 -480,0" /><polygon points="224,448 352,448 352,448 240,448 160,448 160,448" /><polygon points="224,192 352,192 352,192 224,192" /><polygon points="352,352 352,288 352,192 352,192 352,416 352,416" /><polygon points="352,448 352,448 352,448 352,416 352,416 352,416 352,416 352,448" /><polygon points="320,288 320,288 352,288 352,288" /><polygon points="352,352 352,352 320,352 320,352" /><polygon points="320,352 320,288 352,288 352,352" /><polygon points="64,352 64,352 32,352 32,352" /><polygon points="80,288 80,288 64,288" /><polygon points="64,288 32,288 32,288 64,288 80,288 80,288" /><polygon points="32,352 32,288 64,288 64,352" /><polygon points="256,-416 256,-416 256,-416 256,-576 256,-576 256,-576 256,-576 256,-416" /><polygon points="368,-256 320,-256 320,-256 368,-256" /><polygon points="560,-256 592,-256 672,-256 672,-256 544,-256 544,-256" /><polygon points="544,-576 528,-576 496,-576 432,-576 400,-576 320,-576 320,-576 544,-576" /><polygon points="528,-576 544,-576 592,-576 592,-576 544,-576 528,-576" /><polygon points="624,-576 672,-576 672,-576 624,-576" /><polygon points="432,-576 496,-576 496,-576 432,-576" /><polygon points="486.4,-480 496,-576 528,-576 518.4,-480 505.6,-352 473.6,-352" /><polygon points="505.6,-352 496,-256 464,-256 473.6,-352" /><polygon points="582.4,-480 592,-576 624,-576 614.4,-480 601.6,-352 569.6,-352" /><polygon points="601.6,-352 592,-256 560,-256 569.6,-352" /><polygon points="432,-576 422.4,-480 409.6,-352 377.6,-352 390.4,-480 400,-576" /><polygon points="409.6,-352 400,-256 368,-256 377.6,-352" /><polygon points="432,-576 432,-576 422.4,-480 422.4,-480" /><polygon points="582.4,-480 569.6,-352 560,-256 560,-256 569.6,-352 582.4,-480" /><polygon points="624,-576 624,-576 614.4,-480 614.4,-480" /><polygon points="528,-576 528,-576 518.4,-480 518.4,-480" /><polygon points="486.4,-480 473.6,-352 464,-256 464,-256 473.6,-352 486.4,-480" /><polygon points="390.4,-480 377.6,-352 368,-256 368,-256 377.6,-352 390.4,-480" /><polygon points="0,-320 32,-320 64,-320 96,-320 128,-320 160,-320 160,-320 -64,-320 -64,-320" /><polygon points="32,-576 64,-576 64,-576 32,-576" /><polygon points="160,-576 192,-576 192,-576 160,-576" /><polygon points="224,-576 192,-576 160,-576 128,-576 96,-576 64,-576 32,-576 0,-576 0,-576 224,-576" /><polygon points="96,-576 128,-576 128,-576 96,-576" /><polygon points="224,-576 256,-576 256,-576 224,-576" /><polygon points="224,-384 256,-416 256,-416 192,-352 192,-352" /><polygon points="192,-352 192,-352 160,-320 160,-320 160,-320 192,-352" /><polygon points="96,-576 96,-576 96,-544 96,-544" /><polygon points="192,-352 192,-352 192,-576 192,-576" /><polygon points="224,-576 224,-576 224,-384 224,-384" /><polygon points="224,-576 224,-384 192,-352 192,-576" /><polygon points="160,-576 160,-576 160,-544 160,-544" /><polygon points="128,-544 128,-352 128,-320 128,-320 128,-352 128,-544" /><polygon points="128,-352 128,-544 128,-576 160,-576 160,-544 160,-352" /><polygon points="160,-320 128,-320 128,-352 160,-352" /><polygon points="32,-576 32,-576 32,-544 32,-544" /><polygon points="64,-544 64,-352 64,-320 64,-320 64,-352 64,-544" /><polygon points="64,-352 64,-544 64,-576 96,-576 96,-544 96,-352" /><polygon points="96,-320 64,-320 64,-352 96,-352" /><polygon points="0,-544 0,-352 0,-320 0,-320 0,-352 0,-544" /><polygon points="0,-352 0,-544 0,-576 32,-576 32,-544 32,-352" /><polygon points="32,-320 0,-320 0,-352 32,-352" /><polygon points="128,192 128,192 128,192 128,192 32,192 32,192 32,192" /><polygon points="352,192 352,192 224,192 160,192 128,192 128,192" /><polygon points="128,176 128,192 32,192 16,192 16,176" /><polygon points="352,192 128,192 128,176 368,176 368,192" /><polygon points="352,192 368,192 368,416 352,416" /><polygon points="368,416 368,448 352,448 352,416" /><polygon points="32,192 32,192 32,288 32,352 32,352" /><polygon points="32,448 32,416 32,352 32,352 32,352 32,352 32,384 32,448" /><polygon points="16,192 32,192 32,352 32,416 16,416" /><polygon points="32,416 32,448 16,448 16,416" /><polygon points="240,468 16,468 16,448 32,448 160,448 240,448" /><polygon points="352,448 368,448 368,468 240,468 240,448" /><polygon points="80,288 160,288 160,352 64,352 64,288" /><polygon points="256,-416 256,-576 256,-576 256,-416" /><polygon points="672,-576 672,-576 672,-480 672,-480" /><polygon points="672,-480 672,-256 672,-256 672,-256 672,-256 672,-268 672,-480" /><polygon points="320,-576 320,-576 320,-576 320,-576 320,-480 320,-480" /><polygon points="320,-480 320,-256 320,-256 320,-480" /><polygon points="672,-256 672,-256 544,-256 544,-256" /><polygon points="544,-256 320,-256 320,-256 368,-256 400,-256 464,-256 496,-256 544,-256" /><polygon points="672,-576 672,-576 624,-576 592,-576 544,-576 544,-576" /><polygon points="544,-576 320,-576 320,-576 544,-576" /><polygon points="160,-320 160,-320 -64,-320 -64,-320" /><polygon points="-64,-352 -64,-352 -64,-320 -64,-320 -64,-320 -64,-320" /><polygon points="224,-576 0,-576 0,-576 224,-576" /><polygon points="256,-576 256,-576 224,-576 224,-576" /><polygon points="192,-352 256,-416 256,-416 160,-320 160,-320" /><polygon points="-64,-352 0,-576 0,-576 0,-576 0,-576 -64,-352" /><polygon points="-288,-192 -288,32 -288,32 -288,-16 -288,-48 -288,-80 -288,-112 -288,-144 -288,-176 -288,-192" /><polygon points="-288,-288 -288,-288 -288,-192 -288,-192" /><polygon points="-480,-272 -480,-272 -480,-224 -480,-192 -480,-176 -480,-176" /><polygon points="-480,-176 -480,48 -480,48 -480,-176" /><polygon points="672,-480 672,-256 672,-256 672,-480" /><polygon points="320,-576 320,-576 320,-480 320,-480" /><polygon points="544,-256 320,-256 320,-256 544,-256" /><polygon points="672,-576 672,-576 544,-576 544,-576" /><polygon points="-64,-352 -64,-352 -64,-320 -64,-320" /><polygon points="256,-576 256,-576 224,-576 224,-576" /><polygon points="0,-576 0,-576 -64,-352 -64,-352" /><polygon points="-288,-192 -288,32 -288,32 -288,-192" /><polygon points="-480,-272 -480,-272 -480,-176 -480,-176" /><polygon points="-480,48 -480,48 -288,32 -288,32" /><polygon points="-288,-288 -288,-288 -480,-272 -480,-272" /><polygon points="160,352 160,352 160,448 160,448" /><polygon points="224,288 224,288 224,192 224,192" /><polygon points="224,352 224,352 320,352 320,352" /><polygon points="224,288 224,352 320,352 320,288" /><polygon points="160,288 160,352 224,352 224,288" /><polygon points="160,288 224,288 224,192 160,192" /><polygon points="224,352 160,352 160,448 224,448" /><polygon points="160,288 160,288 80,288 80,288 80,288" /><polygon points="160,352 160,288 80,288 64,288 64,352" /><polygon points="160,288 160,288 160,192 160,192" /><polygon points="224,352 224,352 224,448 224,448" /><polygon points="224,288 224,288 320,288 320,288" /><polygon points="224,352 224,288 320,288 320,352" /><polygon points="160,352 160,288 224,288 224,352" /><polygon points="160,352 224,352 224,448 160,448" /><polygon points="224,288 160,288 160,192 224,192" /><polygon points="160,352 160,352 64,352 64,352" /></g></defs><rect fill="#fff" height="1628.0" id="background" width="1516.0" x="-654.0" y="-766.0" /><use fill="none" stroke="black" stroke-miterlimit="0" stroke-width="15" xlink:href="#bsp_ref" /><use fill="white" stroke="black" stroke-width="1" xlink:href="#bsp_ref" /></svg>