<svg viewBox="-752 -752 1504 1504" xmlns="http://www.w3.org/2000/svg" xmlns:xlink="http://www.w3.org/1999/xlink"><defs><g id="a"><path d="m-752-528v-64-160h224v224z"/><path d="m-752-304v-64-160h224v224z"/><path d="m-752-80v-64-160h224v224z"/><path d="m-752 144v-64-160h224v224z"/><path d="m-752 368v-64-160h224v224z"/><path d="m-752 592v-64-160h224v224z"/><path d="m-528 752h-224v-160h224z"/><path d="m-528-528v-224h224v224z"/><path d="m-528-304v-224h224v224z"/><path d="m-528-80v-224h224v224z"/><path d="m-528 144v-224h224v224z"/><path d="m-528 368v-224h224v224z"/><path d="m-528 592v-224h224v224z"/><path d="m-304 752h-224v-160h224z"/><path d="m-304-528v-224h224v224z"/><path d="m-304-304v-224h224v224z"/><path d="m-304-80v-224h224v224z"/><path d="m-304 144v-224h224v224z"/><path d="m-304 368v-224h224v224z"/><path d="m-304 592v-224h224v224z"/><path d="m-80 752h-224v-160h224z"/><path d="m-80-528v-224h224v224z"/><path d="m-80-304v-224h224v224z"/><path d="m-80-80v-224h224v224z"/><path d="m-80 144v-224h224v224z"/><path d="m-80 368v-224h224v224z"/><path d="m-80 592v-224h224v224z"/><path d="m144 752h-224v-160h224z"/><path d="m144-528v-224h224v224z"/><path d="m144-304v-224h224v224z"/><path d="m144-80v-224h224v224z"/><path d="m144 144v-224h224v224z"/><path d="m144 368v-224h224v224z"/><path d="m144 592v-224h224v224z"/><path d="m368 752h-224v-160h224z"/><path d="m368-528v-224h224v224z"/><path d="m368-304v-224h224v224z"/><path d="m368-80v-224h224v224z"/><path d="m368 144v-224h224v224z"/><path d="m368 368v-224h224v224z"/><path d="m368 592v-224h224v224z"/><path d="m592 752h-224v-160h224z"/><path d="m752-752v160 64h-160v-224z"/><path d="m752-528v160 64h-160v-224z"/><path d="m752-304v160 64h-160v-224z"/><path d="m752-80v160 64h-160v-224z"/><path d="m752 144v160 64h-160v-224z"/><path d="m752 368v160 64h-160v-224z"/><path d="m752 592v160h-160v-160z"/><path d="m-78-192h156-22.4576-60.505z"/><path d="m78-192h-156 73.0374 60.505z"/><path d="m-192-78v156z"/><path d="m-192 78v-156z"/><path d="m-78 192h156z"/><path d="m78 192h-156z"/><path d="m192 78v-156 22.8442 22.1558z"/><path d="m192-78v156-111-22.1558z"/><path d="m192 78v-156l-114-114h-156l-114 114v156l114 114h156z"/><path d="m192-78v156l-114 114h-156l-114-114v-156l114-114h156z"/><path d="m-78-192-16 16-16 16-66 66-16 16z"/><path d="m192-78-114-114z"/><path d="m192 78-16 16-82 82-16 16z"/><path d="m-78 192-16-16-16-16-50-50-16-16-16-16z"/><path d="m-101.1754-147.1104-49.3822 49.2427z"/><path d="m-33.0256-176-37.7436 16h134.7692 10.4385l-39.7005-16z"/><path d="m34.738-176h-67.7636z"/><path d="m74.4385-160-39.7005-16z"/><path d="m160-70.7692v134.7692 10.4385l16-39.7005v-67.7636z"/><path d="m176 34.738v-67.7636z"/><path d="m160 74.4385 16-39.7005z"/><path d="m64-160h-134.7692l-30.4062 12.8896-49.3822 49.2427-9.4424 23.4292v138.4385h224z"/><path d="m-160 64v6.7692l12.9848 30.6309 49.3981 49.2585 23.1786 9.3414h138.4385v-96z"/><path d="m160 64v-134.7692l-12.1501-28.6618-51.6541-51.8004-21.7573-8.7686h-10.4385v224z"/><path d="m70.7692 160 29.91-12.6792 50.1656-50.1656 9.1552-22.7167v-10.4385h-96v96z"/><path d="m147.8499-99.431-51.6541-51.8004z"/><path d="m-70.7692-160-28.1742 11.9434-2.232.9462z"/><path d="m100.6792 147.3208 50.1656-50.1656z"/><path d="m-147.0152 101.4001 49.3981 49.2585z"/><path d="m-97.6171 150.6586 2.137.8613 21.0416 8.4801z"/><path d="m160-70.7692-12.1501-28.6618z"/><path d="m96.1958-151.2314-21.7573-8.7686z"/><path d="m-176 33.0256 16 37.7436v-6.7692-138.4385l-16 39.7005z"/><path d="m-176-34.738v67.7636z"/><path d="m-160-74.4385-16 39.7005z"/><path d="m70.7692 160h-6.7692-138.4385l39.7005 16h67.7636z"/><path d="m-34.738 176h67.7636z"/><path d="m-74.4385 160 39.7005 16z"/><path d="m-95.4801 151.5199-2.137-.8613-49.3981-49.2585-1.0414-2.4567z"/><path d="m137.8953 87.1047 22.1047-22.1047v.1841l-68.7338 68.9286-.6601.2812z"/><path d="m151.2314 96.1958-.3866.9594-50.1656 50.1656-1.2482.5291z"/><path d="m-145.8696 64-14.1304-33.3333v-62.7518l22.6845-55.9873 46.6066-46.4749 60.0422-25.4527h62.7518l31.9149 12.931v211.069z"/><path d="m64 76.931v68.7994l-33.4898 14.2696h-62.7669l-55.2621-22.2716-46.9376-46.8049-11.4132-26.9235h209.8696z"/><path d="m87.4203-137.5797 46.9736 46.9736 25.6061 60.0959v62.7669l-18.0045 44.6743h-77.9955v-12.931-211.069z"/><path d="m141.9955 76.931-4.1002 10.1737-47.2892 47.2892-26.6061 11.3365v-68.7994z"/><path d="m-151.5199-95.4801.9623-2.3876 49.3822-49.2427 2.232-.9462z"/><path d="m-148.0566 98.9434 52.5765 52.5765z"/><path d="m151.2314 96.1958-51.8004 51.6541z"/><path d="m-134.4564 90.9235 46.9376 46.8049z"/><path d="m-98.9434-148.0566 28.1742-11.9434z"/><path d="m99.431 147.8499-28.6618 12.1501z"/><path d="m-98.9434-148.0566-52.5765 52.5765z"/><path d="m147.8499-99.431 12.1501 28.6618z"/><path d="m91.2662 134.1127 68.7338-68.9286z"/><path d="m96.1958-151.2314 51.6541 51.8004z"/><path d="m-90.7089-134.5473-46.6066 46.4749z"/><path d="m134.3939-90.6061-46.9736-46.9736z"/><path d="m-148.0566 98.9434-11.9434-28.1742z"/><path d="m151.2314 96.1958 8.7686-21.7573-9.1552 22.7167z"/><path d="m-148.0566 98.9434 1.0414 2.4567-12.9848-30.6309z"/><path d="m99.431 147.8499 1.2482-.5291-29.91 12.6792z"/><path d="m-151.5199-95.4801-8.4801 21.0416 9.4424-23.4292z"/></g><g id="b"><path d="m-87 160h-23l16 16h59.262l-39.7005-16z"/><path d="m-94 176-16-16h23 12.5615l39.7005 16z"/><path d="m-176 94 16 16v-23-16.2308l-16-37.7436z"/><path d="m-160 87v23l-16-16v-60.9744l16 37.7436z"/><path d="m-110-160-66 66v23l24.4801-24.4801 52.5765-52.5765 11.9434-11.9434z"/><path d="m-176-94 66-66h23l-11.9434 11.9434-52.5765 52.5765-24.4801 24.4801z"/><path d="m-87 160h12.5615l-21.0416-8.4801z"/><path d="m-95.4801 151.5199 21.0416 8.4801h-12.5615z"/><path d="m71.2011 176 28.2299-28.1501-28.6618 12.1501-37.7436 16z"/><path d="m70.7692 160 28.6618-12.1501-28.2299 28.1501h-38.1755z"/><path d="m-160 70.7692v16.2308l11.9434 11.9434z"/><path d="m-148.0566 98.9434-11.9434-11.9434v-16.2308z"/><path d="m137.8953 87.1047-47.2892 47.2892.6601-.2812 68.7338-68.9286v-.1841z"/><path d="m137.8953 87.1047 22.1047-22.1047v.1841l-68.7338 68.9286-.6601.2812z"/><path d="m30.5102 160h-62.7669l-55.2621-22.2716-46.9376-46.8049-25.5436-60.2568v-62.7518l22.6845-55.9873 46.6066-46.4749 60.0422-25.4527h62.7518l55.3352 22.4203 46.9736 46.9736 25.6061 60.0959v62.7669l-22.1047 54.848-47.2892 47.2892z"/><path d="m90.6061 134.3939 47.2892-47.2892 22.1047-54.848v-62.7669l-25.6061-60.0959-46.9736-46.9736-55.3352-22.4203h-62.7518l-60.0422 25.4527-46.6066 46.4749-22.6845 55.9873v62.7518l25.5436 60.2568 46.9376 46.8049 55.2621 22.2716h62.7669z"/><path d="m-98.9434-148.0566 11.9434-11.9434h16.2308z"/><path d="m-70.7692-160h-16.2308l-11.9434 11.9434z"/><path d="m-160-74.4385-16 39.7005v-36.262l24.4801-24.4801z"/><path d="m-176-71v36.262l16-39.7005 8.4801-21.0416z"/><path d="m-176-71v36.262 67.7636 60.9744l-16-16v-156l16-16z"/><path d="m-192 78 16 16v-60.9744-67.7636-36.262-23l-16 16z"/><path d="m-110 160-50-50v-23l11.9434 11.9434 52.5765 52.5765 8.4801 8.4801z"/><path d="m-160 110 50 50h23l-8.4801-8.4801-52.5765-52.5765-11.9434-11.9434z"/><path d="m-34.738 176h67.7636 38.1755 22.7989l-16 16h-156l-16-16z"/><path d="m78 192 16-16h-22.7989-38.1755-67.7636-59.262l16 16z"/><path d="m-78-192-16 16h60.9744 67.7636l-39.7006-16z"/><path d="m-33.0256-176h-60.9744l16-16h73.0374l39.7006 16z"/><path d="m74.4385-160-39.7005-16-39.7006-16h60.505l40.6534 40.7686z"/><path d="m55.5424-192h-60.505l39.7006 16 39.7005 16 21.7573 8.7686z"/><path d="m-87-160h-23l16-16h60.9744l-37.7436 16z"/><path d="m-94-176-16 16h23 16.2308l37.7436-16z"/><path d="m96.1958-151.2314 51.6541 51.8004 44.1501 44.2752v-22.8442l-114-114h-22.4576z"/><path d="m192-78v22.8442l-44.1501-44.2752-51.6541-51.8004-40.6534-40.7686h22.4576z"/><path d="m176 94v-22.5028l-24.7686 24.6986-51.8004 51.6541-28.2299 28.1501h22.7989z"/><path d="m99.431 147.8499 51.8004-51.6541 24.7686-24.6986v22.5028l-82 82h-22.7989z"/><path d="m176-33.0256v67.7636 36.7592 22.5028l16-16v-111l-16-16z"/><path d="m192 78-16 16v-22.5028-36.7592-67.7636-15.9744l16 16z"/><path d="m176 71.4972v-36.7592l-16 39.7005-8.7686 21.7573z"/><path d="m160 74.4385 16-39.7005v36.7592l-24.7686 24.6986z"/><path d="m192-55.1558v22.1558l-16-16-11.7547-11.7547-4.2453-10.0145-12.1501-28.6618z"/><path d="m160-70.7692 4.2453 10.0145 11.7547 11.7547 16 16v-22.1558l-44.1501-44.2752z"/><path d="m176-49v15.9744l-11.7547-27.7291z"/><path d="m164.2453-60.7547 11.7547 27.7291v-15.9744z"/><path d="m176-33.0256v67.7636z"/><path d="m-33.0256-176h67.7636z"/><path d="m160-70.7692 4.2453 10.0145 11.7547 27.7291-28.1501-66.4054z"/><path d="m33.0256 176h-67.7636z"/><path d="m160 32.2567v-62.7669z"/><path d="m160 65.1841v-.1841z"/><path d="m-176 33.0256v-67.7636z"/><path d="m-74.4385 160-21.0416-8.4801 60.7421 24.4801z"/><path d="m-70.7692-160 37.7436-16-65.9178 27.9434z"/><path d="m32.0851-160h-62.7518z"/><path d="m-160-74.4385 8.4801-21.0416-24.4801 60.7421z"/><path d="m-176-94 66-66 16-16 16-16-114 114z"/><path d="m192-78-114-114z"/><path d="m-30.6667-160h62.7518z"/><path d="m-70.7692-160 37.7436-16z"/><path d="m94 176 82-82 16-16-114 114z"/><path d="m160 65v.1841z"/><path d="m160-30.5102v62.7669z"/><path d="m164.2453-60.7547-4.2453-10.0145 16 37.7436z"/><path d="m-176 94 16 16 50 50 16 16 16 16-114-114z"/><path d="m30.5102 160h-62.7669z"/><path d="m-160 30.6667v-62.7518z"/><path d="m160 74.4385-8.7686 21.7573z"/><path d="m-87.5188 137.7284 55.2621 22.2716z"/><path d="m-160 30.6667 14.1304 33.3333 11.4132 26.9235z"/><path d="m-137.3155-88.0724-22.6845 55.9873z"/><path d="m74.4385-160 21.7573 8.7686z"/><path d="m90.6061 134.3939-60.0959 25.6061 33.4898-14.2696 26.6061-11.3365.6601-.2812z"/><path d="m-30.6667-160-60.0422 25.4527z"/><path d="m160 65-22.1047 22.1047z"/><path d="m137.8953 87.1047 4.1002-10.1737 18.0045-44.6743z"/><path d="m87.4203-137.5797-23.4203-9.4893-31.9149-12.931z"/><path d="m160-30.5102-25.6061-60.0959z"/><path d="m-160-74.4385 8.4801-21.0416z"/><path d="m-74.4385 160-21.0416-8.4801z"/><path d="m-160 70.7692-16-37.7436z"/><path d="m70.7692 160-37.7436 16z"/><path d="m-528-752h-224z"/><path d="m-304-752h-224z"/><path d="m-80-752h-224z"/><path d="m144-752h-224z"/><path d="m368-752h-224z"/><path d="m592-752h-224z"/><path d="m752-752h-160z"/><path d="m752 752v-160-64z"/><path d="m752 528v-160-64z"/><path d="m752 304v-160-64z"/><path d="m752 80v-160-64z"/><path d="m752-144v-160-64z"/><path d="m752-368v-160-64z"/><path d="m752-592v-160z"/><path d="m-752 752h224z"/><path d="m-528 752h224z"/><path d="m-304 752h224z"/><path d="m-80 752h224z"/><path d="m144 752h224z"/><path d="m368 752h224z"/><path d="m592 752h160z"/><path d="m-752 528v64 160z"/><path d="m-752 304v64 160z"/><path d="m-752 80v64 160z"/><path d="m-752-144v64 160z"/><path d="m-752-368v64 160z"/><path d="m-752-592v64 160z"/><path d="m-752-752v160z"/><path d="m176 34.738v-67.7636z"/><path d="m34.738-176h-67.7636z"/><path d="m176-33.0256-28.1501-66.4054z"/><path d="m34.738-176 39.7005 16 21.7573 8.7686z"/><path d="m-34.738 176h66.738 1.0256z"/><path d="m176 34.738-16 39.7005-8.7686 21.7573z"/><path d="m99.431 147.8499-28.6618 12.1501-37.7436 16z"/><path d="m-176-34.738v67.7636z"/><path d="m-148.0566 98.9434-11.9434-28.1742-16-37.7436z"/><path d="m-95.4801 151.5199 60.7421 24.4801z"/><path d="m-33.0256-176-37.7436 16-28.1742 11.9434z"/><path d="m-151.5199-95.4801-24.4801 60.7421z"/><path d="m96.1958-151.2314 51.6541 51.8004z"/><path d="m160-30.5102-25.6061-60.0959z"/><path d="m134.3939-90.6061-46.9736-46.9736z"/><path d="m87.4203-137.5797-55.3352-22.4203z"/><path d="m160-30.5102v62.7669z"/><path d="m160 65v.1841z"/><path d="m91.2662 134.1127 68.7338-68.9286z"/><path d="m151.2314 96.1958-51.8004 51.6541z"/><path d="m137.8953 87.1047 22.1047-54.848z"/><path d="m160 65-22.1047 22.1047z"/><path d="m30.5102 160 60.0959-25.6061.6601-.2812z"/><path d="m-32.2567 160h62.7669z"/><path d="m-95.4801 151.5199-52.5765-52.5765z"/><path d="m-160 30.6667 25.5436 60.2568z"/><path d="m-87.5188 137.7284 55.2621 22.2716z"/><path d="m-134.4564 90.9235 46.9376 46.8049z"/><path d="m-30.6667-160h62.7518z"/><path d="m-160-32.0851v62.7518z"/><path d="m-90.7089-134.5473-46.6066 46.4749z"/><path d="m-151.5199-95.4801 52.5765-52.5765z"/><path d="m-137.3155-88.0724-22.6845 55.9873z"/><path d="m-30.6667-160-60.0422 25.4527z"/><path d="m-528-752h-224z"/><path d="m-304-752h-224z"/><path d="m-80-752h-224z"/><path d="m144-752h-224z"/><path d="m368-752h-224z"/><path d="m592-752h-224z"/><path d="m752-752h-160z"/><path d="m752 752v-224z"/><path d="m752 528v-224z"/><path d="m752 304v-224z"/><path d="m752 80v-224z"/><path d="m752-144v-224z"/><path d="m752-368v-224z"/><path d="m752-592v-160z"/><path d="m-752 752h224z"/><path d="m-528 752h224z"/><path d="m-304 752h224z"/><path d="m-80 752h224z"/><path d="m144 752h224z"/><path d="m368 752h224z"/><path d="m592 752h160z"/><path d="m-752 528v224z"/><path d="m-752 304v224z"/><path d="m-752 80v224z"/><path d="m-752-144v224z"/><path d="m-752-368v224z"/><path d="m-752-592v224z"/><path d="m-752-752v160z"/></g><g id="c"><path d="m537.2075-362.7924-185.4385-185.4386z"/><path d="m362.7924 537.2075 184.1641-184.164z"/><path d="m562.6232 314.3768-15.6667 38.6667 77.0435-190.1499z"/><path d="m66.7551-640h-186.449l-37.551 16h39.2962 170.8797 13.8241z"/><path d="m163.7647-624-39.7005-16h-19.7581-37.551v16z"/><path d="m-552.9091 324.0909-56.2822-132.0909-14.8087-34.7551 88.1667 206.9218z"/><path d="m640 65.9487v-166.5444-19.712l-16-37.7436v40.1026 87.8188 96.0786z"/><path d="m624 121.5829v41.3107l16-39.4893v-57.4556h-16z"/><path d="m-619.069-176 33.5699-83.2963 22.3412-55.4348 14.9269-37.0379-75.769 188.0043z"/><path d="m553.4576-324.4589 70.5424 166.4076-86.7925-204.7411z"/><path d="m-168.3019-619.2888 11.057-4.7112-206.9218 88.1667z"/><path d="m-380.2455 519.7545-155.5878-155.5878 182.7898 182.7898z"/><path d="m176-619.069 138.7311 55.9111 1.1733.4728 35.8646 14.4541-35.8646-14.4541-1.1733-.4728-150.9664-60.8421z"/><path d="m-353.0435 546.9565 190.1499 77.0435z"/><path d="m-392.3019-507.6981 28.1352-28.1352-184.0643 184.0643z"/><path d="m-168.3019-619.2888-195.8648 83.4555-28.1352 28.1352 37.3574-15.8363 183.8755-77.9472 2.7671-1.1731z"/><path d="m-117.9487-624h-39.2962l-11.057 4.7112v16.6341z"/><path d="m439.1202-439.1202 84.7663 85.0064 29.5711 29.6549-16.2501-38.3335-185.4385-185.4386-35.8646-14.4541z"/><path d="m566.271-254.1299 57.729 136.1812v-40.1026l-70.5424-166.4076-29.5711-29.6549z"/><path d="m400-478.1299 39.1202 39.0097-123.2158-123.5649-1.1733-.4728z"/><path d="m546.9565 353.0435 15.6667-38.6667-27.3416 27.3416-76.1517 76.1517-59.1299 59.1299-23.931 23.931-53.2011 53.2011 39.9245-16.9246z"/><path d="m562.6232 314.3768 61.3768-151.4832v-41.3107l-29.133 72.2872-59.5854 147.8483z"/><path d="m400-478.1299-85.2689-85.028-138.7311-55.9111v219.069 4.931h224z"/><path d="m176-395.069v219.069 4.931h224v-83.0609-140.9391z"/><path d="m176-171.069v99.069 38.9744 67.7636 18.193h224v-83.0609-140.9391z"/><path d="m176 52.931v18.5662.7068 103.796 100.931h224v-83.0609-140.9391z"/><path d="m176 276.931v123.069 100.931h200.069l23.931-23.931v-59.1299-140.9391z"/><path d="m176 500.931v98.4603 17l146.8679-62.2592 53.2011-53.2011z"/><path d="m566.271-254.1299-42.3845-99.9839-84.7663-85.0064-39.1202-39.0097v83.0609 140.9391z"/><path d="m624-30.1299v-87.8188l-57.729-136.1812h-166.271v83.0609 140.9391z"/><path d="m624 121.5829v-55.6342-96.0786h-224v83.0609 140.9391h194.867z"/><path d="m400 193.8701v83.0609 140.9391h59.1299l76.1517-76.1517 59.5854-147.8483z"/><path d="m400 417.8701v59.1299l59.1299-59.1299z"/><path d="m-395.069-377.4816v-105.8147l-168.0889 168.5652-22.3412 55.4348h190.4301z"/><path d="m-585.4991-259.2963-33.5699 83.2963h17 207v-83.2963z"/><path d="m-171.069-400v-201.4816l-183.8755 77.9472-40.1245 40.2381v105.8147h224z"/><path d="m-395.069-377.4816v118.1853 83.2963h10.5518 208.5172 4.931v-201.4816z"/><path d="m52.931-624h-170.8797l-50.3532 21.3453-2.7671 1.1731v201.4816h224z"/><path d="m-171.069-400v22.5184 201.4816h99.069 38.9744 67.7636 18.193v-224z"/><path d="m176-400v-219.069l-12.2353-4.931h-97.0096-13.8241v224z"/><path d="m72-176h104v-219.069-4.931h-123.069v224z"/><path d="m147.3208-100.6792-50.1656-50.1656z"/><path d="m97.1552-150.8448 50.1656 50.1656 28.6792 28.6792v-99.069-4.931h-104z"/><path d="m147.8499-99.431-.5291-1.2482z"/><path d="m147.8499-99.431 28.1501 66.4054v-38.9744l-28.6792-28.6792z"/><path d="m34.738-176 61.4578 24.7686z"/><path d="m72-176h-19.069-18.193l61.4578 24.7686.9594.3866z"/><path d="m147.8499-99.431-30.0611-30.1462-21.593-21.6542z"/><path d="m160 88.2493 16-16.0453-16 16.0453-58.5999 58.7659z"/><path d="m160 88.2493-58.5999 58.7659-28.9029 28.9848h87.5028z"/><path d="m176 72.204-16 16.0453v87.7507h16z"/><path d="m176 34.738-24.7686 61.4578z"/><path d="m176 71.4972v-18.5662-18.193l-24.7686 61.4578z"/><path d="m99.431 147.8499-66.4054 28.1501z"/><path d="m99.431 147.8499 1.9691-.8347z"/><path d="m99.431 147.8499 51.8004-51.6541z"/><path d="m-147.1104 101.1754 49.2427 49.3822z"/><path d="m-148.0566 98.9434.9462 2.232z"/><path d="m-148.0566 98.9434-27.9434-65.9178z"/><path d="m-148.0566 98.9434 52.5765 52.5765z"/><path d="m-100.6792-147.3208-50.1656 50.1656z"/><path d="m-98.9434-148.0566-1.7358.7358z"/><path d="m-70.7692-160 37.7436-16h-38.9744l-16 16z"/><path d="m-88-160-12.6792 12.6792 1.7358-.7358 28.1742-11.9434z"/><path d="m-98.9434-148.0566-52.5765 52.5765z"/><path d="m-151.5199-95.4801.6751-1.6751-25.1552 25.1552v37.262z"/><path d="m-176-160v88l25.1552-25.1552 50.1656-50.1656 12.6792-12.6792z"/><path d="m-72-176h-99.069-4.931v16h88z"/><path d="m-95.4801 151.5199-2.3876-.9623 25.3705 25.4424h37.7592z"/><path d="m-148.0566 98.9434-27.9434-65.9178v30.9744 8.204l28.8896 28.9714z"/><path d="m-97.8677 150.5576-49.2427-49.3822-28.8896-28.9714v103.796h103.5028z"/><path d="m-384.5172-176h-10.5518-207l-6.4482 16h208.5172 15.4828z"/><path d="m-176-176h-208.5172v16h192.5172 16z"/><path d="m-176 64v-30.9744-67.7636-37.262-88h-16v224z"/><path d="m-192 176h16v-103.796-8.204h-16z"/><path d="m-400-160h-208.5172l-15.4828 38.4171v181.8182 3.7647h224z"/><path d="m-624 64v53.9487l24.6087 58.0513h199.3913v-112z"/><path d="m-192 64v-224h-192.5172-15.4828v224z"/><path d="m-375.3913 176h183.3913v-112h-208v112z"/><path d="m99.431 147.8499-66.4054 28.1501h39.4716l28.9029-28.9848z"/><path d="m160 176v16 208h16v-123.069-100.931z"/><path d="m160 400v16 190.1739l16-6.7826v-98.4603-100.931z"/><path d="m32 176h-66.738-37.7592-103.5028-16v16h47.3913 176.6087z"/><path d="m79.3913 192h80.6087v-16h-87.5028-39.4716-1.0256v16z"/><path d="m-592.6087 192h217.2174v-16h-24.6087-199.3913z"/><path d="m-375.3913 192h6.7826 176.6087v-16h-183.3913z"/><path d="m-368.6087 192h-6.7826-217.2174l67.9861 160.3773 63.6226 63.6227h92.3913z"/><path d="m-461 416 92.3913 92.3913v-92.3913z"/><path d="m-144.6087 192h-47.3913-176.6087v224h224z"/><path d="m-368.6087 416v92.3913l26.8903 26.8903 185.4729 74.7488 11.6368 4.6898v-198.7202z"/><path d="m79.3913 192h-47.3913-176.6087v224h224z"/><path d="m-144.6087 416v198.7202l23.0258 9.2798h182.6893 18.2849v-208z"/><path d="m160 416v-16-208h-80.6087v224z"/><path d="m160 606.1739v-190.1739h-80.6087v208h38.5574z"/><path d="m-608.5172-160h-15.4828v38.4171z"/><path d="m-602.069-176h-17l-4.931 12.2353v3.7647h15.4828z"/><path d="m160 606.1739v17l16-6.7826v-17z"/><path d="m158.0513 624 1.9487-.8261v-17l-42.0513 17.8261z"/><path d="m-592.6087 192h-16.5826l56.2822 132.0909 28.2865 28.2864z"/><path d="m-609.1913 192h16.5826l-6.7826-16-24.6087-58.0513v39.2962z"/><path d="m-395.069-483.2963 40.1245-40.2381-37.3574 15.8363-155.9291 155.9291-14.9269 37.0379z"/><path d="m-368.6087 508.3913-92.3913-92.3913-63.6226-63.6227-28.2865-28.2864 17.0758 40.0758 155.5878 155.5878 38.5271 15.5271z"/><path d="m-341.7184 535.2816-38.5271-15.5271 27.202 27.202 190.1499 77.0435h6.6481v-13.9696z"/><path d="m-156.2455 624h34.6626l-23.0258-9.2798-11.6368-4.6898z"/><path d="m-624-121.5829v-38.4171-3.7647l-16 39.7005v19.7581 164.5414h16z"/><path d="m-640 60.2353v59.4586l16 37.551v-39.2962-53.9487-3.7647z"/><path d="m61.1064 624h-182.6893-34.6626-6.6481l39.4893 16h184.5107z"/><path d="m100.5957 640h19.712l37.7436-16h-40.1026-38.5574-18.2849v16z"/><path d="m362.7924 537.2075-39.9245 16.9246-146.8679 62.2592-16 6.7826-1.9487.8261z"/><path d="m400-478.1299-56.6569-56.4969-28.612-28.5311 1.1733.4728 123.2158 123.5649z"/><path d="m176 34.738v-27.6972-40.0664z"/><path d="m176 71.4972v.7068z"/><path d="m176-378.069v-21.931-202.069l167.3431 67.4422 56.6569 56.4969v100.0609z"/><path d="m176-154.069v-21.931-202.069h224v123.9391 100.0609z"/><path d="m176 69.931v-35.193-67.7636-38.9744-82.069h224v123.9391 100.0609z"/><path d="m176 293.931v-117.931-103.796-.7068-1.5662h224v123.9391 100.0609z"/><path d="m400 417.8701v59.1299l-40.931 40.931h-183.069v-117.931-106.069h224z"/><path d="m359.069 517.931-6.6917 6.6916-176.3773 74.7687v-81.4603z"/><path d="m439.1202-439.1202 84.7663 85.0064 42.3845 99.9839h-166.271v-123.9391-100.0609z"/><path d="m566.271-254.1299 57.729 136.1812v87.8188h-224v-123.9391-100.0609z"/><path d="m624-30.1299v151.7128l-29.133 72.2872h-194.867v-123.9391-100.0609z"/><path d="m594.867 193.8701-59.5854 147.8483-76.1517 76.1517h-59.1299v-123.9391-100.0609z"/><path d="m459.1299 417.8701-59.1299 59.1299v-59.1299z"/><path d="m34.738-176h-42.1423-25.6213z"/><path d="m-561.6284-276.3444 27.0016-66.9987 156.5578-157.0013v115.6562 108.3438z"/><path d="m-378.069-176h-6.4482-217.5518l40.4406-100.3444h183.5594z"/><path d="m-378.069-384.6882v-115.6562l23.1245-23.19 200.8755-85.1538v208.6882 15.3118z"/><path d="m-154.069-176h-21.931-202.069v-100.3444-108.3438h224z"/><path d="m-154.069-400v-208.6882l36.1203-15.3118h187.8797v224z"/><path d="m69.931-176h-35.193-67.7636-38.9744-82.069v-208.6882-15.3118h224z"/><path d="m176-602.069v202.069h-106.069v-224h51.6519z"/><path d="m176-400v21.931 202.069h-104-2.069v-224z"/><path d="m176-176v21.931 82.069l-28.6792-28.6792-50.1656-50.1656-25.1552-25.1552z"/><path d="m176-33.0256-16-37.7436-12.1501-28.6618z"/><path d="m176-72v38.9744l-28.1501-66.4054-.5291-1.2482z"/><path d="m97.1552-150.8448-.9594-.3866z"/><path d="m96.1958-151.2314-61.4578-24.7686h35.193 2.069l25.1552 25.1552z"/><path d="m32 176h-66.738 67.7636z"/><path d="m88.452 160h71.548v16h-87.5028z"/><path d="m88.452 160 12.9481-12.9848 58.5999-58.7659v71.7507z"/><path d="m160 176v-16-71.7507l16-16.0453v103.796z"/><path d="m176 34.738v35.193 1.5662l-24.7686 24.6986z"/><path d="m176 71.4972-24.7686 24.6986z"/><path d="m-176-34.738v67.7636z"/><path d="m-74.4385 160-21.0416-8.4801 21.0416 8.4801 39.7005 16z"/><path d="m-97.8677 150.5576 2.3876.9623z"/><path d="m-33.0256-176-37.7436 16-28.1742 11.9434z"/><path d="m-88-160 16-16h38.9744l-65.9178 27.9434-1.7358.7358z"/><path d="m-150.8448-97.1552-.6751 1.6751z"/><path d="m-160-74.4385 8.4801-21.0416-8.4801 21.0416-16 39.7005z"/><path d="m-160-88 9.1552-9.1552-.6751 1.6751-8.4801 21.0416z"/><path d="m-160-88v13.5615l-16 39.7005v-37.262z"/><path d="m-176-160h16v72l-16 16z"/><path d="m-88-160-12.6792 12.6792-50.1656 50.1656-9.1552 9.1552v-72z"/><path d="m-176-176h21.931 82.069l-16 16h-72-16z"/><path d="m-74.4385 160 39.7005 16h-37.7592l-15.9548-16z"/><path d="m-88.452 160-9.4157-9.4424 2.3876.9623 21.0416 8.4801z"/><path d="m-160 70.7692 11.9434 28.1742.9462 2.232-12.8896-12.9261z"/><path d="m-176 72.204v-8.204-30.9744l16 37.7436v17.4801z"/><path d="m-72.4972 176h-103.5028v-16h16 71.548z"/><path d="m-160 160h-16v-87.796l16 16.0453z"/><path d="m-160 88.2493 12.8896 12.9261 49.2427 49.3822 9.4157 9.4424h-71.548z"/><path d="m-400-160h-208.5172l6.4482-16h217.5518v16z"/><path d="m-384.5172-176h6.4482 202.069v16h-16-192.5172z"/><path d="m-192 64v-224h16v88 37.262 67.7636 30.9744z"/><path d="m-176 72.204v87.796h-16v-96h16z"/><path d="m-176 176h-16v-16h16z"/><path d="m-624 64v-185.5829l15.4828-38.4171h208.5172v224z"/><path d="m-624 117.9487v-53.9487h224v112h-199.3913z"/><path d="m-400-160h15.4828 192.5172v224h-208z"/><path d="m-192 64v96 16h-183.3913-24.6087v-112z"/><path d="m70.7692 160 28.6618-12.1501 1.9691-.8347-12.9481 12.9848z"/><path d="m33.0256 176 37.7436-16h17.6828l-15.9548 16z"/><path d="m160 400v-208-16h16v117.931 106.069z"/><path d="m176 517.931v81.4603l-16 6.7826v-190.1739-16h16z"/><path d="m32 192h-176.6087-47.3913v-16h16 103.5028 37.7592 66.738z"/><path d="m33.0256 176h39.4716 87.5028v16h-80.6087-47.3913v-16z"/><path d="m-375.3913 192h-217.2174l-6.7826-16h199.3913 24.6087z"/><path d="m-192 176v16h-176.6087-6.7826v-16z"/><path d="m-461 416-63.6226-63.6227-67.9861-160.3773h217.2174 6.7826v224z"/><path d="m-368.6087 508.3913-92.3913-92.3913h92.3913z"/><path d="m-368.6087 416v-224h176.6087 47.3913v224z"/><path d="m-144.6087 614.7202-197.1097-79.4386-26.8903-26.8903v-92.3913h224z"/><path d="m-144.6087 416v-224h176.6087 47.3913v224z"/><path d="m79.3913 624h-200.9742l-23.0258-9.2798v-198.7202h224z"/><path d="m160 192v208 16h-80.6087v-224z"/><path d="m160 416v190.1739l-42.0513 17.8261h-38.5574v-208z"/><path d="m74.4385-160-15.8103-6.3718-23.8902-9.6282 61.4578 24.7686z"/><path d="m134.3939-90.6061 25.6061 60.0959z"/><path d="m160-65-25.6061-25.6061-16.6051-38.9711 30.0611 30.1462 12.1501 28.6618z"/><path d="m160-30.5102v-34.4898-5.7692l16 37.7436v40.0664z"/><path d="m160-30.5102-25.6061-60.0959 25.6061 25.6061z"/><path d="m87.4203-137.5797 46.9736 46.9736z"/><path d="m74.4385-160h-9.4385l-6.3718-6.3718z"/><path d="m134.3939-90.6061-46.9736-46.9736-22.4203-22.4203h9.4385l21.7573 8.7686 21.593 21.6542z"/><path d="m32.0851-160 55.3352 22.4203z"/><path d="m65-160h-32.9149l-39.4894-16h42.1423l23.8902 9.6282z"/><path d="m87.4203-137.5797-55.3352-22.4203h32.9149z"/><path d="m160 65-22.1047 22.1047 22.1047-54.848z"/><path d="m70.7692 160h-5.3172l25.8142-25.8873 68.7338-68.9286v9.2544l-8.7686 21.7573-51.8004 51.6541z"/><path d="m-70.7692-160h5.5851l-25.5248 25.4527-46.6066 46.4749-22.6845 22.6204v-8.9865l8.4801-21.0416 52.5765-52.5765z"/><path d="m-160-74.4385v8.9865 33.3669 62.7518 34.7853 5.3172l-16-37.7436v-67.7636z"/><path d="m-160 70.7692v-5.3172l25.5436 25.4715 46.9376 46.8049 22.3347 22.2716h-9.2544l-21.0416-8.4801-52.5765-52.5765z"/><path d="m-74.4385 160h9.2544 32.9274 62.7669 34.9418 5.3172l-37.7436 16h-67.7636z"/><path d="m-65.1841 160-22.3347-22.2716 55.2621 22.2716z"/><path d="m-160 30.6667 25.5436 60.2568-25.5436-25.4715z"/><path d="m-160-65.452 22.6845-22.6204-22.6845 55.9873z"/><path d="m32.0851-160h-62.7518-34.5174-5.5851l37.7436-16h25.6213z"/><path d="m30.5102 160 60.756-25.8873-25.8142 25.8873z"/><path d="m160 74.4385v-9.2544-.1841-32.7433-62.7669l16 37.551v27.6972z"/><path d="m-30.6667-160-60.0422 25.4527 25.5248-25.4527z"/><path d="m117.9487 624 42.0513-17.8261 16-6.7826z"/><path d="m-602.069-176-6.4482 16-15.4828 38.4171z"/><path d="m160 74.4385 16-39.7005-24.7686 61.4578z"/><path d="m70.7692 160 28.6618-12.1501-28.6618 12.1501-37.7436 16z"/><path d="m160 65.1841-68.7338 68.9286z"/><path d="m160 32.2567-22.1047 54.848z"/><path d="m137.8953 87.1047 22.1047-22.1047z"/><path d="m91.2662 134.1127-60.756 25.8873z"/><path d="m-160 70.7692 11.9434 28.1742-11.9434-28.1742-16-37.7436z"/><path d="m30.5102 160h-62.7669z"/><path d="m-134.4564 90.9235-25.5436-60.2568z"/><path d="m-32.2567 160-55.2621-22.2716z"/><path d="m-87.5188 137.7284-46.9376-46.8049z"/><path d="m-160 30.6667v-62.7518z"/><path d="m-137.3155-88.0724 46.6066-46.4749z"/><path d="m-160-32.0851 22.6845-55.9873z"/><path d="m-90.7089-134.5473 60.0422-25.4527z"/><path d="m-528-752h-224z"/><path d="m-304-752h-224z"/><path d="m-80-752h-224z"/><path d="m144-752h-224z"/><path d="m368-752h-224z"/><path d="m592-752h-224z"/><path d="m752-752h-160z"/><path d="m752 752v-224z"/><path d="m752 528v-224z"/><path d="m752 304v-224z"/><path d="m752 80v-224z"/><path d="m752-144v-224z"/><path d="m752-368v-224z"/><path d="m752-592v-160z"/><path d="m-752 752h224z"/><path d="m-528 752h224z"/><path d="m-304 752h224z"/><path d="m-80 752h224z"/><path d="m144 752h224z"/><path d="m368 752h224z"/><path d="m592 752h160z"/><path d="m-752 528v224z"/><path d="m-752 304v224z"/><path d="m-752 80v224z"/><path d="m-752-144v224z"/><path d="m-752-368v224z"/><path d="m-752-592v224z"/><path d="m-752-752v160z"/><path d="m351.769-548.231 185.4385 185.4386z"/><path d="m546.9565 353.0435-184.1641 184.164z"/><path d="m640-100.5957v166.5444 57.4556z"/><path d="m640-120.3077v19.712z"/><path d="m624 162.8936-77.0435 190.1499z"/><path d="m640 123.4043-16 39.4893z"/><path d="m-640 119.6939v-59.4586-164.5414z"/><path d="m-640-104.3061v-19.7581z"/><path d="m121.5829-624h-51.6519-187.8797z"/><path d="m-119.6939-640h186.449 37.551z"/><path d="m104.3061-640h19.7581z"/><path d="m-157.2449-624 37.551-16z"/><path d="m124.0642-640 39.7005 16z"/><path d="m-121.5829 624h200.9742 38.5574z"/><path d="m-624-121.5829v185.5829 53.9487z"/><path d="m-535.8333 364.1667-88.1667-206.9218z"/><path d="m624 121.5829v-151.7128-87.8188z"/><path d="m624-158.0513 16 37.7436z"/><path d="m-624-163.7647 75.769-188.0043z"/><path d="m537.2075-362.7924 86.7925 204.7411z"/><path d="m-364.1667-535.8333 206.9218-88.1667z"/><path d="m-353.0435 546.9565-182.7898-182.7898z"/><path d="m315.9044-562.6851 35.8646 14.4541z"/><path d="m163.7647-624 150.9664 60.8421z"/><path d="m-162.8936 624-190.1499-77.0435z"/><path d="m-548.231-351.769 184.0643-184.0643z"/><path d="m362.7924 537.2075-204.7411 86.7925z"/><path d="m-117.9487-624-36.1203 15.3118-200.8755 85.1538z"/><path d="m523.8865-354.1138-84.7663-85.0064-123.2158-123.5649z"/><path d="m624-117.9487-57.729-136.1812-42.3845-99.9839z"/><path d="m314.7311-563.1579 28.612 28.5311z"/><path d="m-341.7184 535.2816 197.1097 79.4386 23.0258 9.2798z"/><path d="m352.3773 524.6226 6.6917-6.6916 40.931-40.931 59.1299-59.1299 76.1517-76.1517z"/><path d="m535.2816 341.7184 59.5854-147.8483 29.133-72.2872z"/><path d="m-524.6226 352.3773 63.6226 63.6227 92.3913 92.3913 26.8903 26.8903z"/><path d="m-354.9445-523.5344-23.1245 23.19-156.5578 157.0013z"/><path d="m343.3431-534.6268-167.3431-67.4422z"/><path d="m176 599.3913 176.3773-74.7687z"/><path d="m176-602.069-54.4171-21.931z"/><path d="m-534.6268-343.3431-27.0016 66.9987-40.4406 100.3444z"/><path d="m-624 117.9487 24.6087 58.0513 6.7826 16 67.9861 160.3773z"/><path d="m117.9487 624 58.0513-24.6087z"/><path d="m-602.069-176-21.931 54.4171z"/><path d="m-640-124.0642 16-39.7005z"/><path d="m-624 157.2449-16-37.551z"/><path d="m100.5957 640h-39.4893-184.5107z"/><path d="m120.3077 640h-19.712z"/><path d="m-123.4043 640-39.4893-16z"/><path d="m158.0513 624-37.7436 16z"/><path d="m-528-752h-224z"/><path d="m-304-752h-224z"/><path d="m-80-752h-224z"/><path d="m144-752h-224z"/><path d="m368-752h-224z"/><path d="m592-752h-224z"/><path d="m752-752h-160z"/><path d="m752 752v-224z"/><path d="m752 528v-224z"/><path d="m752 304v-224z"/><path d="m752 80v-224z"/><path d="m752-144v-224z"/><path d="m752-368v-224z"/><path d="m752-592v-160z"/><path d="m-752 752h224z"/><path d="m-528 752h224z"/><path d="m-304 752h224z"/><path d="m-80 752h224z"/><path d="m144 752h224z"/><path d="m368 752h224z"/><path d="m592 752h160z"/><path d="m-752 528v224z"/><path d="m-752 304v224z"/><path d="m-752 80v224z"/><path d="m-752-144v224z"/><path d="m-752-368v224z"/><path d="m-752-592v224z"/><path d="m-752-752v160z"/><path d="m351.769-548.231 185.4385 185.4386z"/><path d="m546.9565 353.0435-184.1641 184.164z"/><path d="m640-100.5957v224z"/><path d="m640-120.3077v19.712z"/><path d="m624 162.8936-77.0435 190.1499z"/><path d="m640 123.4043-16 39.4893z"/><path d="m-640 119.6939v-224z"/><path d="m-640-104.3061v-19.7581z"/><path d="m121.5829-624h-239.5316z"/><path d="m-119.6939-640h224z"/><path d="m104.3061-640h19.7581z"/><path d="m-157.2449-624 37.551-16z"/><path d="m124.0642-640 39.7005 16z"/><path d="m-121.5829 624h239.5316z"/><path d="m-624-121.5829v239.5316z"/><path d="m-535.8333 364.1667-88.1667-206.9218z"/><path d="m624 121.5829v-239.5316z"/><path d="m624-158.0513 16 37.7436z"/><path d="m-624-163.7647 75.769-188.0043z"/><path d="m537.2075-362.7924 86.7925 204.7411z"/><path d="m-364.1667-535.8333 206.9218-88.1667z"/><path d="m-353.0435 546.9565-182.7898-182.7898z"/><path d="m315.9044-562.6851 35.8646 14.4541z"/><path d="m163.7647-624 150.9664 60.8421z"/><path d="m-162.8936 624-190.1499-77.0435z"/><path d="m-548.231-351.769 184.0643-184.0643z"/><path d="m362.7924 537.2075-204.7411 86.7925z"/><path d="m-117.9487-624-236.9958 100.4656z"/><path d="m523.8865-354.1138-207.9821-208.5713z"/><path d="m624-117.9487-100.1135-236.1651z"/><path d="m314.7311-563.1579 28.612 28.5311z"/><path d="m-341.7184 535.2816 220.1355 88.7184z"/><path d="m352.3773 524.6226 182.9043-182.9042z"/><path d="m535.2816 341.7184 88.7184-220.1355z"/><path d="m-524.6226 352.3773 182.9042 182.9043z"/><path d="m-354.9445-523.5344-179.6823 180.1913z"/><path d="m343.3431-534.6268-167.3431-67.4422z"/><path d="m176 599.3913 176.3773-74.7687z"/><path d="m176-602.069-54.4171-21.931z"/><path d="m-534.6268-343.3431-67.4422 167.3431z"/><path d="m-624 117.9487 99.3774 234.4286z"/><path d="m117.9487 624 58.0513-24.6087z"/><path d="m-602.069-176-21.931 54.4171z"/><path d="m-640-124.0642 16-39.7005z"/><path d="m-624 157.2449-16-37.551z"/><path d="m100.5957 640h-224z"/><path d="m120.3077 640h-19.712z"/><path d="m-123.4043 640-39.4893-16z"/><path d="m158.0513 624-37.7436 16z"/><path d="m-528-752h-224z"/><path d="m-304-752h-224z"/><path d="m-80-752h-224z"/><path d="m144-752h-224z"/><path d="m368-752h-224z"/><path d="m592-752h-224z"/><path d="m752-752h-160z"/><path d="m752 752v-224z"/><path d="m752 528v-224z"/><path d="m752 304v-224z"/><path d="m752 80v-224z"/><path d="m752-144v-224z"/><path d="m752-368v-224z"/><path d="m752-592v-160z"/><path d="m-752 752h224z"/><path d="m-528 752h224z"/><path d="m-304 752h224z"/><path d="m-80 752h224z"/><path d="m144 752h224z"/><path d="m368 752h224z"/><path d="m592 752h160z"/><path d="m-752 528v224z"/><path d="m-752 304v224z"/><path d="m-752 80v224z"/><path d="m-752-144v224z"/><path d="m-752-368v224z"/><path d="m-752-592v224z"/><path d="m-752-752v160z"/><path d="m351.769-548.231 185.4385 185.4386z"/><path d="m546.9565 353.0435-184.1641 184.164z"/><path d="m640-100.5957v224z"/><path d="m640-120.3077v19.712z"/><path d="m624 162.8936-77.0435 190.1499z"/><path d="m640 123.4043-16 39.4893z"/><path d="m-640 119.6939v-224z"/><path d="m-640-104.3061v-19.7581z"/><path d="m121.5829-624h-239.5316z"/><path d="m-119.6939-640h224z"/><path d="m104.3061-640h19.7581z"/><path d="m-157.2449-624 37.551-16z"/><path d="m124.0642-640 39.7005 16z"/><path d="m-121.5829 624h239.5316z"/><path d="m-624-121.5829v239.5316z"/><path d="m-535.8333 364.1667-88.1667-206.9218z"/><path d="m624 121.5829v-239.5316z"/><path d="m624-158.0513 16 37.7436z"/><path d="m-624-163.7647 75.769-188.0043z"/><path d="m537.2075-362.7924 86.7925 204.7411z"/><path d="m-364.1667-535.8333 206.9218-88.1667z"/><path d="m-353.0435 546.9565-182.7898-182.7898z"/><path d="m315.9044-562.6851 35.8646 14.4541z"/><path d="m163.7647-624 150.9664 60.8421z"/><path d="m-162.8936 624-190.1499-77.0435z"/><path d="m-548.231-351.769 184.0643-184.0643z"/><path d="m362.7924 537.2075-204.7411 86.7925z"/><path d="m-117.9487-624-236.9958 100.4656z"/><path d="m523.8865-354.1138-207.9821-208.5713z"/><path d="m624-117.9487-100.1135-236.1651z"/><path d="m314.7311-563.1579 28.612 28.5311z"/><path d="m-341.7184 535.2816 220.1355 88.7184z"/><path d="m352.3773 524.6226 182.9043-182.9042z"/><path d="m535.2816 341.7184 88.7184-220.1355z"/><path d="m-524.6226 352.3773 182.9042 182.9043z"/><path d="m-354.9445-523.5344-179.6823 180.1913z"/><path d="m343.3431-534.6268-167.3431-67.4422z"/><path d="m176 599.3913 176.3773-74.7687z"/><path d="m176-602.069-54.4171-21.931z"/><path d="m-534.6268-343.3431-67.4422 167.3431z"/><path d="m-624 117.9487 99.3774 234.4286z"/><path d="m117.9487 624 58.0513-24.6087z"/><path d="m-602.069-176-21.931 54.4171z"/><path d="m-640-124.0642 16-39.7005z"/><path d="m-624 157.2449-16-37.551z"/><path d="m100.5957 640h-224z"/><path d="m120.3077 640h-19.712z"/><path d="m-123.4043 640-39.4893-16z"/><path d="m158.0513 624-37.7436 16z"/><path d="m-528-752h-224z"/><path d="m-304-752h-224z"/><path d="m-80-752h-224z"/><path d="m144-752h-224z"/><path d="m368-752h-224z"/><path d="m592-752h-224z"/><path d="m752-752h-160z"/><path d="m752 752v-224z"/><path d="m752 528v-224z"/><path d="m752 304v-224z"/><path d="m752 80v-224z"/><path d="m752-144v-224z"/><path d="m752-368v-224z"/><path d="m752-592v-160z"/><path d="m-752 752h224z"/><path d="m-528 752h224z"/><path d="m-304 752h224z"/><path d="m-80 752h224z"/><path d="m144 752h224z"/><path d="m368 752h224z"/><path d="m592 752h160z"/><path d="m-752 528v224z"/><path d="m-752 304v224z"/><path d="m-752 80v224z"/><path d="m-752-144v224z"/><path d="m-752-368v224z"/><path d="m-752-592v224z"/><path d="m-752-752v160z"/><path d="m351.769-548.231 185.4385 185.4386z"/><path d="m546.9565 353.0435-184.1641 184.164z"/><path d="m640-100.5957v224z"/><path d="m640-120.3077v19.712z"/><path d="m624 162.8936-77.0435 190.1499z"/><path d="m640 123.4043-16 39.4893z"/><path d="m-640 119.6939v-224z"/><path d="m-640-104.3061v-19.7581z"/><path d="m121.5829-624h-239.5316z"/><path d="m-119.6939-640h224z"/><path d="m104.3061-640h19.7581z"/><path d="m-157.2449-624 37.551-16z"/><path d="m124.0642-640 39.7005 16z"/><path d="m-121.5829 624h239.5316z"/><path d="m-624-121.5829v239.5316z"/><path d="m-535.8333 364.1667-88.1667-206.9218z"/><path d="m624 121.5829v-239.5316z"/><path d="m624-158.0513 16 37.7436z"/><path d="m-624-163.7647 75.769-188.0043z"/><path d="m537.2075-362.7924 86.7925 204.7411z"/><path d="m-364.1667-535.8333 206.9218-88.1667z"/><path d="m-353.0435 546.9565-182.7898-182.7898z"/><path d="m315.9044-562.6851 35.8646 14.4541z"/><path d="m163.7647-624 150.9664 60.8421z"/><path d="m-162.8936 624-190.1499-77.0435z"/><path d="m-548.231-351.769 184.0643-184.0643z"/><path d="m362.7924 537.2075-204.7411 86.7925z"/><path d="m-117.9487-624-236.9958 100.4656z"/><path d="m523.8865-354.1138-207.9821-208.5713z"/><path d="m624-117.9487-100.1135-236.1651z"/><path d="m314.7311-563.1579 28.612 28.5311z"/><path d="m-341.7184 535.2816 220.1355 88.7184z"/><path d="m352.3773 524.6226 182.9043-182.9042z"/><path d="m535.2816 341.7184 88.7184-220.1355z"/><path d="m-524.6226 352.3773 182.9042 182.9043z"/><path d="m-354.9445-523.5344-179.6823 180.1913z"/><path d="m343.3431-534.6268-167.3431-67.4422z"/><path d="m176 599.3913 176.3773-74.7687z"/><path d="m176-602.069-54.4171-21.931z"/><path d="m-534.6268-343.3431-67.4422 167.3431z"/><path d="m-624 117.9487 99.3774 234.4286z"/><path d="m117.9487 624 58.0513-24.6087z"/><path d="m-602.069-176-21.931 54.4171z"/><path d="m-640-124.0642 16-39.7005z"/><path d="m-624 157.2449-16-37.551z"/><path d="m100.5957 640h-224z"/><path d="m120.3077 640h-19.712z"/><path d="m-123.4043 640-39.4893-16z"/><path d="m158.0513 624-37.7436 16z"/><path d="m-528-752h-224z"/><path d="m-304-752h-224z"/><path d="m-80-752h-224z"/><path d="m144-752h-224z"/><path d="m368-752h-224z"/><path d="m592-752h-224z"/><path d="m752-752h-160z"/><path d="m752 752v-224z"/><path d="m752 528v-224z"/><path d="m752 304v-224z"/><path d="m752 80v-224z"/><path d="m752-144v-224z"/><path d="m752-368v-224z"/><path d="m752-592v-160z"/><path d="m-752 752h224z"/><path d="m-528 752h224z"/><path d="m-304 752h224z"/><path d="m-80 752h224z"/><path d="m144 752h224z"/><path d="m368 752h224z"/><path d="m592 752h160z"/><path d="m-752 528v224z"/><path d="m-752 304v224z"/><path d="m-752 80v224z"/><path d="m-752-144v224z"/><path d="m-752-368v224z"/><path d="m-752-592v224z"/><path d="m-752-752v160z"/><path d="m351.769-548.231 185.4385 185.4386z"/><path d="m546.9565 353.0435-184.1641 184.164z"/><path d="m640-100.5957v224z"/><path d="m640-120.3077v19.712z"/><path d="m624 162.8936-77.0435 190.1499z"/><path d="m640 123.4043-16 39.4893z"/><path d="m-640 119.6939v-224z"/><path d="m-640-104.3061v-19.7581z"/><path d="m121.5829-624h-239.5316z"/><path d="m-119.6939-640h224z"/><path d="m104.3061-640h19.7581z"/><path d="m-157.2449-624 37.551-16z"/><path d="m124.0642-640 39.7005 16z"/><path d="m-121.5829 624h239.5316z"/><path d="m-624-121.5829v239.5316z"/><path d="m-535.8333 364.1667-88.1667-206.9218z"/><path d="m624 121.5829v-239.5316z"/><path d="m624-158.0513 16 37.7436z"/><path d="m-624-163.7647 75.769-188.0043z"/><path d="m537.2075-362.7924 86.7925 204.7411z"/><path d="m-364.1667-535.8333 206.9218-88.1667z"/><path d="m-353.0435 546.9565-182.7898-182.7898z"/><path d="m315.9044-562.6851 35.8646 14.4541z"/><path d="m163.7647-624 150.9664 60.8421z"/><path d="m-162.8936 624-190.1499-77.0435z"/><path d="m-548.231-351.769 184.0643-184.0643z"/><path d="m362.7924 537.2075-204.7411 86.7925z"/><path d="m-117.9487-624-236.9958 100.4656z"/><path d="m523.8865-354.1138-207.9821-208.5713z"/><path d="m624-117.9487-100.1135-236.1651z"/><path d="m314.7311-563.1579 28.612 28.5311z"/><path d="m-341.7184 535.2816 220.1355 88.7184z"/><path d="m352.3773 524.6226 182.9043-182.9042z"/><path d="m535.2816 341.7184 88.7184-220.1355z"/><path d="m-524.6226 352.3773 182.9042 182.9043z"/><path d="m-354.9445-523.5344-179.6823 180.1913z"/><path d="m343.3431-534.6268-167.3431-67.4422z"/><path d="m176 599.3913 176.3773-74.7687z"/><path d="m176-602.069-54.4171-21.931z"/><path d="m-534.6268-343.3431-67.4422 167.3431z"/><path d="m-624 117.9487 99.3774 234.4286z"/><path d="m117.9487 624 58.0513-24.6087z"/><path d="m-602.069-176-21.931 54.4171z"/><path d="m-640-124.0642 16-39.7005z"/><path d="m-624 157.2449-16-37.551z"/><path d="m100.5957 640h-224z"/><path d="m120.3077 640h-19.712z"/><path d="m-123.4043 640-39.4893-16z"/><path d="m158.0513 624-37.7436 16z"/><path d="m-528-752h-224z"/><path d="m-304-752h-224z"/><path d="m-80-752h-224z"/><path d="m144-752h-224z"/><path d="m368-752h-224z"/><path d="m592-752h-224z"/><path d="m752-752h-160z"/><path d="m752 752v-224z"/><path d="m752 528v-224z"/><path d="m752 304v-224z"/><path d="m752 80v-224z"/><path d="m752-144v-224z"/><path d="m752-368v-224z"/><path d="m752-592v-160z"/><path d="m-752 752h224z"/><path d="m-528 752h224z"/><path d="m-304 752h224z"/><path d="m-80 752h224z"/><path d="m144 752h224z"/><path d="m368 752h224z"/><path d="m592 752h160z"/><path d="m-752 528v224z"/><path d="m-752 304v224z"/><path d="m-752 80v224z"/><path d="m-752-144v224z"/><path d="m-752-368v224z"/><path d="m-752-592v224z"/><path d="m-752-752v160z"/><path d="m351.769-548.231 185.4385 185.4386z"/><path d="m546.9565 353.0435-184.1641 184.164z"/><path d="m640-100.5957v224z"/><path d="m640-120.3077v19.712z"/><path d="m624 162.8936-77.0435 190.1499z"/><path d="m640 123.4043-16 39.4893z"/><path d="m-640 119.6939v-224z"/><path d="m-640-104.3061v-19.7581z"/><path d="m121.5829-624h-239.5316z"/><path d="m-119.6939-640h224z"/><path d="m104.3061-640h19.7581z"/><path d="m-157.2449-624 37.551-16z"/><path d="m124.0642-640 39.7005 16z"/><path d="m-121.5829 624h239.5316z"/><path d="m-624-121.5829v239.5316z"/><path d="m-535.8333 364.1667-88.1667-206.9218z"/><path d="m624 121.5829v-239.5316z"/><path d="m624-158.0513 16 37.7436z"/><path d="m-624-163.7647 75.769-188.0043z"/><path d="m537.2075-362.7924 86.7925 204.7411z"/><path d="m-364.1667-535.8333 206.9218-88.1667z"/><path d="m-353.0435 546.9565-182.7898-182.7898z"/><path d="m315.9044-562.6851 35.8646 14.4541z"/><path d="m163.7647-624 150.9664 60.8421z"/><path d="m-162.8936 624-190.1499-77.0435z"/><path d="m-548.231-351.769 184.0643-184.0643z"/><path d="m362.7924 537.2075-204.7411 86.7925z"/><path d="m-117.9487-624-236.9958 100.4656z"/><path d="m523.8865-354.1138-207.9821-208.5713z"/><path d="m624-117.9487-100.1135-236.1651z"/><path d="m314.7311-563.1579 28.612 28.5311z"/><path d="m-341.7184 535.2816 220.1355 88.7184z"/><path d="m352.3773 524.6226 182.9043-182.9042z"/><path d="m535.2816 341.7184 88.7184-220.1355z"/><path d="m-524.6226 352.3773 182.9042 182.9043z"/><path d="m-354.9445-523.5344-179.6823 180.1913z"/><path d="m343.3431-534.6268-167.3431-67.4422z"/><path d="m176 599.3913 176.3773-74.7687z"/><path d="m176-602.069-54.4171-21.931z"/><path d="m-534.6268-343.3431-67.4422 167.3431z"/><path d="m-624 117.9487 99.3774 234.4286z"/><path d="m117.9487 624 58.0513-24.6087z"/><path d="m-602.069-176-21.931 54.4171z"/><path d="m-640-124.0642 16-39.7005z"/><path d="m-624 157.2449-16-37.551z"/><path d="m100.5957 640h-224z"/><path d="m120.3077 640h-19.712z"/><path d="m-123.4043 640-39.4893-16z"/><path d="m158.0513 624-37.7436 16z"/><path d="m-528-752h-224z"/><path d="m-304-752h-224z"/><path d="m-80-752h-224z"/><path d="m144-752h-224z"/><path d="m368-752h-224z"/><path d="m592-752h-224z"/><path d="m752-752h-160z"/><path d="m752 752v-224z"/><path d="m752 528v-224z"/><path d="m752 304v-224z"/><path d="m752 80v-224z"/><path d="m752-144v-224z"/><path d="m752-368v-224z"/><path d="m752-592v-160z"/><path d="m-752 752h224z"/><path d="m-528 752h224z"/><path d="m-304 752h224z"/><path d="m-80 752h224z"/><path d="m144 752h224z"/><path d="m368 752h224z"/><path d="m592 752h160z"/><path d="m-752 528v224z"/><path d="m-752 304v224z"/><path d="m-752 80v224z"/><path d="m-752-144v224z"/><path d="m-752-368v224z"/><path d="m-752-592v224z"/><path d="m-752-752v160z"/><path d="m537.2075-362.7924-185.4385-185.4386z"/><path d="m362.7924 537.2075 184.1641-184.164z"/><path d="m640 123.4043v-57.4556-166.5444z"/><path d="m640-100.5957v-19.712z"/><path d="m546.9565 353.0435 15.6667-38.6667 61.3768-151.4832z"/><path d="m624 162.8936 16-39.4893z"/><path d="m-640-104.3061v164.5414 59.4586z"/><path d="m-640-124.0642v19.7581z"/><path d="m-117.9487-624-236.9958 100.4656 28.1378-28.2176 169.5618-72.248z"/><path d="m117.9487 624 58.0513-24.6087 176.3773-74.7687-29.5094 29.5095-164.8166 69.8679z"/><path d="m343.3431-534.6268-167.3431-67.4422-54.4171-21.931h42.1818l150.9664 60.8421z"/><path d="m-314.3768 562.6232-27.3416-27.3416 220.1355 88.7184h-41.3107z"/><path d="m-364.1667-535.8333 37.36-15.9187-28.1378 28.2176-179.6823 180.1913-28.5311 28.612 14.9269-37.0379z"/><path d="m362.7924 537.2075-39.9245 16.9246 29.5094-29.5095 182.9043-182.9042 27.3416-27.3416-15.6667 38.6667z"/><path d="m61.1064 640h-184.5107l-39.4893-16h41.3107 182.6893z"/><path d="m117.9487 624h40.1026l-37.7436 16h-19.712-39.4893v-16z"/><path d="m624 65.9487v-183.8974-40.1026l16 37.7436v19.712 166.5444z"/><path d="m640 123.4043-16 39.4893v-41.3107-55.6342h16z"/><path d="m66.7551-624h-184.7038-39.2962l37.551-16h186.449z"/><path d="m104.3061-640h19.7581l39.7005 16h-42.1818-54.8278v-16z"/><path d="m523.8865-354.1138-84.7663-85.0064-123.2158-123.5649 35.8646 14.4541 185.4385 185.4386 16.2501 38.3335z"/><path d="m-535.8333 364.1667-17.0758-40.0758 28.2865 28.2864 182.9042 182.9043 27.3416 27.3416-38.6667-15.6667z"/><path d="m562.6232 314.3768-27.3416 27.3416 88.7184-220.1355v41.3107z"/><path d="m-563.1579-314.7311 28.5311-28.612-67.4422 167.3431-21.931 54.4171v-42.1818z"/><path d="m624-117.9487-100.1135-236.1651 29.5711 29.6549 70.5424 166.4076z"/><path d="m-624 117.9487 99.3774 234.4286-28.2865-28.2864-71.0909-166.846z"/><path d="m-640 60.2353v-164.5414-19.7581l16-39.7005v42.1818 181.8182z"/><path d="m-624 117.9487v39.2962l-16-37.551v-59.4586h16z"/><path d="m-117.9487-624h184.7038 54.8278z"/><path d="m104.3061-640h-37.551-186.449z"/><path d="m124.0642-640h-19.7581z"/><path d="m-119.6939-640-37.551 16z"/><path d="m163.7647-624-39.7005-16z"/><path d="m117.9487 624h-56.8423-182.6893z"/><path d="m-624 117.9487v-57.7134-181.8182z"/><path d="m-624 157.2449 71.0909 166.846 17.0758 40.0758z"/><path d="m624-117.9487v183.8974 55.6342z"/><path d="m640-120.3077-16-37.7436z"/><path d="m-548.231-351.769-14.9269 37.0379-60.8421 150.9664z"/><path d="m624-158.0513-70.5424-166.4076-16.2501-38.3335z"/><path d="m-157.2449-624-169.5618 72.248-37.36 15.9187z"/><path d="m-535.8333 364.1667 182.7898 182.7898z"/><path d="m351.769-548.231-35.8646-14.4541z"/><path d="m314.7311-563.1579-150.9664-60.8421z"/><path d="m-353.0435 546.9565 38.6667 15.6667 151.4832 61.3768z"/><path d="m-364.1667-535.8333-184.0643 184.0643z"/><path d="m158.0513 624 164.8166-69.8679 39.9245-16.9246z"/><path d="m-354.9445-523.5344 236.9958-100.4656z"/><path d="m315.9044-562.6851 123.2158 123.5649 84.7663 85.0064z"/><path d="m523.8865-354.1138 100.1135 236.1651z"/><path d="m343.3431-534.6268-28.612-28.5311z"/><path d="m-121.5829 624-220.1355-88.7184z"/><path d="m535.2816 341.7184-182.9043 182.9042z"/><path d="m624 121.5829-88.7184 220.1355z"/><path d="m-341.7184 535.2816-182.9042-182.9043z"/><path d="m-534.6268-343.3431 179.6823-180.1913z"/><path d="m176-602.069 167.3431 67.4422z"/><path d="m352.3773 524.6226-176.3773 74.7687z"/><path d="m121.5829-624 54.4171 21.931z"/><path d="m-602.069-176 67.4422-167.3431z"/><path d="m-524.6226 352.3773-99.3774-234.4286z"/><path d="m176 599.3913-58.0513 24.6087z"/><path d="m-624-121.5829 21.931-54.4171z"/><path d="m-624-163.7647-16 39.7005z"/><path d="m-640 119.6939 16 37.551z"/><path d="m-123.4043 640h184.5107 39.4893z"/><path d="m100.5957 640h19.712z"/><path d="m-162.8936 624 39.4893 16z"/><path d="m120.3077 640 37.7436-16z"/><path d="m-528-752h-224z"/><path d="m-304-752h-224z"/><path d="m-80-752h-224z"/><path d="m144-752h-224z"/><path d="m368-752h-224z"/><path d="m592-752h-224z"/><path d="m752-752h-160z"/><path d="m752 752v-224z"/><path d="m752 528v-224z"/><path d="m752 304v-224z"/><path d="m752 80v-224z"/><path d="m752-144v-224z"/><path d="m752-368v-224z"/><path d="m752-592v-160z"/><path d="m-752 752h224z"/><path d="m-528 752h224z"/><path d="m-304 752h224z"/><path d="m-80 752h224z"/><path d="m144 752h224z"/><path d="m368 752h224z"/><path d="m592 752h160z"/><path d="m-752 528v224z"/><path d="m-752 304v224z"/><path d="m-752 80v224z"/><path d="m-752-144v224z"/><path d="m-752-368v224z"/><path d="m-752-592v224z"/><path d="m-752-752v160z"/></g><g id="d"><path d="m-528-752h-224v160 64h224z"/><path d="m-752-528v160 64h224v-224z"/><path d="m-752-304v160 64h224v-224z"/><path d="m-752-80v160 64h224v-224z"/><path d="m-752 144v160 64h224v-224z"/><path d="m-752 368v160 64h224v-224z"/><path d="m-752 592v160h224v-160z"/><path d="m-304-752h-224v224h224z"/><path d="m-528-528v224h224v-224z"/><path d="m-528-304v224h224v-224z"/><path d="m-528-80v224h224v-224z"/><path d="m-528 144v224h224v-224z"/><path d="m-528 368v224h224v-224z"/><path d="m-528 592v160h224v-160z"/><path d="m-80-752h-224v224h224z"/><path d="m-304-528v224h224v-224z"/><path d="m-304-304v224h224v-224z"/><path d="m-304-80v224h224v-224z"/><path d="m-304 144v224h224v-224z"/><path d="m-304 368v224h224v-224z"/><path d="m-304 592v160h224v-160z"/><path d="m144-752h-224v224h224z"/><path d="m-80-528v224h224v-224z"/><path d="m-80-304v224h224v-224z"/><path d="m-80-80v224h224v-224z"/><path d="m-80 144v224h224v-224z"/><path d="m-80 368v224h224v-224z"/><path d="m-80 592v160h224v-160z"/><path d="m368-752h-224v224h224z"/><path d="m144-528v224h224v-224z"/><path d="m144-304v224h224v-224z"/><path d="m144-80v224h224v-224z"/><path d="m144 144v224h224v-224z"/><path d="m144 368v224h224v-224z"/><path d="m144 592v160h224v-160z"/><path d="m592-752h-224v224h224z"/><path d="m368-528v224h224v-224z"/><path d="m368-304v224h224v-224z"/><path d="m368-80v224h224v-224z"/><path d="m368 144v224h224v-224z"/><path d="m368 368v224h224v-224z"/><path d="m368 592v160h224v-160z"/><path d="m752-528v-64-160h-160v224z"/><path d="m752-304v-64-160h-160v224z"/><path d="m752-80v-64-160h-160v224z"/><path d="m752 144v-64-160h-160v224z"/><path d="m752 368v-64-160h-160v224z"/><path d="m752 592v-64-160h-160v224z"/><path d="m752 752v-160h-160v160z"/><path d="m-752-752h224z"/><path d="m-528-752h224z"/><path d="m-304-752h224z"/><path d="m-80-752h224z"/><path d="m144-752h224z"/><path d="m368-752h224z"/><path d="m592-752h160z"/><path d="m752 528v64 160z"/><path d="m752 304v64 160z"/><path d="m752 80v64 160z"/><path d="m752-144v64 160z"/><path d="m752-368v64 160z"/><path d="m752-592v64 160z"/><path d="m752-752v160z"/><path d="m-528 752h-224z"/><path d="m-304 752h-224z"/><path d="m-80 752h-224z"/><path d="m144 752h-224z"/><path d="m368 752h-224z"/><path d="m592 752h-224z"/><path d="m752 752h-160z"/><path d="m-752 752v-160-64z"/><path d="m-752 528v-160-64z"/><path d="m-752 304v-160-64z"/><path d="m-752 80v-160-64z"/><path d="m-752-144v-160-64z"/><path d="m-752-368v-160-64z"/><path d="m-752-592v-160z"/></g></defs><g stroke="#000"><use fill="none" stroke-miterlimit="0" stroke-width="10" xlink:href="#a"/><use fill="#c4c4c4" xlink:href="#a"/><use fill="none" stroke-miterlimit="0" stroke-width="10" xlink:href="#b"/><use fill="#d9d9d9" xlink:href="#b"/><use fill="none" stroke-miterlimit="0" stroke-width="10" xlink:href="#c"/><use fill="#ebebeb" xlink:href="#c"/><use fill="none" stroke-miterlimit="0" stroke-width="10" xlink:href="#d"/><use fill="#fff" xlink:href="#d"/></g></svg>