<?xml version="1.0" encoding="utf-8" ?>
<svg baseProfile="tiny" height="100%" version="1.2" viewBox="-902.0 -902.0 1804.0 1804.0" width="100%" xmlns="http://www.w3.org/2000/svg" xmlns:ev="http://www.w3.org/2001/xml-events" xmlns:xlink="http://www.w3.org/1999/xlink"><defs><g id="bsp_ref"><polygon points="-752,-528 -752,-592 -752,-752 -528,-752 -528,-528" /><polygon points="-752,-304 -752,-368 -752,-528 -528,-528 -528,-304" /><polygon points="-752,-80 -752,-144 -752,-304 -528,-304 -528,-80" /><polygon points="-752,144 -752,80 -752,-80 -528,-80 -528,144" /><polygon points="-752,368 -752,304 -752,144 -528,144 -528,368" /><polygon points="-752,592 -752,528 -752,368 -528,368 -528,592" /><polygon points="-528,752 -752,752 -752,592 -528,592" /><polygon points="-528,-528 -528,-752 -304,-752 -304,-528" /><polygon points="-528,-304 -528,-528 -304,-528 -304,-304" /><polygon points="-528,-80 -528,-304 -304,-304 -304,-80" /><polygon points="-528,144 -528,-80 -304,-80 -304,144" /><polygon points="-528,368 -528,144 -304,144 -304,368" /><polygon points="-528,592 -528,368 -304,368 -304,592" /><polygon points="-304,752 -528,752 -528,592 -304,592" /><polygon points="-304,-528 -304,-752 -80,-752 -80,-528" /><polygon points="-304,-304 -304,-528 -80,-528 -80,-304" /><polygon points="-304,-80 -304,-304 -80,-304 -80,-80" /><polygon points="-304,144 -304,-80 -80,-80 -80,144" /><polygon points="-304,368 -304,144 -80,144 -80,368" /><polygon points="-304,592 -304,368 -80,368 -80,592" /><polygon points="-80,752 -304,752 -304,592 -80,592" /><polygon points="-80,-528 -80,-752 144,-752 144,-528" /><polygon points="-80,-304 -80,-528 144,-528 144,-304" /><polygon points="-80,-80 -80,-304 144,-304 144,-80" /><polygon points="-80,144 -80,-80 144,-80 144,144" /><polygon points="-80,368 -80,144 144,144 144,368" /><polygon points="-80,592 -80,368 144,368 144,592" /><polygon points="144,752 -80,752 -80,592 144,592" /><polygon points="144,-528 144,-752 368,-752 368,-528" /><polygon points="144,-304 144,-528 368,-528 368,-304" /><polygon points="144,-80 144,-304 368,-304 368,-80" /><polygon points="144,144 144,-80 368,-80 368,144" /><polygon points="144,368 144,144 368,144 368,368" /><polygon points="144,592 144,368 368,368 368,592" /><polygon points="368,752 144,752 144,592 368,592" /><polygon points="368,-528 368,-752 592,-752 592,-528" /><polygon points="368,-304 368,-528 592,-528 592,-304" /><polygon points="368,-80 368,-304 592,-304 592,-80" /><polygon points="368,144 368,-80 592,-80 592,144" /><polygon points="368,368 368,144 592,144 592,368" /><polygon points="368,592 368,368 592,368 592,592" /><polygon points="592,752 368,752 368,592 592,592" /><polygon points="752,-752 752,-592 752,-528 592,-528 592,-752" /><polygon points="752,-528 752,-368 752,-304 592,-304 592,-528" /><polygon points="752,-304 752,-144 752,-80 592,-80 592,-304" /><polygon points="752,-80 752,80 752,144 592,144 592,-80" /><polygon points="752,144 752,304 752,368 592,368 592,144" /><polygon points="752,368 752,528 752,592 592,592 592,368" /><polygon points="752,592 752,752 592,752 592,592" /><polygon points="-78,-192 78,-192 78,-192 55.5424,-192 -4.9626,-192 -78,-192" /><polygon points="78,-192 -78,-192 -78,-192 -4.9626,-192 55.5424,-192 78,-192" /><polygon points="-192,-78 -192,78 -192,78 -192,-78" /><polygon points="-192,78 -192,-78 -192,-78 -192,78" /><polygon points="-78,192 78,192 78,192 -78,192" /><polygon points="78,192 -78,192 -78,192 78,192" /><polygon points="192,78 192,-78 192,-78 192,-55.1558 192,-33 192,78" /><polygon points="192,-78 192,78 192,78 192,-33 192,-55.1558 192,-78" /><polygon points="192,78 192,-78 78,-192 -78,-192 -192,-78 -192,78 -78,192 78,192" /><polygon points="192,-78 192,78 78,192 -78,192 -192,78 -192,-78 -78,-192 78,-192" /><polygon points="-78,-192 -78,-192 -94,-176 -110,-160 -176,-94 -192,-78 -192,-78" /><polygon points="192,-78 192,-78 78,-192 78,-192" /><polygon points="192,78 192,78 176,94 94,176 78,192 78,192" /><polygon points="-78,192 -78,192 -94,176 -110,160 -160,110 -176,94 -192,78 -192,78" /><polygon points="-101.1754,-147.1104 -101.1754,-147.1104 -150.5576,-97.8677 -150.5576,-97.8677" /><polygon points="-33.0256,-176 -70.7692,-160 64,-160 74.4385,-160 34.738,-176" /><polygon points="34.738,-176 34.738,-176 -33.0256,-176 -33.0256,-176" /><polygon points="74.4385,-160 74.4385,-160 74.4385,-160 34.738,-176 34.738,-176" /><polygon points="160,-70.7692 160,64 160,74.4385 176,34.738 176,-33.0256" /><polygon points="176,34.738 176,34.738 176,-33.0256 176,-33.0256" /><polygon points="160,74.4385 160,74.4385 160,74.4385 176,34.738 176,34.738" /><polygon points="64,-160 -70.7692,-160 -101.1754,-147.1104 -150.5576,-97.8677 -160,-74.4385 -160,64 64,64" /><polygon points="-160,64 -160,70.7692 -147.0152,101.4001 -97.6171,150.6586 -74.4385,160 64,160 64,64" /><polygon points="160,64 160,-70.7692 147.8499,-99.431 96.1958,-151.2314 74.4385,-160 64,-160 64,64" /><polygon points="70.7692,160 100.6792,147.3208 150.8448,97.1552 160,74.4385 160,64 64,64 64,160" /><polygon points="147.8499,-99.431 147.8499,-99.431 96.1958,-151.2314 96.1958,-151.2314" /><polygon points="-70.7692,-160 -70.7692,-160 -98.9434,-148.0566 -101.1754,-147.1104 -101.1754,-147.1104" /><polygon points="100.6792,147.3208 100.6792,147.3208 150.8448,97.1552 150.8448,97.1552" /><polygon points="-147.0152,101.4001 -147.0152,101.4001 -97.6171,150.6586 -97.6171,150.6586" /><polygon points="-97.6171,150.6586 -97.6171,150.6586 -95.4801,151.5199 -74.4385,160 -74.4385,160" /><polygon points="160,-70.7692 160,-70.7692 147.8499,-99.431 147.8499,-99.431" /><polygon points="96.1958,-151.2314 96.1958,-151.2314 74.4385,-160 74.4385,-160" /><polygon points="-176,33.0256 -160,70.7692 -160,64 -160,-74.4385 -176,-34.738" /><polygon points="-176,-34.738 -176,-34.738 -176,33.0256 -176,33.0256" /><polygon points="-160,-74.4385 -160,-74.4385 -160,-74.4385 -176,-34.738 -176,-34.738" /><polygon points="70.7692,160 64,160 -74.4385,160 -34.738,176 33.0256,176" /><polygon points="-34.738,176 -34.738,176 33.0256,176 33.0256,176" /><polygon points="-74.4385,160 -74.4385,160 -74.4385,160 -34.738,176 -34.738,176" /><polygon points="-95.4801,151.5199 -97.6171,150.6586 -147.0152,101.4001 -148.0566,98.9434" /><polygon points="137.8953,87.1047 160,65 160,65.1841 91.2662,134.1127 90.6061,134.3939" /><polygon points="151.2314,96.1958 150.8448,97.1552 100.6792,147.3208 99.431,147.8499" /><polygon points="-145.8696,64 -160,30.6667 -160,-32.0851 -137.3155,-88.0724 -90.7089,-134.5473 -30.6667,-160 32.0851,-160 64,-147.069 64,64" /><polygon points="64,76.931 64,145.7304 30.5102,160 -32.2567,160 -87.5188,137.7284 -134.4564,90.9235 -145.8696,64 64,64" /><polygon points="87.4203,-137.5797 134.3939,-90.6061 160,-30.5102 160,32.2567 141.9955,76.931 64,76.931 64,64 64,-147.069" /><polygon points="141.9955,76.931 137.8953,87.1047 90.6061,134.3939 64,145.7304 64,76.931" /><polygon points="-151.5199,-95.4801 -150.5576,-97.8677 -101.1754,-147.1104 -98.9434,-148.0566" /><polygon points="-148.0566,98.9434 -148.0566,98.9434 -95.4801,151.5199 -95.4801,151.5199" /><polygon points="151.2314,96.1958 99.431,147.8499 99.431,147.8499 151.2314,96.1958" /><polygon points="-134.4564,90.9235 -87.5188,137.7284 -87.5188,137.7284 -134.4564,90.9235" /><polygon points="-98.9434,-148.0566 -70.7692,-160 -70.7692,-160 -98.9434,-148.0566" /><polygon points="99.431,147.8499 70.7692,160 70.7692,160 99.431,147.8499" /><polygon points="-98.9434,-148.0566 -98.9434,-148.0566 -151.5199,-95.4801 -151.5199,-95.4801" /><polygon points="147.8499,-99.431 160,-70.7692 160,-70.7692 147.8499,-99.431" /><polygon points="91.2662,134.1127 160,65.1841 160,65.1841 91.2662,134.1127" /><polygon points="96.1958,-151.2314 147.8499,-99.431 147.8499,-99.431 96.1958,-151.2314" /><polygon points="-90.7089,-134.5473 -137.3155,-88.0724 -137.3155,-88.0724 -90.7089,-134.5473" /><polygon points="134.3939,-90.6061 87.4203,-137.5797 87.4203,-137.5797 134.3939,-90.6061" /><polygon points="-148.0566,98.9434 -160,70.7692 -160,70.7692 -148.0566,98.9434" /><polygon points="151.2314,96.1958 160,74.4385 160,74.4385 150.8448,97.1552 150.8448,97.1552" /><polygon points="-148.0566,98.9434 -147.0152,101.4001 -147.0152,101.4001 -160,70.7692 -160,70.7692" /><polygon points="99.431,147.8499 100.6792,147.3208 100.6792,147.3208 70.7692,160 70.7692,160" /><polygon points="-151.5199,-95.4801 -160,-74.4385 -160,-74.4385 -150.5576,-97.8677 -150.5576,-97.8677" /><polygon points="-87,160 -110,160 -94,176 -34.738,176 -74.4385,160" /><polygon points="-94,176 -110,160 -87,160 -74.4385,160 -34.738,176" /><polygon points="-176,94 -160,110 -160,87 -160,70.7692 -176,33.0256" /><polygon points="-160,87 -160,110 -176,94 -176,33.0256 -160,70.7692" /><polygon points="-110,-160 -176,-94 -176,-71 -151.5199,-95.4801 -98.9434,-148.0566 -87,-160" /><polygon points="-176,-94 -110,-160 -87,-160 -98.9434,-148.0566 -151.5199,-95.4801 -176,-71" /><polygon points="-87,160 -74.4385,160 -95.4801,151.5199" /><polygon points="-95.4801,151.5199 -74.4385,160 -87,160" /><polygon points="71.2011,176 99.431,147.8499 70.7692,160 33.0256,176" /><polygon points="70.7692,160 99.431,147.8499 71.2011,176 33.0256,176" /><polygon points="-160,70.7692 -160,87 -148.0566,98.9434" /><polygon points="-148.0566,98.9434 -160,87 -160,70.7692" /><polygon points="137.8953,87.1047 90.6061,134.3939 91.2662,134.1127 160,65.1841 160,65" /><polygon points="137.8953,87.1047 160,65 160,65.1841 91.2662,134.1127 90.6061,134.3939" /><polygon points="30.5102,160 -32.2567,160 -87.5188,137.7284 -134.4564,90.9235 -160,30.6667 -160,-32.0851 -137.3155,-88.0724 -90.7089,-134.5473 -30.6667,-160 32.0851,-160 87.4203,-137.5797 134.3939,-90.6061 160,-30.5102 160,32.2567 137.8953,87.1047 90.6061,134.3939" /><polygon points="90.6061,134.3939 137.8953,87.1047 160,32.2567 160,-30.5102 134.3939,-90.6061 87.4203,-137.5797 32.0851,-160 -30.6667,-160 -90.7089,-134.5473 -137.3155,-88.0724 -160,-32.0851 -160,30.6667 -134.4564,90.9235 -87.5188,137.7284 -32.2567,160 30.5102,160" /><polygon points="-98.9434,-148.0566 -87,-160 -70.7692,-160" /><polygon points="-70.7692,-160 -87,-160 -98.9434,-148.0566" /><polygon points="-160,-74.4385 -176,-34.738 -176,-71 -151.5199,-95.4801" /><polygon points="-176,-71 -176,-34.738 -160,-74.4385 -151.5199,-95.4801" /><polygon points="-176,-71 -176,-34.738 -176,33.0256 -176,94 -192,78 -192,-78 -176,-94" /><polygon points="-192,78 -176,94 -176,33.0256 -176,-34.738 -176,-71 -176,-94 -192,-78" /><polygon points="-110,160 -160,110 -160,87 -148.0566,98.9434 -95.4801,151.5199 -87,160" /><polygon points="-160,110 -110,160 -87,160 -95.4801,151.5199 -148.0566,98.9434 -160,87" /><polygon points="-34.738,176 33.0256,176 71.2011,176 94,176 78,192 -78,192 -94,176" /><polygon points="78,192 94,176 71.2011,176 33.0256,176 -34.738,176 -94,176 -78,192" /><polygon points="-78,-192 -94,-176 -33.0256,-176 34.738,-176 -4.9626,-192" /><polygon points="-33.0256,-176 -94,-176 -78,-192 -4.9626,-192 34.738,-176" /><polygon points="74.4385,-160 34.738,-176 -4.9626,-192 55.5424,-192 96.1958,-151.2314" /><polygon points="55.5424,-192 -4.9626,-192 34.738,-176 74.4385,-160 96.1958,-151.2314" /><polygon points="-87,-160 -110,-160 -94,-176 -33.0256,-176 -70.7692,-160" /><polygon points="-94,-176 -110,-160 -87,-160 -70.7692,-160 -33.0256,-176" /><polygon points="96.1958,-151.2314 147.8499,-99.431 192,-55.1558 192,-78 78,-192 55.5424,-192" /><polygon points="192,-78 192,-55.1558 147.8499,-99.431 96.1958,-151.2314 55.5424,-192 78,-192" /><polygon points="176,94 176,71.4972 151.2314,96.1958 99.431,147.8499 71.2011,176 94,176" /><polygon points="99.431,147.8499 151.2314,96.1958 176,71.4972 176,94 94,176 71.2011,176" /><polygon points="176,-33.0256 176,34.738 176,71.4972 176,94 192,78 192,-33 176,-49" /><polygon points="192,78 176,94 176,71.4972 176,34.738 176,-33.0256 176,-49 192,-33" /><polygon points="176,71.4972 176,34.738 160,74.4385 151.2314,96.1958" /><polygon points="160,74.4385 176,34.738 176,71.4972 151.2314,96.1958" /><polygon points="192,-55.1558 192,-33 176,-49 164.2453,-60.7547 160,-70.7692 147.8499,-99.431" /><polygon points="160,-70.7692 164.2453,-60.7547 176,-49 192,-33 192,-55.1558 147.8499,-99.431" /><polygon points="176,-49 176,-33.0256 164.2453,-60.7547" /><polygon points="164.2453,-60.7547 176,-33.0256 176,-49" /><polygon points="176,-33.0256 176,34.738 176,34.738 176,-33.0256" /><polygon points="-33.0256,-176 34.738,-176 34.738,-176 -33.0256,-176" /><polygon points="160,-70.7692 164.2453,-60.7547 176,-33.0256 176,-33.0256 147.8499,-99.431 147.8499,-99.431" /><polygon points="33.0256,176 -34.738,176 -34.738,176 33.0256,176" /><polygon points="160,32.2567 160,-30.5102 160,-30.5102 160,32.2567" /><polygon points="160,65.1841 160,65 160,65 160,65.1841" /><polygon points="-176,33.0256 -176,-34.738 -176,-34.738 -176,33.0256" /><polygon points="-74.4385,160 -95.4801,151.5199 -95.4801,151.5199 -34.738,176 -34.738,176" /><polygon points="-70.7692,-160 -33.0256,-176 -33.0256,-176 -98.9434,-148.0566 -98.9434,-148.0566" /><polygon points="32.0851,-160 -30.6667,-160 -30.6667,-160 32.0851,-160" /><polygon points="-160,-74.4385 -151.5199,-95.4801 -151.5199,-95.4801 -176,-34.738 -176,-34.738" /><polygon points="-176,-94 -110,-160 -94,-176 -78,-192 -78,-192 -192,-78 -192,-78" /><polygon points="192,-78 192,-78 78,-192 78,-192" /><polygon points="-30.6667,-160 32.0851,-160 32.0851,-160 -30.6667,-160" /><polygon points="-70.7692,-160 -70.7692,-160 -70.7692,-160 -33.0256,-176 -33.0256,-176" /><polygon points="94,176 176,94 192,78 192,78 78,192 78,192" /><polygon points="160,65 160,65.1841 160,65.1841 160,65" /><polygon points="160,-30.5102 160,32.2567 160,32.2567 160,-30.5102" /><polygon points="164.2453,-60.7547 160,-70.7692 160,-70.7692 160,-70.7692 176,-33.0256 176,-33.0256" /><polygon points="-176,94 -160,110 -110,160 -94,176 -78,192 -78,192 -192,78 -192,78" /><polygon points="30.5102,160 -32.2567,160 -32.2567,160 30.5102,160" /><polygon points="-160,30.6667 -160,-32.0851 -160,-32.0851 -160,30.6667" /><polygon points="160,74.4385 160,74.4385 151.2314,96.1958 151.2314,96.1958" /><polygon points="-87.5188,137.7284 -87.5188,137.7284 -32.2567,160 -32.2567,160" /><polygon points="-160,30.6667 -160,30.6667 -145.8696,64 -134.4564,90.9235 -134.4564,90.9235" /><polygon points="-137.3155,-88.0724 -137.3155,-88.0724 -160,-32.0851 -160,-32.0851" /><polygon points="74.4385,-160 74.4385,-160 96.1958,-151.2314 96.1958,-151.2314" /><polygon points="90.6061,134.3939 30.5102,160 30.5102,160 64,145.7304 90.6061,134.3939 91.2662,134.1127 91.2662,134.1127" /><polygon points="-30.6667,-160 -30.6667,-160 -90.7089,-134.5473 -90.7089,-134.5473" /><polygon points="160,65 160,65 137.8953,87.1047 137.8953,87.1047" /><polygon points="137.8953,87.1047 137.8953,87.1047 141.9955,76.931 160,32.2567 160,32.2567" /><polygon points="87.4203,-137.5797 87.4203,-137.5797 64,-147.069 32.0851,-160 32.0851,-160" /><polygon points="160,-30.5102 160,-30.5102 134.3939,-90.6061 134.3939,-90.6061" /><polygon points="-160,-74.4385 -160,-74.4385 -151.5199,-95.4801 -151.5199,-95.4801" /><polygon points="-74.4385,160 -74.4385,160 -95.4801,151.5199 -95.4801,151.5199" /><polygon points="-160,70.7692 -160,70.7692 -160,70.7692 -176,33.0256 -176,33.0256" /><polygon points="70.7692,160 70.7692,160 70.7692,160 33.0256,176 33.0256,176" /><polygon points="-528,-752 -528,-752 -752,-752 -752,-752" /><polygon points="-304,-752 -304,-752 -528,-752 -528,-752" /><polygon points="-80,-752 -80,-752 -304,-752 -304,-752" /><polygon points="144,-752 144,-752 -80,-752 -80,-752" /><polygon points="368,-752 368,-752 144,-752 144,-752" /><polygon points="592,-752 592,-752 368,-752 368,-752" /><polygon points="752,-752 752,-752 592,-752 592,-752" /><polygon points="752,752 752,752 752,592 752,528 752,528" /><polygon points="752,528 752,528 752,368 752,304 752,304" /><polygon points="752,304 752,304 752,144 752,80 752,80" /><polygon points="752,80 752,80 752,-80 752,-144 752,-144" /><polygon points="752,-144 752,-144 752,-304 752,-368 752,-368" /><polygon points="752,-368 752,-368 752,-528 752,-592 752,-592" /><polygon points="752,-592 752,-592 752,-752 752,-752" /><polygon points="-752,752 -752,752 -528,752 -528,752" /><polygon points="-528,752 -528,752 -304,752 -304,752" /><polygon points="-304,752 -304,752 -80,752 -80,752" /><polygon points="-80,752 -80,752 144,752 144,752" /><polygon points="144,752 144,752 368,752 368,752" /><polygon points="368,752 368,752 592,752 592,752" /><polygon points="592,752 592,752 752,752 752,752" /><polygon points="-752,528 -752,528 -752,592 -752,752 -752,752" /><polygon points="-752,304 -752,304 -752,368 -752,528 -752,528" /><polygon points="-752,80 -752,80 -752,144 -752,304 -752,304" /><polygon points="-752,-144 -752,-144 -752,-80 -752,80 -752,80" /><polygon points="-752,-368 -752,-368 -752,-304 -752,-144 -752,-144" /><polygon points="-752,-592 -752,-592 -752,-528 -752,-368 -752,-368" /><polygon points="-752,-752 -752,-752 -752,-592 -752,-592" /><polygon points="176,34.738 176,34.738 176,-33.0256 176,-33.0256" /><polygon points="34.738,-176 34.738,-176 -33.0256,-176 -33.0256,-176" /><polygon points="176,-33.0256 176,-33.0256 147.8499,-99.431 147.8499,-99.431 147.8499,-99.431" /><polygon points="34.738,-176 34.738,-176 74.4385,-160 96.1958,-151.2314 96.1958,-151.2314" /><polygon points="-34.738,176 -34.738,176 32,176 33.0256,176 33.0256,176" /><polygon points="176,34.738 176,34.738 160,74.4385 151.2314,96.1958 151.2314,96.1958" /><polygon points="99.431,147.8499 99.431,147.8499 70.7692,160 33.0256,176 33.0256,176" /><polygon points="-176,-34.738 -176,-34.738 -176,33.0256 -176,33.0256" /><polygon points="-148.0566,98.9434 -148.0566,98.9434 -160,70.7692 -176,33.0256 -176,33.0256" /><polygon points="-95.4801,151.5199 -95.4801,151.5199 -95.4801,151.5199 -34.738,176 -34.738,176" /><polygon points="-33.0256,-176 -33.0256,-176 -70.7692,-160 -98.9434,-148.0566 -98.9434,-148.0566 -98.9434,-148.0566" /><polygon points="-151.5199,-95.4801 -151.5199,-95.4801 -151.5199,-95.4801 -176,-34.738 -176,-34.738" /><polygon points="96.1958,-151.2314 96.1958,-151.2314 96.1958,-151.2314 147.8499,-99.431 147.8499,-99.431 147.8499,-99.431" /><polygon points="160,-30.5102 160,-30.5102 134.3939,-90.6061 134.3939,-90.6061" /><polygon points="134.3939,-90.6061 134.3939,-90.6061 87.4203,-137.5797 87.4203,-137.5797" /><polygon points="87.4203,-137.5797 87.4203,-137.5797 32.0851,-160 32.0851,-160" /><polygon points="160,-30.5102 160,-30.5102 160,32.2567 160,32.2567" /><polygon points="160,65 160,65 160,65.1841 160,65.1841" /><polygon points="91.2662,134.1127 91.2662,134.1127 160,65.1841 160,65.1841" /><polygon points="151.2314,96.1958 151.2314,96.1958 151.2314,96.1958 99.431,147.8499 99.431,147.8499 99.431,147.8499" /><polygon points="137.8953,87.1047 137.8953,87.1047 160,32.2567 160,32.2567" /><polygon points="160,65 160,65 137.8953,87.1047 137.8953,87.1047" /><polygon points="30.5102,160 30.5102,160 90.6061,134.3939 91.2662,134.1127 91.2662,134.1127" /><polygon points="-32.2567,160 -32.2567,160 30.5102,160 30.5102,160" /><polygon points="-95.4801,151.5199 -95.4801,151.5199 -95.4801,151.5199 -148.0566,98.9434 -148.0566,98.9434 -148.0566,98.9434" /><polygon points="-160,30.6667 -160,30.6667 -134.4564,90.9235 -134.4564,90.9235" /><polygon points="-87.5188,137.7284 -87.5188,137.7284 -32.2567,160 -32.2567,160" /><polygon points="-134.4564,90.9235 -134.4564,90.9235 -87.5188,137.7284 -87.5188,137.7284" /><polygon points="-30.6667,-160 -30.6667,-160 32.0851,-160 32.0851,-160" /><polygon points="-160,-32.0851 -160,-32.0851 -160,30.6667 -160,30.6667" /><polygon points="-90.7089,-134.5473 -90.7089,-134.5473 -137.3155,-88.0724 -137.3155,-88.0724" /><polygon points="-151.5199,-95.4801 -151.5199,-95.4801 -151.5199,-95.4801 -98.9434,-148.0566 -98.9434,-148.0566 -98.9434,-148.0566" /><polygon points="-137.3155,-88.0724 -137.3155,-88.0724 -160,-32.0851 -160,-32.0851" /><polygon points="-30.6667,-160 -30.6667,-160 -90.7089,-134.5473 -90.7089,-134.5473" /><polygon points="-528,-752 -528,-752 -752,-752 -752,-752" /><polygon points="-304,-752 -304,-752 -528,-752 -528,-752" /><polygon points="-80,-752 -80,-752 -304,-752 -304,-752" /><polygon points="144,-752 144,-752 -80,-752 -80,-752" /><polygon points="368,-752 368,-752 144,-752 144,-752" /><polygon points="592,-752 592,-752 368,-752 368,-752" /><polygon points="752,-752 752,-752 592,-752 592,-752" /><polygon points="752,752 752,752 752,528 752,528" /><polygon points="752,528 752,528 752,304 752,304" /><polygon points="752,304 752,304 752,80 752,80" /><polygon points="752,80 752,80 752,-144 752,-144" /><polygon points="752,-144 752,-144 752,-368 752,-368" /><polygon points="752,-368 752,-368 752,-592 752,-592" /><polygon points="752,-592 752,-592 752,-752 752,-752" /><polygon points="-752,752 -752,752 -528,752 -528,752" /><polygon points="-528,752 -528,752 -304,752 -304,752" /><polygon points="-304,752 -304,752 -80,752 -80,752" /><polygon points="-80,752 -80,752 144,752 144,752" /><polygon points="144,752 144,752 368,752 368,752" /><polygon points="368,752 368,752 592,752 592,752" /><polygon points="592,752 592,752 752,752 752,752" /><polygon points="-752,528 -752,528 -752,752 -752,752" /><polygon points="-752,304 -752,304 -752,528 -752,528" /><polygon points="-752,80 -752,80 -752,304 -752,304" /><polygon points="-752,-144 -752,-144 -752,80 -752,80" /><polygon points="-752,-368 -752,-368 -752,-144 -752,-144" /><polygon points="-752,-592 -752,-592 -752,-368 -752,-368" /><polygon points="-752,-752 -752,-752 -752,-592 -752,-592" /><polygon points="537.2075,-362.7924 537.2075,-362.7924 351.769,-548.231 351.769,-548.231" /><polygon points="362.7924,537.2075 362.7924,537.2075 546.9565,353.0435 546.9565,353.0435" /><polygon points="562.6232,314.3768 546.9565,353.0435 546.9565,353.0435 624,162.8936 624,162.8936" /><polygon points="66.7551,-640 -119.6939,-640 -157.2449,-624 -117.9487,-624 52.931,-624 66.7551,-624" /><polygon points="163.7647,-624 124.0642,-640 104.3061,-640 66.7551,-640 66.7551,-624" /><polygon points="-552.9091,324.0909 -609.1913,192 -624,157.2449 -624,157.2449 -535.8333,364.1667 -535.8333,364.1667" /><polygon points="640,65.9487 640,-100.5957 640,-120.3077 624,-158.0513 624,-117.9487 624,-30.1299 624,65.9487" /><polygon points="624,121.5829 624,162.8936 640,123.4043 640,65.9487 624,65.9487" /><polygon points="-619.069,-176 -585.4991,-259.2963 -563.1579,-314.7311 -548.231,-351.769 -548.231,-351.769 -624,-163.7647 -624,-163.7647" /><polygon points="553.4576,-324.4589 624,-158.0513 624,-158.0513 537.2075,-362.7924 537.2075,-362.7924" /><polygon points="-168.3019,-619.2888 -157.2449,-624 -157.2449,-624 -364.1667,-535.8333 -364.1667,-535.8333" /><polygon points="-380.2455,519.7545 -535.8333,364.1667 -535.8333,364.1667 -353.0435,546.9565 -353.0435,546.9565" /><polygon points="176,-619.069 314.7311,-563.1579 315.9044,-562.6851 351.769,-548.231 351.769,-548.231 315.9044,-562.6851 314.7311,-563.1579 163.7647,-624 163.7647,-624" /><polygon points="-353.0435,546.9565 -353.0435,546.9565 -162.8936,624 -162.8936,624" /><polygon points="-392.3019,-507.6981 -364.1667,-535.8333 -364.1667,-535.8333 -548.231,-351.769 -548.231,-351.769" /><polygon points="-168.3019,-619.2888 -364.1667,-535.8333 -392.3019,-507.6981 -354.9445,-523.5344 -171.069,-601.4816 -168.3019,-602.6547" /><polygon points="-117.9487,-624 -157.2449,-624 -168.3019,-619.2888 -168.3019,-602.6547" /><polygon points="439.1202,-439.1202 523.8865,-354.1138 553.4576,-324.4589 537.2075,-362.7924 351.769,-548.231 315.9044,-562.6851" /><polygon points="566.271,-254.1299 624,-117.9487 624,-158.0513 553.4576,-324.4589 523.8865,-354.1138" /><polygon points="400,-478.1299 439.1202,-439.1202 315.9044,-562.6851 314.7311,-563.1579" /><polygon points="546.9565,353.0435 562.6232,314.3768 535.2816,341.7184 459.1299,417.8701 400,477 376.069,500.931 322.8679,554.1321 362.7924,537.2075" /><polygon points="562.6232,314.3768 624,162.8936 624,121.5829 594.867,193.8701 535.2816,341.7184" /><polygon points="400,-478.1299 314.7311,-563.1579 176,-619.069 176,-400 176,-395.069 400,-395.069" /><polygon points="176,-395.069 176,-176 176,-171.069 400,-171.069 400,-254.1299 400,-395.069" /><polygon points="176,-171.069 176,-72 176,-33.0256 176,34.738 176,52.931 400,52.931 400,-30.1299 400,-171.069" /><polygon points="176,52.931 176,71.4972 176,72.204 176,176 176,276.931 400,276.931 400,193.8701 400,52.931" /><polygon points="176,276.931 176,400 176,500.931 376.069,500.931 400,477 400,417.8701 400,276.931" /><polygon points="176,500.931 176,599.3913 176,616.3913 322.8679,554.1321 376.069,500.931" /><polygon points="566.271,-254.1299 523.8865,-354.1138 439.1202,-439.1202 400,-478.1299 400,-395.069 400,-254.1299" /><polygon points="624,-30.1299 624,-117.9487 566.271,-254.1299 400,-254.1299 400,-171.069 400,-30.1299" /><polygon points="624,121.5829 624,65.9487 624,-30.1299 400,-30.1299 400,52.931 400,193.8701 594.867,193.8701" /><polygon points="400,193.8701 400,276.931 400,417.8701 459.1299,417.8701 535.2816,341.7184 594.867,193.8701" /><polygon points="400,417.8701 400,477 459.1299,417.8701" /><polygon points="-395.069,-377.4816 -395.069,-483.2963 -563.1579,-314.7311 -585.4991,-259.2963 -395.069,-259.2963" /><polygon points="-585.4991,-259.2963 -619.069,-176 -602.069,-176 -395.069,-176 -395.069,-259.2963" /><polygon points="-171.069,-400 -171.069,-601.4816 -354.9445,-523.5344 -395.069,-483.2963 -395.069,-377.4816 -171.069,-377.4816" /><polygon points="-395.069,-377.4816 -395.069,-259.2963 -395.069,-176 -384.5172,-176 -176,-176 -171.069,-176 -171.069,-377.4816" /><polygon points="52.931,-624 -117.9487,-624 -168.3019,-602.6547 -171.069,-601.4816 -171.069,-400 52.931,-400" /><polygon points="-171.069,-400 -171.069,-377.4816 -171.069,-176 -72,-176 -33.0256,-176 34.738,-176 52.931,-176 52.931,-400" /><polygon points="176,-400 176,-619.069 163.7647,-624 66.7551,-624 52.931,-624 52.931,-400" /><polygon points="72,-176 176,-176 176,-395.069 176,-400 52.931,-400 52.931,-176" /><polygon points="147.3208,-100.6792 97.1552,-150.8448 97.1552,-150.8448 147.3208,-100.6792" /><polygon points="97.1552,-150.8448 147.3208,-100.6792 176,-72 176,-171.069 176,-176 72,-176" /><polygon points="147.8499,-99.431 147.3208,-100.6792 147.3208,-100.6792 147.8499,-99.431" /><polygon points="147.8499,-99.431 176,-33.0256 176,-72 147.3208,-100.6792" /><polygon points="34.738,-176 34.738,-176 96.1958,-151.2314 96.1958,-151.2314 96.1958,-151.2314" /><polygon points="72,-176 52.931,-176 34.738,-176 96.1958,-151.2314 97.1552,-150.8448" /><polygon points="147.8499,-99.431 147.8499,-99.431 147.8499,-99.431 117.7888,-129.5772 96.1958,-151.2314 96.1958,-151.2314 96.1958,-151.2314 96.1958,-151.2314 147.8499,-99.431" /><polygon points="160,88.2493 176,72.204 176,72.204 160,88.2493 101.4001,147.0152 101.4001,147.0152" /><polygon points="160,88.2493 101.4001,147.0152 72.4972,176 160,176" /><polygon points="176,72.204 160,88.2493 160,176 176,176" /><polygon points="176,34.738 176,34.738 151.2314,96.1958 151.2314,96.1958 151.2314,96.1958" /><polygon points="176,71.4972 176,52.931 176,34.738 151.2314,96.1958" /><polygon points="99.431,147.8499 99.431,147.8499 99.431,147.8499 33.0256,176 33.0256,176" /><polygon points="99.431,147.8499 101.4001,147.0152 101.4001,147.0152 99.431,147.8499" /><polygon points="99.431,147.8499 99.431,147.8499 99.431,147.8499 151.2314,96.1958 151.2314,96.1958 151.2314,96.1958 151.2314,96.1958 99.431,147.8499" /><polygon points="-147.1104,101.1754 -97.8677,150.5576 -97.8677,150.5576 -147.1104,101.1754" /><polygon points="-148.0566,98.9434 -147.1104,101.1754 -147.1104,101.1754 -148.0566,98.9434" /><polygon points="-148.0566,98.9434 -148.0566,98.9434 -148.0566,98.9434 -176,33.0256 -176,33.0256" /><polygon points="-148.0566,98.9434 -148.0566,98.9434 -148.0566,98.9434 -95.4801,151.5199 -95.4801,151.5199 -95.4801,151.5199 -95.4801,151.5199 -148.0566,98.9434" /><polygon points="-100.6792,-147.3208 -150.8448,-97.1552 -150.8448,-97.1552 -100.6792,-147.3208" /><polygon points="-98.9434,-148.0566 -100.6792,-147.3208 -100.6792,-147.3208 -98.9434,-148.0566" /><polygon points="-70.7692,-160 -33.0256,-176 -72,-176 -88,-160" /><polygon points="-88,-160 -100.6792,-147.3208 -98.9434,-148.0566 -70.7692,-160" /><polygon points="-98.9434,-148.0566 -98.9434,-148.0566 -98.9434,-148.0566 -151.5199,-95.4801 -151.5199,-95.4801 -151.5199,-95.4801 -151.5199,-95.4801 -98.9434,-148.0566" /><polygon points="-151.5199,-95.4801 -150.8448,-97.1552 -176,-72 -176,-34.738" /><polygon points="-176,-160 -176,-72 -150.8448,-97.1552 -100.6792,-147.3208 -88,-160" /><polygon points="-72,-176 -171.069,-176 -176,-176 -176,-160 -88,-160" /><polygon points="-95.4801,151.5199 -97.8677,150.5576 -72.4972,176 -34.738,176" /><polygon points="-148.0566,98.9434 -176,33.0256 -176,64 -176,72.204 -147.1104,101.1754" /><polygon points="-97.8677,150.5576 -147.1104,101.1754 -176,72.204 -176,176 -72.4972,176" /><polygon points="-384.5172,-176 -395.069,-176 -602.069,-176 -608.5172,-160 -400,-160 -384.5172,-160" /><polygon points="-176,-176 -384.5172,-176 -384.5172,-160 -192,-160 -176,-160" /><polygon points="-176,64 -176,33.0256 -176,-34.738 -176,-72 -176,-160 -192,-160 -192,64" /><polygon points="-192,176 -176,176 -176,72.204 -176,64 -192,64" /><polygon points="-400,-160 -608.5172,-160 -624,-121.5829 -624,60.2353 -624,64 -400,64" /><polygon points="-624,64 -624,117.9487 -599.3913,176 -400,176 -400,64" /><polygon points="-192,64 -192,-160 -384.5172,-160 -400,-160 -400,64" /><polygon points="-375.3913,176 -192,176 -192,64 -400,64 -400,176" /><polygon points="99.431,147.8499 33.0256,176 72.4972,176 101.4001,147.0152" /><polygon points="160,176 160,192 160,400 176,400 176,276.931 176,176" /><polygon points="160,400 160,416 160,606.1739 176,599.3913 176,500.931 176,400" /><polygon points="32,176 -34.738,176 -72.4972,176 -176,176 -192,176 -192,192 -144.6087,192 32,192" /><polygon points="79.3913,192 160,192 160,176 72.4972,176 33.0256,176 32,176 32,192" /><polygon points="-592.6087,192 -375.3913,192 -375.3913,176 -400,176 -599.3913,176" /><polygon points="-375.3913,192 -368.6087,192 -192,192 -192,176 -375.3913,176" /><polygon points="-368.6087,192 -375.3913,192 -592.6087,192 -524.6226,352.3773 -461,416 -368.6087,416" /><polygon points="-461,416 -368.6087,508.3913 -368.6087,416" /><polygon points="-144.6087,192 -192,192 -368.6087,192 -368.6087,416 -144.6087,416" /><polygon points="-368.6087,416 -368.6087,508.3913 -341.7184,535.2816 -156.2455,610.0304 -144.6087,614.7202 -144.6087,416" /><polygon points="79.3913,192 32,192 -144.6087,192 -144.6087,416 79.3913,416" /><polygon points="-144.6087,416 -144.6087,614.7202 -121.5829,624 61.1064,624 79.3913,624 79.3913,416" /><polygon points="160,416 160,400 160,192 79.3913,192 79.3913,416" /><polygon points="160,606.1739 160,416 79.3913,416 79.3913,624 117.9487,624" /><polygon points="-608.5172,-160 -624,-160 -624,-121.5829" /><polygon points="-602.069,-176 -619.069,-176 -624,-163.7647 -624,-160 -608.5172,-160" /><polygon points="160,606.1739 160,623.1739 176,616.3913 176,599.3913" /><polygon points="158.0513,624 160,623.1739 160,606.1739 117.9487,624" /><polygon points="-592.6087,192 -609.1913,192 -552.9091,324.0909 -524.6226,352.3773" /><polygon points="-609.1913,192 -592.6087,192 -599.3913,176 -624,117.9487 -624,157.2449" /><polygon points="-395.069,-483.2963 -354.9445,-523.5344 -392.3019,-507.6981 -548.231,-351.769 -563.1579,-314.7311" /><polygon points="-368.6087,508.3913 -461,416 -524.6226,352.3773 -552.9091,324.0909 -535.8333,364.1667 -380.2455,519.7545 -341.7184,535.2816" /><polygon points="-341.7184,535.2816 -380.2455,519.7545 -353.0435,546.9565 -162.8936,624 -156.2455,624 -156.2455,610.0304" /><polygon points="-156.2455,624 -121.5829,624 -144.6087,614.7202 -156.2455,610.0304" /><polygon points="-624,-121.5829 -624,-160 -624,-163.7647 -640,-124.0642 -640,-104.3061 -640,60.2353 -624,60.2353" /><polygon points="-640,60.2353 -640,119.6939 -624,157.2449 -624,117.9487 -624,64 -624,60.2353" /><polygon points="61.1064,624 -121.5829,624 -156.2455,624 -162.8936,624 -123.4043,640 61.1064,640" /><polygon points="100.5957,640 120.3077,640 158.0513,624 117.9487,624 79.3913,624 61.1064,624 61.1064,640" /><polygon points="362.7924,537.2075 362.7924,537.2075 322.8679,554.1321 176,616.3913 160,623.1739 158.0513,624 158.0513,624" /><polygon points="400,-478.1299 343.3431,-534.6268 314.7311,-563.1579 315.9044,-562.6851 439.1202,-439.1202" /><polygon points="176,34.738 176,34.738 176,7.0408 176,-33.0256 176,-33.0256" /><polygon points="176,71.4972 176,72.204 176,72.204 176,71.4972" /><polygon points="176,-378.069 176,-400 176,-602.069 343.3431,-534.6268 400,-478.1299 400,-378.069" /><polygon points="176,-154.069 176,-176 176,-378.069 400,-378.069 400,-254.1299 400,-154.069" /><polygon points="176,69.931 176,34.738 176,-33.0256 176,-72 176,-154.069 400,-154.069 400,-30.1299 400,69.931" /><polygon points="176,293.931 176,176 176,72.204 176,71.4972 176,69.931 400,69.931 400,193.8701 400,293.931" /><polygon points="400,417.8701 400,477 359.069,517.931 176,517.931 176,400 176,293.931 400,293.931" /><polygon points="359.069,517.931 352.3773,524.6226 176,599.3913 176,517.931" /><polygon points="439.1202,-439.1202 523.8865,-354.1138 566.271,-254.1299 400,-254.1299 400,-378.069 400,-478.1299" /><polygon points="566.271,-254.1299 624,-117.9487 624,-30.1299 400,-30.1299 400,-154.069 400,-254.1299" /><polygon points="624,-30.1299 624,121.5829 594.867,193.8701 400,193.8701 400,69.931 400,-30.1299" /><polygon points="594.867,193.8701 535.2816,341.7184 459.1299,417.8701 400,417.8701 400,293.931 400,193.8701" /><polygon points="459.1299,417.8701 400,477 400,417.8701" /><polygon points="34.738,-176 34.738,-176 -7.4043,-176 -33.0256,-176 -33.0256,-176" /><polygon points="-561.6284,-276.3444 -534.6268,-343.3431 -378.069,-500.3444 -378.069,-384.6882 -378.069,-276.3444" /><polygon points="-378.069,-176 -384.5172,-176 -602.069,-176 -561.6284,-276.3444 -378.069,-276.3444" /><polygon points="-378.069,-384.6882 -378.069,-500.3444 -354.9445,-523.5344 -154.069,-608.6882 -154.069,-400 -154.069,-384.6882" /><polygon points="-154.069,-176 -176,-176 -378.069,-176 -378.069,-276.3444 -378.069,-384.6882 -154.069,-384.6882" /><polygon points="-154.069,-400 -154.069,-608.6882 -117.9487,-624 69.931,-624 69.931,-400" /><polygon points="69.931,-176 34.738,-176 -33.0256,-176 -72,-176 -154.069,-176 -154.069,-384.6882 -154.069,-400 69.931,-400" /><polygon points="176,-602.069 176,-400 69.931,-400 69.931,-624 121.5829,-624" /><polygon points="176,-400 176,-378.069 176,-176 72,-176 69.931,-176 69.931,-400" /><polygon points="176,-176 176,-154.069 176,-72 147.3208,-100.6792 97.1552,-150.8448 72,-176" /><polygon points="176,-33.0256 176,-33.0256 160,-70.7692 147.8499,-99.431 147.8499,-99.431" /><polygon points="176,-72 176,-33.0256 147.8499,-99.431 147.3208,-100.6792" /><polygon points="97.1552,-150.8448 97.1552,-150.8448 96.1958,-151.2314 96.1958,-151.2314" /><polygon points="96.1958,-151.2314 34.738,-176 69.931,-176 72,-176 97.1552,-150.8448" /><polygon points="32,176 -34.738,176 -34.738,176 33.0256,176 33.0256,176" /><polygon points="88.452,160 160,160 160,176 72.4972,176" /><polygon points="88.452,160 101.4001,147.0152 160,88.2493 160,160" /><polygon points="160,176 160,160 160,88.2493 176,72.204 176,176" /><polygon points="176,34.738 176,69.931 176,71.4972 151.2314,96.1958" /><polygon points="176,71.4972 176,71.4972 151.2314,96.1958 151.2314,96.1958" /><polygon points="-176,-34.738 -176,-34.738 -176,33.0256 -176,33.0256" /><polygon points="-74.4385,160 -95.4801,151.5199 -95.4801,151.5199 -74.4385,160 -34.738,176 -34.738,176" /><polygon points="-97.8677,150.5576 -97.8677,150.5576 -95.4801,151.5199 -95.4801,151.5199" /><polygon points="-33.0256,-176 -33.0256,-176 -70.7692,-160 -98.9434,-148.0566 -98.9434,-148.0566" /><polygon points="-88,-160 -72,-176 -33.0256,-176 -98.9434,-148.0566 -100.6792,-147.3208" /><polygon points="-150.8448,-97.1552 -150.8448,-97.1552 -151.5199,-95.4801 -151.5199,-95.4801" /><polygon points="-160,-74.4385 -151.5199,-95.4801 -151.5199,-95.4801 -160,-74.4385 -176,-34.738 -176,-34.738" /><polygon points="-160,-88 -150.8448,-97.1552 -151.5199,-95.4801 -160,-74.4385" /><polygon points="-160,-88 -160,-74.4385 -176,-34.738 -176,-72" /><polygon points="-176,-160 -160,-160 -160,-88 -176,-72" /><polygon points="-88,-160 -100.6792,-147.3208 -150.8448,-97.1552 -160,-88 -160,-160" /><polygon points="-176,-176 -154.069,-176 -72,-176 -88,-160 -160,-160 -176,-160" /><polygon points="-74.4385,160 -34.738,176 -72.4972,176 -88.452,160" /><polygon points="-88.452,160 -97.8677,150.5576 -95.4801,151.5199 -74.4385,160" /><polygon points="-160,70.7692 -148.0566,98.9434 -147.1104,101.1754 -160,88.2493" /><polygon points="-176,72.204 -176,64 -176,33.0256 -160,70.7692 -160,88.2493" /><polygon points="-72.4972,176 -176,176 -176,160 -160,160 -88.452,160" /><polygon points="-160,160 -176,160 -176,72.204 -160,88.2493" /><polygon points="-160,88.2493 -147.1104,101.1754 -97.8677,150.5576 -88.452,160 -160,160" /><polygon points="-400,-160 -608.5172,-160 -602.069,-176 -384.5172,-176 -384.5172,-160" /><polygon points="-384.5172,-176 -378.069,-176 -176,-176 -176,-160 -192,-160 -384.5172,-160" /><polygon points="-192,64 -192,-160 -176,-160 -176,-72 -176,-34.738 -176,33.0256 -176,64" /><polygon points="-176,72.204 -176,160 -192,160 -192,64 -176,64" /><polygon points="-176,176 -192,176 -192,160 -176,160" /><polygon points="-624,64 -624,-121.5829 -608.5172,-160 -400,-160 -400,64" /><polygon points="-624,117.9487 -624,64 -400,64 -400,176 -599.3913,176" /><polygon points="-400,-160 -384.5172,-160 -192,-160 -192,64 -400,64" /><polygon points="-192,64 -192,160 -192,176 -375.3913,176 -400,176 -400,64" /><polygon points="70.7692,160 99.431,147.8499 101.4001,147.0152 88.452,160" /><polygon points="33.0256,176 70.7692,160 88.452,160 72.4972,176" /><polygon points="160,400 160,192 160,176 176,176 176,293.931 176,400" /><polygon points="176,517.931 176,599.3913 160,606.1739 160,416 160,400 176,400" /><polygon points="32,192 -144.6087,192 -192,192 -192,176 -176,176 -72.4972,176 -34.738,176 32,176" /><polygon points="33.0256,176 72.4972,176 160,176 160,192 79.3913,192 32,192 32,176" /><polygon points="-375.3913,192 -592.6087,192 -599.3913,176 -400,176 -375.3913,176" /><polygon points="-192,176 -192,192 -368.6087,192 -375.3913,192 -375.3913,176" /><polygon points="-461,416 -524.6226,352.3773 -592.6087,192 -375.3913,192 -368.6087,192 -368.6087,416" /><polygon points="-368.6087,508.3913 -461,416 -368.6087,416" /><polygon points="-368.6087,416 -368.6087,192 -192,192 -144.6087,192 -144.6087,416" /><polygon points="-144.6087,614.7202 -341.7184,535.2816 -368.6087,508.3913 -368.6087,416 -144.6087,416" /><polygon points="-144.6087,416 -144.6087,192 32,192 79.3913,192 79.3913,416" /><polygon points="79.3913,624 -121.5829,624 -144.6087,614.7202 -144.6087,416 79.3913,416" /><polygon points="160,192 160,400 160,416 79.3913,416 79.3913,192" /><polygon points="160,416 160,606.1739 117.9487,624 79.3913,624 79.3913,416" /><polygon points="74.4385,-160 58.6282,-166.3718 34.738,-176 34.738,-176 96.1958,-151.2314 96.1958,-151.2314" /><polygon points="134.3939,-90.6061 160,-30.5102 160,-30.5102 134.3939,-90.6061" /><polygon points="160,-65 134.3939,-90.6061 117.7888,-129.5772 147.8499,-99.431 160,-70.7692" /><polygon points="160,-30.5102 160,-65 160,-70.7692 176,-33.0256 176,7.0408" /><polygon points="160,-30.5102 134.3939,-90.6061 160,-65" /><polygon points="87.4203,-137.5797 134.3939,-90.6061 134.3939,-90.6061 87.4203,-137.5797" /><polygon points="74.4385,-160 65,-160 58.6282,-166.3718" /><polygon points="134.3939,-90.6061 87.4203,-137.5797 65,-160 74.4385,-160 96.1958,-151.2314 117.7888,-129.5772" /><polygon points="32.0851,-160 87.4203,-137.5797 87.4203,-137.5797 32.0851,-160" /><polygon points="65,-160 32.0851,-160 -7.4043,-176 34.738,-176 58.6282,-166.3718" /><polygon points="87.4203,-137.5797 32.0851,-160 65,-160" /><polygon points="160,65 137.8953,87.1047 160,32.2567" /><polygon points="70.7692,160 65.452,160 91.2662,134.1127 160,65.1841 160,74.4385 151.2314,96.1958 99.431,147.8499" /><polygon points="-70.7692,-160 -65.1841,-160 -90.7089,-134.5473 -137.3155,-88.0724 -160,-65.452 -160,-74.4385 -151.5199,-95.4801 -98.9434,-148.0566" /><polygon points="-160,-74.4385 -160,-65.452 -160,-32.0851 -160,30.6667 -160,65.452 -160,70.7692 -176,33.0256 -176,-34.738" /><polygon points="-160,70.7692 -160,65.452 -134.4564,90.9235 -87.5188,137.7284 -65.1841,160 -74.4385,160 -95.4801,151.5199 -148.0566,98.9434" /><polygon points="-74.4385,160 -65.1841,160 -32.2567,160 30.5102,160 65.452,160 70.7692,160 33.0256,176 -34.738,176" /><polygon points="-65.1841,160 -87.5188,137.7284 -32.2567,160" /><polygon points="-160,30.6667 -134.4564,90.9235 -160,65.452" /><polygon points="-160,-65.452 -137.3155,-88.0724 -160,-32.0851" /><polygon points="32.0851,-160 -30.6667,-160 -65.1841,-160 -70.7692,-160 -33.0256,-176 -7.4043,-176" /><polygon points="30.5102,160 91.2662,134.1127 65.452,160" /><polygon points="160,74.4385 160,65.1841 160,65 160,32.2567 160,-30.5102 176,7.0408 176,34.738" /><polygon points="-30.6667,-160 -90.7089,-134.5473 -65.1841,-160" /><polygon points="117.9487,624 117.9487,624 160,606.1739 176,599.3913 176,599.3913" /><polygon points="-602.069,-176 -602.069,-176 -608.5172,-160 -624,-121.5829 -624,-121.5829" /><polygon points="160,74.4385 176,34.738 176,34.738 151.2314,96.1958 151.2314,96.1958" /><polygon points="70.7692,160 99.431,147.8499 99.431,147.8499 70.7692,160 33.0256,176 33.0256,176" /><polygon points="160,65.1841 91.2662,134.1127 91.2662,134.1127 160,65.1841" /><polygon points="160,32.2567 137.8953,87.1047 137.8953,87.1047 160,32.2567" /><polygon points="137.8953,87.1047 160,65 160,65 137.8953,87.1047" /><polygon points="91.2662,134.1127 30.5102,160 30.5102,160 91.2662,134.1127" /><polygon points="-160,70.7692 -148.0566,98.9434 -148.0566,98.9434 -160,70.7692 -176,33.0256 -176,33.0256" /><polygon points="30.5102,160 -32.2567,160 -32.2567,160 30.5102,160" /><polygon points="-134.4564,90.9235 -160,30.6667 -160,30.6667 -134.4564,90.9235" /><polygon points="-32.2567,160 -87.5188,137.7284 -87.5188,137.7284 -32.2567,160" /><polygon points="-87.5188,137.7284 -134.4564,90.9235 -134.4564,90.9235 -87.5188,137.7284" /><polygon points="-160,30.6667 -160,-32.0851 -160,-32.0851 -160,30.6667" /><polygon points="-137.3155,-88.0724 -90.7089,-134.5473 -90.7089,-134.5473 -137.3155,-88.0724" /><polygon points="-160,-32.0851 -137.3155,-88.0724 -137.3155,-88.0724 -160,-32.0851" /><polygon points="-90.7089,-134.5473 -30.6667,-160 -30.6667,-160 -90.7089,-134.5473" /><polygon points="-528,-752 -528,-752 -752,-752 -752,-752" /><polygon points="-304,-752 -304,-752 -528,-752 -528,-752" /><polygon points="-80,-752 -80,-752 -304,-752 -304,-752" /><polygon points="144,-752 144,-752 -80,-752 -80,-752" /><polygon points="368,-752 368,-752 144,-752 144,-752" /><polygon points="592,-752 592,-752 368,-752 368,-752" /><polygon points="752,-752 752,-752 592,-752 592,-752" /><polygon points="752,752 752,752 752,528 752,528" /><polygon points="752,528 752,528 752,304 752,304" /><polygon points="752,304 752,304 752,80 752,80" /><polygon points="752,80 752,80 752,-144 752,-144" /><polygon points="752,-144 752,-144 752,-368 752,-368" /><polygon points="752,-368 752,-368 752,-592 752,-592" /><polygon points="752,-592 752,-592 752,-752 752,-752" /><polygon points="-752,752 -752,752 -528,752 -528,752" /><polygon points="-528,752 -528,752 -304,752 -304,752" /><polygon points="-304,752 -304,752 -80,752 -80,752" /><polygon points="-80,752 -80,752 144,752 144,752" /><polygon points="144,752 144,752 368,752 368,752" /><polygon points="368,752 368,752 592,752 592,752" /><polygon points="592,752 592,752 752,752 752,752" /><polygon points="-752,528 -752,528 -752,752 -752,752" /><polygon points="-752,304 -752,304 -752,528 -752,528" /><polygon points="-752,80 -752,80 -752,304 -752,304" /><polygon points="-752,-144 -752,-144 -752,80 -752,80" /><polygon points="-752,-368 -752,-368 -752,-144 -752,-144" /><polygon points="-752,-592 -752,-592 -752,-368 -752,-368" /><polygon points="-752,-752 -752,-752 -752,-592 -752,-592" /><polygon points="351.769,-548.231 351.769,-548.231 537.2075,-362.7924 537.2075,-362.7924" /><polygon points="546.9565,353.0435 546.9565,353.0435 362.7924,537.2075 362.7924,537.2075" /><polygon points="640,-100.5957 640,-100.5957 640,65.9487 640,123.4043 640,123.4043" /><polygon points="640,-120.3077 640,-120.3077 640,-100.5957 640,-100.5957" /><polygon points="624,162.8936 624,162.8936 546.9565,353.0435 546.9565,353.0435" /><polygon points="640,123.4043 640,123.4043 624,162.8936 624,162.8936 624,162.8936" /><polygon points="-640,119.6939 -640,119.6939 -640,60.2353 -640,-104.3061 -640,-104.3061" /><polygon points="-640,-104.3061 -640,-104.3061 -640,-124.0642 -640,-124.0642" /><polygon points="121.5829,-624 121.5829,-624 69.931,-624 -117.9487,-624 -117.9487,-624" /><polygon points="-119.6939,-640 -119.6939,-640 66.7551,-640 104.3061,-640 104.3061,-640" /><polygon points="104.3061,-640 104.3061,-640 124.0642,-640 124.0642,-640" /><polygon points="-157.2449,-624 -157.2449,-624 -157.2449,-624 -119.6939,-640 -119.6939,-640" /><polygon points="124.0642,-640 124.0642,-640 163.7647,-624 163.7647,-624 163.7647,-624" /><polygon points="-121.5829,624 -121.5829,624 79.3913,624 117.9487,624 117.9487,624 117.9487,624" /><polygon points="-624,-121.5829 -624,-121.5829 -624,-121.5829 -624,64 -624,117.9487 -624,117.9487" /><polygon points="-535.8333,364.1667 -535.8333,364.1667 -624,157.2449 -624,157.2449" /><polygon points="624,121.5829 624,121.5829 624,-30.1299 624,-117.9487 624,-117.9487" /><polygon points="624,-158.0513 624,-158.0513 624,-158.0513 640,-120.3077 640,-120.3077" /><polygon points="-624,-163.7647 -624,-163.7647 -548.231,-351.769 -548.231,-351.769" /><polygon points="537.2075,-362.7924 537.2075,-362.7924 624,-158.0513 624,-158.0513" /><polygon points="-364.1667,-535.8333 -364.1667,-535.8333 -157.2449,-624 -157.2449,-624" /><polygon points="-353.0435,546.9565 -353.0435,546.9565 -535.8333,364.1667 -535.8333,364.1667" /><polygon points="315.9044,-562.6851 315.9044,-562.6851 351.769,-548.231 351.769,-548.231" /><polygon points="163.7647,-624 163.7647,-624 314.7311,-563.1579 314.7311,-563.1579" /><polygon points="-162.8936,624 -162.8936,624 -353.0435,546.9565 -353.0435,546.9565" /><polygon points="-548.231,-351.769 -548.231,-351.769 -364.1667,-535.8333 -364.1667,-535.8333" /><polygon points="362.7924,537.2075 362.7924,537.2075 158.0513,624 158.0513,624" /><polygon points="-117.9487,-624 -117.9487,-624 -154.069,-608.6882 -354.9445,-523.5344 -354.9445,-523.5344" /><polygon points="523.8865,-354.1138 523.8865,-354.1138 439.1202,-439.1202 315.9044,-562.6851 315.9044,-562.6851" /><polygon points="624,-117.9487 624,-117.9487 566.271,-254.1299 523.8865,-354.1138 523.8865,-354.1138" /><polygon points="314.7311,-563.1579 314.7311,-563.1579 343.3431,-534.6268 343.3431,-534.6268" /><polygon points="-341.7184,535.2816 -341.7184,535.2816 -144.6087,614.7202 -121.5829,624 -121.5829,624" /><polygon points="352.3773,524.6226 352.3773,524.6226 359.069,517.931 400,477 459.1299,417.8701 535.2816,341.7184 535.2816,341.7184" /><polygon points="535.2816,341.7184 535.2816,341.7184 594.867,193.8701 624,121.5829 624,121.5829" /><polygon points="-524.6226,352.3773 -524.6226,352.3773 -461,416 -368.6087,508.3913 -341.7184,535.2816 -341.7184,535.2816" /><polygon points="-354.9445,-523.5344 -354.9445,-523.5344 -378.069,-500.3444 -534.6268,-343.3431 -534.6268,-343.3431" /><polygon points="343.3431,-534.6268 343.3431,-534.6268 176,-602.069 176,-602.069" /><polygon points="176,599.3913 176,599.3913 176,599.3913 352.3773,524.6226 352.3773,524.6226" /><polygon points="176,-602.069 176,-602.069 121.5829,-624 121.5829,-624" /><polygon points="-534.6268,-343.3431 -534.6268,-343.3431 -561.6284,-276.3444 -602.069,-176 -602.069,-176 -602.069,-176" /><polygon points="-624,117.9487 -624,117.9487 -599.3913,176 -592.6087,192 -524.6226,352.3773 -524.6226,352.3773" /><polygon points="117.9487,624 117.9487,624 176,599.3913 176,599.3913" /><polygon points="-602.069,-176 -602.069,-176 -624,-121.5829 -624,-121.5829" /><polygon points="-640,-124.0642 -640,-124.0642 -624,-163.7647 -624,-163.7647 -624,-163.7647" /><polygon points="-624,157.2449 -624,157.2449 -624,157.2449 -640,119.6939 -640,119.6939" /><polygon points="100.5957,640 100.5957,640 61.1064,640 -123.4043,640 -123.4043,640" /><polygon points="120.3077,640 120.3077,640 100.5957,640 100.5957,640" /><polygon points="-123.4043,640 -123.4043,640 -162.8936,624 -162.8936,624 -162.8936,624" /><polygon points="158.0513,624 158.0513,624 158.0513,624 120.3077,640 120.3077,640" /><polygon points="-528,-752 -528,-752 -752,-752 -752,-752" /><polygon points="-304,-752 -304,-752 -528,-752 -528,-752" /><polygon points="-80,-752 -80,-752 -304,-752 -304,-752" /><polygon points="144,-752 144,-752 -80,-752 -80,-752" /><polygon points="368,-752 368,-752 144,-752 144,-752" /><polygon points="592,-752 592,-752 368,-752 368,-752" /><polygon points="752,-752 752,-752 592,-752 592,-752" /><polygon points="752,752 752,752 752,528 752,528" /><polygon points="752,528 752,528 752,304 752,304" /><polygon points="752,304 752,304 752,80 752,80" /><polygon points="752,80 752,80 752,-144 752,-144" /><polygon points="752,-144 752,-144 752,-368 752,-368" /><polygon points="752,-368 752,-368 752,-592 752,-592" /><polygon points="752,-592 752,-592 752,-752 752,-752" /><polygon points="-752,752 -752,752 -528,752 -528,752" /><polygon points="-528,752 -528,752 -304,752 -304,752" /><polygon points="-304,752 -304,752 -80,752 -80,752" /><polygon points="-80,752 -80,752 144,752 144,752" /><polygon points="144,752 144,752 368,752 368,752" /><polygon points="368,752 368,752 592,752 592,752" /><polygon points="592,752 592,752 752,752 752,752" /><polygon points="-752,528 -752,528 -752,752 -752,752" /><polygon points="-752,304 -752,304 -752,528 -752,528" /><polygon points="-752,80 -752,80 -752,304 -752,304" /><polygon points="-752,-144 -752,-144 -752,80 -752,80" /><polygon points="-752,-368 -752,-368 -752,-144 -752,-144" /><polygon points="-752,-592 -752,-592 -752,-368 -752,-368" /><polygon points="-752,-752 -752,-752 -752,-592 -752,-592" /><polygon points="351.769,-548.231 351.769,-548.231 537.2075,-362.7924 537.2075,-362.7924" /><polygon points="546.9565,353.0435 546.9565,353.0435 362.7924,537.2075 362.7924,537.2075" /><polygon points="640,-100.5957 640,-100.5957 640,123.4043 640,123.4043" /><polygon points="640,-120.3077 640,-120.3077 640,-100.5957 640,-100.5957" /><polygon points="624,162.8936 624,162.8936 546.9565,353.0435 546.9565,353.0435" /><polygon points="640,123.4043 640,123.4043 624,162.8936 624,162.8936" /><polygon points="-640,119.6939 -640,119.6939 -640,-104.3061 -640,-104.3061" /><polygon points="-640,-104.3061 -640,-104.3061 -640,-124.0642 -640,-124.0642" /><polygon points="121.5829,-624 121.5829,-624 -117.9487,-624 -117.9487,-624" /><polygon points="-119.6939,-640 -119.6939,-640 104.3061,-640 104.3061,-640" /><polygon points="104.3061,-640 104.3061,-640 124.0642,-640 124.0642,-640" /><polygon points="-157.2449,-624 -157.2449,-624 -119.6939,-640 -119.6939,-640" /><polygon points="124.0642,-640 124.0642,-640 163.7647,-624 163.7647,-624" /><polygon points="-121.5829,624 -121.5829,624 117.9487,624 117.9487,624" /><polygon points="-624,-121.5829 -624,-121.5829 -624,117.9487 -624,117.9487" /><polygon points="-535.8333,364.1667 -535.8333,364.1667 -624,157.2449 -624,157.2449" /><polygon points="624,121.5829 624,121.5829 624,-117.9487 624,-117.9487" /><polygon points="624,-158.0513 624,-158.0513 640,-120.3077 640,-120.3077" /><polygon points="-624,-163.7647 -624,-163.7647 -548.231,-351.769 -548.231,-351.769" /><polygon points="537.2075,-362.7924 537.2075,-362.7924 624,-158.0513 624,-158.0513" /><polygon points="-364.1667,-535.8333 -364.1667,-535.8333 -157.2449,-624 -157.2449,-624" /><polygon points="-353.0435,546.9565 -353.0435,546.9565 -535.8333,364.1667 -535.8333,364.1667" /><polygon points="315.9044,-562.6851 315.9044,-562.6851 351.769,-548.231 351.769,-548.231" /><polygon points="163.7647,-624 163.7647,-624 314.7311,-563.1579 314.7311,-563.1579" /><polygon points="-162.8936,624 -162.8936,624 -353.0435,546.9565 -353.0435,546.9565" /><polygon points="-548.231,-351.769 -548.231,-351.769 -364.1667,-535.8333 -364.1667,-535.8333" /><polygon points="362.7924,537.2075 362.7924,537.2075 158.0513,624 158.0513,624" /><polygon points="-117.9487,-624 -117.9487,-624 -354.9445,-523.5344 -354.9445,-523.5344" /><polygon points="523.8865,-354.1138 523.8865,-354.1138 315.9044,-562.6851 315.9044,-562.6851" /><polygon points="624,-117.9487 624,-117.9487 523.8865,-354.1138 523.8865,-354.1138" /><polygon points="314.7311,-563.1579 314.7311,-563.1579 343.3431,-534.6268 343.3431,-534.6268" /><polygon points="-341.7184,535.2816 -341.7184,535.2816 -121.5829,624 -121.5829,624" /><polygon points="352.3773,524.6226 352.3773,524.6226 535.2816,341.7184 535.2816,341.7184" /><polygon points="535.2816,341.7184 535.2816,341.7184 624,121.5829 624,121.5829" /><polygon points="-524.6226,352.3773 -524.6226,352.3773 -341.7184,535.2816 -341.7184,535.2816" /><polygon points="-354.9445,-523.5344 -354.9445,-523.5344 -534.6268,-343.3431 -534.6268,-343.3431" /><polygon points="343.3431,-534.6268 343.3431,-534.6268 176,-602.069 176,-602.069" /><polygon points="176,599.3913 176,599.3913 352.3773,524.6226 352.3773,524.6226" /><polygon points="176,-602.069 176,-602.069 121.5829,-624 121.5829,-624" /><polygon points="-534.6268,-343.3431 -534.6268,-343.3431 -602.069,-176 -602.069,-176" /><polygon points="-624,117.9487 -624,117.9487 -524.6226,352.3773 -524.6226,352.3773" /><polygon points="117.9487,624 117.9487,624 176,599.3913 176,599.3913" /><polygon points="-602.069,-176 -602.069,-176 -624,-121.5829 -624,-121.5829" /><polygon points="-640,-124.0642 -640,-124.0642 -624,-163.7647 -624,-163.7647" /><polygon points="-624,157.2449 -624,157.2449 -640,119.6939 -640,119.6939" /><polygon points="100.5957,640 100.5957,640 -123.4043,640 -123.4043,640" /><polygon points="120.3077,640 120.3077,640 100.5957,640 100.5957,640" /><polygon points="-123.4043,640 -123.4043,640 -162.8936,624 -162.8936,624" /><polygon points="158.0513,624 158.0513,624 120.3077,640 120.3077,640" /><polygon points="-528,-752 -528,-752 -752,-752 -752,-752" /><polygon points="-304,-752 -304,-752 -528,-752 -528,-752" /><polygon points="-80,-752 -80,-752 -304,-752 -304,-752" /><polygon points="144,-752 144,-752 -80,-752 -80,-752" /><polygon points="368,-752 368,-752 144,-752 144,-752" /><polygon points="592,-752 592,-752 368,-752 368,-752" /><polygon points="752,-752 752,-752 592,-752 592,-752" /><polygon points="752,752 752,752 752,528 752,528" /><polygon points="752,528 752,528 752,304 752,304" /><polygon points="752,304 752,304 752,80 752,80" /><polygon points="752,80 752,80 752,-144 752,-144" /><polygon points="752,-144 752,-144 752,-368 752,-368" /><polygon points="752,-368 752,-368 752,-592 752,-592" /><polygon points="752,-592 752,-592 752,-752 752,-752" /><polygon points="-752,752 -752,752 -528,752 -528,752" /><polygon points="-528,752 -528,752 -304,752 -304,752" /><polygon points="-304,752 -304,752 -80,752 -80,752" /><polygon points="-80,752 -80,752 144,752 144,752" /><polygon points="144,752 144,752 368,752 368,752" /><polygon points="368,752 368,752 592,752 592,752" /><polygon points="592,752 592,752 752,752 752,752" /><polygon points="-752,528 -752,528 -752,752 -752,752" /><polygon points="-752,304 -752,304 -752,528 -752,528" /><polygon points="-752,80 -752,80 -752,304 -752,304" /><polygon points="-752,-144 -752,-144 -752,80 -752,80" /><polygon points="-752,-368 -752,-368 -752,-144 -752,-144" /><polygon points="-752,-592 -752,-592 -752,-368 -752,-368" /><polygon points="-752,-752 -752,-752 -752,-592 -752,-592" /><polygon points="351.769,-548.231 351.769,-548.231 537.2075,-362.7924 537.2075,-362.7924" /><polygon points="546.9565,353.0435 546.9565,353.0435 362.7924,537.2075 362.7924,537.2075" /><polygon points="640,-100.5957 640,-100.5957 640,123.4043 640,123.4043" /><polygon points="640,-120.3077 640,-120.3077 640,-100.5957 640,-100.5957" /><polygon points="624,162.8936 624,162.8936 546.9565,353.0435 546.9565,353.0435" /><polygon points="640,123.4043 640,123.4043 624,162.8936 624,162.8936" /><polygon points="-640,119.6939 -640,119.6939 -640,-104.3061 -640,-104.3061" /><polygon points="-640,-104.3061 -640,-104.3061 -640,-124.0642 -640,-124.0642" /><polygon points="121.5829,-624 121.5829,-624 -117.9487,-624 -117.9487,-624" /><polygon points="-119.6939,-640 -119.6939,-640 104.3061,-640 104.3061,-640" /><polygon points="104.3061,-640 104.3061,-640 124.0642,-640 124.0642,-640" /><polygon points="-157.2449,-624 -157.2449,-624 -119.6939,-640 -119.6939,-640" /><polygon points="124.0642,-640 124.0642,-640 163.7647,-624 163.7647,-624" /><polygon points="-121.5829,624 -121.5829,624 117.9487,624 117.9487,624" /><polygon points="-624,-121.5829 -624,-121.5829 -624,117.9487 -624,117.9487" /><polygon points="-535.8333,364.1667 -535.8333,364.1667 -624,157.2449 -624,157.2449" /><polygon points="624,121.5829 624,121.5829 624,-117.9487 624,-117.9487" /><polygon points="624,-158.0513 624,-158.0513 640,-120.3077 640,-120.3077" /><polygon points="-624,-163.7647 -624,-163.7647 -548.231,-351.769 -548.231,-351.769" /><polygon points="537.2075,-362.7924 537.2075,-362.7924 624,-158.0513 624,-158.0513" /><polygon points="-364.1667,-535.8333 -364.1667,-535.8333 -157.2449,-624 -157.2449,-624" /><polygon points="-353.0435,546.9565 -353.0435,546.9565 -535.8333,364.1667 -535.8333,364.1667" /><polygon points="315.9044,-562.6851 315.9044,-562.6851 351.769,-548.231 351.769,-548.231" /><polygon points="163.7647,-624 163.7647,-624 314.7311,-563.1579 314.7311,-563.1579" /><polygon points="-162.8936,624 -162.8936,624 -353.0435,546.9565 -353.0435,546.9565" /><polygon points="-548.231,-351.769 -548.231,-351.769 -364.1667,-535.8333 -364.1667,-535.8333" /><polygon points="362.7924,537.2075 362.7924,537.2075 158.0513,624 158.0513,624" /><polygon points="-117.9487,-624 -117.9487,-624 -354.9445,-523.5344 -354.9445,-523.5344" /><polygon points="523.8865,-354.1138 523.8865,-354.1138 315.9044,-562.6851 315.9044,-562.6851" /><polygon points="624,-117.9487 624,-117.9487 523.8865,-354.1138 523.8865,-354.1138" /><polygon points="314.7311,-563.1579 314.7311,-563.1579 343.3431,-534.6268 343.3431,-534.6268" /><polygon points="-341.7184,535.2816 -341.7184,535.2816 -121.5829,624 -121.5829,624" /><polygon points="352.3773,524.6226 352.3773,524.6226 535.2816,341.7184 535.2816,341.7184" /><polygon points="535.2816,341.7184 535.2816,341.7184 624,121.5829 624,121.5829" /><polygon points="-524.6226,352.3773 -524.6226,352.3773 -341.7184,535.2816 -341.7184,535.2816" /><polygon points="-354.9445,-523.5344 -354.9445,-523.5344 -534.6268,-343.3431 -534.6268,-343.3431" /><polygon points="343.3431,-534.6268 343.3431,-534.6268 176,-602.069 176,-602.069" /><polygon points="176,599.3913 176,599.3913 352.3773,524.6226 352.3773,524.6226" /><polygon points="176,-602.069 176,-602.069 121.5829,-624 121.5829,-624" /><polygon points="-534.6268,-343.3431 -534.6268,-343.3431 -602.069,-176 -602.069,-176" /><polygon points="-624,117.9487 -624,117.9487 -524.6226,352.3773 -524.6226,352.3773" /><polygon points="117.9487,624 117.9487,624 176,599.3913 176,599.3913" /><polygon points="-602.069,-176 -602.069,-176 -624,-121.5829 -624,-121.5829" /><polygon points="-640,-124.0642 -640,-124.0642 -624,-163.7647 -624,-163.7647" /><polygon points="-624,157.2449 -624,157.2449 -640,119.6939 -640,119.6939" /><polygon points="100.5957,640 100.5957,640 -123.4043,640 -123.4043,640" /><polygon points="120.3077,640 120.3077,640 100.5957,640 100.5957,640" /><polygon points="-123.4043,640 -123.4043,640 -162.8936,624 -162.8936,624" /><polygon points="158.0513,624 158.0513,624 120.3077,640 120.3077,640" /><polygon points="-528,-752 -528,-752 -752,-752 -752,-752" /><polygon points="-304,-752 -304,-752 -528,-752 -528,-752" /><polygon points="-80,-752 -80,-752 -304,-752 -304,-752" /><polygon points="144,-752 144,-752 -80,-752 -80,-752" /><polygon points="368,-752 368,-752 144,-752 144,-752" /><polygon points="592,-752 592,-752 368,-752 368,-752" /><polygon points="752,-752 752,-752 592,-752 592,-752" /><polygon points="752,752 752,752 752,528 752,528" /><polygon points="752,528 752,528 752,304 752,304" /><polygon points="752,304 752,304 752,80 752,80" /><polygon points="752,80 752,80 752,-144 752,-144" /><polygon points="752,-144 752,-144 752,-368 752,-368" /><polygon points="752,-368 752,-368 752,-592 752,-592" /><polygon points="752,-592 752,-592 752,-752 752,-752" /><polygon points="-752,752 -752,752 -528,752 -528,752" /><polygon points="-528,752 -528,752 -304,752 -304,752" /><polygon points="-304,752 -304,752 -80,752 -80,752" /><polygon points="-80,752 -80,752 144,752 144,752" /><polygon points="144,752 144,752 368,752 368,752" /><polygon points="368,752 368,752 592,752 592,752" /><polygon points="592,752 592,752 752,752 752,752" /><polygon points="-752,528 -752,528 -752,752 -752,752" /><polygon points="-752,304 -752,304 -752,528 -752,528" /><polygon points="-752,80 -752,80 -752,304 -752,304" /><polygon points="-752,-144 -752,-144 -752,80 -752,80" /><polygon points="-752,-368 -752,-368 -752,-144 -752,-144" /><polygon points="-752,-592 -752,-592 -752,-368 -752,-368" /><polygon points="-752,-752 -752,-752 -752,-592 -752,-592" /><polygon points="351.769,-548.231 351.769,-548.231 537.2075,-362.7924 537.2075,-362.7924" /><polygon points="546.9565,353.0435 546.9565,353.0435 362.7924,537.2075 362.7924,537.2075" /><polygon points="640,-100.5957 640,-100.5957 640,123.4043 640,123.4043" /><polygon points="640,-120.3077 640,-120.3077 640,-100.5957 640,-100.5957" /><polygon points="624,162.8936 624,162.8936 546.9565,353.0435 546.9565,353.0435" /><polygon points="640,123.4043 640,123.4043 624,162.8936 624,162.8936" /><polygon points="-640,119.6939 -640,119.6939 -640,-104.3061 -640,-104.3061" /><polygon points="-640,-104.3061 -640,-104.3061 -640,-124.0642 -640,-124.0642" /><polygon points="121.5829,-624 121.5829,-624 -117.9487,-624 -117.9487,-624" /><polygon points="-119.6939,-640 -119.6939,-640 104.3061,-640 104.3061,-640" /><polygon points="104.3061,-640 104.3061,-640 124.0642,-640 124.0642,-640" /><polygon points="-157.2449,-624 -157.2449,-624 -119.6939,-640 -119.6939,-640" /><polygon points="124.0642,-640 124.0642,-640 163.7647,-624 163.7647,-624" /><polygon points="-121.5829,624 -121.5829,624 117.9487,624 117.9487,624" /><polygon points="-624,-121.5829 -624,-121.5829 -624,117.9487 -624,117.9487" /><polygon points="-535.8333,364.1667 -535.8333,364.1667 -624,157.2449 -624,157.2449" /><polygon points="624,121.5829 624,121.5829 624,-117.9487 624,-117.9487" /><polygon points="624,-158.0513 624,-158.0513 640,-120.3077 640,-120.3077" /><polygon points="-624,-163.7647 -624,-163.7647 -548.231,-351.769 -548.231,-351.769" /><polygon points="537.2075,-362.7924 537.2075,-362.7924 624,-158.0513 624,-158.0513" /><polygon points="-364.1667,-535.8333 -364.1667,-535.8333 -157.2449,-624 -157.2449,-624" /><polygon points="-353.0435,546.9565 -353.0435,546.9565 -535.8333,364.1667 -535.8333,364.1667" /><polygon points="315.9044,-562.6851 315.9044,-562.6851 351.769,-548.231 351.769,-548.231" /><polygon points="163.7647,-624 163.7647,-624 314.7311,-563.1579 314.7311,-563.1579" /><polygon points="-162.8936,624 -162.8936,624 -353.0435,546.9565 -353.0435,546.9565" /><polygon points="-548.231,-351.769 -548.231,-351.769 -364.1667,-535.8333 -364.1667,-535.8333" /><polygon points="362.7924,537.2075 362.7924,537.2075 158.0513,624 158.0513,624" /><polygon points="-117.9487,-624 -117.9487,-624 -354.9445,-523.5344 -354.9445,-523.5344" /><polygon points="523.8865,-354.1138 523.8865,-354.1138 315.9044,-562.6851 315.9044,-562.6851" /><polygon points="624,-117.9487 624,-117.9487 523.8865,-354.1138 523.8865,-354.1138" /><polygon points="314.7311,-563.1579 314.7311,-563.1579 343.3431,-534.6268 343.3431,-534.6268" /><polygon points="-341.7184,535.2816 -341.7184,535.2816 -121.5829,624 -121.5829,624" /><polygon points="352.3773,524.6226 352.3773,524.6226 535.2816,341.7184 535.2816,341.7184" /><polygon points="535.2816,341.7184 535.2816,341.7184 624,121.5829 624,121.5829" /><polygon points="-524.6226,352.3773 -524.6226,352.3773 -341.7184,535.2816 -341.7184,535.2816" /><polygon points="-354.9445,-523.5344 -354.9445,-523.5344 -534.6268,-343.3431 -534.6268,-343.3431" /><polygon points="343.3431,-534.6268 343.3431,-534.6268 176,-602.069 176,-602.069" /><polygon points="176,599.3913 176,599.3913 352.3773,524.6226 352.3773,524.6226" /><polygon points="176,-602.069 176,-602.069 121.5829,-624 121.5829,-624" /><polygon points="-534.6268,-343.3431 -534.6268,-343.3431 -602.069,-176 -602.069,-176" /><polygon points="-624,117.9487 -624,117.9487 -524.6226,352.3773 -524.6226,352.3773" /><polygon points="117.9487,624 117.9487,624 176,599.3913 176,599.3913" /><polygon points="-602.069,-176 -602.069,-176 -624,-121.5829 -624,-121.5829" /><polygon points="-640,-124.0642 -640,-124.0642 -624,-163.7647 -624,-163.7647" /><polygon points="-624,157.2449 -624,157.2449 -640,119.6939 -640,119.6939" /><polygon points="100.5957,640 100.5957,640 -123.4043,640 -123.4043,640" /><polygon points="120.3077,640 120.3077,640 100.5957,640 100.5957,640" /><polygon points="-123.4043,640 -123.4043,640 -162.8936,624 -162.8936,624" /><polygon points="158.0513,624 158.0513,624 120.3077,640 120.3077,640" /><polygon points="-528,-752 -528,-752 -752,-752 -752,-752" /><polygon points="-304,-752 -304,-752 -528,-752 -528,-752" /><polygon points="-80,-752 -80,-752 -304,-752 -304,-752" /><polygon points="144,-752 144,-752 -80,-752 -80,-752" /><polygon points="368,-752 368,-752 144,-752 144,-752" /><polygon points="592,-752 592,-752 368,-752 368,-752" /><polygon points="752,-752 752,-752 592,-752 592,-752" /><polygon points="752,752 752,752 752,528 752,528" /><polygon points="752,528 752,528 752,304 752,304" /><polygon points="752,304 752,304 752,80 752,80" /><polygon points="752,80 752,80 752,-144 752,-144" /><polygon points="752,-144 752,-144 752,-368 752,-368" /><polygon points="752,-368 752,-368 752,-592 752,-592" /><polygon points="752,-592 752,-592 752,-752 752,-752" /><polygon points="-752,752 -752,752 -528,752 -528,752" /><polygon points="-528,752 -528,752 -304,752 -304,752" /><polygon points="-304,752 -304,752 -80,752 -80,752" /><polygon points="-80,752 -80,752 144,752 144,752" /><polygon points="144,752 144,752 368,752 368,752" /><polygon points="368,752 368,752 592,752 592,752" /><polygon points="592,752 592,752 752,752 752,752" /><polygon points="-752,528 -752,528 -752,752 -752,752" /><polygon points="-752,304 -752,304 -752,528 -752,528" /><polygon points="-752,80 -752,80 -752,304 -752,304" /><polygon points="-752,-144 -752,-144 -752,80 -752,80" /><polygon points="-752,-368 -752,-368 -752,-144 -752,-144" /><polygon points="-752,-592 -752,-592 -752,-368 -752,-368" /><polygon points="-752,-752 -752,-752 -752,-592 -752,-592" /><polygon points="351.769,-548.231 351.769,-548.231 537.2075,-362.7924 537.2075,-362.7924" /><polygon points="546.9565,353.0435 546.9565,353.0435 362.7924,537.2075 362.7924,537.2075" /><polygon points="640,-100.5957 640,-100.5957 640,123.4043 640,123.4043" /><polygon points="640,-120.3077 640,-120.3077 640,-100.5957 640,-100.5957" /><polygon points="624,162.8936 624,162.8936 546.9565,353.0435 546.9565,353.0435" /><polygon points="640,123.4043 640,123.4043 624,162.8936 624,162.8936" /><polygon points="-640,119.6939 -640,119.6939 -640,-104.3061 -640,-104.3061" /><polygon points="-640,-104.3061 -640,-104.3061 -640,-124.0642 -640,-124.0642" /><polygon points="121.5829,-624 121.5829,-624 -117.9487,-624 -117.9487,-624" /><polygon points="-119.6939,-640 -119.6939,-640 104.3061,-640 104.3061,-640" /><polygon points="104.3061,-640 104.3061,-640 124.0642,-640 124.0642,-640" /><polygon points="-157.2449,-624 -157.2449,-624 -119.6939,-640 -119.6939,-640" /><polygon points="124.0642,-640 124.0642,-640 163.7647,-624 163.7647,-624" /><polygon points="-121.5829,624 -121.5829,624 117.9487,624 117.9487,624" /><polygon points="-624,-121.5829 -624,-121.5829 -624,117.9487 -624,117.9487" /><polygon points="-535.8333,364.1667 -535.8333,364.1667 -624,157.2449 -624,157.2449" /><polygon points="624,121.5829 624,121.5829 624,-117.9487 624,-117.9487" /><polygon points="624,-158.0513 624,-158.0513 640,-120.3077 640,-120.3077" /><polygon points="-624,-163.7647 -624,-163.7647 -548.231,-351.769 -548.231,-351.769" /><polygon points="537.2075,-362.7924 537.2075,-362.7924 624,-158.0513 624,-158.0513" /><polygon points="-364.1667,-535.8333 -364.1667,-535.8333 -157.2449,-624 -157.2449,-624" /><polygon points="-353.0435,546.9565 -353.0435,546.9565 -535.8333,364.1667 -535.8333,364.1667" /><polygon points="315.9044,-562.6851 315.9044,-562.6851 351.769,-548.231 351.769,-548.231" /><polygon points="163.7647,-624 163.7647,-624 314.7311,-563.1579 314.7311,-563.1579" /><polygon points="-162.8936,624 -162.8936,624 -353.0435,546.9565 -353.0435,546.9565" /><polygon points="-548.231,-351.769 -548.231,-351.769 -364.1667,-535.8333 -364.1667,-535.8333" /><polygon points="362.7924,537.2075 362.7924,537.2075 158.0513,624 158.0513,624" /><polygon points="-117.9487,-624 -117.9487,-624 -354.9445,-523.5344 -354.9445,-523.5344" /><polygon points="523.8865,-354.1138 523.8865,-354.1138 315.9044,-562.6851 315.9044,-562.6851" /><polygon points="624,-117.9487 624,-117.9487 523.8865,-354.1138 523.8865,-354.1138" /><polygon points="314.7311,-563.1579 314.7311,-563.1579 343.3431,-534.6268 343.3431,-534.6268" /><polygon points="-341.7184,535.2816 -341.7184,535.2816 -121.5829,624 -121.5829,624" /><polygon points="352.3773,524.6226 352.3773,524.6226 535.2816,341.7184 535.2816,341.7184" /><polygon points="535.2816,341.7184 535.2816,341.7184 624,121.5829 624,121.5829" /><polygon points="-524.6226,352.3773 -524.6226,352.3773 -341.7184,535.2816 -341.7184,535.2816" /><polygon points="-354.9445,-523.5344 -354.9445,-523.5344 -534.6268,-343.3431 -534.6268,-343.3431" /><polygon points="343.3431,-534.6268 343.3431,-534.6268 176,-602.069 176,-602.069" /><polygon points="176,599.3913 176,599.3913 352.3773,524.6226 352.3773,524.6226" /><polygon points="176,-602.069 176,-602.069 121.5829,-624 121.5829,-624" /><polygon points="-534.6268,-343.3431 -534.6268,-343.3431 -602.069,-176 -602.069,-176" /><polygon points="-624,117.9487 -624,117.9487 -524.6226,352.3773 -524.6226,352.3773" /><polygon points="117.9487,624 117.9487,624 176,599.3913 176,599.3913" /><polygon points="-602.069,-176 -602.069,-176 -624,-121.5829 -624,-121.5829" /><polygon points="-640,-124.0642 -640,-124.0642 -624,-163.7647 -624,-163.7647" /><polygon points="-624,157.2449 -624,157.2449 -640,119.6939 -640,119.6939" /><polygon points="100.5957,640 100.5957,640 -123.4043,640 -123.4043,640" /><polygon points="120.3077,640 120.3077,640 100.5957,640 100.5957,640" /><polygon points="-123.4043,640 -123.4043,640 -162.8936,624 -162.8936,624" /><polygon points="158.0513,624 158.0513,624 120.3077,640 120.3077,640" /><polygon points="-528,-752 -528,-752 -752,-752 -752,-752" /><polygon points="-304,-752 -304,-752 -528,-752 -528,-752" /><polygon points="-80,-752 -80,-752 -304,-752 -304,-752" /><polygon points="144,-752 144,-752 -80,-752 -80,-752" /><polygon points="368,-752 368,-752 144,-752 144,-752" /><polygon points="592,-752 592,-752 368,-752 368,-752" /><polygon points="752,-752 752,-752 592,-752 592,-752" /><polygon points="752,752 752,752 752,528 752,528" /><polygon points="752,528 752,528 752,304 752,304" /><polygon points="752,304 752,304 752,80 752,80" /><polygon points="752,80 752,80 752,-144 752,-144" /><polygon points="752,-144 752,-144 752,-368 752,-368" /><polygon points="752,-368 752,-368 752,-592 752,-592" /><polygon points="752,-592 752,-592 752,-752 752,-752" /><polygon points="-752,752 -752,752 -528,752 -528,752" /><polygon points="-528,752 -528,752 -304,752 -304,752" /><polygon points="-304,752 -304,752 -80,752 -80,752" /><polygon points="-80,752 -80,752 144,752 144,752" /><polygon points="144,752 144,752 368,752 368,752" /><polygon points="368,752 368,752 592,752 592,752" /><polygon points="592,752 592,752 752,752 752,752" /><polygon points="-752,528 -752,528 -752,752 -752,752" /><polygon points="-752,304 -752,304 -752,528 -752,528" /><polygon points="-752,80 -752,80 -752,304 -752,304" /><polygon points="-752,-144 -752,-144 -752,80 -752,80" /><polygon points="-752,-368 -752,-368 -752,-144 -752,-144" /><polygon points="-752,-592 -752,-592 -752,-368 -752,-368" /><polygon points="-752,-752 -752,-752 -752,-592 -752,-592" /><polygon points="351.769,-548.231 351.769,-548.231 537.2075,-362.7924 537.2075,-362.7924" /><polygon points="546.9565,353.0435 546.9565,353.0435 362.7924,537.2075 362.7924,537.2075" /><polygon points="640,-100.5957 640,-100.5957 640,123.4043 640,123.4043" /><polygon points="640,-120.3077 640,-120.3077 640,-100.5957 640,-100.5957" /><polygon points="624,162.8936 624,162.8936 546.9565,353.0435 546.9565,353.0435" /><polygon points="640,123.4043 640,123.4043 624,162.8936 624,162.8936" /><polygon points="-640,119.6939 -640,119.6939 -640,-104.3061 -640,-104.3061" /><polygon points="-640,-104.3061 -640,-104.3061 -640,-124.0642 -640,-124.0642" /><polygon points="121.5829,-624 121.5829,-624 -117.9487,-624 -117.9487,-624" /><polygon points="-119.6939,-640 -119.6939,-640 104.3061,-640 104.3061,-640" /><polygon points="104.3061,-640 104.3061,-640 124.0642,-640 124.0642,-640" /><polygon points="-157.2449,-624 -157.2449,-624 -119.6939,-640 -119.6939,-640" /><polygon points="124.0642,-640 124.0642,-640 163.7647,-624 163.7647,-624" /><polygon points="-121.5829,624 -121.5829,624 117.9487,624 117.9487,624" /><polygon points="-624,-121.5829 -624,-121.5829 -624,117.9487 -624,117.9487" /><polygon points="-535.8333,364.1667 -535.8333,364.1667 -624,157.2449 -624,157.2449" /><polygon points="624,121.5829 624,121.5829 624,-117.9487 624,-117.9487" /><polygon points="624,-158.0513 624,-158.0513 640,-120.3077 640,-120.3077" /><polygon points="-624,-163.7647 -624,-163.7647 -548.231,-351.769 -548.231,-351.769" /><polygon points="537.2075,-362.7924 537.2075,-362.7924 624,-158.0513 624,-158.0513" /><polygon points="-364.1667,-535.8333 -364.1667,-535.8333 -157.2449,-624 -157.2449,-624" /><polygon points="-353.0435,546.9565 -353.0435,546.9565 -535.8333,364.1667 -535.8333,364.1667" /><polygon points="315.9044,-562.6851 315.9044,-562.6851 351.769,-548.231 351.769,-548.231" /><polygon points="163.7647,-624 163.7647,-624 314.7311,-563.1579 314.7311,-563.1579" /><polygon points="-162.8936,624 -162.8936,624 -353.0435,546.9565 -353.0435,546.9565" /><polygon points="-548.231,-351.769 -548.231,-351.769 -364.1667,-535.8333 -364.1667,-535.8333" /><polygon points="362.7924,537.2075 362.7924,537.2075 158.0513,624 158.0513,624" /><polygon points="-117.9487,-624 -117.9487,-624 -354.9445,-523.5344 -354.9445,-523.5344" /><polygon points="523.8865,-354.1138 523.8865,-354.1138 315.9044,-562.6851 315.9044,-562.6851" /><polygon points="624,-117.9487 624,-117.9487 523.8865,-354.1138 523.8865,-354.1138" /><polygon points="314.7311,-563.1579 314.7311,-563.1579 343.3431,-534.6268 343.3431,-534.6268" /><polygon points="-341.7184,535.2816 -341.7184,535.2816 -121.5829,624 -121.5829,624" /><polygon points="352.3773,524.6226 352.3773,524.6226 535.2816,341.7184 535.2816,341.7184" /><polygon points="535.2816,341.7184 535.2816,341.7184 624,121.5829 624,121.5829" /><polygon points="-524.6226,352.3773 -524.6226,352.3773 -341.7184,535.2816 -341.7184,535.2816" /><polygon points="-354.9445,-523.5344 -354.9445,-523.5344 -534.6268,-343.3431 -534.6268,-343.3431" /><polygon points="343.3431,-534.6268 343.3431,-534.6268 176,-602.069 176,-602.069" /><polygon points="176,599.3913 176,599.3913 352.3773,524.6226 352.3773,524.6226" /><polygon points="176,-602.069 176,-602.069 121.5829,-624 121.5829,-624" /><polygon points="-534.6268,-343.3431 -534.6268,-343.3431 -602.069,-176 -602.069,-176" /><polygon points="-624,117.9487 -624,117.9487 -524.6226,352.3773 -524.6226,352.3773" /><polygon points="117.9487,624 117.9487,624 176,599.3913 176,599.3913" /><polygon points="-602.069,-176 -602.069,-176 -624,-121.5829 -624,-121.5829" /><polygon points="-640,-124.0642 -640,-124.0642 -624,-163.7647 -624,-163.7647" /><polygon points="-624,157.2449 -624,157.2449 -640,119.6939 -640,119.6939" /><polygon points="100.5957,640 100.5957,640 -123.4043,640 -123.4043,640" /><polygon points="120.3077,640 120.3077,640 100.5957,640 100.5957,640" /><polygon points="-123.4043,640 -123.4043,640 -162.8936,624 -162.8936,624" /><polygon points="158.0513,624 158.0513,624 120.3077,640 120.3077,640" /><polygon points="-528,-752 -528,-752 -752,-752 -752,-752" /><polygon points="-304,-752 -304,-752 -528,-752 -528,-752" /><polygon points="-80,-752 -80,-752 -304,-752 -304,-752" /><polygon points="144,-752 144,-752 -80,-752 -80,-752" /><polygon points="368,-752 368,-752 144,-752 144,-752" /><polygon points="592,-752 592,-752 368,-752 368,-752" /><polygon points="752,-752 752,-752 592,-752 592,-752" /><polygon points="752,752 752,752 752,528 752,528" /><polygon points="752,528 752,528 752,304 752,304" /><polygon points="752,304 752,304 752,80 752,80" /><polygon points="752,80 752,80 752,-144 752,-144" /><polygon points="752,-144 752,-144 752,-368 752,-368" /><polygon points="752,-368 752,-368 752,-592 752,-592" /><polygon points="752,-592 752,-592 752,-752 752,-752" /><polygon points="-752,752 -752,752 -528,752 -528,752" /><polygon points="-528,752 -528,752 -304,752 -304,752" /><polygon points="-304,752 -304,752 -80,752 -80,752" /><polygon points="-80,752 -80,752 144,752 144,752" /><polygon points="144,752 144,752 368,752 368,752" /><polygon points="368,752 368,752 592,752 592,752" /><polygon points="592,752 592,752 752,752 752,752" /><polygon points="-752,528 -752,528 -752,752 -752,752" /><polygon points="-752,304 -752,304 -752,528 -752,528" /><polygon points="-752,80 -752,80 -752,304 -752,304" /><polygon points="-752,-144 -752,-144 -752,80 -752,80" /><polygon points="-752,-368 -752,-368 -752,-144 -752,-144" /><polygon points="-752,-592 -752,-592 -752,-368 -752,-368" /><polygon points="-752,-752 -752,-752 -752,-592 -752,-592" /><polygon points="537.2075,-362.7924 351.769,-548.231 351.769,-548.231 537.2075,-362.7924" /><polygon points="362.7924,537.2075 546.9565,353.0435 546.9565,353.0435 362.7924,537.2075" /><polygon points="640,123.4043 640,65.9487 640,-100.5957 640,-100.5957 640,123.4043" /><polygon points="640,-100.5957 640,-120.3077 640,-120.3077 640,-100.5957" /><polygon points="546.9565,353.0435 562.6232,314.3768 624,162.8936 624,162.8936 546.9565,353.0435" /><polygon points="624,162.8936 640,123.4043 640,123.4043 624,162.8936" /><polygon points="-640,-104.3061 -640,60.2353 -640,119.6939 -640,119.6939 -640,-104.3061" /><polygon points="-640,-124.0642 -640,-104.3061 -640,-104.3061 -640,-124.0642" /><polygon points="-117.9487,-624 -354.9445,-523.5344 -326.8067,-551.752 -157.2449,-624" /><polygon points="117.9487,624 176,599.3913 352.3773,524.6226 322.8679,554.1321 158.0513,624" /><polygon points="343.3431,-534.6268 176,-602.069 121.5829,-624 163.7647,-624 314.7311,-563.1579" /><polygon points="-314.3768,562.6232 -341.7184,535.2816 -121.5829,624 -162.8936,624" /><polygon points="-364.1667,-535.8333 -326.8067,-551.752 -354.9445,-523.5344 -534.6268,-343.3431 -563.1579,-314.7311 -548.231,-351.769" /><polygon points="362.7924,537.2075 322.8679,554.1321 352.3773,524.6226 535.2816,341.7184 562.6232,314.3768 546.9565,353.0435" /><polygon points="61.1064,640 -123.4043,640 -162.8936,624 -121.5829,624 61.1064,624" /><polygon points="117.9487,624 158.0513,624 120.3077,640 100.5957,640 61.1064,640 61.1064,624" /><polygon points="624,65.9487 624,-117.9487 624,-158.0513 640,-120.3077 640,-100.5957 640,65.9487" /><polygon points="640,123.4043 624,162.8936 624,121.5829 624,65.9487 640,65.9487" /><polygon points="66.7551,-624 -117.9487,-624 -157.2449,-624 -119.6939,-640 66.7551,-640" /><polygon points="104.3061,-640 124.0642,-640 163.7647,-624 121.5829,-624 66.7551,-624 66.7551,-640" /><polygon points="523.8865,-354.1138 439.1202,-439.1202 315.9044,-562.6851 351.769,-548.231 537.2075,-362.7924 553.4576,-324.4589" /><polygon points="-535.8333,364.1667 -552.9091,324.0909 -524.6226,352.3773 -341.7184,535.2816 -314.3768,562.6232 -353.0435,546.9565" /><polygon points="562.6232,314.3768 535.2816,341.7184 624,121.5829 624,162.8936" /><polygon points="-563.1579,-314.7311 -534.6268,-343.3431 -602.069,-176 -624,-121.5829 -624,-163.7647" /><polygon points="624,-117.9487 523.8865,-354.1138 553.4576,-324.4589 624,-158.0513" /><polygon points="-624,117.9487 -524.6226,352.3773 -552.9091,324.0909 -624,157.2449" /><polygon points="-640,60.2353 -640,-104.3061 -640,-124.0642 -624,-163.7647 -624,-121.5829 -624,60.2353" /><polygon points="-624,117.9487 -624,157.2449 -640,119.6939 -640,60.2353 -624,60.2353" /><polygon points="-117.9487,-624 66.7551,-624 121.5829,-624 121.5829,-624 -117.9487,-624" /><polygon points="104.3061,-640 66.7551,-640 -119.6939,-640 -119.6939,-640 104.3061,-640" /><polygon points="124.0642,-640 104.3061,-640 104.3061,-640 124.0642,-640" /><polygon points="-119.6939,-640 -157.2449,-624 -157.2449,-624 -119.6939,-640" /><polygon points="163.7647,-624 124.0642,-640 124.0642,-640 163.7647,-624" /><polygon points="117.9487,624 61.1064,624 -121.5829,624 -121.5829,624 117.9487,624" /><polygon points="-624,117.9487 -624,60.2353 -624,-121.5829 -624,-121.5829 -624,117.9487" /><polygon points="-624,157.2449 -552.9091,324.0909 -535.8333,364.1667 -535.8333,364.1667 -624,157.2449" /><polygon points="624,-117.9487 624,65.9487 624,121.5829 624,121.5829 624,-117.9487" /><polygon points="640,-120.3077 624,-158.0513 624,-158.0513 640,-120.3077" /><polygon points="-548.231,-351.769 -563.1579,-314.7311 -624,-163.7647 -624,-163.7647 -548.231,-351.769" /><polygon points="624,-158.0513 553.4576,-324.4589 537.2075,-362.7924 537.2075,-362.7924 624,-158.0513" /><polygon points="-157.2449,-624 -326.8067,-551.752 -364.1667,-535.8333 -364.1667,-535.8333 -157.2449,-624" /><polygon points="-535.8333,364.1667 -353.0435,546.9565 -353.0435,546.9565 -535.8333,364.1667" /><polygon points="351.769,-548.231 315.9044,-562.6851 315.9044,-562.6851 351.769,-548.231" /><polygon points="314.7311,-563.1579 163.7647,-624 163.7647,-624 314.7311,-563.1579" /><polygon points="-353.0435,546.9565 -314.3768,562.6232 -162.8936,624 -162.8936,624 -353.0435,546.9565" /><polygon points="-364.1667,-535.8333 -548.231,-351.769 -548.231,-351.769 -364.1667,-535.8333" /><polygon points="158.0513,624 322.8679,554.1321 362.7924,537.2075 362.7924,537.2075 158.0513,624" /><polygon points="-354.9445,-523.5344 -117.9487,-624 -117.9487,-624 -354.9445,-523.5344" /><polygon points="315.9044,-562.6851 439.1202,-439.1202 523.8865,-354.1138 523.8865,-354.1138 315.9044,-562.6851" /><polygon points="523.8865,-354.1138 624,-117.9487 624,-117.9487 523.8865,-354.1138" /><polygon points="343.3431,-534.6268 314.7311,-563.1579 314.7311,-563.1579 343.3431,-534.6268" /><polygon points="-121.5829,624 -341.7184,535.2816 -341.7184,535.2816 -121.5829,624" /><polygon points="535.2816,341.7184 352.3773,524.6226 352.3773,524.6226 535.2816,341.7184" /><polygon points="624,121.5829 535.2816,341.7184 535.2816,341.7184 624,121.5829" /><polygon points="-341.7184,535.2816 -524.6226,352.3773 -524.6226,352.3773 -341.7184,535.2816" /><polygon points="-534.6268,-343.3431 -354.9445,-523.5344 -354.9445,-523.5344 -534.6268,-343.3431" /><polygon points="176,-602.069 343.3431,-534.6268 343.3431,-534.6268 176,-602.069" /><polygon points="352.3773,524.6226 176,599.3913 176,599.3913 352.3773,524.6226" /><polygon points="121.5829,-624 176,-602.069 176,-602.069 121.5829,-624" /><polygon points="-602.069,-176 -534.6268,-343.3431 -534.6268,-343.3431 -602.069,-176" /><polygon points="-524.6226,352.3773 -624,117.9487 -624,117.9487 -524.6226,352.3773" /><polygon points="176,599.3913 117.9487,624 117.9487,624 176,599.3913" /><polygon points="-624,-121.5829 -602.069,-176 -602.069,-176 -624,-121.5829" /><polygon points="-624,-163.7647 -640,-124.0642 -640,-124.0642 -624,-163.7647" /><polygon points="-640,119.6939 -624,157.2449 -624,157.2449 -640,119.6939" /><polygon points="-123.4043,640 61.1064,640 100.5957,640 100.5957,640 -123.4043,640" /><polygon points="100.5957,640 120.3077,640 120.3077,640 100.5957,640" /><polygon points="-162.8936,624 -123.4043,640 -123.4043,640 -162.8936,624" /><polygon points="120.3077,640 158.0513,624 158.0513,624 120.3077,640" /><polygon points="-528,-752 -528,-752 -752,-752 -752,-752" /><polygon points="-304,-752 -304,-752 -528,-752 -528,-752" /><polygon points="-80,-752 -80,-752 -304,-752 -304,-752" /><polygon points="144,-752 144,-752 -80,-752 -80,-752" /><polygon points="368,-752 368,-752 144,-752 144,-752" /><polygon points="592,-752 592,-752 368,-752 368,-752" /><polygon points="752,-752 752,-752 592,-752 592,-752" /><polygon points="752,752 752,752 752,528 752,528" /><polygon points="752,528 752,528 752,304 752,304" /><polygon points="752,304 752,304 752,80 752,80" /><polygon points="752,80 752,80 752,-144 752,-144" /><polygon points="752,-144 752,-144 752,-368 752,-368" /><polygon points="752,-368 752,-368 752,-592 752,-592" /><polygon points="752,-592 752,-592 752,-752 752,-752" /><polygon points="-752,752 -752,752 -528,752 -528,752" /><polygon points="-528,752 -528,752 -304,752 -304,752" /><polygon points="-304,752 -304,752 -80,752 -80,752" /><polygon points="-80,752 -80,752 144,752 144,752" /><polygon points="144,752 144,752 368,752 368,752" /><polygon points="368,752 368,752 592,752 592,752" /><polygon points="592,752 592,752 752,752 752,752" /><polygon points="-752,528 -752,528 -752,752 -752,752" /><polygon points="-752,304 -752,304 -752,528 -752,528" /><polygon points="-752,80 -752,80 -752,304 -752,304" /><polygon points="-752,-144 -752,-144 -752,80 -752,80" /><polygon points="-752,-368 -752,-368 -752,-144 -752,-144" /><polygon points="-752,-592 -752,-592 -752,-368 -752,-368" /><polygon points="-752,-752 -752,-752 -752,-592 -752,-592" /><polygon points="-528,-752 -752,-752 -752,-592 -752,-528 -528,-528" /><polygon points="-752,-528 -752,-368 -752,-304 -528,-304 -528,-528" /><polygon points="-752,-304 -752,-144 -752,-80 -528,-80 -528,-304" /><polygon points="-752,-80 -752,80 -752,144 -528,144 -528,-80" /><polygon points="-752,144 -752,304 -752,368 -528,368 -528,144" /><polygon points="-752,368 -752,528 -752,592 -528,592 -528,368" /><polygon points="-752,592 -752,752 -528,752 -528,592" /><polygon points="-304,-752 -528,-752 -528,-528 -304,-528" /><polygon points="-528,-528 -528,-304 -304,-304 -304,-528" /><polygon points="-528,-304 -528,-80 -304,-80 -304,-304" /><polygon points="-528,-80 -528,144 -304,144 -304,-80" /><polygon points="-528,144 -528,368 -304,368 -304,144" /><polygon points="-528,368 -528,592 -304,592 -304,368" /><polygon points="-528,592 -528,752 -304,752 -304,592" /><polygon points="-80,-752 -304,-752 -304,-528 -80,-528" /><polygon points="-304,-528 -304,-304 -80,-304 -80,-528" /><polygon points="-304,-304 -304,-80 -80,-80 -80,-304" /><polygon points="-304,-80 -304,144 -80,144 -80,-80" /><polygon points="-304,144 -304,368 -80,368 -80,144" /><polygon points="-304,368 -304,592 -80,592 -80,368" /><polygon points="-304,592 -304,752 -80,752 -80,592" /><polygon points="144,-752 -80,-752 -80,-528 144,-528" /><polygon points="-80,-528 -80,-304 144,-304 144,-528" /><polygon points="-80,-304 -80,-80 144,-80 144,-304" /><polygon points="-80,-80 -80,144 144,144 144,-80" /><polygon points="-80,144 -80,368 144,368 144,144" /><polygon points="-80,368 -80,592 144,592 144,368" /><polygon points="-80,592 -80,752 144,752 144,592" /><polygon points="368,-752 144,-752 144,-528 368,-528" /><polygon points="144,-528 144,-304 368,-304 368,-528" /><polygon points="144,-304 144,-80 368,-80 368,-304" /><polygon points="144,-80 144,144 368,144 368,-80" /><polygon points="144,144 144,368 368,368 368,144" /><polygon points="144,368 144,592 368,592 368,368" /><polygon points="144,592 144,752 368,752 368,592" /><polygon points="592,-752 368,-752 368,-528 592,-528" /><polygon points="368,-528 368,-304 592,-304 592,-528" /><polygon points="368,-304 368,-80 592,-80 592,-304" /><polygon points="368,-80 368,144 592,144 592,-80" /><polygon points="368,144 368,368 592,368 592,144" /><polygon points="368,368 368,592 592,592 592,368" /><polygon points="368,592 368,752 592,752 592,592" /><polygon points="752,-528 752,-592 752,-752 592,-752 592,-528" /><polygon points="752,-304 752,-368 752,-528 592,-528 592,-304" /><polygon points="752,-80 752,-144 752,-304 592,-304 592,-80" /><polygon points="752,144 752,80 752,-80 592,-80 592,144" /><polygon points="752,368 752,304 752,144 592,144 592,368" /><polygon points="752,592 752,528 752,368 592,368 592,592" /><polygon points="752,752 752,592 592,592 592,752" /><polygon points="-752,-752 -528,-752 -528,-752 -752,-752" /><polygon points="-528,-752 -304,-752 -304,-752 -528,-752" /><polygon points="-304,-752 -80,-752 -80,-752 -304,-752" /><polygon points="-80,-752 144,-752 144,-752 -80,-752" /><polygon points="144,-752 368,-752 368,-752 144,-752" /><polygon points="368,-752 592,-752 592,-752 368,-752" /><polygon points="592,-752 752,-752 752,-752 592,-752" /><polygon points="752,528 752,592 752,752 752,752 752,528" /><polygon points="752,304 752,368 752,528 752,528 752,304" /><polygon points="752,80 752,144 752,304 752,304 752,80" /><polygon points="752,-144 752,-80 752,80 752,80 752,-144" /><polygon points="752,-368 752,-304 752,-144 752,-144 752,-368" /><polygon points="752,-592 752,-528 752,-368 752,-368 752,-592" /><polygon points="752,-752 752,-592 752,-592 752,-752" /><polygon points="-528,752 -752,752 -752,752 -528,752" /><polygon points="-304,752 -528,752 -528,752 -304,752" /><polygon points="-80,752 -304,752 -304,752 -80,752" /><polygon points="144,752 -80,752 -80,752 144,752" /><polygon points="368,752 144,752 144,752 368,752" /><polygon points="592,752 368,752 368,752 592,752" /><polygon points="752,752 592,752 592,752 752,752" /><polygon points="-752,752 -752,592 -752,528 -752,528 -752,752" /><polygon points="-752,528 -752,368 -752,304 -752,304 -752,528" /><polygon points="-752,304 -752,144 -752,80 -752,80 -752,304" /><polygon points="-752,80 -752,-80 -752,-144 -752,-144 -752,80" /><polygon points="-752,-144 -752,-304 -752,-368 -752,-368 -752,-144" /><polygon points="-752,-368 -752,-528 -752,-592 -752,-592 -752,-368" /><polygon points="-752,-592 -752,-752 -752,-752 -752,-592" /></g></defs><rect fill="#fff" height="1804.0" id="background" width="1804.0" x="-902.0" y="-902.0" /><use fill="none" stroke="black" stroke-miterlimit="0" stroke-width="15" xlink:href="#bsp_ref" /><use fill="white" stroke="black" stroke-width="1" xlink:href="#bsp_ref" /></svg>