<svg viewBox="32 158 1152 1282" xmlns="http://www.w3.org/2000/svg" xmlns:xlink="http://www.w3.org/1999/xlink"><defs><g id="a"><path d="m992 1438h192z"/><path d="m417.5 158h-161.5-62.5 217.75z"/><path d="m641.5 158h-1.5-64-96-62.5 34.5 28 96 64z"/><path d="m865.5 158h-1.5-222.5 62.5 52z"/><path d="m1184 375v-61.3889 228.3889z"/><path d="m32 1090v124 100-100z"/><path d="m32 866v124 100-100z"/><path d="m32 642v124 100-100-32z"/><path d="m32 418v188 36-100z"/><path d="m304 1214v-32h48v128 96h-48z"/><path d="m352 1406v32h-48v-32z"/><path d="m368 1310h-16v-128h16z"/><path d="m32 866v-100h48 64 112v224h-224z"/><path d="m256 990v224h-224v-124-100z"/><path d="m256 1214v224h-64-160v-124-100z"/><path d="m256 766h48v224h-48z"/><path d="m304 990v128 64 32h-48v-224z"/><path d="m304 1214v192 32h-48v-224z"/><path d="m592 1310h-16-208v-128-64h160 64z"/><path d="m752 1118h48v64 128h-208v-192z"/><path d="m864 1182h96v128h-160v-128z"/><path d="m992 1118v64h-32-96v-64z"/><path d="m992 766h48 64 80v224h-192z"/><path d="m1184 990v224h-192v-32-64-128z"/><path d="m1184 1214v224h-192v-224z"/><path d="m304 990v-224h176 48v224z"/><path d="m528 1118h-160-64v-128h224z"/><path d="m528 990v-224h48 64 112v224z"/><path d="m752 1118h-160-64v-128h224z"/><path d="m864 766h128v224h-240v-224z"/><path d="m992 990v128h-128-64-48v-128z"/><path d="m80 606v-224h64v224z"/><path d="m144 670h-64v-64h64z"/><path d="m256 382v-224h161.5 62.5v224z"/><path d="m256 606v-224h224v224z"/><path d="m304 766h-48v-160h224v160z"/><path d="m480 158h96v48 64 48 64h-96z"/><path d="m576 382v112 112h-96v-224z"/><path d="m576 606v64 64 32h-48-48v-160z"/><path d="m144 606v-224h112v224z"/><path d="m256 766h-112v-32-64-64h112z"/><path d="m32 606v-188-36h48v224z"/><path d="m80 670v64 32h-48v-124-36h48z"/><path d="m144 734v32h-64v-32z"/><path d="m576 766v-32h64v32z"/><path d="m640 670h-64v-64-112h64z"/><path d="m800 494h-160-64v-112-64h64 160z"/><path d="m864 318h32v64 112h-32-64v-176z"/><path d="m576 318v-48h64v48z"/><path d="m576 158h64v48h-64z"/><path d="m800 318h-160v-48-64-48h1.5 222.5v160z"/><path d="m864 158h1.5 30.5v160h-32z"/><path d="m640 718v-48-176h160 64v224z"/><path d="m864 766h-112-112v-32-16h224z"/><path d="m896 494h64 80v176 48h-176v-224z"/><path d="m1040 718v16 32h-48-128v-48z"/><path d="m1040 734h64v32h-64z"/><path d="m1040 670v-176h64v105 71z"/><path d="m896 382v-64-160h64v217 7z"/><path d="m960 494h-64v-112h64z"/><path d="m1104 494v-119h80v167 57h-80z"/><path d="m1184 599v167h-80v-32-64-71z"/><path d="m964 375h140v119h-64-80v-112-7z"/><path d="m960 158h4v217h-4z"/><path d="m992 1214v224z"/><path d="m960 1310h-74.6667-85.3333z"/><path d="m192 1438h-160z"/><path d="m482 1438h-34z"/><path d="m416 1438h-192-32 64 48 48z"/><path d="m565.3333 1438h-51.3333-32-34-32z"/><path d="m482 1438v2z"/><path d="m482 1440v-2h32v2z"/><path d="m514 1440v-2z"/><path d="m192 1438v2z"/><path d="m224 1440v-2z"/><path d="m192 1440v-2h32v2z"/><path d="m576 1310h-224 16z"/><path d="m576 1438h-10.6667-149.3333-64v-32-96h224z"/><path d="m448 1438h-32-192 192z"/><path d="m448 1438h34 32 62-96-64z"/><path d="m514 1438h51.3333 10.6667z"/><path d="m514 1438h-32v2h32z"/><path d="m482 1440h32z"/><path d="m224 1438h-32v2h32z"/><path d="m192 1440h32z"/><path d="m800 1310h-224 16z"/><path d="m800 1438h-224v-128h224z"/></g><g id="b"><path d="m885.3333 1438h53.3334-10.6667-128z"/><path d="m411.25 158h-217.75-6.25 36.75 181z"/><path d="m980 158h-114.5-109.5z"/><path d="m980 158h47.3334-63.3334-4-64-30.5z"/><path d="m1184 313.6111v-6.1389 10.5278 224z"/><path d="m1184 1214v224z"/><path d="m1184 990v224z"/><path d="m1184 766v224z"/><path d="m1184 542v128 64 32-167z"/><path d="m32 317.5555v64.4445 36z"/><path d="m144 734h-64z"/><path d="m480 734h32-64z"/><path d="m640 734h-64z"/><path d="m992 734h-4.0367-19.9633-24-16z"/><path d="m1104 734h-64z"/><path d="m576 216.5143v53.4857-64z"/><path d="m576 734v-64z"/><path d="m640 206v64z"/><path d="m640 670v48 16z"/><path d="m704 510v32 192z"/><path d="m742.3333 318 153.6667 137.8691v-137.8691z"/><path d="m742.3333 318h153.6667v-34.3926l-140-125.6074h-52v160z"/><path d="m966.3333 518.9719 25.6667 23.0281h48v-48h-101.5z"/><path d="m1040 670v-128h-48v192h48z"/><path d="m1184 734v-64h-80v64z"/><path d="m1184 542-53.5-48h-90.5v48 128h64 80z"/><path d="m1040 494h90.5l-150.5-135.0281-84-75.3645v34.3926 137.8691l42.5 38.1309z"/><path d="m1130.5 494 53.5 48-204-183.0281z"/><path d="m992 542v144 16 32z"/><path d="m966.3333 518.9719-27.8333-24.9719-42.5-38.1309-153.6667-137.8691z"/><path d="m1040 670h64z"/><path d="m1184 313.6111v61.3889h-80-140l63.3334-61.3889z"/><path d="m1027.3334 313.6111-63.3334 61.3889v-217h63.3334z"/><path d="m1040 734v-16-48z"/><path d="m1104 670v64z"/><path d="m704 510v-192h-64v176 48h64z"/><path d="m640 542v128 64h64v-192z"/><path d="m704 158h-62.5-1.5v48 64 48h64z"/><path d="m640 270h-64z"/><path d="m640 206v-48h-64v48z"/><path d="m576 206h64z"/><path d="m576 670h64z"/><path d="m640 318v-48h-64v48 176h64z"/><path d="m576 494v48 128h64v-128-48z"/><path d="m444 337.2-49 44.8-139 127.0857-36 32.9143 4-3.6571z"/><path d="m256 382v-44.8l-224 204.8h48 64 76l36-32.9143z"/><path d="m452 158-196 179.2v44.8h139l49-44.8 21-19.2 15-13.7142v-146.2858z"/><path d="m256 382v127.0857l139-127.0857z"/><path d="m480 304.2858 96-87.7715v-10.5143-48h-96z"/><path d="m452 158-196 179.2z"/><path d="m193.5 317.5555 62.5 64.4445h-112-64-48v-64.4445z"/><path d="m193.5 158h62.5v224l-62.5-64.4445z"/><path d="m512 318h-47z"/><path d="m576 270v-53.4857l-96 87.7715-15 13.7142h47 64z"/><path d="m512 318v192 32z"/><path d="m576 542v-48-176h-64v224z"/><path d="m512 734h64v-64-128h-64z"/><path d="m144 670v64z"/><path d="m220 542h-76v128 64h80v-192z"/><path d="m80 670v-128h-48v100 92h48z"/><path d="m144 542h-64v128h64z"/><path d="m80 670h64z"/><path d="m80 734v-64z"/><path d="m1104 766h80v-32h-80z"/><path d="m256 734h-32-80-64-48v32h224z"/><path d="m480 734h-32-192v32h48 176z"/><path d="m704 734h-64-64-64-32v32h48 176z"/><path d="m928 734h-224v32h48 176z"/><path d="m992 766h112v-32h-64-48-64v32z"/><path d="m528 766h-48-176v224h224z"/><path d="m304 990v128h64 160v-128z"/><path d="m752 766h-48-176v224h224z"/><path d="m528 990v128h64 160v-128z"/><path d="m992 990v-224h-64-176v224z"/><path d="m800 1118h64 128v-128h-240v128z"/><path d="m1184 766h-80-112v224h192z"/><path d="m992 990v128 64 32h192v-224z"/><path d="m992 1214v224h192v-224z"/><path d="m864 1118v64h96 32v-64z"/><path d="m885.3333 1310h74.6667v-128h-96-64v128z"/><path d="m528 1310h-160-64v4h176 48z"/><path d="m752 1310h-160-64v4h176 48z"/><path d="m885.3333 1314v-4h-85.3333-48v4z"/><path d="m592 1118h-64-160v64 128h160 64z"/><path d="m752 1310h48v-128-64h-48-160v192z"/><path d="m256 766h-224v100 124h224z"/><path d="m32 990v100 124h224v-224z"/><path d="m32 1214v100h224v-100z"/><path d="m304 766h-48v224h48z"/><path d="m256 990v224h48v-32-64-128z"/><path d="m256 1214v100h48v-4-96z"/><path d="m304 1182v32 96h64v-128z"/><path d="m256 1314h-224z"/><path d="m480 1314h-176-48z"/><path d="m704 1314h-176-48z"/><path d="m304 1182v-64z"/><path d="m960 1310v-128z"/><path d="m960 1182h32z"/><path d="m992 1182v32z"/><path d="m800 1118h64z"/><path d="m304 1118h64z"/><path d="m800 1182v-64z"/><path d="m864 1182h-64z"/><path d="m864 1118v64z"/><path d="m368 1118v64z"/><path d="m368 1182h-16-48z"/><path d="m885.3333 1310v4 124h-85.3333v-128z"/><path d="m992 686v-144z"/><path d="m992 686h-4.0367z"/><path d="m416 1438h-160-64 32z"/><path d="m800 1438h-96-128z"/><path d="m452 158h-34.5-6.25z"/><path d="m405 158h-181-36.75-6.25 75z"/><path d="m1033.6666 158h-6.3332-47.3334z"/><path d="m980 158h-224 172z"/><path d="m1184 307.4722v-6.1388 16.6666z"/><path d="m32 1438v-124z"/><path d="m32 542v-224-6.8889 6.4444 100.4445z"/><path d="m32 311.1111v6.8889 224-32-205.3334z"/><path d="m256 1314h224 224 224 10.6667v124h-10.6667-128-96-128-96-64-160-64-160v-124z"/><path d="m192 1438h64 160 64 96 128 96 128 10.6667v-124h-10.6667-224-224-224-224v124z"/><path d="m220 542h4v-3.6571z"/><path d="m224 538.3429v3.6571h-4z"/><path d="m187.25 158v153.1111 6.8889h36.75v-160z"/><path d="m187.25 318v-6.8889-153.1111h36.75v160z"/><path d="m224 366.4572v-48.4572h-36.75-155.25v224z"/><path d="m187.25 318h36.75v48.4572l-192 175.5428v-224z"/><path d="m224 318v48.4572l32-29.2572 196-179.2h-40.75-6.25-181z"/><path d="m256 337.2-32 29.2572v-48.4572-160h181 6.25 40.75z"/><path d="m512 318v192 32 192h-64-224v-32-16-144-3.6571l220-201.1429 21-19.2z"/><path d="m465 318-21 19.2-220 201.1429v3.6571 144 16 32h224 64v-192-32-192z"/><path d="m32 318v-6.8889h155.25v6.8889z"/><path d="m187.25 318v-6.8889h-155.25v6.8889z"/><path d="m992 686v-144l-4.0367-3.6217v147.6217z"/><path d="m987.9633 686v-147.6217l4.0367 3.6217v144z"/><path d="m987.9633 734v-32h4.0367v32z"/><path d="m992 734v-32h-4.0367v32z"/><path d="m922.5992 307.4722h111.0674v-149.4722h-53.6666-224z"/><path d="m980 158h53.6666v149.4722h-111.0674l-166.5992-149.4722z"/><path d="m872 734h24 32 16 24 19.9633v-32-16-147.6217l-21.63-19.4064-224-200.9719h-38.3333v192 224z"/><path d="m966.3333 518.9719 21.63 19.4064v147.6217 16 32h-19.9633-24-16-32-24-168v-224-192h38.3333z"/><path d="m980 358.9719-57.4008-51.4997h111.0674 150.3334v10.5278 224z"/><path d="m1184 318v-10.5278h-150.3334-111.0674l57.4008 51.4997 204 183.0281z"/><path d="m872 734h-128-40z"/><path d="m512 734h-64z"/><path d="m452 158-175 160-21 19.2z"/><path d="m1184 542-184-165.0841-20-17.944z"/><path d="m512 318h-47z"/><path d="m512 318v192z"/><path d="m704 510v224-192z"/><path d="m966.3333 518.9719-224-200.9719 153.6667 137.8691z"/><path d="m992 542v144z"/><path d="m220 542h4z"/><path d="m444 337.2-220 201.1429-4 3.6571 36-32.9143z"/><path d="m224 702v32z"/><path d="m256 1314h-224z"/><path d="m480 1314h-224z"/><path d="m704 1314h-224z"/><path d="m928 1314h-224z"/><path d="m448 734h-224 32z"/><path d="m928 734h-32-24-168z"/><path d="m704 318v192z"/><path d="m980 358.9719-57.4008-51.4997-166.5992-149.4722 140 125.6074z"/><path d="m1033.6666 307.4722h150.3334v6.1389h-156.6666z"/><path d="m1033.6666 158v149.4722l-6.3332 6.1389v-155.6111z"/><path d="m742.3333 318h-38.3333z"/><path d="m992 734v-32z"/><path d="m987.9633 538.3783 4.0367 3.6217-25.6667-23.0281z"/><path d="m992 702h-4.0367z"/><path d="m987.9633 702h4.0367v-16h-4.0367z"/><path d="m224 542h-4z"/><path d="m465 318-21 19.2z"/><path d="m256 337.2-32 29.2572-192 175.5428z"/><path d="m187.25 311.1111v-153.1111h6.25v159.5555z"/><path d="m32 311.1111h155.25l6.25 6.4444h-161.5z"/><path d="m224 702v-16-144 192z"/><path d="m512 542v192z"/><path d="m928 1314h10.6667-53.3334-133.3333-48z"/><path d="m938.6667 1314v124h-53.3334v-124z"/><path d="m992 702v32z"/><path d="m992 702v-16z"/><path d="m1184 1438h-32-160z"/><path d="m452 158h-40.75-6.25z"/><path d="m1040 158h-6.3334-53.6666z"/><path d="m256 158h-75-50z"/><path d="m480 158h-28-47-149z"/><path d="m704 158h-15-49-139-21z"/><path d="m928 158h-172-52z"/><path d="m1184 926v-160 224z"/><path d="m1184 318v192 32z"/><path d="m32 1438v-124z"/><path d="m32 1054v64 160z"/><path d="m32 830v160 64-192z"/><path d="m400 766h-144-80 80z"/><path d="m896 766h-160-32-32 194z"/><path d="m1184 766h-32z"/><path d="m992 734h-16.0734-7.9266 19.9633z"/><path d="m872 734h24-16.3669z"/><path d="m704 734h40-8-64z"/><path d="m448 734h64 32-72-72z"/><path d="m448 734h-48-176z"/><path d="m256 337.2-224 204.8 192-175.5428z"/><path d="m980 358.9719-45.6667-40.9719-38.3333-34.3926-140-125.6074 166.5992 149.4722z"/><path d="m742.3333 318h-38.3333z"/><path d="m501 285.0857-36 32.9143h-188l175-160h28 21z"/><path d="m640 158-139 127.0857v-127.0857z"/><path d="m689 318h-177-47l36-32.9143 139-127.0857h49z"/><path d="m896 283.6074v34.3926h-153.6667-38.3333-15v-160h15 52z"/><path d="m896 318v-34.3926l38.3333 34.3926z"/><path d="m512 510v32 192-192z"/><path d="m704 318v192z"/><path d="m1000 376.9159 184 165.0841h-184z"/><path d="m1184 542v192h-32-112-40v-184.8224-7.1776z"/><path d="m992 542-4.0367-3.6217-21.63-19.4064z"/><path d="m896 318v137.8691l-153.6667-137.8691z"/><path d="m992 542h8v7.1776z"/><path d="m966.3333 518.9719-70.3333-63.1028v-137.8691h38.3333l45.6667 40.9719 20 17.944v165.0841h-8z"/><path d="m1000 734h-8v-32-16-144l8 7.1776z"/><path d="m689 318h15v192 32h-192v-32-192z"/><path d="m704 542v192h-32-128-32v-192z"/><path d="m256 509.0857-36 32.9143h-188l224-204.8z"/><path d="m465 318-21 19.2-188 171.8857v-171.8857l21-19.2z"/><path d="m465 318-21 19.2z"/><path d="m224 542v144z"/><path d="m224 702h12.1905 11.8095 12.5714z"/><path d="m224 686v16 32h-48-112-32v-192h188 4z"/><path d="m1152 766v-32z"/><path d="m1152 766h-112v-32h112z"/><path d="m672 734v32h-96-32v-32z"/><path d="m176 766h-112v-32h112z"/><path d="m960 766h80 112 32v160h-192-32z"/><path d="m992 1086v-160h192v64 160h-192z"/><path d="m1184 1150v64 160h-192v-60-4-160z"/><path d="m1184 1374v64h-192v-64z"/><path d="m736 926v-32-128h160 64v160 64h-224z"/><path d="m960 990v64 160h-224v-64-32-128z"/><path d="m960 1214v64h-128-96v-64z"/><path d="m704 766h32v128h-32z"/><path d="m576 766h96 32v128 32h-128z"/><path d="m704 926h32v64 128h-32-128v-128-64z"/><path d="m256 1314h-224v-4h128 96z"/><path d="m480 1314h-224v-4h192 32z"/><path d="m704 1314h-224v-4h64 160z"/><path d="m928 1314h-224v-4h32 96 96z"/><path d="m992 1310v4h-64v-4z"/><path d="m736 1278h96v32h-96z"/><path d="m672 1278h-96-32-96v-128h32 32 64 96z"/><path d="m704 1150h32v64 64h-64v-128z"/><path d="m704 1118v32h-32-96v-32z"/><path d="m480 766h32v128h-32z"/><path d="m512 926v-32-128h32 32v160 64h-64z"/><path d="m576 990v128 32h-64v-32-128z"/><path d="m512 926v64 128h-32v-128-64z"/><path d="m32 990v-160-64h32 112 80v224z"/><path d="m256 1118h-224v-64-64h224z"/><path d="m400 766h80v128 32 64h-224v-224z"/><path d="m480 990v128h-32-192v-128z"/><path d="m448 1118h32v32h-32z"/><path d="m544 1278v32h-64-32v-32z"/><path d="m256 1278h-96-128v-160h224z"/><path d="m448 1118v32 128h-144-48v-160z"/><path d="m160 1278h96v32h-96z"/><path d="m992 1086v64 160-96z"/><path d="m960 1278h-128z"/><path d="m672 1278h64-64-96z"/><path d="m704 926h32z"/><path d="m736 894h-32z"/><path d="m704 894v32z"/><path d="m960 990v-64 128z"/><path d="m736 1118h-32z"/><path d="m704 1118v32z"/><path d="m512 1118h-32z"/><path d="m480 926h32z"/><path d="m512 894h-32z"/><path d="m512 926v-32z"/><path d="m992 1314h-53.3333-10.6667z"/><path d="m992 1314v60 64h-53.3333v-124z"/><path d="m1000 734h40z"/><path d="m1000 734h-8z"/><path d="m968 734h-24z"/><path d="m544 734h-72z"/><path d="m400 734h-152-11.8095-20.1905-40 48z"/><path d="m968 686v-32z"/><path d="m975.9266 654h-7.9266v32h7.9266z"/><path d="m1000 654h-24.0734v32 16 32h16.0734 8z"/><path d="m968 702v32h7.9266v-32z"/><path d="m975.9266 686h-7.9266 19.9633 4.0367z"/><path d="m968 702h7.9266 16.0734-4.0367z"/><path d="m975.9266 702v-16h16.0734v16z"/><path d="m968 686h-16.1468-7.8532z"/><path d="m236.1905 702v-16-32h-20.1905v80h20.1905z"/><path d="m248 654h-11.8095v32h11.8095z"/><path d="m236.1905 702v32h11.8095v-32z"/><path d="m248 702v32z"/><path d="m260.5714 686h-12.5714-11.8095-12.1905z"/><path d="m236.1905 702h-12.1905v-16h12.1905z"/><path d="m176 734v32z"/><path d="m736 734h8 128-16.4404-7.5596-24-48z"/><path d="m944 702h7.8532 16.1468z"/><path d="m968 734v-32z"/><path d="m968 654h7.9266 24.0734z"/><path d="m968 686v16h-16.1468v-16z"/><path d="m248 654h-32 20.1905z"/><path d="m248 654v32z"/><path d="m1000 734h40-64-8z"/><path d="m472 734h72-48-96z"/><path d="m472 734h-72-152 152z"/><path d="m176 734h40z"/><path d="m1000 654v80z"/><path d="m968 734v-32-16-32z"/><path d="m968 654h32v80h-32z"/><path d="m216 734v-80z"/><path d="m248 654v32 16 32z"/><path d="m248 734h-32v-80h32z"/><path d="m1040 734h-64z"/><path d="m944 734h-24-24 32z"/><path d="m496 734h48z"/><path d="m400 734h-128-11.4286-20.5714-64 40 32z"/><path d="m968 734v-32h-16.1468-7.8532v32z"/><path d="m968 654h-16.1468v32 16h16.1468z"/><path d="m951.8532 654h-7.8532v32h7.8532z"/><path d="m976 654h-8v48 32h8z"/><path d="m951.8532 654h16.1468 8-32z"/><path d="m944 686h-16.2202z"/><path d="m927.7798 686h16.2202-16.2202-7.7798-16.2936z"/><path d="m260.5714 702v-16-32h-20.5714v80h20.5714z"/><path d="m272 654h-11.4286v32h11.4286z"/><path d="m260.5714 702v32h11.4286v-32z"/><path d="m272 702v32z"/><path d="m260.5714 702h11.4286 12.9524-24.381-12.5714z"/><path d="m284.9524 686h-12.9524-11.4286-12.5714 12.5714z"/><path d="m260.5714 686v16h-12.5714v-16z"/><path d="m944 734v-32z"/><path d="m272 654h-32 20.5714z"/><path d="m272 654v32z"/><path d="m976 734h64-88z"/><path d="m944 734h8-32z"/><path d="m896 734h24-16.2936z"/><path d="m496 734h48-24-120z"/><path d="m400 734h-128 128 96z"/><path d="m176 734h64z"/><path d="m944 734v-32-16z"/><path d="m944 654v32z"/><path d="m976 654v80z"/><path d="m976 654v80h-24-8v-48-32z"/><path d="m272 654v32 16 32z"/><path d="m240 734v-80z"/><path d="m272 734h-32v-80h32z"/><path d="m544 734h-24z"/><path d="m400 734h-104-11.0476-20.9524-88 64 32z"/><path d="m927.7798 686h24.2202v-32h-32v32z"/><path d="m952 702v-16h-24.2202v16z"/><path d="m952 734v-32h-24.2202-7.7798v32z"/><path d="m952 654h-32z"/><path d="m920 734v-32z"/><path d="m920 686v-32z"/><path d="m903.7064 686h16.2936-16.2936-7.7064z"/><path d="m903.7064 702h40.2936 24 19.9633v-16h-19.9633-24-16.2202-24.0734z"/><path d="m903.7064 702h16.2936 7.7798 16.2202z"/><path d="m927.7798 702v-16h16.2202v16z"/><path d="m284.9524 702v-16-32h-20.9524v80h20.9524z"/><path d="m296 654h-11.0476v32h11.0476z"/><path d="m284.9524 702v32h11.0476v-32z"/><path d="m296 702v32z"/><path d="m284.9524 702h11.0476 13.3333-24.3809-12.9524z"/><path d="m309.3333 686h-13.3333-11.0476-12.9524 12.9524z"/><path d="m284.9524 686v16h-12.9524v-16z"/><path d="m896 686h-16.3669-7.6331z"/><path d="m920 686v-32 48z"/><path d="m920 702h-16.2936-7.7064 7.7064z"/><path d="m920 686v16h-16.2936v-16z"/><path d="m296 654h-32 20.9524z"/><path d="m296 654v32z"/><path d="m952 734h88-112z"/><path d="m400 734h120 24z"/><path d="m520 734h-120-104 104z"/><path d="m176 734h88z"/><path d="m952 654v32 16 32z"/><path d="m920 702v-48h32v80h-24-8z"/><path d="m264 734v-80z"/><path d="m296 654v32 16 32z"/><path d="m296 734h-32v-80h32z"/><path d="m64 766h-32z"/><path d="m1152 734h32z"/><path d="m64 734h-32z"/><path d="m1040 766v-32z"/><path d="m64 766v-32z"/><path d="m928 734h-8z"/><path d="m320 734h-10.6667-21.3333-112 88 32 104z"/><path d="m172.3636 734h3.6364z"/><path d="m928 654h-32z"/><path d="m896 686v-32z"/><path d="m903.7064 686v16 32h16.2936 8v-48z"/><path d="m896 702v32h7.7064v-32z"/><path d="m903.7064 686h24.2936v-32h-32v32z"/><path d="m309.3333 702v-16-32h-21.3333v80h21.3333z"/><path d="m320 654h-10.6667v32h10.6667z"/><path d="m309.3333 702v32h10.6667v-32z"/><path d="m320 702v32z"/><path d="m309.3333 702h10.6667 13.7143-24.381-13.3333z"/><path d="m333.7143 686h-13.7143-10.6667-13.3333 13.3333z"/><path d="m309.3333 686v16h-13.3333v-16z"/><path d="m172.3636 734h-7.2727-7.2727-7.2727-7.2728-7.2727v32h40v-32z"/><path d="m1184 1438h-32z"/><path d="m872 702h7.6331 16.3669z"/><path d="m896 734v-32z"/><path d="m896 686v16h-16.3669v-16z"/><path d="m320 654h-32 21.3333z"/><path d="m320 654v32z"/><path d="m928 734h112-136-8z"/><path d="m381.8182 734h162.1818z"/><path d="m381.8182 734h-61.8182 80 144z"/><path d="m165.0909 734h7.2727 3.6364 112z"/><path d="m896 734v-32-16-32z"/><path d="m928 654v32 48z"/><path d="m896 654h32v80h-32z"/><path d="m320 654v32 16 32z"/><path d="m288 734v-80z"/><path d="m320 734h-32v-80h32z"/><path d="m1040 734h-136z"/><path d="m344 734h-10.2857-21.7143-154.1818 7.2727 122.9091 32 61.8182z"/><path d="m879.6331 654h24.3669-32z"/><path d="m872 686v-32z"/><path d="m896 734h8v-80h-24.3669v32 16 32z"/><path d="m879.6331 654h-7.6331v32h7.6331z"/><path d="m872 702v32h7.6331v-32z"/><path d="m872 686h-16.4404-7.5596-16.5137z"/><path d="m333.7143 702v-16-32h-21.7143v80h21.7143z"/><path d="m344 654h-10.2857v32h10.2857z"/><path d="m333.7143 702v32h10.2857v-32z"/><path d="m344 702v32z"/><path d="m333.7143 702h10.2857 14.0952-24.3809-13.7143z"/><path d="m358.0952 686h-14.0952-10.2857-13.7143 13.7143z"/><path d="m333.7143 686v16h-13.7143v-16z"/><path d="m872 734v-32z"/><path d="m872 686v16h-16.4404v-16z"/><path d="m344 654h-32 21.7143z"/><path d="m344 654v32z"/><path d="m904 734h136-160-8z"/><path d="m544 734h-176-.7273z"/><path d="m367.2727 734h-23.2727 37.8182 162.1818z"/><path d="m150.5455 734h7.2727 154.1818z"/><path d="m872 734v-32-16-32z"/><path d="m904 654v80z"/><path d="m904 654v80h-32v-80z"/><path d="m312 734v-80z"/><path d="m344 654v32 16 32z"/><path d="m344 734h-32v-80h32z"/><path d="m1040 734h-160z"/><path d="m824 734h24z"/><path d="m544 734h-64-112z"/><path d="m367.2727 734h-9.1775-22.0952-192.7273 7.2728 161.4545 32z"/><path d="m358.0952 702v32h9.1775.7273v-32z"/><path d="m368 654h-9.9048v32h9.9048z"/><path d="m358.0952 702v-16-32h-22.0952v80h22.0952z"/><path d="m848 702v32h7.5596v-32z"/><path d="m880 654h-24.4404v32 16 32h16.4404 8z"/><path d="m855.5596 654h-7.5596v32h7.5596z"/><path d="m855.5596 654h24.4404-32z"/><path d="m848 734v-32z"/><path d="m831.4863 686h16.5137-16.5137-7.4863z"/><path d="m368 702v32z"/><path d="m831.4863 702h40.5137 24 7.7064v-16h-7.7064-24-40.5137z"/><path d="m831.4863 702h16.5137 7.5596 16.4404z"/><path d="m382.4762 686h-24.381-24.3809-24.381-24.3809-24.381-36.5714v16h36.5714 24.381 24.3809 24.381 24.3809 24.381z"/><path d="m358.0952 702h9.9048 14.4762-24.381-14.0952z"/><path d="m382.4762 686h-14.4762-9.9048-14.0952 14.0952z"/><path d="m358.0952 686v16h-14.0952v-16z"/><path d="m824 686h-40.6605-7.3395-24-16-24.8807-7.1193-16.9541-15.0459v16h32 7.1193 24.8807 16 24 7.3395 40.6605 7.4863v-16z"/><path d="m824 686h-16.5872-7.4128-16.6605z"/><path d="m848 702v-16z"/><path d="m848 702h-16.5137-7.4863 7.4863z"/><path d="m848 686v16h-16.5137v-16z"/><path d="m368 654h-32 22.0952z"/><path d="m368 654v32z"/><path d="m32 734v-32-24-32-24-32-24-24-8-24 32z"/><path d="m104 766h-40z"/><path d="m1080 766h-40z"/><path d="m256 766h-80-40-32-40-32z"/><path d="m480 766h-80-144z"/><path d="m480 766h64-32-32-80z"/><path d="m866 766h-194-30 126z"/><path d="m1090 766h-10-40-144-30 126z"/><path d="m1040 766h-80-64z"/><path d="m1152 766h-40z"/><path d="m176 766h-40z"/><path d="m1080 734h32 40 32-104-8z"/><path d="m1072 734h-32 40z"/><path d="m1112 734h40z"/><path d="m672 734h64-32-40-22z"/><path d="m544 734h7-71z"/><path d="m256 734h-120 7.2727 192.7273z"/><path d="m104 734h-40z"/><path d="m880 654v80z"/><path d="m848 654v32z"/><path d="m848 702v-16-32h32v80h-32z"/><path d="m336 734v-80z"/><path d="m368 654v32 16 32z"/><path d="m368 734h-32v-80h32z"/><path d="m544 766v-32z"/><path d="m672 734v32z"/><path d="m1112 734h-32v32h10 22z"/><path d="m1112 766h40v-32h-40z"/><path d="m1080 734h-40v32h40z"/><path d="m104 766h32v-32h-32z"/><path d="m104 766v-32h-40v32z"/><path d="m1184 734h-104z"/><path d="m1072 734h-216-8 32 160z"/><path d="m824 734h-24-24z"/><path d="m480 734h71 7-78-88z"/><path d="m360 734h-104z"/><path d="m256 734h-224 32 40 32z"/><path d="m480 734h-88-9.5238-22.4762-104 80 32z"/><path d="m856 654h-32z"/><path d="m824 686v-32z"/><path d="m848 734h8v-32h-24.5137-7.4863v32z"/><path d="m856 702v-16h-24.5137v16z"/><path d="m831.4863 686h24.5137v-32h-32v32z"/><path d="m406.8571 702h24.381 24.3809 12.1905 12.1905 24.381 7.619 16.7619 15.2381v-16h-32-7.619-24.381-24.381-24.3809-24.381-24.3809v16z"/><path d="m382.4762 702v32h9.5238v-32z"/><path d="m392 654h-9.5238v32h9.5238z"/><path d="m382.4762 702v-16-32h-22.4762v80h22.4762z"/><path d="m392 702v32z"/><path d="m406.8571 686h-14.8571-9.5238-14.4762 14.4762z"/><path d="m382.4762 702h9.5238 14.8571-24.3809-14.4762z"/><path d="m382.4762 686v16h-14.4762v-16z"/><path d="m824 734v-32z"/><path d="m824 686v16h-16.5872v-16z"/><path d="m392 654h-32 22.4762z"/><path d="m392 654v32z"/><path d="m824 734h8z"/><path d="m558 734h7-85z"/><path d="m256 734h-224z"/><path d="m824 734v-32-16-32z"/><path d="m856 654v32 16 32z"/><path d="m824 654h32v80h-24-8z"/><path d="m360 734v-80z"/><path d="m392 654v32 16 32z"/><path d="m392 734h-32v-80h32z"/><path d="m736 894v32z"/><path d="m736 1118v32z"/><path d="m480 926v-32z"/><path d="m480 1118v32z"/><path d="m832 734h24z"/><path d="m776 734h24z"/><path d="m480 734h85 7-92-64z"/><path d="m384 734h-128z"/><path d="m256 734h-224z"/><path d="m480 734h-64-9.1429-22.8571-128 104 32z"/><path d="m807.4128 654h24.5872-24-8z"/><path d="m832 702v-48h-24.5872v32 16z"/><path d="m824 734h8v-32h-24.5872-7.4128v32z"/><path d="m807.4128 654h-7.4128v32h7.4128z"/><path d="m800 686v-32z"/><path d="m783.3395 686h16.6605-16.6605-7.3395z"/><path d="m783.3395 702h16.6605 7.4128 16.5872z"/><path d="m406.8571 702v-16-32h-22.8571v80h22.8571z"/><path d="m416 654h-9.1429v32h9.1429z"/><path d="m406.8571 702v32h9.1429v-32z"/><path d="m416 702v32z"/><path d="m431.2381 686h-15.2381-9.1429-14.8571 14.8571z"/><path d="m406.8571 702h9.1429 15.2381-24.381-14.8571z"/><path d="m406.8571 686v16h-14.8571v-16z"/><path d="m800 702v32z"/><path d="m800 702v-16-32z"/><path d="m800 702h-16.6605-7.3395 7.3395z"/><path d="m800 686v16h-16.6605v-16z"/><path d="m416 654h-32 22.8571z"/><path d="m416 654v32z"/><path d="m131 158h-4.7414-82.7586 212.5z"/><path d="m256 158h224z"/><path d="m480 158h224z"/><path d="m704 158h224z"/><path d="m1090.6666 158h-50.6666-60-52z"/><path d="m1080 734h-56-168 216z"/><path d="m1080 734h104-64-96z"/><path d="m256 734h-224z"/><path d="m832 654v48 32z"/><path d="m832 654v80h-24v-80z"/><path d="m808 734h-8v-32-48h8z"/><path d="m416 654v32 16 32z"/><path d="m384 734v-80z"/><path d="m416 734h-32v-80h32z"/><path d="m160 1310h-128z"/><path d="m448 1310h-192z"/><path d="m704 1310h32-32-160z"/><path d="m256 1310h-96-128 32 112 32z"/><path d="m480 1310h-32-192 16 32z"/><path d="m704 1310h-160-64 48z"/><path d="m928 1310h-96-96-32 48z"/><path d="m928 1310h64-64-96z"/><path d="m832 1278h128-64-160z"/><path d="m448 1278h96-64z"/><path d="m448 1278h-144z"/><path d="m256 1278h48z"/><path d="m160 1278h-128z"/><path d="m832 1278h-96v32h96z"/><path d="m736 1278v32z"/><path d="m832 1310v-32z"/><path d="m544 1310v-32z"/><path d="m448 1278v32z"/><path d="m544 1278h-96v32h32 64z"/><path d="m256 1310v-32z"/><path d="m160 1278v32z"/><path d="m256 1278h-96v32h96z"/><path d="m768 766h-126-63-35 56 24z"/><path d="m992 766h-126-98 80z"/><path d="m579 766h-35z"/><path d="m1184 766h-32-40-22z"/><path d="m1184 734h-64z"/><path d="m1024 734h-128-72-16-8 8 24 24z"/><path d="m808 734h16z"/><path d="m736 734h40z"/><path d="m704 734h-32-8z"/><path d="m256 734h-224z"/><path d="m480 734h-40-8.7619-23.2381-152 128 32z"/><path d="m579 734h-99 92z"/><path d="m408 734h-128-24z"/><path d="m783.3395 654h24.6605-32z"/><path d="m776 686v-32z"/><path d="m808 702v-48h-24.6605v32 16z"/><path d="m783.3395 654h-7.3395v32h7.3395z"/><path d="m800 734h8v-32h-24.6605-7.3395v32z"/><path d="m431.2381 702v32h8.7619v-32z"/><path d="m440 654h-8.7619v32h8.7619z"/><path d="m431.2381 702v-16-32h-23.2381v80h23.2381z"/><path d="m440 702v32z"/><path d="m455.619 686h-15.619-8.7619-15.2381 15.2381z"/><path d="m431.2381 702h8.7619 15.619-24.3809-15.2381z"/><path d="m431.2381 686v16h-15.2381v-16z"/><path d="m579 734v32h63v-32z"/><path d="m642 766h30v-32h-30z"/><path d="m579 766v-32h-7-7-7-7-7v32z"/><path d="m704 894h-32v32h32z"/><path d="m704 1150h-32z"/><path d="m704 1150h12.5217 19.4783z"/><path d="m704 1118h-32v32h32z"/><path d="m512 894h32-64z"/><path d="m512 1150h-32z"/><path d="m512 1150v-32z"/><path d="m126.2586 158h4.7414 50 6.25v153.1111l-60.9914-62.8889z"/><path d="m126.2586 248.2222 60.9914 62.8889h-155.25v-6.4445-18.6666-37.7778z"/><path d="m776 734v-32z"/><path d="m440 654h-8-24 23.2381z"/><path d="m440 654v32z"/><path d="m848 766h-80-144 80z"/><path d="m1072 766h-80-144 80z"/><path d="m1072 766h112-94-98z"/><path d="m544 766h56z"/><path d="m776 734h8-32-16z"/><path d="m704 734h32-.8073-7.1927z"/><path d="m664 734h-40-24-24-32-104 40 99 63z"/><path d="m664 734h8-48z"/><path d="m440 734h104-80-32z"/><path d="m280 734h-24z"/><path d="m256 734h-224z"/><path d="m808 654v48 32z"/><path d="m776 734v-32-16-32z"/><path d="m808 734h-24-8v-80h32z"/><path d="m408 734v-80z"/><path d="m440 654v32 16 32z"/><path d="m464 702h3.8095-12.1905-15.619 3.4286z"/><path d="m467.8095 702h-3.8095 16z"/><path d="m440 734h-8v-80h8z"/><path d="m432 734h-24v-80h24z"/><path d="m736 926h-32-32z"/><path d="m480 1118h32 32z"/><path d="m480 1150h64-32z"/><path d="m736 702h16z"/><path d="m736 686h-.8073-7.1927-16.8807z"/><path d="m736 734h16z"/><path d="m544 734h-32-48z"/><path d="m784 654h-32z"/><path d="m752 686v-32z"/><path d="m784 734v-32h-24.7339-7.2661v32z"/><path d="m784 702v-16h-24.7339v16z"/><path d="m759.2661 686h24.7339v-32h-32v32z"/><path d="m752 702h7.2661 16.7339z"/><path d="m759.2661 686h-7.2661 24z"/><path d="m759.2661 702v-16h16.7339v16z"/><path d="m736 702h-24.8807 16.8807 7.1927z"/><path d="m752 686h-16z"/><path d="m736 686h16z"/><path d="m464 734v-32h-8.381-23.619v32z"/><path d="m455.619 686v-32h-23.619v48h23.619z"/><path d="m464 686v-32h-8.381v32z"/><path d="m464 702v32z"/><path d="m464 702h16 8 16.381-24.381z"/><path d="m455.619 702h8.381-20.5714z"/><path d="m480 686h-16-8.381-15.619 15.619z"/><path d="m455.619 686v16h-12.1904-3.4286v-16z"/><path d="m752 702v32z"/><path d="m752 686v-32 48z"/><path d="m752 702h-16z"/><path d="m464 686v-32z"/><path d="m464 686v16 32z"/><path d="m1152 766h32-112z"/><path d="m624 766h-24z"/><path d="m544 766h-64z"/><path d="m256 766h-224z"/><path d="m480 766h-224z"/><path d="m704 766h-80-24-56-64 192z"/><path d="m928 766h-80-144 192z"/><path d="m1152 766h-80-144 64z"/><path d="m752 734h32-24-24z"/><path d="m600 734h-24z"/><path d="m576 734h24 24 48z"/><path d="m600 734h24z"/><path d="m544 734h32z"/><path d="m464 734h48-24-8-24-24z"/><path d="m784 654v32 16 32z"/><path d="m752 702v-48h32v80h-32z"/><path d="m464 654h-32 23.619z"/><path d="m432 734v-32-48z"/><path d="m432 654h32v32 48h-32z"/><path d="m576 1278h-32z"/><path d="m704 1150h-32 44.5217z"/><path d="m716.5217 1150h-44.5217v-32h64v32z"/><path d="m672 894h-128z"/><path d="m672 926v-32h-128v32z"/><path d="m672 1118h-128z"/><path d="m672 1150v-32h-128v32z"/><path d="m544 894h-32v32h32z"/><path d="m544 1118h-32v32h32z"/><path d="m736 686h16v16h-16-.8073v-16z"/><path d="m704 734h24z"/><path d="m735.1927 654h24.8073-32z"/><path d="m736 734h24v-80h-24.8073v32 16 32z"/><path d="m735.1927 654h-7.1927v32h7.1927z"/><path d="m728 702v32h7.1927v-32z"/><path d="m728 686v-32z"/><path d="m711.1193 686h16.8807-16.8807-7.1193z"/><path d="m488 654h-8v32h8z"/><path d="m480 702v-16-32h-24v80h24z"/><path d="m480 702v32h8v-32z"/><path d="m456 654v80z"/><path d="m488 702v32z"/><path d="m504.381 686h-16.381-8-16 16z"/><path d="m480 686v16h-16v-16z"/><path d="m728 702v32z"/><path d="m728 686v-32 48z"/><path d="m728 702h-16.8807-7.1193 7.1193z"/><path d="m728 686v16h-16.8807v-16z"/><path d="m512 702h-7.619-16.381 16.381z"/><path d="m488 686v-32z"/><path d="m488 686v16 32z"/><path d="m256 766h-224z"/><path d="m824 734h72z"/><path d="m824 734h-40 24z"/><path d="m760 734h24 40-88z"/><path d="m784 734h-24z"/><path d="m456 734h-24z"/><path d="m432 734h24 8z"/><path d="m760 654v80z"/><path d="m760 654v80h-24-8v-32-48z"/><path d="m488 654h-32 24z"/><path d="m456 654h32v32 48h-24-8z"/><path d="m480 766h-224z"/></g><g id="c"><path d="m1184 510v24 8 24 24 32 24 32 24 32-192z"/><path d="m1184 286v24 200-192-16.6666z"/><path d="m1184 230.7361v55.2639z"/><path d="m32 510v-200-24 18.6666z"/><path d="m32 286v-55.4445 17.6667z"/><path d="m544 766h128-192z"/><path d="m256 766h-224z"/><path d="m480 766h-224z"/><path d="m1120 734h-128-56-40 128z"/><path d="m896 734h40z"/><path d="m736 734h-8z"/><path d="m672 734h32-24z"/><path d="m512 734h-24z"/><path d="m488 734h-8-16z"/><path d="m464 734h16z"/><path d="m280 734h128 24z"/><path d="m256 734h-32-192z"/><path d="m32 230.5555v-12.8889-59.6666h6.7586l87.5 90.2222h-94.2586z"/><path d="m40.75 534h-8.75v8z"/><path d="m1184 542v-8h-8.9166z"/><path d="m1184 566v-24l-8.9166-8h-183.0834v32z"/><path d="m1184 622v-32h-192v32z"/><path d="m1184 678v-32h-192v32z"/><path d="m1120 734h64v-32h-192v32z"/><path d="m928 494h64-56-40z"/><path d="m928 494h-32-192v32 24 32 24 32h192 32z"/><path d="m936 638h56v-16-32-24-32-40h-64v144z"/><path d="m432 606v-112h-152v144h152z"/><path d="m512 582v-32-24-32h-64-16v112h80z"/><path d="m656 606h-144-80v32h72 40 112z"/><path d="m672 638h32v-32h-48v32z"/><path d="m704 526v-32h-32-160v32z"/><path d="m704 582v-32h-192v32z"/><path d="m704 550h-192z"/><path d="m656 606h48-192z"/><path d="m992 702v-24-32-8h-56v96h56z"/><path d="m704 686v-32z"/><path d="m711.1193 686h24.8807v-32h-32v32z"/><path d="m736 702v-16h-24.8807v16z"/><path d="m728 734h8v-32h-24.8807-7.1193v32z"/><path d="m704 686h-16.9541z"/><path d="m544 638v64 32z"/><path d="m576 734h96v-96h-16-112v96z"/><path d="m512 702v32z"/><path d="m528.7619 702h-16.7619z"/><path d="m512 654h-7.619v32h7.619z"/><path d="m504.381 686v-32h-16.381v48h16.381z"/><path d="m488 702v-48h-8v80h8z"/><path d="m504.381 702h-16.381v32h24v-32z"/><path d="m480 654v80z"/><path d="m512 686h-7.619-16.381 16.381z"/><path d="m504.381 686v16h-16.381v-16z"/><path d="m280 638v-144h-56v40 32 24 32 24 32 24 32h32 24z"/><path d="m224 534h-183.25l-8.75 8v24h192z"/><path d="m224 590h-192v32h192z"/><path d="m224 702h-192v32h192z"/><path d="m224 646h-192v32h192z"/><path d="m672 862v-96z"/><path d="m672 862v32z"/><path d="m672 862h224z"/><path d="m544 894v-128 64z"/><path d="m672 894v-32-96h-128v128z"/><path d="m672 926v192z"/><path d="m672 926h-128z"/><path d="m544 926h-32-32z"/><path d="m704 654h32z"/><path d="m704 702v-16-32 80z"/><path d="m704 734v-32z"/><path d="m544 1118v-192 128z"/><path d="m672 1118h32 32z"/><path d="m672 1118v-192h-128v192z"/><path d="m512 734h32z"/><path d="m512 654h-32 8 16.381z"/><path d="m512 654v32z"/><path d="m672 1150h-128z"/><path d="m896 766h-192-32v96h224z"/><path d="m672 1278h64z"/><path d="m672 1278h-96z"/><path d="m576 1278h96v-128h-128v128z"/><path d="m32 1438h32z"/><path d="m256 1438h48-32-16-32-16-32-16-32-16-32-16z"/><path d="m256 1438h-192-32 160z"/><path d="m480 1438h-176-48 160z"/><path d="m704 1438h-176-48 96z"/><path d="m928 1438h-32-144-48 96z"/><path d="m1152 1438h-224 10.6667 53.3333z"/><path d="m896 1438h-16-32-16-32-16-32z"/><path d="m1184 1438h-13-19z"/><path d="m1184 1214v96 128-64z"/><path d="m1184 990v224-64z"/><path d="m1184 1310v128z"/><path d="m32 1406v-53.9476-42.0524 4 124z"/><path d="m32 766v64z"/><path d="m32 1352.0524v-34.8482-7.2042z"/><path d="m32 1054v224-192z"/><path d="m1184 766h-32z"/><path d="m680 734h24 8z"/><path d="m672 734h8z"/><path d="m512 734h32-8-32z"/><path d="m280 734v-96z"/><path d="m672 638h32 192-192z"/><path d="m672 686v16z"/><path d="m672 702v-16-48 96z"/><path d="m736 654v32 16 32z"/><path d="m736 734h-24-8v-80h32z"/><path d="m544 638v48 16z"/><path d="m512 654v32 16 32z"/><path d="m512 734h-8-24v-80h32z"/><path d="m992 1310h-64z"/><path d="m992 990v-64 160z"/><path d="m992 926v-64z"/><path d="m1184 990v-224h-32-160v96 64 64z"/><path d="m1184 1214v-224h-192v96 128z"/><path d="m992 1310h192v-96h-192z"/><path d="m960 1278h-64z"/><path d="m544 1278h-64z"/><path d="m304 1278h-48-96 96z"/><path d="m544 766v64z"/><path d="m544 1278v-128z"/><path d="m672 926v192 32z"/><path d="m672 1278v-64-64z"/><path d="m672 894h32 32z"/><path d="m992 862v-96h-64-32v96z"/><path d="m672 926v-32h64v32z"/><path d="m960 1054v96 128-64z"/><path d="m960 1054v-128 128 96z"/><path d="m544 894v32h-64v-32z"/><path d="m544 1118v32h-64v-32z"/><path d="m528 1310h-48-176v128h176 48z"/><path d="m704 1438h48v-128h-48-176v128z"/><path d="m672 686v-48z"/><path d="m672 702h8 7.0459 16.9541z"/><path d="m544 638v48z"/><path d="m544 686h-8-7.2381-16.7619z"/><path d="m256 1278h-96-128 128z"/><path d="m480 1278h-96-128 48 144z"/><path d="m480 1278h64-160z"/><path d="m32 1278h128v-192h-128z"/><path d="m712 734h24 88 72 40-40z"/><path d="m536 734h8z"/><path d="m687.0459 686h24.9541v-32h-32v32z"/><path d="m687.0459 686v16h24.9541v-16z"/><path d="m712 734v-32h-24.9541-7.0459v32z"/><path d="m680 686v-32z"/><path d="m687.0459 686h-7.0459-8 15.0459 16.9541z"/><path d="m687.0459 702v-16h16.9541v16z"/><path d="m528.7619 702h-24.7619v32h32v-32z"/><path d="m528.7619 686v-32h-24.7619v48h24.7619z"/><path d="m536 654h-7.2381v32h7.2381z"/><path d="m544 702h-8z"/><path d="m528.7619 702h7.2381 8-15.2381-16.7619z"/><path d="m528.7619 686v16h-16.7619v-16z"/><path d="m680 654h32z"/><path d="m680 686v-32 48z"/><path d="m680 702v32z"/><path d="m536 686v-32z"/><path d="m536 686v16z"/><path d="m536 686h8z"/><path d="m536 702v-16h8v16z"/><path d="m80 1438h32z"/><path d="m752 1438h32z"/><path d="m800 1438h32z"/><path d="m848 1438h32z"/><path d="m896 1438h32z"/><path d="m944 1438h32z"/><path d="m992 1438h26z"/><path d="m1030 1438h26z"/><path d="m1107 1438h26z"/><path d="m1069 1438h25z"/><path d="m1146 1438h6 19z"/><path d="m1152 1438h-6-13-26-13-25-13-26-12-26-16-32-16z"/><path d="m32 1406v32z"/><path d="m32 1390v-32-16-24.7958 34.8482 53.9476z"/><path d="m936 734h-16-24z"/><path d="m536 734h8-40z"/><path d="m672 734v-32z"/><path d="m712 654v32 16 32z"/><path d="m712 734h-32v-32-48h32z"/><path d="m544 734v-32z"/><path d="m504 734v-32-48z"/><path d="m536 654h-32 24.7619z"/><path d="m536 734v-32z"/><path d="m504 654h32v32 16 32h-32z"/><path d="m64 1310h-32z"/><path d="m112 1310h-32z"/><path d="m160 1310h-32z"/><path d="m80 1310h32 16 32 16-112z"/><path d="m176 1310h32z"/><path d="m224 1310h32 16-16-48z"/><path d="m272 1310h32z"/><path d="m832 1310h-32z"/><path d="m880 1310h-32z"/><path d="m784 1310h-32z"/><path d="m1018 1310h-26z"/><path d="m928 1310h-32z"/><path d="m784 1310h16 32 16 32 16 32 16 32 16-64-176z"/><path d="m1056 1310h-26z"/><path d="m1018 1310h12 26 13 25 13 26 13 25 13-192z"/><path d="m1171 1310h-25z"/><path d="m1133 1310h-26z"/><path d="m1094 1310h-25z"/><path d="m752 1406v-16-32-16-32 128z"/><path d="m752 1358v32z"/><path d="m752 1406v32z"/><path d="m1171 1390v-32z"/><path d="m1171 1342v-32z"/><path d="m1184 1310h-13v32 16 32 16 32h13z"/><path d="m784 1406v32h16v-32z"/><path d="m784 1406h16 32v-16h-32-16-32v16z"/><path d="m880 1406v32h16v-32z"/><path d="m784 1358v32h16v-32z"/><path d="m800 1310h-16v32h16z"/><path d="m848 1406v-16-32h-16v32 16 32h16z"/><path d="m784 1358h16 32 16 32v-16h-32-16-32-16-32v16z"/><path d="m848 1310h-16v32h16z"/><path d="m896 1358v-16-32h-16v32 16 32h16z"/><path d="m928 1406v32h16v-32z"/><path d="m976 1406v32h16v-32z"/><path d="m1018 1406v32h12v-32z"/><path d="m928 1358v32h16v-32z"/><path d="m944 1310h-16v32h16z"/><path d="m976 1358v32h16v-32z"/><path d="m992 1310h-16v32h16z"/><path d="m1018 1358v32h12v-32z"/><path d="m1030 1310h-12v32h12z"/><path d="m1056 1406v32h13v-32z"/><path d="m1094 1406v32h13v-32z"/><path d="m1133 1406v32h13v-32z"/><path d="m1072 1390h-3-13-26-12-26-16-32-16-32-16-32v16h32 16 32 16 32 16 26 12 26 13 3z"/><path d="m1094 1406h13 26 13 25v-16h-25-13-26-13-22v16z"/><path d="m1056 1358v32h13v-32z"/><path d="m1094 1358v32h13v-32z"/><path d="m1069 1310h-13v32h13z"/><path d="m1107 1310h-13v32h13z"/><path d="m1133 1358v32h13v-32z"/><path d="m1120 1342h-13-13-25-13-26-12-26-16-32-16-32v16h32 16 32 16 26 12 26 13 25 13 13z"/><path d="m1133 1358h13 25v-16h-25-13-13v16z"/><path d="m1146 1310h-13v32h13z"/><path d="m976 1390v-32z"/><path d="m976 1342v-32z"/><path d="m1069 1406v32z"/><path d="m1069 1358v32z"/><path d="m1094 1358h-25z"/><path d="m1133 1358h-13-13z"/><path d="m1171 1358h-25z"/><path d="m1133 1342v-32z"/><path d="m1146 1342h25z"/><path d="m1107 1342h13 13z"/><path d="m1069 1342h25z"/><path d="m1094 1342v-32z"/><path d="m1107 1358v32z"/><path d="m1107 1406v32z"/><path d="m1171 1406h-25z"/><path d="m1133 1406h-26z"/><path d="m1133 1390v-32z"/><path d="m1146 1390h25z"/><path d="m1146 1358v32z"/><path d="m1107 1390h26z"/><path d="m1146 1406v32z"/><path d="m1094 1406h-22-3z"/><path d="m1069 1390h3 22z"/><path d="m1094 1390v-32z"/><path d="m1018 1358h-26z"/><path d="m1056 1358h-26z"/><path d="m1018 1342v-32z"/><path d="m1030 1342h26z"/><path d="m1056 1342v-32z"/><path d="m1030 1390h26z"/><path d="m1030 1358v32z"/><path d="m1056 1390v-32z"/><path d="m1018 1390v-32z"/><path d="m992 1358v32z"/><path d="m1030 1406v32z"/><path d="m1056 1406h-26z"/><path d="m1018 1406h-26z"/><path d="m992 1406v32z"/><path d="m848 1406v32z"/><path d="m848 1358v32z"/><path d="m880 1358h-32z"/><path d="m928 1358h-32z"/><path d="m976 1358h-32z"/><path d="m928 1342v-32z"/><path d="m944 1342h32z"/><path d="m880 1342v-32z"/><path d="m896 1342h32z"/><path d="m848 1342h32z"/><path d="m928 1390v-32z"/><path d="m976 1406h-32z"/><path d="m944 1390h32z"/><path d="m944 1358v32z"/><path d="m944 1406v32z"/><path d="m880 1390v-32z"/><path d="m896 1390h32z"/><path d="m896 1358v32z"/><path d="m928 1406h-32z"/><path d="m896 1406v32z"/><path d="m848 1390h32z"/><path d="m880 1406h-32z"/><path d="m784 1358h-32z"/><path d="m832 1358h-32z"/><path d="m784 1342v-32z"/><path d="m832 1342v-32z"/><path d="m800 1342h32z"/><path d="m800 1390h32z"/><path d="m800 1358v32z"/><path d="m832 1390v-32z"/><path d="m784 1390v-32z"/><path d="m800 1406v32z"/><path d="m832 1406h-32z"/><path d="m784 1406h-32z"/><path d="m304 1342v16 32 16 32-128z"/><path d="m304 1342v-32z"/><path d="m304 1390v-32z"/><path d="m160 1342v-32z"/><path d="m160 1390v-32z"/><path d="m304 1342h-32v16h32z"/><path d="m304 1390h-32v16h32z"/><path d="m272 1406v-16-32-16-32h-16v32 16 32 16 32h16z"/><path d="m256 1342h-32v16h32z"/><path d="m256 1390h-32v16h32z"/><path d="m224 1406v-16-32-16-32h-16v32 16 32 16 32h16z"/><path d="m208 1342h-32v16h32z"/><path d="m208 1390h-32v16h32z"/><path d="m176 1406v-16-32-16-32h-16v32 16 32 16 32h16z"/><path d="m256 1390v-32z"/><path d="m256 1342v-32z"/><path d="m272 1342h32z"/><path d="m272 1390h32z"/><path d="m272 1358v32z"/><path d="m272 1406v32z"/><path d="m208 1358h-32z"/><path d="m256 1358h-32z"/><path d="m208 1342v-32z"/><path d="m224 1342h32z"/><path d="m176 1342h32z"/><path d="m208 1390v-32z"/><path d="m256 1406h-32z"/><path d="m224 1358v32z"/><path d="m224 1390h32z"/><path d="m224 1406v32z"/><path d="m208 1406h-32z"/><path d="m176 1390h32z"/><path d="m176 1358v32z"/><path d="m176 1406v32z"/><path d="m160 1342h-32v16h32z"/><path d="m160 1390h-32v16h32z"/><path d="m128 1406v-16-32-16-32h-16v32 16 32 16 32h16z"/><path d="m112 1342h-32v16h32z"/><path d="m80 1406v-16-32-16-32h-16v32 16 32 16 32h16z"/><path d="m64 1342h-32v16h32z"/><path d="m112 1390h-32v16h32z"/><path d="m64 1390h-32v16h32z"/><path d="m112 1390v-32z"/><path d="m112 1342v-32z"/><path d="m160 1358h-32z"/><path d="m128 1342h32z"/><path d="m128 1390h32z"/><path d="m128 1358v32z"/><path d="m160 1406h-32z"/><path d="m128 1406v32z"/><path d="m64 1358h-32z"/><path d="m112 1358h-32z"/><path d="m80 1342h32z"/><path d="m64 1342v-32z"/><path d="m80 1390h32z"/><path d="m64 1390v-32z"/><path d="m80 1358v32z"/><path d="m112 1406h-32z"/><path d="m80 1406v32z"/><path d="m64 1406h-32z"/><path d="m672 686v16z"/><path d="m672 702h8z"/><path d="m672 686h8z"/><path d="m672 702v-16h8v16z"/><path d="m544 702v-16z"/><path d="m1184 678v24z"/><path d="m1184 622v24z"/><path d="m1184 566v24z"/><path d="m1184 310v200 24-24z"/><path d="m1184 218.4584v67.5416 24-24-55.2639z"/><path d="m32 702v-24z"/><path d="m32 646v-24z"/><path d="m32 590v-24z"/><path d="m32 510v24 8 24 24 32 24 32 24 32-96z"/><path d="m32 286v24 200-96z"/><path d="m32 534v-24-200 200z"/><path d="m32 310v-24-68.3334 12.8889 55.4445z"/><path d="m256 766h-224z"/><path d="m480 766h-224z"/><path d="m544 766h-64z"/><path d="m896 734h24-32z"/><path d="m896 734h-8-216 8 32z"/><path d="m544 734h8-48z"/><path d="m224 734h40-232z"/><path d="m40.75 534h-8.75z"/><path d="m32 542v-8h8.75z"/><path d="m224 734h-192v-32h192z"/><path d="m224 678h-192v-32h192z"/><path d="m224 566h-192v-24l8.75-8h183.25z"/><path d="m224 622h-192v-32h192z"/><path d="m224 702v-24-32-24-32-24-32-40h56v144 96h-16-40z"/><path d="m448 494h64v32 24 32 24 32h-8-224v-144z"/><path d="m704 606v32h-32-128-32v-32z"/><path d="m672 494h32v32h-192v-32z"/><path d="m896 494h40v144h-16-24-192v-32-24-32-24-32z"/><path d="m1184 566h-192v-32h183.0834 8.9166z"/><path d="m1184 734h-24-168v-32h192z"/><path d="m1184 678h-192v-32h192z"/><path d="m1184 622h-192v-32h192z"/><path d="m936 638v-144h56v40 32 24 32 24 32 24 32h-56z"/><path d="m704 550v32h-192v-32z"/><path d="m672 638v48 16 32h-8-112-8v-32-16-48z"/><path d="m936 638h-16v48h16z"/><path d="m280 638h-16v48h16z"/><path d="m1184 534h-8.9166z"/><path d="m1184 218.4584v12.2777 55.2639 15.3334 6.1388h-150.3334l91.8334-89.0138z"/><path d="m1125.5 218.4584-91.8334 89.0138v-149.4722h6.3334 50.6666 34.8334z"/><path d="m224 494v40z"/><path d="m224 622v24z"/><path d="m224 566v24z"/><path d="m224 678v24z"/><path d="m992 590v-24z"/><path d="m992 534v-40z"/><path d="m992 646v-24 16z"/><path d="m992 702v-24z"/><path d="m992 622h192z"/><path d="m992 566h192z"/><path d="m1175.0834 534h-183.0834z"/><path d="m1184 590h-192z"/><path d="m1184 646h-192z"/><path d="m1184 702h-192z"/><path d="m992 678h192z"/><path d="m448 494h-168-56 56 152z"/><path d="m672 494h-160-64 64z"/><path d="m896 494h-192-32 32z"/><path d="m896 638h24 16-8z"/><path d="m280 638h224-72z"/><path d="m504 638h8 32z"/><path d="m704 582v24z"/><path d="m704 526v24z"/><path d="m512 606v-24z"/><path d="m512 550v-24z"/><path d="m704 526h-192z"/><path d="m704 582h-192z"/><path d="m936 638v96z"/><path d="m32 622h192z"/><path d="m32 566h192z"/><path d="m224 534h-183.25z"/><path d="m224 590h-192z"/><path d="m32 678h192z"/><path d="m224 646h-192z"/><path d="m224 702h-192z"/><path d="m664 734v32h-112v-32z"/><path d="m672 862v32 32z"/><path d="m672 926v224-160z"/><path d="m672 766v96 64z"/><path d="m552 766h112 8v160 64h-128v-160-64z"/><path d="m544 830v160 64-128-32z"/><path d="m672 990v160 64h-128v-160-64z"/><path d="m544 1054v160 64-128-32z"/><path d="m888 766h-216-8z"/><path d="m896 862h96z"/><path d="m896 862h-224v-96h216 8z"/><path d="m672 1214v64h-64-64v-64z"/><path d="m896 1278h64-64-64z"/><path d="m896 1278h-64-160 64z"/><path d="m384 1278h-224 96z"/><path d="m160 1438h-32z"/><path d="m160 1438h16z"/><path d="m208 1438h-32z"/><path d="m208 1438h16z"/><path d="m256 1438h-32z"/><path d="m256 1438h16z"/><path d="m304 1438h-32z"/><path d="m992 1438h26 12 26 13 25 13 26 13 25 13-192-16z"/><path d="m1184 766v224z"/><path d="m32 1390v-32z"/><path d="m32 1342v-32 7.2042z"/><path d="m32 1310v32 16 32 16 32-128-32z"/><path d="m888 766h-224 40z"/><path d="m1112 766h-120-104 40z"/><path d="m992 766h-96-8z"/><path d="m664 766v-32z"/><path d="m176 1310h-16z"/><path d="m224 1310h-16z"/><path d="m224 1310h32z"/><path d="m272 1310h-16z"/><path d="m896 1310h-16-32-16-32-16-32-80 32z"/><path d="m976 1310h-32z"/><path d="m992 926v-64-96h120 72v224h-192z"/><path d="m1184 990v224h-192v-64-96-64z"/><path d="m1184 1214v96h-13-25-13-26-13-25-13-26-12-26v-96z"/><path d="m960 1278h-64z"/><path d="m384 1278h-224z"/><path d="m608 1278h-64-160 160z"/><path d="m832 1278h-160-64 64z"/><path d="m544 1278h-160z"/><path d="m960 926h32z"/><path d="m992 766v96h-96v-96z"/><path d="m960 1278v-128z"/><path d="m960 1150v-96h32v96z"/><path d="m608 1278h64v32h-128v-32z"/><path d="m160 1278v32h-32-16-32-16-32v-32z"/><path d="m80 1342v16 32 16 32h-16v-32-16-32-16-32h16z"/><path d="m112 1406h-32v-16h32z"/><path d="m112 1358h-32v-16h32z"/><path d="m64 1358h-32v-16h32z"/><path d="m64 1406h-32v-16h32z"/><path d="m128 1342v16 32 16 32h-16v-32-16-32-16-32h16z"/><path d="m160 1358h-32v-16h32z"/><path d="m160 1406h-32v-16h32z"/><path d="m176 1342v16 32 16 32h-16v-32-16-32-16-32h16z"/><path d="m208 1406h-32v-16h32z"/><path d="m208 1358h-32v-16h32z"/><path d="m224 1342v16 32 16 32h-16v-32-16-32-16-32h16z"/><path d="m256 1358h-32v-16h32z"/><path d="m256 1406h-32v-16h32z"/><path d="m272 1342v16 32 16 32h-16v-32-16-32-16-32h16z"/><path d="m304 1406h-32v-16h32z"/><path d="m304 1358h-32v-16h32z"/><path d="m528 1438h-224v-32-16-32-16-32h224z"/><path d="m544 1310h128 80v32 16 32 16 32h-224v-128z"/><path d="m880 1342v-32h16v32z"/><path d="m896 1438h-16v-32h16z"/><path d="m832 1390v-32h16v32z"/><path d="m784 1342v-32h16v32z"/><path d="m800 1438h-16v-32h16z"/><path d="m784 1390v-32h16v32z"/><path d="m848 1438h-16v-32h16z"/><path d="m832 1342v-32h16v32z"/><path d="m880 1390v-32h16v32z"/><path d="m1018 1390v-32h12v32z"/><path d="m992 1438h-16v-32h16z"/><path d="m976 1342v-32h16v32z"/><path d="m928 1390v-32h16v32z"/><path d="m944 1438h-16v-32h16z"/><path d="m928 1342v-32h16v32z"/><path d="m976 1390v-32h16v32z"/><path d="m1030 1438h-12v-32h12z"/><path d="m1018 1342v-32h12v32z"/><path d="m976 1406h-32-16-32-16-32-16-32-16-32v-16h32 16 32 16 32 16 32 16 32z"/><path d="m992 1390h26 12 26 13 25 13 26 13 25 13v16h-13-25-13-26-13-25-13-26-12-26-16v-16z"/><path d="m1171 1390v-32h13v32z"/><path d="m1133 1342v-32h13v32z"/><path d="m1146 1438h-13v-32h13z"/><path d="m1094 1390v-32h13v32z"/><path d="m1056 1342v-32h13v32z"/><path d="m1069 1438h-13v-32h13z"/><path d="m1056 1390v-32h13v32z"/><path d="m1107 1438h-13v-32h13z"/><path d="m1094 1342v-32h13v32z"/><path d="m1133 1390v-32h13v32z"/><path d="m1184 1438h-13v-32h13z"/><path d="m1171 1342v-32h13v32z"/><path d="m976 1358h-32-16-32-16-32-16-32-16-32v-16h32 16 32 16 32 16 32 16 32z"/><path d="m992 1342h26 12 26 13 25 13 26 13 25 13v16h-13-25-13-26-13-25-13-26-12-26-16v-16z"/><path d="m752 1310v32z"/><path d="m1171 1438v-32z"/><path d="m976 1438v-32z"/><path d="m1069 1310v32z"/><path d="m1107 1310v32z"/><path d="m1146 1310v32z"/><path d="m1133 1438v-32z"/><path d="m1094 1438v-32z"/><path d="m1030 1310v32z"/><path d="m992 1342h26z"/><path d="m992 1310v32z"/><path d="m992 1390h26z"/><path d="m1056 1438v-32z"/><path d="m1018 1438v-32z"/><path d="m848 1310v32z"/><path d="m944 1310v32z"/><path d="m896 1310v32z"/><path d="m928 1438v-32z"/><path d="m880 1438v-32z"/><path d="m800 1310v32z"/><path d="m752 1342h32z"/><path d="m752 1390h32z"/><path d="m832 1438v-32z"/><path d="m784 1438v-32z"/><path d="m304 1438v-32z"/><path d="m160 1438v-32z"/><path d="m256 1438v-32z"/><path d="m304 1358h-32z"/><path d="m272 1310v32z"/><path d="m304 1406h-32z"/><path d="m224 1310v32z"/><path d="m176 1310v32z"/><path d="m208 1438v-32z"/><path d="m112 1438v-32z"/><path d="m128 1310v32z"/><path d="m80 1310v32z"/><path d="m32 1342h32z"/><path d="m32 1390h32z"/><path d="m64 1438v-32z"/><path d="m160 1278h-128z"/><path d="m160 1278v32z"/><path d="m936 686v48-96z"/><path d="m936 686v48z"/><path d="m920 686v48h16v-48z"/><path d="m280 686v48-96z"/><path d="m280 686v48z"/><path d="m264 686v48h16v-48z"/><path d="m888 734h32-72z"/><path d="m888 734h-40-184 8z"/><path d="m920 638v96-48z"/><path d="m920 734v-48z"/><path d="m936 638h-8-8z"/><path d="m936 734h-16v-96h16z"/><path d="m936 638h-16v48h16z"/><path d="m264 638v48z"/><path d="m264 734v-48z"/><path d="m264 638v96-48z"/><path d="m280 734h-16v-96h16z"/><path d="m280 638h-16v48h16z"/><path d="m552 766v-32z"/><path d="m160 1086v-11.5723-203.5722-8.8555h-128v192 32z"/><path d="m1152 158h-26.5-34.8334-162.6666z"/><path d="m1152 158h27.3334 4.6666v3.7544l-58.5 56.704v-60.4584z"/><path d="m160 1074.4277v11.5723 192-191.2818z"/><path d="m992 1054v-64-64 64z"/><path d="m960 1150v128z"/><path d="m960 1150h32z"/><path d="m992 1054h-32z"/><path d="m936 686v48-96z"/><path d="m920 686v48h16v-48z"/><path d="m280 686v-48z"/><path d="m280 686v48-96z"/><path d="m264 686v48h16v-48z"/><path d="m160 1086.7182v191.2818h-128v-192h128z"/><path d="m32 1086v-32-120.1257-69.6963-2.178h128v21.146 202.854z"/><path d="m664 766h-40z"/><path d="m256 766h-224 128z"/><path d="m480 766h-224 128z"/><path d="m704 766h-40-40-32-40-72 128z"/><path d="m928 766h-40-184 128z"/><path d="m1152 766h-40-184 64z"/><path d="m552 766h-8-64z"/><path d="m1152 766h32-72z"/><path d="m592 766h-40z"/><path d="m848 734h72-192z"/><path d="m592 734h-40z"/><path d="m848 734h-120-104 40z"/><path d="m624 734h-32v32h32z"/><path d="m624 766h40v-32h-40z"/><path d="m592 766v-32h-40v32z"/><path d="m992 1118v32z"/><path d="m992 1054v32z"/><path d="m960 1150v-32z"/><path d="m960 1086v-32z"/><path d="m960 1086v32h32v-32z"/><path d="m960 1118v32h32v-32z"/><path d="m992 1086v-32h-32v32z"/><path d="m32 1054v32 192-192z"/><path d="m280 734h152 32 16 24z"/><path d="m280 734v-24-24z"/><path d="m920 638v96-48z"/><path d="m920 734v-48z"/><path d="m920 638v24 24z"/><path d="m936 734v-48z"/><path d="m936 734h-16v-96h16z"/><path d="m936 638h-16v48h16z"/><path d="m264 638h16z"/><path d="m264 734v-48-48z"/><path d="m280 734h-16v-96h16z"/><path d="m280 638h-16v48h16z"/><path d="m43.5 158h-4.7414-6.7586 224z"/><path d="m256 158h224z"/><path d="m480 158h224z"/><path d="m704 158h224z"/><path d="m928 158h224z"/><path d="m1179.3334 158h-27.3334z"/><path d="m1184 161.7544v-3.7544 32 96-67.5416z"/><path d="m1184 161.7544v56.704h-58.5z"/><path d="m38.7586 158h4.7414 82.7586v90.2222z"/><path d="m1184 158v3.7544z"/><path d="m920 686v48h16v-48z"/><path d="m264 686v48h16v-48z"/><path d="m920 686v-24 72z"/><path d="m936 686v-24-24z"/><path d="m264 686v-48 24z"/><path d="m160 870.8555v203.5722 12.2905-.7182-202.854z"/><path d="m32 158h6.7586z"/><path d="m32 1438h32 16 32 16z"/><path d="m528 1438h-48-176z"/><path d="m752 1438h-48-176z"/><path d="m976 1438h-48-176 32 16 32 16 32 16 32 16z"/><path d="m1184 1214v96 128-32-16-32-16-32z"/><path d="m1184 990v224z"/><path d="m32 1086v192 32-96z"/><path d="m32 862v192z"/><path d="m32 933.8743v120.1257z"/><path d="m32 862v-96 64z"/><path d="m1184 766h-32z"/><path d="m384 766h-128-96z"/><path d="m608 766h-128-96 192z"/><path d="m832 766h-128-96 32z"/><path d="m160 1310h-128z"/><path d="m480 1310h64-16-224z"/><path d="m672 1310h-128z"/><path d="m928 1310h64-16-32-16-32z"/><path d="m992 1310v-96-64 64z"/><path d="m992 1054v32 32 32z"/><path d="m992 926v-160z"/><path d="m1184 766h-32-160v160 64h192z"/><path d="m992 990v64 96 64h192v-224z"/><path d="m992 1214v96h192v-96z"/><path d="m992 926h-32z"/><path d="m160 766h-128v96h128z"/><path d="m544 1310v-32z"/><path d="m256 1310h-32-16-32-16-128v128h96 32 16 32 16 32z"/><path d="m480 1310h-176-32-16v128h16 32 176z"/><path d="m704 1310h-32-128-64v128h48 176z"/><path d="m928 1310h-32-192v128h48 176z"/><path d="m976 1438h16v-128h-64v128z"/><path d="m992 1310v128h192v-128z"/><path d="m160 862h-128z"/><path d="m1184 510v128 96-32-24-32-24-32-24-32z"/><path d="m1184 286v128 96-200z"/><path d="m1184 158v32z"/><path d="m32 190v-32 59.6666 68.3334z"/><path d="m32 414v96 128-32z"/><path d="m32 190v96 128-32z"/><path d="m1160 638h-8-216v24 72h224z"/><path d="m1184 734v-96h-24v96z"/><path d="m504 638h-24-200v24 48 24h224z"/><path d="m728 638h-24-200v96h224z"/><path d="m920 734v-72-24h-192v96z"/><path d="m264 710v-48-24h-8-224v96h232z"/><path d="m1160 638h24-32z"/><path d="m1160 734h-224 56z"/><path d="m1184 734h-24z"/><path d="m728 734h-224 48 40 32z"/><path d="m936 662v24 48z"/><path d="m280 710v-48 24z"/><path d="m264 710v-24-24z"/><path d="m264 710v24-48z"/><path d="m280 662v-24 48z"/><path d="m864 766h-32-192 64z"/><path d="m864 766h128-64-96z"/><path d="m384 766h-224 96z"/><path d="m624 830 16-16v-48h-32-32v48l16 16z"/><path d="m592 830-16-16z"/></g><g id="d"><path d="m1184 1438h-32z"/><path d="m1184 766v224z"/><path d="m1184 414v128 96-128z"/><path d="m1184 190v128 96-128z"/><path d="m1184 542v-128-96 192z"/><path d="m1184 318v-128-32 128z"/><path d="m32 990v-125.822 69.6963 120.1257 32z"/><path d="m32 1214v96 128z"/><path d="m32 990v96 128z"/><path d="m256 638h-96-128z"/><path d="m480 638h-96-128 8 16z"/><path d="m704 638h-96-128 24z"/><path d="m928 638h-96-128 24 192z"/><path d="m1152 638h-96-128 8z"/><path d="m160 766v-32z"/><path d="m576 734h-96-96z"/><path d="m992 734h-64-64z"/><path d="m384 734h-224v-96h96 128z"/><path d="m608 734h-32-192v-96h96 128z"/><path d="m832 734h-192-32v-96h96 128z"/><path d="m1056 734h-64-128-32v-96h96 128z"/><path d="m1152 638h32v96h-128v-96z"/><path d="m992 734v32z"/><path d="m992 734h64 128v32h-192z"/><path d="m576 734h32 32v32h-64z"/><path d="m576 734v32z"/><path d="m640 766v-32z"/><path d="m32 638h128v96 32h-128z"/><path d="m384 1310h-128-96z"/><path d="m896 1310h-192-32z"/><path d="m992 1086v128 96-160z"/><path d="m1184 766v224h-192v-64-160z"/><path d="m1184 990v224h-192v-128-96z"/><path d="m1184 1214v96h-32-160v-96z"/><path d="m624 830h-32z"/><path d="m576 814v-48z"/><path d="m640 766v48z"/><path d="m640 766v48l-16 16h-32l-16-16v-48z"/><path d="m640 814-16 16z"/><path d="m160 766v96z"/><path d="m160 766v96h-128v-96z"/><path d="m256 1438h-224v-128h128 96z"/><path d="m480 1438h-224v-128h128 96z"/><path d="m704 1438h-224v-128h64 128 32z"/><path d="m928 1438h-224v-128h192 32z"/><path d="m1152 1438h-224v-128h64 160z"/><path d="m1184 1310v128h-32v-128z"/><path d="m32 862v-96z"/><path d="m160 862v8.8555 12.2905z"/><path d="m32 862h128z"/><path d="m960 1054v-128h32v160 64h-32z"/><path d="m992 1150v160h-32v-32-128z"/><path d="m896 1310h-224v-32h224z"/><path d="m960 1278v32h-64v-32z"/><path d="m384 1310h-224v-32h224z"/><path d="m544 1278v32h-160v-32z"/><path d="m544 1310h-64-96z"/><path d="m960 1310h32-64-32z"/><path d="m992 926v64 96z"/><path d="m896 1278h-224 160z"/><path d="m384 1278h-224z"/><path d="m960 1054v96-32-32z"/><path d="m960 926v128z"/><path d="m672 1278v32z"/><path d="m1184 734v32-32-96-96z"/><path d="m1184 158v128z"/><path d="m32 766v-32-96z"/><path d="m32 734v-96z"/><path d="m160 734h-128v32h128z"/><path d="m640 734h-64v32h64z"/><path d="m1184 734h-32-160v32h160 32z"/><path d="m256 766h-96-128z"/><path d="m480 766h-96-128z"/><path d="m704 766h-64-64-96z"/><path d="m928 766h-64-160z"/><path d="m1152 766h-160-64z"/><path d="m1184 734h-32z"/><path d="m928 766h64-128z"/><path d="m480 766h96-192z"/><path d="m384 734h-128-96z"/><path d="m864 734h-160-64 192z"/></g><g id="e"><path d="m256 1438h-224z"/><path d="m480 1438h-224z"/><path d="m704 1438h-224z"/><path d="m928 1438h-224z"/><path d="m1152 1438h-224z"/><path d="m1184 158h-4.6666-27.3334z"/><path d="m1184 1214v224-128z"/><path d="m1184 990v224z"/><path d="m1184 510v96 128-192z"/><path d="m1184 286v96 128-192z"/><path d="m32 862v2.178 125.822z"/><path d="m32 158v32z"/><path d="m1184 766h-32z"/><path d="m256 734h-224 128z"/><path d="m480 734h-224 128z"/><path d="m704 734h-224 96 64z"/><path d="m928 734h-224 160z"/><path d="m1152 734h-224 64z"/><path d="m256 158h-224v32 192h224z"/><path d="m32 382v32 192h224v-224z"/><path d="m32 606v32 96h224v-128z"/><path d="m480 158h-224v224h224z"/><path d="m256 382v224h224v-224z"/><path d="m256 606v128h224v-128z"/><path d="m704 158h-224v224h224z"/><path d="m480 382v224h224v-224z"/><path d="m480 606v128h224v-128z"/><path d="m928 158h-224v224h224z"/><path d="m704 382v224h224v-224z"/><path d="m704 606v128h224v-128z"/><path d="m1152 158h-224v224h224z"/><path d="m928 382v224h224v-224z"/><path d="m928 606v128h224v-128z"/><path d="m1184 382v-96-128h-32v224z"/><path d="m1184 606v-96-128h-32v224z"/><path d="m1184 734v-128h-32v128z"/><path d="m256 766h-224v96 128h224z"/><path d="m32 990v224h224v-224z"/><path d="m32 1214v224h224v-224z"/><path d="m480 766h-224v224h224z"/><path d="m256 990v224h224v-224z"/><path d="m256 1214v224h224v-224z"/><path d="m704 766h-224v224h224z"/><path d="m480 990v224h224v-224z"/><path d="m480 1214v224h224v-224z"/><path d="m928 766h-224v224h224z"/><path d="m704 990v224h224v-224z"/><path d="m704 1214v224h224v-224z"/><path d="m1152 766h-224v224h224z"/><path d="m928 990v224h224v-224z"/><path d="m928 1214v224h224v-224z"/><path d="m1184 990v-224h-32v224z"/><path d="m1184 1214v-224h-32v224z"/><path d="m1184 1438v-224h-32v224z"/></g></defs><g stroke="#000"><use fill="none" stroke-miterlimit="0" stroke-width="10" xlink:href="#a"/><use fill="#c2c2c2" xlink:href="#a"/><use fill="none" stroke-miterlimit="0" stroke-width="10" xlink:href="#b"/><use fill="#d1d1d1" xlink:href="#b"/><use fill="none" stroke-miterlimit="0" stroke-width="10" xlink:href="#c"/><use fill="#e0e0e0" xlink:href="#c"/><use fill="none" stroke-miterlimit="0" stroke-width="10" xlink:href="#d"/><use fill="#f0f0f0" xlink:href="#d"/><use fill="none" stroke-miterlimit="0" stroke-width="10" xlink:href="#e"/><use fill="#fff" xlink:href="#e"/></g></svg>