<svg viewBox="-900 -905 1200 2305" xmlns="http://www.w3.org/2000/svg" xmlns:xlink="http://www.w3.org/1999/xlink"><defs><g id="a"><path d="m-251-100h-205-19 55.597z"/><path d="m0-100h-8-32z"/><path d="m-62 1300h26.1379 35.8621-22-13.8621-26.1379-91z"/><path d="m200 124v-24 23.4375 47.5625z"/><path d="m200 795v76z"/><path d="m200 1095-4.8781 5z"/><path d="m-800 869v192.7931 5.2454 25.9615-19z"/><path d="m-800 171v35 189-100z"/><path d="m-800 1285v-48.6l205-98.4 25-12-61.1539 159z"/><path d="m-407.1539 1285h-168.8461-55.1539l61.1539-159 10-26h130.4 22.4461z"/><path d="m-372 1100h62v95 90h-42-55.1539v-185z"/><path d="m-800 1061.7931v-192.7931-31.2069l54.0611 20.5059 93.9203 203.4941z"/><path d="m-800 1067.0385v-5.2454h147.9814l19.0186 41.2069 12 26z"/><path d="m-652.0186 1061.7931-7.9814-17.2931v-139.5h6.4l51.7899 107.8958-22.1899 64.1042-7.9615 23-1.0385 3z"/><path d="m-800 1093v-25.9615l179 61.9615 26 9-205 98.4z"/><path d="m-717.7272 869 57.2752 21.7251.452.1714v14.1035 139.5l-85.9389-186.201z"/><path d="m-580.6448 1056.9899-17.3552 8.0101-2 .923-24 11.077 22.1899-64.1042z"/><path d="m-429.6 1100h-130.4l-12-25-8.6448-18.0101-21.1653-44.0941-51.7899-107.8958h217.6 6.4z"/><path d="m-372 905v30 165h-35.1539-22.4461v-195z"/><path d="m-580.6448 1056.9899 8.6448 18.0101-26-10z"/><path d="m-576 1300h-25-199v-15h168.8461 55.1539z"/><path d="m-352 1300h-25-199v-15h168.8461 55.1539z"/><path d="m-310 1285h30v15h-72v-15z"/><path d="m-310 1100h30v95h-30z"/><path d="m-280 1285v-90-95h138 80v17.7241 55.0907 127.1852h-91-127z"/><path d="m-296 935h74v79.2856z"/><path d="m-436 905h-217.6-6.4v-14.1035-21.8965-74h60 100 64z"/><path d="m-276 795h54v110h-150-57.6-6.4v-110z"/><path d="m-296 935 74 79.2856 80 85.7144h-138-30-62v-165z"/><path d="m-100 795h38v85.3077 138.6923h-155.5999l-4.4001-4.7144v-79.2856-30-110z"/><path d="m-62 1019v36.6154 44.3846h-80l-75.5999-81z"/><path d="m-35.8621 1300h-26.1379v-127.1852l64-30.8148 27-13z"/><path d="m-62 1117.7241 35 13.2759 29 11-64 30.8148z"/><path d="m0 1300h-35.8621l64.8621-171 11-29h122 33.1219z"/><path d="m0 1062.6897-2-.6897 19.907-9.5848 9.093 19.5848z"/><path d="m2.3929 1019 15.5141 33.4152-19.907 9.5848-27 13 26.3051-66.9583z"/><path d="m-62 1055.6154v-36.6154-138.6923l59.3051 127.734-26.3051 66.9583-9.8214 25-1.1786 3z"/><path d="m-62 1100v-44.3846l22 47.3846 13 28-35-13.2759z"/><path d="m2.3929 1019-5.0878-10.9583-59.3051-127.734v-85.3077h132 92v224z"/><path d="m162 1100h-122l-13-28-9.093-19.5848-15.5141-33.4152h159.6071z"/><path d="m200 795v76 148h-38v-224z"/><path d="m200 1019v76l-4.8781 5h-33.1219v-81z"/><path d="m-800 795 140-150v124 26 74h-57.7272l-28.2117-10.701-54.0611-20.5059z"/><path d="m-660 869v21.8965l-.452-.1714-57.2752-21.7251z"/><path d="m-660 645v-35-30-35l60 64.2857v55.7143 104h-60z"/><path d="m-600 769v26h-60v-26z"/><path d="m-600 795v-26-104h52 48v130z"/><path d="m-540 525h40v94 46h-48l-52-55.7143-60-64.2857-18.6667-20z"/><path d="m-600 609.2857 52 55.7143h-52z"/><path d="m-680 430v-105h140v144 56h-138.6667l-1.3333-1.4286z"/><path d="m-540 245v50h-140v-50z"/><path d="m-540 469v-144-30-50h40v150 74z"/><path d="m-500 525h-40v-56h40z"/><path d="m200 795h-38-92v-46-104z"/><path d="m0 525h70v20 35 30 35 104h-170v-130-94z"/><path d="m70 749v46h-132-38v-46z"/><path d="m87.3333 525-17.3333 20v-20z"/><path d="m-276 395h-224v-150h44 180z"/><path d="m-232 245h92v50 30 70h-136v-150z"/><path d="m-140 325h40v70h-40z"/><path d="m0 325v144 56h-100v-130-70z"/><path d="m-8 245h8v50h-140v-50z"/><path d="m200 245v150l-64.1333 74h-135.8667v-144-30-50z"/><path d="m135.8667 469-48.5334 56h-17.3333-70v-56z"/><path d="m-800 171v-66l120-123v142 82h-120z"/><path d="m-680 206v39 50 30 105h-87.3333l-32.6667-35v-189z"/><path d="m-680 430v93.5714l-87.3333-93.5714z"/><path d="m-680 124v-142l80-82h125 19v224z"/><path d="m-456 245h-44-40-140v-39-82h224z"/><path d="m-456 124v-224h205 19v224z"/><path d="m-232 245h-44-180v-121h224z"/><path d="m-232 124v-224h192 32v224z"/><path d="m-8 245h-132-92v-121h224z"/><path d="m0-100 200 200v24h-208v-224z"/><path d="m200 124v47 74h-200-8v-121z"/><path d="m0-100 105 105 70 70 25 25z"/><path d="m70 610v-30z"/><path d="m87.3333 525 48.5334-56 64.1333-74-130 150z"/><path d="m-276 795h-160-64l175.1244-176 24.8756-25 24 24.12z"/><path d="m-372 905v195-165z"/><path d="m-222 905v195h-150v-195z"/><path d="m-100 619v130 46l-175.1244-176z"/><path d="m-140 395h40l-176 175.12v-175.12z"/><path d="m-660 580v30z"/><path d="m-310 1195v10 70 10z"/><path d="m-800 1300h199z"/><path d="m-800 1093v143.4 48.6 15z"/><path d="m-705.6703 1191.1218 104.6703 108.8782-67.2951-70-37.3754-38.8783-87.6-91.1217z"/><path d="m-793.2705 1100-6.7295-7v207h199l-104.6703-108.8782z"/><path d="m-280 1275v-70-10 90z"/><path d="m-280 1195h-30z"/><path d="m-310 1275v-70h30v70z"/><path d="m-310 1285h30z"/><path d="m-295 1205h-10v70h10z"/><path d="m-295 1275h-10z"/><path d="m-285 1205h-10v70h10z"/><path d="m-285 1275h-10z"/><path d="m-250-145h2 15 193-25-186-25z"/><path d="m-500-805h25z"/><path d="m-251-805h-149-75 102z"/><path d="m-500-369v63 24 137-160z"/><path d="m-40-555v186z"/><path d="m-40-581v-204 130 100z"/><path d="m-40-805v20z"/><path d="m-400-805h149 75v224h-224z"/><path d="m-176-581v224h-224v-48-47-129z"/><path d="m-176-357v51h-100-124v-51z"/><path d="m-176-805h111 25v20 204h-136z"/><path d="m-40-581v26 186 12h-136v-224z"/><path d="m-40-357v51h-136v-51z"/><path d="m-500-676v-109-20h25 75v224h-100z"/><path d="m-400-581v129h-100v-129z"/><path d="m-276-282h-20-204v-24h100 124z"/><path d="m-176-306h136v24h-32-204v-24z"/><path d="m-500-306v-63-36h100v48 51z"/><path d="m-72-238h32v93h-193v-14-8-9-32-30z"/><path d="m-72-238h-161-63v-44h20 204z"/><path d="m-40-282v44h-32v-44z"/><path d="m-233-208v32h-15-2-38-2-6v-32z"/><path d="m-248-167v-6-3h15v9z"/><path d="m-250-173h1 1v6h-2z"/><path d="m-248-167h15v8h-15-1-1v-8z"/><path d="m-233-145h-15v-11-3h15z"/><path d="m-250-156h2v11h-2z"/><path d="m-288-156v-3-14-1-2h38v3 6 8 3 11h-26-12z"/><path d="m-296-176h6v3 14 3h-6z"/><path d="m-290-173h1 1v14h-1-1z"/><path d="m-296-156h6 2v11h-8z"/><path d="m-296-282v44 26 4 32 20 11h-204v-137z"/><path d="m-296-208v-4z"/><path d="m-296-238h63-4-55z"/><path d="m-248-176v3z"/><path d="m-290-159v3z"/><path d="m-248-173h-1z"/><path d="m-288-173h-1z"/><path d="m-289-173h-1z"/><path d="m-249-159h1z"/><path d="m-250-159v1 2z"/><path d="m-65-805h25z"/><path d="m-500-805v20z"/><path d="m-40-805h-25v20h25z"/><path d="m-475-805h-25v20h25z"/><path d="m-40-785h-25z"/><path d="m-475-785h-25z"/><path d="m-290-166v-1-6 14z"/><path d="m-249-173h-1z"/><path d="m-289-159h1z"/><path d="m-290-159h1z"/><path d="m-249-167v-6z"/><path d="m-248-173h-1v6 1 7h1z"/><path d="m-249-167h-40z"/><path d="m-289-167v-6h-1v6z"/><path d="m-289-166h40v-1h-40-1v1z"/><path d="m-289-166v7z"/><path d="m-289-159v-7h-1v7z"/><path d="m-248-173v14z"/><path d="m-249-173h-1 2z"/><path d="m-289-173h-1 2z"/><path d="m-250-159h1z"/><path d="m-249-159v-7z"/><path d="m-249-166v-1-6h1v14h-1z"/><path d="m-290-173h1v6 1 7h-1z"/><path d="m-249-167v1h-40v-1z"/><path d="m-249-166h-40z"/><path d="m-289-173v6z"/><path d="m-233-212v-26 30z"/><path d="m-237-225v-10z"/><path d="m-292-235v10z"/><path d="m-237-225h-55z"/><path d="m-237-235v10h-55v-10z"/><path d="m-288-176h-2z"/><path d="m-248-176h-2z"/><path d="m-290-176v3z"/><path d="m-290-173v-3 17z"/><path d="m-250-156h2z"/><path d="m-288-174v1z"/><path d="m-288-174v-2z"/><path d="m-250-174v1-3z"/><path d="m-250-174v1z"/><path d="m-288-176v2h38v-2z"/><path d="m-288-173h-2v14h2z"/><path d="m-288-158v2h38v-2z"/><path d="m-248-173h-2v14h2z"/><path d="m-288-159v1-15z"/><path d="m-290-159h1 1z"/><path d="m-250-159h1 1z"/><path d="m-288-158v-1 3z"/><path d="m-400-431v26h-100v-26z"/><path d="m-500-145h25z"/><path d="m-65-145h25z"/><path d="m-276-145h-199-25 204 8z"/><path d="m-296-212v-26z"/><path d="m-233-212v-26z"/><path d="m-233-212v4z"/><path d="m-233-208h-63z"/><path d="m-292-225v13-15z"/><path d="m-237-225v-10h-55v10z"/><path d="m-237-235h-55z"/><path d="m-292-212v-13h55v13z"/><path d="m-292-212h55 4v4h-63v-4z"/><path d="m-65-125h-57.6087-72.7943-55.597z"/><path d="m-251-125h-224v-20h199 25z"/><path d="m-65-145v20h-186v-20z"/><path d="m-195.403-100h72.7943 82.6087-192-19z"/><path d="m-288-176h38z"/><path d="m-248-159v3z"/><path d="m-248-176v3 14z"/><path d="m-290-156h2z"/><path d="m-250-156h-38z"/><path d="m-250-158v-15-1-2h2v17 3h-2z"/><path d="m-250-174h-38v-2h38z"/><path d="m-250-173v-1h-38v1 15h38z"/><path d="m-250-156h-38v-2h38z"/><path d="m-290-159v-17h2v2 1 15 2h-2z"/><path d="m-250-173v15-16z"/><path d="m-288-174h38z"/><path d="m-250-158h-38z"/><path d="m-250-174h-38z"/><path d="m-250-173v15-1z"/><path d="m-288-158h38z"/><path d="m-475-125v-20z"/><path d="m-195.403-100h-55.597-168.403v-25h168.403 55.597z"/><path d="m-122.6087-125v25h-72.7943v-25z"/><path d="m-419.403-125h-55.597z"/><path d="m-65-125h-57.6087z"/><path d="m-122.6087-125h57.6087v25h-57.6087z"/><path d="m-251-125h-168.403-55.597z"/><path d="m-288-158v-15-1z"/><path d="m-288-174h38v16h-38z"/><path d="m-233-212h-4z"/><path d="m-292-212h-4z"/><path d="m-237-212v-13-2z"/><path d="m-237-227v-2.25-5.75-3z"/><path d="m-237-212v-15-11h4v26z"/><path d="m-237-227v2h-55v-2z"/><path d="m-292-235v8 15h-4v-26h4z"/><path d="m-292-238h55z"/><path d="m-292-235v5 3z"/><path d="m-292-235v-3z"/><path d="m-237-235h-55z"/><path d="m-292-235v-3h55v3z"/><path d="m-237-235v5h-55v-5z"/><path d="m-237-235v5.75-.75z"/><path d="m-237-230v.75 2.25h-55v-3z"/><path d="m-324.8756 619-175.1244 176v-130-46z"/><path d="m-275.1244 619 175.1244 176h-122-54v-176.88z"/><path d="m-276 570.12 176-175.12v130 94h-175.1244l-.8756-.88-24-24.12z"/><path d="m-276 570.12-24 23.88-200-199h224z"/><path d="m-300 594-24.8756 25h-175.1244v-94-56-74z"/><path d="m-475-100h55.597z"/><path d="m-475-125h55.597v25h-55.597z"/><path d="m-65-100h25-82.6087z"/><path d="m-62 1158h-70v72h70z"/><path d="m-462 1158h-70v72h70z"/><path d="m-132-42v47 25z"/><path d="m-62-42h-70v72h70z"/><path d="m-462-42h-70v72h70z"/><path d="m-400-629v-26h-100v203h100z"/><path d="m-400-629v177 47-26z"/><path d="m-310 1285v-10z"/><path d="m-310 1205v70z"/><path d="m-310 1275v-70z"/><path d="m-310 1205v-10z"/><path d="m-280 1205v-10z"/><path d="m-280 1205v70z"/><path d="m-280 1275v-70z"/><path d="m-280 1285v-10z"/><path d="m-310 1205h30z"/><path d="m-280 1275h-30z"/><path d="m-310 1205v70h30v-70z"/><path d="m-295 1275h-10v-70h10z"/><path d="m-305 1205h10z"/><path d="m-305 1275v-70z"/><path d="m-295 1205v70z"/><path d="m-285 1275h-10v-70h10z"/><path d="m-295 1205h10z"/><path d="m-295 1275v-70z"/><path d="m-285 1205v70z"/><path d="m-38.8214 1100 9.8214-25z"/><path d="m-500-593v162 26 36-160-26z"/><path d="m-500-593v-62h71.5 28.5v26 198h-100z"/><path d="m-475-100h-125z"/><path d="m-62-100h22-25z"/><path d="m-132-100h67-20.0732-165.9268z"/><path d="m-177-805h112-111-75z"/><path d="m-500-655v-21 95 129z"/><path d="m-500-676v-109z"/><path d="m-176-655h-1-196-27 195.5z"/><path d="m-177-805v20h112v-20z"/><path d="m-176-655h36 100v-130h-25-112v130z"/><path d="m-177-655v-130-20h-74-122v20 130z"/><path d="m-373-805h-102v20h102z"/><path d="m-475-785h-25v109 21h100 27v-130z"/><path d="m-65-785v-20z"/><path d="m-475-805v20z"/><path d="m-140-555v26z"/><path d="m-140-655v100h100v-100z"/><path d="m-475-100v-24-1z"/><path d="m-377 1300h-85-139 25z"/><path d="m-153 1300h-127-30-67 25 72z"/><path d="m0 1300 195.1219-200z"/><path d="m-795.1219 100 138.5368-142 56.5851-58-80 82-120 123z"/><path d="m-800 105 4.8781-5z"/><path d="m0 100h-49-91v195h140z"/><path d="m-540 100h-10-21.122-108.878v195h140z"/><path d="m-316 100h-146-78 192.8781z"/><path d="m195.1219 1100h-17.1219l-200 200h22z"/><path d="m178 1100h17.1219l4.8781-5v-17z"/><path d="m-132 1100h70 20.6071 2.5715-2.5715-20.6071-116.658-43.342z"/><path d="m40 1100h25z"/><path d="m-560 1100h28 70 90-30.658z"/><path d="m65 1100h113l22-22v-183h-135z"/><path d="m-310 1100h30 58v-165h-74-76v165z"/><path d="m-222 1100v-195 30z"/><path d="m-310 1285v-10-70-10z"/><path d="m-62 1172.8148v-14.8148 72z"/><path d="m-27 1131-35-13.2759v40.2759 14.8148l64-30.8148z"/><path d="m-38.8214 1100h-2.5715l1.3929 3z"/><path d="m-27 1131-13-28-1.3929-3h-20.6071v17.7241z"/><path d="m2 1142-64 30.8148v57.1852 70h26.1379l64.8621-171z"/><path d="m178 1100h-113-25l-11 29-64.8621 171h13.8621z"/><path d="m40 1100-11 29z"/><path d="m-40 1103 1.1786-3z"/><path d="m29 1129-27 13z"/><path d="m-27 1131-13-28z"/><path d="m2 1142-29-11z"/><path d="m-280 1277.7778v-82.7778 10 70 10z"/><path d="m-132 1100v58h70v-40.2759-17.7241z"/><path d="m-132 1158v-58h-90-58v95 82.7778l99.2309-47.7778 48.7691-23.4814z"/><path d="m-180.7691 1230h48.7691v-23.4814z"/><path d="m-153 1300h91v-70h-70-48.7691l-99.2309 47.7778v7.2222 15z"/><path d="m-132 1158v48.5186 23.4814z"/><path d="m-132 1230h70z"/><path d="m-132 1158h70z"/><path d="m-280 1100h-30v95h30z"/><path d="m-280 1300v-15h-30v15z"/><path d="m-462 1158v72z"/><path d="m-310 1285v-90-95h-62-90v58 72 70h85 67z"/><path d="m-462 1230h-70z"/><path d="m-532 1230v-72z"/><path d="m-532 1158h70z"/><path d="m-462 1100h-70v58h70z"/><path d="m-631.9615 1100h-2.4231l1.3846 3z"/><path d="m-595 1138-110.6705 53.1217 37.3754 38.8783h58.2951l40-104z"/><path d="m-532 1230v-72-58h-28l-10 26-40 104z"/><path d="m-621 1129-83.7778-29h-88.4927l87.6 91.1217 110.6705-53.1217z"/><path d="m-633 1103-1.3846-3h-70.3932l83.7778 29z"/><path d="m-570 1126 10-26z"/><path d="m-631.9615 1100-1.0385 3z"/><path d="m-595 1138 25-12z"/><path d="m-633 1103 12 26z"/><path d="m-621 1129 26 9z"/><path d="m-462 1300v-70h-70-78-58.2951l67.2951 70z"/><path d="m-140 100v225-30z"/><path d="m200 100h-25-175v23.4375h200z"/><path d="m-680 100v21.1957 203.8043-30z"/><path d="m-680 100h-115.1219l-4.8781 5v16.1956l120 .0001z"/><path d="m-49 5h154l-105-105h-40-22v58 47z"/><path d="m-62-100h-3-67v58h70z"/><path d="m-132-42v-58h-119-45v58 47h156 8z"/><path d="m175 75-70-70h-154v25 70h49 175z"/><path d="m200 100-25-25v25z"/><path d="m-62 5v25h13v-25z"/><path d="m-140 30h8v-25h-8z"/><path d="m-62 30h-70-8v70h91v-70z"/><path d="m-296 100h156v-70-25h-156z"/><path d="m-432.5854-100h-42.4146-125l-56.5851 58h85.4631 21.122 18 70 29.4146z"/><path d="m-296-42v-58h-136.5854v58z"/><path d="m-462 30v70h146 20v-95-47h-136.5854-29.4146z"/><path d="m-550 30h18v-72h-18z"/><path d="m-462 30h-70-18v70h10 78z"/><path d="m-571.122-42h-85.4631l-138.5368 142h115.1219 108.878z"/><path d="m-550 100v-70-72h-21.122v142z"/><path d="m-462-42v72z"/><path d="m-62 30h-70z"/><path d="m-62 5v-47 72z"/><path d="m-132-42h70z"/><path d="m-462 30h-70z"/><path d="m-532 30v-72z"/><path d="m-532-42h70z"/><path d="m-800 1093 6.7295 7z"/><path d="m-800 1093 6.7295 7h88.4927 70.3932 2.4231l7.9615-23 1.0385-3h-177.0385z"/><path d="m-624 1077-7.9615 23z"/><path d="m0 123.4375v-23.4375 88.5z"/><path d="m0 123.4375v65.0625 161.5h70 130v-179-47.5625z"/><path d="m0 123.4375v-23.4375 195 30z"/><path d="m-622.9615 1074 21.1514-61.1042-78.1899-162.8958h-120v19 205z"/><path d="m-800 121.1956v-16.1956 66z"/><path d="m-800 121.1956v49.8044 124h120v-173.8043z"/><path d="m-680 121.1957v-21.1957h108.8781 31.1219v225h-140z"/><path d="m70 610h-10z"/><path d="m70 580h-10v30h10z"/><path d="m70 610v35z"/><path d="m-650 610h-10z"/><path d="m-660 580v-35z"/><path d="m-650 580h-10v30h10z"/><path d="m-600 1065.9231-24 11.0769 24-11.077z"/><path d="m-251-100h-58.0732-165.9268 42.4146 136.5854z"/><path d="m-251-805h-122-102 65 20z"/><path d="m-40-785v31z"/><path d="m-140-655h-36z"/><path d="m-177-790 7.5-15h29.5v19l-38 19-2 1-3.6-10.8z"/><path d="m-140-785v-1-19h75v20z"/><path d="m-169.5-805-6.5 13-1-.3334v-12.6666z"/><path d="m-140-786v1 2.5l-35.6667 17.8334-2.3333-2.3334z"/><path d="m-175.6667-764.6666 35.6667-17.8334v96.5l-15-5-24-72z"/><path d="m-140-686v-96.5-2.5h75 25v31 99h-100z"/><path d="m-204.5-655h-195.5-28.5l54.5-109 3 1 166.5 55.5z"/><path d="m-155-691 15 5v31h-36-28.5v-52.5z"/><path d="m-179-763 24 72-49.5-16.5-166.5-55.5 1-2h12 168.5 9.8333z"/><path d="m-189.5-765 5.9-11.8 3.9333 11.8z"/><path d="m-177-792.3334-38-12.6666h38z"/><path d="m-222-805h7l35.7 11.9-.7 2.1z"/><path d="m-251-805h29l42 14 3 1-6.6 13.2-5.9 11.8h-168.5l-13-26-1-2-1-2v-10z"/><path d="m-358-765h-12l-3-1v-19-5l2-1z"/><path d="m-373-795 1 2-1 .5z"/><path d="m-373-805v10 2.5l-1.6667.8334-13.3333 6.6666h-87v-20z"/><path d="m-388-785 13.3333-6.6666 1.6667 1.6666v5z"/><path d="m-500-785h25 87 15v19l-1 2-54.5 109h-71.5z"/><path d="m-180-766-1.5715-4.7145 1.5715 4.7145 1 3z"/><path d="m-177-790-3-1-2.4 5.2 2.8286.9428z"/><path d="m-176-792-1 2-3.6002-1.2001 1.3002-1.8999z"/><path d="m-180-766 2-1-2.3334-4.3334-1.2381.6189z"/><path d="m-175.6667-764.6666-1-3-3.6667-3.6668 2.3334 4.3334z"/><path d="m-371-791 2.6 5.2001-2.6-5.2001-1-2z"/><path d="m-373-766 3 1 2.1429-5.2856-2.5715-.8572z"/><path d="m-372-793 1 2-2 1-2 1 .3333-2.6666z"/><path d="m-371-791-2 1 2.3334 5.3334 2.2666-1.1333z"/><path d="m-373-766 2.5714-5.1428-2.5714 5.1428-1 2z"/><path d="m-140-555v-100z"/><path d="m-40-655v100h-100v-100z"/><path d="m-400-655v26z"/><path d="m-62 1300h26.1379 13.8621 22-153z"/><path d="m200 100v26z"/><path d="m195.1219 1100-81.7477 83.7914-29.3993 30.1343-83.9749 86.0743z"/><path d="m-705.6703 1191.1218 79.0117 82.1881 25.6586 26.6901-83.876-87.2479-19.3573-20.1355-89.0372-92.6166z"/><path d="m0-100 80 80 25 25z"/><path d="m-140 100h-156-20z"/><path d="m-571.1219 100h-108.8781-115.1219l38.0488-39h185.9512z"/><path d="m-347.1219 100h-192.8781-31.1219v-39h38.0487 185.9513z"/><path d="m-123.1219 100h-16.8781-176-31.1219v-39h38.0487 185.9513z"/><path d="m100.8781 100h-100.8781-123.1219v-39h38.0487 185.9513z"/><path d="m138.9268 61h22.0732l39 39h-99.1219v-39z"/><path d="m-140 100h16.8781 123.1219v23.4375 201.5625h-100-40z"/><path d="m178 1100h17.1219l-195.1219 200h-22z"/><path d="m-680 100v21.1957 173.8043z"/><path d="m-793.2705 1100h88.4927l83.7778 29 26 9-110.6703 53.1218z"/><path d="m-634.3846 1100h2.4231l-1.0385 3z"/><path d="m-704.7778 1100h70.3932l1.3846 3 12 26z"/><path d="m-595 1138 25-12-56.6586 147.3099-79.0117-82.1881z"/><path d="m-402.658 1300h-198.342l-25.6586-26.6901 56.6586-147.3099 10-26h157.342z"/><path d="m-178.658 1300h-198.342-25.658v-200h30.658 150 43.342z"/><path d="m-62 1100v17.7241 55.0907 127.1852h-91-25.658v-200z"/><path d="m-41.3929 1100h2.5715l-1.1786 3z"/><path d="m-62 1100h20.6071l1.3929 3 13 28-35-13.2759z"/><path d="m-62 1117.7241 35 13.2759 29 11-64 30.8148z"/><path d="m2 1142 27-13-64.8621 171h-26.1379v-127.1852z"/><path d="m29 1129 11-29h25 113l-200 200h-13.8621z"/><path d="m-540 100v195 30z"/><path d="m-533.0732 61h-38.0487-185.9512l157.0731-161h66.9268z"/><path d="m-309.0732 61h-38.0487-185.9513v-161h58.0732 165.9268z"/><path d="m-85.0732 61h-38.0487-185.9513v-161h58.0732 165.9268z"/><path d="m-65-100h65l105 105 33.9268 33.9268v22.0732h-38.0487-185.9513v-161z"/><path d="m138.9268 38.9268 22.0732 22.0732h-22.0732z"/><path d="m-800 105 4.8781-5h115.1219v195h-120z"/><path d="m200 171v179 45-150z"/><path d="m-600 1016.6667-1.8101-3.7709-21.1514 61.1042-1.0385 3 24-11.0769z"/><path d="m-624 1077 1.0385-3 21.1514-61.1042 1.8101 3.7709v49.2564z"/><path d="m-622.9615 1074-1.0385 3-7.9615 23h-2.4231-70.3932-88.4927l-6.7295-7v-19z"/><path d="m-140-529v164.625 58.375 1-26z"/><path d="m200 1078v-183 200z"/><path d="m200 1078v17l-4.8781 5h-17.1219z"/><path d="m-373-787-2-2 2-1z"/><path d="m-373-766v1h3z"/><path d="m-371-791h-2v1z"/><path d="m-373-787v3.5001l2.3334-1.1667z"/><path d="m-373-783.4999v17.4999l2.5714-5.1428 4.6786-9.3572-2.65-5.2999z"/><path d="m-359.2-767.4-6.55-13.1-4.6786 9.3572z"/><path d="m-370.4286-765.1428.4286.1428h12l-1.2-2.4-8.6571-2.8856z"/><path d="m-177-768v-5l-3.3334 1.6666z"/><path d="m-180-766 .3333 1h2.6667v-2.5z"/><path d="m-177-791h-3l3 1z"/><path d="m-189.5-765 5.9-11.8 4.0286-8.0572-18.4286-6.1428h-173l2.6 5.2001 2.65 5.2999 7.75 15.5z"/><path d="m-198-791 15.6 5.2 1.7333-5.2z"/><path d="m-189.5-765h9.8333l-.3333-1-1.5715-4.7145-2.0285-6.0855z"/><path d="m-183.6-776.8 2.0285 6.0855 4.5715-2.2855v-17z"/><path d="m-180.6667-791 .0665-.2001.6002.2001z"/><path d="m-177-768 .3333.3334-.3333.1666z"/><path d="m-371-791h173 17.3333.6667 3v-6h-196v6z"/><path d="m-182.4-785.8 2.4-5.2.7-2.1-1.3002 1.8999z"/><path d="m-176.6667-767.6666 1 3-3.3333 1.6666-1-3z"/><path d="m-177-790 1-2-1 2-2.5714 5.1428z"/><path d="m-370.4286-765.1428 2.5715-5.1428-2.1429 5.2856-1 2z"/><path d="m-370.6666-784.6666-2.3334-5.3334-1.6667-1.6666-.3333 2.6666z"/><path d="m-373-766 2.5714.8572-.5714 2.1428-3-1z"/><path d="m-373-797v-.1666 6.1666 26-1-17.4999-3.5001-3-1z"/><path d="m-177-797v-5h-196v5z"/><path d="m-373-791v-6.1666-4.8334 5z"/><path d="m-177-791v-6.1666.1666 6 1 17 5 .5 2.5z"/><path d="m-177-765h-2.6667-9.8333-168.5-12-3z"/><path d="m-177-791v26h-196v-26z"/><path d="m-601.8101 1012.8958-78.1899-162.8958h80v166.6667z"/><path d="m0 188.5v135.5 26 62.5-62.5z"/><path d="m0 188.5v-88.5h100.8781 99.1219v26 198h-200z"/><path d="m70 610v-30z"/><path d="m70 610h-10v-30h10z"/><path d="m60 580h10z"/><path d="m60 610v-30z"/><path d="m-660 580h10z"/><path d="m-650 610h-10v-30h10z"/><path d="m-650 580v30z"/><path d="m-40-369v38 26 160-93-44-24-51z"/><path d="m-40-369v-186h-100v26 198h100z"/><path d="m-633 1103 1.0385-3z"/><path d="m-177-797v6h-196v-6z"/><path d="m40 1100-11 29z"/><path d="m27 1072 13 28z"/><path d="m2 1142-29-11z"/><path d="m29 1129 11-29z"/><path d="m29 1129-27 13z"/><path d="m-595 1138-26-9z"/><path d="m-177-802v5h-196v-5z"/><path d="m-177-802v4.8334 6.1666-6z"/><path d="m-621 1129-12-26z"/><path d="m-621 1129 26 9z"/><path d="m-570 1126-25 12z"/><path d="m-140-331v26h100v-26z"/><path d="m-572 1075 12 25z"/><path d="m0 1062.6896v.0001l27 9.3103z"/><path d="m-29 1075-9.8214 25z"/><path d="m-2 1062 2 .6897v-.0001z"/><path d="m-29 1075 27-13z"/><path d="m-598 1065 26 10z"/><path d="m-600 1065.9231v-.0001l2-.923z"/><path d="m-27 1131-13-28z"/><path d="m-27 1131 29 11z"/><path d="m-560 1100-10 26z"/><path d="m-500-529v160 64-1z"/><path d="m-500-655v62z"/><path d="m-500-655v62 38z"/><path d="m-500-655v-130z"/><path d="m-140-305h-136z"/><path d="m-276-305h-224v160h25 199z"/><path d="m-40-305h-100-136v160h25 186 25z"/><path d="m-65-145v20z"/><path d="m-65-125v1 24z"/><path d="m-251-145h-25-199v20h224z"/><path d="m-65-125v-20h-186v20z"/><path d="m-251-125h-224z"/><path d="m200 871v24 183 17-76z"/><path d="m-800 850v-55 42.7931 31.2069z"/><path d="m-600 850v166.6667 49.2564-49.2564z"/><path d="m0 420v-70 62.5z"/><path d="m0 795v-25 25 55z"/><path d="m70 545v29 6z"/><path d="m200 395v-45h-130v195z"/><path d="m70 545v-195h-70v70 154h70z"/><path d="m0 574v36h65 5v-30-6z"/><path d="m65 895v205z"/><path d="m200 871v-76h-130-5v100h135z"/><path d="m70 645v150h130z"/><path d="m65 795h5v-150-35h-5z"/><path d="m70 645 130 150z"/><path d="m65 795h-65v55l65 45z"/><path d="m0 610v34 126 25h65v-185z"/><path d="m0 610v-36-154l-100 105v119h100z"/><path d="m-100 644v21l100 105v-126z"/><path d="m-500 525-100-105v99 90.2857 34.7143h100z"/><path d="m-600 644v125 1l100-105v-21z"/><path d="m0 420-100 105z"/><path d="m-500 525-100-105z"/><path d="m-680 523.5714-120-128.5714 32.6667 35 87.3333 93.5714 20 21.4286z"/><path d="m-600 420v-70l-80-55v224h80z"/><path d="m-680 519v4.5714l20 21.4286 60 64.2857v-90.2857z"/><path d="m-680 519v-224h-120v100l120 128.5714z"/><path d="m-600 644v-34.7143l-60-64.2857v35 30 35 124h60z"/><path d="m-660 769v26h60v-25-1z"/><path d="m-660 795v-26-124l-140 150z"/><path d="m-680 850h80v-55h-60-140v55z"/><path d="m-660 610v-30z"/><path d="m-600 850h-80l78.1899 162.8958 1.8101 3.7709z"/><path d="m-660 645v-35z"/><path d="m-800 795 140-150z"/><path d="m-40-145h-236z"/><path d="m-500-530v1 223-223z"/><path d="m-500-530v-25 26z"/><path d="m-40-305v160z"/><path d="m-276-305h-224z"/><path d="m-276-305h-224z"/><path d="m-140-364.375v33.375 25z"/><path d="m-252-306h112z"/><path d="m-252-306h-24z"/><path d="m-276-306h-224v1h224z"/><path d="m-140-305v-1h-112-24v1z"/><path d="m-500-305h224v160h-224z"/><path d="m-276-305h136 100v160h-236z"/><path d="m-475-124v24z"/><path d="m-251-124h-224z"/><path d="m-65-125h-186z"/><path d="m-251-125h-224v1h224z"/><path d="m-65-124v-1h-186v1z"/><path d="m200 324v26h-130-70v-26z"/><path d="m-140-331v-33.375-164.625-26h100v25 199z"/><path d="m-800 869v205 19z"/><path d="m-800 869v-19h120l78.1899 162.8958-21.1514 61.1042h-177.0385z"/><path d="m-40-306h-100v-25h100z"/><path d="m-40-306h-100z"/><path d="m-276-145h-224z"/><path d="m-500-305v160z"/><path d="m-500-529v223 1-201z"/><path d="m-500-555v25z"/><path d="m-40-530v1 223-25z"/><path d="m-40-754v1 223-25-100z"/><path d="m-40-754v-31 32z"/><path d="m-40-305h-100-136z"/><path d="m-40-305h-100-53-83z"/><path d="m-276-305h-224v-1h224z"/><path d="m-252-306h112 100v1h-236v-1z"/><path d="m-140-306h-112z"/><path d="m-276-306h-224z"/><path d="m-276-305h-224v160h224z"/><path d="m-40-305h-236v160h236z"/><path d="m-65-100v-24z"/><path d="m-251-124h-224v-1h224z"/><path d="m-65-125v1h-186v-1z"/><path d="m-251-125h-224z"/><path d="m-65-124h-186z"/><path d="m200 126v-26 71z"/><path d="m200 126v45 179-26z"/><path d="m200 795v76z"/><path d="m200 1095-4.8781 5z"/><path d="m-800 869v224z"/><path d="m-800 850v19z"/><path d="m-800 171v-66 190z"/><path d="m-800 171v124 100-150-21.0625z"/><path d="m-600 795v-25 25 55z"/><path d="m-600 350v70z"/><path d="m70 795h130v76 24h-135l-65-45v-55z"/><path d="m70 795v-150l130 150z"/><path d="m0 525v-105-7.5-62.5h70v195 29h-70z"/><path d="m70 574v6 30 35 150h-70v-25-105-91z"/><path d="m70 350h130v45l-130 150z"/><path d="m70 610v-30z"/><path d="m65 895h135v183l-22 22h-113z"/><path d="m65 895-65-45z"/><path d="m-175 665h75v-21-119h-75z"/><path d="m-175 665v-140z"/><path d="m-175 665h75z"/><path d="m-100 525h-75z"/><path d="m-100 525 100-105v105z"/><path d="m-100 525h100v49 91h-100z"/><path d="m0 665v105l-100-105z"/><path d="m0 770-100-105z"/><path d="m-420 525h-80v119 21h80z"/><path d="m-500 665h80z"/><path d="m-420 525h-80z"/><path d="m-600 519v-99l100 105h-100z"/><path d="m-500 525v140h-100v-55.7143-84.2857z"/><path d="m-500 665v-140h80v140z"/><path d="m-500 665-100 105v-1-104z"/><path d="m-500 665-100 105z"/><path d="m-800 395v-100h120l80 55v70 99h-84.2667z"/><path d="m-600 519v6 84.2857l-60-64.2857-24.2667-26z"/><path d="m-680 295 80 55z"/><path d="m-680 850h-120v-55h140 60v55z"/><path d="m-800 795 140-150v124 26z"/><path d="m-660 645v-35-30-35l60 64.2857v55.7143 104h-60z"/><path d="m-600 769v1 25h-60v-26z"/><path d="m-660 580v30z"/><path d="m-631.9615 1100 7.9615-23z"/><path d="m-624 1077 24-11.0769z"/><path d="m-631.9615 1100-1.0385 3z"/><path d="m-500-145h25z"/><path d="m-65-145h-186z"/><path d="m-40-145v-137z"/><path d="m-40-305v23z"/><path d="m-276-305h-141-40-15-28z"/><path d="m-470-283h-2v-12h2z"/><path d="m-470-283v-12-2h12v2 12 1h-12z"/><path d="m-457-305v8h-1-12-2v-8z"/><path d="m-417-282h-40v-1h40z"/><path d="m-457-297v-8h40v8 2h-40z"/><path d="m-457-295h40 2 12 1v12h-1-12-2-40-1v-12z"/><path d="m-403-282h-12v-1h12z"/><path d="m-403-295h-12v-2h12z"/><path d="m-402-283v-12-2h40v2 12 1h-40z"/><path d="m-360-295h12 1v12h-1-12-2v-12z"/><path d="m-348-282h-12v-1h12z"/><path d="m-348-295h-12v-2h12z"/><path d="m-347-283v-12-2h40v2 12 1h-40z"/><path d="m-305-295h12 1v12h-1-12-2v-12z"/><path d="m-293-282h-12v-1h12z"/><path d="m-293-295h-12v-2h12z"/><path d="m-292-283v-12-2h40v2 12 1h-24-16z"/><path d="m-250-295h12 1v12h-1-12-2v-12z"/><path d="m-238-282h-12v-1h12z"/><path d="m-238-295h-12v-2h12z"/><path d="m-237-283v-12-2h40v2 12 1h-40z"/><path d="m-195-295h12 1v12h-1-12-2v-12z"/><path d="m-183-282h-12v-1h12z"/><path d="m-183-295h-12v-2h2 10z"/><path d="m-193-297h-2-2-40-1-12-2-40-1-12-2-40-1-12-2-40-1-12-2v-8h141 83z"/><path d="m-140-305v8h-42-1-10v-8z"/><path d="m-182-283v-12-2h42v15h-42z"/><path d="m-140-282v-15-8h100v23z"/><path d="m-500-282v-23h28v8 2 12 1z"/><path d="m-276-145h-199-25v-137h28 2 12 1 40 2 12 1 40 2 12 1 40 2 12 1 16z"/><path d="m-252-282h2 12 1 40 2 12 1 42 100v137h-25-186-25v-137z"/><path d="m-40-529v23 201-1z"/><path d="m-40-753v23 201-1z"/><path d="m-40-753v-32 55z"/><path d="m-251-145h-224 199z"/><path d="m-65-145h25z"/><path d="m-65-125v25-24z"/><path d="m-251-125h-224v-20h224z"/><path d="m-65-145v20h-186v-20z"/><path d="m-65-125h-186z"/><path d="m83.9749 1213.9257.0003-.0003-83.9752 86.0746z"/><path d="m195.1219 1100-81.7477 83.7914z"/><path d="m-793.2705 1100h-.0001l-6.7294-7z"/><path d="m-601 1300-83.8762-87.248.0002.0001z"/><path d="m-704.2333 1192.6166-89.0372-92.6166z"/><path d="m105 5 95 95-39-39-22.0732-22.0732z"/><path d="m80-20v10l15 15h10z"/><path d="m-711 14h10l15-15v-10z"/><path d="m113.3742 1183.7914-14.3742-4.7914-20 20 4.9749 14.9257z"/><path d="m83.9749 1213.9257-4.9749-14.9257 4.9752 14.9254z"/><path d="m-684.876 1212.7521 4.876-9.7521-15-15-9.2333 4.6166z"/><path d="m-704.2333 1192.6166 9.2333-4.6166z"/><path d="m-500-305v23z"/><path d="m-500-555v25 1z"/><path d="m-500-506v201 23-55z"/><path d="m-182-282h-1z"/><path d="m-250-282h-2z"/><path d="m-292-282h-1z"/><path d="m-360-282h-2z"/><path d="m-402-282h-1z"/><path d="m-470-282h-2z"/><path d="m-457-282h-1z"/><path d="m-415-282h-2z"/><path d="m-347-282h-1z"/><path d="m-305-282h-2z"/><path d="m-237-282h-1z"/><path d="m-195-282h-2z"/><path d="m-472-282v-1z"/><path d="m-472-295v-2z"/><path d="m-293-295h-12-2v12h2 12 1v-12z"/><path d="m-305-297v2h12v-2z"/><path d="m-348-295h-12-2v12h2 12 1v-12z"/><path d="m-360-297v2h12v-2z"/><path d="m-403-295h-12-2v12h2 12 1v-12z"/><path d="m-415-297v2h12v-2z"/><path d="m-458-295h-12-2v12h2 12 1v-12z"/><path d="m-470-297v2h12v-2z"/><path d="m-470-282h12v-1h-12z"/><path d="m-415-282h12v-1h-12z"/><path d="m-360-282h12v-1h-12z"/><path d="m-305-282h12v-1h-12z"/><path d="m-183-295h-12-2v12h2 12 1v-12z"/><path d="m-195-297v2h12v-2z"/><path d="m-238-295h-12-2v12h2 12 1v-12z"/><path d="m-250-297v2h12v-2z"/><path d="m-250-282h12v-1h-12z"/><path d="m-195-282h12v-1h-12z"/><path d="m-182-295v12 1-13-2z"/><path d="m-195-297h12 1-1-3-6-3-2z"/><path d="m-237-295v12 1-13-2z"/><path d="m-250-297h12 1-1-3-6-3-2z"/><path d="m-292-295v12 1-13-2z"/><path d="m-305-297h12 1-1-3-6-3-2z"/><path d="m-347-295v12 1-13-2z"/><path d="m-360-297h12 1-1-3-6-3-2z"/><path d="m-402-295v12 1-13-2z"/><path d="m-415-297h12 1-1-3-6-3-2z"/><path d="m-457-295v12 1-13-2z"/><path d="m-470-297h12 1-1-3-6-3-2z"/><path d="m-252-295v-2z"/><path d="m-252-282v-1z"/><path d="m-182-297v2z"/><path d="m-182-283v1z"/><path d="m-237-297v2z"/><path d="m-237-283v1z"/><path d="m-197-282v-1z"/><path d="m-197-295v-2z"/><path d="m-195-295h-2z"/><path d="m-182-295h-1z"/><path d="m-195-297v2z"/><path d="m-183-295v-2z"/><path d="m-183-297h1z"/><path d="m-197-297h2z"/><path d="m-195-283v1z"/><path d="m-183-283h1z"/><path d="m-183-282v-1z"/><path d="m-197-283h2z"/><path d="m-237-295h-1z"/><path d="m-250-295h-2z"/><path d="m-250-297v2z"/><path d="m-238-295v-2z"/><path d="m-238-297h1z"/><path d="m-252-297h2z"/><path d="m-250-283v1z"/><path d="m-238-283h1z"/><path d="m-238-282v-1z"/><path d="m-252-283h2z"/><path d="m-362-282v-1z"/><path d="m-362-295v-2z"/><path d="m-307-282v-1z"/><path d="m-307-295v-2z"/><path d="m-292-297v2z"/><path d="m-292-283v1z"/><path d="m-305-295h-2z"/><path d="m-292-295h-1z"/><path d="m-305-297v2z"/><path d="m-293-295v-2z"/><path d="m-293-297h1z"/><path d="m-307-297h2z"/><path d="m-305-283v1z"/><path d="m-293-282v-1z"/><path d="m-293-283h1z"/><path d="m-307-283h2z"/><path d="m-347-297v2z"/><path d="m-347-283v1z"/><path d="m-360-295h-2z"/><path d="m-347-295h-1z"/><path d="m-360-297v2z"/><path d="m-348-295v-2z"/><path d="m-348-297h1z"/><path d="m-362-297h2z"/><path d="m-360-283v1z"/><path d="m-348-282v-1z"/><path d="m-348-283h1z"/><path d="m-362-283h2z"/><path d="m-417-282v-1z"/><path d="m-417-295v-2z"/><path d="m-402-297v2z"/><path d="m-402-283v1z"/><path d="m-415-295h-2z"/><path d="m-402-295h-1z"/><path d="m-415-297v2z"/><path d="m-403-295v-2z"/><path d="m-403-297h1z"/><path d="m-417-297h2z"/><path d="m-415-283v1z"/><path d="m-403-282v-1z"/><path d="m-403-283h1z"/><path d="m-417-283h2z"/><path d="m-457-283v1z"/><path d="m-457-297v2z"/><path d="m-470-295h-2z"/><path d="m-457-295h-1z"/><path d="m-470-297v2z"/><path d="m-458-295v-2z"/><path d="m-458-297h1z"/><path d="m-472-297h2z"/><path d="m-470-283v1z"/><path d="m-458-282v-1z"/><path d="m-458-283h1z"/><path d="m-472-283h2z"/><path d="m-470-297h3v2h-3z"/><path d="m-461-297h3v2h-3z"/><path d="m-457-282h-15v-13h2 3 6 3 1z"/><path d="m-402-282h-15v-13h2 3 6 3 1z"/><path d="m-406-297h3v2h-3z"/><path d="m-415-297h3v2h-3z"/><path d="m-360-297h3v2h-3z"/><path d="m-360-295h3 6 3 1v13h-15v-13z"/><path d="m-351-297h3v2h-3z"/><path d="m-305-297h3v2h-3z"/><path d="m-296-297h3v2h-3z"/><path d="m-305-295h3 6 3 1v13h-15v-13z"/><path d="m-250-297h3v2h-3z"/><path d="m-241-297h3v2h-3z"/><path d="m-250-295h3 6 3 1v13h-15v-13z"/><path d="m-195-297h3v2h-3z"/><path d="m-186-297h3v2h-3z"/><path d="m-195-295h3 6 3 1v13h-15v-13z"/><path d="m-182-282h-1-12-2z"/><path d="m-292-282h-1-12-2z"/><path d="m-402-282h-1-12-2z"/><path d="m-457-282h-1-12-2z"/><path d="m-347-282h-1-12-2z"/><path d="m-237-282h-1-12-2z"/><path d="m-472-295v13-1-12-2z"/><path d="m-252-295v13-1-12-2z"/><path d="m-197-295v13-1-12-2z"/><path d="m-362-295v13-1-12-2z"/><path d="m-307-295v13-1-12-2z"/><path d="m-417-295v13-1-12-2z"/><path d="m-175 665v-140h75v140z"/><path d="m-420 525v140z"/><path d="m-475-100v-25 1z"/><path d="m-65-125v-20z"/><path d="m-475-125h65.2174z"/><path d="m-252-297v2z"/><path d="m-182-295v-2z"/><path d="m-197-297v2z"/><path d="m-183-297h-3v2h3z"/><path d="m-192-297h-3v2h3z"/><path d="m-192-295v-2z"/><path d="m-186-295h-6z"/><path d="m-182-295h-1z"/><path d="m-186-297v2z"/><path d="m-183-295v-2z"/><path d="m-183-297h1z"/><path d="m-192-297h6z"/><path d="m-195-295h-2z"/><path d="m-195-297v2z"/><path d="m-197-297h2z"/><path d="m-237-295v-2z"/><path d="m-238-297h-3v2h3z"/><path d="m-247-297h-3v2h3z"/><path d="m-247-295v-2z"/><path d="m-241-295h-6z"/><path d="m-237-295h-1z"/><path d="m-241-297v2z"/><path d="m-238-295v-2z"/><path d="m-238-297h1z"/><path d="m-247-297h6z"/><path d="m-250-295h-2z"/><path d="m-250-297v2z"/><path d="m-252-297h2z"/><path d="m-362-297v2z"/><path d="m-307-297v2z"/><path d="m-292-295v-2z"/><path d="m-302-297h-3v2h3z"/><path d="m-293-297h-3v2h3z"/><path d="m-302-295v-2z"/><path d="m-292-295h-1z"/><path d="m-296-295h-6z"/><path d="m-296-297v2z"/><path d="m-293-295v-2z"/><path d="m-293-297h1z"/><path d="m-302-297h6z"/><path d="m-305-295h-2z"/><path d="m-305-297v2z"/><path d="m-307-297h2z"/><path d="m-347-295v-2z"/><path d="m-357-297h-3v2h3z"/><path d="m-348-297h-3v2h3z"/><path d="m-357-295v-2z"/><path d="m-347-295h-1z"/><path d="m-351-295h-6z"/><path d="m-351-297v2z"/><path d="m-348-295v-2z"/><path d="m-348-297h1z"/><path d="m-357-297h6z"/><path d="m-360-295h-2z"/><path d="m-360-297v2z"/><path d="m-362-297h2z"/><path d="m-470-295h-2z"/><path d="m-457-295h-1z"/><path d="m-461-295h-6z"/><path d="m-415-295h-2z"/><path d="m-406-295h-6z"/><path d="m-402-295h-1z"/><path d="m-417-297v2z"/><path d="m-402-295v-2z"/><path d="m-403-297h-3v2h3z"/><path d="m-412-297h-3v2h3z"/><path d="m-412-295v-2z"/><path d="m-406-297v2z"/><path d="m-403-295v-2z"/><path d="m-403-297h1z"/><path d="m-412-297h6z"/><path d="m-415-297v2z"/><path d="m-417-297h2z"/><path d="m-457-295v-2z"/><path d="m-472-297v2z"/><path d="m-467-297h-3v2h3z"/><path d="m-458-297h-3v2h3z"/><path d="m-467-295v-2z"/><path d="m-461-297v2z"/><path d="m-458-295v-2z"/><path d="m-458-297h1z"/><path d="m-467-297h6z"/><path d="m-470-297v2z"/><path d="m-472-297h2z"/><path d="m-197-295v-2h15v2z"/><path d="m-182-295h-1-3-6-3-2z"/><path d="m-197-297h2 3 6 3 1z"/><path d="m-252-295v-2h15v2z"/><path d="m-252-297h2 3 6 3 1z"/><path d="m-237-295h-1-3-6-3-2z"/><path d="m-307-295v-2h15v2z"/><path d="m-307-297h2 3 6 3 1z"/><path d="m-292-295h-1-3-6-3-2z"/><path d="m-362-295v-2h15v2z"/><path d="m-362-297h2 3 6 3 1z"/><path d="m-347-295h-1-3-6-3-2z"/><path d="m-457-295h-1-3-6-3-2z"/><path d="m-402-295h-1-3-6-3-2z"/><path d="m-417-295v-2h15v2z"/><path d="m-417-297h2 3 6 3 1z"/><path d="m-472-295v-2h15v2z"/><path d="m-472-297h2 3 6 3 1z"/><path d="m70 580v-6-29z"/><path d="m70 610v35z"/><path d="m70 610h-10z"/><path d="m70 580h-10v30h10z"/><path d="m-650 610h-10z"/><path d="m-650 580h-10v30h10z"/><path d="m105 5-25-25 18.7341 18.7342z"/><path d="m-701 14h-10z"/><path d="m80-10v-10z"/><path d="m105 5h-10l-15-15v-10z"/><path d="m105 5h-10z"/><path d="m95 5-15-15z"/><path d="m-686-11v10z"/><path d="m-701 14h-10l25-25v10z"/><path d="m-711 14 25-25z"/><path d="m-686-1-15 15z"/><path d="m79 1199 20-20z"/><path d="m83.9752 1213.9254-4.9752-14.9254 20-20 14.3742 4.7914z"/><path d="m99 1179 14.3742 4.7914z"/><path d="m-695 1188 15 15z"/><path d="m-704.2333 1192.6166 9.2333-4.6166 15 15-4.8762 9.752z"/><path d="m-680 1203-4.876 9.7521-.0002-.0001z"/><path d="m-160-805h20 75-75-29.5-7.5-38-7-29z"/><path d="m-140-785h-20z"/><path d="m-65-805v20z"/><path d="m-140-805h-20v20h20z"/><path d="m-390-785h-20z"/><path d="m-500-785h25z"/><path d="m-390-805h-20v20h20z"/><path d="m-410-805h-65z"/><path d="m-160-805h-91-139z"/><path d="m-65-805h-75z"/><path d="m-40-730v-55h-25v192 32h25z"/><path d="m-65-561v192 32h25v-169-55z"/><path d="m-65-337v192h25v-137-55z"/><path d="m-65-805h-75v20h75z"/><path d="m-251-785h91v-20h-230v20z"/><path d="m-410-805h-65v20h65z"/><path d="m-475-593v-192h-25v224h25z"/><path d="m-500-561v6 49 169h25v-32-192z"/><path d="m-500-337v55 137h25v-192z"/><path d="m-475-369v32 192-212z"/><path d="m-475-593v32 192-212z"/><path d="m-65-785v192z"/><path d="m-251-785h-139-20-65z"/><path d="m-500-145v-137z"/><path d="m-500-555v26 23z"/><path d="m-500-561v-224 130 100z"/><path d="m-40-506v169 55-23z"/><path d="m-40-730v169 55-23z"/><path d="m-160-785v-20z"/><path d="m-65-785h25z"/><path d="m-140-805v20z"/><path d="m-390-805v20z"/><path d="m-410-785v-20z"/><path d="m-475-785v-20z"/><path d="m-475-145v20z"/><path d="m70 610v-30-35z"/><path d="m60 580h10z"/><path d="m70 610h-10v-30h10z"/><path d="m60 610v-30z"/><path d="m-660 545-70.9333-76-69.0667-74 115.7333 124z"/><path d="m-660 545v35z"/><path d="m-650 610h-10v-30h10z"/><path d="m-660 580h10z"/><path d="m-650 580v30z"/><path d="m-65-145h-35-116-35z"/><path d="m-185.7826-125h-65.2174-158.7826 9.7826z"/><path d="m-130.2174-125h65.2174z"/><path d="m-251-145h-224v20h65.2174 158.7826z"/><path d="m-185.7826-125h55.5652 65.2174v-20h-186v20z"/><path d="m-130.2174-125h-9.7826v24 1h75v-25z"/><path d="m-40-145h-25z"/><path d="m-276-805h-199-25z"/><path d="m-500-369v12 212-112z"/><path d="m-500-593v12 212-112z"/><path d="m-40-805v100 112z"/><path d="m-475-785v192z"/><path d="m-65-369v12 212-192z"/><path d="m-65-593v12 212-192z"/><path d="m-65-593v-192-20h25v212 12h-25z"/><path d="m-40-581v212 12h-25v-12-212z"/><path d="m-40-357v212h-25v-212z"/><path d="m-65-785h-75-20-91z"/><path d="m-251-785h-224v-20h199 25z"/><path d="m-65-805v20h-186v-20z"/><path d="m-500-593v-212h25v20 192 12h-25z"/><path d="m-475-581v212 12h-25v-12-212z"/><path d="m-475-357v212h-25v-212z"/><path d="m-475-100h-58.0732-66.9268z"/><path d="m-475-100h1.5 73.5z"/><path d="m-140-100h75z"/><path d="m-25.5-100h25.5-65z"/><path d="m-500-145h25z"/><path d="m-251-145h-189-35z"/><path d="m-40-805h-25-186-25z"/><path d="m-500-705v-100 212z"/><path d="m-40-369v112 112-212z"/><path d="m-40-593v112 112-212z"/><path d="m-276-805h-224v100h60 164z"/><path d="m-216-705h116 60v-100h-236v100z"/><path d="m-40-593v-112h-60v52 172h60z"/><path d="m-100-481v52 172h60v-112-112z"/><path d="m-100-257v52 60h35 25v-112z"/><path d="m-440-653v-52h-60v112 112h60z"/><path d="m-500-481v112 112h60v-172-52z"/><path d="m-500-257v112h25 35v-60-52z"/><path d="m-216-205h-224v60h189 35z"/><path d="m-100-145v-60h-116v60z"/><path d="m-100-205h-116z"/><path d="m-216-705h-60-164 2z"/><path d="m-440-429v172 52-190z"/><path d="m-440-653v172 52-52z"/><path d="m-100-705v52z"/><path d="m-176-101h-224v1h150.5 73.5z"/><path d="m-140-100v-1h-36v1z"/><path d="m-176-125h-9.7826-214.2174v24h224z"/><path d="m-140-101v-24h-36v24z"/><path d="m-176-125h36 9.7826-55.5652z"/><path d="m-400-100v-1-24h-9.7826-65.2174v25z"/><path d="m-377 1300h-28.1196-195.8804 198.342z"/><path d="m-153 1300h-28.1196-195.8804 198.342z"/><path d="m-153 1300h153l28.5366-29.25h-78.5366-127.6731-3.4465v29.25z"/><path d="m200 171v51.7342 172.2658-45z"/><path d="m200 871v113.3846 110.6154-200z"/><path d="m-800 795v55 19z"/><path d="m-800 105v66z"/><path d="m-600-100-157.0731 161-38.0488 39-4.8781 5 102.5001-105.0626z"/><path d="m-800 869v224h140v-48.4999-152.8334-22.6667z"/><path d="m-800 1093 6.7294 7 95.9899 99.8488 25.7656-25.1216 11.5151-11.227v-70.5002z"/><path d="m-800 223.9375v21.0625h140 60v-21.0625z"/><path d="m200 871v-76l-30-34.6154v34.6154 189.3846h30z"/><path d="m0-100 80 80z"/><path d="m-473.5-100h-1.5-125l-97.4999 99.9374 97.4999 95.0626h50 76.5z"/><path d="m-249.5-100h-150.5-73.5v195h147.5 76.5z"/><path d="m-25.5-100h-39.5-75-36-73.5v195h147.5 76.5z"/><path d="m-216-205h-224z"/><path d="m-440-705v52z"/><path d="m-100-429v34 190-52z"/><path d="m-100-653v172 52-52z"/><path d="m-440-481v52 34h35v-20-66z"/><path d="m-100-653v-52h-2l-33 33v142 20 17 12h35z"/><path d="m-100-395h-35-15-32v109.608l82 80.392z"/><path d="m-214-705h112 2-116z"/><path d="m-214-705h-2-222l33 33 15 15 50 50h124 2z"/><path d="m-405.1196 1270.75h-220.5535-3.4465l28.1196 29.25h195.8804z"/><path d="m-181.1196 1270.75h-220.5535-3.4465v29.25h28.1196 195.8804z"/><path d="m-50 1270.75v-103.713-44.7604-17.2766h-62-65.6731v165.75z"/><path d="m170 1125.75-72.5 74.3125-68.9634 70.6875-28.5366 29.25 83.9752-86.0746 29.399-30.134 81.7477-83.7914 4.8781-5z"/><path d="m170 1035h-100v51.8276 77.7878 8.6348l27.5 26.8123 72.5-74.3125z"/><path d="m170 984.3846v50.6154 90.75l30-30.75v-110.6154z"/><path d="m170 760.3846-100-115.3846v53.7499 96.2501h100z"/><path d="m-629.1196 1270.75-68.1611-70.9012-95.9899-99.8488h.0001l89.0372 92.6166 19.3571 20.1354 83.8762 87.248z"/><path d="m70 610v-65 100z"/><path d="m70 645 100 115.3846 30 34.6154z"/><path d="m-38.8214 1100 9.8214-25z"/><path d="m-250 347v-102h-100v102z"/><path d="m-250 950v-102h-100v102z"/><path d="m-250 848h-40-20-40z"/><path d="m-250 245h-40-20-40z"/><path d="m-350 245v102z"/><path d="m-350 848v102z"/><path d="m-660 645v-35z"/><path d="m-660 545v35 30z"/><path d="m-38.8214 1100-1.1786 3z"/><path d="m-40 1103 .9286 2 12.0714 26z"/><path d="m155.1637 446.7342-85.1637 98.2658 130-150z"/><path d="m-310 885v20 45h-40v-102h40z"/><path d="m-290 905h40v45h-60v-45z"/><path d="m-310 848h20v37h-20z"/><path d="m-290 905v-20-37h40v57z"/><path d="m-310 285v20 42h-40v-102h40z"/><path d="m-290 305h40v42h-60v-42z"/><path d="m-310 245h20v40h-20z"/><path d="m-290 305v-20-40h40v60z"/><path d="m-290 305h-20z"/><path d="m-290 905h-20z"/><path d="m-310 347h60-100z"/><path d="m-250 305v-60 102z"/><path d="m-310 950h60-100z"/><path d="m-250 905v-57 102z"/><path d="m-405-510v-20-142l-33-33h-2v52 172h35z"/><path d="m-135-481v66 20h35v-34-52z"/><path d="m-135-672-15 15v127h15z"/><path d="m-135-510h-15v17h15z"/><path d="m-181-510h-224 15z"/><path d="m-181-530h-224v20h224z"/><path d="m-135-510v-20h-46v20z"/><path d="m-135-530h-15-31z"/><path d="m-181-395h-224 15z"/><path d="m-181-415h-224v20h224z"/><path d="m-135-395v-20h-46v20z"/><path d="m-135-415h-15-31z"/><path d="m105 5-6.2659-6.2658-28.7341 28.0157v195.9843h130v-51.7342-71z"/><path d="m97.5 1200.0625-27.5-26.8123-42.1838-41.1293-1.7514-1.7076-24.0648 11.5867-52 25.037v103.713h78.5366z"/><path d="m-390-433v18 20h50v-38z"/><path d="m-390-657-15-15v142h15z"/><path d="m-390-415v-18-77h-15v29 66z"/><path d="m-150-510v-20-127l-50 50v114h50z"/><path d="m-181-530h31v20h-31-209v-20z"/><path d="m-150-510h15-46z"/><path d="m-181-530h-209-15z"/><path d="m-150-395h15-46z"/><path d="m-181-415h31v20h-31-209v-20z"/><path d="m-181-415h-209-15z"/><path d="m70 222.7342v-195.9843l-70 68.2501v5 55 95.7499h70z"/><path d="m70 222.7342v28.0157 195.9843h85.1637l44.8363-51.7342v-172.2658z"/><path d="m70 446.7342v28.0157 70.2501l85.1637-98.2658z"/><path d="m-50 1167.037 52-25.037-29-11-23-8.7234z"/><path d="m-660 1093v70.5002l36.3319-35.4237 1.5461-1.5075-10.878-23.569-27-58.4999z"/><path d="m-660 693v-48l-140 150v74h140z"/><path d="m-660 469v-224h-140v150l69.0667 74z"/><path d="m-660 545v-76h-70.9333z"/><path d="m-660 469v76 100 48h60v-90-134z"/><path d="m-660 693v176 22.6667l12.16 25.3333h47.84v-90-134z"/><path d="m-660 545v65 35z"/><path d="m-660 645-140 150z"/><path d="m-647.84 917 46.0299 95.8958 1.8101 3.7709v-99.6667z"/><path d="m40 1100-13-28z"/><path d="m2 1142 24.0648-11.5867 2.9352-1.4133z"/><path d="m-595 1138-76.5151 36.7272-25.7656 25.1216 68.1611 70.9012h3.4465l55.6731-144.75z"/><path d="m-595 1138 25-12z"/><path d="m-633 1103 10.878 23.569 1.122 2.431z"/><path d="m-631.9615 1100 7.9615-23 22.1899-64.1042-46.0299-95.8958-12.16-25.3333v152.8334l27 58.4999z"/><path d="m29 1129-1.1838 3.1209 42.1838 41.1293v-8.6348l-30-64.6154z"/><path d="m27 1072 13 28 30 64.6154v-77.7878z"/><path d="m27 1072 43 14.8276v-51.8276h-70v26.037 1.6526z"/><path d="m27 1072-27-9.3104z"/><path d="m26.0648 1130.4133 1.7514 1.7076 1.1838-3.1209z"/><path d="m-621 1129-2.6681-.9235-36.3319 35.4237-11.5151 11.227 76.5151-36.7272z"/><path d="m-250-555h-50z"/><path d="m-250-600h-50v45h50z"/><path d="m-250-493h-50z"/><path d="m-250-448v-45h-50v45z"/><path d="m-250-375h-50z"/><path d="m-250-330v-45h-50v45z"/><path d="m-624 1077-7.9615 23z"/><path d="m-622.122 1126.569-1.5461 1.5075 2.6681.9235z"/><path d="m-570 1126 8.0769-21 1.9231-5z"/><path d="m-182-285.392-18-17.6472h-16v98.0392h116z"/><path d="m-182-415h32 15v-66-12h-15-50v78z"/><path d="m-182-395h32v-20h-32z"/><path d="m-182-395v-20h-18v32 79.9608l18 17.6472z"/><path d="m-50 1122.2766 23 8.7234-12.0714-26h-10.9286z"/><path d="m-401.6731 1105h-155.9269-4.3231l-8.0769 21-55.6731 144.75h220.5535 3.4465z"/><path d="m-177.6731 1105h-158.3269-65.6731v165.75h220.5535 3.4465z"/><path d="m-600 1016.6667-1.8101-3.7709-22.1899 64.1042 24-11.0769z"/><path d="m-600 379v-134h-60v224h60z"/><path d="m-600 155v-55-5l-97.4999-95.0626-102.5001 105.0626v66 52.9375h200z"/><path d="m0 827v174.1818 33.8182h70 100v-50.6154-189.3846h-100-70z"/><path d="m0 250.7499v128.2501 95.7499h70v-28.0157-195.9843z"/><path d="m0 474.7499v128.2501 95.7499h70v-53.7499-100-70.2501z"/><path d="m0 698.7499v96.2501h70v-96.2501z"/><path d="m0 95 70-68.2501 28.7341-28.0157-18.7341-18.7342-80-80h-25.5v195z"/><path d="m-326 95h-147.5-76.5v5h224z"/><path d="m-102 95h-147.5-76.5v5h224z"/><path d="m0 100v-5h-25.5-76.5v5z"/><path d="m-550 95h-50v5h50z"/><path d="m-560 1100-12-25z"/><path d="m-326 155h-224z"/><path d="m-102 155h-224z"/><path d="m-326 100h-224v55h224z"/><path d="m-102 100h-224v55h224z"/><path d="m-50 155h50v-55h-102v55z"/><path d="m-600 100v55h50v-55z"/><path d="m-29 1075 27-13 2-.963v-26.037h-13.2857z"/><path d="m0 1062.6896v-1.6526l-2 .963z"/><path d="m-13.2857 1035h13.2857v-33.8182z"/><path d="m0 1062.6896-2-.6896z"/><path d="m-2 1062-27 13z"/><path d="m-50 155v208z"/><path d="m-50 1035v1 45.4615l8.6071 18.5385h2.5715l9.8214-25 15.7143-40z"/><path d="m-50 1081.4615v18.5385h8.6071z"/><path d="m0 250.7499v-95.7499h-50v208 16h50z"/><path d="m-50 379v208 16h50v-128.2501-95.7499z"/><path d="m-50 603v208 16h50v-32-96.2501-95.7499z"/><path d="m-50 827v208h36.7143l13.2857-33.8182v-174.1818z"/><path d="m-50 1035h-52z"/><path d="m-550 811v16 208z"/><path d="m-550 587v16 208z"/><path d="m-550 363v16 208z"/><path d="m-600 155v68.9375 21.0625 134h50v-16-208z"/><path d="m-600 379v90 134h50v-16-208z"/><path d="m-600 603v90 134h50v-16-208z"/><path d="m-600 827v90 99.6667l8.8 18.3333h41.2v-208z"/><path d="m-591.2 1035 .48 1h40.72v-1z"/><path d="m-326 1035h-224v1h183.28 40.72z"/><path d="m-102 1035h-224v1h183.28 40.72z"/><path d="m-50 1036v-1h-52v1z"/><path d="m-366.72 1036h-183.28-40.72l10.0749 20.9894 8.6451 18.0106 12 25h193.28z"/><path d="m-142.72 1036h-183.28-40.72v64h30.72 193.28z"/><path d="m-112 1100h62v-18.5385-45.4615h-52-40.72v64z"/><path d="m-572 1075-8.6451-18.0106-17.3549 8.0106z"/><path d="m-590.72 1036-.48-1-8.8-18.3333v49.2564l2-.9231 17.3549-8.0106z"/><path d="m-572 1075-26-10z"/><path d="m-598 1065-2 .9231z"/><path d="m-600 1065.9231-24 11.0769z"/><path d="m-561.9231 1105h4.3231l-2.4-5z"/><path d="m-336 1100h-30.72-193.28l2.4 5h155.9269 65.6731z"/><path d="m-112 1100h-30.72-193.28v5h158.3269 65.6731z"/><path d="m-50 1105v-5h-62v5z"/><path d="m-41.3929 1100 1.3929 3 1.1786-3z"/><path d="m-50 1100v5h10.9286l-.9286-2-1.3929-3z"/><path d="m-40 1103 1.1786-3z"/><path d="m-326 155h-224z"/><path d="m-102 155h-224z"/><path d="m-50 155h-52z"/><path d="m-50 811v224-208z"/><path d="m-50 587v224-208z"/><path d="m-50 363v224-208z"/><path d="m-50 155v90 118z"/><path d="m-50 1035h-50-2z"/><path d="m-326 1035h-224z"/><path d="m-102 1035h-224z"/><path d="m-550 811v224-85z"/><path d="m-550 587v224-16-176z"/><path d="m-550 363v224-192z"/><path d="m-550 155v208z"/><path d="m-250-448h-50z"/><path d="m-250-600v45z"/><path d="m-300-555v-45z"/><path d="m-300-600h50z"/><path d="m-250-555h-50v-45h50z"/><path d="m-250-493v45z"/><path d="m-300-448v-45z"/><path d="m-250-493v45h-50v-45z"/><path d="m-250-330h-50z"/><path d="m-250-375v45z"/><path d="m-300-330v-45z"/><path d="m-250-375v45h-50v-45z"/><path d="m-440-527.0392v144.0392 79.9608-1.9608-76z"/><path d="m-100-607v2 77.9608z"/><path d="m-200-415v-78-114h100v79.9608 144.0392h-100z"/><path d="m-100-383v79.9608h-100v-79.9608z"/><path d="m-440-527.0392v-79.9608h100v174 38 12h-100z"/><path d="m-340-383v79.9608h-100v-79.9608z"/><path d="m-200-303.0392h100v-1.9608h-116v1.9608z"/><path d="m-216-607h-124-100v2h224z"/><path d="m-200-607 50-50 15-15 33-33h-112v98z"/><path d="m-340-607-50-50v127 20 77h50z"/><path d="m-340-303.0392v-79.9608-12h-50-15-35v190z"/><path d="m-216-303.0392h-124l-100 98.0392h224z"/><path d="m-440-605v-2 79.9608z"/><path d="m-100-527.0392v146.0392 76 1.9608-79.9608z"/><path d="m-216-605h-224v77.9608 146.0392h224z"/><path d="m-440-381v76h224v-76z"/><path d="m-100-527.0392v-77.9608h-116v224h116z"/><path d="m-216-381v76h116v-76z"/><path d="m-216-305h-224v1.9608h100 124z"/><path d="m-100-605v-2h-100-14-2v2z"/><path d="m-326 155h-224v90h50 174z"/><path d="m-102 155h-224v90h16 20 40 148z"/><path d="m-100 245h50v-90h-52v90z"/><path d="m-276 394h-34-190v1h224z"/><path d="m-100 395v-1h-150-26v1z"/><path d="m-100 394v-149h-2-148v60 89z"/><path d="m-100 245v149 1h1 49v-32-118z"/><path d="m-310 285h20v-40h-20z"/><path d="m-250 245h-40v40 20h40z"/><path d="m-290 305h-20v89h34 26v-89z"/><path d="m-50 587v-192h-49v224h49z"/><path d="m-99 619v176h49v-176z"/><path d="m-99 395h-1v176 48h1z"/><path d="m-100 619v176h1v-176z"/><path d="m-310 394v-89-20-40h-16-174v149z"/><path d="m-550 245v118 32h49 1v-1-149z"/><path d="m-500 571v-176h-1v224h1z"/><path d="m-501 619v176h1v-176z"/><path d="m-501 395h-49v192 32h49z"/><path d="m-550 619v176h49v-176z"/><path d="m-99 795h-1v1 239h50v-224-16z"/><path d="m-250 905v45 85h148 2v-239h-150z"/><path d="m-276 795h-224v1h190 20 14z"/><path d="m-250 796h150v-1h-176v1z"/><path d="m-250 796h-26-14v89 20h40z"/><path d="m-290 796h-20v89h20z"/><path d="m-250 950v-45h-40-20v45z"/><path d="m-326 950h-174-50v85h224z"/><path d="m-250 1035v-85h-60-16v85z"/><path d="m-326 950h16v-45-20-89h-190v154z"/><path d="m-501 795h-49v16 139h50v-154-1z"/><path d="m-100 395v176z"/><path d="m-500 571v48 176-165z"/><path d="m-276 395h-224 220z"/><path d="m-100 795h-176z"/><path d="m-50 155h-52z"/><path d="m-50 811v224z"/><path d="m-50 587v32 176 16z"/><path d="m-50 363v32 192z"/><path d="m-326 1035h-224z"/><path d="m-102 1035h-148-76z"/><path d="m-310 305v-20z"/><path d="m-310 905v-20z"/><path d="m-290 285v20z"/><path d="m-310 285h20z"/><path d="m-310 885h20z"/><path d="m-290 885v20z"/><path d="m-550 245v-90 208z"/><path d="m-100 571v59 165-176z"/><path d="m-500 395v176z"/><path d="m-100 395h-176z"/><path d="m-276 795h-4-220z"/><path d="m-100 571v-176l-30 30v153 30 22h30z"/><path d="m-100 795v-165h-30-70v65z"/><path d="m-280 795v-30h-30-10-150l-30 30z"/><path d="m-130 425-20 20v133h20z"/><path d="m-130 608h-20-50v22h70z"/><path d="m-320 425h10 30v-30h-220l30 30z"/><path d="m-280 425v20 50h80l50-50 20-20 30-30h-176-4z"/><path d="m-470 608v-30-153l-30-30v176 59h30z"/><path d="m-470 630h70v-22h-50-20z"/><path d="m-470 765 70-70v-65h-70-30v165z"/><path d="m-280 425h-30v153h30z"/><path d="m-280 608h150v-30h-150-30v30z"/><path d="m-280 608h-30v41 116h30z"/><path d="m-310 608v-30-153h-10v153 30 41h10z"/><path d="m-320 649v116h10v-116z"/><path d="m-320 578h-150v30h150z"/><path d="m-320 425v20 133z"/><path d="m-130 578h-20-130z"/><path d="m-320 578h-130-20z"/><path d="m-320 649v-41 61 76 20z"/><path d="m-150 578v-133l-50 50v63 50h50z"/><path d="m-450 445 50 50h80v-50-20h-150z"/><path d="m-450 445-20-20v153h20z"/><path d="m-320 745v-50h-80l-70 70h150z"/><path d="m-280 745v-50h-40v50z"/><path d="m-280 445v133 30 61h-40v-61-30-133z"/><path d="m-280 669v76h-40v-76z"/><path d="m-150 578v30h-130v-30z"/><path d="m-320 578v30h-130v-30z"/><path d="m-150 608h20-150z"/><path d="m-320 608h-150 20z"/><path d="m-280 445v-20 153z"/><path d="m-280 669v-61 157-20z"/><path d="m-267 558h-70z"/><path d="m-267 630v-72h-70v72z"/><path d="m-337 558h70 67v-63h-80-40-80v63z"/><path d="m-200 608v-50h-67v72h67z"/><path d="m-320 695h40 80v-65h-67-70-63v65z"/><path d="m-337 558h-63v50 22h63z"/><path d="m-280 495v-50h-40v50z"/><path d="m-400 558v-63l-50-50v133 30h50z"/><path d="m-200 695h-80v50 20 30h4 176z"/><path d="m-267 558v72z"/><path d="m-267 630h-70z"/><path d="m-337 630v-72z"/></g></defs><path d="m-900-905h1200v2305h-1200z" fill="#fff"/><g stroke="#000"><use fill="none" stroke-miterlimit="0" stroke-width="15" xlink:href="#a"/><use fill="#fff" xlink:href="#a"/></g></svg>