<svg viewBox="-758 -1274 1307 1935" xmlns="http://www.w3.org/2000/svg" xmlns:xlink="http://www.w3.org/1999/xlink"><defs><g id="a"><path d="m-542 385h-74z"/><path d="m-616 240v145h74v-145z"/><path d="m-616 240h74z"/><path d="m-542 240v145z"/><path d="m-616 385v-145z"/><path d="m403-383h-74z"/><path d="m329-528v145h74v-145z"/><path d="m329-528h74z"/><path d="m403-528v145z"/><path d="m329-383v-145z"/><path d="m415 661h-147z"/><path d="m-554 543v118h-74v-159h74z"/><path d="m-477 554v107h-77v-118h41 36z"/><path d="m-513 502h36v41h-36z"/><path d="m-628 213v-76h151v18.4879 205.5121h-151z"/><path d="m-477 361v18.4879 119.5121 3h-36-41-74v-65-76z"/><path d="m-253 155.4879h-224v-18.4879h9 215z"/><path d="m-244 137h30.6585v18.4879h-39.6585v-18.4879z"/><path d="m-477 379.4879v-18.4879-205.5121h224v224z"/><path d="m-253 499h-169-55v-119.5121h224z"/><path d="m-253 379.4879v-224h39.6585 109.3415v45.5121 156 22.4879z"/><path d="m-104 443v55 1h-94-55v-119.5121h149z"/><path d="m-468-47v41 143h-9-151v-148-37h124 36z"/><path d="m-628-134h124v86h-124z"/><path d="m-419-47h-8-41v-1h49z"/><path d="m-244 137h-9-215v-143h41 183z"/><path d="m-213.3415-6v131.0488 11.9512h-30.6585v-143z"/><path d="m-419-47h205.6585v41h-30.6585-183v-41z"/><path d="m-419-48v-50.9512h205.6585v51.9512h-205.6585z"/><path d="m59 499h-33-130v-1h108 55z"/><path d="m4 498h-108v-55h98 10z"/><path d="m-253 661h-151-73v-107h55 169z"/><path d="m-29 661h-151-73v-107h55 169z"/><path d="m195 661h-151-73v-107h55 169z"/><path d="m223 554v107h-28v-107z"/><path d="m-198 554h-55-169v-55h169 55z"/><path d="m26 554h-55-169v-55h94 130z"/><path d="m59 499h164v55h-28-169v-55z"/><path d="m223 480v19h-164v-1-55h20 144z"/><path d="m-6 443h-98v-63.5121-22.4879h98z"/><path d="m-104 201h183v156h-85-98z"/><path d="m79 357v-156h41 81 22v19 36 169h-144z"/><path d="m223 425v18h-144v-18z"/><path d="m223 480v-37-18-169h55 137v181 43z"/><path d="m415 661h-147-45v-107-55-19h192z"/><path d="m415 201v12 43h-137v-55z"/><path d="m201 155.4879h-81-78.2927v-19.4879h159.2927z"/><path d="m120 201h-41-183v-45.5121h114.6585 31.0488 78.2927z"/><path d="m201 191v10h-81v-45.5121h81z"/><path d="m256 201h-33-22v-10h55z"/><path d="m120-134h-91-133v-54h224z"/><path d="m183-188h73v54h-136v-54z"/><path d="m-195-98.9512h-18.3415-205.6585v-35.0488h15 209z"/><path d="m29-98.9512h-18.3415-205.6585v-35.0488h15 76 133z"/><path d="m120-134h136v35.0488h-214.2927-12.7073v-35.0488z"/><path d="m256 36v100h-55-159.2927v-10.9512-224h214.2927z"/><path d="m-104-191v-108h224v111h-224z"/><path d="m120-299h63v25 86h-63z"/><path d="m256-98.9512v-35.0488-54h12 147v177 47h-159z"/><path d="m415 36v165h-137-9-13v-10-55-100z"/><path d="m268-299v25h-85v-25z"/><path d="m268-274v-25h76 71v64 47h-147z"/><path d="m-628-459v-180h224v224h-224z"/><path d="m-404-415v224h-224v-44-180z"/><path d="m-404-191v57h-15-85-124v-57z"/><path d="m-404-639h81 143v224h-224z"/><path d="m-180-415v224h-224v-224z"/><path d="m-180-191v57h-15-209v-57z"/><path d="m-180-639h76v224h-76z"/><path d="m-104-415v116 108h-76v-224z"/><path d="m-104-191v3 54h-76v-57z"/><path d="m-104-415v-224h5 219v224z"/><path d="m120-299h-224v-116h224z"/><path d="m120-415v-224h12 212v224z"/><path d="m344-299h-76-85-63v-116h224z"/><path d="m356-639h59v180 44h-71v-224z"/><path d="m415-415v116h-71v-116z"/><path d="m356-639h-12-212z"/><path d="m278 256v-36-19z"/><path d="m415-639v180z"/><path d="m256 136h-55z"/><path d="m268-274h-85z"/><path d="m183-274v86z"/><path d="m268-188v-86z"/><path d="m278 256h-55z"/><path d="m201 155.4879v-19.4879 29 26z"/><path d="m201 191h13 42z"/><path d="m223 220v-19z"/><path d="m223 201h33 13z"/><path d="m223 256v-36z"/><path d="m-99-639h-5-76-143z"/><path d="m132-639h-12-219z"/><path d="m41.7073 125.0488v10.9512 19.4879l-26.5366-30.4391z"/><path d="m-213.3415-6v-41-51.9512l62.3415 57.9512v128l-34.6341 38.0488h-27.7074z"/><path d="m29-98.9512h12.7073l-31.0486 30.1354-.0002-30.1354z"/><path d="m4 498h55z"/><path d="m-6 357v86z"/><path d="m-6 443h10z"/><path d="m79 425v18-86z"/><path d="m79 357h-85z"/><path d="m59 498v-55z"/><path d="m4 443v55z"/><path d="m-404-639h-224z"/><path d="m-323-639h-81z"/><path d="m-504-134v10 55 21z"/><path d="m-468-6h41z"/><path d="m-419-134h-85z"/><path d="m-427-47h-41z"/><path d="m-468-47v41z"/><path d="m-427-6v-41z"/><path d="m-422 499h-55z"/><path d="m-422 554v-55z"/><path d="m-477 554h55z"/><path d="m-477 543v-41-3 55z"/><path d="m-554 502v41z"/><path d="m-513 502h-41z"/><path d="m-554 543h41z"/><path d="m-513 543v-41z"/><path d="m-628 437v65 159z"/><path d="m-628 213v148 76z"/><path d="m-628-11v148 76z"/><path d="m-628-235v44 57 86 37z"/><path d="m-628-459v44 180z"/><path d="m-185.6341 125.0488-27.7074 30.4391v-18.4879-11.9512z"/><path d="m10.6585 119.873-28.6585-32.873v-128l28.6587-27.8158 31.0486-30.1354v224h-26.5366z"/><path d="m10.6585 119.873 4.5122 5.1758 26.5366 30.4391h-31.0488z"/><path d="m10.6587-68.8158-28.6587 27.8158h-133l-62.3415-57.9512h18.3415 205.6585z"/><path d="m-18-41v128h-133v-128z"/><path d="m-18 87 28.6585 32.873v35.6149h-114.6585-109.3415l27.7074-30.4391 34.6341-38.0488z"/><path d="m-468-6v-41h41v41z"/><path d="m-554 543v-41h41v41z"/><path d="m-477 554v-55h55v55z"/><path d="m269 191v10-36z"/><path d="m269 201h9z"/><path d="m256 191h13v-26h-13z"/><path d="m223 201h46v-10h-13-42v10z"/><path d="m214 165h-13v-29h55v29z"/><path d="m201 191v-26h13v26z"/><path d="m214 201v19h9v-19z"/><path d="m256 165h13-55z"/><path d="m214 201v-10-26 55z"/><path d="m256 165v-29 55z"/><path d="m59 443h20z"/><path d="m4 498v-55h55v55z"/><path d="m223 220h46z"/><path d="m223 220h-9z"/><path d="m269 220v-19z"/><path d="m269 201h9v19h-9z"/><path d="m223 256v-36h46 9v36z"/><path d="m415 437v224-181z"/><path d="m415 213v224-181z"/><path d="m415-11v224-12-165z"/><path d="m415-235v224-177z"/><path d="m415-459v224-64-116z"/><path d="m415-639v180z"/><path d="m415 661h-147z"/><path d="m-404 661h-224 74 77z"/><path d="m-180 661h-224 151z"/><path d="m44 661h-224 151z"/><path d="m268 661h-224 151 28z"/><path d="m415-639h-59z"/><path d="m356-639h-224z"/><path d="m-99-639h-224z"/><path d="m132-639h-231z"/><path d="m-404-639h-224z"/><path d="m-323-639h-81z"/><path d="m-628 437v224z"/><path d="m-628 213v224z"/><path d="m-628-11v224z"/><path d="m-628-235v224z"/><path d="m-628-459v224z"/><path d="m-628-639v180z"/><path d="m59 443h-55-10v-86h85v86z"/><path d="m4 443h55z"/><path d="m-419-69v-55-10 35.0488 50.9512z"/><path d="m-504-124h15v55h-15z"/><path d="m-489-69h55 15v21h-85v-21z"/><path d="m-434-124h15v55h-15z"/><path d="m-419-134v10h-15-55-15v-10z"/><path d="m-489-124v55z"/><path d="m-434-69v-55z"/><path d="m-434-124h-55z"/><path d="m-419-48h-49-36z"/><path d="m268-188h-12-73z"/><path d="m268-274v86h-85v-86z"/><path d="m214 165h55v36 19h-46-9z"/><path d="m415-639v180z"/><path d="m415 437v224z"/><path d="m415 213v224z"/><path d="m415-11v224z"/><path d="m415-235v224z"/><path d="m415-459v224z"/><path d="m-404 661h-224z"/><path d="m-180 661h-224z"/><path d="m44 661h-224z"/><path d="m268 661h-224z"/><path d="m415 661h-147z"/><path d="m356-639h-224z"/><path d="m415-639h-59z"/><path d="m-99-639h-224 16 109z"/><path d="m132-639h-231 86 136z"/><path d="m-404-639h-224z"/><path d="m-323-639h-81 66z"/><path d="m-628-639v180z"/><path d="m-628 437v224z"/><path d="m-628 213v224z"/><path d="m-628-11v224z"/><path d="m-628-235v224z"/><path d="m-628-459v224z"/><path d="m-434-69h-55z"/><path d="m-434-124v55h-55v-55z"/><path d="m-529 385h-98v14h98z"/><path d="m-627 229v11h98v-11z"/><path d="m-529 240h-13v145h13z"/><path d="m-627 385h11v-145h-11z"/><path d="m-529 399h-98z"/><path d="m-627 229h98z"/><path d="m-627 229v170z"/><path d="m318-383v14h98v-14z"/><path d="m318-528v145h11v-145z"/><path d="m403-383h13v-145h-13z"/><path d="m318-539v11h98v-11z"/><path d="m416-369h-98z"/><path d="m318-539h98z"/><path d="m416-369v-170z"/><path d="m415 437v224z"/><path d="m415 213v224z"/><path d="m415-11v224z"/><path d="m415-235v224z"/><path d="m415-459v224z"/><path d="m415-639v180z"/><path d="m-628 437v224-137z"/><path d="m-628 213v224-137z"/><path d="m-628-11v224-137-22z"/><path d="m-628-235v224-39-22-119z"/><path d="m-628-459v224-180z"/><path d="m-628-639v180z"/><path d="m-195 661h-209z"/><path d="m-180 661h168-168-15z"/><path d="m-404 661h-224z"/><path d="m-180 661h-15-209z"/><path d="m44 661h-56-168z"/><path d="m268 661h-56-168z"/><path d="m268 661h147-147-56z"/><path d="m356-639h-224z"/><path d="m415-639h-59z"/><path d="m-404-639h-224 94z"/></g><g id="b"><path d="m-529 229v170z"/><path d="m-560 348h-41z"/><path d="m-627 229h98v119h-98z"/><path d="m-601 389h41z"/><path d="m-560 389v-41z"/><path d="m-529 389h-31v-41h31z"/><path d="m-601 348v41z"/><path d="m-601 389h-26v-41h26z"/><path d="m-627 399v-10h98v10z"/><path d="m-628 661h-130z"/><path d="m549 316v121z"/><path d="m549 300v-224 224 16z"/><path d="m549-50v104z"/><path d="m549-639v119z"/><path d="m-758 437v87 137-76z"/><path d="m-758 54v-104z"/><path d="m-758-520v105 119-119z"/><path d="m418-639h131v119 105h-131z"/><path d="m549-415v119 105h-131v-224z"/><path d="m549-191v119h-3-128v-119z"/><path d="m546-50h-128v-22h128z"/><path d="m546-50h3v104h-3-128v-104z"/><path d="m546 76h-128v-22h128z"/><path d="m418 76h128 3v224h-131z"/><path d="m549 300v16 121 87h-131v-224z"/><path d="m549 524v137h-131v-137z"/><path d="m549 54h-3z"/><path d="m546-50h3z"/><path d="m415-639h-59z"/><path d="m356-639h-224z"/><path d="m418-639h-3-59z"/><path d="m415-459v-180h3v224h-3z"/><path d="m418-415v224h-3v-44-180z"/><path d="m418-191v119h-3v-119z"/><path d="m418-50h-3v-22h3z"/><path d="m418 54h-3v-65-39h3z"/><path d="m418 76h-3v-22h3z"/><path d="m415 213v-137h3v224h-3z"/><path d="m418 300v224h-3v-87-137z"/><path d="m418 524v137h-3v-137z"/><path d="m415 437v87 137z"/><path d="m415 213v87 137z"/><path d="m415-11v65 22 137z"/><path d="m415-235v44 119 22 39z"/><path d="m415-459v44 180z"/><path d="m132-639h-9z"/><path d="m-338-639h15z"/><path d="m-534-639h-94-130 130z"/><path d="m-338-639h-66z"/><path d="m-628 54v22h-128v-22z"/><path d="m-758 76h2 128v137 87h-130z"/><path d="m-628 300v137 87h-130v-87-121-16z"/><path d="m-628 524v137h-130v-137z"/><path d="m-756-50h128v39 65h-128-2v-104z"/><path d="m-628-72v22h-128v-22z"/><path d="m-758-520v-119h130v180 44h-130z"/><path d="m-628-415v180 44h-130v-105-119z"/><path d="m-628-191v119h-128-2v-119z"/><path d="m-756 54h-2z"/><path d="m-758-50h2z"/><path d="m-756-50v-22z"/><path d="m-756 76h-2z"/><path d="m-756 76v-22z"/><path d="m-628-639v180z"/><path d="m318-369v-170z"/><path d="m416-369h-98v-170h98z"/><path d="m-601 389v-41h41v41z"/><path d="m546-50v104h3v-104z"/><path d="m546-50v-22 126z"/><path d="m546-50v-22z"/><path d="m-756-72h-2z"/><path d="m-756 54v-104h-2v104z"/><path d="m-756-50v104-21-105z"/><path d="m-628 661h-130z"/><path d="m-404 661h-224z"/><path d="m415 661h3-85.2857-64.7143z"/><path d="m418 661h4-2.4286z"/><path d="m212 661h-168-56 56z"/><path d="m422 661h-4-3 3 131z"/><path d="m-323-639h16z"/><path d="m-338-639h15z"/><path d="m-404-639h66-66-130z"/><path d="m-404-639h-130-94z"/><path d="m422 661h127z"/><path d="m422-639h-4 1.5714z"/><path d="m549-639h-127z"/><path d="m422-639h127-131z"/><path d="m422 437v44 180-137z"/><path d="m422 213v44 180-137z"/><path d="m422-11v44 180-137z"/><path d="m422-235v44 180-61-119z"/><path d="m422-459v44 180-180z"/><path d="m422-459v-180h-2.4286v224h2.4286z"/><path d="m356-639h-224z"/></g><g id="c"><path d="m549 437v87 137-137z"/><path d="m549-296v105 119-119z"/><path d="m549-520v105 119-119z"/><path d="m-758 361v-45 121z"/><path d="m-758 137v-61 224 16z"/><path d="m-758-72v-119-105 105z"/><path d="m-758-639v119z"/><path d="m418-639v41 139z"/><path d="m419.5714-639h-1.5714v180 44h1.5714z"/><path d="m418-415v180 44h1.5714v-224z"/><path d="m418-191v180 44h1.5714v-224z"/><path d="m418 33v180 44h1.5714v-224z"/><path d="m418 257v180 44h1.5714v-224z"/><path d="m418 481v180h1.5714v-180z"/><path d="m549-520v-119h-127v180 44h127z"/><path d="m422-415v180 44h127v-105-119z"/><path d="m422-191v119h124 3v-119z"/><path d="m546 54v-126h-124v61 87h124z"/><path d="m549 76h-3-124v137 87h127z"/><path d="m422 300v137 87h127v-87-121-16z"/><path d="m422 524v137h127v-137z"/><path d="m422-639v180z"/><path d="m549-72h-3z"/><path d="m546 76h3z"/><path d="m546 76v-22z"/><path d="m419.5714-415v224h2.4286v-44-180z"/><path d="m419.5714-191v224h2.4286v-44-180z"/><path d="m419.5714 33v224h2.4286v-44-180z"/><path d="m419.5714 257v224h2.4286v-44-180z"/><path d="m419.5714 481v180h2.4286v-180z"/><path d="m-756-639h128-130z"/><path d="m-628 437v148 76-180z"/><path d="m-628 213v148 76-180z"/><path d="m-628-11v44 104 76-180z"/><path d="m-628-235v44 180-180z"/><path d="m-628-459v44 180-180z"/><path d="m-628-459v-180h-128v224h128z"/><path d="m-756-415v224h128v-44-180z"/><path d="m-756-191v119 105h128v-44-180z"/><path d="m-756 33v21 22 61h128v-104z"/><path d="m-756-639h-2v119 105h2z"/><path d="m-758-415v119 105h2v-224z"/><path d="m-758-191v119h2v-119z"/><path d="m-756 137v-61h-2v61z"/><path d="m-628 213v-76h-128-2v179 45h130z"/><path d="m-758 361v76 148h130v-148-76z"/><path d="m-758 585v76h130v-76z"/><path d="m418 437v85 139-180z"/><path d="m418 213v85 139-180z"/><path d="m418-11v85 139-180z"/><path d="m418-235v85 139-180z"/><path d="m418-459v85 139-180z"/><path d="m418-459v-139h-62-23.2858v224h85.2858z"/><path d="m418-598v-41h-62v41z"/><path d="m418-639h-62z"/><path d="m132-639v41z"/><path d="m-99-598h-224 1 23z"/><path d="m132-598h-1z"/><path d="m-99-639h-99-109-16v41h224z"/><path d="m131-598h1v-41h-9-136-86v41z"/><path d="m123-639h-136z"/><path d="m-99-639h86-86-99z"/><path d="m132-639h-9z"/><path d="m-323-639h16z"/><path d="m-198-639h-109z"/><path d="m-628-639v180z"/><path d="m-628-415v180 44h224v-224z"/><path d="m-628-191v180 44h224v-224z"/><path d="m-628 33v180 44h224v-224z"/><path d="m-628 257v180 44h224v-224z"/><path d="m-628 481v180h224v-180z"/><path d="m-75-1274h-206-18 147 9z"/><path d="m-323-598v-41z"/><path d="m-322-598h23z"/><path d="m-323-598h1z"/><path d="m-75-598h183 23-230z"/><path d="m-75-598h-24-200z"/><path d="m108-598h23z"/><path d="m-299-831v59 165-155-64z"/><path d="m-299-1055v59 165-219z"/><path d="m108-1220v-45-9 219z"/><path d="m-281-1220h45z"/><path d="m-168-1220h45z"/><path d="m-223-1220h45z"/><path d="m-61-1220h45z"/><path d="m-5-1220h45z"/><path d="m54-1220h45z"/><path d="m-281-1265v45z"/><path d="m-236-1265h-45z"/><path d="m-178-1265h-45z"/><path d="m-123-1265h-45z"/><path d="m-70-1265h-45z"/><path d="m-57-1265h41-45z"/><path d="m40-1265h-45z"/><path d="m99-1265h-45z"/><path d="m-57-1265h-4-9-45-8-45-10-45-13-45v-9h206 18z"/><path d="m108-1274v9h-9-45-14-45-11-41v-9z"/><path d="m-61-1265v45z"/><path d="m40-1220v-45z"/><path d="m54-1265v45z"/><path d="m99-1220v-45z"/><path d="m108-1265v45h-9v-45z"/><path d="m54-1220h-14v-45h14z"/><path d="m-5-1265v45z"/><path d="m-16-1220v-45z"/><path d="m-5-1220h-11v-45h11z"/><path d="m-168-1265v45z"/><path d="m-70-1220v-45z"/><path d="m-61-1220h-9v-45h9z"/><path d="m-123-1220v-45z"/><path d="m-115-1265v45z"/><path d="m-115-1220h-8v-45h8z"/><path d="m-223-1265v45z"/><path d="m-178-1220v-45z"/><path d="m-168-1220h-10v-45h10z"/><path d="m-236-1220v-45z"/><path d="m-223-1220h-13v-45h13z"/><path d="m-299-1274h18v9 45h-18z"/><path d="m108-607h-183z"/><path d="m-299-996v-59-165h18 45 13 45 10 45 8 40v224z"/><path d="m-299-772v-59-165h224v224z"/><path d="m-75-607h-224v-165h224z"/><path d="m-70-1220h9 45 11 45 14 45 9v165 59h-183v-224z"/><path d="m108-996v165 59h-183v-224z"/><path d="m108-772v165h-183v-165z"/><path d="m-70-1220h-5-40z"/><path d="m-281-1220v-45h45v45z"/><path d="m-223-1220v-45h45v45z"/><path d="m-168-1220v-45h45v45z"/><path d="m-70-1265v45h-45v-45z"/><path d="m-61-1220v-45h45v45z"/><path d="m-5-1220v-45h45v45z"/><path d="m54-1220v-45h45v45z"/><path d="m108-598h-183z"/><path d="m-299-598v-9z"/><path d="m108-607v9z"/><path d="m-75-607h-224z"/><path d="m-75-598h-224v-9h224z"/><path d="m108-607v9h-183v-9z"/><path d="m356-639h-224v41h200.7142 23.2858z"/><path d="m332.7142-598h-200.7142-23.2857v175 49h223.9999z"/><path d="m332.7142-374v224h85.2858v-85-139z"/><path d="m332.7142-150v224h85.2858v-85-139z"/><path d="m332.7142 74v224h85.2858v-85-139z"/><path d="m332.7142 298v224h85.2858v-85-139z"/><path d="m332.7142 522 .0001 139h85.2857v-139z"/><path d="m268 661h-159.2857-26.7143-38 168z"/><path d="m-27-695v-38h-141v38z"/><path d="m-27-1166v-38h-141v38z"/><path d="m-27-733h-21-9-86-9-16z"/><path d="m-27-1204v38-15z"/><path d="m-168-1166v-38 23z"/><path d="m-27-1204h-21-9-86-9-16z"/><path d="m-27-733v38-15z"/><path d="m-168-695v-38 23z"/><path d="m-168-695v-15h16 9v15z"/><path d="m-168-710v-23h16v15 8z"/><path d="m-152-718v-15h9v15z"/><path d="m-168-1166v-15h16 9v15z"/><path d="m-168-1181v-23h16v15 8z"/><path d="m-152-1189v-15h9v15z"/><path d="m-57-733v15 8 15h-86v-15-8-15z"/><path d="m-57-695v-15h9 21v15z"/><path d="m-57-718v-15h9v15z"/><path d="m-48-710v-8-15h21v23z"/><path d="m-57-1204v15 8 15h-86v-15-8-15z"/><path d="m-57-1166v-15h9 21v15z"/><path d="m-57-1189v-15h9v15z"/><path d="m-48-1181v-8-15h21v23z"/><path d="m-143-718h-9z"/><path d="m-48-718h-9z"/><path d="m-152-1181h9z"/><path d="m-57-1181h9z"/><path d="m-57-1189v8z"/><path d="m-48-1181v-8z"/><path d="m-48-1189h-9z"/><path d="m-152-1189v8z"/><path d="m-143-1181v-8z"/><path d="m-143-1189h-9z"/><path d="m-57-718v8z"/><path d="m-48-710v-8z"/><path d="m-57-710h9z"/><path d="m-152-718v8z"/><path d="m-152-710h9z"/><path d="m-143-710v-8z"/><path d="m-143-1166h86 30-141z"/><path d="m-143-695h86 30-141z"/><path d="m-404 661h-224z"/><path d="m-404-639h-224v180 44h224z"/><path d="m-404-415v224h72.8571v-108-116z"/><path d="m-404-191v224h72.8571v-113-111z"/><path d="m-404 33v224h72.8571v-113-111z"/><path d="m-404 257v224h72.8571v-113-111z"/><path d="m-404 481v180h72.8571v-69-111z"/><path d="m-89-423h-38v141h38z"/><path d="m-89-423h-15-23z"/><path d="m-127-423v20 9 86 9 17z"/><path d="m-89 348h-15-23z"/><path d="m-89 489v-141h-38v141z"/><path d="m-127 348v21 9 86 9 16z"/></g><g id="d"><path d="m-57-1274h9 156-165-18z"/><path d="m-98-598h-70-131-23 214.8571z"/><path d="m-299-1274v54 165z"/><path d="m108-831v5 64 155-165z"/><path d="m108-1055v5 219-165z"/><path d="m-168-695v-67h-131v155 9h131z"/><path d="m-143-710h-9v15h9z"/><path d="m-152-695v-15-8-44h-16v67z"/><path d="m-143-1050v-131h-9v131 93h9z"/><path d="m-152-957v131 64 44h9v-108-131z"/><path d="m-152-1181v-8-85h-147v219 5h147z"/><path d="m-299-1050v219 5h147v-131-93z"/><path d="m-299-826v64h131 16v-64z"/><path d="m-143-1274h-9v85h9z"/><path d="m-98-598h71v-97h-21-9-86-9-16v97z"/><path d="m-48-710h-9v15h9z"/><path d="m-48-762v44 8 15h21v-67z"/><path d="m108-607v-155h-135v67 97h135z"/><path d="m-48-1050v-131h-9v131 93h9z"/><path d="m-57-957v131 108h9v-44-64-131z"/><path d="m-57-1050v-131-8-85h-18-68v85 8 131z"/><path d="m-57-826v-131-93h-86v93 131z"/><path d="m-57-695v-15-8-108h-86v108 8 15z"/><path d="m-48-1274h-9v85h9z"/><path d="m108-1055v-219h-156v85 8 131h156z"/><path d="m-48-1050v93 131h156v-5-219z"/><path d="m-48-826v64h21 135v-64z"/><path d="m-89-282h-38z"/><path d="m-89-299v-124 141z"/><path d="m-112-299h4.8571 3.1429z"/><path d="m-104-394v-9z"/><path d="m-104-299v-9z"/><path d="m-89-299h-15v-9-86-9-20h15z"/><path d="m-112-394h8z"/><path d="m-104-403h-8z"/><path d="m-112-403h-15v-20h23v20z"/><path d="m-112-403v9z"/><path d="m-127-394v-9h15v9z"/><path d="m-104-308h-8z"/><path d="m-112-308h-15v-86h15 8v86z"/><path d="m-112-308v9z"/><path d="m-127-299v-9h15v9z"/><path d="m-112-299h8 15v17h-38v-17z"/><path d="m-89 473v-125 141z"/><path d="m-89 489h-38z"/><path d="m-112 473h8z"/><path d="m-104 378v-9z"/><path d="m-104 473v-9z"/><path d="m-104 464v-86-9-21h15v125h-15z"/><path d="m-112 378h8z"/><path d="m-104 369h-8z"/><path d="m-112 369h-15v-21h23v21z"/><path d="m-112 369v9z"/><path d="m-127 378v-9h15v9z"/><path d="m-104 464h-8z"/><path d="m-112 464h-15v-86h15 8v86z"/><path d="m-112 464v9z"/><path d="m-127 473v-9h15v9z"/><path d="m-112 473h8 15v16h-38v-16z"/><path d="m-323-639h1z"/><path d="m-323-639h1v41h-1z"/><path d="m-322-639v41z"/><path d="m132-598h-1-23 .7143z"/><path d="m-338-639h6.8571 8.1429z"/><path d="m-338-639h-66z"/><path d="m-180 661h-122-29.1429-72.8571 209z"/><path d="m44 661h-122-102 168z"/><path d="m-127 473h15v-9h-15z"/><path d="m-127 473v-9-86-9-21h-175v20 121h175z"/><path d="m-104 378h-8-15v86h15 8z"/><path d="m-112 378v-9h-15v9z"/><path d="m-302 94v-174h-29.1429v113 111h29.1429z"/><path d="m-331.1429 144v113 111h29.1429v-20-30-174z"/><path d="m-331.1429 368v113 111h29.1429v-103-121z"/><path d="m-331.1429 592v69h29.1429v-69z"/><path d="m-302 94h98v-174h-98z"/><path d="m-78 489h-49-175v103 69h122 102z"/><path d="m44 661h38v-172h-160v172z"/><path d="m-78 489h160v-16h-186-8-15v16z"/><path d="m82 489v172h26.7143v-139-49h-26.7143z"/><path d="m-112 369h8 186v-21h-160-49v21z"/><path d="m108.7143 369h-26.7143-186v9 86 9h186 26.7143z"/><path d="m-78 94h-14-15-37-23-37-98v50 174h224z"/><path d="m-302 318v30h175 49v-30z"/><path d="m82 318v-174-50h-89-25-23-23v224z"/><path d="m82 348v-30h-160v30z"/><path d="m82 94v-174h-89v174z"/><path d="m108.7143 74v-154h-26.7143v174 50h26.7143z"/><path d="m82 144v174 30 21h26.7143v-71-154z"/><path d="m-107.1429-299h-4.8571-15-204.1429v108 111h29.1429 98 37 23 36.8571z"/><path d="m-107-80h15 37 23 25 89 26.7143v-70-149h-197.7143-15-3.1429v219z"/><path d="m-127-308v-86-9-20h-204.1429v8 116h204.1429z"/><path d="m-112-299v-9h-15v9z"/><path d="m-104-394h-8-15v86h15 8z"/><path d="m-112-394v-9h-15v9z"/><path d="m-322-639h-1-8.1429v41h9.1429z"/><path d="m-112-403h8 15v-20h-18.1429-19.8571v20z"/><path d="m-89-403h-15v9 86 9h15z"/><path d="m-89-403v104h197.7143v-75-49h-197.7143z"/><path d="m-107.1429-598h-214.8571-9.1429v175h204.1429 19.8571z"/><path d="m-89-423h197.7143v-175h-.7143-206-9.1429v175z"/><path d="m-204-80v174z"/><path d="m-167-80h-37z"/><path d="m-107-80h-.1429-36.8571z"/><path d="m-55-80h-37z"/><path d="m-7-80h-25z"/><path d="m-144 94h37z"/><path d="m-204 94h37z"/><path d="m-32 94h25z"/><path d="m-92 94h14 23z"/><path d="m-92 94h-15z"/><path d="m-7 94v-174z"/><path d="m108.7143-374v75 149h223.9999v-224z"/><path d="m108.7143-150v70 154h223.9999v-224z"/><path d="m108.7143 74v70 154h223.9999v-224z"/><path d="m108.7143 298v71 104 49h223.9999v-224z"/><path d="m108.7143 522v139h159.2857 64.7143l-.0001-139z"/><path d="m108-598h-135-71z"/><path d="m-331.1429-423v-175-41h-6.8571-66v224h72.8571z"/><path d="m-107-80v174z"/><path d="m-55-80v174z"/><path d="m-32 94v-174z"/><path d="m-32-80v174h25v-174z"/><path d="m-92 94v-174z"/><path d="m-92-80v174h37v-174z"/><path d="m-144 94v-174z"/><path d="m-144-80v174h37v-174z"/><path d="m-167-80v174z"/><path d="m-204-80v174h37v-174z"/><path d="m-204 94v-174z"/><path d="m-6-80v174z"/><path d="m-144-80h37z"/><path d="m-204-80h37z"/><path d="m-144-80h-23z"/><path d="m-32-80h26z"/><path d="m-32-80h-23z"/><path d="m-92-80h37z"/><path d="m-167 94h23z"/><path d="m-167 94h-37z"/><path d="m-107 94h-37z"/><path d="m-55 94h-37z"/><path d="m-55 94h23z"/><path d="m-6-80v174h-26v-174z"/><path d="m-92 94v-174h37v174z"/><path d="m-204 94v-174h37v174z"/><path d="m-144 94v-174h37v174z"/><path d="m-204 95v-1z"/><path d="m-6 94v1z"/><path d="m-32 94h26z"/><path d="m-167 94h23 37 15 37 23 26v1h-198v-1z"/><path d="m-6 95h-198z"/><path d="m-92-80h-15z"/><path d="m-223-122v2z"/><path d="m11 124h25z"/><path d="m36-120h-15z"/><path d="m36-100v224-30-174z"/><path d="m21-122h-20z"/><path d="m-6 94v-174 174 1z"/><path d="m-6 95h-198z"/><path d="m11 135v-11z"/><path d="m-246 124h13z"/><path d="m-246-120v20z"/><path d="m-6-80h-26-23-37-15-37-23-37z"/></g><g id="e"><path d="m-233 135v-11h29v11z"/><path d="m-246-80h42v175 29h-29-13z"/><path d="m-6 95v40h-198v-11-29z"/><path d="m-6 95v-1h17v30 11h-17z"/><path d="m36 124h-25v-30h25z"/><path d="m11 94h-17v-174h42v174z"/><path d="m1-120h-23-201v-2h224z"/><path d="m21-122v2h-20v-2z"/><path d="m-22-80h-182-42v-20-20h23 201z"/><path d="m1-120h20 15v20 20h-42-16v-40z"/><path d="m21-120v-2z"/><path d="m36-120v20z"/><path d="m-22-80h16-198z"/><path d="m1-122h-224z"/><path d="m-204-80v174 1z"/><path d="m-246-120h23z"/><path d="m-246-100v20 204z"/><path d="m-233 124v11z"/></g></defs><g stroke="#000"><use fill="none" stroke-miterlimit="0" stroke-width="10" xlink:href="#a"/><use fill="#c2c2c2" xlink:href="#a"/><use fill="none" stroke-miterlimit="0" stroke-width="10" xlink:href="#b"/><use fill="#d1d1d1" xlink:href="#b"/><use fill="none" stroke-miterlimit="0" stroke-width="10" xlink:href="#c"/><use fill="#e0e0e0" xlink:href="#c"/><use fill="none" stroke-miterlimit="0" stroke-width="10" xlink:href="#d"/><use fill="#f0f0f0" xlink:href="#d"/><use fill="none" stroke-miterlimit="0" stroke-width="10" xlink:href="#e"/><use fill="#fff" xlink:href="#e"/></g></svg>