<?xml version="1.0" encoding="utf-8" ?>
<svg baseProfile="tiny" height="100%" version="1.2" viewBox="-848.0 -856.0 904.0 864.0" width="100%" xmlns="http://www.w3.org/2000/svg" xmlns:ev="http://www.w3.org/2001/xml-events" xmlns:xlink="http://www.w3.org/1999/xlink"><defs><g id="bsp_ref"><polygon points="-16,-656 -16,-656 -16,-640 -16,-624 -16,-624 -16,-624 -16,-624" /><polygon points="-152,-784 -277,-784 -225.2236,-784 -152,-784" /><polygon points="-536,-80 -760,-80 -760,-184 -656,-184 -536,-184" /><polygon points="-432,-184 -400,-184 -400,-80 -536,-80 -536,-184" /><polygon points="-760,-304 -760,-408 -656,-408 -656,-184 -760,-184" /><polygon points="-640,-424 -640,-478 -486.7717,-478 -486.7717,-342 -486.7717,-254 -640,-254" /><polygon points="-486.7717,-254 -486.7717,-200 -640,-200 -640,-254" /><polygon points="-343,-342 -343,-200 -416,-200 -486.7717,-200 -486.7717,-254 -486.7717,-342" /><polygon points="-72,-512 -16,-512 -16,-384 -152,-384 -152,-432 -152,-512" /><polygon points="-72,-528 -72,-624 -32,-624 -16,-624 -16,-528" /><polygon points="-416,-478 -486.7717,-478 -640,-478 -640,-616 -640,-656 -512,-656 -416,-656" /><polygon points="-343,-656 -343,-478 -416,-478 -416,-656" /><polygon points="-343,-478 -343,-656 -288,-656 -277,-656 -152,-656 -152,-512 -152,-432 -343,-432" /><polygon points="-152,-432 -152,-384 -152,-200 -192,-200 -343,-200 -343,-342 -343,-432" /><polygon points="-277,-656 -277,-784 -152,-784 -152,-768 -152,-672 -152,-656" /><polygon points="-152,-656 -136,-656 -72,-656 -72,-624 -72,-528 -72,-512 -152,-512" /><polygon points="-136,-768 -136,-672 -152,-672 -152,-768" /><polygon points="-32,-656 -16,-656 -16,-624 -32,-624" /><polygon points="-72,-656 -72,-784 -32,-784 -32,-672 -32,-656 -32,-624 -72,-624" /><polygon points="-32,-784 -16,-784 -16,-672 -32,-672" /><polygon points="-136,-672 -136,-768 -136,-784 -72,-784 -72,-656 -136,-656" /><polygon points="-640,-656 -640,-656 -528,-656 -512,-656 -512,-656" /><polygon points="-288,-656 -343,-656 -416,-656 -512,-656 -512,-656 -512,-656 -288,-656" /><polygon points="-152,-656 -152,-672 -152,-672 -152,-656" /><polygon points="-152,-768 -152,-784 -152,-784 -152,-784 -152,-784 -152,-768" /><polygon points="-277,-656 -225.2236,-656 -225.2236,-784 -277,-784" /><polygon points="-152,-384 -152,-384 -152,-384 -152,-368 -152,-200 -152,-200" /><polygon points="-16,-384 -16,-384 -152,-384 -152,-384" /><polygon points="-16,-512 -72,-512 -72,-512 -16,-512" /><polygon points="-72,-512 -72,-528 -72,-528 -72,-512" /><polygon points="-72,-528 -16,-528 -16,-528 -72,-528" /><polygon points="-760,-304 -760,-184 -760,-80 -760,-80 -760,-184 -760,-200 -760,-304" /><polygon points="-400,-80 -312,-80 -312,-80 -384,-80 -400,-80 -512,-80 -528,-80 -536,-80 -536,-80" /><polygon points="-152,-200 -152,-200 -192,-200 -192,-200 -192,-200" /><polygon points="-656,-408 -656,-408 -656,-384 -656,-368 -656,-200 -656,-184 -656,-184" /><polygon points="-656,-408 -656,-616 -656,-616 -656,-504 -656,-408" /><polygon points="-416,-200 -343,-200 -192,-200 -192,-200 -304,-200 -416,-200" /><polygon points="-640,-424 -640,-254 -640,-200 -640,-200 -640,-424" /><polygon points="-640,-616 -640,-478 -640,-424 -640,-424 -640,-504 -640,-616" /><polygon points="-486.7717,-478 -473.1445,-470 -473.1445,-350 -486.7717,-342" /><polygon points="-416,-478 -343,-478 -351.9395,-470 -473.1445,-470 -486.7717,-478" /><polygon points="-432,-184 -536,-184 -656,-184 -656,-184 -640,-184 -528,-184 -512,-184 -432,-184" /><polygon points="-760,-408 -760,-528 -760,-616 -656,-616 -656,-408" /><polygon points="-225.2236,-784 -225.2236,-656 -288,-656 -288,-784" /><polygon points="-225.2236,-656 -277,-656 -288,-656 -288,-656" /><polygon points="-351.9395,-470 -351.9394,-350 -473.1445,-350 -473.1445,-470" /><polygon points="-351.9394,-350 -343,-342 -486.7717,-342 -473.1445,-350" /><polygon points="-351.9395,-470 -343,-478 -343,-432 -343,-342 -351.9394,-350" /><polygon points="-16,-608 -16,-592 -16,-576 -16,-560 -16,-544 -16,-528 -16,-528 -16,-624 -16,-624" /><polygon points="-16,-624 -16,-624 -16,-608 -16,-608 -16,-608" /><polygon points="-16,-592 -16,-592 -16,-576 -16,-576 -16,-576" /><polygon points="-16,-560 -16,-560 -16,-544 -16,-544" /><polygon points="-16,-576 -16,-576 -16,-560 -16,-560 -16,-560" /><polygon points="-16,-608 -16,-608 -16,-592 -16,-592 -16,-592" /><polygon points="-16,-512 -16,-512 -16,-432 -16,-384 -16,-384 -16,-512" /><polygon points="-80,-528 -80,-544 -80,-544 -80,-528" /><polygon points="-16,-544 -16,-544 -80,-544 -80,-544" /><polygon points="-72,-528 -16,-528 -16,-544 -80,-544 -80,-528" /><polygon points="-16,-512 -72,-512 -72,-528 -16,-528" /><polygon points="-16,-528 -16,-528 -16,-512 -16,-512 -16,-528" /><polygon points="-16,-544 -16,-528 -80,-528 -80,-544" /><polygon points="-80,-544 -16,-544 -16,-560 -88,-560 -88,-544" /><polygon points="-88,-544 -88,-560 -88,-560 -88,-544" /><polygon points="-16,-560 -16,-560 -88,-560 -88,-560" /><polygon points="-16,-528 -16,-528 -72,-528 -80,-528 -80,-528" /><polygon points="-288,-784 -373.7369,-784 -288,-784" /><polygon points="-288,-656 -512,-656 -512,-672 -512,-784 -373.7369,-784 -288,-784" /><polygon points="-16,-544 -16,-544 -16,-528 -16,-528 -16,-544" /><polygon points="-16,-576 -16,-576 -96,-576 -96,-576" /><polygon points="-96,-560 -96,-576 -96,-576 -96,-560" /><polygon points="-16,-544 -16,-544 -80,-544 -88,-544 -88,-544" /><polygon points="-88,-560 -16,-560 -16,-576 -96,-576 -96,-560" /><polygon points="-16,-560 -16,-544 -88,-544 -88,-560" /><polygon points="-312,-80 -192,-80 -192,-80 -312,-80" /><polygon points="-16,-560 -16,-560 -16,-544 -16,-544 -16,-560" /><polygon points="-96,-576 -16,-576 -16,-592 -104,-592 -104,-576" /><polygon points="-16,-592 -16,-592 -104,-592 -104,-592" /><polygon points="-104,-576 -104,-592 -104,-592 -104,-576" /><polygon points="-16,-576 -16,-560 -96,-560 -96,-576" /><polygon points="-16,-560 -16,-560 -88,-560 -96,-560 -96,-560" /><polygon points="-760,-528 -760,-408 -760,-304 -760,-304 -760,-368 -760,-384 -760,-528" /><polygon points="-16,-576 -16,-576 -16,-560 -16,-560 -16,-576" /><polygon points="-373.7369,-784 -512,-784 -512,-784 -288,-784 -288,-784" /><polygon points="-152,-784 -152,-784 -225.2236,-784 -288,-784 -288,-784" /><polygon points="-16,-576 -16,-576 -96,-576 -104,-576 -104,-576" /><polygon points="-112,-592 -112,-608 -112,-608 -112,-592" /><polygon points="-16,-608 -16,-608 -112,-608 -112,-608" /><polygon points="-104,-592 -16,-592 -16,-608 -112,-608 -112,-592" /><polygon points="-16,-592 -16,-576 -104,-576 -104,-592" /><polygon points="-16,-592 -16,-592 -16,-576 -16,-576 -16,-592" /><polygon points="-120,-608 -120,-624 -120,-624 -120,-608" /><polygon points="-16,-608 -16,-592 -112,-592 -112,-608" /><polygon points="-112,-608 -16,-608 -16,-624 -120,-624 -120,-608" /><polygon points="-16,-592 -16,-592 -104,-592 -112,-592 -112,-592" /><polygon points="-16,-608 -16,-608 -16,-592 -16,-592 -16,-608" /><polygon points="-16,-656 -16,-656 -16,-640 -16,-640" /><polygon points="-128,-624 -128,-640 -128,-640 -128,-624" /><polygon points="-120,-624 -120,-624 -16,-624 -16,-624" /><polygon points="-120,-624 -128,-624 -128,-624 -16,-624 -16,-624" /><polygon points="-128,-640 -128,-624 -120,-624 -16,-624 -16,-640" /><polygon points="-16,-640 -16,-640 -128,-640 -128,-640" /><polygon points="-16,-608 -16,-608 -112,-608 -120,-608 -120,-608" /><polygon points="-120,-608 -120,-624 -16,-624 -16,-608" /><polygon points="-192,-80 -192,-80 -192,-184 -192,-184" /><polygon points="-192,-184 -192,-184 -192,-80 -192,-80" /><polygon points="-192,-184 -192,-184 -192,-184 -152,-184" /><polygon points="-192,-184 -192,-80 -312,-80 -400,-80 -400,-184" /><polygon points="-760,-616 -760,-616 -760,-616 -760,-656" /><polygon points="-760,-616 -760,-616 -656,-616 -656,-616" /><polygon points="-656,-616 -656,-616 -760,-616 -760,-616" /><polygon points="-760,-616 -760,-656 -656,-656 -656,-616" /><polygon points="-16,-624 -16,-624 -16,-608 -16,-608 -16,-624" /><polygon points="-32,-656 -32,-656 -136,-656 -136,-656" /><polygon points="-32,-656 -16,-656 -16,-656 -16,-656 -32,-656" /><polygon points="-136,-656 -136,-656 -136,-672 -136,-672 -136,-656" /><polygon points="-16,-640 -16,-624 -128,-624 -128,-640" /><polygon points="-128,-640 -16,-640 -16,-656 -32,-656 -136,-656 -136,-640" /><polygon points="-760,-616 -760,-616 -760,-528 -760,-528" /><polygon points="-760,-184 -760,-184 -760,-200 -760,-200" /><polygon points="-656,-80 -656,-80 -656,-80 -656,-80 -760,-80 -760,-80" /><polygon points="-536,-80 -640,-80 -656,-80 -760,-80 -760,-80 -536,-80" /><polygon points="-312,-80 -192,-80 -192,-80 -312,-80 -384,-80 -384,-80 -384,-80 -384,-80" /><polygon points="-760,-200 -760,-304 -760,-368 -760,-384 -760,-528 -760,-616 -656,-616 -656,-504 -656,-408 -656,-384 -656,-368 -656,-200 -656,-184 -760,-184" /><polygon points="-656,-200 -656,-368 -656,-384 -656,-408 -656,-504 -656,-616 -760,-616 -760,-528 -760,-384 -760,-368 -760,-304 -760,-200 -760,-184 -656,-184" /><polygon points="-656,-80 -640,-80 -536,-80 -528,-80 -512,-80 -400,-80 -384,-80 -312,-80 -192,-80 -192,-184 -304,-184 -384,-184 -400,-184 -432,-184 -512,-184 -528,-184 -640,-184 -656,-184 -760,-184 -760,-80" /><polygon points="-656,-184 -640,-184 -528,-184 -512,-184 -432,-184 -400,-184 -384,-184 -304,-184 -192,-184 -192,-80 -312,-80 -384,-80 -400,-80 -512,-80 -528,-80 -536,-80 -640,-80 -656,-80 -760,-80 -760,-184" /><polygon points="-656,-616 -656,-616 -656,-504 -656,-504" /><polygon points="-640,-200 -640,-200 -640,-368 -640,-384 -640,-424 -640,-424" /><polygon points="-432,-184 -512,-184 -512,-184 -512,-184 -400,-184 -400,-184 -400,-184" /><polygon points="-656,-184 -656,-184 -640,-184 -640,-184" /><polygon points="-656,-200 -656,-200 -656,-184 -656,-184" /><polygon points="-640,-200 -640,-200 -486.7717,-200 -416,-200 -416,-200" /><polygon points="-400,-184 -384,-184 -304,-184 -192,-184 -192,-184 -400,-184 -432,-184 -432,-184" /><polygon points="-16,-784 -16,-768 -16,-672 -16,-672 -16,-784" /><polygon points="-136,-784 -16,-784 -16,-784 -32,-784 -72,-784 -136,-784" /><polygon points="-152,-656 -136,-656 -136,-656 -136,-656 -152,-656" /><polygon points="-152,-672 -152,-768 -152,-784 -152,-784 -152,-768 -152,-672 -152,-656 -152,-656" /><polygon points="-16,-768 -16,-784 -136,-784 -136,-768" /><polygon points="-136,-672 -32,-672 -16,-672 -16,-768 -136,-768 -152,-768 -152,-672" /><polygon points="-32,-656 -32,-672 -136,-672 -136,-656" /><polygon points="-136,-768 -136,-784 -136,-784 -136,-768" /><polygon points="-32,-672 -32,-656 -32,-656 -32,-656 -32,-672" /><polygon points="-16,-672 -32,-672 -32,-672 -16,-672" /><polygon points="-152,-768 -136,-768 -136,-768 -152,-768" /><polygon points="-136,-672 -152,-672 -152,-672 -136,-672" /><polygon points="-136,-656 -136,-656 -136,-640 -136,-640 -136,-656" /><polygon points="-760,-384 -760,-384 -760,-368 -760,-368" /><polygon points="-760,-200 -760,-200 -760,-200 -760,-208 -760,-368 -760,-368 -760,-368 -760,-368 -760,-304 -760,-200" /><polygon points="-656,-80 -656,-80 -640,-80 -640,-80" /><polygon points="-528,-80 -528,-80 -528,-80 -536,-80 -640,-80 -640,-80 -640,-80 -640,-80 -536,-80 -528,-80" /><polygon points="-528,-80 -528,-80 -512,-80 -512,-80" /><polygon points="-400,-80 -400,-80 -400,-80 -512,-80 -512,-80 -512,-80 -512,-80 -400,-80" /><polygon points="-400,-80 -400,-80 -384,-80 -384,-80" /><polygon points="-736,-200 -656,-200 -656,-200 -664,-200 -680,-200 -688,-200 -704,-200 -712,-200 -728,-200 -736,-200 -752,-200 -752,-200" /><polygon points="-656,-368 -656,-368 -656,-368 -656,-200 -656,-200 -656,-200 -656,-200 -656,-368" /><polygon points="-656,-368 -656,-368 -656,-384 -656,-384" /><polygon points="-656,-368 -656,-384 -752,-384 -752,-368" /><polygon points="-752,-384 -656,-384 -656,-384 -664,-384 -680,-384 -688,-384 -704,-384 -712,-384 -728,-384 -736,-384 -752,-384" /><polygon points="-528,-184 -528,-184 -528,-176 -528,-160 -528,-152 -528,-136 -528,-128 -528,-112 -528,-104 -528,-88 -528,-80 -528,-80" /><polygon points="-384,-184 -384,-184 -400,-184 -400,-184" /><polygon points="-384,-184 -400,-184 -400,-80 -384,-80" /><polygon points="-512,-80 -512,-80 -512,-88 -512,-104 -512,-112 -512,-128 -512,-136 -512,-152 -512,-160 -512,-176 -512,-184 -512,-184" /><polygon points="-512,-184 -512,-184 -528,-184 -528,-184" /><polygon points="-512,-184 -528,-184 -528,-80 -512,-80" /><polygon points="-640,-80 -640,-80 -640,-88 -640,-104 -640,-112 -640,-128 -640,-136 -640,-152 -640,-160 -640,-176 -640,-184 -640,-184" /><polygon points="-656,-184 -656,-200 -736,-200 -736,-184" /><polygon points="-656,-184 -656,-184 -656,-176 -656,-160 -656,-152 -656,-136 -656,-128 -656,-112 -656,-104 -656,-88 -656,-80 -656,-80" /><polygon points="-640,-184 -656,-184 -656,-80 -640,-80" /><polygon points="-736,-200 -752,-200 -752,-184 -736,-184" /><polygon points="-752,-368 -760,-368 -760,-368 -752,-368" /><polygon points="-752,-384 -760,-384 -760,-368 -752,-368" /><polygon points="-760,-184 -760,-184 -752,-184 -752,-184" /><polygon points="-752,-200 -760,-200 -760,-184 -752,-184" /><polygon points="-16,-640 -16,-640 -16,-624 -16,-624 -16,-640" /><polygon points="-136,-656 -136,-656 -152,-656 -152,-656 -136,-656" /><polygon points="-16,-640 -16,-640 -128,-640 -136,-640 -136,-640" /><polygon points="-16,-656 -16,-640 -136,-640 -136,-656" /><polygon points="-760,-184 -760,-184 -760,-200 -760,-200" /><polygon points="-304,-128 -304,-112 -304,-112 -304,-128" /><polygon points="-304,-176 -304,-160 -304,-160 -304,-176" /><polygon points="-304,-152 -304,-136 -304,-136 -304,-152" /><polygon points="-304,-104 -304,-88 -304,-88 -304,-104" /><polygon points="-304,-184 -304,-184 -288,-184 -192,-184 -192,-184 -304,-184" /><polygon points="-752,-504 -736,-504 -736,-504 -752,-504" /><polygon points="-704,-504 -688,-504 -688,-504 -704,-504" /><polygon points="-680,-504 -664,-504 -664,-504 -680,-504" /><polygon points="-728,-504 -712,-504 -712,-504 -728,-504" /><polygon points="-752,-368 -752,-384 -752,-504 -752,-504 -752,-312 -752,-312" /><polygon points="-752,-368 -752,-312 -752,-200 -736,-200 -736,-368" /><polygon points="-728,-368 -728,-200 -712,-200 -712,-368" /><polygon points="-704,-368 -704,-200 -688,-200 -688,-368" /><polygon points="-680,-368 -680,-200 -664,-200 -664,-368" /><polygon points="-728,-368 -736,-368 -736,-384 -728,-384" /><polygon points="-704,-368 -712,-368 -712,-384 -704,-384" /><polygon points="-680,-368 -688,-368 -688,-384 -680,-384" /><polygon points="-656,-368 -664,-368 -664,-384 -656,-384" /><polygon points="-736,-424 -736,-504 -752,-504 -752,-384 -736,-384" /><polygon points="-712,-424 -712,-504 -728,-504 -728,-424 -728,-384 -712,-384" /><polygon points="-688,-424 -688,-504 -704,-504 -704,-424 -704,-384 -688,-384" /><polygon points="-664,-424 -664,-504 -680,-504 -680,-424 -680,-384 -664,-384" /><polygon points="-704,-504 -704,-504 -704,-424 -704,-424" /><polygon points="-664,-424 -664,-384 -664,-368 -664,-200 -664,-200 -664,-280 -664,-424" /><polygon points="-680,-504 -680,-504 -680,-424 -680,-424" /><polygon points="-688,-424 -688,-384 -688,-368 -688,-200 -688,-200 -688,-280 -688,-424" /><polygon points="-712,-424 -712,-384 -712,-368 -712,-200 -712,-200 -712,-280 -712,-424" /><polygon points="-728,-504 -728,-504 -728,-424 -728,-424" /><polygon points="-736,-424 -736,-384 -736,-368 -736,-200 -736,-200 -736,-280 -736,-424" /><polygon points="-736,-368 -728,-368 -712,-368 -704,-368 -688,-368 -680,-368 -664,-368 -656,-368 -656,-368 -752,-368 -752,-368" /><polygon points="-736,-200 -736,-184 -736,-104 -736,-104 -736,-200" /><polygon points="-304,-176 -384,-176 -384,-160 -304,-160" /><polygon points="-304,-152 -384,-152 -384,-136 -304,-136" /><polygon points="-400,-176 -400,-184 -384,-184 -384,-176" /><polygon points="-384,-160 -384,-152 -400,-152 -400,-160" /><polygon points="-304,-128 -384,-128 -384,-112 -304,-112" /><polygon points="-304,-104 -384,-104 -384,-88 -304,-88" /><polygon points="-400,-128 -400,-136 -384,-136 -384,-128" /><polygon points="-384,-112 -384,-104 -400,-104 -400,-112" /><polygon points="-400,-80 -400,-88 -384,-88 -384,-80" /><polygon points="-400,-176 -440,-176 -512,-176 -512,-160 -456,-160 -400,-160" /><polygon points="-400,-152 -464,-152 -512,-152 -512,-136 -480,-136 -400,-136" /><polygon points="-400,-128 -488,-128 -512,-128 -512,-112 -504,-112 -400,-112" /><polygon points="-400,-104 -512,-104 -512,-88 -400,-88" /><polygon points="-528,-176 -528,-184 -512,-184 -512,-176" /><polygon points="-528,-152 -528,-160 -512,-160 -512,-152" /><polygon points="-528,-128 -528,-136 -512,-136 -512,-128" /><polygon points="-528,-104 -528,-112 -512,-112 -512,-104" /><polygon points="-528,-176 -640,-176 -640,-160 -528,-160" /><polygon points="-528,-152 -640,-152 -640,-136 -528,-136" /><polygon points="-528,-128 -640,-128 -640,-112 -528,-112" /><polygon points="-528,-104 -640,-104 -640,-88 -528,-88" /><polygon points="-512,-80 -528,-80 -528,-88 -512,-88" /><polygon points="-656,-184 -664,-184 -664,-200 -656,-200" /><polygon points="-680,-184 -688,-184 -688,-200 -680,-200" /><polygon points="-704,-184 -712,-184 -712,-200 -704,-200" /><polygon points="-728,-184 -736,-184 -736,-200 -728,-200" /><polygon points="-656,-176 -656,-184 -640,-184 -640,-176" /><polygon points="-664,-160 -656,-160 -656,-176 -664,-176" /><polygon points="-656,-152 -656,-160 -640,-160 -640,-152" /><polygon points="-656,-136 -656,-152 -688,-152 -688,-136" /><polygon points="-680,-160 -664,-160 -664,-176 -664,-184 -680,-184" /><polygon points="-656,-128 -656,-136 -640,-136 -640,-128" /><polygon points="-656,-112 -656,-128 -712,-128 -712,-112" /><polygon points="-656,-104 -656,-112 -640,-112 -640,-104" /><polygon points="-656,-88 -656,-104 -736,-104 -736,-88" /><polygon points="-688,-152 -688,-184 -704,-184 -704,-136 -688,-136" /><polygon points="-712,-128 -712,-184 -728,-184 -728,-112 -712,-112" /><polygon points="-640,-80 -656,-80 -656,-88 -640,-88" /><polygon points="-504,-112 -512,-112 -528,-112 -640,-112 -656,-112 -712,-112 -728,-112 -728,-112 -504,-112" /><polygon points="-712,-200 -712,-184 -712,-128 -712,-128 -712,-200" /><polygon points="-480,-136 -512,-136 -528,-136 -640,-136 -656,-136 -688,-136 -704,-136 -704,-136 -480,-136" /><polygon points="-688,-200 -688,-184 -688,-152 -688,-152 -688,-200" /><polygon points="-456,-160 -512,-160 -528,-160 -640,-160 -656,-160 -664,-160 -680,-160 -680,-160 -664,-160 -456,-160" /><polygon points="-664,-200 -664,-184 -664,-176 -664,-176 -664,-200" /><polygon points="-512,-184 -512,-184 -400,-184 -400,-184" /><polygon points="-656,-184 -656,-184 -640,-184 -640,-184" /><polygon points="-656,-200 -656,-200 -656,-184 -656,-184" /><polygon points="-400,-176 -384,-176 -304,-176 -304,-176 -440,-176 -440,-176" /><polygon points="-400,-152 -384,-152 -304,-152 -304,-152 -464,-152 -464,-152" /><polygon points="-400,-128 -384,-128 -304,-128 -304,-128 -488,-128 -488,-128" /><polygon points="-400,-104 -384,-104 -304,-104 -304,-104 -512,-104 -512,-104" /><polygon points="-512,-88 -528,-88 -640,-88 -656,-88 -736,-88 -736,-88 -512,-88" /><polygon points="-400,-176 -400,-160 -400,-152 -400,-136 -400,-128 -400,-112 -400,-104 -400,-88 -400,-80 -400,-80 -400,-184 -400,-184" /><polygon points="-384,-88 -384,-104 -384,-112 -384,-128 -384,-136 -384,-152 -384,-160 -384,-176 -384,-184 -384,-184 -384,-80 -384,-80" /><polygon points="-304,-184 -304,-184 -384,-184 -384,-184 -384,-184" /><polygon points="-528,-184 -528,-184 -528,-184 -640,-184 -640,-184 -640,-184" /><polygon points="-736,-184 -728,-184 -712,-184 -704,-184 -688,-184 -680,-184 -664,-184 -656,-184 -656,-184 -736,-184" /><polygon points="-752,-184 -736,-184 -736,-184 -752,-184" /><polygon points="-736,-88 -752,-88 -752,-88 -736,-88" /><polygon points="-736,-104 -736,-184 -752,-184 -752,-88 -736,-88" /><polygon points="-760,-384 -760,-384 -752,-384 -752,-384" /><polygon points="-752,-368 -760,-368 -760,-384 -752,-384" /><polygon points="-752,-200 -760,-200 -760,-200 -752,-200" /><polygon points="-752,-184 -760,-184 -760,-200 -752,-200" /><polygon points="-776,-288 -776,-208 -776,-64 -776,-64 -776,-208 -776,-288" /><polygon points="-776,-512 -776,-432 -776,-288 -776,-288 -776,-432 -776,-512" /><polygon points="-776,-736 -776,-656 -776,-512 -776,-512 -776,-656 -776,-736" /><polygon points="-16,-384 -16,-384 -16,-384 -16,-288 -16,-288" /><polygon points="-16,-656 -16,-656 -16,-640 -16,-640 -16,-656" /><polygon points="-16,-64 -16,-64 -104,-64 -104,-64" /><polygon points="-552,-784 -640,-784 -656,-784 -776,-784 -776,-784 -656,-784 -640,-784 -552,-784" /><polygon points="-112,-784 -112,-784 -56,-784 -56,-784" /><polygon points="-640,-656 -656,-656 -656,-656 -640,-656" /><polygon points="-32,-656 -16,-656 -16,-656 -136,-656 -136,-656" /><polygon points="-512,-784 -512,-784 -512,-672 -512,-672" /><polygon points="-32,-768 -40,-768 -40,-784 -16,-784 -16,-768" /><polygon points="-136,-784 -128,-784 -128,-768 -136,-768" /><polygon points="-112,-784 -56,-784 -56,-768 -112,-768" /><polygon points="-32,-672 -32,-768 -16,-768 -16,-672" /><polygon points="-152,-672 -152,-768 -136,-768 -136,-672" /><polygon points="-32,-672 -32,-656 -136,-656 -136,-672 -136,-768 -128,-768 -112,-768 -56,-768 -40,-768 -32,-768" /><polygon points="-56,-768 -56,-784 -56,-784 -56,-768" /><polygon points="-40,-768 -56,-768 -56,-768 -40,-768" /><polygon points="-40,-784 -40,-768 -40,-768 -40,-784" /><polygon points="-56,-768 -112,-768 -112,-768 -56,-768" /><polygon points="-112,-784 -112,-768 -112,-768 -112,-784" /><polygon points="-640,-672 -640,-656 -640,-656 -640,-672" /><polygon points="-528,-672 -528,-656 -640,-656 -640,-672 -640,-784 -552,-784 -528,-784" /><polygon points="-528,-672 -528,-784 -512,-784 -512,-672" /><polygon points="-528,-672 -512,-672 -512,-672 -512,-672 -528,-672" /><polygon points="-656,-672 -656,-784 -640,-784 -640,-672" /><polygon points="-760,-656 -776,-656 -776,-736 -776,-784 -656,-784 -656,-672 -656,-656" /><polygon points="-656,-672 -640,-672 -640,-672 -656,-672" /><polygon points="-152,-184 -152,-200 -152,-200 -152,-184" /><polygon points="-152,-368 -152,-384 -152,-384 -152,-384 -152,-368" /><polygon points="-152,-184 -152,-184 -136,-184 -136,-184" /><polygon points="-152,-200 -152,-368 -136,-368 -136,-200" /><polygon points="-136,-184 -136,-200 -136,-368 -136,-384 -16,-384 -16,-288 -16,-184" /><polygon points="-136,-368 -152,-368 -152,-368 -136,-368" /><polygon points="-136,-184 -16,-184 -16,-64 -104,-64 -152,-64 -152,-80 -152,-184" /><polygon points="-640,-200 -656,-200 -656,-368 -640,-368" /><polygon points="-528,-184 -640,-184 -640,-200 -528,-200" /><polygon points="-752,-312 -752,-504 -736,-504 -736,-424 -736,-280 -752,-280" /><polygon points="-736,-280 -736,-200 -736,-104 -736,-88 -752,-88 -752,-280" /><polygon points="-680,-424 -680,-504 -664,-504 -664,-424 -664,-280 -680,-280" /><polygon points="-664,-280 -664,-200 -664,-176 -664,-160 -680,-160 -680,-200 -680,-280" /><polygon points="-728,-424 -728,-504 -712,-504 -712,-424 -712,-280 -728,-280" /><polygon points="-712,-280 -712,-200 -712,-128 -728,-128 -728,-200 -728,-280" /><polygon points="-704,-424 -704,-504 -688,-504 -688,-424 -688,-280 -704,-280" /><polygon points="-688,-280 -688,-200 -688,-152 -704,-152 -704,-200 -704,-280" /><polygon points="-776,-512 -776,-656 -760,-656 -760,-616 -760,-432 -776,-432" /><polygon points="-760,-432 -760,-384 -760,-368 -760,-208 -776,-208 -776,-288 -776,-432" /><polygon points="-760,-208 -760,-200 -760,-184 -760,-80 -760,-64 -776,-64 -776,-208" /><polygon points="-656,-504 -656,-616 -656,-656 -640,-656 -640,-616 -640,-504 -640,-432 -656,-432" /><polygon points="-640,-432 -640,-424 -640,-384 -656,-384 -656,-432" /><polygon points="-504,-112 -728,-112 -728,-128 -712,-128 -504,-128" /><polygon points="-488,-128 -304,-128 -304,-112 -504,-112 -504,-128" /><polygon points="-440,-160 -456,-160 -664,-160 -664,-176 -440,-176" /><polygon points="-304,-176 -304,-160 -440,-160 -440,-176" /><polygon points="-480,-136 -704,-136 -704,-152 -688,-152 -480,-152" /><polygon points="-464,-152 -304,-152 -304,-136 -480,-136 -480,-152" /><polygon points="-512,-88 -736,-88 -736,-104 -512,-104" /><polygon points="-304,-104 -304,-88 -512,-88 -512,-104" /><polygon points="-536,-64 -552,-64 -760,-64 -760,-80 -656,-80 -640,-80 -536,-80" /><polygon points="-312,-64 -328,-64 -536,-64 -536,-80 -528,-80 -512,-80 -400,-80 -384,-80 -312,-80" /><polygon points="-192,-80 -152,-80 -152,-64 -312,-64 -312,-80" /><polygon points="-288,-184 -304,-184 -384,-184 -400,-184 -512,-184 -512,-200 -416,-200 -304,-200 -288,-200" /><polygon points="-192,-200 -152,-200 -152,-184 -192,-184 -288,-184 -288,-200" /><polygon points="-512,-200 -512,-184 -512,-184 -512,-200" /><polygon points="-640,-368 -656,-368 -656,-368 -640,-368" /><polygon points="-640,-384 -640,-368 -640,-368 -640,-384" /><polygon points="-656,-384 -640,-384 -640,-384 -656,-384" /><polygon points="-656,-368 -656,-384 -656,-384 -656,-368" /><polygon points="-528,-200 -512,-200 -512,-200 -528,-200" /><polygon points="-656,-200 -640,-200 -640,-200 -656,-200" /><polygon points="-640,-200 -640,-184 -640,-184 -640,-200" /><polygon points="-512,-184 -528,-184 -528,-184 -512,-184" /><polygon points="-528,-184 -528,-200 -528,-200 -528,-184" /><polygon points="-656,-184 -656,-200 -656,-200 -656,-184" /><polygon points="-640,-184 -656,-184 -656,-184 -640,-184" /><polygon points="-760,-432 -760,-616 -760,-616 -760,-528 -760,-384 -760,-384 -760,-384 -760,-384" /><polygon points="-760,-368 -760,-384 -760,-384 -760,-368" /><polygon points="-760,-184 -760,-184 -760,-184 -760,-184 -760,-80 -760,-80" /><polygon points="-640,-80 -656,-80 -656,-80 -640,-80" /><polygon points="-512,-80 -528,-80 -528,-80 -512,-80" /><polygon points="-384,-80 -400,-80 -400,-80 -384,-80" /><polygon points="-152,-80 -192,-80 -192,-80 -192,-80" /><polygon points="-152,-80 -192,-80 -192,-184 -152,-184" /><polygon points="-640,-656 -640,-656 -640,-616 -640,-616 -640,-616" /><polygon points="-656,-656 -656,-616 -656,-616 -656,-616" /><polygon points="-192,-200 -288,-200 -304,-200 -304,-200 -192,-200" /><polygon points="-640,-504 -640,-616 -640,-616 -640,-504" /><polygon points="-752,-312 -752,-280 -752,-88 -752,-88 -752,-184 -752,-200 -752,-312" /><polygon points="-416,-200 -512,-200 -528,-200 -640,-200 -640,-200 -416,-200" /><polygon points="-304,-200 -416,-200 -416,-200 -304,-200" /><polygon points="-640,-424 -640,-432 -640,-504 -640,-504 -640,-424" /><polygon points="-656,-384 -656,-368 -656,-368 -656,-384" /><polygon points="-656,-504 -656,-432 -656,-384 -656,-384 -656,-384 -656,-384 -656,-408 -656,-504" /><polygon points="-704,-424 -704,-280 -704,-200 -704,-200 -704,-368 -704,-384 -704,-424" /><polygon points="-664,-504 -664,-504 -664,-424 -664,-424" /><polygon points="-680,-424 -680,-280 -680,-200 -680,-200 -680,-368 -680,-384 -680,-424" /><polygon points="-688,-504 -688,-504 -688,-424 -688,-424" /><polygon points="-712,-504 -712,-504 -712,-424 -712,-424" /><polygon points="-728,-424 -728,-280 -728,-200 -728,-200 -728,-368 -728,-384 -728,-424" /><polygon points="-736,-504 -736,-504 -736,-424 -736,-424" /><polygon points="-304,-112 -304,-112 -384,-112 -400,-112 -504,-112 -504,-112" /><polygon points="-304,-136 -304,-136 -384,-136 -400,-136 -480,-136 -480,-136" /><polygon points="-440,-160 -304,-160 -304,-160 -384,-160 -400,-160 -456,-160 -456,-160" /><polygon points="-384,-184 -304,-184 -304,-184 -384,-184" /><polygon points="-384,-184 -384,-184 -400,-184 -400,-184" /><polygon points="-528,-184 -512,-184 -512,-184 -528,-184" /><polygon points="-640,-184 -528,-184 -528,-184 -640,-184" /><polygon points="-440,-176 -664,-176 -664,-176 -656,-176 -640,-176 -528,-176 -512,-176 -440,-176" /><polygon points="-680,-200 -680,-160 -680,-160 -680,-184 -680,-200" /><polygon points="-464,-152 -480,-152 -688,-152 -688,-152 -656,-152 -640,-152 -528,-152 -512,-152 -464,-152" /><polygon points="-704,-200 -704,-152 -704,-136 -704,-136 -704,-184 -704,-200" /><polygon points="-488,-128 -504,-128 -712,-128 -712,-128 -656,-128 -640,-128 -528,-128 -512,-128 -488,-128" /><polygon points="-728,-200 -728,-128 -728,-112 -728,-112 -728,-184 -728,-200" /><polygon points="-512,-104 -736,-104 -736,-104 -656,-104 -640,-104 -528,-104 -512,-104" /><polygon points="-304,-88 -304,-88 -384,-88 -400,-88 -512,-88 -512,-88" /><polygon points="-112,-784 -112,-768 -56,-768 -56,-784" /><polygon points="-56,-784 -56,-768 -56,-768 -56,-784" /><polygon points="-112,-768 -112,-784 -112,-784 -112,-768" /><polygon points="-112,-784 -56,-784 -56,-784 -112,-784" /><polygon points="-56,-768 -112,-768 -112,-768 -56,-768" /><polygon points="-512,-656 -512,-656 -512,-656 -512,-672 -512,-672" /><polygon points="-152,-432 -152,-384 -16,-384 -16,-432" /><polygon points="-136,-384 -136,-384 -152,-384 -152,-384" /><polygon points="-136,-384 -136,-384 -136,-368 -136,-368 -136,-384" /><polygon points="-16,-432 -16,-384 -136,-384 -136,-432" /><polygon points="-136,-432 -136,-384 -152,-384 -152,-432" /><polygon points="-512,-656 -512,-656 -512,-656 -528,-656 -528,-656" /><polygon points="-528,-656 -528,-656 -528,-672 -528,-672 -528,-656" /><polygon points="-16,-512 -16,-528 -16,-544 -16,-560 -16,-576 -16,-592 -16,-608 -16,-624 -16,-640 -16,-656 -32,-656 -136,-656 -152,-656 -152,-608 -152,-432 -16,-432" /><polygon points="-16,-784 -16,-784 -16,-672 -16,-672 -16,-768 -16,-784" /><polygon points="-39.7816,-784 -16,-784 -16,-784 -40,-784 -40,-784" /><polygon points="-128,-784 -128,-768 -128,-768 -128,-784" /><polygon points="-112,-768 -56,-768 -56,-784 -112,-784" /><polygon points="-128,-768 -128,-784 -127.7876,-784 -127.7876,-768" /><polygon points="-40,-768 -39.7816,-768 -39.7816,-784 -40,-784" /><polygon points="-39.7816,-768 -40,-768 -56,-768 -112,-768 -127.7876,-768 -118.5503,-768 -49.0192,-768" /><polygon points="-127.7876,-768 -127.7876,-784 -118.55,-784 -118.5503,-768" /><polygon points="-128,-768 -127.7876,-768 -112,-768 -112,-768 -128,-768" /><polygon points="-56,-768 -112,-768 -112,-768 -56,-768" /><polygon points="-112,-768 -112,-784 -56,-784 -56,-768" /><polygon points="-16,-384 -16,-384 -16,-432 -16,-604.1905" /><polygon points="-136,-608 -136,-432 -136,-384 -136,-384 -136,-432 -136,-608" /><polygon points="-136,-608 -136,-656 -32,-656 -16,-656 -16,-608 -16,-604.1905 -16,-432 -136,-432" /><polygon points="-118.55,-784 -127.7876,-784 -128,-784 -128,-784 -113.9312,-784" /><polygon points="-49.0192,-784 -49.0192,-768 -118.5503,-768 -118.55,-784" /><polygon points="-49.0192,-768 -49.0192,-784 -39.7816,-784 -39.7816,-768" /><polygon points="-776,-784 -776,-784 -776,-736 -776,-736" /><polygon points="-16,-288 -16,-160 -16,-64 -16,-64 -16,-184 -16,-288" /><polygon points="-552,-64 -640,-64 -656,-64 -776,-64 -776,-64 -760,-64 -552,-64" /><polygon points="-328,-64 -512,-64 -528,-64 -552,-64 -552,-64 -536,-64 -328,-64" /><polygon points="-104,-64 -136,-64 -152,-64 -288,-64 -328,-64 -328,-64 -312,-64 -152,-64 -104,-64" /><polygon points="-528,-784 -512,-784 -512,-784 -512,-784 -528,-784 -552,-784 -552,-784" /><polygon points="-152,-784 -152,-784 -152,-784 -152,-784 -288,-784 -288,-784" /><polygon points="-136,-784 -128,-784 -128,-784 -128,-784 -136,-784" /><polygon points="-53.638,-784 -49.0192,-784 -118.55,-784 -113.9312,-784" /><polygon points="-32,-784 -16,-784 -16,-784 -39.7816,-784 -49.0192,-784 -53.638,-784" /><polygon points="-528,-656 -528,-656 -512,-656 -512,-656 -512,-656 -512,-656 -528,-656" /><polygon points="-152,-656 -136,-656 -136,-656 -152,-656" /><polygon points="-288,-656 -352,-656 -352,-656 -336,-656 -272,-656 -152,-656 -152,-656" /><polygon points="-32,-656 -16,-656 -16,-656 -32,-656" /><polygon points="-16,-784 -32,-784 -32,-672 -16,-672" /><polygon points="-32,-672 -32,-784 -53.638,-784 -113.9312,-784 -128,-784 -136,-784 -136,-768 -136,-672 -136,-656 -32,-656" /><polygon points="-152,-768 -152,-672 -136,-672 -136,-768" /><polygon points="-288,-784 -512,-784 -512,-672 -512,-656 -376,-656 -352,-656 -288,-656" /><polygon points="-152,-656 -152,-672 -152,-768 -152,-784 -288,-784 -288,-656" /><polygon points="-640,-784 -656,-784 -656,-672 -640,-672" /><polygon points="-512,-784 -528,-784 -528,-672 -512,-672" /><polygon points="-528,-672 -528,-784 -552,-784 -640,-784 -640,-672 -640,-656 -528,-656" /><polygon points="-656,-672 -656,-784 -776,-784 -776,-736 -776,-656 -656,-656" /><polygon points="-152,-784 -152,-768 -152,-768 -152,-784" /><polygon points="-152,-672 -152,-656 -152,-656 -152,-672" /><polygon points="-16,-672 -32,-672 -32,-672 -16,-672" /><polygon points="-32,-672 -32,-656 -32,-656 -32,-672" /><polygon points="-136,-672 -152,-672 -152,-672 -136,-672" /><polygon points="-152,-768 -136,-768 -136,-768 -152,-768" /><polygon points="-136,-768 -136,-784 -136,-784 -136,-768" /><polygon points="-136,-656 -136,-672 -136,-672 -136,-656" /><polygon points="-656,-672 -656,-656 -656,-656 -656,-672" /><polygon points="-152,-200 -152,-368 -152,-368 -152,-200" /><polygon points="-152,-656 -152,-656 -152,-656 -152,-608 -152,-608" /><polygon points="-136,-384 -16,-384 -16,-384 -136,-384 -152,-384 -152,-384" /><polygon points="-16,-160 -16,-288 -16,-384 -136,-384 -136,-368 -136,-200 -136,-184 -136,-160" /><polygon points="-136,-64 -104,-64 -16,-64 -16,-160 -136,-160" /><polygon points="-152,-368 -152,-200 -136,-200 -136,-368" /><polygon points="-152,-184 -152,-64 -136,-64 -136,-160 -136,-184" /><polygon points="-136,-200 -152,-200 -152,-200 -136,-200" /><polygon points="-136,-184 -136,-200 -136,-200 -136,-184" /><polygon points="-656,-184 -656,-64 -640,-64 -640,-184" /><polygon points="-656,-368 -656,-208 -656,-200 -640,-200 -640,-368" /><polygon points="-528,-184 -528,-64 -512,-64 -512,-184" /><polygon points="-528,-184 -528,-200 -640,-200 -640,-184 -640,-64 -552,-64 -528,-64" /><polygon points="-776,-656 -776,-512 -776,-432 -656,-432 -656,-656" /><polygon points="-776,-432 -776,-288 -776,-208 -656,-208 -656,-368 -656,-384 -656,-432" /><polygon points="-776,-208 -776,-64 -656,-64 -656,-184 -656,-200 -656,-208" /><polygon points="-640,-432 -640,-608 -640,-656 -656,-656 -656,-432" /><polygon points="-656,-384 -640,-384 -640,-432 -656,-432" /><polygon points="-416,-384 -640,-384 -640,-368 -416,-368" /><polygon points="-192,-384 -352,-384 -376,-384 -416,-384 -416,-368 -192,-368" /><polygon points="-152,-368 -152,-384 -192,-384 -192,-368" /><polygon points="-288,-200 -416,-200 -512,-200 -512,-184 -512,-64 -328,-64 -288,-64" /><polygon points="-152,-64 -152,-184 -152,-200 -192,-200 -288,-200 -288,-64" /><polygon points="-352,-432 -352,-608 -352,-656 -376,-656 -376,-608 -376,-432" /><polygon points="-376,-384 -352,-384 -352,-432 -376,-432" /><polygon points="-376,-384 -376,-384 -416,-384 -416,-384" /><polygon points="-376,-656 -376,-656 -376,-608 -376,-608" /><polygon points="-352,-608 -352,-432 -352,-384 -352,-384 -352,-432 -352,-608" /><polygon points="-640,-608 -640,-432 -640,-384 -640,-384 -640,-432 -640,-608" /><polygon points="-640,-368 -640,-200 -640,-200 -640,-368" /><polygon points="-152,-200 -152,-200 -176,-200 -192,-200 -192,-200" /><polygon points="-416,-368 -640,-368 -640,-368 -416,-368" /><polygon points="-192,-368 -416,-368 -416,-368 -192,-368" /><polygon points="-152,-608 -152,-432 -152,-384 -152,-384 -152,-384 -152,-432 -152,-608" /><polygon points="-152,-608 -152,-656 -136,-656 -136,-608 -136,-432 -152,-432" /><polygon points="-776,-424 -776,-208 -776,-200 -776,-200 -776,-368 -776,-384 -776,-424" /><polygon points="-776,-656 -776,-656 -776,-784 -776,-784" /><polygon points="-16,-656 -16,-656 -16,-656 -16,-656 -16,-608 -16,-608" /><polygon points="-16,-64 -16,-64 -104,-64 -104,-64" /><polygon points="-552,-784 -656,-784 -776,-784 -776,-784 -552,-784" /><polygon points="-328,-784 -432,-784 -552,-784 -552,-784 -328,-784" /><polygon points="-640,-656 -656,-656 -656,-656 -640,-656" /><polygon points="-640,-656 -640,-656 -552,-656 -528,-656 -528,-656 -640,-656" /><polygon points="-272,-656 -336,-656 -336,-656 -272,-656" /><polygon points="-456,-656 -392,-656 -376,-656 -376,-656 -512,-656 -512,-656" /><polygon points="-16,-656 -32,-656 -32,-656 -16,-656" /><polygon points="-352,-656 -376,-656 -392,-656 -392,-656 -392,-656 -392,-656 -336,-656 -336,-656 -336,-656 -336,-656" /><polygon points="-32,-672 -32,-784 -16,-784 -16,-672" /><polygon points="-136,-672 -136,-768 -136,-784 -32,-784 -32,-672 -32,-656 -136,-656" /><polygon points="-152,-672 -152,-768 -136,-768 -136,-672" /><polygon points="-432,-672 -456,-672 -656,-672 -656,-784 -552,-784 -432,-784" /><polygon points="-208,-672 -272,-672 -336,-672 -432,-672 -432,-784 -328,-784 -208,-784" /><polygon points="-152,-784 -152,-768 -152,-672 -208,-672 -208,-784" /><polygon points="-776,-784 -656,-784 -656,-672 -656,-656 -776,-656" /><polygon points="-136,-672 -136,-656 -136,-656 -136,-656 -136,-672" /><polygon points="-32,-672 -16,-672 -16,-672 -32,-672" /><polygon points="-32,-656 -32,-672 -32,-672 -32,-656" /><polygon points="-208,-672 -152,-672 -136,-672 -136,-672 -272,-672 -272,-672 -272,-672 -272,-672" /><polygon points="-152,-768 -152,-784 -152,-784 -152,-768" /><polygon points="-336,-672 -272,-672 -272,-672 -336,-672" /><polygon points="-432,-672 -336,-672 -336,-672 -392,-672 -456,-672 -456,-672" /><polygon points="-656,-656 -656,-672 -656,-672 -656,-656" /><polygon points="-152,-184 -152,-200 -152,-200 -152,-184" /><polygon points="-152,-368 -152,-384 -152,-384 -152,-368" /><polygon points="-152,-384 -136,-384 -136,-384 -136,-384 -136,-384 -152,-384" /><polygon points="-136,-184 -152,-184 -152,-184 -136,-184" /><polygon points="-136,-368 -136,-368 -104,-368 -56,-368 -56,-368" /><polygon points="-136,-200 -136,-184 -136,-184 -136,-200" /><polygon points="-56,-368 -16,-368 -16,-184 -136,-184 -136,-200 -136,-368" /><polygon points="-152,-200 -136,-200 -136,-200 -152,-200" /><polygon points="-152,-200 -152,-368 -136,-368 -136,-200" /><polygon points="-104,-64 -152,-64 -152,-184 -136,-184 -16,-184 -16,-64" /><polygon points="-640,-200 -656,-200 -656,-208 -656,-368 -640,-368" /><polygon points="-776,-64 -776,-184 -656,-184 -640,-184 -552,-184 -552,-64" /><polygon points="-552,-184 -528,-184 -512,-184 -400,-184 -400,-64 -552,-64" /><polygon points="-552,-184 -640,-184 -640,-200 -528,-200 -528,-184" /><polygon points="-512,-184 -512,-200 -416,-200 -400,-200 -400,-184" /><polygon points="-656,-432 -656,-656 -640,-656 -640,-608 -640,-432" /><polygon points="-640,-384 -656,-384 -656,-432 -640,-432" /><polygon points="-656,-656 -656,-432 -776,-432 -776,-656" /><polygon points="-656,-432 -656,-384 -656,-368 -656,-208 -776,-208 -776,-424 -776,-432" /><polygon points="-656,-208 -656,-200 -656,-184 -776,-184 -776,-200 -776,-208" /><polygon points="-176,-64 -328,-64 -400,-64 -400,-184 -400,-200 -192,-200 -176,-200" /><polygon points="-152,-200 -152,-184 -152,-64 -176,-64 -176,-200" /><polygon points="-416,-368 -640,-368 -640,-384 -416,-384" /><polygon points="-192,-368 -416,-368 -416,-384 -376,-384 -352,-384 -192,-384" /><polygon points="-152,-384 -152,-368 -192,-368 -192,-384" /><polygon points="-376,-432 -376,-608 -376,-656 -352,-656 -352,-608 -352,-432" /><polygon points="-352,-384 -376,-384 -376,-432 -352,-432" /><polygon points="-512,-200 -512,-184 -512,-184 -512,-200" /><polygon points="-640,-368 -656,-368 -656,-368 -640,-368" /><polygon points="-640,-384 -640,-368 -640,-368 -640,-384" /><polygon points="-656,-384 -640,-384 -640,-384 -656,-384" /><polygon points="-656,-368 -656,-384 -656,-384 -656,-368" /><polygon points="-656,-200 -640,-200 -640,-200 -656,-200" /><polygon points="-528,-200 -512,-200 -512,-200 -528,-200" /><polygon points="-640,-200 -640,-184 -640,-184 -640,-200" /><polygon points="-512,-184 -528,-184 -528,-184 -512,-184" /><polygon points="-528,-184 -528,-200 -528,-200 -528,-184" /><polygon points="-640,-184 -656,-184 -656,-184 -640,-184" /><polygon points="-656,-184 -656,-200 -656,-200 -656,-184" /><polygon points="-416,-384 -640,-384 -640,-384 -416,-384" /><polygon points="-152,-384 -192,-384 -352,-384 -352,-384 -192,-384 -152,-384" /><polygon points="-376,-608 -376,-432 -376,-384 -376,-384 -376,-432 -376,-608" /><polygon points="-352,-656 -352,-656 -352,-608 -352,-608" /><polygon points="-640,-656 -640,-656 -640,-608 -640,-608" /><polygon points="-416,-200 -512,-200 -528,-200 -640,-200 -640,-200 -528,-200 -512,-200 -416,-200" /><polygon points="-192,-200 -400,-200 -416,-200 -416,-200 -288,-200 -192,-200" /><polygon points="-152,-368 -152,-368 -192,-368 -192,-368" /><polygon points="-152,-656 -152,-656 -136,-656 -136,-656" /><polygon points="-152,-656 -152,-656 -272,-656 -272,-656 -272,-656 -272,-656 -192,-656 -152,-656" /><polygon points="-136,-656 -136,-656 -136,-608 -136,-608" /><polygon points="-392,-656 -392,-656 -456,-656 -456,-656" /><polygon points="-456,-656 -456,-656 -456,-672 -456,-672" /><polygon points="-272,-672 -272,-672 -272,-656 -272,-656" /><polygon points="-336,-656 -336,-656 -336,-672 -336,-672" /><polygon points="-272,-656 -336,-656 -336,-672 -272,-672" /><polygon points="-392,-672 -392,-672 -392,-656 -392,-656" /><polygon points="-392,-672 -392,-656 -456,-656 -456,-672" /><polygon points="-56,-384 -16,-384 -16,-384 -56,-384" /><polygon points="-56,-384 -104,-384 -136,-384 -136,-384 -16,-384 -16,-384" /><polygon points="-136,-384 -104,-384 -104,-384 -136,-384" /><polygon points="-56,-368 -56,-368 -56,-368 -16,-368 -16,-368 -56,-368" /><polygon points="-104,-368 -136,-368 -136,-368 -104,-368" /><polygon points="-56,-368 -56,-384 -56,-384 -56,-368" /><polygon points="-104,-384 -104,-368 -104,-368 -104,-384" /><polygon points="-56,-368 -104,-368 -104,-384 -56,-384" /><polygon points="-456,-656 -456,-656 -456,-656 -512,-656 -512,-656 -456,-656" /><polygon points="-272,-656 -336,-656 -336,-656 -328,-656 -272,-656" /><polygon points="-272,-672 -336,-672 -336,-656 -272,-656" /><polygon points="-336,-672 -272,-672 -272,-672 -336,-672" /><polygon points="-392,-672 -392,-672 -456,-672 -456,-672" /><polygon points="-392,-656 -392,-672 -456,-672 -456,-656" /><polygon points="-104,-368 -136,-368 -136,-368 -56,-368 -56,-368" /><polygon points="-136,-368 -136,-368 -136,-368 -152,-368 -152,-368 -136,-368" /><polygon points="-56,-384 -104,-384 -104,-368 -56,-368" /><polygon points="-776,-200 -776,-200 -776,-184 -776,-64 -776,-64" /><polygon points="-776,-432 -776,-656 -776,-656 -776,-432 -776,-424 -776,-424" /><polygon points="-16,-200 -16,-184 -16,-184 -16,-368 -16,-368" /><polygon points="-16,-200 -16,-184 -16,-184" /><polygon points="-16,-656 -16,-672 -16,-672" /><polygon points="-416,-656 -392,-656 -392,-656 -456,-656 -456,-656" /><polygon points="-416,-656 -456,-656 -512,-656 -528,-656 -552,-656 -640,-656 -640,-656 -552,-656 -416,-656" /><polygon points="-192,-656 -272,-656 -328,-656 -336,-656 -392,-656 -416,-656 -416,-656 -328,-656 -192,-656" /><polygon points="-136,-656 -32,-656 -16,-656 -16,-672 -16,-768 -136,-768 -152,-768 -152,-656" /><polygon points="-272,-656 -192,-656 -152,-656 -152,-768 -152,-784 -328,-784 -328,-656" /><polygon points="-16,-656 -32,-656 -32,-672 -16,-672" /><polygon points="-136,-672 -136,-656 -152,-656 -192,-656 -272,-656 -272,-672" /><polygon points="-272,-656 -328,-656 -336,-656 -336,-672 -272,-672" /><polygon points="-392,-672 -392,-656 -416,-656 -456,-656 -456,-672" /><polygon points="-392,-656 -392,-672 -336,-672 -336,-656" /><polygon points="-392,-672 -392,-672 -392,-672 -336,-672 -336,-672 -336,-672" /><polygon points="-456,-672 -456,-656 -512,-656 -528,-656 -552,-656 -640,-656 -656,-656 -656,-672" /><polygon points="-656,-672 -656,-672 -456,-672 -456,-672 -456,-672 -456,-672" /><polygon points="-136,-200 -104,-200 -16,-200 -16,-368 -56,-368 -136,-368 -152,-368 -152,-200" /><polygon points="-136,-184 -152,-184 -152,-200 -136,-200" /><polygon points="-656,-656 -776,-656 -776,-432 -640,-432 -640,-656" /><polygon points="-776,-432 -776,-424 -776,-384 -656,-384 -640,-384 -640,-424 -640,-432" /><polygon points="-512,-184 -528,-184 -528,-200 -512,-200" /><polygon points="-776,-384 -776,-368 -656,-368 -656,-384" /><polygon points="-656,-200 -640,-200 -640,-368 -656,-368 -776,-368 -776,-200" /><polygon points="-640,-184 -656,-184 -656,-200 -640,-200" /><polygon points="-152,-200 -152,-200 -152,-200 -192,-200 -192,-200" /><polygon points="-152,-368 -152,-384 -152,-384 -152,-200 -152,-200" /><polygon points="-640,-424 -640,-384 -640,-368 -640,-200 -640,-200 -640,-424" /><polygon points="-552,-200 -640,-200 -656,-200 -776,-200 -776,-64 -552,-64" /><polygon points="-328,-200 -416,-200 -512,-200 -528,-200 -552,-200 -552,-64 -328,-64" /><polygon points="-104,-200 -136,-200 -152,-200 -192,-200 -328,-200 -328,-64 -104,-64" /><polygon points="-136,-384 -136,-384 -104,-384 -56,-384 -16,-384 -16,-384" /><polygon points="-776,-424 -776,-200 -776,-200 -776,-200 -776,-424" /><polygon points="-776,-648 -776,-432 -776,-424 -776,-424 -776,-648" /><polygon points="-104,-656 -16,-656 -16,-656 -32,-656 -136,-656 -152,-656 -192,-656 -192,-656" /><polygon points="-552,-656 -640,-656 -776,-656 -776,-784 -552,-784" /><polygon points="-328,-656 -416,-656 -552,-656 -552,-784 -328,-784" /><polygon points="-104,-656 -192,-656 -328,-656 -328,-784 -104,-784" /><polygon points="-16,-200 -16,-200 -104,-200 -152,-200 -152,-200" /><polygon points="-152,-384 -152,-384 -136,-384 -16,-384 -16,-384" /><polygon points="-152,-200 -152,-384 -16,-384 -16,-200" /><polygon points="-640,-432 -640,-656 -640,-656 -640,-432 -640,-424 -640,-424" /><polygon points="-776,-648 -776,-656 -640,-656 -640,-432 -776,-432" /><polygon points="-640,-432 -640,-424 -640,-200 -776,-200 -776,-424 -776,-432" /><polygon points="-16,-200 -16,-200 -16,-64 -16,-64" /><polygon points="-416,-200 -552,-200 -640,-200 -640,-200 -640,-200 -552,-200 -528,-200 -512,-200 -416,-200" /><polygon points="-192,-200 -328,-200 -416,-200 -416,-200 -328,-200 -192,-200" /><polygon points="-776,-200 -776,-200 -640,-200 -640,-200" /><polygon points="-16,-200 -16,-64 -104,-64 -104,-200" /><polygon points="-136,-768 -136,-784 -136,-784 -136,-768" /><polygon points="-152,-768 -136,-768 -136,-768 -152,-768" /><polygon points="-16,-784 -16,-768 -16,-672 -16,-672 -16,-672 -16,-784" /><polygon points="-152,-784 -152,-784 -208,-784 -328,-784 -328,-784" /><polygon points="-136,-784 -16,-784 -16,-784 -32,-784 -136,-784" /><polygon points="-136,-784 -136,-768 -16,-768 -16,-784" /><polygon points="-552,-784 -776,-784 -776,-656 -656,-656 -640,-656 -552,-656" /><polygon points="-328,-784 -552,-784 -552,-656 -528,-656 -512,-656 -456,-656 -416,-656 -392,-656 -336,-656 -328,-656" /><polygon points="-16,-64 -16,-64 -16,-184 -16,-184 -16,-184" /><polygon points="-552,-64 -776,-64 -776,-64 -552,-64" /><polygon points="-328,-64 -552,-64 -552,-64 -400,-64 -328,-64" /><polygon points="-104,-64 -328,-64 -328,-64 -176,-64 -152,-64 -104,-64" /><polygon points="-16,-64 -16,-184 -16,-200 -104,-200 -104,-64" /><polygon points="-16,-784 -16,-784 -16,-656 -16,-656" /><polygon points="-552,-784 -776,-784 -776,-784 -552,-784" /><polygon points="-328,-784 -552,-784 -552,-784 -328,-784" /><polygon points="-104,-784 -328,-784 -328,-784 -104,-784" /><polygon points="-16,-784 -16,-656 -104,-656 -104,-784" /><polygon points="-16,-64 -16,-64 -104,-64 -104,-64" /><polygon points="-552,-64 -776,-64 -776,-200 -640,-200 -552,-200" /><polygon points="-328,-64 -552,-64 -552,-200 -416,-200 -328,-200" /><polygon points="-104,-64 -328,-64 -328,-200 -192,-200 -152,-200 -104,-200" /><polygon points="-776,-200 -776,-200 -776,-64 -776,-64" /><polygon points="-776,-784 -776,-784 -776,-656 -776,-648 -776,-648" /><polygon points="-16,-200 -16,-200 -16,-200 -16,-384 -16,-384" /><polygon points="-16,-608 -16,-384 -16,-384 -16,-384 -16,-384 -16,-384 -16,-384 -16,-384 -16,-384 -16,-604.1905 -16,-608" /><polygon points="-552,-64 -776,-64 -776,-64 -552,-64" /><polygon points="-328,-64 -552,-64 -552,-64 -328,-64" /><polygon points="-104,-64 -328,-64 -328,-64 -104,-64" /><polygon points="-16,-784 -16,-784 -104,-784 -104,-784" /></g></defs><rect fill="#fff" height="864.0" id="background" width="904.0" x="-848.0" y="-856.0" /><use fill="none" stroke="black" stroke-miterlimit="0" stroke-width="15" xlink:href="#bsp_ref" /><use fill="white" stroke="black" stroke-width="1" xlink:href="#bsp_ref" /></svg>