<svg viewBox="-3456 -4090 3952 8156" xmlns="http://www.w3.org/2000/svg" xmlns:xlink="http://www.w3.org/1999/xlink"><defs><g id="a"><path d="m-2448 872v16 204h-32-208v-220z"/><path d="m-2928 856v-192-32h240v224z"/><path d="m-2688 872v220h-16-224v-204-32h240z"/><path d="m-2704 1112h-224v-20h224z"/><path d="m-2480 1112h-224v-20h16 208z"/><path d="m-2448 1092v20h-32v-20z"/><path d="m-2928 888v204 20z"/><path d="m-2928 664v192 32z"/><path d="m-2448 872v-208 224z"/><path d="m-2688 872v-16-224z"/><path d="m-2796 680h-32v32h32z"/><path d="m-2828 712v-32z"/><path d="m-2796 680v32z"/><path d="m-2796 712h-32z"/><path d="m-2828 680h32z"/><path d="m-2796 712h-32v-32h32z"/><path d="m-1644-8v32z"/><path d="m-3020 248v192 32z"/><path d="m-3020 24v192 32z"/><path d="m-2796-8h-224z"/><path d="m-2572-8h-224z"/><path d="m-2348-8h-224z"/><path d="m-2124-8h-224z"/><path d="m-1900-8h-224z"/><path d="m-1676-8h-224z"/><path d="m-1644 472h-32z"/><path d="m-3020 216v-192-32h224v224z"/><path d="m-3020 440v-192-32h224v224z"/><path d="m-2796 472h-224v-32h224z"/><path d="m-2796 216v-224h224v224z"/><path d="m-2796 440v-224h224v224z"/><path d="m-2572 472h-224v-32h224z"/><path d="m-2572 216v-224h224v224z"/><path d="m-2572 440v-224h224v224z"/><path d="m-2348 472h-224v-32h224z"/><path d="m-2348 216v-224h224v224z"/><path d="m-2348 440v-224h224v224z"/><path d="m-2124 472h-224v-32h224z"/><path d="m-2124 216v-224h224v224z"/><path d="m-2124 440v-224h224v224z"/><path d="m-1900 472h-224v-32h224z"/><path d="m-1900 216v-224h224v224z"/><path d="m-1900 440v-224h224v224z"/><path d="m-1676 472h-224v-32h224z"/><path d="m-1644-8v32 192h-32v-224z"/><path d="m-1644 216v32 192h-32v-224z"/><path d="m-1644 440v32h-32v-32z"/><path d="m-2448 664v-32z"/><path d="m-1644-8v32z"/><path d="m-1644 248v224-32z"/><path d="m-1644 24v224-32z"/><path d="m-3020-8v32z"/><path d="m-3020 248v224-176z"/><path d="m-3020 24v224-176z"/><path d="m-2796-8h-224 112z"/><path d="m-2572-8h-224 112 32z"/><path d="m-2348-8h-224 144z"/><path d="m-2124-8h-224 144z"/><path d="m-1900-8h-224 144z"/><path d="m-1676-8h-224 144z"/><path d="m-1644-8h-32z"/><path d="m-1644 472h-32z"/><path d="m-2796 472h-224z"/><path d="m-2572 472h-224z"/><path d="m-2348 472h-224z"/><path d="m-2124 472h-224z"/><path d="m-1900 472h-224z"/><path d="m-1676 472h-224z"/><path d="m-2796-8h224 224 224 224 224 32v32 224 224h-32-224-224-224-224-224-224v-224-224-32z"/><path d="m-2796 472h224 224 224 224 224 32v-224-224-32h-32-224-224-224-224-224-224v32 224 224z"/><path d="m-1644-8h-1376v480h1376z"/><path d="m-2688 632h-240 112z"/><path d="m-2448 632v32 208h-240v-240z"/><path d="m480 32v176z"/><path d="m-256 254v-44-180h152 72v224z"/><path d="m-32 434h-72-152v-180h224z"/><path d="m-32 254v-224h152 72v224z"/><path d="m192 434h-72-152v-180h224z"/><path d="m192 254v-224h152 72v224z"/><path d="m416 434h-72-152v-180h224z"/><path d="m480 30v2 176 46h-64v-224z"/><path d="m480 254v178 2h-64v-180z"/><path d="m120 30h-152-72 136z"/><path d="m344 30h-152-72 136z"/><path d="m-256 30h8 144z"/><path d="m416 434h64-136z"/><path d="m-256 210v44 180-2z"/><path d="m-1644 248v48 176z"/><path d="m-1644 24v48 176z"/><path d="m-1644 24v-32 80z"/><path d="m-3020 72v176 48-48z"/><path d="m-3020-8v32z"/><path d="m-2796 472h-224z"/><path d="m-2572 472h-224z"/><path d="m-2348 472h-224z"/><path d="m-2124 472h-224z"/><path d="m-1900 472h-224z"/><path d="m-1676 472h-224z"/><path d="m-2796 296h-224v176h224z"/><path d="m-2572 296h-224v176h224z"/><path d="m-2348 296h-224v176h224z"/><path d="m-2124 296h-224v176h224z"/><path d="m-1900 296h-224v176h224z"/><path d="m-1676 296h-224v176h224z"/><path d="m-1644 472v-176h-32v176z"/><path d="m-1644 296h-32z"/><path d="m-3230-4087h-224z"/><path d="m480 32v-2z"/><path d="m480 32v176z"/><path d="m480 208v224-178z"/><path d="m-256 30v2z"/><path d="m-256 208v2 222-222z"/><path d="m-256 208v-176-2 180z"/><path d="m480 432h-736z"/><path d="m480 32h-736z"/><path d="m480 32v176 224h-736v-222-2-176z"/><path d="m480 432v-224-176h-736v176 2 222z"/><path d="m-3184 3986h32 44-16-28-62-16z"/><path d="m-3454 3762v54 170-170z"/><path d="m-3454 3538v22 128 74-74z"/><path d="m-3454 3314v84 140-74-26-40z"/><path d="m-3454 3090v84 140-140-32z"/><path d="m-3454 2866v84 140-12z"/><path d="m-3454 2642v84 140-12-48-40z"/><path d="m-3454 2418v84 140-100-104z"/><path d="m-3454 2194v84 140-44z"/><path d="m-3454 1970v84 140-44-32-64z"/><path d="m-3454 1746v215 9-140z"/><path d="m-3454 1522v215 9-28-64z"/><path d="m-3454 1298v215 9-92-112z"/><path d="m-3454 1074v215 9-20z"/><path d="m-3454 850v215 9-20-160-40z"/><path d="m-3454 626v215 9-220z"/><path d="m-3454 402v215 9-124-64z"/><path d="m-3454 178v215 9-188z"/><path d="m-3454-46v215 9-124-62z"/><path d="m-3454-270v215 9-186z"/><path d="m-3454-494v215 9-92-40z"/><path d="m-3454-718v215 9-132z"/><path d="m-3454-942v215 9-92-64z"/><path d="m-3454-1166v215 9-156z"/><path d="m-3454-1390v215 9-108-64z"/><path d="m-3454-1614v215 9-172z"/><path d="m-3454-1838v215 9-140-64z"/><path d="m-3454-2062v215 9-204z"/><path d="m-3454-2286v215 9-156-64z"/><path d="m-3454-2510v215 9-220z"/><path d="m-3454-2734v215 9z"/><path d="m-3454-2958v215 9-12-64z"/><path d="m-3454-3182v215 9-76z"/><path d="m-3454-3406v215 9-28-64z"/><path d="m-3454-3630v215 9-92z"/><path d="m-3454-3854v215 9-92-68z"/><path d="m-3108-3863v-224 1 72 160z"/><path d="m-3454-4087h224v224h-224z"/><path d="m-3230-3863v224h-224v-215-9z"/><path d="m-3230-3639v224h-224v-215-9z"/><path d="m-3230-3415v224h-224v-215-9z"/><path d="m-3230-3191v224h-224v-215-9z"/><path d="m-3230-2967v224h-224v-215-9z"/><path d="m-3230-2743v224h-224v-215-9z"/><path d="m-3230-2519v224h-224v-215-9z"/><path d="m-3230-2295v224h-224v-215-9z"/><path d="m-3230-2071v224h-224v-215-9z"/><path d="m-3230-1847v224h-224v-215-9z"/><path d="m-3230-1623v224h-224v-215-9z"/><path d="m-3230-1399v224h-224v-215-9z"/><path d="m-3230-1175v224h-224v-215-9z"/><path d="m-3230-951v224h-224v-215-9z"/><path d="m-3230-727v224h-224v-215-9z"/><path d="m-3230-503v224h-224v-215-9z"/><path d="m-3230-279v224h-224v-215-9z"/><path d="m-3230-55v224h-224v-215-9z"/><path d="m-3230 169v224h-224v-215-9z"/><path d="m-3230 393v224h-224v-215-9z"/><path d="m-3230 617v224h-224v-215-9z"/><path d="m-3230 841v224h-224v-215-9z"/><path d="m-3230 1065v224h-224v-215-9z"/><path d="m-3230 1289v224h-224v-215-9z"/><path d="m-3230 1513v224h-224v-215-9z"/><path d="m-3230 1737v224h-224v-215-9z"/><path d="m-3230 1961v93h-224v-84-9z"/><path d="m-3230-4087h122v224h-122z"/><path d="m-3108-3863v9 215h-122v-224z"/><path d="m-3108-3639v9 215h-122v-224z"/><path d="m-3108-3415v9 215h-122v-224z"/><path d="m-3108-3191v9 215h-122v-224z"/><path d="m-3108-2967v9 215h-122v-224z"/><path d="m-3108-2743v9 215h-122v-224z"/><path d="m-3108-2519v9 215h-122v-224z"/><path d="m-3108-2295v9 215h-122v-224z"/><path d="m-3108-2071v9 215h-122v-224z"/><path d="m-3108-1847v9 215h-122v-224z"/><path d="m-3108-1623v9 215h-122v-224z"/><path d="m-3108-1399v9 215h-122v-224z"/><path d="m-3108-1175v9 215h-122v-224z"/><path d="m-3108-951v9 215h-122v-224z"/><path d="m-3108-727v9 215h-122v-224z"/><path d="m-3108-503v9 215h-122v-224z"/><path d="m-3108-279v9 215h-122v-224z"/><path d="m-3108-55v9 215h-122v-224z"/><path d="m-3108 169v9 215h-122v-224z"/><path d="m-3108 393v9 215h-122v-224z"/><path d="m-3108 617v9 215h-122v-224z"/><path d="m-3108 841v9 215h-122v-224z"/><path d="m-3108 1065v9 215h-122v-224z"/><path d="m-3108 1289v9 215h-122v-224z"/><path d="m-3108 1513v9 215h-122v-224z"/><path d="m-3108 1737v9 215h-122v-224z"/><path d="m-3108 1961v9 84h-44-78v-93z"/><path d="m-3152 2054h44v140 84h-44z"/><path d="m-3108 2278v140 84h-44v-224z"/><path d="m-3108 2502v140 84h-44v-224z"/><path d="m-3108 2726v140 84h-44v-224z"/><path d="m-3108 2950v140 84h-44v-224z"/><path d="m-3108 3174v140 84h-44v-224z"/><path d="m-3108 3398v140 84h-44v-62-162z"/><path d="m-3108 3622v140 84h-44v-30-128-66z"/><path d="m-3108 3846v140h-44v-42-98z"/><path d="m-3454 2194v-140h224v224h-224z"/><path d="m-3230 2278v224h-224v-84-140z"/><path d="m-3230 2502v224h-224v-84-140z"/><path d="m-3230 2726v224h-224v-84-140z"/><path d="m-3230 2950v224h-224v-84-140z"/><path d="m-3230 3174v224h-224v-84-140z"/><path d="m-3230 3398v162h-178-46v-22-140z"/><path d="m-3230 2054h78v224h-78z"/><path d="m-3152 2278v224h-78v-224z"/><path d="m-3152 2502v224h-78v-224z"/><path d="m-3152 2726v224h-78v-224z"/><path d="m-3152 2950v224h-78v-224z"/><path d="m-3152 3174v224h-78v-224z"/><path d="m-3152 3398v162h-32-46v-162z"/><path d="m-3230 3816h-178-46v-54-74h46 178z"/><path d="m-3184 3688h32v128h-32-46v-128z"/><path d="m-3454 3688v-128h46v128z"/><path d="m-3184 3986h-46-178v-42h224z"/><path d="m-3152 3944v42h-32v-42z"/><path d="m-3454 3986v-170h46v128 42z"/><path d="m-3152 3560h-32z"/><path d="m-3152 3816h-32z"/><path d="m-3184 3688h-46-178z"/><path d="m-3184 3944h-224z"/><path d="m-1644-8v480z"/><path d="m-3020 472v-480z"/><path d="m-3020-8h1376z"/><path d="m-1644 472h-1376z"/><path d="m-1644 472h-1376v-480h1376z"/><path d="m-3108-4087h-122z"/><path d="m-3230-4087h-224z"/><path d="m-2928 1112v-224z"/><path d="m-2928 888v-224z"/><path d="m-2928 632v32z"/><path d="m-2592 632h32 112-240z"/><path d="m-2592 632h-96-128 112z"/><path d="m-2928 632h112z"/><path d="m-2448 1112v-20-204z"/><path d="m-2448 664v224z"/><path d="m-2448 632v32z"/><path d="m-2928 1112h224z"/><path d="m-2704 1112h224z"/><path d="m-2480 1112h32z"/><path d="m-3152 3986h28-90z"/><path d="m-3230 3986h-178-30-16 46z"/><path d="m-3454 3464v74 150-26z"/><path d="m-3454 3438v-16-24z"/><path d="m-3454 3174v140 84-56z"/><path d="m-3454 2854v12 212-72z"/><path d="m-3454 2806v-24-16z"/><path d="m-3454 2542v100 124-128z"/><path d="m-3454 2150v44 180-56z"/><path d="m-3454 1830v140 84-136z"/><path d="m-3454 1430v92 132-136z"/><path d="m-3454 1054v20 204-160z"/><path d="m-3454 894v-16-24z"/><path d="m-3454 630v220 4-152z"/><path d="m-3454 502v-24-16-24z"/><path d="m-3454 214v188 36-184z"/><path d="m-3454 54v-24-16-22z"/><path d="m-3454-232v186 38-154z"/><path d="m-3454-362v-24-16z"/><path d="m-3454-626v132 92-208z"/><path d="m-3454-810v-24-16-24z"/><path d="m-3454-1098v156 68-200z"/><path d="m-3454-1562v172 52-216z"/><path d="m-3454-1754v-24-16-24z"/><path d="m-3454-2042v204 20-200z"/><path d="m-3454-2506v220 4-40z"/><path d="m-3454-2746v-24-16-24z"/><path d="m-3454-3034v76 148-200z"/><path d="m-3454-3498v92 132-68z"/><path d="m-3454-3722v92 132-68z"/><path d="m-3454-4014v160 64-72z"/><path d="m-3454-4014v-72-1 224 9z"/><path d="m-3454-4087v1z"/><path d="m-3108 3742v20z"/><path d="m-3108 3560v-22-76 200 26z"/><path d="m-3108 3142v32z"/><path d="m-3108 3090v-12 24 16 24z"/><path d="m-3108 2806v48z"/><path d="m-3108 2438v104z"/><path d="m-3108 2418v-44 24 16 24z"/><path d="m-3108 2118v32z"/><path d="m-3108 2054v24 16 24z"/><path d="m-3108 1746v-28 112z"/><path d="m-3108 1654v24 16 24z"/><path d="m-3108 1318v112z"/><path d="m-3108 1298v-206 186 16 24z"/><path d="m-3108 626v-124 128z"/><path d="m-3108 178v-124 160z"/><path d="m-3108-270v-92 130z"/><path d="m-3108-718v-92 184z"/><path d="m-3108-1166v-108 176z"/><path d="m-3108-1338v24 16 24z"/><path d="m-3108-1614v-140 192z"/><path d="m-3108-2062v-156 176z"/><path d="m-3108-2282v24 16 24z"/><path d="m-3108-2510v-224-12 200 40z"/><path d="m-3108-3182v-28 176z"/><path d="m-3108-3274v24 16 24z"/><path d="m-3108-3790v68z"/><path d="m-3108-4086v72z"/><path d="m-3108 3762v54 170-140z"/><path d="m-3108 3538v22 128 54 20-140z"/><path d="m-3108 3314v84 64 76-140z"/><path d="m-3108 3090v52 32 140-140z"/><path d="m-3108 2866v212 12-140z"/><path d="m-3108 2642v124 40 48 12-140z"/><path d="m-3108 2418v20 104 100-140z"/><path d="m-3108 2194v180 44-140z"/><path d="m-3108 1970v84 64 32 44-140z"/><path d="m-3108 1746v84 140-9z"/><path d="m-3108 1522v132 64 28-9z"/><path d="m-3108 1298v20 112 92-9z"/><path d="m-3108 1074v18 206-9z"/><path d="m-3108 850v4 40 180-9z"/><path d="m-3108 626v4 220-9z"/><path d="m-3108 402v36 64 124-9z"/><path d="m-3108 178v36 188-9z"/><path d="m-3108-46v38 62 124-9z"/><path d="m-3108-270v38 186-9z"/><path d="m-3108-494v92 40 92-9z"/><path d="m-3108-718v92 132-9z"/><path d="m-3108-942v68 64 92-9z"/><path d="m-3108-1166v68 156-9z"/><path d="m-3108-1390v52 64 108-9z"/><path d="m-3108-1614v52 172-9z"/><path d="m-3108-1838v20 64 140-9z"/><path d="m-3108-2062v20 204-9z"/><path d="m-3108-2286v4 64 156-9z"/><path d="m-3108-2510v4 220-9z"/><path d="m-3108-2734v224-9z"/><path d="m-3108-2958v148 64 12-9z"/><path d="m-3108-3182v148 76-9z"/><path d="m-3108-3406v132 64 28-9z"/><path d="m-3108-3630v132 92-9z"/><path d="m-3108-3854v64 68 92-9z"/><path d="m-3108-1818v1100-92-64-68-156-68-108-64-52-172-52-140z"/><path d="m-3108-1818v3472-132-92-112-20-206-18-180-40-4-220-4-124-64-36-188-36-124-62-38-186-38-92-40-92-132-92z"/><path d="m-3108-1818-346 2444v4 220 4 40 160 20 204 20 20 112 92 132 64 28 84 140 84 64h46 300v-64-84-140-84-28-64z"/><path d="m-3108-1818-346 64v140 52 172 52 64 108 68 156 68 64 92 92 132 92 40 92 38 186 38 62 124 36 188 36 64 124z"/><path d="m-3108-1818-346-2269v1 72 160 64 68 92 132 92 132 64 28 148 76 148 64 12 224 4 220 4 64 156 20 204 20 64z"/><path d="m-3108-1818v-20-204-20-156-64-4-220-4-224-12-64-148-76-148-28-64-132-92-132-92-68-64-160-72-1h-122-224z"/><path d="m-3454-1818v1100-92-64-68-156-68-108-64-52-172-52-140z"/><path d="m-3454-1818v3340-92-112-20-20-204-20-160-40-4-220-4-124-64-36-188-36-124-62-38-186-38-92-40-92-132-92z"/><path d="m-3454-1818 346 2444v4 220 4 40 180 18 206 20 112 92 132 64 28 84 140 84 64h-300-46v-64-84-140-84-28-64-132z"/><path d="m-3454-1818 346 64v140 52 172 52 64 108 68 156 68 64 92 92 132 92 40 92 38 186 38 62 124 36 188 36 64 124z"/><path d="m-3454-1818 346-2269v1 72 160 64 68 92 132 92 132 64 28 148 76 148 64 12 224 4 220 4 64 156 20 204 20 64z"/><path d="m-3454-1818v-20-204-20-156-64-4-220-4-224-12-64-148-76-148-28-64-132-92-132-92-68-64-160-72-1h224 122z"/><path d="m-3108 3538v-76-64-84-140-32-52-12-212-12-48-40-124-100-104-20-44-180-44-32h-300v1442h224 32 44z"/><path d="m-3408 2118h300v32 44 180 44 20 104 100 124 40 48 12 212 12 52 32 140 84 64 76 22h-44-32-224z"/><path d="m-3454 3816 46-1698v1442 128 128 128 42h-30-16z"/><path d="m-3454 3816v-54-74-150-74-26-40-84-140-32-52-12-212-12-48-40-124-100-104-20-44-180-44-32h46z"/><path d="m-3408 3944-46-1826v32 44 180 44 20 104 100 124 40 48 12 212 12 52 32 140 84 40 26 74 150 74 54 170h16 30z"/><path d="m-3408 3944v-128-128-128-1442h-46z"/><path d="m-3108 3688v-128h-44v128z"/><path d="m-3108 3560v128h-44v-128z"/><path d="m-3184 3688h-224v-128h224z"/><path d="m-3152 3560v128h-32v-128z"/><path d="m-3184 3816h32 44v-54-20-54h-44-32-224v128z"/><path d="m-3184 3688h32 44v54 20 54h-44-32-224v-128z"/><path d="m-3108 3816v170h-16-28v-42-128z"/><path d="m-3152 3944v42h28 16v-170h-44z"/><path d="m-3184 3944h-224v-128h224z"/><path d="m-3152 3816v128h-32v-128z"/><path d="m-3184 3944h-224v42h178 16 62v-42z"/><path d="m-3184 3944h32v42h-62-16-178v-42z"/><path d="m-3184 3560h-224 178z"/><path d="m-3184 3816h-224 178z"/><path d="m-3408 3688v-128z"/><path d="m-3152 3560v62 66z"/><path d="m-3152 3688h-32z"/><path d="m-3408 3944v-128z"/><path d="m-3152 3816v30 98z"/><path d="m-3152 3944h-32z"/><path d="m-3456-4090h350z"/><path d="m-3106 4056h-350z"/><path d="m-3456 4056v-8146z"/><path d="m-3106-4090v8146z"/><path d="m-3106-4090h-350v8146h350z"/><path d="m-3106 4056h-350v-8146h350z"/><path d="m480 208v224z"/><path d="m-256 210v222 2-158z"/><path d="m-256 32v176z"/><path d="m-256 434v-2z"/><path d="m480 432h-736z"/><path d="m480 32h-736z"/><path d="m480 32v176 224h-736v-222-2-176z"/><path d="m480 432v-224-176h-736v176 2 222z"/><path d="m488 32h-1368v400h1368z"/><path d="m480 434v-2z"/><path d="m-880 432v-400z"/><path d="m488 32v400z"/><path d="m488 432h-1368z"/><path d="m-880 32h1368z"/><path d="m488 432h-1368v-400h1368z"/><path d="m-1868 296h192 32v112 64h-16-208z"/><path d="m-2252 296h128 64v176h-192z"/><path d="m-2572 296h128v176h-192v-176z"/><path d="m-3020 472v-176h192v176z"/><path d="m-3020 248v48 176z"/><path d="m-3020 24v48 176z"/><path d="m-1644 72v-80 32 160z"/><path d="m-1644 408v64z"/><path d="m-2828 296h32 160z"/><path d="m-2444 296h96 96z"/><path d="m-2428-8h-144-80 80z"/><path d="m-2204-8h-144-80 80z"/><path d="m-1980-8h-144-80 80z"/><path d="m-1756-8h-144-80 80z"/><path d="m-2908-8h-112z"/><path d="m-2684-8h-112-112 112z"/><path d="m-2252 296v176z"/><path d="m-1644 472h-16z"/><path d="m-1868 472h208z"/><path d="m-2060 472v-176z"/><path d="m-2252 472h192z"/><path d="m-2828 472v-176z"/><path d="m-2636 296v176z"/><path d="m-2444 472v-176z"/><path d="m-2444 472h-192z"/><path d="m-3020 472h192z"/><path d="m-1644 72v112 112-48z"/><path d="m-3020 24v-32 32 48z"/><path d="m-1644-8h-32z"/><path d="m-2796 296h-32-192z"/><path d="m-2572 296h-64-160z"/><path d="m-2348 296h-96-128z"/><path d="m-2124 296h-128-96z"/><path d="m-1900 296h-160-64z"/><path d="m-1676 296h-192-32z"/><path d="m-248 434h144-120z"/><path d="m-256 434h8z"/><path d="m-248 434h-8 152z"/><path d="m-248 260v-74.4478-53.5522-16h-8v94 66h8z"/><path d="m-248 116v16z"/><path d="m-256 116h8z"/><path d="m-248 276h-8z"/><path d="m-256 276v158z"/><path d="m-256 116v-86 2 176 2z"/><path d="m-2972 328h-32v32h32z"/><path d="m-1660 408v4 56 4z"/><path d="m-1644 408h-16v64h16z"/><path d="m-1644 412h-16 4 8z"/><path d="m-1660 468h16-4-8z"/><path d="m-1660 468v-56h16v56z"/><path d="m-1644 412v56z"/><path d="m-1660 468v4z"/><path d="m-1648 468h-8v-56h8z"/><path d="m-1648 412h-8v56h8z"/><path d="m-1644 468h-4z"/><path d="m-1660 412h4z"/><path d="m-1656 412h-4v56h4z"/><path d="m-248 228.2655v-42.689-22.089 22.0647 74.4478z"/><path d="m-248 163.4875v-31.4875 53.5522z"/><path d="m-248 228.2655v31.7345z"/><path d="m-248 228.2655v31.7345h-8-119.1975l-.8735-.5096-.001-31.2364z"/><path d="m-3004 360v-32z"/><path d="m-2972 328v32z"/><path d="m-2972 360h-32z"/><path d="m-3004 328h32z"/><path d="m-2972 360h-32v-32h32z"/><path d="m-248 132h-8z"/><path d="m-256 132h8v31.4875l-125.8759.006 94.4446-31.4935z"/><path d="m-256 260h-23.4792-94.5561-1.1622z"/><path d="m-3108-4087h-122z"/><path d="m-3108-4086v-1z"/><path d="m-3230-4087h-224v1h224z"/><path d="m-3108-4086v-1h-122v1z"/><path d="m-3230-4086h-224z"/></g><g id="b"><path d="m-3454 3816v170-20z"/><path d="m-3454 3742v-16-38 74 54z"/><path d="m-3454 3816v-74z"/><path d="m-3454 3726v-38z"/><path d="m-3454 3422v-24z"/><path d="m-3454 3118v-16-24 12 52z"/><path d="m-3454 3142v-24z"/><path d="m-3454 3102v-24z"/><path d="m-3454 2806v-24z"/><path d="m-3454 2414v-16-24 44 20z"/><path d="m-3454 2438v-24z"/><path d="m-3454 2398v-24z"/><path d="m-3454 2094v-16-24 64z"/><path d="m-3454 2118v-24z"/><path d="m-3454 2078v-24z"/><path d="m-3454 1694v-16-24 64z"/><path d="m-3454 1718v-24z"/><path d="m-3454 1678v-24z"/><path d="m-3454 1294v-16 20 20z"/><path d="m-3454 1318v-24z"/><path d="m-3454 878v-24z"/><path d="m-3454 502v-24z"/><path d="m-3454 462v-24z"/><path d="m-3454 54v-24z"/><path d="m-3454 14v-22z"/><path d="m-3454-362v-24z"/><path d="m-3454-810v-24z"/><path d="m-3454-850v-24z"/><path d="m-3454-1298v-16-24 64z"/><path d="m-3454-1274v-24z"/><path d="m-3454-1314v-24z"/><path d="m-3454-1754v-24z"/><path d="m-3454-1794v-24z"/><path d="m-3454-2242v-16-24 64z"/><path d="m-3454-2218v-24z"/><path d="m-3454-2258v-24z"/><path d="m-3454-2746v-24z"/><path d="m-3454-2786v-24z"/><path d="m-3454-3234v-16-24 64z"/><path d="m-3454-3210v-24z"/><path d="m-3454-3250v-24z"/><path d="m-3108 3726v16-54z"/><path d="m-3108 3688v38z"/><path d="m-3108 3422v16 24-64z"/><path d="m-3108 3438v24z"/><path d="m-3108 3398v24z"/><path d="m-3108 3118v24z"/><path d="m-3108 3078v24z"/><path d="m-3108 2782v24-40z"/><path d="m-3108 2782v24z"/><path d="m-3108 2414v24z"/><path d="m-3108 2374v24z"/><path d="m-3108 2094v24z"/><path d="m-3108 2054v24z"/><path d="m-3108 1694v24z"/><path d="m-3108 1654v24z"/><path d="m-3108 1294v24z"/><path d="m-3108 1092v26 160z"/><path d="m-3108 1092v-18-180z"/><path d="m-3108 878v16-40z"/><path d="m-3108 854v24z"/><path d="m-3108 462v16 24-64z"/><path d="m-3108 478v24z"/><path d="m-3108 438v24z"/><path d="m-3108 14v16 24-62z"/><path d="m-3108 30v24z"/><path d="m-3108-8v22z"/><path d="m-3108-386v24-40z"/><path d="m-3108-386v24z"/><path d="m-3108-850v16 24-64z"/><path d="m-3108-834v24z"/><path d="m-3108-874v24z"/><path d="m-3108-1298v24z"/><path d="m-3108-1338v24z"/><path d="m-3108-1794v16 24-64z"/><path d="m-3108-1778v24z"/><path d="m-3108-1818v24z"/><path d="m-3108-2242v24z"/><path d="m-3108-2282v24z"/><path d="m-3108-2786v16 24-64z"/><path d="m-3108-2770v24z"/><path d="m-3108-2810v24z"/><path d="m-3108-3234v24z"/><path d="m-3108-3274v24z"/><path d="m-3108-1794h-16-94-16z"/><path d="m-3330-1794h-16-92-16z"/><path d="m-3108-2786h-16-94-16z"/><path d="m-3330-2786h-16-92-16z"/><path d="m-3108-3250h-16-94-16z"/><path d="m-3330-3250h-16-92-16z"/><path d="m-3234-3234v-16z"/><path d="m-3108-3234v-16h-126v16z"/><path d="m-3330-3250v16z"/><path d="m-3330-3234v-16h-124v16z"/><path d="m-3108-2258h-16-94-16z"/><path d="m-3330-2258h-16-92-16z"/><path d="m-3234-2770v-16z"/><path d="m-3108-2770v-16h-126v16z"/><path d="m-3330-2786v16z"/><path d="m-3330-2770v-16h-124v16z"/><path d="m-3234-2242v-16z"/><path d="m-3108-2242v-16h-126v16z"/><path d="m-3330-2258v16z"/><path d="m-3330-2242v-16h-124v16z"/><path d="m-3108-850h-16-94-16z"/><path d="m-3330-850h-16-92-16z"/><path d="m-3108-1314h-16-94-16z"/><path d="m-3330-1314h-16-92-16z"/><path d="m-3234-1778v-16z"/><path d="m-3108-1778v-16h-126v16z"/><path d="m-3330-1794v16z"/><path d="m-3330-1778v-16h-124v16z"/><path d="m-3234-1298v-16z"/><path d="m-3108-1298v-16h-126v16z"/><path d="m-3330-1314v16z"/><path d="m-3330-1298v-16h-124v16z"/><path d="m-3108-402h-16-94-16z"/><path d="m-3234-834v-16z"/><path d="m-3108-834v-16h-126v16z"/><path d="m-3330-850v16z"/><path d="m-3330-834v-16h-124v16z"/><path d="m-3108 14h-16-94-16z"/><path d="m-3328 14h-16-94-16z"/><path d="m-3234-386v-16z"/><path d="m-3108-386v-16h-126v16z"/><path d="m-3328-402v16z"/><path d="m-3328-386v-16h-126v16z"/><path d="m-3328 14v16z"/><path d="m-3234 30v-16z"/><path d="m-3108 30v-16h-126v16z"/><path d="m-3328 30v-16h-126v16z"/><path d="m-3108 2078h-16-94-16z"/><path d="m-3328 2078h-16-94-16z"/><path d="m-3108 462h-16-94-16z"/><path d="m-3328 462h-16-94-16z"/><path d="m-3108 878h-16-94-16z"/><path d="m-3328 878h-16-94-16z"/><path d="m-3234 478v-16z"/><path d="m-3108 478v-16h-126v16z"/><path d="m-3328 462v16z"/><path d="m-3328 478v-16h-126v16z"/><path d="m-3328 878v16z"/><path d="m-3234 894v-16z"/><path d="m-3108 894v-16h-126v16z"/><path d="m-3328 894v-16h-126v16z"/><path d="m-3234 1294v-16z"/><path d="m-3108 1278h-16-94-16z"/><path d="m-3108 1294v-16h-126v16z"/><path d="m-3328 1278h-16-94-16z"/><path d="m-3328 1278v16z"/><path d="m-3328 1294v-16h-126v16z"/><path d="m-3328 1678v16z"/><path d="m-3108 1678h-16-94-16z"/><path d="m-3234 1694v-16z"/><path d="m-3108 1694v-16h-126v16z"/><path d="m-3328 1678h-16-94-16z"/><path d="m-3454 1678v16h126v-16z"/><path d="m-3108 3102h-16-96-16z"/><path d="m-3332 3102h-16-90-16z"/><path d="m-3108 2766h-16-94-16z"/><path d="m-3328 2398v16z"/><path d="m-3328 2078v16z"/><path d="m-3108 2398h-16-94-16z"/><path d="m-3234 2094v-16z"/><path d="m-3108 2094v-16h-126v16z"/><path d="m-3234 2414v-16z"/><path d="m-3108 2414v-16h-126v16z"/><path d="m-3328 2398h-16-94-16z"/><path d="m-3328 2094v-16h-126v16z"/><path d="m-3328 2414v-16h-126v16z"/><path d="m-3234 2782v-16z"/><path d="m-3108 2782v-16h-126v16z"/><path d="m-3328 2766v16z"/><path d="m-3328 2782v-16h-126v16z"/><path d="m-3236 3118v-16z"/><path d="m-3236 3438v-16z"/><path d="m-3108 3118v-16h-128v16z"/><path d="m-3108 3422h-16-96-16z"/><path d="m-3108 3438v-16h-128v16z"/><path d="m-3332 3102v16z"/><path d="m-3332 3118v-16h-122v16z"/><path d="m-3332 3422h-16-90-16z"/><path d="m-3332 3422v16z"/><path d="m-3332 3438v-16h-122v16z"/><path d="m-3108 3726h-16-96-16z"/><path d="m-3332 3726h-16-90-16z"/><path d="m-3236 3742v-16z"/><path d="m-3108 3742v-16h-128v16z"/><path d="m-3332 3726v16z"/><path d="m-3332 3742v-16h-122v16z"/><path d="m-279.4313 132-94.4446 31.4935-.1241.0414-2.4186.8067-.0106-31.8723.8045-.4693z"/><path d="m-3124 3986h16z"/><path d="m-3454 3986h16z"/><path d="m-3454 3438v26z"/><path d="m-3454 3142v32z"/><path d="m-3454 2806v48z"/><path d="m-3454 2438v104z"/><path d="m-3454 2118v32z"/><path d="m-3454 1718v28 84z"/><path d="m-3454 1318v112z"/><path d="m-3454 894v160z"/><path d="m-3454 502v124 4z"/><path d="m-3454 54v124 36z"/><path d="m-3454-362v92 38z"/><path d="m-3454-810v92 92z"/><path d="m-3454-1274v108 68z"/><path d="m-3454-1754v140 52z"/><path d="m-3454-2218v156 20z"/><path d="m-3454-2546v-200 12 224 4z"/><path d="m-3454-3210v28 148z"/><path d="m-3454-3790v68z"/><path d="m-3108 3762v204 20-170z"/><path d="m-3108 3174v168 56-84z"/><path d="m-3108 2854v152 72-212z"/><path d="m-3108 2542v96 128-124z"/><path d="m-3108 2150v168 56-180z"/><path d="m-3108 1830v88 136-84z"/><path d="m-3108 1430v88 136-132z"/><path d="m-3108 630v72 152-4z"/><path d="m-3108 214v40 184-36z"/><path d="m-3108-232v70 154-38z"/><path d="m-3108-626v16 208-92z"/><path d="m-3108-1098v24 200-68z"/><path d="m-3108-1562v8 216-52z"/><path d="m-3108-2042v24 200-20z"/><path d="m-3108-2506v184 40-4z"/><path d="m-3108-3034v24 200-148z"/><path d="m-3108-3498v156 68-132z"/><path d="m-3108-3722v156 68-132z"/><path d="m-3454-3790h16z"/><path d="m-3438 3762v-20h-16v74 150h16z"/><path d="m-3454 3966v20h16v-20z"/><path d="m-3348 3742h-90v-16h90z"/><path d="m-3108 3762v-20h-16v84 140h16z"/><path d="m-3124 3966v20h16v-20z"/><path d="m-3124 3742h-96v-16h96z"/><path d="m-3438 3538v-100h-16v26 198h16z"/><path d="m-3454 3662v26 38h16v-64z"/><path d="m-3348 3438h-90v-16h90z"/><path d="m-3124 3438h-96v-16h96z"/><path d="m-3108 3462v-24h-16v164 60h16z"/><path d="m-3124 3662v64h16v-38-26z"/><path d="m-3438 3314v-196h-16v24 32 168h16z"/><path d="m-3454 3342v56 24h16v-80z"/><path d="m-3348 3118h-90v-16h90z"/><path d="m-3124 3118h-96v-16h96z"/><path d="m-3108 3174v-32-24h-16v36 188h16z"/><path d="m-3124 3342v36 44h16v-24-56z"/><path d="m-3438 2866v-84h-16v24 48 152h16z"/><path d="m-3454 3006v72 24h16v-12-84z"/><path d="m-3344 2782h-94v-16h94z"/><path d="m-3124 2782h-94v-16h94z"/><path d="m-3108 2854v-48-24h-16v148 76h16z"/><path d="m-3124 3006v96h16v-24-72z"/><path d="m-3438 2418v-4h-16v24 104 96h16z"/><path d="m-3454 2638v128h16v-124-4z"/><path d="m-3344 2414h-94v-16h94z"/><path d="m-3124 2414h-94v-16h94z"/><path d="m-3108 2542v-104-24h-16v68 156h16z"/><path d="m-3124 2638v68 60h16v-128z"/><path d="m-3438 2194v-100h-16v24 32 168h16z"/><path d="m-3454 2318v56 24h16v-80z"/><path d="m-3344 2094h-94v-16h94z"/><path d="m-3124 2094h-94v-16h94z"/><path d="m-3108 2150v-32-24h-16v164 60h16z"/><path d="m-3124 2318v80h16v-24-56z"/><path d="m-3438 1746v-52h-16v24 112 88h16z"/><path d="m-3454 1918v136 24h16v-108-52z"/><path d="m-3344 1694h-94v-16h94z"/><path d="m-3124 1694h-94v-16h94z"/><path d="m-3108 1830v-112-24h-16v116 108h16z"/><path d="m-3124 1918v116 44h16v-24-136z"/><path d="m-3438 1298v-4h-16v24 112 88h16z"/><path d="m-3454 1518v136 24h16v-156-4z"/><path d="m-3344 1294h-94v-16h94z"/><path d="m-3124 1294h-94v-16h94z"/><path d="m-3108 1430v-112-24h-16v68 156h16z"/><path d="m-3124 1518v68 92h16v-24-136z"/><path d="m-3438 1074v-180h-16v160 64h16z"/><path d="m-3454 1118v160h16v-160z"/><path d="m-3344 894h-94v-16h94z"/><path d="m-3108 1092v-198h-16v20 204h16z"/><path d="m-3124 1118v20 140h16v-160z"/><path d="m-3124 894h-94v-16h94z"/><path d="m-3438 626v-148h-16v24 128 72h16z"/><path d="m-3454 702v152 24h16v-28-148z"/><path d="m-3344 478h-94v-16h94z"/><path d="m-3124 466v12h-94v-16h94z"/><path d="m-3108 630v-128-24h-16v212 12h16z"/><path d="m-3124 702v176h16v-24-152z"/><path d="m-3438 178v-148h-16v24 160 40h16z"/><path d="m-3454 254v184 24h16v-60-148z"/><path d="m-3344 30h-94v-16h94z"/><path d="m-3124 18v12h-94v-16h94z"/><path d="m-3108 214v-160-24h-16v212 12h16z"/><path d="m-3124 254v208h16v-24-184z"/><path d="m-3438-270v-116h-16v24 130 70h16z"/><path d="m-3454-162v154 22h16v-60-116z"/><path d="m-3344-386h-94v-16h94z"/><path d="m-3124-386h-94v-16h94z"/><path d="m-3108-232v-130-24h-16v180 44h16z"/><path d="m-3124-162v176h16v-22-154z"/><path d="m-3438-718v-116h-16v24 184 16h16z"/><path d="m-3454-610v208h16v-92-116z"/><path d="m-3346-834h-92v-16h92z"/><path d="m-3124-834h-94v-16h94z"/><path d="m-3108-626v-184-24h-16v180 44h16z"/><path d="m-3124-610v180 28h16v-208z"/><path d="m-3438-1166v-132h-16v24 176 24h16z"/><path d="m-3454-1074v200 24h16v-92-132z"/><path d="m-3346-1298h-92v-16h92z"/><path d="m-3124-1298h-94v-16h94z"/><path d="m-3108-1098v-176-24h-16v196 28h16z"/><path d="m-3124-1074v196 28h16v-24-200z"/><path d="m-3438-1614v-164h-16v24 192 8h16z"/><path d="m-3454-1554v216 24h16v-76-164z"/><path d="m-3346-1778h-92v-16h92z"/><path d="m-3124-1778h-94v-16h94z"/><path d="m-3108-1562v-192-24h-16v4 220h16z"/><path d="m-3124-1554v4 224 12h16v-24-216z"/><path d="m-3438-2062v-180h-16v24 176 24h16z"/><path d="m-3454-2018v200 24h16v-44-180z"/><path d="m-3346-2242h-92v-16h92z"/><path d="m-3124-2242h-94v-16h94z"/><path d="m-3108-2042v-176-24h-16v20 204h16z"/><path d="m-3124-2018v20 204h16v-24-200z"/><path d="m-3438-2734v-36h-16v24 200h16z"/><path d="m-3454-2546v40 184h16v-188-36z"/><path d="m-3454-2322v40 24h16v-28-36z"/><path d="m-3346-2770h-92v-16h92z"/><path d="m-3124-2770h-94v-16h94z"/><path d="m-3108-2746v-24h-16v100 124h16z"/><path d="m-3124-2546v100 124h16v-184-40z"/><path d="m-3124-2322v64h16v-24-40z"/><path d="m-3438-3182v-52h-16v24 176 24h16z"/><path d="m-3454-3010v200 24h16v-172-52z"/><path d="m-3346-3234h-92v-16h92z"/><path d="m-3124-3234h-94v-16h94z"/><path d="m-3108-3034v-176-24h-16v116 108h16z"/><path d="m-3124-3010v116 108h16v-24-200z"/><path d="m-3438-3630v-160h-16v68 156h16z"/><path d="m-3454-3566v68 156h16v-64-160z"/><path d="m-3454-3342v68 24h16v-92z"/><path d="m-3108-3722v-68h-16v224h16z"/><path d="m-3124-3566v224h16v-156-68z"/><path d="m-3124-3342v92h16v-24-68z"/><path d="m-3218-3250v16z"/><path d="m-3218-2786v16z"/><path d="m-3218-2258v16z"/><path d="m-3218-1794v16z"/><path d="m-3218-1314v16z"/><path d="m-3218-850v16z"/><path d="m-3218-402v16z"/><path d="m-3218 14v16z"/><path d="m-3218 462v16z"/><path d="m-3218 878v16z"/><path d="m-3218 1278v16z"/><path d="m-3218 1678v16z"/><path d="m-3218 2078v16z"/><path d="m-3218 2398v16z"/><path d="m-3218 2766v16z"/><path d="m-3124-3790v224z"/><path d="m-3348 3118v-16z"/><path d="m-3348 3438v-16z"/><path d="m-3348 3742v-16z"/><path d="m-3330-3250v16z"/><path d="m-3234-3234v-16z"/><path d="m-3234-3250h16z"/><path d="m-3218-3234h-16z"/><path d="m-3346-3250h16z"/><path d="m-3330-3234h-16z"/><path d="m-3346-3234v-16z"/><path d="m-3330-2786v16z"/><path d="m-3234-2770v-16z"/><path d="m-3234-2786h16z"/><path d="m-3218-2770h-16z"/><path d="m-3346-2786h16z"/><path d="m-3330-2770h-16z"/><path d="m-3346-2770v-16z"/><path d="m-3330-2258v16z"/><path d="m-3234-2242v-16z"/><path d="m-3234-2258h16z"/><path d="m-3218-2242h-16z"/><path d="m-3346-2258h16z"/><path d="m-3330-2242h-16z"/><path d="m-3346-2242v-16z"/><path d="m-3330-1794v16z"/><path d="m-3234-1778v-16z"/><path d="m-3234-1794h16z"/><path d="m-3218-1778h-16z"/><path d="m-3346-1794h16z"/><path d="m-3330-1778h-16z"/><path d="m-3346-1778v-16z"/><path d="m-3330-1314v16z"/><path d="m-3234-1298v-16z"/><path d="m-3234-1314h16z"/><path d="m-3218-1298h-16z"/><path d="m-3346-1314h16z"/><path d="m-3330-1298h-16z"/><path d="m-3346-1298v-16z"/><path d="m-3330-850v16z"/><path d="m-3234-834v-16z"/><path d="m-3234-850h16z"/><path d="m-3218-834h-16z"/><path d="m-3346-850h16z"/><path d="m-3330-834h-16z"/><path d="m-3346-834v-16z"/><path d="m-3328-402v16z"/><path d="m-3234-386v-16z"/><path d="m-3218-386h-16z"/><path d="m-3234-402h16z"/><path d="m-3328-386h-16z"/><path d="m-3344-402h16z"/><path d="m-3344-386v-16z"/><path d="m-3328 14v16z"/><path d="m-3234 30v-16z"/><path d="m-3218 30h-16z"/><path d="m-3234 14h16z"/><path d="m-3328 30h-16z"/><path d="m-3344 14h16z"/><path d="m-3344 30v-16z"/><path d="m-3328 462v16z"/><path d="m-3234 478v-16z"/><path d="m-3234 462h16z"/><path d="m-3218 478h-16z"/><path d="m-3344 462h16z"/><path d="m-3328 478h-16z"/><path d="m-3344 478v-16z"/><path d="m-3328 878v16z"/><path d="m-3234 894v-16z"/><path d="m-3234 878h16z"/><path d="m-3218 894h-16z"/><path d="m-3344 878h16z"/><path d="m-3328 894h-16z"/><path d="m-3344 894v-16z"/><path d="m-3328 1278v16z"/><path d="m-3234 1294v-16z"/><path d="m-3234 1278h16z"/><path d="m-3218 1294h-16z"/><path d="m-3344 1278h16z"/><path d="m-3328 1294h-16z"/><path d="m-3344 1294v-16z"/><path d="m-3328 1678v16z"/><path d="m-3234 1694v-16z"/><path d="m-3218 1694h-16z"/><path d="m-3234 1678h16z"/><path d="m-3328 1694h-16z"/><path d="m-3344 1678h16z"/><path d="m-3344 1694v-16z"/><path d="m-3328 2078v16z"/><path d="m-3234 2094v-16z"/><path d="m-3218 2094h-16z"/><path d="m-3234 2078h16z"/><path d="m-3328 2094h-16z"/><path d="m-3344 2078h16z"/><path d="m-3344 2094v-16z"/><path d="m-3328 2398v16z"/><path d="m-3234 2414v-16z"/><path d="m-3234 2398h16z"/><path d="m-3218 2414h-16z"/><path d="m-3344 2398h16z"/><path d="m-3328 2414h-16z"/><path d="m-3344 2414v-16z"/><path d="m-3344 2782v-16z"/><path d="m-3234 2766h16z"/><path d="m-3344 2766h16z"/><path d="m-3234 2782v-16z"/><path d="m-3218 2782h-16z"/><path d="m-3328 2766v16z"/><path d="m-3328 2782h-16z"/><path d="m-3236 3118v-16z"/><path d="m-3220 3118h-16z"/><path d="m-3236 3102h16z"/><path d="m-3220 3102v16z"/><path d="m-3332 3102v16z"/><path d="m-3332 3118h-16z"/><path d="m-3348 3102h16z"/><path d="m-3236 3438v-16z"/><path d="m-3236 3422h16z"/><path d="m-3220 3438h-16z"/><path d="m-3220 3422v16z"/><path d="m-3332 3422v16z"/><path d="m-3348 3422h16z"/><path d="m-3332 3438h-16z"/><path d="m-3236 3742v-16z"/><path d="m-3220 3742h-16z"/><path d="m-3236 3726h16z"/><path d="m-3220 3726v16z"/><path d="m-3332 3726v16z"/><path d="m-3332 3742h-16z"/><path d="m-3348 3726h16z"/><path d="m-3438 3762v204 20-160z"/><path d="m-3438 3538v124 64 16 20-160z"/><path d="m-3438 3314v28 80 16 100-160z"/><path d="m-3438 3090v12 16 196-160z"/><path d="m-3438 2866v140 84-160z"/><path d="m-3438 2642v124 16 84-160z"/><path d="m-3438 2418v220 4-160z"/><path d="m-3438 2194v124 80 16 4-160z"/><path d="m-3438 1970v108 16 100-160z"/><path d="m-3438 1746v172 52-160z"/><path d="m-3438 1522v156 16 52-160z"/><path d="m-3438 1298v220 4-160z"/><path d="m-3438 1074v44 160 16 4-160z"/><path d="m-3438 850v28 16 180-160z"/><path d="m-3438 626v76 148-160z"/><path d="m-3438 402v60 16 148-160z"/><path d="m-3438 178v76 148-160z"/><path d="m-3438-46v60 16 148-160z"/><path d="m-3438-270v108 116-160z"/><path d="m-3438-494v92 16 116-160z"/><path d="m-3438-718v108 116-160z"/><path d="m-3438-942v92 16 116-160z"/><path d="m-3438-1166v92 132-160z"/><path d="m-3438-1390v76 16 132-160z"/><path d="m-3438-1614v60 164-160z"/><path d="m-3438-1838v44 16 164-160z"/><path d="m-3438-2062v44 180-160z"/><path d="m-3438-2286v28 16 180-160z"/><path d="m-3438-2510v188 36-160z"/><path d="m-3438-2734v188 36-160z"/><path d="m-3438-2958v172 16 36-160z"/><path d="m-3438-3182v172 52-160z"/><path d="m-3438-3406v64 92 16 52-160z"/><path d="m-3438-3630v64 160-160z"/><path d="m-3218 30h94 16-126z"/><path d="m-3438 30h94 16-126z"/><path d="m-3218-3234h94 16-126z"/><path d="m-3438-3234h92 16-124z"/><path d="m-3218-2770h94 16-126z"/><path d="m-3438-2770h92 16-124z"/><path d="m-3218-2242h94 16-126z"/><path d="m-3438-2242h92 16-124z"/><path d="m-3218-1778h94 16-126z"/><path d="m-3438-1778h92 16-124z"/><path d="m-3218-1298h94 16-126z"/><path d="m-3438-1298h92 16-124z"/><path d="m-3344-402h-94-16 126z"/><path d="m-3218-834h94 16-126z"/><path d="m-3438-834h92 16-124z"/><path d="m-3218-386h94 16-126z"/><path d="m-3438-386h94 16-126z"/><path d="m-3218 894h94 16-126z"/><path d="m-3438 894h94 16-126z"/><path d="m-3218 478h94 16-126z"/><path d="m-3438 478h94 16-126z"/><path d="m-3218 1294h94 16-126z"/><path d="m-3438 1294h94 16-126z"/><path d="m-3218 1694h94 16-126z"/><path d="m-3438 1694h94 16-126z"/><path d="m-3344 2766h-94-16 126z"/><path d="m-3218 2414h94 16-126z"/><path d="m-3438 2414h94 16-126z"/><path d="m-3218 2094h94 16-126z"/><path d="m-3438 2094h94 16-126z"/><path d="m-3218 2782h94 16-126z"/><path d="m-3438 2782h94 16-126z"/><path d="m-3220 3438h96 16-128z"/><path d="m-3438 3438h90 16-122z"/><path d="m-3220 3118h96 16-128z"/><path d="m-3438 3118h90 16-122z"/><path d="m-3220 3742h96 16-128z"/><path d="m-3438 3742h90 16-122z"/><path d="m-3454-4086v72z"/><path d="m-3108-4014v152 72-64z"/><path d="m-3124-3790h16z"/><path d="m-3214-3790h-16-208 100z"/><path d="m-3108-4086h-122z"/><path d="m-3230-4086h-224v72 152h224z"/><path d="m-3454-3862v72h16 208v-72z"/><path d="m-3108-3862v-152-72h-122v224z"/><path d="m-3214-3790h90 16v-72h-122v72z"/><path d="m-3218-3274v24 16 24z"/><path d="m-3218-2810v24 16 24z"/><path d="m-3218-2282v24 16 24z"/><path d="m-3218-1818v24 16 24z"/><path d="m-3218-1338v24 16 24z"/><path d="m-3218-874v24 16 24z"/><path d="m-3218 438v24 16 24z"/><path d="m-3218 854v24 16 24z"/><path d="m-3218 1254v24 16 24z"/><path d="m-3218 1654v24 16 24z"/><path d="m-3218 2054v24 16 24z"/><path d="m-3218 2374v24 16 24z"/><path d="m-3234-3210h-96-16 128z"/><path d="m-3218-3274h-16v24h16z"/><path d="m-3234-3234v24h16v-24z"/><path d="m-3234-3234v-16-24h-96v24 16 24h96z"/><path d="m-3346-3234v24h16v-24z"/><path d="m-3330-3274h-16v24h16z"/><path d="m-3234-2746h-96-16 128z"/><path d="m-3218-2810h-16v24h16z"/><path d="m-3234-2770v24h16v-24z"/><path d="m-3234-2770v-16-24h-96v24 16 24h96z"/><path d="m-3346-2770v24h16v-24z"/><path d="m-3330-2810h-16v24h16z"/><path d="m-3234-2218h-96-16 128z"/><path d="m-3218-2282h-16v24h16z"/><path d="m-3234-2242v24h16v-24z"/><path d="m-3234-2242v-16-24h-96v24 16 24h96z"/><path d="m-3346-2242v24h16v-24z"/><path d="m-3330-2282h-16v24h16z"/><path d="m-3234-1754h-96-16 128z"/><path d="m-3218-1818h-16v24h16z"/><path d="m-3234-1778v24h16v-24z"/><path d="m-3234-1778v-16-24h-96v24 16 24h96z"/><path d="m-3346-1778v24h16v-24z"/><path d="m-3330-1818h-16v24h16z"/><path d="m-3234-1274h-96-16 128z"/><path d="m-3218-1338h-16v24h16z"/><path d="m-3234-1298v24h16v-24z"/><path d="m-3234-1298v-16-24h-96v24 16 24h96z"/><path d="m-3346-1298v24h16v-24z"/><path d="m-3330-1338h-16v24h16z"/><path d="m-3234-810h-96-16 128z"/><path d="m-3218-874h-16v24h16z"/><path d="m-3234-834v24h16v-24z"/><path d="m-3234-834v-16-24h-96v24 16 24h96z"/><path d="m-3346-834v24h16v-24z"/><path d="m-3330-874h-16v24h16z"/><path d="m-3328-10h94 16-126z"/><path d="m-3218-426h-16v24h16z"/><path d="m-3234-386v24h16v-24z"/><path d="m-3234-386v-16-24h-94v24 16 24h94z"/><path d="m-3328-426h-16v24h16z"/><path d="m-3344-386v24h16v-24z"/><path d="m-3344-386v-16-24 64z"/><path d="m-3218-10h-16v24h16z"/><path d="m-3234 30v24h16v-24z"/><path d="m-3234 30v-16-24h-94v24 16 24h94z"/><path d="m-3344 30v24h16v-24z"/><path d="m-3328-10h-16v24h16z"/><path d="m-3344 30v-16-24 64z"/><path d="m-3234 918h-94-16 126z"/><path d="m-3234 502h-94-16 126z"/><path d="m-3218 438h-16v24h16z"/><path d="m-3234 478v24h16v-24z"/><path d="m-3234 478v-16-24h-94v24 16 24h94z"/><path d="m-3344 478v24h16v-24z"/><path d="m-3328 438h-16v24h16z"/><path d="m-3218 854h-16v24h16z"/><path d="m-3234 894v24h16v-24z"/><path d="m-3234 894v-16-24h-94v24 16 24h94z"/><path d="m-3344 894v24h16v-24z"/><path d="m-3328 854h-16v24h16z"/><path d="m-3234 1318h-94-16 126z"/><path d="m-3218 1254h-16v24h16z"/><path d="m-3234 1294v24h16v-24z"/><path d="m-3234 1294v-16-24h-94v24 16 24h94z"/><path d="m-3344 1294v24h16v-24z"/><path d="m-3328 1254h-16v24h16z"/><path d="m-3234 1718h-94-16 126z"/><path d="m-3218 1654h-16v24h16z"/><path d="m-3234 1694v24h16v-24z"/><path d="m-3234 1694v-16-24h-94v24 16 24h94z"/><path d="m-3328 1654h-16v24h16z"/><path d="m-3344 1694v24h16v-24z"/><path d="m-3234 2438h-94-16 126z"/><path d="m-3328 2374h94 16-126z"/><path d="m-3234 2118h-94-16 126z"/><path d="m-3218 2054h-16v24h16z"/><path d="m-3234 2094v24h16v-24z"/><path d="m-3234 2094v-16-24h-94v24 16 24h94z"/><path d="m-3328 2054h-16v24h16z"/><path d="m-3344 2094v24h16v-24z"/><path d="m-3218 2374h-16v24h16z"/><path d="m-3234 2414v24h16v-24z"/><path d="m-3234 2414v-16-24h-94v24 16 24h94z"/><path d="m-3344 2414v24h16v-24z"/><path d="m-3328 2374h-16v24h16z"/><path d="m-3344 2782v-16-24 64z"/><path d="m-3328 2766h94 16v-24h-126v24z"/><path d="m-3234 2782v24h16v-24z"/><path d="m-3328 2766v16 24h94v-24-16z"/><path d="m-3344 2782v24h16v-24z"/><path d="m-3220 3078h-16v24h16z"/><path d="m-3236 3118v24h16v-24z"/><path d="m-3220 3078v24 16 24z"/><path d="m-3236 3118v-16-24h-96v24 16 24h96z"/><path d="m-3332 3078h-16v24h16z"/><path d="m-3348 3118v24h16v-24z"/><path d="m-3236 3438v24h16v-24z"/><path d="m-3220 3398h-16v24h16z"/><path d="m-3220 3398v24 16 24z"/><path d="m-3236 3438v-16-24h-96v24 16 24h96z"/><path d="m-3332 3398h-16v24h16z"/><path d="m-3348 3438v24h16v-24z"/><path d="m-3332 3702h96 16-128z"/><path d="m-3220 3702h-16v24h16z"/><path d="m-3236 3742v24h16v-24z"/><path d="m-3236 3742v-16-24h-96v24 16 24h96z"/><path d="m-3332 3702h-16v24h16z"/><path d="m-3348 3742v24h16v-24z"/><path d="m-373.8759 163.4935-.0004 64.029-.1237-.0001v-63.9875z"/><path d="m-373.8759 163.4935 125.8759-.006v22.089l-125.8763 41.946z"/><path d="m-374 227.5224.1237.0001-.1237.0412-2.072.6903-53.5431 17.8439-73.8392-18.4704-.5287-.1315z"/><path d="m-374 227.5224-129.983-.0264v-20.617l127.5644-42.5374 2.4186-.8067z"/><path d="m-374 227.5637.1237-.0412 125.8763-41.946v42.689l-128.072-.0115z"/><path d="m-256 260h-23.4792z"/><path d="m-1016 288v-144h120v144z"/><path d="m-640 116v16z"/><path d="m-880 30h240v86 16 122h-240z"/><path d="m-640 254v6 174h-240v-180z"/><path d="m-3108 4066h-122z"/><path d="m480 30h-64-72z"/><path d="m256 30h-136-88 88 120z"/><path d="m-104 30h-120z"/><path d="m-248 30h24 120z"/><path d="m120 434h-88-136 72z"/><path d="m344 434h-88-136 72z"/><path d="m344 434h136-136-88z"/><path d="m-248 434h24z"/><path d="m-2704 632h-112-112 112z"/><path d="m-2480 632h-80-32-112 112 32z"/><path d="m-2480 632h32-112z"/><path d="m-2560 632h-32z"/><path d="m-3230 4066h-224v-80h16 208z"/><path d="m-3214 3986h90 16v80h-122v-80z"/><path d="m-3220 3702v64h-128v-64z"/><path d="m-3220 3398v64h-128v-64z"/><path d="m-3220 3078v64h-128v-64z"/><path d="m-3344 2742h126v64h-126z"/><path d="m-3218 2374v64h-126v-64z"/><path d="m-3218 2054v64h-126v-64z"/><path d="m-3218 1654v64h-126v-64z"/><path d="m-3344 1318v-64h126v64z"/><path d="m-3344 918v-64h126v64z"/><path d="m-3344 502v-64h126v64z"/><path d="m-3344-10h126v64h-126z"/><path d="m-3344-426h126v64h-126z"/><path d="m-3218-874v64h-128v-64z"/><path d="m-3218-1338v64h-128v-64z"/><path d="m-3218-1818v64h-128v-64z"/><path d="m-3218-2282v64h-128v-64z"/><path d="m-3218-2810v64h-128v-64z"/><path d="m-3218-3274v64h-128v-64z"/><path d="m-3124-3790h16v178 46h-16z"/><path d="m-3108-3566v178 46h-16v-224z"/><path d="m-3108-3342v178 46h-16v-224z"/><path d="m-3108-3118v178 46h-16v-224z"/><path d="m-3108-2894v178 46h-16v-224z"/><path d="m-3108-2670v178 46h-16v-224z"/><path d="m-3108-2446v178 46h-16v-224z"/><path d="m-3108-2222v178 46h-16v-224z"/><path d="m-3108-1998v178 46h-16v-224z"/><path d="m-3108-1774v178 46h-16v-224z"/><path d="m-3108-1550v178 46h-16v-224z"/><path d="m-3108-1326v178 46h-16v-224z"/><path d="m-3108-1102v178 46h-16v-224z"/><path d="m-3108-878v178 46h-16v-224z"/><path d="m-3108-654v178 46h-16v-224z"/><path d="m-3108-430v178 46h-16v-224z"/><path d="m-3108-206v178 46h-16v-224z"/><path d="m-3108 18v178 46h-16v-224z"/><path d="m-3108 242v178 46h-16v-224z"/><path d="m-3108 466v178 46h-16v-224z"/><path d="m-3108 690v178 46h-16v-224z"/><path d="m-3108 914v178 46h-16v-224z"/><path d="m-3108 1138v180 44h-16v-224z"/><path d="m-3108 1362v20 204h-16v-224z"/><path d="m-3108 1586v20 204h-16v-224z"/><path d="m-3108 1810v20 204h-16v-224z"/><path d="m-3108 2034v20 204h-16v-224z"/><path d="m-3108 2258v20 204h-16v-224z"/><path d="m-3108 2482v20 204h-16v-224z"/><path d="m-3108 2706v20 204h-16v-224z"/><path d="m-3108 2930v20 204h-16v-224z"/><path d="m-3108 3154v20 204h-16v-224z"/><path d="m-3108 3378v20 204h-16v-224z"/><path d="m-3108 3602v16 208h-16v-224z"/><path d="m-3108 3826v16 144h-16v-160z"/><path d="m-3454-3578v-212h16v160 64h-16z"/><path d="m-3438-3566v160 64h-16v-12-212z"/><path d="m-3438-3342v160 64h-16v-12-212z"/><path d="m-3438-3118v160 64h-16v-12-212z"/><path d="m-3438-2894v160 64h-16v-12-212z"/><path d="m-3438-2670v160 64h-16v-12-212z"/><path d="m-3438-2446v160 64h-16v-12-212z"/><path d="m-3438-2222v160 64h-16v-12-212z"/><path d="m-3438-1998v160 64h-16v-12-212z"/><path d="m-3438-1774v160 64h-16v-12-212z"/><path d="m-3438-1550v160 64h-16v-12-212z"/><path d="m-3438-1326v160 64h-16v-172-52z"/><path d="m-3438-1102v160 64h-16v-220-4z"/><path d="m-3438-878v160 64h-16v-46-110-64-4z"/><path d="m-3438-654v160 64h-16v-46-178z"/><path d="m-3438-430v160 64h-16v-46-178z"/><path d="m-3438-206v160 64h-16v-46-178z"/><path d="m-3438 18v160 64h-16v-46-178z"/><path d="m-3438 242v160 64h-16v-46-178z"/><path d="m-3438 466v160 64h-16v-46-178z"/><path d="m-3438 690v160 64h-16v-46-178z"/><path d="m-3438 914v160 64h-16v-46-178z"/><path d="m-3438 1138v160 64h-16v-140-84z"/><path d="m-3438 1362v160 64h-16v-140-84z"/><path d="m-3438 1586v160 64h-16v-140-84z"/><path d="m-3438 1810v160 64h-16v-140-84z"/><path d="m-3438 2034v160 64h-16v-140-84z"/><path d="m-3438 2258v160 64h-16v-204-20z"/><path d="m-3438 2482v160 64h-16v-204-20z"/><path d="m-3438 2706v160 64h-16v-204-20z"/><path d="m-3438 2930v160 64h-16v-204-20z"/><path d="m-3438 3154v160 64h-16v-204-20z"/><path d="m-3438 3378v160 64h-16v-204-20z"/><path d="m-3438 3602v160 64h-16v-208-16z"/><path d="m-3438 3826v160h-16v-144-16z"/><path d="m-3338-3862v24 48h-100-16v-12-60z"/><path d="m-3210-3862v-224h72 30v26 198z"/><path d="m-3108-3836v46h-16-86v-48-24h102z"/><path d="m-3330-3838h112 8v48h-4-124v-48z"/><path d="m-3230-3862h-100-8-116v-164-58-2h224z"/><path d="m-3210-4086v224h-20v-224z"/><path d="m-3230-4086h-224 28z"/><path d="m-3108 3602v-204 132 88z"/><path d="m-3108 1362v-44 64z"/><path d="m-3108 1138v-46 198 28z"/><path d="m-3108-4086v26z"/><path d="m-3454 3842v144 80-88z"/><path d="m-3454 3618v208 16-88z"/><path d="m-3454 3174v204 20-104-32z"/><path d="m-3454 2950v204 20-136z"/><path d="m-3454 2726v204 20-136z"/><path d="m-3454 2502v204 20-136z"/><path d="m-3454 2278v204 20-136z"/><path d="m-3454 1894v140 84-156z"/><path d="m-3454 1670v140 84-156z"/><path d="m-3454 1446v140 84-156z"/><path d="m-3454 1222v140 84-156z"/><path d="m-3454 868v46 178z"/><path d="m-3454 644v46 178-158-32z"/><path d="m-3454 420v46 178-190z"/><path d="m-3454 196v46 178-166-32z"/><path d="m-3454-28v46 178-198z"/><path d="m-3454-252v46 178-150-32z"/><path d="m-3454-476v46 178-182z"/><path d="m-3454-700v46 178-118-32z"/><path d="m-3454-1098v220 4-200z"/><path d="m-3454-1562v12 212-184-32z"/><path d="m-3454-1786v12 212-216z"/><path d="m-3454-2010v12 212z"/><path d="m-3454-2234v12 212-8-32z"/><path d="m-3454-2458v12 212-40z"/><path d="m-3454-2682v12 212-56-32z"/><path d="m-3454-2906v12 212-88z"/><path d="m-3454-3130v12 212-104-32z"/><path d="m-3454-3354v12 212-136z"/><path d="m-3454-3578v12 212-136z"/><path d="m-3454-3802v12 212-136z"/><path d="m-3454-4026v164 60-136z"/><path d="m-3338-3862h8z"/><path d="m-3230-3862h20-8-112z"/><path d="m-3214 3986h-16-208 30 178z"/><path d="m-3210-3790h86-90z"/><path d="m-3218-426v24 16 24z"/><path d="m-3218-10v24 16 24z"/><path d="m-3218 2742v24 16 24z"/><path d="m-3124-3566v224z"/><path d="m-3124-3342v224-116-16z"/><path d="m-3124-3118v224-116z"/><path d="m-3124-2894v224-100-16z"/><path d="m-3124-2670v224-100z"/><path d="m-3124-2446v224-20-16-64z"/><path d="m-3124-2222v224-20z"/><path d="m-3124-1998v224-4-16z"/><path d="m-3124-1774v224-4z"/><path d="m-3124-1550v224z"/><path d="m-3124-1326v224-196-16z"/><path d="m-3124-1102v224-196z"/><path d="m-3124-878v224-180-16z"/><path d="m-3124-654v224-180z"/><path d="m-3124-430v224-180-16z"/><path d="m-3124-206v224-4-176z"/><path d="m-3124 18v224-212z"/><path d="m-3124 242v224-4-208z"/><path d="m-3124 466v224-212z"/><path d="m-3124 690v224-20-16-176z"/><path d="m-3124 914v224-20z"/><path d="m-3124 1138v224-68-16z"/><path d="m-3124 1362v224-68z"/><path d="m-3124 1586v224-116-16z"/><path d="m-3124 1810v224-116z"/><path d="m-3124 2034v224-164-16z"/><path d="m-3124 2258v224-68-16-80z"/><path d="m-3124 2482v224-68z"/><path d="m-3124 2706v224-148-16z"/><path d="m-3124 2930v224-36-16-96z"/><path d="m-3124 3154v224-36z"/><path d="m-3124 3378v224-164-16z"/><path d="m-3124 3602v224-84-16-64z"/><path d="m-3124 3826v160-20z"/><path d="m-3348 3142v-24-16-24z"/><path d="m-3348 3462v-24-16-24z"/><path d="m-3348 3766v-24-16-24z"/><path d="m-3218 54h-16-94-16z"/><path d="m-3346-1818h16 96 16z"/><path d="m-3346-2810h16 96 16z"/><path d="m-3346-3274h16 96 16z"/><path d="m-3346-3210v-24-16-24z"/><path d="m-3346-2282h16 96 16z"/><path d="m-3346-2746v-24-16-24z"/><path d="m-3346-2218v-24-16-24z"/><path d="m-3346-874h16 96 16z"/><path d="m-3346-1338h16 96 16z"/><path d="m-3346-1754v-24-16-24z"/><path d="m-3346-1274v-24-16-24z"/><path d="m-3344-426h16 94 16z"/><path d="m-3346-810v-24-16-24z"/><path d="m-3218-362h-16-94-16z"/><path d="m-3344 2054h16 94 16z"/><path d="m-3344 438h16 94 16z"/><path d="m-3344 502v-24-16-24z"/><path d="m-3344 854h16 94 16z"/><path d="m-3344 918v-24-16-24z"/><path d="m-3344 1254h16 94 16z"/><path d="m-3344 1318v-24-16-24z"/><path d="m-3344 1654h16 94 16z"/><path d="m-3344 1718v-24-16-24z"/><path d="m-3348 3078h16 96 16z"/><path d="m-3344 2118v-24-16-24z"/><path d="m-3344 2438v-24-16-24z"/><path d="m-3344 2742h126z"/><path d="m-3218 2806h-16-94-16z"/><path d="m-3220 3462h-16-96-16z"/><path d="m-3348 3398h16 96 16z"/><path d="m-3220 3142h-16-96-16z"/><path d="m-3220 3766h-16-96-16z"/><path d="m-3220 3702v24 16 24z"/><path d="m-3438-3790v160z"/><path d="m-3108-3550h-16v6720h16z"/><path d="m-3438-3554h-16v6720h16z"/><path d="m-3338-3862h-116v24h116z"/><path d="m-3454-3838v-24z"/><path d="m-3338-3838h-116z"/><path d="m-3454-3862h116z"/><path d="m-3108-3862h-104v24h104z"/><path d="m-3108-3862v24z"/><path d="m-3108-3838h-104z"/><path d="m-3212-3862h104z"/><path d="m-3376 4008h-32v32h32z"/><path d="m-3330-3838h112z"/><path d="m-3218-3838h8z"/><path d="m-3218-3838v-8z"/><path d="m-3218-3846v-8z"/><path d="m-3218-3854v-8z"/><path d="m-3330-3846v8z"/><path d="m-3330-3854v8z"/><path d="m-3330-3862v8z"/><path d="m-3218-3838h-112v-8h112z"/><path d="m-3330-3846v-8h112v8z"/><path d="m-3330-3854v-8h112v8z"/><path d="m-3108 3170h-16z"/><path d="m-3124-3550h16z"/><path d="m-3108-3550v6720z"/><path d="m-3124 3170v-6720z"/><path d="m-3108 3170h-16v-6720h16z"/><path d="m-3438 3166h-16z"/><path d="m-3454-3554h16z"/><path d="m-3454 3166v-6720z"/><path d="m-3438-3554v6720z"/><path d="m-3438 3166h-16v-6720h16z"/><path d="m-3218-3846h-112v8h112z"/><path d="m-3218-3862h-112v8h112z"/><path d="m-640 164.0312v63.5967 32.3721-6-122z"/><path d="m-640 260v-32.3721z"/><path d="m-374.5547 132h95.9083 22.6464-23.4313-96.1934z"/><path d="m-576 182.3709v45.2566l-64 .0004v-63.5967l64 .0005z"/><path d="m-374.0353 260-2.0357-.5096.8735.5096z"/><path d="m-576 182.3709 72.017-18.0081v42.5162l-24.7357 14.4297-10.8315 6.3188h-36.4498z"/><path d="m-503.983 227.496.5287.1315h-36.0959l10.8315-6.3188z"/><path d="m-376.4292 132.4693 1.8745-.4693h-1.07z"/><path d="m-502.6561 164.0317-1.3269.3311-72.017 18.0081v-18.3392z"/><path d="m-503.983 227.496-24.7357-6.1873 24.7357-14.4297z"/><path d="m-374.5547 132-128.1014 32.0317.0097-32.0317z"/><path d="m-503.4543 227.6275 73.8392 18.4704 55.5798 13.9021h-129.4439z"/><path d="m-576 227.6275h72.5457l-.0249 32.3725h-136.5208v-32.3721z"/><path d="m-429.6151 246.0979 53.5431-17.8439.001 31.2364z"/><path d="m-503.983 164.3628 127.5644-.0212-127.5644 42.5374z"/><path d="m-376.4292 132.4693.0106 31.8723-127.5644.0212z"/><path d="m-692 96h-32v32h32z"/><path d="m-3408 4040v-32z"/><path d="m-3376 4008v32z"/><path d="m-3376 4040h-32z"/><path d="m-3408 4008h32z"/><path d="m-3376 4040h-32v-32h32z"/><path d="m-248 132v33z"/><path d="m-248 260v-32.6436z"/><path d="m-248 260h-8z"/><path d="m-3108 3398v-104z"/><path d="m-3108 3174v88 32 104-20z"/><path d="m-3108 2950v88 136-20z"/><path d="m-3108 2726v88 136-20z"/><path d="m-3108 2502v88 136-20z"/><path d="m-3108 2278v88 136-20z"/><path d="m-3108 2054v88 136-20z"/><path d="m-3108 1830v88 136-20z"/><path d="m-3108 1606v88 136-20z"/><path d="m-3108 1382v88 136-20z"/><path d="m-3108 1382v-64 64 88z"/><path d="m-3108 710v158z"/><path d="m-3108 420v-166 166 34z"/><path d="m-3108-28v-150 150 26z"/><path d="m-3108-476v-118 118 42z"/><path d="m-3108-924v-150 150 74z"/><path d="m-3108-1148v-190 190 42z"/><path d="m-3108-4060v-26 60z"/><path d="m-3108 868v224-178z"/><path d="m-3108 644v34 32 158-178z"/><path d="m-3108 420v34 190-178z"/><path d="m-3108 196v26 32 166-178z"/><path d="m-3108-28v26 198-178z"/><path d="m-3108-252v42 32 150-178z"/><path d="m-3108-476v42 182-178z"/><path d="m-3108-700v74 32 118-178z"/><path d="m-3108-924v74 150-178z"/><path d="m-3108-1148v42 32 150-178z"/><path d="m-3108-1372v34 190-178z"/><path d="m-3108-1596v34 190-178z"/><path d="m-3108-1820v34 190-178z"/><path d="m-3108-2044v34 190-178z"/><path d="m-3108-2268v34 190-178z"/><path d="m-3108-2492v34 190-178z"/><path d="m-3108-2716v34 190-178z"/><path d="m-3108-2940v34 190-178z"/><path d="m-3108-3164v34 190-178z"/><path d="m-3108-3388v34 190-178z"/><path d="m-3108-3612v34 190-178z"/><path d="m-3108-3836v34 190-178z"/><path d="m-3108-4060v34 190-26z"/><path d="m-3454 3294v104z"/><path d="m-3454 3038v136 88-88z"/><path d="m-3454 2814v136 88-88z"/><path d="m-3454 2590v136 88-88z"/><path d="m-3454 2366v136 88-88z"/><path d="m-3454 2142v136 88-88z"/><path d="m-3454 2142v-24 140 20z"/><path d="m-3454 868v224z"/><path d="m-3454 454v190 34-34z"/><path d="m-3454-2v198 26-26z"/><path d="m-3454-810v110z"/><path d="m-3454-810v110 74-74z"/><path d="m-3454-434v182 42-42z"/><path d="m-3454-810v-64z"/><path d="m-3454-1074v200z"/><path d="m-3454-1274v168z"/><path d="m-3454-1106v-168 172 4z"/><path d="m-3454-1274v-64 12z"/><path d="m-3108-4086h-30z"/><path d="m-3108-1786v-224-8 8 224 8z"/><path d="m-3108-2458v-56 56 184z"/><path d="m-3108-2906v-104 104 136z"/><path d="m-3108-4026v-60 60 88z"/><path d="m-3108-1562v8 32 184-34z"/><path d="m-3108-1786v8 216-34z"/><path d="m-3108-2010v224-34z"/><path d="m-3108-2234v184 32 8-34z"/><path d="m-3108-2458v184 40-34z"/><path d="m-3108-2682v136 32 56-34z"/><path d="m-3108-2906v136 88-34z"/><path d="m-3108-3130v88 32 104-34z"/><path d="m-3108-3354v88 136-34z"/><path d="m-3108-3578v88 136-34z"/><path d="m-3108-3802v88 136-34z"/><path d="m-3108-4026v88 136-34z"/><path d="m-3454-1778v216 8-8z"/><path d="m-3454-2274v40 184-184z"/><path d="m-3454-2770v88 136-136z"/><path d="m-3454-3266v136 88-88z"/><path d="m-3454-3490v136 88-88z"/><path d="m-3454-3714v136 88-88z"/><path d="m-3454-3938v136 88-88z"/><path d="m-3454-4084v58z"/><path d="m-3454-4084v-2z"/><path d="m-1648 412h-8v56h8z"/><path d="m-1648 468h-8v-56h8z"/><path d="m-1656 468h8 4-16z"/><path d="m-1648 412h-8-4 16z"/><path d="m-1648 468h-8z"/><path d="m-1656 468h-4z"/><path d="m-1656 412h8z"/><path d="m-1648 412h4z"/><path d="m-1648 468v-56z"/><path d="m-1648 412v56z"/><path d="m-1656 412v56z"/><path d="m-1656 468v-56z"/><path d="m-1656 468h-4v-56h4z"/><path d="m-1660 412h4z"/><path d="m-1656 468h-4z"/><path d="m-1660 468v-56z"/><path d="m-1656 412v56z"/><path d="m-1660 408v4z"/><path d="m-1660 412v56h16v-56z"/><path d="m-692 128h-32z"/><path d="m-724 128v-32z"/><path d="m-724 96h32z"/><path d="m-692 96v32z"/><path d="m-692 128h-32v-32h32z"/><path d="m-1644-8v32z"/><path d="m-1644 184v64 160-112z"/><path d="m-1644 472h-16v-64h16z"/><path d="m-1868 472h208 16z"/><path d="m-1660 472v-4-56-4z"/><path d="m-1644 408h-16z"/><path d="m-278.6464 132h22.6464z"/><path d="m-279.4792 260h-5.7309-130.7899-87.4792 129.4439z"/><path d="m-640 132v32.0312z"/><path d="m-416 132h130.7702 6.5834-95.9083-128.0917z"/><path d="m-416 132h-86.6464-137.3536 137.0655z"/><path d="m-285.2298 132h-130.7702 37.9115z"/><path d="m-502.6464 132-.0097 32.0317h-73.3439l-64-.0005v-32.0312z"/><path d="m-285.2101 260h-91.4195-39.3704z"/><path d="m-285.2101 260h37.2101v-32.6436l-125.1252.0079-3.4936 1.165-.0108 31.4707z"/><path d="m-1676-8h32-32-80z"/><path d="m-2796-8h-112-112 112z"/><path d="m-2572-8h-80-32-112 112 32z"/><path d="m-2348-8h-80-144 144z"/><path d="m-2124-8h-80-144 144z"/><path d="m-1900-8h-80-144 144z"/><path d="m-1676-8h-80-144 144z"/><path d="m-2652-8h-32z"/><path d="m-248 227.3564v-62.3564h-125.1252v62.3643z"/><path d="m-3202-4086h64-72-20z"/><path d="m-3138-4086v2z"/><path d="m-3202-4084h-224z"/><path d="m-3202-4086h-28-196v2h224z"/><path d="m-3138-4084v-2h-64v2z"/><path d="m-248 260v-31.4795-65.1659-31.3546 33 62.3564z"/><path d="m-248 260v16z"/><path d="m-248 132v31.3546 7.1025 25.4784 31.7188z"/><path d="m-640 276v-16z"/><path d="m-640 116v-86z"/><path d="m-2448 632h-32z"/><path d="m-2592 632h-112-112 112z"/><path d="m-2928 632h112z"/><path d="m-248 163.3546v65.1659l-125.1241.0086-.0011-1.1648v-62.3643l.0005-1.658z"/><path d="m-378.0885 132h-37.9115-86.9345l.0188 25.7149 112.5374 5.6254 12.2799.0012z"/><path d="m-3330-3838h-8z"/><path d="m-3218-3838h-112z"/><path d="m-3330-3862h112 8z"/><path d="m-3218-3862h8z"/><path d="m-3330-3846v8h112v-8z"/><path d="m-3330-3854v8h112v-8z"/><path d="m-3218-3862h-112v8h112z"/><path d="m-3218-3854h-112z"/><path d="m-3330-3854h112z"/><path d="m-3330-3846h112z"/><path d="m-3218-3846h-112z"/><path d="m-3218-3846v8z"/><path d="m-3330-3838v-8z"/><path d="m-3218-3838h-112v-8h112z"/><path d="m-3218-3838h-112z"/><path d="m-3330-3846h112z"/><path d="m-3218-3862v8z"/><path d="m-3330-3854v-8z"/><path d="m-3218-3854h-112v-8h112z"/><path d="m-3330-3862h112z"/><path d="m-3218-3854h-112z"/><path d="m-248 221.4163v7.1042 31.4795-6-26.3457-31.7188z"/><path d="m-416 260h-88.3653-135.6347 136.5208z"/><path d="m-3338-3862v24z"/><path d="m-3210-3838v-24z"/><path d="m-3330-3862h120v24h-8-112-8v-24z"/><path d="m-3338-3862v24z"/><path d="m-3274-3862h-64v24h64z"/><path d="m-3212-3838v-24z"/><path d="m-3212-3862h-62v24h62z"/><path d="m-2928 1112v-224z"/><path d="m-2928 888v-224z"/><path d="m-2928 632v32z"/><path d="m-2448 1112v-224z"/><path d="m-2448 664v224z"/><path d="m-2448 632v32z"/><path d="m-2928 1112h224z"/><path d="m-2704 1112h224z"/><path d="m-2480 1112h32z"/><path d="m-373.1247 163.342-.0005 1.658-4.9732-1.6585z"/><path d="m-373.1252 227.3643.0011 1.1648-3.4947.0002z"/><path d="m-373.1252 165h125.1252v-33h-30.6464-6.5834-92.8587l-.0099 31.3415z"/><path d="m-376.6188 228.5293 3.4947-.0002 125.1241-.0086v-7.1042l-126 6.2957-5.7643.288-10.6139.5303z"/><path d="m-374 164.159v31.7751l126 .0014v-25.4784z"/><path d="m-374 164.159v63.553-31.7779z"/><path d="m-640 132v-16z"/><path d="m-640 260v-31.6978z"/><path d="m-504.3653 260h88.3653 39.3704l.0108-31.4707-13.7594.001-113.9992 5.6963z"/><path d="m-504.3653 260-.0128-31.6977h-71.6219l-64-.0001v31.6978z"/><path d="m-377.1805 164 3.1805.159 126 6.2981v-7.1025l-125.1247-.0126-4.9737-.0005-12.2799-.0012z"/><path d="m-377.1805 164h-125.4615-31.358z"/><path d="m-379.7643 228 5.7643-.288v-63.553l-3.1805-.159h-156.8195v64z"/><path d="m-2684-8h-112-112 112z"/><path d="m-2908-8h-112z"/><path d="m-1644-8h-32z"/><path d="m-2428-8h-144-80 80z"/><path d="m-2204-8h-144-80 80z"/><path d="m-1980-8h-144-80 80z"/><path d="m-1756-8h-144-80 80z"/><path d="m-3202-4086h-224 196z"/><path d="m-3202-4084h-224v-2h224z"/><path d="m-3138-4086v2h-64v-2z"/><path d="m-3426-4084v-2z"/><path d="m-3138-4084h-64z"/><path d="m-640 30h-240z"/><path d="m-880 434h240z"/><path d="m-504.3774 234.2266 113.9992-5.6963 10.6139-.5303h-123.4044l-1.2094.3023z"/><path d="m480 432v-224z"/><path d="m480 208v-176-2z"/><path d="m480 434v-2z"/><path d="m-3020 472v-48-176z"/><path d="m-3020 248v-48-176z"/><path d="m-3020-8v32z"/><path d="m-1644 472v-64-160z"/><path d="m-1644 248v-64-160z"/><path d="m-1644-8v32z"/><path d="m-2636 296h-192z"/><path d="m-2252 296h-192z"/><path d="m-2060 296h160 32z"/><path d="m-2252 472v-176z"/><path d="m-1868 296v176z"/><path d="m-1644 472h-32-192z"/><path d="m-2060 296v176z"/><path d="m-2060 472h-64-128z"/><path d="m-2828 296v176z"/><path d="m-2636 472v-176z"/><path d="m-2444 296v176z"/><path d="m-2444 472h-128-64z"/><path d="m-2828 472h-192z"/><path d="m-374 195.9341v31.7779l126-6.2957v-25.4808z"/><path d="m-640 380.5681v-104.5681z"/><path d="m-640 434v-174 16 104.5681z"/><path d="m-640 163.9326v-31.9326z"/><path d="m-640 434v-53.4319-104.5681-16-31.6978-18.3022 44z"/><path d="m-640 210v-46.0674-31.9326-16-86z"/><path d="m-248 30h24z"/><path d="m-256 30h8z"/><path d="m-104 434h136z"/><path d="m-224 434h120z"/><path d="m-256 116h8v-86h-8z"/><path d="m-256 434h8v-158h-8z"/><path d="m-534 228.3023h29.6219l1.2094-.3023h-30.8313z"/><path d="m-502.642 164-.2698-.0674h-31.0882v.0674z"/><path d="m-104 254v-44-180h-120-24v86 16 95.6543 26.3457z"/><path d="m-248 260v16 158h24 120v-180h-144z"/><path d="m-576 163.9326v64.3697h42v-.3023-64-.0674z"/><path d="m-640 163.9326v46.0674 18.3022l64 .0001v-64.3697z"/><path d="m-104 210v44 180-180z"/><path d="m-256 116v-86z"/><path d="m-502.9118 163.9326.2698.0674h125.4615l-13.1978-.6597-112.5374-5.6254z"/><path d="m-576 163.9326h73.0882l-.0227-31.9326h-137.0655v31.9326z"/><path d="m-503.1687 228h123.4044-154.2357z"/><path d="m-640 434h-240z"/><path d="m480 30v178z"/><path d="m478 30h2-136-88z"/><path d="m32 30h-136z"/><path d="m120 30h-88-136 80z"/><path d="m480 434h-136z"/><path d="m256 434h-136-88 88z"/><path d="m240 30v178z"/><path d="m478 208v46 178-178z"/><path d="m478 254v-46-178h-222-16v178 46z"/><path d="m240 432h238v-178h-238z"/><path d="m-3454-3898h-2v112h2z"/><path d="m-3108 3294v-32z"/><path d="m-3108 3038v136 88-88z"/><path d="m-3108 2814v136 88-88z"/><path d="m-3108 2590v136 88-88z"/><path d="m-3108 2366v136 88-88z"/><path d="m-3108 2142v136 88-88z"/><path d="m-3108 1918v136 88-88z"/><path d="m-3108 1694v136 88-88z"/><path d="m-3108 1470v136 88-88z"/><path d="m-3108 1318v64z"/><path d="m-3108 710v-32z"/><path d="m-3108 868v224z"/><path d="m-3108 254v-32z"/><path d="m-3108 454v190 34-34z"/><path d="m-3108-178v-32z"/><path d="m-3108-2v198 26-26z"/><path d="m-3108-594v-32z"/><path d="m-3108-434v182 42-42z"/><path d="m-3108-1074v-32z"/><path d="m-3108-850v150 74-74z"/><path d="m-3108-1338v164 26z"/><path d="m-3108-1338v-184z"/><path d="m-3454 3262v32z"/><path d="m-3454 2118v24z"/><path d="m-3454 3174v88 32 104-92z"/><path d="m-3454 2950v88 136-92z"/><path d="m-3454 2726v88 136-92z"/><path d="m-3454 2502v88 136-92z"/><path d="m-3454 2278v88 136-92z"/><path d="m-3454 678v32z"/><path d="m-3454 710v158z"/><path d="m-3454 222v32z"/><path d="m-3454 420v-166 166 34z"/><path d="m-3454-210v32z"/><path d="m-3454-28v-150 150 26z"/><path d="m-3454-626v32z"/><path d="m-3454 868v224-26z"/><path d="m-3454 644v34 32 158-26z"/><path d="m-3454 420v34 190-26z"/><path d="m-3454 196v26 32 166-26z"/><path d="m-3454-28v26 198-26z"/><path d="m-3454-252v42 32 150-26z"/><path d="m-3454-476v42 182-26z"/><path d="m-3454-700v74 32 118-26z"/><path d="m-3454-476v-118 118 42z"/><path d="m-3454-1098v-8 8 24z"/><path d="m-3454-4086h28z"/><path d="m-3108-1522v-32z"/><path d="m-3108-1778v216 8-8z"/><path d="m-3108-2018v-32z"/><path d="m-3108-2514v-32z"/><path d="m-3108-2274v40 184-184z"/><path d="m-3108-2770v88 136-136z"/><path d="m-3108-3010v-32z"/><path d="m-3108-3266v136 88-88z"/><path d="m-3108-3490v136 88-88z"/><path d="m-3108-3714v136 88-88z"/><path d="m-3108-3938v136 88-88z"/><path d="m-3108-4086v60z"/><path d="m-3454-1554v32z"/><path d="m-3454-1338v-184z"/><path d="m-3454-1786v-224-8 8 224 8z"/><path d="m-3454-2050v32z"/><path d="m-3454-2546v32z"/><path d="m-3454-2458v-56 56 184z"/><path d="m-3454-2906v-104 104 136z"/><path d="m-3454-3042v32z"/><path d="m-3454-4026v-58 58 88z"/><path d="m-3454-1562v8 32 184-60z"/><path d="m-3454-1786v8 216-60z"/><path d="m-3454-2010v224-60z"/><path d="m-3454-2234v184 32 8-60z"/><path d="m-3454-2458v184 40-60z"/><path d="m-3454-2682v136 32 56-60z"/><path d="m-3454-2906v136 88-60z"/><path d="m-3454-3130v88 32 104-60z"/><path d="m-3454-3354v88 136-60z"/><path d="m-3454-3578v88 136-60z"/><path d="m-3454-3802v88 136-60z"/><path d="m-3454-4026v88 136-60z"/><path d="m480 30h-2z"/><path d="m-24 30h-80-144 99z"/><path d="m200 30h-80-144 99z"/><path d="m424 30h-184-40 99z"/><path d="m200 30h40-120z"/><path d="m-248 30h-8z"/><path d="m-104 30v180z"/><path d="m240 208v46 178-178z"/><path d="m478 432h-238z"/><path d="m478 30v178z"/><path d="m240 254v-46-178h184 54v178 46z"/><path d="m478 432h-238v-178h238z"/><path d="m-576 210v146 60 18-78z"/><path d="m-256 30v102z"/><path d="m-256 254v-122-102h8 144v180 44z"/><path d="m-104 434h-144-8v-174-6h152z"/><path d="m-352 132h-96-52-16-60z"/><path d="m-448 132h96 96v122 6h-30.2502-161.7498z"/><path d="m-500 352v-220h52v128 96h-52z"/><path d="m-448 356v78h-52v-18-4-56z"/><path d="m-286.2502 260h30.2502-184.5165z"/><path d="m-448 260h161.7498-154.2663z"/><path d="m-448 434v-78-96z"/><path d="m-516 132h16v220h-16z"/><path d="m-576 210v-78h60v220 4h-60z"/><path d="m-516 356v60h-60v-60z"/><path d="m-516 356v-4 4 56 4z"/><path d="m-516 416h16v18h-76v-18z"/></g><g id="c"><path d="m-500 356v-4 4 56z"/><path d="m-516 416h16z"/><path d="m-500 352h-16z"/><path d="m-500 356v56h-12-4v-56z"/><path d="m-500 356h-16 4 8z"/><path d="m-516 412h4z"/><path d="m-512 412h12-4z"/><path d="m-3230 4066h-224z"/><path d="m-500 356v-4z"/><path d="m-516 356h4z"/><path d="m-500 412h-4z"/><path d="m-504 356h-8v56h8z"/><path d="m-504 412h-8v-56h8z"/><path d="m-3108-4086h-30-64z"/><path d="m-3108 3842v136 88-80z"/><path d="m-3108 3618v136 88-16z"/><path d="m-3108 3174v132 92-104-32z"/><path d="m-3108 2950v132 92-136z"/><path d="m-3108 2726v132 92-136z"/><path d="m-3108 2502v132 92-136z"/><path d="m-3108 2278v132 92-136z"/><path d="m-3108 2054v132 92-136z"/><path d="m-3108 1830v132 92-136z"/><path d="m-3108 1606v132 92-136z"/><path d="m-3108 1382v132 92-136z"/><path d="m-3108 868v198 26z"/><path d="m-3108 644v198 26-158-32z"/><path d="m-3108 420v198 26-190z"/><path d="m-3108 196v198 26-166-32z"/><path d="m-3108-28v198 26-198z"/><path d="m-3108-252v198 26-150-32z"/><path d="m-3108-476v198 26-182z"/><path d="m-3108-700v198 26-118-32z"/><path d="m-3108-924v198 26-150z"/><path d="m-3108-1148v198 26-150-32z"/><path d="m-3108-1562v164 60-184-32z"/><path d="m-3108-1786v164 60-216z"/><path d="m-3108-2010v164 60z"/><path d="m-3108-2234v164 60-8-32z"/><path d="m-3108-2458v164 60-40z"/><path d="m-3108-2682v164 60-56-32z"/><path d="m-3108-2906v164 60-88z"/><path d="m-3108-3130v164 60-104-32z"/><path d="m-3108-3354v164 60-136z"/><path d="m-3108-3578v164 60-136z"/><path d="m-3108-3802v164 60-136z"/><path d="m-3108-4026v164 60-136z"/><path d="m-3454 3530v-132 204 16z"/><path d="m-3454 2186v-68 24 136z"/><path d="m-3454 1092v46 84z"/><path d="m-3454-726v-84 110z"/><path d="m-3454-874v-76-148 24z"/><path d="m-3454-1098v-76-100 168z"/><path d="m-3454-4086v2 58z"/><path d="m-3230-4086h-196-28v60 164h224z"/><path d="m-3454-3862v60 164h224v-224z"/><path d="m-3454-3638v60 164h224v-224z"/><path d="m-3454-3414v60 164h224v-224z"/><path d="m-3454-3190v60 164h224v-224z"/><path d="m-3454-2966v60 164h224v-224z"/><path d="m-3454-2742v60 164h224v-224z"/><path d="m-3454-2518v60 164h224v-224z"/><path d="m-3454-2294v60 164h224v-224z"/><path d="m-3454-2070v60 164h224v-224z"/><path d="m-3454-1846v60 164h224v-224z"/><path d="m-3454-1622v60 164h224v-224z"/><path d="m-3454-1398v60 64 100h224v-224z"/><path d="m-3454-1174v76 148h224v-224z"/><path d="m-3454-950v76 64 84h224v-224z"/><path d="m-3454-726v26 198h224v-224z"/><path d="m-3454-502v26 198h224v-224z"/><path d="m-3454-278v26 198h224v-224z"/><path d="m-3454-54v26 198h224v-224z"/><path d="m-3454 170v26 198h224v-224z"/><path d="m-3454 394v26 198h224v-224z"/><path d="m-3454 618v26 198h224v-224z"/><path d="m-3454 842v26 198h224v-224z"/><path d="m-3454 1066v26 130 68h224v-224z"/><path d="m-3454 1290v156 68h224v-224z"/><path d="m-3454 1514v156 68h224v-224z"/><path d="m-3454 1738v156 68h224v-224z"/><path d="m-3454 1962v156 68h224v-224z"/><path d="m-3454 2186v92 132h224v-224z"/><path d="m-3454 2410v92 132h224v-224z"/><path d="m-3454 2634v92 132h224v-224z"/><path d="m-3454 2858v92 132h224v-224z"/><path d="m-3454 3082v92 132h224v-224z"/><path d="m-3454 3306v92 132h224v-224z"/><path d="m-3454 3530v88 136h224v-224z"/><path d="m-3454 3754v88 136h224v-224z"/><path d="m-3454 3978v88h224v-88z"/><path d="m-3108-4026v-60h-94-28v224h122z"/><path d="m-3230-3862v224h122v-164-60z"/><path d="m-3230-3638v224h122v-164-60z"/><path d="m-3230-3414v224h122v-164-60z"/><path d="m-3230-3190v224h122v-164-60z"/><path d="m-3230-2966v224h122v-164-60z"/><path d="m-3230-2742v224h122v-164-60z"/><path d="m-3230-2518v224h122v-164-60z"/><path d="m-3230-2294v224h122v-164-60z"/><path d="m-3230-2070v224h122v-164-60z"/><path d="m-3230-1846v224h122v-164-60z"/><path d="m-3230-1622v224h122v-164-60z"/><path d="m-3230-1398v224h122v-164-60z"/><path d="m-3230-1174v224h122v-198-26z"/><path d="m-3230-950v224h122v-198-26z"/><path d="m-3230-726v224h122v-198-26z"/><path d="m-3230-502v224h122v-198-26z"/><path d="m-3230-278v224h122v-198-26z"/><path d="m-3230-54v224h122v-198-26z"/><path d="m-3230 170v224h122v-198-26z"/><path d="m-3230 394v224h122v-198-26z"/><path d="m-3230 618v224h122v-198-26z"/><path d="m-3230 842v224h122v-198-26z"/><path d="m-3230 1066v224h122v-198-26z"/><path d="m-3230 1290v224h122v-132-64-28z"/><path d="m-3230 1514v224h122v-132-92z"/><path d="m-3230 1738v224h122v-132-92z"/><path d="m-3230 1962v224h122v-132-92z"/><path d="m-3230 2186v224h122v-132-92z"/><path d="m-3230 2410v224h122v-132-92z"/><path d="m-3230 2634v224h122v-132-92z"/><path d="m-3230 2858v224h122v-132-92z"/><path d="m-3230 3082v224h122v-132-92z"/><path d="m-3230 3306v224h122v-132-92z"/><path d="m-3230 3530v224h122v-136-88z"/><path d="m-3230 3754v224h122v-136-88z"/><path d="m-3230 3978v88h122v-88z"/><path d="m-3274-3862v24z"/><path d="m-3274-3838h-64v-24h64z"/><path d="m-3274-3838h-64z"/><path d="m-3338-3862h64z"/><path d="m-3338-3838h-116v-24h116z"/><path d="m-3108-3838h-104v-24h104z"/><path d="m-3274-3838v-24z"/><path d="m-3212-3838h-62v-24h62z"/><path d="m-3212-3838h-62z"/><path d="m-3274-3862h62z"/><path d="m-500 356h-4v56h4z"/><path d="m-512 356h-4v56h4z"/><path d="m-3456-3898h2z"/><path d="m-3454-3786h-2z"/><path d="m-3454-3786h-2v-112h2z"/><path d="m-3454-3898v112z"/><path d="m-3456-3786v-112z"/><path d="m-2704 632h-112-112z"/><path d="m-2480 632h-80-32-112z"/><path d="m-2480 632h32-32-80z"/><path d="m-2560 632h-32z"/><path d="m-1016 144v144h120v-144z"/><path d="m-1016 144h120z"/><path d="m-896 288h-120z"/><path d="m-1016 288v-144z"/><path d="m-896 144v144z"/><path d="m-880 30v224z"/><path d="m-880 254v180z"/><path d="m-880 30h240z"/><path d="m-576 356v78h47.2498v-30.7497-47.2503z"/><path d="m-576 132v78z"/><path d="m-256 132v47.2506z"/><path d="m-256 132h-96z"/><path d="m-352 132h-224l47.2498 47.2503h41.25 135.5002z"/><path d="m-440.5165 260h184.5165v-46.9924l-231.5002-.0004z"/><path d="m-256 260v174z"/><path d="m-2652-8h-32z"/><path d="m-2796-8h-112-112 192z"/><path d="m-2572-8h-80-32-112z"/><path d="m-2348-8h-80-144z"/><path d="m-2124-8h-80-144 96z"/><path d="m-1900-8h-80-144 64z"/><path d="m-1676-8h-80-144 32z"/><path d="m-1676-8h32-32-80z"/><path d="m-448 260h7.4835l-46.9837-46.9928v46.9928z"/><path d="m-516 412v4z"/><path d="m-504 412h-8v-56h8z"/><path d="m-504 356h-8v56h8z"/><path d="m-504 356h-8-4 16z"/><path d="m-512 412h8 4-16z"/><path d="m-512 356h8z"/><path d="m-504 356h4z"/><path d="m-504 412h-8z"/><path d="m-504 412v-56z"/><path d="m-504 356v56z"/><path d="m-512 356v56z"/><path d="m-512 412v-56z"/><path d="m-500 412h-4v-56h4z"/><path d="m-500 412h-4z"/><path d="m-504 356h4z"/><path d="m-500 356v56z"/><path d="m-504 412v-56z"/><path d="m-512 412h-4v-56h4z"/><path d="m-512 412h-4z"/><path d="m-516 356h4z"/><path d="m-516 412v-56z"/><path d="m-512 356v56z"/><path d="m-500 356v56z"/><path d="m-516 356v56h16v-56z"/><path d="m-500 416v-4z"/><path d="m-516 356v-4h16v4 56 4h-16z"/><path d="m-516 352v4z"/><path d="m-516 416v-4-56z"/><path d="m-528.7502 179.2503-47.2498-47.2503v78 146h47.2498z"/><path d="m-256 434h8z"/><path d="m-487.5002 434h-41.25-47.2498 76 52z"/><path d="m-256 213.0076v46.9924z"/><path d="m-256 210v3.0076 46.9924 174-180z"/><path d="m-256 213.0076v-3.0076-30.7494l-96-.0003h-135.5002v33.7569z"/><path d="m-487.5002 260v-46.9928-33.7569h-41.25v176.7497 47.2503h41.25z"/><path d="m-528.7502 403.2503v30.7497h41.25v-30.7497z"/><path d="m-256 179.2506v-47.2506h-96v47.2503z"/><path d="m-487.5002 260v143.2503 30.7497h39.5002v-174z"/><path d="m-248 254v-44-180h-8v102 78 44z"/><path d="m-256 434h8v-180h-8z"/><path d="m-248 210v44 180z"/><path d="m-256 132v47.2506 30.7494z"/><path d="m-450 254v180h77v-180z"/><path d="m-248 434h-125-77z"/><path d="m-248 434h144-45z"/><path d="m-248 30v180z"/><path d="m-248 210v224h-202v-180-44z"/><path d="m-248 30v180h-202v-180z"/><path d="m-2928 1112v-224z"/><path d="m-2928 888v-224z"/><path d="m-2928 632v32z"/><path d="m-2928 632h224z"/><path d="m-2704 632h224z"/><path d="m-2448 632h-32z"/><path d="m-2448 1112v-224z"/><path d="m-2448 664v224z"/><path d="m-2448 632v32z"/><path d="m-2928 1112h224z"/><path d="m-2704 1112h224z"/><path d="m-2480 1112h32z"/><path d="m-880 254v-224z"/><path d="m-880 434v-180z"/><path d="m-640 254v-44-180h-240v224z"/><path d="m-880 434h240v-180h-240z"/><path d="m-1628-24v64z"/><path d="m496 30v-6 192z"/><path d="m-149 30h-99-125v-6h224z"/><path d="m75 30h-99-125v-6h224z"/><path d="m299 30h-99-125v-6h224z"/><path d="m496 24v6h-16-56-125v-6z"/><path d="m480 208v-178h16v186 38h-16z"/><path d="m496 254v186h-16v-6-2-178z"/><path d="m-149 440h-224v-6h125 99z"/><path d="m75 440h-224v-6h45 179z"/><path d="m299 440h-224v-6h45 179z"/><path d="m344 434h136v6h-181v-6z"/><path d="m-149 24h-224 14z"/><path d="m75 24h-224 14z"/><path d="m299 24h-224 14z"/><path d="m480 440h16-183-14z"/><path d="m-373 248v6 180 6h14v-192z"/><path d="m480 208v46 178z"/><path d="m480 432v2z"/><path d="m-373 248v-218h-77v180 44h77z"/><path d="m480 30h-2-54z"/><path d="m-248 30h-202 77z"/><path d="m120 434h-45-179 136z"/><path d="m344 434h-45-179 136z"/><path d="m-3036 264v160 64-64z"/><path d="m-3036 40v160 64-64z"/><path d="m-2812-24h-208-16z"/><path d="m-2588-24h-208-16z"/><path d="m-2364-24h-208-16z"/><path d="m-2140-24h-208-16z"/><path d="m-1916-24h-208-16z"/><path d="m-1692-24h-208-16z"/><path d="m-1676 488h32 16-64z"/><path d="m-2796-8h-32-192v-16h208 16z"/><path d="m-2572-8h-224v-16h208 16z"/><path d="m-2348-8h-224v-16h208 16z"/><path d="m-2124-8h-128-96v-16h208 16z"/><path d="m-1900-8h-160-64v-16h208 16z"/><path d="m-1676-8h-192-32v-16h208 16z"/><path d="m-1644-24v16h-32v-16z"/><path d="m-3036 40v-64h16v16 32 176h-16z"/><path d="m-3020 200v48 176h-16v-160-64z"/><path d="m-3020 424v48 16h-16v-64z"/><path d="m-1644 24v-32-16h16v64 160h-16z"/><path d="m-1628 200v64 160h-16v-176-48z"/><path d="m-1628 424v64h-16v-16-48z"/><path d="m-2796 488h-16-208v-16h192 32z"/><path d="m-2572 488h-16-208v-16h160 64z"/><path d="m-2348 488h-16-208v-16h128 96z"/><path d="m-2124 488h-16-208v-16h96 128z"/><path d="m-1900 488h-16-208v-16h64 160z"/><path d="m-1676 488h-16-208v-16h32 192z"/><path d="m-1644 472v16h-32v-16z"/><path d="m-1868 472h-32-160v-176h192z"/><path d="m-2252 472h-96-96v-176h192z"/><path d="m-2636 472h-160-32v-176h192z"/><path d="m-3020-8v32z"/><path d="m-1644 248v176 48z"/><path d="m-1644 24v176 48z"/><path d="m-1868 296h-192z"/><path d="m-1644-8h-32z"/><path d="m-1868 472v-176z"/><path d="m496 216v32 192-186z"/><path d="m313 24h183-197z"/><path d="m-149 440h-210-14z"/><path d="m75 440h-210-14z"/><path d="m299 440h-210-14z"/><path d="m-135 24h-14-210v224h224z"/><path d="m-359 248v192h210 14v-192z"/><path d="m89 24h-14-210v224h224z"/><path d="m-135 248v192h210 14v-192z"/><path d="m313 24h-14-210v224h224z"/><path d="m89 248v192h210 14v-192z"/><path d="m496 248v-32-192h-183v224z"/><path d="m496 440v-192h-183v192z"/><path d="m-359 24h-14v6 218h14z"/><path d="m-1628 264v160 64-64z"/><path d="m-1628 40v160 64-64z"/><path d="m-3036-24v64z"/><path d="m-1628-24h-16-32-16z"/><path d="m-2812 488h-224 16z"/><path d="m-2588 488h-224 16z"/><path d="m-2364 488h-224 16z"/><path d="m-2140 488h-224 16z"/><path d="m-1916 488h-224 16z"/><path d="m-1692 488h-224 16z"/><path d="m-2812-24h-224v64 160h224z"/><path d="m-3036 200v64 160h224v-224z"/><path d="m-3036 424v64h224v-64z"/><path d="m-2588-24h-224v224h224z"/><path d="m-2812 200v224h224v-224z"/><path d="m-2812 424v64h224v-64z"/><path d="m-2364-24h-224v224h224z"/><path d="m-2588 200v224h224v-224z"/><path d="m-2588 424v64h224v-64z"/><path d="m-2140-24h-224v224h224z"/><path d="m-2364 200v224h224v-224z"/><path d="m-2364 424v64h224v-64z"/><path d="m-1916-24h-224v224h224z"/><path d="m-2140 200v224h224v-224z"/><path d="m-2140 424v64h224v-64z"/><path d="m-1692-24h-224v224h224z"/><path d="m-1916 200v224h224v-224z"/><path d="m-1916 424v64h224v-64z"/><path d="m-1628 40v-64h-64v224h64z"/><path d="m-1692 200v224h64v-160-64z"/><path d="m-1692 424v64h64v-64z"/><path d="m-2928 1112v-224z"/><path d="m-2928 888v-224z"/><path d="m-2928 632v32z"/><path d="m-2928 632h224z"/><path d="m-2704 632h224z"/><path d="m-2448 632h-32z"/><path d="m-2448 1112v-224z"/><path d="m-2448 664v224z"/><path d="m-2448 632v32z"/><path d="m-2928 1112h224z"/><path d="m-2704 1112h224z"/><path d="m-2480 1112h32z"/><path d="m-2928 1112v-20-204z"/><path d="m-2928 888v-32-192z"/><path d="m-2928 632v32z"/><path d="m-2928 632h16 208z"/><path d="m-2704 632h16 208z"/><path d="m-2448 632h-32z"/><path d="m-2448 1112v-224z"/><path d="m-2448 664v192 32z"/><path d="m-2448 632v32z"/><path d="m-2928 1112h224z"/><path d="m-2704 1112h224z"/><path d="m-2480 1112h32z"/><path d="m-2688 1092h-224z"/><path d="m-2688 644h224z"/><path d="m-2464 868v224z"/><path d="m-2912 868v-224z"/><path d="m-2688 868v224h224v-224z"/><path d="m-2464 644h-224v224h224z"/><path d="m-2912 868v224h224v-224z"/><path d="m-2688 644h-224v224h224z"/><path d="m-2448 856v-192-32h-16v12 212z"/><path d="m-2464 868v224h16v-204-32h-16z"/><path d="m-2912 856v-212-12h-16v32 192z"/><path d="m-2928 888v204h16v-224-12h-16z"/><path d="m-2688 632h-16-208v12h224z"/><path d="m-2464 644v-12h-16-208v12z"/><path d="m-2912 1092h-16v20h224v-20z"/><path d="m-2704 1112h224v-20h-208-16z"/><path d="m-2480 1112h32v-20h-16-16z"/><path d="m-2480 1092h16-16-208z"/><path d="m-2912 868v224z"/><path d="m-2464 856v-212 212 12z"/><path d="m-2688 644h-224z"/><path d="m-2928 632v32z"/><path d="m-2464 632h16-32z"/><path d="m-2448 888v204 20z"/><path d="m-2704 1112h-224z"/><path d="m-2480 1112h-224z"/><path d="m-2448 1112h-32z"/><path d="m-2720 616h-208-16z"/><path d="m-2496 616h-208-16z"/><path d="m-2480 1128h32 16-64z"/><path d="m-2944 904v160 64-64z"/><path d="m-2944 680v160 64-64z"/><path d="m-2432 616v64z"/><path d="m-2704 1128h-16-208v-16h224z"/><path d="m-2480 1128h-16-208v-16h224z"/><path d="m-2448 1112v16h-32v-16z"/><path d="m-2928 1112v-20h16 208v20z"/><path d="m-2704 1092h16 208v20h-224z"/><path d="m-2480 1092h16 16v20h-32z"/><path d="m-2688 644h-224v-12h208 16z"/><path d="m-2480 632h16v12h-224v-12z"/><path d="m-2928 856v-16-208h16v12 212z"/><path d="m-2912 868v224h-16v-28-208h16z"/><path d="m-2944 680v-64h16v16 208h-16z"/><path d="m-2928 840v16 208h-16v-160-64z"/><path d="m-2928 1064v28 20 16h-16v-64z"/><path d="m-2704 632h-208-16v-16h208 16z"/><path d="m-2480 632h-208-16v-16h208 16z"/><path d="m-2448 616v16h-16-16v-16z"/><path d="m-2448 632v-16h16v64 160h-16z"/><path d="m-2432 840v64 160h-16v-208-16z"/><path d="m-2432 1064v64h-16v-16-20-28z"/><path d="m-2464 856v-212-12h16v208 16z"/><path d="m-2448 1064v28h-16v-224-12h16z"/><path d="m-2688 1092h-16-208 208z"/><path d="m-2912 856v-212 212 12z"/><path d="m-2464 868v224z"/><path d="m-2464 644h-224z"/><path d="m-2464 1092h-224z"/><path d="m-2912 644h224z"/><path d="m-2464 644v224z"/><path d="m-2912 1092v-224z"/><path d="m-2464 1092h-224v-224h224z"/><path d="m-2688 868v-224h224v224z"/><path d="m-2688 1092h-224v-224h224z"/><path d="m-2912 868v-224h224v224z"/></g><g id="d"><path d="m-2432 616h-16-32-16z"/><path d="m-2720 1128h-224 16z"/><path d="m-2496 1128h-224 16z"/><path d="m-2944 616v64z"/><path d="m-2432 904v160 64-64z"/><path d="m-2432 680v160 64-64z"/><path d="m-2720 616h-224v64 160h224z"/><path d="m-2944 840v64 160h224v-224z"/><path d="m-2944 1064v64h224v-64z"/><path d="m-2496 616h-224v224h224z"/><path d="m-2720 840v224h224v-224z"/><path d="m-2720 1064v64h224v-64z"/><path d="m-2432 680v-64h-64v224h64z"/><path d="m-2496 840v224h64v-160-64z"/><path d="m-2496 1064v64h64v-64z"/></g></defs><g stroke="#000"><use fill="none" stroke-miterlimit="0" stroke-width="10" xlink:href="#a"/><use fill="#c4c4c4" xlink:href="#a"/><use fill="none" stroke-miterlimit="0" stroke-width="10" xlink:href="#b"/><use fill="#d9d9d9" xlink:href="#b"/><use fill="none" stroke-miterlimit="0" stroke-width="10" xlink:href="#c"/><use fill="#ebebeb" xlink:href="#c"/><use fill="none" stroke-miterlimit="0" stroke-width="10" xlink:href="#d"/><use fill="#fff" xlink:href="#d"/></g></svg>