<svg viewBox="-1907 -771 4118 1766" xmlns="http://www.w3.org/2000/svg" xmlns:xlink="http://www.w3.org/1999/xlink"><defs><g id="a"><path d="m2064 672v-16-32 32 16 176z"/><path d="m624 848h208-112-16-80-16z"/><path d="m832 848h64z"/><path d="m1552 848h48-112-128z"/><path d="m1648 848h-48z"/><path d="m1984 848h80-96z"/><path d="m-576-64v16z"/><path d="m-576 128v192 32-32-112z"/><path d="m-576-144v64z"/><path d="m1600 432v-128h48 96v144 80h-144z"/><path d="m1744 528v144h-144v-16-128z"/><path d="m1888 656h176v16h-80-96z"/><path d="m1984 848h-16-208v-112-64h112 16 96z"/><path d="m2064 672v176h-80v-176z"/><path d="m1744 672h16v64h-160v-64z"/><path d="m1552 848h-192-16-16v-96-16h16 208z"/><path d="m1568 736h32 160v112h-16-96-48-48v-112z"/><path d="m1440 400v-32-64h160v128h-32-128z"/><path d="m1344 512v-80h96 128v224h-224z"/><path d="m1568 656v80h-16-208v-80z"/><path d="m1568 432h32v96 128h-32z"/><path d="m1600 656v16 64h-32v-80z"/><path d="m688-160h16v64h-16z"/><path d="m560-96h64 64 16v192 16h-192v-128-16-64z"/><path d="m352-160h-16-208v-64h32 32 64 96z"/><path d="m480-224h32 64v64h-16-208v-64z"/><path d="m336-96h-208-16v-64h16 208z"/><path d="m560-96h-48-160-16v-64h16 208z"/><path d="m576-160h48v64h-64v-64z"/><path d="m368-16h-144-16-64v-16h208 16z"/><path d="m512-32v16h-64-80v-16z"/><path d="m480-224h-128-96v-64h224z"/><path d="m512-288v64h-32v-64z"/><path d="m352-32h-208-16v-64h208 16z"/><path d="m512-96v64h-144-16v-64z"/><path d="m192-224h-32v-64h32z"/><path d="m448 112h-160-64v-64-64h144 80z"/><path d="m512-16v128h-64v-128z"/><path d="m224 48h-16v-64h16z"/><path d="m144 64v-16h16v64h-16z"/><path d="m512 224h-224v-112h160 64z"/><path d="m704 112v112h-32-64-96v-112z"/><path d="m672 288v-64h32v112 16h-32z"/><path d="m672 352h32v192 32h-96v-96-32-96z"/><path d="m704 576v64 96h-80-16v-16-144z"/><path d="m704 752h16 112v96h-208v-96z"/><path d="m624 736h80v16h-80z"/><path d="m512 224h96v64 64 96h-96z"/><path d="m608 448v32h-32-64v-32z"/><path d="m288 400v-64-112h224v224h-224z"/><path d="m512 448v32 176 16h-224v-112-48-64z"/><path d="m512 672v48h-32-192v-48z"/><path d="m144 144v-32h16 64 64v112 112h-144z"/><path d="m288 336v64h-64-80v-64z"/><path d="m160 416h-16v-16h80v16z"/><path d="m224 416v-16h64v48h-64z"/><path d="m160 416v48h-16v-48z"/><path d="m128 464h16 16v16h-64-32v-16z"/><path d="m512 480h64v176h-64z"/><path d="m576 656v-176h32v96 144h-32z"/><path d="m608 736h16v16 96h-16z"/><path d="m288 512v48h-32-32v-48z"/><path d="m160 496v-16h64v16z"/><path d="m144 544h16v16h-16z"/><path d="m144 560h16 64 32v96h-64-32-16z"/><path d="m256 656v-96h32v112 48h-32z"/><path d="m160 720h-224v-64h208 16z"/><path d="m192 656v64h-32v-64z"/><path d="m48-208v-16h16v64h-16z"/><path d="m-32-224h64 16v16h-64-32v-16z"/><path d="m-32-288v64h-16-16v-64z"/><path d="m-48-160v-48h32v48z"/><path d="m-64-224h16v16 48h-80v-64z"/><path d="m128-32h16v16 8h-80v-24z"/><path d="m-16-144h64v48h-64z"/><path d="m16-8h-32v-88h64 16v64 24z"/><path d="m-48-160h32v16 48 88h-32-64-16v-152z"/><path d="m-128-160v152h-208v-136-80h176 32z"/><path d="m-160-224h-176-48v-64h224z"/><path d="m-128-288v64h-32v-64z"/><path d="m64-8h80v8h-128v-8z"/><path d="m-336-8h208 16v56h-224z"/><path d="m-112-8h64v40 16h-32-32z"/><path d="m-48-8h32 32v8 32h-64z"/><path d="m-336 48h224v32h-224z"/><path d="m-112 48h32v32h-32z"/><path d="m16 96v-32h128v48 32h-64-64z"/><path d="m-48 96h64v48h-64z"/><path d="m-112 144h-32-192v-64h224z"/><path d="m-80 80h32v16 48h-64v-64z"/><path d="m-448-224h64 48v80h-112z"/><path d="m-576-144v-144h54 42 32v64 80z"/><path d="m-576-48v-16-16-64h128 112v136 56 32h-240z"/><path d="m-336 80v64 128 48h-144-96v-192-32-16z"/><path d="m-144 272v-128h32 64 64 64v192h-32-192z"/><path d="m80 144h64v192h-64z"/><path d="m48 400h-64-160v-64h32 192z"/><path d="m80 336h64v64h-16-64-16v-64z"/><path d="m128 400h16v16 48h-16z"/><path d="m-16 448h-64-48-112v-48h64 160z"/><path d="m48 400h16v48h-80v-48z"/><path d="m-336 144h192v128h-64-32-96z"/><path d="m-240 272h32v64h-32z"/><path d="m-240 336v64 48h-96v-128-48h96z"/><path d="m96 544h-32v-64h32z"/><path d="m-80 448h64 80v16 16 64h-144z"/><path d="m64 544h32 48v16 96h-208-16v-112z"/><path d="m-128 448h48v96 112h-48z"/><path d="m-336 544v-96h96 112v208 16h-208z"/><path d="m-128 672v48h-32-176v-48z"/><path d="m-480 480v-128-32h144v128 96h-48-96z"/><path d="m-568 464h-8v-112h54v112z"/><path d="m-480 320v32h-42-54v-32z"/><path d="m-522 480h-46v-16h46z"/><path d="m-480 544h96v96h-64-32z"/><path d="m-384 656v-16-96h48v128 48h-48z"/><path d="m-568 480h46 42v64 96h-88z"/><path d="m-576 544v-64-16h8v16 160h-8z"/><path d="m-384 640v16h-64v-16z"/><path d="m-568 640h88 32v16 64h-32-42-54v-80z"/><path d="m-522 464v-112h-54v128h54z"/><path d="m704 752v-16z"/><path d="m704 640v80 16z"/><path d="m704 352v-16 208z"/><path d="m704 224v-112-16 240z"/><path d="m704-96v-64 16z"/><path d="m1744 304v144z"/><path d="m1872 672h-112-16z"/><path d="m1440 368v-32-32z"/><path d="m1744 304h-96z"/><path d="m1344 512v144 80z"/><path d="m1328 736v16z"/><path d="m720 752h-16z"/><path d="m-480 720h32-128z"/><path d="m-128 720h-32z"/><path d="m192 720h-32z"/><path d="m576 720h32z"/><path d="m512 720h-32z"/><path d="m-160-288h-224z"/><path d="m-32-288h-32z"/><path d="m192-288h-32z"/><path d="m480-288h-224z"/><path d="m688-96v-48-16z"/><path d="m624-160h-48z"/><path d="m576-224v9.1429 6.8571 48z"/><path d="m-128-224v-64 73.8862z"/><path d="m64-224h-16-16 16z"/><path d="m-16-208v48z"/><path d="m48-208h-48-16z"/><path d="m224 112v-48-16z"/><path d="m112-96v-16-48z"/><path d="m112-96h16z"/><path d="m128-32v-64z"/><path d="m64-96h-16z"/><path d="m48-144v32 16z"/><path d="m144 48v16z"/><path d="m144 0v-8-8z"/><path d="m160 48h-16z"/><path d="m208 48h16z"/><path d="m208-16h-16-48z"/><path d="m16 0v16 16z"/><path d="m16 64h112 16z"/><path d="m-80 48v32z"/><path d="m672 224h-64z"/><path d="m64 448v-48 48 16z"/><path d="m224 560v-48z"/><path d="m224 496v-16z"/><path d="m160 480h-48-16z"/><path d="m160 464v-48 32 16 16z"/><path d="m224 416h-64z"/><path d="m64 464h48 16z"/><path d="m224 496h-48-16z"/><path d="m-144 272h-64z"/><path d="m-80 656h16v-22.8571h-48-16v22.8571z"/><path d="m608 720v16z"/><path d="m-522 352h42-96z"/><path d="m-480-288h-42-54z"/><path d="m-522 720h42-96z"/><path d="m-480 480h-42-54z"/><path d="m-522-288h-54z"/><path d="m-576 720h54z"/><path d="m-864-416h-80-144 144z"/><path d="m-1088 464h-96-16-32-64z"/><path d="m-816-160v-32-128h32 16v32 192h-48z"/><path d="m-768-96v32h-48v-32z"/><path d="m-768-416v64h-16-32v-64z"/><path d="m-816-352h32v32h-32z"/><path d="m-672-64h80v16h-80z"/><path d="m-816-64h48 64v16h-112z"/><path d="m-592-48h16v128h-16z"/><path d="m-704-48h32 80v128 16h-48-176v-48-96z"/><path d="m-944-416v160h-144v-144-16z"/><path d="m-944-256v-160h80 48v64 32 128h-112-16z"/><path d="m-1088-256h-32v-64-80h32z"/><path d="m-1120-256h-80-96v-64h176z"/><path d="m-1120-416v16 80h-176-48v-32-64z"/><path d="m-1296-256h96v112h-16-80z"/><path d="m-816-192v32h-112v-32z"/><path d="m-816-96v32 16 96h-48-32-48v-176-32h16 112z"/><path d="m-1296-144h80v16h-80-48v-16z"/><path d="m-1296 16v-144h80 16 112v176 48h-208z"/><path d="m-1088 96v48 96 80h-208v-80-144z"/><path d="m-1088 320v144h-208v-144z"/><path d="m-816 96h-48v-16-32h48z"/><path d="m-896 48h32v32h-32z"/><path d="m-944 48h48v32 16h-48z"/><path d="m-1344-352h-16v-64h16z"/><path d="m-1360-320h16 48v64 112h-48-16z"/><path d="m-1360-128h16 48v144h-96v-16-128z"/><path d="m-1392 0v16h-128v-16z"/><path d="m-1520 16h128 96v80 144h-224z"/><path d="m-1296 240v80 144h-224v-96-96-16-16z"/><path d="m-1088 144v96z"/><path d="m-1088-128v120 48 8z"/><path d="m-592 96h-48z"/><path d="m-944-128v176 48-16-128z"/><path d="m-576-48h-16v-16h16z"/><path d="m-768-352v-64z"/><path d="m-768-320v32z"/><path d="m-592 80v16z"/><path d="m-592 80h16v16h-16z"/><path d="m-944-256h-144z"/><path d="m-1216-128h16z"/><path d="m-1360-144h16z"/><path d="m-1360-416v64z"/><path d="m-1200-256v112z"/><path d="m-1344-144v16h-16v-16z"/><path d="m-1216-128v-16h16v16z"/><path d="m-1392 0h-128 8.5333z"/><path d="m-1392-128v128h-119.4667-8.5333v-128z"/><path d="m-1520 256v16z"/><path d="m-1520 368v96z"/><path d="m672 448h-64v64h64z"/><path d="m-480-256h-64v64h64z"/><path d="m2064 624v-112z"/><path d="m-576 96v-16z"/><path d="m1440 432h-96z"/><path d="m1440 400v32z"/><path d="m1440 400v-32z"/><path d="m1440 400v32h-96v-32z"/><path d="m-48 48v-16z"/><path d="m-48 48v32z"/><path d="m-48 80v16z"/><path d="m-80 48h32v32h-32z"/><path d="m-80 48h32z"/><path d="m-48 80h-32z"/><path d="m-592-64v16z"/><path d="m-1360-128h16z"/><path d="m-1200-144h-16z"/><path d="m-1360-144v16z"/><path d="m-576 352v112 16z"/><path d="m-576 720v-80-96 96z"/><path d="m1344 432v-32z"/><path d="m1440 400h-96z"/><path d="m1440 368v32h-96v-32z"/><path d="m16 64v-16z"/><path d="m16 64v32z"/><path d="m16 16h-32v16h32z"/><path d="m-48 48v-16h32v16z"/><path d="m-16 32v-16 32z"/><path d="m-16 32h-32 64z"/><path d="m-48 80v-32h32 32v16 32h-64z"/><path d="m-48 96h64z"/><path d="m672 288h-64z"/><path d="m672 224v64z"/><path d="m608 288v-64z"/><path d="m672 224v64h-64v-64z"/><path d="m608 288v64z"/><path d="m-1520 16h12.6666z"/><path d="m-1520 0v16z"/><path d="m-576 464v-96-16h96v128h-96z"/><path d="m-576 368v96h-198-42v-96z"/><path d="m-1511.4667 0h-8.5333v16h12.6666 19.3334v-16z"/><path d="m-576-80v16z"/><path d="m-576 544v-64z"/><path d="m1440 368h-96z"/><path d="m1344 336v32z"/><path d="m1440 336v32h-96v-32z"/><path d="m16 16v32z"/><path d="m16 48h-32z"/><path d="m-16 16h32z"/><path d="m-16 16h32v32h-32z"/><path d="m-568-144h-8v64h8z"/><path d="m-568 480h-8v64h8z"/><path d="m-1520-128h32 8 48 72-32z"/><path d="m-1520-128h-128z"/><path d="m-1525.3334 0h-122.6666v-128h128v128z"/><path d="m-1507.3334 16h-12.6666-3.3334 19.3334 16z"/><path d="m-1648 16v-16h122.6666l2 16z"/><path d="m-1520 16v224 16-85.3333z"/><path d="m2064 464v48 112 32h-176v-144-48z"/><path d="m-1648 32v224-16-88-48z"/><path d="m-1520 0h-5.3334z"/><path d="m-1520 0h16v16h-19.3334l-2-16z"/><path d="m704-288v16 64z"/><path d="m1440 304v32h-96v-32z"/><path d="m1648 304h96z"/><path d="m1600 304v10.6667z"/><path d="m1744 304v46 82 16z"/><path d="m1744 672h128z"/><path d="m1456 304v10.6667z"/><path d="m1584 304v10.6667z"/><path d="m1456 304h-16v10.6667h16z"/><path d="m1344 336v32-18-46z"/><path d="m1344 512v224-80z"/><path d="m1744 448v224-144z"/><path d="m1440 336v-32z"/><path d="m1456 304h128 16 48-48-160z"/><path d="m1440 336h-96z"/><path d="m1344 368v32 32z"/><path d="m1344 432v80z"/><path d="m576-214.8571v-57.1429h32v64h-32z"/><path d="m624-96v-48h16 48v48z"/><path d="m624-144v-16h16v16z"/><path d="m608-208h16 16v48h-16-48v-48z"/><path d="m688-144h16v-16h-16z"/><path d="m672-272v-16h32v80h-32z"/><path d="m672-288v16h-64-32v-16z"/><path d="m672-208h32z"/><path d="m640-208h-16z"/><path d="m672-272h-64z"/><path d="m688-96h-64z"/><path d="m512-214.8571v-9.1429-64z"/><path d="m624-144v48-64z"/><path d="m704-160h-16z"/><path d="m576-214.8571v-9.1429h-64v9.1429z"/><path d="m224 112h-64z"/><path d="m48-160h16z"/><path d="m128-160h-16z"/><path d="m96-160h-32-16-16z"/><path d="m160-288v64z"/><path d="m64-160v-64z"/><path d="m144-288h16v64h-16z"/><path d="m128-224v64h-16-16v-64z"/><path d="m144-224h16-32z"/><path d="m128-224v64z"/><path d="m-32-224v-64z"/><path d="m0-224h16 16-64z"/><path d="m16-288v64h-16-32v-64z"/><path d="m48-208v48z"/><path d="m64-224h-16v16 48h16z"/><path d="m-16-208h16v16 32h-16z"/><path d="m32-224h-16-16v16h48v-16z"/><path d="m16 48v-32h48 64v48h-112z"/><path d="m16 16v-16h48v16z"/><path d="m48-96v-16h16v16z"/><path d="m-16-144v-16h16 32 16v16z"/><path d="m64-112h-16v-32-16h16 32 16v48z"/><path d="m128-32h-64v32h64z"/><path d="m128-112h-16v16h16z"/><path d="m160 112v-48h32 32v48z"/><path d="m144 0v-16h48v16z"/><path d="m192 0v-16h16v64h-16z"/><path d="m192 48h16 16v16h-32z"/><path d="m144 64h16v-16h-16z"/><path d="m128 16v16 32z"/><path d="m144 0h48-48-16z"/><path d="m192 48v16-32-32z"/><path d="m64 16h16 48z"/><path d="m64 0v-32-64-16 80 48z"/><path d="m128-32h-64z"/><path d="m-16-160v16z"/><path d="m48-144h-64z"/><path d="m64-32v-64z"/><path d="m208-16v64z"/><path d="m160 64v48-64z"/><path d="m16 0v16z"/><path d="m128 0h-64-48 128z"/><path d="m672 352h-64z"/><path d="m672 288v64h-64v-64z"/><path d="m672 288v64z"/><path d="m288 448v64z"/><path d="m64 400h64z"/><path d="m224 560h-64z"/><path d="m224 416v32z"/><path d="m224 496v-16-32h64v64h-64z"/><path d="m224 448h64z"/><path d="m288 512h-64z"/><path d="m160 480v-16h-32-16v16z"/><path d="m224 416v32h-48-16v-32z"/><path d="m176 448h48v32h-48z"/><path d="m160 464v-16h-32v16z"/><path d="m160 480v16h16v-16z"/><path d="m176 496h48v16h-48z"/><path d="m224 560h-64v-16-32h16 48z"/><path d="m112 512h48v32h-64v-32z"/><path d="m112 448h-48v-48h64v48z"/><path d="m64 464v-16h48v16z"/><path d="m96 512v-32h16v32z"/><path d="m128 448h32 16-64z"/><path d="m176 480h48-64z"/><path d="m128 448v-48 64z"/><path d="m160 560v-16z"/><path d="m160 480v16z"/><path d="m96 512v32-64z"/><path d="m160 544h-16-48z"/><path d="m-240 400v-64z"/><path d="m-176 400h-64z"/><path d="m-144 272v64z"/><path d="m-144 336h-32z"/><path d="m-240 336h32z"/><path d="m-208 336v-64z"/><path d="m-144 272v64h-32-32v-64z"/><path d="m-176 336v64z"/><path d="m-240 400v-64h32 32v64z"/><path d="m-128-288v105.8862-32z"/><path d="m192-214.1138v-9.8862-64z"/><path d="m256-214.1138v-9.8862h-64v9.8862z"/><path d="m-64-214.1138v-9.8862h-64v9.8862z"/><path d="m-384-214.1138v-9.8862h-64v9.8862z"/><path d="m-384-288v64 9.8862z"/><path d="m1648 304v46z"/><path d="m1744 304h-96v46h96z"/><path d="m1136 848h-112z"/><path d="m1344 848h16z"/><path d="m1344 736h-16z"/><path d="m1600 298.6667v-122.6667h16 64 64v128h-96-48z"/><path d="m1664 352h-16v16h16z"/><path d="m1584 304h-128v-5.3333h128z"/><path d="m1392 176h64 144v122.6667h-16-128-16-80v-122.6667z"/><path d="m1360 298.6667h80v5.3333h-80z"/><path d="m1360 298.6667v5.3333h-16v-128h16z"/><path d="m1648 350v2h15.7681 80.2319v-2z"/><path d="m1440 304v-5.3333z"/><path d="m1648 304v48-2z"/><path d="m1648 304h96v32 16h-85.5652-10.4348z"/><path d="m1584 304v16 16-21.3333z"/><path d="m1584 304v-5.3333z"/><path d="m1440 314.6667v5.3333 16h16v-21.3333z"/><path d="m1344 368v-18z"/><path d="m1744 350v2 16 64z"/><path d="m1648 368h-2.0869z"/><path d="m1648 352h-.2319z"/><path d="m1648 352h16-.2319z"/><path d="m1648 368v-16h-.2319l-1.855 16z"/><path d="m1744 672h16 112z"/><path d="m1120 736v-80z"/><path d="m1600 304h48z"/><path d="m1456 304h128z"/><path d="m1360 304h80-96z"/><path d="m1744 448v208 16z"/><path d="m1600 314.6667v-10.6667h-16v10.6667z"/><path d="m1440 314.6667v-10.6667z"/><path d="m1344 368v64z"/><path d="m1344 432v80z"/><path d="m1040 736h80v16h-80z"/><path d="m1040 752h80 16v96h-112v-96z"/><path d="m1024 752v96h-128-64v-96z"/><path d="m1136 848v-96h192v96z"/><path d="m32-160h-32z"/><path d="m0-160v-32z"/><path d="m0-160v-32h32v32z"/><path d="m-1088-128h-112z"/><path d="m-1488 0h-16-16 8.5333z"/><path d="m-1504 0v32z"/><path d="m-1504 16v-16h16v16z"/><path d="m-1520 256v-85.3333z"/><path d="m-1520 170.6667v85.3333h-5.3334-122.6666v-224-16h124.6666 3.3334z"/><path d="m-1520 256v16h10.6666 21.3334v-16z"/><path d="m-1520 272v96z"/><path d="m1663.7681 352-1.855 16h82.0869v-16z"/><path d="m1648 352h-16 15.7681z"/><path d="m1647.7681 352h-15.7681v16h8.5797 5.3334z"/><path d="m1663.7681 352h.2319v16h-2.0869z"/><path d="m1344 368v-32-32 46z"/><path d="m1645.9131 368h-5.3334 7.4203z"/><path d="m1648 368v64z"/><path d="m1344 368v64z"/><path d="m1661.9131 368h2.0869-16z"/><path d="m-1488 32v192 32-85.3333z"/><path d="m-1488 32v-32h-16v32 192h16z"/><path d="m1440 304v16-5.3333z"/><path d="m1584 304v-5.3333h16v21.3333h-16z"/><path d="m1440 304v-5.3333h16v21.3333h-16z"/><path d="m1648 352h10.4348z"/><path d="m1744 352v16h-87.4203l1.8551-16z"/><path d="m1744 432v-64h-82.0869-13.9131v64 160h96z"/><path d="m1344 432v80 144z"/><path d="m1744 432v160 64-208z"/><path d="m1328 848h16z"/><path d="m1184-624h-224z"/><path d="m1408-624h-224z"/><path d="m1632-624h-224z"/><path d="m704-144v16 32z"/><path d="m704-208v-64 128z"/><path d="m720 240v64z"/><path d="m1872-600v-24z"/><path d="m1184-600h-224v-24h224z"/><path d="m1408-600h-224v-24h224z"/><path d="m1632-600h-224v-24h224z"/><path d="m1872-624v24h-240v-24z"/><path d="m1872-592h-144-64z"/><path d="m1872-592v-8z"/><path d="m960-600v8z"/><path d="m1184-592h-192-32v-8h224z"/><path d="m1408-592h-192-32v-8h224z"/><path d="m1632-592h-192-32v-8h224z"/><path d="m1872-600v8h-208-32v-8z"/><path d="m1872-416v80z"/><path d="m1872-480v-16-16-16z"/><path d="m1872-176v-64-32-32 32 32 64 96z"/><path d="m1280-528h-224z"/><path d="m1504-528h-224z"/><path d="m1728-528h-224z"/><path d="m992-592v64z"/><path d="m960-592h32v64h-32z"/><path d="m960-592v64z"/><path d="m1280-512h-224v-16h224z"/><path d="m1504-512h-224v-16h224z"/><path d="m1728-512h-224v-16h224z"/><path d="m1872-528v16h-144v-16z"/><path d="m992-528v16h-32v-16z"/><path d="m960-528v16z"/><path d="m1056-512v16z"/><path d="m1280-496h-224v-16h224z"/><path d="m1504-496h-224v-16h224z"/><path d="m1728-496h-224v-16h224z"/><path d="m1872-512v16h-144v-16z"/><path d="m992-512v16h-32v-16z"/><path d="m960-512v16z"/><path d="m1168-480h-64z"/><path d="m1872-480h-32z"/><path d="m1056-496v16z"/><path d="m1280-480h-112-64-48v-16h224z"/><path d="m1504-480h-112-112v-16h224z"/><path d="m1728-480h-112-112v-16h224z"/><path d="m1872-496v16h-32-112v-16z"/><path d="m992-496v16h-32v-16z"/><path d="m960-496v16z"/><path d="m1456-416h-224z"/><path d="m1680-416h-72-136-16z"/><path d="m1472-264v-32-88z"/><path d="m1872-336h-64-16v-80h80z"/><path d="m1808-304h64v32h-64z"/><path d="m1792-336h16v32 32h-16z"/><path d="m1808-272h64v32h-40-40v-32z"/><path d="m1608-416h72 112v80 64 32h-184z"/><path d="m1832-176h-224v-64h184 40z"/><path d="m1872-240v64h-40v-64z"/><path d="m1472-264v-120-32h136v176 64h-136z"/><path d="m1792-304v128z"/><path d="m1808-336v32z"/><path d="m1456-416h16v32h-96-144v-32z"/><path d="m1376-384h-96-16-32z"/><path d="m1608-176v176h-136v-80-96z"/><path d="m1832 0h-72-64-88v-176h224z"/><path d="m1872-176v96 80h-8-32v-176z"/><path d="m1832 0h32-64-40z"/><path d="m1760 0h-24-40z"/><path d="m944 240h-224v-48h224z"/><path d="m1056 192h48v48h-160v-48z"/><path d="m720 96h224v32h-224z"/><path d="m944 96h16 32v32h-48z"/><path d="m1056-320v-160h48v48 176h-48z"/><path d="m1104-256v48 176h-48v-64-160z"/><path d="m1104-32v48 176h-48v-64-160z"/><path d="m992-480v160 64h-32v-96-128z"/><path d="m992-256v160 64h-32v-96-128z"/><path d="m992-32v128h-32v-128z"/><path d="m944 336h-224v-32h224z"/><path d="m1168 336h-224v-32h224z"/><path d="m1200 304v32h-32v-32z"/><path d="m1168-368v-48h32v32 48 144h-32z"/><path d="m1200-192v80 144h-32v-176-48z"/><path d="m1200 32v80 144h-32v-176-48z"/><path d="m1200 256v48h-32v-48z"/><path d="m1232-384h-32v-32h32z"/><path d="m1168 80v176 48-64-48z"/><path d="m1168-144v176 48-112z"/><path d="m1168-368v176 48-112z"/><path d="m1232-416h-32-32z"/><path d="m1200-384v48z"/><path d="m1200 336h-32z"/><path d="m1104 240h-160z"/><path d="m1104-480v48z"/><path d="m1056-96v64 160-160z"/><path d="m1056-320v64 160-160z"/><path d="m1056-480v160z"/><path d="m944 192h-224z"/><path d="m992 128h-48z"/><path d="m960-128v96 128z"/><path d="m960-352v96 128z"/><path d="m960-480v128z"/><path d="m944 304h-224z"/><path d="m1344 736h-16v16 96h16z"/><path d="m832 752h-112z"/><path d="m832 848v-96h-112v96z"/><path d="m704 96h16v32 64 48 64 32h-16z"/><path d="m720 752h-16v96h16z"/><path d="m624 720h64z"/><path d="m704-144h-16-48z"/><path d="m624-208h-16z"/><path d="m672-208v-64z"/><path d="m640-144v-16-48z"/><path d="m640-144v-64h32 32v64z"/><path d="m16-224h-16z"/><path d="m16-224h16z"/><path d="m0-192v-32h16 16v32z"/><path d="m32-192h-32z"/><path d="m0-224v32-16z"/><path d="m32-160v-32z"/><path d="m576 720v-80 16z"/><path d="m608 736v112z"/><path d="m624 752v-16h-16v112h16z"/><path d="m704 736h-80v16h80z"/><path d="m624 736h80v-16h-16-64-16v16z"/><path d="m704 752h-80v96h80z"/><path d="m-1088 144v-48-48z"/><path d="m-1504 0h16z"/><path d="m-1488 0v32z"/><path d="m-1456 368h-16v16h16z"/><path d="m-1456 368v16-2.7937z"/><path d="m-1509.3334 272h-10.6666z"/><path d="m-1648 272v-16h122.6666v16z"/><path d="m-1520 368h48z"/><path d="m-1520 368h48v9.9048 86.0952h-48z"/><path d="m-1648 360v-88h122.6666 5.3334v96 96h-16-8z"/><path d="m-1648 464v-104l104 104z"/><path d="m-1648 256v16 88 104h-112v-208z"/><path d="m-1472 383.2381v.7619-16z"/><path d="m-1472 368v-6.0952z"/><path d="m-1472 464h16v-82.7937l-16 2.0318z"/><path d="m-1472 464v-80.7619-15.2381h-48v96z"/><path d="m-1456 381.2063v2.7937h-16v-.7619z"/><path d="m1888 288v176 48-48z"/><path d="m-1504 32v-32h16v32 138.6667 53.3333h-16z"/><path d="m-1504 32v192 32-32z"/><path d="m1648 432v148 76-64z"/><path d="m1648 432v-64h8.5797 87.4203v144 68h-80-16z"/><path d="m1648 352h10.4348l-1.8551 16h-24.5797v-16z"/><path d="m1632 352h-9.2122l-1.9393 16h11.1515z"/><path d="m-1520 256h-5.3334z"/><path d="m-1520 256h16v16h-21.3334v-16z"/><path d="m1600 180h-128v4h128z"/><path d="m-1456 359.873v-13.2063-6.4l-16 2.1333v4.2667 15.2381 6.0952h16z"/><path d="m-1456 464h-16v-86.0952l16-2.0318z"/><path d="m-1456 359.873v8.127z"/><path d="m1360 848h-16z"/><path d="m1488 848h-128z"/><path d="m1600 848h-32-64-16z"/><path d="m-576-288v144z"/><path d="m-576 96v-16z"/><path d="m-576 464v16z"/><path d="m720 192v-64z"/><path d="m1872-624v24z"/><path d="m1216-592h-160-64 192z"/><path d="m1440-592h-160-64 192z"/><path d="m1664-592h-160-64 192z"/><path d="m1872-272v32z"/><path d="m1872-176v-64 32z"/><path d="m1872-528h-144z"/><path d="m992-592h64v64h-64z"/><path d="m1280-528h-224v-64h160 64z"/><path d="m1504-528h-224v-64h160 64z"/><path d="m1728-528h-224v-64h160 64z"/><path d="m1872-592v64h-144v-64z"/><path d="m1056-528v16z"/><path d="m992-528v16z"/><path d="m1056-528v16h-64v-16z"/><path d="m992-512v16z"/><path d="m1056-512v16h-64v-16z"/><path d="m1392-480h-160-64 112z"/><path d="m1616-480h-160-64 112z"/><path d="m1840-480h-160-64 112z"/><path d="m992-496v16z"/><path d="m1056-496v16h-64v-16z"/><path d="m1872-416h-80-112z"/><path d="m1456-416h-224v-64h160 64z"/><path d="m1680-416h-224v-64h160 64z"/><path d="m1840-480h32v64h-192v-64z"/><path d="m1792-304h16z"/><path d="m1872-304h-64z"/><path d="m1808-336h64z"/><path d="m1808-304v-32h64v32z"/><path d="m1808-272v32z"/><path d="m1808-304v32z"/><path d="m1872-304h-64v32h64z"/><path d="m1792-304h16v32 32 32 32h-16z"/><path d="m1440 336v-16z"/><path d="m1600 320v16h16 16v-16z"/><path d="m1584 320h-128v16h128z"/><path d="m1456 320h128 16 32-16-176z"/><path d="m1600 320v-21.3333 5.3333 10.6667 21.3333z"/><path d="m1584 336h16v-21.3333h-16z"/><path d="m1456 320v-21.3333 5.3333 10.6667 21.3333z"/><path d="m1168-416v48z"/><path d="m1232-416h-64v-64h64z"/><path d="m944 240h-224z"/><path d="m1168-480v64 48 112h-64v-176-48z"/><path d="m1168-256v112 112h-64v-176-48z"/><path d="m1168-32v112 112h-64v-176-48z"/><path d="m1168 192v48h-64v-48z"/><path d="m1104 16v176 48-48z"/><path d="m1104-208v176 48-48z"/><path d="m1104-432v176 48-48z"/><path d="m1056 128v64z"/><path d="m1056 192h-112z"/><path d="m944 128h-224z"/><path d="m1056-480v160 64h-64v-64-160z"/><path d="m1056-256v160 64h-64v-64-160z"/><path d="m1056-32v160h-64v-160z"/><path d="m992-96v64 160-32-128z"/><path d="m992-320v64 160-160z"/><path d="m992-480v160z"/><path d="m944 192h-224v-64h224z"/><path d="m992 128h64v64h-112v-64z"/><path d="m1168 304h-224z"/><path d="m944 304h-224v-64h224z"/><path d="m1104 240h64v64h-224v-64z"/><path d="m1120 560h16v80h-16z"/><path d="m1136 560h11.3043l34.7826 80h-46.0869z"/><path d="m1040 560h80v80 16h-80z"/><path d="m1040 656h80v80h-80z"/><path d="m-576-288h128-32z"/><path d="m-568-80h-8v-64h8z"/><path d="m-568-80h-8z"/><path d="m-576-144h8z"/><path d="m-568-144v64z"/><path d="m512 640v80-48-16z"/><path d="m576 640v-6.8571h-64v6.8571 16h64z"/><path d="m256 640v16 64z"/><path d="m256 640v-6.8571h-64v6.8571 16h64z"/><path d="m-576 480h8z"/><path d="m-384 640v-6.8571z"/><path d="m-384 640v16 64z"/><path d="m-568 544h-8z"/><path d="m-568 480v64z"/><path d="m-568 544h-8v-64h8z"/><path d="m-384 640v-6.8571h-64v6.8571 16h64z"/><path d="m-592 464h-182 198z"/><path d="m-592 464h16z"/><path d="m-576 96h-16z"/><path d="m-576-64h-16z"/><path d="m-576-64h-16v16h16z"/><path d="m-592 96h16v-16h-16z"/><path d="m-1200-128h112z"/><path d="m-1200-144h-16z"/><path d="m-1360-144h16z"/><path d="m-1200-128v-16z"/><path d="m-1200-128v-16h-16v16z"/><path d="m-1360-144v16h16v-16z"/><path d="m2064 240v48 176h-176v-176-48z"/><path d="m1632 336v16z"/><path d="m1632 336v-16z"/><path d="m1632 336h-16z"/><path d="m1616 336v16h6.7878 9.2122v-16z"/><path d="m1147.3043 560h68.6957v80h-33.9131z"/><path d="m1147.3043 560h-11.3043-16-80z"/><path d="m1040 565.4737v74.5263z"/><path d="m1616 352v-16 32z"/><path d="m1622.7878 352h9.2122z"/><path d="m1616 352v16h4.8485l1.9393-16z"/><path d="m624 720h-48 32z"/><path d="m688 712h-64v8h64z"/><path d="m1632 368h-11.1515z"/><path d="m1632 368h24.5797-8.5797-7.4203z"/><path d="m-1504 224v32h16v-32z"/><path d="m1648 592v64h12.5217 83.4783v-64z"/><path d="m896 848h-64z"/><path d="m896 848h128v-96h-192v96z"/><path d="m2064 624v-112 144z"/><path d="m1744 848h-96z"/><path d="m1968 848h-96-112-16 16z"/><path d="m-576-128v80 128 16-32z"/><path d="m-576-128v-32-128 144 64 16 16z"/><path d="m-576 640v-96z"/><path d="m-576 544v-64z"/><path d="m704 96v-192z"/><path d="m704-144v-128 144z"/><path d="m704-272v-16z"/><path d="m1872-624v24z"/><path d="m1872-600v8z"/><path d="m1872-528v32 192-32-80-64z"/><path d="m1872-592v64z"/><path d="m1888 672h-16z"/><path d="m1888 656v-144 144 16z"/><path d="m1888 656v-144z"/><path d="m2064 656h-176v16h176z"/><path d="m1968 848h96v-176h-176-16v64 112z"/><path d="m1648 656h16-3.4783z"/><path d="m1808-304h64z"/><path d="m1808-240v32z"/><path d="m1808-272v-32z"/><path d="m1808-272v-32h64v32z"/><path d="m1872-272h-64v32h64z"/><path d="m1872-272h-64z"/><path d="m1744 580v-68 144z"/><path d="m1632 336v16 16z"/><path d="m1616 336h-16-16-128-16z"/><path d="m1616 320v16h-176v-16z"/><path d="m1616 336v-16z"/><path d="m1664 580h80v76h-88.8116z"/><path d="m1664 580-8.8116 76h-7.1884v-76z"/><path d="m1632 368v64z"/><path d="m1744 736v-64z"/><path d="m1760 736v-64h-16v64z"/><path d="m1872 672h-112v64h112z"/><path d="m1664 656h-16v16h16z"/><path d="m1744 848h16v-112h-16z"/><path d="m1760 736v112h112v-112z"/><path d="m-160 720h-224 48z"/><path d="m-128 720h-32z"/><path d="m160 720h-224z"/><path d="m480 720h-224 32z"/><path d="m192 720h-32z"/><path d="m704 720h-16z"/><path d="m688 720h16z"/><path d="m-128-288h-32z"/><path d="m-160-288h-224z"/><path d="m16-288h-48-32z"/><path d="m144-288h16 32-32z"/><path d="m512-288h-32z"/><path d="m160-288h-16-128-80z"/><path d="m704-288h-32-96z"/><path d="m672-272v64h-48-16v-64z"/><path d="m672-208h-32-16z"/><path d="m608-272v64z"/><path d="m192-288v105.8862-32z"/><path d="m32-160v-64h64v64z"/><path d="m96-224h-64-16v-64h128v64z"/><path d="m96-224h48-16z"/><path d="m144-288v64z"/><path d="m96-160v-64z"/><path d="m16-288v64z"/><path d="m32-160v-32-32z"/><path d="m144 0h48v32h-48z"/><path d="m144 32h48v32h-64v-32z"/><path d="m64-32h16v48h-16z"/><path d="m64-112h64v80h-48-16z"/><path d="m144-32h-16v32h16z"/><path d="m80 16v16h48v-16z"/><path d="m80 16v-48 64z"/><path d="m192 64h-32-16-16z"/><path d="m128-32v-80 16 64 32z"/><path d="m64-112h48 16z"/><path d="m688 720v-8z"/><path d="m176 448v32 16 16z"/><path d="m176 512h-16-48z"/><path d="m112 512v-32-16-16z"/><path d="m176 448v64h-64v-64z"/><path d="m192 720v-64-16z"/><path d="m-64 720v-80-6.8571 22.8571z"/><path d="m-1344-416h48 176-224-16z"/><path d="m-816-416h48-48-48z"/><path d="m-928 464h112z"/><path d="m-1088-416v16z"/><path d="m-640 96h-224 48z"/><path d="m-944 96h48z"/><path d="m-944-256v64z"/><path d="m-944-160v32z"/><path d="m-672-48h-32z"/><path d="m-704-48v-16z"/><path d="m-640-48h48v-16h-80v16z"/><path d="m-592-64v16z"/><path d="m-672-64v16z"/><path d="m-592-64h-80z"/><path d="m-768-320h-16z"/><path d="m-816-320h32v-32h-32z"/><path d="m-784-352h16v-64h-48v64z"/><path d="m-816-352v-64h-48-80v16 80h16 112z"/><path d="m-784-320v-32z"/><path d="m-784-352h16z"/><path d="m-816-64v-32-64h-112-16v32 80h80 48z"/><path d="m-928-320h-16v64 64h16z"/><path d="m-816-320h-112v128 32h112z"/><path d="m-816-48h112v-16h-64-48z"/><path d="m-768-288v-32h-16-32v160 64h48z"/><path d="m-816-96v32h48v-32z"/><path d="m-704-64h-64z"/><path d="m-928-192v32z"/><path d="m-768-288v192 32-32z"/><path d="m-944-192h16z"/><path d="m-928-160h-16z"/><path d="m-864 80v16z"/><path d="m-592 80v16z"/><path d="m-592-48v128h16v-128z"/><path d="m-640-48h-32-32-112-48v128 16h224z"/><path d="m-592 96v-16-128h-48v144z"/><path d="m-896 80h32z"/><path d="m-864-48h-80v128h48 32z"/><path d="m-944 80v16h48v-16z"/><path d="m-896 96v-16z"/><path d="m-944-256v-64-80h-144v144z"/><path d="m-944-400v-16h-144v16z"/><path d="m-928 352h96v16h-96z"/><path d="m-832 352v-96 96 16z"/><path d="m-928 368h96 16v96h-112z"/><path d="m-1216-128h16z"/><path d="m-1360-128h16z"/><path d="m-1360-320v176z"/><path d="m-1360-144h16 48v-112-64h-48-16z"/><path d="m-1360-352h16v-64h-16z"/><path d="m-1296-416h-48v64 32h48z"/><path d="m-1200-256h-96v112h80 16z"/><path d="m-1120-400v-16h-176v96 64h96 80z"/><path d="m-1088-400h-32v144h32z"/><path d="m-1088-256h-32-80 80z"/><path d="m-1120-400v-16z"/><path d="m-1088-400h-32z"/><path d="m-1344-352v32z"/><path d="m-1344-320h-16z"/><path d="m-1360-352h16z"/><path d="m-1216-128v-16h-80-48v16z"/><path d="m-1488 256h-16-16z"/><path d="m-1472 346.6667v5.3333 10.6667 15.2381-9.9048-6.0952z"/><path d="m-1456 362.6667v-10.6667z"/><path d="m-1456 352v-5.3333 13.2063 8.127 7.873-13.2063z"/><path d="m-1472 362.6667v-10.6667h16v10.6667 13.2063l-16 2.0318z"/><path d="m-1488 336v-64h-16v80h16z"/><path d="m-1504 272v-16 80 16z"/><path d="m-1488 336v16z"/><path d="m-1504 272h16-21.3334-10.6666-5.3334z"/><path d="m-1752 296h-4v128h4z"/><path d="m1040 640v-74.5263-5.4737 96z"/><path d="m1136 640h46.0869z"/><path d="m1120 640h16z"/><path d="m-1296 464h-160-16-48z"/><path d="m-1488 352h-16z"/><path d="m1888 176v-160h160 16v48 176h-176z"/><path d="m1632 432v108 116-112z"/><path d="m1632 432v-64h-11.1515-4.8485v64 160h9.697l6.303-52z"/><path d="m1120 656v-16z"/><path d="m1744 656v16z"/><path d="m1660.5217 656h3.4783v16h-5.3334z"/><path d="m1344 656v80-16z"/><path d="m-1472 352v-5.3333-4.2667z"/><path d="m-1472 352v10.6667z"/><path d="m-1472 342.4v-6.4h-16v16h16z"/><path d="m1648 672h-10.6666z"/><path d="m1658.6666 672h5.3334-16z"/><path d="m1658.6666 672h85.3334v-16h-83.4783z"/><path d="m1648 736v-64z"/><path d="m1744 672h-85.3334-10.6666v64h96z"/><path d="m1744 848v-112z"/><path d="m1648 736v112h96v-112z"/><path d="m1616 368v64z"/><path d="m-1456 336h32-48z"/><path d="m-1456 336h-16v6.4l16-2.1333z"/><path d="m-1456 340.2667v6.4 5.3333z"/><path d="m-1488 224v32h-16v-32z"/><path d="m1639.1884 656h8.8116z"/><path d="m1744 656v16h-90.6666l1.855-16z"/><path d="m1639.1884 656h-7.1884-14.0605l-1.9395 16h21.3334 10.6666v-16z"/><path d="m-1232 368h-224v13.2063 82.7937h160 64z"/><path d="m1648 848h96-144z"/><path d="m-576 416v48 16 64 96-96z"/><path d="m-576 368v-16z"/><path d="m1872-600v-24z"/><path d="m1872-592v-8z"/><path d="m1872-600v8z"/><path d="m1872-464v-32-96 56z"/><path d="m1872-496v32 192-32z"/><path d="m1872-592v96-32z"/><path d="m1872-208v32z"/><path d="m1872 0v-80z"/><path d="m1808-208v32z"/><path d="m1808-240v-32z"/><path d="m1872-240h-64z"/><path d="m1808-272h64z"/><path d="m1808-240v-32h64v32z"/><path d="m1872-208v-32h-64v32z"/><path d="m1808-208v-32-32-32h-16v128h16z"/><path d="m1864 0h8z"/><path d="m1344 576v-32-32-48z"/><path d="m1344 432v-64z"/><path d="m1344 576v-112-32 224z"/><path d="m1232 640h80z"/><path d="m1232 560h80v80h-80z"/><path d="m1232 544h80v16h-80z"/><path d="m1312 560v-16-80 80 32 64z"/><path d="m1216 640h16z"/><path d="m1216 560h16v80h-16z"/><path d="m1744 736v-16z"/><path d="m1744 656v16z"/><path d="m1744 672v-16 64z"/><path d="m1653.3334 672h-21.3334v-16h23.1884z"/><path d="m1648 736v-64h5.3334 90.6666v48 16z"/><path d="m1344 656v64z"/><path d="m1744 848v-112z"/><path d="m1648 848v-112h96v112z"/><path d="m1648 848v-112z"/><path d="m1344 736v112z"/><path d="m1344 848v-112z"/><path d="m-1648-8v-48-72 128 16 16z"/><path d="m-1088 48v48 48z"/><path d="m-592 368h16-240z"/><path d="m-592 368v96h16v-48-48z"/><path d="m-592 464v-96z"/><path d="m-1296-128h96-16-128-16z"/><path d="m-1488-128h8z"/><path d="m-1088 40-8-8z"/><path d="m-1088-8-8 8v32l8 8z"/><path d="m-1648-8 8-8v-32l-8-8z"/><path d="m-1480-128 8 8h32l8-8z"/><path d="m-1432-128-8 8z"/><path d="m-1648-56 8 8z"/><path d="m-1488 256v-32-53.3333z"/><path d="m-1648 152 8-8v-32l-8-8z"/><path d="m-1648 104 8 8z"/><path d="m-1424 336h-32v4.2667z"/><path d="m-1424 352h-32z"/><path d="m-1456 352h-16z"/><path d="m-1184 368h-16v16h16z"/><path d="m-1472 352h-16z"/><path d="m-1472 336h-16z"/><path d="m-1488 256v16 64z"/><path d="m-1504 336v-80h16v80z"/><path d="m1616 432v-64-32-16h16v16 32 64 112h-16z"/><path d="m1616 432v112 112-64z"/><path d="m-1200 380.6984v3.3016-16z"/><path d="m-1200 368v-8.6349z"/><path d="m-1200 380.6984v83.3016h16v-85.3333z"/><path d="m-1200 368h-32z"/><path d="m-1200 464v-83.3016-12.6984h-32v96z"/><path d="m1232 560v-16z"/><path d="m1232 560h-16z"/><path d="m-1472 336h-32 16z"/><path d="m-1472 352h-16-16v-16h32z"/><path d="m-1232 464h32 16 8-8-40-88z"/><path d="m-1232 464h-80-144v-88.127-7.873h224z"/><path d="m-1232 368h-224z"/><path d="m-1088 240v128 96-144z"/><path d="m-1184 368v-5.3333 5.3333 16-5.3333z"/><path d="m-1088 144h-96z"/><path d="m-1088 368v-128-96h-96v218.6667 5.3333z"/><path d="m-1088 464v-96h-96v10.6667 85.3333z"/><path d="m-1184 378.6667v5.3333h-16v-3.3016z"/><path d="m-1200 368v7.3651 88.6349h-32v-96z"/><path d="m-1200 359.3651v8.6349h16v-5.3333-5.3334z"/><path d="m-576-288v128z"/><path d="m-576-160v32z"/><path d="m-576 96v32z"/><path d="m-576 368v48z"/><path d="m-576 640v80z"/><path d="m704 640v-64-32z"/><path d="m1872-240v-32-192 80 72 32z"/><path d="m1872-208v-32z"/><path d="m1872-80v-96z"/><path d="m1792-176h-96z"/><path d="m1808-208v-32z"/><path d="m1808-240h64z"/><path d="m1872-208h-64z"/><path d="m1872-208h-64z"/><path d="m1872-240v32h-64v-32z"/><path d="m1872-176v-32h-64v32z"/><path d="m1344 176h48-32z"/><path d="m1472-176v96z"/><path d="m1696-80h-224z"/><path d="m1696-176h-224v96h224z"/><path d="m1872-80v-96h-64-16-96v96z"/><path d="m1344 368v-32z"/><path d="m1344 176v128z"/><path d="m720 96h-16z"/><path d="m704 336h16z"/><path d="m-576 720h128z"/><path d="m-384 720h224z"/><path d="m-128 720h-32z"/><path d="m-64 720h224z"/><path d="m192 720h-32z"/><path d="m256 720h224z"/><path d="m480 720h32z"/><path d="m576 720h48z"/><path d="m-448-288h-128z"/><path d="m-384-288h224z"/><path d="m-128-288h-32z"/><path d="m-64-288h224z"/><path d="m192-288h-32z"/><path d="m480-288h-224z"/><path d="m512-288h-32z"/><path d="m704-288h-128z"/><path d="m-448-16v80 144-144z"/><path d="m-448-16v-144h-128v32 192h128z"/><path d="m-576 64v32 32 80h128v-144z"/><path d="m576 640v-6.8571z"/><path d="m704 544h-128z"/><path d="m704 640v-96h-128v16 73.1429 6.8571z"/><path d="m-448 633.1429v-73.1429-16h-32-96v96h96 32z"/><path d="m-464 464h-16v16h16z"/><path d="m-384 544h-16v16h16z"/><path d="m-400 544h-48v16h48z"/><path d="m-448 633.1429h64v-73.1429h-16-48z"/><path d="m-336 633.1429v-73.1429-16h-48v16 73.1429 6.8571h48z"/><path d="m-464 320h-16v16h16z"/><path d="m-480 480v-16-128-16h-96v32 16 48 128h96z"/><path d="m-336 640h176 32v-6.8571h-208z"/><path d="m-240 544h-96v16h96z"/><path d="m-80 544h-144v16h112 32z"/><path d="m-224 544h-16v16h16z"/><path d="m96 544h-16v16h16z"/><path d="m80 544h-144v16h144z"/><path d="m-64 544h-16v16h16z"/><path d="m-576 208v112h96 16 16v-32-80z"/><path d="m160 633.1429h-48-176v6.8571h224z"/><path d="m192 640v-6.8571h-32v6.8571z"/><path d="m-112 560h-112-16-96v73.1429h208 16z"/><path d="m112 560h-16-16-144-16-32v73.1429h48 176z"/><path d="m160 633.1429h32 64v-73.1429h-16-128v73.1429z"/><path d="m112 560h128v-16h-144v16z"/><path d="m256 544h-16v16h16z"/><path d="m400 640v-6.8571-73.1429-16h-144v16 73.1429 6.8571z"/><path d="m416 544h-16v16h16z"/><path d="m576 544h-16v16h16z"/><path d="m400 640h80 32v-6.8571h-112z"/><path d="m400 633.1429h112 64v-73.1429h-16-144-16z"/><path d="m560 544h-144v16h144z"/><path d="m-448 208v80z"/><path d="m480 640h-80-144 160z"/><path d="m160 640h-224 144 16z"/><path d="m560 544v-10.6667z"/><path d="m560 544h-48-96z"/><path d="m400 544v-10.6667z"/><path d="m400 544h-144z"/><path d="m240 544h-48-96z"/><path d="m80 544v-10.6667z"/><path d="m-64 544h144z"/><path d="m256 720v-80z"/><path d="m512 640v80z"/><path d="m192 640v80z"/><path d="m-480 320h10.6667z"/><path d="m-448 288v32z"/><path d="m-384 720v-80z"/><path d="m-160 640h-176-48 144 16z"/><path d="m-80 544v-10.6667z"/><path d="m-224 544h144-48z"/><path d="m-336 544h96-144z"/><path d="m-128 720v-80 64z"/><path d="m-448 640h-32z"/><path d="m-480 464h16 32-16z"/><path d="m-480 336v-16h10.6667 21.3333v16z"/><path d="m-480 480v-16h32v16z"/><path d="m-400 544v-10.6667z"/><path d="m-448 544h48-48-32z"/><path d="m-480 640h-96z"/><path d="m512 633.1429v6.8571z"/><path d="m192 633.1429v6.8571z"/><path d="m256 640v-6.8571z"/><path d="m-128 633.1429v6.8571 80-48-16z"/><path d="m-448 720v-64-16z"/><path d="m-448 633.1429v6.8571z"/><path d="m-1088 464h-88-8z"/><path d="m-1088 376v-8-40z"/><path d="m-864 144h-64-144-16 16 144z"/><path d="m-928 256v-16z"/><path d="m-832 256h-96v-16h96z"/><path d="m-864 144h32v96h-96v-96z"/><path d="m-832 256v96h-96v-96z"/><path d="m-1088 240v-96h16v96z"/><path d="m-928 240h-144v-96h144z"/><path d="m-1072 240h144-144-16z"/><path d="m-1184 357.3333v5.3334-218.6667z"/><path d="m-1088 144v96 88 40h-96v-10.6667-213.3333z"/><path d="m-1088 368v8 88h-96v-90.6667-5.3333z"/><path d="m-1184 373.3333v90.6667h-16v-88.6349z"/><path d="m576 512v32h128v-32z"/><path d="m672 416h-96v32h96z"/><path d="m576 448v64h32v-64z"/><path d="m704 416h-32v96h32z"/><path d="m608 512v-64z"/><path d="m608 448h64z"/><path d="m672 448v64z"/><path d="m672 512h-64z"/><path d="m-576-192v32h128v-32z"/><path d="m-480-288h-96v32h96z"/><path d="m-576-256v64h32v-64z"/><path d="m-448-288h-32v96h32z"/><path d="m-480-192h-64z"/><path d="m-544-192v-64z"/><path d="m-544-256h64z"/><path d="m-480-256v64z"/><path d="m-320 272v-112h-112v112z"/><path d="m-432 272-16 16h144l-16-16z"/><path d="m-320 160v112l16 16v-144z"/><path d="m1616 592v64h1.9395l7.7575-64z"/><path d="m1872-240v-40z"/><path d="m-1184 352v5.3333 10.6667 5.3333z"/><path d="m-1200 352v23.3651-7.3651-8.6349z"/><path d="m-1184 352v-16l-16 2.1333v13.8667 7.3651l16-2.0318z"/><path d="m1632 544v112h-16v-112z"/><path d="m1872-312v-72z"/><path d="m1617.9395 656h14.0605z"/><path d="m1632 656v-116l-6.303 52-7.7575 64z"/><path d="m1616 656v16l1.9395-16z"/><path d="m2064 16v48z"/><path d="m1024 848h-128z"/><path d="m1136 848h192z"/><path d="m-576-128v192 32z"/><path d="m-576 496v48 96 80z"/><path d="m-576 272v16 32 176-144z"/><path d="m1872-624v24z"/><path d="m1872-280v-32z"/><path d="m1872-208v-32-40 104z"/><path d="m1872-80v-96h192v176h-16-160-16z"/><path d="m1888 176v64 48-48z"/><path d="m1888 176v-160z"/><path d="m2048 16h-160v-16h160z"/><path d="m1632 656h7.1884 8.8116 7.1884z"/><path d="m1232 448v-16z"/><path d="m1232 464v80z"/><path d="m1696-176h-224z"/><path d="m1872-208v32h-64v-32z"/><path d="m1808-176v-32z"/><path d="m1472-176v16z"/><path d="m1808-80h64-176z"/><path d="m1872-176v96h-64v-96z"/><path d="m1696-80h-224v-16-64-16h224z"/><path d="m1792-176h16v96h-112v-96z"/><path d="m1872 0h-8z"/><path d="m1232-96v-64l64 64v48 112h-64z"/><path d="m1296 64v112h-64v-48-64z"/><path d="m1456-160v64h-144-16l-64-64z"/><path d="m1456-96v-64h16v64z"/><path d="m1472-160h-16v-16h16z"/><path d="m1456-96v16h-144v-16z"/><path d="m1456-96h16v16h-16z"/><path d="m1296-96 16 16v32h-16z"/><path d="m1296 464h16z"/><path d="m1296 176v64 160h-64v-32-16-176z"/><path d="m1296 400v64h-64v-16-16-32z"/><path d="m1232 464h64 16v80h-80z"/><path d="m1232 128v48 176h-16v-224z"/><path d="m1232-96v160 64h-16v-224z"/><path d="m1232-160-16-16h16z"/><path d="m1136 368h-128-80l-16-16h224z"/><path d="m1232 352v16l-16-16z"/><path d="m992 624 16 16h-64v-16z"/><path d="m1136 368h96v32 32h-224v-64z"/><path d="m1232 432v16h-224v-16z"/><path d="m928 560 16 16v48h-224v-64z"/><path d="m944 576 16 16 32 32h-48z"/><path d="m928 544v-176l64 64v160h-32l-16-16-16-16z"/><path d="m992 592v32l-32-32z"/><path d="m1008 432h-16l-64-64h80z"/><path d="m992 592v-160l16 16v192l-16-16z"/><path d="m928 544v16l-16-16z"/><path d="m1632 672h21.3334-5.3334-10.6666-21.3334z"/><path d="m1632 672v-16z"/><path d="m1040 736v-80z"/><path d="m1120 736h-80v16h80z"/><path d="m1136 848v-96h-16-80-16v96z"/><path d="m1136 752h192z"/><path d="m1120 752h16z"/><path d="m1024 752h16z"/><path d="m1024 752h-192z"/><path d="m1040 752v-16z"/><path d="m1120 736v16z"/><path d="m1136 752v96h192v-96z"/><path d="m720 560v64h-16v-64z"/><path d="m-576-288h128z"/><path d="m-576-128v-32h128v144 80h-128z"/><path d="m-448 64v144h-128v-64-48-32z"/><path d="m-448-160v144z"/><path d="m-576-160h128z"/><path d="m576 544v-16z"/><path d="m576 544v5.3333z"/><path d="m704 640h-128z"/><path d="m704 544v16 64 16h-128v-9.1429-81.5238-5.3333z"/><path d="m-448 208v80h-128v-16-64z"/><path d="m-64 533.3333v10.6667z"/><path d="m-64 640v80z"/><path d="m256 533.3333v-21.3333h-16v21.3333 10.6667h16z"/><path d="m416 533.3333v-21.3333h-16v21.3333 10.6667h16z"/><path d="m512 640h-32z"/><path d="m192 640h-32z"/><path d="m96 544v-16-16z"/><path d="m96 544v5.3333z"/><path d="m416 533.3333v10.6667z"/><path d="m560 549.3333h16v81.5238h-16z"/><path d="m512 544h48v5.3333 81.5238h-48z"/><path d="m512 630.8571v9.1429h-32-64v-9.1429-81.5238-5.3333h96z"/><path d="m560 544v-10.6667-21.3333 16 21.3333z"/><path d="m512 640v-9.1429-6.8571z"/><path d="m416 630.8571v9.1429h-160v-9.1429z"/><path d="m240 549.3333h16 144 16v81.5238h-160-64v-81.5238z"/><path d="m400 544v5.3333h-144v-5.3333z"/><path d="m192 544h48v5.3333h-48z"/><path d="m192 544v5.3333 81.5238 9.1429h-32-64v-90.6667-5.3333z"/><path d="m192 640v-9.1429-6.8571z"/><path d="m240 544v-10.6667z"/><path d="m256 533.3333v10.6667z"/><path d="m80 549.3333h16v90.6667h-16z"/><path d="m-64 630.8571v-81.5238-5.3333h144v5.3333 90.6667h-144z"/><path d="m-448 320h-16 10.6667z"/><path d="m-448 288v32h-5.3333-16-10.6667-96v-32z"/><path d="m-480 320v16 128 16 64z"/><path d="m-384 544v-16-16z"/><path d="m-384 544v5.3333z"/><path d="m-128 640h-32z"/><path d="m-64 533.3333v-21.3333h-16v21.3333 10.6667h16z"/><path d="m-224 533.3333v-21.3333h-16v21.3333 10.6667h16z"/><path d="m-80 549.3333h16v81.5238h-16z"/><path d="m-80 549.3333v81.5238h-48v-86.8571h48z"/><path d="m-224 549.3333v-5.3333h96v86.8571 9.1429h-32-64z"/><path d="m-240 549.3333h16v90.6667h-16z"/><path d="m-240 544v5.3333 90.6667h-144v-9.1429-81.5238-5.3333z"/><path d="m-80 630.8571h16v-16.7433h-64v16.7433z"/><path d="m-224 533.3333v10.6667 5.3333-21.3333-16z"/><path d="m-128 640v-9.1429-16.7433z"/><path d="m-224 533.3333v10.6667z"/><path d="m-240 544v-10.6667z"/><path d="m-480 544h32v86.8571 9.1429h-32z"/><path d="m-448 544h48v5.3333 81.5238h-48z"/><path d="m-400 549.3333h16v81.5238h-16z"/><path d="m-448 640v-9.1429-6.8571z"/><path d="m-400 544v-10.6667-21.3333 16 21.3333z"/><path d="m-448 640v80z"/><path d="m-576 496v-176h96v224h-96z"/><path d="m-576 544h96v96h-96z"/><path d="m576 544v-128z"/><path d="m576 416h128z"/><path d="m704 544h-128z"/><path d="m704 416v128z"/><path d="m576 544v-128h128v128z"/><path d="m-448-288v128z"/><path d="m-576-288h128z"/><path d="m-576-160v-128z"/><path d="m-448-160h-128z"/><path d="m-576-160v-128h128v128z"/><path d="m-304 144v16z"/><path d="m-304 288h-32z"/><path d="m-416 288h-32z"/><path d="m-448 288v-16z"/><path d="m-448 144h32z"/><path d="m-336 144h32z"/><path d="m-304 160v112h-144v-112z"/><path d="m-416 144h80v16h-80z"/><path d="m-336 288h-80v-16h80z"/><path d="m-416 144v16z"/><path d="m-336 288v-16z"/><path d="m-448 288 16-16v-112l-16-16z"/><path d="m-448 144 16 16h112l16-16z"/><path d="m-1088 464h-88z"/><path d="m1888 464v48 144h176v-144-48z"/><path d="m1312 640h-80z"/><path d="m-1232 336h32 16-64z"/><path d="m-1232 352h-192-32 208z"/><path d="m-1232 336h-16-176l-32 4.2667v11.7333h32 192z"/><path d="m1584 464h-128z"/><path d="m1456 464v128z"/><path d="m1584 464h-128v128h128z"/><path d="m624 720h-48z"/><path d="m624 720v-8h64v8z"/><path d="m624 712v8z"/><path d="m688 712h-64z"/><path d="m576 528v-16h-16v21.3333 10.6667h16z"/><path d="m240 544v5.3333z"/><path d="m240 544v-16h16v21.3333h-16z"/><path d="m-240 544v5.3333z"/><path d="m-240 544v-16h16v21.3333h-16z"/><path d="m-1200 352v-13.8667z"/><path d="m-1200 338.1333 16-2.1333h-16z"/><path d="m-1200 352v-13.8667-2.1333h-32v16z"/><path d="m1616 656v16z"/><path d="m1632 656v16h-16v-16z"/><path d="m-1760 464v-208z"/><path d="m704 640v-16z"/><path d="m704 544v16z"/><path d="m1392 176h64z"/><path d="m1616 176h64z"/><path d="m1680 176h64z"/><path d="m1472-80v-16z"/><path d="m1800 0h-32-8z"/><path d="m1864-8h-64v8h64z"/><path d="m1456-176v16h-224v-16z"/><path d="m1312-80v32z"/><path d="m1456-80h16-16-144z"/><path d="m1312-48v224h-16v-112-112z"/><path d="m1312-80-16-16h16z"/><path d="m1344 336v-160 128z"/><path d="m1344 464v-64-32 64z"/><path d="m1344 576v80z"/><path d="m1744 400v112-144-16-16z"/><path d="m1680 176h-64v16h64z"/><path d="m1456 176h-64v16h64z"/><path d="m1744 336h-16v64h16z"/><path d="m1456 464h128v128h-128z"/><path d="m1584 464v128z"/><path d="m1584 592h-128z"/><path d="m1360 336h-16v32 32h16z"/><path d="m1312 240v224h-16v-64-160z"/><path d="m1312 176v64h-16v-64z"/><path d="m1136 352h-224z"/><path d="m1232-176h-16z"/><path d="m1216 128v224z"/><path d="m1216-96v224z"/><path d="m1216-176 16 16v64h-16z"/><path d="m1216 352 16 16h-96v-16z"/><path d="m1008 640h-64z"/><path d="m944 640h-224v-16h224z"/><path d="m1008 448v192z"/><path d="m1232 448h-224z"/><path d="m1008 448-16-16h16z"/><path d="m912 352 16 16v176h-16z"/><path d="m912 544 16 16h-208v-16z"/><path d="m1744 656h-16v64h16z"/><path d="m1728 656v64z"/><path d="m1632 672h-16z"/><path d="m1344 656v64h16v-64z"/><path d="m1568 832h-64v16h64z"/><path d="m704 544h16v16h-16z"/><path d="m720 640h-16v-16h16z"/><path d="m144-32v32 32z"/><path d="m80-32h64v64h-64z"/><path d="m80-32h48 16z"/><path d="m144 32h-16-48z"/><path d="m-1536 464h120-120-8z"/><path d="m-1312 464h88-72-72z"/><path d="m-1536 464h-8-48-168 112 104z"/><path d="m-1312 464h-56-48-120 16 48 16z"/><path d="m-1184 336v16z"/><path d="m-1176 464-8-8v8z"/><path d="m-1088 328-8 8v32l8 8z"/><path d="m-1088 376-8-8z"/><path d="m-1224 464 8-8z"/><path d="m-1184 456h-32l-8 8h40z"/><path d="m-1184 456h-32z"/><path d="m-1200 352h16v21.3333l-16 2.0318z"/><path d="m-1376 456h-32l-8 8h48z"/><path d="m-1416 464 8-8z"/><path d="m-1552 456h-32l-8 8h48z"/><path d="m-1592 464 8-8z"/><path d="m-1248 336h-224 48z"/><path d="m-1248 352h-208-16v-16h224z"/><path d="m-1200 352h-32z"/><path d="m1872-280v-32-72h192v160 48h-192z"/><path d="m1136 640h-16z"/><path d="m1040 640v-80 5.4737z"/><path d="m1216 560h16z"/><path d="m1120 560h16 80-68.6957-107.3043z"/><path d="m1136 560h-16v80h16z"/><path d="m1120 640v-80h-80v80z"/><path d="m1120 640v16z"/><path d="m1040 656v-16z"/><path d="m1040 656h80v-16h-80z"/><path d="m1120 656h-80v80h80z"/><path d="m576 512v16z"/><path d="m-64 528v-16 21.3333 10.6667 5.3333z"/><path d="m96 512h-16v21.3333 10.6667h16z"/><path d="m400 512h16 144 16-192z"/><path d="m416 528v-16 21.3333 10.6667 5.3333z"/><path d="m560 528v-16h-144v16z"/><path d="m560 528h16v16 5.3333h-16z"/><path d="m240 528v-16h-80-64v16z"/><path d="m320 528h80v-16h-16-128v16z"/><path d="m320 528h-64-16-144 64z"/><path d="m416 528h-16-80 64z"/><path d="m256 528v-16 21.3333 10.6667 5.3333z"/><path d="m400 528v21.3333-5.3333-10.6667-21.3333z"/><path d="m400 528h16v21.3333h-16z"/><path d="m240 512v16 16-10.6667z"/><path d="m80 512h-144v16h144z"/><path d="m96 528h-16-144z"/><path d="m80 528v21.3333-5.3333-10.6667-21.3333z"/><path d="m80 528h16v16 5.3333h-16z"/><path d="m-448 320h-21.3333 16 21.3333z"/><path d="m-240 528v-16h-144v16z"/><path d="m-80 512h-80-64v16h64 80z"/><path d="m-160 528h-64-16-144z"/><path d="m-64 528h-16-80z"/><path d="m-80 528v21.3333-5.3333-10.6667-21.3333z"/><path d="m-80 528h16v21.3333h-16z"/><path d="m-240 512v16 16-10.6667z"/><path d="m-448 480v32h16v-32z"/><path d="m-448 336v128h16v-128z"/><path d="m-448 480v-16-128-16 192z"/><path d="m-448 336h16-32-16z"/><path d="m-432 336v-16h-21.3333-10.6667v16z"/><path d="m-448 480h16-32-16z"/><path d="m-432 480v-16h-32v16z"/><path d="m-384 512h-16v21.3333 10.6667h16z"/><path d="m-400 528h16v16 5.3333h-16z"/><path d="m-432 512h-16v16h48v-16z"/><path d="m-384 528h-16-48 16z"/><path d="m-1648 240v-88z"/><path d="m-1648 104v48 88-32-32-160z"/><path d="m-1648 16v-24 40 72z"/><path d="m-1648-56v-72z"/><path d="m-1088-128v120z"/><path d="m-1088 40v8z"/><path d="m-1296-128h-64-72z"/><path d="m-1648-128h160-32z"/><path d="m-1096 32v-32z"/><path d="m-1096 32v-32l8-8v48z"/><path d="m-1096 0 8-8z"/><path d="m-1640-48v32z"/><path d="m-1472-120-8-8h48l-8 8z"/><path d="m-1440-120h-32z"/><path d="m-1472-120-8-8z"/><path d="m-1648-56 8 8v32l-8 8z"/><path d="m-1640-16-8 8z"/><path d="m-1648 104 8 8v32l-8 8z"/><path d="m-1640 112v32z"/><path d="m-1640 144-8 8z"/><path d="m-1184 336v16h-16-32-16v-16z"/><path d="m-1184 352h-16z"/><path d="m960-624h224z"/><path d="m1184-624h224z"/><path d="m1408-624h224z"/><path d="m1872-624h-240z"/><path d="m-576 96v-48-112-64z"/><path d="m-576-288v128 32z"/><path d="m-576 496v224-32z"/><path d="m-576 224v-16z"/><path d="m-576 208v-16z"/><path d="m-576 240v-16z"/><path d="m-576 192v-48z"/><path d="m-576 272v80-112z"/><path d="m-576 240v-16-16-16-48 64 64z"/><path d="m704 720v-80z"/><path d="m704 336v96 112z"/><path d="m704 96v-192-32z"/><path d="m704-272v144z"/><path d="m704-288v16z"/><path d="m960-624v24z"/><path d="m960-592v-8z"/><path d="m2048 0h16z"/><path d="m1872 0h16z"/><path d="m2048 0v16z"/><path d="m960-528v-64z"/><path d="m960-512v-16z"/><path d="m960-496v-16z"/><path d="m960-480v-16z"/><path d="m1472-264v88z"/><path d="m1376-384h96z"/><path d="m1280-384h96v80h-96z"/><path d="m1280-384h-16z"/><path d="m1280-304v-80z"/><path d="m1472-80v80z"/><path d="m1232-384h-32z"/><path d="m1200 336v-32-48-144z"/><path d="m1200 112v-80-144z"/><path d="m1200-112v-80-144z"/><path d="m1200-384v48z"/><path d="m1200 336h-32z"/><path d="m960 96v-224z"/><path d="m960-128v-16-208z"/><path d="m960-352v-16-112z"/><path d="m960 96h-16-224z"/><path d="m720 336h224z"/><path d="m944 336h224z"/><path d="m704 96h16z"/><path d="m720 336h-16z"/><path d="m-448 720h-128z"/><path d="m512 720h-32z"/><path d="m704 720h-80 64z"/><path d="m256-288h224z"/><path d="m256-288v64 9.8862 22.1138z"/><path d="m336 48-16-16v112h16z"/><path d="m576-288v16 57.1429 22.8571z"/><path d="m512-192v-22.8571-73.1429z"/><path d="m512-192v9.8862h64v-9.8862-22.8571h-64z"/><path d="m432 48h-96v96h96z"/><path d="m-64-288v64 9.8862 22.1138z"/><path d="m-448-192v9.8862h64v-32h-64z"/><path d="m-448-192v-22.1138-9.8862-64z"/><path d="m576 624v6.8571 9.1429z"/><path d="m160 528h-64-160v-16h224z"/><path d="m384 528h-64-160v-16h224z"/><path d="m576 512v16h-160-32v-16z"/><path d="m432 288h-96v96h96z"/><path d="m160 512h-224 144 16z"/><path d="m384 512h-224 80 16z"/><path d="m512 624v6.8571h48 16v-6.8571z"/><path d="m576 528h-16-144z"/><path d="m192 624v6.8571h64v-6.8571z"/><path d="m256 624v6.8571 9.1429z"/><path d="m-448 320h16z"/><path d="m-384 624v6.8571 9.1429z"/><path d="m-160 512h-224 144 16z"/><path d="m-64 512h-96 80z"/><path d="m-160 528h-224v-16h224z"/><path d="m-64 528h-96v-16h96z"/><path d="m-448 528v-16-192h16v192 16z"/><path d="m-384 528h-48v-16h48z"/><path d="m-448 624v-9.8862-9.5078-12.606 48z"/><path d="m-384 512h-48 32z"/><path d="m-432 320v16 128 16 32z"/><path d="m-448 512v16z"/><path d="m-448 624v6.8571h48 16v-6.8571z"/><path d="m2064 288v176 48-48z"/><path d="m1472 184v-4z"/><path d="m1472 184v-4h128v4z"/><path d="m1600 180v4z"/><path d="m1600 184h-128z"/><path d="m1472 180h128z"/><path d="m512 720v-80-16-9.8862z"/><path d="m192 720v-80-16-9.8862z"/><path d="m2064-224v120 32 72-176z"/><path d="m2064-384v72 32 40 16z"/><path d="m2064-240v-40z"/><path d="m2048-600h-176v-24h192v24z"/><path d="m1872-600v8z"/><path d="m2048-592v-8z"/><path d="m1872-592v-8h176v8z"/><path d="m1872-536v80 32 40 72-72-80z"/><path d="m1872-592v24 32z"/><path d="m2064 0h-16z"/><path d="m1872-568v-24h176v24z"/><path d="m2048-456h-176v-80-32h176 16v112z"/><path d="m1872-424v-32h176v32z"/><path d="m2064-104h-16v32h16z"/><path d="m2064-312h-16v32h16z"/><path d="m1872-384v-40h176 16v40z"/><path d="m1472-296v32h16v-32z"/><path d="m1472-384h-48-48z"/><path d="m1472 0v-80z"/><path d="m1800 0h-32z"/><path d="m1696 0h-88-32-104 136z"/><path d="m1576 0h-104z"/><path d="m1768-16h-32v16h24 8z"/><path d="m1608-16h-32v16h32z"/><path d="m1344 464v-64z"/><path d="m1344 512v32z"/><path d="m1232 640h80v-64h-80z"/><path d="m1312 544h-80v16 16h80z"/><path d="m1312 464v80z"/><path d="m1232 640h-16-80 46.0869 33.9131z"/><path d="m1216 576v64h16v-64z"/><path d="m1232 576v-16h-16v16z"/><path d="m1216 560h-80z"/><path d="m1216 576v-16h-80v80h80z"/><path d="m448 144h-16-96-16z"/><path d="m320 32h128v112h-128z"/><path d="m320 32 16 16h96l16-16z"/><path d="m448 32-16 16v96h16z"/><path d="m320 288h16 96 16z"/><path d="m320 400 16-16v-96h-16z"/><path d="m320 400v-112h128v112z"/><path d="m448 400-16-16h-96l-16 16z"/><path d="m448 288h-16v96l16 16z"/><path d="m-816 464h42 182z"/><path d="m-928 368v-16-96 96 16 96z"/><path d="m-816 368h224z"/><path d="m-832 368h16z"/><path d="m-832 256v-16-96z"/><path d="m-832 352v-96z"/><path d="m-832 352h-96v16h96z"/><path d="m-928 464h112v-96h-16-96z"/><path d="m-816 368v96h224v-96z"/><path d="m-304 144v16 8z"/><path d="m-304 272v16z"/><path d="m-448 288v-16-8z"/><path d="m-448 160v-16z"/><path d="m-448 144v8 24 16z"/><path d="m-416 144v16 8z"/><path d="m-416 272v16z"/><path d="m-336 144v8 24 16z"/><path d="m-336 160v-16z"/><path d="m-336 288v-16-8z"/><path d="m-304 160h-32z"/><path d="m-336 272h32z"/><path d="m-448 272h32z"/><path d="m-416 160h-32z"/><path d="m1888 240v48 176h176v-176-48z"/><path d="m1488 848h16z"/><path d="m1568 848h32z"/><path d="m1568 848h32-64z"/><path d="m704 640v80z"/><path d="m1728 656h16z"/><path d="m1344 656h16z"/><path d="m1232 448v-16z"/><path d="m1456-176h16-16-224z"/><path d="m1472-176v-16-72z"/><path d="m1504 176h32 80-16-144z"/><path d="m1456 176h-64-48 160z"/><path d="m1472-80v-16z"/><path d="m1472-176v16z"/><path d="m1768 0h32 64z"/><path d="m1800-8v8z"/><path d="m1800 0v-8h64v8z"/><path d="m1864 0v-8z"/><path d="m1864-8h-64z"/><path d="m1768 0v-16z"/><path d="m1472-176h-16v16h16z"/><path d="m1312-48v224z"/><path d="m1456-80v-16h-144v16z"/><path d="m1456-80h16v-16h-16z"/><path d="m1312-80-16-16v48h16z"/><path d="m1344 464v48z"/><path d="m1344 656v-80z"/><path d="m1744 176v160-32z"/><path d="m1744 400v112z"/><path d="m1744 512v32z"/><path d="m1744 544v112z"/><path d="m1744 544v112-144z"/><path d="m1680 192h-64v-16h64z"/><path d="m1728 400v-64h16v64z"/><path d="m1456 192h-64v-16h64z"/><path d="m1344 336h16v64h-16z"/><path d="m1456 192h-64z"/><path d="m1680 192h-64z"/><path d="m1616 192v-16z"/><path d="m1680 176v16z"/><path d="m1456 176v16z"/><path d="m1392 192v-16z"/><path d="m1744 400h-16z"/><path d="m1728 400v-64z"/><path d="m1728 336h16z"/><path d="m1360 400h-16z"/><path d="m1344 336h16z"/><path d="m1360 336v64z"/><path d="m1312 240v224z"/><path d="m1312 176v64z"/><path d="m1008 640-16-16h-48v16z"/><path d="m1216 352h-80z"/><path d="m1216-176v80z"/><path d="m1216 128v224h16v-176-48z"/><path d="m1216-96v224h16v-64-160z"/><path d="m1232-176h-16l16 16z"/><path d="m1136 352h-224l16 16h208z"/><path d="m1216 352 16 16v-16z"/><path d="m944 640h-224z"/><path d="m1232 448v-16h-80-144v16z"/><path d="m1008 448-16-16v160 32l16 16z"/><path d="m912 544h-192z"/><path d="m912 352v192z"/><path d="m912 544 16 16v-16z"/><path d="m1728 656h16v64h-16z"/><path d="m1744 720h-16z"/><path d="m1360 656v64h-16v-64z"/><path d="m1360 720h-16z"/><path d="m1360 656v64z"/><path d="m1504 848v-16z"/><path d="m1568 832v16h-32-32v-16z"/><path d="m1568 832v16z"/><path d="m1504 832h64z"/><path d="m720 544h-16z"/><path d="m704 640h16z"/><path d="m704 640h16v-16h-16z"/><path d="m720 544h-16v16h16z"/><path d="m-1760 464h168z"/><path d="m-1224 464h48 88-176-32z"/><path d="m-1088 464v-88z"/><path d="m-1088 328v-88z"/><path d="m-1592 464 8-8h32l8 8z"/><path d="m-1416 464 8-8h32l8 8z"/><path d="m-1184 456 8 8h-48l8-8z"/><path d="m-1096 368v-32l8-8v48z"/><path d="m-1096 368v-32z"/><path d="m-1096 336 8-8z"/><path d="m-1184 456 8 8z"/><path d="m-1552 456 8 8z"/><path d="m-1408 456h32z"/><path d="m-1376 456 8 8z"/><path d="m-1584 456h32z"/><path d="m-304 264v16-24-16z"/><path d="m-304 264v8 16-8z"/><path d="m-304 152v-8 48-16z"/><path d="m-448 168v-8-16z"/><path d="m-448 280v8-48 16z"/><path d="m-416 264v8 16-8z"/><path d="m-416 264v16-24-16z"/><path d="m-416 152v-8 48-16z"/><path d="m-336 280v8-48 16z"/><path d="m-336 168v-8-16z"/><path d="m-304 168h-32v24h32z"/><path d="m-336 152v-8h32v8z"/><path d="m-304 280h-32v-24h32z"/><path d="m-336 264h32v-24h-32z"/><path d="m-336 264v8h32v-8z"/><path d="m-304 168v-8h-32v8z"/><path d="m-304 280v8h-32v-8z"/><path d="m-448 264v8h32v-8z"/><path d="m-448 152v-8h32v8z"/><path d="m-416 168h-32v24h32z"/><path d="m-448 264h32v-24h-32z"/><path d="m-416 168v-8h-32v8z"/><path d="m-416 280h-32v-24h32z"/><path d="m-416 280v8h-32v-8z"/><path d="m-1752 424h-4v-128h4z"/><path d="m-1756 296h4z"/><path d="m-1752 424h-4z"/><path d="m-1756 424v-128z"/><path d="m-1752 296v128z"/><path d="m1888 176v-160-16 16z"/><path d="m704 544v16z"/><path d="m704 624v16z"/><path d="m1232 464v-16z"/><path d="m1472-176v16 64 16z"/><path d="m1296-48v-48l-64-64v64 160h64z"/><path d="m1232 64v64 48h64v-112z"/><path d="m1456-160v64h16v-64z"/><path d="m1312-96h144v-64h-224l64 64z"/><path d="m1456-160v-16h-224v16z"/><path d="m1296-48v112 112h16v-224z"/><path d="m1312-96h-16l16 16z"/><path d="m1536 560h-32-16l16 16h16z"/><path d="m1552 512v32h16v-32l-16-16z"/><path d="m1552 496h-16l16 16z"/><path d="m1568 544h-16l-16 16-16 16h16z"/><path d="m1488 496v16l16-16 16-16h-16z"/><path d="m1504 560-16-16v16z"/><path d="m1520 480-16 16h32 16l-16-16z"/><path d="m1488 544v-32-16l-16 16v32l16 16z"/><path d="m1552 496 16 16-32-32z"/><path d="m1520 480h16-32z"/><path d="m1488 496 16-16-32 32z"/><path d="m1568 544v-32z"/><path d="m1520 576h-16 32z"/><path d="m1296 464h16z"/><path d="m1232 176v176 16 32h64v-160-64z"/><path d="m1232 400v32 16 16h64v-64z"/><path d="m1296 240v160 64h16v-224z"/><path d="m1296 176v64h16v-64z"/><path d="m1312 464h-16-64v80h80z"/><path d="m944 624h-224v16h224z"/><path d="m1232-160-16-16v80h16z"/><path d="m944 576-16-16h-208v64h224z"/><path d="m992 624-32-32-16-16v48z"/><path d="m992 432-64-64v176 16l16 16 16 16h32z"/><path d="m960 592 32 32v-32z"/><path d="m1152 368h-16-208l64 64h16 144z"/><path d="m1232 432v-32-32h-80v64z"/><path d="m1152 368h80l-16-16h-80v16z"/><path d="m1008 432h-16l16 16z"/><path d="m928 368-16-16v192h16z"/><path d="m928 560-16-16h-192v16z"/><path d="m704 560v64h16v-64z"/><path d="m-1088 240v192 32-88-48z"/><path d="m-832 144h-32z"/><path d="m-832 144h-32-64v96 16h96z"/><path d="m-928 240v-96h-144v96z"/><path d="m-1088 240h16v-96h-16z"/><path d="m-928 256v96z"/><path d="m-832 256h-96v96h96z"/><path d="m-448 240h144v-48h-144z"/><path d="m-416 256h80v-16h-80z"/><path d="m-336 192v-16h-80v16z"/><path d="m-304 256v-80z"/><path d="m-304 176h-144z"/><path d="m-336 176v-24h32v24z"/><path d="m-448 176v-24h32v24z"/><path d="m-128 640v-25.8862-50.9138z"/><path d="m1504 848h-16 16 32z"/><path d="m-576 128v-32 48z"/><path d="m-576 128v16 48 16 16 16 112-32-32-80-64z"/><path d="m1504 176h32z"/><path d="m1744 512h-176z"/><path d="m1472 512h-128z"/><path d="m1536 256v144 80-80z"/><path d="m1504 176v80z"/><path d="m1536 256v-80h-32v80 144h32z"/><path d="m1504 400v80h32v-80z"/><path d="m1744 544v-32h-176v32z"/><path d="m1504 576v80z"/><path d="m1536 576h-32v80h32z"/><path d="m1472 544v-32z"/><path d="m1472 544v-32h-128v32z"/><path d="m1536 656v80z"/><path d="m1504 656v80h32v-80z"/><path d="m1536 736v112z"/><path d="m1504 736v112h32v-112z"/><path d="m-1296 464h-32-96-112 120 48z"/><path d="m-1648 176v-80-80z"/><path d="m-1648 208v-32z"/><path d="m-1648 16v-144 72 48z"/><path d="m-1088 176v32 32-96z"/><path d="m-1248 176v32l16-16z"/><path d="m-1296 144v16h32 16l-16-16z"/><path d="m-1248 160h-16l16 16 16 16v-16z"/><path d="m-1264 240 16-16h-16-32v16z"/><path d="m-1248 224 16-16v-16l-16 16-16 16z"/><path d="m-1232 192v16-32z"/><path d="m-1312 160v16l16-16v-16z"/><path d="m-1296 224-16-16-16-16v16l32 32z"/><path d="m-1328 192 16 16v-32-16l-16 16z"/><path d="m-1312 160 16-16-32 32z"/><path d="m-1328 192v-16 32z"/><path d="m-448 256v-80z"/><path d="m-304 256h-144z"/><path d="m-352 176h48v48h-48z"/><path d="m-448 208v-32h96v32z"/><path d="m-448 224v-16h48v16z"/><path d="m-448 256v-32h144v32z"/><path d="m2064 64v176 48-48z"/><path d="m2064 64v-48h-16-160v160 64h176z"/><path d="m256-182.1138v9.5078 12.606-128 96z"/><path d="m576-182.1138v9.5078 12.606-128 96z"/><path d="m-128-182.1138v-105.8862 115.394 60.606z"/><path d="m192-182.1138h64v-9.8862-22.1138h-64z"/><path d="m-128-182.1138h64v-9.8862-22.1138h-64z"/><path d="m-64-182.1138v9.5078 12.606-128 96z"/><path d="m-384-182.1138v-105.8862 73.8862z"/><path d="m-448-182.1138v9.5078 60.606z"/><path d="m-384-182.1138v70.1138-60.606z"/><path d="m576 614.1138h-64v9.8862h64z"/><path d="m256 614.1138h-64v9.8862h64z"/><path d="m-384 614.1138v9.8862 16 80z"/><path d="m-384 614.1138h-64v9.8862h64z"/><path d="m1504 848h-16z"/><path d="m1888 0h-16z"/><path d="m2048 0h-160v16h160z"/><path d="m2048 16h16z"/><path d="m1744 176h-64-64-80z"/><path d="m1344 400v-64 64 64z"/><path d="m1344 576v-32z"/><path d="m1744 336v64z"/><path d="m1536 176v80z"/><path d="m1744 400v-64-160h-208v80 144z"/><path d="m1744 512v-112h-208v80l32 32z"/><path d="m1504 256v144 80-80z"/><path d="m1504 400v-144-80h-160v160 64z"/><path d="m1344 464v48h128l32-32v-80h-160z"/><path d="m1536 576v80z"/><path d="m1744 544h-176z"/><path d="m1568 544-32 32z"/><path d="m1744 656v-112h-176l-32 32v80z"/><path d="m1472 544h-128z"/><path d="m1504 576-32-32h-128v32 80h160z"/><path d="m1504 576-16-16-16-16z"/><path d="m1504 656v80z"/><path d="m1744 656v64z"/><path d="m1744 736v-16-64h-208v80z"/><path d="m1344 736v-16z"/><path d="m1344 720v-64z"/><path d="m1344 656v64 16h160v-80z"/><path d="m1504 736v112z"/><path d="m1600 848h144v-112h-208v112z"/><path d="m1344 736v112h16 128 16v-112z"/><path d="m-1296 464h32z"/><path d="m-1088 176v32z"/><path d="m-1088 208v32z"/><path d="m-1088-128v176-8-48z"/><path d="m-1264-128h64-96z"/><path d="m-1296-128v48z"/><path d="m-1264-80v176 48-48z"/><path d="m-1296 144h32z"/><path d="m-1264-80v-48h-32v48 176h32z"/><path d="m-1296 96v48h32v-48z"/><path d="m-1232 208h144v-32h-144z"/><path d="m-1264 240h-32z"/><path d="m-1296 464h32v-224h-32z"/><path d="m-1328 176h-96z"/><path d="m-1424 208h-224z"/><path d="m-1424 176h-224v32h224z"/><path d="m-1328 208v-32h-96v32z"/><path d="m-384-288v105.8862 9.5078z"/><path d="m-352 208h-224z"/><path d="m464 16v-24-40z"/><path d="m352 64v16l16-16 16-16h-16z"/><path d="m336 96 16 16v-32-16l-16 16z"/><path d="m304 16h160v-64h-160z"/><path d="m416 64h-16l16 16z"/><path d="m432 112v-32l-16-16v16 32z"/><path d="m352 112-16-16v16l16 16h16z"/><path d="m384 48-16 16h32 16l-16-16z"/><path d="m432 112h-16l-16 16-16 16h16z"/><path d="m400 128h-32-16l16 16h16z"/><path d="m464-48h-16-32-80-32z"/><path d="m384 48h16-32z"/><path d="m432 112v-32z"/><path d="m416 64 16 16-16-16-16-16z"/><path d="m336 96v-16 32z"/><path d="m352 64 16-16-32 32z"/><path d="m144-48h-160v64h160z"/><path d="m144 16v-24-40z"/><path d="m192-131.2v-140.8 99.394 60.606z"/><path d="m144-48h-16-128-16z"/><path d="m-16-48v40 24z"/><path d="m256-131.2v-50.9138h-64v50.9138z"/><path d="m192-272v140.8-50.9138-105.8862z"/><path d="m-176-48h-16-16-96-32z"/><path d="m-176-48h-160v64h160z"/><path d="m-352 192h-224v16h224z"/><path d="m384 288h16-32z"/><path d="m-352 240h-224z"/><path d="m-352 224h-224v16h224z"/><path d="m-64 610.2857v3.8281 16.7433 9.1429z"/><path d="m416 304h-16l16 16 16 16v-16z"/><path d="m352 304v16l16-16 16-16h-16z"/><path d="m336 336 16 16v-32-16l-16 16z"/><path d="m432 352v-16l-16 16-16 16-16 16h16z"/><path d="m304 480h160v-64h-160z"/><path d="m400 368h-32-16l16 16h16z"/><path d="m352 352-16-16v16l16 16h16z"/><path d="m384 288-16 16h32 16l-16-16z"/><path d="m432 336-16-16v32z"/><path d="m464 480v-24-40z"/><path d="m384 384h-16 32z"/><path d="m336 336v-16 32z"/><path d="m352 304 16-16-32 32z"/><path d="m464 416h-16-144z"/><path d="m144 480v-24-40z"/><path d="m-16 416v24 16 24z"/><path d="m-16 480h160v-64h-160z"/><path d="m-336 480h160v-64h-160z"/><path d="m-128 704v-99.394-12.606 128z"/><path d="m-128 563.2v50.9138h64v-50.9138z"/><path d="m-1536 464h-112-112 168 48z"/><path d="m-1264 464h176z"/><path d="m-1648 256v-16z"/><path d="m-1648 240v-32z"/><path d="m-1088 144v32z"/><path d="m-1088-128h-112-64z"/><path d="m-1424-128h128-136-48-8z"/><path d="m-1296 432v32-224z"/><path d="m-1296-80v176 48-48z"/><path d="m-1232 176h144z"/><path d="m-1264-128v48z"/><path d="m-1264 144 16 16 16 16z"/><path d="m-1088 48v-176h-176v48 176h176z"/><path d="m-1264 96v48l32 32h144v-32-48z"/><path d="m-1088 208h-144z"/><path d="m-1264 432v-192 224z"/><path d="m-1088 240v-32h-144l-32 32v192h176z"/><path d="m-1264 432v32h176v-32z"/><path d="m-1232 208-16 16-16 16z"/><path d="m-1424 176h-224z"/><path d="m-1424-128h-64-160v144 80h224z"/><path d="m-1648 96v80h224v-80z"/><path d="m-1296-80v-48h-128v224h128z"/><path d="m-1424 96v80h96l32-32v-48z"/><path d="m-1296 240-32-32z"/><path d="m-1296 240-32-32v48 176h32z"/><path d="m-1328 432v32h32v-32z"/><path d="m-1328 208h-96z"/><path d="m-1424 256h-224v208h112 112z"/><path d="m-1328 464v-32-176h-96v208z"/><path d="m-1424 208h-224v32 16h224z"/><path d="m-1328 208h-96v48h96z"/><path d="m-1648 256h-112v208h112z"/><path d="m-1760 256h112z"/><path d="m-400 224v16h48v-16z"/><path d="m-352 192h-48v16h48z"/><path d="m-400 240v-48 16 16z"/><path d="m-352 240h-48v-16h48z"/><path d="m-352 224h-48z"/><path d="m-352 208v16z"/><path d="m-400 208h48z"/><path d="m-400 224v-16z"/><path d="m416 352v-32l-16-16h-32l-16 16v32l16 16h32z"/><path d="m416 112v-32l-16-16h-32l-16 16v32l16 16h32z"/><path d="m-384-112v153.8862 70.1138-64z"/><path d="m512 544v70.1138h64v-70.1138z"/><path d="m192 544v70.1138h64v-70.1138z"/><path d="m-128 544v19.2h64v-19.2z"/><path d="m-448 544v70.1138h64v-70.1138z"/><path d="m304-24v16 24-64z"/><path d="m416-24h16v16h-16z"/><path d="m448-24v-24h16v40h-16z"/><path d="m448-48v24h-16-16v-24z"/><path d="m416-8h16 16 16v24h-48z"/><path d="m416-24v16 24h-80v-24-16-24h80z"/><path d="m304 16v-24h16 16v24z"/><path d="m336-24h-16-16v-24h32z"/><path d="m304-8v-16h16v16z"/><path d="m336 16h80 48-160z"/><path d="m144 16h-160z"/><path d="m128-48v24h-16-96-16v-24z"/><path d="m128-24v-24h16v40h-16z"/><path d="m112-8h-96v-16h96z"/><path d="m0-24v16h-16v-40h16z"/><path d="m-16-8h16 16 96 16 16v24h-160z"/><path d="m-352 192h-224z"/><path d="m-336-24v16 24-64z"/><path d="m-176 16h-160z"/><path d="m-176-8v-40 64z"/><path d="m-192-24v-24h16v40h-16z"/><path d="m-192-48v24h-16v-24z"/><path d="m-304-24v-24h96v24 16h-96z"/><path d="m-304-24h-16-16v-24h32z"/><path d="m-336-8v-16h16v16z"/><path d="m-336-8h16 16 96 16 16v24h-160z"/><path d="m-352 208h-224v-16h224z"/><path d="m-352 224h-224z"/><path d="m-352 240h-224v-16h224z"/><path d="m464 480h-160z"/><path d="m304 440v16 24-64z"/><path d="m304 456v-16h16v16z"/><path d="m432 440v16h-96v-16z"/><path d="m320 456h16 96 16 16v24h-160v-24z"/><path d="m448 416v24h-16-96-16-16v-24z"/><path d="m448 440v-24h16v40h-16z"/><path d="m16 480h96 32-160z"/><path d="m128 416h-144 160z"/><path d="m128 416v24h-16-96-16-16v-24z"/><path d="m128 440v-24h16v40h-16z"/><path d="m112 456h16 16v24h-32z"/><path d="m112 456v24h-96v-24-16h96z"/><path d="m-16 456v-16h16v16z"/><path d="m-16 480v-24h16 16v24z"/><path d="m-176 416v64z"/><path d="m-192 480h16-160z"/><path d="m-336 440v16 24-64z"/><path d="m-192 416h-144 160z"/><path d="m-192 456v-16-24h16v64h-16z"/><path d="m-336 456v-16h16v16z"/><path d="m-304 440h96v16h-96z"/><path d="m-320 456h16 96 16v24h-144v-24z"/><path d="m-192 416v24h-16-96-16-16v-24z"/><path d="m-352 208v-16 48-16z"/><path d="m-400 224v-16h48v16z"/><path d="m-400 208v-16h48v16z"/><path d="m-384 496v48 70.1138 105.8862-115.394z"/><path d="m-384 496v-176h-64v70.1138 153.8862h64z"/><path d="m512-172.606v60.606-70.1138z"/><path d="m-384-172.606v60.606 160h-64v-160-60.606z"/><path d="m512 604.606h64v-12.606h-64z"/><path d="m192 604.606h64v-12.606h-64z"/><path d="m-384 604.606v115.394-40-88z"/><path d="m-128 604.606h64v-12.606h-64z"/><path d="m-448 604.606h64v-12.606h-64z"/><path d="m2064-72v72z"/><path d="m2064-240v136-120z"/><path d="m2064-424v112-72z"/><path d="m2064-240v-40-32-112-32 56z"/><path d="m2064-568v40 16 16 16 24z"/><path d="m2064-624v24z"/><path d="m2064-456v-24z"/><path d="m2064-512v16z"/><path d="m2048-600h16z"/><path d="m2048-592v-8h16v8z"/><path d="m2064-424h-16z"/><path d="m2048-424v-32h16v32z"/><path d="m2048-568v-24h16v24z"/><path d="m2064-480v-16h-192v16z"/><path d="m2064-512v-16h-192v16z"/><path d="m2064-528h-192z"/><path d="m2064-496h-192z"/><path d="m2048-456h16z"/><path d="m2064-568h-16z"/><path d="m2048-568v-24z"/><path d="m2048-424v-32z"/><path d="m2048-72v-32h16v32z"/><path d="m2048-280v-32h16v32z"/><path d="m2064-280h-16z"/><path d="m2048-312h16z"/><path d="m2048-280v-32z"/><path d="m2048-104h16z"/><path d="m2048-72v-32z"/><path d="m2064-72h-16z"/><path d="m1296-512h-16-208z"/><path d="m1520-512h-16-208z"/><path d="m1744-512h-16-208z"/><path d="m1872-512h-128z"/><path d="m1056-528v16z"/><path d="m1280-528h-224v16h16 208z"/><path d="m1504-528h-224v16h16 208z"/><path d="m1728-528h-224v16h16 208z"/><path d="m1872-528h-144v16h16 128z"/><path d="m1072-512h-16v16h16z"/><path d="m1328-480h-16-208z"/><path d="m1552-480h-16-208z"/><path d="m1776-480h-16-208z"/><path d="m1872-480h-96z"/><path d="m1056-496v16h16v-16z"/><path d="m1312-496h-224v16h16 208z"/><path d="m1536-496h-224v16h16 208z"/><path d="m1760-496h-224v16h16 208z"/><path d="m1872-496h-112v16h16 96z"/><path d="m1088-496v16z"/><path d="m1072-496v16z"/><path d="m1472-384v88z"/><path d="m1488-296v32z"/><path d="m1472-296h16z"/><path d="m1488-296v32h-16v-32z"/><path d="m1488-264h-16z"/><path d="m1376-304v-80z"/><path d="m1264-384h-32z"/><path d="m1376-384h-96v80h96z"/><path d="m1280-304h96z"/><path d="m1736-16h32z"/><path d="m1576-16h32z"/><path d="m1768 0h96 8-40-96z"/><path d="m1736 0h-128 88z"/><path d="m1736 0v-16z"/><path d="m1736-16h32v16h-32z"/><path d="m1608-16v16z"/><path d="m1576-16h32v16h-32z"/><path d="m1576 0v-16z"/><path d="m944 240h-224z"/><path d="m1104-432v-48h-16v32 192h16z"/><path d="m1088-256v32 192h16v-176-48z"/><path d="m1088-32v32 192h16v-176-48z"/><path d="m1088 192v32 16h16v-48z"/><path d="m1104 16v176 48-48z"/><path d="m1104-208v176 48-48z"/><path d="m1104-432v176 48-48z"/><path d="m944 208h-224z"/><path d="m1056-480v224h16v-224z"/><path d="m1056-256v224h16v-208-16z"/><path d="m1056-32v224 16h16v-224-16z"/><path d="m1072-16v224z"/><path d="m1072-240v208 16-16z"/><path d="m1072-480v224 16-16z"/><path d="m1056 192h-112z"/><path d="m944 192h-224v16h224z"/><path d="m1056 208v-16h-112v16z"/><path d="m944 224h-224v16h224z"/><path d="m1088 240v-16h-144v16z"/><path d="m1088 224h-144z"/><path d="m720 208h-16z"/><path d="m720 192h-16v16h16z"/><path d="m720 240h-16z"/><path d="m720 224h-16v16h16z"/><path d="m-202.6667 208h74.6667-224z"/><path d="m21.3333 208h-149.3333-74.6667 74.6667z"/><path d="m245.3333 208h-149.3333-74.6667 74.6667z"/><path d="m469.3333 208h-213.3333-10.6667 10.6667z"/><path d="m704 208h-224-10.6667 10.6667z"/><path d="m480 192h-224v16h213.3333 10.6667z"/><path d="m704 192h-224v16h224z"/><path d="m96 192h-224v16h149.3333 74.6667z"/><path d="m256 192h-160v16h149.3333 10.6667z"/><path d="m-128 192h-74.6667-149.3333z"/><path d="m-128 208v-16h-224v16z"/><path d="m-202.6667 192h74.6667v16h-74.6667-149.3333v-16z"/><path d="m704 224h-128v16h128z"/><path d="m704 240h-128z"/><path d="m96 240h-224z"/><path d="m320 240h-224z"/><path d="m544 240h-224z"/><path d="m576 240h-32z"/><path d="m-128 224h-74.6667-149.3333z"/><path d="m-202.6667 224h74.6667v16h-224v-16z"/><path d="m96 224h-74.6667-149.3333v16h224z"/><path d="m320 224h-74.6667-149.3333v16h224z"/><path d="m544 224h-74.6667-149.3333v16h224z"/><path d="m576 224h-32v16h32z"/><path d="m-128 240v-16h-224v16z"/><path d="m2064-456v-24-16-16-16z"/><path d="m704 240v-16-16-16-96 48 64 128z"/><path d="m720 240v64z"/><path d="m720 128v64z"/><path d="m2064-512h-192z"/><path d="m2064-528v16h-192v-16z"/><path d="m2064-480h-192z"/><path d="m2064-496v16h-192v-16z"/><path d="m1280-528h-208-16z"/><path d="m1504-528h-208-16z"/><path d="m1728-528h-208-16z"/><path d="m1872-528h-128-16z"/><path d="m1296-512h-224v-16h208 16z"/><path d="m1520-512h-224v-16h208 16z"/><path d="m1744-512h-224v-16h208 16z"/><path d="m1872-512h-128v-16h128z"/><path d="m1056-528h16v16h-16z"/><path d="m1312-496h-208-16z"/><path d="m1536-496h-208-16z"/><path d="m1760-496h-208-16z"/><path d="m1872-496h-96-16z"/><path d="m1056-512v16z"/><path d="m1072-512v16z"/><path d="m1072-512v16h-16v-16z"/><path d="m1056-496v16z"/><path d="m1328-480h-224v-16h208 16z"/><path d="m1552-480h-224v-16h208 16z"/><path d="m1776-480h-224v-16h208 16z"/><path d="m1872-480h-96v-16h96z"/><path d="m1088-496h16v16h-16z"/><path d="m1072-496v16h-16v-16z"/><path d="m1088 240h16-16-144z"/><path d="m1088 0v192 32-32z"/><path d="m1088-224v192 32-32z"/><path d="m1088-448v192 32-32z"/><path d="m1088-480v32z"/><path d="m1104-480v48z"/><path d="m1104-480v48 176h-16v-192-32z"/><path d="m1104-256v48 176h-16v-192-32z"/><path d="m1104-32v48 176h-16v-192-32z"/><path d="m1104 192v48h-16v-16-32z"/><path d="m1056 208h16-16-112z"/><path d="m1056-32v224z"/><path d="m1056-256v224z"/><path d="m1056-480v224z"/><path d="m1072-480v224h-16v-224z"/><path d="m1072-256v16 208h-16v-224z"/><path d="m1072-32v16 224h-16v-16-224z"/><path d="m944 192h-224z"/><path d="m944 208h-224v-16h224z"/><path d="m1056 192v16h-112v-16z"/><path d="m944 240h-224v-16h224z"/><path d="m1088 224v16h-144v-16z"/><path d="m944 224h-224z"/><path d="m720 304v-64h-16v96h16z"/><path d="m704 208v16h16v-16z"/><path d="m720 128v-32h-16v96h16z"/><path d="m720 192h-16z"/><path d="m720 224h-16z"/><path d="m-128 720h-32z"/><path d="m-160 720h-224z"/><path d="m160 720h-224z"/><path d="m192 720h-32z"/><path d="m480 720h-224z"/><path d="m512 720h-32z"/><path d="m624 720h80-128z"/><path d="m-448-288h-128z"/><path d="m-160-288h-224 80z"/><path d="m-128-288h-32z"/><path d="m192-288h-32z"/><path d="m160-288h-224 208z"/><path d="m480-288h32z"/><path d="m480-288h-224 192 16z"/><path d="m704-288h-128z"/><path d="m256-112v-60.606-9.5078 50.9138z"/><path d="m576-112v-60.606-9.5078z"/><path d="m512-288v128-12.606-9.5078-9.8862z"/><path d="m512-112v160 64-70.1138z"/><path d="m512-112v-60.606h64v60.606 160h-64z"/><path d="m480 208h-10.6667-213.3333v-16h224z"/><path d="m704 192v16h-224v-16z"/><path d="m480 192h-224z"/><path d="m704 192h-224z"/><path d="m-128-288v128-12.606z"/><path d="m-128-112v160 64-70.1138z"/><path d="m192-288v128-12.606-99.394z"/><path d="m192-112v160 64-19.2z"/><path d="m192-112v-60.606h64v60.606 160h-64z"/><path d="m-64-112v-60.606-9.5078z"/><path d="m-128-112v-60.606h64v60.606 160h-48-16z"/><path d="m96 192h-224z"/><path d="m256 192h-160z"/><path d="m96 208h-74.6667-149.3333v-16h224z"/><path d="m256 208h-10.6667-149.3333v-16h160z"/><path d="m-448-288v128-12.606-9.5078-9.8862z"/><path d="m-128 192h-74.6667z"/><path d="m-448-112v160 64-70.1138z"/><path d="m576 720v-128 12.606 9.5078 9.8862 16z"/><path d="m704 224v16h-128v-16z"/><path d="m704 224h-128z"/><path d="m96 240h-224v-16h149.3333 74.6667z"/><path d="m320 240h-224v-16h149.3333 74.6667z"/><path d="m544 240h-224v-16h149.3333 74.6667z"/><path d="m576 240h-32v-16h32z"/><path d="m-128 240h-224z"/><path d="m21.3333 224h-149.3333-74.6667 74.6667z"/><path d="m245.3333 224h-149.3333-74.6667 74.6667z"/><path d="m469.3333 224h-149.3333-74.6667 74.6667z"/><path d="m576 224h-32-74.6667 74.6667z"/><path d="m-64 720v-128 12.606 5.6797 29.7143z"/><path d="m256 720v-128 12.606 9.5078 9.8862 16z"/><path d="m512 720v-115.394-12.606z"/><path d="m192 720v-115.394-12.606z"/><path d="m512 496v108.606 115.394-105.8862-70.1138z"/><path d="m512 496v-112h64v6.1138 214.4922h-64z"/><path d="m192 496v108.606 115.394-105.8862-70.1138z"/><path d="m192 496v-112h64v6.1138 214.4922h-64z"/><path d="m-128 480v124.606 99.394-64-76.8-19.2z"/><path d="m-128 480v-96h16 48v6.1138 214.4922h-64z"/><path d="m576 41.8862v70.1138-64-160z"/><path d="m576 41.8862v-153.8862-70.1138h-64v70.1138 153.8862z"/><path d="m-64 41.8862v70.1138-64-160z"/><path d="m-64 41.8862v-153.8862-70.1138h-64v70.1138 153.8862z"/><path d="m-384 41.8862v-153.8862-70.1138h-64v70.1138 153.8862z"/><path d="m576 390.1138v153.8862 70.1138-9.5078z"/><path d="m-64 390.1138v153.8862 19.2 50.9138-3.8281-5.6797z"/><path d="m256 390.1138v153.8862 70.1138-9.5078z"/><path d="m576 390.1138v-70.1138h-64v176 48h64z"/><path d="m256 390.1138v-70.1138h-64v176 48h64z"/><path d="m-64 390.1138v-70.1138h-64v160 64h64z"/><path d="m720 304v32z"/><path d="m720 192v16 16 16z"/><path d="m1728-592h144-208z"/><path d="m1280-528h-224z"/><path d="m1504-528h-224z"/><path d="m1728-528h-224z"/><path d="m992-592v64z"/><path d="m1056-592h-64v64h64z"/><path d="m1280-592h-64-160v64h224z"/><path d="m1504-592h-64-160v64h224z"/><path d="m1728-592h-64-160v64h224z"/><path d="m1872-528v-64h-144v64z"/><path d="m992-528v16h64v-16z"/><path d="m1056-512v16z"/><path d="m992-512v16h64v-16z"/><path d="m1872-480h-96z"/><path d="m1056-496v16z"/><path d="m992-496v16h64v-16z"/><path d="m1456-416h-224 192z"/><path d="m1680-416h-224 16 136z"/><path d="m1456-480h-128-96v64h224z"/><path d="m1680-480h-128-96v64h224z"/><path d="m1872-416v-64h-96-96v64z"/><path d="m1168 80v112 48 64-48z"/><path d="m1168-144v112 112-48z"/><path d="m1168-368v112 112-48z"/><path d="m1232-480h-64v64h64z"/><path d="m1232-416h-64 32z"/><path d="m1104 240h-160z"/><path d="m1168-256v-112-48-64h-64v48 176z"/><path d="m1168-32v-112-112h-64v48 176z"/><path d="m1168 192v-112-112h-64v48 176z"/><path d="m1168 240v-48h-64v48z"/><path d="m1104-480v48z"/><path d="m1056-32v160 64z"/><path d="m1056-256v224z"/><path d="m1056-480v224z"/><path d="m944 192h-224z"/><path d="m992 128h-48z"/><path d="m992-480v160 64h64v-224z"/><path d="m992-256v160 64h64v-224z"/><path d="m992-32v160h64v-160z"/><path d="m992 128v64h64v-64z"/><path d="m944 128h-224v64h224z"/><path d="m992 192v-64h-48v64z"/><path d="m944 304h-224z"/><path d="m944 240h-224v64h224z"/><path d="m1168 304v-64h-64-160v64z"/><path d="m256 92.8v19.2-64-160z"/><path d="m256 92.8v-204.8-19.2h-64v19.2 204.8z"/><path d="m-448 390.1138v214.4922 9.5078-70.1138z"/><path d="m-448 390.1138v-6.1138h64v112 108.606h-64z"/><path d="m2064-104v104-72z"/><path d="m2064-624v96-40-24-8z"/><path d="m1872-624h-240z"/><path d="m1872-624h192z"/><path d="m-576-288v160z"/><path d="m-576 96v32z"/><path d="m-576 464v-8-72-32 144z"/><path d="m704 544v48 48-16-64z"/><path d="m704-128v64 160z"/><path d="m720 96v32z"/><path d="m2064-456v-72-96h-192v32 64 48 64 16h192z"/><path d="m1872-400v160h192v-160z"/><path d="m1184-624h-224v24 8h32 192z"/><path d="m1408-624h-224v32h32 192z"/><path d="m1632-624h-224v32h32 192z"/><path d="m1664-592h208v-32h-240v32z"/><path d="m1280-528h-224v16 16 16h48 176z"/><path d="m1504-528h-224v48h48 176z"/><path d="m1728-528h-224v48h48 176z"/><path d="m1776-480h96v-48h-144v48z"/><path d="m1832-416h-152-72v176h224z"/><path d="m1872-240v-160-16h-40v176z"/><path d="m1832-240h-224v48 192h128 96z"/><path d="m1872 0h16 160 16v-104-136h-192-40v240z"/><path d="m1608-240v-176h-136v32 120 72h136z"/><path d="m1472-192v16 96 80h136v-192z"/><path d="m1424-416h-192-32v32h32 32 112 48z"/><path d="m1472-384v-32h-16-32v32z"/><path d="m1200-336v-48-32h-32v48 176h32z"/><path d="m1168-192v48 176h32v-144-80z"/><path d="m1168 32v48 176h32v-144-80z"/><path d="m1168 256v48h32v-48z"/><path d="m944 304h-224v32h224z"/><path d="m1168 304h-224v32h224z"/><path d="m1200 336v-32h-32v32z"/><path d="m992-480v-16-16-16-64h-32v64 16 16 16 112h32z"/><path d="m960-368v16 208h32v-176-48z"/><path d="m960-144v16 224h32v-192-48z"/><path d="m1104-432v-48h-48v224h48z"/><path d="m1056-256v224h48v-176-48z"/><path d="m1056-32v224h48v-176-48z"/><path d="m944 96h-224v32h224z"/><path d="m992 96h-32-16v32h48z"/><path d="m944 192h-224v48h224z"/><path d="m1104 240v-48h-48-112v48z"/><path d="m960-624v24z"/><path d="m1216-592h-32-192 64z"/><path d="m1440-592h-32-192 64z"/><path d="m1664-592h-32-192 64z"/><path d="m1872-592v64z"/><path d="m1872-480v64z"/><path d="m2048 0h-160z"/><path d="m1872-528h-144z"/><path d="m1056-528v16z"/><path d="m992-528v16z"/><path d="m992-512v16z"/><path d="m1328-480h-48-176 64 64z"/><path d="m1552-480h-48-176 128z"/><path d="m1776-480h-48-176 128z"/><path d="m992-496v16z"/><path d="m1832-416h40-192z"/><path d="m1472-384v88 32z"/><path d="m1264-384h16 96z"/><path d="m1608 0h-136 104z"/><path d="m1552 512-16-16z"/><path d="m1536 496h-32z"/><path d="m1504 496-16 16z"/><path d="m1552 544v-32z"/><path d="m1536 560 16-16z"/><path d="m1504 560h32z"/><path d="m1488 512v32z"/><path d="m1488 544 16 16z"/><path d="m1168-416v48z"/><path d="m1232-384h-32z"/><path d="m1200 112v144 48 32z"/><path d="m1200-112v144 80z"/><path d="m1200-336v144 80z"/><path d="m944 240h-224z"/><path d="m1104 16v176 48-48z"/><path d="m1104-208v176 48-48z"/><path d="m1104-432v176 48-48z"/><path d="m1056 192h-64-48z"/><path d="m944 128h-224z"/><path d="m992-96v192 32-160z"/><path d="m992-320v176 48-160z"/><path d="m992-480v112 48z"/><path d="m944 96h16-240z"/><path d="m1168 304h-224z"/><path d="m944 336h-224z"/><path d="m1168 336h-224z"/><path d="m-576 720h128z"/><path d="m-160 720h-32-192z"/><path d="m160 720h-224z"/><path d="m480 720h-224z"/><path d="m-128-288h-32z"/><path d="m192-288h-32z"/><path d="m512-288h-32z"/><path d="m624-288h80-128z"/><path d="m368 144h32-16z"/><path d="m704-128v-144-16h-80v224h80z"/><path d="m624-64v176 32h80v-48-160z"/><path d="m624-288h-48v128 96h48z"/><path d="m576-64v112 64h48v-176z"/><path d="m576-64v-96h-64v96 56 56h64z"/><path d="m512-160v-128h-32-16v224h48z"/><path d="m464-64v16 40h48v-56z"/><path d="m512 48v-56h-48v56 32 32h48z"/><path d="m576 144h48v-32h-48-64-48v32z"/><path d="m512-160h64v-12.606h-64z"/><path d="m512 112h64v-70.1138h-64z"/><path d="m400 144 32-32z"/><path d="m464 112h-32l-32 32h64z"/><path d="m432 112h32v-32z"/><path d="m464-64v-224h-16v240h16z"/><path d="m304-48h144v-240h-192v128 112z"/><path d="m448-48v24 16h16v-40z"/><path d="m320-24h16 80 16 16v-24h-144v24z"/><path d="m464-8h-16-16v56h32z"/><path d="m432-8v-16h-16v72h16z"/><path d="m416-24h-80v16 56h32 32 16z"/><path d="m336-8h-16-16v56h32z"/><path d="m320-8v-16h-16v16z"/><path d="m336-24v16z"/><path d="m432-8v-16z"/><path d="m448-8h-16z"/><path d="m432-24h16z"/><path d="m448-24v16z"/><path d="m336-8h-16z"/><path d="m320-24h16z"/><path d="m320-8v-16z"/><path d="m432 48v32 32l32-32v-32z"/><path d="m400 48 16 16v-16z"/><path d="m416 48v16l16 16v-32z"/><path d="m352 128 16 16-16-16-16-16z"/><path d="m352 128-16-16v32h16z"/><path d="m368 144-16-16v16z"/><path d="m336 48v32l32-32z"/><path d="m304 48v64h32v-32-32z"/><path d="m336 112h-32v32h32z"/><path d="m304 112h-48v32h48z"/><path d="m304-24h-48v16h48z"/><path d="m304 48v-56h-48v56 64h48z"/><path d="m304-48h-48v24h48z"/><path d="m336 144h-32-48v64h96v-64z"/><path d="m576 144h-112-64-32-16v64h224z"/><path d="m624 144h-48v64h48z"/><path d="m624 144v64h80v-64z"/><path d="m-336 208v-64h-112-128v64z"/><path d="m-112 144h-16-64-32-112v64h224z"/><path d="m-64 208v-64h-48v64z"/><path d="m144 144h-16-32-160v64h208z"/><path d="m-576-128v64h128v-96-128h-128z"/><path d="m-384-64v-96h-64v96z"/><path d="m-576 48h128 64 48v-56-16-24-16h-48-64-128z"/><path d="m-448 144v-32-64h-128v48 32 16z"/><path d="m-224 112h-160-64v32h112 112z"/><path d="m-192 144v-32h-32v32z"/><path d="m96 112h-160-64v32h16 48 160z"/><path d="m128 144-32-32v32z"/><path d="m-128 112v-64h-64v64 32h64z"/><path d="m32 48h-96v64h160z"/><path d="m-224 112h32v-64h-144-48v64z"/><path d="m144 112v-64h-32-80l64 64 32 32h16z"/><path d="m-112-8h-80-16-96-16-16v56h144 64 16z"/><path d="m112-8h-96-16-112v56h48 96 80z"/><path d="m144-8h-16-16v56h32z"/><path d="m-336-8h16v-16h-16z"/><path d="m-208-24h-96v16h96z"/><path d="m-336-64h32v-224h-80v128 96z"/><path d="m-304-48v-16h-32v16z"/><path d="m-128-160v-128h-32-144v224 16h176z"/><path d="m-112-8h112v-16h-112-80v16z"/><path d="m-128-48h16 48v-112h-64z"/><path d="m112-24h-96v16h96z"/><path d="m144-8v-16h-16v16z"/><path d="m112-48h32v-112-128h-208v128 112z"/><path d="m256 144v-32h-64-48v32 64h112z"/><path d="m192 48v-72h-48v16 56 64h48z"/><path d="m-112-48h-16-176-32v24h16 16 96 16 80z"/><path d="m112-48h-176-48v24h112 16 96z"/><path d="m192-48h-48-32v24h16 16 48z"/><path d="m256-8v-16-24h-64v24 72h64z"/><path d="m192-48h64v-112h-64-48v112z"/><path d="m144-160h48v-128h-32-16z"/><path d="m192-160h64v-12.606h-64z"/><path d="m192 112h64v-19.2h-64z"/><path d="m16-24v16z"/><path d="m112-8v-16z"/><path d="m128-8h-16z"/><path d="m112-24h16z"/><path d="m128-24v16z"/><path d="m0-24h16z"/><path d="m16-8h-16z"/><path d="m0-8v-16z"/><path d="m-128-160h64v-12.606h-64z"/><path d="m-128 112h64v-70.1138h-64z"/><path d="m-448-160h64v-12.606h-64z"/><path d="m-384-160v-128 115.394z"/><path d="m-208-8v-16z"/><path d="m-208-24h16z"/><path d="m-192-8h-16z"/><path d="m-192-24v16z"/><path d="m-304-24v16z"/><path d="m-304-8h-16z"/><path d="m-320-24h16z"/><path d="m-320-8v-16z"/><path d="m-448 112h64v-70.1138h-64z"/><path d="m576 384v-64 70.1138z"/><path d="m624 512v-32h-48v64h48z"/><path d="m576 320v64 96h48v-48-144h-48z"/><path d="m576 288h48v-80h-48z"/><path d="m704 720v-80-48l-48-48h-32-48v48 128z"/><path d="m624 544h32l-32-32z"/><path d="m624 208v80 144h80v-96-128z"/><path d="m624 432v48 32l32 32 48 48v-48-112z"/><path d="m352 208v80h16 32 32 32 48 64v-80z"/><path d="m256 208h-112v80h48 64 48 32 16v-80z"/><path d="m-64 208v32 48h208v-80z"/><path d="m-112 208h-224v32h160 64z"/><path d="m-64 240v-32h-48v32z"/><path d="m-64 240h-48-64v48h112z"/><path d="m-176 288v-48h-160v48z"/><path d="m-384 288h48v-48-32h-240v80z"/><path d="m-64 384v-64 70.1138z"/><path d="m256 384v-64 70.1138z"/><path d="m512 320v64 112z"/><path d="m512 440v16 24h64v-96h-64z"/><path d="m512 320h64v-32h-64z"/><path d="m576 480h-64v64h64z"/><path d="m512 592h64v-48h-64z"/><path d="m512 384v-64-32h-48v64 32 56h48z"/><path d="m480 480h32v-24h-48v24z"/><path d="m464 456h48v-16h-48z"/><path d="m400 288 16 16 16 16z"/><path d="m400 288 32 32v-32z"/><path d="m464 288h-32v32l32 32z"/><path d="m432 320v16 16z"/><path d="m432 320v32 32h32v-32z"/><path d="m432 352-32 32z"/><path d="m400 384h32v-32z"/><path d="m352 368 16 16-16-16-16-16z"/><path d="m352 368v16h16z"/><path d="m336 352v32h16v-16z"/><path d="m368 288h-16-16v32z"/><path d="m336 352v-32-32h-32v96h32z"/><path d="m320 456v-16-24h-16v64h16z"/><path d="m336 440v8l8-8z"/><path d="m336 440h8l8-8v-16h-32v24z"/><path d="m304 416h16 32v-32h-16-32z"/><path d="m432 456v-8l-48-48-32 32-8 8-8 8v8z"/><path d="m432 440v-56h-32-32l16 16 48 48z"/><path d="m448 440v16h16v-16z"/><path d="m464 456h-16-16-96-16v24h144z"/><path d="m352 384v32 16l32-32-16-16z"/><path d="m432 384v56h16 16v-56z"/><path d="m336 448v-8 16z"/><path d="m432 448v8-16z"/><path d="m432 440h16z"/><path d="m448 456h-16z"/><path d="m448 440v16z"/><path d="m320 440h16z"/><path d="m336 456h-16z"/><path d="m320 456v-16z"/><path d="m304 288h-48v32 64h48z"/><path d="m256 384v32h48v-32z"/><path d="m304 416h-48v64h48z"/><path d="m480 480h-16-144-16-48v112 128h224z"/><path d="m512 720v-128-48-64h-32v240z"/><path d="m256 416v-32h-64v96h64z"/><path d="m192 320h64v-32h-64z"/><path d="m144 440v16 24h16 32v-96-64-32h-48z"/><path d="m160 480h-16-32-96-80v112h224z"/><path d="m192 592h64v-112h-64-32v112z"/><path d="m160 592h-224v128h224z"/><path d="m192 720v-128h-32v128z"/><path d="m-64 288v32 64 56h64 16 96 16 16v-152z"/><path d="m144 456h-16-16v24h32z"/><path d="m128 440v16h16v-16z"/><path d="m16 456v24h96v-24-16h-96z"/><path d="m0 456h-64v24h80v-24z"/><path d="m0 456v-16h-64v16z"/><path d="m192 320v64 112z"/><path d="m112 456v-16z"/><path d="m128 456h-16z"/><path d="m112 440h16z"/><path d="m128 440v16z"/><path d="m16 440v16z"/><path d="m0 440h16z"/><path d="m16 456h-16z"/><path d="m0 456v-16z"/><path d="m-448 688v-48-48-128h-128v32 192z"/><path d="m-576 720h128v-32h-128z"/><path d="m-448 592h64v-128h-64z"/><path d="m-448 320h-128v32 32h128z"/><path d="m-384 456h-192v8h128 64z"/><path d="m-576 288v32h128 64v-32z"/><path d="m-336 440v-56h-48-64-128v72h192 48z"/><path d="m-336 456h16v-16h-16z"/><path d="m-304 456h96v-16h-96z"/><path d="m-192 680v-72-152h-16-96-16-16-48v8 128 88z"/><path d="m-192 720v-40h-192v40z"/><path d="m-192 680v40h32 32v-128-48l-64 64z"/><path d="m-128 544 64-64v-24-16h-48-80v16 152z"/><path d="m-336 384h160v-64-32h-160-48v32 64z"/><path d="m-128 320h-48v64h48z"/><path d="m-176 288v32h48 64v-32z"/><path d="m-112 384h-16-48-160v56h16 16 96 16 80z"/><path d="m-64 440v-56h-48v56z"/><path d="m-64 480-64 64v48h64z"/><path d="m-384 384v-64 176z"/><path d="m-128 320v64 96z"/><path d="m-192 440v16z"/><path d="m-304 440v16z"/><path d="m-208 456v-16z"/><path d="m-192 456h-16z"/><path d="m-208 440h16z"/><path d="m-320 440h16z"/><path d="m-304 456h-16z"/><path d="m-320 456v-16z"/><path d="m-448 320v64 6.1138z"/><path d="m-448 640v48 32z"/><path d="m352 352v-32l16-16h32l16 16v32l-16 16h-32z"/><path d="m368 304h32z"/><path d="m416 320v32z"/><path d="m400 368h-32z"/><path d="m352 352v-32z"/><path d="m368 368-16-16z"/><path d="m400 304 16 16z"/><path d="m352 320 16-16z"/><path d="m416 352-16 16z"/><path d="m352 112v-32l16-16h32l16 16v32l-16 16h-32z"/><path d="m368 64h32z"/><path d="m416 80v32z"/><path d="m352 112v-32z"/><path d="m400 128h-32z"/><path d="m416 112-16 16z"/><path d="m400 64 16 16z"/><path d="m368 128-16-16z"/><path d="m352 80 16-16z"/><path d="m-1296 160-16 16v-16l16-16z"/><path d="m-1312 208 16 16h-16z"/><path d="m-1296 128v16l-16 16v-96h16z"/><path d="m-1264 224 16-16v16z"/><path d="m-1248 176-16-16h16z"/><path d="m-1248 144h-16-32v-16h48z"/><path d="m-1264 160h-32v-16h32l16 16z"/><path d="m-1248 160-16-16h16z"/><path d="m-1072 128h-176-48v-64h208 16z"/><path d="m-848 128h-176-48v-64h208 16z"/><path d="m-624 128h-176-48v-64h208 16z"/><path d="m-400 128h-176-48v-64h208 16z"/><path d="m-176 128h-176-48v-64h208 16z"/><path d="m48 128h-176-48v-64h208 16z"/><path d="m144 64v48 16h-48-48v-64z"/><path d="m336 112 16 16h-32-176v-16z"/><path d="m416 368 16-16v16z"/><path d="m432 336-16-16-16-16h16l16 16z"/><path d="m352 352 16 16h-16z"/><path d="m400 368 16-16 16-16v16l-16 16z"/><path d="m368 304-16 16v-16z"/><path d="m416 352v-32l16 16z"/><path d="m432 320-16-16h16z"/><path d="m352 112 16 16h-16l-16-16z"/><path d="m400 128 16-16v16z"/><path d="m144 64h112 80v16 32h-192z"/><path d="m416 80-16-16h16z"/><path d="m352 80v32h-16v-32l16-16z"/><path d="m368 64-16 16v-16z"/><path d="m352 64-16 16v-16z"/><path d="m1488 544 16 16h-16z"/><path d="m1536 560 16-16v16z"/><path d="m1552 512-16-16h16z"/><path d="m1552 496-16-16h16z"/><path d="m1488 496 16-16h16l-16 16-16 16z"/><path d="m1552 496h-16-32l16-16h16z"/><path d="m1504 480-16 16v-16z"/><path d="m656 368h-80-144v-16-16-16-16h144 80z"/><path d="m880 368h-80-144v-64h144 80z"/><path d="m1104 368h-80-144v-64h144 80z"/><path d="m1328 368h-80-144v-64h144 80z"/><path d="m1472 304h16v64h-160v-64z"/><path d="m1488 368v-64h64v32 144h-16-16-16-16z"/><path d="m-1312 160v16 32 16-160z"/><path d="m1552 304v32z"/><path d="m576 304h-144-16-16-32-16z"/><path d="m800 304h-144-80z"/><path d="m1024 304h-144-80z"/><path d="m1248 304h-144-80z"/><path d="m1472 304h-144-80z"/><path d="m416 112v-32-16 64z"/><path d="m-1296 224h32 16-48-16z"/><path d="m-1088 64h-208-16 16z"/><path d="m-864 64h-208-16 16z"/><path d="m-640 64h-208-16 16z"/><path d="m-416 64h-208-16 16z"/><path d="m-192 64h-208-16 16z"/><path d="m32 64h-208-16 16z"/><path d="m256 64h-112-96-16 16z"/><path d="m-1248 208v-32-16-16-16 96z"/><path d="m352 128h16 32 16-96z"/><path d="m1328 368h160-240z"/><path d="m1488 544v-32z"/><path d="m1504 496h32z"/><path d="m1536 560h-32z"/><path d="m1552 512v32z"/><path d="m1536 496 16 16z"/><path d="m1488 512 16-16z"/><path d="m1504 560-16-16z"/><path d="m1552 544-16 16z"/><path d="m416 112-16 16z"/><path d="m416 80v32z"/><path d="m400 64 16 16z"/><path d="m368 64h32z"/><path d="m352 112v-32z"/><path d="m400 128h-32z"/><path d="m368 128-16-16z"/><path d="m352 80 16-16z"/><path d="m416 320v32z"/><path d="m368 304h32z"/><path d="m400 368h-32z"/><path d="m352 352v-32z"/><path d="m368 368-16-16z"/><path d="m400 304 16 16z"/><path d="m352 320 16-16z"/><path d="m416 352-16 16z"/><path d="m-1264 160 16 16z"/><path d="m-1296 160h32z"/><path d="m-1248 176v32z"/><path d="m-1248 208-16 16z"/><path d="m-1264 224h-32z"/><path d="m-1312 176 16-16z"/><path d="m-1312 208v-32z"/><path d="m-1296 224-16-16z"/><path d="m1488 240v64h64v-64z"/><path d="m1552 16h-64v224h64z"/><path d="m1488 80v-64z"/><path d="m1552 80v224z"/><path d="m-1088-112h-224v176h224z"/><path d="m336 64h80z"/><path d="m112 64h224z"/><path d="m-112 64h224z"/><path d="m-336 64h224z"/><path d="m-560 64h224z"/><path d="m-784 64h224z"/><path d="m336 128h-224z"/><path d="m112 128h-224z"/><path d="m-112 128h-224z"/><path d="m-336 128h-224z"/><path d="m-560 128h-224z"/><path d="m-784 128h-224z"/><path d="m416 64h-80v64h80z"/><path d="m336 64h-224v64h224z"/><path d="m112 64h-224v64h224z"/><path d="m-112 64h-224v64h224z"/><path d="m-336 64h-224v64h224z"/><path d="m-560 64h-224v64h224z"/><path d="m-784 64h-224v64h224z"/><path d="m1248 304h144z"/><path d="m1024 304h224z"/><path d="m800 304h224z"/><path d="m576 304h224z"/><path d="m1248 368h-224z"/><path d="m1024 368h-224z"/><path d="m800 368h-224z"/><path d="m576 368h-224z"/><path d="m1392 304h-144v64h144z"/><path d="m1248 304h-224v64h224z"/><path d="m1024 304h-224v64h224z"/><path d="m800 304h-224v64h224z"/><path d="m576 304h-224v64h224z"/><path d="m1552 336v192 32-16-32-16-16z"/><path d="m1488 304h64-64-16z"/><path d="m272 64h144-16-32-16-16-80z"/><path d="m-1312 224h16v-96-64h-16z"/><path d="m-1248 128h-48v96h48z"/><path d="m-1072 64h-16-208v64h48 176z"/><path d="m-848 64h-16-208v64h48 176z"/><path d="m-624 64h-16-208v64h48 176z"/><path d="m-400 64h-16-208v64h48 176z"/><path d="m-176 64h-16-208v64h48 176z"/><path d="m48 64h-16-208v64h48 176z"/><path d="m272 64h-16-208v64h48 176z"/><path d="m320 128h96v-64h-144v64z"/><path d="m-1024 128h-48-176 176z"/><path d="m-800 128h-48-176 176z"/><path d="m-576 128h-48-176 176z"/><path d="m-352 128h-48-176 176z"/><path d="m-128 128h-48-176 176z"/><path d="m96 128h-48-176 176z"/><path d="m320 128h-48-176 48z"/><path d="m1488 528v-160 112 16 16 32 16z"/><path d="m1488 560h16 32 16z"/><path d="m1552 336v-32h-64v64 160h64z"/><path d="m1488 528v32h64v-32z"/><path d="m352 304v16 32 16z"/><path d="m576 304h-224v64h224z"/><path d="m800 304h-224v64h224z"/><path d="m1024 304h-224v64h224z"/><path d="m1248 304h-224v64h224z"/><path d="m1488 368v-64h-16-224v64z"/><path d="m576 368h-224 16 32 16 16z"/><path d="m800 368h-224 80z"/><path d="m1024 368h-224 80z"/><path d="m1248 368h-224 80z"/><path d="m416 64v64z"/><path d="m-1008 128v-64z"/><path d="m-1008 64h224z"/><path d="m416 128h-80z"/><path d="m336 64h80v64h-80z"/><path d="m112 64h224v64h-224z"/><path d="m-112 64h224v64h-224z"/><path d="m-336 64h224v64h-224z"/><path d="m-560 64h224v64h-224z"/><path d="m-784 64h224v64h-224z"/><path d="m-1008 64h224v64h-224z"/><path d="m1392 304v64z"/><path d="m352 368v-64z"/><path d="m352 304h224z"/><path d="m1392 368h-144z"/><path d="m1248 304h144v64h-144z"/><path d="m1024 304h224v64h-224z"/><path d="m800 304h224v64h-224z"/><path d="m576 304h224v64h-224z"/><path d="m352 304h224v64h-224z"/><path d="m1488 16h64z"/><path d="m1552 304h-64z"/><path d="m1488 304v-64h64v64z"/><path d="m1488 240v-224h64v224z"/><path d="m1488 304v-224z"/><path d="m1552 16v64z"/><path d="m-1088-112v176z"/><path d="m-1312 64v-176z"/><path d="m-1088 64h-224z"/><path d="m-1312-112h224z"/><path d="m-1312 64v-176h224v176z"/></g></defs><path d="m-1907-771h4118v1766h-4118z" fill="#fff"/><g stroke="#000"><use fill="none" stroke-miterlimit="0" stroke-width="15" xlink:href="#a"/><use fill="#fff" xlink:href="#a"/></g></svg>