<svg viewBox="-768 -1152 1536 2304" xmlns="http://www.w3.org/2000/svg" xmlns:xlink="http://www.w3.org/1999/xlink"><defs><g id="a"><path d="m0 600h64z"/><path d="m-76 600h76z"/><path d="m160-600h-160-64 160z"/><path d="m-600 76v116 108z"/><path d="m-600-148v44 72 108z"/><path d="m300-600 76 76z"/><path d="m600-196v-104 152z"/><path d="m-300 600-88-88h132 92v88z"/><path d="m-164 512h36 32 64 32v88h-76-88z"/><path d="m-600 192v-116-108h152v224z"/><path d="m-524 376-76-76v-108h152v64 32 128h-36z"/><path d="m-448 416v32 4l-36-36z"/><path d="m-288 448h-160v-32-128h160z"/><path d="m-448 448h160 32v64h-132l-60-60z"/><path d="m-192 352h64v32 32 64 32h-36-92v-64-96z"/><path d="m-128 512v-32l32 32z"/><path d="m-32 512 32-32v32z"/><path d="m-128 416v-32h32z"/><path d="m-96 384h-32v-32h96v32z"/><path d="m-448 192v-224h72 88v32 32 160z"/><path d="m-288 256h-160v-64h160z"/><path d="m160 536h8v48 16h-8z"/><path d="m264 536v48h-80-16v-48z"/><path d="m364 536-54.5 54.5-9.5 9.5h-36v-16-48z"/><path d="m0 512v-32-64h32 32v120 64h-64z"/><path d="m128 536h-64v-120h64z"/><path d="m0 288h32v64h-64-96-64v-64z"/><path d="m32 352v64h-32l-32-32v-32z"/><path d="m128 256v96 64h-64-32v-64-64-32z"/><path d="m224 256h3.0968l-99.0968 96v-96z"/><path d="m128 256h-96-32v-64-160h224v224z"/><path d="m224 32h32 32v72 93l-60.9032 59h-3.0968z"/><path d="m384 104-32 31-64 62v-93z"/><path d="m315.4288 201.4283 68.5712 67.3682v156.6318h-224v-49.4283-24z"/><path d="m384 425.4283v67.3682 23.2035l-20 20h-100-96-8v-110.5717z"/><path d="m384 425.4283v-156.6318l68.2 67.0035 24.8 24.3649 31.6956 31.1396-101.4921 101.492h-23.2035z"/><path d="m407.2035 492.7965-23.2035 23.2035v-23.2035z"/><path d="m501 287-135.9896-133.6038 18.9896-18.3962 32-31h96 88v196l-42.5044 42.5045z"/><path d="m477 311-24.8 24.8-68.2-67.0035-68.5712-67.3682 49.5816-48.0321 135.9896 133.6038z"/><path d="m512 104h-96-32-96v-72-64h192 32z"/><path d="m600-32v108 28h-88v-136z"/><path d="m-376-32h-72-152v-72h152 32 32 8z"/><path d="m-256-104v72h-32-88v-72z"/><path d="m-376-104h-8l128-124v124z"/><path d="m-600-104v-44-152l39.4998-39.4998.5002.4998 56 56 56 56v123z"/><path d="m-454.2-332.6 6.2 6.2v14.4 85l-56-56z"/><path d="m-510.8-389.2.4.4-49.6 49.8-.5002-.4998z"/><path d="m-448-452v125.6l-6.2-6.2-31.4-31.4-24.8-24.8-.4-.4z"/><path d="m-256-104v-124l28.9032-28h195.0968v224h-224z"/><path d="m-32-32v224h-224v-160-64z"/><path d="m-32 192v64h-224v-64z"/><path d="m-32-256h32v224h-32z"/><path d="m0-32v64 160h-32v-224z"/><path d="m0 192v64h-32v-64z"/><path d="m-227.0968-256 33.0323-32h66.0645 96v32z"/><path d="m-160-321 32-31v40 24h-66.0645z"/><path d="m-448-312v-14.4-125.6l84-84h100 40v224z"/><path d="m-224-290-192 186h-32v-123-85h224z"/><path d="m-160-536v184l-32 31-9.2903 9h-22.7097v-224z"/><path d="m-201.2903-312-22.7097 22v-22z"/><path d="m-128-352v-184h64 64v24 32 64 32 72h-128z"/><path d="m0-312v24h-32-96v-24z"/><path d="m-364-536 64-64h36v16 48z"/><path d="m-184-584h16 8v8 40h-64-40v-48z"/><path d="m-168-584v-16h8v16z"/><path d="m-64-536v-64h64v64z"/><path d="m0-256h192 32v224h-224z"/><path d="m224-32v64h-224v-64z"/><path d="m224-256h32v64 160h-32z"/><path d="m256-32v64h-32v-64z"/><path d="m288-32v-160-64h192v60 164z"/><path d="m128-352v64h-128v-24-72h32 64 32z"/><path d="m128-416v32h-32z"/><path d="m32-512-32 32v-32z"/><path d="m32-384h-32v-32z"/><path d="m128-512v32l-32-32z"/><path d="m128-352h64v64h-64z"/><path d="m192-352h-64v-32-32-64-32h96 32v64 96z"/><path d="m388-512 64 64h-164-32v-64z"/><path d="m288-448h164l28 28v132h-192z"/><path d="m480-196v-60-32-132l120 120v104z"/><path d="m600-148v116h-88-32v-164h120z"/><path d="m224-512h-96-32-64-32v-24-64h160 64z"/><path d="m376-524 12 12h-132-32v-88h76z"/><path d="m-524 376 40 40 36 36 60 60 88 88z"/><path d="m557.4956 342.5045 42.5044-42.5045-66.5 66.5z"/><path d="m364 536 20-20 23.2035-23.2035 101.4921-101.492-31.6956 31.6955-136.8 136.7999-30.7 30.7001z"/><path d="m192-256h-192-32z"/><path d="m256-352v-96z"/><path d="m128-288h64z"/><path d="m0-288h128z"/><path d="m128 416v-64 184z"/><path d="m288-192v160 64-64z"/><path d="m256-256v64z"/><path d="m384 135-18.9896 18.3962-49.5816 48.0321-155.4288 150.5717z"/><path d="m384 104-32 31z"/><path d="m160 376v49.4283 110.5717 64-64-92.3684z"/><path d="m477 360.1649-24.8-24.3649-199.2 199.2 1.0178 1 24.2251 23.8 61.9571-.0001 136.8-136.7999z"/><path d="m508.6956 391.3045-31.6956-31.1396v62.8351z"/><path d="m452.2 335.8 24.8-24.8-174.4 174.4-46.6 46.6-3 3z"/><path d="m477 311 24-24z"/><path d="m526.6 312.151 30.8956 30.3535-23.9956 23.9955-6.9003 6.9003z"/><path d="m264 584h-16-64z"/><path d="m0 256h32-32-32z"/><path d="m-256 32v160 64-64z"/><path d="m-256 352v96z"/><path d="m-160-321-34.0645 33-33.0323 32-28.9032 28-128 124z"/><path d="m-160-584v-16 24z"/><path d="m-160-352-32 31z"/><path d="m-485.6-364 31.4 31.4 31.5266-31.4z"/><path d="m-264-584h16 64z"/><path d="m-288-32v32z"/><path d="m96-600h-160-64z"/><path d="m300-600h-76-64z"/><path d="m256-352v-96 160z"/><path d="m192-352h64z"/><path d="m128-288h64 64-32z"/><path d="m192-288v-64z"/><path d="m256-288h-64v-64h64z"/><path d="m-256 352v96-160z"/><path d="m0 288h32z"/><path d="m128 600h-64v-64h64z"/><path d="m64 536h64z"/><path d="m64 600v-64z"/><path d="m-192 352h-64v-64h64z"/><path d="m-192 288v64z"/><path d="m-32 288h32-192z"/><path d="m-192 352h-64z"/><path d="m-64-536h-64v-64h64z"/><path d="m-64-600v64z"/><path d="m-64-536h-64z"/><path d="m184 600h64z"/><path d="m-184-600h-64z"/><path d="m184 584h-16z"/><path d="m184 588v8z"/><path d="m184 584v4z"/><path d="m184 596v4z"/><path d="m184 588v-4h64v4z"/><path d="m184 596v-8h64v8z"/><path d="m248 600h-64v-4h64z"/><path d="m248 600v-4z"/><path d="m248 588v-4z"/><path d="m248 596v-8z"/><path d="m-184-584h16z"/><path d="m-248-588v4z"/><path d="m-248-600v4z"/><path d="m-248-596v8z"/><path d="m-184-588v-8z"/><path d="m-184-596v-4z"/><path d="m-184-584v-4z"/><path d="m-184-584h-64v-4h64z"/><path d="m-248-588v-8h64v8z"/><path d="m-248-596v-4h64v4z"/><path d="m-184-596h-64v8h64z"/><path d="m248 588h-64v8h64z"/><path d="m-446.8674-339.9032-57.1326 56.9032-56-56 .8996-.9032z"/><path d="m-300 600h136 88z"/><path d="m-600 300v-224z"/><path d="m-600 76v-224z"/><path d="m-600-300v152z"/><path d="m600-300-120-120-28-28-64-64-12-12z"/><path d="m300-600 76 76z"/><path d="m600 300v-196-28z"/><path d="m600 76v-108-116z"/><path d="m600-300v152z"/><path d="m-364-536-84 84-62.8 62.8-49.7002 49.7002-39.4998 39.4998z"/><path d="m-300 600-224-224z"/><path d="m-600 300 76 76z"/><path d="m408.6956 491.3044 117.9041-117.9041 6.9003-6.9003z"/><path d="m600 300-66.5 66.5z"/><path d="m128-416-32 32z"/><path d="m264 584v16z"/><path d="m248 584h16z"/><path d="m184 584h64 16z"/><path d="m184 588v8h64v-8z"/><path d="m248 584h-64v4h64z"/><path d="m184 596v4h64v-4z"/><path d="m248 588h-64z"/><path d="m184 588h64z"/><path d="m184 596h64z"/><path d="m248 596h-64z"/><path d="m0 416v64z"/><path d="m-96 384h64z"/><path d="m-128 480v-64z"/><path d="m-96 512h64z"/><path d="m-32 512h-64z"/><path d="m-32 384 32 32z"/><path d="m0 480-32 32z"/><path d="m-128 416 32-32z"/><path d="m-96 512-32-32z"/><path d="m96-384h-64z"/><path d="m128-480v64z"/><path d="m0-416v-64z"/><path d="m32-512h64z"/><path d="m96-512h-64z"/><path d="m32-384-32-32z"/><path d="m96-512 32 32z"/><path d="m0-480 32-32z"/><path d="m-248-584h-16z"/><path d="m-184-584h-64-16z"/><path d="m-248-588v4h64v-4z"/><path d="m-184-600h-64v4h64z"/><path d="m-248-596v8h64v-8z"/><path d="m-248-588h64z"/><path d="m-184-588h-64z"/><path d="m-184-596h-64z"/><path d="m-248-596h64z"/><path d="m-264-584v-16z"/><path d="m-184-588h-64v-8h64z"/><path d="m-184-596v8z"/><path d="m-248-588v-8z"/><path d="m-184-588h-64z"/><path d="m-248-596h64z"/><path d="m248 596h-64v-8h64z"/><path d="m248 588v8z"/><path d="m184 596v-8z"/><path d="m248 596h-64z"/><path d="m184 588h64z"/><path d="m0 416v64z"/><path d="m0 480h128z"/><path d="m0 416v64h128v-64z"/><path d="m0 416-32-32z"/><path d="m0-416v-64z"/><path d="m0-416 32 32z"/><path d="m-286.4-499.7261 6.4-6.3743 24-23.9036 1-.996-31.4-31.4z"/><path d="m-336-450.3253-110.8674 110.4221h-112.233l222.2008-223.0968.8996-.9034z"/><path d="m389 511-29.9047 29.9044-30.438-29.9044z"/><path d="m-280-506.1004-6.4 6.3743-136.2734 135.7261-31.5266 31.4-49.8 49.6 57.1326-56.9032 110.8674-110.4221 56-55.7752z"/><path d="m264 600h-96z"/><path d="m168 600h-8z"/><path d="m-168-600h8z"/><path d="m184 584h80v16h-96v-16z"/><path d="m168 584v16z"/><path d="m-168-600v16h-16-80v-16z"/><path d="m-168-584v-16z"/><path d="m0 416h128z"/><path d="m0 480v-64h128v64z"/><path d="m0 600h64 64z"/><path d="m300 600h-36z"/><path d="m-76 600h-180-44z"/><path d="m0 600h-32-44z"/><path d="m-128-600h96 128z"/><path d="m300-600h-140-64z"/><path d="m-168-600h-96z"/><path d="m-300-600h36z"/><path d="m-312-588 12-12-64 64z"/><path d="m-312-588-24 24.0966-.8996.9034z"/><path d="m300 600 9.5-9.5z"/><path d="m128 600v-64z"/><path d="m128 600v-64z"/><path d="m128 352v64 64 56z"/><path d="m384 104h32z"/><path d="m416 104-32 31z"/><path d="m384 104-32 31z"/><path d="m352 135-224 217 99.0968-96 60.9032-59z"/><path d="m160 352v24z"/><path d="m278.2429 559.8 31.2571 30.7 30.7-30.7001z"/><path d="m160 376v67.6316l93 91.3684 3-3v-92.3825-87.6175h-96z"/><path d="m384 135-224 217h96l128-124z"/><path d="m480 135 32-31h-96l-32 31v93z"/><path d="m256 439.6175v92.3825z"/><path d="m480 135-96 93-128 124 32-31z"/><path d="m302.6 485.4-38.6 38.6-8 8z"/><path d="m302.6 485.4 174.4-174.4 24-24 25.6 25.151-.0003 61.2493-117.9041 117.9041-19.6956 19.6956h-60.3427z"/><path d="m168 600h96 36l9.5-9.5-55.4822-54.5h-94.0178v64z"/><path d="m254.0178 536-1.0178-1-93-91.3684v92.3684z"/><path d="m-128-576v40 184-64-64z"/><path d="m-128-576v-24 64z"/><path d="m-128-352v-184z"/><path d="m-384-104h-32z"/><path d="m-128-352-32 31z"/><path d="m-160-321-224 217 96-93z"/><path d="m-160-576v140 84-184z"/><path d="m-192-321-14.4516 14-49.5484 48-32 31-128 124 192-186 22.7097-22z"/><path d="m-312-588-24.8996 25-173.5004 174.2 24.8 24.8h62.9266l136.2734-135.7261v-62.6739z"/><path d="m-256-432.6v-97.404z"/><path d="m-192-321 32-31v-84l-95-95-1 .996v97.404 80.6 45h49.5484z"/><path d="m-256-307v48l49.5484-48z"/><path d="m-256-530.004 1-.996z"/><path d="m-256-352-32 31z"/><path d="m-288-321-224 217h96l128-124z"/><path d="m-256-259v-48-45l-32 31v93z"/><path d="m-160-576v-24h-8-96-36l-12 12 25.6 25.6 31.4 31.4 95 95z"/><path d="m128-416-32 32z"/><path d="m256-288h-32z"/><path d="m0 416v64z"/><path d="m-32 384h-64z"/><path d="m-128 480v-64z"/><path d="m0 480-32 32h-64l-32-32v-64l32-32h64l32 32z"/><path d="m-32 512 32-32z"/><path d="m-128 416 32-32z"/><path d="m-96 512-32-32z"/><path d="m32-384h64z"/><path d="m128-480v64z"/><path d="m0-416v-64z"/><path d="m128-416-32 32h-64l-32-32v-64l32-32h64l32 32z"/><path d="m96-512 32 32z"/><path d="m32-512-32 32z"/><path d="m0-288h-32z"/><path d="m-128-600v24z"/><path d="m-128-416h128z"/><path d="m-128-480v64h128v-64z"/><path d="m-336.8996-563-222.2008 223.0968-.8996.9032 49.6-49.8z"/><path d="m128 480v56z"/><path d="m128 480v-64-64 128 56z"/><path d="m128 352v64z"/><path d="m-128-576v-24 24 96z"/><path d="m-128-576v96 64 64-24z"/><path d="m-128-352v-64z"/><path d="m-128-480h128z"/><path d="m-128-416v-64h128v64z"/><path d="m264 524 38.6-38.6 26.0573 25.6 30.438 29.9044-49.5953 49.5956-45.5-45.5z"/><path d="m256 532 8-8v21l-8-8z"/><path d="m-256-530.004-24 23.9036v-.0001z"/><path d="m256 600h44-108-64z"/><path d="m128 600h-128z"/><path d="m-128-600h-128-44 44z"/><path d="m-364-536 52-52z"/><path d="m384 104h32 96z"/><path d="m288 256v-59l64-62 32-31h128l-32 31-192 186z"/><path d="m256 256h-28.9032l60.9032-59v59z"/><path d="m256 352v-96h32v65z"/><path d="m128 352 99.0968-96h28.9032v96 128h-128z"/><path d="m256 480v57 63h-128v-64-56z"/><path d="m256 537 53.5 53.5-9.5 9.5h-44z"/><path d="m352 135-64 62-60.9032 59-99.0968 96z"/><path d="m256 480v-128 87.6175 92.3825 5z"/><path d="m256 537 53.5 53.5z"/><path d="m512 104-32 31z"/><path d="m-128-600v24z"/><path d="m-384-104h-32-96z"/><path d="m-288-197-96 93h-128l224-217z"/><path d="m-256-352h128l-32 31-128 124v-124z"/><path d="m-312-588 12-12h44v68z"/><path d="m-256-532v-68h128v24 200h-128z"/><path d="m-128-376v24h-128v-24z"/><path d="m-128-352-32 31z"/><path d="m-256-376v24-80.6-97.404-1.996z"/><path d="m-288-321-224 217z"/><path d="m-312-588 56 56v1.996l-24 23.9035-56 55.7752v-113.5781z"/><path d="m256-192v-64h32v64 160h-32z"/><path d="m288-32v64h-32v-64z"/><path d="m256-288v-160h32v160z"/><path d="m192-256h-224v-32h32 192z"/><path d="m416-256h-128-32-64v-32h32 32 32 128z"/><path d="m480-288v32h-64v-32z"/><path d="m-224 288h-32-32-160v-32h160 32 32z"/><path d="m0 288h-32-192v-32h192 32z"/><path d="m32 256v32h-32v-32z"/><path d="m-288 192v-160-32-32h32v64 160z"/><path d="m-256 256h-32v-64h32z"/><path d="m-288 448v-160h32v160z"/><path d="m288-256h128 64z"/><path d="m256-256h-32-32z"/><path d="m288-288v-160z"/><path d="m480-256v-32z"/><path d="m480-288h-64-128z"/><path d="m288-448h-32z"/><path d="m224-288h-32-192 128z"/><path d="m288-256v64z"/><path d="m256 32h32z"/><path d="m256-192v160 64-64z"/><path d="m-288 256h-160z"/><path d="m-32 256h-192-32z"/><path d="m-256-32v64z"/><path d="m-288 32v160 64-64z"/><path d="m-288 0v32z"/><path d="m32 288v-32z"/><path d="m-256 288h32 192-160z"/><path d="m-32 288h32z"/><path d="m-288 448h32z"/><path d="m-448 256v32z"/><path d="m-448 288h160z"/><path d="m-288 288v160z"/><path d="m-32-288v32z"/><path d="m-256-32h-32z"/><path d="m-600 300v-212-12z"/><path d="m-600 76v-212-12z"/><path d="m-600-300v152z"/><path d="m600-300-224-224z"/><path d="m300-600 76 76z"/><path d="m600 300v-224z"/><path d="m600 76v-224z"/><path d="m600-300v152z"/><path d="m-364-536-236 236z"/><path d="m-300-600-12 12-52 52z"/><path d="m-300 600-76-76-148-148z"/><path d="m-600 300 76 76z"/><path d="m309.5 590.5 49.5953-49.5956 29.9047-29.9044 19.6956-19.6956 124.8044-124.8044z"/><path d="m600 300-66.5 66.5z"/><path d="m300 600 9.5-9.5z"/><path d="m300 600h-44-64z"/><path d="m-300 600h44z"/><path d="m-32-600h-96-128z"/><path d="m192-600h-96-128z"/><path d="m192-600h64 44-204z"/><path d="m96-928h-32z"/><path d="m-64-1008v80z"/><path d="m64-1024v16h-128v-16z"/><path d="m64-1008v80h-128v-80z"/><path d="m64-1008v-16z"/><path d="m64-1008h-128z"/><path d="m64 1008h-128z"/><path d="m-32 600h-224 180z"/><path d="m192 600h-224 32 128z"/><path d="m256-600h44z"/><path d="m256-600h-64z"/><path d="m-256-896v96z"/><path d="m256-896v72z"/><path d="m336-704v-96h16v96z"/><path d="m288-704v-96h48v96z"/><path d="m336-800h-48z"/><path d="m352-800h-16z"/><path d="m336-704h16z"/><path d="m-256-800v-96h160v96z"/><path d="m-32-600h-224v-104-96h160 64z"/><path d="m192-600h-224v-200h128 96z"/><path d="m256-800v200h-64v-200z"/><path d="m-64-928h128 32v32 96h-128-64v-96-32z"/><path d="m256-896v72 24h-64-96v-96z"/><path d="m-256-896h160z"/><path d="m-272-720v-64-16h16v96h-16z"/><path d="m-336-784h-16v-16h80v16z"/><path d="m-352-720v-64h16v64z"/><path d="m-336-720h64v16h-80v-16z"/><path d="m-272-800h-80 96z"/><path d="m256 896v-32-64 64z"/><path d="m256 800v-96h16v16 64 16z"/><path d="m336 784v16h-64v-16z"/><path d="m352 720v80h-16v-16-64z"/><path d="m352 704v16h-16-64v-16z"/><path d="m272 800h64 16-96z"/><path d="m-256 672v192 32-32z"/><path d="m96 640h96 64v64 96 64h-160z"/><path d="m256 864v32h-160v-32z"/><path d="m-32 640h128v224h-192v-224z"/><path d="m96 864v32 32h-32-128-32v-32-32z"/><path d="m-32 640h-64-160v-40h224z"/><path d="m192 640h-96-128v-40h224z"/><path d="m256 600v40h-64v-40z"/><path d="m64 928v80h-128v-80z"/><path d="m-256 672v-32h160v224h-160z"/><path d="m-96 864v32h-160v-32z"/><path d="m64 1008v-80z"/><path d="m-96 928h32z"/><path d="m-352 800v-96h16v96z"/><path d="m-336 800v-96h48v96z"/><path d="m-336 800h48z"/><path d="m-352 800h16z"/><path d="m-336 704h-16z"/><path d="m64 1008v16h-128v-16z"/><path d="m-64 1008v16z"/><path d="m64 1024h-128z"/><path d="m64-1024h-128v16h128z"/><path d="m352-800h-16v96h16z"/><path d="m64 1008h-128v16h128z"/><path d="m-336 704h-16v96h16z"/><path d="m256 584h-64v16h64z"/><path d="m192 584h-224v16h224z"/><path d="m-32 584h-224v16h224z"/><path d="m192 600h-224z"/><path d="m-32 600h-224z"/><path d="m192 584h64z"/><path d="m-32 584h224z"/><path d="m256-600h-64v16h64z"/><path d="m192-600h-224v16h224z"/><path d="m-32-600h-224v16h224z"/><path d="m192-584h-224z"/><path d="m-32-584h-224z"/><path d="m192-600h64z"/><path d="m-32-600h224z"/><path d="m224 672h128z"/><path d="m0 672h224z"/><path d="m224 864h-224z"/><path d="m0 864h-224z"/><path d="m352 672h-128v192h128z"/><path d="m224 672h-224v192h224z"/><path d="m0 672h-224v192h224z"/><path d="m224 672h128z"/><path d="m0 672h224z"/><path d="m224 864h-224z"/><path d="m0 864h-224z"/><path d="m352 672h-128v192h128z"/><path d="m224 672h-224v192h224z"/><path d="m0 672h-224v192h224z"/><path d="m96-672h-224z"/><path d="m-128-672h-224z"/><path d="m96-864h128z"/><path d="m-128-864h224z"/><path d="m224-864h-128v192h128z"/><path d="m96-864h-224v192h224z"/><path d="m-128-864h-224v192h224z"/><path d="m96-672h-224z"/><path d="m-128-672h-224z"/><path d="m96-864h128z"/><path d="m-128-864h224z"/><path d="m224-864h-128v192h128z"/><path d="m96-864h-224v192h224z"/><path d="m-128-864h-224v192h224z"/><path d="m-336-784h64z"/><path d="m-272-720h-64v-64h64z"/><path d="m-272-784v64z"/><path d="m-336-720v-64z"/><path d="m-272-720h-64z"/><path d="m336 784h-64z"/><path d="m272 720h64z"/><path d="m336 784h-64v-64h64z"/><path d="m336 720v64z"/><path d="m272 784v-64z"/><path d="m-64-928h-32z"/><path d="m-64-1024v16z"/><path d="m64-928v-80z"/><path d="m64-928v-80h-128v80z"/><path d="m64-1008v-16h-128v16z"/><path d="m64-1008h-128z"/><path d="m64-1024h-128z"/><path d="m64 1008h-128z"/><path d="m256 600h-64z"/><path d="m-32-600h-224 120z"/><path d="m192-600h-224 120z"/><path d="m-256-704v104z"/><path d="m256-824v24 200-200z"/><path d="m336-800v96h16v-96z"/><path d="m288-800v96h48v-96z"/><path d="m288-704h48z"/><path d="m336-704v-96z"/><path d="m336-800v96z"/><path d="m352-704v-96z"/><path d="m288-800v96z"/><path d="m-96-800v-96h-160v96z"/><path d="m-32-800h-64-160v96 104h224z"/><path d="m192-800h-96-128v200h224z"/><path d="m256-600v-200h-64v200z"/><path d="m-32-800h128v-96-32h-32-128-32v32 96z"/><path d="m96-896v96h96 64v-24-72z"/><path d="m-96-928v32z"/><path d="m96-896v-32z"/><path d="m256-896h-160z"/><path d="m-256-704v-96h-96v96z"/><path d="m-256-704h-96 80z"/><path d="m-352-704v-96 16 64z"/><path d="m256 640v64-64-40z"/><path d="m352 800v-96h-96v96z"/><path d="m352 704v96-80z"/><path d="m256 704h96-80z"/><path d="m-256 640v-40 40 32z"/><path d="m96 640h-32v224h32z"/><path d="m64 864v64h32v-32-32z"/><path d="m-32 600h-224v40h160 32 32z"/><path d="m192 600h-224v40h96 32 96z"/><path d="m256 640v-40h-64v40z"/><path d="m256 800v-96-64h-64-96v224h160z"/><path d="m96 864v32h160v-32z"/><path d="m64 864v-224h-96-32v224z"/><path d="m64 1008v-80-64h-128v64 80z"/><path d="m-96 640h-160v32 192h160z"/><path d="m-256 864v32h160v-32z"/><path d="m-64 640h-32v224h32z"/><path d="m-96 864v32 32h32v-64z"/><path d="m96 896h160z"/><path d="m96 928v-32z"/><path d="m64 928h32z"/><path d="m-256 896h160z"/><path d="m-64 928v80z"/><path d="m-96 896v32z"/><path d="m-352 704v96h16v-96z"/><path d="m-336 704v96h48v-96z"/><path d="m-288 704h-48z"/><path d="m-336 800v-96z"/><path d="m-336 704v96z"/><path d="m-288 800v-96z"/><path d="m-352 704v96z"/><path d="m64 1024v-16h-128v16z"/><path d="m64 1024v-16z"/><path d="m-64-1008v-16z"/><path d="m64-1008h-128v-16h128z"/><path d="m64-1024v16z"/><path d="m-64-1024h128z"/><path d="m64-1008h-128z"/><path d="m352-704h-16v-96h16z"/><path d="m352-704h-16z"/><path d="m336-800h16z"/><path d="m352-800v96z"/><path d="m336-704v-96z"/><path d="m-64 1024v-16z"/><path d="m64 1024h-128v-16h128z"/><path d="m64 1008v16z"/><path d="m64 1024h-128z"/><path d="m-64 1008h128z"/><path d="m-336 800h-16v-96h16z"/><path d="m-336 800h-16z"/><path d="m-352 704h16z"/><path d="m-336 704v96z"/><path d="m-352 800v-96z"/><path d="m256 584v16z"/><path d="m-256 600v-16z"/><path d="m256 600h-64v-16h64z"/><path d="m192 600h-224v-16h224z"/><path d="m-32 600h-224v-16h224z"/><path d="m256 600h-64z"/><path d="m-256 584h224z"/><path d="m256-600v16z"/><path d="m-256-584v-16z"/><path d="m256-584h-64v-16h64z"/><path d="m192-584h-224v-16h224z"/><path d="m-32-584h-224v-16h224z"/><path d="m256-584h-64z"/><path d="m-256-600h224z"/><path d="m352 672v192z"/><path d="m-224 864v-192z"/><path d="m-224 672h224z"/><path d="m352 864h-128z"/><path d="m352 864h-128v-192h128z"/><path d="m224 864h-224v-192h224z"/><path d="m0 864h-224v-192h224z"/><path d="m352 672v192z"/><path d="m-224 864v-192z"/><path d="m-224 672h224z"/><path d="m352 864h-128z"/><path d="m352 864h-128v-192h128z"/><path d="m224 864h-224v-192h224z"/><path d="m0 864h-224v-192h224z"/><path d="m-352-672v-192z"/><path d="m224-864v192z"/><path d="m224-672h-128z"/><path d="m-352-864h224z"/><path d="m224-672h-128v-192h128z"/><path d="m96-672h-224v-192h224z"/><path d="m-128-672h-224v-192h224z"/><path d="m-352-672v-192z"/><path d="m224-864v192z"/><path d="m224-672h-128z"/><path d="m-352-864h224z"/><path d="m224-672h-128v-192h128z"/><path d="m96-672h-224v-192h224z"/><path d="m-128-672h-224v-192h224z"/><path d="m-448 512-152-152v-48-12l76 76 148 148h-60z"/><path d="m-376 524v60l-8-8-52-52z"/><path d="m-376 524 76 76h-60l-16-16z"/><path d="m-136 640h-24-160l-40-40h60 44 120z"/><path d="m88 640h-24-200v-40h104 120z"/><path d="m312 640h-24-200v-40h104 64 44 12z"/><path d="m360 600-40 40h-8v-40z"/><path d="m-384 864v-224h64 160v224z"/><path d="m-160 896h-224v-32h224z"/><path d="m-160 864v-224h24 200v224z"/><path d="m64 896h-224v-32h224z"/><path d="m64 864v-224h24 200v224z"/><path d="m288 896h-224v-32h224z"/><path d="m312 640h8 64v224h-96v-224z"/><path d="m384 864v32h-96v-32z"/><path d="m524 436-164 164h-48-12l9.5-9.5 214.5-214.5z"/><path d="m533.5 366.5 66.5-66.5v12 48l-76 76v-60z"/><path d="m-640-320 40-40v60 152 12h-40z"/><path d="m-600-136v212 12h-40v-224z"/><path d="m-600 88v212 12h-40v-224z"/><path d="m-600 312v48l-40-40v-8z"/><path d="m-376-524-164 164h-60l216-216 8-8z"/><path d="m-540-360-60 60v-60z"/><path d="m-360-600h60l-64 64-12 12v-60z"/><path d="m600-148v-152-60l40 40v184h-40z"/><path d="m640-136v224h-40v-12-212z"/><path d="m640 88v224h-40v-12-212z"/><path d="m640 312v8l-40 40v-48z"/><path d="m-136-600h-120-44-60l40-40h160 24z"/><path d="m88-600h-120-104v-40h200 24z"/><path d="m312-600h-12-44-64-104v-40h200 24z"/><path d="m320-640 40 40h-48v-40z"/><path d="m-384-672v-224h224v224z"/><path d="m-160-640h-160-64v-32h224z"/><path d="m-160-672v-224h224v224z"/><path d="m64-640h-200-24v-32h224z"/><path d="m64-672v-224h224v224z"/><path d="m288-640h-200-24v-32h224z"/><path d="m384-896v224h-96v-224z"/><path d="m384-672v32h-64-8-24v-32z"/><path d="m376-524-76-76h12 48l164 164v60z"/><path d="m524-436 76 76v60l-76-76z"/><path d="m300 600h-44z"/><path d="m-32 600h-104-120z"/><path d="m192 600h-104-120z"/><path d="m256-600h-64z"/><path d="m-300-600h44z"/><path d="m-600-300v152z"/><path d="m376-524 148 148 76 76z"/><path d="m600 76v12 212z"/><path d="m600-148v12 212z"/><path d="m-600-300 60-60 164-164 12-12z"/><path d="m-364-536 64-64z"/><path d="m-600 300 76 76z"/><path d="m533.5 366.5-9.5 9.5-214.5 214.5z"/><path d="m309.5 590.5-9.5 9.5z"/></g></defs><path d="m-768-1152h1536v2304h-1536z" fill="#fff"/><g stroke="#000"><use fill="none" stroke-miterlimit="0" stroke-width="15" xlink:href="#a"/><use fill="#fff" xlink:href="#a"/></g></svg>