<svg viewBox="-1216 -640 1568 1216" xmlns="http://www.w3.org/2000/svg" xmlns:xlink="http://www.w3.org/1999/xlink"><defs><g id="a"><path d="m-64 64v-45-59-88 88 59 45 32z"/><path d="m-45-237-14 21 2.8226-13.5484z"/><path d="m-64-192 5 24-5-7.5z"/><path d="m-59-216-5 24v-32.3333l7.8226-5.2151z"/><path d="m-59-168 14 21-19 19v-31.6667-15.8333z"/><path d="m-64-237v-19l19 19-11.1774 7.4516-7.8226 5.2151z"/><path d="m-256-384 24-5 67.2-14h17.8l83 83v64h-175.5-16.5z"/><path d="m-147-403h-17.8-46.2l14-21 11.6-17.4z"/><path d="m-211-403h46.2l-67.2 14z"/><path d="m-192-448 6.6 6.6-11.6 17.4z"/><path d="m-64-128v88l-38.4 8h-153.6v-96l24-5 28.9655-6.0345 129.5107-26.9814 9.5238 6.3492z"/><path d="m-211-237 11.1774 7.4516 2.8226 13.5484z"/><path d="m-180-237h-2.625-28.375l-21-14-7.5-5h175.5v19z"/><path d="m-197-168-2.8226 13.5484-11.1774 7.4516z"/><path d="m-64-237v12.6667 32.3333 16.5 15.8333l-9.5238-6.3492-106.4762-70.9841z"/><path d="m-102.4-32 38.4-8v59h-118.625-28.375l-21-14-11.4286-7.619z"/><path d="m-199.8226-154.4516 2.8226-13.5484 5-24 5.9146-28.3902 3.4604-16.6098h2.625l106.4762 70.9841-129.5107 26.9814z"/><path d="m-203.0345-139.0345-28.9655 6.0345 21-14 11.1774-7.4516z"/><path d="m-199.8226-229.5484-11.1774-7.4516h28.375l-3.4604 16.6098z"/><path d="m-197-216-2.8226-13.5484 13.7372 9.1582-5.9146 28.3902z"/><path d="m-256-256h16.5l7.5 5z"/><path d="m-288-32v-96h32v96z"/><path d="m-192.7619 240-63.2381-112 48.5591 10.1165 51.1148 10.6489-19.0072 91.2346z"/><path d="m-256 128 24-5 28.9655-6.0345-4.4064 21.151z"/><path d="m-211 109 11.1774-7.4516-3.2119 15.4171-28.9655 6.0345z"/><path d="m-197 40-14-21h28.375l-6.756 32.4286z"/><path d="m-256 0 12.5714-2.619 11.4286 7.619z"/><path d="m-197 40 7.619 11.4286-2.619 12.5714z"/><path d="m-197 88-2.8226 13.5484-11.1774 7.4516z"/><path d="m-203.0345 116.9655 3.2119-15.4171 2.8226-13.5484 5-24h53.3333l-17.6594 84.7654-51.1148-10.6489z"/><path d="m-189.381 51.4286 6.756-32.4286h118.625v45h-74.6667-53.3333z"/><path d="m-64 96v144h-56.5-54.8333l19.0072-91.2346 17.6594-84.7654h74.6667z"/><path d="m-256-32h153.6l-141.0286 29.381-12.5714 2.619h-32v-32z"/><path d="m-64 242.6667v26.6666l-26.4516-5.5107-13.5484-2.8226-24-5z"/><path d="m-104 261 13.5484 2.8226 7.4516 11.1774z"/><path d="m-192.7619 240h17.4286 54.8333l-31.5 21-21 14z"/><path d="m-64 303.5v16.5l-5-24z"/><path d="m-64 269.3333v34.1667l-5-7.5-14-21-7.4516-11.1774z"/><path d="m-64 240v2.6667l-64 13.3333-24 5 31.5-21z"/><path d="m-147-403-38.4-38.4-6.6-6.6 6.6 6.6 38.4 38.4 83 83z"/><path d="m-288 0h32-50.6667-13.3333z"/><path d="m-344 5-8 5.3333v-3.6666z"/><path d="m-344 5-8 1.6667v-6.6667h32z"/><path d="m-352-128h32 32v96 32h-32-32z"/><path d="m-352-128v-6.6667l8 1.6667 24 5z"/><path d="m-352-138.3333 8 5.3333-8-1.6667z"/><path d="m-352 10.3333 8-5.3333-21 14z"/><path d="m-384-128 19-19 13 8.6667v3.6666 6.6667 128 6.6667 3.6666l-13 8.6667-19-19z"/><path d="m-164.8-403h17.8l-38.4-38.4-11.6 17.4-14 21z"/><path d="m-147-403h-17.8-46.2l14-21 11.6-17.4z"/><path d="m-164.8-403h-46.2l-21 14z"/><path d="m-211-403h46.2l-67.2 14z"/><path d="m-197-424 11.6-17.4-6.6-6.6z"/><path d="m-192-448 6.6 6.6-11.6 17.4z"/><path d="m-256-384 24-5 67.2-14h17.8l83 83v64h-175.5-16.5z"/><path d="m-147-403h-17.8l-67.2 14-24 5v128h16.5 175.5v-64z"/><path d="m-56.1774-229.5484-2.8226 13.5484 14-21z"/><path d="m-45-237-14 21 2.8226-13.5484z"/><path d="m-64-224.3333 7.8226-5.2151 11.1774-7.4516h-19z"/><path d="m-64-237h19l-11.1774 7.4516-7.8226 5.2151z"/><path d="m-45-147-14-21-5-7.5v15.8333 31.6667z"/><path d="m-64-159.6667v-15.8333l5 7.5 14 21-19 19z"/><path d="m-64-192 5 24-5-7.5z"/><path d="m-59-168-5-24v16.5z"/><path d="m-59-216-5 24v-32.3333l7.8226-5.2151z"/><path d="m-59-216 2.8226-13.5484-7.8226 5.2151v32.3333z"/><path d="m-64-256 19 19h-19-116-2.625-28.375l-21-14-7.5-5z"/><path d="m-182.625-237h2.625 116 19l-19-19h-175.5l7.5 5 21 14z"/><path d="m-232-251-7.5-5h-16.5z"/><path d="m-256-256h16.5l7.5 5z"/><path d="m-197-216 5 24 5.9146-28.3902-13.7372-9.1582z"/><path d="m-197-216-2.8226-13.5484 13.7372 9.1582-5.9146 28.3902z"/><path d="m-199.8226-229.5484 13.7372 9.1582 3.4604-16.6098h-28.375z"/><path d="m-199.8226-229.5484-11.1774-7.4516h28.375l-3.4604 16.6098z"/><path d="m-211-147-21 14 28.9655-6.0345 3.2119-15.4171z"/><path d="m-203.0345-139.0345-28.9655 6.0345 21-14 11.1774-7.4516z"/><path d="m-73.5238-166.0159-106.4762-70.9841h-2.625l-3.4604 16.6098-5.9146 28.3902-5 24-2.8226 13.5484-3.2119 15.4171z"/><path d="m-199.8226-154.4516 2.8226-13.5484 5-24 5.9146-28.3902 3.4604-16.6098h2.625l106.4762 70.9841-129.5107 26.9814z"/><path d="m-64-175.5v-16.5-32.3333-12.6667h-116l106.4762 70.9841 9.5238 6.3492z"/><path d="m-64-237v12.6667 32.3333 16.5 15.8333l-9.5238-6.3492-106.4762-70.9841z"/><path d="m-203.0345-139.0345-28.9655 6.0345-24 5v96h153.6l38.4-8v-88-31.6667l-9.5238-6.3492z"/><path d="m-64-128v88l-38.4 8h-153.6v-96l24-5 28.9655-6.0345 129.5107-26.9814 9.5238 6.3492z"/><path d="m-64-40-38.4 8-141.0286 29.381 11.4286 7.619 21 14h28.375 118.625z"/><path d="m-102.4-32 38.4-8v59h-118.625-28.375l-21-14-11.4286-7.619z"/><path d="m-197-168-2.8226 13.5484-11.1774 7.4516z"/><path d="m-211-147 11.1774-7.4516 2.8226-13.5484z"/><path d="m-211-237 11.1774 7.4516 2.8226 13.5484z"/><path d="m-197-216-2.8226-13.5484-11.1774-7.4516z"/><path d="m-344-133 7.5 5h16.5z"/><path d="m-336.5-128-7.5-5 24 5z"/><path d="m-344-133 7.5 5h-47.5l19-19z"/><path d="m-336.5-128-7.5-5-21-14-19 19z"/><path d="m-256-128h-24l-20 96h44z"/><path d="m-256-32h-44l20-96h24z"/><path d="m-300-32 20-96h-40-16.5-47.5v128l19 19 21-14 42.1452-28.0968z"/><path d="m-384-128h47.5 16.5 40l-20 96-1.8548 8.9032-42.1452 28.0968-21 14-19-19z"/><path d="m-138.6667 64-17.6594 84.7654-19.0072 91.2346h54.8333l56.5-37.6667v-106.3333-32z"/><path d="m-175.3333 240 19.0072-91.2346 17.6594-84.7654h74.6667v32 106.3333l-56.5 37.6667z"/><path d="m-64 202.3333-56.5 37.6667-31.5 21 24-5 64-13.3333z"/><path d="m-120.5 240 56.5-37.6667v40.3334l-64 13.3333-24 5z"/><path d="m-189.381 51.4286-2.619 12.5714h53.3333 74.6667v-45h-118.625z"/><path d="m-189.381 51.4286 6.756-32.4286h118.625v45h-74.6667-53.3333z"/><path d="m-197 88-2.8226 13.5484-3.2119 15.4171-4.4064 21.151 51.1148 10.6489 17.6594-84.7654h-53.3333z"/><path d="m-203.0345 116.9655 3.2119-15.4171 2.8226-13.5484 5-24h53.3333l-17.6594 84.7654-51.1148-10.6489z"/><path d="m-211 109 11.1774-7.4516 2.8226-13.5484z"/><path d="m-197 88-2.8226 13.5484-11.1774 7.4516z"/><path d="m-192 64 2.619-12.5714-7.619-11.4286z"/><path d="m-197 40 7.619 11.4286-2.619 12.5714z"/><path d="m-256 0 12.5714-2.619 11.4286 7.619z"/><path d="m-232 5-11.4286-7.619-12.5714 2.619z"/><path d="m-197 40-14-21h28.375l-6.756 32.4286z"/><path d="m-197 40 7.619 11.4286 6.756-32.4286h-28.375z"/><path d="m-211 109 11.1774-7.4516-3.2119 15.4171-28.9655 6.0345z"/><path d="m-211 109-21 14 28.9655-6.0345 3.2119-15.4171z"/><path d="m-256 128 24-5 28.9655-6.0345-4.4064 21.151z"/><path d="m-232 123-24 5 48.5591 10.1165 4.4064-21.151z"/><path d="m-256-32h153.6l-141.0286 29.381-12.5714 2.619h-50.6667l.605-2.9038 4.2069-20.193 1.8548-8.9032z"/><path d="m-256 0 12.5714-2.619 141.0286-29.381h-153.6-44l-1.8548 8.9032-4.2069 20.193-.605 2.9038z"/><path d="m-192.7619 240-63.2381-112 48.5591 10.1165 51.1148 10.6489-19.0072 91.2346z"/><path d="m-175.3333 240 19.0072-91.2346-51.1148-10.6489-48.5591-10.1165 63.2381 112z"/><path d="m-173 275 21-14 31.5-21h-54.8333-17.4286z"/><path d="m-175.3333 240h54.8333l-31.5 21-21 14-19.7619-35z"/><path d="m-90.4516 263.8226 7.4516 11.1774 14 21 5 7.5v-34.1667z"/><path d="m-64 269.3333v34.1667l-5-7.5-14-21-7.4516-11.1774z"/><path d="m-69 296 5 24v-16.5z"/><path d="m-64 303.5v16.5l-5-24z"/><path d="m-104 261 13.5484 2.8226 7.4516 11.1774z"/><path d="m-83 275-7.4516-11.1774-13.5484-2.8226z"/><path d="m-64 242.6667v26.6666l-26.4516-5.5107-13.5484-2.8226-24-5z"/><path d="m-128 256 24 5 13.5484 2.8226 26.4516 5.5107v-26.6666z"/><path d="m-320 0h13.3333l.605-2.9038z"/><path d="m-306.0617-2.9038-.605 2.9038h-13.3333z"/><path d="m-301.8548-23.0968-4.2069 20.193-13.9383 2.9038-24 5z"/><path d="m-320 0 13.9383-2.9038 4.2069-20.193-42.1452 28.0968z"/><path d="m-147-403-38.4-38.4-6.6-6.6 128 128z"/><path d="m-64 64v-45-59-88 224z"/><path d="m-344 5-21 14z"/><path d="m-64-256v-64z"/><path d="m-64 96v106.3333 40.3334 26.6666 34.1667 16.5-16.5-34.1667-26.6666-2.6667z"/><path d="m-64-128 19-19z"/><path d="m-59-216 14-21z"/><path d="m-45-147-14-21z"/><path d="m-64-192 5-24z"/><path d="m-59-168-5-24z"/><path d="m-45-237-19-19z"/><path d="m-384-128v128z"/><path d="m-256-384v128z"/><path d="m-211-403-21 14z"/><path d="m-232-389-24 5z"/><path d="m-192-448-5 24z"/><path d="m-197-424-14 21z"/><path d="m-173 275 21-14z"/><path d="m-256-256 24 5z"/><path d="m-192.7619 240-63.2381-112 63.2381 112 19.7619 35z"/><path d="m-211-237 14 21z"/><path d="m-192 64-5 24z"/><path d="m-197-216 5 24z"/><path d="m-232 123-24 5z"/><path d="m-232-251 21 14z"/><path d="m-211 109-21 14z"/><path d="m-197-168-14 21z"/><path d="m-197 88-14 21z"/><path d="m-256 0 24 5z"/><path d="m-211 19 14 21z"/><path d="m-197 40 5 24z"/><path d="m-232 5 21 14z"/><path d="m-232-133-24 5z"/><path d="m-211-147-21 14z"/><path d="m-192-192-5 24z"/><path d="m-69 296 5 24z"/><path d="m-152 261 24-5z"/><path d="m-104 261 21 14z"/><path d="m-128 256 24 5z"/><path d="m-83 275 14 21z"/><path d="m-280-128h24-32-32z"/><path d="m-344-133-8-5.3333-13-8.6667z"/><path d="m-320-128-24-5z"/><path d="m-365-147-19 19z"/><path d="m-384 0 19 19z"/><path d="m-344 5 24-5z"/><path d="m-368-640h-16z"/><path d="m-384-448v32z"/><path d="m-368-640v32z"/><path d="m-384-608v-32h16v32z"/><path d="m-352-505.3333v-102.6667 102.6667 3.6666z"/><path d="m-384-608h16 16v102.6667l-20.9655 4.3678-11.0345 2.2988z"/><path d="m-379-472 2.8226-13.5484 11.1774-7.4516z"/><path d="m-376.1774-485.5484-2.8226 13.5484-5 24v-50.6667l11.0345-2.2988z"/><path d="m-365-493-11.1774 7.4516 3.2119-15.4171 20.9655-4.3678v3.6666z"/><path d="m-365-493 13-8.6667z"/><path d="m-512-416v20.6667 203.3333-192z"/><path d="m-448-619.3333 16-10.6667 48-10v32 109.3333 50.6667 32h-64z"/><path d="m-384-416v224h-64v-203.3333-20.6667z"/><path d="m-512-416v-96l10-48 28-42 26-17.3333v203.3333 20.6667h-64z"/><path d="m-448-395.3333v203.3333h-53-11v-203.3333z"/><path d="m-384-128v128z"/><path d="m-365-147-19 19z"/><path d="m-379-168 14 21-19 19v-47.5z"/><path d="m-379-168-5-7.5v-16.5z"/><path d="m-384 0 19 19z"/><path d="m-384 64v-16.5l5-7.5z"/><path d="m-384 32v-32l19 19-14 21-5 7.5z"/><path d="m-365 19-14 21z"/><path d="m-531 19-21-14-11.4286-7.619 33.9652-7.0761 3.0695 4.6042 6.5713 31.5425z"/><path d="m-531 19 11.1774 7.4516 2.8226 13.5484z"/><path d="m-688 0h-224v-32h224z"/><path d="m-544.3333-32 14.8699 22.3049-33.9652 7.0761-12.5714 2.619h-112v-32z"/><path d="m-576 0 12.5714-2.619 11.4286 7.619z"/><path d="m-480 128h-16-16v-64h31.6667 32.3333v64z"/><path d="m-480.3333 64h-31.6667l-5-24-2.8226-13.5484-6.5713-31.5425z"/><path d="m-448-32v64 32h-32.3333l-46.0606-69.0909-3.0695-4.6042-14.8699-22.3049z"/><path d="m-688-32h-224v-96h80 144z"/><path d="m-608-128h32 16.5 15.8333 95.6667v96h-96.3333-143.6667v-96z"/><path d="m-576-128 24-5-7.5 5z"/><path d="m-552-133 21-14-12.6667 19h-15.8333z"/><path d="m-512-192h11l-16 24z"/><path d="m-531-147 14-21 16-24h53v64h-95.6667z"/><path d="m-384-192v16.5 47.5 128 32h-64v-64-96-64z"/><path d="m-384 32v15.5 16.5 64h-16-16-32v-64-32z"/><path d="m-576 0h-112z"/><path d="m-608-128h-80-144 192z"/><path d="m-448 128h32v16h-64v-16z"/><path d="m-416 144v16h-64v-16z"/><path d="m-416 144h-64z"/><path d="m-416 160h-64z"/><path d="m-320-608h-32 16z"/><path d="m-352-608h-16z"/><path d="m-352-608h32v96l-24 5-8 1.6667z"/><path d="m-352-501.6667v-3.6666l8-1.6667z"/><path d="m-352-501.6667 8-5.3333z"/><path d="m-688 0h-48-176z"/><path d="m-688 0h112-160z"/><path d="m-832-128h-80z"/><path d="m-832-128h-80-48 96z"/><path d="m-912-128v96 32z"/><path d="m-960-128h48v128h-48z"/><path d="m-960-128v128z"/><path d="m-64-256v-64z"/><path d="m-45-237-19-19z"/><path d="m-192-448 128 128z"/><path d="m-288-608h-32-16 32z"/><path d="m-320-512v-96z"/><path d="m-320-512v-96h32v96z"/><path d="m-64-128v205 19z"/><path d="m-64 96v224-16.5-34.1667-26.6666-40.3334z"/><path d="m-64-128 19-19z"/><path d="m-64 320-5-24z"/><path d="m-576 0h-16.5-34.1667-58.6666-50.6667z"/><path d="m-736 0h-224 48z"/><path d="m-1033-113 73-15v128l-24 5z"/><path d="m-256-512v-96z"/><path d="m-320-512h32z"/><path d="m-288-512v-96h16 16v96z"/><path d="m-288-512v-96z"/><path d="m-1033-113 49 118z"/><path d="m-1033-113 73-15z"/><path d="m-1096-72 63-41 49 118-21 14z"/></g><g id="b"><path d="m-160-640h-32-64-16-112z"/><path d="m-272-640h-96-16z"/><path d="m-384-640-48 10z"/><path d="m-432-630-16 10.6667-26 17.3333z"/><path d="m352 304v176l-5 24-14 21-12 8h-1-16-32v-148.3333-80.6667z"/><path d="m272 533h32v16h-64v-16z"/><path d="m272 533h-32-16-1l-12-8v-153.0417l9.3902 1.9563 51.6098 10.7521z"/><path d="m220.3902 373.9146-9.3902-1.9563v-2.9583l5.6-6.4 20.4-13.6z"/><path d="m272 304h-5-11l-5-24 88-36 13 60z"/><path d="m256 304h11l-16 24z"/><path d="m237 349 14-21 16-24h5v80.6667l-51.6098-10.7521z"/><path d="m211 371.9583v153.0417l-14-21-5-24v-32l5-42 14-37z"/><path d="m304 549v16h-64v-16z"/><path d="m7 455-63 42z"/><path d="m-272-608v-32h16v32z"/><path d="m-192-448h128v128z"/><path d="m-197-472 5 7.5v16.5z"/><path d="m-197-472-14-21-16.6098-24.9146 35.6098-7.4187v60.8333z"/><path d="m-227.6098-517.9146-15.8188 3.2956-12.5714 2.619v-96-32h64v114.6667z"/><path d="m-232-507-11.4286-7.619 15.8188-3.2956 16.6098 24.9146z"/><path d="m-256-512 12.5714-2.619 11.4286 7.619z"/><path d="m-64-320v-128h32v24.9767 167.0233 10.3333l-13 8.6667-19-19z"/><path d="m-32-256h15.5l-7.5 5-8 5.3333z"/><path d="m0-256-24 5 7.5-5z"/><path d="m75.708-413.938 6.3979 9.5968-9.1059-4.6588z"/><path d="m73-409-.6341 1.1563-16.3659 29.8437-88-45.0233v-24.9767h64 21l16 24 6.708 10.062z"/><path d="m-32-423.0233 88 45.0233 8 4.093 1.9966 1.0215-65.9966 116.8855h-16.5-15.5z"/><path d="m53-448h11l5 24z"/><path d="m7-583 25 37.5v97.5h-64-32-128v-16.5-60.8333-114.6667h32 32l72 15z"/><path d="m32-545.5 17 25.5 15 72h-11-21z"/><path d="m65.9966-372.8855-65.9966 116.8855z"/><path d="m49-520 15 72z"/><path d="m75.708-413.938-6.708-10.062 6.708 10.062 6.3979 9.5968z"/><path d="m73-409-.6341 1.1563z"/><path d="m65.9966-372.8855-1.9966-1.0215z"/><path d="m-32-245.6667 8-5.3333-21 14z"/><path d="m-384-416v-32 50.6667 13.3333z"/><path d="m-512-512v64z"/><path d="m-512-384v192-16.5-15.8333-31.6667z"/><path d="m-256-384v128z"/><path d="m-64-256v-64z"/><path d="m-45-237-19-19z"/><path d="m-59-216 14-21z"/><path d="m-64-192 5-24z"/><path d="m-211-403-21 14z"/><path d="m-232-389-24 5z"/><path d="m-192-448-5 24z"/><path d="m-197-424-14 21z"/><path d="m-232-251 21 14z"/><path d="m-256-256 24 5z"/><path d="m-197-216 5 24z"/><path d="m-211-237 14 21z"/><path d="m-384-416v32 192z"/><path d="m-256-608h-16z"/><path d="m-272-608h-16-16z"/><path d="m-272-640v32h-32-32-16-16v-32z"/><path d="m-320-512h32 32z"/><path d="m-344-507 24-5z"/><path d="m-384-448 5-24z"/><path d="m-379-472 14-21z"/><path d="m-512-448v-64 96z"/><path d="m-502-560-10 48z"/><path d="m-474-602-28 42z"/><path d="m-64 320h11l-16 24z"/><path d="m-83 365-7.4516 11.1774-13.5484 2.8226z"/><path d="m-128 384 24-5 13.5484-2.8226-9.1582 13.7372z"/><path d="m77.3 22.8-4.0323 2.6882-.2677-.4882z"/><path d="m69 40-5 24-5.9146-28.3902 13.7372-9.1582z"/><path d="m-32 320h96l-15 72-16.9024 25.3537-131.7074-27.4391 9.1582-13.7372 7.4516-11.1774 14-21 16-24z"/><path d="m-99.6098 389.9146 131.7074 27.4391-25.0976 37.6463-63 42-72 15v-128z"/><path d="m-32 243v-166-58h86.625l3.4604 16.6098 5.9146 28.3902v176 3z"/><path d="m64 320h-96v-19-58h96z"/><path d="m54.625 19h15.0847l3.2903 6 .2677.4882-1.4451.9634-13.7372 9.1582z"/><path d="m73.2677 25.4882 4.0323-2.6882 4.8059-2.4588-13.1059 19.6588 2.8226-13.5484z"/><path d="m-64-128 19-19 13 8.6667v10.3333 147 58h-32z"/><path d="m-32 77v166 58h-32v-205-19z"/><path d="m-32 301v19h-21-11v-19z"/><path d="m-32-138.3333 8 5.3333 7.5 5h-15.5z"/><path d="m-32-128h15.5 5.5968l66.9032 122 13.7097 25h-15.0847-86.625z"/><path d="m-10.9032-128h10.9032l65.9966 116.8855-9.9966 5.1145z"/><path d="m0-128h-10.9032-5.5968l-7.5-5z"/><path d="m65.9966-11.1145-9.9966 5.1145z"/><path d="m0-128 65.9966 116.8855z"/><path d="m82.1059 20.3412-6.3979 9.5968-6.708 10.062z"/><path d="m-112 259.3333 8 1.6667z"/><path d="m-64 96v205 19z"/><path d="m-45-147-14-21z"/><path d="m-59-168-5-24z"/><path d="m-64-128 19-19z"/><path d="m-104 261-8-1.6667-16-3.3333z"/><path d="m-83 275-21-14z"/><path d="m-69 296-14-21z"/><path d="m-512 128h16z"/><path d="m-400 128h16z"/><path d="m-400 128h-16z"/><path d="m-384 128v-64z"/><path d="m-320 0h13.3333 50.6667z"/><path d="m-256-128h-64v128h64z"/><path d="m-320-128v128z"/><path d="m-256-128h-24-40z"/><path d="m-344-133 24 5z"/><path d="m-232-133-24 5z"/><path d="m-344-133-21-14z"/><path d="m-192-192-5 24z"/><path d="m-197-168-14 21z"/><path d="m-211-147-21 14z"/><path d="m-379-168-5-24z"/><path d="m-365-147-14-21z"/><path d="m-344 5 24-5z"/><path d="m-192 64-5 24z"/><path d="m-232 123-24 5z"/><path d="m-256 0 24 5z"/><path d="m-211 109-21 14z"/><path d="m-197 40 5 24z"/><path d="m-197 88-14 21z"/><path d="m-232 5 21 14z"/><path d="m-211 19 14 21z"/><path d="m-384 64 5-24z"/><path d="m-915 19 11.1774 7.4516 2.8226 13.5484z"/><path d="m-915 19-21-14-7.5-5h34.1667l5.5107 26.4516z"/><path d="m-960 0h16.5l7.5 5z"/><path d="m-626.6667 0h34.1667l-7.5 5-21 14-11.1774 7.4516z"/><path d="m-635 40 2.8226-13.5484 11.1774-7.4516z"/><path d="m-592.5 0h16.5l-24 5z"/><path d="m-685.3333 64h-178.6667-32l-5-24-2.8226-13.5484-5.5107-26.4516h173.3333 50.6667z"/><path d="m-626.6667 0-5.5107 26.4516-2.8226 13.5484-5 24h-45.3333v-64z"/><path d="m-640-128h-192-32 32 128z"/><path d="m-685.3333 64h45.3333-32-192z"/><path d="m-864-128h-96 50.6667z"/><path d="m-512 64v64z"/><path d="m-736 0h-173.3333-34.1667-16.5z"/><path d="m-576-128h-32z"/><path d="m-517-168-14 21z"/><path d="m-552-133-24 5z"/><path d="m-512-192-5 24z"/><path d="m-531-147-21 14z"/><path d="m-531 19 14 21z"/><path d="m-517 40 5 24z"/><path d="m-576 0 24 5z"/><path d="m-552 5 21 14z"/><path d="m-256 128 63.2381 112 19.7619 35z"/><path d="m-152 261-21 14z"/><path d="m-128 256-24 5z"/><path d="m-128 512h-160v-128h96 64z"/><path d="m-1096-72 91 91-14 21-118-49z"/><path d="m-960 0-24 5z"/><path d="m-1033-113-63 41z"/><path d="m-1096-72 91 91z"/><path d="m-1005 19 21-14z"/><path d="m339 244-88 36z"/><path d="m304 192 35 52-88 36-14-21z"/><path d="m339 244 13 60z"/><path d="m65.9966-372.8855 22.1053 11.3097-64.1019 110.5758-24-5z"/><path d="m75.708-413.938 6.3979 9.5968z"/><path d="m82.1059-404.3412-9.1059-4.6588z"/><path d="m72.3659-407.8437.6341-1.1563 9.1059 4.6588.8941 1.3412-7.0308 12.4521z"/><path d="m72.3659-407.8437-16.3659 29.8437z"/><path d="m56-378 8 4.093z"/><path d="m64-373.907 1.9966 1.0215z"/><path d="m65.9966-11.1145 22.1053-11.3097-10.6019 5.4242-21.5 11z"/><path d="m0-128 24-5 64.1019 110.5758-22.1053 11.3097z"/><path d="m24-133 64.1019 110.5758z"/><path d="m82.1059 20.3412-6.3979 9.5968z"/><path d="m73 25 9.1059-4.6588-4.8059 2.4588z"/><path d="m73 25-3.2903-6-13.7097-25z"/><path d="m-288 384h96z"/><path d="m-288 384h-32z"/><path d="m-320 512h32z"/><path d="m-288 384v128z"/><path d="m-320 512v-128h32v128z"/><path d="m-1019 40-5 24h-11z"/><path d="m-1137-9 118 49z"/><path d="m-1152 64 15-73 118 49-16 24z"/><path d="m64-373.907-8-4.093 16.3659-29.8437 3.6033 17.2958-9.9726 17.6624z"/><path d="m65.9966-372.8855 11.5034 5.8855 10.6019 5.4242z"/><path d="m75.9692-390.5479 7.0308-12.4521 22.9204 34.3805-6.9204 12.6195-21.5-11-11.5034-5.8855z"/><path d="m83-403 21 14 9.5906 6.3937-7.6702 13.9868z"/><path d="m-160-640h-224z"/><path d="m-128-640h-32z"/><path d="m-56-625-72-15z"/><path d="m7-583-63-42z"/><path d="m-384-640-48 10z"/><path d="m-432-630-42 28z"/><path d="m304 192-67 67z"/><path d="m304 192 35 52z"/><path d="m252 157 52 35-67 67-21-14z"/><path d="m7 455-63 42z"/><path d="m-232-251 21 14z"/><path d="m49.8625-245.612 59.3716-105.152.2625-.4649-64.4966 114.2289z"/><path d="m49-520-17-25.5-25-37.5z"/><path d="m24-251-24-5z"/><path d="m109.4966-351.2289-10.4966-4.7711z"/><path d="m109.4966-351.2289-.2625.4649-10.2341-5.236z"/><path d="m24-251 64.1019-110.5758 10.8981 5.5758 10.2341 5.236-59.3716 105.152z"/><path d="m24-251 64.1019-110.5758z"/><path d="m69-424-5-24z"/><path d="m49-520 15 72z"/><path d="m69-424 14 21-.8941-1.3412-6.3979-9.5968z"/><path d="m-232-389-24 5z"/><path d="m-211-403-21 14z"/><path d="m-197-424-14 21z"/><path d="m-192-448-5 24z"/><path d="m-24-251 24-5z"/><path d="m24-251 25.8625 5.388-4.8625 8.612z"/><path d="m-24-251-21 14z"/><path d="m-59-216 14-21z"/><path d="m-64-192 5-24z"/><path d="m-256-256 24 5z"/><path d="m-197-216 5 24z"/><path d="m-211-237 14 21z"/><path d="m-502-560-10 48z"/><path d="m-474-602-28 42z"/><path d="m-128 512 72-15z"/><path d="m109.4966-32.7712-.2625-.4648-64.2341-113.764z"/><path d="m49 392-42 63 25.0976-37.6463z"/><path d="m88.1019-22.4242 10.8981-5.5758-21.5 11z"/><path d="m-59-168-5-24z"/><path d="m36.7559-141.5039 8.2441-5.4961 64.2341 113.764-10.2341 5.236z"/><path d="m24-133 12.7559-8.5039 62.2441 113.5039-10.8981 5.5758z"/><path d="m0-128 24-5z"/><path d="m-24-133-8-5.3333-13-8.6667z"/><path d="m-45-147-14-21z"/><path d="m0-128-24-5z"/><path d="m109.4966-32.7712-10.4966 4.7712z"/><path d="m109.2341-33.236.2625.4648-10.4966 4.7712z"/><path d="m64 64v176z"/><path d="m64 64 5-24z"/><path d="m77.5-17 21.5-11 6.9204 12.6195-22.9204 34.3805-.8941 1.3412-9.1059 4.6588-17-31z"/><path d="m64 240v80-77z"/><path d="m64 320-5 24-1.6667 8-8.3333 40z"/><path d="m-480 128h-16z"/><path d="m-416 128h16-96 16z"/><path d="m-232-133-24 5z"/><path d="m-197-168-14 21z"/><path d="m-192-192-5 24z"/><path d="m-211-147-21 14z"/><path d="m-320-128v128z"/><path d="m-320-128-24-5z"/><path d="m-379-168-5-24z"/><path d="m-365-147-14-21z"/><path d="m-344-133-21-14z"/><path d="m-344 5 24-5z"/><path d="m-192 64-5 24z"/><path d="m-365 19 21-14z"/><path d="m-232 123-24 5z"/><path d="m-256 0 24 5z"/><path d="m-211 109-21 14z"/><path d="m-197 40 5 24z"/><path d="m-197 88-14 21z"/><path d="m-232 5 21 14z"/><path d="m-211 19 14 21z"/><path d="m-384 64 5-24z"/><path d="m-379 40 14-21z"/><path d="m-552 5 21 14z"/><path d="m-552-133-24 5z"/><path d="m-517-168-14 21z"/><path d="m-531-147-21 14z"/><path d="m-512-192-5 24z"/><path d="m-531 19 14 21z"/><path d="m-517 40 5 24z"/><path d="m-576 0 24 5z"/><path d="m-576 0-24 5z"/><path d="m-896 64h32z"/><path d="m-960 0 24 5z"/><path d="m-901 40 5 24z"/><path d="m-915 19 14 21z"/><path d="m-936 5 21 14z"/><path d="m-173 275 21-14z"/><path d="m-152 261 24-5z"/><path d="m-416 144v-16h-64v16z"/><path d="m-416 160v-16h-64v16z"/><path d="m-480 144v-16z"/><path d="m-480 160v-16z"/><path d="m-416 128v16z"/><path d="m-416 144v16z"/><path d="m-416 144h-64z"/><path d="m-288 512h160z"/><path d="m-128 512h-64-64-32z"/><path d="m-352 512h32 32z"/><path d="m-320 384v128z"/><path d="m-352 512v-128h32v128z"/><path d="m-1152 64h117 11z"/><path d="m-1019 40 14-21z"/><path d="m-1019 40-5 24z"/><path d="m-1005 19 21-14z"/><path d="m-984 5 24-5z"/><path d="m-1024 64 5 24-118 49-15-73z"/><path d="m192-237v-76.7273-70.2727 160z"/><path d="m252 157-36 88z"/><path d="m252 157 52 35z"/><path d="m194 144.4333 58 12.5667-36 88-22-4.5833z"/><path d="m216 245-22-4.5833z"/><path d="m59-216 7.619 11.4286-2.619 12.5714z"/><path d="m59-216-14-21h28.375l-6.756 32.4286z"/><path d="m73.375-237h-28.375l64.4966-114.2289.5034.2289 82 37.2727v76.7273z"/><path d="m66.619-204.5714 6.756-32.4286h118.625v13 32h-128z"/><path d="m128-384-18 33-.5034-.2289z"/><path d="m128-384h64v70.2727l-82-37.2727z"/><path d="m99-356-10.8981-5.5758-10.6019-5.4242z"/><path d="m105.9204-368.6195 7.6702-13.9868 2.1633-3.945 12.2461 2.5513-18.5034 32.7711-10.4966-4.7711z"/><path d="m104-389-21-14z"/><path d="m115.7539-386.5513-2.1633 3.945-9.5906-6.3937z"/><path d="m115.7539-386.5513-11.7539-2.4487z"/><path d="m45-237-21-14z"/><path d="m54.625-147h-9.625l14-21z"/><path d="m110-33 82-37.2727v70.2727h-64z"/><path d="m54.625-147h137.375v76.7273l-82 37.2727-.5034.2288-64.4966-114.2288z"/><path d="m110-33 18 33-14.8269-26.2597-3.6765-6.5115z"/><path d="m192-192v45h-137.375l4.375-21 5-24z"/><path d="m83 19-14 21 6.708-10.062 6.3979-9.5968z"/><path d="m128 0-12.2461 2.5513-2.1633-3.945-7.6702-13.9868 7.2527-10.8792z"/><path d="m113.5906-1.3937 2.1633 3.945-11.7539 2.4487z"/><path d="m105.9204-15.3805 7.6702 13.9868-9.5906 6.3937-21 14z"/><path d="m83 19 21-14z"/><path d="m104 5 11.7539-2.4487z"/><path d="m105.9204-15.3805-6.9204-12.6195 10.4966-4.7712 3.6765 6.5115z"/><path d="m-496 128h-16z"/><path d="m-400 128h-96z"/><path d="m-192 384h-96-32-32z"/><path d="m-384 512h32 64z"/><path d="m-352 384v128z"/><path d="m-384 512v-128h32v128z"/><path d="m-1137 137 118-49z"/><path d="m-1137 137-15-73z"/><path d="m-1137 137 118-49 14 21-91 91z"/><path d="m352 304v176z"/><path d="m352 480-1.0366 4.9756-3.9634 19.0244z"/><path d="m192 480v-32z"/><path d="m251 280-14-21z"/><path d="m251 328 5-24z"/><path d="m211 369 5.6-6.4z"/><path d="m216.6 362.6 20.4-13.6z"/><path d="m237 349 14-21z"/><path d="m197 406 14-37z"/><path d="m192 448 5-42z"/><path d="m256 304-5-24z"/><path d="m237 259-21-14z"/><path d="m192 240h2v.4167z"/><path d="m192 144 2 .4333v95.5667h-2z"/><path d="m194 240v-95.5667 95.9834z"/><path d="m252 157-58-12.5667z"/><path d="m-320-384h-32z"/><path d="m-344-389-13.5484-2.8226-7.4516-11.1774z"/><path d="m-365-403 7.4516 11.1774-15.4171-3.2119-6.0345-28.9655z"/><path d="m-384-397.3333v-50.6667l5 24 6.0345 28.9655z"/><path d="m-352-384h-32v-13.3333l11.0345 2.2988 15.4171 3.2119 13.5484 2.8226 24 5z"/><path d="m-512-431.5v-16.5 32 32z"/><path d="m-512-448v-64z"/><path d="m-531-403-7.4516 11.1774-13.5484 2.8226z"/><path d="m-538.4516-391.8226 7.4516-11.1774 14-21 5-7.5v47.5h-31.6667z"/><path d="m-576-384 24-5 13.5484-2.8226-5.2151 7.8226z"/><path d="m-512-448v16.5l-5 7.5z"/><path d="m-384-256v-128h-128v128z"/><path d="m-344-251 7.5-5h16.5z"/><path d="m-344-251-21 14-19 12.6667v-31.6667h32 15.5z"/><path d="m-379-216-5 7.5v-15.8333l19-12.6667z"/><path d="m-384-192v-16.5l5-7.5z"/><path d="m-517-216-14-21 19 12.6667v15.8333z"/><path d="m-576-256h16.5l7.5 5z"/><path d="m-517-216 5 7.5v16.5z"/><path d="m-531-237-21-14-7.5-5h47.5v31.6667z"/><path d="m-352-256h-32-128-47.5-16.5z"/><path d="m-384-384v128 31.6667 15.8333 16.5z"/><path d="m128 240v-96h64v96z"/><path d="m64 64v16.5 34.1667 125.3333z"/><path d="m64 80.5v-16.5l5 24z"/><path d="m104 123-13.5484-2.8226-7.4516-11.1774z"/><path d="m64 114.6667v-34.1667l5 7.5 14 21 7.4516 11.1774z"/><path d="m128 240h-64v-125.3333l26.4516 5.5107 13.5484 2.8226 24 21z"/><path d="m64 240v29.3333 34.1667 16.5z"/><path d="m83 275 7.4516-11.1774 13.5484-2.8226z"/><path d="m83 275-14 21-5 7.5v-34.1667l26.4516-5.5107z"/><path d="m64 320v-16.5l5-7.5z"/><path d="m128 240-24 21-13.5484 2.8226-26.4516 5.5107v-29.3333z"/><path d="m-112 259.3333-16-3.3333z"/><path d="m-80 240h-32v19.3333l8 1.6667 13.5484 2.8226 10.4516 2.1774z"/><path d="m-112 240v19.3333z"/><path d="m-83 275-7.4516-11.1774-13.5484-2.8226z"/><path d="m-83 275 3 4.5v-13.5l-10.4516-2.1774z"/><path d="m-80 266v13.5z"/><path d="m-80 279.5-3-4.5 14 21z"/><path d="m-104 261 21 14z"/><path d="m-400 128h16z"/><path d="m-384 128v-64z"/><path d="m-384-192 5 24z"/><path d="m-384 64h-128z"/><path d="m-576-128 24-5z"/><path d="m-512 64-5-24z"/><path d="m-512 128v-64z"/><path d="m-496 128h96 16v-64h-128v64z"/><path d="m-640-128v192z"/><path d="m-600-128h24-32-32z"/><path d="m-635 40 2.8226-13.5484 32.1774-154.4516h-40v192z"/><path d="m-576-128h-24l-32.1774 154.4516 11.1774-7.4516 21-14 24-16z"/><path d="m-576 0v-11l-24 16z"/><path d="m-621 19-11.1774 7.4516-2.8226 13.5484z"/><path d="m-635 40-5 24z"/><path d="m-621 19-14 21z"/><path d="m-600 5-21 14z"/><path d="m-704-141.3333v-34.1667l5 7.5 14 21 7.4516 11.1774z"/><path d="m-664-133-13.5484-2.8226-7.4516-11.1774z"/><path d="m-832-128v96h128v-96z"/><path d="m-704-175.5v-16.5l5 24z"/><path d="m-704-128v-13.3333l26.4516 5.5107 13.5484 2.8226 24 5z"/><path d="m-864-192h32v64h-32z"/><path d="m-672 64v-32l-32-64h-128l-32 64v32z"/><path d="m-640 64h-32z"/><path d="m-832-32v-96-64z"/><path d="m-907.0345-139.0345 6.0345-28.9655 5-24h32v64h-45.3333z"/><path d="m-915-147 14-21-6.0345 28.9655-15.4171 3.2119z"/><path d="m-915-147-7.4516 11.1774-13.5484 2.8226z"/><path d="m-960-128 24-5 13.5484-2.8226 15.4171-3.2119-2.2988 11.0345z"/><path d="m-416 512h32 96z"/><path d="m-384 384v128z"/><path d="m-416 512v-128h32v128z"/><path d="m-1096 200 91-91z"/><path d="m-1096 200 91-91 21 14-49 118z"/><path d="m-1096 200-41-63z"/><path d="m192-224v224-70.2727-76.7273-45z"/><path d="m192-384v16 96 16 16 16z"/><path d="m192 0h-64z"/><path d="m-384 384h-32z"/><path d="m-448 512h32 128z"/><path d="m-416 384v128z"/><path d="m-448 512v-128h32v128z"/><path d="m-1033 241 49-118z"/><path d="m-1033 241 49-118 24 5v128z"/><path d="m-1033 241-63-41z"/><path d="m-128-640h-32z"/><path d="m-160-640h-224 64 64 24 62z"/><path d="m-56-625-72-15z"/><path d="m7-583-63-42z"/><path d="m-384-640-48 10z"/><path d="m-432-630-42 28z"/><path d="m-960 256v-128z"/><path d="m192-224v64 16 16 16 96 16z"/><path d="m192-272v-96h64v96z"/><path d="m192-112h64v96h-64z"/><path d="m192-160v-64h64v64z"/><path d="m304 549h-64z"/><path d="m240 549h64z"/><path d="m240 533h-16z"/><path d="m240 533v16h64v-16z"/><path d="m304 533v16z"/><path d="m240 549v-16z"/><path d="m240 549v16h64v-16z"/><path d="m240 565v-16z"/><path d="m304 549v16z"/><path d="m304 565h-64z"/><path d="m7 455-63 42z"/><path d="m-256-384v128z"/><path d="m49-520-42-63z"/><path d="m64-448 5 24z"/><path d="m49-520 1.6667 8 3.3333 16 10 48z"/><path d="m-256-384 24-5z"/><path d="m-352-384h-224 32.3333 31.6667 128z"/><path d="m-320-384h-32z"/><path d="m-512-512v64z"/><path d="m-512-512 10-48z"/><path d="m-502-560 28-42z"/><path d="m-352-256h-224 205.3333z"/><path d="m-320-256h-16.5-15.5z"/><path d="m-128 512 72-15z"/><path d="m49 392-42 63z"/><path d="m-112 240h32z"/><path d="m-112 259.3333 8 1.6667z"/><path d="m-112 240h32v26l-10.4516-2.1774-13.5484-2.8226-8-1.6667z"/><path d="m-80 240v26z"/><path d="m-83 275-7.4516-11.1774 10.4516 2.1774v13.5z"/><path d="m-104 261 13.5484 2.8226 7.4516 11.1774z"/><path d="m-80 279.5 11 16.5z"/><path d="m-912 128h-48z"/><path d="m-256 128 24-5z"/><path d="m-864 64v-32z"/><path d="m-672 64h32z"/><path d="m-704-192 5 24z"/><path d="m-672 32v32z"/><path d="m-704-192v16.5 34.1667 13.3333 96z"/><path d="m-704-32 32 64z"/><path d="m-832-32v-160z"/><path d="m-864 32 32-64z"/><path d="m-896 64h32z"/><path d="m-960-128 24-5z"/><path d="m-896 64-5-24z"/><path d="m-256 128 83 147z"/><path d="m-192 384h-160-32z"/><path d="m-192 512h-64z"/><path d="m-448 384v128z"/><path d="m-480 512v-128h32v128z"/><path d="m-960 256v-128h48v128z"/><path d="m-1137-9-15 73z"/><path d="m-1096-72-41 63z"/><path d="m-960-128-73 15z"/><path d="m-1033-113-63 41z"/><path d="m-1033 241 73 15z"/><path d="m211 525-14-21z"/><path d="m224 533h-1z"/><path d="m320 533h-16z"/><path d="m224 533h16 64 16z"/><path d="m321 533h-1z"/><path d="m333 525-12 8z"/><path d="m223 533-12-8z"/><path d="m-912 128h-48 50.6667 45.3333z"/><path d="m-448 384h-32z"/><path d="m-256 512h-32-192 32 160z"/><path d="m-256 512h64-96z"/><path d="m-480 384v128z"/><path d="m-512 512v-128h32v128z"/><path d="m-912 256v-128z"/><path d="m-912 256v-128h48v128z"/><path d="m-912 256h48-43z"/><path d="m-912 256h-48z"/><path d="m352 304v176z"/><path d="m-363.6667 576h107.6667-192z"/><path d="m192 480v-32z"/><path d="m304 192 35 52z"/><path d="m251 280-14-21z"/><path d="m251 328 5-24z"/><path d="m339 244 13 60z"/><path d="m211 369 5.6-6.4z"/><path d="m216.6 362.6 20.4-13.6z"/><path d="m237 349 14-21z"/><path d="m197 406 14-37z"/><path d="m192 448 5-42z"/><path d="m256 304-5-24z"/><path d="m252 157 52 35z"/><path d="m237 259-21-14z"/><path d="m192 144 60 13-58-12.5667z"/><path d="m216 245-24-5 2 .4167z"/><path d="m-256-384v128z"/><path d="m-352-384h-18.6667-205.3333z"/><path d="m-320-256h-32z"/><path d="m-594.6667-256h-45.3333-24-21-5.6667-8.3333-5-114.6667l1.6667-8 42-63 63-42 72-15h45.3333z"/><path d="m-370.6667-256h-205.3333-18.6667v-128h18.6667 205.3333z"/><path d="m-352-384h32 64v128h-64-32-18.6667v-128z"/><path d="m-685-256v19l-14 21 8.3333-40z"/><path d="m-640-256-24 5v-5z"/><path d="m-664-251-21 14v-19h21z"/><path d="m-832-192 13.3333-64h114.6667v64z"/><path d="m-699-216v-40h8.3333z"/><path d="m-699-256v40l-5 24v-64z"/><path d="m-128 384v128z"/><path d="m192 240h-64z"/><path d="m-864 64v-32z"/><path d="m-672 32v32z"/><path d="m-864 32 32-64h128l32 64v32h-192z"/><path d="m-832-192h128v160h-128z"/><path d="m-704-192v160z"/><path d="m-704-32 32 64z"/><path d="m-864 32 32-64z"/><path d="m-672 64v64h-192v-64z"/><path d="m-672 128v-64h32v64z"/><path d="m-915 109-7.4516 11.1774-13.5484 2.8226z"/><path d="m-960 128 24-5 13.5484-2.8226 15.4171-3.2119-2.2988 11.0345z"/><path d="m-907.0345 116.9655 6.0345-28.9655 5-24h32v64h-45.3333z"/><path d="m-915 109 14-21-6.0345 28.9655-15.4171 3.2119z"/><path d="m-864 256v-128z"/><path d="m-180.0308 262.5479-75.9692-134.5479 83 147z"/><path d="m-256 128 75.9692 134.5479-6.9692 33.4521-5 24h-117-11l5-72 14-63 21-42z"/><path d="m-180.0308 262.5479 7.0308 12.4521-14 21z"/><path d="m-192 384v128h64v-128z"/><path d="m-360 379 13.5484-2.8226 154.4516-32.1774v40h-192z"/><path d="m-192 320v24l-154.4516 32.1774 7.4516-11.1774 14-21 16-24z"/><path d="m-363.6667 576h-84.3333l-72-15-63-42-4.6667-7h75.6667 148.3333z"/><path d="m-288 512h96l-5 24-14 21-21 14-24 5h-107.6667v-64z"/><path d="m-320 320h11l-16 24z"/><path d="m-339 365-7.4516 11.1774-13.5484 2.8226z"/><path d="m-640 128 48 15 1 1h-49z"/><path d="m-640 144h-32v-16h32z"/><path d="m-672 256h.3333l12.6667 19-21-14-7.5-5z"/><path d="m-637.381 307.4286 10.7143-51.4286h105.7778l8.8889 64h-48.5-79.5z"/><path d="m-550 185 28 63 1.1111 8h-105.7778-45-.3333v-112h32 49z"/><path d="m-645 296-14-21-12.6667-19h45l-10.7143 51.4286z"/><path d="m-645 296 7.619 11.4286-2.619 12.5714z"/><path d="m-672 128v16 112h-15.5-16.5-160v-128z"/><path d="m-704 256h16.5l7.5 5z"/><path d="m-448 384h-16.5l-7.5-5z"/><path d="m-512 384h-128v-64h79.5l56.3226 37.5484 11.1774 7.4516 21 14 7.5 5z"/><path d="m-560.5 320h48.5l5 24 2.8226 13.5484z"/><path d="m-493 365-11.1774-7.4516-2.8226-13.5484z"/><path d="m-512 512h-75.6667l-37.3333-56-15-72h128z"/><path d="m-512 384v128z"/><path d="m-384 384h-32-32z"/><path d="m-128 384h-64z"/><path d="m-192 384h-192z"/><path d="m-464.5 384h16.5-32-32z"/><path d="m-288 512h-75.6667-148.3333 32z"/><path d="m-192 512h64z"/><path d="m-1058-173 36.4847-7.0736z"/><path d="m-1197-34 56-83 45 45-41 63z"/><path d="m-1019-168 10.4133 49.9836-24.4133 5.0164-25-60 36.4847-7.0736z"/><path d="m-984-133 24 5-28.4377 5.8434-9.1107-13.666z"/><path d="m-984-133-13.5484-2.8226-7.4516-11.1774z"/><path d="m-1005-147 7.4516 11.1774 9.1107 13.666-20.149 4.1402-10.4133-49.9836z"/><path d="m-1058-173 25 60-63 41-45-45z"/><path d="m-1197-34 60 25-15 73h-64z"/><path d="m-1137-9-15 73z"/><path d="m-1096-72-41 63z"/><path d="m-1008.5867-118.0164 20.149-4.1402 28.4377-5.8434-73 15z"/><path d="m-1033-113-63 41z"/><path d="m-1058 301-66.6964-45h85.4464 28.5833l-5.5107 26.4516-2.8226 13.5484-2.5153 12.0735z"/><path d="m-1019 296 2.8226-13.5484 11.1774-7.4516z"/><path d="m-976.5 256-7.5 5-21 14-11.1774 7.4516 5.5107-26.4516z"/><path d="m-976.5 256 3.8875-2.5916 12.6125 2.5916-24 5z"/><path d="m-1141 245 45-45 63 41-6.25 15h-85.4464z"/><path d="m-972.6125 253.4084-3.8875 2.5916h-34.1667-28.5833l6.25-15z"/><path d="m-972.6125 253.4084-60.3875-12.4084 73 15z"/><path d="m-1096 200 63 41z"/><path d="m-1216 64h64l15 73-60 25z"/><path d="m-1197 162 60-25 41 63-45 45z"/><path d="m-1137 137 41 63z"/><path d="m-1152 64 15 73z"/><path d="m-616-384v128h16v-128z"/><path d="m-448 576h192z"/><path d="m-128-640h-32z"/><path d="m-56-625-72-15z"/><path d="m7-583-63-42z"/><path d="m-520 561 72 15z"/><path d="m-384-640-48 10z"/><path d="m-1141 245 16.3036 11 66.6964 45z"/><path d="m-448-619.3333 16-10.6667-42 28z"/><path d="m-1197 162 56 83z"/><path d="m-1141-117-56 83z"/><path d="m-1216 64 19 98z"/><path d="m-1197-34-19 98z"/><path d="m-583 519 63 42z"/><path d="m-256 576 24-5z"/><path d="m9-580 40 60-42-63z"/><path d="m50.6667-512-1.6667-8-40-60 28.3333 68z"/><path d="m54-496v24l10 24z"/><path d="m54-472v-24l-3.3333-16h-13.3334z"/><path d="m9-580-2-3-63-42-72-15h-32-10l170.6667 128h25.3333 11.3333z"/><path d="m26-493v-19h-25.3333z"/><path d="m26-512v19l28 21-16.6667-40z"/><path d="m-197-472 5 24z"/><path d="m-16-512v5l42 14-25.3333-19z"/><path d="m-170-640h-62l26.6667 128h13.3333 10 28 42 48 48 16.6667z"/><path d="m-16-507v-5h-48z"/><path d="m-182-512v40l28-21v-19z"/><path d="m-112-512v5l48-5z"/><path d="m-192-464.5v-47.5h-13.3333l8.3333 40z"/><path d="m-192-448v-16.5l-5-7.5z"/><path d="m-192-512v47.5 16.5l10-24v-40z"/><path d="m-154-512v19l42-14v-5z"/><path d="m-205.3333-512h-18.3334l12.6667 19 14 21z"/><path d="m-232-507 21 14-12.6667-19h-15.8333z"/><path d="m-256-512 24 5-7.5-5z"/><path d="m-232-640h-24v128h16.5 15.8333 18.3334z"/><path d="m-256-512 24 5z"/><path d="m-211-493 14 21z"/><path d="m-232-507 21 14z"/><path d="m-352-384h-96-95.6667-32.3333 96z"/><path d="m-320-384h64z"/><path d="m-576-384h-18.6667-45.3333z"/><path d="m-256-640h-64v128h64z"/><path d="m-344-507-13.5484 2.8226-7.4516 11.1774z"/><path d="m-372.9655-395.0345 15.4171 3.2119-7.4516-11.1774-14-21z"/><path d="m-448-410.6667 75.0345 15.6322-6.0345-28.9655-5-24h-64z"/><path d="m-448-384h96 32l-24-5-13.5484-2.8226-15.4171-3.2119-75.0345-15.6322z"/><path d="m-357.5484-391.8226 13.5484 2.8226-21-14z"/><path d="m-448-448h64l5-24 6.0345-28.9655-75.0345 15.6322z"/><path d="m-365-493 7.4516-11.1774-15.4171 3.2119-6.0345 28.9655z"/><path d="m-372.9655-500.9655 15.4171-3.2119 13.5484-2.8226 24-5v-128h-64l-48 10-16 10.6667v134z"/><path d="m-448-485.3333v-134l-26 17.3333-28 42-10 48v64h11 53z"/><path d="m-517-424-14 21-7.4516 11.1774-5.2151 7.8226h95.6667v-26.6667-37.3333h-53z"/><path d="m-552-389 13.5484-2.8226 7.4516-11.1774z"/><path d="m-517-424 16-24h-11z"/><path d="m-552-389-24 5h32.3333l5.2151-7.8226z"/><path d="m-320-512h64z"/><path d="m-320-384-24-5z"/><path d="m-365-493-14 21z"/><path d="m-379-424-5-24z"/><path d="m-344-507-21 14 13-8.6667z"/><path d="m-365-403-14-21z"/><path d="m-379-472-5 24z"/><path d="m-344-389-21-14z"/><path d="m-320-512-24 5z"/><path d="m-502-560-10 48z"/><path d="m-474-602-28 42z"/><path d="m-512-448-5 24z"/><path d="m-517-424-14 21z"/><path d="m-531-403-21 14z"/><path d="m-552-389-24 5z"/><path d="m-640-256h45.3333 18.6667z"/><path d="m-320-256h64z"/><path d="m-336.5-256h16.5 64-160z"/><path d="m-365-237 21-14z"/><path d="m-552-251 21 14z"/><path d="m-432.5-192 67.5-45 21-14 7.5-5h-79.5-82.6667l-7.4187 35.6098 42.5854 28.3902z"/><path d="m-552-251 21 14 11.1774 7.4516 13.7372 9.1582 7.4187-35.6098h-60.8333z"/><path d="m-576-256 24 5z"/><path d="m-576-256 24 5-7.5-5z"/><path d="m-517-216 5 24z"/><path d="m-506.0854-220.3902-3.2956 15.8188-2.619 12.5714h48.5z"/><path d="m-512-192 2.619-12.5714-7.619-11.4286z"/><path d="m-509.381-204.5714 3.2956-15.8188-13.7372-9.1582 2.8226 13.5484z"/><path d="m-531-237 14 21z"/><path d="m-519.8226-229.5484-11.1774-7.4516 14 21z"/><path d="m-640-256-24 5z"/><path d="m-432.5-192h37.5l16-24 14-21z"/><path d="m-395-192h11l5-24z"/><path d="m-320-256h-16.5l-7.5 5z"/><path d="m-384-192 5-24z"/><path d="m-379-216 14-21z"/><path d="m-344-251 24-5z"/><path d="m-128 512 72-15z"/><path d="m49 392-40 60-2 3z"/><path d="m49 392 8.3333-40h-6.6666l-41.6667 100z"/><path d="m64 320-5 12v12z"/><path d="m50.6667 352h6.6666l1.6667-8v-12z"/><path d="m7 352h17v-2l-24 2z"/><path d="m0 352-24-2v2z"/><path d="m7 455v-42.875l-106.6098-22.2104-28.3902-5.9146v128l72-15z"/><path d="m7 412.125v-60.125h-7-24-21-14-5-10.3333l-8.6667 13-7.4516 11.1774-9.1582 13.7372z"/><path d="m50.6667 352h-5.6667-21-17v60.125 42.875l2-3z"/><path d="m-24 352v-2l-21-7v9z"/><path d="m45 352v-9l-21 7v2z"/><path d="m45 343v9h5.6667l8.3333-20z"/><path d="m-45 343-14-11v20h14z"/><path d="m-104 379-24 5 28.3902 5.9146 9.1582-13.7372z"/><path d="m-69 344 5-7.5v-16.5z"/><path d="m-69 344-5.3333 8h10.3333v-15.5z"/><path d="m-104 379 13.5484-2.8226 7.4516-11.1774z"/><path d="m-59 352v-20l-5-12v16.5 15.5z"/><path d="m-24 350-21-7z"/><path d="m-83 365-21 14z"/><path d="m-74.3333 352 5.3333-8-14 21z"/><path d="m-104 379-24 5z"/><path d="m-69 296 5 24z"/><path d="m-64 320-5 24z"/><path d="m-104 261 21 14z"/><path d="m-83 275 3 4.5 11 16.5z"/><path d="m-256-128v128z"/><path d="m-256-128 24-5z"/><path d="m-640 82.6667v45.3333-64z"/><path d="m-640 64v-192l-24-5-13.5484-2.8226-26.4516-5.5107v205.3333l3.8889 18.6667h60.1111z"/><path d="m-700.1111 82.6667 1.1111 5.3333 14 21 21 14 24 5v-45.3333z"/><path d="m-685-147 7.4516 11.1774 13.5484 2.8226z"/><path d="m-685-147-14-21-5-7.5v15.5 18.6667l26.4516 5.5107z"/><path d="m-704-192v16.5l5 7.5z"/><path d="m-704-175.5v-16.5 32z"/><path d="m-685-147 21 14z"/><path d="m-664-133 24 5z"/><path d="m-699-168 14 21z"/><path d="m-128 256-24 5z"/><path d="m-640 320v64z"/><path d="m-625 456 37.3333 56 4.6667 7z"/><path d="m-192 512v-128-40-24z"/><path d="m-192 320v192z"/><path d="m-640 128 48 15z"/><path d="m-197 536 5-24z"/><path d="m-640 384 15 72z"/><path d="m-232 571 21-14z"/><path d="m-211 557 14-21z"/><path d="m-640 320-5-24z"/><path d="m-1058-173-83 56z"/><path d="m-1021.5153-180.0736-36.4847 7.0736z"/><path d="m-1021.5153-180.0736 2.5153 12.0736z"/><path d="m-1058 301 36.4847 7.0735z"/><path d="m288 544h-32z"/><path d="m256 544-16-3z"/><path d="m288 544h-32l-16-3-8-2-9-6h1 96 1l-9 6-8 2z"/><path d="m352 304v97.3333 78.6667z"/><path d="m347 504-14 21z"/><path d="m192-384v16z"/><path d="m192-368v-16 28z"/><path d="m192-256v16z"/><path d="m192-272v16z"/><path d="m192-240v-16-16-12 28 32z"/><path d="m192-240v16z"/><path d="m192-144v16z"/><path d="m192-128v16z"/><path d="m192-160v16z"/><path d="m192-16v16z"/><path d="m192 480v-32z"/><path d="m256-16h-64z"/><path d="m192-224h64z"/><path d="m192-368h64z"/><path d="m256-272h-64z"/><path d="m192-112h64z"/><path d="m350.9634 484.9756 1.0366-4.9756v-78.6667l-48-10-63.4409-13.2168-20.1689-4.2019-9.3902-1.9563v19.7084z"/><path d="m216.6 362.6-5.6 6.4v2.9583l9.3902 1.9563 16.6098-24.9146z"/><path d="m352 401.3333v-97.3333l-13-60-35-52v24.6667 174.6666z"/><path d="m237 349-16.6098 24.9146 20.1689 4.2019 10.4409-50.1165z"/><path d="m192 240 24 5-11.4286-7.619z"/><path d="m256 304 2.619-12.5714-7.619-11.4286z"/><path d="m211 371.9583v-2.9583l-6.8489 18.1007 6.8489 4.566z"/><path d="m261.9146 275.6097-3.2956 15.8189-2.619 12.5714-5 24-10.4409 50.1165 63.4409 13.2168v-174.6666l-31.1579 6.4912z"/><path d="m251 280 7.619 11.4286 3.2956-15.8189-24.9146-16.6097z"/><path d="m216 245 21 14 24.9146 16.6097 10.9275-52.4518-68.2707 14.2231z"/><path d="m192 240 12.5714-2.619 68.2707-14.2231 31.1579-6.4912v-24.6667l-52-35-60-13z"/><path d="m197 504 14 21 12 8 9 6 8 2 16 3h32l16-3 8-2 9-6 12-8 14-21 3.9634-19.0244-139.9634-93.3089-6.8489-4.566-7.1511 18.8993-5 42v32z"/><path d="m197 504-5-24z"/><path d="m304 192 35 52z"/><path d="m251 280-14-21z"/><path d="m251 328 5-24z"/><path d="m339 244 13 60z"/><path d="m333 525-12 8z"/><path d="m223 533-12-8z"/><path d="m232 539-9-6z"/><path d="m304 541-16 3z"/><path d="m240 541-8-2z"/><path d="m312 539-8 2z"/><path d="m321 533-9 6z"/><path d="m211 369 5.6-6.4z"/><path d="m216.6 362.6 20.4-13.6z"/><path d="m237 349 14-21z"/><path d="m197 406 7.1511-18.8993 6.8489-18.1007z"/><path d="m192 448 5-42z"/><path d="m256 304-5-24z"/><path d="m252 157 52 35z"/><path d="m237 259-21-14z"/><path d="m192 144 60 13z"/><path d="m216 245-24-5z"/><path d="m128 240v-96z"/><path d="m192 240v-96h-64v96z"/><path d="m128 144h64z"/><path d="m128 240-24 21z"/><path d="m-448 576h192-64-96z"/><path d="m-520 561 72 15z"/><path d="m-1141 245 83 56z"/><path d="m-1197 162 56 83z"/><path d="m-1141-117-56 83z"/><path d="m-1216 64 19 98z"/><path d="m-1197-34-19 98z"/><path d="m-583 519 63 42z"/><path d="m-256 576 24-5z"/><path d="m-256-128v128z"/><path d="m-640 320v64z"/><path d="m-625 456 42 63z"/><path d="m-192 320v160 32z"/><path d="m-197 536 5-24z"/><path d="m-640 384 15 72z"/><path d="m-232 571 21-14z"/><path d="m-211 557 14-21z"/><path d="m-1058-173-83 56z"/><path d="m-1021.5153-180.0736-36.4847 7.0736z"/><path d="m-1021.5153 308.0735-36.4847-7.0735z"/><path d="m-1058 301 36.4847 7.0735z"/></g><g id="c"><path d="m-520 561 72 15z"/><path d="m-1141 245 83 56z"/><path d="m-1176.759 192-20.241-30 56 83z"/><path d="m-1141-117-56 83z"/><path d="m-1216 64 19 98z"/><path d="m-1197.3877-32 .3877-2-19 98z"/><path d="m-583 519 63 42z"/><path d="m192-384v64-36z"/><path d="m192-284v-36 64z"/><path d="m192-160v32z"/><path d="m192-128v28-12-16-16-16z"/><path d="m192 0v-16-12z"/><path d="m192 0v-28-4z"/><path d="m192-284v12h64v-12z"/><path d="m256-356v-12h-64v12z"/><path d="m192-28v12h64v-12z"/><path d="m256-100v-12h-64v12z"/><path d="m101.1014-384h10.3986l-7.5-5-21-14-31.4242-20.9495-20.6374 39.9495z"/><path d="m101.1014-384h-70.163l-75.9384 147 21-14 78.2362-52.1575z"/><path d="m69-424-9.8024-14.7036-7.6218 14.7541 31.4242 20.9495z"/><path d="m64-448-4.8024 9.2964 9.8024 14.7036z"/><path d="m104-389 7.5 5h16.5z"/><path d="m0-256 30.5934-6.3736 23.6428-40.7839-78.2362 52.1575z"/><path d="m0-256 24 5 6.5934-11.3736z"/><path d="m64 64-5.9146-28.3902-27.5531-132.255-54.5323-36.3548-8-5.3333v74.8333l81.8571 122.7857 19.1429 28.7143z"/><path d="m24-133-24 5 30.5934 6.3736z"/><path d="m0-128-24-5 54.5323 36.3548 23.7039 15.8027-23.6428-40.7839z"/><path d="m101.1014 0-46.8652-80.8425-23.7039-15.8027 27.5531 132.255 13.7372-9.1582 11.1774-7.4516 21-14z"/><path d="m-32-63.5v16.8333 78.6667l32 10.6667 49.8571 16.619z"/><path d="m-32-46.6667-195.6098 40.7521 16.6098 24.9146 8.6667 13h148.6666 21.6667z"/><path d="m-243.4286-2.619 15.8188-3.2956 195.6098-40.7521v-16.8333-74.8333l-13-8.6667-19.5-13h-117.1667l-12.7849 19.1774-61.5484 92.3226v48.5z"/><path d="m-53.6667-160h-10.8333l19.5 13z"/><path d="m-199.8226-154.4516-3.2119 15.4171 8.5829-1.7881 12.7849-19.1774h-17z"/><path d="m-211-147 11.1774-7.4516 1.1559-5.5484h-3.6666z"/><path d="m-211-147-21 14 28.9655-6.0345 3.2119-15.4171z"/><path d="m-256-48.5 61.5484-92.3226-8.5829 1.7881-28.9655 6.0345-24 5z"/><path d="m-480-384h-96-64l-64 13.3333v114.6667h47.5 16.5 160z"/><path d="m-416-256h160v-128h-64-32-128v128z"/><path d="m83 19-11.1774 7.4516-2.8226 13.5484z"/><path d="m104 5 24-5h-26.8986z"/><path d="m0 42.6667v58.6666l90.4516 18.8441-7.4516-11.1774-14-21-19.1429-28.7143z"/><path d="m-24 123 24 5v-26.6667-58.6666l-32-10.6667h-21.6667l-5.3333 8-5 24 5 24 14 21z"/><path d="m104 123-13.5484-2.8226-90.4516-18.8441v26.6667h64 45.7143z"/><path d="m90.4516 120.1774 13.5484 2.8226-21-14z"/><path d="m64 64 5-24 2.8226-13.5484-13.7372 9.1582z"/><path d="m128 240v-96l-18.2857-16h-45.7143v141.3333l26.4516-5.5107 13.5484-2.8226z"/><path d="m64 269.3333v34.1667l5-7.5 14-21 7.4516-11.1774z"/><path d="m104 261-13.5484 2.8226-7.4516 11.1774z"/><path d="m64 303.5v16.5l5-24z"/><path d="m-232 5 21 14-16.6098-24.9146-15.8188 3.2956z"/><path d="m-192 480v-160l-64-64h-59.5555l-4.4445 64v16.5 34.1667 26.6666 82.6667z"/><path d="m-320 576h64l24-5 21-14 14-21 5-24v-32h-128z"/><path d="m-256 256v-128l-24 15-21 42-14 63-.5555 8z"/><path d="m-416 384h-32-16.5-38.6111-136.8889l15 72 42 63 63 42 72 15h32z"/><path d="m-320 480v-82.6667l-64-13.3333h-32v192h96z"/><path d="m-325 344-14 21-7.4516 11.1774 26.4516-5.5107v-34.1667z"/><path d="m-360 379 13.5484-2.8226 7.4516-11.1774z"/><path d="m-173 275-7.0308-12.4521-6.9692 33.4521z"/><path d="m-256 128v128l64 64 5-24 6.9692-33.4521z"/><path d="m-320 336.5v-16.5l-5 24z"/><path d="m-320 397.3333v-26.6666l-26.4516 5.5107-13.5484 2.8226-24 5z"/><path d="m-256 0 24 5-11.4286-7.619z"/><path d="m-704-208.5 5-7.5 14-21-19 12.6667z"/><path d="m-640-256h-16.5l-7.5 5z"/><path d="m-704-192 5-24-5 7.5z"/><path d="m-704-224.3333 19-12.6667 21-14 7.5-5h-47.5z"/><path d="m-736-192h-96-32.3333l-46.0606 69.0909-3.0695 4.6042-36.2033 54.3049-10.3333 15.5v16.5h31.5 122.1 70.4z"/><path d="m-704-32v-128-32h-32v160z"/><path d="m-736-192h32v-16.5-15.8333-31.6667-114.6667l-8 1.6667-63 42-42 63-15 72z"/><path d="m-936-133 13.5484-2.8226 7.4516-11.1774z"/><path d="m-922.4516-135.8226-13.5484 2.8226-24 5 46.5366 9.6951 3.0695-4.6042 3.3594-16.1254z"/><path d="m-960-48.5 10.3333-15.5-10.3333-15.5z"/><path d="m-960-79.5 10.3333 15.5 36.2033-54.3049-46.5366-9.6951z"/><path d="m-864.3333-192h-31.6667l-5 24-6.0345 28.9655-3.3594 16.1254z"/><path d="m-915-147-7.4516 11.1774 15.4171-3.2119 6.0345-28.9655z"/><path d="m-512 320-10-72-28-63-42-42-48-15v48.5 79.5 47.5 16.5 32h132.4445z"/><path d="m-640 352v32h136.8889l-3.9399-28.3673-.5045-3.6327z"/><path d="m-640 176.5v-48.5l-24-5-13.5484-2.8226z"/><path d="m-704 64v16.5l5 7.5z"/><path d="m-704 256h16.5 15.8333 31.6667v-79.5l-37.5484-56.3226-7.4516-11.1774-14-21-5-7.5z"/><path d="m-685 109 7.4516 11.1774 13.5484 2.8226z"/><path d="m-947.4286-2.619 35.9877-7.4975 105.0409-21.8835h-122.1l-31.5 21v11z"/><path d="m-704 80.5v-16.5h-160v64 128h160z"/><path d="m-864 64h160v-96h-32-70.4l-105.0409 21.8835 7.6183 36.5681 2.8226 13.5484 5 24z"/><path d="m-680 261-7.5-5h-16.5z"/><path d="m-680 261 21 14-12.6667-19h-15.8333z"/><path d="m-659 275 14 21 5 7.5v-47.5h-31.6667z"/><path d="m-640 320v-16.5l-5-7.5z"/><path d="m-448 384-24-5 7.5 5z"/><path d="m-464.5 384-7.5-5-21-14-11.1774-7.4516-2.8736-1.9157 3.9399 28.3673z"/><path d="m-507 344 2.8226 13.5484 11.1774 7.4516z"/><path d="m-507 344-5-24 4.4445 32 .5045 3.6327 2.8736 1.9157z"/><path d="m-936 5-11.4286-7.619-12.5714 2.619z"/><path d="m-936 5 21 14 11.1774 7.4516-7.6183-36.5681-35.9877 7.4975z"/><path d="m-936 123 13.5484-2.8226 7.4516-11.1774z"/><path d="m-922.4516 120.1774-13.5484 2.8226-24 5h50.6667l2.2988-11.0345z"/><path d="m-960-11 31.5-21h-31.5z"/><path d="m-864 64h-32l-5 24-6.0345 28.9655-2.2988 11.0345h45.3333z"/><path d="m-915 109-7.4516 11.1774 15.4171-3.2119 6.0345-28.9655z"/><path d="m-901 40-2.8226-13.5484-11.1774-7.4516z"/><path d="m-960 256 46.5366-9.6951-46.5366-69.8049z"/><path d="m-913.4634 246.3049 6.4634 9.6951h43v-128h-45.3333-50.6667v48.5z"/><path d="m-912 256h5l-6.4634-9.6951-46.5366 9.6951z"/><path d="m-256-384v128z"/><path d="m30.9384-384 20.6374-39.9495 7.6218-14.7541 4.8024-9.2964-96 185.8349-3.1848 6.1651-9.8152 19z"/><path d="m-384 64h-64-64z"/><path d="m128 0h64-90.8986z"/><path d="m-320-128v96 32z"/><path d="m64 128h-64z"/><path d="m64 303.5v-34.1667-141.3333 13.3333 178.6667z"/><path d="m-24 350-21-7z"/><path d="m-256 576 24-5z"/><path d="m-384-192h-11-37.5-31-48.5z"/><path d="m-896-192h31.6667 32.3333-32z"/><path d="m-832-192 15-72-1.6667 8z"/><path d="m-817-264 42-63z"/><path d="m-211-237-21-14z"/><path d="m128-384h64z"/><path d="m59-216-14-21z"/><path d="m64-192-5-24z"/><path d="m83-403 21 14z"/><path d="m104-389 24 5-12.2461-2.5513z"/><path d="m64-448-10-24z"/><path d="m54-472-28-21z"/><path d="m-16-507-48-5z"/><path d="m-154-493-28 21z"/><path d="m26-493-42-14z"/><path d="m-112-507-42 14z"/><path d="m-182-472-10 24z"/><path d="m-64-512-48 5z"/><path d="m-232-389 21-14z"/><path d="m-211-403 14-21z"/><path d="m-197-424 5-24z"/><path d="m0-256-24 5z"/><path d="m-45-237-14 21z"/><path d="m-59-216-5 24z"/><path d="m-232-251-24-5z"/><path d="m-192-192-5-24z"/><path d="m-197-216-14-21z"/><path d="m-320-384h-32z"/><path d="m-416-256h-64-160 64 16.5 60.8333z"/><path d="m-712-369 8-1.6667 64-13.3333z"/><path d="m-775-327 63-42z"/><path d="m-699-216-5 24z"/><path d="m-664-251-21 14z"/><path d="m-685-237-14 21z"/><path d="m59-168 5-24z"/><path d="m45-147 14-21z"/><path d="m-64-192 5 24z"/><path d="m24-133 21-14-8.2441 5.4961z"/><path d="m-32-138.3333 8 5.3333-21-14z"/><path d="m-59-168 5.3333 8 8.6667 13z"/><path d="m-24-133 24 5z"/><path d="m69 40-5 24z"/><path d="m128 0-24 5 11.7539-2.4487z"/><path d="m104 5-21 14z"/><path d="m69 88 14 21z"/><path d="m83 109 21 14z"/><path d="m64 64 5 24z"/><path d="m104 123 5.7143 5 18.2857 16z"/><path d="m69 296-5 24z"/><path d="m83 275-14 21z"/><path d="m104 261-21 14z"/><path d="m-128 256 16 3.3333 8 1.6667z"/><path d="m64 320-5 12z"/><path d="m-64 320-5-24z"/><path d="m59 332-14 11z"/><path d="m-64 320 5 12z"/><path d="m45 343-21 7z"/><path d="m0 352-24-2z"/><path d="m24 350-24 2z"/><path d="m-59 332 14 11z"/><path d="m-83 275-21-14z"/><path d="m-69 296-14-21z"/><path d="m-256-48.5v-79.5 128z"/><path d="m-211-147 8.6667-13 5.3333-8z"/><path d="m-197-168 5-24z"/><path d="m-232-133 21-14z"/><path d="m-344-133 24 5z"/><path d="m-379-168 14 21z"/><path d="m-365-147 21 14z"/><path d="m-320 0-24 5z"/><path d="m-197 88 5-24z"/><path d="m-344 5-21 14z"/><path d="m-232 5-24-5z"/><path d="m-232 123 21-14z"/><path d="m-192 64-5-24z"/><path d="m-211 109 14-21z"/><path d="m-211 19-21-14z"/><path d="m-197 40-5.3333-8-8.6667-13z"/><path d="m-379 40-5 24z"/><path d="m-365 19-14 21z"/><path d="m-576-128v117 11z"/><path d="m-531 19-21-14z"/><path d="m-531-147 14-21z"/><path d="m-552-133 21-14z"/><path d="m-517-168 5-24z"/><path d="m-517 40-14-21z"/><path d="m-552 5-24-5z"/><path d="m-704-160v128 96-205.3333z"/><path d="m-699 88-1.1111-5.3333-3.8889-18.6667z"/><path d="m-685 109-14-21z"/><path d="m-664 123-21-14z"/><path d="m-640 128-24-5z"/><path d="m-901-168 5-24z"/><path d="m-936-133 21-14z"/><path d="m-915-147 14-21z"/><path d="m-936 5-24-5z"/><path d="m-901 40-14-21z"/><path d="m-915 19-21-14z"/><path d="m-915 109-21 14z"/><path d="m-936 123-24 5z"/><path d="m-901 88-14 21z"/><path d="m-896 64-5 24z"/><path d="m-152 261-21 14z"/><path d="m-640 352v-32 64z"/><path d="m-625 456 42 63z"/><path d="m-173 275-14 21z"/><path d="m-187 296-5 24z"/><path d="m-448 384h32 32z"/><path d="m-522 248 10 72-8.8889-64z"/><path d="m-360 379 21-14z"/><path d="m-472 379-21-14z"/><path d="m-339 365 14-21z"/><path d="m-507 344-5-24z"/><path d="m-384 384 24-5z"/><path d="m-448 384-24-5z"/><path d="m-315 248 14-63z"/><path d="m-320 320 4.4445-64 .5555-8z"/><path d="m-301 185 21-42z"/><path d="m-280 143 24-15z"/><path d="m-325 344 5-24z"/><path d="m-493 365-14-21z"/><path d="m-592 143 42 42-41-41z"/><path d="m-550 185 28 63z"/><path d="m-197 536 5-24z"/><path d="m-640 384 15 72z"/><path d="m-232 571 21-14z"/><path d="m-211 557 14-21z"/><path d="m-704 256h-160z"/><path d="m-645 296-14-21z"/><path d="m-680 261-24-5z"/><path d="m-659 275-21-14z"/><path d="m-1005 275-11.1774 7.4516-2.8226 13.5484z"/><path d="m-983.0016 260.792-.0838-.4017-.9146.6097z"/><path d="m-997.3333 192-18.8441 90.4516 11.1774-7.4516 21-14 .9146-.6097z"/><path d="m-960 128h-16.5-15.8333l32.3333 48.5z"/><path d="m-1019 88-5-24-2.619-12.5714-17.381-83.4286h-153.3877l-18.6123 96 19 98 20.241 30h179.4257z"/><path d="m-1176.759 192 35.759 53 83 56 36.4847 7.0735 2.5153-12.0735 2.8226-13.5484 18.8441-90.4516z"/><path d="m-992.3333 128-12.6667-19-14-21 21.6667 104 14.2479 68.3903.0838.4017 23.0016-4.792v-79.5z"/><path d="m-1019 40 14-21 34-51h-19.6667-53.3333l17.381 83.4286z"/><path d="m-1024 64 5-24-7.619 11.4286z"/><path d="m-976.5 128-7.5-5-21-14 12.6667 19z"/><path d="m-960 128-24-5 7.5 5z"/><path d="m-971-32-34 51 21-14 24-16v-21z"/><path d="m-960-11-24 16 24-5z"/><path d="m-984-133-13.5484-2.8226 37.5484 56.3226v-48.5z"/><path d="m-997.5484-135.8226-7.4516-11.1774-14-21 28.3333 136h19.6667l11-16.5v-31z"/><path d="m-1005-147 7.4516 11.1774 13.5484 2.8226z"/><path d="m-1141-117-56 83-.3877 2h153.3877 53.3333l-28.3333-136-2.5153-12.0736-36.4847 7.0736z"/><path d="m-960-48.5-11 16.5h11z"/><path d="m-1058-173-83 56z"/><path d="m-1005 19-14 21z"/><path d="m-984 5-21 14z"/><path d="m-960 0-24 5z"/><path d="m-984-133-21-14z"/><path d="m-960-128-24-5z"/><path d="m-1005-147-14-21z"/><path d="m-984 123 24 5z"/><path d="m-1005 109 21 14z"/><path d="m-1005 275 21-14z"/><path d="m-1019 296-2.5153 12.0735z"/><path d="m-1019 296 14-21z"/><path d="m-983.0016 260.792-.9984.208 24-5z"/><path d="m-1019 88 14 21z"/><path d="m-1024 64 5 24z"/><path d="m-616-256v-128h16v128z"/><path d="m-616-384h16z"/><path d="m-600-256h-16z"/><path d="m-600-384v128z"/><path d="m-616-256v-128z"/><path d="m192-32v-32z"/><path d="m256-160h-64z"/><path d="m-501-192h117-128z"/><path d="m-576-128v128z"/><path d="m-517-168-14 21z"/><path d="m-379-168-5-24z"/><path d="m-344-133-21-14z"/><path d="m-365-147-14-21z"/><path d="m-320-128-24-5z"/><path d="m-336.5-128h16.5l-24-5z"/><path d="m-379-168 2.8226 13.5484 11.1774 7.4516z"/><path d="m-370.6667-128h34.1667l-7.5-5-21-14-11.1774-7.4516z"/><path d="m-512-128h141.3333l-5.5107-26.4516-2.8226-13.5484-5-24h-117l-16 24-14 21-7.4516 11.1774-5.2151 7.8226z"/><path d="m-517-168 16-24h-11z"/><path d="m-552-133 13.5484-2.8226 7.4516-11.1774z"/><path d="m-552-133-24 5h32.3333l5.2151-7.8226z"/><path d="m-552-133-24 5z"/><path d="m-512-192-5 24z"/><path d="m-531-147-21 14z"/><path d="m-498.6667 0h50.6667 80.5 31 16.5-192z"/><path d="m-512-128h-31.6667-32.3333v128h64z"/><path d="m-512 0h-64l24 5 50.1165 10.4409 3.2168-15.4409z"/><path d="m-517 40 5 24 5.9146-28.3902-13.7372-9.1582z"/><path d="m-517 40-2.8226-13.5484-11.1774-7.4516z"/><path d="m-531 19 11.1774 7.4516 13.7372 9.1582 4.2019-20.1689-50.1165-10.4409z"/><path d="m-448 53.6667v-53.6667h-50.6667l-3.2168 15.4409-4.2019 20.1689-5.9146 28.3902h64z"/><path d="m-365 19-11.1774 7.4516-2.8226 13.5484z"/><path d="m-448 64h64l5-24 2.8226-13.5484 5-24-76.8226 51.2151z"/><path d="m-448 53.6667 76.8226-51.2151 3.6774-2.4516h-80.5z"/><path d="m-365 19 21-14 7.5-5h-31l-3.6774 2.4516-5 24z"/><path d="m-320 0h-16.5l-7.5 5z"/><path d="m-531 19 14 21z"/><path d="m-384 64 5-24z"/><path d="m-344 5 24-5z"/><path d="m-365 19 21-14z"/><path d="m-379 40 14-21z"/><path d="m-517 40 5 24z"/><path d="m-576 0 24 5z"/><path d="m-552 5 21 14z"/><path d="m192-320v-64 128z"/><path d="m192-256v32z"/><path d="m192-32v-32-64z"/><path d="m192-64v-36-28z"/><path d="m256-320v-36h-64v36z"/><path d="m192-320v36h64v-36z"/><path d="m256-64v-36h-64v36z"/><path d="m256-64h-64v32 4h64z"/><path d="m-53.6667-160-5.3333-8z"/><path d="m-53.6667-160h-138.3333-10.3333z"/><path d="m-202.3333-160h3.6666 17 117.1667 10.8333z"/><path d="m-202.3333-160 5.3333-8z"/><path d="m-320-32v-96 32 16 32z"/><path d="m-53.6667 32-5.3333 8z"/><path d="m-202.3333 32h10.3333 127.5 10.8333z"/><path d="m-202.3333 32h148.6666z"/><path d="m-512-32v-96 128z"/><path d="m-320-32v32z"/><path d="m-320-48v-32z"/><path d="m-320-96v-32z"/><path d="m-512-32v32z"/><path d="m-512-48v-32-16-32 96z"/><path d="m-512-80v32z"/><path d="m-320-48h-192z"/><path d="m-320-80v-16h-192v16z"/><path d="m-320-96h-192z"/><path d="m-320-32v-16h-192v16z"/><path d="m192-160v-8z"/><path d="m192-216v-8z"/><path d="m256-216v-8h-64v8z"/><path d="m192-168v8h64v-8z"/><path d="m-192-192-5-24z"/><path d="m-576-96v64z"/><path d="m-32 0v-127.5-10.8333 10.8333 95.5 42.3333z"/><path d="m-32-127.5-.3333-.5-12.6667-19 13 8.6667z"/><path d="m-32-138.3333-13-8.6667z"/><path d="m-320-128h-16.5-34.1667-141.3333z"/><path d="m-320-128h-192-32 96z"/><path d="m-256-128 24-5 13.5484-2.8226 26.4516-5.5107v13.3333z"/><path d="m-211-147 8.6667-13h10.3333v18.6667l-26.4516 5.5107z"/><path d="m-211-147-7.4516 11.1774-13.5484 2.8226z"/><path d="m-192-141.3333v-18.6667h138.3333l8.6667 13 12.6667 19h-159.6667z"/><path d="m-192-192-5 24z"/><path d="m-256 0h-64z"/><path d="m-320-32v-16-32-16-32h64v128h-64z"/><path d="m-32.3333-128 .3333.5v127.5h-.3333-159.6667v-128z"/><path d="m-256-128h64v128h-64z"/><path d="m-32 0v10.3333l-13 8.6667 12.6667-19z"/><path d="m-59 40-5 24z"/><path d="m-192 0v13.3333l-40-8.3333-24-5z"/><path d="m-45 19-19.5 13h-127.5v-.3333-18.3334-13.3333h159.6667z"/><path d="m-53.6667 32h-10.8333l19.5-13z"/><path d="m-202.3333 32-8.6667-13 19 12.6667v.3333z"/><path d="m-211 19-21-14 40 8.3333v18.3334z"/><path d="m-197 40-5.3333-8z"/><path d="m-197 40 5 24z"/><path d="m-320-96v16h-192v-16z"/><path d="m-320-48v16h-192v-16z"/><path d="m-544-16v-16-64-16-16h32v32 16 32 16 32h-32z"/><path d="m-560-96h16v64h-16z"/><path d="m-576-32v-64h16v64z"/><path d="m-560-32h16z"/><path d="m-560-96h-16z"/><path d="m-512-128v32z"/><path d="m-320-80h-192z"/><path d="m-320-32h-192z"/><path d="m192-192v-24-8z"/><path d="m192-160v-8-24z"/><path d="m192-192v24h64v-24z"/><path d="m256-192v-24h-64v24z"/><path d="m192-256v-128 160z"/><path d="m192-128v-32-32-32z"/><path d="m-576-96v64h16v-64z"/><path d="m-560-32h16v-64h-16z"/><path d="m-576-32h16z"/><path d="m-544-96h-16z"/><path d="m-560-32v-64z"/><path d="m-560-96v64z"/><path d="m-544-112v16 64 16z"/><path d="m-544-112v16z"/><path d="m-544-16v-16z"/></g><g id="d"><path d="m-448-32v-96h-96v16 96 16h96z"/><path d="m-128.5-32 6.2143 4.1429 1.7472 1.1648 56.5385 37.6923 15.5 10.3333 3.5-2.3333 13-8.6667v-42.3333z"/><path d="m-59 40 11.8462-17.7692-1.3462-.8975-15.5-10.3333-9.6951 6.4634 7.0761 33.9652z"/><path d="m-128 53.6667 31.9231-21.2821 22.3818-14.9212 9.6951-6.4634-56.5385-37.6923-76.4615 114.6923-14 21z"/><path d="m-224-6.6667-32 6.6667 24 5 50.1165 10.4409 6.7256-32.283z"/><path d="m-198.6667 32h7.1667l-8.3226-5.5484z"/><path d="m-32 174.6667-211.4286-44.0477-12.5714-2.619 9.96 17.64 133.54 89.0267 20.6905 13.7936 14.9869 9.9913 44.8226 29.8817z"/><path d="m-173 275 21-14 39.5-26.3333-133.54-89.0267z"/><path d="m-104 261 13.5484 2.8226-9.1582-13.7372-28.3902 5.9146z"/><path d="m-59 88-37.0769-55.6154-31.9231 21.2821 83 55.3333z"/><path d="m-59 40-7.619 11.4286 2.619 12.5714z"/><path d="m-32 121.3333v-3.6666l-13-8.6667-83-55.3333-83 55.3333-21 14-11.4286 7.619 211.4286 44.0477z"/><path d="m-256 128 12.5714 2.619 11.4286-7.619z"/><path d="m-191.5 32h-7.1667l1.6667 8 5 24 6.6667-32z"/><path d="m-128 256 28.3902-5.9146 7.8003-1.6251-20.6905-13.7936-39.5 26.3333z"/><path d="m-90.4516 263.8226 7.4516 11.1774 14 21-7.8226-37.5484-14.9869-9.9913-7.8003 1.6251z"/><path d="m-83 275-7.4516-11.1774-13.5484-2.8226z"/><path d="m-198.6667 32-1.1559-5.5484-11.1774-7.4516 14 21z"/><path d="m-211 19 11.1774 7.4516 8.3226 5.5484h6.1667l3.4498-16.5591-50.1165-10.4409z"/><path d="m-120.5385-26.6923-1.7472-1.1648-52.8722 11.015-6.7256 32.283-3.4498 16.5591-6.6667 32-5 24z"/><path d="m-64 64-2.619-12.5714-7.0761-33.9652-22.3818 14.9212 37.0769 55.6154z"/><path d="m-48.5 21.3333 1.3462.8975 2.1538-3.2308z"/><path d="m-256-32h-192v32h128 64l32-6.6667v-25.3333z"/><path d="m-224-6.6667 48.8421-10.1754 52.8722-11.015-6.2143-4.1429h-95.5z"/><path d="m-24 350 24 2 24-2 21-7 2.2951-1.8033-79.2951-52.8634-44.8226-29.8817 7.8226 37.5484 5 24 5 12 14 11z"/><path d="m64 141.3333v-13.3333h-64z"/><path d="m-32 121.3333 8 1.6667-8-5.3333z"/><path d="m64 141.3333-64-13.3333-24-5-8-1.6667v53.3334 113.6666l79.2951 52.8634 11.7049-9.1967 5-12z"/><path d="m-256-32v-96h-64-128v96z"/><path d="m-64-192 5-24 2.8226-13.5484-13.7372 9.1582z"/><path d="m-69.9146-220.3902 13.7372-9.1582 11.1774-7.4516 9.8152-19h-42.1485z"/><path d="m-59.6098-168.9146.6098.9146-5-24-5.9146-28.3902-7.4187-35.6098h-40.3334z"/><path d="m-186.0854-220.3902-5.9146 28.3902-5 24 58.6667-88h-40.3334z"/><path d="m-197-216 5 24 5.9146-28.3902-13.7372-9.1582z"/><path d="m-197-216-2.8226-13.5484-11.1774-7.4516z"/><path d="m-232-133 13.5484-2.8226 7.4516-11.1774z"/><path d="m-32-127.5v-10.8333l-13-8.6667z"/><path d="m-239.5-384h-16.5v128h16.5 60.8333 40.3334 20.6666 40.3334 42.1485l3.1848-6.1651v-121.8349z"/><path d="m-256-256 24 5-7.5-5z"/><path d="m-232-251 21 14 11.1774 7.4516 13.7372 9.1582 7.4187-35.6098h-60.8333z"/><path d="m-224-32h95.5 96.5v-95.5l-13-19.5-14-21-.6098-.9146-158.8418 33.092-13.5484 2.8226-24 5v96z"/><path d="m-59.6098-168.9146-58.0569-87.0854h-20.6666l-58.6667 88-14 21-7.4516 11.1774z"/><path d="m-45-237-11.1774 7.4516-2.8226 13.5484z"/><path d="m-197-424-14 21 67.5-45h-37.5z"/><path d="m-197-424 16-24h-11z"/><path d="m-256-384h16.5l7.5-5z"/><path d="m-32-384v-64h-111.5l-67.5 45-21 14-7.5 5z"/><path d="m32-488.5-6-4.5-42-14-48-5-48 5-42 14-28 21-10 24h11 37.5 111.5 64z"/><path d="m64-448-10-24-22-16.5v40.5z"/><path d="m64-448h-32-64v64 121.8349z"/><path d="m101.1014-384h90.8986z"/><path d="m192-384v88 72z"/><path d="m192-224v224-32-96z"/><path d="m-211-237-21-14z"/><path d="m-45-237-14 21z"/><path d="m192-384h-64-16.5-10.3986z"/><path d="m24-251 21 14z"/><path d="m101.1014-384-46.8652 80.8425-23.6428 40.7839-6.5934 11.3736z"/><path d="m-59-216-5 24z"/><path d="m59-216 5 24z"/><path d="m45-237 14 21z"/><path d="m-192-448-5 24z"/><path d="m64-448-10-24z"/><path d="m-154-493-28 21z"/><path d="m-16-507-48-5z"/><path d="m-112-507-42 14z"/><path d="m26-493-42-14z"/><path d="m-64-512-48 5z"/><path d="m32-488.5 22 16.5-28-21z"/><path d="m-182-472-10 24z"/><path d="m-211-403-21 14z"/><path d="m-232-389-24 5z"/><path d="m-197-424-14 21z"/><path d="m-232-251-24-5z"/><path d="m-197-216-14-21z"/><path d="m24-133 6.5934 11.3736 23.6428 40.7839 46.8652 80.8425z"/><path d="m59-168-14 21z"/><path d="m64-192-5 24z"/><path d="m45-147-21 14z"/><path d="m-45-147-8.6667-13-5.3333-8z"/><path d="m-64-192 5 24z"/><path d="m-256-128h-64z"/><path d="m-197-168-5.3333 8-8.6667 13z"/><path d="m-232-133-24 5z"/><path d="m-211-147-21 14z"/><path d="m-197-168 5-24z"/><path d="m-47.1538 22.2308-11.8462 17.7692 5.3333-8 8.6667-13z"/><path d="m-45 19 13-8.6667z"/><path d="m-256 0 24 5z"/><path d="m-211 19 8.6667 13 5.3333 8z"/><path d="m-192 64-5-24z"/><path d="m-232 5 21 14z"/><path d="m-544-112v96z"/><path d="m-544-128v16z"/><path d="m-544-16v16z"/><path d="m-320 0h-128-96 32z"/><path d="m-32 117.6667 8 5.3333-21-14z"/><path d="m-64 64 5 24z"/><path d="m0 128-24-5z"/><path d="m-59 88 14 21z"/><path d="m-211 109 14-21z"/><path d="m-197 88 5-24z"/><path d="m-232 123 21-14z"/><path d="m-256 128 24-5z"/><path d="m59 332-11.7049 9.1967-2.2951 1.8033z"/><path d="m-152 261-21 14z"/><path d="m-173 275-73.04-129.36-9.96-17.64 75.9692 134.5479z"/><path d="m45 343-21 7z"/><path d="m-128 256-24 5z"/><path d="m24 350-24 2z"/><path d="m-104 261-24-5z"/><path d="m64 320-5 12z"/><path d="m-83 275-21-14z"/><path d="m-45 343-14-11z"/><path d="m-64 320-5-24z"/><path d="m-59 332-5-12z"/><path d="m0 352-24-2z"/><path d="m-69 296-14-21z"/></g><g id="e"><path d="m101.1014 0h90.8986z"/><path d="m192-224v99.2 92.8 32z"/><path d="m192-384h-90.8986l-70.508 121.6264 50.2487-10.4685 111.1579-23.1579z"/><path d="m45-147 11.1774-7.4516 2.8226-13.5484z"/><path d="m48.5591-117.8835-17.9657-3.7429 51.9573 89.6264h46.534l41.0539-60.5545z"/><path d="m192-32v-92.8l-21.8614 32.2455-41.0539 60.5545z"/><path d="m45-237-10.7234-16.0851-10.2766 2.0851z"/><path d="m24-251 10.2766-2.0851 44.323-8.9931 2.2425-10.7639-50.2487 10.4685z"/><path d="m45-237 14 21 7.619 11.4286 11.9806-57.5068-44.323 8.9931z"/><path d="m78.5996-262.0782-11.9806 57.5068-2.619 12.5714-5 24-2.8226 13.5484-7.6183 36.5681 121.5795 25.329 21.8614-32.2455v-99.2-72l-111.1579 23.1579z"/><path d="m56.1774-154.4516-11.1774 7.4516-21 14 6.5934 11.3736 17.9657 3.7429z"/><path d="m64-192 2.619-12.5714-7.619-11.4286z"/><path d="m129.0847-32h-46.534l18.5507 32h90.8986v-32z"/><path d="m30.5934-262.3736 70.508-121.6264-77.1014 133z"/><path d="m59-216 5 24z"/><path d="m82.5507-32-51.9573-89.6264-6.5934-11.3736 77.1014 133z"/><path d="m24-251 21 14z"/><path d="m64-192-5 24z"/><path d="m45-237 14 21z"/><path d="m45-147-21 14z"/><path d="m59-168-14 21z"/></g></defs><g stroke="#000"><use fill="none" stroke-miterlimit="0" stroke-width="10" xlink:href="#a"/><use fill="#c2c2c2" xlink:href="#a"/><use fill="none" stroke-miterlimit="0" stroke-width="10" xlink:href="#b"/><use fill="#d1d1d1" xlink:href="#b"/><use fill="none" stroke-miterlimit="0" stroke-width="10" xlink:href="#c"/><use fill="#e0e0e0" xlink:href="#c"/><use fill="none" stroke-miterlimit="0" stroke-width="10" xlink:href="#d"/><use fill="#f0f0f0" xlink:href="#d"/><use fill="none" stroke-miterlimit="0" stroke-width="10" xlink:href="#e"/><use fill="#fff" xlink:href="#e"/></g></svg>