<?xml version="1.0" encoding="utf-8" ?>
<svg baseProfile="tiny" height="100%" version="1.2" viewBox="-288.0 -544.0 832.0 576.0" width="100%" xmlns="http://www.w3.org/2000/svg" xmlns:ev="http://www.w3.org/2001/xml-events" xmlns:xlink="http://www.w3.org/1999/xlink"><defs><g id="bsp_ref"><polygon points="-240,-192 -224,-192 -32,-192 -32,-32 -32,-16 -240,-16" /><polygon points="-32,-32 -13.2547,-32 -29.2547,-16 -32,-16" /><polygon points="-224,-192 -240,-192 -240,-194.7453 -224,-210.7453" /><polygon points="-240,-256 -224,-256 -224,-237.2548 -240,-253.2548" /><polygon points="-240,-477.2548 -240,-496 -32,-496 -32,-480 -32,-320 -32,-256 -224,-256 -240,-256" /><polygon points="0,-301.2547 0,-274.7452 0,-256 -32,-256 -32,-320 0,-320" /><polygon points="64,-256 45.2547,-256 64,-274.7453" /><polygon points="18.7452,-256 0,-256 0,-274.7452" /><polygon points="45.255,-320 64,-320 64,-301.255" /><polygon points="0,-301.2547 0,-320 18.7453,-320" /><polygon points="-32,-496 -29.2549,-496 -13.2548,-480 -32,-480" /><polygon points="192,-320 64,-320 45.255,-320 18.7453,-320 0,-320 -32,-320 -32,-480 -13.2548,-480 13.2548,-480 192,-480" /><polygon points="224,-384 224,-320 192,-320 192,-480 224,-480" /><polygon points="416,-32 496,-32 496,-16 317.2548,-16 301.2548,-32" /><polygon points="237.2547,-16 29.2547,-16 13.2547,-32 192,-32 237.2547,-32" /><polygon points="274.7453,-32 258.7453,-16 237.2547,-16 237.2547,-32" /><polygon points="192,-32 13.2547,-32 -13.2547,-32 -32,-32 -32,-192 0,-192 192,-192" /><polygon points="416,-32 301.2548,-32 274.7453,-32 237.2547,-32 192,-32 192,-192 224,-192 416,-192" /><polygon points="448,-192 480,-192 496,-192 496,-32 416,-32 416,-192" /><polygon points="256,-346.5097 256,-384 293.4904,-384" /><polygon points="384,-293.4903 384,-346.5096 384,-384 448,-384 496,-384 496,-272 496,-256 480,-256 448,-256 384,-256" /><polygon points="293.4904,-256 256,-256 256,-293.4904" /><polygon points="192,-320 224,-320 256,-320 256,-293.4904 256,-256 224,-256 64,-256 64,-274.7453 64,-301.255 64,-320" /><polygon points="480,-237.2548 480,-256 496,-256 496,-253.2548" /><polygon points="496,-192 480,-192 480,-210.7453 496,-194.7453" /><polygon points="0,-192 -32,-192 -224,-192 -224,-210.7453 -224,-237.2548 -224,-256 -32,-256 0,-256" /><polygon points="224,-192 192,-192 0,-192 0,-256 18.7452,-256 45.2547,-256 64,-256 224,-256" /><polygon points="448,-192 416,-192 224,-192 224,-256 256,-256 293.4904,-256 346.5097,-256 384,-256 448,-256" /><polygon points="480,-256 480,-237.2548 480,-210.7453 480,-192 448,-192 448,-256" /><polygon points="384,-256 346.5097,-256 384,-293.4903" /><polygon points="224,-384 256,-384 256,-346.5097 256,-320 224,-320" /><polygon points="346.5096,-384 384,-384 384,-346.5096" /><polygon points="496,-496 496,-480 448,-480 269.2548,-480 285.2548,-496" /><polygon points="226.7452,-496 242.7452,-480 224,-480 192,-480 13.2548,-480 29.2548,-496" /><polygon points="448,-384 384,-384 346.5096,-384 293.4904,-384 256,-384 224,-384 224,-480 242.7452,-480 269.2548,-480 448,-480" /><polygon points="496,-480 496,-384 448,-384 448,-480" /><polygon points="496,-32 496,-192 496,-194.7453 496,-194.7453 496,-16 496,-16 496,-16" /><polygon points="-32,-16 -29.2547,-16 -29.2547,-16 -181.4904,-16 -240,-16 -240,-16" /><polygon points="496,-16 496,-16 317.2548,-16 317.2548,-16" /><polygon points="237.2547,-16 258.7453,-16 258.7453,-16 50.7453,-16 29.2547,-16 29.2547,-16" /><polygon points="256,-293.4902 256,-293.4904 256,-320 256,-346.5097 256,-346.5097" /><polygon points="384,-346.5096 384,-346.5096 384,-293.4903 384,-293.4903" /><polygon points="346.5097,-256 346.5097,-256 293.4904,-256 293.4901,-256" /><polygon points="293.4904,-384 293.4904,-384 346.5096,-384 346.5097,-384" /><polygon points="293.4901,-256 293.4904,-256 256,-293.4904 256,-293.4902" /><polygon points="256,-346.5097 256,-346.5097 293.4904,-384 293.4904,-384" /><polygon points="346.5097,-384 346.5096,-384 384,-346.5096 384,-346.5096" /><polygon points="384,-293.4903 384,-293.4903 346.5097,-256 346.5097,-256" /><polygon points="0,-274.745 0,-274.7452 0,-301.2547 0,-301.2548" /><polygon points="45.2548,-256 45.2547,-256 18.7452,-256 18.7452,-256" /><polygon points="64,-301.2548 64,-301.255 64,-274.7453 64,-274.7452" /><polygon points="18.7452,-320 18.7453,-320 45.255,-320 45.2548,-320" /><polygon points="64,-274.7452 64,-274.7453 45.2547,-256 45.2548,-256" /><polygon points="18.7452,-256 18.7452,-256 0,-274.7452 0,-274.745" /><polygon points="0,-301.2548 0,-301.2547 18.7453,-320 18.7452,-320" /><polygon points="45.2548,-320 45.255,-320 64,-301.255 64,-301.2548" /><polygon points="496,-16 496,-16 480,-16 317.2548,-16 317.2548,-16" /><polygon points="317.2548,-16 317.2548,-16 301.2546,-32 301.2548,-32 317.2548,-16" /><polygon points="496,-496 496,-480 496,-272 496,-272 496,-384 496,-480 496,-496" /><polygon points="-240,-32 -240,-194.7453 -240,-194.7453 -240,-192 -240,-16 -240,-16" /><polygon points="-240,-253.2548 -240,-256 -240,-477.2548 -240,-477.2548 -240,-256 -240,-253.2548" /><polygon points="-240,-477.2548 -240,-480 -240,-496 -240,-496 -240,-477.2548" /><polygon points="-181.4904,-496 -29.2549,-496 -29.2549,-496 -32,-496 -240,-496 -240,-496" /><polygon points="226.7452,-496 226.7452,-496 29.2548,-496 29.2548,-496" /><polygon points="285.2548,-496 496,-496 496,-496 285.2548,-496" /><polygon points="496,-16 480,-32 480,-16" /><polygon points="-29.2549,-496 -13.2549,-480 -13.2548,-480 -29.2549,-496" /><polygon points="496,-496 480,-480 496,-480" /><polygon points="226.7452,-496 242.7448,-480 242.7452,-480 226.7452,-496" /><polygon points="29.2547,-16 13.2548,-32 13.2547,-32 29.2547,-16" /><polygon points="258.7453,-16 274.7451,-32 50.7453,-32 50.7453,-16" /><polygon points="-240,-194.7453 -224,-210.7452 -224,-210.7453 -240,-194.7453" /><polygon points="-181.4904,-496 -240,-496 -224,-480 -197.4904,-480" /><polygon points="-240,-256 -240,-253.2548 -224,-237.2548 -224,-256" /><polygon points="-29.2547,-16 -13.2548,-32 -197.4904,-32 -181.4904,-16" /><polygon points="-240,-32 -240,-16 -224,-32" /><polygon points="496,-272 496,-256 496,-253.2548 496,-253.2548 496,-256 496,-272" /><polygon points="496,-253.2548 480,-237.2549 480,-237.2548 496,-253.2548" /><polygon points="496,-194.7453 480,-210.7454 480,-32 496,-16" /><polygon points="274.7451,-32 258.7453,-16 258.7453,-16 274.7453,-32" /><polygon points="301.2546,-32 274.7451,-32 274.7453,-32 301.2548,-32" /><polygon points="-13.2548,-32 -29.2547,-16 -29.2547,-16 -13.2547,-32" /><polygon points="13.2548,-32 -13.2548,-32 -13.2547,-32 13.2547,-32" /><polygon points="50.7453,-32 13.2548,-32 29.2547,-16 50.7453,-16" /><polygon points="-197.4904,-32 -224,-32 -240,-16 -181.4904,-16" /><polygon points="-13.2549,-480 13.2548,-480 13.2548,-480 -13.2548,-480" /><polygon points="256,-480 242.7448,-480 32,-480 32,-480 242.7448,-480 256,-480" /><polygon points="32,-480 13.2548,-480 -13.2549,-480 -13.2549,-480 13.2548,-480 32,-480" /><polygon points="242.7448,-480 256,-480 269.2548,-480 269.2548,-480 242.7452,-480" /><polygon points="13.2548,-480 29.2548,-496 29.2548,-496 13.2548,-480" /><polygon points="269.2548,-480 285.2548,-496 285.2548,-496 269.2548,-480" /><polygon points="32,-480 242.7448,-480 226.7452,-496 29.2548,-496 13.2548,-480" /><polygon points="480,-480 496,-496 285.2548,-496 269.2548,-480" /><polygon points="480,-480 480,-480 480,-256 480,-256" /><polygon points="480,-480 480,-256 496,-256 496,-272 496,-480" /><polygon points="-13.2549,-480 -197.4904,-480 -224,-480 -13.2549,-480" /><polygon points="-13.2549,-480 -29.2549,-496 -181.4904,-496 -197.4904,-480" /><polygon points="-197.4904,-480 -224,-480 -224,-480" /><polygon points="-224,-480 -240,-496 -240,-480" /><polygon points="-224,-256 -224,-237.2548 -224,-210.7452 -224,-210.7452 -224,-237.2548 -224,-256" /><polygon points="-224,-210.7452 -224,-237.2548 -224,-237.2548 -224,-210.7453" /><polygon points="-224,-237.2548 -240,-253.2548 -240,-253.2548 -224,-237.2548" /><polygon points="-224,-480 -240,-480 -240,-477.2548 -240,-256 -224,-256" /><polygon points="-224,-210.7452 -224,-32 -224,-32 -224,-210.7452" /><polygon points="-224,-210.7452 -240,-194.7453 -240,-32 -224,-32" /><polygon points="480,-210.7454 496,-194.7453 496,-194.7453 480,-210.7453" /><polygon points="480,-237.2549 480,-210.7454 480,-210.7453 480,-237.2548" /><polygon points="480,-32 480,-32 301.2546,-32 301.2546,-32" /><polygon points="480,-32 301.2546,-32 317.2548,-16 480,-16" /><polygon points="480,-256 480,-237.2549 496,-253.2548 496,-256" /><polygon points="480,-480 496,-480 496,-272 496,-256 480,-256" /><polygon points="301.2546,-32 274.7451,-32 274.7451,-32 301.2546,-32" /><polygon points="274.7451,-32 50.7453,-32 50.7453,-32 274.7451,-32" /><polygon points="50.7453,-32 13.2548,-32 -13.2548,-32 -13.2548,-32 13.2548,-32 50.7453,-32" /><polygon points="274.7451,-32 258.7453,-16 50.7453,-16 50.7453,-32" /><polygon points="-13.2548,-32 -29.2547,-16 -240,-16 -224,-32" /><polygon points="-13.2548,-32 -224,-32 -197.4904,-32 -13.2548,-32" /><polygon points="480,-237.2549 480,-210.7454 480,-210.7454 480,-237.2549" /><polygon points="480,-210.7454 480,-32 480,-32 480,-210.7454" /><polygon points="480,-32 496,-16 480,-16" /><polygon points="480,-210.7454 496,-194.7453 496,-16 480,-32" /><polygon points="480,-32 480,-16 317.2548,-16 301.2546,-32" /><polygon points="480,-256 480,-237.2549 480,-237.2549 480,-256" /><polygon points="269.2548,-480 480,-480 480,-480 269.2548,-480 256,-480 256,-480" /><polygon points="-224,-272 -224,-256 -224,-237.2548 -240,-253.2548 -240,-272" /><polygon points="-224,-272 -224,-480 -224,-480 -224,-256 -224,-256" /><polygon points="-224,-32 -224,-32 -197.4904,-32" /><polygon points="50.7453,-16 29.2547,-16 13.2548,-32 50.7453,-32" /><polygon points="496,-480 480,-480 496,-496" /><polygon points="496,-256 496,-253.2548 480,-237.2549 480,-256" /><polygon points="-240,-194.7453 -224,-210.7452 -224,-32 -240,-16" /><polygon points="496,-496 480,-480 269.2548,-480 285.2548,-496" /><polygon points="226.7452,-496 242.7448,-480 32,-480 13.2548,-480 29.2548,-496" /><polygon points="-240,-477.2548 -240,-480 -240,-496 -224,-480 -224,-272 -240,-272" /><polygon points="-29.2549,-496 -13.2549,-480 -224,-480 -240,-496" /><polygon points="256,-293.4902 256,-293.4902 256,-346.5097 256,-346.5097" /><polygon points="384,-346.5096 384,-346.5096 384,-293.4903 384,-293.4903" /><polygon points="346.5097,-256 346.5097,-256 293.4901,-256 293.4901,-256" /><polygon points="293.4904,-384 293.4904,-384 346.5097,-384 346.5097,-384" /><polygon points="293.4901,-256 293.4901,-256 256,-293.4902 256,-293.4902" /><polygon points="256,-346.5097 256,-346.5097 293.4904,-384 293.4904,-384" /><polygon points="346.5097,-384 346.5097,-384 384,-346.5096 384,-346.5096" /><polygon points="384,-293.4903 384,-293.4903 346.5097,-256 346.5097,-256" /><polygon points="0,-274.745 0,-274.745 0,-301.2548 0,-301.2548" /><polygon points="45.2548,-256 45.2548,-256 18.7452,-256 18.7452,-256" /><polygon points="64,-301.2548 64,-301.2548 64,-274.7452 64,-274.7452" /><polygon points="18.7452,-320 18.7452,-320 45.2548,-320 45.2548,-320" /><polygon points="64,-274.7452 64,-274.7452 45.2548,-256 45.2548,-256" /><polygon points="18.7452,-256 18.7452,-256 0,-274.745 0,-274.745" /><polygon points="0,-301.2548 0,-301.2548 18.7452,-320 18.7452,-320" /><polygon points="45.2548,-320 45.2548,-320 64,-301.2548 64,-301.2548" /><polygon points="496,-496 496,-480 496,-272 496,-272 496,-480 496,-496" /><polygon points="-240,-16 -240,-32 -240,-194.7453 -240,-194.7453 -240,-16" /><polygon points="-240,-477.2548 -240,-480 -240,-496 -240,-496 -240,-480 -240,-477.2548" /><polygon points="-240,-496 -29.2549,-496 -29.2549,-496 -240,-496" /><polygon points="29.2548,-496 226.7452,-496 226.7452,-496 29.2548,-496" /><polygon points="285.2548,-496 496,-496 496,-496 285.2548,-496" /><polygon points="-29.2547,-16 -240,-16 -240,-16 -29.2547,-16" /><polygon points="258.7453,-16 50.7453,-16 29.2547,-16 29.2547,-16 50.7453,-16 258.7453,-16" /><polygon points="496,-16 317.2548,-16 317.2548,-16 480,-16 496,-16" /><polygon points="317.2548,-16 301.2546,-32 301.2546,-32 317.2548,-16" /><polygon points="496,-16 480,-32 301.2546,-32 317.2548,-16" /><polygon points="-29.2549,-496 -13.2549,-480 -13.2549,-480 -29.2549,-496" /><polygon points="226.7452,-496 242.7448,-480 242.7448,-480 226.7452,-496" /><polygon points="496,-496 480,-480 496,-480" /><polygon points="29.2547,-16 13.2548,-32 13.2548,-32 29.2547,-16" /><polygon points="258.7453,-16 274.7451,-32 50.7453,-32 50.7453,-16" /><polygon points="-240,-256 -240,-253.2548 -224,-237.2549 -224,-256" /><polygon points="-240,-32 -240,-16 -224,-32" /><polygon points="-29.2547,-16 -13.2548,-32 -224,-32 -240,-16" /><polygon points="-240,-253.2548 -240,-256 -240,-477.2548 -240,-477.2548 -240,-272 -240,-253.2548" /><polygon points="-240,-194.7453 -224,-210.7452 -224,-210.7452 -240,-194.7453" /><polygon points="496,-194.7453 496,-32 496,-16 496,-16 496,-194.7453" /><polygon points="496,-272 496,-256 496,-253.2548 496,-253.2548 496,-256 496,-272" /><polygon points="496,-253.2548 480,-237.2549 480,-237.2549 496,-253.2548" /><polygon points="496,-32 496,-194.7453 480,-210.7454 480,-32 496,-16" /><polygon points="496,-256 496,-272 496,-480 480,-480 480,-256" /><polygon points="13.2548,-32 -13.2548,-32 -13.2548,-32 13.2548,-32" /><polygon points="274.7451,-32 258.7453,-16 258.7453,-16 274.7451,-32" /><polygon points="301.2546,-32 274.7451,-32 274.7451,-32 301.2546,-32" /><polygon points="-13.2548,-32 -29.2547,-16 -29.2547,-16 -13.2548,-32" /><polygon points="50.7453,-32 13.2548,-32 29.2547,-16 50.7453,-16" /><polygon points="-13.2549,-480 13.2548,-480 13.2548,-480 -13.2549,-480" /><polygon points="242.7448,-480 256,-480 269.2548,-480 269.2548,-480 256,-480 242.7448,-480" /><polygon points="256,-480 242.7448,-480 32,-480 32,-480 242.7448,-480 256,-480" /><polygon points="32,-480 13.2548,-480 -13.2549,-480 -13.2549,-480 13.2548,-480 32,-480" /><polygon points="13.2548,-480 29.2548,-496 29.2548,-496 13.2548,-480" /><polygon points="269.2548,-480 285.2548,-496 285.2548,-496 269.2548,-480" /><polygon points="32,-480 242.7448,-480 226.7452,-496 29.2548,-496 13.2548,-480" /><polygon points="480,-480 496,-496 285.2548,-496 269.2548,-480" /><polygon points="480,-480 480,-480 480,-256 480,-256" /><polygon points="-224,-237.2549 -240,-253.2548 -240,-253.2548 -224,-237.2548" /><polygon points="-13.2549,-480 -224,-480 -224,-480 -13.2549,-480" /><polygon points="-13.2549,-480 -29.2549,-496 -240,-496 -224,-480" /><polygon points="-224,-480 -240,-496 -240,-480" /><polygon points="-224,-256 -224,-237.2549 -224,-237.2549 -224,-256" /><polygon points="-224,-480 -240,-480 -240,-477.2548 -240,-256 -224,-256" /><polygon points="-224,-237.2549 -224,-210.7452 -224,-210.7452 -224,-237.2549" /><polygon points="-224,-210.7452 -224,-237.2549 -224,-237.2548 -224,-210.7452" /><polygon points="-224,-210.7452 -224,-32 -224,-32 -224,-210.7452" /><polygon points="-224,-210.7452 -240,-194.7453 -240,-32 -224,-32" /><polygon points="480,-32 480,-32 453.4908,-32" /><polygon points="480,-32 453.4908,-32 301.2546,-32 301.2546,-32" /><polygon points="480,-210.7454 496,-194.7453 496,-194.7453 480,-210.7454" /><polygon points="480,-237.2549 480,-210.7454 480,-210.7454 480,-237.2549" /><polygon points="480,-237.2549 496,-253.2548 496,-256 480,-256" /><polygon points="301.2546,-32 274.7451,-32 274.7451,-32 301.2546,-32" /><polygon points="274.7451,-32 50.7453,-32 50.7453,-32 274.7451,-32" /><polygon points="50.7453,-32 13.2548,-32 -13.2548,-32 -13.2548,-32 13.2548,-32 50.7453,-32" /><polygon points="274.7451,-32 258.7453,-16 50.7453,-16 50.7453,-32" /><polygon points="-13.2548,-32 -224,-32 -224,-32 -13.2548,-32" /><polygon points="-13.2548,-32 -29.2547,-16 -240,-16 -224,-32" /><polygon points="-224,-32 -240,-16 -240,-32" /><polygon points="480,-237.2549 480,-210.7454 480,-210.7454 480,-237.2549" /><polygon points="480,-210.7454 480,-237.2549 480,-237.2549 480,-210.7454" /><polygon points="480,-210.7454 480,-32 480,-32 480,-210.7454" /><polygon points="480,-210.7454 496,-194.7453 496,-16 480,-32" /><polygon points="480,-32 496,-16 480,-16" /><polygon points="480,-32 480,-16 437.4907,-16 453.4908,-32" /><polygon points="269.2548,-480 480,-480 480,-480 269.2548,-480 256,-480 256,-480" /><polygon points="480,-256 480,-237.2549 480,-237.2549 480,-256" /><polygon points="480,-256 480,-480 496,-480 496,-272 496,-256" /><polygon points="-224,-480 -224,-480 -224,-256 -224,-256" /><polygon points="-224,-256 -224,-237.2549 -240,-253.2548 -240,-256" /><polygon points="-29.2547,-16 -29.2547,-16 -240,-16 -240,-16" /><polygon points="50.7453,-16 258.7453,-16 258.7453,-16 29.2547,-16 29.2547,-16" /><polygon points="437.4907,-16 317.2548,-16 301.2546,-32 453.4908,-32" /><polygon points="50.7453,-16 29.2547,-16 13.2548,-32 50.7453,-32" /><polygon points="496,-194.7453 496,-194.7453 496,-16 496,-16" /><polygon points="226.7452,-496 242.7448,-480 32,-480 13.2548,-480 29.2548,-496" /><polygon points="496,-496 480,-480 269.2548,-480 285.2548,-496" /><polygon points="496,-480 480,-480 496,-496" /><polygon points="496,-253.2548 480,-237.2549 480,-256 496,-256" /><polygon points="-29.2549,-496 -13.2549,-480 -224,-480 -240,-496" /><polygon points="-240,-480 -240,-496 -224,-480" /><polygon points="-240,-477.2548 -240,-480 -224,-480 -224,-256 -240,-256" /><polygon points="-240,-194.7453 -224,-210.7452 -224,-32 -240,-32" /><polygon points="496,-194.7453 496,-194.7453 496,-16 496,-16" /><polygon points="496,-272 496,-272 496,-480 496,-496 496,-496" /><polygon points="496,-253.2548 496,-253.2548 496,-256 496,-272 496,-272" /><polygon points="-240,-194.7453 -240,-194.7453 -240,-32 -240,-16 -240,-16" /><polygon points="-240,-477.2548 -240,-477.2548 -240,-256 -240,-253.2548 -240,-253.2548" /><polygon points="-240,-496 -240,-496 -240,-480 -240,-477.2548 -240,-477.2548" /><polygon points="-29.2549,-496 -29.2549,-496 -240,-496 -240,-496" /><polygon points="226.7452,-496 226.7452,-496 29.2548,-496 29.2548,-496" /><polygon points="496,-496 496,-496 285.2548,-496 285.2548,-496" /><polygon points="-29.2547,-16 -29.2547,-16 -240,-16 -240,-16" /><polygon points="258.7453,-16 258.7453,-16 29.2547,-16 29.2547,-16" /><polygon points="317.2548,-16 317.2548,-16 437.4907,-16 480,-16 496,-16 496,-16" /><polygon points="258.7453,-16 258.7453,-16 274.7451,-32 274.7451,-32" /><polygon points="480,-237.2549 480,-237.2549 496,-253.2548 496,-253.2548" /><polygon points="496,-194.7453 496,-194.7453 480,-210.7454 480,-210.7454" /><polygon points="480,-237.2549 480,-237.2549 480,-210.7454 480,-210.7454" /><polygon points="301.2546,-32 301.2546,-32 317.2548,-16 317.2548,-16" /><polygon points="274.7451,-32 274.7451,-32 301.2546,-32 301.2546,-32" /><polygon points="-13.2549,-480 -13.2549,-480 -29.2549,-496 -29.2549,-496" /><polygon points="13.2548,-480 13.2548,-480 -13.2549,-480 -13.2549,-480" /><polygon points="269.2548,-480 269.2548,-480 256,-480 242.7448,-480 242.7448,-480" /><polygon points="29.2548,-496 29.2548,-496 13.2548,-480 13.2548,-480" /><polygon points="285.2548,-496 285.2548,-496 269.2548,-480 269.2548,-480" /><polygon points="242.7448,-480 242.7448,-480 226.7452,-496 226.7452,-496" /><polygon points="256,-293.4902 256,-293.4902 256,-346.5097 256,-346.5097" /><polygon points="384,-346.5096 384,-346.5096 384,-293.4903 384,-293.4903" /><polygon points="346.5097,-256 346.5097,-256 293.4901,-256 293.4901,-256" /><polygon points="293.4904,-384 293.4904,-384 346.5097,-384 346.5097,-384" /><polygon points="293.4901,-256 293.4901,-256 256,-293.4902 256,-293.4902" /><polygon points="256,-346.5097 256,-346.5097 293.4904,-384 293.4904,-384" /><polygon points="346.5097,-384 346.5097,-384 384,-346.5096 384,-346.5096" /><polygon points="384,-293.4903 384,-293.4903 346.5097,-256 346.5097,-256" /><polygon points="-29.2547,-16 -29.2547,-16 -13.2548,-32 -13.2548,-32" /><polygon points="-13.2548,-32 -13.2548,-32 13.2548,-32 13.2548,-32" /><polygon points="13.2548,-32 13.2548,-32 29.2547,-16 29.2547,-16" /><polygon points="0,-274.745 0,-274.745 0,-301.2548 0,-301.2548" /><polygon points="45.2548,-256 45.2548,-256 18.7452,-256 18.7452,-256" /><polygon points="64,-301.2548 64,-301.2548 64,-274.7452 64,-274.7452" /><polygon points="18.7452,-320 18.7452,-320 45.2548,-320 45.2548,-320" /><polygon points="64,-274.7452 64,-274.7452 45.2548,-256 45.2548,-256" /><polygon points="18.7452,-256 18.7452,-256 0,-274.745 0,-274.745" /><polygon points="0,-301.2548 0,-301.2548 18.7452,-320 18.7452,-320" /><polygon points="45.2548,-320 45.2548,-320 64,-301.2548 64,-301.2548" /><polygon points="-224,-210.7452 -224,-210.7452 -240,-194.7453 -240,-194.7453" /><polygon points="-240,-253.2548 -240,-253.2548 -224,-237.2549 -224,-237.2549" /><polygon points="-224,-237.2549 -224,-237.2549 -224,-210.7452 -224,-210.7452" /><polygon points="496,-194.7453 496,-194.7453 496,-192 496,-32 496,-16 496,-16" /><polygon points="496,-272 496,-272 496,-496 496,-496" /><polygon points="496,-253.2548 496,-253.2548 496,-272 496,-272" /><polygon points="-240,-194.7453 -240,-194.7453 -240,-16 -240,-16" /><polygon points="-240,-477.2548 -240,-477.2548 -240,-253.2548 -240,-253.2548" /><polygon points="-240,-496 -240,-496 -240,-477.2548 -240,-477.2548" /><polygon points="-29.2549,-496 -29.2549,-496 -240,-496 -240,-496" /><polygon points="226.7452,-496 226.7452,-496 29.2548,-496 29.2548,-496" /><polygon points="496,-496 496,-496 285.2548,-496 285.2548,-496" /><polygon points="-29.2547,-16 -29.2547,-16 -32,-16 -240,-16 -240,-16" /><polygon points="258.7453,-16 258.7453,-16 237.2547,-16 29.2547,-16 29.2547,-16" /><polygon points="317.2548,-16 317.2548,-16 496,-16 496,-16" /><polygon points="258.7453,-16 258.7453,-16 274.7451,-32 274.7451,-32" /><polygon points="480,-237.2549 480,-237.2549 496,-253.2548 496,-253.2548" /><polygon points="496,-194.7453 496,-194.7453 480,-210.7454 480,-210.7454" /><polygon points="480,-237.2549 480,-237.2548 480,-210.7453 480,-210.7454" /><polygon points="301.2546,-32 301.2546,-32 317.2548,-16 317.2548,-16" /><polygon points="274.7451,-32 274.7451,-32 301.2546,-32 301.2546,-32" /><polygon points="-13.2549,-480 -13.2549,-480 -29.2549,-496 -29.2549,-496" /><polygon points="13.2548,-480 13.2548,-480 -13.2549,-480 -13.2549,-480" /><polygon points="269.2548,-480 269.2548,-480 242.7448,-480 242.7448,-480" /><polygon points="29.2548,-496 29.2548,-496 13.2548,-480 13.2548,-480" /><polygon points="285.2548,-496 285.2548,-496 269.2548,-480 269.2548,-480" /><polygon points="242.7448,-480 242.7448,-480 226.7452,-496 226.7452,-496" /><polygon points="256,-293.4902 256,-293.4902 256,-346.5097 256,-346.5097" /><polygon points="384,-346.5096 384,-346.5096 384,-293.4903 384,-293.4903" /><polygon points="346.5097,-256 346.5097,-256 293.4901,-256 293.4901,-256" /><polygon points="293.4904,-384 293.4904,-384 346.5097,-384 346.5097,-384" /><polygon points="293.4901,-256 293.4901,-256 256,-293.4902 256,-293.4902" /><polygon points="256,-346.5097 256,-346.5097 293.4904,-384 293.4904,-384" /><polygon points="346.5097,-384 346.5097,-384 384,-346.5096 384,-346.5096" /><polygon points="384,-293.4903 384,-293.4903 346.5097,-256 346.5097,-256" /><polygon points="-29.2547,-16 -29.2547,-16 -13.2548,-32 -13.2548,-32" /><polygon points="-13.2548,-32 -13.2548,-32 13.2548,-32 13.2548,-32" /><polygon points="13.2548,-32 13.2548,-32 29.2547,-16 29.2547,-16" /><polygon points="0,-274.745 0,-274.745 0,-301.2548 0,-301.2548" /><polygon points="45.2548,-256 45.2548,-256 18.7452,-256 18.7452,-256" /><polygon points="64,-301.2548 64,-301.2548 64,-274.7452 64,-274.7452" /><polygon points="18.7452,-320 18.7452,-320 45.2548,-320 45.2548,-320" /><polygon points="64,-274.7452 64,-274.7452 45.2548,-256 45.2548,-256" /><polygon points="18.7452,-256 18.7452,-256 0,-274.745 0,-274.745" /><polygon points="0,-301.2548 0,-301.2548 18.7452,-320 18.7452,-320" /><polygon points="45.2548,-320 45.2548,-320 64,-301.2548 64,-301.2548" /><polygon points="-224,-210.7452 -224,-210.7452 -240,-194.7453 -240,-194.7453" /><polygon points="-240,-253.2548 -240,-253.2548 -224,-237.2549 -224,-237.2549" /><polygon points="-224,-237.2549 -224,-237.2549 -224,-210.7452 -224,-210.7452" /><polygon points="-32,-32 -32,-192 -224,-192 -240,-192 -240,-16 -32,-16" /><polygon points="-32,-16 -29.2547,-16 -13.2547,-32 -32,-32" /><polygon points="-240,-192 -224,-192 -224,-210.7453 -240,-194.7453" /><polygon points="-224,-237.2548 -224,-256 -240,-256 -240,-253.2548" /><polygon points="-32,-320 -32,-480 -32,-496 -240,-496 -240,-477.2548 -240,-256 -224,-256 -32,-256" /><polygon points="192,-480 13.2548,-480 -13.2548,-480 -32,-480 -32,-320 0,-320 18.7453,-320 45.255,-320 64,-320 192,-320" /><polygon points="224,-384 224,-480 192,-480 192,-320 224,-320" /><polygon points="18.7453,-320 0,-320 0,-301.2547" /><polygon points="64,-301.255 64,-320 45.255,-320" /><polygon points="-32,-480 -13.2548,-480 -29.2549,-496 -32,-496" /><polygon points="0,-256 18.7452,-256 0,-274.7452" /><polygon points="45.2547,-256 64,-256 64,-274.7453" /><polygon points="-32,-256 0,-256 0,-274.7452 0,-301.2547 0,-320 -32,-320" /><polygon points="64,-301.255 64,-274.7453 64,-256 224,-256 224,-320 192,-320 64,-320" /><polygon points="496,-16 496,-32 416,-32 301.2548,-32 317.2548,-16" /><polygon points="237.2547,-32 192,-32 13.2547,-32 29.2547,-16 237.2547,-16" /><polygon points="258.7453,-16 274.7453,-32 237.2547,-32 237.2547,-16" /><polygon points="192,-192 0,-192 -32,-192 -32,-32 -13.2547,-32 13.2547,-32 192,-32" /><polygon points="416,-192 224,-192 192,-192 192,-32 237.2547,-32 274.7453,-32 301.2548,-32 416,-32" /><polygon points="496,-32 496,-192 480,-192 448,-192 416,-192 416,-32" /><polygon points="384,-346.5096 384,-384 346.5096,-384" /><polygon points="346.5097,-256 384,-256 384,-293.4903" /><polygon points="0,-256 -32,-256 -224,-256 -224,-237.2548 -224,-210.7453 -224,-192 -32,-192 0,-192" /><polygon points="224,-256 64,-256 45.2547,-256 18.7452,-256 0,-256 0,-192 192,-192 224,-192" /><polygon points="448,-256 384,-256 346.5097,-256 293.4904,-256 256,-256 224,-256 224,-192 416,-192 448,-192" /><polygon points="480,-192 480,-210.7453 480,-237.2548 480,-256 448,-256 448,-192" /><polygon points="192,-480 224,-480 242.7452,-480 226.7452,-496 29.2548,-496 13.2548,-480" /><polygon points="224,-320 224,-256 256,-256 256,-293.4904 256,-346.5097 256,-384 224,-384" /><polygon points="256,-256 293.4904,-256 256,-293.4904" /><polygon points="293.4904,-384 256,-384 256,-346.5097" /><polygon points="448,-256 480,-256 496,-256 496,-272 496,-384 448,-384 384,-384 384,-346.5096 384,-293.4903 384,-256" /><polygon points="496,-256 480,-256 480,-237.2548 496,-253.2548" /><polygon points="448,-480 496,-480 496,-496 285.2548,-496 269.2548,-480" /><polygon points="480,-192 496,-192 496,-194.7453 480,-210.7453" /><polygon points="448,-480 269.2548,-480 242.7452,-480 224,-480 224,-384 256,-384 293.4904,-384 346.5096,-384 384,-384 448,-384" /><polygon points="496,-384 496,-480 448,-480 448,-384" /><polygon points="496,-496 496,-480 496,-384 496,-272 496,-272 496,-496" /><polygon points="496,-272 496,-256 496,-253.2548 496,-253.2548 496,-272" /><polygon points="-240,-192 -240,-194.7453 -240,-194.7453 -240,-16 -240,-16" /><polygon points="-240,-253.2548 -240,-256 -240,-477.2548 -240,-477.2548 -240,-253.2548" /><polygon points="-240,-477.2548 -240,-496 -240,-496 -240,-477.2548" /><polygon points="-32,-496 -29.2549,-496 -29.2549,-496 -240,-496 -240,-496" /><polygon points="226.7452,-496 226.7452,-496 29.2548,-496 29.2548,-496" /><polygon points="496,-496 496,-496 285.2548,-496 285.2548,-496" /><polygon points="496,-16 317.2548,-16 317.2548,-16 496,-16" /><polygon points="274.7453,-32 258.7453,-16 258.7453,-16 274.7451,-32" /><polygon points="496,-253.2548 480,-237.2548 480,-237.2549 496,-253.2548" /><polygon points="480,-210.7453 496,-194.7453 496,-194.7453 480,-210.7454" /><polygon points="317.2548,-16 301.2548,-32 301.2546,-32 317.2548,-16" /><polygon points="301.2548,-32 274.7453,-32 274.7451,-32 301.2546,-32" /><polygon points="-29.2549,-496 -13.2548,-480 -13.2549,-480 -29.2549,-496" /><polygon points="-13.2548,-480 13.2548,-480 13.2548,-480 -13.2549,-480" /><polygon points="242.7452,-480 269.2548,-480 269.2548,-480 242.7448,-480" /><polygon points="13.2548,-480 29.2548,-496 29.2548,-496 13.2548,-480" /><polygon points="269.2548,-480 285.2548,-496 285.2548,-496 269.2548,-480" /><polygon points="226.7452,-496 242.7452,-480 242.7448,-480 226.7452,-496" /><polygon points="256,-346.5097 256,-293.4904 256,-293.4902 256,-346.5097" /><polygon points="384,-293.4903 384,-346.5096 384,-346.5096 384,-293.4903" /><polygon points="293.4904,-256 346.5097,-256 346.5097,-256 293.4901,-256" /><polygon points="346.5096,-384 293.4904,-384 293.4904,-384 346.5097,-384" /><polygon points="256,-293.4904 293.4904,-256 293.4901,-256 256,-293.4902" /><polygon points="293.4904,-384 256,-346.5097 256,-346.5097 293.4904,-384" /><polygon points="384,-346.5096 346.5096,-384 346.5097,-384 384,-346.5096" /><polygon points="346.5097,-256 384,-293.4903 384,-293.4903 346.5097,-256" /><polygon points="-13.2547,-32 -29.2547,-16 -29.2547,-16 -13.2548,-32" /><polygon points="13.2547,-32 -13.2547,-32 -13.2548,-32 13.2548,-32" /><polygon points="29.2547,-16 13.2547,-32 13.2548,-32 29.2547,-16" /><polygon points="0,-301.2547 0,-274.7452 0,-274.745 0,-301.2548" /><polygon points="18.7452,-256 45.2547,-256 45.2548,-256 18.7452,-256" /><polygon points="64,-274.7453 64,-301.255 64,-301.2548 64,-274.7452" /><polygon points="45.255,-320 18.7453,-320 18.7452,-320 45.2548,-320" /><polygon points="45.2547,-256 64,-274.7453 64,-274.7452 45.2548,-256" /><polygon points="0,-274.7452 18.7452,-256 18.7452,-256 0,-274.745" /><polygon points="18.7453,-320 0,-301.2547 0,-301.2548 18.7452,-320" /><polygon points="64,-301.255 45.255,-320 45.2548,-320 64,-301.2548" /><polygon points="-240,-194.7453 -224,-210.7453 -224,-210.7452 -240,-194.7453" /><polygon points="-224,-237.2548 -240,-253.2548 -240,-253.2548 -224,-237.2549" /><polygon points="-224,-210.7453 -224,-237.2548 -224,-237.2549 -224,-210.7452" /></g></defs><rect fill="#fff" height="576.0" id="background" width="832.0" x="-288.0" y="-544.0" /><use fill="none" stroke="black" stroke-miterlimit="0" stroke-width="15" xlink:href="#bsp_ref" /><use fill="white" stroke="black" stroke-width="1" xlink:href="#bsp_ref" /></svg>