<svg viewBox="-515 -1405 1888 2336" xmlns="http://www.w3.org/2000/svg" xmlns:xlink="http://www.w3.org/1999/xlink"><defs><g id="a"><path d="m320-90h128-224z"/><path d="m448-282v96z"/><path d="m448-442v32 96z"/><path d="m320-218v-64 96z"/><path d="m416-282h-96z"/><path d="m416-410v-32h32v128h-32z"/><path d="m416-442v32h-96v-32z"/><path d="m416-410h-96z"/><path d="m416-314h32v32h-32-96v-32z"/><path d="m416-282h32v96h-32z"/><path d="m416-186h32v32 64h-128v-96z"/><path d="m224-282v-160h64 32v32 96 32 64h-96z"/><path d="m320-218v32 96h-96v-96-32z"/><path d="m128-218v-64 96z"/><path d="m128-442h96v160h-96z"/><path d="m96-282v-32-128h32v160 64h-32z"/><path d="m128-218v32h-32v-32z"/><path d="m96-90v-64z"/><path d="m128-186h96v96h-128v-64-32z"/><path d="m1056 710v-224z"/><path d="m864 710v-160-64h192v224z"/><path d="m1056 774h-192v-64h192z"/><path d="m224-90h224v-64-32h-32-96-96-96-32v32 64z"/><path d="m128-186h96 96 96 32v32 64h-224-128v-64-32z"/><path d="m96-282v-32-128h32v160 96h-32z"/><path d="m128-282v-160h-32v128 32 96h32z"/><path d="m320-282v-32-96-32h-32-64v160 96h96z"/><path d="m224-282v-160h64 32v32 96 32 96h-96z"/><path d="m128-442h96v160h-96z"/><path d="m224-442h-96v160h96z"/><path d="m-32-634h-192.3836-31.6164v-32-16h31.6164 192.3836z"/><path d="m-.3836-682h96.5384 31.8452v48h-31.8452-96.5384-31.6164v-48z"/><path d="m-.3836-602h-121.4632-102.5368v-32h192.3836 31.6164z"/><path d="m96.1548-634v32h-96.5384v-32z"/><path d="m-.3836-682h-31.6164-192.3836v-32h192.3836 31.6164z"/><path d="m96.1548-714v32h-96.5384v-32z"/><path d="m-32-714h-192.3836-31.6164v-32h31.6164 192.3836z"/><path d="m-.3836-746h96.5384 31.8452v32h-31.8452-96.5384-31.6164v-32z"/><path d="m-114.8674-890-13.1326 2.9745v-2.9745z"/><path d="m-32-778h-192.3836-31.6164v-48h31.6164 192.3836z"/><path d="m-.3836-826h96.5384 31.8452v48h-31.8452-96.5384-31.6164v-48z"/><path d="m-.3836-826h-31.6164-192.3836v-32h192.3836 31.6164z"/><path d="m95.8275-858h.3273v32h-96.5384v-32z"/><path d="m-.3836-746h-31.6164-192.3836v-32h192.3836 31.6164z"/><path d="m96.1548-778v32h-96.5384v-32z"/><path d="m95.8275-858h-96.2111-31.6164v-28.9608z"/><path d="m-32-890v3.0392 28.9608h-192.3836l-31.6164-.0336 128-28.9919 13.1326-2.9745z"/><path d="m416-314v32h-96v-32z"/><path d="m416-282v-32h-96v32z"/><path d="m448-282v-32-96h-32v96 32 96h32z"/><path d="m416-282v-32-96h32v96 32 96h-32z"/><path d="m416-442h32v32h-32-96v-32z"/><path d="m416-410h32v-32h-32-96v32z"/><path d="m416-602h24l-19.2 128-4.8 32z"/><path d="m592-634h-48l48-48z"/><path d="m704-634h-48v-48z"/><path d="m704-634-48-48z"/><path d="m-256-666v-16z"/><path d="m-256-714v-32z"/><path d="m-224.3836-602h-5.9996v-32h5.9996z"/><path d="m-224.3836-682h-5.9996v-32h5.9996z"/><path d="m-224.3836-746h-5.9996v-32h5.9996z"/><path d="m-224.3836-826h-5.9996v-32h5.9996z"/><path d="m448-90h-224z"/><path d="m448-90v-64z"/><path d="m448-282v16 24 16 24 16z"/><path d="m656-682v48z"/><path d="m656-634h48z"/><path d="m592-682-48 48z"/><path d="m128-634v-48z"/><path d="m440-602h-24z"/><path d="m440-602-19.2 128z"/><path d="m-.3836-602h96.5384 5.9984-182.1532-29.8499-11.9969z"/><path d="m-32-886.9608v-3.0392z"/><path d="m96.1548-858h-.3273 6.3258z"/><path d="m96.1548-858h5.9985l-.0001 32h-5.9984z"/><path d="m96.1548-778h31.8452-25.8468z"/><path d="m96.1548-778h5.9984l.0001 32h-5.9985z"/><path d="m96.1548-714h31.8452-25.8467z"/><path d="m96.1548-714h5.9985v32h-5.9985z"/><path d="m96.1548-634h31.8452-25.8467z"/><path d="m96.1548-634h5.9985l-.0001 32h-5.9984z"/><path d="m416-282h-16-24-16-24-16z"/><path d="m416-410h-16-24-16-24-16z"/><path d="m96-154v64z"/><path d="m320-282v16 24 16 24 16z"/><path d="m128-282v16 24 16 24 16z"/><path d="m864 550v160 64-192z"/><path d="m-224.3836-682h-31.6164 25.6168z"/><path d="m-224.3836-826h-31.6164 25.6168z"/><path d="m-224.3836-746h-31.6164 25.6168z"/><path d="m224-90h-128z"/><path d="m320-442h-32z"/><path d="m128-442h96 64-64-96-32z"/><path d="m448-442h-32z"/><path d="m416-442h-96z"/><path d="m448-154v-32z"/><path d="m448-154v64z"/><path d="m448-282v-32z"/><path d="m320-314v-96z"/><path d="m416-314h-96z"/><path d="m416-410v96z"/><path d="m416-186h-96z"/><path d="m416-282v96z"/><path d="m224-282v64 32z"/><path d="m224-186h-96z"/><path d="m128-282h96z"/><path d="m96-282v64 32z"/><path d="m96-314v32z"/><path d="m96-442v128z"/><path d="m96-186v32z"/><path d="m-256-666v32z"/><path d="m-256-714v-16-16z"/><path d="m-256-778v-48z"/><path d="m-114.8674-890h82.8674-82.8674-13.1326z"/><path d="m-128-887.0255-128 28.9919z"/><path d="m-128-887.0255v-2.9745h13.1326z"/><path d="m-114.8674-890h-13.1326v2.9745z"/><path d="m-128-890v2.9745z"/><path d="m-230.3832-602h-11.9989v-32h11.9989z"/><path d="m-230.3832-682h-11.9989v-32h11.9989z"/><path d="m-230.3832-746h-11.9989v-32h11.9989z"/><path d="m-230.3832-826h-11.9989v-32h11.9989z"/><path d="m128-778v-48z"/><path d="m128-714v-32z"/><path d="m128-634v-48z"/><path d="m-80-602h182.1532 11.9969-146.1501-16-24-16-21.8499z"/><path d="m-121.8468-602h-108.5364 5.9996z"/><path d="m-128-746h-102.3832v32 32 48 32h108.5364 11.9969 29.8499v-32-48-64z"/><path d="m-80-682v48 32h-29.8499-11.9969-108.5364v-32-48-32-32h102.3832 48z"/><path d="m-80-602v-32h182.1533l-.0001 32z"/><path d="m-80-634v32h182.1532l.0001-32z"/><path d="m102.1533-634h-182.1533v-48h182.1533 25.8467v48z"/><path d="m102.1533-682h-182.1533v48h182.1533 25.8467v-48z"/><path d="m-80-746h48 134.1533v32 32h-182.1533z"/><path d="m102.1533-714v-32h-134.1533-48v64h182.1533z"/><path d="m102.1533-746h25.8467v32h-25.8467z"/><path d="m102.1533-714h25.8467v-32h-25.8467z"/><path d="m-128-778v32h-102.3832v-32z"/><path d="m-230.3832-778v32h102.3832v-32z"/><path d="m-128-826v48h-102.3832v-48z"/><path d="m-128-778v-48h-102.3832v48z"/><path d="m-128-858v32h-102.3832v-32z"/><path d="m-230.3832-858v32h102.3832v-32z"/><path d="m-128-887.0255v29.0255h-102.3832l.0001-5.8089z"/><path d="m-128-858v-29.0255l-102.3831 23.2166-.0001 5.8089z"/><path d="m-32-890v3.0392 28.9608 112h-48-48v-32-48-32-29.0255l13.1326-2.9745z"/><path d="m-80-746h48v-112-28.9608-3.0392h-82.8674l-13.1326 2.9745v29.0255 32 48 32z"/><path d="m102.1532-778h25.8468v-48h-25.8468z"/><path d="m102.1532-826h25.8468v48h-25.8468z"/><path d="m-32-886.9608v28.9608h127.8275z"/><path d="m95.8275-858h-127.8275v-28.9608z"/><path d="m-32-858h127.8275 6.3258l-.0001 32v48l.0001 32h-134.1533z"/><path d="m102.1532-778v-48l.0001-32h-6.3258-127.8275v112h134.1533z"/><path d="m102.1533-634h11.9969l-.0001 32h-11.9969z"/><path d="m102.1533-714h11.9969v32h-11.9969z"/><path d="m102.1532-778h11.997v32h-11.9969z"/><path d="m102.1532-778h25.8468-13.8498z"/><path d="m102.1533-714h25.8467-13.8498z"/><path d="m102.1533-634h25.8467-13.8498z"/><path d="m-32-886.9608v-3.0392z"/><path d="m95.8275-858-127.8275-28.9608z"/><path d="m128-746h-31.8452 5.9985z"/><path d="m128-826h-31.8452 5.9984z"/><path d="m95.8275-858-127.8275-28.9608z"/><path d="m128-682h-31.8452 5.9985z"/><path d="m-230.3832-682h-25.6168 13.6179z"/><path d="m-256-778h31.6164-5.9996z"/><path d="m-230.3832-826h-25.6168 13.6179z"/><path d="m-230.3832-858h-25.6168l25.6169-5.8089z"/><path d="m-230.3831-863.8089-25.6169 5.8089h25.6168z"/><path d="m-256-858h31.6164-5.9996z"/><path d="m-230.3832-778h-25.6168v-48h25.6168z"/><path d="m-230.3832-826h-25.6168v48h25.6168z"/><path d="m-256-714h31.6164-5.9996z"/><path d="m-256-714v-32h25.6168v32z"/><path d="m-230.3832-714v-32h-25.6168v32z"/><path d="m-230.3832-746h-25.6168 13.6179z"/><path d="m-256-634v-32-16h25.6168v48z"/><path d="m-230.3832-634v-48h-25.6168v16 32z"/><path d="m-256-634h31.6164-5.9996z"/><path d="m704-634-48-48z"/><path d="m704-634h-48v-48z"/><path d="m656-682v48h48z"/><path d="m592-682v48h-48z"/><path d="m544-634h48v-48z"/><path d="m592-682-48 48z"/><path d="m544-634h48z"/><path d="m592-634v-48z"/><path d="m1056 486v224z"/><path d="m1056 774v-64z"/><path d="m-256-666v32z"/><path d="m-256-666v-16z"/><path d="m-256-778v-48z"/><path d="m-114.8674-890h2.8674 24 16 24 16-82.8674-13.1326z"/><path d="m-256-858.0336 128-28.9919z"/><path d="m-114.8674-890h-13.1326v2.9745z"/><path d="m-128-890v2.9745z"/><path d="m224-90h-128z"/><path d="m448-90h-40-32-120-32z"/><path d="m448-90v-64z"/><path d="m448-202v-24z"/><path d="m448-242v-24z"/><path d="m448-442v128-96z"/><path d="m448-314v-128z"/><path d="m336-442h24 16 24 16-96z"/><path d="m288-442h-64-96-32z"/><path d="m128-682v-32-32-32-48-32 16 112 64 32z"/><path d="m128-778v-48z"/><path d="m128-714v-32z"/><path d="m420.8-474 19.2-128h-24v160z"/><path d="m416-602v160z"/><path d="m416-442 4.8-32z"/><path d="m-109.8499-602h-2.1501-16-114.3821 11.9989 108.5364z"/><path d="m114.1502-826h-11.997l.0001-32h11.9969z"/><path d="m128-746h-25.8467 11.9969z"/><path d="m128-826h-25.8468 11.997z"/><path d="m128-826h-13.8498v-32h13.8498z"/><path d="m114.1502-778h13.8498v32h-13.8498z"/><path d="m128-682h-25.8467 11.9969z"/><path d="m114.1502-714h13.8498v32h-13.8498z"/><path d="m114.1502-634h13.8498v32h-13.8499z"/><path d="m-32-826v64 32 96 32-32-96z"/><path d="m114.1502-858h-11.9969-6.3258 24.321z"/><path d="m-128-730v-32-96-29.0255 29.0255 96 32 66.9745z"/><path d="m-88-762h-24z"/><path d="m-48-762h-24z"/><path d="m-112-858h24z"/><path d="m-72-858h24z"/><path d="m-32-886.9608v-3.0392h-16v32h16z"/><path d="m-88-890v32h16v-32z"/><path d="m-128-858h16v-32h-2.8674l-13.1326 2.9745z"/><path d="m-112-762h24 16 24 16v-64-32h-16-24-16-24-16v96z"/><path d="m-112-730h24z"/><path d="m-72-730h24z"/><path d="m-32-762h-16v32h16z"/><path d="m-48-762v32z"/><path d="m-72-762h-16v32h16z"/><path d="m-88-762v32z"/><path d="m-112-762h-16v32h16z"/><path d="m-88-634h-24z"/><path d="m-48-634h-24z"/><path d="m-112-634h24 16 24 16v-96h-16-24-16-24-16v66.9745 29.0255z"/><path d="m-88-602v-32z"/><path d="m-72-634v32z"/><path d="m-48-634v32h16v-32z"/><path d="m-48-602v-32z"/><path d="m-72-602v-32h-16v32z"/><path d="m-128-634v32h16v-32z"/><path d="m-112-634v32z"/><path d="m376-282h24z"/><path d="m128-282h96 96-216z"/><path d="m128-282h96z"/><path d="m96-282h8z"/><path d="m320-314v-96z"/><path d="m320-314v-96-32 32 96 32z"/><path d="m416-410v96z"/><path d="m400-314h-24z"/><path d="m336-314h24 16 24 16-96z"/><path d="m360-314h-24z"/><path d="m320-442v32h16v-32z"/><path d="m360-442v32h16v-32z"/><path d="m400-442v32h16v-32z"/><path d="m376-442v32z"/><path d="m376-410h24z"/><path d="m400-410v-32z"/><path d="m360-410v-32z"/><path d="m400-314v32h16v-32z"/><path d="m360-314v32h16v-32z"/><path d="m320-314v32h16v-32z"/><path d="m336-314v32z"/><path d="m96-314v-128z"/><path d="m96-154v64z"/><path d="m96-202v-24z"/><path d="m96-202v-24-16-24-16 96z"/><path d="m224-186h-96z"/><path d="m416-186h-96z"/><path d="m320-186h-96-96-32z"/><path d="m224-226v24z"/><path d="m224-202v-24-16-24-16 96z"/><path d="m320-202v-24z"/><path d="m320-242v-24z"/><path d="m416-282v16h32v-16z"/><path d="m416-242v16h32v-16z"/><path d="m416-186h32v-16h-32z"/><path d="m416-266v24z"/><path d="m416-226v24z"/><path d="m416-202h32z"/><path d="m416-202v-24-16-24-16 96z"/><path d="m256-266h-32z"/><path d="m320-266h-32z"/><path d="m256-266h32 32v-16h-96v16z"/><path d="m288-202h32z"/><path d="m224-202h32z"/><path d="m256-242v-24z"/><path d="m256-202v-24z"/><path d="m288-266v24z"/><path d="m288-226v24z"/><path d="m288-226h32v-16h-32z"/><path d="m256-242v16 24h32v-24-16-24h-32z"/><path d="m224-242v16h32v-16z"/><path d="m224-186h96v-16h-32-32-32z"/><path d="m96-202v16h32v-16z"/><path d="m96-242v16h32v-16z"/><path d="m104-282v16h24v-16z"/><path d="m104-282h-8v16h8z"/><path d="m128-242v-24z"/><path d="m128-266h-24z"/><path d="m104-266h-8z"/><path d="m128-202v-24z"/><path d="m1056 486h-192z"/><path d="m-256-778h25.6168-11.9989z"/><path d="m-242.3821-826h-13.6179v-32h13.6179z"/><path d="m-256-858h25.6168-11.9989z"/><path d="m-256-714h25.6168-11.9989z"/><path d="m-242.3821-746h-13.6179v-32h13.6179z"/><path d="m-242.3821-682h-13.6179v-32h13.6179z"/><path d="m-242.3821-602h-13.6179v-32h13.6179z"/><path d="m-256-634h25.6168-11.9989z"/><path d="m387-495v40z"/><path d="m387-455h-40z"/><path d="m387-495v40h-40v-40z"/><path d="m347-495v40z"/><path d="m387-495h-40z"/><path d="m387-455v-40h-40v40z"/><path d="m-192-1050h-64z"/><path d="m-.0618-1242 12.796 64 6.3981 32 12.796 64z"/><path d="m-127.9368-1242h47.9368 32z"/><path d="m-48-1242h47.9382l31.9901 160h-191.8551l31.99-160z"/><path d="m-159.9268-1082h191.8551.0717v32h-64-128v-32z"/><path d="m864 774h192z"/><path d="m312-1026-24-24z"/><path d="m768-570-16-16z"/><path d="m432-906 16 16z"/><path d="m592-874v-32h32z"/><path d="m656-874-32-32h32z"/><path d="m624-906 32 32z"/><path d="m464-906h-16z"/><path d="m384-1026v72l-32-32-40-40z"/><path d="m384-1026v72z"/><path d="m448-906h16l-16 16-16-16z"/><path d="m448-890 16-16z"/><path d="m752-802v-40z"/><path d="m656-826h-64v-16h64z"/><path d="m712-802h40v32h-184l-8-8v-24z"/><path d="m720-810 32-32v40h-40z"/><path d="m592-810v-16h64v16z"/><path d="m752-842-32 32h-32v-32z"/><path d="m560-810h32 64 32 32l-8 8h-152z"/><path d="m656-826v-16z"/><path d="m688-842v32z"/><path d="m688-810h-32z"/><path d="m592-826v16z"/><path d="m560-810v8 24l-16-16-48-48h64z"/><path d="m835.3328-626h-8-43.3328z"/><path d="m752-770h16v49 40 47h-64l-136-136z"/><path d="m792-721v40h-24v-40z"/><path d="m832-681v-40h40v40z"/><path d="m872-662.6672-28.6672 28.6672h-75.3328v-47h24 40 40z"/><path d="m768-770h16 44l44 44v5h-40-40-24z"/><path d="m792-681v-40h40v40z"/><path d="m843.3328-634-8 8h-83.3328-39.9987l-8.0013-8z"/><path d="m843.3328-634 28.6672-28.6672-36.6672 36.6672z"/><path d="m712.0013-626h39.9987v32 8z"/><path d="m752-626v32z"/><path d="m752-586v-8z"/><path d="m-256-666v32 32z"/><path d="m-256-682v-48 16z"/><path d="m-256-914v24 31.9664-95.9664z"/><path d="m352-914h-128-32-32-32v-136h160l24 24 40 40z"/><path d="m384-954v40h-32v-72z"/><path d="m-32-914h-224v-40-96h64 32 128z"/><path d="m32-1050h32 64v136h-160v-136z"/><path d="m-72-890h24z"/><path d="m-112-890h24z"/><path d="m128-890v-24z"/><path d="m352-914h32v24h-8-152v-24z"/><path d="m-32-890h-13.4144-2.5856-24-16-24-2.8674-13.1326-128v-24h224z"/><path d="m128-914v24h-160v-24z"/><path d="m-128-887.0255v-2.9745h13.1326z"/><path d="m-256-858.0336v-31.9664h128v2.9745z"/><path d="m544-794 16 16 8 8 56 56-32 32-48 48-64 64v-24-8-24-144-24z"/><path d="m480-802v-40h16l48 48h-64z"/><path d="m384-842v40 32h-8v-120h8z"/><path d="m704-474h-32-96-32l-64-64v-32l64-64h48 64 48z"/><path d="m752-586 16 16v32l-64 64v-160z"/><path d="m592-634v-48l32-32 32 32v48z"/><path d="m448-626h-72v-40-104h8 32 32z"/><path d="m480-626h-32v-144h32z"/><path d="m400-597v18h-64v-18z"/><path d="m400-602v5h-64v-5z"/><path d="m432-602h8l-4.8 32h-3.2z"/><path d="m400-579v9h-64v-9z"/><path d="m336-570h64 32 3.2l-11.25 75h-36.95-40-27v-11-64z"/><path d="m672-474v32 160h-96v-32-128-32z"/><path d="m464-282h16 64 32 96v32 32 32h-32-160-16z"/><path d="m387-495h36.95l-3.15 21-2.85 19h-30.95z"/><path d="m387-455h30.95l-1.95 13h-16-24v-8-5z"/><path d="m400-266v-16-32-96-32h16v160 16 24h-16z"/><path d="m336-410h24 16 24v96h-24-16-24-16v-96z"/><path d="m448-202v-24-16-24-16h16v96h-16z"/><path d="m416-226v24h-96v-24z"/><path d="m416-266v-16h32v16z"/><path d="m400-266v24h-80v-24z"/><path d="m320-242h80 16 32v16h-32-96-32v-16z"/><path d="m320-266h-32-32-32-96-24-8v-16h8 216z"/><path d="m336-282h24 16 24v16h-80v-16z"/><path d="m224-730v-112-40-8h152v120 104h-152z"/><path d="m376-666v40h-152v-40z"/><path d="m-48-762v-96-32h2.5856l13.4144 3.0392v60.9608 96h-16z"/><path d="m-32-886.9608-13.4144-3.0392h13.4144 160v8 24h-7.8515-24.321z"/><path d="m-88-762h16v32h-16z"/><path d="m-72-762h-16-24-16v-96h16 24 16 24v96z"/><path d="m-88-858v-32h16v32z"/><path d="m-112-890v32h-16v-29.0255l13.1326-2.9745z"/><path d="m-128-762h16v32h-16z"/><path d="m292-602h12v32h-2.6667z"/><path d="m301.3333-570h2.6667 16v64z"/><path d="m320-474v-21h27v40 5h-27z"/><path d="m128-666v-64h8v64z"/><path d="m-112-730h24 16 24 16v96h-16-24-16-24-16v-29.0255-66.9745z"/><path d="m-48-602v-32h16v32z"/><path d="m-72-634v32h-8-8v-32z"/><path d="m-80-314v-64-128h80v224h-80z"/><path d="m46-521h-126v-40h126z"/><path d="m-80-521h126 40 10v15h-32-64-80z"/><path d="m128-506h-32v-15-40-41h32z"/><path d="m46-521v-40h40v40z"/><path d="m-80-602h8 24 16 128v41h-10-40-126z"/><path d="m96-521h-10v-40h10z"/><path d="m347-455h29v5h-29z"/><path d="m360-442h-24-16v-8h27 29v8z"/><path d="m192-442h-64v-8h64z"/><path d="m360-410v-32h16v32z"/><path d="m320-410v-32h16v32z"/><path d="m360-282v-32h16v32z"/><path d="m320-282v-32h16v32z"/><path d="m288-242v16 24h-32v-24-16-24h32z"/><path d="m224-226v-16h32v16z"/><path d="m128-226v-16-24h96v24 16 24h-96z"/><path d="m-80-282h80 64 32v16 24 16 24h-176z"/><path d="m96-226v-16h32v16z"/><path d="m-128-602v-32h16v32z"/><path d="m-96-506v-96h8 8v41 40 15 128h-16z"/><path d="m-80-378v64h-16v-64z"/><path d="m-248.3815-602h120.3815 16 16v96h-152.3815z"/><path d="m-80-282v80h-48v-16-64l32-32h16z"/><path d="m96-186h-32-96-32-32-32v-16h48 176z"/><path d="m320-186h-224v-16h32 96 32 32 32z"/><path d="m416-202h32v16h-128v-16z"/><path d="m616 302h88v120h-88z"/><path d="m512 262v8h-8v-8z"/><path d="m512 302h8v120h-8z"/><path d="m376 302h128 8v120 32h-8-24-104z"/><path d="m616 422h88v64h-88z"/><path d="m512 454v-32h8v32z"/><path d="m256 6v-32h120v80 16 128h-120z"/><path d="m376 198v8 24h-120v-32z"/><path d="m376-58v32h-120v-32-32h120z"/><path d="m160 54h64v176h-64z"/><path d="m256 358v-128h120v72 152h-120z"/><path d="m496-842h-16z"/><path d="m128-858v-24 40z"/><path d="m224-890v8z"/><path d="m480-842v40z"/><path d="m224-842v112z"/><path d="m224-666v40-60-32-12z"/><path d="m376-626h72-72-152z"/><path d="m448-770h-32z"/><path d="m128-634v-32 64z"/><path d="m128-666h8z"/><path d="m704 422v-120 184z"/><path d="m768-538v-32z"/><path d="m768-538-64 64z"/><path d="m864 486h192z"/><path d="m408-90h40z"/><path d="m448-90v-64z"/><path d="m672-218v-32z"/><path d="m672-218v16 16z"/><path d="m544-282h-64z"/><path d="m576-442v128z"/><path d="m464-282h-16 32z"/><path d="m96-442h32z"/><path d="m423.95-495 11.25-75 4.8-32-4.8 32-14.4001 96h.0001z"/><path d="m387-495h-40z"/><path d="m336-579v9z"/><path d="m336-597v18z"/><path d="m400-579v-18z"/><path d="m400-597v-5z"/><path d="m400-579h-64z"/><path d="m400-597h-64z"/><path d="m347-495v40z"/><path d="m128-442v-8z"/><path d="m256 6v192 32-24-136-32z"/><path d="m376 206v-8-128z"/><path d="m376-26v-32 40 56 16z"/><path d="m520 422v-120 152z"/><path d="m376 230v-24z"/><path d="m376 230v72z"/><path d="m504 454h-24z"/><path d="m224 54v176z"/><path d="m0-506v32 160 32z"/><path d="m-96-186h32z"/><path d="m-64-186h32z"/><path d="m224-90h-128z"/><path d="m448-154v-32z"/><path d="m448-282v-32z"/><path d="m656-634v-48z"/><path d="m704-634h-48z"/><path d="m592-634h-48z"/><path d="m592-682v48z"/><path d="m448-442h-32z"/><path d="m376-442h24z"/><path d="m320-442h-32z"/><path d="m128-442h64 96-192z"/><path d="m336-442h24z"/><path d="m128-634v32z"/><path d="m-88-602h-8-16 2.1501z"/><path d="m-128-602h-120.3815 5.9994z"/><path d="m-48-602h-24z"/><path d="m96-602h-128 146.1501 13.8499z"/><path d="m128-858h-13.8498 5.9983z"/><path d="m-32-886.9608v28.9608 32z"/><path d="m-128-663.0255v29.0255 32-32z"/><path d="m-72-890v32z"/><path d="m-48-858v-32z"/><path d="m-112-890v32z"/><path d="m-88-858v-32z"/><path d="m-72-762v32z"/><path d="m-112-762v32z"/><path d="m416-282h32z"/><path d="m336-282h24z"/><path d="m416-442v32 96 32z"/><path d="m336-410h24z"/><path d="m336-410v-32z"/><path d="m360-282v-32z"/><path d="m400-314v32z"/><path d="m376-314v32z"/><path d="m96-314v-128z"/><path d="m96-314v32z"/><path d="m96-186v32z"/><path d="m96-242v-24z"/><path d="m448-186h-32-96z"/><path d="m224-266v24z"/><path d="m416-242h32z"/><path d="m448-266h-32z"/><path d="m448-226h-32z"/><path d="m320-226h-32z"/><path d="m288-242h32z"/><path d="m224-242h32z"/><path d="m256-226h-32z"/><path d="m128-226h-32z"/><path d="m96-242h32z"/><path d="m96-202h32z"/><path d="m864 486v64z"/><path d="m-248.3815-602h-7.6185 13.6179z"/><path d="m-256-602h7.6185v96h-7.6185z"/><path d="m-264-730h8v48 16h-8z"/><path d="m-256-730h-8z"/><path d="m387-495v40h-40v-40z"/><path d="m387-495v40z"/><path d="m387-455h-11-29z"/><path d="m704 262v-32h32v32z"/><path d="m552 486h-16z"/><path d="m616 302h88z"/><path d="m616 302v120 64z"/><path d="m552 454v-152 184z"/><path d="m520 454h-16 8z"/><path d="m520 302h16 16v152h-16-16z"/><path d="m552 486h-16v-32h16z"/><path d="m-256-746v16z"/><path d="m-256-954v-96z"/><path d="m-256-746v-112.0336.0336 32 48z"/><path d="m-256-506h7.6185z"/><path d="m332-598v32h72v-32z"/><path d="m704 230v32z"/><path d="m704 230h32z"/><path d="m704 262h32z"/><path d="m704 230v32h32v-32z"/><path d="m736 262v-32z"/><path d="m616 486h88z"/><path d="m688 278h-152z"/><path d="m688 254v24h-152v-8-16z"/><path d="m616 302v184z"/><path d="m584 302v184z"/><path d="m552 302h32v184h-32z"/><path d="m536 486v-32z"/><path d="m592-842v32h64v-32z"/><path d="m616 486h-32z"/><path d="m536 270v8z"/><path d="m536 254v16z"/><path d="m688 278v-24z"/><path d="m688 254h-152z"/><path d="m688 278v-24h-152v16 8z"/><path d="m616 302v184z"/><path d="m616 302v184z"/><path d="m704 302h-88v184h88z"/><path d="m584 302h32v184h-32z"/><path d="m656-842v32z"/><path d="m592-810v-32z"/><path d="m656-810h-64z"/><path d="m592-842h64z"/><path d="m592-810v-32h64v32z"/><path d="m-48-1242h47.9382z"/><path d="m-80-1242h-47.9368z"/><path d="m-80-1242v-6z"/><path d="m-48-1242h-32v-6h32z"/><path d="m-147.1308-1146 6.398-32 12.796-64-31.99 160z"/><path d="m-140.7328-1178h.0001-.0001l12.796-64z"/><path d="m31.9283-1082h.0717z"/><path d="m-.0618-1242 12.796 64z"/><path d="m24-1178h-11.2658z"/><path d="m12.7342-1178h11.2658v32h-4.8677z"/><path d="m-147.1308-1146 6.3981-32h-.0001z"/><path d="m-152-1146h4.8692z"/><path d="m-147.1308-1146h-4.8692v-32h11.2673z"/><path d="m224-686v60z"/><path d="m224-730v12z"/><path d="m224-718h-4z"/><path d="m220-686h4z"/><path d="m220-718h4v32h-4z"/><path d="m672-250v-32z"/><path d="m672-282v-160z"/><path d="m672-282h8z"/><path d="m672-250v-32h8v32z"/><path d="m256 454v-96z"/><path d="m536 454h-16z"/><path d="m520 454h16-32z"/><path d="m256 454h48z"/><path d="m480 454h24-24-144z"/><path d="m480 454h-144-32-48 120z"/><path d="m336 458v-4z"/><path d="m304 454h32v4h-32z"/><path d="m-32-178v-8z"/><path d="m-64-178v-8h32v8z"/><path d="m332-566v-32z"/><path d="m404-598v32z"/><path d="m404-566h-72z"/><path d="m332-598h72z"/><path d="m332-566v-32h72v32z"/><path d="m-256-602v96z"/><path d="m-256-602v96-160z"/><path d="m-256-890v144 16 64-64z"/><path d="m-256-890v-64 95.9664 112.0336z"/><path d="m136-730v64z"/><path d="m128-666h8v-64h-8z"/><path d="m128-730h8z"/><path d="m848 486h16z"/><path d="m864 454v-59-40-93 224z"/><path d="m704 358h16v37 59 32h-16z"/><path d="m752 486v-32h64v32z"/><path d="m724 395h-4v-37h4z"/><path d="m848 454h16v32h-16z"/><path d="m724 395h40 40 40 20v59h-16-32-64-32v-59z"/><path d="m720 358h-16v-3h20v3z"/><path d="m764 355h40v40h-40z"/><path d="m724 358v-3h40v40h-40z"/><path d="m736 262h96 32v93h-20-40-40-40-20v-53-40z"/><path d="m804 355h40v40h-40z"/><path d="m844 355h20v40h-20z"/><path d="m720 454h32z"/><path d="m720 486v-32z"/><path d="m752 502v-16h64v16z"/><path d="m752 502h64z"/><path d="m288-442h-96z"/><path d="m288-442h32z"/><path d="m192-442v-8z"/><path d="m128-602v96z"/><path d="m128-450v8h64v-8z"/><path d="m128-450h64z"/><path d="m584 486h32 88-168z"/><path d="m536 486h16 32z"/><path d="m536 302h16z"/><path d="m584 302h32z"/><path d="m552 302h32z"/><path d="m704 230v32 40h-88-32-32-16v-32-40z"/><path d="m616 302h88v53 3 128h-88z"/><path d="m-264-666h8v-64h-8z"/><path d="m-256-666h-8z"/><path d="m-264-730v64z"/><path d="m-80-1242h-47.9368 79.9368z"/><path d="m-48-1242v-6z"/><path d="m-80-1248v6h32v-6z"/><path d="m-48-1248h-32z"/><path d="m31.9283-1082-12.796-64z"/><path d="m24-1146h-4.8677z"/><path d="m19.1323-1146h4.8677v-32h-11.2658z"/><path d="m24-1146v-32z"/><path d="m-152-1178h11.2672.0001z"/><path d="m-152-1146h4.8692l6.398-32h-11.2672z"/><path d="m-152-1178v32z"/><path d="m224-686v-32h-4v32z"/><path d="m220-718v32z"/><path d="m832 262h-96z"/><path d="m736 262v-32h96v32z"/><path d="m832 262v-32z"/><path d="m672-250v-32-160 224z"/><path d="m680-250h-8z"/><path d="m672-282v32h8v-32z"/><path d="m680-250v-32z"/><path d="m336 458v-4h-32v4z"/><path d="m504 454h-24z"/><path d="m304 454v4z"/><path d="m304 458h32z"/><path d="m-32-186h96z"/><path d="m-32-186h96-128z"/><path d="m-64-178v-8z"/><path d="m-64-186v8h32v-8z"/><path d="m-64-178h32z"/><path d="m752 454v32h64v-32z"/><path d="m656-842h-64z"/><path d="m592-906v32z"/><path d="m592-906h64-32z"/><path d="m592-842v-32l32-32 32 32v32z"/><path d="m592-874 32-32z"/><path d="m656-810v-16z"/><path d="m592-842v16z"/><path d="m592-826v16h64v-16z"/><path d="m592-842v16h64v-16z"/><path d="m592-826h64z"/><path d="m656-826h-64z"/><path d="m400-602h-64z"/><path d="m832 230h-96z"/><path d="m832 198v32h-96v-32z"/><path d="m832 70v32 64h-96v-64-32z"/><path d="m736 198v32z"/><path d="m736 70v32z"/><path d="m832 166h-96z"/><path d="m336-602v5z"/><path d="m400-570h32z"/><path d="m400-570v-9z"/><path d="m400-570v-9h-64v9z"/><path d="m400-579v-18h-64v18z"/><path d="m400-597v-5h-64v5z"/><path d="m400-579h-64z"/><path d="m400-597h-64z"/><path d="m816 454v32z"/><path d="m752 486v-32z"/><path d="m752 454h64z"/><path d="m816 486h-64z"/><path d="m752 486v-32h64v32z"/><path d="m832 230v-32z"/><path d="m832 134v-32z"/><path d="m832 134v32-64z"/><path d="m736 134v-32 64z"/><path d="m736 198v32-64z"/><path d="m832 134h-96z"/><path d="m832 166v-32h-96v32z"/><path d="m832 198h-96z"/><path d="m832 166v32h-96v-32z"/><path d="m-160-1050h-32z"/><path d="m64-1050h64z"/><path d="m32-1050h32z"/><path d="m-32-1050h-128-32-64z"/><path d="m288-1050h-160z"/><path d="m-160-1082h.0732z"/><path d="m31.9283-1082h-191.8551z"/><path d="m-159.9268-1082 12.796-64z"/><path d="m32-1082v32z"/><path d="m-160-1050v-32z"/><path d="m-32-1050h64v-32h-.0717-191.8551-.0732v32z"/><path d="m872-726-44-44z"/><path d="m768-570-16-16z"/><path d="m448-890-8-8-8-8z"/><path d="m784-770h44z"/><path d="m784-770h-32 16 60z"/><path d="m784-770h-16-16z"/><path d="m560-842h-64z"/><path d="m592-842h64z"/><path d="m688-842h32 32z"/><path d="m720-842h-32-32-64-32-64z"/><path d="m592-906v32 32z"/><path d="m656-906v32z"/><path d="m656-842v-32z"/><path d="m656-874v-32h-64v64h64z"/><path d="m448-906h-16 8z"/><path d="m352-986 32 32v-72h-72z"/><path d="m384-1026h-72z"/><path d="m448-906v16l16-16z"/><path d="m448-890v-16z"/><path d="m752-770v-32z"/><path d="m656-810v-32h32v32z"/><path d="m592-810v-32h64v32z"/><path d="m560-810v-32h32v32z"/><path d="m560-842v32z"/><path d="m656-810h-64z"/><path d="m560-810h32z"/><path d="m872-670.6672v8-18.3328-40-5z"/><path d="m872-670.6672v-55.3328z"/><path d="m784-626h43.3328-59.3328z"/><path d="m752-626h16z"/><path d="m768-626h-16 32z"/><path d="m827.3328-626h8l36.6672-36.6672v-8z"/><path d="m752-594v-32 40z"/><path d="m-256-954v-96 96 64z"/><path d="m-256-730v64 160-48z"/><path d="m-256-1050v96z"/><path d="m128-914h32z"/><path d="m160-914h32z"/><path d="m192-914h32z"/><path d="m128-930v-120 136z"/><path d="m384-954v24 16z"/><path d="m376-930h-24-128v16h152z"/><path d="m128-930v16h32 32 32v-16z"/><path d="m352-986-40-40-24-24h-160v120h96 128z"/><path d="m376-930h8v-24l-32-32v56z"/><path d="m384-930h-8v16h8z"/><path d="m224-914v24z"/><path d="m384-914v24z"/><path d="m224-914v24h152v-24z"/><path d="m376-914v24h8v-24z"/><path d="m496-842h-16z"/><path d="m128-882v-8z"/><path d="m224-882v40z"/><path d="m384-890v48z"/><path d="m376-890v48h8v-48z"/><path d="m224-890v8 40h152v-48z"/><path d="m64-282v96z"/><path d="m432-602h8z"/><path d="m292-602h12z"/><path d="m480-802v8 24z"/><path d="m480-602v-24z"/><path d="m224-626v-104 12 32z"/><path d="m480-626h-32z"/><path d="m376-842v72h8v-32-40z"/><path d="m448-626v-144h-32-32-8v144z"/><path d="m448-770v144h32v-144z"/><path d="m224-842v112 104h152v-144-72z"/><path d="m384-842v40z"/><path d="m384-770v-32z"/><path d="m416-770h-32z"/><path d="m480-770h-32z"/><path d="m128-730v128-64z"/><path d="m128-842v112z"/><path d="m704 54v-16 32z"/><path d="m768-538v-32z"/><path d="m768-538-16 16-27 27-21 21z"/><path d="m832 102v-32z"/><path d="m840 166h214v32h-214-2v-32z"/><path d="m838 198h2z"/><path d="m736 102v32z"/><path d="m832 166h-96z"/><path d="m832 102h-96z"/><path d="m832 134v-32h-96v32z"/><path d="m832 134v32h-96v-32z"/><path d="m224-90h32 120 8-224z"/><path d="m384-90h-8 32z"/><path d="m224-90h-64-64z"/><path d="m256-90h-32z"/><path d="m448-186v32z"/><path d="m448-314v32z"/><path d="m448-377.9648v63.9648-128z"/><path d="m448-282v-32-63.9648 191.9648z"/><path d="m480-602v8 24z"/><path d="m480-570v-24z"/><path d="m480-538v-32z"/><path d="m480-594v-8z"/><path d="m576-474h96 32-160z"/><path d="m704-474h-32z"/><path d="m544-474h32z"/><path d="m480-538 64 64z"/><path d="m672-442v-32h-96v32z"/><path d="m672-474v32z"/><path d="m576-474v32z"/><path d="m576-282h-32z"/><path d="m576-314v32z"/><path d="m480-282h-32v96h32z"/><path d="m448-186h16 16z"/><path d="m160-442h128-96-64-32z"/><path d="m416-442h32z"/><path d="m384-442h-64-32-128z"/><path d="m420.7999-474-4.7999 32 1.95-13 2.85-19z"/><path d="m440-602h-8v32h3.2z"/><path d="m425.6-506 9.6-64h-3.2-32-64-32-2.6667l18.6667 64z"/><path d="m416-474h4.7999l4.8001-32h-105.6v32z"/><path d="m416-474v32 .0263l4.7999-32.0263z"/><path d="m384-442h32v-32h-96v32z"/><path d="m304-602h-12l9.3333 32h2.6667z"/><path d="m320-506-18.6667-64-9.3333-32 9.3333 32z"/><path d="m400-570h-64z"/><path d="m432-570v-32z"/><path d="m304-570h32-16z"/><path d="m304-602v32z"/><path d="m320-442v-32 24z"/><path d="m320-474v-32 11z"/><path d="m128-506h-64 32z"/><path d="m128-506h-64z"/><path d="m96-282v-32z"/><path d="m96-314v-64-64z"/><path d="m96-90v-64z"/><path d="m96-154v-32z"/><path d="m96-90h64l-64-64z"/><path d="m384-90h24 40v-64z"/><path d="m96-442v64l64-64z"/><path d="m416-441.9737 32 64.0089v-64.0352z"/><path d="m416-441.9737v.0003l32 64.0086z"/><path d="m96-378 64-64z"/><path d="m96-282h-32v96h32z"/><path d="m96-186h-32z"/><path d="m64-282h32z"/><path d="m256-58v-32z"/><path d="m256 70v-32 16z"/><path d="m256-18v-40 32 32z"/><path d="m256 206v-136 40 96 24z"/><path d="m256 302v-72 128z"/><path d="m256-18v24 32 32 136h120v-136-16-16-56z"/><path d="m376-58h-120v40h120z"/><path d="m256-58h120v-32h-120z"/><path d="m704 70h-3v-16h3z"/><path d="m376 54v-16h72v16z"/><path d="m520 54h-72v-16h72 165v16z"/><path d="m704 38v16h-3-16v-16z"/><path d="m448 38h-72 72 72z"/><path d="m376 70v-16z"/><path d="m376-58v-32z"/><path d="m376 302h8 96 24z"/><path d="m256 206v24 72h120v-72-24z"/><path d="m256 302h52 68z"/><path d="m96-74h-8z"/><path d="m224 54v-16h32v32 136 24h-32z"/><path d="m160 38h64v16h-64z"/><path d="m88-74h8v112h-8z"/><path d="m88 150v-112h8 64v16 176h-72z"/><path d="m160 230h64 32-96-64-8z"/><path d="m96-74v16 64 32z"/><path d="m88 150v80z"/><path d="m160 54h64z"/><path d="m160 230h64z"/><path d="m160 54v176z"/><path d="m0-282h64z"/><path d="m64-506h-64z"/><path d="m-96-506h-64-96 7.6185z"/><path d="m0-474v-32h-96v32z"/><path d="m0-282v-32h-96l-32 32z"/><path d="m0-314h-96z"/><path d="m-96-314v-160z"/><path d="m0-474v160z"/><path d="m-96-474v-32 128 64z"/><path d="m-96-314-32 32z"/><path d="m-128-282v64z"/><path d="m-128-218v16 16z"/><path d="m-128-186h32z"/><path d="m-96-186h32 128-192z"/><path d="m128-1050h-64-32-64z"/><path d="m-.0618-1242 31.9901 160-12.796-64-6.3981-32z"/><path d="m-127.9368-1242-12.796 64-6.398 32z"/><path d="m31.9283-1082-31.9901-160h-47.9382-79.9368l-19.194 96-12.796 64z"/><path d="m1056 38v-64z"/><path d="m872-726-44-44z"/><path d="m768-570 96 96z"/><path d="m752-842h-32z"/><path d="m432-906 8 8v-8z"/><path d="m440-906v8l8 8v-16z"/><path d="m752-770v-32-40z"/><path d="m720-842h-224l72 72h88 64z"/><path d="m752-770v-72h-32v72z"/><path d="m752-770h-32-64v88l56 56h40 16v-144z"/><path d="m872-670.6672v-55.3328l-44-44h-60v144h59.3328z"/><path d="m656-770h-88l88 88z"/><path d="m827.3328-626 44.6672-44.6672z"/><path d="m752-626h-40l24 24 16 16z"/><path d="m-256-778v-64-16.0336-31.9664-24-40 64 160z"/><path d="m-32-1050h-224v96 40h224z"/><path d="m128-914v-136h-160v136z"/><path d="m128-914v24z"/><path d="m-32-914h-224v24h141.1326 82.8674z"/><path d="m128-890v-24h-160v24z"/><path d="m-114.8674-890h-141.1326v31.9664z"/><path d="m128-890v48-40z"/><path d="m-32-890h-82.8674l-141.1326 31.9664v16.0336h80 144z"/><path d="m48-842h16 64v-48h-160v48z"/><path d="m480-770v-72 40 32 144 24z"/><path d="m496-842h-16v72h88z"/><path d="m656-682v56h56z"/><path d="m712-626h-56v24h48 32z"/><path d="m568-770h-88v168h176v-24-56z"/><path d="m128-842h-64v112 128h64z"/><path d="m128-842v240-128z"/><path d="m704 38v32z"/><path d="m768-538v-32l96 96h-96z"/><path d="m864-474h-96z"/><path d="m768-538v-32l-16-16v64z"/><path d="m704-495h21l27-27v-64l-16-16h-32z"/><path d="m704-474 21-21h-21z"/><path d="m707-26v64z"/><path d="m931 38h125-96-128z"/><path d="m832-26h-125 29z"/><path d="m931 38h-99-125v-64h125 99z"/><path d="m1056-26v64h-125v-64z"/><path d="m832 166v-32z"/><path d="m736 230v-96 32z"/><path d="m832 134h-96z"/><path d="m832 102v-32h-96v32z"/><path d="m736 70h96z"/><path d="m832 102v32h-96v-32z"/><path d="m384-90h-224z"/><path d="m448-186v-191.9648 223.9648z"/><path d="m624-442h48-96z"/><path d="m480-570v32z"/><path d="m656-602v107h48v-107z"/><path d="m480-602v32 32l43 43h133v-107z"/><path d="m704-474v-21h-48-133l21 21z"/><path d="m523-495-43-43 64 64z"/><path d="m480-202v-80 96z"/><path d="m672-186h-32z"/><path d="m640-186h-160z"/><path d="m640-186h32v-16h-48-144v16z"/><path d="m624-282h-48-96v80h144z"/><path d="m624-442h-48v160h48z"/><path d="m672-218v-224h-48v160 80h48z"/><path d="m576-282h-32-64z"/><path d="m576-442v128 32z"/><path d="m384-442h-224 80.2475z"/><path d="m415.9868-442h.0132-32z"/><path d="m64-602v96h64v-96z"/><path d="m128-602v96z"/><path d="m96-378v64 32 96 32z"/><path d="m160-90-64-64z"/><path d="m96-154 64 64z"/><path d="m384-90 64-64z"/><path d="m384-90 64-64z"/><path d="m520 38h16 166 2-19z"/><path d="m704 38h-2z"/><path d="m536 38h-16z"/><path d="m704 70h-3z"/><path d="m376 54v-16z"/><path d="m448 54h-72 72 72z"/><path d="m448 38v16h72v-16z"/><path d="m376 38v16h72v-16z"/><path d="m224 54h32v-16h-96v16z"/><path d="m224 54v16h32v-16z"/><path d="m96-74h-8v16h8z"/><path d="m88 6v144 80h8v-192-32z"/><path d="m96-58h-8v64h8z"/><path d="m160 54v-16h-64v192h64z"/><path d="m160 54h64z"/><path d="m256 230h-96z"/><path d="m256 70h-32 16z"/><path d="m160 38h96-32-64-64z"/><path d="m88 6v-64-16 112 112z"/><path d="m64-282h-64-128z"/><path d="m64-506h-16-80-128 64 96z"/><path d="m-160-506h-96z"/><path d="m48-730v-112 16 32 176z"/><path d="m48-730v112 64 48h16v-96-128z"/><path d="m64-842h-16v112h16z"/><path d="m-32-554h80-88-40z"/><path d="m-176-778v224-16z"/><path d="m-256-778v48 176h80v-224z"/><path d="m-176-842h-80v64h80z"/><path d="m-32-554h-48-96-80v48h96 128z"/><path d="m48-506v-48h-80v48z"/><path d="m0-474h-96z"/><path d="m0-314v-160h-96v160z"/><path d="m-128-282v64 32z"/><path d="m64-282h-192v96h192z"/><path d="m832 166v-32-32z"/><path d="m832 198v32-32-32z"/><path d="m838 166v32z"/><path d="m1054 198v-32z"/><path d="m840 198h214v-32h-214-2v32z"/><path d="m840 198h214z"/><path d="m838 166h2z"/><path d="m1054 166h-214z"/><path d="m838 198h-6v-32h6z"/><path d="m838 166h-6z"/><path d="m712.0026-626 23.9974 24h-224l112-112z"/><path d="m704 38v16 16z"/><path d="m768-570v96h96z"/><path d="m768-570v32 64z"/><path d="m832 38h-96-29z"/><path d="m960-26h96-125-99z"/><path d="m960-26h-128-96v64h96 128z"/><path d="m1056 38v-64h-96v64z"/><path d="m707 38h29v-64h-29z"/><path d="m736 102v32 96z"/><path d="m832 70v32h-96v-32z"/><path d="m832 102h-96z"/><path d="m816 486h-64z"/><path d="m752 486h64z"/><path d="m736 230v32z"/><path d="m752 454v32z"/><path d="m752 454v32h64v-32z"/><path d="m816 486v-32z"/><path d="m752 486v16h64v-16z"/><path d="m816 502v-16z"/><path d="m752 486v16z"/><path d="m256 358v-52-4z"/><path d="m576-41.7184v8.7184z"/><path d="m704-57.7106v31.7106h-2-94-32v-7-8.7184z"/><path d="m520 54v-15.9984-.0016z"/><path d="m576 38h-40-16v.0016z"/><path d="m536 38h-16z"/><path d="m576 38h32 64 30-166z"/><path d="m608 6v32z"/><path d="m608 6v-8h64v8 32h-64z"/><path d="m608-26h94v24h-30-64z"/><path d="m702-2v-24h2v32h-2z"/><path d="m702-2v8h-30v-8z"/><path d="m702 6h2-32z"/><path d="m576-2v-24z"/><path d="m576-2v8z"/><path d="m608-2v8h-32v-8-24h32z"/><path d="m672 54h-64-88 165 16z"/><path d="m608 38v16z"/><path d="m672 38v16z"/><path d="m672 38h-64v16h64z"/><path d="m672 54h-64v-16h64z"/><path d="m504 306v-4z"/><path d="m520 302h16z"/><path d="m504 302h16-8z"/><path d="m536 302v-32z"/><path d="m536 302h-16-16v4 148h32z"/><path d="m480 306h24z"/><path d="m384 306h-76z"/><path d="m256 306h52z"/><path d="m384 302v4h96v-4z"/><path d="m480 454h-224 48 32z"/><path d="m480 306h-96-76-52v52 96h224z"/><path d="m504 454v-148h-24v148z"/><path d="m160 206v-136-16 176z"/><path d="m224 70v-16z"/><path d="m160 54v16h64v-16z"/><path d="m224 70h-64v136h80v-96-40z"/><path d="m256 110v-40h-16v40z"/><path d="m256 110h-16v96h16z"/><path d="m256 206h-16-80v24h96z"/><path d="m64 577v-40z"/><path d="m256 302v4z"/><path d="m256 247v-22h52v77h-52z"/><path d="m384 306v-4h-8-68v4z"/><path d="m504 302h-24v4h24z"/><path d="m308 302v-77 81z"/><path d="m480 302v4z"/><path d="m504 302h-24z"/><path d="m384 306v-4z"/><path d="m384 302h-8z"/><path d="m256 302h-32z"/><path d="m96 225v-26h64v26z"/><path d="m96 225h64 96v22h-32-160v-17-5z"/><path d="m256 247v55h-32v-55z"/><path d="m256 225h-96 64z"/><path d="m224 247h-160z"/><path d="m308 577v-40z"/><path d="m308 577h-20z"/><path d="m288 537h-224z"/><path d="m288 577h-224v-40h224z"/><path d="m308 537v40h-20v-40z"/><path d="m480 582h32z"/><path d="m704-57.7106v31.7106z"/><path d="m704-90v32.2894z"/><path d="m832 38h-96z"/><path d="m832 230v-32z"/><path d="m832 166v-64-32z"/><path d="m838 198v-32z"/><path d="m832 166v32h6v-32z"/><path d="m832 198h6z"/><path d="m736 38h96v32h-96z"/><path d="m832 70h-96z"/><path d="m384-90h-224z"/><path d="m448-377.9648v95.9835 79.9813 48z"/><path d="m415.9868-442h-31.9868z"/><path d="m96-314v-64 224z"/><path d="m175.746-410h48.5027l15.9988-32h-80.2475l-.1686.1687z"/><path d="m384-90 64-64z"/><path d="m96-154 64 64z"/><path d="m159.8314-441.8313.1686-.1687-64 64z"/><path d="m448-377.9648-32-64.0086-.0132-.0266z"/><path d="m376 206h-56z"/><path d="m320 110h56z"/><path d="m704-90v32.2894l-128 15.9922v-48.2816z"/><path d="m704-57.7106-128 15.9922z"/><path d="m320-26h56v80 16 40h-56z"/><path d="m376-26h8v80h-8z"/><path d="m384-26v80z"/><path d="m504 270v-8z"/><path d="m536 230h168z"/><path d="m512 270v-8h-8v8z"/><path d="m536 454v32z"/><path d="m536 270v-40z"/><path d="m512 270h-8z"/><path d="m504 262h8z"/><path d="m512 262v8z"/><path d="m536 302v152z"/><path d="m376 306h8-64z"/><path d="m384 230v76z"/><path d="m320 230v-24z"/><path d="m384 230h-8z"/><path d="m376 230h8v76h-8z"/><path d="m320 230v-24h56v24 76h-56z"/><path d="m308 225h-52z"/><path d="m308 225h-52v77 4h52z"/><path d="m160 225h64z"/><path d="m160 225v-26z"/><path d="m224 247v55z"/><path d="m256 225h-32v22 55h32z"/><path d="m512 582v192z"/><path d="m480 582h32v192h-32z"/><path d="m320-26v136z"/><path d="m376-26h8-8-56z"/><path d="m376 70v-16z"/><path d="m376 110v-40z"/><path d="m376 54h8z"/><path d="m384-26h-8v80h8z"/><path d="m376 70v-16-80h-56v136h56z"/><path d="m320 206v24h56v-24z"/><path d="m376 230v-24z"/><path d="m520 54v16z"/><path d="m608 54h-88z"/><path d="m672 54h-64z"/><path d="m672 54h-64z"/><path d="m608 54h64z"/><path d="m701 54h-29z"/><path d="m608 54v-16z"/><path d="m672 54v-16z"/><path d="m520 70v-16h88 64 29v16z"/><path d="m701 70v-16z"/><path d="m480 774h32z"/><path d="m288 577h-224z"/><path d="m308 537h-20z"/><path d="m288 537h-224v40h224z"/><path d="m308 577v-40h-20v40z"/><path d="m480 582v192z"/><path d="m512 582h-32v192h32z"/><path d="m320 230v76z"/><path d="m384 230h-8-56z"/><path d="m384 306v-76h-64v76z"/><path d="m320 38v-64z"/><path d="m384-26v64h-64v-64z"/><path d="m384 38h-64z"/><path d="m64 774h96z"/><path d="m1056 38v-96 96 32 16 24 16 24 16z"/><path d="m-80-842h40 88-80-144z"/><path d="m64 230v17z"/><path d="m64 225v5z"/><path d="m308 582h172-160-64z"/><path d="m704 230v32z"/><path d="m704-151v-40-11-16 32 96z"/><path d="m805.2307-426h47.999z"/><path d="m799.4075-442-54.0183-148.4225 1.4588-.7294 72.7532 72.7531 33.6285 92.3988h-47.999z"/><path d="m746.848-591.1519-1.4588.7294 1.4589-.7295z"/><path d="m819.6012-518.3988 27.8052 76.3988 5.8233 16z"/><path d="m799.4075-442 5.8232 16-5.8233-16z"/><path d="m827.1357-90h-59.1357 32 16z"/><path d="m872-374.4258 21.2642 58.4258 41.4904 114h-38.7546-64-45.6167l-17.4653-48-52.396-144h148.3542z"/><path d="m704-394h12.522l52.396 144h-15.4181-49.4999z"/><path d="m969.8734-105.5068 5.6437 15.5068h-79.5171v-112h38.7546z"/><path d="m896-202v112h-64v-112z"/><path d="m832-90h-4.8643l-40.7524-112h45.6167z"/><path d="m872-374.4258 10 27.4761 11.2643 30.9497h-.0001z"/><path d="m864.8762-394 7.1238 19.5748v-.0008.0002z"/><path d="m934.7546-202-41.4904-114h.0001-.0001l10.9186 30 65.6902 180.4936.0004-.0004z"/><path d="m753.4999-250h15.4181z"/><path d="m753.4999-250h-49.4999z"/><path d="m736-58 32-32h59.1357 4.8643v32 96h-96z"/><path d="m832-58h64 112 48v96h-224z"/><path d="m896-90v32h-64v-32z"/><path d="m896-90h79.5171.4829l32 32h-112z"/><path d="m976-90 32 32z"/><path d="m832 166v64-32-32-96-32z"/><path d="m1056 38v128h-95.8603-128.1397v-128z"/><path d="m1056 166v32h-31.8516l-64.0087-32z"/><path d="m960.1397 166h.0001-32.1398-32-64z"/><path d="m1056 198h-31.8514-.0002z"/><path d="m1024.1484 198h.0002l-64.0088-32h-.0001z"/><path d="m720 486h-16z"/><path d="m720 486h32z"/><path d="m864 262h-32z"/><path d="m864 262v96 128z"/><path d="m848 486v-32z"/><path d="m752 454h64z"/><path d="m848 454h-32z"/><path d="m816 486v-32h32v32z"/><path d="m752 486v-32h64v32z"/><path d="m720 486v-32h32v32z"/><path d="m64 537h192v45h-192z"/><path d="m256 537h32 20v40 5h-52z"/><path d="m308 577v-40h40v40z"/><path d="m288 537h-32-192v-83-32-64h192 32z"/><path d="m376 358v64 115h-28-40-20v-179z"/><path d="m96 199v26h64v-26z"/><path d="m256 262v40h-32v-40z"/><path d="m224 230v-5h-64-64-32v5z"/><path d="m224 262v40h-160v-40z"/><path d="m224 247v-17h-160v17z"/><path d="m224 302h32v4 52h-192v-56z"/><path d="m288 358h-32v-52h120v52z"/><path d="m96-58v-15h6v40h-6z"/><path d="m102-73h40v40h-40z"/><path d="m142-73h18v40h-18z"/><path d="m96-90v-64l64 64v17h-18-40-6z"/><path d="m320-26v64 32h-64-32v-96z"/><path d="m348 577h132v5h-172v-5z"/><path d="m376 537h104v40h-132v-40z"/><path d="m376 422h8 96v32 32 51h-104z"/><path d="m384 306v-44h32 32 32v160h-96z"/><path d="m376 358v-52h8v116h-8z"/><path d="m384 206v19 37 44h-8-120v-4-40-32-24z"/><path d="m384 206h32v19h-32z"/><path d="m384 225h32v5 32h-32z"/><path d="m320 70h96v32 8h-160v-8-32z"/><path d="m416 110v42 54h-32-128v-96z"/><path d="m704 70v-16h-32-64-32-56v16z"/><path d="m384 38h64v32h-32-96v-32z"/><path d="m608 38h-32v.0131 15.9869h32z"/><path d="m576 54v-15.9869l-56-.0115v15.9984z"/><path d="m704 38h-32v16h32z"/><path d="m384 38v-64h64v64z"/><path d="m320-26h-96-32-32-64v-7h6 40 18 160z"/><path d="m384-33h64v7h-64-64v-7z"/><path d="m384-33h-64-160v-40-17h224z"/><path d="m448-90v57h-64v-57z"/><path d="m480-90h96v57 7h-64-64v-7-57z"/><path d="m448-154v64h-64z"/><path d="m448-154v-48h32v11 40 61h-32z"/><path d="m508-191h40v40h-40z"/><path d="m480-191h28v40h-28z"/><path d="m704-191v40h-156v-40z"/><path d="m624-202h80v11h-156-40-28v-11z"/><path d="m508-151h40 156v61h-128-96v-61z"/><path d="m160-441.4934-.1688-.3377.1688-.1689z"/><path d="m240-442h.2476l-.2476.4952z"/><path d="m180-425h40 11.7481l-7.4995 15h-48.5029l-7.4995-15z"/><path d="m180-425v-40h40v40z"/><path d="m240-442v.4952l-8.2519 16.5048h-11.7481v-40h20z"/><path d="m180-425h-11.7538l-8.2462-16.4934v-.5066-23h20z"/><path d="m160-602h80v137h-20-40-20z"/><path d="m415.9868-442h32.0132v.2618 63.7734z"/><path d="m640-218h32 32v16h-80v-16z"/><path d="m640-250v32h-16v-32z"/><path d="m624-281.9813v-112.0187h16 32 32v144h-32-32-16z"/><path d="m640-426.9544v.9544 32h-16v-52.8652z"/><path d="m512-473.736 64.4951-32.2453 47.5049 59.1161v52.8652 112.0187h-176v-95.9835-63.7734z"/><path d="m624-281.9813v31.9813 32 16h-144-32v-79.9813z"/><path d="m448 38v-64 16 24 16 24 16z"/><path d="m640-426v-.9544z"/><path d="m704-394h-32z"/><path d="m672-250h-32z"/><path d="m624-446.8652-47.5049-59.1161 63.5049 79.0269z"/><path d="m448-441.7382v.0002l32-15.9989 32-15.9991z"/><path d="m512-26h-31.9492-.0508-32z"/><path d="m576-2v-24z"/><path d="m576 6v-8z"/><path d="m672 54v-16z"/><path d="m704 6h-32z"/><path d="m608 38v-32z"/><path d="m240-465v-137 128 32z"/><path d="m96-90v17 15z"/><path d="m160-26h32z"/><path d="m704 486h-168z"/><path d="m536 262v192 32-32z"/><path d="m480 262h-32z"/><path d="m416 230v32z"/><path d="m480 577v-40-51 96z"/><path d="m480 486v-32z"/><path d="m480 262v96 64z"/><path d="m704-90h-128z"/><path d="m376-442h39.9868-31.9868-143.7525.0001z"/><path d="m96-314v-64z"/><path d="m96-282v-32 160z"/><path d="m160-441.4934 15.7457 31.4934h.0003l-15.9146-31.8313-.0002.0002z"/><path d="m224.2486-410 7.4995-15 8.2519-16.5048.2476-.4952h-.0001l-15.9988 32z"/><path d="m448-377.9648-32.0132-64.0352z"/><path d="m175.7457-410h48.5029.0001-48.5027z"/><path d="m159.8312-441.8311.0002-.0002-63.8314 63.8313z"/><path d="m384-26h-64z"/><path d="m576-26v-7z"/><path d="m576-90v48.2816 8.7184z"/><path d="m608 38h-32z"/><path d="m608 38h64z"/><path d="m672 38h-64z"/><path d="m704 38h-2-30z"/><path d="m672 38v-32z"/><path d="m576 6h32z"/><path d="m520 70h181 3z"/><path d="m384 38v-64z"/><path d="m536 262v-32 40 32 152z"/><path d="m64 225h32z"/><path d="m96 225v-26z"/><path d="m96 199h64z"/><path d="m224 225v5 17z"/><path d="m160 678v96h-96v-128-32h96z"/><path d="m256 614v64h-32-32-32v-64z"/><path d="m256 582v32h-96-96v-32z"/><path d="m-80-554h-96z"/><path d="m48-554h-88z"/><path d="m-40-826v-16h-40v16z"/><path d="m16-802v40h16v-40z"/><path d="m-160-802v40h16v-40z"/><path d="m32-634h-16v32 8h16z"/><path d="m16-722v40h16v-40z"/><path d="m-72-570h-8v16h40v-16z"/><path d="m-160-722v40h16v-40z"/><path d="m-144-602v-32h-16v40h16z"/><path d="m-80-570h8z"/><path d="m-72-570h32-8z"/><path d="m-160-634v40z"/><path d="m16-602v-32 8z"/><path d="m16-594v-8z"/><path d="m64 537v45 32h-31.933-.067-145v-160h145.067 31.933z"/><path d="m608 6v32h64v-32z"/><path d="m-72-826h24 8-40z"/><path d="m-40-826v-16z"/><path d="m16-626v-8z"/><path d="m16-714v-8z"/><path d="m16-714v24 8-40z"/><path d="m16-794v24 8-40z"/><path d="m16-762h16z"/><path d="m16-682h16z"/><path d="m-144-626v-8 32z"/><path d="m-144-690v-24-8 40z"/><path d="m-144-690v8z"/><path d="m-144-770v8z"/><path d="m-144-770v-24-8 40z"/><path d="m-48-714h64z"/><path d="m-72-714h-72z"/><path d="m-72-770h-72z"/><path d="m-48-794h64z"/><path d="m-72-826v32h24v-32z"/><path d="m-72-770h24 64v-24h-64-24-72v24z"/><path d="m-72-770v56z"/><path d="m-48-770h-24v56h24z"/><path d="m-72-690h24 64v-24h-64-24-72v24z"/><path d="m-72-626h-72z"/><path d="m-72-626v-64z"/><path d="m-48-690h-24v64h24z"/><path d="m-72-602h24 64v-24h-64-24-72v24z"/><path d="m-144-722h-16z"/><path d="m-144-802h-16z"/><path d="m-144-634h-16z"/><path d="m-48-602v32z"/><path d="m-72-602v32h24v-32z"/><path d="m672 6v32z"/><path d="m608 38v-32z"/><path d="m672 38h-64z"/><path d="m608 6h64z"/><path d="m608 38v-32h64v32z"/><path d="m160 774h32z"/><path d="m1056 774v-64z"/><path d="m1056 262v224z"/><path d="m704-26v32z"/><path d="m704-57.7106v-32.2894 64z"/><path d="m832 230h-96z"/><path d="m736 230v-78-50-32 32z"/><path d="m736 102v-32z"/><path d="m736 230v-64-14z"/><path d="m752 486h64z"/><path d="m1056 486h-192z"/><path d="m816 486h32 16z"/><path d="m720 486h32 64 48v-128h-32-96-32v96 32z"/><path d="m736 262h-32v96h32z"/><path d="m832 358v-96-32h-96v32 96z"/><path d="m864 358v-96h-32v96z"/><path d="m864 358v-96h192v224h-192z"/><path d="m704 262h32z"/><path d="m536 230h168z"/><path d="m192-282h-96z"/><path d="m96-282v-32z"/><path d="m192-282h-96v96h96z"/><path d="m96-101v-85-96 128 64z"/><path d="m96-58v-32z"/><path d="m536 230v32z"/><path d="m704 358v-96-32h-168v32 192h168z"/><path d="m536 454v32h168v-32z"/><path d="m480 614v-32h32v32z"/><path d="m160 678h32z"/><path d="m192 678h32z"/><path d="m160 774v-96z"/><path d="m160 774v-96h32v96z"/><path d="m32 614h-145z"/><path d="m-113 614h145-145-48z"/><path d="m-113 454h-48z"/><path d="m-113 614v-160z"/><path d="m-161 454v160z"/><path d="m-113 454v160h-48v-160z"/><path d="m-48-826h8z"/><path d="m-48-826h-24z"/><path d="m-72-826h-8z"/><path d="m-72-570h24z"/><path d="m16-602h-64z"/><path d="m-72-602h-72z"/><path d="m16-602v-24-8z"/><path d="m16-682v-8z"/><path d="m16-762v-8z"/><path d="m-144-634v8z"/><path d="m-144-722v8z"/><path d="m-144-802v8z"/><path d="m16-770h-64z"/><path d="m-144-794h72z"/><path d="m-72-794v-32z"/><path d="m-48-826v32z"/><path d="m-72-794v-32h24v32z"/><path d="m-72-794h24 64v24h-64-24-72v-24z"/><path d="m-48-770v56z"/><path d="m-72-770h24v56h-24z"/><path d="m-72-690h-72z"/><path d="m16-690h-64z"/><path d="m-72-714h24 64v24h-64-24-72v-24z"/><path d="m-48-626h64z"/><path d="m-48-690v64z"/><path d="m-72-690h24v64h-24z"/><path d="m-72-626h24 64v24h-64-24-72v-24z"/><path d="m-72-570v-32z"/><path d="m-48-602v32h-24v-32z"/><path d="m160 774h32 32z"/><path d="m864 774h192z"/><path d="m-352 166v64 160-208z"/><path d="m-352 390v64 160-64-32-112z"/><path d="m736-602-112-112z"/><path d="m-176-842h96z"/><path d="m-40-842h88z"/><path d="m512-602h224z"/><path d="m624-714-112 112z"/><path d="m872-374.4258v-.0002l10 27.4763z"/><path d="m882-348h16z"/><path d="m893.2643-316-11.2643-30.9497v-1.0503h16v32z"/><path d="m832 230v-64z"/><path d="m736 152v14z"/><path d="m736 152v-50z"/><path d="m832 230v-64h-96v64z"/><path d="m832 166h-32-64z"/><path d="m864 486v64 32z"/><path d="m448-441.738v-.0002-.2618z"/><path d="m480-26h-32z"/><path d="m480.0508-23.4496v4.9001.5495h-.0508v-8h.0508z"/><path d="m511.8501-18.5495h.1499v.5495h-31.9492v-.5495z"/><path d="m512-26v2.5504h-.1499-31.7993v-2.5504z"/><path d="m511.8501-23.4496h.1499v4.9001h-.1499z"/><path d="m480.0508-18h31.9492-32z"/><path d="m512-2v56.0111z"/><path d="m480-2h32v56.0111l-32 7.999z"/><path d="m448-442h-32.0132-39.9868z"/><path d="m160-442-.1688.1689-63.8312 63.8311z"/><path d="m192-202v-80 96z"/><path d="m96-378v64z"/><path d="m192-186h-96z"/><path d="m192-186h-96z"/><path d="m192-202v16h-96-32v-16z"/><path d="m96-282h96v80h-128v-80z"/><path d="m96-154v-32 85z"/><path d="m96-101v-21-32z"/><path d="m192-154v-32h-96v32z"/><path d="m160-26h-64z"/><path d="m160-18v-8h32v8z"/><path d="m160 54.2414v-56.2414h32v64.2404z"/><path d="m480 422v32z"/><path d="m480 422h8v31.5.5h-8z"/><path d="m488 422v.7 30.8z"/><path d="m488 454v-.5z"/><path d="m864 582v192z"/><path d="m224 678h32z"/><path d="m192 774v-96z"/><path d="m192 774v-96h32v96z"/><path d="m-40-554h88-128z"/><path d="m-40-842v16h-8-24-8v-16z"/><path d="m-80-842v16z"/><path d="m-40-570h-8z"/><path d="m32-634v40z"/><path d="m32-682v-40z"/><path d="m32-762v-40z"/><path d="m-160-722v40z"/><path d="m-160-802v40z"/><path d="m-160-634h16v32 8h-16z"/><path d="m-160-682v-40h16v40z"/><path d="m16-602v-32h16v40h-16z"/><path d="m16-682v-40h16v40z"/><path d="m-160-762v-40h16v40z"/><path d="m16-794v-8h16v40h-16z"/><path d="m16-682v-8-24-8z"/><path d="m16-762v-8-24z"/><path d="m16-802v8z"/><path d="m32-722h-16z"/><path d="m32-802h-16z"/><path d="m32-634h-16z"/><path d="m-144-634v8 24z"/><path d="m-144-722v8 24 8z"/><path d="m-144-802v8 24 8z"/><path d="m-160-762h16z"/><path d="m-160-682h16z"/><path d="m16-594h16z"/><path d="m-144-594v-8z"/><path d="m-160-594h16z"/><path d="m-80-554v-16h8 24 8v16z"/><path d="m-80-570v16z"/><path d="m-40-554v-16z"/><path d="m32.067 614h-.067z"/><path d="m-192 230v224h-64v-224z"/><path d="m-256 134h64v32 64h-64z"/><path d="m-140-101h-46v-40h46z"/><path d="m-96 166v16h-64v-16z"/><path d="m-100-141v40h-40v-40z"/><path d="m-96 134v32h-64v-32z"/><path d="m-64-141v40h-36v-40z"/><path d="m-64-202v16 45h-36-40-46v-61z"/><path d="m-140-101h40 36v43 192h-32-64-26v-224-11z"/><path d="m-64 134v-192h64v224h-64z"/><path d="m64-186h-128v-16h102 26z"/><path d="m-186-90v224h-6-64v-224z"/><path d="m-256-282h70v80 61 40 11h-70z"/><path d="m38-202h-102-122v-80h154 70z"/><path d="m64-202h-26v-80h26z"/><path d="m-96 166h-64z"/><path d="m-186 134h26-32z"/><path d="m-96 182v-16z"/><path d="m-160 166v16z"/><path d="m-96 182h-64z"/><path d="m-192 230v160 64z"/><path d="m-192 454h6v160h-70v-160z"/><path d="m-186 454h25v160h-25z"/><path d="m-256-90v224h-96v-192-32z"/><path d="m-352-202v-80h96v192h-96z"/><path d="m-256 230v224h-96v-64-160z"/><path d="m-352 166v-32h96v96h-96z"/><path d="m-256 614h-96v-160h96z"/><path d="m160.0508-23.4495v4.9h31.7993v-4.9z"/><path d="m488 422h-8z"/><path d="m488 422.7h-4.8997v30.8h4.8997z"/><path d="m488 422.7v-.7z"/><path d="m160 774h64 32z"/><path d="m48-842h-88-40-96z"/><path d="m192-186v32z"/><path d="m96-186h-32z"/><path d="m192-186v32h-96v-32z"/><path d="m192-122v-32h-96v32z"/><path d="m192-154h-96z"/><path d="m192-154h-96z"/><path d="m256 102v-32z"/><path d="m256 184v-32-50 8 96z"/><path d="m256 184v22z"/><path d="m416 152h4z"/><path d="m416 184v46-5-19-54z"/><path d="m416 184v-32h4v32z"/><path d="m256 184h-6z"/><path d="m256 152v32h-6v-32z"/><path d="m224 774v-96h32v96z"/><path d="m224 774v-96z"/><path d="m48-618v48 16z"/><path d="m-176-794v-32-16 64z"/><path d="m-160-826h192 16v-16h-224v16z"/><path d="m32-570h-192z"/><path d="m32-794v-32 224z"/><path d="m32-794v192 32h16v-48-176z"/><path d="m48-826h-16v32h16z"/><path d="m-160-794v224z"/><path d="m-176-794v16 208h16v-224z"/><path d="m-160-826h-16v32h16z"/><path d="m-80-554h128v-16h-16-192-16v16z"/><path d="m480.0508-23.4495v-.0001h31.7993v.0001z"/><path d="m511.8501-18.5495h-31.7993z"/><path d="m511.8501-23.4495v-.0001 4.9001z"/><path d="m480.0508-18.5495v-4.9001.0001z"/><path d="m480.0508-18.5495v-4.9h31.7993v4.9z"/><path d="m893.2643-316h4.7357z"/><path d="m898-316v-32z"/><path d="m882-346.9497-10-27.4763v.0008l21.2642 58.4252h.0001z"/><path d="m898-348h-16v1.0503l11.2643 30.9497h4.7357z"/><path d="m882-348v1.0503z"/><path d="m480-26h32-32.2452-31.7548z"/><path d="m512-2h-32z"/><path d="m512-18v-.5495-4.9001-2.5504z"/><path d="m480-26v8z"/><path d="m512-18v-8h-32v8z"/><path d="m480-2v64.0101z"/><path d="m512-2h-32v64.0101l32-7.999z"/><path d="m480 62.0101 32-7.999z"/><path d="m224-26h-32z"/><path d="m192-26h32-32-32z"/><path d="m160-2h32z"/><path d="m192-26v2.5504 4.9001.5495z"/><path d="m160-18v-.5495-4.9001-2.5504z"/><path d="m192-26h-32v2.5504h.0508 31.7993.1499z"/><path d="m191.8501-18.5495h.1499v-4.9001h-.1499z"/><path d="m160-23.4496v4.9001h.0508v-4.9001z"/><path d="m191.8501-18.5495h-31.7993-.0508v.5495h32v-.5495z"/><path d="m160.0508-23.4496v.0001h31.7993v-.0001z"/><path d="m191.8501-18.5495h-31.7993z"/><path d="m191.8501-23.4496v.0001 4.9z"/><path d="m160.0508-18.5495v-4.9-.0001z"/><path d="m192-18h-32z"/><path d="m160-2v56.2414z"/><path d="m192-2v64.2404z"/><path d="m192-2h-32v56.2414l32 7.999z"/><path d="m192 62.2404-32-7.999z"/><path d="m480 454h8z"/><path d="m488 453.5h-4.8997z"/><path d="m483.1003 422.7h4.8997z"/><path d="m480 422v.7h3.1003 4.8997v-.7z"/><path d="m480 422.7v30.8h3.1003v-30.8z"/><path d="m483.1003 453.5v-30.8z"/><path d="m483.1003 453.5h-3.1003v.5h8v-.5z"/><path d="m-160 134v32h64v-32z"/><path d="m160 774h96 32-32z"/><path d="m608 38h64v-32h-64z"/><path d="m672 54v-16h-64v16z"/><path d="m608 6h64 32-128z"/><path d="m672 6v32z"/><path d="m608 54v-16z"/><path d="m608 38h64z"/><path d="m672 38h-64z"/><path d="m672 54h-64z"/><path d="m608 6h-32z"/><path d="m192-154v32z"/><path d="m96-90v-11z"/><path d="m96-101v-21z"/><path d="m192-154v32h-96v-19-13z"/><path d="m192-90v-32h-96v21 11z"/><path d="m192-122h-96z"/><path d="m192-122h-96z"/><path d="m96-58v-32z"/><path d="m256 774v-96z"/><path d="m256 678h32z"/><path d="m256 774v-96h32v96z"/><path d="m32-826h-192z"/><path d="m32-602v32z"/><path d="m-160-826v32z"/><path d="m-160 166v-32z"/><path d="m-96 134v32z"/><path d="m-96 166h-64z"/><path d="m-160 134h64z"/><path d="m-160 166v-32h64v32z"/><path d="m256 102v50z"/><path d="m416 184v46z"/><path d="m416 184v-32z"/><path d="m416 184h4z"/><path d="m416 152v32h4v-32z"/><path d="m420 184v-32z"/><path d="m256 152h-6z"/><path d="m250 184h6v-32h-6z"/><path d="m250 152v32z"/><path d="m-352 550v64z"/><path d="m-352 406v112z"/><path d="m-352 150v-208 192 32z"/><path d="m-352-58v-144 112z"/><path d="m-352-282v32z"/><path d="m-352-218v-32-32 80z"/><path d="m-352-218v16z"/><path d="m-352-282h96z"/><path d="m-352-218h-6z"/><path d="m-352-250v32h-6v-32z"/><path d="m-358 182h6z"/><path d="m-358 182v-32h6v16 16z"/><path d="m-352 550h-6z"/><path d="m-358 550v-32h6v32z"/><path d="m288 774h192-224z"/><path d="m64 774v-128z"/><path d="m480 582h16 16z"/><path d="m192-90h-96z"/><path d="m192-90h-96z"/><path d="m192-122v32z"/><path d="m96-141v-13z"/><path d="m96-122v-19z"/><path d="m192-122v32h-96v-32z"/><path d="m192-58v-32h-96v32z"/><path d="m480 486v-32-.5-30.8-.7z"/><path d="m480 486v-64 160z"/><path d="m288 774v-96z"/><path d="m480 678v96h-192v-96z"/><path d="m32.067 454h31.933z"/><path d="m32 454h.067-145.067z"/><path d="m704 38h-96-32z"/><path d="m704 6v32h-128v-32z"/><path d="m96-141v19 32z"/><path d="m96-26v-32 25z"/><path d="m192-90v32z"/><path d="m192-58h-96z"/><path d="m192-58h-96z"/><path d="m192-90v32h-96v-32z"/><path d="m160-26h32v-32h-96v32z"/><path d="m480 774v-96z"/><path d="m480 614v-32z"/><path d="m480 582v32z"/><path d="m480 646v32h-224v-32z"/><path d="m256 582v64 32-64z"/><path d="m480 678h-192-32z"/><path d="m-352 390v-208 208 16z"/><path d="m-352-58v208z"/><path d="m-352 166v16 208z"/><path d="m-352 390v16 112 32 64z"/><path d="m-358 150h6z"/><path d="m-352-250h-6z"/><path d="m-358-250v32h6v-32z"/><path d="m-358-250v32z"/><path d="m-352 182v-16-16h-6v32z"/><path d="m-358 150v32z"/><path d="m-352 518h-6z"/><path d="m-352 550v-32h-6v32z"/><path d="m-358 518v32z"/><path d="m480-457.7369v-12.5l32-15.9989v12.4998z"/><path d="m480-457.7369v-6.4266-6.0734z"/><path d="m448-441.738 32-15.9989z"/><path d="m240-442h16z"/><path d="m256-442h.6501 31.3499 88-135.7524-.2476z"/><path d="m376-442h8 64z"/><path d="m288-442h-31.3499v-3.2495h31.3499z"/><path d="m288-445.2495h-31.3499z"/><path d="m256-450h.6501v4.7505 3.2495h-.6501z"/><path d="m256-442v-8z"/><path d="m512-481.1355v2.9174 4.4821-12.4998z"/><path d="m512-486.2358v5.1003z"/><path d="m480-457.7369v-5.5593-.8673z"/><path d="m480-470.2369v6.0734l.5916.5914 31.4084-14.646v-2.9174l-3.4003-3.4003z"/><path d="m480.5916-463.5721h-.0001l31.4085-14.646z"/><path d="m508.5997-484.5358 3.4003 3.4003z"/><path d="m508.5997-484.5358 3.4003-1.7-32 15.9989z"/><path d="m512 774h16z"/><path d="m480 774h-224z"/><path d="m256 774h-192 96z"/><path d="m1056 774h-192z"/><path d="m1056 486v96 128z"/><path d="m1056 710v64z"/><path d="m1056 166v32z"/><path d="m1056 262v96 128z"/><path d="m64 646v-32z"/><path d="m64 454v-32z"/><path d="m64 262v40 56 64z"/><path d="m528 582h-16z"/><path d="m704 6v32z"/><path d="m864.8762-394h-148.3542-12.522z"/><path d="m819.6012-518.3988 27.8054 76.3988h-.0002z"/><path d="m799.4074-442h47.999.0002-47.9991z"/><path d="m847.4064-442h-47.999l5.8233 16h47.999z"/><path d="m816 38v-96-32h-16v160h16z"/><path d="m896 110v16h32v-16z"/><path d="m896 150v16h32v-16z"/><path d="m928 150v16h32.1398l-32.0044-16-.1354-.0677z"/><path d="m1024 126v-16-24h-96v24 16 23.9323l.1354.0677h95.8646z"/><path d="m1056 126v-16h-32v16z"/><path d="m1056 166v-16h-32-95.8646l32.0044 16z"/><path d="m832 166h64v-16-24-16-24-16h-16-24-16-24-16v64 32z"/><path d="m840 38v32h16v-32z"/><path d="m880 38v32h16v-32z"/><path d="m840 38h16 24 16v-96h-16-24-16-24v96z"/><path d="m896 70v16h32 96 32v-16z"/><path d="m840-90v32h16v-32z"/><path d="m880-90v32h16v-32z"/><path d="m755.819-286h-51.819v36h49.4999 15.4181z"/><path d="m969.873-105.5064-65.6902-180.4936h-148.3638l13.099 36 58.2177 160h12.8643 16 24 16 79.5171l-.2763-.7592z"/><path d="m755.819-286h148.3638l-32.1828-88.4252-7.1238-19.5748h-160.8762v108z"/><path d="m975.5171-90h-79.5171 32 48z"/><path d="m880-90h-24z"/><path d="m800-90h-32z"/><path d="m896 86v24z"/><path d="m896 150v-24z"/><path d="m896 70h160z"/><path d="m928 110v-24z"/><path d="m928 149.9323v-23.9323 23.9323.0677z"/><path d="m1024 86v24z"/><path d="m1056 86h-32z"/><path d="m1056 110h-32z"/><path d="m1024 126v24z"/><path d="m1056 150h-32z"/><path d="m800 70v-160 160 64z"/><path d="m840 70h-24z"/><path d="m856 70h24z"/><path d="m880 38h-24z"/><path d="m856-58h24z"/><path d="m840-58h-24z"/><path d="m1056 198h-31.8514z"/><path d="m1024.1486 198-64.0088-32z"/><path d="m975.5171-90h.4829z"/><path d="m969.873-105.5064 5.6441 15.5064-5.6437-15.5068z"/><path d="m768.918-250 17.4653 48 40.7524 112z"/><path d="m768-90-32 32z"/><path d="m736-58v96z"/><path d="m1008-58h48z"/><path d="m736 38v32z"/><path d="m736 166v-64 50z"/><path d="m448 30v24z"/><path d="m575.7484-218h.2516z"/><path d="m608-218h-16z"/><path d="m672-218h-32z"/><path d="m704-218h-32z"/><path d="m639.4969-218h-15.4969z"/><path d="m640-218v-32z"/><path d="m640-378v-16z"/><path d="m640-410v16-32z"/><path d="m672-394h-32z"/><path d="m704-250h-32z"/><path d="m640-286v36h32 32v-36z"/><path d="m704-394h-32-32v16 92h64z"/><path d="m608-410h-16z"/><path d="m640-410h-16z"/><path d="m576.4951-505.9813-64.3188 32.1573 63.8237 63.824h16 16 16 16v-16-.9544z"/><path d="m512-473.736v.0002l.1763-.0882z"/><path d="m512.1763-473.824 64.3188-32.1573-64.4951 32.2453z"/><path d="m576-378v-32 32 160z"/><path d="m592-378h16z"/><path d="m576-410v32h16v-32z"/><path d="m608-410v32h16v-32z"/><path d="m592-378v-32z"/><path d="m592-218h16 16 15.4969.5031v-32-36-92h-16-16-16-16v160z"/><path d="m626.7805-186-2.7805 6.9972-16 40.2644v176.7384h96v-32-32-64-96z"/><path d="m704-218h-32-32-.5031l-12.7164 32h77.2195z"/><path d="m592-218h-16-.2516l-15.9989 32h16.2505 16z"/><path d="m624-218h-16v32h16z"/><path d="m608-138.7384 16-40.2644v-6.9972h-16z"/><path d="m576-186h-16.2505l-79.9947 160h32.2452 64z"/><path d="m608-138.7384v-47.2616h-16-16v160 24 40h32z"/><path d="m608-218v32z"/><path d="m626.7805-186 12.7164-32-15.4969 38.9972z"/><path d="m608-186h-6.4-9.6z"/><path d="m479.7548-26h-31.7548z"/><path d="m559.7495-186 15.9989-32-95.9936 192z"/><path d="m576-26h-64z"/><path d="m576 38v-40 8 32 .0131z"/><path d="m96-58v-32z"/><path d="m224-26h-32z"/><path d="m192-58v32z"/><path d="m192-58v32h-96v-32z"/><path d="m224 30v24z"/><path d="m224 70v-16-24-16-24-16z"/><path d="m224 14v-24z"/><path d="m224 14v16h32v-16z"/><path d="m224 54v16h32v-16z"/><path d="m416 54v16h32v-16z"/><path d="m416 230v-46-32-50-32-16-24-16-24h-160v24 16 24 16 32 104 24z"/><path d="m256-10h160 32v-16h-224v16z"/><path d="m416 30h32v-16h-32z"/><path d="m256 14v-24z"/><path d="m256 54v-24z"/><path d="m416-10v24z"/><path d="m448-10h-32z"/><path d="m448 70h-32z"/><path d="m256 70h-32z"/><path d="m256 102v50 32 22z"/><path d="m256 230v-24z"/><path d="m416 70v32z"/><path d="m416 102v50-42z"/><path d="m224 262h32z"/><path d="m160 262h64-160z"/><path d="m416 262h32z"/><path d="m256 230v32z"/><path d="m416 262v-32h-160v32z"/><path d="m160 358v-96 224z"/><path d="m320 358h64 96v-96h-32-32-160v96z"/><path d="m384 358v64h96v-64z"/><path d="m480 582v-160h-96-64v160z"/><path d="m160 358v128 96h96v-224z"/><path d="m256 262h-32-64v96h96z"/><path d="m320 582v-160-64h-64v224z"/><path d="m320 358v64z"/><path d="m384 422h-64z"/><path d="m528 582v192z"/><path d="m480 774v-96-32z"/><path d="m480 646v-32 160z"/><path d="m512 614v-32h16v192h-16z"/><path d="m496 614h16v-32h-16z"/><path d="m480 582v32h16v-32z"/><path d="m512 614h-16-16z"/><path d="m512 582v32z"/><path d="m480 646h-224z"/><path d="m384 614h96v32h-224v-32z"/><path d="m160 582v32h96v-32z"/><path d="m384 614h-128-96 96 32 32 56z"/><path d="m256 614v32-64z"/><path d="m32.067 614h-.067-145 145z"/><path d="m64 614h-31.933z"/><path d="m-113 614h145z"/><path d="m-113 614h-79-64 70 25z"/><path d="m32 454h.067z"/><path d="m384 422v-64h-64v64z"/><path d="m384 422v-64z"/><path d="m384 358h-64z"/><path d="m320 422v-64z"/><path d="m384 422h-8-56z"/><path d="m384 358v64h-64v-64z"/><path d="m288-442h88z"/><path d="m256.6501-445.2495v-4.7505z"/><path d="m288-445.2495v3.2495z"/><path d="m256.6501-445.2495v-4.7505h31.3499v4.7505z"/><path d="m256 774h-192z"/><path d="m480 774h-224z"/><path d="m1056 126v13 11z"/><path d="m1056 86v13 11z"/><path d="m1056 38v-96z"/><path d="m1056 166v32z"/><path d="m1056 38v32z"/><path d="m1116 139v-40h40v40z"/><path d="m1216 139h-60v-40h60z"/><path d="m1216 99h-60-40-60v-13-16h32 128z"/><path d="m1056 150v-11h60 40 60v27h-128-32z"/><path d="m1056 126v-16-11h60v40h-60z"/><path d="m1088 166h128z"/><path d="m746.8481-591.152 72.7531 72.7532-72.7532-72.7531z"/><path d="m64 646v-16-16 32 128z"/><path d="m64 630v16z"/><path d="m64 438v-176 160 32z"/><path d="m512 582h-72z"/><path d="m746.8481-591.152-1.4589.7295 54.0183 148.4225h47.9991l-27.8054-76.3988z"/><path d="m745.3892-590.4225 54.0183 148.4225h-.0001.0001z"/><path d="m976-90h-48z"/><path d="m896-90h32z"/><path d="m840-90h-12.8643-11.1357z"/><path d="m896-122v-80 48z"/><path d="m896-202v-48-32 32z"/><path d="m896-378v96z"/><path d="m800-250h-96z"/><path d="m896-378v96 32h-96-96v-144h106.8257z"/><path d="m800-122v-128h96v48 80 32h-16-24-16-24-16z"/><path d="m736-58v96 32 32 64z"/><path d="m736 166h64z"/><path d="m1056 166h-95.8602z"/><path d="m800 166h96 32 32.1398-224.1398z"/><path d="m896 38v-96-32 32 96 32z"/><path d="m1008-58h48z"/><path d="m1056-58h-48z"/><path d="m1008-58-32-32z"/><path d="m896 126v-16h32v16z"/><path d="m928 126v-16-24h96v24 16 24h-95.8646l-.1354-.0677z"/><path d="m928.1354 150 32.0044 16h-32.1398v-16-.0677z"/><path d="m1024 126v-16h32v16z"/><path d="m960.1398 166-32.0044-16h95.8646 32v16z"/><path d="m1024 86h-96-32v-16h160v16z"/><path d="m896 166v-16h32v16z"/><path d="m1056 126h-32z"/><path d="m928 126h-32z"/><path d="m896 110h32z"/><path d="m896 86h32z"/><path d="m896 150h32z"/><path d="m800 134v32z"/><path d="m816 38v32z"/><path d="m816-90v32z"/><path d="m840 38h-24z"/><path d="m856-90v32z"/><path d="m880-58v-32z"/><path d="m880-58v-32h16v32z"/><path d="m840-58v-32z"/><path d="m840-58v-32h16v32z"/><path d="m880 38h-24-16-24v-96h24 16 24 16v96z"/><path d="m856 38v32z"/><path d="m880 70v-32z"/><path d="m880 70v-32h16v32z"/><path d="m840 70v-32z"/><path d="m840 70v-32h16v32z"/><path d="m800 70v-160h16v32 96 32z"/><path d="m816 70h24 16 24 16v16 24 16 24 16h-96v-32-64z"/><path d="m736-58 32-32z"/><path d="m768-90-32 32z"/><path d="m1056 198h-31.8514z"/><path d="m1024.1486 198-64.0088-32z"/><path d="m448 14v-24z"/><path d="m640-218h-.3782-.1249z"/><path d="m640-250v32h-.5031-15.4969-16-16-16v-160h16 16 16 16z"/><path d="m704-250h-32-32v-128-16h32 32z"/><path d="m640-426.5969.4775.5969h-.4775z"/><path d="m512-481.1355v-5.1003l-3.4003 1.7z"/><path d="m480.5915-463.5721-.5915.2759v5.5593l32-15.9989v-4.4823z"/><path d="m480-464.1635v.8673l.5915-.2759z"/><path d="m608-378v-32h16v32z"/><path d="m592-378h-16v-32h16z"/><path d="m624-410h-16-16-16l-63.8237-63.824 64.3192-32.1575 63.5045 79.3846v.5969 16z"/><path d="m704-394h-32z"/><path d="m640-426.5969-63.5045-79.3846h-.0001l63.5046 79.3846.4775.5969z"/><path d="m672-250h-32z"/><path d="m640-250v30.9914 1.0086z"/><path d="m640-394v-16z"/><path d="m512-473.7358v-.0002-4.4821z"/><path d="m576-410-63.8237-63.824z"/><path d="m508.5997-484.5358 3.4003-1.7z"/><path d="m480.5915-463.5721h.0001l-.5916-.5914z"/><path d="m624-378h16z"/><path d="m608-378v-32z"/><path d="m624-410v32z"/><path d="m576-218h16v32h-16z"/><path d="m639.4969-218-15.4969 40.6042v-1.607z"/><path d="m608-218h16v32h-16z"/><path d="m479.7548-26 95.9936-192h.2516v32 176h-104.2447z"/><path d="m479.7548-26-7.9995 16h-23.7553v-16z"/><path d="m576 38v.0131l-96 23.997-32 7.9899v-16-24-16-24h23.7553 104.2447z"/><path d="m601.6-186h6.4 16v6.9972 1.607l-20.0049 52.4159-11.514 30.1683z"/><path d="m592-90 .4811-4.8116 11.514-30.1683z"/><path d="m592.4811-94.8116-.4811 4.8116-12.7183 127.1827-3.2817.8173v-48-176h16 9.6z"/><path d="m624-177.3958 15.4969-40.6042-35.5008 93.0175-.001.0026z"/><path d="m480 62.0101 96-23.997 3.2806-.82-3.2806.82-127.9635 31.9869z"/><path d="m592-218v32z"/><path d="m624-186v-32 32 6.9972z"/><path d="m288-442v-8h-31.3499-.6501v8z"/><path d="m160-474v32h80v-32z"/><path d="m288-450v8-3.2495z"/><path d="m288-450h-31.3499z"/><path d="m256-450h.6501z"/><path d="m160-474v-128 137 23z"/><path d="m96-26v-32z"/><path d="m448-26h-224z"/><path d="m224-26h-128 96z"/><path d="m224 70.2393v-.2393z"/><path d="m416 70v32 82 46h-160v-46-82-32z"/><path d="m256 14h160 32v16h-32-160-32v-16z"/><path d="m416 30v24h-160v-24z"/><path d="m416-10v24h-160v-24z"/><path d="m448-10h-32-160-32v-16h224z"/><path d="m256 54h160 32v16h-32-160-32v-16z"/><path d="m416 102v50 32z"/><path d="m448 30h-32z"/><path d="m416 14h32z"/><path d="m416 30v24z"/><path d="m416 54h32z"/><path d="m256 30h-32z"/><path d="m224 14h32z"/><path d="m256-10h-32z"/><path d="m224 54h32z"/><path d="m224-10v24 16 24 16 .2393l-128-31.9959v-64.2434h128z"/><path d="m512 454v32 96z"/><path d="m512 422v-64h16v64z"/><path d="m64 262h96z"/><path d="m256 262h-32z"/><path d="m224 262h-32z"/><path d="m416 230v32h-40-120v-32z"/><path d="m160 262v32 32 32 32 32 32 32z"/><path d="m160 486v96z"/><path d="m192 582v-160-32z"/><path d="m376 358h8-64z"/><path d="m376 326v32h-56-32-96v-96h32 32 120z"/><path d="m376 262h40 32 64v64h-32-104z"/><path d="m376 326h104v32h-96-8z"/><path d="m384 422v-64z"/><path d="m480 358h32v64h-32-96v-64z"/><path d="m320 422h56v32 128h-56z"/><path d="m376 454h104 32v128h-72-32-32z"/><path d="m376 422h8 96v32h-104z"/><path d="m288 358h32v64 160h-32z"/><path d="m288 358v224h-32-64v-192-32z"/><path d="m480 614v160z"/><path d="m512 582v32z"/><path d="m512 614v160z"/><path d="m528 582h-16v32 160h16z"/><path d="m408 614h-24-8v-32h32z"/><path d="m376 582v32h-56v-32z"/><path d="m320 582v32h-32v-32z"/><path d="m480 614h-40z"/><path d="m160 582v32z"/><path d="m408 614h32 40-96z"/><path d="m32 614h32-32-145z"/><path d="m32 614h.067 31.933z"/><path d="m-113 454h145z"/><path d="m64 454h-31.933-.067z"/><path d="m-96 166h-64z"/><path d="m-96 166v-32z"/><path d="m-160 134h64-96z"/><path d="m-160 134v32z"/><path d="m-160 166h64v-32h-64z"/><path d="m-192 166v-32z"/><path d="m-96 166h-64v16h64z"/><path d="m-192 166v64z"/><path d="m64 454h-32v160h32z"/><path d="m32 454h32-32-145z"/><path d="m64 614v-176 16 160 16z"/><path d="m64 390v-128 176z"/><path d="m64 390v48 176-32-32-32-32-32-32z"/><path d="m240-602h-80z"/><path d="m288-442h-32-16-80z"/><path d="m288-442h-128 216z"/><path d="m160-474h80z"/><path d="m160-602v128z"/><path d="m240-474v-128z"/><path d="m160-602v128h80v-128z"/><path d="m-113 614h145v-160h-145-79v160z"/><path d="m-352-58v208 16z"/><path d="m-352-202v-80 32 32z"/><path d="m-352-58v224z"/><path d="m-352 166v224z"/><path d="m-352 390v224z"/><path d="m64-58v224z"/><path d="m64-282v80 16z"/><path d="m64-282h32z"/><path d="m96-282v-32z"/><path d="m96-282h-32v96h32z"/><path d="m96-186v32z"/><path d="m96-90v-51z"/><path d="m96-26v64.2434z"/><path d="m96-58v32 64.2434-128.2434z"/><path d="m-256-282h96 128-154z"/><path d="m-32-282h96-26z"/><path d="m-192 614h-64z"/><path d="m16-58h48v224h-48z"/><path d="m-96 134v32h-96v-32z"/><path d="m-96 166v-32h32v32z"/><path d="m16 166h48z"/><path d="m-96 166h32 64-32-160z"/><path d="m0-58h-64 32z"/><path d="m-64-186v128z"/><path d="m16-186h48z"/><path d="m0-58v224z"/><path d="m-192 230v-64 224z"/><path d="m-192 454h79-48-25z"/><path d="m0 166h-64z"/><path d="m-64-58h64z"/><path d="m-64-186v128-43-40z"/><path d="m64-186h-48-16-64z"/><path d="m-64 166v-32z"/><path d="m0-58v224z"/><path d="m-64 134h-32z"/><path d="m-192 166v-32z"/><path d="m-352-282h96z"/><path d="m-256 614h-96z"/><path d="m-352-202v-80 80 144z"/><path d="m896-250v48z"/><path d="m896-282h8z"/><path d="m896-250v-32h8v32z"/><path d="m96-314v-64z"/><path d="m96-90v-64 13z"/><path d="m96-154v-32z"/><path d="m96-282v96 32 64-95.7566z"/><path d="m96-282v96z"/><path d="m96-90v128.2434z"/><path d="m256 184v46z"/><path d="m256 152v-50 82z"/><path d="m416 184v46z"/><path d="m416 152v-50z"/><path d="m416 152h4z"/><path d="m416 184v-32h4v32z"/><path d="m256 184h-4z"/><path d="m256 152v32h-4v-32z"/><path d="m192 422h-8v-32h8z"/><path d="m-160-282h128 96-96z"/><path d="m-256-282h96z"/><path d="m64-58h-48z"/><path d="m-256-202h192 32v-80h-128-96z"/><path d="m-32-202h96v-80h-96z"/><path d="m-64-186h64 16 48v-16h-96-32z"/><path d="m-64-58v-128-16h-192v144z"/><path d="m-64-186h64z"/><path d="m0-186h16z"/><path d="m16-58v224z"/><path d="m64-58h-48v224h48z"/><path d="m-32-58h-32-192v224h64 160z"/><path d="m0 166v-224h-32v224z"/><path d="m-192 390v224-160z"/><path d="m-192 166h-64v224h64z"/><path d="m-256 390v224h64v-224z"/><path d="m-256 614h-96z"/><path d="m-352-282v80h96v-80z"/><path d="m-256-58h-96v224h96z"/><path d="m-256-202h-96v144h96z"/><path d="m-256 166h-96v224h96z"/><path d="m-352 390v224h96v-224z"/><path d="m480 358v64h32v-64z"/><path d="m190.1 390.1005h-4.9v31.8h4.9z"/><path d="m480 358h32z"/><path d="m512 422h-32z"/><path d="m512 358v64z"/><path d="m480 422v-64z"/><path d="m480 422v-64h32v64z"/><path d="m64 582v32z"/><path d="m64 518v32z"/><path d="m64 358v-32-32-32 128z"/><path d="m160 294v-32z"/><path d="m160 486v32 32 32z"/><path d="m160 390v32z"/><path d="m160 550v-32z"/><path d="m144 294v32h16v-32z"/><path d="m64 294v32h16v-32z"/><path d="m144 358v32h16v-32z"/><path d="m64 358v32h16v-32z"/><path d="m144 486v32h16v-32z"/><path d="m144 422v32h16v-32z"/><path d="m144 550v32h16v-32z"/><path d="m64 422v32h16v-24-8z"/><path d="m80 510v-24h-16v32h16z"/><path d="m64 550v32h16v-32z"/><path d="m80 430v24-8z"/><path d="m80 422v8z"/><path d="m160 582v32z"/><path d="m960 614v64h64v-64z"/><path d="m144 582h16z"/><path d="m896-202v-48-32z"/><path d="m904-250h-8z"/><path d="m896-282v32h8v-32z"/><path d="m904-250v-32z"/><path d="m256 102v50z"/><path d="m416 184v-32-50 128z"/><path d="m416 184h4z"/><path d="m416 152v32h4v-32z"/><path d="m420 184v-32z"/><path d="m256 152h-4z"/><path d="m256 184v-32h-4v32z"/><path d="m252 152v32z"/><path d="m184 390h8z"/><path d="m192 422h-8z"/><path d="m185.2001 390.1005h4.9002 1.8997v-.1005h-8v.1005z"/><path d="m192 421.9005v-31.8h-1.8997v31.8z"/><path d="m185.2001 421.9005v-31.8h-1.2001v31.8z"/><path d="m190.1003 421.9005h-4.9002-1.2001v.0995h8v-.0995z"/><path d="m190.1003 421.9005v-31.8h-.0003v31.8z"/><path d="m185.2001 390.1005v31.8h-.0001v-31.8z"/><path d="m190.1003 390.1005h-4.9002-.0001 4.9z"/><path d="m185.2001 421.9005h4.9002-.0003-4.9z"/><path d="m184 422v-.0995-31.8-.1005z"/><path d="m80 358h-16z"/><path d="m80 294h-16z"/><path d="m80 318v8z"/><path d="m80 318v-16-8 32z"/><path d="m144 302v-8z"/><path d="m144 302v16 8-32z"/><path d="m144 326h16z"/><path d="m80 302v16h64v-16z"/><path d="m80 382v8z"/><path d="m80 382v-16-8 32z"/><path d="m144 366v16 8-32z"/><path d="m144 366v-8z"/><path d="m144 390h16z"/><path d="m80 366v16h64v-16z"/><path d="m80 486h-16z"/><path d="m144 430v16 8-32z"/><path d="m144 430v-8z"/><path d="m144 454h16z"/><path d="m80 446v8z"/><path d="m80 430v16h64v-16z"/><path d="m144 518h16z"/><path d="m80 494v-8 24z"/><path d="m144 494v-8z"/><path d="m144 494v16 8-32z"/><path d="m80 494v16h64v-16z"/><path d="m80 574v-16-8 32z"/><path d="m80 574v8z"/><path d="m144 558v-8z"/><path d="m144 558v16 8-32z"/><path d="m80 558v16h64v-16z"/><path d="m80 550h-16z"/><path d="m80 422h-16z"/><path d="m80 302v-8z"/><path d="m80 302v16 8z"/><path d="m144 326v-8z"/><path d="m80 302h64z"/><path d="m80 318v-16h64v16z"/><path d="m144 318h-64z"/><path d="m80 358v8z"/><path d="m144 390v-8z"/><path d="m80 366h64z"/><path d="m144 382h-64z"/><path d="m80 382v-16h64v16z"/><path d="m144 454v-8z"/><path d="m80 430h64z"/><path d="m144 446h-64z"/><path d="m80 446v-16h64v16z"/><path d="m80 486v8z"/><path d="m144 518v-8z"/><path d="m80 494h64z"/><path d="m80 510v-16h64v16z"/><path d="m144 510h-64z"/><path d="m80 550v8z"/><path d="m144 582v-8z"/><path d="m80 558h64z"/><path d="m144 574h-64z"/><path d="m80 574v-16h64v16z"/><path d="m64 454v32z"/><path d="m64 422v-32z"/><path d="m64 358v-32z"/><path d="m64 294v-32z"/><path d="m64 390v32 32 32 32 32 32 32-64z"/><path d="m64 582h16z"/><path d="m512 422v-64z"/><path d="m512 358v64z"/><path d="m528 422h-16z"/><path d="m512 358h16z"/><path d="m512 358v64h16v-64z"/><path d="m528 422v-64z"/><path d="m160 454v-32-32-32-32-32-32 224z"/><path d="m160 326v32z"/><path d="m160 454v32z"/><path d="m480 358v64h32v-64z"/><path d="m480 422v-64-32 128z"/><path d="m512 358h-32z"/><path d="m480 358v-32z"/><path d="m480 326h32z"/><path d="m480 422h32z"/><path d="m480 454v-32z"/><path d="m512 454h-32z"/><path d="m160 422h-16z"/><path d="m160 358h-16z"/><path d="m160 294h-16z"/><path d="m144 326v-8-16-8z"/><path d="m144 326v-32h16v32z"/><path d="m64 326h16z"/><path d="m64 294h16v8 24h-16z"/><path d="m80 358v8 16 8z"/><path d="m144 390v-8-16-8z"/><path d="m144 390v-32h16v32z"/><path d="m64 390h16z"/><path d="m64 390v-32h16v32z"/><path d="m160 486h-16z"/><path d="m144 454v-8-16-8z"/><path d="m144 454v-32h16v32z"/><path d="m80 422v8 16 8z"/><path d="m64 422h16v32h-16z"/><path d="m64 454h16z"/><path d="m64 518h16z"/><path d="m80 486v8 16z"/><path d="m80 518v-8z"/><path d="m144 518v-8-16-8z"/><path d="m144 518v-32h16v32z"/><path d="m64 486h16v24 8h-16z"/><path d="m80 550v8 16 8z"/><path d="m144 582v-8-16-8z"/><path d="m144 582v-32h16v32z"/><path d="m160 550h-16z"/><path d="m64 582v-32h16v32z"/><path d="m160 582v32z"/><path d="m480 774h-192-32z"/><path d="m256 774h-192z"/><path d="m864 774h192-96-128z"/><path d="m1056 582v192-64z"/><path d="m1056 486v96z"/><path d="m1056 70v-32-96 224z"/><path d="m1056 38v-96z"/><path d="m1056 70v96h32v-96z"/><path d="m1088 70v96z"/><path d="m1088 70h-32z"/><path d="m1216 70h-128z"/><path d="m1056 166h32z"/><path d="m288 230v-128h-32v128 32h32z"/><path d="m224 70h-.9575l.9575.2393z"/><path d="m384 614h24v-32h-120v32z"/><path d="m736 774h-128-96v-160-32h224z"/><path d="m864 582v192h-32-96v-192z"/><path d="m480 326h32v128h-32z"/><path d="m416 262v-32h-32-96v32z"/><path d="m288 102h96 32v-32h-160v32z"/><path d="m416 102h-32v128h32z"/><path d="m576 70v-31.9869l3.26-.8149z"/><path d="m590-70 2-20h-.0986l-12.6414 127.1982z"/><path d="m592-90 3.9813-11.6101-3.9813 10.618-.0986.9921z"/><path d="m864 358v128 96h96 96v-96-128z"/><path d="m1056 262h-192v96h192z"/><path d="m960-58h48l-32-32h-48z"/><path d="m896-122h-96v32h96z"/><path d="m639.4969-218h.1249l-43.6405 116.3899 8.0148-23.3724z"/><path d="m640-218v-1.0086l-.3782 1.0086z"/><path d="m448-441.738v-.262h.5241z"/><path d="m640-394v144h32v-144z"/><path d="m640-426.5969v.5969h.4775z"/><path d="m576-602v-64l-64 64z"/><path d="m576.4954-505.9815-.4954.2477v-1.2388l.7078.8849z"/><path d="m576.4954-505.9815.2124-.1062 63.2922 79.1326v.3582z"/><path d="m640-698v96h96z"/><path d="m576-666v64h64v-96l-16-16z"/><path d="m384 230h-96z"/><path d="m640-250v-144-32-.5969-.3582 15.9814 191.9651z"/><path d="m800-122h96z"/><path d="m672-250v-144z"/><path d="m896-202v-80-96 128 96z"/><path d="m704-250h96-128z"/><path d="m960.1398 166h-176.1398-48z"/><path d="m1024.1486 198h31.8514z"/><path d="m224 70h32 160 32 .0365-128.0365-96.9575z"/><path d="m96-185.7566v95.7566 128.2434-192.2434z"/><path d="m576 38.0131v31.9869z"/><path d="m576-506.9726v1.2388-1.2387z"/><path d="m576.7078-506.0877-.7078-.8849v.0001l.7078.8849 51.2589 64.0876 12.0333 15.0449z"/><path d="m595.9813-101.6101 43.6405-116.3899.3782-1.0086-12.0115 32.0349-35.9885 95.982v-.0004z"/><path d="m579.26 37.1982 12.6414-127.1982.0986-.9921v.0004l-12.74 128.1899-3.26 32.8018z"/><path d="m384-442h-8-216 160z"/><path d="m576 38.0131-35.7177 8.9283-92.2458 23.0586z"/><path d="m384 102v128z"/><path d="m512 454v-128-64 32 192z"/><path d="m736 582h-224z"/><path d="m960 582h-96-128z"/><path d="m416 262h-128-32-32-32 64z"/><path d="m64 550v64 32 128-128z"/><path d="m64 326v64 160-128z"/><path d="m384 614h-96-32-96 208z"/><path d="m192 358v32 32 160z"/><path d="m408 582h32 72-32-192z"/><path d="m160 262v128 96z"/><path d="m480 614v32 128z"/><path d="m624-714 16 16 96 96z"/><path d="m64 774v-128z"/><path d="m64 646v-32 16z"/><path d="m64 326v-64 32 32 32 32z"/><path d="m736-602h-96-64-64z"/><path d="m512-602 64-64 48-48z"/><path d="m408 582h32z"/><path d="m256 582h32z"/><path d="m192 582h64z"/><path d="m810.8257-394h-106.8257z"/><path d="m800-90h-32z"/><path d="m896-90v-32z"/><path d="m896-378-85.1743-16z"/><path d="m800-122v32z"/><path d="m800-250v128z"/><path d="m736-58v224z"/><path d="m1008-58-32-32z"/><path d="m864 358v-96 96 128z"/><path d="m864 262h192z"/><path d="m864 582v-96z"/><path d="m448-442v.262z"/><path d="m672-394h-32z"/><path d="m640-426h.4775z"/><path d="m448.5241-442 127.4759-63.7338.4954-.2477h.0001l-64.3192 32.1575-.1763.0882-32 15.9989-32 15.9989z"/><path d="m640-394v-16-16z"/><path d="m704-250h-32z"/><path d="m590-70-10.7194 107.1931.0011-.0104 12.7183-127.1827z"/><path d="m592-90 11.9951-34.9799.001-.0026z"/><path d="m96-378 64-64z"/><path d="m96-314v32z"/><path d="m256 70h-32z"/><path d="m448 70h-32z"/><path d="m256 102v50 32 46z"/><path d="m256 70v32z"/><path d="m416 70v32z"/><path d="m223.0425 70-127.0425-31.7566 128 31.9959z"/><path d="m512 262v64z"/><path d="m160 262h-96z"/><path d="m448 262h64z"/><path d="m416 262h32z"/><path d="m256 262v-32z"/><path d="m416 262v-32z"/><path d="m160 486v96-32-32z"/><path d="m192 422v-32 .1005 31.8z"/><path d="m192 582v-160z"/><path d="m192 358v-96 96 32z"/><path d="m512 454h-32z"/><path d="m480 326h32z"/><path d="m864 774v-192z"/><path d="m288 582v32z"/><path d="m408 614v-32z"/><path d="m440 614h-32z"/><path d="m256 614h-96z"/><path d="m288 614h-32z"/><path d="m960 678v-64h64v64z"/><path d="m960 678v-64z"/><path d="m960 614h64z"/><path d="m1024 614v64z"/><path d="m1024 678h-64z"/><path d="m256 774h-192z"/><path d="m832 774h-96-128 128z"/><path d="m608 774h-96z"/><path d="m1056 166v32z"/><path d="m1216 166v-27-40-29z"/><path d="m1216 70h-128z"/><path d="m1088 166h128z"/><path d="m1088 70v96h128v-96z"/><path d="m784-90h16 128-32-96-32z"/><path d="m810.8257-394h-106.8257-32z"/><path d="m896-154v32z"/><path d="m800-250h96v-128l-85.1743-16h-138.8257v144z"/><path d="m896-378-85.1743-16z"/><path d="m800-250v128z"/><path d="m896-154v-96h-96v128h96z"/><path d="m736-58v224z"/><path d="m800-58v-32h-16v32 48h16z"/><path d="m960.1398 166h47.8602v-48h-120-88-16v48z"/><path d="m1056-58h-48v48 .1672 15.7722 95.8846 15.8905.2855 48h48z"/><path d="m904-10h104v-48h-48-160v48z"/><path d="m960-58-32-32h-128v32z"/><path d="m1008 117.7145v-15.8905z"/><path d="m1008 5.9394v-15.7722z"/><path d="m1008 5.9394v95.8846z"/><path d="m1008-10h-104z"/><path d="m1008 118h-104-16z"/><path d="m1008-58h48-48-48z"/><path d="m960-58-32-32z"/><path d="m736-58v224h48v-48-128-48z"/><path d="m784-90h-16l-32 32h48z"/><path d="m768-90-32 32z"/><path d="m1024.1486 198h31.8514v-32h-48-47.8602z"/><path d="m960.1398 166 64.0088 32z"/><path d="m96-378v64 32 96.2434z"/><path d="m576 38.0131 3.26-.8149 12.74-128.1899-48 128.0183-3.7177 9.9148z"/><path d="m576 70 3.26-32.8018-3.26.8149z"/><path d="m96-154v192.2434l127.0425 31.7566h96.9575v-224z"/><path d="m96-378v192.2434 31.7566h224v-224z"/><path d="m320-442h-160l-64 64h224z"/><path d="m320-154v224h128.0365l92.2458-23.0586 3.7177-9.9148v-191.0266z"/><path d="m320-378v224h224v-32.9737-191.0263z"/><path d="m544-410.9737v-31.0263h-95.4763-64.5237-64v64h224z"/><path d="m544-186.9737v32.9737 191.0266l48-128.0183 35.9885-95.982z"/><path d="m640-219.0086v-191.9651h-96v32.9737 191.0263h83.9885z"/><path d="m640-410.9737v-15.9814l-12.0333-15.0449h-83.9667v31.0263z"/><path d="m576-505.7338.7078-.3538-.7078-.8849z"/><path d="m544-442h83.9667l-51.2589-64.0876-.7078.3538-127.4763 63.7338z"/><path d="m448.5237-442h.0004-.5241-64z"/><path d="m576-505.7338-127.4759 63.7338h-.0004z"/><path d="m96 38.2434 127.0425 31.7566z"/><path d="m160-442-64 64z"/><path d="m384 102h-96z"/><path d="m288 102v128z"/><path d="m384 230v-128h-96v128z"/><path d="m512 614v160z"/><path d="m512 582v32z"/><path d="m512 486v32 64z"/><path d="m1056 582h-96z"/><path d="m736 582h-224v32 160h96 128z"/><path d="m960 582h-224v192h96 128z"/><path d="m1056 774v-192h-96v192z"/><path d="m144 262h16-96z"/><path d="m448 262h64-64-32z"/><path d="m64 262v64z"/><path d="m64 422v128 96h80v-32-192z"/><path d="m144 390v-128h-80v64 96h80z"/><path d="m144 390v32 192h16v-128-96z"/><path d="m160 262h-16v128h16z"/><path d="m192 358v224h64v-64-160z"/><path d="m256 326v-64h-64v96h64z"/><path d="m288 646h-144-80v128h192 32z"/><path d="m480 774v-128h-112-80v128z"/><path d="m368 614h-208-16v32h144 80z"/><path d="m480 646v-32h-96-16v32z"/><path d="m480 518h-32-192v64h32 192z"/><path d="m512 582v-64h-32v64z"/><path d="m448 326v-32-32h-32-160v64z"/><path d="m448 294v32 192h32 32v-32-192z"/><path d="m512 262h-64v32h64z"/><path d="m448 326v192z"/><path d="m448 518h-192z"/><path d="m480 614h-40-32-24z"/><path d="m192 262v96z"/><path d="m288 582h-32-64 64z"/><path d="m160 486v128-32z"/><path d="m448 326h-192z"/><path d="m256 326v32 160z"/><path d="m448 518v-192h-192v192z"/><path d="m800 117.9203v-15.7575z"/><path d="m800 5.7333v-15.7333z"/><path d="m1008 118v-.2855z"/><path d="m888-10h-87.6671z"/><path d="m800.3329-10h87.6671 16-104z"/><path d="m888 118h-88z"/><path d="m904 118h104z"/><path d="m888 37.2068v-47.2068z"/><path d="m888 54.78v-1.67z"/><path d="m904 46.165v-56.165z"/><path d="m918.9579 53.8769-14.6401-7.8834-.3178.1715v15.5589l104 55.9906v-15.8905z"/><path d="m918.9579 53.8769 89.0421-47.9375v-15.7722l-103.6822 55.8263z"/><path d="m904.3178 45.9935 103.6822-55.8263-103.6818 55.8264z"/><path d="m904 61.7239 104 55.9906z"/><path d="m904 61.7239v-15.5589-56.165h-16v47.2068 15.9032 1.67 15.7638 47.4562h16z"/><path d="m888 54.78-88 47.3828v15.7575l88-47.3765z"/><path d="m800-10v15.7333l88 47.3767v-15.9032l-87.6671-47.2068z"/><path d="m888 54.78-88 47.3828z"/><path d="m1008-10v.1672z"/><path d="m1008-9.8328v15.7722z"/><path d="m888 118h16 104-208z"/><path d="m888 118v-47.4562z"/><path d="m888 70.5438v-15.7638l1.5509-.8351 14.4491 7.779v56.2761h-16z"/><path d="m904 46.165-16 8.615v-1.67-15.9032-47.2068h16z"/><path d="m904.3182 45.9936 103.6818-55.8264v15.7722l-89.0419 47.9374z"/><path d="m904 61.7239-14.4491-7.779 14.7673-7.9513 14.6399 7.8832 89.0419 47.9472v15.8905z"/><path d="m904 61.7239v56.2761z"/><path d="m904 46.165.3178-.1715.0004.0001z"/><path d="m1008 5.9394-89.0421 47.9375.0002-.0001z"/><path d="m918.9581 53.8768-.0002.0001 89.0421 47.9471z"/><path d="m888 54.78v15.7638l-88 47.3765v-15.7575z"/><path d="m800 5.7333v-15.7333h.3329l87.6671 47.2068v15.9032z"/><path d="m888 53.11-88-47.3767z"/><path d="m800.3329-10 87.6671 47.2068z"/><path d="m888 70.5438-88 47.3765z"/><path d="m800 118h-16z"/><path d="m800-10h-16z"/><path d="m784-10v128z"/><path d="m1008 101.824v-95.8846-15.7722-.1672 128z"/><path d="m800 118h208-224z"/><path d="m1008 118v-.2855-15.8905z"/><path d="m1008-10h-104-16-87.6671-.3329z"/><path d="m784-10v128z"/><path d="m1008-10h-208-16z"/></g></defs><path d="m-515-1405h1888v2336h-1888z" fill="#fff"/><g stroke="#000"><use fill="none" stroke-miterlimit="0" stroke-width="15" xlink:href="#a"/><use fill="#fff" xlink:href="#a"/></g></svg>