<?xml version="1.0" encoding="utf-8" ?>
<svg baseProfile="tiny" height="100%" version="1.2" viewBox="-740.0 -876.0 2240.0 1688.0" width="100%" xmlns="http://www.w3.org/2000/svg" xmlns:ev="http://www.w3.org/2001/xml-events" xmlns:xlink="http://www.w3.org/1999/xlink"><defs><g id="bsp_ref"><polygon points="-192,32 -192,124 -192,256 -192,256 -192,256 -192,32" /><polygon points="-192,-192 -192,-100 -192,32 -192,32 -192,-192" /><polygon points="960,-324 960,-324 960,-324 960,-192 960,-192" /><polygon points="32,-324 -192,-324 -192,-324 32,-324" /><polygon points="256,-324 224,-324 32,-324 32,-324 256,-324" /><polygon points="480,-324 382,-324 256,-324 256,-324 320,-324 448,-324 480,-324" /><polygon points="704,-324 544,-324 512,-324 480,-324 480,-324 672,-324 704,-324" /><polygon points="928,-324 768,-324 704,-324 704,-324 896,-324 928,-324" /><polygon points="960,256 960,256 928,256 928,256" /><polygon points="544,-128 544,-160 544,-324 704,-324 768,-324 768,-100 544,-100" /><polygon points="768,-100 768,124 544,124 544,96 544,64 544,-100" /><polygon points="768,124 768,256 704,256 544,256 544,124" /><polygon points="768,-324 928,-324 960,-324 960,-192 960,-100 768,-100" /><polygon points="960,-100 960,32 960,124 768,124 768,-100" /><polygon points="960,124 960,256 928,256 768,256 768,124" /><polygon points="256,-128 256,-160 256,-324 382,-324 382,-100 256,-100" /><polygon points="382,-100 382,96 382,124 256,124 256,96 256,64 256,-100" /><polygon points="382,124 382,256 256,256 256,124" /><polygon points="512,96 544,96 544,124 544,256 480,256 382,256 382,124 382,96" /><polygon points="382,-324 480,-324 512,-324 512,-160 512,-128 512,-100 382,-100" /><polygon points="512,-100 512,64 512,96 382,96 382,-100" /><polygon points="512,-324 544,-324 544,-160 512,-160" /><polygon points="512,-100 512,-128 544,-128 544,-100 544,64 512,64" /><polygon points="224,-324 256,-324 256,-160 224,-160" /><polygon points="224,-100 224,-128 256,-128 256,-100 256,64 224,64" /><polygon points="256,96 256,124 256,256 224,256 224,124 224,96" /><polygon points="-192,-192 -192,-324 32,-324 32,-100 -192,-100" /><polygon points="32,-100 32,124 -192,124 -192,32 -192,-100" /><polygon points="32,124 32,256 -192,256 -192,124" /><polygon points="32,-324 224,-324 224,-160 224,-128 224,-100 32,-100" /><polygon points="224,-100 224,64 224,96 224,124 32,124 32,-100" /><polygon points="224,124 224,256 32,256 32,124" /><polygon points="928,256 960,256 960,256 896,256 896,256" /><polygon points="32,256 -192,256 -192,256 32,256" /><polygon points="256,256 32,256 32,256 224,256 256,256" /><polygon points="480,256 448,256 320,256 256,256 256,256 382,256 480,256" /><polygon points="704,256 672,256 480,256 480,256 544,256 704,256" /><polygon points="928,256 896,256 704,256 704,256 768,256 928,256" /><polygon points="320,256 320,256 256,256 256,256" /><polygon points="448,256 448,224 320,224 320,256" /><polygon points="672,-324 480,-324 448,-324 448,-324 512,-324 544,-324 672,-324" /><polygon points="896,-324 704,-324 672,-324 672,-324 768,-324 800,-324 896,-324" /><polygon points="960,-324 960,-324 928,-324 928,-324" /><polygon points="32,-324 -192,-324 -192,-324 -32,-324 32,-324" /><polygon points="256,-324 32,-324 32,-324 192,-324 224,-324 256,-324" /><polygon points="448,-324 448,-294.3158 448,-324" /><polygon points="320,224 256,224 256,256 320,256" /><polygon points="320,256 256,256 256,224 320,224" /><polygon points="224,96 256,96 256,224 256,256 224,256" /><polygon points="256,224 256,96 224,96 224,256 256,256" /><polygon points="224,96 224,64 224,-128 224,-160 224,-324 192,-324 32,-324 -32,-324 -192,-324 -192,-192 -192,32 -192,256 32,256 224,256" /><polygon points="-192,32 -192,-192 -192,-324 -32,-324 32,-324 192,-324 224,-324 224,-160 224,-128 224,64 224,96 224,256 32,256 -192,256" /><polygon points="256,-294.3158 320,-294.3158 320,-324 256,-324" /><polygon points="256,-324 320,-324 320,-294.3158 256,-294.3158" /><polygon points="224,-160 256,-160 256,-294.3158 256,-324 224,-324" /><polygon points="256,-294.3158 256,-160 224,-160 224,-324 256,-324" /><polygon points="256,-128 224,-128 224,64 256,64" /><polygon points="224,-128 256,-128 256,64 224,64" /><polygon points="512,224 512,96 544,96 544,256 512,256" /><polygon points="544,96 512,96 512,224 512,256 544,256" /><polygon points="512,256 448,256 448,224 512,224" /><polygon points="512,224 448,224 448,256 512,256" /><polygon points="544,-128 512,-128 512,64 544,64" /><polygon points="512,-128 544,-128 544,64 512,64" /><polygon points="544,-160 512,-160 512,-294.3158 512,-324 544,-324" /><polygon points="512,-294.3158 512,-160 544,-160 544,-324 512,-324" /><polygon points="448,-324 512,-324 512,-294.3158 448,-294.3158" /><polygon points="448,-294.3158 512,-294.3158 512,-324 448,-324" /><polygon points="320,-294.3158 448,-294.3158 512,-294.3158 512,-160 512,-128 512,64 512,96 512,224 448,224 320,224 256,224 256,96 256,64 256,-128 256,-160 256,-294.3158" /><polygon points="320,224 448,224 512,224 512,96 512,64 512,-128 512,-160 512,-294.3158 448,-294.3158 320,-294.3158 256,-294.3158 256,-160 256,-128 256,64 256,96 256,224" /><polygon points="960,32 960,-192 960,-324 896,-324 800,-324 768,-324 672,-324 544,-324 544,-160 544,-128 544,64 544,96 544,256 672,256 896,256 960,256" /><polygon points="544,96 544,64 544,-128 544,-160 544,-324 672,-324 768,-324 800,-324 896,-324 960,-324 960,-192 960,32 960,256 896,256 672,256 544,256" /><polygon points="-192,32 -192,256 -192,256 -192,216 -192,32" /><polygon points="-192,-192 -192,32 -192,32 -192,-100 -192,-192" /><polygon points="320,256 320,256 256,256 256,256" /><polygon points="960,256 960,256 928,256 896,256 896,256" /><polygon points="960,-324 960,-324 960,-192 960,-192" /><polygon points="768,-324 672,-324 544,-324 544,-324 768,-324" /><polygon points="800,-324 768,-324 768,-324 800,-324" /><polygon points="320,-294.3158 320,-324 320,-324 320,-324 320,-128 320,-128 320,-128" /><polygon points="448,-324 448,-294.3158 448,-260.6316 448,-324" /><polygon points="544,-324 512,-324 448,-324 448,-324 544,-324" /><polygon points="192,-324 32,-324 -32,-324 -32,-324 192,-324" /><polygon points="448,224 448,64 320,64 320,224" /><polygon points="-32,-324 -192,-324 -192,-324 -32,-324" /><polygon points="-192,-324 -192,-324 -192,-324 -192,-192 -192,-192" /><polygon points="960,32 960,256 960,256 960,256 960,124 960,32" /><polygon points="960,-192 960,32 960,32 960,-100 960,-192" /><polygon points="960,-324 960,-324 928,-324 896,-324 896,-324" /><polygon points="320,-324 320,-324 256,-324 256,-324" /><polygon points="672,256 544,256 512,256 448,256 448,256 480,256 672,256" /><polygon points="896,256 672,256 672,256 704,256 896,256" /><polygon points="32,256 -192,256 -192,256 32,256" /><polygon points="256,256 224,256 32,256 32,256 256,256" /><polygon points="256,-160 256,-160 256,-128 256,-128" /><polygon points="256,64 256,64 256,96 256,96" /><polygon points="544,-160 544,-160 544,-128 544,-128" /><polygon points="544,64 544,64 544,96 544,96" /><polygon points="544,-128 544,-128 512,-128 512,-128" /><polygon points="512,-160 512,-160 544,-160 544,-160" /><polygon points="512,-128 512,-128 512,-160 512,-160" /><polygon points="320,-294.3158 320,-324 320,-324" /><polygon points="448,-294.3158 448,-324 320,-324 320,-294.3158" /><polygon points="512,64 512,64 544,64 544,64" /><polygon points="448,224 448,256 448,256" /><polygon points="544,96 544,96 512,96 512,96" /><polygon points="512,96 512,96 512,64 512,64" /><polygon points="320,256 320,256 320,224" /><polygon points="224,-128 224,-128 224,-160 224,-160" /><polygon points="224,96 224,96 224,64 224,64" /><polygon points="256,-128 256,-128 224,-128 224,-128" /><polygon points="224,-160 224,-160 256,-160 256,-160" /><polygon points="224,64 224,64 256,64 256,64" /><polygon points="256,96 256,96 224,96 224,96" /><polygon points="-544,448 -544,542.6087 -544,672 -544,672 -544,542.6087 -544,448" /><polygon points="-544,-680 -544,-512 -544,-456 -544,-456 -544,-456 -544,-456 -544,-512 -544,-680" /><polygon points="-544,-32 -544,124 -544,192 -544,192 -544,-32" /><polygon points="-544,-256 -544,-100 -544,-32 -544,-32 -544,-256" /><polygon points="1255,672 1312,672 1312,672 1248,672 1248,672" /><polygon points="-320,-736 -544,-736 -544,-736 -320,-736" /><polygon points="-96,-736 -320,-736 -320,-736 -96,-736" /><polygon points="128,-736 -96,-736 -96,-736 128,-736" /><polygon points="352,-736 128,-736 128,-736 352,-736" /><polygon points="576,-736 352,-736 352,-736 576,-736" /><polygon points="800,-736 576,-736 576,-736 800,-736" /><polygon points="1024,-736 800,-736 800,-736 1024,-736" /><polygon points="1248,-736 1024,-736 1024,-736 1248,-736" /><polygon points="1312,388 1312,388 1312,388 1312,388 1312,448 1312,448" /><polygon points="1312,284 1312,284 1312,284 1312,388 1312,388" /><polygon points="1312,-736 1312,-736 1312,-712 1312,-712" /><polygon points="1022,-512 1024,-512 1054,-512 1054,-512 1022,-512" /><polygon points="382,-512 414,-512 414,-512 382,-512" /><polygon points="-96,-512 -192,-512 -258,-512 -290,-512 -320,-512 -320,-736 -96,-736" /><polygon points="128,-512 -32,-512 -96,-512 -96,-736 128,-736" /><polygon points="352,-512 192,-512 128,-512 128,-736 352,-736" /><polygon points="576,-512 414,-512 382,-512 352,-512 352,-736 576,-736" /><polygon points="800,-512 638,-512 576,-512 576,-736 800,-736" /><polygon points="1024,-512 1022,-512 800,-512 800,-736 1024,-736" /><polygon points="1248,-512 1054,-512 1024,-512 1024,-736 1248,-736" /><polygon points="1312,-736 1312,-712 1312,-512 1278,-512 1248,-512 1248,-736" /><polygon points="-544,-512 -544,-680 -544,-736 -320,-736 -320,-512" /><polygon points="-192,-324 -192,-324 -192,-192 -192,-192" /><polygon points="32,256 -192,256 -192,256 32,256" /><polygon points="256,256 32,256 32,256 224,256 256,256" /><polygon points="672,256 480,256 448,256 448,256 512,256 544,256 672,256" /><polygon points="896,256 704,256 672,256 672,256 896,256" /><polygon points="1022,-512 1022,-480 800,-480 800,-512" /><polygon points="1278,-480 1246,-480 1054,-480 1054,-512 1248,-512 1278,-512" /><polygon points="1312,-512 1312,-488 1312,-480 1278,-480 1278,-512" /><polygon points="1232,-96 1232,-240 1248,-240 1248,-128 1248,-96" /><polygon points="1260,-240 1260,-264 1260,-324 1280,-324 1280,-128 1260,-128" /><polygon points="1284,-264 1284,-324 1312,-324 1312,-264" /><polygon points="1184,-128 1184,-240 1208,-240 1208,-128" /><polygon points="1208,-128 1208,-240 1208,-264 1208,-324 1216,-324 1216,-128" /><polygon points="960,-96 960,-192 960,-324 1022,-324 1184,-324 1184,-264 1184,-240 1184,-128 1184,-96" /><polygon points="1022,-328 1022,-324 960,-324 800,-324 800,-328" /><polygon points="1022,-480 1022,-328 800,-328 800,-480" /><polygon points="1246,-324 1232,-324 1216,-324 1208,-324 1184,-324 1022,-324 1022,-328 1022,-480 1054,-480 1246,-480" /><polygon points="1278,-480 1312,-480 1312,-324 1284,-324 1280,-324 1260,-324 1246,-324 1246,-480" /><polygon points="1216,-96 1216,-128 1216,-324 1232,-324 1232,-264 1232,-240 1232,-96" /><polygon points="1184,-264 1184,-324 1208,-324 1208,-264" /><polygon points="1280,-96 1280,-128 1280,-324 1284,-324 1284,-264 1284,-240 1284,-96" /><polygon points="1284,-96 1284,-240 1312,-240 1312,-96" /><polygon points="1232,-264 1232,-324 1246,-324 1260,-324 1260,-264" /><polygon points="1248,-128 1248,-240 1260,-240 1260,-128" /><polygon points="960,32 960,-96 1184,-96 1184,128 960,128" /><polygon points="1184,128 1184,256 960,256 960,128" /><polygon points="1184,-96 1216,-96 1232,-96 1248,-96 1280,-96 1284,-96 1312,-96 1312,60 1312,128 1184,128" /><polygon points="1312,128 1312,256 1184,256 1184,128" /><polygon points="1284,-264 1312,-264 1312,-264 1284,-264" /><polygon points="1184,-264 1208,-264 1208,-264 1184,-264" /><polygon points="1232,-264 1260,-264 1260,-264 1232,-264" /><polygon points="1184,-240 1184,-264 1184,-264 1184,-240" /><polygon points="1260,-264 1260,-240 1260,-240 1260,-264" /><polygon points="1312,-240 1284,-240 1284,-240 1312,-240" /><polygon points="1284,-240 1284,-264 1284,-264 1284,-240" /><polygon points="1260,-240 1248,-240 1232,-240 1232,-240 1260,-240" /><polygon points="1208,-240 1184,-240 1184,-240 1208,-240" /><polygon points="1208,-264 1208,-240 1208,-240 1208,-264" /><polygon points="1232,-240 1232,-264 1232,-264 1232,-240" /><polygon points="1216,-96 1184,-96 1184,-96 1216,-96" /><polygon points="1280,-96 1248,-96 1248,-96 1280,-96" /><polygon points="960,-324 960,-324 896,-324 800,-324 800,-324" /><polygon points="960,32 960,128 960,256 960,256 960,32" /><polygon points="960,-192 960,-96 960,32 960,32 960,-192" /><polygon points="382,-480 382,-512 382,-512 382,-512 382,-480" /><polygon points="638,-480 544,-480 448,-480 414,-480 414,-512 576,-512 638,-512" /><polygon points="800,-480 768,-480 638,-480 638,-512 800,-512" /><polygon points="192,-480 -32,-480 -32,-512 128,-512 192,-512" /><polygon points="352,-512 382,-512 382,-480 320,-480 192,-480 192,-512" /><polygon points="768,-328 544,-328 544,-480 638,-480 768,-480" /><polygon points="800,-328 768,-328 768,-480 800,-480" /><polygon points="768,-324 544,-324 544,-328 768,-328" /><polygon points="800,-324 768,-324 768,-328 800,-328" /><polygon points="320,-324 320,-328 320,-324" /><polygon points="448,-328 448,-324 448,-260.6316 448,-128 448,-128 448,-128" /><polygon points="544,-324 448,-324 448,-328 544,-328" /><polygon points="544,-328 448,-328 448,-480 544,-480" /><polygon points="382,-328 448,-328 448,-128 320,-128 320,-324 320,-328" /><polygon points="448,-328 382,-328 382,-480 414,-480 448,-480" /><polygon points="382,-480 382,-328 320,-328 320,-480" /><polygon points="320,-324 320,-324 256,-324 224,-324 192,-324 192,-324" /><polygon points="192,-324 -32,-324 -32,-328 192,-328" /><polygon points="320,-328 320,-324 192,-324 192,-328" /><polygon points="192,-328 -32,-328 -32,-480 192,-480" /><polygon points="320,-328 192,-328 192,-480 320,-480" /><polygon points="-32,-480 -32,-328 -192,-328 -192,-362 -192,-512 -96,-512 -32,-512" /><polygon points="-32,-324 -192,-324 -192,-328 -32,-328" /><polygon points="1184,448 1008,448 991.9464,444.5101 960,437.5652 960,256 1184,256" /><polygon points="1312,256 1312,284 1312,388 1312,448 1232,448 1184,448 1184,256" /><polygon points="991.9464,444.5101 1008,448 989.0909,448" /><polygon points="960,437.5652 991.9464,444.5101 989.0909,448 962.9091,448 960,444.4445" /><polygon points="960,448 960,444.4445 962.9091,448" /><polygon points="32,368 -192,319.3044 -192,256 32,256" /><polygon points="256,416.6956 32,368 32,256 256,256" /><polygon points="480,448 400,448 383.9464,444.5101 345.1538,436.0769 256,416.6956 256,256 320,256 448,256 480,256" /><polygon points="704,448 624,448 480,448 480,256 672,256 704,256" /><polygon points="928,448 848,448 704,448 704,256 896,256 928,256" /><polygon points="960,256 960,437.5652 960,444.4445 960,448 928,448 928,256" /><polygon points="383.9464,444.5101 381.0909,448 354.9091,448 345.1538,436.0769" /><polygon points="-192,448 -192,351.3044 32,400 32,448" /><polygon points="32,400 252.8,448 32,448" /><polygon points="383.9464,444.5101 400,448 381.0909,448" /><polygon points="32,400 -192,351.3044 -192,319.3044 32,368" /><polygon points="256,448 252.8,448 32,400 32,368 256,416.6956" /><polygon points="345.1538,436.0769 354.9091,448 256,448 256,416.6956" /><polygon points="-320,448 -403.2001,448 -544,417.3913 -544,385.3913 -320,434.087" /><polygon points="-310.8462,436.0769 -301.0909,448 -320,448 -320,434.087" /><polygon points="-272.0537,444.5101 -256,448 -274.9091,448" /><polygon points="-310.8462,436.0769 -272.0537,444.5101 -274.9091,448 -301.0909,448" /><polygon points="-544,448 -544,417.3913 -403.2001,448" /><polygon points="-544,216 -520,216 -512,216 -492,216 -468,216 -448,216 -440,216 -416,216 -320,216 -320,434.087 -544,385.3913" /><polygon points="-320,216 -192,216 -192,256 -192,319.3044 -192,351.3044 -192,448 -256,448 -272.0537,444.5101 -310.8462,436.0769 -320,434.087" /><polygon points="-512,216 -512,124 -512,64 -492,64 -492,192 -492,216" /><polygon points="-440,192 -440,64 -416,64 -416,192" /><polygon points="-320,216 -416,216 -416,192 -416,64 -416,32 -244,32 -192,32 -192,216" /><polygon points="-492,192 -492,64 -480,64 -480,124 -480,192" /><polygon points="-468,216 -468,192 -468,124 -468,32 -448,32 -448,64 -448,216" /><polygon points="-448,216 -448,64 -440,64 -440,192 -440,216" /><polygon points="-520,-324 -512,-324 -512,-100 -520,-100" /><polygon points="-512,-100 -512,32 -512,64 -512,124 -520,124 -520,-100" /><polygon points="-512,124 -512,216 -520,216 -520,192 -520,124" /><polygon points="-480,-324 -468,-324 -468,-100 -480,-100" /><polygon points="-468,-100 -468,32 -468,124 -480,124 -480,64 -480,32 -480,-100" /><polygon points="-468,124 -468,192 -480,192 -480,124" /><polygon points="-468,-324 -480,-324 -512,-324 -520,-324 -544,-324 -544,-352 -544,-362 -320,-362 -320,-324" /><polygon points="-320,-362 -290,-362 -258,-362 -192,-362 -192,-328 -192,-324 -244,-324 -320,-324" /><polygon points="-468,-100 -468,-324 -320,-324 -244,-324 -244,-100" /><polygon points="-416,32 -448,32 -468,32 -468,-100 -244,-100 -244,32" /><polygon points="-244,-324 -192,-324 -192,-192 -192,-100 -244,-100" /><polygon points="-192,-100 -192,32 -244,32 -244,-100" /><polygon points="-512,-100 -512,-324 -480,-324 -480,-100" /><polygon points="-480,32 -512,32 -512,-100 -480,-100" /><polygon points="-544,-256 -544,-324 -520,-324 -520,-100 -544,-100" /><polygon points="-520,-100 -520,124 -544,124 -544,-32 -544,-100" /><polygon points="-520,124 -520,192 -544,192 -544,124" /><polygon points="-290,-480 -258,-480 -258,-362 -290,-362" /><polygon points="-258,-362 -258,-480 -258,-512 -192,-512 -192,-362" /><polygon points="-320,-362 -544,-362 -544,-456 -544,-512 -320,-512" /><polygon points="-290,-512 -290,-480 -290,-362 -320,-362 -320,-512" /><polygon points="-448,32 -416,32 -416,32 -448,32" /><polygon points="-512,32 -480,32 -480,32 -512,32" /><polygon points="-320,581.3333 -374.9231,648.4615 -483.2001,672 -544,672 -544,542.6087 -320,493.913" /><polygon points="-256,480 -233,475 -320,581.3333 -320,493.913" /><polygon points="-320,448 -301.0909,448 -288,464 -279,475 -320,466.0869 -403.2001,448" /><polygon points="-256,448 -279,453 -274.9091,448" /><polygon points="-274.9091,448 -279,453 -288,464 -301.0909,448" /><polygon points="-320,493.913 -544,542.6087 -544,448 -403.2001,448 -320,466.0869" /><polygon points="-279,475 -256,480 -320,493.913 -320,466.0869" /><polygon points="-192,448 -192,461.913 -233,453 -256,448" /><polygon points="256,448 354.9091,448 368,464 377,475 256,448.6956 252.8,448" /><polygon points="-9,568.913 -35.2006,574.6085 -118.6577,592.7516 -150.9231,553.3162 -224,464 -233,453 -192,461.913 -9,501.6956" /><polygon points="32,510.6086 145.6,535.3043 -9,568.913 -9,501.6956" /><polygon points="-150.9231,599.7659 -259.2004,623.304 -374.9231,648.4615 -320,581.3333 -233,475 -224,464 -150.9231,553.3162" /><polygon points="-118.6577,592.7516 -150.9231,599.7659 -150.9231,553.3162" /><polygon points="-259.2001,672 -320,672 -483.2001,672 -374.9231,648.4615 -259.2004,623.304" /><polygon points="-35.2001,672 -96,672 -259.2001,672 -259.2004,623.304 -150.9231,599.7659 -35.2006,574.6085" /><polygon points="188.7999,672 128,672 -35.2001,672 -35.2006,574.6085 -9,568.913 188.7999,525.913" /><polygon points="382,525.1111 382,672 352,672 188.7999,672 188.7999,525.913 256,511.3043 382,483.913" /><polygon points="400,448 377,453 381.0909,448" /><polygon points="32,510.6086 -9,501.6956 -192,461.913 -192,448 32,448" /><polygon points="256,511.3043 188.7999,525.913 145.6,535.3043 32,510.6086 32,448 252.8,448 256,448.6956" /><polygon points="377,475 400,480 382,483.913 256,511.3043 256,448.6956" /><polygon points="381.0909,448 377,453 368,464 354.9091,448" /><polygon points="382,483.913 400,480 423,475 382,525.1111" /><polygon points="602.1818,672 576,672 382,672 382,525.1111 423,475 432,464" /><polygon points="647,672 602.1818,672 423,453 624,496.6956 647,501.6957" /><polygon points="871,670.5555 869.8182,672 800,672 647,672 647,501.6957 871,550.3913" /><polygon points="954.4698,568.5369 871,670.5555 871,550.3913" /><polygon points="624,496.6956 423,453 400,448 480,448 624,448" /><polygon points="848,545.3913 647,501.6957 624,496.6956 624,448 704,448 848,448" /><polygon points="928,448 960,448 960,469.5652 960,490.4348 960,561.7778 954.4698,568.5369 871,550.3913 848,545.3913 848,448" /><polygon points="985,475 960,469.5652 960,448 962.9091,448" /><polygon points="989.0909,448 985,453 976,464 962.9091,448" /><polygon points="1008,448 985,453 989.0909,448" /><polygon points="960,469.5652 985,475 1008,480 960,490.4348" /><polygon points="1008,480 1031,475 960,561.7778 960,490.4348" /><polygon points="1093.8181,672 1024,672 869.8182,672 871,670.5555 954.4698,568.5369 960,561.7778 1031,475 1040,464 1093.8181,529.7777" /><polygon points="1210.1818,672 1093.8181,672 1093.8181,529.7777" /><polygon points="1255,672 1248,672 1210.1818,672 1093.8181,529.7777 1040,464 1031,453 1232,496.6956 1255,501.6957" /><polygon points="1312,514.087 1312,672 1255,672 1255,501.6957" /><polygon points="1232,496.6956 1008,448 1184,448 1232,448" /><polygon points="1312,448 1312,514.087 1232,496.6956 1232,448" /><polygon points="400,448 400,448 377,453 377,453" /><polygon points="-544,192 -544,192 -544,192 -544,0 -544,-32 -544,-32" /><polygon points="-544,-32 -544,-32 -544,-224 -544,-256 -544,-256" /><polygon points="-544,-352 -544,-352 -544,-324 -544,-256 -544,-256" /><polygon points="1312,284 1312,284 1312,256 1312,128 1312,60 1312,60" /><polygon points="1312,60 1312,60 1312,-96 1312,-96" /><polygon points="1248,-128 1248,-128 1260,-128 1280,-128 1280,-128" /><polygon points="1184,-128 1184,-128 1208,-128 1216,-128 1216,-128" /><polygon points="1184,-96 1184,-96 1184,-128 1184,-128" /><polygon points="1184,-96 1184,-96 1216,-96 1216,-96" /><polygon points="1248,-96 1248,-96 1280,-96 1280,-96" /><polygon points="1280,-128 1280,-128 1280,-96 1280,-96" /><polygon points="1248,-96 1248,-96 1248,-128 1248,-128" /><polygon points="1216,-128 1216,-128 1216,-96 1216,-96" /><polygon points="-480,64 -480,64 -492,64 -512,64 -512,64" /><polygon points="-416,64 -416,64 -440,64 -448,64 -448,64" /><polygon points="-416,32 -416,32 -416,64 -416,64" /><polygon points="-416,32 -416,32 -448,32 -448,32" /><polygon points="-480,32 -480,32 -512,32 -512,32" /><polygon points="-512,64 -512,64 -512,32 -512,32" /><polygon points="-448,64 -448,64 -448,32 -448,32" /><polygon points="-480,32 -480,32 -480,64 -480,64" /><polygon points="448,-128 448,-260.6316 448,-294.3158 320,-294.3158 320,-128" /><polygon points="544,64 544,64 544,96 544,96" /><polygon points="544,-128 544,64 544,96 544,96 544,64 544,-128" /><polygon points="544,-128 544,-160 544,-160 544,-128" /><polygon points="448,-128 512,-128 512,-128 480,-128 448,-128" /><polygon points="512,-128 544,-128 544,-128 512,-128" /><polygon points="448,-128 448,-128 320,-128 320,-128" /><polygon points="256,-128 320,-128 320,-128 256,-128" /><polygon points="256,-128 256,-128 224,-128 224,-128" /><polygon points="544,-160 544,-160 544,-160 512,-160 512,-160 544,-160" /><polygon points="224,-160 224,-160 224,-128 224,-128" /><polygon points="224,-128 224,-128 224,-160 224,-160" /><polygon points="256,-128 256,-128 256,-128 256,-128 256,-160 256,-160 256,-128" /><polygon points="224,96 224,96 224,64 224,64" /><polygon points="224,64 224,64 256,64 256,64" /><polygon points="320,64 256,64 256,64 320,64" /><polygon points="512,64 448,64 448,64 512,64" /><polygon points="512,64 512,64 544,64 544,64" /><polygon points="448,-128 320,-128 256,-128 224,-128 224,64 256,64 320,64 448,64" /><polygon points="512,64 544,64 544,-128 512,-128 448,-128 448,64" /><polygon points="512,64 512,64 512,64 512,96 512,96 512,64" /><polygon points="320,64 320,64 320,256 320,256 320,224" /><polygon points="224,96 224,96 224,96 256,96 256,96 224,96" /><polygon points="512,-128 512,-128 480,-128 480,-128" /><polygon points="-544,-456 -544,-456 -544,-362 -544,-352 -544,-352 -544,-352" /><polygon points="-544,-736 -544,-736 -544,-736 -320,-736 -320,-736" /><polygon points="-320,-736 -320,-736 -96,-736 -96,-736" /><polygon points="-96,-736 -96,-736 128,-736 128,-736" /><polygon points="128,-736 128,-736 352,-736 352,-736" /><polygon points="352,-736 352,-736 576,-736 576,-736" /><polygon points="576,-736 576,-736 800,-736 800,-736" /><polygon points="800,-736 800,-736 1024,-736 1024,-736" /><polygon points="1024,-736 1024,-736 1248,-736 1248,-736" /><polygon points="1312,-736 1312,-736 1248,-736 1248,-736" /><polygon points="1312,-264 1312,-264 1312,-324 1312,-480 1312,-488 1312,-488" /><polygon points="1312,-488 1312,-488 1312,-512 1312,-712 1312,-712" /><polygon points="1312,-736 1312,-736 1312,-712 1312,-712" /><polygon points="1054,-512 1054,-512 1054,-512 1024,-512 1022,-512 1022,-512 1022,-512" /><polygon points="414,-512 414,-512 414,-512 382,-512 382,-512 382,-512" /><polygon points="-290,-512 -290,-512 -258,-512 -258,-512" /><polygon points="1312,-264 1312,-264 1284,-264 1284,-264" /><polygon points="1208,-264 1208,-264 1184,-264 1184,-264" /><polygon points="1260,-264 1260,-264 1232,-264 1232,-264" /><polygon points="1184,-264 1184,-264 1184,-240 1184,-240" /><polygon points="1260,-240 1260,-240 1260,-264 1260,-264" /><polygon points="1284,-240 1284,-240 1312,-240 1312,-240 1312,-240" /><polygon points="1284,-264 1284,-264 1284,-240 1284,-240" /><polygon points="1232,-240 1232,-240 1260,-240 1260,-240" /><polygon points="1184,-240 1184,-240 1208,-240 1208,-240" /><polygon points="1208,-240 1208,-240 1208,-264 1208,-264" /><polygon points="1232,-264 1232,-264 1232,-240 1232,-240" /><polygon points="544,-160 544,-160 544,-128 544,-128" /><polygon points="480,-128 448,-128 256,-128 256,-128 320,-128 448,-128 480,-128" /><polygon points="224,-128 224,64 224,96 224,96 224,64 224,-128" /><polygon points="448,64 320,64 256,64 224,64 224,-128 256,-128 448,-128" /><polygon points="480,-128 512,-128 544,-128 544,64 512,64 448,64 448,-128" /><polygon points="448,64 448,64 448,224 448,256 448,256" /><polygon points="448,64 448,256 320,256 320,64" /><polygon points="1312,284 1296,284 1296,388 1312,388" /><polygon points="1296,388 1296,388 1312,388 1312,388" /><polygon points="1296,284 1296,284 1296,388 1296,388" /><polygon points="-528,-456 -528,-456 -544,-456 -544,-456" /><polygon points="-528,-456 -544,-456 -544,-352 -528,-352" /><polygon points="-544,-352 -528,-352 -528,-352 -544,-352" /><polygon points="-544,-362 -544,-438 -544,-456 -528,-456 -528,-352 -544,-352" /><polygon points="-528,-456 -528,-456 -528,-352 -528,-352" /><polygon points="-600,-362 -600,-438 -588,-438 -588,-362" /><polygon points="-588,-448 -588,-449 -576,-449 -576,-448" /><polygon points="-544,-438 -544,-362 -576,-362 -576,-438" /><polygon points="-588,-362 -588,-438 -576,-438 -576,-362" /><polygon points="256,96 224,96 224,64 256,64" /><polygon points="256,-128 224,-128 224,-160 256,-160" /><polygon points="544,96 512,96 512,64 544,64" /><polygon points="544,-128 512,-128 512,-160 544,-160" /><polygon points="544,64 544,64 544,96 544,96" /><polygon points="544,-160 544,-160 544,-128 544,-128" /><polygon points="544,-128 544,-128 512,-128 512,-128" /><polygon points="256,-128 256,-128 224,-128 224,-128" /><polygon points="512,-160 512,-128 512,-128 512,-128 512,-128 512,-128 512,-160" /><polygon points="224,-128 224,-128 224,-160 224,-160" /><polygon points="256,-160 224,-160 224,-160 224,-160 224,-160 256,-160" /><polygon points="224,96 224,96 224,64 224,64" /><polygon points="224,64 224,64 256,64 256,64" /><polygon points="512,64 512,64 544,64 544,64" /><polygon points="512,96 544,96 544,96 544,96 544,96 512,96" /><polygon points="256,96 256,64 256,64 256,64 256,64 256,96" /><polygon points="1344,356 1344,316 1360,316 1360,356" /><polygon points="1336,284 1344,284 1344,316 1344,356 1344,388 1336,388" /><polygon points="1312,284 1336,284 1336,388 1312,388" /><polygon points="1296,284 1312,284 1312,388 1296,388" /><polygon points="1312,284 1296,284 1296,284 1312,284" /><polygon points="1312,-96 1312,-96 1312,-96 1312,-240 1312,-240 1312,-240" /><polygon points="-544,-448 -544,-456 -544,-456 -544,-438 -544,-438" /><polygon points="-544,-736 -544,-736 -544,-736 -544,-680 -544,-680" /><polygon points="-576,-448 -576,-448 -576,-449 -576,-449" /><polygon points="-576,-448 -576,-448 -576,-448 -588,-448 -588,-448 -576,-448" /><polygon points="-544,216 -544,216 -544,385.3913 -544,417.3913 -544,448 -544,448" /><polygon points="-544,-362 -544,-362 -544,-352 -544,-352" /><polygon points="-320,672 -483.2001,672 -544,672 -544,672 -483.2001,672 -320,672" /><polygon points="-96,672 -259.2001,672 -320,672 -320,672 -259.2001,672 -96,672" /><polygon points="128,672 -35.2001,672 -96,672 -96,672 -35.2001,672 128,672" /><polygon points="352,672 188.7999,672 128,672 128,672 188.7999,672 352,672" /><polygon points="576,672 382,672 352,672 352,672 382,672 576,672" /><polygon points="800,672 647,672 602.1818,672 576,672 576,672 602.1818,672 647,672 800,672" /><polygon points="1024,672 871,672 800,672 800,672 869.8182,672 1024,672" /><polygon points="1248,672 1095,672 1024,672 1024,672 1093.8181,672 1210.1818,672 1248,672" /><polygon points="1312,448 1312,514.0869 1312,646.2609 1312,672 1312,672 1312,514.087 1312,448" /><polygon points="1312,388 1312,388 1312,448 1312,448" /><polygon points="1232,448 1312,448 1312,448 1232,448 1152,448 1152,448" /><polygon points="-258,-512 -258,-512 -290,-512 -290,-512 -290,-512 -258,-512" /><polygon points="1054,-512 1054,-512 1054,-512 1054,-480 1054,-480" /><polygon points="1054,-480 1054,-480 1022,-480 1022,-480" /><polygon points="1022,-480 1022,-480 1022,-512 1022,-512 1022,-512" /><polygon points="414,-480 414,-480 382,-480 382,-480" /><polygon points="382,-512 382,-512 382,-512 382,-512 382,-480 382,-480" /><polygon points="414,-512 414,-512 414,-512 414,-480 414,-480" /><polygon points="-290,-480 -290,-480 -290,-512 -290,-512 -290,-512" /><polygon points="-258,-480 -258,-480 -290,-480 -290,-480" /><polygon points="-258,-512 -258,-512 -258,-512 -258,-480 -258,-480" /><polygon points="-544,192 -544,192 -544,192 -520,192 -520,192" /><polygon points="-440,192 -440,192 -416,192 -416,192" /><polygon points="-492,192 -492,192 -480,192 -468,192 -468,192" /><polygon points="-520,192 -492,192 -468,192 -440,192 -416,192 -416,192 -440,192 -544,192 -544,192" /><polygon points="-416,192 -416,192 -416,216 -416,216" /><polygon points="-416,224 -416,448 -416,448 -416,224" /><polygon points="-492,416 -492,216 -492,192 -520,192 -520,216 -520,416" /><polygon points="-520,448 -492,448 -492,416 -520,416" /><polygon points="-440,216 -440,416 -440,448 -416,448 -416,224 -416,216" /><polygon points="-492,216 -492,416 -492,448 -468,448 -468,416 -468,216" /><polygon points="-440,416 -440,216 -440,192 -468,192 -468,216 -468,416" /><polygon points="-468,448 -440,448 -440,416 -468,416" /><polygon points="-544,216 -544,448 -520,448 -520,416 -520,216" /><polygon points="-468,216 -468,216 -492,216 -492,216" /><polygon points="-416,216 -416,216 -440,216 -440,216" /><polygon points="-520,216 -520,216 -544,216 -544,216" /><polygon points="-492,216 -492,216 -492,192 -492,192" /><polygon points="-468,192 -468,192 -468,216 -468,216" /><polygon points="-440,216 -440,216 -440,192 -440,192" /><polygon points="-520,192 -520,192 -520,216 -520,216" /><polygon points="-259.2001,623.3044 -374.9234,648.4614 -483.2001,672 -320,672 -259.2001,672" /><polygon points="-35.2001,574.6087 -118.6578,592.7515 -150.9236,599.7658 -259.2001,623.3044 -259.2001,672 -96,672 -35.2001,672" /><polygon points="188.7999,525.913 145.5997,535.3043 -9,568.913 -35.2001,574.6087 -35.2001,672 128,672 188.7999,672" /><polygon points="382,525.1111 382,483.913 192,525.2173 188.7999,525.913 188.7999,672 352,672 382,672" /><polygon points="377,453 381.0909,448 354.9091,448 368,464" /><polygon points="-150.9231,553.3162 -224,464 -233,475 -320,581.3333 -374.9234,648.4614 -259.2001,623.3044 -150.9236,599.7658" /><polygon points="-118.6578,592.7515 -150.9231,553.3162 -150.9236,599.7658" /><polygon points="-279,453 -274.9091,448 -301.0909,448 -288,464" /><polygon points="-256,448 -274.9091,448 -279,453" /><polygon points="-288,464 -301.0909,448 -403.2,448 -320,466.087 -279,475" /><polygon points="-320,466.087 -403.2,448 -416,448 -440,448 -468,448 -492,448 -520,448 -544,448 -544,542.6087 -320,493.913" /><polygon points="-256,480 -279,475 -320,466.087 -320,493.913" /><polygon points="-320,493.913 -544,542.6087 -544,672 -483.2001,672 -374.9234,648.4614 -320,581.3333" /><polygon points="-233,475 -256,480 -320,493.913 -320,581.3333" /><polygon points="-9,501.6957 -32,496.6957 -233,453 -224,464 -150.9231,553.3162 -118.6578,592.7515 -35.2001,574.6087 -9,568.913" /><polygon points="145.5997,535.3043 -9,501.6957 -9,568.913" /><polygon points="368,464 354.9091,448 256,448 252.8,448 377,475" /><polygon points="400,448 381.0909,448 377,453" /><polygon points="-32,448 -192,448 -256,448 -233,453 -32,496.6957" /><polygon points="192,448 32,448 -32,448 -32,496.6957 -9,501.6957 145.5997,535.3043 188.7999,525.913 192,525.2173" /><polygon points="382,483.913 400,480 377,475 252.8,448 192,448 192,525.2173" /><polygon points="382,525.1111 423,475 400,480 382,483.913" /><polygon points="382,672 576,672 602.1818,672 432,464 423,475 382,525.1111" /><polygon points="624,448 480,448 400,448 423,453 624,496.6957" /><polygon points="848,448 704,448 624,448 624,496.6957 647,501.6957 848,545.3914" /><polygon points="871,550.3914 954.4698,568.5369 960,569.7391 960,561.7778 960,490.4348 960,469.5652 960,448 928,448 848,448 848,545.3914" /><polygon points="1255,501.6956 1232,496.6956 1031,453 1040,464 1162.5385,613.7692 1255,633.8696" /><polygon points="1312,646.2609 1312,514.0869 1255,501.6956 1255,633.8696" /><polygon points="960,561.7778 1031,475 1008,480 960,490.4348" /><polygon points="976,464 962.9091,448 960,448 960,469.5652 985,475" /><polygon points="1008,448 989.0909,448 985,453" /><polygon points="985,453 989.0909,448 962.9091,448 976,464" /><polygon points="960,490.4348 1008,480 985,475 960,469.5652" /><polygon points="960,569.7391 1095,599.087 1162.5385,613.7692 1040,464 1031,475 960,561.7778" /><polygon points="647,501.6957 624,496.6957 423,453 432,464 602.1818,672 647,672" /><polygon points="871,550.3914 848,545.3914 647,501.6957 647,672 800,672 871,672" /><polygon points="1095,599.087 960,569.7391 954.4698,568.5369 871,550.3914 871,672 1024,672 1095,672" /><polygon points="1248,672 1312,672 1312,646.2609 1255,633.8696 1162.5385,613.7692 1095,599.087 1095,672" /><polygon points="1232,448 1152,448 1008,448 1031,453 1232,496.6956" /><polygon points="1255,501.6956 1312,514.0869 1312,448 1232,448 1232,496.6956" /><polygon points="985,453 985,453 1008,448 1008,448" /><polygon points="-256,448 -256,448 -233,453 -233,453" /><polygon points="400,448 400,448 423,453 423,453" /><polygon points="368,464 368,464 377,453 377,453" /><polygon points="423,453 423,453 432,464 432,464" /><polygon points="377,475 377,475 368,464 368,464" /><polygon points="432,464 432,464 423,475 423,475" /><polygon points="400,480 400,480 377,475 377,475" /><polygon points="423,475 423,475 400,480 400,480" /><polygon points="-279,453 -279,453 -256,448 -256,448" /><polygon points="-233,453 -233,453 -224,464 -224,464" /><polygon points="-288,464 -288,464 -279,453 -279,453" /><polygon points="-224,464 -224,464 -233,475 -233,475" /><polygon points="-279,475 -279,475 -288,464 -288,464" /><polygon points="-233,475 -233,475 -256,480 -256,480" /><polygon points="-256,480 -256,480 -279,475 -279,475" /><polygon points="1008,448 1008,448 1031,453 1031,453" /><polygon points="976,464 976,464 985,453 985,453" /><polygon points="1031,453 1031,453 1040,464 1040,464" /><polygon points="985,475 985,475 976,464 976,464" /><polygon points="1040,464 1040,464 1031,475 1031,475" /><polygon points="1008,480 1008,480 985,475 985,475" /><polygon points="1031,475 1031,475 1008,480 1008,480" /><polygon points="-544,-362 -544,-362 -576,-362 -576,-362 -544,-362" /><polygon points="-544,448 -544,542.6087 -544,672 -544,672 -544,448" /><polygon points="-544,-352 -544,-352 -544,-352 -544,-352 -544,-352 -544,-256 -544,-256" /><polygon points="-544,224 -544,448 -544,448 -544,448 -544,224" /><polygon points="-544,0 -544,192 -544,216 -544,224 -544,224 -544,64 -544,32 -544,0" /><polygon points="-544,-224 -544,-32 -544,0 -544,0 -544,-128 -544,-224" /><polygon points="1255,672 1312,672 1312,672 1248,672 1248,672" /><polygon points="1312,284 1312,284 1312,284 1312,284 1312,60 1312,60" /><polygon points="1312,60 1312,60 1312,-96 1312,-96 1312,-96" /><polygon points="1312,284 1312,284 1336,284 1336,284 1312,284" /><polygon points="-192,448 -256,448 -274.9091,448 -301.0909,448 -403.2,448 -416,448 -416,448 -403.2,448 -301.0909,448 -274.9091,448 -256,448 -192,448" /><polygon points="32,448 -32,448 -192,448 -192,448 -32,448 32,448" /><polygon points="256,448 252.8,448 192,448 32,448 32,448 192,448 252.8,448 256,448" /><polygon points="480,448 400,448 381.0909,448 354.9091,448 256,448 256,448 354.9091,448 381.0909,448 400,448 480,448" /><polygon points="704,448 592,448 512,448 480,448 480,448 624,448 704,448" /><polygon points="928,448 816,448 704,448 704,448 848,448 928,448" /><polygon points="1152,448 1008,448 989.0909,448 962.9091,448 960,448 928,448 928,448 960,448 962.9091,448 989.0909,448 1008,448 1152,448" /><polygon points="1248,-128 1248,-128 1280,-128 1280,-128" /><polygon points="1184,-128 1184,-128 1216,-128 1216,-128" /><polygon points="1184,-96 1184,-96 1184,-128 1184,-128" /><polygon points="1184,-96 1184,-96 1216,-96 1216,-96" /><polygon points="1248,-96 1248,-96 1280,-96 1280,-96" /><polygon points="1280,-128 1280,-128 1280,-96 1280,-96" /><polygon points="1248,-96 1248,-96 1248,-128 1248,-128" /><polygon points="1216,-128 1216,-128 1216,-96 1216,-96" /><polygon points="-480,64 -480,64 -512,64 -512,64" /><polygon points="-416,64 -416,64 -448,64 -448,64" /><polygon points="-416,32 -416,32 -416,64 -416,64" /><polygon points="-416,32 -416,32 -448,32 -448,32" /><polygon points="-480,32 -480,32 -512,32 -512,32" /><polygon points="-512,64 -512,64 -512,32 -512,32" /><polygon points="-448,64 -448,64 -448,32 -448,32" /><polygon points="-480,32 -480,32 -480,64 -480,64" /><polygon points="-416,216 -416,192 -416,192 -416,216 -416,224 -416,224" /><polygon points="-440,192 -440,216 -544,216 -544,192" /><polygon points="-544,448 -544,224 -544,216 -440,216 -416,216 -416,224 -416,448" /><polygon points="-320,581.3333 -394.1818,672 -544,672 -544,542.6087 -320,493.913" /><polygon points="-256,480 -233,475 -320,581.3333 -320,493.913" /><polygon points="-274.9091,448 -256,448 -279,453" /><polygon points="-320,466.087 -403.2,448 -301.0909,448 -288,464 -279,475" /><polygon points="-320,493.913 -544,542.6087 -544,448 -416,448 -403.2,448 -320,466.087" /><polygon points="-279,475 -256,480 -320,493.913 -320,466.087" /><polygon points="-301.0909,448 -274.9091,448 -279,453 -288,464" /><polygon points="-170.1818,672 -320,672 -394.1818,672 -320,581.3333 -233,475 -224,464 -170.1818,529.7778" /><polygon points="-53.8182,672 -96,672 -170.1818,672 -170.1818,529.7778" /><polygon points="354.9091,448 381.0909,448 377,453 368,464" /><polygon points="-9,672 -53.8182,672 -170.1818,529.7778 -224,464 -233,453 -32,496.6957 -9,501.6957" /><polygon points="215,672 128,672 -9,672 -9,501.6957 192,545.3914 215,550.3914" /><polygon points="382,656 382,672 352,672 215,672 215,550.3914 382,586.6957" /><polygon points="252.8,448 256,448 354.9091,448 368,464 377,475" /><polygon points="-32,496.6957 -233,453 -256,448 -192,448 -32,448" /><polygon points="192,545.3914 -9,501.6957 -32,496.6957 -32,448 32,448 192,448" /><polygon points="382,483.913 382,525.1111 382,586.6957 215,550.3914 192,545.3914 192,448 252.8,448 377,475 382,476.087" /><polygon points="504,656 504,664 504,672 382,672 382,656" /><polygon points="576,672 504,672 504,664 592,664 592,672" /><polygon points="512,472.3478 512,561.7778 432,464 423,453" /><polygon points="400,480 423,475 382,525.1111 382,483.913" /><polygon points="382,476.087 400,480 382,483.913" /><polygon points="400,448 377,453 381.0909,448" /><polygon points="512,656 512,561.7778 512,472.3478 512,448 592,448 592,656" /><polygon points="382,586.6957 382,525.1111 423,475 432,464 512,561.7778 512,656 504,656 382,656" /><polygon points="480,448 512,448 512,472.3478 423,453 400,448" /><polygon points="816,672 800,672 592,672 592,664 592,656 592,448 704,448 816,448" /><polygon points="928,448 960,448 960,469.5652 960,490.4348 960,561.7778 960,672 816,672 816,448" /><polygon points="1232,496.6957 1031,453 1008,448 1152,448 1232,448" /><polygon points="1312,448 1312,514.087 1255,501.6957 1232,496.6957 1232,448" /><polygon points="962.9091,448 989.0909,448 985,453 976,464" /><polygon points="989.0909,448 1008,448 985,453" /><polygon points="960,448 962.9091,448 985,475 960,469.5652" /><polygon points="960,469.5652 985,475 1008,480 960,490.4348" /><polygon points="1008,480 1031,475 960,561.7778 960,490.4348" /><polygon points="1184,672 1024,672 960,672 960,561.7778 1031,475 1040,464 1184,640" /><polygon points="1210.1819,672 1184,672 1184,640" /><polygon points="1255,672 1248,672 1210.1819,672 1184,640 1040,464 1031,453 1232,496.6957 1255,501.6957" /><polygon points="1312,514.087 1312,672 1255,672 1255,501.6957" /><polygon points="512,656 592,656 592,656 584,656 512,656 504,656 504,656" /><polygon points="-256,448 -233,453 -233,453 -256,448" /><polygon points="400,448 400,448 377,453 377,453" /><polygon points="368,464 377,453 377,453 368,464" /><polygon points="377,475 368,464 368,464 377,475" /><polygon points="-279,453 -256,448 -256,448 -279,453" /><polygon points="-233,453 -224,464 -224,464 -233,453" /><polygon points="-288,464 -279,453 -279,453 -288,464" /><polygon points="-224,464 -233,475 -233,475 -224,464" /><polygon points="-279,475 -288,464 -288,464 -279,475" /><polygon points="-233,475 -256,480 -256,480 -233,475" /><polygon points="-256,480 -279,475 -279,475 -256,480" /><polygon points="1344,316 1344,356 1360,356 1360,316" /><polygon points="1344,356 1344,316 1344,284 1336,284 1336,388 1344,388" /><polygon points="1344,316 1360,316 1360,316 1344,316" /><polygon points="1336,284 1344,284 1344,284 1336,284" /><polygon points="1344,284 1344,316 1344,316 1344,284" /><polygon points="1360,356 1344,356 1344,356 1360,356" /><polygon points="1360,316 1360,356 1360,356 1360,316" /><polygon points="1344,388 1336,388 1336,388 1344,388" /><polygon points="1344,356 1344,388 1344,388 1344,356" /><polygon points="1312,284 1312,284 1312,388 1312,388" /><polygon points="1336,284 1312,284 1312,388 1336,388" /><polygon points="1336,388 1312,388 1312,388 1312,388 1312,388 1336,388" /><polygon points="504,656 504,656 504,656 504,664 504,664 504,664 504,664 504,656" /><polygon points="592,664 592,664 592,664 592,656 592,656 592,656 592,656 592,664" /><polygon points="512,660 512,656 584,656 584,660" /><polygon points="584,664 512,664 512,660 584,660" /><polygon points="584,660 584,656 584,656 584,660" /><polygon points="512,660 512,664 512,664 512,660" /><polygon points="512,664 584,664 592,664 592,664 504,664 504,664" /><polygon points="584,660 512,660 512,664 584,664" /><polygon points="-544,-438 -544,-448 -544,-448 -544,-438" /><polygon points="-576,-438 -544,-438 -544,-438 -544,-438 -576,-438" /><polygon points="-576,-362 -576,-362 -588,-362 -588,-362 -576,-362" /><polygon points="-576,-362 -576,-438 -576,-438 -576,-362" /><polygon points="-576,-438 -576,-362 -544,-362 -544,-438" /><polygon points="-588,-438 -576,-438 -576,-438 -576,-438 -588,-438" /><polygon points="-600,-438 -588,-438 -588,-438 -600,-438" /><polygon points="-600,-438 -600,-362 -588,-362 -588,-438" /><polygon points="-588,-438 -588,-362 -576,-362 -576,-438" /><polygon points="-588,-362 -600,-362 -600,-362 -588,-362" /><polygon points="-600,-362 -600,-438 -600,-438 -600,-362" /><polygon points="-416,216 -440,216 -440,192 -416,192" /><polygon points="-440,192 -440,192 -416,192 -416,192" /><polygon points="-416,192 -416,192 -416,216 -416,216" /><polygon points="-416,216 -416,216 -440,216 -440,216" /><polygon points="-440,216 -440,216 -440,192 -440,192" /><polygon points="-576,-448 -576,-448 -576,-449 -576,-449" /><polygon points="-544,-512 -544,-736 -544,-736 -544,-680 -544,-512" /><polygon points="1312,-736 1312,-736 1248,-736 1248,-736" /><polygon points="1312,-488 1312,-288 1312,-264 1312,-264 1312,-488" /><polygon points="1312,-712 1312,-512 1312,-488 1312,-488 1312,-712" /><polygon points="1312,-240 1312,-240 1312,-240 1312,-96 1312,-96 1312,-96 1312,-240" /><polygon points="1184,-512 1054,-512 1054,-512 1184,-512" /><polygon points="638,-512 576,-512 414,-512 414,-512 606,-512 638,-512" /><polygon points="862,-512 800,-512 638,-512 638,-512 800,-512 862,-512" /><polygon points="-34,-512 -96,-512 -258,-512 -258,-512 -96,-512 -34,-512" /><polygon points="190,-512 128,-512 -34,-512 -34,-512 128,-512 190,-512" /><polygon points="-320,-512 -544,-512 -544,-512 -320,-512" /><polygon points="-320,-736 -544,-736 -544,-512 -320,-512" /><polygon points="-96,-736 -320,-736 -320,-512 -290,-512 -258,-512 -96,-512" /><polygon points="128,-736 -96,-736 -96,-512 -34,-512 128,-512" /><polygon points="352,-736 128,-736 128,-512 190,-512 352,-512" /><polygon points="576,-736 352,-736 352,-512 382,-512 414,-512 576,-512" /><polygon points="800,-736 576,-736 576,-512 638,-512 800,-512" /><polygon points="1024,-736 800,-736 800,-512 862,-512 1022,-512 1024,-512" /><polygon points="1248,-736 1024,-736 1024,-512 1054,-512 1184,-512 1208,-512 1232,-512 1248,-512" /><polygon points="1260,-512 1284,-512 1312,-512 1312,-712 1312,-736 1248,-736 1248,-512" /><polygon points="1312,-288 1312,-488 1312,-512 1284,-512 1284,-288" /><polygon points="1284,-264 1312,-264 1312,-288 1284,-288" /><polygon points="1208,-288 1208,-512 1184,-512 1184,-464 1184,-288" /><polygon points="1184,-264 1208,-264 1208,-288 1184,-288" /><polygon points="1232,-288 1232,-512 1208,-512 1208,-288" /><polygon points="1208,-264 1208,-240 1232,-240 1232,-264 1232,-288 1208,-288" /><polygon points="1284,-288 1284,-512 1260,-512 1260,-288" /><polygon points="1260,-264 1260,-240 1284,-240 1284,-264 1284,-288 1260,-288" /><polygon points="1260,-288 1260,-512 1248,-512 1232,-512 1232,-288" /><polygon points="1232,-264 1260,-264 1260,-288 1232,-288" /><polygon points="1184,-512 1184,-512 1184,-464 1184,-464" /><polygon points="-544,-736 -544,-512 -544,-512 -544,-736" /><polygon points="-320,-736 -544,-736 -544,-736 -320,-736" /><polygon points="-96,-736 -320,-736 -320,-736 -96,-736" /><polygon points="128,-736 -96,-736 -96,-736 128,-736" /><polygon points="352,-736 128,-736 128,-736 352,-736" /><polygon points="576,-736 520,-736 512,-736 382,-736 352,-736 352,-736 576,-736" /><polygon points="800,-736 600,-736 592,-736 576,-736 576,-736 800,-736" /><polygon points="1024,-736 800,-736 800,-736 1024,-736" /><polygon points="1248,-736 1024,-736 1024,-736 1248,-736" /><polygon points="1312,-240 1312,-264 1312,-264 1312,-240" /><polygon points="1312,-736 1312,-736 1312,-736 1312,-712 1312,-712" /><polygon points="1022,-512 1024,-512 1054,-512 1054,-512 1022,-512" /><polygon points="1022,-512 1022,-512 862,-512 862,-512" /><polygon points="352,-512 382,-512 382,-512 352,-512 190,-512 190,-512" /><polygon points="-290,-512 -258,-512 -258,-512 -290,-512" /><polygon points="-290,-512 -290,-512 -320,-512 -320,-512" /><polygon points="1024,-512 1022,-512 862,-512 800,-512 800,-720 800,-736 1024,-736" /><polygon points="1248,-512 1208,-512 1184,-512 1054,-512 1024,-512 1024,-736 1248,-736" /><polygon points="1312,-736 1312,-712 1312,-512 1248,-512 1248,-736" /><polygon points="606,-720 600,-720 600,-728 600,-736 800,-736 800,-720" /><polygon points="592,-728 592,-736 600,-736 600,-728" /><polygon points="606,-512 414,-512 382,-512 382,-720 512,-720 520,-720 592,-720 600,-720 606,-720" /><polygon points="800,-720 800,-512 638,-512 606,-512 606,-720" /><polygon points="520,-728 520,-736 576,-736 592,-736 592,-728 592,-720 520,-720" /><polygon points="512,-728 512,-736 520,-736 520,-728" /><polygon points="382,-736 512,-736 512,-728 512,-720 382,-720" /><polygon points="-320,-512 -544,-512 -544,-736 -320,-736" /><polygon points="-96,-512 -258,-512 -290,-512 -320,-512 -320,-736 -96,-736" /><polygon points="128,-512 -34,-512 -96,-512 -96,-736 128,-736" /><polygon points="352,-512 190,-512 128,-512 128,-736 352,-736" /><polygon points="382,-736 382,-720 382,-512 352,-512 352,-736" /><polygon points="1208,-240 1312,-240 1312,-240 1284,-240 1260,-240 1232,-240 1208,-240 1184,-240 1184,-240" /><polygon points="1184,-464 1184,-288 1184,-264 1184,-240 1184,-240 1184,-264 1184,-288 1184,-464" /><polygon points="1208,-512 1248,-512 1312,-512 1312,-488 1312,-288 1208,-288" /><polygon points="1312,-288 1312,-264 1312,-240 1208,-240 1208,-264 1208,-288" /><polygon points="1184,-464 1184,-512 1208,-512 1208,-288 1184,-288" /><polygon points="1208,-288 1208,-264 1184,-264 1184,-288" /><polygon points="592,-720 592,-720 592,-720 592,-720 600,-720 600,-720 592,-720" /><polygon points="592,-720 592,-720 592,-728 592,-728" /><polygon points="520,-728 520,-728 520,-720 520,-720" /><polygon points="592,-728 520,-728 520,-720 592,-720" /><polygon points="520,-728 520,-728 520,-728 512,-728 512,-728 520,-728" /><polygon points="592,-720 592,-720 520,-720 520,-720" /><polygon points="592,-724 592,-728 592,-728 592,-724" /><polygon points="520,-724 520,-720 520,-720 520,-724" /><polygon points="520,-724 520,-728 592,-728 592,-724" /><polygon points="592,-720 520,-720 520,-724 592,-724" /><polygon points="520,-728 520,-728 592,-728 592,-728" /><polygon points="592,-728 520,-728 520,-724 592,-724" /><polygon points="1312,-96 1312,-96 1312,60 1312,60 1312,-96" /><polygon points="1312,-240 1312,-264 1312,-264 1312,-128 1312,-96 1312,-96" /><polygon points="1208,-240 1208,-240 1184,-240 1184,-240" /><polygon points="1208,-240 1184,-240 1184,-264 1208,-264" /><polygon points="1184,-240 1184,-240 1184,-264 1184,-264" /><polygon points="1208,-264 1208,-264 1208,-240 1208,-240" /><polygon points="1184,-264 1184,-264 1208,-264 1208,-264" /><polygon points="584,656 584,656 592,656 592,656" /><polygon points="504,656 504,656 512,656 512,656" /><polygon points="512,656 584,656 592,656 592,656 504,656 504,656" /><polygon points="584,656 512,656 512,660 584,660" /><polygon points="512,660 512,664 584,664 584,660" /><polygon points="584,664 584,664 584,660 584,660" /><polygon points="592,664 592,664 584,664 584,664" /><polygon points="512,656 512,656 512,660 512,660" /><polygon points="512,664 512,664 584,664 584,664" /><polygon points="584,664 584,664 512,664 512,664" /><polygon points="584,660 584,660 512,660 512,660" /><polygon points="512,660 512,660 584,660 584,660" /><polygon points="512,664 512,664 504,664 504,664" /><polygon points="584,664 512,664 512,660 584,660" /><polygon points="512,664 512,664 512,660 512,660" /><polygon points="584,660 584,660 584,664 584,664" /><polygon points="584,664 584,664 512,664 512,664" /><polygon points="512,660 512,660 584,660 584,660" /><polygon points="592,656 592,664 504,664 504,656" /><polygon points="592,664 592,664 584,664 512,664 504,664 504,664" /><polygon points="1312,-205 1216,-205 1216,-156 1312,-156" /><polygon points="-544,160 -544,160 -544,108 -544,108" /><polygon points="-544,108 -544,108 -453,108 -453,108 -469.0588,108" /><polygon points="1312,-205 1312,-205 1312,-156 1312,-156" /><polygon points="1312,-156 1312,-156 1216,-156 1216,-156 1239.6309,-156" /><polygon points="1312,-156 1239.6309,-156 1239.6309,-205 1312,-205" /><polygon points="-544,672 -544,672 -544,542.6087 -544,448 -544,448 -544,448" /><polygon points="-544,-362 -544,-362 -544,-362 -544,-352 -544,-352 -544,-352" /><polygon points="-544,-512 -544,-512 -544,-512 -544,-512 -544,-456 -544,-448 -544,-448 -544,-448" /><polygon points="-544,-448 -544,-448 -544,-438 -544,-362 -544,-362" /><polygon points="-544,-512 -544,-512 -544,-736 -544,-736" /><polygon points="-544,672 -544,672 -394.1818,672 -320,672 -320,672" /><polygon points="-320,672 -320,672 -170.1818,672 -96,672 -96,672" /><polygon points="-96,672 -96,672 -53.8182,672 -9,672 128,672 128,672" /><polygon points="128,672 128,672 215,672 352,672 352,672" /><polygon points="352,672 352,672 382,672 504,672 576,672 576,672" /><polygon points="576,672 576,672 592,672 800,672 800,672" /><polygon points="800,672 800,672 816,672 960,672 1024,672 1024,672" /><polygon points="1024,672 1024,672 1184,672 1210.1819,672 1248,672 1248,672" /><polygon points="1312,672 1312,672 1278,672 1248,672 1248,672" /><polygon points="-544,-736 -544,-736 -320,-736 -320,-736" /><polygon points="-320,-736 -320,-736 -290,-736 -258,-736 -192,-736 -96,-736 -96,-736" /><polygon points="-96,-736 -96,-736 32,-736 128,-736 128,-736" /><polygon points="128,-736 128,-736 256,-736 352,-736 352,-736" /><polygon points="352,-736 352,-736 382,-736 576,-736 576,-736" /><polygon points="576,-736 576,-736 606,-736 800,-736 800,-736" /><polygon points="800,-736 800,-736 830,-736 1024,-736 1024,-736" /><polygon points="1024,-736 1024,-736 1054,-736 1248,-736 1248,-736" /><polygon points="1312,-736 1312,-736 1248,-736 1248,-736" /><polygon points="1312,672 1312,672 1312,514.087 1312,448 1312,448" /><polygon points="1312,448 1312,448 1312,388 1312,388 1312,388" /><polygon points="1312,284 1312,284 1312,284 1312,352 1312,388 1312,388" /><polygon points="1054,-512 1054,-512 1022,-512 1022,-512" /><polygon points="382,-512 382,-512 414,-512 414,-512" /><polygon points="-258,-512 -258,-512 -290,-512 -290,-512" /><polygon points="1054,-512 1054,-512 1054,-512 1054,-512 1054,-480 1054,-480" /><polygon points="1054,-480 1054,-480 1022,-480 1022,-480" /><polygon points="1022,-480 1022,-480 1022,-512 1022,-512 1022,-512 1022,-512" /><polygon points="414,-480 414,-480 382,-480 382,-480" /><polygon points="382,-512 382,-512 382,-480 382,-480" /><polygon points="414,-512 414,-512 414,-512 414,-512 414,-480 414,-480" /><polygon points="-290,-480 -290,-480 -290,-512 -290,-512 -290,-512 -290,-512" /><polygon points="-258,-480 -258,-480 -290,-480 -290,-480" /><polygon points="-258,-512 -258,-512 -258,-512 -258,-512 -258,-480 -258,-480" /><polygon points="985,453 985,453 1008,448 1008,448" /><polygon points="1008,448 1008,448 1031,453 1031,453" /><polygon points="976,464 976,464 985,453 985,453" /><polygon points="1031,453 1031,453 1040,464 1040,464" /><polygon points="985,475 985,475 976,464 976,464" /><polygon points="1040,464 1040,464 1031,475 1031,475" /><polygon points="1008,480 1008,480 985,475 985,475" /><polygon points="1031,475 1031,475 1008,480 1008,480" /><polygon points="-233,453 -233,453 -256,448 -256,448" /><polygon points="400,448 400,448 377,453 377,453" /><polygon points="400,448 400,448 423,453 423,453" /><polygon points="377,453 377,453 368,464 368,464" /><polygon points="423,453 423,453 432,464 432,464" /><polygon points="368,464 368,464 377,475 377,475" /><polygon points="432,464 432,464 423,475 423,475" /><polygon points="400,480 400,480 382,476.087 377,475 377,475" /><polygon points="423,475 423,475 400,480 400,480" /><polygon points="-256,448 -256,448 -279,453 -279,453" /><polygon points="-224,464 -224,464 -233,453 -233,453" /><polygon points="-279,453 -279,453 -288,464 -288,464" /><polygon points="-233,475 -233,475 -224,464 -224,464" /><polygon points="-288,464 -288,464 -279,475 -279,475" /><polygon points="-256,480 -256,480 -233,475 -233,475" /><polygon points="-279,475 -279,475 -256,480 -256,480" /><polygon points="-544,-352 -544,-352 -544,-352 -544,-256 -544,-224 -544,-224" /><polygon points="-544,-352 -544,-352 -544,-362 -544,-362 -544,-352" /><polygon points="1312,60 1312,64 1312,284 1312,284 1312,284 1312,284 1312,60" /><polygon points="1312,-488 1312,-352 1312,-264 1312,-264 1312,-264 1312,-288 1312,-488" /><polygon points="1312,-712 1312,-576 1312,-488 1312,-488 1312,-512 1312,-712" /><polygon points="1312,-712 1312,-736 1312,-736 1312,-608 1312,-576 1312,-576" /><polygon points="-32,-128 -32,-288 -32,-288 -32,-128" /><polygon points="800,64 800,224 800,224 800,64" /><polygon points="1280,-128 1312,-128 1312,-128 1248,-128 1248,-128" /><polygon points="1280,-128 1248,-128 1248,-128 1280,-128" /><polygon points="1216,-128 1184,-128 1184,-128 1216,-128" /><polygon points="800,64 1024,64 1024,-96 800,-96" /><polygon points="1024,64 1248,64 1248,-96 1216,-96 1184,-96 1024,-96" /><polygon points="1248,64 1312,64 1312,60 1312,-96 1280,-96 1248,-96" /><polygon points="1024,-128 800,-128 800,-96 1024,-96" /><polygon points="1184,-96 1184,-128 1024,-128 1024,-96" /><polygon points="1248,-128 1216,-128 1216,-96 1248,-96" /><polygon points="1312,-128 1280,-128 1280,-96 1312,-96" /><polygon points="1024,64 800,64 800,64 1024,64" /><polygon points="1248,64 1024,64 1024,64 1248,64" /><polygon points="1184,-128 1184,-96 1184,-96 1184,-128" /><polygon points="1280,-96 1280,-128 1280,-128 1280,-96" /><polygon points="1248,-128 1248,-96 1248,-96 1248,-128" /><polygon points="1216,-96 1216,-128 1216,-128 1216,-96" /><polygon points="0,224 -32,224 -32,256 0,256" /><polygon points="0,224 128,224 128,128 128,32 -32,32 -32,64 -32,224" /><polygon points="128,32 128,-96 128,-128 -32,-128 -32,32" /><polygon points="128,-128 128,-192 128,-288 0,-288 -32,-288 -32,-128" /><polygon points="0,-320 -32,-320 -32,-288 0,-288" /><polygon points="352,128 128,128 128,224 224,224 352,224" /><polygon points="576,128 352,128 352,224 448,224 576,224" /><polygon points="640,224 640,128 576,128 576,224" /><polygon points="800,224 768,224 768,256 800,256" /><polygon points="640,64 640,128 640,224 672,224 768,224 800,224 800,64" /><polygon points="640,-96 640,64 800,64 800,-96" /><polygon points="352,-288 224,-288 128,-288 128,-192 352,-192" /><polygon points="576,-288 448,-288 352,-288 352,-192 576,-192" /><polygon points="640,-192 640,-288 576,-288 576,-192" /><polygon points="768,-288 672,-288 640,-288 640,-192 640,-96 800,-96 800,-128 800,-288" /><polygon points="800,-320 768,-320 768,-288 800,-288" /><polygon points="768,-288 768,-288 672,-288 672,-288" /><polygon points="224,224 128,224 0,224 0,224 128,224 224,224" /><polygon points="448,224 352,224 224,224 224,224 352,224 448,224" /><polygon points="672,224 640,224 576,224 448,224 448,224 576,224 640,224 672,224" /><polygon points="640,-192 640,-192 640,-96 640,-96" /><polygon points="128,-96 128,32 128,128 128,128 128,-64 128,-96" /><polygon points="640,128 640,128 576,128 576,128" /><polygon points="352,-192 128,-192 128,-192 352,-192" /><polygon points="576,-192 352,-192 352,-192 576,-192" /><polygon points="-32,-128 -32,-128 -192,-128 -192,-128" /><polygon points="-32,-128 -192,-128 -192,32 -32,32" /><polygon points="-32,64 -32,32 -192,32 -192,64" /><polygon points="-320,64 -416,64 -448,64 -480,64 -512,64 -544,64 -544,64 -320,64" /><polygon points="-192,64 -320,64 -320,64 -192,64" /><polygon points="-512,64 -480,64 -480,64 -512,64" /><polygon points="-448,64 -416,64 -416,64 -448,64" /><polygon points="-480,32 -480,64 -448,64 -448,32" /><polygon points="-544,32 -544,64 -512,64 -512,32" /><polygon points="-192,32 -320,32 -416,32 -416,64 -320,64 -192,64" /><polygon points="-320,-128 -544,-128 -544,0 -544,32 -512,32 -480,32 -448,32 -416,32 -320,32" /><polygon points="-192,-128 -320,-128 -320,32 -192,32" /><polygon points="-416,64 -416,32 -416,32 -416,64" /><polygon points="-512,32 -512,64 -512,64 -512,32" /><polygon points="-448,32 -448,64 -448,64 -448,32" /><polygon points="-480,64 -480,32 -480,32 -480,64" /><polygon points="-453,108 -544,108 -544,160 -453,160" /><polygon points="512,-728 512,-728 512,-720 512,-720 512,-728" /><polygon points="592,-720 592,-720 592,-724 592,-724" /><polygon points="520,-724 520,-720 592,-720 592,-724" /><polygon points="592,-728 520,-728 520,-724 592,-724" /><polygon points="520,-728 520,-728 520,-724 520,-724" /><polygon points="520,-728 520,-728 592,-728 592,-728" /><polygon points="592,-728 592,-728 520,-728 520,-728" /><polygon points="592,-724 592,-724 520,-724 520,-724" /><polygon points="520,-724 520,-724 592,-724 592,-724" /><polygon points="-544,192 -544,192 -416,192 -416,192" /><polygon points="-469.0588,64 -544,64 -544,192 -469.0588,192" /><polygon points="-469.0588,160 -469.0588,192 -453,192 -453,160" /><polygon points="-453,64 -469.0588,64 -469.0588,108 -453,108" /><polygon points="-416,192 -416,64 -453,64 -453,192" /><polygon points="-453,108 -453,108 -453,160 -453,160" /><polygon points="-453,160 -453,160 -544,160 -544,160 -469.0588,160" /><polygon points="-469.0588,160 -544,160 -544,108 -469.0588,108" /><polygon points="1184,-128 1184,-240 1184,-240 1184,-128" /><polygon points="1312,-240 1312,-240 1184,-240 1184,-240" /><polygon points="1312,-240 1239.6309,-240 1239.6309,-128 1312,-128" /><polygon points="1216,-156 1216,-128 1239.6309,-128 1239.6309,-156" /><polygon points="1239.6309,-240 1216,-240 1216,-205 1239.6309,-205" /><polygon points="1184,-240 1184,-128 1216,-128 1216,-240" /><polygon points="1216,-156 1216,-156 1216,-205 1216,-205" /><polygon points="1216,-205 1216,-205 1312,-205 1312,-205 1239.6309,-205" /><polygon points="592,-724 520,-724 520,-728 592,-728" /><polygon points="592,-728 592,-728 592,-724 592,-724" /><polygon points="520,-724 520,-724 520,-728 520,-728" /><polygon points="520,-728 520,-728 592,-728 592,-728" /><polygon points="592,-724 592,-724 520,-724 520,-724" /><polygon points="600,-720 600,-728 600,-728 600,-720" /><polygon points="592,-728 600,-728 600,-720 592,-720 520,-720 512,-720 512,-728" /><polygon points="592,-720 592,-720 520,-720 520,-720" /><polygon points="512,-720 520,-720 520,-720 520,-720 520,-720 520,-720 512,-720" /><polygon points="600,-728 592,-728 592,-728 592,-728 592,-728 592,-728 600,-728" /><polygon points="512,-728 512,-728 520,-728 592,-728 592,-728" /><polygon points="-544,-128 -544,-128 -544,-138 -544,-352 -544,-352 -544,-224 -544,-128" /><polygon points="1312,64 1312,64 1312,128 1312,284 1312,284 1312,64" /><polygon points="1312,-736 1312,-736 1312,-608 1312,-608" /><polygon points="1312,-352 1312,-160 1312,-128 1312,-128 1312,-264 1312,-352" /><polygon points="1312,-576 1312,-384 1312,-352 1312,-352 1312,-488 1312,-576" /><polygon points="-32,224 -32,224 -32,256 -32,256 -32,224" /><polygon points="-32,160 -32,224 -32,224 -32,64 -32,64" /><polygon points="800,-288 800,-288 800,-128 800,-128" /><polygon points="800,-288 800,-288 800,-320 800,-320 800,-288" /><polygon points="1024,-128 800,-128 800,-128 1024,-128" /><polygon points="1248,-128 1024,-128 1024,-128 1184,-128 1216,-128 1248,-128" /><polygon points="1312,64 1312,64 1248,64 1248,64" /><polygon points="1024,-96 800,-96 800,-128 1024,-128" /><polygon points="1248,-96 1024,-96 1024,-128 1248,-128" /><polygon points="1312,-128 1312,-96 1248,-96 1248,-128" /><polygon points="1024,64 800,64 800,-96 1024,-96" /><polygon points="1248,64 1024,64 1024,-96 1248,-96" /><polygon points="1312,-96 1312,64 1248,64 1248,-96" /><polygon points="224,-288 128,-288 0,-288 0,-288 128,-288 224,-288" /><polygon points="448,-288 352,-288 224,-288 224,-288 352,-288 448,-288" /><polygon points="672,-288 640,-288 576,-288 448,-288 448,-288 576,-288 640,-288 672,-288" /><polygon points="0,-288 0,-288 0,-320 0,-320 0,-288" /><polygon points="768,224 768,224 672,224 672,224" /><polygon points="640,-96 640,64 640,128 640,128 640,64 640,-96" /><polygon points="640,-96 640,-192 640,-288 672,-288 768,-288 800,-288 800,-128 800,-96" /><polygon points="800,64 640,64 640,-96 800,-96" /><polygon points="768,224 672,224 640,224 640,128 640,64 800,64 800,224" /><polygon points="128,-192 128,-192 128,-128 128,-96 128,-96" /><polygon points="352,128 128,128 128,128 352,128" /><polygon points="576,128 352,128 352,128 576,128" /><polygon points="640,-192 640,-192 576,-192 576,-192" /><polygon points="352,-192 128,-192 128,-288 224,-288 352,-288" /><polygon points="576,-192 352,-192 352,-288 448,-288 576,-288" /><polygon points="640,-288 640,-192 576,-192 576,-288" /><polygon points="352,224 224,224 128,224 128,160 128,128 352,128" /><polygon points="576,224 448,224 352,224 352,128 576,128" /><polygon points="640,128 640,224 576,224 576,128" /><polygon points="-32,-128 -32,-288 0,-288 128,-288 128,-192 128,-96 128,-64 -32,-64" /><polygon points="128,-64 128,128 128,160 -32,160 -32,64 -32,-64" /><polygon points="128,160 128,224 0,224 -32,224 -32,160" /><polygon points="768,224 768,224 768,256 768,256 768,224" /><polygon points="-32,64 -32,64 -192,64 -192,64" /><polygon points="-192,-128 -32,-128 -32,-64 -32,64 -192,64" /><polygon points="-320,-128 -544,-128 -544,-128 -320,-128" /><polygon points="-192,-128 -320,-128 -320,-128 -192,-128" /><polygon points="-544,-128 -320,-128 -320,64 -544,64" /><polygon points="-320,-128 -192,-128 -192,64 -320,64" /><polygon points="-416,64 -416,64 -416,192 -416,192" /><polygon points="-544,192 -544,192 -544,64 -544,64" /><polygon points="-544,64 -544,64 -416,64 -416,64" /><polygon points="-544,192 -544,64 -416,64 -416,192" /><polygon points="1312,-240 1312,-240 1312,-128 1312,-128" /><polygon points="1312,-128 1312,-128 1184,-128 1184,-128" /><polygon points="1312,-240 1312,-128 1184,-128 1184,-240" /><polygon points="-544,448 -544,256 -544,224 -544,224 -544,448" /><polygon points="-544,224 -544,64 -544,64 -544,64 -544,224" /><polygon points="-544,32 -544,-128 -544,-128 -544,64 -544,64" /><polygon points="-544,-448 -544,-512 -544,-512 -544,-448" /><polygon points="-544,-362 -544,-448 -544,-448 -544,-362" /><polygon points="-320,672 -394.1818,672 -544,672 -544,672 -320,672" /><polygon points="-96,672 -170.1818,672 -320,672 -320,672 -96,672" /><polygon points="128,672 -9,672 -53.8182,672 -96,672 -96,672 128,672" /><polygon points="352,672 215,672 128,672 128,672 352,672" /><polygon points="576,672 382,672 352,672 352,672 576,672" /><polygon points="800,672 606,672 576,672 576,672 800,672" /><polygon points="1024,672 960,672 830,672 800,672 800,672 1024,672" /><polygon points="1248,672 1210.1819,672 1184,672 1024,672 1024,672 1248,672" /><polygon points="1278,-736 1312,-736 1312,-736 1312,-736 1312,-736 1248,-736 1248,-736" /><polygon points="-320,493.913 -544,542.6087 -544,672 -394.1818,672 -320,581.3333" /><polygon points="-233,475 -256,480 -320,493.913 -320,581.3333" /><polygon points="-320,466.087 -403.2,448 -416,448 -544,448 -544,542.6087 -320,493.913" /><polygon points="-256,480 -279,475 -320,466.087 -320,493.913" /><polygon points="-170.1818,529.7778 -224,464 -233,475 -320,581.3333 -394.1818,672 -320,672 -170.1818,672" /><polygon points="-96,672 -53.8182,672 -170.1818,529.7778 -170.1818,672" /><polygon points="-416,32 -544,32 -544,64 -544,224 -544,256 -416,256" /><polygon points="-544,256 -544,448 -416,448 -416,445.2174 -416,413.2174 -416,256" /><polygon points="-256,448 -272.0537,444.5101 -279,453" /><polygon points="-279,453 -272.0537,444.5101 -310.8462,436.0769 -288,464" /><polygon points="-288,464 -310.8462,436.0769 -416,413.2174 -416,445.2174 -403.2,448 -320,466.087 -279,475" /><polygon points="-416,448 -403.2,448 -416,445.2174" /><polygon points="-192,32 -320,32 -416,32 -416,256 -192,256" /><polygon points="-416,256 -416,413.2174 -310.8462,436.0769 -272.0537,444.5101 -256,448 -233,453 -192,461.913 -192,256" /><polygon points="-32,224 -32,32 -192,32 -192,256 -32,256" /><polygon points="-192,256 -192,461.913 -108.7999,480 -32,480 -32,386.087 -32,354.0869 -32,256" /><polygon points="-108.7999,480 -32,496.6956 -32,480" /><polygon points="-9,501.6957 -32,496.6956 -108.7999,480 -192,461.913 -233,453 -224,464 -170.1818,529.7778 -53.8182,672 -9,672" /><polygon points="215,550.3914 192,545.3913 -9,501.6957 -9,672 128,672 215,672" /><polygon points="352,672 382,672 382,616.0869 382,586.6957 215,550.3914 215,672" /><polygon points="192,402.7826 -32,354.0869 -32,386.087 192,434.7826" /><polygon points="368,464 345.1538,436.0769 192,402.7826 192,434.7826 377,475" /><polygon points="-32,386.087 -32,480 -32,496.6956 -9,501.6957 192,545.3913 192,434.7826" /><polygon points="192,545.3913 215,550.3914 382,586.6957 382,525.1111 382,483.913 382,476.087 377,475 192,434.7826" /><polygon points="-32,224 0,224 0,32 -32,32" /><polygon points="224,32 128,32 32,32 0,32 0,224 0,256 192,256 224,256" /><polygon points="382,256 382,128 382,32 352,32 224,32 224,256" /><polygon points="-320,-362 -544,-362 -544,-352 -544,-138 -320,-138" /><polygon points="-544,-138 -544,-128 -544,32 -416,32 -320,32 -320,-138" /><polygon points="-192,-320 -192,-362 -258,-362 -290,-362 -320,-362 -320,-138 -192,-138" /><polygon points="-320,-138 -320,32 -192,32 -192,-128 -192,-138" /><polygon points="-258,-362 -258,-480 -290,-480 -290,-362" /><polygon points="-192,-736 -258,-736 -258,-512 -192,-512" /><polygon points="-258,-512 -258,-480 -258,-362 -192,-362 -192,-512" /><polygon points="-320,-736 -544,-736 -544,-512 -320,-512" /><polygon points="-544,-512 -544,-448 -544,-362 -320,-362 -320,-512" /><polygon points="-290,-736 -320,-736 -320,-512 -290,-512" /><polygon points="-320,-512 -320,-362 -290,-362 -290,-480 -290,-512" /><polygon points="-258,-512 -258,-736 -290,-736 -290,-512" /><polygon points="32,-128 0,-128 -32,-128 -192,-128 -192,32 -32,32 0,32 32,32" /><polygon points="128,32 128,-96 128,-128 32,-128 32,32" /><polygon points="-32,-128 -32,-288 -32,-320 -192,-320 -192,-138 -192,-128" /><polygon points="128,-320 32,-320 0,-320 0,-288 0,-128 32,-128 128,-128" /><polygon points="0,-128 0,-288 -32,-288 -32,-128" /><polygon points="352,-320 256,-320 128,-320 128,-128 128,-96 352,-96" /><polygon points="128,-96 128,32 224,32 352,32 352,-96" /><polygon points="382,-256 382,-320 352,-320 352,-96 382,-96" /><polygon points="352,-96 352,32 382,32 382,-96" /><polygon points="32,-736 -96,-736 -192,-736 -192,-512 32,-512" /><polygon points="-192,-512 -192,-362 -192,-320 -32,-320 0,-320 32,-320 32,-512" /><polygon points="256,-736 128,-736 32,-736 32,-512 256,-512" /><polygon points="32,-512 32,-320 128,-320 256,-320 256,-512" /><polygon points="382,-736 352,-736 256,-736 256,-512 382,-512" /><polygon points="256,-512 256,-320 352,-320 382,-320 382,-480 382,-512" /><polygon points="423,453 432,464 530.0939,583.8926 592,570.4348 592,489.7391" /><polygon points="382,525.1111 423,475 400,480 382,483.913" /><polygon points="382,483.913 400,480 382,476.087" /><polygon points="400,448 383.9463,444.51 377,453" /><polygon points="377,453 383.9463,444.51 345.1538,436.0769 368,464" /><polygon points="530.0939,583.8926 432,464 423,475 382,525.1111 382,586.6957 382,616.0869" /><polygon points="192,256 0,256 -32,256 -32,354.0869 192,402.7826" /><polygon points="416,256 382,256 224,256 192,256 192,402.7826 345.1538,436.0769 383.9463,444.51 400,448 416,451.4783" /><polygon points="423,453 592,489.7391 592,480 592,256 416,256 416,451.4783" /><polygon points="606,567.3913 530.0939,583.8926 382,616.0869 382,672 576,672 606,672" /><polygon points="830,518.6956 816,521.7391 606,567.3913 606,672 800,672 830,672" /><polygon points="960,561.7778 960,490.4348 830,518.6956 830,672 960,672" /><polygon points="816,256 800,256 768,256 606,256 592,256 592,480 816,480" /><polygon points="592,480 592,489.7391 592,570.4348 606,567.3913 816,521.7391 816,480" /><polygon points="960,469.5652 960,444.4445 960,437.5652 960,352 960,256 816,256 816,480 960,480" /><polygon points="816,480 816,521.7391 830,518.6956 960,490.4348 960,480" /><polygon points="606,-96 382,-96 382,32 382,128 606,128" /><polygon points="382,128 382,256 416,256 592,256 606,256 606,128" /><polygon points="768,128 768,-96 640,-96 606,-96 606,128" /><polygon points="768,256 768,224 768,128 606,128 606,256" /><polygon points="800,-96 768,-96 768,128 800,128" /><polygon points="768,128 768,224 800,224 800,128" /><polygon points="960,-96 800,-96 800,128 960,128" /><polygon points="800,128 800,224 800,256 816,256 960,256 960,128" /><polygon points="1008,448 991.9464,444.5101 985,453" /><polygon points="960,469.5652 985,475 976,464 960,444.4445" /><polygon points="960,561.7778 1031,475 1022,476.9565 1008,480 960,490.4348" /><polygon points="1040,464 1054,481.1111 1054,458 1031,453" /><polygon points="1184,640 1131.6364,576 1054,481.1111 1040,464 1031,475 960,561.7778 960,672 1024,672 1184,672" /><polygon points="1210.1819,672 1184,640 1184,672" /><polygon points="960,480 960,490.4348 1008,480 985,475 960,469.5652" /><polygon points="985,453 991.9464,444.5101 960,437.5652 960,444.4445 976,464" /><polygon points="1278,-96 1248,-96 1054,-96 1054,128 1278,128" /><polygon points="1054,128 1054,352 1278,352 1278,128" /><polygon points="1054,352 1054,458 1054,481.1111 1131.6364,576 1278,576 1278,352" /><polygon points="1131.6364,576 1184,640 1210.1819,672 1248,672 1278,672 1278,576" /><polygon points="1312,64 1312,-96 1278,-96 1278,128 1312,128" /><polygon points="1278,128 1278,352 1312,352 1312,284 1312,128" /><polygon points="1278,352 1278,576 1312,576 1312,448 1312,388 1312,352" /><polygon points="1278,576 1278,672 1312,672 1312,576" /><polygon points="1054,-96 1024,-96 960,-96 960,128 1054,128" /><polygon points="960,128 960,256 960,352 1054,352 1054,128" /><polygon points="960,352 960,437.5652 991.9464,444.5101 1008,448 1031,453 1054,458 1054,352" /><polygon points="606,-480 414,-480 382,-480 382,-320 382,-256 606,-256" /><polygon points="382,-256 382,-96 606,-96 606,-256" /><polygon points="640,-288 640,-480 638,-480 606,-480 606,-256 640,-256" /><polygon points="606,-256 606,-96 640,-96 640,-256" /><polygon points="768,-96 800,-96 800,-256 800,-288 768,-288 640,-288 640,-256 640,-96" /><polygon points="768,-288 768,-320 768,-480 640,-480 640,-288" /><polygon points="800,-320 800,-480 768,-480 768,-320" /><polygon points="1024,-480 1022,-480 862,-480 800,-480 800,-320 800,-288 800,-256 1024,-256" /><polygon points="800,-256 800,-96 960,-96 1024,-96 1024,-256" /><polygon points="1248,-480 1054,-480 1024,-480 1024,-256 1248,-256" /><polygon points="1024,-256 1024,-96 1054,-96 1248,-96 1248,-256" /><polygon points="1312,-256 1312,-384 1312,-480 1278,-480 1248,-480 1248,-256" /><polygon points="1278,-96 1312,-96 1312,-160 1312,-256 1248,-256 1248,-96" /><polygon points="638,-512 606,-512 414,-512 414,-480 606,-480 638,-480" /><polygon points="862,-512 830,-512 638,-512 638,-480 640,-480 768,-480 800,-480 862,-480" /><polygon points="1022,-480 1022,-512 862,-512 862,-480" /><polygon points="606,-736 576,-736 382,-736 382,-512 414,-512 606,-512" /><polygon points="830,-736 800,-736 606,-736 606,-512 638,-512 830,-512" /><polygon points="1054,-736 1024,-736 830,-736 830,-512 862,-512 1022,-512 1054,-512" /><polygon points="1278,-736 1248,-736 1054,-736 1054,-512 1278,-512" /><polygon points="1312,-512 1312,-608 1312,-736 1278,-736 1278,-512" /><polygon points="1278,-512 1054,-512 1054,-480 1248,-480 1278,-480" /><polygon points="1312,-480 1312,-512 1278,-512 1278,-480" /><polygon points="1312,448 1312,576 1312,672 1312,672 1312,448" /><polygon points="1312,388 1312,448 1312,448 1312,388" /><polygon points="1312,-160 1312,-96 1312,64 1312,64 1312,-96 1312,-128 1312,-160" /><polygon points="1312,-384 1312,-256 1312,-160 1312,-160 1312,-352 1312,-384" /><polygon points="1312,-608 1312,-512 1312,-480 1312,-384 1312,-384 1312,-576 1312,-608" /><polygon points="414,-512 382,-512 382,-512 414,-512" /><polygon points="-32,256 0,256 0,256 -32,256" /><polygon points="768,256 800,256 800,256 768,256" /><polygon points="-32,-320 -32,-288 -32,-288 -32,-288 -32,-320" /><polygon points="800,256 800,224 800,224 800,224 800,256" /><polygon points="1054,-480 1054,-512 1054,-512 1054,-480" /><polygon points="1022,-480 1024,-480 1054,-480 1054,-480 1022,-480" /><polygon points="1022,-512 1022,-480 1022,-480 1022,-512" /><polygon points="382,-480 414,-480 414,-480 382,-480" /><polygon points="414,-480 414,-512 414,-512 414,-480" /><polygon points="800,-288 800,-288 768,-288 768,-288" /><polygon points="0,-288 0,-288 -32,-288 -32,-288" /><polygon points="768,-320 768,-288 768,-288 768,-288 768,-320" /><polygon points="800,-320 768,-320 768,-320 800,-320" /><polygon points="0,-320 -32,-320 -32,-320 0,-320" /><polygon points="768,224 768,224 800,224 800,224" /><polygon points="-32,224 -32,224 0,224 0,224" /><polygon points="0,256 0,224 0,224 0,224 0,256" /><polygon points="-290,-512 -290,-480 -290,-480 -290,-512" /><polygon points="-290,-480 -258,-480 -258,-480 -290,-480" /><polygon points="-258,-480 -258,-512 -258,-512 -258,-480" /><polygon points="1008,448 985,453 985,453 1008,448" /><polygon points="1031,453 1008,448 1008,448 1031,453" /><polygon points="985,453 976,464 976,464 985,453" /><polygon points="1040,464 1031,453 1031,453 1040,464" /><polygon points="976,464 985,475 985,475 976,464" /><polygon points="1031,475 1040,464 1040,464 1031,475" /><polygon points="985,475 1008,480 1008,480 985,475" /><polygon points="1008,480 1022,476.9565 1031,475 1031,475 1008,480" /><polygon points="423,453 416,451.4783 400,448 400,448 423,453" /><polygon points="432,464 423,453 423,453 432,464" /><polygon points="423,475 432,464 432,464 423,475" /><polygon points="382,476.087 400,480 400,480 377,475 377,475" /><polygon points="400,480 423,475 423,475 400,480" /></g></defs><rect fill="#fff" height="1688.0" id="background" width="2240.0" x="-740.0" y="-876.0" /><use fill="none" stroke="black" stroke-miterlimit="0" stroke-width="15" xlink:href="#bsp_ref" /><use fill="white" stroke="black" stroke-width="1" xlink:href="#bsp_ref" /></svg>