<svg viewBox="-832 -1600 2816 2240" xmlns="http://www.w3.org/2000/svg" xmlns:xlink="http://www.w3.org/1999/xlink"><defs><g id="a"><path d="m1952 608h-64z"/><path d="m-576-1568h-224z"/><path d="m-352-1568h-224z"/><path d="m-128-1568h-224z"/><path d="m96-1568h-224z"/><path d="m320-1568h-224z"/><path d="m544-1568h-224z"/><path d="m768-1568h-224z"/><path d="m992-1568h-96-128z"/><path d="m1216-1568h-96-128z"/><path d="m1440-1568h-96-128z"/><path d="m1664-1568h-96-128z"/><path d="m1888-1568h-96-128z"/><path d="m896-416v192 32z"/><path d="m896-640v192 32z"/><path d="m896-1344v-224h96 128v224z"/><path d="m896-1120v-224h224v224z"/><path d="m896-896v-224h224v224z"/><path d="m896-672v-32-192h224v224z"/><path d="m896-448v-192-32h224v224z"/><path d="m896-224v-192-32h224v224z"/><path d="m896 0v-192-32h224v224z"/><path d="m896 224v-192-32h224v224z"/><path d="m896 448v-192-32h224v224z"/><path d="m1120 608h-128-96v-128-32h224z"/><path d="m1120-1344v-224h96 128v224z"/><path d="m1120-1120v-224h224v224z"/><path d="m1120-896v-224h224v224z"/><path d="m1120-672v-224h224v224z"/><path d="m1120-448v-224h224v224z"/><path d="m1120-224v-224h224v224z"/><path d="m1120 0v-224h224v224z"/><path d="m1120 224v-224h224v224z"/><path d="m1120 448v-224h224v224z"/><path d="m1344 608h-128-96v-160h224z"/><path d="m1344-1344v-224h96 128v224z"/><path d="m1344-1120v-224h224v224z"/><path d="m1344-896v-224h224v224z"/><path d="m1344-672v-224h224v224z"/><path d="m1344-448v-224h224v224z"/><path d="m1344-224v-224h224v224z"/><path d="m1344 0v-224h224v224z"/><path d="m1344 224v-224h224v224z"/><path d="m1344 448v-224h224v224z"/><path d="m1568 608h-128-96v-160h224z"/><path d="m1568-1344v-224h96 128v224z"/><path d="m1568-1120v-224h224v224z"/><path d="m1568-896v-224h224v224z"/><path d="m1568-672v-224h224v224z"/><path d="m1568-448v-224h224v224z"/><path d="m1568-224v-224h224v224z"/><path d="m1568 0v-224h224v224z"/><path d="m1568 224v-224h224v224z"/><path d="m1568 448v-224h224v224z"/><path d="m1792 608h-128-96v-160h224z"/><path d="m1888-1568h64v160 64h-160v-224z"/><path d="m1952-1344v160 64h-160v-224z"/><path d="m1952-1120v160 64h-160v-224z"/><path d="m1952-896v160 64h-160v-224z"/><path d="m1952-672v160 64h-160v-224z"/><path d="m1952-448v160 64h-160v-224z"/><path d="m1952-224v160 64h-160v-224z"/><path d="m1952 0v160 64h-160v-224z"/><path d="m1952 224v160 64h-160v-224z"/><path d="m1952 448v160h-64-96v-160z"/><path d="m768-704h128-192z"/><path d="m-800-1344v-64-160h224v224z"/><path d="m-800-1120v-64-160h224v224z"/><path d="m-800-896v-64-160h224v224z"/><path d="m-800-704v-32-160h224v192z"/><path d="m-576-1568h224v224h-224z"/><path d="m-352-1344v224h-224v-224z"/><path d="m-352-1120v224h-224v-224z"/><path d="m-352-896v192h-224v-192z"/><path d="m-352-1568h224v224h-224z"/><path d="m-128-1344v224h-224v-224z"/><path d="m-128-1120v224h-224v-224z"/><path d="m-128-896v192h-224v-192z"/><path d="m-128-1568h224v224h-224z"/><path d="m96-1344v224h-224v-224z"/><path d="m96-1120v224h-224v-224z"/><path d="m96-896v192h-224v-192z"/><path d="m96-1568h224v224h-224z"/><path d="m320-1344v224h-224v-224z"/><path d="m320-1120v224h-224v-224z"/><path d="m320-896v192h-64-160v-192z"/><path d="m320-1568h224v224h-224z"/><path d="m544-1344v224h-224v-224z"/><path d="m544-1120v224h-224v-224z"/><path d="m544-896v192h-64-160v-192z"/><path d="m544-1568h224v224h-224z"/><path d="m768-1344v224h-224v-224z"/><path d="m768-1120v224h-224v-224z"/><path d="m768-896v192h-64-160v-192z"/><path d="m768-1568h128v224h-128z"/><path d="m896-1344v224h-128v-224z"/><path d="m896-1120v224h-128v-224z"/><path d="m896-896v192h-128v-192z"/><path d="m256-704v64z"/><path d="m480-192h-224z"/><path d="m704-192h-224z"/><path d="m256 32v-64-160h224v224z"/><path d="m256 256v-64-160h224v224z"/><path d="m256 480v-64-160h224v224z"/><path d="m480 608h-160-64v-128h224z"/><path d="m480 32v-224h224v224z"/><path d="m480 256v-224h224v224z"/><path d="m480 480v-224h224v224z"/><path d="m704 608h-160-64v-128h224z"/><path d="m896-192v192 32h-192v-224z"/><path d="m896 32v192 32h-192v-224z"/><path d="m896 256v192 32h-192v-224z"/><path d="m896 480v128h-128-64v-128z"/><path d="m-800-512v-192h224v224h-224z"/><path d="m-576-480v224h-224v-32-192z"/><path d="m-576-256v224h-224v-32-192z"/><path d="m-576-32v224h-224v-32-192z"/><path d="m-576 192v224h-224v-32-192z"/><path d="m-576 416v192h-224v-192z"/><path d="m-576-704h224v224h-224z"/><path d="m-352-480v224h-224v-224z"/><path d="m-352-256v224h-224v-224z"/><path d="m-352-32v224h-224v-224z"/><path d="m-352 192v224h-224v-224z"/><path d="m-352 416v192h-224v-192z"/><path d="m-352-704h224v224h-224z"/><path d="m-128-480v224h-224v-224z"/><path d="m-128-256v224h-224v-224z"/><path d="m-128-32v224h-224v-224z"/><path d="m-128 192v224h-224v-224z"/><path d="m-128 416v192h-224v-192z"/><path d="m-128-704h224v224h-224z"/><path d="m96-480v224h-224v-224z"/><path d="m96-256v224h-224v-224z"/><path d="m96-32v224h-224v-224z"/><path d="m96 192v224h-224v-224z"/><path d="m96 416v192h-224v-192z"/><path d="m96-704h160v64 160h-160z"/><path d="m256-480v64 160h-160v-224z"/><path d="m256-256v64 160h-160v-224z"/><path d="m256-32v64 160h-160v-224z"/><path d="m256 192v64 160h-160v-224z"/><path d="m256 416v64 128h-160v-192z"/></g><g id="b"><path d="m896-704h-192z"/><path d="m480-192h-224z"/><path d="m704-192h-224z"/><path d="m896-416v224z"/><path d="m896-640v224z"/><path d="m256-704v64z"/><path d="m896-704v32 32z"/><path d="m480-704h-224 64z"/><path d="m704-704h-224 64z"/><path d="m256-416v224-64z"/><path d="m256-640v224-64z"/><path d="m896-192h-192z"/><path d="m1984-1376v224z"/><path d="m1984-1152v224z"/><path d="m1984-928v224z"/><path d="m1984-704v224z"/><path d="m1984-480v224z"/><path d="m1984-256v224z"/><path d="m1984-32v224z"/><path d="m1984 192v224z"/><path d="m1984 416v224z"/><path d="m-832-1376v-224z"/><path d="m-832-1152v-224z"/><path d="m-832-928v-224z"/><path d="m-832-704v-224z"/><path d="m-832-480v-224z"/><path d="m-832-256v-224z"/><path d="m-832-32v-224z"/><path d="m-832 192v-224z"/><path d="m-832 416v-224z"/><path d="m1856 640h-224z"/><path d="m1632 640h-224z"/><path d="m1408 640h-224z"/><path d="m1184 640h-224z"/><path d="m960 640h-224z"/><path d="m736 640h-224z"/><path d="m512 640h-224z"/><path d="m288 640h-224z"/><path d="m64 640h-224z"/><path d="m-160 640h-224z"/><path d="m-384 640h-224z"/><path d="m-608 640h-224z"/><path d="m1856-1600h128z"/><path d="m1632-1600h224z"/><path d="m1408-1600h224z"/><path d="m1184-1600h224z"/><path d="m960-1600h224z"/><path d="m736-1600h224z"/><path d="m512-1600h224z"/><path d="m288-1600h224z"/><path d="m64-1600h224z"/><path d="m-160-1600h224z"/><path d="m-384-1600h224z"/><path d="m-608-1600h224z"/><path d="m1856 416v224h128v-224z"/><path d="m1856 192v224h128v-224z"/><path d="m1856-32v224h128v-224z"/><path d="m1856-256v224h128v-224z"/><path d="m1856-480v224h128v-224z"/><path d="m1856-704v224h128v-224z"/><path d="m1856-928v224h128v-224z"/><path d="m1856-1152v224h128v-224z"/><path d="m1856-1376v224h128v-224z"/><path d="m1984-1600h-128v224h128z"/><path d="m1632 416v224h224v-224z"/><path d="m1632 192v224h224v-224z"/><path d="m1632-32v224h224v-224z"/><path d="m1632-256v224h224v-224z"/><path d="m1632-480v224h224v-224z"/><path d="m1632-704v224h224v-224z"/><path d="m1632-928v224h224v-224z"/><path d="m1632-1152v224h224v-224z"/><path d="m1632-1376v224h224v-224z"/><path d="m1856-1600h-224v224h224z"/><path d="m1408 416v224h224v-224z"/><path d="m1408 192v224h224v-224z"/><path d="m1408-32v224h224v-224z"/><path d="m1408-256v224h224v-224z"/><path d="m1408-480v224h224v-224z"/><path d="m1408-704v224h224v-224z"/><path d="m1408-928v224h224v-224z"/><path d="m1408-1152v224h224v-224z"/><path d="m1408-1376v224h224v-224z"/><path d="m1632-1600h-224v224h224z"/><path d="m1184 416v224h224v-224z"/><path d="m1184 192v224h224v-224z"/><path d="m1184-32v224h224v-224z"/><path d="m1184-256v224h224v-224z"/><path d="m1184-480v224h224v-224z"/><path d="m1184-704v224h224v-224z"/><path d="m1184-928v224h224v-224z"/><path d="m1184-1152v224h224v-224z"/><path d="m1184-1376v224h224v-224z"/><path d="m1408-1600h-224v224h224z"/><path d="m960 416v224h224v-224z"/><path d="m960 192v224h224v-224z"/><path d="m960-32v224h224v-224z"/><path d="m960-256v224h224v-224z"/><path d="m960-480v224h224v-224z"/><path d="m960-704v224h224v-224z"/><path d="m960-928v224h224v-224z"/><path d="m960-1152v224h224v-224z"/><path d="m960-1376v224h224v-224z"/><path d="m1184-1600h-224v224h224z"/><path d="m736 416v224h224v-224z"/><path d="m736 192v224h224v-224z"/><path d="m736-32v224h224v-224z"/><path d="m736-256v224h224v-224z"/><path d="m736-480v224h224v-224z"/><path d="m736-704v224h224v-224z"/><path d="m736-928v224h224v-224z"/><path d="m736-1152v224h224v-224z"/><path d="m736-1376v224h224v-224z"/><path d="m960-1600h-224v224h224z"/><path d="m512 416v224h224v-224z"/><path d="m512 192v224h224v-224z"/><path d="m512-32v224h224v-224z"/><path d="m512-256v224h224v-224z"/><path d="m512-480v224h224v-224z"/><path d="m512-704v224h224v-224z"/><path d="m512-928v224h224v-224z"/><path d="m512-1152v224h224v-224z"/><path d="m512-1376v224h224v-224z"/><path d="m736-1600h-224v224h224z"/><path d="m288 416v224h224v-224z"/><path d="m288 192v224h224v-224z"/><path d="m288-32v224h224v-224z"/><path d="m288-256v224h224v-224z"/><path d="m288-480v224h224v-224z"/><path d="m288-704v224h224v-224z"/><path d="m288-928v224h224v-224z"/><path d="m288-1152v224h224v-224z"/><path d="m288-1376v224h224v-224z"/><path d="m512-1600h-224v224h224z"/><path d="m64 416v224h224v-224z"/><path d="m64 192v224h224v-224z"/><path d="m64-32v224h224v-224z"/><path d="m64-256v224h224v-224z"/><path d="m64-480v224h224v-224z"/><path d="m64-704v224h224v-224z"/><path d="m64-928v224h224v-224z"/><path d="m64-1152v224h224v-224z"/><path d="m64-1376v224h224v-224z"/><path d="m288-1600h-224v224h224z"/><path d="m-160 416v224h224v-224z"/><path d="m-160 192v224h224v-224z"/><path d="m-160-32v224h224v-224z"/><path d="m-160-256v224h224v-224z"/><path d="m-160-480v224h224v-224z"/><path d="m-160-704v224h224v-224z"/><path d="m-160-928v224h224v-224z"/><path d="m-160-1152v224h224v-224z"/><path d="m-160-1376v224h224v-224z"/><path d="m64-1600h-224v224h224z"/><path d="m-384 416v224h224v-224z"/><path d="m-384 192v224h224v-224z"/><path d="m-384-32v224h224v-224z"/><path d="m-384-256v224h224v-224z"/><path d="m-384-480v224h224v-224z"/><path d="m-384-704v224h224v-224z"/><path d="m-384-928v224h224v-224z"/><path d="m-384-1152v224h224v-224z"/><path d="m-384-1376v224h224v-224z"/><path d="m-160-1600h-224v224h224z"/><path d="m-608 416v224h224v-224z"/><path d="m-608 192v224h224v-224z"/><path d="m-608-32v224h224v-224z"/><path d="m-608-256v224h224v-224z"/><path d="m-608-480v224h224v-224z"/><path d="m-608-704v224h224v-224z"/><path d="m-608-928v224h224v-224z"/><path d="m-608-1152v224h224v-224z"/><path d="m-608-1376v224h224v-224z"/><path d="m-384-1600h-224v224h224z"/><path d="m-832 416v224h224v-224z"/><path d="m-832 192v224h224v-224z"/><path d="m-832-32v224h224v-224z"/><path d="m-832-256v224h224v-224z"/><path d="m-832-480v224h224v-224z"/><path d="m-832-704v224h224v-224z"/><path d="m-832-928v224h224v-224z"/><path d="m-832-1152v224h224v-224z"/><path d="m-832-1376v224h224v-224z"/><path d="m-608-1600h-224v224h224z"/><path d="m1984-1376v224z"/><path d="m1984-1152v224z"/><path d="m1984-928v224z"/><path d="m1984-704v224z"/><path d="m1984-480v224z"/><path d="m1984-256v224z"/><path d="m1984-32v224z"/><path d="m1984 192v224z"/><path d="m1984 416v224z"/><path d="m-832-1376v-224z"/><path d="m-832-1152v-224z"/><path d="m-832-928v-224z"/><path d="m-832-704v-224z"/><path d="m-832-480v-224z"/><path d="m-832-256v-224z"/><path d="m-832-32v-224z"/><path d="m-832 192v-224z"/><path d="m-832 416v-224z"/><path d="m1856 640h-224z"/><path d="m1632 640h-224z"/><path d="m1408 640h-224z"/><path d="m1184 640h-224z"/><path d="m960 640h-224z"/><path d="m736 640h-224z"/><path d="m512 640h-224z"/><path d="m288 640h-224z"/><path d="m64 640h-224z"/><path d="m-160 640h-224z"/><path d="m-384 640h-224z"/><path d="m-608 640h-224z"/><path d="m1856-1600h128z"/><path d="m1632-1600h224z"/><path d="m1408-1600h224z"/><path d="m1184-1600h224z"/><path d="m960-1600h224z"/><path d="m736-1600h224z"/><path d="m512-1600h224z"/><path d="m288-1600h224z"/><path d="m64-1600h224z"/><path d="m-160-1600h224z"/><path d="m-384-1600h224z"/><path d="m-608-1600h224z"/><path d="m1856 416v224h128v-224z"/><path d="m1856 192v224h128v-224z"/><path d="m1856-32v224h128v-224z"/><path d="m1856-256v224h128v-224z"/><path d="m1856-480v224h128v-224z"/><path d="m1856-704v224h128v-224z"/><path d="m1856-928v224h128v-224z"/><path d="m1856-1152v224h128v-224z"/><path d="m1856-1376v224h128v-224z"/><path d="m1984-1600h-128v224h128z"/><path d="m1632 416v224h224v-224z"/><path d="m1632 192v224h224v-224z"/><path d="m1632-32v224h224v-224z"/><path d="m1632-256v224h224v-224z"/><path d="m1632-480v224h224v-224z"/><path d="m1632-704v224h224v-224z"/><path d="m1632-928v224h224v-224z"/><path d="m1632-1152v224h224v-224z"/><path d="m1632-1376v224h224v-224z"/><path d="m1856-1600h-224v224h224z"/><path d="m1408 416v224h224v-224z"/><path d="m1408 192v224h224v-224z"/><path d="m1408-32v224h224v-224z"/><path d="m1408-256v224h224v-224z"/><path d="m1408-480v224h224v-224z"/><path d="m1408-704v224h224v-224z"/><path d="m1408-928v224h224v-224z"/><path d="m1408-1152v224h224v-224z"/><path d="m1408-1376v224h224v-224z"/><path d="m1632-1600h-224v224h224z"/><path d="m1184 416v224h224v-224z"/><path d="m1184 192v224h224v-224z"/><path d="m1184-32v224h224v-224z"/><path d="m1184-256v224h224v-224z"/><path d="m1184-480v224h224v-224z"/><path d="m1184-704v224h224v-224z"/><path d="m1184-928v224h224v-224z"/><path d="m1184-1152v224h224v-224z"/><path d="m1184-1376v224h224v-224z"/><path d="m1408-1600h-224v224h224z"/><path d="m960 416v224h224v-224z"/><path d="m960 192v224h224v-224z"/><path d="m960-32v224h224v-224z"/><path d="m960-256v224h224v-224z"/><path d="m960-480v224h224v-224z"/><path d="m960-704v224h224v-224z"/><path d="m960-928v224h224v-224z"/><path d="m960-1152v224h224v-224z"/><path d="m960-1376v224h224v-224z"/><path d="m1184-1600h-224v224h224z"/><path d="m736 416v224h224v-224z"/><path d="m736 192v224h224v-224z"/><path d="m736-32v224h224v-224z"/><path d="m736-256v224h224v-224z"/><path d="m736-480v224h224v-224z"/><path d="m736-704v224h224v-224z"/><path d="m736-928v224h224v-224z"/><path d="m736-1152v224h224v-224z"/><path d="m736-1376v224h224v-224z"/><path d="m960-1600h-224v224h224z"/><path d="m512 416v224h224v-224z"/><path d="m512 192v224h224v-224z"/><path d="m512-32v224h224v-224z"/><path d="m512-256v224h224v-224z"/><path d="m512-480v224h224v-224z"/><path d="m512-704v224h224v-224z"/><path d="m512-928v224h224v-224z"/><path d="m512-1152v224h224v-224z"/><path d="m512-1376v224h224v-224z"/><path d="m736-1600h-224v224h224z"/><path d="m288 416v224h224v-224z"/><path d="m288 192v224h224v-224z"/><path d="m288-32v224h224v-224z"/><path d="m288-256v224h224v-224z"/><path d="m288-480v224h224v-224z"/><path d="m288-704v224h224v-224z"/><path d="m288-928v224h224v-224z"/><path d="m288-1152v224h224v-224z"/><path d="m288-1376v224h224v-224z"/><path d="m512-1600h-224v224h224z"/><path d="m64 416v224h224v-224z"/><path d="m64 192v224h224v-224z"/><path d="m64-32v224h224v-224z"/><path d="m64-256v224h224v-224z"/><path d="m64-480v224h224v-224z"/><path d="m64-704v224h224v-224z"/><path d="m64-928v224h224v-224z"/><path d="m64-1152v224h224v-224z"/><path d="m64-1376v224h224v-224z"/><path d="m288-1600h-224v224h224z"/><path d="m-160 416v224h224v-224z"/><path d="m-160 192v224h224v-224z"/><path d="m-160-32v224h224v-224z"/><path d="m-160-256v224h224v-224z"/><path d="m-160-480v224h224v-224z"/><path d="m-160-704v224h224v-224z"/><path d="m-160-928v224h224v-224z"/><path d="m-160-1152v224h224v-224z"/><path d="m-160-1376v224h224v-224z"/><path d="m64-1600h-224v224h224z"/><path d="m-384 416v224h224v-224z"/><path d="m-384 192v224h224v-224z"/><path d="m-384-32v224h224v-224z"/><path d="m-384-256v224h224v-224z"/><path d="m-384-480v224h224v-224z"/><path d="m-384-704v224h224v-224z"/><path d="m-384-928v224h224v-224z"/><path d="m-384-1152v224h224v-224z"/><path d="m-384-1376v224h224v-224z"/><path d="m-160-1600h-224v224h224z"/><path d="m-608 416v224h224v-224z"/><path d="m-608 192v224h224v-224z"/><path d="m-608-32v224h224v-224z"/><path d="m-608-256v224h224v-224z"/><path d="m-608-480v224h224v-224z"/><path d="m-608-704v224h224v-224z"/><path d="m-608-928v224h224v-224z"/><path d="m-608-1152v224h224v-224z"/><path d="m-608-1376v224h224v-224z"/><path d="m-384-1600h-224v224h224z"/><path d="m-832 416v224h224v-224z"/><path d="m-832 192v224h224v-224z"/><path d="m-832-32v224h224v-224z"/><path d="m-832-256v224h224v-224z"/><path d="m-832-480v224h224v-224z"/><path d="m-832-704v224h224v-224z"/><path d="m-832-928v224h224v-224z"/><path d="m-832-1152v224h224v-224z"/><path d="m-832-1376v224h224v-224z"/><path d="m-608-1600h-224v224h224z"/><path d="m1952 608v-160-64z"/><path d="m1952 384v-160-64z"/><path d="m1952 160v-160-64z"/><path d="m1952-64v-160-64z"/><path d="m1952-288v-160-64z"/><path d="m1952-512v-160-64z"/><path d="m1952-736v-160-64z"/><path d="m1952-960v-160-64z"/><path d="m1952-1184v-160-64z"/><path d="m1952-1408v-160z"/><path d="m-800 384v32 192z"/><path d="m-800 160v32 192z"/><path d="m-800-64v32 192z"/><path d="m-800-288v32 192z"/><path d="m-800-512v32 192z"/><path d="m-800-736v32 192z"/><path d="m-800-960v64 160z"/><path d="m-800-1184v64 160z"/><path d="m-800-1408v64 160z"/><path d="m-800-1568v160z"/><path d="m-800 608h224z"/><path d="m-576 608h224z"/><path d="m-352 608h224z"/><path d="m-128 608h224z"/><path d="m96 608h160 64z"/><path d="m320 608h160 64z"/><path d="m544 608h160 64z"/><path d="m768 608h128 96z"/><path d="m992 608h128 96z"/><path d="m1216 608h128 96z"/><path d="m1440 608h128 96z"/><path d="m1664 608h128 96z"/><path d="m1952 608h-64z"/><path d="m-800-1568h224z"/><path d="m-576-1568h224z"/><path d="m-352-1568h224z"/><path d="m-128-1568h224z"/><path d="m96-1568h224z"/><path d="m320-1568h224z"/><path d="m544-1568h224z"/><path d="m768-1568h224z"/><path d="m992-1568h224z"/><path d="m1216-1568h224z"/><path d="m1440-1568h224z"/><path d="m1664-1568h224z"/><path d="m1952-1568h-64z"/></g><g id="c"><path d="m1984-1600v224z"/><path d="m-832 640v-224z"/><path d="m1984 640h-128z"/><path d="m-832-1600h224z"/><path d="m1984 640h-128v-224h128z"/><path d="m1856 416v-224h128v224z"/><path d="m1856 192v-224h128v224z"/><path d="m1856-32v-224h128v224z"/><path d="m1856-256v-224h128v224z"/><path d="m1856-480v-224h128v224z"/><path d="m1856-704v-224h128v224z"/><path d="m1856-928v-224h128v224z"/><path d="m1856-1152v-224h128v224z"/><path d="m1856-1376v-224h128v224z"/><path d="m1856 640h-224v-224h224z"/><path d="m1632 416v-224h224v224z"/><path d="m1632 192v-224h224v224z"/><path d="m1632-32v-224h224v224z"/><path d="m1632-256v-224h224v224z"/><path d="m1632-480v-224h224v224z"/><path d="m1632-704v-224h224v224z"/><path d="m1632-928v-224h224v224z"/><path d="m1632-1152v-224h224v224z"/><path d="m1632-1376v-224h224v224z"/><path d="m1632 640h-224v-224h224z"/><path d="m1408 416v-224h224v224z"/><path d="m1408 192v-224h224v224z"/><path d="m1408-32v-224h224v224z"/><path d="m1408-256v-224h224v224z"/><path d="m1408-480v-224h224v224z"/><path d="m1408-704v-224h224v224z"/><path d="m1408-928v-224h224v224z"/><path d="m1408-1152v-224h224v224z"/><path d="m1408-1376v-224h224v224z"/><path d="m1408 640h-224v-224h224z"/><path d="m1184 416v-224h224v224z"/><path d="m1184 192v-224h224v224z"/><path d="m1184-32v-224h224v224z"/><path d="m1184-256v-224h224v224z"/><path d="m1184-480v-224h224v224z"/><path d="m1184-704v-224h224v224z"/><path d="m1184-928v-224h224v224z"/><path d="m1184-1152v-224h224v224z"/><path d="m1184-1376v-224h224v224z"/><path d="m1184 640h-224v-224h224z"/><path d="m960 416v-224h224v224z"/><path d="m960 192v-224h224v224z"/><path d="m960-32v-224h224v224z"/><path d="m960-256v-224h224v224z"/><path d="m960-480v-224h224v224z"/><path d="m960-704v-224h224v224z"/><path d="m960-928v-224h224v224z"/><path d="m960-1152v-224h224v224z"/><path d="m960-1376v-224h224v224z"/><path d="m960 640h-224v-224h224z"/><path d="m736 416v-224h224v224z"/><path d="m736 192v-224h224v224z"/><path d="m736-32v-224h224v224z"/><path d="m736-256v-224h224v224z"/><path d="m736-480v-224h224v224z"/><path d="m736-704v-224h224v224z"/><path d="m736-928v-224h224v224z"/><path d="m736-1152v-224h224v224z"/><path d="m736-1376v-224h224v224z"/><path d="m736 640h-224v-224h224z"/><path d="m512 416v-224h224v224z"/><path d="m512 192v-224h224v224z"/><path d="m512-32v-224h224v224z"/><path d="m512-256v-224h224v224z"/><path d="m512-480v-224h224v224z"/><path d="m512-704v-224h224v224z"/><path d="m512-928v-224h224v224z"/><path d="m512-1152v-224h224v224z"/><path d="m512-1376v-224h224v224z"/><path d="m512 640h-224v-224h224z"/><path d="m288 416v-224h224v224z"/><path d="m288 192v-224h224v224z"/><path d="m288-32v-224h224v224z"/><path d="m288-256v-224h224v224z"/><path d="m288-480v-224h224v224z"/><path d="m288-704v-224h224v224z"/><path d="m288-928v-224h224v224z"/><path d="m288-1152v-224h224v224z"/><path d="m288-1376v-224h224v224z"/><path d="m288 640h-224v-224h224z"/><path d="m64 416v-224h224v224z"/><path d="m64 192v-224h224v224z"/><path d="m64-32v-224h224v224z"/><path d="m64-256v-224h224v224z"/><path d="m64-480v-224h224v224z"/><path d="m64-704v-224h224v224z"/><path d="m64-928v-224h224v224z"/><path d="m64-1152v-224h224v224z"/><path d="m64-1376v-224h224v224z"/><path d="m64 640h-224v-224h224z"/><path d="m-160 416v-224h224v224z"/><path d="m-160 192v-224h224v224z"/><path d="m-160-32v-224h224v224z"/><path d="m-160-256v-224h224v224z"/><path d="m-160-480v-224h224v224z"/><path d="m-160-704v-224h224v224z"/><path d="m-160-928v-224h224v224z"/><path d="m-160-1152v-224h224v224z"/><path d="m-160-1376v-224h224v224z"/><path d="m-160 640h-224v-224h224z"/><path d="m-384 416v-224h224v224z"/><path d="m-384 192v-224h224v224z"/><path d="m-384-32v-224h224v224z"/><path d="m-384-256v-224h224v224z"/><path d="m-384-480v-224h224v224z"/><path d="m-384-704v-224h224v224z"/><path d="m-384-928v-224h224v224z"/><path d="m-384-1152v-224h224v224z"/><path d="m-384-1376v-224h224v224z"/><path d="m-384 640h-224v-224h224z"/><path d="m-608 416v-224h224v224z"/><path d="m-608 192v-224h224v224z"/><path d="m-608-32v-224h224v224z"/><path d="m-608-256v-224h224v224z"/><path d="m-608-480v-224h224v224z"/><path d="m-608-704v-224h224v224z"/><path d="m-608-928v-224h224v224z"/><path d="m-608-1152v-224h224v224z"/><path d="m-608-1376v-224h224v224z"/><path d="m-608 640h-224v-224h224z"/><path d="m-832 416v-224h224v224z"/><path d="m-832 192v-224h224v224z"/><path d="m-832-32v-224h224v224z"/><path d="m-832-256v-224h224v224z"/><path d="m-832-480v-224h224v224z"/><path d="m-832-704v-224h224v224z"/><path d="m-832-928v-224h224v224z"/><path d="m-832-1152v-224h224v224z"/><path d="m-832-1376v-224h224v224z"/><path d="m1984-1600v224z"/><path d="m-832 640v-224z"/><path d="m1984 640h-128z"/><path d="m-832-1600h224z"/><path d="m1984 640h-128v-224h128z"/><path d="m1856 416v-224h128v224z"/><path d="m1856 192v-224h128v224z"/><path d="m1856-32v-224h128v224z"/><path d="m1856-256v-224h128v224z"/><path d="m1856-480v-224h128v224z"/><path d="m1856-704v-224h128v224z"/><path d="m1856-928v-224h128v224z"/><path d="m1856-1152v-224h128v224z"/><path d="m1856-1376v-224h128v224z"/><path d="m1856 640h-224v-224h224z"/><path d="m1632 416v-224h224v224z"/><path d="m1632 192v-224h224v224z"/><path d="m1632-32v-224h224v224z"/><path d="m1632-256v-224h224v224z"/><path d="m1632-480v-224h224v224z"/><path d="m1632-704v-224h224v224z"/><path d="m1632-928v-224h224v224z"/><path d="m1632-1152v-224h224v224z"/><path d="m1632-1376v-224h224v224z"/><path d="m1632 640h-224v-224h224z"/><path d="m1408 416v-224h224v224z"/><path d="m1408 192v-224h224v224z"/><path d="m1408-32v-224h224v224z"/><path d="m1408-256v-224h224v224z"/><path d="m1408-480v-224h224v224z"/><path d="m1408-704v-224h224v224z"/><path d="m1408-928v-224h224v224z"/><path d="m1408-1152v-224h224v224z"/><path d="m1408-1376v-224h224v224z"/><path d="m1408 640h-224v-224h224z"/><path d="m1184 416v-224h224v224z"/><path d="m1184 192v-224h224v224z"/><path d="m1184-32v-224h224v224z"/><path d="m1184-256v-224h224v224z"/><path d="m1184-480v-224h224v224z"/><path d="m1184-704v-224h224v224z"/><path d="m1184-928v-224h224v224z"/><path d="m1184-1152v-224h224v224z"/><path d="m1184-1376v-224h224v224z"/><path d="m1184 640h-224v-224h224z"/><path d="m960 416v-224h224v224z"/><path d="m960 192v-224h224v224z"/><path d="m960-32v-224h224v224z"/><path d="m960-256v-224h224v224z"/><path d="m960-480v-224h224v224z"/><path d="m960-704v-224h224v224z"/><path d="m960-928v-224h224v224z"/><path d="m960-1152v-224h224v224z"/><path d="m960-1376v-224h224v224z"/><path d="m960 640h-224v-224h224z"/><path d="m736 416v-224h224v224z"/><path d="m736 192v-224h224v224z"/><path d="m736-32v-224h224v224z"/><path d="m736-256v-224h224v224z"/><path d="m736-480v-224h224v224z"/><path d="m736-704v-224h224v224z"/><path d="m736-928v-224h224v224z"/><path d="m736-1152v-224h224v224z"/><path d="m736-1376v-224h224v224z"/><path d="m736 640h-224v-224h224z"/><path d="m512 416v-224h224v224z"/><path d="m512 192v-224h224v224z"/><path d="m512-32v-224h224v224z"/><path d="m512-256v-224h224v224z"/><path d="m512-480v-224h224v224z"/><path d="m512-704v-224h224v224z"/><path d="m512-928v-224h224v224z"/><path d="m512-1152v-224h224v224z"/><path d="m512-1376v-224h224v224z"/><path d="m512 640h-224v-224h224z"/><path d="m288 416v-224h224v224z"/><path d="m288 192v-224h224v224z"/><path d="m288-32v-224h224v224z"/><path d="m288-256v-224h224v224z"/><path d="m288-480v-224h224v224z"/><path d="m288-704v-224h224v224z"/><path d="m288-928v-224h224v224z"/><path d="m288-1152v-224h224v224z"/><path d="m288-1376v-224h224v224z"/><path d="m288 640h-224v-224h224z"/><path d="m64 416v-224h224v224z"/><path d="m64 192v-224h224v224z"/><path d="m64-32v-224h224v224z"/><path d="m64-256v-224h224v224z"/><path d="m64-480v-224h224v224z"/><path d="m64-704v-224h224v224z"/><path d="m64-928v-224h224v224z"/><path d="m64-1152v-224h224v224z"/><path d="m64-1376v-224h224v224z"/><path d="m64 640h-224v-224h224z"/><path d="m-160 416v-224h224v224z"/><path d="m-160 192v-224h224v224z"/><path d="m-160-32v-224h224v224z"/><path d="m-160-256v-224h224v224z"/><path d="m-160-480v-224h224v224z"/><path d="m-160-704v-224h224v224z"/><path d="m-160-928v-224h224v224z"/><path d="m-160-1152v-224h224v224z"/><path d="m-160-1376v-224h224v224z"/><path d="m-160 640h-224v-224h224z"/><path d="m-384 416v-224h224v224z"/><path d="m-384 192v-224h224v224z"/><path d="m-384-32v-224h224v224z"/><path d="m-384-256v-224h224v224z"/><path d="m-384-480v-224h224v224z"/><path d="m-384-704v-224h224v224z"/><path d="m-384-928v-224h224v224z"/><path d="m-384-1152v-224h224v224z"/><path d="m-384-1376v-224h224v224z"/><path d="m-384 640h-224v-224h224z"/><path d="m-608 416v-224h224v224z"/><path d="m-608 192v-224h224v224z"/><path d="m-608-32v-224h224v224z"/><path d="m-608-256v-224h224v224z"/><path d="m-608-480v-224h224v224z"/><path d="m-608-704v-224h224v224z"/><path d="m-608-928v-224h224v224z"/><path d="m-608-1152v-224h224v224z"/><path d="m-608-1376v-224h224v224z"/><path d="m-608 640h-224v-224h224z"/><path d="m-832 416v-224h224v224z"/><path d="m-832 192v-224h224v224z"/><path d="m-832-32v-224h224v224z"/><path d="m-832-256v-224h224v224z"/><path d="m-832-480v-224h224v224z"/><path d="m-832-704v-224h224v224z"/><path d="m-832-928v-224h224v224z"/><path d="m-832-1152v-224h224v224z"/><path d="m-832-1376v-224h224v224z"/><path d="m256-704h224z"/><path d="m480-704h224z"/><path d="m896-704h-192z"/><path d="m256-192h224z"/><path d="m480-192h224z"/><path d="m896-192h-192z"/><path d="m896-192v-224z"/><path d="m896-416v-224z"/><path d="m896-704v64z"/><path d="m256-192v-224z"/><path d="m256-416v-224z"/><path d="m256-704v64z"/><path d="m1952 608v-224z"/><path d="m1952 384v-224z"/><path d="m1952 160v-224z"/><path d="m1952-64v-224z"/><path d="m1952-288v-224z"/><path d="m1952-512v-224z"/><path d="m1952-736v-224z"/><path d="m1952-960v-224z"/><path d="m1952-1184v-224z"/><path d="m1952-1408v-160z"/><path d="m-800 384v224z"/><path d="m-800 160v224z"/><path d="m-800-64v224z"/><path d="m-800-288v224z"/><path d="m-800-512v224z"/><path d="m-800-736v224z"/><path d="m-800-960v224z"/><path d="m-800-1184v224z"/><path d="m-800-1408v224z"/><path d="m-800-1568v160z"/><path d="m-800 608h224z"/><path d="m-576 608h224z"/><path d="m-352 608h224z"/><path d="m-128 608h224z"/><path d="m96 608h224z"/><path d="m320 608h224z"/><path d="m544 608h224z"/><path d="m768 608h224z"/><path d="m992 608h224z"/><path d="m1216 608h224z"/><path d="m1440 608h224z"/><path d="m1664 608h224z"/><path d="m1952 608h-64z"/><path d="m-800-1568h224z"/><path d="m-576-1568h224z"/><path d="m-352-1568h224z"/><path d="m-128-1568h224z"/><path d="m96-1568h224z"/><path d="m320-1568h224z"/><path d="m544-1568h224z"/><path d="m768-1568h224z"/><path d="m992-1568h224z"/><path d="m1216-1568h224z"/><path d="m1440-1568h224z"/><path d="m1664-1568h224z"/><path d="m1952-1568h-64z"/><path d="m256-704h224z"/><path d="m480-704h224z"/><path d="m896-704h-192z"/><path d="m256-192h224z"/><path d="m480-192h224z"/><path d="m896-192h-192z"/><path d="m896-192v-224z"/><path d="m896-416v-224z"/><path d="m896-704v64z"/><path d="m256-192v-224z"/><path d="m256-416v-224z"/><path d="m256-704v64z"/><path d="m1952 608v-224z"/><path d="m1952 384v-224z"/><path d="m1952 160v-224z"/><path d="m1952-64v-224z"/><path d="m1952-288v-224z"/><path d="m1952-512v-224z"/><path d="m1952-736v-224z"/><path d="m1952-960v-224z"/><path d="m1952-1184v-224z"/><path d="m1952-1408v-160z"/><path d="m-800 384v224z"/><path d="m-800 160v224z"/><path d="m-800-64v224z"/><path d="m-800-288v224z"/><path d="m-800-512v224z"/><path d="m-800-736v224z"/><path d="m-800-960v224z"/><path d="m-800-1184v224z"/><path d="m-800-1408v224z"/><path d="m-800-1568v160z"/><path d="m-800 608h224z"/><path d="m-576 608h224z"/><path d="m-352 608h224z"/><path d="m-128 608h224z"/><path d="m96 608h224z"/><path d="m320 608h224z"/><path d="m544 608h224z"/><path d="m768 608h224z"/><path d="m992 608h224z"/><path d="m1216 608h224z"/><path d="m1440 608h224z"/><path d="m1664 608h224z"/><path d="m1952 608h-64z"/><path d="m-800-1568h224z"/><path d="m-576-1568h224z"/><path d="m-352-1568h224z"/><path d="m-128-1568h224z"/><path d="m96-1568h224z"/><path d="m320-1568h224z"/><path d="m544-1568h224z"/><path d="m768-1568h224z"/><path d="m992-1568h224z"/><path d="m1216-1568h224z"/><path d="m1440-1568h224z"/><path d="m1664-1568h224z"/><path d="m1952-1568h-64z"/><path d="m256-704h224z"/><path d="m480-704h224z"/><path d="m896-704h-192z"/><path d="m256-192h224z"/><path d="m480-192h224z"/><path d="m896-192h-192z"/><path d="m896-192v-64-160z"/><path d="m896-416v-64-160z"/><path d="m896-704v64z"/><path d="m256-192v-224z"/><path d="m256-416v-224z"/><path d="m256-704v64z"/><path d="m1952 608v-224z"/><path d="m1952 384v-224z"/><path d="m1952 160v-224z"/><path d="m1952-64v-224z"/><path d="m1952-288v-224z"/><path d="m1952-512v-224z"/><path d="m1952-736v-224z"/><path d="m1952-960v-224z"/><path d="m1952-1184v-224z"/><path d="m1952-1408v-160z"/><path d="m-800 384v224z"/><path d="m-800 160v224z"/><path d="m-800-64v224z"/><path d="m-800-288v224z"/><path d="m-800-512v224z"/><path d="m-800-736v224z"/><path d="m-800-960v224z"/><path d="m-800-1184v224z"/><path d="m-800-1408v224z"/><path d="m-800-1568v160z"/><path d="m-800 608h224z"/><path d="m-576 608h224z"/><path d="m-352 608h224z"/><path d="m-128 608h224z"/><path d="m96 608h224z"/><path d="m320 608h224z"/><path d="m544 608h224z"/><path d="m768 608h224z"/><path d="m992 608h224z"/><path d="m1216 608h224z"/><path d="m1440 608h224z"/><path d="m1664 608h224z"/><path d="m1952 608h-64z"/><path d="m-800-1568h224z"/><path d="m-576-1568h224z"/><path d="m-352-1568h224z"/><path d="m-128-1568h224z"/><path d="m96-1568h224z"/><path d="m320-1568h224z"/><path d="m544-1568h224z"/><path d="m768-1568h224z"/><path d="m992-1568h224z"/><path d="m1216-1568h224z"/><path d="m1440-1568h224z"/><path d="m1664-1568h224z"/><path d="m1952-1568h-64z"/><path d="m480-704h-224z"/><path d="m704-704h-224z"/><path d="m896-192h-192z"/><path d="m896-704v64z"/><path d="m256-480v-160-64h224v224z"/><path d="m256-256v-160-64h224v224z"/><path d="m480-192h-224v-64h224z"/><path d="m480-480v-224h224v224z"/><path d="m480-256v-224h224v224z"/><path d="m704-192h-224v-64h224z"/><path d="m896-704v64 160h-192v-224z"/><path d="m896-480v64 160h-192v-224z"/><path d="m896-256v64h-192v-64z"/><path d="m256-416v160 64z"/><path d="m256-640v160 64z"/><path d="m1952 608v-224z"/><path d="m1952 384v-224z"/><path d="m1952 160v-224z"/><path d="m1952-64v-224z"/><path d="m1952-288v-224z"/><path d="m1952-512v-224z"/><path d="m1952-736v-224z"/><path d="m1952-960v-224z"/><path d="m1952-1184v-224z"/><path d="m1952-1408v-160z"/><path d="m-800 384v224z"/><path d="m-800 160v224z"/><path d="m-800-64v224z"/><path d="m-800-288v224z"/><path d="m-800-512v224z"/><path d="m-800-736v224z"/><path d="m-800-960v224z"/><path d="m-800-1184v224z"/><path d="m-800-1408v224z"/><path d="m-800-1568v160z"/><path d="m-800 608h224z"/><path d="m-576 608h224z"/><path d="m-352 608h224z"/><path d="m-128 608h224z"/><path d="m96 608h224z"/><path d="m320 608h224z"/><path d="m544 608h224z"/><path d="m768 608h224z"/><path d="m992 608h224z"/><path d="m1216 608h224z"/><path d="m1440 608h224z"/><path d="m1664 608h224z"/><path d="m1952 608h-64z"/><path d="m-800-1568h224z"/><path d="m-576-1568h224z"/><path d="m-352-1568h224z"/><path d="m-128-1568h224z"/><path d="m96-1568h224z"/><path d="m320-1568h224z"/><path d="m544-1568h224z"/><path d="m768-1568h224z"/><path d="m992-1568h224z"/><path d="m1216-1568h224z"/><path d="m1440-1568h224z"/><path d="m1664-1568h224z"/><path d="m1952-1568h-64z"/><path d="m1952 608v-224z"/><path d="m1952 384v-224z"/><path d="m1952 160v-224z"/><path d="m1952-64v-224z"/><path d="m1952-288v-224z"/><path d="m1952-512v-224z"/><path d="m1952-736v-224z"/><path d="m1952-960v-224z"/><path d="m1952-1184v-224z"/><path d="m1952-1408v-160z"/><path d="m-800 384v224z"/><path d="m-800 160v224z"/><path d="m-800-64v224z"/><path d="m-800-288v224z"/><path d="m-800-512v224z"/><path d="m-800-736v224z"/><path d="m-800-960v224z"/><path d="m-800-1184v224z"/><path d="m-800-1408v224z"/><path d="m-800-1568v160z"/><path d="m-800 608h224z"/><path d="m-576 608h224z"/><path d="m-352 608h224z"/><path d="m-128 608h224z"/><path d="m96 608h224z"/><path d="m320 608h224z"/><path d="m544 608h224z"/><path d="m768 608h224z"/><path d="m992 608h224z"/><path d="m1216 608h224z"/><path d="m1440 608h224z"/><path d="m1664 608h224z"/><path d="m1952 608h-64z"/><path d="m-800-1568h224z"/><path d="m-576-1568h224z"/><path d="m-352-1568h224z"/><path d="m-128-1568h224z"/><path d="m96-1568h224z"/><path d="m320-1568h224z"/><path d="m544-1568h224z"/><path d="m768-1568h224z"/><path d="m992-1568h224z"/><path d="m1216-1568h224z"/><path d="m1440-1568h224z"/><path d="m1664-1568h224z"/><path d="m1952-1568h-64z"/><path d="m1952 608v-224z"/><path d="m1952 384v-224z"/><path d="m1952 160v-224z"/><path d="m1952-64v-224z"/><path d="m1952-288v-224z"/><path d="m1952-512v-224z"/><path d="m1952-736v-224z"/><path d="m1952-960v-224z"/><path d="m1952-1184v-224z"/><path d="m1952-1408v-160z"/><path d="m-800 384v224z"/><path d="m-800 160v224z"/><path d="m-800-64v224z"/><path d="m-800-288v224z"/><path d="m-800-512v224z"/><path d="m-800-736v224z"/><path d="m-800-960v224z"/><path d="m-800-1184v224z"/><path d="m-800-1408v224z"/><path d="m-800-1568v160z"/><path d="m-800 608h224z"/><path d="m-576 608h224z"/><path d="m-352 608h224z"/><path d="m-128 608h224z"/><path d="m96 608h224z"/><path d="m320 608h224z"/><path d="m544 608h224z"/><path d="m768 608h224z"/><path d="m992 608h224z"/><path d="m1216 608h224z"/><path d="m1440 608h224z"/><path d="m1664 608h224z"/><path d="m1952 608h-64z"/><path d="m-800-1568h224z"/><path d="m-576-1568h224z"/><path d="m-352-1568h224z"/><path d="m-128-1568h224z"/><path d="m96-1568h224z"/><path d="m320-1568h224z"/><path d="m544-1568h224z"/><path d="m768-1568h224z"/><path d="m992-1568h224z"/><path d="m1216-1568h224z"/><path d="m1440-1568h224z"/><path d="m1664-1568h224z"/><path d="m1952-1568h-64z"/><path d="m1952 608v-224z"/><path d="m1952 384v-224z"/><path d="m1952 160v-224z"/><path d="m1952-64v-224z"/><path d="m1952-288v-224z"/><path d="m1952-512v-224z"/><path d="m1952-736v-224z"/><path d="m1952-960v-224z"/><path d="m1952-1184v-224z"/><path d="m1952-1408v-160z"/><path d="m-800 384v224z"/><path d="m-800 160v224z"/><path d="m-800-64v224z"/><path d="m-800-288v224z"/><path d="m-800-512v224z"/><path d="m-800-736v224z"/><path d="m-800-960v224z"/><path d="m-800-1184v224z"/><path d="m-800-1408v224z"/><path d="m-800-1568v160z"/><path d="m-800 608h224z"/><path d="m-576 608h224z"/><path d="m-352 608h224z"/><path d="m-128 608h224z"/><path d="m96 608h224z"/><path d="m320 608h224z"/><path d="m544 608h224z"/><path d="m768 608h224z"/><path d="m992 608h224z"/><path d="m1216 608h224z"/><path d="m1440 608h224z"/><path d="m1664 608h224z"/><path d="m1952 608h-64z"/><path d="m-800-1568h224z"/><path d="m-576-1568h224z"/><path d="m-352-1568h224z"/><path d="m-128-1568h224z"/><path d="m96-1568h224z"/><path d="m320-1568h224z"/><path d="m544-1568h224z"/><path d="m768-1568h224z"/><path d="m992-1568h224z"/><path d="m1216-1568h224z"/><path d="m1440-1568h224z"/><path d="m1664-1568h224z"/><path d="m1952-1568h-64z"/><path d="m1952 608v-224z"/><path d="m1952 384v-224z"/><path d="m1952 160v-224z"/><path d="m1952-64v-224z"/><path d="m1952-288v-224z"/><path d="m1952-512v-224z"/><path d="m1952-736v-224z"/><path d="m1952-960v-224z"/><path d="m1952-1184v-224z"/><path d="m1952-1408v-160z"/><path d="m-800 384v224z"/><path d="m-800 160v224z"/><path d="m-800-64v224z"/><path d="m-800-288v224z"/><path d="m-800-512v224z"/><path d="m-800-736v224z"/><path d="m-800-960v224z"/><path d="m-800-1184v224z"/><path d="m-800-1408v224z"/><path d="m-800-1568v160z"/><path d="m-800 608h224z"/><path d="m-576 608h224z"/><path d="m-352 608h224z"/><path d="m-128 608h224z"/><path d="m96 608h224z"/><path d="m320 608h224z"/><path d="m544 608h224z"/><path d="m768 608h224z"/><path d="m992 608h224z"/><path d="m1216 608h224z"/><path d="m1440 608h224z"/><path d="m1664 608h224z"/><path d="m1952 608h-64z"/><path d="m-800-1568h224z"/><path d="m-576-1568h224z"/><path d="m-352-1568h224z"/><path d="m-128-1568h224z"/><path d="m96-1568h224z"/><path d="m320-1568h224z"/><path d="m544-1568h224z"/><path d="m768-1568h224z"/><path d="m992-1568h224z"/><path d="m1216-1568h224z"/><path d="m1440-1568h224z"/><path d="m1664-1568h224z"/><path d="m1952-1568h-64z"/></g><g id="d"><path d="m1952 384v64 160z"/><path d="m1952 160v64 160z"/><path d="m1952-64v64 160z"/><path d="m1952-288v64 160z"/><path d="m1952-512v64 160z"/><path d="m1952-736v64 160z"/><path d="m1952-960v64 160z"/><path d="m1952-1184v64 160z"/><path d="m1952-1408v64 160z"/><path d="m1952-1568v160z"/><path d="m-800 608v-160-64z"/><path d="m-800 384v-160-64z"/><path d="m-800 160v-160-64z"/><path d="m-800-64v-160-64z"/><path d="m-800-288v-160-64z"/><path d="m-800-512v-160-64z"/><path d="m-800-736v-160-64z"/><path d="m-800-960v-160-64z"/><path d="m-800-1184v-160-64z"/><path d="m-800-1408v-160z"/><path d="m-576 608h-224z"/><path d="m-352 608h-224z"/><path d="m-128 608h-224z"/><path d="m96 608h-224z"/><path d="m320 608h-224z"/><path d="m544 608h-224z"/><path d="m768 608h-224z"/><path d="m992 608h-224z"/><path d="m1216 608h-224z"/><path d="m1440 608h-224z"/><path d="m1664 608h-224z"/><path d="m1888 608h-224z"/><path d="m1952-1568h-64z"/><path d="m-576-1568h-224v160 64h224z"/><path d="m-800-1344v160 64h224v-224z"/><path d="m-800-1120v160 64h224v-224z"/><path d="m-800-896v160 64h224v-224z"/><path d="m-800-672v160 64h224v-224z"/><path d="m-800-448v160 64h224v-224z"/><path d="m-800-224v160 64h224v-224z"/><path d="m-800 0v160 64h224v-224z"/><path d="m-800 224v160 64h224v-224z"/><path d="m-800 448v160h224v-160z"/><path d="m-352-1568h-224v224h224z"/><path d="m-576-1344v224h224v-224z"/><path d="m-576-1120v224h224v-224z"/><path d="m-576-896v224h224v-224z"/><path d="m-576-672v224h224v-224z"/><path d="m-576-448v224h224v-224z"/><path d="m-576-224v224h224v-224z"/><path d="m-576 0v224h224v-224z"/><path d="m-576 224v224h224v-224z"/><path d="m-576 448v160h224v-160z"/><path d="m-128-1568h-224v224h224z"/><path d="m-352-1344v224h224v-224z"/><path d="m-352-1120v224h224v-224z"/><path d="m-352-896v224h224v-224z"/><path d="m-352-672v224h224v-224z"/><path d="m-352-448v224h224v-224z"/><path d="m-352-224v224h224v-224z"/><path d="m-352 0v224h224v-224z"/><path d="m-352 224v224h224v-224z"/><path d="m-352 448v160h224v-160z"/><path d="m96-1568h-224v224h224z"/><path d="m-128-1344v224h224v-224z"/><path d="m-128-1120v224h224v-224z"/><path d="m-128-896v224h224v-224z"/><path d="m-128-672v224h224v-224z"/><path d="m-128-448v224h224v-224z"/><path d="m-128-224v224h224v-224z"/><path d="m-128 0v224h224v-224z"/><path d="m-128 224v224h224v-224z"/><path d="m-128 448v160h224v-160z"/><path d="m320-1568h-224v224h224z"/><path d="m96-1344v224h224v-224z"/><path d="m96-1120v224h224v-224z"/><path d="m96-896v224h224v-224z"/><path d="m96-672v224h224v-224z"/><path d="m96-448v224h224v-224z"/><path d="m96-224v224h224v-224z"/><path d="m96 0v224h224v-224z"/><path d="m96 224v224h224v-224z"/><path d="m96 448v160h224v-160z"/><path d="m544-1568h-224v224h224z"/><path d="m320-1344v224h224v-224z"/><path d="m320-1120v224h224v-224z"/><path d="m320-896v224h224v-224z"/><path d="m320-672v224h224v-224z"/><path d="m320-448v224h224v-224z"/><path d="m320-224v224h224v-224z"/><path d="m320 0v224h224v-224z"/><path d="m320 224v224h224v-224z"/><path d="m320 448v160h224v-160z"/><path d="m768-1568h-224v224h224z"/><path d="m544-1344v224h224v-224z"/><path d="m544-1120v224h224v-224z"/><path d="m544-896v224h224v-224z"/><path d="m544-672v224h224v-224z"/><path d="m544-448v224h224v-224z"/><path d="m544-224v224h224v-224z"/><path d="m544 0v224h224v-224z"/><path d="m544 224v224h224v-224z"/><path d="m544 448v160h224v-160z"/><path d="m992-1568h-224v224h224z"/><path d="m768-1344v224h224v-224z"/><path d="m768-1120v224h224v-224z"/><path d="m768-896v224h224v-224z"/><path d="m768-672v224h224v-224z"/><path d="m768-448v224h224v-224z"/><path d="m768-224v224h224v-224z"/><path d="m768 0v224h224v-224z"/><path d="m768 224v224h224v-224z"/><path d="m768 448v160h224v-160z"/><path d="m1216-1568h-224v224h224z"/><path d="m992-1344v224h224v-224z"/><path d="m992-1120v224h224v-224z"/><path d="m992-896v224h224v-224z"/><path d="m992-672v224h224v-224z"/><path d="m992-448v224h224v-224z"/><path d="m992-224v224h224v-224z"/><path d="m992 0v224h224v-224z"/><path d="m992 224v224h224v-224z"/><path d="m992 448v160h224v-160z"/><path d="m1440-1568h-224v224h224z"/><path d="m1216-1344v224h224v-224z"/><path d="m1216-1120v224h224v-224z"/><path d="m1216-896v224h224v-224z"/><path d="m1216-672v224h224v-224z"/><path d="m1216-448v224h224v-224z"/><path d="m1216-224v224h224v-224z"/><path d="m1216 0v224h224v-224z"/><path d="m1216 224v224h224v-224z"/><path d="m1216 448v160h224v-160z"/><path d="m1664-1568h-224v224h224z"/><path d="m1440-1344v224h224v-224z"/><path d="m1440-1120v224h224v-224z"/><path d="m1440-896v224h224v-224z"/><path d="m1440-672v224h224v-224z"/><path d="m1440-448v224h224v-224z"/><path d="m1440-224v224h224v-224z"/><path d="m1440 0v224h224v-224z"/><path d="m1440 224v224h224v-224z"/><path d="m1440 448v160h224v-160z"/><path d="m1888-1568h-224v224h224z"/><path d="m1664-1344v224h224v-224z"/><path d="m1664-1120v224h224v-224z"/><path d="m1664-896v224h224v-224z"/><path d="m1664-672v224h224v-224z"/><path d="m1664-448v224h224v-224z"/><path d="m1664-224v224h224v-224z"/><path d="m1664 0v224h224v-224z"/><path d="m1664 224v224h224v-224z"/><path d="m1664 448v160h224v-160z"/><path d="m1952-1344v-64-160h-64v224z"/><path d="m1952-1120v-64-160h-64v224z"/><path d="m1952-896v-64-160h-64v224z"/><path d="m1952-672v-64-160h-64v224z"/><path d="m1952-448v-64-160h-64v224z"/><path d="m1952-224v-64-160h-64v224z"/><path d="m1952 0v-64-160h-64v224z"/><path d="m1952 224v-64-160h-64v224z"/><path d="m1952 448v-64-160h-64v224z"/><path d="m1952 608v-160h-64v160z"/></g></defs><g stroke="#000"><use fill="none" stroke-miterlimit="0" stroke-width="10" xlink:href="#a"/><use fill="#c4c4c4" xlink:href="#a"/><use fill="none" stroke-miterlimit="0" stroke-width="10" xlink:href="#b"/><use fill="#d9d9d9" xlink:href="#b"/><use fill="none" stroke-miterlimit="0" stroke-width="10" xlink:href="#c"/><use fill="#ebebeb" xlink:href="#c"/><use fill="none" stroke-miterlimit="0" stroke-width="10" xlink:href="#d"/><use fill="#fff" xlink:href="#d"/></g></svg>