<svg viewBox="-2298 -2041 2675 2226" xmlns="http://www.w3.org/2000/svg" xmlns:xlink="http://www.w3.org/1999/xlink"><defs><g id="a"><path d="m192-928v63 1z"/><path d="m-1088-928v64z"/><path d="m-1088-864v-64z"/><path d="m128-864v-1-63z"/><path d="m192-864h-64v-64h64z"/><path d="m192-864h-64z"/><path d="m-864-864h-224v-64h224z"/><path d="m-640-864h-224v-64h224z"/><path d="m-416-864h-224v-64h224z"/><path d="m-192-864h-224v-64h224z"/><path d="m32-864h-224v-64h224z"/><path d="m128-928v64h-96v-64z"/><path d="m-864-928h-224z"/><path d="m-640-928h-224z"/><path d="m-416-928h-224z"/><path d="m-192-928h-224z"/><path d="m32-928h-224z"/><path d="m128-864h-96z"/><path d="m-1088-864h-64v-64h64z"/><path d="m-1152-928v64z"/><path d="m-1152-864h64-1z"/><path d="m-1088-864v-64 32z"/><path d="m128-928v63z"/><path d="m128-865v1-64z"/><path d="m192-865h-32-32z"/><path d="m128-928h32 32z"/><path d="m192-865h-64v1h64z"/><path d="m-864-928h-224v64h224z"/><path d="m-640-928h-224v64h224z"/><path d="m-416-928h-224v64h224z"/><path d="m-192-928h-224v64h224z"/><path d="m32-928h-224v64h224z"/><path d="m128-864v-1-63h-96v64z"/><path d="m128-928h-96z"/><path d="m-864-864h-224z"/><path d="m-640-864h-224z"/><path d="m-416-864h-224z"/><path d="m-192-864h-224z"/><path d="m32-864h-224z"/><path d="m-1088-928h-64 63z"/><path d="m-2112-288v23.9767 72.9303 126.093 1-1-159z"/><path d="m-2112-512v31 177.8372 15.1628-160z"/><path d="m-2112-736v31 193-160z"/><path d="m-2112-960v31 193-160z"/><path d="m-2112-1184v64 160-160z"/><path d="m-2112-1408v64 160-160z"/><path d="m-2112-1632v64 160-160z"/><path d="m192-928v63z"/><path d="m-1275-323.1005-208 120.1005-16-27 224-128.4017z"/><path d="m-1153-428.3347v12.3347 22.4561l-121 69.866-1 .5774v-35.3012z"/><path d="m-1724-505-9.8639-14.0453 27.4118-18.487 9.4521 13.5323z"/><path d="m-1746-550 20.9641-14.1385 18.5838 26.6062-21.5479 14.5323z"/><path d="m-2112-736v-193h101.5891 30.5291l91.8818 131.5466v92.4534h-224z"/><path d="m-1888-705v131.5466 92.4534h-224v-31-193z"/><path d="m-1888-481v26.7675l-159 107.2325-65 43.8372v-177.8372z"/><path d="m-1888-705v-92.4534l156.458 224h-156.458z"/><path d="m-1731.542-573.4534 6.5061 9.3149-20.9641 14.1385-77 51.9303-65 43.8372v-26.7675-92.4534z"/><path d="m-2112-264.0233v-23.9767-15.1628l65-43.8372 18 27z"/><path d="m-1521.7228-216.9749-18.2772-26.0251 26-19 20.2493 28.9911z"/><path d="m-2112-191.093v-72.9303l224-151.0697v120.0477 103.9523z"/><path d="m-1888-65h-224v-126.093h224z"/><path d="m-1888-295.0453v-120.0477l83-55.9767 71.1361-47.9756 9.8639 14.0453 60 85.4348v124.5199z"/><path d="m-1664-195.5652v60.1467l-74 42.4185-48.8467 28h-101.1533v-126.093-103.9523h224z"/><path d="m-1606.8569-338.1985 66.8569 95.1985 18.2772 26.0251-37.3497 21.4097h-104.9275v-99.4801-124.5199z"/><path d="m-1559.0725-195.5652-104.9275 60.1467v-60.1467z"/><path d="m-1786.8467-65 48.8467-28 16 28z"/><path d="m-1888-64h-224v-1h224z"/><path d="m-1664-64h-224v-1h101.1533 64.8467 58z"/><path d="m-1440-64h-224v-1h166 58z"/><path d="m-1216-64h-224v-1h166 58z"/><path d="m-1152-65v1h-64v-1z"/><path d="m-1152-640v-223h64v191 33h-64z"/><path d="m-1088-639v191 33h-64v-1-223z"/><path d="m-1088-415v191 33h-64v-203.1213-20.8787z"/><path d="m-1088-191v127h-64v-1-105.1213-20.8787z"/><path d="m-1498-99.6779v34.6779h-166-58l224-129.339z"/><path d="m-1498-99.6779v-94.6611l15-8.661 208-120.1005 1-.5774v153.5566 70.4434z"/><path d="m-1274-65h-166-58v-34.6779h224z"/><path d="m-1153-393.5439 1-.5774v203.1213 20.8787h-122v-153.5566z"/><path d="m-1152-170.1213v105.1213h-64-58v-34.6779-70.4434z"/><path d="m-1089-864h1v-32-32h-1z"/><path d="m-1088-863v-1-32l92.8177 224h-92.8177z"/><path d="m-995.1823-672 74.9999 181 17.8178 43h-185.6354v-191-33z"/><path d="m-902.3646-448 38.3646 92.5867v131.4133h-224v-191-33z"/><path d="m-864-224v92.5867 66.4133 1h-128-96v-127-33z"/><path d="m-1153-672v-192h1v1 223h-1z"/><path d="m-1152-640v1 223h-1v-12.3347-19.6653-192z"/><path d="m-1152-416v1 20.8787l-1 .5774v-22.4561z"/><path d="m-968-1032 104-42.8235v114.8235 31 78.1765h-141.3979l-18.6021-45.1765z"/><path d="m-864-850.8235v133.647l-104-42.8235-37.3979-90.8235z"/><path d="m-1979.8818-929-23.3536-33.4352 28.2354-131.5648 31 7-34.3724 160.1609z"/><path d="m-1873.2739-1568 48.073-224h123.2303v224z"/><path d="m-1701.9706-1484.775-59.0294 42.775-126.4829 91.6543-8.7571 6.3457h-25.107l33.347-155.3838 14.7261-68.6162h171.3033z"/><path d="m-1896.24-1344-29.7306 21.5439 4.6236-21.5439z"/><path d="m-1477.9706-1647.0938-76.0294 55.0938-33.12 24h-114.8506v-224h37.9706 186.0294z"/><path d="m-1587.12-1568-114.8506 83.225v-83.225z"/><path d="m-1440-1792h162l-199.9706 144.9062v-144.9062z"/><path d="m-1887.4829-1350.3457 126.4829-91.6543 19 26-12.3724 8.9656-143.2168 103.7802z"/><path d="m-1897.5892-1303.2542 143.2168-103.7802v61.6811 162.3188h-169.0174z"/><path d="m-1754.3724-1183.0345v61.6812 162.3188h-217.0905l48.0731-224z"/><path d="m-1754.3724-959.0345v61.6812 162.3189h-90.0296l-133.9704-191.8047 6.9095-32.1954z"/><path d="m-1754.3724-735.0344v61.6811 67.2137l-90.0296-128.8948z"/><path d="m-1754.3724-1407.0344 12.3724-8.9656 207-150 4.6276-3.3533v61.6812 162.3188h-224z"/><path d="m-1530.3724-1345.3533v61.6812 162.3188h-224v-61.6812-162.3188z"/><path d="m-1530.3724-1121.3533v61.6812 162.3188h-224v-61.6812-162.3188z"/><path d="m-1530.3724-897.3533v61.6812 162.3188h-224v-61.6811-162.3189z"/><path d="m-1530.3724-673.3533v61.6812 162.3188h-114.4889l-25.5963-36.6467-26.5424-38-9.4521-13.5323-18.5838-26.6062-29.3365-42.0011v-67.2137z"/><path d="m-1530.3724-449.3533v61.6812 102.2318l-114.4889-163.913z"/><path d="m-1530.3724-1569.3533 200.3724-145.1974 23.6276-17.1215v163.6722 60.3279h-224z"/><path d="m-1306.3724-1507.6721v163.6721 60.3279h-224v-61.6812-162.3188z"/><path d="m-1306.3724-1283.6721v163.6721 60.3279h-224v-61.6812-162.3188z"/><path d="m-1306.3724-1059.6721v163.6721 60.3279h-224v-61.6812-162.3188z"/><path d="m-1306.3724-835.6721v163.6721 60.3279h-224v-61.6812-162.3188z"/><path d="m-1306.3724-611.6721v163.6721 60.3279h-224v-61.6812-162.3188z"/><path d="m-1306.3724-387.6721v47.2538l-187.3783 107.4094-20.2493-28.9911-16.3724-23.4403v-102.2318z"/><path d="m-1306.3724-1731.6722 83.2524-60.3278h7.12 63v224h-153.3724z"/><path d="m-1153-1568v224h-153.3724v-163.6721-60.3279z"/><path d="m-1153-1344v224h-153.3724v-163.6721-60.3279z"/><path d="m-1153-1120v192 32h-153.3724v-163.6721-60.3279z"/><path d="m-1153-896v32 192h-153.3724v-163.6721-60.3279z"/><path d="m-1153-672v32 192h-153.3724v-163.6721-60.3279z"/><path d="m-1153-448v19.6653l-153.3724 87.9164v-47.2538-60.3279z"/><path d="m-2112-1568v-64-160h224v224z"/><path d="m-1888-1499.3838-33.347 155.3838h-190.653v-64-160h224z"/><path d="m-1921.347-1344-6.653 31-41.4202 193h-142.5798v-64-160z"/><path d="m-1969.4202-1120-33.8152 157.5648-7.1755 33.4352h-101.5891v-31-160z"/><path d="m-1825.2009-1792-48.073 224h-14.7261v-224z"/><path d="m-1873.2739-1568-14.7261 68.6162v-68.6162z"/><path d="m-1153-1792h1v224h-1z"/><path d="m-1152-1568v224h-1v-224z"/><path d="m-1152-1344v224h-1v-224z"/><path d="m-1152-1120v191 1h-1v-192z"/><path d="m-1330-1714.5507-200.3724 145.1974-4.6276 3.3533-19-26 76.0294-55.0938 147.9706-107.225z"/><path d="m-1278-1792h54.88l-83.2524 60.3278-23.6276 17.1215v-39.7681z"/><path d="m-1925.9706-1322.4561 38.4877-27.8896-9.5171 44.3457-31-7z"/><path d="m-2010.4109-929 7.1755-33.4352 23.3536 33.4352z"/><path d="m-1152-1568v-224h64v224z"/><path d="m-1152-1344v-224h64v224z"/><path d="m-1152-1120v-224h64v224z"/><path d="m-1088-929h-64v-191h64z"/><path d="m-768-64h-96v-1h120.337 103.663v1z"/><path d="m-640-65h75 149v1h-128-96z"/><path d="m-416-65h75 117 32v1h-128-96z"/><path d="m-192-65h192 32v1h-128-96z"/><path d="m32-65h95v1h-95z"/><path d="m-920.1824-491-74.9999-181-17.8177-43 181 75 43 17.8175v131.1825z"/><path d="m-827.3647-267-36.6353-88.4133-38.3646-92.5867-17.8178-43h131.1824v92.8175 131.1825z"/><path d="m-789-174.4135-38.3647-92.5865h38.3647z"/><path d="m-789-398.1825v-92.8175-131.1825l181 74.9998 43 17.818v131.1822z"/><path d="m-788.9044-174.1825-.0956-.231v-92.5865-131.1825h224v92.8178 131.1822z"/><path d="m-565-81.3647v16.3647h-75-103.663l-45.2414-109.1825h223.9044z"/><path d="m-565-305.3647v-92.8178-131.1822l181 75.0001 25.1736 10.4309 17.8264 7.3866v131.1824z"/><path d="m-565-81.3647v-92.8178-131.1822h224v92.8176 131.1824z"/><path d="m-341-65h-75-149v-16.3647h224z"/><path d="m-224-388.0664v100.0664 75.4529h-117v-92.8176-131.1824z"/><path d="m-224-212.5471v147.5471h-117v-16.3647-131.1824z"/><path d="m-427-807.8176-181 74.9997-43 17.8179 48.4807-117h172.931 2.5883z"/><path d="m-368.64-832-15.36 6.3646-43 17.8178v-24.1824z"/><path d="m-864-131.4133v-92.5867-131.4133l36.6353 88.4133 38.3647 92.5865 17.8176 43.0002z"/><path d="m-743.663-65h-120.337v-66.4133h92.8176z"/><path d="m-608-601.6354v54.4527l-181-74.9998-43-17.8175 181-75 43-17.8179z"/><path d="m-608-601.6354v-131.1825l181-74.9997 43-17.8178v157.7017 66.2983z"/><path d="m-384-454.3646-181-75.0001-43-17.818v-54.4527h224z"/><path d="m-368.64-832 144.64-59.9337v155.9337 68.0663h-160v-157.7017z"/><path d="m-224-667.9337v155.9337 68.0663h-134.8264l-25.1736-10.4309v-147.2708-66.2983z"/><path d="m-224-443.9337v55.8673l-117-48.4807-17.8264-7.3866z"/><path d="m-864-850.8235v-78.1765h210.4117l13.5883 33-26.353 64-24.2794 58.9644-5.3676 13.0356-136 56-32-13.1765z"/><path d="m-640-896 26.3529 64h-52.7059z"/><path d="m-429.5883-832h-172.931-11.1278l-26.3529-64-13.5883-33h13.5883 210.4117z"/><path d="m-416-929h192v37.0663l-144.64 59.9337h-58.36-2.5883v-97z"/><path d="m160-864h-32v-1h32z"/><path d="m128-928v63 1h-1v-64z"/><path d="m128-865v-63h32v63z"/><path d="m160-865v-63h-32v63z"/><path d="m-653.5883-929h-210.4117v-31h197.647 26.353v31z"/><path d="m-640-960h37.4807 53.0386 133.4807v31h-13.5883-210.4117z"/><path d="m-416-960h90.5193 101.4807v31h-192z"/><path d="m-418.2984-1276.5865 23.4306-56.5458 4.5032-10.8677 49.3646-119.1333 15.5193-37.4533v203.0933 20.9068z"/><path d="m-511.1161-1052.5865 8.8055-21.2505 22.2639-53.7303 61.7483-149.0192h92.8177v203.0932 20.9068z"/><path d="m-325.4807-960h-90.5193-133.4807l38.3646-92.5865h185.6354z"/><path d="m-297.547-1568 73.547-177.4933v17.4933 128 78.5067h-92.8177z"/><path d="m-224-1521.4933v17.4933 96 110.5067h-101.4807v-203.0933l8.663-20.9067z"/><path d="m-224-1297.4933v113.4933 110.5067h-101.4807v-203.0932-20.9068z"/><path d="m-224-1073.4933v113.4933h-101.4807v-92.5865-20.9068z"/><path d="m-1088-1568v-224h96 128v224z"/><path d="m-864-1436.5867-17.8177 43.0001-20.547 49.5866h-185.6353v-224h224z"/><path d="m-902.3647-1344-72.2706 174.4133-20.5471 49.5867h-92.8176v-224z"/><path d="m-995.1824-1120-17.8176 43-75 181v-32-1-191z"/><path d="m-768-1792h51.2707l-72.2707 174.4133-20.547 49.5867h-54.453v-224z"/><path d="m-809.547-1568-54.453 131.4133v-131.4133z"/><path d="m-789.5576-1169.5867.5576-.231 84.9533-35.2016 53.0467 128.0193-181-75z"/><path d="m-864-1074.8235 32-13.1765 136 56 29.647 72h-197.647z"/><path d="m-480.0467-1127.5673-22.2639 53.7303h-147.3788l-1.3106-3.163-53.0467-128.0193 139.0467-57.6161 84.9533-35.2016z"/><path d="m-502.3106-1073.837-8.8055 21.2505-38.3646 92.5865h-53.0386l-47.1701-113.837z"/><path d="m-394.8678-1333.1323-23.4306 56.5458-61.7483 149.0192v-170.2697z"/><path d="m-224-1297.4933v-110.5067h96 32 96v224h-224z"/><path d="m0-1184v224h-224v-113.4933-110.5067z"/><path d="m0-960v224h-224v-155.9337-37.0663-31z"/><path d="m0-736v224h-224v-155.9337-68.0663z"/><path d="m0-512v224h-224v-100.0664-55.8673-68.0663z"/><path d="m0-288v223h-192-32v-147.5471-75.4529z"/><path d="m0-1408h127v32 192h-127z"/><path d="m127-1184v32 192h-127v-224z"/><path d="m127-960v32 64 128h-127v-224z"/><path d="m127-736v224h-127v-224z"/><path d="m127-512v224h-127v-224z"/><path d="m127-288v223h-95-32v-223z"/><path d="m-224-1408v-96h96v96z"/><path d="m-128-1504h-96v-17.4933-78.5067h128v96z"/><path d="m-96-1600v-128h96 127v128 96h-223z"/><path d="m127-1504v96h-127-96v-96z"/><path d="m-881.8177-1393.5866 17.8177-43.0001 54.453-131.4133 20.547-49.5867v49.5867 174.4133z"/><path d="m-789-1344v174.1823l-.5576.231h-185.0777l72.2706-174.4133 20.547-49.5866 92.8177-.0001z"/><path d="m-789.5576-1169.5867-42.4424 17.5867-32 13.2596-149 61.7404 17.8176-43 20.5471-49.5867z"/><path d="m-789-1568v-49.5867l72.2707-174.4133h151.7293v224z"/><path d="m-789-1344v-49.5867-174.4133h224v224z"/><path d="m-565-1262.6354-139.0467 57.6161-84.9533 35.2016v-174.1823h224z"/><path d="m-565-1568v-224h21 203v224z"/><path d="m-341-1463.1333-49.3646 119.1333h-174.6354v-224h224z"/><path d="m-390.3646-1344-4.5032 10.8677-85.1789 35.2953-84.9533 35.2016v-81.3646z"/><path d="m-320-1792h115.2707l-19.2707 46.5067-73.547 177.4933h-43.453v-224z"/><path d="m-297.547-1568-19.2707 46.5067-8.663 20.9067-15.5193 37.4533v-104.8667z"/><path d="m0-1728h-96-128v-17.4933l19.2707-46.5067h108.7293 96z"/><path d="m127-1792v64h-127v-64z"/><path d="m160-865v-63z"/><path d="m127-864v128z"/><path d="m127-1728v-64 160 32z"/><path d="m128-864h32-33z"/><path d="m-1888-1792h-224z"/><path d="m-1664-1792h-37.9706-123.2303-62.7991z"/><path d="m-1440-1792h-37.9706-186.0294z"/><path d="m-1216-1792h-7.12-54.88-162z"/><path d="m-992-1792h-96-64-1-63z"/><path d="m-768-1792h-96-128z"/><path d="m-544-1792h-21-151.7293-51.2707z"/><path d="m-320-1792h-21-203z"/><path d="m-96-1792h-108.7293-115.2707z"/><path d="m-1088-896 75 181z"/><path d="m-1013-1077-75 181z"/><path d="m-696-1032-136-56z"/><path d="m-864-717.1765 32 13.1765-52.4953-21.6157-58.8975-24.252-24.6072-10.1323z"/><path d="m-602.5193-832h.0001-.0001-11.1281.0003z"/><path d="m-640-960h-26.353.0002-.0002 63.8337.0001-.0001z"/><path d="m-1152-929h64z"/><path d="m-1969.4202-1120 41.4202-193-47 219z"/><path d="m-1514-262-66.6294-95.3929-89.8286-128.6071h.0004z"/><path d="m-1606.8569-338.1985-57.1431-81.3667-60-85.4348 117.1426 166.8007z"/><path d="m-1697-524-27 19z"/><path d="m-1722-65-16-28z"/><path d="m-1499-230 16 27z"/><path d="m-1664-135.4185 104.9275-60.1467 60.0725-34.4348-44 25.2218-153.8394 88.1841-41.1606 23.5941z"/><path d="m32-64h95-223z"/><path d="m-576-896h-74l-22 64h74z"/><path d="m-601-960h-71l25 64h71z"/><path d="m128-928h-1v64h1z"/><path d="m-832-1088 4.2834 1.7637 58.8969 24.2516 72.8197 29.9847z"/><path d="m-734-823-57 30 30 57 57-30z"/><path d="m-2047-347 159-107.2325 65-43.8372v-.0001z"/><path d="m-1823-498.0698v.0001l77-51.9303z"/><path d="m-2029-320-18-27z"/><path d="m-1805-471.0698v.0001l-83 55.9767-141 95.093z"/><path d="m-1728-523-77 51.9303v-.0001z"/><path d="m-1746-550 18 27z"/><path d="m-704-766-57 30z"/><path d="m-704-766-57 30-30-57 57-30z"/><path d="m-761-736-30-57z"/><path d="m-791-793 57-30z"/><path d="m-734-823 30 57z"/><path d="m-651-1077 1.3106 3.163 47.1701 113.837h.0001z"/><path d="m-696-760-103.8379 42.7568-26.4089 10.8743-5.7532 2.3689z"/><path d="m-666.3528-960h-.0002l-29.647-72z"/><path d="m-798-791-57 30 28.7532 54.6311 26.4089-10.8743 31.8379-16.7568z"/><path d="m-826.2468-706.3689-28.7532-54.6311z"/><path d="m160-864v-1z"/><path d="m160-865v-63z"/><path d="m160-865h32z"/><path d="m192-928h-32z"/><path d="m192-928h-32v63h32z"/><path d="m127-288v224-1z"/><path d="m127-512v224z"/><path d="m127-736v224z"/><path d="m127-1792v160z"/><path d="m127-1152v192 32-32z"/><path d="m127-1376v192 32-32z"/><path d="m127-1600v192 32-32-96z"/><path d="m160-928h-32-1z"/><path d="m160-864v-1-63h-33v64z"/><path d="m-96-1408h-32z"/><path d="m-96-1600h-128z"/><path d="m-224-1728h128z"/><path d="m-224-1600v-128z"/><path d="m-96-1728v128z"/><path d="m-96-1600h-128v-128h128z"/><path d="m-128-1408v-96z"/><path d="m-96-1504v96z"/><path d="m-128-1504h32z"/><path d="m-96-1408h-32v-96h32z"/><path d="m-799.8379-717.2432 103.8379-42.7568z"/><path d="m-826.2468-706.3689-5.7532 2.3689z"/><path d="m-768-734-31.8379 16.7568-26.4089 10.8743-28.7532-54.6311 57-30z"/><path d="m-768-734-31.8379 16.7568z"/><path d="m-855-761 57-30z"/><path d="m-798-791 30 57z"/><path d="m-1153-864v-32-32z"/><path d="m-1088-929h-64z"/><path d="m-1088-863h-64z"/><path d="m-1153-928h1z"/><path d="m-1152-928v-1z"/><path d="m-1152-864h-1z"/><path d="m-1152-928v64z"/><path d="m-1152-863v-1z"/><path d="m-1944-1087-31-7 47-219 31 7z"/><path d="m-1944-1087-31-7z"/><path d="m-1897-1306-.5892 2.7458-25.8006 120.2197-20.6102 96.0345z"/><path d="m-1928-1313 31 7z"/><path d="m127-928h1z"/><path d="m128-864h-1z"/><path d="m128-864h-1v-64h1z"/><path d="m128-928v64z"/><path d="m127-864v-64z"/><path d="m-832-640-181-75z"/><path d="m-832-704-52.4953-21.6157z"/><path d="m-864-776-59-24-20.3928 50.1323 58.8975 24.252z"/><path d="m-943.3928-749.8677 20.3928-50.1323z"/><path d="m-1742-1416-19-26 207-150 19 26z"/><path d="m-1554-1592-207 150 59.0294-42.775 114.8506-83.225z"/><path d="m-1761-1442 19 26z"/><path d="m-1742-1416 207-150z"/><path d="m-1535-1566-19-26z"/><path d="m-602.5192-832h-.0001l-48.4807 117z"/><path d="m-943.3928-749.8677-24.6072-10.1323z"/><path d="m-943.3928-749.8677 58.8975 24.252 52.4953 21.6157-136-56z"/><path d="m-690.6324-773.0355v-.0001l24.2794-58.9644z"/><path d="m-943.3928-749.8677 20.3928-50.1323 59 24-20.4953 50.3843z"/><path d="m-923-800 59 24z"/><path d="m-864-776-20.4953 50.3843z"/><path d="m-696-760 5.3676-13.0356v.0001z"/><path d="m-1844.5895-217.7753-11.1832-10.3625 6.3245 25.8396 6.2945-9.4889z"/><path d="m-1844.5895-217.7753-3.4105-14.2247-26-25-13.4202-.4626z"/><path d="m-1839.8684-198.0859-3.2853-13.7012-17.8006 26.8332 12.0185.5984z"/><path d="m-977.9033-784.0509-24.6336-59.8244-21.4631-52.1247 18.6021 45.1765 37.3979 90.8235z"/><path d="m-951-871-51.5369 27.1247 24.6336 59.8244 56.9033-29.9491z"/><path d="m-951-871-51.5369 27.1247z"/><path d="m-1889.895-257.548-6.7219 10.3485 21.2053.8642-12.0086-11.1273z"/><path d="m-2112-1792v160z"/><path d="m127-288v223 1z"/><path d="m127-512v224z"/><path d="m127-736v224z"/><path d="m127-960v224-128-64z"/><path d="m127-1184v224-192z"/><path d="m127-1408v224-192z"/><path d="m127-1632v224-192z"/><path d="m127-1792v-64h1v224h-1z"/><path d="m128-1632v224h-1v-224z"/><path d="m128-1408v224h-1v-224z"/><path d="m128-1184v224h-1v-224z"/><path d="m128-960v224h-1v-224z"/><path d="m128-736v224h-1v-224z"/><path d="m128-512v224h-1v-224z"/><path d="m128-288v224h-1v-1-223z"/><path d="m128-64v64h-1v-64z"/><path d="m-1888-1792h-224v-64h224z"/><path d="m-1664-1792h-224v-64h224z"/><path d="m-1440-1792h-224v-64h224z"/><path d="m-1216-1792h-224v-64h224z"/><path d="m-992-1792h-224v-64h224z"/><path d="m-768-1792h-224v-64h224z"/><path d="m-544-1792h-224v-64h224z"/><path d="m-320-1792h-224v-64h224z"/><path d="m-96-1792h-224v-64h224z"/><path d="m127-1856v64h-223v-64z"/><path d="m127-1792h-127-96z"/><path d="m-602.5193-960 12.8453 31z"/><path d="m-602.5193-960-48.4807-117 48.4808 117z"/><path d="m-977.9033-784.0509 9.9033 24.0509z"/><path d="m-1010.4117-863-13.5883-33 21.4631 52.1247z"/><path d="m-653.5882-929-12.7648-31 12.7647 31z"/><path d="m-589.674-929-12.8453-31h-63.8337l12.7648 31 39.9408 97h11.1281l26.5193-64z"/><path d="m-666.3529-832h.0001l-24.2795 58.9641-.0001.0004 24.2794-58.9645z"/><path d="m-640-896-26.3529 64h52.7055z"/><path d="m-613.6474-832h-52.7055-.0001 52.7059z"/><path d="m-951-871 30 57-56.9033 29.9491-24.6336-59.8244z"/><path d="m-921-814-56.9033 29.9491z"/><path d="m-951-871 30 57z"/><path d="m-1888-64h-224z"/><path d="m-1664-64h-224z"/><path d="m-1440-64h-224z"/><path d="m-1216-64h-224z"/><path d="m-992-64h-224 64 64z"/><path d="m-768-64h-224 128z"/><path d="m-544-64h-224 128z"/><path d="m-320-64h-224 128z"/><path d="m-96-64h-224 128z"/><path d="m-2113-1792h1v160 64h-1z"/><path d="m-2112-1568v160 64h-1v-224z"/><path d="m-2112-1344v160 64h-1v-224z"/><path d="m-2112-1120v160 64h-1v-224z"/><path d="m-2112-896v160 64h-1v-224z"/><path d="m-2112-672v160 64h-1v-224z"/><path d="m-2112-448v160 64h-1v-224z"/><path d="m-2112-224v159 1h-1v-160z"/><path d="m-598-832h-74l22-64h74z"/><path d="m-650-896h74z"/><path d="m-598-832h-74z"/><path d="m-672-832 22-64z"/><path d="m-576-896-22 64z"/><path d="m-576-896h-71l-25-64h71z"/><path d="m-576-896h-71z"/><path d="m-672-960h71z"/><path d="m-647-896-25-64z"/><path d="m-601-960 25 64z"/><path d="m-1855.2009-174.8682 6.2651-9.4873-46.3743-2.3092 11.7675 11.021z"/><path d="m-1815.9468-253.2686-32.0532 21.2686 8.1316 33.9141 22.9658-14.9735z"/><path d="m-1826.9807-217.1124-22.4675 14.8142-6.3245-25.8396 29.312-19.4982z"/><path d="m-1911.041-244.9746-6.6499 10.7722 4.7618 19.5814 11.1333 10.5424z"/><path d="m-1911.041-244.9746 3.3511 14.8227 11.073-17.0476 6.7219-10.3485-13.105-.452z"/><path d="m-1000.8192-952.2962 32.8192-79.7038-56 136z"/><path d="m-832-704 32.1621-13.2432 103.8379-42.7568z"/><path d="m-1010.4117-863-11.8551-28.791-1.7332-4.209z"/><path d="m-960-935-40.8192-17.2962-23.1808 56.2962 1.7332 4.209 37.2668 15.791z"/><path d="m-1000.8192-952.2962 40.8192 17.2962-40.8192-17.2963z"/><path d="m-1088-929v1 32 32 1z"/><path d="m-1000.8192-952.2963 32.8192-79.7037-32.8192 79.7038z"/><path d="m-1010.4117-863-11.8551-28.791z"/><path d="m-1010.4117-929 9.5925-23.2963 40.8192 17.2963-25 59-37.2668-15.791-1.7332-4.209z"/><path d="m-985-876-37.2668-15.791z"/><path d="m-960-935-25 59z"/><path d="m-1912.9291-214.621 3.607 14.8327 14.012 13.1236 12.5655.6258z"/><path d="m-1797.8816-225.4608-19.021 12.4014-22.9658 14.9735-15.3325 23.2177 22.2151-14.5708z"/><path d="m-1797.8816-225.4608 163.1722-106.3861-9.0009-35.7069-172.2365 114.2852-.9558 40.2092z"/><path d="m-1837.9961-200.0647-22.9582 15.1108 11.5061-17.3443 22.4675-14.8142 15.5629-10.2616z"/><path d="m-1860.5603-200.5139-22.1843 14.475 21.7903 1.085 35.7816-23.5512z"/><path d="m-1860.5603-200.5139 184.3132-120.2586-20.2746-18.8841-183.1591 120.9709-22.115 14.6071 19.0512 18.0397z"/><path d="m-1010.4117-929 12.3854-30.079 30.0263-72.921-32.8192 79.7037z"/><path d="m-998.0263-959.079 45.0263 19.079 25-59-45.6274-19.3336z"/><path d="m-973.6274-1018.3336 45.6274 19.3336z"/><path d="m-1013-1077-75 181z"/><path d="m-832-1152 181 75z"/><path d="m-1013-1077 149-61.7404z"/><path d="m-864-1138.7404 32-13.2596z"/><path d="m-973.6274-1018.3336 5.6274-13.6664z"/><path d="m-1010.4117-929 12.3854-30.079z"/><path d="m-973.6274-1018.3336 45.6274 19.3336-25 59-45.0263-19.079z"/><path d="m-953-940-45.0263-19.079z"/><path d="m-928-999-25 59z"/><path d="m-1878.3217-249.5581-29.3682 19.4062 5.8941 26.0733 22.115-14.6071z"/><path d="m-1814.3694-201.6495 165.5011-108.5518 14.1589-21.6456-163.1722 106.3861-35.1042 36.0218z"/><path d="m-1814.3694-201.6495-40.8315 26.7813-28.3417-.7755 22.2545-14.6025z"/><path d="m-1887.2977-214.2651 183.8291-120.8382 26.1816 24.1228-184.0011 120.7343-22.2545 14.6025-25.7795-24.1446z"/><path d="m-1887.2977-214.2651-22.0244 14.4768-8.3688-34.4141 31.2397-20.4714z"/><path d="m-1088-896 13.6741 33 61.3259 148z"/><path d="m-950.6099-1039.1606-17.3901 7.1606z"/><path d="m-950.6099-1039.1606 52.0097-21.4158 66.6002-27.4236-32 13.1765-104 42.8235z"/><path d="m-950.6099-1039.1606-9.3901 22.1606 59 25 25-59-22.6002-9.5764z"/><path d="m-898.6002-1060.5764 22.6002 9.5764z"/><path d="m-651-715-181 75z"/><path d="m-832-1088-66.6002 27.4236z"/><path d="m-651-715 48.4807-117h.0001z"/><path d="m-960-1017 9.3901-22.1606 52.0097-21.4158 22.6002 9.5764-25 59z"/><path d="m-876-1051-25 59z"/><path d="m-901-992-59-25z"/><path d="m-960-1017 9.3901-22.1606z"/><path d="m-1089-928h-63z"/><path d="m-1152-864h63z"/><path d="m-1089-864v-64z"/><path d="m-1483-203-15 8.661-224 129.339z"/><path d="m-1730-512-147.7477 103.5176-9.2523 6.4824z"/><path d="m-1670.458-486-26.542-38 26.5424 38z"/><path d="m-1606.8574-338.1993 18.8574-13.8007-179 131z"/><path d="m-1724-505 27-19 26.542 38 89.8286 128.6071-7.3706 5.3929-18.8574 13.8007z"/><path d="m-1657-407-73-105z"/><path d="m-1784.9762-315.6256 26.1355-17.2112-6.0729 1.4451-23.7574 16.6452z"/><path d="m-1784.9762-315.6256-47.3434 11.2656-70.6804 46.36 29 1z"/><path d="m-1820.991-307.0557 32.32-7.6908 131.671-92.2535-73-105-157 110z"/><path d="m-1887-402 59.4515 85.5125 4.2967 6.1799 2.2608 3.2519z"/><path d="m-1791.8032-301.5768 26.1609-17.2849 95.0129-62.7761 19.2435 17.5434-175.0748 116.4584-29.312 19.4982-19.6389-18.1975z"/><path d="m-1826.7009-293.3942 10.421-6.8853 2.6554 3.8193z"/><path d="m-1826.7009-293.3942 34.8977-8.1826-83.6084 55.2415-21.2053-.8642z"/><path d="m-1722.9905-66.7333-15.0095-26.2667 41.1606-23.5941 13.8394 20.5941z"/><path d="m-1543-247.2716-63.8574-90.9277-160.1426 117.1993 70.1606 104.4059 153.8394-88.1841z"/><path d="m-1521.7228-216.9747-18.2772-26.0253-3-4.2716v42.4934z"/><path d="m-1504.0649-227.0967-19.0024-28.2772-16.9327 12.3739 18.2772 26.0253z"/><path d="m-1588-352 7.3706-5.3929 66.6294 95.3929-9.0673 6.6261z"/><path d="m-1504.0649-227.0967.9091-.5211-.8442.6178z"/><path d="m-1683-96 179-131 .8442-.6178 4.1558-2.3822 16 27-239 138-.9905-1.7333z"/><path d="m-1514-262-26 19z"/><path d="m-1543-247.2716 3 4.2716-66.8569-95.1985-.0005-.0008z"/><path d="m-1814-297 .9106-.6379 21.6628-15.1778z"/><path d="m-1823.2518-310.3076-9.0678 5.9476 11.3286-2.6957z"/><path d="m-1823.2518-310.3076 2.8086 4.0397-20.4178 21.7188-45.5902 29.8753-31.2397 20.4714 14.6909-23.7976z"/><path d="m-827.7166-1086.2363-4.2834-1.7637 4.2827 1.7633z"/><path d="m-832-704-52.4953-21.6157-58.8975-24.252-24.6072-10.1323z"/><path d="m-696-1032 29.647 72h.0002z"/><path d="m-827.7166-1086.2363-23.2834 57.2363 59 24 23.1803-56.9847z"/><path d="m-768.8197-1061.9847-23.1803 56.9847 23.1802-56.9847z"/><path d="m-1814-297-2.2799-3.2795z"/><path d="m-696-1032-72.8197-29.9847h-.0001z"/><path d="m-792-1005-59-24 23.2827-57.2367 58.8975 24.252z"/><path d="m-851-1029 23.2834-57.2363-.0007-.0004z"/><path d="m-792-1005-59-24z"/><path d="m-1823-458.9302-206 138.9302-18-27 224-151.0698z"/><path d="m-1746-550 18 27-95 64.0698v-39.1396z"/><path d="m-1823-498.0698-224 151.0698z"/><path d="m-1746-550-77 51.9302z"/><path d="m-2047-347 18 27z"/><path d="m-2029-320 206-138.9302 18-12.1396z"/><path d="m-1805-471.0698 77-51.9302z"/><path d="m-1728-523-18-27z"/><path d="m-1657-407-107.9136 75.6083-62.6349 14.9042-59.4515-85.5125 9.2523-6.4824 147.7477-103.5176z"/><path d="m-1657-407-131.671 92.2535 23.7574-16.6452z"/><path d="m-1840.861-284.5491 128.75-84.3696 8.6424 33.8154-183.8291 120.8382.8465-40.4087z"/><path d="m-1820.4432-306.2679 14.4233-15.3423 108.468-71.1454-14.5591 23.8369-128.75 84.3696z"/><path d="m-1791.4266-312.8157-21.6628 15.1778 12.5494-13.0409z"/><path d="m-1826.2366-283.9755 123.5309-81.6286 10.8695-16.8969-108.7038 71.8222z"/><path d="m-1800.54-310.6788 108.7038-71.8222 21.2068.8632-95.0129 62.7761z"/><path d="m-1826.2366-283.9755 12.361-12.8458-2.4043-3.4582-10.421 6.8853-69.916 46.1947-11.073 17.0476z"/><path d="m-1813.8756-296.8213.7862-.8166-.9106.6379z"/><path d="m-1791.4266-312.8157 25.7843-6.046-26.1609 17.2849-21.8213 5.1166-.3755-.5398z"/><path d="m-1820.4432-306.2679-7.1053-10.2196 21.5286-5.1227z"/><path d="m-1827.5485-316.4875 7.1053 10.2196-2.8086-4.0397z"/><path d="m-1543-198.4581-96.2748 70.4581h-65.2292l-62.496-93 179-131 45 66.9642z"/><path d="m-1639.2748-128-43.7252 32-21.504-32z"/><path d="m-1504-227-39 28.5419v-86.5777z"/><path d="m-1704.504-128 21.504 32-84-125z"/><path d="m-1639.2748-128 96.2748-70.4581 39-28.5419-179 131z"/><path d="m-1543-285.0358-45-66.9642 84 125z"/><path d="m-704-1032-59-24-24 59 59 24z"/><path d="m-728-973-59-24 24-59 59 24z"/><path d="m-728-973-59-24z"/><path d="m-787-997 24-59z"/><path d="m-763-1056 59 24z"/><path d="m-704-1032-24 59z"/><path d="m-1153-864v-64z"/><path d="m-1088-929h-64z"/><path d="m-1088-863h-64z"/><path d="m-1153-928h1z"/><path d="m-1152-928v-1z"/><path d="m-1152-864h-1z"/><path d="m-1152-928v64z"/><path d="m-1152-863v-1z"/><path d="m-832-640-181-75z"/><path d="m-832-640 181-75z"/><path d="m-1010.4117-863 7.8748 19.1247 24.6336 59.8244 9.9033 24.0509z"/><path d="m-1024-896 1.7332 4.209 11.8551 28.791z"/><path d="m-696-1032 16.5649 40.229z"/><path d="m-696-1032 16.5649 40.229 24.6336 59.8244 1.2133 2.9466h-.0001l-12.7647-31z"/><path d="m-654.8015-931.9466-24.6336-59.8244-56.5649 29.771 30 57z"/><path d="m-736-962 30 57z"/><path d="m-602.5193-832 6.6298-16 19.8895-48z"/><path d="m-576-896-6.6296-16-7.0444-17z"/><path d="m-589.674-929-29.586-71.4009-31.74-76.5991 48.4807 117z"/><path d="m-696-760-14.8699 6.1229-121.1301 49.8771z"/><path d="m-736-962 56.5649-29.771 24.6336 59.8245-51.1985 26.9465z"/><path d="m-654.8015-931.9465 1.2132 2.9465h.0001l-1.2133-2.9466z"/><path d="m-640-896-13.5882-33h-.0001.0001-.0001z"/><path d="m-640-896-19.7647 48-6.5881 16h-.0001z"/><path d="m-654.8015-931.9465v-.0001l-51.1985 26.9466z"/><path d="m-736-962 56.5649-29.771z"/><path d="m-690.6323-773.0359-5.3677 13.0359 5.3676-13.0355z"/><path d="m-653.5882-929 10.0966 24.5204 2.0298 4.9295 1.4618 3.5501-13.5883-33z"/><path d="m-640-896-19.7648 48h.0001z"/><path d="m-641.4618-899.5501-2.0298-4.9295-55.5084-23.5204-25 59 59 25z"/><path d="m-724-869 59 25z"/><path d="m-1010.4117-929-13.5883 33z"/><path d="m-696-1032 42.4117 103h.0001-.0001l-1.2132-2.9465-24.6336-59.8245z"/><path d="m-653.5883-929-42.4117-103 49.4117 120 6.5883 16z"/><path d="m-641.4618-899.5501 1.4618 3.5501z"/><path d="m-653.5883-929 10.0967 24.5204-10.0966-24.5204z"/><path d="m-724-869 25-59 55.5084 23.5204 2.0298 4.9295-23.5382 55.5501z"/><path d="m-641.4618-899.5501-23.5382 55.5501z"/><path d="m-699-928 55.5084 23.5204z"/><path d="m-724-869 25-59z"/><path d="m-1643.7103-367.5538-25.6203-24.2285-204.6694 134.7823 26 25z"/><path d="m-1655.0269-378.2556 3.641 14.1612-19.2435-17.5434-11.6161-10.5899 12.9149.4454z"/><path d="m-1651.3859-364.0944 6.8594 26.6779-166.8913 110.0425-15.5629 10.2616.52-30.5236z"/><path d="m-595.8895-848 19.8895-48z"/><path d="m-589.674-929-29.5862-71.4012.0002.0003z"/><path d="m-659.7648-848 19.7648-48 19.7648 48z"/><path d="m-620.2352-848-19.7648-48-6.5883-16h63.9587l6.6296 16-19.8895 48z"/><path d="m-582.6296-912h-63.9587-.0001 13.1767 50.782z"/><path d="m-696-1032 42.4118 103 6.9998 17h.0001z"/><path d="m-620.2352-848h24.3457-63.8752-.0001z"/><path d="m-696-760 5.3677-13.0359 24.2795-58.9641 6.5881-16h-.0001z"/><path d="m-1670.6294-381.6378-21.2068-.8632 6.3292-9.8391 3.2615.1124z"/><path d="m-1644.5265-337.4165-10.5004-40.8391 11.3166 10.7018 9.0009 35.7069-6.0191 9.2019z"/><path d="m-1644.5265-337.4165-11.5957 17.6439-169.0505 111.2675-12.8234 8.4404 26.5783-27.3093z"/><path d="m-1640.7285-322.645-8.1398 12.4437-13.3046-.3647 17.6464-26.8505z"/><path d="m-710.8699-753.8771-45.1301-19.1229z"/><path d="m-731-832-25 59 45.1301 19.1229 14.8699-6.1229 20.0433-48.6765z"/><path d="m-659.7647-848-16.192 39.3235z"/><path d="m-659.7647-848-36.2353 88 36.2352-88z"/><path d="m-1088-929v66z"/><path d="m-832-1088-66.6002 27.4236-52.0097 21.4158-17.3901 7.1606z"/><path d="m-710.8699-753.8771-121.1301 49.8771z"/><path d="m-710.8699-753.8771 14.8699-6.1229-76.7299 31.5946-30.7205 12.6497-28.5496 11.7557z"/><path d="m-756-773 25-59 55.0433 23.3235-20.0433 48.6765-14.8699 6.1229z"/><path d="m-731-832 55.0433 23.3235z"/><path d="m-756-773 25-59z"/><path d="m-1697.5519-392.7556 12.0449.4155-17.1987 26.736-3.208-13.461z"/><path d="m-1697.5519-392.7556-108.468 71.1454 47.1792-11.2266 89.5101-58.9455z"/><path d="m-1656.1222-319.7726-20.1249-.9999-184.3132 120.2586 35.3876-7.9912z"/><path d="m-1676.2471-320.7725 20.1249.9999-6.0507 9.2066-15.1141-.4145-11.2926-10.4046z"/><path d="m-696-760-76.73 31.5947.0001-.0001z"/><path d="m-696-1032-72.8198-29.9847-58.8975-24.252-4.2827-1.7633z"/><path d="m-775-800-57 30 28.5496 54.2443 30.7205-12.6497 27.7299-14.5946z"/><path d="m-803.4504-715.7557-28.5496-54.2443z"/><path d="m-1013-1077-75 181z"/><path d="m-832-1152 181 75z"/><path d="m-1013-1077 149-61.7404z"/><path d="m-864-1138.7404 32-13.2596z"/><path d="m-968-1032-30.0263 72.921-12.3854 30.079z"/><path d="m-803.4504-715.7557-28.5496 11.7557z"/><path d="m-772.73-728.4053 76.73-31.5947-126.3904 52.0432-9.6096 3.9568z"/><path d="m-775-800 30 57z"/><path d="m-745-743-27.73 14.5947-30.7204 12.6496-28.5496-54.2443 57-30z"/><path d="m-745-743-27.7299 14.5946-.0001.0001z"/><path d="m-832-770 57-30z"/><path d="m-1696.5217-339.6566-10.6444-9.9143-4.9449-19.3478 6.1973-10.1464z"/><path d="m-1696.5217-339.6566 20.2746 18.8841-12.3325-.6126-14.889-13.7182-3.6975-14.4676z"/><path d="m-1696.5217-339.6566-6.184-25.9475-123.5309 81.6286-52.0851 34.4174-1.3591 30.8724z"/><path d="m-1677.287-310.9805 28.4187.7792-165.5011 108.5518-46.9187 11.4033z"/><path d="m-589.674-929-29.5862-71.4012 29.5862 71.4012 7.0444 17h-.0001z"/><path d="m-646.5884-912 6.5884 16 6.5883-16z"/><path d="m-595.8895-848 19.8895-48-6.6297-16h-50.782l-6.5883 16-19.7647 48z"/><path d="m-659.7647-848 19.7647-48-19.7648 48z"/><path d="m-696-760 36.2353-88z"/><path d="m-696-760-126.3904 52.0432z"/><path d="m-828.0243-705.637 5.6339-2.3198 22.3904-55.0432-59-24-24 59z"/><path d="m-859-787-24 59z"/><path d="m-651-1077 31.74 76.5991-.0002-.0003.0002.0003z"/><path d="m-828.0243-705.637-3.9757 1.637z"/><path d="m-859-787 59 24-22.3904 55.0432-5.6339 2.3198-54.9757-22.363z"/><path d="m-828.0243-705.637-54.9757-22.363z"/><path d="m-859-787 59 24z"/><path d="m-800-763-22.3904 55.0432z"/><path d="m-1089-928h-63z"/><path d="m-1152-864h63z"/><path d="m-1089-864v-64z"/><path d="m-832-704-52.4953-21.6157z"/><path d="m-968-760-19.2499-46.7499-23.1618-56.2501z"/><path d="m-864-776-59-24-20.3928 50.1323 58.8975 24.252z"/><path d="m-943.3928-749.8677 20.3928-50.1323z"/><path d="m-943.3928-749.8677-24.6072-10.1323z"/><path d="m-943.3928-749.8677 58.8975 24.252 52.4953 21.6157-32-13.1765-87-35.8235-17-7z"/><path d="m-640-896-6.5884-16-6.9998-17z"/><path d="m-696-760 36.2353-88h-.0001z"/><path d="m-640-896-19.7647 48h-.0001z"/><path d="m-943.3928-749.8677 20.3928-50.1323 59 24-20.4953 50.3843z"/><path d="m-923-800 59 24z"/><path d="m-864-776-20.4953 50.3843z"/><path d="m-832-704 9.6096-3.9568 126.3904-52.0432z"/><path d="m-935-864-57 30 30 57 57-30z"/><path d="m-935-864-57 30z"/><path d="m-935-864 30 57-57 30-30-57z"/><path d="m-962-777-30-57z"/><path d="m-905-807-57 30z"/><path d="m-935-864 30 57z"/><path d="m-1153-864v-64z"/><path d="m-1088-929h-64z"/><path d="m-1088-863h-64z"/><path d="m-1153-928h1z"/><path d="m-1152-928v-1z"/><path d="m-1152-864h-1z"/><path d="m-1152-928v64z"/><path d="m-1152-863v-1z"/><path d="m-1074.3259-863 41.9901 101.3358 19.3358 46.6642z"/><path d="m-996.0313-707.9688 164.0313 67.9688-181-75z"/><path d="m-1010.4117-863-.1209-.2935-7.829-19.0132-5.6384-13.6933z"/><path d="m-987.2499-806.7499 19.2499 46.7499-46.7501-19.25z"/><path d="m-1014.7501-779.25 63.7501 26.25-45.0313 45.0312-16.9687-7.0312-19.3358-46.6642z"/><path d="m-940-903-59-25-19.3616 45.6933 7.829 19.0132 45.5326 19.2935z"/><path d="m-1010.5326-863.2935 45.5326 19.2935z"/><path d="m-1018.3616-882.3067 19.3616-45.6933z"/><path d="m-651-715-76.5988 31.7396.0002-.0001z"/><path d="m-1018.3616-882.3067-5.6384-13.6933z"/><path d="m-1010.4117-863-.1209-.2935z"/><path d="m-1010.5326-863.2935-7.829-19.0132 19.3616-45.6933 59 25-25 59z"/><path d="m-940-903-25 59z"/><path d="m-999-928 59 25z"/><path d="m-595.8895-848-6.6298 16-48.4807 117z"/><path d="m-576-896-19.8895 48z"/><path d="m-908-995-59-29-25 67 59 29z"/><path d="m-992-957 59 29z"/><path d="m-1074.3259-863-13.6741-33z"/><path d="m-1074.3259-863 41.9898 101.3356.0003.0002z"/><path d="m-727.5987-683.2604.0001-.0001-.0002.0001-104.4012 43.2604z"/><path d="m-1010.4117-929-13.5883 33z"/><path d="m-864-717.1765-87-35.8235z"/><path d="m-864-717.1765 32 13.1765z"/><path d="m-1024-896 5.6384 13.6933 7.829 19.0132.1209.2935z"/><path d="m-992-957 25-67 59 29-25 67z"/><path d="m-908-995-25 67z"/><path d="m-967-1024 59 29z"/><path d="m-992-957 25-67z"/><path d="m-832-640-164.0313-67.9688z"/><path d="m-987.2499-806.7499-23.1618-56.2501z"/><path d="m-1010.4117-863 23.1618 56.2501 19.2499 46.7499z"/><path d="m-1010.4117-863-13.5883-33z"/><path d="m-1014.7501-779.25 46.7501 19.25-19.2499-46.7499z"/><path d="m-1014.7501-779.25 27.5002-27.4999z"/><path d="m-951-753-17-7-46.7501-19.25-17.586 17.5856 19.3361 46.6644 16.9687 7.0312z"/><path d="m-1032.3361-761.6644 17.586-17.5856-17.5857 17.5858z"/><path d="m-951-753-45.0313 45.0312z"/><path d="m-1088-929v66z"/><path d="m-925.1867-1049.629-42.8133 17.629z"/><path d="m-925.1867-1049.629 66.0414-27.1935 27.1453-11.1775-136 56z"/><path d="m-832-1088 23.4229 9.6446 66.412 27.3461 46.1651 19.0093z"/><path d="m-832-1025-27.1453-51.8225-66.0414 27.1935 30.1867 57.629z"/><path d="m-859.1453-1076.8225 27.1453 51.8225-27.1452-51.8226z"/><path d="m-832-1088-27.1453 11.1775.0001-.0001z"/><path d="m-859.1452-1076.8226 27.1452 51.8226-63 33-30.1867-57.629z"/><path d="m-832-1025-63 33z"/><path d="m-895-992-30.1867-57.629z"/><path d="m-808.5771-1078.3554-23.4229-9.6446z"/><path d="m-696-1032 28.4076 68.9899 14.0041 34.0101h.0001z"/><path d="m-808.5771-1078.3554-23.4229 49.3554 68 24 21.8349-46.0093z"/><path d="m-742.1651-1051.0093-21.8349 46.0093z"/><path d="m-1088-896 13.6741 33z"/><path d="m-1013-1077-75 181z"/><path d="m-832-640-164.0313-67.9688-16.9687-7.0312z"/><path d="m-832-1152 181 75z"/><path d="m-1013-1077 149-61.7404z"/><path d="m-864-1138.7404 32-13.2596z"/><path d="m-968-1032-42.4117 103z"/><path d="m-589.674-929 7.0443 17 6.6297 16z"/><path d="m-589.674-929-29.5861-71.401.0001.0001-.0002-.0003z"/><path d="m-696-1032-46.1651-19.0093z"/><path d="m-764-1005-68-24 23.4229-49.3554 66.412 27.3461z"/><path d="m-832-1029 23.4229-49.3554z"/><path d="m-764-1005-68-24z"/><path d="m-619.2601-1000.401-31.7399-76.599 31.74 76.5991z"/><path d="m-698.2015-1032.9066 2.2015.9066-46.1651-19.0093-66.412-27.3461-23.4229-9.6446z"/><path d="m-832-1088 133.7985 55.0934z"/><path d="m-653.5883-929h.0001l12.0394 29.2387.9615 2.3351.5873 1.4262-13.5882-33z"/><path d="m-698.2015-1032.9066-53.7985 28.9066 36 67 48.4076-26.0101-28.4076-68.9899z"/><path d="m-667.5924-963.0101-48.4076 26.0101z"/><path d="m-1089-928h-63z"/><path d="m-1152-864h63z"/><path d="m-1089-864v-64z"/><path d="m-667.5924-963.0101 11.5924 28.153 2.4117 5.8571z"/><path d="m-667.5924-963.0101-48.4076 26.0101-36-67 53.7985-28.9066 2.2015.9066z"/><path d="m-716-937-36-67z"/><path d="m-752-1004 53.7985-28.9066z"/><path d="m-832-1088-27.1452 11.1774-4.8548 1.9991z"/><path d="m-696-760-20.9559 8.6289-115.0441 47.3711z"/><path d="m-651.932-867.0223 11.3447-30.4039-.9615-2.3351-57.4512-28.2387-25 67 57.8748 28.447z"/><path d="m-640-896-11.932 28.9777z"/><path d="m-724-861 57.8748 28.447z"/><path d="m-640.5873-897.4262-11.3447 30.4039z"/><path d="m-659.7647-848-36.2353 88 36.2352-88z"/><path d="m-656-934.8571 2.4117 5.8571h.0001-.0001z"/><path d="m-641.5488-899.7613-12.0395-29.2387-2.4117-5.8571v-.0001l16 38.8572z"/><path d="m-640.5873-897.4262.5873 1.4262z"/><path d="m-653.5883-929 12.0395 29.2387-12.0394-29.2387z"/><path d="m-724-861 25-67 57.4512 28.2387.9615 2.3351-11.3447 30.4039-14.1932 34.4693z"/><path d="m-666.1252-832.553 14.1932-34.4693 11.932-28.9777-39.5294 96-16.4706 40z"/><path d="m-666.1252-832.553-29.8748 72.553z"/><path d="m-699-928 57.4512 28.2387z"/><path d="m-724-861 25-67z"/><path d="m-696-760-9.5881 3.9481z"/><path d="m-832-704-32-13.1765z"/><path d="m-743-832-25 59 51.0441 21.6289 11.3678-4.6808 21.5881-50.9481z"/><path d="m-716.9559-751.3711-51.0441-21.6289z"/><path d="m-716.9559-751.3711-115.0441 47.3711z"/><path d="m-716.9559-751.3711 20.9559-8.6289-136 56z"/><path d="m-768-773 25-59 59 25-21.5881 50.9481-11.3678 4.6808z"/><path d="m-684-807-21.5881 50.9481z"/><path d="m-743-832 59 25z"/><path d="m-768-773 25-59z"/><path d="m-1153-864v-64z"/><path d="m-1088-929h-64z"/><path d="m-1088-863h-64z"/><path d="m-1153-928h1z"/><path d="m-1152-928v-1z"/><path d="m-1152-864h-1z"/><path d="m-1152-928v64z"/><path d="m-1152-863v-1z"/><path d="m-656-934.8571-11.5924-28.153-28.4076-68.9899z"/><path d="m-651-715-76.5986 31.7395-.0001.0001.0001-.0001z"/><path d="m-651-715 55.1105-133z"/><path d="m-798-791-57 30 28.7532 54.631 26.4096-10.8745 31.8372-16.7565z"/><path d="m-826.2468-706.369-28.7532-54.631 28.7531 54.631z"/><path d="m-595.8895-848 19.8895-48z"/><path d="m-799.837-717.2437-.0002.0002 103.8372-42.7565z"/><path d="m-826.2469-706.369-5.7531 2.369 5.7532-2.369z"/><path d="m-768-734-31.837 16.7563-26.4099 10.8747-28.7531-54.631 57-30z"/><path d="m-768-734-31.8372 16.7565.0002-.0002z"/><path d="m-798-791 30 57z"/><path d="m-855-761 57-30z"/><path d="m-832-704 32.163-13.2437 103.837-42.7563z"/><path d="m-696-760 16.4706-40z"/><path d="m-1013-715-19.3361-46.6644-41.9898-101.3356z"/><path d="m-727.5987-683.2604.0001-.0001-.0001.0001-104.4013 43.2604z"/><path d="m-727.5987-683.2604.0001-.0001 76.5986-31.7395-76.5986 31.7395z"/><path d="m-864-1074.8235-61.1867 25.1945-42.8133 17.629z"/><path d="m-864-1074.8235 22.3904-9.2196 9.6096-3.9569z"/><path d="m-1010.4117-929-13.5883 33z"/><path d="m-1010.4117-929 1.1663-2.8328 24.399-59.2547 16.8464-40.9125z"/><path d="m-696-1032-2.2015-.9066-133.7985-55.0934z"/><path d="m-864-717.1765-20.4953-8.4392-58.8971-24.2519-24.6076-10.1324 17 7z"/><path d="m-864-717.1765 32 13.1765-52.4953-21.6157z"/><path d="m-656-934.8572v.0001l16 38.8571z"/><path d="m-696-1032 29.647 72 10.353 25.1429v-.0001.0001z"/><path d="m-864-776-59-24-20.3924 50.1324 58.8971 24.2519z"/><path d="m-943.3924-749.8676 20.3924-50.1324-20.3928 50.1323z"/><path d="m-943.3928-749.8677-24.6072-10.1323 24.6076 10.1324z"/><path d="m-943.3928-749.8677 58.8975 24.252 52.4953 21.6157-32-13.1765-104-42.8235z"/><path d="m-968-760-9.3192-22.6322-36.3957-88.3898-10.2851-24.978 13.5883 33z"/><path d="m-943.3928-749.8677 20.3928-50.1323 59 24-20.4953 50.3843z"/><path d="m-923-800 59 24z"/><path d="m-864-776-20.4953 50.3843z"/><path d="m-1024-896 13.5883-33z"/><path d="m-968-760-9.3192-22.6323v.0001z"/><path d="m-967-912-46.7149 40.978 36.3957 88.3898 40.3192-35.3678z"/><path d="m-1013.7149-871.022 46.7149-40.978z"/><path d="m-1088-929v66z"/><path d="m-1013.7149-871.022-10.2851-24.978z"/><path d="m-937-818-40.3192 35.3677-36.3957-88.3897 46.7149-40.978z"/><path d="m-967-912 30 94z"/><path d="m-937-818-40.3192 35.3678v-.0001z"/><path d="m-1013-715-61.3259-148-13.6741-33z"/><path d="m-1013-1077-41.4069 99.9287-2.9764 7.1831-22.8512 55.1476-7.7655 18.7406z"/><path d="m-832-640-181-75z"/><path d="m-832-1152 181 75z"/><path d="m-832-640 63.5596-26.3369 5.3271-2.2074 27.1133-11.2349 8.4013-3.4811.0001-.0002-.0001.0001z"/><path d="m-968-1032 104-42.8235z"/><path d="m-864-1138.7404-122.4534 50.7404-26.5466 11z"/><path d="m-864-1138.7404 32-13.2596z"/><path d="m-576-896-19.8895 48-55.1105 133z"/><path d="m-589.674-929 13.674 33z"/><path d="m-651-1077 31.7399 76.599 29.5861 71.401z"/><path d="m-928-967-56.8464-24.0875-24.399 59.2547 56.2454 23.8328z"/><path d="m-1009.2454-931.8328 56.2454 23.8328z"/><path d="m-984.8464-991.0875 56.8464 24.0875z"/><path d="m-1010.4117-929 1.1663-2.8328z"/><path d="m-984.8464-991.0875 16.8464-40.9125z"/><path d="m-1009.2454-931.8328 24.399-59.2547 56.8464 24.0875-25 59z"/><path d="m-928-967-25 59z"/><path d="m-894-1056-57 30 30 57 57-30z"/><path d="m-1089-928h-63z"/><path d="m-1152-864h63z"/><path d="m-1089-864v-64z"/><path d="m-864-999-57 30-30-57 57-30z"/><path d="m-864-999-57 30z"/><path d="m-921-969-30-57z"/><path d="m-951-1026 57-30z"/><path d="m-894-1056 30 57z"/><path d="m-841.6096-1084.0431-22.3904 9.2196z"/><path d="m-832-1088 44.0828 18.1518 91.9172 37.8482z"/><path d="m-835.9756-1086.363 54.9756 22.363z"/><path d="m-781-1064-54.9756-22.363-5.634 2.3199-22.3904 55.0431 59 24z"/><path d="m-832-1088-3.9756 1.637z"/><path d="m-805-1005-59-24 22.3904-55.0431 5.634-2.3199 54.9756 22.363z"/><path d="m-805-1005-59-24z"/><path d="m-864-1029 22.3904-55.0431z"/><path d="m-781-1064-24 59z"/><path d="m-704-1032-59-24-24 59 59 24z"/><path d="m-1153-864v-64z"/><path d="m-1088-929h-64z"/><path d="m-1088-863h-64z"/><path d="m-1153-928h1z"/><path d="m-1152-928v-1z"/><path d="m-1152-864h-1z"/><path d="m-1152-928v64z"/><path d="m-1152-863v-1z"/><path d="m-728-973-59-24 24-59 59 24z"/><path d="m-787-997 24-59z"/><path d="m-728-973-59-24z"/><path d="m-704-1032-24 59z"/><path d="m-763-1056 59 24z"/><path d="m-696-760-39.1 16.1-50.8581 20.9415-46.0419 18.9585z"/><path d="m-679-976-57 39 30 73 57-39z"/><path d="m-736-937 30 73z"/><path d="m-679.5294-800-10.2364 24.8599-6.2342 15.1401z"/><path d="m-656-857.1428-16 38.8572-7.5294 18.2856 39.5294-96z"/><path d="m-736-937 57-39z"/><path d="m-736-937 57-39 30 73-57 39z"/><path d="m-649-903-57 39z"/><path d="m-679-976 30 73z"/><path d="m-679.5294-800h-56.4706 1.7878 14.2122z"/><path d="m-672-818.2856-7.5294 18.2856z"/><path d="m-679.5294-800 7.5294-18.2856v-77.7144h-64v96z"/><path d="m-672-896h-48-16z"/><path d="m-651-715 74-178.5867 1-2.4133z"/><path d="m-666.353-960-29.647-72z"/><path d="m-666.353-960 10.353 25.1429z"/><path d="m-656-934.8571-10.353-25.1429h10.353z"/><path d="m-720-800h-14.2122l44.4464 24.8599 10.2364-24.8599z"/><path d="m-720-851.56-16 50.56v-95h16z"/><path d="m-734.2122-800h-1.7878v-1z"/><path d="m-720-851.56v-44.44h48v77.714 18.286h-7.5294-40.4706z"/><path d="m-672-800v-18.286l16-38.857v57.143z"/><path d="m-736-801 46.2342 25.8599z"/><path d="m-696-760 6.2342-15.1401z"/><path d="m-736-801v1-96z"/><path d="m-656-857.143v.0002l16-38.8572z"/><path d="m-656-857.143-16 38.857v.0004l16-38.8572z"/><path d="m-672-896v77.7144-.0004z"/><path d="m-656-800v-57.143.0002z"/><path d="m-736-801 16-50.5605v51.5605h-14.2122z"/><path d="m-720-800h40.4706l-10.2364 24.8599-44.4464-24.8599z"/><path d="m-679.5294-800h23.5294z"/><path d="m-679.5294-800h-40.4706 40.4706 7.5294 16z"/><path d="m-720-851.5605v.0005 51.56z"/><path d="m-736-801 16-50.56v-.0005z"/><path d="m-696-760-39.1 16.1z"/><path d="m-785.9581-722.9585-42.0419-42.0415 32.0662 32.0662 9.9755 9.9754z"/><path d="m-749-844-14.3398 14.3398-64.6602 64.6602z"/><path d="m-749-844-79 79 42.0419 42.0415 50.8581-20.9415 43.1-43.1z"/><path d="m-656-712.9282v-.0001l5-2.0717-5 2.0717z"/><path d="m-727.5987-683.2603-8.4013 3.4811 43.5068-18.0277 36.4932-15.1214v.0001z"/><path d="m-727.5987-683.2603 71.5987-29.6679v-.0001l-71.5986 29.6678z"/><path d="m-864-1074.8235 32-13.1765-9.6096 3.9569z"/><path d="m-986.4534-1088h-.0006l-26.546 11z"/><path d="m-1010.4117-929 42.4117-103-16.8464 40.9125-24.399 59.2547z"/><path d="m-864-864v-210.8235l-104 42.8235-42.4117 103-13.5883 33 18.6021 45.1765h141.3979z"/><path d="m-1005.3979-850.8235 37.3979 90.8235 104 42.8235v-52.1705-81.4765z"/><path d="m-796.0535-718.8016 4.8608-2.0015 2.87 5.3413-4.6773 2.4618z"/><path d="m-763.3398-829.6602 32.9315 61.2891-3.2996 1.7847-62.2259 33.6526-32.0662-32.0662z"/><path d="m-730.4083-768.3711-32.9315-61.2891 14.3398-14.3398 57 57-27.2343 27.2344-8.7711-4.1336z"/><path d="m-643.5276-890.3096-2.4724 5.3096-10 21.4754v6.3818l13.0687-31.7384z"/><path d="m-795.9338-732.9338-1.3768.7446 6.1179 11.3861 5.2344-2.1553z"/><path d="m-679.5294-800h-6.0506l-20.5728 44.1805 10.1528-4.1805z"/><path d="m-801.8174-729.7522-16.1826 8.7522-23.8983 12.9242 9.8983 4.0758 35.9465-14.8016z"/><path d="m-841.8983-708.0758 23.8983-12.9242-30-57-16 8.653v52.1705z"/><path d="m-735.1-743.9 26.4346-10.8848-10.5689-4.9808z"/><path d="m-656-889.7129 10 4.7129 2.4724-5.3096-9.4724-22.6904-3 1.2712z"/><path d="m-733.7079-766.5864 3.2996-1.7847 2.4029 4.4719z"/><path d="m-708.6654-754.7848 2.5126-1.0347-.8472 1.8195z"/><path d="m-730.2917-931.815-2.7083 5.815 6.3937 3.0129z"/><path d="m-704.0662-1035.3214 31.4447 75.3214h6.2685l-29.647-72z"/><path d="m-787.9172-1069.8482 32.9172 78.8482 59-25-8.0662-19.3214z"/><path d="m-755-991-32.9172-78.8482-44.0828-18.1518-32 13.1765v210.8235h102.1298l28.8702-62 1.397-3 1.3113-2.815z"/><path d="m-864-864v13.1765 81.4765l16-8.653 11.0945-6 50.5012-27.312 24.5341-52.688z"/><path d="m-656-934.8571v14.672l13.0687 31.3039 2.9313-7.1188z"/><path d="m-755-991 59-25z"/><path d="m-726.6063-922.9871-6.3937-3.0129 6.3939 3.0133z"/><path d="m-656-934.8571v-25.1429 39.8141.0008z"/><path d="m-656-889.7129v-22.0159.0001 22.0161z"/><path d="m-653-913-3-7.1851v-.0008z"/><path d="m-656-911.7288 3-1.2712-3 1.2713z"/><path d="m-672.6215-960-23.3785-56 23.3786 56z"/><path d="m-656-960h-10.353-6.2685.0001z"/><path d="m-685.58-800h6.0506 23.5294-29.5801z"/><path d="m-656-800v-57.1428-6.3818.0003z"/><path d="m-646-885-10 21.4757v-.0003z"/><path d="m-706.1528-755.8195 20.5728-44.1805h-.0001.0003l-21.4202 46z"/><path d="m-797.3106-732.1892h.0001l8.9878 16.7274z"/><path d="m-733.7079-766.5864h-.0002l-2.2919 1.2396-61.3105 33.1576h-.0001z"/><path d="m-785.9583-722.9584-46.0417 18.9584 46.0419-18.9585z"/><path d="m-968-760-37.3979-90.8235-18.6021-45.1765 10.2851 24.978 36.3957 88.3897z"/><path d="m-656-960h-10.353z"/><path d="m-656-960v25.1429z"/><path d="m-640-896-16 38.8572v-.0002z"/><path d="m-679.5294-800-16.4706 40 6.2342-15.1401z"/><path d="m-692-787-43.1 43.1z"/><path d="m-749-844 57 57z"/><path d="m-692.4932-697.8069h.0001l36.4931-15.1214z"/><path d="m-728.006-763.8992-5.7021-2.6872h.0002l26.7079 12.5864z"/><path d="m-733.7081-766.5864 5.7021 2.6872 8.006 14.8992-16 8.597v-24.9438z"/><path d="m-797.3105-732.1892 61.3105-33.1576v24.9438l-51 27.403z"/><path d="m-720-749-8.006-14.8992.0004-.0003z"/><path d="m-787-713 13.0277-7h-.0001z"/><path d="m-788.3227-715.4618-.0001-.0001-4.6772 2.4619z"/><path d="m-1088-929v66z"/><path d="m-848-778v58-64z"/><path d="m-848-778 11.0944-6h.0001z"/><path d="m-836.9056-784-11.0944 6v-6z"/><path d="m-796.6842-720-5.1329-9.7524-.0003.0002z"/><path d="m-736-720v-20.4028z"/><path d="m-773.9724-720 37.9724-20.4028v20.4028z"/><path d="m-736-740.4028-37.9724 20.4028h.0001l37.9723-20.403z"/><path d="m-819.8495-720 18.0324-9.7524 5.1329 9.7524z"/><path d="m-848-778 30 57-1.8495 1h-28.1505z"/><path d="m-818-721-30-57z"/><path d="m-801.8171-729.7524-16.1829 8.7524 16.1826-8.7522z"/><path d="m-656-889.7126v.0001l10 4.7125-10-4.7129z"/><path d="m-656-889.7126-77-36.2874 1.5305.7213 75.4695 35.5662z"/><path d="m-653-913-3-7.1859v8.4572z"/><path d="m-656-911.7287v-8.4572-39.8141h-16.6214-69.4369l15.4522 37.0133 70.6061 33.2741z"/><path d="m-755-991 12.9417 31h69.4369l-23.3786-56z"/><path d="m-742.0583-960-12.9417-31 24.7083 59.185 3.6854 8.8279.0002.0004z"/><path d="m-656-863.5243-29.5801 63.5243h29.5801z"/><path d="m-656-863.5243 10-21.4757-39.5798 85h-.0003z"/><path d="m-986.454-1088h.0006l122.4534-50.7404v.0001z"/><path d="m-992-1088h-1l-1.9485 3.52 1.2976-.5378z"/><path d="m-993-1088h1z"/><path d="m-994.9485-1084.48 1.9485-3.52-1.9487 3.5203z"/><path d="m-1088-896 61.3344 148.0204 13.6656 32.9796z"/><path d="m-656-1060.1764 15 11.1764h-15z"/><path d="m-651-1077 11.6022 28h-.6022l-51-39-15.9116-12.1677z"/><path d="m-641-1049h1 .6022l.7157 1.7271 49.008 118.2729h-66.3259v-120z"/><path d="m-800-1152h-32l2.4133 1h29.5867z"/><path d="m-864-1138.7403 29.5867-12.2597h4.8266l116.455 48.2549 21.1317 15.7451 25.2194 18.791-64.8225 139.209h-116.3969-16z"/><path d="m-729.46-929 71.5883-132.571 1.8717 1.3946v11.1764 120z"/><path d="m-692-1087-21.1317-15.7451 6.2201 2.5774 15.9116 12.1677z"/><path d="m-731.6031-929 64.8225-139.209 8.9089 6.638-71.5883 132.571-.54 1-1.4695 2.7213-1.5305-.7213z"/><path d="m-832-1152h-32v1h29.5867z"/><path d="m-576-928h-1v29.5867l1 2.4133z"/><path d="m-577-893.5867v29.5867h1v-32z"/><path d="m-645.3893-887.5748 9.5764-5.179-4.1871 7.7538z"/><path d="m-656-929h66.3259l3.8228 9.2257-58.7517 31.7743-.7863.4252-84.6107-40.4252.54-1z"/><path d="m-640-885 4.1871-7.7538 49.9616-27.0205 8.8513 21.361v4.8266l-74 178.5867-41.493 17.1934-21.7898-40.5533 30.7059-65.9421z"/><path d="m-646-885-10-4.7125-75.4695-35.5662-13.5549 25.1017-26.0945 56.0389 16.1149 29.9919 61.004 29.1462 10.4231-19.302z"/><path d="m-608-800h-1l-26 58 1 1z"/><path d="m-771.1189-844.1381-8.5217 18.221 24.6366 11.7709z"/><path d="m-848-929h116.3969l-1.3969 3-12.0244 25.823-38.9756 72.177-11.7367 21.7346-41.1686 22.2654h-11.0947z"/><path d="m-864-914.7403v-14.2597h16v145 64 15h-16z"/><path d="m-848-705v58.3701l-16-6.6297v-43.7404-8z"/><path d="m-779.6209-825.88-6.7834 14.5675-9.3324 5.0471 11.7367-21.7346z"/><path d="m-736-679.7791v-40.2209-20.4028l16-8.5972 27.507 51.1934z"/><path d="m-720-749-8.0056-14.8995 21.0056 9.8995-7.2828 15.6401z"/><path d="m-800-641h-29.5867l-2.4133 1h32z"/><path d="m-787-713 13.0276-7h37.9724v40.2209l-27.1132 11.2348z"/><path d="m-768.4403-666.3368-24.5597-46.6632 4.6772-2.4619 25.2096 46.9176z"/><path d="m-796.6841-720 28.2438 53.6632-61.1464 25.3368h-4.8266l-13.5867-5.6299v-58.3701-15z"/><path d="m-834.4133-641h-29.5867v1h32z"/><path d="m-864-1138.7403v209.7403 14.2597l-216.2345-.0003 22.8512-55.1476 34.3833-62.1118 29.3489-53.0174z"/><path d="m-864-914.7403v209.7403 8h-96l-51-39-15.6656-11.9796-61.3344-148.0204 7.7655-18.7406z"/><path d="m-1057.3833-969.8882 2.9764-7.1831 30.4069-54.9287h1z"/><path d="m-1024-1032-30.4069 54.9287 41.4069-99.9287 18.0513-7.4797z"/><path d="m-969.5601-697-43.4399-18-12.4353-30.0105 13.4353 10.0105 51 38z"/><path d="m-1012-735-13.4353-10.0105-1.2303-2.9691 15.6656 11.9796z"/><path d="m-969.5601-697h8.5601 1 96v43.7404z"/><path d="m-640-1049-51-39z"/><path d="m-609-800-26 58z"/><path d="m-784-828 90 43z"/><path d="m-645.3893-887.5748 5.3893 2.5748-90-43z"/><path d="m-992-1088h-1z"/><path d="m-969.5601-697 105.5601 43.7404 32 13.2596-181-75z"/><path d="m-651-1077-55.9116-23.1677-6.2201-2.5774-116.455-48.2549-2.4133-1z"/><path d="m-651-715-41.4931 17.1931.0001.0003z"/><path d="m-736-679.7791 43.507-18.0275-.0001-.0003h-.0001l-43.5068 18.0277z"/><path d="m-763.1132-668.5443 27.1132-11.2348v-.0001l-27.1133 11.2349z"/><path d="m-768.4403-666.3368 5.3271-2.2075h-.0001l-5.3271 2.2074z"/><path d="m-832-640 2.4133-1 61.1464-25.3368-.0001-.0001z"/><path d="m-993.6511-1085.0174.0002-.0004 7.1969-2.9822z"/><path d="m-1013-1077 18.0515-7.48-.0002.0003z"/><path d="m-832-1152-32 13.2597v-.0001z"/><path d="m-992-1088-1.6509 2.9822-.0002.0004z"/><path d="m-576-896-13.6741-33h.0001z"/><path d="m-589.6741-929-49.008-118.2729-12.3179-29.7271 61.326 148z"/><path d="m-795.7367-806.2654 9.3324-5.0471v.0005l-50.5012 27.312h-.0001.0003z"/><path d="m-836.9053-784h-.0003-11.0944z"/><path d="m-786.4043-811.3125 15.2854-32.8256 38.1189-81.8619-53.4043 114.688z"/><path d="m-793-713-3.6841-7h-.0001z"/><path d="m-788.3228-715.4619.0001.0001 1.3227 2.4618z"/><path d="m-728.0056-763.8995-.0004.0003 21.006 9.8992z"/><path d="m-736-740.4028v-.0002l16-8.597z"/><path d="m-773.9724-720h37.9724z"/><path d="m-848-720h28.1505 23.1653.0001z"/><path d="m-784-828 38.9756-72.177 13.5549-25.1017 1.4695-2.7213z"/><path d="m-640-885-54 100-90-43 54-100z"/><path d="m-640-885-43.5769 80.698-10.4231 19.302z"/><path d="m-1089-928h-63z"/><path d="m-1152-864h63z"/><path d="m-1089-864v-64z"/><path d="m-1088-863v-1-64-1z"/><path d="m-1153-864v-64z"/><path d="m-1088-929h-64z"/><path d="m-1088-863h-64z"/><path d="m-1153-928h1z"/><path d="m-1152-928h63z"/><path d="m-1152-928v-1z"/><path d="m-1152-864h-1z"/><path d="m-1152-928v64z"/><path d="m-1152-863v-1z"/><path d="m-832-640h32-32-32z"/><path d="m-1088-864v-64z"/><path d="m-1026.6656-747.9796-61.3344-148.0204 75 181z"/><path d="m-961-697 10.7242 7.9907 1.5827.6558-3.1211-2.3867-8.1858-6.2598z"/><path d="m-1026.6656-747.9796 1.2303 2.9691 13.4353 10.0105 1-1z"/><path d="m-1012-735-13.4353-10.0105 12.4353 30.0105 62.7242 25.9907z"/><path d="m-994.9487-1084.4799 1.9487-3.5201h1l-1.651 2.9825z"/><path d="m-1024-1032-30.4069 54.9285-2.9765 7.1836 34.3834-62.1121z"/><path d="m-1024-1032 29.0513-52.4799-18.0513 7.4799-41.4069 99.9285z"/><path d="m-864-928v-210.7402l-129.651 53.7227-29.349 53.0175-34.3834 62.1121-22.8513 55.1477h216.2347z"/><path d="m-1080.2347-914.7402-7.7653 18.7402 61.3344 148.0204 15.6656 11.9796 51 39 8.1858 6.2598h87.8142v-173.2598-50.7402z"/><path d="m-951.8142-690.7402 3.1211 2.3867 84.6931 35.0937v-37.4804z"/><path d="m-634-741-1-1 26-58h1z"/><path d="m-832-640h-32v-1h29.5868z"/><path d="m-576-864h-1v-29.5867l1-2.4133z"/><path d="m-800-690.7402v-173.2598h-64v173.2598 37.4804l29.5868 12.2598h4.8265l29.5867-12.2596z"/><path d="m-577-898.4133v-29.5867h1v32z"/><path d="m-800-640h-32l2.4133-1h29.5867z"/><path d="m-834.4133-1151h-29.5867v-1h32z"/><path d="m-800-1138.7403-29.5867-12.2597h-4.8266l-29.5867 12.2598v210.7402h64z"/><path d="m-638.6821-1047.2729-2.3179-1.7271-51-38-21.1319-15.7453-86.8681-35.995v210.7403 13.2597h216.2347z"/><path d="m-800-914.7403v50.7403 173.2598h90.453l58.547-24.2598 74-178.5867v-4.8266l-6.7653-16.327z"/><path d="m-800-690.7402v37.4806l90.453-37.4806z"/><path d="m-691-1088-15.9117-12.1678-6.2202-2.5775 21.1319 15.7453z"/><path d="m-638.6821-1047.2729-.4364-1.053-.8815-.6741h-1z"/><path d="m-639.1185-1048.3259-11.8815-28.6741-55.9117-23.1678z"/><path d="m-800-1151h-29.5867l-2.4133-1h32z"/><path d="m-832-1152-32 13.2598-149 61.7402z"/><path d="m-864-928v13.2598 50.7402-50.7402z"/><path d="m-800-864v-50.7403-13.2597 13.2597z"/><path d="m-829.5867-641-2.4133 1 32-13.2596 149-61.7404z"/><path d="m-1080.2347-914.7402 25.8278-62.3313 41.4069-99.9285-67.2347 162.2598-7.7653 18.7402z"/><path d="m-576-896v-32 32 32z"/><path d="m-832-1152h-32 32 32z"/><path d="m-864-640v-1z"/><path d="m-864-1151v-1z"/><path d="m-576-928h-1z"/><path d="m-800-1152v1z"/><path d="m-640-1049h-1z"/><path d="m-692-1087 1-1z"/><path d="m-641-1049-15-11.1764-10.7806-8.0326-25.2194-18.791z"/><path d="m-834.4133-1151h4.8266 29.5867-29.5867-4.8266-29.5867z"/><path d="m-800-641v1z"/><path d="m-577-928v29.5867 4.8266 29.5867-29.5867-4.8266z"/><path d="m-577-864h1z"/><path d="m-608-800-26 59z"/><path d="m-608-800h-1z"/><path d="m-634-741-1-1z"/><path d="m-829.5867-641h-4.8265-29.5868 29.5867 4.8266 29.5867z"/><path d="m-1023-1032h-1z"/><path d="m-994.9487-1084.4799-29.0513 52.4799 29.0513-52.4797 1.9487-3.5203z"/><path d="m-993.651-1085.0175 1.651-2.9825-31 56z"/><path d="m-960-697h-1z"/><path d="m-1011-736 51 39z"/><path d="m-1012-735 1-1z"/><path d="m-961-697-51-38z"/><path d="m-1088-928v-1z"/><path d="m-1013-1077 149-61.7402v210.7402 13.2598h-216.2347z"/><path d="m-864-914.7402v50.7402 173.2598h-90.453l-58.547-24.2598-75-181 7.7653-18.7402z"/><path d="m-864-690.7402v37.4804l-90.453-37.4804z"/><path d="m-864-653.2598v-37.4804-173.2598h64v173.2598 37.4806l-32 13.2596z"/><path d="m-864-1138.7402 32-13.2598 32 13.2597v210.7403h-64z"/><path d="m-800-928v-210.7403l149 61.7403 67.2347 162.2597h-216.2347z"/><path d="m-583.7653-914.7403 7.7653 18.7403-75 181-58.5465 24.2598h-90.4535v-173.2598-50.7403z"/><path d="m-709.5465-690.7402-90.4535 37.4806v-37.4806z"/><path d="m-800-1138.7403-32-13.2597 2.4133 1 29.5867 12.2597 86.8681 35.995 6.2202 2.5775 55.9117 23.1678z"/><path d="m-954.453-690.7402 122.453 50.7402-118.2758-49.0093-62.7242-25.9907z"/><path d="m-583.7653-914.7403-67.2347-162.2597 11.8815 28.6741.4364 1.053 54.9168 132.5326 7.7653 18.7403z"/><path d="m-800-928h-64z"/><path d="m-576-896-1 2.4133-74 178.5867z"/><path d="m-864-864h64z"/><path d="m-1089-928h-63 64z"/><path d="m-1152-928h-1z"/><path d="m-1089-864h-63z"/><path d="m-1152-864v-64z"/><path d="m-1088-864h-1v-64h1z"/><path d="m-1089-928v64z"/><path d="m-1152-864v1z"/><path d="m-1088-863v-1z"/><path d="m-1088-928v64z"/><path d="m-1088-864v-64z"/><path d="m-1152-864h-1v-64h1z"/><path d="m-1152-928v-1h64v1z"/><path d="m-1088-928h-64v64h64z"/><path d="m-1088-864h-64v-64h64z"/><path d="m-1088-863h-64v-1h64z"/><path d="m-1153-928v64z"/><path d="m-1152-863h64z"/><path d="m-1152-929v1z"/><path d="m-1152-864h63 1z"/><path d="m-1153-864h1z"/></g></defs><path d="m-2298-2041h2675v2226h-2675z" fill="#fff"/><g stroke="#000"><use fill="none" stroke-miterlimit="0" stroke-width="15" xlink:href="#a"/><use fill="#fff" xlink:href="#a"/></g></svg>