<?xml version="1.0" encoding="utf-8" ?>
<svg baseProfile="tiny" height="100%" version="1.2" viewBox="-2298.0 -2041.0 2675.0 2226.0" width="100%" xmlns="http://www.w3.org/2000/svg" xmlns:ev="http://www.w3.org/2001/xml-events" xmlns:xlink="http://www.w3.org/1999/xlink"><defs><g id="bsp_ref"><polygon points="192,-928 192,-928 192,-865 192,-864 192,-864" /><polygon points="-1088,-928 -1088,-928 -1088,-864 -1088,-864" /><polygon points="-1088,-864 -1088,-864 -1088,-928 -1088,-928" /><polygon points="128,-864 128,-864 128,-865 128,-928 128,-928" /><polygon points="192,-864 128,-864 128,-928 192,-928" /><polygon points="192,-864 192,-864 128,-864 128,-864" /><polygon points="-864,-864 -1088,-864 -1088,-928 -864,-928" /><polygon points="-640,-864 -864,-864 -864,-928 -640,-928" /><polygon points="-416,-864 -640,-864 -640,-928 -416,-928" /><polygon points="-192,-864 -416,-864 -416,-928 -192,-928" /><polygon points="32,-864 -192,-864 -192,-928 32,-928" /><polygon points="128,-928 128,-864 32,-864 32,-928" /><polygon points="-864,-928 -1088,-928 -1088,-928 -864,-928" /><polygon points="-640,-928 -864,-928 -864,-928 -640,-928" /><polygon points="-416,-928 -640,-928 -640,-928 -416,-928" /><polygon points="-192,-928 -416,-928 -416,-928 -192,-928" /><polygon points="32,-928 -192,-928 -192,-928 32,-928" /><polygon points="128,-864 128,-864 32,-864 32,-864" /><polygon points="-1088,-864 -1152,-864 -1152,-928 -1088,-928" /><polygon points="-1152,-928 -1152,-864 -1152,-864 -1152,-928" /><polygon points="-1152,-864 -1088,-864 -1088,-864 -1088,-864 -1089,-864 -1152,-864" /><polygon points="-1088,-864 -1088,-928 -1088,-928 -1088,-896 -1088,-864" /><polygon points="128,-928 128,-865 128,-865 128,-928" /><polygon points="128,-865 128,-864 128,-864 128,-928 128,-928" /><polygon points="192,-865 192,-865 160,-865 128,-865 128,-865" /><polygon points="128,-928 128,-928 160,-928 192,-928 192,-928 192,-928 128,-928" /><polygon points="192,-865 128,-865 128,-864 192,-864" /><polygon points="-864,-928 -1088,-928 -1088,-864 -864,-864" /><polygon points="-640,-928 -864,-928 -864,-864 -640,-864" /><polygon points="-416,-928 -640,-928 -640,-864 -416,-864" /><polygon points="-192,-928 -416,-928 -416,-864 -192,-864" /><polygon points="32,-928 -192,-928 -192,-864 32,-864" /><polygon points="128,-864 128,-865 128,-928 32,-928 32,-864" /><polygon points="128,-928 128,-928 32,-928 32,-928" /><polygon points="-864,-864 -1088,-864 -1088,-864 -864,-864" /><polygon points="-640,-864 -864,-864 -864,-864 -640,-864" /><polygon points="-416,-864 -640,-864 -640,-864 -416,-864" /><polygon points="-192,-864 -416,-864 -416,-864 -192,-864" /><polygon points="32,-864 -192,-864 -192,-864 32,-864" /><polygon points="-1088,-928 -1088,-928 -1152,-928 -1152,-928 -1089,-928 -1088,-928" /><polygon points="-2112,-288 -2112,-264.0233 -2112,-191.093 -2112,-65 -2112,-64 -2112,-64 -2112,-65 -2112,-224 -2112,-288" /><polygon points="-2112,-512 -2112,-481 -2112,-303.1628 -2112,-288 -2112,-288 -2112,-448 -2112,-512" /><polygon points="-2112,-736 -2112,-705 -2112,-512 -2112,-512 -2112,-672 -2112,-736" /><polygon points="-2112,-960 -2112,-929 -2112,-736 -2112,-736 -2112,-896 -2112,-960" /><polygon points="-2112,-1184 -2112,-1120 -2112,-960 -2112,-960 -2112,-1120 -2112,-1184" /><polygon points="-2112,-1408 -2112,-1344 -2112,-1184 -2112,-1184 -2112,-1344 -2112,-1408" /><polygon points="-2112,-1632 -2112,-1568 -2112,-1408 -2112,-1408 -2112,-1568 -2112,-1632" /><polygon points="192,-928 192,-928 192,-865 192,-865 192,-865 192,-928" /><polygon points="-1275,-323.1005 -1483,-203 -1499,-230 -1275,-358.4017" /><polygon points="-1153,-428.3347 -1153,-416 -1153,-393.5439 -1274,-323.6779 -1275,-323.1005 -1275,-358.4017" /><polygon points="-1724,-505 -1733.8639,-519.0453 -1706.4521,-537.5323 -1697,-524" /><polygon points="-1746,-550 -1725.0359,-564.1385 -1706.4521,-537.5323 -1728,-523" /><polygon points="-2112,-736 -2112,-929 -2010.4109,-929 -1979.8818,-929 -1888,-797.4534 -1888,-705 -2112,-705" /><polygon points="-1888,-705 -1888,-573.4534 -1888,-481 -2112,-481 -2112,-512 -2112,-705" /><polygon points="-1888,-481 -1888,-454.2325 -2047,-347 -2112,-303.1628 -2112,-481" /><polygon points="-1888,-705 -1888,-797.4534 -1731.542,-573.4534 -1888,-573.4534" /><polygon points="-1731.542,-573.4534 -1725.0359,-564.1385 -1746,-550 -1823,-498.0697 -1888,-454.2325 -1888,-481 -1888,-573.4534" /><polygon points="-2112,-264.0233 -2112,-288 -2112,-303.1628 -2047,-347 -2029,-320" /><polygon points="-1521.7228,-216.9749 -1540,-243 -1514,-262 -1493.7507,-233.0089" /><polygon points="-2112,-191.093 -2112,-264.0233 -1888,-415.093 -1888,-295.0453 -1888,-191.093" /><polygon points="-1888,-65 -2112,-65 -2112,-191.093 -1888,-191.093" /><polygon points="-1888,-295.0453 -1888,-415.093 -1805,-471.0697 -1733.8639,-519.0453 -1724,-505 -1664,-419.5652 -1664,-295.0453" /><polygon points="-1664,-195.5652 -1664,-135.4185 -1738,-93 -1786.8467,-65 -1888,-65 -1888,-191.093 -1888,-295.0453 -1664,-295.0453" /><polygon points="-1606.8569,-338.1985 -1540,-243 -1521.7228,-216.9749 -1559.0725,-195.5652 -1664,-195.5652 -1664,-295.0453 -1664,-419.5652" /><polygon points="-1559.0725,-195.5652 -1664,-135.4185 -1664,-195.5652" /><polygon points="-1786.8467,-65 -1738,-93 -1722,-65" /><polygon points="-1888,-64 -2112,-64 -2112,-65 -1888,-65" /><polygon points="-1664,-64 -1888,-64 -1888,-65 -1786.8467,-65 -1722,-65 -1664,-65" /><polygon points="-1440,-64 -1664,-64 -1664,-65 -1498,-65 -1440,-65" /><polygon points="-1216,-64 -1440,-64 -1440,-65 -1274,-65 -1216,-65" /><polygon points="-1152,-65 -1152,-64 -1216,-64 -1216,-65" /><polygon points="-1152,-640 -1152,-863 -1088,-863 -1088,-672 -1088,-639 -1152,-639" /><polygon points="-1088,-639 -1088,-448 -1088,-415 -1152,-415 -1152,-416 -1152,-639" /><polygon points="-1088,-415 -1088,-224 -1088,-191 -1152,-191 -1152,-394.1213 -1152,-415" /><polygon points="-1088,-191 -1088,-64 -1152,-64 -1152,-65 -1152,-170.1213 -1152,-191" /><polygon points="-1498,-99.6779 -1498,-65 -1664,-65 -1722,-65 -1498,-194.339" /><polygon points="-1498,-99.6779 -1498,-194.339 -1483,-203 -1275,-323.1005 -1274,-323.6779 -1274,-170.1213 -1274,-99.6779" /><polygon points="-1274,-65 -1440,-65 -1498,-65 -1498,-99.6779 -1274,-99.6779" /><polygon points="-1153,-393.5439 -1152,-394.1213 -1152,-191 -1152,-170.1213 -1274,-170.1213 -1274,-323.6779" /><polygon points="-1152,-170.1213 -1152,-65 -1216,-65 -1274,-65 -1274,-99.6779 -1274,-170.1213" /><polygon points="-1089,-864 -1088,-864 -1088,-896 -1088,-928 -1089,-928" /><polygon points="-1088,-863 -1088,-864 -1088,-896 -995.1823,-672 -1088,-672" /><polygon points="-995.1823,-672 -920.1824,-491 -902.3646,-448 -1088,-448 -1088,-639 -1088,-672" /><polygon points="-902.3646,-448 -864,-355.4133 -864,-224 -1088,-224 -1088,-415 -1088,-448" /><polygon points="-864,-224 -864,-131.4133 -864,-65 -864,-64 -992,-64 -1088,-64 -1088,-191 -1088,-224" /><polygon points="-1153,-672 -1153,-864 -1152,-864 -1152,-863 -1152,-640 -1153,-640" /><polygon points="-1152,-640 -1152,-639 -1152,-416 -1153,-416 -1153,-428.3347 -1153,-448 -1153,-640" /><polygon points="-1152,-416 -1152,-415 -1152,-394.1213 -1153,-393.5439 -1153,-416" /><polygon points="-968,-1032 -864,-1074.8235 -864,-960 -864,-929 -864,-850.8235 -1005.3979,-850.8235 -1024,-896" /><polygon points="-864,-850.8235 -864,-717.1765 -968,-760 -1005.3979,-850.8235" /><polygon points="-1979.8818,-929 -2003.2354,-962.4352 -1975,-1094 -1944,-1087 -1978.3724,-926.8391" /><polygon points="-1873.2739,-1568 -1825.2009,-1792 -1701.9706,-1792 -1701.9706,-1568" /><polygon points="-1701.9706,-1484.775 -1761,-1442 -1887.4829,-1350.3457 -1896.24,-1344 -1921.347,-1344 -1888,-1499.3838 -1873.2739,-1568 -1701.9706,-1568" /><polygon points="-1896.24,-1344 -1925.9706,-1322.4561 -1921.347,-1344" /><polygon points="-1477.9706,-1647.0938 -1554,-1592 -1587.12,-1568 -1701.9706,-1568 -1701.9706,-1792 -1664,-1792 -1477.9706,-1792" /><polygon points="-1587.12,-1568 -1701.9706,-1484.775 -1701.9706,-1568" /><polygon points="-1440,-1792 -1278,-1792 -1477.9706,-1647.0938 -1477.9706,-1792" /><polygon points="-1887.4829,-1350.3457 -1761,-1442 -1742,-1416 -1754.3724,-1407.0344 -1897.5892,-1303.2542" /><polygon points="-1897.5892,-1303.2542 -1754.3724,-1407.0344 -1754.3724,-1345.3533 -1754.3724,-1183.0345 -1923.3898,-1183.0345" /><polygon points="-1754.3724,-1183.0345 -1754.3724,-1121.3533 -1754.3724,-959.0345 -1971.4629,-959.0345 -1923.3898,-1183.0345" /><polygon points="-1754.3724,-959.0345 -1754.3724,-897.3533 -1754.3724,-735.0344 -1844.402,-735.0344 -1978.3724,-926.8391 -1971.4629,-959.0345" /><polygon points="-1754.3724,-735.0344 -1754.3724,-673.3533 -1754.3724,-606.1396 -1844.402,-735.0344" /><polygon points="-1754.3724,-1407.0344 -1742,-1416 -1535,-1566 -1530.3724,-1569.3533 -1530.3724,-1507.6721 -1530.3724,-1345.3533 -1754.3724,-1345.3533" /><polygon points="-1530.3724,-1345.3533 -1530.3724,-1283.6721 -1530.3724,-1121.3533 -1754.3724,-1121.3533 -1754.3724,-1183.0345 -1754.3724,-1345.3533" /><polygon points="-1530.3724,-1121.3533 -1530.3724,-1059.6721 -1530.3724,-897.3533 -1754.3724,-897.3533 -1754.3724,-959.0345 -1754.3724,-1121.3533" /><polygon points="-1530.3724,-897.3533 -1530.3724,-835.6721 -1530.3724,-673.3533 -1754.3724,-673.3533 -1754.3724,-735.0344 -1754.3724,-897.3533" /><polygon points="-1530.3724,-673.3533 -1530.3724,-611.6721 -1530.3724,-449.3533 -1644.8613,-449.3533 -1670.4576,-486 -1697,-524 -1706.4521,-537.5323 -1725.0359,-564.1385 -1754.3724,-606.1396 -1754.3724,-673.3533" /><polygon points="-1530.3724,-449.3533 -1530.3724,-387.6721 -1530.3724,-285.4403 -1644.8613,-449.3533" /><polygon points="-1530.3724,-1569.3533 -1330,-1714.5507 -1306.3724,-1731.6722 -1306.3724,-1568 -1306.3724,-1507.6721 -1530.3724,-1507.6721" /><polygon points="-1306.3724,-1507.6721 -1306.3724,-1344 -1306.3724,-1283.6721 -1530.3724,-1283.6721 -1530.3724,-1345.3533 -1530.3724,-1507.6721" /><polygon points="-1306.3724,-1283.6721 -1306.3724,-1120 -1306.3724,-1059.6721 -1530.3724,-1059.6721 -1530.3724,-1121.3533 -1530.3724,-1283.6721" /><polygon points="-1306.3724,-1059.6721 -1306.3724,-896 -1306.3724,-835.6721 -1530.3724,-835.6721 -1530.3724,-897.3533 -1530.3724,-1059.6721" /><polygon points="-1306.3724,-835.6721 -1306.3724,-672 -1306.3724,-611.6721 -1530.3724,-611.6721 -1530.3724,-673.3533 -1530.3724,-835.6721" /><polygon points="-1306.3724,-611.6721 -1306.3724,-448 -1306.3724,-387.6721 -1530.3724,-387.6721 -1530.3724,-449.3533 -1530.3724,-611.6721" /><polygon points="-1306.3724,-387.6721 -1306.3724,-340.4183 -1493.7507,-233.0089 -1514,-262 -1530.3724,-285.4403 -1530.3724,-387.6721" /><polygon points="-1306.3724,-1731.6722 -1223.12,-1792 -1216,-1792 -1153,-1792 -1153,-1568 -1306.3724,-1568" /><polygon points="-1153,-1568 -1153,-1344 -1306.3724,-1344 -1306.3724,-1507.6721 -1306.3724,-1568" /><polygon points="-1153,-1344 -1153,-1120 -1306.3724,-1120 -1306.3724,-1283.6721 -1306.3724,-1344" /><polygon points="-1153,-1120 -1153,-928 -1153,-896 -1306.3724,-896 -1306.3724,-1059.6721 -1306.3724,-1120" /><polygon points="-1153,-896 -1153,-864 -1153,-672 -1306.3724,-672 -1306.3724,-835.6721 -1306.3724,-896" /><polygon points="-1153,-672 -1153,-640 -1153,-448 -1306.3724,-448 -1306.3724,-611.6721 -1306.3724,-672" /><polygon points="-1153,-448 -1153,-428.3347 -1306.3724,-340.4183 -1306.3724,-387.6721 -1306.3724,-448" /><polygon points="-2112,-1568 -2112,-1632 -2112,-1792 -1888,-1792 -1888,-1568" /><polygon points="-1888,-1499.3838 -1921.347,-1344 -2112,-1344 -2112,-1408 -2112,-1568 -1888,-1568" /><polygon points="-1921.347,-1344 -1928,-1313 -1969.4202,-1120 -2112,-1120 -2112,-1184 -2112,-1344" /><polygon points="-1969.4202,-1120 -2003.2354,-962.4352 -2010.4109,-929 -2112,-929 -2112,-960 -2112,-1120" /><polygon points="-1825.2009,-1792 -1873.2739,-1568 -1888,-1568 -1888,-1792" /><polygon points="-1873.2739,-1568 -1888,-1499.3838 -1888,-1568" /><polygon points="-1153,-1792 -1152,-1792 -1152,-1568 -1153,-1568" /><polygon points="-1152,-1568 -1152,-1344 -1153,-1344 -1153,-1568" /><polygon points="-1152,-1344 -1152,-1120 -1153,-1120 -1153,-1344" /><polygon points="-1152,-1120 -1152,-929 -1152,-928 -1153,-928 -1153,-1120" /><polygon points="-1330,-1714.5507 -1530.3724,-1569.3533 -1535,-1566 -1554,-1592 -1477.9706,-1647.0938 -1330,-1754.3188" /><polygon points="-1278,-1792 -1223.12,-1792 -1306.3724,-1731.6722 -1330,-1714.5507 -1330,-1754.3188" /><polygon points="-1925.9706,-1322.4561 -1887.4829,-1350.3457 -1897,-1306 -1928,-1313" /><polygon points="-2010.4109,-929 -2003.2354,-962.4352 -1979.8818,-929" /><polygon points="-1152,-1568 -1152,-1792 -1088,-1792 -1088,-1568" /><polygon points="-1152,-1344 -1152,-1568 -1088,-1568 -1088,-1344" /><polygon points="-1152,-1120 -1152,-1344 -1088,-1344 -1088,-1120" /><polygon points="-1088,-929 -1152,-929 -1152,-1120 -1088,-1120" /><polygon points="-768,-64 -864,-64 -864,-65 -743.663,-65 -640,-65 -640,-64" /><polygon points="-640,-65 -565,-65 -416,-65 -416,-64 -544,-64 -640,-64" /><polygon points="-416,-65 -341,-65 -224,-65 -192,-65 -192,-64 -320,-64 -416,-64" /><polygon points="-192,-65 0,-65 32,-65 32,-64 -96,-64 -192,-64" /><polygon points="32,-65 127,-65 127,-64 32,-64" /><polygon points="-920.1824,-491 -995.1823,-672 -1013,-715 -832,-640 -789,-622.1825 -789,-491" /><polygon points="-827.3647,-267 -864,-355.4133 -902.3646,-448 -920.1824,-491 -789,-491 -789,-398.1825 -789,-267" /><polygon points="-789,-174.4135 -827.3647,-267 -789,-267" /><polygon points="-789,-398.1825 -789,-491 -789,-622.1825 -608,-547.1827 -565,-529.3647 -565,-398.1825" /><polygon points="-788.9044,-174.1825 -789,-174.4135 -789,-267 -789,-398.1825 -565,-398.1825 -565,-305.3647 -565,-174.1825" /><polygon points="-565,-81.3647 -565,-65 -640,-65 -743.663,-65 -788.9044,-174.1825 -565,-174.1825" /><polygon points="-565,-305.3647 -565,-398.1825 -565,-529.3647 -384,-454.3646 -358.8264,-443.9337 -341,-436.5471 -341,-305.3647" /><polygon points="-565,-81.3647 -565,-174.1825 -565,-305.3647 -341,-305.3647 -341,-212.5471 -341,-81.3647" /><polygon points="-341,-65 -416,-65 -565,-65 -565,-81.3647 -341,-81.3647" /><polygon points="-224,-388.0664 -224,-288 -224,-212.5471 -341,-212.5471 -341,-305.3647 -341,-436.5471" /><polygon points="-224,-212.5471 -224,-65 -341,-65 -341,-81.3647 -341,-212.5471" /><polygon points="-427,-807.8176 -608,-732.8179 -651,-715 -602.5193,-832 -429.5883,-832 -427,-832" /><polygon points="-368.64,-832 -384,-825.6354 -427,-807.8176 -427,-832" /><polygon points="-864,-131.4133 -864,-224 -864,-355.4133 -827.3647,-267 -789,-174.4135 -771.1824,-131.4133" /><polygon points="-743.663,-65 -864,-65 -864,-131.4133 -771.1824,-131.4133" /><polygon points="-608,-601.6354 -608,-547.1827 -789,-622.1825 -832,-640 -651,-715 -608,-732.8179" /><polygon points="-608,-601.6354 -608,-732.8179 -427,-807.8176 -384,-825.6354 -384,-667.9337 -384,-601.6354" /><polygon points="-384,-454.3646 -565,-529.3647 -608,-547.1827 -608,-601.6354 -384,-601.6354" /><polygon points="-368.64,-832 -224,-891.9337 -224,-736 -224,-667.9337 -384,-667.9337 -384,-825.6354" /><polygon points="-224,-667.9337 -224,-512 -224,-443.9337 -358.8264,-443.9337 -384,-454.3646 -384,-601.6354 -384,-667.9337" /><polygon points="-224,-443.9337 -224,-388.0664 -341,-436.5471 -358.8264,-443.9337" /><polygon points="-864,-850.8235 -864,-929 -653.5883,-929 -640,-896 -666.353,-832 -690.6324,-773.0356 -696,-760 -832,-704 -864,-717.1765" /><polygon points="-640,-896 -613.6471,-832 -666.353,-832" /><polygon points="-429.5883,-832 -602.5193,-832 -613.6471,-832 -640,-896 -653.5883,-929 -640,-929 -429.5883,-929" /><polygon points="-416,-929 -224,-929 -224,-891.9337 -368.64,-832 -427,-832 -429.5883,-832 -429.5883,-929" /><polygon points="160,-864 128,-864 128,-865 160,-865" /><polygon points="128,-928 128,-865 128,-864 127,-864 127,-928" /><polygon points="128,-865 128,-928 160,-928 160,-865" /><polygon points="160,-865 160,-928 128,-928 128,-865" /><polygon points="-653.5883,-929 -864,-929 -864,-960 -666.353,-960 -640,-960 -640,-929" /><polygon points="-640,-960 -602.5193,-960 -549.4807,-960 -416,-960 -416,-929 -429.5883,-929 -640,-929" /><polygon points="-416,-960 -325.4807,-960 -224,-960 -224,-929 -416,-929" /><polygon points="-418.2984,-1276.5865 -394.8678,-1333.1323 -390.3646,-1344 -341,-1463.1333 -325.4807,-1500.5866 -325.4807,-1297.4933 -325.4807,-1276.5865" /><polygon points="-511.1161,-1052.5865 -502.3106,-1073.837 -480.0467,-1127.5673 -418.2984,-1276.5865 -325.4807,-1276.5865 -325.4807,-1073.4933 -325.4807,-1052.5865" /><polygon points="-325.4807,-960 -416,-960 -549.4807,-960 -511.1161,-1052.5865 -325.4807,-1052.5865" /><polygon points="-297.547,-1568 -224,-1745.4933 -224,-1728 -224,-1600 -224,-1521.4933 -316.8177,-1521.4933" /><polygon points="-224,-1521.4933 -224,-1504 -224,-1408 -224,-1297.4933 -325.4807,-1297.4933 -325.4807,-1500.5866 -316.8177,-1521.4933" /><polygon points="-224,-1297.4933 -224,-1184 -224,-1073.4933 -325.4807,-1073.4933 -325.4807,-1276.5865 -325.4807,-1297.4933" /><polygon points="-224,-1073.4933 -224,-960 -325.4807,-960 -325.4807,-1052.5865 -325.4807,-1073.4933" /><polygon points="-1088,-1568 -1088,-1792 -992,-1792 -864,-1792 -864,-1568" /><polygon points="-864,-1436.5867 -881.8177,-1393.5866 -902.3647,-1344 -1088,-1344 -1088,-1568 -864,-1568" /><polygon points="-902.3647,-1344 -974.6353,-1169.5867 -995.1824,-1120 -1088,-1120 -1088,-1344" /><polygon points="-995.1824,-1120 -1013,-1077 -1088,-896 -1088,-928 -1088,-929 -1088,-1120" /><polygon points="-768,-1792 -716.7293,-1792 -789,-1617.5867 -809.547,-1568 -864,-1568 -864,-1792" /><polygon points="-809.547,-1568 -864,-1436.5867 -864,-1568" /><polygon points="-789.5576,-1169.5867 -789,-1169.8177 -704.0467,-1205.0193 -651,-1077 -832,-1152" /><polygon points="-864,-1074.8235 -832,-1088 -696,-1032 -666.353,-960 -864,-960" /><polygon points="-480.0467,-1127.5673 -502.3106,-1073.837 -649.6894,-1073.837 -651,-1077 -704.0467,-1205.0193 -565,-1262.6354 -480.0467,-1297.837" /><polygon points="-502.3106,-1073.837 -511.1161,-1052.5865 -549.4807,-960 -602.5193,-960 -649.6894,-1073.837" /><polygon points="-394.8678,-1333.1323 -418.2984,-1276.5865 -480.0467,-1127.5673 -480.0467,-1297.837" /><polygon points="-224,-1297.4933 -224,-1408 -128,-1408 -96,-1408 0,-1408 0,-1184 -224,-1184" /><polygon points="0,-1184 0,-960 -224,-960 -224,-1073.4933 -224,-1184" /><polygon points="0,-960 0,-736 -224,-736 -224,-891.9337 -224,-929 -224,-960" /><polygon points="0,-736 0,-512 -224,-512 -224,-667.9337 -224,-736" /><polygon points="0,-512 0,-288 -224,-288 -224,-388.0664 -224,-443.9337 -224,-512" /><polygon points="0,-288 0,-65 -192,-65 -224,-65 -224,-212.5471 -224,-288" /><polygon points="0,-1408 127,-1408 127,-1376 127,-1184 0,-1184" /><polygon points="127,-1184 127,-1152 127,-960 0,-960 0,-1184" /><polygon points="127,-960 127,-928 127,-864 127,-736 0,-736 0,-960" /><polygon points="127,-736 127,-512 0,-512 0,-736" /><polygon points="127,-512 127,-288 0,-288 0,-512" /><polygon points="127,-288 127,-65 32,-65 0,-65 0,-288" /><polygon points="-224,-1408 -224,-1504 -128,-1504 -128,-1408" /><polygon points="-128,-1504 -224,-1504 -224,-1521.4933 -224,-1600 -96,-1600 -96,-1504" /><polygon points="-96,-1600 -96,-1728 0,-1728 127,-1728 127,-1600 127,-1504 -96,-1504" /><polygon points="127,-1504 127,-1408 0,-1408 -96,-1408 -96,-1504" /><polygon points="-881.8177,-1393.5866 -864,-1436.5867 -809.547,-1568 -789,-1617.5867 -789,-1568 -789,-1393.5867" /><polygon points="-789,-1344 -789,-1169.8177 -789.5576,-1169.5867 -974.6353,-1169.5867 -902.3647,-1344 -881.8177,-1393.5866 -789,-1393.5867" /><polygon points="-789.5576,-1169.5867 -832,-1152 -864,-1138.7404 -1013,-1077 -995.1824,-1120 -974.6353,-1169.5867" /><polygon points="-789,-1568 -789,-1617.5867 -716.7293,-1792 -565,-1792 -565,-1568" /><polygon points="-789,-1344 -789,-1393.5867 -789,-1568 -565,-1568 -565,-1344" /><polygon points="-565,-1262.6354 -704.0467,-1205.0193 -789,-1169.8177 -789,-1344 -565,-1344" /><polygon points="-565,-1568 -565,-1792 -544,-1792 -341,-1792 -341,-1568" /><polygon points="-341,-1463.1333 -390.3646,-1344 -565,-1344 -565,-1568 -341,-1568" /><polygon points="-390.3646,-1344 -394.8678,-1333.1323 -480.0467,-1297.837 -565,-1262.6354 -565,-1344" /><polygon points="-320,-1792 -204.7293,-1792 -224,-1745.4933 -297.547,-1568 -341,-1568 -341,-1792" /><polygon points="-297.547,-1568 -316.8177,-1521.4933 -325.4807,-1500.5866 -341,-1463.1333 -341,-1568" /><polygon points="0,-1728 -96,-1728 -224,-1728 -224,-1745.4933 -204.7293,-1792 -96,-1792 0,-1792" /><polygon points="127,-1792 127,-1728 0,-1728 0,-1792" /><polygon points="160,-865 160,-928 160,-928 160,-865" /><polygon points="127,-864 127,-864 127,-736 127,-736" /><polygon points="127,-1728 127,-1792 127,-1792 127,-1632 127,-1600 127,-1600" /><polygon points="128,-864 160,-864 160,-864 127,-864 127,-864" /><polygon points="-1888,-1792 -2112,-1792 -2112,-1792 -1888,-1792" /><polygon points="-1664,-1792 -1701.9706,-1792 -1825.2009,-1792 -1888,-1792 -1888,-1792 -1664,-1792" /><polygon points="-1440,-1792 -1477.9706,-1792 -1664,-1792 -1664,-1792 -1440,-1792" /><polygon points="-1216,-1792 -1223.12,-1792 -1278,-1792 -1440,-1792 -1440,-1792 -1216,-1792" /><polygon points="-992,-1792 -1088,-1792 -1152,-1792 -1153,-1792 -1216,-1792 -1216,-1792 -992,-1792" /><polygon points="-768,-1792 -864,-1792 -992,-1792 -992,-1792 -768,-1792" /><polygon points="-544,-1792 -565,-1792 -716.7293,-1792 -768,-1792 -768,-1792 -544,-1792" /><polygon points="-320,-1792 -341,-1792 -544,-1792 -544,-1792 -320,-1792" /><polygon points="-96,-1792 -204.7293,-1792 -320,-1792 -320,-1792 -96,-1792" /><polygon points="-1088,-896 -1088,-896 -1088,-896 -1013,-715 -1013,-715 -1013,-715" /><polygon points="-1013,-1077 -1013,-1077 -1088,-896 -1088,-896" /><polygon points="-696,-1032 -832,-1088 -832,-1088 -696,-1032" /><polygon points="-864,-717.1765 -832,-704 -832,-704 -832,-704 -832,-704 -884.4953,-725.6157 -943.3928,-749.8677 -968,-760 -968,-760" /><polygon points="-602.5193,-832 -602.5192,-832 -602.5193,-832 -613.6474,-832 -613.6471,-832" /><polygon points="-640,-960 -666.353,-960 -666.3528,-960 -666.353,-960 -602.5193,-960 -602.5192,-960 -602.5193,-960" /><polygon points="-1152,-929 -1088,-929 -1088,-929 -1152,-929" /><polygon points="-1969.4202,-1120 -1928,-1313 -1928,-1313 -1975,-1094 -1975,-1094" /><polygon points="-1514,-262 -1514,-262 -1580.6294,-357.3929 -1670.458,-486 -1670.4576,-486" /><polygon points="-1606.8569,-338.1985 -1664,-419.5652 -1724,-505 -1724,-505 -1606.8574,-338.1993" /><polygon points="-1697,-524 -1697,-524 -1724,-505 -1724,-505" /><polygon points="-1722,-65 -1738,-93 -1738,-93 -1722,-65" /><polygon points="-1499,-230 -1483,-203 -1483,-203 -1499,-230" /><polygon points="-1664,-135.4185 -1559.0725,-195.5652 -1499,-230 -1499,-230 -1543,-204.7782 -1696.8394,-116.5941 -1738,-93 -1738,-93" /><polygon points="32,-64 127,-64 127,-64 127,-64 -96,-64 -96,-64" /><polygon points="-576,-896 -650,-896 -672,-832 -598,-832" /><polygon points="-601,-960 -672,-960 -647,-896 -576,-896" /><polygon points="128,-928 127,-928 127,-864 128,-864" /><polygon points="-832,-1088 -832,-1088 -832,-1088 -832,-1088 -827.7166,-1086.2363 -768.8197,-1061.9847 -696,-1032 -696,-1032 -696,-1032" /><polygon points="-734,-823 -791,-793 -761,-736 -704,-766" /><polygon points="-2047,-347 -2047,-347 -1888,-454.2325 -1823,-498.0697 -1823,-498.0698" /><polygon points="-1823,-498.0698 -1823,-498.0697 -1746,-550 -1746,-550" /><polygon points="-2029,-320 -2029,-320 -2047,-347 -2047,-347" /><polygon points="-1805,-471.0698 -1805,-471.0697 -1888,-415.093 -2029,-320 -2029,-320" /><polygon points="-1728,-523 -1728,-523 -1805,-471.0697 -1805,-471.0698" /><polygon points="-1746,-550 -1746,-550 -1728,-523 -1728,-523" /><polygon points="-704,-766 -704,-766 -761,-736 -761,-736" /><polygon points="-704,-766 -761,-736 -791,-793 -734,-823" /><polygon points="-761,-736 -761,-736 -791,-793 -791,-793" /><polygon points="-791,-793 -791,-793 -734,-823 -734,-823" /><polygon points="-734,-823 -734,-823 -704,-766 -704,-766" /><polygon points="-651,-1077 -651,-1077 -649.6894,-1073.837 -602.5193,-960 -602.5192,-960" /><polygon points="-696,-760 -799.8379,-717.2432 -826.2468,-706.3689 -832,-704 -832,-704 -696,-760" /><polygon points="-666.3528,-960 -666.353,-960 -696,-1032 -696,-1032 -696,-1032" /><polygon points="-798,-791 -855,-761 -826.2468,-706.3689 -799.8379,-717.2432 -768,-734" /><polygon points="-826.2468,-706.3689 -855,-761 -855,-761 -826.2468,-706.3689" /><polygon points="160,-864 160,-864 160,-865 160,-865" /><polygon points="160,-865 160,-928 160,-928 160,-865" /><polygon points="160,-865 160,-865 192,-865 192,-865" /><polygon points="192,-928 192,-928 160,-928 160,-928" /><polygon points="192,-928 160,-928 160,-865 192,-865" /><polygon points="127,-288 127,-64 127,-64 127,-65 127,-288" /><polygon points="127,-512 127,-288 127,-288 127,-512" /><polygon points="127,-736 127,-512 127,-512 127,-736" /><polygon points="127,-1792 127,-1792 127,-1632 127,-1632" /><polygon points="127,-1152 127,-960 127,-928 127,-928 127,-960 127,-1152" /><polygon points="127,-1376 127,-1184 127,-1152 127,-1152 127,-1184 127,-1376" /><polygon points="127,-1600 127,-1408 127,-1376 127,-1376 127,-1408 127,-1504 127,-1600" /><polygon points="160,-928 160,-928 128,-928 127,-928 127,-928" /><polygon points="160,-864 160,-865 160,-928 127,-928 127,-864" /><polygon points="-96,-1408 -96,-1408 -128,-1408 -128,-1408" /><polygon points="-96,-1600 -96,-1600 -224,-1600 -224,-1600" /><polygon points="-224,-1728 -224,-1728 -96,-1728 -96,-1728" /><polygon points="-224,-1600 -224,-1600 -224,-1728 -224,-1728" /><polygon points="-96,-1728 -96,-1728 -96,-1600 -96,-1600" /><polygon points="-96,-1600 -224,-1600 -224,-1728 -96,-1728" /><polygon points="-128,-1408 -128,-1408 -128,-1504 -128,-1504" /><polygon points="-96,-1504 -96,-1504 -96,-1408 -96,-1408" /><polygon points="-128,-1504 -128,-1504 -96,-1504 -96,-1504" /><polygon points="-96,-1408 -128,-1408 -128,-1504 -96,-1504" /><polygon points="-799.8379,-717.2432 -799.8379,-717.2432 -696,-760 -696,-760" /><polygon points="-826.2468,-706.3689 -832,-704 -832,-704 -826.2468,-706.3689" /><polygon points="-768,-734 -799.8379,-717.2432 -826.2468,-706.3689 -855,-761 -798,-791" /><polygon points="-768,-734 -768,-734 -799.8379,-717.2432 -799.8379,-717.2432" /><polygon points="-855,-761 -855,-761 -798,-791 -798,-791" /><polygon points="-798,-791 -798,-791 -768,-734 -768,-734" /><polygon points="-1153,-864 -1153,-864 -1153,-896 -1153,-928 -1153,-928" /><polygon points="-1088,-929 -1088,-929 -1088,-929 -1152,-929 -1152,-929" /><polygon points="-1088,-863 -1088,-863 -1152,-863 -1152,-863" /><polygon points="-1153,-928 -1153,-928 -1152,-928 -1152,-928" /><polygon points="-1152,-928 -1152,-928 -1152,-929 -1152,-929" /><polygon points="-1152,-864 -1152,-864 -1153,-864 -1153,-864" /><polygon points="-1152,-928 -1152,-928 -1152,-864 -1152,-864" /><polygon points="-1152,-863 -1152,-863 -1152,-864 -1152,-864" /><polygon points="-1944,-1087 -1975,-1094 -1928,-1313 -1897,-1306" /><polygon points="-1944,-1087 -1944,-1087 -1975,-1094 -1975,-1094" /><polygon points="-1897,-1306 -1897,-1306 -1897.5892,-1303.2542 -1923.3898,-1183.0345 -1944,-1087 -1944,-1087" /><polygon points="-1928,-1313 -1928,-1313 -1897,-1306 -1897,-1306" /><polygon points="127,-928 127,-928 128,-928 128,-928" /><polygon points="128,-864 128,-864 127,-864 127,-864" /><polygon points="128,-864 127,-864 127,-928 128,-928" /><polygon points="128,-928 128,-928 128,-864 128,-864" /><polygon points="127,-864 127,-864 127,-928 127,-928" /><polygon points="-832,-640 -832,-640 -1013,-715 -1013,-715" /><polygon points="-832,-704 -832,-704 -884.4953,-725.6157 -884.4953,-725.6157" /><polygon points="-864,-776 -923,-800 -943.3928,-749.8677 -884.4953,-725.6157" /><polygon points="-943.3928,-749.8677 -923,-800 -923,-800 -943.3928,-749.8677" /><polygon points="-1742,-1416 -1761,-1442 -1554,-1592 -1535,-1566" /><polygon points="-1554,-1592 -1761,-1442 -1761,-1442 -1701.9706,-1484.775 -1587.12,-1568 -1554,-1592" /><polygon points="-1761,-1442 -1742,-1416 -1742,-1416 -1761,-1442" /><polygon points="-1742,-1416 -1535,-1566 -1535,-1566 -1742,-1416" /><polygon points="-1535,-1566 -1554,-1592 -1554,-1592 -1535,-1566" /><polygon points="-602.5192,-832 -602.5193,-832 -651,-715 -651,-715" /><polygon points="-943.3928,-749.8677 -968,-760 -968,-760 -943.3928,-749.8677" /><polygon points="-943.3928,-749.8677 -884.4953,-725.6157 -832,-704 -832,-704 -832,-704 -968,-760 -968,-760 -968,-760 -968,-760" /><polygon points="-690.6324,-773.0355 -690.6324,-773.0356 -666.353,-832 -666.353,-832" /><polygon points="-943.3928,-749.8677 -923,-800 -864,-776 -884.4953,-725.6157" /><polygon points="-923,-800 -923,-800 -864,-776 -864,-776" /><polygon points="-864,-776 -864,-776 -884.4953,-725.6157 -884.4953,-725.6157" /><polygon points="-696,-760 -696,-760 -696,-760 -696,-760 -690.6324,-773.0356 -690.6324,-773.0355" /><polygon points="-1844.5895,-217.7753 -1855.7727,-228.1378 -1849.4482,-202.2982 -1843.1537,-211.7871" /><polygon points="-1844.5895,-217.7753 -1848,-232 -1874,-257 -1887.4202,-257.4626" /><polygon points="-1839.8684,-198.0859 -1843.1537,-211.7871 -1860.9543,-184.9539 -1848.9358,-184.3555" /><polygon points="-977.9033,-784.0509 -1002.5369,-843.8753 -1024,-896 -1024,-896 -1005.3979,-850.8235 -968,-760 -968,-760 -968,-760 -968,-760" /><polygon points="-951,-871 -1002.5369,-843.8753 -977.9033,-784.0509 -921,-814" /><polygon points="-951,-871 -951,-871 -1002.5369,-843.8753 -1002.5369,-843.8753" /><polygon points="-1889.895,-257.548 -1896.6169,-247.1995 -1875.4116,-246.3353 -1887.4202,-257.4626" /><polygon points="-2112,-1792 -2112,-1792 -2112,-1632 -2112,-1632" /><polygon points="127,-288 127,-65 127,-64 127,-64 127,-288" /><polygon points="127,-512 127,-288 127,-288 127,-512" /><polygon points="127,-736 127,-512 127,-512 127,-736" /><polygon points="127,-960 127,-736 127,-736 127,-864 127,-928 127,-960" /><polygon points="127,-1184 127,-960 127,-960 127,-1152 127,-1184" /><polygon points="127,-1408 127,-1184 127,-1184 127,-1376 127,-1408" /><polygon points="127,-1632 127,-1408 127,-1408 127,-1600 127,-1632" /><polygon points="127,-1792 127,-1856 128,-1856 128,-1632 127,-1632" /><polygon points="128,-1632 128,-1408 127,-1408 127,-1632" /><polygon points="128,-1408 128,-1184 127,-1184 127,-1408" /><polygon points="128,-1184 128,-960 127,-960 127,-1184" /><polygon points="128,-960 128,-736 127,-736 127,-960" /><polygon points="128,-736 128,-512 127,-512 127,-736" /><polygon points="128,-512 128,-288 127,-288 127,-512" /><polygon points="128,-288 128,-64 127,-64 127,-65 127,-288" /><polygon points="128,-64 128,0 127,0 127,-64" /><polygon points="-1888,-1792 -2112,-1792 -2112,-1856 -1888,-1856" /><polygon points="-1664,-1792 -1888,-1792 -1888,-1856 -1664,-1856" /><polygon points="-1440,-1792 -1664,-1792 -1664,-1856 -1440,-1856" /><polygon points="-1216,-1792 -1440,-1792 -1440,-1856 -1216,-1856" /><polygon points="-992,-1792 -1216,-1792 -1216,-1856 -992,-1856" /><polygon points="-768,-1792 -992,-1792 -992,-1856 -768,-1856" /><polygon points="-544,-1792 -768,-1792 -768,-1856 -544,-1856" /><polygon points="-320,-1792 -544,-1792 -544,-1856 -320,-1856" /><polygon points="-96,-1792 -320,-1792 -320,-1856 -96,-1856" /><polygon points="127,-1856 127,-1792 -96,-1792 -96,-1856" /><polygon points="127,-1792 127,-1792 127,-1792 0,-1792 -96,-1792 -96,-1792" /><polygon points="-602.5193,-960 -589.674,-929 -589.674,-929 -602.5193,-960" /><polygon points="-602.5193,-960 -602.5193,-960 -651,-1077 -651,-1077 -651,-1077 -602.5192,-960" /><polygon points="-977.9033,-784.0509 -977.9033,-784.0509 -968,-760 -968,-760" /><polygon points="-1010.4117,-863 -1024,-896 -1024,-896 -1002.5369,-843.8753 -1002.5369,-843.8753" /><polygon points="-653.5882,-929 -666.353,-960 -666.353,-960 -653.5883,-929" /><polygon points="-589.674,-929 -602.5193,-960 -666.353,-960 -653.5882,-929 -613.6474,-832 -602.5193,-832 -576,-896" /><polygon points="-666.3529,-832 -666.3528,-832 -690.6323,-773.0359 -690.6324,-773.0355 -666.353,-832" /><polygon points="-640,-896 -666.3529,-832 -613.6474,-832" /><polygon points="-613.6474,-832 -666.3529,-832 -666.353,-832 -666.353,-832 -613.6471,-832" /><polygon points="-951,-871 -921,-814 -977.9033,-784.0509 -1002.5369,-843.8753" /><polygon points="-921,-814 -921,-814 -977.9033,-784.0509 -977.9033,-784.0509" /><polygon points="-951,-871 -951,-871 -921,-814 -921,-814" /><polygon points="-1888,-64 -2112,-64 -2112,-64 -1888,-64" /><polygon points="-1664,-64 -1888,-64 -1888,-64 -1664,-64" /><polygon points="-1440,-64 -1664,-64 -1664,-64 -1440,-64" /><polygon points="-1216,-64 -1440,-64 -1440,-64 -1216,-64" /><polygon points="-992,-64 -1216,-64 -1216,-64 -1152,-64 -1088,-64 -992,-64" /><polygon points="-768,-64 -992,-64 -992,-64 -864,-64 -768,-64" /><polygon points="-544,-64 -768,-64 -768,-64 -640,-64 -544,-64" /><polygon points="-320,-64 -544,-64 -544,-64 -416,-64 -320,-64" /><polygon points="-96,-64 -320,-64 -320,-64 -192,-64 -96,-64" /><polygon points="-2113,-1792 -2112,-1792 -2112,-1632 -2112,-1568 -2113,-1568" /><polygon points="-2112,-1568 -2112,-1408 -2112,-1344 -2113,-1344 -2113,-1568" /><polygon points="-2112,-1344 -2112,-1184 -2112,-1120 -2113,-1120 -2113,-1344" /><polygon points="-2112,-1120 -2112,-960 -2112,-896 -2113,-896 -2113,-1120" /><polygon points="-2112,-896 -2112,-736 -2112,-672 -2113,-672 -2113,-896" /><polygon points="-2112,-672 -2112,-512 -2112,-448 -2113,-448 -2113,-672" /><polygon points="-2112,-448 -2112,-288 -2112,-224 -2113,-224 -2113,-448" /><polygon points="-2112,-224 -2112,-65 -2112,-64 -2113,-64 -2113,-224" /><polygon points="-598,-832 -672,-832 -650,-896 -576,-896" /><polygon points="-650,-896 -650,-896 -576,-896 -576,-896" /><polygon points="-598,-832 -598,-832 -672,-832 -672,-832" /><polygon points="-672,-832 -672,-832 -650,-896 -650,-896" /><polygon points="-576,-896 -576,-896 -598,-832 -598,-832" /><polygon points="-576,-896 -647,-896 -672,-960 -601,-960" /><polygon points="-576,-896 -576,-896 -647,-896 -647,-896" /><polygon points="-672,-960 -672,-960 -601,-960 -601,-960" /><polygon points="-647,-896 -647,-896 -672,-960 -672,-960" /><polygon points="-601,-960 -601,-960 -576,-896 -576,-896" /><polygon points="-1855.2009,-174.8682 -1848.9358,-184.3555 -1895.3101,-186.6647 -1883.5426,-175.6437" /><polygon points="-1815.9468,-253.2686 -1848,-232 -1839.8684,-198.0859 -1816.9026,-213.0594" /><polygon points="-1826.9807,-217.1124 -1849.4482,-202.2982 -1855.7727,-228.1378 -1826.4607,-247.636" /><polygon points="-1911.041,-244.9746 -1917.6909,-234.2024 -1912.9291,-214.621 -1901.7958,-204.0786" /><polygon points="-1911.041,-244.9746 -1907.6899,-230.1519 -1896.6169,-247.1995 -1889.895,-257.548 -1903,-258" /><polygon points="-1000.8192,-952.2962 -968,-1032 -968,-1032 -1024,-896 -1024,-896 -1024,-896 -1024,-896" /><polygon points="-832,-704 -832,-704 -832,-704 -832,-704 -799.8379,-717.2432 -696,-760 -696,-760 -696,-760" /><polygon points="-1010.4117,-863 -1022.2668,-891.791 -1024,-896 -1024,-896 -1010.4117,-863" /><polygon points="-960,-935 -1000.8192,-952.2962 -1024,-896 -1022.2668,-891.791 -985,-876" /><polygon points="-1000.8192,-952.2962 -960,-935 -960,-935 -1000.8192,-952.2963" /><polygon points="-1088,-929 -1088,-929 -1088,-929 -1088,-928 -1088,-896 -1088,-864 -1088,-863 -1088,-863 -1088,-863" /><polygon points="-1000.8192,-952.2963 -968,-1032 -968,-1032 -1000.8192,-952.2962" /><polygon points="-1010.4117,-863 -1022.2668,-891.791 -1022.2668,-891.791 -1010.4117,-863" /><polygon points="-1010.4117,-929 -1000.8192,-952.2963 -960,-935 -985,-876 -1022.2668,-891.791 -1024,-896" /><polygon points="-985,-876 -985,-876 -1022.2668,-891.791 -1022.2668,-891.791" /><polygon points="-960,-935 -960,-935 -985,-876 -985,-876" /><polygon points="-1912.9291,-214.621 -1909.3221,-199.7883 -1895.3101,-186.6647 -1882.7446,-186.0389" /><polygon points="-1797.8816,-225.4608 -1816.9026,-213.0594 -1839.8684,-198.0859 -1855.2009,-174.8682 -1832.9858,-189.439" /><polygon points="-1797.8816,-225.4608 -1634.7094,-331.8469 -1643.7103,-367.5538 -1815.9468,-253.2686 -1816.9026,-213.0594" /><polygon points="-1837.9961,-200.0647 -1860.9543,-184.9539 -1849.4482,-202.2982 -1826.9807,-217.1124 -1811.4178,-227.374" /><polygon points="-1860.5603,-200.5139 -1882.7446,-186.0389 -1860.9543,-184.9539 -1825.1727,-208.5051" /><polygon points="-1860.5603,-200.5139 -1676.2471,-320.7725 -1696.5217,-339.6566 -1879.6808,-218.6857 -1901.7958,-204.0786 -1882.7446,-186.0389" /><polygon points="-1010.4117,-929 -998.0263,-959.079 -968,-1032 -968,-1032 -1000.8192,-952.2963 -1010.4117,-929" /><polygon points="-998.0263,-959.079 -953,-940 -928,-999 -973.6274,-1018.3336" /><polygon points="-973.6274,-1018.3336 -928,-999 -928,-999 -973.6274,-1018.3336" /><polygon points="-1013,-1077 -1013,-1077 -1088,-896 -1088,-896 -1088,-896" /><polygon points="-832,-1152 -832,-1152 -651,-1077 -651,-1077 -651,-1077" /><polygon points="-1013,-1077 -1013,-1077 -864,-1138.7404 -864,-1138.7404" /><polygon points="-864,-1138.7404 -864,-1138.7404 -832,-1152 -832,-1152" /><polygon points="-973.6274,-1018.3336 -968,-1032 -968,-1032 -973.6274,-1018.3336" /><polygon points="-1010.4117,-929 -998.0263,-959.079 -998.0263,-959.079 -1010.4117,-929" /><polygon points="-973.6274,-1018.3336 -928,-999 -953,-940 -998.0263,-959.079" /><polygon points="-953,-940 -953,-940 -998.0263,-959.079 -998.0263,-959.079" /><polygon points="-928,-999 -928,-999 -953,-940 -953,-940" /><polygon points="-1878.3217,-249.5581 -1907.6899,-230.1519 -1901.7958,-204.0786 -1879.6808,-218.6857" /><polygon points="-1814.3694,-201.6495 -1648.8683,-310.2013 -1634.7094,-331.8469 -1797.8816,-225.4608 -1832.9858,-189.439" /><polygon points="-1814.3694,-201.6495 -1855.2009,-174.8682 -1883.5426,-175.6437 -1861.2881,-190.2462" /><polygon points="-1887.2977,-214.2651 -1703.4686,-335.1033 -1677.287,-310.9805 -1861.2881,-190.2462 -1883.5426,-175.6437 -1909.3221,-199.7883" /><polygon points="-1887.2977,-214.2651 -1909.3221,-199.7883 -1917.6909,-234.2024 -1886.4512,-254.6738" /><polygon points="-1088,-896 -1088,-896 -1088,-896 -1074.3259,-863 -1013,-715 -1013,-715 -1013,-715" /><polygon points="-950.6099,-1039.1606 -968,-1032 -968,-1032 -950.6099,-1039.1606" /><polygon points="-950.6099,-1039.1606 -898.6002,-1060.5764 -832,-1088 -832,-1088 -832,-1088 -864,-1074.8235 -968,-1032 -968,-1032 -968,-1032 -968,-1032 -968,-1032 -968,-1032" /><polygon points="-950.6099,-1039.1606 -960,-1017 -901,-992 -876,-1051 -898.6002,-1060.5764" /><polygon points="-898.6002,-1060.5764 -876,-1051 -876,-1051 -898.6002,-1060.5764" /><polygon points="-651,-715 -651,-715 -651,-715 -832,-640 -832,-640 -832,-640" /><polygon points="-832,-1088 -832,-1088 -898.6002,-1060.5764 -898.6002,-1060.5764" /><polygon points="-651,-715 -651,-715 -602.5193,-832 -602.5193,-832 -602.5192,-832 -651,-715" /><polygon points="-960,-1017 -950.6099,-1039.1606 -898.6002,-1060.5764 -876,-1051 -901,-992" /><polygon points="-876,-1051 -876,-1051 -901,-992 -901,-992" /><polygon points="-901,-992 -901,-992 -960,-1017 -960,-1017" /><polygon points="-960,-1017 -960,-1017 -950.6099,-1039.1606 -950.6099,-1039.1606" /><polygon points="-1089,-928 -1089,-928 -1152,-928 -1152,-928 -1152,-928" /><polygon points="-1152,-864 -1152,-864 -1152,-864 -1089,-864 -1089,-864" /><polygon points="-1089,-864 -1089,-864 -1089,-928 -1089,-928" /><polygon points="-1483,-203 -1483,-203 -1498,-194.339 -1722,-65 -1722,-65" /><polygon points="-1730,-512 -1730,-512 -1877.7477,-408.4824 -1887,-402 -1887,-402" /><polygon points="-1670.458,-486 -1697,-524 -1697,-524 -1670.4576,-486" /><polygon points="-1606.8574,-338.1993 -1588,-352 -1588,-352 -1767,-221 -1767,-221" /><polygon points="-1724,-505 -1697,-524 -1670.458,-486 -1580.6294,-357.3929 -1588,-352 -1606.8574,-338.1993" /><polygon points="-1657,-407 -1657,-407 -1730,-512 -1730,-512" /><polygon points="-1784.9762,-315.6256 -1758.8407,-332.8368 -1764.9136,-331.3917 -1788.671,-314.7465" /><polygon points="-1784.9762,-315.6256 -1832.3196,-304.36 -1903,-258 -1874,-257" /><polygon points="-1820.991,-307.0557 -1788.671,-314.7465 -1657,-407 -1730,-512 -1887,-402" /><polygon points="-1887,-402 -1887,-402 -1827.5485,-316.4875 -1823.2518,-310.3076 -1820.991,-307.0557" /><polygon points="-1791.8032,-301.5768 -1765.6423,-318.8617 -1670.6294,-381.6378 -1651.3859,-364.0944 -1826.4607,-247.636 -1855.7727,-228.1378 -1875.4116,-246.3353" /><polygon points="-1826.7009,-293.3942 -1816.2799,-300.2795 -1813.6245,-296.4602" /><polygon points="-1826.7009,-293.3942 -1791.8032,-301.5768 -1875.4116,-246.3353 -1896.6169,-247.1995" /><polygon points="-1722.9905,-66.7333 -1738,-93 -1696.8394,-116.5941 -1683,-96" /><polygon points="-1543,-247.2716 -1606.8574,-338.1993 -1767,-221 -1696.8394,-116.5941 -1543,-204.7782" /><polygon points="-1521.7228,-216.9747 -1540,-243 -1543,-247.2716 -1543,-204.7782" /><polygon points="-1504.0649,-227.0967 -1523.0673,-255.3739 -1540,-243 -1521.7228,-216.9747" /><polygon points="-1588,-352 -1580.6294,-357.3929 -1514,-262 -1523.0673,-255.3739" /><polygon points="-1504.0649,-227.0967 -1503.1558,-227.6178 -1504,-227" /><polygon points="-1683,-96 -1504,-227 -1503.1558,-227.6178 -1499,-230 -1483,-203 -1722,-65 -1722.9905,-66.7333" /><polygon points="-1514,-262 -1514,-262 -1540,-243 -1540,-243" /><polygon points="-1543,-247.2716 -1540,-243 -1540,-243 -1606.8569,-338.1985 -1606.8574,-338.1993" /><polygon points="-1814,-297 -1814,-297 -1813.0894,-297.6379 -1791.4266,-312.8157" /><polygon points="-1823.2518,-310.3076 -1832.3196,-304.36 -1820.991,-307.0557" /><polygon points="-1823.2518,-310.3076 -1820.4432,-306.2679 -1840.861,-284.5491 -1886.4512,-254.6738 -1917.6909,-234.2024 -1903,-258" /><polygon points="-827.7166,-1086.2363 -832,-1088 -832,-1088 -827.7173,-1086.2367" /><polygon points="-832,-704 -832,-704 -832,-704 -832,-704 -832,-704 -832,-704 -832,-704 -832,-704 -884.4953,-725.6157 -943.3928,-749.8677 -968,-760 -968,-760 -968,-760" /><polygon points="-696,-1032 -696,-1032 -696,-1032 -666.353,-960 -666.353,-960 -666.3528,-960 -696,-1032" /><polygon points="-827.7166,-1086.2363 -851,-1029 -792,-1005 -768.8197,-1061.9847" /><polygon points="-768.8197,-1061.9847 -792,-1005 -792,-1005 -768.8198,-1061.9847" /><polygon points="-1814,-297 -1814,-297 -1816.2799,-300.2795" /><polygon points="-696,-1032 -696,-1032 -768.8197,-1061.9847 -768.8198,-1061.9847" /><polygon points="-792,-1005 -851,-1029 -827.7173,-1086.2367 -768.8198,-1061.9847" /><polygon points="-851,-1029 -851,-1029 -827.7166,-1086.2363 -827.7173,-1086.2367" /><polygon points="-792,-1005 -792,-1005 -851,-1029 -851,-1029" /><polygon points="-1823,-458.9302 -2029,-320 -2047,-347 -1823,-498.0698" /><polygon points="-1746,-550 -1728,-523 -1823,-458.9302 -1823,-498.0698" /><polygon points="-1823,-498.0698 -2047,-347 -2047,-347 -1823,-498.0698" /><polygon points="-1746,-550 -1823,-498.0698 -1823,-498.0698 -1746,-550" /><polygon points="-2047,-347 -2029,-320 -2029,-320 -2047,-347" /><polygon points="-2029,-320 -1823,-458.9302 -1805,-471.0698 -1805,-471.0698 -2029,-320" /><polygon points="-1805,-471.0698 -1728,-523 -1728,-523 -1805,-471.0698" /><polygon points="-1728,-523 -1746,-550 -1746,-550 -1728,-523" /><polygon points="-1657,-407 -1764.9136,-331.3917 -1827.5485,-316.4875 -1887,-402 -1877.7477,-408.4824 -1730,-512" /><polygon points="-1657,-407 -1657,-407 -1788.671,-314.7465 -1764.9136,-331.3917" /><polygon points="-1840.861,-284.5491 -1712.111,-368.9187 -1703.4686,-335.1033 -1887.2977,-214.2651 -1886.4512,-254.6738" /><polygon points="-1820.4432,-306.2679 -1806.0199,-321.6102 -1697.5519,-392.7556 -1712.111,-368.9187 -1840.861,-284.5491" /><polygon points="-1791.4266,-312.8157 -1813.0894,-297.6379 -1800.54,-310.6788" /><polygon points="-1826.2366,-283.9755 -1702.7057,-365.6041 -1691.8362,-382.501 -1800.54,-310.6788" /><polygon points="-1800.54,-310.6788 -1691.8362,-382.501 -1670.6294,-381.6378 -1765.6423,-318.8617" /><polygon points="-1826.2366,-283.9755 -1813.8756,-296.8213 -1816.2799,-300.2795 -1826.7009,-293.3942 -1896.6169,-247.1995 -1907.6899,-230.1519" /><polygon points="-1813.8756,-296.8213 -1813.0894,-297.6379 -1814,-297" /><polygon points="-1791.4266,-312.8157 -1765.6423,-318.8617 -1791.8032,-301.5768 -1813.6245,-296.4602 -1814,-297" /><polygon points="-1820.4432,-306.2679 -1827.5485,-316.4875 -1806.0199,-321.6102" /><polygon points="-1827.5485,-316.4875 -1820.4432,-306.2679 -1823.2518,-310.3076" /><polygon points="-1543,-198.4581 -1639.2748,-128 -1704.504,-128 -1767,-221 -1588,-352 -1543,-285.0358" /><polygon points="-1639.2748,-128 -1683,-96 -1704.504,-128" /><polygon points="-1504,-227 -1543,-198.4581 -1543,-285.0358" /><polygon points="-1704.504,-128 -1683,-96 -1683,-96 -1767,-221 -1767,-221" /><polygon points="-1639.2748,-128 -1543,-198.4581 -1504,-227 -1504,-227 -1683,-96 -1683,-96" /><polygon points="-1543,-285.0358 -1588,-352 -1588,-352 -1504,-227 -1504,-227" /><polygon points="-704,-1032 -763,-1056 -787,-997 -728,-973" /><polygon points="-728,-973 -787,-997 -763,-1056 -704,-1032" /><polygon points="-728,-973 -728,-973 -787,-997 -787,-997" /><polygon points="-787,-997 -787,-997 -763,-1056 -763,-1056" /><polygon points="-763,-1056 -763,-1056 -704,-1032 -704,-1032" /><polygon points="-704,-1032 -704,-1032 -728,-973 -728,-973" /><polygon points="-1153,-864 -1153,-864 -1153,-928 -1153,-928" /><polygon points="-1088,-929 -1088,-929 -1088,-929 -1152,-929 -1152,-929" /><polygon points="-1088,-863 -1088,-863 -1088,-863 -1152,-863 -1152,-863" /><polygon points="-1153,-928 -1153,-928 -1152,-928 -1152,-928 -1152,-928" /><polygon points="-1152,-928 -1152,-928 -1152,-928 -1152,-929 -1152,-929" /><polygon points="-1152,-864 -1152,-864 -1152,-864 -1153,-864 -1153,-864" /><polygon points="-1152,-928 -1152,-928 -1152,-928 -1152,-864 -1152,-864 -1152,-864" /><polygon points="-1152,-863 -1152,-863 -1152,-864 -1152,-864 -1152,-864" /><polygon points="-832,-640 -832,-640 -832,-640 -1013,-715 -1013,-715 -1013,-715" /><polygon points="-832,-640 -832,-640 -651,-715 -651,-715 -651,-715 -832,-640" /><polygon points="-1010.4117,-863 -1010.4117,-863 -1010.4117,-863 -1010.4117,-863 -1002.5369,-843.8753 -977.9033,-784.0509 -968,-760 -968,-760 -968,-760" /><polygon points="-1024,-896 -1024,-896 -1022.2668,-891.791 -1010.4117,-863 -1010.4117,-863 -1010.4117,-863" /><polygon points="-696,-1032 -696,-1032 -679.4351,-991.771 -679.4351,-991.771" /><polygon points="-696,-1032 -679.4351,-991.771 -654.8015,-931.9466 -653.5882,-929 -653.5883,-929 -666.353,-960 -696,-1032" /><polygon points="-654.8015,-931.9466 -679.4351,-991.771 -736,-962 -706,-905" /><polygon points="-736,-962 -736,-962 -706,-905 -706,-905" /><polygon points="-602.5193,-832 -595.8895,-848 -576,-896 -576,-896 -602.5193,-832" /><polygon points="-576,-896 -576,-896 -582.6296,-912 -589.674,-929 -589.674,-929 -589.674,-929 -589.674,-929 -576,-896" /><polygon points="-589.674,-929 -619.26,-1000.4009 -651,-1077 -651,-1077 -602.5193,-960 -589.674,-929" /><polygon points="-696,-760 -696,-760 -696,-760 -710.8699,-753.8771 -832,-704 -832,-704 -832,-704 -696,-760" /><polygon points="-736,-962 -679.4351,-991.771 -654.8015,-931.9465 -706,-905" /><polygon points="-654.8015,-931.9465 -653.5883,-929 -653.5882,-929 -654.8015,-931.9466" /><polygon points="-640,-896 -640,-896 -653.5882,-929 -653.5883,-929 -653.5882,-929 -653.5883,-929" /><polygon points="-640,-896 -659.7647,-848 -666.3528,-832 -666.3529,-832 -640,-896" /><polygon points="-654.8015,-931.9465 -654.8015,-931.9466 -706,-905 -706,-905" /><polygon points="-736,-962 -736,-962 -679.4351,-991.771 -679.4351,-991.771" /><polygon points="-690.6323,-773.0359 -696,-760 -696,-760 -696,-760 -690.6324,-773.0355" /><polygon points="-653.5882,-929 -643.4916,-904.4796 -641.4618,-899.5501 -640,-896 -640,-896 -653.5883,-929" /><polygon points="-640,-896 -640,-896 -640,-896 -659.7648,-848 -659.7647,-848 -640,-896" /><polygon points="-641.4618,-899.5501 -643.4916,-904.4796 -699,-928 -724,-869 -665,-844" /><polygon points="-724,-869 -724,-869 -665,-844 -665,-844" /><polygon points="-1010.4117,-929 -1010.4117,-929 -1010.4117,-929 -1010.4117,-929 -1024,-896 -1024,-896 -1024,-896" /><polygon points="-696,-1032 -653.5883,-929 -653.5882,-929 -653.5883,-929 -654.8015,-931.9465 -679.4351,-991.771 -696,-1032" /><polygon points="-653.5883,-929 -696,-1032 -696,-1032 -646.5883,-912 -640,-896 -640,-896" /><polygon points="-641.4618,-899.5501 -640,-896 -640,-896 -641.4618,-899.5501" /><polygon points="-653.5883,-929 -643.4916,-904.4796 -643.4916,-904.4796 -653.5882,-929" /><polygon points="-724,-869 -699,-928 -643.4916,-904.4796 -641.4618,-899.5501 -665,-844" /><polygon points="-641.4618,-899.5501 -641.4618,-899.5501 -665,-844 -665,-844" /><polygon points="-699,-928 -699,-928 -643.4916,-904.4796 -643.4916,-904.4796" /><polygon points="-724,-869 -724,-869 -699,-928 -699,-928" /><polygon points="-1643.7103,-367.5538 -1669.3306,-391.7823 -1874,-257 -1848,-232" /><polygon points="-1655.0269,-378.2556 -1651.3859,-364.0944 -1670.6294,-381.6378 -1682.2455,-392.2277 -1669.3306,-391.7823" /><polygon points="-1651.3859,-364.0944 -1644.5265,-337.4165 -1811.4178,-227.374 -1826.9807,-217.1124 -1826.4607,-247.636" /><polygon points="-595.8895,-848 -576,-896 -576,-896 -595.8895,-848" /><polygon points="-589.674,-929 -619.2602,-1000.4012 -619.26,-1000.4009 -589.674,-929" /><polygon points="-659.7648,-848 -640,-896 -620.2352,-848" /><polygon points="-620.2352,-848 -640,-896 -646.5883,-912 -582.6296,-912 -576,-896 -595.8895,-848" /><polygon points="-582.6296,-912 -646.5883,-912 -646.5884,-912 -633.4117,-912 -582.6297,-912" /><polygon points="-696,-1032 -696,-1032 -696,-1032 -653.5882,-929 -646.5884,-912 -646.5883,-912" /><polygon points="-620.2352,-848 -595.8895,-848 -595.8895,-848 -659.7647,-848 -659.7647,-848 -659.7647,-848 -659.7648,-848" /><polygon points="-696,-760 -696,-760 -690.6323,-773.0359 -666.3528,-832 -659.7647,-848 -659.7648,-848" /><polygon points="-1670.6294,-381.6378 -1691.8362,-382.501 -1685.507,-392.3401 -1682.2455,-392.2277" /><polygon points="-1644.5265,-337.4165 -1655.0269,-378.2556 -1643.7103,-367.5538 -1634.7094,-331.8469 -1640.7285,-322.645" /><polygon points="-1644.5265,-337.4165 -1656.1222,-319.7726 -1825.1727,-208.5051 -1837.9961,-200.0647 -1811.4178,-227.374" /><polygon points="-1640.7285,-322.645 -1648.8683,-310.2013 -1662.1729,-310.566 -1644.5265,-337.4165" /><polygon points="-710.8699,-753.8771 -756,-773 -756,-773 -710.8699,-753.8771" /><polygon points="-731,-832 -756,-773 -710.8699,-753.8771 -696,-760 -675.9567,-808.6765" /><polygon points="-659.7647,-848 -659.7647,-848 -675.9567,-808.6765 -675.9567,-808.6765" /><polygon points="-659.7647,-848 -696,-760 -696,-760 -659.7648,-848" /><polygon points="-1088,-929 -1088,-929 -1088,-929 -1088,-863 -1088,-863 -1088,-863" /><polygon points="-832,-1088 -832,-1088 -832,-1088 -832,-1088 -898.6002,-1060.5764 -950.6099,-1039.1606 -968,-1032 -968,-1032" /><polygon points="-710.8699,-753.8771 -832,-704 -832,-704 -710.8699,-753.8771" /><polygon points="-710.8699,-753.8771 -696,-760 -696,-760 -772.7299,-728.4054 -803.4504,-715.7557 -832,-704 -832,-704" /><polygon points="-756,-773 -731,-832 -675.9567,-808.6765 -696,-760 -710.8699,-753.8771" /><polygon points="-731,-832 -731,-832 -675.9567,-808.6765 -675.9567,-808.6765" /><polygon points="-756,-773 -756,-773 -731,-832 -731,-832" /><polygon points="-1697.5519,-392.7556 -1685.507,-392.3401 -1702.7057,-365.6041 -1705.9137,-379.0651" /><polygon points="-1697.5519,-392.7556 -1806.0199,-321.6102 -1758.8407,-332.8368 -1669.3306,-391.7823" /><polygon points="-1656.1222,-319.7726 -1676.2471,-320.7725 -1860.5603,-200.5139 -1825.1727,-208.5051" /><polygon points="-1676.2471,-320.7725 -1656.1222,-319.7726 -1662.1729,-310.566 -1677.287,-310.9805 -1688.5796,-321.3851" /><polygon points="-696,-760 -696,-760 -772.73,-728.4053 -772.7299,-728.4054" /><polygon points="-696,-1032 -696,-1032 -696,-1032 -696,-1032 -696,-1032 -696,-1032 -696,-1032 -768.8198,-1061.9847 -827.7173,-1086.2367 -832,-1088 -832,-1088 -832,-1088" /><polygon points="-775,-800 -832,-770 -803.4504,-715.7557 -772.7299,-728.4054 -745,-743" /><polygon points="-803.4504,-715.7557 -832,-770 -832,-770 -803.4504,-715.7557" /><polygon points="-1013,-1077 -1013,-1077 -1088,-896 -1088,-896 -1088,-896 -1088,-896" /><polygon points="-832,-1152 -832,-1152 -651,-1077 -651,-1077 -651,-1077 -651,-1077" /><polygon points="-1013,-1077 -1013,-1077 -864,-1138.7404 -864,-1138.7404" /><polygon points="-864,-1138.7404 -864,-1138.7404 -832,-1152 -832,-1152" /><polygon points="-968,-1032 -968,-1032 -968,-1032 -968,-1032 -968,-1032 -998.0263,-959.079 -1010.4117,-929 -1010.4117,-929 -1010.4117,-929" /><polygon points="-803.4504,-715.7557 -832,-704 -832,-704 -803.4504,-715.7557" /><polygon points="-772.73,-728.4053 -696,-760 -696,-760 -696,-760 -822.3904,-707.9568 -832,-704 -832,-704" /><polygon points="-775,-800 -775,-800 -745,-743 -745,-743" /><polygon points="-745,-743 -772.73,-728.4053 -803.4504,-715.7557 -832,-770 -775,-800" /><polygon points="-745,-743 -745,-743 -772.7299,-728.4054 -772.73,-728.4053" /><polygon points="-832,-770 -832,-770 -775,-800 -775,-800" /><polygon points="-1696.5217,-339.6566 -1707.1661,-349.5709 -1712.111,-368.9187 -1705.9137,-379.0651" /><polygon points="-1696.5217,-339.6566 -1676.2471,-320.7725 -1688.5796,-321.3851 -1703.4686,-335.1033 -1707.1661,-349.5709" /><polygon points="-1696.5217,-339.6566 -1702.7057,-365.6041 -1826.2366,-283.9755 -1878.3217,-249.5581 -1879.6808,-218.6857" /><polygon points="-1677.287,-310.9805 -1648.8683,-310.2013 -1814.3694,-201.6495 -1861.2881,-190.2462" /><polygon points="-589.674,-929 -619.2602,-1000.4012 -619.2602,-1000.4012 -589.674,-929 -582.6296,-912 -582.6297,-912" /><polygon points="-646.5884,-912 -640,-896 -633.4117,-912" /><polygon points="-595.8895,-848 -576,-896 -582.6297,-912 -633.4117,-912 -640,-896 -659.7647,-848" /><polygon points="-659.7647,-848 -640,-896 -640,-896 -659.7648,-848" /><polygon points="-696,-760 -696,-760 -696,-760 -696,-760 -659.7647,-848 -659.7647,-848" /><polygon points="-696,-760 -696,-760 -822.3904,-707.9568 -822.3904,-707.9568" /><polygon points="-828.0243,-705.637 -822.3904,-707.9568 -800,-763 -859,-787 -883,-728" /><polygon points="-859,-787 -859,-787 -883,-728 -883,-728" /><polygon points="-651,-1077 -651,-1077 -651,-1077 -619.26,-1000.4009 -619.2602,-1000.4012 -619.2602,-1000.4012 -619.26,-1000.4009" /><polygon points="-828.0243,-705.637 -832,-704 -832,-704 -828.0243,-705.637" /><polygon points="-859,-787 -800,-763 -822.3904,-707.9568 -828.0243,-705.637 -883,-728" /><polygon points="-828.0243,-705.637 -828.0243,-705.637 -883,-728 -883,-728" /><polygon points="-859,-787 -859,-787 -800,-763 -800,-763" /><polygon points="-800,-763 -800,-763 -822.3904,-707.9568 -822.3904,-707.9568" /><polygon points="-1089,-928 -1089,-928 -1152,-928 -1152,-928 -1152,-928" /><polygon points="-1152,-864 -1152,-864 -1152,-864 -1089,-864 -1089,-864" /><polygon points="-1089,-864 -1089,-864 -1089,-928 -1089,-928" /><polygon points="-832,-704 -832,-704 -884.4953,-725.6157 -884.4953,-725.6157" /><polygon points="-968,-760 -968,-760 -968,-760 -987.2499,-806.7499 -1010.4117,-863 -1010.4117,-863 -1010.4117,-863 -968,-760" /><polygon points="-864,-776 -923,-800 -943.3928,-749.8677 -884.4953,-725.6157" /><polygon points="-943.3928,-749.8677 -923,-800 -923,-800 -943.3928,-749.8677" /><polygon points="-943.3928,-749.8677 -968,-760 -968,-760 -943.3928,-749.8677" /><polygon points="-943.3928,-749.8677 -884.4953,-725.6157 -832,-704 -832,-704 -832,-704 -864,-717.1765 -951,-753 -968,-760 -968,-760" /><polygon points="-640,-896 -640,-896 -646.5884,-912 -653.5882,-929 -653.5882,-929" /><polygon points="-696,-760 -696,-760 -696,-760 -696,-760 -659.7647,-848 -659.7648,-848" /><polygon points="-640,-896 -640,-896 -659.7647,-848 -659.7648,-848" /><polygon points="-943.3928,-749.8677 -923,-800 -864,-776 -884.4953,-725.6157" /><polygon points="-923,-800 -923,-800 -864,-776 -864,-776" /><polygon points="-864,-776 -864,-776 -884.4953,-725.6157 -884.4953,-725.6157" /><polygon points="-832,-704 -832,-704 -832,-704 -832,-704 -822.3904,-707.9568 -696,-760 -696,-760 -696,-760" /><polygon points="-935,-864 -992,-834 -962,-777 -905,-807" /><polygon points="-935,-864 -935,-864 -992,-834 -992,-834" /><polygon points="-935,-864 -905,-807 -962,-777 -992,-834" /><polygon points="-962,-777 -962,-777 -992,-834 -992,-834" /><polygon points="-905,-807 -905,-807 -962,-777 -962,-777" /><polygon points="-935,-864 -935,-864 -905,-807 -905,-807" /><polygon points="-1153,-864 -1153,-864 -1153,-928 -1153,-928" /><polygon points="-1088,-929 -1088,-929 -1088,-929 -1152,-929 -1152,-929" /><polygon points="-1088,-863 -1088,-863 -1088,-863 -1152,-863 -1152,-863" /><polygon points="-1153,-928 -1153,-928 -1152,-928 -1152,-928 -1152,-928" /><polygon points="-1152,-928 -1152,-928 -1152,-928 -1152,-929 -1152,-929" /><polygon points="-1152,-864 -1152,-864 -1152,-864 -1153,-864 -1153,-864" /><polygon points="-1152,-928 -1152,-928 -1152,-928 -1152,-864 -1152,-864 -1152,-864" /><polygon points="-1152,-863 -1152,-863 -1152,-864 -1152,-864 -1152,-864" /><polygon points="-1074.3259,-863 -1032.3358,-761.6642 -1013,-715 -1013,-715 -1074.3259,-863" /><polygon points="-996.0313,-707.9688 -832,-640 -832,-640 -832,-640 -1013,-715 -1013,-715 -1013,-715" /><polygon points="-1010.4117,-863 -1010.4117,-863 -1010.5326,-863.2935 -1018.3616,-882.3067 -1024,-896 -1024,-896 -1024,-896 -1010.4117,-863" /><polygon points="-987.2499,-806.7499 -968,-760 -1014.7501,-779.25" /><polygon points="-1014.7501,-779.25 -951,-753 -996.0313,-707.9688 -1013,-715 -1032.3358,-761.6642" /><polygon points="-940,-903 -999,-928 -1018.3616,-882.3067 -1010.5326,-863.2935 -965,-844" /><polygon points="-1010.5326,-863.2935 -1010.5326,-863.2935 -965,-844 -965,-844" /><polygon points="-1018.3616,-882.3067 -999,-928 -999,-928 -1018.3616,-882.3067" /><polygon points="-651,-715 -651,-715 -727.5988,-683.2604 -727.5986,-683.2605" /><polygon points="-1018.3616,-882.3067 -1024,-896 -1024,-896 -1018.3616,-882.3067" /><polygon points="-1010.4117,-863 -1010.5326,-863.2935 -1010.5326,-863.2935 -1010.4117,-863" /><polygon points="-1010.5326,-863.2935 -1018.3616,-882.3067 -999,-928 -940,-903 -965,-844" /><polygon points="-940,-903 -940,-903 -965,-844 -965,-844" /><polygon points="-999,-928 -999,-928 -940,-903 -940,-903" /><polygon points="-595.8895,-848 -595.8895,-848 -595.8895,-848 -595.8895,-848 -602.5193,-832 -651,-715 -651,-715 -651,-715 -651,-715" /><polygon points="-576,-896 -576,-896 -595.8895,-848 -595.8895,-848" /><polygon points="-908,-995 -967,-1024 -992,-957 -933,-928" /><polygon points="-992,-957 -992,-957 -933,-928 -933,-928" /><polygon points="-1074.3259,-863 -1074.3259,-863 -1074.3259,-863 -1088,-896 -1088,-896" /><polygon points="-1074.3259,-863 -1074.3259,-863 -1032.3361,-761.6644 -1032.3358,-761.6642 -1074.3259,-863" /><polygon points="-727.5987,-683.2604 -727.5986,-683.2605 -727.5988,-683.2604 -832,-640 -832,-640 -832,-640" /><polygon points="-1010.4117,-929 -1010.4117,-929 -1010.4117,-929 -1024,-896 -1024,-896 -1024,-896 -1024,-896" /><polygon points="-864,-717.1765 -864,-717.1765 -951,-753 -951,-753 -864,-717.1765" /><polygon points="-864,-717.1765 -864,-717.1765 -832,-704 -832,-704" /><polygon points="-1024,-896 -1024,-896 -1018.3616,-882.3067 -1010.5326,-863.2935 -1010.4117,-863 -1010.4117,-863" /><polygon points="-992,-957 -967,-1024 -908,-995 -933,-928" /><polygon points="-908,-995 -908,-995 -933,-928 -933,-928" /><polygon points="-967,-1024 -967,-1024 -908,-995 -908,-995" /><polygon points="-992,-957 -992,-957 -967,-1024 -967,-1024" /><polygon points="-832,-640 -832,-640 -832,-640 -996.0313,-707.9688 -996.0313,-707.9688" /><polygon points="-987.2499,-806.7499 -1010.4117,-863 -1010.4117,-863 -1010.4117,-863 -1010.4117,-863 -1010.4117,-863 -987.2499,-806.7499" /><polygon points="-1010.4117,-863 -987.2499,-806.7499 -968,-760 -968,-760 -1010.4117,-863" /><polygon points="-1010.4117,-863 -1010.4117,-863 -1024,-896 -1024,-896 -1010.4117,-863" /><polygon points="-1014.7501,-779.25 -968,-760 -987.2499,-806.7499" /><polygon points="-1014.7501,-779.25 -987.2499,-806.7499 -987.2499,-806.7499 -1014.7501,-779.25" /><polygon points="-951,-753 -968,-760 -1014.7501,-779.25 -1032.3361,-761.6644 -1013,-715 -996.0313,-707.9688" /><polygon points="-1032.3361,-761.6644 -1014.7501,-779.25 -1014.7501,-779.25 -1032.3358,-761.6642" /><polygon points="-951,-753 -996.0313,-707.9688 -996.0313,-707.9688 -951,-753" /><polygon points="-1088,-929 -1088,-929 -1088,-929 -1088,-863 -1088,-863 -1088,-863" /><polygon points="-925.1867,-1049.629 -968,-1032 -968,-1032 -925.1867,-1049.629" /><polygon points="-925.1867,-1049.629 -859.1453,-1076.8225 -832,-1088 -832,-1088 -832,-1088 -968,-1032 -968,-1032 -968,-1032" /><polygon points="-832,-1088 -832,-1088 -832,-1088 -808.5771,-1078.3554 -742.1651,-1051.0093 -696,-1032 -696,-1032 -696,-1032 -832,-1088" /><polygon points="-832,-1025 -859.1453,-1076.8225 -925.1867,-1049.629 -895,-992" /><polygon points="-859.1453,-1076.8225 -832,-1025 -832,-1025 -859.1452,-1076.8226" /><polygon points="-832,-1088 -832,-1088 -859.1453,-1076.8225 -859.1452,-1076.8226" /><polygon points="-859.1452,-1076.8226 -832,-1025 -895,-992 -925.1867,-1049.629" /><polygon points="-832,-1025 -832,-1025 -895,-992 -895,-992" /><polygon points="-895,-992 -895,-992 -925.1867,-1049.629 -925.1867,-1049.629" /><polygon points="-808.5771,-1078.3554 -832,-1088 -832,-1088 -808.5771,-1078.3554" /><polygon points="-696,-1032 -696,-1032 -696,-1032 -667.5924,-963.0101 -653.5883,-929 -653.5882,-929 -653.5882,-929 -696,-1032" /><polygon points="-808.5771,-1078.3554 -832,-1029 -764,-1005 -742.1651,-1051.0093" /><polygon points="-742.1651,-1051.0093 -764,-1005 -764,-1005 -742.1651,-1051.0093" /><polygon points="-1088,-896 -1088,-896 -1074.3259,-863 -1074.3259,-863 -1074.3259,-863 -1088,-896" /><polygon points="-1013,-1077 -1013,-1077 -1088,-896 -1088,-896 -1088,-896" /><polygon points="-832,-640 -832,-640 -996.0313,-707.9688 -1013,-715 -1013,-715" /><polygon points="-832,-1152 -832,-1152 -651,-1077 -651,-1077 -651,-1077" /><polygon points="-1013,-1077 -1013,-1077 -864,-1138.7404 -864,-1138.7404" /><polygon points="-864,-1138.7404 -864,-1138.7404 -832,-1152 -832,-1152" /><polygon points="-968,-1032 -968,-1032 -968,-1032 -968,-1032 -1010.4117,-929 -1010.4117,-929 -1010.4117,-929" /><polygon points="-589.674,-929 -589.674,-929 -582.6297,-912 -576,-896 -576,-896 -576,-896" /><polygon points="-589.674,-929 -589.674,-929 -619.2601,-1000.401 -619.26,-1000.4009 -619.2602,-1000.4012 -589.674,-929" /><polygon points="-696,-1032 -696,-1032 -742.1651,-1051.0093 -742.1651,-1051.0093" /><polygon points="-764,-1005 -832,-1029 -808.5771,-1078.3554 -742.1651,-1051.0093" /><polygon points="-832,-1029 -832,-1029 -808.5771,-1078.3554 -808.5771,-1078.3554" /><polygon points="-764,-1005 -764,-1005 -832,-1029 -832,-1029" /><polygon points="-619.2601,-1000.401 -651,-1077 -651,-1077 -651,-1077 -619.26,-1000.4009" /><polygon points="-698.2015,-1032.9066 -696,-1032 -696,-1032 -742.1651,-1051.0093 -808.5771,-1078.3554 -832,-1088 -832,-1088" /><polygon points="-832,-1088 -832,-1088 -698.2015,-1032.9066 -698.2015,-1032.9066" /><polygon points="-653.5883,-929 -653.5883,-929 -653.5882,-929 -641.5488,-899.7613 -640.5873,-897.4262 -640,-896 -640,-896 -653.5882,-929" /><polygon points="-698.2015,-1032.9066 -752,-1004 -716,-937 -667.5924,-963.0101 -696,-1032" /><polygon points="-667.5924,-963.0101 -716,-937 -716,-937 -667.5924,-963.0101" /><polygon points="-1089,-928 -1089,-928 -1152,-928 -1152,-928 -1152,-928" /><polygon points="-1152,-864 -1152,-864 -1152,-864 -1089,-864 -1089,-864" /><polygon points="-1089,-864 -1089,-864 -1089,-928 -1089,-928" /><polygon points="-667.5924,-963.0101 -656,-934.8571 -653.5883,-929 -653.5883,-929 -667.5924,-963.0101" /><polygon points="-667.5924,-963.0101 -716,-937 -752,-1004 -698.2015,-1032.9066 -696,-1032" /><polygon points="-716,-937 -716,-937 -752,-1004 -752,-1004" /><polygon points="-752,-1004 -752,-1004 -698.2015,-1032.9066 -698.2015,-1032.9066" /><polygon points="-832,-1088 -832,-1088 -832,-1088 -832,-1088 -832,-1088 -832,-1088 -859.1452,-1076.8226 -864,-1074.8235 -864,-1074.8235" /><polygon points="-696,-760 -696,-760 -696,-760 -716.9559,-751.3711 -832,-704 -832,-704 -832,-704 -832,-704 -696,-760" /><polygon points="-651.932,-867.0223 -640.5873,-897.4262 -641.5488,-899.7613 -699,-928 -724,-861 -666.1252,-832.553" /><polygon points="-640,-896 -640,-896 -651.932,-867.0223 -651.932,-867.0223" /><polygon points="-724,-861 -724,-861 -666.1252,-832.553 -666.1252,-832.553" /><polygon points="-640.5873,-897.4262 -651.932,-867.0223 -651.932,-867.0223 -640.5873,-897.4262" /><polygon points="-659.7647,-848 -696,-760 -696,-760 -696,-760 -659.7648,-848" /><polygon points="-656,-934.8571 -653.5883,-929 -653.5882,-929 -653.5883,-929 -656,-934.8571" /><polygon points="-641.5488,-899.7613 -653.5883,-929 -656,-934.8571 -656,-934.8571 -656,-934.8572 -640,-896 -640,-896 -640,-896" /><polygon points="-640.5873,-897.4262 -640,-896 -640,-896 -640.5873,-897.4262" /><polygon points="-653.5883,-929 -641.5488,-899.7613 -641.5488,-899.7613 -653.5882,-929" /><polygon points="-724,-861 -699,-928 -641.5488,-899.7613 -640.5873,-897.4262 -651.932,-867.0223 -666.1252,-832.553" /><polygon points="-666.1252,-832.553 -651.932,-867.0223 -640,-896 -640,-896 -679.5294,-800 -696,-760 -696,-760 -696,-760 -696,-760 -696,-760" /><polygon points="-666.1252,-832.553 -696,-760 -696,-760 -666.1252,-832.553" /><polygon points="-699,-928 -699,-928 -641.5488,-899.7613 -641.5488,-899.7613" /><polygon points="-724,-861 -724,-861 -699,-928 -699,-928" /><polygon points="-696,-760 -696,-760 -705.5881,-756.0519 -705.5881,-756.0519" /><polygon points="-832,-704 -832,-704 -832,-704 -832,-704 -832,-704 -832,-704 -864,-717.1765 -864,-717.1765 -864,-717.1765 -832,-704" /><polygon points="-743,-832 -768,-773 -716.9559,-751.3711 -705.5881,-756.0519 -684,-807" /><polygon points="-716.9559,-751.3711 -768,-773 -768,-773 -716.9559,-751.3711" /><polygon points="-716.9559,-751.3711 -832,-704 -832,-704 -716.9559,-751.3711" /><polygon points="-716.9559,-751.3711 -696,-760 -696,-760 -832,-704 -832,-704" /><polygon points="-768,-773 -743,-832 -684,-807 -705.5881,-756.0519 -716.9559,-751.3711" /><polygon points="-684,-807 -684,-807 -705.5881,-756.0519 -705.5881,-756.0519" /><polygon points="-743,-832 -743,-832 -684,-807 -684,-807" /><polygon points="-768,-773 -768,-773 -743,-832 -743,-832" /><polygon points="-1153,-864 -1153,-864 -1153,-928 -1153,-928" /><polygon points="-1088,-929 -1088,-929 -1088,-929 -1152,-929 -1152,-929" /><polygon points="-1088,-863 -1088,-863 -1088,-863 -1152,-863 -1152,-863" /><polygon points="-1153,-928 -1153,-928 -1152,-928 -1152,-928 -1152,-928" /><polygon points="-1152,-928 -1152,-928 -1152,-928 -1152,-929 -1152,-929" /><polygon points="-1152,-864 -1152,-864 -1152,-864 -1153,-864 -1153,-864" /><polygon points="-1152,-928 -1152,-928 -1152,-928 -1152,-864 -1152,-864 -1152,-864" /><polygon points="-1152,-863 -1152,-863 -1152,-864 -1152,-864 -1152,-864" /><polygon points="-656,-934.8571 -656,-934.8571 -656,-934.8571 -667.5924,-963.0101 -696,-1032 -696,-1032" /><polygon points="-651,-715 -651,-715 -651,-715 -727.5986,-683.2605 -727.5987,-683.2604 -727.5987,-683.2604 -727.5986,-683.2605" /><polygon points="-651,-715 -651,-715 -595.8895,-848 -595.8895,-848 -651,-715" /><polygon points="-798,-791 -855,-761 -826.2468,-706.369 -799.8372,-717.2435 -768,-734" /><polygon points="-826.2468,-706.369 -855,-761 -855,-761 -826.2469,-706.369" /><polygon points="-595.8895,-848 -576,-896 -576,-896 -576,-896 -595.8895,-848" /><polygon points="-799.837,-717.2437 -799.8372,-717.2435 -696,-760 -696,-760" /><polygon points="-826.2469,-706.369 -832,-704 -832,-704 -826.2468,-706.369" /><polygon points="-768,-734 -799.837,-717.2437 -826.2469,-706.369 -855,-761 -798,-791" /><polygon points="-768,-734 -768,-734 -799.8372,-717.2435 -799.837,-717.2437" /><polygon points="-798,-791 -798,-791 -768,-734 -768,-734" /><polygon points="-855,-761 -855,-761 -798,-791 -798,-791" /><polygon points="-832,-704 -832,-704 -799.837,-717.2437 -696,-760 -696,-760" /><polygon points="-696,-760 -696,-760 -679.5294,-800 -679.5294,-800 -696,-760" /><polygon points="-1013,-715 -1013,-715 -1013,-715 -1032.3361,-761.6644 -1074.3259,-863 -1074.3259,-863" /><polygon points="-727.5987,-683.2604 -727.5986,-683.2605 -727.5987,-683.2604 -727.5987,-683.2604 -832,-640 -832,-640 -832,-640 -832,-640" /><polygon points="-727.5987,-683.2604 -727.5986,-683.2605 -651,-715 -651,-715 -651,-715 -651,-715 -727.5986,-683.2605" /><polygon points="-864,-1074.8235 -864,-1074.8235 -864,-1074.8235 -925.1867,-1049.629 -968,-1032 -968,-1032 -968,-1032" /><polygon points="-864,-1074.8235 -864,-1074.8235 -841.6096,-1084.0431 -832,-1088 -832,-1088 -832,-1088 -864,-1074.8235" /><polygon points="-1010.4117,-929 -1010.4117,-929 -1010.4117,-929 -1024,-896 -1024,-896" /><polygon points="-1010.4117,-929 -1010.4117,-929 -1009.2454,-931.8328 -984.8464,-991.0875 -968,-1032 -968,-1032 -968,-1032 -1010.4117,-929" /><polygon points="-696,-1032 -696,-1032 -696,-1032 -698.2015,-1032.9066 -832,-1088 -832,-1088 -832,-1088" /><polygon points="-864,-717.1765 -884.4953,-725.6157 -943.3924,-749.8676 -968,-760 -968,-760 -951,-753 -864,-717.1765" /><polygon points="-864,-717.1765 -832,-704 -832,-704 -884.4953,-725.6157 -884.4953,-725.6157" /><polygon points="-656,-934.8572 -656,-934.8571 -656,-934.8571 -656,-934.8571 -640,-896 -640,-896 -640,-896 -640,-896" /><polygon points="-696,-1032 -696,-1032 -666.353,-960 -656,-934.8571 -656,-934.8572 -656,-934.8571 -696,-1032" /><polygon points="-864,-776 -923,-800 -943.3924,-749.8676 -884.4953,-725.6157" /><polygon points="-943.3924,-749.8676 -923,-800 -923,-800 -943.3928,-749.8677" /><polygon points="-943.3928,-749.8677 -968,-760 -968,-760 -943.3924,-749.8676" /><polygon points="-943.3928,-749.8677 -884.4953,-725.6157 -832,-704 -832,-704 -832,-704 -864,-717.1765 -968,-760 -968,-760 -968,-760 -968,-760" /><polygon points="-968,-760 -968,-760 -977.3192,-782.6322 -1013.7149,-871.022 -1024,-896 -1024,-896 -1010.4117,-863 -968,-760" /><polygon points="-943.3928,-749.8677 -923,-800 -864,-776 -884.4953,-725.6157" /><polygon points="-923,-800 -923,-800 -864,-776 -864,-776" /><polygon points="-864,-776 -864,-776 -884.4953,-725.6157 -884.4953,-725.6157" /><polygon points="-1024,-896 -1024,-896 -1024,-896 -1010.4117,-929 -1010.4117,-929 -1010.4117,-929 -1010.4117,-929 -1024,-896" /><polygon points="-968,-760 -968,-760 -977.3192,-782.6323 -977.3192,-782.6322" /><polygon points="-967,-912 -1013.7149,-871.022 -977.3192,-782.6322 -937,-818" /><polygon points="-1013.7149,-871.022 -967,-912 -967,-912 -1013.7149,-871.022" /><polygon points="-1088,-929 -1088,-929 -1088,-929 -1088,-863 -1088,-863 -1088,-863" /><polygon points="-1013.7149,-871.022 -1024,-896 -1024,-896 -1013.7149,-871.022" /><polygon points="-937,-818 -977.3192,-782.6323 -1013.7149,-871.022 -967,-912" /><polygon points="-967,-912 -967,-912 -937,-818 -937,-818" /><polygon points="-937,-818 -937,-818 -977.3192,-782.6322 -977.3192,-782.6323" /><polygon points="-1013,-715 -1013,-715 -1074.3259,-863 -1088,-896 -1088,-896" /><polygon points="-1013,-1077 -1013,-1077 -1013,-1077 -1054.4069,-977.0713 -1057.3833,-969.8882 -1080.2345,-914.7406 -1088,-896 -1088,-896" /><polygon points="-832,-640 -832,-640 -832,-640 -1013,-715 -1013,-715 -1013,-715" /><polygon points="-832,-1152 -832,-1152 -651,-1077 -651,-1077 -651,-1077" /><polygon points="-832,-640 -832,-640 -768.4404,-666.3369 -763.1133,-668.5443 -736,-679.7792 -727.5987,-683.2603 -727.5986,-683.2605 -727.5987,-683.2604 -832,-640" /><polygon points="-968,-1032 -968,-1032 -968,-1032 -864,-1074.8235 -864,-1074.8235 -864,-1074.8235 -864,-1074.8235 -968,-1032" /><polygon points="-864,-1138.7404 -986.4534,-1088 -1013,-1077 -1013,-1077 -864,-1138.7404" /><polygon points="-864,-1138.7404 -864,-1138.7404 -832,-1152 -832,-1152" /><polygon points="-576,-896 -576,-896 -595.8895,-848 -651,-715 -651,-715" /><polygon points="-589.674,-929 -589.674,-929 -589.674,-929 -576,-896 -576,-896 -576,-896" /><polygon points="-651,-1077 -651,-1077 -619.2601,-1000.401 -589.674,-929 -589.674,-929" /><polygon points="-928,-967 -984.8464,-991.0875 -1009.2454,-931.8328 -953,-908" /><polygon points="-1009.2454,-931.8328 -1009.2454,-931.8328 -953,-908 -953,-908" /><polygon points="-984.8464,-991.0875 -928,-967 -928,-967 -984.8464,-991.0875" /><polygon points="-1010.4117,-929 -1009.2454,-931.8328 -1009.2454,-931.8328 -1010.4117,-929" /><polygon points="-984.8464,-991.0875 -968,-1032 -968,-1032 -984.8464,-991.0875" /><polygon points="-1009.2454,-931.8328 -984.8464,-991.0875 -928,-967 -953,-908" /><polygon points="-928,-967 -928,-967 -953,-908 -953,-908" /><polygon points="-894,-1056 -951,-1026 -921,-969 -864,-999" /><polygon points="-1089,-928 -1089,-928 -1152,-928 -1152,-928 -1152,-928" /><polygon points="-1152,-864 -1152,-864 -1152,-864 -1089,-864 -1089,-864" /><polygon points="-1089,-864 -1089,-864 -1089,-928 -1089,-928" /><polygon points="-864,-999 -921,-969 -951,-1026 -894,-1056" /><polygon points="-864,-999 -864,-999 -921,-969 -921,-969" /><polygon points="-921,-969 -921,-969 -951,-1026 -951,-1026" /><polygon points="-951,-1026 -951,-1026 -894,-1056 -894,-1056" /><polygon points="-894,-1056 -894,-1056 -864,-999 -864,-999" /><polygon points="-841.6096,-1084.0431 -864,-1074.8235 -864,-1074.8235 -841.6096,-1084.0431" /><polygon points="-832,-1088 -832,-1088 -832,-1088 -787.9172,-1069.8482 -696,-1032 -696,-1032 -696,-1032 -832,-1088" /><polygon points="-835.9756,-1086.363 -781,-1064 -781,-1064 -835.9756,-1086.363" /><polygon points="-781,-1064 -835.9756,-1086.363 -841.6096,-1084.0431 -864,-1029 -805,-1005" /><polygon points="-832,-1088 -832,-1088 -835.9756,-1086.363 -835.9756,-1086.363" /><polygon points="-805,-1005 -864,-1029 -841.6096,-1084.0431 -835.9756,-1086.363 -781,-1064" /><polygon points="-805,-1005 -805,-1005 -864,-1029 -864,-1029" /><polygon points="-864,-1029 -864,-1029 -841.6096,-1084.0431 -841.6096,-1084.0431" /><polygon points="-781,-1064 -781,-1064 -805,-1005 -805,-1005" /><polygon points="-704,-1032 -763,-1056 -787,-997 -728,-973" /><polygon points="-1153,-864 -1153,-864 -1153,-928 -1153,-928" /><polygon points="-1088,-929 -1088,-929 -1088,-929 -1152,-929 -1152,-929" /><polygon points="-1088,-863 -1088,-863 -1088,-863 -1152,-863 -1152,-863" /><polygon points="-1153,-928 -1153,-928 -1152,-928 -1152,-928 -1152,-928" /><polygon points="-1152,-928 -1152,-928 -1152,-928 -1152,-929 -1152,-929" /><polygon points="-1152,-864 -1152,-864 -1152,-864 -1153,-864 -1153,-864" /><polygon points="-1152,-928 -1152,-928 -1152,-928 -1152,-864 -1152,-864 -1152,-864" /><polygon points="-1152,-863 -1152,-863 -1152,-864 -1152,-864 -1152,-864" /><polygon points="-728,-973 -787,-997 -763,-1056 -704,-1032" /><polygon points="-787,-997 -787,-997 -763,-1056 -763,-1056" /><polygon points="-728,-973 -728,-973 -787,-997 -787,-997" /><polygon points="-704,-1032 -704,-1032 -728,-973 -728,-973" /><polygon points="-763,-1056 -763,-1056 -704,-1032 -704,-1032" /><polygon points="-696,-760 -696,-760 -696,-760 -696,-760 -735.1,-743.9 -785.9581,-722.9585 -832,-704 -832,-704 -832,-704 -832,-704 -696,-760" /><polygon points="-679,-976 -736,-937 -706,-864 -649,-903" /><polygon points="-736,-937 -736,-937 -706,-864 -706,-864" /><polygon points="-679.5294,-800 -679.5294,-800 -679.5294,-800 -689.7658,-775.1401 -696,-760 -696,-760" /><polygon points="-656,-857.1428 -672,-818.2856 -679.5294,-800 -679.5294,-800 -640,-896 -640,-896 -640,-896" /><polygon points="-736,-937 -736,-937 -679,-976 -679,-976" /><polygon points="-736,-937 -679,-976 -649,-903 -706,-864" /><polygon points="-649,-903 -649,-903 -706,-864 -706,-864" /><polygon points="-679,-976 -679,-976 -649,-903 -649,-903" /><polygon points="-679.5294,-800 -736,-800 -736,-800 -734.2122,-800 -720,-800 -679.5294,-800" /><polygon points="-672,-818.2856 -679.5294,-800 -679.5294,-800 -672,-818.2856" /><polygon points="-679.5294,-800 -672,-818.2856 -672,-896 -736,-896 -736,-800" /><polygon points="-672,-896 -672,-896 -720,-896 -736,-896 -736,-896" /><polygon points="-651,-715 -651,-715 -651,-715 -577,-893.5867 -576,-896 -576,-896 -651,-715" /><polygon points="-666.353,-960 -666.353,-960 -696,-1032 -696,-1032 -666.353,-960" /><polygon points="-666.353,-960 -656,-934.8571 -656,-934.8571 -666.353,-960" /><polygon points="-656,-934.8571 -666.353,-960 -656,-960" /><polygon points="-720,-800 -734.2122,-800 -689.7658,-775.1401 -679.5294,-800" /><polygon points="-720,-851.56 -736,-801 -736,-896 -720,-896" /><polygon points="-734.2122,-800 -736,-800 -736,-801" /><polygon points="-720,-851.56 -720,-896 -672,-896 -672,-818.286 -672,-800 -679.5294,-800 -720,-800" /><polygon points="-672,-800 -672,-818.286 -656,-857.143 -656,-800" /><polygon points="-736,-801 -736,-801 -689.7658,-775.1401 -689.7658,-775.1401" /><polygon points="-696,-760 -689.7658,-775.1401 -689.7658,-775.1401 -696,-760" /><polygon points="-736,-801 -736,-800 -736,-800 -736,-896 -736,-896" /><polygon points="-656,-857.143 -656,-857.1428 -640,-896 -640,-896" /><polygon points="-656,-857.143 -672,-818.286 -672,-818.2856 -672,-818.2856 -656,-857.1428" /><polygon points="-672,-896 -672,-896 -672,-818.2856 -672,-818.286" /><polygon points="-656,-800 -656,-800 -656,-857.143 -656,-857.1428 -656,-800" /><polygon points="-736,-801 -720,-851.5605 -720,-800 -734.2122,-800" /><polygon points="-720,-800 -679.5294,-800 -689.7658,-775.1401 -734.2122,-800" /><polygon points="-679.5294,-800 -656,-800 -656,-800 -679.5294,-800" /><polygon points="-679.5294,-800 -720,-800 -720,-800 -679.5294,-800 -672,-800 -656,-800 -656,-800" /><polygon points="-720,-851.5605 -720,-851.56 -720,-800 -720,-800" /><polygon points="-736,-801 -736,-801 -720,-851.56 -720,-851.5605" /><polygon points="-696,-760 -696,-760 -735.1,-743.9 -735.1,-743.9" /><polygon points="-785.9581,-722.9585 -828,-765 -828,-765 -795.9338,-732.9338 -785.9583,-722.9584" /><polygon points="-749,-844 -749,-844 -763.3398,-829.6602 -828,-765 -828,-765" /><polygon points="-749,-844 -828,-765 -785.9581,-722.9585 -735.1,-743.9 -692,-787" /><polygon points="-656,-712.9282 -656,-712.9283 -656,-712.9283 -651,-715 -651,-715 -656,-712.9283" /><polygon points="-727.5987,-683.2603 -736,-679.7792 -736,-679.7792 -692.4932,-697.8069 -656,-712.9283 -656,-712.9282" /><polygon points="-727.5987,-683.2603 -656,-712.9282 -656,-712.9283 -727.5986,-683.2605" /><polygon points="-864,-1074.8235 -832,-1088 -832,-1088 -841.6096,-1084.0431 -864,-1074.8235" /><polygon points="-986.4534,-1088 -986.454,-1088 -1013,-1077 -1013,-1077 -986.4534,-1088" /><polygon points="-1010.4117,-929 -968,-1032 -968,-1032 -984.8464,-991.0875 -1009.2454,-931.8328 -1010.4117,-929" /><polygon points="-864,-864 -864,-1074.8235 -968,-1032 -1010.4117,-929 -1024,-896 -1005.3979,-850.8235 -864,-850.8235" /><polygon points="-1005.3979,-850.8235 -968,-760 -864,-717.1765 -864,-769.347 -864,-850.8235" /><polygon points="-796.0535,-718.8016 -791.1927,-720.8031 -788.3227,-715.4618 -793,-713" /><polygon points="-763.3398,-829.6602 -730.4083,-768.3711 -733.7079,-766.5864 -795.9338,-732.9338 -828,-765" /><polygon points="-730.4083,-768.3711 -763.3398,-829.6602 -749,-844 -692,-787 -719.2343,-759.7656 -728.0054,-763.8992" /><polygon points="-643.5276,-890.3096 -646,-885 -656,-863.5246 -656,-857.1428 -642.9313,-888.8812" /><polygon points="-795.9338,-732.9338 -797.3106,-732.1892 -791.1927,-720.8031 -785.9583,-722.9584" /><polygon points="-679.5294,-800 -685.58,-800 -706.1528,-755.8195 -696,-760" /><polygon points="-801.8174,-729.7522 -818,-721 -841.8983,-708.0758 -832,-704 -796.0535,-718.8016" /><polygon points="-841.8983,-708.0758 -818,-721 -848,-778 -864,-769.347 -864,-717.1765" /><polygon points="-735.1,-743.9 -708.6654,-754.7848 -719.2343,-759.7656" /><polygon points="-656,-889.7129 -646,-885 -643.5276,-890.3096 -653,-913 -656,-911.7288" /><polygon points="-733.7079,-766.5864 -730.4083,-768.3711 -728.0054,-763.8992" /><polygon points="-708.6654,-754.7848 -706.1528,-755.8195 -707,-754" /><polygon points="-730.2917,-931.815 -733,-926 -726.6063,-922.9871" /><polygon points="-704.0662,-1035.3214 -672.6215,-960 -666.353,-960 -696,-1032" /><polygon points="-787.9172,-1069.8482 -755,-991 -696,-1016 -704.0662,-1035.3214" /><polygon points="-755,-991 -787.9172,-1069.8482 -832,-1088 -864,-1074.8235 -864,-864 -761.8702,-864 -733,-926 -731.603,-929 -730.2917,-931.815" /><polygon points="-864,-864 -864,-850.8235 -864,-769.347 -848,-778 -836.9055,-784 -786.4043,-811.312 -761.8702,-864" /><polygon points="-656,-934.8571 -656,-920.1851 -642.9313,-888.8812 -640,-896" /><polygon points="-755,-991 -755,-991 -696,-1016 -696,-1016" /><polygon points="-726.6063,-922.9871 -733,-926 -733,-926 -726.6061,-922.9867" /><polygon points="-656,-934.8571 -656,-960 -656,-960 -656,-920.1859 -656,-920.1851" /><polygon points="-656,-889.7129 -656,-911.7288 -656,-911.7287 -656,-889.7126" /><polygon points="-653,-913 -656,-920.1851 -656,-920.1859 -653,-913" /><polygon points="-656,-911.7288 -653,-913 -653,-913 -656,-911.7287" /><polygon points="-672.6215,-960 -696,-1016 -696,-1016 -672.6214,-960" /><polygon points="-656,-960 -666.353,-960 -672.6215,-960 -672.6214,-960 -656,-960" /><polygon points="-685.58,-800 -679.5294,-800 -656,-800 -656,-800 -685.5801,-800" /><polygon points="-656,-800 -656,-857.1428 -656,-863.5246 -656,-863.5243 -656,-800" /><polygon points="-646,-885 -646,-885 -656,-863.5243 -656,-863.5246" /><polygon points="-706.1528,-755.8195 -685.58,-800 -685.5801,-800 -685.5798,-800 -707,-754 -707,-754 -707,-754" /><polygon points="-797.3106,-732.1892 -797.3105,-732.1892 -788.3227,-715.4618 -788.3227,-715.4618" /><polygon points="-733.7079,-766.5864 -733.7081,-766.5864 -736,-765.3468 -797.3105,-732.1892 -797.3106,-732.1892" /><polygon points="-785.9583,-722.9584 -832,-704 -832,-704 -785.9581,-722.9585" /><polygon points="-968,-760 -1005.3979,-850.8235 -1024,-896 -1024,-896 -1013.7149,-871.022 -977.3192,-782.6323 -968,-760" /><polygon points="-656,-960 -656,-960 -666.353,-960 -666.353,-960" /><polygon points="-656,-960 -656,-934.8571 -656,-934.8571 -656,-960" /><polygon points="-640,-896 -656,-857.1428 -656,-857.143 -640,-896" /><polygon points="-679.5294,-800 -696,-760 -696,-760 -696,-760 -689.7658,-775.1401 -679.5294,-800" /><polygon points="-692,-787 -692,-787 -735.1,-743.9 -735.1,-743.9" /><polygon points="-749,-844 -749,-844 -692,-787 -692,-787" /><polygon points="-692.4932,-697.8069 -692.4931,-697.8069 -656,-712.9283 -656,-712.9283" /><polygon points="-728.006,-763.8992 -733.7081,-766.5864 -733.7079,-766.5864 -707,-754 -707,-754" /><polygon points="-733.7081,-766.5864 -728.006,-763.8992 -720,-749 -736,-740.403 -736,-765.3468" /><polygon points="-797.3105,-732.1892 -736,-765.3468 -736,-740.403 -787,-713" /><polygon points="-720,-749 -728.006,-763.8992 -728.0056,-763.8995 -720,-749" /><polygon points="-787,-713 -773.9723,-720 -773.9724,-720 -773.9724,-720 -787,-713" /><polygon points="-788.3227,-715.4618 -788.3228,-715.4619 -793,-713 -793,-713 -788.3227,-715.4618" /><polygon points="-1088,-929 -1088,-929 -1088,-929 -1088,-863 -1088,-863 -1088,-863" /><polygon points="-848,-778 -848,-720 -848,-720 -848,-784 -848,-784" /><polygon points="-848,-778 -836.9056,-784 -836.9055,-784 -848,-778" /><polygon points="-836.9056,-784 -848,-778 -848,-784" /><polygon points="-796.6842,-720 -801.8171,-729.7524 -801.8174,-729.7522 -796.6842,-720" /><polygon points="-736,-720 -736,-740.4028 -736,-740.4028 -736,-720" /><polygon points="-773.9724,-720 -736,-740.4028 -736,-720" /><polygon points="-736,-740.4028 -773.9724,-720 -773.9723,-720 -736,-740.403" /><polygon points="-819.8495,-720 -801.8171,-729.7524 -796.6842,-720" /><polygon points="-848,-778 -818,-721 -819.8495,-720 -848,-720" /><polygon points="-818,-721 -848,-778 -848,-778 -818,-721" /><polygon points="-801.8171,-729.7524 -818,-721 -818,-721 -801.8174,-729.7522" /><polygon points="-656,-889.7126 -656,-889.7125 -646,-885 -646,-885 -646,-885 -656,-889.7129" /><polygon points="-656,-889.7126 -733,-926 -733,-926 -731.4695,-925.2787 -656,-889.7125" /><polygon points="-653,-913 -656,-920.1859 -656,-911.7287" /><polygon points="-656,-911.7287 -656,-920.1859 -656,-960 -672.6214,-960 -742.0583,-960 -726.6061,-922.9867 -656,-889.7126" /><polygon points="-755,-991 -742.0583,-960 -672.6214,-960 -696,-1016" /><polygon points="-742.0583,-960 -755,-991 -755,-991 -730.2917,-931.815 -726.6063,-922.9871 -726.6061,-922.9867" /><polygon points="-656,-863.5243 -685.5801,-800 -656,-800" /><polygon points="-656,-863.5243 -646,-885 -646,-885 -685.5798,-800 -685.5801,-800" /><polygon points="-986.454,-1088 -986.4534,-1088 -986.4534,-1088 -864,-1138.7404 -864,-1138.7403 -986.454,-1088" /><polygon points="-992,-1088 -993,-1088 -994.9485,-1084.48 -993.6509,-1085.0178" /><polygon points="-993,-1088 -992,-1088 -992,-1088 -993,-1088" /><polygon points="-994.9485,-1084.48 -993,-1088 -993,-1088 -994.9487,-1084.4797" /><polygon points="-1088,-896 -1026.6656,-747.9796 -1013,-715 -1013,-715 -1088,-896" /><polygon points="-656,-1060.1764 -641,-1049 -656,-1049" /><polygon points="-651,-1077 -639.3978,-1049 -640,-1049 -691,-1088 -706.9116,-1100.1677" /><polygon points="-641,-1049 -640,-1049 -639.3978,-1049 -638.6821,-1047.2729 -589.6741,-929 -656,-929 -656,-1049" /><polygon points="-800,-1152 -832,-1152 -829.5867,-1151 -800,-1151" /><polygon points="-864,-1138.7403 -834.4133,-1151 -829.5867,-1151 -713.1317,-1102.7451 -692,-1087 -666.7806,-1068.209 -731.6031,-929 -848,-929 -864,-929" /><polygon points="-729.46,-929 -657.8717,-1061.571 -656,-1060.1764 -656,-1049 -656,-929" /><polygon points="-692,-1087 -713.1317,-1102.7451 -706.9116,-1100.1677 -691,-1088" /><polygon points="-731.6031,-929 -666.7806,-1068.209 -657.8717,-1061.571 -729.46,-929 -730,-928 -731.4695,-925.2787 -733,-926" /><polygon points="-832,-1152 -864,-1152 -864,-1151 -834.4133,-1151" /><polygon points="-576,-928 -577,-928 -577,-898.4133 -576,-896" /><polygon points="-577,-893.5867 -577,-864 -576,-864 -576,-896" /><polygon points="-645.3893,-887.5748 -635.8129,-892.7538 -640,-885" /><polygon points="-656,-929 -589.6741,-929 -585.8513,-919.7743 -644.603,-888 -645.3893,-887.5748 -730,-928 -729.46,-929" /><polygon points="-640,-885 -635.8129,-892.7538 -585.8513,-919.7743 -577,-898.4133 -577,-893.5867 -651,-715 -692.493,-697.8066 -714.2828,-738.3599 -683.5769,-804.302" /><polygon points="-646,-885 -656,-889.7125 -731.4695,-925.2787 -745.0244,-900.177 -771.1189,-844.1381 -755.004,-814.1462 -694,-785 -683.5769,-804.302" /><polygon points="-608,-800 -609,-800 -635,-742 -634,-741" /><polygon points="-771.1189,-844.1381 -779.6406,-825.9171 -755.004,-814.1462" /><polygon points="-848,-929 -731.6031,-929 -733,-926 -745.0244,-900.177 -784,-828 -795.7367,-806.2654 -836.9053,-784 -848,-784" /><polygon points="-864,-914.7403 -864,-929 -848,-929 -848,-784 -848,-720 -848,-705 -864,-705" /><polygon points="-848,-705 -848,-646.6299 -864,-653.2596 -864,-697 -864,-705" /><polygon points="-779.6209,-825.88 -786.4043,-811.3125 -795.7367,-806.2654 -784,-828" /><polygon points="-736,-679.7791 -736,-720 -736,-740.4028 -720,-749 -692.493,-697.8066" /><polygon points="-720,-749 -728.0056,-763.8995 -707,-754 -714.2828,-738.3599" /><polygon points="-800,-641 -829.5867,-641 -832,-640 -800,-640" /><polygon points="-787,-713 -773.9724,-720 -736,-720 -736,-679.7791 -763.1132,-668.5443" /><polygon points="-768.4403,-666.3368 -793,-713 -788.3228,-715.4619 -763.1132,-668.5443" /><polygon points="-796.6841,-720 -768.4403,-666.3368 -829.5867,-641 -834.4133,-641 -848,-646.6299 -848,-705 -848,-720" /><polygon points="-834.4133,-641 -864,-641 -864,-640 -832,-640" /><polygon points="-864,-1138.7403 -864,-929 -864,-914.7403 -1080.2345,-914.7406 -1057.3833,-969.8882 -1023,-1032 -993.6511,-1085.0174" /><polygon points="-864,-914.7403 -864,-705 -864,-697 -960,-697 -1011,-736 -1026.6656,-747.9796 -1088,-896 -1080.2345,-914.7406" /><polygon points="-1057.3833,-969.8882 -1054.4069,-977.0713 -1024,-1032 -1023,-1032" /><polygon points="-1024,-1032 -1054.4069,-977.0713 -1013,-1077 -994.9487,-1084.4797" /><polygon points="-969.5601,-697 -1013,-715 -1025.4353,-745.0105 -1012,-735 -961,-697" /><polygon points="-1012,-735 -1025.4353,-745.0105 -1026.6656,-747.9796 -1011,-736" /><polygon points="-969.5601,-697 -961,-697 -960,-697 -864,-697 -864,-653.2596" /><polygon points="-640,-1049 -640,-1049 -691,-1088 -691,-1088" /><polygon points="-609,-800 -609,-800 -635,-742 -635,-742" /><polygon points="-784,-828 -784,-828 -694,-785 -694,-785" /><polygon points="-645.3893,-887.5748 -640,-885 -640,-885 -730,-928 -730,-928" /><polygon points="-992,-1088 -992,-1088 -993,-1088 -993,-1088" /><polygon points="-969.5601,-697 -864,-653.2596 -832,-640 -832,-640 -832,-640 -1013,-715 -1013,-715" /><polygon points="-651,-1077 -706.9116,-1100.1677 -713.1317,-1102.7451 -829.5867,-1151 -832,-1152 -832,-1152 -651,-1077" /><polygon points="-651,-715 -651,-715 -692.4931,-697.8069 -692.493,-697.8066" /><polygon points="-736,-679.7791 -692.493,-697.8066 -692.4931,-697.8069 -692.4932,-697.8069 -736,-679.7792" /><polygon points="-763.1132,-668.5443 -736,-679.7791 -736,-679.7792 -736,-679.7792 -763.1133,-668.5443" /><polygon points="-768.4403,-666.3368 -763.1132,-668.5443 -763.1133,-668.5443 -768.4404,-666.3369" /><polygon points="-832,-640 -829.5867,-641 -768.4403,-666.3368 -768.4404,-666.3369 -832,-640" /><polygon points="-993.6511,-1085.0174 -993.6509,-1085.0178 -986.454,-1088 -986.454,-1088" /><polygon points="-1013,-1077 -1013,-1077 -994.9485,-1084.48 -994.9487,-1084.4797" /><polygon points="-832,-1152 -864,-1138.7403 -864,-1138.7404 -832,-1152" /><polygon points="-992,-1088 -992,-1088 -993.6509,-1085.0178 -993.6511,-1085.0174" /><polygon points="-576,-896 -589.6741,-929 -589.674,-929 -576,-896" /><polygon points="-589.6741,-929 -638.6821,-1047.2729 -651,-1077 -651,-1077 -589.674,-929" /><polygon points="-795.7367,-806.2654 -786.4043,-811.3125 -786.4043,-811.312 -836.9055,-784 -836.9056,-784 -836.9053,-784" /><polygon points="-836.9053,-784 -836.9056,-784 -848,-784 -848,-784" /><polygon points="-786.4043,-811.3125 -771.1189,-844.1381 -733,-926 -733,-926 -733,-926 -786.4043,-811.312" /><polygon points="-793,-713 -796.6841,-720 -796.6842,-720 -796.6842,-720 -793,-713" /><polygon points="-788.3228,-715.4619 -788.3227,-715.4618 -787,-713 -787,-713" /><polygon points="-728.0056,-763.8995 -728.006,-763.8992 -707,-754 -707,-754" /><polygon points="-736,-740.4028 -736,-740.4028 -736,-740.403 -720,-749 -720,-749" /><polygon points="-773.9724,-720 -773.9724,-720 -736,-720 -736,-720" /><polygon points="-848,-720 -848,-720 -819.8495,-720 -796.6842,-720 -796.6841,-720" /><polygon points="-784,-828 -784,-828 -745.0244,-900.177 -731.4695,-925.2787 -730,-928 -730,-928" /><polygon points="-640,-885 -694,-785 -784,-828 -730,-928" /><polygon points="-640,-885 -640,-885 -683.5769,-804.302 -694,-785 -694,-785" /><polygon points="-1089,-928 -1089,-928 -1152,-928 -1152,-928 -1152,-928" /><polygon points="-1152,-864 -1152,-864 -1152,-864 -1089,-864 -1089,-864" /><polygon points="-1089,-864 -1089,-864 -1089,-928 -1089,-928" /><polygon points="-1088,-863 -1088,-863 -1088,-864 -1088,-928 -1088,-929 -1088,-929 -1088,-929 -1088,-863" /><polygon points="-1153,-864 -1153,-864 -1153,-928 -1153,-928" /><polygon points="-1088,-929 -1088,-929 -1088,-929 -1152,-929 -1152,-929" /><polygon points="-1088,-863 -1088,-863 -1088,-863 -1152,-863 -1152,-863" /><polygon points="-1153,-928 -1153,-928 -1152,-928 -1152,-928 -1152,-928" /><polygon points="-1152,-928 -1152,-928 -1089,-928 -1089,-928 -1152,-928" /><polygon points="-1152,-928 -1152,-928 -1152,-928 -1152,-929 -1152,-929" /><polygon points="-1152,-864 -1152,-864 -1152,-864 -1153,-864 -1153,-864" /><polygon points="-1152,-928 -1152,-928 -1152,-928 -1152,-864 -1152,-864 -1152,-864" /><polygon points="-1152,-863 -1152,-863 -1152,-864 -1152,-864 -1152,-864" /><polygon points="-832,-640 -800,-640 -800,-640 -832,-640 -864,-640 -864,-640" /><polygon points="-1088,-864 -1088,-864 -1088,-928 -1088,-928" /><polygon points="-1026.6656,-747.9796 -1088,-896 -1088,-896 -1013,-715 -1013,-715" /><polygon points="-961,-697 -950.2758,-689.0093 -948.6931,-688.3535 -951.8142,-690.7402 -960,-697" /><polygon points="-1026.6656,-747.9796 -1025.4353,-745.0105 -1012,-735 -1011,-736" /><polygon points="-1012,-735 -1025.4353,-745.0105 -1013,-715 -950.2758,-689.0093" /><polygon points="-994.9487,-1084.4799 -993,-1088 -992,-1088 -993.651,-1085.0175" /><polygon points="-1024,-1032 -1054.4069,-977.0715 -1057.3834,-969.8879 -1023,-1032" /><polygon points="-1024,-1032 -994.9487,-1084.4799 -1013,-1077 -1054.4069,-977.0715" /><polygon points="-864,-928 -864,-1138.7402 -993.651,-1085.0175 -1023,-1032 -1057.3834,-969.8879 -1080.2347,-914.7402 -864,-914.7402" /><polygon points="-1080.2347,-914.7402 -1088,-896 -1026.6656,-747.9796 -1011,-736 -960,-697 -951.8142,-690.7402 -864,-690.7402 -864,-864 -864,-914.7402" /><polygon points="-951.8142,-690.7402 -948.6931,-688.3535 -864,-653.2598 -864,-690.7402" /><polygon points="-634,-741 -635,-742 -609,-800 -608,-800" /><polygon points="-832,-640 -864,-640 -864,-641 -834.4132,-641" /><polygon points="-576,-864 -577,-864 -577,-893.5867 -576,-896" /><polygon points="-800,-690.7402 -800,-864 -864,-864 -864,-690.7402 -864,-653.2598 -834.4132,-641 -829.5867,-641 -800,-653.2596" /><polygon points="-577,-898.4133 -577,-928 -576,-928 -576,-896" /><polygon points="-800,-640 -832,-640 -829.5867,-641 -800,-641" /><polygon points="-834.4133,-1151 -864,-1151 -864,-1152 -832,-1152" /><polygon points="-800,-1138.7403 -829.5867,-1151 -834.4133,-1151 -864,-1138.7402 -864,-928 -800,-928" /><polygon points="-638.6821,-1047.2729 -641,-1049 -692,-1087 -713.1319,-1102.7453 -800,-1138.7403 -800,-928 -800,-914.7403 -583.7653,-914.7403" /><polygon points="-800,-914.7403 -800,-864 -800,-690.7402 -709.547,-690.7402 -651,-715 -577,-893.5867 -577,-898.4133 -583.7653,-914.7403" /><polygon points="-800,-690.7402 -800,-653.2596 -709.547,-690.7402" /><polygon points="-691,-1088 -706.9117,-1100.1678 -713.1319,-1102.7453 -692,-1087" /><polygon points="-638.6821,-1047.2729 -639.1185,-1048.3259 -640,-1049 -641,-1049" /><polygon points="-639.1185,-1048.3259 -651,-1077 -706.9117,-1100.1678" /><polygon points="-800,-1151 -829.5867,-1151 -832,-1152 -800,-1152" /><polygon points="-832,-1152 -832,-1152 -864,-1138.7402 -1013,-1077 -1013,-1077" /><polygon points="-864,-928 -864,-914.7402 -864,-864 -864,-864 -864,-914.7402 -864,-928" /><polygon points="-800,-864 -800,-914.7403 -800,-928 -800,-928 -800,-914.7403 -800,-864" /><polygon points="-829.5867,-641 -832,-640 -832,-640 -800,-653.2596 -651,-715 -651,-715" /><polygon points="-1080.2347,-914.7402 -1054.4069,-977.0715 -1013,-1077 -1013,-1077 -1080.2347,-914.7402 -1088,-896 -1088,-896" /><polygon points="-576,-896 -576,-928 -576,-928 -576,-896 -576,-864 -576,-864" /><polygon points="-832,-1152 -864,-1152 -864,-1152 -832,-1152 -800,-1152 -800,-1152" /><polygon points="-864,-640 -864,-640 -864,-641 -864,-641" /><polygon points="-864,-1151 -864,-1151 -864,-1152 -864,-1152" /><polygon points="-576,-928 -577,-928 -577,-928 -576,-928" /><polygon points="-800,-1152 -800,-1152 -800,-1151 -800,-1151" /><polygon points="-640,-1049 -640,-1049 -641,-1049 -641,-1049" /><polygon points="-692,-1087 -692,-1087 -691,-1088 -691,-1088" /><polygon points="-641,-1049 -641,-1049 -656,-1060.1764 -666.7806,-1068.209 -692,-1087 -692,-1087" /><polygon points="-834.4133,-1151 -829.5867,-1151 -800,-1151 -800,-1151 -829.5867,-1151 -834.4133,-1151 -864,-1151 -864,-1151" /><polygon points="-800,-641 -800,-641 -800,-640 -800,-640" /><polygon points="-577,-928 -577,-898.4133 -577,-893.5867 -577,-864 -577,-864 -577,-893.5867 -577,-898.4133 -577,-928" /><polygon points="-577,-864 -576,-864 -576,-864 -577,-864" /><polygon points="-608,-800 -608,-800 -634,-741 -634,-741" /><polygon points="-608,-800 -609,-800 -609,-800 -608,-800" /><polygon points="-634,-741 -634,-741 -635,-742 -635,-742" /><polygon points="-829.5867,-641 -834.4132,-641 -864,-641 -864,-641 -834.4133,-641 -829.5867,-641 -800,-641 -800,-641" /><polygon points="-1023,-1032 -1023,-1032 -1024,-1032 -1024,-1032" /><polygon points="-994.9487,-1084.4799 -1024,-1032 -1024,-1032 -994.9487,-1084.4797 -993,-1088 -993,-1088" /><polygon points="-993.651,-1085.0175 -992,-1088 -992,-1088 -1023,-1032 -1023,-1032" /><polygon points="-960,-697 -960,-697 -961,-697 -961,-697" /><polygon points="-1011,-736 -1011,-736 -960,-697 -960,-697" /><polygon points="-1012,-735 -1012,-735 -1011,-736 -1011,-736" /><polygon points="-961,-697 -961,-697 -1012,-735 -1012,-735" /><polygon points="-1088,-928 -1088,-928 -1088,-929 -1088,-929 -1088,-928" /><polygon points="-1013,-1077 -864,-1138.7402 -864,-928 -864,-914.7402 -1080.2347,-914.7402" /><polygon points="-864,-914.7402 -864,-864 -864,-690.7402 -954.453,-690.7402 -1013,-715 -1088,-896 -1080.2347,-914.7402" /><polygon points="-864,-690.7402 -864,-653.2598 -954.453,-690.7402" /><polygon points="-864,-653.2598 -864,-690.7402 -864,-864 -800,-864 -800,-690.7402 -800,-653.2596 -832,-640" /><polygon points="-864,-1138.7402 -832,-1152 -800,-1138.7403 -800,-928 -864,-928" /><polygon points="-800,-928 -800,-1138.7403 -651,-1077 -583.7653,-914.7403 -800,-914.7403" /><polygon points="-583.7653,-914.7403 -576,-896 -651,-715 -709.5465,-690.7402 -800,-690.7402 -800,-864 -800,-914.7403" /><polygon points="-709.5465,-690.7402 -800,-653.2596 -800,-690.7402" /><polygon points="-800,-1138.7403 -832,-1152 -832,-1152 -829.5867,-1151 -800,-1138.7403 -713.1319,-1102.7453 -706.9117,-1100.1678 -651,-1077 -651,-1077" /><polygon points="-954.453,-690.7402 -832,-640 -832,-640 -950.2758,-689.0093 -1013,-715 -1013,-715" /><polygon points="-583.7653,-914.7403 -651,-1077 -651,-1077 -639.1185,-1048.3259 -638.6821,-1047.2729 -583.7653,-914.7403 -576,-896 -576,-896" /><polygon points="-800,-928 -800,-928 -864,-928 -864,-928" /><polygon points="-576,-896 -576,-896 -577,-893.5867 -651,-715 -651,-715" /><polygon points="-864,-864 -864,-864 -800,-864 -800,-864" /><polygon points="-1089,-928 -1152,-928 -1152,-928 -1088,-928 -1088,-928" /><polygon points="-1152,-928 -1152,-928 -1153,-928 -1153,-928 -1152,-928" /><polygon points="-1089,-864 -1152,-864 -1152,-864 -1152,-864 -1089,-864" /><polygon points="-1152,-864 -1152,-864 -1152,-928 -1152,-928 -1152,-928 -1152,-864" /><polygon points="-1088,-864 -1089,-864 -1089,-928 -1088,-928" /><polygon points="-1089,-928 -1089,-864 -1089,-864 -1089,-928" /><polygon points="-1152,-864 -1152,-864 -1152,-863 -1152,-863 -1152,-864" /><polygon points="-1088,-863 -1088,-864 -1088,-864 -1088,-864 -1088,-863" /><polygon points="-1088,-928 -1088,-928 -1088,-864 -1088,-864" /><polygon points="-1088,-864 -1088,-864 -1088,-928 -1088,-928" /><polygon points="-1152,-864 -1153,-864 -1153,-928 -1152,-928" /><polygon points="-1152,-928 -1152,-929 -1088,-929 -1088,-928" /><polygon points="-1088,-928 -1152,-928 -1152,-864 -1088,-864" /><polygon points="-1088,-864 -1152,-864 -1152,-928 -1088,-928" /><polygon points="-1088,-863 -1152,-863 -1152,-864 -1088,-864" /><polygon points="-1153,-928 -1153,-864 -1153,-864 -1153,-928" /><polygon points="-1152,-863 -1088,-863 -1088,-863 -1088,-863 -1152,-863" /><polygon points="-1152,-929 -1152,-928 -1152,-928 -1152,-928 -1152,-929" /><polygon points="-1152,-864 -1152,-864 -1089,-864 -1088,-864 -1088,-864" /><polygon points="-1153,-864 -1152,-864 -1152,-864 -1152,-864 -1153,-864" /></g></defs><rect fill="#fff" height="2226.0" id="background" width="2675.0" x="-2298.0" y="-2041.0" /><use fill="none" stroke="black" stroke-miterlimit="0" stroke-width="15" xlink:href="#bsp_ref" /><use fill="white" stroke="black" stroke-width="1" xlink:href="#bsp_ref" /></svg>