<?xml version="1.0" encoding="utf-8" ?>
<svg baseProfile="tiny" height="100%" version="1.2" viewBox="-550.0 -230.0 1228.0 1228.0" width="100%" xmlns="http://www.w3.org/2000/svg" xmlns:ev="http://www.w3.org/2001/xml-events" xmlns:xlink="http://www.w3.org/1999/xlink"><defs><g id="bsp_ref"><polygon points="-56,-16 56,-16 64,-16 64,-16 -64,-16 -64,-16" /><polygon points="-56,-16 -64,-16 -64,-48 -56,-48" /><polygon points="-64,-60 -64,-84 -56,-84 -56,-60" /><polygon points="-64,-96 -64,-128 -56,-128 -56,-96" /><polygon points="64,-16 56,-16 56,-48 64,-48" /><polygon points="56,-60 56,-84 64,-84 64,-60" /><polygon points="-56,-48 -56,-60 -56,-84 -56,-96 -56,-128 56,-128 56,-96 56,-84 56,-60 56,-48 56,-16 -56,-16" /><polygon points="56,-128 64,-128 64,-96 56,-96" /><polygon points="64,-96 64,-128 64,-128 64,-96" /><polygon points="64,-60 64,-84 64,-84 64,-60" /><polygon points="128,0 128,0 192,0 192,0" /><polygon points="64,-16 64,0 48,0 -64,0 -64,-16" /><polygon points="192,0 192,0 192,24 192,24" /><polygon points="64,248 192,248 192,248 64,248" /><polygon points="64,0 128,0 192,0 192,24 192,224 64,224" /><polygon points="192,224 192,248 64,248 64,232 64,224" /><polygon points="48,272 48,240 48,232 48,232 48,304 48,304" /><polygon points="48,232 64,232 64,232 48,232" /><polygon points="48,0 64,0 64,224 64,232 48,232" /><polygon points="-96,240 -96,240 -160,240 -160,240" /><polygon points="-160,0 -128,0 -64,0 48,0 48,232 48,240 -96,240 -160,240" /><polygon points="-96,240 -96,272 -96,272 -96,272 -96,240" /><polygon points="-96,272 -64,272 -64,272 -96,272" /><polygon points="48,240 48,272 -64,272 -96,272 -96,240" /><polygon points="-64,272 -64,304 -64,304 -64,272" /><polygon points="48,304 -64,304 -64,272 48,272" /><polygon points="192,248 192,248 192,272 192,272 192,272" /><polygon points="64,232 64,232 64,248 64,248 64,248" /><polygon points="64,272 64,272 64,272 64,248 64,248" /><polygon points="64,272 192,272 192,272 64,272" /><polygon points="192,272 64,272 64,248 192,248" /><polygon points="48,232 64,232 64,248 64,272 64,296 64,304 48,304" /><polygon points="192,272 192,272 192,296 192,296 192,296" /><polygon points="64,296 64,296 64,296 64,272 64,272" /><polygon points="64,296 192,296 192,296 64,296" /><polygon points="192,296 64,296 64,272 192,272" /><polygon points="-64,304 -64,304 -96,304 -96,304" /><polygon points="-96,304 -96,304 -96,272 -96,272" /><polygon points="-64,304 -96,304 -96,272 -64,272" /><polygon points="192,296 192,296 192,320 192,320" /><polygon points="64,320 64,320 64,304 64,296 64,296" /><polygon points="64,296 192,296 192,320 64,320" /><polygon points="192,896 192,896 160,896 48,896 48,896" /><polygon points="192,896 192,800 192,800 192,864 192,896" /><polygon points="192,800 192,896 48,896 48,800" /><polygon points="48,896 160,896 160,896 32,896 32,896" /><polygon points="192,512 144,512 144,512 144,512 192,512" /><polygon points="-160,224 -160,0 -160,0 -160,240 -160,240" /><polygon points="-160,224 -160,240 -160,304 -160,320 -160,448 -160,448 -160,320 -160,224" /><polygon points="29.5,448 23.5,448 -12,448 -84,448 -78.8108,448" /><polygon points="64,448 111.4865,448 117,448 45,448 50.1892,448" /><polygon points="-128,0 -128,0 -64,0 -64,0 -128,0" /><polygon points="-128,0 -128,0 -160,0 -160,0" /><polygon points="192,0 128,0 128,0 128,0 160,0 192,0" /><polygon points="192,24 192,224 192,248 192,248 192,248 192,224 192,24" /><polygon points="192,24 192,0 192,0 192,128 192,224 192,224" /><polygon points="64,320 64,320 192,320 192,320" /><polygon points="48,304 -64,304 -64,304 -64,304 48,304" /><polygon points="-96,240 -96,272 -96,304 -160,304 -160,240" /><polygon points="-96,304 -64,304 48,304 64,304 64,320 -160,320 -160,304" /><polygon points="64,448 50.1892,448 29.5,448 -78.8108,448 -79,448 -112,448 -160,448 -160,320 64,320" /><polygon points="192,320 192,448 144,448 111.4865,448 64,448 64,320" /><polygon points="-78.8108,512 -79,512 -79,448 -78.8108,448" /><polygon points="-78.8108,512 -78.8108,448 -84,448 -84,512" /><polygon points="192,896 192,864 192,864 192,896" /><polygon points="111.4865,512 144,512 192,512 192,544 192,576 160,576 144,576 64,576 64,512" /><polygon points="144,576 160,576 160,608 144,608" /><polygon points="64,736 64,576 144,576 144,608 144,672 144,704 144,768 64,768" /><polygon points="144,672 160,672 160,704 144,704" /><polygon points="144,768 160,768 160,800 64,800 64,768" /><polygon points="-160,608 -160,576 -160,512 -112,512 -79,512 -78.8108,512 -17.5135,512 29.5,512 50.1892,512 64,512 64,576 64,736 -160,736" /><polygon points="64,736 64,768 64,800 48,800 32,800 -160,800 -160,736" /><polygon points="32,864 32,800 48,800 48,896 32,896" /><polygon points="32,864 -32,864 -128,864 -160,832 -160,800 32,800" /><polygon points="144,608 144,608 144,672 144,672" /><polygon points="160,576 192,576 192,576 176,576" /><polygon points="160,608 160,576 176,576 176,608" /><polygon points="160,704 160,672 176,672 176,704" /><polygon points="32,864 32,896 32,896 32,864" /><polygon points="192,800 160,800 176,800 192,800" /><polygon points="144,768 144,704 144,704 144,768" /><polygon points="160,800 160,768 176,768 176,800" /><polygon points="-128,864 -32,864 -32,864 -96,864 -128,864" /><polygon points="-160,512 -160,576 -160,576 -160,512" /><polygon points="-160,608 -160,736 -160,800 -160,832 -160,832 -160,800 -160,736 -160,672 -160,608" /><polygon points="-160,832 -128,864 -128,864 -160,832" /><polygon points="48,800 48,800 48,896 48,896" /><polygon points="64,800 160,800 192,800 192,800 48,800 48,800" /><polygon points="96,864 96,832 96,832 96,864" /><polygon points="96,864 144,864 144,832 96,832" /><polygon points="144,832 144,864 144,864 144,832" /><polygon points="144,864 96,864 96,864 144,864" /><polygon points="96,832 144,832 144,832 96,832" /><polygon points="-84,512 -12,512 -17.5135,512 -78.8108,512" /><polygon points="-12,512 5,512 17,512 29.5,512 -17.5135,512" /><polygon points="117,512 134,512 144,512 144,512 111.4865,512" /><polygon points="117,512 111.4865,512 64,512 50.1892,512 45,512" /><polygon points="45,448 28.7523,448 17,448 23.5,448 29.5,448 50.1892,448" /><polygon points="23.5,448 17,448 5,448 -12,448" /><polygon points="117,448 134,448 134,512 117,512" /><polygon points="-84,512 -84,448 -12,448 -12,512" /><polygon points="117,448 117,512 45,512 45,448" /><polygon points="45,512 29,512 28.7523,498.2503 28.7523,448 45,448" /><polygon points="-12,448 5,448 5,512 -12,512" /><polygon points="144,608 160,608 160,672 144,672" /><polygon points="144,768 144,704 160,704 160,768" /><polygon points="17,512 28.4783,512 29,512 45,512 50.1892,512 29.5,512" /><polygon points="-112,512 -112,512 -160,512 -160,512 -112,512" /><polygon points="-112,448 -112,448 -112,448 -160,448 -160,448 -112,448" /><polygon points="-112,448 -100.2477,448 -112,448" /><polygon points="-112,448 -112,512 -100.2477,512 -100.2477,448" /><polygon points="144,512 134,512 100,512 94.5,512 144,512" /><polygon points="144,448 134,448 117,448 111.4865,448 144,448" /><polygon points="5,448 -29,448 -29,512 5,512" /><polygon points="134,448 100,448 100,512 134,512" /><polygon points="28.4783,512 28.7523,512 28.7523,498.2503" /><polygon points="28.4783,512 28.7523,498.2503 29,512" /><polygon points="28.7523,448 61,448 66.2609,448 64,448 41.2973,448 5,448 17,448" /><polygon points="-100.2477,448 -100.2477,512 -68,512 -68,448" /><polygon points="-100,512 -79,512 -112,512 -112,512" /><polygon points="-100,448 -112,448 -112,448 -79,448" /><polygon points="-100,448 -100,512 -112,512 -112,448" /><polygon points="-100,512 -100,448 -79,448 -79,512" /><polygon points="64,-16 64,-16 64,-16 64,-48 64,-48 64,-16" /><polygon points="128,0 128,0 128,0 64,0 64,0" /><polygon points="128,0 64,0 64,0 64,0 128,0" /><polygon points="64,-16 64,0 64,0 64,-16" /><polygon points="64,0 64,-16 64,-16 64,0" /><polygon points="-64,-16 -64,0 -64,0 -64,-16" /><polygon points="-64,0 -64,-16 -64,-16 -64,0" /><polygon points="192,576 192,576 192,544 192,544 192,576" /><polygon points="192,576 192,576 192,608 192,608" /><polygon points="192,672 192,672 192,704 192,704" /><polygon points="192,768 192,768 192,800 192,800" /><polygon points="160,704 144,704 144,704 160,704 176,704" /><polygon points="176,704 192,704 192,704 192,704 192,704 160,704 160,704" /><polygon points="192,608 176,608 176,576 192,576" /><polygon points="192,704 176,704 176,672 192,672" /><polygon points="176,608 192,608 192,608 192,608 192,608 160,608 160,608" /><polygon points="160,608 160,608 160,672 160,672" /><polygon points="160,608 144,608 144,608 160,608 176,608" /><polygon points="176,672 160,672 144,672 144,672 160,672" /><polygon points="160,768 192,768 192,768 192,768 176,768 160,768 144,768 144,768" /><polygon points="192,768 176,768 192,768" /><polygon points="192,800 176,800 176,768 192,768" /><polygon points="-112,448 -100.2477,448 -68,448 -62.7391,448 -112,448" /><polygon points="64,-128 64,-128 56,-128 -56,-128 -64,-128 -64,-128" /><polygon points="64,-16 64,-16 -64,-16 -64,-16" /><polygon points="56,-60 56,-60 64,-60 64,-60" /><polygon points="-64,-60 -64,-60 -56,-60 -56,-60" /><polygon points="56,-84 56,-84 56,-96 56,-96" /><polygon points="56,-96 56,-96 64,-96 64,-96" /><polygon points="64,-128 64,-128 64,-96 64,-96" /><polygon points="64,-84 64,-84 56,-84 56,-84" /><polygon points="64,-84 64,-84 64,-60 64,-60" /><polygon points="-56,-96 -56,-96 -56,-84 -56,-84" /><polygon points="-64,-96 -64,-96 -56,-96 -56,-96" /><polygon points="-64,-128 -64,-128 -64,-96 -64,-96" /><polygon points="-56,-84 -56,-84 -64,-84 -64,-84" /><polygon points="-64,-84 -64,-84 -64,-60 -64,-60" /><polygon points="56,-48 56,-48 56,-60 56,-60" /><polygon points="64,-48 64,-48 56,-48 56,-48" /><polygon points="64,-48 64,-48 64,-16 64,-16 64,-16 64,-16 64,-16" /><polygon points="-56,-60 -56,-60 -56,-48 -56,-48" /><polygon points="-56,-48 -56,-48 -64,-48 -64,-48" /><polygon points="-64,-48 -64,-48 -64,-16 -64,-16 -64,-16 -64,-16" /><polygon points="64,0 64,-16 -64,-16 -64,0" /><polygon points="-68,512 -100.2477,512 -112,512 -112,512 -62.7391,512" /><polygon points="-68,448 -29,448 -34.5,448 -62.7391,448" /><polygon points="100,448 94.5,448 66.2609,448 61,448" /><polygon points="100,448 134,448 144,448 144,448 94.5,448" /><polygon points="100,512 100,448 61,448 61,512" /><polygon points="-29,448 -68,448 -68,512 -29,512" /><polygon points="61,448 28.7523,448 28.7523,498.2503 28.7523,512 61,512" /><polygon points="160,896 192,896 192,896 192,896 64,896 48,896 32,896 32,896 32,896" /><polygon points="192,896 160,896 160,896 192,896" /><polygon points="-192,896 -160,896 -160,896 -160,896 -160,896 -192,896" /><polygon points="-34.5,512 -29,512 -68,512 -62.7391,512" /><polygon points="66.2609,512 94.5,512 100,512 61,512" /><polygon points="32,512 64,512 66.2609,512 61,512 28.7523,512 28.4783,512 17,512 5,512 -29,512 -34.5,512" /><polygon points="-160,96 -160,0 -160,0 -160,224 -160,224" /><polygon points="-160,96 -160,224 -160,320 -160,320 -160,96" /><polygon points="64,-16 64,-16 -64,-16 -64,-16" /><polygon points="-64,-16 -64,-16 -64,-16 -64,-16 -64,-48 -64,-48 -64,-16" /><polygon points="64,320 -160,320 -160,448 -112,448 -62.7391,448 -34.5,448 41.2973,448 64,448" /><polygon points="66.2609,448 94.5,448 144,448 192,448 192,320 64,320 64,448" /><polygon points="160,0 128,0 64,0 -64,0 -64,88 -24,128 160,128" /><polygon points="192,128 192,0 160,0 160,128" /><polygon points="-64,88 -64,88 -24,128 -24,128" /><polygon points="-128,0 -160,0 -160,0 -128,0 -64,0 -64,0" /><polygon points="192,320 192,224 192,128 192,128 192,224 192,320" /><polygon points="192,320 192,320 64,320 64,320" /><polygon points="41.2973,448 -34.5,448 -29,448 5,448" /><polygon points="192,448 144,448 144,448 144,448 192,448" /><polygon points="-128,0 -64,0 -64,0 -64,0 -128,0" /><polygon points="-160,0 -128,0 -128,0 -128,0 -160,0" /><polygon points="64,0 64,0 -64,0 -64,0" /><polygon points="192,224 192,320 192,448 192,448 192,320 192,296 192,272 192,248 192,224" /><polygon points="192,544 192,544 192,512 192,512" /><polygon points="192,608 192,576 192,544 192,512 192,512 192,608" /><polygon points="192,704 192,672 192,672 192,704" /><polygon points="192,864 192,864 192,800 192,800 192,800" /><polygon points="192,896 192,864 192,800 192,768 192,768 192,896" /><polygon points="-32,896 -32,864 -32,864 -32,896" /><polygon points="32,864 32,896 32,896 32,864" /><polygon points="-32,864 32,864 32,864 -32,864" /><polygon points="-32,864 -32,864 32,864 32,864" /><polygon points="-160,832 -160,864 -160,896 -192,896 -192,800 -160,800" /><polygon points="-192,736 -192,672 -160,672 -160,736" /><polygon points="-128,864 -160,864 -160,832" /><polygon points="-96,864 -32,864 -32,896 -96,896" /><polygon points="-160,512 -160,576 -160,608 -192,608 -192,512" /><polygon points="-192,736 -160,736 -160,736 -192,736" /><polygon points="-160,608 -160,608 -192,608 -192,608" /><polygon points="-160,672 -192,672 -192,672 -160,672" /><polygon points="-96,864 -96,896 -96,896 -96,864" /><polygon points="-160,800 -192,800 -192,800 -160,800" /><polygon points="-160,896 -160,864 -160,864 -160,896" /><polygon points="-128,864 -96,864 -96,864 -160,864 -160,864" /><polygon points="-160,576 -160,576 -160,608 -160,608" /><polygon points="96,864 96,880 144,880 144,864" /><polygon points="144,880 176,880 176,832 144,832" /><polygon points="192,800 176,816 176,880 192,896" /><polygon points="48,800 64,816 176,816 192,800" /><polygon points="64,880 48,896 192,896 176,880" /><polygon points="64,816 48,800 48,896 64,880" /><polygon points="176,832 176,816 96,816 96,832" /><polygon points="64,880 96,880 96,816 64,816" /><polygon points="48,896 48,896 192,896 192,896" /><polygon points="192,704 192,736 192,768 192,768 192,768 192,752 192,720 192,704" /><polygon points="208,512 320,512 320,672 320,736 208,736" /><polygon points="320,736 320,896 208,896 208,736" /><polygon points="192,704 192,672 192,608 192,512 208,512 208,736 192,736" /><polygon points="208,736 208,896 192,896 192,768 192,736" /><polygon points="320,512 320,512 320,640 320,656 320,672 320,672" /><polygon points="192,800 192,800 192,896 192,896" /><polygon points="48,896 48,896 48,800 48,800" /><polygon points="48,800 48,800 192,800 192,800" /><polygon points="64,880 64,816 176,816 176,880" /><polygon points="48,800 64,816 64,880 48,896" /><polygon points="48,896 64,880 176,880 192,896" /><polygon points="64,816 48,800 192,800 176,816" /><polygon points="176,816 192,800 192,896 176,880" /><polygon points="232,560 248,560 280,560 296,560" /><polygon points="232,544 232,560 296,560 296,544" /><polygon points="296,544 280,544 248,544 232,544" /><polygon points="232,576 296,576 296,560 232,560" /><polygon points="296,560 296,576 296,576 296,560" /><polygon points="232,576 232,560 232,560 232,576" /><polygon points="296,576 232,576 232,576 296,576" /><polygon points="232,560 296,560 296,560 232,560" /><polygon points="-96,896 -96,896 -32,896 -32,896 -32,896 -32,896 -96,896" /><polygon points="-192,608 -192,608 -192,608 -192,512 -192,512 -192,608" /><polygon points="-192,672 -192,672 -192,736 -192,736 -192,736 -192,736 -192,672" /><polygon points="-32,896 -32,864 -32,864 -32,896" /><polygon points="-32,864 32,864 32,864 -32,864" /><polygon points="-192,736 -160,736 -160,736 -192,736" /><polygon points="-160,608 -160,608 -160,672 -160,672" /><polygon points="-160,736 -160,736 -160,800 -160,800" /><polygon points="-160,896 -160,864 -160,864 -160,896" /><polygon points="-160,864 -96,864 -96,864 -160,864" /><polygon points="248,560 248,552 280,552 280,560" /><polygon points="248,552 248,544 280,544 280,552" /><polygon points="48,-60 48,-16 48,-16 48,-60" /><polygon points="64,-60 48,-60 48,-60 64,-60" /><polygon points="48,-84 64,-84 64,-84 48,-84" /><polygon points="64,-84 48,-84 48,-60 64,-60" /><polygon points="64,-84 64,-60 64,-60 64,-84" /><polygon points="-48,-84 -48,-128 -48,-128 -48,-84" /><polygon points="-48,-16 -48,-16 48,-16 48,-16" /><polygon points="48,-128 48,-128 -48,-128 -48,-128" /><polygon points="-48,-16 -32,-32 -32,-112 -48,-128" /><polygon points="32,-32 -32,-32 -48,-16 48,-16" /><polygon points="32,-112 -32,-112 -32,-32 32,-32" /><polygon points="48,-128 32,-112 32,-32 48,-16" /><polygon points="-48,-128 -32,-112 32,-112 48,-128" /><polygon points="-64,-84 -48,-84 -48,-84 -64,-84" /><polygon points="-48,-60 -64,-60 -64,-60 -48,-60" /><polygon points="-64,-60 -48,-60 -48,-84 -64,-84" /><polygon points="-64,-60 -64,-84 -64,-84 -64,-60" /><polygon points="-160,96 -160,320 -160,320 -160,96" /><polygon points="-160,0 -160,0 -160,96 -160,96" /><polygon points="-64,448 -64,400 -56,400 64,400 64,448" /><polygon points="-160,336 -136,336 -88,336 -88,448 -136,448 -160,448" /><polygon points="-64,400 -64,336 -56,336 -56,400" /><polygon points="-56,400 -56,336 -56,320 64,320 64,400" /><polygon points="-64,0 -64,-16 64,-16 64,0 64,128 -24,128 -64,88" /><polygon points="64,400 64,320 192,320 192,448 160,448 64,448" /><polygon points="304,281.6 304,256 312,256" /><polygon points="208,192 304,192 304,240 304,256 304,281.6 272,384 240,384 208,352" /><polygon points="384,192 448,192 476.8571,192 480,192 384,240 304,240 304,192" /><polygon points="476.2857,128 512,128 512,172.2857 494,162 466,146" /><polygon points="512,172.2857 512,176 480,192 476.8571,192 478,190 494,162" /><polygon points="476.8571,192 448,192 448,177.5 450,174 478,190" /><polygon points="448,128 476.2857,128 466,146 450,174 448,177.5" /><polygon points="64,0 128,0 208,0 208,128 192,128 64,128" /><polygon points="208,128 208,0 352,0 384,0 384,120 384,128 384,192 304,192 208,192" /><polygon points="384,0 384,0 384,112 384,120 384,120" /><polygon points="352,0 208,0 128,0 128,0 352,0" /><polygon points="64,0 64,-16 64,-16 64,0" /><polygon points="208,192 208,352 208,352 208,128 208,128" /><polygon points="240,384 272,384 272,384 272,384 240,384" /><polygon points="384,192 384,128 384,128 384,192" /><polygon points="480,192 512,176 512,176 384,240 384,240" /><polygon points="448,128 448,177.5 448,192 448,192 448,128" /><polygon points="450,174 466,146 466,146 450,174" /><polygon points="478,190 450,174 450,174 478,190" /><polygon points="466,146 494,162 494,162 466,146" /><polygon points="494,162 478,190 478,190 494,162" /><polygon points="448,192 384,192 384,192 448,192" /><polygon points="304,256 304,240 304,240 304,256" /><polygon points="384,240 384,240 352,240 304,240 304,240" /><polygon points="304,281.6 312,256 312,256 272,384 272,384" /><polygon points="192,128 192,128 192,224 192,224" /><polygon points="-56,320 -56,320 -160,320 -160,320 -160,320" /><polygon points="-56,336 -64,336 -64,336 -64,336 -56,336" /><polygon points="-136,336 -136,336 -112,336 -88,336 -88,336" /><polygon points="-56,320 -56,336 -56,336 -56,320" /><polygon points="192,448 192,448 160,448 160,448" /><polygon points="-88,336 -88,336 -88,448 -88,448" /><polygon points="64,128 192,128 192,128 160,128 -24,128 -24,128" /><polygon points="-64,88 -64,88 -64,0 -64,0" /><polygon points="64,320 -56,320 -160,320 -160,320 64,320" /><polygon points="192,608 192,624 192,624 192,608" /><polygon points="192,656 192,624 192,608 192,608 192,672 192,672" /><polygon points="192,704 192,720 192,720 192,704" /><polygon points="192,656 192,672 192,672 192,656" /><polygon points="192,752 192,768 192,768 192,752" /><polygon points="208,720 208,752 224,752 224,720" /><polygon points="192,720 208,720 224,720 192,720" /><polygon points="192,624 208,624 224,624 192,624" /><polygon points="208,624 192,624 192,656 208,656" /><polygon points="192,720 192,752 208,752 208,720" /><polygon points="160,704 192,704 192,704 144,704 144,704" /><polygon points="160,608 192,608 192,608 144,608 144,608" /><polygon points="160,672 160,672 192,672 192,672 192,672 192,672 192,672 176,672 160,672" /><polygon points="160,672 144,672 144,672 160,672" /><polygon points="160,608 144,608 144,672 160,672" /><polygon points="160,768 160,768 192,768 192,768 192,768 160,768" /><polygon points="160,768 144,768 144,768 160,768" /><polygon points="160,704 160,768 160,768 160,704" /><polygon points="160,704 144,704 144,768 160,768" /><polygon points="48,-128 48,-128 48,-84 48,-84" /><polygon points="-48,-16 -48,-16 -48,-60 -48,-60" /><polygon points="-32,-32 -48,-16 -48,-128 -32,-112" /><polygon points="-48,-16 -32,-32 32,-32 48,-16" /><polygon points="-32,-112 32,-112 32,-32 -32,-32" /><polygon points="32,-112 48,-128 48,-16 32,-32" /><polygon points="48,-128 32,-112 -32,-112 -48,-128" /><polygon points="64,-60 48,-60 48,-84 64,-84" /><polygon points="-64,-84 -48,-84 -48,-60 -64,-60" /><polygon points="312,384 312,384 312,384 272,384 272,384" /><polygon points="312,256 312,256 328,256 328,256 328,256" /><polygon points="312,256 312,256 304,256 304,256 312,256" /><polygon points="312,256 328,256 312,384 272,384" /><polygon points="312,384 328,256 328,256 312,384" /><polygon points="-56,320 -56,336 -64,336 -88,336 -112,336 -136,336 -160,336 -160,320" /><polygon points="-64,336 -64,336 -64,400 -64,448 -64,448" /><polygon points="-112,448 -136,448 -136,448 -88,448 -88,448" /><polygon points="-136,448 -112,448 -112,448 -136,448" /><polygon points="-112,336 -112,336 -112,448 -112,448" /><polygon points="-88,336 -64,336 -64,448 -88,448" /><polygon points="-88,336 -112,336 -112,448 -88,448" /><polygon points="-136,448 -136,448 -136,448 -160,448 -160,448 -136,448" /><polygon points="296,576 232,576 232,560 296,560" /><polygon points="344,384 344,384 344,384 336,384 312,384 312,384" /><polygon points="328,256 328,256 344,256 344,256 344,256" /><polygon points="478,190 450,174 466,146 494,162" /><polygon points="344,256 344,256 344,384 344,384" /><polygon points="344,384 312,384 328,256 344,256" /><polygon points="-88,336 -88,336 -64,336 -64,336 -88,336" /><polygon points="-136,336 -112,336 -112,336 -136,336" /><polygon points="-136,336 -136,336 -136,448 -136,448" /><polygon points="-112,448 -88,448 -88,448 -112,448" /><polygon points="-88,448 -88,448 -64,448 -64,448 -88,448" /><polygon points="-112,336 -88,336 -88,448 -112,448" /><polygon points="-88,336 -88,336 -88,448 -88,448" /><polygon points="-112,336 -136,336 -136,448 -112,448" /><polygon points="-32,896 -32,864 -32,848 -32,896" /><polygon points="32,864 32,864 32,848" /><polygon points="-32,864 32,864 32,848 -32,848" /><polygon points="-192,736 -160,736 -144,736 -192,736" /><polygon points="-192,608 -160,608 -144,608 -192,608" /><polygon points="-160,608 -192,608 -192,608 -160,608" /><polygon points="-160,672 -160,672 -144,672" /><polygon points="-160,608 -160,608 -160,672 -160,672" /><polygon points="-96,864 -96,864 -96,848" /><polygon points="-160,800 -160,800 -144,800" /><polygon points="-160,736 -160,736 -160,800 -160,800" /><polygon points="-160,896 -160,864 -160,848 -160,896" /><polygon points="-160,864 -96,864 -96,848 -144,848 -160,848" /><polygon points="280,560 296,560 296,560 280,560" /><polygon points="248,544 232,544 232,544 248,544" /><polygon points="248,544 280,544 280,544 248,544" /><polygon points="280,544 248,544 248,544 280,544" /><polygon points="280,544 296,544 232,544 248,544" /><polygon points="248,552 248,560 280,560 280,552" /><polygon points="248,544 248,552 280,552 280,544" /><polygon points="248,560 248,552 248,552 248,560" /><polygon points="248,552 248,544 248,544 248,552" /><polygon points="280,552 280,560 280,560 280,552" /><polygon points="280,544 280,552 280,552 280,544" /><polygon points="280,552 248,552 248,552 280,552" /><polygon points="248,552 280,552 280,552 248,552" /><polygon points="-160,336 -160,336 -160,448 -160,448" /><polygon points="392,384 392,384 368,384 344,384 344,384" /><polygon points="392,384 344,384 344,256 368,256" /><polygon points="-112,336 -112,336 -88,336 -88,336 -112,336" /><polygon points="-160,336 -136,336 -136,336 -136,336 -136,336 -160,336" /><polygon points="-112,448 -88,448 -64,448 -64,448 -136,448 -136,448" /><polygon points="-112,336 -112,336 -112,448 -112,448" /><polygon points="-136,336 -112,336 -112,448 -136,448" /><polygon points="-136,336 -160,336 -160,448 -136,448" /><polygon points="144,608 144,608 144,672 144,672" /><polygon points="144,704 144,704 144,768 144,768" /><polygon points="232,544 232,560 232,560 232,544" /><polygon points="296,560 296,544 296,544 296,560" /><polygon points="232,560 248,560 248,560 232,560" /><polygon points="296,560 280,560 248,560 232,560" /><polygon points="296,544 296,560 232,560 232,544" /><polygon points="296,544 280,544 280,544 296,544" /><polygon points="192,896 320,896 320,896 192,896" /><polygon points="320,896 192,896 192,896 208,896 320,896" /><polygon points="-192,512 -136,512 32,512 32,512 -34.5,512 -62.7391,512 -112,512 -160,512 -192,512" /><polygon points="32,512 64,512 64,512 32,512" /><polygon points="64,512 64,512 192,512 192,512 192,512 192,512 144,512 94.5,512 66.2609,512 64,512" /><polygon points="192,512 248,512 320,512 320,512 208,512 192,512" /><polygon points="-160,0 -160,0 -160,96 -160,96" /><polygon points="208,128 208,128 192,128 192,128 192,128 208,128" /><polygon points="448,128 512,128 512,128 476.2857,128 448,128" /><polygon points="384,128 384,128 384,120 384,120" /><polygon points="-128,0 -128,0 -160,0 -160,0" /><polygon points="-128,0 -128,0 -64,0 -64,0 -128,0" /><polygon points="384,0 384,0 352,0 352,0" /><polygon points="240,384 240,384 208,352 208,352 208,352 240,384" /><polygon points="336,384 344,384 368,384 368,384 336,384" /><polygon points="512,128 512,176 512,176 512,172.2857 512,128" /><polygon points="352,256 368,256 368,256 344,256 344,256" /><polygon points="448,192 384,192 384,128 448,128" /><polygon points="512,176 512,176 384,240 384,240" /><polygon points="384,240 384,240 368,240 352,240" /><polygon points="352,240 368,240 368,256 352,256 344,256 328,256 312,256 304,256 304,240" /><polygon points="384,256 448,384 392,384 368,256" /><polygon points="384,256 384,256 448,384 448,384" /><polygon points="392,384 392,384 368,256 368,256" /><polygon points="192,224 192,448 192,448 192,320 192,224" /><polygon points="192,128 192,128 192,224 192,224" /><polygon points="-136,336 -136,336 -112,336 -112,336 -136,336" /><polygon points="-160,336 -160,336 -136,336 -136,336" /><polygon points="-160,336 -136,336 -136,448 -160,448" /><polygon points="160,448 192,448 192,448 64,448 64,448" /><polygon points="160,448 64,448 -64,448 -64,448 -64,448 -64,448 64,448 160,448" /><polygon points="-136,336 -136,336 -136,448 -136,448" /><polygon points="-192,800 -192,800 -192,800 -192,896 -192,896" /><polygon points="-192,896 -160,896 -160,848 -160,800 -192,800" /><polygon points="-144,848 -144,800 -160,800 -160,848" /><polygon points="-96,848 -96,864 -96,896 -32,896 -32,848" /><polygon points="32,864 32,896 48,896 48,848 32,848" /><polygon points="-96,848 -32,848 32,848 48,848 48,784 -48,784 -80,784 -144,784 -144,800 -144,848" /><polygon points="-160,672 -192,672 -192,736 -144,736 -144,672" /><polygon points="-48,784 -80,752 -80,784" /><polygon points="-80,752 -80,608 -144,608 -144,672 -144,736 -144,784 -80,784" /><polygon points="-80,568 -136,512 -192,512 -192,608 -144,608 -80,608" /><polygon points="64,784 64,624 48,640 48,784 48,848 64,848" /><polygon points="48,848 48,896 64,896 64,848" /><polygon points="64,848 64,896 192,896 192,784 144,784 64,784" /><polygon points="192,784 192,768 160,768 144,768 144,784" /><polygon points="192,704 192,672 160,672 144,672 144,704" /><polygon points="224,752 192,752 192,768 192,784 320,784 320,752" /><polygon points="224,752 320,752 320,720 224,720" /><polygon points="320,672 320,656 224,656 192,656 192,672 192,704 192,720 224,720 320,720" /><polygon points="224,656 320,656 320,640 248,640 224,640" /><polygon points="144,768 144,704 144,672 144,608 144,592 96,592 64,624 64,784 144,784" /><polygon points="192,608 192,592 144,592 144,608" /><polygon points="248,624 224,624 224,640 248,640" /><polygon points="248,512 192,512 192,592 192,608 192,624 224,624 248,624" /><polygon points="320,512 248,512 248,624 248,640 320,640" /><polygon points="144,592 192,592 192,592 96,592 96,592" /><polygon points="192,592 192,512 192,512 192,592" /><polygon points="64,624 96,592 96,592 64,624 48,640 48,640" /><polygon points="320,896 320,784 320,784 320,896" /><polygon points="192,896 192,896 192,784 192,784" /><polygon points="-80,752 -48,784 -48,784 -80,752" /><polygon points="-136,512 -80,568 -80,568 -136,512" /><polygon points="224,640 224,624 208,624 208,656 224,656" /><polygon points="320,672 320,720 320,752 320,784 320,896 320,896 320,736 320,672" /><polygon points="224,656 208,656 192,656 192,656" /><polygon points="224,752 208,752 192,752 192,752" /><polygon points="32,896 32,864 32,864 32,864 32,896" /><polygon points="-192,672 -160,672 -160,672 -160,672 -192,672" /><polygon points="-144,608 -160,608 -160,672 -144,672" /><polygon points="-96,896 -96,864 -96,864 -96,864 -96,896" /><polygon points="-192,800 -160,800 -160,800 -160,800 -192,800" /><polygon points="-144,784 -144,736 -160,736 -160,800 -144,800" /><polygon points="192,896 320,896 320,896 144,896 144,896 144,896" /><polygon points="32,896 112,896 112,896 112,896 16,896 16,896 16,896" /><polygon points="16,896 16,896 -16,896 -16,896" /><polygon points="576,384 576,320 576,320 576,384 576,416 576,416" /><polygon points="32,512 64,512 64,512 32,512 -136,512 -136,512" /><polygon points="32,512 -136,512 -192,512 -192,512 -160,512 32,512" /><polygon points="256,512 192,512 64,512 32,512 32,512 64,512 256,512" /><polygon points="-320,320 -320,400 -320,400 -320,400 -320,320" /><polygon points="-320,400 -320,432 -320,432 -320,400" /><polygon points="-160,400 -160,336 -160,336 -160,448 -160,448" /><polygon points="-160,320 -160,320 -160,224 -160,96 -160,96 -160,320" /><polygon points="464,128 464,128 464,128 512,128 512,128" /><polygon points="432,128 432,128 464,128 464,128" /><polygon points="432,128 464,128 512,128 512,128 448,128 384,128 384,128" /><polygon points="512,128 512,128 512,176 512,176 512,176 512,128" /><polygon points="512,192 576,320 576,384 512,384" /><polygon points="512,192 448,224 384,256 384,240 512,176" /><polygon points="448,224 512,192 512,384 448,384" /><polygon points="448,384 384,256 448,224" /><polygon points="384,240 384,256 368,256 368,240" /><polygon points="368,256 384,256 384,256 368,256 352,256" /><polygon points="448,512 448,512 448,464 448,464 448,464" /><polygon points="448,432 448,464 448,464 448,432" /><polygon points="512,384 576,384 576,416 576,512 448,512 448,464 448,432 448,384" /><polygon points="-208,400 -320,400 -320,320 -160,320 -160,336 -160,400" /><polygon points="-320,496 -320,432 -320,400 -208,400 -208,448 -208,512 -224,512 -320,512" /><polygon points="-208,400 -160,400 -160,448 -192,448 -208,448" /><polygon points="-208,512 -208,448 -192,448 -192,496 -192,512" /><polygon points="-192,752 -192,784 -192,784 -192,752" /><polygon points="-80,784 -80,752 -48,784" /><polygon points="-192,640 -192,512 -136,512 -80,568 -80,736 -192,736" /><polygon points="-80,736 -80,752 -80,784 -192,784 -192,752 -192,736" /><polygon points="48,640 64,624 64,640 64,784 48,784" /><polygon points="32,896 16,896 -16,896 -192,896 -192,784 -80,784 -48,784 32,784" /><polygon points="48,784 64,784 192,784 192,896 144,896 112,896 32,896 32,784" /><polygon points="288,784 192,784 64,784 64,640 192,640 288,640" /><polygon points="320,640 320,688 320,720 320,784 288,784 288,640" /><polygon points="192,592 192,640 64,640 64,624 96,592" /><polygon points="416,640 336,640 320,640 288,640 192,640 192,592 192,512 256,512 416,512" /><polygon points="448,512 576,512 576,640 464,640 432,640 416,640 416,512" /><polygon points="320,784 320,720 320,720 320,720 320,864 320,896 320,896" /><polygon points="320,688 320,688 320,720 320,720" /><polygon points="320,640 320,640 320,688 320,688 320,688" /><polygon points="576,640 576,640 464,640 464,640 464,640" /><polygon points="336,640 336,640 320,640 320,640" /><polygon points="48,784 48,784 48,640 48,640" /><polygon points="288,784 320,784 320,784 192,784 192,784" /><polygon points="32,784 -48,784 -48,784 48,784 48,784" /><polygon points="-80,736 -80,568 -80,568 -80,608 -80,752 -80,752" /><polygon points="-224,640 -448,640 -448,512 -320,512 -224,512" /><polygon points="-208,512 -192,512 -192,640 -224,640 -224,512" /><polygon points="-400,624 -432,624 -432,624 -400,624" /><polygon points="-432,528 -400,528 -400,528 -432,528" /><polygon points="-432,624 -400,624 -400,528 -432,528" /><polygon points="-432,624 -432,528 -432,528 -432,624" /><polygon points="-400,528 -400,624 -400,624 -400,528" /><polygon points="-416,544 -432,544 -432,608 -416,608" /><polygon points="-416,608 -416,592 -416,560 -416,544" /><polygon points="-432,544 -432,560 -432,592 -432,608" /><polygon points="128,0 128,0 128,0 288,0 352,0 352,0 128,0" /><polygon points="64,0 128,0 128,0 128,0 64,0" /><polygon points="64,0 64,-16 64,-16 64,0" /><polygon points="-64,-16 -64,0 -64,0 -64,-16" /><polygon points="-64,0 -64,-16 -64,-16 -64,0" /><polygon points="-432,592 -432,560 -432,560 -432,592" /><polygon points="-416,592 -424,592 -424,560 -416,560" /><polygon points="-424,592 -432,592 -432,560 -424,560" /><polygon points="-416,560 -424,560 -424,560 -416,560" /><polygon points="-424,560 -432,560 -432,560 -424,560" /><polygon points="-424,592 -424,560 -424,560 -424,592" /><polygon points="-64,-128 64,-128 64,-128 -64,-128" /><polygon points="112,896 112,896 144,896 144,896" /><polygon points="-16,896 -16,896 -160,896 -192,896 -192,896 -16,896" /><polygon points="-64,-16 -56,-16 -56,-48 -64,-48" /><polygon points="56,-16 64,-16 64,-48 56,-48" /><polygon points="-56,-60 -56,-84 -64,-84 -64,-60" /><polygon points="56,-48 56,-60 56,-84 56,-96 -56,-96 -56,-84 -56,-60 -56,-48 -56,-16 56,-16" /><polygon points="64,-60 64,-84 56,-84 56,-60" /><polygon points="-56,-96 56,-96 64,-96 64,-128 -64,-128 -64,-96" /><polygon points="64,-60 56,-60 56,-60 64,-60" /><polygon points="-56,-60 -64,-60 -64,-60 -56,-60" /><polygon points="56,-96 56,-84 56,-84 56,-96" /><polygon points="64,-96 56,-96 56,-96 64,-96" /><polygon points="56,-84 64,-84 64,-84 56,-84" /><polygon points="-56,-84 -56,-96 -56,-96 -56,-84" /><polygon points="-56,-96 -64,-96 -64,-96 -56,-96" /><polygon points="-64,-96 -64,-128 -64,-128 -64,-96" /><polygon points="-64,-84 -56,-84 -56,-84 -64,-84" /><polygon points="-64,-60 -64,-84 -64,-84 -64,-60" /><polygon points="56,-60 56,-48 56,-48 56,-60" /><polygon points="56,-48 64,-48 64,-48 56,-48" /><polygon points="-56,-48 -56,-60 -56,-60 -56,-48" /><polygon points="-64,-48 -56,-48 -56,-48 -64,-48" /><polygon points="-64,0 -64,0 -128,0 -128,0 -64,0" /><polygon points="56,-16 -56,-16 -64,-16 -64,0 64,0 64,-16" /><polygon points="208,352 208,352 208,128 208,128 208,352" /><polygon points="208,384 208,384 208,352 208,352" /><polygon points="240,384 240,384 272,384 312,384 336,384 336,384 336,384 240,384" /><polygon points="464,128 464,136 464,128" /><polygon points="336,384 336,376 336,384" /><polygon points="448,432 448,464 456,464 456,432" /><polygon points="448,432 456,432 448,432" /><polygon points="240,384 208,384 208,352" /><polygon points="-320,400 -312,400 -320,400" /><polygon points="-192,752 -192,752 -192,640 -192,640 -192,736 -192,752" /><polygon points="432,640 432,632 432,640" /><polygon points="432,640 432,640 464,640 464,640" /><polygon points="432,640 464,640 464,632 432,632" /><polygon points="432,640 432,640 336,640 336,640 416,640 432,640" /><polygon points="320,720 312,720 320,720" /><polygon points="320,720 320,688 312,688 312,720" /><polygon points="112,896 112,888 112,896" /><polygon points="64,0 64,0 -64,0 -64,0" /><polygon points="96,0 64,0 -64,0 -128,0 -128,0 64,0 96,0" /><polygon points="96,0 128,0 128,0 64,0 64,0 64,0" /><polygon points="-400,624 -432,624 -432,528 -400,528" /><polygon points="-416,560 -416,592 -416,608 -416,544" /><polygon points="-416,560 -416,544 -416,544 -416,560" /><polygon points="-432,560 -432,560 -432,592 -432,592" /><polygon points="-432,592 -432,608 -432,608 -432,592" /><polygon points="-416,560 -424,560 -424,592 -416,592" /><polygon points="-424,560 -432,560 -432,592 -424,592" /><polygon points="-424,592 -432,592 -432,592 -424,592" /><polygon points="-416,592 -424,592 -424,592 -416,592" /><polygon points="-424,560 -424,560 -424,592 -424,592" /><polygon points="-432,544 -416,544 -416,608 -432,608" /><polygon points="-416,608 -416,592 -416,592 -416,608" /><polygon points="-432,608 -416,608 -416,608 -432,608" /><polygon points="-416,544 -432,544 -432,544 -416,544" /><polygon points="-432,544 -432,560 -432,560 -432,544" /><polygon points="-432,608 -432,592 -432,560 -432,544" /><polygon points="-448,640 -448,512 -448,512 -448,640" /><polygon points="576,416 576,432 576,464 576,512 576,640 576,640 576,512 576,416" /><polygon points="-448,512 -320,512 -320,512 -448,512" /><polygon points="288,512 320,512 432,512 448,512 448,512 416,512 256,512 256,512" /><polygon points="-320,512 -320,496 -320,496 -320,512" /><polygon points="-320,496 -320,432 -320,432 -320,432 -320,496" /><polygon points="-192,432 -192,400 -312,400 -312,432" /><polygon points="-192,400 -192,432 -192,448 -176,448 -176,400" /><polygon points="-224,512 -192,512 -192,496 -192,448 -192,432 -312,432 -320,432 -320,496 -320,512" /><polygon points="-312,400 -192,400 -176,400 -176,320 -320,320 -320,400" /><polygon points="-160,320 -176,320 -176,400 -176,448 -160,448" /><polygon points="576,464 456,464 448,464 448,512 464,512 576,512" /><polygon points="456,464 576,464 576,432 456,432" /><polygon points="512,384 464,384 448,384 448,432 456,432 576,432 576,416 576,384" /><polygon points="336,352 336,128 208,128 208,352" /><polygon points="208,384 240,384 336,384 336,376 336,352 208,352" /><polygon points="464,360 464,352 464,136 432,136 432,352 432,360" /><polygon points="432,384 448,384 464,384 464,360 432,360" /><polygon points="368,352 368,128 336,128 336,352" /><polygon points="336,376 368,376 368,352 336,352" /><polygon points="432,352 432,136 432,128 384,128 368,128 368,352" /><polygon points="368,376 368,384 432,384 432,360 432,352 368,352" /><polygon points="512,352 512,192 512,176 512,128 464,128 464,136 464,352" /><polygon points="464,360 464,384 512,384 512,352 464,352" /><polygon points="576,384 576,320 512,192 512,352 512,384" /><polygon points="384,112 384,0 384,0 384,128 384,128" /><polygon points="-160,224 -160,320 -160,448 -160,448 -160,400 -160,224" /><polygon points="208,128 336,128 368,128 384,128 384,128 224,128 192,128 192,128" /><polygon points="64,0 -128,0 -160,0 -160,0 -64,0 64,0" /><polygon points="288,0 128,0 96,0 64,0 64,0 128,0 288,0" /><polygon points="192,128 192,128 192,224 192,224" /><polygon points="192,448 192,448 64,448 64,448" /><polygon points="-160,96 -160,0 -160,0 -160,96" /><polygon points="432,128 432,128 432,128 384,128 384,128" /><polygon points="384,112 384,128 384,128 384,128 384,120 384,112" /><polygon points="384,0 384,112 384,112 384,0" /><polygon points="-160,0 -128,0 -128,0 -128,0 -128,0 -160,0" /><polygon points="128,0 128,0 96,0 96,0" /><polygon points="352,0 384,0 384,0 352,0" /><polygon points="432,384 368,384 368,384 368,384 392,384 448,384 448,384 448,384" /><polygon points="368,376 336,376 336,384 368,384" /><polygon points="512,192 512,192 512,176 512,176" /><polygon points="576,320 576,320 512,192 512,192" /><polygon points="432,136 432,128 432,128" /><polygon points="432,136 464,136 464,128 432,128" /><polygon points="368,376 368,384 368,384" /><polygon points="448,384 448,384 448,432 448,432 448,432" /><polygon points="456,464 448,464 448,464" /><polygon points="208,384 208,384 240,384 240,384" /><polygon points="192,224 192,448 192,448 192,224" /><polygon points="64,448 -160,448 -160,448 -160,448 -136,448 -64,448 64,448" /><polygon points="-176,320 -160,320 -160,320 -320,320 -320,320" /><polygon points="-192,496 -192,512 -192,512 -192,496" /><polygon points="-192,448 -192,496 -192,496 -192,448" /><polygon points="-160,448 -176,448 -192,448 -192,448 -160,448" /><polygon points="-320,432 -312,432 -320,432" /><polygon points="-312,432 -312,400 -320,400 -320,432" /><polygon points="-192,896 -192,784 -192,784 -192,784 -192,896" /><polygon points="-160,864 -160,784 -184,784 -192,784 -192,896 -160,896" /><polygon points="-16,896 -16,888 -16,864 -160,864 -160,896" /><polygon points="16,888 16,864 -16,864 -16,888" /><polygon points="-160,784 -160,752 -184,752 -184,784" /><polygon points="-160,640 -160,544 -160,512 -192,512 -192,640 -192,752 -184,752 -160,752" /><polygon points="312,688 288,688 288,720 312,720" /><polygon points="320,896 320,864 288,864 144,864 144,888 144,896" /><polygon points="64,512 32,512 -160,512 -160,544 64,544" /><polygon points="288,544 288,512 256,512 64,512 64,544" /><polygon points="112,896 112,888 112,864 64,864 16,864 16,888 16,896" /><polygon points="144,888 144,864 112,864 112,888" /><polygon points="320,864 320,720 312,720 288,720 288,864" /><polygon points="312,688 320,688 320,640 320,512 288,512 288,544 288,640 288,688" /><polygon points="448,512 432,512 432,632 464,632 464,512" /><polygon points="464,632 464,640 576,640 576,512 464,512" /><polygon points="336,640 432,640 432,632 432,512 320,512 320,640" /><polygon points="288,544 288,544 288,640 288,640" /><polygon points="-160,640 -160,752 -160,784 -160,864 -160,864 -160,736 -160,640" /><polygon points="112,864 144,864 288,864 288,864 160,864 96,864 64,864 64,864" /><polygon points="64,544 -160,544 -160,544 -32,544 32,544 64,544" /><polygon points="144,888 144,896 144,896" /><polygon points="464,632 464,640 464,640" /><polygon points="312,688 320,688 320,688" /><polygon points="-184,752 -192,752 -192,752" /><polygon points="-16,888 -16,896 -16,896" /><polygon points="144,888 112,888 112,896 144,896" /><polygon points="16,896 16,888 16,896" /><polygon points="16,888 -16,888 -16,896 16,896" /><polygon points="-192,784 -184,784 -192,784" /><polygon points="-184,784 -184,752 -192,752 -192,784" /><polygon points="-224,640 -448,640 -448,640 -224,640" /><polygon points="-192,640 -224,640 -224,640 -192,640" /><polygon points="-224,512 -320,512 -448,512 -448,640 -224,640" /><polygon points="-192,640 -192,512 -224,512 -224,640" /><polygon points="96,896 96,896 96,896 96,896 32,896 32,896 32,896" /><polygon points="-192,672 -192,736 -192,896 -192,896 -192,864 -192,800 -192,736 -192,672" /><polygon points="320,512 320,512 320,544 320,608 320,672 320,672" /><polygon points="288,640 288,544 288,512 320,512 320,672 320,736 288,736" /><polygon points="320,736 320,864 288,864 288,736" /><polygon points="288,512 288,544 160,544 160,512" /><polygon points="96,512 96,544 64,544 32,544 32,512" /><polygon points="288,864 320,864 320,896 160,896 160,872 160,864" /><polygon points="64,864 96,864 96,896 32,896 32,872 32,864" /><polygon points="-32,544 -160,544 -160,512 -32,512" /><polygon points="-192,672 -192,512 -160,512 -160,544 -160,640 -160,736 -192,736" /><polygon points="-160,736 -160,864 -160,896 -192,896 -192,736" /><polygon points="-160,864 -32,864 -32,896 -160,896" /><polygon points="32,864 32,872 32,872" /><polygon points="32,544 32,538 32,536 32,512 32,512" /><polygon points="160,864 160,872 160,872" /><polygon points="96,896 96,864 96,872 96,896" /><polygon points="96,864 160,864 160,872 96,872" /><polygon points="-32,544 -32,512 -32,512 -32,536" /><polygon points="-32,896 -32,864 -32,872 -32,896" /><polygon points="-32,864 32,864 32,872 -32,872" /><polygon points="288,640 288,736 288,864 288,864 288,720 288,688 288,640" /><polygon points="-160,544 -160,544 -160,640 -160,640" /><polygon points="64,864 32,864 -32,864 -160,864 -160,864 -16,864 16,864 64,864" /><polygon points="96,544 160,544 288,544 288,544 64,544 64,544" /><polygon points="320,896 320,896 160,896 160,896 320,896" /><polygon points="-160,400 -160,448 -160,480 -192,480 -192,400" /><polygon points="-160,-32 -160,0 -160,80 -176,24" /><polygon points="32,-31 32,-32 33.7455,-31.5637" /><polygon points="64,480 -160,480 -160,448 64,448" /><polygon points="192,448 192,480 64,480 64,448" /><polygon points="192,448 192,321.6 206.991,315.6036 192.6956,480 192,480" /><polygon points="206.991,315.6036 192,321.6 192,224 192,128 224,128 224,152 224,240 224,308.8" /><polygon points="224,240 224,152 290,152" /><polygon points="384,128 384,152 290,152 224,152 224,128" /><polygon points="352,0 288,0 128,0 128,-8 128,-16 200,-32 232,-32 352,-32" /><polygon points="384,-32 384,0 352,0 352,-32" /><polygon points="128,-8 128,0 64,0 -64,0 32,-31 33.7455,-31.5637" /><polygon points="384,152 384,152 290,152 290,152" /><polygon points="200,-32 128,-16 128,-16 149.3333,-20.7407 200,-32" /><polygon points="206.991,315.6036 206.991,315.6036 192.6956,480 192.6956,480" /><polygon points="128,-8 33.7455,-31.5637 32,-32 32,-32" /><polygon points="32,-32 32,-31 -64,0" /><polygon points="32,-32 -64,0 32,-32" /><polygon points="-160,0 -160,-32 -144,-32 -104,-32 -104,-16" /><polygon points="32,-31 -64,0 -64,0" /><polygon points="-64,0 -160,0 -104,-16" /><polygon points="-192,-32 -160,-32 -174.7692,-16 -192,-16" /><polygon points="-160,-32 -176,24 -176,24" /><polygon points="-160,184 -147.2941,163.353 -167.8027,144.6089 -192,144.3113 -192,164.4445" /><polygon points="-160,80 -128,136 -160,72" /><polygon points="-160,80 -160,72 -176,24" /><polygon points="-160,80 -160,184 -128,136" /><polygon points="-160,400 -192,400 -192,291.3924 -168.2025,291.3924" /><polygon points="-160,184 -160,80 -160,0 -160,0 -160,96 -160,224 -160,224" /><polygon points="352,0 384,0 384,0 352,0 288,0 288,0" /><polygon points="192,224 192,321.6 192,448 192,448 192,224" /><polygon points="64,448 -160,448 -160,448 64,448" /><polygon points="-192,608 -192,544 -192,512 -192,512 -192,672 -192,672" /><polygon points="320,672 320,736 320,800 320,864 320,896 320,896 320,864 320,736 320,672" /><polygon points="32,536 32,536 32,536 32,512 32,512" /><polygon points="32,538 32,536 32,536" /><polygon points="160,538 160,536 160,536" /><polygon points="160,536 160,536 160,536 160,512 160,512" /><polygon points="160,536 160,512 160,512 160,544 160,538" /><polygon points="320,544 256,544 256,608 301.3333,608 320,608" /><polygon points="256,544 320,544 320,544 256,544" /><polygon points="256,608 256,544 256,544 256,608" /><polygon points="320,800 301.3333,800 256,800 256,864 320,864" /><polygon points="320,736 301.3333,736 301.3333,800 320,800" /><polygon points="320,672 301.3333,672 256,672 256,736 301.3333,736 320,736" /><polygon points="320,608 301.3333,608 301.3333,672 320,672" /><polygon points="256,672 301.3333,672 280,672 256,672" /><polygon points="301.3333,608 280,608 280,672 301.3333,672" /><polygon points="256,736 256,672 256,672 256,736" /><polygon points="256,864 256,800 256,800 256,864" /><polygon points="256,800 301.3333,800 280,800 256,800" /><polygon points="301.3333,800 301.3333,736 280,736 280,800" /><polygon points="-128,608 -173.3333,608 -152,608 -128,608" /><polygon points="-192,608 -173.3333,608 -128,608 -128,544 -192,544" /><polygon points="-192,544 -128,544 -128,544 -192,544" /><polygon points="-128,544 -128,608 -128,608 -128,544" /><polygon points="-192,864 -128,864 -128,800 -173.3333,800 -192,800" /><polygon points="-192,736 -173.3333,736 -128,736 -128,672 -173.3333,672 -192,672" /><polygon points="-173.3333,736 -192,736 -192,800 -173.3333,800" /><polygon points="-173.3333,608 -192,608 -192,672 -173.3333,672" /><polygon points="-128,864 -192,864 -192,864 -128,864" /><polygon points="-128,736 -173.3333,736 -152,736 -128,736" /><polygon points="-128,672 -128,736 -128,736 -128,672" /><polygon points="-128,800 -128,864 -128,864 -128,800" /><polygon points="-32,896 -32,896 -32,896 -192,896 -192,896 -192,896 -160,896 -32,896" /><polygon points="224,308.8 224,308.8 224,240 224,240" /><polygon points="224,308.8 224,308.8 206.991,315.6036 206.991,315.6036 224,308.8" /><polygon points="32,872 32,872 32,896 32,896 32,872" /><polygon points="96,512 96,536 96,544 96,512" /><polygon points="160,536 96,536 96,536 160,536" /><polygon points="96,536 160,536 160,538 160,544 96,544" /><polygon points="96,872 96,872 96,896 96,896" /><polygon points="96,872 160,872 160,872 96,872" /><polygon points="32,536 -32,536 -32,536 32,536" /><polygon points="-32,536 32,536 32,538 32,544 -32,544" /><polygon points="-32,872 -32,872 -32,896 -32,896" /><polygon points="-32,872 32,872 32,872 -32,872" /><polygon points="200,-32 149.3333,-20.7407 138.9474,-21.8947 128,-26 128,-27.8095 128,-32" /><polygon points="128,-16 128,-16 128,-8 128,-16" /><polygon points="128,-16 128,-16 128,-16.5333" /><polygon points="128,-16.5333 128,-21.8947 138.9474,-21.8947 149.3333,-20.7407 128,-16" /><polygon points="384,152 384,244.8 379.3333,246.6667 288,246.6667 258.1622,194.4504 290,152" /><polygon points="-192,544 -192,544 -192,544 -192,512 -192,512 -192,544" /><polygon points="320,864 320,864 320,864 320,896 320,896 320,864" /><polygon points="280,608 256,608 288,608 304,608" /><polygon points="280,608 301.3333,608 256,608 256,608" /><polygon points="256,544 320,544 320,544 288,544" /><polygon points="256,608 256,544 288,544 288,608" /><polygon points="256,864 288,864 304,864 320,864 320,864" /><polygon points="320,864 320,864 256,864 256,864" /><polygon points="280,736 301.3333,736 256,736 256,736" /><polygon points="280,736 256,736 288,736 304,736" /><polygon points="256,672 280,672 304,672 288,672" /><polygon points="280,608 304,608 304,672 280,672" /><polygon points="256,736 256,672 288,672 288,736" /><polygon points="256,800 280,800 304,800 288,800" /><polygon points="280,800 280,736 304,736 304,800" /><polygon points="256,864 256,800 288,800 288,864" /><polygon points="-128,608 -152,608 -176,608 -160,608" /><polygon points="-128,544 -128,608 -160,608 -160,544" /><polygon points="-128,736 -152,736 -176,736 -160,736" /><polygon points="-152,672 -173.3333,672 -128,672 -128,672" /><polygon points="-152,672 -128,672 -160,672 -176,672" /><polygon points="-152,608 -173.3333,608 -173.3333,672 -152,672" /><polygon points="-128,672 -128,736 -160,736 -160,672" /><polygon points="-152,800 -173.3333,800 -128,800 -128,800" /><polygon points="-152,800 -128,800 -160,800 -176,800" /><polygon points="-152,736 -173.3333,736 -173.3333,800 -152,800" /><polygon points="-128,800 -128,864 -160,864 -160,800" /><polygon points="-32,512 -32,512 -32,512 -160,512 -192,512 -192,512 -192,512 -32,512" /><polygon points="96,536 96,512 96,512 96,533.3333 96,544 96,566" /><polygon points="96,536 96,536 96,512 96,512" /><polygon points="160,872 160,872 160,864 160,842" /><polygon points="160,872 160,872 160,872 160,896 160,896 160,874.6667 160,872" /><polygon points="-32,536 -32,536 -32,512 -32,512" /><polygon points="206.991,315.6036 224,308.8 248,299.2 248,384 248,480 192.6956,480" /><polygon points="-104,-16 -104,-32 -64,-32 -64,0" /><polygon points="-147.2941,163.353 -160,184 -174.5946,237.5135" /><polygon points="-147.2941,163.353 -174.5946,237.5135 -176,239.0588 -167.8027,144.6089" /><polygon points="96,512 96,512 96,512 96,512 32,512 32,512 32,512 32,512" /><polygon points="320,512 320,512 320,512 288,512 160,512 160,512 160,512 160,512" /><polygon points="96,896 96,874.6667 96,864 32,864 32,874.6667 32,896" /><polygon points="128,-26 128,-21.8947 128,-16.5333 128,-27.8095" /><polygon points="128,-27.8095 128,-32 128,-32" /><polygon points="128,-26 138.9474,-21.8947 128,-21.8947" /><polygon points="-168.2025,291.3924 -192,291.3924 -192,248.8941 -170.0706,248.8941" /><polygon points="-64,-32 32,-32 -64,0" /><polygon points="-64,0 -64,0 -104,-16" /><polygon points="258.1622,194.4504 224,240 224,240 290,152 290,152" /><polygon points="128,-32 128,-27.8095 128,-16.5333 128,-16 128,-8 32,-32" /><polygon points="-192,640 -192,832 -192,864 -192,864 -192,864 -192,640" /><polygon points="320,608 320,544 320,544 320,544 320,640 320,640" /><polygon points="32,864 32,842 32,872 32,896 32,896 32,874.6667" /><polygon points="32,544 32,533.3333 32,512 32,512 32,536 32,566" /><polygon points="32,544 32,544 32,533.3333" /><polygon points="160,566 160,576 160,576 160,544 160,544 160,544 160,544" /><polygon points="160,544 160,544 160,533.3333" /><polygon points="160,544 160,533.3333 160,512 160,512 160,536 160,566" /><polygon points="160,533.3333 160,544 320,544 320,512 160,512" /><polygon points="304,608 288,608 288,544 320,544 320,608" /><polygon points="96,533.3333 96,544 96,544" /><polygon points="96,566 96,576 160,576 160,566 160,536 96,536" /><polygon points="160,872 160,874.6667 160,864 160,864" /><polygon points="304,800 304,736 304,672 304,608 320,608 320,640 320,832 304,832" /><polygon points="320,832 320,864 304,864 304,832" /><polygon points="288,864 288,800 304,800 304,832 304,864" /><polygon points="288,736 288,672 304,672 304,736" /><polygon points="96,842 96,864 96,874.6667 96,896 96,896 96,872" /><polygon points="96,864 96,864 96,874.6667" /><polygon points="160,842 160,832 96,832 96,842 96,872 160,872" /><polygon points="-32,533.3333 -32,544 -32,544" /><polygon points="-32,544 -32,566 -32,536 -32,512 -32,512 -32,533.3333" /><polygon points="-32,566 -32,576 32,576 32,566 32,536 -32,536" /><polygon points="-192,544 -192,544 -128,544 -160,544" /><polygon points="-176,608 -192,608 -192,544 -160,544 -160,608" /><polygon points="-32,864 -32,864 -32,874.6667" /><polygon points="-32,842 -32,832 -32,832 -32,864 -32,864 -32,864 -32,864" /><polygon points="-32,842 -32,864 -32,874.6667 -32,896 -32,896 -32,872" /><polygon points="32,842 32,832 -32,832 -32,842 -32,872 32,872" /><polygon points="-176,864 -160,864 -128,864 -192,864 -192,864" /><polygon points="-192,640 -192,608 -176,608 -176,672 -176,736 -176,800 -176,832 -192,832" /><polygon points="-176,832 -176,864 -192,864 -192,832" /><polygon points="-176,672 -160,672 -160,736 -176,736" /><polygon points="-176,832 -176,800 -160,800 -160,864 -176,864" /><polygon points="-176,608 -152,608 -152,672 -176,672" /><polygon points="-176,736 -152,736 -152,800 -176,800" /><polygon points="-32,874.6667 -32,864 -192,864 -192,896 -32,896" /><polygon points="-170.0706,248.8941 -171.2,223.2 -160,184 -160,224 -160,400 -168.2025,291.3924" /><polygon points="-192,864 -192,864 -192,864 -192,864 -192,896 -192,896" /><polygon points="320,544 320,544 320,544 320,544 320,512 320,512" /><polygon points="32,864 32,864 32,874.6667" /><polygon points="32,864 32,864 32,864 32,832 32,832 32,842 32,864" /><polygon points="96,544 96,544 96,544 96,576 96,576 96,566 96,544" /><polygon points="96,544 96,533.3333 96,512 32,512 32,533.3333 32,544" /><polygon points="160,832 160,842 160,864 160,864 160,864 160,864 160,832" /><polygon points="320,864 160,864 160,874.6667 160,896 320,896" /><polygon points="96,832 160,832 160,832 96,832" /><polygon points="96,864 96,864 32,864 32,864" /><polygon points="-32,576 -32,566 -32,544 -32,544 -32,544 -32,544 -32,576" /><polygon points="-192,544 -32,544 -32,533.3333 -32,512 -192,512" /><polygon points="-32,832 32,832 32,832 -32,832" /><polygon points="-171.2,223.2 -176,240 -192,240 -160,184" /><polygon points="-192,246.6246 -192,240 -176,240 -170.0706,248.8941 -192,248.8941" /><polygon points="-160,72 -162.2857,72 -176,24" /><polygon points="-162.2857,72 -176,24 -176,24" /><polygon points="-162.2857,72 -160,72 -128,136 -192,136 -192,72" /><polygon points="-192,-16 -174.7692,-16 -176,24 -192,24" /><polygon points="-174.7692,-16 -160,-32 -176,24" /><polygon points="-192,544 -192,544 -192,544 -192,608 -192,640 -192,640" /><polygon points="320,640 320,864 320,864 320,864 320,832 320,640" /><polygon points="160,544 320,544 320,544 160,544" /><polygon points="96,544 96,544 32,544 32,544" /><polygon points="320,864 160,864 160,864 320,864" /><polygon points="-192,544 -32,544 -32,544 -192,544" /><polygon points="-32,864 -192,864 -192,864 -32,864" /><polygon points="384,244.8 384,244.8 379.3333,246.6667" /><polygon points="248,299.2 224,308.8 224,308.8 288,283.2" /><polygon points="288,283.2 224,308.8 224,240 258.1622,194.4504 288,246.6667" /><polygon points="-176,24 -162.2857,72 -192,72 -192,24" /><polygon points="-128,136 -160,184 -192,164.4445 -192,136" /><polygon points="-176,239.0588 -192,240 -192,144.3113 -167.8027,144.6089" /><polygon points="-192,240 -176,239.0588 -174.5946,237.5135 -160,184" /><polygon points="-176,240 -171.2,223.2 -170.0706,248.8941" /><polygon points="32,576 32,544 32,544 32,544 32,544 32,566 32,576" /><polygon points="96,544 160,544 160,576 96,576" /><polygon points="96,576 160,576 160,576 96,576" /><polygon points="96,832 96,864 96,864 96,864 96,864 96,842 96,832" /><polygon points="160,864 96,864 96,832 160,832" /><polygon points="-32,544 32,544 32,576 -32,576" /><polygon points="-32,576 32,576 32,576 -32,576" /><polygon points="32,864 -32,864 -32,832 32,832" /></g></defs><rect fill="#fff" height="1228.0" id="background" width="1228.0" x="-550.0" y="-230.0" /><use fill="none" stroke="black" stroke-miterlimit="0" stroke-width="15" xlink:href="#bsp_ref" /><use fill="white" stroke="black" stroke-width="1" xlink:href="#bsp_ref" /></svg>