<svg viewBox="-550 -230 1228 1228" xmlns="http://www.w3.org/2000/svg" xmlns:xlink="http://www.w3.org/1999/xlink"><defs><g id="a"><path d="m-56-16h112 8-128z"/><path d="m-56-16h-8v-32h8z"/><path d="m-64-60v-24h8v24z"/><path d="m-64-96v-32h8v32z"/><path d="m64-16h-8v-32h8z"/><path d="m56-60v-24h8v24z"/><path d="m-56-48v-12-24-12-32h112v32 12 24 12 32h-112z"/><path d="m56-128h8v32h-8z"/><path d="m64-96v-32z"/><path d="m64-60v-24z"/><path d="m128 0h64z"/><path d="m64-16v16h-16-112v-16z"/><path d="m192 0v24z"/><path d="m64 248h128z"/><path d="m64 0h64 64v24 200h-128z"/><path d="m192 224v24h-128v-16-8z"/><path d="m48 272v-32-8 72z"/><path d="m48 232h16z"/><path d="m48 0h16v224 8h-16z"/><path d="m-96 240h-64z"/><path d="m-160 0h32 64 112v232 8h-144-64z"/><path d="m-96 240v32z"/><path d="m-96 272h32z"/><path d="m48 240v32h-112-32v-32z"/><path d="m-64 272v32z"/><path d="m48 304h-112v-32h112z"/><path d="m192 248v24z"/><path d="m64 232v16z"/><path d="m64 272v-24z"/><path d="m64 272h128z"/><path d="m192 272h-128v-24h128z"/><path d="m48 232h16v16 24 24 8h-16z"/><path d="m192 272v24z"/><path d="m64 296v-24z"/><path d="m64 296h128z"/><path d="m192 296h-128v-24h128z"/><path d="m-64 304h-32z"/><path d="m-96 304v-32z"/><path d="m-64 304h-32v-32h32z"/><path d="m192 296v24z"/><path d="m64 320v-16-8z"/><path d="m64 296h128v24h-128z"/><path d="m192 896h-32-112z"/><path d="m192 896v-96 64z"/><path d="m192 800v96h-144v-96z"/><path d="m48 896h112-128z"/><path d="m192 512h-48z"/><path d="m-160 224v-224 240z"/><path d="m-160 224v16 64 16 128-128z"/><path d="m29.5 448h-6-35.5-72 5.1892z"/><path d="m64 448h47.4865 5.5135-72 5.1892z"/><path d="m-128 0h64z"/><path d="m-128 0h-32z"/><path d="m192 0h-64 32z"/><path d="m192 24v200 24-24z"/><path d="m192 24v-24 128 96z"/><path d="m64 320h128z"/><path d="m48 304h-112z"/><path d="m-96 240v32 32h-64v-64z"/><path d="m-96 304h32 112 16v16h-224v-16z"/><path d="m64 448h-13.8108-20.6892-108.3108-.1892-33-48v-128h224z"/><path d="m192 320v128h-48-32.5135-47.4865v-128z"/><path d="m-78.8108 512h-.1892v-64h.1892z"/><path d="m-78.8108 512v-64h-5.1892v64z"/><path d="m192 896v-32z"/><path d="m111.4865 512h32.5135 48v32 32h-32-16-80v-64z"/><path d="m144 576h16v32h-16z"/><path d="m64 736v-160h80v32 64 32 64h-80z"/><path d="m144 672h16v32h-16z"/><path d="m144 768h16v32h-96v-32z"/><path d="m-160 608v-32-64h48 33 .1892 61.2973 47.0135 20.6892 13.8108v64 160h-224z"/><path d="m64 736v32 32h-16-16-192v-64z"/><path d="m32 864v-64h16v96h-16z"/><path d="m32 864h-64-96l-32-32v-32h192z"/><path d="m144 608v64z"/><path d="m160 576h32-16z"/><path d="m160 608v-32h16v32z"/><path d="m160 704v-32h16v32z"/><path d="m32 864v32z"/><path d="m192 800h-32 16z"/><path d="m144 768v-64z"/><path d="m160 800v-32h16v32z"/><path d="m-128 864h96-64z"/><path d="m-160 512v64z"/><path d="m-160 608v128 64 32-32-64-64z"/><path d="m-160 832 32 32z"/><path d="m48 800v96z"/><path d="m64 800h96 32-144z"/><path d="m96 864v-32z"/><path d="m96 864h48v-32h-48z"/><path d="m144 832v32z"/><path d="m144 864h-48z"/><path d="m96 832h48z"/><path d="m-84 512h72-5.5135-61.2973z"/><path d="m-12 512h17 12 12.5-47.0135z"/><path d="m117 512h17 10-32.5135z"/><path d="m117 512h-5.5135-47.4865-13.8108-5.1892z"/><path d="m45 448h-16.2477-11.7523 6.5 6 20.6892z"/><path d="m23.5 448h-6.5-12-17z"/><path d="m117 448h17v64h-17z"/><path d="m-84 512v-64h72v64z"/><path d="m117 448v64h-72v-64z"/><path d="m45 512h-16l-.2477-13.7497v-50.2503h16.2477z"/><path d="m-12 448h17v64h-17z"/><path d="m144 608h16v64h-16z"/><path d="m144 768v-64h16v64z"/><path d="m17 512h11.4783.5217 16 5.1892-20.6892z"/><path d="m-112 512h-48z"/><path d="m-112 448h-48z"/><path d="m-112 448h11.7523z"/><path d="m-112 448v64h11.7523v-64z"/><path d="m144 512h-10-34-5.5z"/><path d="m144 448h-10-17-5.5135z"/><path d="m5 448h-34v64h34z"/><path d="m134 448h-34v64h34z"/><path d="m28.4783 512h.274v-13.7497z"/><path d="m28.4783 512 .274-13.7497.2477 13.7497z"/><path d="m28.7523 448h32.2477 5.2609-2.2609-22.7027-36.2973 12z"/><path d="m-100.2477 448v64h32.2477v-64z"/><path d="m-100 512h21-33z"/><path d="m-100 448h-12 33z"/><path d="m-100 448v64h-12v-64z"/><path d="m-100 512v-64h21v64z"/><path d="m64-16v-32z"/><path d="m128 0h-64z"/><path d="m128 0h-64z"/><path d="m64-16v16z"/><path d="m64 0v-16z"/><path d="m-64-16v16z"/><path d="m-64 0v-16z"/><path d="m192 576v-32z"/><path d="m192 576v32z"/><path d="m192 672v32z"/><path d="m192 768v32z"/><path d="m160 704h-16 16 16z"/><path d="m176 704h16-32z"/><path d="m192 608h-16v-32h16z"/><path d="m192 704h-16v-32h16z"/><path d="m176 608h16-32z"/><path d="m160 608v64z"/><path d="m160 608h-16 16 16z"/><path d="m176 672h-16-16 16z"/><path d="m160 768h32-16-16-16z"/><path d="m192 768h-16z"/><path d="m192 800h-16v-32h16z"/><path d="m-112 448h11.7523 32.2477 5.2609z"/><path d="m64-128h-8-112-8z"/><path d="m64-16h-128z"/><path d="m56-60h8z"/><path d="m-64-60h8z"/><path d="m56-84v-12z"/><path d="m56-96h8z"/><path d="m64-128v32z"/><path d="m64-84h-8z"/><path d="m64-84v24z"/><path d="m-56-96v12z"/><path d="m-64-96h8z"/><path d="m-64-128v32z"/><path d="m-56-84h-8z"/><path d="m-64-84v24z"/><path d="m56-48v-12z"/><path d="m64-48h-8z"/><path d="m64-48v32z"/><path d="m-56-60v12z"/><path d="m-56-48h-8z"/><path d="m-64-48v32z"/><path d="m64 0v-16h-128v16z"/><path d="m-68 512h-32.2477-11.7523 49.2609z"/><path d="m-68 448h39-5.5-28.2391z"/><path d="m100 448h-5.5-28.2391-5.2609z"/><path d="m100 448h34 10-49.5z"/><path d="m100 512v-64h-39v64z"/><path d="m-29 448h-39v64h39z"/><path d="m61 448h-32.2477v50.2503 13.7497h32.2477z"/><path d="m160 896h32-128-16-16z"/><path d="m192 896h-32z"/><path d="m-192 896h32z"/><path d="m-34.5 512h5.5-39 5.2609z"/><path d="m66.2609 512h28.2391 5.5-39z"/><path d="m32 512h32 2.2609-5.2609-32.2477-.274-11.4783-12-34-5.5z"/><path d="m-160 96v-96 224z"/><path d="m-160 96v128 96z"/><path d="m64-16h-128z"/><path d="m-64-16v-32z"/><path d="m64 320h-224v128h48 49.2609 28.2391 75.7973 22.7027z"/><path d="m66.2609 448h28.2391 49.5 48v-128h-128v128z"/><path d="m160 0h-32-64-128v88l40 40h184z"/><path d="m192 128v-128h-32v128z"/><path d="m-64 88 40 40z"/><path d="m-128 0h-32 32 64z"/><path d="m192 320v-96-96 96z"/><path d="m192 320h-128z"/><path d="m41.2973 448h-75.7973 5.5 34z"/><path d="m192 448h-48z"/><path d="m-128 0h64z"/><path d="m-160 0h32z"/><path d="m64 0h-128z"/><path d="m192 224v96 128-128-24-24-24z"/><path d="m192 544v-32z"/><path d="m192 608v-32-32-32z"/><path d="m192 704v-32z"/><path d="m192 864v-64z"/><path d="m192 896v-32-64-32z"/><path d="m-32 896v-32z"/><path d="m32 864v32z"/><path d="m-32 864h64z"/><path d="m-32 864h64z"/><path d="m-160 832v32 32h-32v-96h32z"/><path d="m-192 736v-64h32v64z"/><path d="m-128 864h-32v-32z"/><path d="m-96 864h64v32h-64z"/><path d="m-160 512v64 32h-32v-96z"/><path d="m-192 736h32z"/><path d="m-160 608h-32z"/><path d="m-160 672h-32z"/><path d="m-96 864v32z"/><path d="m-160 800h-32z"/><path d="m-160 896v-32z"/><path d="m-128 864h32-64z"/><path d="m-160 576v32z"/><path d="m96 864v16h48v-16z"/><path d="m144 880h32v-48h-32z"/><path d="m192 800-16 16v64l16 16z"/><path d="m48 800 16 16h112l16-16z"/><path d="m64 880-16 16h144l-16-16z"/><path d="m64 816-16-16v96l16-16z"/><path d="m176 832v-16h-80v16z"/><path d="m64 880h32v-64h-32z"/><path d="m48 896h144z"/><path d="m192 704v32 32-16-32z"/><path d="m208 512h112v160 64h-112z"/><path d="m320 736v160h-112v-160z"/><path d="m192 704v-32-64-96h16v224h-16z"/><path d="m208 736v160h-16v-128-32z"/><path d="m320 512v128 16 16z"/><path d="m192 800v96z"/><path d="m48 896v-96z"/><path d="m48 800h144z"/><path d="m64 880v-64h112v64z"/><path d="m48 800 16 16v64l-16 16z"/><path d="m48 896 16-16h112l16 16z"/><path d="m64 816-16-16h144l-16 16z"/><path d="m176 816 16-16v96l-16-16z"/><path d="m232 560h16 32 16z"/><path d="m232 544v16h64v-16z"/><path d="m296 544h-16-32-16z"/><path d="m232 576h64v-16h-64z"/><path d="m296 560v16z"/><path d="m232 576v-16z"/><path d="m296 576h-64z"/><path d="m232 560h64z"/><path d="m-96 896h64z"/><path d="m-192 608v-96z"/><path d="m-192 672v64z"/><path d="m-32 896v-32z"/><path d="m-32 864h64z"/><path d="m-192 736h32z"/><path d="m-160 608v64z"/><path d="m-160 736v64z"/><path d="m-160 896v-32z"/><path d="m-160 864h64z"/><path d="m248 560v-8h32v8z"/><path d="m248 552v-8h32v8z"/><path d="m48-60v44z"/><path d="m64-60h-16z"/><path d="m48-84h16z"/><path d="m64-84h-16v24h16z"/><path d="m64-84v24z"/><path d="m-48-84v-44z"/><path d="m-48-16h96z"/><path d="m48-128h-96z"/><path d="m-48-16 16-16v-80l-16-16z"/><path d="m32-32h-64l-16 16h96z"/><path d="m32-112h-64v80h64z"/><path d="m48-128-16 16v80l16 16z"/><path d="m-48-128 16 16h64l16-16z"/><path d="m-64-84h16z"/><path d="m-48-60h-16z"/><path d="m-64-60h16v-24h-16z"/><path d="m-64-60v-24z"/><path d="m-160 96v224z"/><path d="m-160 0v96z"/><path d="m-64 448v-48h8 120v48z"/><path d="m-160 336h24 48v112h-48-24z"/><path d="m-64 400v-64h8v64z"/><path d="m-56 400v-64-16h120v80z"/><path d="m-64 0v-16h128v16 128h-88l-40-40z"/><path d="m64 400v-80h128v128h-32-96z"/><path d="m304 281.6v-25.6h8z"/><path d="m208 192h96v48 16 25.6l-32 102.4h-32l-32-32z"/><path d="m384 192h64 28.8571 3.1429l-96 48h-80v-48z"/><path d="m476.2857 128h35.7143v44.2857l-18-10.2857-28-16z"/><path d="m512 172.2857v3.7143l-32 16h-3.1429l1.1429-2 16-28z"/><path d="m476.8571 192h-28.8571v-14.5l2-3.5 28 16z"/><path d="m448 128h28.2857l-10.2857 18-16 28-2 3.5z"/><path d="m64 0h64 80v128h-16-128z"/><path d="m208 128v-128h144 32v120 8 64h-80-96z"/><path d="m384 0v112 8z"/><path d="m352 0h-144-80z"/><path d="m64 0v-16z"/><path d="m208 192v160-224z"/><path d="m240 384h32z"/><path d="m384 192v-64z"/><path d="m480 192 32-16-128 64z"/><path d="m448 128v49.5 14.5z"/><path d="m450 174 16-28z"/><path d="m478 190-28-16z"/><path d="m466 146 28 16z"/><path d="m494 162-16 28z"/><path d="m448 192h-64z"/><path d="m304 256v-16z"/><path d="m384 240h-32-48z"/><path d="m304 281.6 8-25.6-40 128z"/><path d="m192 128v96z"/><path d="m-56 320h-104z"/><path d="m-56 336h-8z"/><path d="m-136 336h24 24z"/><path d="m-56 320v16z"/><path d="m192 448h-32z"/><path d="m-88 336v112z"/><path d="m64 128h128-32-184z"/><path d="m-64 88v-88z"/><path d="m64 320h-120-104z"/><path d="m192 608v16z"/><path d="m192 656v-32-16 64z"/><path d="m192 704v16z"/><path d="m192 656v16z"/><path d="m192 752v16z"/><path d="m208 720v32h16v-32z"/><path d="m192 720h16 16z"/><path d="m192 624h16 16z"/><path d="m208 624h-16v32h16z"/><path d="m192 720v32h16v-32z"/><path d="m160 704h32-48z"/><path d="m160 608h32-48z"/><path d="m160 672h32-16z"/><path d="m160 672h-16z"/><path d="m160 608h-16v64h16z"/><path d="m160 768h32z"/><path d="m160 768h-16z"/><path d="m160 704v64z"/><path d="m160 704h-16v64h16z"/><path d="m48-128v44z"/><path d="m-48-16v-44z"/><path d="m-32-32-16 16v-112l16 16z"/><path d="m-48-16 16-16h64l16 16z"/><path d="m-32-112h64v80h-64z"/><path d="m32-112 16-16v112l-16-16z"/><path d="m48-128-16 16h-64l-16-16z"/><path d="m64-60h-16v-24h16z"/><path d="m-64-84h16v24h-16z"/><path d="m312 384h-40z"/><path d="m312 256h16z"/><path d="m312 256h-8z"/><path d="m312 256h16l-16 128h-40z"/><path d="m312 384 16-128z"/><path d="m-56 320v16h-8-24-24-24-24v-16z"/><path d="m-64 336v64 48z"/><path d="m-112 448h-24 48z"/><path d="m-136 448h24z"/><path d="m-112 336v112z"/><path d="m-88 336h24v112h-24z"/><path d="m-88 336h-24v112h24z"/><path d="m-136 448h-24z"/><path d="m296 576h-64v-16h64z"/><path d="m344 384h-8-24z"/><path d="m328 256h16z"/><path d="m478 190-28-16 16-28 28 16z"/><path d="m344 256v128z"/><path d="m344 384h-32l16-128h16z"/><path d="m-88 336h24z"/><path d="m-136 336h24z"/><path d="m-136 336v112z"/><path d="m-112 448h24z"/><path d="m-88 448h24z"/><path d="m-112 336h24v112h-24z"/><path d="m-88 336v112z"/><path d="m-112 336h-24v112h24z"/><path d="m-32 896v-32-16z"/><path d="m32 864v-16z"/><path d="m-32 864h64v-16h-64z"/><path d="m-192 736h32 16z"/><path d="m-192 608h32 16z"/><path d="m-160 608h-32z"/><path d="m-160 672h16z"/><path d="m-160 608v64z"/><path d="m-96 864v-16z"/><path d="m-160 800h16z"/><path d="m-160 736v64z"/><path d="m-160 896v-32-16z"/><path d="m-160 864h64v-16h-48-16z"/><path d="m280 560h16z"/><path d="m248 544h-16z"/><path d="m248 544h32z"/><path d="m280 544h-32z"/><path d="m280 544h16-64 16z"/><path d="m248 552v8h32v-8z"/><path d="m248 544v8h32v-8z"/><path d="m248 560v-8z"/><path d="m248 552v-8z"/><path d="m280 552v8z"/><path d="m280 544v8z"/><path d="m280 552h-32z"/><path d="m248 552h32z"/><path d="m-160 336v112z"/><path d="m392 384h-24-24z"/><path d="m392 384h-48v-128h24z"/><path d="m-112 336h24z"/><path d="m-160 336h24z"/><path d="m-112 448h24 24-72z"/><path d="m-112 336v112z"/><path d="m-136 336h24v112h-24z"/><path d="m-136 336h-24v112h24z"/><path d="m144 608v64z"/><path d="m144 704v64z"/><path d="m232 544v16z"/><path d="m296 560v-16z"/><path d="m232 560h16z"/><path d="m296 560h-16-32-16z"/><path d="m296 544v16h-64v-16z"/><path d="m296 544h-16z"/><path d="m192 896h128z"/><path d="m320 896h-128 16z"/><path d="m-192 512h56 168-66.5-28.2391-49.2609-48z"/><path d="m32 512h32z"/><path d="m64 512h128-48-49.5-28.2391z"/><path d="m192 512h56 72-112z"/><path d="m-160 0v96z"/><path d="m208 128h-16z"/><path d="m448 128h64-35.7143z"/><path d="m384 128v-8z"/><path d="m-128 0h-32z"/><path d="m-128 0h64z"/><path d="m384 0h-32z"/><path d="m240 384-32-32z"/><path d="m336 384h8 24z"/><path d="m512 128v48-3.7143z"/><path d="m352 256h16-24z"/><path d="m448 192h-64v-64h64z"/><path d="m512 176-128 64z"/><path d="m384 240h-16-16z"/><path d="m352 240h16v16h-16-8-16-16-8v-16z"/><path d="m384 256 64 128h-56l-24-128z"/><path d="m384 256 64 128z"/><path d="m392 384-24-128z"/><path d="m192 224v224-128z"/><path d="m192 128v96z"/><path d="m-136 336h24z"/><path d="m-160 336h24z"/><path d="m-160 336h24v112h-24z"/><path d="m160 448h32-128z"/><path d="m160 448h-96-128 128z"/><path d="m-136 336v112z"/><path d="m-192 800v96z"/><path d="m-192 896h32v-48-48h-32z"/><path d="m-144 848v-48h-16v48z"/><path d="m-96 848v16 32h64v-48z"/><path d="m32 864v32h16v-48h-16z"/><path d="m-96 848h64 64 16v-64h-96-32-64v16 48z"/><path d="m-160 672h-32v64h48v-64z"/><path d="m-48 784-32-32v32z"/><path d="m-80 752v-144h-64v64 64 48h64z"/><path d="m-80 568-56-56h-56v96h48 64z"/><path d="m64 784v-160l-16 16v144 64h16z"/><path d="m48 848v48h16v-48z"/><path d="m64 848v48h128v-112h-48-80z"/><path d="m192 784v-16h-32-16v16z"/><path d="m192 704v-32h-32-16v32z"/><path d="m224 752h-32v16 16h128v-32z"/><path d="m224 752h96v-32h-96z"/><path d="m320 672v-16h-96-32v16 32 16h32 96z"/><path d="m224 656h96v-16h-72-24z"/><path d="m144 768v-64-32-64-16h-48l-32 32v160h80z"/><path d="m192 608v-16h-48v16z"/><path d="m248 624h-24v16h24z"/><path d="m248 512h-56v80 16 16h32 24z"/><path d="m320 512h-72v112 16h72z"/><path d="m144 592h48-96z"/><path d="m192 592v-80z"/><path d="m64 624 32-32-32 32-16 16z"/><path d="m320 896v-112z"/><path d="m192 896v-112z"/><path d="m-80 752 32 32z"/><path d="m-136 512 56 56z"/><path d="m224 640v-16h-16v32h16z"/><path d="m320 672v48 32 32 112-160z"/><path d="m224 656h-16-16z"/><path d="m224 752h-16-16z"/><path d="m32 896v-32z"/><path d="m-192 672h32z"/><path d="m-144 608h-16v64h16z"/><path d="m-96 896v-32z"/><path d="m-192 800h32z"/><path d="m-144 784v-48h-16v64h16z"/><path d="m192 896h128-176z"/><path d="m32 896h80-96z"/><path d="m16 896h-32z"/><path d="m576 384v-64 64 32z"/><path d="m32 512h32-32-168z"/><path d="m32 512h-168-56 32z"/><path d="m256 512h-64-128-32 32z"/><path d="m-320 320v80z"/><path d="m-320 400v32z"/><path d="m-160 400v-64 112z"/><path d="m-160 320v-96-128z"/><path d="m464 128h48z"/><path d="m432 128h32z"/><path d="m432 128h32 48-64-64z"/><path d="m512 128v48z"/><path d="m512 192 64 128v64h-64z"/><path d="m512 192-64 32-64 32v-16l128-64z"/><path d="m448 224 64-32v192h-64z"/><path d="m448 384-64-128 64-32z"/><path d="m384 240v16h-16v-16z"/><path d="m368 256h16-16-16z"/><path d="m448 512v-48z"/><path d="m448 432v32z"/><path d="m512 384h64v32 96h-128v-48-32-48z"/><path d="m-208 400h-112v-80h160v16 64z"/><path d="m-320 496v-64-32h112v48 64h-16-96z"/><path d="m-208 400h48v48h-32-16z"/><path d="m-208 512v-64h16v48 16z"/><path d="m-192 752v32z"/><path d="m-80 784v-32l32 32z"/><path d="m-192 640v-128h56l56 56v168h-112z"/><path d="m-80 736v16 32h-112v-32-16z"/><path d="m48 640 16-16v16 144h-16z"/><path d="m32 896h-16-32-176v-112h112 32 80z"/><path d="m48 784h16 128v112h-48-32-80v-112z"/><path d="m288 784h-96-128v-144h128 96z"/><path d="m320 640v48 32 64h-32v-144z"/><path d="m192 592v48h-128v-16l32-32z"/><path d="m416 640h-80-16-32-96v-48-80h64 160z"/><path d="m448 512h128v128h-112-32-16v-128z"/><path d="m320 784v-64 144 32z"/><path d="m320 688v32z"/><path d="m320 640v48z"/><path d="m576 640h-112z"/><path d="m336 640h-16z"/><path d="m48 784v-144z"/><path d="m288 784h32-128z"/><path d="m32 784h-80 96z"/><path d="m-80 736v-168 40 144z"/><path d="m-224 640h-224v-128h128 96z"/><path d="m-208 512h16v128h-32v-128z"/><path d="m-400 624h-32z"/><path d="m-432 528h32z"/><path d="m-432 624h32v-96h-32z"/><path d="m-432 624v-96z"/><path d="m-400 528v96z"/><path d="m-416 544h-16v64h16z"/><path d="m-416 608v-16-32-16z"/><path d="m-432 544v16 32 16z"/><path d="m128 0h160 64z"/><path d="m64 0h64z"/><path d="m64 0v-16z"/><path d="m-64-16v16z"/><path d="m-64 0v-16z"/><path d="m-432 592v-32z"/><path d="m-416 592h-8v-32h8z"/><path d="m-424 592h-8v-32h8z"/><path d="m-416 560h-8z"/><path d="m-424 560h-8z"/><path d="m-424 592v-32z"/><path d="m-64-128h128z"/><path d="m112 896h32z"/><path d="m-16 896h-144-32z"/><path d="m-64-16h8v-32h-8z"/><path d="m56-16h8v-32h-8z"/><path d="m-56-60v-24h-8v24z"/><path d="m56-48v-12-24-12h-112v12 24 12 32h112z"/><path d="m64-60v-24h-8v24z"/><path d="m-56-96h112 8v-32h-128v32z"/><path d="m64-60h-8z"/><path d="m-56-60h-8z"/><path d="m56-96v12z"/><path d="m64-96h-8z"/><path d="m56-84h8z"/><path d="m-56-84v-12z"/><path d="m-56-96h-8z"/><path d="m-64-96v-32z"/><path d="m-64-84h8z"/><path d="m-64-60v-24z"/><path d="m56-60v12z"/><path d="m56-48h8z"/><path d="m-56-48v-12z"/><path d="m-64-48h8z"/><path d="m-64 0h-64z"/><path d="m56-16h-112-8v16h128v-16z"/><path d="m208 352v-224z"/><path d="m208 384v-32z"/><path d="m240 384h32 40 24z"/><path d="m464 128v8z"/><path d="m336 384v-8z"/><path d="m448 432v32h8v-32z"/><path d="m448 432h8z"/><path d="m240 384h-32v-32z"/><path d="m-320 400h8z"/><path d="m-192 752v-112 96z"/><path d="m432 640v-8z"/><path d="m432 640h32z"/><path d="m432 640h32v-8h-32z"/><path d="m432 640h-96 80z"/><path d="m320 720h-8z"/><path d="m320 720v-32h-8v32z"/><path d="m112 896v-8z"/><path d="m64 0h-128z"/><path d="m96 0h-32-128-64 192z"/><path d="m96 0h32-64z"/><path d="m-400 624h-32v-96h32z"/><path d="m-416 560v32 16-64z"/><path d="m-416 560v-16z"/><path d="m-432 560v32z"/><path d="m-432 592v16z"/><path d="m-416 560h-8v32h8z"/><path d="m-424 560h-8v32h8z"/><path d="m-424 592h-8z"/><path d="m-416 592h-8z"/><path d="m-424 560v32z"/><path d="m-432 544h16v64h-16z"/><path d="m-416 608v-16z"/><path d="m-432 608h16z"/><path d="m-416 544h-16z"/><path d="m-432 544v16z"/><path d="m-432 608v-16-32-16z"/><path d="m-448 640v-128z"/><path d="m576 416v16 32 48 128-128z"/><path d="m-448 512h128z"/><path d="m288 512h32 112 16-32-160z"/><path d="m-320 512v-16z"/><path d="m-320 496v-64z"/><path d="m-192 432v-32h-120v32z"/><path d="m-192 400v32 16h16v-48z"/><path d="m-224 512h32v-16-48-16h-120-8v64 16z"/><path d="m-312 400h120 16v-80h-144v80z"/><path d="m-160 320h-16v80 48h16z"/><path d="m576 464h-120-8v48h16 112z"/><path d="m456 464h120v-32h-120z"/><path d="m512 384h-48-16v48h8 120v-16-32z"/><path d="m336 352v-224h-128v224z"/><path d="m208 384h32 96v-8-24h-128z"/><path d="m464 360v-8-216h-32v216 8z"/><path d="m432 384h16 16v-24h-32z"/><path d="m368 352v-224h-32v224z"/><path d="m336 376h32v-24h-32z"/><path d="m432 352v-216-8h-48-16v224z"/><path d="m368 376v8h64v-24-8h-64z"/><path d="m512 352v-160-16-48h-48v8 216z"/><path d="m464 360v24h48v-32h-48z"/><path d="m576 384v-64l-64-128v160 32z"/><path d="m384 112v-112 128z"/><path d="m-160 224v96 128-48z"/><path d="m208 128h128 32 16-160-32z"/><path d="m64 0h-192-32 96z"/><path d="m288 0h-160-32-32 64z"/><path d="m192 128v96z"/><path d="m192 448h-128z"/><path d="m-160 96v-96z"/><path d="m432 128h-48z"/><path d="m384 112v16-8z"/><path d="m384 0v112z"/><path d="m-160 0h32z"/><path d="m128 0h-32z"/><path d="m352 0h32z"/><path d="m432 384h-64 24 56z"/><path d="m368 376h-32v8h32z"/><path d="m512 192v-16z"/><path d="m576 320-64-128z"/><path d="m432 136v-8z"/><path d="m432 136h32v-8h-32z"/><path d="m368 376v8z"/><path d="m448 384v48z"/><path d="m456 464h-8z"/><path d="m208 384h32z"/><path d="m192 224v224z"/><path d="m64 448h-224 24 72z"/><path d="m-176 320h16-160z"/><path d="m-192 496v16z"/><path d="m-192 448v48z"/><path d="m-160 448h-16-16z"/><path d="m-320 432h8z"/><path d="m-312 432v-32h-8v32z"/><path d="m-192 896v-112z"/><path d="m-160 864v-80h-24-8v112h32z"/><path d="m-16 896v-8-24h-144v32z"/><path d="m16 888v-24h-32v24z"/><path d="m-160 784v-32h-24v32z"/><path d="m-160 640v-96-32h-32v128 112h8 24z"/><path d="m312 688h-24v32h24z"/><path d="m320 896v-32h-32-144v24 8z"/><path d="m64 512h-32-192v32h224z"/><path d="m288 544v-32h-32-192v32z"/><path d="m112 896v-8-24h-48-48v24 8z"/><path d="m144 888v-24h-32v24z"/><path d="m320 864v-144h-8-24v144z"/><path d="m312 688h8v-48-128h-32v32 96 48z"/><path d="m448 512h-16v120h32v-120z"/><path d="m464 632v8h112v-128h-112z"/><path d="m336 640h96v-8-120h-112v128z"/><path d="m288 544v96z"/><path d="m-160 640v112 32 80-128z"/><path d="m112 864h32 144-128-64-32z"/><path d="m64 544h-224 128 64z"/><path d="m144 888v8z"/><path d="m464 632v8z"/><path d="m312 688h8z"/><path d="m-184 752h-8z"/><path d="m-16 888v8z"/><path d="m144 888h-32v8h32z"/><path d="m16 896v-8z"/><path d="m16 888h-32v8h32z"/><path d="m-192 784h8z"/><path d="m-184 784v-32h-8v32z"/><path d="m-224 640h-224z"/><path d="m-192 640h-32z"/><path d="m-224 512h-96-128v128h224z"/><path d="m-192 640v-128h-32v128z"/><path d="m96 896h-64z"/><path d="m-192 672v64 160-32-64-64z"/><path d="m320 512v32 64 64z"/><path d="m288 640v-96-32h32v160 64h-32z"/><path d="m320 736v128h-32v-128z"/><path d="m288 512v32h-128v-32z"/><path d="m96 512v32h-32-32v-32z"/><path d="m288 864h32v32h-160v-24-8z"/><path d="m64 864h32v32h-64v-24-8z"/><path d="m-32 544h-128v-32h128z"/><path d="m-192 672v-160h32v32 96 96h-32z"/><path d="m-160 736v128 32h-32v-160z"/><path d="m-160 864h128v32h-128z"/><path d="m32 864v8z"/><path d="m32 544v-6-2-24z"/><path d="m160 864v8z"/><path d="m96 896v-32 8z"/><path d="m96 864h64v8h-64z"/><path d="m-32 544v-32 24z"/><path d="m-32 896v-32 8z"/><path d="m-32 864h64v8h-64z"/><path d="m288 640v96 128-144-32z"/><path d="m-160 544v96z"/><path d="m64 864h-32-64-128 144 32z"/><path d="m96 544h64 128-224z"/><path d="m320 896h-160z"/><path d="m-160 400v48 32h-32v-80z"/><path d="m-160-32v32 80l-16-56z"/><path d="m32-31v-1l1.7455.4363z"/><path d="m64 480h-224v-32h224z"/><path d="m192 448v32h-128v-32z"/><path d="m192 448v-126.4l14.991-5.9964-14.2954 164.3964h-.6956z"/><path d="m206.991 315.6036-14.991 5.9964v-97.6-96h32v24 88 68.8z"/><path d="m224 240v-88h66z"/><path d="m384 128v24h-94-66v-24z"/><path d="m352 0h-64-160v-8-8l72-16h32 120z"/><path d="m384-32v32h-32v-32z"/><path d="m128-8v8h-64-128l96-31 1.7455-.5637z"/><path d="m384 152h-94z"/><path d="m200-32-72 16 21.3333-4.7407z"/><path d="m206.991 315.6036-14.2954 164.3964z"/><path d="m128-8-94.2545-23.5637-1.7455-.4363z"/><path d="m32-32v1l-96 31z"/><path d="m32-32-96 32z"/><path d="m-160 0v-32h16 40v16z"/><path d="m32-31-96 31z"/><path d="m-64 0h-96l56-16z"/><path d="m-192-32h32l-14.7692 16h-17.2308z"/><path d="m-160-32-16 56z"/><path d="m-160 184 12.7059-20.647-20.5086-18.7441-24.1973-.2976v20.1332z"/><path d="m-160 80 32 56-32-64z"/><path d="m-160 80v-8l-16-48z"/><path d="m-160 80v104l32-48z"/><path d="m-160 400h-32v-108.6076h23.7975z"/><path d="m-160 184v-104-80 96 128z"/><path d="m352 0h32-32-64z"/><path d="m192 224v97.6 126.4z"/><path d="m64 448h-224z"/><path d="m-192 608v-64-32 160z"/><path d="m320 672v64 64 64 32-32-128z"/><path d="m32 536v-24z"/><path d="m32 538v-2z"/><path d="m160 538v-2z"/><path d="m160 536v-24z"/><path d="m160 536v-24 32-6z"/><path d="m320 544h-64v64h45.3333 18.6667z"/><path d="m256 544h64z"/><path d="m256 608v-64z"/><path d="m320 800h-18.6667-45.3333v64h64z"/><path d="m320 736h-18.6667v64h18.6667z"/><path d="m320 672h-18.6667-45.3333v64h45.3333 18.6667z"/><path d="m320 608h-18.6667v64h18.6667z"/><path d="m256 672h45.3333-21.3333z"/><path d="m301.3333 608h-21.3333v64h21.3333z"/><path d="m256 736v-64z"/><path d="m256 864v-64z"/><path d="m256 800h45.3333-21.3333z"/><path d="m301.3333 800v-64h-21.3333v64z"/><path d="m-128 608h-45.3333 21.3333z"/><path d="m-192 608h18.6667 45.3333v-64h-64z"/><path d="m-192 544h64z"/><path d="m-128 544v64z"/><path d="m-192 864h64v-64h-45.3333-18.6667z"/><path d="m-192 736h18.6667 45.3333v-64h-45.3333-18.6667z"/><path d="m-173.3333 736h-18.6667v64h18.6667z"/><path d="m-173.3333 608h-18.6667v64h18.6667z"/><path d="m-128 864h-64z"/><path d="m-128 736h-45.3333 21.3333z"/><path d="m-128 672v64z"/><path d="m-128 800v64z"/><path d="m-32 896h-160 32z"/><path d="m224 308.8v-68.8z"/><path d="m224 308.8-17.009 6.8036z"/><path d="m32 872v24z"/><path d="m96 512v24 8z"/><path d="m160 536h-64z"/><path d="m96 536h64v2 6h-64z"/><path d="m96 872v24z"/><path d="m96 872h64z"/><path d="m32 536h-64z"/><path d="m-32 536h64v2 6h-64z"/><path d="m-32 872v24z"/><path d="m-32 872h64z"/><path d="m200-32-50.6667 11.2593-10.3859-1.154-10.9474-4.1053v-1.8095-4.1905z"/><path d="m128-16v8z"/><path d="m128-16v-.5333z"/><path d="m128-16.5333v-5.3614h10.9474l10.3859 1.154-21.3333 4.7407z"/><path d="m384 152v92.8l-4.6667 1.8667h-91.3333l-29.8378-52.2163 31.8378-42.4504z"/><path d="m-192 544v-32z"/><path d="m320 864v32z"/><path d="m280 608h-24 32 16z"/><path d="m280 608h21.3333-45.3333z"/><path d="m256 544h64-32z"/><path d="m256 608v-64h32v64z"/><path d="m256 864h32 16 16z"/><path d="m320 864h-64z"/><path d="m280 736h21.3333-45.3333z"/><path d="m280 736h-24 32 16z"/><path d="m256 672h24 24-16z"/><path d="m280 608h24v64h-24z"/><path d="m256 736v-64h32v64z"/><path d="m256 800h24 24-16z"/><path d="m280 800v-64h24v64z"/><path d="m256 864v-64h32v64z"/><path d="m-128 608h-24-24 16z"/><path d="m-128 544v64h-32v-64z"/><path d="m-128 736h-24-24 16z"/><path d="m-152 672h-21.3333 45.3333z"/><path d="m-152 672h24-32-16z"/><path d="m-152 608h-21.3333v64h21.3333z"/><path d="m-128 672v64h-32v-64z"/><path d="m-152 800h-21.3333 45.3333z"/><path d="m-152 800h24-32-16z"/><path d="m-152 736h-21.3333v64h21.3333z"/><path d="m-128 800v64h-32v-64z"/><path d="m-32 512h-128-32z"/><path d="m96 536v-24 21.3333 10.6667 22z"/><path d="m96 536v-24z"/><path d="m160 872v-8-22z"/><path d="m160 872v24-21.3333z"/><path d="m-32 536v-24z"/><path d="m206.991 315.6036 17.009-6.8036 24-9.6v84.8 96h-55.3044z"/><path d="m-104-16v-16h40v32z"/><path d="m-147.2941 163.353-12.7059 20.647-14.5946 53.5135z"/><path d="m-147.2941 163.353-27.3005 74.1605-1.4054 1.5453 8.1973-94.4499z"/><path d="m96 512h-64z"/><path d="m320 512h-32-128z"/><path d="m96 896v-21.3333-10.6667h-64v10.6667 21.3333z"/><path d="m128-26v4.1053 5.3614-11.2762z"/><path d="m128-27.8095v-4.1905z"/><path d="m128-26 10.9474 4.1053h-10.9474z"/><path d="m-168.2025 291.3924h-23.7975v-42.4983h21.9294z"/><path d="m-64-32h96l-96 32z"/><path d="m-64 0-40-16z"/><path d="m258.1622 194.4504-34.1622 45.5496 66-88z"/><path d="m128-32v4.1905 11.2762.5333 8l-96-24z"/><path d="m-192 640v192 32z"/><path d="m320 608v-64 96z"/><path d="m32 864v-22 30 24-21.3333z"/><path d="m32 544v-10.6667-21.3333 24 30z"/><path d="m32 544v-10.6667z"/><path d="m160 566v10-32z"/><path d="m160 544v-10.6667z"/><path d="m160 544v-10.6667-21.3333 24 30z"/><path d="m160 533.3333v10.6667h160v-32h-160z"/><path d="m304 608h-16v-64h32v64z"/><path d="m96 533.3333v10.6667z"/><path d="m96 566v10h64v-10-30h-64z"/><path d="m160 872v2.6667-10.6667z"/><path d="m304 800v-64-64-64h16v32 192h-16z"/><path d="m320 832v32h-16v-32z"/><path d="m288 864v-64h16v32 32z"/><path d="m288 736v-64h16v64z"/><path d="m96 842v22 10.6667 21.3333-24z"/><path d="m96 864v10.6667z"/><path d="m160 842v-10h-64v10 30h64z"/><path d="m-32 533.3333v10.6667z"/><path d="m-32 544v22-30-24 21.3333z"/><path d="m-32 566v10h64v-10-30h-64z"/><path d="m-192 544h64-32z"/><path d="m-176 608h-16v-64h32v64z"/><path d="m-32 864v10.6667z"/><path d="m-32 842v-10 32z"/><path d="m-32 842v22 10.6667 21.3333-24z"/><path d="m32 842v-10h-64v10 30h64z"/><path d="m-176 864h16 32-64z"/><path d="m-192 640v-32h16v64 64 64 32h-16z"/><path d="m-176 832v32h-16v-32z"/><path d="m-176 672h16v64h-16z"/><path d="m-176 832v-32h16v64h-16z"/><path d="m-176 608h24v64h-24z"/><path d="m-176 736h24v64h-24z"/><path d="m-32 874.6667v-10.6667h-160v32h160z"/><path d="m-170.0706 248.8941-1.1294-25.6941 11.2-39.2v40 176l-8.2025-108.6076z"/><path d="m-192 864v32z"/><path d="m320 544v-32z"/><path d="m32 864v10.6667z"/><path d="m32 864v-32 10z"/><path d="m96 544v32-10z"/><path d="m96 544v-10.6667-21.3333h-64v21.3333 10.6667z"/><path d="m160 832v10 22z"/><path d="m320 864h-160v10.6667 21.3333h160z"/><path d="m96 832h64z"/><path d="m96 864h-64z"/><path d="m-32 576v-10-22z"/><path d="m-192 544h160v-10.6667-21.3333h-160z"/><path d="m-32 832h64z"/><path d="m-171.2 223.2-4.8 16.8h-16l32-56z"/><path d="m-192 246.6246v-6.6246h16l5.9294 8.8941h-21.9294z"/><path d="m-160 72h-2.2857l-13.7143-48z"/><path d="m-162.2857 72-13.7143-48z"/><path d="m-162.2857 72h2.2857l32 64h-64v-64z"/><path d="m-192-16h17.2308l-1.2308 40h-16z"/><path d="m-174.7692-16 14.7692-16-16 56z"/><path d="m-192 544v64 32z"/><path d="m320 640v224-32z"/><path d="m160 544h160z"/><path d="m96 544h-64z"/><path d="m320 864h-160z"/><path d="m-192 544h160z"/><path d="m-32 864h-160z"/><path d="m384 244.8-4.6667 1.8667z"/><path d="m248 299.2-24 9.6 64-25.6z"/><path d="m288 283.2-64 25.6v-68.8l34.1622-45.5496 29.8378 52.2163z"/><path d="m-176 24 13.7143 48h-29.7143v-48z"/><path d="m-128 136-32 48-32-19.5555v-28.4445z"/><path d="m-176 239.0588-16 .9412v-95.6887l24.1973.2976z"/><path d="m-192 240 16-.9412 1.4054-1.5453 14.5946-53.5135z"/><path d="m-176 240 4.8-16.8 1.1294 25.6941z"/><path d="m32 576v-32 22z"/><path d="m96 544h64v32h-64z"/><path d="m96 576h64z"/><path d="m96 832v32-22z"/><path d="m160 864h-64v-32h64z"/><path d="m-32 544h64v32h-64z"/><path d="m-32 576h64z"/><path d="m32 864h-64v-32h64z"/></g></defs><path d="m-550-230h1228v1228h-1228z" fill="#fff"/><g stroke="#000"><use fill="none" stroke-miterlimit="0" stroke-width="15" xlink:href="#a"/><use fill="#fff" xlink:href="#a"/></g></svg>