<svg viewBox="-1023 -1314 2260 2048" xmlns="http://www.w3.org/2000/svg" xmlns:xlink="http://www.w3.org/1999/xlink"><defs><g id="a"><path d="m1067-1144v140z"/><path d="m-853 340v84 140z"/><path d="m-853 116v84 140z"/><path d="m-853-108v84 140z"/><path d="m-853-332v84 140z"/><path d="m-853-556v84 140z"/><path d="m-853-780v84 140z"/><path d="m-853-1004v84 140z"/><path d="m1067 564h-128z"/><path d="m-629-1144h-224z"/><path d="m-405-1144h-224z"/><path d="m-181-1144h-224z"/><path d="m43-1144h-224z"/><path d="m267-1144h-224z"/><path d="m491-1144h-224z"/><path d="m715-1144h-224z"/><path d="m939-1144h-224z"/><path d="m-853-920v-84-140h224v224z"/><path d="m-853-696v-84-140h224v224z"/><path d="m-853-472v-84-140h224v224z"/><path d="m-853-248v-84-140h224v224z"/><path d="m-853-24v-84-140h224v224z"/><path d="m-853 200v-84-140h224v224z"/><path d="m-853 424v-84-140h224v224z"/><path d="m-629 564h-224v-140h224z"/><path d="m-629-920v-224h224v224z"/><path d="m-629-696v-224h224v224z"/><path d="m-629-472v-224h224v224z"/><path d="m-629-248v-224h224v224z"/><path d="m-629-24v-224h224v224z"/><path d="m-629 200v-224h224v224z"/><path d="m-629 424v-224h224v224z"/><path d="m-405 564h-224v-140h224z"/><path d="m-405-920v-224h224v224z"/><path d="m-405-696v-224h224v224z"/><path d="m-405-472v-224h224v224z"/><path d="m-405-248v-224h224v224z"/><path d="m-405-24v-224h224v224z"/><path d="m-405 200v-224h224v224z"/><path d="m-405 424v-224h224v224z"/><path d="m-181 564h-224v-140h224z"/><path d="m-181-920v-224h224v224z"/><path d="m-181-696v-224h224v224z"/><path d="m-181-472v-224h224v224z"/><path d="m-181-248v-224h224v224z"/><path d="m-181-24v-224h224v224z"/><path d="m-181 200v-224h224v224z"/><path d="m-181 424v-224h224v224z"/><path d="m43 564h-224v-140h224z"/><path d="m43-920v-224h224v224z"/><path d="m43-696v-224h224v224z"/><path d="m43-472v-224h224v224z"/><path d="m43-248v-224h224v224z"/><path d="m43-24v-224h224v224z"/><path d="m43 200v-224h224v224z"/><path d="m43 424v-224h224v224z"/><path d="m267 564h-224v-140h224z"/><path d="m267-920v-224h224v224z"/><path d="m267-696v-224h224v224z"/><path d="m267-472v-224h224v224z"/><path d="m267-248v-224h224v224z"/><path d="m267-24v-224h224v224z"/><path d="m267 200v-224h224v224z"/><path d="m267 424v-224h224v224z"/><path d="m491 564h-224v-140h224z"/><path d="m491-920v-224h224v224z"/><path d="m491-696v-224h224v224z"/><path d="m491-472v-224h224v224z"/><path d="m491-248v-224h224v224z"/><path d="m491-24v-224h224v224z"/><path d="m491 200v-224h224v224z"/><path d="m491 424v-224h224v224z"/><path d="m715 564h-224v-140h224z"/><path d="m715-920v-224h224v224z"/><path d="m715-696v-224h224v224z"/><path d="m715-472v-224h224v224z"/><path d="m715-248v-224h224v224z"/><path d="m715-24v-224h224v224z"/><path d="m715 200v-224h224v224z"/><path d="m715 424v-224h224v224z"/><path d="m939 564h-224v-140h224z"/><path d="m1067-1144v140 84h-128v-224z"/><path d="m1067-920v140 84h-128v-224z"/><path d="m1067-696v140 84h-128v-224z"/><path d="m1067-472v140 84h-128v-224z"/><path d="m1067-248v140 84h-128v-224z"/><path d="m1067-24v140 84h-128v-224z"/><path d="m1067 200v140 84h-128v-224z"/><path d="m1067 424v140h-128v-140z"/><path d="m224-580h-208-16v32 192h224z"/><path d="m0-356v32 128 32 32h224v-224z"/><path d="m0-132v192h16 208v-192z"/><path d="m448-580h-208-16v224h224z"/><path d="m224-356v224h224v-224z"/><path d="m224-132v192h16 208v-192z"/><path d="m647-356v-32-192h-183-16v224z"/><path d="m647-132v-32-192h-199v224z"/><path d="m464 60h183v-192h-199v192z"/><path d="m464-1096h-224v16 208h224z"/><path d="m240-872v4 224h224v-228z"/><path d="m688-1096h-224v224h224z"/><path d="m464-872v228h117 107v-228z"/><path d="m752-872v-208-16h-64v224z"/><path d="m752-644v-224-4h-64v228z"/><path d="m752-1096h-64z"/><path d="m240-1096v16z"/><path d="m647-580h-7-59-117z"/><path d="m240-868v-4-208 196z"/><path d="m464-644h-224 144z"/><path d="m752-868v224-16z"/><path d="m752-1080v208 4-16z"/><path d="m240 60h-16-208 16 80z"/><path d="m464 60h-16-208 16z"/><path d="m647-164v32 192-192z"/><path d="m647-388v32 192-192z"/><path d="m16 60h-16z"/><path d="m0-580v32z"/><path d="m480-1080h-220-4 4z"/><path d="m704-1080h-220-4 4z"/><path d="m484-1077h-224v-3h220 4z"/><path d="m708-1077h-224v-3h220 4z"/><path d="m730-1080v3h-22v-3z"/><path d="m730-1077v-3h6v190 34h-6z"/><path d="m736-856v190 6h-6v-2-191-3z"/><path d="m260-853v-3-221h224v224z"/><path d="m484-662h-224v-191h224z"/><path d="m484-853v-224h224v224z"/><path d="m708-662h-224v-191h224z"/><path d="m730-1077v221 3h-22v-224z"/><path d="m730-853v191h-22v-191z"/><path d="m484-660h-100-124v-2h224z"/><path d="m708-660h-127-97v-2h224z"/><path d="m730-662v2h-22v-2z"/><path d="m640-564v-9-7h7v192 32h-7z"/><path d="m647-356v192 32h-7v-32-32-129-31z"/><path d="m647-132v192h-7v-192z"/><path d="m581-519v-45h43v224h-43z"/><path d="m624-340v15 129 80h-43v-81-128-15z"/><path d="m624-116v160h-43v-17-143z"/><path d="m256-960v-120h4v3 221h-4z"/><path d="m260-856v3 191 2h-4v-34-42-120z"/><path d="m385-564h196v45h-106-99v-45z"/><path d="m475-413v-63-43h106v179 15h-85-21z"/><path d="m496-325h85v128h-85z"/><path d="m385-476h-9v-43h99v43z"/><path d="m385-434v-42h90v63h-43-47z"/><path d="m385-434h-9v-42h9z"/><path d="m432-370v-43h43v88h-43z"/><path d="m385-370v-43h47v43z"/><path d="m385-370h47v45 3h-175v-18-30z"/><path d="m257-322h175v6h-54-172v-6z"/><path d="m257-564h119v45 43 42h-119z"/><path d="m112-564h128 16 1v130 64 30h-145z"/><path d="m257-340v18h-51-64-30v-18z"/><path d="m112-322h30v128h-30z"/><path d="m378-194v-3h54 64 85v81 143h-203z"/><path d="m581 27v17h-195-8v-17z"/><path d="m378-316h54v119h-54z"/><path d="m206-316h172v119 3h-42-130z"/><path d="m112-116v-78h30 64 130v238h-78-2-144z"/><path d="m336-194h42v221 17h-42z"/><path d="m16-564h16 80v224h-96z"/><path d="m112-340v18 128 78h-96v-78-130-16z"/><path d="m112-116v160h-80-16v-160z"/><path d="m260-660h124-128z"/><path d="m730-853v-3-221 415z"/><path d="m484-1077h224 22-470z"/><path d="m260-853v-3-221 415z"/><path d="m484-662h224 22-470z"/><path d="m752-644v-16z"/><path d="m736-644h-155z"/><path d="m256-580h-16z"/><path d="m384-580h-128z"/><path d="m384-644h-144 16z"/><path d="m624-325v9 120z"/><path d="m640-164v32 192z"/><path d="m640-564v208 31z"/><path d="m581 44h43-43-195z"/><path d="m336 44h42 8-128z"/><path d="m475-325h21-64z"/><path d="m581-564h-196z"/><path d="m257-370v-64z"/><path d="m376-434h9-128z"/><path d="m256-564h-16z"/><path d="m432-316v-6-3 128z"/><path d="m206-194h-64z"/><path d="m142-322h64z"/><path d="m142-322v128z"/><path d="m480 60h-16-208 2 119 9z"/><path d="m32-580h80z"/><path d="m112 60h-80z"/><path d="m16-580h16z"/><path d="m32 60h-16z"/><path d="m240-580h-128-80-16 208z"/><path d="m464-580h-80-128-16 208z"/><path d="m240-660v16-224z"/><path d="m736-644h16-64-107z"/><path d="m581-644h-117z"/><path d="m480 60h144 16 7-183z"/><path d="m647-580v192z"/><path d="m16-580h-16z"/><path d="m0-580h16z"/><path d="m16 60h-16z"/><path d="m0-548v224-32z"/><path d="m0-580v32z"/><path d="m0-324v128z"/><path d="m0-324v128z"/><path d="m0-164v224-192z"/><path d="m0-196v32z"/><path d="m0-196v32z"/><path d="m386-147v64z"/><path d="m386-147h-128z"/><path d="m258-147v64z"/><path d="m386-83v-64h-128v64z"/><path d="m206-322v6 122z"/><path d="m273-235 12 5-.3325-.7573-13.4597-30.6583-4.2078-9.5844-4 11z"/><path d="m306.9592-310.1837-.0421-.0175-2.9171 1.2012 13.5555 5.1111 2.4445.8889 33 12z"/><path d="m319.9551-302.9842 33.2389 12.432-.194-.4478-33-12z"/><path d="m318-218-2.2739.8026-14.7261 5.1974 17 7 26-11 6.7857-13.5714z"/><path d="m315.7261-217.1974 2.2739-.8026-33.2456-12.5594.2456.5594z"/><path d="m353.2462-290.4317 12.7538 29.4317-15 30-34 12-31.5842-11.4851-13.4158-29.5149 15.3965-31.4929 32.6035-11.5071z"/><path d="m366-261-12.7538-29.4317-33.2462-12.5683-32.6035 11.5071-15.3965 31.4929 13.4158 29.5149 31.5842 11.4851 34-12z"/><path d="m272-260-.7143-1.5714-.0779.1558 13.4597 30.6583.7483.2722z"/><path d="m272-260 13.4158 29.5149-.7483-.2722-13.4597-30.6583.0779-.1558z"/><path d="m285-230-12-5 5 14 23 9 14.7261-5.1974z"/><path d="m319.9551-302.9842 33.2911 12.5525-.0522-.1205-33.194-12.4478z"/><path d="m360-300-39-16-14.0829 5.7988.0421.0175 46.0408 19.1837 12 5z"/><path d="m304-309-10 4-.0879.1538-6.5156 13.3533 32.6035-11.5071z"/><path d="m280-300-13 29 4.2857 9.4286.7143 1.5714 15.3965-31.4929 6.6035-13.5071z"/><path d="m350.7857-229.5714-6.7857 13.5714 14-5 13-29-5-10z"/><path d="m353.2462-290.4317 17.7538 40.4317 5-10-11-26-12-5z"/><path d="m271.2078-261.4156 13.4597 30.6583z"/><path d="m284.6675-230.7573.0869.1979z"/><path d="m267-271 4.2078 9.5844z"/><path d="m285.4158-230.4851-.7483-.2722.7482.2721 31.5843 11.4852z"/><path d="m267-271 4.2857 9.4286z"/><path d="m366-261-15 30z"/><path d="m287.3965-291.4929-15.3965 31.4929z"/><path d="m353.2462-290.4317 12.7538 29.4317-12.7499-29.4303z"/><path d="m353.2462-290.4317-33.2911-12.5525 33.295 12.5539z"/><path d="m271.2078-261.4156.0779-.1558z"/><path d="m142-322h64v128h-64z"/><path d="m385-370h-128z"/><path d="m385-434v21 43z"/><path d="m385-434v64h-128v-64z"/><path d="m496-197h-64z"/><path d="m496-325v128z"/><path d="m432-325h64v128h-64z"/><path d="m386-147v64h-128v-64z"/><path d="m386-83h-128z"/><path d="m1067 564v-140-84z"/><path d="m1067 340v-140-84z"/><path d="m1067 116v-140-84z"/><path d="m1067-108v-140-84z"/><path d="m1067-332v-140-84z"/><path d="m1067-556v-140-84z"/><path d="m1067-780v-140-84z"/><path d="m1067-1144v140z"/><path d="m-853 564v-224z"/><path d="m-853 340v-224z"/><path d="m-853 116v-224z"/><path d="m-853-108v-224z"/><path d="m-853-332v-224z"/><path d="m-853-556v-224z"/><path d="m-853-780v-224z"/><path d="m-853-1144v140z"/><path d="m-853 564h224z"/><path d="m-629 564h224z"/><path d="m-405 564h224z"/><path d="m-181 564h224z"/><path d="m43 564h224z"/><path d="m267 564h224z"/><path d="m491 564h224z"/><path d="m715 564h224z"/><path d="m1067 564h-128z"/><path d="m-853-1144h224z"/><path d="m-629-1144h224z"/><path d="m-405-1144h224z"/><path d="m-181-1144h224z"/><path d="m43-1144h224z"/><path d="m267-1144h224z"/><path d="m491-1144h224z"/><path d="m715-1144h224z"/><path d="m1067-1144h-128z"/><path d="m355-299h-73v73h73z"/><path d="m163-322h-51z"/><path d="m163-194v-128h-51v128z"/><path d="m112-194h-12z"/><path d="m100-322v128z"/><path d="m112-322h-12v128h12z"/><path d="m475-325h63z"/><path d="m385-476v63z"/><path d="m257-413v-63z"/><path d="m385-476h-128z"/><path d="m385-413v-63h-128v63z"/><path d="m538-197h-63z"/><path d="m538-325h-63v128h63z"/><path d="m475-325v128z"/><path d="m267-271-4 11z"/><path d="m285.4157-230.4852-.7482-.2721.7483.2722 31.5842 11.4851z"/><path d="m271.2857-261.5714-4.2857-9.4286 5 11z"/><path d="m272-260-.7143-1.5714z"/><path d="m353.2501-290.4303 17.7499 40.4303-17.7538-40.4317z"/><path d="m366-261-15 30z"/><path d="m272-260 15.3965-31.4929z"/><path d="m353.2501-290.4303 12.7499 29.4303-12.7538-29.4317z"/><path d="m320-303-32.6035 11.5071z"/><path d="m320-303-16-6z"/><path d="m353.2501-290.4303 12.7499 29.4303-15 30-34 12-31.5843-11.4852-13.4157-29.5148 15.3965-31.4929 32.6035-11.5071z"/><path d="m366-261-12.7499-29.4303-33.2501-12.5697-32.6035 11.5071-15.3965 31.4929 13.4157 29.5148 31.5843 11.4852 34-12z"/><path d="m351-231-34 12z"/><path d="m317-219 34-12z"/><path d="m272-260-.7143-1.5714-.0779.1558 13.4597 30.6583.7482.2721z"/><path d="m272-260 13.4157 29.5148-.7482-.2721-13.4597-30.6583.0779-.1558z"/><path d="m271.2078-261.4156.0779-.1558z"/><path d="m282-299h73z"/><path d="m355-299v73z"/><path d="m282-226v-73z"/><path d="m355-226h-73z"/><path d="m355-226h-73v-73h73z"/><path d="m386-104v63z"/><path d="m344-216-26 11-17-7 14.7261-5.1974 2.2739-.8026 32.7857-11.5714z"/><path d="m278-221-5-14 12 5 30.7261 12.8026-14.7261 5.1974z"/><path d="m284.7544-230.5594 33.2456 12.5594-2.2739.8026-30.7261-12.8026z"/><path d="m353.2501-290.4303-33.295-12.5539.0449-.0158 33.1971 12.4489z"/><path d="m320-303-16-6 2.9172-1.2011.042.0174 46.0408 19.1837.1971.4489z"/><path d="m360.1718-299.5193 4.8282 13.5193-12-5-46.0408-19.1837-.042-.0174 13.5841-5.5932z"/><path d="m294-305 10-4 16 6-32.6035 11.5071 6.5156-13.3533z"/><path d="m280-300 14-5-6.6035 13.5071-15.3965 31.4929-5-11z"/><path d="m273-235-10-25 4-11 17.7544 40.4406.2456.5594z"/><path d="m371-250-13 29-14 5 6.7857-13.5714 15.2143-30.4286z"/><path d="m376-260-5 10-17.7499-40.4303-.2501-.5697 12 5z"/><path d="m273-235 5 14z"/><path d="m280-300-13 29z"/><path d="m301-212 17 7z"/><path d="m344-216 14-5z"/><path d="m318-218-33.2456-12.5594z"/><path d="m371-250 5-10z"/><path d="m358-221 13-29z"/><path d="m350.7857-229.5714-32.7857 11.5714z"/><path d="m284.7544-230.5594-17.7544-40.4406 4.2078 9.5844 13.4597 30.6583z"/><path d="m360.1718-299.5193-39.6705-16.275.4987-.2057 39 16z"/><path d="m365-286-4.8282-13.5193-.1718-.4807z"/><path d="m376-260-11-26z"/><path d="m366-260-15.2143 30.4286z"/><path d="m371-250-5-10z"/><path d="m320-303-32.6035 11.5071z"/><path d="m320.5013-315.7943-16.5013 6.7943 2.9171-1.2012 14.0829-5.7988z"/><path d="m304-309-10 4z"/><path d="m319.9551-302.9842 33.295 12.5539z"/><path d="m294-305-14 5z"/><path d="m318-205 26-11z"/><path d="m278-221 23 9z"/><path d="m263-260 10 25z"/><path d="m258-41v-63z"/><path d="m386-104h-128z"/><path d="m386-41v-63h-128v63z"/><path d="m163-194h-51z"/><path d="m163-322v128h-51v-128z"/><path d="m163-322v128z"/><path d="m112-322h-12z"/><path d="m112-194h-12v-128h12z"/><path d="m385-476v63h-128v-63z"/><path d="m385-413h-128z"/><path d="m538-325v128z"/><path d="m475-325h63v128h-63z"/><path d="m386-104v63h-128v-63z"/><path d="m386-41h-128z"/><path d="m121-322h-9z"/><path d="m121-194v-128h-9v128z"/><path d="m112-194h-55z"/><path d="m112-322h-55v128h55z"/><path d="m57-322v128z"/><path d="m517-325h64z"/><path d="m385-519h-128z"/><path d="m257-455v-64z"/><path d="m385-455v-64h-128v64z"/><path d="m581-325h-64v128h64z"/><path d="m517-325v128z"/><path d="m581-197h-64z"/><path d="m258-62v64z"/><path d="m386-62h-128z"/><path d="m386 2v-64h-128v64z"/><path d="m-814-516v64z"/><path d="m-302-516h-64z"/><path d="m-590-516h-224v64 160h224z"/><path d="m-814-292v64 160h224v-224z"/><path d="m-814-68v64h224v-64z"/><path d="m-366-516h-224v224h224z"/><path d="m-590-292v224h224v-224z"/><path d="m-590-68v64h174 50v-64z"/><path d="m-302-324v-192h-64v224h64z"/><path d="m-366-292v224h64v-128-96z"/><path d="m-366-68v64h64v-64z"/><path d="m-590-4h-224z"/><path d="m121-194h-9z"/><path d="m121-322v128z"/><path d="m121-322v128h-9v-128z"/><path d="m112-322h-55z"/><path d="m112-194h-55v-128h55z"/><path d="m385-519v64z"/><path d="m385-455h-128z"/><path d="m385-519v64h-128v-64z"/><path d="m581-325v128z"/><path d="m517-325h64v128h-64z"/><path d="m484-1080h-4-220z"/><path d="m708-1080h-4-220z"/><path d="m708-1080h26 2-6-22-4z"/><path d="m730-1077v221 3 191z"/><path d="m730-1077h-22-224-224z"/><path d="m730-1077v415h-470v-415z"/><path d="m730-662v-415h-470v415z"/><path d="m260-1077v221 3 191z"/><path d="m730-662h-22-224-224z"/><path d="m752-644h-16z"/><path d="m386-62v64z"/><path d="m386-62v64h-128v-64z"/><path d="m386 2h-128z"/><path d="m16-322v-2 130z"/><path d="m78-322h-21-25z"/><path d="m78-322h-46v128h46z"/><path d="m16-322h16z"/><path d="m32-322h-16v128h16z"/><path d="m1008 529h16z"/><path d="m1008-137v37 187-179z"/><path d="m1008 525v-3z"/><path d="m1024 106v-19h-16v19z"/><path d="m1024 331v-225h-16v225z"/><path d="m1024 331h-16v170 21 3h16z"/><path d="m16-322v-2z"/><path d="m32-322v126z"/><path d="m256-694v-42z"/><path d="m256-660v-7-27z"/><path d="m262-667h-6z"/><path d="m384-667h-6z"/><path d="m262-725v58z"/><path d="m378-725h-116z"/><path d="m378-667v-58h-116v58z"/><path d="m384-660v-7h-6-116-6v7z"/><path d="m1008-324h-6z"/><path d="m1008 501v-170h-6v170z"/><path d="m1008 106h-6v225h6z"/><path d="m1008-137v-187h-6v224h6z"/><path d="m1002-100v206h6v-19-187z"/><path d="m608-644h-27-197 80 96 21z"/><path d="m608-644h128-155z"/><path d="m581-644h-117-80z"/><path d="m384-580v-64h-128v64z"/><path d="m256-580h-16z"/><path d="m240-580h-128z"/><path d="m624 376v100 25z"/><path d="m624 330v-82 120 8z"/><path d="m880-324h-16-224v128h240z"/><path d="m1002-324h-122v128 59 37h122z"/><path d="m880-100v187 19h122v-206z"/><path d="m848 87h-208-16v19h203 21z"/><path d="m880 106v-19h-32v19z"/><path d="m1002 106h-122-32-21v224 1h53 122z"/><path d="m1002 331h-122v170h122z"/><path d="m880 331h-53v170h53z"/><path d="m827 106h-203v142 82h203z"/><path d="m624 330v46 125h203v-170-1z"/><path d="m640-325v-239z"/><path d="m640-324v-1z"/><path d="m640-164v224z"/><path d="m880-196v59z"/><path d="m880-196h-240z"/><path d="m848 87h32-240z"/><path d="m640 60h-16z"/><path d="m640-196v32z"/><path d="m640-324v-1 129z"/><path d="m640-573v9z"/><path d="m256-562v2h1v-2z"/><path d="m385-498v-64h-1-127v2 62z"/><path d="m257-562h127v-2h-128v2z"/><path d="m256-560h1z"/><path d="m257-560v41 21z"/><path d="m384-564h1-9-119-1z"/><path d="m622-324v8h2v-9h-2z"/><path d="m622-316v-8h-60v8z"/><path d="m624-196v-120h-2-60v120z"/><path d="m622-324h-60z"/><path d="m562-316v-8 8 120z"/><path d="m16-196h16z"/><path d="m16-322h16v126h-16z"/><path d="m624 501v21h203v-21z"/><path d="m827 501v21h53v-21z"/><path d="m1008 522v-21h-6-122v21z"/><path d="m624 522v3h203v-3z"/><path d="m827 522v3h53v-3z"/><path d="m10-196h-10z"/><path d="m0-324h10 6v2 126h-6-10z"/><path d="m1008 525v4h16v-4z"/><path d="m-302-324v32 96z"/><path d="m258 44h-2z"/><path d="m386-19v63z"/><path d="m258 44v-63z"/><path d="m386-19h-128z"/><path d="m386 44v-63h-128v63z"/><path d="m10-324h-10z"/><path d="m10-324h6z"/><path d="m-78-196h-224z"/><path d="m-78-324h-224v128h224z"/><path d="m10-324h-10-78v128h78 10z"/><path d="m-641-20h-43-113-1z"/><path d="m-574-20h39-64z"/><path d="m-599-20h-42z"/><path d="m-416-20h-119z"/><path d="m-798-244v177 47z"/><path d="m-798-468v177 47z"/><path d="m-574-500h-224z"/><path d="m-350-500h-224z"/><path d="m-318-324h-2v-176h2z"/><path d="m-574-291h-224v-177-32h224z"/><path d="m-350-291h-66-158v-209h224z"/><path d="m-320-500v176 33h-30v-209z"/><path d="m-350-291h30v95h-96v-95z"/><path d="m-416-67v-129h96 2v176h-98z"/><path d="m-798-67v-177-47h224v224z"/><path d="m-574-20h-25-42-157v-47h224z"/><path d="m-416-291v95 129h-158v-224z"/><path d="m-416-67v47h-119-39v-47z"/><path d="m-320-291v-33 8 112 8z"/><path d="m378-667h-2-112-2z"/><path d="m378-725v58z"/><path d="m378-725v58h-116v-58z"/><path d="m32-194h25 21z"/><path d="m32-196h25v2h-25z"/><path d="m32-322h25v126h-25z"/><path d="m57-196v-126h21v128h-21z"/><path d="m78-322v128z"/><path d="m16-194h16z"/><path d="m16-194v-2h16v2z"/><path d="m16-196h-6z"/><path d="m256-667v-27z"/><path d="m384-660v-7z"/><path d="m378-667h6v7h-8v-7z"/><path d="m264-667h112v7h-112z"/><path d="m264-660h-8v-7h6 2z"/><path d="m384-580v-64z"/><path d="m376-573v-87z"/><path d="m376-660v87h-112v-87z"/><path d="m256-644v64z"/><path d="m624-316v-9 1 128z"/><path d="m624-325v-15-224z"/><path d="m622-325h2z"/><path d="m385-519v-43 64z"/><path d="m256-560v-2-2z"/><path d="m385-498h-128z"/><path d="m376-572h8v8 2h-8z"/><path d="m376-562h8 1v43h-9z"/><path d="m264-519h112 9v21h-128v-21z"/><path d="m376-573v1 10 43h-112v-41-13z"/><path d="m256-564v-9h8v13h-7-1z"/><path d="m257-519v-41h7v41z"/><path d="m384-562v-2z"/><path d="m384-562h1z"/><path d="m385-564h-1z"/><path d="m624-196h-62z"/><path d="m622-316h2v120h-62v-120z"/><path d="m622-324v8h-60v-8z"/><path d="m624-316h-2v-8-1h2z"/><path d="m622-324v-1z"/><path d="m9-204v-112-8h1v128h-1z"/><path d="m-302-316h224v112h-224z"/><path d="m-78-316h87v112h-87z"/><path d="m9-324v8z"/><path d="m-78-316h-224z"/><path d="m9-204h-87z"/><path d="m10-324v128z"/><path d="m-535-112v92z"/><path d="m-535-497v92z"/><path d="m-320-196v-8z"/><path d="m-320-316h18v112h-18z"/><path d="m-302-316h-18z"/><path d="m-599-497h64z"/><path d="m-535-405h-64z"/><path d="m-599-405v-92z"/><path d="m-535-405v-92h-64v92z"/><path d="m-672-291v68h19v-68z"/><path d="m-535-20v-92h-43-21v92z"/><path d="m-578-112h43z"/><path d="m-599-112h21z"/><path d="m-672-291h19z"/><path d="m-653-223v-5-57-6z"/><path d="m-672-291v6 57 5z"/><path d="m-599-20v-92z"/><path d="m386-19v63h-2-126v-63z"/><path d="m482 376h-224 100z"/><path d="m377 284v-36-188h-119v92 132z"/><path d="m258 368h119v-84h-119z"/><path d="m386 248v-188h-9v188z"/><path d="m256 44h2v10 6h-2z"/><path d="m384 44v10h-126v-10z"/><path d="m482 368h-105-119v8h224z"/><path d="m624 376v-8h-23-119v8z"/><path d="m601 248h-215-9v36 84h105 119z"/><path d="m624 368v-120h-23v120z"/><path d="m258 60v-6 6 92z"/><path d="m384 54h-6-112-8z"/><path d="m384 44v10z"/><path d="m601 248h23-238z"/><path d="m624 60h-144z"/><path d="m262-757v63z"/><path d="m378-757h-116v63h116z"/><path d="m378-757h-116z"/><path d="m-657-280h-8v50h8z"/><path d="m-657-230h-8z"/><path d="m-657-280v50z"/><path d="m-665-230v-50z"/><path d="m1024 525v-194 194 4z"/><path d="m1024 331v-30-195z"/><path d="m1008 522h-128z"/><path d="m1002 331v-1-20z"/><path d="m1002 331v21 43 106z"/><path d="m627-324h-3 2 14z"/><path d="m640-564v-9z"/><path d="m640-325v1-224-16z"/><path d="m640-196v-8z"/><path d="m864-316h-224z"/><path d="m1000-204v-112 112 69z"/><path d="m888-204h-24z"/><path d="m864-204h-224v-112h224z"/><path d="m1000-316v112h-112-24v-112z"/><path d="m888-135v155 69-69z"/><path d="m888-135v-69h112v69 155h-112z"/><path d="m1000 20v69h-112v-69z"/><path d="m624-324h3v128h-3z"/><path d="m627-324h13v8 112 8h-13z"/><path d="m646 501v-89-36h6 23v125z"/><path d="m652 376v-28h23v28z"/><path d="m675 376v-28h152v153h-152z"/><path d="m652 248v-142h175v224h-175z"/><path d="m827 330v18h-152-23v-18z"/><path d="m652 248h-6v-142h6z"/><path d="m827 106h53 8 112 2v140 64 20h-175z"/><path d="m1002 330v1 170h-175v-153-18z"/><path d="m880 103v3h-53-175-6v-3z"/><path d="m1000 89v17h-112v-17z"/><path d="m888 89v17z"/><path d="m1008 525v-3h-128v3z"/><path d="m880 525v-3z"/><path d="m-578-20h-21z"/><path d="m-535-497v92h-64v-92z"/><path d="m-535-112v92h-43v-92z"/><path d="m-578-20h-21v-92h21z"/><path d="m-672-228v-57h2v57z"/><path d="m-670-228v-57h15v57z"/><path d="m-655-228v-57h2v57z"/><path d="m-653-291h-19z"/><path d="m-655-285h-15z"/><path d="m-670-285h-2z"/><path d="m-653-291v6z"/><path d="m-655-228h2z"/><path d="m-670-228h15z"/><path d="m-670-228v-57z"/><path d="m-655-285v57z"/><path d="m-672-223v-5z"/><path d="m-653-223h-19z"/><path d="m1008 529v-4z"/><path d="m1024 529h-16v-4h16z"/><path d="m740 476h-8-49-8z"/><path d="m675 495h8 49 8z"/><path d="m740 476h-65v19h65z"/><path d="m652 248h-4-2z"/><path d="m652 368v-112-8 82 18 28z"/><path d="m652 248v8z"/><path d="m652 368h-28z"/><path d="m652 256v112h-28v-112z"/><path d="m258 54h8z"/><path d="m266 144v140 84-84z"/><path d="m378 54v6z"/><path d="m377 60h-111v-6h112v6z"/><path d="m378 60v188h-1v-188z"/><path d="m601 256h-224z"/><path d="m624 256h-23z"/><path d="m601 368h-111-113v-84-28h224z"/><path d="m624 368h-23v-112h23z"/><path d="m377 60v188 8 28h-111v-140-84z"/><path d="m377 284v84h-111v-84z"/><path d="m624 525h203z"/><path d="m740 495v-19z"/><path d="m675 476v19z"/><path d="m675 476h8z"/><path d="m683 476h49v1h-49z"/><path d="m683 494v-17h49v17z"/><path d="m732 495h-49v-1h49z"/><path d="m683 476v1z"/><path d="m683 477v17z"/><path d="m683 494v1z"/><path d="m732 477v-1z"/><path d="m732 494v-17z"/><path d="m732 495v-1z"/><path d="m740 495h-8z"/><path d="m624 501v21z"/><path d="m624 522v3z"/><path d="m378-757v63z"/><path d="m378-694h-116z"/><path d="m262-757h116v63h-116z"/><path d="m385-564h-1z"/><path d="m384-564h1z"/><path d="m1002 310v-64z"/><path d="m912 310v-64z"/><path d="m912 246h90z"/><path d="m1002 310h-90z"/><path d="m1002 246h-90v64h90z"/><path d="m-578-497h-63z"/><path d="m-641-405v-92z"/><path d="m-578-497v92z"/><path d="m-578-405v-92h-63v92z"/><path d="m-578-112v92z"/><path d="m-641-112h63z"/><path d="m-641-20v-92z"/><path d="m-599-20h21v-92h-63v92z"/><path d="m732 479h-49v10h49z"/><path d="m683 489v-10z"/><path d="m378-800h-116z"/><path d="m378-800v64z"/><path d="m262-736v-64z"/><path d="m378-736v-64h-116v64z"/><path d="m378-736h-116z"/><path d="m16-564v224 16z"/><path d="m1002 246v-140z"/><path d="m1002 106h-2z"/><path d="m1002 289v21h-90v-64h90z"/><path d="m-578-20h-42-21z"/><path d="m-578-405h-63z"/><path d="m-578-497v92h-63v-92z"/><path d="m-578-112v92h-63v-92z"/><path d="m378-800v64h-116v-64z"/><path d="m1024 525v-194z"/><path d="m827 525h53z"/><path d="m1024 525h-16-128z"/><path d="m1002 501h-90z"/><path d="m912 501h-42-43z"/><path d="m912 501h-85 175z"/><path d="m827 501h-181 29z"/><path d="m1002 331v-21-21z"/><path d="m1002 395v106z"/><path d="m912 289v63z"/><path d="m1002 352h-90z"/><path d="m912 289h90z"/><path d="m1002 331v-42h-90v63h90z"/><path d="m-684-20h-113z"/><path d="m-578-20h43z"/><path d="m-578-20h43 119-64-94-46z"/><path d="m-620-497h-64z"/><path d="m-620-405h-64z"/><path d="m-620-497v92z"/><path d="m-684-405v-92z"/><path d="m-620-405v-92h-64v92z"/><path d="m-620-112h-64z"/><path d="m-641-20h21v-92h-64v92z"/><path d="m-620-112v92z"/><path d="m-684-20v-92z"/><path d="m378-843v64z"/><path d="m378-843h-116z"/><path d="m262-843v64z"/><path d="m378-779v-64h-116v64z"/><path d="m1008 87h16z"/><path d="m1002 331v21z"/><path d="m912 289h90v42 21h-90z"/><path d="m-663-20h-21z"/><path d="m-620-497v92h-64v-92z"/><path d="m-620-112v92h-21-22-21v-92z"/><path d="m378-779h-116z"/><path d="m378-843v64h-116v-64z"/><path d="m1002 395v-43z"/><path d="m912 395v-64z"/><path d="m912 331h90z"/><path d="m1002 395h-90z"/><path d="m1002 352v-21h-90v64h90z"/><path d="m-797-405v-92z"/><path d="m-663-497h-134z"/><path d="m-663-497v92z"/><path d="m-663-405v-92h-134v92z"/><path d="m-797-20v-92z"/><path d="m-797-112h134z"/><path d="m-684-20h21v-92h-134v92z"/><path d="m-663-112v92z"/><path d="m261-885v64z"/><path d="m377-821v-64h-116v64z"/><path d="m377-885h-116z"/><path d="m1024 87v19z"/><path d="m1024 87h-16z"/><path d="m1002 374v21z"/><path d="m624 106v82 60z"/><path d="m624 106v-19z"/><path d="m912 331h90v43 21h-90z"/><path d="m-663-20h22z"/><path d="m-663-20h22-156z"/><path d="m-641-20h21z"/><path d="m-663-497v92h-134v-92z"/><path d="m-663-405h-134z"/><path d="m-663-112v92h-134v-92z"/><path d="m-797-403h92z"/><path d="m-797-175v64z"/><path d="m-797-339v-64z"/><path d="m-705-403v64z"/><path d="m-705-339h-92z"/><path d="m-705-403h-92v64h92z"/><path d="m-705-175h-92v64h92z"/><path d="m-705-111h-92z"/><path d="m-797-175h92z"/><path d="m-302-196v128 64z"/><path d="m377-885v64z"/><path d="m377-821h-116z"/><path d="m377-885v64h-116v-64z"/><path d="m-416-20h98z"/><path d="m-798-20v-32-192z"/><path d="m-798-244v-32-192z"/><path d="m-798-500v32z"/><path d="m-798-500h224z"/><path d="m-574-500h224z"/><path d="m-318-500h-2-30z"/><path d="m-318-196h-2z"/><path d="m-318-500v80 96z"/><path d="m-318-20v-176z"/><path d="m752-644v-16z"/><path d="m240-644v-16z"/><path d="m752-644h-16z"/><path d="m624 44v-160-80z"/><path d="m624-324v-1-239z"/><path d="m581 44h43z"/><path d="m581 44h-101-96 2z"/><path d="m112 44h144z"/><path d="m32 44h80z"/><path d="m112-564h-80z"/><path d="m16 44h16z"/><path d="m32-564h-16z"/><path d="m912 501v-1z"/><path d="m912 500v-88z"/><path d="m912 374h90z"/><path d="m1002 395v-21h-90v38 88 1h90z"/><path d="m-797-403h92v64h-92z"/><path d="m-705-175v64z"/><path d="m-797-175h92v64h-92z"/><path d="m736-1080h-2z"/><path d="m260-1080h-4z"/><path d="m256-960v104 120z"/><path d="m256-1080v120z"/><path d="m256-667v7z"/><path d="m256-736v42 27z"/><path d="m736-666v-190-34z"/><path d="m736-890v-190z"/><path d="m736-666v6z"/><path d="m261-927h114z"/><path d="m261-927v63z"/><path d="m375-927h-114v63h114z"/><path d="m375-927v63z"/><path d="m375-864h-114z"/><path d="m912 412v-38z"/><path d="m848 412h64z"/><path d="m912 500v-88h-64v88z"/><path d="m848 500v-88z"/><path d="m912 500v-88z"/><path d="m912 500v-88-38h90v127h-90z"/><path d="m912 500h-64z"/><path d="m-797-223v-137 137 69z"/><path d="m-705-360h-92v137h92z"/><path d="m-797-360h92z"/><path d="m-705-223v69z"/><path d="m-797-223v69h92v-69z"/><path d="m-705-154h-92z"/><path d="m-814-4v-64-160z"/><path d="m-814-228v-64-160z"/><path d="m-814-516v64z"/><path d="m-302-4v-192z"/><path d="m261-927h114v63h-114z"/><path d="m-814-516h224z"/><path d="m-590-516h224z"/><path d="m-302-516h-64z"/><path d="m-302-4h-64-50z"/><path d="m912 412v88h-64v-88z"/><path d="m-705-360v137z"/><path d="m-797-360h92v137h-92z"/><path d="m-705-223v69h-92v-69z"/><path d="m240-1096h224z"/><path d="m464-1096h224z"/><path d="m752-1096h-64z"/><path d="m240-1096v16z"/><path d="m752-1096v16z"/><path d="m752-884v16 208z"/><path d="m752-1080v196z"/><path d="m240-660v-208-16z"/><path d="m240-884v-196z"/><path d="m375-906h-114z"/><path d="m375-970v64z"/><path d="m261-970h114z"/><path d="m261-970v64z"/><path d="m375-970h-114v64h114z"/><path d="m683 489v-10h49v10z"/><path d="m732 479v10z"/><path d="m683 479h49z"/><path d="m732 489h-49z"/><path d="m869 412h-63z"/><path d="m806 412v88z"/><path d="m869 500v-88h-63v88z"/><path d="m869 412v88z"/><path d="m112-580h128z"/><path d="m112-580h-48-32z"/><path d="m32 60h32 48z"/><path d="m32-580h-16z"/><path d="m16 60h16z"/><path d="m16-580h-16z"/><path d="m0 60h16z"/><path d="m732 476h8z"/><path d="m683 476h49 8z"/><path d="m732 476h-49v1h49z"/><path d="m732 494v-17h-49v17z"/><path d="m683 495h49v-1h-49z"/><path d="m683 494h49z"/><path d="m732 494h-49z"/><path d="m732 477h-49z"/><path d="m683 477h49z"/><path d="m683 476h57v19h-57-8v-19z"/><path d="m740 495h-8-49z"/><path d="m675 495h8z"/><path d="m581-660h-21-96-80 100z"/><path d="m384-660h-8z"/><path d="m261-970h114v64h-114z"/><path d="m464-680v20z"/><path d="m560-660v-20h-96v20z"/><path d="m560-680h-8-80-8z"/><path d="m736-644h16z"/><path d="m384-580v-64z"/><path d="m560-583v-61h-96v61z"/><path d="m640-644h-32-27z"/><path d="m581-580h59z"/><path d="m384-580h80 117z"/><path d="m640-644h96-128z"/><path d="m640-580v7z"/><path d="m384-572v1 7z"/><path d="m869 412v88h-63v-88z"/><path d="m869 500h-63z"/><path d="m560-660v-20z"/><path d="m552-680h8v20h-8z"/><path d="m472-680h80v20h-80z"/><path d="m464-660v-20h8v20z"/><path d="m552-660v67h-80v-67z"/><path d="m827 412h-64z"/><path d="m827 412v88z"/><path d="m763 412v88z"/><path d="m827 412h-64v88h64z"/><path d="m1002 106v183-43z"/><path d="m624-196v80 160z"/><path d="m624-324h2z"/><path d="m640-316v-8z"/><path d="m1000-316h-136z"/><path d="m1000-135v155 69-69z"/><path d="m864-204h-224z"/><path d="m864-316h-224v112h224z"/><path d="m888-204h112v-112h-136v112z"/><path d="m888-204v69z"/><path d="m1000-135v-69h-112v69 155h112z"/><path d="m888 20v69h112v-69z"/><path d="m626-196h-2 3 13z"/><path d="m640-204v-112-8h-14v128h14z"/><path d="m626-324v128z"/><path d="m1002 106h-2-112-8z"/><path d="m888 106h-8z"/><path d="m888 89v17h112v-17z"/><path d="m1000 89v17z"/><path d="m734-1080h2z"/><path d="m734-1080h-26z"/><path d="m260-1080v130z"/><path d="m484-950h-224z"/><path d="m708-950h-224z"/><path d="m484-1080h-224v130h224z"/><path d="m708-1080h-224v130h224z"/><path d="m734-950v-130h-26v130z"/><path d="m-657-230h-8v-50h8z"/><path d="m-665-280h8z"/><path d="m624-324v128z"/><path d="m624-196h2z"/><path d="m626-324h-2v128h2z"/><path d="m-672-285v57h2v-57z"/><path d="m-670-285v57h15v-57z"/><path d="m-655-285v57h2v-57z"/><path d="m-653-291h-19z"/><path d="m-653-223h-19z"/><path d="m-653-285h-2z"/><path d="m-672-285v-6z"/><path d="m-672-228h2z"/><path d="m-670-228v-57z"/><path d="m-655-285v57z"/><path d="m-653-228v5z"/><path d="m763 412h64v88h-64z"/><path d="m827 500h-64z"/><path d="m484-1080h-224 220z"/><path d="m708-1080h-224 220z"/><path d="m264-660h112 8-128z"/><path d="m264-660h-8z"/><path d="m256-660v-7z"/><path d="m734-1080v130z"/><path d="m734-950h-26z"/><path d="m484-950h-224v-130h224z"/><path d="m708-950h-224v-130h224z"/><path d="m734-1080v130h-26v-130z"/><path d="m256-573h8z"/><path d="m264-573v-87z"/><path d="m376-660h-112v87h112z"/><path d="m256-564v-7-2z"/><path d="m256-564v-7z"/><path d="m384-571v-1z"/><path d="m384-571v7z"/><path d="m256-571h120v-1-1h-112-8z"/><path d="m376-571h8v-1h-8z"/><path d="m376-572v-1z"/><path d="m376-572h8z"/><path d="m10-324h-1z"/><path d="m10-196h-1z"/><path d="m9-204v8z"/><path d="m10-324h-1v8 112 8h1z"/><path d="m-78-316h-224v112h224z"/><path d="m9-316h-87v112h87z"/><path d="m9-316h-87z"/><path d="m-78-204h-224z"/><path d="m-320-316v-8z"/><path d="m-320-204v-112-8 128z"/><path d="m-302-316h-18v112h18z"/><path d="m-302-204h-18z"/><path d="m-672-223v-68h19v68z"/><path d="m-672-223h19z"/><path d="m-653-291v6 57 5z"/><path d="m-672-223v-5-57-6z"/><path d="m624 476v25z"/><path d="m624 412v64-100z"/><path d="m624 476v-64z"/><path d="m736 412h-53-35-2z"/><path d="m784 412h-48z"/><path d="m646 376h2 4z"/><path d="m646 412v-36z"/><path d="m646 501v-1z"/><path d="m646 501v-1-88z"/><path d="m784 500v-88h-48-90v88z"/><path d="m1008-316v-8 187z"/><path d="m-302-516v192z"/><path d="m16-194v78 160z"/><path d="m16-194v-2z"/><path d="m16-324v-96-144z"/><path d="m384-660h80z"/><path d="m734-971h-84v63h84z"/><path d="m650-971h84z"/><path d="m734-971v63z"/><path d="m650-908v-63z"/><path d="m734-908h-84z"/><path d="m1002-316h6v179 45h-6z"/><path d="m1008-92v179h-6v-179z"/><path d="m1008-324v8h-6v-8z"/><path d="m1002 87h6z"/><path d="m464-644v61z"/><path d="m464-644h-80z"/><path d="m384-644v64h-128v-64z"/><path d="m384-644h-128z"/><path d="m256-580h128-144z"/><path d="m256-644h-16z"/><path d="m256-580h-16z"/><path d="m256-644v64z"/><path d="m624-564v224 16z"/><path d="m864-324h-224z"/><path d="m1002-324h-138 16z"/><path d="m864-316h-224v-8h224z"/><path d="m1002-316h-122-16v-8h138z"/><path d="m880-137v-59-120h122v224h-122z"/><path d="m1002-92v179h-122v-179z"/><path d="m864-316h16v120h-240v-120z"/><path d="m880 87h-144-88-2-6z"/><path d="m880 87h122-42z"/><path d="m880-137v45 179-187z"/><path d="m640 87h-16z"/><path d="m880 103v3z"/><path d="m1002 103v3h-122v-3z"/><path d="m384-564v-7h-128v7z"/><path d="m624-564h-43z"/><path d="m581-564h-196z"/><path d="m384-571h-8-120z"/><path d="m240-564h-128z"/><path d="m256-564h-16z"/><path d="m16-324h-6v128h6z"/><path d="m-302-291v-33h224v128h-224z"/><path d="m-78-324h78v128h-78z"/><path d="m0-548v-32 192z"/><path d="m-78-324h-224z"/><path d="m0-324h-78z"/><path d="m0-548v160 64z"/><path d="m0-196h-78z"/><path d="m10-324v128z"/><path d="m0-164v224z"/><path d="m-320-324h2v128h-2z"/><path d="m-318-500v80z"/><path d="m-318-324h-2z"/><path d="m-318-196v144 32z"/><path d="m652 368v-20-92h-28v112z"/><path d="m652 248v8 92z"/><path d="m652 348v20 8z"/><path d="m652 376v-8z"/><path d="m652 256h-28z"/><path d="m646 376v36z"/><path d="m378 54h6z"/><path d="m266 54h112 6-126z"/><path d="m266 60v-6 6 84z"/><path d="m490 368h-113-111 111z"/><path d="m624 368h-23-111 111z"/><path d="m266 54v6h111 1v-6z"/><path d="m377 256v-8z"/><path d="m377 248h1z"/><path d="m377 248h1v-188h-1z"/><path d="m378 60v188z"/><path d="m601 256h-224v28 84h113 111z"/><path d="m624 256h-23v112h23z"/><path d="m266 60v84 140h111v-28-8-188z"/><path d="m266 284v84h111v-84z"/><path d="m736 348h-53v28 36h53z"/><path d="m683 348h-31v28h31z"/><path d="m652 376h-4v36h35v-36z"/><path d="m652 376h-4z"/><path d="m648 376h-2z"/><path d="m646 412v-36z"/><path d="m648 412h-2z"/><path d="m784 412v88z"/><path d="m648 412h88 48v88h-138v-88z"/><path d="m784 500h-138z"/><path d="m650-971h84v63h-84z"/><path d="m624 376v36z"/><path d="m624 106v82z"/><path d="m646 248v-142z"/><path d="m736 348v64z"/><path d="m648 348v28z"/><path d="m648 376v36z"/><path d="m648 348h4 84z"/><path d="m652 348h31 53z"/><path d="m648 248h4v100h-4z"/><path d="m646 248h2v100 28h-2z"/><path d="m646 248v128-99z"/><path d="m581 44h-21-80z"/><path d="m582 376h42-142z"/><path d="m624 248v100h-42-196v-64-36z"/><path d="m582 376h-100-124v-28h28 196z"/><path d="m624 348v28h-42v-28z"/><path d="m384 54v-10h-126v10z"/><path d="m256 60h2v-6-10h-2z"/><path d="m258 284v-132-92h78 22v224z"/><path d="m358 348v28h-100v-92h100z"/><path d="m358 284v-224h28v188 36z"/><path d="m386 348h-28v-64h28z"/><path d="m336 60h-78-2-144z"/><path d="m560 60h-174-28-22z"/><path d="m581 60h-21z"/><path d="m256 60v-16z"/><path d="m258 152v132 92-8-84z"/><path d="m560 60h21 43-144-94z"/><path d="m386 248v-188z"/><path d="m256 60h-16-128z"/><path d="m736 412h-88z"/><path d="m736 348v64h-88v-36-28z"/><path d="m650-929v64z"/><path d="m734-865h-84z"/><path d="m650-929h84z"/><path d="m734-929h-84v64h84z"/><path d="m648 306v63z"/><path d="m736 306h-88v63h88z"/><path d="m736 306h-88z"/><path d="m734-929v64z"/><path d="m650-929h84v64h-84z"/><path d="m736 306v63z"/><path d="m736 369h-88z"/><path d="m648 306h88v63h-88z"/><path d="m734-822h-84z"/><path d="m734-886v64z"/><path d="m650-822v-64z"/><path d="m650-886h84z"/><path d="m734-886h-84v64h84z"/><path d="m1024 301v30 194-214z"/><path d="m1024 106v-19z"/><path d="m848 525h176-144-53z"/><path d="m848 525h-21-203z"/><path d="m912 501h-42z"/><path d="m1002 103v3z"/><path d="m624 188v89 135-36-28-100z"/><path d="m624 188v-82 171z"/><path d="m648 327h88v-64h-88z"/><path d="m646 277v99 36 89-174z"/><path d="m736 327h-88z"/><path d="m736 263v64z"/><path d="m736 103h-90 2z"/><path d="m648 327v-64z"/><path d="m648 263h88z"/><path d="m1002 103h-122z"/><path d="m646 103v3z"/><path d="m736 103h144-234z"/><path d="m646 106v142z"/><path d="m646 412v88 1z"/><path d="m624 501v21z"/><path d="m624 522v3z"/><path d="m736-660h-88-67 127 22z"/><path d="m581-660h-21z"/><path d="m650-886h84v64h-84z"/><path d="m736-666h-1-85-2z"/><path d="m736-666h-88v6h88z"/><path d="m1008 87h-6z"/><path d="m640-573v-7z"/><path d="m736-644h-88v71h88z"/><path d="m648-644v71z"/><path d="m648-644h88-96z"/><path d="m624 87v19z"/><path d="m648-573v201 23h88v-12-212z"/><path d="m648-349v212 12h88v-12-212z"/><path d="m648-125v212h88v-212z"/><path d="m736-137v12 212-212z"/><path d="m736-361v12 212-212z"/><path d="m736-573v212z"/><path d="m648-349v-23 176 59z"/><path d="m640-548v224z"/><path d="m640-573v9 16z"/><path d="m640-164v224z"/><path d="m640 87h6-22z"/><path d="m640-324v8 120z"/><path d="m640-196v32z"/><path d="m640 60h-16z"/><path d="m960 103h-80-144z"/><path d="m960 103h42-122z"/><path d="m880 103h-144z"/><path d="m648 103h88z"/><path d="m-798-20h1z"/><path d="m-416-4v49z"/><path d="m-416-4h50 64z"/><path d="m-480-4v49h64v-49z"/><path d="m-590-4h-224z"/><path d="m-480-4h64-174z"/><path d="m648 263h88v64h-88z"/><path d="m-480-20h-94z"/><path d="m-477-20h-3z"/><path d="m-416-20h-3-58-3z"/><path d="m-419 43h-58v-63h58z"/><path d="m-477 43v-63z"/><path d="m16-196v-128 128 2z"/><path d="m32-548v128z"/><path d="m648-666v6z"/><path d="m735-847h-85v181h85z"/><path d="m735-847h-85z"/><path d="m650-847v181z"/><path d="m112-276v176 48-48z"/><path d="m581-580h-197z"/><path d="m581-580h-21-176z"/><path d="m648-196v59z"/><path d="m648-372v48 128z"/><path d="m648-137v224-212z"/><path d="m648 87h-2z"/><path d="m648 103v181z"/><path d="m736 103h-88v181h88z"/><path d="m648 284h88z"/><path d="m581 44h-21z"/><path d="m480 44h-144-80 2 126z"/><path d="m336 28h-224z"/><path d="m560 28h-224z"/><path d="m581-548h27-27-21z"/><path d="m112-564h128z"/><path d="m240-564h16z"/><path d="m336-564h48-128z"/><path d="m560-564h21-196-1z"/><path d="m336-564h-80-16-128 16z"/><path d="m560-564h-176-48 16z"/><path d="m581-564h43z"/><path d="m608-196v96 128-128z"/><path d="m608-420v96 128-128z"/><path d="m608-420v-128h-27v80 144h27z"/><path d="m581-324v80 144h27v-96-128z"/><path d="m581-100v48 80h27v-128z"/><path d="m581-324v-144h-21-32v192 32h53z"/><path d="m528-244v192h32 21v-48-144z"/><path d="m336-548h-224v80h224z"/><path d="m560-548h-224v80h192 32z"/><path d="m581-468v-80h-21v80z"/><path d="m336-52h-224v80h224z"/><path d="m560-52h-32-192v80h224z"/><path d="m581 28v-80h-21v80z"/><path d="m528-52h-192z"/><path d="m528-468v192z"/><path d="m336-468h-224z"/><path d="m112 44h-80z"/><path d="m112-468v-80h-80v128 96h80z"/><path d="m32-324v128 96h80v-176-48z"/><path d="m32-100v128h80v-80-48z"/><path d="m112 28h-80z"/><path d="m16-200v-120-4 128z"/><path d="m648-372v48z"/><path d="m648-324h-8v128h8z"/><path d="m640-324v128z"/><path d="m624-196h-4z"/><path d="m624-324h-4v128h4z"/><path d="m620-324v4 60 60 4z"/><path d="m20-200h-4v4h8v-4z"/><path d="m20-320h-4v120h4z"/><path d="m20-324h-4v4h4z"/><path d="m24-324h-4v4 120h4z"/><path d="m16-324h4 4z"/><path d="m735-666v6z"/><path d="m735-847v181z"/><path d="m650-666v-181h85v181 6h-85z"/><path d="m650-666h-2z"/><path d="m650-660v87z"/><path d="m735-660v87h-85v-87z"/><path d="m735 89h1z"/><path d="m648-137v224z"/><path d="m648-196v59z"/><path d="m650-135v-61h85v61 163h-85z"/><path d="m735 28v61h-85v-61z"/><path d="m648-200v-60-60-4-48h2 85v13 163h-85-2z"/><path d="m735-573v201h-85v-201z"/><path d="m650-135v163 61-214z"/><path d="m650-573v201z"/><path d="m650-196h-2z"/><path d="m648-324h-8z"/><path d="m648-260v60h-20v-60z"/><path d="m624-320h24v60h-20-4z"/><path d="m736 103v181z"/><path d="m735 89h1v14h-86v-14z"/><path d="m648 103h2 86v181h-88z"/><path d="m650 89v14z"/><path d="m648 103h-2z"/><path d="m620-320h4v60h-4z"/><path d="m620-200v-60h4v60z"/><path d="m20-200h4z"/><path d="m20-320h4v120h-4z"/><path d="m24-324v4z"/><path d="m24-320v-4 124z"/><path d="m24-200v4z"/><path d="m1067 564v-224z"/><path d="m1067 340v-224z"/><path d="m1067 116v-224z"/><path d="m1067-108v-224z"/><path d="m1067-332v-224z"/><path d="m1067-556v-224z"/><path d="m1067-780v-224z"/><path d="m1067-1144v140z"/><path d="m-853 564v-140-84z"/><path d="m-853 340v-140-84z"/><path d="m-853 116v-140-84z"/><path d="m-853-108v-140-84z"/><path d="m-853-332v-140-84z"/><path d="m-853-556v-140-84z"/><path d="m-853-780v-140-84z"/><path d="m-853-1144v140z"/><path d="m-853 564h224z"/><path d="m-629 564h224z"/><path d="m-405 564h224z"/><path d="m-181 564h224z"/><path d="m43 564h224z"/><path d="m267 564h224z"/><path d="m491 564h224z"/><path d="m715 564h224z"/><path d="m1067 564h-128z"/><path d="m-853-1144h224z"/><path d="m-629-1144h224z"/><path d="m-405-1144h224z"/><path d="m-181-1144h224z"/><path d="m43-1144h224z"/><path d="m267-1144h224z"/><path d="m491-1144h224z"/><path d="m715-1144h224z"/><path d="m1067-1144h-128z"/><path d="m32-196v96 128-128z"/><path d="m32-420v96 128-128z"/><path d="m112-324v-144 144 48z"/><path d="m736 104h-3v63h3z"/><path d="m581 28h27-27-21z"/><path d="m336-548h-224z"/><path d="m560-548h-224z"/><path d="m608-548v128z"/><path d="m581-468v-80h27v128 96h-27z"/><path d="m608-324v128 96h-27v-144-80z"/><path d="m608-100v128h-27v-80-48z"/><path d="m336-468h-224v-80h224z"/><path d="m560-468h-32-192v-80h224z"/><path d="m581-548v80h-21v-80z"/><path d="m528-276v-192h32 21v144 80h-53z"/><path d="m581-244v144 48h-21-32v-192z"/><path d="m336 28h-224v-80h224z"/><path d="m560 28h-224v-80h192 32z"/><path d="m581-52v80h-21v-80z"/><path d="m336-52h-224z"/><path d="m528-276v32 192-192z"/><path d="m528-468h-192z"/><path d="m32-420v-128h80v80 144h-80z"/><path d="m112-324v48 176h-80v-96-128z"/><path d="m112-100v48 80h-80v-128z"/><path d="m112-548h-80z"/><path d="m736 103v-2h-3v3h3z"/><path d="m736 101v2-14z"/><path d="m733 101v59.5884 6.4116-63z"/><path d="m733 101h3v2 57.5884h-3z"/><path d="m736 103v1 63-6.4116z"/><path d="m560-660h-8z"/><path d="m552-660h8-88z"/><path d="m472-660h-8z"/><path d="m552-660v67z"/><path d="m472-593h80v-67h-80z"/><path d="m472-593v-67z"/><path d="m552-593h-80z"/><path d="m581-660h67z"/><path d="m464-660h-208 128z"/><path d="m640-644h8z"/><path d="m464-583h96z"/><path d="m560-583h-96v-61h96z"/><path d="m560-583v-61z"/><path d="m560-644h21z"/><path d="m640-644h-59z"/><path d="m24-196h-8z"/><path d="m24-320h-4v120h4z"/><path d="m24-320h-4z"/><path d="m20-320v120z"/><path d="m648 105v-1 71 1z"/><path d="m736 105h-3v55.5884h3z"/><path d="m736 105v-1h-3v1z"/><path d="m-419-20h3z"/><path d="m-480-20h3 58 3z"/><path d="m-477 43h58v-63h-58z"/><path d="m-477 43h58z"/><path d="m-419 43v-63z"/><path d="m624-260v60z"/><path d="m648-196v-4z"/><path d="m648-320v-4z"/><path d="m650-324h-2z"/><path d="m650-324h-2v4 120 4h2z"/><path d="m648-196h-8z"/><path d="m648-320h-20v60 60h20z"/><path d="m628-320h-4v60h4z"/><path d="m624-260h4z"/><path d="m624-320h4 20z"/><path d="m648-200h-20z"/><path d="m628-200v-60z"/><path d="m624-260v-60h-4v120h4z"/><path d="m620-200v-120-4 128z"/><path d="m624-200h-4z"/><path d="m620-320h4z"/><path d="m620-324v4z"/><path d="m620-200v4z"/><path d="m16-420v96 128-144z"/><path d="m735-666h-85v6h85z"/><path d="m650-666v6z"/><path d="m736-666h-1z"/><path d="m735-660v87z"/><path d="m650-660v87h85v-87z"/><path d="m648-644v71z"/><path d="m624-324v128z"/><path d="m648-573v153 48z"/><path d="m648-372v48h2v-25-23z"/><path d="m650-573v201 23h85v-10-214z"/><path d="m650-349v25 128 61 10h85v-10-214z"/><path d="m650-125v214h85v-214z"/><path d="m650-196v61z"/><path d="m650-324v128z"/><path d="m735-135v10 214-61z"/><path d="m735-359v10 214-61z"/><path d="m735-573v214-13z"/><path d="m650-372h-2z"/><path d="m648-324h-8z"/><path d="m640-316v-8h8v128h-8z"/><path d="m736 89v14-2z"/><path d="m648 103v-14z"/><path d="m650 103h-2z"/><path d="m650 89v14h-2v-14z"/><path d="m624-324h-4z"/><path d="m620-324h4v128h-4z"/><path d="m16-564h16z"/><path d="m16-324h8v128h-8z"/><path d="m24-324v4 120 4z"/><path d="m-480 45h64z"/><path d="m-480-4v49z"/><path d="m-416 45h-64v-49h64z"/><path d="m-416-4h-64z"/><path d="m736 104v1 55.5884 6.4116-4.5823z"/><path d="m648 104h85 3v58.4177 12.5823h-88z"/><path d="m733 104h-85v1h85z"/><path d="m736 167.0126v8.9874-1-12.5823z"/><path d="m733 167.0126v-6.4242-55.5884h-85v71h85z"/><path d="m733 176h3v-8.9874h-3z"/><path d="m581-660h-101-16 8 88z"/><path d="m648-666h2 85 1z"/><path d="m736-666v6h-88v-6z"/><path d="m1008 87h-6z"/><path d="m736-644v71z"/><path d="m648-644h88v71h-88z"/><path d="m581-644h59z"/><path d="m640-644h-59z"/><path d="m736 89h-1-85-2z"/><path d="m960 87h-224 144z"/><path d="m1002 87h-42z"/><path d="m648-137v12 212z"/><path d="m648-420v71 153-128-48z"/><path d="m648-573v153z"/><path d="m736-573v212 12h-88v-71-153z"/><path d="m736-349v212 12h-88v-12-59-153z"/><path d="m736-125v212h-88v-212z"/><path d="m960 103h-224 134z"/><path d="m1002 103h-42z"/><path d="m736 103h-88z"/><path d="m648 103h88v-14h-88z"/><path d="m646 103h2z"/><path d="m648 103h-2z"/><path d="m736 175v1h-3-85v-1z"/><path d="m1024 87h-16z"/><path d="m870 501h-224 181z"/><path d="m1002 501h-90z"/><path d="m1002 289v38 4z"/><path d="m1002 374v127z"/><path d="m1002 331v43z"/><path d="m870 103h-134-88-2v3 171 50h224z"/><path d="m646 327v174h224v-174z"/><path d="m1002 289v-183-3h-42-90v224h132z"/><path d="m870 327v174h42 90v-127-43-4z"/><path d="m640-324v-216-8z"/><path d="m640-164v224z"/><path d="m960 87h-112-112z"/><path d="m1002 87h-42z"/><path d="m736 87h-88z"/><path d="m640-316v120z"/><path d="m640-324v8z"/><path d="m640 60h-16z"/><path d="m640-196v32z"/><path d="m648 87h-2z"/><path d="m646 106v-3z"/><path d="m646 106v142 29z"/><path d="m1002 103h-42z"/><path d="m1024 106v195z"/><path d="m1008 525h16-176z"/><path d="m1008 87h16v19 195 10h-16z"/><path d="m1024 311v214h-16v-3-21-190z"/><path d="m1008 87h-6z"/><path d="m1002 87h6v224h-6z"/><path d="m1008 311v190h-6v-190z"/><path d="m624 277v34 190-25-64z"/><path d="m848 87h-224 22 2 88z"/><path d="m1002 87h-154 112z"/><path d="m624 277v-171-19h224v224h-224z"/><path d="m848 311v190h-224v-190z"/><path d="m848 87h154v224h-154z"/><path d="m1002 311v190h-154v-190z"/><path d="m624 501v21z"/><path d="m848 522h-224v-21h224z"/><path d="m1002 501h6v21h-160v-21z"/><path d="m624 522v3z"/><path d="m848 525h-224v-3h224z"/><path d="m1008 522v3h-160v-3z"/><path d="m-302-228v32 192-64z"/><path d="m-302-196v-32-63z"/><path d="m-302-291v-1-224 192z"/><path d="m-574-20h-224 1 156 21z"/><path d="m-318-20h-32-66z"/><path d="m-798-500v32z"/><path d="m-318-500h-32z"/><path d="m-574-500h-224v32 192h224z"/><path d="m-798-276v32 192h224v-224z"/><path d="m-798-52v32h224v-32z"/><path d="m-350-500h-224v224h224z"/><path d="m-574-276v224h224v-224z"/><path d="m-574-52v32h94 64 66v-32z"/><path d="m-318-420v-80h-32v224h32z"/><path d="m-350-276v224h32v-144-80z"/><path d="m-350-52v32h32v-32z"/><path d="m-318-420v144 80-128z"/><path d="m16-116v-80 2 238z"/><path d="m16-564v144z"/><path d="m752-660v-196-28z"/><path d="m352-68h-224v112h208 16z"/><path d="m560 44h21v-112h-69-160v112z"/><path d="m128-340v-112-112h-16v224z"/><path d="m128-116v-176-48h-16v224z"/><path d="m128 44v-112-48h-16v160z"/><path d="m581-340v-112h-69v160 64h69z"/><path d="m512-228v160h69v-48-112z"/><path d="m352-564h-16-208v112h224z"/><path d="m512-452h69v-112h-21-208v112z"/><path d="m624-564h-43v112 112h43z"/><path d="m581-340v112 112h43v-80-128-16z"/><path d="m581-116v48 112h43v-160z"/><path d="m581-580h-21z"/><path d="m752-644v-16z"/><path d="m112 60h176 48z"/><path d="m512-452v160z"/><path d="m640-540v216 8-200z"/><path d="m128-292v176 48-16z"/><path d="m512-68h-16-144z"/><path d="m352-452h-224 16z"/><path d="m240-644v-16z"/><path d="m640-580v7z"/><path d="m736-644h-88-8z"/><path d="m581-644h-21-96z"/><path d="m464-644h-80z"/><path d="m581-580h59z"/><path d="m256-644h-16z"/><path d="m384-580h-48-96z"/><path d="m240-580h-128z"/><path d="m624 60h16z"/><path d="m640-548v-25z"/><path d="m640-316v-8z"/><path d="m640-316v120z"/><path d="m640-196v32z"/><path d="m624 44h-43z"/><path d="m336 44h-208-16 144z"/><path d="m560 44h-208-16 144z"/><path d="m581-564h-21z"/><path d="m581 60h43z"/><path d="m32-564h80z"/><path d="m112-564h-80v224h80z"/><path d="m32-340v224h80v-224z"/><path d="m32-116v160h80v-160z"/><path d="m32 44h-16z"/><path d="m32-564h-16v144 80h16z"/><path d="m16-340v144 80h16v-224z"/><path d="m16-116v160h16v-160z"/><path d="m734-1080h-26z"/><path d="m256-1080h4z"/><path d="m736-660h-32-123 67z"/><path d="m480-1080h-220-4v120 104h224z"/><path d="m256-856v120 69 7h208 16v-196z"/><path d="m704-1080h-220-4v224h224z"/><path d="m480-856v196h101 123v-196z"/><path d="m736-856v-34-190h-2-26-4v224z"/><path d="m736-660v-6-190h-32v196z"/><path d="m256-736v-120-104z"/><path d="m256-960v-120z"/><path d="m256-667v-69z"/><path d="m736-890v34 190z"/><path d="m736-1080v190z"/><path d="m736-666v6z"/><path d="m-814-228v160 64z"/><path d="m-814-452v160 64z"/><path d="m-302-291v63z"/><path d="m512-452v160z"/><path d="m512-292v224-160z"/><path d="m128-452v112 48z"/><path d="m128-292v208 16-220z"/><path d="m352-68h-224z"/><path d="m496-68h16-160z"/><path d="m496-452h16-160z"/><path d="m352-452h-208-16z"/><path d="m-590-516h-224z"/><path d="m-366-516h-224z"/><path d="m-814-452v-64h224v224h-224z"/><path d="m-590-292v224h-224v-160-64z"/><path d="m-590-68v64h-224v-64z"/><path d="m-590-516h224v224h-224z"/><path d="m-366-292v224h-224v-224z"/><path d="m-366-68v64h-50-64-110v-64z"/><path d="m-366-516h64v224h-64z"/><path d="m-302-292v1 63 160h-64v-224z"/><path d="m-302-68v64h-64v-64z"/><path d="m-480-4h-110z"/><path d="m464-1096h-224z"/><path d="m688-1096h-224z"/><path d="m752-1096v16z"/><path d="m464-1080h-224v-16h224z"/><path d="m688-1080h-224v-16h224z"/><path d="m752-1096v16h-64v-16z"/><path d="m752-884v-196z"/><path d="m240-884v28 196z"/><path d="m240-1080v196z"/><path d="m240-856v-28-196h224v224z"/><path d="m464-660h-224v-196h224z"/><path d="m464-856v-224h224v224z"/><path d="m688-660h-224v-196h224z"/><path d="m752-1080v196 28h-64v-224z"/><path d="m752-856v196h-64v-196z"/><path d="m240-660v16z"/><path d="m688-644h64-16-96-59z"/><path d="m464-644h117z"/><path d="m256-644h208-80z"/><path d="m240-644h16z"/><path d="m464-644h-208-16v-16h224z"/><path d="m688-644h-107-117v-16h224z"/><path d="m752-660v16h-64v-16z"/><path d="m288-516h-224v-64h48 176z"/><path d="m512-516h-224v-64h48 176z"/><path d="m560-580h21 59v40 24h-64-64v-64z"/><path d="m576-452v-64h64v200 24h-64z"/><path d="m640-292v96 32 96h-64v-160-64z"/><path d="m640-68v64h-64v-64z"/><path d="m352-452h-224v-60h164 60z"/><path d="m516-512h56v56 4h-60-160v-60z"/><path d="m512-292v-160h60v220 4h-60z"/><path d="m572-228v160h-60v-160z"/><path d="m128-512v60 160 4h-60v-168-56z"/><path d="m128-288v220 4h-60v-168-56z"/><path d="m128-64v56h-60v-56z"/><path d="m288 60h-176-48v-64h224z"/><path d="m512 60h-176-48v-64h224z"/><path d="m576-4h64v64h-59-21-48v-64z"/><path d="m352-8h-60-164v-56-4h224z"/><path d="m512-68h60v60h-56-164v-60z"/><path d="m16-580h16 32v64 64 96h-48z"/><path d="m64-356v128 96h-48v-224z"/><path d="m64-132v128 64h-32-16v-192z"/><path d="m288-4h-224z"/><path d="m512-4h-224z"/><path d="m576-228v160 64z"/><path d="m576-452v160 64z"/><path d="m576-516h-64z"/><path d="m68-232v168 56-56z"/><path d="m68-456v168 56-56z"/><path d="m572-512v56z"/><path d="m292-512h-164-60z"/><path d="m516-512h-164-60z"/><path d="m572-8h-56z"/><path d="m64-516v64z"/><path d="m640-580h-59z"/><path d="m336-580h-48-176 128z"/><path d="m560-580h-48-176 48z"/><path d="m640 60h-16-43z"/><path d="m336 60h176 48z"/><path d="m560 60h21z"/><path d="m512-292v64 160z"/><path d="m640-580v7 25 8z"/><path d="m640-196v-96-24z"/><path d="m640 60v-64-64-96z"/><path d="m640-164v-32z"/><path d="m128-452v160z"/><path d="m352-68h-224z"/><path d="m512-452h-16-144z"/><path d="m0-164v32 192z"/><path d="m0-388v32 192-32-128z"/><path d="m0-388v-192h16v224h-16z"/><path d="m16-356v224h-16v-32-192z"/><path d="m16-132v192h-16v-192z"/><path d="m292-512h-224v56 168h224z"/><path d="m68-288v56 168h224v-224z"/><path d="m68-64v56h224v-56z"/><path d="m516-512h-224v224h224z"/><path d="m292-288v224h224v-224z"/><path d="m292-64v56h224v-56z"/><path d="m572-288v-168-56h-56v224z"/><path d="m572-64v-168-56h-56v224z"/><path d="m572-8v-56h-56v56z"/><path d="m64-516v64z"/><path d="m288-4h-224z"/><path d="m512-4h-224z"/><path d="m576-228v224-64z"/><path d="m576-452v224-64z"/><path d="m576-516h-64z"/><path d="m576-4h-64z"/><path d="m576-516v64z"/><path d="m288-516h-224z"/><path d="m512-516h-224z"/><path d="m68-512v56z"/><path d="m572-232v168 56-60-160z"/><path d="m572-456v168 56-220z"/><path d="m572-512h-56z"/><path d="m292-8h-224 60z"/><path d="m516-8h-224 60z"/><path d="m64-228v224-128z"/><path d="m64-452v224-128z"/><path d="m64-292v-160-64h224v224z"/><path d="m64-68v-160-64h224v224z"/><path d="m288-4h-224v-64h224z"/><path d="m288-292v-224h224v224z"/><path d="m288-68v-224h224v224z"/><path d="m512-4h-224v-64h224z"/><path d="m576-516v64 160h-64v-224z"/><path d="m576-292v64 160h-64v-224z"/><path d="m576-68v64h-64v-64z"/><path d="m64-228v160 64z"/><path d="m64-452v160 64z"/><path d="m576-4h-64z"/><path d="m576-516v64z"/><path d="m288-516h-224z"/><path d="m512-516h-224z"/><path d="m1067 340v84 140z"/><path d="m1067 116v84 140z"/><path d="m1067-108v84 140z"/><path d="m1067-332v84 140z"/><path d="m1067-556v84 140z"/><path d="m1067-780v84 140z"/><path d="m1067-1004v84 140z"/><path d="m-853-1144v140z"/><path d="m-629 564h-224z"/><path d="m-405 564h-224z"/><path d="m-181 564h-224z"/><path d="m43 564h-224z"/><path d="m267 564h-224z"/><path d="m491 564h-224z"/><path d="m715 564h-224z"/><path d="m939 564h-224z"/><path d="m1067-1144h-128z"/><path d="m-629-1144h-224v140 84h224z"/><path d="m-853-920v140 84h224v-224z"/><path d="m-853-696v140 84h224v-224z"/><path d="m-853-472v140 84h224v-224z"/><path d="m-853-248v140 84h224v-224z"/><path d="m-853-24v140 84h224v-224z"/><path d="m-853 200v140 84h224v-224z"/><path d="m-853 424v140h224v-140z"/><path d="m-405-1144h-224v224h224z"/><path d="m-629-920v224h224v-224z"/><path d="m-629-696v224h224v-224z"/><path d="m-629-472v224h224v-224z"/><path d="m-629-248v224h224v-224z"/><path d="m-629-24v224h224v-224z"/><path d="m-629 200v224h224v-224z"/><path d="m-629 424v140h224v-140z"/><path d="m-181-1144h-224v224h224z"/><path d="m-405-920v224h224v-224z"/><path d="m-405-696v224h224v-224z"/><path d="m-405-472v224h224v-224z"/><path d="m-405-248v224h224v-224z"/><path d="m-405-24v224h224v-224z"/><path d="m-405 200v224h224v-224z"/><path d="m-405 424v140h224v-140z"/><path d="m43-1144h-224v224h224z"/><path d="m-181-920v224h224v-224z"/><path d="m-181-696v224h224v-224z"/><path d="m-181-472v224h224v-224z"/><path d="m-181-248v224h224v-224z"/><path d="m-181-24v224h224v-224z"/><path d="m-181 200v224h224v-224z"/><path d="m-181 424v140h224v-140z"/><path d="m267-1144h-224v224h224z"/><path d="m43-920v224h224v-224z"/><path d="m43-696v224h224v-224z"/><path d="m43-472v224h224v-224z"/><path d="m43-248v224h224v-224z"/><path d="m43-24v224h224v-224z"/><path d="m43 200v224h224v-224z"/><path d="m43 424v140h224v-140z"/><path d="m491-1144h-224v224h224z"/><path d="m267-920v224h224v-224z"/><path d="m267-696v224h224v-224z"/><path d="m267-472v224h224v-224z"/><path d="m267-248v224h224v-224z"/><path d="m267-24v224h224v-224z"/><path d="m267 200v224h224v-224z"/><path d="m267 424v140h224v-140z"/><path d="m715-1144h-224v224h224z"/><path d="m491-920v224h224v-224z"/><path d="m491-696v224h224v-224z"/><path d="m491-472v224h224v-224z"/><path d="m491-248v224h224v-224z"/><path d="m491-24v224h224v-224z"/><path d="m491 200v224h224v-224z"/><path d="m491 424v140h224v-140z"/><path d="m939-1144h-224v224h224z"/><path d="m715-920v224h224v-224z"/><path d="m715-696v224h224v-224z"/><path d="m715-472v224h224v-224z"/><path d="m715-248v224h224v-224z"/><path d="m715-24v224h224v-224z"/><path d="m715 200v224h224v-224z"/><path d="m715 424v140h224v-140z"/><path d="m1067-920v-84-140h-128v224z"/><path d="m1067-696v-84-140h-128v224z"/><path d="m1067-472v-84-140h-128v224z"/><path d="m1067-248v-84-140h-128v224z"/><path d="m1067-24v-84-140h-128v224z"/><path d="m1067 200v-84-140h-128v224z"/><path d="m1067 424v-84-140h-128v224z"/><path d="m1067 564v-140h-128v140z"/></g></defs><path d="m-1023-1314h2260v2048h-2260z" fill="#fff"/><g stroke="#000"><use fill="none" stroke-miterlimit="0" stroke-width="15" xlink:href="#a"/><use fill="#fff" xlink:href="#a"/></g></svg>