<?xml version="1.0" encoding="utf-8" ?>
<svg baseProfile="tiny" height="100%" version="1.2" viewBox="-1043.0 -1075.0 2278.0 2150.0" width="100%" xmlns="http://www.w3.org/2000/svg" xmlns:ev="http://www.w3.org/2001/xml-events" xmlns:xlink="http://www.w3.org/1999/xlink"><defs><g id="bsp_ref"><polygon points="-128,-416 -128,-288 -128,-192 -128,-192 -128,-256 -128,-288 -128,-416" /><polygon points="384,-384 384,-384 384,-256 384,-224 384,-224" /><polygon points="128,-640 96,-640 -96,-640 -96,-640 96,-640 128,-640" /><polygon points="224,-192 224,-192 96,-192 96,-192" /><polygon points="96,-512 32,-512 0,-512 -128,-512 -128,-608 -96,-640 96,-640" /><polygon points="128,-640 320,-640 320,-608 320,-512 192,-512 96,-512 96,-640" /><polygon points="224,-480 304,-400 224,-400" /><polygon points="320,-512 320,-400 304,-400 224,-480 192,-512" /><polygon points="192,-480 192,-352 32,-352 32,-480" /><polygon points="320,-320 320,-384 384,-384 384,-224 320,-224" /><polygon points="320,-384 320,-320 224,-320 224,-352 224,-400 304,-400 320,-400" /><polygon points="192,-320 224,-352 224,-320" /><polygon points="256,-224 96,-224 96,-320 192,-320 224,-320 320,-320 320,-224" /><polygon points="256,-224 224,-192 96,-192 96,-224" /><polygon points="32,-512 0,-480 0,-512" /><polygon points="-128,-416 -128,-512 0,-512 0,-480 0,-352 0,-320 0,-288 -128,-288" /><polygon points="0,-288 0,-192 -128,-192 -128,-288" /><polygon points="0,-352 32,-320 0,-320" /><polygon points="0,-288 0,-320 32,-320 96,-320 96,-224 96,-192 0,-192" /><polygon points="192,-480 192,-480 192,-352 192,-352" /><polygon points="320,-224 384,-224 384,-224 320,-224 256,-224 256,-224" /><polygon points="320,-640 320,-640 320,-608 320,-608" /><polygon points="320,-384 320,-384 352,-384 384,-384 384,-384" /><polygon points="96,-512 192,-512 192,-512 96,-512 32,-512 32,-512" /><polygon points="192,-352 192,-352 32,-352 32,-352" /><polygon points="0,-480 0,-480 0,-352 0,-352" /><polygon points="96,-512 32,-512 0,-512 -128,-512 -128,-560 -128,-608 -96,-640 96,-640" /><polygon points="128,-640 320,-640 320,-608 320,-512 192,-512 96,-512 96,-640" /><polygon points="96,-640 -96,-640 -128,-608 -128,-560 -128,-512 0,-512 32,-512 96,-512" /><polygon points="192,-512 320,-512 320,-608 320,-640 128,-640 96,-640 96,-512" /><polygon points="224,-480 304,-400 224,-400" /><polygon points="304,-400 224,-480 224,-400" /><polygon points="224,-480 304,-400 320,-400 320,-512 192,-512" /><polygon points="320,-512 320,-400 304,-400 224,-480 192,-512" /><polygon points="192,-352 192,-480 32,-480 32,-352" /><polygon points="192,-480 192,-352 32,-352 32,-480" /><polygon points="384,-256 384,-384 352,-384 320,-384 320,-320 320,-224 384,-224" /><polygon points="320,-320 320,-384 352,-384 384,-384 384,-256 384,-224 320,-224" /><polygon points="320,-384 320,-320 224,-320 224,-352 224,-400 304,-400 320,-400" /><polygon points="304,-400 224,-400 224,-352 224,-320 320,-320 320,-384 320,-400" /><polygon points="192,-320 224,-352 224,-320" /><polygon points="224,-352 192,-320 224,-320" /><polygon points="192,-320 224,-320 320,-320 320,-224 256,-224 96,-224 96,-320" /><polygon points="256,-224 320,-224 320,-320 224,-320 192,-320 96,-320 96,-224" /><polygon points="256,-224 224,-192 96,-192 96,-224" /><polygon points="224,-192 256,-224 96,-224 96,-192" /><polygon points="0,-480 32,-512 0,-512" /><polygon points="32,-512 0,-480 0,-512" /><polygon points="-128,-416 -128,-512 0,-512 0,-480 0,-352 0,-320 0,-288 -128,-288" /><polygon points="0,-288 0,-192 -128,-192 -128,-256 -128,-288" /><polygon points="0,-320 0,-352 0,-480 0,-512 -128,-512 -128,-416 -128,-288 0,-288" /><polygon points="-128,-288 -128,-256 -128,-192 0,-192 0,-288" /><polygon points="0,-352 32,-320 0,-320" /><polygon points="32,-320 0,-352 0,-320" /><polygon points="0,-288 0,-320 32,-320 96,-320 96,-224 96,-192 64,-192 0,-192" /><polygon points="96,-224 96,-320 32,-320 0,-320 0,-288 0,-192 64,-192 96,-192" /><polygon points="-128,-560 -128,-512 -128,-416 -128,-336 -128,-544 -128,-560" /><polygon points="128,-640 96,-640 -96,-640 -96,-640 128,-640" /><polygon points="320,-640 320,-640 320,-608 320,-608" /><polygon points="384,-384 352,-384 352,-384 384,-384" /><polygon points="352,-384 320,-384 320,-384 352,-384" /><polygon points="192,-480 192,-480 192,-352 192,-352" /><polygon points="96,-512 192,-512 192,-512 32,-512 32,-512" /><polygon points="192,-352 192,-352 32,-352 32,-352" /><polygon points="0,-480 0,-480 0,-352 0,-352" /><polygon points="-128,-256 -128,-192 -128,-192 -128,-208 -128,-256" /><polygon points="-128,-512 -128,-560 -128,-608 -128,-608 -128,-512 -128,-416 -128,-416" /><polygon points="320,-640 320,-640 128,-640 128,-640" /><polygon points="96,-192 64,-192 0,-192 -128,-192 -128,-192 0,-192 96,-192" /><polygon points="320,-608 320,-512 320,-400 320,-384 320,-384 320,-400 320,-512 320,-608" /><polygon points="224,-400 224,-480 224,-480 224,-400 224,-352 224,-352" /><polygon points="192,-512 192,-512 224,-480 224,-480" /><polygon points="224,-352 224,-352 192,-320 192,-320" /><polygon points="224,-192 224,-192 256,-224 256,-224" /><polygon points="192,-480 192,-480 32,-480 32,-480" /><polygon points="-96,-640 -96,-640 -128,-608 -128,-608" /><polygon points="0,-480 0,-480 32,-512 32,-512" /><polygon points="32,-480 32,-480 32,-352 32,-352" /><polygon points="96,-320 192,-320 192,-320 96,-320 32,-320 32,-320" /><polygon points="32,-320 32,-320 0,-352 0,-352" /><polygon points="32,-320 32,-320 0,-352 0,-352" /><polygon points="224,-480 224,-480 224,-400 224,-352 224,-352" /><polygon points="192,-512 192,-512 224,-480 224,-480" /><polygon points="224,-352 224,-352 192,-320 192,-320" /><polygon points="192,-512 192,-512 32,-512 32,-512" /><polygon points="192,-320 192,-320 96,-320 32,-320 32,-320" /><polygon points="32,-480 32,-480 32,-352 32,-352" /><polygon points="192,-480 192,-480 32,-480 32,-480" /><polygon points="192,-352 192,-480 32,-480 32,-352" /><polygon points="0,-480 0,-480 0,-352 0,-352" /><polygon points="0,-480 0,-480 32,-512 32,-512" /><polygon points="32,-320 32,-320 0,-352 0,-352" /><polygon points="192,-352 192,-480 192,-512 224,-480 224,-352 192,-320" /><polygon points="224,-480 224,-480 224,-352 224,-352" /><polygon points="192,-512 192,-512 224,-480 224,-480" /><polygon points="224,-352 224,-352 192,-320 192,-320" /><polygon points="192,-320 192,-320 32,-320 32,-320" /><polygon points="192,-512 192,-480 32,-480 32,-512" /><polygon points="192,-480 192,-352 32,-352 32,-480" /><polygon points="192,-352 192,-320 32,-320 32,-352" /><polygon points="0,-480 32,-512 32,-480 32,-352 32,-320 0,-352" /><polygon points="0,-480 0,-480 32,-512 32,-512" /><polygon points="-128,-608 -128,-608 -128,-560 -128,-560" /><polygon points="-128,-544 -128,-336 -128,-320 -128,-336 -128,-416 -128,-544" /><polygon points="128,-640 -96,-640 -96,-640 96,-640 128,-640" /><polygon points="320,-640 320,-640 128,-640 128,-640" /><polygon points="-96,-640 -96,-640 -128,-608 -128,-608" /><polygon points="928,-896 928,-896 960,-864 1056,-768 1056,-768" /><polygon points="928,-864 832,-864 832,-896 928,-896" /><polygon points="832,-896 832,-864 768,-800 736,-800" /><polygon points="960,-832 928,-864 928,-896 1056,-768 1024,-768" /><polygon points="768,-800 832,-864 928,-864 960,-832 960,-768 832,-768 736,-768" /><polygon points="960,-832 1024,-768 960,-768" /><polygon points="576,-768 544,-768 352,-768 384,-800 576,-800" /><polygon points="608,-800 704,-800 736,-800 768,-800 736,-768 608,-768 576,-768 576,-800" /><polygon points="144,-832 208,-768 96,-768 -16,-768 48,-832" /><polygon points="608,-800 576,-800 384,-800 384,-800 496,-800 608,-800" /><polygon points="1056,-672 1024,-640 1024,-672 1024,-768 1056,-768" /><polygon points="1056,-672 1056,-672 1024,-640 1024,-640" /><polygon points="832,-464 832,-448 832,-448" /><polygon points="960,-768 1024,-768 1024,-672 928,-576 832,-576 832,-768" /><polygon points="960,-576 928,-576 1024,-672 1024,-640" /><polygon points="832,-464 832,-544 832,-576 928,-576 928,-464 928,-448 832,-448" /><polygon points="928,-576 960,-576 960,-464 928,-464" /><polygon points="960,-464 960,-464 960,-336 960,-336" /><polygon points="960,-576 960,-576 960,-544 960,-464 960,-464" /><polygon points="928,-448 928,-464 928,-448" /><polygon points="832,-448 928,-448 928,-448 832,-448" /><polygon points="832,-576 800,-608 768,-640 736,-672 736,-768 832,-768" /><polygon points="800,-608 832,-576 832,-544 800,-576" /><polygon points="736,-672 768,-640 736,-640 704,-672" /><polygon points="736,-768 736,-672 704,-672 608,-768" /><polygon points="800,-576 736,-640 768,-640 800,-608" /><polygon points="832,-544 832,-464 800,-464 800,-576" /><polygon points="800,-464 832,-464 832,-448 832,-432 832,-416 832,-400 832,-384 832,-368 832,-352 832,-336 800,-336" /><polygon points="-256,-640 -256,-448 -256,-416 -256,-416 -256,-416 -256,-576 -256,-608 -256,-640" /><polygon points="-128,-336 -128,-320 -128,-256 -128,-256" /><polygon points="-128,-320 -128,-336 -128,-416 -128,-288 -128,-256 -128,-256" /><polygon points="-128,-608 -128,-608 -128,-560 -128,-544 -128,-544" /><polygon points="320,-640 320,-640 128,-640 128,-640" /><polygon points="720,-640 720,-640 672,-640 672,-640" /><polygon points="736,-640 720,-640 672,-640 576,-640 576,-672 704,-672" /><polygon points="96,-672 -96,-672 -128,-720 -128,-768 -16,-768 96,-768" /><polygon points="320,-672 96,-672 96,-768 208,-768 320,-768" /><polygon points="544,-672 448,-672 352,-672 320,-672 320,-768 352,-768 544,-768" /><polygon points="704,-672 576,-672 544,-672 544,-768 576,-768 608,-768" /><polygon points="544,-672 576,-672 576,-640 448,-640 448,-672" /><polygon points="352,-640 352,-672 448,-672 448,-640" /><polygon points="96,-640 -96,-640 -128,-640 -96,-672 96,-672" /><polygon points="320,-640 128,-640 96,-640 96,-672 320,-672" /><polygon points="352,-672 352,-640 320,-640 320,-672" /><polygon points="-96,-672 -128,-640 -128,-720" /><polygon points="352,-640 352,-624 352,-624" /><polygon points="448,-624 352,-624 352,-640 448,-640" /><polygon points="352,-624 448,-624 448,-624 352,-624" /><polygon points="-96,-640 -128,-608 -128,-640" /><polygon points="-96,-640 -96,-640 -128,-608 -128,-608" /><polygon points="-256,-672 -160,-768 -128,-768 -128,-720 -128,-640 -160,-608" /><polygon points="-256,-640 -256,-672 -160,-608 -160,-448 -256,-448" /><polygon points="-160,-448 -160,-416 -160,-336 -160,-320 -256,-320 -256,-416 -256,-448" /><polygon points="-160,-448 -160,-608 -128,-640 -128,-608 -128,-544 -128,-416 -160,-416" /><polygon points="-128,-416 -128,-336 -160,-336 -160,-416" /><polygon points="-160,-320 -160,-336 -160,-320" /><polygon points="-256,-320 -160,-320 -160,-320 -256,-320" /><polygon points="832,-432 832,-432 832,-448" /><polygon points="928,-432 928,-448 928,-432" /><polygon points="832,-432 928,-432 928,-432 832,-432" /><polygon points="928,-432 832,-432 832,-448 928,-448" /><polygon points="-256,-304 -256,-304 -256,-304 -256,-320 -256,-320" /><polygon points="320,-608 320,-640 320,-640 320,-528 320,-512" /><polygon points="320,-608 320,-512 320,-384 320,-384 320,-400 320,-512 320,-608" /><polygon points="352,-608 352,-608 352,-624" /><polygon points="448,-624 448,-624 448,-640 448,-640 448,-624" /><polygon points="352,-608 448,-608 448,-608 352,-608" /><polygon points="448,-608 352,-608 352,-624 448,-624" /><polygon points="-160,-304 -160,-320 -160,-304" /><polygon points="-256,-304 -160,-304 -160,-304 -256,-304" /><polygon points="-160,-304 -256,-304 -256,-320 -160,-320" /><polygon points="832,-416 832,-416 832,-432" /><polygon points="928,-416 928,-432 928,-416" /><polygon points="832,-416 928,-416 928,-416 832,-416" /><polygon points="928,-416 832,-416 832,-432 928,-432" /><polygon points="-256,-288 -256,-288 -256,-288 -256,-304 -256,-304" /><polygon points="352,-592 352,-592 352,-608" /><polygon points="448,-608 448,-608 448,-624 448,-624 448,-608" /><polygon points="352,-592 448,-592 448,-592 352,-592" /><polygon points="448,-592 352,-592 352,-608 448,-608" /><polygon points="-160,-288 -160,-304 -160,-288" /><polygon points="-256,-288 -160,-288 -160,-288 -256,-288" /><polygon points="-160,-288 -256,-288 -256,-304 -160,-304" /><polygon points="832,-400 832,-400 832,-416" /><polygon points="928,-400 928,-416 928,-400" /><polygon points="832,-400 928,-400 928,-400 832,-400" /><polygon points="928,-400 832,-400 832,-416 928,-416" /><polygon points="-256,-272 -256,-272 -256,-272 -256,-288 -256,-288" /><polygon points="352,-576 352,-576 352,-592" /><polygon points="448,-592 448,-592 448,-608 448,-608 448,-592" /><polygon points="352,-576 448,-576 448,-576 352,-576" /><polygon points="448,-576 352,-576 352,-592 448,-592" /><polygon points="-160,-272 -160,-288 -160,-272" /><polygon points="-256,-272 -160,-272 -160,-272 -256,-272" /><polygon points="-160,-272 -256,-272 -256,-288 -160,-288" /><polygon points="-160,672 -160,864 -160,864 -160,672" /><polygon points="32,864 -160,864 -160,672 -64,672 64,672 64,832" /><polygon points="64,672 96,672 96,800 64,832" /><polygon points="-64,672 -160,672 -160,608 -64,608" /><polygon points="-160,544 -64,544 -64,608 -160,608" /><polygon points="32,640 -32,640 -32,608 32,608" /><polygon points="-32,608 -32,576 32,576 32,608" /><polygon points="64,608 96,608 96,672 64,672" /><polygon points="-160,448 -96,416 64,416 64,544 -64,544 -160,544" /><polygon points="96,672 96,608 160,608 192,640 192,704 96,800" /><polygon points="96,416 160,448 160,608 96,608 64,608 64,544 64,416" /><polygon points="64,544 64,544 -64,544 -64,544" /><polygon points="-64,608 -64,544 -64,544 -64,672 -64,672" /><polygon points="-32,608 -32,640 -32,640 -32,576 -32,576" /><polygon points="64,832 96,800 192,704 192,704 96,800 64,832 32,864 32,864" /><polygon points="832,-384 832,-384 832,-400" /><polygon points="928,-384 928,-400 928,-384" /><polygon points="832,-384 928,-384 928,-384 832,-384" /><polygon points="928,-384 832,-384 832,-400 928,-400" /><polygon points="-256,-256 -256,-256 -256,-256 -256,-272 -256,-272" /><polygon points="-256,-256 -160,-256 -160,-256 -256,-256" /><polygon points="720,-640 720,-640 736,-640 736,-640 720,-640" /><polygon points="672,-640 608,-640 448,-640 448,-640 576,-640 672,-640" /><polygon points="352,-560 352,-560 352,-576" /><polygon points="448,-592 448,-592 448,-576 448,-576 448,-576 448,-592" /><polygon points="608,-640 448,-592 448,-608 448,-624 448,-640" /><polygon points="608,-640 608,-640 448,-592 448,-592" /><polygon points="352,-560 448,-560 448,-560 352,-560" /><polygon points="448,-560 352,-560 352,-576 448,-576" /><polygon points="-160,-256 -160,-272 -160,-256" /><polygon points="-160,-272 -160,-288 -160,-304 -160,-320 -160,-336 -128,-336 -128,-256 -160,-256" /><polygon points="-160,-256 -256,-256 -256,-272 -160,-272" /><polygon points="-128,-256 -128,-208 -128,-224 -128,-256" /><polygon points="-160,864 -160,864 32,864 32,864" /><polygon points="832,-368 832,-368 832,-384" /><polygon points="928,-368 928,-384 928,-368" /><polygon points="832,-368 928,-368 928,-368 832,-368" /><polygon points="928,-368 832,-368 832,-384 928,-384" /><polygon points="-256,-240 -256,-240 -256,-240 -256,-256 -256,-256" /><polygon points="352,-544 352,-544 352,-560" /><polygon points="352,-544 448,-544 448,-544 352,-544" /><polygon points="448,-544 352,-544 352,-560 448,-560" /><polygon points="-160,-240 -160,-256 -160,-240" /><polygon points="-128,-256 -128,-224 -128,-208 -160,-208 -160,-224 -160,-240 -160,-256" /><polygon points="-256,-240 -160,-240 -160,-240 -256,-240" /><polygon points="-160,-240 -256,-240 -256,-256 -160,-256" /><polygon points="192,704 192,704 192,640 192,640" /><polygon points="64,416 96,416 96,416 64,416 -96,416 -96,416" /><polygon points="-160,672 -160,864 -160,864 -160,672" /><polygon points="-160,544 -160,448 -160,448 -160,544 -160,608 -160,672 -160,672" /><polygon points="-64,672 -160,672 -160,864 32,864 64,832 64,672" /><polygon points="64,832 96,800 96,672 64,672" /><polygon points="32,864 -160,864 -160,672 -64,672 64,672 64,832" /><polygon points="64,672 96,672 96,800 64,832" /><polygon points="-64,544 -160,544 -160,672 -64,672" /><polygon points="-160,544 -64,544 -64,672 -160,672" /><polygon points="-32,576 32,576 32,640 -32,640" /><polygon points="32,576 -32,576 -32,640 32,640" /><polygon points="64,416 -96,416 -160,448 -160,544 -64,544 64,544" /><polygon points="-160,448 -96,416 64,416 64,544 -64,544 -160,544" /><polygon points="96,608 96,416 64,416 64,544 64,640 96,640" /><polygon points="64,640 64,672 96,672 96,640" /><polygon points="64,544 64,416 96,416 96,608 96,640 64,640" /><polygon points="96,640 96,672 64,672 64,640" /><polygon points="96,672 96,640 96,608 160,608 192,640 192,704 96,800" /><polygon points="192,640 160,608 96,608 96,640 96,672 96,800 192,704" /><polygon points="160,448 96,416 96,608 160,608" /><polygon points="96,416 160,448 160,608 96,608" /><polygon points="64,544 64,544 -32,544 -64,544 -64,544" /><polygon points="-64,544 -64,544 -64,672 -64,672" /><polygon points="64,832 96,800 192,704 192,704 32,864 32,864" /><polygon points="64,672 64,672 -64,672 -64,672" /><polygon points="64,640 64,544 64,544 64,608 64,672 64,672" /><polygon points="160,608 160,608 160,448 160,448" /><polygon points="192,640 192,640 160,608 160,608" /><polygon points="160,448 160,448 96,416 96,416" /><polygon points="-96,416 -96,416 -160,448 -160,448" /><polygon points="32,640 32,640 32,608 32,576 32,576" /><polygon points="32,576 32,576 -32,576 -32,576" /><polygon points="-32,640 -32,640 32,640 32,640" /><polygon points="832,-352 832,-352 832,-368" /><polygon points="928,-352 928,-368 928,-352" /><polygon points="832,-352 928,-352 928,-352 832,-352" /><polygon points="928,-352 832,-352 832,-368 928,-368" /><polygon points="-256,-224 -256,-224 -256,-224 -256,-240 -256,-240" /><polygon points="352,-528 352,-528 352,-544" /><polygon points="352,-528 448,-528 448,-528 352,-528" /><polygon points="448,-528 352,-528 352,-544 448,-544" /><polygon points="-160,-224 -160,-240 -160,-224" /><polygon points="-256,-224 -160,-224 -160,-224 -256,-224" /><polygon points="-160,-224 -256,-224 -256,-240 -160,-240" /><polygon points="-160,864 -160,864 32,864 32,864" /><polygon points="832,-336 832,-336 832,-352" /><polygon points="832,-336 928,-336 928,-336 832,-336" /><polygon points="928,-352 928,-368 928,-384 928,-400 928,-416 928,-432 928,-448 928,-464 960,-464 960,-336 928,-336" /><polygon points="928,-336 832,-336 832,-352 928,-352" /><polygon points="-256,-208 -256,-208 -256,-224 -256,-224" /><polygon points="320,-512 320,-528 320,-512 320,-400 320,-384 320,-384" /><polygon points="352,-512 352,-512 352,-528" /><polygon points="448,-512 352,-512 352,-528 448,-528" /><polygon points="352,-384 320,-384 320,-384 352,-384" /><polygon points="320,-528 320,-640 352,-640 352,-624 352,-608 352,-592 352,-576 352,-560 352,-544 352,-528 352,-512 320,-512" /><polygon points="64,-192 80,-192 64,-192 -128,-192 -128,-192" /><polygon points="-128,-192 -128,-192 0,-192 64,-192 64,-192" /><polygon points="-256,-208 -160,-208 -160,-208 -256,-208" /><polygon points="-160,-208 -256,-208 -256,-224 -160,-224" /><polygon points="192,704 192,704 192,640 192,640" /><polygon points="96,416 96,416 64,416 -96,416 -96,416" /><polygon points="-160,640 -160,448 -160,448 -160,544 -160,672 -160,672" /><polygon points="-160,640 -160,672 -160,864 -160,864 -160,832 -160,640" /><polygon points="160,608 160,608 160,448 160,448" /><polygon points="192,640 192,640 160,608 160,608" /><polygon points="160,448 160,448 96,416 96,416" /><polygon points="-96,416 -96,416 -160,448 -160,448" /><polygon points="32,640 32,640 32,576 32,576" /><polygon points="-32,576 -32,576 -32,640 -32,640" /><polygon points="-32,640 -32,640 32,640 32,640" /><polygon points="32,576 32,576 -32,576 -32,576" /><polygon points="-32,576 -32,640 32,640 32,576" /><polygon points="192,704 192,704 32,864 32,864" /><polygon points="-864,400 -864,400 -864,368 -864,336 -864,304 -864,304" /><polygon points="-160,864 -160,864 32,864 32,864" /><polygon points="672,448 800,320 800,320 792,328 672,448" /><polygon points="384,640 480,640 480,640 384,640" /><polygon points="800,224 800,320 768,320 768,256" /><polygon points="608,416 768,256 768,320 640,448 576,448" /><polygon points="640,448 768,320 800,320 672,448 576,544 576,512" /><polygon points="576,544 480,640 480,608 576,512" /><polygon points="640,448 576,512 480,608 416,608 576,448" /><polygon points="480,608 480,640 384,640 416,608" /><polygon points="928,-336 928,-336 928,-352" /><polygon points="832,-224 896,-224 928,-224 896,-192 832,-192" /><polygon points="960,-256 928,-256 928,-336 960,-336" /><polygon points="928,-256 896,-224 832,-224 832,-304 832,-336 928,-336" /><polygon points="928,-256 960,-256 928,-224 896,-224" /><polygon points="960,-256 960,-336 960,-336 960,-256" /><polygon points="768,-400 768,-416 768,-416 768,-400 768,-336 768,-336" /><polygon points="800,-192 832,-224 832,-192" /><polygon points="800,-336 832,-336 832,-304 768,-304 768,-336" /><polygon points="768,-176 768,-304 832,-304 832,-224 800,-192 768,-160" /><polygon points="800,-192 832,-192 800,-160 768,-160" /><polygon points="768,-64 768,-160 800,-160 800,0 800,64 768,64" /><polygon points="800,64 800,224 768,256 768,192 768,128 768,64" /><polygon points="800,-160 800,-160 800,0 800,0" /><polygon points="832,-192 832,-192 800,-160 800,-160" /><polygon points="-448,288 -448,384 -448,384 -448,256 -448,256" /><polygon points="-448,-416 -448,-416 -448,-448 -448,-448 -448,-448" /><polygon points="-448,-488 -448,-480 -448,-480 -448,-488" /><polygon points="-320,128 -320,128 -160,128 -160,128 -160,128" /><polygon points="96,128 80,128 32,128 32,128 32,128 96,128" /><polygon points="-256,-64 -172,-64 -160,-64 -160,-64 -172,-64 -256,-64 -352,-64 -352,-64" /><polygon points="64,-64 80,-64 80,-64 32,-64 32,-64" /><polygon points="-256,-384 -256,-416 -256,-416 -256,-320 -256,-320 -256,-320" /><polygon points="-256,-320 -256,-304 -256,-288 -256,-272 -256,-256 -256,-240 -256,-224 -256,-224 -256,-320 -256,-384 -256,-384 -256,-384" /><polygon points="608,-256 608,-64 608,-64 608,-112 608,-256" /><polygon points="640,-288 640,-176 640,-64 608,-64 608,-256" /><polygon points="736,-384 752,-400 768,-400 768,-336 768,-304 768,-176 640,-176 640,-288" /><polygon points="768,-176 768,-160 768,-64 640,-64 640,-176" /><polygon points="768,-416 768,-400 752,-400" /><polygon points="384,-384 384,-384 352,-384 352,-384" /><polygon points="736,-400 752,-400 736,-384 704,-384" /><polygon points="592,-400 608,-384 576,-384 544,-384 448,-384 448,-400" /><polygon points="592,-400 688,-400 736,-400 704,-384 608,-384" /><polygon points="448,-512 480,-512 512,-512 528,-512 528,-496 528,-432 528,-416 448,-416" /><polygon points="528,-496 624,-496 624,-432 592,-432 528,-432" /><polygon points="528,-512 672,-512 688,-496 624,-496 528,-496" /><polygon points="688,-496 688,-432 624,-432 624,-496" /><polygon points="528,-416 576,-416 592,-400 448,-400 448,-416" /><polygon points="576,-416 592,-432 624,-432 688,-432 688,-400 592,-400" /><polygon points="576,-416 528,-416 528,-432 592,-432" /><polygon points="768,-416 752,-400 736,-400 688,-400 688,-432 688,-496" /><polygon points="448,-400 352,-400 352,-416 448,-416" /><polygon points="352,-512 448,-512 448,-416 352,-416" /><polygon points="448,-384 384,-384 352,-384 352,-400 448,-400" /><polygon points="352,-512 352,-512 448,-512 448,-512" /><polygon points="704,-384 640,-352 624,-368 608,-384" /><polygon points="736,-384 640,-288 640,-320 640,-352 704,-384" /><polygon points="608,-368 592,-368 576,-384 608,-384 624,-368" /><polygon points="608,-352 608,-368 624,-368 640,-352 640,-320 608,-320" /><polygon points="608,-320 640,-320 640,-288 608,-256" /><polygon points="608,-352 592,-368 608,-368" /><polygon points="352,-384 320,-384 320,-400 352,-400" /><polygon points="320,-400 320,-512 352,-512 352,-416 352,-400" /><polygon points="80,-160 64,-160 80,-160" /><polygon points="-128,-208 -128,-224 -128,-208 -128,-192 -128,-192" /><polygon points="64,-192 64,-160 -32,-160 -128,-160 -128,-192" /><polygon points="-160,-208 -160,-208 -160,-224" /><polygon points="-160,-208 -128,-208 -128,-192 -128,-160 -160,-160" /><polygon points="-256,-192 -256,-208 -160,-208 -160,-160 -256,-160" /><polygon points="80,-64 80,-160 80,-160 80,-64" /><polygon points="-32,-64 -160,-64 -172,-64 -256,-160 -160,-160 -128,-160 -32,-160" /><polygon points="64,-160 64,-64 32,-64 -32,-64 -32,-160" /><polygon points="64,-64 64,-160 80,-160 80,-64" /><polygon points="-172,-64 -256,-64 -256,-160" /><polygon points="-448,-416 -448,-448 -448,-472 -352,-472 -352,-256 -352,-248 -448,-248" /><polygon points="-352,-248 -352,-224 -448,-160 -448,-192 -448,-248" /><polygon points="-352,-224 -288,-160 -352,-64 -448,-160" /><polygon points="-320,-224 -288,-192 -256,-160 -288,-160 -352,-224 -352,-248 -352,-256" /><polygon points="-320,-224 -352,-256 -320,-256" /><polygon points="-256,-64 -352,-64 -288,-160 -256,-160" /><polygon points="-256,-160 -288,-192 -256,-192" /><polygon points="-352,-472 -320,-472 -320,-448 -320,-416 -320,-384 -320,-320 -320,-256 -352,-256" /><polygon points="-320,-488 -320,-472 -352,-472 -448,-472 -448,-480 -448,-488" /><polygon points="-320,-544 -320,-488 -448,-488 -448,-544" /><polygon points="-320,-448 -320,-472 -320,-472 -320,-448" /><polygon points="-320,-488 -320,-488 -352,-488 -448,-488 -448,-488" /><polygon points="-352,-472 -320,-472 -320,-472 -320,-472 -352,-472 -448,-472 -448,-472" /><polygon points="-320,-320 -320,-320 -320,-320 -320,-256 -320,-256" /><polygon points="-352,-64 -448,-64 -448,-160" /><polygon points="608,-64 608,128 608,128 608,0 608,-64" /><polygon points="640,-64 640,128 608,128 608,-64" /><polygon points="768,-64 768,64 768,128 640,128 640,-64" /><polygon points="0,16 0,64 -128,64 -128,0 0,0" /><polygon points="-128,64 0,64 0,96 -128,96" /><polygon points="32,128 -144,128 -160,128 -128,96 0,96" /><polygon points="0,0 -128,0 -128,-32 0,-32" /><polygon points="-32,-64 32,-64 0,-32 -128,-32 -160,-64" /><polygon points="0,0 0,-32 0,-32 0,16 0,16" /><polygon points="-128,-32 -128,-32 -160,-64 -160,-64" /><polygon points="-448,-40 -376,-40 -448,32" /><polygon points="-352,-64 -376,-40 -448,-40 -448,-64" /><polygon points="-376,-40 -352,-64 -352,-64 -448,32 -448,32" /><polygon points="192,704 192,704 192,640 192,640" /><polygon points="192,128 192,128 192,160 192,160" /><polygon points="384,256 384,368 384,368 384,256" /><polygon points="768,128 768,192 640,192 640,128" /><polygon points="640,128 640,192 608,192 608,128" /><polygon points="640,192 768,192 768,256 608,416 576,416 576,320 576,256" /><polygon points="608,416 576,448 576,416" /><polygon points="608,192 640,192 576,256 576,224" /><polygon points="576,320 512,320 512,256 576,256" /><polygon points="576,224 576,256 512,256 400,256 400,224" /><polygon points="400,400 400,368 400,320 512,320 576,320 576,416 576,448 400,448" /><polygon points="512,256 512,320 400,320 400,256" /><polygon points="400,320 400,368 392,368 392,256 400,256" /><polygon points="384,256 392,256 392,368 384,368" /><polygon points="384,448 384,400 400,400 400,448" /><polygon points="416,608 384,608 384,448 400,448 576,448" /><polygon points="384,640 384,608 416,608" /><polygon points="400,224 400,224 576,224 576,224" /><polygon points="608,128 608,192 608,192 608,128" /><polygon points="392,256 384,256 384,256 392,256" /><polygon points="384,368 392,368 392,368 384,368" /><polygon points="392,368 400,368 400,368 392,368" /><polygon points="392,256 392,256 392,368 392,368" /><polygon points="392,368 392,368 392,256 392,256" /><polygon points="-416,640 -448,640 -448,592" /><polygon points="-416,640 -416,672 -448,672 -448,640" /><polygon points="-448,480 -416,480 -448,512" /><polygon points="-432,352 -432,384 -448,384 -448,288 -432,288" /><polygon points="-368,352 -432,352 -432,288 -368,288" /><polygon points="-448,384 -432,384 -416,384 -416,480 -448,480" /><polygon points="-368,384 -416,384 -432,384 -432,352 -368,352" /><polygon points="-448,256 -368,176 -368,288 -432,288 -448,288" /><polygon points="-320,544 -288,544 -416,672 -416,640" /><polygon points="-320,544 -416,640 -448,592 -448,512 -416,480" /><polygon points="-64,544 -32,544 -32,576 -32,640 -32,672 -64,672" /><polygon points="32,640 -32,640 -32,576 32,576" /><polygon points="32,640 64,672 -32,672 -32,640" /><polygon points="64,672 32,640 32,576 64,576" /><polygon points="64,544 64,576 32,576 -32,576 -32,544" /><polygon points="-368,384 -320,384 -320,544 -416,480 -416,384" /><polygon points="-320,384 -288,384 -288,544 -320,544" /><polygon points="96,416 -96,416 -96,384 80,384 96,384" /><polygon points="-144,384 -96,384 -160,416 -160,384" /><polygon points="-96,384 -96,416 -160,448 -160,416" /><polygon points="96,416 96,384 160,416 160,448" /><polygon points="96,384 160,384 160,416" /><polygon points="-368,352 -368,288 -368,176 -320,128 -160,128 -144,128 -144,352" /><polygon points="-144,384 -160,384 -288,384 -320,384 -368,384 -368,352 -144,352" /><polygon points="-144,352 -144,128 32,128 80,128 80,352" /><polygon points="80,384 -96,384 -144,384 -144,352 80,352" /><polygon points="96,128 192,128 192,160 192,352 80,352 80,128" /><polygon points="192,352 192,384 160,384 96,384 80,384 80,352" /><polygon points="160,448 160,416 160,384 160,384 160,416 160,608 160,608" /><polygon points="192,704 192,704 32,864 32,864" /><polygon points="-160,384 -160,384 -160,384 -288,384 -288,384" /><polygon points="-288,384 -288,384 -288,512 -288,544 -288,544" /><polygon points="-160,608 -160,640 -160,832 -160,832 -160,640 -160,608" /><polygon points="-416,672 -416,672 -448,672 -448,672" /><polygon points="-288,544 -288,544 -416,672 -416,672" /><polygon points="96,416 96,416 -96,416 -96,416" /><polygon points="-160,608 -160,448 -160,448 -160,640 -160,640" /><polygon points="-32,672 64,672 64,672 -64,672 -64,672" /><polygon points="64,576 64,544 64,544 64,640 64,672 64,672" /><polygon points="160,608 160,608 160,448 160,448" /><polygon points="192,640 192,640 160,608 160,608" /><polygon points="160,448 160,448 96,416 96,416" /><polygon points="-96,416 -96,416 -160,448 -160,448" /><polygon points="-672,640 -672,672 -768,576 -768,544" /><polygon points="-640,480 -624,496 -624,512 -624,528 -640,512" /><polygon points="-640,512 -624,528 -608,544 -672,640 -768,544 -672,480" /><polygon points="-608,544 -624,528 -624,512 -608,512 -480,512 -464,512 -464,528 -480,544" /><polygon points="-624,496 -608,512 -624,512" /><polygon points="-480,512 -464,496 -464,512" /><polygon points="-448,640 -672,640 -608,544 -480,544 -448,592" /><polygon points="-448,672 -672,672 -672,640 -448,640" /><polygon points="-448,480 -448,512 -464,528 -464,512 -464,496" /><polygon points="-624,288 -608,288 -608,416 -624,416" /><polygon points="-640,272 -624,288 -624,416 -640,432" /><polygon points="-672,320 -672,256 -640,224 -640,272 -640,432 -640,448 -672,448" /><polygon points="-640,448 -640,480 -640,512 -672,480 -672,448" /><polygon points="-768,128 -800,128 -800,96" /><polygon points="-800,240 -800,128 -768,128 -768,320 -768,352 -800,352" /><polygon points="-768,352 -768,544 -768,576 -800,544 -800,464 -800,352" /><polygon points="-448,592 -480,544 -464,528 -448,512" /><polygon points="-768,32 -768,-128 -672,-128 -672,-72 -672,96 -768,96" /><polygon points="-672,96 -672,184 -672,256 -672,320 -768,320 -768,128 -768,96" /><polygon points="-672,320 -672,448 -672,480 -768,544 -768,352 -768,320" /><polygon points="-800,-160 -768,-192 -768,-128 -768,32 -800,32" /><polygon points="-768,32 -768,96 -768,128 -800,96 -800,64 -800,32" /><polygon points="-768,-192 -800,-160 -800,-192 -800,-256 -768,-256" /><polygon points="-672,-72 -640,-72 -640,-40 -640,32 -640,64 -672,96" /><polygon points="-672,-256 -640,-256 -640,-192 -640,-160 -672,-192" /><polygon points="-768,-256 -768,-272 -672,-272 -672,-256 -672,-192 -768,-192" /><polygon points="-568,-40 -536,-40 -640,64 -640,32" /><polygon points="-640,64 -536,-40 -448,-40 -448,32 -600,184 -672,184 -672,96" /><polygon points="-600,184 -640,224 -672,256 -672,184" /><polygon points="-608,-128 -576,-128 -480,-128 -536,-72 -640,-72 -672,-72 -672,-128" /><polygon points="-536,-72 -536,-40 -568,-40 -640,-40 -640,-72" /><polygon points="-640,-160 -608,-128 -672,-128 -768,-128 -768,-192 -672,-192" /><polygon points="-576,-128 -608,-128 -640,-160 -640,-192" /><polygon points="-448,-416 -448,-248 -448,-192 -512,-256 -512,-352" /><polygon points="-448,-64 -448,-40 -536,-40 -536,-72 -480,-128 -448,-160" /><polygon points="-608,288 -624,288 -624,288 -608,288" /><polygon points="-640,-256 -640,-384 -640,-384 -640,-208 -640,-192 -640,-192" /><polygon points="-640,-40 -640,-40 -640,16 -640,32 -640,32" /><polygon points="-568,-40 -568,-40 -576,-40 -640,-40 -640,-40" /><polygon points="-512,-256 -512,-256 -512,-288 -512,-320 -512,-352 -512,-352" /><polygon points="-448,-192 -448,-192 -464,-208 -512,-256 -512,-256 -512,-256" /><polygon points="-672,-256 -672,-272 -672,-272" /><polygon points="-768,-272 -768,-256 -768,-272" /><polygon points="-672,-272 -768,-272 -768,-272 -672,-272" /><polygon points="-624,288 -624,288 -624,416 -624,416" /><polygon points="-640,448 -640,432 -640,432 -640,464 -640,480 -640,480" /><polygon points="-864,304 -800,240 -800,352 -800,464 -864,400" /><polygon points="-800,128 -864,64 -832,64 -800,96" /><polygon points="-864,0 -864,-96 -832,-128 -832,64 -864,64" /><polygon points="-800,-160 -832,-128 -864,-96 -864,-128 -800,-192" /><polygon points="-832,-128 -800,-160 -800,32 -800,64 -832,64" /><polygon points="-800,64 -800,96 -832,64" /><polygon points="-800,128 -800,128 -864,64 -864,64" /><polygon points="96,-160 80,-160 96,-160" /><polygon points="96,-64 96,-160 96,-160 96,-64" /><polygon points="80,-64 80,-160 96,-160 96,-64" /><polygon points="32,-64 32,-64 32,-64 0,-32 0,-32 32,-64" /><polygon points="-672,-288 -672,-288 -672,-272" /><polygon points="-672,-272 -672,-288 -672,-304 -672,-320 -672,-336 -672,-352 -672,-368 -672,-384 -640,-384 -640,-256 -672,-256" /><polygon points="-768,-288 -768,-272 -768,-288" /><polygon points="-672,-288 -768,-288 -768,-288 -672,-288" /><polygon points="-672,-272 -768,-272 -768,-288 -672,-288" /><polygon points="112,-160 96,-160 112,-160" /><polygon points="224,-192 224,-192 128,-192 80,-192 64,-192 64,-192 96,-192 224,-192" /><polygon points="384,-224 256,-224 256,-224 320,-224 384,-224" /><polygon points="256,-224 224,-192 224,-192 256,-224" /><polygon points="112,-64 112,-160 112,-160 112,-64" /><polygon points="96,-64 96,-160 112,-160 112,-64" /><polygon points="-672,-304 -672,-304 -672,-288" /><polygon points="-768,-304 -768,-288 -768,-304" /><polygon points="-672,-304 -768,-304 -768,-304 -672,-304" /><polygon points="-672,-288 -768,-288 -768,-304 -672,-304" /><polygon points="112,-64 112,-64 112,-64 96,-64 96,-64 112,-64" /><polygon points="128,-160 112,-160 128,-160" /><polygon points="128,-192 192,-192 192,-192 64,-192 80,-192" /><polygon points="384,-224 352,-192 224,-192 256,-224" /><polygon points="256,-224 256,-224 384,-224 384,-224" /><polygon points="224,-192 224,-192 256,-224 256,-224" /><polygon points="128,-64 128,-160 128,-160 128,-64" /><polygon points="112,-64 112,-160 128,-160 128,-64" /><polygon points="-672,-320 -672,-320 -672,-304" /><polygon points="-768,-320 -768,-304 -768,-320" /><polygon points="-672,-320 -768,-320 -768,-320 -672,-320" /><polygon points="-672,-304 -768,-304 -768,-320 -672,-320" /><polygon points="-800,-320 -800,-256 -800,-192 -800,-192" /><polygon points="480,640 480,640 384,640 384,640 384,640" /><polygon points="80,-832 112,-832 144,-832 144,-832 48,-832 48,-832" /><polygon points="144,-832 144,-832 208,-768 208,-768 144,-832" /><polygon points="128,-64 128,-64 112,-64 112,-64 128,-64" /><polygon points="672,-640 608,-640 608,-640 672,-640 720,-640 720,-640" /><polygon points="720,-640 736,-640 736,-640 720,-640 672,-640 672,-640" /><polygon points="448,-592 448,-640 448,-640 448,-640 448,-640 448,-624 448,-576 448,-576" /><polygon points="448,-576 448,-576 448,-560 448,-560 448,-560 448,-576" /><polygon points="608,-640 448,-640 448,-592" /><polygon points="144,-160 128,-160 144,-160" /><polygon points="144,-64 144,-160 144,-160 144,-64" /><polygon points="128,-64 128,-160 144,-160 144,-64" /><polygon points="384,608 384,576 384,448 384,416 384,400 384,400 384,448 384,608 384,640 384,640" /><polygon points="384,400 384,400 384,400 384,400 400,400 400,400 384,400" /><polygon points="352,448 192,448 192,448 352,448" /><polygon points="384,416 384,448 352,448" /><polygon points="192,448 352,448 384,448 384,576 352,576 192,576" /><polygon points="352,576 384,576 384,608" /><polygon points="160,608 160,608 160,608 160,608 192,640 192,640 160,608" /><polygon points="160,416 192,448 192,576 160,608" /><polygon points="192,448 160,416 160,416 192,448" /><polygon points="-672,-336 -672,-336 -672,-320" /><polygon points="-768,-336 -768,-320 -768,-336" /><polygon points="-672,-336 -768,-336 -768,-336 -672,-336" /><polygon points="-672,-320 -768,-320 -768,-336 -672,-336" /><polygon points="-800,-320 -800,-384 -768,-384 -768,-368 -768,-352 -768,-336 -768,-320 -768,-304 -768,-288 -768,-272 -768,-256 -800,-256" /><polygon points="128,-64 128,-64 144,-64 144,-64" /><polygon points="160,-160 144,-160 160,-160" /><polygon points="160,-64 160,-160 160,-160 160,-64" /><polygon points="144,-64 144,-160 160,-160 160,-64" /><polygon points="-672,-352 -672,-352 -672,-336" /><polygon points="-768,-352 -768,-336 -768,-352" /><polygon points="-672,-352 -768,-352 -768,-352 -672,-352" /><polygon points="-672,-336 -768,-336 -768,-352 -672,-352" /><polygon points="704,-800 720,-800 736,-800 736,-800 704,-800" /><polygon points="112,-64 112,-64 128,-64 144,-64 160,-64 160,-64" /><polygon points="176,-160 160,-160 176,-160" /><polygon points="176,-64 176,-160 176,-160 176,-64" /><polygon points="160,-64 160,-160 176,-160 176,-64" /><polygon points="-672,-368 -672,-368 -672,-352" /><polygon points="-768,-368 -768,-352 -768,-368" /><polygon points="-672,-368 -768,-368 -768,-368 -672,-368" /><polygon points="-672,-352 -768,-352 -768,-368 -672,-368" /><polygon points="-128,-768 -64,-768 -16,-768 -16,-768 -128,-768 -160,-768 -160,-768" /><polygon points="208,-768 352,-768 352,-768 320,-768 208,-768" /><polygon points="48,-832 48,-832 48,-832 -16,-768 -16,-768" /><polygon points="144,-832 144,-832 112,-832 112,-832" /><polygon points="112,-832 112,-832 80,-832 80,-832" /><polygon points="80,-832 80,-832 48,-832 48,-832" /><polygon points="704,-800 704,-800 704,-800 608,-800 608,-800" /><polygon points="720,-800 704,-800 704,-800" /><polygon points="608,-768 720,-768 720,-800 704,-800 608,-800 496,-800 496,-768" /><polygon points="496,-800 384,-800 352,-768 480,-768 496,-768" /><polygon points="352,-768 384,-800 384,-800 352,-768" /><polygon points="160,-768 208,-768 144,-832 112,-832 80,-832 48,-832 -16,-768" /><polygon points="720,-672 720,-768 608,-768 704,-672" /><polygon points="720,-656 720,-672 704,-672" /><polygon points="176,-64 176,-64 96,-64 96,-64 96,-64 112,-64 160,-64 176,-64" /><polygon points="-256,-672 -256,-672 -256,-640 -256,-640" /><polygon points="-160,-768 -160,-768 -256,-672 -256,-672" /><polygon points="128,-640 96,-640 -96,-640 -96,-640 96,-640 128,-640" /><polygon points="352,-640 320,-640 128,-640 128,-640 192,-640 352,-640" /><polygon points="672,-640 544,-640 448,-640 448,-640 608,-640 672,-640" /><polygon points="720,-640 736,-640 736,-640" /><polygon points="608,-768 496,-768 480,-768 480,-672 544,-672 704,-672" /><polygon points="480,-768 352,-768 352,-672 480,-672" /><polygon points="96,-672 -64,-672 -96,-672 -128,-640 -96,-640 96,-640" /><polygon points="320,-672 160,-672 96,-672 96,-640 128,-640 320,-640" /><polygon points="544,-672 480,-672 352,-672 320,-672 320,-640 352,-640 448,-640 544,-640" /><polygon points="672,-640 720,-640 720,-656 704,-672 544,-672 544,-640" /><polygon points="160,-768 -16,-768 -64,-768 -64,-704 -64,-672 96,-672 160,-672" /><polygon points="320,-672 352,-672 352,-768 208,-768 160,-768 160,-672" /><polygon points="-96,-672 -64,-704 -64,-768 -128,-768 -128,-640" /><polygon points="-96,-672 -64,-672 -64,-704" /><polygon points="720,-640 736,-640 720,-656" /><polygon points="384,-272 384,-256 384,-384 384,-384" /><polygon points="384,-256 384,-256 384,-384 384,-384" /><polygon points="384,-272 384,-264 384,-256 384,-256" /><polygon points="-128,-608 -96,-640 -128,-640" /><polygon points="-128,-768 -160,-768 -256,-672 -256,-640 -256,-608 -160,-608 -128,-640" /><polygon points="-128,-608 -128,-640 -160,-608" /><polygon points="-128,-608 -160,-608 -256,-608 -256,-576 -160,-576 -128,-576" /><polygon points="-256,-576 -256,-576 -160,-576 -160,-576" /><polygon points="384,-256 384,-224 384,-224 384,-224 384,-224 384,-256" /><polygon points="384,-224 352,-192 352,-192 384,-224" /><polygon points="352,-192 352,-192 192,-192 192,-192" /><polygon points="352,-192 192,-192 128,-192 224,-192 352,-192" /><polygon points="176,-64 176,-160 192,-160 192,-64" /><polygon points="-320,-416 -320,-416 -320,-448 -320,-448" /><polygon points="-672,-384 -672,-384 -672,-368" /><polygon points="-672,-368 -768,-368 -768,-384 -672,-384" /><polygon points="736,-768 736,-800 720,-800 720,-768" /><polygon points="736,-640 736,-640 736,-640 736,-640 800,-576 800,-576 736,-640" /><polygon points="736,-768 736,-640 736,-640 736,-672 736,-768" /><polygon points="736,-640 736,-768 720,-768 720,-672 720,-656" /><polygon points="32,-64 32,-64 80,-64 96,-64 96,-64 96,-64 96,-64" /><polygon points="192,-64 192,-64 192,-64 192,-64 176,-64 176,-64 192,-64" /><polygon points="-128,-560 -128,-576 -128,-608 -128,-608 -128,-576" /><polygon points="416,-640 448,-640 448,-640 352,-640 352,-640" /><polygon points="416,-640 352,-640 192,-640 192,-640 352,-640 416,-640" /><polygon points="512,-272 512,-272 512,-256 512,-256" /><polygon points="416,-272 416,-256 416,-272" /><polygon points="512,-272 416,-272 416,-272 512,-272" /><polygon points="512,-256 416,-256 416,-272 512,-272" /><polygon points="96,-640 -96,-640 -128,-608 96,-608" /><polygon points="-96,-640 -96,-640 -128,-608 -128,-608" /><polygon points="-96,-640 -128,-608 -128,-608" /><polygon points="-160,-576 -160,-576 -160,-464" /><polygon points="416,-256 416,-224 384,-224 384,-256" /><polygon points="416,-224 512,-224 512,-160 416,-64 352,-160" /><polygon points="192,-160 192,-192 352,-192 352,-160" /><polygon points="352,-160 416,-64 352,-64 320,-64 224,-64 192,-64 192,-160" /><polygon points="416,-224 416,-256 512,-256 512,-224" /><polygon points="416,-224 352,-160 352,-192 384,-224" /><polygon points="384,-256 384,-224 384,-224 384,-256" /><polygon points="352,-192 352,-192 384,-224 384,-224" /><polygon points="192,-160 192,-160 176,-160" /><polygon points="192,-192 192,-160 176,-160 160,-160 144,-160 128,-160 112,-160 96,-160 80,-160 64,-160 64,-192" /><polygon points="192,-64 192,-64 192,-160 192,-160" /><polygon points="320,0 224,0 224,-16 320,-16" /><polygon points="224,-16 192,-16 192,-48 192,-64 224,-64" /><polygon points="352,-16 320,-16 320,-64 352,-64" /><polygon points="320,-16 224,-16 224,-64 320,-64" /><polygon points="224,-16 224,0 224,0" /><polygon points="320,0 320,-16 320,0" /><polygon points="224,0 320,0 320,0 224,0" /><polygon points="-160,416 -160,384 -160,384 -160,416 -160,448 -160,608 -160,608" /><polygon points="-160,640 -160,832 -240,832 -240,640" /><polygon points="-576,-512 -560,-512 -560,-512" /><polygon points="-768,-512 -800,-512 -672,-640 -672,-608" /><polygon points="-576,-512 -608,-512 -768,-512 -672,-608 -576,-608 -560,-608 -560,-512" /><polygon points="-672,-608 -672,-640 -576,-640 -576,-608" /><polygon points="-560,-608 -576,-608 -560,-608" /><polygon points="-560,-512 -560,-608 -560,-608 -560,-512" /><polygon points="-800,-480 -800,-512 -768,-512 -768,-480" /><polygon points="-768,-512 -720,-480 -768,-480" /><polygon points="-608,-512 -576,-512 -608,-480 -640,-480" /><polygon points="-608,-512 -640,-480 -720,-480 -768,-512" /><polygon points="-608,-480 -576,-512 -576,-480" /><polygon points="-640,-448 -640,-448 -640,-384 -640,-384 -640,-384" /><polygon points="-608,-480 -640,-448 -640,-480" /><polygon points="-608,-480 -608,-480 -640,-448 -640,-448" /><polygon points="-672,-384 -672,-384 -768,-384 -768,-384" /><polygon points="-768,-384 -800,-384 -800,-480 -768,-480" /><polygon points="-640,-448 -640,-384 -672,-384 -672,-448 -640,-480" /><polygon points="-720,-480 -672,-448 -672,-384 -768,-384 -768,-480" /><polygon points="-640,-480 -672,-448 -720,-480" /><polygon points="-768,-384 -768,-384 -768,-368" /><polygon points="512,-272 512,-288 512,-288 512,-256 512,-256" /><polygon points="416,-288 416,-272 416,-288" /><polygon points="512,-288 416,-288 416,-288 512,-288" /><polygon points="512,-272 416,-272 416,-288 512,-288" /><polygon points="512,-256 512,-160 512,-160 512,-224 512,-256" /><polygon points="352,0 352,0 352,128 352,128" /><polygon points="224,16 224,16 224,0" /><polygon points="320,16 320,0 320,16" /><polygon points="224,16 320,16 320,16 224,16" /><polygon points="320,16 224,16 224,0 320,0" /><polygon points="-544,-512 -544,-512 -560,-512" /><polygon points="-544,-608 -560,-608 -544,-608" /><polygon points="-544,-608 -544,-608 -544,-512 -544,-512" /><polygon points="-560,-608 -544,-608 -544,-512 -560,-512" /><polygon points="-560,-512 -544,-512 -528,-512 -512,-512 -496,-512 -480,-512 -464,-512 -448,-512 -448,-480 -464,-480 -576,-480 -576,-512" /><polygon points="-800,-416 -800,-512 -800,-512 -800,-480 -800,-384" /><polygon points="544,-384 512,-384 448,-384 384,-384 384,-384 448,-384 544,-384" /><polygon points="448,-384 448,-384 384,-384 384,-384" /><polygon points="544,-384 544,-384 528,-384 512,-384 512,-384 512,-384 512,-384" /><polygon points="544,-384 544,-384 576,-384 576,-384 544,-384" /><polygon points="416,-304 416,-288 416,-304" /><polygon points="512,-304 416,-304 416,-304 512,-304" /><polygon points="512,-288 416,-288 416,-304 512,-304" /><polygon points="384,-384 384,-384 384,-384 384,-264 384,-272 384,-384" /><polygon points="512,-256 512,-160 512,-160 512,-256" /><polygon points="224,32 224,32 224,16" /><polygon points="320,32 320,16 320,32" /><polygon points="224,32 320,32 320,32 224,32" /><polygon points="320,32 224,32 224,16 320,16" /><polygon points="-528,-512 -528,-512 -544,-512" /><polygon points="-528,-608 -544,-608 -528,-608" /><polygon points="-528,-608 -528,-608 -528,-512 -528,-512" /><polygon points="-544,-608 -528,-608 -528,-512 -544,-512" /><polygon points="512,-304 512,-320 512,-320 512,-320 512,-304" /><polygon points="416,-320 416,-304 416,-320" /><polygon points="512,-320 416,-320 416,-320 512,-320" /><polygon points="512,-304 416,-304 416,-320 512,-320" /><polygon points="224,48 224,48 224,32" /><polygon points="224,48 320,48 320,48 224,48" /><polygon points="320,48 320,32 320,48" /><polygon points="320,48 224,48 224,32 320,32" /><polygon points="-512,-512 -512,-512 -528,-512" /><polygon points="-512,-608 -528,-608 -512,-608" /><polygon points="-512,-608 -512,-608 -512,-512 -512,-512" /><polygon points="-528,-608 -512,-608 -512,-512 -528,-512" /><polygon points="1056,-672 1056,-672 1056,-768 1056,-768" /><polygon points="928,-896 928,-896 832,-896 832,-896" /><polygon points="832,-864 800,-864 736,-800 736,-768" /><polygon points="1024,-768 1056,-768 960,-864 928,-864" /><polygon points="832,-896 800,-864 832,-864 928,-864 960,-864 928,-896" /><polygon points="736,-800 736,-800 736,-768 736,-768" /><polygon points="800,-864 832,-896 832,-896 736,-800 736,-800 736,-800" /><polygon points="1024,-672 1024,-640 1056,-672 1056,-768 1024,-768" /><polygon points="832,-576 928,-576 928,-576 832,-576" /><polygon points="960,-576 1024,-640 1024,-672 928,-576" /><polygon points="928,-576 1024,-672 1024,-672 928,-576" /><polygon points="1024,-640 960,-576 960,-576 1024,-640" /><polygon points="960,-576 928,-544 960,-544" /><polygon points="960,-544 928,-544 832,-544 832,-464 960,-464" /><polygon points="928,-544 960,-576 928,-576 832,-576 832,-544" /><polygon points="960,-464 832,-464 832,-336 960,-336" /><polygon points="800,-576 832,-576 736,-672 736,-640" /><polygon points="832,-576 800,-576 832,-544" /><polygon points="832,-576 832,-576 736,-672 736,-672" /><polygon points="800,-544 800,-576 800,-576 800,-464 800,-464" /><polygon points="800,-464 800,-464 800,-336 800,-336" /><polygon points="800,-576 800,-544 832,-544" /><polygon points="832,-544 800,-544 800,-464 832,-464" /><polygon points="832,-464 800,-464 800,-336 832,-336" /><polygon points="448,-640 448,-640 416,-640 416,-640" /><polygon points="448,-384 448,-384 512,-384 512,-384 490.6667,-384" /><polygon points="448,-544 448,-528 448,-528 448,-528 448,-544" /><polygon points="448,-528 448,-512 448,-512 448,-512 448,-528" /><polygon points="448,-560 448,-544 448,-544 448,-544 448,-560" /><polygon points="448,-512 480,-512 480,-512 448,-512" /><polygon points="416,-640 352,-640 368,-624 384,-624 448,-624 448,-640" /><polygon points="448,-512 448,-528 448,-544 448,-560 448,-576 448,-624 384,-624 384,-608 384,-384 448,-384" /><polygon points="368,-624 384,-608 384,-624" /><polygon points="384,-608 384,-608 384,-384 384,-384" /><polygon points="368,-624 352,-640 352,-640 384,-608 384,-608" /><polygon points="416,-336 416,-320 416,-336" /><polygon points="512,-336 416,-336 416,-336 512,-336" /><polygon points="512,-320 416,-320 416,-336 512,-336" /><polygon points="-320,-384 -320,-384 -320,-416 -320,-416 -320,-416" /><polygon points="-320,-320 -320,-320 -320,-384 -320,-384" /><polygon points="224,64 224,64 224,48" /><polygon points="320,64 320,48 320,64" /><polygon points="224,64 320,64 320,64 224,64" /><polygon points="320,64 224,64 224,48 320,48" /><polygon points="400,256 400,256 392,256 392,256" /><polygon points="400,256 392,256 392,368 400,368" /><polygon points="392,256 384,256 384,368 392,368" /><polygon points="-496,-512 -496,-512 -512,-512" /><polygon points="-496,-608 -512,-608 -496,-608" /><polygon points="-496,-608 -496,-608 -496,-512 -496,-512" /><polygon points="-512,-608 -496,-608 -496,-512 -512,-512" /><polygon points="416,-352 416,-336 416,-352" /><polygon points="512,-352 416,-352 416,-352 512,-352" /><polygon points="512,-336 416,-336 416,-352 512,-352" /><polygon points="224,80 224,80 224,64" /><polygon points="320,80 320,64 320,80" /><polygon points="224,80 320,80 320,80 224,80" /><polygon points="320,80 224,80 224,64 320,64" /><polygon points="-480,-512 -480,-512 -496,-512" /><polygon points="-480,-608 -496,-608 -480,-608" /><polygon points="-480,-608 -480,-608 -480,-512 -480,-512" /><polygon points="-496,-608 -480,-608 -480,-512 -496,-512" /><polygon points="480,-512 512,-512 512,-512 480,-512" /><polygon points="490.6667,-384 512,-384 512,-384" /><polygon points="416,-368 416,-352 416,-368" /><polygon points="416,-368 416,-368 512,-368 512,-368" /><polygon points="512,-352 416,-352 416,-368 512,-368" /><polygon points="224,96 224,96 224,80" /><polygon points="320,96 320,80 320,96" /><polygon points="224,96 320,96 320,96 224,96" /><polygon points="320,96 224,96 224,80 320,80" /><polygon points="-464,-512 -464,-512 -480,-512" /><polygon points="-464,-608 -480,-608 -464,-608" /><polygon points="-464,-608 -464,-608 -464,-512 -464,-512" /><polygon points="-480,-608 -464,-608 -464,-512 -480,-512" /><polygon points="-448,-472 -448,-472 -448,-448 -448,-448" /><polygon points="-448,-480 -448,-480 -448,-472 -448,-472" /><polygon points="-448,-512 -448,-544 -448,-544 -448,-488 -448,-488" /><polygon points="-448,-544 -448,-608 -448,-608 -448,-544 -448,-512 -448,-512" /><polygon points="-256,-384 -256,-416 -256,-416 -256,-416 -256,-384" /><polygon points="-256,-416 -256,-416 -256,-416 -256,-576 -256,-576 -256,-576 -256,-416" /><polygon points="-128,-448 -128,-448 -128,-576 -128,-560" /><polygon points="352,-640 352,-640 192,-640 192,-640" /><polygon points="512,-512 512,-400 512,-400 512,-512" /><polygon points="512,-400 512,-384 512,-384 512,-400" /><polygon points="512,-400 512,-512 480,-512 448,-512 448,-384 490.6667,-384 512,-384" /><polygon points="384,-608 384,-608 384,-384 384,-384" /><polygon points="352,-640 352,-640 368,-624 384,-608 384,-608" /><polygon points="416,-368 416,-384 512,-384 512,-368" /><polygon points="384,-384 384,-384 384,-256 384,-264" /><polygon points="-160,-576 -160,-576 -160,-640 -160,-640 -160,-576" /><polygon points="-160,-416 -128,-448 -160,-448 -192,-416" /><polygon points="-160,-576 -160,-576 -160,-448 -160,-448 -160,-464" /><polygon points="-160,-448 -160,-576 -160,-576 -160,-464" /><polygon points="-160,-448 -128,-448 -128,-560 -128,-576 -160,-576" /><polygon points="-192,-416 -256,-416 -256,-384 -192,-384 -160,-416" /><polygon points="-320,-472 -320,-448 -320,-448 -320,-472" /><polygon points="-320,-488 -320,-472 -320,-472 -320,-472 -320,-488" /><polygon points="-320,-544 -320,-488 -320,-488 -320,-544" /><polygon points="-352,-544 -352,-488 -320,-488 -320,-544" /><polygon points="-352,-488 -352,-480 -352,-472 -320,-472 -320,-488" /><polygon points="-352,-472 -352,-448 -320,-448 -320,-472" /><polygon points="-352,-544 -448,-544 -448,-512 -448,-488 -352,-488" /><polygon points="-448,-488 -448,-480 -352,-480 -352,-488" /><polygon points="-352,-480 -448,-480 -448,-472 -352,-472" /><polygon points="-352,-472 -448,-472 -448,-448 -352,-448" /><polygon points="-352,-488 -320,-488 -320,-488 -448,-488 -448,-488" /><polygon points="-352,-544 -320,-544 -320,-544 -448,-544 -448,-544" /><polygon points="-352,-472 -320,-472 -320,-472 -320,-472 -352,-472 -448,-472 -448,-472" /><polygon points="-320,-448 -320,-448 -320,-416 -320,-416 -320,-416 -320,-448" /><polygon points="224,112 224,112 224,96" /><polygon points="320,112 320,96 320,112" /><polygon points="224,112 320,112 320,112 224,112" /><polygon points="320,112 224,112 224,96 320,96" /><polygon points="-448,-512 -448,-512 -464,-512" /><polygon points="-464,-640 -448,-640 -448,-608 -464,-608 -480,-608 -496,-608 -512,-608 -528,-608 -544,-608 -560,-608 -576,-608 -576,-640" /><polygon points="-464,-608 -448,-608 -448,-544 -448,-512 -464,-512" /><polygon points="-464,-480 -464,-480 -464,-480 -560,-480 -576,-480 -576,-480" /><polygon points="-240,608 -240,640 -240,832 -240,832 -240,800 -240,608" /><polygon points="-240,608 -240,416 -160,416 -160,608 -160,640 -240,640" /><polygon points="-864,368 -864,368 -864,400 -864,400" /><polygon points="-864,304 -864,304 -864,336 -864,336" /><polygon points="-864,336 -864,336 -864,368 -864,368" /><polygon points="-864,64 -864,16 -864,0 -864,0 -864,64" /><polygon points="-864,16 -864,0 -864,0" /><polygon points="-864,0 -864,0 -864,-128 -864,-128 -864,-96 -864,0" /><polygon points="672,448 792,328 672,448" /><polygon points="672,448 672,448 664,456 608,512 480,640 480,640 480,640 576,544 672,448" /><polygon points="-800,544 -800,544 -768,576 -672,672 -672,672" /><polygon points="-800,128 -800,128 -800,240 -800,240" /><polygon points="-800,464 -800,464 -800,544 -800,544" /><polygon points="792,232 800,224 768,256 624,400 608,416 608,416" /><polygon points="800,224 800,320 800,320 800,224" /><polygon points="800,320 800,224 792,232 792,328" /><polygon points="-128,-768 -160,-768 -256,-768 -352,-768 -352,-768 -256,-768 -160,-768 -128,-768" /><polygon points="352,-768 320,-768 208,-768 208,-768 320,-768 352,-768 416,-768 416,-768" /><polygon points="208,-768 96,-768 -16,-768 48,-832 144,-832" /><polygon points="928,-864 928,-864 832,-864 832,-864" /><polygon points="832,-864 832,-864 736,-768 736,-768" /><polygon points="1024,-768 1024,-768 928,-864 928,-864" /><polygon points="1024,-672 1024,-672 1024,-768 1024,-768" /><polygon points="896,-192 960,-256 960,-336 832,-336 832,-192" /><polygon points="832,-192 832,-192 896,-192 896,-192" /><polygon points="896,-192 896,-192 928,-224 960,-256 960,-256" /><polygon points="736,-768 736,-768 736,-672 736,-672" /><polygon points="800,-336 800,-336 768,-336 768,-336" /><polygon points="832,-336 800,-336 768,-336 768,-192 832,-192" /><polygon points="832,-192 768,-192 768,-160 800,-160" /><polygon points="800,-160 768,-160 768,-112 768,-64 768,0 800,0" /><polygon points="768,128 768,224 800,224 800,0 768,0" /><polygon points="800,0 800,224 800,224 800,64 800,0" /><polygon points="-448,464 -448,384 -448,384 -448,480 -448,480" /><polygon points="-448,-192 -448,-192 -448,-160 -448,-160" /><polygon points="224,128 320,128 320,128 224,128" /><polygon points="-172,-64 -160,-64 -160,-64 -160,-64 -172,-64" /><polygon points="32,-64 32,-64 -160,-64 -160,-64" /><polygon points="-256,-192 -256,-192 -256,-224 -256,-224 -256,-224 -256,-208 -256,-192" /><polygon points="768,-160 768,-192 768,-336 688,-336 608,-256 608,-112 768,-112" /><polygon points="608,-112 608,-64 768,-64 768,-112" /><polygon points="768,-400 752,-400 688,-336 768,-336" /><polygon points="768,-400 768,-416 752,-400" /><polygon points="608,-352 608,-336 624,-336" /><polygon points="688,-336 624,-336 608,-336 608,-256" /><polygon points="752,-400 576,-400 576,-384 608,-352 624,-336 688,-336" /><polygon points="544,-384 576,-384 576,-400 528,-400 528,-384" /><polygon points="384,-608 368,-624 384,-624" /><polygon points="528,-400 528,-512 512,-512 512,-400 512,-384 528,-384" /><polygon points="416,-608 448,-576 416,-576" /><polygon points="384,-608 384,-624 400,-624 416,-608 416,-576 416,-384 384,-384" /><polygon points="416,-576 448,-576 512,-576 512,-512 512,-400 512,-384 416,-384" /><polygon points="96,-672 -128,-672 -128,-768 -16,-768 96,-768" /><polygon points="320,-672 96,-672 96,-768 208,-768 320,-768" /><polygon points="352,-768 352,-672 320,-672 320,-768" /><polygon points="96,-640 -128,-640 -128,-672 96,-672" /><polygon points="320,-640 192,-640 96,-640 96,-672 320,-672" /><polygon points="352,-672 352,-640 320,-640 320,-672" /><polygon points="384,-624 368,-624 352,-640 352,-672 400,-624" /><polygon points="416,-608 400,-624 352,-672 352,-768 416,-768 512,-672 512,-608 512,-576 448,-576" /><polygon points="768,-416 672,-512 528,-512 528,-400 576,-400 752,-400" /><polygon points="512,-320 512,-320 512,-304 512,-304" /><polygon points="512,-672 512,-672 512,-608 512,-608" /><polygon points="192,-640 192,-640 128,-640 96,-640 96,-640" /><polygon points="96,-608 -128,-608 -128,-608 -80,-608 96,-608" /><polygon points="320,-640 352,-640 352,-640 192,-640 192,-640" /><polygon points="512,-384 512,-384 416,-384 416,-384" /><polygon points="528,-512 672,-512 672,-512 528,-512 512,-512 512,-512 512,-512" /><polygon points="768,-416 768,-416 688,-496 672,-512 672,-512" /><polygon points="512,-256 512,-256 512,-288 512,-304 512,-304 512,-304" /><polygon points="512,-352 512,-352 512,-368 512,-368 512,-368" /><polygon points="512,-320 512,-320 512,-336 512,-336 512,-336" /><polygon points="512,-336 512,-336 512,-352 512,-352 512,-352" /><polygon points="512,-368 512,-368 512,-384 512,-384" /><polygon points="608,-336 608,-352 608,-352 608,-320 608,-256 608,-256" /><polygon points="576,-384 576,-384 592,-368 608,-352 608,-352" /><polygon points="416,-384 416,-384 416,-368" /><polygon points="384,-384 416,-384 416,-368 416,-352 416,-336 416,-320 416,-304 416,-288 416,-272 416,-256 384,-256" /><polygon points="192,-640 192,-640 192,-640 192,-640 192,-608" /><polygon points="192,-608 192,-640 128,-640 96,-640 96,-608" /><polygon points="-192,-384 -192,-384 -256,-384 -256,-384" /><polygon points="-128,-640 -160,-640 -256,-640 -256,-672 -128,-672" /><polygon points="-128,-672 -256,-672 -160,-768 -128,-768" /><polygon points="-128,-448 -128,-448 -160,-416 -192,-384 -192,-384" /><polygon points="-256,-416 -256,-416 -192,-416 -192,-416" /><polygon points="-256,-640 -160,-640 -160,-576 -256,-576" /><polygon points="-160,-448 -160,-448 -160,-464" /><polygon points="-192,-416 -160,-448 -160,-448 -192,-416" /><polygon points="-192,-416 -192,-416 -160,-448 -160,-448" /><polygon points="-256,-64 -172,-64 -256,-160" /><polygon points="-256,-672 -256,-768 -160,-768" /><polygon points="-352,-256 -320,-256 -320,-256 -448,-256 -448,-256" /><polygon points="-352,-448 -320,-448 -320,-448 -352,-448 -448,-448 -448,-448" /><polygon points="-448,-480 -352,-480 -352,-448 -448,-448" /><polygon points="-448,-608 -448,-640 -448,-672 -352,-768 -352,-608 -352,-544 -448,-544" /><polygon points="-352,-544 -352,-480 -448,-480 -448,-512 -448,-544" /><polygon points="-352,-480 -352,-544 -352,-608 -320,-608 -320,-448 -352,-448" /><polygon points="-288,-672 -288,-640 -320,-608 -352,-608" /><polygon points="-352,-768 -288,-672 -352,-608" /><polygon points="-288,-640 -288,-672 -256,-672 -256,-640" /><polygon points="-256,-672 -288,-672 -352,-768 -256,-768" /><polygon points="-320,-608 -320,-608 -320,-448 -320,-448" /><polygon points="-320,-416 -320,-416 -320,-416 -320,-384 -320,-384 -320,-416" /><polygon points="-352,-256 -352,-224 -320,-224 -320,-256" /><polygon points="-352,-224 -352,-160 -352,-64 -256,-64 -256,-160 -288,-192 -320,-224" /><polygon points="-288,-192 -256,-160 -256,-192" /><polygon points="-352,-224 -352,-256 -448,-256 -448,-192 -448,-160 -352,-160" /><polygon points="-352,-64 -352,-160 -448,-160" /><polygon points="-256,-192 -256,-192 -288,-192 -288,-192" /><polygon points="-320,-256 -320,-224 -320,-224 -320,-256" /><polygon points="-288,-192 -288,-192 -320,-224 -320,-224" /><polygon points="-352,-64 -448,-160 -448,-64" /><polygon points="608,0 608,128 768,128 768,0" /><polygon points="608,-64 608,0 768,0 768,-64" /><polygon points="192,-64 192,-48 192,-48 192,-64" /><polygon points="192,-48 192,-64 192,-64 192,-48" /><polygon points="320,112 320,96 320,80 320,64 320,48 320,32 320,16 320,0 320,-16 352,-16 352,0 352,128 320,128" /><polygon points="192,112 192,-16 224,-16 224,0 224,16 224,32 224,48 224,64 224,80 224,96 224,112 224,128 192,128" /><polygon points="224,128 224,128 224,112" /><polygon points="320,128 224,128 224,112 320,112" /><polygon points="320,128 320,112 320,128" /><polygon points="0,16 0,96 0,96 0,64 0,16" /><polygon points="32,128 0,96 0,128" /><polygon points="32,128 32,128 0,96 0,96" /><polygon points="-112,128 0,128 0,96 0,16" /><polygon points="0,-32 -128,-32 -128,96 -128,128 -112,128 0,16" /><polygon points="-128,-32 0,-32 32,-64 -160,-64" /><polygon points="-128,96 -160,128 -128,128" /><polygon points="-128,-32 -128,-32 -128,0 -128,64 -128,96 -128,96" /><polygon points="-128,96 -128,96 -160,128 -160,128" /><polygon points="-352,-64 -448,-64 -448,32" /><polygon points="608,128 608,192 608,224 624,224 768,224 768,128" /><polygon points="608,192 576,224 608,224" /><polygon points="608,192 608,192 576,224 576,224" /><polygon points="400,224 400,224 400,256 400,256 400,256" /><polygon points="-128,256 -128,256 -224,256 -224,256" /><polygon points="-336,256 -448,256 -448,384 -336,384" /><polygon points="-128,256 -224,256 -336,256 -336,384 -288,384 -160,384 -128,384" /><polygon points="-336,512 -336,464 -432,464 -448,480 -448,512" /><polygon points="-448,480 -432,464 -448,464" /><polygon points="-448,384 -448,464 -432,464 -336,464 -336,384" /><polygon points="-288,544 -288,512 -336,512 -448,512 -448,672 -416,672" /><polygon points="-288,384 -336,384 -336,464 -336,512 -288,512" /><polygon points="-448,672 -624,672 -640,672 -672,672 -672,672 -448,672" /><polygon points="-448,-608 -448,-608 -464,-608" /><polygon points="-464,-480 -464,-480 -448,-480" /><polygon points="-640,-384 -640,-384 -640,-208 -640,-208" /><polygon points="-640,272 -640,272 -640,224 -640,224" /><polygon points="-568,-40 -568,-40 -640,32 -640,32" /><polygon points="-448,-160 -448,-160 -480,-128 -480,-128" /><polygon points="-624,288 -640,272 -640,288" /><polygon points="-448,-64 -448,-160 -480,-128 -568,-40 -640,32 -640,64 -480,64 -448,32" /><polygon points="-640,64 -640,128 -640,224 -480,64" /><polygon points="-448,32 -480,64 -640,224 -640,224 -600,184 -448,32" /><polygon points="-624,288 -624,288 -640,272 -640,272" /><polygon points="-464,-400 -448,-416 -448,-416 -512,-352 -512,-352 -512,-352" /><polygon points="-576,-128 -576,-40 -568,-40 -480,-128" /><polygon points="-576,-40 -576,-128 -640,-192 -640,-40" /><polygon points="-464,-400 -512,-352 -512,-320 -512,-288 -512,-256 -464,-208" /><polygon points="-448,-256 -448,-416 -464,-400 -464,-208 -448,-192" /><polygon points="-480,-128 -480,-128 -576,-128 -576,-128" /><polygon points="-512,-320 -512,-320 -512,-288 -512,-288" /><polygon points="-512,-352 -512,-352 -512,-320 -512,-320" /><polygon points="-512,-288 -512,-288 -512,-256 -512,-256" /><polygon points="-576,-128 -576,-128 -640,-192 -640,-192" /><polygon points="-640,272 -800,272 -800,288 -640,288" /><polygon points="-800,128 -640,128 -640,64 -640,32 -640,16 -800,16" /><polygon points="-640,224 -640,128 -800,128 -800,240 -800,272 -640,272" /><polygon points="-640,16 -640,0 -800,0 -800,16" /><polygon points="-448,512 -480,512 -608,512 -624,512 -624,672 -448,672" /><polygon points="-624,288 -640,288 -800,288 -800,432 -640,432 -624,416" /><polygon points="-608,288 -624,288 -624,416 -608,416" /><polygon points="-448,480 -480,512 -448,512" /><polygon points="-608,512 -624,496 -624,512" /><polygon points="-800,464 -640,464 -640,432 -800,432" /><polygon points="-624,512 -624,496 -640,480 -640,672 -624,672" /><polygon points="-800,464 -800,544 -672,672 -640,672 -640,480 -640,464" /><polygon points="-480,512 -480,512 -608,512 -608,512" /><polygon points="-608,416 -608,416 -608,288 -608,288" /><polygon points="-448,480 -448,480 -464,496 -480,512 -480,512" /><polygon points="-624,416 -624,416 -608,416 -608,416" /><polygon points="-624,288 -624,288 -624,416 -624,416" /><polygon points="-624,496 -608,512 -608,512 -624,496 -640,480 -640,480" /><polygon points="-640,432 -640,432 -624,416 -624,416" /><polygon points="-800,240 -800,240 -864,304 -864,304 -864,304" /><polygon points="-800,288 -800,272 -800,240 -864,304 -864,336 -864,368 -864,400 -832,432 -800,432" /><polygon points="-800,464 -800,432 -832,432" /><polygon points="-832,432 -864,400 -864,400 -864,400 -800,464 -800,464" /><polygon points="-800,128 -800,16 -864,16 -864,64" /><polygon points="-800,0 -864,0 -864,16 -800,16" /><polygon points="-800,0 -800,-160 -800,-192 -864,-128 -864,0" /><polygon points="512,-256 512,-256 512,-304 512,-304" /><polygon points="224,144 224,144 224,128" /><polygon points="320,144 320,128 320,144" /><polygon points="352,128 352,192 352,240 320,240 320,224 320,208 320,192 320,176 320,160 320,144 320,128" /><polygon points="224,144 320,144 320,144 224,144" /><polygon points="320,144 224,144 224,128 320,128" /><polygon points="224,128 224,144 224,160 224,176 224,192 224,208 224,224 224,240 192,240 192,224 192,128" /><polygon points="768,256 800,224 768,224" /><polygon points="400,256 400,368 400,400 400,448 576,448 608,416 624,400 624,224 608,224 576,224 400,224" /><polygon points="400,256 400,256 400,368 400,368" /><polygon points="192,160 192,240 192,384 192,384 192,352 192,160" /><polygon points="192,160 192,128 192,128 192,224 192,240" /><polygon points="224,160 224,160 224,144" /><polygon points="320,160 320,144 320,160" /><polygon points="224,160 320,160 320,160 224,160" /><polygon points="320,160 224,160 224,144 320,144" /><polygon points="224,176 224,176 224,160" /><polygon points="320,176 320,160 320,176" /><polygon points="224,176 320,176 320,176 224,176" /><polygon points="320,176 224,176 224,160 320,160" /><polygon points="-128,128 32,128 32,128 0,128 -112,128 -128,128 -160,128 -160,128" /><polygon points="96,128 96,128 112,128 192,128 192,128 192,128 192,128 192,128 96,128" /><polygon points="32,-64 32,-64 -24,-64 -56,-64 -160,-64 -160,-64" /><polygon points="192,112 192,112 192,128 192,128" /><polygon points="384,480 384,576 384,608 384,608 384,448 384,448 384,448" /><polygon points="384,400 384,400 384,416 384,416" /><polygon points="224,192 224,192 224,176" /><polygon points="320,192 320,176 320,192" /><polygon points="224,192 320,192 320,192 224,192" /><polygon points="320,192 224,192 224,176 320,176" /><polygon points="384,448 384,416 352,448" /><polygon points="384,416 384,416 352,448 352,448" /><polygon points="352,576 288,576 192,576 192,576 352,576" /><polygon points="192,544 224,544 224,480 192,480" /><polygon points="288,576 288,544 224,544 192,544 192,576" /><polygon points="384,480 288,480 288,544 288,576 352,576 384,576" /><polygon points="224,480 288,480 384,480 384,448 352,448 192,448 192,480" /><polygon points="288,480 224,480 224,480 288,480" /><polygon points="288,544 288,480 288,480 288,544" /><polygon points="224,544 288,544 288,544 224,544" /><polygon points="352,576 384,608 384,576" /><polygon points="384,608 352,576 352,576 384,608" /><polygon points="160,416 160,416 160,608 160,608" /><polygon points="192,544 192,480 192,448 160,416 160,608 192,576" /><polygon points="192,576 160,608 160,608 192,576" /><polygon points="672,448 792,328 792,232 608,416 608,456 664,456" /><polygon points="352,0 352,0 352,128 352,128 352,128" /><polygon points="224,208 224,208 224,192" /><polygon points="320,208 320,192 320,208" /><polygon points="352,192 352,128 352,128 352,240" /><polygon points="352,128 352,192 352,128" /><polygon points="224,208 320,208 320,208 224,208" /><polygon points="320,208 224,208 224,192 320,192" /><polygon points="400,368 400,368 400,368 400,400 400,400" /><polygon points="384,416 384,400 384,400 384,416 384,448 384,448" /><polygon points="224,224 224,224 224,208" /><polygon points="320,224 320,208 320,224" /><polygon points="224,224 320,224 320,224 224,224" /><polygon points="320,224 224,224 224,208 320,208" /><polygon points="624,400 768,256 768,224 624,224" /><polygon points="-144,128 -128,128 -128,128 -160,128 -320,128 -320,128" /><polygon points="-144,128 -144,128 -144,128 -144,128 -128,128 -128,128 -128,128" /><polygon points="192,240 192,224 192,240 192,384 192,384" /><polygon points="384,640 384,608 384,608 384,608 384,640" /><polygon points="384,448 384,608 384,640 384,640 384,448" /><polygon points="384,406 384,416 384,416" /><polygon points="384,416 384,406 384,400 384,400 384,416" /><polygon points="384,448 384,448 384,432 384,416 384,416 384,416 384,448" /><polygon points="384,406 384,416 384,432 384,448 400,448 400,400 384,400" /><polygon points="224,240 320,240 320,240 224,240" /><polygon points="224,240 224,240 224,224" /><polygon points="320,240 224,240 224,224 320,224" /><polygon points="288,480 224,480 224,480 288,480" /><polygon points="224,480 224,544 224,544 224,480" /><polygon points="224,480 224,480 224,544 224,544" /><polygon points="-128,256 -128,256 -224,256 -224,256" /><polygon points="-224,256 -448,256 -448,256 -336,256 -224,256" /><polygon points="-128,256 -128,256 -128,384 -128,384" /><polygon points="-128,384 -128,384 -128,288 -128,256 -128,256" /><polygon points="192,384 160,384 160,384 160,384 192,384" /><polygon points="160,384 160,416 160,416 160,416 160,384" /><polygon points="160,416 160,384 160,384 160,416 160,608 160,608" /><polygon points="-240,832 -192,832 -192,800 -208,800 -240,800" /><polygon points="-192,608 -192,448 -208,448 -208,576 -208,672 -192,672" /><polygon points="-208,672 -208,800 -192,800 -192,672" /><polygon points="-240,448 -208,448 -192,448 -192,416 -240,416" /><polygon points="-192,608 -192,672 -192,800 -192,832 -160,832 -160,640 -160,608" /><polygon points="-160,416 -192,416 -192,448 -192,608 -160,608" /><polygon points="-208,448 -208,448 -208,576 -208,576" /><polygon points="-160,640 -160,832 -160,864 -160,864 -160,800 -160,640" /><polygon points="-160,416 -160,608 -160,640 -160,640 -160,576 -160,416" /><polygon points="-208,448 -240,448 -240,448 -208,448" /><polygon points="-240,800 -208,800 -208,800 -240,800" /><polygon points="-240,576 -240,608 -240,800 -240,800 -240,584 -240,576" /><polygon points="-160,832 -192,832 -240,832 -240,832 -160,832" /><polygon points="-160,384 -128,384 -128,384 -160,384" /><polygon points="-240,576 -240,448 -240,416 -240,416 -240,608 -240,608" /><polygon points="-160,416 -160,384 -160,384 -160,384 -160,416" /><polygon points="-240,416 -192,416 -160,416 -160,416 -240,416" /><polygon points="-160,864 -160,832 -160,832 -160,832 -160,864" /><polygon points="-800,-160 -800,0 -640,0 -640,-160" /><polygon points="608,456 608,416 384,640 480,640 608,512" /><polygon points="608,456 608,512 664,456" /><polygon points="608,416 576,448 384,640 608,416" /><polygon points="-160,864 -160,864 -160,864 32,864 32,864" /><polygon points="-448,288 -448,384 -448,384 -448,320 -448,288 -448,256 -448,256" /><polygon points="352,-64 352,-64 416,-64 416,-64" /><polygon points="-256,-192 -256,-192 -256,-160 -256,-160" /><polygon points="-256,-256 -256,-320 -256,-320 -256,-224 -256,-224" /><polygon points="-256,-384 -256,-384 -256,-320 -256,-320" /><polygon points="-256,-160 -256,-160 -172,-64 -172,-64" /><polygon points="416,-64 416,-64 512,-160 512,-160 512,-160 512,-160" /><polygon points="-128,-608 -128,-608 -128,-608 -128,-576 -128,-448 -128,-448" /><polygon points="512,-352 512,-352 512,-368 512,-368" /><polygon points="512,-320 512,-320 512,-320 512,-336 512,-336" /><polygon points="512,-336 512,-336 512,-352 512,-352" /><polygon points="512,-368 512,-368 512,-384 512,-384" /><polygon points="512,-256 512,-256 512,-304 512,-320 512,-320" /><polygon points="-64,-640 -64,-640 -128,-640 -128,-640" /><polygon points="96,-640 128,-640 128,-640 96,-640 -64,-640 -64,-640" /><polygon points="96,-640 -64,-640 -128,-640 -128,-640 96,-640" /><polygon points="128,-624 144,-608 96,-608 -80,-608 -64,-624" /><polygon points="144,-608 192,-608 192,-608 96,-608 96,-608" /><polygon points="-192,-384 -192,-384 -256,-384 -256,-384" /><polygon points="-128,-640 -128,-640 -160,-640 -160,-640 -128,-640" /><polygon points="-128,-448 -128,-448 -192,-384 -192,-384" /><polygon points="512,-160 512,-160 512,-256 512,-256 512,-256 512,-256" /><polygon points="-56,-64 -24,-64 -184,-224 -216,-224" /><polygon points="-160,-64 -56,-64 -216,-224 -256,-224 -256,-192 -256,-160 -172,-64" /><polygon points="-216,-224 -184,-224 -216,-256 -256,-256 -256,-224" /><polygon points="-184,-224 -24,-64 -24,-64 -216,-256 -216,-256" /><polygon points="352,-64 352,-64 352,-48 352,0 352,0 352,0 352,-16 352,-64" /><polygon points="192,704 192,704 192,640 192,640" /><polygon points="384,432 384,416 384,416" /><polygon points="384,384 384,320 384,320 384,416 384,416" /><polygon points="320,256 320,240 352,240 352,288 352,384 320,384" /><polygon points="352,288 384,320 384,384 352,384" /><polygon points="368,432 352,448 320,448 320,384 352,384 384,384 384,416" /><polygon points="384,416 368,432 384,432" /><polygon points="320,256 224,256 224,240 320,240" /><polygon points="224,416 224,256 320,256 320,384 320,448 320,480 288,480 224,480" /><polygon points="192,384 192,240 224,240 224,256 224,416 192,416" /><polygon points="192,416 224,416 224,480 224,544 224,608 192,608" /><polygon points="320,544 320,480 320,448 352,448 352,544 320,576" /><polygon points="320,544 288,544 288,480 320,480" /><polygon points="288,544 320,544 320,576 288,608 224,608 224,544" /><polygon points="224,608 288,608 256,640 192,640 192,608" /><polygon points="352,240 352,128 352,128 352,128 352,160 352,288 352,288" /><polygon points="288,608 320,576 352,544 352,544 288,608 256,640 256,640" /><polygon points="320,240 320,240 320,224" /><polygon points="384,416 384,416 368,432" /><polygon points="368,432 384,416 384,432" /><polygon points="288,544 288,544 288,480 288,480" /><polygon points="224,544 224,544 288,544 288,544" /><polygon points="-224,256 -448,256 -448,256 -224,256" /><polygon points="-320,128 -320,128 -320,128 -320,128 -368,176 -448,256 -448,256 -448,256 -448,256" /><polygon points="160,416 192,416 192,608 160,608" /><polygon points="192,416 160,416 160,384 192,384" /><polygon points="192,640 160,608 192,608" /><polygon points="160,384 160,384 192,384 192,384" /><polygon points="192,704 192,704 32,864 32,864" /><polygon points="-240,800 -208,800 -192,800 -192,864 -256,864 -256,800" /><polygon points="-208,576 -208,448 -192,448 -192,576 -192,672 -208,672" /><polygon points="-192,672 -192,800 -208,800 -208,672" /><polygon points="-256,416 -256,384 -240,360 -240,448 -240,576 -240,584 -256,584" /><polygon points="-240,584 -240,800 -256,800 -256,640 -256,584" /><polygon points="-160,352 -160,288 -128,288 -128,384 -160,384" /><polygon points="-224,336 -256,384 -272,384 -448,384 -448,288 -224,288" /><polygon points="-192,288 -224,336 -224,288" /><polygon points="-192,448 -192,352 -160,352 -160,384 -160,416 -160,576 -192,576" /><polygon points="-160,576 -160,640 -160,800 -192,800 -192,672 -192,576" /><polygon points="-160,800 -160,864 -192,864 -192,800" /><polygon points="-192,352 -192,448 -208,448 -240,448 -240,360 -224,336 -192,288" /><polygon points="-224,288 -448,288 -448,256 -224,256" /><polygon points="-128,256 -128,288 -160,288 -192,288 -224,288 -224,256" /><polygon points="-160,352 -192,352 -192,288 -160,288" /><polygon points="-272,384 -272,384 -448,384 -448,384" /><polygon points="-256,640 -256,800 -256,864 -256,864 -256,832 -256,640" /><polygon points="-256,416 -256,584 -256,640 -256,640 -256,608 -256,416" /><polygon points="-128,384 -128,384 -160,384 -160,384" /><polygon points="-208,576 -208,672 -208,800 -208,800 -208,672 -208,576" /><polygon points="-160,384 -160,384 -160,416 -160,416" /><polygon points="-240,448 -240,448 -240,576 -240,576" /><polygon points="-800,-192 -800,-192 -800,-192 -864,-128 -864,-128" /><polygon points="576,448 400,448 384,448 384,640" /><polygon points="-640,-208 -640,-160 -640,0 -640,16 -640,-40 -640,-192 -640,-208" /><polygon points="-640,-208 -640,-384 -800,-384 -800,-192 -800,-160 -640,-160" /><polygon points="-144,128 -144,128 -320,128 -320,128 -320,128" /><polygon points="-144,128 -320,128 -320,128 -144,128" /><polygon points="-256,-256 -256,-256 -216,-256 -216,-256" /><polygon points="-24,-64 -24,-64 -184,-224 -216,-256 -216,-256" /><polygon points="832,-864 928,-864 928,-864 832,-864" /><polygon points="736,-768 832,-864 832,-864 736,-768" /><polygon points="928,-864 1024,-768 1024,-768 928,-864" /><polygon points="80,-832 112,-832 144,-832 144,-832 48,-832 48,-832" /><polygon points="1024,-768 1024,-672 1024,-672 1024,-768" /><polygon points="928,-576 832,-576 832,-576 928,-576" /><polygon points="1024,-672 1024,-672 928,-576 928,-576" /><polygon points="1024,-672 928,-576 928,-576 1024,-672" /><polygon points="736,-672 736,-768 736,-768 736,-672" /><polygon points="832,-576 736,-672 736,-672 832,-576" /><polygon points="-112,128 96,128 96,128 32,128 -128,128 -128,128 -128,128" /><polygon points="32,-64 -24,-64 -24,-64 -24,-64 32,-64" /><polygon points="-256,-256 -256,-256 -216,-256 -216,-256" /><polygon points="-24,-64 -56,-64 -216,-224 -184,-224" /><polygon points="-56,-64 -104,-64 -172,-64 -256,-160 -256,-192 -256,-224 -216,-224" /><polygon points="-216,-256 -184,-224 -216,-224 -256,-224 -256,-256" /><polygon points="-172,-64 -256,-64 -256,-160" /><polygon points="-320,-224 -288,-192 -352,-192 -352,-224" /><polygon points="-288,-192 -256,-192 -256,-160 -256,-64 -320,-64 -352,-64 -352,-192" /><polygon points="-448,-160 -448,-224 -352,-224 -352,-192 -352,-64" /><polygon points="352,-48 352,-64 352,-64" /><polygon points="192,128 192,128 192,112 192,112 192,128" /><polygon points="192,-48 192,-48 192,-48 192,-16 192,112 192,112 192,112" /><polygon points="192,-48 352,-48 352,-64 192,-64" /><polygon points="96,112 112,128 96,128 -112,128 -96,112" /><polygon points="-256,-64 -172,-64 -104,-64 -176,0 -192,0 -320,0 -320,-64" /><polygon points="-192,32 -176,64 -160,96 -192,96" /><polygon points="-192,96 -160,96 -144,128 -320,128 -320,96" /><polygon points="-176,64 -192,32 -192,0 -176,0" /><polygon points="-192,32 -192,96 -320,96 -320,0 -192,0" /><polygon points="-160,96 -176,64 -176,64 -160,96 -144,128 -144,128" /><polygon points="352,0 352,-48 192,-48 192,112 192,128 352,128" /><polygon points="192,-64 352,-64 352,-64 320,-64 192,-64" /><polygon points="-672,-640 -672,-640 -800,-512 -800,-512 -800,-512" /><polygon points="-800,-384 -800,-416 -800,-416 -800,-384 -800,-320 -800,-192 -800,-192" /><polygon points="-800,-416 -800,-512 -800,-512 -800,-416" /><polygon points="-16,-768 -16,-768 -128,-768 -128,-768" /><polygon points="96,-768 192,-768 208,-768 144,-832 112,-832 80,-832 48,-832 -16,-768" /><polygon points="928,-864 928,-864 832,-864 832,-864" /><polygon points="832,-864 832,-864 736,-768 736,-768" /><polygon points="1024,-768 1024,-768 928,-864 928,-864" /><polygon points="80,-832 80,-832 48,-832 48,-832" /><polygon points="144,-832 144,-832 112,-832 112,-832" /><polygon points="112,-832 112,-832 80,-832 80,-832" /><polygon points="48,-832 48,-832 48,-832 -16,-768 -16,-768" /><polygon points="208,-768 208,-768 144,-832 144,-832 144,-832" /><polygon points="1024,-672 1024,-672 1024,-768 1024,-768" /><polygon points="832,-576 832,-576 928,-576 928,-576" /><polygon points="1024,-672 1024,-672 928,-576 928,-576" /><polygon points="736,-768 736,-768 736,-672 736,-672" /><polygon points="736,-672 736,-672 832,-576 832,-576" /><polygon points="-448,-480 -448,-480 -448,-448 -448,-448" /><polygon points="-448,-672 -448,-672 -448,-640 -448,-640" /><polygon points="-352,-768 -352,-768 -448,-672 -448,-672" /><polygon points="96,-64 96,-64 32,-64 32,-64 32,-64 32,-64 32,-64 32,-64 96,-64" /><polygon points="352,-64 352,-64 320,-64 320,-64" /><polygon points="-256,-576 -256,-640 -256,-640 -256,-576" /><polygon points="512,-608 512,-544 512,-448 512,-416 512,-384 512,-384 512,-384 512,-400 512,-512 512,-576 512,-608" /><polygon points="512,-672 512,-672 416,-768 416,-768" /><polygon points="416,-544 384,-576 384,-448 416,-416 512,-416 512,-448" /><polygon points="416,-416 384,-448 352,-480 352,-448 416,-384" /><polygon points="512,-416 416,-416 416,-384 512,-384" /><polygon points="352,-576 384,-576 352,-608" /><polygon points="384,-576 352,-576 352,-480 384,-448" /><polygon points="512,-544 512,-608 512,-672 416,-768 352,-768 352,-608 384,-576 416,-544" /><polygon points="512,-448 512,-544 416,-544" /><polygon points="352,-448 352,-448 416,-384 416,-384" /><polygon points="192,-640 192,-640 192,-640 192,-608 192,-608 192,-608" /><polygon points="352,-768 320,-768 320,-640 352,-608" /><polygon points="352,-576 352,-608 320,-640 320,-608" /><polygon points="192,-640 192,-608 320,-608 320,-640" /><polygon points="320,-640 320,-768 208,-768 192,-768 192,-640" /><polygon points="96,-768 -16,-768 -128,-768 -128,-640 -64,-640 96,-640" /><polygon points="192,-768 96,-768 96,-640 128,-640 192,-640" /><polygon points="128,-640 128,-640 192,-640 192,-640" /><polygon points="-128,-768 -160,-768 -256,-672 -256,-640 -160,-640 -128,-640" /><polygon points="-256,-416 -256,-416 -192,-416 -192,-416" /><polygon points="-256,-576 -256,-416 -192,-416 -160,-448 -160,-576 -160,-640 -256,-640" /><polygon points="-160,-768 -256,-768 -256,-672" /><polygon points="-352,-480 -448,-480 -448,-448 -352,-448" /><polygon points="-352,-624 -352,-640 -448,-640 -448,-480 -352,-480" /><polygon points="-448,-672 -448,-640 -352,-640 -352,-768" /><polygon points="-352,-480 -352,-448 -320,-448 -320,-608 -352,-624" /><polygon points="-288,-640 -352,-768 -352,-640 -352,-624 -320,-608" /><polygon points="-256,-672 -256,-768 -352,-768 -288,-640 -256,-640" /><polygon points="-288,-640 -288,-640 -256,-640 -256,-640" /><polygon points="-320,-608 -320,-608 -288,-640 -288,-640" /><polygon points="-320,-416 -320,-448 -320,-448 -320,-416" /><polygon points="-320,-448 -320,-416 -320,-416 -320,-448" /><polygon points="-464,-640 -448,-640 -448,-640 -464,-640" /><polygon points="-560,-640 -464,-640 -464,-640 -576,-640 -576,-640" /><polygon points="-576,-640 -576,-640 -672,-640 -672,-640" /><polygon points="-448,-640 -464,-640 -560,-640 -560,-528 -560,-480 -464,-480 -448,-480" /><polygon points="-640,-512 -576,-512 -560,-528 -560,-640 -576,-640 -672,-640 -800,-512" /><polygon points="-560,-528 -576,-512 -608,-480 -576,-480 -560,-480" /><polygon points="-640,-448 -608,-480 -576,-512 -640,-512" /><polygon points="-640,-384 -640,-448 -640,-512 -800,-512 -800,-416 -800,-384" /><polygon points="-448,-480 -464,-480 -464,-480 -448,-480" /><polygon points="-608,-480 -608,-480 -576,-480 -576,-480" /><polygon points="-256,864 -256,864 -192,864 -160,864 -160,864 -192,864" /><polygon points="32,-64 32,-64 -24,-64 -104,-64 -104,-64 -56,-64 -24,-64 32,-64" /><polygon points="352,-64 352,-64 320,-64 320,-64" /><polygon points="320,-64 96,-64 96,-64 176,-64 192,-64 320,-64" /><polygon points="416,-384 512,-384 512,-384 416,-384" /><polygon points="352,-576 352,-448 352,-448 352,-480 352,-576" /><polygon points="352,-448 352,-448 416,-384 416,-384" /><polygon points="320,-608 352,-576 352,-576 320,-608" /><polygon points="320,-64 304,-48 112,-48 96,-64" /><polygon points="304,-48 304,-48 112,-48 112,-48" /><polygon points="320,-64 320,-64 304,-48 304,-48" /><polygon points="96,-64 112,-48 112,-48 96,-64" /><polygon points="352,544 352,544 352,448 352,448" /><polygon points="384,320 352,288 352,384 352,448 384,416" /><polygon points="384,320 384,320 352,288 352,288" /><polygon points="352,448 352,448 368,432 384,416 384,416" /><polygon points="352,128 288,128 288,160 352,160" /><polygon points="-272,384 -272,384 -256,384 -256,384" /><polygon points="-256,384 -256,384 -256,416 -256,416" /><polygon points="-256,384 -256,416 -256,608 -192,608 -192,384" /><polygon points="-256,608 -256,640 -256,832 -192,832 -192,612 -192,608" /><polygon points="-256,832 -256,864 -192,864 -192,832" /><polygon points="-448,-448 -448,-448 -448,-448 -448,-416 -448,-256 -448,-256" /><polygon points="-320,-64 -352,-64 -352,-64 -320,-64" /><polygon points="-352,-64 -352,-64 -448,-160 -448,-160 -352,-64" /><polygon points="-256,-192 -256,-192 -256,-256 -256,-256 -256,-224 -256,-192" /><polygon points="96,-608 144,-608 128,-624 -64,-624 -80,-608" /><polygon points="96,-608 -80,-608 -128,-608 -128,-608 96,-608" /><polygon points="192,-608 320,-608 320,-608 320,-608 192,-608" /><polygon points="352,-576 352,-576 320,-608 320,-608" /><polygon points="128,-624 128,-624 -64,-624 -64,-624" /><polygon points="-128,-608 -80,-608 -80,-608 -128,-608" /><polygon points="144,-608 192,-608 192,-608 192,-608 144,-608" /><polygon points="128,-624 144,-608 144,-608 128,-624" /><polygon points="-80,-608 -64,-624 -64,-624 -80,-608" /><polygon points="-320,-256 -320,-256 -448,-256 -448,-256" /><polygon points="-320,-416 -320,-448 -320,-448 -320,-384 -320,-384" /><polygon points="-320,-256 -320,-320 -320,-320 -320,-256" /><polygon points="-320,-448 -320,-448 -352,-448 -448,-448 -448,-448" /><polygon points="-320,-384 -320,-320 -320,-320 -320,-320 -320,-384" /><polygon points="-320,-320 -320,-256 -320,-256 -320,-320" /><polygon points="-288,-192 -256,-192 -256,-192 -288,-192" /><polygon points="-352,-64 -320,-64 -256,-192 -288,-192" /><polygon points="-320,-64 -320,-64 -272,-160 -256,-192 -256,-192" /><polygon points="128,-623 128,-632 -64,-632 -64,-623" /><polygon points="70.4,-623 -64,-623 -64,-623 70.4,-623" /><polygon points="-448,256 -448,288 -448,288 -448,288 -448,256" /><polygon points="-112,128 -112,128 -128,128 -128,128" /><polygon points="112,128 192,128 192,128 192,128 112,128" /><polygon points="256,128 288,128 352,128 352,128 192,128 192,128" /><polygon points="112,128 -112,128 -112,128 -112,128 112,128" /><polygon points="32,-64 32,-64 96,-64 96,-64 32,-64" /><polygon points="-104,-64 -24,-64 -216,-256 -256,-256 -256,-192 -256,-160 -172,-64" /><polygon points="-24,-64 -24,-64 -216,-256 -216,-256" /><polygon points="-172,-64 -256,-160 -256,-64" /><polygon points="-256,-160 -272,-160 -320,-64 -256,-64" /><polygon points="-256,-160 -256,-192 -272,-160" /><polygon points="-320,96 -320,64 -320,0 -320,-64 -320,-64 -320,-64 -320,0 -320,96 -320,128 -320,128" /><polygon points="-96,112 -96,112 -112,128 -112,128" /><polygon points="96,112 112,128 112,128 96,112" /><polygon points="112,128 96,112 -96,112 -112,128" /><polygon points="96,112 96,112 -96,112 -96,112" /><polygon points="-104,-64 -172,-64 -256,-64 -320,-64 -320,0 -176,0" /><polygon points="-160,96 -320,96 -320,128 -144,128" /><polygon points="-176,64 -176,0 -320,0 -320,64" /><polygon points="-320,64 -320,96 -160,96 -176,64" /><polygon points="-176,64 -176,64 -176,0 -176,0" /><polygon points="-104,-64 -176,0 -176,0 -104,-64" /><polygon points="288,160 288,128 256,128 256,192 256,352 288,352" /><polygon points="256,352 256,416 256,576 288,576 288,384 288,352" /><polygon points="256,576 256,640 288,608 288,576" /><polygon points="256,128 256,128 256,192 256,192" /><polygon points="288,384 288,576 288,608 352,544 352,448 352,384" /><polygon points="288,160 288,352 288,384 352,384 352,288 352,160" /><polygon points="-416,288 -448,288 -448,320 -416,320" /><polygon points="-192,612 -192,832 -192,864 -160,864 -160,640 -160,612" /><polygon points="-192,360 -192,384 -192,608 -192,612 -160,612 -160,416 -160,360" /><polygon points="-160,288 -192,320 -192,360 -160,360" /><polygon points="-224,320 -192,320 -192,288 -416,288 -416,320" /><polygon points="-192,320 -160,288 -192,288" /><polygon points="-448,288 -416,288 -416,288 -448,288" /><polygon points="-160,288 -160,288 -192,288 -192,288" /><polygon points="-160,640 -160,864 -160,864 -160,640" /><polygon points="-160,416 -160,612 -160,640 -160,640 -160,416" /><polygon points="-192,360 -192,320 -224,352 -256,384 -192,384" /><polygon points="-224,320 -416,320 -448,320 -448,384 -272,384 -256,384 -224,352" /><polygon points="-192,320 -224,320 -224,352" /><polygon points="96,113 96,104 -96,104 -96,113" /><polygon points="38.4,113 -96,113 -96,113 38.4,113" /><polygon points="-112,128 -144,128 -320,128 -320,128 -112,128" /><polygon points="-144,128 -112,128 -112,128 -128,128 -144,128" /><polygon points="-144,128 -144,128 -320,128 -320,128" /><polygon points="256,128 256,128 256,192 256,192" /><polygon points="256,416 256,640 256,640 256,576 256,416" /><polygon points="256,192 256,416 256,416 256,352 256,192" /><polygon points="-192,288 -224,288 -416,288 -416,288 -192,288" /><polygon points="-192,288 -160,288 -160,288 -224,288 -224,288" /><polygon points="-160,640 -160,864 -160,864 -160,640" /><polygon points="-160,416 -160,640 -160,640 -160,416" /><polygon points="-160,288 -160,288 -160,360 -160,416 -160,416" /><polygon points="-216,-256 -256,-256 -256,-256 -216,-256" /><polygon points="-320,-320 -320,-320 -320,-384 -320,-384" /><polygon points="-160,864 -160,864 -160,864 -160,864 32,864 32,864" /><polygon points="-448,288 -448,288 -448,256 -448,256" /><polygon points="-320,128 -320,128 -112,128 -112,128" /><polygon points="-112,128 -112,128 -96,128 96,128 112,128 112,128" /><polygon points="256,128 256,128 256,128 192,128 112,128 112,128" /><polygon points="-24,-64 -24,-64 -24,-64 32,-64 32,-64" /><polygon points="352,-64 352,-64 352,-64 352,-64 352,-64 352,-64 416,-64 416,-64" /><polygon points="320,-64 352,-64 352,-64 304,-64 288,-64 256,-64 256,-64" /><polygon points="-256,-320 -256,-320 -256,-256 -256,-256 -256,-256 -256,-256 -256,-256 -256,-256" /><polygon points="-256,-384 -256,-384 -256,-320 -256,-320" /><polygon points="416,-64 416,-64 512,-160 512,-160" /><polygon points="-256,-256 -256,-256 -216,-256 -216,-256" /><polygon points="-128,-608 -128,-608 -128,-608 -128,-448 -128,-448" /><polygon points="512,-352 512,-352 512,-368 512,-368" /><polygon points="512,-320 512,-320 512,-336 512,-336" /><polygon points="512,-336 512,-336 512,-352 512,-352" /><polygon points="512,-368 512,-368 512,-384 512,-384 512,-384 512,-384" /><polygon points="512,-256 512,-256 512,-320 512,-320" /><polygon points="512,-384 512,-384 416,-384 416,-384" /><polygon points="352,-448 352,-448 352,-576 352,-576 352,-576" /><polygon points="352,-448 352,-448 400,-400 416,-384 416,-384" /><polygon points="-128,-608 -128,-608 96,-608 96,-608" /><polygon points="320,-608 320,-608 192,-608 144,-608 96,-608 96,-608" /><polygon points="352,-576 352,-576 320,-608 320,-608" /><polygon points="-192,-384 -192,-384 -256,-384 -256,-384" /><polygon points="-128,-448 -128,-448 -192,-384 -192,-384" /><polygon points="512,-160 512,-160 512,-256 512,-256" /><polygon points="-216,-256 -216,-256 -24,-64 -24,-64" /><polygon points="304,-48 320,-64 256,-64 96,-64 112,-48" /><polygon points="192,704 192,704 192,640 192,640" /><polygon points="192,640 192,640 256,640 256,640 256,640 256,640" /><polygon points="256,640 256,640 256,416 256,416" /><polygon points="256,416 256,416 256,192 256,192" /><polygon points="256,128 256,128 256,192 256,192" /><polygon points="-320,128 -320,128 -320,128 -320,128 -320,128 -320,128 -448,256 -448,256 -448,256" /><polygon points="192,704 192,704 96,800 32,864 32,864" /><polygon points="-448,288 -448,288 -416,288 -224,288 -224,288" /><polygon points="-160,288 -160,288 -224,288 -224,288" /><polygon points="-160,864 -160,864 -160,736 -160,640 -160,640" /><polygon points="-160,640 -160,640 -160,512 -160,416 -160,416" /><polygon points="-160,288 -160,288 -160,416 -160,416" /><polygon points="112,-49 112,-40 304,-40 304,-49" /><polygon points="169.6,-49 304,-49 304,-49 169.6,-49" /><polygon points="928,-864 928,-864 832,-864 832,-864" /><polygon points="1024,-768 1024,-768 928,-864 928,-864" /><polygon points="832,-864 832,-864 736,-768 736,-768" /><polygon points="1024,-672 1024,-672 1024,-768 1024,-768" /><polygon points="832,-576 832,-576 928,-576 928,-576" /><polygon points="1024,-672 1024,-672 928,-576 928,-576" /><polygon points="736,-768 736,-768 736,-672 736,-672" /><polygon points="736,-672 736,-672 832,-576 832,-576" /><polygon points="-448,-160 -448,-224 -448,-224 -448,-160" /><polygon points="-320,-224 -320,-224 -352,-224 -448,-224 -448,-224" /><polygon points="-320,-224 -288,-192 -288,-192 -288,-192 -320,-224" /><polygon points="-288,-192 -352,-64 -352,-64 -288,-192" /><polygon points="128,-632 128,-632 128,-623 128,-623" /><polygon points="-64,-623 -64,-623 -64,-632 -64,-632" /><polygon points="-64,-623 -64,-632 128,-632 128,-623" /><polygon points="-64,-632 -64,-632 128,-632 128,-632" /><polygon points="128,-623 128,-623 70.4,-623 70.4,-623" /><polygon points="832,-896 832,-864 736,-768 704,-768" /><polygon points="1056,-768 1024,-768 928,-864 928,-896" /><polygon points="928,-864 832,-864 832,-896 928,-896" /><polygon points="928,-864 928,-864 832,-864 832,-864" /><polygon points="1024,-768 1024,-768 928,-864 928,-864" /><polygon points="832,-864 832,-864 736,-768 736,-768" /><polygon points="1024,-672 1024,-672 1024,-768 1024,-768" /><polygon points="1024,-672 1056,-672 1024,-640" /><polygon points="1056,-672 1024,-672 1024,-768 1056,-768" /><polygon points="928,-544 832,-544 832,-576 928,-576" /><polygon points="928,-576 1024,-672 1024,-640 928,-544" /><polygon points="832,-576 832,-576 928,-576 928,-576" /><polygon points="736,-672 704,-672 704,-768 736,-768" /><polygon points="832,-544 704,-672 736,-672 832,-576" /><polygon points="736,-768 736,-768 736,-672 736,-672" /><polygon points="736,-672 736,-672 832,-576 832,-576" /><polygon points="-352,-64 -352,-64 -288,-192 -288,-192" /><polygon points="-288,-192 -288,-192 -320,-224 -320,-224" /><polygon points="96,104 96,104 96,113 96,113" /><polygon points="-96,113 -96,113 -96,104 -96,104" /><polygon points="-96,113 -96,104 96,104 96,113" /><polygon points="-96,104 -96,104 96,104 96,104" /><polygon points="96,113 96,113 38.4,113 38.4,113" /><polygon points="112,-40 112,-40 112,-49 112,-49" /><polygon points="304,-49 304,-49 304,-40 304,-40" /><polygon points="304,-40 112,-40 112,-49 304,-49" /><polygon points="304,-40 304,-40 112,-40 112,-40" /><polygon points="112,-49 112,-49 169.6,-49 169.6,-49" /><polygon points="-464,304 -456,304 -448,304 -448,384 -464,384" /><polygon points="-464,304 -464,288 -456,288 -456,304" /><polygon points="-456,288 -464,288 -464,256 -448,256 -448,288" /><polygon points="-32,896 -256,896 -256,864 -176,864 -160,864 -32,864" /><polygon points="32,864 64,864 32,896 -32,896 -32,864" /><polygon points="-232,304 -336,304 -448,304 -456,304 -456,288 -448,288 -232,288" /><polygon points="-224,288 -160,288 -176,304 -232,304 -232,288" /><polygon points="-176,304 -160,288 -160,416 -160,512 -176,512" /><polygon points="-160,512 -160,640 -160,736 -176,736 -176,512" /><polygon points="-160,736 -160,864 -176,864 -176,736" /><polygon points="-320,112 -320,128 -448,256 -464,256" /><polygon points="-256,-320 -320,-320 -320,-384 -256,-384" /><polygon points="-256,-256 -256,-192 -288,-192 -320,-224 -320,-256 -320,-320 -256,-320" /><polygon points="-256,-416 -192,-416 -160,-416 -192,-384 -256,-384 -320,-384 -320,-416" /><polygon points="-24,-64 -160,-64 -172,-64 -256,-160 -256,-192 -256,-256 -216,-256" /><polygon points="-128,-448 -160,-448 -160,-608 -128,-608" /><polygon points="-192,-416 -160,-448 -128,-448 -160,-416" /><polygon points="-320,-416 -320,-608 -256,-608 -256,-416" /><polygon points="96,800 192,704 224,704 64,864 32,864" /><polygon points="352,704 224,704 192,704 192,640 256,640 288,640 352,640" /><polygon points="256,192 256,128 288,128 288,352 256,352" /><polygon points="288,352 288,576 256,576 256,416 256,352" /><polygon points="288,576 288,640 256,640 256,576" /><polygon points="-96,128 -112,128 -320,128 -320,112 -96,112" /><polygon points="128,128 112,128 96,128 -96,128 -96,112 128,112" /><polygon points="352,112 352,128 288,128 256,128 192,128 128,128 128,112" /><polygon points="528,-160 416,-48 416,-64 512,-160" /><polygon points="64,-48 -160,-48 -160,-64 -24,-64 32,-64 64,-64" /><polygon points="288,-48 64,-48 64,-64 192,-64 256,-64 288,-64" /><polygon points="304,-64 352,-64 416,-64 416,-48 288,-48 288,-64" /><polygon points="512,-256 512,-320 512,-336 512,-352 512,-368 512,-384 528,-384 528,-160 512,-160" /><polygon points="400,-400 352,-448 352,-576 352,-608 512,-608 512,-384 416,-384" /><polygon points="352,-576 320,-608 352,-608" /><polygon points="32,864 -32,864 -160,864 -160,864 32,864" /><polygon points="128,128 192,128 256,128 256,128 112,128 112,128" /><polygon points="32,-64 -24,-64 -24,-64 32,-64" /><polygon points="416,-64 352,-64 352,-64 416,-64" /><polygon points="256,-64 192,-64 64,-64 32,-64 32,-64 96,-64 256,-64" /><polygon points="-256,-256 -256,-320 -256,-320 -256,-256" /><polygon points="-256,-320 -256,-384 -256,-384 -256,-320" /><polygon points="512,-160 416,-64 416,-64 512,-160" /><polygon points="-216,-256 -256,-256 -256,-256 -216,-256" /><polygon points="-128,-448 -128,-608 -128,-608 -128,-448" /><polygon points="512,-368 512,-352 512,-352 512,-368" /><polygon points="512,-336 512,-320 512,-320 512,-336" /><polygon points="512,-352 512,-336 512,-336 512,-352" /><polygon points="512,-384 512,-368 512,-368 512,-384" /><polygon points="512,-320 512,-256 512,-256 512,-320" /><polygon points="416,-384 512,-384 512,-384 416,-384" /><polygon points="352,-576 352,-448 352,-448 352,-576" /><polygon points="320,-608 320,-608 96,-608 96,-608" /><polygon points="320,-608 352,-576 352,-576 320,-608" /><polygon points="-256,-384 -192,-384 -192,-384 -256,-384" /><polygon points="-192,-384 -160,-416 -128,-448 -128,-448 -192,-384" /><polygon points="512,-256 512,-160 512,-160 512,-256" /><polygon points="-24,-64 -216,-256 -216,-256 -24,-64" /><polygon points="192,640 192,704 192,704 192,640" /><polygon points="256,640 192,640 192,640 256,640" /><polygon points="256,416 256,576 256,640 256,640 256,416" /><polygon points="256,192 256,352 256,416 256,416 256,192" /><polygon points="-320,128 -320,128 -448,256 -448,256" /><polygon points="-224,288 -232,288 -448,288 -448,288 -224,288" /><polygon points="-160,288 -160,288 -160,416 -160,416" /></g></defs><rect fill="#fff" height="2150.0" id="background" width="2278.0" x="-1043.0" y="-1075.0" /><use fill="none" stroke="black" stroke-miterlimit="0" stroke-width="15" xlink:href="#bsp_ref" /><use fill="white" stroke="black" stroke-width="1" xlink:href="#bsp_ref" /></svg>