<svg viewBox="-230 -2214 2188 2444" xmlns="http://www.w3.org/2000/svg" xmlns:xlink="http://www.w3.org/1999/xlink"><defs><g id="a"><path d="m1776-1248v124z"/><path d="m1652-552 40-40 84-84-124 124-16 16z"/><path d="m1740-1248h-68-140l-16-16h112 112z"/><path d="m1760-1264 16 16h-36v-16z"/><path d="m1628-1264h-112-112v-124h224z"/><path d="m1672-1352 88 88h-20-112v-124h8z"/><path d="m1672-1056v-52-140h68 36v124 100h-104z"/><path d="m1776-1024v124 100h-76l-16-16-12-12v-4-192z"/><path d="m1776-800v76l-76-76z"/><path d="m1672-1248v140l-140-140z"/><path d="m1536-1092h120v48 8h-176l-56-56z"/><path d="m1656-1036v36h-4-44-164l20-20 16-16z"/><path d="m1312-1092h-52-116-56v-36-120h56 160 8z"/><path d="m1536-1092h-112-112v-156h200 4l20 20z"/><path d="m1656-1108v16h-120v-136z"/><path d="m1424-1076 40 40h-188v-40z"/><path d="m1464-1020-20 20h-60-108v-20z"/><path d="m968-1248h74v46h-64-10z"/><path d="m1042-1138v-64-46h46v120h-46z"/><path d="m978-1138h64v10h-64z"/><path d="m968-1202h10v64 10h-10z"/><path d="m968-1202v74h-48v-120h48z"/><path d="m968-1128h10 64 46v36h-168v-36z"/><path d="m1656-828h-4v-4-56-112h4z"/><path d="m1384-984 80 80h-80z"/><path d="m1464-904-80-80v-16h60 164v112h-128z"/><path d="m1608-1000h44v112h-44z"/><path d="m1464-888-40 40h-148v-40z"/><path d="m1480-888h128 44v56h-44-184z"/><path d="m1608-828h-224v-4h40 184z"/><path d="m1652-832v4h-44v-4z"/><path d="m1684-816h-12v-12z"/><path d="m1672-816h12l16 16 76 76v48l-84 84h-40v-68-136z"/><path d="m1692-592-40 40v-40z"/><path d="m1608-768-92 92h-100-32v-152h224z"/><path d="m1652-828h4v8 4l-48 48v-60z"/><path d="m1652-796v136h-136z"/><path d="m1192-536h-224v-124h224z"/><path d="m1416-536h-24-200v-124h224z"/><path d="m1516-660h136v68 40l-16 16h-20-200v-124z"/><path d="m1276-1000h108v16 80h-108z"/><path d="m1192-676h-224v-56-72-28h208 16z"/><path d="m1260-832h124v4 152h-192v-156z"/><path d="m952-832h16v28h-180v-20-8z"/><path d="m788-804h180v72h-180-16v-72z"/><path d="m788-824v20h-16v-20z"/><path d="m704-832h40v8h-40z"/><path d="m744-732h-40v-92h40 28v20 72z"/><path d="m968-732v56h-180v-8-48z"/><path d="m772-732h16v48h-44v-48z"/><path d="m744-732v48 8h-40v-56z"/><path d="m1636-536h-20z"/><path d="m744-676h-40z"/><path d="m968-676h-16-4-20-8-20-8-20-4-20-8-20-8-20-4z"/><path d="m1516-676h-4-96z"/><path d="m1608-768 48-48-4 4-132 132-4 4z"/><path d="m1672-832v4 12z"/><path d="m1672-1056v32 192z"/><path d="m1312-1092h112-152-12z"/><path d="m1260-1092h-116z"/><path d="m1516-1264h-112z"/><path d="m1672-1352-36-36z"/><path d="m1144-1248h-56-46-74-48 140 28z"/><path d="m1516-1248h-4z"/><path d="m1656-1108v16z"/><path d="m1176-832h-208-16z"/><path d="m1276-1076v40z"/><path d="m1276-888v40z"/><path d="m1464-1036h-188z"/><path d="m1464-1020 16-16z"/><path d="m1384-904h80-188z"/><path d="m1424-848h-148z"/><path d="m952-832h-164 4 20 8 20 8 20 4 20 8 20 8 20z"/><path d="m788-684h-44z"/><path d="m704-832h40z"/><path d="m1192-660h-224z"/><path d="m1416-660h-224 192z"/><path d="m1042-1202v64z"/><path d="m1042-1138h-64z"/><path d="m978-1138v-64z"/><path d="m978-1202h64z"/><path d="m978-1138v-64h64v64z"/><path d="m704-676h40-72z"/><path d="m744-832v8z"/><path d="m664-832h8 32v156h-32-8z"/><path d="m672-832h-8z"/><path d="m704-832v8 92 56z"/><path d="m1380-676h-188z"/><path d="m1192-676h-224z"/><path d="m1416-676h-36-188 192z"/><path d="m1656-820v4z"/><path d="m1652-816v4l4-4v-4z"/><path d="m1520-680 132-132v-4l-136 136z"/><path d="m1516-676 4-4h-4l-4 4z"/><path d="m1272-1092h-12z"/><path d="m1656-1108-4-4v4 16h4z"/><path d="m1652-1112-136-136h-4l140 140z"/><path d="m1424-1092h4l-4-4h-148l-4 4z"/><path d="m1652-1108v16z"/><path d="m1424-1096h-148z"/><path d="m1652-1112 4 4-120-120-20-20z"/><path d="m1652-1092v52 172h4v-176-48z"/><path d="m1652-868v52l4-4v-48z"/><path d="m1656-1044v176 48-8-172-36z"/><path d="m1656-1092v48z"/><path d="m1272-832h152-40-124z"/><path d="m1272-832h-12z"/><path d="m1276-908v-8-92-8-4 20 96z"/><path d="m1428-1092 56 56z"/><path d="m1424-1092 56 56z"/><path d="m1428-1092h-4l56 56h4z"/><path d="m1484-1036h-4l-16 16h4z"/><path d="m1280-1016h184l4-4h-4-188v4z"/><path d="m1468-1020-4 4 4-4 16-16z"/><path d="m1464-1020h-188z"/><path d="m1460-908h4-4-180z"/><path d="m1280-1012v-4z"/><path d="m1280-908v-4z"/><path d="m1280-908v-4l-4-4v8z"/><path d="m1280-1012v-4h-4v8z"/><path d="m1276-1008 4-4z"/><path d="m1280-912-4-4z"/><path d="m1464-904-4-4h-180-4v4z"/><path d="m1484-888-20-20h-4l4 4 16 16z"/><path d="m1464-904 16 16z"/><path d="m1480-888-56 56z"/><path d="m1484-888h-4l-56 56h4z"/><path d="m1424-828 4-4h-4-152l4 4z"/><path d="m1272-832 4 4z"/><path d="m1384-680h132z"/><path d="m1516-680h-132l-4 4h36 96z"/><path d="m1380-676 4-4z"/><path d="m1776-900v84 140-48-76z"/><path d="m1776-1124v188 16 20-124z"/><path d="m1776-1248v124z"/><path d="m1652-552 124-124-140 140z"/><path d="m1652-796 20-20-20 20-136 136z"/><path d="m1616-536h-224 24z"/><path d="m1636-536h-20z"/><path d="m1672-816h104v-84-20z"/><path d="m1776-920v20 84h-104z"/><path d="m1672-816h104v140l-124 124v-108-136z"/><path d="m1776-676v-140h-104l-20 20v136 108z"/><path d="m1652-796-136 136h136z"/><path d="m1652-796v136h-136z"/><path d="m1652-660v108l-16 16h-20-224l124-124z"/><path d="m1616-536h20l16-16v-108h-136l-124 124z"/><path d="m672-676h-8z"/><path d="m1672-832v16z"/><path d="m1672-832v16l104-104v-16z"/><path d="m1776-936v16l-104 104v-16z"/><path d="m1672-1056v224-4-32z"/><path d="m1672-1108v52z"/><path d="m1776-1124v-124l-16-16h-88v156 52 224l104-104z"/><path d="m1672-1056v-52-156h88l16 16v124 188l-104 104z"/><path d="m1760-1264h-88v-88z"/><path d="m1760-1264-88-88v88z"/><path d="m1760-1264 16 16-16-16-88-88z"/><path d="m1636-1388h-8-224z"/><path d="m1516-1264h-112z"/><path d="m1404-1388v124z"/><path d="m1672-1264h-156-112v-124h232l36 36z"/><path d="m1672-1352-36-36h-232v124h112 156z"/><path d="m1672-1352-36-36z"/><path d="m1532-1248-16-16 16 16 140 140z"/><path d="m1672-1108-140-140z"/><path d="m1672-1264h-156l16 16 140 140z"/><path d="m1532-1248-16-16h156v156z"/><path d="m1276-1076v40-20z"/><path d="m1276-888v40z"/><path d="m1464-1036h-188z"/><path d="m1424-1076 40 40h-188v-40z"/><path d="m1464-1036-40-40h-148v40z"/><path d="m1424-1076h-148z"/><path d="m1424-1076 40 40z"/><path d="m1464-888h-188z"/><path d="m1464-888-40 40h-148v-40z"/><path d="m1424-848 40-40h-188v40z"/><path d="m1424-848h-148z"/><path d="m1424-848 40-40z"/><path d="m1464-888-40 40z"/><path d="m624-832h40v156h-40z"/><path d="m664-832v156z"/><path d="m968-660v124z"/><path d="m1192-536h-224z"/><path d="m1392-536h-200z"/><path d="m1392-536h-200-224v-124h224 192 32 100z"/><path d="m1516-660h-100-32-192-224v124h224 200z"/><path d="m1192-660h-224z"/><path d="m1516-660h-100z"/><path d="m1532-676 140-140-20 20-136 136z"/><path d="m1192-676h-224z"/><path d="m1380-676h4-192z"/><path d="m1520-680 136-136h16l-140 140h-16z"/><path d="m1672-832v16h-16z"/><path d="m1672-1092v-16 52z"/><path d="m1652-816-136 136z"/><path d="m1516-680h4l-4 4h-4z"/><path d="m1652-816 4-4v4l-136 136h-4z"/><path d="m1672-836v4l-16 16v-4z"/><path d="m1532-1248-16-16z"/><path d="m1304-1248h-160 132z"/><path d="m1512-1248h-200-8z"/><path d="m1424-1096 4 4h-4-16-132-4l4-4z"/><path d="m1656-1108h-4l-140-140h4z"/><path d="m1656-1108h16v16h-16z"/><path d="m1672-1108h-16l-140-140h16z"/><path d="m1652-1108h4v16h-4z"/><path d="m1272-1092 4-4z"/><path d="m1512-1248 140 140z"/><path d="m1424-1096 4 4z"/><path d="m1652-1040v172 52-52z"/><path d="m1652-1092v52z"/><path d="m1656-1092v224h-4v-172-52z"/><path d="m1656-868v48l-4 4v-52z"/><path d="m1672-1092v36 188h-16v-224z"/><path d="m1672-868v32l-16 16v-48z"/><path d="m1424-828h-148z"/><path d="m1428-832 56-56-56 56-4 4z"/><path d="m1272-832h-12 16z"/><path d="m1276-1056v20 16 4 8 92 8 4 16 40 16-168z"/><path d="m1276-1008v92z"/><path d="m1464-1016h-184z"/><path d="m1464-1020h4l-4 4h-184-4v-4z"/><path d="m1424-1092 56 56h-16l-40-40-16-16z"/><path d="m1408-1092 16 16h-148v-16z"/><path d="m1464-1036h16l-16 16h-188v-16z"/><path d="m1428-1092 56 56h-4l-56-56z"/><path d="m1484-1036-16 16h-4l16-16z"/><path d="m1424-1076h-148z"/><path d="m1464-1036-40-40z"/><path d="m1276-908v-8l4 4v4z"/><path d="m1276-1008v-8h4v4z"/><path d="m1464-904-4-4h4l20 20h-4z"/><path d="m1424-848-16 16h-132v-16z"/><path d="m1480-888-56 56h-16l16-16 40-40z"/><path d="m1464-904 16 16h-16-188v-16z"/><path d="m1280-908h180l4 4h-188v-4z"/><path d="m1484-888-56 56h-4l56-56z"/><path d="m1464-888h-188z"/><path d="m1464-908 20 20z"/><path d="m1276-832h132 16 4l-4 4h-148l-4-4z"/><path d="m1384-680h132l-4 4h-128-4z"/><path d="m1384-676v16z"/><path d="m1512-676h4 16l-16 16h-132v-16z"/><path d="m1516-660h-100-32z"/><path d="m672-676h-48 40z"/><path d="m624-676h48-88z"/><path d="m672-832h-8-40z"/><path d="m624-832v156z"/><path d="m584-832h40v156h-40z"/><path d="m584-832h-40z"/><path d="m544-832h40v156h-40z"/><path d="m584-832v156z"/><path d="m544-676h-32-8z"/><path d="m1212-1688v-8h12v8z"/><path d="m1212-1696h12z"/><path d="m1180-1688v-8h12v8z"/><path d="m1160-1696v8h-12v-8z"/><path d="m1180-1696h12z"/><path d="m1148-1696h12z"/><path d="m544-832v156z"/><path d="m504-832h8 32v156h-40z"/><path d="m744-684v8z"/><path d="m744-676v-8-16 8z"/><path d="m788-832v8z"/><path d="m788-684v8z"/><path d="m788-824h-16-28z"/><path d="m788-684v-16h-44v16z"/><path d="m664 48h32-40z"/><path d="m584-676h-40z"/><path d="m316-832v32z"/><path d="m512-832h16 56-40z"/><path d="m504-832h8z"/><path d="m504-832v156z"/><path d="m316-724v-76-32h156 32v156h-188z"/><path d="m744-424v-96 120z"/><path d="m620-648h64z"/><path d="m568-468v-180h16 36 64 60v128 96h-176z"/><path d="m744-424v24h-48-36-92v-24z"/><path d="m776-284h-16-64v-28-72z"/><path d="m696-384 80 100z"/><path d="m696-400v16 72l-40-40v-32-12l4-4z"/><path d="m656-352 40 40v28h-32-160-16l80-100h56z"/><path d="m656-396v12h-12z"/><path d="m660-400-4 4-12 12h-20-56v-16z"/><path d="m644-384h12v32l-32-32z"/><path d="m568-400v16z"/><path d="m504-32-16-20h16z"/><path d="m472-120h-52l-24-24v-44l4-4z"/><path d="m472-120-72-72 20-20h52 16v108z"/><path d="m608 48h-16v-16h16z"/><path d="m664 48h-8v-16h8z"/><path d="m592 12v-80h8 64v16 84h-8-48-16z"/><path d="m539.2 12-35.2-44v-20-44-116h88v80 64 80z"/><path d="m592 32v16h-24l-28.8-36h52.8z"/><path d="m600-68h-8v-64h8z"/><path d="m592-212h72v20 52 8h-64-8z"/><path d="m472-212 16-16v16z"/><path d="m488-104v-108-16-12h16v28 116h-16z"/><path d="m504-240v-44h160v72h-72-88z"/><path d="m696 48h-32v-16-84h96 16z"/><path d="m664-68v-64-8h96v44 44h-96z"/><path d="m776-140v32 12h-16v-44z"/><path d="m760-140h-96v-52h96 16v52z"/><path d="m868-192v44l-24 24h-52l68-68z"/><path d="m792-124-16 16v-32-52h40 44z"/><path d="m760-240v48h-96v-20-72h32 64z"/><path d="m776-192v-40l16 16 24 24z"/><path d="m760-240h16v8 40h-16z"/><path d="m868-192h-8-44l-24-24h52z"/><path d="m760-96v44z"/><path d="m488-240v12z"/><path d="m776-52-80 100z"/><path d="m504-32 35.2 44 28.8 36-80-100z"/><path d="m672-676h72-56-16-52-36z"/><path d="m744-692v-8 24z"/><path d="m744-808v-16 8z"/><path d="m744-832v24-8-8z"/><path d="m744-700v-108-8 8 8 16 60 16 8 8z"/><path d="m788-808v-24 8z"/><path d="m788-700v16 8-16z"/><path d="m788-808h-44v108h44z"/><path d="m788-808v-16h-44v16z"/><path d="m744-832h-40-32z"/><path d="m672-832h-48-40z"/><path d="m664-140h8-80z"/><path d="m592-68v-64-8 80z"/><path d="m664-132v64z"/><path d="m664-132v64 8h8v-80h-8z"/><path d="m600-132h64z"/><path d="m664-140h-72v8h8 64z"/><path d="m664-68h-64z"/><path d="m600-68v-64z"/><path d="m592-132v64h8v-64z"/><path d="m600-68h-8v8h72v-8z"/><path d="m1060-1120v-8h-8-84-8v8z"/><path d="m968-1212v-8h-8v92h8z"/><path d="m1060-1128v-92h-8v8 84z"/><path d="m1052-1212v-8h-84v8z"/><path d="m968-1220h84 8-100z"/><path d="m968-1128v-8-68-8z"/><path d="m1052-1128h-8-68-8z"/><path d="m960-1128v-92 100z"/><path d="m744-784v52 8z"/><path d="m788-808v108 8-8z"/><path d="m788-808v-24z"/><path d="m788-676v-24 8z"/><path d="m1776-900v204 20-140z"/><path d="m1776-1124v100 24 64 16 20-20-16z"/><path d="m840-400h-12z"/><path d="m744-400h-48z"/><path d="m1616-536h-224z"/><path d="m1532-676-140 140h224v-160-64z"/><path d="m1776-696v-204-20l-36 36-124 124v64z"/><path d="m1616-536h20l140-140v-20h-160z"/><path d="m1192-676h-16-208z"/><path d="m1672-832-156 156h16l84-84 124-124v-16z"/><path d="m1740-884 36-36v-16l-36 36z"/><path d="m1760-1264-88-88v88z"/><path d="m1776-1248-16-16h-88v16z"/><path d="m1776-1024v-100-124h-104v140 16 68z"/><path d="m1776-1000v-24h-104v24z"/><path d="m1776-1000h-104v164 4l68-68 36-36z"/><path d="m1760-1264 16 16-16-16-88-88z"/><path d="m1608-772-96 96h4l156-156v-4z"/><path d="m1260-1092h12 4z"/><path d="m1144-1092h-56-28-140 168z"/><path d="m920-1120v-100-28 120 36z"/><path d="m1628-1388h8-232z"/><path d="m1404-1388v124z"/><path d="m1628-1388h-224v124h112 112z"/><path d="m1672-1352-36-36h-8v124h44z"/><path d="m1672-1264h-44-112l16 16h140z"/><path d="m1672-1248h-140l140 140z"/><path d="m1500-1248h32-16-4-208z"/><path d="m1060-1220v92 8z"/><path d="m1500-1248h-196-28v156h224z"/><path d="m1532-1248h-32v156h172v-16z"/><path d="m1276-1248h-132-56v28 128h56 116 16z"/><path d="m1088-1220h-28v100 28h28z"/><path d="m1088-1220v-28h-28v28z"/><path d="m1060-1120h-100z"/><path d="m1060-1248h-140v28h40 100z"/><path d="m960-1220h-40v100h40z"/><path d="m1060-1092v-28h-100-40v28z"/><path d="m316-832v32-64z"/><path d="m1176-832h-224v48 8 100h16 208z"/><path d="m1192-676h192v-100-56h-108-16-84v156z"/><path d="m1384-1000h-108v168h108z"/><path d="m1608-1000h-108-116v168 56h224z"/><path d="m1384-776v100h128l96-96v-4z"/><path d="m1672-1000h-64v224 4l64-64z"/><path d="m1276-1092v36 56h108 116v-92z"/><path d="m1500-1000h108 64v-24-68h-172z"/><path d="m1260-832h-68-16z"/><path d="m1276-1092v16 20z"/><path d="m472-876h-156z"/><path d="m788-724v-8-44-8-20-8-20 24 108 24z"/><path d="m812-832h-20z"/><path d="m840-832h-20z"/><path d="m868-832h-20z"/><path d="m892-832h-20z"/><path d="m920-832h-20z"/><path d="m948-832h-20z"/><path d="m820-696v20z"/><path d="m820-724v20z"/><path d="m820-752v20z"/><path d="m820-776v20z"/><path d="m820-804v20z"/><path d="m820-832v20z"/><path d="m948-776h-20z"/><path d="m892-776h-20z"/><path d="m920-776h-20z"/><path d="m840-776h-20z"/><path d="m868-776h-20z"/><path d="m840-804v20h8v-20z"/><path d="m840-832v20h8v-20z"/><path d="m840-776h8 20 4 20 8 20 8 20 4v-8h-4-20-8-20-8-20-4-20-8-20v8z"/><path d="m920-804v20h8v-20z"/><path d="m868-804v20h4v-20z"/><path d="m892-804v20h8v-20z"/><path d="m892-832v20h8v-20z"/><path d="m840-804h8 20 4 20 8 20 8 20v-8h-20-8-20-8-20-4-20-8-20v8z"/><path d="m868-832v20h4v-20z"/><path d="m952-832h-4v20 8 20h4z"/><path d="m920-832v20h8v-20z"/><path d="m892-784v-20z"/><path d="m892-812v-20z"/><path d="m920-804h-20z"/><path d="m948-804h-20z"/><path d="m920-812v-20z"/><path d="m928-832v20z"/><path d="m928-812h20z"/><path d="m900-812h20z"/><path d="m900-832v20z"/><path d="m920-784v-20z"/><path d="m928-804v20z"/><path d="m928-784h20z"/><path d="m900-804v20z"/><path d="m900-784h20z"/><path d="m848-804v20z"/><path d="m848-832v20z"/><path d="m848-812h20z"/><path d="m872-812h20z"/><path d="m872-832v20z"/><path d="m868-812v-20z"/><path d="m872-804v20z"/><path d="m872-784h20z"/><path d="m892-804h-20z"/><path d="m848-784h20z"/><path d="m868-804h-20z"/><path d="m868-784v-20z"/><path d="m820-812h20z"/><path d="m840-812v-20z"/><path d="m840-804h-20z"/><path d="m840-784v-20z"/><path d="m820-784h20z"/><path d="m848-752v20z"/><path d="m848-776v20z"/><path d="m848-724v20z"/><path d="m848-696v20z"/><path d="m892-756h-20v4h20z"/><path d="m920-776v20h8v-20z"/><path d="m928-696v-8-20-8-20h-8v20 8 20 8 20h8z"/><path d="m900-752v-4-20h-8v20 4 20h8z"/><path d="m920-752h8 20v-4h-20-8-20v4z"/><path d="m872-752v-4-20h-4v20 4 20h4z"/><path d="m952-776h-4v20 4 20 8 20 8 20h4z"/><path d="m868-756h-20v4h20z"/><path d="m928-724h20v-8h-20z"/><path d="m948-696v-8h-20v8z"/><path d="m868-724h4 20 8 20v-8h-20-8-20-4-20v8z"/><path d="m920-704h-20v8h20z"/><path d="m892-704v8 20h8v-20-8-20h-8z"/><path d="m892-704h-20v8h20z"/><path d="m868-704v8 20h4v-20-8-20h-4z"/><path d="m868-704h-20v8h20z"/><path d="m900-696v20z"/><path d="m900-724v20z"/><path d="m900-752v20z"/><path d="m900-776v20z"/><path d="m920-724h-20z"/><path d="m948-724h-20z"/><path d="m928-776v20z"/><path d="m928-752v20z"/><path d="m948-752h-20z"/><path d="m928-756h20z"/><path d="m928-732h20z"/><path d="m920-752h-20z"/><path d="m900-756h20z"/><path d="m920-756v-20z"/><path d="m900-732h20z"/><path d="m920-732v-20z"/><path d="m928-696v20z"/><path d="m928-724v20z"/><path d="m948-696h-20z"/><path d="m928-704h20z"/><path d="m920-696h-20z"/><path d="m900-704h20z"/><path d="m920-704v-20z"/><path d="m920-676v-20z"/><path d="m868-724h-20z"/><path d="m892-724h-20z"/><path d="m872-776v20z"/><path d="m872-752v20z"/><path d="m892-752h-20z"/><path d="m872-756h20z"/><path d="m892-756v-20z"/><path d="m872-732h20z"/><path d="m892-732v-20z"/><path d="m868-752h-20z"/><path d="m848-756h20z"/><path d="m868-756v-20z"/><path d="m848-732h20z"/><path d="m868-732v-20z"/><path d="m848-704h20z"/><path d="m872-704h20z"/><path d="m868-704v-20z"/><path d="m872-724v20z"/><path d="m892-704v-20z"/><path d="m868-676v-20z"/><path d="m872-696v20z"/><path d="m892-696h-20z"/><path d="m892-676v-20z"/><path d="m868-696h-20z"/><path d="m848-696v-8-20-8-20-4-20h-8v20 4 20 8 20 8 20h8z"/><path d="m840-756h-20v4h20z"/><path d="m820-724h20v-8h-20z"/><path d="m840-704h-20v8h20z"/><path d="m840-724h-20z"/><path d="m840-752h-20z"/><path d="m820-756h20z"/><path d="m840-756v-20z"/><path d="m820-732h20z"/><path d="m840-732v-20z"/><path d="m840-696h-20z"/><path d="m820-704h20z"/><path d="m840-704v-20z"/><path d="m840-676v-20z"/><path d="m820-696v-8-20-8-20-4-20-8-20-8-20h-8v20 8 20 8 20 4 20 8 20 8 20h8z"/><path d="m792-812h-4v8h4 20v-8z"/><path d="m788-832v20h4v-20z"/><path d="m792-784h-4v8h4 20v-8z"/><path d="m788-804v20h4v-20z"/><path d="m792-752v-4-20h-4v44h4z"/><path d="m812-756h-20v4h20z"/><path d="m792-696v-8-20h-4v48h4z"/><path d="m792-732h-4v8h4 20v-8z"/><path d="m812-704h-20v8h20z"/><path d="m792-756h20z"/><path d="m792-784h20z"/><path d="m812-804h-20z"/><path d="m812-812v-20z"/><path d="m792-832v20z"/><path d="m792-812h20z"/><path d="m812-784v-20z"/><path d="m792-804v20z"/><path d="m812-776h-20z"/><path d="m812-756v-20z"/><path d="m792-776v20z"/><path d="m812-724h-20z"/><path d="m792-732h20z"/><path d="m812-732v-20z"/><path d="m812-752h-20z"/><path d="m792-752v20z"/><path d="m792-704h20z"/><path d="m812-704v-20z"/><path d="m792-724v20z"/><path d="m812-676v-20z"/><path d="m812-696h-20z"/><path d="m792-696v20z"/><path d="m472-832h40-8z"/><path d="m472-832h-156z"/><path d="m472-876v12 32z"/><path d="m472-832h-156v-32-12h156z"/><path d="m968-660v124z"/><path d="m1192-536h-224z"/><path d="m1392-536h-8-192z"/><path d="m1516-676h-4-128v16 124h8l140-140z"/><path d="m1384-660h-192z"/><path d="m1192-660h-224v124h224z"/><path d="m1384-536v-124h-192v124z"/><path d="m788-520h164z"/><path d="m744-520h44 164v52 68h-12-18-64-18-12-84z"/><path d="m940-384v-16z"/><path d="m940-326v-58 68z"/><path d="m940-316h-100v-10h18 64 18z"/><path d="m858-390v64h-18v-74h18z"/><path d="m858-400h64v10h-64z"/><path d="m922-390v-10h18v16 58h-18z"/><path d="m672-140v80z"/><path d="m672-140v80h-80v-80z"/><path d="m672-60h-8-72z"/><path d="m952-520v52z"/><path d="m788-520h164z"/><path d="m922-326h-64z"/><path d="m858-326v-64z"/><path d="m858-326v-64h64v64z"/><path d="m922-390v64z"/><path d="m858-390h64z"/><path d="m316-676h188 8z"/><path d="m512-676h32 40-56z"/><path d="m584-648h-16z"/><path d="m584-648h36z"/><path d="m812-676h-20z"/><path d="m840-676h-20z"/><path d="m868-676h-20z"/><path d="m892-676h-20z"/><path d="m920-676h-20z"/><path d="m948-676h-20z"/><path d="m472-1092h-76-68z"/><path d="m968-1128h8z"/><path d="m976-1212h68 8-84z"/><path d="m1052-1212h-8z"/><path d="m1052-1204v68 8-84z"/><path d="m552-1408h-224z"/><path d="m624-1408v92z"/><path d="m328-1184v-64-16-144h224v224z"/><path d="m552-1092h-72-8-144v-92h224z"/><path d="m624-1408v92 132h-72v-224z"/><path d="m624-1184v92h-32-8-32v-92z"/><path d="m316-864v-12z"/><path d="m316-876v12-36z"/><path d="m316-976v-24z"/><path d="m952-1000v12 88z"/><path d="m816-1000h-52-172 32 16 60 16 56 16z"/><path d="m592-1076v60h-8v-60z"/><path d="m584-1076v60 16h-44-60v-16-60-16h72 32z"/><path d="m480-1016h-8v-60h8z"/><path d="m764-876h24-16-56-16-60-16-40z"/><path d="m540-876h-68-156v-24-6-70-24h156 8 60z"/><path d="m764-876h-180-44v-124h44 8 172z"/><path d="m816-1000h136v100 24h-164-24v-124z"/><path d="m928-696v20h-8v-20z"/><path d="m952-696v20h-4v-20z"/><path d="m792-696v20h-4v-20z"/><path d="m840-724h-20v-8h20z"/><path d="m892-724h-20v-8h20z"/><path d="m920-724h-20v-8h20z"/><path d="m948-724h-20v-8h20z"/><path d="m868-724h-20v-8h20z"/><path d="m812-724h-20v-8h20z"/><path d="m848-696v20h-8v-20z"/><path d="m872-696v20h-4v-20z"/><path d="m820-696v20h-8v-20z"/><path d="m900-696v20h-8v-20z"/><path d="m952-696h-4-20-8-20-8-20-4-20-8-20-8-20-4v-8h4 20 8 20 8 20 4 20 8 20 8 20 4z"/><path d="m952-752h-4-20-8-20-8-20-4-20-8-20-8-20-4v-4h4 20 8 20 8 20 4 20 8 20 8 20 4z"/><path d="m900-832v20 8 20 8 20h-8v-20-8-20-8-20z"/><path d="m920-724v-8-20h8v20 8 20h-8z"/><path d="m820-832v20 8 20 8 20h-8v-20-8-20-8-20z"/><path d="m872-832v20 8 20 8 20h-4v-20-8-20-8-20z"/><path d="m948-724v-8-20h4v48h-4z"/><path d="m848-832v20 8 20 8 20h-8v-20-8-20-8-20z"/><path d="m788-752h4v20 8 20h-4z"/><path d="m840-776h-20v-8h20z"/><path d="m892-776h-20v-8h20z"/><path d="m920-776h-20v-8h20z"/><path d="m840-804h-20v-8h20z"/><path d="m892-804h-20v-8h20z"/><path d="m920-804h-20v-8h20z"/><path d="m952-832h-4-20-8-20-8-20-4-20-8-20-8-20-4v-44h164z"/><path d="m948-804h-20v-8h20z"/><path d="m868-804h-20v-8h20z"/><path d="m812-804h-20v-8h20z"/><path d="m948-776h-20v-8h20z"/><path d="m868-776h-20v-8h20z"/><path d="m812-776h-20v-8h20z"/><path d="m792-832v20 8 20 8 20h-4v-76z"/><path d="m840-724v-8-20h8v20 8 20h-8z"/><path d="m952-832v76h-4v-20-8-20-8-20z"/><path d="m868-724v-8-20h4v20 8 20h-4z"/><path d="m812-724v-8-20h8v20 8 20h-8z"/><path d="m928-832v20 8 20 8 20h-8v-20-8-20-8-20z"/><path d="m892-724v-8-20h8v20 8 20h-8z"/><path d="m948-832v20z"/><path d="m948-804v20z"/><path d="m948-776v20z"/><path d="m948-752v20z"/><path d="m948-724v20z"/><path d="m948-696v20z"/><path d="m300-1000h-14-64-14z"/><path d="m286-1000h14v24h-14z"/><path d="m300-906h-14v-64-6h14 16v70z"/><path d="m286-976v6h-64v-30h64z"/><path d="m222-970v64h-14v-94h14z"/><path d="m300-900v24h-92v-30h14 64 14z"/><path d="m316-906v6h-16v-6z"/><path d="m300-876v-24z"/><path d="m952-468v16 52z"/><path d="m788-676h4 20 8 20 8 20 4 20 8 20 8 20 4v156h-164z"/><path d="m788-676v156-16-64-16-44z"/><path d="m684-648h60z"/><path d="m620-648v-12h64v12z"/><path d="m222-906v-64h64v64z"/><path d="m222-970h64z"/><path d="m286-906h-64z"/><path d="m222-906v-64z"/><path d="m286-970v64z"/><path d="m1032-1876h-224z"/><path d="m660-1092h16z"/><path d="m624-1092h-20-12z"/><path d="m1404-1876v28 48 104h-32-108-8v-180z"/><path d="m1240-1684h24 108 32v176h-112-100v-176z"/><path d="m1372-1696v12h-108v-12z"/><path d="m1068-1404h-16-64-80-64v-104h224z"/><path d="m1292-1404h-16-80-64-32-32v-104h80 44 100z"/><path d="m1404-1508v104h-64-48v-104z"/><path d="m1128-1876h88 32v180h-8-16-12-20-12-20-12-16-32v-180z"/><path d="m1240-1688h-16v-8h16z"/><path d="m1192-1688v-8h20v8z"/><path d="m1192-1688h20 12 16v4h-48z"/><path d="m1192-1684v176h-44v-56-120-4h12 20 12z"/><path d="m1148-1564h-48v-120h32 16z"/><path d="m1132-1696h16v8 4h-16z"/><path d="m1068-1508h-224v-56h224z"/><path d="m1084-1564h16 48v56h-80v-56z"/><path d="m1160-1688v-8h20v8z"/><path d="m1032-1760h-224v-116h224z"/><path d="m1084-1876v116h-52v-116z"/><path d="m948-1744h136v60 64h-136z"/><path d="m632-1564h144v44h-152-72v-44z"/><path d="m776-1520v-44h16v64h-16z"/><path d="m792-1500v-64h44 8v56 104h-52z"/><path d="m524-1604h28v40 44h-224v-12-72z"/><path d="m624-1316v-92-112h152v20 52 104 32h-100-52z"/><path d="m624-1312h52v220h-16-36z"/><path d="m552-1408h-224v-112h224z"/><path d="m624-1520v112h-72v-112z"/><path d="m1404-1848v48z"/><path d="m1404-1508v-176 4 4z"/><path d="m1100-1564v-112-8z"/><path d="m1196-1404h-64z"/><path d="m1292-1404h48-64z"/><path d="m552-1604h-28z"/><path d="m1084-1684v-60z"/><path d="m1084-1876v116z"/><path d="m1084-1760h-52z"/><path d="m948-1620h136z"/><path d="m1052-1404h-64z"/><path d="m908-1404h-64z"/><path d="m792-1404v-96z"/><path d="m844-1564h-8z"/><path d="m792-1564h-16-144 144z"/><path d="m776-1500v52z"/><path d="m776-1312v-32z"/><path d="m1052-1128v-8-68-8z"/><path d="m676-1312v220z"/><path d="m1192-1688v-8z"/><path d="m1224-1688v-8z"/><path d="m1212-1696v8z"/><path d="m1224-1688h-12z"/><path d="m1180-1696v8z"/><path d="m1192-1688h-12z"/><path d="m1148-1696v8z"/><path d="m1160-1688v-8z"/><path d="m1160-1688h-12z"/><path d="m968-1212v8z"/><path d="m968-1136v8z"/><path d="m968-1204v68z"/><path d="m1044-1128h8z"/><path d="m976-1128h68z"/><path d="m1044-1212h-68z"/><path d="m976-1212h-8z"/><path d="m1052-1128v-8z"/><path d="m1052-1204v-8z"/><path d="m1052-1136v-68z"/><path d="m624-1408h-72z"/><path d="m624-1316v4 220-92z"/><path d="m328-1248v64 92z"/><path d="m328-1264v16z"/><path d="m328-1408v144z"/><path d="m1212-1696v8h12v-8z"/><path d="m1180-1696v8h12v-8z"/><path d="m1148-1696v8h12v-8z"/><path d="m948-1620v-124z"/><path d="m948-1620h136z"/><path d="m948-1744v124h136v-124z"/><path d="m836-1564h-44z"/><path d="m632-1564h-80z"/><path d="m1216-1876h32z"/><path d="m1216-1876h-88z"/><path d="m1216-1888v12h-88v-12z"/><path d="m948-1620v-124h12v124z"/><path d="m960-1736v-8h40v8z"/><path d="m1084-1628h-84v-116h84z"/><path d="m960-1668v-28h8v28z"/><path d="m960-1620v-8h124v8z"/><path d="m968-1696h-8z"/><path d="m960-1628h40z"/><path d="m1084-1744v124z"/><path d="m948-1744h136z"/><path d="m744-724v16z"/><path d="m744-708v32-24z"/><path d="m744-800v-8-24z"/><path d="m744-800v16z"/><path d="m212-2032h-80 24z"/><path d="m632-2032h76 24 60z"/><path d="m1208-1876h-4z"/><path d="m1204-1876h-68 4z"/><path d="m1140-1884h64z"/><path d="m1208-1884v8z"/><path d="m1204-1876h4v-8h-4-64-4v8z"/><path d="m792-2032v116h-8-152v-116z"/><path d="m792-1916v24h-8v-24z"/><path d="m632-1892v-24h152v24 16h-152z"/><path d="m608-1892h-164z"/><path d="m0-1930h-12v-64h12z"/><path d="m-12-2032h76v38h-64-12z"/><path d="m288-1930h-76-148v-64-38h68 80 76z"/><path d="m512-1930h-76-148v-102h132 24 68z"/><path d="m608-2032v102h-96v-102z"/><path d="m212-1892h-116-8-100v-38h12 64 148z"/><path d="m436-1892h-216-8v-38h76 148z"/><path d="m512-1930h96v38h-164-8v-38z"/><path d="m632-1916v24h-8-16v-38-102h24z"/><path d="m96-1892h116v16h-116z"/><path d="m960-1092h100 28-72-108z"/><path d="m660-1092h-36z"/><path d="m220-1876v164z"/><path d="m948-1744h136z"/><path d="m792-1876v90 26z"/><path d="m624-1768v-100-8h8v116h-8z"/><path d="m784-1876v116 16h-152v-16-116z"/><path d="m784-1876h8v116h-8z"/><path d="m624-1744h8v124 16h-8z"/><path d="m632-1604v-16h152 8v16z"/><path d="m784-1744v124h-152v-124z"/><path d="m792-1744h156v124h-104-52-8v-124z"/><path d="m948-1744v124z"/><path d="m608-1786v-64-18h16v100h-16z"/><path d="m504-1760v-26h24 64 16v18 8z"/><path d="m504-1876h24v26 64h-24z"/><path d="m608-1850v64h-16v-64z"/><path d="m608-1876v8 18h-16-64v-26z"/><path d="m552-1604v40z"/><path d="m1084-1564h16z"/><path d="m1084-1564h-16-224z"/><path d="m836-1564h-44z"/><path d="m844-1564h-8-44 47.1837z"/><path d="m776-1564h16z"/><path d="m632-1564h144z"/><path d="m792-1576-16 12h-144v-40h160z"/><path d="m552-1564v-40h72 8v40z"/><path d="m776-1248h16z"/><path d="m1016-1248h-56-56-60-52z"/><path d="m960-1128v-92 8 84 8z"/><path d="m1060-1220h-100z"/><path d="m1016-1248h72v28h-28-100v-28z"/><path d="m1060-1120v-100h28v128h-28z"/><path d="m1060-1120v28h-100v-28z"/><path d="m776-1248h16 52v120 36h-68z"/><path d="m904-1128h56v8 28h-52-64v-36z"/><path d="m844-1248h60v28 92h-60z"/><path d="m904-1220h56v92h-56z"/><path d="m960-1220h-56v-28h56z"/><path d="m676-1312h100z"/><path d="m676-1312h100v48 16 156h-92-8z"/><path d="m96-1712h116z"/><path d="m88-1712h8z"/><path d="m88-1876h8 116 8v164h-8-116-8z"/><path d="m1140-1884h-4z"/><path d="m1140-1884h64v8h-64z"/><path d="m0-1930v-64h64v64z"/><path d="m64-1994v64z"/><path d="m0-1994h64z"/><path d="m64-1930h-64z"/><path d="m0-1930v-64z"/><path d="m528-1786v-64z"/><path d="m528-1850h64z"/><path d="m528-1786v-64h64v64z"/><path d="m592-1786h-64z"/><path d="m592-1850v64z"/><path d="m1052-1212h8v84h-8z"/><path d="m960-1120v-8h8 84 8v8z"/><path d="m1052-1212h-84-8v-8h100v8z"/><path d="m960-1212h8v84h-8z"/><path d="m1060-1128v-84-8 100z"/><path d="m1052-1128h-84 8 68z"/><path d="m968-1212h84-8-68z"/><path d="m968-1128v-84 8 68z"/><path d="m1060-1120h-100z"/><path d="m1204-1884h-64v8h64z"/><path d="m328-1532v-72z"/><path d="m328-1532v12 112z"/><path d="m328-1320v-88 144z"/><path d="m312-1352v-148-32h16v124 88h-16z"/><path d="m212-1712h8z"/><path d="m96-1712h116v16h-116z"/><path d="m88-1696v32z"/><path d="m220-1664h-132z"/><path d="m96-1696h116 8v32h-132v-32z"/><path d="m1404-1800v104z"/><path d="m1416-1800h-12z"/><path d="m1404-1848h12v48h-12z"/><path d="m1408-1848h-12v48h12z"/><path d="m1132-1404h-4-28z"/><path d="m1276-1404h-48-24-8z"/><path d="m1340-1404v12h-64v-12z"/><path d="m988-1404h-80z"/><path d="m844-1404h-4.8163-47.1837z"/><path d="m1276-1392v-12z"/><path d="m1340-1392h-64z"/><path d="m1132-1392v-12z"/><path d="m1132-1392v-12h64v12z"/><path d="m220-1696v32z"/><path d="m844-1392v-12z"/><path d="m988-1392v-12z"/><path d="m988-1392v-12h64v12z"/><path d="m844-1392v-12h64v12z"/><path d="m88-1696h8z"/><path d="m88-1656v40z"/><path d="m220-1616h-132z"/><path d="m88-1656v-8h132v8 40h-132z"/><path d="m312-1500v148z"/><path d="m296-1500h16v148h-16z"/><path d="m220-1876h-8z"/><path d="m96-1876h-8z"/><path d="m96-1876v-16z"/><path d="m88-1876v164z"/><path d="m96-1876h-8v164h8z"/><path d="m220-1876h-8v164h8z"/><path d="m212-1876v164z"/><path d="m212-1712v16z"/><path d="m220-1616v-40z"/><path d="m220-1616v48z"/><path d="m220-1568h-8-116-8z"/><path d="m88-1656v-40 32z"/><path d="m88-1656v40 48z"/><path d="m220-1616v48h-132v-48z"/><path d="m1192-1696v8z"/><path d="m1224-1696v8h-12v-8z"/><path d="m1212-1688v-8z"/><path d="m1224-1696v8z"/><path d="m1224-1688h-12z"/><path d="m1212-1696h12z"/><path d="m1192-1696v8h-12v-8z"/><path d="m1160-1696v8h-12v-8z"/><path d="m1160-1696v8z"/><path d="m1180-1688v-8z"/><path d="m1192-1688h-12z"/><path d="m1180-1696h12z"/><path d="m1148-1688v-8z"/><path d="m1160-1688h-12z"/><path d="m1148-1696h12z"/><path d="m620-676h-12-16-8z"/><path d="m744-832v100-52-16z"/><path d="m688-832h56z"/><path d="m672-832h16 56-72-88z"/><path d="m688-708v32z"/><path d="m688-784h56z"/><path d="m688-784h56v-16h-56z"/><path d="m688-708h56z"/><path d="m688-708h56v-16h-56z"/><path d="m688-708v-16-60-16-32h-16v156h16z"/><path d="m672-832v156z"/><path d="m208-876h92z"/><path d="m208-1000v94 30z"/><path d="m300-1000v24z"/><path d="m300-900h16z"/><path d="m300-976h16z"/><path d="m300-900v-76-24h-92v124h92z"/><path d="m840-384v-16 74 10z"/><path d="m940-384h-100v68h100z"/><path d="m940-384v-16h-100v16z"/><path d="m840-316h100z"/><path d="m1088-1092h-72z"/><path d="m908-1092h-116-16-92 92 68z"/><path d="m684-1092h-24 16z"/><path d="m776-1092h16z"/><path d="m472-1092h8z"/><path d="m472-1092h8 16z"/><path d="m584-1092h8z"/><path d="m220-1876v164z"/><path d="m212-1876h8v164h-8z"/><path d="m88-1876h8v164h-8z"/><path d="m96-1876v164z"/><path d="m592-1000h-8z"/><path d="m592-1000h-8-16z"/><path d="m480-1000h-8z"/><path d="m480-1092v16z"/><path d="m480-1016v16z"/><path d="m592-1076v60z"/><path d="m480-1016h16-8z"/><path d="m584-1016h8z"/><path d="m592-1076h-8z"/><path d="m584-1076v-16z"/><path d="m584-1076v-16h-16v16z"/><path d="m584-1000v-16z"/><path d="m584-1000v-16h-16v16z"/><path d="m472-1076h8z"/><path d="m472-1016h8z"/><path d="m472-1016h8z"/><path d="m472-1076v60z"/><path d="m1240-1684h24z"/><path d="m1264-1696h-8z"/><path d="m1372-1684v-12z"/><path d="m1264-1696v12z"/><path d="m1132-1696h-32z"/><path d="m1132-1696v12z"/><path d="m1240-1684v-4-8z"/><path d="m672-676h-52z"/><path d="m744-676h-56z"/><path d="m96-1552h116 8v32h-132v-32z"/><path d="m96-1568h116v16h-116z"/><path d="m772-876h16z"/><path d="m700-876h16z"/><path d="m624-876h16z"/><path d="m584-876h-20-16-60-16 68z"/><path d="m592-832h16 64-88z"/><path d="m592-832h16z"/><path d="m472-848v-16z"/><path d="m472-864v16 16z"/><path d="m472-832v-16z"/><path d="m672-832h16v32 16 60 16 32h-16z"/><path d="m688-784v60z"/><path d="m688-832v32z"/><path d="m688-800h56z"/><path d="m688-784v-16h56v16z"/><path d="m688-724h56z"/><path d="m688-708v-16h56v16z"/><path d="m840-400h100-112z"/><path d="m828-400h-40-44z"/><path d="m1404-1848v-28z"/><path d="m1404-1848v-28 76z"/><path d="m1416-1848h-12z"/><path d="m1404-1848v48h12v-48z"/><path d="m1416-1800v-48z"/><path d="m316-724v48-32z"/><path d="m316-948v48 36 64 76-60-16-48-16-12z"/><path d="m316-800v76z"/><path d="m316-948v-28h-16v76h16z"/><path d="m840-400v16z"/><path d="m1408-1800h-12z"/><path d="m1396-1800v-48h12v48z"/><path d="m1396-1848h12z"/><path d="m1408-1848v48z"/><path d="m1396-1800v-48z"/><path d="m1348-1696v12h24v-12z"/><path d="m1288-1696h-24v12h24z"/><path d="m1156-1696h-24v12h24z"/><path d="m1216-1696v12h24v-12z"/><path d="m488-1016h8-16z"/><path d="m568-1076h24-8z"/><path d="m568-1092h-72v16h72z"/><path d="m496-1092h-16v16h16z"/><path d="m568-1016h-72v16h72z"/><path d="m496-1016h-16v16h16z"/><path d="m1312-1696h-24z"/><path d="m1312-1696v12h12v-12z"/><path d="m1324-1696v12h24v-12z"/><path d="m1312-1684v-12h-24v12z"/><path d="m1180-1696v12h12v-12z"/><path d="m1180-1696h-24v12h24z"/><path d="m1192-1696v12h24v-12z"/><path d="m568-1092h24z"/><path d="m524-1092h-28 72z"/><path d="m496-1092h28-52z"/><path d="m568-1092h16 8z"/><path d="m472-1092h24z"/><path d="m220-1552v32z"/><path d="m220-1520v-32 76z"/><path d="m88-1520v-32z"/><path d="m88-1520h132z"/><path d="m220-1476h-132z"/><path d="m220-1520v44h-132v-44z"/><path d="m496-1000h-24z"/><path d="m472-1000h-156 8z"/><path d="m592-1000h-24z"/><path d="m568-1000h-72z"/><path d="m496-1000h-16-8z"/><path d="m568-1016h16 8z"/><path d="m496-1016h72 24-112z"/><path d="m592-1016h-24z"/><path d="m496-1016h-8 8 72z"/><path d="m480-1076h16z"/><path d="m496-1076h-16z"/><path d="m568-1076h-72z"/><path d="m568-1076h24z"/><path d="m480-1076h-8z"/><path d="m212-2032h144 64-132z"/><path d="m420-2032h24z"/><path d="m444-2032h188-24-96z"/><path d="m632-2032h76z"/><path d="m1140-1876h-4z"/><path d="m1204-1876h-64z"/><path d="m1140-1876h64z"/><path d="m792-2032v28 84 28-24z"/><path d="m1204-1884h-64z"/><path d="m1140-1884h64z"/><path d="m1140-1884h64z"/><path d="m1136-1876v-8z"/><path d="m1204-1884h-64v8h64z"/><path d="m1140-1884v8z"/><path d="m1204-1876v-8z"/><path d="m732-2032h-24v12h24z"/><path d="m444-2032h-24v12h24z"/><path d="m156-2032h-24v12h24z"/><path d="m792-1564h-16v36 24 4h16z"/><path d="m776-1528v24z"/><path d="m792-1500h-16z"/><path d="m776-1564 16-12z"/><path d="m776-1424v56z"/><path d="m776-1424v-24z"/><path d="m776-1448v24 56 24z"/><path d="m776-1264v16z"/><path d="m776-1288v24-48-32z"/><path d="m776-1344v56z"/><path d="m396-188v44z"/><path d="m868-148v-44z"/><path d="m396-188 24-24-20 20z"/><path d="m776-52h-16z"/><path d="m776-96h-16z"/><path d="m868-148-24 24z"/><path d="m776-192h92z"/><path d="m776-192v44h92v-44z"/><path d="m776-192h-64z"/><path d="m776-96v-12z"/><path d="m488-144h-92z"/><path d="m488-188h-92v44h92z"/><path d="m1140-1876v-8h64v8z"/><path d="m1140-1876v-8z"/><path d="m1204-1884v8z"/><path d="m1204-1876h-64z"/><path d="m1140-1884h64z"/><path d="m504-284h-16z"/><path d="m504-284h48z"/><path d="m760-284h16z"/><path d="m760-240h-48z"/><path d="m760-240h16z"/><path d="m760-240v-44z"/><path d="m760-96h16-64z"/><path d="m760-96h-48v44h48z"/><path d="m504-284v44z"/><path d="m504-96h-16z"/><path d="m504-96v44z"/><path d="m1208-1876h-4-64-4z"/><path d="m784-1876h8z"/><path d="m792-1876h-8-16z"/><path d="m624-1876h8z"/><path d="m1208-1884h-4z"/><path d="m1136-1876v-8h4 64 4v8z"/><path d="m632-1892v16z"/><path d="m632-1892h16z"/><path d="m792-1892h-8z"/><path d="m784-1892v16z"/><path d="m784-1876v-16h-16v16z"/><path d="m624-1892h-16z"/><path d="m632-1892h-8z"/><path d="m608-1892h16 8z"/><path d="m1100-1564v-112z"/><path d="m1100-1684h32z"/><path d="m220-1696v40-8z"/><path d="m220-1568v-48-40z"/><path d="m396-1604h128-196z"/><path d="m396-1604h-68z"/><path d="m624-1760v-8z"/><path d="m624-1744h8z"/><path d="m784-1744h-16 8z"/><path d="m784-1744h8z"/><path d="m632-1760h-8z"/><path d="m632-1760h16z"/><path d="m792-1760h-8z"/><path d="m784-1760v16z"/><path d="m632-1760v16z"/><path d="m784-1744v-16h-16v16z"/><path d="m396-1604v132z"/><path d="m524-1316v160 64-64z"/><path d="m524-1540v160 64-64z"/><path d="m524-1540v-64h-128v132 92h128z"/><path d="m396-1380v132 92h128v-160-64z"/><path d="m396-1156v64h76 52v-64z"/><path d="m328-1248h68z"/><path d="m328-1248v-8-8z"/><path d="m328-1248v156h68v-64-92z"/><path d="m328-1248v156z"/><path d="m212-1696h8z"/><path d="m96-1696v-16z"/><path d="m212-1568h8z"/><path d="m88-1568h8z"/><path d="m212-1696v128z"/><path d="m220-1656v-40h-8v128h8z"/><path d="m96-1696h-8v40 88h8z"/><path d="m212-1568v16z"/><path d="m608 32v16z"/><path d="m656 32v-14-2z"/><path d="m656 32h-48z"/><path d="m656 32v-16h-48v16z"/><path d="m620-676h-12z"/><path d="m592-676h-8z"/><path d="m744-676h-28.9231-43.0769 16z"/><path d="m1312-1684h-24z"/><path d="m1372-1684h-24z"/><path d="m1404-1684h-32z"/><path d="m1324-1684h-12z"/><path d="m1348-1684h-24z"/><path d="m1192-1684h24z"/><path d="m1216-1684h24z"/><path d="m1264-1684h24z"/><path d="m1156-1684h24z"/><path d="m1132-1684h24z"/><path d="m1180-1684h12z"/><path d="m1324-1684h-12-24-24-24-24-24-12-24-24-32v8h224z"/><path d="m744-732v24-16z"/><path d="m744-708v-24 56z"/><path d="m592-832v156z"/><path d="m608-832h-16v156h16z"/><path d="m744-648v128z"/><path d="m648-648h16 20v-12h-64v12z"/><path d="m684-660v12z"/><path d="m620-648v-12z"/><path d="m620-660h64z"/><path d="m712-96v44z"/><path d="m712-284v44h48v-44z"/><path d="m712-192v44h64v-44z"/><path d="m552-284h-48v44h48z"/><path d="m552-96h-48z"/><path d="m552-188h-64-92 92z"/><path d="m552-144v-44h-64v44z"/><path d="m552-96h-48v44h48z"/><path d="m156-2032h56z"/><path d="m356-2032h-144-56-24 80z"/><path d="m732-2032h60z"/><path d="m1404-1876h-148z"/><path d="m1100-1876h28z"/><path d="m1128-1876v-12z"/><path d="m1216-1888v12z"/><path d="m1216-1876v-12h-88v12z"/><path d="m1128-1888h88z"/><path d="m156-2012v-8h-24v8z"/><path d="m444-2012v-8h-24v8z"/><path d="m732-2012v-8h-24v8z"/><path d="m420-2012v-8-12z"/><path d="m708-2012v-8-12z"/><path d="m732-2032v12 8z"/><path d="m708-2032h24v20h-24z"/><path d="m444-2032v12 8z"/><path d="m420-2032h24v20h-24z"/><path d="m156-2032v12 8z"/><path d="m132-2012v-8-12z"/><path d="m132-2032h24v20h-24z"/><path d="m632-1892h16z"/><path d="m1404-1676v168z"/><path d="m1404-1508v104z"/><path d="m1100-1696v-180z"/><path d="m1132-1696h24 24 12 24 24 8v-180h-32-88-28v180z"/><path d="m1264-1696h24 24 12 24 24 32v-104-76h-148v180z"/><path d="m1248-1876v180z"/><path d="m1348-1696h24z"/><path d="m1372-1696h32z"/><path d="m1312-1696h12z"/><path d="m1324-1696h24z"/><path d="m1288-1696h-24z"/><path d="m1256-1696v-180z"/><path d="m1240-1696h-24z"/><path d="m1180-1696h-24z"/><path d="m1248-1696h-8z"/><path d="m1156-1696h-24z"/><path d="m1216-1696h-24z"/><path d="m1192-1696h-12z"/><path d="m220-1476v-76 124z"/><path d="m632-1760h16-16-8z"/><path d="m784-1760h8-24z"/><path d="m220-1428h-8-116-8z"/><path d="m88-1520v44z"/><path d="m220-1476v48h-132v-48z"/><path d="m608 48h-40 24z"/><path d="m788-400h-44z"/><path d="m696-400h48-80z"/><path d="m568-400h80z"/><path d="m648-400h16z"/><path d="m220-1876h-8z"/><path d="m96-1876h-8z"/><path d="m96-1892h-8z"/><path d="m88-1892h8 16z"/><path d="m88-1892h-100z"/><path d="m220-1892h-8z"/><path d="m212-1892v16z"/><path d="m212-1876v-16h-16v16z"/><path d="m1404-1676v-4z"/><path d="m1100-1676v-8z"/><path d="m1324-1676h-224z"/><path d="m1404-1676v-4-4h-32-24-24v8z"/><path d="m220-1696h-8-16 8z"/><path d="m212-1712h8z"/><path d="m212-1712h8-24z"/><path d="m220-1712h-24z"/><path d="m96-1712h16z"/><path d="m88-1712h8z"/><path d="m212-1696v-16h-16v16z"/><path d="m212-1696h8v128h-8z"/><path d="m88-1696h8v128h-8z"/><path d="m96-1696v128z"/><path d="m568-468v44 24z"/><path d="m568-400v-68z"/><path d="m712-284h48 16z"/><path d="m632-384-25.6 32h51.2z"/><path d="m504-284h48l54.4-68 25.6-32h-64l-80 100z"/><path d="m657.6-352 54.4 68h64l-80-100h-64z"/><path d="m632-384h64v-16h-32-16-80v16z"/><path d="m696-400v16z"/><path d="m568-384-80 100z"/><path d="m488-52h16z"/><path d="m552-52h-48z"/><path d="m776-52h-16-48z"/><path d="m712-148v-44z"/><path d="m712-240v-44z"/><path d="m712-96v-52-44-48-44 156 76z"/><path d="m776-148h92-92-64z"/><path d="m776-232v-8z"/><path d="m776-232 16 16z"/><path d="m868-148h-92v-44h92z"/><path d="m776-232v-8h-16-48v48h64z"/><path d="m776-148v40-16z"/><path d="m776-108v-40h-64v52h64z"/><path d="m552-188v44z"/><path d="m552-96v44z"/><path d="m552-284v44z"/><path d="m488-240h16z"/><path d="m552-240h-48z"/><path d="m488-228v40z"/><path d="m552-240h-48-16v12 40h64z"/><path d="m488-96v-8z"/><path d="m504-96h48v-48h-64v40 8z"/><path d="m552-144h-64z"/><path d="m488-188v44h-92v-44z"/><path d="m488-104-16-16z"/><path d="m696 48 80-100h-64l-54.4 68-1.6 2v14 16z"/><path d="m608 16h-1.6l1.6 2z"/><path d="m568 48h40v-16-14l-1.6-2-54.4-68h-48-16z"/><path d="m657.6 16h-1.6v2z"/><path d="m712-52-54.4 68z"/><path d="m608 18v14-16z"/><path d="m656 48v-16z"/><path d="m608 16h48z"/><path d="m768-1892h-120v16h120z"/><path d="m648-1892h-16v16h16z"/><path d="m524-1092h-24-28-76z"/><path d="m192-1092h28 92-92-44z"/><path d="m220-1264v-148 164z"/><path d="m648-1744h-16 8z"/><path d="m768-1760h-120z"/><path d="m768-1744v-16h-120v16z"/><path d="m648-1760h-16v16h16z"/><path d="m420-1744v24 100h-24-148v-124z"/><path d="m396-1620h24 104v16h-128z"/><path d="m420-1744h60v24h-60z"/><path d="m480-1720h128v100h-84-104v-100z"/><path d="m396-1620h-68-80z"/><path d="m396-1472v92 132-132z"/><path d="m524-1604v64 160h-128v-92-132z"/><path d="m524-1380v64 160h-128v-92-132z"/><path d="m524-1156v64h-128v-64z"/><path d="m524-1604v64z"/><path d="m328-1240v140h-16v-140z"/><path d="m328-1092v-8-140-8h68v92 64z"/><path d="m220-1248h92v8 140 8h-92z"/><path d="m96-1428h116v16h-116z"/><path d="m176-1092h-224v-28h36 64 140v28z"/><path d="m-48-1120v-64h36v64z"/><path d="m-12-1184h-36v-28h100v28z"/><path d="m88-1212h104v92h-140v-64-28z"/><path d="m88-1212v-52h104v52z"/><path d="m220-1248v156h-28v-28-92-52h28z"/><path d="m96-1412h116 8v148h-28-104v-148z"/><path d="m744-832h-56-16-64z"/><path d="m584-832h8z"/><path d="m608-832v156z"/><path d="m592-832h16v156h-16z"/><path d="m212-1876h8-8-16z"/><path d="m212-1876h-16z"/><path d="m212-1892h8-24z"/><path d="m96-1696h8 8-16-8z"/><path d="m96-1712h16z"/><path d="m52-1184v64z"/><path d="m-12-1184h64z"/><path d="m-12-1120v-64z"/><path d="m52-1120h-64z"/><path d="m-12-1120v-64h64v64z"/><path d="m1084-1876h-52z"/><path d="m792-1876h-24z"/><path d="m648-1876h-16z"/><path d="m768-1876h-120z"/><path d="m648-1876h-16-8z"/><path d="m608-1876h-80-24z"/><path d="m632-1892h16 120 24-132z"/><path d="m648-1892h120z"/><path d="m768-1892h24z"/><path d="m768-1892h16 8z"/><path d="m776-1092h-64-28z"/><path d="m1404-1876v180 12z"/><path d="m1404-1684h-80z"/><path d="m1248-1696h56v12h-204v-12z"/><path d="m1248-1876v108h-88v-108z"/><path d="m1160-1768h88v72h-148v-72z"/><path d="m1248-1768v-108h8 48v180h-56z"/><path d="m1304-1696v-180h100v192h-80-20z"/><path d="m608-1720v64 36z"/><path d="m608-1768v8z"/><path d="m608-1744v24z"/><path d="m608-1876v8z"/><path d="m624-1868v-8z"/><path d="m632-1744h16-8z"/><path d="m768-1744h8-8-120-8 8z"/><path d="m792-1744h-8-8-8z"/><path d="m856-1744h92-156z"/><path d="m856-1744h-64-24-120-16 216z"/><path d="m624-1760h8v-8h-8z"/><path d="m632-1768v-18h-8v18z"/><path d="m648-1760h120 24v-26h-160v18 8z"/><path d="m632-1786h160v-90h-24-120-24v8 82z"/><path d="m1032-1876h-224v116h224z"/><path d="m1084-1760v-116h-52v116z"/><path d="m808-1876v116z"/><path d="m1032-1760h-224z"/><path d="m768-1760h16z"/><path d="m624-1786h-16v18h16z"/><path d="m608-1868v82h16v-82z"/><path d="m608-1868h16z"/><path d="m624-1768h-16z"/><path d="m608-1760h-104z"/><path d="m608-1768v-18-82-8h-104v116h104z"/><path d="m504-1876v90 26z"/><path d="m608-1720h-128z"/><path d="m480-1720v-24z"/><path d="m504-1744h104v24h-128v-24z"/><path d="m792-1092v-156z"/><path d="m776-1092h16v-156h-16z"/><path d="m196-1892h-84v16h84z"/><path d="m112-1892h-16v16h16z"/><path d="m196-1712h-84v16h84z"/><path d="m112-1712h-16v16h16z"/><path d="m396-188v44z"/><path d="m844-216 24 24z"/><path d="m868-148v-44z"/><path d="m868-192-24-24h-52-16v68 24h16 52l24-24z"/><path d="m792-216-16-16v16z"/><path d="m776-108 16-16h-16z"/><path d="m776-216v-16 40 44z"/><path d="m844-216h-52z"/><path d="m844-124h-52z"/><path d="m792-124-16 16z"/><path d="m488-188v-40l-16 16v92l16 16z"/><path d="m472-212h-52l-24 24v44l24 24h52z"/><path d="m420-120-24-24z"/><path d="m472-212h-52z"/><path d="m472-212 16-16z"/><path d="m488-188v84-40z"/><path d="m472-120h-52z"/><path d="m960-1744h-12v124h12z"/><path d="m960-1744v8h40v-8z"/><path d="m1000-1628h84v-116h-84z"/><path d="m960-1696v28h8v-28z"/><path d="m960-1628v8h124v-8z"/><path d="m1000-1736v108z"/><path d="m960-1668h8z"/><path d="m960-1696v-40z"/><path d="m960-1736h40z"/><path d="m968-1668v-28z"/><path d="m960-1628v-40z"/><path d="m1256-1876h-8-88z"/><path d="m1100-1696v-72z"/><path d="m1100-1696v12z"/><path d="m1160-1876v108z"/><path d="m1160-1768h-60z"/><path d="m1100-1796v-80h60v108h-60z"/><path d="m504-1760h104z"/><path d="m504-1760h104v16h-104z"/><path d="m608-1744h-104z"/><path d="m212-1876h8z"/><path d="m196-1876h-84z"/><path d="m112-1876h-16-8z"/><path d="m112-1876h-24z"/><path d="m112-1892h84z"/><path d="m196-1892h16z"/><path d="m88-1892h24z"/><path d="m112-1892h84 24-8-124z"/><path d="m220-1696v128z"/><path d="m608-1604h16-72-28z"/><path d="m396-1604h-68z"/><path d="m248-1620v-12-112z"/><path d="m396-1620v16z"/><path d="m524-1604v-16z"/><path d="m524-1620h84v16h-84z"/><path d="m524-1620h84z"/><path d="m328-1620h68v16h-68z"/><path d="m220-1696h-16-8z"/><path d="m96-1696h16-8z"/><path d="m196-1696h8-8-84-8 8z"/><path d="m112-1712h84 24-124z"/><path d="m112-1712h84z"/><path d="m96-1712h-8z"/><path d="m1016-1092h-224 116z"/><path d="m1404-1684v8z"/><path d="m1100-1860v-16 80z"/><path d="m1100-1796v28 72z"/><path d="m1324-1676h-224v-8h224z"/><path d="m1404-1684v8h-80v-8z"/><path d="m1404-1676h-80z"/><path d="m1324-1684h-224 204z"/><path d="m608-1604h16z"/><path d="m608-1604v-16z"/><path d="m608-1720v-24-16z"/><path d="m608-1720v-40-8 8 20 84z"/><path d="m1084-1876v16z"/><path d="m1084-1684v64z"/><path d="m1100-1796h-16v-64h16z"/><path d="m1084-1860h16z"/><path d="m1100-1796h-16z"/><path d="m624-1732v-12z"/><path d="m624-1708v-24z"/><path d="m624-1604v-28z"/><path d="m624-1632v-24-52-24-12 140z"/><path d="m624-1744h8z"/><path d="m1084-1744h-136z"/><path d="m948-1760v-116h136v16 64 52h-136z"/><path d="m948-1760h-100z"/><path d="m632-1786h212v26h-220v-8-18z"/><path d="m624-1868h8v82h-8z"/><path d="m624-1868v-8h8v8z"/><path d="m844-1876v90h-212v-82-8z"/><path d="m948-1760h-100-4v-26-90h104z"/><path d="m624-1786v18h-16v-18z"/><path d="m608-1786v-82h16v82z"/><path d="m504-1876h104v8 82 18 8h-104z"/><path d="m504-1744v-16z"/><path d="m504-1744h-24z"/><path d="m420-1744h60z"/><path d="m480-1744h-60z"/><path d="m1088-1092v-128-28z"/><path d="m1088-1248h-72z"/><path d="m1016-1248h-224v156h224z"/><path d="m1088-1092v-156h-72v156z"/><path d="m212-1428h8z"/><path d="m88-1428h8z"/><path d="m96-1696h-8 132z"/><path d="m220-1696h-24-84-16z"/><path d="m88-1696h8z"/><path d="m212-1552h8z"/><path d="m88-1552h8z"/><path d="m96-1552v-16z"/><path d="m88-1520v44 48z"/><path d="m212-1552v124z"/><path d="m220-1552h-8v124h8z"/><path d="m96-1552h-8v32 92h8z"/><path d="m212-1428v16z"/><path d="m1084-1744v124z"/><path d="m948-1620v-124z"/><path d="m1084-1620h-136z"/><path d="m948-1744h136z"/><path d="m948-1620v-124h136v124z"/><path d="m132-2032h-68-76z"/><path d="m436-2032h8-24-64z"/><path d="m660-2032h132-60-24-76z"/><path d="m952-400h-12z"/><path d="m212-2032h-80-144v28h224z"/><path d="m436-2032h-80-144v28h224z"/><path d="m660-2032h-28-188-8v28h224z"/><path d="m-12-1892v-28-84-28 38 64z"/><path d="m792-1892v-28h-132v28z"/><path d="m444-1892h-8-216 216z"/><path d="m512-676h-40-156z"/><path d="m584-676h88-144z"/><path d="m672-676h-88 8 16 12z"/><path d="m592-1092h12-24z"/><path d="m580-1092h-56z"/><path d="m472-1092h-28-24-24z"/><path d="m500-1092h-28z"/><path d="m580-1092h-56 44 24z"/><path d="m396-1092h-68z"/><path d="m316-992v-8 24 28z"/><path d="m316-800h36v-48h-36z"/><path d="m316-992v44 72h36v-87.7838z"/><path d="m952-900v24 16 64 16 72 16 16-20-8-48-4-76-44z"/><path d="m940-1000h12-136z"/><path d="m488-1000h60 16 28-24-72-24z"/><path d="m480-1016h112v-60h-112-8v60z"/><path d="m480-1076h112-24-72z"/><path d="m952-876v-24-88l-37.8461 27.8867v84.1133z"/><path d="m952-796v-64h-37.8461v64z"/><path d="m952-780h-37.8461v32.6154 39.3846h37.8461z"/><path d="m952-676v-16h-37.8461v16z"/><path d="m800-876h152-37.8461z"/><path d="m584-876h40z"/><path d="m640-876h60-4z"/><path d="m716-876h56z"/><path d="m548-876h-60z"/><path d="m584-876h-20z"/><path d="m788-884v-116h-16v124h16z"/><path d="m788-876h12l152-112v-12h-12l-152 116z"/><path d="m716-1000h-16v124h16z"/><path d="m640-1000h-16v124h16z"/><path d="m564-1000h-16v124h16z"/><path d="m488-1000h-16v116 8h16z"/><path d="m316-1000v8l148 116h8v-8l-148-116z"/><path d="m640-1000v124-95.3846z"/><path d="m952-988-152 112 114.1539-84.1133z"/><path d="m772-876v-124 28.6154z"/><path d="m788-1000v116-87.3846z"/><path d="m940-1000h-124-28v28.6154h114.504z"/><path d="m700-876v-124 28.6154z"/><path d="m716-1000v124-95.3846z"/><path d="m472-884v-116 28.6154z"/><path d="m564-1000v124-95.3846z"/><path d="m624-876v-124 28.6154z"/><path d="m488-1000v124-95.3846z"/><path d="m548-876v-124 28.6154z"/><path d="m548-1000h-60v28.6154h60z"/><path d="m316-992 36 28.2162 112 87.7838z"/><path d="m472-1000h-148l36.5093 28.6154h111.4907z"/><path d="m324-1000 148 116-111.4907-87.3846z"/><path d="m952-692v-16h-164v16z"/><path d="m952-780v-16h-164v16z"/><path d="m952-876h-152-12v16h164z"/><path d="m952-860h-164 126.1539z"/><path d="m788-692v16z"/><path d="m952-796h-37.8461-126.1539z"/><path d="m952-708h-37.8461-126.1539z"/><path d="m788-692v-16-72-16-36-28-16 44 76 4 48 8 20z"/><path d="m528-832h56z"/><path d="m472-876v12z"/><path d="m472-864h-156v16h156z"/><path d="m316-864h156-120z"/><path d="m512-784v-16h-196v16z"/><path d="m528-832h-16v32 16 60 16 32h16z"/><path d="m512-708v-16h-196v16z"/><path d="m512-800v-32z"/><path d="m512-724v-60z"/><path d="m512-800h-160-36z"/><path d="m512-724h-160-36z"/><path d="m744-520v-128 116 16z"/><path d="m744-516v116z"/><path d="m952-616h-164v16h164z"/><path d="m952-536h-164v16h164z"/><path d="m788-452v-16-52h-44v4 116h44z"/><path d="m952-452v-16h-164v16z"/><path d="m788-452v52z"/><path d="m788-600v64z"/><path d="m952-520h-164 126.1539z"/><path d="m952-600h-164 126.1539z"/><path d="m788-616h164-37.8461z"/><path d="m952-616v-60h-37.8461v60z"/><path d="m788-536h164-37.8461z"/><path d="m952-536v-64h-37.8461v64z"/><path d="m788-468h164-37.8461z"/><path d="m952-676v60 16 64 16 52-52z"/><path d="m788-520h-44z"/><path d="m568-648h16z"/><path d="m568-532v-116 180z"/><path d="m568-532v-116z"/><path d="m712-128v-156l-54.4-68h-51.2l-54.4 68v156z"/><path d="m712-52v-76h-160v76l54.4 68h51.2z"/><path d="m606.4-352h51.2z"/><path d="m712-284-54.4-68z"/><path d="m552-284 54.4-68z"/><path d="m552-128v-156 44 52 44 48 44z"/><path d="m657.6 16h-51.2 1.6 48z"/><path d="m606.4 16-54.4-68z"/><path d="m220-1552v124z"/><path d="m88-1552h8v124h-8z"/><path d="m212-1552h8v124h-8z"/><path d="m96-1552v124z"/><path d="m528-676h144 43.0769-19.0769-184z"/><path d="m352-708h-36v32h156v-32z"/><path d="m352-724v16h120v-16z"/><path d="m352-724h120v-60h-120-36v60z"/><path d="m352-864h120v-12h-120-36v12z"/><path d="m914.1539-780v-16-64-16-84.1133-11.2713l-126.1539 95.3846v16 28 84.6154h126.1539z"/><path d="m700-876h16 56 16-16-56-16-4z"/><path d="m472-876h-8z"/><path d="m772-876v-95.3846h16v87.3846 8z"/><path d="m914.1539-971.3846v11.2713l-114.1539 84.1133h-12v-8l114.504-87.3846z"/><path d="m788-884 152-116-37.496 28.6154z"/><path d="m716-971.3846v95.3846h56v-95.3846-28.6154h-56z"/><path d="m700-876v-95.3846h16v95.3846z"/><path d="m640-971.3846v95.3846h56 4v-95.3846-28.6154h-60z"/><path d="m472-876h-8l-112-87.7838v-7.6008h8.5093l111.4907 87.3846z"/><path d="m472-876v-8-87.3846h16v95.3846z"/><path d="m548-876v-95.3846h16v95.3846z"/><path d="m624-876v-95.3846h16v95.3846z"/><path d="m576-971.3846h-12-16-60-16-111.4907-8.5093l120 95.3846h104z"/><path d="m576-971.3846h48v-28.6154h-32-28v28.6154z"/><path d="m788-876h12 114.1539v16h-126.1539z"/><path d="m788-832v36z"/><path d="m788-832v-28z"/><path d="m788-780v72z"/><path d="m914.1539-780h37.8461-164z"/><path d="m914.1539-796v16h-126.1539v-16z"/><path d="m914.1539-708v16h-126.1539v-16z"/><path d="m914.1539-692h37.8461-164z"/><path d="m696-832h19.0769 28.9231-136-16-8z"/><path d="m696-832h-112-56-16-40z"/><path d="m715.0769-832h-19.0769z"/><path d="m472-848h-120v-16h120z"/><path d="m472-848h-156 36z"/><path d="m715.0769-676h28.9231v-56-100h-28.9231-19.0769v156z"/><path d="m528-832v156z"/><path d="m512-676v-32z"/><path d="m512-708v-16-60-16-32h16v156h-16z"/><path d="m512-784h-196 36z"/><path d="m512-800v16h-160v-16z"/><path d="m512-724v16h-160v-16z"/><path d="m512-708h-196 36z"/><path d="m788-520v52z"/><path d="m788-660v44z"/><path d="m788-660v-16z"/><path d="m788-616h126.1539v16h-126.1539z"/><path d="m788-536h126.1539v16h-126.1539z"/><path d="m914.1539-452v-16h-86.1539v16z"/><path d="m914.1539-452h-86.1539v52h112 12v-52z"/><path d="m914.1539-452h37.8461-164z"/><path d="m914.1539-468v16h-126.1539v-16z"/><path d="m696-832h-224v48 60 16 32h40 184z"/><path d="m-48-1092v-8-104-8 28 64z"/><path d="m792-2004v-28h-132v28z"/><path d="m212-1920h-224v28h100 124z"/><path d="m436-1920h-224v28h8 216z"/><path d="m660-1920h-224v28h8 164 24 28z"/><path d="m212-2004h-224v84h224z"/><path d="m436-2004h-224v84h224z"/><path d="m660-2004h-224v84h224z"/><path d="m792-1920v-84h-132v84z"/><path d="m176-1092h-224z"/><path d="m624-1768v8z"/><path d="m948-1744h-92z"/><path d="m948-1760v16z"/><path d="m848-1760h-224 220z"/><path d="m848-1744h-216-8v-16h224z"/><path d="m948-1760v16h-92-8v-16z"/><path d="m624-1768h-16z"/><path d="m312-1240v-8z"/><path d="m312-1092v-8z"/><path d="m312-1240h16z"/><path d="m312-1248h-92z"/><path d="m312-1240v-8h-92v8z"/><path d="m312-1092v-8h-92v8z"/><path d="m312-1100h-92z"/><path d="m212-1412h8z"/><path d="m88-1412h8z"/><path d="m96-1412v-16z"/><path d="m-40-1204h-8v104h8z"/><path d="m-40-1204h136v-8h-8-136v8z"/><path d="m176-1100h-216-8v8h224z"/><path d="m220-1100h-36-8v8h44z"/><path d="m96-1412h-8v200h8z"/><path d="m220-1248v-164h-8v172h8z"/><path d="m212-1412v172z"/><path d="m212-1240h8z"/><path d="m-48-1212h136-36z"/><path d="m88-1412v148 52z"/><path d="m788-832v36 16 72 16 16z"/><path d="m788-600v-60 44z"/><path d="m788-676v16 60z"/><path d="m1128-1404h-28z"/><path d="m1128-1404h4 20z"/><path d="m1204-1404h24z"/><path d="m1280-1404h24z"/><path d="m1404-1404h-24-24-16z"/><path d="m1356-1404h24z"/><path d="m1196-1404v12z"/><path d="m1340-1392v-12h-36-24-4v12z"/><path d="m1340-1404v12z"/><path d="m1196-1404h-44-20v12h64z"/><path d="m1132-1392h64z"/><path d="m1100-1404h-32-16 16z"/><path d="m908-1404v12z"/><path d="m1052-1404h-64v12h64z"/><path d="m1052-1404v12z"/><path d="m988-1392h64z"/><path d="m908-1404h-64v12h64z"/><path d="m844-1392h64z"/><path d="m220-1092h92-92-44z"/><path d="m220-1412v148 16z"/><path d="m220-1240h92z"/><path d="m312-1248v8h-92v-8z"/><path d="m312-1100v8h-92v-8z"/><path d="m-48-1100v-104h8v104z"/><path d="m88-1212h8v8h-136-8v-8z"/><path d="m176-1092h-224v-8h8 216z"/><path d="m220-1092h-44v-8h8 36z"/><path d="m88-1412h8v200h-8z"/><path d="m212-1412h8v164 8h-8z"/><path d="m96-1204h-136z"/><path d="m96-1212v-200 200 8z"/><path d="m-40-1204v104z"/><path d="m184-1100h-8-216 216z"/><path d="m220-1100h-36z"/><path d="m312-1532v32z"/><path d="m312-1320v-32z"/><path d="m312-1532h16z"/><path d="m312-1352h-16z"/><path d="m296-1500h16z"/><path d="m312-1500h-16v148h16z"/><path d="m296-1352v-148z"/><path d="m220-1568h-8z"/><path d="m96-1568h16z"/><path d="m96-1568h-8z"/><path d="m88-1568v-128z"/><path d="m212-1552h8z"/><path d="m88-1552h8z"/><path d="m212-1552v-16h-16v16z"/><path d="m744-648v116z"/><path d="m648-648h16z"/><path d="m648-648h-28-36z"/><path d="m664-648h80-60z"/><path d="m648-488v88z"/><path d="m664-548h12l-12-12-2-2-14 14z"/><path d="m648-560v12l14-14 2-2v-84h-16z"/><path d="m662-562 2 2v-4z"/><path d="m680-532h12l-16-16h-12z"/><path d="m664-564v4-88z"/><path d="m676-548 16 16-28-28z"/><path d="m648-500v12 88h16v-88-12z"/><path d="m692-516 16-16h-12l-16 16-16 16v12z"/><path d="m692-516h52v-16h-36z"/><path d="m692-532h-12v16l16-16z"/><path d="m692-516h52z"/><path d="m568-516v-16 64z"/><path d="m568-468v-48z"/><path d="m648-548v-12l-28 28h12z"/><path d="m620-516h12v-16h-12-52v16z"/><path d="m620-532h-52z"/><path d="m648-560-28 28z"/><path d="m648-488v-12l-16-16h-12z"/><path d="m828-400h-40z"/><path d="m828-468h86.1539 37.8461v-52h-37.8461-126.1539v52z"/><path d="m312-1240v-8z"/><path d="m312-1100v-16z"/><path d="m312-1092v-8z"/><path d="m328-1092v-8z"/><path d="m328-1248v8 16-8z"/><path d="m328-1240v-8z"/><path d="m328-1100h-16z"/><path d="m328-1240h-16v16h16z"/><path d="m96-1568h16 32-56z"/><path d="m212-1552h-16-42-30 96z"/><path d="m88-1876h124-16-84z"/><path d="m312-1100v-16-54-14 92z"/><path d="m88-1712h8 124z"/><path d="m88-1876v164z"/><path d="m220-1876h-8-124v164h132z"/><path d="m196-1552h16z"/><path d="m196-1568h-84v16h84z"/><path d="m112-1568h-16v16h16z"/><path d="m776-1248v40 24 92z"/><path d="m776-1184v92z"/><path d="m776-1208v24z"/><path d="m776-1248v-16 56z"/><path d="m472-832v-32h-120v16 48 16h120z"/><path d="m472-876-120-95.3846v7.6008 87.7838z"/><path d="m788-747.3846v71.3846h126.1539v-16-16-39.3846z"/><path d="m696-876h-56-64-104 16 60 16 20 40 16z"/><path d="m788-876 126.1539-95.3846h-11.6499-114.504-16v95.3846z"/><path d="m700-876h16v-95.3846h-16z"/><path d="m640-876v-95.3846h-16-48v95.3846z"/><path d="m788-860v-16z"/><path d="m788-747.3846v-84.6154 156z"/><path d="m472-832v-16-16z"/><path d="m788-468v-52-80 64 16 52 16 52z"/><path d="m788-676v76 80h126.1539v-16-64-16-60z"/><path d="m788-468v68h40v-52-16z"/><path d="m648-488-28-28h-52v48 68h80z"/><path d="m648-548-16 16v16l16 16h16l16-16v-16l-16-16z"/><path d="m620-532 28-28v-88h-64-16v116z"/><path d="m744-516h-52l-28 28v88h80z"/><path d="m692-532h52v-116h-80v88z"/><path d="m648-560v-88z"/><path d="m692-532h4 12 36z"/><path d="m680-532-16-16z"/><path d="m664-548h-16z"/><path d="m680-516v-16z"/><path d="m664-488v88z"/><path d="m692-516-28 28z"/><path d="m664-500 16-16z"/><path d="m648-500h16z"/><path d="m620-516h-52z"/><path d="m648-548-16 16z"/><path d="m632-532v16z"/><path d="m632-516 16 16z"/><path d="m648-488-28-28z"/><path d="m328-1264v-16-40z"/><path d="m328-1256v-8z"/><path d="m328-1248v-8z"/><path d="m328-1116v16-8z"/><path d="m328-1232v8 24-48z"/><path d="m328-1224h-16v108h16z"/><path d="m312-1116v16h16v-16z"/><path d="m112-1568h84-32-20z"/><path d="m196-1568h16 8z"/><path d="m112-1568h84z"/><path d="m196-1552h-84 42z"/><path d="m196-1552h-84z"/><path d="m112-1552h-16z"/><path d="m472-1092h-28z"/><path d="m396-1092h24z"/><path d="m444-1092h-24z"/><path d="m328-1604v-16z"/><path d="m312-1532v32 148 32z"/><path d="m312-1116v-108z"/><path d="m312-1224v-16-8z"/><path d="m312-1224v-24 36 28 14z"/><path d="m328-1520v24z"/><path d="m328-1440v24z"/><path d="m328-1360v24z"/><path d="m328-1280v16z"/><path d="m328-1320h-16z"/><path d="m328-1336v-24-56-24-56-24-12h-16v212h16z"/><path d="m328-1200v24z"/><path d="m328-1176v-24-24-8 8 108 8-8z"/><path d="m328-1224v24z"/><path d="m220-1428h-8z"/><path d="m96-1428h16-8z"/><path d="m88-1428h8z"/><path d="m220-1412h-8z"/><path d="m220-1412h-8-16z"/><path d="m96-1412h-8z"/><path d="m212-1412v-16h-16v16z"/><path d="m524-1092h-24z"/><path d="m1152-1404h44 8z"/><path d="m1228-1404h48 4z"/><path d="m1304-1404h36 16z"/><path d="m1380-1404h24z"/><path d="m624-1732v-36 8 16z"/><path d="m624-1656v-52z"/><path d="m624-1632v-24z"/><path d="m776-1528v-36z"/><path d="m776-1528h-64v24h64z"/><path d="m776-1448v-52-4z"/><path d="m624-1604h-16v64h16z"/><path d="m776-1368v24z"/><path d="m776-1448h-64v24h64z"/><path d="m776-1368h-64v24h64z"/><path d="m776-1264v-24z"/><path d="m776-1288h-64v24h64z"/><path d="m776-1208h-64v24h64z"/><path d="m604-1092v-64h-24v64z"/><path d="m328-1496v56z"/><path d="m328-1336v16 40z"/><path d="m328-1176v60-24z"/><path d="m212-1428h8-24z"/><path d="m96-1428h8 8-24z"/><path d="m1356-1508v-12 12 104z"/><path d="m1356-1508v104h24v-104z"/><path d="m1280-1508v-12 12 104z"/><path d="m1280-1508v104h24v-104z"/><path d="m1204-1508v104z"/><path d="m1204-1508v104h24v-104z"/><path d="m1128-1508v-12 12 104z"/><path d="m1128-1508v104h24v-104z"/><path d="m688-1632v-24h-64v24z"/><path d="m688-1708v-24h-64v24z"/><path d="m688-1732h-56-8z"/><path d="m688-1656h-64z"/><path d="m712-1528v24z"/><path d="m660-1156v64h24v-64z"/><path d="m500-1156v64h24v-64z"/><path d="m420-1156v64h24v-64z"/><path d="m396-1520h-68v24h68z"/><path d="m396-1440h-68v24h68z"/><path d="m396-1360h-68v24h68z"/><path d="m396-1280h-68v16 8h68z"/><path d="m396-1200h-68v24h68z"/><path d="m608-1656v24 28-16z"/><path d="m608-1740v24 60z"/><path d="m504-1760h104z"/><path d="m500-1744v4h4v-4z"/><path d="m504-1744v4h104v-20h-104z"/><path d="m500-1744h4-24z"/><path d="m480-1744h-60z"/><path d="m196-1428h-84v16h84z"/><path d="m112-1428h-16v16h16z"/><path d="m1324-1876h80-100-48z"/><path d="m1256-1876h-96-60z"/><path d="m800-1876h44z"/><path d="m712-1876h88 44-212-8z"/><path d="m504-1876h104z"/><path d="m624-1092h-20z"/><path d="m1100-1876v16z"/><path d="m1100-1684v-12 12 8 112z"/><path d="m1328-1684h-224z"/><path d="m1328-1696h-4-220v12h224z"/><path d="m1400-1684h4v-12h-76v12z"/><path d="m1324-1876h-68-156v16 64 100h4 220z"/><path d="m1328-1696h76v-180h-80v180z"/><path d="m1104-1696h-4v12h4z"/><path d="m1228-1520v12z"/><path d="m1228-1508v-12 12 104z"/><path d="m1304-1508v-12 12 104z"/><path d="m1304-1520v12z"/><path d="m1400-1684v176h4v-168-8z"/><path d="m1404-1508h-4-20v104h24z"/><path d="m1356-1508h-52v104h52z"/><path d="m1380-1508h20z"/><path d="m1304-1508h52z"/><path d="m1380-1520v12z"/><path d="m1400-1684v176z"/><path d="m1356-1520h24z"/><path d="m1380-1508v-12 12 104z"/><path d="m1356-1520v12h24v-12z"/><path d="m1280-1520h24z"/><path d="m1280-1508h-52v104h52z"/><path d="m1228-1508h52z"/><path d="m1280-1520v12h24v-12z"/><path d="m1152-1520v12z"/><path d="m1152-1508v-12 12 104z"/><path d="m1204-1520h24z"/><path d="m1152-1508h52z"/><path d="m1204-1520v12h24v-12z"/><path d="m1204-1508h-52v104h52z"/><path d="m1104-1508v-56h-4v56z"/><path d="m1100-1684v120h4v-120z"/><path d="m1128-1404v-104h-24-4v104z"/><path d="m1104-1508h24z"/><path d="m1128-1520h24z"/><path d="m1128-1520v12h24v-12z"/><path d="m608-1604h-56z"/><path d="m608-1768v8z"/><path d="m608-1876v8z"/><path d="m1084-1860v-16 32z"/><path d="m1084-1684v-60-52z"/><path d="m1084-1860v16 48h16v-64z"/><path d="m632-1786h80v-90h-88v8 82z"/><path d="m800-1844v-32h-88v90 26 108h88z"/><path d="m712-1652v20 12h64 16 8v-32z"/><path d="m624-1786v-82h-16v82z"/><path d="m688-1656v-52h-64v52z"/><path d="m632-1768v8h56 24v-26h-80z"/><path d="m632-1732h56v-28h-56z"/><path d="m712-1652v-108h-24v28 24 52 24h24z"/><path d="m776-1620v16h16v-16z"/><path d="m776-1620h-64v16h64z"/><path d="m712-1604v-16-12h-24-64v28z"/><path d="m624-1768h8v-18h-8-16v18z"/><path d="m632-1760v-8h-8v36h8z"/><path d="m800-1844v192 32-32z"/><path d="m844-1620h-44z"/><path d="m624-1868v-8z"/><path d="m688-1732v24z"/><path d="m688-1656v24z"/><path d="m688-1708h-64z"/><path d="m688-1632h-64z"/><path d="m792-1620v16z"/><path d="m844-1620h-44-8z"/><path d="m844-1620h104 136z"/><path d="m608-1868h16z"/><path d="m504-1876v116z"/><path d="m608-1768v-18-82-8h-104v116h104z"/><path d="m396-1280v24z"/><path d="m396-1360v24z"/><path d="m396-1520v24z"/><path d="m396-1440v24z"/><path d="m396-1200v24z"/><path d="m396-1380v20 24 56 24 56 24 20z"/><path d="m420-1156h-24v64h24z"/><path d="m444-1156v64h28 28v-64z"/><path d="m580-1156h-56v64h56z"/><path d="m624-1092h36v-64h-40-16v64z"/><path d="m712-1184v28 64h64v-92z"/><path d="m712-1264v56h64v-56z"/><path d="m712-1156h-28v64h28z"/><path d="m712-1344v56h64v-56z"/><path d="m776-1424h-64v44 12h64z"/><path d="m712-1504v56h64v-56z"/><path d="m608-1540v-64h-56-156v64z"/><path d="m712-1540v-64h-88v64z"/><path d="m712-1604v64 12h64v-36-40z"/><path d="m844-1508v-56h-4.8163v160h4.8163z"/><path d="m776-1604v40l16-12v-28z"/><path d="m1068-1508h-224v104h224z"/><path d="m1100-1508h-32v104h32z"/><path d="m1068-1564h-224v56h224z"/><path d="m1100-1564h-16-16v56h32z"/><path d="m660-1156h24 28-92z"/><path d="m620-1540h-12-212z"/><path d="m712-1424v-24-56-24-12 160z"/><path d="m776-1344h-64z"/><path d="m1068-1404h-224 64 80 64z"/><path d="m1100-1404h-32z"/><path d="m1068-1564h16-240z"/><path d="m792-1604v28z"/><path d="m839.1837-1564h-47.1837v64 96h47.1837z"/><path d="m712-1448h64z"/><path d="m712-1528h64z"/><path d="m792-1576-16 12z"/><path d="m776-1504h-64z"/><path d="m624-1604v64z"/><path d="m608-1540v-64z"/><path d="m620-1540h4-16z"/><path d="m712-1424v-24z"/><path d="m712-1344v-24z"/><path d="m712-1368h64z"/><path d="m776-1424h-64z"/><path d="m660-1092v-64z"/><path d="m712-1208h64z"/><path d="m776-1264h-64z"/><path d="m712-1264v-24z"/><path d="m712-1288h64z"/><path d="m660-1156h24z"/><path d="m712-1184v-24z"/><path d="m776-1184h-64z"/><path d="m684-1156v64z"/><path d="m580-1156h24z"/><path d="m604-1156v64z"/><path d="m580-1092v-64z"/><path d="m420-1156h24z"/><path d="m500-1156h24z"/><path d="m500-1092v-64z"/><path d="m524-1156v64z"/><path d="m444-1156v64z"/><path d="m420-1092v-64z"/><path d="m396-1540v-64h-68v84h68z"/><path d="m396-1380v-36h-68v56h68z"/><path d="m328-1496v56h68v-56z"/><path d="m328-1336v56h68v-56z"/><path d="m396-1256h-68v8 48h68z"/><path d="m396-1156v-20h-68v36 48h68z"/><path d="m328-1604v72 12z"/><path d="m328-1416v56z"/><path d="m328-1360h68z"/><path d="m396-1496h-68z"/><path d="m328-1520h68z"/><path d="m396-1416h-68z"/><path d="m328-1440h68z"/><path d="m328-1280h68z"/><path d="m396-1336h-68z"/><path d="m396-1256h-68z"/><path d="m328-1140v24 8 8 8z"/><path d="m396-1176h-68z"/><path d="m328-1200h68z"/><path d="m112-1428h84 24-132z"/><path d="m112-1428h-8 8 84z"/><path d="m196-1428h16z"/><path d="m220-1568h-56 32z"/><path d="m144-1568h20 56v-128h-132v128z"/><path d="m220-1412h-24z"/><path d="m112-1412h-24z"/><path d="m196-1412h-84z"/><path d="m112-1412h-16-8z"/><path d="m1400-1684h-72z"/><path d="m1328-1684h-224z"/><path d="m1304-1508h52z"/><path d="m1380-1508h20z"/><path d="m1356-1508v-12z"/><path d="m1400-1684v176z"/><path d="m1280-1508v-12z"/><path d="m1228-1508h52z"/><path d="m1152-1508h52z"/><path d="m1204-1508v-12z"/><path d="m1104-1508h24z"/><path d="m1128-1508v-12z"/><path d="m1104-1684v120 56z"/><path d="m552-1604h-224 68z"/><path d="m608-1604h-56z"/><path d="m396-1380v224z"/><path d="m396-1540v20 24 56 24 36z"/><path d="m620-1156h-224 24 24 56 24 56 24z"/><path d="m712-1156h-92z"/><path d="m620-1540h-224z"/><path d="m712-1540h-88-4z"/><path d="m712-1540v160z"/><path d="m712-1380v224-28-24-56-24-56-24z"/><path d="m312-1170v54-108z"/><path d="m220-1552h-96-36v124h132z"/><path d="m124-1552h30-42-16-8z"/><path d="m88-1552v124z"/><path d="m-48-1212v8 104 8z"/><path d="m176-1092h-224z"/><path d="m552-1604h-224z"/><path d="m328-1620v-12h-52-28v12z"/><path d="m248-1632h28v-84-28h-28z"/><path d="m552-1632h-52-172v12 16h224z"/><path d="m608-1604v-28h-28-28v28z"/><path d="m500-1716v-24-4h-20-60-144v28z"/><path d="m608-1656v-60h-28v84h28z"/><path d="m580-1716h28v-24h-108v24z"/><path d="m580-1716v84z"/><path d="m500-1716h-224z"/><path d="m552-1632h28-80z"/><path d="m500-1744v4z"/><path d="m608-1740h-104-4z"/><path d="m500-1744h-20z"/><path d="m248-1744h28 144z"/><path d="m328-1620h-80z"/><path d="m312-1092v-92-28h-92v120z"/><path d="m312-1248h-92v36h92z"/><path d="m312-1248h-92z"/><path d="m220-1412h-24-84-24z"/><path d="m88-1212h-136z"/><path d="m88-1264v-148 200z"/><path d="m192-1248v-16h-104v52h88 16z"/><path d="m220-1248h-28v36h28z"/><path d="m192-1248h28v-16h-28z"/><path d="m192-1264h28v-148h-132v148z"/><path d="m176-1212h-88-136v120h224z"/><path d="m220-1212h-28-16v120h44z"/><path d="m276-1716v84z"/><path d="m580-1716h-80z"/><path d="m500-1632h-224 52z"/><path d="m500-1716h-224v84h224z"/><path d="m580-1632v-84h-80v84z"/><path d="m1104-1508h24v-12h-24z"/><path d="m1152-1508h52v-12h-52z"/><path d="m1228-1508h52v-12h-52z"/><path d="m1400-1684h-20v164 12h20z"/><path d="m1304-1508h52v-12h-28-24z"/><path d="m1328-1684h-224v164h24 24 52 24 52 24 24z"/><path d="m1356-1520h24v-164h-52v164z"/><path d="m1380-1684h20-72z"/><path d="m1104-1520v-164 176z"/><path d="m1024-1876h-180-44v32 192h224z"/><path d="m800-1652v32h44 180v-32z"/><path d="m1084-1652v-192-32h-60v224z"/><path d="m1084-1620v-32h-60v32z"/><path d="m1024-1876h60-136-104z"/><path d="m1084-1844v192 32-64-112z"/><path d="m800-1876v32z"/><path d="m1084-1620h-60-180z"/><path d="m396-1540v160z"/><path d="m620-1156h-224z"/><path d="m712-1540h-92z"/><path d="m712-1380v224z"/></g></defs><path d="m-230-2214h2188v2444h-2188z" fill="#fff"/><g stroke="#000"><use fill="none" stroke-miterlimit="0" stroke-width="15" xlink:href="#a"/><use fill="#fff" xlink:href="#a"/></g></svg>