<svg viewBox="-1184 -1408 3168 2784" xmlns="http://www.w3.org/2000/svg" xmlns:xlink="http://www.w3.org/1999/xlink"><defs><g id="a"><path d="m32-128v-112-48h112 16v48 112 64h-128z"/><path d="m160-64v48 112h-16-112v-112-48z"/><path d="m144-288h-112 96z"/><path d="m160-288v48z"/><path d="m160 96h-16z"/><path d="m32-16v112z"/><path d="m32-128v64 48-48z"/><path d="m32-240v112z"/><path d="m160-288h-16z"/><path d="m128-288h-96l-128-128h64 112 48z"/><path d="m160-288 128-128v16 112z"/><path d="m160-16v112z"/><path d="m160-128v64 48-48z"/><path d="m160-240v112z"/><path d="m160-128v-112-48h128v112 112h-128z"/><path d="m144 96h-16-96z"/><path d="m32-288v48z"/><path d="m32-288v48 112 64h-128v-112-112z"/><path d="m32-64v48 112h-128v-96-32-32z"/><path d="m32 96-128 128v-112-16z"/><path d="m224 160 64 64h-48-80v-128z"/><path d="m288 224h-48z"/><path d="m288 64v-32z"/><path d="m288 64v48z"/><path d="m288-416v16z"/><path d="m288-32v64z"/><path d="m288-32v-32z"/><path d="m-96 112v112z"/><path d="m-96 96v-96z"/><path d="m-96-176v112z"/><path d="m-96-288v112z"/><path d="m-96-64v32z"/><path d="m80-416h-112z"/><path d="m192-416h-64-48z"/><path d="m-32-416h-64v64z"/><path d="m192-416h96l-128 128h-16-16v-128z"/><path d="m-96-352v-64l128 128h-128z"/><path d="m288-64v32 64 32 48 48h-64l-64-64v-112-48z"/><path d="m288 160v64l-64-64z"/><path d="m128 224h-112-112l128-128h96z"/><path d="m160 224h-32v-128h16 16z"/><path d="m288 32v32z"/><path d="m288-64v32z"/><path d="m-96 96v-32-32-32z"/><path d="m-96-32v32z"/><path d="m-96-32v-32z"/><path d="m-96 224h112z"/><path d="m16 224h112z"/><path d="m128 224h32 80z"/><path d="m288 224h-48z"/><path d="m288 224v-64-48z"/><path d="m288 64v48z"/><path d="m288-64v-112z"/><path d="m288-176v-112z"/><path d="m288-288v-112z"/><path d="m288-416v16z"/><path d="m288-32v64z"/><path d="m-96 224v-112z"/><path d="m-96 96v16z"/><path d="m-96-64v-112z"/><path d="m-96-176v-112z"/><path d="m-96-352v64z"/><path d="m-96 0v-32z"/><path d="m-32-416h112z"/><path d="m80-416h112z"/><path d="m288-416h-96z"/><path d="m-32-416-64 64z"/><path d="m-96 96v-32z"/><path d="m-96 32v-32z"/><path d="m288-64h-48z"/><path d="m16 64h-112z"/><path d="m128 64h-112z"/><path d="m240 64h-112z"/><path d="m128-64h-112-112v32h112 48 64z"/><path d="m240-32h48v-32h-48-112v32z"/><path d="m128-32h-64v64h64z"/><path d="m128 32h-64-48-112v32h112 112z"/><path d="m240 64h48v-32h-48-112v32z"/><path d="m16-32h-112z"/><path d="m240-32h-112z"/><path d="m64 32h-48z"/><path d="m288 32h-48z"/><path d="m64-32v64z"/><path d="m288 224h-48z"/><path d="m16 224h-112z"/><path d="m128 224h-112z"/><path d="m240 224h-112z"/><path d="m288 64v48z"/><path d="m288 112v112z"/><path d="m288-176v112z"/><path d="m288-288v112z"/><path d="m288-400v112z"/><path d="m288-32v64z"/><path d="m288-416v16z"/><path d="m-96 96v16z"/><path d="m-96 112v112z"/><path d="m-96-352v64z"/><path d="m-96-176v112z"/><path d="m-96-288v112-48z"/><path d="m288-416h-96z"/><path d="m80-416h-112z"/><path d="m192-416h-112z"/><path d="m288-64h-48z"/><path d="m16-64h-112z"/><path d="m128-64h-112z"/><path d="m240-64h-112z"/><path d="m80-416h112 96v16 112 112 112h-48-112-112-112v-112-112-64l64-64z"/><path d="m16-64h112 112 48v-112-112-112-16h-96-112-112l-64 64v64 112 112z"/><path d="m-32-416-64 64z"/><path d="m288 64h-48z"/><path d="m16 64h-112z"/><path d="m128 64h-112z"/><path d="m240 64h-112z"/><path d="m64-32h-48z"/><path d="m16-32h-112z"/><path d="m288-32h-48z"/><path d="m240-32h-112z"/><path d="m64 32h-48z"/><path d="m16 32h-112z"/><path d="m240 32h-112z"/><path d="m288 32h-48z"/><path d="m64-32v64z"/><path d="m128-32v64z"/><path d="m128-32h112 48v64h-48-112z"/><path d="m288-32h-48-112v64h112 48z"/><path d="m64-32h-48-112v32 32h112 48z"/><path d="m-96 0v-32h112 48v64h-48-112z"/><path d="m16 224h112 112 48v-112-48h-48-112-112-112v32 16 112z"/><path d="m16 64h112 112 48v48 112h-48-112-112-112v-112-16-32z"/><path d="m-256-256v-64z"/><path d="m-192-256h-64z"/><path d="m-192-320v64z"/><path d="m-192-320v64h-64v-64z"/><path d="m240 224h48-160z"/><path d="m16 224h-112z"/><path d="m128 224h-112z"/><path d="m240 224h-112z"/><path d="m288 160v64z"/><path d="m288 112v48 64z"/><path d="m288-400v-16 32z"/><path d="m288-176v16 96z"/><path d="m288-288v112z"/><path d="m288-400v16 96z"/><path d="m288 160h32z"/><path d="m384-64v128z"/><path d="m288 32v-64-32-96h32l64 96v128h-96z"/><path d="m384 64-64 96h-32v-48-48z"/><path d="m-96 64v32 16z"/><path d="m-96 0v32 32 48 112-96-32z"/><path d="m-96-224v48 112 32 32-96z"/><path d="m-96 0v-32 32 32z"/><path d="m-96-352v64z"/><path d="m192-416h-112-112z"/><path d="m288-416h-96z"/><path d="m16-64h-112z"/><path d="m128-64h-112z"/><path d="m240-64h-112z"/><path d="m-32-416-64 64z"/><path d="m288 64h-48z"/><path d="m64-32h-48z"/><path d="m288-32h-48z"/><path d="m128-32h-64-48-112v-32h112 112z"/><path d="m240-64h48v32h-48-112v-32z"/><path d="m16 32h-112z"/><path d="m240 32h-112z"/><path d="m128-32v64z"/><path d="m64-32h64v64h-64z"/><path d="m128 64h-112-112v-32h112 48 64z"/><path d="m240 32h48v32h-48-112v-32z"/><path d="m-256-224h96-128z"/><path d="m-192-320h-64z"/><path d="m-160-352v32h-32-64v-32z"/><path d="m-160-320v64h-32v-64z"/><path d="m-192-256h32v32h-96v-32z"/><path d="m-256-320v64 32h-32v-128h32z"/><path d="m-288-352v128z"/><path d="m-288-352v-64z"/><path d="m-288-160v-64z"/><path d="m320-160h-32z"/><path d="m640-416v160z"/><path d="m384-256v-128-32z"/><path d="m608-416h-224 2z"/><path d="m640-256h-32z"/><path d="m608-256h-224v-160h224z"/><path d="m640-416v160h-32v-160z"/><path d="m384 160h2 46-112z"/><path d="m480 80v-192 208 16z"/><path d="m432-136 24 24h-24z"/><path d="m386-112v-48h46v24 24z"/><path d="m456 44-24-36-46-69v-51h46 24 24v192z"/><path d="m386 64v-125l46 69v128 24h-46z"/><path d="m432 8 24 36v68l-24 24z"/><path d="m456 44 24 36v32h-24z"/><path d="m384-64v-96h2v48 51 125h-2z"/><path d="m386 64v96h-2v-96z"/><path d="m480 112h-24z"/><path d="m456-112h24z"/><path d="m432-160v24z"/><path d="m432 136v24z"/><path d="m456 112-24 24z"/><path d="m384 160h-64l64-96z"/><path d="m384-160v96l-64-96z"/><path d="m384-64-64-96z"/><path d="m320 160 64-96z"/><path d="m-160-352h-96-32z"/><path d="m-160-416v64z"/><path d="m-160-416v64h-128v-64z"/><path d="m-160-224v-32-64-32 32z"/><path d="m-160-224v64z"/><path d="m-160-160h-128z"/><path d="m-160-224v64h-128v-64z"/><path d="m432 224h48 24z"/><path d="m288 224h-160z"/><path d="m128 224h-224 112z"/><path d="m-160 224h32-128z"/><path d="m-288-128v192 32-192z"/><path d="m-288-352v128 64 32-32z"/><path d="m800-192v-160 128 64z"/><path d="m-256 128v-32h96v128h-96z"/><path d="m-160 96h32v32 96h-32z"/><path d="m-288-128v-32h128v64 160h-128z"/><path d="m-160 64v32h-96-32v-32z"/><path d="m-160-608v160 32h-128v-160l32-32z"/><path d="m-128-608v128l-32 32v-160z"/><path d="m-160 64v-160h64v96 96h-32-32z"/><path d="m-64-608v32 96h-64v-128z"/><path d="m-64-576h32v96h-32z"/><path d="m192-448h-160l-64-32v-96h192 32z"/><path d="m320-576v64 64h-64-64v-128z"/><path d="m384-736v224h-64v-64-160z"/><path d="m384-512v96 32l-64-64v-64z"/><path d="m384-736h2v160 64h-2z"/><path d="m386-512v32 64h-2v-96z"/><path d="m192-640h-224v-96l64-64h160z"/><path d="m256-800v160h-64v-160z"/><path d="m384-736h-64v-64h66v64z"/><path d="m432 160 24 24v2h-24z"/><path d="m432 224v-38h24 24v38z"/><path d="m456 186v-2h24v2z"/><path d="m320 160h112l-144 64v-64z"/><path d="m480 224v-38-2l24-24v64z"/><path d="m504 160v-24l24 24z"/><path d="m704 136-32 24h-144l-24-24-24-24v-16h24 72 128z"/><path d="m757.3334 96-53.3334 40v-40z"/><path d="m480-112 24-24v200 32h-24z"/><path d="m504-160-24-24v-24l16-16h8z"/><path d="m480-208v24h-24z"/><path d="m496-224-16 16-24 24-24 24v-64z"/><path d="m432-160h-112-32v-64z"/><path d="m608-224h32v32 32h-64-72z"/><path d="m576 64h128v32h-128z"/><path d="m576-64v-96h64v96z"/><path d="m504 64v-200-24h72v96 128z"/><path d="m576 96h-72v-32h72z"/><path d="m608-448v32h-222v-64h64 158z"/><path d="m704-416h32l64 64v160h-96z"/><path d="m800-192v32 192h-96v-96-128z"/><path d="m800 32v32l-42.6666 32h-53.3334v-32-32z"/><path d="m640-224v-32-160h64v224h-64z"/><path d="m704-192v128h-64v-96-32z"/><path d="m608-448 32 32h-32z"/><path d="m386-736v-64h64v64 128 32h-64z"/><path d="m450-576v32 64h-64v-32-64z"/><path d="m320-448h-64z"/><path d="m450-480v-64z"/><path d="m450-576v-32 64z"/><path d="m608-480h-158z"/><path d="m160-576h-192-32z"/><path d="m-64-576v-32z"/><path d="m256-640h-64z"/><path d="m256-800v160z"/><path d="m-32-736v96z"/><path d="m-64-480h32-96z"/><path d="m-128-480-32 32z"/><path d="m32-448-64-32z"/><path d="m480-112h-24z"/><path d="m640-224v-32z"/><path d="m736-416h-32-64z"/><path d="m800-352-64-64z"/><path d="m608-256h32z"/><path d="m608-256h-224z"/><path d="m384-256v-128z"/><path d="m640-416-32-32z"/><path d="m384-384-64-64z"/><path d="m432-136v-24z"/><path d="m504-160v24z"/><path d="m504-160v-64z"/><path d="m640-224h-32z"/><path d="m456-184h24z"/><path d="m504-224h-8-64 24 24z"/><path d="m504-136-24 24z"/><path d="m432-160 24-24z"/><path d="m504 224v-64 24z"/><path d="m504 136v24z"/><path d="m704 136 53.3334-40 42.6666-32-96 72-32 24z"/><path d="m640-64h64l-32 32h-64l-32-32z"/><path d="m576-64 32 32v64l-32 32z"/><path d="m456 112h24z"/><path d="m432 160v-24z"/><path d="m480 184h-24z"/><path d="m504 160-24 24z"/><path d="m432 136 24-24z"/><path d="m432 160-46 20.4444-66 29.3334-32 14.2222z"/><path d="m-96-320v96 128-96z"/><path d="m192-416h-224 128z"/><path d="m-160-352v-64-32 64 64z"/><path d="m-96 96v32z"/><path d="m-128 96h32z"/><path d="m-288 96h32z"/><path d="m-128 128v96z"/><path d="m-128 128v-32z"/><path d="m-256 96v32z"/><path d="m288-384v160 64-16-112z"/><path d="m432-160h-46-2-64z"/><path d="m640-416h-32z"/><path d="m608-256h-224z"/><path d="m456-112-24-24z"/><path d="m-96-320v-32 64 64z"/><path d="m288-416h-96z"/><path d="m-32-416-64 64z"/><path d="m-160-416h-128z"/><path d="m-224 187v-22z"/><path d="m-203 144-21 21v22l21 21h22l21-21v-22l-21-21z"/><path d="m-160 165v22z"/><path d="m-203 144h22z"/><path d="m-181 208h-22z"/><path d="m-160 187-21 21z"/><path d="m-224 165 21-21z"/><path d="m672-32v64h-64v-64z"/><path d="m672 32v-64l32-32v96 32z"/><path d="m672 32 32 32h-128l32-32z"/><path d="m608-544v64z"/><path d="m288-800h32z"/><path d="m320-800v64 160z"/><path d="m450-608v-128 64z"/><path d="m450-608v64z"/><path d="m608-544h-158z"/><path d="m450-480v-64h158v64z"/><path d="m288-576h32-128-32z"/><path d="m288-608v-192h32v224h-32z"/><path d="m160-576h-224v-32h32 192z"/><path d="m192-608h96v32h-128v-32z"/><path d="m192-608h-32-192z"/><path d="m-64-608h32z"/><path d="m256-800h-64-160z"/><path d="m256-640h-64z"/><path d="m192-640h-224z"/><path d="m256-800v160z"/><path d="m-32-640v-96z"/><path d="m256-800v160h-64-224v-96l64-64z"/><path d="m192-640h64v-160h-224l-64 64v96z"/><path d="m32-800-64 64z"/><path d="m608-608v64z"/><path d="m256-800h32z"/><path d="m608-608h-158z"/><path d="m450-672v-64z"/><path d="m450-608v-64z"/><path d="m450-608h158v64h-158z"/><path d="m288-640v-160 192z"/><path d="m192-640h-224z"/><path d="m256-800h32v160h-32z"/><path d="m-32-608v-32z"/><path d="m192-608h-224v-32h224z"/><path d="m256-640h32v32h-96v-32z"/><path d="m288-608h-96z"/><path d="m450-672v-64z"/><path d="m450-736v-64z"/><path d="m608-672h-158z"/><path d="m450-608v-64h158v64z"/><path d="m608-672v64z"/><path d="m608-736v64z"/><path d="m450-736v-64z"/><path d="m450-736h158z"/><path d="m450-672v-64h158v64z"/><path d="m608-800v64z"/><path d="m416-800h34-64-66z"/><path d="m608-800v64h-158v-64z"/><path d="m544-832h-64z"/><path d="m480-832v-64z"/><path d="m480-896h64z"/><path d="m544-896v64z"/><path d="m480-832v-64h64v64z"/><path d="m480-960h-64 96 96z"/><path d="m608-832v-64-64 128 32z"/><path d="m352-800h64-96-32-32z"/><path d="m608-800h-158-34z"/><path d="m608-960v64h-64-64v-64z"/><path d="m544-896h64v64h-64z"/><path d="m416-960h64v64 64h-64z"/><path d="m480-832h64 64v32h-192v-32z"/><path d="m288-800h64-96z"/><path d="m256-800h32z"/><path d="m352-800h-64z"/><path d="m416-800h-64z"/><path d="m416-960v128 32z"/><path d="m352-960v160z"/><path d="m416-960v160h-64v-160z"/><path d="m416-960h-64z"/><path d="m512-960h-96-64-64 160z"/><path d="m128 224h-32-192z"/><path d="m96 224h-24-24-128-16z"/><path d="m-256 224h128z"/><path d="m-288-384v-192 160 64z"/><path d="m800-160v160 64-32z"/><path d="m-128 96h-128v32h128z"/><path d="m128 224h160l32-14.2222v-209.7778h-32-192v224z"/><path d="m320 209.7778 66-29.3334v-136.8888-43.5556h-66z"/><path d="m-160-384v-64-160h-96l-32 32v192z"/><path d="m-160-160v-160-64h-128v32 192z"/><path d="m-160-96v-64h-128v32 32z"/><path d="m-128-480v-128h-32v160z"/><path d="m-32-480v-64-64h-32-64v128z"/><path d="m96-192v-224h-128l-64 64v32 128z"/><path d="m-64-96h160v-96h-192v96z"/><path d="m96-448-128-96v64l64 32z"/><path d="m288-192v-32-32-96-64h-96-96v224z"/><path d="m288 0v-192h-192v96 96z"/><path d="m320-256h-32v-96h32z"/><path d="m320 0h66v-180.4444l-98-43.5556v32 192z"/><path d="m352-800h-64v-160h64z"/><path d="m480 184h-24-24v40h72v-40z"/><path d="m504 184v-24l-24 24z"/><path d="m456 184-24-24v24z"/><path d="m480 112-12-12-12 12z"/><path d="m692 136h-188v24h168l32-24z"/><path d="m468 100 36-36v-64-112h-24-24-24v155.5556 68.4444h24z"/><path d="m432 112v24l24-24z"/><path d="m432-112v-24-24l-46-20.4444v180.4444 43.5556h46z"/><path d="m386 43.5556v136.8888l46-20.4444v-24-24-68.4444z"/><path d="m504-136-24 24h24z"/><path d="m456-112-24-24v24z"/><path d="m480-184 24 24v-64h-24z"/><path d="m480-224h-24v40h24z"/><path d="m432-224v64l24-24v-40z"/><path d="m692 0v-124l-124 124-64 64-36 36h224z"/><path d="m468 100 12 12 24 24h188v-36z"/><path d="m800 0v-160-64h-8l-64 64-36 36v124z"/><path d="m800 64v-64h-108v100 36h12z"/><path d="m568 0 124-124 36-36v-64h-88-32l-104 64v24 24 112z"/><path d="m504 64 64-64h-64z"/><path d="m728-160 64-64h-64z"/><path d="m608-256v-96-32h-224v128z"/><path d="m640-256v-96h-32v96z"/><path d="m728-224h64 8v-128h-160v96 32z"/><path d="m640-352h160l-64-64h-96-32v32 32z"/><path d="m640-416-32-32v32z"/><path d="m608-384h-32-192z"/><path d="m608-960v96 32z"/><path d="m288-960v160z"/><path d="m256-448h64-224z"/><path d="m96-448-64-48-64-48z"/><path d="m384-384-32-32-32-32z"/><path d="m96-96v96z"/><path d="m288-256h32z"/><path d="m320-352h-32z"/><path d="m320-256v-96z"/><path d="m-64-96h-32-64-128z"/><path d="m-128 128v96z"/><path d="m-128 128h-128z"/><path d="m256-448h-160-64 160z"/><path d="m608-448v-32z"/><path d="m224-800h32-224z"/><path d="m32-800-64 64z"/><path d="m-160-608h32 64-64-32-96z"/><path d="m-256-608-32 32z"/><path d="m288-352v96 32-160-32z"/><path d="m432-224v64z"/><path d="m504-160 104-64z"/><path d="m456-112-24-24z"/><path d="m480-184 24 24z"/><path d="m386-180.4444 46 20.4444-144-64z"/><path d="m504 160h24 144z"/><path d="m432 184v-24 26 38z"/><path d="m456 184-24-24z"/><path d="m480 112 24 24z"/><path d="m-96-96h-64z"/><path d="m-96-352v32z"/><path d="m288-416h-96z"/><path d="m-32-416-64 64z"/><path d="m-160-320v160 64-64-64z"/><path d="m-96 128v96z"/><path d="m-256 128v96z"/><path d="m224-960h64z"/><path d="m288-800h-32-32z"/><path d="m224-800v-160z"/><path d="m288-960v160h-64v-160z"/><path d="m-256 144v64h16v-64z"/><path d="m-224 144h-16v64h16z"/><path d="m-160 165v22l11-11z"/><path d="m-144 181v-37h-37z"/><path d="m-144 144v64h16v-64z"/><path d="m-256 208v16h128v-16z"/><path d="m-144 181-5-5-32 32h37z"/><path d="m-224 165 21-21h-21z"/><path d="m-224 208h21l-21-21z"/><path d="m-256 128v16h128v-16z"/><path d="m-256 224h128z"/><path d="m-128 128h-128z"/><path d="m-203 208-21-21z"/><path d="m-181 144 21 21z"/></g><g id="b"><path d="m64-1392h-64z"/><path d="m64-1408v16h-64v-16z"/><path d="m0-1408v16z"/><path d="m64-1392v-16z"/><path d="m-400 224v64 160h-112l-32-32v-192z"/><path d="m-400 448v32h-80l-32-32z"/><path d="m-192 544v64 32h-32v-96z"/><path d="m-328 312h24v8 40l-48-48z"/><path d="m-288 320v56l-16-16v-40z"/><path d="m-352 312 48 48 16 16v104h-64z"/><path d="m-288 480v-104-56h96v96 128h-32z"/><path d="m-288 320h-16v-8h112v8z"/><path d="m-160 624v-16h64v16z"/><path d="m-160 640v-16h64v16z"/><path d="m-32 608v32h-32v-32z"/><path d="m-64 416h32v24 104 64h-32-32-64-32v-64-128z"/><path d="m-32 440v-24h24z"/><path d="m0 480v32l-32 32v-104l24-24 8-8z"/><path d="m-64 288h64v24 96l-8 8h-24-32z"/><path d="m-400 448v-160h16v24 168h-16z"/><path d="m-384 312v-24h8l24 24z"/><path d="m-304 288h112v24h-112-24z"/><path d="m-376 224h24v16l-24 24z"/><path d="m-400 224h24v40 24h-8-16z"/><path d="m-328 240v-16h24v40z"/><path d="m-128 128h32v96h-32z"/><path d="m-328 96h40 32v32 96h-48-24z"/><path d="m-96 96v32h-32-128v-32z"/><path d="m32 480-32 32v-32z"/><path d="m224 480h-192-32v-72-96h72 24 24 104z"/><path d="m288 312v104l-64 64v-168z"/><path d="m-80 288h-112-112v-24-40h48 128 32 16z"/><path d="m48 224v40 24h-48-64-16v-64z"/><path d="m72 240v-16h24v16z"/><path d="m0 312v-24h48l24 24z"/><path d="m96 312 24-24v24z"/><path d="m48 224h24v16l-24 24z"/><path d="m-376-352v192 24 8h-136l-32-32v-128l64-64z"/><path d="m-376-128v32h-104l-32-32z"/><path d="m-544-32v-32h192v32 192h-192z"/><path d="m-352 160v32h-192v-32z"/><path d="m-376-128v-8l24 24v16h-24z"/><path d="m-328-184h-24l24-24z"/><path d="m-328 16v-128l24-24h16v40 192h-40z"/><path d="m-256-352h32 40l-144 144-24 24-24 24v-192z"/><path d="m-160-352v192h-144l-24-24v-24l144-144z"/><path d="m-160-416v64h-24-40z"/><path d="m-96-1024h32v160 64h-96v-64-96z"/><path d="m-64-800v160 64h-96v-64-160z"/><path d="m-64-576v160 64h-96v-64-160z"/><path d="m-64-352v160 32h-16-80v-192z"/><path d="m-96-1056v-192l32-32v192 32z"/><path d="m-64-1024h-32v-32h32z"/><path d="m-64-1280 32-32v160 64h-32z"/><path d="m-32-1088v96 128h-32v-160-32-32z"/><path d="m-32-864v128 96h-32v-160-64z"/><path d="m-32-640v96 128h-32v-160-64z"/><path d="m-32-416v96 128h-32v-160-64z"/><path d="m-32-192v32h-32v-32z"/><path d="m-32-1312v-64h32v208 16h-32z"/><path d="m0-1152v160h-32v-96-64z"/><path d="m32-496v80 64 32h-64v-96-128z"/><path d="m32-320v160h-64v-32-128z"/><path d="m32-864v64l-64 64v-128z"/><path d="m64-1392v16 208h-64v-208-16z"/><path d="m64-1168v16 160h-64v-160-16z"/><path d="m72-352v168l-24 24h-16v-160-32z"/><path d="m-64-96h-224v-40h208 16z"/><path d="m72-112 16 16h-152v-40h112z"/><path d="m72-112h24v16h-8z"/><path d="m96-184h-24v-168h24z"/><path d="m96-448v32h-64v-80z"/><path d="m96-864v64h-64v-64z"/><path d="m96-1376v64 160h-32v-16-208z"/><path d="m96-1152v64 96h-32v-160z"/><path d="m96 0v-96-16l24-24v200 24h-24z"/><path d="m120 88v176l-24-24v-16-136z"/><path d="m128-1280v192h-32v-64-160z"/><path d="m128-1088v32 96 96h-32v-128-96z"/><path d="m128-864v64h-32v-64z"/><path d="m288-288v32 96h-168l-24-24v-168h128z"/><path d="m120-136v-24h168v128 96h-168z"/><path d="m288 64v128 96h-168v-24-176-24z"/><path d="m288 288v24h-64-104v-24z"/><path d="m288-288v32h32v-96h-32z"/><path d="m320-448v32h-64-160v-32z"/><path d="m320-448 32 32h-32z"/><path d="m160-960h64v160h-96v-64-96z"/><path d="m224-960h-64v-64z"/><path d="m128-1088v-192l32 32v192h-32z"/><path d="m160-1056v32 64h-32v-96z"/><path d="m576-416h-96-128l32 32h192z"/><path d="m608-384v-32h-32v32z"/><path d="m0-1392v16z"/><path d="m64-1376v-16z"/><path d="m-352 480h64z"/><path d="m-400 480h16-96z"/><path d="m32 480h192z"/><path d="m576-416h32-128z"/><path d="m96-1312v-64z"/><path d="m448-960h-160-64z"/><path d="m160-1248v192z"/><path d="m608-960v96z"/><path d="m-96-1248v192z"/><path d="m-32-1376v64z"/><path d="m96-992v128l-32-32v-64z"/><path d="m0-992h64 32l-32 32h-64l-32-32z"/><path d="m-32-992 32 32v64l-32 32z"/><path d="m96-864h-64-64l32-32h64z"/><path d="m-160-640v64 160z"/><path d="m-160-864v64 160z"/><path d="m-256-352h-120-104z"/><path d="m120 264v24z"/><path d="m120-160v24z"/><path d="m288-288v32z"/><path d="m224 480 64-64z"/><path d="m72 240h24z"/><path d="m96-112h-24z"/><path d="m72-184h24z"/><path d="m120-136-24 24z"/><path d="m96 312h-24z"/><path d="m120 288-24 24z"/><path d="m-64-160h32 64 16-128z"/><path d="m-544-288v128z"/><path d="m-352-184h24z"/><path d="m72-184-24 24z"/><path d="m-304-160-24-24z"/><path d="m-376-160 24-24z"/><path d="m-328 16v80 128 16-160-32z"/><path d="m-80-136h-208-16z"/><path d="m48 264 24-24z"/><path d="m48 288v-24z"/><path d="m-304 264v24z"/><path d="m-192 288h112 16l-32 32h-64z"/><path d="m-64 288v128l-32-32v-64z"/><path d="m-192 416 32-32h64l32 32z"/><path d="m-192 320v-8-24l32 32v64l-32 32z"/><path d="m-352 192h-192z"/><path d="m-352-96v-16z"/><path d="m-376-136v-24z"/><path d="m-376-96h24-128z"/><path d="m-544-32v192 32z"/><path d="m-352-64v32z"/><path d="m-384 480v-168z"/><path d="m-328 312h-24z"/><path d="m-384 312h32z"/><path d="m-352 240v-16z"/><path d="m-376 288v-24z"/><path d="m-376 288 24 24z"/><path d="m-352 240-24 24z"/><path d="m-352 312v168z"/><path d="m-544 416v-192z"/><path d="m-512 448 32 32-64-64z"/><path d="m-224 544v96-32z"/><path d="m-32 608v-64 64 32z"/><path d="m0 512 32-32-64 64z"/><path d="m-160 608v16z"/><path d="m-160 624v16z"/><path d="m-96 624v-16z"/><path d="m-96 640v-16z"/><path d="m-64 640v-32z"/><path d="m-64 640h32z"/><path d="m-160 624h64z"/><path d="m-160 640h64z"/><path d="m-192 608h32z"/><path d="m-224 640h32z"/><path d="m-192 608v32z"/><path d="m-224 544-64-64z"/><path d="m608-960h-96z"/><path d="m-288-96v192z"/><path d="m-32-640v-96 96 32 64z"/><path d="m608-608v192 32-32-32-32-64z"/><path d="m608-832v192 32-64-64-64z"/><path d="m96-800h32 96-192z"/><path d="m32-800-64 64z"/><path d="m96 0v88 136z"/><path d="m288-288v-64 96z"/><path d="m-256 96h-32 32 128 32z"/><path d="m88-96h8-160z"/><path d="m-96 128v-32 32 96z"/><path d="m-256 128v96z"/><path d="m-256 224v-96z"/><path d="m-128 128v96z"/><path d="m-256 208v-64h16v64z"/><path d="m-256 224v-16h128v16z"/><path d="m-144 208v-64h16v64z"/><path d="m-240 208v-64h96v64z"/><path d="m-256 144v-16h128v16z"/><path d="m-156 616v4h56v-4z"/><path d="m-100 616v4z"/><path d="m-156 620v-4z"/><path d="m-100 620h-56z"/><path d="m-156 616h56z"/><path d="m4-1388v4h56v-4z"/><path d="m60-1388v4z"/><path d="m4-1384v-4z"/><path d="m60-1384h-56z"/><path d="m4-1388h56z"/><path d="m-160 384v-64h64v64z"/><path d="m160-1056v32z"/><path d="m160-1248h64z"/><path d="m224-1248v192z"/><path d="m160-1248h64v192h-64z"/><path d="m-96-1056h-64z"/><path d="m-160-1248v192z"/><path d="m-96-1248v192h-64v-192z"/><path d="m-96-1056v32z"/><path d="m64-960v64h-64v-64z"/><path d="m224-1056h-64z"/><path d="m224-1248h64z"/><path d="m288-1248v192z"/><path d="m224-1248h64v192h-64z"/><path d="m-160-1056h-64z"/><path d="m-224-1248v192z"/><path d="m-160-1248v192h-64v-192z"/><path d="m288-1056h-64z"/><path d="m288-1248h64z"/><path d="m352-1248v192z"/><path d="m288-1248h64v192h-64z"/><path d="m-224-1056h-64z"/><path d="m-288-1248v192z"/><path d="m-224-1248v192h-64v-192z"/><path d="m352-1056h-64z"/><path d="m416-1056h-30z"/><path d="m352-1248h32 2z"/><path d="m416-1056v-192z"/><path d="m386-1248h30v192h-30-34v-192z"/><path d="m-288-1056h-64z"/><path d="m-352-1248v192z"/><path d="m-288-1248v192h-64v-192z"/><path d="m386-1056h-2-32z"/><path d="m416-1248h-30 94z"/><path d="m416-1248h-30z"/><path d="m480-1248v192z"/><path d="m480-1056h-64v-192h64z"/><path d="m-352-1056h-32-32z"/><path d="m-416-1248v192z"/><path d="m-352-1248v192h-64v-192z"/><path d="m544-1056h-64z"/><path d="m480-1248h64z"/><path d="m544-1248v192z"/><path d="m480-1248h64v192h-64z"/><path d="m-416-1056h-64z"/><path d="m-480-1248h64z"/><path d="m-480-1248v192z"/><path d="m-416-1056h-64v-192h64z"/><path d="m-156 620v-4h56v4z"/><path d="m4-1384v-4h56v4z"/><path d="m64-1392h-64z"/><path d="m64-1392v-16h-64v16z"/><path d="m64-1408h-64z"/><path d="m0-1376h-32z"/><path d="m64-1376v-16h-64v16z"/><path d="m1216-512v-128h192v128 96h-192z"/><path d="m1408-416v128h-192v-128z"/><path d="m1216-512v96 128z"/><path d="m1408-640v128z"/><path d="m1216-288h192z"/><path d="m608-1056h-64z"/><path d="m544-1248h64z"/><path d="m608-1056v-192z"/><path d="m544-1248h64v192h-64z"/><path d="m-480-1056h-64z"/><path d="m-544-1248h64z"/><path d="m-544-1248v192z"/><path d="m-480-1056h-64v-192h64z"/><path d="m-160 608h64z"/><path d="m-96 608h32z"/><path d="m-160 624v16h64v-16z"/><path d="m-160 608v16h64v-16z"/><path d="m-160 624h64z"/><path d="m96-1376h-32z"/><path d="m64-1376h-64z"/><path d="m-384 480h-16-80z"/><path d="m-352 480h64z"/><path d="m224 480h-192z"/><path d="m-608-1248v192z"/><path d="m256-416h-224 64z"/><path d="m480-416h-224 64 32z"/><path d="m608-416h-128z"/><path d="m608-960h-96-64z"/><path d="m448-960h-224 128z"/><path d="m386-1056h30 64z"/><path d="m386-1056h94 64 64-160-64z"/><path d="m608-1056h64z"/><path d="m672-1248v192z"/><path d="m384-1248h-32-64-64-64 64z"/><path d="m608-1248h-64-64-94-2 64z"/><path d="m608-1248h64v192h-64z"/><path d="m160-1024 64 64z"/><path d="m160-1248-32-32-32-32z"/><path d="m608-640v224-192z"/><path d="m608-864v224-192z"/><path d="m608-960v96z"/><path d="m-96-1056h-64z"/><path d="m-32-1376v64z"/><path d="m-32-1312-32 32-32 32z"/><path d="m-384-1248h32-64z"/><path d="m-288-1248h-64z"/><path d="m-224-1248h-64z"/><path d="m-160-1248h-64z"/><path d="m-384-1248h-32-64-64-64 32z"/><path d="m-160-1248h-64-64-64-32 32z"/><path d="m-96-1248h-64z"/><path d="m-544-1056h-64v-192h64z"/><path d="m-160-960v96z"/><path d="m-160-640v224-112z"/><path d="m-160-864v224-112z"/><path d="m-96-1024-64 64z"/><path d="m-224-352h-32z"/><path d="m-256-352h-224 104 24 24z"/><path d="m224-352h-128-24-40z"/><path d="m32-352v-64z"/><path d="m-160-416-64 64z"/><path d="m72-112v160z"/><path d="m120 264v24z"/><path d="m120-160v24z"/><path d="m288-288v32z"/><path d="m288 192v224-104-24z"/><path d="m288-32v224-128z"/><path d="m288-256v224-128z"/><path d="m288 416-64 64z"/><path d="m288-288-64-64z"/><path d="m72-184h24z"/><path d="m120-136-24 24z"/><path d="m96-184 24 24z"/><path d="m96 16v-128h-24v160 32 32h24z"/><path d="m72 112v128h24v-128z"/><path d="m96 16v96 128-152z"/><path d="m96 312h-24z"/><path d="m120 288-24 24z"/><path d="m96 240 24 24z"/><path d="m48-160h-16-64-32-16z"/><path d="m-80-160h-224 144z"/><path d="m-544-288v128z"/><path d="m-352-184h24z"/><path d="m-480-352-64 64z"/><path d="m72-184-24 24z"/><path d="m-304-160-24-24z"/><path d="m-376-160 24-24z"/><path d="m-328-112v128z"/><path d="m-80 264h128-160z"/><path d="m-144 80h-184z"/><path d="m-104 48h176-184z"/><path d="m48-136h-112-16z"/><path d="m-80-136h-224 160 32z"/><path d="m-144-134v182z"/><path d="m72-112-24-24z"/><path d="m-112-134h-32z"/><path d="m-112-134h-32v182h32z"/><path d="m-304-136-24 24z"/><path d="m-104 48h-8-32-184v32h184 32 8z"/><path d="m72 80v-32h-176v32z"/><path d="m-144 264v-184z"/><path d="m-112 80v184z"/><path d="m48 264 24-24z"/><path d="m-144 80v184h32v-184z"/><path d="m-328 240 24 24z"/><path d="m72 312-24-24z"/><path d="m-80 288h-224 200z"/><path d="m-80 264h-32-32-160v24h224z"/><path d="m48 288v-24h-128v24z"/><path d="m-304 288-24 24z"/><path d="m-328 312 24-24z"/><path d="m-352 192h-192z"/><path d="m-352-64h-192z"/><path d="m-352-112-24-24z"/><path d="m-376-136v-24z"/><path d="m-352-96h-24-104z"/><path d="m-544-160 32 32 32 32z"/><path d="m-544-32v224-32z"/><path d="m-544-64v32z"/><path d="m-352-32v224-32z"/><path d="m-352-64v32z"/><path d="m-352 224h-24-24-144z"/><path d="m-384 312v168z"/><path d="m-376 288v-24z"/><path d="m-376 264 24-24z"/><path d="m-544 224v192z"/><path d="m-480 480-32-32-32-32z"/><path d="m-32 608v-64z"/><path d="m32 480-64 64z"/><path d="m-64 640h32v-32h-32z"/><path d="m-192 608h-32v32h32z"/><path d="m-192 608h32 64 32 32-192z"/><path d="m736-1248v192z"/><path d="m672-1056h64-64-64z"/><path d="m672-1248h64z"/><path d="m672-1248h64v192h-64z"/><path d="m-672-1248h64z"/><path d="m-608-1056h-64z"/><path d="m-672-1056v-192z"/><path d="m-608-1056h-64v-192h64z"/><path d="m72 240v-128-32z"/><path d="m-328-112v128 32z"/><path d="m-328 80v160z"/><path d="m-304 264h160z"/><path d="m72 80h-176-8z"/><path d="m-328 48h184z"/><path d="m48-136h-128z"/><path d="m-112-134v182z"/><path d="m-112-134v-2z"/><path d="m72-112-24-24h-128-32v2 182h184z"/><path d="m72-112-24-24z"/><path d="m-144-134v-2h-160l-24 24v160h184z"/><path d="m-304-136-24 24z"/><path d="m48 264 24-24v-160h-184v184z"/><path d="m-144 80h-184v160l24 24h160z"/><path d="m-328 240 24 24z"/></g><g id="c"><path d="m-1184-224v-64z"/><path d="m1984-640v32z"/><path d="m96-1376h-32-64-32z"/><path d="m1792-384h192z"/><path d="m1984-640h-192z"/><path d="m1792-448v-32-160h192v32 192h-192z"/><path d="m1984-416v32h-192v-32z"/><path d="m-864-1184 64-64z"/><path d="m1024-512v64 160-32-32z"/><path d="m1408-832h-208-16 16z"/><path d="m1376 128h96z"/><path d="m1408-704h64-64-32z"/><path d="m1120-768h80v64h-48-128v-64z"/><path d="m1184-832h16v64h-80z"/><path d="m1408-768v64h-32-176v-64-64h208z"/><path d="m1472-768v64h-64v-64z"/><path d="m1504-768h96v64h-128v-64z"/><path d="m1472-768h-64v-64h32l64 64z"/><path d="m1600-768h64l64 64h-128z"/><path d="m1440-832 64 64z"/><path d="m1472 64v-64 128z"/><path d="m1472-448v192 32-32z"/><path d="m1472-672v192 32z"/><path d="m1600-256v-64 192z"/><path d="m1792-448h-64z"/><path d="m1728-704 64 64v160h-192v-224z"/><path d="m1792-480v32h-64-128v-32z"/><path d="m1600-448h128l-128 128z"/><path d="m1728-448-32 32-96 96z"/><path d="m1600-704v224h-128v-192-32z"/><path d="m1600-480v32 128 64h-128v-192-32z"/><path d="m1600-256v128l-96 96h-32v-192-32z"/><path d="m1504-32-32 32v-32z"/><path d="m1504-32 96-96-128 128z"/><path d="m1376-224h-176-48z"/><path d="m1152-704v32z"/><path d="m1152-704v32h-128v-32z"/><path d="m1024-512v-128-32h128v224h-128z"/><path d="m1152-448v224h-64l-64-64v-160z"/><path d="m1088-224v160z"/><path d="m1088-64v-160h64 48v128 96h-48z"/><path d="m1200 0v48l-48-48z"/><path d="m1408 32v32h-96-32v-32z"/><path d="m1200-224h176 32v128h-128-80z"/><path d="m1200 0v-96h80v128 32h-64l-16-16z"/><path d="m1408 0v-96-128h64v192 32z"/><path d="m1472 64h-64v-32-32h64z"/><path d="m1408-96-32 32h-64l-32-32z"/><path d="m1152 0 48 48 16 16-128-128z"/><path d="m1280 32 32-32h64l32 32z"/><path d="m1280-96 32 32v64l-32 32z"/><path d="m1312 64h96 64v64h-96z"/><path d="m800-1248h64l64 64v128 32h-128z"/><path d="m928-1024v192h-128v-192z"/><path d="m1024-704h-32v-64h32z"/><path d="m1024-672h-32v-32h32z"/><path d="m1024-672v32h-32v-32z"/><path d="m928-832 64 64v64 32 32h-192v-160-32z"/><path d="m736-1056v-192h64v224h-64z"/><path d="m800-1024v192 32h-64v-128-96z"/><path d="m800-800v160l-64-64v-96z"/><path d="m352-960h-128-64-32v96 64h64 160z"/><path d="m576-960h-128-96v160h64 34 126z"/><path d="m608-800v-64-96h-32v160z"/><path d="m608-640v-160h-32-126v96 128h158z"/><path d="m450-576v96 64h30 128v-160z"/><path d="m256-480h-64-160v64h224z"/><path d="m450-416v-64h-34-160v64z"/><path d="m128-1088v16h32 64v-112l-64-64-32-32z"/><path d="m224-1248h-64l64 64z"/><path d="m160-1072v16h64v-16z"/><path d="m160-1024v-32-16h-32v112h32z"/><path d="m224-960-64-64v64z"/><path d="m288-256v-32l-32-32v184 40h32z"/><path d="m256-96v184 40h32v-160-64z"/><path d="m256 128v136 88h32v-160-64z"/><path d="m256-136v-184l-32-32h-104v192 24z"/><path d="m256-96v-40h-136l-24 24v128 72h160z"/><path d="m96 88v152l24 24h136v-136-40z"/><path d="m128-1088v-192l-32-32v160 64z"/><path d="m128-864v-96-112-16h-32v160 64z"/><path d="m128-800v-64h-32v64z"/><path d="m120-352h-24v168l24 24z"/><path d="m96-1152v-160-64h-128v64 160z"/><path d="m96-928v-160-64h-128v64 160z"/><path d="m96-800v-64-64h-128v64 64z"/><path d="m96-352h-24v168h24z"/><path d="m72-184v-168h-40v96 96h16z"/><path d="m32-256v-96-64-64h-64v64 160z"/><path d="m32-160v-96h-64v64 32z"/><path d="m-32-1152v-160l-32 32v192h32z"/><path d="m-64-1088v32 32 160h32v-64-160z"/><path d="m-64-864v64 160h32v-64-96-64z"/><path d="m-64-640v64 160h32v-64-160z"/><path d="m-64-416v64 160h32v-64-160z"/><path d="m-64-192v32h32v-32z"/><path d="m-64-1088v-192l-32 32v192h32z"/><path d="m-96-1056v32h32v-32z"/><path d="m-64-800v-64-160h-32l-48 48v176z"/><path d="m-64-576v-64-160h-80v48 176z"/><path d="m-64-352v-64-160h-80v48 96 80z"/><path d="m-80-160h16v-32-160h-80v144 48z"/><path d="m-96-1056v-192h-64v192z"/><path d="m-112-134v-2h-32v2z"/><path d="m-144-800v-176l-16 16v96 112h16z"/><path d="m-160-752v112 112h16v-48-176z"/><path d="m-160-528v112l16-16v-96z"/><path d="m-144-208v-144-80l-16 16-64 64v144z"/><path d="m-144-160v-48h-80v48z"/><path d="m-224-160v-48-144h-32-72v168l24 24z"/><path d="m-328-352h-24v168h24z"/><path d="m-352-352h-24v192l24-24z"/><path d="m-376-128v32h24v-16l-24-24z"/><path d="m-352-32v-32h-192v32 192h192z"/><path d="m-544 160v32h192v-32z"/><path d="m-376-128v-8-24-192h-104l-64 64v128l32 32z"/><path d="m-376-96v-32h-136l32 32z"/><path d="m-800-1248h128v192 32h-128z"/><path d="m-672-1024v128 96h-128v-128-96z"/><path d="m-672-800v128l-48 48h-80v-176z"/><path d="m-864-1088v-96l64-64v224h-64z"/><path d="m-800-1024v96l-64 64v-160z"/><path d="m-864-864 64-64v128h-96-32z"/><path d="m-1056-800h128 32v176h-48-176v-80-32z"/><path d="m-896-800h96v176h-96z"/><path d="m-896-624h96 80l-16 16h-192-16v-16z"/><path d="m-944-608h16v32 96l-16 16z"/><path d="m-944-624v16 144l-48 48h-64l-64-64v-144z"/><path d="m-960-224h-224v-64h224z"/><path d="m-928-288v64h-32v-64z"/><path d="m120 288v24 40h104 32v-88h-136z"/><path d="m120 288-24 24h24z"/><path d="m-104 288h-200l-24 24h200 24z"/><path d="m0 312h72l-24-24h-128-24v24z"/><path d="m120 312h-24-24-72v40h120z"/><path d="m224 352h-104-120v128h32 192z"/><path d="m288 416v-64h-32-32v128z"/><path d="m-128 312h-200-24v168h64 64 96z"/><path d="m0 352v-40h-104-24v168h96 32z"/><path d="m-376 264 24-24v-16h-24z"/><path d="m-376 312h24l-24-24z"/><path d="m-376 288v-24-40h-24v88h16 8z"/><path d="m-384 312h-16v136 32h16z"/><path d="m-400 312v-88h-144v192l32 32h112z"/><path d="m-512 448 32 32h80v-32z"/><path d="m-576-1248h-32-64-128z"/><path d="m-352-1248h-32-192z"/><path d="m448-1248h-64-160 16z"/><path d="m672-1248h-64-160 16z"/><path d="m864-1248 64 64z"/><path d="m450-480h-34z"/><path d="m-32-704v64 160-96z"/><path d="m736-928v128 96-144z"/><path d="m1024-768h-32z"/><path d="m928-1184v128z"/><path d="m928-832 64 64z"/><path d="m992-640h32-208-16z"/><path d="m800-640-64-64z"/><path d="m192-800h-64-32-128 64z"/><path d="m416-800h-64-160 64z"/><path d="m736-1056h-64z"/><path d="m450-800v64 32z"/><path d="m-672-1024v-32 160z"/><path d="m-160-1056h-16-48z"/><path d="m-1056-800h128z"/><path d="m-864-1088v64 160-96z"/><path d="m-928-224v-64z"/><path d="m-736-608h-192z"/><path d="m-720-624 48-48-48 48-16 16z"/><path d="m-928-224h-32z"/><path d="m-1120-736 64-64z"/><path d="m-1056-416h64z"/><path d="m-1120-704v80 144-32z"/><path d="m-944-464 16-16-64 64z"/><path d="m-1056-416-64-64z"/><path d="m-960-288h-224 128 64z"/><path d="m256-416h-224z"/><path d="m480-416h-30-194z"/><path d="m96-1312v-64z"/><path d="m576-960h32-160z"/><path d="m160-1024v-32z"/><path d="m384-1056h-160-64 64 64 64z"/><path d="m672-1248h-64z"/><path d="m224-960-64-64z"/><path d="m128-1280 32 32-64-64z"/><path d="m608-640v64 160z"/><path d="m608-864v64 160z"/><path d="m-384-1056h-64-160 64 64 64z"/><path d="m-160-1056h-64-160 32 64 64z"/><path d="m-64-1280 32-32-64 64z"/><path d="m-96-1248h-64z"/><path d="m-96-1056v32z"/><path d="m-160-960v96z"/><path d="m-144-976 48-48-64 64z"/><path d="m-224-352h-32z"/><path d="m72-352h24 24 104-192z"/><path d="m32-352v-64z"/><path d="m-160-416-64 64z"/><path d="m288 192v160 64z"/><path d="m288-32v160 64z"/><path d="m288-256v160 64z"/><path d="m256-320 32 32-64-64z"/><path d="m96-184 24 24z"/><path d="m96-112v128z"/><path d="m96 240 24 24z"/><path d="m-80-160h-64-80-80z"/><path d="m-480-352-64 64z"/><path d="m-112-136h-32z"/><path d="m-144-136v2z"/><path d="m72 312-24-24z"/><path d="m48 288h-128z"/><path d="m-352-64h-192z"/><path d="m-352-112v16z"/><path d="m-352-112-24-24z"/><path d="m-512-128-32-32 64 64z"/><path d="m-544-64v32z"/><path d="m-352-32v192 32z"/><path d="m-400 224h24 24-192z"/><path d="m-352 312h24z"/><path d="m-376 312h-8 32z"/><path d="m-352 224v16z"/><path d="m-352 312-24-24z"/><path d="m-352 312v168z"/><path d="m-224 544v64z"/><path d="m32 480h-32-32v64z"/><path d="m-128 480h-96v64 64h192v-64-64z"/><path d="m-224 480h-64l64 64z"/><path d="m-288 480 64 64z"/><path d="m-928-576v-32z"/><path d="m-928-416v-64-96 176 48z"/><path d="m-928-480v-96z"/><path d="m-960-224h-224z"/><path d="m-1056-416h-64v-64z"/><path d="m-928-480v64h-64z"/><path d="m-1056-416h64 64v64l-64 64h-64l-64-64v-64z"/><path d="m-960-288h-32-64-128v64h224z"/><path d="m-928-224v-64h-32v64z"/><path d="m-1056-288h64z"/><path d="m-928-352-64 64z"/><path d="m-1120-416v64z"/><path d="m-928-288h-32z"/><path d="m1984-384v64z"/><path d="m1984-320h-192z"/><path d="m1984-384v64h-192v-64z"/><path d="m1376-704h-192-32 48z"/><path d="m1472-704v32z"/><path d="m1472-224h-64-32z"/><path d="m1152-448v192 32z"/><path d="m1152-672v192 32z"/><path d="m1408-256h-32-192 32z"/><path d="m1184-672v192z"/><path d="m1440-672h-32z"/><path d="m1408-672h-224v-32h192 32z"/><path d="m1472-704v32h-32-32v-32z"/><path d="m1440-480v32 192-160z"/><path d="m1440-480v-192h32v224h-32z"/><path d="m1472-448v192h-32v-192z"/><path d="m1152-672v-32h32v32 192h-32z"/><path d="m1184-480v224h-32v-192-32z"/><path d="m1376-224h-224v-32h32 192z"/><path d="m1408-256h32 32v32h-96v-32z"/><path d="m1024-288 64 64h-64z"/><path d="m1024-288 64 64z"/><path d="m1216 64h64 32-64z"/><path d="m1088 64h128-192z"/><path d="m1312 0v-64h64v64z"/><path d="m1216 64h-128v-64-64z"/><path d="m1376 0v-64l32-32v96 32z"/><path d="m1024 0v-224h64v160 64z"/><path d="m1088 64h-64v-64h64z"/><path d="m992 0v32-224z"/><path d="m992 0v-192l32-32v224z"/><path d="m1024 64-32-32v-32h32z"/><path d="m1024 64-32-32z"/><path d="m1216-640v128z"/><path d="m1216-512v224-160z"/><path d="m1216-640h192z"/><path d="m1216-640h192z"/><path d="m1408-640v128z"/><path d="m1408-512v224-128z"/><path d="m1408-288h-192z"/><path d="m1408-512v-128h-192v128 224h192z"/><path d="m1216-512v-128h192v128 224h-192z"/><path d="m-928-352v64z"/><path d="m-928-288v64z"/><path d="m-1168-224h176-192z"/><path d="m-928-224h-64z"/><path d="m-1184-288 16-16v16 64h-16z"/><path d="m-992-224h-176v-64h112 64 64v64z"/><path d="m-1120-352 64 64h-112v-16z"/><path d="m-928-352v64h-64z"/><path d="m-1120-352 64 64z"/><path d="m-992-224h64v-64z"/><path d="m-992-224 64-64z"/><path d="m1984-320v64z"/><path d="m1792-320v-64z"/><path d="m1984-256h-192z"/><path d="m1984-320v64h-192v-64z"/><path d="m1440-256h-32z"/><path d="m1184-480v32 192z"/><path d="m1408-672h-192-32z"/><path d="m1440-640v-32 192z"/><path d="m1216-640v128z"/><path d="m1408-672h32v32h-32-192v-32z"/><path d="m1408-512v96 128z"/><path d="m1408-512v-128h32v160 64h-32z"/><path d="m1440-416v160h-32v-32-128z"/><path d="m1408-256h-192v-32h192z"/><path d="m1216-672v32 128 64h-32v-32-192z"/><path d="m1216-448v160 32h-32v-192z"/><path d="m192-480h-160-64 64z"/><path d="m416-480h-30-130-64 64z"/><path d="m-32-800v96z"/><path d="m450-800h-34z"/><path d="m450-704v192 32-96z"/><path d="m256-736h-224z"/><path d="m256-800h-64-160v64h224z"/><path d="m386-736h64v-64h-34-160v64z"/><path d="m450-704v-32h-64v192 32h64z"/><path d="m386-512v32h30 34v-32z"/><path d="m386-544h-130z"/><path d="m256-544h-224v64h160 64z"/><path d="m386-480v-32-32h-130v64z"/><path d="m32-576v-160-64h-64v96 128z"/><path d="m32-480v-64-32h-64v96z"/><path d="m928-160v160z"/><path d="m928-160h32v160h-32z"/><path d="m992 32-32-32v-160l32-32z"/><path d="m960-160h-32z"/><path d="m960-160 32-32z"/><path d="m992 32-32-32z"/><path d="m-1184-32v-48-144z"/><path d="m-928-32h128-16-128-16z"/><path d="m-672-352v192z"/><path d="m-704-352h-96-128z"/><path d="m-800-224v-128h96 32v192l-32 32h-96z"/><path d="m-704-128-96 96v-64-32z"/><path d="m-928-288v-64h128v128h-128z"/><path d="m-800-32h-128v-64h128z"/><path d="m-928-224 32 32v64l-32 32z"/><path d="m-928-96 32-32h64l32 32z"/><path d="m-928-288v64h-32-32z"/><path d="m-960-32h-224v-192h192 32z"/><path d="m-928-224v128 64h-32v-192z"/><path d="m1984-256v64z"/><path d="m1792-256v-64z"/><path d="m1792-192v-64z"/><path d="m1984-192h-192z"/><path d="m1984-256v64h-192v-64z"/><path d="m928 0h-64z"/><path d="m864-160h64z"/><path d="m864-160v160z"/><path d="m928 0h-64v-160h64z"/><path d="m1984-192v64z"/><path d="m1792-128v-64z"/><path d="m1792-128h192z"/><path d="m1984-192v64h-192v-64z"/><path d="m32-736v160 32z"/><path d="m386-736h-130z"/><path d="m386-544v-192z"/><path d="m256-544h-224z"/><path d="m800-160v160z"/><path d="m928 0h32z"/><path d="m864 0h64-32-96z"/><path d="m864 0h-64v-160h64z"/><path d="m-896-128v-64h64v64z"/><path d="m-832-128v-64l32-32v96 32z"/><path d="m-832-192h-64l-32-32h128z"/><path d="m1984-128v32 32z"/><path d="m1792-64v-32-32z"/><path d="m1984-64h-192z"/><path d="m1984-128v64h-192v-64z"/><path d="m800 0h-64z"/><path d="m736-160h64z"/><path d="m736 0v-160z"/><path d="m800 0h-64v-160h64z"/><path d="m1984-64v64z"/><path d="m1792 0v-64z"/><path d="m1984 0h-192z"/><path d="m1984-64v64h-192v-64z"/><path d="m0 32v-32-32l64-64v160h-64z"/><path d="m672-160v160z"/><path d="m736 0h-64z"/><path d="m672-160h32 32z"/><path d="m736 0h-64v-160h64z"/><path d="m-32 0h-162-62v-32h96 128z"/><path d="m0-32v32h-32v-32z"/><path d="m-32 0h32v32h-66-128v-32z"/><path d="m-66 160v-128h66v32 160h-66z"/><path d="m-66 160v64h-30-48v-32-32z"/><path d="m-194 192v-32h50v32z"/><path d="m-256 192v-64-128h62v32 128 32z"/><path d="m-194 192h50v32h-112v-32z"/><path d="m-66 224h66l64 64h-160v-64z"/><path d="m-256 128v64 32l-64 64v-160z"/><path d="m-66 32-32 32h-64l-32-32z"/><path d="m-160-32h-96l-64-64h160z"/><path d="m-194 32 32 32v64l-32 32z"/><path d="m1984 0v64z"/><path d="m1792 64v-64z"/><path d="m1984 64h-192z"/><path d="m1984 0v64h-192v-64z"/><path d="m544-96v96z"/><path d="m640 32 32-32z"/><path d="m544 0v-96l64-64v160z"/><path d="m608 0v-160h64v160l-32 32z"/><path d="m544 0h64z"/><path d="m608 0 32 32z"/><path d="m-98 64v64h-64v-64z"/><path d="m-98 64 32-32v128l-32-32z"/><path d="m-98 128 32 32h-78-50l32-32z"/><path d="m1280-544v64h64v-64z"/><path d="m1280-480v-64l-32-32v128z"/></g><g id="d"><path d="m-1184-288v64z"/><path d="m1984-608v-32 96z"/><path d="m1984-608v64 160-32z"/><path d="m1792-448v32 32z"/><path d="m1792-96v32 64 64 64-128z"/><path d="m1792-320v64 64 64 32-128-64z"/><path d="m1792-544v96 64 64-96z"/><path d="m1984-640h-192z"/><path d="m1792 128h192z"/><path d="m1792 64h192v64h-192z"/><path d="m1792-640-64-64-64-64z"/><path d="m1024-576v-32-32 128z"/><path d="m1024-288v64z"/><path d="m1424-832h16-32z"/><path d="m1376 128h96z"/><path d="m1792-627v-13l-128-128h-64v96 45z"/><path d="m1600-627h-176-48v51 128h96 128z"/><path d="m1696-448h32 64v-96-83h-192v179z"/><path d="m1696-448h-96-128l128 128 96-96z"/><path d="m1728-448h-32v32z"/><path d="m1408-832h-208v205h48 128 48v-205z"/><path d="m1424-627h176v-45l-96-96-64-64h-16z"/><path d="m1600-672v-96h-96z"/><path d="m1248-448v-128-51h-48v19 32 128z"/><path d="m1248-627v51h128v-51z"/><path d="m1200-608v-19-205h-16l-64 64-96 96v16 16 32z"/><path d="m1024-576h128 48v-32h-176z"/><path d="m1024-752v80l96-96h-96z"/><path d="m1152-448h48v-128h-48z"/><path d="m1152-448v-128h-128v64 160h32z"/><path d="m1024-352v32l32-32z"/><path d="m1472 0v96 32z"/><path d="m1600-128v-192 96z"/><path d="m1600-128-128 128z"/><path d="m1472-448 128 128z"/><path d="m1312 64h-64z"/><path d="m1376-448h-128-48-48z"/><path d="m1120-768h-96z"/><path d="m1600-768h64-64-96z"/><path d="m1184-832-64 64z"/><path d="m1376-576-32 32v64l32 32z"/><path d="m1248-576 32 32h64l32-32z"/><path d="m1376-448-32-32h-64l-32 32z"/><path d="m1312 64 64 64z"/><path d="m-176-1248h16-192z"/><path d="m688-1248h176-64-64-64z"/><path d="m240-1232v-16h-16v176h16z"/><path d="m448-1072h-208-16v16h224z"/><path d="m672-1072h-208-16v16h224z"/><path d="m736-1056v-16h-48-16v16z"/><path d="m752-928v-144h-16v16 128 80h16z"/><path d="m736-848v144h16v-144z"/><path d="m992-768 16 16h16v-16z"/><path d="m800-640h16l-16-16-48-48h-16z"/><path d="m800-656 16 16h208v-16z"/><path d="m992-752h16l-16-16-64-64v16z"/><path d="m928-1056v-128h-16v128 96h16z"/><path d="m912-960v128l16 16v-16-128z"/><path d="m464-1248h-16-208v16h224z"/><path d="m688-1248h-16-208v16h224z"/><path d="m864-1232v-16h-176v16z"/><path d="m928-1184-64-64v16l48 48z"/><path d="m1024-656h-112-112z"/><path d="m464-1232h-224z"/><path d="m688-1232h-224z"/><path d="m752-928v80 144-80z"/><path d="m1008-752h-16 32z"/><path d="m912-1184v128z"/><path d="m912-1184-48-48z"/><path d="m752-704 48 48z"/><path d="m240-1232v160z"/><path d="m736-1072h16-64z"/><path d="m736-1056v32 96z"/><path d="m928-1056v96 128-192z"/><path d="m224-1072v-176 64 112 16z"/><path d="m448-1056h-224 160z"/><path d="m672-1056h-224 160z"/><path d="m480 64h128z"/><path d="m544 0h64l32 32-32 32h-128v-64z"/><path d="m544-96v-64h64z"/><path d="m544-96v96h-64v-160h64z"/><path d="m928 0h32-32-32z"/><path d="m704-160h-32-64-64-64z"/><path d="m928-160h-128-64-32 192z"/><path d="m992 32 32 32-64-64z"/><path d="m1024-224-32 32z"/><path d="m928-160h-64-64z"/><path d="m608-160h64z"/><path d="m608-160-64 64z"/><path d="m-672-160-128 128 96-96z"/><path d="m-816-32h-128z"/><path d="m-960-32h-208-16z"/><path d="m-160-1056v-192z"/><path d="m-160-1248h-16v16 160 16h16z"/><path d="m-576-1248h-224v16h224z"/><path d="m-352-1248h-224v16h224z"/><path d="m-176-1232v-16h-176v16z"/><path d="m-464-1072h-224v16h16 208z"/><path d="m-240-1072h-224v16h16 208z"/><path d="m-224-1056h48v-16h-64v16z"/><path d="m-672-896v-160h-16v160 64h16z"/><path d="m-688-832v160h16v-160z"/><path d="m-720-624 48-48h-16l-48 48z"/><path d="m-864-1184h16l48-48v-16z"/><path d="m-848-1088v-96h-16v96 128h16z"/><path d="m-864-960v96 16l16-16v-96z"/><path d="m-864-848v-16l-64 64-16 16h16z"/><path d="m-1056-800v16h112l16-16z"/><path d="m-1104-576v-160h-16v32 192h16z"/><path d="m-1120-512v32 64 64 16l16-16v-160z"/><path d="m-1120-736h16l48-48v-16z"/><path d="m-736-608 16-16h-16-192v16z"/><path d="m-672-352h-16v16 176h16z"/><path d="m-720-336h32v-16h-16-224v16z"/><path d="m-672-160h-16l-128 128h16z"/><path d="m-928-576v-32-16h-16v64 160h16z"/><path d="m-944-400v64h16v-16-48z"/><path d="m-1120-336v-16l-48 48v16z"/><path d="m-1168-256v-32-16l-16 16v64 144h16z"/><path d="m-1184-80v48h16v-48z"/><path d="m-576-1232h-224z"/><path d="m-352-1232h-224z"/><path d="m-688-1056v-16 176z"/><path d="m-688-336v176z"/><path d="m-176-1072v-160z"/><path d="m-176-1072h-64z"/><path d="m-848-1088v128 96-144z"/><path d="m-800-1232-48 48z"/><path d="m-944-624v64z"/><path d="m-720-336h-208-16z"/><path d="m-736-624 48-48z"/><path d="m-688-160-128 128z"/><path d="m-1104-576v64 160-208z"/><path d="m-1056-784-48 48z"/><path d="m-1168-256v176 48z"/><path d="m-672-896v64 160-128z"/><path d="m-448-1056h-16-208 64z"/><path d="m-224-1056h-16-208 64z"/><path d="m-864-1184v96z"/><path d="m-864-864-64 64z"/><path d="m-688-352h16-32z"/><path d="m-1120-480v64z"/><path d="m-1120-736v32z"/><path d="m-1168-304 48-48-48 48-16 16z"/><path d="m1984 128v32 32z"/><path d="m1792 192v-64z"/><path d="m1792 192h192z"/><path d="m1984 192h-192v-64h192z"/><path d="m608 64v64z"/><path d="m608 128h-128z"/><path d="m480 64h128v64h-128z"/><path d="m1984-96v-192 16 208z"/><path d="m1984-96v32 192-64-64-64z"/><path d="m1984-320v32 192-32-64-64z"/><path d="m1984-544v128 96-64z"/><path d="m192 1376h32z"/><path d="m256 1376h64z"/><path d="m-512 1024-64-64z"/><path d="m-512 352v128 96h-64v-64-96z"/><path d="m-512 576v128 96h-64v-64-160z"/><path d="m-512 800v128 96l-64-64v-160z"/><path d="m-512 352 32-32v128 32h-32z"/><path d="m-480 480h80v224h-112v-128-96z"/><path d="m-400 704v96 128h-112v-128-96z"/><path d="m-400 928v96h-112v-96z"/><path d="m-400 0v224h-80v-128-96z"/><path d="m-400 224v116 108h-80v-128-96z"/><path d="m-400 928v-128h16 32l32 32v192h-80z"/><path d="m-352 800h-32v-32z"/><path d="m-320 832h224v192h-192-32z"/><path d="m-96 832h160v192h-128-32z"/><path d="m192 1344h16 16v32h-32z"/><path d="m256 1360h64v16h-64z"/><path d="m320 1360h-64v-16h64z"/><path d="m352 1344h32v32h-32z"/><path d="m208 1312v32h-16v-192h16z"/><path d="m120 1080h88v8 64h-16z"/><path d="m386 1088h-2-176v-8h80 98z"/><path d="m208 1152v-64h176v64 160h-176z"/><path d="m384 1312v32h-32-32-64-32-16v-32z"/><path d="m96 800h132v64 128 32h-164v-192z"/><path d="m386 930v94h-30v-32-128h30z"/><path d="m288 1080h-80-88l-56-56h164 60z"/><path d="m356 1024h30v56h-98v-56z"/><path d="m356 992v32h-68-60v-32z"/><path d="m228 800h92 66v64h-30-128z"/><path d="m-352 448h-48v-108h48 176v108z"/><path d="m-176 340h48 128v12 96h-128-48z"/><path d="m-400 448h48l-16 32h-32-80v-32z"/><path d="m-384 480h16l-16 32z"/><path d="m-400 480h16v32 32 160h-16z"/><path d="m-384 704v64 32h-16v-96z"/><path d="m-128 340h-48-176v-20h32 192z"/><path d="m-96 320h96v20h-128v-20z"/><path d="m-400 224v-224h48v128 96z"/><path d="m-352 288v32 20h-48v-116h48z"/><path d="m386 400v176h-130v-96-96h32 98z"/><path d="m96 448h128v32h-96z"/><path d="m96 352h128v96h-128-96v-96z"/><path d="m256 384v-32l32 32z"/><path d="m224 576-96-96h96 32v96z"/><path d="m192 704h128v96h-92-132z"/><path d="m320 704h64l2 2v94h-66z"/><path d="m0 340v-20h64 32v32h-96z"/><path d="m224 448v-96-32l32 32v32 96h-32z"/><path d="m-96 320h-32-192v-32h224z"/><path d="m64 288v32h-64-96v-32z"/><path d="m-1120-336h16v-16z"/><path d="m-1168-336h48l-48 48z"/><path d="m-592-68-48 36h-80-96l128-128 96-96z"/><path d="m-555.6364-292.3636 43.6364 36.3636v32 64 32l-80 60v-188z"/><path d="m-512-160v-64h32v64z"/><path d="m-688-336h80l52.3636 43.6364-36.3636 36.3636-96 96z"/><path d="m-944-624v-160h-112l-48 48v160 16h160z"/><path d="m-1104-560v208 16h160v-224z"/><path d="m-928-784h-16v160h144v-160z"/><path d="m-800-848v-16h-48l-80 80h128z"/><path d="m-800-1072v-160l-48 48v96 80h48z"/><path d="m-848-1008v144h48v-144z"/><path d="m-688-896v-176h-112v64 144 16h112z"/><path d="m-800-848v64 160h64l48-48v-176z"/><path d="m-352-256v128 32 64h-128v-96-32-64-32z"/><path d="m-352-32v32h-48-80v-32z"/><path d="m-352 0v-32-64h32v224h-32z"/><path d="m-320 128v160h-32v-64-96z"/><path d="m-192-288h-32l32-32z"/><path d="m-576-1232h-224v160h112 112z"/><path d="m-352-1232h-224v160h112 112z"/><path d="m-240-1072h64v-160h-176v160z"/><path d="m-160-384v32 64h-32v-32-64z"/><path d="m-96-400v16 32h-64v-32-16z"/><path d="m-96-352v64h-64v-64z"/><path d="m-96-416v16h-64v-16z"/><path d="m-96-352v-32h32v64 32h-32z"/><path d="m-64-320 32 32h-32z"/><path d="m-192-288h32 64 32 32v32h-96-128l32-32z"/><path d="m-32-288 32 32h-32z"/><path d="m-96-96h-64-160v-32h192 32z"/><path d="m64-128v32h-160v-32z"/><path d="m-128-128h-192-32v-128h96 128z"/><path d="m-32-256h32 96v128h-32-160-32v-128z"/><path d="m64 64v-160h32v64 160h-32z"/><path d="m96 128v64 96h-32v-160z"/><path d="m96-96v-32-128h128v128 96h-128z"/><path d="m224-32v128 96h-128v-64-160z"/><path d="m224 192v128 32h-128v-32-32-96z"/><path d="m224-320v64h-128l64-64z"/><path d="m288-320v128l-64 64v-128-64z"/><path d="m386 1088h62l-64 64v-64z"/><path d="m512 930v-98h224v192h-224z"/><path d="m736 832h96v160 32h-96z"/><path d="m896 768h130v64 160h-194v-160z"/><path d="m1026 992v32h-66-128v-32z"/><path d="m1026 992v-160h64v128l-64 64z"/><path d="m1120 768h34l-64 64h-64v-64z"/><path d="m386 864v-64-94l126 126v98h-126z"/><path d="m512 930v94l-64 64h-62v-8-56-94z"/><path d="m400 400h208v48l-128 128h-32-62v-176z"/><path d="m480 352h-32l32-32z"/><path d="m416 384-16 16h-14v-16z"/><path d="m400 400 16-16 32-32h32 128v48z"/><path d="m480 320v-192h128v96 128h-128z"/><path d="m960 576h160v192h-94-130v-128z"/><path d="m1120 576h64 16v16 176h-46-34z"/><path d="m1200 592h80 144v158l-18 18h-28-178z"/><path d="m1424 592h30v128l-30 30z"/><path d="m1200 576h80v16h-80z"/><path d="m1344 464h110v80 48h-30-144v-16-112z"/><path d="m1454 592v-48h16v160l-16 16z"/><path d="m1472 464h78l-16 16-64 64h-16v-80z"/><path d="m1200 160h80v32 192l-80-80z"/><path d="m1504 96v32h-32v-32z"/><path d="m1472 128h32v32h-32-64l-32-32z"/><path d="m1344 192h-64v-32h128 64v32z"/><path d="m1454 464h-110v-48-96h128v64 80z"/><path d="m1280 416v-32-192h64v128 96z"/><path d="m1344 464h-64v-48h64z"/><path d="m1888 448h-192-32v-16h128 96z"/><path d="m1936 432-16 16h-32v-16z"/><path d="m1664 432v-82-94h32 64 32v176z"/><path d="m1504 160h160v64 32 94l-34 34h-158v-64-128-32z"/><path d="m1630 384-80 80h-78v-80z"/><path d="m1550 464 80-80 34-34v82 16 32h-130z"/><path d="m1600 96h64v64h-160v-32-32z"/><path d="m1984 384-48 48h-48-96v-176-32-32h192z"/><path d="m416 0v-160-64h64v64 160z"/><path d="m416 64v-64h64v64 64z"/><path d="m608 64 64-64h64l-64 64-64 64z"/><path d="m896 0v32 32h-224l64-64z"/><path d="m704-160h-224v-64h160 64z"/><path d="m864-224h32v32 32h-192v-64z"/><path d="m896-224h32v32h-32z"/><path d="m928 32v32h-32v-32z"/><path d="m1184 64h16v96 144l-16-16z"/><path d="m464-1232h-224v160h224z"/><path d="m688-1232h-224v160h224z"/><path d="m752-1072v-160h-64v160z"/><path d="m1024-656v-64l-32-32-80-80v48 128z"/><path d="m992-752 32 32v-32z"/><path d="m912-1008v-48-128l-48-48h-112v160 64z"/><path d="m912-784v-48-176h-160v80 144z"/><path d="m800-656h112v-128h-160v80z"/><path d="m1200 64h48 64l64 64 32 32h-128-80z"/><path d="m1504 96h-32v-96l128-128v128 96z"/><path d="m1600 96v-96l64 64v32z"/><path d="m1600-448h-128l128-128z"/><path d="m1600-448v-128h64l64 64v64l-96 96h-32z"/><path d="m1632-352-32 32v-32z"/><path d="m1984-544v-96h-192v96 128h192z"/><path d="m1792-416v96 32h192v-32-96z"/><path d="m1936 432 48-48-48 48-16 16z"/><path d="m-1168-256v224-80z"/><path d="m1664-576h-64z"/><path d="m1472-448h128z"/><path d="m1376-448h-224 16z"/><path d="m1728-448v-64z"/><path d="m1728-512-64-64z"/><path d="m1472-448 128-128z"/><path d="m-576 736v64 160-96z"/><path d="m-576 512v64 160-96z"/><path d="m736 832h-224z"/><path d="m-96 832h-224z"/><path d="m-384 512v32z"/><path d="m1632-352 96-96-96 96-32 32z"/><path d="m1472-448 112 112 16 16z"/><path d="m1664 160v-64-32 16 144z"/><path d="m1760 256h-64 16z"/><path d="m1792 0v128 64 32-64z"/><path d="m1792-224v128 96-64z"/><path d="m1888 448h32-32-192z"/><path d="m256 352-32-32 64 64z"/><path d="m416-160v160 64-16-32z"/><path d="m928 64h-32z"/><path d="m1600-320v96z"/><path d="m1664 64-64-64z"/><path d="m928 64v-32 16z"/><path d="m928-192v-32 16z"/><path d="m960-160h-32z"/><path d="m960-160 64-64z"/><path d="m928 0h32z"/><path d="m640-224h-160-64z"/><path d="m864-224h-160-64z"/><path d="m896 768v-128z"/><path d="m1406 768h-16-12z"/><path d="m1664 480h-130z"/><path d="m1472 192-32 32h-64l-32-32z"/><path d="m1344 320 32-32h64l32 32z"/><path d="m1344 192 32 32v64l-32 32z"/><path d="m1470 544v160z"/><path d="m1534 480-64 64z"/><path d="m1424 750 46-46-64 64z"/><path d="m1184 576h-64-160z"/><path d="m1200 304 80 80-80-80-16-16z"/><path d="m1154 768-64 64z"/><path d="m608 128v96z"/><path d="m672 64-64 64z"/><path d="m448 352-32 32 64-64z"/><path d="m96-128h-32z"/><path d="m288-320v128z"/><path d="m288-192-16 16-48 48z"/><path d="m96-128v32z"/><path d="m224-32v-96 208 16z"/><path d="m0 448h96-9.6-214.4z"/><path d="m64 320v-32z"/><path d="m96 320h-32z"/><path d="m96 288v32z"/><path d="m-320 288v32z"/><path d="m-320 288h-32z"/><path d="m-320 320h-32z"/><path d="m-352 320v-32z"/><path d="m480 576h-16-16z"/><path d="m-368 480 16-32-32 64z"/><path d="m128 480 96 96-16-16-112-112z"/><path d="m-352 800-32-32 64 64z"/><path d="m224 1344v32z"/><path d="m384 1344v-32-160 192 32z"/><path d="m1026 1024h-66z"/><path d="m448 1088 64-64-128 128z"/><path d="m224 1344h32z"/><path d="m356 864-32 32h-64l-32-32z"/><path d="m228 864 32 32v64l-32 32z"/><path d="m228 992 32-32h64l32 32z"/><path d="m320 1360v-16z"/><path d="m320 1376v-16z"/><path d="m256 1344v16z"/><path d="m256 1360v16z"/><path d="m256 1360h64z"/><path d="m64 1024h-128z"/><path d="m-512-160v16 16z"/><path d="m-320-128h-32z"/><path d="m-96-400v-16z"/><path d="m-96-384v-16z"/><path d="m-64-384h-32z"/><path d="m-64-384v64z"/><path d="m-160-400v16z"/><path d="m-160-416v16z"/><path d="m-96-400h-64z"/><path d="m-512-224h32z"/><path d="m-320-128v32z"/><path d="m-352-96v-32z"/><path d="m-480 96v128 96-112z"/><path d="m-640-32h-64-16z"/><path d="m-944-336h-160-16-48 16z"/><path d="m-720-336h-224 16z"/><path d="m-555.6364-292.3636-52.3636-43.6364 19.2 16 76.8 64z"/><path d="m1792-640v13 83z"/><path d="m1024-720v64-16-80z"/><path d="m1024-320v32 64z"/><path d="m1248 64h-48-16-160 192z"/><path d="m1472-448h-96z"/><path d="m1152-448-96 96-32 32z"/><path d="m1312 64 64 64z"/><path d="m64 64v64 160l-64-64v-160z"/><path d="m752-1232h112-176z"/><path d="m752-1008v-64 144z"/><path d="m912-1056v48 176-128z"/><path d="m992-752-64-64-16-16z"/><path d="m464-1072h-224 208z"/><path d="m688-1072h-224 208z"/><path d="m480 64v64z"/><path d="m480 0v-160 160 64z"/><path d="m896 0h-160-64 64 64z"/><path d="m960-160h-32z"/><path d="m1024-224-32 32-32 32z"/><path d="m608 64 32-32 32-32z"/><path d="m-96 288h-224l64-64h112 48z"/><path d="m-320-96 64 64v32 128h-64z"/><path d="m-96-96h160l-64 64h-32-128v-64z"/><path d="m-944-32h-224 208z"/><path d="m-176-1232h-176z"/><path d="m-688-896v48 176-160z"/><path d="m-464-1072h-112-112z"/><path d="m-240-1072h-112-112z"/><path d="m-944-784h16-16-112z"/><path d="m-848-1184v96z"/><path d="m-848-864-16 16-64 64z"/><path d="m-944-560v224-64z"/><path d="m-688-336h-32z"/><path d="m-800-624h-144 16 192z"/><path d="m-1104-736v160z"/><path d="m-1168-288v32z"/><path d="m-1120-336 16-16-16 16-48 48z"/><path d="m260 1352v4h56v-4z"/><path d="m260 1356v-4z"/><path d="m316 1352v4z"/><path d="m316 1356h-56z"/><path d="m260 1352h56z"/><path d="m-156-396v4h56v-4z"/><path d="m-100-396v4z"/><path d="m-156-392v-4z"/><path d="m-156-396h56z"/><path d="m-100-392h-56z"/><path d="m1376 288v-64h64v64z"/><path d="m1440 288v-64l32-32v128z"/><path d="m260 960v-64h64v64z"/><path d="m324 960v-64l32-32v128z"/><path d="m260 1356v-4h56v4z"/><path d="m-156-392v-4h56v4z"/><path d="m256 1344h64z"/><path d="m320 1344h32z"/><path d="m256 1360v16h64v-16z"/><path d="m256 1344v16h64v-16z"/><path d="m256 1360h64z"/><path d="m-512-160v-64z"/><path d="m-96-400v-16h-64v16z"/><path d="m-96-384v-16h-64v16z"/><path d="m-96-400h-64z"/><path d="m-96-416h-64z"/><path d="m-480-224v-16-16z"/><path d="m-480-224v64z"/><path d="m-480-224h-32v64h32z"/><path d="m-512-160h32z"/></g><g id="e"><path d="m1984 160v16 192 16-192z"/><path d="m1984-64v16 208-32z"/><path d="m384 1376h-32z"/><path d="m-1168-336v48 32z"/><path d="m1728-512-64-64h-64v128 96h32l96-96z"/><path d="m1600-352v32l32-32z"/><path d="m1472-448h128v-128z"/><path d="m1472-448v16l112 112v-16z"/><path d="m1168-448-16 16h224v-16z"/><path d="m1376-432h96v-16h-96z"/><path d="m1808-288v16h160 16v-16z"/><path d="m1984-64v-208h-16v208 16h16z"/><path d="m1968-48v208 16h16v-16-208z"/><path d="m1968 176v208l16-16v-192z"/><path d="m1808-176v-96-16h-16v64 160h16z"/><path d="m1792-64v64 160h16v-112-112z"/><path d="m1792 160v64 32 16h16v-112z"/><path d="m1648 64 16 16v-16l-64-64v16z"/><path d="m1664 256v-32-144l-16-16v176 48h16z"/><path d="m1648 288v176h16v-16-16-144z"/><path d="m1600-224v-96l-16-16v16 96 112h16z"/><path d="m1584-112v112l16 16v-16-112z"/><path d="m1152-432 16-16h-16l-112 112v16z"/><path d="m1024-224 16-16v-80-16l-16 16z"/><path d="m1040-224v-16l-16 16-64 64v16z"/><path d="m960-16v16l48 48h16z"/><path d="m1200 288v-224h-16v224l16 16z"/><path d="m1184 64h16v-16h-176-16l16 16z"/><path d="m896-208v16h32v-16z"/><path d="m928-160h-32v160h32 32v-16-128-16z"/><path d="m640-224h-224v16h16 208z"/><path d="m864-224h-224v16h16 208z"/><path d="m896-208h32v-16h-64v16z"/><path d="m896 48h-208l-16 16h224z"/><path d="m928 64v-16h-32v16z"/><path d="m896 32v16h32v-16z"/><path d="m672 64 16-16h-16l-64 64v16z"/><path d="m432-160v-48h-16v48 176h16z"/><path d="m416 16v32l16 16v-48z"/><path d="m432 64-16-16v16l64 64v-16z"/><path d="m1984 384v-16l-16 16-48 48h16z"/><path d="m1792 256h-32-48v16h80z"/><path d="m1712 432v-160-16h-16-32v32 144z"/><path d="m1888 432h-176-48v16h32 192z"/><path d="m1920 448 16-16h-16-32v16z"/><path d="m1664 480v-16h-16-98l-16 16z"/><path d="m1280 384h16l-96-96v16z"/><path d="m1296 384h-16v192h16z"/><path d="m1454 544h16l64-64 16-16h-16z"/><path d="m1454 704h16v-160h-16z"/><path d="m1470 704h-16l-48 48-16 16h16z"/><path d="m1184 576h-224v16h224z"/><path d="m1296 592v-16h-16-96v16z"/><path d="m1362 752h-208l-16 16h16 208z"/><path d="m1378 768h12l16-16h-28-16v16z"/><path d="m896 640h16l48-48v-16z"/><path d="m896 768 16-16v-112h-16z"/><path d="m912 768v-16l-16 16-64 64v16z"/><path d="m608 224v-96-16l-16 16v96 112h16z"/><path d="m592 336v112l16-16v-96z"/><path d="m496 128-16-16v16 192l16-16z"/><path d="m496 320v-16l-16 16-64 64h16z"/><path d="m416 400 16-16h-16-128l16 16z"/><path d="m432 560h-208-16l16 16h208z"/><path d="m448 576h16l16-16h-32-16v16z"/><path d="m608 448v-16l-16 16-112 112-16 16h16z"/><path d="m386 706v16l30 30 48 48 48 48v-16z"/><path d="m386 728v24h30l-30-30z"/><path d="m1074 848v112l16-16v-112z"/><path d="m1074 832v16l16-16 64-64h-16z"/><path d="m1090 960v-16l-16 16-48 48v16z"/><path d="m736 1008h-224v16h224z"/><path d="m960 1008h-224v16h224z"/><path d="m1026 1024v-16h-66v16z"/><path d="m736 832h-224v16h224z"/><path d="m832 832h-96v16h96z"/><path d="m496 1024 16-16v-160l-48-48v32 192z"/><path d="m464 1056 32-32h-32z"/><path d="m512 1024v-16l-16 16-32 32-48 48-32 32v16z"/><path d="m384 1104h-224l32 32 16 16h160l16-16z"/><path d="m416 1104h-32v32z"/><path d="m272-304v112 16l16-16v-128h-16z"/><path d="m272-304v-16h-112v16z"/><path d="m272-176v-16l-48 48v16z"/><path d="m224-128v-16l-16 16v208h16z"/><path d="m208 80v16 224h16v-224-16z"/><path d="m160-304v-16l-64 64v16z"/><path d="m96-240v-16h-96v16z"/><path d="m0-240v-16l-64-64h-16z"/><path d="m-176-320h96 16v-64h-32-64-32v64z"/><path d="m-176-320h-16l-64 64v16z"/><path d="m-464-240h208v-16h-224v16z"/><path d="m-928-336h-16-208v16h224z"/><path d="m-704-336h-16-208v16h224z"/><path d="m-605.3333-320h16.5333l-19.2-16h-96v16z"/><path d="m-464-128v-112h-16v16 64 32 112h16z"/><path d="m-480-16v112 112h16v-112-112z"/><path d="m-480 208v112 16l16-16v-112z"/><path d="m-605.3333-320 93.3333 80v-16l-76.8-64z"/><path d="m-640-32 128-96v-16l-123.4286 96-4.5714 3.5556z"/><path d="m-640-44.4444 4.5714-3.5556h-4.5714z"/><path d="m-928-48h-224v16h208 16z"/><path d="m-704-48h-224v16h208 16z"/><path d="m-640-32v-12.4444-3.5556h-64v16z"/><path d="m-1152-272v-48-16h-16v80 144h16z"/><path d="m-1168-112v80h16v-16-64z"/><path d="m288 384-64-64h-16l80 80h16z"/><path d="m208 560h16l-112-112h-16z"/><path d="m184 728h202v-6-16l-2-2h-192l-24 24z"/><path d="m-137.6 432h-214.4l-9.6 16h9.6 214.4z"/><path d="m86.4 432h-214.4-9.6v16h9.6 214.4z"/><path d="m96 448h16l-16-16h-9.6v16z"/><path d="m-384 512 32-64h-9.6l-38.4 64v32z"/><path d="m-384 544v-32l-16 32v192h16z"/><path d="m-400 736v16l16 16v-32z"/><path d="m168 728-104 104h16l32-32 48-48 24-24z"/><path d="m-96 832h-224v16h224z"/><path d="m64 848 16-16h-16-160v16z"/><path d="m160 1104-48-48-32-32h-16l128 128v-16z"/><path d="m160 752h224 2v-24h-202z"/><path d="m112 1024v-192-32l-32 32-16 16v160l16 16z"/><path d="m112 1056v-32h-32z"/><path d="m-288 1008h-224l16 16h208z"/><path d="m-64 1008h-224v16h224z"/><path d="m64 1024h16l-16-16h-128v16z"/><path d="m384 1152v-16l-16 16v192h16z"/><path d="m208 1152-16-16v16 192h16z"/><path d="m352 1376h32v-32h-16-16z"/><path d="m224 1344h-16-16v32h32z"/><path d="m-384 768-16-16v16l80 80v-16z"/><path d="m-560 416 80-80v-16l-96 96v16z"/><path d="m-512 1024h16l-16-16-48-48h-16z"/><path d="m-560 512v-96l-16 16v80 128h16z"/><path d="m-576 640v96 128h16v-128-96z"/><path d="m-576 864v96h16v-96z"/><path d="m96 320v-32z"/><path d="m96-128v32z"/><path d="m1648 64v32 144z"/><path d="m1888 432h32-208z"/><path d="m1968-272h-160z"/><path d="m1808 48v112 112-96z"/><path d="m1808-176v112 112-96z"/><path d="m1968-272v208z"/><path d="m1920 432 48-48-32 32z"/><path d="m1712 272v160z"/><path d="m416 1104h-32z"/><path d="m1376-432h-224 112z"/><path d="m1454 544v48 112z"/><path d="m1550 464h98-114z"/><path d="m1584-320v96z"/><path d="m1472-432 16 16 96 96z"/><path d="m1184 592h-224 176z"/><path d="m896-192v-16 32z"/><path d="m1200 48h-16-160z"/><path d="m1152-432-112 112z"/><path d="m960-144v128z"/><path d="m960-16 64 64-48-48z"/><path d="m1296 384-64-64-32-32z"/><path d="m480 560h-32z"/><path d="m112 448 112 112-32-32-96-96z"/><path d="m208 80v-208 48 176z"/><path d="m208 320 32 32 48 48z"/><path d="m272-192v-112z"/><path d="m656-208h-16-208z"/><path d="m592 128v96z"/><path d="m688 48h208-64-160z"/><path d="m608 112 64-64-48 48-32 32z"/><path d="m432-160v176 48z"/><path d="m480 560 112-112z"/><path d="m224-144 48-48-64 64z"/><path d="m512 848v160z"/><path d="m1074 848v-16 128z"/><path d="m1406 752h-28z"/><path d="m1406 752 48-48-30 30z"/><path d="m1138 768 16-16-16 16-64 64z"/><path d="m736 848h-224z"/><path d="m960 592-48 48z"/><path d="m1026 1008h-66z"/><path d="m1026 1008 48-48z"/><path d="m464 800v32z"/><path d="m112 832v192 32-32z"/><path d="m384 752h-224 200z"/><path d="m416 752 48 48z"/><path d="m368 1152h-160z"/><path d="m208 1344h16 32 64 32 16z"/><path d="m368 1152v192z"/><path d="m-352 320h32z"/><path d="m96 320h-32z"/><path d="m-512-160v-64-16 96z"/><path d="m-320-128v32z"/><path d="m-320 320v-32z"/><path d="m96-128h-32z"/><path d="m64 320v-32z"/><path d="m96 288h-32z"/><path d="m-320-128h-32z"/><path d="m-464 96v112 112-96z"/><path d="m-464-128v112 112-96z"/><path d="m-1152-272v160 64-56z"/><path d="m-928-320h-224 64z"/><path d="m-704-320h-224 64 128z"/><path d="m-640-48h4.5714-68.5714z"/><path d="m-635.4286-48 123.4286-96-61.7143 48z"/><path d="m-605.3333-320 93.3333 80z"/><path d="m64 1008h-128z"/><path d="m-512 1008-48-48z"/><path d="m-400 512v32z"/><path d="m-96 848h-224z"/><path d="m86.4 432h9.6-96-128z"/><path d="m-361.6 448 9.6-16-48 80z"/><path d="m-400 768 80 80z"/><path d="m64 1008v-160z"/><path d="m-560 736v128 96-192z"/><path d="m-560 512v128 96-192z"/><path d="m1472-448h-96z"/><path d="m160-320-64 64z"/><path d="m-480 320-32 32-64 64z"/><path d="m-576 432v-16 96z"/><path d="m832 832h-96z"/><path d="m64 832h-160z"/><path d="m-384 544v192 32-64z"/><path d="m272-320h16-64-64z"/><path d="m1600-352v-96 96 32z"/><path d="m1040-336 112-112-128 128z"/><path d="m1664 464v16-32z"/><path d="m1664 256v-32z"/><path d="m1792 256h-32z"/><path d="m1696 256h-32z"/><path d="m1808-288h176-192z"/><path d="m1792 224v32z"/><path d="m1792-288v64z"/><path d="m1664 448h32z"/><path d="m416-208v-16 64z"/><path d="m1024 64h160z"/><path d="m896 64h-224z"/><path d="m1024-320v96z"/><path d="m1600-224v112 112-128z"/><path d="m1008 48-48-48 64 64z"/><path d="m896 0h32z"/><path d="m928-160h-32z"/><path d="m896-192h32z"/><path d="m928-224h-32-32z"/><path d="m896-176v16-32z"/><path d="m896 32v-32z"/><path d="m928 32h-32z"/><path d="m1378 768h-16-208 46z"/><path d="m1280 384v32 48 112z"/><path d="m1280 576h-80-16z"/><path d="m1184 64v224z"/><path d="m960 576-64 64z"/><path d="m608 224v112 96 16-48-48z"/><path d="m896 768-64 64z"/><path d="m480 128v192z"/><path d="m480 576 128-128z"/><path d="m416 64 64 64z"/><path d="m416 384h-30-98z"/><path d="m64-128v32z"/><path d="m224 96v224-128z"/><path d="m96-96h-32z"/><path d="m-128 448h-9.6-214.4 176z"/><path d="m96 288h-32z"/><path d="m384 704h-64-128z"/><path d="m448 576h-16-208 32 130z"/><path d="m386 706 126 126-126-126-2-2z"/><path d="m168 728 24-24-96 96-32 32z"/><path d="m1090 944v16-128z"/><path d="m736 1024h-224z"/><path d="m960 1024h-224 96z"/><path d="m1026 1024 64-64z"/><path d="m352 1376v-32z"/><path d="m192 1344v-192 192 32z"/><path d="m-288 1024h-208-16 112 80z"/><path d="m-64 1024h-224 192z"/><path d="m64 1024 56 56 72 72z"/><path d="m-512-240v16-32z"/><path d="m-192-384v64z"/><path d="m96-256h-96z"/><path d="m0-256-32-32-32-32z"/><path d="m-96-384h-64z"/><path d="m-160-384h-32z"/><path d="m-480-160v32z"/><path d="m-256-256h-96-128z"/><path d="m-192-320-32 32-32 32z"/><path d="m-320-96h-32z"/><path d="m-480-16v-112 96 32 96z"/><path d="m-944-32h-208-16z"/><path d="m-720-32h-208-16 128z"/><path d="m-704-336h96-80-32z"/><path d="m-640-32 48-36 80-60z"/><path d="m1264-432h-112l-112 112v96h144 80z"/><path d="m1488-416-16-16h-96-112v208h144 80z"/><path d="m1584-224v-96l-96-96v192z"/><path d="m1968-64v-208h-160v96 128h160z"/><path d="m1808-48v96 128h160v-16-208z"/><path d="m1808 176v96h128 32v-96z"/><path d="m1648 96v-32l-64-64v48 48z"/><path d="m1424 48h-16-208v48h96 128z"/><path d="m1520 96h64v-48h-160v48z"/><path d="m1184-224h-144l-80 80v128l16 16h208z"/><path d="m976 0 48 48h160v-48z"/><path d="m1408-224h-144-80v224h224z"/><path d="m1184 0v48h16 208v-48z"/><path d="m1584 0v-224h-96-80v224z"/><path d="m1424 48h160v-48h-176v48z"/><path d="m656-208h-224v48h48 32 144z"/><path d="m736-160h64 32v-48h-176v48z"/><path d="m896-176v-32h-64v48 160h64z"/><path d="m832-160h-32v32 96 32h32z"/><path d="m832 0h-32-96-96v48h64 160z"/><path d="m896 48v-48h-64v48z"/><path d="m736-160h-80-144v32h224z"/><path d="m800-128v-32h-64v32z"/><path d="m704-32h-192-32v32h128 96z"/><path d="m800 0v-32h-64-32v32z"/><path d="m608 48v48h16l48-48z"/><path d="m480-32h32v-96-32h-32z"/><path d="m480 0v-32-128h-48v224h48z"/><path d="m432 64 32 32h16v-32z"/><path d="m608 48v-48h-128v64 32h16 96 16z"/><path d="m1920 432 16-16v-144h-128-96v160z"/><path d="m1936 416 32-32v-112h-32z"/><path d="m1520 96h-96-128v224h224z"/><path d="m1296 320v64 80h158 66v-144z"/><path d="m1648 320v-80-144h-64-64v224z"/><path d="m1534 464h114v-144h-128v144z"/><path d="m1296 320v-224h-96v192l32 32z"/><path d="m1296 384v-64h-64z"/><path d="m1454 544 80-80h-14-66z"/><path d="m1296 592h128 30v-48-80h-158z"/><path d="m1424 592h-128-96v114 46h178 28l18-18z"/><path d="m1454 704v-112h-30v142z"/><path d="m1136 592h-176l-48 48v128h114 110z"/><path d="m1138 768 16-16 46-46v-114h-16-48v176z"/><path d="m1200 706-46 46h46z"/><path d="m624 96h-16-16v32z"/><path d="m592 224v-96-32h-96v32 192h96z"/><path d="m496 320v80h96v-80z"/><path d="m480 96h-16l32 32v-32z"/><path d="m496 320-80 80h80z"/><path d="m416 400h-128-96v32 96l32 32h192z"/><path d="m448 560h32l112-112v-48h-96-80v160z"/><path d="m416 752 12-12 12 12 24 24v24z"/><path d="m428 740-12-12h24v24z"/><path d="m360 752h-200l-24-24h224z"/><path d="m416 728 12 12-12 12h-32-24v-24z"/><path d="m1026 832h48l64-64h-2-110z"/><path d="m1074 960v-128h-48v176z"/><path d="m1026 832v-64h-114l-80 80v160h128 66z"/><path d="m736 848h-224v160h224z"/><path d="m832 1008v-160h-96v160z"/><path d="m464 1000v-168-32-24h24v80 144z"/><path d="m488 1080h-24v-24-56h24z"/><path d="m440 1104h-24l48-48v24z"/><path d="m384 1128h-24-200v-24h224z"/><path d="m416 1104h24v24h-56v-24z"/><path d="m272-192v-112h-64v176z"/><path d="m208-128v-176h-48l-64 64v112 32 16h112z"/><path d="m96-80v208 16h112v-48-176z"/><path d="m96 144v144 32h112v-176z"/><path d="m64-128h32v-112h-96v112z"/><path d="m96-80v-16h-32v160 64h32z"/><path d="m64 128v160h32v-144-16z"/><path d="m-96-128h-160-64v32h160 64z"/><path d="m64-96v-32h-64-32-64v32z"/><path d="m-32-272-48-48h-96l-80 80v112h160 64z"/><path d="m0-128v-112l-32-32v144z"/><path d="m-320-128h64v-112h-96v112z"/><path d="m-320-96h-32v96 128h32z"/><path d="m-352 128v96 64h32v-160z"/><path d="m-400 0h48v-96-32-112h-112v112 128z"/><path d="m-573.7143-96 61.7143-48v-96l-93.3333-80h-98.6667-32v56 32 96 32 8z"/><path d="m-704-48h68.5714l61.7143-48h-162.2857v48z"/><path d="m-864-320h-64-160v56h32 192z"/><path d="m-832-264h96v-56h-128v56z"/><path d="m-832-264h-32-192v32h224z"/><path d="m-768-232h32v-32h-96v32z"/><path d="m-736-232h-32v96h32z"/><path d="m-832-136h-224v32h128 96z"/><path d="m-736-104v-32h-32-64v32z"/><path d="m-928-104h-128-32-64v56h224z"/><path d="m-736-48v-48-8h-96-96v56z"/><path d="m-1088-264v-56h-64v48 168h64z"/><path d="m-1088-104h32v-32-96-32h-32z"/><path d="m192 352h48l-32-32h-112-32-64v20 12z"/><path d="m-96 288h-224v32h192 32z"/><path d="m0 320h64v-32h-160v32z"/><path d="m288 400-48-48h-48v48z"/><path d="m96 432h96v-32-48h-192v80z"/><path d="m192 432h-96l96 96z"/><path d="m-128 320h-192-32v20h176 48z"/><path d="m0 340v-20h-96-32v20z"/><path d="m-352 128v-128h-48v224h48z"/><path d="m-400 224v96 20h48v-20-32-64z"/><path d="m-352 340h-48v92h48 176v-92z"/><path d="m-176 432h48 128v-80-12h-128-48z"/><path d="m-352 432h-48v80z"/><path d="m160 752-24 24v-24-24z"/><path d="m136 776h-24l24-24z"/><path d="m112 776h24l-24 24h-16-8v-24z"/><path d="m136 1104-24-24v-24l48 48v24z"/><path d="m88 800h8l-8 8z"/><path d="m88 1024v-168-48l8-8h16v32 192z"/><path d="m112 1056v24h-24v-56h24z"/><path d="m368 1152h-160v192h160z"/><path d="m136 1128v-24l24 24z"/><path d="m-320 848v160h32 192v-160z"/><path d="m-96 1008h32 128v-160h-160z"/><path d="m-400 768v240h80v-160z"/><path d="m-400 0h-64v96 128h64z"/><path d="m-464 224v96h64v-96z"/><path d="m-400 544v-32-80-92-20h-64l-96 96v96 32z"/><path d="m-400 768v-224h-160v192 32z"/><path d="m-400 1008v-240h-160v192l48 48z"/><path d="m512-128v96z"/><path d="m800-32v-96z"/><path d="m800-32h-64z"/><path d="m736-128h-224z"/><path d="m-320 128v160l64-64v-96z"/><path d="m64-96h-160-64v64h128 32z"/><path d="m-160-96h-160l64 64h96z"/><path d="m64 288-64-64h-32-64v64z"/><path d="m64-96-64 64v96h64z"/><path d="m440 752v-24z"/><path d="m464 1080h24z"/><path d="m488 776h-24z"/><path d="m440 752 24 24z"/><path d="m488 776v80z"/><path d="m440 1104 24-24z"/><path d="m88 1080h24z"/><path d="m136 728v24z"/><path d="m360 728h-224z"/><path d="m112 776h-24z"/><path d="m136 752-24 24z"/><path d="m88 856v168 56-80z"/><path d="m136 1104v24z"/><path d="m384 1128h56-80z"/><path d="m-1056-232v96z"/><path d="m-768-232v96z"/><path d="m-832-232h-224z"/><path d="m-768-136h-64z"/><path d="m1648 240v80 144-176z"/><path d="m1808-272v96z"/><path d="m1968 160v16 96 112-208z"/><path d="m1968-64v16 208-208z"/><path d="m1808 272h-16-80z"/><path d="m384 1104h-224z"/><path d="m1472-432h-96z"/><path d="m112 1056 48 48z"/><path d="m1584-224v224-112z"/><path d="m1648 64-48-48-16-16z"/><path d="m1454 544 80-80z"/><path d="m1200 592h96-112z"/><path d="m896-176v176 48-16-32-160z"/><path d="m1040-320v80 16z"/><path d="m1040-224-80 80z"/><path d="m1296 464v-80 192 16z"/><path d="m1200 96v-48 16 224z"/><path d="m448 560h-32-192 208z"/><path d="m208-304h64-112z"/><path d="m208 96v48 176z"/><path d="m832-208h64-32-208z"/><path d="m592 224v96 80 48-112z"/><path d="m416 400h-112-16z"/><path d="m496 128v176 16z"/><path d="m464 96-32-32 48 48 16 16z"/><path d="m432-208v48z"/><path d="m496 320-64 64-16 16z"/><path d="m160-304-64 64z"/><path d="m1378 752h-178-46 208z"/><path d="m832 848h-96z"/><path d="m912 640v112 16z"/><path d="m912 768-80 80z"/><path d="m736 1008h-224z"/><path d="m960 1008h-128-96z"/><path d="m464 832v168 56-32z"/><path d="m112 800v32z"/><path d="m416 752h-30-2z"/><path d="m136 776 24-24-48 48z"/><path d="m416 1104 48-48z"/><path d="m208 1152v192z"/><path d="m-32-272 32 32-80-80z"/><path d="m96-240h-96z"/><path d="m-352-240h96-208z"/><path d="m-80-320h-96z"/><path d="m-176-320-80 80z"/><path d="m96-96h-32z"/><path d="m64-96v-32z"/><path d="m-352-96v-32z"/><path d="m-352 288v32z"/><path d="m-320-96h-32z"/><path d="m-320 288h-32z"/><path d="m-464-240v112z"/><path d="m-1152-320v48z"/><path d="m-605.3333-320h-98.6667z"/><path d="m-928-48h-224z"/><path d="m-704-48h-32-192z"/><path d="m-288 1008h-32-80-112z"/><path d="m-64 1008h-32-192z"/><path d="m-400 544v224-16-16z"/><path d="m64 848h-160z"/><path d="m-128 432h-48-176 214.4z"/><path d="m-560 416v96z"/><path d="m-464 320-16 16-80 80z"/><path d="m512-128v96h-32v-128h32z"/><path d="m704 0h-224v-32h32 192z"/><path d="m736-32h64v32h-96v-32z"/><path d="m736-128h-224v-32h224z"/><path d="m800-160v32h-64v-32z"/><path d="m800-32v-96-32h32v160h-32z"/><path d="m736-32h-32-192 192z"/><path d="m800-128h-64z"/><path d="m-832-232h-224v-32h224z"/><path d="m-736-264v32h-32-64v-32z"/><path d="m-768-232h32v96h-32z"/><path d="m-832-104h-224v-32h224z"/><path d="m-768-136h32v32h-96v-32z"/><path d="m-1056-232v96 32h-32v-160h32z"/><path d="m-768-232h-64z"/><path d="m-832-136h-224z"/><path d="m-32 288h-64-160v-64h160 64z"/><path d="m0 224v64h-32v-64z"/><path d="m-96 320h-224v-32h64 160z"/><path d="m-32 288h32 64 32v32h-192v-32z"/><path d="m-352-128h32v32 192h-32z"/><path d="m-320 96v32 160 32h-32v-224z"/><path d="m-320 96v-192h64v64 160h-64z"/><path d="m-256 128v96 64h-64v-160z"/><path d="m-32-32h-128-96v-64h160 64z"/><path d="m0-96v64h-32v-64z"/><path d="m-96-96h-160-64v-32h224z"/><path d="m64-128v32h-64-32-64v-32z"/><path d="m0 64v-96-64h64v192 32h-64z"/><path d="m64 128v160h-64v-64-96z"/><path d="m64-96v-32h32v224h-32z"/><path d="m96 96v192h-32v-160-32z"/><path d="m-256-32-64-64v224h64z"/><path d="m-96 224h-160l-64 64h224z"/><path d="m0 64v64 96l64 64v-160-64z"/><path d="m112 1000v-144-80h-24v80 144z"/><path d="m88 1080h24v-80h-24z"/><path d="m360 1104h-224v24h224z"/><path d="m440 1128v-24h-80v24z"/><path d="m488 1000v-144-80h-24v80 144z"/><path d="m464 1080h24v-80h-24z"/><path d="m360 728h-224v24h224z"/><path d="m440 752v-24h-80v24z"/><path d="m440 1104h-80z"/><path d="m112 856v144 80-104z"/><path d="m464 776v80z"/><path d="m360 752h-224 200z"/><path d="m440 752 16 16 8 8z"/><path d="m136 752-24 24z"/><path d="m440 1104 24-24z"/><path d="m440 1104v24z"/><path d="m488 856v144 80-80z"/><path d="m440 728h-24-56z"/><path d="m88 776v24 8 48z"/><path d="m360 1128h-224 24z"/><path d="m112 1080 24 24z"/></g><g id="f"><path d="m88 1152-24-24h24 24 24l-24 24z"/><path d="m88 1128v-24h24v24z"/><path d="m112 1104v-24l24 24v24h-24z"/><path d="m64 1128v-24l24-24v24 24z"/><path d="m88 776v-24h24v24 80 120h-24z"/><path d="m112 976v104 24h-24v-24-104z"/><path d="m64 752h24v24z"/><path d="m88 752h-24v-24h48v24z"/><path d="m112 776v-24h24z"/><path d="m112 728h-48l24-24h24l24 24z"/><path d="m360 1128h-224v-24h224z"/><path d="m440 1104h24v24h-24-80v-24z"/><path d="m440 1128h24v24z"/><path d="m488 1152h-24v-24-24h48v24z"/><path d="m464 1000v-144-80h24v224z"/><path d="m488 1080h-24v-80h24z"/><path d="m464 1080h24l24 24h-48-24z"/><path d="m464 776-8-8h8 32l-8 8z"/><path d="m336 752h-200-24v-24h24 200z"/><path d="m440 728h24v24h-24-80-24v-24z"/><path d="m464 704v24h-24z"/><path d="m464 768v-16-24-24h24l24 24v24l-16 16z"/><path d="m440 752h24v16h-8z"/><path d="m360 1104h-224z"/><path d="m112 776v80z"/><path d="m464 856v144 80-80z"/><path d="m440 752h-80z"/><path d="m112 1080 24 24z"/></g></defs><g stroke="#000"><use fill="none" stroke-miterlimit="0" stroke-width="10" xlink:href="#a"/><use fill="#bfbfbf" xlink:href="#a"/><use fill="none" stroke-miterlimit="0" stroke-width="10" xlink:href="#b"/><use fill="#ccc" xlink:href="#b"/><use fill="none" stroke-miterlimit="0" stroke-width="10" xlink:href="#c"/><use fill="#d9d9d9" xlink:href="#c"/><use fill="none" stroke-miterlimit="0" stroke-width="10" xlink:href="#d"/><use fill="#e5e5e5" xlink:href="#d"/><use fill="none" stroke-miterlimit="0" stroke-width="10" xlink:href="#e"/><use fill="#f2f2f2" xlink:href="#e"/><use fill="none" stroke-miterlimit="0" stroke-width="10" xlink:href="#f"/><use fill="#fff" xlink:href="#f"/></g></svg>