<svg viewBox="-832 -1152 1664 1792" xmlns="http://www.w3.org/2000/svg" xmlns:xlink="http://www.w3.org/1999/xlink"><defs><g id="a"><path d="m144 240.6075-24.6893 59.6373-23.3107-56.2981v-12.2628l62.3866-25.8275z"/><path d="m176.8678 320-19.0882-46.1077 28.506 11.8012 14.2048 34.3065z"/><path d="m226.2796 273.7493 23.4259-9.6982 6.2945 15.2045v35.2991l-64.1431-26.5547z"/><path d="m191.8569 192h28.02l5.7957 14z"/><path d="m249.7055 264.0511-9.7055-23.4436-14.3274-34.6075-5.7957-14h36.1231v87.2556z"/><path d="m250.1263 439.877-10.1263-24.4565-13.7371-33.1767-25.7725-62.2438-14.2048-34.3065 5.5713 2.3065 64.1431 26.5547v101.4453 38.0626z"/><path d="m240 240.6075 9.7055 23.4436-23.4259 9.6982z"/><path d="m96 320v-64-12.0533l23.3107 56.2981 8.1797 19.7552z"/><path d="m119.3107 300.2448 24.6893-59.6373 13.7796 33.2848 19.0882 46.1077h-49.3774z"/><path d="m158.3866 205.8564-62.3866 25.8275v-39.6839h95.8569z"/><path d="m32 256h64v64h-64z"/><path d="m-32 320v-64-64h64v64 64 64h-64z"/><path d="m96 328.3161 95.8569 39.6839-34.0606 14.1008-4.5876 1.8992h-57.2087z"/><path d="m127.4904 320h49.3774 23.6226l25.7725 62.2438-34.406-14.2438-95.8569-39.6839v-8.3161z"/><path d="m157.7963 382.1008-.7864 1.8992h-3.8012z"/><path d="m225.8358 625.933 24.1831-10.0116 5.9811 14.4452v9.6334h-64.1431z"/><path d="m191.8569 640h-27.8681l-5.7653-13.924z"/><path d="m96 608v-24.316l61.9483-25.6462-13.9483 33.6868-19.9888 48.2754h-28.0112z"/><path d="m158.3754 450.139 39.9774 96.5502-6.4959-2.6892-86.3025-35.7285 38.4456-92.851z"/><path d="m96 384h57.2087 3.8012l-13.0099 31.4205-38.4456 92.851-9.5544 23.0751z"/><path d="m64 608v-88-40-96h32v147.3466 52.3374 24.316z"/><path d="m96 640h-32v-32h32z"/><path d="m105.5544 508.2715 86.3025 35.7285-33.9086 14.0378-61.9483 25.6462v-52.3374z"/><path d="m158.2235 626.076 5.7653 13.924h-39.9776l19.9888-48.2754z"/><path d="m240 591.7246 10.0189 24.1968-24.1831 10.0116z"/><path d="m186.1336 461.6306 39.9774 96.5503-27.7582-11.4917-39.9774-96.5502z"/><path d="m256 630.3666-5.9811-14.4452-10.0189-24.1968-13.889-33.5437-39.9774-96.5503 5.7233 2.3694 64.1431 26.5547z"/><path d="m225.6838 449.996 24.4425-10.119 5.8737 14.1856v36.4921l-64.1431-26.5547z"/><path d="m225.6838 449.996 14.3162-34.5755 10.1263 24.4565z"/><path d="m-96 384h64 64 32v96h-24-80-24-53.2604l-16.6229-40.1464-10.1167-24.4331-13.0099-31.4205z"/><path d="m40 480v40 112h-80v-112-40z"/><path d="m-32 256v64h-64v-64z"/><path d="m-157.0099 384-.7135-1.7232-39.9774-96.5502 5.4916 2.2734 81.859 33.8889 14.3502 34.663v27.4481z"/><path d="m-144 240.6075 9.6958 23.4203-23.4026 9.6885z"/><path d="m-225.5997 205.8234-4.4267 1.8326-6.4825-15.656h44.2997z"/><path d="m-192.2092 192h28.0861l5.8093 14.0324z"/><path d="m-192.2092 368-63.7908-26.4088v-62.3356l16-38.6481 13.7933 33.3179 39.9697 96.547z"/><path d="m-230.8573 384 4.6673-1.9323-.8001 1.9323z"/><path d="m-192.2092 368-33.9808 14.0677-4.6673 1.9323h-25.1427v-42.4088z"/><path d="m-226.2067 273.9254 28.5059 11.8012 39.9774 96.5502-28.5136-11.8044z"/><path d="m-256 192h19.4911l6.4825 15.656 1.8341 4.4298-11.8077 28.5217-16 38.6481z"/><path d="m-110.3502 321.8889-23.954-57.8611-9.6958-23.4203-14.3138-34.5751-5.8093-14.0324h68.1231v64 64 36.5519z"/><path d="m-230.0264 207.656 4.4267-1.8326-2.5926 6.2624z"/><path d="m-192.2092 288 34.5024-14.2837 23.4026-9.6885 23.954 57.8611z"/><path d="m-230.8573 384h3.8672l-13.0099 31.4205-16 38.6421v-38.0626-32z"/><path d="m-144 415.4205 10.1167 24.4331-24.4192 10.1094z"/><path d="m-153.561 480-38.6482-16 33.9067-14.037 24.4192-10.1094 16.6229 40.1464z"/><path d="m-190.2604 480h-23l-12.3505-29.828 33.4017 13.828 38.6482 16z"/><path d="m-256 454.0626 16-38.6421 14.3891 34.7515 12.3505 29.828 19.6934 47.5621-19.174 7.9379-43.259 17.9088z"/><path d="m-144 591.7246-13.8754-33.5107-32.385-78.2139h36.6994 36.3006 53.2604v40 120h-60.0112z"/><path d="m-193.567 527.5621-19.6934-47.5621h23l32.385 78.2139-27.7582-11.4916z"/><path d="m-147.0112 640h-45.198l34.0586-14.1 4.5254-1.8735z"/><path d="m-256 640v-9.6334l16-38.642 14.2371 34.3844 5.7517 13.891z"/><path d="m-226.0381 558.0049-29.9619 12.4039v-17l43.259-17.9088 20.5318 8.5z"/><path d="m-124.0112 640h-23l-6.614-15.9735-1.8748-4.528 11.5-27.7739z"/><path d="m-185.6336 546.7223-6.5756-2.7223-20.5318-8.5 19.174-7.9379z"/><path d="m-240 591.7246-16 38.642v-59.9578l29.9619-12.4039z"/><path d="m-192.2092 640h-27.802l-5.7517-13.891z"/><path d="m-153.6252 624.0265-4.5254 1.8735 2.6506-6.4015z"/><path d="m-220.0112 640h27.802 45.198 23 60.0112-192z"/><path d="m96 640h28.0112 39.9776 27.8681 64.1431-192z"/><path d="m-256 416v38.0626 99.3462 17 59.9578 9.6334z"/><path d="m256 314.5547v-35.2991-87.2556 224z"/><path d="m219.8769 192h-28.02-95.8569 96 64z"/><path d="m225.6726 206 14.3274 34.6075z"/><path d="m225.6726 206-19.3093-7.9942-14.5064-6.0058z"/><path d="m-225.7629 626.109 19.3101 7.9943 14.2436 5.8967z"/><path d="m-240 591.7246 8 19.3211 6.2371 15.0633z"/><path d="m-192.2092 192-19.3241 8-14.0664 5.8234z"/><path d="m-228.1923 212.0858 2.5926-6.2624-7.9939 19.3094-6.4064 15.4747z"/><path d="m191.8569 640 19.3241-8 14.6548-6.067z"/><path d="m96 328.3161v55.6839-64z"/><path d="m96 231.6839v12.2628 12.0533-64z"/><path d="m191.8569 464 19.3241-8 14.5028-6.004z"/><path d="m191.8569 192-19.3241 8-14.1462 5.8564z"/><path d="m158.3866 205.8564-7.9939 19.3094-6.3927 15.4417z"/><path d="m186.1336 461.6306-27.7582-11.4916 19.3101 7.9942 14.1714 5.8668z"/><path d="m186.2856 285.6935-28.506-11.8012 19.3095 7.9939 14.7678 6.1138z"/><path d="m144 240.6075 8 19.324 5.7796 13.9608z"/><path d="m191.8569 288 19.3241-8 15.0986-6.2507z"/><path d="m144 415.4205 8 19.321 6.3754 15.3975z"/><path d="m157.0099 384 .7864-1.8992-7.9955 19.31-5.8008 14.0097z"/><path d="m226.2629 382.2438-19.31-7.9942-15.096-6.2496z"/><path d="m191.8569 368-19.3241 8-14.7365 6.1008z"/><path d="m226.111 558.1809 13.889 33.5437z"/><path d="m158.2235 626.076 19.31 7.9943 14.3234 5.9297z"/><path d="m198.3528 546.6892 27.7582 11.4917-19.3101-7.9943-14.944-6.1866z"/><path d="m191.8569 544-19.3241 8-14.5845 6.0378z"/><path d="m157.9483 558.0378-7.9955 19.3101-5.9528 14.3767z"/><path d="m-96 192v64z"/><path d="m-96 356.5519v-36.5519 64z"/><path d="m96 320h-64z"/><path d="m-32 320h-64z"/><path d="m-32 256v-64z"/><path d="m32 192v64z"/><path d="m32 256h64z"/><path d="m-96 256h64z"/><path d="m-32 384v-64z"/><path d="m64 384h-32 64z"/><path d="m32 320v64z"/><path d="m-96 384h64z"/><path d="m-158.3138 206.0324 14.3138 34.5751z"/><path d="m-192.2092 464 19.3241-8 14.5826-6.037z"/><path d="m-158.3138 206.0324-19.3094-7.9939-14.586-6.0385z"/><path d="m-225.6109 450.172 19.31 7.9942 14.0917 5.8338z"/><path d="m-197.7008 285.7266-28.5059-11.8012 19.3094 7.9939 14.6881 6.0807z"/><path d="m-240 240.6075 8 19.324 5.7933 13.9939z"/><path d="m-240 415.4205 8 19.321 6.3891 15.4305z"/><path d="m-226.9901 384 .8001-1.9323-7.9955 19.3101-5.8145 14.0427z"/><path d="m-186.237 370.4724 28.5136 11.8044-19.3101-7.9942-15.1757-6.2826z"/><path d="m-192.2092 368-19.3241 8-14.6567 6.0677z"/><path d="m-64 520v-40z"/><path d="m-40 480v40z"/><path d="m40 520v24 88z"/><path d="m40 632h-80z"/><path d="m-40 632v-88-24z"/><path d="m-157.8754 558.2139 13.8754 33.5107z"/><path d="m-192.2092 640 19.3241-8 14.7345-6.1z"/><path d="m-185.6336 546.7223 27.7582 11.4916-19.31-7.9942-15.0238-6.2197z"/><path d="m-226.0381 558.0049-7.9955 19.31-5.9664 14.4097z"/><path d="m-192.2092 544-19.3241 8-14.5048 6.0049z"/><path d="m-96 192h64z"/><path d="m32 192h-64z"/><path d="m32 192h64z"/><path d="m96 256h-64v-64h64z"/><path d="m-32 256h-64v-64h64z"/><path d="m96 384h-64v-64h64z"/><path d="m-32 384h-64v-64h64z"/><path d="m232 611.0457 8-19.3211-14.1642 34.2084z"/><path d="m160 415.4205-8 19.321-8-19.321 5.8008-14.0097 19.3101-7.9942z"/><path d="m191.8569 448 19.3241 8-19.3241 8-14.1714-5.8668-7.9955-19.3101z"/><path d="m224 415.4205 6.8122 16.4524-16.443 6.8072z"/><path d="m191.8569 560-19.3241-8 19.3241-8 14.944 6.1866 7.9955 19.3101z"/><path d="m160 591.7246-8 19.3211-8-19.3211 5.9528-14.3767 19.31-7.9941z"/><path d="m191.8569 624 19.3241 8-19.3241 8-14.3234-5.9297-7.9955-19.31z"/><path d="m224 591.7246 6.7047 16.1928-16.1835 6.6998z"/><path d="m232 611.0457-6.1642 14.8873-14.6548 6.067-19.3241-8 22.6643-9.3828 16.1835-6.6998z"/><path d="m169.538 614.7603 7.9955 19.31-19.31-7.9943-6.2235-15.0303 8-19.3211z"/><path d="m169.2628 569.3538-19.31 7.9941 7.9955-19.3101 14.5845-6.0378 19.3241 8z"/><path d="m240 591.7246-8 19.3211-1.2953-3.1283-6.7047-16.1928-9.2036-22.2279-7.9955-19.3101 19.3101 7.9943z"/><path d="m232 434.7415-6.3162 15.2545-14.5028 6.004-19.3241-8 22.5123-9.3199 16.443-6.8072z"/><path d="m169.69 438.8231 7.9955 19.3101-19.3101-7.9942-6.3754-15.3975 8-19.321z"/><path d="m191.8569 384-19.3241-8 19.3241-8 15.096 6.2496 7.9954 19.3101z"/><path d="m157.7963 382.1008 14.7365-6.1008 19.3241 8-22.746 9.4166-19.3101 7.9942z"/><path d="m230.8122 431.8729-6.8122-16.4524-9.0517-21.8608-7.9954-19.3101 19.31 7.9942 13.7371 33.1767-8 19.321z"/><path d="m191.8569 208-19.3241-8 19.3241-8 14.5064 6.0058 7.9938 19.3091z"/><path d="m160 240.6075-8 19.324-8-19.324 6.3927-15.4417 19.3094-7.9939z"/><path d="m191.8569 272 19.3241 8-19.3241 8-14.7678-6.1138-7.994-19.3094z"/><path d="m224 240.6075 6.3918 15.4394-15.4277 6.3869z"/><path d="m232 259.9315-5.7204 13.8178-15.0986 6.2507-19.3241-8 23.1072-9.5662 15.4277-6.3869z"/><path d="m169.0951 262.5768 7.994 19.3094-19.3095-7.9939-5.7796-13.9608 8-19.324z"/><path d="m169.7021 217.1719-19.3094 7.9939 7.9939-19.3094 14.1462-5.8564 19.3241 8z"/><path d="m240 240.6075-8 19.324-1.6082-3.8846-6.3918-15.4394-9.6429-23.2926-7.9938-19.3091 19.3093 7.9942z"/><path d="m224 415.4205-9.6308 23.2596z"/><path d="m214.7964 569.4967 9.2036 22.2279z"/><path d="m224 591.7246-9.4788 22.8926z"/><path d="m191.8569 560 22.9395 9.4967z"/><path d="m214.5212 614.6172-22.6643 9.3828z"/><path d="m169.2628 569.3538 22.5941-9.3538z"/><path d="m191.8569 624-22.3189-9.2397z"/><path d="m160 591.7246 9.2628-22.3708z"/><path d="m169.538 614.7603-9.538-23.0357z"/><path d="m214.3571 217.3149 9.6429 23.2926z"/><path d="m214.3692 438.6801-22.5123 9.3199z"/><path d="m191.8569 208 22.5002 9.3149z"/><path d="m191.8569 448-22.1669-9.1769z"/><path d="m169.7021 217.1719 22.1548-9.1719z"/><path d="m169.69 438.8231-9.69-23.4026z"/><path d="m160 240.6075 9.7021-23.4356z"/><path d="m160 415.4205 9.1109-22.0039z"/><path d="m214.9483 393.5597 9.0517 21.8608z"/><path d="m169.1109 393.4166 22.746-9.4166z"/><path d="m191.8569 384 23.0914 9.5597z"/><path d="m169.0951 262.5768-9.0951-21.9693z"/><path d="m224 240.6075-9.0359 21.8263z"/><path d="m191.8569 272-22.7618-9.4232z"/><path d="m214.9641 262.4338-23.1072 9.5662z"/><path d="m232 434.7415 8-19.321-14.3162 34.5755z"/><path d="m232 259.9315 8-19.324-13.7204 33.1418z"/><path d="m226.2629 382.2438 13.7371 33.1767z"/><path d="m152 611.0457 6.2235 15.0303-14.2235-34.3514z"/><path d="m-214.2963 438.8561 7.9954 19.3101-19.31-7.9942-6.3891-15.4305 8-19.321z"/><path d="m-152 434.7415-6.3025 15.2215-14.5826 6.037-19.3241-8 22.5921-9.3529 16.4196-6.7976z"/><path d="m-160 415.4205 6.8025 16.429-16.4196 6.7976z"/><path d="m-192.2092 448 19.3241 8-19.3241 8-14.0917-5.8338-7.9954-19.3101z"/><path d="m-224 415.4205-8 19.321-8-19.321 5.8145-14.0427 19.31-7.9942z"/><path d="m-153.1975 431.8495-6.8025-16.429-9.038-21.8278-7.9955-19.3101 19.3101 7.9942 13.7234 33.1437-8 19.321z"/><path d="m-226.19 382.0677 14.6567-6.0677 19.3241 8-22.6663 9.3836-19.31 7.9942z"/><path d="m-144 240.6075-8 19.324-1.6179-3.9079-6.3821-15.4161-9.6293-23.2596-7.9939-19.3094 19.3094 7.9939z"/><path d="m-214.2842 217.1389-19.3094 7.9939 7.9939-19.3094 14.0664-5.8234 19.3241 8z"/><path d="m-214.8912 262.6099 7.9939 19.3094-19.3094-7.9939-5.7933-13.9939 8-19.324z"/><path d="m-152 259.9315-5.7068 13.7848-15.1783 6.2837-19.3241-8 23.187-9.5992 15.4043-6.3772z"/><path d="m-160 240.6075 6.3821 15.4161-15.4043 6.3772z"/><path d="m-192.2092 272 19.3241 8-19.3241 8-14.6881-6.0807-7.9939-19.3094z"/><path d="m-224 240.6075-8 19.324-8-19.324 6.4064-15.4747 19.3094-7.9939z"/><path d="m-192.2092 208-19.3241-8 19.3241-8 14.586 6.0385 7.9939 19.3094z"/><path d="m-192.2092 384-19.3241-8 19.3241-8 15.1757 6.2826 7.9955 19.3101z"/><path d="m-160 415.4205-9.6171 23.2266z"/><path d="m-169.6293 217.3479 9.6293 23.2596z"/><path d="m-169.6171 438.6471-22.5921 9.3529z"/><path d="m-192.2092 208 22.5799 9.3479z"/><path d="m-192.2092 448-22.0871-9.1439z"/><path d="m-214.2842 217.1389 22.075-9.1389z"/><path d="m-214.2963 438.8561-9.7037-23.4356z"/><path d="m-224 240.6075 9.7158-23.4686z"/><path d="m-224 415.4205 9.1245-22.0369z"/><path d="m-169.038 393.5927 9.038 21.8278z"/><path d="m-214.8755 393.3836 22.6663-9.3836z"/><path d="m-192.2092 384 23.1712 9.5927z"/><path d="m-214.8912 262.6099-9.1088-22.0024z"/><path d="m-160 240.6075-9.0222 21.7933z"/><path d="m-192.2092 272-22.682-9.3901z"/><path d="m-169.0222 262.4008-23.187 9.5992z"/><path d="m-152 434.7415 8-19.321-14.3025 34.5425z"/><path d="m-152 259.9315 8-19.324-13.7068 33.1088z"/><path d="m-172.8851 280 15.1783-6.2837-34.5024 14.2837z"/><path d="m-157.7234 382.2768.7135 1.7232 13.0099 31.4205z"/><path d="m-144 591.7246-8 19.3211-1.305-3.1517-6.695-16.1694-9.1899-22.1948-7.9955-19.3101 19.31 7.9942z"/><path d="m-214.7235 569.3207-19.3101 7.9942 7.9955-19.31 14.5048-6.0049 19.3241 8z"/><path d="m-214.4483 614.7932 7.9955 19.3101-19.3101-7.9943-6.2371-15.0633 8-19.3211z"/><path d="m-152 611.0457-6.1506 14.8543-14.7345 6.1-19.3241-8 22.744-9.4158 16.1602-6.6902z"/><path d="m-160 591.7246 6.695 16.1694-16.1602 6.6902z"/><path d="m-192.2092 624 19.3241 8-19.3241 8-14.2436-5.8967-7.9955-19.3101z"/><path d="m-224 591.7246-8 19.3211-8-19.3211 5.9664-14.4097 19.3101-7.9942z"/><path d="m-192.2092 560-19.3241-8 19.3241-8 15.0238 6.2197 7.9955 19.3101z"/><path d="m-152 611.0457 8-19.3211-11.5 27.7739-2.6506 6.4015z"/><path d="m256 640h-192z"/><path d="m-256 192v87.2556 62.3356 42.4088 32z"/><path d="m-256 416v224z"/><path d="m256 192v224z"/><path d="m256 416v224-9.6334-139.8119-36.4921z"/><path d="m-96 192h-68.1231-28.0861-44.2997-19.4911z"/><path d="m-32 192h-64-160z"/><path d="m192 192h-96-64-64z"/><path d="m64 640v-43.0684-60.9316-16 88z"/><path d="m-40 520h8z"/><path d="m-32 520v-16z"/><path d="m32 504h-64v16h64z"/><path d="m40 544v-24h-8-64-8v24z"/></g><g id="b"><path d="m-64 640h-192z"/><path d="m-64 640h-60.0112-23-45.198-27.802-35.9888z"/><path d="m256 640h-19.0112-45.1319-27.8681-39.9776-60.0112z"/><path d="m-256 192v224z"/><path d="m-256 416v224-9.6334-16.7754-43.1824-17.3262-17.0826-56-25.9374z"/><path d="m256 416v224z"/><path d="m256 192v87.2556 35.2991 101.4453z"/><path d="m256 192h-64z"/><path d="m-32 192h-224 19.4911 44.2997 28.0861z"/><path d="m192 192h-224 91.8769 36.1231 95.8569z"/><path d="m225.6726 206 14.3274 34.6075z"/><path d="m206.3633 198.0058 19.3093 7.9942-33.8157-14z"/><path d="m-206.4528 634.1033-19.3101-7.9943 33.5537 13.891z"/><path d="m-232 611.0457-8-19.3211 14.2371 34.3844z"/><path d="m-211.5333 200 19.3241-8-33.3905 13.8234z"/><path d="m-233.5936 225.1328 7.9939-19.3094-2.5926 6.2624-11.8077 28.5217z"/><path d="m211.181 632-19.3241 8 33.9789-14.067z"/><path d="m149.8008 401.4108-5.8008 14.0097 8 19.321 8-19.321 9.1109-22.0039z"/><path d="m177.6855 458.1332 14.1714 5.8668 19.3241-8-19.3241-8-22.1669-9.1769z"/><path d="m230.8122 431.8729-6.8122-16.4524-9.6308 23.2596z"/><path d="m191.8569 560 22.9395 9.4967-7.9955-19.3101-14.944-6.1866-19.3241 8z"/><path d="m149.9528 577.3479-5.9528 14.3767 8 19.3211 8-19.3211 9.2628-22.3708z"/><path d="m177.5335 634.0703 14.3234 5.9297 19.3241-8-19.3241-8-22.3189-9.2397z"/><path d="m230.7047 607.9174-6.7047-16.1928-9.4788 22.8926z"/><path d="m211.181 632 14.6548-6.067 6.1642-14.8873-1.2953-3.1283-16.1835 6.6998-22.6643 9.3828z"/><path d="m152 611.0457 6.2235 15.0303 19.31 7.9943-7.9955-19.31-9.538-23.0357z"/><path d="m157.9483 558.0378-7.9955 19.3101 19.31-7.9941 22.5941-9.3538-19.3241-8z"/><path d="m214.7964 569.4967 9.2036 22.2279 6.7047 16.1928 1.2953 3.1283 8-19.3211-13.889-33.5437-19.3101-7.9943z"/><path d="m211.181 456 14.5028-6.004 6.3162-15.2545-1.1878-2.8686-16.443 6.8072-22.5123 9.3199z"/><path d="m152 434.7415 6.3754 15.3975 19.3101 7.9942-7.9955-19.3101-9.69-23.4026z"/><path d="m206.9529 374.2496-15.096-6.2496-19.3241 8 19.3241 8 23.0914 9.5597z"/><path d="m169.1109 393.4166 22.746-9.4166-19.3241-8-14.7365 6.1008-7.9955 19.31z"/><path d="m226.2629 382.2438-19.31-7.9942 7.9954 19.3101 9.0517 21.8608 6.8122 16.4524 1.1878 2.8686 8-19.321z"/><path d="m191.8569 208 22.5002 9.3149-7.9938-19.3091-14.5064-6.0058-19.3241 8z"/><path d="m150.3927 225.1658-6.3927 15.4417 8 19.324 8-19.324 9.7021-23.4356z"/><path d="m177.0891 281.8862 14.7678 6.1138 19.3241-8-19.3241-8-22.7618-9.4232z"/><path d="m230.3918 256.0469-6.3918-15.4394-9.0359 21.8263z"/><path d="m211.181 280 15.0986-6.2507 5.7204-13.8178-1.6082-3.8846-15.4277 6.3869-23.1072 9.5662z"/><path d="m152 259.9315 5.7796 13.9608 19.3095 7.9939-7.994-19.3094-9.0951-21.9693z"/><path d="m158.3866 205.8564-7.9939 19.3094 19.3094-7.9939 22.1548-9.1719-19.3241-8z"/><path d="m214.3571 217.3149 9.6429 23.2926 6.3918 15.4394 1.6082 3.8846 8-19.324-14.3274-34.6075-19.3093-7.9942z"/><path d="m172.5328 200 19.3241-8-33.4703 13.8564z"/><path d="m211.181 456-19.3241 8 33.8269-14.004z"/><path d="m150.3927 225.1658 7.9939-19.3094-14.3866 34.7511z"/><path d="m177.0891 281.8862-19.3095-7.9939 28.506 11.8012 5.5713 2.3065z"/><path d="m152 259.9315-8-19.324 13.7796 33.2848z"/><path d="m211.181 280-19.3241 8 34.4227-14.2507z"/><path d="m177.6855 458.1332-19.3101-7.9942 33.4815 13.861z"/><path d="m152 434.7415-8-19.321 14.3754 34.7185z"/><path d="m206.9529 374.2496 19.31 7.9942-34.406-14.2438z"/><path d="m149.8008 401.4108 7.9955-19.31-13.7963 33.3197z"/><path d="m172.5328 376 19.3241-8-34.0606 14.1008z"/><path d="m226.111 558.1809 13.889 33.5437z"/><path d="m177.5335 634.0703-19.31-7.9943 33.6334 13.924z"/><path d="m206.8009 550.1866 19.3101 7.9943-34.2541-14.1809z"/><path d="m172.5328 552 19.3241-8-33.9086 14.0378z"/><path d="m149.9528 577.3479 7.9955-19.3101-13.9483 33.6868z"/><path d="m-234.1855 401.3778-5.8145 14.0427 8 19.321 8-19.321 9.1245-22.0369z"/><path d="m-206.3009 458.1662 14.0917 5.8338 19.3241-8-19.3241-8-22.0871-9.1439z"/><path d="m-153.1975 431.8495-6.8025-16.429-9.6171 23.2266z"/><path d="m-172.8851 456 14.5826-6.037 6.3025-15.2215-1.1975-2.892-16.4196 6.7976-22.5921 9.3529z"/><path d="m-232 434.7415 6.3891 15.4305 19.31 7.9942-7.9954-19.3101-9.7037-23.4356z"/><path d="m-177.0335 374.2826-15.1757-6.2826-19.3241 8 19.3241 8 23.1712 9.5927z"/><path d="m-192.2092 208 22.5799 9.3479-7.9939-19.3094-14.586-6.0385-19.3241 8z"/><path d="m-233.5936 225.1328-6.4064 15.4747 8 19.324 8-19.324 9.7158-23.4686z"/><path d="m-206.8973 281.9193 14.6881 6.0807 19.3241-8-19.3241-8-22.682-9.3901z"/><path d="m-153.6179 256.0236-6.3821-15.4161-9.0222 21.7933z"/><path d="m-172.8851 280 15.1783-6.2837 5.7068-13.7848-1.6179-3.9079-15.4043 6.3772-23.187 9.5992z"/><path d="m-232 259.9315 5.7933 13.9939 19.3094 7.9939-7.9939-19.3094-9.1088-22.0024z"/><path d="m-225.5997 205.8234-7.9939 19.3094 19.3094-7.9939 22.075-9.1389-19.3241-8z"/><path d="m-169.6293 217.3479 9.6293 23.2596 6.3821 15.4161 1.6179 3.9079 8-19.324-14.3138-34.5751-19.3094-7.9939z"/><path d="m-214.8755 393.3836 22.6663-9.3836-19.3241-8-14.6567 6.0677-7.9955 19.3101z"/><path d="m-157.7234 382.2768-19.3101-7.9942 7.9955 19.3101 9.038 21.8278 6.8025 16.429 1.1975 2.892 8-19.321z"/><path d="m-158.3138 206.0324 14.3138 34.5751z"/><path d="m-177.6232 198.0385 19.3094 7.9939-33.8954-14.0324z"/><path d="m-172.8851 456-19.3241 8 33.9067-14.037z"/><path d="m-206.8973 281.9193-19.3094-7.9939 28.5059 11.8012 5.4916 2.2734z"/><path d="m-232 259.9315-8-19.324 13.7933 33.3179z"/><path d="m-206.3009 458.1662-19.31-7.9942 33.4017 13.828z"/><path d="m-232 434.7415-8-19.321 14.3891 34.7515z"/><path d="m-177.0335 374.2826 19.3101 7.9942-28.5136-11.8044-5.9722-2.4724z"/><path d="m-234.1855 401.3778 7.9955-19.3101-.8001 1.9323-13.0099 31.4205z"/><path d="m-211.5333 376 19.3241-8-33.9808 14.0677z"/><path d="m-192.2092 560 23.0193 9.5298-7.9955-19.3101-15.0238-6.2197-19.3241 8z"/><path d="m-234.0336 577.3149-5.9664 14.4097 8 19.3211 8-19.3211 9.2765-22.4039z"/><path d="m-206.4528 634.1033 14.2436 5.8967 19.3241-8-19.3241-8-22.2391-9.2068z"/><path d="m-153.305 607.894-6.695-16.1694-9.4652 22.8596z"/><path d="m-172.8851 632 14.7345-6.1 6.1506-14.8543-1.305-3.1517-16.1602 6.6902-22.744 9.4158z"/><path d="m-232 611.0457 6.2371 15.0633 19.3101 7.9943-7.9955-19.3101-9.5517-23.0686z"/><path d="m-226.0381 558.0049-7.9955 19.31 19.3101-7.9942 22.5143-9.3207-19.3241-8z"/><path d="m-169.1899 569.5298 9.1899 22.1948 6.695 16.1694 1.305 3.1517 8-19.3211-13.8754-33.5107-19.31-7.9942z"/><path d="m-157.8754 558.2139 13.8754 33.5107z"/><path d="m-177.1854 550.2197 19.31 7.9942-34.3338-14.2139z"/><path d="m-172.8851 632-19.3241 8 34.0586-14.1z"/><path d="m-211.5333 552 19.3241-8-33.8289 14.0049z"/><path d="m-234.0336 577.3149 7.9955-19.31-13.9619 33.7197z"/><path d="m-169.4652 614.5842 9.4652-22.8596z"/><path d="m-160 591.7246-9.1899-22.1948z"/><path d="m-192.2092 624 22.744-9.4158z"/><path d="m-169.1899 569.5298-23.0193-9.5298z"/><path d="m-214.4483 614.7932 22.2391 9.2068z"/><path d="m-192.2092 560-22.5143 9.3207z"/><path d="m-224 591.7246 9.5517 23.0686z"/><path d="m-214.7235 569.3207-9.2765 22.4039z"/><path d="m-256 384v-42.4088-62.3356-60.8468-26.4088 224z"/><path d="m256 416v38.0626 36.4921 45.4453 17.0826 60.3627 16.9213 9.6334z"/><path d="m219.8769 192h36.1231-64z"/><path d="m225.6726 206 14.3274 34.6075 9.7055 23.4436 6.2945 15.2045v-87.2556h-36.1231z"/><path d="m225.6726 206-5.7957-14h-27.8769-.1431z"/><path d="m-236.5089 192 6.4825 15.656 4.4267-1.8326 33.3905-13.8234z"/><path d="m-230.0264 207.656-6.4825-15.656h-19.4911v26.4088z"/><path d="m228.5 619.4985 11.5-27.7739-8 19.3211-6.1642 14.8873z"/><path d="m225.8358 625.933 4.5487-1.8831-1.8845-4.5514z"/><path d="m250.0189 615.9214-10.0189-24.1968-11.5 27.7739 1.8845 4.5514z"/><path d="m256 613.4453v-60.3627l-16 38.642 10.0189 24.1968z"/><path d="m96 231.6839 62.3866-25.8275 33.4703-13.8564h-95.8569z"/><path d="m200.4904 320-14.2048-34.3065-28.506-11.8012 19.0882 46.1077z"/><path d="m256 314.5547v-35.2991l-6.2945-15.2045-23.4259 9.6982-34.4227 14.2507z"/><path d="m256 416v-101.4453l-64.1431-26.5547-5.5713-2.3065 14.2048 34.3065 25.7725 62.2438 13.7371 33.1767 10.1263 24.4565 5.8737 14.1856z"/><path d="m249.7055 264.0511-9.7055-23.4436-13.7204 33.1418z"/><path d="m176.8678 320-19.0882-46.1077-13.7796-33.2848-32.8678 79.3925z"/><path d="m105.9791 332.4473 5.1531-12.4473 32.8678-79.3925 14.3866-34.7511-62.3866 25.8275v124.868z"/><path d="m59.8769 192h-91.8769-132.1231l5.8093 14.0324 14.3138 34.5751 9.6958 23.4203 23.954 57.8611 25.7135 62.1111h52.6367 91.8769z"/><path d="m96 384v-27.4481-124.868-39.6839h-36.1231v192z"/><path d="m144 415.4205 13.7963-33.3197-4.5876 1.8992-89.2087 36.9316v59.0684 40 16h30.0732z"/><path d="m157.7963 382.1008 34.0606-14.1008-85.8778-35.5527-9.9791 24.1046v27.4481h57.2087z"/><path d="m191.8569 368 34.406 14.2438-25.7725-62.2438h-23.6226-65.7356l-5.1531 12.4473z"/><path d="m32 434.1793 8-3.3119 24-9.9358 89.2087-36.9316h-57.2087-36.1231-91.8769v76.6748z"/><path d="m94.0732 536h-30.0732v60.9316l93.9483-38.8938 33.9086-14.0378-19.3241-8z"/><path d="m163.9888 640h27.8681l-33.6334-13.924z"/><path d="m193.9268 536h-21.394l19.3241 8 34.2541 14.1809-9.1842-22.1809z"/><path d="m256 553.0826v-17.0826h-39.0732l9.1842 22.1809 13.889 33.5437z"/><path d="m124.0112 640h39.9776l-5.7653-13.924-14.2235-34.3514z"/><path d="m64 596.9316v43.0684h60.0112l19.9888-48.2754 13.9483-33.6868z"/><path d="m94.0732 536h78.4596 21.394l-35.5514-85.861-14.3754-34.7185z"/><path d="m191.8569 464-33.4815-13.861 35.5514 85.861h23 39.0732v-45.4453z"/><path d="m256 490.5547v-36.4921l-5.8737-14.1856-24.4425 10.119-33.8269 14.004z"/><path d="m225.6838 449.996 24.4425-10.119-10.1263-24.4565z"/><path d="m32 434.1793-64 26.4955v19.3252 24h64z"/><path d="m64 420.9316-24 9.9358v49.1326h24z"/><path d="m40 480v-49.1326l-8 3.3119v69.8207 16h8z"/><path d="m-110.3502 321.8889-23.954-57.8611-23.4026 9.6885-34.5024 14.2837z"/><path d="m-157.7068 273.7163 23.4026-9.6885-9.6958-23.4203z"/><path d="m-164.1231 192h-28.0861l33.8954 14.0324z"/><path d="m-186.237 370.4724 28.5136 11.8044-39.9774-96.5502-28.5059-11.8012z"/><path d="m-226.2067 273.9254-13.7933-33.3179-16 38.6481v62.3356l63.7908 26.4088 5.9722 2.4724z"/><path d="m-230.8573 384 4.6673-1.9323 33.9808-14.0677-63.7908-26.4088v42.4088z"/><path d="m-226.19 382.0677-4.6673 1.9323h3.8672z"/><path d="m-192.2092 288-5.4916-2.2734 39.9774 96.5502.7135 1.7232h72.3732l-25.7135-62.1111z"/><path d="m-64 480h24 8v-19.3252-76.6748h-52.6367-72.3732l13.0099 31.4205 10.1167 24.4331 16.6229 40.1464z"/><path d="m-213.2604 480-12.3505-29.828-14.3891-34.7515-16 38.6421v25.9374z"/><path d="m-192.2092 464-33.4017-13.828 12.3505 29.828h59.6994z"/><path d="m-117.2604 480-16.6229-40.1464-24.4192 10.1094-33.9067 14.037 38.6482 16z"/><path d="m-133.8833 439.8536-10.1167-24.4331-14.3025 34.5425z"/><path d="m-256 416v38.0626l16-38.6421 13.0099-31.4205h-3.8672-25.1427z"/><path d="m-64 520v-40h-53.2604-36.3006-59.6994-42.7396v56h44.4667 44.4601 103.0732z"/><path d="m-40 520h8v-16-24h-8z"/><path d="m-158.1506 625.9 4.5254-1.8735-1.8748-4.528z"/><path d="m-226.0381 558.0049-23.8377 9.8685 9.8758 23.8512z"/><path d="m-211.5333 536 19.3241 8 34.3338 14.2139-9.1978-22.2139z"/><path d="m-153.6252 624.0265 6.614 15.9735h23l-19.9888-48.2754-11.5 27.7739z"/><path d="m-226.0381 558.0049 33.8289-14.0049-19.3241-8h-44.4667v17.0826l6.1242 14.7908z"/><path d="m-158.1506 625.9-34.0586 14.1h45.198l-6.614-15.9735z"/><path d="m-64 536h-103.0732l9.1978 22.2139 13.8754 33.5107 19.9888 48.2754h60.0112z"/><path d="m40 632h-80z"/><path d="m240 415.4205-8 19.321-6.3162 15.2545z"/><path d="m240 240.6075-8 19.324-5.7204 13.8178z"/><path d="m226.2629 382.2438 13.7371 33.1767z"/><path d="m158.2235 626.076-6.2235-15.0303-8-19.3211z"/><path d="m-64 480h24z"/><path d="m64 480h-24z"/><path d="m-144 415.4205-8 19.321-6.3025 15.2215z"/><path d="m-144 240.6075-8 19.324-5.7068 13.7848z"/><path d="m-157.7068 273.7163-15.1783 6.2837-19.3241 8z"/><path d="m-157.0099 384-.7135-1.7232 13.7234 33.1437z"/><path d="m-64 520v16 104z"/><path d="m40 520h-8z"/><path d="m32 520v-16z"/><path d="m64 520v-40z"/><path d="m40 480v40z"/><path d="m32 504h-64z"/><path d="m40 632v-88z"/><path d="m40 544h-80z"/><path d="m-40 544v88z"/><path d="m-155.5 619.4985 11.5-27.7739-8 19.3211-6.1506 14.8543z"/><path d="m225.8358 625.933-33.9789 14.067h45.1319l-6.6043-15.9501z"/><path d="m256 630.3666v-16.9213l-5.9811 2.4761z"/><path d="m236.9888 640h19.0112v-9.6334l-5.9811-14.4452-19.6344 8.1285z"/><path d="m-225.5997 205.8234-4.4267 1.8326 1.8341 4.4298z"/><path d="m-256 279.2556 16-38.6481 11.8077-28.5217-1.8341-4.4298-25.9736 10.7528z"/><path d="m-249.8758 567.8734-6.1242 2.5354v43.1824l5.9296 2.4547 10.0704-24.3213z"/><path d="m-256 553.0826v17.3262l6.1242-2.5354z"/><path d="m-225.7629 626.109-14.2371-34.3844-10.0704 24.3213z"/><path d="m-256 640h35.9888l-5.7517-13.891-24.3075-10.0631-5.9296 14.3207z"/><path d="m-256 613.5912v16.7754l5.9296-14.3207z"/><path d="m-220.0112 640h27.802l-33.5537-13.891z"/><path d="m64-608v40 152h-128v-152-40z"/><path d="m64-608 48-72v112h-48z"/><path d="m64-416 48 72h-224l48-72z"/><path d="m-64-568v152l-48 72v-49-175z"/><path d="m40 544h-80z"/><path d="m40 632h-80z"/><path d="m40 632v-88z"/><path d="m-40 544v88z"/></g><g id="c"><path d="m571 128h5-32z"/><path d="m832-832v-64 96z"/><path d="m-832-352v96 128z"/><path d="m-832-576v91 128 5z"/><path d="m-832-800v128 96z"/><path d="m-352-1152h-96-128z"/><path d="m448-1152h-128-96z"/><path d="m-430.3224-24.6776-74.3745 74.3745h-149.6061l-.0194-.0193 221.1966-221.1776 2.8034-2.8031z"/><path d="m-504.6969 49.6969-74.8031 74.8031-74.803-74.8031z"/><path d="m-421.6248-183 .5001-.5 50.485 50.4807 23.6397 23.6376v.3817 1l-8.5 8.5-74.8224 74.8224v-149.6255z"/><path d="m-433.1258-171.5-221.1966 221.1776-11.0005-11.0005 57.3229-57.318 163.8733-163.8591z"/><path d="m-432.6257-194 .5-.5 11.001 11-.5001.5z"/><path d="m-346.6183-109 .3092.3091-.6909.6909v-1z"/><path d="m-355.5 128h-220.5l-3.5-3.5 74.8031-74.8031 74.3745-74.3745 74.8224-74.8224z"/><path d="m-347-108 .6909-.6909.3091-.3091h127v77 160h-133-3.5v-227.5z"/><path d="m-256-256h37v83h-100.616l-27.384-27.3817-55.6231-55.6183z"/><path d="m-832-128v-128h224v224h-128z"/><path d="m-608-32v13.3591l-57.3229 57.318-70.6771-70.6771z"/><path d="m-608-32v-224h56.364 22.0019 30.6341l64.187 64.187-9.3137 9.313-163.8733 163.8591z"/><path d="m654.2341 49.7659-83.2341-83.2268-138.051-138.0391 11.0009-11 150.5131 150.5 64.2615 64.2561 6.51 6.5094z"/><path d="m594.463-32-150.5131-150.5-9.2253-9.2246 64.2754-64.2754h30.4573 21.9322 43.6105 63.7246v224z"/><path d="m658.7245 32.2561-64.2615-64.2561h64.2616z"/><path d="m658.7246-32v-224h38.2754 135v128l-32 32-64 64z"/><path d="m665.2345 38.7655-6.51-6.5094.0001-64.2561h77.2754z"/><path d="m347 40.5v-148.5-1-.5584l73.9479-73.9416.5845.5844 11.4166 11.4156 138.051 138.0391v73.9609z"/><path d="m571 128h-27-197v-87.5h224z"/><path d="m654.2341 49.7659-78.2341 78.2341h-5v-87.5-73.9609z"/><path d="m347-108-.7792-.7792.2207-.2208h.5585z"/><path d="m346-109 .2208.2208.7792.7792v148.5 87.5h-27-101v-160-77z"/><path d="m319.4392-173h-100.4392v-83h37 146.4464z"/><path d="m431.9489-194.5.5835.5834-11 11.001-.5845-.5844z"/><path d="m-219-32v-77-64-83h27 80 117v224z"/><path d="m5 128h-133-91v-160h224z"/><path d="m112-256h80 27v83 64 77h-214v-224z"/><path d="m219-32v160h-123-91v-160z"/><path d="m-596-357 .6801-.6801.3199.3198v.3603z"/><path d="m-595-358-.3199.3199-.6801.6801h-12-224v-128h224 13z"/><path d="m-523.1335-284.5.5-.5 11.001 11-.5001.5z"/><path d="m-523.6336-262-6.0005 6h-22.0019l17.0015-17z"/><path d="m-529.6341-256 6.0005-6 .0118-.0118 9.3054-9.3046 15.3164 15.3164z"/><path d="m-499-256-15.3164-15.3164 1.5001-1.4999 79.5034 79.5034-1.5001 1.4999z"/><path d="m-608-256h-224v-96-5h224z"/><path d="m-596-357h1 .3603l72.0062 72-.5.5-11.4883 11.4872-.0127.0128-17.0015 17h-56.364v-101z"/><path d="m-512.8163-272.8163.6837-.6837.5001-.5 79.5068 79.5-.5.5-.6872.6871z"/><path d="m-531-384.3658v-100.6342h83v37 146.627z"/><path d="m-448-448h104l88 32v32 128h-146.6231l-45.3769-45.373z"/><path d="m-192-384v128h-27-37v-128z"/><path d="m-448-448v-37-20l39-39 65-65v33 128z"/><path d="m-344-576v-33l31-31h57v32z"/><path d="m-192-576v128h-32v-16-96-16z"/><path d="m-832-896 224-224v192 32z"/><path d="m-832-800v-96h224v192 32h-224z"/><path d="m-608-672v187h-224v-91-96z"/><path d="m-608-1120 32-32h128v160 64h-160z"/><path d="m-448-928v160 64h-160v-192-32z"/><path d="m-448-704v160 39 20h-83-64-13v-187-32z"/><path d="m-224-729 32-32v121h-64-57z"/><path d="m-448-928v-64h224v224h-224z"/><path d="m-224-768v39l-89 89-31 31-65 65h-39v-160-64z"/><path d="m-409-544-39 39v-39z"/><path d="m-224-992h112v151l-73 73h-39z"/><path d="m-185-768-7 7-32 32v-39z"/><path d="m-192-640v-121l7-7 73-73v73 88 63h-80z"/><path d="m-112-617v49 175h-80v-55-128-41z"/><path d="m-112-393v49 88h-80v-128-9z"/><path d="m-448-992v-160h96 128v160z"/><path d="m-224-1152 128 128v32h-16-112z"/><path d="m112-344v56 32h-107-117v-88z"/><path d="m256-256h-37-27v-32-96h64z"/><path d="m112-568v-112-56h80v96 64 64h-80z"/><path d="m192-512v64 64 96h-80v-56-168z"/><path d="m192-288v32h-80v-32z"/><path d="m224-560v96 16h-32v-64-64h32z"/><path d="m416-485v37h-72v-128h72z"/><path d="m256-736v96h-64v-96z"/><path d="m480-333.547-77.5536 77.547h-146.4464v-128-32l88-32h72 64z"/><path d="m531-448v63.4575l-27.5449 27.5425-23.4551 23.453v-114.453z"/><path d="m512.7279-272.7279 1.5001 1.4999-15.228 15.228-64.2754 64.2754-1.5001-1.4999z"/><path d="m499-256 15.228-15.228 9.3054 9.3046 5.9239 5.9234z"/><path d="m529.4573-256-5.9239-5.9234 10.9666-10.9676 16.8895 16.891z"/><path d="m522.4244-284.9677.5.5001-10.9686 10.9676-.5001-.5z"/><path d="m531-485v37h-51-64v-37z"/><path d="m551.3895-256-16.8895-16.891-11.5756-11.5766-.5-.5001 48.5756-48.5714 23.463-23.4609h.537v101z"/><path d="m511.4557-274 .5001.5.7721.7721-79.5034 79.5034-.6921-.6921-.5835-.5834z"/><path d="m697-256-101.7685-101.7685-.2315-.2315v-127h45 192v133 96z"/><path d="m697-256h-38.2754-63.7246v-101-.537l.2315-.2315z"/><path d="m480-576h-64-72l-88-32v-32-96h80 112 32z"/><path d="m704-576h-64-160v-160h192 32z"/><path d="m832-736v160h-128v-160z"/><path d="m640-485h-45-64-115v-91h64 160z"/><path d="m704-576h128v91h-192v-91z"/><path d="m-96-992h32 128 32 16v224h-224v-73-151z"/><path d="m112-768v32 56h-224v-88z"/><path d="m112-768v-224h208 16v224z"/><path d="m256-736h-64-80v-32h224v32z"/><path d="m336-992h112v64 160h-112z"/><path d="m448-768v32h-112v-32z"/><path d="m64-1152v128 32h-128v-32-128z"/><path d="m224-1152h96v160h-208-16v-32z"/><path d="m320-1152h128v160h-112-16z"/><path d="m448-928v-64-160h128l96 96v128z"/><path d="m672-832v96h-192-32v-32-160h224z"/><path d="m800-928 32 32v64h-160v-96-128z"/><path d="m832-832v32 64h-128-32v-96z"/><path d="m-608-1120-224 224z"/><path d="m-512.1326-273.5-11.0009-11z"/><path d="m-595-358v-127z"/><path d="m-595-357v-.3603z"/><path d="m-219-109h-127z"/><path d="m-346.6183-109h-.3817z"/><path d="m346-109h-127z"/><path d="m347-109h-.5585z"/><path d="m800-928-128-128-96-96z"/><path d="m595-357.537v.537z"/><path d="m595-485v127z"/><path d="m595-358 .2315.2315z"/><path d="m595.2315-357.7685-.2315.2315z"/><path d="m-347-109v-.3817z"/><path d="m595-357h-.537z"/><path d="m344-448v-128z"/><path d="m531-485h64z"/><path d="m531-448v-37 100.4575z"/><path d="m531-384.5425-27.5449 27.5425z"/><path d="m344-576-88-32z"/><path d="m-192-448h-32z"/><path d="m224-1152-128 128z"/><path d="m-64-1024v-16-112z"/><path d="m-96-1024-128-128z"/><path d="m-192-640h-64z"/><path d="m-64-992v-32z"/><path d="m64-992h32z"/><path d="m96-992v-32z"/><path d="m64-1024v32z"/><path d="m-96-992h32z"/><path d="m-96-1024v32z"/><path d="m192-640v64z"/><path d="m192-576h32z"/><path d="m-192-617v41-64z"/><path d="m-224-560v-16z"/><path d="m-224-464v-96z"/><path d="m-224-448v-16z"/><path d="m-192-393v9-64z"/><path d="m192-448v64z"/><path d="m-344-576v128z"/><path d="m-256-608-80 29.0909-8 2.9091z"/><path d="m-344-448 88 32z"/><path d="m219-109v-64z"/><path d="m347-109.5584v.5584z"/><path d="m571-333.5391-48.5756 48.5714-10.9687 10.9677-79.5068 79.5-11.001 11-73.9479 73.9416z"/><path d="m-219-173v64z"/><path d="m-219-173h-100.616z"/><path d="m-347-200.3817 27.384 27.3817z"/><path d="m-595-485h64z"/><path d="m-421.1247-183.5-11.001-11-79.5068-79.5-11.001-11-72.0062-72 224 223.9807z"/><path d="m-594.6397-357h-.3603z"/><path d="m-346-109-.3091.3091z"/><path d="m346.4415-109-.2207.2208z"/><path d="m346.2208-108.7792-.2208-.2208z"/><path d="m-346.3091-108.6909-.3092-.3091z"/><path d="m832-128-32 32z"/><path d="m514.228-271.228 9.2288 9.228.0766.0766z"/><path d="m514.228-271.228-1.5001-1.4999z"/><path d="m512.7279-272.7279-.7721-.7721z"/><path d="m432.5324-193.9166.6921.6921z"/><path d="m433.2245-193.2245 1.5001 1.4999z"/><path d="m434.7246-191.7246 9.2253 9.2246z"/><path d="m512.7279-272.7279-79.5034 79.5034z"/><path d="m499-256 15.228-15.228-79.5034 79.5034z"/><path d="m432.5324-193.9166-11 11.001z"/><path d="m-595.3199-357.6801.3199-.3199z"/><path d="m-595-357.3603-.3199-.3198z"/><path d="m-579.5 124.5 3.5 3.5-32-32z"/><path d="m-514.3164-271.3164-9.3054 9.3046z"/><path d="m-512.8163-272.8163-1.5001 1.4999z"/><path d="m-512.1326-273.5-.6837.6837z"/><path d="m-523.1335-284.5-11.4883 11.4872z"/><path d="m-499-256-15.3164-15.3164 79.5034 79.5034z"/><path d="m-433.3129-193.3129.6872-.6871z"/><path d="m-434.813-191.813 1.5001-1.4999z"/><path d="m-512.8163-272.8163 79.5034 79.5034z"/><path d="m-444.1267-182.5 9.3137-9.313z"/><path d="m112-568v56 168l-48-72v-152z"/><path d="m-112-617v-63l48 72v40h-48z"/><path d="m112-680-48 72h-128l-48-72z"/><path d="m515.0327-270.4234-79.5 79.5068 5.417 5.4166 79.5068-79.5z"/><path d="m520.4565-265-79.5068 79.5z"/><path d="m515.0327-270.4234 5.4238 5.4234z"/><path d="m435.5327-190.9166 79.5-79.5068z"/><path d="m440.9497-185.5-5.417-5.4166z"/><path d="m256-608v-32z"/><path d="m344-448-88 32z"/><path d="m336-448h8l-88 32z"/><path d="m344-576v128h-8v-128z"/><path d="m344-576h-8l-80-32z"/><path d="m336-448v-128z"/><path d="m336-576-8-3.2-72-28.8z"/><path d="m-256-416v32z"/><path d="m-336-448 80 32-88-32z"/><path d="m-344-448v-128l8-2.9091v2.9091 128z"/><path d="m-256-608-80 32v-2.9091z"/><path d="m-336-576v128z"/><path d="m-336-448 80 32z"/><path d="m-256-608-72 28.8-8 3.2z"/><path d="m328-579.2v3.2l-72-32z"/><path d="m328-576v-3.2l8 3.2v128h-8z"/><path d="m328-448h8l-80 32z"/><path d="m328-448v-128z"/><path d="m328-576-8-3.5556-64-28.4444z"/><path d="m336-448-80 32z"/><path d="m-328-576v-3.2l72-28.8z"/><path d="m-336-448v-128l8-3.2v3.2 128z"/><path d="m-336-448h8l72 32z"/><path d="m-328-576v128z"/><path d="m-328-448 72 32z"/><path d="m-520.6333-265 79.5068 79.5 5.5055-5.5049-79.5-79.5069z"/><path d="m-441.1265-185.5-79.5068-79.5z"/><path d="m-435.621-191.0049-5.5055 5.5049z"/><path d="m-515.121-270.5118 79.5 79.5069z"/><path d="m-520.6333-265 5.5123-5.5118z"/><path d="m320-579.5556v3.5556l-64-32z"/><path d="m320-576v-3.5556l8 3.5556v128h-8z"/><path d="m320-448h8l-72 32z"/><path d="m320-448v-128z"/><path d="m320-576-8-4-56-28z"/><path d="m328-448-72 32z"/><path d="m-328-448h8l64 32z"/><path d="m-320-576v-3.5556l64-28.4444z"/><path d="m-328-448v-128l8-3.5556v3.5556 128z"/><path d="m-320-576v128z"/><path d="m-320-448 64 32z"/><path d="m-256-608-56 28-8 4z"/><path d="m-320-579.5556-8 3.5556 72-32z"/><path d="m347 128h-22z"/><path d="m-352 128h-224 220.5z"/><path d="m-128 128h-219-5 133z"/><path d="m96 128h-219-5 133z"/><path d="m320 128h-219-5 123z"/><path d="m544 128h-197-22-5 27z"/><path d="m832-896v96z"/><path d="m832-352v224-128z"/><path d="m832-576v224-133z"/><path d="m832-800v224-160z"/><path d="m-832-352v224z"/><path d="m-832-576v224z"/><path d="m-832-800v224z"/><path d="m-832-896v96z"/><path d="m-224-1152h-128z"/><path d="m-352-1152h-224z"/><path d="m-16-1152h32 48-128z"/><path d="m576-1152h-128z"/><path d="m448-1152h-224z"/><path d="m-608-1120-224 224z"/><path d="m-576-1152-32 32z"/><path d="m-595-358v-127z"/><path d="m-595-357v-.3603z"/><path d="m-219-109h-127z"/><path d="m-346.6183-109h-.3817z"/><path d="m346-109h-127z"/><path d="m347-109h-.5585z"/><path d="m800-928-224-224z"/><path d="m832-896-32-32z"/><path d="m595-357.537v.537z"/><path d="m595-485v127z"/><path d="m595-358 .2315.2315z"/><path d="m595.2315-357.7685-.2315.2315z"/><path d="m-347-109v-.3817z"/><path d="m595-357h-.537z"/><path d="m256-384v-32z"/><path d="m256-640v32z"/><path d="m531-485h64z"/><path d="m531-384.5425-27.5449 27.5425z"/><path d="m312-448h8l-64 32z"/><path d="m312-576v-4l8 4v128h-8z"/><path d="m312-580v4l-56-32z"/><path d="m312-448v-128z"/><path d="m312-576-56-32z"/><path d="m320-448-64 32z"/><path d="m-192-384h-64z"/><path d="m-256-384h64z"/><path d="m192-384h64z"/><path d="m-256-640v32z"/><path d="m-256-384v-32z"/><path d="m192-448h32z"/><path d="m224-448h-32z"/><path d="m-224-448h32z"/><path d="m64-1040v16-128z"/><path d="m-16-1152v8h32v-8z"/><path d="m16-1152v8z"/><path d="m16-1144h-32z"/><path d="m-16-1144v-8z"/><path d="m192-640h64z"/><path d="m256-640h-64z"/><path d="m-192-640h-64z"/><path d="m-64-1024v32z"/><path d="m96-992h-32z"/><path d="m96-1024v32z"/><path d="m64-992v-32z"/><path d="m-64-992h-32z"/><path d="m-96-992v-32z"/><path d="m192-576v-64z"/><path d="m224-576h-32z"/><path d="m224-576v16z"/><path d="m-192-640v64z"/><path d="m-224-576h32z"/><path d="m-192-576h-32z"/><path d="m-192-448v64z"/><path d="m192-384v-64z"/><path d="m-320-448h8l56 32z"/><path d="m-320-448v-128l8-4v4 128z"/><path d="m-312-576v-4l56-28z"/><path d="m-312-576v128z"/><path d="m-312-448 56 32z"/><path d="m219-109v-64z"/><path d="m503.4551-357-184.0159 184 83.0072-83 77.5536-77.547z"/><path d="m219-173h100.4392z"/><path d="m319.4392-173h-100.4392z"/><path d="m347-109.5584v.5584z"/><path d="m571-333.5391-224 223.9807z"/><path d="m594.463-357-23.463 23.4609z"/><path d="m-219-173v64z"/><path d="m-347-200.3817 27.384 27.3817z"/><path d="m-595-485h64z"/><path d="m-370.6397-133.0193 23.6397 23.6376z"/><path d="m-594.6397-357 224 223.9807z"/><path d="m-531-384.3658v-100.6342z"/><path d="m-531-485v100.6342z"/><path d="m-531-384.3658 83 82.9928 45.3769 45.373 55.6231 55.6183z"/><path d="m-594.6397-357h-.3603z"/><path d="m-346-109-.3091.3091z"/><path d="m346.4415-109-.2207.2208z"/><path d="m346.2208-108.7792-.2208-.2208z"/><path d="m-346.3091-108.6909-.3092-.3091z"/><path d="m800-96-224 224 78.2341-78.2341 11.0004-11.0004 70.7655-70.7655z"/><path d="m-595.3199-357.6801.3199-.3199z"/><path d="m-595-357.3603-.3199-.3198z"/><path d="m-608 96-224-224 96 96 70.6771 70.6771 11.0005 11.0005.0194.0193z"/><path d="m312-576h-8l-48-32z"/><path d="m312-576v128h-8v-128z"/><path d="m304-448h8l-56 32z"/><path d="m304-448v-128z"/><path d="m304-576-8-5.3333-40-26.6667z"/><path d="m312-448-56 32z"/><path d="m-312-448v-128l8-4.5714v4.5714 128z"/><path d="m-304-576v-4.5714l48-27.4286z"/><path d="m-304-448 48 32-56-32z"/><path d="m-304-576v128z"/><path d="m-256-608-40 26.6667-8 5.3333z"/><path d="m-304-448 48 32z"/><path d="m-304-580.5714-8 4.5714 56-32z"/><path d="m296-448h8l-48 32z"/><path d="m296-576v-5.3333l8 5.3333v128h-8z"/><path d="m296-581.3333v5.3333l-40-32z"/><path d="m296-448v-128z"/><path d="m296-576-40-32z"/><path d="m256-416 40-32z"/><path d="m304-448-48 32z"/><path d="m16-1144h-32v-8h32z"/><path d="m-296-576v-5.3333l40-26.6667z"/><path d="m-304-448v-128l8-5.3333v5.3333 128z"/><path d="m-304-448h8l40 32z"/><path d="m-296-576v128z"/><path d="m-256-608-32 25.6-8 6.4z"/><path d="m-296-448 40 32z"/><path d="m-441.1265-185.5-79.5068-79.5 5.5123-5.5118 79.5 79.5069z"/><path d="m-432.6257-194 11.0009 11z"/><path d="m432.4489-194 79.5069-79.5 10.9686-10.9676-10.9686 10.9676-90.5078 90.5z"/><path d="m511.9558-273.5 10.9686-10.9676z"/><path d="m256-416v32z"/><path d="m288-448h8l-40 32z"/><path d="m296-576v128h-8v-128z"/><path d="m296-576h-8l-32-32z"/><path d="m288-448v-128z"/><path d="m288-576-32-32z"/><path d="m256-416 32-32z"/><path d="m-288-448 32 32-40-32z"/><path d="m-296-448v-128l8-6.4v6.4 128z"/><path d="m-256-608-32 32v-6.4z"/><path d="m-288-576v128z"/><path d="m-288-448 32 32z"/><path d="m-256-608-32 32z"/><path d="m523.4568-262 .0766.0766z"/><path d="m523.5334-261.9234 10.9666-10.9676z"/><path d="m432.5324-193.9166-.0835-.0834-11.0009 11 .0844.0844z"/><path d="m512.7279-272.7279-.7721-.7721-79.5069 79.5.0835.0834.6921.6921z"/><path d="m523.4568-262-9.2288-9.228-79.5034 79.5034 9.2253 9.2246z"/><path d="m514.228-271.228-1.5001-1.4999-79.5034 79.5034 1.5001 1.4999z"/><path d="m432.949-171.5-11.4166-11.4156-.0844-.0844z"/><path d="m512.7279-272.7279-79.5034 79.5034z"/><path d="m514.228-271.228-15.228 15.228-64.2754 64.2754z"/><path d="m443.9499-182.5-11.0009 11z"/><path d="m432.949-171.5-11.4166-11.4156z"/><path d="m-512.1326-273.5-.6837.6837 79.5034 79.5034.6872-.6871z"/><path d="m-514.3164-271.3164-9.3054 9.3046-.0118.0118 79.5069 79.5 9.3137-9.313z"/><path d="m-512.8163-272.8163-1.5001 1.4999 79.5034 79.5034 1.5001-1.4999z"/><path d="m-444.1267-182.5-79.5069-79.5-11.0009-11 101.5087 101.5z"/><path d="m-534.6345-273 .0127-.0128 11.4883-11.4872z"/><path d="m-421.6248-183-11.501 11.5z"/><path d="m-523.6218-262.0118-11-11.001z"/><path d="m-433.1258-171.5-11.0009-11z"/><path d="m-421.6248-183-8.6976 8.6969-2.8034 2.8031z"/><path d="m-514.3164-271.3164 15.3164 15.3164 64.187 64.187z"/><path d="m-512.8163-272.8163 79.5034 79.5034z"/><path d="m-523.1335-284.5 11.0009 11 79.5069 79.5 11.0009 11z"/><path d="m-595-358v-127z"/><path d="m-595-357v-.3603z"/><path d="m-219-109h-127z"/><path d="m-346.6183-109h-.3817z"/><path d="m346-109h-127z"/><path d="m347-109h-.5585z"/><path d="m595-357.537v.537z"/><path d="m595-485v127z"/><path d="m595-358 .2315.2315z"/><path d="m595.2315-357.7685-.2315.2315z"/><path d="m-347-109v-.3817z"/><path d="m595-357h-.537z"/><path d="m256-608v192 32-64z"/><path d="m531-485h64z"/><path d="m531-384.5425v-100.4575z"/><path d="m531-485v100.4575z"/><path d="m531-384.5425-27.5449 27.5425z"/><path d="m256-608 32 32v128l-32 32z"/><path d="m-32-384h-160-64z"/><path d="m192-384h-160-64z"/><path d="m256-384h-64z"/><path d="m-256-640v32z"/><path d="m-256-640v32z"/><path d="m64-1024v-16z"/><path d="m-16-1040h-48v16h48z"/><path d="m64-1040h-80v16h80z"/><path d="m-16-1040h80-80-48z"/><path d="m-64-576h-128-32v16 96 16h32 176v-112-16z"/><path d="m-64-576v-64h-32-96v64z"/><path d="m-64-800v-192h-32v128 96h32z"/><path d="m-96-768v128h32v-128z"/><path d="m-64-1024v32 192h48v-224z"/><path d="m-64-800v32 128 64h48v-224z"/><path d="m32-448h160v-112h-128-80v112z"/><path d="m96-640h-32v80h128v-16-64z"/><path d="m192-576v16 112h32v-16-96-16z"/><path d="m96-864v-128h-32v192 32h32z"/><path d="m64-768v128h32v-128z"/><path d="m-16-1024v224h80v-192-32z"/><path d="m-16-800v224 16h80v-80-128-32z"/><path d="m-96-992v-32 160z"/><path d="m192-640h64-64-96z"/><path d="m96-864v96 128-160z"/><path d="m-192-640h96-128-32z"/><path d="m224-560v96z"/><path d="m224-464v16z"/><path d="m32-448h-48-176v64h160 64z"/><path d="m192-384v-64h-160v64z"/><path d="m-288-448v-128l32-32v192z"/><path d="m219-109v-64z"/><path d="m503.4551-357-184.0159 184z"/><path d="m347-109.5584v.5584z"/><path d="m571-333.5391-224 223.9807 158.3988-158.3851z"/><path d="m594.463-357-23.463 23.4609z"/><path d="m-219-173v64z"/><path d="m-219-173h-100.616z"/><path d="m-319.616-173h100.616z"/><path d="m-347-200.3817 27.384 27.3817z"/><path d="m-595-485h64z"/><path d="m-370.6397-133.0193 23.6397 23.6376z"/><path d="m-594.6397-357 158.3987 158.3851 65.6013 65.5956z"/><path d="m-531-384.3658 184 183.9841z"/><path d="m-594.6397-357h-.3603z"/><path d="m-346-109-.3091.3091z"/><path d="m346.4415-109-.2207.2208z"/><path d="m346.2208-108.7792-.2208-.2208z"/><path d="m-346.3091-108.6909-.3092-.3091z"/><path d="m511.9558-273.5 11.501 11.5-90.5078 90.5-11.501-11.5z"/><path d="m523.4568-262-11.501-11.5 10.9686-10.9676 11.5756 11.5766-10.9666 10.9676z"/><path d="m534.5-272.891-11.5756-11.5766z"/><path d="m523.4568-262-79.5069 79.5-11.0009 11z"/><path d="m-595.3199-357.6801.3199-.3199z"/><path d="m-595-357.3603-.3199-.3198z"/><path d="m-534.6345-273 11.501-11.5 101.5087 101.5-11.501 11.5z"/><path d="m520.4565-265-79.5068 79.5-5.417-5.4166 79.5-79.5068z"/><path d="m-16-1152h-48z"/><path d="m64-1152h-48z"/><path d="m16-1152h-32z"/><path d="m595.2315-357.7685-.2315.2315v-.463z"/><path d="m256-640v32z"/><path d="m531-357h-27.5449l27.5449-27.5425z"/><path d="m595-358v.463.537h-.537-63.463v-27.5425-100.4575h64z"/><path d="m256-384h-64z"/><path d="m-256-608v160 64-32z"/><path d="m64-1040v-112z"/><path d="m-224-576v128h-32v-160-32h32z"/><path d="m-96-576h64v16 112h-192v-128z"/><path d="m-96-624v48h-128v-64h128z"/><path d="m-96-576v-48h64v48z"/><path d="m32-560h64 96v112h-224v-112z"/><path d="m96-624v64h-64v-64z"/><path d="m96-624v-16h96v80h-96z"/><path d="m192-560v-80h64v32 160h-64z"/><path d="m96-1024v160 64h-192v-64-160z"/><path d="m96-800v160 16h-64-64-64v-16-160z"/><path d="m32-624h-64z"/><path d="m32-560v-64z"/><path d="m-32-576v-48 48 16z"/><path d="m-96-864v64 160-128z"/><path d="m96-1024v32 128z"/><path d="m-32-384h-224v-64h32 192z"/><path d="m192-384h-224v-64h224z"/><path d="m256-448v64h-64v-64z"/><path d="m319.4392-173h27.5608v63.4416.5584h-.5585-.4415-127v-64z"/><path d="m319.4392-173 27.5608-27.5584v27.5584z"/><path d="m505.3988-267.9435-158.3988 158.3851v-63.4416-27.5584l112.8968-112.8871z"/><path d="m503.4551-357h27.5449 63.463l-23.463 23.4609-65.6012 65.5956-45.502-45.502z"/><path d="m503.4551-357-43.5583 43.5545-112.8968 112.8871-27.5608 27.5584z"/><path d="m219-173h100.4392z"/><path d="m594.463-357-23.463 23.4609z"/><path d="m-347-173v-27.3817l27.384 27.3817z"/><path d="m-346-109h-.6183-.3817v-.3817-63.6183h27.384 100.616v64z"/><path d="m-594.6397-357h63.6397 27.3681l112.8929 112.8831-45.502 45.502z"/><path d="m-390.739-244.1169 43.739 43.7352v27.3817 63.6183l-23.6397-23.6376-65.6013-65.5956z"/><path d="m-531-384.3658 27.3681 27.3658h-27.3681z"/><path d="m-531-384.3658v27.3658h-63.6397-.3603v-.3603-.6397-127h64z"/><path d="m-370.6397-133.0193 23.6397 23.6376z"/><path d="m-531-485v100.6342z"/><path d="m-390.739-244.1169-112.8929-112.8831-27.3681-27.3658 184 183.9841z"/><path d="m346.4415-109-.2207.2208-.2208-.2208z"/><path d="m-346.3091-108.6909-.3092-.3091h.6183z"/><path d="m-595-357.3603-.3199-.3198.3199-.3199z"/><path d="m-576 128h224 5z"/><path d="m347 128h197 32z"/><path d="m832-128v-224z"/><path d="m832-352v-224z"/><path d="m832-576v-224z"/><path d="m832-896v96z"/><path d="m-832-128v-224z"/><path d="m-832-352v-224z"/><path d="m-832-576v-224z"/><path d="m-832-896v96z"/><path d="m-576-1152h224z"/><path d="m-224-1152h-128z"/><path d="m224-1152h224z"/><path d="m576-1152h-128z"/><path d="m-832-896 224-224z"/><path d="m-576-1152-32 32z"/><path d="m576-1152 224 224z"/><path d="m832-896-32-32z"/><path d="m224-1152-128 128z"/><path d="m-96-1024-128-128z"/><path d="m576 128 224-224z"/><path d="m800-96 32-32z"/><path d="m-832-128 224 224z"/><path d="m-608 96 32 32z"/><path d="m-347 128h-5-224z"/><path d="m-256 128h-91z"/><path d="m-123 128h-133-91 219z"/><path d="m101 128h-133-91 219z"/><path d="m325 128h-69-64-91 219z"/><path d="m-256 160v32 26.4088 60.8468 104.7444z"/><path d="m-256 160v-32z"/><path d="m256 384v-104.7444-87.2556-32z"/><path d="m256 128v32z"/><path d="m-32 192h-160.2092-63.7908v-32-32h133 91z"/><path d="m192 192h-.1431-223.8569v-64h133 91z"/><path d="m256 128v32 32h-36.1231-27.8769v-64z"/><path d="m256 192v87.2556l-30.3274-73.2556-5.7957-14z"/><path d="m192 192.0593-.1431-.0593h.1431 27.8769l5.7957 14z"/><path d="m-225.5997 205.8234-30.4003 12.5854v-26.4088h63.7908z"/><path d="m-224 416-32-32v-104.7444l30.4003-73.4322 33.3905-13.8234h160.2092v224z"/><path d="m-32 512h-96l-96-96h192z"/><path d="m-32 416v-224h223.8569l.1431.0593v223.9407z"/><path d="m192 416.0593v31.9407l-64 64h-32-128v-96h224z"/><path d="m256 279.2556v104.7444l-32.0593 32.0593h-31.9407v-.0593-223.9407l33.6726 13.9407z"/><path d="m223.9407 416.0593-31.9407 31.9407v-31.9407z"/><path d="m128 512h-32z"/><path d="m128 512 64-64 31.9407-31.9407 32.0593-32.0593z"/><path d="m-256 384 128 128z"/><path d="m40 632h-80z"/><path d="m40 544h-80z"/><path d="m40 632v-88z"/><path d="m-40 544v88z"/><path d="m-256 279.2556v-60.8468l30.4003-12.5854z"/><path d="m64-1024h32z"/><path d="m-64-1024h32 64 32 32-192z"/><path d="m-96-1024h32z"/><path d="m96-1024 128-128z"/><path d="m-64-576v-112l-32 32v128l32 32z"/><path d="m-32-1024h-32v112 112h32z"/><path d="m-64-800v112 112h32v-48-176z"/><path d="m-64-576v80h32v-64-16z"/><path d="m96-656-32-32v32z"/><path d="m32-496v-64h-64v64z"/><path d="m32-624v64 64h32l32-32v-128h-32-32z"/><path d="m32-800v-224h-64v224z"/><path d="m32-624v-32-144h-64v176z"/><path d="m64-912v-112h-32v224h32z"/><path d="m32-800v144h32v-32-112z"/><path d="m-64-1024v112z"/><path d="m96-656v128z"/><path d="m64-912v112 112-112z"/><path d="m64-688 32 32z"/><path d="m96-528-32 32z"/><path d="m-96-528v-128z"/><path d="m-64-496-32-32z"/><path d="m-96-656 32-32z"/><path d="m32-560h-64z"/><path d="m-256 160v224z"/><path d="m256 384v-224z"/><path d="m40 512v8 24h-80v-24-8z"/><path d="m-128 512h32z"/><path d="m96 512h32z"/><path d="m96 512h-48z"/><path d="m128 512 128-128z"/><path d="m-256 384 128 128z"/><path d="m40 632h-80z"/><path d="m-40 512v8z"/><path d="m-40 544v88-112z"/><path d="m40 520v24z"/><path d="m40 520v-8z"/><path d="m96 512h-48-8-80-8-48-32 96z"/><path d="m40 544h-80z"/><path d="m40 632v-88z"/><path d="m-40 632v-88z"/><path d="m24 544v-32z"/><path d="m96 512h-72v32h72z"/><path d="m96 512v32z"/><path d="m96 544h-72z"/><path d="m24 512h72z"/><path d="m-24 512v32z"/><path d="m-24 512h-72v32h72z"/><path d="m-96 544v-32z"/><path d="m-96 512h72z"/><path d="m-24 544h-72z"/><path d="m-64-1040v-112z"/><path d="m-64-1024v-16z"/><path d="m-64-1040h48v16h-48z"/><path d="m64-1024h-32-48v-16h80z"/><path d="m-64-912v112 112-112z"/><path d="m-16-496h48 32-32-64-32z"/><path d="m-16-1024h48v224h-48z"/><path d="m32-800v144 80h-48v-224z"/><path d="m32-576v80h-48v-80z"/><path d="m32-1024h32v112 112h-32z"/><path d="m64-800v112 32h-32v-144z"/><path d="m96-528-32 32h-32v-80-80h32 32z"/><path d="m64-688 32 32h-32z"/><path d="m-16-1024v224h-48v-112-112z"/><path d="m-16-800v224h-48v-112-112z"/><path d="m-16-576v80h-48v-80z"/><path d="m64-1024v112z"/><path d="m-96-656 32-32v112 80l-32-32z"/><path d="m-40 512h-8z"/><path d="m0 512h-40z"/><path d="m0 512h40z"/><path d="m40 544v88z"/><path d="m40 632v-88-24-8h-40-40v8 112z"/><path d="m48 512h-8z"/><path d="m-40 512h40-48z"/><path d="m40 512h8-48z"/><path d="m-64-1152h48z"/><path d="m16-1152h48z"/><path d="m-16-1152h32z"/><path d="m64-1152v112z"/><path d="m64-1040v16z"/><path d="m64-1024v-16-112h-48-32-48v112 16z"/><path d="m347 128h-27-64 69z"/><path d="m576 128h-32z"/><path d="m576 128h-32-197z"/><path d="m832-896v64 32z"/><path d="m832-352v224z"/><path d="m832-576v224z"/><path d="m832-800v224z"/><path d="m-832-352v224-128z"/><path d="m-832-576v224-96z"/><path d="m-832-800v224-96z"/><path d="m-832-896v96z"/><path d="m-224-1152h-128z"/><path d="m-352-1152h-224 128z"/><path d="m448-1152h-224 96z"/><path d="m576-1152h-128z"/><path d="m-608-1120-224 224z"/><path d="m-576-1152-32 32z"/><path d="m800-928-224-224 96 96z"/><path d="m832-896-32-32z"/><path d="m64-1024h-128z"/><path d="m224-1152-128 128z"/><path d="m-224-1152 128 128z"/><path d="m-96-1024-128-128z"/><path d="m832-128-32 32z"/><path d="m800-96-224 224z"/><path d="m832-128-32 32z"/><path d="m-576 128-32-32z"/><path d="m-608 96-224-224z"/><path d="m-576 128-32-32z"/><path d="m-32 128h-96-128v32h224z"/><path d="m192 128h-96-128v32h224z"/><path d="m256 160v-32h-64v32z"/><path d="m-256 160v224z"/><path d="m256 384v-224z"/><path d="m-32 160h-224z"/><path d="m192 160h-224z"/><path d="m128 512h-32z"/><path d="m-256 384 128 128z"/><path d="m128 512 128-128-64 64z"/><path d="m-96 512h48z"/><path d="m96 544h-72v-32h72z"/><path d="m-24 544h-72v-32h72z"/></g><g id="d"><path d="m-352 128h-32-192z"/><path d="m-128 128h-32-192 5 91z"/><path d="m96 128h-32-192 96z"/><path d="m320 128h-32-192 96 64z"/><path d="m544 128h-32-192 27z"/><path d="m832-352v96 128z"/><path d="m832-576v192 32z"/><path d="m832-800v192 32z"/><path d="m-832-896v96z"/><path d="m-224-1152h-128z"/><path d="m576-1152h-128z"/><path d="m-608-256h-224v128l96 96h128z"/><path d="m-736-32 128 128v-128z"/><path d="m-384-256h-64-160v224h224z"/><path d="m-608-32v128l32 32h192v-160z"/><path d="m-160-256h-64-160v224h224z"/><path d="m-384-32v160h32 192v-160z"/><path d="m64-256h-64-160v224h224z"/><path d="m-160-32v160h32 192v-160z"/><path d="m288-256h-64-160v224h224z"/><path d="m64-32v160h32 192v-160z"/><path d="m512-256h-64-160v224h224z"/><path d="m288-32v160h32 192v-160z"/><path d="m736-256h-64-160v224h224z"/><path d="m512-32v160h32 32l160-160z"/><path d="m832-128v-128h-96v224z"/><path d="m-416-736h-32v32 192h32z"/><path d="m-448-512v32 192h32v-224z"/><path d="m-208-736h-16-16v224h32z"/><path d="m-240-512v224h16 16v-224z"/><path d="m-608-928v-192l-224 224h224z"/><path d="m-832-896v96 128h224v-32-192z"/><path d="m-832-672v96 128h224v-32-192z"/><path d="m-832-448v96 96h224v-192z"/><path d="m-448-1024v-128h-128l-32 32v192h160z"/><path d="m-608-928v32 192h160v-32-32-32-128z"/><path d="m-608-704v32 192h160v-32-192z"/><path d="m-608-480v32 192h160v-32-192z"/><path d="m-224-1152h-128-96v128h224z"/><path d="m-96-1024-128-128v128z"/><path d="m16-736h-16-16v224h32z"/><path d="m-16-512v224h16 16v-224z"/><path d="m240-736h-16-16v224h32z"/><path d="m208-512v224h16 16v-224z"/><path d="m-224-288h-16-176-32v32h64 160z"/><path d="m0-288h-16-192-16v32h64 160z"/><path d="m224-288h-16-192-16v32h64 160z"/><path d="m288-256h160v-32h-32-176-16v32z"/><path d="m448-512v-192-32h-32v224z"/><path d="m416-288h32v-192-32h-32z"/><path d="m-224-1024h-224v96 128h224z"/><path d="m-448-800v32h224v-32z"/><path d="m0-1024h-96-128v224h224z"/><path d="m-224-800v32h224v-32z"/><path d="m224-1024h-128-96v224h224z"/><path d="m0-800v32h224v-32z"/><path d="m448-800v-128-96h-128-96v224z"/><path d="m448-768v-32h-224v32z"/><path d="m-224-768h-224v32h32 176 16z"/><path d="m0-768h-224v32h16 192 16z"/><path d="m224-768h-224v32h16 192 16z"/><path d="m240-736h176 32v-32h-224v32z"/><path d="m320-1152h-96l-128 128h128 96z"/><path d="m448-1024v-128h-128v128z"/><path d="m672-1056-96-96h-128v128 96h224z"/><path d="m448-928v128 32 32 32h224v-128-96z"/><path d="m448-704v192 32h224v-128-96z"/><path d="m448-480v192 32h64 160v-128-96z"/><path d="m832-896-32-32-128-128v128 96h160z"/><path d="m672-832v128 96h160v-192-32z"/><path d="m672-608v128 96h160v-192-32z"/><path d="m672-384v128h64 96v-96-32z"/><path d="m16-512v224z"/><path d="m208-736v224z"/><path d="m240-288h176z"/><path d="m416-736h-176z"/><path d="m240-512v224z"/><path d="m416-736v224z"/><path d="m16-288h192z"/><path d="m208-736h-192z"/><path d="m-208-512v224z"/><path d="m-208-288h192z"/><path d="m-16-736h-192z"/><path d="m-16-736v224z"/><path d="m-416-288h176z"/><path d="m-240-736h-176z"/><path d="m-240-736v224z"/><path d="m-416-512v224z"/><path d="m-576-1152-32 32z"/><path d="m832-896-32-32z"/><path d="m0-1024h96-32-128-32z"/><path d="m800-96-224 224z"/><path d="m-608 96-128-128-96-96z"/><path d="m256 160h-64z"/><path d="m96 512h-128-96 32 48 48 48z"/><path d="m-32 160h-224v224h224z"/><path d="m-256 384 128 128h96v-128z"/><path d="m192 160h-224v224h224z"/><path d="m-32 384v128h128 32l64-64v-64z"/><path d="m256 384v-224h-64v224z"/><path d="m256 384h-64v64z"/></g><g id="e"><path d="m-448-480v192 32z"/><path d="m-448-704v192 32z"/><path d="m448-736v-32 64z"/><path d="m448-256h-224z"/><path d="m-224-768h-224z"/><path d="m0-768h-224z"/><path d="m224-768h-224z"/><path d="m-448-704v-32h32v224h-32z"/><path d="m-416-512v224h-32v-192-32z"/><path d="m-240-736h16 16v224h-32z"/><path d="m-208-512v224h-16-16v-224z"/><path d="m-16-736h16 16v224h-32z"/><path d="m16-512v224h-16-16v-224z"/><path d="m208-736h16 16v224h-32z"/><path d="m240-512v224h-16-16v-224z"/><path d="m-224-256h-224v-32h32 176 16z"/><path d="m0-256h-224v-32h16 192 16z"/><path d="m224-256h-224v-32h16 192 16z"/><path d="m240-288h176 32v32h-224v-32z"/><path d="m416-512v-224h32v32 192z"/><path d="m448-480v192h-32v-224h32z"/><path d="m-224-736h-16-176-32v-32h224z"/><path d="m0-736h-16-192-16v-32h224z"/><path d="m224-736h-16-192-16v-32h224z"/><path d="m448-768v32h-32-176-16v-32z"/><path d="m16-736v224z"/><path d="m208-512v224z"/><path d="m240-736v224z"/><path d="m416-512v224z"/><path d="m-208-736v224z"/><path d="m-16-512v224z"/><path d="m-240-512v224z"/><path d="m-416-736v224z"/><path d="m-448-768v32 32z"/><path d="m448-480v224-32z"/><path d="m448-704v224-32z"/><path d="m-224-256h-224z"/><path d="m0-256h-224z"/><path d="m224-256h-224z"/><path d="m448-768h-224z"/></g></defs><g stroke="#000"><use fill="none" stroke-miterlimit="0" stroke-width="10" xlink:href="#a"/><use fill="#c2c2c2" xlink:href="#a"/><use fill="none" stroke-miterlimit="0" stroke-width="10" xlink:href="#b"/><use fill="#d1d1d1" xlink:href="#b"/><use fill="none" stroke-miterlimit="0" stroke-width="10" xlink:href="#c"/><use fill="#e0e0e0" xlink:href="#c"/><use fill="none" stroke-miterlimit="0" stroke-width="10" xlink:href="#d"/><use fill="#f0f0f0" xlink:href="#d"/><use fill="none" stroke-miterlimit="0" stroke-width="10" xlink:href="#e"/><use fill="#fff" xlink:href="#e"/></g></svg>