<?xml version="1.0" encoding="utf-8" ?>
<svg baseProfile="tiny" height="100%" version="1.2" viewBox="-1064.0 -960.0 1736.0 1736.0" width="100%" xmlns="http://www.w3.org/2000/svg" xmlns:ev="http://www.w3.org/2001/xml-events" xmlns:xlink="http://www.w3.org/1999/xlink"><defs><g id="bsp_ref"><polygon points="280,-24 56,-24 56,-24 280,-24" /><polygon points="488,-152 280,-152 280,-24 488,-24" /><polygon points="280,-152 56,-152 56,-24 280,-24" /><polygon points="280,-152 488,-152 488,-152 280,-152" /><polygon points="-256,-544 -256,-344 -128,-344 -128,-544" /><polygon points="-128,-768 -256,-768 -256,-544 -128,-544" /><polygon points="-256,-568 -256,-768 -256,-768 -256,-568" /><polygon points="-128,-568 -128,-344 -128,-344 -128,-568" /><polygon points="-640,-24 -864,-24 -864,-24 -640,-24" /><polygon points="-440,-152 -640,-152 -640,-24 -440,-24" /><polygon points="-640,-152 -864,-152 -864,-24 -640,-24" /><polygon points="-640,-152 -440,-152 -440,-152 -640,-152" /><polygon points="-256,376 -256,584 -128,584 -128,376" /><polygon points="-128,152 -256,152 -256,376 -128,376" /><polygon points="-256,360 -256,152 -256,152 -256,360" /><polygon points="-128,360 -128,584 -128,584 -128,360" /><polygon points="-792,-152 -920,-152 -920,-24 -792,-24" /><polygon points="-128,-816 -256,-816 -256,-688 -128,-688" /><polygon points="528,-152 400,-152 400,-24 528,-24" /><polygon points="-128,504 -256,504 -256,632 -128,632" /><polygon points="-840,234 -840,10 -753,10 -689,10 -672,10 -672,40 -672,234" /><polygon points="-840,458 -840,234 -672,234 -672,264 -672,458" /><polygon points="-672,488 -672,560 -840,560 -840,458 -672,458" /><polygon points="-672,264 -672,234 -672,40 -656,120 -656,264" /><polygon points="-672,488 -672,458 -672,264 -656,264 -656,344 -656,376 -656,488" /><polygon points="-656,560 -672,560 -672,488 -656,488" /><polygon points="-585,304 -585,376 -604.8,376 -611.2,344 -648,160 -592,240 -585,250" /><polygon points="-592,240 -585,247 -585,250" /><polygon points="-585,189 -585,227.1429 -632,160 -656,40 -656,10 -631.9193,10 -585,10" /><polygon points="-656,344 -656,264 -656,120 -648,160 -611.2,344" /><polygon points="-604.8,376 -656,376 -656,344 -611.2,344" /><polygon points="-585,392 -585,560 -656,560 -656,488 -656,376 -604.8,376 -585,376" /><polygon points="-585,-5.6418 -585,10 -631.9193,10" /><polygon points="-361,560 -585,560 -585,392 -361,392" /><polygon points="-320,392 -288,392 -288,408 -288,472 -288,560 -361,560 -361,392" /><polygon points="-361,392 -585,392 -585,376 -428.5714,376 -400,376 -361,383.8" /><polygon points="-320,392 -361,392 -361,383.8" /><polygon points="-428.5714,376 -440,368 -400,376" /><polygon points="-528,304 -520,312 -531.4286,304" /><polygon points="-361,304 -288,304 -288,352 -288,376 -320,376 -440,352 -508.5714,304" /><polygon points="-520,312 -440,368 -428.5714,376 -585,376 -585,304 -531.4286,304" /><polygon points="-288,352 -288,304 -272,304" /><polygon points="-252,304 -137,304 -132,304 -132,544 -252,544" /><polygon points="-528,304 -531.4286,304 -585,304 -585,250 -585,247" /><polygon points="-96,304 -96,352 -112,304" /><polygon points="-96,560 -96,472 -96,408 -96,392 -64,392 128,392 128,560" /><polygon points="128,392 160,392 352,392 352,560 128,560" /><polygon points="352,392 384,392 456,392 456,560 352,560" /><polygon points="160,392 128,392 -64,392 16,376 56,376 160,376" /><polygon points="384,392 352,392 160,392 160,376 280,376 384,376" /><polygon points="456,376 456,392 384,392 384,376" /><polygon points="16,376 56,368 56,376" /><polygon points="136,312 144,304 147.4286,304" /><polygon points="87,304 124.5714,304 56,352 -64,376 -96,376 -96,352 -96,304" /><polygon points="280,376 160,376 56,376 56,368 136,312 147.4286,304 272,304 280,304" /><polygon points="456,304 456,376 384,376 280,376 280,304" /><polygon points="272,176 258,190 264,160 272,120" /><polygon points="208,240 264,160 258,190" /><polygon points="208,240 258,190 272,176 272,264 272,304 147.4286,304 144,304" /><polygon points="251.445,11 272,11 272,40 248,160 202,225.7143 202,189 202,11" /><polygon points="288,40 456,40 456,264 272,264 272,176 272,120" /><polygon points="456,264 456,304 280,304 272,304 272,264" /><polygon points="288,40 288,11 306,11 370,11 456,11 456,40" /><polygon points="251.445,11 202,11 202,-5.4848" /><polygon points="426,-24 202,-24 202,-35 202,-144 426,-144" /><polygon points="448,-144 448,-24 426,-24 426,-144" /><polygon points="-832,-147 -608,-147 -608,-27 -832,-27" /><polygon points="-608,-147 -585,-147 -585,-35 -585,-27 -608,-27" /><polygon points="-633.9267,-182 -585,-182 -585,-165.689" /><polygon points="-840,-512 -840,-736 -672,-736 -672,-512" /><polygon points="-840,-288 -840,-512 -672,-512 -672,-288" /><polygon points="-672,-216 -672,-182 -689,-182 -753,-182 -840,-182 -840,-288 -672,-288" /><polygon points="-672,-736 -656,-736 -656,-512 -672,-512" /><polygon points="-656,-512 -656,-500.8 -656,-296 -657.6,-288 -672,-288 -672,-512" /><polygon points="-657.6,-288 -672,-216 -672,-288" /><polygon points="-613.3333,-509.3333 -596.6667,-512.6667 -622,-386 -625.6,-368 -648,-336" /><polygon points="-648,-336 -656,-296 -656,-500.8 -613.3333,-509.3333" /><polygon points="-622,-386 -592,-416 -625.6,-368" /><polygon points="-632,-336 -585,-403.1429 -585,-259 -585,-182 -633.9267,-182 -656,-182 -656,-216" /><polygon points="-596.6667,-512.6667 -585,-515 -585,-483 -585,-423 -592,-416 -622,-386" /><polygon points="-656,-512 -656,-736 -585,-736 -585,-568 -585,-515 -596.6667,-512.6667 -613.3333,-509.3333 -656,-500.8" /><polygon points="-585,-483 -529.1,-483 -525,-483 -585,-423" /><polygon points="-440,-528 -320,-552 -287,-552 -287,-530 -287,-483 -361,-483 -504.2857,-483" /><polygon points="-440,-544 -520,-488 -520,-496 -493.9535,-533.2093" /><polygon points="-529.1,-483 -520,-496 -520,-488 -525,-483" /><polygon points="-585,-515 -493.9535,-533.2093 -520,-496 -529.1,-483 -585,-483" /><polygon points="-361,-559.8 -440,-544 -493.9535,-533.2093 -585,-515 -585,-568 -361,-568" /><polygon points="-320,-568 -361,-559.8 -361,-568" /><polygon points="-361,-568 -585,-568 -585,-736 -361,-736" /><polygon points="-287,-736 -287,-651 -287,-587 -287,-568 -320,-568 -361,-568 -361,-736" /><polygon points="-271.3333,-483 -287,-483 -287,-530" /><polygon points="-252,-707 -252,-724 -132,-724 -132,-707 -132,-500 -252,-500" /><polygon points="-132,-500 -132,-483 -137,-483 -252,-483 -252,-500" /><polygon points="-585,-403.1429 -576,-416 -520,-472 -504.2857,-483 -361,-483 -361,-259 -585,-259" /><polygon points="-361,-259 -361,-35 -585,-35 -585,-147 -585,-165.689 -585,-182 -585,-259" /><polygon points="-361,-35 -361,189 -585,189 -585,10 -585,-5.6418 -585,-27 -585,-35" /><polygon points="-361,189 -361,304 -508.5714,304 -520,296 -576,240 -585,227.1429 -585,189" /><polygon points="-361,-483 -287,-483 -271.3333,-483 -252,-483 -137,-483 -137,-259 -361,-259" /><polygon points="-137,-259 -137,-35 -361,-35 -361,-259" /><polygon points="-137,-35 -137,189 -361,189 -361,-35" /><polygon points="-137,189 -137,304 -252,304 -272,304 -288,304 -361,304 -361,189" /><polygon points="-137,-483 -132,-483 -111.4848,-483 -95,-483 87,-483 87,-259 -137,-259" /><polygon points="87,-259 87,-35 -137,-35 -137,-259" /><polygon points="87,-35 87,189 -137,189 -137,-35" /><polygon points="87,189 87,304 -96,304 -112,304 -132,304 -137,304 -137,189" /><polygon points="87,-483 120.2857,-483 136,-472 192,-416 202,-401.7143 202,-259 87,-259" /><polygon points="202,-259 202,-181 202,-165.3333 202,-144 202,-35 87,-35 87,-259" /><polygon points="202,-35 202,-24 202,-5.4848 202,11 202,189 87,189 87,-35" /><polygon points="202,189 202,225.7143 192,240 136,296 124.5714,304 87,304 87,189" /><polygon points="202,-165.3333 202,-181 249,-181" /><polygon points="234.6,-483 253.2093,-389.9535 216,-416 202,-425.8 202,-483" /><polygon points="264,-336 208,-416 216,-416 253.2093,-389.9535" /><polygon points="202,-425.8 216,-416 208,-416 202,-422" /><polygon points="202,-259 202,-401.7143 248,-336 272,-216 272,-182 272,-181 249,-181 202,-181" /><polygon points="279.4,-259 264,-336 253.2093,-389.9535 234.6,-483 288,-483 288,-259" /><polygon points="288,-216 279.4,-259 288,-259" /><polygon points="288,-259 288,-483 426,-483 456,-483 456,-259" /><polygon points="456,-181 370,-181 306,-181 288,-181 288,-182 288,-216 288,-259 456,-259" /><polygon points="-111.4848,-483 -95,-532.445 -95,-483" /><polygon points="56,-544 56,-552 129,-552 202,-552 202,-498.8 106,-518 88,-521.6" /><polygon points="106,-518 136,-488 88,-521.6" /><polygon points="288,-483 234.6,-483 202,-483 202,-498.8 202,-552 353,-552 426,-552 426,-483" /><polygon points="426,-552 456,-552 456,-483 426,-483" /><polygon points="-95,-532.445 -95,-552 -64,-552 56,-528 120.2857,-483 87,-483 -95,-483" /><polygon points="136,-488 106,-518 202,-498.8 202,-483 202,-425.8 202,-422" /><polygon points="56,-552 56,-544 16,-552" /><polygon points="-64,-568 -95,-574.2 -95,-587 -95,-651 -95,-715 -95,-736 129,-736 129,-552 56,-552 16,-552" /><polygon points="129,-736 353,-736 353,-552 202,-552 129,-552" /><polygon points="353,-736 456,-736 456,-552 426,-552 353,-552" /><polygon points="-95,-574.2 -64,-568 -95,-568" /><polygon points="-633.9267,-182 -633.9267,-182 -656,-182 -656,-182" /><polygon points="-287,-736 -287,-736 -287,-651 -287,-651 -287,-651" /><polygon points="-287,-587 -287,-587 -287,-568 -287,-568" /><polygon points="-95,-715 -95,-651 -95,-651 -95,-715" /><polygon points="-95,-532.445 -95,-532.445 -95,-552 -95,-552" /><polygon points="-95,-736 -95,-715 -95,-715 -95,-715 -95,-736" /><polygon points="-95,-568 -64,-568 -64,-568 -95,-568" /><polygon points="279.4,-259 288,-216 288,-216 264,-336 264,-336" /><polygon points="272,-182 272,-216 272,-216 272,-182" /><polygon points="120.2857,-483 56,-528 56,-528 136,-472 136,-472" /><polygon points="264,-336 264,-336 208,-416 208,-416" /><polygon points="-252,-707 -252,-500 -252,-483 -252,-483 -252,-500 -252,-707" /><polygon points="-132,-724 -132,-724 -132,-707 -132,-707" /><polygon points="-672,-182 -672,-216 -672,-216 -672,-182" /><polygon points="-361,-559.8 -320,-568 -320,-568 -440,-544 -440,-544" /><polygon points="-287,-552 -320,-552 -320,-552 -287,-552" /><polygon points="-657.6,-288 -656,-296 -648,-336 -648,-336 -672,-216 -672,-216" /><polygon points="-625.6,-368 -592,-416 -592,-416 -648,-336 -648,-336" /><polygon points="-585,-423 -525,-483 -520,-488 -520,-488 -585,-423 -592,-416 -592,-416" /><polygon points="-440,-544 -440,-544 -520,-488 -520,-488" /><polygon points="-96,408 -96,408 -96,392 -96,392" /><polygon points="251.445,11 251.445,11 272,11 272,11" /><polygon points="456,-181 456,-181 370,-181 370,-181" /><polygon points="306,-181 306,-181 288,-181 288,-181" /><polygon points="288,-182 288,-181 288,-181 288,-182" /><polygon points="272,-181 272,-182 272,-182 272,-181" /><polygon points="426,-144 202,-144 202,-144 426,-144" /><polygon points="448,-24 448,-144 448,-144 448,-24" /><polygon points="448,-24 448,-24 426,-24 426,-24" /><polygon points="288,11 288,40 288,40 288,11" /><polygon points="-96,376 -64,376 -64,376 -96,376" /><polygon points="56,368 56,368 136,312 136,312" /><polygon points="202,225.7143 248,160 248,160 192,240 192,240" /><polygon points="124.5714,304 136,296 136,296 124.5714,304 56,352 56,352" /><polygon points="-288,352 -288,352 -288,376 -288,376" /><polygon points="-288,472 -288,472 -288,560 -288,560" /><polygon points="-252,544 -132,544 -132,544 -252,544" /><polygon points="-132,304 -132,304 -132,544 -132,544" /><polygon points="-689,10 -689,10 -672,10 -672,10" /><polygon points="-840,10 -840,10 -753,10 -753,10 -753,10" /><polygon points="-608,-147 -832,-147 -832,-147 -608,-147" /><polygon points="-585,-27 -585,-27 -608,-27 -608,-27" /><polygon points="-288,392 -320,392 -320,392 -288,392" /><polygon points="-656,10 -656,40 -656,40 -656,10" /><polygon points="-361,383.8 -400,376 -440,368 -440,368 -320,392 -320,392" /><polygon points="-520,312 -520,312 -440,368 -440,368" /><polygon points="-585,227.1429 -576,240 -576,240 -585,227.1429 -632,160 -632,160" /><polygon points="-132,352 -132,352 -111.6333,352 -111.6333,352" /><polygon points="-280,319.4743 -280,264.4693 -280,264.4693 -280,319.4743" /><polygon points="-104,262.4751 -104,321.4685 -104,321.4685 -104,262.4751" /><polygon points="-252,352 -252,232 -271.8822,232 -280,264.4693 -280,319.4743 -271.8681,352" /><polygon points="-252,232 -252,152 -256,152 -272,168 -272,232" /><polygon points="-132,148 -132,232 -112,232 -112,168" /><polygon points="-256,152 -132,152 -132,148 -144,136 -240,136" /><polygon points="-132,232 -132,352 -111.6333,352 -104,321.4685 -104,262.4751 -111.6193,232" /><polygon points="-271.8681,352 -280,319.4743 -280,319.4743 -273.8023,344.2636 -271.8681,352" /><polygon points="-104,321.4685 -111.6333,352 -111.6333,352 -109.6988,344.2622 -104,321.4685" /><polygon points="-111.6193,232 -104,262.4751 -104,262.4751 -105.3162,257.2108 -111.6193,232" /><polygon points="-272,232 -272,168 -272,168 -272,232" /><polygon points="-112,232 -111.6193,232 -111.6193,232 -112,232" /><polygon points="-271.8822,232 -272,232 -272,232 -271.8822,232" /><polygon points="-132,232 -132,152 -132,152 -132,232" /><polygon points="-252,352 -252,352 -252,232 -252,232" /><polygon points="-272,232.4713 -271.8822,232 -271.8822,232 -272,232.4713" /><polygon points="-280,264.4693 -272,232.4713 -272,232.4713 -275.8824,248 -280,264.4693" /><polygon points="42,-133 42,-133 42,-37 42,-37" /><polygon points="258,-144 258,-144 258,-165.1211 258,-165.1211" /><polygon points="170,3 170,3 225.4894,3 225.4894,3" /><polygon points="168.4902,-173 226.4864,-173 226.4864,-173 168.4902,-173" /><polygon points="138,-24 64,-24 64,-15 74,-5 138,-5" /><polygon points="138,-165 74,-165 53,-144 138,-144" /><polygon points="168.4902,-173 138,-165.377 138,-144 258,-144 258,-165.1211 226.4864,-173" /><polygon points="258,-24 138,-24 138,-5 170,3 225.4894,3 258,-5.1282" /><polygon points="64,-15 64,-144 53,-144 42,-133 42,-37" /><polygon points="226.4864,-173 258,-165.1211 258,-165.1211 248.8741,-167.4027 226.4864,-173" /><polygon points="258,-5.1282 225.4894,3 225.4894,3 249.622,-3.0335 258,-5.1282" /><polygon points="138,-165.377 168.4902,-173 168.4902,-173 162.3543,-171.4659 138,-165.377" /><polygon points="138,-165 138,-165.377 138,-165.377 138,-165" /><polygon points="64,-144 64,-144 258,-144 258,-144" /><polygon points="138,-5 74,-5 74,-5 138,-5" /><polygon points="-240,-323 -240,-323 -143,-323 -143,-323" /><polygon points="-252,-539 -252,-539 -271.3708,-539 -271.3708,-539" /><polygon points="-279,-447.5593 -279,-508.4849 -279,-508.4849 -279,-447.5593" /><polygon points="-103,-506.4794 -103,-451.9713 -103,-451.9713 -103,-506.4794" /><polygon points="-271,-419 -271,-354 -261,-344 -252,-344 -252,-419" /><polygon points="-122,-344 -261,-344 -240,-323 -143,-323" /><polygon points="-132,-539 -132,-419 -111.2439,-419 -103,-451.9713 -103,-506.4794 -111.1307,-539" /><polygon points="-279,-447.5593 -271.8615,-419 -252,-419 -252,-539 -271.3708,-539 -279,-508.4849" /><polygon points="-132,-419 -132,-344 -122,-344 -111,-355 -111,-419" /><polygon points="-271,-354 -271,-354 -264.1537,-347.1537 -247.4915,-330.4915 -240,-323 -240,-323" /><polygon points="-111.1307,-539 -103,-506.4794 -103,-506.4794 -109.1324,-531.0074 -111.1307,-539" /><polygon points="-279,-508.4849 -271.3708,-539 -271.3708,-539 -273.6187,-530.0088 -279,-508.4849" /><polygon points="-103,-451.9713 -111.2439,-419 -111.2439,-419 -104.9941,-443.996 -103,-451.9713" /><polygon points="-111.2439,-419 -111,-419 -111,-419 -111.2439,-419" /><polygon points="-111,-419 -111,-355 -111,-355 -111,-419" /><polygon points="-271.8615,-419 -279,-447.5593 -279,-447.5593 -278.166,-444.2227 -271.8615,-419" /><polygon points="-252,-344 -252,-344 -252,-539 -252,-539" /><polygon points="-271,-419 -271.8615,-419 -271.8615,-419 -271,-419" /><polygon points="-425,-38 -425,-38 -425,-134 -425,-134" /><polygon points="-641,-27 -641,-27 -641,-5.3838 -641,-5.3838" /><polygon points="-550.6061,2 -611.4666,2 -611.4666,2 -550.6061,2" /><polygon points="-554.9346,-174 -554.9346,-174 -609,-174 -609,-174" /><polygon points="-448,-27 -521,-27 -521,-6 -457,-6 -448,-15" /><polygon points="-448,-157 -448,-15 -425,-38 -425,-134" /><polygon points="-641,-147 -521,-147 -521,-165.5153 -554.9346,-174 -609,-174 -641,-166" /><polygon points="-521,-27 -641,-27 -641,-5.3838 -611.4666,2 -550.6061,2 -521,-5.4001" /><polygon points="-521,-147 -448,-147 -448,-157 -457,-166 -521,-166" /><polygon points="-611.4666,2 -641,-5.3838 -641,-5.3838 -633.3592,-3.4735 -611.4666,2" /><polygon points="-554.9346,-174 -521,-165.5153 -521,-165.5153 -546.4194,-171.8709 -554.9346,-174" /><polygon points="-521,-165.5153 -521,-166 -521,-166 -521,-165.5153" /><polygon points="-521,-166 -457,-166 -457,-166 -521,-166" /><polygon points="-641,-166 -609,-174 -609,-174 -641,-166" /><polygon points="-448,-27 -448,-27 -641,-27 -641,-27" /><polygon points="-521,-6 -521,-5.4001 -521,-5.4001 -521,-6" /><polygon points="-521,-5.4001 -550.6061,2 -550.6061,2 -537,-1.4009 -521,-5.4001" /><polygon points="-672,-182 -689,-182 -689,-182 -672,-182" /><polygon points="-287,-552 -287,-530 -287,-530 -287,-552" /><polygon points="-287,-530 -287,-552 -287,-568 -287,-587 -287,-587 -287,-587 -287,-530" /><polygon points="-287,-587 -287,-587 -287,-651 -287,-651 -287,-587" /><polygon points="-95,-568 -95,-587 -95,-587 -95,-574.2 -95,-568" /><polygon points="288,-216 288,-216 288,-182 288,-182" /><polygon points="56,-544 56,-528 -64,-552 -64,-568" /><polygon points="56,-528 56,-544 136,-488 136,-472" /><polygon points="136,-488 208,-416 192,-416 136,-472" /><polygon points="-95,-568 -64,-568 -64,-552 -95,-552" /><polygon points="272,-216 248,-336 264,-336 288,-216" /><polygon points="208,-416 264,-336 248,-336 192,-416" /><polygon points="272,-182 272,-216 288,-216 288,-182" /><polygon points="136,-488 136,-488 202,-422 208,-416 208,-416" /><polygon points="-64,-568 -64,-568 16,-552 56,-544 56,-544" /><polygon points="-64,-552 -64,-552 -95,-552 -95,-552" /><polygon points="56,-544 56,-544 88,-521.6 136,-488 136,-488" /><polygon points="248,-336 248,-336 202,-401.7143 192,-416 192,-416" /><polygon points="272,-216 272,-216 248,-336 248,-336" /><polygon points="192,-416 192,-416 136,-472 136,-472" /><polygon points="56,-528 56,-528 -64,-552 -64,-552" /><polygon points="-95,-532.445 -95,-532.445 -111.4848,-483 -111.4848,-483 -95,-532.445" /><polygon points="-287,-530 -287,-530 -271.3333,-483 -271.3333,-483 -271.3333,-483 -287,-530" /><polygon points="-320,-568 -320,-568 -287,-568 -287,-568" /><polygon points="-672,-182 -672,-216 -656,-216 -656,-182" /><polygon points="-648,-336 -632,-336 -656,-216 -672,-216" /><polygon points="-592,-416 -585,-423 -585,-416 -585,-403.1429 -632,-336 -648,-336" /><polygon points="-585,-416 -576,-416 -585,-403.1429" /><polygon points="-320,-552 -440,-528 -440,-544 -320,-568" /><polygon points="-520,-488 -440,-544 -440,-528 -520,-472" /><polygon points="-520,-488 -520,-472 -576,-416 -585,-416 -585,-423" /><polygon points="-320,-552 -320,-568 -287,-568 -287,-552" /><polygon points="-656,-216 -656,-216 -656,-182 -656,-182" /><polygon points="-632,-336 -632,-336 -656,-216 -656,-216" /><polygon points="-440,-528 -440,-528 -504.2857,-483 -520,-472 -520,-472" /><polygon points="-320,-552 -320,-552 -440,-528 -440,-528" /><polygon points="-520,-472 -520,-472 -576,-416 -576,-416" /><polygon points="-585,-403.1429 -576,-416 -576,-416 -585,-403.1429 -632,-336 -632,-336" /><polygon points="-96,376 -96,392 -96,408 -96,408 -96,353 -96,352 -96,352" /><polygon points="-96,376 -96,352 -96,352 -96,376" /><polygon points="288,11 306,11 306,11 288,11" /><polygon points="249,-181 272,-181 288,-181 306,-181 306,-181 249,-181" /><polygon points="272,-181 249,-181 249,-181 272,-181" /><polygon points="306,-181 306,-181 370,-181 370,-181 370,-181 306,-181" /><polygon points="272,-181 272,-182 288,-182 288,-181" /><polygon points="249,-181 249,-181 202,-165.3333 202,-165.3333 202,-165.3333 249,-181" /><polygon points="-64,392 -64,392 -96,392 -96,392" /><polygon points="288,11 288,40 272,40 272,11" /><polygon points="208,240 144,304 136,304 136,296 192,240" /><polygon points="264,160 248,160 272,40 288,40" /><polygon points="248,160 264,160 208,240 192,240" /><polygon points="124.5714,304 136,296 136,304" /><polygon points="136,304 144,304 136,312 56,368 56,352 124.5714,304" /><polygon points="56,352 56,368 -64,392 -64,376" /><polygon points="-96,376 -64,376 -64,392 -96,392" /><polygon points="56,368 56,368 16,376 -64,392 -64,392" /><polygon points="288,40 288,40 272,120 264,160 264,160" /><polygon points="272,40 272,40 272,11 272,11" /><polygon points="264,160 264,160 208,240 208,240" /><polygon points="144,304 208,240 208,240 144,304 136,312 136,312" /><polygon points="248,160 248,160 272,40 272,40" /><polygon points="-64,376 -64,376 56,352 56,352" /><polygon points="136,296 136,296 192,240 192,240" /><polygon points="-288,392 -288,408 -288,408 -288,392" /><polygon points="-288,352 -288,352 -272,304 -272,304 -272,304 -288,352" /><polygon points="-96,352 -96,352 -112,304 -112,304 -96,352" /><polygon points="-689,10 -689,10 -753,10 -753,10 -689,10" /><polygon points="-656,10 -631.9193,10 -631.9193,10 -656,10" /><polygon points="-631.9193,10 -656,10 -672,10 -689,10 -689,10 -689,10 -631.9193,10" /><polygon points="-631.9193,10 -631.9193,10 -585,-5.6418 -585,-5.6418 -585,-5.6418 -631.9193,10" /><polygon points="-672,40 -672,40 -672,10 -672,10" /><polygon points="-585,240 -585,247 -592,240 -648,160 -632,160 -585,227.1429" /><polygon points="-672,40 -656,40 -632,160 -648,160" /><polygon points="-656,10 -656,40 -672,40 -672,10" /><polygon points="-440,368 -440,352 -320,376 -320,392" /><polygon points="-520,312 -528,304 -520,304 -508.5714,304 -440,352 -440,368" /><polygon points="-320,392 -320,376 -288,376 -288,392" /><polygon points="-520,304 -520,296 -508.5714,304" /><polygon points="-576,240 -585,240 -585,227.1429" /><polygon points="-585,240 -576,240 -520,296 -520,304 -528,304 -585,247" /><polygon points="-648,160 -648,160 -656,120 -672,40 -672,40" /><polygon points="-320,376 -320,376 -288,376 -288,376" /><polygon points="-585,247 -528,304 -520,312 -520,312 -528,304 -585,247 -592,240 -592,240" /><polygon points="-440,352 -440,352 -320,376 -320,376" /><polygon points="-656,40 -656,40 -632,160 -632,160" /><polygon points="-576,240 -576,240 -520,296 -520,296" /><polygon points="-508.5714,304 -520,296 -520,296 -508.5714,304 -440,352 -440,352" /><polygon points="-592,240 -592,240 -648,160 -648,160" /><polygon points="-111.6193,232 -111.6193,232 -126.1227,232" /><polygon points="-521,-5.4001 -521,-5.4001 -521,-6 -521,-6" /><polygon points="-271.8615,-419 -271.8615,-419 -271,-419 -271,-419" /><polygon points="138,-165.377 138,-165.377 138,-152.8471" /><polygon points="-112,230.4771 -112,168 -112,168 -112,230.4771" /><polygon points="-112,168 -112,230.4771 -130.9923,154.5128 -128.4798,152 -128,152" /><polygon points="-112,230.4771 -112,232 -126.1227,232 -152.8238,199.9607 -152.8238,176.3469 -130.9923,154.5128" /><polygon points="-112,232 -112,230.4771 -112,230.4771 -112,232" /><polygon points="-457,-166 -457,-166 -425,-134 -425,-134 -440.8726,-149.8726" /><polygon points="-521,-166 -457,-166 -440.8726,-149.8726 -444.3864,-146.3595 -521,-165.5153" /><polygon points="-111,-419 -111,-355 -127.0829,-338.9171 -130.4302,-342.2643 -111.2439,-419" /><polygon points="-521,-6 -457,-6 -457,-6 -521,-6" /><polygon points="-457,-6 -521,-6 -521,-19.795 -488.9492,-46.5057 -465.4196,-46.5057 -448,-29.0915 -448,-15" /><polygon points="136.4922,-165 74,-165 74,-165 136.4922,-165" /><polygon points="74,-165 136.4922,-165 64,-146.8758 64,-155" /><polygon points="136.4922,-165 138,-165 138,-152.8471 103.9913,-124.5046 82.1609,-124.5046 64,-142.6655 64,-146.8758" /><polygon points="138,-165 136.4922,-165 136.4922,-165 138,-165" /><polygon points="-425,-38 -425,-38 -457,-6 -457,-6 -440.9532,-22.0468" /><polygon points="-144,136 -144,136 -112,168 -112,168 -128.2399,151.7601" /><polygon points="-272,232 -272,168 -256.0103,152.0103 -231.6738,176.3469 -231.6738,199.9607 -258.3781,232" /><polygon points="-111.2439,-419 -118.1784,-419 -111.2439,-419" /><polygon points="-271.8822,232 -258.3781,232 -271.8822,232" /><polygon points="-521,-165.5153 -521,-158.6652 -521,-165.5153" /><polygon points="-271,-419 -271,-415.5532 -271,-415.5532 -271,-419" /><polygon points="-271,-415.5532 -271,-419 -258.3407,-419 -230.8228,-385.9806 -230.8228,-363.3447 -250.1617,-344 -253.1151,-344" /><polygon points="-271,-415.5532 -271,-354 -271,-354 -271,-415.5532" /><polygon points="-271,-354 -271,-415.5532 -253.1151,-344 -261,-344" /><polygon points="138,-5 110.7208,-11.8198 138,-11.8198" /><polygon points="138,-5 74,-5 58.0042,-20.9958 61.2062,-24.1985" /><polygon points="488,-152 488,-152 488,-24 488,-24" /><polygon points="56,-24 56,-24 56,-152 56,-152" /><polygon points="488,-24 488,-24 280,-24 280,-24" /><polygon points="280,-152 488,-152 488,-24 280,-24" /><polygon points="56,-24 56,-152 280,-152 280,-24" /><polygon points="56,-152 56,-152 280,-152 280,-152" /><polygon points="-256,-768 -256,-768 -128,-768 -128,-768" /><polygon points="-128,-344 -128,-344 -256,-344 -256,-344" /><polygon points="-256,-344 -256,-344 -256,-568 -256,-568" /><polygon points="-128,-544 -128,-344 -256,-344 -256,-544" /><polygon points="-256,-768 -128,-768 -128,-544 -256,-544" /><polygon points="-128,-768 -128,-768 -128,-568 -128,-568" /><polygon points="-440,-152 -440,-152 -440,-24 -440,-24" /><polygon points="-864,-24 -864,-24 -864,-152 -864,-152" /><polygon points="-440,-24 -440,-24 -640,-24 -640,-24" /><polygon points="-640,-152 -440,-152 -440,-24 -640,-24" /><polygon points="-864,-24 -864,-152 -640,-152 -640,-24" /><polygon points="-864,-152 -864,-152 -640,-152 -640,-152" /><polygon points="-256,152 -256,152 -128,152 -128,152" /><polygon points="-128,584 -128,584 -256,584 -256,584" /><polygon points="-256,584 -256,584 -256,360 -256,360" /><polygon points="-128,376 -128,584 -256,584 -256,376" /><polygon points="-256,152 -128,152 -128,376 -256,376" /><polygon points="-128,152 -128,152 -128,360 -128,360" /><polygon points="-792,-24 -792,-24 -920,-24 -920,-24" /><polygon points="-792,-152 -792,-152 -792,-24 -792,-24" /><polygon points="-920,-24 -920,-24 -920,-152 -920,-152" /><polygon points="-920,-152 -920,-152 -792,-152 -792,-152" /><polygon points="-920,-24 -920,-152 -792,-152 -792,-24" /><polygon points="-128,-688 -128,-688 -256,-688 -256,-688" /><polygon points="-256,-688 -256,-816 -128,-816 -128,-688" /><polygon points="-256,-816 -256,-816 -128,-816 -128,-816" /><polygon points="-128,-816 -128,-816 -128,-688 -128,-688" /><polygon points="-256,-688 -256,-688 -256,-816 -256,-816" /><polygon points="528,-24 528,-24 400,-24 400,-24" /><polygon points="528,-152 528,-152 528,-24 528,-24" /><polygon points="400,-24 400,-24 400,-152 400,-152" /><polygon points="400,-152 400,-152 528,-152 528,-152" /><polygon points="400,-24 400,-152 528,-152 528,-24" /><polygon points="-128,632 -128,632 -256,632 -256,632" /><polygon points="-256,632 -256,504 -128,504 -128,632" /><polygon points="-256,504 -256,504 -128,504 -128,504" /><polygon points="-128,504 -128,504 -128,632 -128,632" /><polygon points="-256,632 -256,632 -256,504 -256,504" /><polygon points="-144,136 -240,136 -240,136 -144,136" /><polygon points="-132,-483 -252,-483 -271.3333,-483 -271.3333,-483 -241.173,-483 -140.5083,-483 -132,-483" /><polygon points="-271.3333,-483 -252,-483 -252,-483 -271.3333,-483" /><polygon points="-132,-483 -132,-483 -111.4848,-483 -111.4848,-483 -132,-483" /><polygon points="-132,-707 -132,-724 -252,-724 -252,-707 -252,-500 -132,-500" /><polygon points="-252,-500 -252,-483 -132,-483 -132,-500" /><polygon points="-132,-724 -132,-724 -252,-724 -252,-724" /><polygon points="-252,-724 -252,-724 -252,-707 -252,-707" /><polygon points="-132,-707 -132,-500 -132,-483 -132,-483 -132,-500 -132,-707" /><polygon points="202,-24 202,-5.4848 202,-5.4848 202,-24" /><polygon points="202,-24 202,-144 202,-165.3333 202,-165.3333 202,-135.124 202,-34.4274 202,-5.4848 202,-5.4848" /><polygon points="202,-165.3333 202,-144 202,-144 202,-165.3333" /><polygon points="448,-144 448,-144 426,-144 426,-144" /><polygon points="202,-5.4848 202,-5.4848 251.445,11 251.445,11 251.445,11 202,-5.4848" /><polygon points="426,-144 202,-144 202,-24 426,-24" /><polygon points="448,-24 448,-144 426,-144 426,-24" /><polygon points="426,-24 202,-24 202,-24 426,-24" /><polygon points="-252,304 -272,304 -272,304 -252,304" /><polygon points="-112,304 -112.3333,304 -132,304 -132,304 -112,304" /><polygon points="-252,304 -132,304 -112.3333,304 -112.3333,304 -142.8244,304 -242.2453,304 -272,304 -272,304" /><polygon points="-132,304 -252,304 -252,544 -132,544" /><polygon points="-112.3333,304 -112,304 -96,352 -96,353" /><polygon points="-112.3333,304 -96,353 -96,353 -112.3333,304" /><polygon points="-252,304 -252,304 -252,544 -252,544" /><polygon points="-585,-5.6418 -585,-27 -585,-27 -585,-5.6418" /><polygon points="-585,-147 -585,-165.689 -585,-165.689 -585,-147" /><polygon points="-585,-165.689 -585,-165.689 -633.9267,-182 -633.9267,-182 -633.9267,-182 -585,-165.689" /><polygon points="-832,-147 -832,-147 -832,-27 -832,-27" /><polygon points="-585,-147 -585,-147 -608,-147 -608,-147" /><polygon points="-608,-147 -832,-147 -832,-27 -608,-27" /><polygon points="-585,-147 -608,-147 -608,-27 -585,-27" /><polygon points="-608,-27 -832,-27 -832,-27 -608,-27" /><polygon points="-252,352 -252,352 -271.8681,352 -271.8681,352" /><polygon points="-247.012,143.012 -256.0103,152.0103 -265.0087,161.0087" /><polygon points="-265.0087,161.0087 -272,168 -272,168 -240,136 -240,136 -246.53,142.53" /><polygon points="-136.988,143.012 -137.47,142.53 -144,136 -144,136" /><polygon points="-198.552,143.012 -184.9099,143.012 -168.2833,166.7773 -202.7653,149.0347" /><polygon points="-157.32,143.012 -139.7537,143.012 -140.0991,143.5056 -167.545,157.6271" /><polygon points="-184.9099,143.012 -157.32,143.012 -171.115,162.7299" /><polygon points="-139.7537,143.012 -136.988,143.012 -128.2399,151.7601 -152.8238,176.3469 -163.0767,176.3469" /><polygon points="-243.2451,143.012 -216.4002,143.012 -229.8229,162.1987" /><polygon points="-198.552,143.012 -198.6353,143.131 -226.5238,157.4828 -216.4002,143.012" /><polygon points="-247.012,143.012 -246.53,142.53 -137.47,142.53 -136.988,143.012" /><polygon points="-137.47,142.53 -246.53,142.53 -240,136 -144,136" /><polygon points="-132,152 -132,152 -252,152 -252,152" /><polygon points="-252,232 -252,152 -252,152 -252,232" /><polygon points="-132,232 -132,152 -252,152 -252,232" /><polygon points="-132,352 -132,352 -132,232 -132,232" /><polygon points="-252,352 -132,352 -132,232 -252,232" /><polygon points="258,-24 258,-24 258,-5.1282 258,-5.1282" /><polygon points="48.8299,-30.1701 58.0042,-20.9958 67.1802,-11.8198" /><polygon points="67.1802,-11.8198 74,-5 74,-5 42,-37 42,-37 48.8414,-30.1586" /><polygon points="48.8414,-139.8414 42,-133 42,-133 74,-165 74,-165 66.8356,-157.8356" /><polygon points="48.8299,-119.7986 48.8299,-137.2248 48.9798,-137.12 62.9886,-109.892" /><polygon points="48.8299,-78.1402 48.8299,-92.5812 71.9752,-108.7728 54.257,-74.3434" /><polygon points="48.8299,-137.2248 48.8299,-139.8299 57.8327,-148.8327 82.1609,-124.5046 82.1609,-113.9028" /><polygon points="48.8299,-34.251 48.8299,-60.7154 67.7447,-47.4832" /><polygon points="48.8299,-78.1402 49.2112,-77.8735 63.2213,-50.6476 48.8299,-60.7154" /><polygon points="48.8299,-92.5812 48.8299,-119.7986 68.2814,-106.1888" /><polygon points="48.8414,-139.8414 48.8414,-30.1586 42,-37 42,-133" /><polygon points="138,-4.9946 170,3 170,3 138,-5" /><polygon points="64,-144 64,-144 64,-24 64,-24" /><polygon points="64,-144 64,-24 258,-24 258,-144" /><polygon points="110.7208,-11.8198 64,-23.5 64,-26.9928 82.1609,-45.1571 103.9913,-45.1571 138,-16.8092 138,-11.8198" /><polygon points="64,-24 64,-24 258,-24 258,-24" /><polygon points="138,-11.8198 138,-4.9946 138,-5" /><polygon points="-132,-539 -132,-539 -111.1307,-539 -111.1307,-539" /><polygon points="-135.9884,-330.0116 -127.0829,-338.9171 -118.1784,-347.8216" /><polygon points="-118.1784,-347.8216 -111,-355 -111,-355 -143,-323 -143,-323 -135.5085,-330.4915" /><polygon points="-139.9303,-330.0114 -166.7641,-330.0098 -153.3477,-349.1904" /><polygon points="-198.3893,-330.0078 -226.6165,-330.0061 -212.5032,-350.1782" /><polygon points="-226.6165,-330.0061 -243.6908,-330.0051 -243.6402,-330.0774 -216.9631,-343.8037" /><polygon points="-198.3893,-330.0078 -215.2417,-354.0919 -168.4335,-330.0097" /><polygon points="-135.9884,-330.0116 -139.9303,-330.0114 -156.0664,-353.0766 -127.581,-338.419" /><polygon points="-166.7641,-330.0098 -168.4335,-330.0097 -176.6863,-334.2556 -156.5421,-344.6236" /><polygon points="-243.6908,-330.0051 -247.0049,-330.0049 -255.58,-338.58 -230.8228,-363.3447 -220.3662,-363.3454" /><polygon points="-132,-344 -252,-344 -252,-344 -132,-344" /><polygon points="-252,-344 -132,-344 -132,-539 -252,-539" /><polygon points="-118.1784,-419 -123.9926,-419 -111.2439,-419 -111.2439,-419" /><polygon points="-132,-344 -132,-344 -132,-539 -132,-539" /><polygon points="-118.1784,-419 -111.2439,-419 -118.1784,-391.2652" /><polygon points="-247.4915,-330.4915 -247.0049,-330.0049 -135.9884,-330.0116 -135.5085,-330.4915" /><polygon points="-247.4915,-330.4915 -135.5085,-330.4915 -143,-323 -240,-323" /><polygon points="-641,-147 -641,-147 -641,-166 -641,-166" /><polygon points="-432.0783,-50.3829 -432.0783,-33.8149 -445.3988,-59.7027" /><polygon points="-432.0783,-33.4614 -432.0783,-30.9217 -440.9532,-22.0468 -465.4196,-46.5057 -465.4196,-56.7865" /><polygon points="-432.0783,-136.8199 -432.0783,-110.3581 -450.9942,-123.5892" /><polygon points="-432.0783,-92.6325 -446.3276,-120.3251 -432.0783,-110.3581" /><polygon points="-432.0783,-78.9247 -432.0783,-50.3829 -452.4748,-64.6534" /><polygon points="-432.0783,-33.8149 -432.0783,-33.4614 -448.6268,-45.0385 -443.24,-55.507" /><polygon points="-432.0783,-30.9217 -432.0783,-141.0783 -425,-134 -425,-38" /><polygon points="-448,-147 -448,-27 -448,-27 -448,-147" /><polygon points="-609,-174 -609.4637,-174 -641,-166.1154 -641,-166" /><polygon points="-448,-27 -448,-147 -641,-147 -641,-27" /><polygon points="-521,-158.6652 -521,-152.0442 -521,-165.5153 -521,-165.5153" /><polygon points="-448,-147 -448,-147 -641,-147 -641,-147" /><polygon points="-521,-158.6652 -521,-165.5153 -493.6031,-158.6652" /><polygon points="-243.6402,-330.0774 -232.0364,-346.664 -221.7203,-341.356" /><polygon points="48.9798,-137.12 65.877,-125.2968 60.4695,-114.7883" /><polygon points="49.2112,-77.8735 65.7761,-66.2847 60.4758,-55.9829" /><polygon points="-140.0991,143.5056 -151.7174,160.1114 -162.0448,154.7971" /><polygon points="-436.2579,-100.7553 -432.0783,-92.6325 -432.0783,-78.9247 -456.1607,-62.0745" /><polygon points="138,-152.8471 138,-165.377 138,-165.377 138,-149.5028" /><polygon points="138,-4.9946 138,-4.9946 138,-11.8198 138,-16.8092" /><polygon points="138,-16.8092 103.9913,-45.1571 103.9913,-124.5046 138,-152.8471" /><polygon points="-271,-419 -258.3407,-419 -271,-419" /><polygon points="-123.9926,-419 -151.5157,-385.9806 -230.8228,-385.9806 -258.3407,-419" /><polygon points="-271.8615,-419 -271.8615,-419 -271,-419 -271,-419" /><polygon points="-202.7653,149.0347 -162.0353,169.9923 -174.3841,176.3469 -221.872,176.3469" /><polygon points="-180.6948,-336.3179 -173.1742,-347.0696 -162.4809,-341.5669 -176.6863,-334.2556" /><polygon points="-438.5233,-96.3525 -449.4256,-103.9785 -443.6707,-115.1616 -436.2579,-100.7553" /><polygon points="-521,-6 -521,-19.795 -521,-6" /><polygon points="-521,-152.0442 -488.9492,-125.3303 -488.9492,-46.5057 -521,-19.795" /><polygon points="-521,-5.4001 -521,-5.4001 -521,-6 -521,-6" /><polygon points="-126.1227,232 -111.6193,232 -111.6193,232 -126.1591,232" /><polygon points="-258.3781,232 -231.6738,199.9607 -152.8238,199.9607 -126.1227,232" /><polygon points="-126.1591,232 -111.6193,232 -107.619,248 -152.8238,248" /><polygon points="-271.8822,232 -271.8822,232 -126.1227,232 -126.1591,232" /><polygon points="-271,-419 -257.4875,-419 -258.3407,-419 -271,-419" /><polygon points="-257.4875,-419 -271,-419 -271,-435 -230.8228,-435" /><polygon points="-257.4875,-419 -111.2439,-419 -111.2439,-419 -258.3407,-419" /><polygon points="-271,-419 -271.8615,-419 -275.8608,-435 -271,-435" /><polygon points="-521,-6 -521,-19.8409 -521,-19.795 -521,-6" /><polygon points="-521,-19.8409 -521,-6 -537,-6 -537,-46.5057" /><polygon points="-521,-19.8409 -521,-165.5153 -521,-165.5153 -521,-19.795" /><polygon points="-521,-6 -521,-5.4001 -537,-1.4009 -537,-6" /><polygon points="-272,232.4713 -271.8822,232 -126.1591,232 -152.8238,248 -272,248" /><polygon points="138,-149.5028 138,-165.377 153,-169.1272 153,-124.5046" /><polygon points="138,-4.9946 138,-4.9946 138,-152.8471 138,-149.5028" /><polygon points="-255.58,-338.58 -247.0049,-330.0049 -264.1537,-347.1537" /><polygon points="-440.7133,-149.7132 -432.0783,-141.0783 -432.0783,-136.8199 -455.9374,-120.1317" /><polygon points="-440.8726,-149.8726 -440.7133,-149.7132 -458.382,-115.3815 -464.153,-126.5966" /><polygon points="-255.8598,151.8598 -247.012,143.012 -243.2451,143.012 -226.4796,166.978" /><polygon points="57.6996,-21.3004 48.8299,-30.1701 48.8299,-34.251 73.0996,-51.2292" /><polygon points="-128.4798,152 -128.2399,151.7601 -128,152" /><polygon points="-256.0103,152.0103 -255.8598,151.8598 -220.9812,169.8073 -232.3587,175.6619" /><polygon points="57.8327,-148.8327 48.8299,-139.8299 66.8356,-157.8356" /><polygon points="58.0042,-20.9958 57.6996,-21.3004 75.7328,-56.3467 81.7184,-44.7146" /><polygon points="64,-23.5 61.2062,-24.1985 64,-26.9928" /><polygon points="-130.4302,-342.2643 -132.1659,-344 -129.9962,-344" /><polygon points="-444.3864,-146.3595 -448,-142.7465 -448,-147.263" /><polygon points="-132.1659,-344 -151.5157,-363.3496 -151.5157,-385.9806 -123.9926,-419 -118.1784,-419 -118.1784,-391.2652 -129.9962,-344" /><polygon points="-250.1617,-344 -255.58,-338.58 -261,-344" /><polygon points="64,-142.6655 57.8327,-148.8327 64,-155" /><polygon points="-448,-29.0915 -440.9532,-22.0468 -448,-15" /><polygon points="-448,-142.7465 -465.4196,-125.3303 -488.9492,-125.3303 -521,-152.0442 -521,-158.6652 -493.6031,-158.6652 -448,-147.263" /><polygon points="-448.6268,-45.0385 -450.8904,-46.6221 -446.0797,-49.9884" /><polygon points="-232.0364,-346.664 -230.2796,-349.1751 -226.5462,-343.8391" /><polygon points="65.7761,-66.2847 67.6354,-64.9839 63.6849,-62.2202" /><polygon points="-210.4576,160.0306 -212.1109,162.3938 -215.6239,157.3722" /><polygon points="-210.4576,160.0306 -220.9666,154.623 -198.6353,143.131" /><polygon points="65.877,-125.2968 67.4423,-124.2015 64.1155,-121.8738" /><polygon points="-173.1742,-347.0696 -171.3539,-349.672 -167.4859,-344.1424" /><polygon points="-151.7174,160.1114 -153.0258,161.9814 -155.8064,158.0073" /><polygon points="-449.4256,-103.9785 -451.6447,-105.5307 -446.9293,-108.8294" /><polygon points="-440.977,-55.5074 -443.24,-55.507 -446.0797,-49.9884 -443.8447,-49.9882" /><polygon points="-441.4118,-115.1615 -443.6707,-115.1616 -446.9293,-108.8294 -444.7025,-108.8287" /><polygon points="58.15,-55.9829 60.4758,-55.9829 63.6849,-62.2202 61.3905,-62.2199" /><polygon points="57.9289,-114.7885 60.4695,-114.7883 64.1155,-121.8738 61.6105,-121.8732" /><polygon points="-220.9667,151.9628 -220.9666,154.623 -215.6239,157.3722 -215.6235,154.7391" /><polygon points="-162.0448,152.1385 -162.0448,154.7971 -155.8064,158.0073 -155.8067,155.3799" /><polygon points="-221.7198,-338.486 -221.7203,-341.356 -226.5462,-343.8391 -226.5462,-340.9937" /><polygon points="-443.1567,-59.7027 -445.3988,-59.7027 -443.24,-55.507 -440.977,-55.5074" /><polygon points="-162.4811,-338.6978 -162.4809,-341.5669 -167.4859,-344.1424 -167.4863,-341.2986" /><polygon points="-443.8447,-49.9882 -446.0797,-49.9884 -450.8904,-46.6221 -448.7022,-46.6219" /><polygon points="-443.8447,-49.9882 -448.7022,-46.6219 -453.7698,-50.1329 -456.9988,-56.3475 -454.0235,-62.0742 -450.3015,-64.6533 -443.1567,-59.7027 -440.977,-55.5074" /><polygon points="-444.0945,-120.3247 -446.3276,-120.3251 -443.6707,-115.1616 -441.4118,-115.1615" /><polygon points="60.9223,-50.6478 63.2213,-50.6476 60.4758,-55.9829 58.15,-55.9829" /><polygon points="-444.7025,-108.8287 -449.4628,-105.5307 -452.0962,-107.3549 -456.2666,-115.3814 -453.7983,-120.1313 -448.8066,-123.589 -444.0945,-120.3247 -441.4118,-115.1615" /><polygon points="-444.7025,-108.8287 -446.9293,-108.8294 -451.6447,-105.5307 -449.4628,-105.5307" /><polygon points="60.4728,-109.8924 62.9886,-109.892 60.4695,-114.7883 57.9289,-114.7885" /><polygon points="61.3905,-62.2199 63.6849,-62.2202 67.6354,-64.9839 65.3799,-64.9838" /><polygon points="-215.6235,154.7391 -215.6239,157.3722 -212.1109,162.3938 -212.1109,159.8094" /><polygon points="-216.9635,-340.9571 -216.9631,-343.8037 -221.7203,-341.356 -221.7198,-338.486" /><polygon points="-226.5462,-340.9937 -226.5462,-343.8391 -230.2796,-349.1751 -230.2797,-346.3823" /><polygon points="-226.5237,154.8505 -226.5238,157.4828 -220.9666,154.623 -220.9667,151.9628" /><polygon points="-454.2514,-107.354 -465.4196,-115.166 -465.4196,-125.3303 -464.153,-126.5966" /><polygon points="-167.5447,154.9961 -167.545,157.6271 -162.0448,154.7971 -162.0448,152.1385" /><polygon points="-167.4863,-341.2986 -167.4859,-344.1424 -171.3539,-349.672 -171.3539,-346.8818" /><polygon points="61.6105,-121.8732 64.1155,-121.8738 67.4423,-124.2015 64.9708,-124.2014" /><polygon points="-155.8067,155.3799 -155.8064,158.0073 -153.0258,161.9814 -153.0258,159.3935" /><polygon points="-156.5429,-341.7839 -156.5421,-344.6236 -162.4809,-341.5669 -162.4811,-338.6978" /><polygon points="-227.4583,-353.208 -220.3662,-363.3454 -207.758,-363.3461" /><polygon points="72.1319,-120.9202 82.1609,-113.9028 82.1609,-101.4284" /><polygon points="-455.9094,-50.1333 -465.4196,-56.7865 -465.4196,-68.615" /><polygon points="-215.225,166.8454 -221.872,176.3469 -231.6738,176.3469 -232.3587,175.6619" /><polygon points="-168.3213,-354.0075 -161.7871,-363.3489 -151.5157,-363.3496 -151.0581,-362.8919" /><polygon points="-156.7153,167.2547 -163.0767,176.3469 -174.3841,176.3469" /><polygon points="73.3429,-60.991 82.1609,-54.8219 82.1609,-45.1571 81.7184,-44.7146" /><polygon points="-448.7022,-46.6219 -450.8904,-46.6221 -455.9094,-50.1333 -453.7698,-50.1329" /><polygon points="-448.8066,-123.589 -450.9942,-123.5892 -446.3276,-120.3251 -444.0945,-120.3247" /><polygon points="65.3799,-64.9838 67.6354,-64.9839 73.3429,-60.991 71.1434,-60.9909" /><polygon points="65.4905,-47.4832 67.7447,-47.4832 63.2213,-50.6476 60.9223,-50.6478" /><polygon points="64.9708,-124.2014 67.4423,-124.2015 72.1319,-120.9202 69.7068,-120.9199" /><polygon points="-449.4628,-105.5307 -451.6447,-105.5307 -454.2514,-107.354 -452.0962,-107.3549" /><polygon points="75.1789,-114.9982 82.1609,-101.4284 82.1609,-54.8219 54.257,-74.3434" /><polygon points="-153.0258,159.3935 -153.0258,161.9814 -156.7153,167.2547 -156.7151,164.7182" /><polygon points="65.8181,-106.1889 68.2814,-106.1888 62.9886,-109.892 60.4728,-109.8924" /><polygon points="-112.3333,304 -96,353 -96,408 -139.3593,408 -142.8244,304" /><polygon points="-229.8229,159.6127 -229.8229,162.1987 -226.5238,157.4828 -226.5237,154.8505" /><polygon points="-450.3015,-64.6533 -452.4748,-64.6534 -445.3988,-59.7027 -443.1567,-59.7027" /><polygon points="-163.0989,-356.6952 -151.0581,-362.8919 -127.0829,-338.9171 -127.581,-338.419" /><polygon points="-220.4918,-356.7931 -207.758,-363.3461 -161.7871,-363.3489 -180.6948,-336.3179" /><polygon points="-212.1109,159.8094 -212.1109,162.3938 -215.225,166.8454 -215.2252,164.3049" /><polygon points="-585,-5.6418 -631.9193,10 -689,10 -689,-31.7848 -585,-35.2416" /><polygon points="-459.1072,-56.3479 -465.4196,-68.615 -465.4196,-115.166 -438.5233,-96.3525" /><polygon points="202,-165.3333 249,-181 306,-181 306,-139.4015 306,-138.5702 202,-135.124" /><polygon points="-271.3333,-483 -287,-530 -287,-587 -244.6385,-587 -241.173,-483" /><polygon points="-171.1149,160.149 -171.115,162.7299 -167.545,157.6271 -167.5447,154.9961" /><polygon points="-230.2797,-346.3823 -230.2796,-349.1751 -227.4583,-353.208 -227.4589,-350.4538" /><polygon points="-153.3479,-346.3961 -153.3477,-349.1904 -156.5421,-344.6236 -156.5429,-341.7839" /><polygon points="-585,-165.689 -585,-165.689 -585,-147 -585,-27 -585,-5.6418 -585,-5.6418 -585,-35.2416 -585,-136.6829" /><polygon points="-171.3539,-346.8818 -171.3539,-349.672 -168.3213,-354.0075 -168.3206,-351.2606" /><polygon points="-212.5034,-347.3941 -212.5032,-350.1782 -216.9631,-343.8037 -216.9635,-340.9571" /><polygon points="-452.0962,-107.3549 -454.2514,-107.354 -458.382,-115.3815 -456.2666,-115.3814" /><polygon points="-453.7698,-50.1329 -455.9094,-50.1333 -459.1072,-56.3479 -456.9988,-56.3475" /><polygon points="-453.7983,-120.1313 -455.9374,-120.1317 -450.9942,-123.5892 -448.8066,-123.589" /><polygon points="69.5487,-108.7732 65.8181,-106.1889 60.4728,-109.8924 57.9289,-114.7885 61.6105,-121.8732 64.9708,-124.2014 69.7068,-120.9199 72.7837,-114.9981" /><polygon points="69.5487,-108.7732 71.9752,-108.7728 68.2814,-106.1888 65.8181,-106.1889" /><polygon points="-454.0235,-62.0742 -456.1607,-62.0745 -452.4748,-64.6534 -450.3015,-64.6533" /><polygon points="69.7068,-120.9199 72.1319,-120.9202 75.1789,-114.9982 72.7837,-114.9981" /><polygon points="70.8977,-51.2291 65.4905,-47.4832 60.9223,-50.6478 58.15,-55.9829 61.3905,-62.2199 65.3799,-64.9838 71.1434,-60.9909 73.5568,-56.3465" /><polygon points="70.8977,-51.2291 73.0996,-51.2292 67.7447,-47.4832 65.4905,-47.4832" /><polygon points="71.1434,-60.9909 73.3429,-60.991 75.7328,-56.3467 73.5568,-56.3465" /><polygon points="-156.0663,-350.3198 -156.0664,-353.0766 -153.3477,-349.1904 -153.3479,-346.3961" /><polygon points="-168.2833,164.236 -168.2833,166.7773 -171.115,162.7299 -171.1149,160.149" /><polygon points="-226.4796,164.4387 -226.4796,166.978 -229.8229,162.1987 -229.8229,159.6127" /><polygon points="-215.2419,-351.3459 -215.2417,-354.0919 -212.5032,-350.1782 -212.5034,-347.3941" /><polygon points="-456.2666,-115.3814 -458.382,-115.3815 -455.9374,-120.1317 -453.7983,-120.1313" /><polygon points="-456.9988,-56.3475 -459.1072,-56.3479 -456.1607,-62.0745 -454.0235,-62.0742" /><polygon points="73.5568,-56.3465 75.7328,-56.3467 73.0996,-51.2292 70.8977,-51.2291" /><polygon points="72.7837,-114.9981 75.1789,-114.9982 71.9752,-108.7728 69.5487,-108.7732" /><polygon points="-231.6738,176.3469 -152.8238,176.3469 -152.8238,199.9607 -231.6738,199.9607" /><polygon points="-275.8824,248 -278.1851,257.21 -280,264.4693 -280,264.4693" /><polygon points="-275.8824,248 -272,232.4713 -272,248" /><polygon points="82.1609,-45.1571 82.1609,-124.5046 103.9913,-124.5046 103.9913,-45.1571" /><polygon points="153,-1.2441 138,-4.9946 138,-149.5028 153,-124.5046" /><polygon points="-151.5157,-363.3496 -230.8228,-363.3447 -230.8228,-385.9806 -151.5157,-385.9806" /><polygon points="-107.2434,-435 -111.2439,-419 -257.4875,-419 -230.8228,-435" /><polygon points="-465.4196,-125.3303 -465.4196,-46.5057 -488.9492,-46.5057 -488.9492,-125.3303" /><polygon points="-550.6061,2 -550.6061,2 -546.3765,0.9428 -537,-1.4009" /><polygon points="-537,-169.5158 -521,-165.5153 -521,-19.8409 -537,-46.5057" /><polygon points="-220.9811,167.2957 -226.4796,164.4387 -229.8229,159.6127 -226.5237,154.8505 -220.9667,151.9628 -215.6235,154.7391 -212.1109,159.8094 -215.2252,164.3049" /><polygon points="-220.9811,167.2957 -215.2252,164.3049 -215.225,166.8454 -220.9812,169.8073" /><polygon points="-220.9811,167.2957 -220.9812,169.8073 -226.4796,166.978 -226.4796,164.4387" /><polygon points="-162.0349,167.4826 -168.2833,164.236 -171.1149,160.149 -167.5447,154.9961 -162.0448,152.1385 -155.8067,155.3799 -153.0258,159.3935 -156.7151,164.7182" /><polygon points="-162.0349,167.4826 -156.7151,164.7182 -156.7153,167.2547 -162.0353,169.9923" /><polygon points="-162.0349,167.4826 -162.0353,169.9923 -168.2833,166.7773 -168.2833,164.236" /><polygon points="-163.0991,-353.974 -156.0663,-350.3198 -153.3479,-346.3961 -156.5429,-341.7839 -162.4811,-338.6978 -167.4863,-341.2986 -171.3539,-346.8818 -168.3206,-351.2606" /><polygon points="-163.0991,-353.974 -168.3206,-351.2606 -168.3213,-354.0075 -163.0989,-356.6952" /><polygon points="-163.0991,-353.974 -163.0989,-356.6952 -156.0664,-353.0766 -156.0663,-350.3198" /><polygon points="-220.4925,-354.0737 -215.2419,-351.3459 -212.5034,-347.3941 -216.9635,-340.9571 -221.7198,-338.486 -226.5462,-340.9937 -230.2797,-346.3823 -227.4589,-350.4538" /><polygon points="-220.4925,-354.0737 -227.4589,-350.4538 -227.4583,-353.208 -220.4918,-356.7931" /><polygon points="-220.4925,-354.0737 -220.4918,-356.7931 -215.2417,-354.0919 -215.2419,-351.3459" /><polygon points="-96,353 -96,353 -96,408 -96,408" /><polygon points="258,-5.1282 258,-165.1211 258,-165.1211 258,-5.1282" /><polygon points="258,-5.1282 249.622,-3.0335 225,-21.5 225,-149.4958 248.8741,-167.4027 258,-165.1211" /><polygon points="169.9743,3 225.4894,3 225.4894,3 169.9743,3" /><polygon points="-111.1307,-539 -271.3708,-539 -271.3708,-539 -111.1307,-539" /><polygon points="-111.1307,-539 -109.1324,-531.0074 -127.5,-506.5156 -256,-506.5156 -273.6187,-530.0088 -271.3708,-539" /><polygon points="-280,314.4829 -280,297 -262.2193,297 -262.2193,314.484" /><polygon points="-554.9346,-174 -609.4637,-174 -609.4637,-174 -554.9346,-174" /><polygon points="-609.4637,-174 -633.8655,-167.8992 -641,-166.1154 -641,-166.1154 -609.4637,-174" /><polygon points="-609,-174 -603.5006,-174 -603.5021,-150 -610,-150 -633.75,-167.8125" /><polygon points="-271.8681,352 -111.6333,352 -111.6333,352 -271.8681,352" /><polygon points="-271.8681,352 -273.8023,344.2636 -256,320.5256 -127.5,320.5256 -109.6988,344.2622 -111.6333,352" /><polygon points="220.4993,-173 226.4864,-173 248.8741,-167.4027 225,-149.4958 220.4979,-149.4958" /><polygon points="203,-173 220.4993,-173 220.4983,-155.5001 203,-155.5001" /><polygon points="203,-173 203,-149.4958 177,-149.4958 162.3543,-171.4659 168.4902,-173" /><polygon points="-104,297 -127.5,297 -127.5,272 -105.3162,257.2108 -104,262.4751" /><polygon points="-104,297 -104,314.4937 -121.2144,314.4926 -121.2144,297" /><polygon points="-104,314.4937 -104,321.4685 -109.6988,344.2622 -127.5,320.5256 -127.5,314.4922" /><polygon points="-641,-166.1154 -641,-5.3838 -641,-5.3838 -641,-166.1154" /><polygon points="-641,-166.1154 -633.8655,-167.8992 -633.75,-167.8125 -641,-166" /><polygon points="-279,-501.517 -279,-508.4849 -273.6187,-530.0088 -256,-506.5156 -256,-501.5156" /><polygon points="-279,-484 -279,-501.517 -262.2193,-501.516 -262.2193,-484" /><polygon points="-279,-484 -256,-484 -256,-459 -278.166,-444.2227 -279,-447.5593" /><polygon points="-586,2 -586,-20.9942 -561,-20.9942 -546.3765,0.9428 -550.6061,2" /><polygon points="-586,2 -603.5114,2 -603.5103,-15.2087 -586,-15.2087" /><polygon points="-603.5114,2 -611.4666,2 -633.3592,-3.4735 -610,-20.9942 -603.5099,-20.9942" /><polygon points="161.9965,1.0053 169.9743,3 169.9743,3 138,-4.9946 138,-4.9946" /><polygon points="-105.3162,257.2108 -120.75,267.5 -262.75,267.5 -278.1851,257.21 -275.8824,248 -107.619,248" /><polygon points="-278.166,-444.2227 -263.5,-454 -120,-454 -104.9941,-443.996 -107.2434,-435 -275.8608,-435" /><polygon points="162.3543,-171.4659 173,-155.4963 173,-15.5 161.9965,1.0053 153,-1.2441 153,-169.1272" /><polygon points="-546.3765,0.9428 -556.5,-14.2437 -556.5,-156.75 -546.4194,-171.8709 -537,-169.5158 -537,-1.4009" /><polygon points="456,11 456,11 370,11 370,11" /><polygon points="-840,-182 -840,-182 -753,-182 -753,-182" /><polygon points="-633.8655,-167.8992 -609.4637,-174 -609,-174 -633.75,-167.8125" /><polygon points="-633.75,-167.8125 -610,-150 -610,-20.9942 -633.3592,-3.4735 -641,-5.3838 -641,-166" /><polygon points="-95,-715 -95,-651 -140.0076,-651 -140.7228,-655.0235 -133.399,-715" /><polygon points="-95,-715 -95,-715 -133.399,-715 -132.8875,-715" /><polygon points="-242.2453,304 -245.7137,408 -288,408 -288,352 -272,304" /><polygon points="-241.173,-483 -244.6385,-587 -244.6064,-587 -137.2908,-587 -137.0428,-587 -140.5083,-483" /><polygon points="202,-34.4274 306,-30.9733 306,-30.142 306,11 251.445,11 202,-5.4848" /><polygon points="-154.4863,-454 -154.4855,-459 -127.5,-459 -120,-454" /><polygon points="-154.4863,-454 -157.5883,-450.3443 -157.5879,-451.689 -154.4855,-459" /><polygon points="-213.724,-454 -216.9211,-450.2324 -216.9214,-451.4643 -213.7243,-459" /><polygon points="-263.5,-454 -256,-459 -231.3614,-459 -231.3619,-454" /><polygon points="-170.0336,267.5 -170.0336,272 -211.1852,272 -211.1848,267.5" /><polygon points="-170.0336,267.5 -167.7362,264.7924 -167.736,266.5845 -170.0336,272" /><polygon points="-228.3408,267.5 -225.3393,263.9627 -225.3394,264.9255 -228.3413,272" /><polygon points="-556.5,-122.2402 -561,-122.2409 -561,-150 -556.5,-156.75" /><polygon points="-556.5,-122.2402 -553.8471,-119.9891 -555.6942,-119.9894 -561,-122.2409" /><polygon points="-556.5,-62.4861 -553.864,-60.2494 -555.7282,-60.2495 -561,-62.4861" /><polygon points="-556.5,-64.8753 -556.5,-62.4861 -561,-62.4861 -561,-64.8754" /><polygon points="-556.5,-14.2437 -561,-20.9942 -561,-45.341 -556.5,-45.3405" /><polygon points="-121.2144,314.4926 -118.7485,314.4928 -118.7485,297 -121.2144,297" /><polygon points="-121.2144,-501.5074 -118.7485,-501.5072 -118.797,-501.5073 -127.5,-501.5078" /><polygon points="-121.2144,-484 -118.7485,-484 -118.7485,-501.5072 -121.2144,-501.5074" /><polygon points="-121.2144,-484 -121.2144,-501.5074 -103,-501.5063 -103,-484" /><polygon points="-262.2193,314.484 -264.6527,314.4839 -264.5982,314.4839 -256,314.4844" /><polygon points="-262.2193,297 -264.6527,297 -264.6527,314.4839 -262.2193,314.484" /><polygon points="-262.2193,-501.516 -264.6527,-501.5161 -264.6527,-484 -262.2193,-484" /><polygon points="-95,-651 -95,-651 -95,-587 -95,-587 -95,-587 -95,-651" /><polygon points="-95,-651 -95,-651 -137.8857,-651 -140.0076,-651" /><polygon points="370,11 370,11 306,11 306,11 306,11 370,11" /><polygon points="370,11 370,11 370,-32.9066 370,-33.9819" /><polygon points="220.4897,-15.3533 220.4896,-12.9476 220.4896,-13 220.4901,-21.5" /><polygon points="203,-15.3533 203,-12.9476 220.4896,-12.9476 220.4897,-15.3533" /><polygon points="203,-15.3533 220.4897,-15.3533 220.4886,3 203,3" /><polygon points="220.4983,-155.5001 220.4984,-157.8518 203,-157.8518 203,-155.5001" /><polygon points="173,-155.4963 177,-149.4958 177,-125.1403 173,-125.14" /><polygon points="173,-107.4509 170.0919,-109.9187 171.1839,-109.9186 177,-107.4505" /><polygon points="173,-48.9799 177,-48.9795 177,-21.5 173,-15.5" /><polygon points="173,-48.9799 169.7134,-51.7683 170.4272,-51.7681 177,-48.9795" /><polygon points="-586,-15.2087 -586,-12.8945 -586,-20.9942" /><polygon points="-603.5017,-155.644 -603.5016,-157.8518 -603.5016,-157.8018 -603.5021,-150" /><polygon points="-586,-155.644 -586,-157.8518 -603.5016,-157.8518 -603.5017,-155.644" /><polygon points="-586,-155.644 -603.5017,-155.644 -603.5006,-174 -586,-174" /><polygon points="-753,-182 -753,-182 -689,-182 -689,-182 -689,-182 -753,-182" /><polygon points="-753,-182 -753,-182 -753,-138.4989 -753,-137.6794" /><polygon points="-96,408 -96,408 -96,408 -96,408 -96,472 -96,472 -96,408" /><polygon points="-96,408 -96,408 -138.4514,408 -139.3593,408" /><polygon points="306,11 306,11 288,11 272,11 251.445,11 251.445,11 306,11" /><polygon points="306,11 306,11 306,-30.142 306,-31.5107" /><polygon points="-288,472 -288,472 -288,408 -288,408 -288,408 -288,472" /><polygon points="-288,472 -288,472 -244.7962,472 -244.2206,472" /><polygon points="370,-181 456,-181 456,-147.3415 371.503,-137.0368 370,-137.3041" /><polygon points="-753,10 -753,10 -753,-32.3166 -753,-33.6991" /><polygon points="-689,-182 -689,-182 -672,-182 -656,-182 -633.9267,-182 -633.9267,-182 -689,-182" /><polygon points="-753,-182 -689,-182 -689,-139.7905 -691.5832,-138.4989 -753,-138.4989" /><polygon points="-689,-182 -689,-182 -689,-140.1463 -689,-139.7905" /><polygon points="-96,472 -96,472 -138.9885,472 -139.2124,472" /><polygon points="-96,408 -96,472 -139.2124,472 -139.2124,409.5218 -138.4514,408" /><polygon points="-288,408 -288,408 -288,392 -288,376 -288,352 -288,352 -288,408" /><polygon points="-288,408 -288,408 -245.7137,408 -245.557,408" /><polygon points="-689,-182 -633.9267,-182 -585,-165.689 -585,-136.6829 -689,-140.1463" /><polygon points="370,-181 370,-181 370,-137.3041 370,-137.9934" /><polygon points="-96,472 -96,472 -96,472 -96,560 -96,560" /><polygon points="-96,472 -96,560 -129.1448,560 -139.5174,474.9742 -138.9885,472" /><polygon points="306,-181 370,-181 370,-137.9934 308.7921,-137.9934 306,-139.3896" /><polygon points="-287,-651 -287,-651 -245.2071,-651 -244.0114,-651" /><polygon points="-95,-587 -95,-587 -95,-568 -95,-552 -95,-532.445 -95,-532.445 -95,-587" /><polygon points="-95,-587 -95,-587 -137.0428,-587 -137.2908,-587" /><polygon points="-95,-651 -95,-587 -137.2908,-587 -137.4474,-587 -137.8857,-587.877 -137.8857,-651" /><polygon points="-95,-587 -95,-532.445 -111.4848,-483 -132,-483 -140.5083,-483 -137.0428,-587" /><polygon points="-264.6527,-484 -264.5982,-484 -256,-484 -262.2193,-484" /><polygon points="203,-157.8518 203,-157.8018 203,-149.4958 203,-155.5001" /><polygon points="-118.7485,297 -118.797,297 -127.5,297 -121.2144,297" /><polygon points="-264.5982,297 -264.6527,297 -262.2193,297 -256,297" /><polygon points="-118.797,297 -125.2414,297 -136.0047,297 -145.9671,297 -152.7006,297" /><polygon points="-256,272 -256,297 -280,297 -280,264.4693 -278.1851,257.21" /><polygon points="-156.3565,265.6591 -156.3565,264.3296 -153.6663,267.5 -153.6664,272" /><polygon points="-151.9425,272 -127.5,272 -127.5,277 -151.5451,277 -152.8044,274.0317" /><polygon points="-153.6664,272 -151.9425,272 -152.8044,274.0317" /><polygon points="-153.6664,272 -153.6663,267.5 -120.75,267.5 -127.5,272" /><polygon points="-151.5451,277 -154.0637,277 -152.8044,274.0317" /><polygon points="-171.7575,272 -170.0336,272 -170.8955,274.0317" /><polygon points="-171.7575,272 -169.6362,277 -213.307,277 -211.1852,272" /><polygon points="-170.8955,274.0317 -170.8955,275.5159 -169.6362,277" /><polygon points="-167.736,266.5845 -167.7362,264.7924 -163.5114,263" /><polygon points="-215.6397,266.4864 -215.6394,264.7434 -213.3002,267.5 -213.3006,272" /><polygon points="-213.3006,272 -211.1852,272 -212.243,274.4927" /><polygon points="-211.1852,272 -213.3006,272 -213.3002,267.5 -211.1848,267.5" /><polygon points="-256,277 -256,272 -231.441,272 -229.3196,277" /><polygon points="-231.441,272 -228.3413,272 -229.8912,275.6528" /><polygon points="-229.8912,275.6528 -229.8912,276.3264 -229.3196,277" /><polygon points="-225.3394,264.9255 -225.3393,263.9627 -223.0703,263" /><polygon points="-256,272 -262.75,267.5 -228.3408,267.5 -228.3413,272" /><polygon points="-127.5,277 -127.5,297 -256,297 -256,277" /><polygon points="-118.797,314.4927 -118.7485,314.4928 -121.2144,314.4926 -127.5,314.4922" /><polygon points="-230.5986,314.4859 -230.3971,314.4859 -230.3971,297 -230.5986,297" /><polygon points="-152.7006,297 -145.9671,297 -145.9671,314.4911 -152.7006,314.4907" /><polygon points="-152.7006,297 -152.7006,314.4907 -230.5986,314.4859 -230.5986,297" /><polygon points="-127.5,314.4922 -127.5,320.5256 -256,320.5256 -256,314.4844" /><polygon points="-256,314.4844 -256,320.5256 -273.8023,344.2636 -280,319.4743 -280,314.4829" /><polygon points="203,-21.5 203,-13 203,-12.9476 203,-15.3533" /><polygon points="203,-157.8018 203,-151.2262 203,-141.0793 203,-130.2213 203,-123.9011" /><polygon points="203,-46.8952 203,-40.4642 203,-29.9086 203,-19.4749 203,-13" /><polygon points="220.4984,-157.8018 220.4984,-157.8518 220.4983,-155.5001 220.4979,-149.4958" /><polygon points="220.4979,-149.4958 225,-149.4958 225,-21.5 220.4901,-21.5" /><polygon points="220.4901,-21.5 225,-21.5 249.622,-3.0335 225.4894,3 220.4886,3" /><polygon points="220.4916,-46.8952 220.4912,-40.4642 203,-40.4642 203,-46.8952" /><polygon points="203,-123.9011 203,-130.2213 220.4967,-130.2213 220.4963,-123.9011" /><polygon points="220.4916,-46.8952 203,-46.8952 203,-123.9011 220.4963,-123.9011" /><polygon points="177,-21.5 203,-21.5 203,3 169.9743,3 161.9965,1.0053" /><polygon points="183,-149.4958 203,-149.4958 203,-21.5 183,-21.5" /><polygon points="171.4672,-60.9919 170.2339,-60.9923 173,-63.3396 177,-63.3393" /><polygon points="177,-125.1403 177,-149.4958 183,-149.4958 183,-122.5948" /><polygon points="173.5464,-122.5039 171.2732,-122.504 173,-123.9692 177,-123.9691" /><polygon points="177,-123.9691 177,-125.1403 178.3802,-124.5547" /><polygon points="177,-125.1403 177,-123.9691 173,-123.9692 173,-125.14" /><polygon points="179.4315,-64.3708 177,-65.4028 177,-104.878 183,-107.4236 183,-65.8848" /><polygon points="177,-104.878 177,-107.4505 180.0315,-106.1641" /><polygon points="177,-63.3393 177,-65.4028 179.4315,-64.3708" /><polygon points="180.0315,-106.1641 181.5157,-106.1641 183,-107.4236" /><polygon points="171.1839,-109.9186 170.0919,-109.9187 169,-112.4925" /><polygon points="177,-63.3393 173,-63.3396 173,-107.4509 177,-107.4505" /><polygon points="183,-62.8563 179.4315,-64.3708 183,-65.8848" /><polygon points="177,-45.6936 183,-48.2397 183,-21.5 177,-21.5" /><polygon points="177,-45.6936 177,-48.9795 180.8722,-47.3367" /><polygon points="180.8722,-47.3367 181.936,-47.3367 183,-48.2397" /><polygon points="170.4272,-51.7681 169.7134,-51.7683 169,-53.4496" /><polygon points="-118.797,-484 -118.7485,-484 -121.2144,-484 -127.5,-484" /><polygon points="-264.5982,-484 -258.2687,-484 -247.1882,-484 -237.5594,-484 -230.7066,-484" /><polygon points="-264.5982,-501.5161 -264.6527,-501.5161 -262.2193,-501.516 -256,-501.5156" /><polygon points="-256,-501.5156 -256,-506.5156 -127.5,-506.5156 -127.5,-501.5078" /><polygon points="-127.5,-501.5078 -127.5,-506.5156 -109.1324,-531.0074 -103,-506.4794 -103,-501.5063" /><polygon points="-230.7066,-484 -237.5594,-484 -237.5594,-501.5145 -230.7066,-501.5141" /><polygon points="-152.7966,-501.5093 -152.9981,-501.5093 -152.9981,-484 -152.7966,-484" /><polygon points="-152.7966,-501.5093 -152.7966,-484 -230.7066,-484 -230.7066,-501.5141" /><polygon points="-127.5,-459 -127.5,-484 -103,-484 -103,-451.9713 -104.9941,-443.996" /><polygon points="-256,-463 -256,-484 -127.5,-484 -127.5,-463" /><polygon points="-169.8114,-455.9504 -169.812,-452.4756 -171.1056,-454 -171.1052,-459" /><polygon points="-151.5171,-459 -153.2141,-463 -127.5,-463 -127.5,-459" /><polygon points="-151.5171,-459 -154.4855,-459 -153.0011,-462.498" /><polygon points="-153.0011,-462.498 -153.0011,-462.749 -153.2141,-463" /><polygon points="-157.5879,-451.689 -157.5883,-450.3443 -160.7568,-449" /><polygon points="-169.9735,-463 -171.388,-459.6666 -172.8022,-463" /><polygon points="-227.3614,-453.212 -227.3611,-451.106 -229.8166,-454 -229.8171,-459" /><polygon points="-171.388,-459.6666 -171.6709,-459 -212.6162,-459 -214.313,-463 -172.8022,-463" /><polygon points="-212.6162,-459 -213.7243,-459 -213.1703,-460.3061" /><polygon points="-171.1052,-459 -171.6709,-459 -171.388,-459.6666" /><polygon points="-213.1703,-460.3061 -213.1702,-461.6532 -214.313,-463" /><polygon points="-171.1052,-459 -171.1056,-454 -213.724,-454 -213.7243,-459" /><polygon points="-216.9214,-451.4643 -216.9211,-450.2324 -219.8258,-449" /><polygon points="-229.8171,-459 -231.3614,-459 -230.5892,-460.8198" /><polygon points="-231.3614,-459 -229.8171,-459 -229.8166,-454 -231.3619,-454" /><polygon points="-231.3614,-459 -256,-459 -256,-463 -229.664,-463" /><polygon points="-586,-150 -586,-157.8018 -586,-157.8518 -586,-155.644" /><polygon points="-586,-123.9011 -586,-130.2213 -586,-140.8318 -586,-151.5049 -586,-157.8018" /><polygon points="-561,-150 -586,-150 -586,-174 -554.9346,-174 -546.4194,-171.8709" /><polygon points="-554.1876,-50.0815 -553.0938,-50.0816 -556.5,-47.1913 -561,-47.1912" /><polygon points="-563.8159,-63.6807 -565.1543,-63.6807 -566.4926,-62.5451" /><polygon points="-556.3287,-108.3952 -554.1645,-108.395 -556.5,-106.4131 -561,-106.4134" /><polygon points="-561,-125.9565 -566,-123.8349 -566,-150 -561,-150" /><polygon points="-561,-125.9565 -561,-122.2409 -565.3781,-124.0988" /><polygon points="-565.3781,-124.0988 -565.689,-124.0988 -566,-123.8349" /><polygon points="-555.6942,-119.9894 -553.8471,-119.9891 -552,-115.6355" /><polygon points="-566,-106.638 -563.2353,-105.4651 -566,-104.2922" /><polygon points="-561,-106.4134 -561,-104.5168 -563.2353,-105.4651" /><polygon points="-563.2353,-105.4651 -561,-104.5168 -561,-64.8754 -566,-62.7541 -566,-104.2922" /><polygon points="-561,-106.4134 -556.5,-106.4131 -556.5,-64.8753 -561,-64.8754" /><polygon points="-566.4979,-150 -566,-150 -566,-62.7541 -566.4926,-62.5451" /><polygon points="-561,-64.8754 -561,-62.4861 -563.8159,-63.6807" /><polygon points="-561,-47.1912 -561,-45.341 -563.1804,-46.2661" /><polygon points="-561,-45.341 -561,-47.1912 -556.5,-47.1913 -556.5,-45.3405" /><polygon points="-561,-45.341 -561,-20.9942 -566.4901,-20.9942 -566.4917,-47.6709" /><polygon points="-566.4901,-20.9942 -586,-20.9942 -586,-150 -566.4979,-150" /><polygon points="-603.5104,-12.8945 -603.5103,-15.2087 -603.5099,-20.9942" /><polygon points="-586,-46.4032 -586,-39.6969 -603.5088,-39.6969 -603.5084,-46.4032" /><polygon points="-603.5037,-123.9011 -603.5033,-130.2213 -586,-130.2213 -586,-123.9011" /><polygon points="-603.5037,-123.9011 -586,-123.9011 -586,-46.4032 -603.5084,-46.4032" /><polygon points="-603.5099,-20.9942 -610,-20.9942 -610,-150 -603.5021,-150" /><polygon points="-161.189,-448.8166 -157.5883,-450.3443 -154.4863,-454 -171.1056,-454 -169.812,-452.4756" /><polygon points="-161.189,-448.8166 -161.1895,-455.8166 -157.5863,-457.3453 -157.5879,-451.689 -160.7568,-449" /><polygon points="-153.0011,-462.749 -153.0011,-462.498 -157.5879,-451.689 -157.5863,-457.3453" /><polygon points="-565.689,-124.0988 -565.3781,-124.0988 -555.6942,-119.9894 -560.847,-119.9903" /><polygon points="-586,-12.6968 -586,-18.9702 -586,-29.6613 -586,-39.6969 -586,-46.4032 -586,-12.8945" /><polygon points="-603.5104,-12.6968 -586,-12.6968 -586,-15.2087 -603.5103,-15.2087" /><polygon points="-586,-12.6968 -603.5104,-12.6968 -603.5101,-18.9702 -586,-18.9702" /><polygon points="-230.3971,297 -236.4871,297 -247.1753,297 -258.556,297 -264.5982,297 -230.5986,297" /><polygon points="-230.3971,297 -230.3971,314.4859 -236.4871,314.4856 -236.4871,297" /><polygon points="-152.9981,-484 -146.7479,-484 -136.2597,-484 -124.9551,-484 -118.797,-484 -152.7966,-484" /><polygon points="-152.9981,-484 -152.9981,-501.5093 -146.7479,-501.5089 -146.7479,-484" /><polygon points="-551.5461,-114.5658 -553.8471,-119.9891 -556.5,-122.2402 -556.5,-106.4131 -554.1645,-108.395" /><polygon points="-551.5461,-114.5658 -558.5459,-114.5663 -560.847,-119.9903 -555.6942,-119.9894 -552,-115.6355" /><polygon points="-221.112,-448.4543 -216.9211,-450.2324 -213.724,-454 -229.8166,-454 -227.3611,-451.106" /><polygon points="-221.112,-448.4543 -221.1118,-455.4539 -216.9226,-457.2313 -216.9214,-451.4643 -219.8258,-449" /><polygon points="-229.8912,276.3264 -229.8912,275.6528 -225.3394,264.9255 -225.3404,270.9631" /><polygon points="-551.3218,-54.2583 -553.864,-60.2494 -556.5,-62.4861 -556.5,-47.1913 -553.0938,-50.0816" /><polygon points="-551.3218,-54.2583 -558.5679,-54.2577 -561.1106,-60.2497 -553.864,-60.2494" /><polygon points="-221.4093,262.2953 -225.3393,263.9627 -228.3408,267.5 -213.3002,267.5 -215.6394,264.7434" /><polygon points="-221.4093,262.2953 -221.409,269.295 -225.3404,270.9631 -225.3394,264.9255 -223.0703,263" /><polygon points="-161.5008,262.147 -167.7362,264.7924 -170.0336,267.5 -153.6663,267.5 -156.3565,264.3296" /><polygon points="-161.5008,262.147 -161.5013,269.1467 -167.7355,271.7916 -167.736,266.5845 -163.5114,263" /><polygon points="168.0168,-55.7669 169.7134,-51.7683 173,-48.9799 173,-63.3396 170.2339,-60.9923" /><polygon points="168.0168,-55.7669 175.0168,-55.7692 176.7153,-51.7661 170.4272,-51.7681 169,-53.4496" /><polygon points="168.0127,-114.8197 170.0919,-109.9187 173,-107.4509 173,-123.9692 171.2732,-122.504" /><polygon points="168.0127,-114.8197 175.0126,-114.8194 177.092,-109.9179 171.1839,-109.9186 169,-112.4925" /><polygon points="181.936,-47.3367 180.8722,-47.3367 170.4272,-51.7681 176.7153,-51.7661" /><polygon points="-230.5892,-461.9098 -230.5892,-460.8198 -229.664,-463" /><polygon points="-212.2431,275.7464 -212.243,274.4927 -213.307,277" /><polygon points="-565.1543,-63.6807 -563.8159,-63.6807 -555.7282,-60.2495 -561.1106,-60.2497" /><polygon points="-213.1702,-461.6532 -213.1703,-460.3061 -216.9214,-451.4643 -216.9226,-457.2313" /><polygon points="-564.6177,-105.4651 -563.2353,-105.4651 -566,-106.638" /><polygon points="-152.8044,275.5159 -152.8044,274.0317 -154.0637,277" /><polygon points="-170.8955,275.5159 -170.8955,274.0317 -167.736,266.5845 -167.7355,271.7916" /><polygon points="181.5157,-106.1641 180.0315,-106.1641 171.1839,-109.9186 177.092,-109.9179" /><polygon points="-564.8358,-46.2661 -563.1804,-46.2661 -566.4917,-47.6709" /><polygon points="-171.3879,-461.3333 -171.388,-459.6666 -169.9735,-463" /><polygon points="181.2156,-64.3706 179.4315,-64.3708 183,-62.8563" /><polygon points="180.6902,-124.5548 178.3802,-124.5547 183,-122.5948" /><polygon points="-169.8109,-459.4749 -171.3879,-461.3333 -169.9735,-463 -153.2141,-463 -153.0011,-462.749 -157.5863,-457.3453 -161.1895,-455.8166" /><polygon points="-169.8109,-459.4749 -169.8114,-455.9504 -171.388,-459.6666 -171.3879,-461.3333" /><polygon points="-169.8109,-459.4749 -161.1895,-455.8166 -161.189,-448.8166 -169.812,-452.4756" /><polygon points="178.2732,-122.5039 180.6902,-124.5548 183,-122.5948 183,-107.4236 181.5157,-106.1641 177.092,-109.9179 175.0126,-114.8194" /><polygon points="178.2732,-122.5039 173.5464,-122.5039 178.3802,-124.5547 180.6902,-124.5548" /><polygon points="178.2732,-122.5039 175.0126,-114.8194 168.0127,-114.8197 171.2732,-122.504" /><polygon points="-561.1641,-108.3958 -564.6177,-105.4651 -566,-106.638 -566,-123.8349 -565.689,-124.0988 -560.847,-119.9903 -558.5459,-114.5663" /><polygon points="-561.1641,-108.3958 -556.3287,-108.3952 -563.2353,-105.4651 -564.6177,-105.4651" /><polygon points="-561.1641,-108.3958 -558.5459,-114.5663 -551.5461,-114.5658 -554.1645,-108.395" /><polygon points="-227.362,-458.1061 -230.5892,-461.9098 -229.664,-463 -214.313,-463 -213.1702,-461.6532 -216.9226,-457.2313 -221.1118,-455.4539" /><polygon points="-227.362,-458.1061 -227.3614,-453.212 -230.5892,-460.8198 -230.5892,-461.9098" /><polygon points="-227.362,-458.1061 -221.1118,-455.4539 -221.112,-448.4543 -227.3611,-451.106" /><polygon points="-215.6407,271.7425 -212.2431,275.7464 -213.307,277 -229.3196,277 -229.8912,276.3264 -225.3404,270.9631 -221.409,269.295" /><polygon points="-215.6407,271.7425 -215.6397,266.4864 -212.243,274.4927 -212.2431,275.7464" /><polygon points="-215.6407,271.7425 -221.409,269.295 -221.4093,262.2953 -215.6394,264.7434" /><polygon points="-156.3567,271.3294 -152.8044,275.5159 -154.0637,277 -169.6362,277 -170.8955,275.5159 -167.7355,271.7916 -161.5013,269.1467" /><polygon points="-156.3567,271.3294 -156.3565,265.6591 -152.8044,274.0317 -152.8044,275.5159" /><polygon points="-156.3567,271.3294 -161.5013,269.1467 -161.5008,262.147 -156.3565,264.3296" /><polygon points="177.232,-60.9902 181.2156,-64.3706 183,-62.8563 183,-48.2397 181.936,-47.3367 176.7153,-51.7661 175.0168,-55.7692" /><polygon points="177.232,-60.9902 171.4672,-60.9919 179.4315,-64.3708 181.2156,-64.3706" /><polygon points="177.232,-60.9902 175.0168,-55.7692 168.0168,-55.7669 170.2339,-60.9923" /><polygon points="-560.3395,-50.0814 -564.8358,-46.2661 -566.4917,-47.6709 -566.4926,-62.5451 -565.1543,-63.6807 -561.1106,-60.2497 -558.5679,-54.2577" /><polygon points="-560.3395,-50.0814 -554.1876,-50.0815 -563.1804,-46.2661 -564.8358,-46.2661" /><polygon points="-560.3395,-50.0814 -558.5679,-54.2577 -551.3218,-54.2583 -553.0938,-50.0816" /><polygon points="-129.1448,560 -254.073,560 -243.692,474.9742 -139.5174,474.9742" /><polygon points="456,-147.3415 456,-23.9351 371.503,-34.2491 371.503,-137.0368" /><polygon points="-840,-146.7932 -758.0219,-136.7867 -758.0219,-33.2099 -840,-23.2088" /><polygon points="-840,-146.7932 -840,-182 -753,-182 -753,-137.6794 -758.0219,-136.7867" /><polygon points="-130.3233,-736 -132.8875,-715 -133.399,-715 -251.8087,-715 -254.3707,-736" /><polygon points="-130.3233,-736 -95,-736 -95,-715 -132.8875,-715" /><polygon points="-258.556,314.4842 -258.556,297 -247.1753,297 -247.1753,314.4849" /><polygon points="-258.556,297 -258.556,314.4842 -264.6527,314.4839 -264.6527,297" /><polygon points="-124.9551,-484 -124.9551,-501.5076 -118.7485,-501.5072 -118.7485,-484" /><polygon points="-236.4871,314.4856 -230.3971,314.4859 -230.5986,314.4859 -264.5982,314.4839 -258.556,314.4842 -247.1753,314.4849" /><polygon points="-586,-151.5049 -603.502,-151.5049 -603.5016,-157.8518 -586,-157.8518" /><polygon points="220.4967,-130.2213 203,-130.2213 203,-141.0793 220.4974,-141.0793" /><polygon points="-603.5033,-130.2213 -603.5037,-123.9011 -603.5016,-157.8018 -603.502,-151.5049 -603.5026,-140.8318" /><polygon points="-586,-130.2213 -603.5033,-130.2213 -603.5026,-140.8318 -586,-140.8318" /><polygon points="-258.2687,-484 -258.2687,-501.5158 -247.1882,-501.5151 -247.1882,-484" /><polygon points="-258.2687,-501.5158 -264.5982,-501.5161 -230.7066,-501.5141 -237.5594,-501.5145 -247.1882,-501.5151" /><polygon points="-258.2687,-501.5158 -258.2687,-484 -264.6527,-484 -264.6527,-501.5161" /><polygon points="220.4912,-40.4642 220.4916,-46.8952 220.4896,-13 220.49,-19.4749 220.4906,-29.9086" /><polygon points="-125.2414,314.4924 -118.797,314.4927 -152.7006,314.4907 -145.9671,314.4911 -136.0047,314.4917" /><polygon points="-125.2414,314.4924 -125.2414,297 -118.7485,297 -118.7485,314.4928" /><polygon points="-146.7479,-501.5089 -152.9981,-501.5093 -152.7966,-501.5093 -118.797,-501.5073 -124.9551,-501.5076 -136.2597,-501.5083" /><polygon points="-146.7479,-484 -146.7479,-501.5089 -136.2597,-501.5083 -136.2597,-484" /><polygon points="-586,-18.9702 -603.5101,-18.9702 -603.5094,-29.6613 -586,-29.6613" /><polygon points="-603.5101,-18.9702 -603.5104,-12.6968 -603.5104,-12.8945 -603.5084,-46.4032 -603.5088,-39.6969 -603.5094,-29.6613" /><polygon points="220.49,-19.4749 203,-19.4749 203,-29.9086 220.4906,-29.9086" /><polygon points="203,-19.4749 220.49,-19.4749 220.4896,-12.9476 203,-12.9476" /><polygon points="220.498,-151.2262 220.4984,-157.8018 220.4963,-123.9011 220.4967,-130.2213 220.4974,-141.0793" /><polygon points="220.498,-151.2262 203,-151.2262 203,-157.8518 220.4984,-157.8518" /><polygon points="-145.9671,314.4911 -145.9671,297 -136.0047,297 -136.0047,314.4917" /><polygon points="-251.8087,-715 -244.4916,-655.0235 -245.2071,-651 -287,-651 -287,-736 -254.3707,-736" /><polygon points="-247.1753,314.4849 -247.1753,297 -236.4871,297 -236.4871,314.4856" /><polygon points="-586,-140.8318 -603.5026,-140.8318 -603.502,-151.5049 -586,-151.5049" /><polygon points="-136.2597,-484 -136.2597,-501.5083 -124.9551,-501.5076 -124.9551,-484" /><polygon points="220.4974,-141.0793 203,-141.0793 203,-151.2262 220.498,-151.2262" /><polygon points="220.4906,-29.9086 203,-29.9086 203,-40.4642 220.4912,-40.4642" /><polygon points="-247.1882,-484 -247.1882,-501.5151 -237.5594,-501.5145 -237.5594,-484" /><polygon points="-136.0047,314.4917 -136.0047,297 -125.2414,297 -125.2414,314.4924" /><polygon points="-586,-29.6613 -603.5094,-29.6613 -603.5088,-39.6969 -586,-39.6969" /><polygon points="306,-139.3896 306,-31.5107 306,-30.142 306,-30.9733 306,-138.5702 306,-139.4015" /><polygon points="306,-31.5107 308.7921,-32.9066 370,-32.9066 370,11 306,11" /><polygon points="-689,-32.4074 -689,-139.7905 -689,-140.1463 -585,-136.6829 -585,-35.2416 -689,-31.7848" /><polygon points="-689,-32.4074 -689,-31.7848 -689,10 -689,10" /><polygon points="-245.557,408 -245.7137,408 -242.2453,304 -142.8244,304 -139.3593,408" /><polygon points="-245.557,408 -244.7962,409.5218 -244.7962,472 -288,472 -288,408" /><polygon points="-244.6064,-587 -244.6385,-587 -287,-587 -287,-587" /><polygon points="-244.6064,-587 -244.4497,-587 -137.4474,-587 -137.2908,-587" /><polygon points="306,-30.9733 202,-34.4274 202,-135.124 306,-138.5702" /><polygon points="-244.4497,-587 -244.0114,-587.877 -137.8857,-587.877 -137.4474,-587" /><polygon points="-691.5832,-33.6991 -753,-33.6991 -753,-137.6794 -753,-138.4989 -691.5832,-138.4989" /><polygon points="-758.0219,-136.7867 -753,-137.6794 -753,-33.6991 -753,-32.3166 -758.0219,-33.2099" /><polygon points="-139.2124,472 -138.9885,472 -139.5174,474.9742 -243.692,474.9742 -244.2206,472" /><polygon points="-139.2124,472 -244.2206,472 -244.7962,472 -244.7962,409.5218 -139.2124,409.5218" /><polygon points="371.503,-34.2491 370,-33.9819 370,-137.3041 371.503,-137.0368" /><polygon points="370,-137.9934 370,-137.3041 370,-33.9819 370,-32.9066 308.7921,-32.9066 308.7921,-137.9934" /><polygon points="-244.0114,-651 -140.0076,-651 -137.8857,-651 -137.8857,-587.877 -244.0114,-587.877" /><polygon points="-140.7228,-655.0235 -140.0076,-651 -244.0114,-651 -245.2071,-651 -244.4916,-655.0235" /><polygon points="-244.4916,-655.0235 -251.8087,-715 -133.399,-715 -140.7228,-655.0235" /><polygon points="-244.0114,-651 -244.0114,-587.877 -244.4497,-587 -244.6064,-587 -287,-587 -287,-651" /><polygon points="308.7921,-32.9066 306,-31.5107 306,-139.3896 308.7921,-137.9934" /><polygon points="370,-33.9819 371.503,-34.2491 456,-23.9351 456,11 370,11" /><polygon points="-244.7962,409.5218 -245.557,408 -139.3593,408 -138.4514,408 -139.2124,409.5218" /><polygon points="-244.2206,472 -243.692,474.9742 -254.073,560 -288,560 -288,472" /><polygon points="-758.0219,-33.2099 -753,-32.3166 -753,10 -840,10 -840,-23.2088" /><polygon points="-691.5832,-138.4989 -689,-139.7905 -689,-32.4074 -691.5832,-33.6991" /><polygon points="-753,-33.6991 -691.5832,-33.6991 -689,-32.4074 -689,10 -753,10" /></g></defs><rect fill="#fff" height="1736.0" id="background" width="1736.0" x="-1064.0" y="-960.0" /><use fill="none" stroke="black" stroke-miterlimit="0" stroke-width="15" xlink:href="#bsp_ref" /><use fill="white" stroke="black" stroke-width="1" xlink:href="#bsp_ref" /></svg>