<?xml version="1.0" encoding="utf-8" ?>
<svg baseProfile="tiny" height="100%" version="1.2" viewBox="-147.0 -307.0 4278.0 614.0" width="100%" xmlns="http://www.w3.org/2000/svg" xmlns:ev="http://www.w3.org/2001/xml-events" xmlns:xlink="http://www.w3.org/1999/xlink"><defs><g id="bsp_ref"><polygon points="-96,32 -96,192 -96,256 -96,256 -96,32" /><polygon points="-96,-192 -96,-32 -96,32 -96,32 -96,-192" /><polygon points="4064,-256 4064,-256 4064,-192 4064,-192" /><polygon points="128,-256 -96,-256 -96,-256 128,-256" /><polygon points="352,-256 128,-256 128,-256 352,-256" /><polygon points="576,-256 352,-256 352,-256 576,-256" /><polygon points="800,-256 576,-256 576,-256 800,-256" /><polygon points="1024,-256 800,-256 800,-256 1024,-256" /><polygon points="1248,-256 1024,-256 1024,-256 1248,-256" /><polygon points="1472,-256 1248,-256 1248,-256 1472,-256" /><polygon points="1696,-256 1472,-256 1472,-256 1696,-256" /><polygon points="1920,-256 1696,-256 1696,-256 1920,-256" /><polygon points="2144,-256 1920,-256 1920,-256 2144,-256" /><polygon points="2368,-256 2144,-256 2144,-256 2368,-256" /><polygon points="2592,-256 2368,-256 2368,-256 2592,-256" /><polygon points="2816,-256 2592,-256 2592,-256 2816,-256" /><polygon points="3040,-256 2816,-256 2816,-256 3040,-256" /><polygon points="3264,-256 3040,-256 3040,-256 3264,-256" /><polygon points="3488,-256 3264,-256 3264,-256 3488,-256" /><polygon points="3712,-256 3488,-256 3488,-256 3680,-256 3712,-256" /><polygon points="3936,-256 3712,-256 3712,-256 3904,-256 3936,-256" /><polygon points="4064,256 4064,256 3936,256 3936,256" /><polygon points="-96,-32 -96,-192 -96,-256 128,-256 128,-32" /><polygon points="-96,192 -96,32 -96,-32 128,-32 128,192" /><polygon points="128,256 -96,256 -96,192 128,192" /><polygon points="128,-32 128,-256 352,-256 352,-32" /><polygon points="128,192 128,-32 352,-32 352,192" /><polygon points="352,256 128,256 128,192 352,192" /><polygon points="352,-32 352,-256 576,-256 576,-32" /><polygon points="352,192 352,-32 576,-32 576,192" /><polygon points="576,256 352,256 352,192 576,192" /><polygon points="576,-32 576,-256 800,-256 800,-32" /><polygon points="576,192 576,-32 800,-32 800,192" /><polygon points="800,256 576,256 576,192 800,192" /><polygon points="800,-32 800,-256 1024,-256 1024,-32" /><polygon points="800,192 800,-32 1024,-32 1024,192" /><polygon points="1024,256 800,256 800,192 1024,192" /><polygon points="1024,-32 1024,-256 1248,-256 1248,-32" /><polygon points="1024,192 1024,-32 1248,-32 1248,192" /><polygon points="1248,256 1024,256 1024,192 1248,192" /><polygon points="1248,-32 1248,-256 1472,-256 1472,-32" /><polygon points="1248,192 1248,-32 1472,-32 1472,192" /><polygon points="1472,256 1248,256 1248,192 1472,192" /><polygon points="1472,-32 1472,-256 1696,-256 1696,-32" /><polygon points="1472,192 1472,-32 1696,-32 1696,192" /><polygon points="1696,256 1472,256 1472,192 1696,192" /><polygon points="1696,-32 1696,-256 1920,-256 1920,-32" /><polygon points="1696,192 1696,-32 1920,-32 1920,192" /><polygon points="1920,256 1696,256 1696,192 1920,192" /><polygon points="1920,-32 1920,-256 2144,-256 2144,-32" /><polygon points="1920,192 1920,-32 2144,-32 2144,192" /><polygon points="2144,256 1920,256 1920,192 2144,192" /><polygon points="2144,-32 2144,-256 2368,-256 2368,-32" /><polygon points="2144,192 2144,-32 2368,-32 2368,192" /><polygon points="2368,256 2144,256 2144,192 2368,192" /><polygon points="2368,-32 2368,-256 2592,-256 2592,-32" /><polygon points="2368,192 2368,-32 2592,-32 2592,192" /><polygon points="2592,256 2368,256 2368,192 2592,192" /><polygon points="2592,-32 2592,-256 2816,-256 2816,-32" /><polygon points="2592,192 2592,-32 2816,-32 2816,192" /><polygon points="2816,256 2592,256 2592,192 2816,192" /><polygon points="2816,-32 2816,-256 3040,-256 3040,-32" /><polygon points="2816,192 2816,-32 3040,-32 3040,192" /><polygon points="3040,256 2816,256 2816,192 3040,192" /><polygon points="3040,-32 3040,-256 3264,-256 3264,-32" /><polygon points="3040,192 3040,-32 3264,-32 3264,192" /><polygon points="3264,256 3040,256 3040,192 3264,192" /><polygon points="3264,-32 3264,-256 3488,-256 3488,-32" /><polygon points="3264,192 3264,-32 3488,-32 3488,192" /><polygon points="3488,256 3264,256 3264,192 3488,192" /><polygon points="3488,-32 3488,-256 3712,-256 3712,-32" /><polygon points="3488,192 3488,-32 3712,-32 3712,192" /><polygon points="3712,256 3488,256 3488,192 3712,192" /><polygon points="3712,-32 3712,-256 3936,-256 3936,-32" /><polygon points="3712,192 3712,-32 3936,-32 3936,192" /><polygon points="3936,256 3712,256 3712,192 3936,192" /><polygon points="4064,-256 4064,-192 4064,-32 3936,-32 3936,-256" /><polygon points="4064,-32 4064,32 4064,192 3936,192 3936,-32" /><polygon points="4064,192 4064,256 3936,256 3936,192" /><polygon points="-96,-256 -96,-256 -96,-192 -96,-192" /><polygon points="-96,32 -96,256 -96,256 -96,32" /><polygon points="-96,-192 -96,32 -96,32 -96,-192" /><polygon points="4064,-256 4064,-256 4064,-192 4064,-192" /><polygon points="4064,32 4064,256 4064,256 4064,192 4064,32" /><polygon points="4064,-192 4064,32 4064,32 4064,-32 4064,-192" /><polygon points="128,256 4064,32 4064,-192 4064,-256 3936,-256 3904,-256 3712,-256 3680,-256 3488,-256 3264,-256 3040,-256 2816,-256 2592,-256 2368,-256 2144,-256 1920,-256 1696,-256 1472,-256 1248,-256 1024,-256 800,-256 576,-256 352,-256 128,-256 -96,-256 -96,-192 -96,32 -96,256" /><polygon points="128,256 352,256 576,256 800,256 1024,256 1248,256 1472,256 1696,256 1920,256 2144,256 2368,256 2592,256 2816,256 3040,256 3264,256 3488,256 3680,256 3712,256 3904,256 3936,256 4064,256 4064,32" /><polygon points="128,-256 4064,-192 4064,32 4064,256 3936,256 3904,256 3712,256 3680,256 3488,256 3264,256 3040,256 2816,256 2592,256 2368,256 2144,256 1920,256 1696,256 1472,256 1248,256 1024,256 800,256 576,256 352,256 128,256 -96,256 -96,32 -96,-192 -96,-256" /><polygon points="128,-256 352,-256 576,-256 800,-256 1024,-256 1248,-256 1472,-256 1696,-256 1920,-256 2144,-256 2368,-256 2592,-256 2816,-256 3040,-256 3264,-256 3488,-256 3680,-256 3712,-256 3904,-256 3936,-256 4064,-256 4064,-192" /><polygon points="3936,256 4064,256 4064,256 3904,256 3904,256" /><polygon points="3904,-256 3712,-256 3680,-256 3680,-256 3680,-256 3904,-256" /><polygon points="128,-256 -96,-256 -96,-256 128,-256" /><polygon points="352,-256 128,-256 128,-256 352,-256" /><polygon points="576,-256 352,-256 352,-256 576,-256" /><polygon points="800,-256 576,-256 576,-256 800,-256" /><polygon points="1024,-256 800,-256 800,-256 1024,-256" /><polygon points="1248,-256 1024,-256 1024,-256 1248,-256" /><polygon points="1472,-256 1248,-256 1248,-256 1472,-256" /><polygon points="1696,-256 1472,-256 1472,-256 1696,-256" /><polygon points="1920,-256 1696,-256 1696,-256 1920,-256" /><polygon points="2144,-256 1920,-256 1920,-256 2144,-256" /><polygon points="2368,-256 2144,-256 2144,-256 2368,-256" /><polygon points="2592,-256 2368,-256 2368,-256 2592,-256" /><polygon points="2816,-256 2592,-256 2592,-256 2816,-256" /><polygon points="3040,-256 2816,-256 2816,-256 3040,-256" /><polygon points="3264,-256 3040,-256 3040,-256 3264,-256" /><polygon points="3488,-256 3264,-256 3264,-256 3488,-256" /><polygon points="3680,256 3680,256 3488,256 3488,256" /><polygon points="4064,-256 4064,-256 3936,-256 3936,-256" /><polygon points="128,256 -96,256 -96,256 128,256" /><polygon points="352,256 128,256 128,256 352,256" /><polygon points="576,256 352,256 352,256 576,256" /><polygon points="800,256 576,256 576,256 800,256" /><polygon points="1024,256 800,256 800,256 1024,256" /><polygon points="1248,256 1024,256 1024,256 1248,256" /><polygon points="1472,256 1248,256 1248,256 1472,256" /><polygon points="1696,256 1472,256 1472,256 1696,256" /><polygon points="1920,256 1696,256 1696,256 1920,256" /><polygon points="2144,256 1920,256 1920,256 2144,256" /><polygon points="2368,256 2144,256 2144,256 2368,256" /><polygon points="2592,256 2368,256 2368,256 2592,256" /><polygon points="2816,256 2592,256 2592,256 2816,256" /><polygon points="3040,256 2816,256 2816,256 3040,256" /><polygon points="3264,256 3040,256 3040,256 3264,256" /><polygon points="3488,256 3264,256 3264,256 3488,256" /><polygon points="3712,256 3680,256 3488,256 3488,256 3712,256" /><polygon points="3936,256 3904,256 3712,256 3712,256 3936,256" /><polygon points="-96,256 -96,256 -96,32 -96,32" /><polygon points="-96,32 -96,32 -96,-192 -96,-192" /><polygon points="-96,-256 -96,-256 -96,-192 -96,-192" /><polygon points="-96,-256 -96,-256 128,-256 128,-256" /><polygon points="128,-256 128,-256 352,-256 352,-256" /><polygon points="352,-256 352,-256 576,-256 576,-256" /><polygon points="576,-256 576,-256 800,-256 800,-256" /><polygon points="800,-256 800,-256 1024,-256 1024,-256" /><polygon points="1024,-256 1024,-256 1248,-256 1248,-256" /><polygon points="1248,-256 1248,-256 1472,-256 1472,-256" /><polygon points="1472,-256 1472,-256 1696,-256 1696,-256" /><polygon points="1696,-256 1696,-256 1920,-256 1920,-256" /><polygon points="1920,-256 1920,-256 2144,-256 2144,-256" /><polygon points="2144,-256 2144,-256 2368,-256 2368,-256" /><polygon points="2368,-256 2368,-256 2592,-256 2592,-256" /><polygon points="2592,-256 2592,-256 2816,-256 2816,-256" /><polygon points="2816,-256 2816,-256 3040,-256 3040,-256" /><polygon points="3040,-256 3040,-256 3264,-256 3264,-256" /><polygon points="3264,-256 3264,-256 3488,-256 3488,-256" /><polygon points="3680,-256 3680,-256 3488,-256 3488,-256" /><polygon points="-96,256 -96,256 128,256 128,256" /><polygon points="128,256 128,256 352,256 352,256" /><polygon points="352,256 352,256 576,256 576,256" /><polygon points="576,256 576,256 800,256 800,256" /><polygon points="800,256 800,256 1024,256 1024,256" /><polygon points="1024,256 1024,256 1248,256 1248,256" /><polygon points="1248,256 1248,256 1472,256 1472,256" /><polygon points="1472,256 1472,256 1696,256 1696,256" /><polygon points="1696,256 1696,256 1920,256 1920,256" /><polygon points="1920,256 1920,256 2144,256 2144,256" /><polygon points="2144,256 2144,256 2368,256 2368,256" /><polygon points="2368,256 2368,256 2592,256 2592,256" /><polygon points="2592,256 2592,256 2816,256 2816,256" /><polygon points="2816,256 2816,256 3040,256 3040,256" /><polygon points="3040,256 3040,256 3264,256 3264,256" /><polygon points="3264,256 3264,256 3488,256 3488,256" /><polygon points="3680,256 3680,256 3680,256 3680,256 3488,256 3488,256" /><polygon points="4064,32 4064,192 4064,256 4064,256 4064,32" /><polygon points="4064,-192 4064,-32 4064,32 4064,32 4064,-192" /><polygon points="3680,-256 3680,-256 3680,-192 3680,-192" /><polygon points="3904,256 3680,256 3680,256 3680,256 3712,256 3904,256" /><polygon points="4064,-256 4064,-256 3936,-256 3904,-256 3904,-256" /><polygon points="3904,-256 3680,-256 3680,-192 3680,-32 3904,-32" /><polygon points="3680,-32 3680,32 3680,192 3904,192 3904,-32" /><polygon points="3680,192 3680,256 3904,256 3904,192" /><polygon points="4064,-192 4064,-256 3904,-256 3904,-32 4064,-32" /><polygon points="3904,-32 3904,192 4064,192 4064,32 4064,-32" /><polygon points="3904,192 3904,256 4064,256 4064,192" /><polygon points="3288,72 3224,72 3224,104 3288,104" /><polygon points="2864,-104 2800,-104 2800,-72 2864,-72" /><polygon points="2456,80 2392,80 2392,112 2456,112" /><polygon points="2068,-112 2004,-112 2004,-80 2068,-80" /><polygon points="1708,88 1644,88 1644,120 1708,120" /><polygon points="1372,-120 1308,-120 1308,-88 1372,-88" /><polygon points="1068,96 1004,96 1004,128 1068,128" /><polygon points="288,-96 288,-96 288,96 288,96" /><polygon points="792,-128 728,-128 728,-96 792,-96" /><polygon points="448,-96 288,-96 288,96 448,96" /><polygon points="728,-128 728,-128 792,-128 792,-128" /><polygon points="1068,128 1068,128 1004,128 1004,128" /><polygon points="1708,88 1708,88 1708,120 1708,120" /><polygon points="2800,-72 2800,-72 2800,-104 2800,-104" /><polygon points="3224,104 3224,104 3224,72 3224,72" /><polygon points="3288,72 3288,72 3288,104 3288,104" /><polygon points="3224,72 3224,72 3288,72 3288,72" /><polygon points="3288,104 3288,104 3224,104 3224,104" /><polygon points="2864,-104 2864,-104 2864,-72 2864,-72" /><polygon points="2864,-72 2864,-72 2800,-72 2800,-72" /><polygon points="2800,-104 2800,-104 2864,-104 2864,-104" /><polygon points="2392,112 2392,112 2392,80 2392,80" /><polygon points="2456,80 2456,80 2456,112 2456,112" /><polygon points="2392,80 2392,80 2456,80 2456,80" /><polygon points="2456,112 2456,112 2392,112 2392,112" /><polygon points="2068,-112 2068,-112 2068,-80 2068,-80" /><polygon points="2004,-80 2004,-80 2004,-112 2004,-112" /><polygon points="2068,-80 2068,-80 2004,-80 2004,-80" /><polygon points="2004,-112 2004,-112 2068,-112 2068,-112" /><polygon points="792,-128 792,-128 792,-96 792,-96" /><polygon points="1308,-88 1308,-88 1308,-120 1308,-120" /><polygon points="1372,-120 1372,-120 1372,-88 1372,-88" /><polygon points="1644,120 1644,120 1644,88 1644,88" /><polygon points="1644,88 1644,88 1708,88 1708,88" /><polygon points="1708,120 1708,120 1644,120 1644,120" /><polygon points="1372,-88 1372,-88 1308,-88 1308,-88" /><polygon points="1308,-120 1308,-120 1372,-120 1372,-120" /><polygon points="1068,96 1068,96 1068,128 1068,128" /><polygon points="1004,128 1004,128 1004,96 1004,96" /><polygon points="1004,96 1004,96 1068,96 1068,96" /><polygon points="728,-96 728,-96 728,-128 728,-128" /><polygon points="792,-96 792,-96 728,-96 728,-96" /><polygon points="4064,-256 4064,-256 4064,-192 4064,-192" /><polygon points="3680,32 3680,192 3680,256 3680,256 3680,192 3680,32" /><polygon points="3680,-192 3680,-32 3680,32 3680,32 3680,-32 3680,-192" /><polygon points="3952,-256 4064,-256 4064,-192 4064,-32 3952,-32" /><polygon points="4064,-32 4064,32 4064,192 3952,192 3952,-32" /><polygon points="4064,192 4064,256 3952,256 3952,192" /><polygon points="3680,-192 3680,-256 3904,-256 3904,-32 3680,-32" /><polygon points="3904,-32 3904,192 3680,192 3680,32 3680,-32" /><polygon points="3904,192 3904,256 3680,256 3680,192" /><polygon points="3904,-256 3952,-256 3952,-32 3904,-32" /><polygon points="3952,-32 3952,192 3904,192 3904,-32" /><polygon points="3952,192 3952,256 3904,256 3904,192" /><polygon points="3952,256 3952,256 3904,256 3904,256" /><polygon points="3952,256 4064,256 4064,256 3952,256" /><polygon points="3904,-256 3680,-256 3680,-256 3904,-256" /><polygon points="4064,-256 3952,-256 3952,-256 4064,-256" /><polygon points="3952,192 3952,-32 3952,-256 3952,-256 3952,-256 3952,-256 3952,-32 3952,192 3952,256 3952,256 3952,256 3952,256" /><polygon points="728,-128 728,-128 792,-128 792,-128" /><polygon points="1068,128 1068,128 1004,128 1004,128" /><polygon points="1708,88 1708,88 1708,120 1708,120" /><polygon points="2800,-72 2800,-72 2800,-104 2800,-104" /><polygon points="3224,104 3224,104 3224,72 3224,72" /><polygon points="3288,104 3224,104 3224,72 3288,72" /><polygon points="3288,72 3288,72 3288,104 3288,104" /><polygon points="3224,72 3224,72 3288,72 3288,72" /><polygon points="3288,104 3288,104 3224,104 3224,104" /><polygon points="2864,-72 2800,-72 2800,-104 2864,-104" /><polygon points="2864,-104 2864,-104 2864,-72 2864,-72" /><polygon points="2864,-72 2864,-72 2800,-72 2800,-72" /><polygon points="2800,-104 2800,-104 2864,-104 2864,-104" /><polygon points="2392,112 2392,112 2392,80 2392,80" /><polygon points="2456,112 2392,112 2392,80 2456,80" /><polygon points="2456,80 2456,80 2456,112 2456,112" /><polygon points="2392,80 2392,80 2456,80 2456,80" /><polygon points="2456,112 2456,112 2392,112 2392,112" /><polygon points="2068,-112 2068,-112 2068,-80 2068,-80" /><polygon points="2068,-80 2004,-80 2004,-112 2068,-112" /><polygon points="2004,-80 2004,-80 2004,-112 2004,-112" /><polygon points="2068,-80 2068,-80 2004,-80 2004,-80" /><polygon points="2004,-112 2004,-112 2068,-112 2068,-112" /><polygon points="792,-128 792,-128 792,-96 792,-96" /><polygon points="1308,-88 1308,-88 1308,-120 1308,-120" /><polygon points="1708,120 1644,120 1644,88 1708,88" /><polygon points="1372,-88 1308,-88 1308,-120 1372,-120" /><polygon points="1372,-120 1372,-120 1372,-88 1372,-88" /><polygon points="1644,120 1644,120 1644,88 1644,88" /><polygon points="1644,88 1644,88 1708,88 1708,88" /><polygon points="1708,120 1708,120 1644,120 1644,120" /><polygon points="1372,-88 1372,-88 1308,-88 1308,-88" /><polygon points="1308,-120 1308,-120 1372,-120 1372,-120" /><polygon points="1068,128 1004,128 1004,96 1068,96" /><polygon points="1068,96 1068,96 1068,128 1068,128" /><polygon points="1004,128 1004,128 1004,96 1004,96" /><polygon points="1004,96 1004,96 1068,96 1068,96" /><polygon points="288,-96 288,-96 288,96 288,96" /><polygon points="304,-96 448,-96 448,80 304,80" /><polygon points="792,-96 728,-96 728,-128 792,-128" /><polygon points="448,80 448,96 448,96 448,80" /><polygon points="288,-96 304,-96 304,-96 288,-96" /><polygon points="448,80 448,-96 448,-96 448,96 448,96" /><polygon points="728,-96 728,-96 728,-128 728,-128" /><polygon points="792,-96 792,-96 728,-96 728,-96" /><polygon points="448,96 448,96 288,96 288,96" /><polygon points="304,-96 288,-96 288,-96 448,-96 448,-96" /><polygon points="4080,-256 3952,-256 3952,256 4080,256" /><polygon points="288,-96 288,-96 288,96 288,96" /><polygon points="448,96 448,96 448,80 448,80" /><polygon points="304,80 304,80 448,80 448,80" /><polygon points="304,-96 304,-96 288,-96 288,-96" /><polygon points="304,-96 304,-96 304,80 304,80" /><polygon points="448,96 448,96 288,96 288,96" /><polygon points="-96,256 -96,256 -96,32 -96,32" /><polygon points="-96,32 -96,32 -96,-192 -96,-192" /><polygon points="-96,-256 -96,-256 -96,-192 -96,-192" /><polygon points="4064,256 4064,256 4064,192 4064,32 4064,32" /><polygon points="4064,32 4064,32 4064,-32 4064,-192 4064,-192" /><polygon points="4064,-256 4064,-256 4064,-192 4064,-192" /><polygon points="3680,256 3680,256 3904,256 3904,256" /><polygon points="3952,256 3952,256 3904,256 3904,256" /><polygon points="4064,256 4064,256 3952,256 3952,256" /><polygon points="3680,-256 3680,-256 3904,-256 3904,-256" /><polygon points="3952,-256 3952,-256 3904,-256 3904,-256" /><polygon points="3952,-256 3952,-256 4064,-256 4064,-256" /><polygon points="-96,-256 -96,-256 128,-256 128,-256" /><polygon points="128,-256 128,-256 352,-256 352,-256" /><polygon points="352,-256 352,-256 576,-256 576,-256" /><polygon points="576,-256 576,-256 800,-256 800,-256" /><polygon points="800,-256 800,-256 1024,-256 1024,-256" /><polygon points="1024,-256 1024,-256 1248,-256 1248,-256" /><polygon points="1248,-256 1248,-256 1472,-256 1472,-256" /><polygon points="1472,-256 1472,-256 1696,-256 1696,-256" /><polygon points="1696,-256 1696,-256 1920,-256 1920,-256" /><polygon points="1920,-256 1920,-256 2144,-256 2144,-256" /><polygon points="2144,-256 2144,-256 2368,-256 2368,-256" /><polygon points="2368,-256 2368,-256 2592,-256 2592,-256" /><polygon points="2592,-256 2592,-256 2816,-256 2816,-256" /><polygon points="2816,-256 2816,-256 3040,-256 3040,-256" /><polygon points="3040,-256 3040,-256 3264,-256 3264,-256" /><polygon points="3264,-256 3264,-256 3488,-256 3488,-256" /><polygon points="3680,-256 3680,-256 3680,-256 3680,-256 3488,-256 3488,-256" /><polygon points="-96,256 -96,256 128,256 128,256" /><polygon points="128,256 128,256 352,256 352,256" /><polygon points="352,256 352,256 576,256 576,256" /><polygon points="576,256 576,256 800,256 800,256" /><polygon points="800,256 800,256 1024,256 1024,256" /><polygon points="1024,256 1024,256 1248,256 1248,256" /><polygon points="1248,256 1248,256 1472,256 1472,256" /><polygon points="1472,256 1472,256 1696,256 1696,256" /><polygon points="1696,256 1696,256 1920,256 1920,256" /><polygon points="1920,256 1920,256 2144,256 2144,256" /><polygon points="2144,256 2144,256 2368,256 2368,256" /><polygon points="2368,256 2368,256 2592,256 2592,256" /><polygon points="2592,256 2592,256 2816,256 2816,256" /><polygon points="2816,256 2816,256 3040,256 3040,256" /><polygon points="3040,256 3040,256 3264,256 3264,256" /><polygon points="3264,256 3264,256 3488,256 3488,256" /><polygon points="3680,256 3680,256 3488,256 3488,256" /><polygon points="288,-96 288,-96 288,80 288,96 288,96" /><polygon points="448,96 448,96 448,80 448,80" /><polygon points="304,80 304,80 448,80 448,80" /><polygon points="304,-96 304,-96 288,-96 288,-96" /><polygon points="304,-96 304,-96 304,80 304,80" /><polygon points="448,96 448,96 288,96 288,96" /><polygon points="-96,256 -96,256 -96,192 -96,32 -96,32" /><polygon points="-96,32 -96,32 -96,-32 -96,-192 -96,-192" /><polygon points="-96,-256 -96,-256 -96,-192 -96,-192" /><polygon points="4064,256 4064,256 4064,32 4064,32" /><polygon points="4064,32 4064,32 4064,-192 4064,-192" /><polygon points="4064,-256 4064,-256 4064,-192 4064,-192" /><polygon points="3680,256 3680,256 3904,256 3904,256" /><polygon points="3952,256 3952,256 3904,256 3904,256" /><polygon points="4064,256 4064,256 3952,256 3952,256" /><polygon points="3680,-256 3680,-256 3712,-256 3904,-256 3904,-256" /><polygon points="3952,-256 3952,-256 3904,-256 3904,-256" /><polygon points="3952,-256 3952,-256 4064,-256 4064,-256" /><polygon points="-96,-256 -96,-256 128,-256 128,-256" /><polygon points="128,-256 128,-256 352,-256 352,-256" /><polygon points="352,-256 352,-256 576,-256 576,-256" /><polygon points="576,-256 576,-256 800,-256 800,-256" /><polygon points="800,-256 800,-256 1024,-256 1024,-256" /><polygon points="1024,-256 1024,-256 1248,-256 1248,-256" /><polygon points="1248,-256 1248,-256 1472,-256 1472,-256" /><polygon points="1472,-256 1472,-256 1696,-256 1696,-256" /><polygon points="1696,-256 1696,-256 1920,-256 1920,-256" /><polygon points="1920,-256 1920,-256 2144,-256 2144,-256" /><polygon points="2144,-256 2144,-256 2368,-256 2368,-256" /><polygon points="2368,-256 2368,-256 2592,-256 2592,-256" /><polygon points="2592,-256 2592,-256 2816,-256 2816,-256" /><polygon points="2816,-256 2816,-256 3040,-256 3040,-256" /><polygon points="3040,-256 3040,-256 3264,-256 3264,-256" /><polygon points="3264,-256 3264,-256 3488,-256 3488,-256" /><polygon points="3680,-256 3680,-256 3488,-256 3488,-256" /><polygon points="-96,256 -96,256 128,256 128,256" /><polygon points="128,256 128,256 352,256 352,256" /><polygon points="352,256 352,256 576,256 576,256" /><polygon points="576,256 576,256 800,256 800,256" /><polygon points="800,256 800,256 1024,256 1024,256" /><polygon points="1024,256 1024,256 1248,256 1248,256" /><polygon points="1248,256 1248,256 1472,256 1472,256" /><polygon points="1472,256 1472,256 1696,256 1696,256" /><polygon points="1696,256 1696,256 1920,256 1920,256" /><polygon points="1920,256 1920,256 2144,256 2144,256" /><polygon points="2144,256 2144,256 2368,256 2368,256" /><polygon points="2368,256 2368,256 2592,256 2592,256" /><polygon points="2592,256 2592,256 2816,256 2816,256" /><polygon points="2816,256 2816,256 3040,256 3040,256" /><polygon points="3040,256 3040,256 3264,256 3264,256" /><polygon points="3264,256 3264,256 3488,256 3488,256" /><polygon points="3680,256 3680,256 3488,256 3488,256" /><polygon points="80,-64 -16,-64 -16,64 80,64" /><polygon points="80,-64 80,-64 80,64 80,64" /><polygon points="80,64 80,64 -16,64 -16,64" /><polygon points="-16,-64 -16,-64 80,-64 80,-64" /><polygon points="-16,64 -16,64 -16,-64 -16,-64" /><polygon points="80,64 -16,64 -16,-64 80,-64" /><polygon points="448,96 288,96 288,80 304,80 448,80" /><polygon points="288,-96 304,-96 304,80 288,80" /><polygon points="448,80 304,80 304,80 448,80" /><polygon points="304,-96 304,-96 304,80 304,80" /><polygon points="288,96 448,96 448,96 288,96" /><polygon points="-96,-256 -96,-256 -96,-192 -96,-192" /><polygon points="4064,32 4064,192 4064,256 4064,256 4064,32" /><polygon points="4064,-192 4064,-32 4064,32 4064,32 4064,-192" /><polygon points="4064,-192 4064,-256 3952,-256 3952,-32 4064,-32" /><polygon points="3952,-32 3952,192 4064,192 4064,32 4064,-32" /><polygon points="3952,192 3952,256 4064,256 4064,192" /><polygon points="128,-256 -96,-256 -96,-192 -96,-32 128,-32" /><polygon points="-96,-32 -96,32 -96,192 128,192 128,-32" /><polygon points="-96,192 -96,256 128,256 128,192" /><polygon points="352,-256 128,-256 128,-32 352,-32" /><polygon points="128,-32 128,192 352,192 352,-32" /><polygon points="128,192 128,256 352,256 352,192" /><polygon points="576,-256 352,-256 352,-32 576,-32" /><polygon points="352,-32 352,192 576,192 576,-32" /><polygon points="352,192 352,256 576,256 576,192" /><polygon points="800,-256 576,-256 576,-32 800,-32" /><polygon points="576,-32 576,192 800,192 800,-32" /><polygon points="576,192 576,256 800,256 800,192" /><polygon points="1024,-256 800,-256 800,-32 1024,-32" /><polygon points="800,-32 800,192 1024,192 1024,-32" /><polygon points="800,192 800,256 1024,256 1024,192" /><polygon points="1248,-256 1024,-256 1024,-32 1248,-32" /><polygon points="1024,-32 1024,192 1248,192 1248,-32" /><polygon points="1024,192 1024,256 1248,256 1248,192" /><polygon points="1472,-256 1248,-256 1248,-32 1472,-32" /><polygon points="1248,-32 1248,192 1472,192 1472,-32" /><polygon points="1248,192 1248,256 1472,256 1472,192" /><polygon points="1696,-256 1472,-256 1472,-32 1696,-32" /><polygon points="1472,-32 1472,192 1696,192 1696,-32" /><polygon points="1472,192 1472,256 1696,256 1696,192" /><polygon points="1920,-256 1696,-256 1696,-32 1920,-32" /><polygon points="1696,-32 1696,192 1920,192 1920,-32" /><polygon points="1696,192 1696,256 1920,256 1920,192" /><polygon points="2144,-256 1920,-256 1920,-32 2144,-32" /><polygon points="1920,-32 1920,192 2144,192 2144,-32" /><polygon points="1920,192 1920,256 2144,256 2144,192" /><polygon points="2368,-256 2144,-256 2144,-32 2368,-32" /><polygon points="2144,-32 2144,192 2368,192 2368,-32" /><polygon points="2144,192 2144,256 2368,256 2368,192" /><polygon points="2592,-256 2368,-256 2368,-32 2592,-32" /><polygon points="2368,-32 2368,192 2592,192 2592,-32" /><polygon points="2368,192 2368,256 2592,256 2592,192" /><polygon points="2816,-256 2592,-256 2592,-32 2816,-32" /><polygon points="2592,-32 2592,192 2816,192 2816,-32" /><polygon points="2592,192 2592,256 2816,256 2816,192" /><polygon points="3040,-256 2816,-256 2816,-32 3040,-32" /><polygon points="2816,-32 2816,192 3040,192 3040,-32" /><polygon points="2816,192 2816,256 3040,256 3040,192" /><polygon points="3264,-256 3040,-256 3040,-32 3264,-32" /><polygon points="3040,-32 3040,192 3264,192 3264,-32" /><polygon points="3040,192 3040,256 3264,256 3264,192" /><polygon points="3488,-256 3264,-256 3264,-32 3488,-32" /><polygon points="3264,-32 3264,192 3488,192 3488,-32" /><polygon points="3264,192 3264,256 3488,256 3488,192" /><polygon points="3712,-256 3680,-256 3488,-256 3488,-32 3712,-32" /><polygon points="3488,-32 3488,192 3712,192 3712,-32" /><polygon points="3488,192 3488,256 3680,256 3712,256 3712,192" /><polygon points="3952,-32 3952,-256 3904,-256 3712,-256 3712,-32" /><polygon points="3952,192 3952,-32 3712,-32 3712,192" /><polygon points="3904,256 3952,256 3952,192 3712,192 3712,256" /><polygon points="3904,256 3712,256 3680,256 3680,256 3904,256" /><polygon points="3952,-256 3952,-256 3904,-256 3904,-256" /><polygon points="3952,192 3952,-32 3952,-256 3952,-256 3952,-256 3952,-256 3952,-32 3952,192 3952,256 3952,256 3952,256 3952,256" /><polygon points="3680,-256 3680,-256 3488,-256 3488,-256" /><polygon points="128,256 -96,256 -96,256 128,256" /><polygon points="352,256 128,256 128,256 352,256" /><polygon points="576,256 352,256 352,256 576,256" /><polygon points="800,256 576,256 576,256 800,256" /><polygon points="1024,256 800,256 800,256 1024,256" /><polygon points="1248,256 1024,256 1024,256 1248,256" /><polygon points="1472,256 1248,256 1248,256 1472,256" /><polygon points="1696,256 1472,256 1472,256 1696,256" /><polygon points="1920,256 1696,256 1696,256 1920,256" /><polygon points="2144,256 1920,256 1920,256 2144,256" /><polygon points="2368,256 2144,256 2144,256 2368,256" /><polygon points="2592,256 2368,256 2368,256 2592,256" /><polygon points="2816,256 2592,256 2592,256 2816,256" /><polygon points="3040,256 2816,256 2816,256 3040,256" /><polygon points="3264,256 3040,256 3040,256 3264,256" /><polygon points="3488,256 3264,256 3264,256 3488,256" /><polygon points="4080,256 3952,256 3952,-256 4080,-256" /><polygon points="4080,256 4080,256 3952,256 3952,256" /><polygon points="3952,-256 3952,-256 4080,-256 4080,-256" /><polygon points="4080,-256 4080,-256 4080,256 4080,256" /><polygon points="3952,256 3952,256 3952,-256 3952,-256" /></g></defs><rect fill="#fff" height="614.0" id="background" width="4278.0" x="-147.0" y="-307.0" /><use fill="none" stroke="black" stroke-miterlimit="0" stroke-width="15" xlink:href="#bsp_ref" /><use fill="white" stroke="black" stroke-width="1" xlink:href="#bsp_ref" /></svg>