<svg viewBox="-512 -848 1360 1440" xmlns="http://www.w3.org/2000/svg" xmlns:xlink="http://www.w3.org/1999/xlink"><defs><g id="a"><path d="m368 240h96-88-120z"/><path d="m256 240h-8-24z"/><path d="m-88 240h88-88-32-88z"/><path d="m-240-16v80 48 96-88-8-48z"/><path d="m-240-240v96 128-144z"/><path d="m496-368v-96 48 32 8 8 112z"/><path d="m496-248v-8 8 24z"/><path d="m496 80v-80 80 32 8 8 32 48z"/><path d="m344-368h24-116z"/><path d="m144-368h52-136z"/><path d="m-88-368h92-92-24z"/><path d="m344-416v-48-32h120l32 32v96h-112-16-24z"/><path d="m344-464h-88v-32h88z"/><path d="m252-416h-4v-48h8 88v48z"/><path d="m252-384v-32h92v48h-92z"/><path d="m226.1818-416h21.8182 4v32h-25.8182-26.1818v-32z"/><path d="m192-496v32h-48-80v-32z"/><path d="m192-464h8v44h-4-52v-44z"/><path d="m200-420v4 32h-4v-36z"/><path d="m196-384v16h-52v-16-36h52z"/><path d="m56-416v-48h8 80v44 36h-84-4z"/><path d="m144-368h-84v-16h84z"/><path d="m8-416h26.1818 21.8182v32h-21.8182-30.1818v-32z"/><path d="m-88-496h88v32h-88z"/><path d="m-88-464h88 8v48h-4-92z"/><path d="m4-384v16h-92v-48h92z"/><path d="m-240-464 32-32h120v32 48 48h-24-96-32z"/><path d="m192-464v-32z"/><path d="m496-464-32-32z"/><path d="m200-420v-44 44 4z"/><path d="m200-464h-8z"/><path d="m252-384h-28-11 13.1818z"/><path d="m0-464v-32z"/><path d="m8-464h-8z"/><path d="m34.1818-384h21.8182 4-28-11z"/><path d="m34.1818-384h-13.1818-5-12z"/><path d="m200 164v-4 48z"/><path d="m384-221.8182v21.8182-24-11z"/><path d="m464-248h-48z"/><path d="m384-252v-116h112v112 8h-32-48-32z"/><path d="m496-248v24 24h-32v-48z"/><path d="m416-221.8182v21.8182h-32v-21.8182-26.1818h32z"/><path d="m368-368h16v116h-16z"/><path d="m416-200h48 32v56h-80-32v-52-4z"/><path d="m368-196h16v52 84h-16z"/><path d="m464-56h32v48h-32z"/><path d="m496-144v88h-32-48v-88z"/><path d="m384-29.8182v-30.1818-84h32v88 26.1818 21.8182h-32z"/><path d="m420-4v-4h44 32v8 80h-76z"/><path d="m384-4v-4h32 4v4z"/><path d="m368 80v-84h16 36v84z"/><path d="m496 208-32 32h-96v-128-32h52 76z"/><path d="m416-56v8 5 13.1818z"/><path d="m384-29.8182v21.8182 4-28-11z"/><path d="m256 208v-80-16h112v128h-112z"/><path d="m256 128h-4v-16h4z"/><path d="m248 160v-32h4 4v80h-8z"/><path d="m221.8182 160h-21.8182v-32h21.8182 26.1818v32z"/><path d="m248 208h8v32h-32-24v-32z"/><path d="m221.8182 128h-21.8182 24 11z"/><path d="m-112-312v-56z"/><path d="m-112-368v56h-16-32-48v-56z"/><path d="m-160-285.8182v21.8182-24-11z"/><path d="m-160-256v-8-21.8182-26.1818h32v26.1818 29.8182z"/><path d="m-160-264v8h-48v-8z"/><path d="m-112-256v40z"/><path d="m-208-144v-112h48 32 16v40 184h-96z"/><path d="m-112-32v40h-16-32-48v-40z"/><path d="m-160 34.1818v21.8182-24-11z"/><path d="m-160 64v-8-21.8182-26.1818h32v26.1818 29.8182z"/><path d="m-160 56v8h-48v-8z"/><path d="m-240-240v-128h32v56 48 8 112h-32z"/><path d="m-208-144v112 40 48 8h-32v-80-128z"/><path d="m-240 112v-48h32 48 32 16v48z"/><path d="m-240 208 32 32z"/><path d="m196 112v16h-136v-16z"/><path d="m60 128h136 4v32 4h-136-8v-4-32z"/><path d="m200 164v44 32h-136v-32-44z"/><path d="m16 128h13.8182 26.1818v32h-26.1818-13.8182-8-4v-32z"/><path d="m56 208v-44h8v44z"/><path d="m8 208h48 8v32h-64-88v-32z"/><path d="m-88 112h92v16 32h-92z"/><path d="m4 160h4v48h-96v-48z"/><path d="m-88 160v48 32h-120l-32-32v-96h128 24z"/><path d="m16 160h13.8182 13.1818-11z"/><path d="m29.8182 128h-13.8182 16 11z"/><path d="m252-384h-17-11z"/><path d="m60-384h-17-11z"/><path d="m384-4v-17-11z"/><path d="m-160-264v-13-11z"/><path d="m-160 56v-13-11z"/><path d="m16 160h-8z"/><path d="m16 160h16-11z"/><path d="m224-416h24-21.8182-13.1818z"/><path d="m224-416v32h11v-32z"/><path d="m32-416h24-21.8182-13.1818z"/><path d="m32-416v32h11v-32z"/><path d="m416-224v24-21.8182-13.1818z"/><path d="m416-224h-32v11h32z"/><path d="m416-32v24-21.8182-13.1818z"/><path d="m416-32h-32v11h32z"/><path d="m224 160h-24 21.8182 13.1818z"/><path d="m224 128v32h11v-32z"/><path d="m-128-288v32-29.8182-13.1818z"/><path d="m-128-288h-32v11h32z"/><path d="m-128 32v32-29.8182-13.1818z"/><path d="m-128 32h-32v11h32z"/><path d="m32 128v32h11v-32z"/><path d="m213-416h13.1818-26.1818 8z"/><path d="m235-416h13-24z"/><path d="m213-384v-32h-5v32z"/><path d="m235-416v32h5v-32z"/><path d="m213-416v32h11v-32z"/><path d="m43-416h13-24z"/><path d="m43-416v32h5v-32z"/><path d="m21-384v-32h-5v32z"/><path d="m21-416v32h11v-32z"/><path d="m416-213v13-24z"/><path d="m416-235v13.1818-26.1818 8z"/><path d="m384-235h32v-5h-32z"/><path d="m416-213h-32v5h32z"/><path d="m416-235h-32v11h32z"/><path d="m416-21v13-24z"/><path d="m384-43v-5-12 30.1818z"/><path d="m384-43h32v-5h-32z"/><path d="m416-21h-32v5h32z"/><path d="m416-43h-32v11h32z"/><path d="m235 160h-13.1818 26.1818-8z"/><path d="m213 160h-13 24z"/><path d="m235 128v32h5v-32z"/><path d="m213 160v-32h-5v32z"/><path d="m213 128v32h11v-32z"/><path d="m-128-277v21-32z"/><path d="m-128-299v13.1818-26.1818 8z"/><path d="m-160-299h32v-5h-32z"/><path d="m-128-277h-32v5h32z"/><path d="m-128-299h-32v11h32z"/><path d="m-128 43v21-32z"/><path d="m-128 21v13.1818-26.1818 8z"/><path d="m-160 21h32v-5h-32z"/><path d="m-128 43h-32v5h32z"/><path d="m-128 21h-32v11h32z"/><path d="m43 160h-13.1818 26.1818-8z"/><path d="m43 128v32h5v-32z"/><path d="m21 160v-32h-5v32z"/><path d="m21 128v32h11v-32z"/><path d="m16 160h5z"/><path d="m16 128h5 11z"/><path d="m384-200v-13-11z"/><path d="m200 128h13 11z"/><path d="m-160-264v-8-5z"/><path d="m-160 56v-8-5z"/><path d="m252-384h-12-5z"/><path d="m384-4v-12-5z"/><path d="m60-384h-12-5z"/><path d="m-240 120v-8h128 24v16 32 48 32h-32-88l-32-32z"/><path d="m-88 208v-48-32-16h-24-128v8 88l32 32h88 32z"/><path d="m-240 112v-48h32 48 32 16v48z"/><path d="m-128 64h-32-48-32v48h128v-48z"/><path d="m-160 64v-8h-48v8z"/><path d="m-208 64v-8h48v8z"/><path d="m-160 64v-8-8h32v16z"/><path d="m-128 64v-16h-32v8 8z"/><path d="m-88 160v48h96v-48z"/><path d="m8 160v48h-96v-48z"/><path d="m4 128v-16h-92v16z"/><path d="m4 112v16h-92v-16z"/><path d="m8 160h-96v-32h92 12v32z"/><path d="m4 128h-92v32h96 8v-32z"/><path d="m8 208h48v32h-56-88v-32z"/><path d="m0 240h56v-32h-48-96v32z"/><path d="m248 240h-24-24v-32h48z"/><path d="m248 208h-48v32h24 24z"/><path d="m200 240v-32-48h-144v48 32z"/><path d="m200 160v48 32h-144v-32-48z"/><path d="m196 112v16h-136v-16z"/><path d="m196 128v-16h-136v16z"/><path d="m56 160h144 8v-32h-8-4-136-12v32z"/><path d="m60 128h136 4 8v32h-8-144-8v-32z"/><path d="m368 112h128v8 8h-244v-16z"/><path d="m496 128v-8-8h-128-116v16z"/><path d="m420 80h76v32h-128v-32z"/><path d="m496 112v-32h-76-52v32z"/><path d="m496 160v48l-32 32h-88-120-8v-32-48z"/><path d="m256 240h120 88l32-32v-48h-248v48 32z"/><path d="m252 128h244v32h-248-8v-32z"/><path d="m248 160h248v-32h-244-12v32z"/><path d="m368 80v-84h16 32 4v84z"/><path d="m416-4h-32-16v84h52v-84z"/><path d="m420-8h-4v4h4z"/><path d="m416-4v-4h4v4z"/><path d="m416-4v-4-8h-32v12z"/><path d="m384-4v-12h32v8 4z"/><path d="m496 0v-8h-32-44v4 84h76z"/><path d="m420-4v-4h44 32v8 80h-76z"/><path d="m464-56h-48v-88h48z"/><path d="m416-56h48v-88h-48z"/><path d="m464-56v-88h32v80 56h-32z"/><path d="m496-64v-80h-32v88 48h32z"/><path d="m-240-16v-144-80-128h32v56 48 272 48 8h-32z"/><path d="m-208 56v-48-272-48-56h-32v128 80 144 80h32z"/><path d="m-128-256h16v40 224h-16z"/><path d="m-112-216v-40h-16v264h16z"/><path d="m-160-264h-48v272h48z"/><path d="m-208-264h48v272h-48z"/><path d="m-160-312v-56h-48v56z"/><path d="m-208-312v-56h48v56z"/><path d="m-128-368v56h16v-56z"/><path d="m-112-368v56h-16v-56z"/><path d="m-128 8v-264-16h-32v8 272 8h32z"/><path d="m-160 8v-272-8h32v16 264 8h-32z"/><path d="m-160-304v-8-56h32v56 8z"/><path d="m-128-304v-8-56h-32v56 8z"/><path d="m-240-376v-88l32-32h88 32v32 48 32 16h-24-16-32-48-32z"/><path d="m-88-384v-32-48-32h-32-88l-32 32v88 8h32 48 32 16 24z"/><path d="m4-384h12v-32h-8-96v32z"/><path d="m8-416h8v32h-12-92v-32z"/><path d="m4-384v16h-92v-16z"/><path d="m4-368v-16h-92v16z"/><path d="m-88-416h96v-48h-8-88z"/><path d="m-88-464h88 8v48h-96z"/><path d="m-88-496h88v32h-88z"/><path d="m-88-464h88v-32h-88z"/><path d="m56-420v-44h8v44z"/><path d="m56-464v44h8v-44z"/><path d="m144-464v44h-80v-44-32h80z"/><path d="m64-464v44h80v-44-32h-80z"/><path d="m200-416v-4h-56-80-8v4z"/><path d="m64-420h80 56v4h-144v-4z"/><path d="m196-368v-16h-136v16z"/><path d="m196-384v16h-136v-16z"/><path d="m56-416h144 8v32h-8-4-136-12v-32z"/><path d="m60-384h136 4 8v-32h-8-144-8v32z"/><path d="m200-420v-44h-8-48v44z"/><path d="m192-464h8v44h-56v-44z"/><path d="m144-464h48v-32h-48z"/><path d="m144-496h48v32h-48z"/><path d="m384-196h-16v136h16z"/><path d="m368-196h16v136h-16z"/><path d="m416-56v-88-56-8h-32v8 4 136 12h32z"/><path d="m384-60v-136-4-8h32v8 56 88 8h-32z"/><path d="m464-200h32v56h-32-48v-56z"/><path d="m464-144h32v-56h-32-48v56z"/><path d="m464-248h32v24 24h-32z"/><path d="m464-200h32v-24-24h-32z"/><path d="m496-256v-112h-80v120h48 32z"/><path d="m416-368h80v112 8h-32-48z"/><path d="m416-248v-120h-32v116 12h32z"/><path d="m384-252v-116h32v120 8h-32z"/><path d="m368-368h16v116h-16z"/><path d="m384-368h-16v116h16z"/><path d="m368-416v-48h-112-8v48z"/><path d="m256-464h112v48h-120v-48z"/><path d="m496-384v8 8h-80-32-16-116v-16z"/><path d="m368-368h16 32 80v-8-8h-244v16z"/><path d="m368-496v32h-112v-32z"/><path d="m368-464v-32h-112v32z"/><path d="m376-496h88l32 32v48h-128v-48-32z"/><path d="m496-416v-48l-32-32h-88-8v32 48z"/><path d="m248-416h120 128v32h-244-12v-32z"/><path d="m252-384h244v-32h-128-120-8v32z"/><path d="m464 240h-88z"/><path d="m464 240 32-32z"/><path d="m496-384v-32-48 88z"/><path d="m464-496 32 32z"/><path d="m-240-160v144 80-64z"/><path d="m-240-376v8 128 80-64-32-64-80z"/><path d="m496-200v-24-24-8 64 48z"/><path d="m496-8v-56 64z"/><path d="m496 112v-32-80 208-88z"/><path d="m200-384h8-3.2877z"/><path d="m60-384h-30.1818 13.1818 5z"/><path d="m16-384h5z"/><path d="m4-384h12z"/><path d="m208-416h-3.2877 8.2877z"/><path d="m200-420v-44 48z"/><path d="m208-384v-32h5v32z"/><path d="m240-416v32h-5v-32z"/><path d="m56-416h-8-5-5.9091z"/><path d="m16-416h5z"/><path d="m48-416v32h-5v-32z"/><path d="m16-384v-32h5v32z"/><path d="m-128 64v-16-5-13.1818z"/><path d="m-128 16v-3.2877 8.2877z"/><path d="m-128-304v-3.2877 8.2877z"/><path d="m-128-272v-5-13.1818 34.1818z"/><path d="m464-248h-48z"/><path d="m416-200v-8-5-5.9091z"/><path d="m416-240v-3.2877 8.2877z"/><path d="m384-240h32v5h-32z"/><path d="m416-208h-32v-5h32z"/><path d="m416-48v-3.2877 8.2877z"/><path d="m416-8v-8-5-5.9091z"/><path d="m384-48h32v5h-32z"/><path d="m416-16h-32v-5h32z"/><path d="m-88-368h92-84-8-24z"/><path d="m196-368h-136z"/><path d="m368-368h-24-8-84z"/><path d="m-112-256v40z"/><path d="m200 160v48z"/><path d="m200 160h8 5 5.9091z"/><path d="m240 160h3.2877-8.2877z"/><path d="m240 128v32h-5v-32z"/><path d="m208 160v-32h5v32z"/><path d="m48 160h3.2877-8.2877z"/><path d="m16 160h5 5.9091-18.9091z"/><path d="m48 128v32h-5v-32z"/><path d="m16 160v-32h5v32z"/><path d="m-128-272h-32v-5h32z"/><path d="m-160-304h32v5h-32z"/><path d="m-160 16h32v5h-32z"/><path d="m-128 48h-32v-5h32z"/><path d="m248 240h8-32z"/><path d="m-88 240h88-208 88z"/><path d="m-120-496h-88z"/><path d="m-208-496-32 32z"/><path d="m224 240h-24-144-56 64 136z"/><path d="m-240-368v-8-88 96 128z"/><path d="m-120-496h32 88-88-120z"/><path d="m144-496h48-128z"/><path d="m368-496h8 88-120-88z"/><path d="m496-224v24 56 80 56 8-8-48-88-56z"/><path d="m256-496v32z"/><path d="m240-416h8-13z"/><path d="m256-464h-8z"/><path d="m248-464v48z"/><path d="m196-368v-16z"/><path d="m252-384v16z"/><path d="m200-384h-4 4 26.1818-13.1818-5z"/><path d="m64-496v32z"/><path d="m16-416h5 13.1818-26.1818z"/><path d="m56-416h-13 5z"/><path d="m56-420v-44 48z"/><path d="m64-464h-8z"/><path d="m8-416v-48z"/><path d="m60-384v16z"/><path d="m4-368v-16z"/><path d="m-208-496-32 32z"/><path d="m464-200h-48z"/><path d="m384-252v4 26.1818-13.1818-5z"/><path d="m384-200v-8-5z"/><path d="m416-200v-13 5z"/><path d="m464-248v48z"/><path d="m368-252h16z"/><path d="m368-368v116z"/><path d="m368-196v136z"/><path d="m368 80v-84 84 32z"/><path d="m464 240 32-32z"/><path d="m384-4h-16z"/><path d="m368-60h16z"/><path d="m384-196h-16z"/><path d="m384-196v-4z"/><path d="m464-56v48z"/><path d="m416-8v-13 5z"/><path d="m416-56h48z"/><path d="m420-8h44-44-4z"/><path d="m368 112h-112-4z"/><path d="m252 112v16z"/><path d="m200 160h13-5z"/><path d="m252 128h-4-26.1818 13.1818 5z"/><path d="m200 128h8 5z"/><path d="m248 208h-48z"/><path d="m248 160v48z"/><path d="m-112 64h-16z"/><path d="m-208-264v-48z"/><path d="m-208 56v-48z"/><path d="m-112-256h-16z"/><path d="m-128-312h16z"/><path d="m-208-312h48z"/><path d="m-160-312v26.1818-13.1818-5z"/><path d="m-128-256v-21 5z"/><path d="m-160-264h-48z"/><path d="m-128 8h16z"/><path d="m-208 8h48z"/><path d="m-112-216v224-40z"/><path d="m-160 8v26.1818-13.1818-5z"/><path d="m-128 64v-21 5z"/><path d="m-160 56h-48z"/><path d="m-88 112h92-92-24z"/><path d="m196 112h-136z"/><path d="m-112 112v-48z"/><path d="m4 128v-16z"/><path d="m60 112v16z"/><path d="m196 128v-16z"/><path d="m196 128h4z"/><path d="m56 208h-48z"/><path d="m4 128h12z"/><path d="m16 128h5z"/><path d="m60 128h-4-26.1818 13.1818 5z"/><path d="m56 160v4 44z"/><path d="m8 208v-48z"/><path d="m-160 12.7123v-4.7123 8z"/><path d="m-160 12.7123v3.2877 5z"/><path d="m204.7123-384h3.2877 5z"/><path d="m204.7123-416h3.2877-8z"/><path d="m-128 12.7123v3.2877-8z"/><path d="m243.2877 128h8.7123-12z"/><path d="m243.2877 128h-3.2877-5z"/><path d="m51.2877 128h8.7123-12z"/><path d="m51.2877 128h-3.2877-5z"/><path d="m243.2877 160h-3.2877 8z"/><path d="m51.2877 160h-3.2877 8z"/><path d="m-160-307.2877v3.2877 5z"/><path d="m-160-307.2877v-4.7123 8z"/><path d="m-128-307.2877v3.2877-8z"/><path d="m384-51.2877v-8.7123 12z"/><path d="m384-51.2877v3.2877 5z"/><path d="m384-243.2877v3.2877 5z"/><path d="m384-243.2877v-8.7123 12z"/><path d="m416-243.2877v3.2877-8z"/><path d="m416-51.2877v3.2877-8z"/><path d="m16-384h5 11z"/><path d="m235-384h5 12-30.1818z"/><path d="m213-416h-8.2877-4.7123 6.4 17.6z"/><path d="m213-384v-32h11v32z"/><path d="m21-384v-32h11v32z"/><path d="m-128 21v-8.2877-4.7123 24z"/><path d="m-128-299v-8.2877-4.7123 24z"/><path d="m416-235v-8.2877-4.7123 6.4 17.6z"/><path d="m416-213h-32v-11h32z"/><path d="m416-43v-8.2877-4.7123 6.4 17.6z"/><path d="m416-21h-32v-11h32z"/><path d="m235 160h8.2877 4.7123-6.4-17.6z"/><path d="m213 160v-32h11v32z"/><path d="m43 160h8.2877 4.7123-6.4-17.6z"/><path d="m21 160v-32h11v32z"/><path d="m-160-277v5 8-18.9091z"/><path d="m-128-277h-32v-11h32z"/><path d="m-160 43v5 8-18.9091z"/><path d="m-128 43h-32v-11h32z"/><path d="m224-416h-17.6 22.6909 5.9091z"/><path d="m224-384v-32h11v32z"/><path d="m32-384v-32h11v32z"/><path d="m-128 32v-24 21.8182 13.1818z"/><path d="m-128-288v-24 21.8182 13.1818z"/><path d="m416-224v-17.6 22.6909 5.9091z"/><path d="m416-224h-32v-11h32z"/><path d="m416-32v-17.6 22.6909 5.9091z"/><path d="m416-32h-32v-11h32z"/><path d="m224 160h17.6-22.6909-5.9091z"/><path d="m224 160v-32h11v32z"/><path d="m32 160h17.6-22.6909-5.9091z"/><path d="m32 160v-32h11v32z"/><path d="m-160-288v11-5.9091-22.6909z"/><path d="m-128-288h-32v-11h32z"/><path d="m-160 32v11-5.9091-22.6909z"/><path d="m-128 32h-32v-11h32z"/><path d="m200-384h4.7123 8.2877 11z"/><path d="m200-384h-4z"/><path d="m16-416h16-11z"/><path d="m16-384h16 11-13.1818z"/><path d="m-240-224v64 160z"/><path d="m248 208h-48z"/><path d="m56 208h-48z"/><path d="m464-248v48z"/><path d="m464-56v48z"/><path d="m496-144v32 48z"/><path d="m496-256h-32v8 48 8h32z"/><path d="m496-64h-32v8 48 8h32z"/><path d="m248-416h-8-5-5.9091z"/><path d="m248-464v48z"/><path d="m248-464h8z"/><path d="m16-416h-8z"/><path d="m16-416h21.0909 5.9091-11z"/><path d="m56-464v44 4z"/><path d="m56-464h8z"/><path d="m8-416v-48z"/><path d="m416-56h48z"/><path d="m464-200h-48z"/><path d="m416-218.9091v-22.6909-6.4 48z"/><path d="m464-8h-44-4z"/><path d="m416-26.9091v-22.6909-6.4 8 40z"/><path d="m-80-144v32 192z"/><path d="m336 80h-192z"/><path d="m336-336v192z"/><path d="m144-336h-224z"/><path d="m-80-144v-192h224v224h-224z"/><path d="m144-112v192h-224v-192z"/><path d="m144-336h192v192 32h-192z"/><path d="m336-112v192h-192v-192z"/><path d="m248 160v48z"/><path d="m218.9091 160h22.6909 6.4-48z"/><path d="m56 160v48z"/><path d="m8 208v-48z"/><path d="m26.9091 160h22.6909 6.4-40-8z"/><path d="m-208-264v8z"/><path d="m-208-264v-48z"/><path d="m-160-312v4.7123 8.2877 11-17.6z"/><path d="m-160-305.6v22.6909 18.9091-48z"/><path d="m-208-312h48z"/><path d="m-160-264h-48z"/><path d="m-208-264v-48-8h-32v64h32z"/><path d="m-160 8v4.7123 8.2877 11-17.6z"/><path d="m-160 14.4v22.6909 18.9091-8-40z"/><path d="m-208 56v-48-8h-32v64h32z"/><path d="m-208 56v8z"/><path d="m-208 56v-48z"/><path d="m-160 56h-48z"/><path d="m-208 8h48z"/><path d="m224 240h32v-32h-8-48-8v32z"/><path d="m64 240v-32h-8-48-8v32z"/><path d="m192 240h-48-32-48z"/><path d="m224 240h-32-128-64 56 144z"/><path d="m-240-464v88-24z"/><path d="m200-384h24 11-13.1818z"/><path d="m384-60v8.7123 8.2877 11z"/><path d="m384-252v8.7123 8.2877 11z"/><path d="m60 128h-8.7123-8.2877-11z"/><path d="m252 128h-8.7123-8.2877-11z"/><path d="m240-416h8-18.9091-22.6909-6.4z"/><path d="m240-416h-40v-4h8 32z"/><path d="m16-416h40-18.9091-21.0909-8z"/><path d="m16 160h40v4h-8-32z"/><path d="m240-420v-32h8v36h-8z"/><path d="m240-420h-32z"/><path d="m56-420v-32-4-8 48z"/><path d="m48-420h-32z"/><path d="m48-420h8v4h-40v-4z"/><path d="m420-200h32 4 8-48z"/><path d="m420-208v-32z"/><path d="m420-240v32 8h-4v-48h4z"/><path d="m420-8h32 4 8-48z"/><path d="m420-16v-32z"/><path d="m420-16v8h-4v-40h4z"/><path d="m200 164v32 4 8-48z"/><path d="m208 164h32z"/><path d="m240 164h-32-8v-4h48v4z"/><path d="m16 164h32z"/><path d="m16 164v32 4h-8v-40h8z"/><path d="m-164-312h-32-4-8 48z"/><path d="m-164-272v-32-8h4v48h-4z"/><path d="m-164-304v32z"/><path d="m-164 8h-32-4-8 48z"/><path d="m-164 48h-32 4z"/><path d="m-164 16v32z"/><path d="m-164 16v-8h4v40h-4z"/><path d="m240-420v-28-4z"/><path d="m48-420v-28-4z"/><path d="m384-34.1818v13.1818 5 12z"/><path d="m384-60v28 11-13.1818z"/><path d="m384-226.1818v13.1818 5 8 4z"/><path d="m384-252v28 11-13.1818z"/><path d="m420-208h28 4z"/><path d="m420-16h28 4z"/><path d="m252 128h-28-11 13.1818z"/><path d="m226.1818 128h-13.1818-5-8-4z"/><path d="m60 128h-28-11 13.1818z"/><path d="m34.1818 128h-13.1818-5-12z"/><path d="m-128 29.8182v-21.8182h16v56h-16z"/><path d="m-128-290.1818v-21.8182h16v56h-16z"/><path d="m344-144v-52h24v136h-24z"/><path d="m344-252v-116h24v116z"/><path d="m336-336v-8-24h8v116 56 52h-8z"/><path d="m344-144v84 56 84h-8v-224z"/><path d="m252-368h84v24h-84z"/><path d="m196-368v24h-52-84v-24z"/><path d="m144-336h-224v-8h84 56 84z"/><path d="m196-344h56 84v8h-192v-8z"/><path d="m-80-344v-24h84v24z"/><path d="m-88-256v-56-56h8v24 8 192h-8z"/><path d="m-80-144v224h-8v-16-56-40-112z"/><path d="m-80 80v8 24h-8v-32z"/><path d="m-112-312v-56h24v56z"/><path d="m-112-216v-40h24v112 112h-24z"/><path d="m-88-32v40h-24v-40z"/><path d="m344 80v-84h24v84z"/><path d="m144 88h-84-56-84v-8h224z"/><path d="m336 80v8h-84-56-52v-8z"/><path d="m336 112h-84v-24h84z"/><path d="m336 112v-24-8h8 24v32z"/><path d="m144 88h52v24h-136v-24z"/><path d="m4 112h-84v-24h84z"/><path d="m-88 80v32h-24v-48h24z"/><path d="m60-368v24-8-16-16z"/><path d="m60 112v16-16-16-8z"/><path d="m368-60h16-16-16-8z"/><path d="m196-368v-16 16 16 8z"/><path d="m368-196h-24 8 16 16z"/><path d="m252-368v24-8-16-16z"/><path d="m368-252h16-16-16-8z"/><path d="m344-252v56z"/><path d="m196-344h56z"/><path d="m200-384h21.8182 30.1818v16h-56v-16z"/><path d="m196 112v-24 8 16 16z"/><path d="m368-4h-24 8 16 16z"/><path d="m344-60v56z"/><path d="m252 112v16-16-16-8z"/><path d="m252 88h-56z"/><path d="m-112-256h-16 16 16 8z"/><path d="m4-368v-16 16 16 8z"/><path d="m4-344h56z"/><path d="m16-384h13.8182 30.1818v16h-56v-16z"/><path d="m-88-256v-56z"/><path d="m-112-312h24-8-16-16z"/><path d="m-112 8h24-8-16-16z"/><path d="m4 112v-24 8 16 16z"/><path d="m60 88h-56z"/><path d="m-88 64v-56z"/><path d="m-112 64h-16 16 16 8z"/><path d="m368-368v116z"/><path d="m368-196v136z"/><path d="m368 80v-84 84 32z"/><path d="m368-60h16z"/><path d="m384-196h-16z"/><path d="m368-252h16z"/><path d="m384-4h-16z"/><path d="m-88 112h8 84-92-24z"/><path d="m196 112h-136z"/><path d="m336 112h32-116z"/><path d="m60-384v16z"/><path d="m196-368v-16z"/><path d="m252-384v16z"/><path d="m4-368v-16z"/><path d="m-80-336v192z"/><path d="m144 80h-224z"/><path d="m336-144v224-192z"/><path d="m336-336h-192z"/><path d="m-112-256h-16z"/><path d="m-128-312h16z"/><path d="m-112-368v56z"/><path d="m-128 8h16z"/><path d="m-112-216v184 40z"/><path d="m-112 64h-16z"/><path d="m-112 64v48z"/><path d="m60 112v16z"/><path d="m196 128v-16z"/><path d="m252 112v16z"/><path d="m4 128v-16z"/><path d="m208 164v28 4z"/><path d="m16 164v28 4z"/><path d="m-164-304h-28-4z"/><path d="m344-252h8v56h-8z"/><path d="m344-60h8v56h-8z"/><path d="m252 88v8h-56v-8z"/><path d="m60 88v8h-56v-8z"/><path d="m352-252h16v56h-16z"/><path d="m368-252h16v25.8182 30.1818h-16z"/><path d="m252-368v16h-56v-16z"/><path d="m252-352v8h-56v-8z"/><path d="m352-60h16v56h-16z"/><path d="m368-60h16v25.8182 30.1818h-16z"/><path d="m252 96v16h-56v-16z"/><path d="m252 112v16h-25.8182-30.1818v-16z"/><path d="m60-368v16h-56v-16z"/><path d="m60-352v8h-56v-8z"/><path d="m-112-312h16v56h-16z"/><path d="m-96-312h8v56h-8z"/><path d="m60 96v16h-56v-16z"/><path d="m60 112v16h-25.8182-30.1818v-16z"/><path d="m-112 8h16v56h-16z"/><path d="m-96 8h8v56h-8z"/><path d="m248-452v-4-8 48z"/><path d="m208-452v4 28z"/><path d="m240-448h-32v-4h32z"/><path d="m208-448h32v28h-32z"/><path d="m16-452v4 28z"/><path d="m48-448h-32v-4h32z"/><path d="m48-452h8v32h-8z"/><path d="m16-448h32v28h-32z"/><path d="m448-208v-32h4v32z"/><path d="m452-208v-32-8h4v48h-4z"/><path d="m452-240h-4-28z"/><path d="m452-248v8h-32v-8z"/><path d="m448-240v32h-28v-32z"/><path d="m452-208v8h-32v-8z"/><path d="m452-48h-4-28z"/><path d="m448-16v-32h4v32z"/><path d="m448-48v32h-28v-32z"/><path d="m452-16v8h-32v-8z"/><path d="m240 196v-4-28z"/><path d="m240 196h-32v-4h32z"/><path d="m240 192h-32v-28h32z"/><path d="m208 196h-8v-32h8z"/><path d="m48 196h-32v-4h32z"/><path d="m16 196h32 8v4h-40z"/><path d="m48 192h-32v-28h32z"/><path d="m48 196v-4-28z"/><path d="m56 196h-8v-32h8z"/><path d="m-192-272v-32h28v32z"/><path d="m-196-304v-8h32v8z"/><path d="m-196-272h4 28z"/><path d="m-196-272v-32h4v32z"/><path d="m-192 16h28v32h-28z"/><path d="m-196 48v-32h4v32z"/><path d="m-196 16h32-28z"/><path d="m-196 8h32v8h-32z"/><path d="m-196 56v-8h32 4v8z"/><path d="m256 208h-8z"/><path d="m200 208h-8z"/><path d="m8 208h48 8-64z"/><path d="m64 208h-8z"/><path d="m8 208h-8z"/><path d="m464-200v8z"/><path d="m464-256v8z"/><path d="m464-64v8z"/><path d="m464-8v-48-8 64z"/><path d="m464-8v8z"/><path d="m464-192h32z"/><path d="m464 0h32z"/><path d="m64-464v-32z"/><path d="m256-464v-32z"/><path d="m248-464v8h-40-8v-8z"/><path d="m200-464v8 36 4z"/><path d="m200-456h8v4 32h-8z"/><path d="m248-456v4h-8-32v-4z"/><path d="m192-464h8z"/><path d="m56-464v8h-40-8v-8z"/><path d="m56-456v4h-8-32v-4z"/><path d="m0-464h8z"/><path d="m8-464v8 40z"/><path d="m8-456h8v4 32 4h-8z"/><path d="m464-56h-8-40z"/><path d="m464-248h-8-4-32-4z"/><path d="m456-248h8v48h-8z"/><path d="m456-48v-8h8v48h-8z"/><path d="m456-56v8h-4-32-4v-8z"/><path d="m456-8h-4v-8-32h4z"/><path d="m248 208v-8-36-4z"/><path d="m240 200h8v8h-48v-8z"/><path d="m248 200h-8v-4-32h8z"/><path d="m200 200v-4h8 32v4z"/><path d="m56 208v-8-4-32-4z"/><path d="m8 200v8-48z"/><path d="m16 200h40v8h-48v-8z"/><path d="m-208 0h-32z"/><path d="m-208-320h-32z"/><path d="m-208-320v8z"/><path d="m-208-312h8v40 8h-8z"/><path d="m-208-264h8 36 4z"/><path d="m-200-264v-8h4 32v8z"/><path d="m-200-312h4v8 32h-4z"/><path d="m-208 8h8v48h-8z"/><path d="m-208 56h8 4 36z"/><path d="m-208 0v8z"/><path d="m-200 8h4v8 32 8h-4z"/><path d="m256 240v-8-24z"/><path d="m256 240v-8z"/><path d="m0 208v24 8z"/><path d="m64 240v-8-24z"/><path d="m64 240v-8z"/><path d="m192 208v24 8z"/><path d="m464 240 32-32 32 32-32 32z"/><path d="m496 208v-48-32-8z"/><path d="m464-496h-88z"/><path d="m-240-464v64 80z"/><path d="m-240-256v32z"/><path d="m-240 208v-144 48 8z"/><path d="m192 208h8 48 8z"/><path d="m496-144v-48h32v48z"/><path d="m144-528h48v32h-48z"/><path d="m64-528h48v32h-48z"/><path d="m496-64v-48h32v48z"/><path d="m528-192h-32z"/><path d="m496-464 32-32v240h-32z"/><path d="m464-64h32v64h-32z"/><path d="m496 0h32v208h-32z"/><path d="m112-528h-48z"/><path d="m-240-320h32z"/><path d="m-240 0h32z"/><path d="m464-192v-8-48-8z"/><path d="m496-64h-32z"/><path d="m496-256h-32z"/><path d="m496-464v208-112-8z"/><path d="m496-192v48z"/><path d="m464-496h-88-8-112z"/><path d="m192-496v32z"/><path d="m256-464h-8-48-8z"/><path d="m112-496h32 48-48-80z"/><path d="m0-496v32z"/><path d="m64-464h-8-48-8z"/><path d="m0-496h-88-32-88z"/><path d="m-240-256h32z"/><path d="m-208-320v8 48 8z"/><path d="m-240 64h32z"/><path d="m-208 0v8 48 8z"/><path d="m256 208v24 8 32-32z"/><path d="m464 240h-208 120z"/><path d="m464 240 32 32h-240v-32z"/><path d="m0 240v-8z"/><path d="m0 240v-8-24 32 32z"/><path d="m64 208v24 8 32-32z"/><path d="m192 272v-32z"/><path d="m192 240v-8-24 32 32z"/><path d="m192 240v-8z"/><path d="m144 240h48v32h-48z"/><path d="m64 240h48v32h-48z"/><path d="m64 208v32h-64v-32z"/><path d="m0 240v32h-240l32-32z"/><path d="m-240-224v224h-32v-40-32-40-32-40-32-8z"/><path d="m-240-464v64z"/><path d="m-240 208v-88z"/><path d="m-208 240h88z"/><path d="m-208 240-32-32z"/><path d="m528-64h-32z"/><path d="m528-64v-48z"/><path d="m496-112v-32h32v32z"/><path d="m496-144h32z"/><path d="m528-112h-32z"/><path d="m496-112v-32z"/><path d="m64-528v32z"/><path d="m144-496h-32v-32h32z"/><path d="m112-496v-32z"/><path d="m144-528v32z"/><path d="m144-496h-32z"/><path d="m64 272v-32z"/><path d="m64 272h48z"/><path d="m144 272h-32v-32h32z"/><path d="m144 240v32z"/><path d="m112 272v-32z"/><path d="m112 240h32z"/><path d="m-304-184v40z"/><path d="m-304-112v40z"/><path d="m-304-40v40z"/><path d="m496-528 32 32-32 32-32-32z"/><path d="m528-496-32-32z"/><path d="m-272 240 32-32 32 32-32 32z"/><path d="m496 272 32-32z"/><path d="m-240-528 32 32-32 32-32-32z"/><path d="m192-496v-32z"/><path d="m192-496v32-32-32z"/><path d="m192-528v32z"/><path d="m528-192h-32-32 32z"/><path d="m496-256h32z"/><path d="m496-256h-32 32 32z"/><path d="m256-528v32z"/><path d="m256-528v32 32-32z"/><path d="m528-256v-240z"/><path d="m496-528h-240z"/><path d="m496-528-32 32h-208v-32z"/><path d="m256-496h-64z"/><path d="m256-496v32h-64v-32z"/><path d="m496-192v-64z"/><path d="m496-192h-32v-64h32z"/><path d="m528 0h-32z"/><path d="m528 0h-32-32 32z"/><path d="m496-64h32z"/><path d="m528-64h-32-32 32z"/><path d="m496 0v-64z"/><path d="m528 208v-208z"/><path d="m-240-256h32z"/><path d="m0-496v32-32-32z"/><path d="m64-528v32 32-32z"/><path d="m64-496v32h-64v-32z"/><path d="m0-528v32h-208l-32-32z"/><path d="m-240-320h32v64h-32z"/><path d="m-240 64h32z"/><path d="m-240 0h32v64h-32z"/><path d="m256 240v32z"/><path d="m528 240v-32z"/><path d="m256 272h240z"/><path d="m528 208v32l-32-32z"/><path d="m192 240h64z"/><path d="m192 240v-32h64v32z"/><path d="m-240-256h-32z"/><path d="m-272-320h32z"/><path d="m-272-496 32 32v144h-32z"/><path d="m-272 0h32z"/><path d="m-304 0v-40h32v40z"/><path d="m-304-72v-40h32v40z"/><path d="m-304-216v-40h32v32 8z"/><path d="m-304-144v-40h32v40z"/><path d="m-272-256h32v32h-32z"/><path d="m-240 64h-32z"/><path d="m-272 64h32v144l-32 32z"/><path d="m-304-224v8 32 40 32 40 32 40z"/><path d="m-304-224v-32 40z"/><path d="m-272-112h-32v-32h32z"/><path d="m-272-40h-32v-32h32z"/><path d="m-272-184h-32v-32h32z"/><path d="m-304-144h32z"/><path d="m-272-184h-32z"/><path d="m-304-216h32z"/><path d="m-272-216v32z"/><path d="m-304-72h32z"/><path d="m-272-112h-32z"/><path d="m-272-144v32z"/><path d="m-272-40h-32z"/><path d="m-272-72v32z"/><path d="m-240-320v64z"/><path d="m-240 0v64z"/><path d="m528-192h-32z"/><path d="m528-64v-48-32z"/><path d="m528-144v-48z"/><path d="m192-528h-48z"/><path d="m144-528h-32-48z"/><path d="m192 272v-32z"/><path d="m144 272h48z"/><path d="m64 272h48 32z"/><path d="m-272 240 32 32z"/><path d="m-304 0v-224z"/><path d="m-304-256v32z"/><path d="m-240-528-32 32z"/><path d="m496-528 32 32z"/><path d="m528 240-32 32z"/><path d="m-240-256v-64z"/><path d="m-240 64v-64z"/><path d="m192-528v32z"/><path d="m496-192h32z"/><path d="m528-256h-32z"/><path d="m256-496v-32z"/><path d="m528-496v240z"/><path d="m256-528h240z"/><path d="m192-496h64z"/><path d="m496-256v64z"/><path d="m496 0h32z"/><path d="m528-64h-32z"/><path d="m528-192v48z"/><path d="m496-64v64z"/><path d="m528 0v208z"/><path d="m0-496v-32z"/><path d="m64-528v32z"/><path d="m64-528h80z"/><path d="m64-496h-64z"/><path d="m0-528h-240z"/><path d="m256 272v-32z"/><path d="m528 208v32z"/><path d="m496 272h-240z"/><path d="m0 272v-32z"/><path d="m64 240v32z"/><path d="m192 240v32z"/><path d="m256 240h-64z"/><path d="m192 272h-48z"/><path d="m0 240h64z"/><path d="m-240 272h240z"/><path d="m-240-256h-32-32z"/><path d="m-272-320h32z"/><path d="m-272-496v176z"/><path d="m-304 0h32 32z"/><path d="m-240 64h-32z"/><path d="m-272 64v176z"/><path d="m-240-320h-32z"/><path d="m-240 0h-64z"/><path d="m528-144v80z"/><path d="m528-144v-48 128z"/><path d="m144-528h48z"/><path d="m64 272v-32z"/><path d="m144 272h48-128z"/><path d="m144 272h-80z"/><path d="m-240 272-32-32z"/><path d="m-304-256v32z"/><path d="m-272-496 32-32z"/><path d="m528-496 32-32v64z"/><path d="m496 272 32 32h-48-16z"/><path d="m528 240 32-32v16 48z"/><path d="m-240-320v64z"/><path d="m-240 0v64z"/><path d="m528-192h-32 32 32z"/><path d="m528-496 32 32v128 80h-32z"/><path d="m496-528h-240v-32h208z"/><path d="m528-192h32v128h-32z"/><path d="m528 208v-208h32v208z"/><path d="m0-528v32z"/><path d="m64-496v-32z"/><path d="m64-528v32-32-32z"/><path d="m192-528h-48-80z"/><path d="m0-496h64z"/><path d="m-240-528h240z"/><path d="m528 240v-32h32z"/><path d="m496 272-32 32h-208v-32z"/><path d="m0 240v32z"/><path d="m0 272v-32 32 32z"/><path d="m192 272v-32 32 32z"/><path d="m192 272v32h-128v-32z"/><path d="m64 240h-64z"/><path d="m0 272h-240z"/><path d="m0 272v32h-48-160l-32-32z"/><path d="m-304-256h64z"/><path d="m-272-320h32-32-32z"/><path d="m-272-320v-176z"/><path d="m-272-496v176h-32v-144z"/><path d="m-240 0h-32-32z"/><path d="m-272 64h32z"/><path d="m-272 240v-176z"/><path d="m-240-528-32-32h64z"/><path d="m-304-256h-32z"/><path d="m-304-224v224h-32v-32-192z"/><path d="m-272 240-32 32v-64z"/><path d="m-48 272h-160-64v32h64 160z"/><path d="m0 304v-32h-48v32z"/><path d="m-272 272v-64-144h-32v144 64l32 32z"/><path d="m-272 208v64h64z"/><path d="m192 304v-32h-128v32z"/><path d="m480 272h-16-208v32h208 16z"/><path d="m528 304v-32h-48v32z"/><path d="m528 224v-16l-64 64h16 48z"/><path d="m560 208v-208h-32v208 16h32z"/><path d="m528 224v48 32l32-32v-48z"/><path d="m-272-240v-16h-32-32v32 192h64z"/><path d="m-336-32v32h32 32v-16-16z"/><path d="m-272-464v-64-32l-32 32v64 144h32z"/><path d="m-208-528h-64v64z"/><path d="m-48-560h-160-64v32h64 160z"/><path d="m0-528v-32h-48v32z"/><path d="m192-528v-32h-128v32z"/><path d="m560-192h-32v128h32z"/><path d="m528-464v-64h-48-16z"/><path d="m560-336v-128-64l-32-32v32 64 128z"/><path d="m528-256h32v-80h-32z"/><path d="m480-560h-16-208v32h208 16z"/><path d="m528-528v-32h-48v32z"/><path d="m256 272h208-144-64-16z"/><path d="m528-256v-80-128 144 64 16z"/><path d="m-272-16v16 64 144-16-64z"/><path d="m-272-240v208 16-80-64z"/><path d="m16-528h-16-48-160 144 64z"/><path d="m240-528h-48-128-48 208z"/><path d="m528 208-64 64z"/><path d="m480-560h48l-32 32-32-32z"/><path d="m560-528-32 32-32-32 32-32z"/><path d="m528 304-32-32 32-32 32 32z"/><path d="m192-560v32 32-32z"/><path d="m528-256h-32 32 32z"/><path d="m256-560v32 32-32z"/><path d="m240-528h16v32h-64v-32z"/><path d="m528-240v48h-32v-64h32z"/><path d="m560 0h-32-32 32z"/><path d="m560-64h-32-32 32z"/><path d="m528-16v16h-32v-64h32z"/><path d="m0-528v32-32-32z"/><path d="m192-560v32h-128v-32z"/><path d="m16-528h48v32h-64v-32z"/><path d="m-48-560h48v32h-240l32-32z"/><path d="m256 272v-32 32 32z"/><path d="m64 272v-32 32 32z"/><path d="m240 272h-48v-32h64v32z"/><path d="m16 272h-16v-32h64v32z"/><path d="m-272-256h32-64z"/><path d="m-272-320h32v64h-32z"/><path d="m-272 64h32-32-32z"/><path d="m-272 0h32v64h-32z"/><path d="m-304 64h32v176l-32-32z"/><path d="m-304-528 32 32-32 32z"/><path d="m-272-560 32 32-32 32-32-32z"/><path d="m-304 0h-32z"/><path d="m-336-256h32v32h-32z"/><path d="m-304 272 32-32 32 32-32 32z"/><path d="m-208 304h-64l32-32z"/><path d="m-240 304h176z"/><path d="m256 304h-32z"/><path d="m320 304h208 32z"/><path d="m-304-384v224z"/><path d="m-304-96v224z"/><path d="m-304 192v48z"/><path d="m224-560h-224z"/><path d="m-64-560h-208-32z"/><path d="m-304 240 32 32 32 32z"/><path d="m560-320v-240z"/><path d="m560-256v32z"/><path d="m560 64v240z"/><path d="m528-560v32h-64-144v-32z"/><path d="m528-240v-16h32v32 192h-32z"/><path d="m560-32v32h-32v-16-16z"/><path d="m528-528v64l-64-64z"/><path d="m528-320v-144-64-32h32v240z"/><path d="m224-528h-208-16v-32h224z"/><path d="m256-560v32h-16-16v-32z"/><path d="m-64-528h-144-64v-32h208z"/><path d="m-272-528h64l-64 64z"/><path d="m-304-560h32v32 64 16h-32z"/><path d="m-304-160v-224h32v144 80z"/><path d="m528 272v-64-144h32v240h-32z"/><path d="m528 208v64h-64z"/><path d="m320 272h144 64v32h-208z"/><path d="m224 304h-224v-32h16 208z"/><path d="m240 272h16v32h-32v-32z"/><path d="m-272 208 64 64h-64z"/><path d="m-304 128v-224h32v80 144z"/><path d="m-304 240v-48h32v16 64z"/><path d="m-272 272h64 144v32h-176z"/><path d="m0-528v-16-16z"/><path d="m256-560v16 16z"/><path d="m528-256h16 16z"/><path d="m528-320h16v16 32 16h-16z"/><path d="m-272-448h-16-16z"/><path d="m-272-160h-16-16z"/><path d="m256 272v16 16z"/><path d="m560 0h-16-16z"/><path d="m528 0h16v16 32 16h-16z"/><path d="m320 272v16h-16-32-16v-16z"/><path d="m-272 128h-16-16z"/><path d="m-64 272v16 16z"/><path d="m0 272v16h-16-32-16v-16z"/><path d="m16 272h-16-64-144 160 48z"/><path d="m240 272h-16-208 48 128z"/><path d="m528-16v16 64 144-208z"/><path d="m528-240v208 16-48-128z"/><path d="m-272-384v-64-16 144 64 16z"/><path d="m256-528h64 144-208-16z"/><path d="m-208-528-64 64z"/><path d="m528-464-64-64z"/><path d="m-272 208 64 64z"/><path d="m-64 304h-176z"/><path d="m0 304h224z"/><path d="m256 304h-32z"/><path d="m560 304h-32-208z"/><path d="m-304-560v112z"/><path d="m-304-160v-224z"/><path d="m-304 128v-224z"/><path d="m-304 240v-48z"/><path d="m560-560h-32-208z"/><path d="m0-560h224z"/><path d="m256-560h-32z"/><path d="m-304-560h32 208z"/><path d="m-240 304-32-32-32-32z"/><path d="m560-560v240z"/><path d="m560 0v-32-192z"/><path d="m560-256v32z"/><path d="m560 64v240z"/><path d="m-288-96h16-32z"/><path d="m544-320h-16 32z"/><path d="m320-544v-16 32z"/><path d="m304-544h-32z"/><path d="m272-544h32 16v16h-64v-16z"/><path d="m544-272v-32z"/><path d="m-288-384h16-32z"/><path d="m-64-544v16-32z"/><path d="m-16-544h-32z"/><path d="m-48-544h32 16v16h-64v-16z"/><path d="m-288-432v32z"/><path d="m-288-400v-32-16h16v64h-16z"/><path d="m-288-144v32z"/><path d="m-288-112v-32-16h16v64h-16z"/><path d="m0 288v-16 32z"/><path d="m544 64h16-32z"/><path d="m544 48v-32z"/><path d="m320 288v-16 32z"/><path d="m272 288h32z"/><path d="m-48 288h32z"/><path d="m-288 192h16-32z"/><path d="m-288 144v32z"/><path d="m-288 176v-32-16h16v64h-16z"/><path d="m272-544h-16z"/><path d="m544-304v-16z"/><path d="m-48-544h-16z"/><path d="m-288-112v16z"/><path d="m544 16v-16z"/><path d="m304 288h16z"/><path d="m-16 288h16z"/><path d="m-288-400v16z"/><path d="m-288 176v16z"/><path d="m-272-432h8.094-.094z"/><path d="m-272 144h8.0938-.0938z"/><path d="m-288-96h-16z"/><path d="m0-560v16z"/><path d="m256-544v-16z"/><path d="m544-320h16z"/><path d="m320-560v16z"/><path d="m320-544h-16z"/><path d="m272-544v24 8z"/><path d="m560-256h-16z"/><path d="m544-256v-16z"/><path d="m544-304h-24-8z"/><path d="m-288-384h-16z"/><path d="m-64-544v-16z"/><path d="m0-544h-16z"/><path d="m-48-544v24 8z"/><path d="m-48-544h-16v24h16z"/><path d="m-304-448h16z"/><path d="m-288-448v16z"/><path d="m-263.906-400v-32h-24.094v32z"/><path d="m-288-400h16z"/><path d="m-272-400h8 .094z"/><path d="m-264-400h-8 8 8z"/><path d="m-272-432h-16z"/><path d="m-264-432h.094v32h-.094z"/><path d="m-264-432v32h8v-32z"/><path d="m-304-160h16z"/><path d="m-288-160v16z"/><path d="m0 288v16z"/><path d="m256 304v-16z"/><path d="m560 64h-16z"/><path d="m544 0h16z"/><path d="m544 64v-16z"/><path d="m544 16h-24-8z"/><path d="m320 288v16z"/><path d="m256 288h16z"/><path d="m304 288v-24-8z"/><path d="m-304 128h16z"/><path d="m-64 304v-16z"/><path d="m-64 304v-16-24-24 32z"/><path d="m-64 288h16z"/><path d="m-16 288v-24-8z"/><path d="m-16 288h16v-24h-16z"/><path d="m-288 192h-16z"/><path d="m-288 128v16z"/><path d="m-288 144h16z"/><path d="m-264 176h-8 8 8z"/><path d="m-272 176h8 .0938z"/><path d="m-272 176h-16z"/><path d="m-264 144h.0938v32h-.0938z"/><path d="m-264 144v32h8v-32z"/><path d="m-263.9062 176v-32h-24.0938v32z"/><path d="m-272 144h8v-16h-24v16z"/><path d="m-272-432h8 24v-16h-48v16z"/><path d="m0-520v24-32-32 16z"/><path d="m256-520v-24-16 32 32z"/><path d="m304-512h-32v-8h32z"/><path d="m304-520h-32-16v24h64v-24z"/><path d="m320-520v-24h-16v24z"/><path d="m272-520v-24h-16v24z"/><path d="m304-512v-8-24z"/><path d="m272-512h32v-32h-32z"/><path d="m520-256h-24 32 32-16z"/><path d="m512-272v-32h8v32z"/><path d="m520-272v-32-16h-24v64h24z"/><path d="m520-304h24v-16h-24z"/><path d="m520-256h24v-16h-24z"/><path d="m512-272h8 24z"/><path d="m512-304v32h32v-32z"/><path d="m-64-520v-24-16 32 32z"/><path d="m-16-512h-32v-8h32z"/><path d="m-16-520h-32-16v24h64v-24z"/><path d="m-16-512v-8-24z"/><path d="m0-520v-24h-16v24z"/><path d="m-48-512h32v-32h-32z"/><path d="m-264-432v32h24v-32z"/><path d="m-264-400v-32h8v32z"/><path d="m-264-432h-8 8 8z"/><path d="m-264-96v-16h-24v16z"/><path d="m-264-144v32 16h24v-48z"/><path d="m-264-144h24v-16h-48v16z"/><path d="m-264-112v-32h8v32z"/><path d="m-264-112h8-32z"/><path d="m-256-144h-8-24z"/><path d="m-256-112v-32h-32v32z"/><path d="m256 264v-24 32 32-16z"/><path d="m520 0h24 16-32-32z"/><path d="m512 48h8 24z"/><path d="m512 48v-32h8v32z"/><path d="m520 16v-16h-24v48h24z"/><path d="m520 16h24v-16h-24z"/><path d="m512 16v32h32v-32z"/><path d="m520 48h-24v16h48v-16z"/><path d="m304 264h-32v-8h32z"/><path d="m304 264v24h16v-24z"/><path d="m272 256v8 24z"/><path d="m304 256h-32v32h32z"/><path d="m256 264v24h16v-24z"/><path d="m-264 128h24-32-32 16z"/><path d="m-16 264h-32v-8h32z"/><path d="m-16 256h-32v32h32z"/><path d="m-48 256v8 24z"/><path d="m-64 264v24h16v-24z"/><path d="m-264 176v-32h8v32z"/><path d="m-264 144v32 16h24v-64h-24z"/><path d="m-264 144h-8 8 8z"/><path d="m-264 192v-16h-8-16v16z"/><path d="m-64 272h-144-64l32 32h176z"/><path d="m-272 208v-16h-32v48l32 32z"/><path d="m-272 128v-224h-32v224z"/><path d="m-272 208v64h64z"/><path d="m224 272h-224v32h224z"/><path d="m256 304v-32h-32v32z"/><path d="m528 272h-64-144v32h208z"/><path d="m528 208-64 64h64z"/><path d="m560 64h-32v144 64 32h32z"/><path d="m-272-160v-224h-32v224z"/><path d="m-272-560v32h64 144v-32z"/><path d="m-272-464v-64-32h-32v112h32z"/><path d="m-208-528h-64v64z"/><path d="m224-560h-224v32h224z"/><path d="m256-528v-32h-32v32z"/><path d="m560-224v-32h-32v32 192h32z"/><path d="m528-32v32h32v-32z"/><path d="m464-528h64v-32h-208v32z"/><path d="m528-560v32 64 144h32v-240z"/><path d="m528-464v-64h-64z"/><path d="m224 304h-224z"/><path d="m-304-560v112z"/><path d="m528-560h32-240z"/><path d="m256-560h-32z"/><path d="m560-224v192 32z"/><path d="m-272-96h32-24-24-16z"/><path d="m560-320h-32-32 24 24z"/><path d="m320-528v-32 16 24 24z"/><path d="m-272-384h32-48-16z"/><path d="m-240-448h-32-32 16z"/><path d="m-240-384v-16h-24-8-16v16z"/><path d="m-240-160h-32-32 16z"/><path d="m0 304v-32-32 24 24z"/><path d="m528 64h32-16-48z"/><path d="m320 304v-32-32 24 24z"/><path d="m256 240v24h16 32 16v-24z"/><path d="m-64 240v24h16 32 16v-24z"/><path d="m-272 192h32-24-24-16z"/></g><g id="b"><path d="m-496-48v64 160-128z"/><path d="m-496-272v64 160-128z"/><path d="m704 429.7139 24-13.7139 56-32-112 64z"/><path d="m-64 240v32z"/><path d="m-64 272v-32 64z"/><path d="m-64-528v32z"/><path d="m-64-672v-32 64z"/><path d="m672-672-16-16 32 32z"/><path d="m672 0h32-64z"/><path d="m528 0h-32z"/><path d="m256-528v32z"/><path d="m256-672v-32 64z"/><path d="m320-528v32-64z"/><path d="m320-496v-32z"/><path d="m560-672h112-32-80-32z"/><path d="m560-672h-32-192v-16l42.353-5.6471 181.647-24.2195z"/><path d="m576-720 80 32 16 16h-112v-45.8666z"/><path d="m336-704h32l10.353 10.3529-42.353 5.6471z"/><path d="m320-704h16v16 16h-16z"/><path d="m336-736 32 32h-32-16v-26.6667z"/><path d="m704-48 18 48h-18z"/><path d="m672-224v-32h32v40l-16 24-16 24z"/><path d="m672-168 16-24 16 144v48h-32z"/><path d="m704-256v-64-128l16 96v32 64 16l-16 24z"/><path d="m704-616 16 40-16 128z"/><path d="m672-544v-128l16 16 16 40v168h-32z"/><path d="m704-448v128h-32v-128z"/><path d="m672-320h32-64z"/><path d="m720-576-16 128z"/><path d="m720-352v32z"/><path d="m672-544v96 128h-32v-224z"/><path d="m672-224v56 168h-32v-224z"/><path d="m704-48 12 32 6 16z"/><path d="m688-192 16 144z"/><path d="m704-216 16-24-32 48z"/><path d="m528-320h-32z"/><path d="m528-672h32v32z"/><path d="m464-528h64v64z"/><path d="m528-464v-64l32-32v240h-32z"/><path d="m528-528h-64-144v-32h240z"/><path d="m528-464v144z"/><path d="m320-528h144z"/><path d="m464-528 64 64z"/><path d="m528-256h-32 64z"/><path d="m496-256h32z"/><path d="m496-320v64z"/><path d="m528-224v224-32z"/><path d="m528-256v32z"/><path d="m528-256h32v32h-32z"/><path d="m320-704h-64v-5.3333l64-21.3334z"/><path d="m256-496h64z"/><path d="m256-709.3333v5.3333 32h-32-35.5556l3.5556-16z"/><path d="m192-688-3.5556 16h-60.4444v-16z"/><path d="m80-736 32 32h-96v-16z"/><path d="m16-720v16h-16-64v-6z"/><path d="m16-704h96l16 16v16h-128v-32z"/><path d="m256-672v32h-32v-32z"/><path d="m112-704-32-32 48 48z"/><path d="m256-709.3333-64 21.3333 64-21.3334z"/><path d="m0-496v-32z"/><path d="m0-528v32-64z"/><path d="m0-528h224z"/><path d="m224-528h32z"/><path d="m224-528h-224v-32h224z"/><path d="m-64-496h64z"/><path d="m722 0 30 80v64l-30 80h-18v-160-64z"/><path d="m722 224-18 48v-48z"/><path d="m784 384-56 32h-24v-112z"/><path d="m728 416-24 13.7139v-13.7139z"/><path d="m722 224 30-80-48 128z"/><path d="m496 64h32z"/><path d="m528 64h-32 64z"/><path d="m496 0v64-16z"/><path d="m320 272v-32z"/><path d="m672 192v-128h32v160 48 16h-32z"/><path d="m704 288v16 112h-32v-128z"/><path d="m672 192v96 128h-32v-32-192z"/><path d="m528 208v64h-64z"/><path d="m320 272h144 64l32 32h-240z"/><path d="m528 208v-144h32v240l-32-32z"/><path d="m528 64v144z"/><path d="m464 272h-144z"/><path d="m528 208-64 64z"/><path d="m528 416v32h-96-48-64v-32z"/><path d="m384 448-64 14.2222v-14.2222z"/><path d="m528 448v8l-32 8-64-16z"/><path d="m624 416v16l-96 24v-8-32z"/><path d="m704 429.7139-32 18.2861-48-16v-16h48 32z"/><path d="m384 448-64 14.2222z"/><path d="m528 456 96-24-128 32z"/><path d="m256 240v32z"/><path d="m256 272v-32 64z"/><path d="m320 240h-64z"/><path d="m0 272v-32z"/><path d="m224 272h-224z"/><path d="m256 272h-32z"/><path d="m256 272v32h-32v-32z"/><path d="m0 240h-64z"/><path d="m224 448h-176-48v-32h224z"/><path d="m256 416v32h-32v-32z"/><path d="m224 416h-224v-32h224z"/><path d="m-64 448h32v16l-32 12z"/><path d="m0 448h48v16h-80v-16z"/><path d="m272 472.8889-32 7.1111h-80l-112-16v-16h176 32 16z"/><path d="m320 462.2222-48 10.6667v-24.8889h48z"/><path d="m48 464h-80z"/><path d="m-32 464-32 12z"/><path d="m-64-704v32h-96v-16l48-16 48-6z"/><path d="m-160-688v16h-48-32v-32z"/><path d="m-240-704v32z"/><path d="m-64-710-48 6z"/><path d="m-336 208v-16h64v16 64z"/><path d="m-272 208 64 64h-64z"/><path d="m-336 128v-96h16 32 16v96z"/><path d="m-336 32v-32h16v32z"/><path d="m-272 0v32h-16v-32z"/><path d="m-288 0h-32-16v-96h64v96z"/><path d="m-336-160v-96h16 32v96z"/><path d="m-336-256v-32h16v32z"/><path d="m-496-272v-160h128v160 64h-128z"/><path d="m-368-208v160 64h-128v-64-160z"/><path d="m-368 16v160h-128v-160z"/><path d="m-336-384h48v96h-32-16z"/><path d="m-288-256v-32-96h16v224h-16z"/><path d="m-272-528h64l-64 64z"/><path d="m-272-528v64 16h-64v-16z"/><path d="m-272-448h32-48-48z"/><path d="m-336-464v16z"/><path d="m-368-432v160z"/><path d="m-288-160h16 32-48-48z"/><path d="m-272 128h32-48-48z"/><path d="m-240 192h-48v-64h48z"/><path d="m-368 176h-64-32-32z"/><path d="m-336 192v16z"/><path d="m-208 272h144v32h-176l-32-32z"/><path d="m-64 416h-144v-32h144z"/><path d="m-272-96h32z"/><path d="m-272-384h32z"/><path d="m-272-448v-16z"/><path d="m-240-448h-32z"/><path d="m-208-528h144z"/><path d="m-272-464 64-64z"/><path d="m-240-384v-64 16 32z"/><path d="m-240-160h-32z"/><path d="m-272-160v-224z"/><path d="m-240-96v-64 16z"/><path d="m-240 128h-32z"/><path d="m-272 128v-96-32-96z"/><path d="m-272 208v-16z"/><path d="m-272 192h32z"/><path d="m-240 192v-64z"/><path d="m-64 272h-144z"/><path d="m-208 272-64-64z"/><path d="m-208 416h144v32 28l-96 36-80-64v-32z"/><path d="m-160 512-80-64z"/><path d="m-288-288v32z"/><path d="m-320-256v-32z"/><path d="m-320-288h32z"/><path d="m-288-256h-32z"/><path d="m-288-256h-32v-32h32z"/><path d="m-288 0v32z"/><path d="m-320 32v-32z"/><path d="m-320 0h32z"/><path d="m-288 32h-32z"/><path d="m-288 32h-32v-32h32z"/><path d="m-64 448v-32-32z"/><path d="m-64 448v-64 16z"/><path d="m-64-496v-32-32z"/><path d="m-64-496v-64 16z"/><path d="m496 0h32 32z"/><path d="m256-496v-32-32z"/><path d="m320-704v64-16z"/><path d="m320-704v32 32z"/><path d="m560-256v32z"/><path d="m560-560v144 96z"/><path d="m640-544v224-96z"/><path d="m640-640v-32h32v128h-32z"/><path d="m560-640v-32h80v32z"/><path d="m704-256h-32-32z"/><path d="m704-320v64z"/><path d="m640-224v224-32z"/><path d="m640-256h32v32h-32z"/><path d="m496-320h32 32z"/><path d="m320-640h240z"/><path d="m320-640v-32h16 192l32 32z"/><path d="m560-224v224h-32v-224z"/><path d="m256-704h64z"/><path d="m256-704h64v48h-64z"/><path d="m320-496h-64v-48h64z"/><path d="m256-640h-32z"/><path d="m224-640h-224v-32h128 60.4444 35.5556z"/><path d="m-64-704h64z"/><path d="m0-704v32 32z"/><path d="m0-704v64-16z"/><path d="m-64-704h64v48h-64z"/><path d="m224-560h-224z"/><path d="m256-560v32h-32v-32z"/><path d="m0-496h-64v-48h64z"/><path d="m704 0v64z"/><path d="m704 64h-64 16z"/><path d="m704 64h-32-32z"/><path d="m320 384v32 32z"/><path d="m320 240v64-16z"/><path d="m320 240v32 32z"/><path d="m560 416h80 32-48-96z"/><path d="m560 64v224 16z"/><path d="m640 160v32 192-96z"/><path d="m640 160v-96h32v128h-32z"/><path d="m640 416h-80v-32h80z"/><path d="m320 304h240z"/><path d="m560 416h-32l32-32z"/><path d="m560 384-32 32h-208v-32z"/><path d="m256 304h-32z"/><path d="m256 240h64v48h-64z"/><path d="m0 240v32 32z"/><path d="m0 240v64-16z"/><path d="m224 304h-224v-32h224z"/><path d="m-64 240h64v48h-64z"/><path d="m320 448h-48-16z"/><path d="m0 448h-32-32z"/><path d="m256 448v-32-32z"/><path d="m0 384v32 32z"/><path d="m224 384h-224z"/><path d="m256 384v32h-32v-32z"/><path d="m-208-640v-32z"/><path d="m-208-640v-32h48 96v32z"/><path d="m-64-560v32h-144-64l32-32z"/><path d="m-288 192h-48v-64h48z"/><path d="m-336-160h48v64h-48z"/><path d="m-432-432h-32v64 160h32z"/><path d="m-464-208v64 96 64h32v-224z"/><path d="m-464 16v160h32v-160z"/><path d="m-368-272v-160h-64v224h64z"/><path d="m-432-208v224h64v-64-160z"/><path d="m-432 16v160h64v-160z"/><path d="m-336-448h48v64h-48z"/><path d="m-336-96v224z"/><path d="m-336-320v160 64z"/><path d="m-288 192h48-32-64z"/><path d="m-368-48v64 160-160z"/><path d="m-368-272v64 160-160z"/><path d="m-288-96h48-32-64z"/><path d="m-288-384h48-32-16-48z"/><path d="m-288-448h48v64h-48z"/><path d="m-336-320v-64 96 32 96z"/><path d="m-288-160h48v64h-48z"/><path d="m-336-96v96 32 96z"/><path d="m-464-432h32 64-128z"/><path d="m-64 304h-176z"/><path d="m-240 304-32-32z"/><path d="m-64 304v-64 48z"/><path d="m-64-640v-64 48z"/><path d="m560 0h-16-48z"/><path d="m256-560v16 48z"/><path d="m320-560v64-48z"/><path d="m560-224v192 32z"/><path d="m560-560v-80h80v96 128h-80z"/><path d="m640-416v96h-80v-96z"/><path d="m640-640v96z"/><path d="m560-640h80z"/><path d="m640-256h16 48z"/><path d="m640-256v32z"/><path d="m560-224v-32h80v32 192h-80z"/><path d="m640-32v32h-80v-32z"/><path d="m560-320h-16-48z"/><path d="m560-560h-240z"/><path d="m320-640h240v80h-240z"/><path d="m224-640h-224z"/><path d="m0-560v64-48z"/><path d="m0-640h224v80h-224z"/><path d="m224-640h32v80h-32z"/><path d="m256-560h-32z"/><path d="m320 384v-24-32-24z"/><path d="m560 64h80v96 128h-80z"/><path d="m640 288v96h-80v-80-16z"/><path d="m640 64v96z"/><path d="m640 384h-80z"/><path d="m320 304h240v80h-240z"/><path d="m560 384h-240z"/><path d="m224 304h-224z"/><path d="m256 304v-64 48z"/><path d="m256 384v16 48z"/><path d="m256 384h-32z"/><path d="m0 304h224v80h-224z"/><path d="m224 304h32v80h-32z"/><path d="m-240-672h32z"/><path d="m-208 416h-32z"/><path d="m-208-592h144v32h-176z"/><path d="m-64-592h-144v-48h144z"/><path d="m-64-560h-176z"/><path d="m-208-640h144z"/><path d="m-240-560-32 32-64 64z"/><path d="m-272 272 32 32z"/><path d="m-336 208 64 64z"/><path d="m-208 384v-48h144v48z"/><path d="m-64 304v32h-144l-32-32z"/><path d="m-208 336v48z"/><path d="m-240 304 32 32z"/><path d="m-208 384v32z"/><path d="m-64 384h-144z"/><path d="m-336-384v64z"/><path d="m-336-96v224l-64-64v-104-32-24z"/><path d="m-64 328v32 24-48-32z"/><path d="m-64-584v24-32-48z"/><path d="m656 0h-16 64z"/><path d="m616 0h-32-24 80z"/><path d="m256-616v32 24-80z"/><path d="m256-656v16-64z"/><path d="m320-584v-56 80z"/><path d="m616-320h-32-24 80z"/><path d="m656-320h-16 64z"/><path d="m584-256h32 24-80z"/><path d="m640-256h-24v-16-32-16h24 16v64z"/><path d="m656-256v-64h48v64z"/><path d="m584-320h32v16h-32z"/><path d="m616-272v16h-32v-16z"/><path d="m584-320v16 32 16h-24v-64z"/><path d="m544-256h16-64z"/><path d="m560-256h-16v-64h16z"/><path d="m544-320v64h-48v-64z"/><path d="m320-560v16h-64v-16-24h16 32 16z"/><path d="m256-584v-32h16v32z"/><path d="m304-616v-24h16v56h-16z"/><path d="m272-616h-16v-24h48v24z"/><path d="m304-640h-48v-16h64v16z"/><path d="m-48-640h-16v-16h64v16z"/><path d="m0-584v-32-24 80z"/><path d="m-64-560v-24h16 32 16v24 16h-64z"/><path d="m-16-584v-32h16v32z"/><path d="m-64-640h16v24 32h-16z"/><path d="m0-640v24h-16-32v-24z"/><path d="m640 64h-80z"/><path d="m544 64h16-64z"/><path d="m616 48v-32-16h24 16v48z"/><path d="m584 0h32v16h-32z"/><path d="m584 0v16 32h-24v-48z"/><path d="m584 48h32 40v16h-16-80v-16z"/><path d="m560 48v16h-16v-64h16z"/><path d="m544 0v64h-48v-64z"/><path d="m656 48v-48h48v64h-48z"/><path d="m320 400v-16 64z"/><path d="m272 304h-16v-16h64v16z"/><path d="m-16 304h-48v-16h64v16z"/><path d="m256 360v24-80z"/><path d="m320 304v24h-16-32v-24z"/><path d="m304 360v-32h16v32z"/><path d="m256 304h16v24 32h-16z"/><path d="m320 384v16h-64v-16-24h16 32 16z"/><path d="m256 400h64v48h-64z"/><path d="m0 400v-16 64z"/><path d="m0 360v-56 80z"/><path d="m-16 328v-24h16v56h-16z"/><path d="m-48 328h-16v-24h48v24z"/><path d="m-64 360v-32h16v32z"/><path d="m0 384v16h-64v-16-24h16 32 16z"/><path d="m-64 400h64v48h-64z"/><path d="m616-304v32z"/><path d="m584-272v-32z"/><path d="m584-304h32z"/><path d="m616-272h-32z"/><path d="m616-272h-32v-32h32z"/><path d="m272-616h32z"/><path d="m304-584h-32z"/><path d="m272-584v-32z"/><path d="m304-616v32z"/><path d="m304-584h-32v-32h32z"/><path d="m-16-584h-32z"/><path d="m-16-616v32z"/><path d="m-48-616h32z"/><path d="m-48-584v-32z"/><path d="m-16-584h-32v-32h32z"/><path d="m616 16v32z"/><path d="m584 48v-32z"/><path d="m616 48h-32z"/><path d="m584 16h32z"/><path d="m616 48h-32v-32h32z"/><path d="m304 360h-32z"/><path d="m272 360v-32z"/><path d="m272 328h32z"/><path d="m304 328v32z"/><path d="m304 360h-32v-32h32z"/><path d="m-16 360h-32z"/><path d="m-16 328v32z"/><path d="m-48 328h32z"/><path d="m-48 360v-32z"/><path d="m-16 360h-32v-32h32z"/><path d="m-400-112v-32-40-32-104h64v224h-64z"/><path d="m-400-320 64-64v64z"/><path d="m-432-216v-104h32v104z"/><path d="m-432-144v-40h32v40z"/><path d="m-432-72v-40h32v16 24z"/><path d="m-432-40h32v104h-32z"/><path d="m-400-72v32z"/><path d="m-400-144v32z"/><path d="m-400-216v32z"/><path d="m-432-40v104z"/><path d="m-432-72v-40z"/><path d="m-432-144v-16-24z"/><path d="m-432-216v-104z"/><path d="m-432-160v16 32 40 32 104-64z"/><path d="m-400-112h-32z"/><path d="m-432-216h32z"/><path d="m-400-112h-32v-32h32z"/><path d="m-400-184h-32v-32h32z"/><path d="m-400-184h-32z"/><path d="m-432-144h32z"/><path d="m-400-40h-32z"/><path d="m-400-40h-32v-32h32z"/><path d="m-432-72h32z"/></g><g id="c"><path d="m-272 576h-16-208z"/><path d="m-496-624v-48 208z"/><path d="m-496-400v-32 160z"/><path d="m-240-832h-32z"/><path d="m-272-832h-224v-16h224z"/><path d="m-48-832h-16-16-80-80-32v-16h224z"/><path d="m176-832h-96-128v-16h224z"/><path d="m400-832h-64-32-48-80v-16h224z"/><path d="m624-832h-48-176v-16h224z"/><path d="m848-848v16h-16-176-32v-16z"/><path d="m832-656v-176h16v224h-16z"/><path d="m848-608v224h-16v-192-32z"/><path d="m848-384v224h-16v-80-112-32z"/><path d="m848-160v224h-16v-80-144z"/><path d="m848 64v224h-16v-16-128-64-16z"/><path d="m848 288v224h-16v-128-27.4285-68.5715z"/><path d="m848 512v64h-16v-64z"/><path d="m240 576h-80v-96h80z"/><path d="m-32 464h80l112 16v96h-224v-100z"/><path d="m320 462.2222 64-14.2222h48l32 8v110.8572l-16 9.1428h-64-144v-96z"/><path d="m464 456 32 8v84.5714l-32 18.2858z"/><path d="m784 384-80-80v-32h128v16 68.5715z"/><path d="m832 272h-128l48-128h80z"/><path d="m752 144v-64h80v64z"/><path d="m496 548.5714v-84.5714l128-32 48 16z"/><path d="m-48-832h128v96l-64 16-80 10v-122z"/><path d="m720-576-32-80h144v48 32z"/><path d="m304-725.3333-48 15.9999-64 21.3334h-64l-48-48v-96h96 80 48z"/><path d="m336-832v96l-32 10.6667v-106.6667z"/><path d="m656-688-80-32v-112h48 32z"/><path d="m688-656-32-32v-144h176v176z"/><path d="m576-720-197.6472 26.3528-42.3528-42.3528v-96h64 176z"/><path d="m832-384v32h-112l-16-96 16-128h112z"/><path d="m720-240v-16-64-32h112v112z"/><path d="m688-192 32-48h112v80 144h-116l-12-32z"/><path d="m832-16v80 16h-80l-30-80-6-16z"/><path d="m160 480h80z"/><path d="m656-688-80-32z"/><path d="m720-576-16-40-16-40z"/><path d="m304-725.3333 32-10.6667-16 5.3333-64 21.3334v-.0001z"/><path d="m576-720-16 2.1334-181.647 24.2195-.0002-.0001z"/><path d="m378.3528-693.6472.0002.0001-10.353-10.3529-32-32z"/><path d="m704-448 16 96z"/><path d="m720-320v64z"/><path d="m720-256v16z"/><path d="m192-688h-64z"/><path d="m16-720-80 10z"/><path d="m80-736-64 16z"/><path d="m722 0 30 80z"/><path d="m704 304v-16-16z"/><path d="m784 384-80-80z"/><path d="m752 144v-64z"/><path d="m624 432 48 16z"/><path d="m464 456-32-8 64 16z"/><path d="m384 448h48z"/><path d="m320 462.2222-80 17.7778 32-7.1111z"/><path d="m48 464 112 16z"/><path d="m-64-710-48 6 32-128h16z"/><path d="m-160-688-80-16v-128h80z"/><path d="m-112-704-48 16v-144h80z"/><path d="m-112-704-48 16z"/><path d="m-160-688-80-16z"/><path d="m-240 416h32z"/><path d="m-464-48v48 176-160z"/><path d="m-464-144v96z"/><path d="m-464 0v64 112z"/><path d="m-464 0v-48-96z"/><path d="m-160 576h-80v-128l80 64z"/><path d="m-64 576h-96v-64l96-36z"/><path d="m-240 448v-32z"/><path d="m-64 476-96 36z"/><path d="m608 576h-112v-27.4286l176-100.5714v128z"/><path d="m672 576v-128l112-64h48v128 64z"/><path d="m832 384h-48l48-27.4285z"/><path d="m464 566.8572 32-18.2858v27.4286h-48z"/><path d="m-512-848h16v16 160 48h-16z"/><path d="m-496-624v160 32 32h-16v-224z"/><path d="m-496-400v128 96h-16v-224z"/><path d="m-496-176v128 96h-16v-224z"/><path d="m-496 48v128 32 64h-16v-224z"/><path d="m-496 272v144 80h-16v-224z"/><path d="m-496 496v80h-16v-80z"/><path d="m848 576v16h-16v-16z"/><path d="m-288 592h-224v-16h16 208z"/><path d="m-64 592h-224v-16h16 32 80 96z"/><path d="m160 592h-224v-16h224z"/><path d="m384 592h-224v-16h80 144z"/><path d="m608 592h-224v-16h64 48 112z"/><path d="m672 576h160v16h-224v-16z"/><path d="m-432-224v-32-64 104 32 24z"/><path d="m-432-224v64 160z"/><path d="m-464-368v112 32 80-64z"/><path d="m-464-432v64z"/><path d="m-464-256v32z"/><path d="m-336-384-64 64z"/><path d="m-400 64 64 64z"/><path d="m-240 576h-32z"/><path d="m-272 576h-224z"/><path d="m-496-672v-160z"/><path d="m-496 576v-80-80z"/><path d="m-240-832h-32z"/><path d="m-272-832h-224z"/><path d="m-240-832v128 32z"/><path d="m-240 416v32 128z"/><path d="m-496-432v-32z"/><path d="m-496 208v-32z"/><path d="m-496 208v208-144z"/><path d="m-336 128v64 16z"/><path d="m-336-464v16 64z"/><path d="m-464-432h-32z"/><path d="m-496 176h32z"/><path d="m-240 576h-32z"/><path d="m-496-672v-160z"/><path d="m-496 576v-160z"/><path d="m-272-832h-224z"/><path d="m-208-672h-32z"/><path d="m-240-672h32-64z"/><path d="m-272-672h-224v-160h224z"/><path d="m-240-832v160h-32v-160z"/><path d="m-240-832v160z"/><path d="m-272 416h-224z"/><path d="m-208-592v-80 32z"/><path d="m-240-560-96 96z"/><path d="m-240-560 32-32z"/><path d="m-272 272-64-64z"/><path d="m-208 416v-32z"/><path d="m-208 336-32-32z"/><path d="m-272 576h-224v-160h224z"/><path d="m-240 416v160h-32v-160z"/><path d="m-240 416v160z"/><path d="m-432 0v64z"/><path d="m-432-320v64z"/><path d="m-432 0v-160-64z"/><path d="m-432-256v32z"/><path d="m-464 0v-144-80z"/><path d="m-464-256v32z"/><path d="m-464-256v-112-64z"/><path d="m-272-672h-224z"/><path d="m-208 416h-32-32z"/><path d="m-496-464h160z"/><path d="m-272-528-64 64h-160v-208h224z"/><path d="m-208-672v80l-64 64v-144z"/><path d="m-208-672v80z"/><path d="m-272-528 64-64-32 32-96 96z"/><path d="m-336 208h-160z"/><path d="m-464 176v-112z"/><path d="m-464 0v64z"/><path d="m-272 416h-224v-208h160l64 64z"/><path d="m-240 304 32 32v80h-64v-144z"/><path d="m-240 304-32-32-64-64 64 64z"/><path d="m-208 336v48 32z"/><path d="m-432 64v-64z"/><path d="m-400-320h-32z"/><path d="m-432 64h32z"/><path d="m-336-384-64 64z"/><path d="m-400 64 64 64z"/><path d="m-400 64h-32z"/><path d="m-496-432v-32z"/><path d="m-496 208v-32z"/><path d="m-336-464h-160z"/><path d="m-496 208h160z"/><path d="m-336 128v80z"/><path d="m-336-464v80z"/><path d="m-336 128-64-64z"/><path d="m-464-432h-32z"/><path d="m-496 176h32z"/><path d="m-464 64v112z"/><path d="m-464-432v48 128z"/><path d="m-432-256v-64z"/><path d="m-432-256v32z"/><path d="m-432-160v160 64z"/><path d="m-432-320h32z"/><path d="m-464-224v64 160z"/><path d="m-464-432v48z"/><path d="m-400-96v160l64 64v-224z"/><path d="m-400-320v160 64h64v-224z"/><path d="m-400-320 64-64z"/><path d="m-432-320v64 32 64z"/><path d="m-432-160v224h32v-160-64z"/><path d="m-400-320h-32v160h32z"/><path d="m-336-96v224-144z"/><path d="m-336-320v224-144z"/><path d="m-336-384v-80z"/><path d="m-336-384-64 64h64z"/><path d="m-496-432v-32 224z"/><path d="m-496-464v32z"/><path d="m-496 176v32z"/><path d="m-464-384v-48h-32v192 32h32z"/><path d="m-496-208v192 32h32v-176-48z"/><path d="m-496 16v160h32v-112-48z"/><path d="m-336 208h-160z"/><path d="m-336-16v144 80z"/><path d="m-336-240v144 80z"/><path d="m-496-464h160z"/><path d="m-336 208v-80z"/><path d="m-336-384v64z"/><path d="m-496-432h32z"/><path d="m-464 176h-32z"/><path d="m-464-160v176 48-64z"/><path d="m-464-384v176 48-64-32z"/><path d="m-496-16v224-32-160z"/><path d="m-496-240v224-192z"/><path d="m-496-464v224z"/><path d="m-336-464v80 64 80z"/><path d="m-336-464h-64-96z"/><path d="m-336-16v224h-64v-224z"/><path d="m-336-240v224h-64v-224z"/></g><g id="d"><path d="m-496-16v224z"/><path d="m-496-240v224z"/><path d="m-400 208h64-160z"/><path d="m-400-16v224h-96v-224z"/><path d="m-400-240v224h-96v-224z"/><path d="m-496-464h96v224h-96z"/><path d="m-400-464h64v224h-64z"/></g></defs><g stroke="#000"><use fill="none" stroke-miterlimit="0" stroke-width="10" xlink:href="#a"/><use fill="#c4c4c4" xlink:href="#a"/><use fill="none" stroke-miterlimit="0" stroke-width="10" xlink:href="#b"/><use fill="#d9d9d9" xlink:href="#b"/><use fill="none" stroke-miterlimit="0" stroke-width="10" xlink:href="#c"/><use fill="#ebebeb" xlink:href="#c"/><use fill="none" stroke-miterlimit="0" stroke-width="10" xlink:href="#d"/><use fill="#fff" xlink:href="#d"/></g></svg>