<?xml version="1.0" encoding="utf-8" ?>
<svg baseProfile="tiny" height="100%" version="1.2" viewBox="-488.0 -168.0 776.0 1296.0" width="100%" xmlns="http://www.w3.org/2000/svg" xmlns:ev="http://www.w3.org/2001/xml-events" xmlns:xlink="http://www.w3.org/1999/xlink"><defs><g id="bsp_ref"><polygon points="-160,-104 -168,-104 -168,-104 -160,-104" /><polygon points="-104,-104 -112,-104 -112,-104 -104,-104" /><polygon points="-48,-104 -56,-104 -56,-104 -48,-104" /><polygon points="8,-104 0,-104 0,-104 8,-104" /><polygon points="64,-104 56,-104 56,-104 64,-104" /><polygon points="-24,1064 -24,1064 -24,1064 -24,1064 -200,1064 -200,1064" /><polygon points="224,1064 224,1064 200,1064 200,1064" /><polygon points="224,968 224,968 224,968 224,1024 224,1064 224,1064" /><polygon points="224,912 224,912 224,912 224,912 224,912 224,912 224,920 224,928 224,936 224,968 224,968" /><polygon points="224,808 224,808 224,856 224,856" /><polygon points="224,216 224,216 224,216 224,216 224,288 224,360 224,360" /><polygon points="224,216 224,168 224,144 224,144 224,144 224,152 224,192 224,200 224,216" /><polygon points="224,48 224,48 224,48 224,48 224,48 224,56 224,64 224,144 224,144" /><polygon points="224,-8 224,-8 224,0 224,8 224,8" /><polygon points="-424,608 -424,824 -424,824 -424,808 -424,776 -424,768 -424,736 -424,688" /><polygon points="-424,1016.2215 -424,999.7074 -279.6482,999.7074 -279.6482,1016.2215" /><polygon points="-303.9911,824 -303.9911,863.9941 -320,863.9941 -351.9178,863.9941 -351.9178,824" /><polygon points="-168,824 -152,824 -152,912.1498 -199.9191,912.1498 -199.9191,895.6357 -199.9191,880 -199.9191,824" /><polygon points="-351.9178,912.1498 -351.9178,895.6357 -216.4336,895.6357 -216.4336,912.1498" /><polygon points="-424,983.5779 -424,968.0636 -368.4325,968.0636 -368.4325,983.5779" /><polygon points="-351.9178,863.9941 -351.9178,880 -351.9178,895.6357 -351.9178,912.1498 -351.9178,968.0636 -368.4325,968.0636 -424,968.0636 -424,824 -351.9178,824" /><polygon points="-216.4336,895.6357 -351.9178,895.6357 -351.9178,880 -320,880 -303.9911,880 -199.9191,880 -199.9191,895.6357" /><polygon points="-200,824 -199.9191,824 -199.9191,880 -303.9911,880 -303.9911,863.9941 -303.9911,824" /><polygon points="-351.9178,863.9941 -320,863.9941 -320,880 -351.9178,880" /><polygon points="-279.6482,999.7074 -424,999.7074 -424,983.5779 -368.4325,983.5779 -351.9178,983.5779 -264.2043,983.5779 -264.2043,999.7074" /><polygon points="-168,808 -152,808 -152,824 -168,824" /><polygon points="-200,1064 -424,1064 -424,1016.2215 -279.6482,1016.2215 -264.2043,1016.2215 -200,1016.2215" /><polygon points="-40.2043,1016.2215 -24,1016.2215 -24,1064 -200,1064 -200,1016.2215" /><polygon points="-127.9178,983.5779 -264.2043,983.5779 -351.9178,983.5779 -351.9178,968.0636 -351.9178,912.1498 -216.4336,912.1498 -199.9191,912.1498 -152,912.1498 -127.9178,912.1498" /><polygon points="-24,912.1498 -24,983.5779 -40.2043,983.5779 -127.9178,983.5779 -127.9178,912.1498" /><polygon points="-40.2043,1016.2215 -200,1016.2215 -264.2043,1016.2215 -264.2043,999.7074 -264.2043,983.5779 -127.9178,983.5779 -40.2043,983.5779" /><polygon points="-24,983.5779 -24,1016.2215 -40.2043,1016.2215 -40.2043,983.5779" /><polygon points="200,1064 -24,1064 -24,1016.2215 -24,983.5779 -24,912.1498 -24,864 128,864 167,864 183,864 200,864" /><polygon points="207,864 223,864 224,864 224,880 224,912 224,968 224,1064 200,1064 200,864" /><polygon points="-152,824 -152,808 -24,808 -24,864 -24,912.1498 -127.9178,912.1498 -152,912.1498" /><polygon points="-24,808 128,808 128,856 128,864 -24,864" /><polygon points="128,856 167,856 167,864 128,864" /><polygon points="144,808 224,808 224,856 168,856 167,856 128,856 128,808" /><polygon points="-368,600 -424,600 -424,552 -368,552" /><polygon points="-368,600 -368,552 -336,552 -272,552 -272,600 -272,608 -368,608" /><polygon points="-336,424 -272,424 -272,552 -336,552" /><polygon points="-224,608 -272,608 -272,600 -256,600 -224,600" /><polygon points="-424,608 -408,608 -384,608 -368,608 -272,608 -224,608 -208,608 -200,608 -200,824 -303.9911,824 -351.9178,824 -424,824" /><polygon points="-200,608 -184,608 -168,608 -168,648 -168,808 -168,824 -199.9191,824 -200,824" /><polygon points="-168,552 -168,600 -224,600 -256,600 -256,552" /><polygon points="-272,552 -272,424 -256,424 -256,552 -256,600 -272,600" /><polygon points="-272,424 -336,424 -336,408 -256,408 -256,424" /><polygon points="-256,408 -336,408 -336,256 -280,256 -240,256 -240,408" /><polygon points="-240,256 -280,256 -280,248 -280,216 -240,216" /><polygon points="-16,408 -240,408 -240,256 -240,216 -144,216 -96,216 -16,216" /><polygon points="128,216 144,216 144,408 -16,408 -16,216" /><polygon points="144,408 144,216 224,216 224,360 224,440 144,440" /><polygon points="224,440 224,584 224,664 144,664 144,584 144,440" /><polygon points="224,664 224,808 144,808 144,664" /><polygon points="-336,128 -336,120 -336,72 -336,64 -336,48 -280,48 -280,216 -280,248 -296,248 -320,248 -336,248" /><polygon points="-280,48 -144,48 -144,144 -144,216 -240,216 -280,216" /><polygon points="-144,144 -96,144 -96,152 -96,160 -96,168 -96,216 -144,216" /><polygon points="-96,152 -88,152 -72,152 -64,152 -64,160 -72,160 -88,160 -96,160" /><polygon points="-72,152 -88,152 -88,144 -72,144" /><polygon points="-72,168 -88,168 -88,160 -72,160" /><polygon points="-144,48 -112,48 -64,48 -64,144 -72,144 -88,144 -96,144 -144,144" /><polygon points="128,216 -16,216 -96,216 -96,168 -88,168 -72,168 -64,168 128,168" /><polygon points="160,168 224,168 224,216 144,216 128,216 128,168" /><polygon points="160,168 128,168 -64,168 -64,160 -64,152 -64,144 -64,48 112,48 160,48" /><polygon points="167,48 224,48 224,144 224,168 160,168 160,48" /><polygon points="-112,48 -144,48 -280,48 -336,48 -336,-104 -216,-104 -168,-104 -160,-104 -112,-104" /><polygon points="-104,-104 -56,-104 -48,-104 0,-104 8,-104 56,-104 64,-104 112,-104 112,-16 112,48 -64,48 -112,48 -112,-104" /><polygon points="167,-8 167,48 160,48 112,48 112,-16 167,-16" /><polygon points="183,-8 207,-8 223,-8 224,-8 224,8 224,48 167,48 167,-8" /><polygon points="224,-104 224,-16 168,-16 167,-16 112,-16 112,-104" /><polygon points="144,408 144,408 144,408 112,408 104,408 48,408 40,408 -16,408 -16,408" /><polygon points="-336,120 -336,128 -336,128 -336,120" /><polygon points="-336,64 -336,72 -336,72 -336,64" /><polygon points="224,-16 224,-16 168,-16 168,-16" /><polygon points="167,-8 167,-16 167,-8 167,0 167,8 167,16 167,24 167,32 167,56 167,64 167,72" /><polygon points="207,-8 183,-8 183,-8 207,-8" /><polygon points="-320,248 -296,248 -296,248 -320,248" /><polygon points="-168,600 -168,552 -168,552 -168,600" /><polygon points="-168,648 -168,648 -168,712 -168,760 -168,768 -168,808 -168,808" /><polygon points="144,584 144,664 144,808 144,808 144,808 144,808 144,648 144,584" /><polygon points="-256,424 -256,408 -256,408 -256,536 -256,552 -256,552" /><polygon points="-224,608 -224,600 -224,608 -224,616 -224,624 -224,632 -224,640 -224,648 -224,656 -224,664 -224,672 -224,680 -224,688" /><polygon points="-184,608 -200,608 -208,608 -208,608 -184,608" /><polygon points="-168,600 -168,600 -224,600 -224,600" /><polygon points="-384,608 -408,608 -408,608 -384,608" /><polygon points="-368,600 -368,600 -424,600 -424,600" /><polygon points="167,864 167,856 167,864 167,872 167,880 167,888 167,896 167,904 167,912 167,920 167,928 167,936 167,944" /><polygon points="207,864 200,864 183,864 183,864 207,864" /><polygon points="224,856 224,856 168,856 168,856" /><polygon points="-303.9911,880 -320,880 -328,888 -295.9941,888" /><polygon points="224,864 224,864 224,872 224,880 224,880 224,864" /><polygon points="224,8 224,8 224,8 224,16 224,24 224,48 224,48 224,8" /><polygon points="224,0 224,0 224,8 224,8" /><polygon points="224,-8 224,-16 224,-104 224,-104 224,0 224,0 224,0" /><polygon points="224,-16 224,-16 224,-104 224,-104" /><polygon points="-424,552 -424,552 -424,600 -424,600" /><polygon points="224,-8 224,-8 223,-8 223,-8" /><polygon points="224,-16 224,-8 223,-8 207,-8 183,-8 168,-8 168,-16" /><polygon points="168,-8 168,-16 168,-16" /><polygon points="167,-8 167,-16 168,-16 168,-8" /><polygon points="-280,256 -280,256 -336,256 -336,256" /><polygon points="-280,248 -280,256 -280,256" /><polygon points="-280,248 -280,240 -280,232 -280,248 -280,256" /><polygon points="-320,248 -320,240 -320,232 -320,248" /><polygon points="-320,248 -296,248 -280,248 -280,256 -336,256 -336,248" /><polygon points="-168,600 -168,552 -168,552 -168,616 -168,616 -168,616 -168,608" /><polygon points="-168,648 -168,648 -168,664 -168,712 -168,712 -168,712" /><polygon points="-168,712 -168,712 -168,760 -168,760 -168,760" /><polygon points="-168,760 -168,760 -168,768 -168,768" /><polygon points="-168,808 -168,768 -168,768 -168,768 -168,768 -168,808" /><polygon points="-424,552 -424,552 -424,552 -368,552 -368,552 -368,552 -424,552" /><polygon points="-224,608 -224,600 -224,600" /><polygon points="-168,600 -168,608 -184,608 -208,608 -224,608 -224,600" /><polygon points="-368,600 -368,600 -368,608 -368,608" /><polygon points="-368,600 -368,608 -384,608 -408,608 -424,608 -424,600" /><polygon points="-384,608 -384,616 -384,624 -384,608" /><polygon points="224,864 224,864 223,864 223,864" /><polygon points="224,856 224,864 223,864 207,864 183,864 168,864 168,856" /><polygon points="168,864 168,856 168,856" /><polygon points="167,864 167,856 168,856 168,864" /><polygon points="224,880 224,880 224,888 224,896 224,912 224,912 224,880" /><polygon points="224,0 223,0 223,8 224,8" /><polygon points="207,0 183,0 183,8 207,8" /><polygon points="207,8 183,8 183,8 207,8" /><polygon points="183,0 207,0 223,0 224,0 224,0 168,0 168,0" /><polygon points="207,0 207,8 207,-8 207,-8" /><polygon points="223,8 223,0 223,-8 223,-8" /><polygon points="207,0 207,-8 223,-8 223,0" /><polygon points="183,8 183,0 183,-8 183,-8" /><polygon points="168,0 167,0 167,-8 168,-8 183,-8 183,0" /><polygon points="-280,232 -280,216 -280,200 -280,168 -296,168 -296,184 -296,200 -296,216 -296,232 -296,248 -280,248" /><polygon points="-320,232 -320,216 -320,200 -320,184 -320,168 -336,168 -336,248 -320,248" /><polygon points="-296,232 -320,232 -320,240 -296,240" /><polygon points="-320,232 -296,232 -296,232 -320,232" /><polygon points="-296,232 -296,240 -296,248 -296,248" /><polygon points="-280,240 -280,248 -296,248 -296,240" /><polygon points="-320,240 -320,248 -336,248 -336,240" /><polygon points="-184,624 -184,640 -184,656 -184,672 -184,688 -168,688 -168,664 -168,648 -168,608 -184,608" /><polygon points="-184,616 -208,616 -208,624 -184,624" /><polygon points="-184,624 -208,624 -208,624 -184,624" /><polygon points="-208,616 -184,616 -168,616 -168,616 -224,616 -224,616" /><polygon points="-184,624 -184,624 -184,632 -184,640" /><polygon points="-184,616 -184,624 -184,608 -184,608" /><polygon points="-184,616 -184,608 -168,608 -168,616" /><polygon points="-208,624 -208,616 -208,608 -208,608" /><polygon points="-224,616 -224,608 -208,608 -208,616" /><polygon points="-368,624 -368,616 -368,608 -368,608" /><polygon points="-384,616 -384,608 -368,608 -368,616" /><polygon points="-424,616 -424,608 -408,608 -408,616" /><polygon points="-408,616 -384,616 -368,616 -368,616 -424,616 -424,616" /><polygon points="-384,624 -384,640 -384,656 -384,672 -384,688 -368,688 -368,672 -368,656 -368,640 -368,624 -368,608 -384,608" /><polygon points="-384,624 -408,624 -408,624 -384,624" /><polygon points="-408,624 -408,616 -408,608 -408,608" /><polygon points="-384,616 -408,616 -408,624 -384,624" /><polygon points="207,880 207,896 207,912 207,928 207,944 223,944 223,928 223,912 223,896 223,880 223,864 207,864" /><polygon points="207,880 183,880 183,880 207,880" /><polygon points="207,872 183,872 183,880 207,880" /><polygon points="224,872 223,872 223,880 224,880" /><polygon points="183,872 207,872 223,872 224,872 224,872 168,872 168,872" /><polygon points="207,872 207,880 207,864 207,864" /><polygon points="223,880 223,872 223,864 223,864" /><polygon points="207,872 207,864 223,864 223,872" /><polygon points="183,880 183,872 183,864 183,864" /><polygon points="168,872 167,872 167,864 168,864 183,864 183,872" /><polygon points="224,864 224,872 224,872 224,864" /><polygon points="224,896 224,896 224,896 224,904 224,912 224,912" /><polygon points="224,888 224,888 224,896 224,896" /><polygon points="224,24 224,24 224,24 224,32 224,40 224,48 224,48" /><polygon points="224,16 224,16 224,24 224,24" /><polygon points="224,8 224,0 224,-104 224,-104 224,16 224,16 224,16 224,16" /><polygon points="-424,624 -424,632 -424,632 -424,616 -424,616" /><polygon points="-424,616 -424,616 -424,616 -424,616 -424,616 -424,552 -424,552 -424,600 -424,608 -424,616" /><polygon points="224,8 224,8 223,8 223,8" /><polygon points="168,8 168,0 168,0" /><polygon points="224,0 224,8 223,8 207,8 183,8 168,8 168,0" /><polygon points="167,8 167,0 168,0 168,8" /><polygon points="207,8 207,16 207,24 207,8" /><polygon points="183,8 183,8 183,24 183,16" /><polygon points="-280,232 -280,232 -280,240 -280,240" /><polygon points="-296,232 -296,232 -296,216 -296,224" /><polygon points="-320,232 -296,232 -280,232 -280,240 -336,240 -336,232" /><polygon points="-280,240 -280,240 -296,240 -320,240 -336,240 -336,240" /><polygon points="-224,624 -224,616 -224,616" /><polygon points="-168,616 -168,624 -184,624 -208,624 -224,624 -224,616" /><polygon points="-208,624 -208,624 -208,640 -208,632" /><polygon points="-368,616 -368,616 -368,624 -368,624" /><polygon points="-368,616 -368,624 -384,624 -408,624 -424,624 -424,616" /><polygon points="-384,624 -384,632 -384,640 -384,624" /><polygon points="224,880 224,880 223,880 223,880" /><polygon points="168,880 168,872 168,872" /><polygon points="224,872 224,880 223,880 207,880 183,880 168,880 168,872" /><polygon points="167,880 167,872 168,872 168,880" /><polygon points="207,880 207,888 207,896 207,880" /><polygon points="-415.0185,720 -415.0185,712 -414.11,712 -414.11,720" /><polygon points="-415.0185,776 -415.0185,768 -414.11,768 -414.11,776" /><polygon points="207,24 183,24 183,24 207,24" /><polygon points="207,16 183,16 183,24 207,24" /><polygon points="224,16 223,16 223,24 224,24" /><polygon points="183,16 207,16 223,16 224,16 224,16 168,16 168,16" /><polygon points="223,24 223,16 223,8 223,8" /><polygon points="207,16 207,8 223,8 223,16" /><polygon points="168,16 167,16 167,8 168,8 183,8 183,16" /><polygon points="-280,224 -280,216 -280,232 -280,232" /><polygon points="-320,216 -296,216 -296,216 -320,216" /><polygon points="-320,216 -320,216 -320,208 -320,200" /><polygon points="-296,216 -320,216 -320,224 -296,224" /><polygon points="-320,224 -320,216 -320,232 -320,232" /><polygon points="-280,224 -280,232 -296,232 -296,224" /><polygon points="-320,224 -320,232 -336,232 -336,224" /><polygon points="-184,640 -208,640 -208,640 -184,640" /><polygon points="-184,632 -208,632 -208,640 -184,640" /><polygon points="-208,632 -184,632 -168,632 -168,632 -224,632 -224,632" /><polygon points="-184,632 -184,624 -168,624 -168,632" /><polygon points="-224,632 -224,624 -208,624 -208,632" /><polygon points="-184,640 -184,640 -184,648 -184,656" /><polygon points="-368,640 -368,632 -368,624 -368,624" /><polygon points="-384,632 -384,624 -368,624 -368,632" /><polygon points="-424,632 -424,624 -408,624 -408,632" /><polygon points="-408,632 -384,632 -368,632 -368,632 -424,632 -424,632" /><polygon points="-384,640 -384,640 -384,648 -384,656" /><polygon points="-384,632 -408,632 -408,640 -384,640" /><polygon points="-384,640 -408,640 -408,640 -384,640" /><polygon points="-408,640 -408,632 -408,624 -408,624" /><polygon points="224,888 223,888 223,896 224,896" /><polygon points="207,888 183,888 183,896 207,896" /><polygon points="183,888 207,888 223,888 224,888 224,888 168,888 168,888" /><polygon points="207,896 183,896 183,896 207,896" /><polygon points="223,896 223,888 223,880 223,880" /><polygon points="207,888 207,880 223,880 223,888" /><polygon points="183,896 183,888 183,880 183,880" /><polygon points="168,888 167,888 167,880 168,880 183,880 183,888" /><polygon points="-168,760 -168,712 -168,712 -168,768 -168,768" /><polygon points="-168,704 -168.4003,704 -168.3999,712 -168,712" /><polygon points="224,904 224,904 224,912 224,912" /><polygon points="224,896 224,888 224,864 224,864 224,904 224,904 224,904 224,904" /><polygon points="224,864 224,888 224,888 224,888 224,880 224,872 224,864" /><polygon points="224,40 224,40 224,40 224,48 224,48" /><polygon points="224,32 224,32 224,40 224,40" /><polygon points="-336,256 -336,240 -336,240 -336,240 -336,248 -336,256" /><polygon points="-336,240 -336,224 -336,224 -336,232 -336,240" /><polygon points="224,24 224,24 223,24 223,24" /><polygon points="168,24 168,16 168,16" /><polygon points="224,16 224,24 223,24 207,24 183,24 168,24 168,16" /><polygon points="167,24 167,16 168,16 168,24" /><polygon points="-280,216 -280,216 -280,224 -280,224" /><polygon points="-336,224 -336,216 -320,216 -296,216 -280,216 -280,224" /><polygon points="-280,224 -280,224 -296,224 -320,224 -336,224 -336,224" /><polygon points="-168,648 -168,648 -168,648 -168,608" /><polygon points="-168,616 -168,632 -168,632 -168,624 -168,616" /><polygon points="-224,640 -224,632 -224,632" /><polygon points="-168,632 -168,640 -184,640 -208,640 -224,640 -224,632" /><polygon points="-368,632 -368,632 -368,640 -368,640" /><polygon points="-368,632 -368,640 -384,640 -408,640 -424,640 -424,632" /><polygon points="224,896 224,896 223,896 223,896" /><polygon points="168,896 168,888 168,888" /><polygon points="224,888 224,896 223,896 207,896 183,896 168,896 168,888" /><polygon points="167,896 167,888 168,888 168,896" /><polygon points="222.9194,960 222.7189,960 222.7189,968 222.9194,968" /><polygon points="222.9194,1016 222.7189,1016 222.7189,1024 222.9194,1024" /><polygon points="217.5336,144 217.3153,144 217.3148,152 217.5331,152" /><polygon points="-336,72 -336,72 -336,120 -336,120 -336,120 -336,72" /><polygon points="224,32 223,32 223,40 224,40" /><polygon points="207,32 183,32 183,40 207,40" /><polygon points="183,32 207,32 223,32 224,32 224,32 168,32 168,32" /><polygon points="207,40 183,40 183,40 207,40" /><polygon points="207,40 207,40 207,48 207,56" /><polygon points="167,32 168,32 168,40 168,48 168,56 167,56" /><polygon points="207,32 207,40 207,24 207,24" /><polygon points="223,40 223,32 223,24 223,24" /><polygon points="207,32 207,24 223,24 223,32" /><polygon points="183,40 183,32 183,24 183,24" /><polygon points="168,32 167,32 167,24 168,24 183,24 183,32" /><polygon points="-72,160 -72,160 -72,160 -72,160 -72,160 -72,168 -72,168 -72,168 -72,168 -72,160" /><polygon points="-72,152 -72,152 -72,152 -72,152 -72,152 -64,152 -64,152 -64,152 -64,152 -72,152" /><polygon points="-88,152 -88,152 -88,152 -88,152 -88,152 -88,144 -88,144 -88,144 -88,144 -88,152" /><polygon points="-72,152 -88,152 -88,160 -72,160" /><polygon points="-88,160 -88,160 -88,160 -88,160 -88,160 -96,160 -96,160 -96,160 -96,160 -88,160" /><polygon points="-280,208 -280,200 -280,216 -280,216" /><polygon points="-280,200 -280,200 -280,192 -280,184 -280,176 -280,168" /><polygon points="-320,200 -296,200 -296,200 -320,200" /><polygon points="-296,200 -320,200 -320,208 -296,208" /><polygon points="-296,200 -296,208 -296,216 -296,216" /><polygon points="-280,208 -280,216 -296,216 -296,208" /><polygon points="-320,208 -320,216 -336,216 -336,208" /><polygon points="-184,648 -208,648 -208,656 -184,656" /><polygon points="-184,656 -208,656 -208,656 -184,656" /><polygon points="-208,648 -184,648 -168,648 -168,648 -224,648 -224,648" /><polygon points="-184,648 -184,640 -168,640 -168,648" /><polygon points="-208,648 -208,640 -208,640 -208,656" /><polygon points="-224,648 -224,640 -208,640 -208,648" /><polygon points="-368,648 -368,640 -368,640 -368,656" /><polygon points="-384,648 -384,640 -368,640 -368,648" /><polygon points="-424,648 -424,640 -408,640 -408,648" /><polygon points="-408,648 -384,648 -368,648 -368,648 -424,648 -424,648" /><polygon points="-384,648 -408,648 -408,656 -384,656" /><polygon points="-384,656 -408,656 -408,656 -384,656" /><polygon points="-408,648 -408,640 -408,640 -408,656" /><polygon points="207,912 183,912 183,912 207,912" /><polygon points="224,904 223,904 223,912 224,912" /><polygon points="207,904 183,904 183,912 207,912" /><polygon points="183,904 207,904 223,904 224,904 224,904 168,904 168,904" /><polygon points="207,904 207,912 207,896 207,896" /><polygon points="223,912 223,904 223,896 223,896" /><polygon points="207,904 207,896 223,896 223,904" /><polygon points="183,912 183,904 183,896 183,896" /><polygon points="168,904 167,904 167,896 168,896 183,896 183,904" /><polygon points="207,912 207,912 207,920 207,928" /><polygon points="216.1046,88 215.8828,88 215.8818,96 216.1037,96" /><polygon points="120,-104 168,-104 176,-104 224,-104 224,-104 224,-104 224,-104 112,-104 112,-104" /><polygon points="112,-104 112,-104 120,-104 120,-104" /><polygon points="168,-104 168,-104 176,-104 176,-104" /><polygon points="224,912 224,904 224,904 224,912" /><polygon points="224,16 224,32 224,32 224,32 224,24 224,16" /><polygon points="-424,616 -424,616 -424,632 -424,640 -424,648 -424,648" /><polygon points="-336,216 -336,208 -336,208 -336,216" /><polygon points="168,40 168,32 168,32" /><polygon points="224,40 224,40 223,40 223,40" /><polygon points="224,32 224,40 223,40 207,40 183,40 168,40 168,32" /><polygon points="183,40 183,48 168,48 168,40" /><polygon points="-72,152 -72,152 -72,160 -72,160" /><polygon points="-88,152 -88,152 -72,152 -72,152" /><polygon points="-88,160 -88,160 -88,152 -88,152" /><polygon points="-88,160 -88,152 -72,152 -72,160" /><polygon points="-72,160 -72,160 -88,160 -88,160" /><polygon points="-336,64 -336,64 -304,64 -312,64" /><polygon points="-336,72 -336,64 -312,64 -312,72" /><polygon points="-336,120 -336,120 -304,120 -312,120" /><polygon points="-336,128 -336,120 -312,120 -312,128" /><polygon points="-280,200 -280,200 -280,208 -280,208" /><polygon points="-296,200 -296,200 -296,184 -296,192" /><polygon points="-320,200 -296,200 -280,200 -280,208 -336,208 -336,200" /><polygon points="-280,208 -280,208 -296,208 -320,208 -336,208 -336,208" /><polygon points="-168,648 -168,648 -168,640 -168,632 -168,616 -168,552 -168,552" /><polygon points="-168,648 -168,552 -168,552 -168,648 -168,664 -168,664 -168,656" /><polygon points="-168,768 -168,712 -168,664 -168,688 -168,704 -168,768 -168,808 -168,808" /><polygon points="-224,656 -224,648 -224,648" /><polygon points="-168,648 -168,656 -184,656 -208,656 -224,656 -224,648" /><polygon points="-184,656 -184,664 -184,672 -184,656" /><polygon points="-368,648 -368,648 -368,656 -368,656" /><polygon points="-368,648 -368,656 -384,656 -408,656 -424,656 -424,648" /><polygon points="-384,656 -384,664 -384,672 -384,656" /><polygon points="224,912 224,912 223,912 223,912" /><polygon points="224,904 224,912 223,912 207,912 183,912 168,912 168,904" /><polygon points="168,912 168,904 168,904" /><polygon points="167,912 167,904 168,904 168,912" /><polygon points="223,912 223,912 223,928 223,920" /><polygon points="183,912 183,912 183,928 183,920" /><polygon points="-328,888 -328,855.997 -295.9941,855.997 -295.9941,888" /><polygon points="-224.4306,920.1469 -224.4306,887.6391 -191.9226,887.6391 -191.9226,920.1469" /><polygon points="-287.6447,1024.2181 -287.6447,991.7103 -256.2077,991.7103 -256.2077,1024.2181" /><polygon points="-376.4295,991.5749 -376.4295,960.0671 -343.9213,960.0671 -343.9213,991.5749" /><polygon points="-191.9226,920.1469 -199.9191,912.1498 -216.4336,912.1498 -224.4306,920.1469" /><polygon points="-328,888 -320,880 -320,863.9941 -328,855.997" /><polygon points="-191.9226,887.6391 -199.9191,895.6357 -199.9191,912.1498 -191.9226,920.1469" /><polygon points="-328,855.997 -320,863.9941 -303.9911,863.9941 -295.9941,855.997" /><polygon points="-224.4306,920.1469 -216.4336,912.1498 -216.4336,895.6357 -224.4306,887.6391" /><polygon points="-224.4306,887.6391 -216.4336,895.6357 -199.9191,895.6357 -191.9226,887.6391" /><polygon points="-295.9941,855.997 -303.9911,863.9941 -303.9911,880 -295.9941,888" /><polygon points="-376.4295,991.5749 -368.4325,983.5779 -368.4325,968.0636 -376.4295,960.0671" /><polygon points="-256.2077,1024.2181 -264.2043,1016.2215 -279.6482,1016.2215 -287.6447,1024.2181" /><polygon points="-376.4295,960.0671 -368.4325,968.0636 -351.9178,968.0636 -343.9213,960.0671" /><polygon points="-256.2077,991.7103 -264.2043,999.7074 -264.2043,1016.2215 -256.2077,1024.2181" /><polygon points="-343.9213,960.0671 -351.9178,968.0636 -351.9178,983.5779 -343.9213,991.5749" /><polygon points="-287.6447,991.7103 -279.6482,999.7074 -264.2043,999.7074 -256.2077,991.7103" /><polygon points="-287.6447,1024.2181 -279.6482,1016.2215 -279.6482,999.7074 -287.6447,991.7103" /><polygon points="-343.9213,991.5749 -351.9178,983.5779 -368.4325,983.5779 -376.4295,991.5749" /><polygon points="224,928 224,928 224,936 224,936" /><polygon points="224,64 224,64 224,64 224,96 224,144 224,144" /><polygon points="224,56 224,56 224,64 224,64" /><polygon points="223,56 223,40 223,24 223,8 223,-8 207,-8 207,8 207,24 207,40 207,56 207,72 223,72" /><polygon points="207,56 183,56 183,56 207,56" /><polygon points="207,48 183,48 183,56 207,56" /><polygon points="224,48 223,48 223,56 224,56" /><polygon points="183,48 207,48 223,48 224,48 224,48 168,48 168,48" /><polygon points="223,48 223,40 223,40 223,56" /><polygon points="207,48 207,40 223,40 223,48" /><polygon points="183,48 183,40 183,40 183,56" /><polygon points="207,56 207,56 207,64 207,72" /><polygon points="-320,184 -296,184 -296,184 -320,184" /><polygon points="-296,184 -320,184 -320,192 -296,192" /><polygon points="-280,192 -280,200 -296,200 -296,192" /><polygon points="-320,192 -320,184 -320,200 -320,200" /><polygon points="-320,192 -320,200 -336,200 -336,192" /><polygon points="-184,664 -208,664 -208,672 -184,672" /><polygon points="-208,664 -184,664 -168,664 -168,664 -224,664 -224,664" /><polygon points="-184,672 -208,672 -208,672 -184,672" /><polygon points="-208,672 -208,664 -208,656 -208,656" /><polygon points="-184,664 -184,656 -168,656 -168,664" /><polygon points="-224,664 -224,656 -208,656 -208,664" /><polygon points="-368,672 -368,664 -368,656 -368,656" /><polygon points="-384,664 -384,656 -368,656 -368,664" /><polygon points="-424,664 -424,656 -408,656 -408,664" /><polygon points="-408,664 -384,664 -368,664 -368,664 -424,664 -424,664" /><polygon points="-384,672 -384,672 -384,680 -384,688" /><polygon points="-384,672 -408,672 -408,672 -384,672" /><polygon points="-408,672 -408,664 -408,656 -408,656" /><polygon points="-384,664 -408,664 -408,672 -384,672" /><polygon points="207,920 183,920 183,928 207,928" /><polygon points="224,920 223,920 223,928 224,928" /><polygon points="207,928 183,928 183,928 207,928" /><polygon points="183,920 207,920 223,920 224,920 224,920 168,920 168,920" /><polygon points="207,920 207,912 223,912 223,920" /><polygon points="168,920 167,920 167,912 168,912 183,912 183,920" /><polygon points="224,936 224,936 224,944 224,968 224,968 224,936" /><polygon points="-424,648 -424,616 -424,616 -424,648 -424,656 -424,664 -424,664" /><polygon points="-336,216 -336,192 -336,192 -336,200 -336,208 -336,216" /><polygon points="-336,-104 -336,-104 -336,48 -336,64 -336,64 -336,64 -336,48" /><polygon points="224,56 224,56 223,56 223,56" /><polygon points="168,56 168,48 168,48" /><polygon points="224,48 224,56 223,56 207,56 183,56 168,56 168,48" /><polygon points="-280,184 -280,192 -280,192" /><polygon points="-280,192 -280,192 -296,192 -320,192 -336,192 -336,192" /><polygon points="-320,184 -296,184 -280,184 -280,192 -336,192 -336,184" /><polygon points="-168,672 -168,664 -168,648 -168,648 -168,680 -168,680" /><polygon points="-224,672 -224,664 -224,664" /><polygon points="-168,664 -168,672 -184,672 -208,672 -224,672 -224,664" /><polygon points="-368,664 -368,664 -368,672 -368,672" /><polygon points="-368,664 -368,672 -384,672 -408,672 -424,672 -424,664" /><polygon points="224,928 224,928 223,928 223,928" /><polygon points="168,928 168,920 168,920" /><polygon points="224,920 224,928 223,928 207,928 183,928 168,928 168,920" /><polygon points="167,928 167,920 168,920 168,928" /><polygon points="200,1064 168,1064 24,1064 -24,1064 -24,1064 200,1064" /><polygon points="-424,680 -424,680 -424,648 -424,648 -424,648 -424,664 -424,672" /><polygon points="-424,616 -424,616 -424,648 -424,648" /><polygon points="-336,168 -336,128 -336,128 -336,128 -336,128 -336,248" /><polygon points="-336,48 -336,48 -336,64 -336,72 -336,120 -336,128 -336,128" /><polygon points="-336,32 -336,-104 -336,-104 -336,48 -336,48" /><polygon points="223,72 223,96 224,96 224,64 223,64" /><polygon points="207,88 207,96 223,96 223,72 207,72" /><polygon points="175.6337,88 191.8788,88 207,88 207,72 183,72 168,72 168,88" /><polygon points="183,64 183,72 207,72 207,64" /><polygon points="191.8788,96 207,96 207,88 191.8788,88" /><polygon points="167,72 167,64 168,64 168,72" /><polygon points="168,88 168,96 175.6337,96 175.6337,88" /><polygon points="175.6337,144 191.8788,144 224,144 224,96 223,96 207,96 191.8788,96 175.6337,96 168,96 168,144" /><polygon points="224,152 191.8788,152 175.6337,152 168,152 168,192 224,192" /><polygon points="168,144 168,152 175.6337,152 175.6337,144" /><polygon points="224,152 224,144 191.8788,144 191.8788,152" /><polygon points="183,64 207,64 223,64 224,64 224,64 168,64 168,64" /><polygon points="168,152 168,144 168,96 168,88 168,72 168,64 168,64 168,184 168,192 168,192" /><polygon points="191.8788,88 175.6337,88 215.8828,88 216.1046,88" /><polygon points="167,72 168,72 183,72 183,56 183,40 183,24 183,8 183,-8 167,-8" /><polygon points="223,64 223,56 223,56 223,72" /><polygon points="207,64 207,56 223,56 223,64" /><polygon points="183,64 183,56 183,56 183,72" /><polygon points="168,64 167,64 167,56 168,56 183,56 183,64" /><polygon points="175.6337,144 217.3153,144 217.5336,144 191.8788,144" /><polygon points="175.6337,96 191.8788,96 216.1037,96 215.8818,96" /><polygon points="175.6337,88 175.6337,96 215.8818,96 215.8828,88" /><polygon points="191.8788,96 191.8788,88 216.1046,88 216.1037,96" /><polygon points="191.8788,152 217.5331,152 217.3148,152 175.6337,152" /><polygon points="191.8788,144 217.5336,144 217.5331,152 191.8788,152" /><polygon points="175.6337,152 217.3148,152 217.3153,144 175.6337,144" /><polygon points="-280,32 -296,32 -312,32 -312,64 -304,64 -280,64" /><polygon points="-312,120 -312,72 -312,64 -312,32 -320,32 -336,32 -336,48 -336,128 -312,128" /><polygon points="-280,72 -280,64 -304,64 -304,72" /><polygon points="-280,128 -280,120 -304,120 -304,128" /><polygon points="-304,120 -280,120 -280,72 -304,72 -312,72 -312,120" /><polygon points="-320,168 -296,168 -280,168 -280,128 -304,128 -312,128 -336,128 -336,168" /><polygon points="-320,168 -320,176 -296,176 -296,168" /><polygon points="-296,176 -320,176 -336,176 -336,176 -280,176 -280,176" /><polygon points="-280,32 -280,32 -296,32 -296,32" /><polygon points="-304,72 -336,72 -336,72 -312,72" /><polygon points="-304,64 -336,64 -336,72 -304,72" /><polygon points="-304,128 -336,128 -336,128 -312,128" /><polygon points="-304,120 -336,120 -336,128 -304,128" /><polygon points="-320,176 -320,168 -320,184 -320,184" /><polygon points="-296,168 -296,176 -296,184 -296,184" /><polygon points="-280,176 -280,184 -296,184 -296,176" /><polygon points="-320,176 -320,184 -336,184 -336,176" /><polygon points="144,808 168,808 168,808 144,808" /><polygon points="24,808 144,808 144,808 128,808 -24,808 -24,808" /><polygon points="-200,808 -224,808 -368,808 -424,808 -424,808 -368,808 -224,808 -200,808" /><polygon points="-224,712 -224,704 -224,688 -224,680 -224,680 -224,752 -224,752" /><polygon points="-168,688 -184,688 -184,704 -168,704" /><polygon points="-208,688 -208,704 -199.829,704 -184,704 -184,688 -184,680 -208,680" /><polygon points="-224,688 -224,704 -216.2472,704 -208,704 -208,688" /><polygon points="-224,704 -224,712 -216.2472,712 -216.2472,704" /><polygon points="-168,704 -184,704 -199.829,704 -199.829,712 -199.829,760 -199.829,768 -168,768" /><polygon points="-199.829,712 -216.2472,712 -224,712 -224,752 -224,760 -216.2472,760 -199.829,760" /><polygon points="-216.2472,768 -216.2472,760 -224,760 -224,768" /><polygon points="-224,808 -200,808 -168,808 -168,768 -199.829,768 -216.2472,768 -224,768" /><polygon points="-208,680 -184,680 -168,680 -168,680 -224,680 -224,680" /><polygon points="-199.829,704 -208,704 -216.2472,704 -168.4003,704 -168,704" /><polygon points="-224,688 -208,688 -208,672 -208,656 -208,640 -208,624 -208,608 -224,608" /><polygon points="-224,680 -224,672 -208,672 -208,680" /><polygon points="-184,680 -184,672 -168,672 -168,680" /><polygon points="-184,680 -184,688 -184,672 -184,672" /><polygon points="-208,688 -208,680 -208,672 -208,672" /><polygon points="-216.2472,760 -168,760 -168,760 -199.829,760" /><polygon points="-216.2472,712 -199.829,712 -168,712 -168.3999,712" /><polygon points="-199.829,712 -199.829,704 -168,704 -168,712" /><polygon points="-216.2472,704 -216.2472,712 -168.3999,712 -168.4003,704" /><polygon points="-199.829,768 -168,768 -168,768 -216.2472,768" /><polygon points="-216.2472,768 -168,768 -168,760 -216.2472,760" /><polygon points="-199.829,760 -168,760 -168,768 -199.829,768" /><polygon points="-368,688 -368,680 -368,672 -368,672" /><polygon points="-224,808 -224,768 -224,760 -224,752 -272,752 -280,752 -320,752 -328,752 -368,752 -368,776 -368,808" /><polygon points="-280,752 -280,752 -296,752 -304,752 -320,752 -320,752" /><polygon points="-272,752 -224,752 -224,752 -272,752" /><polygon points="-376.1048,776 -391.6353,776 -424,776 -424,808 -368,808 -368,776" /><polygon points="-424,768 -424,776 -391.6353,776 -391.6353,768" /><polygon points="-408,736 -424,736 -424,768 -391.6353,768 -376.1048,768 -376.1048,736" /><polygon points="-376.1048,736 -376.1048,768 -376.1048,776 -368,776 -368,752 -368,736" /><polygon points="-408,720 -408,712 -408,688 -424,688 -424,736 -408,736" /><polygon points="-376.1048,736 -368,736 -368,720 -376.1048,720 -391.6353,720 -408,720 -408,736" /><polygon points="-408,720 -391.6353,720 -391.6353,712 -408,712" /><polygon points="-376.1048,712 -376.1048,720 -368,720 -368,712" /><polygon points="-384,688 -384,680 -408,680 -408,688 -408,712 -391.6353,712 -384,712" /><polygon points="-376.1048,712 -368,712 -368,688 -384,688 -384,712" /><polygon points="-376.1048,712 -384,712 -391.6353,712 -414.11,712 -415.0185,712" /><polygon points="-384,680 -384,672 -368,672 -368,680" /><polygon points="-424,680 -424,672 -408,672 -408,680" /><polygon points="-424,688 -408,688 -408,672 -408,656 -408,640 -408,624 -408,608 -424,608" /><polygon points="-408,680 -408,672 -408,672 -408,688" /><polygon points="-391.6353,768 -414.11,768 -415.0185,768 -376.1048,768" /><polygon points="-391.6353,720 -376.1048,720 -415.0185,720 -414.11,720" /><polygon points="-376.1048,720 -376.1048,712 -415.0185,712 -415.0185,720" /><polygon points="-391.6353,712 -391.6353,720 -414.11,720 -414.11,712" /><polygon points="-376.1048,776 -415.0185,776 -414.11,776 -391.6353,776" /><polygon points="-376.1048,768 -415.0185,768 -415.0185,776 -376.1048,776" /><polygon points="-391.6353,776 -414.11,776 -414.11,768 -391.6353,768" /><polygon points="-24,808 -24,808 -24,840 -24,840" /><polygon points="168,1024 168,1016 168,1008 24,1008 24,1032 24,1064 168,1064" /><polygon points="175.6337,968 168,968 168,1008 168,1016 175.6337,1016 191.4866,1016 191.4866,968" /><polygon points="191.4866,1024 175.6337,1024 168,1024 168,1064 200,1064 224,1064 224,1024" /><polygon points="191.4866,1016 191.4866,1024 224,1024 224,968 207,968 191.4866,968" /><polygon points="168,1016 168,1024 175.6337,1024 175.6337,1016" /><polygon points="168,960 168,968 175.6337,968 175.6337,960" /><polygon points="167,944 167,936 168,936 168,944" /><polygon points="191.4866,960 191.4866,968 207,968 207,960" /><polygon points="175.6337,960 191.4866,960 207,960 207,944 183,944 168,944 168,960" /><polygon points="207,944 207,936 183,936 183,944" /><polygon points="224,968 224,944 223,944 207,944 207,960 207,968" /><polygon points="224,936 223,936 223,944 224,944" /><polygon points="168,864 168,808 144,808 24,808 24,864" /><polygon points="183,936 207,936 223,936 224,936 224,936 168,936 168,936" /><polygon points="24,1008 168,1008 168,1008 24,1008" /><polygon points="168,968 168,960 168,944 168,936 168,936 168,1008 168,1008" /><polygon points="191.4866,960 175.6337,960 222.7189,960 222.9194,960" /><polygon points="167,944 168,944 183,944 183,928 183,912 183,896 183,880 183,864 167,864" /><polygon points="207,936 207,944 207,928 207,928" /><polygon points="223,936 223,928 223,928 223,944" /><polygon points="207,936 207,928 223,928 223,936" /><polygon points="183,936 183,928 183,928 183,944" /><polygon points="168,936 167,936 167,928 168,928 183,928 183,936" /><polygon points="175.6337,1016 222.7189,1016 222.9194,1016 191.4866,1016" /><polygon points="191.4866,968 222.9194,968 222.7189,968 175.6337,968" /><polygon points="191.4866,968 191.4866,960 222.9194,960 222.9194,968" /><polygon points="175.6337,960 175.6337,968 222.7189,968 222.7189,960" /><polygon points="191.4866,1024 222.9194,1024 222.7189,1024 175.6337,1024" /><polygon points="191.4866,1016 222.9194,1016 222.9194,1024 191.4866,1024" /><polygon points="175.6337,1024 222.7189,1024 222.7189,1016 175.6337,1016" /><polygon points="24,1008 24,864 24,808 -24,808 -24,840 -24,1032 24,1032" /><polygon points="-24,1032 -24,1064 24,1064 24,1032" /><polygon points="224,920 224,936 224,936 224,936 224,928 224,920" /><polygon points="224,936 224,920 224,864 224,864 224,864 224,1040 224,1048 224,1064 224,1064" /><polygon points="224,864 224,920 224,920 224,920 224,912 224,904 224,864" /><polygon points="224,192 224,192 224,200 224,200 224,192" /><polygon points="224,64 224,64 224,64 224,56 224,48 224,48" /><polygon points="224,-104 224,-104 224,-40 224,-40" /><polygon points="224,-104 224,-40 224,48 224,48 224,48 224,48 224,40 224,32 224,16 224,-104" /><polygon points="-424,824 -424,824 -424,824 -424,968.0636 -424,983.5779 -424,999.7074 -424,1016.2215 -424,1064 -424,1064 -424,824" /><polygon points="-424,824 -424,808 -424,808 -424,824" /><polygon points="-424,648 -424,648 -424,624 -424,616 -424,552 -424,552 -424,616 -424,648" /><polygon points="-336,216 -336,216 -336,216 -336,216 -336,224 -336,240 -336,256 -336,256 -336,216" /><polygon points="-336,216 -336,176 -336,176 -336,184 -336,192 -336,216" /><polygon points="168,184 167,184 167,192 168,192" /><polygon points="168,64 224,64 224,184 168,184" /><polygon points="224,184 224,184 168,184 168,184" /><polygon points="207,192 183,192 183,192 207,192" /><polygon points="167,192 167,184 167,192" /><polygon points="167,192 167,192 167,200 167,208 167,216 167,224 167,232 167,240 167,248 167,256 167,264 167,272" /><polygon points="207,192 207,192 207,200 207,208" /><polygon points="183,192 207,192 223,192 224,192 224,192 168,192 168,192" /><polygon points="-280,40 -280,32 -280,32 -280,64 -280,72 -280,120 -280,128 -280,168 -280,176 -280,176" /><polygon points="-320,32 -320,32 -312,32 -296,32 -296,32 -296,32 -320,32" /><polygon points="-320,32 -336,32 -336,32 -320,32" /><polygon points="-336,48 -336,40 -280,40 -280,176 -336,176" /><polygon points="-168,808 -168,808 -200,808 -200,808" /><polygon points="-168,648 -168,648 -168,552 -168,552 -168,552 -168,616 -168,624 -168,648" /><polygon points="-224,760 -224,752 -224,680 -168,680 -168,808 -200,808 -224,808" /><polygon points="-368,680 -368,680 -368,688 -368,712 -368,720 -368,736 -368,752 -368,752" /><polygon points="-328,752 -368,752 -368,752 -328,752" /><polygon points="-328,752 -328,752 -320,752 -320,752 -320,752 -328,752" /><polygon points="-304,752 -296,752 -296,752 -304,752" /><polygon points="-280,752 -280,752 -272,752 -272,752 -272,752 -280,752" /><polygon points="-272,760 -272,760 -272,752 -272,752" /><polygon points="-272,752 -224,752 -224,760 -272,760" /><polygon points="-368,760 -368,752 -328,752 -328,760" /><polygon points="-328,760 -272,760 -224,760 -224,808 -368,808 -368,760" /><polygon points="-424,680 -368,680 -368,752 -368,760 -368,808 -424,808" /><polygon points="-424,680 -424,680 -408,680 -384,680 -368,680 -368,680" /><polygon points="-24,840 -24,864 -24,1064 -24,1064 -24,1032 -24,840" /><polygon points="128,808 144,808 168,808 168,864 24,864 -24,864 -24,840 -24,808" /><polygon points="168,1008 168,936 224,936 224,1064 168,1064" /><polygon points="24,1008 168,1008 168,1064 24,1064" /><polygon points="24,1008 24,1064 -24,1064 -24,864 24,864" /><polygon points="24,864 24,864 24,1008 24,1008" /><polygon points="168,808 168,808 168,864 168,864" /><polygon points="168,864 168,864 24,864 24,864" /><polygon points="-200,824 -424,824 -424,824 -200,824" /><polygon points="-200,808 -224,808 -368,808 -424,808 -424,824 -200,824" /><polygon points="-168,824 -168,808 -200,808 -200,824" /><polygon points="224,200 224,200 224,208 224,216 224,216 224,200" /><polygon points="224,192 224,184 224,48 224,48 224,200 224,200 224,200" /><polygon points="224,-40 224,48 224,184 224,184 224,64 224,48 224,-40" /><polygon points="-336,48 -336,40 -336,40 -336,48" /><polygon points="224,192 224,192 223,192 223,192" /><polygon points="224,184 224,192 223,192 207,192 183,192 168,192 168,184" /><polygon points="168,192 168,184 168,184" /><polygon points="167,192 167,184 168,184 168,192" /><polygon points="223,192 223,192 223,208 223,200" /><polygon points="183,192 183,192 183,208 183,200" /><polygon points="-280,32 -280,40 -280,40" /><polygon points="-280,32 -280,24 -280,16 -280,32 -280,40" /><polygon points="-280,40 -280,40 -336,40 -336,40" /><polygon points="-320,32 -320,24 -320,16 -320,32" /><polygon points="-320,32 -296,32 -280,32 -280,40 -336,40 -336,32" /><polygon points="-296,752 -296,752 -296,736 -296,744" /><polygon points="-280,752 -280,744 -280,736 -280,752" /><polygon points="-304,752 -304,744 -304,736 -304,752" /><polygon points="-320,752 -304,752 -296,752 -280,752 -272,752 -272,760 -328,760 -328,752" /><polygon points="-272,760 -272,760 -328,760 -328,760" /><polygon points="-328,752 -328,760 -328,760 -328,752" /><polygon points="224,208 224,208 224,216 224,216" /><polygon points="207,200 207,192 223,192 223,200" /><polygon points="168,200 167,200 167,192 168,192 183,192 183,200" /><polygon points="183,200 207,200 223,200 224,200 224,200 168,200 168,200" /><polygon points="207,208 207,208 207,216 207,224" /><polygon points="224,200 223,200 223,208 224,208" /><polygon points="207,200 183,200 183,208 207,208" /><polygon points="207,208 183,208 183,208 207,208" /><polygon points="-72,152 -88,152 -88,160 -72,160" /><polygon points="-320,24 -320,32 -336,32 -336,24" /><polygon points="-280,24 -280,32 -296,32 -296,24" /><polygon points="-296,16 -296,24 -296,32 -296,32" /><polygon points="-280,16 -280,0 -280,-16 -280,-48 -296,-48 -296,-32 -296,-16 -296,0 -296,16 -296,32 -280,32" /><polygon points="-296,16 -320,16 -320,24 -296,24" /><polygon points="-320,16 -296,16 -296,16 -320,16" /><polygon points="-320,16 -320,0 -320,-16 -320,-32 -320,-48 -336,-48 -336,32 -320,32" /><polygon points="-272,744 -272,744 -272,736 -272,736" /><polygon points="-280,736 -280,720 -280,704 -280,688 -280,680 -296,680 -296,688 -296,704 -296,720 -296,736 -296,752 -280,752" /><polygon points="-304,736 -304,720 -304,704 -304,688 -304,680 -320,680 -320,688 -320,704 -320,720 -320,736 -320,752 -304,752" /><polygon points="-272,736 -280,736 -280,744 -272,744" /><polygon points="-296,736 -304,736 -304,744 -296,744" /><polygon points="-320,736 -328,736 -328,744 -320,744" /><polygon points="-280,736 -272,736 -272,736 -280,736" /><polygon points="-304,736 -296,736 -296,736 -304,736" /><polygon points="-280,744 -280,752 -296,752 -296,744" /><polygon points="-320,736 -320,744 -320,752 -320,752" /><polygon points="-304,744 -304,752 -320,752 -320,744" /><polygon points="224,808 224,808 224,832 224,840 224,864 224,864 224,864 224,864 224,864 224,864 224,864 224,856 224,808" /><polygon points="224,584 224,648 224,808 224,808 224,808 224,664 224,584" /><polygon points="224,360 224,408 224,424 224,584 224,584 224,440 224,360" /><polygon points="224,408 224,408 176,408 168,408 144,408 144,408" /><polygon points="-256,408 -256,408 -240,408 -240,408" /><polygon points="-336,408 -256,408 -240,408 -240,408 -272,408 -280,408 -336,408" /><polygon points="-336,408 -336,408 -336,360 -336,256 -336,256 -336,256 -336,256 -336,408" /><polygon points="-336,24 -336,24 -336,32 -336,40 -336,48 -336,48 -336,24" /><polygon points="167,208 167,200 168,200 168,208" /><polygon points="168,208 168,200 168,200" /><polygon points="223,208 207,208 183,208 168,208 168,200 224,200 224,208" /><polygon points="224,208 224,208 223,208 223,208" /><polygon points="-72,152 -72,152 -72,160 -72,160" /><polygon points="-88,152 -88,152 -72,152 -72,152" /><polygon points="-88,160 -88,160 -88,152 -88,152" /><polygon points="-88,160 -88,152 -72,152 -72,160" /><polygon points="-72,160 -72,160 -88,160 -88,160" /><polygon points="-280,16 -280,16 -280,24 -280,24" /><polygon points="-296,16 -296,16 -296,0 -296,8" /><polygon points="-320,16 -296,16 -280,16 -280,24 -336,24 -336,16" /><polygon points="-280,24 -280,24 -296,24 -320,24 -336,24 -336,24" /><polygon points="128,808 144,808 144,808 128,808" /><polygon points="224,808 144,808 128,808 128,808 192,808 200,808 224,808" /><polygon points="224,408 144,408 144,424 224,424" /><polygon points="224,584 224,424 144,424 144,584 144,648 224,648" /><polygon points="144,648 144,808 224,808 224,648" /><polygon points="144,424 144,408 144,408 144,440 144,584 144,584" /><polygon points="-336,552 -336,552 -368,552 -368,552" /><polygon points="-256,552 -168,552 -168,552 -168,552 -168,552 -168,552 -168,552 -256,552" /><polygon points="-256,552 -256,536 -336,536 -336,552" /><polygon points="-256,408 -336,408 -336,536 -256,536" /><polygon points="-336,536 -336,408 -336,408 -336,424 -336,552 -336,552" /><polygon points="-328,736 -328,744 -328,744 -328,736" /><polygon points="-328,736 -328,736 -320,736 -320,736" /><polygon points="-272,744 -272,744 -280,744 -296,744 -304,744 -320,744 -328,744 -328,744" /><polygon points="-320,736 -304,736 -296,736 -280,736 -272,736 -272,744 -328,744 -328,736" /><polygon points="224,224 224,288 224,288 224,216 224,216" /><polygon points="224,224 224,224 224,232 224,248 224,288 224,288" /><polygon points="224,288 224,288 224,288 224,288 224,296 224,344 224,352 224,408 224,408 224,408 224,408 224,360 224,288" /><polygon points="207,216 207,208 223,208 223,216" /><polygon points="168,216 167,216 167,208 168,208 183,208 183,216" /><polygon points="224,216 223,216 223,224 224,224" /><polygon points="223,216 223,208 223,208 223,224" /><polygon points="207,224 183,224 183,224 207,224" /><polygon points="183,216 183,208 183,208 183,224" /><polygon points="207,216 183,216 183,224 207,224" /><polygon points="-280,8 -280,0 -280,16 -280,16" /><polygon points="-320,8 -320,16 -336,16 -336,8" /><polygon points="-280,8 -280,16 -296,16 -296,8" /><polygon points="-320,8 -320,0 -320,16 -320,16" /><polygon points="-296,0 -320,0 -320,8 -296,8" /><polygon points="-320,0 -296,0 -296,0 -320,0" /><polygon points="-272,728 -272,728 -272,720 -272,720" /><polygon points="-272,720 -280,720 -280,728 -272,728" /><polygon points="-320,720 -328,720 -328,728 -320,728" /><polygon points="-296,720 -304,720 -304,728 -296,728" /><polygon points="-280,720 -272,720 -272,720 -280,720" /><polygon points="-304,720 -296,720 -296,720 -304,720" /><polygon points="-304,728 -304,720 -304,736 -304,736" /><polygon points="-280,728 -280,720 -280,736 -280,736" /><polygon points="-296,720 -296,728 -296,736 -296,736" /><polygon points="-280,728 -280,736 -296,736 -296,728" /><polygon points="-320,720 -320,728 -320,736 -320,736" /><polygon points="-304,728 -304,736 -320,736 -320,728" /><polygon points="-280,-104 -272,-104 -224,-104 -216,-104 -216,-104 -336,-104 -336,-104 -336,-104 -336,-104" /><polygon points="-280,-104 -280,-104 -272,-104 -272,-104" /><polygon points="-272,-104 -272,-104 -272,-104 -224,-104 -224,-104 -224,-104" /><polygon points="-224,-104 -224,-104 -216,-104 -216,-104" /><polygon points="-200,1064 -424,1064 -424,1064 -200,1064" /><polygon points="224,832 224,832 224,840 224,840" /><polygon points="224,808 224,808 224,832 224,832 224,832" /><polygon points="224,288 224,248 224,248 224,248 224,248 224,256 224,264 224,288" /><polygon points="176,408 176,408 168,408 168,408" /><polygon points="224,408 224,408 176,408 176,408 176,408" /><polygon points="144,408 168,408 168,408 168,408 112,408 112,408 112,408" /><polygon points="112,408 112,408 104,408 104,408" /><polygon points="-16,408 -24,408 -80,408 -88,408 -144,408 -152,408 -208,408 -216,408 -240,408 -240,408 -240,408 -16,408" /><polygon points="48,408 48,408 40,408 40,408" /><polygon points="40,408 40,408 40,408 -16,408 -16,408 -16,408" /><polygon points="104,408 104,408 104,408 48,408 48,408 48,408" /><polygon points="-16,408 -16,408 -24,408 -24,408" /><polygon points="-80,408 -80,408 -88,408 -88,408" /><polygon points="-24,408 -24,408 -24,408 -56,408 -80,408 -80,408 -80,408" /><polygon points="-88,408 -88,408 -88,408 -144,408 -144,408 -144,408" /><polygon points="-144,408 -144,408 -152,408 -152,408" /><polygon points="-152,408 -152,408 -152,408 -208,408 -208,408 -208,408" /><polygon points="-208,408 -208,408 -216,408 -216,408" /><polygon points="-240,408 -216,408 -216,408 -216,408 -272,408 -272,408 -272,408" /><polygon points="-272,408 -272,408 -280,408 -280,408" /><polygon points="-336,408 -280,408 -280,408 -280,408 -280,408 -336,408" /><polygon points="-336,216 -336,216 -336,208 -336,200 -336,168 -336,112 -336,104 -336,48 -336,48 -336,48 -336,48 -336,48 -336,176 -336,216" /><polygon points="-336,8 -336,8 -336,16 -336,24 -336,24" /><polygon points="167,224 167,216 168,216 168,224" /><polygon points="223,224 207,224 183,224 168,224 168,216 224,216 224,224" /><polygon points="168,224 168,216 168,216" /><polygon points="168,216 168,216 183,216 207,216 223,216 224,216 224,216" /><polygon points="207,224 207,232 207,240 207,224" /><polygon points="224,224 224,224 223,224 223,224" /><polygon points="-280,0 -280,0 -280,8 -280,8" /><polygon points="-280,8 -280,8 -296,8 -320,8 -336,8 -336,8" /><polygon points="-336,8 -336,0 -320,0 -296,0 -280,0 -280,8" /><polygon points="128,808 -24,808 -24,808 192,808 192,808 192,808" /><polygon points="224,808 200,808 200,808 200,808 224,808" /><polygon points="200,808 192,808 192,808 200,808" /><polygon points="-24,808 128,808 128,808 128,808 -24,808" /><polygon points="-24,808 -24,808 -24,808 -24,808 -152,808 -168,808 -168,808 -168,808 -168,808 -168,808 -168,808" /><polygon points="-168,808 -168,808 -200,808 -200,808 -168,808" /><polygon points="-168,552 -168,552 -168,616 -168,616" /><polygon points="-168,624 -168,624 -168,648 -168,648" /><polygon points="-168,648 -168,648 -168,648 -168,808 -168,808 -168,808 -168,680 -168,648" /><polygon points="-360,552 -352,552 -304,552 -296,552 -248,552 -240,552 -224,552 -168,552 -168,552 -256,552 -336,552 -368,552 -368,552" /><polygon points="-224,552 -240,552 -240,552 -224,552" /><polygon points="-168,624 -200,624 -192,624 -168,624" /><polygon points="-168,624 -168,616 -200,616 -200,624" /><polygon points="-328,720 -328,728 -328,728 -328,720" /><polygon points="-328,720 -328,720 -320,720 -320,720" /><polygon points="-328,728 -328,720 -320,720 -304,720 -296,720 -280,720 -272,720 -272,728" /><polygon points="-272,728 -272,728 -280,728 -296,728 -304,728 -320,728 -328,728 -328,728" /><polygon points="-24,840 -24,1064 -24,1064 -24,864 -24,840" /><polygon points="-168,824 -168,824 -200,824 -200,824" /><polygon points="-168,808 -168,808 -168,824 -168,824" /><polygon points="-24,824 -24,808 -168,808 -168,824" /><polygon points="-200,824 -424,824 -424,1064 -200,1064" /><polygon points="-24,1064 -24,840 -24,824 -168,824 -200,824 -200,1064" /><polygon points="-168,-104 -168,-104 -216,-104 -216,-104 -216,-104 -216,-104 -168,-104" /><polygon points="-112,-104 -112,-104 -160,-104 -160,-104 -160,-104 -112,-104" /><polygon points="-56,-104 -56,-104 -104,-104 -104,-104 -104,-104 -56,-104" /><polygon points="0,-104 0,-104 -48,-104 -48,-104 -48,-104 0,-104" /><polygon points="112,-104 112,-104 112,-104 64,-104 64,-104 64,-104 112,-104" /><polygon points="56,-104 56,-104 8,-104 8,-104 8,-104 56,-104" /><polygon points="176,-104 176,-104 176,-104 224,-104 224,-104 224,-104 224,-104 176,-104" /><polygon points="24,1064 24,1064 -24,1064 -24,1064 -24,1064 24,1064" /><polygon points="208,1064 200,1064 120,1064 24,1064 24,1064 168,1064 224,1064 224,1064" /><polygon points="24,1064 120,1064 120,1064 120,1064 112,1064 88,1064 80,1064 24,1064" /><polygon points="224,1064 224,1064 208,1064 208,1064" /><polygon points="200,1064 200,1064 120,1064 120,1064" /><polygon points="224,864 224,864 224,1040 224,1040" /><polygon points="224,840 224,840 224,864 224,864 224,864 224,840" /><polygon points="224,240 224,248 224,248 224,232 224,232" /><polygon points="224,240 224,240 224,248 224,248" /><polygon points="-424,648 -424,624 -424,624 -424,648" /><polygon points="-424,552 -424,552 -424,616 -424,616" /><polygon points="207,232 207,224 223,224 223,232" /><polygon points="168,232 167,232 167,224 168,224 183,224 183,232" /><polygon points="183,232 207,232 223,232 224,232 224,232 168,232 168,232" /><polygon points="224,232 223,232 223,240 224,240" /><polygon points="223,240 223,232 223,224 223,224" /><polygon points="207,240 183,240 183,240 207,240" /><polygon points="183,240 183,232 183,224 183,224" /><polygon points="207,232 183,232 183,240 207,240" /><polygon points="104,408 104,376 104,384 104,408" /><polygon points="168,408 168,376 168,384 168,408" /><polygon points="40,408 40,376 40,384 40,408" /><polygon points="-88,144 -96,144 -96,144 -88,144" /><polygon points="-64,144 -72,144 -72,144 -64,144" /><polygon points="-72,144 -72,112 -72,120 -72,144" /><polygon points="-88,144 -88,112 -96,112 -96,144" /><polygon points="-96,160 -96,168 -96,168 -96,160" /><polygon points="-96,144 -96,152 -96,152 -96,144" /><polygon points="-96,168 -88,168 -88,168 -96,168" /><polygon points="-72,168 -64,168 -64,168 -72,168" /><polygon points="-64,152 -64,144 -64,144 -64,152" /><polygon points="-64,168 -64,160 -64,160 -64,168" /><polygon points="-72,144 -72,144 -72,144 -72,152 -72,152 -72,152 -72,152 -72,152 -72,152 -72,144" /><polygon points="-64,160 -64,160 -64,160 -72,160 -72,160 -72,160 -72,160 -72,160 -72,160 -64,160" /><polygon points="-96,152 -96,152 -96,152 -88,152 -88,152 -88,152 -88,152 -88,152 -88,152 -96,152" /><polygon points="-88,168 -88,168 -88,168 -88,160 -88,160 -88,160 -88,160 -88,160 -88,160 -88,168" /><polygon points="-72,168 -72,200 -64,200 -64,168" /><polygon points="-96,152 -128,152 -120,152 -96,152" /><polygon points="-96,160 -128,160 -128,168 -96,168" /><polygon points="-280,-8 -280,-16 -280,0 -280,0" /><polygon points="-320,-8 -320,0 -336,0 -336,-8" /><polygon points="-280,-8 -280,0 -296,0 -296,-8" /><polygon points="-296,-16 -296,-8 -296,0 -296,0" /><polygon points="-320,-8 -320,-16 -320,0 -320,0" /><polygon points="-320,-16 -296,-16 -296,-16 -320,-16" /><polygon points="-296,-16 -320,-16 -320,-8 -296,-8" /><polygon points="-152,408 -152,376 -152,384 -152,408" /><polygon points="-88,408 -88,376 -88,384 -88,408" /><polygon points="-24,408 -24,376 -24,384 -24,408" /><polygon points="-216,408 -216,376 -216,384 -216,408" /><polygon points="-280,408 -280,376 -280,384 -280,408" /><polygon points="-168,624 -168,616 -168,552 -168,552 -168,616 -168,624 -168,648 -168,648" /><polygon points="-360,552 -360,552 -368,552 -424,552 -424,552 -424,552 -368,552 -360,552" /><polygon points="-352,552 -360,552 -360,552 -352,552" /><polygon points="-352,552 -352,552 -328,552 -304,552 -304,552 -304,552 -352,552" /><polygon points="-248,552 -248,552 -296,552 -296,552" /><polygon points="-224,552 -224,552 -168,552 -168,552 -168,552 -224,552" /><polygon points="-296,552 -296,552 -296,584 -296,576" /><polygon points="-240,552 -240,552 -240,584 -240,576" /><polygon points="-352,552 -352,552 -352,584 -352,576" /><polygon points="-272,712 -272,712 -272,704 -272,704" /><polygon points="-304,704 -296,704 -296,704 -304,704" /><polygon points="-280,704 -272,704 -272,704 -280,704" /><polygon points="-320,704 -328,704 -328,712 -320,712" /><polygon points="-296,704 -304,704 -304,712 -296,712" /><polygon points="-272,704 -280,704 -280,712 -272,712" /><polygon points="-296,704 -296,712 -296,720 -296,720" /><polygon points="-280,712 -280,704 -280,720 -280,720" /><polygon points="-280,712 -280,720 -296,720 -296,712" /><polygon points="-304,712 -304,704 -304,720 -304,720" /><polygon points="-320,704 -320,712 -320,720 -320,720" /><polygon points="-304,712 -304,720 -320,720 -320,712" /><polygon points="-424,616 -424,616 -392,616 -400,616" /><polygon points="-424,624 -424,616 -400,616 -400,624" /><polygon points="192,808 224,840 224,832 200,808" /><polygon points="224,1040 200,1064 208,1064 224,1048" /><polygon points="216.7287,344 191.6881,344 175.9235,344 216.518,344" /><polygon points="216.7278,352 216.7287,344 216.518,344 216.517,352" /><polygon points="215.2637,288 191.6881,288 183,288 175.9235,288 215.0465,288" /><polygon points="215.2628,296 215.2637,288 215.0465,288 215.0456,296" /><polygon points="-280,-104 -280,-104 -280,-104 -336,-104 -336,-104 -320,-104 -296,-104 -280,-104" /><polygon points="-56,-104 -104,-104 -112,-104 -160,-104 -168,-104 -216,-104 -224,-104 -272,-104 -280,-104 -280,-104 -272,-104 -224,-104 -56,-104" /><polygon points="176,-104 168,-104 168,-104 176,-104" /><polygon points="120,1064 200,1064 208,1064 224,1064 224,1064 120,1064" /><polygon points="224,1048 224,1064 224,1064 224,1048" /><polygon points="224,832 224,808 224,808 224,840 224,840" /><polygon points="224,232 224,232 224,232 224,224 224,216 224,216" /><polygon points="176,408 224,408 224,408 176,408 168,408 168,408" /><polygon points="176,-104 176,-104 176,-72 176,-80" /><polygon points="120,-104 120,-104 120,-72 120,-80" /><polygon points="64,-104 64,-104 64,-72 64,-80" /><polygon points="8,-104 8,-104 8,-72 8,-80" /><polygon points="167,240 167,232 168,232 168,240" /><polygon points="168,240 168,232 168,232" /><polygon points="224,232 224,240 223,240 207,240 183,240 168,240 168,232" /><polygon points="224,240 224,240 223,240 223,240" /><polygon points="168,408 168,384 176,384 176,408" /><polygon points="104,408 104,384 112,384 112,408" /><polygon points="40,408 40,384 48,384 48,408" /><polygon points="-96,144 -120,144 -128,144 -96,144" /><polygon points="-48,-104 -48,-104 -48,-72 -48,-80" /><polygon points="-64,144 -64,120 -64,112 -64,144" /><polygon points="-72,144 -72,120 -64,120 -64,144" /><polygon points="-96,144 -96,120 -88,120 -88,144" /><polygon points="-104,-104 -104,-104 -104,-72 -104,-80" /><polygon points="-160,-104 -160,-104 -160,-72 -160,-80" /><polygon points="-96,168 -96,192 -96,200 -96,168" /><polygon points="-88,168 -88,168 -88,200 -88,192" /><polygon points="-272,-104 -272,-104 -272,-72 -272,-80" /><polygon points="-216,-104 -216,-104 -216,-72 -216,-80" /><polygon points="-280,-16 -280,-16 -280,-8 -280,-8" /><polygon points="-296,-16 -296,-16 -296,-32 -296,-24" /><polygon points="-280,-8 -280,-8 -296,-8 -320,-8 -336,-8 -336,-8" /><polygon points="-320,-16 -296,-16 -280,-16 -280,-8 -336,-8 -336,-16" /><polygon points="-24,408 -24,384 -16,384 -16,408" /><polygon points="-88,408 -88,384 -80,384 -80,408" /><polygon points="-152,408 -152,384 -144,384 -144,408" /><polygon points="-216,408 -216,384 -208,384 -208,408" /><polygon points="-280,408 -280,384 -272,384 -272,408" /><polygon points="192,808 -24,808 -24,808 80,808 88,808 112,808 120,808 200,808 200,808" /><polygon points="-328,704 -328,712 -328,712 -328,704" /><polygon points="-328,704 -328,704 -320,704 -320,704" /><polygon points="-320,704 -304,704 -296,704 -280,704 -272,704 -272,712 -328,712 -328,704" /><polygon points="-272,712 -272,712 -280,712 -296,712 -304,712 -320,712 -328,712 -328,712" /><polygon points="224,832 224,840 192,808 200,808" /><polygon points="224,840 224,840 192,808 192,808" /><polygon points="200,808 200,808 224,832 224,832" /><polygon points="208,1064 200,1064 224,1040 224,1048" /><polygon points="200,1064 200,1064 224,1040 224,1040" /><polygon points="224,1048 224,1048 208,1064 208,1064" /><polygon points="224,264 224,264 224,264 224,272 224,288 224,288" /><polygon points="207,248 207,240 223,240 223,248" /><polygon points="168,248 167,248 167,240 168,240 183,240 183,248" /><polygon points="183,248 207,248 223,248 224,248 224,248 168,248 168,248" /><polygon points="207,256 207,256 207,264 207,272" /><polygon points="207,248 207,256 207,240 207,240" /><polygon points="223,256 223,240 223,224 223,208 223,192 207,192 207,208 207,224 207,240 207,256 207,272 223,272" /><polygon points="224,248 223,248 223,256 224,256" /><polygon points="223,248 223,240 223,240 223,256" /><polygon points="183,256 183,240 183,224 183,208 183,192 168,192 167,192 167,272 168,272 183,272" /><polygon points="207,248 183,248 183,256 207,256" /><polygon points="207,256 183,256 183,256 207,256" /><polygon points="183,248 183,240 183,240 183,256" /><polygon points="-280,-24 -280,-32 -280,-40 -280,-48 -280,-16 -280,-16" /><polygon points="-320,-24 -320,-16 -336,-16 -336,-24" /><polygon points="-280,-24 -280,-16 -296,-16 -296,-24" /><polygon points="-320,-32 -320,-32 -320,-40 -320,-48" /><polygon points="-320,-24 -320,-32 -320,-16 -320,-16" /><polygon points="-320,-32 -296,-32 -296,-32 -320,-32" /><polygon points="-296,-32 -320,-32 -320,-24 -296,-24" /><polygon points="-272,696 -272,696 -272,688 -272,688" /><polygon points="-320,688 -328,688 -328,696 -320,696" /><polygon points="-296,688 -304,688 -304,696 -296,696" /><polygon points="-272,688 -280,688 -280,696 -272,696" /><polygon points="-280,688 -272,688 -272,688 -280,688" /><polygon points="-304,688 -296,688 -296,688 -304,688" /><polygon points="-304,696 -304,688 -304,704 -304,704" /><polygon points="-280,696 -280,688 -280,704 -280,704" /><polygon points="-296,688 -296,696 -296,704 -296,704" /><polygon points="-280,696 -280,704 -296,704 -296,696" /><polygon points="-320,688 -320,696 -320,704 -320,704" /><polygon points="-304,696 -304,704 -320,704 -320,696" /><polygon points="120,928 120,944 120,944 120,928" /><polygon points="80,944 80,928 80,928 80,944" /><polygon points="112,928 112,944 120,944 120,928" /><polygon points="112,952 120,952 120,944 112,944 88,944 88,952" /><polygon points="112,928 120,928 120,920 112,920 88,920 88,928" /><polygon points="88,944 88,928 88,920 80,920 80,928 80,944 80,952 88,952" /><polygon points="88,928 88,944 88,944 88,928" /><polygon points="112,944 112,928 112,928 112,944" /><polygon points="224,256 224,264 224,264 224,256" /><polygon points="224,216 224,248 224,248 224,248 224,240 224,232 224,216" /><polygon points="224,256 224,248 224,216 224,48 224,48 224,48 224,184 224,264 224,264 224,264" /><polygon points="224,48 224,216 224,216 224,216 224,216 224,216 224,208 224,200 224,48" /><polygon points="-424,808 -424,648 -424,648 -424,648 -424,648 -424,680 -424,808" /><polygon points="-424,624 -424,616 -424,552 -424,552 -424,616 -424,624 -424,648 -424,648" /><polygon points="-336,48 -336,-8 -336,-8 -336,-8 -336,0 -336,8 -336,24 -336,48" /><polygon points="-336,-8 -336,-24 -336,-24 -336,-16 -336,-8" /><polygon points="167,256 167,248 168,248 168,256" /><polygon points="168,256 168,248 168,248" /><polygon points="224,248 224,256 223,256 207,256 183,256 168,256 168,248" /><polygon points="224,256 224,256 223,256 223,256" /><polygon points="183,256 183,256 183,272 183,264" /><polygon points="-280,-32 -280,-24 -280,-24" /><polygon points="-280,-24 -280,-24 -296,-24 -320,-24 -336,-24 -336,-24" /><polygon points="-336,-24 -336,-32 -320,-32 -296,-32 -280,-32 -280,-24" /><polygon points="-200,808 -224,808 -368,808 -424,808 -424,808 -368,808 -224,808 -200,808" /><polygon points="-280,552 -272,552 -248,552 -224,552 -224,552 -240,552 -248,552 -296,552 -304,552 -304,552" /><polygon points="-224,624 -224,616 -224,592 -224,592 -224,776 -224,784 -224,784" /><polygon points="-224,616 -224,624 -200,624 -200,616" /><polygon points="-192,616 -192,624 -168,624 -168,616" /><polygon points="-224,576 -224,592 -224,616 -200,616 -192,616 -168,616 -168,552 -224,552" /><polygon points="-200,616 -168,616 -168,616 -192,616" /><polygon points="-192,624 -192,616 -168,616 -168,624" /><polygon points="-168,648 -168,624 -192,624 -200,624 -224,624 -224,784 -224,808 -200,808 -168,808" /><polygon points="-320,680 -328,680 -328,680 -320,680" /><polygon points="-296,680 -304,680 -304,680 -296,680" /><polygon points="-224,552 -248,552 -248,576 -240,576 -224,576" /><polygon points="-248,592 -240,592 -240,584 -248,584" /><polygon points="-240,584 -240,592 -224,592 -224,576 -240,576" /><polygon points="-248,584 -248,576 -248,552 -272,552 -272,592 -248,592" /><polygon points="-280,592 -280,576 -296,576 -296,584 -296,592" /><polygon points="-296,576 -280,576 -280,552 -304,552 -304,576" /><polygon points="-272,592 -272,552 -280,552 -280,576 -280,592" /><polygon points="-296,592 -296,584 -304,584 -304,592" /><polygon points="-352,584 -352,592 -328,592 -328,576 -352,576" /><polygon points="-304,592 -304,584 -304,576 -304,552 -328,552 -328,576 -328,592" /><polygon points="-352,576 -328,576 -328,552 -352,552 -360,552 -360,576" /><polygon points="-360,592 -352,592 -352,584 -360,584" /><polygon points="-272,592 -280,592 -296,592 -304,592 -328,592 -328,680 -320,680 -304,680 -296,680 -280,680 -272,680" /><polygon points="-360,584 -360,576 -360,552 -368,552 -368,592 -360,592" /><polygon points="-328,592 -328,592 -328,680 -328,680" /><polygon points="-248,584 -248,552 -248,552 -248,576" /><polygon points="-248,576 -248,552 -240,552 -240,576" /><polygon points="-240,584 -240,552 -248,552 -248,584" /><polygon points="-304,584 -304,552 -304,552 -304,576" /><polygon points="-304,576 -304,552 -296,552 -296,576" /><polygon points="-296,584 -296,552 -304,552 -304,584" /><polygon points="-360,584 -360,552 -360,552 -360,576" /><polygon points="-360,576 -360,552 -352,552 -352,576" /><polygon points="-352,584 -352,552 -360,552 -360,584" /><polygon points="-328,688 -328,696 -328,696 -328,688" /><polygon points="-328,688 -328,688 -320,688 -320,688" /><polygon points="-296,680 -296,680 -296,688 -296,688" /><polygon points="-280,688 -280,680 -280,680 -280,688" /><polygon points="-304,688 -304,680 -304,680 -304,688" /><polygon points="-320,680 -320,680 -320,688 -320,688" /><polygon points="-320,688 -304,688 -296,688 -280,688 -272,688 -272,696 -328,696 -328,688" /><polygon points="-272,696 -272,696 -280,696 -296,696 -304,696 -320,696 -328,696 -328,696" /><polygon points="-224,808 -224,784 -368,784 -368,808" /><polygon points="-224,784 -224,784 -368,784 -368,784" /><polygon points="-392,624 -424,624 -424,624 -400,624" /><polygon points="-368,592 -368,552 -424,552 -424,616 -400,616 -392,616 -368,616" /><polygon points="-400,624 -400,616 -424,616 -424,624" /><polygon points="-392,624 -368,624 -368,616 -392,616" /><polygon points="-392,616 -424,616 -424,624 -392,624" /><polygon points="-368,784 -368,624 -392,624 -400,624 -424,624 -424,648 -424,808 -368,808" /><polygon points="120,920 120,896 120,888 120,920" /><polygon points="120,952 144,952 152,952 120,952" /><polygon points="120,928 144,928 152,928 120,928" /><polygon points="120,928 120,920 144,920 144,928" /><polygon points="120,952 120,944 144,944 144,952" /><polygon points="80,952 80,976 80,984 80,952" /><polygon points="80,920 80,896 88,896 88,920" /><polygon points="112,920 112,896 120,896 120,920" /><polygon points="88,920 88,920 112,920 112,920" /><polygon points="88,920 88,896 88,888 88,920" /><polygon points="112,952 112,952 88,952 88,952" /><polygon points="112,952 112,944 112,928 112,920 120,920 120,928 120,944 120,952" /><polygon points="112,928 112,928 88,928 88,928" /><polygon points="88,928 88,920 112,920 112,928" /><polygon points="88,952 88,944 112,944 112,952" /><polygon points="88,944 88,944 112,944 112,944" /><polygon points="80,952 80,944 80,928 80,920 88,920 88,928 88,944 88,952" /><polygon points="112,952 112,976 112,984 112,952" /><polygon points="80,920 56,920 48,920 80,920" /><polygon points="80,944 56,944 48,944 80,944" /><polygon points="-16,48 -16,40 -16,40 -16,48" /><polygon points="-16,208 -16,200 -16,200 -16,208" /><polygon points="-16,112 -16,104 -16,104 -16,112" /><polygon points="-16,272 -16,264 -16,264 -16,272" /><polygon points="-16,-104 120,-104 120,-104 112,-104 64,-104 56,-104 8,-104 0,-104 -48,-104 -56,-104 -56,-104" /><polygon points="168,-104 168,-104 168,-104 168,-104 120,-104 120,-104 120,-104 120,-104" /><polygon points="224,-104 224,-80 224,-40 224,48 224,48 224,48 224,48 224,-40 224,-104" /><polygon points="-424,584 -424,776 -424,808 -424,808 -424,712 -424,696 -424,688 -424,672 -424,664 -424,648 -424,584" /><polygon points="-56,408 -88,408 -144,408 -152,408 -208,408 -216,408 -272,408 -280,408 -280,408 -272,408 -216,408 -208,408 -152,408 -144,408 -88,408 -80,408 -56,408" /><polygon points="168,408 -16,408 -56,408 -56,408 -24,408 -16,408 40,408 48,408 104,408 112,408 168,408" /><polygon points="-336,408 -336,360 -336,360 -336,408" /><polygon points="-336,360 -336,360 -336,360 -336,216 -336,216 -336,256 -336,360" /><polygon points="-336,-40 -336,-32 -336,-32 -336,-40" /><polygon points="-336,-48 -336,-104 -336,-104 -336,-104 -336,32 -336,32" /><polygon points="-16,120 -16,144 -16,152 -16,160 -16,168 -16,168 -16,112 -16,112" /><polygon points="-16,48 -16,104 -16,104 -16,48" /><polygon points="-16,192 -16,200 -16,200 -16,198.3382" /><polygon points="-16,272 -16,360 -16,360 -16,272" /><polygon points="-16,376 -16,408 -16,408 -16,384" /><polygon points="56,-40 64,-40 64,-72 56,-72" /><polygon points="-16,-40 0,-40 0,-72 0,-80 -16,-80" /><polygon points="8,-72 8,-40 56,-40 56,-72 56,-80 8,-80" /><polygon points="64,-72 64,-40 112,-40 112,-72 112,-80 64,-80" /><polygon points="0,-40 8,-40 8,-72 0,-72" /><polygon points="168,-40 176,-40 176,-72 168,-72" /><polygon points="112,-40 120,-40 120,-72 112,-72" /><polygon points="120,-72 120,-40 168,-40 168,-72 168,-80 120,-80" /><polygon points="176,-72 176,-40 224,-40 224,-80 176,-80" /><polygon points="0,-80 8,-80 56,-80 64,-80 112,-80 120,-80 168,-80 176,-80 224,-80 224,-104 176,-104 168,-104 120,-104 -16,-104 -16,-80" /><polygon points="112,-72 112,-104 112,-104 112,-80" /><polygon points="168,-72 168,-104 168,-104 168,-80" /><polygon points="168,-80 168,-104 176,-104 176,-80" /><polygon points="176,-72 176,-104 168,-104 168,-72" /><polygon points="112,-80 112,-104 120,-104 120,-80" /><polygon points="120,-72 120,-104 112,-104 112,-72" /><polygon points="56,-72 56,-104 56,-104 56,-80" /><polygon points="56,-80 56,-104 64,-104 64,-80" /><polygon points="64,-72 64,-104 56,-104 56,-72" /><polygon points="0,-72 0,-104 0,-104 0,-80" /><polygon points="8,-72 8,-104 0,-104 0,-72" /><polygon points="0,-80 0,-104 8,-104 8,-80" /><polygon points="175.9235,296 191.6881,296 215.2628,296 215.0456,296" /><polygon points="224,296 224,288 207,288 191.6881,288 191.6881,296" /><polygon points="168,288 168,296 175.9235,296 175.9235,288" /><polygon points="167,272 167,264 168,264 168,272" /><polygon points="183,272 168,272 168,288 175.9235,288 183,288" /><polygon points="183,272 183,288 191.6881,288 207,288 207,272 207,264 183,264" /><polygon points="224,288 224,272 223,272 207,272 207,288" /><polygon points="224,264 223,264 223,272 224,272" /><polygon points="183,264 207,264 223,264 224,264 224,264 168,264 168,264" /><polygon points="168,288 168,272 168,264 168,264 168,296 168,296" /><polygon points="207,264 207,256 223,256 223,264" /><polygon points="168,264 167,264 167,256 168,256 183,256 183,264" /><polygon points="223,264 223,256 223,256 223,272" /><polygon points="175.9235,288 175.9235,296 215.0456,296 215.0465,288" /><polygon points="191.6881,288 215.2637,288 215.2628,296 191.6881,296" /><polygon points="-16,272 -16,272 8.4954,272 16.0839,272 -16,272" /><polygon points="175.9235,344 191.6881,344 224,344 224,296 191.6881,296 175.9235,296 168,296 168,344" /><polygon points="191.6881,352 224,352 224,344 191.6881,344" /><polygon points="168,344 168,352 175.9235,352 175.9235,344" /><polygon points="176,376 176,384 176,408 224,408 224,352 191.6881,352 176,352" /><polygon points="168,408 176,408 176,384 168,384 112,384 104,384 48,384 40,384 -16,384 -16,408" /><polygon points="175.9235,352 168,352 168,360 168,376 176,376 176,352" /><polygon points="168,384 168,376 168,360 112,360 112,376 112,384" /><polygon points="112,360 104,360 104,376 112,376" /><polygon points="104,376 104,360 48,360 48,376 48,384 104,384" /><polygon points="40,376 40,360 -16,360 -16,376 -16,384 40,384" /><polygon points="48,360 40,360 40,376 48,376" /><polygon points="40,360 48,360 104,360 112,360 168,360 168,360 -16,360 -16,360 -16,360" /><polygon points="175.9235,352 176,352 191.6881,352 216.7278,352 216.517,352" /><polygon points="191.6881,344 216.7287,344 216.7278,352 191.6881,352" /><polygon points="175.9235,344 175.9235,352 216.517,352 216.518,344" /><polygon points="176,376 176,408 176,408 176,384" /><polygon points="168,376 168,408 176,408 176,376" /><polygon points="112,376 112,408 112,408 112,384" /><polygon points="104,376 104,408 112,408 112,376" /><polygon points="48,376 48,408 48,408 48,384" /><polygon points="40,376 40,408 48,408 48,376" /><polygon points="-16,-104 -56,-104 -224,-104 -224,-80 -216,-80 -168,-80 -160,-80 -112,-80 -104,-80 -56,-80 -48,-80 -16,-80" /><polygon points="-16,120 -16,112 -16,104 -16,48 -16,40 -16,-40 -48,-40 -56,-40 -64,-40 -64,112 -64,120" /><polygon points="-56,-40 -48,-40 -48,-72 -56,-72" /><polygon points="-48,-80 -48,-72 -48,-40 -16,-40 -16,-80" /><polygon points="-88,144 -72,144 -64,144 -40,144 -32,144 -16,144 -16,120 -64,120 -72,120 -88,120 -96,120 -96,144" /><polygon points="-40,168 -40,160 -40,152 -40,144 -64,144 -64,152 -64,160 -64,168" /><polygon points="-32,160 -16,160 -16,152 -32,152 -40,152 -40,160" /><polygon points="-32,144 -32,152 -16,152 -16,144" /><polygon points="-16,168 -16,160 -32,160 -32,168" /><polygon points="-88,192 -72,192 -64,192 -16,192 -16,168 -32,168 -40,168 -64,168 -72,168 -88,168 -96,168 -96,192" /><polygon points="-16,216 -16,208 -16,200 -16,192 -64,192 -64,200 -64,216" /><polygon points="-96,120 -96,112 -96,-40 -104,-40 -112,-40 -144,-40 -144,40 -144,48 -144,104 -144,112 -144,144 -128,144 -120,144 -96,144" /><polygon points="-64,-40 -72,-40 -72,112 -64,112" /><polygon points="-160,-72 -160,-40 -144,-40 -112,-40 -112,-72 -112,-80 -160,-80" /><polygon points="-168,-40 -160,-40 -160,-72 -168,-72" /><polygon points="-104,-72 -104,-40 -96,-40 -88,-40 -72,-40 -64,-40 -56,-40 -56,-72 -56,-80 -104,-80" /><polygon points="-216,-72 -216,-40 -168,-40 -168,-72 -168,-80 -216,-80" /><polygon points="-112,-40 -104,-40 -104,-72 -112,-72" /><polygon points="-72,112 -72,-40 -88,-40 -88,112 -88,120 -72,120" /><polygon points="-88,-40 -96,-40 -96,112 -88,112" /><polygon points="-224,-40 -216,-40 -216,-72 -224,-72" /><polygon points="-224,-72 -224,-80 -224,-104 -272,-104 -272,-80 -272,-72 -272,-40 -224,-40" /><polygon points="-280,-80 -272,-80 -272,-104 -280,-104" /><polygon points="-280,-72 -280,-48 -280,-40 -272,-40 -272,-72" /><polygon points="-280,-72 -280,-80 -280,-104 -296,-104 -296,-48 -280,-48" /><polygon points="-296,-48 -296,-104 -320,-104 -320,-48 -320,-40 -296,-40" /><polygon points="-336,-48 -320,-48 -320,-104 -336,-104" /><polygon points="-88,168 -72,168 -72,160 -88,160" /><polygon points="-88,144 -88,152 -72,152 -72,144" /><polygon points="-128,160 -120,160 -96,160 -88,160 -72,160 -64,160 -64,152 -72,152 -88,152 -96,152 -120,152 -128,152 -144,152 -144,160" /><polygon points="-72,216 -72,200 -72,192 -88,192 -88,200 -88,216" /><polygon points="-88,216 -88,200 -96,200 -96,216" /><polygon points="-64,216 -64,200 -72,200 -72,216" /><polygon points="-120,168 -96,168 -96,160 -120,160" /><polygon points="-144,144 -144,152 -128,152 -128,144" /><polygon points="-128,168 -128,160 -144,160 -144,168" /><polygon points="-120,152 -96,152 -96,144 -120,144" /><polygon points="-96,216 -96,200 -96,192 -96,168 -120,168 -128,168 -144,168 -144,200 -144,208 -144,216" /><polygon points="-16,384 -24,384 -80,384 -88,384 -88,408 -56,408 -16,408" /><polygon points="-80,360 -24,360 -16,360 -16,272 -16,264 -16,216 -64,216 -72,216 -88,216 -88,360" /><polygon points="-24,376 -24,360 -80,360 -80,376 -80,384 -24,384" /><polygon points="-80,360 -88,360 -88,376 -80,376" /><polygon points="-16,360 -24,360 -24,376 -16,376" /><polygon points="-88,384 -88,376 -88,360 -88,216 -96,216 -144,216 -144,264 -144,272 -144,360 -144,376 -144,384 -144,408 -88,408" /><polygon points="-144,384 -152,384 -152,408 -144,408" /><polygon points="-144,360 -152,360 -152,376 -144,376" /><polygon points="-208,376 -208,384 -208,408 -152,408 -152,384 -152,376 -152,360 -208,360" /><polygon points="-208,384 -216,384 -216,408 -208,408" /><polygon points="-208,360 -216,360 -216,376 -208,376" /><polygon points="-272,376 -272,384 -272,408 -216,408 -216,384 -216,376 -216,360 -272,360" /><polygon points="-272,384 -280,384 -280,408 -272,408" /><polygon points="-272,360 -280,360 -280,376 -272,376" /><polygon points="-336,408 -280,408 -280,384 -280,376 -280,360 -336,360" /><polygon points="-280,360 -272,360 -216,360 -208,360 -152,360 -144,360 -144,360 -336,360 -336,360" /><polygon points="-144,272 -144,264 -144,264 -144,272" /><polygon points="-144,208 -144,200 -144,200 -144,208" /><polygon points="-144,112 -144,104 -144,104 -144,112" /><polygon points="-144,216 -144,208 -144,208 -144,208 -144,216 -144,264 -144,264 -144,264" /><polygon points="-144,48 -144,40 -144,40 -144,48" /><polygon points="-168,-72 -168,-104 -168,-104 -168,-80" /><polygon points="-72,144 -72,144 -64,144 -64,144" /><polygon points="-96,144 -96,144 -88,144 -88,144" /><polygon points="-32,144 -40,144 -64,144 -64,144" /><polygon points="-96,112 -96,120 -96,144 -96,144" /><polygon points="-56,-72 -56,-104 -56,-104 -56,-80" /><polygon points="-56,-80 -56,-104 -48,-104 -48,-80" /><polygon points="-48,-72 -48,-104 -56,-104 -56,-72" /><polygon points="-64,112 -72,112 -72,144 -64,144" /><polygon points="-88,112 -88,144 -88,144 -88,120" /><polygon points="-112,-72 -112,-104 -112,-104 -112,-80" /><polygon points="-112,-80 -112,-104 -104,-104 -104,-80" /><polygon points="-104,-72 -104,-104 -112,-104 -112,-72" /><polygon points="-168,-80 -168,-104 -160,-104 -160,-80" /><polygon points="-160,-72 -160,-104 -168,-104 -168,-72" /><polygon points="-96,152 -96,152 -96,144 -96,144" /><polygon points="-96,168 -96,168 -96,160 -96,160" /><polygon points="-40,168 -32,168 -64,168 -64,168" /><polygon points="-64,168 -64,168 -72,168 -72,168" /><polygon points="-88,168 -88,168 -96,168 -96,168" /><polygon points="-64,144 -64,144 -64,152 -64,152" /><polygon points="-64,160 -64,160 -64,168 -64,168" /><polygon points="-32,160 -40,160 -64,160 -64,160" /><polygon points="-40,152 -32,152 -64,152 -64,152" /><polygon points="-40,144 -40,152 -64,152 -64,144" /><polygon points="-32,152 -32,144 -64,144 -64,152" /><polygon points="-32,168 -32,160 -64,160 -64,168" /><polygon points="-40,160 -40,168 -64,168 -64,160" /><polygon points="-64,200 -64,192 -64,168 -64,168" /><polygon points="-72,200 -72,168 -72,168 -72,192" /><polygon points="-72,192 -72,168 -64,168 -64,192" /><polygon points="-96,192 -96,168 -88,168 -88,192" /><polygon points="-96,200 -88,200 -88,168 -96,168" /><polygon points="-128,168 -120,168 -96,168 -96,168" /><polygon points="-120,152 -120,144 -96,144 -96,152" /><polygon points="-128,144 -128,152 -96,152 -96,144" /><polygon points="-128,160 -96,160 -96,160 -120,160" /><polygon points="-120,168 -120,160 -96,160 -96,168" /><polygon points="-224,-72 -224,-104 -224,-104 -224,-80" /><polygon points="-216,-72 -216,-104 -224,-104 -224,-72" /><polygon points="-224,-80 -224,-104 -216,-104 -216,-80" /><polygon points="-272,-72 -272,-104 -280,-104 -280,-72" /><polygon points="-280,-72 -280,-104 -280,-104 -280,-80" /><polygon points="-280,-80 -280,-104 -272,-104 -272,-80" /><polygon points="-320,-40 -320,-32 -336,-32 -336,-40" /><polygon points="-280,-40 -280,-32 -296,-32 -296,-40" /><polygon points="-296,-48 -296,-40 -296,-32 -296,-32" /><polygon points="-24,376 -24,408 -16,408 -16,376" /><polygon points="-80,376 -80,408 -80,408 -80,384" /><polygon points="-88,376 -88,408 -80,408 -80,376" /><polygon points="-144,376 -144,408 -144,408 -144,384" /><polygon points="-152,376 -152,408 -144,408 -144,376" /><polygon points="-208,376 -208,408 -208,408 -208,384" /><polygon points="-216,376 -216,408 -208,408 -208,376" /><polygon points="-272,376 -272,408 -272,408 -272,384" /><polygon points="-280,376 -280,408 -272,408 -272,376" /><polygon points="-168,808 -168,808 -200,808 -200,808" /><polygon points="-168,552 -168,552 -168,584 -168,584" /><polygon points="-200,552 -224,552 -272,552 -328,552 -368,552 -424,552 -424,552 -360,552 -312,552 -304,552 -280,552 -272,552 -200,552" /><polygon points="-224,784 -224,808 -368,808 -368,784" /><polygon points="-424,584 -424,552 -368,552 -368,592 -368,776 -424,776" /><polygon points="-368,776 -368,784 -368,808 -424,808 -424,776" /><polygon points="-328,552 -328,592 -368,592 -368,552" /><polygon points="-328,592 -328,552 -272,552 -272,592 -272,680 -280,680 -296,680 -304,680 -320,680 -328,680" /><polygon points="-224,592 -224,552 -200,552 -168,552 -168,584 -168,776 -224,776" /><polygon points="-168,776 -168,808 -200,808 -224,808 -224,784 -224,776" /><polygon points="-272,552 -224,552 -224,592 -272,592" /><polygon points="-368,776 -368,592 -368,592 -368,616 -368,624 -368,784 -368,784" /><polygon points="-272,680 -272,680 -280,680 -280,680" /><polygon points="-272,592 -272,592 -272,680 -272,680" /><polygon points="-224,592 -224,592 -240,592 -248,592 -272,592 -272,592" /><polygon points="-328,592 -328,592 -352,592 -360,592 -368,592 -368,592" /><polygon points="-280,680 -280,688 -296,688 -296,680" /><polygon points="-304,680 -304,688 -320,688 -320,680" /><polygon points="-144,104 -144,104 -144,48 -144,48 -144,48 -144,104" /><polygon points="-144,40 -144,40 -144,-40 -144,-40 -144,40" /><polygon points="-16,-40 -16,-40 -16,40 -16,40" /><polygon points="-16,208 -16,208 -16,216 -16,264 -16,264" /><polygon points="-16,168 -16,168 -16,192 -16,198.3382 -16,200 -16,168" /><polygon points="-112,-104 -336,-104 -336,-104 -216,-104 -112,-104" /><polygon points="112,-104 -16,-104 -112,-104 -112,-104 8.4954,-104 112,-104" /><polygon points="224,48 224,48 224,104 224,112 224,184 224,184" /><polygon points="224,-40 224,-40 224,40 224,48 224,48 224,48 224,-40" /><polygon points="224,-40 224,-104 224,-104 224,-40" /><polygon points="168,408 224,408 224,408 112,408 112,408" /><polygon points="-336,360 -336,408 -336,408 -336,360" /><polygon points="-16,144 -16,-40 -16,-40 -16,40 -16,48 -16,104 -16,112 -16,168 -16,168" /><polygon points="-16,216 -16,200 -16,198.3382 -16,200 -16,208 -16,264 -16,272 -16,360 -16,360" /><polygon points="224,-40 224,-40 176,-40 168,-40 120,-40 112,-40 64,-40 56,-40 8,-40 0,-40 -16,-40 -16,-40 -16,-40" /><polygon points="112,-104 224,-104 224,-40 -16,-40 -16,-104" /><polygon points="168,264 224,264 224,296 168,296" /><polygon points="168,296 168,360 168,360 168,352 168,344 168,296" /><polygon points="224,296 224,408 168,408 168,360 168,296" /><polygon points="168,360 168,408 112,408 -16,408 -16,360" /><polygon points="-144,-40 -144,-40 -160,-40 -168,-40 -216,-40 -224,-40 -272,-40 -280,-40 -296,-40 -320,-40 -336,-40 -336,-40" /><polygon points="-112,-40 -144,-40 -336,-40 -336,-104 -112,-104" /><polygon points="-16,-40 -112,-40 -112,-104 -16,-104" /><polygon points="-144,360 -144,360 -144,272 -144,272 -144,272" /><polygon points="-144,272 -144,272 -144,264 -144,264" /><polygon points="-144,208 -144,208 -144,200 -144,200" /><polygon points="-144,112 -144,112 -144,104 -144,104" /><polygon points="-144,144 -144,200 -144,200 -144,200 -144,168 -144,160 -144,152 -144,144 -144,112 -144,112 -144,112" /><polygon points="-144,48 -144,48 -144,40 -144,40" /><polygon points="-112,-40 -16,-40 -16,144 -64,144 -72,144 -88,144 -96,144 -128,144 -144,144 -144,112 -144,104 -144,48 -144,40 -144,-40" /><polygon points="-16,144 -16,168 -64,168 -64,160 -64,152 -64,144" /><polygon points="-96,168 -88,168 -72,168 -64,168 -16,168 -16,200 -16,216 -128,216 -128,168" /><polygon points="-96,152 -128,152 -128,144 -96,144" /><polygon points="-72,160 -88,160 -96,160 -128,160 -128,152 -96,152 -88,152 -72,152 -64,152 -64,160" /><polygon points="-72,152 -88,152 -88,144 -72,144" /><polygon points="-72,168 -88,168 -88,160 -72,160" /><polygon points="-144,216 -144,208 -144,200 -144,144 -128,144 -128,152 -128,160 -128,168 -128,216" /><polygon points="-96,168 -128,168 -128,160 -96,160" /><polygon points="-128,216 -16,216 -16,360 -112,360 -144,360 -144,272 -144,264 -144,216" /><polygon points="-144,200 -144,200 -167.5406,200 -175.6264,200 -144,200" /><polygon points="-144,104 -144,104 -167.5406,104 -175.6264,104 -144,104" /><polygon points="-144,40 -144,40 -167.5406,40 -175.6264,40 -144,40" /><polygon points="-144,264 -144,264 -167.5406,264 -175.6264,264 -144,264" /><polygon points="-112,408 -336,408 -336,360 -144,360 -112,360" /><polygon points="-16,408 -112,408 -112,360 -16,360" /><polygon points="224,840 224,896 224,920 224,928 224,944 224,952 224,1064 224,1064 224,1048 224,1040 224,864 224,840" /><polygon points="200,808 224,808 224,808 200,808" /><polygon points="-24,808 -24,808 -24,808 -24,824 -24,840 -24,840" /><polygon points="120,984 120,976 120,952 120,952" /><polygon points="224,840 224,808 200,808 120,808 120,888 120,896 144,896 224,896" /><polygon points="144,896 144,920 152,920 224,920 224,896" /><polygon points="144,944 144,928 144,920 144,896 120,896 120,952 144,952" /><polygon points="152,928 144,928 144,944 152,944 224,944 224,928" /><polygon points="152,928 224,928 224,920 152,920" /><polygon points="152,952 224,952 224,944 152,944" /><polygon points="152,920 144,920 120,920 120,920" /><polygon points="152,944 144,944 120,944 120,944" /><polygon points="152,928 152,920 120,920 120,928" /><polygon points="152,952 152,944 120,944 120,952" /><polygon points="120,976 120,984 120,1064 224,1064 224,952 152,952 144,952 120,952" /><polygon points="80,888 80,896 80,920 80,920" /><polygon points="112,888 112,896 112,920 112,920" /><polygon points="120,808 112,808 112,888 120,888" /><polygon points="120,888 112,888 112,920 120,920" /><polygon points="112,888 112,808 88,808 88,888 88,896 112,896" /><polygon points="88,808 80,808 80,864 80,888 88,888" /><polygon points="88,888 80,888 80,920 88,920" /><polygon points="80,1064 88,1064 88,984 80,984" /><polygon points="112,1064 120,1064 120,984 112,984" /><polygon points="88,984 88,1064 112,1064 112,984 112,976 88,976" /><polygon points="120,952 120,896 112,896 88,896 80,896 80,952 80,976 88,976 112,976 120,976" /><polygon points="88,984 88,976 88,952 88,952" /><polygon points="112,984 120,984 120,952 112,952" /><polygon points="112,976 112,952 120,952 120,976" /><polygon points="80,976 80,952 88,952 88,976" /><polygon points="80,984 88,984 88,952 80,952" /><polygon points="24,864 80,864 80,808 -24,808 -24,840 -24,864" /><polygon points="24,920 48,920 56,920 56,896 24,896" /><polygon points="56,896 80,896 80,888 80,864 24,864 24,896" /><polygon points="80,896 56,896 56,920 56,928 56,944 56,952 80,952" /><polygon points="24,952 48,952 48,944 24,944" /><polygon points="24,928 48,928 48,920 24,920" /><polygon points="24,944 48,944 56,944 56,928 48,928 24,928" /><polygon points="80,984 80,976 80,952 56,952 48,952 24,952 24,1064 80,1064" /><polygon points="24,952 24,944 24,928 24,920 24,896 24,864 -24,864 -24,1064 24,1064" /><polygon points="48,928 56,928 80,928 80,928" /><polygon points="56,928 56,920 80,920 80,928" /><polygon points="48,920 48,928 80,928 80,920" /><polygon points="48,952 56,952 80,952 80,952" /><polygon points="48,944 48,952 80,952 80,944" /><polygon points="56,952 56,944 80,944 80,952" /><polygon points="-72,160 -72,160 -72,160 -72,168 -72,168 -72,160" /><polygon points="-72,152 -72,152 -72,152 -64,152 -64,152 -72,152" /><polygon points="-88,152 -88,152 -88,152 -88,144 -88,144 -88,152" /><polygon points="-72,152 -88,152 -88,160 -72,160" /><polygon points="-88,160 -88,160 -88,160 -96,160 -96,160 -88,160" /><polygon points="-72,152 -72,152 -72,160 -72,160" /><polygon points="-88,160 -88,160 -88,152 -88,152" /><polygon points="-88,160 -88,152 -72,152 -72,160" /><polygon points="-88,152 -88,152 -72,152 -72,152" /><polygon points="-72,160 -72,160 -88,160 -88,160" /><polygon points="-304,688 -304,672 -304,664 -312,664 -312,672 -312,688 -312,696 -304,696" /><polygon points="-280,672 -272,672 -272,664 -280,664 -304,664 -304,672" /><polygon points="-280,696 -272,696 -272,688 -280,688 -304,688 -304,696" /><polygon points="-280,672 -280,688 -272,688 -272,672" /><polygon points="-304,672 -304,688 -304,688 -304,672" /><polygon points="-280,688 -280,688 -304,688 -304,688" /><polygon points="-272,672 -272,688 -272,688 -272,672" /><polygon points="-280,664 -280,664 -304,664 -304,664" /><polygon points="-280,688 -280,672 -280,672 -280,688" /><polygon points="-280,696 -280,696 -280,720 -280,728" /><polygon points="-272,696 -280,696 -280,728 -272,728" /><polygon points="-312,688 -312,672 -312,672 -312,688" /><polygon points="-312,696 -312,696 -312,720 -312,728" /><polygon points="-304,696 -312,696 -312,728 -304,728" /><polygon points="-304,696 -304,696 -304,728 -304,720" /><polygon points="-272,672 -248,672 -240,672 -272,672" /><polygon points="-272,672 -272,664 -248,664 -248,672" /><polygon points="-280,672 -280,664 -272,664 -272,672 -272,688 -280,688" /><polygon points="-280,664 -280,672 -304,672 -304,664" /><polygon points="-280,672 -280,672 -304,672 -304,672" /><polygon points="-272,696 -272,696 -272,728 -272,720" /><polygon points="-272,696 -248,696 -240,696 -272,696" /><polygon points="-272,696 -272,688 -248,688 -248,696" /><polygon points="-280,696 -280,696 -304,696 -304,696" /><polygon points="-280,688 -272,688 -272,696 -280,696 -304,696 -304,688" /><polygon points="-280,696 -272,696 -272,720 -280,720" /><polygon points="-312,664 -336,664 -344,664 -312,664" /><polygon points="-312,688 -312,672 -312,664 -304,664 -304,672 -304,688 -304,696 -312,696" /><polygon points="-312,688 -336,688 -344,688 -312,688" /><polygon points="-312,696 -304,696 -304,720 -312,720" /><polygon points="224,-104 224,-104 112,-104 112,-104" /><polygon points="224,184 224,200 224,208 224,264 224,272 224,408 224,408 224,296 224,264 224,184" /><polygon points="-112,408 -216,408 -336,408 -336,408 -112,408" /><polygon points="112,408 104,408 -88,408 -112,408 -112,408 -16,408 112,408" /><polygon points="-336,48 -336,-32 -336,-32 -336,-32 -336,-24 -336,-8 -336,48" /><polygon points="-336,-104 -336,-104 -336,-40 -336,-32 -336,-32" /><polygon points="-216,272 -216,264 -216,216 -336,216 -336,360 -336,408 -216,408" /><polygon points="-88,360 -88,272 -167.5406,272 -175.6264,272 -216,272 -216,408 -112,408 -88,408" /><polygon points="-216,272 -175.6264,272 -175.6264,264 -216,264" /><polygon points="-216,264 -175.6264,264 -167.5406,264 -167.5406,216 -216,216" /><polygon points="-88,272 -88,216 -96,216 -144,216 -167.5406,216 -167.5406,264 -167.5406,272" /><polygon points="104,408 104,360 -16,360 -88,360 -88,408" /><polygon points="-16,272 -16,216 -88,216 -88,272 -88,360 -16,360" /><polygon points="104,360 104,272 16.0839,272 8.4954,272 -16,272 -16,360" /><polygon points="8.4954,272 8.4954,264 8.4954,216 -16,216 -16,272" /><polygon points="104,272 224,272 224,264 16.0839,264 16.0839,272" /><polygon points="224,272 104,272 104,360 104,408 112,408 224,408" /><polygon points="-175.6264,208 -336,208 -336,216 -216,216 -167.5406,216 -167.5406,208" /><polygon points="-336,168 -336,200 -175.6264,200 -167.5406,200 -167.5406,168" /><polygon points="-144,144 -144,112 -167.5406,112 -175.6264,112 -336,112 -336,168 -167.5406,168 -144,168" /><polygon points="-336,200 -336,208 -175.6264,208 -175.6264,200" /><polygon points="-167.5406,168 -167.5406,200 -167.5406,208 -167.5406,216 -144,216 -144,168" /><polygon points="-175.6264,48 -216,48 -336,48 -336,104 -175.6264,104 -167.5406,104 -167.5406,48" /><polygon points="-336,104 -336,112 -175.6264,112 -175.6264,104" /><polygon points="-144,168 -144,216 -96,216 -96,168 -96,160 -96,152 -96,144 -144,144" /><polygon points="-88,160 -72,160 -64,160 -64,152 -72,152 -88,152 -96,152 -96,160" /><polygon points="-88,144 -88,152 -72,152 -72,144" /><polygon points="-88,168 -72,168 -72,160 -88,160" /><polygon points="-216,40 -216,-40 -216,-104 -336,-104 -336,-32 -336,48 -216,48" /><polygon points="-216,-40 -216,40 -175.6264,40 -167.5406,40 -167.5406,-40" /><polygon points="-216,48 -175.6264,48 -175.6264,40 -216,40" /><polygon points="-144,-40 -167.5406,-40 -167.5406,40 -167.5406,48 -167.5406,104 -167.5406,112 -144,112" /><polygon points="-16,168 -16,144 -64,144 -64,152 -64,160 -64,168" /><polygon points="-88,216 -16,216 8.4954,216 8.4954,208 8.4954,200 8.4954,168 -16,168 -64,168 -72,168 -88,168 -96,168 -96,216" /><polygon points="16.0839,200 224,200 224,184 224,112 16.0839,112 8.4954,112 8.4954,168 8.4954,200" /><polygon points="224,112 224,104 16.0839,104 16.0839,112" /><polygon points="224,208 224,200 16.0839,200 16.0839,208" /><polygon points="224,208 16.0839,208 8.4954,208 8.4954,216 8.4954,264 16.0839,264 224,264" /><polygon points="16.0839,104 224,104 224,48 16.0839,48 8.4954,48 8.4954,104" /><polygon points="-96,144 -88,144 -72,144 -64,144 -16,144 -16,-40 -144,-40 -144,112 -144,144" /><polygon points="8.4954,112 8.4954,104 8.4954,48 8.4954,40 8.4954,-40 -16,-40 -16,144 -16,168 8.4954,168" /><polygon points="-167.5406,-40 -144,-40 -16,-40 8.4954,-40 8.4954,-104 -112,-104 -216,-104 -216,-40" /><polygon points="224,48 224,40 16.0839,40 16.0839,48" /><polygon points="16.0839,40 224,40 224,-40 224,-104 112,-104 8.4954,-104 8.4954,-40 8.4954,40" /><polygon points="16.0839,104 8.4954,104 -16,104 -16,104 -16,104" /><polygon points="16.0839,40 8.4954,40 -16,40 -16,40 -16,40" /><polygon points="8.4954,48 16.0839,48 -16,48 -16,48 -16,48" /><polygon points="16.0839,48 16.0839,40 -16,40 -16,48" /><polygon points="8.4954,40 8.4954,48 -16,48 -16,40" /><polygon points="8.4954,112 16.0839,112 -16,112 -16,112 -16,112" /><polygon points="8.4954,104 8.4954,112 -16,112 -16,104" /><polygon points="16.0839,112 16.0839,104 -16,104 -16,112" /><polygon points="16.0839,264 8.4954,264 -16,264 -16,264 -16,264" /><polygon points="8.4954,208 16.0839,208 -16,208 -16,208 -16,208" /><polygon points="16.0839,200 8.4954,200 -16,200 -16,200 -16,200" /><polygon points="8.4954,200 8.4954,208 -16,208 -16,200" /><polygon points="16.0839,208 16.0839,200 -16,200 -16,208" /><polygon points="16.0839,272 16.0839,264 -16,264 -16,272" /><polygon points="8.4954,264 8.4954,272 -16,272 -16,264" /><polygon points="-88,144 -96,144 -96,144 -88,144" /><polygon points="-64,144 -72,144 -72,144 -64,144" /><polygon points="-96,168 -88,168 -88,168 -96,168" /><polygon points="-72,168 -64,168 -64,168 -72,168" /><polygon points="-72,144 -72,152 -72,152 -72,152 -72,152 -72,144" /><polygon points="-64,152 -64,144 -64,144 -64,152" /><polygon points="-64,168 -64,160 -64,160 -64,168" /><polygon points="-64,160 -72,160 -72,160 -72,160 -72,160 -64,160" /><polygon points="-96,144 -96,152 -96,152 -96,144" /><polygon points="-96,160 -96,168 -96,168 -96,160" /><polygon points="-88,168 -88,160 -88,160 -88,160 -88,160 -88,168" /><polygon points="-96,152 -88,152 -88,152 -88,152 -88,152 -96,152" /><polygon points="-175.6264,48 -167.5406,48 -144,48 -144,48 -144,48" /><polygon points="-175.6264,40 -175.6264,48 -144,48 -144,40" /><polygon points="-167.5406,48 -167.5406,40 -144,40 -144,48" /><polygon points="-175.6264,112 -167.5406,112 -144,112 -144,112 -144,112" /><polygon points="-167.5406,112 -167.5406,104 -144,104 -144,112" /><polygon points="-175.6264,104 -175.6264,112 -144,112 -144,104" /><polygon points="-175.6264,272 -167.5406,272 -144,272 -144,272 -144,272" /><polygon points="-175.6264,208 -167.5406,208 -144,208 -144,208 -144,208" /><polygon points="-175.6264,200 -175.6264,208 -144,208 -144,200" /><polygon points="-167.5406,208 -167.5406,200 -144,200 -144,208" /><polygon points="-167.5406,272 -167.5406,264 -144,264 -144,272" /><polygon points="-175.6264,264 -175.6264,272 -144,272 -144,264" /><polygon points="-424,552 -424,552 -424,584 -424,584" /><polygon points="-200,808 -272,808 -280,808 -304,808 -312,808 -424,808 -424,808 -368,808 -224,808 -200,808" /><polygon points="-168,584 -168,640 -168,664 -168,672 -168,688 -168,696 -168,712 -168,808 -168,808 -168,776 -168,584" /><polygon points="-168,552 -168,552 -200,552 -200,552" /><polygon points="-312,728 -312,720 -312,712 -336,712 -424,712 -424,808 -312,808" /><polygon points="-312,808 -304,808 -304,728 -312,728" /><polygon points="-344,696 -424,696 -424,712 -336,712 -336,696" /><polygon points="-424,688 -424,696 -344,696 -344,688" /><polygon points="-360,648 -424,648 -424,664 -344,664 -336,664 -336,648" /><polygon points="-424,664 -424,672 -344,672 -344,664" /><polygon points="-344,672 -424,672 -424,688 -344,688 -336,688 -336,672" /><polygon points="-312,648 -336,648 -336,664 -336,672 -336,688 -336,696 -336,712 -312,712" /><polygon points="-280,808 -280,728 -280,720 -304,720 -304,728 -304,808" /><polygon points="-280,808 -272,808 -272,728 -280,728" /><polygon points="-168,712 -248,712 -272,712 -272,720 -272,728 -272,808 -200,808 -168,808" /><polygon points="-304,720 -280,720 -272,720 -272,712 -272,648 -312,648 -312,712 -312,720" /><polygon points="-240,696 -168,696 -168,688 -240,688" /><polygon points="-240,696 -248,696 -248,712 -168,712 -168,696" /><polygon points="-240,672 -248,672 -248,688 -240,688 -168,688 -168,672" /><polygon points="-240,672 -168,672 -168,664 -240,664" /><polygon points="-248,696 -248,688 -248,672 -248,664 -248,648 -272,648 -272,712 -248,712" /><polygon points="-360,640 -360,552 -424,552 -424,584 -424,648 -360,648" /><polygon points="-272,552 -280,552 -280,632 -272,632" /><polygon points="-312,640 -312,632 -312,552 -360,552 -360,640" /><polygon points="-304,552 -312,552 -312,632 -304,632" /><polygon points="-280,632 -280,552 -304,552 -304,632 -304,640 -280,640" /><polygon points="-200,552 -272,552 -272,632 -272,640 -248,640 -168,640 -168,584 -168,552" /><polygon points="-168,640 -248,640 -248,648 -248,664 -240,664 -168,664" /><polygon points="-336,648 -312,648 -272,648 -248,648 -248,640 -272,640 -280,640 -304,640 -312,640 -360,640 -360,648" /><polygon points="-304,640 -304,632 -304,664 -304,664" /><polygon points="-240,688 -248,688 -272,688 -272,688" /><polygon points="-272,640 -272,632 -272,664 -272,664" /><polygon points="-240,664 -248,664 -272,664 -272,664" /><polygon points="-240,672 -240,664 -272,664 -272,672" /><polygon points="-280,632 -280,640 -280,664 -280,664" /><polygon points="-272,632 -280,632 -280,664 -272,664" /><polygon points="-280,640 -272,640 -272,664 -280,664" /><polygon points="-240,696 -240,688 -272,688 -272,696" /><polygon points="-312,632 -312,640 -312,664 -312,664" /><polygon points="-304,632 -312,632 -312,664 -304,664" /><polygon points="-312,640 -304,640 -304,664 -312,664" /><polygon points="-344,696 -336,696 -312,696 -312,696" /><polygon points="-344,672 -336,672 -312,672 -312,672" /><polygon points="-336,672 -336,664 -312,664 -312,672" /><polygon points="-344,664 -344,672 -312,672 -312,664" /><polygon points="-344,688 -344,696 -312,696 -312,688" /><polygon points="-336,696 -336,688 -312,688 -312,696" /></g></defs><rect fill="#fff" height="1296.0" id="background" width="776.0" x="-488.0" y="-168.0" /><use fill="none" stroke="black" stroke-miterlimit="0" stroke-width="15" xlink:href="#bsp_ref" /><use fill="white" stroke="black" stroke-width="1" xlink:href="#bsp_ref" /></svg>