<?xml version="1.0" encoding="utf-8" ?>
<svg baseProfile="tiny" height="100%" version="1.2" viewBox="-908.0 -716.0 2760.0 1496.0" width="100%" xmlns="http://www.w3.org/2000/svg" xmlns:ev="http://www.w3.org/2001/xml-events" xmlns:xlink="http://www.w3.org/1999/xlink"><defs><g id="bsp_ref"><polygon points="-576,640 -472,640 -472,640 -472,640 -472,640 -576,640" /><polygon points="-64,640 -64,640 -128,640 -128,640" /><polygon points="208,-320 272,-320 384,-320 384,-208 320,-208 208,-208" /><polygon points="208,-96 208,-208 320,-208 320,-176 320,16 208,16" /><polygon points="320,16 320,48 320,80 272,80 208,80 208,16" /><polygon points="320,16 320,-176 384,-176 384,48 320,48" /><polygon points="160,-176 160,-208 160,-320 208,-320 208,-208 208,-96 160,-96" /><polygon points="208,-96 208,16 208,80 160,80 160,48 160,-96" /><polygon points="48,-208 -112,-208 -176,-208 -176,-320 48,-320" /><polygon points="160,-320 160,-208 48,-208 48,-320" /><polygon points="-112,-208 48,-208 48,-176 -112,-176" /><polygon points="48,48 -112,48 -176,48 -176,0 -176,-112 -176,-128 -176,-176 -128,-176 -112,-176 48,-176" /><polygon points="72,-176 136,-176 160,-176 160,-96 160,48 136,48 72,48 48,48 48,-176" /><polygon points="48,48 48,80 -112,80 -112,48" /><polygon points="48,272 -176,272 -176,80 -128,80 -112,80 48,80" /><polygon points="272,272 48,272 48,80 72,80 136,80 160,80 208,80 272,80" /><polygon points="320,80 384,80 384,272 383.7885,272 272,272 272,80" /><polygon points="48,272 48,304 48,320 48,384 48,416 -128,416 -176,416 -176,304 -176,272" /><polygon points="48,416 112,480 112,576 48,640 -64,640 -128,640 -128,496 -128,416" /><polygon points="-176,-128 -176,-112 -191,-112 -192,-112" /><polygon points="-192,-112 -191,-112 -191,-16 -192,-16" /><polygon points="-191,-16 -191,-112 -176,-112 -176,0 -191,-15" /><polygon points="-192,-16 -191,-16 -191,-15" /><polygon points="-176,496 -176,416 -128,416 -128,496" /><polygon points="-248,640 -320,640 -472,640 -472,496 -248,496" /><polygon points="-208,496 -176,496 -128,496 -128,640 -248,640 -248,496" /><polygon points="-472,640 -576,640 -576,543.163 -473.5502,496 -472,496" /><polygon points="383.7885,272 383.7885,272 383.7885,272 272,272 272,272" /><polygon points="383.7885,272 384,272 384,272 383.7885,272" /><polygon points="160,-176 136,-176 136,-176 136,-176 160,-176" /><polygon points="72,-176 72,-176 136,-176 136,-176" /><polygon points="-176,-320 -176,-208 -176,-208 -176,-320" /><polygon points="-112,-208 -112,-208 -112,-208 -176,-208 -176,-208" /><polygon points="48,-320 -176,-320 -176,-320 48,-320" /><polygon points="272,-320 208,-320 160,-320 48,-320 48,-320 272,-320" /><polygon points="320,-208 320,-208 320,-176 320,-176" /><polygon points="48,-208 48,-208 48,-208 48,-208 48,-176 48,-176 48,-176" /><polygon points="136,48 136,48 72,48 72,48" /><polygon points="48,48 72,48 72,48 72,48 48,48" /><polygon points="-112,48 -112,48 -112,48 -112,48 -128,48 -176,48 -176,48 -176,48" /><polygon points="72,80 72,80 136,80 136,80" /><polygon points="160,80 136,80 136,80 136,80 160,80" /><polygon points="-192,-112 -191,-112 -191,-112 -191.5714,-112 -192,-112" /><polygon points="-191,-112 -191,-112 -191,-16 -191,-16" /><polygon points="-576,640 -576,640 -576,543.163 -576,543.163" /><polygon points="48,416 48,384 48,384 48,384 48,384 48,416" /><polygon points="48,304 48,272 48,272 48,304" /><polygon points="48,320 48,320 48,384 48,384" /><polygon points="-248,496 -472,496 -472,496 -248,496" /><polygon points="-200,-120 -200,-8 -184,-8 -184,-120" /><polygon points="384,-156.0083 384,28.0082 384,48 384,48 384,-176 384,-176" /><polygon points="416,28.0082 384,28.0082 384,-156.0083 416,-156.0083 512,-156.0083 512,28.0082" /><polygon points="512,28.0082 512,-156.0083 512,-152.0165 512,24.0165" /><polygon points="416,28.0082 512,28.0082 512,24.0165 512,0.066 416,0.066" /><polygon points="384,-156.0083 384,-128.066 416,-128.066 416,-156.0083" /><polygon points="384,28.0082 416,28.0082 416,0.066 384,0.066" /><polygon points="384,48 384,48 384,48 320,48 320,48 320,48 320,48 384,48" /><polygon points="-208,496 -208,496 -208,496 -176,496 -176,496 -208,496" /><polygon points="-208,496 -208,496 -248,496 -248,496" /><polygon points="-472,496 -472,496 -472,432 -472,432" /><polygon points="-248,432 -472,432 -472,432 -248,432" /><polygon points="-248,496 -472,496 -472,432 -248,432" /><polygon points="-208,432 -208,496 -248,496 -248,432" /><polygon points="640,-152.0165 640,-148.0247 640,20.0247 640,24.0165" /><polygon points="512,-152.0165 640,-152.0165 640,24.0165 512,24.0165" /><polygon points="512,24.0165 640,24.0165 640,20.0247 640,0.066 512,0.066" /><polygon points="136,-208 72,-208 48,-208 48,-208 160,-208 160,-208" /><polygon points="72,-208 72,-208 48,-208 48,-208" /><polygon points="136,-184 136,-184 136,-176 136,-176" /><polygon points="136,-208 136,-208 136,-200 136,-200" /><polygon points="72,-176 72,-176 72,-184 72,-184" /><polygon points="72,-200 72,-200 72,-208 72,-208" /><polygon points="72,-200 72,-208 136,-208 136,-200" /><polygon points="72,-176 72,-184 136,-184 136,-176" /><polygon points="72,56 72,56 72,48 72,48" /><polygon points="72,80 72,80 72,72 72,72" /><polygon points="136,72 136,72 136,80 136,80" /><polygon points="136,48 136,48 136,56 136,56" /><polygon points="72,56 72,48 136,48 136,56" /><polygon points="72,80 72,72 136,72 136,80" /><polygon points="-208,416 -208,368 -208,368 -208,416" /><polygon points="-208,496 -208,496 -208,432 -208,432" /><polygon points="-472,432 -472,496 -472,496 -472,368 -472,368" /><polygon points="-248,368 -472,368 -472,368 -248,368" /><polygon points="-472,368 -248,368 -248,432 -472,432" /><polygon points="-248,368 -208,368 -208,416 -208,432 -248,432" /><polygon points="-208,432 -208,432 -248,432 -248,432" /><polygon points="896,-148.0247 896,-144.033 896,16.033 896,20.0247" /><polygon points="640,-148.0247 864,-148.0247 864,20.0247 640,20.0247" /><polygon points="864,-148.0247 896,-148.0247 896,20.0247 864,20.0247" /><polygon points="896,20.0247 896,16.033 896,0.066 864,0.066 864,20.0247" /><polygon points="864,-148.0247 640,-148.0247 640,-128.066 864,-128.066" /><polygon points="-208,416 -208,368 -208,304 -208,304 -208,416" /><polygon points="-208,416 -208,416 -208,416 -208,496 -208,496 -208,432 -208,416" /><polygon points="-208,368 -208,368 -248,368 -248,368" /><polygon points="-248,304 -472,304 -472,304 -248,304" /><polygon points="-248,368 -472,368 -472,304 -248,304" /><polygon points="-208,304 -208,368 -248,368 -248,304" /><polygon points="-384,640 -472,640 -472,640 -320,640 -320,640" /><polygon points="-384,640 -384,640 -472,640 -472,640" /><polygon points="1152,-320 1056,-320 1056,-320 1152,-320" /><polygon points="1368,-320 1280,-320 1152,-320 1152,-352 1368,-352" /><polygon points="1056,-96 1056,-160 1056,-184 1056,-200 1056,-296 1056,-320 1152,-320 1280,-320 1280,-96" /><polygon points="1056,128 1056,32 1056,-96 1280,-96 1280,128" /><polygon points="1280,187.6923 1273.5306,192 1056,192 1056,128 1280,128" /><polygon points="1368,-320 1368,-192 1368,-96 1280,-96 1280,-320" /><polygon points="1368,-96 1368,32 1368,64 1368,128 1280,128 1280,-96" /><polygon points="1368,128 1368,129.0962 1280,187.6923 1280,128" /><polygon points="1368,32 1368,32 1368,32 1368,32 1368,64 1368,64" /><polygon points="1368,-320 1368,-320 1368,-192 1368,-192" /><polygon points="1273.5306,192 1273.5306,192 1272,192 1248,192 1184,192 1160,192 1152,192 1056,192 1056,192 1056,192" /><polygon points="1040,-200 1041,-200 1056,-200 1056,-184" /><polygon points="1040,-280 1041,-280 1041,-200 1040,-200" /><polygon points="1041,-280 1041,-281 1056,-296 1056,-200 1041,-200" /><polygon points="1041,-281 1041,-280 1040,-280" /><polygon points="1040,-280 1040,-200 1040,-200 1040,-280" /><polygon points="1040,-280 1041,-280 1041,-280 1040,-280" /><polygon points="976,-144.033 976,-128.066 976,-128 976,-128" /><polygon points="976,0 976,0 976,0.066 976,16.033" /><polygon points="1032,0 1032,-128 1032,-160 1056,-160 1056,-96 1056,32 1032,32" /><polygon points="976,0 976,-128 1032,-128 1032,0" /><polygon points="896,-144.033 976,-144.033 976,-128 976,0 976,16.033 896,16.033" /><polygon points="896,16.033 976,16.033 976,0.066 896,0.066" /><polygon points="976,-144.033 896,-144.033 896,-128.066 976,-128.066" /><polygon points="-472,240 -472,272 -472,272 -472,240" /><polygon points="-248,240 -472,240 -472,240 -248,240" /><polygon points="-472,240 -248,240 -248,272 -472,272" /><polygon points="-248,240 -208,240 -208,272 -248,272" /><polygon points="-208,416 -208,304 -208,272 -208,272 -208,272 -208,272 -208,304 -208,416" /><polygon points="64,384 64,384 48,384 48,384" /><polygon points="64,384 48,384 48,320 64,320" /><polygon points="48,320 48,320 64,320 64,320" /><polygon points="-248,304 -472,304 -472,272 -248,272" /><polygon points="-208,272 -208,304 -248,304 -248,272" /><polygon points="-208,304 -208,304 -248,304 -248,304" /><polygon points="-320,640 -320,640 -320,656 -320,656" /><polygon points="-128,656 -128,656 -128,640 -128,640" /><polygon points="-64,640 -64,640 -64,656 -64,656" /><polygon points="-128,656 -128,640 -64,640 -64,656" /><polygon points="-384,656 -384,640 -320,640 -320,656" /><polygon points="-384,656 -384,656 -384,640 -384,640" /><polygon points="1056,-296 1032,-296 1032,-184 1056,-184" /><polygon points="1368,-368 1368,-480.2558 1368,-480.2558 1368,-368" /><polygon points="1152,-352 1152,-352 1151.7255,-352 1151.7255,-352" /><polygon points="1368,-352 1368,-352 1152,-352 1152,-352" /><polygon points="1368,-480.2558 1368,-368 1368,-352 1152,-352 1151.7255,-352" /><polygon points="1368,-192 1368,32 1368,32 1368,-96 1368,-192" /><polygon points="1424,32 1424,32 1368,32 1368,32" /><polygon points="1424,-192 1368,-192 1368,-192 1424,-192" /><polygon points="1424,-192 1424,-192 1424,32 1424,32" /><polygon points="1368,-192 1424,-192 1424,32 1368,32" /><polygon points="-248,176 -472,176 -472,176 -248,176" /><polygon points="-472,176 -472,240 -472,272 -472,272 -472,176" /><polygon points="-208,240 -208,272 -208,272 -208,240" /><polygon points="-208,240 -208,240 -248,240 -248,240" /><polygon points="-472,176 -248,176 -248,240 -472,240" /><polygon points="-248,176 -208,176 -208,240 -248,240" /><polygon points="-192,-112 -192,-112 -192,-16 -192,-16" /><polygon points="-192,-112 -191.5714,-112 -191.5714,-112.4286" /><polygon points="-192,-16 -191.5714,-15.5714 -191.5714,-16" /><polygon points="-192,-112 -191.5714,-112 -191,-112 -191,-112 -192,-112" /><polygon points="-191.5714,-112.4286 -176,-128 -176,-128 -192,-112 -192,-112" /><polygon points="-191.5714,-112 -192,-112 -192,-16 -191.5714,-16" /><polygon points="-191,-16 -191,-16 -192,-16 -192,-16 -191.5714,-16" /><polygon points="-191.5714,-16 -192,-16 -192,-16 -191,-16 -191,-16" /><polygon points="-191.5714,-112 -191,-112 -191,-16 -191.5714,-16" /><polygon points="-191,-112 -191.5714,-112 -191.5714,-16 -191,-16" /><polygon points="-191,-112 -191,-112 -191,-16 -191,-16" /><polygon points="-176,48 -176,0 -176,0 -176,48" /><polygon points="-176,-128 -176,-176 -176,-176 -176,-128" /><polygon points="-176,-128 -191.5714,-112.4286 -191.5714,-112 -191.5714,-16 -191.5714,-15.5714 -176,0" /><polygon points="-176,0 -191.5714,-15.5714 -192,-16 -192,-16 -191,-15 -176,0" /><polygon points="1279.7142,-576 1279.7142,-576 1280.767,-576 1280.767,-576" /><polygon points="1056,-320 1056,-320 1056,-296 1056,-296" /><polygon points="1056,-160 1056,-160 1056,-184 1056,-184 1056,-160" /><polygon points="1056,32 1056,32 1056,128 1056,192 1056,192" /><polygon points="1056,-320 1056,-320 1152,-320 1152,-320 1152,-320" /><polygon points="1368,-480.7663 1368,-480.2558 1152,-352.1628 1152,-352.5 1279.7142,-576 1280.767,-576" /><polygon points="1151.7142,-352 1151.7255,-352 1152,-352 1152,-352.1628" /><polygon points="1152,-352.5 1152,-352.1628 1152,-352 1152,-352 1152,-352.5" /><polygon points="1152,-352.1628 1368,-480.2558 1368,-480.2558 1151.7255,-352 1151.7255,-352" /><polygon points="1152,-320 1152,-320 1152,-352 1152,-352 1152,-352 1152,-352 1152,-352 1152,-352 1152,-320" /><polygon points="1368,-192 1368,-192 1368,-320 1368,-320 1368,-192" /><polygon points="1424,-192 1480,-192 1480,32 1424,32" /><polygon points="1480,-192 1480,-192 1480,32 1480,32" /><polygon points="1424,32 1480,32 1480,32 1480,32 1368,32 1368,32" /><polygon points="1056,-296 1056,-296 1041,-281 1040,-280 1040,-280 1056,-296" /><polygon points="1032,32 1032,32 1056,32 1056,32" /><polygon points="1056,-160 1056,-160 1032,-160 1032,-160" /><polygon points="1032,32 1032,32 1032,0 1032,0 1032,32" /><polygon points="72,-176 72,-176 72,-176 48,-176 48,-176" /><polygon points="136,-208 72,-208 72,-200 136,-200" /><polygon points="72,-176 136,-176 136,-184 72,-184" /><polygon points="72,-200 72,-200 136,-200 136,-200" /><polygon points="136,-184 136,-184 72,-184 72,-184" /><polygon points="136,48 136,48 136,48 160,48 160,48" /><polygon points="72,80 72,80 72,80 48,80 48,80" /><polygon points="160,80 160,80 160,48 160,48 160,48 160,80" /><polygon points="72,80 136,80 136,72 72,72" /><polygon points="136,48 72,48 72,56 136,56" /><polygon points="136,72 136,72 72,72 72,72" /><polygon points="72,56 72,56 136,56 136,56" /><polygon points="48,80 48,80 48,48 48,48 48,48 48,80" /><polygon points="-248,176 -472,176 -472,112 -248,112" /><polygon points="-208,112 -208,176 -248,176 -248,112" /><polygon points="-208,272 -208,176 -208,112 -208,112 -208,112 -208,240 -208,272" /><polygon points="-248,112 -472,112 -472,112 -248,112" /><polygon points="-208,176 -208,176 -248,176 -248,176" /><polygon points="-208,176 -208,272 -208,272 -208,240 -208,176" /><polygon points="-472,272 -472,272 -472,272 -472,304 -472,304 -472,272" /><polygon points="-184,-8 -184,-8 -200,-8 -200,-8" /><polygon points="-200,-120 -200,-120 -184,-120 -184,-120" /><polygon points="-184,-8 -200,-8 -200,-120 -184,-120" /><polygon points="-184,-120 -184,-120 -184,-8 -184,-8" /><polygon points="-200,-8 -200,-8 -200,-120 -200,-120" /><polygon points="48,272 48,272 24.2098,272" /><polygon points="-176,304 -176,272 -176,272 -176,304" /><polygon points="48,304 48,272 24.2098,272 24.2098,304" /><polygon points="320,-176 320,-176 320,-176 384,-176 384,-176 384,-176 384,-176 320,-176" /><polygon points="320,-208 272,-208 272,-176 320,-176" /><polygon points="320,80 320,80 320,48 320,48" /><polygon points="320,48 272,48 272,80 320,80" /><polygon points="-112,-208 -112,-208 -112,-176 -112,-176" /><polygon points="-112,48 -112,48 -112,80 -112,80" /><polygon points="48,-208 0,-208 0,-176 48,-176" /><polygon points="48,48 0,48 0,80 48,80" /><polygon points="160,-208 160,-208 136,-208 136,-208 136,-208 160,-208" /><polygon points="160,-208 160,-208 160,-208 160,-176 160,-176 160,-176" /><polygon points="1200,-576 1200,-576 1264,-576 1264,-576" /><polygon points="1279.7142,-576 1264,-576 1264,-576 1264,-576 1280.767,-576 1280.767,-576 1280.767,-576" /><polygon points="1152,-576 1056,-576 1056,-576 1152,-576" /><polygon points="1279.7142,-576 1279.7142,-576 1152,-352.5 1152,-352.5" /><polygon points="1152,-576 1200,-576 1264,-576 1279.7142,-576 1152,-352.5" /><polygon points="1152,-352.5 1152,-352 1056,-352 1056,-576 1152,-576" /><polygon points="1536,-192 1536,-192 1536,32 1536,32" /><polygon points="1480,32 1536,32 1536,32 1480,32" /><polygon points="1480,-192 1536,-192 1536,32 1480,32" /><polygon points="-248,48 -472,48 -472,48 -248,48" /><polygon points="-248,64 -472,64 -472,48 -248,48" /><polygon points="-208,48 -208,64 -248,64 -248,48" /><polygon points="-208,112 -208,112 -248,112 -248,112" /><polygon points="-248,112 -472,112 -472,64 -248,64" /><polygon points="-208,64 -208,112 -248,112 -248,64" /><polygon points="272,-208 272,-208 272,-176 272,-176" /><polygon points="-64,-208 -112,-208 -112,-176 -64,-176" /><polygon points="-64,48 -112,48 -112,80 -64,80" /><polygon points="1712,64 1712,32 1712,-32 1712,-32 1712,-32 1712,64 1712,192 1712,192" /><polygon points="1712,-96 1712,-96 1712,-32 1712,-32" /><polygon points="1152,-576 1152,-576 1200,-576 1200,-576 1200,-576 1152,-576" /><polygon points="-248,640 -320,640 -320,640 -320,640 -248,640 -128,640 -128,640 -128,640" /><polygon points="-24,640 -64,640 -64,640 -64,640 48,640 48,640" /><polygon points="48,640 48,640 -24,640 -24,640" /><polygon points="1056,-576 1056,-576 1056,-352 1056,-352" /><polygon points="1056,192 1056,192 1056,192 1056,192 1056,128 1056,32 1056,32 1056,192" /><polygon points="1056,224 1056,224 1056,192 1056,192" /><polygon points="1056,-352 1056,-352 1152,-352 1152,-352 1056,-352" /><polygon points="1320,480 1320,480 1280,480 1280,480" /><polygon points="1536,64 1480,64 1480,64 1536,64" /><polygon points="1368,32 1368,32 1368,64 1368,64" /><polygon points="1536,-192 1536,-192 1480,-192 1480,-192 1536,-192" /><polygon points="1536,-320 1664,-320 1712,-272 1712,-192 1536,-192" /><polygon points="1536,32 1536,64 1536,64 1536,32" /><polygon points="1712,-192 1712,-96 1712,-32 1712,32 1536,32 1536,-192" /><polygon points="1712,32 1712,64 1624,64 1536,64 1536,32" /><polygon points="1480,32 1536,32 1536,32 1536,32 1480,32" /><polygon points="1624,216 1592,216 1400,216 1400,128 1400,64 1480,64 1536,64 1624,64" /><polygon points="1712,64 1712,192 1688,216 1624,216 1624,64" /><polygon points="1368,192 1368,129.0962 1368,128 1400,128 1400,216 1368,216" /><polygon points="1272,224 1272,192 1273.5306,192 1368,192 1368,216 1368,320 1368,368 1272,368" /><polygon points="1368,192 1273.5306,192 1368,129.0962" /><polygon points="1152,192 1160,192 1160,224 1152,224" /><polygon points="1592,312 1584,320 1458.4352,320 1368,320 1368,216 1400,216 1592,216" /><polygon points="1624,216 1688,216 1592,312 1592,216" /><polygon points="1458.4352,320 1370.2678,368 1368,368 1368,320" /><polygon points="1152,224 1160,224 1272,224 1272,368 1152,368" /><polygon points="1280,480 1152,480 1152,416 1152,368 1272,368 1368,368 1368,432 1320,480" /><polygon points="1056,272 1056,224 1056,192 1152,192 1152,224 1152,368 1152,416 1056,416" /><polygon points="1152,416 1152,480 1056,480 1056,416" /><polygon points="1400,128 1368,128 1368,136 1400,136" /><polygon points="1458.4352,320 1458.4352,320 1370.2678,368 1370.2678,368" /><polygon points="1160,224 1160,224 1184,224 1248,224 1272,224 1272,224" /><polygon points="1248,192 1248,192 1184,192 1184,192" /><polygon points="1160,192 1160,192 1160,224 1160,224 1160,224" /><polygon points="1368,64 1368,128 1368,129.0962 1368,129.0962 1368,128 1368,64" /><polygon points="1273.5306,192 1273.5306,192 1280,187.6923 1368,129.0962 1368,129.0962" /><polygon points="848,272 848,272 848,272 976,272 976,272" /><polygon points="384,0.066 384,48 384,48 384,28.0082" /><polygon points="384,-128.066 384,-156.0083 384,-176 384,-176" /><polygon points="1040,-352 1040,-352 1024,-352 976.5,-352 976.5,-352 976.5,-352" /><polygon points="1056,-352 1040,-352 976.5,-352 976.1818,-352.1818 976,-352.5 976,-576 1056,-576" /><polygon points="976,-128 976,-128 976,-128 976,-128 1032,-128 1032,-128 976,-128" /><polygon points="640,0 416,0 416,0.066 512,0.066 640,0.066" /><polygon points="768,0.066 768,0 640,0 640,0.066" /><polygon points="815.934,0.066 816,0 768,0 768,0.066" /><polygon points="864,0.066 896,0.066 976,0.066 976,0 816,0 815.934,0.066" /><polygon points="640,-128 416,-128 416,0 640,0" /><polygon points="768,0 768,-128 640,-128 640,0" /><polygon points="640,-128.066 512,-128.066 416,-128.066 416,-128 640,-128" /><polygon points="864,-128.066 640,-128.066 640,-128 768,-128 864,-128" /><polygon points="976,-128 976,-128.066 896,-128.066 864,-128.066 864,-128" /><polygon points="768,0 816,0 816,0 768,0" /><polygon points="816,0 976,0 976,0 816,0" /><polygon points="864,0.066 815.934,0.066 768,0.066 640,0.066 640,20.0247 864,20.0247" /><polygon points="896,-128.066 896,-144.033 896,-148.0247 864,-148.0247 864,-128.066" /><polygon points="512,-128.066 640,-128.066 640,-148.0247 640,-152.0165 512,-152.0165" /><polygon points="416,-128.066 512,-128.066 512,-152.0165 512,-156.0083 416,-156.0083" /><polygon points="384,0.066 416,0.066 416,0 416,-128 416,-128.066 384,-128.066" /><polygon points="-208,-176 -248,-176 -384,-176 -384,-176 -320,-176 -208,-176" /><polygon points="-64,-176 -64,-176 -112,-176 -112,-176" /><polygon points="48,-176 48,-176 0,-176" /><polygon points="320,-176 320,-176 272,-176 272,-176" /><polygon points="208,-208 208,-208 208,-176 208,-176" /><polygon points="272,-208 208,-208 208,-176 272,-176" /><polygon points="-64,-208 -64,-208 -64,-176 -64,-176" /><polygon points="0,-208 -64,-208 -64,-176 0,-176" /><polygon points="272,48 320,48 320,48 208,48 208,48 208,48" /><polygon points="272,48 272,48 320,48 320,48" /><polygon points="-112,48 -112,48 -64,48 -64,48" /><polygon points="0,48 48,48 48,48" /><polygon points="272,80 272,80 272,48 272,48" /><polygon points="272,48 208,48 208,80 272,80" /><polygon points="-64,48 -64,48 -64,80 -64,80" /><polygon points="0,48 -64,48 -64,80 0,80" /><polygon points="-208,48 -208,64 -208,64 -208,48" /><polygon points="-193,-24 -192,-24 -208,-8 -208,-24" /><polygon points="-192,-104 -192,-24 -193,-24 -193,-104" /><polygon points="-208,-120 -193,-105 -193,-104 -193,-24 -208,-24" /><polygon points="-193,-105 -192,-104 -193,-104" /><polygon points="-208,48 -208,48 -248,48 -248,48" /><polygon points="-248,48 -472,48 -472,-32 -472,-176 -384,-176 -248,-176" /><polygon points="-208,-176 -208,-120 -208,-24 -208,-8 -208,48 -248,48 -248,-176" /><polygon points="-208,64 -208,64 -208,112 -208,112 -208,64" /><polygon points="1056,272 976,272 976,271.035 1054.2094,224 1056,224" /><polygon points="848,272 976,272 1056,272 1056,416 1056,480 992,480 832.9557,480 832.9557,272" /><polygon points="1056,480 1056,480 992,480 992,480" /><polygon points="832.9557,272 832.9557,480 832,480 688.8768,480 688.8768,272" /><polygon points="48,320 48,320 48,320 48,304 48,304 48,304" /><polygon points="48,384 48,320 48,304 48,304 48,304 48,304 48,304 48,384" /><polygon points="48,320 48,384 64,384 64,320" /><polygon points="64,384 64,384 64,320 64,320" /><polygon points="-64,640 -128,640 -128,656 -64,656" /><polygon points="-128,656 -128,656 -64,656 -64,656" /><polygon points="-320,640 -384,640 -384,656 -320,656" /><polygon points="-384,656 -384,656 -320,656 -320,656" /><polygon points="-192,-120 -200,-120 -200,-8 -192,-8" /><polygon points="208,-208 160,-208 160,-176 208,-176" /><polygon points="208,80 208,80 208,48 208,48" /><polygon points="208,48 160,48 160,80 208,80" /><polygon points="-152.2098,272 -176,272 -176,272" /><polygon points="48,304 48,304 48,304 24.2098,304" /><polygon points="-176,304 -152.2098,304 -176,304" /><polygon points="-151.1367,272 -152.2098,272 -152.2098,304 -151.1367,304" /><polygon points="24.2098,272 24.0289,272 24.0289,304 24.2098,304" /><polygon points="-152.2098,304 -152.2098,272 -176,272 -176,304" /><polygon points="976,-576 976,-576 1072,-576 1152,-576 1152,-576 1056,-576 976,-576" /><polygon points="976,-576 944,-576 944,-576 944,-576 944,-576 976,-576" /><polygon points="976,-576 976,-576 976,-352.5 976,-352.5" /><polygon points="976,-352.5 848.2857,-576 944,-576 976,-576" /><polygon points="768,0 768,0 768,-128 768,-128 768,-128 768,0" /><polygon points="976,-128 976,-128 864,-128 768,-128 768,-128" /><polygon points="-472,-176 -520.043,-176 -520.043,-176 -472,-176" /><polygon points="-472,-176 -472,-176 -472,-176 -472,-176 -472,-176 -472,-176 -472,-176 -472,-176 -472,-176 -384,-176 -384,-176 -384,-176 -384,-176 -384,-176 -472,-176" /><polygon points="-472,-176 -472,-176 -472,-32 -472,-32" /><polygon points="-472,-32 -472,-32 -489.4172,-32 -489.4172,-32" /><polygon points="-520.043,-176 -472,-176 -472,-32 -489.4172,-32" /><polygon points="0,272 48,272 48,272 -48,272" /><polygon points="-127.1942,272 -129,272 -176,272 -176,272 -152.2098,272 -151.1367,272" /><polygon points="0,272 24.0289,272 24.2098,272 48,272" /><polygon points="384,-320 384,-208 384,-208 384,-320" /><polygon points="384,48 384,48 384,0.066 384,-128.066 384,-176 384,-176 384,-176 384,48" /><polygon points="384,80 384,80 384,271.5429 384,272 384,272 384,80" /><polygon points="-128,-176 -128,-176 -176,-176 -176,-176 -176,-176 -128,-176" /><polygon points="-128,-176 -112,-176 -112,-176 -112,-176 -112,-176 -128,-176" /><polygon points="48,-176 48,-176 0,-176 -64,-176 -112,-176 -112,-176" /><polygon points="96,-176 160,-176 160,-176 160,-176 136,-176 72,-176 48,-176 48,-176 48,-176 48,-176" /><polygon points="208,-176 208,-176 160,-176 160,-176" /><polygon points="96,-176 48,-176 -112,-176 -128,-176 -128,-176 48,-176 96,-176" /><polygon points="320,-176 208,-176 160,-176 96,-176 96,-176 272,-176 320,-176" /><polygon points="320,-176 320,-176 272,-176 208,-176 208,-176 208,-176" /><polygon points="-112,-208 -112,-208 -64,-208 -64,-208 -64,-208" /><polygon points="48,-208 0,-208 0,-208 48,-208" /><polygon points="-64,-208 -64,-208 0,-208 0,-208" /><polygon points="48,-208 48,-208 48,-208 72,-208 136,-208 136,-208" /><polygon points="160,-208 160,-208 208,-208 208,-208" /><polygon points="320,-208 320,-208 320,-208 384,-208 384,-208" /><polygon points="208,-208 208,-208 208,-208 272,-208 272,-208" /><polygon points="272,-208 272,-208 272,-208 320,-208 320,-208" /><polygon points="48,-320 -176,-320 -176,-208 -112,-208 -64,-208 0,-208 48,-208" /><polygon points="272,-320 48,-320 48,-208 136,-208 160,-208 208,-208 272,-208" /><polygon points="320,-208 384,-208 384,-320 272,-320 272,-208" /><polygon points="384,-320 384,-320 272,-320 272,-320" /><polygon points="208,48 320,48 320,48 160,48 160,48" /><polygon points="96,48 48,48 48,48 48,48 48,48 72,48 136,48 160,48 160,48 160,48" /><polygon points="160,48 160,48 160,48 96,48 96,48" /><polygon points="160,48 160,48 208,48 208,48" /><polygon points="-112,48 -112,48 -64,48 0,48 48,48 48,48" /><polygon points="272,80 272,80 208,80 208,80 208,80" /><polygon points="-64,80 -64,80 -64,80 -112,80 -112,80" /><polygon points="48,80 48,80 0,80 0,80" /><polygon points="-112,80 -112,80 -112,80 -128,80 -128,80" /><polygon points="96,80 160,80 160,80 160,80 136,80 72,80 48,80 48,80 48,80" /><polygon points="96,80 48,80 0,80 -64,80 -112,80 -128,80 -128,80 48,80 96,80" /><polygon points="320,80 272,80 208,80 160,80 96,80 96,80 272,80 320,80" /><polygon points="384,80 384,80 320,80 320,80 320,80" /><polygon points="0,80 0,80 -64,80 -64,80" /><polygon points="320,80 320,80 272,80 272,80 272,80" /><polygon points="208,80 208,80 160,80 160,80" /><polygon points="-127.1942,304 -151.1367,304 -152.2098,304 -176,304 -176,304 -129,304" /><polygon points="48,304 48,304 24.2098,304 24.0289,304 0,304" /><polygon points="-127.1942,272 -127.1942,304 -129,304 -129,272" /><polygon points="0,304 24.0289,304 24.0289,272 0,272" /><polygon points="-127.1942,304 -127.1942,272 -151.1367,272 -151.1367,304" /><polygon points="-128,272 -81,272 -128,272" /><polygon points="-128,304 -81,304 -81,272 -128,272 -129,272 -129,304" /><polygon points="880,-576 880,-576 944,-576 944,-576" /><polygon points="880,-576 944,-576 944,-576 848.2857,-576 848.2857,-576" /><polygon points="1368,-352 1368,-352 1368,-368 1368,-368 1368,-368" /><polygon points="1368,-368 1368,-368 1368,-480.2558 1368,-480.7663 1368,-480.7663" /><polygon points="1152,-352 1152,-352 1152,-352 1056,-352 1056,-352 1056,-352" /><polygon points="1368,-480.7663 1368,-480.7663 1280.767,-576 1280.767,-576 1280.767,-576" /><polygon points="1248,192 1248,192 1272,192 1272,192 1272,192 1248,192" /><polygon points="1184,224 1184,216 1248,216 1248,224" /><polygon points="1184,200 1184,192 1248,192 1248,200" /><polygon points="1248,216 1184,216 1184,216 1248,216" /><polygon points="1248,200 1248,200 1184,200 1184,200" /><polygon points="1184,192 1184,192 1160,192 1160,192 1184,192" /><polygon points="976,-352.5 976.1818,-352.1818 752.1818,-480.1818 848,-576 848.2857,-576" /><polygon points="976.1818,-352.1818 976.5,-352 976.5,-352 752.1818,-480.1818 752.1818,-480.1818" /><polygon points="976.5,-352 976.1818,-352.1818 976.1818,-352.1818 976.5,-352" /><polygon points="976.1818,-352.1818 976,-352.5 976,-352.5 976,-352.5 976.1818,-352.1818" /><polygon points="976,-352.5 848.2857,-576 848.2857,-576 976,-352.5" /><polygon points="-472,-176 -520.043,-176 -576.0132,-176 -576.0132,-176 -472,-176" /><polygon points="-489.4172,-32 -472,-32 -472,-32 -509.4053,-32 -509.4053,-32" /><polygon points="-576.0132,-176 -520.043,-176 -489.4172,-32 -509.4053,-32" /><polygon points="-520.043,-176 -520.043,-176 -489.4172,-32 -489.4172,-32" /><polygon points="-128,272 -128,272 -176,272 -176,272 -176,272 -129,272 -128,272" /><polygon points="48,304 48,304 0,304 -48,304" /><polygon points="-128,304 -81,304 -128,304" /><polygon points="-48,272 -81,272 -81,304 -48,304" /><polygon points="-48,304 0,304 0,272 -48,272" /><polygon points="1040,-352 1040,-352 1024,-352" /><polygon points="976,-352 976,-352 752,-352 752,-352" /><polygon points="976.5,-352 976,-352 752,-352 752,-480 752.1818,-480.1818" /><polygon points="848,-576 848,-576 752.1818,-480.1818 752.1818,-480.1818" /><polygon points="-472,-176 -576.0132,-176 -640,-176 -640,-176 -544,-176 -488,-176 -472,-176" /><polygon points="-320,-176 -384,-176 -384,-176 -320,-176" /><polygon points="-208,-176 -208,-176 -208,-120 -208,-120 -208,-176" /><polygon points="-509.4053,-32 -472,-32 -472,-32 -532,-32 -532,-32" /><polygon points="-640,-176 -576.0132,-176 -509.4053,-32 -532,-32" /><polygon points="-576.0132,-176 -576.0132,-176 -509.4053,-32 -509.4053,-32" /><polygon points="320,48 320,48 384,48 384,48 384,48 320,48" /><polygon points="320,48 272,-16 208,-16 160,48" /><polygon points="768,0 768,0 816,0 976,0 976,0" /><polygon points="976,-128 976,-128 768,-128 768,-128" /><polygon points="976,0 976,-128 768,-128 768,0" /><polygon points="1667.5,236.5 1624.2942,279.7058 1584,320 1584,320 1592,312 1688,216 1688,216" /><polygon points="1688,216 1688,216 1667.5,236.5 1667.5,236.5" /><polygon points="1712,-96 1712,-96 1728,-96 1728,-96" /><polygon points="1728,-32 1712,-32 1712,-96 1728,-96" /><polygon points="-768,-128 -768,-128 -768,-128 -768,-128 -768,-176 -768,-176 -768,-176" /><polygon points="1200,-576 1200,-576 1200,-592 1200,-592" /><polygon points="1264,-592 1264,-592 1264,-576 1264,-576" /><polygon points="1200,-576 1200,-592 1264,-592 1264,-576" /><polygon points="944,-592 944,-592 944,-576 944,-576" /><polygon points="880,-576 880,-576 880,-592 880,-592" /><polygon points="880,-576 880,-592 944,-592 944,-576" /><polygon points="-248,640 -352,640 -472,640 -472,640 -384,640 -320,640 -248,640" /><polygon points="-24,640 -128,640 -248,640 -248,640 -128,640 -64,640 -24,640" /><polygon points="1056,480 1056,480 1056,496 1056,496" /><polygon points="1536,-320 1536,-320 1664,-320 1664,-320 1536,-320" /><polygon points="1368,-320 1368,-320 1368,-320 1368,-352 1368,-352 1368,-352 1368,-352 1368,-320" /><polygon points="1400,64 1400,64 1400,64 1400,64 1480,64 1480,64 1480,64 1480,64 1480,64 1480,64 1400,64" /><polygon points="1368,32 1368,32 1368,64 1368,64" /><polygon points="1368,-192 1480,-192 1480,-192 1480,-192 1424,-192 1368,-192" /><polygon points="1536,-320 1536,-320 1536,-192 1536,-192" /><polygon points="1424,-320 1536,-320 1536,-192 1480,-192 1368,-192 1368,-320" /><polygon points="1536.2147,32 1536,32 1536,64 1536.2147,64" /><polygon points="1536.2147,32 1552.2506,32 1552,32 1536,32 1536,32" /><polygon points="1368,64 1368,111.3482 1368,136 1368,128 1368,64" /><polygon points="1584,320 1584,320 1584,320 1458.4352,320 1458.4352,320 1584,320" /><polygon points="1400,64 1400,64 1400,128 1400,136" /><polygon points="1667.5,236.5 1667,236 1623.7935,279.2065 1624.2942,279.7058" /><polygon points="1624.2942,279.7058 1623.7935,279.2065 1623.7935,279.2065 1624.2942,279.7058" /><polygon points="1368,136 1368,136.2148 1400,136.2148 1400,136" /><polygon points="1160,224 1184,224 1184,224 1160,224" /><polygon points="1184,224 1184,224 1184,216 1184,216 1184,224" /><polygon points="1272,192 1272,192 1272,224 1272,224 1272,224" /><polygon points="1272,192 1272.2147,192 1288.2506,192 1287.5,192 1272,192" /><polygon points="1272.2147,192 1272,192 1272,224 1272.2147,224" /><polygon points="1159.7853,192 1160,192 1184,192 1184,192 1143.75,192" /><polygon points="1160,192 1159.7853,192 1159.7853,224 1160,224" /><polygon points="1159.7853,224 1159.7853,192 1143.75,192 1143.7494,224" /><polygon points="768,272 768,272 784,272 784,272" /><polygon points="768,272 784,272 848,272 848,272 832.9557,272 688.8768,272" /><polygon points="384,-176 384,-192 384,-192 384,-96 384,-32 384,48 384,48 384,48" /><polygon points="384,271.5429 384,80 384,80 384,271.5429" /><polygon points="592,-320 592,-320 592,-320 592,-320 592,-192 592,-192 592,-192 592,-192" /><polygon points="1040,-352 1040,-352 1040,-352 1056,-352 1056,-352 1056,-352" /><polygon points="752,-352 752,-352 752,-352 752,-352 752,-480 752,-480 752,-352" /><polygon points="976,-320 976,-320 976,-320 976,-320 976,-176 976,-176" /><polygon points="976,-320 976,-352 976,-352 976,-320" /><polygon points="1040,-200 1040,-200 1056,-184 1056,-184" /><polygon points="1040,-280 1041,-280 1041,-280 1040,-280" /><polygon points="1041,-280 1040,-280 1040,-200 1041,-200" /><polygon points="1041,-200 1040,-200 1040,-280 1041,-280" /><polygon points="1041,-200 1041,-200 1040,-200 1040,-200" /><polygon points="1040,-200 1040,-200 1041,-200 1041,-200" /><polygon points="1041,-200 1041,-200 1041,-280 1041,-280" /><polygon points="1041,-280 1041,-280 1041,-200 1041,-200" /><polygon points="736,-326.6245 752,-351.7249 752,-176 704,-176 639.9858,-176" /><polygon points="752,-351.7249 752,-352 976,-352 976,-320 976,-176 752,-176" /><polygon points="752,-351.7249 752,-351.7249 752,-352 752,-352" /><polygon points="512,-400 592,-320 592,-192 592,-176 512,-176 416,-176 416,-192 416,-400" /><polygon points="512,-400 512,-400 528.6442,-383.3559 573.9321,-338.0679 592,-320 592,-320" /><polygon points="976,-48 976,-128 976,-128 976,-48" /><polygon points="976,-48 976,-128 976,-128 976,0 976,0" /><polygon points="976,-128 976,-48 976,0 1032,0 1032,-128" /><polygon points="416,-72.5714 416,-176 512,-176 512,0 512,48 453.0795,48" /><polygon points="512,48 512,224 512,239.5918 462.9205,80 453.0795,48" /><polygon points="512,48 512,0 672,0 672,224 512,224" /><polygon points="672,224 672,240 672,272 665.3608,272 512,272 512,240 512,239.5918 512,224" /><polygon points="720,240 672,240 672,224 672,0 704,0 768,0 768,48 768,192" /><polygon points="816,0 768,48 768,0" /><polygon points="848,256 848,272 784,272 784,256" /><polygon points="704,-176 752,-176 752,-128 704,-128" /><polygon points="672,0 512,0 512,-176 592,-176 639.9858,-176 704,-176 704,-128 704,0" /><polygon points="928,0 912,0 848,0 816,0 768,0 704,0 704,-128 752,-128 928,-128" /><polygon points="976,-128 976,-48 928,0 928,-128" /><polygon points="976,-176 976,-160 976,-128 928,-128 752,-128 752,-176" /><polygon points="672,240 672,240 672,272 672,272" /><polygon points="912,0 912,0 848,0 848,0" /><polygon points="848,0 848,0 848,0 816,0 816,0" /><polygon points="768,48 768,48 768,104 768,168 768,192 768,192" /><polygon points="848,256 848,256 848,272 848,272" /><polygon points="512,239.5918 512,240 512,240 512,240 512,240 512,239.5918" /><polygon points="453.0795,48 462.9205,80 462.9205,80 428.477,-32 416,-72.5714 416,-72.5714" /><polygon points="512,240 512,272 512,272 512,272 512,272 512,240" /><polygon points="416,-192 416,-192 416,-192 384,-192 384,-192 384,-192" /><polygon points="416,-400 384,-400 384,-400 416,-400" /><polygon points="416,-400 416,-192 384,-192 384,-400" /><polygon points="-488,-176 -488,-176 -472,-176 -472,-176" /><polygon points="384,-176 384,-176 320,-176 320,-176" /><polygon points="-544,-176 -640,-176 -768,-176 -768,-400 -544,-400" /><polygon points="-488,-400 -488,-208 -488,-176 -544,-176 -544,-400" /><polygon points="-128,-192 -176,-192 -176,-208 -128,-208" /><polygon points="-264,-208 -472,-208 -488,-208 -488,-400 -320,-400 -264,-400" /><polygon points="-128,-400 -128,-208 -176,-208 -248,-208 -264,-208 -264,-400" /><polygon points="48,-176 -128,-176 -176,-176 -176,-192 -128,-192 48,-192" /><polygon points="272,-176 96,-176 48,-176 48,-192 96,-192 272,-192" /><polygon points="320,-192 384,-192 384,-176 320,-176 272,-176 272,-192" /><polygon points="96,-192 48,-192 -128,-192 -128,-208 -128,-400 -40,-400 24,-400 96,-400" /><polygon points="320,-192 272,-192 96,-192 96,-400 208,-400 320,-400" /><polygon points="384,-192 320,-192 320,-400 384,-400" /><polygon points="384,-400 320,-400 208,-400 208,-400 272,-400 384,-400" /><polygon points="-40,-400 -40,-400 24,-400 24,-400" /><polygon points="-544,-400 -768,-400 -768,-400 -640,-400 -576,-400 -544,-400" /><polygon points="-320,-400 -488,-400 -544,-400 -544,-400 -360,-400 -320,-400" /><polygon points="-176,-208 -176,-208 -248,-208 -248,-208" /><polygon points="384,272 384,271.5429 383.7885,272" /><polygon points="-472,272 -472,240 -472,112 -472,112 -472,112 -472,176 -472,272" /><polygon points="-472,47.6909 -472,-32 -472,-32 -472,-32 -472,-32 -472,-32 -472,48 -472,48" /><polygon points="-472,48 -471.4286,48 -472,47.6909" /><polygon points="-472,47.6909 -471.4286,48 -471.4286,48 -472,47.6909" /><polygon points="-208,272 -208,240 -248,240 -248,272" /><polygon points="-768,-128 -768,-176 -640,-176 -532,-32 -534.8036,-32 -619.3278,-32 -768,-112.4182" /><polygon points="-534.8036,-32 -578.6794,-10.013 -584,-12.8909 -619.3278,-32" /><polygon points="-584,-12.8909 -578.6794,-10.013 -578.6794,-10.013 -584,-12.8909" /><polygon points="-534.8036,-32 -534.8036,-32 -578.6794,-10.013 -578.6794,-10.013" /><polygon points="-640,-176 -640,-176 -532,-32 -532,-32" /><polygon points="112,576 112,576 112,480 112,480" /><polygon points="832,480 736,480 688.8768,480 832,480" /><polygon points="832,480 832,480 832.9557,480 992,480 992,480 992,480 832,480" /><polygon points="665.3608,480 512,480 512,272 665.3608,272" /><polygon points="672,272 688.8768,272 688.8768,480 665.3608,480 665.3608,272" /><polygon points="992,496 992,480 1056,480 1056,496" /><polygon points="48,416 48,384 48,304 -128,304 -128,496 -128,528 48,528" /><polygon points="-128,528 -128,576 48,576 48,528" /><polygon points="112,576 112,480 48,416 48,528 48,576" /><polygon points="-128,640 -24,640 48,640 112,576 48,576 -128,576" /><polygon points="-208,304 -208,272 -176,272 -176,304" /><polygon points="-128,304 -176,304 -176,496 -128,496" /><polygon points="-248,272 -472,272 -472,304 -248,304" /><polygon points="-208,304 -208,272 -248,272 -248,304" /><polygon points="-248,304 -472,304 -472,496 -352,496 -248,496" /><polygon points="-208,416 -208,304 -248,304 -248,496 -208,496" /><polygon points="-352,496 -472,496 -473.5502,496 -576,543.163 -576,640 -472,640 -352,640" /><polygon points="-248,640 -128,640 -128,576 -128,528 -128,496 -176,496 -208,496 -248,496 -352,496 -352,640" /><polygon points="-176,304 -176,272 -176,272 -176,304" /><polygon points="-208,304 -176,304 -176,304 -208,304" /><polygon points="112,480 112,480 48,416 48,416" /><polygon points="48,304 48,304 -48,304 -81,304 -128,304 -128,304" /><polygon points="-176,304 -128,304 -128,304 -128,304 -129,304 -176,304" /><polygon points="-176,304 -176,304 -176,304 -176,304 -176,304 -176,416 -176,496 -176,496" /><polygon points="48,640 48,640 48,640 112,576 112,576" /><polygon points="-473.5502,496 -472,496 -472,496 -472,496 -472,496 -472,496 -473.5502,496" /><polygon points="-472,496 -472,304 -472,304 -472,304 -472,368 -472,496" /><polygon points="-473.5502,496 -473.5502,496 -576,543.163 -576,543.163" /><polygon points="1056,-184 1032,-184 1032,-296 1056,-296" /><polygon points="1056,-184 1056,-184 1032,-184 1032,-184" /><polygon points="1032,-296 1032,-296 1056,-296 1056,-296" /><polygon points="1032,-184 1032,-184 1032,-296 1032,-296" /><polygon points="1056,-296 1056,-296 1056,-184 1056,-184" /><polygon points="-768,-112.4182 -768,-64 -768,-64 -768,-64 -768,-64 -768,-128 -768,-128" /><polygon points="-768,-112.4182 -768,-128 -768,-128 -768,-112.4182" /><polygon points="1056,-296 1056,-296 1056,-320 1056,-320 1056,-296" /><polygon points="384.488,272 384.488,272 416,272 512,272 512,272" /><polygon points="1056,-296 1040,-280 1040,-200 1056,-184" /><polygon points="-472,47.6909 -472,-32 -472,-32 -472,47.6909" /><polygon points="-472,47.6909 -472,48 -472,48 -472,-32 -472,-32" /><polygon points="-471.4286,48 -471.4286,48 -472,48 -472,48" /><polygon points="-471.4286,48 -472,48 -472,47.6909" /><polygon points="-584,-7.3468 -584,-7.3468 -584,8.6102 -584,8.6102" /><polygon points="-472,-32 -472,-32 -472,-32 -534.8036,-32 -534.8036,-32 -534.8036,-32 -532,-32 -472,-32" /><polygon points="-584,-7.3468 -584,-12.8909 -578.6794,-10.013" /><polygon points="-768,-64 -768,-112.4182 -584,-12.8909 -584,-7.3468 -584,8.6102 -768,-56.1017" /><polygon points="-768,-112.4182 -768,-112.4182 -619.3278,-32 -584,-12.8909 -584,-12.8909" /><polygon points="512,272 512,272 512,480 512,480" /><polygon points="384,480 384,480 384,304 384,304" /><polygon points="384,304 384,304 384,272.2247 384,272.2247" /><polygon points="384,304 384,272.2247 384.488,272 512,272 512,480 384,480" /><polygon points="384,48 384,48 320,48 320,48" /><polygon points="96,48 -128,48 -128,48 -112,48 48,48 96,48" /><polygon points="-128,48 -128,48 -176,48 -176,48 -128,48" /><polygon points="208,-16 272,-16 320,48 160,48" /><polygon points="208,-16 208,-16 272,-16 272,-16" /><polygon points="272,-16 272,-16 320,48 320,48" /><polygon points="160,48 160,48 208,-16 208,-16" /><polygon points="1712,192 1712,192 1688,216 1688,216 1688,216 1712,192" /><polygon points="1712,-32 1712,-32 1712,32 1712,64 1712,64" /><polygon points="-768,-64 -768,-64 -768,-56.1017 -768,-56.1017" /><polygon points="1664,-320 1664,-320 1664,-320 1712,-272 1712,-272 1712,-272 1664,-320" /><polygon points="1488,-320 1536,-320 1536,-320 1424,-320 1424,-320" /><polygon points="1488,-320 1488,-336 1488,-336 1488,-320" /><polygon points="1488,-336 1488,-320 1424,-320 1424,-336" /><polygon points="1552,64 1552.2506,64 1536.2147,64 1536,64 1480,64 1480,64" /><polygon points="1552.2506,64 1552,64 1552,32 1552.2506,32" /><polygon points="1480,32 1536,32 1552,32 1584,32 1584,32 1584,32 1480,32" /><polygon points="1552.2506,32 1536.2147,32 1536.2147,64 1552.2506,64" /><polygon points="1480,32 1480,32 1376,32 1368,32 1368,32 1368,32 1368,32 1480,32" /><polygon points="1368,152.2506 1368,136.2148 1368,136 1368,111.3482 1368,151.2204" /><polygon points="1400,151.2204 1400,64 1400,64 1400,136 1400,136.2148 1400,152.2506" /><polygon points="1400,152.2506 1368,152.2506 1368,151.2204 1400,151.2204" /><polygon points="1400,151.2204 1368,151.2204 1368,191.0927 1400,191.0927" /><polygon points="1400,152.2506 1400,136.2148 1368,136.2148 1368,152.2506" /><polygon points="1184,224 1184,224 1160,224 1159.7853,224 1143.7494,224" /><polygon points="1248,224 1272,224 1272,224 1272,224 1248,224" /><polygon points="1287.5,224 1288.2506,224 1272.2147,224 1272,224 1272,224" /><polygon points="1287.5,192 1288.2506,192 1288.2506,224 1287.5,224" /><polygon points="1248,192 1184,192 1184,200 1248,200" /><polygon points="1184,224 1248,224 1248,216 1184,216" /><polygon points="1184,192 1248,192 1272,192 1287.5,192 1327.5,192 1280,192 1103.75,192 1143.75,192" /><polygon points="1184,200 1184,192 1184,192 1184,192 1184,200" /><polygon points="1288.2506,192 1272.2147,192 1272.2147,224 1288.2506,224" /><polygon points="1248,192 1248,200 1248,200 1248,192" /><polygon points="1248,216 1248,224 1248,224 1248,216" /><polygon points="-208,272 -176,272 -176,272 -208,272" /><polygon points="48,272 -128,272 -128,272 -81,272 -48,272 48,272" /><polygon points="272,272 48,272 48,272 48,272 48,272 48,272 272,272" /><polygon points="416,272 416,272 416,272 512,272 512,272 512,272 512,272" /><polygon points="384,-192 384,-192 384,-192 384,-144 384,-96 384,-96" /><polygon points="416,-176 416,-192 416,-192 416,-176 416,-72.5714 416,-72.5714" /><polygon points="528.6442,-383.3559 527.8908,-382.6004 573.2427,-337.3766 573.9321,-338.0679" /><polygon points="527.8908,-382.6004 527.8267,-382.6644 573.2427,-337.3766 573.2427,-337.3766" /><polygon points="512,-400 512,-400 512,-400 528.5801,-383.42 528.6442,-383.3559" /><polygon points="573.9321,-338.0679 573.2427,-337.3766 573.2427,-337.3766 573.9321,-338.0679" /><polygon points="384,-96 400,-96 400,-32 384,-32" /><polygon points="384,-96 384,-96 400,-96 400,-96" /><polygon points="-296,-400 -128,-400 -128,-400 -264,-400 -320,-400 -320,-400" /><polygon points="-296,-416 -296,-416 -296,-400 -296,-400" /><polygon points="-360,-400 -360,-400 -360,-416 -360,-416" /><polygon points="-320,-400 -360,-400 -360,-416 -296,-416 -296,-400" /><polygon points="-640,-400 -640,-400 -640,-416 -640,-416" /><polygon points="-640,-400 -640,-416 -576,-416 -576,-400" /><polygon points="-576,-416 -576,-416 -576,-400 -576,-400" /><polygon points="-176,-176 -176,-176 -176,-208 -176,-208 -176,-208 -176,-192 -176,-176" /><polygon points="-472,-208 -472,-208 -488,-208 -488,-208 -472,-208" /><polygon points="-248,-208 -384,-208 -472,-208 -472,-208 -264,-208 -248,-208" /><polygon points="-248,-208 -176,-208 -176,-208 -208,-208 -320,-208 -384,-208 -384,-208 -384,-208" /><polygon points="-176,80 -176,80 -176,272 -176,272 -176,272 -176,272 -176,272 -176,272" /><polygon points="-176,-32 -176,-96 -176,-176 -176,-176 -176,-176 -176,-128 -176,0 -176,48 -176,48 -176,48" /><polygon points="320,48 384,48 384,48 272,48 272,48" /><polygon points="96,48 48,48 -128,48 -128,48 96,48" /><polygon points="320,48 272,48 96,48 96,48 160,48 320,48" /><polygon points="48,80 -128,80 -176,80 -176,272 -128,272 48,272" /><polygon points="272,80 96,80 48,80 48,272 272,272" /><polygon points="383.7885,272 384,271.5429 384,80 320,80 272,80 272,272" /><polygon points="-176,80 -128,80 -128,80 -128,80 -176,80" /><polygon points="384,80 384,80 384,80 320,80 320,80" /><polygon points="384,271.5429 383.7885,272 383.7885,272 384,271.5429" /><polygon points="-472,-32 -472,-32.1391 -472,-32.1391 -472,-32" /><polygon points="-472,112 -472,64 -472,48 -472,48 -472,48 -472,48 -472,48 -472,64 -472,112" /><polygon points="-248,64 -208,64 -208,64 -335.3552,64 -335.3552,64" /><polygon points="-176,-96 -183,-96 -183,-96 -176,-96" /><polygon points="-472,-32.1391 -472,-32 -472,48 -472,64 -335.3552,64 -415.0109,-7.7329" /><polygon points="-248,64 -335.3552,64 -472,64 -472,112 -472,240 -248,240" /><polygon points="-208,112 -208,64 -248,64 -248,240 -208,240" /><polygon points="-248,240 -472,240 -472,272 -248,272" /><polygon points="-584,8.6102 -584,-7.3468 -584,-7.3468 -584,30.4251 -584,30.4251" /><polygon points="-768,-56.1017 -584,8.6102 -584,30.4251 -768,0.6275" /><polygon points="-768,-56.1017 -768,-56.1017 -584,8.6102 -584,8.6102" /><polygon points="384,304 368.9868,304 383.5993,272.4091 384,272.2247" /><polygon points="287.7108,479.7108 368.9868,304 384,304 384,480 288,480" /><polygon points="288,480 288,480 287.7108,479.7108 287.7108,479.7108" /><polygon points="464,480 384,480 384,480 512,480 512,480" /><polygon points="384.488,272 384.488,272 384,272.2247 384,272.2247" /><polygon points="-208,272 -208,272 -208,304 -208,304" /><polygon points="-176,272 -208,272 -208,304 -176,304" /><polygon points="-183,-96 -183,-32 -183,-32 -183,-96" /><polygon points="-183,-96 -176,-96 -176,-32 -183,-32" /><polygon points="-192,-8 -192,-8 -200,-8 -200,-8" /><polygon points="-192,-120 -192,-120 -192,-8 -192,-8" /><polygon points="-768,-64 -768,-64 -768,-56.1017 -768,0.6275 -768,0.6275" /><polygon points="384.488,272 384.488,272 416,272 416,272 384.488,272" /><polygon points="-192,-104 -193,-104 -193,-104 -192,-104" /><polygon points="-192,-104 -192,-24 -192,-24 -192,-104" /><polygon points="-192,-24 -193,-23 -208,-8 -208,-8 -192,-24" /><polygon points="-192,-24 -193,-24 -193,-24 -192,-24" /><polygon points="-192,-104 -193,-104 -193,-24 -192,-24" /><polygon points="-584,30.4251 -584,-7.3468 -584,-7.3468 -584,48 -584,48" /><polygon points="-584,48 -768,48 -768,0.6275 -584,30.4251" /><polygon points="-768,0.6275 -768,0.6275 -584,30.4251 -584,30.4251" /><polygon points="288,480 288,480 384,480 464,480 464,480 464,480 400,480 288,480" /><polygon points="383.5993,272.4091 287.7108,479.7108 176,368 176,367.978" /><polygon points="287.7108,479.7108 288,480 288,480 176,368 176,368 176,368 176,368" /><polygon points="384.488,272 384.488,272 384,272.2247 383.5993,272.4091 383.5993,272.4091" /><polygon points="383.5993,272.4091 383.5993,272.4091 368.9868,304 287.7108,479.7108 287.7108,479.7108" /><polygon points="-193,-104 -192,-104 -192,-104 -193,-104" /><polygon points="-193,-24 -193,-104 -193,-104 -193,-24" /><polygon points="-193,-104 -193,-24 -193,-24 -193,-104" /><polygon points="-193,-24 -192,-24 -192,-24 -193,-24" /><polygon points="-193,-23 -192,-24 -193,-24" /><polygon points="-193,-24 -193,-104 -208,-104 -208,-32 -208,-8 -193,-23" /><polygon points="-200,-120 -200,-120 -192,-120 -192,-120" /><polygon points="-200,-8 -200,-8 -200,-120 -200,-120" /><polygon points="-200,-120 -192,-120 -192,-8 -200,-8" /><polygon points="1584,320 1584,320 1624.2942,279.7058 1624.2942,279.7058" /><polygon points="1624.2942,279.7058 1667.5,236.5 1688,216 1712,192 1712,192 1624,280 1616,288 1584,320 1584,320" /><polygon points="1712,-272 1712,-192 1712,-96 1712,-96 1712,-96 1712,-192 1712,-272" /><polygon points="1712,-272 1712,-272 1712,-192 1712,-192" /><polygon points="1712,64 1712,32 1712,32 1712,64" /><polygon points="1712,64 1712,64 1712,64 1712,192 1712,192 1712,192 1712,64" /><polygon points="1728,-32 1712,-32 1712,-32 1712,-32 1728,-32" /><polygon points="1712,-96 1712,-32 1728,-32 1728,-96" /><polygon points="1728,-96 1728,-32 1728,-32 1728,-96" /><polygon points="-768,-64 -768,-64 -768,0.6275 -768,48 -768,48" /><polygon points="1072,-576 976,-576 944,-576 880,-576 848,-576 848,-576 976,-576 1072,-576" /><polygon points="880,-576 880,-576 880,-576 848.2857,-576 848,-576 848,-576 848,-576" /><polygon points="1200,-576 1264,-576 1264,-592 1200,-592" /><polygon points="1264,-592 1264,-592 1200,-592 1200,-592" /><polygon points="880,-576 944,-576 944,-592 880,-592" /><polygon points="944,-592 944,-592 880,-592 880,-592" /><polygon points="1368,-320 1368,-320 1424,-320 1424,-320 1424,-320 1368,-320" /><polygon points="1280.767,-576 1280.767,-576 1368,-480.7663 1368,-480.7663 1280.767,-576" /><polygon points="1152,-320 1368,-320 1368,-352 1152,-352" /><polygon points="1280,480 1056,480 1056,480 1056,480 1152,480 1280,480" /><polygon points="1320,480 1320,480 1280,480 1280,480" /><polygon points="1584,64 1552,64 1480,64 1480,64" /><polygon points="1368,32 1368,32 1368,64 1368,64" /><polygon points="1584,32 1680,32 1584,32" /><polygon points="1584,32 1552,32 1552,64 1584,64" /><polygon points="1368,64 1368,191.0927 1368,151.2204 1368,111.3482 1368,64" /><polygon points="1400,64 1400,64 1400,151.2204 1400,191.0927" /><polygon points="1624.2942,279.7058 1623.7935,279.2065 1667,236 1667.5,236.5" /><polygon points="1667,236 1667,236 1667.5,236.5 1667.5,236.5" /><polygon points="1623.7935,279.2065 1623.7935,279.2065 1667,236 1667,236" /><polygon points="1400,192 1368,192 1368,224 1400,224" /><polygon points="1368,191.0927 1368,192 1400,192 1400,191.0927" /><polygon points="1280,224 1327.5,224 1287.5,224 1272,224 1248,224 1184,224 1143.7494,224 1103.75,224" /><polygon points="1280,224 1103.75,224 1056,224 1056,224 1280,224" /><polygon points="1327.5,192 1368,192 1368,192 1280,192 1280,192" /><polygon points="1103.75,192 1056,192 1056,224 1103.75,224" /><polygon points="1368,192 1327.5,192 1327.5,224 1368,224" /><polygon points="1103.75,224 1143.7494,224 1143.75,192 1103.75,192" /><polygon points="1327.5,192 1287.5,192 1287.5,224 1327.5,224" /><polygon points="-576,272 -576,272 -640,272 -640,272" /><polygon points="-296,272 -296,272 -360,272 -360,272" /><polygon points="-544,272 -472,272 -360,272 -360,272 -360,272 -416,272 -576,272 -576,272 -576,272" /><polygon points="48,272 48,272 -16,272 -16,272" /><polygon points="-128,272 -16,272 -16,272 -16,272 -128,272" /><polygon points="416,272 384.488,272 384,272 384,272 416,272" /><polygon points="784,272 768,272 768,272 832,272 832,272" /><polygon points="384,64 384,48 384,-32 384,-32 384,80 384,80" /><polygon points="384,-32 384,48 384,48 384,-32" /><polygon points="416,-400 416,-400 416,-400 416,-400 512,-400 512,-400 512,-400" /><polygon points="512,-400 512,-400 512,-400 416,-400 416,-400" /><polygon points="768,104 768,104 784,104 784,104" /><polygon points="848,16 848,0 912,0 912,16" /><polygon points="912,0 912,0 912,16 912,16" /><polygon points="768,168 784,168 784,168 768,168" /><polygon points="768,104 784,104 784,168 768,168" /><polygon points="768,192 768,192 736,224 720,240 720,240 768,192" /><polygon points="832,272 848,272 848,256 784,256 784,272" /><polygon points="784,272 784,256 784,256 784,272" /><polygon points="848,256 848,256 784,256 784,256" /><polygon points="428.477,-32 428.477,-32 416,-72.5714 416,-72.5714 428.477,-32" /><polygon points="441.7253,11.0797 441.7253,11.0797 428.477,-32 428.477,-32" /><polygon points="462.9205,80 462.9205,80 458,64 458,64" /><polygon points="458,64 441.7253,11.0797 428.477,-32 428.477,-32 462.9205,80 462.9205,80" /><polygon points="458,64 441.8266,11.0488 441.7253,11.0797" /><polygon points="441.7253,11.0797 441.8266,11.0488 441.8266,11.0488 441.7253,11.0797" /><polygon points="384,-400 384,-400 416,-400 416,-400" /><polygon points="384,-32 384,-32 400,-32 400,-32 384,-32" /><polygon points="-488,-176 -488.1862,-176 -498.5705,-176 -472,-176 -472,-176" /><polygon points="272,-400 272,-400 384,-400 384,-400 384,-400 384,-400" /><polygon points="24,-416 24,-416 24,-400 24,-400" /><polygon points="208,-400 208,-416 272,-416 272,-400" /><polygon points="208,-400 208,-400 208,-416 208,-416" /><polygon points="-40,-400 -40,-416 24,-416 24,-400" /><polygon points="-40,-400 -40,-400 -40,-416 -40,-416" /><polygon points="-488,-208 -488,-176 -488,-176 -488,-208" /><polygon points="-488,-208 -488.1862,-208 -488.1862,-176 -488,-176" /><polygon points="-176,-32 -176,-32 -176,48 -176,48" /><polygon points="-176,48 -176,64 -176,96 -176,96 -176,96 -176,96 -176,96 -176,96 -176,48 -176,-32 -176,-32 -176,-32 -176,-32" /><polygon points="48,48 -176,48 -176,48 -128,48 48,48" /><polygon points="272,48 48,48 48,48 96,48 272,48" /><polygon points="-128,112 -128,272 -176,272 -176,112" /><polygon points="-176,112 -176,96 -176,64 -128,64 -128,112" /><polygon points="48,64 -128,64 -176,64 -176,48 48,48" /><polygon points="272,64 96,64 48,64 48,48 272,48" /><polygon points="384,48 384,64 320,64 272,64 272,48" /><polygon points="-128,112 -128,64 48,64 96,64 96,272 48,272 -16,272 -128,272" /><polygon points="96,64 272,64 320,64 320,272 176,272 144,272 96,272" /><polygon points="320,64 384,64 384,80 384,272 320,272" /><polygon points="-335.3552,64 -208,64 -208,64 -336,64 -336,64" /><polygon points="-208,-104 -208,-104 -208,-96 -208,-32 -208,-32" /><polygon points="-208,-8 -208,64 -208,64 -208,64 -208,48 -208,-8" /><polygon points="-208,-120 -208,-104 -193,-104 -192,-104" /><polygon points="-208,-120 -192,-104 -192,-104 -193,-105 -208,-120" /><polygon points="-176,-32 -176,-32 -183,-32 -183,-32 -176,-32" /><polygon points="-472,48 -472,-32 -472,-32.1391 -415.0109,-7.7329 -335.3552,64 -336,64 -472,64" /><polygon points="-415.0109,-7.7329 -415.0109,-7.7329 -335.3552,64 -335.3552,64" /><polygon points="-472,-32.1391 -472,-32.1391 -415.0109,-7.7329 -415.0109,-7.7329" /><polygon points="-176,96 -176,112 -248,112 -336,112 -336,96" /><polygon points="-472,64 -336,64 -336,96 -336,112 -472,112" /><polygon points="-248,272 -296,272 -360,272 -472,272 -472,112 -336,112 -248,112" /><polygon points="-176,272 -248,272 -248,112 -176,112" /><polygon points="-768,48 -768,48 -584,48 -584,48" /><polygon points="-472,48 -544,48 -584,48 -584,-7.3468 -534.8036,-32 -472,-32" /><polygon points="-534.8036,-32 -584,-7.3468 -584,-7.3468 -584,-7.3468 -584,-7.3468 -578.6794,-10.013 -534.8036,-32" /><polygon points="-768,112 -768,48 -584,48 -544,48 -544,272 -576,272 -640,272 -768,272" /><polygon points="-544,48 -472,48 -472,64 -472,112 -472,272 -544,272" /><polygon points="976,272 976,272 976,271.035 976,271.035 976,272" /><polygon points="832,480 832,480 736,480 736,480 832,480" /><polygon points="1056,480 992,480 992,496 1056,496" /><polygon points="992,496 992,480 992,480 992,496" /><polygon points="992,496 992,496 1056,496 1056,496" /><polygon points="176,368 176,367.978 176,367.978 176,368" /><polygon points="320,272 384,272 384.488,272 176,367.978 176,272" /><polygon points="384.488,272 384.488,272 383.5993,272.4091 176,367.978 176,367.978" /><polygon points="-784,-128 -784,-128 -768,-128 -768,-128" /><polygon points="-768,-64 -784,-64 -784,-128 -768,-128" /><polygon points="-768,-64 -768,-64 -784,-64 -784,-64" /><polygon points="-498.5705,-176 -519.3442,-176 -514.976,-176 -472,-176 -472,-176" /><polygon points="-498.5705,-208 -488.1862,-208 -488,-208 -472,-208 -472,-208" /><polygon points="-498.5705,-208 -519.3442,-208 -519.3442,-176 -498.5705,-176" /><polygon points="-498.5705,-176 -488.1862,-176 -488.1862,-208 -498.5705,-208" /><polygon points="976,-352 909.9643,-352 909.9643,-320 976,-320" /><polygon points="672,240 606.6429,240 606.6429,272 672,272" /><polygon points="592,-176 592,-176 592,-176 639.9858,-176 639.9858,-176 592,-176" /><polygon points="592,-176 592,-176 592,-192 592,-192" /><polygon points="592,-192 520.942,-192 520.942,-176 592,-176" /><polygon points="384,-400 384,-400 384,-316.905" /><polygon points="416,-400 384,-400 384,-316.905 416,-316.905" /><polygon points="416,-192 416,-192 416,-192 416,-176 416,-176" /><polygon points="1032,-160 1056,-160 1056,-160 1056,-160 1032,-160" /><polygon points="1032,-128 1032,-160 1032,-160 1032,-160 1032,-128" /><polygon points="1032,0 976,0 976,0 976,0 976,0 976,0 1032,0" /><polygon points="384,-208 384,-275.162 384,-208" /><polygon points="416,-208 416,-275.162 384,-275.162 384,-208 384,-192 416,-192" /><polygon points="1368,-320 1368,-320 1152,-320 1152,-320 1368,-320" /><polygon points="1592,-320 1488,-320 1424,-320 1368,-320 1368,-320 1376,-320 1584,-320 1592,-320" /><polygon points="1592,-320 1664,-320 1664,-320 1536,-320 1488,-320 1488,-320" /><polygon points="1488,-320 1488,-336 1424,-336 1424,-320" /><polygon points="1424,-320 1424,-336 1424,-336 1424,-320" /><polygon points="1488,-336 1488,-336 1424,-336 1424,-336" /><polygon points="1680,64 1584,64 1480,64 1480,64" /><polygon points="1680,32 1712,32 1712,32 1584,32 1584,32" /><polygon points="1712,32 1680,32 1680,64 1712,64" /><polygon points="1680,32 1584,32 1584,64 1680,64" /><polygon points="-640,272 -640,272 -640,272 -768,272 -768,272 -640,272" /><polygon points="527.8267,-382.6644 528.5801,-383.42 573.9321,-338.0679 573.2427,-337.3766" /><polygon points="573.9321,-338.0679 528.5801,-383.42 512,-400 512,-400 592,-320 592,-320" /><polygon points="592,-320 592,-320 573.9321,-338.0679 573.9321,-338.0679" /><polygon points="527.8267,-382.6644 527.8908,-382.6004 528.6442,-383.3559 528.5801,-383.42" /><polygon points="384,-96 384,-32 400,-32 400,-96" /><polygon points="400,-32 400,-32 400,-96 400,-96" /><polygon points="-514.976,-176 -576.928,-176 -544,-176 -472,-176 -472,-176" /><polygon points="-320,-176 -320,-176 -320,-176 -248,-176 -208,-176 -208,-176 -208,-176 -320,-176" /><polygon points="-360,-400 -296,-400 -296,-416 -360,-416" /><polygon points="-296,-416 -296,-416 -360,-416 -360,-416" /><polygon points="-640,-400 -576,-400 -576,-416 -640,-416" /><polygon points="-576,-416 -576,-416 -640,-416 -640,-416" /><polygon points="-514.976,-208 -472,-208 -472,-208 -544,-208 -576.928,-208" /><polygon points="-514.976,-208 -519.3442,-208 -498.5705,-208 -472,-208 -472,-208" /><polygon points="-384,-176 -384,-192 -320,-192 -320,-176" /><polygon points="-519.3442,-208 -514.976,-208 -514.976,-176 -519.3442,-176" /><polygon points="-514.976,-176 -514.976,-208 -576.928,-208 -576.928,-176" /><polygon points="-176,-96 -176,-32 -176,-32 -176,-96" /><polygon points="-176,-96 -183,-96 -183,-32 -176,-32" /><polygon points="-208,-96 -192,-96 -192,-32 -208,-32" /><polygon points="-208,-32 -192,-32 -192,-32 -208,-32" /><polygon points="-192,-96 -208,-96 -208,-96 -192,-96" /><polygon points="-576,272 -576,272 -576,288 -576,288" /><polygon points="-16,288 -16,272 48,272 48,288" /><polygon points="-16,288 -16,288 -16,272 -16,272" /><polygon points="48,272 48,272 48,288 48,288" /><polygon points="-296,272 -296,272 -296,288 -296,288" /><polygon points="-360,288 -360,272 -296,272 -296,288" /><polygon points="-360,288 -360,288 -360,272 -360,272" /><polygon points="-640,288 -640,272 -576,272 -576,288" /><polygon points="-640,288 -640,288 -640,272 -640,272" /><polygon points="752,-352 798.2143,-352 752,-352" /><polygon points="752,-351.7249 752,-351.7249 736,-326.6245 736,-326.6245" /><polygon points="752,-320 752,-351.7249 736,-326.6245 736,-320" /><polygon points="-472,-208 -384,-208 -384,-208 -544,-208 -544,-208" /><polygon points="-384,-208 -472,-208 -472,-208 -472,-208 -472,-208 -472,-208 -384,-208" /><polygon points="-576.928,-208 -592.8571,-208 -592.8571,-176 -576.928,-176" /><polygon points="-592.8571,-176 -592.8571,-208 -768,-208 -768,-176" /><polygon points="672,272 672,272 606.6429,272" /><polygon points="574.7143,272 512,272 512,272" /><polygon points="736,272 768,272 768,272 768,272 688.8768,272 672,272 672,272 672,272" /><polygon points="736,272 672,272 606.6429,272 574.7143,272 512,272 512,272 736,272" /><polygon points="832,272 832,272 960,272 976,272 976,272 848,272 832,272" /><polygon points="384,-275.162 384,-316.905 384,-400 384,-400 384,-400 384,-208 384,-208" /><polygon points="384,-208 384,-208 384,-192 384,-192 384,-192 384,-208" /><polygon points="416,-208 416,-208 416,-192 416,-192 416,-192 416,-192 416,-208" /><polygon points="416,-275.162 416,-208 416,-208" /><polygon points="416,-400 416,-400 416,-316.905" /><polygon points="485.7729,-176 416,-176 416,-176" /><polygon points="592,-176 592,-176 520.942,-176" /><polygon points="752,-352 798.2143,-352 909.9643,-352 976,-352 976,-352 752,-352" /><polygon points="909.9643,-352 976,-352 976,-352" /><polygon points="976,-320 976,-320 909.9643,-320" /><polygon points="798.2143,-320 752,-320 736,-320 736,-320" /><polygon points="909.9643,-352 798.2143,-352 798.2143,-320 909.9643,-320" /><polygon points="798.2143,-352 752,-352 752,-351.7249 752,-320 798.2143,-320" /><polygon points="416,-192 416,-192 485.7729,-192" /><polygon points="520.942,-192 592,-192 592,-192" /><polygon points="485.7729,-192 520.942,-192 592,-192 592,-192 416,-192 416,-192" /><polygon points="512,-176 520.942,-176 520.942,-192 485.7729,-192 485.7729,-176" /><polygon points="485.7729,-192 416,-192 416,-176 485.7729,-176" /><polygon points="606.6429,240 672,240 672,240" /><polygon points="512,240 512,240 574.7143,240" /><polygon points="512,240 574.7143,240 606.6429,240 672,240 672,240 512,240" /><polygon points="606.6429,240 574.7143,240 574.7143,272 606.6429,272" /><polygon points="574.7143,240 512,240 512,272 574.7143,272" /><polygon points="384,-316.905 384,-275.162 416,-275.162 416,-316.905" /><polygon points="1280,480 1056,480 1056,480 1280,480" /><polygon points="1624,64 1712,64 1712,64 1680,64 1480,64 1480,64" /><polygon points="1368,368 1368,432 1368,432 1368,368" /><polygon points="1400,64 1400,64 1400,191.0927 1400,192 1400,224 1400,224" /><polygon points="1624,64 1480,64 1400,64 1400,224 1400,288 1616,288 1624,280" /><polygon points="1400,288 1400,320 1458.4352,320 1584,320 1616,288" /><polygon points="1712,192 1712,64 1624,64 1624,280" /><polygon points="1368,224 1400,224 1400,224 1368,224" /><polygon points="1368,224 1368,272 1368,320 1400,320 1400,288 1400,224" /><polygon points="1458.4352,320 1400,320 1368,320 1368,368 1370.2678,368" /><polygon points="1370.2678,368 1368,368 1368,368 1370.2678,368" /><polygon points="1368,224 1368,224 1327.5,224 1280,224 1280,224" /><polygon points="1368,192 1368,192 1280,192 1280,192" /><polygon points="1280,192 1056,192 1056,192 1103.75,192 1280,192" /><polygon points="1280,272 1056,272 1056,480 1280,480" /><polygon points="1320,480 1368,432 1368,368 1368,320 1368,272 1280,272 1280,480" /><polygon points="1280,224 1056,224 1056,272 1280,272" /><polygon points="1368,272 1368,224 1280,224 1280,272" /><polygon points="1368,432 1320,480 1320,480 1320,480 1368,432" /><polygon points="832,272 832,272 768,272 736,272 736,272" /><polygon points="976,271.035 1054.2094,224 1054.2094,224 976,271.035" /><polygon points="1056,224 1054.2094,224 976,271.035 976,272 1056,272" /><polygon points="1054.2094,224 1056,224 1056,224 1056,224 1054.2094,224" /><polygon points="512,432 512,352 512,352 512,432" /><polygon points="736,272 512,272 512,304 512,352 512,432 512,480 736,480" /><polygon points="960,272 832,272 736,272 736,480 832,480 960,480" /><polygon points="1056,272 976,272 960,272 960,480 1056,480" /><polygon points="736,480 512,480 512,480 512,480 512,480 665.3608,480 688.8768,480 736,480" /><polygon points="1056,480 960,480 832,480 832,480 992,480 1056,480" /><polygon points="512,480 464,480 464,480 512,480" /><polygon points="512,432 464,480 512,480" /><polygon points="464,304 512,304 512,272 416,272 384,272 384,304" /><polygon points="512,304 464,304 512,352" /><polygon points="464,304 384,304 384,304 384,304 464,304" /><polygon points="384,304 384,272 384,272 384,304" /><polygon points="-768,-176 -768,-208 -768,-400 -768,-400 -768,-400 -768,-176" /><polygon points="-768,-400 -768,-400 -640,-400 -640,-400 -640,-400 -768,-400" /><polygon points="1712,-192 1712,-96 1712,32 1712,32 1712,32 1712,-32 1712,-96 1712,-192" /><polygon points="-768,-400 -768,-400 -768,-208 -768,-208" /><polygon points="-768,-128 -768,-64 -768,96 -768,96 -768,64 -768,-128" /><polygon points="-768,96 -768,-64 -768,-64 -768,48 -768,112 -768,112" /><polygon points="-768,112 -768,112 -768,272 -768,272 -768,112" /><polygon points="1056,-296 1056,-296 1056,-184 1056,-160 1056,-160" /><polygon points="1056,192 1056,128 1056,32 1056,32 1056,222.9231 1056,222.9231" /><polygon points="1664,-320 1664,-320 1592,-320 1592,-320" /><polygon points="1152,-192 1152,-224 1152,-320 1056,-320 1056,-296 1056,-160 1056,-96 1152,-96" /><polygon points="1056,-96 1056,32 1056,128 1152,128 1152,32 1152,-96" /><polygon points="1056,128 1056,192 1152,192 1152,128" /><polygon points="1280,192 1368,192 1368,64 1368,32 1152,32 1152,128 1152,192" /><polygon points="1376,-320 1368,-320 1152,-320 1152,-224 1376,-224" /><polygon points="1584,-224 1584,-320 1376,-320 1376,-224" /><polygon points="1712,-192 1712,-272 1664,-320 1592,-320 1584,-320 1584,-224 1584,-192 1584,-96 1712,-96" /><polygon points="1584,-96 1584,32 1712,32 1712,-96" /><polygon points="1376,-224 1152,-224 1152.8136,-224 1376,-224" /><polygon points="1584,-224 1583.1864,-224 1551.2769,-192 1584,-192" /><polygon points="1480,32 1584,32 1520,-32 1440,-32 1376,-32 1376,32" /><polygon points="1368,64 1368,192 1368,192 1368,192 1368,191.0927 1368,64" /><polygon points="1280,192 1152,192 1056,192 1056,192 1280,192" /><polygon points="1056,222.9231 1056,222.9231 976,271.035 976,271.035" /><polygon points="416,-72.5714 416,-72.5714 416,-176 416,-176 416,-176 416,-176 416,-72.5714" /><polygon points="416,-400 416,-400 416,-316.905 416,-275.162 416,-208 416,-208" /><polygon points="512,-176 512,-176 485.7729,-176 416,-176 416,-176 512,-176" /><polygon points="512,-176 592,-176 592,-176 520.942,-176 512,-176" /><polygon points="736,-176 639.9858,-176 592,-176 512,-176 512,-176 736,-176" /><polygon points="863.9858,-320 736,-320 731.7772,-320 639.9858,-176 736,-176 863.9858,-176" /><polygon points="976,-320 863.9858,-320 863.9858,-176 976,-176" /><polygon points="736,-326.6245 731.7772,-320 736,-320" /><polygon points="736,-326.6245 736,-320 736,-320 736,-320 736,-326.6245" /><polygon points="863.9858,-320 976,-320 976,-320 909.9643,-320 798.2143,-320 736,-320 736,-320" /><polygon points="731.7772,-320 736,-326.6245 736,-326.6245 736,-326.6245 639.9858,-176 639.9858,-176" /><polygon points="592,-192 592,-320 512,-400 416,-400 416,-208 416,-192" /><polygon points="976,-176 976,-160 976,-160 976,-176" /><polygon points="976,-128 976,-128 976,-160 976,-160" /><polygon points="976,-48 976,-128 976,-160 976,-176 976,-176 976,-48" /><polygon points="1056,32 1032,32 1032,32 1056,32" /><polygon points="1056,-96 1056,-160 1032,-160 1032,-128 1032,0 1032,32 1056,32" /><polygon points="976,32 1056,32 1056,128 1056,192 1056,222.9231 976,271.035" /><polygon points="912,0 912,0 912,0 928,0 928,0" /><polygon points="976,-48 976,-48 928,0 928,0 928,0 976,-48" /><polygon points="768,168 768,168 768,192 768,192 768,168" /><polygon points="768,168 768,104 768,104 768,168" /><polygon points="816,0 816,0 768,48 768,48 768,48 816,0" /><polygon points="848,16 848,0 848,0 848,16" /><polygon points="912,0 848,0 848,16 912,16" /><polygon points="848,16 848,16 912,16 912,16" /><polygon points="768,104 768,168 784,168 784,104" /><polygon points="784,168 784,168 784,104 784,104" /><polygon points="441.7253,11.0797 441.8266,11.0488 458,64" /><polygon points="441.8266,11.0488 441.8266,11.0488 458,64 458,64" /><polygon points="-768,-176 -768,-176 -768,-176 -544,-176 -544,-176 -576.928,-176 -592.8571,-176 -768,-176" /><polygon points="48,-400 24,-400 -40,-400 -128,-400 -176,-400 -176,-400 48,-400" /><polygon points="272,-400 208,-400 48,-400 48,-400 272,-400" /><polygon points="48,-400 208,-400 208,-400 208,-400 96,-400 24,-400 24,-400 24,-400" /><polygon points="-40,-400 -40,-400 -40,-400 -128,-400 -128,-400 -128,-400" /><polygon points="-208,-400 -176,-400 -128,-400 -128,-400 -296,-400 -296,-400 -296,-400" /><polygon points="-360,-400 -320,-400 -296,-400 -296,-400 -360,-400" /><polygon points="-544,-400 -360,-400 -360,-400 -360,-400 -544,-400 -576,-400 -576,-400 -576,-400" /><polygon points="-640,-400 -576,-400 -576,-400 -640,-400" /><polygon points="272,-416 272,-400 272,-400 272,-416" /><polygon points="208,-400 272,-400 272,-416 208,-416" /><polygon points="272,-416 272,-416 208,-416 208,-416" /><polygon points="-40,-400 24,-400 24,-416 -40,-416" /><polygon points="24,-416 24,-416 -40,-416 -40,-416" /><polygon points="-544,-208 -768,-208 -768,-208 -592.8571,-208 -576.928,-208 -544,-208" /><polygon points="-544,-400 -576,-400 -640,-400 -768,-400 -768,-208 -544,-208" /><polygon points="-320,-400 -360,-400 -544,-400 -544,-208 -384,-208 -320,-208" /><polygon points="-208,-208 -208,-400 -296,-400 -320,-400 -320,-208" /><polygon points="-176,-400 -208,-400 -208,-208 -176,-208" /><polygon points="-320,-176 -320,-192 -320,-192 -320,-176" /><polygon points="-320,-176 -320,-176 -320,-192 -320,-192" /><polygon points="-384,-192 -384,-176 -384,-176 -384,-192" /><polygon points="-384,-176 -384,-192 -384,-192 -384,-176" /><polygon points="-384,-192 -384,-192 -320,-192 -320,-192 -320,-192 -384,-192" /><polygon points="-208,64 -208,64 -351.2143,64 -352,64 -336,64" /><polygon points="-176,96 -176,96 -336,96 -336,96" /><polygon points="-336,96 -336,96 -336,64 -336,64" /><polygon points="-768,-64 -768,-128 -784,-128 -784,-64" /><polygon points="-784,-128 -784,-128 -784,-64 -784,-64" /><polygon points="1376.8136,-224 1583.1864,-224 1584,-224 1376,-224 1376,-224" /><polygon points="1376.8136,-224 1376,-224 1152.8136,-224 1184.7231,-192 1216,-160.6346 1376.8136,-160.6346" /><polygon points="176,272 176,272 176,272 176,272 144,272 144,272 144,272 176,272" /><polygon points="176,272 208,272 176,272" /><polygon points="176,368 176,304 176,272 176,272 176,367.978 176,368" /><polygon points="176,304 176,304 208,304" /><polygon points="176,272 176,304 208,304 208,272" /><polygon points="1056,222.9231 1056,32 1056,32 1056,272 1056,272" /><polygon points="976,272 1056,272 1056,272 976,272" /><polygon points="976,271.035 976,271.035 976,32 976,32 976,271.035" /><polygon points="-208,64 -208,64 -256.9756,64 -383.1429,64 -351.2143,64" /><polygon points="-351.2143,96 -352,96 -352,64 -351.2143,64" /><polygon points="-351.2143,96 -176,96 -176,96 -336,96 -352,96" /><polygon points="-352,96 -336,96 -336,64 -352,64" /><polygon points="976,272 976,272 976,271.035 976,271.035" /><polygon points="1056,272 976,272 976,271.035 1056,222.9231" /><polygon points="-360,272 -296,272 -296,272 -320,272 -416,272 -416,272" /><polygon points="-128,272 -128,272 -176,272 -208,272 -296,272 -296,272 -296,272 -296,272 -248,272 -176,272 -128,272" /><polygon points="144,272 96,272 48,272 48,272 48,272 96,272 144,272" /><polygon points="144,272 144,272 96,272 96,272" /><polygon points="-248,-176 -320,-176 -384,-176 -472,-176 -472,-176 -320,-176 -248,-176" /><polygon points="-384,-176 -320,-176 -320,-192 -384,-192" /><polygon points="-176,-176 -176,-176 -176,-176 -176,-96 -176,-96 -176,-96" /><polygon points="-176,-96 -176,-32 -176,-32 -176,-176 -176,-176" /><polygon points="-208,-96 -208,-32 -192,-32 -192,-96" /><polygon points="-383.1429,64 -384.7805,64 -384.7805,96 -383.1429,96" /><polygon points="-208,64 -208,64 -256.9756,64 -256.9756,64" /><polygon points="-256.9756,96 -383.1429,96 -384.7805,96 -480.9756,96 -320,96 -256.9756,96" /><polygon points="-384.7805,96 -384.7805,64 -480.9756,64 -480.9756,96" /><polygon points="-208,-176 -208,-104 -208,-104 -208,-104 -208,-120 -208,-176" /><polygon points="-208,-104 -208,-96 -208,-96 -208,-104" /><polygon points="-208,64 -208,64 -208,64 -208,64 -208,-8 -208,-32 -208,-32 -208,-32" /><polygon points="-192,-96 -192,-32 -192,-32 -192,-96" /><polygon points="-256.9756,96 -176,96 -176,96 -351.2143,96 -383.1429,96" /><polygon points="-383.1429,64 -383.1429,96 -351.2143,96 -351.2143,64" /><polygon points="48,272 -16,272 -16,288 48,288" /><polygon points="-16,288 -16,288 48,288 48,288" /><polygon points="-296,272 -360,272 -360,288 -296,288" /><polygon points="-360,288 -360,288 -296,288 -296,288" /><polygon points="-640,288 -640,288 -576,288 -576,288" /><polygon points="-576,272 -640,272 -640,288 -576,288" /><polygon points="1551.2769,-192 1520,-160.6346 1520,-32 1584,32 1584,-96 1584,-192" /><polygon points="1184.7231,-192 1152.8136,-224 1152,-224 1152,-192" /><polygon points="352.0362,272 352,272 384,272 384,272" /><polygon points="352.0362,272 384,272 384,272 296.2681,272" /><polygon points="352.0362,304 384,304 384,304 352,304" /><polygon points="208.4297,272 208,272 208,304 208.4297,304" /><polygon points="352.0362,304 352.0362,272 296.2681,272 296.2681,304" /><polygon points="352,304 384,304 384,272 352,272" /><polygon points="-256.9756,64 -208,64 -208,64 -320,64 -320,64" /><polygon points="-256.9756,64 -320,64 -480.9756,64 -384.7805,64 -383.1429,64 -256.9756,64" /><polygon points="-320,96 -480.9756,96 -499,96 -544,96 -544,96 -320,96" /><polygon points="-176,96 -176,96 -256.9756,96 -256.9756,96" /><polygon points="-499,96 -480.9756,96 -480.9756,64 -499,64" /><polygon points="-499,96 -499,64 -544,64 -544,96" /><polygon points="-544,96 -768,96 -768,96 -544,96" /><polygon points="-544,64 -768,64 -768,96 -544,96" /><polygon points="176,272 176,272 208,272 208.4297,272 272.562,272" /><polygon points="272.562,272 296.2681,272 384,272 384,272 272,272 176,272 176,272" /><polygon points="384,272 384,272 384,272 384,272 384,272 384,80 384,80 384,80 384,272" /><polygon points="176,304 176,304 176,304 176,368 176,368 176,304" /><polygon points="272.562,304 208.4297,304 208,304 176,304 176,304" /><polygon points="400,304 464,304 464,304 384,304 352.0362,304 296.2681,304" /><polygon points="400,304 296.2681,304 272.562,304 176,304 176,304 400,304" /><polygon points="272.562,304 296.2681,304 296.2681,272 272.562,272" /><polygon points="272.562,272 208.4297,272 208.4297,304 272.562,304" /><polygon points="-768,-176 -768,-176 -768,-128 -768,-128" /><polygon points="-768,96 -768,96 -768,112 -768,112 -768,96" /><polygon points="-768,-176 -768,-176 -768,-128 -768,64 -768,64" /><polygon points="1200,-576 1280.767,-576 1280.767,-576 1264,-576 1200,-576 1152,-576 1072,-576 1072,-576" /><polygon points="-768,-176 -768,64 -704,0 -704,-112" /><polygon points="1440,-160.6346 1376.8136,-160.6346 1216,-160.6346 1216,-32 1376,-32 1440,-32" /><polygon points="1520,-160.6346 1440,-160.6346 1440,-32 1520,-32" /><polygon points="976,-576 848,-576 752,-480 752,-352 976,-352" /><polygon points="1200,-576 1072,-576 976,-576 976,-352 1056,-352 1152,-352 1200,-352" /><polygon points="1368,-352 1368,-368 1368,-480.7663 1280.767,-576 1200,-576 1200,-352" /><polygon points="816,0 928,0 976,-48 976,-176 768,-176 768,0" /><polygon points="736,-176 512,-176 512,48 736,48" /><polygon points="512,48 512,239.5918 512,240 672,240 720,240 736,224 736,48" /><polygon points="768,0 768,-176 736,-176 736,48 768,48" /><polygon points="736,48 736,224 768,192 768,168 768,104 768,48" /><polygon points="1056,32 976,32 976,271.035 976,272 1056,272" /><polygon points="768,48 816,0 768,0" /><polygon points="512,-176 416,-176 416,-72.5714 453.0795,48 512,48" /><polygon points="453.0795,48 462.9205,80 512,239.5918 512,48" /><polygon points="400,304 176,304 176,368 288,480 400,480" /><polygon points="512,432 512,352 464,304 400,304 400,480 464,480" /><polygon points="-176,96 -208,96 -208,272 -176,272" /><polygon points="-544,96 -768,96 -768,112 -768,272 -640,272 -544,272" /><polygon points="-320,96 -544,96 -544,272 -416,272 -320,272" /><polygon points="-208,96 -320,96 -320,272 -296,272 -208,272" /><polygon points="-208,-32 -208,-176 -272,-112 -272,0 -208,64" /><polygon points="48,-400 -176,-400 -112,-336 48,-336" /><polygon points="272,-400 48,-400 48,-336 272,-336" /><polygon points="384,-192 384,-208 384,-400 320,-336 320,-176 384,-176" /><polygon points="384,272 320,208 272,208 272,272" /><polygon points="-208,64 -272,0 -320,0 -320,64" /><polygon points="-544,-176 -768,-176 -704,-112 -544,-112" /><polygon points="-320,-176 -472,-176 -544,-176 -544,-112 -320,-112" /><polygon points="1368,-368 1368,-352 1368,-352 1368,-352 1368,-368" /><polygon points="1368,-480.7663 1368,-368 1368,-368 1368,-480.7663" /><polygon points="1368,-352 1200,-352 1152,-352 1152,-352 1368,-352" /><polygon points="1440,-160.6346 1520,-160.6346 1551.2769,-192 1583.1864,-224 1376.8136,-224 1376.8136,-160.6346" /><polygon points="1376,-32 1216,-32 1152,32 1368,32 1376,32" /><polygon points="1216,-160.6346 1184.7231,-192 1152,-192 1152,-96 1152,32 1216,-32" /><polygon points="-416,272 -544,272 -640,272 -640,272 -576,272 -416,272" /><polygon points="96,272 48,272 -128,272 -128,272 -16,272 48,272 96,272" /><polygon points="384,-144 384,48 384,80 384,80 384,-32 384,-96 384,-144" /><polygon points="384,-192 384,-176 384,-144 384,-144 384,-192" /><polygon points="768,-176 976,-176 976,-176 863.9858,-176 736,-176 736,-176" /><polygon points="1056,-352 976,-352 976,-352 976,-352 976,-352 976,-352 976.5,-352 1024,-352 1040,-352 1056,-352" /><polygon points="752,-480 848,-576 848,-576 848,-576 752.1818,-480.1818 752,-480" /><polygon points="1056,32 1056,32 1056,32 976,32 976,32" /><polygon points="928,0 816,0 816,0 848,0 912,0 928,0" /><polygon points="720,240 672,240 672,240 672,240 672,240 720,240" /><polygon points="768,48 768,104 768,104 768,104 768,48" /><polygon points="453.0795,48 416,-72.5714 416,-72.5714 428.477,-32 441.7253,11.0797 458,64 462.9205,80 462.9205,80" /><polygon points="512,239.5918 462.9205,80 462.9205,80 462.9205,80 462.9205,80 462.9205,80 512,239.5918" /><polygon points="-544,-176 -472,-176 -472,-176 -472,-176 -544,-176" /><polygon points="-208,-176 -208,-176 -248,-176 -248,-176" /><polygon points="384,-400 384,-400 272,-400 272,-400" /><polygon points="-176,-400 -176,-400 -176,-208 -176,-176 -176,-176 -176,-176" /><polygon points="-544,64 -768,64 -768,64 -544,64" /><polygon points="-320,64 -544,64 -544,64 -499,64 -480.9756,64 -320,64" /><polygon points="-208,-176 -208,-32 -208,-32 -208,-96 -208,-104 -208,-176" /><polygon points="-208,-32 -208,64 -208,64 -208,64 -208,-32" /><polygon points="-208,96 -176,96 -176,96 -256.9756,96 -320,96 -320,96" /><polygon points="512,432 464,480 464,480 512,432" /><polygon points="512,352 512,352 464,304 464,304 464,304 464,304" /><polygon points="464,304 464,304 400,304 400,304" /><polygon points="320,-176 320,-336 272,-336 48,-336 -112,-336 -112,-176 -112,0 320,0" /><polygon points="-112,0 -112,48 -112,208 48,208 272,208 320,208 320,48 320,0" /><polygon points="-544,0 -320,0 -272,0 -272,-112 -320,-112 -544,-112 -704,-112 -704,0" /><polygon points="-112,208 -112,48 -176,48 -176,96 -176,272" /><polygon points="-112,48 -112,0 -112,-176 -176,-176 -176,-32 -176,48" /><polygon points="-112,-176 -112,-336 -176,-400 -176,-176" /><polygon points="320,-336 384,-400 272,-400 272,-336" /><polygon points="320,48 320,208 384,272 384,80 384,48" /><polygon points="320,-176 320,0 320,48 384,48 384,-144 384,-176" /><polygon points="48,208 -112,208 -176,272 -128,272 48,272" /><polygon points="272,208 48,208 48,272 96,272 144,272 176,272 272,272" /><polygon points="-544,0 -704,0 -768,64 -544,64" /><polygon points="-320,0 -544,0 -544,64 -320,64" /><polygon points="-272,-112 -208,-176 -248,-176 -320,-176 -320,-112" /></g></defs><rect fill="#fff" height="1496.0" id="background" width="2760.0" x="-908.0" y="-716.0" /><use fill="none" stroke="black" stroke-miterlimit="0" stroke-width="15" xlink:href="#bsp_ref" /><use fill="white" stroke="black" stroke-width="1" xlink:href="#bsp_ref" /></svg>