<svg viewBox="-252 -2204 1032 4032" xmlns="http://www.w3.org/2000/svg" xmlns:xlink="http://www.w3.org/1999/xlink"><defs><g id="a"><path d="m-28-2204h-224z"/><path d="m196-2204h-224z"/><path d="m420-2204h-224z"/><path d="m644-2204h-224z"/><path d="m-28 1828h-136v-148h144v148z"/><path d="m204 1828h-8-216v-148-32h80 144z"/><path d="m428 1828h-8-216v-180h80 144z"/><path d="m508 1648h55v32 148h-135v-180z"/><path d="m707 1680v148h-63-81v-148z"/><path d="m780 1828h-73v-148-32h73z"/><path d="m-164 1212.7469v-56.4149-167.5851h148 76v224z"/><path d="m-164 1436.7469v-56.4149-167.5851h224v224z"/><path d="m60 1648h-80-144v-43.668-167.5851h224z"/><path d="m60 1212.7469v-224h148 76v224z"/><path d="m60 1436.7469v-224h224v224z"/><path d="m284 1648h-80-144v-211.2531h224z"/><path d="m284 1212.7469v-224h148 76v224z"/><path d="m284 1436.7469v-224h224v224z"/><path d="m508 1648h-80-144v-211.2531h224z"/><path d="m563 988.7469v208.2531 15.7469h-55v-224z"/><path d="m563 1212.7469v208.2531 15.7469h-55v-224z"/><path d="m563 1436.7469v211.2531h-55v-211.2531z"/><path d="m-167 914.6259h.951l-.951 1.0806z"/><path d="m-28 757.7521 11-12.5v138.7727 10.6011h-131.449z"/><path d="m-167 915.7065.951-1.0806h2.049v17.7061h-17.6304z"/><path d="m-197.0598 932.332h-54.9402v-.332-37.3741h85v4.0355z"/><path d="m-252 1156v-223.668h54.9402 15.4294 17.6304v10.3839 46.031 167.5851h-88z"/><path d="m-164 1156.332v56.4149 167.5851h-88v-.332-223.668z"/><path d="m-164 1380.332v56.4149 167.5851h-88v-.332-223.668z"/><path d="m-164 1604.332v43.668 32 148h-88v-223.668z"/><path d="m-17 884.0248v-138.7727l25.7418-29.2521 49.2582-55.9752v16.9132 72.062 135.0248z"/><path d="m58 932.332h-44.1316l-30.8684-34.5763v-3.1298-10.6011h75z"/><path d="m-2.3696 932.332h-13.6304v-15.4891z"/><path d="m-252 716v-8-216h224v224z"/><path d="m-28 757.7521-120.449 136.8738h-18.551-85v-178.6259h224z"/><path d="m48 492h10v168.0248l-49.2582 55.9752h-36.7418v-224z"/><path d="m8.7418 716-25.7418 29.2521-11 12.5v-41.7521z"/><path d="m48 207v-163-61h10v224z"/><path d="m48 431v-163-61h10v21.938 202.062z"/><path d="m58 452.938v39.062h-10v-61h10z"/><path d="m282 932.332h-74-150v-48.3072-135.0248h224z"/><path d="m506 932.332h-74-150v-183.332h224z"/><path d="m563 749v183.332h-57v-183.332z"/><path d="m-16 942.7159v-10.3839h13.6304 16.238 44.1316 150v56.4149h-148-76z"/><path d="m208 932.332h74 150v56.4149h-148-76z"/><path d="m432 932.332h74 57v40.668 15.7469h-55-76z"/><path d="m563 932.332v-183.332h167 50v183 41h-217z"/><path d="m780 973v183 41h-217v-208.2531-15.7469z"/><path d="m780 1197v183 41h-217v-208.2531-15.7469z"/><path d="m780 1421v183 44h-73-144v-211.2531-15.7469z"/><path d="m58 207v-224h214 10v224z"/><path d="m282 228.938h-224v-21.938h224z"/><path d="m482-17v21.938 202.062h-200v-224z"/><path d="m482 207v21.938h-200v-21.938z"/><path d="m58 452.938v-21.938-202.062h224v224z"/><path d="m58 676.938v-16.9132-168.0248-39.062h224v224z"/><path d="m282 749h-224v-72.062h224z"/><path d="m282 452.938v-224h200 24v224z"/><path d="m282 676.938v-224h224v224z"/><path d="m506 749h-224v-72.062h224z"/><path d="m506 452.938v-224h200 24v224z"/><path d="m506 676.938v-224h224v224z"/><path d="m730 749h-167-57v-72.062h224z"/><path d="m780 228.938v31.062 192.938h-50v-224z"/><path d="m780 452.938v31.062 192.938h-50v-224z"/><path d="m780 676.938v31.062 41h-50v-72.062z"/><path d="m-28-692h-224v-2h224z"/><path d="m48-694v2h-76v-2z"/><path d="m48-582v-46-64-2-112h148 76v224z"/><path d="m48-358v-46-178h224v224z"/><path d="m48-134v-46-178h224v224z"/><path d="m58-17h-10v-117h224v117z"/><path d="m272-806h148 76v224h-224z"/><path d="m496-582v224h-224v-224z"/><path d="m496-358v224h-224v-224z"/><path d="m496-134v117h-14-200-10v-117z"/><path d="m496-806h148 76v224h-224z"/><path d="m720-582v224h-224v-224z"/><path d="m720-358v224h-224v-224z"/><path d="m720-134v117h-14-210v-117z"/><path d="m720-806h60v117 107h-60z"/><path d="m780-582v117 107h-60v-224z"/><path d="m780-358v117 107h-60v-224z"/><path d="m780-134v117h-60v-117z"/><path d="m-252-1980v-170-54h224v224z"/><path d="m-252-1756v-170-54h224v224z"/><path d="m-252-1532v-170-54h224v224z"/><path d="m-252-1308v-170-54h224v224z"/><path d="m-252-1084v-170-54h224v224z"/><path d="m-252-860v-170-54h224v224z"/><path d="m-252-806v-54h224v54z"/><path d="m-28-2204h224v224h-224z"/><path d="m196-1980v224h-224v-224z"/><path d="m196-1756v224h-224v-224z"/><path d="m196-1532v224h-224v-224z"/><path d="m196-1308v224h-224v-224z"/><path d="m196-1084v224h-224v-224z"/><path d="m196-860v54h-148-76v-54z"/><path d="m196-2204h224v224h-224z"/><path d="m420-1980v224h-224v-224z"/><path d="m420-1756v224h-224v-224z"/><path d="m420-1532v224h-224v-224z"/><path d="m420-1308v224h-224v-224z"/><path d="m420-1084v224h-224v-224z"/><path d="m420-860v54h-148-76v-54z"/><path d="m420-2204h224v224h-224z"/><path d="m644-1980v224h-224v-224z"/><path d="m644-1756v224h-224v-224z"/><path d="m644-1532v224h-224v-224z"/><path d="m644-1308v224h-224v-224z"/><path d="m644-1084v224h-224v-224z"/><path d="m644-860v54h-148-76v-54z"/><path d="m644-2204h136v54 170h-136z"/><path d="m780-1980v54 170h-136v-224z"/><path d="m780-1756v54 170h-136v-224z"/><path d="m780-1532v54 170h-136v-224z"/><path d="m780-1308v54 170h-136v-224z"/><path d="m780-1084v54 170h-136v-224z"/><path d="m780-860v54h-60-76v-54z"/><path d="m720-17h60-74z"/><path d="m780-2204v54z"/><path d="m482-17v21.938z"/><path d="m706 228.938h-200-24v-21.938h224z"/><path d="m-252 1604v.332 223.668z"/><path d="m-252 1380v.332 223.668z"/><path d="m-252 1156v.332 223.668z"/><path d="m-252 932v.332 223.668z"/><path d="m-252 708v8 178.6259 37.3741z"/><path d="m-252-694v2z"/><path d="m-28-694h-224z"/><path d="m48-806h-76z"/><path d="m-28 492h-224z"/><path d="m48-692h-76z"/><path d="m48 268v163 61z"/><path d="m48 44v163 61z"/><path d="m48-180v46 117 61z"/><path d="m48-404v46 178z"/><path d="m48-628v46 178z"/><path d="m-148.449 894.6259h131.449v-67.2957h-150v67.2957z"/><path d="m-2.3696 932.332-13.6304-15.4891v-31.8429h2.2736 51.3574l-.1244 81.1606z"/><path d="m13.8684 932.332h-16.238l39.8762 33.8286h1.4934 15.3113z"/><path d="m-164 932.332v-17.7061-29.6259 80.2343-22.5184z"/><path d="m-197.0598 932.332 30.0598-33.6706v-13.6614h-57-13.9082l.0517 11.629.3088 69.4618.0003.0698z"/><path d="m-181.6304 932.332h-15.4294l-40.4876 33.8286h14.5474 1.4935z"/><path d="m-16 942.7159v46.031-23.5126z"/><path d="m563 1648h144z"/><path d="m707 1680h-144v-32h144z"/><path d="m563 1680v-32z"/><path d="m707 1648v32z"/><path d="m707 1680h-144z"/><path d="m-164 1648h144z"/><path d="m-20 1680h-144v-32h144z"/><path d="m-20 1648v32z"/><path d="m-164 1680v-32z"/><path d="m-20 1680h-144z"/><path d="m-164 1680v-32z"/><path d="m-20 1648v32z"/><path d="m707 1648v32z"/><path d="m563 1680v-32z"/><path d="m482 207v-202.062-21.938h224v224z"/><path d="m780 207v21.938h-50-24v-21.938z"/><path d="m-164 965.2343v23.5126-46.031z"/><path d="m-16 965.2343v23.5126h-148v-23.5126z"/><path d="m-237.5474 966.1606-.0003-.0698h14.5477v.0698z"/><path d="m54.3113 966.0908v.0698h-15.3113v-.0698z"/><path d="m-242 966.0908v-.4039 113.1931z"/><path d="m58 965.6869v-80.6869h-1-2.6445l-.0442 81.0908h3.6887z"/><path d="m-223 965.6869v.4039 112.7892z"/><path d="m58 969.186v109.694-113.1931.4039z"/><path d="m58 969.186v-3.0952h-3.6887z"/><path d="m-252-1030v170 54z"/><path d="m-252-1254v170 54z"/><path d="m-252-1478v170 54z"/><path d="m-252-1702v170 54z"/><path d="m-252-1926v170 54z"/><path d="m-252-2150v170 54z"/><path d="m-252-2204v54z"/><path d="m-167 885v-67.625-2.2476l-57 63.8468v6.0258z"/><path d="m-252 1828h88 136z"/><path d="m-28 1828h8 216z"/><path d="m196 1828h8 216z"/><path d="m420 1828h8 135 81z"/><path d="m644 1828h63 73z"/><path d="m780-17v-117-107z"/><path d="m780-241v-117-107z"/><path d="m780-465v-117-107z"/><path d="m780-689v-117z"/><path d="m780 1828v-180-44z"/><path d="m780 1604v-183-41z"/><path d="m780 1380v-183-41z"/><path d="m780 1156v-183-41z"/><path d="m780 932v-183-41z"/><path d="m780 708v-31.062-192.938z"/><path d="m780 484v-31.062-192.938z"/><path d="m780 260v-31.062-21.938-68.3513z"/><path d="m-164 885v-7.0891z"/><path d="m-164 885v29.6259h-2.049-.951v-29.6259z"/><path d="m-16 885v-3.8667l2.2736 3.8667z"/><path d="m-16 885v31.8429 15.4891 10.3839 22.5184z"/><path d="m-17 885v-5.5674l1 1.7007v3.8667z"/><path d="m-164 885h147 1v80.2343h-148z"/><path d="m-16 881.1333v3.8667z"/><path d="m-17 879.4326v-1.5217-49.3806-.7315.9295z"/><path d="m-164 877.9109h146 1v1.5217 5.5674h-147z"/><path d="m-17 877.9109h-1v-49.3806h1z"/><path d="m-18 877.9109h-146v-49.3806h146z"/><path d="m-164 877.9109v7.0891h-3v-7.0891z"/><path d="m39 1078.88v-112.7892-.4039z"/><path d="m39 1078.88h16.9618 2.0382v-109.694l-3.6887-3.0952h-15.3113z"/><path d="m58 1078.88h-2.0382l-15.373 13.1299h17.4112z"/><path d="m55.9618 1078.88h-16.9618v13.1299h1.5888z"/><path d="m-223 1078.88v-112.7892h-14.5477-4.4523v112.7892z"/><path d="m40.5888 1092.0099-57.5888 49.1859v14.7275 1.0539l75-63.5336v-1.4337z"/><path d="m-224.5888 1092.0099h1.5888v-13.1299h-19v13.1299z"/><path d="m58 1093.4436 1.6924-1.4337h-1.6924z"/><path d="m-17 827.3302v-13.326-116.0042h-1-149v115.7423 13.5879z"/><path d="m-17 1141.032v15.6031-.7118-14.7275-1.0629z"/><path d="m482 4.938v202.062 21.938-21.938z"/><path d="m-17 1156.6351v-15.6031h-150v15.6031z"/><path d="m-167 1156.6351v-15.6031-.8991 1.0629 14.7275z"/><path d="m-167 1157.8243v-1.901-14.7275l-57.5888-49.1859h-17.4112-2.6924z"/><path d="m-252-2204h224z"/><path d="m-28-2204h224z"/><path d="m196-2204h224z"/><path d="m420-2204h224z"/><path d="m780-2204h-136z"/><path d="m780-806v-54-170z"/><path d="m780-1030v-54-170z"/><path d="m780-1254v-54-170z"/><path d="m780-1478v-54-170z"/><path d="m780-1702v-54-170z"/><path d="m780-1926v-54-170z"/><path d="m780-2204v54z"/><path d="m-224 885v-6.0258-127.8217l-14.4315 16.1462.5233 117.7013z"/><path d="m706-17h-224 14z"/><path d="m780-17v53 102.6487 68.3513h-74v-224z"/><path d="m-17 814.0042v13.326 67.2957 3.1298-80.6709z"/><path d="m-167 817.375v67.625 13.6614-4.0355-67.2957-13.5879z"/><path d="m-17 816.7094v.3754 80.6709l30.8684 34.5763 40.4429 33.8286v-.0698l.0378-69.4618z"/><path d="m-17 816.7094v-67.7094-50.5718-10.7525-2.9845 13.3088 116.0042 3.0806z"/><path d="m-242 896.629v69.0579.4039h4.4523l-.3088-69.4618z"/><path d="m-242 896.629v-11.629 129.3302 77.6797-13.1299-113.1931z"/><path d="m-167 815.1274v-66.1274h-55.0762-1.7256-.1982v2.1525 127.8217z"/><path d="m-18 828.5303v-129.3302h1v128.5987.7315z"/><path d="m-164 828.5303v49.3806h-3v-49.3806z"/><path d="m-164 828.5303v-129.3302h146v129.3302z"/><path d="m-167 827.7988v.7315 49.3806 7.0891 29.6259 1.0806-86.9782z"/><path d="m-17 827.7988v-128.5987-.5568.5293 116.7258 12.8299z"/><path d="m-167 827.7988v-128.5987h3v129.3302h-3z"/><path d="m48-806v112z"/><path d="m-252-806h224z"/><path d="m48-806h-76z"/><path d="m57 885v-117.7013h-2.5804l-.0641 117.7013z"/><path d="m38 885v-117.7013h1v117.7013z"/><path d="m37.631 885h.369 1v80.6869.4039.0698h-1.4934z"/><path d="m39 885v129.3302 77.6797-13.1299-113.1931z"/><path d="m-237.9082 885-.5233-117.7013h-3.5685v117.7013 11.629h4.1435z"/><path d="m-221.6413 878.3302.1348 87.8304h-1.4935v-.0698-.4039-87.3567z"/><path d="m-167 816.2379v-67.2379-44.754-5.0734-.5293.5568 128.5987.9295z"/><path d="m-167 816.2379v12.4904 86.9782l-14.6304 16.6255-39.8761 33.8286-.1348-87.8304z"/><path d="m37.6418 877.9913-.0108 7.0087h-51.3574l-2.2736-3.8667-1-1.7007v-50.7043-12.8299z"/><path d="m58 868.0099v-33.1337-85.8762h-1v18.2987 117.7013h1z"/><path d="m-224.4741 1017.2441-.1147 74.7658 57.5888 49.1859v-58.6401z"/><path d="m39 885v-117.7013z"/><path d="m40.4697 1014.3302.1191 77.6797h-1.5888v-77.6797z"/><path d="m39 885v129.3302z"/><path d="m-244.7152 1014.3302.0228 77.6797h2.6924v-77.6797z"/><path d="m-242 885v129.3302z"/><path d="m-242 885v-117.7013z"/><path d="m59.7158 1012.3546-.0234 79.6553-1.6924 1.4337v-79.1561z"/><path d="m-252 1828v-224z"/><path d="m-252 1604v-224z"/><path d="m-252 1380v-224z"/><path d="m-252 1156v-224z"/><path d="m-252 932v-224z"/><path d="m-252 492v216z"/><path d="m-252-692v-2z"/><path d="m-252-694h224z"/><path d="m48-694h-76z"/><path d="m-252 492h224z"/><path d="m48 492h-76z"/><path d="m-252-692h224z"/><path d="m48-692h-76z"/><path d="m48 492v-224z"/><path d="m48 268v-224z"/><path d="m48 44v-224z"/><path d="m48-180v-224z"/><path d="m48-404v-224z"/><path d="m48-692v64z"/><path d="m-252-1030v224z"/><path d="m-252-1254v224z"/><path d="m-252-1478v224z"/><path d="m-252-1702v224z"/><path d="m-252-1926v224z"/><path d="m-252-2150v224z"/><path d="m-252-2204v54z"/><path d="m58 834.8762v33.1337z"/><path d="m-223 868.0099v10.3203 87.3567 113.1931 13.1299-90.535z"/><path d="m-223 834.8762v33.1337z"/><path d="m58 868.0099v16.9901 80.6869 113.1931 13.1299-90.535z"/><path d="m58 868.0099v-118.3543-.6556 85.8762z"/><path d="m58 1001.4749v90.535h1.6924l.0266-90.535z"/><path d="m-223 1001.4749v90.535h-1.5888l.1388-90.535z"/><path d="m-223 1001.4749v-129.3302-4.1348z"/><path d="m-167 1082.3302v73.5931 1.901-75.5368-2.5531z"/><path d="m-17 1082.3302v73.5931.7118h-150v-.7118-73.5931z"/><path d="m-167 749v-51h-1-8.2811l-37.7987 42.0947-7.9964 8.9053z"/><path d="m-167 1082.2875v-129.2875 126.7344z"/><path d="m-167 1082.2875v75.5368l-77.6924-65.8144-.0286-97.2755z"/><path d="m58 996.2373v-63.2601-47.9772h1.7532l-.0374 127.3546-1.7158 1.9329z"/><path d="m58 996.2373v18.0502 79.1561l-75 63.5336v-76.2519z"/><path d="m-252 1828h224z"/><path d="m-28 1828h224z"/><path d="m196 1828h224z"/><path d="m420 1828h224z"/><path d="m644 1828h136z"/><path d="m780-17v-224z"/><path d="m780-241v-224z"/><path d="m780-465v-224z"/><path d="m780-689v-117z"/><path d="m780 1828v-224z"/><path d="m780 1604v-224z"/><path d="m780 1380v-224z"/><path d="m780 1156v-224z"/><path d="m780 932v-224z"/><path d="m780 708v-224z"/><path d="m780 484v-224z"/><path d="m780 260v-121.3513-102.6487z"/><path d="m780 36v-53z"/><path d="m-167 1050.0269v90.106.8991h150v-.8991-90.106z"/><path d="m-167 1050.9972v31.5585 58.6401-1.0629-90.106-.2864z"/><path d="m-17 1049.7405v.2864 90.106 1.0629-90.1986z"/><path d="m-17 1049.7405v-129.0438h-150v129.0438.2864h150z"/><path d="m-17 1050.2693v-128.8278-.7448 129.0438 1.2567z"/><path d="m-17 1050.2693v.7279 90.1986l57.5888-49.1859-.1641-106.996z"/><path d="m-17 1066.0173v14.708 76.2519-1.0539-73.5931-17.7445z"/><path d="m-224.3756 953-.0985 64.2441 57.4741 65.3116v-31.5585-97.9972z"/><path d="m-167 698v-13.4398 2.8404 10.5994 51 66.1274 2.2476-3.6327z"/><path d="m-17 698v-13.3088h-1v13.3088z"/><path d="m-167 698h149v-13.3088-.131h-149z"/><path d="m-252-2204h224z"/><path d="m-28-2204h224z"/><path d="m196-2204h224z"/><path d="m420-2204h224z"/><path d="m780-2204h-136z"/><path d="m780-806v-224z"/><path d="m780-1030v-224z"/><path d="m780-1254v-224z"/><path d="m780-1478v-224z"/><path d="m780-1702v-224z"/><path d="m780-1926v-224z"/><path d="m780-2204v54z"/><path d="m-18 680.1208v1.6004-1.6001z"/><path d="m-167 680.1208v4.4394h149v-2.839-1.6004z"/><path d="m-17.7194 680.1211-.2806-.2533v.2533z"/><path d="m-168 680.1211v1.577.0231-1.6004z"/><path d="m-168 681.6981-31.0415 28.0294-40.9127 36.9427-2.0458 1.8474z"/><path d="m-168 681.6981-74 66.8195z"/><path d="m-168 681.6981v.0231 7.0564-.3126z"/><path d="m-18 681.7212v2.97h1v-3.9204l-.7194-.6497h-.2806z"/><path d="m-18 684.6912v-2.97 2.839z"/><path d="m-12.6584 684.6912-4.3416-3.9204v3.9204z"/><path d="m-17 687.6757v10.7525l54.3892 49.8198z"/><path d="m-168 688.7776v9.2224h1v-10.5994l-1 1.0644z"/><path d="m-176.2811 698h8.2811v-9.2224z"/><path d="m-176.2811 698 8.2811-9.2224v-7.0564-.0231l-74 66.8195v.4824h18 .1982l9.722-8.9053z"/><path d="m-167 684.5602v-4.4394h-1v1.6004 6.7438l1-1.0644z"/><path d="m-214.0798 740.0947-9.722 8.9053z"/><path d="m37.3892 748.248-54.3892-49.8198v50.5718h55.0643.1458z"/><path d="m37.3892 748.248.8209.752z"/><path d="m58 748.4945.5599.5055h-.0638l-.4961-.448z"/><path d="m58 748.4945-70.6584-63.8033h-4.3416v2.9845l54.3892 60.5723.8209.752h18.7899 1z"/><path d="m-242 748.5176-.5343.4824h.5343z"/><path d="m58.5599 749-.5599-.5055v.5055z"/><path d="m58 749h-1z"/><path d="m38.0643 749h.1458z"/><path d="m-222.0762 749 7.9964-8.9053-9.722 8.9053z"/><path d="m54.4196 767.2987-15.4196-17.2567-.9357-1.042h-55.0643v67.7094l71.3491 79.9196z"/><path d="m54.4196 767.2987h2.5804v-18.2987h-18.7899-.1458z"/><path d="m38 767.2987v117.7013h1v-117.7013z"/><path d="m-243 767.2987v-18.2987z"/><path d="m-242 767.2987v-18.2987h-.5343-.4657v18.2987z"/><path d="m-242 767.2987h3.5685l14.4315-16.1462v-2.1525h-18z"/><path d="m-243 885h1v-117.7013h-1z"/><path d="m-167 704.246v44.754h-41.4418z"/><path d="m-223.8018 749h-.1982z"/><path d="m-224 749v2.1525z"/><path d="m-208.4418 749h41.4418v67.2379l-54.6413 62.0923-.1983-129.3302z"/><path d="m58 932.9772v63.2601l-75 84.488v-14.708-114.5794l19.945-18.1122.3837-.3485z"/><path d="m-167 698v1.2001-.5568z"/><path d="m-17.4675 698-.5325-.4878 1 .916z"/><path d="m-18 698v-.4878l.5325.4878z"/><path d="m-17.4675 698 .4675.4282v.7719h-1v-1.2001z"/><path d="m-18 699.2001h-146-3v-1.2001h149z"/><path d="m-168 697.8862v.1138h-.1243z"/><path d="m-18 698h-149z"/><path d="m-17 698.4282v.2151.5568z"/><path d="m-17 699.1726 12.0263 10.2715 42.8138 39.217-.0005.3389-.1978 128.9913-54.6418-62.0929z"/><path d="m48-806v112z"/><path d="m-252-806h224z"/><path d="m48-806h-76z"/><path d="m-4.9737 709.4441-12.0263-11.0159z"/><path d="m-4.9737 709.4441-12.0263-10.2715v-.5293-.2151z"/><path d="m-202.58 729.561 34.4557-31.561h.1243 1v.6433.5293z"/><path d="m58.4961 749h-.0065-.4896v-.2488-.183-.0088-.0074z"/><path d="m58.4896 749h.0065.0638-.5599z"/><path d="m57 749v18.2987z"/><path d="m37.8396 749h.1604v18.2987 117.7013h-.369z"/><path d="m38 749h-.1604l.0005-.3389.37.3389z"/><path d="m-221.8396 749 .1983 129.3302h-1.3587v-10.3203-33.1337-85.8762z"/><path d="m-223 749v85.8762 33.1337z"/><path d="m37.8401 748.6611-42.8138-39.217-12.0263-11.0159 55.2101 50.5718z"/><path d="m38.2101 749-.37-.3389z"/><path d="m-242 748.5176v-1.8474z"/><path d="m-223 748.2656 1.1577-1.0604.0027 1.7948h-1.1604z"/><path d="m-221.8423 747.2052 1.3-1.1908 17.9623-16.4534z"/><path d="m-221.8423 747.2052 19.2623-17.6442 35.58-30.3884v5.0734l-41.4418 44.754h-13.3978z"/><path d="m55.9005 746.6702-59.4386-53.4858-13.4619-12.1135v-.042-.2581l4.3416 3.9204 70.6584 63.8033v.0575.0074z"/><path d="m55.9005 746.6702 2.0995 1.8892v-1.8892z"/><path d="m55.9005 746.6702h2.0995v1.898z"/><path d="m-239.9542 746.6702h-2.0458v1.8474z"/><path d="m-223 748.2656v.7344z"/><path d="m-223 748.2656v.7344h-.8018z"/><path d="m-242 748.5176v-1.8474h2.0458z"/><path d="m58 748.5682v-1.898 1.8892z"/><path d="m58 749h.4896z"/><path d="m57.2162 749h.7838v.6556z"/><path d="m-243 749v104.8934 18.2513 12.8553-117.7013z"/><path d="m58 749h-.7838z"/><path d="m39 885h1.2713l.1984 129.3302h-1.4697z"/><path d="m40.2713 885h-1.2713-1-12.9019l-37.9514 32.1958h53.174z"/><path d="m-242 885h-1-1.7532l.038 129.3302h2.7152z"/><path d="m-243 885h1z"/><path d="m-244.7532 885-.0038-12.8553 1.757 1.4782v11.3771z"/><path d="m-224.2713 885-.1043 68h57.3756v-31.5585-.7279l-1-.8484-41.0981-34.8652z"/><path d="m-244.7532 885h1.7532 2.212l72.788 66.3503v1.6497h-76.7332z"/><path d="m39 885h1.2713z"/><path d="m58 885h-1v-10.5356l1-.8415z"/><path d="m-243 885v-11.3771z"/><path d="m38 885h1z"/><path d="m38 885v-10.9453l-12.9019 10.9453z"/><path d="m56.1607 885h.8393 1v47.9772h-54.6713z"/><path d="m-224 749v104.8934z"/><path d="m-243 853.8934v-104.8934z"/><path d="m-252 1828v-224z"/><path d="m-252 1604v-224z"/><path d="m-252 1380v-224z"/><path d="m-252 1156v-224z"/><path d="m-252 932v-224z"/><path d="m-252 492v216z"/><path d="m-252-692v-2z"/><path d="m-252-694h224z"/><path d="m48-694h-76z"/><path d="m-252 492h224z"/><path d="m48 492h-76z"/><path d="m-252-692h224z"/><path d="m48-692h-76z"/><path d="m48 492v-224z"/><path d="m48 268v-224z"/><path d="m48 44v-224z"/><path d="m48-180v-224z"/><path d="m48-404v-224z"/><path d="m48-692v64z"/><path d="m-18 697.5122 1 .916z"/><path d="m-17 698.4282 55.2101 50.5718z"/><path d="m-242 748.5176 2.0458-1.8474 40.9127-36.9427z"/><path d="m-242.5343 749 .5343-.4824z"/><path d="m-252-1030v224z"/><path d="m-252-1254v224z"/><path d="m-252-1478v224z"/><path d="m-252-1702v224z"/><path d="m-252-1926v224z"/><path d="m-252-2150v224z"/><path d="m-252-2204v54z"/><path d="m58 868.0099v4.1348 1.4782l-1 .8415v-125.4644h.2162l.7838.6556z"/><path d="m-223 868.0099v4.1348h-1v-18.2513-104.8934h.1982.8018z"/><path d="m58 872.1447v-4.1348 133.465z"/><path d="m59.757 872.1447-.0038 12.8553h-1.7532v-11.3771z"/><path d="m59.757 872.1447h-1.757v129.3302h1.719z"/><path d="m59.757 872.1447-1.757 1.4782v-1.4782z"/><path d="m-224.2516 872.1447h.2516 1v129.3302h-1.45z"/><path d="m-244.757 872.1447.0038 12.8553h1.7532v-12.8553z"/><path d="m-224 872.358v-.2133h-.2516z"/><path d="m-224 872.358-.2516-.2133-.0197 12.8553h15.1732z"/><path d="m-243 873.6229-1.757-1.4782h1.757z"/><path d="m38 874.0547v10.9453-117.7013-18.2987z"/><path d="m57 874.4644v10.5356z"/><path d="m-17 953v-17-.1349-.2364 1.1012 14.708 114.5794-1.4316z"/><path d="m-18 953h-149z"/><path d="m-18 953v-.6541-15.8581z"/><path d="m-18 953h1v111.5857 17.7445h-150v-2.5958-126.7344z"/><path d="m25.0981 885 12.9019-10.9453v10.9453z"/><path d="m56.1607 885-52.832 47.9772-.3837.3485 14.7353-13.3814z"/><path d="m-209.0981 885h-14.7037-.1982v-12.642z"/><path d="m-209.0981 885 41.0981 34.8652v16.1348h-.1243l-55.6775-51z"/><path d="m-168 953h1v129.2875l-77.721-87.5531-.0122-41.7344z"/><path d="m-168.1243 698-34.4557 31.561-17.9623 16.4534z"/><path d="m-17 951.4379v-14.708z"/><path d="m57 885h-.8393z"/><path d="m-240.8593 885h.0713-2.212z"/><path d="m58 749h-.7838-.2162z"/><path d="m38 749h.2101z"/><path d="m-243 749h.4657z"/><path d="m-223.8018 749h-.1982z"/><path d="m-223 748.2656-.8018.7344z"/><path d="m-168 951.3623v-.012l-72.788-66.3503h-.0713-.0014z"/><path d="m57 749v125.4644 10.5356z"/><path d="m38 885v-10.9453-125.0547z"/><path d="m-224 861.2598v-112.2598 104.8934 18.2513z"/><path d="m-243 861.2598v10.8849-18.2513-104.8934z"/><path d="m-243 885v-11.3771-1.4782-10.8849z"/><path d="m-224 861.2598v10.8849.2133 12.642z"/><path d="m-167 698h-1z"/><path d="m-168 697.8862-.1243.1138z"/><path d="m-168.1243 698-52.418 48.0144-1.3 1.1908-1.1577 1.0604z"/><path d="m-168 698v-.1138z"/><path d="m-18 697.5122v.4878z"/><path d="m-3.5381 693.1844 59.4386 53.4858 2.0995 1.898v.183z"/><path d="m-168 681.6981v-1.577.2582z"/><path d="m-18 680.126v-.2582l.2806.2533.7194.6497v.2581z"/><path d="m-18 680.3793v-.2582-.2533.2582z"/><path d="m-168 680.3807v-.0014-.2582-.0003h1 149v.0003.2582.0014z"/><path d="m-18 698h-149z"/><path d="m-252 1828h224z"/><path d="m-28 1828h224z"/><path d="m196 1828h224z"/><path d="m420 1828h224z"/><path d="m644 1828h136z"/><path d="m780-17v-224z"/><path d="m780-241v-224z"/><path d="m780-465v-224z"/><path d="m780-689v-117z"/><path d="m780 1828v-224z"/><path d="m780 1604v-224z"/><path d="m780 1380v-224z"/><path d="m780 1156v-224z"/><path d="m780 932v-224z"/><path d="m780 708v-224z"/><path d="m780 484v-224z"/><path d="m780 260v-224z"/><path d="m780 36v-53z"/><path d="m-12.8533 917.1958 37.9514-32.1958h12.9019.2101l-55.2101 50.5718v-14.8582z"/><path d="m-12.8533 917.1958-4.1467 3.5178v.7279 128.8278l57.4247-65.2554-.104-67.8181z"/><path d="m-167 920.6967v.7448 31.5585 97.9972-1.2567z"/><path d="m-17 920.6967v.7448 14.4236h-150v-14.4236-.7448z"/><path d="m-168 919.8652 1 .8484v14.9151.3713h-1z"/><path d="m17.6803 919.9443-14.7353 13.3814-19.945 18.1122z"/><path d="m-167 920.7136v.7279 14.4236-.2364z"/><path d="m-17 936v17h-1v-16.5122-.4878z"/><path d="m-17 935.8651v.1349h-1-149v-.1349z"/><path d="m-17 935.5718-.0621.0569h.0621z"/><path d="m-17 935.5718v.0569.2364-14.4236-.7279z"/><path d="m-167 936v-.3713.2364z"/><path d="m-167 936h149z"/><path d="m-18 936v.4878z"/><path d="m-168 936.1138-.1243-.1138h.1243z"/><path d="m-17 936.7299v-1.1012h-.0621l-.9379.8591v15.8581l1-.908z"/><path d="m-168 681.6981-74 66.8195 42.9585-38.7901z"/><path d="m-167 953h-1z"/><path d="m56.1607 885-38.4804 34.9443z"/><path d="m-252-2204h224z"/><path d="m-28-2204h224z"/><path d="m196-2204h224z"/><path d="m420-2204h224z"/><path d="m780-2204h-136z"/><path d="m780-806v-224z"/><path d="m780-1030v-224z"/><path d="m780-1254v-224z"/><path d="m780-1478v-224z"/><path d="m780-1702v-224z"/><path d="m780-1926v-224z"/><path d="m780-2204v54z"/><path d="m48-806v112z"/><path d="m-252-806h224z"/><path d="m48-806h-76z"/><path d="m-252 1828v-224z"/><path d="m-252 1604v-224z"/><path d="m-252 1380v-224z"/><path d="m-252 1156v-203-21z"/><path d="m-252 932v-15-209z"/><path d="m-252 492v216z"/><path d="m-252-692v-2z"/><path d="m-252-694h224z"/><path d="m48-694h-76z"/><path d="m-252 492h224z"/><path d="m48 492h-76z"/><path d="m-252-692h224z"/><path d="m48-692h-76z"/><path d="m48 492v-38.8141-185.1859z"/><path d="m48 268v-38.8141-185.1859z"/><path d="m48 44v-38.8141-185.1859z"/><path d="m48-180v-38.8141-185.1859z"/><path d="m48-404v-38.814-185.186z"/><path d="m48-692v64z"/><path d="m-18 697.5122 1 .916z"/><path d="m-17 698.4282 55.2101 50.5718z"/><path d="m-168 681.6981-74 66.8195z"/><path d="m-242.5343 749 .5343-.4824z"/><path d="m-252-1030v224z"/><path d="m-252-1254v224z"/><path d="m-252-1478v224z"/><path d="m-252-1702v224z"/><path d="m-252-1926v224z"/><path d="m-252-2150v224z"/><path d="m-252-2204v54z"/><path d="m57 885h-.8393z"/><path d="m38.2101 885h-.2101z"/><path d="m-241.3511 885h.4904.0014-2.1407z"/><path d="m-224 885h.1982z"/><path d="m-223.8018 885h-.1982z"/><path d="m-168 936.1138v-.1138z"/><path d="m-223.8018 885 55.6775 51 .1243.1138z"/><path d="m-18 936v.4878z"/><path d="m-18 936.4878.9379-.8591.0621-.0569 55.2101-50.5718z"/><path d="m57.7802 749h.2198-1z"/><path d="m38 749h.2101z"/><path d="m-243 749h.4657z"/><path d="m-223.8018 749h-.1982z"/><path d="m-223 748.2656-.8018.7344z"/><path d="m-168 951.8103v-.448l-72.8607-66.3623h-.4904-.0015z"/><path d="m56.1607 885h.8393z"/><path d="m56.1607 885-38.4804 34.9443-34.6803 31.4936-1 .908z"/><path d="m-18 952.3459v.6541z"/><path d="m38 885h.2101z"/><path d="m57 749v136z"/><path d="m57 749h.2841.4952.0009z"/><path d="m38 885v-136z"/><path d="m-224 749h.1982z"/><path d="m-243 885h1.157.4904.0015z"/><path d="m-243 885v-23.7402-112.2598z"/><path d="m-224 749v112.2598 23.7402z"/><path d="m-167 936h149z"/><path d="m-168 936v.1138z"/><path d="m-168 936h1z"/><path d="m-167 698h-1z"/><path d="m-168 697.8862-.1243.1138z"/><path d="m-168.1243 698-54.8757 50.2656z"/><path d="m-168 698v-.1138z"/><path d="m-18 697.5122v.4878z"/><path d="m-168 681.6981v-1.3188.0014.4466z"/><path d="m-18 680.574v-.448l1 .9029v.042.406z"/><path d="m-17 681.4769v-.406l13.4619 12.1135 61.5381 55.5668v.2488h-.2198-.0009z"/><path d="m-18 680.8273v-.4466-.0014-.2533.448z"/><path d="m-168 680.8287v-.0014-.4466h150v.4466.0014z"/><path d="m-168 680.8287v.4466.4228-.8708z"/><path d="m-18 698v-.4878z"/><path d="m-18 698h-149z"/><path d="m-18 953v-.6541z"/><path d="m-18 953h-149z"/><path d="m-167 953h-1z"/><path d="m-168 953v-1.6497.012.448.0037z"/><path d="m-252 1828h224z"/><path d="m-28 1828h224z"/><path d="m196 1828h224z"/><path d="m420 1828h224z"/><path d="m644 1828h136z"/><path d="m780-17v-224z"/><path d="m780-241v-224z"/><path d="m780-465v-224z"/><path d="m780-689v-117z"/><path d="m780 1828v-224z"/><path d="m780 1604v-224z"/><path d="m780 1380v-224z"/><path d="m780 1156v-224z"/><path d="m780 932v-224z"/><path d="m780 708v-224z"/><path d="m780 484v-224z"/><path d="m780 260v-224z"/><path d="m780 36v-53z"/><path d="m-252-2204h224z"/><path d="m-28-2204h224z"/><path d="m196-2204h224z"/><path d="m420-2204h224z"/><path d="m780-2204h-136z"/><path d="m780-806v-224z"/><path d="m780-1030v-224z"/><path d="m780-1254v-224z"/><path d="m780-1478v-224z"/><path d="m780-1702v-224z"/><path d="m780-1926v-224z"/><path d="m780-2204v54z"/><path d="m48-806v112z"/><path d="m-252-806h224z"/><path d="m48-806h-48-28z"/><path d="m-252 693v-201 216z"/><path d="m-252 693v15 209-173-10z"/><path d="m-252 268v185.1859 38.8141-72z"/><path d="m48-694h-76z"/><path d="m48-694v-96-16z"/><path d="m48 492h-76z"/><path d="m-252-241v-201.814h224v223.9999h-224z"/><path d="m-28-218.8141v224h-224v-22.1859-201.8141z"/><path d="m-28 5.1859v224h-224v-33.1859-190.8141z"/><path d="m-28 229.1859v224h-224v-185.1859-38.8141z"/><path d="m-28 453.1859v38.8141h-224v-38.8141z"/><path d="m-28-442.814h76v38.814 185.1859h-76z"/><path d="m48-218.8141v38.8141 185.1859h-76v-224z"/><path d="m48 5.1859v38.8141 185.1859h-76v-224z"/><path d="m48 229.1859v38.8141 185.1859h-76v-224z"/><path d="m48 453.1859v38.8141h-76v-38.8141z"/><path d="m-28-694h-224v2h224z"/><path d="m48-692v-2h-76v2z"/><path d="m48-666.8141v38.8141 185.186-27.186z"/><path d="m-28-442.814h-224v-22.186-5h224z"/><path d="m-28-692h-224z"/><path d="m48-666.8141v-25.1859 64z"/><path d="m-17 698.4282-1-.916 56.2101 51.4878z"/><path d="m38.2101 749h-.2101z"/><path d="m-242.5343 749h-.4657z"/><path d="m-168 681.6981-74 66.8195z"/><path d="m-242 748.5176-.5343.4824z"/><path d="m-27 196v72z"/><path d="m-27 492h.3295 18.4642 37.2063 19 .212v-72h-75.212z"/><path d="m-26.6705 492h-.3295z"/><path d="m-27 196h.3295z"/><path d="m-27 196h.3295 18.4642-18.7937-150z"/><path d="m-27 268v152 72-72z"/><path d="m-177 196v72z"/><path d="m-27 420v-152-72h-150v72 152z"/><path d="m-177 492h150v-72h-150z"/><path d="m-177 268v152 72-72z"/><path d="m-177 420v-152-72h-74.3181v224z"/><path d="m-252-1030v224z"/><path d="m-252-1254v224z"/><path d="m-252-1478v224z"/><path d="m-252-1702v224z"/><path d="m-252-1926v224z"/><path d="m-252-2150v224z"/><path d="m-252-2204v54z"/><path d="m-252-470v-224h224v224z"/><path d="m48-470v27.186h-76v-27.186z"/><path d="m-177 196v72z"/><path d="m-177 492h-56.58v-72h56.58z"/><path d="m-27 492h18.7937-18.4642-.3295-150z"/><path d="m-27 196v72z"/><path d="m-177 268v152 72-72z"/><path d="m-177 420v-152-72h150v72 152z"/><path d="m-27 492h-150v-72h150z"/><path d="m-27 268v152 72-72z"/><path d="m-27 420v-152-72h55.56v224z"/><path d="m10 304v74z"/><path d="m-212 378v-74z"/><path d="m57 885v-136z"/><path d="m38.2101 885h17.9506l-74.1607 67.3459v-15.8581z"/><path d="m38.2101 885-56.2101 51.4878z"/><path d="m-224 885v-136z"/><path d="m-241.843 885h17.843.1982l55.8018 51.1138v16.1445z"/><path d="m-241.843 885 73.843 67.2583v-.4443-.0037l-73.3526-66.8103z"/><path d="m-18 936h-149z"/><path d="m-168 936.1138v-.1138 16.2618-.0035z"/><path d="m-168 936.1138-55.8018-51.1138z"/><path d="m-18 936.4878v-.4878z"/><path d="m-18 936.4878v15.8581.6541-17z"/><path d="m-18 697.5122 56.2101 51.4878z"/><path d="m57.2841 749-.2841-.2565-74-66.8186v-.448l74.7793 67.5231z"/><path d="m57.2841 749h-.2841v-.2565z"/><path d="m57 749h-18.7899l-56.2101-51.4878v-16.2369h.2806l.7194.6496 74 66.8186z"/><path d="m38 749v136z"/><path d="m-223.8018 749 .8018-.7344z"/><path d="m-243 749v136z"/><path d="m-242 748.5176 74-66.8195v16.1881l-.1243.1138-54.8757 50.2656-.8018.7344h-.1982-18.5343z"/><path d="m-242 748.5176-.5343.4824z"/><path d="m-223 748.2656 54.8757-50.2656z"/><path d="m-168 952.2583v.0035.7382-1.186z"/><path d="m-18 952.3459 74.1607-67.3459z"/><path d="m57 885h-.8393-17.9506-.2101z"/><path d="m38 885v-136h.2101 18.7899v136z"/><path d="m-224 885h-17.843-1.157z"/><path d="m-243 885v-136h.4657 18.5343v136z"/><path d="m-167 936h149v17h-149z"/><path d="m-167 936h-1z"/><path d="m-167 698h149z"/><path d="m-168.1243 698 .1243-.1138z"/><path d="m-167 698h-1z"/><path d="m-168 697.8862v-16.1881-.4228.0014 16.7233z"/><path d="m-168 697.8862v.1138z"/><path d="m-18 697.5122v.4878-16.7233-.0014z"/><path d="m-17 681.9249-.7194-.6496-.2806-.2533v-.448l1 .9029z"/><path d="m-18 681.2753v.0014h-150v-.0014-.4466h150z"/><path d="m-18 681.2753v-.2533l.2806.2533z"/><path d="m-18 681.022v.2533-.4466-.0014-.2533z"/><path d="m-167 698h-1v-16.7233h150v16.7233z"/><path d="m-168 698h1z"/><path d="m-167 953h149z"/><path d="m-168 953h1z"/><path d="m-168 953v-.7382-16.2618h1v17z"/><path d="m-252 1828h224z"/><path d="m-28 1828h224z"/><path d="m196 1828h224z"/><path d="m420 1828h224z"/><path d="m644 1828h136z"/><path d="m780-17v-224z"/><path d="m780-241v-224z"/><path d="m780-465v-224z"/><path d="m780-689v-117z"/><path d="m780 1828v-224z"/><path d="m780 1604v-224z"/><path d="m780 1380v-224z"/><path d="m780 1156v-224z"/><path d="m780 932v-224z"/><path d="m780 708v-224z"/><path d="m780 484v-224z"/><path d="m780 260v-224z"/><path d="m780 36v-53z"/><path d="m-252 1828v-224z"/><path d="m29 492h-37.2063-18.7937 55.56z"/><path d="m48 196h.212z"/><path d="m-252 196v33.1859 38.8141z"/><path d="m-252 196v-134-79 22.1859z"/><path d="m48.212 492h-.212z"/><path d="m-233 492h-.58-17.7381-.6819.6819 17.7381z"/><path d="m-251.3181 492h17.7381 56.58z"/><path d="m-252 196h.6819 17.7381.58-.58-17.7381z"/><path d="m-233.58 196h-17.7381 74.3181z"/><path d="m28.56 196h-55.56 18.7937 37.2063z"/><path d="m48.212 420v-224h-.212-19-37.2063-18.4642-.3295v72 152z"/><path d="m29 196v72z"/><path d="m48 420v-152-72h.212v224z"/><path d="m48.212 492h-.212v-72h.212z"/><path d="m48 268v152 72-72z"/><path d="m28.56 420v-224h.44v72 152z"/><path d="m29 492h-.44v-72h.44z"/><path d="m28.56 492h-55.56v-72h55.56z"/><path d="m-233 420v-152-72h-.58v224z"/><path d="m-233.58 492h.58v-72h-.58z"/><path d="m-251.3181 420v-224h-.6819v72 152z"/><path d="m-252 492h.6819v-72h-.6819z"/><path d="m-233 268v152 72-72z"/><path d="m-233.58 420v-224h56.58v72 152z"/><path d="m-251.3181 492h74.3181v-72h-74.3181z"/><path d="m-168 951.7013v-22.6135-12.0878 10 26z"/><path d="m-16 951.7013h-152v1.2987 17.7057h152z"/><path d="m-168 929.0878v22.6135h152v-22.6135z"/><path d="m-252-2204h224z"/><path d="m-28-2204h224z"/><path d="m196-2204h94 130z"/><path d="m420-2204h94 130z"/><path d="m780-2204h-136z"/><path d="m780-806v-224z"/><path d="m780-1030v-224z"/><path d="m780-1254v-224z"/><path d="m780-1478v-224z"/><path d="m780-1702v-224z"/><path d="m780-1926v-224z"/><path d="m780-2204v54z"/><path d="m-168 970.7057v-17.7057z"/><path d="m-252 953v-26-10 15z"/><path d="m-252 927v26z"/><path d="m-168 917v-55.6552z"/><path d="m-168 927h-84z"/><path d="m-252 917h84z"/><path d="m-168 917h-84v10h84z"/><path d="m48-790v96z"/><path d="m-252-806v-28-196z"/><path d="m48-694h-76z"/><path d="m-28-806h-8-48-36-48-36-48z"/><path d="m48-806v16z"/><path d="m-204-806h36v16h-36z"/><path d="m-120-806h36v16h-36z"/><path d="m-28-694h-224v-96h48 36 48 36 48 8z"/><path d="m0-790h48v96h-76v-96z"/><path d="m-36-806h8 28v16h-28-8z"/><path d="m-252-694v-96z"/><path d="m-28-694h-224z"/><path d="m48-694v2 25.1859z"/><path d="m48-694v27.1859 196.8141h-76v-224z"/><path d="m-16 949.2008v21.5049h-152v-17.7057-3.7992z"/><path d="m-252 1604v-224z"/><path d="m-252 1380v-224z"/><path d="m-252 1156v-203z"/><path d="m-168 940.515v-149.8627-26.5579-38.8936h152v21.5049 202.4951h-152z"/><path d="m-168 927v-10-55.6552-150.8491 23.5043 10 46.6523 149.8627z"/><path d="m-168 927v13.515 8.6858 3.7992z"/><path d="m-168 927h-84v-10h84z"/><path d="m-252-17v-224 22.1859z"/><path d="m-252-241v-224 22.186z"/><path d="m-252-465v-224-5 224z"/><path d="m-252-241v224-145z"/><path d="m-252-465v224-145z"/><path d="m-252-689v224-145z"/><path d="m-252-806v16 96 5z"/><path d="m-252-790v-16h48v16z"/><path d="m-84-790v-16h48v16z"/><path d="m0-790v-16h48v16z"/><path d="m-168-790v-16h48v16z"/><path d="m-252-806h48z"/><path d="m-84-806h48z"/><path d="m0-806h48z"/><path d="m-168-806h48z"/><path d="m-120-806v16z"/><path d="m-36-806v16z"/><path d="m48-790h-48z"/><path d="m0-790v-16z"/><path d="m-36-790h-48z"/><path d="m-84-790v-16z"/><path d="m-204-806v16z"/><path d="m-120-790h-48z"/><path d="m-168-790v-16z"/><path d="m-204-790h-48z"/><path d="m-16 746.7057v-41.6179h-152v5.4079 150.8491 55.6552 12.0878h152z"/><path d="m-16 746.7057v182.3821 22.6135 19.0044-21.5049z"/><path d="m-252 268v152 72-206z"/><path d="m48 492h-19z"/><path d="m28.56 492h-55.56 18.7937 37.2063z"/><path d="m29 196h19z"/><path d="m48 196h.212z"/><path d="m-252 420v-152-72h.6819v224z"/><path d="m-251.3181 492h-.6819v-72h.6819z"/><path d="m-233.58 420v-224h.58v72 152z"/><path d="m-233 492h-.58v-72h.58z"/><path d="m48.212 420v-224h-.212v72 152z"/><path d="m48 492h.212v-72h-.212z"/><path d="m29 420v-152-72h-.44v224z"/><path d="m28.56 492h.44v-72h-.44z"/><path d="m28.56 420v-224h-55.56v72 152z"/><path d="m-233.58 492h56.58v-72h-56.58z"/><path d="m-251.3181 420v-224h74.3181v72 152z"/><path d="m29 268v152 72-72z"/><path d="m48 196v72z"/><path d="m-233 196v72z"/><path d="m48 492h.212z"/><path d="m48 492h-19-37.2063-18.4642-.3295v-72h75.212v72z"/><path d="m-252 510v-18 201z"/><path d="m-252 196v72z"/><path d="m-252 510v183 41-41z"/><path d="m-252 286v206 18-41z"/><path d="m-252 62v134 72 18-41z"/><path d="m-252-162v145 79-41z"/><path d="m-252-386v145 79-41z"/><path d="m-252-610v145 79-41z"/><path d="m-252-834v28 117 79-41-155z"/><path d="m-252-1058v28 196-196z"/><path d="m-252-1282v28 196-196z"/><path d="m-252-1506v28 196-196z"/><path d="m-252-1730v28 196-196z"/><path d="m-252-1954v28 196-196z"/><path d="m-252-2178v28 196-196z"/><path d="m-252-1030v-28-196z"/><path d="m-252-1254v-28-196z"/><path d="m-252-1478v-28-196z"/><path d="m-252-1702v-28-196z"/><path d="m-252-1926v-28-196z"/><path d="m-252-2150v-28-26z"/><path d="m-168 710.4957v-5.4079 7.0923 21.8199z"/><path d="m-168 744h-84z"/><path d="m-252 734h84z"/><path d="m-168 734h-84v10h84z"/><path d="m-252 917v-173z"/><path d="m-252 693v41 10 173z"/><path d="m-252 469v41 183z"/><path d="m-252 245v41 183z"/><path d="m-252 21v41 183z"/><path d="m-252-203v41 183z"/><path d="m-252-427v41 183z"/><path d="m-252-651v41 183z"/><path d="m-252-1030v196 28z"/><path d="m-252-1254v196 28z"/><path d="m-252-1478v196 28z"/><path d="m-252-1702v196 28z"/><path d="m-252-1926v196 28z"/><path d="m-252-2150v196 28-102z"/><path d="m-252-2204v26z"/><path d="m-168 744v-10-21.8199 13.0207 38.8936z"/><path d="m-168 744v20.0944 26.5579z"/><path d="m-168 744h-84v-10h84z"/><path d="m-252 1828h224z"/><path d="m-28 1828h224z"/><path d="m196 1828h224z"/><path d="m420 1828h224z"/><path d="m644 1828h136z"/><path d="m780-17v-224z"/><path d="m780-241v-224z"/><path d="m780-465v-224z"/><path d="m780-689v-117z"/><path d="m780 1828v-224z"/><path d="m780 1604v-224z"/><path d="m780 1380v-224z"/><path d="m780 1156v-224z"/><path d="m780 932v-224z"/><path d="m780 708v-224z"/><path d="m780 484v-224z"/><path d="m780 260v-224z"/><path d="m780 36v-53z"/><path d="m-252 1604v224z"/><path d="m-252 1380v224z"/><path d="m-252 1156v224z"/><path d="m-252 917v10 26 203z"/><path d="m-16 725.2008v-20.113 41.6179z"/><path d="m-16 725.2008h-152v-13.0207-7.0923h152z"/><path d="m-27 196h55.56.44-37.2063z"/><path d="m-27 196v72z"/><path d="m-27 492h55.56v-72h-55.56z"/><path d="m-27 196h18.7937-18.4642-.3295-150z"/><path d="m-27 268v152 72-72z"/><path d="m-177 196v72z"/><path d="m-27 420v-152-72h-150v72 152z"/><path d="m-177 492h150v-72h-150z"/><path d="m-177 196h-74.3181 17.7381z"/><path d="m-177 268v152 72-72z"/><path d="m-177 420v-152-72h-56.58v224z"/><path d="m-177 492h-56.58-17.7381z"/><path d="m-177 196v72z"/><path d="m-177 492h-74.3181v-72h74.3181z"/><path d="m-27 492h.3295 18.4642-18.7937-150z"/><path d="m-27 492h.3295z"/><path d="m-26.6705 196h-.3295z"/><path d="m-27 196v72z"/><path d="m-177 268v152 72-72z"/><path d="m-177 420v-152-72h150v72 152z"/><path d="m-27 492h-150v-72h150z"/><path d="m-27 420v-152-72h.3295 18.4642 37.2063 19 .212v224z"/><path d="m-27 268v152 72-72z"/><path d="m738-2204h42-136z"/><path d="m-28-2204h-224z"/><path d="m196-2204h-224z"/><path d="m780-1030v224z"/><path d="m780-1254v224z"/><path d="m780-1478v224z"/><path d="m780-1702v224z"/><path d="m780-1926v224z"/><path d="m780-2150v122 102z"/><path d="m514-2028h-224z"/><path d="m738-2028h-224z"/><path d="m514-2204h-94-130v176h224z"/><path d="m738-2204h-94-130v176h224z"/><path d="m780-2028v-122-54h-42v176z"/><path d="m-252-2204v26 28z"/><path d="m-252-2204v54 122z"/><path d="m290-2204h-94z"/><path d="m514-2204h-224z"/><path d="m738-2204h-224z"/><path d="m290-2028v-176z"/><path d="m780-2028v-176z"/><path d="m780-2028h-42z"/><path d="m514-2028h-224v-176h224z"/><path d="m738-2028h-224v-176h224z"/><path d="m780-2204v176h-42v-176z"/><path d="m-252 1828h224z"/><path d="m-28 1828h224z"/><path d="m196 1828h224z"/><path d="m420 1828h224z"/><path d="m644 1828h136z"/><path d="m780-2204v176z"/><path d="m780-806v-224z"/><path d="m780-1030v-224z"/><path d="m780-1254v-224z"/><path d="m780-1478v-224z"/><path d="m780-1702v-224z"/><path d="m780-1926v-102z"/><path d="m780-17v-224z"/><path d="m780-241v-224z"/><path d="m780-465v-224z"/><path d="m780-689v-117z"/><path d="m780 1828v-224z"/><path d="m780 1604v-224z"/><path d="m780 1380v-224z"/><path d="m780 1156v-224z"/><path d="m780 932v-224z"/><path d="m780 708v-224z"/><path d="m780 484v-224z"/><path d="m780 260v-224z"/><path d="m780 36v-53z"/><path d="m-252 1604v224z"/><path d="m-252 1380v224z"/><path d="m-252 1156v224z"/><path d="m-252 917v239z"/><path d="m-252 917v-224z"/><path d="m-252 693v-224z"/><path d="m-252 469v-224z"/><path d="m-252 245v-224z"/><path d="m-252 21v-224z"/><path d="m-252-203v-224z"/><path d="m-252-427v-224z"/><path d="m-252-806v155z"/><path d="m-252-1030v224z"/><path d="m-252-1254v224z"/><path d="m-252-1478v224z"/><path d="m-252-1702v224z"/><path d="m-252-1926v224z"/><path d="m-252-2028v102z"/><path d="m-252-2204h224z"/><path d="m-28-2204h224z"/><path d="m196-2204h41 53z"/><path d="m290-2204h171 53z"/><path d="m514-2204h171 53z"/><path d="m780-2204h-42z"/><path d="m-252-2028v-176z"/><path d="m-252 1828h224z"/><path d="m-28 1828h224z"/><path d="m196 1828h224z"/><path d="m420 1828h224z"/><path d="m644 1828h136z"/><path d="m780-2204v176z"/><path d="m780-806v-224z"/><path d="m780-1030v-224z"/><path d="m780-1254v-224z"/><path d="m780-1478v-224z"/><path d="m780-1702v-224z"/><path d="m780-1926v-102z"/><path d="m780-17v-224z"/><path d="m780-241v-224z"/><path d="m780-465v-224z"/><path d="m780-689v-117z"/><path d="m780 1828v-224z"/><path d="m780 1604v-224z"/><path d="m780 1380v-224z"/><path d="m780 1156v-224z"/><path d="m780 932v-224z"/><path d="m780 708v-224z"/><path d="m780 484v-224z"/><path d="m780 260v-224z"/><path d="m780 36v-53z"/><path d="m-252 1604v224z"/><path d="m-252 1380v224z"/><path d="m-252 1156v224z"/><path d="m-252 917v239z"/><path d="m-252 917v-209-15z"/><path d="m-252 693v-209-15z"/><path d="m-252 469v-209-15z"/><path d="m-252 245v-209-15z"/><path d="m-252 21v-209-15z"/><path d="m-252-203v-209-15z"/><path d="m-252-427v-209-15z"/><path d="m-252-806v155z"/><path d="m-252-1030v224z"/><path d="m-252-1254v224z"/><path d="m-252-1478v224z"/><path d="m-252-1702v224z"/><path d="m-252-1926v224z"/><path d="m-252-2028v102z"/><path d="m461-2204h-171-53 183z"/><path d="m685-2204h-171-53 183z"/><path d="m780-2204h-42z"/><path d="m-28-2028h-224z"/><path d="m196-2028h-224z"/><path d="m-28-2204h-224v176h224z"/><path d="m196-2204h-224v176h224z"/><path d="m237-2028v-176h-41v176z"/><path d="m-28-2204h-224z"/><path d="m196-2204h-224z"/><path d="m237-2204v176z"/><path d="m237-2028h-41z"/><path d="m-28-2028h-224v-176h224z"/><path d="m196-2028h-224v-176h224z"/><path d="m237-2204v176h-41v-176z"/></g><g id="b"><path d="m237-2204h-41z"/><path d="m780-2204h-42-53z"/><path d="m-28 1828h-224z"/><path d="m196 1828h-224z"/><path d="m420 1828h-224z"/><path d="m644 1828h-224z"/><path d="m780 1828h-136z"/><path d="m-28-2204h-224v176 48h224z"/><path d="m-252-1980v54 170h224v-224z"/><path d="m-252-1756v54 170h224v-224z"/><path d="m-252-1532v54 170h224v-224z"/><path d="m-252-1308v54 170h224v-224z"/><path d="m-252-1084v54 170h224v-224z"/><path d="m-252-860v54 155 15h224v-224z"/><path d="m-252-636v209 15h224v-224z"/><path d="m-252-412v209 15h224v-224z"/><path d="m-252-188v209 15h224v-224z"/><path d="m-252 36v209 15h224v-224z"/><path d="m-252 260v209 15h224v-224z"/><path d="m-252 484v209 15h224v-224z"/><path d="m-252 708v209 15h224v-224z"/><path d="m-252 932v224h224v-224z"/><path d="m-252 1156v224h224v-224z"/><path d="m-252 1380v224h224v-224z"/><path d="m-252 1604v224h224v-224z"/><path d="m196-2204h-224v224h224z"/><path d="m-28-1980v224h224v-224z"/><path d="m-28-1756v224h224v-224z"/><path d="m-28-1532v224h224v-224z"/><path d="m-28-1308v224h224v-224z"/><path d="m-28-1084v224h224v-224z"/><path d="m-28-860v224h224v-224z"/><path d="m-28-636v224h224v-224z"/><path d="m-28-412v224h224v-224z"/><path d="m-28-188v224h224v-224z"/><path d="m-28 36v224h224v-224z"/><path d="m-28 260v224h224v-224z"/><path d="m-28 484v224h224v-224z"/><path d="m-28 708v224h224v-224z"/><path d="m-28 932v224h224v-224z"/><path d="m-28 1156v224h224v-224z"/><path d="m-28 1380v224h224v-224z"/><path d="m-28 1604v224h224v-224z"/><path d="m420-2204h-183-41v224h224z"/><path d="m196-1980v224h224v-224z"/><path d="m196-1756v224h224v-224z"/><path d="m196-1532v224h224v-224z"/><path d="m196-1308v224h224v-224z"/><path d="m196-1084v224h224v-224z"/><path d="m196-860v224h224v-224z"/><path d="m196-636v224h224v-224z"/><path d="m196-412v224h224v-224z"/><path d="m196-188v224h224v-224z"/><path d="m196 36v224h224v-224z"/><path d="m196 260v224h224v-224z"/><path d="m196 484v224h224v-224z"/><path d="m196 708v224h224v-224z"/><path d="m196 932v224h224v-224z"/><path d="m196 1156v224h224v-224z"/><path d="m196 1380v224h224v-224z"/><path d="m196 1604v224h224v-224z"/><path d="m644-2204h-183-41v224h224z"/><path d="m420-1980v224h224v-224z"/><path d="m420-1756v224h224v-224z"/><path d="m420-1532v224h224v-224z"/><path d="m420-1308v224h224v-224z"/><path d="m420-1084v224h224v-224z"/><path d="m420-860v224h224v-224z"/><path d="m420-636v224h224v-224z"/><path d="m420-412v224h224v-224z"/><path d="m420-188v224h224v-224z"/><path d="m420 36v224h224v-224z"/><path d="m420 260v224h224v-224z"/><path d="m420 484v224h224v-224z"/><path d="m420 708v224h224v-224z"/><path d="m420 932v224h224v-224z"/><path d="m420 1156v224h224v-224z"/><path d="m420 1380v224h224v-224z"/><path d="m420 1604v224h224v-224z"/><path d="m780-2028v-176h-95-41v224h136z"/><path d="m644-1980v224h136v-170-54z"/><path d="m644-1756v224h136v-170-54z"/><path d="m644-1532v224h136v-170-54z"/><path d="m644-1308v224h136v-170-54z"/><path d="m644-1084v224h136v-170-54z"/><path d="m644-860v224h136v-53-117-54z"/><path d="m644-636v224h136v-53-171z"/><path d="m644-412v224h136v-53-171z"/><path d="m644-188v224h136v-53-171z"/><path d="m644 36v224h136v-224z"/><path d="m644 260v224h136v-224z"/><path d="m644 484v224h136v-224z"/><path d="m644 708v224h136v-224z"/><path d="m644 932v224h136v-224z"/><path d="m644 1156v224h136v-224z"/><path d="m644 1380v224h136v-224z"/><path d="m644 1604v224h136v-224z"/><path d="m780-1030v170 54z"/><path d="m780-1254v170 54z"/><path d="m780-1478v170 54z"/><path d="m780-1702v170 54z"/><path d="m780-1926v170 54z"/><path d="m780-2028v48 54z"/><path d="m780-241v53 171z"/><path d="m780-465v53 171z"/><path d="m780-689v53 171z"/><path d="m780-806v117z"/><path d="m780 1604v224z"/><path d="m780 1380v224z"/><path d="m780 1156v224z"/><path d="m780 932v224z"/><path d="m780 708v224z"/><path d="m780 484v224z"/><path d="m780 260v224z"/><path d="m780 36v224z"/><path d="m780-17v53z"/><path d="m-252 1828v-224z"/><path d="m-252 1604v-224z"/><path d="m-252 1380v-224z"/><path d="m-252 1156v-224-15z"/><path d="m-252-806v155z"/><path d="m-252-806v-54-170z"/><path d="m-252-1030v-54-170z"/><path d="m-252-1254v-54-170z"/><path d="m-252-1478v-54-170z"/><path d="m-252-1702v-54-170z"/><path d="m-252-1926v-54-48z"/><path d="m-252-2028v-176z"/></g></defs><g stroke="#000"><use fill="none" stroke-miterlimit="0" stroke-width="10" xlink:href="#a"/><use fill="#d9d9d9" xlink:href="#a"/><use fill="none" stroke-miterlimit="0" stroke-width="10" xlink:href="#b"/><use fill="#fff" xlink:href="#b"/></g></svg>