<svg viewBox="-3865 1191 7090 2610" xmlns="http://www.w3.org/2000/svg" xmlns:xlink="http://www.w3.org/1999/xlink"><defs><g id="a"><path d="m-3200 2144v64 160z"/><path d="m-3200 1632v64 160z"/><path d="m-1152 1472v224z"/><path d="m-2976 1984h-224z"/><path d="m-2752 1984h-224z"/><path d="m-2528 1984h-224z"/><path d="m-2304 1984h-128-96 96z"/><path d="m-2080 1984h-160-64 64z"/><path d="m-1856 1984h-160-64z"/><path d="m-1632 1984h-160-64z"/><path d="m-1568 1856h96-160z"/><path d="m-2976 1472h-224z"/><path d="m-2752 1472h-224z"/><path d="m-2528 1472h-224z"/><path d="m-2304 1472h-64-160 160z"/><path d="m-2080 1472h-160-64 64z"/><path d="m-1856 1472h-160-64z"/><path d="m-1632 1472h-160-64z"/><path d="m-1408 1472h-160-64 160z"/><path d="m-1184 1472h-160-64 64 128z"/><path d="m-2240 1696v-96-128h160 64v224z"/><path d="m-2016 1856h-64-160v-128-32h224z"/><path d="m-2016 1696v-224h160 64v224z"/><path d="m-1792 1856h-64-160v-160h224z"/><path d="m-1792 1696v-224h160 64v224z"/><path d="m-1568 1856h-64-160v-160h224z"/><path d="m-1568 1696v-224h160 64v224z"/><path d="m-1344 1856h-128-96v-160h224z"/><path d="m-1184 1472h32v224h-192v-224z"/><path d="m-1152 1696v160h-64-128v-160z"/><path d="m-2304 1472h64v128h-128v-128z"/><path d="m-2240 1728v128h-64-64v-128z"/><path d="m-3200 1696v-64-160h224v224z"/><path d="m-2976 1856h-224v-160h224z"/><path d="m-2976 1696v-224h224v224z"/><path d="m-2752 1856h-224v-160h224z"/><path d="m-2752 1696v-224h224v224z"/><path d="m-2528 1856h-224v-160h224z"/><path d="m-2368 1472v128 96h-160v-224z"/><path d="m-2368 1696v32 128h-160v-160z"/><path d="m-1152 1856v64 64h-64v-128z"/><path d="m-1344 1984h-128v-128h128z"/><path d="m-1152 2368h-32z"/><path d="m-2304 2368h-128v-128h128 64v128z"/><path d="m-2304 2112v-128h64v224h-64z"/><path d="m-2240 2208v32h-64v-32z"/><path d="m-2432 2112v-128h128v128z"/><path d="m-2240 2208v-224h160 64v224z"/><path d="m-2016 2368h-64-160v-128-32h224z"/><path d="m-2016 2208v-224h160 64v224z"/><path d="m-1792 2368h-64-160v-160h224z"/><path d="m-1792 2208v-224h160 64v224z"/><path d="m-1568 2368h-64-160v-160h224z"/><path d="m-1568 2208v-224h96 128v224z"/><path d="m-1344 2368h-64-160v-160h224z"/><path d="m-1216 1984h64v160 64h-192v-224z"/><path d="m-1152 2208v160h-32-160v-160z"/><path d="m-3200 2208v-64-160h224v224z"/><path d="m-2976 2368h-224v-160h224z"/><path d="m-2976 2208v-224h224v224z"/><path d="m-2752 2368h-224v-160h224z"/><path d="m-2752 2208v-224h224v224z"/><path d="m-2528 2368h-224v-160h224z"/><path d="m-2432 1984v128 96h-96v-224z"/><path d="m-2432 2208v32 128h-96v-160z"/><path d="m-256 3072v64z"/><path d="m1280 3104v160 64z"/><path d="m1280 2880v160 64z"/><path d="m2752 2816v96z"/><path d="m2752 3584h-128z"/><path d="m1504 2816h-224z"/><path d="m1728 2816h-224z"/><path d="m1952 2816h-224z"/><path d="m2176 2816h-224z"/><path d="m2400 2816h-224z"/><path d="m2624 2816h-224z"/><path d="m1280 3040v-160-64h224v224z"/><path d="m1280 3264v-160-64h224v224z"/><path d="m1280 3488v-32-128-64h224v224z"/><path d="m1504 3584h-224v-96h224z"/><path d="m1504 3040v-224h224v224z"/><path d="m1504 3264v-224h224v224z"/><path d="m1504 3488v-224h224v224z"/><path d="m1728 3584h-224v-96h224z"/><path d="m1728 3040v-224h224v224z"/><path d="m1728 3264v-224h224v224z"/><path d="m1728 3488v-224h224v224z"/><path d="m1952 3584h-224v-96h224z"/><path d="m1952 3040v-224h224v224z"/><path d="m1952 3264v-224h224v224z"/><path d="m1952 3488v-224h224v224z"/><path d="m2176 3584h-224v-96h224z"/><path d="m2176 3040v-224h224v224z"/><path d="m2176 3264v-224h224v224z"/><path d="m2176 3488v-224h224v224z"/><path d="m2400 3584h-224v-96h224z"/><path d="m2400 3040v-224h224v224z"/><path d="m2400 3264v-224h224v224z"/><path d="m2400 3488v-224h224v224z"/><path d="m2624 3584h-224v-96h224z"/><path d="m2752 2816v96 128h-128v-224z"/><path d="m2752 3040v96 128h-128v-224z"/><path d="m2752 3264v96 128h-128v-224z"/><path d="m2752 3488v96h-128v-96z"/><path d="m-128 3360v128 96z"/><path d="m-128 3136v128 96z"/><path d="m1152 2816v64z"/><path d="m1152 3456v-128h128v128z"/><path d="m96 2816h-224z"/><path d="m320 2816h-224z"/><path d="m544 2816h-224z"/><path d="m768 2816h-224z"/><path d="m992 2816h-224z"/><path d="m1152 3584h-160z"/><path d="m-128 3040v-96-128h224v224z"/><path d="m-128 3264v-128-64-32h224v224z"/><path d="m-128 3488v-128-96h224v224z"/><path d="m96 3584h-224v-96h224z"/><path d="m96 3040v-224h224v224z"/><path d="m96 3264v-224h224v224z"/><path d="m96 3488v-224h224v224z"/><path d="m320 3584h-224v-96h224z"/><path d="m320 3040v-224h224v224z"/><path d="m320 3264v-224h224v224z"/><path d="m320 3488v-224h224v224z"/><path d="m544 3584h-224v-96h224z"/><path d="m544 3040v-224h224v224z"/><path d="m544 3264v-224h224v224z"/><path d="m544 3488v-224h224v224z"/><path d="m768 3584h-224v-96h224z"/><path d="m768 3040v-224h224v224z"/><path d="m768 3264v-224h224v224z"/><path d="m768 3488v-224h224v224z"/><path d="m992 3584h-224v-96h224z"/><path d="m1152 2816v64 160h-160v-224z"/><path d="m1152 3040v64 160h-160v-224z"/><path d="m1152 3264v64 128 32h-160v-224z"/><path d="m1152 3488v96h-160v-96z"/><path d="m-256 3072v-32-96h128v96 32z"/><path d="m-1472 2816v64z"/><path d="m-1344 3104v160 64z"/><path d="m-1344 2880v160 64z"/><path d="m-256 3584h-192z"/><path d="m-1120 2816h-224z"/><path d="m-896 2816h-224z"/><path d="m-672 2816h-224z"/><path d="m-448 2816h-224z"/><path d="m-1344 3040v-160-64h224v224z"/><path d="m-1344 3264v-160-64h224v224z"/><path d="m-1344 3488v-32-128-64h224v224z"/><path d="m-1120 3584h-224v-96h224z"/><path d="m-1120 3040v-224h224v224z"/><path d="m-1120 3264v-224h224v224z"/><path d="m-1120 3488v-224h224v224z"/><path d="m-896 3584h-224v-96h224z"/><path d="m-896 3040v-224h224v224z"/><path d="m-896 3264v-224h224v224z"/><path d="m-896 3488v-224h224v224z"/><path d="m-672 3584h-224v-96h224z"/><path d="m-672 3040v-224h224v224z"/><path d="m-672 3264v-224h224v224z"/><path d="m-672 3488v-224h224v224z"/><path d="m-448 3584h-224v-96h224z"/><path d="m-256 2816v128 96h-192v-224z"/><path d="m-256 3040v32 64 128h-192v-224z"/><path d="m-256 3264v96 128h-192v-224z"/><path d="m-256 3488v96h-192v-96z"/><path d="m-1472 3456v-128h128v128z"/><path d="m-2368 3072v64z"/><path d="m-2240 3360v128 96z"/><path d="m-2240 3136v128 96z"/><path d="m-2016 2816h-224z"/><path d="m-1792 2816h-224z"/><path d="m-1568 2816h-224z"/><path d="m-1472 3584h-96z"/><path d="m-2240 2944v-128h224v224h-224z"/><path d="m-2016 3040v224h-224v-128-64-32z"/><path d="m-2016 3264v224h-224v-128-96z"/><path d="m-2016 3488v96h-224v-96z"/><path d="m-2016 2816h224v224h-224z"/><path d="m-1792 3040v224h-224v-224z"/><path d="m-1792 3264v224h-224v-224z"/><path d="m-1792 3488v96h-224v-96z"/><path d="m-1792 2816h224v224h-224z"/><path d="m-1568 3040v224h-224v-224z"/><path d="m-1568 3264v224h-224v-224z"/><path d="m-1568 3488v96h-224v-96z"/><path d="m-1568 2816h96v64 160h-96z"/><path d="m-1472 3040v64 160h-96v-224z"/><path d="m-1472 3264v64 128 32h-96v-224z"/><path d="m-1472 3488v96h-96v-96z"/><path d="m-2368 3072v-32-96h128v96 32z"/><path d="m-3200 2912v128 96z"/><path d="m-3200 3360v128 96z"/><path d="m-2976 2816h-224z"/><path d="m-2752 2816h-224z"/><path d="m-2528 2816h-224z"/><path d="m-2368 3584h-160z"/><path d="m-3200 2912v-96h224v224h-224z"/><path d="m-2976 3040v224h-224v-128-96z"/><path d="m-2976 3264v224h-224v-128-96z"/><path d="m-2976 3488v96h-224v-96z"/><path d="m-2976 2816h224v224h-224z"/><path d="m-2752 3040v224h-224v-224z"/><path d="m-2752 3264v224h-224v-224z"/><path d="m-2752 3488v96h-224v-96z"/><path d="m-2752 2816h224v224h-224z"/><path d="m-2528 3040v224h-224v-224z"/><path d="m-2528 3264v224h-224v-224z"/><path d="m-2528 3488v96h-224v-96z"/><path d="m-2528 2816h160v128 96h-160z"/><path d="m-2368 3040v32 64 128h-160v-224z"/><path d="m-2368 3264v96 128h-160v-224z"/><path d="m-2368 3488v96h-160v-96z"/><path d="m-1216 1472h-128v384h128z"/><path d="m-1216 1856h-128v-384h128z"/><path d="m-1216 1856v-384h32 32v224 224 64h-64z"/><path d="m-1152 1920v-224-224h-32-32v384 128h64z"/><path d="m-1472 1856v-384h64 64v384 128h-128z"/><path d="m-1344 1856v-384h-64-64v384 128h128z"/><path d="m-2080 1984h224 224 160 128 128 64v160 224h-32-224-224-224-224-160v-128-256z"/><path d="m-2080 2368h224 224 224 224 32v-224-160h-64-128-128-160-224-224-160v256 128z"/><path d="m-1472 1856h-160-224-224-160v-128-128-128h160 224 224 160z"/><path d="m-1472 1472h-160-224-224-160v128 128 128h160 224 224 160z"/><path d="m-2368 1600v-128h64 64v128z"/><path d="m-2240 1600v-128h-64-64v128z"/><path d="m-2240 1856h-64-64v-128h128z"/><path d="m-2240 1728h-128v128h64 64z"/><path d="m-2368 1728v-128-128h-160-224-224-224v160 224h224 224 224 160z"/><path d="m-2368 1600v128 128h-160-224-224-224v-224-160h224 224 224 160z"/><path d="m-2432 2112v-128h128v128z"/><path d="m-2304 2112v-128h-128v128z"/><path d="m-2304 2240v-128-128h64v256z"/><path d="m-2304 1984v128 128h64v-256z"/><path d="m-2304 2240h-128v128h128 64v-128z"/><path d="m-2304 2368h-128v-128h128 64v128z"/><path d="m-2432 2112v128 128h-96-224-224-224v-224-160h224 224 224 96z"/><path d="m-2432 2240v-128-128h-96-224-224-224v160 224h224 224 224 96z"/><path d="m-1152 1472v224z"/><path d="m-1472 1856h-96-64z"/><path d="m-3200 1632v224-160z"/><path d="m-2976 1472h-224 64z"/><path d="m-2752 1472h-224 64z"/><path d="m-2528 1472h-224 64z"/><path d="m-2304 1472h-64-160 64z"/><path d="m-2080 1472h-160-64 64z"/><path d="m-1856 1472h-224 64z"/><path d="m-1632 1472h-224 64z"/><path d="m-1408 1472h-64-160 64z"/><path d="m-1184 1472h-32-128-64 64z"/><path d="m-2976 1984h-224 64z"/><path d="m-2752 1984h-224 64z"/><path d="m-2528 1984h-224 64z"/><path d="m-2304 1984h-128-96 64z"/><path d="m-2080 1984h-160-64 64z"/><path d="m-1856 1984h-224 64z"/><path d="m-1632 1984h-224 64z"/><path d="m-1472 1856v128z"/><path d="m-3200 2144v224-160z"/><path d="m-1152 2368h-32z"/><path d="m-3200 1984v160z"/><path d="m-3200 1472v160z"/><path d="m-1152 2144v224-160z"/><path d="m-1152 1920v64 160-160z"/><path d="m-1152 1696v224-64z"/><path d="m-1472 1984h-96-64z"/><path d="m-1216 1984h-128z"/><path d="m-2976 1856h-224z"/><path d="m-2752 1856h-224z"/><path d="m-2528 1856h-224z"/><path d="m-2304 1856h-64-160 160z"/><path d="m-2080 1856h-160-64 64z"/><path d="m-1856 1856h-224 64z"/><path d="m-1632 1856h-224 64z"/><path d="m-1344 1856h128z"/><path d="m-1152 1472h-32z"/><path d="m-2240 1600v96 32z"/><path d="m-2368 1728v-32-96z"/><path d="m-2368 1600h128z"/><path d="m-2240 1728h-128z"/><path d="m-1344 1984v-128z"/><path d="m-1216 1856v128z"/><path d="m-1472 1856v128z"/><path d="m-2976 2368h-224z"/><path d="m-2752 2368h-224z"/><path d="m-2528 2368h-224z"/><path d="m-2304 2368h-128-96 96z"/><path d="m-2080 2368h-160-64 64z"/><path d="m-1856 2368h-224 64z"/><path d="m-1632 2368h-224 64z"/><path d="m-1408 2368h-224 64z"/><path d="m-1184 2368h-224 64z"/><path d="m-2432 2240v-32-96z"/><path d="m-2304 2112v96 32z"/><path d="m-2432 2112h128z"/><path d="m-2304 2240h-128z"/><path d="m-3200 3360v-224-224-96h224 224 224 160v128 128 64 224 224h-160-224-224-224z"/><path d="m-2368 3360v-224-64-128-128h-160-224-224-224v96 224 224 224h224 224 224 160z"/><path d="m-2368 3072v-128h128v128z"/><path d="m-2240 3072v-128h-128v128z"/><path d="m-1472 3456v-128h128v128z"/><path d="m-1344 3456v-128h-128v128z"/><path d="m-2240 3360v-224-64-128-128h224 224 224 96v64 224 224 128 128h-96-224-224-224z"/><path d="m-1472 3456v-128-224-224-64h-96-224-224-224v128 128 64 224 224h224 224 224 96z"/><path d="m-256 2944v128 64 224 224h-192-224-224-224-224v-128-128-224-224-64h224 224 224 224 192z"/><path d="m-256 3360v-224-64-128-128h-192-224-224-224-224v64 224 224 128 128h224 224 224 224 192z"/><path d="m-256 3072v-128h128v128z"/><path d="m-128 3072v-128h-128v128z"/><path d="m1152 2880v224 224 128 128h-160-224-224-224-224-224v-224-224-64-128-128h224 224 224 224 224 160z"/><path d="m1152 3456v-128-224-224-64h-160-224-224-224-224-224v128 128 64 224 224h224 224 224 224 224 160z"/><path d="m1152 3456v-128h128v128z"/><path d="m1280 3456v-128h-128v128z"/><path d="m2752 3360v-224-224-96h-128-224-224-224-224-224-224v64 224 224 128 128h224 224 224 224 224 224 128z"/><path d="m2752 2912v224 224 224h-128-224-224-224-224-224-224v-128-128-224-224-64h224 224 224 224 224 224 128z"/><path d="m-2976 2816h-224 64z"/><path d="m-2752 2816h-224 64z"/><path d="m-2528 2816h-224 64z"/><path d="m-2016 2816h-224z"/><path d="m-1792 2816h-224z"/><path d="m-1568 2816h-224z"/><path d="m-1120 2816h-224z"/><path d="m-896 2816h-224z"/><path d="m-672 2816h-224z"/><path d="m-448 2816h-224z"/><path d="m-256 2816h-192z"/><path d="m96 2816h-224 96z"/><path d="m320 2816h-224 96z"/><path d="m544 2816h-224 96z"/><path d="m768 2816h-224 96z"/><path d="m992 2816h-224 96z"/><path d="m1504 2816h-224z"/><path d="m1728 2816h-224z"/><path d="m1952 2816h-224z"/><path d="m2176 2816h-224z"/><path d="m2400 2816h-224z"/><path d="m2624 2816h-224z"/><path d="m2752 2816h-128z"/><path d="m-2368 3584h-160z"/><path d="m-256 3584h-96-96z"/><path d="m-128 3584h224z"/><path d="m96 3584h224z"/><path d="m320 3584h224z"/><path d="m544 3584h224z"/><path d="m768 3584h224z"/><path d="m992 3584h160z"/><path d="m2752 3584h-32-96z"/><path d="m-256 3072v64z"/><path d="m1280 3104v224z"/><path d="m1280 2880v224z"/><path d="m2752 2816v96z"/><path d="m1152 2816v64z"/><path d="m1280 3328h-128z"/><path d="m-128 3360v224z"/><path d="m-128 3136v224z"/><path d="m-256 3072h128z"/><path d="m-2240 3360v224z"/><path d="m-2240 3136v224z"/><path d="m-1344 3104v224z"/><path d="m-1344 2880v224z"/><path d="m-1472 2816v64z"/><path d="m-1344 3328h-128z"/><path d="m-3200 2912v224-96z"/><path d="m-3200 3360v224z"/><path d="m-2368 3072v64z"/><path d="m-2368 3072h128z"/><path d="m-256 3360v224-96z"/><path d="m-256 3136v224-96z"/><path d="m-256 2944v-128z"/><path d="m1280 3456v32 96z"/><path d="m1280 2816v64z"/><path d="m2752 3360v224-96z"/><path d="m2752 3136v224-96z"/><path d="m2752 2912v224-96z"/><path d="m1504 3584h-224z"/><path d="m1728 3584h-224z"/><path d="m1952 3584h-224z"/><path d="m2176 3584h-224z"/><path d="m2400 3584h-224z"/><path d="m2624 3584h-224z"/><path d="m2752 2816h-128z"/><path d="m-128 3072v64z"/><path d="m-128 2816v128z"/><path d="m1152 3584v-96-32z"/><path d="m1152 3104v224-64z"/><path d="m1152 2880v224-64z"/><path d="m1152 3456h128z"/><path d="m1280 3328h-128z"/><path d="m1152 2816h-160z"/><path d="m96 3584h-224z"/><path d="m320 3584h-224z"/><path d="m544 3584h-224z"/><path d="m768 3584h-224z"/><path d="m992 3584h-224z"/><path d="m-128 2944h-128z"/><path d="m-256 3072h128z"/><path d="m-1472 3584v-96-32z"/><path d="m-1472 3104v224-64z"/><path d="m-1472 2880v224-64z"/><path d="m-1344 2816v64z"/><path d="m-1344 3456v32 96z"/><path d="m-1120 3584h-224z"/><path d="m-896 3584h-224z"/><path d="m-672 3584h-224z"/><path d="m-448 3584h-224z"/><path d="m-256 2816h-192z"/><path d="m-1472 3456h128z"/><path d="m-1344 3328h-128z"/><path d="m-2368 3360v224-96z"/><path d="m-2368 3136v224-96z"/><path d="m-2368 2944v-128z"/><path d="m-2240 3072v64z"/><path d="m-2240 2816v128z"/><path d="m-1472 2816h-96z"/><path d="m-2016 3584h-224z"/><path d="m-1792 3584h-224z"/><path d="m-1568 3584h-224z"/><path d="m-2240 2944h-128z"/><path d="m-2368 3072h128z"/><path d="m-3200 2816v96z"/><path d="m-3200 3136v128 96z"/><path d="m-2368 2816h-160z"/><path d="m-2976 3584h-224z"/><path d="m-2752 3584h-224z"/><path d="m-2528 3584h-224z"/><path d="m-1152 1472h-2048v384h2048z"/><path d="m-1152 1856h-320v128h320z"/><path d="m-1152 1984h-2048v384h2048z"/><path d="m2752 2816h-5952v768h5952z"/><path d="m-3200 1856v-384z"/><path d="m-1152 1472v384z"/><path d="m-1152 1856h-2048z"/><path d="m-3200 1472h2048z"/><path d="m-1152 1856h-2048v-384h2048z"/><path d="m-1472 1984v-128z"/><path d="m-1152 1856v128z"/><path d="m-1152 1984h-320z"/><path d="m-1472 1856h320z"/><path d="m-1152 1984h-320v-128h320z"/><path d="m-3200 2368v-384z"/><path d="m-1152 1984v384z"/><path d="m-3200 1984h2048z"/><path d="m-1152 2368h-2048z"/><path d="m-1152 2368h-2048v-384h2048z"/><path d="m-3200 3584v-768z"/><path d="m2752 2816v768z"/><path d="m2752 3584h-5952z"/><path d="m-3200 2816h5952z"/><path d="m2752 3584h-5952v-768h5952z"/><path d="m-1152 2368v-224z"/><path d="m-1152 2144v-160-64z"/><path d="m-1152 1920v-224z"/><path d="m-1152 1472v224z"/><path d="m-1472 1984v-128z"/><path d="m-1344 2816h224z"/><path d="m-1120 2816h224z"/><path d="m-896 2816h224z"/><path d="m-672 2816h224z"/><path d="m-448 2816h192z"/><path d="m1280 2816h224z"/><path d="m1504 2816h224z"/><path d="m1728 2816h224z"/><path d="m1952 2816h224z"/><path d="m2176 2816h224z"/><path d="m2400 2816h224z"/><path d="m2624 2816h128z"/><path d="m-3200 3584h224z"/><path d="m-2976 3584h224z"/><path d="m-2752 3584h224z"/><path d="m-2368 3584h-160z"/><path d="m-2240 3584h224z"/><path d="m-2016 3584h224z"/><path d="m-1792 3584h224z"/><path d="m-1568 3584h96z"/><path d="m96 3584h-224z"/><path d="m320 3584h-224z"/><path d="m544 3584h-224z"/><path d="m768 3584h-224z"/><path d="m992 3584h-224z"/><path d="m1152 3584h-160z"/><path d="m-256 3584v-224z"/><path d="m-256 3360v-224z"/><path d="m-256 3072v64z"/><path d="m1280 3328v-224z"/><path d="m1280 3104v-224z"/><path d="m1280 2816v64z"/><path d="m1152 3328v-224z"/><path d="m1152 3104v-224z"/><path d="m1152 2816v64z"/><path d="m1152 3328h128z"/><path d="m-128 3584v-224z"/><path d="m-128 3360v-224z"/><path d="m-128 3072v64z"/><path d="m-128 3072h-128z"/><path d="m-2240 3584v-224z"/><path d="m-2240 3360v-224z"/><path d="m-2240 3072v64z"/><path d="m-1344 3328v-224z"/><path d="m-1344 3104v-224z"/><path d="m-1344 2816v64z"/><path d="m-1472 3328v-224z"/><path d="m-1472 3104v-224z"/><path d="m-1472 2816v64z"/><path d="m-1472 3328h128z"/><path d="m-3200 3584v-224z"/><path d="m-3200 3136v224z"/><path d="m-2368 3584v-224z"/><path d="m-2368 3360v-224z"/><path d="m-2368 3072v64z"/><path d="m-2240 3072h-128z"/><path d="m3008 2880v-64z"/><path d="m-3584 2304v64z"/><path d="m-3584 2176v128z"/><path d="m-3584 1632v64 160z"/><path d="m-1344 1856h128z"/><path d="m-1472 1856h-96z"/><path d="m-2976 1856h-160-64z"/><path d="m-2752 1856h-160-64z"/><path d="m-2528 1856h-160-64z"/><path d="m-2304 1856h-160-64 160z"/><path d="m-2080 1856h-160-64 64z"/><path d="m-1856 1856h-160-64z"/><path d="m-1632 1856h-160-64z"/><path d="m-3584 1696v-64-160h224v224z"/><path d="m-3360 1856h-224v-160h224z"/><path d="m-3200 1472v160 64h-160v-224z"/><path d="m-3200 1696v160h-160v-160z"/><path d="m-2240 1728h-128v-128h128z"/><path d="m-3360 1472h-224z"/><path d="m-3136 1472h-64-160z"/><path d="m-2912 1472h-64-160z"/><path d="m-2688 1472h-64-160z"/><path d="m-2464 1472h-64-160z"/><path d="m-2240 1472h-64-160z"/><path d="m-2016 1472h-64-160z"/><path d="m-1792 1472h-64-160z"/><path d="m-1568 1472h-64-160z"/><path d="m-1344 1472h-64-160z"/><path d="m-3200 1472v160z"/><path d="m-2240 1728h-128z"/><path d="m-2368 1600h128z"/><path d="m-1152 1472h-32z"/><path d="m-2240 1600v128z"/><path d="m-2368 1728v-128z"/><path d="m-1216 1984h-128z"/><path d="m-1568 1984h96-160z"/><path d="m-3360 1984h-192-32z"/><path d="m-3136 1984h-64-128-32z"/><path d="m-2912 1984h-64-160z"/><path d="m-2688 1984h-64-160z"/><path d="m-2464 1984h-64-160z"/><path d="m-2240 1984h-64-160z"/><path d="m-2016 1984h-64-160z"/><path d="m-1792 1984h-64-160z"/><path d="m-1568 1984h-64-160z"/><path d="m-1344 1984v-128z"/><path d="m-1216 1984h-128v-128h128z"/><path d="m-1216 1856v128z"/><path d="m-2304 2240h-128v-128h128z"/><path d="m-3552 2368h-32v-64h32z"/><path d="m-3552 2208v-32-192h192 32v224z"/><path d="m-3328 2368h-32-192v-64-96h224z"/><path d="m-3200 1984v160 64h-128v-224z"/><path d="m-3200 2208v160h-128v-160z"/><path d="m-3584 2176v-192h32v192z"/><path d="m-3584 2304v-128h32v32 96z"/><path d="m-1184 2368h32-192z"/><path d="m-3200 1984v160z"/><path d="m-2432 2112h128z"/><path d="m-2304 2240h-128z"/><path d="m-2304 2112v128z"/><path d="m-2432 2240v-128z"/><path d="m-2976 2368h-160-64z"/><path d="m-2752 2368h-160-64z"/><path d="m-2528 2368h-160-64z"/><path d="m-2304 2368h-160-64 96z"/><path d="m-2080 2368h-160-64 64z"/><path d="m-1856 2368h-160-64z"/><path d="m-1632 2368h-160-64z"/><path d="m-1408 2368h-160-64z"/><path d="m-1184 2368h-160-64z"/><path d="m-3584 2912v128 96z"/><path d="m-2464 2816h96-160z"/><path d="m-3360 2816h-224z"/><path d="m-3136 2816h-64-160z"/><path d="m-2912 2816h-64-160z"/><path d="m-2688 2816h-64-160z"/><path d="m-2464 2816h-64-160z"/><path d="m-2240 2816h-128-96z"/><path d="m-2016 2816h-224z"/><path d="m-1792 2816h-224z"/><path d="m-1568 2816h-224z"/><path d="m-1472 2816h-96z"/><path d="m-32 2816h-96-128z"/><path d="m192 2816h-96-128z"/><path d="m416 2816h-96-128z"/><path d="m640 2816h-96-128z"/><path d="m864 2816h-96-128z"/><path d="m1088 2816h-96-128z"/><path d="m1088 2816h64-160z"/><path d="m-1120 3584h-128-96z"/><path d="m-896 3584h-128-96z"/><path d="m-672 3584h-128-96z"/><path d="m-448 3584h-128-96z"/><path d="m-256 3584h-96z"/><path d="m1504 3584h-128-96z"/><path d="m1728 3584h-128-96z"/><path d="m1952 3584h-128-96z"/><path d="m2176 3584h-128-96z"/><path d="m2400 3584h-128-96z"/><path d="m2624 3584h-128-96z"/><path d="m2976 3584h32-64z"/><path d="m-256 2944v-128z"/><path d="m1280 3456v128z"/><path d="m2752 3360v96 128z"/><path d="m2752 3136v96 128z"/><path d="m2752 2912v96 128z"/><path d="m2976 2880v-64h32v64z"/><path d="m2976 3008v-128h32v128z"/><path d="m2752 3008v-96-96h224v64 128z"/><path d="m2752 3232v-96-128h224v224z"/><path d="m2752 3456v-96-128h224v224z"/><path d="m2944 3584h-192v-128h224v128z"/><path d="m2976 3008h32v128 96h-32z"/><path d="m3008 3232v128 96h-32v-224z"/><path d="m3008 3456v128h-32v-128z"/><path d="m1152 3584v-128z"/><path d="m1152 3456h128z"/><path d="m1280 3584h-128v-128h128z"/><path d="m-128 2816v128z"/><path d="m-128 2944h-128z"/><path d="m-128 2944h-128v-128h128z"/><path d="m-2240 2816v128z"/><path d="m-1344 3456v128z"/><path d="m-1472 3584v-128z"/><path d="m-1472 3456h128z"/><path d="m-1344 3584h-128v-128h128z"/><path d="m-3200 2816v96z"/><path d="m-2368 2944v-128z"/><path d="m-2240 2944h-128z"/><path d="m-2240 2944h-128v-128h128z"/><path d="m-3584 3040v-128-96h224v224z"/><path d="m-3360 3136h-224v-96h224z"/><path d="m-3200 2816v96 128h-160v-224z"/><path d="m-3200 3040v96h-160v-96z"/><path d="m-3200 3136h-160z"/><path d="m-3536 2176h-16v128h16z"/><path d="m2976 2880h-16v128h16z"/><path d="m3008 3584v-128-96z"/><path d="m3008 3360v-128-96z"/><path d="m3008 3136v-128z"/><path d="m3008 3008v-128z"/><path d="m-1152 2368v-224z"/><path d="m-1152 2144v-224z"/><path d="m-1152 1920v-224z"/><path d="m-1152 1472v224z"/><path d="m-3584 1984v192-32z"/><path d="m-3584 1856v-160-64z"/><path d="m-3584 1472v160z"/><path d="m-3584 1856h224z"/><path d="m-3360 1856h160 64z"/><path d="m-3136 1856h160 64z"/><path d="m-2912 1856h160 64z"/><path d="m-2688 1856h160 64z"/><path d="m-2464 1856h160 64z"/><path d="m-2240 1856h160 64z"/><path d="m-2016 1856h160 64z"/><path d="m-1792 1856h160 64z"/><path d="m-1472 1856h-96z"/><path d="m-3584 1472h160 64z"/><path d="m-3360 1472h160 64z"/><path d="m-3136 1472h160 64z"/><path d="m-2912 1472h160 64z"/><path d="m-2688 1472h160 64z"/><path d="m-2464 1472h160 64z"/><path d="m-2240 1472h160 64z"/><path d="m-2016 1472h160 64z"/><path d="m-1792 1472h160 64z"/><path d="m-1568 1472h96 64 64z"/><path d="m-1152 1472h-32-160z"/><path d="m-3584 1984h224z"/><path d="m-3360 1984h224z"/><path d="m-3136 1984h224z"/><path d="m-2912 1984h224z"/><path d="m-2688 1984h224z"/><path d="m-2464 1984h224z"/><path d="m-2240 1984h224z"/><path d="m-2016 1984h224z"/><path d="m-1792 1984h224z"/><path d="m-1472 1984h-96z"/><path d="m-1472 1984v-128z"/><path d="m-3584 2368h32 192z"/><path d="m-3360 2368h32 128 64z"/><path d="m-3136 2368h160 64z"/><path d="m-2912 2368h160 64z"/><path d="m-2688 2368h160 64z"/><path d="m-2464 2368h160 64z"/><path d="m-2240 2368h160 64z"/><path d="m-2016 2368h160 64z"/><path d="m-1792 2368h160 64z"/><path d="m-1568 2368h160 64z"/><path d="m-1152 2368h-32-160z"/><path d="m-3584 3136v-224z"/><path d="m-3584 2816v96z"/><path d="m-3584 2816h224z"/><path d="m-3360 2816h160 64z"/><path d="m-3136 2816h224z"/><path d="m-2912 2816h224z"/><path d="m-2688 2816h224z"/><path d="m-2464 2816h96 128z"/><path d="m-2240 2816h224z"/><path d="m-2016 2816h224z"/><path d="m-1792 2816h224z"/><path d="m-1472 2816h-96z"/><path d="m-1344 2816h224z"/><path d="m-1120 2816h224z"/><path d="m-896 2816h224z"/><path d="m-672 2816h224z"/><path d="m-448 2816h192z"/><path d="m-256 2816h32 96 96z"/><path d="m-32 2816h32 192z"/><path d="m192 2816h32 192z"/><path d="m416 2816h32 192z"/><path d="m640 2816h32 192z"/><path d="m864 2816h32 192z"/><path d="m1152 2816h-64z"/><path d="m1280 2816h64 160z"/><path d="m1504 2816h64 160z"/><path d="m1728 2816h64 160z"/><path d="m1952 2816h64 160z"/><path d="m2176 2816h64 160z"/><path d="m2400 2816h64 160z"/><path d="m2624 2816h64 64z"/><path d="m2976 2816h-224z"/><path d="m3008 2816h-32z"/><path d="m-3200 3584h224z"/><path d="m-2976 3584h224z"/><path d="m-2752 3584h224z"/><path d="m-2368 3584h-96-64z"/><path d="m-2240 3584h224z"/><path d="m-2016 3584h224z"/><path d="m-1792 3584h224z"/><path d="m-1568 3584h96z"/><path d="m-1472 3584h128 96z"/><path d="m-1248 3584h128 96z"/><path d="m-1024 3584h128 96z"/><path d="m-800 3584h128 96z"/><path d="m-576 3584h128 96z"/><path d="m-256 3584h-96z"/><path d="m96 3584h-96-128z"/><path d="m320 3584h-96-128z"/><path d="m544 3584h-96-128z"/><path d="m768 3584h-96-128z"/><path d="m992 3584h-96-128z"/><path d="m1152 3584h-32-128z"/><path d="m1152 3584h128 96z"/><path d="m1376 3584h128 96z"/><path d="m1600 3584h128 96z"/><path d="m1824 3584h128 96z"/><path d="m2048 3584h128 96z"/><path d="m2272 3584h128 96z"/><path d="m2496 3584h128 96z"/><path d="m2720 3584h32 192z"/><path d="m3008 3584h-64z"/><path d="m-256 3584v-224z"/><path d="m-256 3360v-224z"/><path d="m-256 3072v64z"/><path d="m1280 3328v-64-160z"/><path d="m1280 3104v-64-160z"/><path d="m1280 2816v64z"/><path d="m1152 3328v-224z"/><path d="m1152 3104v-224z"/><path d="m1152 2816v64z"/><path d="m1152 3328h128z"/><path d="m-128 3584v-64-160z"/><path d="m-128 3360v-64-160z"/><path d="m-128 3072v64z"/><path d="m-128 3072h-128z"/><path d="m-2240 3584v-64-160z"/><path d="m-2240 3360v-32-32-160z"/><path d="m-2240 3072v64z"/><path d="m-1344 3328v-64-160z"/><path d="m-1344 3104v-64-160z"/><path d="m-1344 2816v64z"/><path d="m-1472 3328v-224z"/><path d="m-1472 3104v-224z"/><path d="m-1472 2816v64z"/><path d="m-1472 3328h128z"/><path d="m-3200 3584v-224z"/><path d="m-3200 3136v224z"/><path d="m-2368 3584v-224z"/><path d="m-2368 3360v-224z"/><path d="m-2368 3072v64z"/><path d="m-2240 3072h-128z"/><path d="m-3584 3136h224z"/><path d="m-3200 3136h-160z"/><path d="m3008 3008v128z"/><path d="m3008 3008v-128-64 96z"/><path d="m-3584 2144v32 128 64z"/><path d="m-3584 2176h32z"/><path d="m-3552 2176h-32z"/><path d="m-3552 2304h-32z"/><path d="m-3584 2304h32z"/><path d="m-3552 2176v32 96z"/><path d="m-3552 2304v-96-32z"/><path d="m-3552 2304h-32v-128h32z"/><path d="m-3552 2176h-32v128h32z"/><path d="m2976 3008h32z"/><path d="m3008 3008h-32z"/><path d="m3008 2880h-32v128h32z"/><path d="m3008 3008h-32v-128h32z"/><path d="m2976 3008v-128z"/><path d="m2976 2880v128z"/><path d="m2976 2880h32z"/><path d="m3008 2880h-32z"/><path d="m-3536 2304h-16v-128h16z"/><path d="m-3536 2304h-16z"/><path d="m-3552 2176h16z"/><path d="m-3536 2176v128z"/><path d="m-3552 2304v-128z"/><path d="m2976 3008h-16v-128h16z"/><path d="m2976 3008h-16z"/><path d="m2960 2880h16z"/><path d="m2976 2880v128z"/><path d="m2960 3008v-128z"/><path d="m3008 3360v224z"/><path d="m3008 3136v224z"/><path d="m3008 2816v96z"/><path d="m-3424 1472h-160-64v-64h224z"/><path d="m-3200 1472h-160-64v-64h224z"/><path d="m-2976 1472h-160-64v-64h224z"/><path d="m-2752 1472h-160-64v-64h224z"/><path d="m-2528 1472h-160-64v-64h224z"/><path d="m-2304 1472h-160-64v-64h224z"/><path d="m-2080 1472h-160-64v-64h224z"/><path d="m-1856 1472h-160-64v-64h224z"/><path d="m-1632 1472h-160-64v-64h224z"/><path d="m-1408 1472h-64-96-64v-64h224z"/><path d="m-1184 1472h-160-64v-64h224z"/><path d="m-1088 1408v64h-64-32v-64z"/><path d="m-1152 1472h64v224h-64z"/><path d="m-1088 1696v224h-64v-224z"/><path d="m-1088 1920v224h-64v-160-64z"/><path d="m-1088 2144v224h-64v-224z"/><path d="m-3424 2432h-224v-64h64 160z"/><path d="m-3200 2432h-224v-64h64 160z"/><path d="m-2976 2432h-224v-64h64 160z"/><path d="m-2752 2432h-224v-64h64 160z"/><path d="m-2528 2432h-224v-64h64 160z"/><path d="m-2304 2432h-224v-64h64 160z"/><path d="m-2080 2432h-224v-64h64 160z"/><path d="m-1856 2432h-224v-64h64 160z"/><path d="m-1632 2432h-224v-64h64 160z"/><path d="m-1408 2432h-224v-64h64 160z"/><path d="m-1184 2432h-224v-64h64 160z"/><path d="m-1152 2368h64v64h-96v-64z"/><path d="m-3360 1984h-224v-64-64h224z"/><path d="m-3136 1984h-224v-128h224z"/><path d="m-2912 1984h-224v-128h224z"/><path d="m-2688 1984h-224v-128h224z"/><path d="m-2464 1984h-224v-128h224z"/><path d="m-2240 1984h-224v-128h224z"/><path d="m-2016 1984h-224v-128h224z"/><path d="m-1792 1984h-224v-128h224z"/><path d="m-1568 1984h-224v-128h224z"/><path d="m-1472 1856v128h-96v-128z"/><path d="m-3648 1472h64v160 64h-64z"/><path d="m-3584 1696v160 64h-64v-224z"/><path d="m-3584 1920v64 160h-64v-224z"/><path d="m-3584 2144v224h-64v-224z"/><path d="m-1152 2144v224z"/><path d="m-1152 1920v64 160z"/><path d="m-1152 1696v224z"/><path d="m-3584 1984v160z"/><path d="m-3584 1472v160z"/><path d="m-3360 1856h-224z"/><path d="m-3136 1856h-224z"/><path d="m-2912 1856h-224z"/><path d="m-2688 1856h-224z"/><path d="m-2464 1856h-224z"/><path d="m-2240 1856h-224z"/><path d="m-2016 1856h-224z"/><path d="m-1792 1856h-224z"/><path d="m-1568 1856h-224z"/><path d="m-1184 1472h32-192z"/><path d="m-1472 1984h-96z"/><path d="m-3360 2368h-64-160z"/><path d="m-3136 2368h-64-160z"/><path d="m-2912 2368h-64-160z"/><path d="m-2688 2368h-64-160z"/><path d="m-2464 2368h-64-160z"/><path d="m-2240 2368h-64-160z"/><path d="m-2016 2368h-64-160z"/><path d="m-1792 2368h-64-160z"/><path d="m-1568 2368h-64-160z"/><path d="m-1344 2368h-64-160z"/><path d="m-3584 3360v224z"/><path d="m-3584 3136v224z"/><path d="m-3584 2912v224z"/><path d="m-3584 2816v96z"/><path d="m-1472 2816h-96z"/><path d="m1120 2816h32-64z"/><path d="m2752 2816h160 64z"/><path d="m2976 2816h32z"/><path d="m-3360 2816h-224z"/><path d="m-3136 2816h-64-160z"/><path d="m-2912 2816h-224z"/><path d="m-2688 2816h-224z"/><path d="m-2464 2816h-224z"/><path d="m-2240 2816h-128-96z"/><path d="m-2016 2816h-224z"/><path d="m-1792 2816h-224z"/><path d="m-1568 2816h-224z"/><path d="m-1344 2816h-128-96z"/><path d="m-1120 2816h-224z"/><path d="m-896 2816h-224z"/><path d="m-672 2816h-224z"/><path d="m-448 2816h-224z"/><path d="m-224 2816h-32-192z"/><path d="m0 2816h-32-96-96z"/><path d="m224 2816h-32-192z"/><path d="m448 2816h-32-192z"/><path d="m672 2816h-32-192z"/><path d="m896 2816h-32-192z"/><path d="m1120 2816h-32-192z"/><path d="m1344 2816h-64-128-32z"/><path d="m1568 2816h-64-160z"/><path d="m1792 2816h-64-160z"/><path d="m2016 2816h-64-160z"/><path d="m2240 2816h-64-160z"/><path d="m2464 2816h-64-160z"/><path d="m2688 2816h-64-160z"/><path d="m2912 2816h-160-64z"/><path d="m-2976 3584h-160-64z"/><path d="m-2752 3584h-160-64z"/><path d="m-2528 3584h-160-64z"/><path d="m-2016 3584h-224z"/><path d="m-1792 3584h-224z"/><path d="m-1568 3584h-224z"/><path d="m-1472 3584h-96z"/><path d="m-1248 3584h-96-128z"/><path d="m-1024 3584h-96-128z"/><path d="m-800 3584h-96-128z"/><path d="m-576 3584h-96-128z"/><path d="m-352 3584h-96-128z"/><path d="m1376 3584h-32-64-128z"/><path d="m1600 3584h-32-192z"/><path d="m1824 3584h-32-192z"/><path d="m2048 3584h-32-192z"/><path d="m2272 3584h-32-192z"/><path d="m2496 3584h-32-192z"/><path d="m2720 3584h-32-192z"/><path d="m2944 3584h-32-192z"/><path d="m2944 3584h64-96z"/><path d="m-3584 3360v-224h224v224z"/><path d="m-3360 3584h-224v-224h224z"/><path d="m-3200 3136v224h-160v-224z"/><path d="m-3200 3360v224h-160v-224z"/><path d="m-2368 3296v-160-64h128v64 160z"/><path d="m-2368 3520v-160-64h128v32 32 160z"/><path d="m-2240 3584h-128v-64h128z"/><path d="m-1472 3040v-160-64h128v64 160z"/><path d="m-1472 3264v-160-64h128v64 160z"/><path d="m-1344 3328h-128v-64h128z"/><path d="m-256 3296v-160-64h128v64 160z"/><path d="m-256 3520v-160-64h128v64 160z"/><path d="m-128 3584h-96-32v-64h128z"/><path d="m1152 3040v-160-64h128v64 160z"/><path d="m1152 3264v-160-64h128v64 160z"/><path d="m1280 3328h-128v-64h128z"/><path d="m-256 3360v160 64z"/><path d="m-256 3136v160 64z"/><path d="m1280 2816v64z"/><path d="m1152 3104v160 64z"/><path d="m1152 2880v160 64z"/><path d="m-128 3072v64z"/><path d="m-2240 3072v64z"/><path d="m-1344 2816v64z"/><path d="m-1472 3104v160 64z"/><path d="m-1472 2880v160 64z"/><path d="m-3200 3136v224z"/><path d="m-2368 3360v160 64z"/><path d="m-2368 3136v160 64z"/><path d="m-3360 3136h-224z"/><path d="m3008 3360v224z"/><path d="m3008 3136v224z"/><path d="m3008 2912v224-128z"/><path d="m-3584 2816v96z"/><path d="m3008 2816h-32-64z"/><path d="m-3360 3584h-224z"/><path d="m-3136 3584h-224 160z"/><path d="m-2912 3584h-224 160z"/><path d="m-2688 3584h-224 160z"/><path d="m-2464 3584h-224 160z"/><path d="m-2240 3584h-224 96z"/><path d="m-2016 3584h-224z"/><path d="m-1792 3584h-224z"/><path d="m-1568 3584h-224z"/><path d="m-1344 3584h-224 96z"/><path d="m-1120 3584h-224 96z"/><path d="m-896 3584h-224 96z"/><path d="m-672 3584h-224 96z"/><path d="m-448 3584h-224 96z"/><path d="m-224 3584h-224 96 96z"/><path d="m0 3584h-224 96z"/><path d="m224 3584h-224 96z"/><path d="m448 3584h-224 96z"/><path d="m672 3584h-224 96z"/><path d="m896 3584h-224 96z"/><path d="m1120 3584h-224 96z"/><path d="m1344 3584h-224 32 128z"/><path d="m1568 3584h-224 32z"/><path d="m1792 3584h-224 32z"/><path d="m2016 3584h-224 32z"/><path d="m2240 3584h-224 32z"/><path d="m2464 3584h-224 32z"/><path d="m2688 3584h-224 32z"/><path d="m2912 3584h-224 32z"/></g></defs><path d="m-3865 1191h7090v2610h-7090z" fill="#fff"/><g stroke="#000"><use fill="none" stroke-miterlimit="0" stroke-width="15" xlink:href="#a"/><use fill="#fff" xlink:href="#a"/></g></svg>