<?xml version="1.0" encoding="utf-8" ?>
<svg baseProfile="tiny" height="100%" version="1.2" viewBox="-1024.0 -1088.0 1536.0 1536.0" width="100%" xmlns="http://www.w3.org/2000/svg" xmlns:ev="http://www.w3.org/2001/xml-events" xmlns:xlink="http://www.w3.org/1999/xlink"><defs><g id="bsp_ref"><polygon points="368,-944 368,-944 368,-944 368,-800 368,-800" /><polygon points="64,-128 64,-192 64,-272 64,-320 192,-320 256,-320 288,-320 288,-128" /><polygon points="288,-320 368,-320 368,-128 288,-128" /><polygon points="64,-720 64,-944 96,-944 192,-944 192,-800 192,-736 192,-720" /><polygon points="64,-496 64,-720 192,-720 192,-512 192,-496" /><polygon points="192,-320 64,-320 64,-496 192,-496" /><polygon points="192,-512 192,-720 192,-736 256,-736 256,-720 256,-512" /><polygon points="256,-496 256,-320 192,-320 192,-496 192,-512 256,-512" /><polygon points="192,-944 256,-944 256,-800 192,-800" /><polygon points="256,-720 256,-736 256,-800 256,-944 320,-944 368,-944 368,-800 368,-720" /><polygon points="256,-496 256,-512 256,-720 368,-720 368,-576 368,-496" /><polygon points="368,-352 368,-320 288,-320 256,-320 256,-496 368,-496" /><polygon points="256,-736 192,-736 192,-736 256,-736" /><polygon points="192,-736 192,-800 192,-800 192,-736" /><polygon points="192,-800 256,-800 256,-800 192,-800" /><polygon points="256,-800 256,-736 256,-736 256,-800" /><polygon points="288,256 96,256 64,256 64,128 96,128 128,128 288,128" /><polygon points="320,128 320,256 288,256 288,128" /><polygon points="288,256 320,256 320,256 320,256 128,256 96,256 96,256" /><polygon points="-576,-720 -576,-752 -576,-768 -576,-896 -576,-912 -576,-944 -352,-944 -352,-720" /><polygon points="-576,-496 -576,-512 -576,-720 -352,-720 -352,-496" /><polygon points="-352,-320 -432,-320 -576,-320 -576,-496 -352,-496" /><polygon points="-288,-944 -288,-720 -352,-720 -352,-944" /><polygon points="-288,-720 -288,-496 -352,-496 -352,-720" /><polygon points="-288,-496 -288,-320 -352,-320 -352,-496" /><polygon points="-288,-944 -224,-944 -224,-720 -288,-720" /><polygon points="-224,-720 -224,-496 -288,-496 -288,-720" /><polygon points="-224,-496 -224,-288 -288,-288 -288,-320 -288,-496" /><polygon points="-224,-944 -128,-944 0,-944 0,-720 -224,-720" /><polygon points="0,-720 0,-496 -224,-496 -224,-720" /><polygon points="0,-496 0,-272 -224,-272 -224,-288 -224,-496" /><polygon points="0,-272 0,-192 -64,-192 -224,-192 -224,-224 -224,-272" /><polygon points="0,-944 64,-944 64,-720 0,-720" /><polygon points="64,-720 64,-496 0,-496 0,-720" /><polygon points="64,-496 64,-320 64,-272 0,-272 0,-496" /><polygon points="64,-272 64,-192 0,-192 0,-272" /><polygon points="-608,-768 -640,-768 -832,-768 -832,-896 -640,-896 -608,-896" /><polygon points="-576,-896 -576,-768 -608,-768 -608,-896" /><polygon points="-880,-320 -880,-368 -880,-512 -656,-512 -656,-320" /><polygon points="-656,-512 -576,-512 -576,-496 -576,-320 -656,-320" /><polygon points="-288,-224 -224,-224 -224,-192 -288,-192" /><polygon points="-288,32 -288,-96 -288,-192 -224,-192 -64,-192 -64,32" /><polygon points="-288,256 -288,96 -288,32 -64,32 -64,256" /><polygon points="-208,304 -288,304 -288,256 -64,256 -64,304" /><polygon points="-64,-192 0,-192 64,-192 64,-128 64,32 -64,32" /><polygon points="64,32 64,112 64,128 64,256 -64,256 -64,32" /><polygon points="64,256 64,272 64,304 16,304 -64,304 -64,256" /><polygon points="-880,-96 -880,-144 -880,-320 -656,-320 -656,-96" /><polygon points="-656,96 -704,96 -768,96 -880,96 -880,80 -880,-96 -656,-96" /><polygon points="-656,-96 -656,-320 -576,-320 -432,-320 -432,-96" /><polygon points="-432,96 -480,96 -656,96 -656,-96 -432,-96" /><polygon points="-352,-320 -288,-320 -288,-288 -288,-224 -288,-192 -288,-96 -432,-96 -432,-320" /><polygon points="-288,-96 -288,32 -288,96 -432,96 -432,-96" /><polygon points="-656,304 -704,304 -704,160 -704,96 -656,96 -480,96 -480,304" /><polygon points="-480,96 -432,96 -288,96 -288,256 -288,304 -432,304 -480,304" /><polygon points="-704,160 -704,304 -768,304 -768,160" /><polygon points="-768,96 -768,160 -768,304 -880,304 -880,96" /><polygon points="-608,-896 -640,-896 -640,-896 -640,-896 -608,-896" /><polygon points="-880,80 -880,96 -880,304 -880,304 -880,80" /><polygon points="-880,-144 -880,-96 -880,80 -880,80 -880,-144" /><polygon points="-880,-368 -880,-320 -880,-144 -880,-144 -880,-368" /><polygon points="64,304 64,304 16,304 16,304" /><polygon points="192,-736 192,-736 256,-736 256,-736" /><polygon points="192,-800 192,-800 192,-736 192,-736" /><polygon points="256,-800 256,-800 192,-800 192,-800" /><polygon points="256,-736 256,-736 256,-800 256,-800" /><polygon points="-704,96 -704,96 -704,160 -704,160" /><polygon points="-768,160 -768,160 -768,96 -768,96" /><polygon points="-704,160 -704,160 -768,160 -768,160" /><polygon points="-768,96 -768,96 -704,96 -704,96" /><polygon points="-352,-944 -352,-944 -576,-944 -576,-944" /><polygon points="-128,-944 -128,-944 -224,-944 -288,-944 -352,-944 -352,-944" /><polygon points="96,-944 96,-944 64,-944 0,-944 -128,-944 -128,-944" /><polygon points="320,-944 320,-944 256,-944 192,-944 96,-944 96,-944" /><polygon points="368,-944 368,-944 320,-944 320,-944" /><polygon points="64,-128 64,-128 64,80 64,112 64,112 64,112 64,32 64,-128" /><polygon points="64,-128 64,-128 288,-128 288,-128" /><polygon points="288,-128 288,-128 368,-128 368,-128" /><polygon points="320,256 320,256 320,128 320,128" /><polygon points="320,128 320,128 288,128 128,128 128,128" /><polygon points="-656,-512 -656,-512 -880,-512 -880,-512" /><polygon points="-576,-512 -576,-512 -656,-512 -656,-512" /><polygon points="-576,-944 -576,-944 -576,-912 -576,-912 -576,-912 -576,-944" /><polygon points="-640,-768 -640,-768 -608,-768 -608,-768 -640,-768" /><polygon points="-832,-896 -832,-896 -832,-768 -832,-768" /><polygon points="-832,-768 -832,-768 -640,-768 -640,-768" /><polygon points="-640,-896 -640,-896 -832,-896 -832,-896" /><polygon points="368,-128 368,-128 368,-128 368,-320 368,-352 368,-352" /><polygon points="368,-352 368,-352 368,-496 368,-576 368,-576" /><polygon points="368,-576 368,-576 368,-720 368,-800 368,-800" /><polygon points="368,-944 368,-944 368,-944 368,-800 368,-800" /><polygon points="-880,304 -880,304 -880,80 -880,80" /><polygon points="-880,80 -880,80 -880,-144 -880,-144" /><polygon points="-880,-144 -880,-144 -880,-368 -880,-368" /><polygon points="-880,-512 -880,-512 -880,-512 -880,-368 -880,-368" /><polygon points="-880,304 -880,304 -768,304 -704,304 -656,304 -656,304" /><polygon points="-656,304 -656,304 -480,304 -432,304 -432,304" /><polygon points="-432,304 -432,304 -288,304 -208,304 -208,304" /><polygon points="-208,304 -208,304 -64,304 16,304 16,304" /><polygon points="64,304 64,304 64,304 64,304 16,304 16,304" /><polygon points="64,272 64,272 64,256 64,256" /><polygon points="64,272 64,272 64,304 64,304 64,304 64,272" /><polygon points="64,128 64,128 64,112 64,112" /><polygon points="96,128 96,256 96,256 96,128" /><polygon points="96,128 96,128 128,128 128,128 128,128 96,128" /><polygon points="64,128 64,256 96,256 96,128" /><polygon points="96,128 96,128 64,128 64,128" /><polygon points="64,256 64,256 96,256 96,256" /><polygon points="64,272 64,272 64,256 64,128 64,112 64,112" /><polygon points="128,256 96,256 96,256 128,256" /><polygon points="128,256 128,128 96,128 96,256" /><polygon points="-576,-768 -576,-768 -576,-752 -576,-752" /><polygon points="-576,-752 -576,-752 -576,-720 -576,-512 -576,-512 -576,-512 -576,-736 -576,-752" /><polygon points="-576,-912 -576,-912 -576,-896 -576,-896" /><polygon points="-640,-896 -640,-768 -608,-768 -608,-896" /><polygon points="-608,-896 -608,-768 -576,-768 -576,-896" /><polygon points="-608,-768 -608,-768 -576,-768 -576,-768" /><polygon points="-576,-896 -576,-896 -608,-896 -608,-896" /><polygon points="-224,-320 -288,-320 -288,-288 -224,-288" /><polygon points="-288,-224 -288,-192 -224,-192 -224,-224" /><polygon points="-192,-320 -224,-320 -224,-288 -224,-224 -224,-192 -192,-192" /><polygon points="-288,-224 -288,-288 -288,-320 -320,-320 -320,-192 -288,-192" /><polygon points="-224,-224 -224,-224 -288,-224 -288,-224" /><polygon points="-288,-224 -288,-224 -288,-288 -288,-288" /><polygon points="-288,-288 -288,-288 -224,-288 -224,-288" /><polygon points="-224,-288 -224,-288 -224,-272 -224,-224 -224,-224" /><polygon points="-576,-912 -576,-912 -576,-896 -576,-768 -576,-752 -576,-752" /><polygon points="-288,-192 -224,-192 -192,-192 -192,-192 -224,-192 -288,-192 -320,-192 -320,-192" /><polygon points="-320,-192 -320,-192 -320,-320 -320,-320" /><polygon points="-224,-192 -288,-192 -288,-224 -224,-224" /><polygon points="-192,-192 -224,-192 -224,-224 -224,-288 -224,-320 -192,-320" /><polygon points="-288,-288 -288,-320 -224,-320 -224,-288" /><polygon points="-288,-288 -288,-224 -288,-192 -320,-192 -320,-320 -288,-320" /><polygon points="-288,-224 -288,-288 -288,-288 -288,-224" /><polygon points="-224,-224 -288,-224 -288,-224 -224,-224" /><polygon points="-224,-288 -224,-224 -224,-224 -224,-288" /><polygon points="-288,-288 -224,-288 -224,-288 -288,-288" /><polygon points="-192,-320 -192,-320 -192,-192 -192,-192" /><polygon points="-224,-320 -288,-320 -320,-320 -320,-320 -288,-320 -224,-320 -192,-320 -192,-320" /><polygon points="192,-736 192,-736 256,-736 256,-736" /><polygon points="192,-800 192,-800 192,-736 192,-736" /><polygon points="256,-800 256,-800 192,-800 192,-800" /><polygon points="256,-736 256,-736 256,-800 256,-800" /><polygon points="-288,-288 -288,-288 -288,-224 -288,-224" /><polygon points="-288,-224 -288,-224 -224,-224 -224,-224" /><polygon points="-224,-224 -224,-224 -224,-288 -224,-288" /><polygon points="-224,-288 -224,-288 -288,-288 -288,-288" /><polygon points="-704,96 -704,96 -704,160 -704,160" /><polygon points="-768,160 -768,160 -768,96 -768,96" /><polygon points="-704,160 -704,160 -768,160 -768,160" /><polygon points="-768,96 -768,96 -704,96 -704,96" /><polygon points="-352,-944 -352,-944 -576,-944 -576,-944 -576,-944" /><polygon points="-128,-944 -128,-944 -352,-944 -352,-944" /><polygon points="96,-944 96,-944 -128,-944 -128,-944" /><polygon points="320,-944 320,-944 96,-944 96,-944" /><polygon points="368,-944 368,-944 368,-944 320,-944 320,-944" /><polygon points="64,304 64,304 64,272 64,112 64,80 64,80" /><polygon points="64,80 64,80 64,-128 64,-128" /><polygon points="64,-128 64,-128 64,-128 288,-128 288,-128" /><polygon points="288,-128 288,-128 368,-128 368,-128 368,-128" /><polygon points="320,256 320,256 320,256 320,128 320,128" /><polygon points="320,128 320,128 128,128 128,128 128,128" /><polygon points="128,256 128,256 128,256 320,256 320,256" /><polygon points="128,128 128,128 128,256 128,256" /><polygon points="-656,-512 -656,-512 -880,-512 -880,-512 -880,-512" /><polygon points="-576,-512 -576,-512 -576,-512 -656,-512 -656,-512" /><polygon points="-576,-736 -576,-736 -576,-512 -576,-512" /><polygon points="-576,-944 -576,-944 -576,-912 -576,-752 -576,-736 -576,-736" /><polygon points="-640,-768 -640,-768 -640,-896 -640,-896" /><polygon points="-832,-896 -832,-896 -832,-768 -832,-768" /><polygon points="-832,-768 -832,-768 -640,-768 -640,-768 -640,-768" /><polygon points="-640,-896 -640,-896 -640,-896 -832,-896 -832,-896" /><polygon points="368,-128 368,-128 368,-128 368,-352 368,-352" /><polygon points="368,-352 368,-352 368,-576 368,-576" /><polygon points="368,-576 368,-576 368,-800 368,-800" /><polygon points="368,-944 368,-944 368,-944 368,-800 368,-800" /><polygon points="-880,304 -880,304 -880,80 -880,80" /><polygon points="-880,80 -880,80 -880,-144 -880,-144" /><polygon points="-880,-144 -880,-144 -880,-368 -880,-368" /><polygon points="-880,-512 -880,-512 -880,-512 -880,-368 -880,-368" /><polygon points="-880,304 -880,304 -656,304 -656,304" /><polygon points="-656,304 -656,304 -432,304 -432,304" /><polygon points="-432,304 -432,304 -208,304 -208,304" /><polygon points="-208,304 -208,304 16,304 16,304" /><polygon points="64,304 64,304 64,304 16,304 16,304" /><polygon points="192,-736 192,-736 256,-736 256,-736" /><polygon points="192,-800 192,-800 192,-736 192,-736" /><polygon points="256,-800 256,-800 192,-800 192,-800" /><polygon points="256,-736 256,-736 256,-800 256,-800" /><polygon points="-288,-288 -288,-288 -288,-224 -288,-224" /><polygon points="-288,-224 -288,-224 -224,-224 -224,-224" /><polygon points="-224,-224 -224,-224 -224,-288 -224,-288" /><polygon points="-224,-288 -224,-288 -288,-288 -288,-288" /><polygon points="-704,96 -704,96 -704,160 -704,160" /><polygon points="-768,160 -768,160 -768,96 -768,96" /><polygon points="-704,160 -704,160 -768,160 -768,160" /><polygon points="-768,96 -768,96 -704,96 -704,96" /><polygon points="-352,-944 -352,-944 -576,-944 -576,-944" /><polygon points="-128,-944 -128,-944 -352,-944 -352,-944" /><polygon points="96,-944 96,-944 -128,-944 -128,-944" /><polygon points="320,-944 320,-944 96,-944 96,-944" /><polygon points="368,-944 368,-944 368,-944 320,-944 320,-944" /><polygon points="64,304 64,304 64,304 64,80 64,80" /><polygon points="64,80 64,80 64,-128 64,-128" /><polygon points="64,-128 64,-128 288,-128 288,-128" /><polygon points="288,-128 288,-128 368,-128 368,-128 368,-128" /><polygon points="320,256 320,256 320,128 320,128" /><polygon points="320,128 320,128 128,128 128,128" /><polygon points="128,256 128,256 320,256 320,256" /><polygon points="128,128 128,128 128,256 128,256" /><polygon points="-656,-512 -656,-512 -880,-512 -880,-512 -880,-512" /><polygon points="-576,-512 -576,-512 -656,-512 -656,-512" /><polygon points="-576,-736 -576,-736 -576,-512 -576,-512" /><polygon points="-576,-944 -576,-944 -576,-736 -576,-736" /><polygon points="-640,-768 -640,-768 -640,-896 -640,-896" /><polygon points="-832,-896 -832,-896 -832,-768 -832,-768" /><polygon points="-832,-768 -832,-768 -640,-768 -640,-768" /><polygon points="-640,-896 -640,-896 -832,-896 -832,-896" /><polygon points="368,-128 368,-128 368,-128 368,-352 368,-352" /><polygon points="368,-352 368,-352 368,-576 368,-576" /><polygon points="368,-576 368,-576 368,-800 368,-800" /><polygon points="368,-944 368,-944 368,-944 368,-800 368,-800" /><polygon points="-880,304 -880,304 -880,80 -880,80" /><polygon points="-880,80 -880,80 -880,-144 -880,-144" /><polygon points="-880,-144 -880,-144 -880,-368 -880,-368" /><polygon points="-880,-512 -880,-512 -880,-512 -880,-368 -880,-368" /><polygon points="-880,304 -880,304 -656,304 -656,304" /><polygon points="-656,304 -656,304 -432,304 -432,304" /><polygon points="-432,304 -432,304 -208,304 -208,304" /><polygon points="-208,304 -208,304 16,304 16,304" /><polygon points="64,304 64,304 64,304 16,304 16,304" /><polygon points="192,-736 192,-736 256,-736 256,-736" /><polygon points="192,-800 192,-800 192,-736 192,-736" /><polygon points="256,-800 256,-800 192,-800 192,-800" /><polygon points="256,-736 256,-736 256,-800 256,-800" /><polygon points="-288,-288 -288,-288 -288,-224 -288,-224" /><polygon points="-288,-224 -288,-224 -224,-224 -224,-224" /><polygon points="-224,-224 -224,-224 -224,-288 -224,-288" /><polygon points="-224,-288 -224,-288 -288,-288 -288,-288" /><polygon points="-704,96 -704,96 -704,160 -704,160" /><polygon points="-768,160 -768,160 -768,96 -768,96" /><polygon points="-704,160 -704,160 -768,160 -768,160" /><polygon points="-768,96 -768,96 -704,96 -704,96" /><polygon points="-352,-944 -352,-944 -576,-944 -576,-944" /><polygon points="-128,-944 -128,-944 -352,-944 -352,-944" /><polygon points="96,-944 96,-944 -128,-944 -128,-944" /><polygon points="320,-944 320,-944 96,-944 96,-944" /><polygon points="368,-944 368,-944 368,-944 320,-944 320,-944" /><polygon points="64,304 64,304 64,304 64,80 64,80" /><polygon points="64,80 64,80 64,-128 64,-128" /><polygon points="64,-128 64,-128 288,-128 288,-128" /><polygon points="288,-128 288,-128 368,-128 368,-128 368,-128" /><polygon points="320,256 320,256 320,128 320,128" /><polygon points="320,128 320,128 128,128 128,128" /><polygon points="128,256 128,256 320,256 320,256" /><polygon points="128,128 128,128 128,256 128,256" /><polygon points="-656,-512 -656,-512 -880,-512 -880,-512 -880,-512" /><polygon points="-576,-512 -576,-512 -656,-512 -656,-512" /><polygon points="-576,-736 -576,-736 -576,-512 -576,-512" /><polygon points="-576,-944 -576,-944 -576,-736 -576,-736" /><polygon points="-640,-768 -640,-768 -640,-896 -640,-896" /><polygon points="-832,-896 -832,-896 -832,-768 -832,-768" /><polygon points="-832,-768 -832,-768 -640,-768 -640,-768" /><polygon points="-640,-896 -640,-896 -832,-896 -832,-896" /><polygon points="368,-128 368,-128 368,-128 368,-352 368,-352" /><polygon points="368,-352 368,-352 368,-576 368,-576" /><polygon points="368,-576 368,-576 368,-800 368,-800" /><polygon points="368,-944 368,-944 368,-944 368,-800 368,-800" /><polygon points="368,-128 368,-128 320,-128 288,-128 288,-128 368,-128" /><polygon points="-880,-512 -880,-512 -832,-512 -656,-512 -656,-512 -880,-512" /><polygon points="-880,304 -880,304 -880,80 -880,80" /><polygon points="-880,80 -880,80 -880,-144 -880,-144" /><polygon points="-880,-144 -880,-144 -880,-368 -880,-368" /><polygon points="-880,-512 -880,-512 -880,-512 -880,-368 -880,-368" /><polygon points="-880,304 -880,304 -656,304 -656,304" /><polygon points="-656,304 -656,304 -432,304 -432,304" /><polygon points="-432,304 -432,304 -208,304 -208,304" /><polygon points="-208,304 -208,304 16,304 16,304" /><polygon points="64,304 64,304 64,304 16,304 16,304" /><polygon points="192,-736 192,-800 192,-832 160,-832 160,-704 192,-704" /><polygon points="256,-832 192,-832 192,-800 256,-800" /><polygon points="192,-736 192,-704 256,-704 256,-736" /><polygon points="288,-832 256,-832 256,-800 256,-736 256,-704 288,-704" /><polygon points="256,-704 192,-704 160,-704 160,-704 288,-704 288,-704" /><polygon points="-288,-224 -288,-288 -288,-320 -320,-320 -320,-192 -288,-192" /><polygon points="-192,-320 -224,-320 -224,-288 -224,-224 -224,-192 -192,-192" /><polygon points="-288,-224 -288,-192 -224,-192 -224,-224" /><polygon points="-224,-320 -288,-320 -288,-288 -224,-288" /><polygon points="-704,192 -768,192 -800,192 -800,192 -672,192 -672,192" /><polygon points="-672,64 -704,64 -704,96 -704,160 -704,192 -672,192" /><polygon points="-768,160 -768,192 -704,192 -704,160" /><polygon points="-704,64 -768,64 -768,96 -704,96" /><polygon points="-768,160 -768,96 -768,64 -800,64 -800,192 -768,192" /><polygon points="-704,160 -704,96 -704,96 -704,160" /><polygon points="-768,96 -768,160 -768,160 -768,96" /><polygon points="-768,160 -704,160 -704,160 -768,160" /><polygon points="-704,96 -768,96 -768,96 -704,96" /><polygon points="320,128 192,128 192,256 320,256" /><polygon points="-704,-896 -832,-896 -832,-768 -704,-768" /><polygon points="368,-24 368,-128 368,-128 368,80 368,80" /><polygon points="-576,-944 -432,-944 -352,-944 -352,-944 -576,-944" /><polygon points="-352,-944 -208,-944 -128,-944 -128,-944 -352,-944" /><polygon points="-128,-944 16,-944 96,-944 96,-944 -128,-944" /><polygon points="96,-944 240,-944 320,-944 320,-944 96,-944" /><polygon points="320,-944 368,-944 368,-944 368,-944 320,-944" /><polygon points="-656,-944 -832,-944 -880,-944 -880,-944 -656,-944" /><polygon points="-432,-944 -576,-944 -624,-944 -640,-944 -656,-944 -656,-944 -432,-944" /><polygon points="-208,-944 -352,-944 -432,-944 -432,-944 -208,-944" /><polygon points="16,-944 -128,-944 -208,-944 -208,-944 16,-944" /><polygon points="240,-944 96,-944 16,-944 16,-944 240,-944" /><polygon points="64,80 64,96 64,128 64,304 64,304 64,304 64,80" /><polygon points="64,-128 64,80 64,80 64,-128" /><polygon points="288,-128 128,-128 112,-128 64,-128 64,-128 288,-128" /><polygon points="160,-704 160,-704 160,-832 160,-832" /><polygon points="288,-704 160,-704 160,-832 288,-832" /><polygon points="160,-832 160,-832 192,-832 256,-832 288,-832 288,-832" /><polygon points="288,-832 288,-832 288,-704 288,-704" /><polygon points="112,128 128,128 128,256 128,304 64,304 64,128" /><polygon points="288,304 128,304 128,256 320,256 320,304" /><polygon points="368,304 320,304 320,256 320,128 368,128" /><polygon points="320,-24 368,-24 368,80 368,128 320,128 128,128 128,-24" /><polygon points="112,-128 128,-128 128,-80 128,-64 128,-32 112,-32" /><polygon points="64,80 64,-128 112,-128 112,-32 112,-24 112,96 64,96" /><polygon points="112,96 112,120 112,128 64,128 64,96" /><polygon points="288,-128 320,-128 320,-80 136,-80 128,-80 128,-128" /><polygon points="320,-24 320,-64 320,-80 320,-128 368,-128 368,-24" /><polygon points="136,-64 312,-64 320,-64 320,-24 128,-24 128,-32 128,-64" /><polygon points="320,-80 320,-80 312,-80 136,-80 136,-80" /><polygon points="112,-32 128,-32 128,-32 112,-32" /><polygon points="128,-32 128,-24 128,-24 128,-24 128,-24 128,-32" /><polygon points="128,128 128,128 128,120 128,-24 128,-24" /><polygon points="320,304 368,304 368,304 288,304 288,304" /><polygon points="320,128 320,256 320,256 320,128" /><polygon points="128,128 320,128 320,128 128,128" /><polygon points="320,256 128,256 128,256 320,256" /><polygon points="128,256 128,128 128,128 128,256" /><polygon points="-656,-512 -640,-512 -624,-512 -576,-512 -576,-512 -656,-512" /><polygon points="-824,-560 -640,-560 -640,-512 -656,-512 -832,-512 -832,-560" /><polygon points="-624,-512 -640,-512 -640,-560 -640,-576 -640,-608 -624,-608" /><polygon points="-832,-720 -832,-768 -640,-768 -640,-616 -640,-608 -640,-576 -648,-576 -824,-576 -832,-576" /><polygon points="-880,-736 -880,-944 -832,-944 -832,-896 -832,-768 -832,-720 -880,-720" /><polygon points="-832,-720 -832,-576 -832,-560 -832,-512 -880,-512 -880,-720" /><polygon points="-640,-896 -832,-896 -832,-944 -656,-944 -640,-944" /><polygon points="-624,-760 -624,-768 -624,-944 -576,-944 -576,-736 -576,-720 -624,-720" /><polygon points="-576,-720 -576,-512 -624,-512 -624,-608 -624,-616 -624,-720" /><polygon points="-640,-768 -640,-896 -640,-944 -624,-944 -624,-768" /><polygon points="-640,-768 -640,-768 -640,-760 -640,-616 -640,-616" /><polygon points="-640,-608 -640,-616 -640,-616 -640,-616 -640,-616 -640,-608" /><polygon points="-624,-608 -640,-608 -640,-608 -624,-608" /><polygon points="-880,-736 -880,-720 -880,-512 -880,-512 -880,-736" /><polygon points="-576,-512 -576,-720 -576,-736 -576,-736 -576,-512" /><polygon points="-576,-736 -576,-944 -576,-944 -576,-736" /><polygon points="-640,-896 -640,-768 -640,-768 -640,-896" /><polygon points="-832,-768 -832,-896 -832,-896 -832,-768" /><polygon points="-640,-768 -832,-768 -832,-768 -640,-768" /><polygon points="-832,-896 -640,-896 -640,-896 -832,-896" /><polygon points="-192,-192 -192,-192 -224,-192 -288,-192 -320,-192 -320,-192" /><polygon points="-320,-192 -320,-192 -320,-320 -320,-320" /><polygon points="-192,-320 -192,-320 -192,-192 -192,-192" /><polygon points="-320,-320 -320,-320 -288,-320 -224,-320 -192,-320 -192,-320" /><polygon points="-192,-320 -192,-192 -320,-192 -320,-320" /><polygon points="-800,64 -800,64 -768,64 -704,64 -672,64 -672,64" /><polygon points="-672,64 -672,64 -672,192 -672,192" /><polygon points="-672,192 -800,192 -800,64 -672,64" /><polygon points="-800,192 -800,192 -800,64 -800,64" /><polygon points="320,256 320,256 192,256 192,256" /><polygon points="320,128 320,128 320,256 320,256" /><polygon points="192,128 192,128 320,128 320,128" /><polygon points="192,256 192,256 192,128 192,128" /><polygon points="320,256 192,256 192,128 320,128" /><polygon points="-704,-768 -704,-768 -832,-768 -832,-768" /><polygon points="-832,-768 -832,-768 -832,-896 -832,-896" /><polygon points="-832,-896 -832,-896 -704,-896 -704,-896" /><polygon points="-704,-896 -704,-896 -704,-768 -704,-768" /><polygon points="-704,-768 -832,-768 -832,-896 -704,-896" /><polygon points="136,-80 136,-72 136,-72 136,-80" /><polygon points="136,-72 136,-64 136,-64 136,-72" /><polygon points="136,-64 312,-64 312,-64 136,-64" /><polygon points="312,-64 312,-64 312,-64 320,-64 320,-64 312,-64" /><polygon points="136,-72 136,-80 312,-80 312,-72" /><polygon points="312,-64 136,-64 136,-72 312,-72" /><polygon points="312,-64 312,-72 312,-72 312,-64" /><polygon points="312,-72 312,-80 312,-80 312,-72" /><polygon points="128,-24 120,-24 120,-24 128,-24" /><polygon points="120,-24 112,-24 112,-24 120,-24" /><polygon points="136,-80 136,-80 136,-80 128,-80 128,-80 136,-80" /><polygon points="112,-24 112,120 112,120 112,96 112,-24" /><polygon points="112,120 112,120 112,120 112,128 112,128 112,120" /><polygon points="120,120 120,-24 128,-24 128,120" /><polygon points="112,120 112,-24 120,-24 120,120" /><polygon points="112,120 120,120 120,120 112,120" /><polygon points="120,120 128,120 128,120 120,120" /><polygon points="-624,-760 -624,-760 -624,-760 -624,-768 -624,-768 -624,-760" /><polygon points="-624,-616 -624,-760 -624,-760 -624,-720 -624,-616" /><polygon points="-632,-616 -624,-616 -624,-616 -632,-616" /><polygon points="-640,-616 -632,-616 -632,-616 -640,-616" /><polygon points="-632,-760 -640,-760 -640,-760 -632,-760" /><polygon points="-624,-760 -632,-760 -632,-760 -624,-760" /><polygon points="-632,-616 -632,-760 -624,-760 -624,-616" /><polygon points="-640,-616 -640,-760 -632,-760 -632,-616" /><polygon points="-640,-560 -640,-560 -640,-560 -640,-576 -640,-576 -640,-560" /><polygon points="-824,-576 -824,-568 -824,-568 -824,-576" /><polygon points="-824,-568 -824,-560 -824,-560 -824,-568" /><polygon points="-648,-560 -640,-560 -640,-560 -824,-560 -824,-560" /><polygon points="-640,-560 -648,-560 -648,-560 -640,-560" /><polygon points="-648,-568 -648,-576 -648,-576 -648,-568" /><polygon points="-648,-560 -648,-568 -648,-568 -648,-560" /><polygon points="-648,-560 -824,-560 -824,-568 -648,-568" /><polygon points="-824,-568 -824,-576 -648,-576 -648,-568" /><polygon points="-648,-576 -824,-576 -824,-576 -648,-576" /><polygon points="-824,-576 -824,-576 -824,-576 -832,-576 -832,-576 -824,-576" /><polygon points="312,-72 136,-72 136,-64 312,-64" /><polygon points="-648,-576 -824,-576 -824,-568 -648,-568" /><polygon points="128,-24 120,-24 120,120 128,120" /><polygon points="-632,-760 -640,-760 -640,-616 -632,-616" /><polygon points="368,-128 368,-128 368,-128 368,-352 368,-352" /><polygon points="368,-352 368,-352 368,-576 368,-576" /><polygon points="368,-576 368,-576 368,-800 368,-800" /><polygon points="368,-944 368,-944 368,-800 368,-800" /><polygon points="368,304 368,304 368,128 368,80 368,80" /><polygon points="368,-128 368,-128 368,-64 368,80 368,80" /><polygon points="-880,-944 -880,-944 -656,-944 -656,-944" /><polygon points="-656,-944 -656,-944 -432,-944 -432,-944" /><polygon points="-432,-944 -432,-944 -208,-944 -208,-944" /><polygon points="-208,-944 -208,-944 16,-944 16,-944" /><polygon points="16,-944 16,-944 240,-944 240,-944" /><polygon points="368,-944 368,-944 320,-944 240,-944 240,-944" /><polygon points="64,304 64,304 128,304 288,304 288,304" /><polygon points="368,304 368,304 288,304 288,304" /><polygon points="-880,-512 -880,-512 -880,-736 -880,-736" /><polygon points="-880,-944 -880,-944 -880,-736 -880,-736" /><polygon points="-880,304 -880,304 -880,160 -880,80 -880,80" /><polygon points="-880,80 -880,80 -880,-64 -880,-144 -880,-144" /><polygon points="-880,-144 -880,-144 -880,-288 -880,-368 -880,-368" /><polygon points="-880,-512 -880,-512 -880,-512 -880,-368 -880,-368" /><polygon points="-880,304 -880,304 -656,304 -656,304" /><polygon points="-656,304 -656,304 -432,304 -432,304" /><polygon points="-432,304 -432,304 -208,304 -208,304" /><polygon points="-208,304 -208,304 16,304 16,304" /><polygon points="64,304 64,304 16,304 16,304" /><polygon points="128,128 128,128 128,128 112,128 112,128 128,128" /><polygon points="312,-64 136,-64 136,-64 312,-64" /><polygon points="312,-80 136,-80 136,-72 312,-72" /><polygon points="136,-72 136,-64 312,-64 312,-72" /><polygon points="312,-80 320,-80 320,-80 136,-80 136,-80" /><polygon points="312,-80 312,-80 320,-80 320,-80" /><polygon points="312,-72 312,-72 136,-72 136,-72" /><polygon points="136,-72 136,-72 312,-72 312,-72" /><polygon points="136,-80 136,-80 312,-80 312,-80" /><polygon points="312,-80 312,-80 136,-80 136,-80" /><polygon points="112,-24 112,-24 112,-24 112,-32 112,-32 112,-24" /><polygon points="136,-64 136,-64 136,-64 128,-64 128,-64 136,-64" /><polygon points="112,120 112,-24 112,-24 112,120" /><polygon points="112,-24 112,-24 112,120 112,120" /><polygon points="112,120 112,120 112,-24 112,-24" /><polygon points="120,-24 120,120 128,120 128,-24" /><polygon points="112,-24 112,120 120,120 120,-24" /><polygon points="128,-24 128,120 128,128 128,128 128,-24" /><polygon points="120,-24 120,-24 120,120 120,120" /><polygon points="120,120 120,120 120,-24 120,-24" /><polygon points="128,120 128,120 128,128 128,128" /><polygon points="-624,-760 -624,-616 -624,-616 -624,-760" /><polygon points="-624,-616 -624,-616 -624,-760 -624,-760" /><polygon points="-624,-760 -624,-760 -624,-616 -624,-616" /><polygon points="-624,-616 -624,-616 -624,-616 -624,-608 -624,-608 -624,-616" /><polygon points="-640,-768 -640,-768 -640,-768 -624,-768 -624,-768 -640,-768" /><polygon points="-640,-760 -640,-760 -640,-768 -640,-768" /><polygon points="-640,-616 -640,-760 -640,-768 -640,-768 -640,-616" /><polygon points="-632,-760 -632,-616 -624,-616 -624,-760" /><polygon points="-640,-760 -640,-616 -632,-616 -632,-760" /><polygon points="-632,-760 -632,-760 -632,-616 -632,-616" /><polygon points="-632,-616 -632,-616 -632,-760 -632,-760" /><polygon points="-824,-560 -824,-560 -648,-560 -648,-560" /><polygon points="-648,-560 -648,-560 -824,-560 -824,-560" /><polygon points="-648,-576 -648,-576 -648,-576 -640,-576 -640,-576 -648,-576" /><polygon points="-824,-568 -824,-560 -648,-560 -648,-568" /><polygon points="-648,-576 -824,-576 -824,-568 -648,-568" /><polygon points="-824,-576 -648,-576 -648,-576 -824,-576" /><polygon points="-824,-568 -824,-568 -648,-568 -648,-568" /><polygon points="-648,-568 -648,-568 -824,-568 -824,-568" /><polygon points="-824,-560 -824,-560 -824,-560 -832,-560 -832,-560 -824,-560" /><polygon points="312,-72 312,-72 312,-64 312,-64" /><polygon points="136,-64 136,-64 136,-72 136,-72" /><polygon points="312,-64 136,-64 136,-72 312,-72" /><polygon points="312,-64 312,-64 136,-64 136,-64" /><polygon points="136,-72 136,-72 312,-72 312,-72" /><polygon points="-824,-568 -824,-568 -824,-576 -824,-576" /><polygon points="-648,-576 -648,-576 -648,-568 -648,-568" /><polygon points="-648,-568 -824,-568 -824,-576 -648,-576" /><polygon points="-824,-576 -824,-576 -648,-576 -648,-576" /><polygon points="-648,-568 -648,-568 -824,-568 -824,-568" /><polygon points="128,120 128,120 120,120 120,120" /><polygon points="120,-24 120,-24 128,-24 128,-24" /><polygon points="128,120 120,120 120,-24 128,-24" /><polygon points="128,-24 128,-24 128,120 128,120" /><polygon points="120,120 120,120 120,-24 120,-24" /><polygon points="-640,-760 -640,-760 -632,-760 -632,-760" /><polygon points="-632,-616 -632,-616 -640,-616 -640,-616" /><polygon points="-632,-616 -640,-616 -640,-760 -632,-760" /><polygon points="-640,-616 -640,-616 -640,-760 -640,-760" /><polygon points="-632,-760 -632,-760 -632,-616 -632,-616" /><polygon points="320,-64 312,-64 136,-64 128,-64 128,-80 136,-80 320,-80" /><polygon points="112,120 112,-24 112,-32 128,-32 128,-24 128,128 112,128" /><polygon points="320,-64 320,-80 320,-80 320,-80 320,-80 320,-64" /><polygon points="128,-80 128,-64 128,-64 128,-80" /><polygon points="-832,-576 -832,-560 -832,-560 -832,-576" /><polygon points="-640,-616 -640,-768 -624,-768 -624,-760 -624,-616 -624,-608 -640,-608" /><polygon points="-640,-560 -824,-560 -832,-560 -832,-576 -824,-576 -648,-576 -640,-576" /><polygon points="-640,-560 -640,-560 -648,-560 -824,-560 -824,-560" /><polygon points="-672,-960 -880,-960 -896,-960 -896,-960 -672,-960" /><polygon points="-448,-960 -656,-960 -672,-960 -672,-960 -448,-960" /><polygon points="-224,-960 -432,-960 -448,-960 -448,-960 -224,-960" /><polygon points="0,-960 -208,-960 -224,-960 -224,-960 0,-960" /><polygon points="224,-960 16,-960 0,-960 0,-960 224,-960" /><polygon points="384,-960 384,-960 384,-800 384,-800" /><polygon points="240,320 368,320 384,320 384,320 224,320 224,320" /><polygon points="-896,96 -896,160 -896,320 -896,320 -896,160 -896,96" /><polygon points="-896,-128 -896,-64 -896,96 -896,96 -896,-64 -896,-128" /><polygon points="-896,-352 -896,-288 -896,-128 -896,-128 -896,-288 -896,-352" /><polygon points="-896,-576 -896,-512 -896,-352 -896,-352 -896,-512 -896,-576" /><polygon points="-896,-800 -896,-736 -896,-576 -896,-576 -896,-736 -896,-800" /><polygon points="-656,320 -672,320 -880,320 -880,304 -656,304" /><polygon points="-432,320 -448,320 -656,320 -656,304 -432,304" /><polygon points="-208,320 -224,320 -432,320 -432,304 -208,304" /><polygon points="16,320 0,320 -208,320 -208,304 16,304" /><polygon points="240,320 224,320 16,320 16,304 64,304 240,304" /><polygon points="288,304 368,304 368,320 240,320 240,304" /><polygon points="-896,-800 -896,-960 -880,-960 -880,-944 -880,-736 -896,-736" /><polygon points="-880,-736 -880,-512 -896,-512 -896,-576 -896,-736" /><polygon points="-880,-512 -880,-368 -880,-288 -896,-288 -896,-352 -896,-512" /><polygon points="-880,-288 -880,-144 -880,-64 -896,-64 -896,-128 -896,-288" /><polygon points="-880,-64 -880,80 -880,160 -896,160 -896,96 -896,-64" /><polygon points="-880,160 -880,304 -880,320 -896,320 -896,160" /><polygon points="368,-800 368,-944 368,-960 384,-960 384,-800 384,-736 368,-736" /><polygon points="384,-736 384,-576 384,-512 368,-512 368,-576 368,-736" /><polygon points="384,-512 384,-352 384,-288 368,-288 368,-352 368,-512" /><polygon points="384,-288 384,-128 384,-64 368,-64 368,-128 368,-288" /><polygon points="384,-64 384,96 384,160 368,160 368,80 368,-64" /><polygon points="384,160 384,320 368,320 368,304 368,160" /><polygon points="-656,-944 -880,-944 -880,-960 -672,-960 -656,-960" /><polygon points="-432,-944 -656,-944 -656,-960 -448,-960 -432,-960" /><polygon points="-208,-944 -432,-944 -432,-960 -224,-960 -208,-960" /><polygon points="16,-944 -208,-944 -208,-960 0,-960 16,-960" /><polygon points="240,-944 16,-944 16,-960 224,-960 240,-960" /><polygon points="368,-960 368,-944 240,-944 240,-960" /><polygon points="368,-352 368,-288 368,-128 368,-128 368,-352" /><polygon points="368,-576 368,-512 368,-352 368,-352 368,-576" /><polygon points="368,-800 368,-736 368,-576 368,-576 368,-800" /><polygon points="368,80 368,160 368,304 368,304 368,80" /><polygon points="368,-944 368,-944 240,-944 240,-944" /><polygon points="288,304 240,304 64,304 64,304 288,304" /><polygon points="-880,-944 -880,-944 -880,-736 -880,-736" /><polygon points="-880,-512 -880,-512 -880,-368 -880,-368" /><polygon points="-656,304 -880,304 -880,304 -656,304" /><polygon points="-432,304 -656,304 -656,304 -432,304" /><polygon points="-208,304 -432,304 -432,304 -208,304" /><polygon points="16,304 -208,304 -208,304 16,304" /><polygon points="384,-960 384,-960 368,-960 240,-960 224,-960 224,-960" /><polygon points="384,96 384,160 384,320 384,320 384,160 384,96" /><polygon points="384,-128 384,-64 384,96 384,96 384,-64 384,-128" /><polygon points="384,-352 384,-288 384,-128 384,-128 384,-288 384,-352" /><polygon points="384,-576 384,-512 384,-352 384,-352 384,-512 384,-576" /><polygon points="384,-800 384,-736 384,-576 384,-576 384,-736 384,-800" /><polygon points="-672,320 -896,320 -896,320 -880,320 -672,320" /><polygon points="-448,320 -672,320 -672,320 -656,320 -448,320" /><polygon points="-224,320 -448,320 -448,320 -432,320 -224,320" /><polygon points="0,320 -224,320 -224,320 -208,320 0,320" /><polygon points="224,320 0,320 0,320 16,320 224,320" /><polygon points="-896,-960 -896,-960 -896,-800 -896,-800" /><polygon points="-672,-960 -896,-960 -896,-800 -896,-736 -672,-736" /><polygon points="-896,-736 -896,-576 -896,-512 -672,-512 -672,-736" /><polygon points="-896,-512 -896,-352 -896,-288 -672,-288 -672,-512" /><polygon points="-896,-288 -896,-128 -896,-64 -672,-64 -672,-288" /><polygon points="-896,-64 -896,96 -896,160 -672,160 -672,-64" /><polygon points="-896,160 -896,320 -672,320 -672,160" /><polygon points="-448,-960 -672,-960 -672,-736 -448,-736" /><polygon points="-672,-736 -672,-512 -448,-512 -448,-736" /><polygon points="-672,-512 -672,-288 -448,-288 -448,-512" /><polygon points="-672,-288 -672,-64 -448,-64 -448,-288" /><polygon points="-672,-64 -672,160 -448,160 -448,-64" /><polygon points="-672,160 -672,320 -448,320 -448,160" /><polygon points="-224,-960 -448,-960 -448,-736 -224,-736" /><polygon points="-448,-736 -448,-512 -224,-512 -224,-736" /><polygon points="-448,-512 -448,-288 -224,-288 -224,-512" /><polygon points="-448,-288 -448,-64 -224,-64 -224,-288" /><polygon points="-448,-64 -448,160 -224,160 -224,-64" /><polygon points="-448,160 -448,320 -224,320 -224,160" /><polygon points="0,-960 -224,-960 -224,-736 0,-736" /><polygon points="-224,-736 -224,-512 0,-512 0,-736" /><polygon points="-224,-512 -224,-288 0,-288 0,-512" /><polygon points="-224,-288 -224,-64 0,-64 0,-288" /><polygon points="-224,-64 -224,160 0,160 0,-64" /><polygon points="-224,160 -224,320 0,320 0,160" /><polygon points="224,-960 0,-960 0,-736 224,-736" /><polygon points="0,-736 0,-512 224,-512 224,-736" /><polygon points="0,-512 0,-288 224,-288 224,-512" /><polygon points="0,-288 0,-64 224,-64 224,-288" /><polygon points="0,-64 0,160 224,160 224,-64" /><polygon points="0,160 0,320 224,320 224,160" /><polygon points="384,-800 384,-960 224,-960 224,-736 384,-736" /><polygon points="224,-736 224,-512 384,-512 384,-576 384,-736" /><polygon points="224,-512 224,-288 384,-288 384,-352 384,-512" /><polygon points="224,-288 224,-64 384,-64 384,-128 384,-288" /><polygon points="224,-64 224,160 384,160 384,96 384,-64" /><polygon points="224,160 224,320 384,320 384,160" /></g></defs><rect fill="#fff" height="1536.0" id="background" width="1536.0" x="-1024.0" y="-1088.0" /><use fill="none" stroke="black" stroke-miterlimit="0" stroke-width="15" xlink:href="#bsp_ref" /><use fill="white" stroke="black" stroke-width="1" xlink:href="#bsp_ref" /></svg>