<svg viewBox="-1401 -1465 2994 3058" xmlns="http://www.w3.org/2000/svg" xmlns:xlink="http://www.w3.org/1999/xlink"><defs><g id="a"><path d="m-640 992h-224v-32h32 192z"/><path d="m-608 960v32h-32v-32z"/><path d="m-608 844.8v91.2l-38-19-34-85-16-40z"/><path d="m-699.4286 890.2857 3.4286-10.2857 16-48 34 85z"/><path d="m-699.4286 890.2857 53.4286 26.7143 38 19v24h-32-192l68-68 17.3333-17.3333 10.6667-2.6667z"/><path d="m-764 892-4-12 21.3333-5.3333z"/><path d="m-788.5714 845.7143 10.9714 5.4857 9.6 28.8 4 12-68 68h-32v-152z"/><path d="m-788.5714 845.7143 4.5714-13.7143 6.4 19.2z"/><path d="m-696 880-3.4286 10.2857-36.5714-18.2857z"/><path d="m-732 676 4-4h120v32l-128 64-32 16z"/><path d="m-732 676-36 108-16 48-4.5714 13.7143-75.4286-37.7143z"/><path d="m-608 704v64 76.8l-88-52.8-40-24z"/><path d="m-608 992h-32z"/><path d="m-608 672h-120z"/><path d="m-608 704v-32 96z"/><path d="m-784 832 16-48z"/><path d="m-768 880-9.6-28.8-6.4-19.2z"/><path d="m-768 784 32-16z"/><path d="m-696 792 16 40z"/><path d="m-736 872-10.6667 2.6667-21.3333 5.3333 21.3333-5.3333z"/><path d="m1176 512-56 16 37.3334-16z"/><path d="m1120 528-11.3334 4.8571-1.0974-1.4109-15.1249-19.4462h14.2223 21.3334 29.3334z"/><path d="m1096 480 10.6666 32h-14.2223l-12.4443-16-8-56 16 16z"/><path d="m1164.5714 483.4285-5.4728-13.682 16.9014 2.2535z"/><path d="m1113.7778 481.7778.2222.2222-18-2-8-24z"/><path d="m1166.3256 487.814-34.3256-3.814-18-2-.2222-.2222 2.2222-17.7778 43.0986 5.7465z"/><path d="m1214.983 493.2203 6.1759.6863-9.1589 30.0934-8.5424 2.4407-7.4576-10.4407z"/><path d="m1176 512h-18.6666-29.3334l4-28 34.3256 3.814z"/><path d="m1104 504 24 8h-21.3334z"/><path d="m1216 492 .3429 1.3714-1.3599-.1511z"/><path d="m1216 492-8-32 12.99-11.3664 6.9237 23.0786-6.7548 22.1944-4.816-.5352z"/><path d="m1169.3333 478.6666 6.6667-6.6666 40-40 4.99 16.6336-44.99 39.3664z"/><path d="m1166.3256 487.814-1.7542-4.3855 4.7619-4.7619 26.6667 37.3334 7.4576 10.4407-19.4576 5.5593z"/><path d="m1116 464-2.2222 17.7778-25.7778-25.7778-16-16z"/><path d="m1216 432-40 40z"/><path d="m1203.4576 526.4407 8.5424-2.4407-8.5424 2.4407-19.4576 5.5593z"/><path d="m1176 488 20 28z"/><path d="m1227.9137 471.7122-15.9137 52.2878z"/><path d="m1176 488 32-28z"/><path d="m1176 512-56 16z"/><path d="m1184 532-8-20z"/><path d="m1128 512-24-8z"/><path d="m1114 482 18 2-36-4z"/><path d="m1104 504-8-24z"/><path d="m1132 484-4 28z"/><path d="m672-480v-16z"/><path d="m672-432v-48z"/><path d="m708.8-400h43.2-43.2-36.8z"/><path d="m708.8-400h-36.8l32-8z"/><path d="m752-400h-43.2l-4.8-8-14.4-24h6.4z"/><path d="m784-432h20l-4 4-14.8972-1.2415-33.1028-2.7585z"/><path d="m811.5862-431.8621.0502-.1379h.3636l-12 32z"/><path d="m820-472 4-24-4 28-1.0909 7.6364-.8666.1083z"/><path d="m680-448-8 16v-48-16l13.7143 36.5714z"/><path d="m696-432h-6.4l-9.6-16 5.7143-11.4286z"/><path d="m820-472-1.9575 11.7447-2.0425.2553-4.8421-14.5263z"/><path d="m816-460 4 12-4 4-12 12h-20l-7.1111-17.7778 7.1111-14.2222 8-16 19.1579 5.4737z"/><path d="m820-448 4 12-12 4h-.3636l4.3636-12z"/><path d="m768-472 16 8-7.1111 14.2222z"/><path d="m928-400-8-40 8 8z"/><path d="m832-544h48l48 48z"/><path d="m928-432-16-16 16-16z"/><path d="m848-464-29.0909 3.6364 1.0909-7.6364z"/><path d="m880-544 48 48z"/><path d="m912-448 8 8z"/><path d="m928-496-96-48z"/><path d="m928-464-16 16z"/><path d="m920-440 8 40z"/><path d="m752-400-56-32z"/><path d="m784-432-16-40z"/><path d="m792-480-8 16z"/><path d="m818.9091-460.3636 29.0909-3.6364-29.0909 3.6364-2.9091.3636z"/><path d="m824-496-4 24z"/><path d="m824-496-4 28z"/><path d="m820-448-4-12 4 12 4 12z"/><path d="m804-432 12-12-16 16z"/><path d="m812-432-12 32z"/><path d="m812-432 12-4z"/><path d="m800-428-14.8965-1.2414-.0007-.0001z"/><path d="m784-464-16-8z"/><path d="m704-408-32 8z"/><path d="m256 192v64z"/><path d="m256-192v96z"/><path d="m192-320h-64 59.4286z"/><path d="m-384-192v-59.4286-4.5714z"/><path d="m128 320h-96z"/><path d="m-320 320h64z"/><path d="m32-320v32z"/><path d="m32-288v192z"/><path d="m32 288v32z"/><path d="m32 96v192z"/><path d="m224-96h32z"/><path d="m32-96h192z"/><path d="m32-288v-32h96 64l64 64v64 96h-32-192z"/><path d="m256 96h-32z"/><path d="m224 96h32v96 64l-64 64h-64-96v-32-192z"/><path d="m-160-96h-192z"/><path d="m-384-96h32z"/><path d="m-160-96v-192z"/><path d="m-160-288v-32z"/><path d="m-320-320h64 96v32 192h-192-32v-96-64z"/><path d="m-160 96h-192z"/><path d="m-352 96h-32z"/><path d="m-160 320v-32z"/><path d="m-160 288v-192z"/><path d="m-384 192v-96h32 192v192 32h-96-64l-64-64z"/><path d="m-752 736h24 32l-32-64-64 64z"/><path d="m-728 672 32 64h-32-24-40z"/><path d="m-648 832-8-16-40-80-32-64h120v96 144z"/><path d="m-608 768v-96h-120l32 64 40 80 8 16 40 80z"/><path d="m-648 832-8-16-40-24 16 40z"/><path d="m-680 832-16-40 40 24 8 16z"/><path d="m-699.4286 890.2857-20.5714-10.2857 80 80h32v-24z"/><path d="m-720 880 20.5714 10.2857 91.4286 45.7143v24h-32z"/><path d="m-864 808v152h32l8-8 40-120 16-48 16-48h-40z"/><path d="m-768 784-16 48-40 120-8 8h-32v-152l72-72h40z"/><path d="m-736 768 8-4v-28h-24l-16 48z"/><path d="m-728 736v28l-8 4-32 16 16-48z"/><path d="m-736 768 8-4v8.8z"/><path d="m-728 772.8v-8.8l-8 4z"/><path d="m-764 892-4-12 21.3333-5.3333z"/><path d="m-746.6667 874.6667-21.3333 5.3333 4 12z"/><path d="m-768 880 4 12-60 60 40-120z"/><path d="m-824 952 60-60-4-12-16-48z"/><path d="m-726 874 6 6 80 80h-192l8-8 60-60 17.3333-17.3333 10.6667-2.6667z"/><path d="m-640 960-80-80-6-6-10-2-10.6667 2.6667-17.3333 17.3333-60 60-8 8z"/><path d="m-726 874 30 6-3.4286 10.2857-20.5714-10.2857z"/><path d="m-720 880 20.5714 10.2857 3.4286-10.2857-30-6z"/><path d="m-699.4286 890.2857 3.4286-10.2857 16-48h32l40 80v24z"/><path d="m-680 832-16 48-3.4286 10.2857 91.4286 45.7143v-24l-40-80z"/><path d="m-696 792-32-19.2v-8.8-28h32l40 80z"/><path d="m-696 792 40 24-40-80h-32v28 8.8z"/><path d="m-640 992h32v-32h-32-192-32v32z"/><path d="m-832 960h192 32v32h-32-224v-32z"/><path d="m-608 992h-32z"/><path d="m-608 672v96z"/><path d="m-728 672h120z"/><path d="m-784 832 16 48z"/><path d="m-680 832-16-40z"/><path d="m-746.6667 874.6667-21.3333 5.3333 32-8z"/><path d="m-768 784-16 48z"/><path d="m-736 768-32 16z"/><path d="m-640 992h-224z"/><path d="m-864 960v-152 152 32z"/><path d="m-608 768v144 24 24 32-32-24-91.2z"/><path d="m-792 736 64-64-4 4-132 132z"/><path d="m-696 880-40-8z"/><path d="m-728 772.8-8-4.8 40 24z"/><path d="m-680 832-16 48z"/><path d="m-696 880-40-8z"/><path d="m1056 64h12z"/><path d="m1248 64h12z"/><path d="m1056 16v48z"/><path d="m1216-16 32 16v64h-88v-72z"/><path d="m1120-28 40 20v72h-92-12v-48z"/><path d="m1216-16-56 8 40-5.7143z"/><path d="m1160-8-40-20z"/><path d="m1248 0-32-16z"/><path d="m1260 192 32 96h-44-48-128-12l16-96z"/><path d="m1160 64h88 12l32 64-32 64h-184l-16-48 8-80z"/><path d="m1292 288-32-96z"/><path d="m1260 192 32-64-2.4999 5z"/><path d="m1076 192-16-48z"/><path d="m1068 64-8 80z"/><path d="m1200 312 48-24z"/><path d="m1160 296 40-5.7143v21.7143z"/><path d="m1200 290.2857v-2.2857h48l-48 24z"/><path d="m1200 288v2.2857l-40 5.7143-56 8-32-16z"/><path d="m1160 296 40 16z"/><path d="m1104 304 56-8z"/><path d="m1104 304-32-16z"/><path d="m-384 1344h-192z"/><path d="m928-432v32-32-32z"/><path d="m672-432v-16-32z"/><path d="m672-480v-16z"/><path d="m708.8-400h43.2-80z"/><path d="m880-544h-48z"/><path d="m704-408 4.8 8h43.2l-56-32-9.7391-5.5652z"/><path d="m696-432 56 32h-43.2l-4.8-8-17.7391-29.5652z"/><path d="m685.7143-459.4286-5.7143 11.4286 6.2609 10.4348 9.7391 5.5652z"/><path d="m680-448 5.7143-11.4286 10.2857 27.4286-9.7391-5.5652z"/><path d="m752-432 33.1035 2.7586-1.1035-2.7586z"/><path d="m752-432h32l1.1035 2.7586z"/><path d="m820-472-1.9575 11.7447.8666-.1083 1.0909-7.6364 4-28z"/><path d="m820-472 4-24-4 28-1.0909 7.6364-.8666.1083z"/><path d="m812-432-.4138.1379-11.5862 31.8621z"/><path d="m811.5862-431.8621.4138-.1379-12 32z"/><path d="m820-472-1.9575 11.7447-2.0425.2553-4.8421-14.5263z"/><path d="m811.1579-474.5263 4.8421 14.5263 2.0425-.2553 1.9575-11.7447z"/><path d="m816-460 4 12-4 4-16 16-14.8965-1.2414-1.1035-2.7586-7.1111-17.7778 7.1111-14.2222 8-16 19.1579 5.4737z"/><path d="m816-444 4-4-4-12-4.8421-14.5263-19.1579-5.4737-8 16-7.1111 14.2222 7.1111 17.7778 1.1035 2.7586 14.8965 1.2414z"/><path d="m820-448 4 12-12.4138 4.1379 4.4138-12.1379z"/><path d="m820-448-4 4-4.4138 12.1379 12.4138-4.1379z"/><path d="m768-472 16 8-7.1111 14.2222z"/><path d="m776.8889-449.7778 7.1111-14.2222-16-8z"/><path d="m708.8-400h-36.8l32-8z"/><path d="m704-408-32 8h36.8z"/><path d="m680-448-8 16v-48-16l13.7143 36.5714z"/><path d="m672-480v48l8-16 5.7143-11.4286-13.7143-36.5714z"/><path d="m928-496-48-48h-48z"/><path d="m928-496-96-48h48z"/><path d="m928-432-8-8 8 40z"/><path d="m928-400-8-40 8 8z"/><path d="m848-464-29.0909 3.6364 1.0909-7.6364z"/><path d="m848-464-28-4-1.0909 7.6364z"/><path d="m912-448 16-16v32z"/><path d="m928-464-16 16 16 16z"/><path d="m880-544 48 48z"/><path d="m928-496-16-8-80-40z"/><path d="m920-440-8-8z"/><path d="m912-448 16-16z"/><path d="m928-400-8-40z"/><path d="m696-432 56 32z"/><path d="m784-432-16-40z"/><path d="m784-464 8-16z"/><path d="m818.9091-460.3636 29.0909-3.6364-32 4z"/><path d="m820-472 4-24z"/><path d="m824-496-4 28z"/><path d="m820-448-4-12 8 24z"/><path d="m816-444-16 16z"/><path d="m812-432-12 32z"/><path d="m800-428-14.8973-1.2415.0008.0001z"/><path d="m672-400 32-8z"/><path d="m686.2609-437.5652-6.2609-10.4348 9.6 16 14.4 24z"/><path d="m685.7143-459.4286 10.2857 27.4286-10.2857-27.4286-13.7143-36.5714z"/><path d="m848-464-28-4z"/><path d="m811.1579-474.5263 8.8421 2.5263-8.8421-2.5263-19.1579-5.4737z"/><path d="m811.5862-431.8621 4.4138-12.1379-4.4138 12.1379-11.5862 31.8621z"/><path d="m784-432h-32z"/><path d="m785.1035-429.2414-33.1035-2.7586 33.1028 2.7585z"/><path d="m672-432 8-16z"/><path d="m256 192v-96z"/><path d="m256 192v64z"/><path d="m256-192v96z"/><path d="m256-192v-64 4.5714z"/><path d="m128-320h-96z"/><path d="m187.4286-320h-59.4286z"/><path d="m-256-320h-64 4.5714z"/><path d="m-160-320h-96z"/><path d="m256-251.4286v-4.5714l-64-64h-4.5714z"/><path d="m-384-192v-59.4286z"/><path d="m-384-192v96z"/><path d="m-384 96v96z"/><path d="m-384 192v64z"/><path d="m128 320h-96z"/><path d="m128 320h64z"/><path d="m-256 320h96z"/><path d="m-160 288v32h-96-64l-64-64v-64-96h32 192z"/><path d="m-384 192v64l64 64h64 96v-32-192h-192-32z"/><path d="m224 96h32v96 64l-64 64h-64-96v-32-192z"/><path d="m128 320h64l64-64v-64-96h-32-192v192 32z"/><path d="m-352-96h192v-192-32h-96-59.4286l-68.5714 68.5714v59.4286 96z"/><path d="m-315.4286-320h59.4286 96v32 192h-192-32v-96-59.4286z"/><path d="m32-288v192h192 32v-96-59.4286l-68.5714-68.5714h-59.4286-96z"/><path d="m256-192v96h-32-192v-192-32h96 59.4286l68.5714 68.5714z"/><path d="m32-96v-192z"/><path d="m32-288v-32z"/><path d="m32 288v-192z"/><path d="m32 320v-32z"/><path d="m224-96h-192z"/><path d="m256-96h-32z"/><path d="m224 96h32z"/><path d="m-160-96h-192z"/><path d="m-352-96h-32z"/><path d="m-160-320v32z"/><path d="m-160-288v192z"/><path d="m-384 96h32z"/><path d="m-352 96h192z"/><path d="m-160 96v192z"/><path d="m-160 288v32z"/><path d="m224 96h-192z"/><path d="m192 320 64-64z"/><path d="m-315.4286-320h-4.5714l-64 64v4.5714z"/><path d="m-384 256 64 64z"/><path d="m-640 992h-32-192z"/><path d="m-608 768v96 128-32-24-24z"/><path d="m-608 768v-96l32-32v96 128h-32z"/><path d="m-608 672h-120l-16-32h136z"/><path d="m-728 672h-48l32-32z"/><path d="m-680 832-16 48z"/><path d="m-864 808v152 32z"/><path d="m-728 672-136 136v-48l24-24 64-64z"/><path d="m-728 672-64 64-72 72z"/><path d="m-736 872v-40h56l-16 48z"/><path d="m-736 872-32 8-16-48h48z"/><path d="m-736 768 8 4.8 32 19.2z"/><path d="m-864 808-32-16 32-32z"/><path d="m-640 992h32l32 32h-32-32-32v-32z"/><path d="m-864 992-32 32v-32z"/><path d="m-576 1152h192z"/><path d="m-384 1344h-192v-192h192z"/><path d="m-512 1280h64v-64h-64z"/><path d="m-448 1216v64z"/><path d="m-448 1280h-64z"/><path d="m-512 1280v-64z"/><path d="m-512 1216h64z"/><path d="m1160 288v-224-72l40-5.7143 16-2.2857 32 16v64 128 96l-48 24-40-16z"/><path d="m1248 192v-128-64l-32-16-16 2.2857-40 5.7143v72 224 8l40 16 48-24z"/><path d="m1080-.5002 40-27.4998 40 20v72h-56-36-12v-48z"/><path d="m1068 64h36 56v-72l-40-20-40 27.4998-24 16.5002v48z"/><path d="m1289.5001 133-29.5001 59h-12v-128h12l32 64z"/><path d="m1260 64h-12v128h12l29.5001-59 2.4999-5z"/><path d="m1248 288v-96h12l32 96z"/><path d="m1260 192h-12v96h44z"/><path d="m1160 288v-224h-56v128 96z"/><path d="m1160 64v224h-56v-96-128z"/><path d="m1104 288h56v8l-56 8-32-16z"/><path d="m1104 304 56-8v-8h-56-32z"/><path d="m1104 504v8h24z"/><path d="m1104 512v-8l24 8z"/><path d="m1159.0986 469.7465 5.4728 13.682 11.4286-11.4285z"/><path d="m1164.5714 483.4285-5.4728-13.682 16.9014 2.2535z"/><path d="m1114 482-.2222-.2222-25.7778-25.7778 8 24z"/><path d="m1113.7778 481.7778.2222.2222-18-2-8-24z"/><path d="m1132 484 34.3256 3.814-7.227-18.0675-43.0986-5.7465-2.2222 17.7778.2222.2222z"/><path d="m1166.3256 487.814-34.3256-3.814-18-2-.2222-.2222 2.2222-17.7778 43.0986 5.7465z"/><path d="m1221.1589 493.9066-6.1759-.6863-18.983 22.7797 7.4576 10.4407 8.5424-2.4407z"/><path d="m1214.983 493.2203 6.1759.6863-9.1589 30.0934-8.5424 2.4407-7.4576-10.4407z"/><path d="m1173.2683 505.1707-6.9427-17.3567-34.3256-3.814-4 28h29.3334z"/><path d="m1132 484 34.3256 3.814 6.9427 17.3567-15.9349 6.8293h-29.3334z"/><path d="m1176 512-2.7317-6.8293-15.9349 6.8293-37.3334 16z"/><path d="m1157.3334 512 15.9349-6.8293 2.7317 6.8293-56 16z"/><path d="m1216 492 .3429 1.3714-1.3599-.1511z"/><path d="m1214.983 493.2203 1.3599.1511-.3429-1.3714z"/><path d="m1216 492-8-32 12.99-11.3664 6.9237 23.0786-6.7548 22.1944-4.816-.5352z"/><path d="m1227.9137 471.7122-6.9237-23.0786-12.99 11.3664 8 32 .3429 1.3714 4.816.5352z"/><path d="m1169.3333 478.6666 6.6667-6.6666 40-40 4.99 16.6336-44.99 39.3664z"/><path d="m1176 488 44.99-39.3664-4.99-16.6336-40 40-6.6667 6.6666z"/><path d="m1176 512-11.4286-28.5715 4.7619-4.7619 26.6667 37.3334 7.4576 10.4407-19.4576 5.5593z"/><path d="m1196 516-26.6667-37.3334-4.7619 4.7619 11.4286 28.5715 8 20 19.4576-5.5593z"/><path d="m1116 464-2.2222 17.7778-25.7778-25.7778-16-16z"/><path d="m1088 456 25.7778 25.7778 2.2222-17.7778-44-24z"/><path d="m1104 192v-128h-36l-8 80 16 48z"/><path d="m1104 64v128h-28l-16-48 8-80z"/><path d="m1076 192-16 96h12 32v-96z"/><path d="m1072 288h-12l16-96h28v96z"/><path d="m1104 504-16-48-16-16 8 56 12.4443 16h11.5557z"/><path d="m1092.4443 512-12.4443-16-8-56 16 16 16 48v8z"/><path d="m1104 512h24 29.3334l-37.3334 16-11.3334 4.8571-1.0974-1.4109-15.1249-19.4462z"/><path d="m1120 528 37.3334-16h-29.3334-24-11.5557l15.1249 19.4462 1.0974 1.4109z"/><path d="m1072 288h-12z"/><path d="m1248 64h12z"/><path d="m1216-16 32 16z"/><path d="m1260 192 32 96z"/><path d="m1292 128-2.4999 5z"/><path d="m1056 64v-48z"/><path d="m1160-8 40-5.7143z"/><path d="m1120-28 40 20z"/><path d="m1076 192-16-48 5.3845 16.1537z"/><path d="m1060 144 8-80z"/><path d="m1248 288-48 24z"/><path d="m1160 296-56 8z"/><path d="m1104 304-32-16z"/><path d="m1200 312-40-16z"/><path d="m1176 472 40-40z"/><path d="m1203.4576 526.4407 8.5424-2.4407-8.5424 2.4407-19.4576 5.5593z"/><path d="m1176 488 20 28z"/><path d="m1227.9137 471.7122v.0001l-15.9137 52.2877z"/><path d="m1208 460-32 28z"/><path d="m1176 512-56 16z"/><path d="m1184 532-8-20z"/><path d="m1104 504 24 8z"/><path d="m1114 482 18 2-36-4z"/><path d="m1096 480 8 24z"/><path d="m1128 512 4-28z"/><path d="m1248 288h44z"/><path d="m1072 288h-12z"/><path d="m1248 64v-64z"/><path d="m1080-.5002 40-27.4998-64 44z"/><path d="m1292 128-32-64z"/><path d="m1076 192-16 96z"/><path d="m1220.99 448.6336 6.9237 23.0786-6.9237-23.0786-4.99-16.6336z"/><path d="m1214.983 493.2203 1.017-1.2203-1.017 1.2203-18.983 22.7797z"/><path d="m1208 460 8 32z"/><path d="m1072 440 8 56z"/><path d="m1159.0986 469.7465 16.9014 2.2535-16.9014-2.2535-43.0986-5.7465z"/><path d="m1116 464-44-24z"/><path d="m1080 496 28.6666 36.8571z"/><path d="m1108.6666 532.8571 11.3334-4.8571z"/><path d="m-736 832h-48l16-48 32-16z"/><path d="m-736 832v-64l40 24 16 40z"/><path d="m1120-48h-32 72z"/><path d="m1216-16-16 2.2857v-10.2857z"/><path d="m1120-28v-20h40v40z"/><path d="m1120-28-40 27.4998-24 16.5002z"/><path d="m1120-28-40 27.4998z"/><path d="m1200-48h-40 56z"/><path d="m1200-48h16v32l-16-8z"/><path d="m1200-13.7143 16-2.2857z"/><path d="m1088-48h32v20l-64 44v-64z"/><path d="m960 373.3333v24.6667-14z"/><path d="m960-96v-48 16 64z"/><path d="m960-448v-32-32 176z"/><path d="m1056-48h32z"/><path d="m1216-336h-160-32 224z"/><path d="m1248-144v-160-32 224z"/><path d="m1216-304h-160v-32h160z"/><path d="m1056-304h-32v-32h32z"/><path d="m1248-304h-32v-32h32z"/><path d="m1216-288v-16h32v160h-32z"/><path d="m1088-288h-64v-16h32 160v16z"/><path d="m1088-144v-32-112h128v144 32h-128z"/><path d="m1248-112h-32v-32h32z"/><path d="m1088-112h-32v-32h32z"/><path d="m1088-144h-32v-32h32z"/><path d="m1056-144h-32v-32h32z"/><path d="m1056-176h-32v-112h64v112z"/><path d="m1024-144h32z"/><path d="m1056-144v32z"/><path d="m960-304h64v16 112h-64z"/><path d="m1024-304h-64z"/><path d="m960-176h64z"/><path d="m1216-112v64h-56-72v-64z"/><path d="m1216-112v64z"/><path d="m1088-48v-64z"/><path d="m1216 744h-56 40z"/><path d="m1292 288h20 .2999z"/><path d="m1292 288h-44z"/><path d="m1248 0v-48z"/><path d="m1248 0v64z"/><path d="m1248 0-32-16v-32h32z"/><path d="m1292 288-32-96h20l32 96z"/><path d="m1292 128-32-64z"/><path d="m1292 128-32 64 29.5001-59z"/><path d="m1260 192 32-64h20l-32 64z"/><path d="m1056 64h12z"/><path d="m1160-48h40v24 10.2857l-40 5.7143z"/><path d="m1066.6667 248 9.3333-56-16 96z"/><path d="m1060 144 16 48h-28l-16-48z"/><path d="m1060 288h-28l16-96 18.6667 56z"/><path d="m1060 144 5.3845 16.1537z"/><path d="m1024 512h40v64z"/><path d="m1048 640 16-64v128z"/><path d="m1064 576v-64h24v29.7143 10.2857 152h-24z"/><path d="m1160 744h-16l-16-40h48z"/><path d="m1108.6666 532.8572-20.6666 8.8571v-29.7143h4.4445z"/><path d="m1088 541.7143 20.6666-8.8571 11.3334-4.8572 56-16 8 20 8 20h-104z"/><path d="m1203.4576 526.4407 8.5424-2.4407-3.0731 10.0976z"/><path d="m1271 552h41l-32 24z"/><path d="m1221.7142 552h-29.7142l-8-20 19.4576-5.5593z"/><path d="m1192 552h29.7142 49.2858l9 24 24 64-8 64h-120-48-40v-152z"/><path d="m1240 512h72v40h-41-49.2858l-12.7873-17.9024 6.7253-22.0976z"/><path d="m992 336v96 46l-32-80v-24.6667-17.3333z"/><path d="m1064 432 8 8 8 56h-16z"/><path d="m1088 512h-24v-16h16l12.4445 16z"/><path d="m992 478v-46h72v64 16h-40-32z"/><path d="m1072 288 32 16v32h-57.7142l13.7142-48z"/><path d="m1200 312 48-24v43.2z"/><path d="m1216 432h-152-72v-96h54.2858 57.7142 112z"/><path d="m1248 336v20.7027 75.2973h-32v-96z"/><path d="m1312 432v-42.4324l32 16.4324v26l-32 80z"/><path d="m1215.6522 512 12.2615-40.2877 12.0863 40.2877z"/><path d="m1132 484-4 28-24-8-8-24z"/><path d="m1216 432-40 40-60-8-44-24-8-8z"/><path d="m1176 488 32-28 8 32-20 24z"/><path d="m1240 512-12.0863-40.2877-11.9137-39.7123h32 64v80z"/><path d="m1248 356.7027 22 11.2973 42 21.5676v42.4324h-64z"/><path d="m1248 336v-4.8-43.2h44l-22 80-22-11.2973z"/><path d="m1200 312 48 19.2v4.8h-32-112v-32l56-8z"/><path d="m1088 704h40-40-24z"/><path d="m1296 704h-21.3333-58.6667-40z"/><path d="m1312 512 32-80z"/><path d="m1296 704 8-64z"/><path d="m1312 552-32 24z"/><path d="m1053.3334 618.6667-5.3334 21.3333z"/><path d="m1048 640 16 64z"/><path d="m992 478v-14l-32-80v14z"/><path d="m1160 744 16-40h40l-16 40z"/><path d="m1227.9137 471.7123v-.0001l-6.9237-23.0786-4.99-16.6336z"/><path d="m1216 492-1.017 1.2203-18.983 22.7797z"/><path d="m1208 460 8 32z"/><path d="m1072 440 8 56z"/><path d="m1176 472-16.9014-2.2535-43.0986-5.7465z"/><path d="m1116 464-44-24z"/><path d="m1080 496 28.6666 36.8571v.0001z"/><path d="m1108.6666 532.8572v-.0001l11.3334-4.8571z"/><path d="m1216 744v24z"/><path d="m1144 744h16 56v24h-128v-24z"/><path d="m1216 768h-128z"/><path d="m-576 1344h192z"/><path d="m640-144v48 32z"/><path d="m640-64h64z"/><path d="m896-64h64z"/><path d="m640-144h32v16l-32 32z"/><path d="m672-144h-32v-32h32z"/><path d="m736-544h-16l-16-32h32z"/><path d="m672-496-32-16 64-64 16 32z"/><path d="m672-496v16h-32v-32z"/><path d="m704-408-32 8v-32l8-16z"/><path d="m672-304h-32v-32h32z"/><path d="m640-480h32v32h-32z"/><path d="m672-432v32 64h-32v-112h32z"/><path d="m768-576v32h-32v-32z"/><path d="m832-544h-1.1428-6.8572-56v-32h64z"/><path d="m784-432h-32v-48l16 8z"/><path d="m784-400 16-28 16-16-16 44z"/><path d="m752-432 33.1027 2.7585 14.8973 1.2415-16 28h-32l-56-32-1.8065-4.8172z"/><path d="m672-496 48-48 32 64v48l-57.8065-4.8172z"/><path d="m824-544h6.8572l-6.8572 48-4 24-28-8z"/><path d="m720-544h16 32 56l-32 64-8 16-16-8-16-8z"/><path d="m864-64h-32-64-64-64v-32h224z"/><path d="m960-96v32h-64-32v-32z"/><path d="m896-128h-32-192v-16-32h192 32z"/><path d="m928-176v32 16h-32v-48z"/><path d="m960-144h-32v-32h32z"/><path d="m864-96h-224l32-32h192z"/><path d="m896-128h32l32 32h-96v-32z"/><path d="m928-128v-16h32v48z"/><path d="m960-480h-32v-16l32-16z"/><path d="m880-544 16-32 64 64-32 16z"/><path d="m912-465.3333v-6.6667-32l16 8v16 16l-16 16z"/><path d="m848-464 64-8v6.6667l-88 29.3333-8-24z"/><path d="m896-304h-32-192v-32-64h80 32 16 96z"/><path d="m912-400h16v64 32h-32v-96z"/><path d="m960-304h-32v-32h32z"/><path d="m864-544h-32v-32h32z"/><path d="m960-448h-32v-16-16h32z"/><path d="m864-176h-192-32v-128h32 192z"/><path d="m896-304h32 32v128h-32-32-32v-128z"/><path d="m928-400v-48h32v112h-32z"/><path d="m864-576h32l-16 32h-16z"/><path d="m928-400h-16v-48l8 8z"/><path d="m824-436 88-29.3333v17.3333 48h-16-96l12-32z"/><path d="m832-544 80 40v32l-64 8-28-4 4-28 6.8572-48z"/><path d="m896-576 64 64z"/><path d="m928-448v48-32-32z"/><path d="m864-544h16-48z"/><path d="m680-448 6.2609 10.4348 17.7391 29.5652z"/><path d="m694.1935-436.8172 1.8065 4.8172-10.2857-27.4286-13.7143-36.5714z"/><path d="m848-464-28-4z"/><path d="m820-472-8.8421-2.5263-19.1579-5.4737z"/><path d="m824-436-12 4z"/><path d="m816-444-4.4138 12.1379-11.5862 31.8621z"/><path d="m768-472 16 8z"/><path d="m784-432h-32z"/><path d="m785.1027-429.2415-33.1027-2.7585 33.1035 2.7586z"/><path d="m672-432 8-16z"/><path d="m832 0h-64v-64h64z"/><path d="m768 0h64z"/><path d="m-160-384h32z"/><path d="m32-736v-32 160z"/><path d="m-128-736h-32v-32h32z"/><path d="m32-736h-32v-32h32z"/><path d="m-128-736h128v128h-128-32v-128z"/><path d="m0-736h-128v-32h128z"/><path d="m0-608v-128h32v128 96h-32z"/><path d="m32-512v96h-32v-96z"/><path d="m-160-736v128h-128v-128-32h128z"/><path d="m-288-608h-32v-128h32z"/><path d="m-288-736h-32v-32h32z"/><path d="m32-384h-32v-32h32z"/><path d="m0-608v96 96 32h-128v-32-160-32z"/><path d="m-128-576h-32v-32h32z"/><path d="m-128-384h-32v-32h32z"/><path d="m-128-416h-32v-160h32z"/><path d="m-288-576h-32v-32h32z"/><path d="m-160-576h-128v-32h128z"/><path d="m-160-768h32z"/><path d="m-160-768h-128z"/><path d="m-320-768h32z"/><path d="m-160-576v160 32z"/><path d="m256 96v-32z"/><path d="m320-96v32z"/><path d="m544-336h-224z"/><path d="m352 96h160-192z"/><path d="m576-144v-32z"/><path d="m640-176h-64v-128h64z"/><path d="m576-176h64z"/><path d="m640-304h-64z"/><path d="m352 96h-32v-32h32z"/><path d="m480 64 32 32h-160v-32z"/><path d="m352-80v-16-208h128v128 96z"/><path d="m480 48v16h-128v-128-16h128z"/><path d="m480 48v-128-96l32 32v192z"/><path d="m480 64v-16h32v48z"/><path d="m352-80v16h-32v-32h32z"/><path d="m352 64h-32v-128h32z"/><path d="m544-304h32v128h-32-64v-128z"/><path d="m576-144h-32v-32h32z"/><path d="m544-176v32h-32l-32-32z"/><path d="m320-336 32 32v208h-32z"/><path d="m576-304h-32v-32h32z"/><path d="m544-336v32h-64-128l-32-32z"/><path d="m512 48v-192 240z"/><path d="m256 64v-128h64v128z"/><path d="m256 64h64z"/><path d="m256-64h64z"/><path d="m-1024 1024h-32z"/><path d="m-608 1024h-32z"/><path d="m-608 1024h32z"/><path d="m32-320h96z"/><path d="m0-320h-128v-64h128z"/><path d="m0-320v-64z"/><path d="m-128-384v64z"/><path d="m-896 512h128z"/><path d="m-352 512h-224z"/><path d="m-160 512h-32-32z"/><path d="m96 512h-32-32z"/><path d="m-160 320h-96z"/><path d="m256-64h-32v-32h32z"/><path d="m-160 64h-192-32v-128h32 192z"/><path d="m64 64h-32-32-128-32v-128h32 128 32 32z"/><path d="m224-64h32v128h-32-160v-128z"/><path d="m32-96h192v32h-160-32z"/><path d="m-128-288h-32v-32h32z"/><path d="m-128-288v-32h128v32 192h-128z"/><path d="m0-96v32h-128v-32z"/><path d="m32-288v192h-32v-192z"/><path d="m-160-96v-192h32v192z"/><path d="m32-288h-32v-32h32z"/><path d="m32-64h-32v-32h32z"/><path d="m-160-96v32h-192v-32z"/><path d="m-128-64h-32v-32h32z"/><path d="m-352-64h-32v-32h32z"/><path d="m64 64h160v32h-192v-32z"/><path d="m256 96h-32v-32h32z"/><path d="m-128 96h-32v-32h32z"/><path d="m-160 288v-192h32v192z"/><path d="m32 320h-32v-32h32z"/><path d="m-128 320h-32v-32h32z"/><path d="m-128 288v-192-32h128v32 192z"/><path d="m0 320h-128v-32h128z"/><path d="m32 96v192h-32v-192z"/><path d="m32 96h-32v-32h32z"/><path d="m-352 96h-32v-32h32z"/><path d="m-160 96h-192v-32h192z"/><path d="m224 96h-192z"/><path d="m0 384h-128v-64h128z"/><path d="m0 384v-64z"/><path d="m-128 320v64z"/><path d="m-128 416v-32h128v32 96h-128z"/><path d="m-128 416h-32v-32h32z"/><path d="m32 416h-32v-32h32z"/><path d="m0 416h32v96h-32z"/><path d="m-160 512v-96h32v96z"/><path d="m-160 416v96-128z"/><path d="m-672-96h-32-32-32z"/><path d="m-448 64v-128h64v128z"/><path d="m-448 64h64z"/><path d="m-384-64h-64z"/><path d="m-768 224v160 32 32z"/><path d="m-768 0v160 64z"/><path d="m-448-64h-32v-32h32z"/><path d="m-672-96h192v32h-32-192v-32z"/><path d="m-704-64h-32v-32h32z"/><path d="m-512 64h-64-32-128v-128h32 192z"/><path d="m-480-64h32v128h-32-32v-128z"/><path d="m-768 0v-64h32v128 96h-32z"/><path d="m-736 160v128 96h-32v-160-64z"/><path d="m-736 384v32h-32v-32z"/><path d="m-736-64h-32v-32h32z"/><path d="m-512 64h32v32h-96v-32z"/><path d="m-448 96h-32v-32h32z"/><path d="m-608 64v32 192h-128v-128-96z"/><path d="m-608 288v32 96 32h-128v-32-32-96z"/><path d="m-608 320v-32-192h32v128 96z"/><path d="m-576 416h-32v-96h32z"/><path d="m-576 96h-32v-32h32z"/><path d="m-576 448h-32v-32h32z"/><path d="m-736 448h-32v-32h32z"/><path d="m-480 96h32-128z"/><path d="m-576 96v128z"/><path d="m-736 448h128v64h-8-56-64z"/><path d="m-736 448v64z"/><path d="m-608 512v-64z"/><path d="m-352 736v-32 64z"/><path d="m96 672v-128h64v128z"/><path d="m160 672v-128h32v128z"/><path d="m160 544h-64z"/><path d="m192 544h-32z"/><path d="m96 672h64z"/><path d="m64 704h32-96z"/><path d="m-160 512h32v32z"/><path d="m32 512-32 32v-32z"/><path d="m0 512v32h-128v-32z"/><path d="m96 544h-32v-32h32z"/><path d="m0 544 32-32h32v32z"/><path d="m0 672h-160-32-32v-128h32 64 128z"/><path d="m64 544h32v128h-32-64v-128z"/><path d="m-192 544h-32v-32h32z"/><path d="m-192 544v-32h32l32 32z"/><path d="m96 704h-32v-32h32z"/><path d="m-192 704h-32v-32h32z"/><path d="m-160 672h160 64v32h-64-160z"/><path d="m-192 704v-32h32v32z"/><path d="m-352 512h64v32 128h-64z"/><path d="m-224 672h-64v-128h64z"/><path d="m-320 704h-32v-32h64v32z"/><path d="m-224 672h-64z"/><path d="m-224 544h-64z"/><path d="m-352 832h32z"/><path d="m-320 832h-32v-64h32z"/><path d="m-320 960h-32v-64h32z"/><path d="m-352 960h32z"/><path d="m-576 640v-128h224v160 32 32h-224z"/><path d="m-352 736v32 64 64 64h-224v-96-128z"/><path d="m-352 960v64h-32-192v-32-32z"/><path d="m-672 568-72 72-32 32-64 64h-56v-224h128 32 64z"/><path d="m-840 736-24 24-32 32v-56z"/><path d="m-616 512-56 56v-56z"/><path d="m-672 568 56-56h8 32v128h-32-136z"/><path d="m-1024 672v-24l128-136v224h-128z"/><path d="m-896 736v56 104h-128v-160z"/><path d="m-896 912v32h-128v-32z"/><path d="m-1024 896h128v16h-128-32v-16z"/><path d="m-1024 944h128v48 32h-128-32v-64-16z"/><path d="m-1024 944h-32v-32h32z"/><path d="m-1024 672v64 160z"/><path d="m-896 512-128 136z"/><path d="m-576 640-32 32v-32z"/><path d="m-576 864v96 32h-32v-128z"/><path d="m-896 944v-32-16-104l32 16v184h-32z"/><path d="m-576 992v32l-32-32z"/><path d="m-672 1024h-192-32l32-32h192z"/><path d="m-576 1088v-64z"/><path d="m-384 1088v-64z"/><path d="m-576 1024h192v64h-192z"/><path d="m-896 1024v64h-128v-64z"/><path d="m-896 1024v64z"/><path d="m-1024 1024v64z"/><path d="m-384 1152h32z"/><path d="m-576 1152h-32v-16h32z"/><path d="m-576 1136h-32v-32h32z"/><path d="m-576 1104h-32v-16h32z"/><path d="m-352 1104h-32v-16h32z"/><path d="m-352 1152h-32v-16h32z"/><path d="m-352 1136h-32v-32h32z"/><path d="m-384 1088v16 32 16h-192v-16-32-16z"/><path d="m-384 1344v-192z"/><path d="m-576 1152v192z"/><path d="m-896 1088v32h-128v-32z"/><path d="m-896 1088v32z"/><path d="m-1024 1120h128-64z"/><path d="m-448 1280v-64z"/><path d="m-512 1280h64z"/><path d="m-512 1216v64z"/><path d="m-448 1216h-64z"/><path d="m1056 64h-16 9.3334z"/><path d="m1056 64h12l-8 80h-28l8-80z"/><path d="m-288-800h128v32h-128z"/><path d="m-160-800v32z"/><path d="m-288-768v-32z"/><path d="m-160-800h-128z"/><path d="m960 384v32-48-12-28 8 20 17.3333z"/><path d="m1200 744h16z"/><path d="m1104 744h-16z"/><path d="m1104 744h-16 48 32 48-16-40-16z"/><path d="m1280 192 32-64z"/><path d="m1280 64 32 64h-20l-32-64z"/><path d="m1280 192 32-64z"/><path d="m1032 144 16 48z"/><path d="m1048 192h28l-9.3333 56z"/><path d="m1344 432v-26-42z"/><path d="m1216 704h58.6667-42.6667z"/><path d="m1312 512 32-80v16l-32 80z"/><path d="m1344 364-46.0912-23.6689.0912-.3311z"/><path d="m1298 340 14.2999-52h-.2999z"/><path d="m1344 364-46-24z"/><path d="m1298 340 14-52z"/><path d="m1297.9088 340.3311 46.0912 23.6689v42l-32-16.4324-42-21.5676z"/><path d="m1297.9088 340.3311-27.9088 27.6689 22-80h20.2999z"/><path d="m1296 704 8-64h-8l-8 64z"/><path d="m1280 576h-8l1.7561 4.6828z"/><path d="m1280 576-6.2439 4.6828 22.2439 59.3172h8z"/><path d="m1280 576 24 64z"/><path d="m1024 512h-32z"/><path d="m1024 316 22.2858 20h-54.2858v-20z"/><path d="m1032 288h28l-13.7142 48-22.2858-20z"/><path d="m1024 316 2.2856-8 5.7144-20z"/><path d="m1024 316v-.3226l.0896.0087z"/><path d="m1024 512 40 64z"/><path d="m1048 640 16 64h-21.3334-10.6666l-16-64z"/><path d="m1064 576-10.6666 42.6667-5.3334 21.3333z"/><path d="m960 336 32-20v20l-32 20z"/><path d="m992 316-32 20v-8l32-20z"/><path d="m960 384 32 80v32l-32-80z"/><path d="m1104 744-16-40h40l16 40z"/><path d="m1088 704 16 40h-16l-16-40z"/><path d="m1216 704h16l-16 40h-16z"/><path d="m-160-832v32z"/><path d="m-288-800v-32z"/><path d="m-160-832h-128z"/><path d="m-288-832h128v32h-128z"/><path d="m1024.0896 315.6861-.0896-.0087v-7.6774h2 .2856z"/><path d="m1088 744h16 40z"/><path d="m1032 288-8 28z"/><path d="m-160-864v32z"/><path d="m-128-832v-128z"/><path d="m-128-832v64z"/><path d="m-288-832v-32z"/><path d="m-160-864h-128z"/><path d="m-288-864h128v32h-128z"/><path d="m1280 64h-20z"/><path d="m-160-896v32z"/><path d="m-288-864v-32z"/><path d="m-160-896h-128z"/><path d="m-288-896h128v32h-128z"/><path d="m-160-928v32z"/><path d="m-288-896v-32z"/><path d="m-160-928h-128z"/><path d="m-288-928h128v32h-128z"/><path d="m1307.7274 552h4.2726-8z"/><path d="m1248-48h-32z"/><path d="m1216 744h-48z"/><path d="m1088 744h16 40 16 40 16-48-32z"/><path d="m1072 704h-29.3334 21.3334 24z"/><path d="m1232 704h42.6667 21.3333-8-40-64z"/><path d="m1088 744h48l-16-40h-48z"/><path d="m1216 744 16-40h-48l-16 40z"/><path d="m1088 744v24z"/><path d="m-896 1088h-64-64z"/><path d="m-160-960h-128z"/><path d="m-160-960v32z"/><path d="m-288-928v-32z"/><path d="m-288-960h128v32h-128z"/><path d="m-896 1024h32-80-16z"/><path d="m-224 544v-32z"/><path d="m96 544v-32 80 16z"/><path d="m160 544v64 64z"/><path d="m192 544v64 64z"/><path d="m192 544h-32v64h32z"/><path d="m160 544h-64v64h64z"/><path d="m-224 544h-64v64h64z"/><path d="m-576 1024v64h64v-64z"/><path d="m-896 1088v-64h-64v64z"/><path d="m-896 1120v-32h-64v32z"/><path d="m-608 1088h32z"/><path d="m-320-960h32z"/><path d="m-160-992v32z"/><path d="m-160-992h-128z"/><path d="m-288-992h128v32h-128z"/><path d="m-128-960v128 64h-32v-32-32-32-32-32-32z"/><path d="m-320-960h32v32 32 32 32 32 32h-32z"/><path d="m-864 1024h-80z"/><path d="m-864 1024h-32z"/><path d="m32 512v-96-32z"/><path d="m96 512v32z"/><path d="m-288 512v32z"/><path d="m1312 128-32-64z"/><path d="m1312 552v-40 16z"/><path d="m960-176v32z"/><path d="m960-128v-16z"/><path d="m960-512v176z"/><path d="m960-304v-32 48 16z"/><path d="m960-304v-32z"/><path d="m1216-112h32z"/><path d="m1088-112h32-16-48z"/><path d="m1088-112h-32z"/><path d="m1024-176v32z"/><path d="m1024-304v-32z"/><path d="m1024-304h-64v32h64z"/><path d="m1040 64-8 80z"/><path d="m1312 288-32-96z"/><path d="m1280 192 32-64h-42.6667-21.3333l-32 64z"/><path d="m1280 192h-64l25.6 76.7999z"/><path d="m1048 192-16 96z"/><path d="m1048 192-16 96z"/><path d="m992 308-32 20v28l32-20z"/><path d="m992 496v16-64z"/><path d="m992 512v-16-32 14z"/><path d="m1312 552h-48 40z"/><path d="m1344 448v-16l-32 80v16z"/><path d="m1298 340 14-52h-64l-15.5601 57.7948z"/><path d="m1298 340 46 24z"/><path d="m1298 340-65.5601 5.7948 111.5601 58.2052v-40z"/><path d="m1273.7561 580.6828-1.7561-4.6828h-40l24 64h40z"/><path d="m1304 552-32 24 35.7274-24z"/><path d="m1272 576h8l32-24h-4.2726z"/><path d="m1026.2856 308h-.2856l6-20z"/><path d="m992 308h32v7.6774.3226h-32z"/><path d="m1032 576 9.1428-36.5714 22.8572 36.5714z"/><path d="m1032 576h32l-16 64h-32z"/><path d="m1032 576-40-64h32l17.1428 27.4286z"/><path d="m960 416 32 80v-48l-32-80z"/><path d="m-576 1344h192z"/><path d="m-352 1088h-32z"/><path d="m-160-1024v32z"/><path d="m-160-992v-32h32v64h-32z"/><path d="m-288-992v-32z"/><path d="m-160-1024h-128z"/><path d="m-288-1024h128v32h-128z"/><path d="m640-176v32z"/><path d="m640-336v-16-160 32 32z"/><path d="m640-336v32z"/><path d="m640-352v16z"/><path d="m896-64h-64 32z"/><path d="m896-576h-32-32-64-32-32z"/><path d="m704-576-64 64z"/><path d="m768 0v-64z"/><path d="m832 0v-64z"/><path d="m0-384h32-48-16z"/><path d="m256 64v-32 16 48z"/><path d="m256-64v-32z"/><path d="m576-304v-32z"/><path d="m576-304v-32 48 16z"/><path d="m640-304h-64v32h64z"/><path d="m576-176h64v-32h-64z"/><path d="m256 64h64v-32h-64z"/><path d="m-608 1024h-32z"/><path d="m-640 1024h-224 192z"/><path d="m-128-320h-32z"/><path d="m-128-320h-32 48 16z"/><path d="m0-320h32z"/><path d="m0-320h-32 16 48z"/><path d="m-896 512h128z"/><path d="m-768 512h32z"/><path d="m-608 512h32z"/><path d="m-288 512h-64z"/><path d="m-352 512h-224 7.5294z"/><path d="m-384-64v-32z"/><path d="m-384 64v32z"/><path d="m-128 320h-32z"/><path d="m0 384h32z"/><path d="m-160 384h32z"/><path d="m0 384v-64h-32v64z"/><path d="m-128 320v64h32v-64z"/><path d="m-608 448h32z"/><path d="m-736 448h-32z"/><path d="m-448-64v-32z"/><path d="m-448 64v-32 16 48z"/><path d="m-448 64v32z"/><path d="m-384-64h-64v32h64z"/><path d="m-608 512v-64h-32v64z"/><path d="m-736 448v64h32v-64z"/><path d="m-224 704v-32z"/><path d="m96 704v-32z"/><path d="m0 704h-224 32 32z"/><path d="m32 512v80z"/><path d="m-288 512v80z"/><path d="m-1024 672v224-192z"/><path d="m-1024 648v24z"/><path d="m-1024 648 7.5294-8 120.4706-128z"/><path d="m-1024 896h-32z"/><path d="m-608 1152v-64 16 32z"/><path d="m-608 1152h32z"/><path d="m-384 1152h32z"/><path d="m-352 1152v-16-32-16z"/><path d="m-384 1344v-192z"/><path d="m-576 1152v192z"/><path d="m960-144v-48 128-64z"/><path d="m960-336v48z"/><path d="m1248-336-48 48v176h48z"/><path d="m1248-336h-224v48h176z"/><path d="m1248 64h21.3334 10.6666-20z"/><path d="m1248 64v-64-48z"/><path d="m1248 64v-112h-48v112z"/><path d="m1269.3334 64-16.0001 32 16 32h42.6667l-32-64z"/><path d="m1248 64h-48v16 16z"/><path d="m1056-48v64 48z"/><path d="m1056 64h-6.6666l6.6666 8.6021z"/><path d="m1056 64 48 32v-16-16z"/><path d="m-512-1216h160z"/><path d="m-128-1024v-192z"/><path d="m-288-1184h-64-128l-32-32h160 64z"/><path d="m-128-1216-32 32h-128v-32z"/><path d="m-128-1024h-32v-160l32-32z"/><path d="m-288-1024h-64v-160h64 128v160z"/><path d="m-512-1024v-192l32 32v192h-32z"/><path d="m-480-992v32h-32v-32z"/><path d="m-480-992v-192h128v160 64h-128z"/><path d="m-288-1024v32 32z"/><path d="m-288-1024h-64z"/><path d="m-352-960v-64z"/><path d="m-288-960v-32z"/><path d="m640-336v32 32-16z"/><path d="m32-384h-32z"/><path d="m-320-960v192z"/><path d="m32-608v224-32-96z"/><path d="m32-768-48 48v48 64h48z"/><path d="m32-768h-32-128z"/><path d="m-320-576h32 128z"/><path d="m-160-576v192h48v-64-128z"/><path d="m-480-960v192h-32v-64-128z"/><path d="m-352-960v192 32h-128v-32-192z"/><path d="m-352-960h32v192h-32z"/><path d="m-352-736v-32z"/><path d="m-480-736h128z"/><path d="m320 96v-32z"/><path d="m320-112v-224 240z"/><path d="m576-336h-32z"/><path d="m320-336v224h48v-80-96z"/><path d="m320-112v16l48 48v-64z"/><path d="m544-336h-224l48 48h176z"/><path d="m576-336h-32v48h32z"/><path d="m576-144h-64 32z"/><path d="m512-144h64v-48h-112z"/><path d="m512-144-48-48v48z"/><path d="m512-144h-48v112 80l48 48z"/><path d="m-160-320h-96z"/><path d="m32 320h-32z"/><path d="m32 384v128z"/><path d="m-768 448h32 32-16z"/><path d="m-448-96h-32-192z"/><path d="m-768-96v32 64z"/><path d="m-672-96h-96l48 48h48z"/><path d="m-768 224v224h48v-48-176z"/><path d="m-768 0v224h48v-48-176z"/><path d="m-576 224v224-32-96z"/><path d="m960-208v16 48-32z"/><path d="m1184-48h16 48-32z"/><path d="m1120-48h-16 96-16z"/><path d="m1184-112h16-96 16z"/><path d="m1024-272h-64v64h64z"/><path d="m1024-208h-64v32h64z"/><path d="m1120-112v64h64v-64z"/><path d="m1184-112v64h32v-64z"/><path d="m1120-48v-64h-32v64z"/><path d="m-1024 1088h64 64z"/><path d="m640-208v16-96 16z"/><path d="m704-64h64z"/><path d="m704-64h-64z"/><path d="m704-64h64z"/><path d="m832-64h64z"/><path d="m832 0h-64z"/><path d="m768-64v64z"/><path d="m832 0v-64z"/><path d="m-96-384h-16-48 32z"/><path d="m-352-736v32z"/><path d="m-480-736v-32z"/><path d="m-352-704h-128z"/><path d="m-352-704h-128v-32h128z"/><path d="m256-32v-16 16 64 16-16z"/><path d="m320-32v-16-48 32z"/><path d="m576-208v16 48-32z"/><path d="m640-272h-64v64h64z"/><path d="m320-32h-64v64h64z"/><path d="m320-32v-32h-64v32z"/><path d="m-1024 1024h64 16-112z"/><path d="m-512 1024h-16-80 32z"/><path d="m-384 1024h32-32-144 16z"/><path d="m-32-320h-64-16 80 16z"/><path d="m-96-384v64h64v-64z"/><path d="m-32-384v64h32v-64z"/><path d="m-96-320v-64h-32v64z"/><path d="m-640 512h-64-16 96z"/><path d="m-640 512h16 48-32z"/><path d="m-384-32v-16-48 32z"/><path d="m-384 32v16-16-64-16 16z"/><path d="m-96 320h-16-48 32z"/><path d="m-32 384h-64-16 96z"/><path d="m-32 384h16 48-32z"/><path d="m-96 320v64h64v-64z"/><path d="m-384-32h-64v64h64z"/><path d="m-384 32h-64v32h64z"/><path d="m-704 448v64h64v-64z"/><path d="m-224 608v-16-80 32z"/><path d="m-224 608v64 32-96-16z"/><path d="m96 672h64v-64h-64z"/><path d="m160 672h32v-64h-32z"/><path d="m192 672h-32z"/><path d="m160 672v-64-64z"/><path d="m-288 672v32z"/><path d="m-288 608v64h64v-64z"/><path d="m-512 1024v64h128v-64z"/><path d="m-960 1024h-64v64h64z"/><path d="m-576 1152h32v-64h-64v64z"/><path d="m-1024 1088v32h64v-32z"/><path d="m-1024 1120v-32z"/><path d="m960 744v-40z"/><path d="m1136 744h-48z"/><path d="m960 744h72z"/><path d="m1344 704v4.5715z"/><path d="m1120 704h-88 10.6666 29.3334z"/><path d="m1344 704h-32z"/><path d="m1032 704-16-64z"/><path d="m1140.2646 678.9412-.1267.5071 5.7931-23.1724.069-.2759z"/><path d="m1184 704h64l1.1228-8.9825-108.9849-15.5692-6.1379 24.5517z"/><path d="m1249.1228 695.0175 2.9474-23.5789-36.0702-5.1529-70.069-10.0098-5.7931 23.1724z"/><path d="m1249.1228 695.0175 6.8772-55.0175-3.9298 31.4386z"/><path d="m1232 576 32-24z"/><path d="m1256 640-24-64z"/><path d="m1248 704h40l8-64h-40z"/><path d="m1232 576h40l32-24h-40z"/><path d="m1138.8267 679.261 6.3908-23.0871-110.8993 24.6443-2.3182.5152v21.6666z"/><path d="m1138.8267 679.261 1.4379-.3198 5.7354-22.9412-.7825.1739z"/><path d="m1032 703v-21.6666 22.6666z"/><path d="m1120 704h14l6.1379-24.5517.1267-.5071-108.2646 24.0588v1z"/><path d="m1136 744h32l16-40h-50-14z"/><path d="m1312 704h32v4.5715z"/><path d="m1312 704 32 4.5715v-4.5715z"/><path d="m1032 744h-72v-40h72z"/><path d="m1216 768v-24h-48-32-48v24z"/><path d="m-288-960h-32-32z"/><path d="m-288-960h-64z"/><path d="m-288-1024v64z"/><path d="m-352-1024h64z"/><path d="m-352-960v-64z"/><path d="m-352-704v32z"/><path d="m-480-704v-32z"/><path d="m-352-672h-128z"/><path d="m-352-672h-128v-32h128z"/><path d="m960-192v-16-64-16z"/><path d="m960-336v-176 96 32 96z"/><path d="m1104-48h16-32-32z"/><path d="m1200-112h-16 32 32z"/><path d="m1024-192v-16 32 32z"/><path d="m1024-288v16 64 16z"/><path d="m1024-288v-48 32 32z"/><path d="m1104-192 96-96h-176v96z"/><path d="m1200-288-96 96v48 32h96z"/><path d="m1104-192h-80v48h32z"/><path d="m1104-144v-48l-48 48z"/><path d="m1104-112v-32h-48v32z"/><path d="m1200 96v-16z"/><path d="m1248 96h5.3333l16.0001-32h-21.3334l-48 32z"/><path d="m1253.3333 96h-5.3333v-10.6665z"/><path d="m1248 85.3335v10.6665z"/><path d="m1248 96h-48 32z"/><path d="m1200 64v-112h-96v112 16h96z"/><path d="m1104 96h-29.8667 18.6667z"/><path d="m1104 80v16z"/><path d="m1074.1333 96 16.5334 21.3333 2.1333-21.3333z"/><path d="m1104-48h-48v112h48z"/><path d="m1104 96-48-32v8.6021l18.1333 23.3979z"/><path d="m1074.1333 96-24.7999-32h-9.3334l-8 80h37.3334z"/><path d="m-576 1344h192-64-64z"/><path d="m-528 1088h16-64-32z"/><path d="m-352 1088h-32-128-16z"/><path d="m-544 1088h16-80z"/><path d="m-1056 960v64z"/><path d="m-1056 896v16 32 16z"/><path d="m640-64v-80z"/><path d="m640-144v-48z"/><path d="m640-192v-16 32 32z"/><path d="m640-512v160 16 48z"/><path d="m640-288v96 48 80-160z"/><path d="m704-64h64 64-192z"/><path d="m960-64h-64z"/><path d="m896-576h-192z"/><path d="m960-512-64-64z"/><path d="m704-576-64 64z"/><path d="m832-64v-32z"/><path d="m768 0h64v-64h-64z"/><path d="m-112-384h16 64 16z"/><path d="m-320-624v-16-32-96 32 128 32z"/><path d="m-320-640v-32z"/><path d="m-16-608v160 64h48v-224z"/><path d="m-128-768v-64 32z"/><path d="m-64-672-48 48v48 128h96v-160-64z"/><path d="m-16-720-48 48h48z"/><path d="m-128-640v16h16l48-48 48-48h-112z"/><path d="m-128-624v-16h-192v16z"/><path d="m-16-384v-64h-96v64z"/><path d="m-128-720v-48 80 48z"/><path d="m-128-640h-192z"/><path d="m-128-720h112l48-48h-160z"/><path d="m-128-768v48z"/><path d="m-112-624h-16-192v48h160z"/><path d="m-112-624-48 48h48z"/><path d="m-352-672v32z"/><path d="m-320-672v32 64 32h-32v-32-32-32-32-32-32-32h32z"/><path d="m-480-672v-32z"/><path d="m-352-640h-128z"/><path d="m-352-640h-128v-32h128z"/><path d="m-512-768v96z"/><path d="m-512-768v96 128-192z"/><path d="m-512-768v-64z"/><path d="m-512-672v-96h32v32 32 32 32 32 32 32h-32z"/><path d="m256 192v-96z"/><path d="m256-96v48z"/><path d="m256-192v-59.4286z"/><path d="m256-48v16-32-32z"/><path d="m256-32v64z"/><path d="m256-48v-48-96 32 128z"/><path d="m256 48v48z"/><path d="m256 192v-96-48-16 160 64z"/><path d="m320-32v-16 16 64 16z"/><path d="m320 48v-16 32 32z"/><path d="m576-192v-16-64-16z"/><path d="m320-48v16h64l-16-16z"/><path d="m464-32v-112-48h-96v80 64l16 16z"/><path d="m464 48v-80h-80-64v80z"/><path d="m464-192h112v-96h-32-176v96z"/><path d="m464 48h-144v48h192z"/><path d="m320-48h48l-48-48z"/><path d="m-640 1024h-192-32z"/><path d="m-528 1024h-80z"/><path d="m-352 1024h-32z"/><path d="m-32-320h-80-48-96 128z"/><path d="m-16-320h48z"/><path d="m-256-320h-59.4286z"/><path d="m-112-320h-48z"/><path d="m-832 960-64-64h-128-32v64z"/><path d="m-352 896v64h32v-64z"/><path d="m-384 960h32v-64l-64 64z"/><path d="m-832 960h-224v64h112 80 32z"/><path d="m-608 960h-224v64h192 32z"/><path d="m-384 960h-32-192v64h80 144z"/><path d="m-352 1024v-64h-32v64z"/><path d="m-352 768v64h32v-64z"/><path d="m-896 704 64-64h-184.4706l-7.5294 8v24 32z"/><path d="m-640 448v-64h-64v16 48z"/><path d="m-352 704v-64h-64z"/><path d="m0 592h-160-64v16h224z"/><path d="m96 608v-16h-64-32v16z"/><path d="m0 608h-224v96h224z"/><path d="m96 704v-96h-96v96z"/><path d="m-160 512v80h160 32v-80-128h-48-96-48z"/><path d="m-352 640v64h32 32v-112-80h-64z"/><path d="m-792.4706 512h-103.5294l-120.4706 128h184.4706 39.5294z"/><path d="m-568.4706 512h-7.5294-48-96-72.4706v128h184.4706 39.5294z"/><path d="m-416 640h64v-128h-216.4706v128z"/><path d="m-624 224v-128-48h-16v208 16h16z"/><path d="m-640 272v112 64h16v-176z"/><path d="m-704 32h64v-64h-64z"/><path d="m-640 48v-16h-64v144 80h64z"/><path d="m-704 256v128h64v-112-16z"/><path d="m-704 32v-64l-16-16v48 176h16z"/><path d="m-720 176v48 176h16v-16-128-80z"/><path d="m-720 400v48h16v-48z"/><path d="m-624 32v-64-16h-16v16 64 16h16z"/><path d="m-672-48h-48l16 16h64v-16z"/><path d="m-624-32v64h112v-64z"/><path d="m-512 32h-112v16h176v-16z"/><path d="m-512 32h64v-64h-64z"/><path d="m-624-48v16h112 64v-16z"/><path d="m192 320h-64z"/><path d="m-384-32v64z"/><path d="m-352 832v-64-64 32 160z"/><path d="m-1024 896h128z"/><path d="m-608 640h-184.4706-39.5294z"/><path d="m-416 960h-160-32z"/><path d="m-352 896-64 64z"/><path d="m-896 896 64 64z"/><path d="m256-192v-59.4286l-68.5714-68.5714h-59.4286z"/><path d="m-624 512h48z"/><path d="m-720 512h16-32-32z"/><path d="m-792.4706 512h72.4706-48-128z"/><path d="m-288 512h-64z"/><path d="m-384-192v96z"/><path d="m-384 48v-16 32 32z"/><path d="m-384 48v48z"/><path d="m-384-48v-48z"/><path d="m-384 256v-64z"/><path d="m-384 192v-96z"/><path d="m192 320h-64z"/><path d="m32 320h-48z"/><path d="m-16 320h-16 32 32z"/><path d="m-96 320h-16 16 64 16z"/><path d="m-112 320h-48z"/><path d="m-256 320h-64z"/><path d="m256 256-64 64z"/><path d="m-256-320h-59.4286l-68.5714 68.5714v59.4286z"/><path d="m-320 320-64-64z"/><path d="m-16 384h48z"/><path d="m-112 384h16-32-32z"/><path d="m-160 384h48z"/><path d="m-160 512v-128z"/><path d="m-640 448h-64-16 16 64 16z"/><path d="m-624 448h-16 32 32z"/><path d="m-448-32v64 16-16-64-16z"/><path d="m-448-48v16-32-32z"/><path d="m-640-48h16 176v-48h-224v48z"/><path d="m-720-48-48-48v96h48z"/><path d="m-624 48v48h48z"/><path d="m-448 48h-176l48 48h128z"/><path d="m-624 224v48 176h48v-224z"/><path d="m-624 96v128h48v-128z"/><path d="m-352 896v-64z"/><path d="m-352 960v64z"/><path d="m96 608v96-32-64-16z"/><path d="m0 704h-224z"/><path d="m96 704h-96z"/><path d="m-224 592h64v-80h-64z"/><path d="m32 592h64v-80h-64z"/><path d="m-160 592v-80z"/><path d="m-320 704h-32z"/><path d="m-288 704h-32z"/><path d="m-288 592v16-64-32z"/><path d="m-288 704v-32-64-16z"/><path d="m-320 768h-32z"/><path d="m-320 768v64z"/><path d="m-320 896h-32z"/><path d="m-320 896v64z"/><path d="m-1024 648v24z"/><path d="m-1024 896h-32z"/><path d="m-384 1152h32v-64h-176-16v64z"/><path d="m-544 1152h-32 192z"/><path d="m-576 1152h32z"/><path d="m-352 1088v64z"/><path d="m-384 1344v-192z"/><path d="m-576 1344v-192z"/><path d="m1248 96v32h21.3333l-16-32-5.3333-10.6665z"/><path d="m1248 96h-16l16 32z"/><path d="m832-96v32h64 64v-32z"/><path d="m-320-640v64z"/><path d="m-128-576h-192z"/><path d="m-128-640v-48 112z"/><path d="m-320-640h192v64h-192z"/><path d="m-352-640v32z"/><path d="m-480-640v-32z"/><path d="m-352-608h-128z"/><path d="m-352-608h-128v-32h128z"/><path d="m1200 192v-96-16h-96v16 96 96h32 64z"/><path d="m1248 128-16-32h-32v96h16z"/><path d="m1216 192h-16v96h48z"/><path d="m1232.4399 345.7948 15.5601-57.7948h-48-64l61.9575 185.8725z"/><path d="m1312 512 32-80v-28l-111.5601-58.2052-34.4824 128.0777 12.7091 38.1275z"/><path d="m1182 512h28.6666l-12.7091-38.1275-61.9575-185.8725h-32-16l-14.4 48-7.2 24-10.4 104v48z"/><path d="m1104 96h-11.2l-4.8 48 16 48z"/><path d="m1104 192-16 96h16z"/><path d="m1068.8 336h-12.8v128z"/><path d="m1032 512h19.2001 4.7999v-48-128h-64v112 64z"/><path d="m1066.4 360 7.2-24h-4.8z"/><path d="m960 356v12l32 80v-112z"/><path d="m1232 576-16-48v138.2857l36.0702 5.1529 3.2025-25.6204z"/><path d="m1264 552h48v-36z"/><path d="m1312 516v-4h-96v16l16 48z"/><path d="m1256 640-24-64 23.2727 69.8182z"/><path d="m1210.6666 512h-28.6666l-36 144-.069.2759 70.069 10.0098v-138.2857-16z"/><path d="m1145.2175 656.1739.7825-.1739 36-144h-126-4.7999l-12.8001 128-4.0818 40.8182z"/><path d="m1038.3099 640.9014.0901-.9014h-6.4v41.3334l2.3182-.5152z"/><path d="m1032 512v64 64h6.4l12.8001-128z"/><path d="m1032 704v-22.6666-41.3334-64l-16 64z"/><path d="m992 512 40 64v-64z"/><path d="m1032 744v-40h-72v40z"/><path d="m1104 192-16-48h-18.6666-37.3334l16 48z"/><path d="m1248 288h64l-32-96-38.4 76.7999z"/><path d="m1200 80h-96z"/><path d="m1088 144 2.6667-26.6667-16.5334-21.3333-4.7999 48z"/><path d="m1088 288 16-96h-56l-16 96z"/><path d="m1344 432v16-16-68 40z"/><path d="m1032 704h-72z"/><path d="m1312 512v4 36-24z"/><path d="m1056 336h12.8 4.8l-47.6-28h-2-32v28z"/><path d="m1073.6 336 14.4-48h-56l-6 20z"/><path d="m1016 640 16-64z"/><path d="m1032 576-40-64z"/><path d="m1032 704v40z"/><path d="m-352-608v32z"/><path d="m-480-608v-32z"/><path d="m-352-576h-128z"/><path d="m-352-576h-128v-32h128z"/><path d="m-400 1328 16 16v-192l-16 16z"/><path d="m-560 1168v160l48-48v-64z"/><path d="m-384 1344-16-16h-160l-16 16z"/><path d="m-576 1152 16 16h160l16-16z"/><path d="m-448 1280 48 48v-160l-48 48z"/><path d="m-400 1328-48-48h-64l-48 48z"/><path d="m-512 1216h64l48-48h-160z"/><path d="m-576 1344 16-16v-160l-16-16z"/><path d="m-384 1344v-192z"/><path d="m-576 1344v-192z"/><path d="m-320-576v32z"/><path d="m-352-544h-128z"/><path d="m-352-576v32z"/><path d="m-480-576v-32z"/><path d="m-352-544h-128v-32h128z"/><path d="m-560 1328v-160h160v160z"/><path d="m-400 1328h-160z"/><path d="m-400 1168v160z"/><path d="m-560 1328v-160z"/><path d="m-560 1168h160z"/><path d="m960-288v-96 64 128z"/><path d="m960-416v-96z"/><path d="m960-384v-32z"/><path d="m960-288v96 96 32-128z"/><path d="m960-64v-32 64z"/><path d="m-576 1344h64z"/><path d="m-512 1344h64z"/><path d="m-128-1216h-160z"/><path d="m-1152 784v32z"/><path d="m-1152 768v16z"/><path d="m-640 1088h-64-64-32z"/><path d="m-352 1088h32-64z"/><path d="m-512-1216v192z"/><path d="m-128-1024v64z"/><path d="m640-224v160 64z"/><path d="m640-384v64z"/><path d="m640-512v96z"/><path d="m640-416v32z"/><path d="m640-320v-64-32-96 224z"/><path d="m896-576h-192 96z"/><path d="m896-576h-192z"/><path d="m960-512-64-64z"/><path d="m704-576-64 64z"/><path d="m832-96v-32z"/><path d="m960-192v-128h-96-32v32 32 32 32 32 32 32h128z"/><path d="m832-96h128z"/><path d="m960-96v32h-96-32v-32z"/><path d="m640 0h224v192h-224z"/><path d="m864 0h96v192h-96z"/><path d="m864 0h-224v-64h192 32z"/><path d="m960-64v32 32h-96v-64z"/><path d="m960 192h-96z"/><path d="m-1024 896h128l64 64h-192z"/><path d="m-1056 864v-128h32v128z"/><path d="m-800 1088h-224v-128h192 32z"/><path d="m-576 1088h-64-160v-128h192 32z"/><path d="m-416 960v128h-160v-128z"/><path d="m-352 896v-160h32 64 64v128 96h-160z"/><path d="m-192 960v128h-128-32v-128z"/><path d="m-352 960v128h-32-32v-128l64-64z"/><path d="m-384 640h32v64l-64-64z"/><path d="m-320 736v-96-32h64v96 32z"/><path d="m-448 288v-160l64-64v192 32z"/><path d="m-384 320v192h-64v-160-64h64z"/><path d="m-384 320v-32-32l64 64z"/><path d="m-256 704h64v32h-64z"/><path d="m-256 608h64v32 64h-64z"/><path d="m-512 352v-32-64-128h64v160 64z"/><path d="m-448 512h-64v-64-96h64z"/><path d="m-352 704v-64h32v96h-32z"/><path d="m256 544v-64h64v128h-64z"/><path d="m-384 544v-32-192h64 160v224z"/><path d="m-160 608h-32-64-64-64v-64h224z"/><path d="m-160 544v-224h64 160v224z"/><path d="m64 608h-64-128-32v-64h224z"/><path d="m128 320h64 64v96 64 64h-192v-224z"/><path d="m256 544v64h-192v-64z"/><path d="m192 320 64-64v64z"/><path d="m-352-512h-128v-32h128z"/><path d="m-384-64-64-64h32 32z"/><path d="m-640-224v-32-64-64l64-64h64 96v224z"/><path d="m-416-128h-32-128l-64-64v-32h224z"/><path d="m-384-448v224h-32v-224z"/><path d="m-384-224v32 64h-32v-96z"/><path d="m-480-512h-32v-32h32z"/><path d="m-320-512h-32v-32h32z"/><path d="m-480-512h128 32v64h-64-32-96v-64z"/><path d="m-384-448h64v64 64 64l-32 32h-32z"/><path d="m-352-224-32 32v-32z"/><path d="m-256-320-64 64v-64z"/><path d="m256-192-128-128h128z"/><path d="m-256-448h64v64h-128v-64z"/><path d="m-128-320h-128-64v-64h128z"/><path d="m320-32v-32l16-16 8-8 72 56z"/><path d="m256 32v-64h64 96l32 24.8889v7.1111 32 128 32h-64-128z"/><path d="m320-96-64-64v-32h35.6923l54.7077 101.6-2.4 2.4-8 8z"/><path d="m336-80-16 16v-32z"/><path d="m256-160 64 64v32 32h-64z"/><path d="m448 32h64v128h-64z"/><path d="m512 160v-128-32h128v192h-128z"/><path d="m384 192h-128z"/><path d="m448 0v-7.1111-56.8889z"/><path d="m640 0h-128z"/><path d="m448 160h64z"/><path d="m512 32h-64z"/><path d="m256-320v128z"/><path d="m346.4-90.4-54.7077-101.6h-3.6923l57.5281 102.4719z"/><path d="m256 608h-192z"/><path d="m320 480h-64z"/><path d="m256 256v-64 64 64z"/><path d="m256 320v96z"/><path d="m320 480v64 64z"/><path d="m-192-448h-64z"/><path d="m-128-832v-128 160z"/><path d="m-512-736v192 32z"/><path d="m-128-576h-192z"/><path d="m-512-448v-64z"/><path d="m-320-512v64z"/><path d="m-640-384v64z"/><path d="m-640-320v64z"/><path d="m-192-384v-64z"/><path d="m64-320h-96-96 96z"/><path d="m-576-128h128z"/><path d="m0 608h-32-96z"/><path d="m-512 128v128z"/><path d="m-448 512h64-64-64z"/><path d="m-192 736v-32 64 64 32z"/><path d="m-608 640h-224 88z"/><path d="m-896 704h-128z"/><path d="m-1024 704v32z"/><path d="m-1024 864v32z"/><path d="m-480-544v-32z"/><path d="m-512-832v64z"/><path d="m-512-832v-128z"/><path d="m64-320h64-96-48-16z"/><path d="m-96 320h-64-160 64 96 48z"/><path d="m128 320h-64-160 80 48z"/><path d="m-384 64v-32 16 48 96 64z"/><path d="m-384-64v-64-64 96 48 16z"/><path d="m256-192-128-128z"/><path d="m-352-224 32-32 64-64-128 128z"/><path d="m-384 256 64 64z"/><path d="m192 320 64-64z"/><path d="m-1024 864v-128-32 192z"/><path d="m-1024 704h128z"/><path d="m-416 640h-152.4706-39.5294z"/><path d="m-896 704 64-64z"/><path d="m-352 704-64-64z"/><path d="m-608 960h-192-32z"/><path d="m-1056 736h-32z"/><path d="m-1088 864-64-32v-16-32-16l64-32h32v128z"/><path d="m-576 1152v-64h160 32v64z"/><path d="m-384 1152v-64z"/><path d="m-384 1344v-192z"/><path d="m-576 1152v192z"/><path d="m-384 1344h-192z"/><path d="m-576 1152h192z"/><path d="m-384 1344-16-16v-160l16-16z"/><path d="m-560 1328h160l16 16h-192z"/><path d="m-560 1168-16-16h192l-16 16z"/><path d="m-576 1152 16 16v160l-16 16z"/><path d="m346-90-2 2 2.4-2.4z"/><path d="m346-90 6-6 96 32v56.8889l-32-24.8889-72-56z"/><path d="m345.5281-89.5281 6.4719-6.4719-6 6z"/><path d="m832-128v-32z"/><path d="m832-128h128z"/><path d="m832-128h128v32h-128z"/><path d="m352-96v-96h96z"/><path d="m288-192h3.6923-35.6923 16z"/><path d="m288-192h64v96l-6.4719 6.4719z"/><path d="m960-128v32z"/><path d="m-288-1216h-64z"/><path d="m-352-1216h-160z"/><path d="m-512-1024v32 32z"/><path d="m-512-1024v-192z"/><path d="m-128-1024v-192z"/><path d="m-128-1024h-64z"/><path d="m-128-960v-64h-64v64z"/><path d="m832-160v-32z"/><path d="m832-160h128z"/><path d="m832-128v-32h128v32z"/><path d="m960-160v32z"/><path d="m832-192v-32z"/><path d="m832-192h128z"/><path d="m832-160v-32h128v32z"/><path d="m-1152 816h8v-32h-8z"/><path d="m-1144 816h-8z"/><path d="m-1144 784v32z"/><path d="m-1152 784h8z"/><path d="m960-224v32z"/><path d="m960-192v32z"/><path d="m-128-960h-64z"/><path d="m-288-1024v64z"/><path d="m-352-1024h64z"/><path d="m-352-960v-64z"/><path d="m864-384h-224v64h192 32z"/><path d="m960-320v-64h-96v64z"/><path d="m864-512-64-64-160 160h224z"/><path d="m960-416-96-96v96z"/><path d="m864-416h-224v32h224z"/><path d="m960-384v-32h-96v32z"/><path d="m864-512 96 96v-96l-64-64h-96z"/><path d="m800-576h-96l-64 64v96z"/><path d="m832-224v-32z"/><path d="m832-224h128z"/><path d="m832-192v-32h128v32z"/><path d="m352-192h-64-16 176z"/><path d="m-320-448h64z"/><path d="m-512-448h-64z"/><path d="m-320-512h-32-32z"/><path d="m-128-800v64 160-112-80z"/><path d="m-512-960v128 64 32z"/><path d="m-320-512v-32-32z"/><path d="m-320-576v64z"/><path d="m-128-576h-64-96-32z"/><path d="m-128-800v-160h-64v224h64z"/><path d="m-512-736v224h64v-224z"/><path d="m-512-512v64h64v-64z"/><path d="m-192 640v-32z"/><path d="m-192 640h-64z"/><path d="m-192 640v-32h-64v32z"/><path d="m960-256v32z"/><path d="m-1152 816v16z"/><path d="m-1152 816v-32z"/><path d="m832-256v-32z"/><path d="m832-256h128z"/><path d="m832-224v-32h128v32z"/><path d="m-1144 816h-8v-32h8z"/><path d="m-288-960h-64z"/><path d="m-288-1152v-64z"/><path d="m-288-960h96v-64h-96z"/><path d="m-512-1024h64z"/><path d="m-288-1024v-128h-64v128z"/><path d="m-288-1152v-64h-64v64z"/><path d="m-352-1024h-96v64h96z"/><path d="m-448-1024h-64v64h64z"/><path d="m832-288v-32z"/><path d="m832-288h128z"/><path d="m832-256v-32h128v32z"/><path d="m448-128v64z"/><path d="m448-128v64l-96-32 96-96z"/><path d="m-448 1344h64z"/><path d="m-512 1344v-64z"/><path d="m960-320v32z"/><path d="m-128-1216h-160z"/><path d="m-640 1088h-64z"/><path d="m-640 1088h64z"/><path d="m-800 1088h-32-64-128z"/><path d="m-192 1088h-128z"/><path d="m-288-1152v128z"/><path d="m-288-1024h96z"/><path d="m-192-1024h64v-192h-160v64 128z"/><path d="m-512-1024h64 96z"/><path d="m-352-1024v-128z"/><path d="m-352-1152v-64z"/><path d="m-512-1024h160v-128-64h-160z"/><path d="m832-320h-192z"/><path d="m832-320h32 96z"/><path d="m832-288v-32h128v32z"/><path d="m256 608h64z"/><path d="m256 480v64z"/><path d="m256 608v-64z"/><path d="m320 480h-64v64h64z"/><path d="m-640-256v32 32z"/><path d="m-640-320h64z"/><path d="m-640-320v64h64v-64z"/><path d="m-384 608h64z"/><path d="m-128 608h-64 32z"/><path d="m0 608h64z"/><path d="m-192 608v-64z"/><path d="m0 608v-64z"/><path d="m64 608v-64h-32-32v64z"/><path d="m-512 256h64z"/><path d="m-512 256v64z"/><path d="m-512 256v64h64v-64z"/><path d="m-512 448h64z"/><path d="m-512 448v64z"/><path d="m-512 512h64v-64h-64z"/><path d="m-192 704v-64z"/><path d="m-192 640h-64v64h64z"/><path d="m-192 704v64z"/><path d="m-192 864v96 128-128z"/><path d="m-192 896v-32-32z"/><path d="m-192 768h-64v64h64z"/><path d="m-192 896h-64v64h64z"/><path d="m-320 1088v-64h-64v64z"/><path d="m-576 1088v-64h-64v64z"/><path d="m-704 1088v-64h-64v64z"/><path d="m-832 1088v-64h-64v64z"/><path d="m960-32v224-192z"/><path d="m960-256v64-32-32-32z"/><path d="m960-576v64 32z"/><path d="m-768 1088h-64 32z"/><path d="m-1024 1088h128z"/><path d="m-448-960h-64z"/><path d="m-192-960h-96z"/><path d="m-352-960h-96z"/><path d="m640-320v32 64z"/><path d="m640-224v224-64z"/><path d="m640-544v128 32 64-32z"/><path d="m864-320h-32-192v-64h224z"/><path d="m960-384v64h-96v-64z"/><path d="m864-384h-224v-32h224z"/><path d="m960-416v32h-96v-32z"/><path d="m864-416h-224v-128-32h224z"/><path d="m960-576v96 64h-96v-160z"/><path d="m864-576h-224 32z"/><path d="m960 192h-96z"/><path d="m864 192h-224z"/><path d="m-896 1088v-64z"/><path d="m64 608v-64z"/><path d="m640 192h-128z"/><path d="m640 192h-128z"/><path d="m448 192h-64z"/><path d="m448 0v32z"/><path d="m448-192v64z"/><path d="m448 160v-32 16 48z"/><path d="m448 192v-32z"/><path d="m512 192v-32z"/><path d="m512 32v-32z"/><path d="m512 32v32-16-48z"/><path d="m448 160h64v-32h-64z"/><path d="m512 32h-64v32h64z"/><path d="m256-320h-128l128 128z"/><path d="m128-320 128 128z"/><path d="m128-320h128-128-64z"/><path d="m256 448v-32-96-64l-192 192z"/><path d="m256 608v-64-64-32h-192v96 64z"/><path d="m256 256-192 192z"/><path d="m256 448v32-64z"/><path d="m320 544h-64v64h64z"/><path d="m-448 128h-64z"/><path d="m-384-448h64z"/><path d="m-512-448h64z"/><path d="m-288-736v-224h-64v224z"/><path d="m-352-640h64v-96h-64z"/><path d="m-192-960h-96v224h96z"/><path d="m-288-736v96 64h96v-160z"/><path d="m-288-640h-64v64h32 32z"/><path d="m-352-960h-96v224h96z"/><path d="m-448-736v224h64 32v-64-64-96z"/><path d="m-352-512h32v-64h-32z"/><path d="m-192-736v160h64v-160z"/><path d="m-448-960h-64v224h64z"/><path d="m-384-512h-64v64h32 32z"/><path d="m-384-512v64h64v-64z"/><path d="m-128-320-64-64h-64v64z"/><path d="m-256-320v-64h-128v128 64z"/><path d="m-416-448h-32-64-64l-64 64h64 160z"/><path d="m-384-384h128 64v-64h-64-64-64-32v64z"/><path d="m-384-384h-32-160v64 64h128 64z"/><path d="m-448-128 64 64v-96-32-64h-64z"/><path d="m-448-256h-128-64v64l64 64h128z"/><path d="m-640-384v64h64v-64z"/><path d="m-384-160v96 128-192z"/><path d="m-32-320h-96-128 64z"/><path d="m64-320h-96 64z"/><path d="m-128-320-64-64z"/><path d="m-640-256h64z"/><path d="m-576-448-64 64z"/><path d="m-640-192 64 64z"/><path d="m-384-64v32 64 32z"/><path d="m-384 64-64 64z"/><path d="m-448-128 64 64z"/><path d="m-384 832v-64-64-64h-192v224h192z"/><path d="m-576 864v64 32 64 64h128 64v-64-64-64-32z"/><path d="m-384 704h64v-64h-64z"/><path d="m-448 256v64h64z"/><path d="m-512 256h64v-128h-64z"/><path d="m32 544v-32h-32v32z"/><path d="m-32 512v-64h-96v96 64h96z"/><path d="m-128 448h-64v96h64z"/><path d="m-384 512v32h64v-96h-64z"/><path d="m-320 544v64 32h64v-32-160h-32-32z"/><path d="m-384 512v-64h-64v64z"/><path d="m-192 544v-96h-64v160h64z"/><path d="m64 448h-32v64 32h32z"/><path d="m-32 512v96h32v-64-32z"/><path d="m32 448h-64v64h32 32z"/><path d="m-288 416-96-96h-64-64v128h64 64 64 32z"/><path d="m-256 448-32-32v32z"/><path d="m-320 704h-64v64h64z"/><path d="m-192 704h-64-64v64h64 64z"/><path d="m-256 640h-64v64h64z"/><path d="m-864 760 88-88 32-32h-88l-64 64v88z"/><path d="m-256 768h-64v64h64z"/><path d="m-384 832h64v-64h-64z"/><path d="m-384 864v32h64v-64h-64z"/><path d="m-256 832h-64v64h64 64v-64z"/><path d="m-256 896h-64v64h64z"/><path d="m-320 1024v64h128v-128h-64-64z"/><path d="m-320 1024v-64h-64v64z"/><path d="m-384 960h64v-64h-64z"/><path d="m-640 1024v-64h-32-32v64 64h64z"/><path d="m-768 1024v-64h-64v64 64h64z"/><path d="m-576 1024v-64h-64v64z"/><path d="m-704 1024v-64h-64v64z"/><path d="m-832 1024v-64h-64v64z"/><path d="m-448 128v128z"/><path d="m32 448h32-64-32z"/><path d="m-576 640-32 32v32 160h32z"/><path d="m-896 792v136h32v-120z"/><path d="m-864 760-32 32 32 16z"/><path d="m-640 960h64l-32-32h-32-32v32z"/><path d="m-896 928v32l32-32z"/><path d="m-256 608h64z"/><path d="m-128 608v-64z"/><path d="m-128 544h-64v64h64z"/><path d="m-512 320h64z"/><path d="m-384 512v32 64-64z"/><path d="m-320 608v-64z"/><path d="m-320 544h-64v64h64z"/><path d="m-512 320v32 96z"/><path d="m-384 1088v-64z"/><path d="m-192 704h-64z"/><path d="m-320 608v32z"/><path d="m-320 640h-32-32z"/><path d="m-320 1024v64z"/><path d="m-192 1088v-128z"/><path d="m-256 896h64z"/><path d="m-256 768h64z"/><path d="m-192 832h-64z"/><path d="m-192 960h-64z"/><path d="m-832 1024v64z"/><path d="m-576 640h192-32-192z"/><path d="m-576 1024v64z"/><path d="m-704 1024v64z"/><path d="m-640 1088v-64z"/><path d="m-768 1088v-64z"/><path d="m-832 640-64 64z"/><path d="m-1056 864h32v-128h-32z"/><path d="m-896 792v-88h-128v32 128 32 32h128z"/><path d="m-1024 928v160h128v-64-64-32z"/><path d="m-1056 864h32z"/><path d="m-1024 736h-32z"/><path d="m-1024 928v-32 64 128z"/><path d="m-1152 768 64-32z"/><path d="m-1152 832 64 32z"/><path d="m-1088 864h32z"/><path d="m-1088 736-64 32v16 32 16l64 32h32v-128z"/><path d="m-448 1344v-32-32z"/><path d="m-384 1152v-64h-64v64 128 32h64z"/><path d="m-448 1312v32h64v-32z"/><path d="m-384 1312v32-192z"/><path d="m-576 1152v-64z"/><path d="m-576 1152v192z"/><path d="m-576 1344h64v-64-128h-64z"/><path d="m-448 1280v-128h-64v128z"/><path d="m-576 1088v64h64 64v-64z"/><path d="m-448 1280h-64v64h64z"/><path d="m640-576v32z"/><path d="m608-576h32z"/><path d="m448 0v48z"/><path d="m640-320h-32z"/><path d="m608-544v192 32-32z"/><path d="m608-352v-192-32h32v32 192z"/><path d="m640-320h-32v-32h32z"/><path d="m640 0h-128z"/><path d="m640 192v-48h-128v48z"/><path d="m-608 928h-32z"/><path d="m-608 672v32z"/><path d="m-608 672 32-32h-32z"/><path d="m-608 864v64h32v-64z"/><path d="m-608 672v-32h-136l16 32z"/><path d="m-728 672-16-32-32 32z"/><path d="m-728 672h-48l-88 88v48z"/><path d="m-672 928h-192l-32 32h64 64 64 32z"/><path d="m-608 928 32 32v-32z"/><path d="m576-576h32z"/><path d="m448 64v-16 96-16z"/><path d="m608-320h-32z"/><path d="m576-544v192 32-32z"/><path d="m608-576v32z"/><path d="m576-352v-192-32h32v32 192z"/><path d="m608-320h-32v-32h32z"/><path d="m512 64h-64v64h64z"/><path d="m544-576h32z"/><path d="m576-320h-32z"/><path d="m576-576v32z"/><path d="m544-544v192 32-32z"/><path d="m544-352v-192-32h32v32 192z"/><path d="m576-320h-32v-32h32z"/><path d="m960-32v32 192z"/><path d="m960-256v192 32-64-32-32-32z"/><path d="m960-480v160 32 32-32-32-64-32z"/><path d="m960-320v32z"/><path d="m960-320v-160-32z"/><path d="m960-512v-64 32z"/><path d="m640 144v48z"/><path d="m640 48v-48z"/><path d="m640-288v64 160-192z"/><path d="m640-320v32z"/><path d="m640-288v-32 96z"/><path d="m896-64h-32-128-32z"/><path d="m960-576h-64z"/><path d="m672-576h-32z"/><path d="m896-576h64-96z"/><path d="m864 192h-224z"/><path d="m704 0v-64h-64v64z"/><path d="m864 0h-160-64v48 96 48h224z"/><path d="m960 0h-64-32v192h96z"/><path d="m960 0v-32-32h-64v64z"/><path d="m864 0h32v-64h-192v64z"/><path d="m448 192h-64-128z"/><path d="m256 192h128 64z"/><path d="m640-576h-32-32z"/><path d="m352-576h-224z"/><path d="m512-576h-64-96 96z"/><path d="m448-320v64z"/><path d="m448 48v16-32-32z"/><path d="m448-32v32-64-64-64z"/><path d="m448 144v48z"/><path d="m448-320h64z"/><path d="m544-320h32-64z"/><path d="m576-320h32 32z"/><path d="m448-352v-224h64 32v32 192z"/><path d="m544-320h-32-64v-32h96z"/><path d="m544-576v32z"/><path d="m512 144v-16 32 32z"/><path d="m512 48v16 64 16z"/><path d="m640 48h-128v96h128z"/><path d="m512 48h128v-48h-128z"/><path d="m352-192h96-176-16z"/><path d="m128-352v-192-32h224v224z"/><path d="m352-192h-96l-128-128v-32h224z"/><path d="m448-576v224h-96v-224z"/><path d="m448-352v32 64 64h-96v-160z"/><path d="m128-544v192 32-128z"/><path d="m128-320h-64z"/><path d="m256 256v-64z"/><path d="m256 192v64z"/><path d="m256 256-192 192z"/><path d="m-384-192v32 32-32z"/><path d="m-384-192v32z"/><path d="m-192-320h-64z"/><path d="m32-320h-64-160 160z"/><path d="m64-320h-32z"/><path d="m-256-320-128 128z"/><path d="m-384 64-64 64z"/><path d="m-192 672h96 64 32-224z"/><path d="m-448 256 192 192h-128-64z"/><path d="m-32 480v-32h32v32z"/><path d="m-32 512v-32h32v32z"/><path d="m-32 448v32 32h-64-96v-64z"/><path d="m-96 640v-128h64v128 32h-64z"/><path d="m64 640h-32v-128h32z"/><path d="m-32 672v-32h32v32z"/><path d="m0 640h-32v-128h32 32v128z"/><path d="m-96 640h-96v-128h96z"/><path d="m-192 672v-32h96v32z"/><path d="m-384 480v-32h128 64v64 128h-64-64-64z"/><path d="m-416 640v-128-32h32v160 32h-32z"/><path d="m-384 448v32h-32-32v-32z"/><path d="m-416 512h-32v-32h32z"/><path d="m-320 672v-32h64v32z"/><path d="m-448 512h32v128h-32-32v-128z"/><path d="m-416 672h-32v-32h32z"/><path d="m-224 672h-32v-32h64v32z"/><path d="m-384 672v-32h64v32z"/><path d="m0 480v-32z"/><path d="m64 512h-32z"/><path d="m32 512h-32z"/><path d="m0 448h64z"/><path d="m-448 256v192 32-80-96z"/><path d="m-448 640v32z"/><path d="m-480 640h32z"/><path d="m-32 448h-160-64 64 64z"/><path d="m-448 256 64 64 96 96 32 32z"/><path d="m960-288v32 192-192z"/><path d="m960-288v-32 64z"/><path d="m960-256v192z"/><path d="m960-576v32z"/><path d="m640-256v192z"/><path d="m640-64h64z"/><path d="m896-64h64z"/><path d="m864-64h-128z"/><path d="m864-576h-192-32z"/><path d="m864-576h32-32-192z"/><path d="m576-576h-32-32z"/><path d="m512-576h-64z"/><path d="m352-576h-224 64z"/><path d="m448-256v-64z"/><path d="m448-32v224-48-96-48z"/><path d="m448-256v224-160z"/><path d="m448-256v160 64z"/><path d="m128-320h-64z"/><path d="m128-576v32z"/><path d="m128-576v32 96-64z"/><path d="m256 256v-64z"/><path d="m256 256-192 192z"/><path d="m-384-128v192z"/><path d="m-384-160v32 192z"/><path d="m-32-320h-160-64z"/><path d="m64-320h-32-64z"/><path d="m-256-320-128 128z"/><path d="m-384 64-64 64z"/><path d="m0 672h-224z"/><path d="m-224 672h-224 32 32 64 64z"/><path d="m-448 304v96 80 48-80z"/><path d="m-448 128v128z"/><path d="m-448 400v80z"/><path d="m-608 704v-32-32h32v224h-32z"/><path d="m-576 864v96l-32-32v-64z"/><path d="m-744 640h136v32h-120z"/><path d="m-744 640 16 32-136 136-32-16z"/><path d="m-672 960h-224l32-32h192z"/><path d="m-640 928h32l32 32h-96v-32z"/><path d="m-896 960v-168l32 16v120z"/><path d="m-640 928h-32-192 192z"/><path d="m-864 928v-120z"/><path d="m-608 704v160 64-64z"/><path d="m-728 672h120z"/><path d="m-728 672-136 136z"/><path d="m64 640v-128 32 64z"/><path d="m-480 512v128-32-64z"/><path d="m0 512v-32 48 16z"/><path d="m0 512v-32z"/><path d="m0 640v32z"/><path d="m0 640v-32 16 48z"/><path d="m64 640h-32z"/><path d="m32 640h-32z"/><path d="m32 640v-32-64-32z"/><path d="m32 512v32 64 32z"/><path d="m32 640h32v-32h-32z"/><path d="m64 512h-32v32h32z"/><path d="m0 640h32v-32h-32z"/><path d="m32 512h-32v32h32z"/><path d="m-448 512v-32z"/><path d="m-480 512h32z"/><path d="m-480 640h32v-32h-32z"/><path d="m-448 512h-32v32h32z"/><path d="m0 480v48z"/><path d="m-448 480v32 32-16z"/><path d="m-448 672v-48z"/><path d="m640-320v32 32z"/><path d="m448-320v-64z"/><path d="m576-320v-64h-64v64z"/><path d="m640-320v-64h-64v64z"/><path d="m0 608v-64-16 96z"/><path d="m64 544h-32v64h32z"/><path d="m32 544h-32v64h32z"/><path d="m-448 544v64 16-96z"/><path d="m-448 608v32 32-48z"/><path d="m-448 544h-32v64h32z"/><path d="m416-576h-64-160z"/><path d="m416-576h32-96z"/><path d="m128-448v-64z"/><path d="m128-448v128z"/><path d="m192-576h-64v64h64z"/><path d="m960-64v-192z"/><path d="m960-544v192 32-192z"/><path d="m-224 448h-32-192v80 96 48h224z"/><path d="m0 672v-48-96-48-32h-32-192v224z"/><path d="m-448 256v48 144h192z"/><path d="m128-512v64h64v-64z"/><path d="m256-256v-64h-128l128 128z"/><path d="m448-256v-64h-64v64 160h64z"/><path d="m384-96v64 160h64v-160-64z"/><path d="m384 128v64h64v-64z"/><path d="m256-32v64 160h128v-64-160z"/><path d="m256-256v64 160h128v-64-160z"/><path d="m384-320h-32-96v64h128z"/><path d="m512-384v-192h-64v128 64z"/><path d="m352-448h-160-64v128h128 96z"/><path d="m384-320h64v-64-64h-32-64v128z"/><path d="m416-576h-224v64 64h160 64z"/><path d="m448-448v-128h-32v128z"/><path d="m576-384v-192h-64v192z"/><path d="m640-384v-192h-64v192z"/><path d="m864-320h-224v64h224z"/><path d="m960-256v-64h-96v64z"/><path d="m864-576h-224v192 32h224z"/><path d="m640-352v32h224v-32z"/><path d="m960-352v-192-32h-96v224z"/><path d="m960-320v-32h-96v32z"/><path d="m256-32v-160 64 160z"/><path d="m640-256v192z"/><path d="m864-256h-224z"/><path d="m960-64h-96z"/><path d="m0 448h64-96z"/><path d="m-32-320h-224 160z"/><path d="m128-320 64 64 64 64z"/><path d="m256 256-64 64-64 64-64 64z"/><path d="m-384-160v224-96z"/><path d="m640-320v-32-32z"/><path d="m640-64h64 32z"/><path d="m864-64h32 64z"/><path d="m960-576h-64-32z"/><path d="m256 192h128z"/><path d="m384 192h64z"/><path d="m640-576h-64z"/><path d="m576-576h-64z"/><path d="m448-576h-32z"/><path d="m448-32v160 64z"/><path d="m512-384h-64v64h64z"/><path d="m128-320h-64z"/><path d="m192-576v64z"/><path d="m192-512h-64z"/><path d="m-384-192v32z"/><path d="m-256-320-128 128z"/><path d="m-384 64-64 64z"/><path d="m-224 672h-224z"/><path d="m0 448v32z"/><path d="m0 624v48z"/><path d="m64 448h-64z"/><path d="m-448 256v-128 128 48z"/><path d="m256 32v224-64z"/><path d="m960-256h-96z"/><path d="m864-64h-224 96z"/><path d="m-32 448h-64-160 32z"/><path d="m-448 128v128z"/><path d="m128-320h-64-96z"/><path d="m-320-256 64-64-128 128z"/><path d="m-384 256v-128-64l-64 64v128l32 32h32z"/><path d="m-416 288 32 32v-32z"/><path d="m-384 256v32 32l64 64h64z"/><path d="m-96 384h-160-64l64 64h160z"/><path d="m128 384h-64-96-64v64h64 96z"/><path d="m128 384 64-64v-64l-128 128z"/><path d="m-320-32v-128-32-64l-64 64v32 128z"/><path d="m-320 64v-96h-64v96 64z"/><path d="m-320-256v64l64-64z"/><path d="m192-192 64 64v-64l-64-64h-64z"/><path d="m256-128-64-64v224h64z"/><path d="m192 32v224h64v-224z"/><path d="m192 256v64l64-64z"/><path d="m-96-320h-160l-64 64h64 160z"/><path d="m128-320h-160-64v64h64 160z"/><path d="m192-256-64-64v64z"/><path d="m-32-256h-64-160z"/><path d="m64 384h-64-32z"/><path d="m192-192v128 96z"/><path d="m-320-160v128 96-128-32z"/><path d="m192-192-64-64z"/><path d="m192 256-128 128z"/><path d="m-256-256-64 64z"/><path d="m-384 64-64 64z"/><path d="m-320 384-64-64-32-32-32-32 192 192z"/><path d="m-384-192v32z"/><path d="m-448 64h64v64 128 32h-64z"/><path d="m-384 288v96h-64v-96z"/><path d="m-384 384v-96-32l128 128z"/><path d="m-384 64h64l-64 64z"/><path d="m-224 448h-224v-64h64 128 32z"/><path d="m0 448h-224v-64h192 32z"/><path d="m64 384h128v64h-192v-64z"/><path d="m192 256v128h-128z"/><path d="m-384 64h-64v-128h64 64v128z"/><path d="m-384-96v-224h64v128 32 64z"/><path d="m-320-64h-64v-32h64z"/><path d="m192-256h64v128l-64-64-64-64z"/><path d="m192-64v-128l64 64v160h-64z"/><path d="m256 32v224h-64v-224z"/><path d="m256 256v192h-64v-64-128z"/><path d="m-320-320h128l-64 64-64 64z"/><path d="m-32-256h-224l64-64h160z"/><path d="m192-256h-64-160v-64h224z"/><path d="m256-320v64h-64v-64z"/><path d="m128-256h-160z"/><path d="m-32 384h-192-32 160z"/><path d="m192 32v224z"/><path d="m-384 128v128z"/><path d="m-384 256 128 128z"/><path d="m-320-192v32z"/><path d="m-320 64-64 64z"/></g></defs><path d="m-1401-1465h2994v3058h-2994z" fill="#fff"/><g stroke="#000"><use fill="none" stroke-miterlimit="0" stroke-width="15" xlink:href="#a"/><use fill="#fff" xlink:href="#a"/></g></svg>