<svg viewBox="-554 -688 1945 1676" xmlns="http://www.w3.org/2000/svg" xmlns:xlink="http://www.w3.org/1999/xlink"><defs><g id="a"><path d="m348-350h-60-128-8-28v-21.0886-20.9114h224z"/><path d="m572-350h-224v-42h110.6251 113.3749z"/><path d="m724-392v42h-28-8-116v-42z"/><path d="m696-224v-126h28v51 173h-28z"/><path d="m724-126v163 61h-28v-98-126z"/><path d="m724 98v224h-28v-98-126z"/><path d="m724 322v51 173h-28v-98-126z"/><path d="m724 546v126h-28v-126z"/><path d="m479-236h-71.3478-15.3044-4.3478-100v-114h60 224 116v114z"/><path d="m384-140h-224v-8h224z"/><path d="m608-140h-224v-8h224z"/><path d="m688-148v8h-80v-8z"/><path d="m160 0v-52h224v64h-224z"/><path d="m384-52h224v64h-224z"/><path d="m608-52h80v52 12h-80z"/><path d="m384-148h-224v-64h128 96z"/><path d="m608-148h-224v-64h4 91 129z"/><path d="m688-212v64h-80v-64z"/><path d="m384-60h-224v-80h224z"/><path d="m608-60h-224v-80h224z"/><path d="m688-140v80h-80v-80z"/><path d="m688-236v12 12h-80-129v-7-17z"/><path d="m384-52h-224v-8h224z"/><path d="m608-52h-224v-8h224z"/><path d="m688-60v8h-80v-8z"/><path d="m407.6522-219v-17h71.3478v17z"/><path d="m388-219v-17h4.3478v17z"/><path d="m392.3478-219h15.3044 71.3478v7h-91v-7z"/><path d="m288-236h100v17 7h-4-96z"/><path d="m288-236v24h-128v-12-126h128z"/><path d="m124-299v-51h28v126 98h-28z"/><path d="m152-126v126 98h-28v-61-163z"/><path d="m152 98v126 98h-28v-224z"/><path d="m152 322v126 98h-28v-173-51z"/><path d="m152 546v126h-28v-126z"/><path d="m384 302h-224v-8h224z"/><path d="m608 302h-224v-8h224z"/><path d="m688 294v8h-80v-8z"/><path d="m384 156h-224v-8h224z"/><path d="m608 156h-224v-8h224z"/><path d="m688 148v8h-80v-8z"/><path d="m384 20h-224v-8h224z"/><path d="m608 20h-224v-8h224z"/><path d="m688 12v8h-80v-8z"/><path d="m384 372h-224v-70h224z"/><path d="m608 372h-224v-70h224z"/><path d="m688 302v70h-80v-70z"/><path d="m384 294h-224v-70h224z"/><path d="m608 294h-224v-70h224z"/><path d="m688 224v70h-80v-70z"/><path d="m384 80h-224v-60h224z"/><path d="m608 80h-224v-60h224z"/><path d="m688 20v60h-80v-60z"/><path d="m384 148h-224v-60h224z"/><path d="m608 148h-224v-60h224z"/><path d="m688 88v60h-80v-60z"/><path d="m384 216h-224v-60h224z"/><path d="m608 216h-224v-60h224z"/><path d="m688 156v60h-80v-60z"/><path d="m384 88h-224v-8h224z"/><path d="m608 88h-224v-8h224z"/><path d="m688 80v8h-80v-8z"/><path d="m384 224h-224v-8h224z"/><path d="m608 224h-224v-8h224z"/><path d="m688 216v8h-80v-8z"/><path d="m384 462h-224v-8h224z"/><path d="m608 462h-224v-8h224z"/><path d="m688 454v8h-80v-8z"/><path d="m384 454h-224v-6-68h224z"/><path d="m608 454h-224v-74h224z"/><path d="m688 380v68 6h-80v-74z"/><path d="m384 532h-52-172v-70h224z"/><path d="m608 532h-96-104.3478-23.6522v-70h224z"/><path d="m688 462v70h-80v-70z"/><path d="m384 380h-224v-8h224z"/><path d="m608 380h-224v-8h224z"/><path d="m688 372v8h-80v-8z"/><path d="m348 709h-224v-37h28 8 172 16z"/><path d="m572 709h-113.375-110.625v-37h164 60z"/><path d="m688 672h8 28v37h-152v-37z"/><path d="m348 956h-224v-15h224z"/><path d="m572 956h-224v-15h112 112z"/><path d="m724 941v15h-152v-15z"/><path d="m512 557v-25h96 80v140h-116-60z"/><path d="m512 532v25h-104.3478v-17-8z"/><path d="m392.3478 557h15.3044 104.3478v115h-164-16v-115z"/><path d="m332 532h52 23.6522v8h-15.3044-60.3478z"/><path d="m332 557v-17h60.3478v17z"/><path d="m160 532h172v8 17 115h-172z"/><path d="m724 956h-152z"/><path d="m460 941h-112-224 224z"/><path d="m124 373v173 126 37-74-224z"/><path d="m124 37v61 224 51-186z"/><path d="m124-299v173 163-74-120.1139z"/><path d="m124-371.0886v21.0886 51-82.1139z"/><path d="m160 448v6 8 70 140-126z"/><path d="m160 224v70 8 70 8 68-126z"/><path d="m160 0v12 8 60 8 60 8 60 8-126z"/><path d="m160-224v12 64 8 80 8 52-126z"/><path d="m152-350v126z"/><path d="m572 709h152-1.3558-262.6442-1.375z"/><path d="m724-350v-42 93z"/><path d="m688-236v-114 126z"/><path d="m696 448v98 126-126z"/><path d="m696 224v98 126-126z"/><path d="m696 0v98 126-126z"/><path d="m696-224v98 126-126z"/><path d="m460-392h-1.3749-110.6251-224 224z"/><path d="m460-392h262.6442 1.3558-152-113.3749z"/><path d="m160 672h-8z"/><path d="m152-350h8z"/><path d="m152-224v-126h8v126 98h-8z"/><path d="m160-126v126 98h-8v-98-126z"/><path d="m160 98v126 98h-8v-98-126z"/><path d="m160 322v126 98h-8v-98-126z"/><path d="m160 546v126h-8v-126z"/><path d="m160-350v126z"/><path d="m152 448v98 126-126z"/><path d="m152 224v98 126-126z"/><path d="m152 0v98 126-126z"/><path d="m152-224v98 126-126z"/><path d="m688-350h8z"/><path d="m696 672h-8z"/><path d="m688 448v98 126-140-70-8z"/><path d="m688 224v98 126-68-8-70-8z"/><path d="m688 0v98 126-8-60-8-60-8-60-8z"/><path d="m688-224v98 126-52-8-80-8-64z"/><path d="m688-224v-126h8v126 98h-8z"/><path d="m696-126v126 98h-8v-98-126z"/><path d="m696 98v126 98h-8v-98-126z"/><path d="m696 322v126 98h-8v-98-126z"/><path d="m696 546v126h-8v-126z"/><path d="m696-350v126z"/><path d="m412-236h-4.3478v17h4.3478z"/><path d="m388-219h4.3478v-17h-4.3478z"/><path d="m388 557h4.3478v-17h-4.3478z"/><path d="m412 540h-4.3478v17h4.3478z"/><path d="m388 540h24 21 46 14-81-24-56 35z"/><path d="m388 540h4.3478 15.3044 4.3478z"/><path d="m388-219h24-4.3478-15.3044z"/><path d="m412-236h21z"/><path d="m433-236h46-11-12z"/><path d="m367-236h-23-12-11z"/><path d="m412-236h-24 4.3478 15.3044z"/><path d="m388-219v-17z"/><path d="m412-236v17h21v-17z"/><path d="m433-236v17h46v-17z"/><path d="m412-236v17z"/><path d="m367-236v17h21v-17z"/><path d="m367-219v-17h-46v17z"/><path d="m388 557h24-4.3478-15.3044z"/><path d="m388 557v-17z"/><path d="m412 540v17h21v-17z"/><path d="m433 540v17h46v-17z"/><path d="m412 540v17z"/><path d="m367 540v17h21v-17z"/><path d="m432 558h-64v12h64z"/><path d="m432-249h-64v12h64z"/><path d="m724 709h-1.3558z"/><path d="m724-392v11 45 37z"/><path d="m724 373v336-37-126z"/><path d="m724 37v336-51-224z"/><path d="m724-299v336-163z"/><path d="m432 558v12z"/><path d="m368 570v-12z"/><path d="m368 558h64z"/><path d="m432 570h-64v-12h64z"/><path d="m432 570h-64z"/><path d="m432-249v12z"/><path d="m368-237v-12z"/><path d="m432-237h-64z"/><path d="m432-237h-64v-12h64z"/><path d="m368-249h64z"/><path d="m724-392h-1.3558z"/><path d="m724 373v299 37z"/><path d="m724 37v299 37z"/><path d="m724-299v299 37z"/><path d="m724-392v10.8861.1139z"/><path d="m724 709h-36-116-112 262.6442z"/></g><g id="b"><path d="m-554 812v18z"/><path d="m1391-688v96 80z"/><path d="m-406 988h93-29-67-67-29z"/><path d="m1284 184h-67z"/><path d="m1390-688h1v176h-1z"/><path d="m1150-572v-116h192v116 60h-191-1z"/><path d="m1342-512h1v14 51 155h-43-116-33v-155-51-14z"/><path d="m1300-292v84h-16-84-16v-84z"/><path d="m1300-208v-84h43v69 31h-1-42z"/><path d="m1200-124v-84h84v84 140h-84z"/><path d="m1284 16v84h-67-17v-84z"/><path d="m1151-223v-69h33v84 16h-33z"/><path d="m1217 184h-224v-84h191 16 17z"/><path d="m1284 100v84h-67v-84z"/><path d="m1342-688v32 84z"/><path d="m1343-512h-1z"/><path d="m1343-512v14z"/><path d="m1150-572v60-18z"/><path d="m1151-447v155 69-37-76-32-44-32z"/><path d="m1151-498v51z"/><path d="m1342-192h1z"/><path d="m1184-208v16z"/><path d="m1200-208h-16z"/><path d="m1200-124v140 84-84z"/><path d="m1284-208v84z"/><path d="m1151-223v31z"/><path d="m348 956h-224z"/><path d="m572 956h-224z"/><path d="m572 941h152-152-112z"/><path d="m992 36h1v48h-1z"/><path d="m992 248h1z"/><path d="m993 184h-1v-84h1z"/><path d="m993 100h-1z"/><path d="m993 200v48h-1v-48z"/><path d="m-160 100v-16z"/><path d="m768 248h224v21h-224z"/><path d="m100.114 700.1138 7.2911 7.2912v4.1899 2.4051 1.5949l-7.2911 7.2911z"/><path d="m746.886-406.886-7.2912 7.2911h-8.1898l-4.1012-4.1013-3.1899-3.1898z"/><path d="m746.886-468h21.114v56 5.114h-21.114z"/><path d="m746.886-468v61.114h-22.7721l.0001-61.114z"/><path d="m348-406.886h-224v-61.114h200.1139 23.8861z"/><path d="m572-406.886h-224v-61.114h200.1139 23.8861z"/><path d="m688-468h36.114l-.0001 61.114h-152.1139v-61.114z"/><path d="m124-468v61.114h-16-7.8861v-61.114z"/><path d="m324.1139-468h-200.1139-23.8861l7.1516-205h180.811 36.0374z"/><path d="m548.1139-468h-200.1139-23.8861v-205h187.9626 36.0374z"/><path d="m746.886-406.886.0001 22.772-2.5063-2.5064-4.3798-4.3796-.405-.4052v-5.1897l-.0002-3z"/><path d="m746.8861 696.1139-.0001-171.1139h21.114v189h-21.1139z"/><path d="m768 248v21 203h-21.114v-224z"/><path d="m768 472v21 32h-21.114v-53z"/><path d="m768 248h-21.114v-148h21.114z"/><path d="m768 100h-21.114v-64h21.114z"/><path d="m746.886-301h21.114v113 111h-21.114z"/><path d="m768-77v113h-21.114v-113z"/><path d="m768-406.886v105.886h-21.114l.0001-83.114-.0001-22.772z"/><path d="m746.8861-384.114-.0001 83.114h-6.886v-83.114z"/><path d="m740-301h6.886v224h-6.886z"/><path d="m746.886-77v113h-6.886v-113z"/><path d="m746.886 100h-6.886v-64h6.886z"/><path d="m746.886 248h-6.886v-101-47h6.886z"/><path d="m740 472v-101-123h6.886v224z"/><path d="m746.886 525h-6.886v-53h6.886z"/><path d="m746.886 525 .0001 171.1139h-6.8861v-171.1139z"/><path d="m746.8861 696.1139-2.5063 2.5064h-4.3798v-2.5064z"/><path d="m123.886-403.886-3.1899 3.1899-2.6961 2.6961-1.4051 1.4052h-8.1898l-.4051-.4052v-6.886z"/><path d="m124-406.886v3h-.114-15.886v-3z"/><path d="m348-403.886h-224v-3h224z"/><path d="m572-403.886h-224v-3h224z"/><path d="m724.1139-406.886.0001 3h-152.114v-3z"/><path d="m724.114-403.886-.0001-3 3.1899 3.1898v3z"/><path d="m348-398h-224v-5.886h224z"/><path d="m572-398h-224v-5.886h224z"/><path d="m724.114-403.886v5.886h-152.114v-5.886z"/><path d="m124-403.886v5.886h-.1139l-.0001-5.886z"/><path d="m123.886-403.886.0001 5.886h-2.5064-.6835l-.0001-2.6961z"/><path d="m740 696.1139h-8-7.8861l.0001-24.1139v-147h15.886z"/><path d="m724.114-301h15.886v224h-15.886z"/><path d="m740-77v113 64 47h-15.886v-224z"/><path d="m740 147v101 123h-15.886v-224z"/><path d="m740 371v101 53h-15.886v-154z"/><path d="m740-301h-15.886v-80.1139l-.0001-3.0001h7.8861 8z"/><path d="m740-384.114h-8v-2.5063h8z"/><path d="m348-392h-224v-6h224z"/><path d="m572-392h-112-112v-6h224z"/><path d="m724.114-398v6h-.114-152v-6z"/><path d="m724-381.1139v-10.8861h.114l-.0001 2v5.886l.0001 3.0001z"/><path d="m124-398v6 10.8861h-.114l.0001-8.8861v-8z"/><path d="m124-392v20.9114-10.0253z"/><path d="m572-392h152-1.3558-262.6442z"/><path d="m724 336v35 154 147-299z"/><path d="m724 0v147 189-299z"/><path d="m724-336v35 224 77-299z"/><path d="m724-381.1139v45.1139-45z"/><path d="m724-301v-35-45.1139h.114v80.1139z"/><path d="m724-301h.114v224h-.114z"/><path d="m724.114-77v224h-.114v-147-77z"/><path d="m724.114 147v224h-.114v-35-189z"/><path d="m724.114 371v154h-.114v-154z"/><path d="m724 525h.114v147h-.114z"/><path d="m724.114 672-.0001 24.1139v9.8861l.0001 3h-.114v-37z"/><path d="m688 709h36 .114l-.0001 5h-36.1139z"/><path d="m348 714h-1.1139-222.8861v-5h224z"/><path d="m572 714h-1.1139-222.8861v-5h112 112z"/><path d="m688 709v5h-116v-5z"/><path d="m724 672v37z"/><path d="m460 709h-112-224 224 110.625z"/><path d="m108 248h14.8861v163 61h-14.8861z"/><path d="m122.8861 472v163 65.1139h-6.8861-8v-228.1139z"/><path d="m122.8861 84v-48-73h1.1139v74 150h-1.1139z"/><path d="m124 187v186 38h-1.1139v-163-61z"/><path d="m124 411v224h-1.1139v-163-61z"/><path d="m124 635v74 5h-1.1139v-13.8861-65.1139z"/><path d="m122.8861-37v73h-14.8861v-73z"/><path d="m122.8861 36v48h-14.8861v-48z"/><path d="m122.8861 84v103 61h-14.8861v-164z"/><path d="m123.886-381.1139h.114v82.1139 141.8861h-16v-224z"/><path d="m124-157.1139v120.1139h-1.1139-14.8861v-120.1139z"/><path d="m100.1139 248h7.8861v224h-7.8861z"/><path d="m108 472v228.1139l-7.886-.0001-.0001-4.1138v-224z"/><path d="m108 36h-7.8861v-73h7.8861z"/><path d="m108 84h-7.8861v-48h7.8861z"/><path d="m108 248h-7.8861v-164h7.8861z"/><path d="m101.1139-381.1139h-1v-22.7721h1z"/><path d="m108-403.886h-6.8861-1v-3h7.8861z"/><path d="m100.1139-157.1139v-86.8861-137.1139h1 6.8861v224z"/><path d="m108-37h-7.8861v-120.1139h7.8861z"/><path d="m100.114 700.1138 7.886.0001v2.5063.6836 3.6962.405h-.5949z"/><path d="m346.8861 722.886h-224.0001l.0001-8.886h1.1139 222.8861z"/><path d="m570.8861 722.886h-224v-8.886h1.1139 222.8861z"/><path d="m572 714h116v4.8861 3.9999h-117.1139v-8.886z"/><path d="m724.114 718.8861h22.772 21.114v3.9999h-80v-3.9999z"/><path d="m724.1139 714 .0001 4.8861h-36.114v-4.8861z"/><path d="m768 714v3 1.8861h-21.114l.0001-4.8861z"/><path d="m724.114 718.8861-.0001-4.8861h2.5064.6835 1.6962z"/><path d="m746.8861 714-.0001 4.8861-4.886-4.8861z"/><path d="m64 36h-224z"/><path d="m64-244v-168-56h3.3062 32.8077v61.114 3 22.7721 137.1139z"/><path d="m100.1139-157.1139v120.1139h-36.1139v-151-56h36.1139z"/><path d="m100.1139 36h-36.1139v-73h36.1139z"/><path d="m64-188v151 73h-224v-224z"/><path d="m64-412v168 56h-224v-224z"/><path d="m67.3062-468h-3.3062l-180.8611-168-39.8327-37h220.7703 3.2297z"/><path d="m100.1139-468h-32.8077v-205h39.9593z"/><path d="m64 248h-224z"/><path d="m64 84h-224v-48h224z"/><path d="m100.1139 84h-36.1139v-48h36.1139z"/><path d="m64 248h-224v-48-16-84-16h224z"/><path d="m100.1139 248h-36.1139v-164h36.1139z"/><path d="m64 274.886v-26.886h36.1139v224h-36.1139z"/><path d="m100.1139 472v224h-36.1139v-197.114-26.886z"/><path d="m100.1139 696 .0001 4.1138v22.7722h-36.114v-26.886z"/><path d="m64 498.886v197.114 26.886l-224-7.2587v-216.7413z"/><path d="m64 274.886v197.114 26.886h-224v-5.886-218.114z"/><path d="m768 722.886v25.114h-15.7751-64.2249v-25.114z"/><path d="m346.8861 748h-42.6613-181.3387l-.0001-25.114h224.0001z"/><path d="m570.8861 748h-42.6612-181.3388v-25.114h224z"/><path d="m688 722.886v25.114h-117.1139v-25.114z"/><path d="m100.114 722.886-.0001 25.114h-19.8891-16.2248v-25.114z"/><path d="m122.886 722.886.0001 25.114h-22.7722l.0001-25.114z"/><path d="m64 722.886v25.114l-207.7751 193h-16.2249v-224-1.3727z"/><path d="m80.2248 748h19.8891 22.7722 181.3387v193h-16.1483-207.8517z"/><path d="m304.2248 748h42.6613 181.3388v193h-16.1484-207.8517z"/><path d="m528.2249 748h42.6612 117.1139 64.2249v193h-16.1484-207.8516z"/><path d="m752.2249 748h15.7751l207.7751 193h-15.6986-207.8516z"/><path d="m768 248h220 4z"/><path d="m992 36h-224z"/><path d="m988 200v48h-220v-148h220z"/><path d="m992 248h-4v-48h4z"/><path d="m992 100v84 16h-4v-100z"/><path d="m992 84v16h-4-220v-64h224z"/><path d="m-160 36h-1z"/><path d="m-160 84h-1v-48h1z"/><path d="m-160 100v84h-1v-84z"/><path d="m-160 184h-1z"/><path d="m-161 248v-48h1v48z"/><path d="m348 941h-224v15h224z"/><path d="m572 941h-112-112v15h224z"/><path d="m724 956v-15h-152v15z"/><path d="m124 956v-15z"/><path d="m724 941v15z"/><path d="m-223 100h-224 84z"/><path d="m-161 100h-62z"/><path d="m-223 184h-140-84v-84h224z"/><path d="m-161 184h-62v-84h62z"/><path d="m-447 280v-80h84v80 144h-84z"/><path d="m-363 424v68h-84v-68z"/><path d="m-363 200h-84v-16h84z"/><path d="m-347 568v-64-12h33v31 45z"/><path d="m-363 492v12h-43-41v-12z"/><path d="m-363 504h16v64h-59v-45-19z"/><path d="m-406 756v-188h59 33v6 218h-92z"/><path d="m-314 792v6 14 64h-92v-84z"/><path d="m-463 504h16 41v19h-57z"/><path d="m-506 492h43v12 19h-43z"/><path d="m-506 574v-51h43 57v45 188h-99-1z"/><path d="m-314 812h1v18 46h-1z"/><path d="m-406 876h92 1v112h-93z"/><path d="m-505 812v-56h99v36 84 112h-99z"/><path d="m-506 798v-42h1v56h-1z"/><path d="m-554 830v-18h1v64 112h-1z"/><path d="m-363 184v16z"/><path d="m-363 200v80z"/><path d="m-314 492v31z"/><path d="m-314 492h-33z"/><path d="m-447 280v144 68 12-180z"/><path d="m-506 574v182 42z"/><path d="m-506 523v51z"/><path d="m-553 812v18 46z"/><path d="m-313 812v18z"/><path d="m-506 812h1z"/><path d="m-506 798v14z"/><path d="m332 557h35v-17h-35-11v17z"/><path d="m321 557h-19.25 19.25 11z"/><path d="m343.6962 714h-219.6962-3.6202-.6836 4.3038z"/><path d="m567.6962 714h-219.6962-4.3038 4.3038z"/><path d="m108-383.6202v-.6836 191.6076z"/><path d="m740 475.3038v34.0759 189.2406.6835-190.6076z"/><path d="m740 251.3038v34.0759 189.9241-190.6076z"/><path d="m740 27.3038v34.0759 189.9241-190.6076z"/><path d="m740-196.6962v34.0759 189.9241-190.6076z"/><path d="m744.3798-386.6204 2.5063 2.5064h-6.8861v-2.5063z"/><path d="m569.3798-398h157.2404.6836-158.6076z"/><path d="m726.6202-398h-2.5062v-5.886l3.1898 3.1898v2.6962z"/><path d="m726.6202 706 .0001 8h-2.5064l.0001-5-.0001-3z"/><path d="m726.6202 706h-2.5063v-9.8861l3.1899 3.1899v6.6962z"/><path d="m726.6204-390h.6834 2.6962l-2.6962 2.6962-3.1899 3.1898v-5.886z"/><path d="m726.6202-398 .0002 8h-2.5065l.0001-2v-6z"/><path d="m732-386.6203v-.6835 190.6076z"/><path d="m740-196.6962v-189.9241h-8v189.9241 34.0759h8z"/><path d="m732-162.6203v189.9241 34.0759h8v-34.0759-189.9241z"/><path d="m732 61.3797v189.9241 34.0759h8v-34.0759-189.9241z"/><path d="m732 285.3797v189.9241 34.0759h8v-34.0759-189.9241z"/><path d="m732 509.3797v189.2406h8v-189.2406z"/><path d="m740 698.6203h-8v-2.5064h8z"/><path d="m732 698.6203v.6835h-4.6962l-3.1899-3.1899h7.8861z"/><path d="m116-383.6202h5.3797l2.5063 2.5063h-15.886v-2.5063z"/><path d="m344.6962-390h-223.3165-.6835z"/><path d="m568.6962-390h-223.3164-.6836z"/><path d="m345.3798-398h-.6836-223.3165v8h223.3165.6836z"/><path d="m569.3798-398h-.6836-223.3164v8h223.3164.6836z"/><path d="m726.6204-390-.0002-8h-157.2404v8z"/><path d="m121.3797-390v-8h2.5064v8z"/><path d="m121.3797-390h2.5064l-.0001 8.8861-2.5063-2.5063-.6834-.6834-.0001-5.6964z"/><path d="m493 540h7-21-46-21z"/><path d="m433 557h23 12 11z"/><path d="m412 557h21z"/><path d="m332 557h12 23z"/><path d="m433 557h46 14-14-46-21z"/><path d="m367 557h21-21-35z"/><path d="m493 557h7v-17h-7-14v17z"/><path d="m726.6202 706h.6836-155.3038z"/><path d="m348 706h-224v8h219.6962 4.3038z"/><path d="m572 706h-224v8h219.6962 4.3038z"/><path d="m726.6203 714-.0001-8h-154.6202v8z"/><path d="m116 479.3038v33.076 190.2404.6836-191.6076z"/><path d="m116 255.3038v33.076 190.924-191.6076z"/><path d="m116 31.3038v33.076 190.924-191.6076z"/><path d="m116-192.6962v33.076 190.924-191.6076z"/><path d="m120.3797 706v-3.3798l2.5064-2.5063v13.8861h-2.5063z"/><path d="m124 706h-3.6203l.0001 8h3.6202z"/><path d="m116 702.6202v-2.5063h6.8861l-2.5064 2.5063-.6835.6836h-3.6962z"/><path d="m116-192.6962v-190.924h-8v190.924 33.076h8z"/><path d="m108-159.6202v190.924 33.076h8v-33.076-190.924z"/><path d="m108 64.3798v190.924 33.076h8v-33.076-190.924z"/><path d="m108 288.3798v190.924 33.076h8v-33.076-190.924z"/><path d="m108 512.3798v190.2404h8v-190.2404z"/><path d="m116 702.6202h-8v-2.5063h8z"/><path d="m-553 988h-1z"/><path d="m1390-688h1z"/><path d="m1343-498h-1z"/><path d="m1390-530v-42-32-52-32 176z"/><path d="m1390-512h1z"/><path d="m1390-656v52h-10-32v-52z"/><path d="m1342-656h6v52 32h-6z"/><path d="m1390-604v32h-10v-32z"/><path d="m1150-656v52h-6-32v-52z"/><path d="m1103-656h9v52 32h-9z"/><path d="m1150-604v32h-6v-32z"/><path d="m1150-604v-52-32 116z"/><path d="m1342-530v-42h6 32 10v42z"/><path d="m1342-512v14h1v-14z"/><path d="m1342-572v42 18z"/><path d="m1150-512h1z"/><path d="m1103-530v-42h9 32 6v42z"/><path d="m1343-447v224-69z"/><path d="m1343-498v51z"/><path d="m1343-498v51z"/><path d="m1342-223v31h1v-31z"/><path d="m1343-223v31z"/><path d="m1342-192h-42z"/><path d="m572 714h155.3038-.6835-154.6203-4.3038z"/><path d="m108 479.3038v32.3924 191.6076-.6836-190.2404z"/><path d="m108 255.3038v32.3924 191.6076-190.924z"/><path d="m108 31.3038v32.3924 191.6076-190.924z"/><path d="m108-192.6962v32.3924 191.6076-190.924z"/><path d="m740-387.3038v.6835 189.9241z"/><path d="m740-387.3038v-3.6962l4.3798 4.3796-4.3798.0001z"/><path d="m727.3038-403.6962 4.1012 4.1013-.0001 3-1.4049-1.4051-2.6962-2.6962z"/><path d="m344.6962-398h-224 .6835z"/><path d="m568.6962-398h-224 .6836z"/><path d="m727.3038-398v-2.6962l2.6962 2.6962z"/><path d="m120.6961-400.6961.0001 2.6961h-2.6962z"/><path d="m727.3038 706v-6.6962l4.1012 4.1012-.0003 8.1899-2.4047 2.4051h-1.6962z"/><path d="m732-196.6962v-190.6076h8v190.6076 33.3924h-8z"/><path d="m740-163.3038v190.6076 33.3924h-8v-33.3924-190.6076z"/><path d="m740 60.6962v190.6076 33.3924h-8v-33.3924-190.6076z"/><path d="m740 284.6962v190.6076 33.3924h-8v-33.3924-190.6076z"/><path d="m740 508.6962v190.6076h-8v-190.6076z"/><path d="m732 475.3038v33.3924 190.6076-.6835-189.2406z"/><path d="m732 251.3038v33.3924 190.6076-189.9241z"/><path d="m732 27.3038v33.3924 190.6076-189.9241z"/><path d="m732-196.6962v33.3924 190.6076-189.9241z"/><path d="m727.3038-387.3038h4.6962v.6835 2.5063h-7.8861z"/><path d="m116-384.3038v-4.1012h.5949l4.1014 4.1014.6834.6834h-5.3797z"/><path d="m344.6962-390h-224v-8h224z"/><path d="m568.6962-390h-224v-8h224z"/><path d="m727.3038-398v8h-158.6076v-8z"/><path d="m120.6962-398v8l.0001 5.6964-4.1014-4.1014v-8.1898l1.4051-1.4052z"/><path d="m727.3038-390h-.6834-157.2406-.6836z"/><path d="m321 540h-19.25 19.25 11z"/><path d="m301.75 557h-1.75-12 33z"/><path d="m301.75 540h-1.75v17h1.75 19.25v-17z"/><path d="m348 714h-4.3038-219.6962v-8h224z"/><path d="m572 714h-4.3038-219.6962v-8h224z"/><path d="m727.3038 706v8h-155.3038v-8z"/><path d="m348 706h-224z"/><path d="m572 706h-224z"/><path d="m124 714h-4.3038v-8h4.3038z"/><path d="m108-192.6962v-191.6076h8v191.6076 32.3924h-8z"/><path d="m116-160.3038v191.6076 32.3924h-8v-32.3924-191.6076z"/><path d="m116 63.6962v191.6076 32.3924h-8v-32.3924-191.6076z"/><path d="m116 287.6962v191.6076 32.3924h-8v-32.3924-191.6076z"/><path d="m116 511.6962v191.6076h-8v-191.6076z"/><path d="m119.6962 703.3038-4.1015 4.1012h-7.1896l-.4051-.405v-3.6962z"/><path d="m116-384.3038v.6836 190.924z"/><path d="m119.6962 703.3038.6835-.6836v3.3798h-.6835z"/><path d="m124 706h-4.3038.6835z"/><path d="m-506 492v31z"/><path d="m-463 492v12z"/><path d="m-506 523h1v-31h-1z"/><path d="m-505 492h42-43z"/><path d="m-506 798h1z"/><path d="m-506 574v224-42-32-56-32z"/><path d="m-553 988v-32z"/><path d="m-553 876v32 48 32z"/><path d="m-505 956v-48-78-18 176z"/><path d="m-313 830v-18z"/><path d="m-313 812h-1z"/><path d="m-304 876h-9v-46h41v46z"/><path d="m-272 908v-32-46h6v126h-6z"/><path d="m-313 908v-32h9v32z"/><path d="m-304 908h32v48h-41v-48z"/><path d="m-313 830v46 32 48 32-112z"/><path d="m-544 908h32 7v48h-48v-48z"/><path d="m-553 908v-32h9v32z"/><path d="m-512 876v-46h7v78h-7z"/><path d="m-544 876h-9v-46h41v46z"/><path d="m-506 812h1v-14h-1z"/><path d="m-553 812h-1z"/><path d="m1391-223v-69-44 144z"/><path d="m1391-688v96z"/><path d="m1342-223h1z"/><path d="m1390-530v18z"/><path d="m1390-512h1v14h-1z"/><path d="m1390-530h-2.1-45.9z"/><path d="m1150-512h1v14h-1z"/><path d="m1151-512v14z"/><path d="m1150-530v18z"/><path d="m1103-530h47z"/><path d="m1390-498h1v54h-11-32v-54z"/><path d="m1343-447v-51h5v54 32h-5z"/><path d="m1391-444v32h-11v-32z"/><path d="m1343-368v-44h5 32 11v44z"/><path d="m1391-336v44h-11-32v-44z"/><path d="m1343-336h5v44 32h-5z"/><path d="m1391-292v69h-1-10v-37-32z"/><path d="m1348-260h32v37h-37v-37z"/><path d="m1343-447v35 44 32 76 37z"/><path d="m1150-498h1v51 3h-7-32v-54z"/><path d="m1151-444v32h-7v-32z"/><path d="m1103-498h9v54 32h-9z"/><path d="m1112-412h32 7v44h-48v-44z"/><path d="m1103-223v-69h9v32 37z"/><path d="m1144-260h7v37h-1-38v-37z"/><path d="m1144-292v-44h7v76h-7z"/><path d="m1112-292h-9v-44h41v44z"/><path d="m1390-223h1v31h-1z"/><path d="m1342-223v31z"/><path d="m1150-223h1v31h-1z"/><path d="m-505 523h-1z"/><path d="m-314 523v-31h1v31z"/><path d="m-314 492h-33 34z"/><path d="m-505 523v-31z"/><path d="m-554 523v-31h1v31z"/><path d="m-553 492h-1z"/><path d="m-266 756v-88 130z"/><path d="m-272 600v-32-45h6v113h-6z"/><path d="m-304 523h32v45h-32z"/><path d="m-314 574v-51h1 9v45 32h-10z"/><path d="m-304 600h32v36h-42v-36z"/><path d="m-272 724v-56h6v88h-6z"/><path d="m-304 724h-10v-56h42v56z"/><path d="m-314 756v-32h10v32z"/><path d="m-512 600v-32-45h6v51 62h-6z"/><path d="m-544 568h-10v-45h1 41v45z"/><path d="m-544 568v32h-10v-32z"/><path d="m-554 636v-36h10 32v36z"/><path d="m-516 724h-32-6v-56h48v56z"/><path d="m-506 724v32h-10v-32z"/><path d="m-554 756v-32h6v32z"/><path d="m-313 798h-1v-42h10 32 6v42z"/><path d="m-553 798h-1v-42h6 32 10v42z"/><path d="m-314 574v26 36 32 56 32 42-6z"/><path d="m-314 523v51-6z"/><path d="m-506 523v51z"/><path d="m-553 830v-18z"/><path d="m-313 812v-14z"/><path d="m-314 812v-14h1v14z"/><path d="m-314 798v14z"/><path d="m-553 830h2.0999 45.9001-7z"/><path d="m-554 812v-14h1v14z"/><path d="m479 540h-11-12-23z"/><path d="m412 540h-24z"/><path d="m367 540h-23-12z"/><path d="m367 540h-35 56z"/><path d="m332 540h-11z"/><path d="m479-219h10 11 12-12z"/><path d="m433-219h23 12 11z"/><path d="m321-219h11 12 23z"/><path d="m433-219h46-46-21z"/><path d="m321-219h46 21-21-46-21z"/><path d="m300-236h21-33z"/><path d="m388-236h-21z"/><path d="m412-219v-17h21v17z"/><path d="m367-219v-17h21v17z"/><path d="m433-236h23v17h-23z"/><path d="m367-219h-23v-17h23z"/><path d="m500-236h-21v17h21z"/><path d="m300-219h21v-17h-21z"/><path d="m500 557h-7-14 33z"/><path d="m367 557h21z"/><path d="m367 557v-17h21v17z"/><path d="m412 557v-17h21v17z"/><path d="m433 540h23v17h-23z"/><path d="m367 557h-23v-17h23z"/><path d="m1380-572h-32z"/><path d="m1144-572h-32z"/><path d="m1348-572v-32z"/><path d="m1380-572h-32v-32h32z"/><path d="m1348-604h32z"/><path d="m1380-604v32z"/><path d="m1144-604v32z"/><path d="m1144-572h-32v-32h32z"/><path d="m1112-604h32z"/><path d="m1112-572v-32z"/><path d="m1348-412v-32z"/><path d="m1348-444h32z"/><path d="m1380-412h-32v-32h32z"/><path d="m1380-412h-32z"/><path d="m1380-444v32z"/><path d="m1348-292h32z"/><path d="m1348-260v-32z"/><path d="m1380-260h-32v-32h32z"/><path d="m1380-260h-32z"/><path d="m1380-292v32z"/><path d="m1144-412h-32z"/><path d="m1144-412h-32v-32h32z"/><path d="m1112-412v-32z"/><path d="m1112-444h32z"/><path d="m1144-444v32z"/><path d="m1112-292h32z"/><path d="m1144-260h-32v-32h32z"/><path d="m1144-260h-32z"/><path d="m1112-260v-32z"/><path d="m1144-292v32z"/><path d="m1150-192v-31z"/><path d="m1151-192h33-34z"/><path d="m1184-192h-33z"/><path d="m1151-192h-1z"/><path d="m-272 600h-32z"/><path d="m-512 600h-32z"/><path d="m-512 568v32z"/><path d="m-304 600v-32z"/><path d="m-272 600h-32v-32h32z"/><path d="m-304 568h32z"/><path d="m-272 568v32z"/><path d="m-512 600h-32v-32h32z"/><path d="m-544 568h32z"/><path d="m-544 600v-32z"/><path d="m-304 756v-32z"/><path d="m-304 724h32z"/><path d="m-272 756h-32v-32h32z"/><path d="m-272 756h-32z"/><path d="m-272 724v32z"/><path d="m-516 724v32z"/><path d="m-548 724h32z"/><path d="m-516 756h-32v-32h32z"/><path d="m-516 756h-32z"/><path d="m-548 756v-32z"/><path d="m-313 830h47-6z"/><path d="m-272 908h-32z"/><path d="m-304 908v-32z"/><path d="m-272 908h-32v-32h32z"/><path d="m-304 876h32z"/><path d="m-272 876v32z"/><path d="m-544 876h32z"/><path d="m-512 908h-32z"/><path d="m-544 908v-32z"/><path d="m-512 876v32z"/><path d="m-512 908h-32v-32h32z"/><path d="m912-601.76-144 133.76h-43.886-36.114v-205h224z"/><path d="m412 540h21z"/><path d="m344 540h-12z"/><path d="m456-219h12z"/><path d="m344-236h-12z"/><path d="m412-236h21z"/><path d="m412-236v17z"/><path d="m412-219h21v-17h-21z"/><path d="m456-236h12v17h-12z"/><path d="m388-219v-17z"/><path d="m344-219h-12v-17h12z"/><path d="m456 557h12z"/><path d="m412 540v17z"/><path d="m412 557h21v-17h-21z"/><path d="m456 540h12v17h-12z"/><path d="m388 557v-17z"/><path d="m344 557h-12v-17h12z"/><path d="m742 714 4.886 4.8861h-22.772l4.886-4.8861z"/><path d="m118 714h-2.4053v-2.4051z"/><path d="m512-236h-12v17h12z"/><path d="m512 540h-12v17h12z"/><path d="m468 540h-12z"/><path d="m332-219h12z"/><path d="m332-236h-11z"/><path d="m468-236h-12z"/><path d="m288-219h12v-17h-12z"/><path d="m468 557h11z"/><path d="m332 557h12z"/><path d="m332 557h-11v-17h11z"/><path d="m288 557h12v-17h-12z"/><path d="m-116.8611-636 180.8611 168v56h-224v-224z"/><path d="m730-390 1.405-1.4051 8.19-.0001.405.4052v3.6962h-8-4.6962z"/><path d="m64.0765 941h-207.8516l207.7751-193h16.2248v193z"/><path d="m740 703v-3.6962-.6835h4.3798z"/><path d="m108-397-6.8861-6.886h6.8861z"/><path d="m108-388 .4051-.405h7.5949v4.1012h-8z"/><path d="m108-388v3.6962.6836 2.5063h-6.8861z"/><path d="m108-388-6.8861 6.8861v-22.7721l6.8861 6.886z"/><path d="m988-672.3557.6937-.6443h3.3063v37h-43.1389z"/><path d="m988-672.3557-39.1389 36.3557-36.8611 34.24v-71.24h76z"/><path d="m993-673h-4.3063z"/><path d="m988.6937-673-.6937.6443v-.6443z"/><path d="m912-673h-224v-3h47 177z"/><path d="m688-673v205h-116-23.8861v-205z"/><path d="m-156.6938-673 39.8327 37h-43.1389v-37z"/><path d="m367 540h21z"/><path d="m412-219h21z"/><path d="m388-219h-21z"/><path d="m367-236h21z"/><path d="m367-219h21v-17h-21z"/><path d="m388-236h24 21v17h-21-24-21v-17z"/><path d="m412 557h21z"/><path d="m388 557h-21z"/><path d="m367 557h21v-17h-21z"/><path d="m388 540h24 21v17h-21-24-21v-17z"/><path d="m63-676h-222.9234-1.0766 208.6z"/><path d="m287-676h-222.9235-1.0765 208.6z"/><path d="m511-676h-222.9235-1.0765 208.6z"/><path d="m735-676h-47-175.9235-1.0765 208.6z"/><path d="m959-676h-47-177 208.6z"/><path d="m-159.9234-676h222.9234 1.0765v3h-220.7703z"/><path d="m64.0765-676h222.9235 1.0765v3h-180.811-39.9593-3.2297z"/><path d="m288.0765-676h222.9235 1.0765v3h-187.9626-36.0374z"/><path d="m512.0765-676h175.9235v3h-139.8861-36.0374z"/><path d="m959-676h34v3h-5-76v-3z"/><path d="m960.0765 956h31.8471 1.0764-34z"/><path d="m64.0765 956h-1.0765-222.9235l16.1484-15h207.8516z"/><path d="m288.0765 956h-1.0765-222.9235v-15h16.1483 207.8517z"/><path d="m512.0765 956h-1.0765-222.9235v-15h16.1483 207.8517z"/><path d="m736.0765 956h-1.0765-222.9235v-15h16.1484 207.8516z"/><path d="m960.0765 956h-1.0765-222.9235v-15h16.1484 207.8516z"/><path d="m991.9236 956h-31.8471v-15h15.6986z"/><path d="m992-673h1v37h-1z"/><path d="m992 248h1v21h-1z"/><path d="m992-188v224h-224v-113-111z"/><path d="m992-412v224h-224v-113-105.886-5.114z"/><path d="m992-636v224h-224v-56l144-133.76 36.8611-34.24z"/><path d="m992 717v224h-16.2249l-207.7751-193v-25.114-3.9999-1.8861z"/><path d="m992 493v224h-224v-3-189-32z"/><path d="m992 269v224h-224v-21-203z"/><path d="m-160 269v-21h224v26.886h-224z"/><path d="m-160 36h-1v-224h1z"/><path d="m-160 248h-1z"/><path d="m-160 717v224h-1v-209-15z"/><path d="m-160 493v5.886 216.7413 1.3727h-1v-209-15z"/><path d="m-160 269v5.886 218.114h-1v-209-15z"/><path d="m992 941h1v15h-1.0764l-16.1485-15z"/><path d="m-160 941h16.2249l-16.1484 15h-1.0765v-15z"/><path d="m993 269v-21 36z"/><path d="m993 248v-48z"/><path d="m993 36v48z"/><path d="m993-572v148 12z"/><path d="m993-673v-3z"/><path d="m993-636v-37 101z"/><path d="m-161-188v224-143z"/><path d="m-161-412v224-143z"/><path d="m-161-636v224-143z"/><path d="m-161 248v-48z"/><path d="m-161 732v209 15-162-56z"/><path d="m-161 508v209 15-151-56z"/><path d="m-161 284v209 15-131-56z"/><path d="m-161-676h1.0766l3.2296 3h-3.3062-1z"/><path d="m993 36h-1z"/><path d="m993-188v224h-1v-224z"/><path d="m993-412v224h-1v-224z"/><path d="m993-636v64 160h-1v-224z"/><path d="m993 717v15 209h-1v-224z"/><path d="m993 493v15 209h-1v-224z"/><path d="m993 269v15 209h-1v-224z"/><path d="m107.4051 715.5949h8.1898l7.2911 7.2911h-22.772z"/><path d="m731.4047 711.5949h8.1902l2.4051 2.4051h-13z"/><path d="m108.4051-396.5948v8.1898l-.4051.405v-9z"/><path d="m739.5949 711.5949.0001-8.1898.405-.4051 4.3798-4.3797 2.5063-2.5064v17.8861h-4.8861z"/><path d="m731.4049-396.5949.0001-3h8.1898l.0002 3z"/><path d="m731.4049-396.5949.0001 5.1898-1.405 1.4051h-2.6962v-8h2.6962z"/><path d="m731.4047 711.5949.0003-8.1899 8.19.0001-.0001 8.1898z"/><path d="m739.595-391.4052-8.19.0001-.0001-5.1898h8.1901z"/><path d="m731.405 703.405-4.1012-4.1012h4.6962 8v3.6962l-.405.4051z"/><path d="m116.5949-396.5948v8.1898h-.5949-7.5949v-8.1898z"/><path d="m108.4051 707.405h7.1896v4.1899h-7.1896z"/><path d="m115.5947 707.405 4.1015-4.1012v2.6962 8h-1.6962l-2.4053-2.4051z"/><path d="m108 707.405h.4051v4.1899h-.4051z"/><path d="m108.4051 707.405h-.4051v-.405z"/><path d="m107.4051 707.405h.5949v4.1899h-.5949z"/><path d="m108 711.5949h7.5947v2.4051h-8.1896v-2.4051z"/><path d="m115.5947 714 .0002 1.5949h-8.1898v-1.5949z"/><path d="m115.5949 715.5949-.0002-1.5949h2.4053 1.6962 3.1899l-.0001 8.886z"/><path d="m-161-188v-224h1v224z"/><path d="m-161-412v-224h1v224z"/><path d="m-161-636v-37h1v37z"/><path d="m-161 248h1v21h-1z"/><path d="m479 540h-11z"/><path d="m321 540h-10-11-12 12 1.75z"/><path d="m479-219h-11z"/><path d="m321-219h11z"/><path d="m479-236h21 12z"/><path d="m479-236h-11z"/><path d="m479-236v17h-11v-17z"/><path d="m321-219v-17h11v17z"/><path d="m321 557h11z"/><path d="m479 540v17h-11v-17z"/><path d="m1217 184h-224z"/><path d="m1200 100h-16z"/><path d="m1184 100h-191z"/><path d="m1300-192v-16z"/><path d="m1184-192v-16z"/><path d="m1300-208h-16z"/><path d="m1200-208h84 16-116z"/><path d="m1284-124v-84h-84v84 140h84z"/><path d="m1200 16v84h17 67v-84z"/><path d="m1200-208v84z"/><path d="m1284-124v140 84-84z"/><path d="m1284 100v84z"/><path d="m1217 100h-17-16-191v84h224z"/><path d="m1284 184v-84h-67v84z"/><path d="m992 84v16z"/><path d="m992 100v84z"/><path d="m992 184v16z"/><path d="m992 84h1z"/><path d="m993 100h-1v84h1z"/><path d="m993 184h-1z"/><path d="m-160 184v16z"/><path d="m-160 84h-1z"/><path d="m-161 184h1v-84h-1z"/><path d="m-160 100h-1z"/><path d="m-363 280v44 180-12-68z"/><path d="m-161 184h-202 140z"/><path d="m-223 100h-140v84h202v-84z"/><path d="m-347 504v-12z"/><path d="m-363 504h16z"/><path d="m-363 504h-84-16z"/><path d="m-463 504h16z"/><path d="m-363 280v-80-16-84h-84v180 44h84z"/><path d="m-447 324v180h84v-180z"/><path d="m-447 100v84 16 80z"/><path d="m993-572v62 55 31z"/><path d="m993-188v212 12z"/><path d="m993-412v212 12z"/><path d="m1300-208v16h-16-100v-16z"/><path d="m1300-208v16z"/><path d="m-161-107v143 48 33-154-55z"/><path d="m-161-331v143 81-138-56z"/><path d="m-161-555v143 81-124-55z"/><path d="m-161-676v3 37z"/><path d="m-161 84v-48z"/><path d="m992 84h1z"/><path d="m992 200h1z"/><path d="m992 184v-84-16h1v116h-1z"/><path d="m-160 84v16 84 16z"/><path d="m-161 200h1z"/><path d="m-161 117v-33h1v116h-1z"/><path d="m-313 523h6 23 18-6-32z"/><path d="m-347 492v12h-16-100v-12z"/><path d="m-313 523v-31z"/><path d="m-347 504h-16z"/><path d="m-463 492h-42 28z"/><path d="m-505 492h42z"/><path d="m992 120v32z"/><path d="m988 152v-32z"/><path d="m992 152h-4z"/><path d="m992 120h-4v32h4z"/><path d="m-160 120v32h4v-32z"/><path d="m1390-223h-48 1 37z"/><path d="m1150-223h48.2551-8.8098-45.4453-22.9969-18.0031z"/><path d="m1150-223h-47 9z"/><path d="m1342-498h45.9 2.1-42-5z"/><path d="m1342-498h-2.1z"/><path d="m1150-498h-38-9 18.0031 4.9969 23.3z"/><path d="m1390-656v-32z"/><path d="m1390-498v-32 18z"/><path d="m1103-656h47-38z"/><path d="m1342-656h48-42z"/><path d="m1150-656v-32z"/><path d="m1342-688v32z"/><path d="m1342-656v-32h-29v32z"/><path d="m1150-688v32h29v-32z"/><path d="m1342-530v32-14z"/><path d="m1150-530h48.2551-8.8094-45.4457-18z"/><path d="m1150-530h-.7-23.3-4.9969-18.0031z"/><path d="m1150-530v18 14z"/><path d="m1150-530v32h28v-32z"/><path d="m1390-192v-31z"/><path d="m1342-192v-31h-28v31z"/><path d="m1342-192h-.7001-57.2999 16z"/><path d="m1150-223v31h28v-31z"/><path d="m-313 523h-28-20.2553 8.8097z"/><path d="m-553 492v31z"/><path d="m-505 492v31h28v-31z"/><path d="m-313 492v31z"/><path d="m-313 492h-34-116 54 68z"/><path d="m-313 523v-31h-28v31z"/><path d="m-553 492h-1z"/><path d="m-266 830v126z"/><path d="m-553 798h47 1-45.9z"/><path d="m-505 798h2.1z"/><path d="m-266 798h-47z"/><path d="m-553 798v32-18z"/><path d="m-505 988v-32z"/><path d="m-505 830v-32 14z"/><path d="m-313 830h-28-20.2553 8.8097 45.4456 23.0022 17.9978z"/><path d="m-313 830v-18-14z"/><path d="m-313 830v-32h-28v13 19z"/><path d="m-505 956h29z"/><path d="m-266 956h-47 41z"/><path d="m-313 956v32z"/><path d="m-505 956v32h29v-32z"/><path d="m-313 988v-32h-29v32z"/><path d="m-505 956h-5.155-42.845z"/><path d="m-554 830v158z"/><path d="m-554 764v-96 56 32 42 14 18z"/><path d="m-554 636v-144 31 45 32z"/><path d="m1391-592v224-44-32-54-14z"/><path d="m1391-688h-1-42 2.0314z"/><path d="m1391-688h-40.9686-1.0314v96h42z"/><path d="m1391-336h-42v144h41 1z"/><path d="m-554 764v66 158h1 41v-224z"/><path d="m1103-336v44 69z"/><path d="m1103-498v86 44z"/><path d="m1103-656v84 42z"/><path d="m1151-336v-32z"/><path d="m1343-368h48z"/><path d="m1151-368h29 20.8199-11.9563z"/><path d="m1391-336h-43-5z"/><path d="m1343-336v-32z"/><path d="m1151-368v32h29v-32z"/><path d="m1151-368h-6-42z"/><path d="m1103-336h18.0031 23.9969 6-7z"/><path d="m1391-192h-1z"/><path d="m1284-192h57.2999-27.2999z"/><path d="m1284-192h-38-68-28 34z"/><path d="m-266 523v113z"/><path d="m-266 636v-113h-18-22.5463-1.4537v113z"/><path d="m-266 668h-42v96 34h23.9921.0101 17.9978z"/><path d="m-314 668h48-6z"/><path d="m-554 668h42 6z"/><path d="m-266 636h-48 42z"/><path d="m-554 636h48 29-59.9285z"/><path d="m-506 636h-48 42z"/><path d="m-314 636v32z"/><path d="m-314 668v-32h-29v12 20z"/><path d="m-506 668v-32z"/><path d="m1342-498h-2.1-25.9 58.1819 15.7181z"/><path d="m1339.9-530h2.1z"/><path d="m1339.9-530h-25.9v19 13h25.9 2.1v-32z"/><path d="m1251-518-4 4 4 3z"/><path d="m1243-511v-7h8v7z"/><path d="m1251-511-4-3-4 3z"/><path d="m1243-511 4-3-4-4z"/><path d="m1243-518 4 4 4-4z"/><path d="m1243-348v-7h8v7z"/><path d="m1251-348-4-3-4 3z"/><path d="m1243-348 4-3-4-4z"/><path d="m1243-355 4 4 4-4z"/><path d="m1251-355-4 4 4 3z"/><path d="m-505 798h2.1 25.9-58.1818-15.7182z"/><path d="m-414 648v7l4-4z"/><path d="m-406 648v7h-8v-7z"/><path d="m-406 655v-7l-4 3z"/><path d="m-406 648h-8l4 3z"/><path d="m-414 655h8l-4-4z"/><path d="m-550.9 798h15.7182 24.1818v32h-24.1818-15.7183-2.0999v-32z"/><path d="m-502.9 830h-2.1z"/><path d="m-414 818 4-4-4-3z"/><path d="m-406 811v7h-8v-7z"/><path d="m-406 811-4 3 4 4z"/><path d="m-414 811 4 3 4-3z"/><path d="m-406 818-4-4-4 4z"/><path d="m-502.9 830h25.9v-32h-25.9-2.1v32z"/><path d="m-505 830h-45.9001 15.7183z"/><path d="m512 540v17z"/><path d="m512-236v17z"/><path d="m512-219h-12v-17h12z"/><path d="m512 557h-12v-17h12z"/><path d="m288-219v-17z"/><path d="m288 557v-17z"/><path d="m512 540h-33 21z"/><path d="m479 540h33-12-11-21z"/><path d="m321 540h11z"/><path d="m479-219h-11z"/><path d="m288-219h12 11 10-21z"/><path d="m512-236h-12-11-21 11z"/><path d="m479-219v-17z"/><path d="m479-236h-11v17h11z"/><path d="m321-236v17z"/><path d="m321-219h11v-17h-11z"/><path d="m288-236h12v17h-12z"/><path d="m288 557h12 11 21-11z"/><path d="m479 557v-17z"/><path d="m479 540h-11v17h11z"/><path d="m321 540v17z"/><path d="m321 557h11v-17h-11z"/><path d="m288 540h12v17h-12z"/><path d="m432 558h-64v24h64z"/><path d="m432-261h-64v24h64z"/><path d="m-161 117v83z"/><path d="m-160 152v-32z"/><path d="m988 120h4z"/><path d="m992 152h-4v-32h4z"/><path d="m-156 152h-4z"/><path d="m-160 120h4z"/><path d="m-160 152v-32h4v32z"/><path d="m-156 120v32z"/><path d="m1251-519v8z"/><path d="m1243-511v-8z"/><path d="m1251-511v-8h-8v8z"/><path d="m1251-511h-8 3z"/><path d="m1243-519h8-5z"/><path d="m1243-348v-8z"/><path d="m1251-348v-8h-8v8z"/><path d="m1243-356h8-4z"/><path d="m1251-356v8z"/><path d="m1251-348h-8 4z"/><path d="m-414 656v-8z"/><path d="m-406 648v8z"/><path d="m-414 648v8h8v-8z"/><path d="m-406 656h-8 4z"/><path d="m-414 648h8-4z"/><path d="m-414 819v-8z"/><path d="m-406 811v8z"/><path d="m-414 811v8h8v-8z"/><path d="m-414 811h8-3z"/><path d="m-406 819h-8 5z"/><path d="m1372.9286-656h17.0714-48-29z"/><path d="m432 558v24z"/><path d="m368 582v-24z"/><path d="m368 558h64z"/><path d="m432 582h-64z"/><path d="m432 582h-64v-24h64z"/><path d="m432-261v24z"/><path d="m368-237v-24z"/><path d="m432-237h-64z"/><path d="m368-261h64z"/><path d="m432-237h-64v-24h64z"/><path d="m1373.9281-368h-59.9281 29 48z"/><path d="m1120.9971-656h23.3775.4704z"/><path d="m-283.9978 830h-24.0022v126h.6252 23.3748 18v-126z"/><path d="m1121.0031-336h-18.0031v113h18.0031z"/><path d="m1121.0031-192h-.0075 24.4873-.4829z"/><path d="m-284.0079 798h-23.9921v32h24.0022v-32z"/><path d="m300-236h-12 33 11-21z"/><path d="m500-219h-11v-17h11z"/><path d="m300-236h11v17h-11z"/><path d="m500 557h12-33-11 21z"/><path d="m500 557h-11v-17h11z"/><path d="m300 540h11v17h-11z"/><path d="m-505 830h-30.1818 24.1818z"/><path d="m1179-688h67 67 29-192z"/><path d="m1314-223h28 48-17.8181z"/><path d="m1179-688v32h67v-32z"/><path d="m1313-688h-67v32h67z"/><path d="m1314-498v-13h-63-5v13z"/><path d="m1314-530h-63v11 8h63z"/><path d="m1314-530h25.9 2.1 45.9-15.7181z"/><path d="m1178-223v31h68v-31z"/><path d="m-477 523h-28z"/><path d="m-341 523v-31h-68v31z"/><path d="m-477 523h68v-31h-54-14z"/><path d="m-341 798h-20.2553-47.7447z"/><path d="m-477 798h63 5 47.7447 8.81-56.5547-96-6-24.1818z"/><path d="m-341 798h28 47-17.9978-.0101-22.9921-45.4453-8.81z"/><path d="m-477 830h-25.9-2.1z"/><path d="m-477 830h63v-11-8-13h-63z"/><path d="m-342 956h-20.82-46.18z"/><path d="m-476 956h67 58.1361-58.1361-96z"/><path d="m-342 988v-32h-67v32z"/><path d="m1314-336h59.9286 17.0714-48z"/><path d="m1314-368v12 20h29v-32z"/><path d="m-477 668h-29z"/><path d="m-343 636h-20.8202-46.1798z"/><path d="m-477 636h125.1367-58.1367-102-24.9285z"/><path d="m-477 668v-32h-29v32z"/><path d="m311 557v-17h10 11v17z"/><path d="m489 540v17h-21v-17z"/><path d="m321-219h-10v-17h21v17z"/><path d="m489-236v17h-10-11v-17z"/><path d="m321-219h11z"/><path d="m332-236v17z"/><path d="m468-219v-17z"/><path d="m332 540v17z"/><path d="m468 557v-17z"/><path d="m1284-192h30v-31h-68v31z"/><path d="m-414 830h5v-11h-5z"/><path d="m1251-530h-5v11h5z"/><path d="m1243-511v-8-11h-65v32h65z"/><path d="m-406 819v11h65v-19h-65z"/><path d="m-406 811h65v-13h-68v13z"/><path d="m1243-530h3-47.7449-20.2551z"/><path d="m1243-498h3v-13h-3z"/><path d="m1251-356h63v-12h-67v12z"/><path d="m1251-348v12h63v-20h-63z"/><path d="m1243-348v-8-12h-63v32h63z"/><path d="m-406 656v12h63v-20h-63z"/><path d="m-406 648h63v-12h-67v12z"/><path d="m-414 656v-8-12h-63v32h63z"/><path d="m1243-368h4-46.1801-20.8199z"/><path d="m1243-336h4v-12h-4z"/><path d="m-414 668h4v-12h-4z"/><path d="m1246-498h-3-65 20.2554z"/><path d="m1246-656h-67 20.8199z"/><path d="m1246-519v-11h-3v11z"/><path d="m-409 798h-5v13h5z"/><path d="m-409 819v11h3v-11z"/><path d="m-409 956h-67v32h67z"/><path d="m1247-368h67 59.9281-24.9281-102-58.1364z"/><path d="m1247-336h-4-63 20.8199z"/><path d="m1247-356v-12h-4v12z"/><path d="m1247-348v12h4v-12z"/><path d="m-410 656v12h4v-12z"/><path d="m-410 636h-4v12h4z"/><path d="m1348.8284-656h24.1002-59.9286-67-46.1801-11.9564 56.0965z"/><path d="m-306.5463 523h22.5463v-31h-22.5464z"/><path d="m-306.5464 492h22.5464-23z"/><path d="m1348-498h24.1819-58.1819-68-47.7446-8.8096 56.5542z"/><path d="m1144-530v32h-22.9969v-32z"/><path d="m1348-530v32h-102v-32z"/><path d="m1348-498v-32h42v32z"/><path d="m1144-223v31h-22.9969v-31z"/><path d="m1348-192v-31h24.1819 17.8181v31z"/><path d="m1348-223v31h-102v-31z"/><path d="m1348-192h-1.897-95.523-4.58z"/><path d="m-511 523h6-1-6-41z"/><path d="m-511 492v31h-42v-31z"/><path d="m-307 492v31h-6-39.4456-56.5544v-31z"/><path d="m-307 523v-31h23.0105v31z"/><path d="m-307 830v-32h23.0105v32z"/><path d="m-511 988h1.0313-2.0313-41z"/><path d="m1348-688v32h-102v-32z"/><path d="m1348-656v-32h42v32z"/><path d="m1348-656h.8284-104.8684 2.04z"/><path d="m-511 956v32h-42v-32z"/><path d="m-307.3748 956h-.4695 23.8443z"/><path d="m-307.8443 956h-43.0196-11.9561 49.82 47-18z"/><path d="m-510.155 956h-.845-42z"/><path d="m-505 830h-6v-32h6z"/><path d="m1349-688h1.0314-2.0314-102 2.54z"/><path d="m1349-688h-100.46-1.54v96h102z"/><path d="m1349-336h-102v144h3.58 95.523 2.897z"/><path d="m1349-592v224h24.9281 17.0719v-224z"/><path d="m-512 668h-42v96h42z"/><path d="m-512 492h-41-1v144h17.0715 24.9285z"/><path d="m-512 764v224h2.0313 98.4287 1.54v-224z"/><path d="m1145-592v62 32 130h6 37.8636 58.1364v-224z"/><path d="m1145-656v-32h-.6254v32z"/><path d="m1145-592v-64h-24.0029-17.9971v126h42z"/><path d="m1145-498v-32h-23.9969v32z"/><path d="m1145-498h-42v130h42z"/><path d="m1145-336h-23.9969v113 31h23.9969z"/><path d="m1349-336h24.9286-59.9286-63-4-46.1801-11.9561 58.1362z"/><path d="m1349-192h-2.897 43.897z"/><path d="m-308 668h-43.8642-58.1358v96h102z"/><path d="m-308 492h1.4536-.4536-102-4.5799 3.5799z"/><path d="m-308 492v31h1.4537l-.0001-31z"/><path d="m-512 492h2.897-1.897-42z"/><path d="m-308 956v32h.6253l-.0001-32z"/><path d="m-308 668h42-48-49.8201 11.9559z"/><path d="m-308 636h-43.8633-11.9569 20.8202 29 48z"/><path d="m-505 956h96v32h-102v-32z"/><path d="m-509.103 492h95.5231 4.5799-102z"/><path d="m1151-336h37.8638 11.9561-20.8199z"/><path d="m-361.2553 830h20.2553-65-3z"/><path d="m-361.2553 523h20.2553-68z"/><path d="m1198.2551-223h47.7449 68 58.1819-24.1819-102-56.5547z"/><path d="m1198.2551-223h-20.2551 68z"/><path d="m1198.2551-530h47.7449 5 63 58.1819-24.1819-102-56.5543z"/><path d="m-363.8201 668h20.8201-63-4z"/><path d="m1189.4458-498h8.8096-48.2554-24 18z"/><path d="m1189.4457-530h56.5543v32h-56.5542-45.4458v-32z"/><path d="m-352.4456 523h-8.8097-47.7447-68-28 96z"/><path d="m-352.4456 830h-8.8097-47.7447-5-63-28 96z"/><path d="m1189.4453-223h56.5547v31h-102v-31z"/><path d="m-352.4453 798h45.4453v32h-45.4456-56.5544v-32z"/><path d="m1187.8635-656h11.9564-49.8199-47 17.9971 23.8479z"/><path d="m-350.8639 956h43.0196.4695l.0001 32h-101.6253v-32z"/><path d="m-351.8633 636h43.8633v-113-31h-102v144z"/><path d="m-351.8642 668h-11.9559-46.1799-4-63-29 96z"/><path d="m1246-192h4.58-3.58-101.5171-1.4829z"/><path d="m-409 492v31h-96-6v-31z"/><path d="m-409 798v32h-96v-32z"/><path d="m-409 988h-2.54-98.4287-1.0313z"/><path d="m-409 988h101.6253-.6253-102-1.54z"/><path d="m1246-688v32h-58.1365-43.0185-.4704v-32z"/><path d="m1247-688h1.54-2.54-101.6254.6254z"/><path d="m1247-592v224h102v-224z"/><path d="m-410 636v-144h-3.5799-95.5231-2.897v144z"/><path d="m-410 668h-96-6v96h102z"/><path d="m1247-688h-102v32 64h102z"/><path d="m1247-336h-96-6v144h.4829 101.5171z"/><path d="m-410 764v224h102v-32-126-32-34z"/><path d="m-176.4 794h15.4v162h-15.4z"/><path d="m-176.4 581h15.4v151 6h-15.4z"/><path d="m-176.4 377h15.4v131 17h-15.4z"/><path d="m-176.4 171h15.4v77 36 37h-15.4z"/><path d="m-161-37v154h-15.4v-154z"/><path d="m993 956v-162h15.4v162z"/><path d="m993 738v-6-151h15.4v157z"/><path d="m993 525v-17-131h15.4v148z"/><path d="m993 284v-36-77h15.4v150h-15.4z"/><path d="m993 117v-93-61h15.4v154z"/><path d="m-161-455v124 30h-15.4v-154z"/><path d="m-161-245v138 15h-15.4v-153z"/><path d="m-161-676v121 45h-15.4v-166z"/><path d="m993-92v-108-45h15.4v153z"/><path d="m993-301v-123-31h15.4v154z"/><path d="m993-572v-104h15.4v166h-15.4z"/><path d="m959 956h34 15.4-64.8z"/><path d="m47.6-676h-208.6-15.4 92.4z"/><path d="m271.6-676h-208.6-15.4 77.4z"/><path d="m495.6-676h-208.6-15.4 36.4 108z"/><path d="m719.6-676h-208.6-15.4 16.4 32 160z"/><path d="m1008.4 525v-148h-81.2102v148z"/><path d="m1008.4 171h-81.2102-11.1898v49 101h11.1898 81.2102z"/><path d="m1008.4 117v-154h-81.2102v154z"/><path d="m1008.4-676h-64.8-27.6v166h11.1898 81.2102z"/><path d="m993-455h-77-10.9645 22.1543 81.2102z"/><path d="m993-37h-77-10.9645 22.1543 81.2102z"/><path d="m993-245h-77-10.9645 22.1543 81.2102z"/><path d="m993 581h-77-10.9645 22.1543 81.2102z"/><path d="m993 171h-77-10.9645 22.1543 81.2102z"/><path d="m993 377h-77-10.9645 22.1543 81.2102z"/><path d="m993 794h-77-10.9645 22.1543 81.2102z"/><path d="m-161-301h77-21.1455-71.2545z"/><path d="m-161-510h77-21.1455-71.2545z"/><path d="m-161-455h77v-55h-77z"/><path d="m-161-92h77-21.1455-71.2545z"/><path d="m-161-245h77v-56h-77z"/><path d="m-161-37h77v-55h-77z"/><path d="m-161 525h77-21.1455-71.2545z"/><path d="m-161 738h77-21.1455-71.2545z"/><path d="m-161 581h77v-56h-77z"/><path d="m-161 794h77v-56h-77z"/><path d="m993 732v6 56 162-15z"/><path d="m993 508v17 56 151-15z"/><path d="m993 284v37 56 131-15z"/><path d="m993 24v93 54 77-48-116-48z"/><path d="m993-200v108 55 61-212z"/><path d="m993-424v123 56 45-212z"/><path d="m993-676v104-101z"/><path d="m993-676h-34z"/><path d="m-161-676v40 81z"/><path d="m-161 248v-77-54 83z"/><path d="m-161 248v21 15z"/><path d="m63 956h-15.4-208.6 1.0765z"/><path d="m287 956h-15.4-208.6 1.0765z"/><path d="m511 956h-15.4-208.6 1.0765z"/><path d="m735 956h-15.4-208.6 1.0765z"/><path d="m959 956h-15.4-208.6 1.0765z"/><path d="m943.6-676h64.8-15.4-34z"/><path d="m943.6 956h-27.6-196.4 15.4z"/><path d="m-105.1455-510h9.9557 11.1898v-166h-92.4v166z"/><path d="m-105.1455-301h9.9557 11.1898v-151-3h-11.1898-9.9554-71.2548v154z"/><path d="m-105.1455-301h21.1455 209-61.811-158.3788z"/><path d="m-105.1455-510h21.1455 209-61.811-158.3788z"/><path d="m-105.1455-92h9.9557 11.1898v-136-17h-11.1898-9.9554-71.2548v153z"/><path d="m-105.1455 117h9.9557 11.1898v-121-33h-11.1898-9.9556-71.2546v154z"/><path d="m-105.1455-92h21.1455 209-61.811-158.3788z"/><path d="m-105.1455 117h21.1455 209-61.811-158.3788z"/><path d="m-105.1455 738h9.9557 11.1898v-70-87h-11.1898-9.9554-71.2548v157z"/><path d="m-105.1455 525h21.1455 209-61.811-158.3788z"/><path d="m-105.1455 738h21.1455 209-61.811-158.3788z"/><path d="m-105.1454 321h9.9556 11.1898v-101-49h-11.1898-9.9554-71.2548v150z"/><path d="m-105.1454 321h21.1454 209-61.8115-158.3783z"/><path d="m-105.1452 377h21.1452-77-15.4z"/><path d="m-105.1452 171h21.1452-77-15.4z"/><path d="m-105.1452 581h21.1452-77-15.4z"/><path d="m-105.1452 794h21.1452-77-15.4z"/><path d="m916 794h77v-56h-77z"/><path d="m916 581h77v-56h-77z"/><path d="m916 377h77v-56h-77z"/><path d="m916 171h77v-54h-77z"/><path d="m916-37h77v-55h-77z"/><path d="m916-245h77v-56h-77z"/><path d="m916-455h77v-55h-77z"/><path d="m-84-455h-77-15.4 71.2548z"/><path d="m-84-455h209v-55h-209z"/><path d="m-84-245h-77-15.4 71.2548z"/><path d="m-84-245h209v-56h-209z"/><path d="m-84-37h-77-15.4 71.2546z"/><path d="m-84-37h209v-55h-209z"/><path d="m916 525h-10.9645-41.1964z"/><path d="m916 117h-10.9645-41.1964z"/><path d="m916 321h-10.9645-41.1964z"/><path d="m-84 117h-21.1455-71.2545 15.4z"/><path d="m-84 171v-54h-77v54z"/><path d="m-84 171h209v-54h-209z"/><path d="m-84 321h-21.1454-71.2546 15.4z"/><path d="m-84 377v-56h-77v56z"/><path d="m-84 377h209v-56h-209z"/><path d="m-84 581h209v-56h-209z"/><path d="m-84 794h209v-56h-209z"/><path d="m927.1898-245h-11.1898v17 136h11.1898 81.2102v-153z"/><path d="m927.1898-245v-56h-11.1898v56z"/><path d="m-95.1898-37h11.1898v-55h-11.1898z"/><path d="m-95.1898 377h11.1898v-56h-11.1898z"/><path d="m927.1898 321h-11.1898v36h11.1898z"/><path d="m927.1898-455h-11.1898v3 151h11.1898 81.2102v-154z"/><path d="m927.1898-455v-55h-11.1898v55z"/><path d="m927.1898-92h-11.1898v39h11.1898z"/><path d="m927.1898 794h-11.1898v98 64h27.6 64.8v-162z"/><path d="m927.1898 794v-56h-11.1898v56z"/><path d="m927.1898 581h-11.1898v87 70h11.1898 81.2102v-157z"/><path d="m905.0355-510h22.1543v55h-22.1543-41.1963-143.8392v-55z"/><path d="m905.0355-301h22.1543v56h-22.1543-41.1963-143.8392v-56z"/><path d="m905.0355-92h22.1543v39 16h-22.1543-41.1963-143.8392v-55z"/><path d="m905.0355 738h22.1543v56h-22.1543-41.1963-143.8392v-56z"/><path d="m905.0355-301h10.9645 77 15.4-81.2102z"/><path d="m905.0355-510h10.9645 77 15.4-81.2102z"/><path d="m905.0355-92h10.9645 77 15.4-81.2102z"/><path d="m905.0355 738h10.9645 77 15.4-81.2102z"/><path d="m905.0355 117h10.9645 77 15.4-81.2102z"/><path d="m905.0355 321h10.9645 77 15.4-81.2102z"/><path d="m905.0355 525h10.9645 77 15.4-81.2102z"/><path d="m905.0355-37h10.9645-52.1608z"/><path d="m905.0355 377h10.9645-52.1608z"/><path d="m905.0355 171h10.9645-52.1608z"/><path d="m863.8392-37h-159.8377-64.1612.1597 80z"/><path d="m863.8392 377h-159.8377-64.1612 80.1597z"/><path d="m863.8392 171h-159.8377-64.1612 80.1597z"/><path d="m863.8392 171h52.1608v-54h-52.1609-159.8391l.0015 54z"/><path d="m863.8392 377h52.1608v-56h-52.1609-159.8391l.0015 56z"/><path d="m916-676h27.6-208.6-15.4z"/><path d="m-84-455v-55h-11.1898v55z"/><path d="m-84-245v-56h-11.1898v56z"/><path d="m-84 171v-54h-11.1898v54z"/><path d="m-84 444v-67h-11.1898-9.9554-71.2548v148h71.2545 9.9557 11.1898z"/><path d="m-84 581v-56h-11.1898v56z"/><path d="m-84 794v-56h-11.1898v56z"/><path d="m-84 956v-64-98h-11.1898-9.9554-71.2548v162z"/><path d="m916 357v87 137h11.1898v-56-148-20z"/><path d="m916-53v49 175h11.1898v-54-154-16z"/><path d="m-84-452v151 56 17h209v-224z"/><path d="m-84-228v136 55 33h209v-33-191z"/><path d="m-84-4v121 54 49h209v-33-191z"/><path d="m-84 220v101 56 67h209v-33-191z"/><path d="m-84 444v81 56 87h209v-176-48z"/><path d="m-84 668v70 56 98h209v-176-48z"/><path d="m-84 892v64h131.6 77.4v-64z"/><path d="m916-455v-55-166h-196.4-15.6v224h212z"/><path d="m863.8392-455h41.1963 10.9645z"/><path d="m863.8392-245h41.1963 10.9645z"/><path d="m863.8392 581h41.1963 10.9645z"/><path d="m863.8392 794h41.1963 10.9645z"/><path d="m863.8391 117h41.1964 22.1543v54h-22.1543-41.1963-143.8392v-54z"/><path d="m863.8391 321h41.1964 22.1543v36 20h-22.1543-41.1963-143.8392v-56z"/><path d="m863.8391 525h41.1964 22.1543v56h-22.1543-41.1963-143.8392v-56z"/><path d="m863.8391 525h-143.8391-80-.1609 64.1609z"/><path d="m863.8391 117h-143.8391-80.1601 64.1601z"/><path d="m863.8391 321h-143.8391-80.1601 64.1601z"/><path d="m47.6 956h-131.6-92.4 15.4z"/><path d="m63.1885 321h48.8115v56h-48.8119-158.3779v-56z"/><path d="m63.189 117h48.811v54h-48.8119-158.3779v-54z"/><path d="m63.189-510h48.811v55h-48.8119-158.3779v-55z"/><path d="m63.189-301h48.811v56h-48.8119-158.3779v-56z"/><path d="m63.189-92h48.811v55h-48.8113-158.3785v-55z"/><path d="m63.189 525h48.811v56h-48.8119-158.3779v-56z"/><path d="m63.189 738h48.811v56h-48.8119-158.3779v-56z"/><path d="m704-455h-64-100.9847 100.8239z"/><path d="m125-455h-209-21.1452 9.9554 158.3779z"/><path d="m704-455h159.8392 52.1608v-55h-212z"/><path d="m704-455v-55h-16-48v55z"/><path d="m704.0015-245h-64.0015-100.9847 100.825z"/><path d="m125-245h-209-21.1452 9.9554 158.3779z"/><path d="m704.0015-245h159.8377 52.1608v-56h-212z"/><path d="m704.0015-245-.0015-56h-16-48v56z"/><path d="m125-37h-209-21.1454 9.9556 158.3785z"/><path d="m704.0015-37h159.8377 52.1608v-55h-212z"/><path d="m704.0015-37-.0015-55h-16-48v55z"/><path d="m125 377h-209-21.1452 9.9554 158.3779z"/><path d="m704.0015 171h-160.0015 95.8403z"/><path d="m704 117h-64.1601-95.8399z"/><path d="m704.0015 171-.0015-54h-160v54z"/><path d="m704 321h-64.1601-95.8399z"/><path d="m704.0015 377-.0015-56h-160v3 53z"/><path d="m125 171h-209-21.1452 9.9554 158.3779z"/><path d="m125 377h151v-53-3h-151z"/><path d="m704 581h-64-100.9847 100.8239z"/><path d="m125 581h-209-21.1452 9.9554 158.3779z"/><path d="m704 581h159.8392 52.1608v-56h-52.1609-159.8391z"/><path d="m704 581v-56h-64v56z"/><path d="m704 794h-64-100.9847 100.8239z"/><path d="m125 794h-209-21.1452 9.9554 158.3779z"/><path d="m704 794h159.8392 52.1608v-56h-212z"/><path d="m704 794v-56h-16-48v56z"/><path d="m688-301h16z"/><path d="m688-510h16z"/><path d="m688-92h16z"/><path d="m688 738h16z"/><path d="m688-510h16 212-10.9645-185.0355z"/><path d="m688-510h-48-100.983 100.983z"/><path d="m688 738h16 212-10.9645-185.0355z"/><path d="m688 738h-48-84 84z"/><path d="m688-301h16 212-10.9645-185.0355z"/><path d="m688-301h-48-100.983 100.983z"/><path d="m688-92h16 212-10.9645-185.0355z"/><path d="m688-92h-48-100.983 100.983z"/><path d="m640 525h64-64.1609-83.8391z"/><path d="m640 525h-84-140v56h123.0153 100.9847z"/><path d="m640-510h-100.983-123.017v55h123.0153 100.9847z"/><path d="m640-301h-100.983-123.017v56h123.0153 100.9847z"/><path d="m640-92h-100.983-123.017v55h123.0153 100.9847z"/><path d="m640 738h-84-140v56h123.0153 100.9847z"/><path d="m276 171h1.4293l-.0013-54h-1.428-151v54z"/><path d="m276 117h1.428z"/><path d="m276 321h1.428z"/></g><g id="c"><path d="m112 525h-48.811 61.811 162.189z"/><path d="m308 117v54z"/><path d="m308 316v5z"/><path d="m308 321v3z"/><path d="m544 117v54z"/><path d="m544 321v3z"/><path d="m512 316v-128-17z"/><path d="m512 171v-54z"/><path d="m544 171v-54-153h-32v4 149 54 17h32z"/><path d="m512 188v128 5 3h32v-3-133z"/><path d="m112 321h164v3 53h-164z"/><path d="m112 117h164v54h-164z"/><path d="m112 171h164-151-61.8119z"/><path d="m277.4293 171h-1.4293z"/><path d="m276 117h-164-48.811 61.811z"/><path d="m276 117v-153 136z"/><path d="m308-32v-4h-32v153h1.428 30.572z"/><path d="m277.4293 171h30.5707v-54h-30.572z"/><path d="m276 171v150z"/><path d="m308 316v-145h-30.5707-1.4293v150h1.428 30.572z"/><path d="m277.4286 324h30.5714v-3h-30.572z"/><path d="m277.4286 324-.0006-3h-1.428v3z"/><path d="m277.4286 324h-1.4286v53h11.1881 20.8119v-53z"/><path d="m276 321h-164-48.8115 61.8115z"/><path d="m112 738h-48.811 61.811 162.189z"/><path d="m720 525v56h-80v-56z"/><path d="m719.6 956h-15.6-64-144.4 15.4z"/><path d="m544 324h-32z"/><path d="m287.1881-455h-162.1881-61.8119 48.8119z"/><path d="m287.1881-245h-162.1881-61.8119 48.8119z"/><path d="m287.1881-37h-162.1881-61.8113 48.8113z"/><path d="m287.1881 377h-11.1881-151-61.8119 48.8119 164z"/><path d="m287.1881 581h-162.1881-61.8119 48.8119z"/><path d="m287.1881 794h-162.1881-61.8119 48.8119z"/><path d="m287.189 525h44.811z"/><path d="m287.189 738h44.811z"/><path d="m539.0153-455h-123.0153-100.9847 20.9847 80z"/><path d="m539.0153-245h-123.0153-100.9847 20.9847 80z"/><path d="m539.0153-37h-123.0153-100.9847 20.9847 80z"/><path d="m539.0153 377h-27.0153-96-100.9827 100.9827 96z"/><path d="m539.0153 581h-123.0153-100.9847 20.9847 80z"/><path d="m539.0153 794h-123.0153-100.9847 20.9847 80z"/><path d="m308 117v-149z"/><path d="m308 324h-30.5714z"/><path d="m688-510h32v55h-80v-55z"/><path d="m688-301h32v56h-80v-56z"/><path d="m688-92h32v55h-80v-55z"/><path d="m688 738h32v56h-80v-56z"/><path d="m512 117v-149 124z"/><path d="m512 324v-3z"/><path d="m512 321v-5z"/><path d="m512 377h27.0153 4.9847v-53h-32z"/><path d="m332 525h17 67z"/><path d="m332 117h84z"/><path d="m332 321h84z"/><path d="m332 738h17 67z"/><path d="m125-676h-77.4-131.6v166 55 3h209z"/><path d="m704-452v224h212v-17-56-151z"/><path d="m704-228v224h212v-49-39-136z"/><path d="m704-4v224h212v-49-175z"/><path d="m704 220v157 67h212v-87-36-101z"/><path d="m704 444v157 67h212v-87-137z"/><path d="m704 668v157 67h212v-98-56-70z"/><path d="m704 892v64h15.6 196.4v-64z"/><path d="m704 444v-67h-64v224h64z"/><path d="m704-676h-160v224h160z"/><path d="m125 716v176 64h146.6 60.4v-192-48z"/><path d="m125 187v33 191h151v-34-53-137z"/><path d="m125 411v33 48h151v-81z"/><path d="m125-452v224h183v-224z"/><path d="m125-228v191h151 32v-191z"/><path d="m349-301h67-100.983-27.828z"/><path d="m349-510h67-100.983-27.828z"/><path d="m349-510h-61.811-162.189v55h162.1881 61.8119z"/><path d="m349-92h67-100.983-27.828z"/><path d="m349-301h-61.811-162.189v56h162.1881 61.8119z"/><path d="m349-92h-61.811-162.189v55h162.1881 61.8119z"/><path d="m349 525h-17-44.811-162.189v56h162.1881 61.8119z"/><path d="m349 738h-17-44.811-162.189v56h162.1881 61.8119z"/><path d="m640-455h80 143.8392-159.8392-64.1608z"/><path d="m640-455h-.1608-100.8239-123.0153v-55h123.017 100.983z"/><path d="m640-245h80 143.8392-159.8377-64.1612z"/><path d="m640-245h-.1597-100.825-123.0153v-56h123.017 100.983z"/><path d="m640-37h-.1597-100.825-123.0153v-55h123.017 100.983z"/><path d="m640 581h80 143.8392-159.8392-64.1608z"/><path d="m640 581h-.1608-100.8239-123.0153v-41-15h140 83.8391.1609z"/><path d="m640 794h80 143.8392-159.8392-64.1608z"/><path d="m640 794h-.1608-100.8239-123.0153v-30-26h140 84z"/><path d="m639.8403-37h64.1612-64.0015-100.9847z"/><path d="m639.8399 117h80.1601v54h-80.1597-95.8403v-54z"/><path d="m639.8399 321h80.1601v56h-80.1597-95.8403v-53-3z"/><path d="m640 377h-96-32-96v148 15 41 20h224z"/><path d="m640 601v224h64v-157-67z"/><path d="m640 825v131h64v-64-67z"/><path d="m416-455v-55h-67v55z"/><path d="m416-245v-56h-67v56z"/><path d="m416-37v-55h-67v55z"/><path d="m416 377h-108-20.8119 20.8119 7.0173z"/><path d="m416 171h-108 7.0173z"/><path d="m416 171v-54h-84-24v54z"/><path d="m416 171h96v-54h-96z"/><path d="m416 377v-56h-84-24v3 53z"/><path d="m416 377h96v-53-3h-96z"/><path d="m416 581h-67-61.8119 27.8272z"/><path d="m416 581v-56h-67v56z"/><path d="m416 794h-67-61.8119 27.8272z"/><path d="m416 794v-56h-67v56z"/><path d="m276-36v136z"/><path d="m556 525h-140-80-4 84z"/><path d="m556 738h-140-80-4 84z"/><path d="m287.189-301h-175.189-48.811 61.811z"/><path d="m287.189-510h-175.189-48.811 61.811z"/><path d="m287.189-92h-175.189-48.811 61.811z"/><path d="m544-36h-32z"/><path d="m544 171v17 133z"/><path d="m544 100v-136 153z"/><path d="m544 100v17 54 150 3-104z"/><path d="m544 324v53h-4.9847-27.0153v-53z"/><path d="m544 377h95.8403 64.1612-160.0015-4.9847z"/><path d="m539.017-301h-123.017-80-20.983 100.983z"/><path d="m539.017-510h-123.017-80-20.983 100.983z"/><path d="m539.017-92h-123.017-80-20.983 100.983z"/><path d="m271.6 956h-146.6-77.4 15.4z"/><path d="m276 100v-136-1h-151v33 191h151z"/><path d="m276 100v87 137-3-150-54z"/><path d="m332 321h84 96-96z"/><path d="m332 321h-24z"/><path d="m332 117h84 96-96z"/><path d="m544-676h-32v224h32z"/><path d="m544 377v-53h-32v53z"/><path d="m544-452v224h160v-224z"/><path d="m544-228v192 32h160v-224z"/><path d="m544-4v104 120h160v-224z"/><path d="m544 220v104 53h96 64v-157z"/><path d="m544-4v-32 136z"/><path d="m544 324h-32z"/><path d="m308 321v3-8z"/><path d="m308 117h24z"/><path d="m308 324v53h-20.8119-11.1881v-53z"/><path d="m315.0153-455h100.9847-67-61.8119z"/><path d="m315.0153-245h100.9847-67-61.8119z"/><path d="m315.0153-37h100.9847-67-61.8119z"/><path d="m512-32v124z"/><path d="m308-36v-1h-32v1z"/><path d="m308-452v224h108v-17-56-151z"/><path d="m308-228v191 1 4h108v-5-55-136z"/><path d="m308-36h-32z"/><path d="m308-32v-4z"/><path d="m308 171v-54z"/><path d="m308 192v-21 145z"/><path d="m308 324h-32z"/><path d="m308 377h-32v34 81h56v-115z"/><path d="m308 377v-53h-32v53z"/><path d="m308-676h-36.4-146.6v224h183z"/><path d="m332 117h84v54h-100.9827-7.0173v-54z"/><path d="m332 321h84v56h-100.9827-7.0173v-53-3z"/><path d="m512 324v-8h-96v5 56h96z"/><path d="m512 92v-124h-96v149 54 21h96z"/><path d="m512-452v224h32v-224z"/><path d="m512-228v192h32v-192z"/><path d="m512-676h-16.4-79.6v166 55 3h96z"/><path d="m512 92v100 124-145-54z"/><path d="m512-36v4z"/><path d="m512 324v-3-5z"/><path d="m336-455h-20.9847-27.8272-175.1881v-55h175.189 27.828 20.983z"/><path d="m336-245h-20.9847-27.8272-175.1881v-56h175.189 27.828 20.983z"/><path d="m336-37h-20.9847-27.8272-175.1881v-55h175.189 27.828 20.983z"/><path d="m336 581h-20.9847-27.8272-175.1881v-56h175.189 44.811 4z"/><path d="m336 794h-20.9847-27.8272-175.1881v-56h175.189 44.811 4z"/><path d="m332 316h-24v8 53h24z"/><path d="m332 316h84v-124h-108v124z"/><path d="m332 540v-48h-56-151v176 48h207z"/><path d="m332 540v176 48h84v-26-137-20-41z"/><path d="m332 764v192h84v-131-31-30z"/><path d="m495.6 956h-79.6-84-60.4 15.4z"/><path d="m416 601v137 26 30 31h224v-224z"/><path d="m416 825v131h79.6 144.4v-131z"/><path d="m416 192v124h96v-124z"/><path d="m416-452v151 56 17h96v-224z"/><path d="m416-228v136 55 5h96v-4-192z"/><path d="m416 525v-148-56-5h-84v61 115 48h84z"/><path d="m416 192v-21-54-149h-108v149 54 21z"/><path d="m416-455v-55-166h-108v224h108z"/><path d="m416-510v55h-80v-55z"/><path d="m416-301v56h-80v-56z"/><path d="m416-92v55h-80v-55z"/><path d="m416 171h96-96-100.9827z"/><path d="m416 117h96v54h-96z"/><path d="m416 321h96v3 53h-96z"/><path d="m416 525v15 41h-80v-56z"/><path d="m416 738v26 30h-80v-56z"/></g></defs><g stroke="#000"><use fill="none" stroke-miterlimit="0" stroke-width="10" xlink:href="#a"/><use fill="#ccc" xlink:href="#a"/><use fill="none" stroke-miterlimit="0" stroke-width="10" xlink:href="#b"/><use fill="#e5e5e5" xlink:href="#b"/><use fill="none" stroke-miterlimit="0" stroke-width="10" xlink:href="#c"/><use fill="#fff" xlink:href="#c"/></g></svg>