<svg viewBox="-1701 -1025 3190 1938" xmlns="http://www.w3.org/2000/svg" xmlns:xlink="http://www.w3.org/1999/xlink"><defs><g id="a"><path d="m128 304h32z"/><path d="m-16-272h-16-208 208z"/><path d="m-32 48v128 96z"/><path d="m144-272v96z"/><path d="m128 160v112 32h-48-80v-32-96-16z"/><path d="m144 160v112h-16v-112z"/><path d="m0-272h144v96 128h-144z"/><path d="m144-48v96 112h-16-128v-208z"/><path d="m0 272h-32z"/><path d="m-32-80v-192h16 16v224h-32z"/><path d="m0-48v208 16h-32v-128-96z"/><path d="m0 176v96h-32v-96z"/><path d="m-32-80h-208z"/><path d="m-32-272v192h-208v-192z"/><path d="m-480 240h16-160z"/><path d="m-704-48v160 64-64z"/><path d="m-704-272v160 64-64z"/><path d="m-704-496v160 64-64z"/><path d="m-704-496v-64h208v64 160h-208z"/><path d="m-496-336v64 160h-208v-160-64z"/><path d="m-496-112v32 176 16h-208v-160-64z"/><path d="m-272-272v192h-224v-32-160z"/><path d="m-368 96h32l16 16h-160-16v-16z"/><path d="m-480 240h-144l-80-64v-64h208 16z"/><path d="m-320 112 16 16v32 80h-128-32-16v-128z"/><path d="m-272-80h-224z"/><path d="m-496-560v64z"/><path d="m-496-80v176z"/><path d="m-304 240v-80z"/><path d="m-320 112-16-16 16 16 16 16z"/><path d="m-624 240-80-64z"/><path d="m193.6 608h-35.2z"/><path d="m-121.6 528-22.4-32v-32l112-160h32 80v224z"/><path d="m80 608h-145.6l-56-80h201.6z"/><path d="m272 464v32l-22.4 32h-169.6v-224h48 32z"/><path d="m249.6 528-56 80h-35.2-78.4v-80z"/><path d="m249.6 528 22.4-32-78.4 112z"/><path d="m-121.6 528 56 80-78.4-112z"/><path d="m-672-864h-224z"/><path d="m-496 112h176l16 16v32 80h-128-32-160l-80-64v-64z"/><path d="m-464 240h32 128v-80-32l-16-16h-176-208v64l80 64z"/><path d="m-464 96h96 32l16 16h-176v-16z"/><path d="m-320 112-16-16h-32-96-32v16z"/><path d="m-464-272h192v160 32h-224v-192z"/><path d="m-272-80v-32-160h-192-32v192z"/><path d="m-496 96v-176-192-224-64h-32-128-48v64 160 64 160 64 160h208z"/><path d="m-704-48v-64-160-64-160-64h48 128 32v64 224 192 176 16h-208z"/><path d="m-896-640v-176-48h224v224z"/><path d="m-672-592h-224v-48h224z"/><path d="m-528-864v48 176h-144v-224z"/><path d="m-528-640v48h-144v-48z"/><path d="m80 304h48v-32h-48z"/><path d="m80 272h48v32h-48z"/><path d="m272 464v32l-78.4 112h-35.2-224l-78.4-112v-32l112-160h32 80 48 32z"/><path d="m272 496v-32l-112-160h-32-48-80-32l-112 160v32l78.4 112h224 35.2z"/><path d="m-32-272v192h-208v-32-160z"/><path d="m-32-80v-192h-208v160 32z"/><path d="m-32 48v-128-192h16 16v544h-32z"/><path d="m0-272h-16-16v192 128 224h32z"/><path d="m0 272v-544h80v544 32h-80z"/><path d="m80 272v-544h-80v544 32h80z"/><path d="m80-272h64v96 112 112 112 112h-16-48z"/><path d="m144 160v-112-112-112-96h-64v544h48 16z"/><path d="m-896-816v176 48z"/><path d="m193.6 608h-35.2z"/><path d="m272 496-78.4 112z"/><path d="m-16-272h-16-208z"/><path d="m144-176v-96 48 160z"/><path d="m160 304h-32z"/><path d="m-32 48v224-32-96z"/><path d="m-32 272h32z"/><path d="m-32-80h-64-64-80z"/><path d="m-65.6 608-78.4-112z"/><path d="m-528-560h-128z"/><path d="m-496-560h-32z"/><path d="m-528-864v48z"/><path d="m-528-592h-144z"/><path d="m-704-112v64 160-64-64z"/><path d="m-704-336v64 160-128-32z"/><path d="m-464 240h-160z"/><path d="m-496-272h32z"/><path d="m-496-560v32 32z"/><path d="m-272-112v-160 32 16z"/><path d="m-496-80v32 112 32z"/><path d="m-272-80h-192-32z"/><path d="m-320 112-16-16 32 32z"/><path d="m0 304h-32z"/><path d="m-272-112v32-192z"/><path d="m0-272h80 64-144-16z"/><path d="m-32-80v32 96z"/><path d="m0 272v32z"/><path d="m144 48v112 112-112z"/><path d="m144-176v112 112-96z"/><path d="m128 272h16z"/><path d="m128 304v-32z"/><path d="m-240-112v-160 192z"/><path d="m-464 240h32z"/><path d="m-432 240h128z"/><path d="m-656-560h128 32-208z"/><path d="m-704-560v64z"/><path d="m-464-272h192-224z"/><path d="m-496-496v224-64z"/><path d="m-304 160v-32z"/><path d="m-336 96h-32z"/><path d="m-464 96h96-128z"/><path d="m-144 464v32z"/><path d="m272 496v-32z"/><path d="m158.4 608h-224 145.6z"/><path d="m-32 304-112 160z"/><path d="m272 464-112-160z"/><path d="m-672-864h-224 48 112 48z"/><path d="m-528-864h-144z"/><path d="m-896-816v224-64-48z"/><path d="m-896-864v48z"/><path d="m-528-816v224-48z"/><path d="m-528-864v48z"/><path d="m-528-592h-48-32-48-16z"/><path d="m-672-592h-224z"/><path d="m-672-592h144v-224-48h-144-224v48 224z"/><path d="m-672-864h144v48 224h-144-224v-224-48z"/><path d="m1328-48v-48z"/><path d="m784 48v96z"/><path d="m784 176v112z"/><path d="m1328 288h-96z"/><path d="m1232-192v24 24z"/><path d="m1232 0v144 48z"/><path d="m1232 224v-32l96 48v48h-96z"/><path d="m1232 0v-144h32v16 32 80z"/><path d="m1280-96h48v48l-64 32v-80z"/><path d="m1280-128v32h-16v-32z"/><path d="m1280-128h-16v-16-48l64 64z"/><path d="m1328-128h-24-24z"/><path d="m1232-144v-24h32v24z"/><path d="m1280-128h24v32h-24z"/><path d="m1328 240-96-48z"/><path d="m1264-16 64-32-64 32-32 16z"/><path d="m992 176v-176h128 32 80v192 32h-240z"/><path d="m1232 224v64h-224-16v-64z"/><path d="m992 0v-144-48h128v48 144z"/><path d="m1120 0v-144h32v144z"/><path d="m1152 0v-144-48h80v48 144z"/><path d="m1120-192v24 24z"/><path d="m1120-144v-24h32v24z"/><path d="m784 176h24 24z"/><path d="m960-144h32v144h-32z"/><path d="m880-96v-32-16-48h80v48 144h-80z"/><path d="m848-144h32v16h-32z"/><path d="m848-192v48 16h-16-48z"/><path d="m832-96v-32h16 32v32z"/><path d="m832 0h-48v-96h48 48v96z"/><path d="m832 144v-96-32-16h48 80 32v176h-160z"/><path d="m832 16h-48v-16h48z"/><path d="m784 144v-96h48v96z"/><path d="m960-192v24 24z"/><path d="m960-144v-24h32v24z"/><path d="m784-96h24 24z"/><path d="m848-192v24 24z"/><path d="m848-144v-24h32v24z"/><path d="m784-128 24-24 16-16 24-24z"/><path d="m832-96h-24v-32h24z"/><path d="m784 48h24 24z"/><path d="m832 48h-24v-32h24z"/><path d="m832 176h-24v-32h24z"/><path d="m832 176h160v48 64h-208v-112z"/><path d="m-65.6 608h65.6z"/><path d="m158.4 608h-30.4-128-65.6z"/><path d="m128 608h30.4 35.2-35.2z"/><path d="m-240-112v32z"/><path d="m-240-240v-32 160z"/><path d="m128 384v16 16 112 32 48-40-40-128z"/><path d="m128 304v-32z"/><path d="m128 48v32 128 40 24-24-40-128z"/><path d="m128-176v64 40 8 104 8-8-112-40z"/><path d="m112-112h-32z"/><path d="m48-112h-32z"/><path d="m0-240h128-128-16z"/><path d="m0-192v-32z"/><path d="m0-128v-32z"/><path d="m16-112h32 32 32 16v-64-64h-128v16 32 32 32 16z"/><path d="m-152-192v-32z"/><path d="m-152-128v-32z"/><path d="m-96-128v-112h-56v16 32 32 32 16h56z"/><path d="m0-112v-16h-40-56v16z"/><path d="m0-192h-40v32h40z"/><path d="m-40-160v-32-32-16h-56v112h56z"/><path d="m0-240h-16-24v16h40z"/><path d="m-40-224v32z"/><path d="m-40-160v32z"/><path d="m-192-224v32z"/><path d="m-192-160v32z"/><path d="m-152-240h-40v16h40z"/><path d="m-152-192h-40v32h40z"/><path d="m-152-128h-40v16h40z"/><path d="m-192-128v-32-32-32-16h-48v128h48z"/><path d="m0 360v-56 56 24z"/><path d="m0 272v32z"/><path d="m0 40v-104-8-40 40 112 8z"/><path d="m16 248h32z"/><path d="m80 248h32z"/><path d="m16 80h32z"/><path d="m80 80h32z"/><path d="m48 40h-32z"/><path d="m112 40h-32z"/><path d="m16 40h32 32 32 16v-104h-48-32-48v104z"/><path d="m0-112v40h16v-40z"/><path d="m16-72h-16v8h48v-8z"/><path d="m48-72v8h32v-8-40h-32z"/><path d="m112-112v40h16v-40z"/><path d="m80-64h48v-8h-16-32z"/><path d="m80-72h32z"/><path d="m16-72h32z"/><path d="m112 40v40h16v-32-8z"/><path d="m48 40v40h32v-40z"/><path d="m0 40v8 32h16v-40z"/><path d="m48 208h-32z"/><path d="m112 208h-32z"/><path d="m128 80h-16-32-32-32-16v128h16 32 32 32 16z"/><path d="m112 208v40h16v-40z"/><path d="m48 208v40h32v-40z"/><path d="m0 208v40h16v-40z"/><path d="m48 360h-32z"/><path d="m112 360h-32z"/><path d="m16 360h32 32 32 16v-56-32-24h-16-32-32-32-16v24 32 56z"/><path d="m48 528h-32z"/><path d="m112 528h-32z"/><path d="m16 528h32 32 32 16v-112h-48-32-48v112z"/><path d="m48 400h-32-16v16h48z"/><path d="m0 360v24 16h16v-40z"/><path d="m48 400v16h32v-16-40h-32z"/><path d="m128 400h-16-32v16h48z"/><path d="m112 360v40h16v-16-24z"/><path d="m80 400h32z"/><path d="m16 400h32z"/><path d="m16 560h32z"/><path d="m80 560h32z"/><path d="m48 560v-32z"/><path d="m112 528v32h16v-32z"/><path d="m112 560v-32z"/><path d="m48 528v32h32v-32z"/><path d="m0 528v32h16v-32z"/><path d="m128 608v-48h-16-32-32-32-16v48z"/><path d="m0 304h-32z"/><path d="m-656-560h-48 32z"/><path d="m-656-560v96z"/><path d="m-304-112h-32-40-88-24-40 40 112 40z"/><path d="m-544-112h-32z"/><path d="m-608-112h-32z"/><path d="m-528-160v32z"/><path d="m-528-224v32z"/><path d="m-528-464v224-40-112-40z"/><path d="m-272-240v-32z"/><path d="m-272-240h-32z"/><path d="m-376-224v32z"/><path d="m-376-160v32z"/><path d="m-336-224h64v-16h-32-72v16z"/><path d="m-336-128v-32z"/><path d="m-336-192v-32z"/><path d="m-272-224h-64v32 32 32 16h32 32z"/><path d="m-336-192h-40v32h40z"/><path d="m-336-128h-40v16h40z"/><path d="m-488-128h-40v16h40z"/><path d="m-488-192h-40v32h40z"/><path d="m-464-224h-24v32 32 32 16h24z"/><path d="m-488-224h24v-16h-64v16z"/><path d="m-376-128v-32-32-32-16h-88v16 112h88z"/><path d="m-488-192v-32z"/><path d="m-488-128v-32z"/><path d="m-640-240h32z"/><path d="m-576-240h32z"/><path d="m-656-560v96h16 96 16v-96z"/><path d="m-528-464h-16v32 40 112 40h16z"/><path d="m-608-432h32 32v-32h-96v32z"/><path d="m-608-432v40h32v-40z"/><path d="m-640-280h32 32 32v-112h-32-32-32z"/><path d="m-576-280h-32v40h32z"/><path d="m-640-280v-112-40-32h-16v224h16z"/><path d="m-544-280h-32z"/><path d="m-608-280h-32z"/><path d="m-544-432h-32z"/><path d="m-576-392h32z"/><path d="m-608-432h-32z"/><path d="m-640-392h32z"/><path d="m-544-280v40z"/><path d="m-608-280v40z"/><path d="m-640-112h32 32 32 16v-16-32-32-32-16h-16-32-32-32-16v128z"/><path d="m-272-80v-32z"/><path d="m-528-72h-16-32-32-32-16v56 56h16 32 32 32 16z"/><path d="m-544-112v40h16v-40z"/><path d="m-608-112v40h32v-40z"/><path d="m-656-112v40h16v-40z"/><path d="m-544 40v40h16v-40z"/><path d="m-528 112v-32h-16-32-32-32-16v32z"/><path d="m-608 40v40h32v-40z"/><path d="m-656 40v40h16v-40z"/><path d="m-528 112h-128v96h128 32v-96z"/><path d="m-544 40h-32z"/><path d="m-608 40h-32z"/><path d="m-576-72h32z"/><path d="m-640-72h32z"/><path d="m-576 80h32z"/><path d="m-640 80h32z"/><path d="m-656-864h48 32 48-144z"/><path d="m-896-864v48z"/><path d="m-528-816v176 48z"/><path d="m-672-592h-176-48z"/><path d="m-656-784v-32z"/><path d="m-656-704v-32z"/><path d="m-656-624v-16-16z"/><path d="m-576-784v-32z"/><path d="m-576-704v-32z"/><path d="m-576-624v-16-16z"/><path d="m-528-816v-48h-48v48 32 48 32 48 16h48z"/><path d="m-576-640v16 32h48v-48z"/><path d="m-608-816v32z"/><path d="m-608-736v32z"/><path d="m-608-656v16 16z"/><path d="m-608-864v48h32v-48z"/><path d="m-576-784h-32v48h32z"/><path d="m-576-704h-32v48h32z"/><path d="m-576-624h-32v32h32z"/><path d="m-608-656v-48-32-48-32-48h-48v48 32 48 32 48 16h48z"/><path d="m-656-640v16 32h48v-32-16z"/><path d="m-672-864h-16v48h32v-48z"/><path d="m-816-816h48 32v-48h-112v48z"/><path d="m-688-656v-48-32-48-32-48h-48v48 32 48 32 48 32h48z"/><path d="m-816-816v32h48v-32z"/><path d="m-656-784h-32v48h32z"/><path d="m-656-704h-32v48h32z"/><path d="m-816-736h48 32v-48h-32-48-32v48z"/><path d="m-736-704h-32v48h32z"/><path d="m-768-656v-48-32h-48v32 48 32h48z"/><path d="m-672-592h16v-32h-32-48-32-48-32v32z"/><path d="m-848-736v-48-32-48h-48v48 112h48z"/><path d="m-848-704h-48v48h48 32v-48z"/><path d="m-848-592v-32-32h-48v64z"/><path d="m-768-816v32z"/><path d="m-688-816v32z"/><path d="m-736-784v-32z"/><path d="m-848-816v32z"/><path d="m-816-784v-32z"/><path d="m-768-736v32z"/><path d="m-768-656v32z"/><path d="m-688-736v32z"/><path d="m-688-656v32z"/><path d="m-736-704v-32z"/><path d="m-736-624v-32z"/><path d="m-816-704v-32z"/><path d="m-848-736v32z"/><path d="m-816-624v-32z"/><path d="m-848-656v32z"/><path d="m96 752h-64z"/><path d="m272 496-78.4 112z"/><path d="m-240-272v32z"/><path d="m128 360v-56 56 24z"/><path d="m128-240v64z"/><path d="m128 272h16z"/><path d="m144 272h-16z"/><path d="m144-272v48z"/><path d="m144-64v64 64 96-112z"/><path d="m144 160v-96 80z"/><path d="m144 160v80 32z"/><path d="m144 64v-64h4v64z"/><path d="m144 64h4z"/><path d="m148 64v-64z"/><path d="m128 304h32z"/><path d="m-192-112h40 112 40-96-56-40-48z"/><path d="m128-240v64 64h-16-32-32-32-16v-16-32-32-32-16z"/><path d="m0-224h-40v-16h24 16z"/><path d="m-40-240v16 32 32 32 16h-112v-16-32-32-32-16z"/><path d="m0-112h-40v-16h40z"/><path d="m0-160h-40v-32h40z"/><path d="m-152-112h-40v-16h40z"/><path d="m-152-224h-40v-16h40z"/><path d="m-152-160h-40v-32h40z"/><path d="m-192-240v16 32 32 32 16h-48v-128z"/><path d="m-16-240h-24-112-40-48 48 40 56 56z"/><path d="m0-160h-40z"/><path d="m0-224h-40z"/><path d="m-40-192h40z"/><path d="m-40-128h40z"/><path d="m-152-160h-40z"/><path d="m-192-192h40z"/><path d="m-152-224h-40z"/><path d="m-192-128h40z"/><path d="m0 568v-40h16v32 8z"/><path d="m16 560h32v8h-32z"/><path d="m48 568v-8-32h32v32 8z"/><path d="m112 568v-8-32h16v40z"/><path d="m16 568h32 32 32 16v40h-128v-40z"/><path d="m80 560h32v8h-32z"/><path d="m48 400v-40h32v40z"/><path d="m48 248v-40h32v40z"/><path d="m0 248v-40h16v40z"/><path d="m0 400v-16-24h16v40z"/><path d="m112 400v-40h16v24 16z"/><path d="m112 248v-40h16v40z"/><path d="m0 400h16 32 32 32 16v128h-16-32-32-32-16z"/><path d="m16 248h32 32 32 16v24 32 56h-16-32-32-32-16v-56-32-24z"/><path d="m0 80v-32-8h16v40z"/><path d="m48 80v-40h32v40z"/><path d="m0 80h16 32 32 32 16v128h-16-32-32-32-16z"/><path d="m112 80v-40h16v8 32z"/><path d="m0-72v-40h16v40z"/><path d="m48-72v-40h32v40z"/><path d="m112-72v-40h16v40z"/><path d="m0-72h16 32 32 32 16v112h-16-32-32-32-16z"/><path d="m0 272h-32z"/><path d="m0 384v16 128 40 40-48-32-112-16z"/><path d="m0 48v32 128 40 24-24-40-128z"/><path d="m48-72v-40z"/><path d="m80-112v40z"/><path d="m112-72v-40z"/><path d="m16-112v40z"/><path d="m80 40v40z"/><path d="m112 80v-40z"/><path d="m48 80v-40z"/><path d="m16 40v40z"/><path d="m80 208v40z"/><path d="m112 248v-40z"/><path d="m48 248v-40z"/><path d="m16 208v40z"/><path d="m48 400v-40z"/><path d="m80 360v40z"/><path d="m112 400v-40z"/><path d="m16 360v40z"/><path d="m80 528v32z"/><path d="m16 528v32z"/><path d="m-160-76v-4h64v4z"/><path d="m-160-80v4z"/><path d="m-96-76v-4z"/><path d="m-528-560h32z"/><path d="m-576-736h-32v-48h32z"/><path d="m-576-656v-48-32-48-32-32h48v144 32 48h-48z"/><path d="m-528-624v32 16h-48v-48z"/><path d="m-656-656v-48-32-48-32-32h48v32 32 48 32 48 32h-48z"/><path d="m-608-624v48h-48v-48z"/><path d="m-576-816h-32v-32h32z"/><path d="m-608-704h32v48h-32z"/><path d="m-768-704h32v48h-32z"/><path d="m-656-736h-32v-48h32z"/><path d="m-656-816h-32v-32h16 16z"/><path d="m-816-656v-48-32-48-32-32h48v32 32 48 32 48 32h-48z"/><path d="m-768-624v32h-48v-32z"/><path d="m-736-816h-32v-32h32z"/><path d="m-736-656v-48-32-48-32-32h48v32 32 48 32 48 32h-48z"/><path d="m-688-624v32h-16-32v-32z"/><path d="m-736-736h-32v-48h32z"/><path d="m-688-704h32v48h-32z"/><path d="m-656-576h48 32 48v16h-128z"/><path d="m-608-576v-48h32v48z"/><path d="m-656-576v16h-16v-32-32h16z"/><path d="m-768-592v-32h32v32z"/><path d="m-688-592v-32h16v32z"/><path d="m-848-816h-48v-32h80v32z"/><path d="m-896-736v-80h48v32 48 32h-48z"/><path d="m-816-736h-32v-48h32z"/><path d="m-848-656h-48v-48h48 32v48z"/><path d="m-848-592v-32h32v32z"/><path d="m-848-656v32 32h-48v-64z"/><path d="m-848-592h32 48 32 32-112-80z"/><path d="m-672-848h-16-48-32-48-80z"/><path d="m-576-736h-32z"/><path d="m-608-784h32z"/><path d="m-576-816h-32z"/><path d="m-576-656h-32z"/><path d="m-608-704h32z"/><path d="m-608-624h32z"/><path d="m-816-736h-32z"/><path d="m-736-736h-32z"/><path d="m-656-736h-32z"/><path d="m-656-816h-32z"/><path d="m-688-784h32z"/><path d="m-736-816h-32z"/><path d="m-768-784h32z"/><path d="m-848-784h32z"/><path d="m-816-816h-32z"/><path d="m-688-704h32z"/><path d="m-656-656h-32z"/><path d="m-672-624h-16 32z"/><path d="m-768-704h32z"/><path d="m-768-624h32z"/><path d="m-736-656h-32z"/><path d="m-816-656h-32z"/><path d="m-848-704h32z"/><path d="m-848-624h32z"/><path d="m-704-240v128 96-96z"/><path d="m-704-560v64 160z"/><path d="m-656-16v56 40 128-96-32-40z"/><path d="m-656-240v128 40 56-56-40z"/><path d="m-656-464v224z"/><path d="m-240-112h-32z"/><path d="m-272-112h-32z"/><path d="m-528-560v96z"/><path d="m-272-272h-192z"/><path d="m-496-560v32z"/><path d="m-496-496v192 32z"/><path d="m-240-112h-32-32-32v-16-32-32-32-16h32 32 32z"/><path d="m-336-112h-40v-16h40z"/><path d="m-336-224h-40v-16h40z"/><path d="m-376-240v16 32 32 32 16h-112v-16-32-32-32-16z"/><path d="m-336-160h-40v-32h40z"/><path d="m-488-224h-40v-16h40z"/><path d="m-488-112h-40v-16h40z"/><path d="m-488-160h-40v-32h40z"/><path d="m-304-240h-32-40-112-40 64 88z"/><path d="m-336-224h-40z"/><path d="m-336-160h-40z"/><path d="m-376-192h40z"/><path d="m-376-128h40z"/><path d="m-488-160h-40z"/><path d="m-488-224h-40z"/><path d="m-528-192h40z"/><path d="m-528-128h40z"/><path d="m-528-560v96h-112-16v-96z"/><path d="m-640-392h32 32 32 16v112h-16-32-32-32z"/><path d="m-544-280h16v40h-16z"/><path d="m-608-392v-40h32v40z"/><path d="m-640-464h112v32h-16-32-32-32z"/><path d="m-544-392v-40h16v40z"/><path d="m-608-280h32v40h-32z"/><path d="m-640-432v40 112 40h-16v-224h16z"/><path d="m-576-432v40z"/><path d="m-544-392v-40z"/><path d="m-608-392v-40z"/><path d="m-640-432v40z"/><path d="m-576-280v40z"/><path d="m-640-280v40z"/><path d="m-528-224v32 32 32 16h-16-32-32-32-16v-128h16 32 32 32 16z"/><path d="m-496-48v112z"/><path d="m-496-80v32z"/><path d="m-464 96h-32z"/><path d="m-272-80v-32z"/><path d="m-272-80h-192z"/><path d="m-464-80h-16-16z"/><path d="m-528 208h-128z"/><path d="m-528 208h32z"/><path d="m-528 80v-40-112-40 40 112 40 32z"/><path d="m-576-112v40z"/><path d="m-544-72v-40z"/><path d="m-544-72v-40h16v40z"/><path d="m-608-72v-40z"/><path d="m-608-72v-40h32v40z"/><path d="m-640-112v40z"/><path d="m-656-72v-40h16v40z"/><path d="m-656-16v-56h16 32 32 32 16v112h-16-32-32-32-16z"/><path d="m-576 40v40z"/><path d="m-544 80v-40z"/><path d="m-544 80v-40h16v40z"/><path d="m-608 80v-40z"/><path d="m-608 80v-40h32v40z"/><path d="m-640 40v40z"/><path d="m-656 80v-40h16v40z"/><path d="m-656 80h16 32 32 32 16v32 96h-128z"/><path d="m-704-336h-4z"/><path d="m-708-272v-64h4v64z"/><path d="m-708-336v64z"/><path d="m-708 48v-64h4v64z"/><path d="m-704-16h-4z"/><path d="m-708-16v64z"/><path d="m0 720v32h-32v-48-48h32z"/><path d="m0 720v-64h32v64z"/><path d="m96 720v-64h32v64z"/><path d="m96 728v24h-64v-24z"/><path d="m158.4 656h-30.4-32-64-32-32l-33.6-48h65.6 128 30.4z"/><path d="m193.6 608-33.6 48h-1.6v-48z"/><path d="m96 656v64 8h-64v-8-64z"/><path d="m128 720v-64h30.4 1.6v16 48 32h-32z"/><path d="m0 752v-32z"/><path d="m32 728v24z"/><path d="m96 728h-64z"/><path d="m-896-736v32 48 64z"/><path d="m-896-736v-32-80 32z"/><path d="m-816-592h-80z"/><path d="m-496 208v-96z"/><path d="m-464 112h-32z"/><path d="m-464 208v-96h-32v96z"/><path d="m-496 208h-32v-96h32z"/><path d="m-528 208v-96z"/><path d="m-496 112h-32z"/><path d="m-896-736v144h-32v-144z"/><path d="m1328 288v-48z"/><path d="m784-96v96 16z"/><path d="m784 48v96z"/><path d="m1008 288h-16-208 208z"/><path d="m1232 288h-16-208z"/><path d="m1232 288h96-112z"/><path d="m784 288v-112h24 184v112z"/><path d="m808 176h-24v112h208v-112z"/><path d="m808 144v-96h-24v96z"/><path d="m784 144v-96h24v96z"/><path d="m1232 288h96v-48l-96-48z"/><path d="m1232 192 96 48v48h-96z"/><path d="m992 176v-176h128 112v144 48 96h-16-208-16z"/><path d="m1232 192v-48-144h-112-128v176 112h16 208 16z"/><path d="m808-96h-24v112h24z"/><path d="m784-96h24v112h-24z"/><path d="m992 0v-168h-32-80-32-24l-16 16v24 32 112 32 96 32h184z"/><path d="m808 144v-96-32-112-32-24l16-16h24 32 80 32v168 176h-184z"/><path d="m880-168h80v-24h-80z"/><path d="m880-192h80v24h-80z"/><path d="m784-128 24-24v24z"/><path d="m808-128v-24l-24 24z"/><path d="m848-192v24h-24z"/><path d="m824-168h24v-24z"/><path d="m992 0v-168-24h128v24 168z"/><path d="m1120 0v-168-24h-128v24 168z"/><path d="m1152-168h80v-24h-80z"/><path d="m1152-192h80v24h-80z"/><path d="m1152-168h80 32v72 80l-32 16h-112v-168z"/><path d="m1232 0 32-16v-80-72h-32-80-32v168z"/><path d="m1304-96h24v48l-64 32v-80z"/><path d="m1328-48v-48h-24-40v80z"/><path d="m1328-128-24-24v24z"/><path d="m1304-128v-24l24 24z"/><path d="m1264-168v-24l40 40v24 32h-40z"/><path d="m1264-192v24 72h40v-32-24z"/><path d="m1232-192v24z"/><path d="m1232 144v-144 48z"/><path d="m1232 192v-48 32z"/><path d="m1328-128h-24z"/><path d="m1232-168v-24h32v24z"/><path d="m1304-128h24v32h-24z"/><path d="m1264-16 64-32-96 48z"/><path d="m1232 192 96 48z"/><path d="m784 48h6 18z"/><path d="m1120-192v24z"/><path d="m1120-168v-24h32v24z"/><path d="m784-96h24z"/><path d="m960-192v24z"/><path d="m960-168v-24h32v24z"/><path d="m848-192v24z"/><path d="m848-168v-24h32v24z"/><path d="m808-96h-24v-32h24z"/><path d="m992-192v48-24z"/><path d="m1120-192h-128z"/><path d="m1232-192h-80z"/><path d="m1304-152 24 24-64-64z"/><path d="m1328-96h-48 24z"/><path d="m1264-192v48-24z"/><path d="m1152-192v48-24z"/><path d="m960-192h-80z"/><path d="m784 16h48-24z"/><path d="m880-192v48-24z"/><path d="m784-128h48-24z"/><path d="m784 144h48-24z"/><path d="m-496 208v-96z"/><path d="m-464 208h-32z"/><path d="m-464 112v96h-32v-96z"/><path d="m-432 112h-32v96h32z"/><path d="m-464 112v96z"/><path d="m-896-736h-32z"/><path d="m-928-736v144z"/><path d="m-928-592h-32v-144h32z"/><path d="m-432 112v96z"/><path d="m-320 112h-112v96h112z"/><path d="m-464 112h32z"/><path d="m-432 208h-32z"/><path d="m-464 208v-96z"/><path d="m-432 208h-32v-96h32z"/><path d="m160 720v32z"/><path d="m160 672v-16z"/><path d="m160 672v32 16z"/><path d="m160 720v-16z"/><path d="m160 704h4z"/><path d="m160 704v-32h4v32z"/><path d="m164 704v-32z"/><path d="m-32 672v-16 48z"/><path d="m-32 656v16z"/><path d="m-32 672h-4z"/><path d="m-32 656-33.6-48z"/><path d="m-36 704v-32h4v32z"/><path d="m-36 672v32z"/><path d="m-896-736h-32-32z"/><path d="m-960-592h-32v-144h32z"/><path d="m-960-736v144z"/><path d="m-1536-64v128z"/><path d="m784 288v-112z"/><path d="m784 288h208z"/><path d="m144-224v-48 48 64z"/><path d="m144-224v64 160-64z"/><path d="m144 0v64h4v-64z"/><path d="m148 0h-4z"/><path d="m-160-76h64z"/><path d="m-96-80h-64v4h64z"/><path d="m-96-80h64-128z"/><path d="m-96-80h64z"/><path d="m-160-80h-80z"/><path d="m-480 416h176-16-96z"/><path d="m-704 48v64z"/><path d="m-704-272v32z"/><path d="m-704-112v96 64 64-160z"/><path d="m-432 240h-32z"/><path d="m-304 240h-16-96-16z"/><path d="m-368 96h-96z"/><path d="m-336 96h-32z"/><path d="m-432 208v-96z"/><path d="m-304 160v80z"/><path d="m-304 128v32z"/><path d="m-304 160v80z"/><path d="m-416 208h96-112z"/><path d="m-320 112v96z"/><path d="m-432 112h112z"/><path d="m-320 208h-96-16v-96h112z"/><path d="m-416 208v32h96v-32z"/><path d="m-432 320h128v96h-176-64v-96z"/><path d="m-432 304v16h-112v-16z"/><path d="m-416 240h96 16v80h-128v-16-32-32z"/><path d="m-708-272h4z"/><path d="m-708-336v64h4v-64z"/><path d="m-708-16v64h4v-64z"/><path d="m-708 48h4z"/><path d="m-1152-160h-112z"/><path d="m-976-736h48 32-64-32z"/><path d="m-1200-736h-64-32-96-32z"/><path d="m-976-736h-16-48-160z"/><path d="m-1424-416v128 96z"/><path d="m-1424-640v128 96z"/><path d="m-1264-512v-80 176z"/><path d="m-896-592h-32z"/><path d="m-896-592h-32z"/><path d="m-992-592h32-48z"/><path d="m-960-592h-32z"/><path d="m-928-592h-32z"/><path d="m-992-736v144z"/><path d="m-1040-592h-192-32v-144h64 160z"/><path d="m-992-736v144h-16-32v-144z"/><path d="m-1296-736h32v144 80h-32z"/><path d="m-1264-512v96 128h-32v-224z"/><path d="m-1264-288v96h-32v-96z"/><path d="m-1392-736h96v224h-96z"/><path d="m-1296-512v224h-96v-224z"/><path d="m-1296-288v96 32h-16-80v-32-96z"/><path d="m-1424-640v-96h32v224h-32z"/><path d="m-1392-512v224h-32v-128-96z"/><path d="m-1392-288v96h-32v-96z"/><path d="m-960-64v-64z"/><path d="m-960 0v160z"/><path d="m-960 224v-64 64 64z"/><path d="m-960 0v-64 32z"/><path d="m-1536 320h192z"/><path d="m-1344 320h32z"/><path d="m-1088 320h96-96-32z"/><path d="m-1056 224h96v64 32h-32-96v-32-64z"/><path d="m-1088 128v-32h32v32z"/><path d="m-1088 192v-32h32v32z"/><path d="m-1088 64v-32h32v32z"/><path d="m-1088 0v-32h32v32z"/><path d="m-1152 64v-96h32v96 128h-32z"/><path d="m-1056 128v-32-32-32-32-32-32h96v64 160h-96z"/><path d="m-960 160v64h-96v-32-32z"/><path d="m-1120-32v-32-96h32v96 32 32 32 32h-32z"/><path d="m-1088 64v32 32 32 32 32 64h-32v-64-32-128z"/><path d="m-1088 288v32h-32v-32z"/><path d="m-992-160h32v32 64h-96-32v-96z"/><path d="m-1056 224h-32z"/><path d="m-1088 192h32z"/><path d="m-1152 192h32z"/><path d="m-1536-64v-96h112 32 80v224h-224z"/><path d="m-1312 64v224h-224v-144-80z"/><path d="m-1312 288v32h-32-192v-32z"/><path d="m-1312-160h16 32 112v96 32 96h-160z"/><path d="m-1152 64v128 32 64h-160v-224z"/><path d="m-1152 288v32h-160v-32z"/><path d="m-528-672v80-32z"/><path d="m-528-704v32z"/><path d="m-528-672h4z"/><path d="m-528-672v-32h4v32z"/><path d="m-524-672v-32z"/><path d="m160 720v-16-32-16z"/><path d="m164 672h-4z"/><path d="m160 672v32h4v-32z"/><path d="m-32 752v-48z"/><path d="m-36 704h4z"/><path d="m-36 672v32h4v-32z"/><path d="m1232 48v-48z"/><path d="m1232 48h-224z"/><path d="m790 48h-6v-32h24v32z"/><path d="m1008 144h-218-6z"/><path d="m784 144h24-18z"/><path d="m1008 48h-218-6v96h6 218z"/><path d="m1232 144v-96h-224v96z"/><path d="m-320 240h-96z"/><path d="m-416 208h96z"/><path d="m-320 208v32z"/><path d="m-416 240v-32z"/><path d="m-416 240v-32h96v32z"/><path d="m-416 240v32h96v-32z"/><path d="m-1088-160h96-96-32z"/><path d="m-1152 320h-160z"/><path d="m-992 320h-64-32z"/><path d="m-1152 320v-32-64z"/><path d="m-1152-64v32z"/><path d="m-1152-64v-96z"/><path d="m-1088-64h32z"/><path d="m-1120-160v96z"/><path d="m-1120-160v96h32v-96z"/><path d="m-1152-64v-96h32v96z"/><path d="m-1120 224v64 32z"/><path d="m-1120 224v96h32v-96z"/><path d="m-1152 320v-96h32v96z"/><path d="m1328-48v128z"/><path d="m784 0v-96 112z"/><path d="m784 16v32z"/><path d="m1328-96h-24z"/><path d="m1264-192v24z"/><path d="m1232 144v-96-48l96-48v128 32 64h-96z"/><path d="m1328 176v64l-96-48v-16z"/><path d="m992-192h128z"/><path d="m1008 48h-224 6z"/><path d="m992-192v24z"/><path d="m1152-192v24z"/><path d="m880-192v24z"/><path d="m784-128h24z"/><path d="m784 16h24z"/><path d="m784 176h24z"/><path d="m1008 144h-224v-96h224z"/><path d="m1232 48v96h-224v-96z"/><path d="m1232 144h-224z"/><path d="m784 176v-32h6 18v32z"/><path d="m752 48h16 16z"/><path d="m784 144h-32v-96h32z"/><path d="m752 144h-96-32v-32-64h96 32z"/><path d="m624 48v64z"/><path d="m752 48h-32z"/><path d="m-528-672v-32z"/><path d="m-528-704v-144 112z"/><path d="m-524-704h-4z"/><path d="m-528-704v32h4v-32z"/><path d="m-416 240h96z"/><path d="m-416 272v-32z"/><path d="m-320 240v32z"/><path d="m-320 272h-96z"/><path d="m-416 272v-32h96v32z"/><path d="m-416 272v32h96v-32z"/><path d="m0 720h32z"/><path d="m128 720h-32z"/><path d="m32 720h64 32-128z"/><path d="m96 728v-8h-64v8z"/><path d="m96 752v-24h-64v24z"/><path d="m32 720v8z"/><path d="m96 728v24z"/><path d="m96 720v8z"/><path d="m96 728h-64z"/><path d="m-1056-160h64-96z"/><path d="m-1088-160h-32z"/><path d="m-1120 320h-32z"/><path d="m-992 320h-64z"/><path d="m-1152 192v32z"/><path d="m-1088-64h-32z"/><path d="m-1120-64h-32z"/><path d="m-1120-64v-96z"/><path d="m-1088-160v96h32v-96z"/><path d="m-1120-64v-96h32v96z"/><path d="m-1088-160v96z"/><path d="m-1056 160h-32z"/><path d="m-1088 0h32z"/><path d="m-1120-64v32z"/><path d="m-1056-32h-32z"/><path d="m-1088-32v-32z"/><path d="m-1120-32h-32z"/><path d="m-1056 128v32z"/><path d="m-1088 64h32z"/><path d="m-1088 32v-32z"/><path d="m-1056 32h-32z"/><path d="m-1088 128h32z"/><path d="m-1088 96v-32z"/><path d="m-1056 96h-32z"/><path d="m-1088 160v-32z"/><path d="m-1056 224v-32z"/><path d="m-1120 224h32z"/><path d="m-1120 192v32z"/><path d="m-1088 224v-32z"/><path d="m-1056 192h-32z"/><path d="m-1120 192h-32z"/><path d="m-1088 224v96z"/><path d="m-1088 224v96h32v-96z"/><path d="m-1120 320v-96z"/><path d="m-1120 320v-96h32v96z"/><path d="m-1536 144v-48-32z"/><path d="m624 16v32 64z"/><path d="m720 48h-96z"/><path d="m720 48h-96v-32h96z"/><path d="m-320 416h16z"/><path d="m-480 416h64-32z"/><path d="m-416 304v16 95 1z"/><path d="m-416 304v-32z"/><path d="m-320 304h-96z"/><path d="m-320 272v32z"/><path d="m-416 272h96z"/><path d="m-416 304v-32h96v32z"/><path d="m-320 304h-96v112h96z"/><path d="m-960-160h-32z"/><path d="m-992-160h-64z"/><path d="m-1056-160h-32-32z"/><path d="m-1232-592h64z"/><path d="m-1008-592h-128-32-64 192z"/><path d="m-1008-592h48 32-80-128z"/><path d="m-1168-592v4z"/><path d="m-1168-592h32v4h-32z"/><path d="m-1168-588h32z"/><path d="m-960-128v-32z"/><path d="m-960 160v32 32z"/><path d="m-960 320v-32z"/><path d="m-1088 320h32z"/><path d="m-992 320h32z"/><path d="m-1088 320h-64 32z"/><path d="m-1056-160v96z"/><path d="m-960-64v-64-32h-32-64v96z"/><path d="m-1088-64v-96z"/><path d="m-1088-64v-96h32v96z"/><path d="m-1056-64v32z"/><path d="m-1088-64v32z"/><path d="m-1056 224v96z"/><path d="m-960 224h-96z"/><path d="m-992 320h32v-32-64h-96v96z"/><path d="m-1088 320v-96h32v96z"/><path d="m-1088 320v-96z"/><path d="m-1312 324v-4z"/><path d="m-1344 320v4z"/><path d="m-1344 320h32v4h-32z"/><path d="m-1344 324h32z"/><path d="m-1536 64h-4z"/><path d="m-1540 96v-32h4v32z"/><path d="m-1540 64v32z"/><path d="m0 752h-32z"/><path d="m160 752h-32z"/><path d="m0 752h128 32-192z"/><path d="m624-16v32 96z"/><path d="m624-16h96v16 16h-96z"/><path d="m720 0v-16z"/><path d="m720 48v-32z"/><path d="m720 16h-96z"/><path d="m272 496v-32z"/><path d="m272 496-54.4 77.7143-24 34.2857z"/><path d="m-240-112v32z"/><path d="m-240-272v32z"/><path d="m-16-272h-224z"/><path d="m96-272h48-64-80-16z"/><path d="m96-272 48 48v-48z"/><path d="m16 160h80 32 16v-16h-160v16z"/><path d="m-16 224v-24-16-24-16h-16v96h16z"/><path d="m128 160v24 16 24 16h16v-80z"/><path d="m128 184h-32v16h32z"/><path d="m96 240v-16-24-16-24h-80v24 16 24 16z"/><path d="m128 224h-32v16h32z"/><path d="m128 304v-32h-128v32z"/><path d="m16 184h-32v16h32z"/><path d="m16 224h-32v16h32z"/><path d="m-16 144h160-16-144-16z"/><path d="m144-160v-64 112 32z"/><path d="m-160-80h128-208z"/><path d="m-32 240v32z"/><path d="m96 160v24z"/><path d="m96 200v24z"/><path d="m128 184v-24z"/><path d="m128 224v-24z"/><path d="m16 184v-24z"/><path d="m-16 160v24z"/><path d="m16 224v-24z"/><path d="m-16 200v24z"/><path d="m0 272h128 16-128-48z"/><path d="m128 304v-32z"/><path d="m144-160v80 144-64z"/><path d="m272 464-112-160z"/><path d="m-32-80v128z"/><path d="m0 304h-32z"/><path d="m0 272v32z"/><path d="m-144 496v-32z"/><path d="m-32 304-112 160z"/><path d="m-480 416h32z"/><path d="m-672-560h-32z"/><path d="m-528-560v-16-16z"/><path d="m-704-592h16 16z"/><path d="m-672-592v32z"/><path d="m-528-560v-32h-144v32z"/><path d="m-704 176v-64z"/><path d="m-704-272v-64 64 32 128z"/><path d="m-704-48v160 64z"/><path d="m-704-272v160 64-16z"/><path d="m-704-384v-32-144 224z"/><path d="m-464 240h32z"/><path d="m-464 240h32-192z"/><path d="m-624 240-80-64z"/><path d="m-624 240-80-64z"/><path d="m-496-528v-32h-32-144-32v144h208z"/><path d="m-272-240v128h32v-128z"/><path d="m-496-304v-80h-1v112h1z"/><path d="m-528-384h-112v80h112z"/><path d="m-704-416v32h64 112 31 1v-32z"/><path d="m-480-272h-16v144 48h16z"/><path d="m-496-272h-1z"/><path d="m-497-384h-31z"/><path d="m-497-384v112z"/><path d="m-272-80v-32-128-32z"/><path d="m-464-80h192-208z"/><path d="m-496-272v144z"/><path d="m-304 160v-32 112z"/><path d="m-336 96 32 32z"/><path d="m-480-272h16-32z"/><path d="m-496-528v112 32 80-192z"/><path d="m-496-272v-32z"/><path d="m-272-240v-32z"/><path d="m-240-240h-32z"/><path d="m-496 96v-32z"/><path d="m-464 96h-32z"/><path d="m-336 96h-32z"/><path d="m-272-80v-32z"/><path d="m-304 160v-32z"/><path d="m-304 240v175 1-96z"/><path d="m-416 304h96z"/><path d="m-304 415h-16v1h16z"/><path d="m-416 320v-16h96v111h-96z"/><path d="m-320 415h16-112z"/><path d="m-320 415v-111 112z"/><path d="m-432 240v32z"/><path d="m-416 415v-95h-32v96h32z"/><path d="m128 720v32h-128v-32z"/><path d="m160 720v-64 96z"/><path d="m-32 656-33.6-48z"/><path d="m128 752v-32z"/><path d="m193.6 608-33.6 48z"/><path d="m-32 656v16 32 48z"/><path d="m-960-64v-64z"/><path d="m-960 192v-32z"/><path d="m-960 288v-64z"/><path d="m-960-64h-96z"/><path d="m-1056-64h-32z"/><path d="m-992-160h32v32 64h-96v-96z"/><path d="m-1056-64v-96z"/><path d="m-960-64h-96v32h96z"/><path d="m-1056 320v-96z"/><path d="m-960 224v-32h-96v32z"/><path d="m-960 224v64 32h-32-64v-96z"/><path d="m-1536 96v48z"/><path d="m-1536-64v-64-32z"/><path d="m-928-592h-80z"/><path d="m-1136-588v-4z"/><path d="m-1136-592h-32v4h32z"/><path d="m-1344 320h32 160-160z"/><path d="m-1312 320h-32v4h32z"/><path d="m-1540 96h4z"/><path d="m-1540 64v32h4v-32z"/><path d="m-896-848v80-64z"/><path d="m720-48h-96z"/><path d="m720 0v-16-32 32z"/><path d="m720 0v48-32z"/><path d="m720-16h-96v-32h96z"/><path d="m720-16h-96z"/><path d="m448-47v-1h112v80 48h-80-32z"/><path d="m528 128v-16h32v16z"/><path d="m160 240v-96-32h160 32 32v160h-224z"/><path d="m384 112h64 32 48v16 32 64 32 16h-144z"/><path d="m417-47v-1h31v1z"/><path d="m417-47h31v127h-64v-127z"/><path d="m384-48v1 127h-32-32-112v-128z"/><path d="m384 80h64v32h-64-32v-32z"/><path d="m128 144v16h-32-80-32v-16z"/><path d="m128 224v-24-16-24-16h16 16v96h-16-16z"/><path d="m-96 80v-128h64v192 32h-64z"/><path d="m-32 176v64 32h-64v-96z"/><path d="m-32 176v-32h16v16 24 16 24 16h-16z"/><path d="m528 224v-64h4v64z"/><path d="m528 272v-16h32v16z"/><path d="m532 224v-64h28v64z"/><path d="m272 496v-32l-80-114.2857v34.2857 189.7143h25.6z"/><path d="m192 573.7143v2.2857 32h1.6l24-34.2857z"/><path d="m160 304h-192l-32 45.7143v34.2857h32 192z"/><path d="m192 384v-34.2857l-32-45.7143v80z"/><path d="m-32 544v-128-32h-32v189.7143 2.2857h32z"/><path d="m16 200h-32v-16h32z"/><path d="m128 200h-32v-16h32z"/><path d="m16 240v-16-24-16-24h80v24 16 24 16z"/><path d="m96 240v-16h32v16z"/><path d="m-16 240v-16h32v16z"/><path d="m-32 384v32h192v-32z"/><path d="m-64 573.7143v-189.7143-34.2857l-80 114.2857v32l54.4 77.7143z"/><path d="m-65.6 608h1.6v-32-2.2857h-25.6z"/><path d="m192 573.7143v-189.7143h-32v32 128 32h32z"/><path d="m160 576h-192-32v32h222.4 1.6z"/><path d="m192 608v-32h-32v32z"/><path d="m160 576v-32h-192v32z"/><path d="m-272-560v-96h16 48 32v32 160h-80-16z"/><path d="m-400-656h128v96h-160v-32-32-32z"/><path d="m-432-464h-224v-96h96 96 32z"/><path d="m-272-560v96h-160v-96z"/><path d="m-272-464h16v112h-32-64-32-48v-32-32-48z"/><path d="m-256-352v-112h80v112 32h-32-48z"/><path d="m-432-464v48h-32-32-32-128v-48z"/><path d="m-352-348v-4h64v4z"/><path d="m-288-320h-64v-28h64z"/><path d="m-384-352v32h-16-32v-32z"/><path d="m-272-80v-192h-208v192z"/><path d="m-496-288v16h-1v-112h1z"/><path d="m-640-304v-80h-16-16v80z"/><path d="m-528-304h-112v-80h112z"/><path d="m-640-384h-16v-32h128v32z"/><path d="m-160 80v-16-112h64v128z"/><path d="m-160-48v112h-96v-16-96z"/><path d="m-160 80h64v96 96h-112l-48-48v-144z"/><path d="m-304 415v1h-112v-1z"/><path d="m-416 415v1h-32v-96h32z"/><path d="m-448 320h-32v96h32z"/><path d="m-416 416h112-144z"/><path d="m-672-848h-224 128z"/><path d="m-256-48v96-16z"/><path d="m-256 48v16z"/><path d="m-16-272h-224 80 32z"/><path d="m320 80h-112z"/><path d="m560 80h-80z"/><path d="m417-48v1z"/><path d="m560 32v-80 48z"/><path d="m560 272v-16z"/><path d="m560 224v-64z"/><path d="m528 272h32-16-160z"/><path d="m528 256v-32z"/><path d="m532 224h28z"/><path d="m532 160h-4z"/><path d="m560 256h-32 16z"/><path d="m144 272h-128z"/><path d="m-32-80h-96-32-80z"/><path d="m-656-384h16z"/><path d="m-672-384h-16z"/><path d="m-704-384h16z"/><path d="m-256-656h-16-128 16z"/><path d="m-528-848v96 16z"/><path d="m-464-560h32z"/><path d="m-704-288v16 208z"/><path d="m-432 240h-128-64z"/><path d="m-624 240-26-20.8-54-43.2z"/><path d="m-32 416v128z"/><path d="m160 544v-128z"/><path d="m160 544h-192z"/><path d="m272 496v-32z"/><path d="m-240-272v32 128 32z"/><path d="m96-272h-112z"/><path d="m128 160h-32z"/><path d="m16 160h-32z"/><path d="m-32-48v-32 128 96z"/><path d="m144-80v192 32-80z"/><path d="m144-224-48-48z"/><path d="m160 304h-32-128-32z"/><path d="m144 272v-32z"/><path d="m-16 224h32z"/><path d="m96 224h32z"/><path d="m128 200h-32z"/><path d="m96 184h32z"/><path d="m16 200h-32z"/><path d="m-16 184h32z"/><path d="m-16 240h32 80 32 16-16-32-80-32-16z"/><path d="m-144 464v32z"/><path d="m-64 349.7143 32-45.7143-112 160z"/><path d="m192 349.7143 80 114.2857-112-160z"/><path d="m-65.6 608-24-34.2857-54.4-77.7143z"/><path d="m-544 416h64z"/><path d="m-704-592h32 144z"/><path d="m-816-592h112z"/><path d="m-896-592h80z"/><path d="m-528-848h-48-32-48-16z"/><path d="m-704-288v-96 48 64z"/><path d="m-336 96h-32-96-32z"/><path d="m-272-272h-192-16z"/><path d="m-640-304v-80z"/><path d="m-528-384v80z"/><path d="m-528-304h-112z"/><path d="m-688-384h16 16 16-64z"/><path d="m-480-272v192z"/><path d="m-496-128v64 160-32-112-32z"/><path d="m-544 304v16 96z"/><path d="m-304 240v80 95z"/><path d="m-416 320v95z"/><path d="m-448 320h32z"/><path d="m-432 272v32z"/><path d="m-432 240v32z"/><path d="m-432 304h-112z"/><path d="m-448 416v-96z"/><path d="m160 752v-96h-1.6-190.4v96z"/><path d="m158.4 608h-222.4-1.6l33.6 48h190.4z"/><path d="m193.6 608h-1.6-32-1.6v48h1.6z"/><path d="m193.6 608-33.6 48z"/><path d="m-32 656v96z"/><path d="m-960-64v-64 96z"/><path d="m-960 0v-32z"/><path d="m-1056-64h96z"/><path d="m-1056 0h-32z"/><path d="m-960-32h-96z"/><path d="m-960-32h-96v-32h96z"/><path d="m-960-32h-96v32h96z"/><path d="m-1056 0v32z"/><path d="m-960 224h-96z"/><path d="m-1056 192h96z"/><path d="m-960 160h-96v32h96z"/><path d="m-960 192v32h-96v-32z"/><path d="m-240-272v192z"/><path d="m624-80v-144h128v176h-32-96z"/><path d="m624-224v144h-48v-144z"/><path d="m624-80v32h-32-16v-32z"/><path d="m624 112v32z"/><path d="m624-28v-20 32 128z"/><path d="m624-28v140z"/><path d="m-480 416h-32-32z"/><path d="m-480 416h32 144z"/><path d="m160 416h-192z"/><path d="m-256 80v144z"/><path d="m-176-432v80-112z"/><path d="m-176-352v32z"/><path d="m-176-432v80z"/><path d="m416-224v144z"/><path d="m576-224h-160z"/><path d="m576-80h-159-1v-144h160z"/><path d="m560-48h-112-31z"/><path d="m576-48h-16-143v-32h159z"/><path d="m-160 80h-96z"/><path d="m-160 64v16z"/><path d="m-160 80h-96v-16h96z"/><path d="m-160 48h-96v16h96z"/><path d="m-256 64h96z"/><path d="m-656-384v-32z"/><path d="m-704-304v-80 96z"/><path d="m-640-304h-32z"/><path d="m-640-384v80z"/><path d="m-672-304v-80z"/><path d="m-656-384h16v80h-32v-80z"/><path d="m-672-304v-80h-16-16v80z"/><path d="m-480 416v-96z"/><path d="m-480 320h32z"/><path d="m-448 416h-32v-96h32z"/><path d="m-448 320v96z"/><path d="m-480 320h-32v96h32z"/><path d="m160 544v-128h-192v128z"/><path d="m-960-32v-96 128z"/><path d="m-960 192v32z"/><path d="m-1056 160h96z"/><path d="m-960 0h-96z"/><path d="m-1056-32v-32z"/><path d="m-1056 0v-32z"/><path d="m-960 0h-96v-32h96z"/><path d="m-1056-32h96z"/><path d="m-1056 64v-32z"/><path d="m-1056 64v32z"/><path d="m-1056 128v-32z"/><path d="m-960 0h-96v32 32 32 32 32h96z"/><path d="m-1056 64h-32z"/><path d="m-1056 128h-32z"/><path d="m-1056 192v-32z"/><path d="m-960 192h-96v-32h96z"/><path d="m-960 192h-96z"/><path d="m-544 416h32z"/><path d="m-480 416h176-176-32z"/><path d="m-528-848h-144z"/><path d="m-256 80v-16z"/><path d="m-256 224 48 48z"/><path d="m-160-48h64-64-96z"/><path d="m-160 48v16z"/><path d="m-256 48h96z"/><path d="m-160 32h-96v16h96z"/><path d="m-160 64h-96z"/><path d="m-160 64h-96v-16h96z"/><path d="m-672-384h16z"/><path d="m-688-384h16z"/><path d="m-768-848h-128v16 16 64h128z"/><path d="m-672-304h-32z"/><path d="m-688-384h16v80h-32v-80z"/><path d="m-672-384v80z"/><path d="m-432 304v-32z"/><path d="m-544 304v112z"/><path d="m-512 304h80-112z"/><path d="m-480 320v96z"/><path d="m-512 416v-96z"/><path d="m-512 320h32z"/><path d="m-480 416h-32v-96h32z"/><path d="m-512 320v-16h-32v112h32z"/><path d="m-960 160v32z"/><path d="m-960 160h-96z"/><path d="m-1056 0h96z"/><path d="m-1056 128v-32-32-32-32h96v32 96 32h-96z"/><path d="m1328 288v-48z"/><path d="m1328 240v-64-64z"/><path d="m1328 112v-32z"/><path d="m1328-48v-48z"/><path d="m1328-48v128z"/><path d="m1328-96v-32z"/><path d="m784-128v32z"/><path d="m784-96v96z"/><path d="m1328-128-24-24-40-40z"/><path d="m1264-192h-32z"/><path d="m880-192h-32z"/><path d="m960-192h-80z"/><path d="m992-192h-32z"/><path d="m1152-192h-32z"/><path d="m1232-192h-80z"/><path d="m848-192-24 24-16 16-24 24z"/><path d="m752-48v-176z"/><path d="m-896-752v-16 32z"/><path d="m-896-832v64 16-64z"/><path d="m752-48h-32z"/><path d="m-800 416h96 64z"/><path d="m-544 416h-64-32z"/><path d="m-256 16v-64 80z"/><path d="m-256 32v16z"/><path d="m-176-464v32z"/><path d="m-176-432h4z"/><path d="m-176-432v-32h4v32z"/><path d="m-172-432v-32z"/><path d="m-256-48h96z"/><path d="m-160 32v16z"/><path d="m-160 16h-96v16h96z"/><path d="m-160 48h-96v-16h96z"/><path d="m-160 48h-96z"/><path d="m-256 32h96z"/><path d="m-688-384h-16z"/><path d="m-528-592h-176z"/><path d="m-528-592v-80-32-32z"/><path d="m-464-560h-64z"/><path d="m-560-560h32 64z"/><path d="m-528-560v-4z"/><path d="m-528-560h-32v-4h32z"/><path d="m-864-224v64 160-48-32z"/><path d="m-704-384v80z"/><path d="m-704-160v-144 16 224z"/><path d="m-704 176v-112-128 16z"/><path d="m-650 219.2 26 20.8h-26z"/><path d="m-512 304v16h-48v-16z"/><path d="m-650 240h26 64v64 16h-90z"/><path d="m-704 288v-112l54 43.2v20.8 80h-54z"/><path d="m-650 320h90 48v96h-32-96-64v-96z"/><path d="m-432 240h-64-64z"/><path d="m-432 272v-32z"/><path d="m-432 304h-80z"/><path d="m-512 320v-16 16 96z"/><path d="m-704 416h-96l-64-64v-32h160z"/><path d="m-864-224v-96l64-64h96v80 144h-160z"/><path d="m-704-160v96 128h-160v-32-32-160z"/><path d="m-704 64v112 112h-160v-128-32-64z"/><path d="m-704 288v32h-160v-32z"/><path d="m-864 32v32 64h-32v-96z"/><path d="m-1264-160h144-32z"/><path d="m-1264-160h-32z"/><path d="m-1392-160h-32z"/><path d="m-896-736h-32z"/><path d="m-1200-736h-224 192z"/><path d="m-976-736h-224 192z"/><path d="m-928-736h-48z"/><path d="m-1424-416v224z"/><path d="m-1424-640v224z"/><path d="m-1424-736v96z"/><path d="m-1296-192h-96v32h96z"/><path d="m-1008-592h80 32-112-32z"/><path d="m-1392-192h96 32-160z"/><path d="m-1264-592v176z"/><path d="m-1264-416v224-96z"/><path d="m-1264-592h32z"/><path d="m-1008-592h-32-192 64 32z"/><path d="m-1392-192v32z"/><path d="m-1296-160v-32z"/><path d="m-1296-192h32z"/><path d="m-1424-192h32z"/><path d="m-960 160v-32z"/><path d="m-960 128v-96z"/><path d="m-960 32v-32z"/><path d="m-960 288v32z"/><path d="m-896 128h-32-32v-96h32 32z"/><path d="m560 32v48z"/><path d="m560 32h4z"/><path d="m560 32v-32h4v32z"/><path d="m564 32v-32z"/><path d="m-32-48v-32z"/><path d="m-32-48h-48z"/><path d="m-80-48h48-64z"/><path d="m-160-48h48 16z"/><path d="m-80-48v-4z"/><path d="m-80-52v4h-16-16v-4z"/><path d="m-896-752v16z"/><path d="m-896-752v16-16-64z"/><path d="m-256 0v-48 64z"/><path d="m-160 16v16z"/><path d="m-160 32h-96z"/><path d="m-160 0h-96v16h96z"/><path d="m-160 32h-96v-16h96z"/><path d="m-256 16h96z"/><path d="m-704-592h-112z"/><path d="m-816-592h112-64-128z"/><path d="m-816-592h-80z"/><path d="m-1008-736h-192-32 192z"/><path d="m-896-736h-32-48z"/><path d="m-1424-736v96z"/><path d="m-1424-416v224-32-64-80z"/><path d="m-1424-640v224-16-80-80z"/><path d="m-1040-592h-192-32 32z"/><path d="m-1264-592v80 80 16z"/><path d="m-1264-416v224z"/><path d="m-172-464h-4z"/><path d="m-176-464v-160z"/><path d="m-176-432v-32z"/><path d="m-176-464v32h4v-32z"/><path d="m-560-564v4z"/><path d="m-560-560h32v-4h-32z"/><path d="m-560-564h32z"/><path d="m784 0v-96z"/><path d="m784 16v-16z"/><path d="m784 144v32z"/><path d="m784 176v112z"/><path d="m768 144h16v-32-32-32h-16z"/><path d="m768 144h-16 32z"/><path d="m720 48h32z"/><path d="m624 144h32z"/><path d="m752 144h-32-64z"/><path d="m-256-16v-32 48z"/><path d="m-256 48v-32 16z"/><path d="m560 32v-32-48z"/><path d="m560 0v-48z"/><path d="m564 0h-4z"/><path d="m560 0v32h4v-32z"/><path d="m-256 0h96z"/><path d="m-112-48h-48z"/><path d="m-112-52v4z"/><path d="m-80-48v-4h-32v4z"/><path d="m-80-52h-32z"/><path d="m-160-16h-96v16h96z"/><path d="m-160 0v16z"/><path d="m-160 16h-96v-16h96z"/><path d="m-160 16h-96z"/><path d="m-1424-736h192z"/><path d="m-1424-224v32z"/><path d="m-1424-512v80z"/><path d="m-1424-736v96z"/><path d="m-1424-736v96 48z"/><path d="m-1424-592h160z"/><path d="m-1264-192h-160z"/><path d="m-1264-416v48 80 64 32z"/><path d="m-1264-592h-160v80h160z"/><path d="m-1264-416v-16h-160v16 48h160z"/><path d="m-1264-288h-160v64h160z"/><path d="m-1536 320v-176 144z"/><path d="m-1536 96v-160 128 32 48z"/><path d="m-1536 96v48 176-16-64-32-64-32z"/><path d="m-1536-128v64 160-48-32-64-32z"/><path d="m-256-16v-16-16z"/><path d="m-256 48v-48 16z"/><path d="m528 224v-64z"/><path d="m528 224h4z"/><path d="m560 160h-28z"/><path d="m528 160v64h4v-64z"/><path d="m532 224h28v-64h-28z"/><path d="m532 160v64z"/><path d="m532 224v-64z"/><path d="m-160 0h-96z"/><path d="m-160-15v-1 16z"/><path d="m-160-32h-96v16h96z"/><path d="m-160 0h-96v-15h96z"/><path d="m-256-16h96z"/><path d="m-864-320v96z"/><path d="m-384-352v32z"/><path d="m-352-348v28h64v-28z"/><path d="m-288-352h-64v4h64z"/><path d="m-352-352h64 32-128z"/><path d="m-288-352v4z"/><path d="m-288-348v28z"/><path d="m-256-352h-32z"/><path d="m-352-320v-28z"/><path d="m-352-348v-4z"/><path d="m-288-348h-64z"/><path d="m-352-348h64z"/><path d="m-288-320h-64z"/><path d="m-352-352h-32z"/><path d="m-864-80h-4z"/><path d="m-868-80h4v32h-4z"/><path d="m-640 416v4z"/><path d="m-640 416h32v4h-32z"/><path d="m-640 420h32z"/><path d="m-992-160h32z"/><path d="m-1120-160h32 96-64z"/><path d="m-1312-160h-112-112 128z"/><path d="m-1088-160h-32-144-48 128 32z"/><path d="m-1424-160h112 48-32-96z"/><path d="m-1536-160h112z"/><path d="m-1264-192h-160z"/><path d="m-960-128v-32z"/><path d="m-960-128v128z"/><path d="m-960 0v32z"/><path d="m-960 192v-32 128z"/><path d="m-960 192v96-64z"/><path d="m-992 320h-96 32z"/><path d="m-992 320h-96z"/><path d="m-1536-144v-16 32z"/><path d="m992 288h-208z"/><path d="m1216 288h-96-128 16z"/><path d="m1120 288h96 112-96z"/><path d="m1120-192h32z"/><path d="m1120-160v-32h-128v32 192h128z"/><path d="m992 32v32 192h128v-192-32z"/><path d="m992 256v32h128v-32z"/><path d="m992-192v32z"/><path d="m1120 64v192 32-32z"/><path d="m1120-160v192 32-32z"/><path d="m-256-32v-16z"/><path d="m-256-32h96z"/><path d="m-160-48h-96v16h96z"/><path d="m-160-32v16 1z"/><path d="m-160-15h-96v-17h96z"/><path d="m-160-15h-96z"/><path d="m-336 96 32 32z"/><path d="m-304 320v96-1z"/><path d="m-304 320v-16z"/><path d="m-304 128v112 64 16-80z"/><path d="m-336 96h-160z"/><path d="m-496-64v160z"/><path d="m-496-64v80 80z"/><path d="m-560 240v64z"/><path d="m-432 240h128v-112l-32-32h-160v144z"/><path d="m-432 240v32 32z"/><path d="m-304 304v-64h-128v64z"/><path d="m-992-160h-96z"/><path d="m-1264-192h-160z"/><path d="m-960-128v-32 96 64z"/><path d="m-960 288v-128 160z"/><path d="m-1408 320h-16-96-16z"/><path d="m-1312 320h-96-128 192z"/><path d="m-1088 320h-64-32-128 160z"/><path d="m-1088 320h96 32-96-96z"/><path d="m-960 320h-32z"/><path d="m-1152-32h32z"/><path d="m-1152 224h32z"/><path d="m-1520 144h-16v64h16z"/><path d="m-1408 288v-48h-16v64h16z"/><path d="m-1408 144h-16v64h16z"/><path d="m-1520 240h-16v64h16z"/><path d="m-1520 48h-16v48 16h16z"/><path d="m-1408 64v-16h-16v64h16z"/><path d="m-1408-48h-16v48 16h16z"/><path d="m-1520-48h-16v64h16z"/><path d="m-1520-144h-16v16 48h16z"/><path d="m-1408-144h-16v64h16z"/><path d="m-1184-160h-128-96v16 64 32 64 32 16h224z"/><path d="m-1408 64v48 32 64 32 48h224v-224z"/><path d="m-1408 288v16 16h96 128v-32z"/><path d="m-1152-32v-32-96h-32v224h32z"/><path d="m-1184 64v224h32v-64-32-128z"/><path d="m-1184 288v32h32v-32z"/><path d="m-1424 0v-48 16z"/><path d="m-1424 16v-16z"/><path d="m-1408-144v-16z"/><path d="m-1408-80v32z"/><path d="m-1408 240v-32z"/><path d="m-1408 320v-16z"/><path d="m-544 416h32 32z"/><path d="m-608 416h64z"/><path d="m-608 416h64 64-96-64z"/><path d="m-480 416h176-48z"/><path d="m-864-48v48z"/><path d="m-864-224v144 32 48-96z"/><path d="m-864-224v-96 96 144z"/><path d="m-868-48h4z"/><path d="m-864-80h-4v32h4z"/><path d="m-868-80v32z"/><path d="m-608 420v-4z"/><path d="m-608 416h-32v4h32z"/><path d="m-256-320v-32z"/><path d="m-256-15v-17z"/><path d="m-256-15v15 48z"/><path d="m96-272h-112z"/><path d="m-176-656h-32z"/><path d="m-208-656h-48z"/><path d="m-176-464v-160-32h-32-48v192z"/><path d="m-176-624v-32z"/><path d="m-176-320h-32z"/><path d="m-208-320h-48z"/><path d="m-176-352v-80-32h-80v80 32 32h48 32z"/><path d="m160 144v-32z"/><path d="m160 240v32z"/><path d="m320 80h32z"/><path d="m448 80h32z"/><path d="m384-48v1z"/><path d="m417-80h-1z"/><path d="m417-48v-32 32 1z"/><path d="m448-48h112-16-127z"/><path d="m417 80h31v-127h-31z"/><path d="m417-48v1h31v-1z"/><path d="m560 32v-80h-112v1 127h32 80z"/><path d="m384-47v127h33v-127z"/><path d="m384-47h33z"/><path d="m208 80v-128z"/><path d="m320 80h32 32v-127-1h-176v128z"/><path d="m384-48h-176z"/><path d="m560 112v16z"/><path d="m384 112h-32-32-160z"/><path d="m544 112h16-32-48z"/><path d="m480 112h-32z"/><path d="m352 112h-32z"/><path d="m320 112h-160z"/><path d="m417 80h-33-32v32h32 64v-32z"/><path d="m352 80v32z"/><path d="m448 112v-32z"/><path d="m544 272h-160z"/><path d="m384 272h-224z"/><path d="m528 128v32z"/><path d="m528 224v-64-32h16v128h-16z"/><path d="m544 112v16h16v-16z"/><path d="m544 256v16h16v-16z"/><path d="m544 256v-128-16 160z"/><path d="m560 128h-16-16z"/><path d="m96-272 48 48z"/><path d="m144-112v128 32 64-192z"/><path d="m144-224v112z"/><path d="m144-112v-112 176 64z"/><path d="m144 112v32z"/><path d="m144 48v-32z"/><path d="m144 240v-96-32-64 224z"/><path d="m144 272v-32z"/><path d="m160 144h-16v96h16z"/><path d="m144 144h16z"/><path d="m144 240h16z"/><path d="m-32-80h-96z"/><path d="m-128-80v-192h-32v192z"/><path d="m-160-80v-192h-80v192z"/><path d="m-160-32h-96v-16h96z"/><path d="m-160-32h-96z"/><path d="m-32-48h-48-32-48z"/><path d="m-160-48v16z"/><path d="m-688-384h-16-96z"/><path d="m-528-384h32-1z"/><path d="m-576-384h-80-16-16-112z"/><path d="m-432-624v32z"/><path d="m-432-656v32z"/><path d="m-432-592v32z"/><path d="m-432-384v-32z"/><path d="m-400-656h-32z"/><path d="m-256-656h-128v192h128z"/><path d="m-384-464v-192h-16-32v32 32 32 128h48z"/><path d="m-432-432v16 32h48v-48z"/><path d="m-256-384v-80h-128v32 48z"/><path d="m-768-592h64z"/><path d="m-768-752v16z"/><path d="m-528-736v112 32z"/><path d="m-528-752v-96h-144-96v96z"/><path d="m-768-592v-144-16h-128v16 144z"/><path d="m-656-560v96 48z"/><path d="m-528-416h-128v32h80 48z"/><path d="m-432-432v-128h-32-96-96v144h128 32 32 32z"/><path d="m-464-416h-32z"/><path d="m-496-416h-32z"/><path d="m-432-416h-32z"/><path d="m-560-560h96-64z"/><path d="m-528-416v32z"/><path d="m-656-560h96z"/><path d="m-496-384v96z"/><path d="m-256-352v-32h-128v32z"/><path d="m-432-384v32 32h32 16v-32-32z"/><path d="m-384-320h-16z"/><path d="m-400-320h-32z"/><path d="m-432-320v-32z"/><path d="m-432-352v-32z"/><path d="m-896-736h-80-32z"/><path d="m-1008-592h-32-192 192z"/><path d="m-896-592h-112z"/><path d="m-1232-592h-32z"/><path d="m-1040-592v-144z"/><path d="m-1008-592h112v-144h-112-32v144z"/><path d="m-1424-128v32 16-64z"/><path d="m-1424-128v-16z"/><path d="m-1424-32v-16z"/><path d="m-1424 64v-16z"/><path d="m-1424 64v32 16-64z"/><path d="m-1424 160v-16z"/><path d="m-1424 256v-16z"/><path d="m-1424 256v32 16-64z"/><path d="m-1424 160v32 16-64z"/><path d="m-1424-80h16z"/><path d="m-1424 208h16z"/><path d="m-1424 112h16z"/><path d="m-1424 304h16z"/><path d="m-1520-96v16z"/><path d="m-1520-96v-32-16 64z"/><path d="m-1520 0v-32-16 64z"/><path d="m-1520 0v16z"/><path d="m-1520 96v-32-16 64z"/><path d="m-1520 96v16z"/><path d="m-1520 192v16z"/><path d="m-1520 192v-32-16 64z"/><path d="m-1520 288v16z"/><path d="m-1520 288v-32-16 64z"/><path d="m-1520 64h96z"/><path d="m-1520-32h96z"/><path d="m-1424-96h-96z"/><path d="m-1520-128h96z"/><path d="m-1424-128h-96v32h96z"/><path d="m-1424 0h-96z"/><path d="m-1424-32h-96v32h96z"/><path d="m-1424 192h-96z"/><path d="m-1424 96h-96z"/><path d="m-1424 64h-96v32h96z"/><path d="m-1520 160h96z"/><path d="m-1424 160h-96v32h96z"/><path d="m-1520 256h96z"/><path d="m-1424 288h-96z"/><path d="m-1424 256h-96v32h96z"/><path d="m-1520-48h-16z"/><path d="m-1520-144h-16z"/><path d="m-1520 48h-16z"/><path d="m-1520 144h-16z"/><path d="m-1520 240h-16z"/><path d="m1328 320-64 64z"/><path d="m1008-384h-16-208z"/><path d="m784 320 64 64z"/><path d="m1120-224v32z"/><path d="m1120-352v32 32 64z"/><path d="m992-224v-160h16 80 32v32 128 32h-128z"/><path d="m960-224h-176v-32-96-32h208v160z"/><path d="m992 64v192 32-32z"/><path d="m992-160v192 32-32z"/><path d="m1120-192v32z"/><path d="m1120-192v32 192h-128v-192-32z"/><path d="m1120 32v32 192h-128v-192-32z"/><path d="m1120 256v32h-112-16v-32z"/><path d="m1008 384h-16-32-80-32l-64-64v-32h208 16z"/><path d="m1232 384h-80-32-112v-96h112 112z"/><path d="m1328 288v32l-64 64h-32v-96z"/><path d="m752-224v176z"/><path d="m752 48h16z"/><path d="m784-352v96h-32v-96z"/><path d="m752-352h16 16z"/><path d="m784-256h-16-16z"/><path d="m752 144h16z"/><path d="m752 144h16v-96h-16z"/><path d="m768 144v-96z"/><path d="m592-48h32 96 32-176z"/><path d="m624-48h-32z"/><path d="m592-48h-16z"/><path d="m752-384v32 96 32h-176v-160z"/><path d="m752-224h-128-48z"/><path d="m720 48v96h32v-96z"/><path d="m720 48v-48-16-16h-96v4 140 32h32 64z"/><path d="m720-48h-96v16h96z"/><path d="m624-32v-16 20z"/><path d="m624 112v32z"/><path d="m720-48v16 16z"/><path d="m720-16v16z"/><path d="m624 144h32z"/><path d="m-544-848h-224z"/><path d="m-320-848h-112-96-16 16z"/><path d="m-256-720v-32z"/><path d="m-256-288v112 112-144-32z"/><path d="m-256-512v112 112-176z"/><path d="m-256-48v33 63-96-16z"/><path d="m-256-48v16 17z"/><path d="m-208 272-48-48z"/><path d="m-160-288v-96h32v96z"/><path d="m-256-720v-32-96h69 27v16 192 16h-96z"/><path d="m-160-624v208 16h-96v-112-112z"/><path d="m-160-400v16 96 32 80h-96v-112-112z"/><path d="m-160-176v128h-96v-16-112z"/><path d="m144-272v48l-48-48z"/><path d="m144-224v-48h112v80 144h-112z"/><path d="m256-48v64h-96-16v-64z"/><path d="m96-272h-224v-16-96-32h224z"/><path d="m160-416h96v144h-112-48v-144z"/><path d="m417-48v1h-1v-1-32h1z"/><path d="m417-47v-1h127v80h-127z"/><path d="m416-47h1v79h-17v-79z"/><path d="m416-47h-16v-1h16z"/><path d="m416-352v96h-32v-96z"/><path d="m256-272v-144h128v32 32 96 32 32h-128z"/><path d="m384-192v144l-64 64h-64v-64-144z"/><path d="m576-224h-160v-32-96-32h160z"/><path d="m544 272v48h-32-64-64v-48z"/><path d="m96-416h-224z"/><path d="m-160-832v80 112z"/><path d="m-160-832v-16z"/><path d="m560-48h16-32z"/><path d="m384-192v-32 176z"/><path d="m384-352h16 16z"/><path d="m544 112v-16 224-48z"/><path d="m417 32h127-144z"/><path d="m256 16h64-96-32-32z"/><path d="m384 112h-224v-16-32h32 64 64 64z"/><path d="m144 272h-128z"/><path d="m-32-80h-96z"/><path d="m-160-176v-80 64 144z"/><path d="m-160-288v32z"/><path d="m144 16v32z"/><path d="m144 48v192 32z"/><path d="m96-272h-112-112z"/><path d="m160 112v32 96 32z"/><path d="m417-80v32z"/><path d="m576-48h-16z"/><path d="m544 112h-64-32-64z"/><path d="m384 272h-224z"/><path d="m16 272h-224 112 64z"/><path d="m144-224-48-48z"/><path d="m-32-80v32z"/><path d="m-128-80v-176-16z"/><path d="m-160-48h128-128-96z"/><path d="m-320-848h32 32v96h-32-144v-96z"/><path d="m-288-752h-16-128z"/><path d="m-528-752v16z"/><path d="m-432-752h-80-16v-96h96z"/><path d="m-528-752h-240v-96h224 16z"/><path d="m-528-752h-240z"/><path d="m-1424-288v-80z"/><path d="m-1264-512h-160v-48h160z"/><path d="m-1264-416v48h-160v-64h160z"/><path d="m-1264-288v64h-160v-64z"/><path d="m-1264-432v-80-48 144z"/><path d="m-1264-512v80z"/><path d="m-1264-368v80z"/><path d="m-1264-224v32z"/><path d="m-1264-368h-160z"/><path d="m-1264-512h-160z"/><path d="m-1424-432h160z"/><path d="m-1424-288h160z"/><path d="m-1264-224h-160z"/><path d="m-1424-80v-16z"/><path d="m-1424 0v-32-16z"/><path d="m-1424 112v-16z"/><path d="m-1424 304v-16z"/><path d="m-1424 208v-16z"/><path d="m-1520-144v16z"/><path d="m-1520-48v16z"/><path d="m-1520 48v16z"/><path d="m-1520 144v16z"/><path d="m-1520 240v16z"/><path d="m-1424 288h-96v-32h96z"/><path d="m-1424 192h-96v-32h96z"/><path d="m-1424 96h-96v-32h96z"/><path d="m-1424 0h-96v-32h96z"/><path d="m-1424-96h-96v-32h96z"/><path d="m160 96v16 160 48z"/><path d="m544 96v-32z"/><path d="m-1536 320v-16z"/><path d="m-1536 240v-32z"/><path d="m-1536 144v-32z"/><path d="m-1536 48v-32z"/><path d="m-1536-80v32z"/><path d="m-1536-144v-16z"/><path d="m-864 352 64 64z"/><path d="m-304 416h-48z"/><path d="m-576-384h-224 160z"/><path d="m-496-384h-32-48z"/><path d="m-800-384-64 64z"/><path d="m-864 160v128 32 32z"/><path d="m-864 32v-32z"/><path d="m-864 160v-32z"/><path d="m-864-320v96z"/><path d="m-864 128v32 192-32-32z"/><path d="m-864-96v96 32 96-64z"/><path d="m-304 240v48h-128v-48z"/><path d="m-304 320v-16 16 96z"/><path d="m-304 288v-48z"/><path d="m-496-288v-96 176z"/><path d="m-336 304h-96-128z"/><path d="m-496-288v80 144-64-144z"/><path d="m-560 240h64z"/><path d="m-496 96v144z"/><path d="m-432 304h96 32z"/><path d="m-432 304h-80-48z"/><path d="m-896 32h16 16z"/><path d="m-880 32v96h16v-96z"/><path d="m-880 128v-96h-16v96z"/><path d="m-864 128h-16-16z"/><path d="m-960-160h-32-96-64z"/><path d="m-1536-160h16 96 16z"/><path d="m-1200-736h160-192z"/><path d="m-1200-592h-32 192z"/><path d="m-1200-736h-32-192v144h160 32 32z"/><path d="m-1040-592v-144h-160v144z"/><path d="m-960 128v32z"/><path d="m-896 32h-32-32v96h32 32z"/><path d="m-960 32h32z"/><path d="m-928 32h32z"/><path d="m-928 128h-32z"/><path d="m-896 128h-32z"/><path d="m-1152 320v-96 64z"/><path d="m-1152 192v-224 96z"/><path d="m-1152-64v-96z"/><path d="m-1120-64h32 32 96v-96h-192v96z"/><path d="m-960 128v-96-32-64h-96v32 32 32 32 32 32 32h96z"/><path d="m-1056 160v32 32 96h96v-160z"/><path d="m-1088-32v32h32v-32z"/><path d="m-1088 32v32h32v-32z"/><path d="m-1120 160v-192h-32v224h32z"/><path d="m-1088 128v-32-32-32-32-32-32h-32v32 192h32z"/><path d="m-1120 160v32 32h32v-32-32z"/><path d="m-1088 160v32h32v-32z"/><path d="m-1088 96v32h32v-32z"/><path d="m-1056 320v-96h-32-32-32v96z"/><path d="m-1088 160h32z"/><path d="m-1120-32v-32z"/><path d="m-1088-32h32z"/><path d="m-1056 32v-32z"/><path d="m-1056 160v-32z"/><path d="m-1056 96v-32z"/><path d="m-1088 0v32z"/><path d="m-1088 32h32z"/><path d="m-1088 64v32z"/><path d="m-1088 96h32z"/><path d="m-1088 128v32z"/><path d="m-1056 224v-32z"/><path d="m-1088 224h32z"/><path d="m-1120 224v-32z"/><path d="m-1088 192v32z"/><path d="m-1424-80v-16-32-16z"/><path d="m-1424 64v48-16-32-16z"/><path d="m-1424 208v-16-32-16z"/><path d="m-1424 288v16-16-32-16z"/><path d="m-1408 48h-16z"/><path d="m-1408-48h-16z"/><path d="m-1408-160h-16v16h16z"/><path d="m-1408-144h-16z"/><path d="m-1408-80h-16v32h16z"/><path d="m-1424 16v32h16v-32z"/><path d="m-1424 16h16z"/><path d="m-1408 16v32z"/><path d="m-1424 112v32h16v-32z"/><path d="m-1408 144h-16z"/><path d="m-1408 112v32z"/><path d="m-1408 240h-16z"/><path d="m-1424 208v32h16v-32z"/><path d="m-1424 304v16h16v-16z"/><path d="m-1520-144v16 32 16z"/><path d="m-1520-48v16 32 16z"/><path d="m-1520 64v-16 16 32 16z"/><path d="m-1520 144v16 32 16z"/><path d="m-1520 288v-48 16 32 16z"/><path d="m-1424 48v-32-16-48-32-64-16h-96v16 64 32 64 32 16h96z"/><path d="m-1520 64v48 32 64 32 48h96v-48-32-64-32-48z"/><path d="m-1520 288v16 16h96v-16-16z"/><path d="m-1536 112h16z"/><path d="m-1536-80h16z"/><path d="m-1520-160h-16v16h16z"/><path d="m-1520-80h-16v32h16z"/><path d="m-1536 16v32h16v-32z"/><path d="m-1536 16h16z"/><path d="m-1536 208h16z"/><path d="m-1536 112v32h16v-32z"/><path d="m-1536 208v32h16v-32z"/><path d="m-1536 304v16h16v-16z"/><path d="m-1536 304h16z"/><path d="m1120-224v-64z"/><path d="m1120-288h4z"/><path d="m1120-288v-32h4v32z"/><path d="m1124-288v-32z"/><path d="m-864 352 64 64z"/><path d="m608-384h144-176z"/><path d="m608-384v-4z"/><path d="m608-384h-32v-4h32z"/><path d="m608-388h-32z"/><path d="m-576 416h-64-160 160z"/><path d="m-352 416h-64-160 96z"/><path d="m-240-848h32 21-69-32z"/><path d="m-240-852v4z"/><path d="m-208-848v-4z"/><path d="m-208-852v4h-32v-4z"/><path d="m-256-688v-32 96 112z"/><path d="m-256-464v176 48-192z"/><path d="m-256-688v176 48-192z"/><path d="m-256-64v-128-16z"/><path d="m-560-384h64-80z"/><path d="m-704-592h176-240z"/><path d="m-768-592v-32-112z"/><path d="m-800-384-64 64z"/><path d="m-864-160v-160 96 128z"/><path d="m-256-240h-4z"/><path d="m-260-208v-32h4v32z"/><path d="m-260-240v32z"/><path d="m-640 320h-224v32l64 64h160z"/><path d="m-416 320h-144-80v96h64 160z"/><path d="m-352 416h48v-96h-32-80v96z"/><path d="m-304 288v-48h-128v48z"/><path d="m-336 304h-224v16h144 80z"/><path d="m-304 320v-16h-32v16z"/><path d="m-640-384h-160l-64 64v160h224z"/><path d="m-864-160v64 160h224v-224z"/><path d="m-864 64v64 160h224v-224z"/><path d="m-864 288v32h224v-32z"/><path d="m-560-384h-16-64v224h80z"/><path d="m-640-160v224h80v-224z"/><path d="m-640 64v224h80v-48-176z"/><path d="m-640 288v32h80v-16-16z"/><path d="m-496-208v-176h-64v224h64z"/><path d="m-560-160v224h64v-48-176z"/><path d="m-560 64v176h64v-176z"/><path d="m-304 240h-128z"/><path d="m-560 240h64z"/><path d="m-496 16v48 176-144z"/><path d="m-496-208v48 176-80z"/><path d="m-560 288v16-64z"/><path d="m-304 304h-32z"/><path d="m-432 240v48z"/><path d="m-432 288h128z"/><path d="m256 320h64z"/><path d="m384 320h64z"/><path d="m512 320h32z"/><path d="m384 320h-64-64-64-32v-48h224z"/><path d="m256-416h-64z"/><path d="m192-416h64 128-128-96z"/><path d="m192-416v-4z"/><path d="m192-416h-32v-4h32z"/><path d="m192-420h-32z"/><path d="m384-416v32z"/><path d="m192 64h-32z"/><path d="m320 64h-64z"/><path d="m448 64h-64z"/><path d="m320 16h-96z"/><path d="m160 16h32z"/><path d="m192 16v4z"/><path d="m192 16h32v4h-32z"/><path d="m192 20h32z"/><path d="m256 96v-32h-64v32 192h64z"/><path d="m192 288v32h64v-32z"/><path d="m384 96v-32h-64v32 192h64z"/><path d="m320 288v32h64v-32z"/><path d="m512 96v-32h-64v32 192h64z"/><path d="m448 288v32h64v-32z"/><path d="m384 96v192 32-32z"/><path d="m448 64v32z"/><path d="m512 96v192 32-32z"/><path d="m256 96v192 32-32z"/><path d="m320 64v32z"/><path d="m192 64v32z"/><path d="m448 64h64 32v32 16h-160v-48z"/><path d="m144 16h16z"/><path d="m160 16h-16z"/><path d="m1120-288v-32-32 128z"/><path d="m1120-320v-32z"/><path d="m1124-320h-4z"/><path d="m1120-320v32h4v-32z"/><path d="m576-388v4z"/><path d="m752-384h-144z"/><path d="m576-384h32v-4h-32z"/><path d="m-240-848h-48z"/><path d="m-187-848h-21z"/><path d="m-240-848h32v-4h-32z"/><path d="m-208-852h-32z"/><path d="m-256-432v192 32-208z"/><path d="m-256-656v192 32-96z"/><path d="m-256-720v32z"/><path d="m576-384h-160z"/><path d="m-260-208h4z"/><path d="m-260-240v32h4v-32z"/><path d="m256-416h-64-32z"/><path d="m256-416h64 64z"/><path d="m160-420v4z"/><path d="m160-416h32v-4h-32z"/><path d="m192 16h32 96-160z"/><path d="m224 20v-4z"/><path d="m224 16h-32v4h32z"/><path d="m-1424-192v-96 64z"/><path d="m-1424-560v48 80 64z"/><path d="m-1424-560h160z"/><path d="m-1264-416v224-32-64-80z"/><path d="m-256 224v-48-128 16 16z"/><path d="m16 272h-48-64-112z"/><path d="m-96-48h64-128z"/><path d="m-32-48v-32z"/><path d="m-32 16h176z"/><path d="m144 48v-32h-176v224h176z"/><path d="m-32 240v32h48 128v-32z"/><path d="m-96 16v-64h-64-96v96 128h160z"/><path d="m-256 176v48l48 48h112v-32-64z"/><path d="m-32 16v-64h-64v64z"/><path d="m-32 16h-64v160 64h64z"/><path d="m-96 240v32h64v-32z"/><path d="m1328 320v-32z"/><path d="m1328 240v48z"/><path d="m1328 112v128z"/><path d="m1328 80v16 16z"/><path d="m1328-96v48z"/><path d="m1328-128v32z"/><path d="m1328 80v-128-48-32 32 192z"/><path d="m1328 320-64 64z"/><path d="m784-384v32z"/><path d="m784-256v32z"/><path d="m784 96v16 176 32-192z"/><path d="m784-96v-32z"/><path d="m784 112v32 32 112z"/><path d="m784 80v-80 16 32z"/><path d="m784 112v-16-16z"/><path d="m784 288v32z"/><path d="m1088-384h-80z"/><path d="m1120-384h-32z"/><path d="m848 384h32z"/><path d="m880 384h80z"/><path d="m960 384h32z"/><path d="m1072 384h-80 16 112z"/><path d="m1152 384h80z"/><path d="m1232 384h32z"/><path d="m1120 384h32z"/><path d="m1120 384h32 80 32-176-16z"/><path d="m784 320 64 64-32-32z"/><path d="m1008-384h-224v32 96 32h176 32 16z"/><path d="m1120-224v-128-32h-32-80v160z"/><path d="m1120-224h-112-16v32h80 48z"/><path d="m1072-192h-80-32-80-32 160z"/><path d="m848-192-64 64z"/><path d="m1264-192 64 64z"/><path d="m1232-192h32z"/><path d="m848-192h32z"/><path d="m880-192h80z"/><path d="m960-192h32z"/><path d="m1152-192h80z"/><path d="m992-224v32z"/><path d="m1120-352v-32z"/><path d="m784-224h176z"/><path d="m960-224h32z"/><path d="m784-128 64-64z"/><path d="m752-224v-32z"/><path d="m752-352v-32 112z"/><path d="m752-352v-32z"/><path d="m768-352v96h16v-96z"/><path d="m752-352v80 16h16v-96z"/><path d="m752-48h-176z"/><path d="m752-384h-144-32z"/><path d="m-304-848h16-32z"/><path d="m-256-848h69-21-32-48z"/><path d="m-160-848h-27z"/><path d="m-256-720v32 32z"/><path d="m-256-48v-16z"/><path d="m160 320h32z"/><path d="m-160-640v112 112-208z"/><path d="m-160-752v-80-16h-27-69v96z"/><path d="m-160-640v-112h-96v32 64 128h96z"/><path d="m-256-528v96 16h96v-112z"/><path d="m160 64v32z"/><path d="m416-48h-16z"/><path d="m384-352v-32z"/><path d="m384-224v-32z"/><path d="m576-384h-160z"/><path d="m416-256v32z"/><path d="m416-384v32z"/><path d="m416-224v144 32z"/><path d="m416-272v16 32 176-112z"/><path d="m400-224h-16v-32h16z"/><path d="m400-352v96h16v-16-80z"/><path d="m400-352h-16v-32h16z"/><path d="m400-256v-96-32 160z"/><path d="m400-256h-16 32z"/><path d="m544 32v-80z"/><path d="m544 64v32z"/><path d="m544 64h-32z"/><path d="m400-48v1 79z"/><path d="m544 32h-144z"/><path d="m192 96v-32h64v32 192h-64z"/><path d="m256 288v32h-64v-32z"/><path d="m320 96v-32h64v32 192h-64z"/><path d="m384 288v32h-64v-32z"/><path d="m448 96v-32h64v32 192h-64z"/><path d="m512 288v32h-64v-32z"/><path d="m384 64v32z"/><path d="m448 96v192 32-32z"/><path d="m512 64v32z"/><path d="m256 64v32z"/><path d="m320 96v192 32-32z"/><path d="m192 96v192 32-32z"/><path d="m-256-48h96z"/><path d="m-128-288v16 16z"/><path d="m-128-416v32z"/><path d="m-160-384v-16-16z"/><path d="m-160-384v96h32v-96z"/><path d="m-128-384h-32z"/><path d="m-160-288h32z"/><path d="m-256-416v208 16h96v-64-32-96-32z"/><path d="m-256-192v128 16h96v-144z"/><path d="m-32-48v64z"/><path d="m-32-48v64z"/><path d="m-528-736v-16-96h-16-224v112 112h240z"/><path d="m-768-624v32h240v-32z"/><path d="m-304-848h-16-208v96h16 80 128z"/><path d="m-256-848h-32-16v96h16 32z"/><path d="m-288-752h32z"/><path d="m-768-736v-112 96z"/><path d="m-528-752h16z"/><path d="m-432-752h-80z"/><path d="m1328 96v32 160 32-32-48-128z"/><path d="m784-96v-32 32 96 80 16z"/><path d="m1072 384h-208-16 32 80 32z"/><path d="m1232-192h32-32-80-32-48z"/><path d="m1088 288h-224v64 32h208 16z"/><path d="m1264 384 64-64v-32h-80-160v96z"/><path d="m1088 272h-208-16v16h224z"/><path d="m1248 288v-16h-16-128-16v16z"/><path d="m880 48v-128-16h-16v224h16z"/><path d="m864 128v144h16v-144z"/><path d="m864-96h-80v192 32h80z"/><path d="m784 128v192l32 32h48v-64-16-144z"/><path d="m816 352 32 32h16v-32z"/><path d="m1248 128v-208h-16v128 96h16z"/><path d="m1232 144v128h16v-128z"/><path d="m1104-96h-96-128v16h224z"/><path d="m1232-80h16v-16h-16-128v16z"/><path d="m1328 96v-192h-80v16 208h80z"/><path d="m1248 128v16 128 16h80v-160z"/><path d="m1008-192h-160l-64 64v32h80 16 128z"/><path d="m1232-192h-160-64v96h96 128z"/><path d="m1248-96h80v-32l-64-64h-32v96z"/><path d="m880 48v80 144-32-64-48-64z"/><path d="m1232 272h-128z"/><path d="m1232-80v32 64 32z"/><path d="m1104-80h-224z"/><path d="m1328-128-64-64z"/><path d="m752-272v112 112-176-32z"/><path d="m752-384h-176z"/><path d="m752-160v-112-112h-176v224z"/><path d="m752-48v-112h-176v112z"/><path d="m576-48h-32z"/><path d="m416-48h-16z"/><path d="m384-384v112 48z"/><path d="m400-384h-16z"/><path d="m416-384v32 80z"/><path d="m576-384h-160v112 112h160z"/><path d="m416-160v112h128 32v-112z"/><path d="m384-224h16z"/><path d="m400-384h-16v160h16z"/><path d="m544 32v-80z"/><path d="m544 96v224z"/><path d="m400-48v80z"/><path d="m544 32v-80h-128-16v80z"/><path d="m896 176h-16v64h16z"/><path d="m896 64h-16v64h16z"/><path d="m1232 176h-16v16 32 16h16z"/><path d="m1232 64h-16v64h16z"/><path d="m896 0v-48h-16v64h16z"/><path d="m1232-48h-16v48 16h16z"/><path d="m1104-80h-224z"/><path d="m1216 16v-16z"/><path d="m1216 0v-48 16z"/><path d="m1216 240v-16z"/><path d="m1216 224v-32z"/><path d="m1232 272h-128z"/><path d="m880 16v-64-32 128z"/><path d="m1104 272h-224 208z"/><path d="m1232 48v16 64 48 64 32-128z"/><path d="m1232-80h-128z"/><path d="m1216 128h16z"/><path d="m896-48h-16z"/><path d="m896-32v-16 48z"/><path d="m1216-32v-16z"/><path d="m1120 0h-224z"/><path d="m1120-32h-224v32h224z"/><path d="m1216 0v-32h-96v32z"/><path d="m1216-32h-96z"/><path d="m1216 80v32 16-64z"/><path d="m1216 80v-16z"/><path d="m896 112v16z"/><path d="m896 112v-32-16 64z"/><path d="m1120 112h-224z"/><path d="m1216 80h-96z"/><path d="m1120 80h-224v32h224z"/><path d="m1216 112v-32h-96v32z"/><path d="m896 64h-16z"/><path d="m896 176h-16z"/><path d="m896 224v16z"/><path d="m896 224v-32-16 64z"/><path d="m1216 192v-16z"/><path d="m1120 224h-224z"/><path d="m1120 192h-224v32h224z"/><path d="m1216 224v-32h-96v32z"/><path d="m1216 192h-96z"/><path d="m160-416h-64z"/><path d="m96-416h-224z"/><path d="m320-416h-64-96-64z"/><path d="m384-384v-32 144z"/><path d="m320 16h-128-32z"/><path d="m384-48-64 64z"/><path d="m-32-80v32z"/><path d="m-128-80v-176z"/><path d="m-128-304v-112 32 96 32z"/><path d="m-128-304v48 176-112z"/><path d="m-32-80h-96z"/><path d="m-32-48v64z"/><path d="m-32 16h176z"/><path d="m160 16h-16z"/><path d="m192-80h-96-128v32 64h192 32z"/><path d="m320 16 64-64v-32h-64-128v96z"/><path d="m96-416h-224v112 112h224z"/><path d="m-128-192v112h96 128v-112z"/><path d="m320-416h-224v224h224z"/><path d="m96-192v112h96 128v-112z"/><path d="m384-192v-80-144h-64v224z"/><path d="m384-80v-112h-64v112z"/><path d="m384-416h-64z"/><path d="m384-272v80 112 32-176z"/><path d="m320 16 64-64z"/><path d="m-32-80v32z"/><path d="m-128-416v112z"/><path d="m160 16h-192 176z"/><path d="m896-48v16z"/><path d="m1216 0v-32-16z"/><path d="m1120 0h-224v-32h224z"/><path d="m1216-32v32h-96v-32z"/><path d="m1216 0h-96z"/><path d="m1120-32h-224z"/><path d="m1216 128v-16z"/><path d="m896 64v16z"/><path d="m1216 112h-96z"/><path d="m1120 112h-224v-32h224z"/><path d="m1216 80v32h-96v-32z"/><path d="m1120 80h-224z"/><path d="m896 192v32 16z"/><path d="m896 192v-16z"/><path d="m1216 192v-16 48z"/><path d="m1120 224h-224v-32h224z"/><path d="m1216 192v32h-96v-32z"/><path d="m1216 224h-96z"/><path d="m1120 192h-224z"/><path d="m880 176h16v16 48h-16z"/><path d="m896 128h-16v-64h16z"/><path d="m1216 224v-48h16v64h-16z"/><path d="m1232 128h-16v-64h16z"/><path d="m880-48h16v48 16h-16z"/><path d="m1216 0v-48h16v64h-16z"/><path d="m880 48v16 64 48 64 32-144z"/><path d="m1232 272h-128z"/><path d="m1232 16v-64-32 128z"/><path d="m1104-80h-224z"/><path d="m880 128h16z"/><path d="m880 64v-16-32 32z"/><path d="m880-48v-32z"/><path d="m1232 16v32 16-16z"/><path d="m1232-80v32z"/><path d="m1216 16h16z"/><path d="m880 16h16z"/><path d="m1232-48h-16z"/><path d="m1232-80h-128z"/><path d="m896 16v-16z"/><path d="m896-48v16 32z"/><path d="m1216 128v-16-32-16z"/><path d="m1232 64h-16z"/><path d="m896 64v16 32 16z"/><path d="m880 272v-32z"/><path d="m880 176v-48z"/><path d="m1232 240v32z"/><path d="m1232 128v48z"/><path d="m1232 176h-16z"/><path d="m1216 240h16z"/><path d="m880 240h16z"/><path d="m1104 272h-224z"/><path d="m1104 288h-224v-16h224z"/><path d="m1232 272h16v16h-144v-16z"/><path d="m864-96h16v16 128 80h-16z"/><path d="m880 128v144 16h-16v-160z"/><path d="m1232 48v-128-16h16v224h-16z"/><path d="m1248 128v144h-16v-144z"/><path d="m1104-80h-224v-16h224z"/><path d="m1232-96v16h-128v-16z"/><path d="m880-80v32 64 32z"/><path d="m1104 272h-224z"/><path d="m1232 48v80 144-32-64-48-64z"/><path d="m1232-80h-128z"/></g></defs><path d="m-1701-1025h3190v1938h-3190z" fill="#fff"/><g stroke="#000"><use fill="none" stroke-miterlimit="0" stroke-width="15" xlink:href="#a"/><use fill="#fff" xlink:href="#a"/></g></svg>