<svg viewBox="-1120 -1184 1920 1920" xmlns="http://www.w3.org/2000/svg" xmlns:xlink="http://www.w3.org/1999/xlink"><defs><g id="a"><path d="m-653.2102 191.1793 6.3532-111.1793 6.4468-112.8206 112 223.9999z"/><path d="m-666.0102 415.1793 10.0102-175.1793 2.7898-48.8207h124.8l16.4102 32.8207 32 64 34.2858 68.5714v58.6079z"/><path d="m-445.7142 480h-82.2858-141.7142l3.704-64.8207h220.296z"/><path d="m-384 480h-61.7142v-64.8207-58.6079z"/><path d="m-416 272-41.1428 61.7142-22.8572-45.7142z"/><path d="m-656 240-10.0102 175.1793-3.704 64.8207h-82.2858l-48.7885-184.3121z"/><path d="m-494.3874 171.1624 71.5303-214.591 7.5907.3301 31.2664 1.3594v201.7391l-112 16z"/><path d="m-538.4187 171.1624-101.9915-203.983 1.1438-20.0171 216.4093 9.4091-71.5303 214.591z"/><path d="m-496 176-16 48-16.4102-32.8207-10.0085-20.0169h44.0313z"/><path d="m-416 272 32-48 27.8261-41.7391 36.1739-54.2609v176 48h-128l-9.1428-18.2858z"/><path d="m-320 352v128h-64l-61.7142-123.4286-2.2858-4.5714z"/><path d="m-384 160v-201.7391l172.169 7.4856-76.169 114.2535-32 48-36.1739 54.2609h-27.8261z"/><path d="m-356.1739 182.2609-27.8261 41.7391v-41.7391z"/><path d="m-256-80h64v46.6087l-19.831-.8622-172.169-7.4856v-38.2609z"/><path d="m-288 80 76.169-114.2535 19.831.8622v113.3913z"/><path d="m-384-80v-48-16h128v64z"/><path d="m-320 304v-176l32-48h96 96v224z"/><path d="m-96 493.1765-224-13.1765v-128-48h224z"/><path d="m-96 304v-224h128 32 64v224z"/><path d="m128 506.3529-224-13.1764v-189.1765h224z"/><path d="m288 80v131.4783 92.5217h-160v-224z"/><path d="m288 304v114.9091l-42 61.0909-22 32-96-5.6471v-202.3529z"/><path d="m-173.7143-192h13.7143 32 82.087 61.913v16 64h-208v-80z"/><path d="m128 80h-64v-102.2609l224 9.7392v92.5217z"/><path d="m96-176-32 64h-32-16v-64z"/><path d="m64-22.2609v-89.7391l32-64h48 144v163.4783z"/><path d="m144-176v-16h144v16z"/><path d="m512-2.7826-224-9.7391v-163.4783-16h80 32 112z"/><path d="m562.2857-192 13.7143 192-64-2.7826v-189.2174z"/><path d="m512 93.0909-81.3913 118.3874h-142.6087v-131.4783-92.5217l224 9.7391z"/><path d="m430.6087 211.4783-30.6087 44.5217-112 162.9091v-114.9091-92.5217z"/><path d="m576 0-22 32-42 61.0909v-95.8735z"/><path d="m-634.9714-128 .9143-16 10.0571-176 1.8286-32h174.1714 32.7336v224z"/><path d="m-415.2664-43.0985-7.5907-.3301-216.4093-9.4091 4.295-75.1623h219.705z"/><path d="m-384-352v80 128 16h-31.2664v-224z"/><path d="m-384-128v48 38.2609l-31.2664-1.3594v-84.9015z"/><path d="m-836.2532-398.5823 196.2532-65.4177 1.904 1.1107v146.8049l-224 62.2222z"/><path d="m-638.096-462.8893 21.543 12.5667-5.6184 98.3226-1.8286 32-14.096 3.9156z"/><path d="m-616.553-450.3226 168.553 98.3226h-174.1714z"/><path d="m-384-352h128v80h-128z"/><path d="m-256-144v-96l64 37.3333v10.6667 80 32h-64z"/><path d="m-160-320 9 23-9-3.5217z"/><path d="m-192-202.6667-64-37.3333v-32-80h32 64v32 19.4783 108.5217h-13.7143z"/><path d="m-160-300.5217 9 3.5217 23 9v49.7778 46.2222h-32z"/><path d="m-192-192v-10.6667l18.2857 10.6667z"/><path d="m-144.8918-358.6098 16.8918 6.6098-23 9z"/><path d="m-160-400v-176-48l26.3839 138.5154 5.6161 29.4846v8 48z"/><path d="m-128-352-16.8918-6.6098-15.1082-5.912v-35.4782h32z"/><path d="m-160-352v-12.5218l15.1082 5.912-6.1082 15.6098-9 23z"/><path d="m-176.2828-709.4846-35.5267-186.5154-7.1399-37.4846 90.9494 4.6641v219.3359z"/><path d="m-133.6161-485.4846-26.3839-138.5154-12.1905-64-4.0923-21.4846h48.2828v4.6641 16.8205 80 122.5154z"/><path d="m-128-456-5.6161-29.4846h5.6161z"/><path d="m-105-297-23 58.7778v-49.7778z"/><path d="m-112-448h128v112 40.3478l-121-47.3478-23-9v-48-48z"/><path d="m-96-320-9-23 121 47.3478v103.6522h-61.913z"/><path d="m-105-297 9-23 50.087 128h-82.087v-46.2222z"/><path d="m16-336v-112h64 64v112z"/><path d="m-128-456v-29.4846-122.5154h16v160h-16z"/><path d="m144-224v-112-112h105.1429 38.8571 80v224z"/><path d="m368-192h-80-144v-32h224z"/><path d="m400-448v16 208h-32v-224z"/><path d="m400-224v8 24h-32v-32z"/><path d="m96-608h107.4286l4.5714 16 32 112 9.1429 32h-105.1429-64v-160z"/><path d="m249.1429-448-9.1429-32 48 32z"/><path d="m400-216 48-120h104l8 112 2.2857 32h-50.2857-112z"/><path d="m203.4286-608-22.8572-80h171.4286l48 32v28.8l-32 51.2-160-16z"/><path d="m400-448v-96-83.2-28.8l48 32 48 32 16 96-25.6 64h-86.4z"/><path d="m486.4-432-38.4 96-48 120v-8-208z"/><path d="m368-576 32-51.2v83.2h-52z"/><path d="m96-608h-16-192-16v-80h118.4 105.6z"/><path d="m180.5714-688 22.8572 80h-107.4286v-80z"/><path d="m-128-704.8205v-4.6641-219.3359l22.534 1.1556 12.666 31.6649 44.8 112 31.6718 79.1795z"/><path d="m-128-688v-16.8205h111.6718l6.7282 16.8205z"/><path d="m-9.6-688-6.7282-16.8205-31.6718-79.1795 121.6471 11.0589 22.3529 84.9411z"/><path d="m552-336 8 112z"/><path d="m-445.7142 480h61.7142 64-208z"/><path d="m-800.7885 295.6879 48.7885 184.3121z"/><path d="m32 80h-128-96z"/><path d="m-211.8095-896 35.5267 186.5154 4.0923 21.4846z"/><path d="m-224-352h-32-128-31.2664-32.7336 159.2748z"/><path d="m-160-576v176 35.4782 12.5218-112z"/><path d="m-172.1905-688 12.1905 64z"/><path d="m-836.2532-398.5823 196.2532-65.4177z"/><path d="m-384-272v128z"/><path d="m-192-33.3913v-46.6087-32 32 128 32z"/><path d="m64-112h-32z"/><path d="m16-192v-103.6522-40.3478 160z"/><path d="m-634.0571-144-.9143 16-4.295 75.1623-1.1438 20.0171-6.4468 112.8206h-.0001l10.0571-176 2.7428-48z"/><path d="m-638.096-316.0844 14.096-3.9156-78.5944 21.8318-159.5016 44.306z"/><path d="m-384 160v22.2609 41.7391z"/><path d="m-646.857 80-6.3532 111.1793-2.7898 48.8207 9.1429-160z"/><path d="m-96 493.1765 224 13.1764z"/><path d="m128 506.3529 96 5.6471z"/><path d="m-192 80v-32z"/><path d="m-192 48h16z"/><path d="m-176 48h32z"/><path d="m-176-80h-16z"/><path d="m-192 48v-128h16v128z"/><path d="m-176 48v-128h32v128z"/><path d="m-144 48v-128z"/><path d="m-128-928.8205 22.534 1.1556-22.534-1.1556-90.9494-4.6641z"/><path d="m-836.2532-398.5823-25.8428 144.7201z"/><path d="m-827.5555-447.2889-8.6977 48.7066-25.8428 144.7201-5.4595 30.5733 11.5555-64.7111z"/><path d="m-811.2941 256 10.5056 39.6879 48.7885 184.3121z"/><path d="m-218.9494-933.4846 7.1399 37.4846z"/><path d="m-251.8738-935.173 32.9244 1.6884 7.1399 37.4846h-58.7992z"/><path d="m-211.8095-896 39.619 208h-116.5347-81.3617l99.4782-208z"/><path d="m-270.6087-896-99.4782 208h-.0001l33.5156-70.078z"/><path d="m-160-352h-64z"/><path d="m-160-624v48z"/><path d="m-477.2174-464 30.8726-64.5517 30.3448-63.4483 45.9131-96h81.3617v224z"/><path d="m-288.7252-352h-159.2748l-64.7252-37.7564 35.5078-74.2436h188.4922z"/><path d="m-172.1905-688 12.1905 64v48 112h-128.7252v-224z"/><path d="m-160-464v112h-64-64.7252v-112z"/><path d="m-612.2531-473.249 165.9083-55.3027-30.8726 64.5517-35.5078 74.2436-127.2748-74.2436z"/><path d="m-612.2531-473.249-27.7469 9.249-196.2532 65.4177 8.6977-48.7066 15.744-88.1666 199.5584-28.5083z"/><path d="m-587.8115-567.4555 171.8115-24.5445-30.3448 63.4483-165.9083 55.3027v-90.7148z"/><path d="m-370.0869-688-45.9131 96 45.913-96z"/><path d="m-587.8115-567.4555-24.4416 3.4917-199.5584 28.5083z"/><path d="m-512.7252-389.7564 64.7252 37.7564-168.553-98.3226-21.543-12.5667-1.904-1.1107z"/><path d="m-151-343 23-9z"/><path d="m-128-352 23 9z"/><path d="m-160-320 9-23z"/><path d="m-105-343 9 23z"/><path d="m-151-297-9-23z"/><path d="m-96-320-9 23z"/><path d="m-128-288-23-9z"/><path d="m-105-297-23 9z"/><path d="m-867.5555-223.2889 5.4595-30.5733 159.5016-44.306-1.4056 42.1682z"/><path d="m-707.7334-144 3.7334-112 1.4056-42.1682 78.5944-21.8318-10.0572 176-2.7428 48h-72.5334z"/><path d="m-636.8-96-10.0571 176h-68.3429l5.8666-176z"/><path d="m-707.7334-144-1.6 48-5.8666 176 3.7333-112 3.7334-112z"/><path d="m-704-256-163.5555 32.7111z"/><path d="m-624-320-10.0571 176h-.0001z"/><path d="m-646.8571 80-9.1429 160-65.3715 25.1429 1.3715-41.1429 4.8-144z"/><path d="m-721.3715 265.1429-79.417 30.545-10.5056-39.6879-4.8355-18.2673 96.1296-13.7327z"/><path d="m-715.2 80-4.8 144z"/><path d="m-721.3715 265.1429 65.3715-25.1429-144.7885 55.6879z"/><path d="m-752 480h82.2858 141.7142z"/><path d="m-320 480h-208z"/><path d="m-416 272-64 16z"/><path d="m-384 224v-64z"/><path d="m-480 288-32-64z"/><path d="m-496 176 112-16z"/><path d="m-384 224-32 48z"/><path d="m-512 224 16-48z"/><path d="m-128-928.8205-90.9494-4.6641-32.9244-1.6884z"/><path d="m-816-512 4.1885-23.4555-15.744 88.1666z"/><path d="m-856-288-11.5555 64.7111-28.4445 159.2889z"/><path d="m-776-736-8.5714 48-27.2401 152.5445-4.1885 23.4555z"/><path d="m-816.1296 237.7327 4.8355 18.2673z"/><path d="m-523.4286-896h-37.1428-186.8572l11.4286-64 212.5715 10.9011z"/><path d="m-299.4286-896h-37.1428-186.8572l.0001-53.0989 11.4285.5861 212.5714 10.9011z"/><path d="m-288-937.0256 36.1262 1.8526-18.7349 39.173h-28.8199v-41.6117z"/><path d="m-251.8738-935.173-18.7349 39.173z"/><path d="m-560.5714-688h-27.2401-196.7599l8.5714-48 28.5714-160h186.8572z"/><path d="m-336.5714-758.078-33.5156 70.078h-190.4844v-208h37.1428 186.8572z"/><path d="m-299.4286-896h28.8199l-65.9627 137.922v-137.922z"/><path d="m59.9322-608h-137.5254-34.4068 192z"/><path d="m-112-448v-160z"/><path d="m80-466.9831 32-13.0169-32-78.6667z"/><path d="m-54-550 41.4915 102h-99.4915v-160h34.4068z"/><path d="m-54-550-23.5932-58h137.5254l4.0678 10z"/><path d="m80-448h-46.6667l46.6667-18.9831z"/><path d="m64-598-4.0678-10h20.0678v49.3333z"/><path d="m-12.5085-448 6.5085 16 39.3333-16z"/><path d="m-12.5085-448-41.4915-102 48 118z"/><path d="m-12.5085-448h45.8418 46.6667-64-128z"/><path d="m80-466.9831v-91.6836-49.3333 160z"/><path d="m-587.8115-567.4555-224 32 27.2401-152.5445h196.7599z"/><path d="m-560.5714-688h190.4844l-45.913 96-171.8115 24.5445v-120.5445z"/><path d="m-416-592-171.8115 24.5445z"/><path d="m-867.5555-223.2889 163.5555-32.7111-3.7333 112-3.7334 112h-176.0628l-8.4705-32z"/><path d="m-711.4667-32-3.7333 112h-142.6824l-12.7059-48-16.9412-64z"/><path d="m-704-256-3.7334 112h.0001z"/><path d="m-715.2 80-4.8 144-96.1296 13.7327-41.7528-157.7327z"/><path d="m-720 224-96.1296 13.7327z"/><path d="m-816-512-11.5555 64.7111-28.4445 159.2889z"/><path d="m-816-512 40-224z"/><path d="m496-592-48-32z"/><path d="m448-624-48-32-48-32z"/><path d="m400-544v96z"/><path d="m240-480-32-112z"/><path d="m400-448h-32-80z"/><path d="m348-544h52z"/><path d="m352-688h-171.4286z"/><path d="m368-576-20 32z"/><path d="m208-592 160 16z"/><path d="m288-448-48-32z"/><path d="m144-336v112 32 16z"/><path d="m16-336h128v160h-128z"/><path d="m144-176h-48-80z"/><path d="m144-336h-128z"/><path d="m-105.466-927.6649-22.534-1.1556z"/><path d="m-512-948.5128-11.4285-.5861-212.5715-10.9011z"/><path d="m-288-937.0256-11.4286-.5861-212.5714-10.9011z"/><path d="m-128-928.8205-123.8738-6.3525-36.1262-1.8526z"/><path d="m246 480 42-61.0909 112-162.9091z"/><path d="m400 256 30.6087-44.5217 81.3913-118.3874 42-61.0909z"/><path d="m554 32 22-32z"/><path d="m552-336h-104z"/><path d="m512-496-16-96z"/><path d="m-92.8-896-12.666-31.6649z"/><path d="m-256-144h-128z"/><path d="m-384-272h128v128h-128z"/><path d="m-384-272h128z"/><path d="m-256-272v32 96z"/><path d="m-320 480 224 13.1765z"/><path d="m128 506.3529-224-13.1764z"/><path d="m224 512-96-5.6471z"/><path d="m224 512 22-32z"/><path d="m-192-80v-32z"/><path d="m-192 48v-128-32 192z"/><path d="m-192-80v128h16v-128z"/><path d="m-176-80v128h32v-128z"/><path d="m-144-80h-32z"/><path d="m-176-80v128z"/><path d="m-176 48v-128z"/><path d="m-736-960-11.4286 64-28.5714 160z"/><path d="m-811.2941 256 59.2941 224z"/><path d="m448-336 38.4-96 25.6-64z"/><path d="m-896-64 8.4705 32 16.9412 64z"/><path d="m-896-64 40-224z"/><path d="m576 0-13.7143-192-2.2857-32z"/><path d="m552-336 5.7143 80 2.2857 32z"/><path d="m64 80h-32z"/><path d="m180.5714-688h-84.5714z"/><path d="m96-688-22.3529-84.9411z"/><path d="m-48-784-44.8-112z"/><path d="m73.6471-772.9411-121.6471-11.0589z"/><path d="m32-112h-224 208z"/><path d="m64 80v-192 89.7391z"/><path d="m32 80h-224v-192h224z"/><path d="m64-112v192h-32v-192z"/><path d="m-400-224h-32v32h32z"/><path d="m176-464h-32v32h32z"/><path d="m112-480-118 48-48-118 118-48z"/><path d="m112-480-32 13.0169-46.6667 18.9831-39.3333 16z"/><path d="m64-598 16 39.3333 32 78.6667z"/><path d="m-54-550 118-48z"/><path d="m-384-240-16 16v32l16 16z"/><path d="m-384-176-16-16v-32l16-16z"/><path d="m-384-176-16-16h-32l-16 16z"/><path d="m-384-240-16 16h-32l-16-16z"/><path d="m-448-240 16 16h32l16-16z"/><path d="m-448-176 16-16h32l16 16z"/><path d="m-448-176 16-16v-32l-16-16z"/><path d="m192-416-16-16h-32l-16 16z"/><path d="m192-416-16-16v-32l16-16z"/><path d="m128-480 16 16h32l16-16z"/><path d="m192-480-16 16h-32l-16-16z"/><path d="m128-416 16-16v-32l-16-16z"/><path d="m128-416 16-16h32l16 16z"/><path d="m192-480-16 16v32l16 16z"/><path d="m-856-288 40-224z"/><path d="m-102.3125-192h-25.6875-46l34.7576 14.8961.433-.1747z"/><path d="m-139.2424-177.1039-34.7576-14.8961-49-21-.0676.3323-45.9324 225.6677 130-190z"/><path d="m-128-238.2222v-49.7778l-23-9-125.9662-49.2911 6.0701 15.0487 23.8961 59.2424 23.7562 58.8955.2438.1045 49 21h46z"/><path d="m-260-303.9583-11-27.0417-213 155 224-31.7548z"/><path d="m-223.1908-212.973-.053-.1315-23.7562-58.8955-13-31.9583v96.2035z"/><path d="m-223.2438-213.1045.053.1315.1232.3053.0676-.3323z"/><path d="m-160-320-20.5714-52.5714-81.2727-31.8024-33.1559 13.3738 18.0338 44.7089 125.9662 49.2911z"/><path d="m-261.8441-404.3738 26.5118-10.6938-75.5808-15.3837 15.9131 39.4513z"/><path d="m-271-331 .1039-.2424-6.0701-15.0487-18.0338-44.7089-15.9131-39.4513-150.0869-30.5487z"/><path d="m-128-352-16.8918-6.6098-6.1082 15.6098z"/><path d="m-151-343 6.1082-15.6098-35.6796-13.9616 20.5714 52.5714z"/><path d="m-15.7546-188-5.2183-36.8092-.0271-.1908-32.6319 13.274-26.3681 10.726-59 24 128.0751 176h21.6797z"/><path d="m-10.9249-1 26.9249 37-5.2452-37z"/><path d="m-33-427 .1908-.027-.1232-.3053z"/><path d="m-21-225 31.2447-72.9043-48.0888-18.8173-67.1559-26.2784 9 23 42.3681 108.274z"/><path d="m-96-320-9 23-23 58.7778v46.2222h25.6875l21.6834-8.7462.6291-.2538 26.3681-10.726z"/><path d="m-128-238.2222 23-58.7778-23 9z"/><path d="m-117-463-155-213 5.2181 36.8092 26.5367 187.1908h96.2035z"/><path d="m-240.2452-452 5.2182 36.8092 59.027-23.8092 31.9583-13z"/><path d="m-20.9729-224.8092.3052-.1232-.3323-.0676z"/><path d="m-37.8441-429.0761-78.9135-33.82-59.2424 23.8961-59.027 23.8092-.3053.1232-26.5118 10.6938 81.2727 31.8024 35.6796 13.9616 16.8918 6.6098 23 9 67.1559 26.2784z"/><path d="m10.2447-297.9043 4.6514-10.8533-23.6423-58.6133-24.2538-59.6291-4.8441-2.0761v112.3545z"/><path d="m90.3785-257.4253-75.3785-51.5747-.1039.2424-4.6514 10.8533-31.2447 72.9043.3323.0676 225.6677 45.9324z"/><path d="m191-458.7548-223.8092 31.7278-.1908.027 24 59 24 59 176-128.0751z"/><path d="m228-464-36.8092 5.2182-.1908.027v21.6797z"/><path d="m-32.9324-427.3323 45.9324-225.6677-130 190 .2424.1039 78.9135 33.82 4.8441 2.0761z"/><path d="m-260-207.7548-224 31.7548z"/><path d="m14.8961-308.7576-23.6423-58.6133z"/><path d="m-32.9324-427.3323.1232.3053z"/><path d="m228-464-36.8092 5.2182z"/><path d="m14.8961-308.7576.1039-.2424z"/><path d="m-310.9131-430.4513 75.5808 15.3837-75.5808-15.3837-150.0869-30.5487z"/><path d="m-116.7576-462.8961-59.2424 23.8961z"/><path d="m-235.3323-415.0676.3053-.1232z"/><path d="m-272-676 5.2181 36.8092z"/><path d="m-116.7576-462.8961-.2424-.1039z"/><path d="m-117-463-155-213z"/><path d="m13-653-130 190z"/><path d="m-270.8961-331.2424-.1039.2424z"/><path d="m-271-331-213 155z"/><path d="m-20.6677-224.9324 225.6677 45.9324z"/><path d="m90.3785-257.4253 114.6215 78.4253-114.6216-78.4253z"/><path d="m-223.0676-212.6677-45.9324 225.6677z"/><path d="m-80-201-59 24z"/><path d="m-139.2424-177.1039.2424.1039z"/><path d="m-20.6677-224.9324-.3052.1232h-.0001z"/><path d="m-15.7546-188 31.7546 224-5.2452-37-26.5096-187z"/><path d="m-223.0676-212.6677-.1232-.3053z"/><path d="m-128-352-23 9z"/><path d="m-105-343-23-9z"/><path d="m-151-343-9 23z"/><path d="m-96-320-9-23z"/><path d="m-160-320 9 23z"/><path d="m-105-297 9-23z"/><path d="m-151-297 23 9z"/><path d="m-128-288 23-9z"/><path d="m-400-192h-32v-32h32z"/><path d="m-432-192-16 16v-64l16 16z"/><path d="m176-432h-32v-32h32z"/><path d="m144-432-16 16v-64l16 16z"/><path d="m-752 480h224z"/><path d="m-320 480h-192-16z"/><path d="m-416 272-64 16z"/><path d="m-128-192h25.6875l-36.4969 14.7214-.433.1747-34.7576-14.8961z"/><path d="m-223.0676-212.6677.0676-.3323 49 21 34.7576 14.8961.2424.1039-130 190z"/><path d="m-247-272-23.8961-59.2424-6.0701-15.0487 125.9662 49.2911 23 9v49.7778 46.2222h-46l-49-21-.2438-.1045z"/><path d="m-271-331 11 27.0417v96.2035l-224 31.7548z"/><path d="m-260-303.9583 13 31.9583 23.7562 58.8955.053.1315-36.8092 5.2182z"/><path d="m-223.0676-212.6677-.1232-.3053-.053-.1315.2438.1045z"/><path d="m-295-391 33.1559-13.3738 81.2727 31.8024 20.5714 52.5714 9 23-125.9662-49.2911z"/><path d="m-310.9131-430.4513 75.5808 15.3837-26.5118 10.6938-33.1559 13.3738z"/><path d="m-310.9131-430.4513 15.9131 39.4513 18.0338 44.7089 6.0701 15.0487-.1039.2424-190-130z"/><path d="m-144.8918-358.6098 16.8918 6.6098-23 9z"/><path d="m-180.5714-372.5714 35.6796 13.9616-6.1082 15.6098-9 23z"/><path d="m-80-201 26.3681-10.726 32.6319-13.274.027.1908 5.2182 36.8092 26.5096 187h-21.6797l-128.0751-176z"/><path d="m10.7548-1 5.2452 37-26.9249-37z"/><path d="m-32.9324-427.3323.1232.3053-.1908.027z"/><path d="m-37.8441-316.7216 48.0888 18.8173-31.2447 72.9043-32.6319 13.274-42.3681-108.274-9-23z"/><path d="m-128-238.2222 23-58.7778 9-23 42.3681 108.274-26.3681 10.726-.6291.2538-21.6834 8.7462h-25.6875z"/><path d="m-128-288 23-9-23 58.7778z"/><path d="m-117-463-27.0417 11h-96.2035l-26.5367-187.1908-5.2181-36.8092z"/><path d="m-144.0417-452-31.9583 13-59.027 23.8092-5.2182-36.8092z"/><path d="m-20.6677-224.9324-.3053.1232-.027-.1908z"/><path d="m-235.3323-415.0676.3053-.1232 59.027-23.8092 59.2424-23.8961 78.9135 33.82v112.3545l-67.1559-26.2784-23-9-16.8918-6.6098-35.6796-13.9616-81.2727-31.8024z"/><path d="m-37.8441-429.0761 4.8441 2.0761 24.2538 59.6291 23.6423 58.6133-4.6514 10.8533-48.0888-18.8173z"/><path d="m-20.6677-224.9324-.3323-.0676 31.2447-72.9043 4.6514-10.8533.1039-.2424 75.3784 51.5747 114.6216 78.4253z"/><path d="m191-437.0751-176 128.0751-24-59-24-59 .1908-.027 223.8092-31.7278z"/><path d="m191.1908-458.7818 36.8092-5.2182-37 26.9249v-21.6797z"/><path d="m13-653-45.9324 225.6677-.0676.3323-4.8441-2.0761-78.9135-33.82-.2424-.1039z"/><path d="m-223.1908-212.973-36.8092 5.2182z"/><path d="m13-653-45.9324 225.6677z"/><path d="m191-437.0751 37-26.9249-37 26.9249-176 128.0751z"/><path d="m191.1908-458.7818-.1908.027-223.8092 31.7278 223.8092-31.7278z"/><path d="m15-309-24-59z"/><path d="m15-309 75.3785 51.5747h-.0001z"/><path d="m-266.7819-639.1908 26.5367 187.1908 5.2182 36.8092-5.2182-36.8092z"/><path d="m-144.0417-452 27.0417-11-27.0417 11-31.9583 13z"/><path d="m-247-272-23.8961-59.2424z"/><path d="m-260-303.9583-11-27.0417 11 27.0417 13 31.9583z"/><path d="m-271-331-190-130z"/><path d="m-138.8094-177.2786 36.4969-14.7214 21.6834-8.7462-21.6834 8.7462-36.4969 14.7214-.433.1747z"/><path d="m-10.9249-1 26.9249 37-26.9249-37-128.0751-176z"/><path d="m-20.973-224.8092h.0001l5.2183 36.8092h-.0002z"/><path d="m-139-177-130 190z"/><path d="m-384 224v-64z"/><path d="m-480 288-32-64z"/><path d="m-496 176 112-16z"/><path d="m-384 224-32 48z"/><path d="m-512 224 16-48z"/><path d="m-870.5883 32 12.7059 48 41.7528 157.7327 4.8355 18.2673z"/><path d="m-816-512 40-224z"/><path d="m496-592-48-32z"/><path d="m448-624-96-64z"/><path d="m400-544v96z"/><path d="m240-480-32-112z"/><path d="m400-448h-112z"/><path d="m348-544h52z"/><path d="m352-688h-171.4286z"/><path d="m368-576-20 32z"/><path d="m208-592 160 16z"/><path d="m288-448-48-32z"/><path d="m32-176h-32v32h32z"/><path d="m-272-480h-32v32h32z"/><path d="m-105.466-927.6649-22.534-1.1556z"/><path d="m-512-948.5128-224-11.4872z"/><path d="m-288-937.0256-224-11.4872z"/><path d="m-128-928.8205-160-8.2051z"/><path d="m246 480 154-224z"/><path d="m400 256 154-224z"/><path d="m554 32 22-32z"/><path d="m552-336h-104z"/><path d="m512-496-16-96z"/><path d="m-92.8-896-12.666-31.6649z"/><path d="m-320 480 224 13.1765z"/><path d="m128 506.3529-224-13.1764z"/><path d="m224 512-96-5.6471z"/><path d="m224 512 22-32z"/><path d="m-16-128 16-16v-32l-16-16z"/><path d="m48-192-16 16h-32l-16-16z"/><path d="m48-128-16-16v-32l16-16z"/><path d="m-16-128 16-16h32l16 16z"/><path d="m48-128-16-16h-32l-16 16z"/><path d="m48-192-16 16v32l16 16z"/><path d="m-16-192 16 16h32l16-16z"/><path d="m-256-432-16-16h-32l-16 16z"/><path d="m-256-432-16-16v-32l16-16z"/><path d="m-256-496-16 16h-32l-16-16z"/><path d="m-320-432 16-16h32l16 16z"/><path d="m-320-496 16 16h32l16-16z"/><path d="m-256-496-16 16v32l16 16z"/><path d="m-320-432 16-16v-32l-16-16z"/><path d="m-736-960-40 224z"/><path d="m-811.2941 256 59.2941 224z"/><path d="m448-336h104z"/><path d="m448-336 64-160z"/><path d="m-896-64 25.4117 96z"/><path d="m-181-213-54-54-106 160z"/><path d="m-128-213v-25.2222-49.7778l-23-9-84-32.8696v62.8696l54 54z"/><path d="m-160-320-20.5714-52.5714-54.4286-21.2982v20.8696 43.1304l84 32.8696z"/><path d="m-151-343 6.1082-15.6098-35.6796-13.9616 20.5714 52.5714z"/><path d="m-128-352-16.8918-6.6098-6.1082 15.6098z"/><path d="m-235-393.8696v-33.1304-35.775l-106-70.225 106 160z"/><path d="m-235-329.8696v-43.1304l-213 53 213 53z"/><path d="m-181-427-54-35.775v35.775z"/><path d="m-21-267-39 39-15 15 160 106z"/><path d="m-75-213h-53-53l14.744 59.2543 38.256 153.7457z"/><path d="m-180.5714-372.5714 35.6796 13.9616 16.8918 6.6098 23 9 84 32.8696v-62.8696l-54-54h-106-54v33.1304z"/><path d="m-21-267v-43.1304l-84-32.8696 9 23 36 92z"/><path d="m-128-238.2222 23-58.7778-23 9z"/><path d="m-96-320-9 23-23 58.7778v25.2222h53l15-15z"/><path d="m-75-427 54 54 106-160z"/><path d="m192-320-213-53v62.8696 43.1304z"/><path d="m-75-427-53-213-53 213z"/><path d="m192-320-213-53z"/><path d="m-75-213 160 106z"/><path d="m-235-373-213 53z"/><path d="m-181-213 14.744 59.2543z"/><path d="m-235-267-106 160z"/><path d="m-151-343 23-9z"/><path d="m-128-352 23 9z"/><path d="m-160-320 9-23z"/><path d="m-105-343 9 23z"/><path d="m-151-297-9-23z"/><path d="m-96-320-9 23z"/><path d="m-128-288-23-9z"/><path d="m-105-297-23 9z"/><path d="m32-144h-32v-32h32z"/><path d="m0-144-16 16v-64l16 16z"/><path d="m-272-448h-32v-32h32z"/><path d="m-304-448-16 16v-64l16 16z"/><path d="m-896-64 40-224z"/><path d="m552-336 5.7143 80z"/><path d="m560-224 13.7143 192 2.2857 32z"/><path d="m180.5714-688h133.6104 37.8182z"/><path d="m85-533-106 160-54-54z"/><path d="m-105-297 9-23 36 92-15 15h-53v-25.2222z"/><path d="m-128-640 53 213h-106z"/><path d="m-128-288 23-9-23 58.7778z"/><path d="m-21-310.1304v43.1304l-39 39-36-92-9-23z"/><path d="m-181-427h106l54 54v62.8696l-84-32.8696-23-9-16.8918-6.6098-35.6796-13.9616-54.4286-21.2982v-33.1304z"/><path d="m-166.256-153.7457-14.744-59.2543h53 53l-53 213z"/><path d="m-75-213 15-15 39-39 106 160z"/><path d="m-21-267v-43.1304-62.8696l213 53z"/><path d="m-235-462.775 54 35.775h-54z"/><path d="m-235-373v43.1304 62.8696l-213-53z"/><path d="m-341-533 106 70.225v35.775 33.1304 20.8696z"/><path d="m-144.8918-358.6098 16.8918 6.6098-23 9z"/><path d="m-180.5714-372.5714 35.6796 13.9616-6.1082 15.6098-9 23z"/><path d="m-235-373v-20.8696l54.4286 21.2982 20.5714 52.5714 9 23-84-32.8696z"/><path d="m-128-238.2222v25.2222h-53l-54-54v-62.8696l84 32.8696 23 9z"/><path d="m-235-267 54 54-160 106z"/><path d="m0-779.6364-48-4.3636z"/><path d="m180.5714-688h-84.5714z"/><path d="m96-688-22.3529-84.9411z"/><path d="m-48-784-44.8-112z"/><path d="m-48-784 48 4.3636 73.6471 6.6953z"/><path d="m85-533-106 160z"/><path d="m-75-213-53 213z"/><path d="m192-320-213 53z"/><path d="m-21-267 106 160z"/><path d="m-166.256-153.7457 38.256 153.7457z"/><path d="m-235-267-213-53z"/><path d="m-75-427 160-106z"/><path d="m-128-640 53 213z"/><path d="m-235-373-106-160z"/><path d="m-181-427 53-213z"/><path d="m-235-462.775-106-70.225 106 70.225 54 35.775z"/><path d="m-181-213-160 106z"/><path d="m-856-288 40-224z"/><path d="m-192-128h-32v32h32z"/><path d="m-16-560h-32v32h32z"/><path d="m-320 480h-2.2857-106.5143-83.2z"/><path d="m-752 480h16z"/><path d="m-528 480h-208-16z"/><path d="m-480 288 64-16z"/><path d="m-512 224 16-48 112-16v64l-32 48-64 16z"/><path d="m-512 224 32 64z"/><path d="m-384 160-112 16z"/><path d="m-416 272 32-48z"/><path d="m-496 176-16 48z"/><path d="m-870.5883 32 59.2942 224z"/><path d="m576 0-2.2857-32z"/><path d="m-176-80-16-16h-32l-16 16z"/><path d="m-176-80-16-16v-32l16-16z"/><path d="m-240-144 16 16h32l16-16z"/><path d="m-176-144-16 16h-32l-16-16z"/><path d="m-240-80 16-16v-32l-16-16z"/><path d="m-240-80 16-16h32l16 16z"/><path d="m-176-144-16 16v32l16 16z"/><path d="m0-512-16-16h-32l-16 16z"/><path d="m0-512-16-16v-32l16-16z"/><path d="m-64-576 16 16h32l16-16z"/><path d="m0-576-16 16h-32l-16-16z"/><path d="m-64-512 16-16v-32l-16-16z"/><path d="m-64-512 16-16h32l16 16z"/><path d="m0-576-16 16v32l16 16z"/><path d="m291.6859-907.2982-224-11.4871-.0001-.0001 28.3142 1.4521z"/><path d="m-816-512 40-224z"/><path d="m512-896 2.2857 32 2.3809 33.3334.0001-.0001z"/><path d="m-736 480h-16z"/><path d="m457.3998-898.8-9.3998 18.8v-19.2821z"/><path d="m448-880 9.3998-18.8 54.6002 2.8 4.6667 65.3333 11.1334 155.8667h-79.8001z"/><path d="m527.8001-674.8 4.8666 68.1333-36.6667 14.6667-48-32v-32-18.8z"/><path d="m448-624 48 32z"/><path d="m496-592 16 96z"/><path d="m352-688 48 32 48 32z"/><path d="m352-688 96-192v205.2 18.8h-48z"/><path d="m448-656v32l-48-32z"/><path d="m291.6859-728.2094-201.5041-134.3361-22.4959-56.2398 224 11.4871z"/><path d="m448-880-96 192-37.8183-25.2122-22.4958-14.9972v-179.0888l156.3141 8.0161z"/><path d="m160-688h-64l-22.3529-84.9411 54.3529 4.9411z"/><path d="m314.1818-688h-133.6104-20.5714l-32-80-37.8182-94.5455 201.5041 134.3361 22.4958 14.9972z"/><path d="m352-688h-37.8182l-.0001-25.2122z"/><path d="m-119-439-129-178 30.9728 217.809 49.0272-19.809z"/><path d="m-48.9317-409.331 38.9317-188.669-109 159 .2426.104 69.7574 29.896z"/><path d="m-180.5714-372.5714 35.6796 13.9616 16.8918 6.6098 23 9 93.9574 36.766 1.9386-4.5234-19.5252-48.3248-20.3708-49.9178-69.7574-29.896-49.2426 19.896-49.0272 19.809-.3038.1227-15.2295 6.1533z"/><path d="m-38.9728-240.809.3037-.1227-.3309-.0683z"/><path d="m-128-238.2222 23-58.7778-23 9z"/><path d="m-96-320-9 23-23 58.7778v33.3838l39.0822-15.7908.9167-.3708 26.5068-10.8187z"/><path d="m-39-241 27.9574-65.234-93.9574-36.766 9 23 34.5057 88.1813z"/><path d="m-49-409 .191-.0272-.1227-.3038z"/><path d="m-38.9728-240.809-.0272-.191-22.4943 9.1813-26.5068 10.8187-48.9989 20 35.0886 48.4168 93.9114 129.5832z"/><path d="m-9-311-.104.2426-1.9386 4.5234-27.9574 65.234.3309.0683 188.6691 38.9317z"/><path d="m-48.809-409.0272-.191.0272 20 49 20 49 178-129z"/><path d="m-207.2443-231.1047.176.4357.0683-.331z"/><path d="m-160-320 9-23 6.1082-15.6098-35.6796-13.9616z"/><path d="m-128-352-16.8918-6.6098-6.1082 15.6098z"/><path d="m-249.4309-335.5164-17.5691-43.4836-13.3637-33.075-125.6363-25.925 159 109 .104-.2426z"/><path d="m-207.2443-231.1047-19.7572-48.8989-19.9985-48.9964-178 129 217.8089-30.9728z"/><path d="m-232.5605-392.915 15.2295-6.1533-63.0327-13.0067 13.3637 33.075z"/><path d="m-249.4309-335.5164 98.4309 38.5164-9-23-20.5714-52.5714-51.9891-20.3436-34.4395 13.915z"/><path d="m-128-238.2222v-49.7778l-23-9-98.4309-38.5164 2.5349 6.2738 19.8945 49.239 19.7572 48.8989.2443.1047 69.7574 29.896 9.2426-3.7344z"/><path d="m-137-201-.2426-.104-69.7574-29.896-.0683.331-38.9317 188.669z"/><path d="m128-768-37.8182-94.5455z"/><path d="m-48-784 48 4.3636z"/><path d="m-48.809-409.0272 217.809-30.9728z"/><path d="m-48.9317-409.331.1227.3038z"/><path d="m-9.104-310.7574.104-.2426z"/><path d="m-9-311 178-129z"/><path d="m-38.6691-240.9317-.3037.1227z"/><path d="m-9.104-310.7574-19.5252-48.3248z"/><path d="m-207.1911-230.9728-217.8089 30.9728z"/><path d="m-248-617 30.9728 217.809z"/><path d="m-10-598-109 159z"/><path d="m-119-439-129-178z"/><path d="m-118.7574-438.896-.2426-.104z"/><path d="m-118.7574-438.896-49.2426 19.896z"/><path d="m-246.896-329.2426-.104.2426z"/><path d="m-217.331-399.0683.3038-.1227z"/><path d="m-247-329-178 129z"/><path d="m-406-438 159 109z"/><path d="m-207.0683-230.669-38.9317 188.669z"/><path d="m-137-201 35.0886 48.4168z"/><path d="m-88.0011-221h.0011l-49 20z"/><path d="m-137.2426-201.104.2426.104z"/><path d="m-207.0683-230.669-.1228-.3038z"/><path d="m400-544v96z"/><path d="m240-480-32-112z"/><path d="m400-448h-112z"/><path d="m348-544h52z"/><path d="m368-576-20 32z"/><path d="m208-592 160 16z"/><path d="m288-448-48-32z"/><path d="m96-688h64 20.5714z"/><path d="m73.6471-772.9411 22.3529 84.9411z"/><path d="m0-779.6364 73.6471 6.6953z"/><path d="m-48-784-44.8-112z"/><path d="m-128-352 23 9z"/><path d="m-151-343 23-9z"/><path d="m-105-343 9 23z"/><path d="m-160-320 9-23z"/><path d="m-96-320-9 23z"/><path d="m-151-297-9-23z"/><path d="m-105-297-23 9z"/><path d="m-128-288-23-9z"/><path d="m-192-96h-32v-32h32z"/><path d="m-224-96-16 16v-64l16 16z"/><path d="m-16-528h-32v-32h32z"/><path d="m-48-528-16 16v-64l16 16z"/><path d="m-119-439-49 20-49.0272 19.809-30.9728-217.809z"/><path d="m-10-598-38.9317 188.669-.0683.331-69.7574-29.896-.2426-.104z"/><path d="m-217.331-399.0683.3038-.1227 49.0272-19.809 49.2426-19.896 69.7574 29.896 20.3708 49.9178 19.5252 48.3248-1.9386 4.5234-93.9574-36.766-23-9-16.8918-6.6098-35.6796-13.9616-51.9891-20.3436z"/><path d="m-38.6691-240.9317-.3037.1227-.0272-.191z"/><path d="m-128-288 23-9-23 58.7778z"/><path d="m-128-238.2222 23-58.7778 9-23 34.5057 88.1813-26.5057 10.8187-.9179.3709-39.0821 15.7907z"/><path d="m-11.0426-306.234-27.9574 65.234-22.4943 9.1813-34.5057-88.1813-9-23z"/><path d="m-48.9317-409.331.1227.3038-.191.0272z"/><path d="m-101.9114-152.5832-35.0886-48.4168 49-20 26.5057-10.8187 22.4943-9.1813.0272.191 30.9728 217.809z"/><path d="m-38.6691-240.9317-.3309-.0683 27.9574-65.234 1.9386-4.5234.104-.2426 159 109z"/><path d="m-9-311-20-49-20-49 .191-.0272 217.809-30.9728z"/><path d="m-406-438 125.6363 25.925 13.3637 33.075 17.5691 43.4836 2.5349 6.2738-.104.2426z"/><path d="m-207.0683-230.669-.176-.4357.2443.1047z"/><path d="m-144.8918-358.6098-6.1082 15.6098-9 23-20.5714-52.5714z"/><path d="m-144.8918-358.6098 16.8918 6.6098-23 9z"/><path d="m-247-329 19.9985 48.9964 19.7572 48.8989.0532.1319-217.8089 30.9728z"/><path d="m-280.3637-412.075 63.0327 13.0067-15.2295 6.1533-34.4395 13.915z"/><path d="m-180.5714-372.5714 20.5714 52.5714 9 23-98.4309-38.5164-17.5691-43.4836 34.4395-13.915z"/><path d="m-227.0015-280.0036-19.8945-49.239-2.5349-6.2738 98.4309 38.5164 23 9v49.7778 33.3838l-9.2426 3.7344-69.7574-29.896-.2443-.1047z"/><path d="m-207.0683-230.669.0683-.331 69.7574 29.896.2426.104-109 159z"/><path d="m-10-598-38.9317 188.669z"/><path d="m-38.9728-240.809 30.9728 217.809z"/><path d="m-9-311 159 109z"/><path d="m150-202-188.6691-38.9317z"/><path d="m-9-311-20-49z"/><path d="m-101.9114-152.5832 93.9114 129.5832z"/><path d="m-119-439-49 20z"/><path d="m-227.0015-280.0036-19.8945-49.239z"/><path d="m-247-329 19.9985 48.9964z"/><path d="m-280.3637-412.075-125.6363-25.925 125.6363 25.925 63.0327 13.0067z"/><path d="m-128-204.8384 39.0821-15.7907.0001-.0001-39.0822 15.7908-9.2426 3.7344z"/><path d="m-137-201-109 159z"/><path d="m320-905.8462 192 9.8462-54.6002-2.8-9.3998-.4821-156.3141-8.0161z"/><path d="m-128-928.8205 22.5343 1.1556h-.0003z"/><path d="m-512-948.5128-224-11.4872z"/><path d="m-288-937.0256-224-11.4872z"/><path d="m-128-928.8205-160-8.2051z"/><path d="m516.6666-830.6666 13.6191 190.6666 2.381 33.3333-4.8666-68.1333-11.1334-155.8667z"/><path d="m557.7143-256 10.2857 144 5.7143 80-13.7143-192z"/><path d="m573.7143-32 2.2857 32z"/><path d="m246 480 154-224z"/><path d="m400 256 154-224z"/><path d="m554 32 22-32z"/><path d="m448-336v80 96z"/><path d="m496-592 36.6667-14.6667z"/><path d="m539.5862-509.7931h-.0001l-27.5861 13.7931z"/><path d="m512-496-16-96 36.6667-14.6667 6.9195 96.8736z"/><path d="m512-496-32 80-32 80z"/><path d="m552-336h-104v176 48h120z"/><path d="m448-112v80h125.7143l-5.7143-80z"/><path d="m40-896-39.3335-26.2223 67.0193 3.4369 22.496 56.2399z"/><path d="m90.1818-862.5455-22.496-56.2399.0001.0001z"/><path d="m-512 448h-96-128 128z"/><path d="m-288 448h-96-128 128z"/><path d="m-64 448h-64-32-128 128 32z"/><path d="m160 448h-32-32-160 160 32z"/><path d="m448-32v-80-48h-32v128z"/><path d="m0-896h-64z"/><path d="m0-896v-26.2564l.6665.0341 39.3335 26.2223z"/><path d="m-64-896h-28.8l-12.6657-31.6649 105.4657 5.4085v26.2564z"/><path d="m-105.4657-927.6649 12.6657 31.6649-12.666-31.6649z"/><path d="m-736-768v-128 128 96z"/><path d="m128-768-128-11.6364v-116.3636h40l50.1818 33.4545z"/><path d="m128-768-54.3529-4.9411-73.6471-6.6953z"/><path d="m-608-896h-128v128h128z"/><path d="m-448-896h-64-96v128h160z"/><path d="m-48-784 6.4 16h41.6v-11.6364z"/><path d="m-224-896h-64-160v128h32 192z"/><path d="m-192-768h64 86.4l-6.4-16-44.8-112h-131.2v128z"/><path d="m-92.8-896 44.8 112z"/><path d="m0-768v128z"/><path d="m-41.6-768h-86.4v128h128v-128z"/><path d="m-192-768h-32-192v128h128 96z"/><path d="m-128-640v-128h-64v128z"/><path d="m-416-768h-32v128h32z"/><path d="m-608-768v128h128 32v-128z"/><path d="m-736-768v96 32h128v-128z"/><path d="m288-448-48-32z"/><path d="m288-448h112z"/><path d="m208-592 160 16z"/><path d="m240-480-32-112z"/><path d="m368-576-20 32z"/><path d="m-448-640v32z"/><path d="m-480-640h-128v32h128z"/><path d="m-448-640h-32v32h32z"/><path d="m-736-640v32h128v-32z"/><path d="m-608 224v64 32-32z"/><path d="m416-288h-32v128h32z"/><path d="m416-288h-32z"/><path d="m416-32h-32z"/><path d="m416-160h-32v128h32z"/><path d="m-384 352h-224v96h96 128z"/><path d="m-160 352h-224v96h96 128z"/><path d="m-128 448v-96h-32v96z"/><path d="m-384 192h-224v32h224z"/><path d="m-288 224v-32h-96v32z"/><path d="m-384 320h-224v32h224z"/><path d="m-160 320h-128-96v32h224z"/><path d="m-128 352v-32h-32v32z"/><path d="m-160 320h32v-96-32h-32-128v32 96z"/><path d="m-256 32h-96-128v32h96 128z"/><path d="m-160 64h32v-32h-128v32z"/><path d="m-384 64h-96-128v128h224z"/><path d="m-160 64h-96-128v128h96 128z"/><path d="m-128 192v-128h-32v128z"/><path d="m-128 0h-192l-32 32h96 128z"/><path d="m96 320h-192-32v32 96h64 160z"/><path d="m128 448v-32-96h-32v128z"/><path d="m-96 96v-32l-32-64v32 32 128 32h32z"/><path d="m-128 224v96h32v-96z"/><path d="m256-32h-128v128 96h128z"/><path d="m128 192v128 96h128v-224z"/><path d="m128 416v32h32 96v-32z"/><path d="m352-160h-128-96v32 96h128 96z"/><path d="m384-160h-32v128h32z"/><path d="m-608-608v224h128v-224z"/><path d="m-608-384v224h128v-32-64-64-32-32z"/><path d="m-608-160v224h128v-32-96-64-32z"/><path d="m-480-608v224h32v-32-192z"/><path d="m-480-384v32h32v-32z"/><path d="m384-288h-160v128h128 32z"/><path d="m128-160v32z"/><path d="m384-32h-32-96z"/><path d="m224-288v128z"/><path d="m256 192v224-128z"/><path d="m-480-192v-32-32z"/><path d="m-448-608v192-128z"/><path d="m-352 32 32-32z"/><path d="m-480 32h128z"/><path d="m-288 320h-96z"/><path d="m-96 320h192 32-32z"/><path d="m-96 96v128 96z"/><path d="m-384 224h-224z"/><path d="m256 416v32z"/><path d="m-151-343 23-9z"/><path d="m-128-352 23 9z"/><path d="m-160-320 9-23z"/><path d="m-105-343 9 23z"/><path d="m-151-297-9-23z"/><path d="m-96-320-9 23z"/><path d="m-128-288-23-9z"/><path d="m-105-297-23 9z"/><path d="m-736-608v160 64h128v-224z"/><path d="m-736-384v160 64h128v-224z"/><path d="m-736-160v160 64h128v-224z"/><path d="m-736 64v160 64h128v-64-32-128z"/><path d="m-736 288v64h128v-32-32z"/><path d="m-608 352h-128v96h128z"/><path d="m-320 480 224 13.1765z"/><path d="m128 506.3529-224-13.1764z"/><path d="m224 512-96-5.6471z"/><path d="m224 512 22-32z"/><path d="m-736-960-40 224z"/><path d="m539.5861-509.7931h.0001l-6.9195-96.8736-2.381-33.3333z"/><path d="m-811.2941 256 59.2941 224z"/><path d="m512-496 27.5861-13.7931 4.4139 61.7931-64 32z"/><path d="m480-416-32 80z"/><path d="m448-32h125.7143z"/><path d="m256 448h-96z"/><path d="m416-288v128z"/><path d="m448-32h-32z"/><path d="m-512-896h-96-128 128z"/><path d="m-288-896h-96-128 64z"/><path d="m-64-896h-96-128 64 131.2z"/><path d="m-736 224v64 64 96-96-64z"/><path d="m-736 0v64 160-160z"/><path d="m-736-224v64 160-160z"/><path d="m-736-448v64 160-160z"/><path d="m-736-672v32 32 160-160-32z"/><path d="m-416-768h-192z"/><path d="m0-896v116.3636 11.6364z"/><path d="m-736-896h128v128h-128z"/><path d="m-384-768h-32-192v-128h96 128z"/><path d="m-160-768h-32-32-32-32-32-32-32v-128h96 128z"/><path d="m-64-896h64v128h-128-32v-128z"/><path d="m0-640h-128z"/><path d="m0-640h-128v-128h128z"/><path d="m-608-768v128z"/><path d="m-608-768v128h-128v-32-96z"/><path d="m-608-640v32h-128v-32z"/><path d="m-608-128v32 32z"/><path d="m384-192v-64 96z"/><path d="m416-288h-32z"/><path d="m384-32h32z"/><path d="m128 96v192 32-128z"/><path d="m128-128v192 32-128z"/><path d="m384-288h-160z"/><path d="m336-192v-48-16h48v64z"/><path d="m304-192v-48h32v48z"/><path d="m256-192v-64h48v16 48z"/><path d="m304-192h32 48v32 128h-128v-128-32z"/><path d="m128-128v-32h96 32v128 96h-128z"/><path d="m256 64v128 96h-128v-192-32z"/><path d="m256 288v128h-128v-96-32z"/><path d="m384-256h-48z"/><path d="m224-288v128z"/><path d="m128-160h96z"/><path d="m256 64v-96 224z"/><path d="m-480-64v96z"/><path d="m-480-352v32z"/><path d="m-480-608v64 128z"/><path d="m-480-352h32z"/><path d="m-160 64h-224l32-32 32-32h160z"/><path d="m-128 0 32 64h-32-32v-64z"/><path d="m-480 32h128z"/><path d="m-160 0h-160 192z"/><path d="m-128 0 32 64z"/><path d="m-480-352h-128z"/><path d="m-480-608v192 32h-128v-224z"/><path d="m-480-384v32h-128v-32z"/><path d="m-384 320h-224z"/><path d="m-128 64v32z"/><path d="m-96 64v32z"/><path d="m-96 96v224-96-32z"/><path d="m-384 192h-224v-128h224z"/><path d="m-160 192h-96-128v-128h224z"/><path d="m-128 64v32 96h-32v-128z"/><path d="m-128 320h-32-96v-128h96 32z"/><path d="m-256 192h-128z"/><path d="m-384 224h-224z"/><path d="m-288 320v-96z"/><path d="m-288 224h-96z"/><path d="m-384 416h-224v-64h224z"/><path d="m-160 416h-224v-64h224z"/><path d="m-128 352v64h-32v-64z"/><path d="m-384 352h-224v-32h224z"/><path d="m-160 352h-224v-32h96 32 96z"/><path d="m-128 320v32h-32v-32z"/><path d="m96 416h-224v-64-32h32 192z"/><path d="m128 320v96h-32v-96z"/><path d="m-384 448h-128-96v-32h224z"/><path d="m-160 448h-128-96v-32h224z"/><path d="m-128 416v32h-32v-32z"/><path d="m96 448h-160-64v-32h224z"/><path d="m128 416v32h-32v-32z"/><path d="m256 416v32h-96-32v-32z"/><path d="m-608-608v224h-128v-64-160z"/><path d="m-608-384v32 32 32 32 32 32 32h-128v-64-160z"/><path d="m-608-160v32 64 128h-128v-64-160z"/><path d="m-608 64v128 32 64h-128v-64-160z"/><path d="m-608 288v32 32h-128v-64z"/><path d="m-608 416v32h-128v-96h128z"/><path d="m-896-64 25.4117 96z"/><path d="m448-336v80z"/><path d="m416-32h32z"/><path d="m416-160h32v128h-32z"/><path d="m448-160h-32z"/><path d="m-160-768h-32z"/><path d="m-160-768h32z"/><path d="m-256-640h32 32 32 32-64-96z"/><path d="m-128-768v128z"/><path d="m-128-640h-32v-128h32z"/><path d="m-608-320v-32z"/><path d="m-608-320v32z"/><path d="m384-32v-128z"/><path d="m384-32v-128h32v128z"/><path d="m-480-352v-32-32z"/><path d="m-480-320h-128z"/><path d="m-480-352v32h-128v-32z"/><path d="m96-336h-32v32h32z"/><path d="m-288-160h-32v32h32z"/><path d="m-112-144h-32v32h32z"/><path d="m-112-528h-32v32h32z"/><path d="m-896-64 40-224z"/><path d="m544-448-4.4139-61.7931-9.3004-130.2069z"/><path d="m573.7143-32-5.7143-80-5.7143-80z"/><path d="m448-256v144 80-128z"/><path d="m546.2857-416 5.7143 80h-104l32-80 64-32z"/><path d="m480-416 64-32z"/><path d="m448-256v-80h104l10.2857 144 5.7143 80h-120z"/><path d="m568-112 5.7143 80h-125.7143v-80z"/><path d="m-192-768h-32z"/><path d="m-192-640h32z"/><path d="m-160-768v128z"/><path d="m-160-640h-32v-128h32z"/><path d="m-608-288v32z"/><path d="m-480-288v-32 64z"/><path d="m-448-608v64z"/><path d="m-480-416v-128h32v128z"/><path d="m-480-288h-128z"/><path d="m-480-320v32h-128v-32z"/><path d="m514.2857-864-2.2857-32z"/><path d="m-224-768h-32z"/><path d="m-224-640h32z"/><path d="m-192-768v128z"/><path d="m-192-640h-32v-128h32z"/><path d="m-608-256v32z"/><path d="m-480-256v-32z"/><path d="m-480-256h-128z"/><path d="m-480-288v32h-128v-32z"/><path d="m48-288 16-16h32l16 16z"/><path d="m112-288-16-16v-32l16-16z"/><path d="m112-288-16-16h-32l-16 16z"/><path d="m112-352-16 16h-32l-16-16z"/><path d="m48-352 16 16h32l16-16z"/><path d="m112-352-16 16v32l16 16z"/><path d="m48-288 16-16v-32l-16-16z"/><path d="m-336-112 16-16h32l16 16z"/><path d="m-272-112-16-16v-32l16-16z"/><path d="m-272-112-16-16h-32l-16 16z"/><path d="m-272-176-16 16h-32l-16-16z"/><path d="m-336-176 16 16h32l16-16z"/><path d="m-272-176-16 16v32l16 16z"/><path d="m-336-112 16-16v-32l-16-16z"/><path d="m-96-96-16-16v-32l16-16z"/><path d="m-160-96 16-16v-32l-16-16z"/><path d="m-96-160-16 16h-32l-16-16z"/><path d="m-160-96 16-16h32l16 16z"/><path d="m-96-96-16-16h-32l-16 16z"/><path d="m-96-160-16 16v32l16 16z"/><path d="m-160-160 16 16h32l16-16z"/><path d="m-96-544-16 16h-32l-16-16z"/><path d="m-160-480 16-16v-32l-16-16z"/><path d="m-160-480 16-16h32l16 16z"/><path d="m-160-544 16 16h32l16-16z"/><path d="m-96-480-16-16h-32l-16 16z"/><path d="m-96-480-16-16v-32l16-16z"/><path d="m-96-544-16 16v32l16 16z"/><path d="m-256-768h-32z"/><path d="m-256-640h32z"/><path d="m-224-640h-32v-128h32z"/><path d="m-224-768v128z"/><path d="m-608-224v32z"/><path d="m416-288h-32z"/><path d="m224-288h160z"/><path d="m-480-224h-128z"/><path d="m-480-256v32h-128v-32z"/><path d="m530.2857-640-13.6191-190.6666-2.3809-33.3334z"/><path d="m-288-768h-32z"/><path d="m-288-640h32z"/><path d="m-256-768v128z"/><path d="m-256-640h-32v-128h32z"/><path d="m-608-192v32z"/><path d="m-480-192v-32z"/><path d="m-85-405-43-171-43 171z"/><path d="m43-491-128 86 42 42z"/><path d="m-96-320-9 23-23 58.7778v3.2222h43l16-16z"/><path d="m-128-238.2222 23-58.7778-23 9z"/><path d="m-43-277v-41.7391l-62-24.2609 9 23 27 69z"/><path d="m-180.5714-372.5714 35.6796 13.9616 16.8918 6.6098 23 9 62 24.2609v-44.2609l-42-42h-86-42v19.7391z"/><path d="m-85-235h-43-43l11.4383 45.4872 31.5617 125.5128z"/><path d="m-43-277-26 26-16 16 128 86z"/><path d="m-43-363v44.2609 41.7391l171-43z"/><path d="m-213-433.2188v28.2188h42z"/><path d="m-213-385.2609v-19.7391-28.2188l-86-57.7812 86 128z"/><path d="m-128-235v-3.2222-49.7778l-23-9-62-24.2609v44.2609l42 42z"/><path d="m-213-277v-44.2609-41.7391l-171 43z"/><path d="m-128-352-16.8918-6.6098-6.1082 15.6098z"/><path d="m-160-320 9-23 6.1082-15.6098-35.6796-13.9616z"/><path d="m-160-320-20.5714-52.5714-32.4286-12.6895v22.2609 41.7391l62 24.2609z"/><path d="m-171-235-42-42-86 128z"/><path d="m-43-277 171-43z"/><path d="m-85-235 128 86z"/><path d="m43-491-128 86z"/><path d="m-213-363-171 43z"/><path d="m-299-491 86 128z"/><path d="m-128-576-43 171z"/><path d="m-171-235 11.4383 45.4872z"/><path d="m-213-277-86 128z"/><path d="m-151-343 23-9z"/><path d="m-128-352 23 9z"/><path d="m-160-320 9-23z"/><path d="m-105-343 9 23z"/><path d="m-151-297-9-23z"/><path d="m-96-320-9 23z"/><path d="m-128-288-23-9z"/><path d="m-105-297-23 9z"/><path d="m-480-224v32h-128v-32z"/><path d="m96-304h-32v-32h32z"/><path d="m64-304-16 16v-64l16 16z"/><path d="m-288-128h-32v-32h32z"/><path d="m-320-128-16 16v-64l16 16z"/><path d="m-112-112h-32v-32h32z"/><path d="m-144-112-16 16v-64l16 16z"/><path d="m-112-496h-32v-32h32z"/><path d="m-144-496-16 16v-64l16 16z"/><path d="m512-896-192-9.8462z"/><path d="m-856-288 40-224z"/><path d="m512-896 2.2857 32z"/><path d="m-320-768h-32z"/><path d="m-384-640h32 32 32-128z"/><path d="m-288-768v128z"/><path d="m-288-640h-32v-128h32z"/><path d="m-608-160v32z"/><path d="m-480-160v-32z"/><path d="m-480-544v-64 192z"/><path d="m-480-544v-64z"/><path d="m-448-416v32 32z"/><path d="m43-491-86 128-42-42z"/><path d="m-105-297 9-23 27 69-16 16h-43v-3.2222z"/><path d="m-128-576 43 171h-86z"/><path d="m-128-288 23-9-23 58.7778z"/><path d="m-43-318.7391v41.7391l-26 26-27-69-9-23z"/><path d="m-171-405h86l42 42v44.2609l-62-24.2609-23-9-16.8918-6.6098-35.6796-13.9616-32.4286-12.6895v-19.7391z"/><path d="m-159.5617-189.5128-11.4383-45.4872h43 43l-43 171z"/><path d="m-85-235 16-16 26-26 86 128z"/><path d="m-43-277v-41.7391-44.2609l171 43z"/><path d="m-213-433.2188 42 28.2188h-42z"/><path d="m-299-491 86 57.7812v28.2188 19.7391 22.2609z"/><path d="m-128-238.2222v3.2222h-43l-42-42v-44.2609l62 24.2609 23 9z"/><path d="m-213-363v41.7391 44.2609l-171-43z"/><path d="m-144.8918-358.6098 16.8918 6.6098-23 9z"/><path d="m-144.8918-358.6098-6.1082 15.6098-9 23-20.5714-52.5714z"/><path d="m-213-321.2609v-41.7391-22.2609l32.4286 12.6895 20.5714 52.5714 9 23z"/><path d="m-213-277 42 42-128 86z"/><path d="m43-491-86 128z"/><path d="m-85-235-43 171z"/><path d="m-43-363 171 43z"/><path d="m-43-277 86 128z"/><path d="m-159.5617-189.5128 31.5617 125.5128z"/><path d="m-213-277-171-43z"/><path d="m-128-576 43 171z"/><path d="m-213-433.2188-86-57.7812 86 57.7812 42 28.2188z"/><path d="m-171-235-128 86z"/><path d="m-448-544h-32v128h32z"/><path d="m-480-416h32z"/><path d="m-448-544h-32z"/><path d="m-608-192h128z"/><path d="m-480-160h-128v-32h128z"/><path d="m-352-768h-32z"/><path d="m-352-640h32z"/><path d="m-320-768v128z"/><path d="m-320-640h-32v-128h32z"/><path d="m-480-128v-32z"/><path d="m-608-160h128z"/><path d="m-480-128h-128v-32h128z"/><path d="m546.2857-416-2.2857-32-13.7143-192z"/><path d="m-870.5883 32 59.2942 224z"/><path d="m576 0-2.2857-32-11.4286-160z"/><path d="m-512 480h-140.8-83.2 208z"/><path d="m-322.2857 480h2.2857z"/><path d="m-736 480h83.2z"/><path d="m416 0v64 160z"/><path d="m-384-768h-32z"/><path d="m-416-768h-64-128z"/><path d="m-448-640h32z"/><path d="m-416-640h32z"/><path d="m-384-640h32z"/><path d="m-352-768v128z"/><path d="m-352-640h-32v-128h32z"/><path d="m-608-768v128z"/><path d="m-608-608h32 64 32z"/><path d="m-608-640v32z"/><path d="m-608 64v-128z"/><path d="m-608 224v-32z"/><path d="m416-160h-32z"/><path d="m416 64v-64-160h-32v32 192z"/><path d="m384 96v96 32h32v-160h-32z"/><path d="m384-160h-128z"/><path d="m224-160h32z"/><path d="m384 96v-32-192h-64v192 32z"/><path d="m320 192h32 32v-96h-64z"/><path d="m320-128h64v-32h-128v32z"/><path d="m256-128v80 112h64v-192z"/><path d="m256 64v-112l-32 28-59.4286 52-36.5714 32z"/><path d="m256-48v-80-32h-32v108 32z"/><path d="m224-52-96 84h36.5714l59.4286-52z"/><path d="m128 64 36.5714-32h-36.5714z"/><path d="m320 192v-96-32h-64-128v128z"/><path d="m224-52v-108z"/><path d="m352 192h-32-192v32h224z"/><path d="m384 224v-32h-32v32z"/><path d="m352 224h-224z"/><path d="m384 224h-32z"/><path d="m-96 64h-32z"/><path d="m-384 64h-224z"/><path d="m-480-64v96z"/><path d="m-480-96v-32 64z"/><path d="m-448-576v-32 64 128z"/><path d="m-448-576v160 64-32z"/><path d="m-448-608v32z"/><path d="m-256-96v32h32z"/><path d="m-256-96h-224v32h224z"/><path d="m96 32h-224v32h32 192z"/><path d="m128 64v-32h-32v32z"/><path d="m-256-64-96 96-32 32h128z"/><path d="m-256-64v128h128z"/><path d="m-256-64h-224v96h128z"/><path d="m-256-64 128 128v-32l-96-96z"/><path d="m128 32h-32z"/><path d="m-224-64 96 96z"/><path d="m-352 32-32 32z"/><path d="m-480-608h-32v64 128h32z"/><path d="m-480-352v-64h-32-64-32v64z"/><path d="m-576-608v64h64v-64z"/><path d="m-576-544v-64h-32v83.2 108.8h32z"/><path d="m-512-416v-128z"/><path d="m-576-544v128z"/><path d="m-480-96h-128v-32h128z"/><path d="m-608-128h128z"/><path d="m-256 320h-32z"/><path d="m-96 320h-32z"/><path d="m-128 96v96 32 96-128z"/><path d="m-96 64v32z"/><path d="m128 224h-224 192z"/><path d="m128 192h-224v32h224z"/><path d="m128 64h-32-192v32 96h224z"/><path d="m-256 288v-96 128z"/><path d="m-224 320h96v-96z"/><path d="m-256 64v128 96h32l96-96v-96-32z"/><path d="m-256 288v32l32-32z"/><path d="m-384 192h-224z"/><path d="m-384 64h-224v96 32h224z"/><path d="m-256 192v-128h-128v128z"/><path d="m-288 320v-96z"/><path d="m-384 224h-224v96h224z"/><path d="m-288 320v-96h-96v96z"/><path d="m-288 224h-96z"/><path d="m-384 416h25.1429l-9.1429-16-208 16z"/><path d="m-384 320h-224v32h224z"/><path d="m-256 352 32-32h-32-32-96v32z"/><path d="m-384 352h-224z"/><path d="m-368 400-208 16z"/><path d="m-384 416h-192l-32 26.6666v5.3334h179.2 44.8z"/><path d="m-340.5714 448-18.2857-32h-25.1429v32z"/><path d="m-358.8571 416 18.2857 32z"/><path d="m-608 442.6666 32-26.6666z"/><path d="m-608 442.6666-6.4 5.3334h6.4z"/><path d="m-608-64v-32l-128 128v32z"/><path d="m-608 64v-128l-128 128v96h128z"/><path d="m-736 160v32l128 128v-96-32-32z"/><path d="m-736 224 128 128v-32l-128-128z"/><path d="m-608-96-128 128z"/><path d="m-614.4 448 6.4-5.3334z"/><path d="m-736 192v-32-96-32h-32v192h32z"/><path d="m-768 32v192z"/><path d="m-428.8 448h-179.2-6.4l-38.4 32h140.8 83.2z"/><path d="m-322.2857 480-18.2857-32h-43.4286-44.8v32z"/><path d="m-652.8 480 38.4-32z"/><path d="m-340.5714 448 18.2857 32z"/><path d="m-416-640h-32z"/><path d="m-384-768v128z"/><path d="m-384-640h-32v-128h32z"/><path d="m304-240v-16z"/><path d="m336-240h-32v-16h32z"/><path d="m384-256h-48-32z"/><path d="m336-240h-32z"/><path d="m336-256v16z"/><path d="m-480-96v32z"/><path d="m-608-96h128z"/><path d="m-480-64h-128v-32h128z"/><path d="m384-256h-128v96h128z"/><path d="m-480-320v192 32-32z"/><path d="m-480-320v-32h-128v51.2 172.8h128z"/><path d="m562.2857-192-10.2857-144-5.7143-80z"/><path d="m-816-512 40-224z"/><path d="m416-224v-64 128z"/><path d="m416 0v224-64-64-64z"/><path d="m416-224v64 160-32-64-64z"/><path d="m416-160v160z"/><path d="m-736 64v96 32-32z"/><path d="m-416-768v128z"/><path d="m-416-768v128h-32-32v-128z"/><path d="m-608-640v-128h128v128z"/><path d="m400-448v-96z"/><path d="m400-544h-52z"/><path d="m348-544 20-32z"/><path d="m348-544h52v96h-112z"/><path d="m-448-640v32z"/><path d="m-608-640v32z"/><path d="m-480-608h-32-64-32v-32h128z"/><path d="m-480-640h32v32h-32z"/><path d="m-608-524.8v140.8 32 32 19.2-51.2-64z"/><path d="m-608-608v83.2z"/><path d="m-608-320v-32z"/><path d="m-608-96v32z"/><path d="m-608-96v32z"/><path d="m384-128v-32-96 192z"/><path d="m416 224h-32z"/><path d="m320 192h32-32-64-128z"/><path d="m256 64h64v32 96h-192v-128z"/><path d="m256-128h64v192h-64z"/><path d="m384-160v32h-32-32-64v-32z"/><path d="m320 64v-192h32v224h-32z"/><path d="m352 96v64 32h-32v-96z"/><path d="m352-128h32v64 160h-32z"/><path d="m384 96v64h-32v-64z"/><path d="m256-160v32 192-96z"/><path d="m304-256h80z"/><path d="m224-160v-128 64 64 64 44z"/><path d="m256-256v64 32z"/><path d="m304-256h-48z"/><path d="m128 32 96-84z"/><path d="m352 224h-224 32z"/><path d="m384 224h-32z"/><path d="m96 64h-224 64 128z"/><path d="m-480-352v32z"/><path d="m-480-64h64 96 64z"/><path d="m-256-96 32 32z"/><path d="m-448-352h-32z"/><path d="m-448-608v32 192h-32v-224z"/><path d="m-448-384v32h-32v-32z"/><path d="m-256-96h-160-64z"/><path d="m-256-96h-64-96z"/><path d="m-480-64h224v128h-224z"/><path d="m-256 64v-128l128 128z"/><path d="m64 32h-128z"/><path d="m-224-64 96 96z"/><path d="m96 32h-32-128-64z"/><path d="m-512-384v-32-128-64h32v224z"/><path d="m-480-352h-32v-32h32z"/><path d="m-512-544h-64z"/><path d="m-512-544h-64v-64h64z"/><path d="m-576-416h64z"/><path d="m-576-352v-32-32h64v32 32z"/><path d="m-608-384v-140.8-83.2h32v64 128 32z"/><path d="m-576-352h-32v-32h32z"/><path d="m-608-64h128z"/><path d="m-608-64h128v128h-128z"/><path d="m96 192h-160-64v-128h224z"/><path d="m128 192h-32v-128h32z"/><path d="m-128 224h32v96h-128z"/><path d="m-256 64v100.8696l-153-59.8696-23-9-16.8918-6.6098-31.1082-12.1728v-13.2174z"/><path d="m-480 141.2173 25 9.7827 23 9-48 18.7827z"/><path d="m-480 77.2174 31.1082 12.1728-6.1082 15.6098-9 23-16-40.8889z"/><path d="m-374.9565 192-25.0435-64-9-23 153 59.8696v27.1304z"/><path d="m-448.8918 89.3902 16.8918 6.6098-23 9z"/><path d="m-128 192h-128v-27.1304-100.8696h128z"/><path d="m-425.0435 192 16.0435-41 9-23 25.0435 64z"/><path d="m-480 87.1111 16 40.8889 9 23-25-9.7827z"/><path d="m-480 178.7827 48-18.7827 23-9-16.0435 41h-54.9565z"/><path d="m-368 400 9.1429 16h-25.1429-192z"/><path d="m-256 320h-128-96v-32-96h54.9565 50.087 118.9565z"/><path d="m-128 192-128 128v-128z"/><path d="m-128 192-128 128h32l96-96z"/><path d="m-384 352h-224v-32h128 96z"/><path d="m-256 320v32h-128v-32z"/><path d="m-480 64v13.2174 9.8937 54.1062 37.5654 13.2173 96h-128v-128-96z"/><path d="m-480 288v32h-128v-32z"/><path d="m96 224h-192-32 64 128z"/><path d="m96 192h32-64-128z"/><path d="m-256 320h32z"/><path d="m-96 320h-32-96z"/><path d="m-128 224v-32z"/><path d="m-96 224v96z"/><path d="m-128 192-96 96-32 32z"/><path d="m-224 320 96-96z"/><path d="m-256 352h-128z"/><path d="m-224 320-32 32z"/><path d="m-368 400 9.1429 16z"/><path d="m-384 448h-44.8-179.2v-5.3334l32-26.6666h192z"/><path d="m-358.8571 416 18.2857 32h-43.4286v-32z"/><path d="m-608 448h-6.4l6.4-5.3334z"/><path d="m-736 160v-96l128-128v128 96z"/><path d="m-736 192v-32h128v128 32z"/><path d="m-608-96-128 128z"/><path d="m-608 352-128-128z"/><path d="m-768 32h32z"/><path d="m-736 224h-32z"/><path d="m-768 32v192z"/><path d="m-428.8 480h-99.2-124.8l38.4-32h6.4 179.2z"/><path d="m-384 448h43.4286l18.2857 32h-106.5143v-32z"/><path d="m-32-144h-32v32h32z"/><path d="m256-160v-96z"/><path d="m384-256v96z"/><path d="m384-160h-128z"/><path d="m256-256h128z"/><path d="m384-160h-128v-96h128z"/><path d="m320-905.8462-28.3141-1.452-195.6859-10.0351z"/><path d="m320-905.8462 64 3.2821 128 6.5641z"/><path d="m-608-320v-32h32 64 32v32 192h-128z"/><path d="m96-917.3333-28.3142-1.4521-67.0193-3.4369-.6665-.0341-105.4657-5.4085-22.5343-1.1556z"/><path d="m96-917.3333 64 3.282 160 8.2051z"/><path d="m-512-948.5128-224-11.4872z"/><path d="m-288-937.0256-224-11.4872z"/><path d="m-128-928.8205-160-8.2051z"/><path d="m562.2857-192 13.7143 192z"/><path d="m246 480 154-224z"/><path d="m400 256 154-224z"/><path d="m554 32 22-32z"/><path d="m240-480 48 32z"/><path d="m368-576-20 32-60 96-48-32-32-112z"/><path d="m368-576-160-16z"/><path d="m208-592 32 112z"/><path d="m348-544-60 96z"/><path d="m128 64h-32-32 32z"/><path d="m128 64h-32z"/><path d="m-256-64h-64z"/><path d="m-416-96h-64z"/><path d="m-320-64v-32z"/><path d="m-416-96v32z"/><path d="m-320-64h-96v-32h96z"/><path d="m-64 32v32z"/><path d="m64 32v32h-128v-32z"/><path d="m64 64v-32z"/><path d="m-64 32h-64z"/><path d="m-256-64 128 128z"/><path d="m128 224h-32z"/><path d="m128 224h-32-32 32z"/><path d="m-64 192h-64z"/><path d="m64 224v-32z"/><path d="m-64 192v32z"/><path d="m64 224h-128v-32h128z"/><path d="m-320 480 224 13.1765z"/><path d="m128 506.3529-224-13.1764z"/><path d="m224 512-96-5.6471z"/><path d="m224 512 22-32z"/><path d="m-16-96-16-16h-32l-16 16z"/><path d="m-16-96-16-16v-32l16-16z"/><path d="m-80-160 16 16h32l16-16z"/><path d="m-16-160-16 16h-32l-16-16z"/><path d="m-80-96 16-16v-32l-16-16z"/><path d="m-80-96 16-16h32l16 16z"/><path d="m-16-160-16 16v32l16 16z"/><path d="m-736-960 224 11.4872z"/><path d="m-736-960-40 224z"/><path d="m-811.2941 256 59.2941 224z"/><path d="m-65-392 16 39.9985 16 40.0015.1562-.1144 141.8438-103.8856z"/><path d="m-32.7209-311.811-.2791-.189-22.898 54.7562-.102.2438 150 31z"/><path d="m-56-257-40 16-32 12.8-8 3.2.1144.1562 103.8856 141.8438z"/><path d="m-33-312-1.3407-3.3507-70.6593-27.6493 9 23 26.6836 68.1914 13.4184-5.4352z"/><path d="m-32.7209-311.811-.1229-.3034-.1562.1144z"/><path d="m-128-411.962 7.8856-3.1942-103.8856-141.8438 24 174 40-16z"/><path d="m-128-238.2222 23-58.7778-23 9z"/><path d="m-96-320-9 23-23 58.7778v10.0222l32-12.8.924-.3743 25.7596-10.4343z"/><path d="m-128-403.186 8-11.814.189-.2791-.3034.1229-7.8856 3.1942z"/><path d="m-128-352 23 9 70.6593 27.6493-15.0336-37.5733-15.8695-39.178-54.7562-22.898-8 11.814z"/><path d="m-119.811-415.2791-.189.2791 54.7562 22.898.2438.102 31-150z"/><path d="m-128-238.2222v-49.7778l-23-9-70.8803-27.7358 14.879 36.7324 16.2451 40.1054 54.7562 22.898 8-3.2z"/><path d="m-239-367 15.7209 38.811 1.3988 3.4532 70.8803 27.7358-9-23-20.5714-52.5714-22.723-8.8916z"/><path d="m-200-383-49.6362-10.2581 10.6362 26.2581 35.7056-14.463 3.1924-1.2932z"/><path d="m-191-248-16.0013-40.0034-14.879-36.7324-1.2759-3.1498-141.8438 103.8856z"/><path d="m-239-367-10.6362-26.2581-100.3638-20.7419 126.7209 85.811z"/><path d="m-128-352-16.8918-6.6098-6.1082 15.6098z"/><path d="m-160-320 9-23 6.1082-15.6098-35.6796-13.9616z"/><path d="m-136.189-224.7209.3034-.1229-.1144-.1562z"/><path d="m-128-403.186v-8.776l-32 12.962-40.102 16.2438-3.1924 1.2932 22.723 8.8916 35.6796 13.9616 16.8918 6.6098z"/><path d="m-136.189-224.7209.189-.2791-54.7562-22.898-.2438-.102-12.5948 60.9427-18.4052 89.0573z"/><path d="m-32.8438-312.1144 141.8438-103.8856z"/><path d="m-350-414 126.7209 85.811z"/><path d="m-49.3743-352.924-15.8695-39.178z"/><path d="m-49-352.0015-16-39.9985z"/><path d="m-160-399-40 16z"/><path d="m-120.1144-415.1562.3034-.1229z"/><path d="m-120.1144-415.1562-103.8856-141.8438z"/><path d="m-160-399-40.102 16.2438z"/><path d="m-207.0013-288.0034-.0001-.0001 16.2452 40.1055z"/><path d="m-223.1562-327.8856-.1229-.3034z"/><path d="m-223.1562-327.8856-141.8438 103.8856z"/><path d="m-207.0013-288.0034 16.0013 40.0034-16.0014-40.0035z"/><path d="m-191-248-12.5948 60.9427z"/><path d="m-32.7209-311.811 126.7209 85.811z"/><path d="m-32.8438-312.1144.1229.3034z"/><path d="m-135.8856-224.8438-.3034.1229z"/><path d="m-135.8856-224.8438 103.8856 141.8438z"/><path d="m-96-241 40-16z"/><path d="m-105-343-23-9z"/><path d="m-128-352-23 9z"/><path d="m-96-320-9-23z"/><path d="m-151-343-9 23z"/><path d="m-105-297 9-23z"/><path d="m-160-320 9 23z"/><path d="m-128-288 23-9z"/><path d="m-151-297 23 9z"/><path d="m-32-112h-32v-32h32z"/><path d="m-64-112-16 16v-64l16 16z"/><path d="m-896-64 25.4117 96z"/><path d="m-32.8438-312.1144-.1562.1144-16-40.0015-16-39.9985 174-24z"/><path d="m-56-257 .102-.2438 22.898-54.7562.2791.189 126.7209 85.811z"/><path d="m-135.8856-224.8438-.1144-.1562 8-3.2 32-12.8 40-16 24 174z"/><path d="m-34.3407-315.3507 1.3407 3.3507-22.898 54.7562-13.4184 5.4352-26.6836-68.1914-9-23z"/><path d="m-32.8438-312.1144.1229.3034-.2791-.189z"/><path d="m-120.1144-415.1562-7.8856 3.1942-32 12.962-40 16-24-174z"/><path d="m-128-288 23-9-23 58.7778z"/><path d="m-105-297 9-23 26.6836 68.1914-25.7596 10.4343-.924.3743-32 12.8v-10.0222z"/><path d="m-128-411.962 7.8856-3.1942.3034-.1229-.189.2791-8 11.814z"/><path d="m-49.3743-352.924 15.0336 37.5733-70.6593-27.6493-23-9v-51.186l8-11.814 54.7562 22.898z"/><path d="m-119.811-415.2791 85.811-126.7209-31 150-.2438-.102-54.7562-22.898z"/><path d="m-207.0014-288.0035-14.8789-36.7323 70.8803 27.7358 23 9v49.7778 10.0222l-8 3.2-54.7562-22.898z"/><path d="m-180.5714-372.5714 20.5714 52.5714 9 23-70.8803-27.7358-1.3988-3.4532-15.7209-38.811 35.7056-14.463z"/><path d="m-249.6362-393.2581 49.6362 10.2581-.102.2438-3.1924 1.2932-35.7056 14.463z"/><path d="m-223.1562-327.8856 1.2759 3.1498 14.8789 36.7323 16.0014 40.0035-174 24z"/><path d="m-350-414 100.3638 20.7419 10.6362 26.2581 15.7209 38.811z"/><path d="m-144.8918-358.6098 16.8918 6.6098-23 9z"/><path d="m-144.8918-358.6098-6.1082 15.6098-9 23-20.5714-52.5714z"/><path d="m-135.8856-224.8438-.3034.1229.189-.2791z"/><path d="m-144.8918-358.6098-35.6796-13.9616-22.723-8.8916 3.1924-1.2932 40.102-16.2438 32-12.962v8.776 51.186z"/><path d="m-203.5948-187.0573 12.5948-60.9427.2438.102 54.7562 22.898-.189.2791-85.811 126.7209z"/><path d="m-119.811-415.2791 85.811-126.7209z"/><path d="m-34-542-31 150z"/><path d="m-65-392 174-24z"/><path d="m-65-392-.2438-.102z"/><path d="m-249.6362-393.2581-100.3638-20.7419 100.3638 20.7419 49.6362 10.2581z"/><path d="m-200-383-24-174z"/><path d="m-200-383-.102.2438z"/><path d="m-191-248-174 24z"/><path d="m-191-248 .2438.102z"/><path d="m-136.189-224.7209-85.811 126.7209z"/><path d="m-69.3164-251.8086 13.4184-5.4352-13.4184 5.4352-25.7596 10.4343z"/><path d="m94-226-150-31z"/><path d="m-56-257 .102-.2438z"/><path d="m-56-257 24 174z"/><path d="m-203.5948-187.0573-18.4052 89.0573z"/><path d="m576-896-4.5714-64h4.5714z"/><path d="m576-896h-64v-64h59.4286z"/><path d="m512-896h64l.2353 3.294z"/><path d="m-896-64 40-224z"/><path d="m-528 480h99.2 106.5143 2.2857z"/><path d="m-608 96v64 160-160z"/><path d="m96 64h-32-128-64z"/><path d="m-64 64h-64z"/><path d="m-480-96v32z"/><path d="m-416-64h-64z"/><path d="m-320-96h-96v32h96z"/><path d="m64 32h-64-64z"/><path d="m64 64v-32h-128v32z"/><path d="m-64 224h-64z"/><path d="m96 224h-32-128-64 96 32z"/><path d="m96 192h-32 64z"/><path d="m128 192h-32z"/><path d="m64 192h-128v32h128z"/><path d="m-608 96v-160l-128 128v96h128z"/><path d="m-736 160v32l128 128v-160z"/><path d="m-608-64-128 128z"/><path d="m-736 192 128 128z"/><path d="m514.2857-864 13.7143 192 2.2857 32z"/><path d="m514.2857-864-2.2857-32 64.2353 3.294 15.7647 220.706h-64z"/><path d="m-608-128v-172.8-19.2 192 32z"/><path d="m-608-128v32h128v-32z"/><path d="m416-288v64z"/><path d="m416-288v64z"/><path d="m-736 64v96 32z"/><path d="m-608-64v-32 32 160z"/><path d="m-608 352v-32z"/><path d="m384-64v32 96 32 64-64z"/><path d="m416 224h-32z"/><path d="m416 224h-32z"/><path d="m384-288h-128z"/><path d="m384-288h-128-32z"/><path d="m256 64h-128z"/><path d="m384-64v-192h-80-48v96 128h128z"/><path d="m256-32v96h128v-96z"/><path d="m192 32h-64l96-84v20 64z"/><path d="m192 32h32z"/><path d="m128 32h64z"/><path d="m224-224v64z"/><path d="m224 32v-64z"/><path d="m256-256v96z"/><path d="m256-256h48z"/><path d="m128 32 96-84z"/><path d="m384 160h-32z"/><path d="m256 192v-128h-128v128z"/><path d="m160 224h-32v192h32z"/><path d="m128 64h-32z"/><path d="m-256-64h-64-96-64z"/><path d="m-256-96 32 32z"/><path d="m-480-96h64 96z"/><path d="m-256-96h-64z"/><path d="m-320-96h64-224z"/><path d="m64 32h64-64-64z"/><path d="m128 32h-64 32z"/><path d="m-224-64 96 96z"/><path d="m-608-64 32 32h64l32-32v-32h-128z"/><path d="m-256 352v-32z"/><path d="m128 224h-32z"/><path d="m96 64h-224v128h224z"/><path d="m128 64h-32v128h32z"/><path d="m96 192h-224 64 128z"/><path d="m96 224h-96v192h128v-192z"/><path d="m-32 416h32v-192h-32z"/><path d="m-32 224v64 64 64z"/><path d="m-128 224-96 96-32 32z"/><path d="m-256 320 128-128z"/><path d="m160 416h-32-128-32v32h192z"/><path d="m-608-64v160 64h-128v-96z"/><path d="m-608 160v160l-128-128v-32z"/><path d="m-608-96-128 128z"/><path d="m-736 224 128 128z"/><path d="m-736 32h-32z"/><path d="m-768 224h32z"/><path d="m-768 32v192z"/><path d="m592-672 16 224h-64l-13.7143-192-2.2857-32z"/><path d="m384-966.5641 128 6.5641h-128z"/><path d="m384-960h128v64l-128-6.5641z"/><path d="m-480-128v32h-128v-32z"/><path d="m530.2857-640 13.7143 192 2.2857 32z"/><path d="m384 160v-64z"/><path d="m384 192v-32z"/><path d="m352 192h-32z"/><path d="m352 192h32z"/><path d="m384 192h-32v-32h32z"/><path d="m352 160v32z"/><path d="m-224-240h-32v32h32z"/><path d="m-32-416h-32v32h32z"/><path d="m384 64h-128v128h128z"/><path d="m-856-288 40-224z"/><path d="m-608-96v32z"/><path d="m384-256v-32 64 64 64z"/><path d="m384 32v-64z"/><path d="m384 96v-32z"/><path d="m384-288h32z"/><path d="m0 416h128z"/><path d="m256-288h-32z"/><path d="m256 192h64z"/><path d="m256 192h64-64-64z"/><path d="m384 64h-128z"/><path d="m256-160v-64-32h128v160 64h-128z"/><path d="m384-32v64 32h-128v-32-64z"/><path d="m384-288v32h-128v-32z"/><path d="m256 64v128z"/><path d="m192 64h64v128h-64-64v-128z"/><path d="m96 64h-32-64-128 64 64 64z"/><path d="m-480-96v32z"/><path d="m-480-64h224z"/><path d="m-480-64-32 32h-64l-32-32v-32h128z"/><path d="m-512-32h-64z"/><path d="m-576-32-32-32z"/><path d="m-480-64-32 32z"/><path d="m-128 192v-128z"/><path d="m128 192h-64v-128h32 32z"/><path d="m64 192h64v32h-64z"/><path d="m0 192v-128h64v128 32h-64z"/><path d="m0 192h-128v-128h128z"/><path d="m0 416v-64-64-64z"/><path d="m128 416h-128v-192h64 64z"/><path d="m-128 192-128 128z"/><path d="m256 192v-128z"/><path d="m256 64h128z"/><path d="m384 64v128z"/><path d="m384 192h-128z"/><path d="m384 192h-128v-128h128z"/><path d="m608-448 16 224h-64l-13.7143-192-2.2857-32z"/><path d="m-208-192-16-16h-32l-16 16z"/><path d="m-208-192-16-16v-32l16-16z"/><path d="m-272-256 16 16h32l16-16z"/><path d="m-208-256-16 16h-32l-16-16z"/><path d="m-272-192 16-16v-32l-16-16z"/><path d="m-272-192 16-16h32l16 16z"/><path d="m-208-256-16 16v32l16 16z"/><path d="m-16-368-16-16h-32l-16 16z"/><path d="m-16-368-16-16v-32l16-16z"/><path d="m-80-432 16 16h32l16-16z"/><path d="m-16-432-16 16h-32l-16-16z"/><path d="m-80-368 16-16v-32l-16-16z"/><path d="m-80-368 16-16h32l16 16z"/><path d="m-16-432-16 16v32l16 16z"/><path d="m546.2857-416 13.7143 192 2.2857 32z"/><path d="m-870.5883 32 59.2942 224z"/><path d="m-870.5883 32-25.4117-96z"/><path d="m416 32v-64 32z"/><path d="m416-32v-64z"/><path d="m416-96v-64z"/><path d="m416 160v64z"/><path d="m416 96v-64z"/><path d="m416 160v-64z"/><path d="m384-224v64z"/><path d="m384-32v-64z"/><path d="m384 96v-32-32z"/><path d="m416-224h-32v-64h32z"/><path d="m416-96h-32v-64h32z"/><path d="m416 32h-32v-64h32z"/><path d="m416 160h-32v-64h32z"/><path d="m128 224v-32z"/><path d="m128 224v64 64 64z"/><path d="m192 192h-64z"/><path d="m192 64h-64z"/><path d="m192 64h64z"/><path d="m256-288v32 32z"/><path d="m256-32v-64-64 128 64z"/><path d="m256-224h-32v-64h32z"/><path d="m224-288v64z"/><path d="m256-96h-32v-64h32z"/><path d="m224-160v64z"/><path d="m224-96v64-20z"/><path d="m256 32h-32v-64h32z"/><path d="m192 64h-64v-32h64z"/><path d="m192 224h64 64 64-32-192z"/><path d="m384 224h-64v-32h32 32z"/><path d="m256 224h-64v-32h64z"/><path d="m160 352v-64-64 192z"/><path d="m160 288h-32v-64h32z"/><path d="m160 416h-32v-64h32z"/><path d="m128 64h-32z"/><path d="m-64 32h64z"/><path d="m64 64h-64v-32h64z"/><path d="m-64 64h-64v-32h64z"/><path d="m-64 32h-64z"/><path d="m-64 224h32-96z"/><path d="m0 224v-32z"/><path d="m-64 192h-64 128z"/><path d="m-64 224h-64v-32h64z"/><path d="m0 288h-32v-64h32z"/><path d="m0 416h-32v-64h32z"/><path d="m-32 416v32z"/><path d="m-752 480h16 83.2 124.8z"/><path d="m-64-352v25.0435 38.9565l128-32z"/><path d="m0-192-38.4-57.6-25.6-38.4-14 14-18 18z"/><path d="m-96-256h-25.0435-6.9565-32l32 128z"/><path d="m-180.5714-372.5714 35.6796 13.9616 16.8918 6.6098 23 9 41 16.0435v-25.0435l-32-32h-64-32v6.9565z"/><path d="m-96-320-9 23-16.0435 41h25.0435l18-18z"/><path d="m-96-384-32-128-32 128z"/><path d="m-128-256h6.9565l16.0435-41-23 9z"/><path d="m-64-288v-38.9565l-41-16.0435 9 23 18 46z"/><path d="m-96-384 32 32 64-96z"/><path d="m-256-192 96-64-32-32z"/><path d="m-160-320-20.5714-52.5714-11.4286-4.4721v25.0435 38.9565l41 16.0435z"/><path d="m-160-320 9-23 6.1082-15.6098-35.6796-13.9616z"/><path d="m-144.8918-358.6098-6.1082 15.6098 23-9z"/><path d="m-192-377.0435v-6.9565-21.3333l-64-42.6667 64 96z"/><path d="m-192-288v-25.0435-38.9565l-128 32z"/><path d="m-160-384-32-21.3333v21.3333z"/><path d="m-128-288-23-9-41-16.0435v25.0435l32 32h32z"/><path d="m-64-352 64-96z"/><path d="m-64-288 128-32z"/><path d="m-192-352-128 32z"/><path d="m0-448-96 64z"/><path d="m-256-448 64 96z"/><path d="m-96-384-32-128z"/><path d="m-192-405.3333 32 21.3333-32-21.3333-64-42.6667z"/><path d="m-38.4-249.6 38.4 57.6z"/><path d="m-160-256 32 128z"/><path d="m-151-343 23-9z"/><path d="m-128-352 23 9z"/><path d="m-160-320 9-23z"/><path d="m-105-343 9 23z"/><path d="m-151-297-9-23z"/><path d="m-96-320-9 23z"/><path d="m-128-288-23-9z"/><path d="m-105-297-23 9z"/><path d="m-224-208h-32v-32h32z"/><path d="m-256-208-16 16v-64l16 16z"/><path d="m-32-384h-32v-32h32z"/><path d="m-64-384-16 16v-64l16 16z"/><path d="m160-978.0513 224 11.4872v6.5641h-224z"/><path d="m160-960h224v57.4359l-64-3.2821-160-8.2051z"/><path d="m624-224 16 224h-64l-13.7143-192-2.2857-32z"/><path d="m-816-512 40-224z"/><path d="m-32 448h192z"/><path d="m416-224v64z"/><path d="m384-224h32v64h-32z"/><path d="m224-224h32v64h-32z"/><path d="m-64-288v-38.9565-25.0435l128 32z"/><path d="m-78-274 14-14 25.6 38.4 38.4 57.6-96-64z"/><path d="m-160-256h32 6.9565 25.0435l-32 128z"/><path d="m-160-384h64l32 32v25.0435l-41-16.0435-23-9-16.8918-6.6098-35.6796-13.9616-11.4286-4.4721v-6.9565z"/><path d="m-105-297 9-23 18 46-18 18h-25.0435z"/><path d="m-128-512 32 128h-64z"/><path d="m-121.0435-256h-6.9565v-32l23-9z"/><path d="m-64-326.9565v38.9565l-14 14-18-46-9-23z"/><path d="m0-448-64 96-32-32z"/><path d="m-160-256-96 64 64-96z"/><path d="m-192-352v-25.0435l11.4286 4.4721 20.5714 52.5714 9 23-41-16.0435z"/><path d="m-151-343-9 23-20.5714-52.5714 35.6796 13.9616z"/><path d="m-144.8918-358.6098 16.8918 6.6098-23 9z"/><path d="m-256-448 64 42.6667v21.3333 6.9565 25.0435z"/><path d="m-192-352v38.9565 25.0435l-128-32z"/><path d="m-192-405.3333 32 21.3333h-32z"/><path d="m-192-288v-25.0435l41 16.0435 23 9v32h-32z"/><path d="m416-32h-32v-64h32z"/><path d="m416 96h-32v-64h32z"/><path d="m416 224h-32v-64h32z"/><path d="m256-32h-32v-64h32z"/><path d="m256 64h-64v-32h64z"/><path d="m128 64h-64v-32h64z"/><path d="m0 64h-64v-32h64z"/><path d="m320 224h-64v-32h64z"/><path d="m192 224h-64v-32h64z"/><path d="m0 224h-64v-32h64z"/><path d="m160 352h-32v-64h32z"/><path d="m0 352h-32v-64h32z"/><path d="m160 448h-192v-32h192z"/><path d="m-256-96v32h-224v-32z"/><path d="m-256-96 32 32h-32z"/><path d="m-128 64-128-128h32l96 96z"/><path d="m-128 224-128 128v-32l128-128z"/><path d="m-608-96v32l-128 128v-32z"/><path d="m-768 32h32v32 128 32h-32z"/><path d="m-736 224v-32l128 128v32z"/><path d="m-608 320v32z"/><path d="m384 224v-32-32z"/><path d="m416-160h-32z"/><path d="m384-224h32z"/><path d="m384 32h32z"/><path d="m384-96h32z"/><path d="m416-32h-32z"/><path d="m384 160h32z"/><path d="m416 96h-32z"/><path d="m-32 416h32 128 32z"/><path d="m128 32v32z"/><path d="m128 352v-64z"/><path d="m256 192h64z"/><path d="m256-224v64z"/><path d="m256-96v64z"/><path d="m256 64v-32z"/><path d="m192 32h32 32z"/><path d="m224-96h32z"/><path d="m256-160h-32z"/><path d="m224-224h32z"/><path d="m256-32h-32z"/><path d="m192 64v-32z"/><path d="m192 224h-32-32z"/><path d="m320 224h-64z"/><path d="m320 192v32z"/><path d="m256 224v-32z"/><path d="m192 192v32z"/><path d="m160 288v64z"/><path d="m160 352h-32z"/><path d="m128 288h32z"/><path d="m0 64h-64z"/><path d="m128 64h-32-32z"/><path d="m-256-96 32 32z"/><path d="m-192-288-128-32z"/><path d="m-64-288 25.6 38.4z"/><path d="m-64-352 128 32z"/><path d="m-160-384 32-128z"/><path d="m0-192-96-64z"/><path d="m-160-256-96 64z"/><path d="m-256-192 64-96z"/><path d="m-96-256-32 128z"/><path d="m-128 32v32z"/><path d="m-64 64v-32z"/><path d="m64 32h64z"/><path d="m0 32v32z"/><path d="m64 64v-32z"/><path d="m-256-64 128 128z"/><path d="m-256 320v32z"/><path d="m-128 192v32z"/><path d="m0 224h-32-32z"/><path d="m-64 192h64z"/><path d="m-64 224v-32z"/><path d="m0 288v64z"/><path d="m-32 352v-64z"/><path d="m-32 288h32z"/><path d="m0 352h-32z"/><path d="m-256 352 128-128z"/><path d="m-432 96 23 9z"/><path d="m-455 105 23-9z"/><path d="m-409 105 9 23z"/><path d="m-464 128 9-23z"/><path d="m-400 128-9 23z"/><path d="m-455 151-9-23z"/><path d="m-409 151-23 9z"/><path d="m-432 160-23-9z"/><path d="m160 448v-32z"/><path d="m-608 352-128-128z"/><path d="m-736 192 128 128z"/><path d="m-608-64-128 128z"/><path d="m-768 32h32z"/><path d="m-736 224h-32z"/><path d="m-64-925.5385 96 4.9231 64 3.2821-224-11.4872z"/><path d="m-512-948.5128 224 11.4872z"/><path d="m-288-937.0256 160 8.2051z"/><path d="m288 576h-44l44-64z"/><path d="m576 0h64l-57.9764 84.3293z"/><path d="m400 256-84 122.1818-70 101.8182z"/><path d="m554 32-84 122.1819-70 101.8181z"/><path d="m576 0-22 32z"/><path d="m470 224v23.2724l-90 130.9092-64 .0002 84-122.1818 70-101.8181z"/><path d="m380 378.1816-70 101.8184h-64l70-101.8182z"/><path d="m554 32 22-32 6.0236 84.3293-96.0236 139.6707h-16v-69.8181z"/><path d="m486 224-16 23.2724v-23.2724z"/><path d="m310 480-22 32-44 64h-20v-32-32l22-32z"/><path d="m-320 480 224 13.1765z"/><path d="m246 480-22 32z"/><path d="m-64-989.5385 224 11.4872v18.0513h-224z"/><path d="m-512-948.5128-224-11.4872z"/><path d="m-512-948.5128 224 11.4872z"/><path d="m-64-925.5385 96 4.9231z"/><path d="m-64-960h224v45.9487l-64-3.282-64-3.2821-96-4.9231z"/><path d="m-736-960-40 224z"/><path d="m-811.2941 256 59.2941 224z"/><path d="m-811.2941 256-25.4118-96-33.8824-128z"/><path d="m-144-256h-32v32h32z"/><path d="m-528 480h208z"/><path d="m-320 480 224 13.1765z"/><path d="m-96 493.1765 224 13.1764z"/><path d="m-856-288-40 224h-64l40-224z"/><path d="m-128-208-16-16h-32l-16 16z"/><path d="m-128-208-16-16v-32l16-16z"/><path d="m-192-272 16 16h32l16-16z"/><path d="m-128-272-16 16h-32l-16-16z"/><path d="m-192-208 16-16v-32l-16-16z"/><path d="m-192-208 16-16h32l16 16z"/><path d="m-128-272-16 16v32l16 16z"/><path d="m-921.782 80.3792-38.218-144.3792h64z"/><path d="m128 506.3529-224-13.1764z"/><path d="m128 506.3529 96 5.6471z"/><path d="m-432 32-68 29-3.0139 7.212 18.4422 7.2165 35.6795 13.9616 16.8922 6.6099 23 9 70.966 27.7693 2.034-4.7693-29-67z"/><path d="m-409 151-27.7929 71.0264 4.7929 1.9736 59.7881-24.9861-27.7881-71.0139z"/><path d="m-455 151-71.0011-27.7831-1.9989 4.7831 24.6696 59.9119 71.3304-27.9119z"/><path d="m-455 105 6.1078-15.6099-35.6795-13.9616 20.5717 52.5715z"/><path d="m-432 96-16.8922-6.6099-6.1078 15.6099z"/><path d="m-503.0139 68.212-22.9872 55.0049 71.0011 27.7831-9-23-20.5717-52.5715z"/><path d="m-432 160-71.3304 27.9119 3.3304 8.0881 63.2071 26.0264 27.7929-71.0264z"/><path d="m-400 128 27.7881 71.0139 7.2119-3.0139 26.966-63.2307-70.966-27.7693z"/><path d="m-432 96-23 9z"/><path d="m-409 105-23-9z"/><path d="m-455 105-9 23z"/><path d="m-400 128-9-23z"/><path d="m-464 128 9 23z"/><path d="m-409 151 9-23z"/><path d="m-455 151 23 9z"/><path d="m-432 160 23-9z"/><path d="m128 506.3529 96 5.6471v32h-96z"/><path d="m128 544h96v32l-96-5.6471z"/><path d="m-81-374 12 30 12 30 .1569-.1143 106.8431-77.8857z"/><path d="m-56.7193-313.8099-.2807-.1901-16.8986 40.7553-.1014.2447 113 24z"/><path d="m-74-273-30.0018 12-17.8848 7.1546-12.1134 4.8454.1143.1569 77.8857 106.8431z"/><path d="m-134.1901-248.7193.1901-.2807-40.7553-16.8986-.2447-.1014-9.554 44.9833-14.446 68.0167z"/><path d="m-144.1321-358.3126 16.1321 6.3126 23 9 43.1526 16.8858-7.4067-18.5105-11.9906-29.4767-40.7553-16.8986z"/><path d="m-57-314-4.8474-12.1142-43.1526-16.8858 9 23 18.8182 48.0909 3.2832-1.3356z"/><path d="m-96-320-9 23-16.8866 43.1546 17.8848-7.1546.6265-.2541 26.1935-10.655z"/><path d="m-134-249 12.1134-4.8454 16.8866-43.1546-23 9-48.0909 18.8182 1.3356 3.2832z"/><path d="m-134.1901-248.7193.3044-.1238-.1143-.1569z"/><path d="m-160-320 9-23 6.1082-15.6098-29.1719-11.4151-4.7545 1.934z"/><path d="m-211-355-8.0854-19.8765-75.9146-16.1235 95.7193 64.8099z"/><path d="m-175-266-12-30-7.2989-17.943-4.858-11.9426-106.8431 77.8856z"/><path d="m-182-367-37.0854-7.8765 8.0854 19.8765 28.8986-11.7553z"/><path d="m-182-367 30-12 29.8856-12.1569-77.8856-106.8431z"/><path d="m-144.1321-358.3126-.7597-.2972-6.1082 15.6098 23-9z"/><path d="m-182.1014-366.7553-28.8986 11.7553 11.7193 28.8099.1238.3045 4.858 11.9426 43.2989 16.943-9-23-18.8182-48.0909z"/><path d="m-187-296 10.9091 26.8182 48.0909-18.8182-23-9-43.2989-16.943z"/><path d="m-56.7193-313.8099-.1238-.3044-.1569.1143z"/><path d="m-122.1144-391.1569-29.8856 12.1569-22.0637 8.9751 29.1719 11.4151.7597.2972 22.1321-32.6874.1901-.2807z"/><path d="m-121.8099-391.2807-.1901.2807 40.7553 16.8986.2447.1014 24-113z"/><path d="m-56.8431-314.1143 106.8431-77.8857z"/><path d="m-69.2541-344.6247-11.9906-29.4767z"/><path d="m-69-344-12-30z"/><path d="m-152-379-30 12z"/><path d="m-122.1144-391.1569.3045-.1238-.3044.1238z"/><path d="m-219.0854-374.8765 37.0854 7.8765-37.0854-7.8765-75.9146-16.1235z"/><path d="m-122.1144-391.1569h.0001l-77.8857-106.8431z"/><path d="m-176.0909-269.1818-10.9091-26.8182 10.9091 26.8182 1.3356 3.2832z"/><path d="m-199.1569-325.8856-.1238-.3045-.0001-.0005z"/><path d="m-199.1569-325.8856-106.8431 77.8856z"/><path d="m-187-296 12 30z"/><path d="m-175-266-9.554 44.9833z"/><path d="m-56.8431-314.1143.1238.3044v-.0001z"/><path d="m-133.8857-248.8431-.3044.1238.3045-.1238z"/><path d="m-74-273 112.9989 24h.0011z"/><path d="m-133.8857-248.8431h.0001l77.8856 106.8431z"/><path d="m-104.0018-261 30.0018-12-30.0021 12z"/><path d="m-128-352-23 9z"/><path d="m-105-343-23-9z"/><path d="m-151-343-9 23z"/><path d="m-96-320-9-23z"/><path d="m-160-320 9 23z"/><path d="m-105-297 9-23z"/><path d="m-151-297 23 9z"/><path d="m-128-288 23-9z"/><path d="m-144-224h-32v-32h32z"/><path d="m-176-224-16 16v-64l16 16z"/><path d="m-900.7059 160-21.0761-79.6208 25.782-144.3792 25.4117 96 33.8824 128z"/><path d="m-288-1001.0256 224 11.4871v29.5385h-224z"/><path d="m-288-960h224v34.4615l-224-11.4871z"/><path d="m-288-937.0256 224 11.4871-64-3.282z"/><path d="m-365 196-67 28-68-28-28-68 28-67 68-29 67 29 29 67z"/><path d="m-121.8099-391.2807 64.8099-95.7193-24 113-.2447-.1014-40.7553-16.8986z"/><path d="m-122-391-22.1321 32.6874-.7597-.2972-29.1719-11.4151 22.0637-8.9751 29.8857-12.1569.3044-.1238z"/><path d="m-56.8431-314.1143.1238.3043-.2807-.19z"/><path d="m-151-297 23 9-48.0909 18.8182-10.9091-26.8182-7.2989-17.943z"/><path d="m-160-320 9 23-43.2989-16.943-4.9819-12.2476-11.7192-28.8094 28.8986-11.7553 3.2832-1.3356z"/><path d="m-144.8918-358.6098.7597.2972 16.1321 6.3126-23 9z"/><path d="m-200-498 77.8857 106.8431-29.8857 12.1569-30 12z"/><path d="m-219.0854-374.8765 37.0854 7.8765-.1014.2447-28.8986 11.7553z"/><path d="m-199.1569-325.8856 4.858 11.9426 7.2989 17.943 12 30-131 18z"/><path d="m-295-391 75.9146 16.1235 8.0854 19.8765 11.7192 28.8094z"/><path d="m-151-343-9 23-18.8182-48.0909 4.7545-1.934 29.1719 11.4151z"/><path d="m-133.8856-248.8431-.3045.1238.1901-.2807z"/><path d="m-121.8866-253.8454-12.1134 4.8454-40.7553-16.8986-1.3356-3.2832 48.0909-18.8182 23-9z"/><path d="m-105-297 9-23 18.8182 48.0909-26.1938 10.655-.6265.2541-17.8845 7.1546z"/><path d="m-61.8473-326.1142 4.8473 12.1142-16.8986 40.7553-3.2832 1.3356-18.8182-48.0909-9-23z"/><path d="m-69.2541-344.6247 7.4068 18.5105-43.1527-16.8858-23-9-16.1321-6.3126 22.1321-32.6874 40.7553 16.8986z"/><path d="m-184.554-221.0167 9.554-44.9833.2447.1014 40.7553 16.8986-.1901.2807-64.8099 95.7193z"/><path d="m-133.8856-248.8431-.1144-.1569 12.1134-4.8454 17.8845-7.1546 30.0021-12 18 131z"/><path d="m-74-273 .1014-.2447 16.8986-40.7553.2807.19 95.7182 64.81z"/><path d="m-56.8431-314.1143-.1569.1143-12-30-12-30 131-18z"/><path d="m-432 32-68 29z"/><path d="m-295-391 95.7192 64.8094.0001.0005z"/><path d="m-121.8099-391.2807 64.8099-95.7193z"/><path d="m-57-487-24 113z"/><path d="m-81-374 131-18z"/><path d="m-81-374-.2447-.1014z"/><path d="m-182-367-18-131z"/><path d="m-174.0637-370.0249-4.7545 1.934-3.2832 1.3356 3.2832-1.3356 4.7545-1.934 22.0637-8.9751z"/><path d="m-182-367-.1014.2447z"/><path d="m-175-266-131 18z"/><path d="m-175-266 .2447.1014z"/><path d="m-134.1901-248.7193-64.8099 95.7193z"/><path d="m-56.7193-313.81v.0001l95.7193 64.8099h-.0011z"/><path d="m-77.1818-271.9091 3.2832-1.3356-3.2832 1.3356-26.1935 10.655h-.0003z"/><path d="m-74-273 .1014-.2447z"/><path d="m-74-273 18 131z"/><path d="m-184.554-221.0167-14.446 68.0167z"/><path d="m-500 61-28 67 1.9989-4.7831 22.9872-55.0049z"/><path d="m-365 61-67-29z"/><path d="m-528 128 28 68-3.3304-8.0881z"/><path d="m-336 128-29-67z"/><path d="m-500 196 68 28-4.7929-1.9736z"/><path d="m-365 196 29-68-2.034 4.7693z"/><path d="m-432 224 67-28-7.2119 3.0139z"/><path d="m-816-512-40 224h-64l40-224z"/><path d="m-256-208v16h192v-16z"/><path d="m-752 480h224z"/><path d="m-752 480-25.4119-96-33.8822-128z"/><path d="m-512-1012.5128 224 11.4872v41.0256h-224z"/><path d="m-512-960h224v22.9744l-224-11.4872z"/><path d="m-776-736-40 224h-64l40-224z"/><path d="m-841.4117 384-59.2942-224h64l25.4118 96 33.8822 128z"/><path d="m-64-208h16-76.0471-7.9058-44.0471-80z"/><path d="m-64-208v16h192v-16z"/><path d="m-48-208h16-92.0471z"/><path d="m-107-363 22 22 42-64z"/><path d="m-85-335.1739-20-7.8261 9 23 4.1077 10.4975 6.8923 10.5025z"/><path d="m-127.9912-352.0034-16.8997-6.6088-6.1091 15.6122z"/><path d="m-149-363h42l-21-85z"/><path d="m-156.1111-363h7.1111l-22-14.4375v14.4375z"/><path d="m-171-299v-5.8261-36.1739l-85 21z"/><path d="m-171-348.1111v-14.8889-14.4375l-42-27.5625 42 64z"/><path d="m-171-348.1111 11 28.1111 9-23 6.1091-15.6122-11.2202-4.3878h-14.8889z"/><path d="m-171-341v36.1739l20 7.8261-9-23-11-28.1111z"/><path d="m-128-288-23-9-20-7.8261v5.8261l20 20z"/><path d="m-128-288-23 9 2 2h36.1739l7.8261-20z"/><path d="m-91.8923-309.5025-4.1077-10.4975-1.0342 2.6622z"/><path d="m-85-299-6.8923-10.5025-5.1419-7.8353-3.293 8.3963-4.6728 11.9415-7.8261 20h5.8261z"/><path d="m-85-341-22-22-18.3378 12.0342 8.3963 3.293 11.9415 4.6728 20 7.8261z"/><path d="m-107-363h-42-7.1111l11.2202 4.3878 16.8997 6.6088 2.6534 1.0376z"/><path d="m-213-235 64-42-2-2-20-20z"/><path d="m-107-277h-5.8261-36.1739l17.0471 69h7.9058z"/><path d="m-43-235-25.3585-38.6415-16.6415-25.3585-22 22z"/><path d="m-85-341v5.8261 36.1739l85-21z"/><path d="m-85-299 85-21z"/><path d="m-171-341-85 21z"/><path d="m-213-405 42 64z"/><path d="m-107-363-21-85z"/><path d="m-68.3585-273.6415 25.3585 38.6415z"/><path d="m-213-235 64-42z"/><path d="m-149-277 17.0471 69z"/><path d="m-116.9415-347.6728-11.0497-4.3306-.0088.0034 23 9z"/><path d="m-151-343 23-9 .0088-.0034z"/><path d="m-105-343 9 23z"/><path d="m-160-320 9-23z"/><path d="m-100.3272-308.9415 4.3272-11.0585-9 23z"/><path d="m-151-297-9-23z"/><path d="m-105-297-23 9z"/><path d="m-128-288-23-9z"/><path d="m-176-208h16 32v16h-128v-16z"/><path d="m-800-960v-64h64v64z"/><path d="m-736-960v-64l11.3249.5807 212.6751 10.9065v52.5128z"/><path d="m-736-960 224 11.4872z"/><path d="m-736-960h224v11.4872z"/><path d="m-736-960-40 224z"/><path d="m-131.9529-208h-28.0471-16z"/><path d="m-131.9529-208h7.9058 92.0471 32-96-32-32z"/><path d="m-128-288 32-32-4.3272 11.0585-12.4989 31.9415h-26.1739z"/><path d="m-128-352-32 32-11-11v-10-22h14.8889z"/><path d="m-85-299v-10-26.1739-5.8261l85 21z"/><path d="m-85-299 16.6415 25.3585 25.3585 38.6415-64-42z"/><path d="m-149-277h10 26.1739 5.8261l-17.0471 69h-7.9058z"/><path d="m-149-277-64 42 42-64z"/><path d="m-128-352-28.1111-11h7.1111 42l22 22-40.3378-9.9658z"/><path d="m-85-299-22 22h-5.8261l12.4989-31.9415 3.293-8.3963z"/><path d="m-213-405 42 27.5625v14.4375 22z"/><path d="m-171-341v10 32l-85-21z"/><path d="m-171-377.4375 22 14.4375h-7.1111-14.8889z"/><path d="m-128-448 21 85h-42z"/><path d="m-96-320 11 11v10l-12.0342-18.3378z"/><path d="m-116.9415-347.6728-8.3963-3.293 40.3378 9.9658v5.8261z"/><path d="m-43-405-42 64-22-22z"/><path d="m-171-331 11 11 32 32-11 11h-10l-22-22z"/><path d="m-96-320-32-32 11.0585 4.3272 31.9415 12.4989v26.1739z"/><path d="m-160-320 32-32v4l-28 28z"/><path d="m-128-352 32 32h-4l-28-28z"/><path d="m-128-288-32-32h4l28 28z"/><path d="m-96-320-32 32v-4l28-28z"/><path d="m-171-299-85-21z"/><path d="m-43-405-42 64z"/><path d="m-85-299 16.6415 25.3585z"/><path d="m-85-341 85 21z"/><path d="m-107-363 64-42z"/><path d="m-171-377.4375-42-27.5625 42 27.5625 22 14.4375z"/><path d="m-149-363 21-85z"/><path d="m-43-235-64-42z"/><path d="m-213-235 42-64z"/><path d="m-107-277-17.0471 69z"/><path d="m-32-192h32 128-192z"/><path d="m-752 480h-64l-25.4117-96h63.9998z"/><path d="m-816 480h64v64h-64z"/><path d="m-800-960h64l-40 224h-64z"/><path d="m-528 480h-224z"/><path d="m-528 480h208z"/><path d="m0-208h-32-16-16 192z"/><path d="m-128-348v28h-28z"/><path d="m-100-320h-28v-28z"/><path d="m-156-320h28v28z"/><path d="m-128-292v-28h28z"/><path d="m-128-192h32 64-32-192z"/><path d="m-32-192h32z"/><path d="m-96-192h-32-192 192z"/><path d="m0-192v-16h128v16z"/><path d="m-320 480 224 13.1765z"/><path d="m-96 493.1765 224 13.1764v37.6471h-224z"/><path d="m-96 544h224v26.3529l-224-13.1764z"/><path d="m128-192h-128-32-64 96z"/><path d="m128-208h-128v16h128 64v-16z"/><path d="m192-208h-64z"/><path d="m192-192h-64z"/><path d="m-320-208v16h192v-16z"/><path d="m-320-192v-16h192v16z"/><path d="m128-208h-128-96 96z"/><path d="m128-208h64v16h-64-128v-16z"/><path d="m-528 544h-224v-64h224z"/><path d="m-96-208h-32-192 192z"/><path d="m-96-192h-32 64 64z"/><path d="m-320 480h-208z"/><path d="m-320 480 224 13.1765z"/><path d="m-320 480v64h-208v-64z"/><path d="m-320 544v-64l224 13.1765v50.8235z"/><path d="m-320 544h224v13.1765z"/><path d="m-64-208h-64 32 96z"/><path d="m-64-192v-16h64v16z"/><path d="m-64-208v16h-64v-16z"/></g></defs><path d="m-1120-1184h1920v1920h-1920z" fill="#fff"/><g stroke="#000"><use fill="none" stroke-miterlimit="0" stroke-width="15" xlink:href="#a"/><use fill="#fff" xlink:href="#a"/></g></svg>