<svg viewBox="-2280 -1928 576 3144" xmlns="http://www.w3.org/2000/svg" xmlns:xlink="http://www.w3.org/1999/xlink"><defs><g id="a"><path d="m-2280-200v-120z"/><path d="m-2048-320v-96h112v96z"/><path d="m-1936-416h-112z"/><path d="m-2056-200h-136-88v-120h224z"/><path d="m-1832-200h-136-88v-120h8 112 104z"/><path d="m-1704-320v120h-40-88v-120z"/><path d="m-1704-200h-40z"/><path d="m-1704-200v-120z"/><path d="m-1704-320h-128-104 38.6667z"/><path d="m-2192-320h144-8-224z"/><path d="m-2048-320v-96z"/><path d="m-2192-320v120z"/><path d="m-2280-320v120h88v-120z"/><path d="m-2280-200h88z"/><path d="m-1744-200h-153.3333-38.6667-32 136z"/><path d="m-2280-200v-120z"/><path d="m-2048-320h-144z"/><path d="m-2280-200v-120h88v120z"/><path d="m-2192-200h144v-96-24h-232v120z"/><path d="m-1936-296h-112v96h80 32z"/><path d="m-1936-320v24 96h38.6667v-120z"/><path d="m-1936-320v-96 120z"/><path d="m-2048-320h-144-88z"/><path d="m-1936-320v-96z"/><path d="m-1968-200h-80-144 136z"/><path d="m-1897.3333-200h153.3333 40v-120h-193.3333z"/><path d="m-2192-200h-88z"/><path d="m-2056-1928h-224 104z"/><path d="m-2000-1928h-56z"/><path d="m-1952-1928h-32-192 120z"/><path d="m-1728-1928h-104-16-104 120z"/><path d="m-2280-1928v208z"/><path d="m-1704-1928v24z"/><path d="m-1704-1608v-72z"/><path d="m-1832-1704v-24-200h104 24v24 200z"/><path d="m-1704-1680h-128v-24h128z"/><path d="m-1848-1728v-200h16v200z"/><path d="m-2000-1720h-56z"/><path d="m-2056-1720h-224v-208h224z"/><path d="m-2000-1928v208h-56v-208z"/><path d="m-1984-1928h32 104v200 8h-136z"/><path d="m-1984-1928v208h-8-184v-208z"/><path d="m-2056-1680h-224v-8h160 64z"/><path d="m-1896-1688h48v8h-208v-8z"/><path d="m-1896-1688h-160-64 128z"/><path d="m-2280-1608v-72h224v224h-182.8333z"/><path d="m-2056-1456v224h-122.1665l-60.6668-224z"/><path d="m-2056-1232v224h-61.5l-15.1665-56-28.167-104-17.333-64z"/><path d="m-2056-1008v168h-16l-45.5-168z"/><path d="m-2056-1680h208 16v224h-224z"/><path d="m-1832-1456v224h-224v-224z"/><path d="m-1832-1232v96.6154l-19.3334 71.3846-15.1666 56h-189.5v-224z"/><path d="m-1866.5-1008-45.5 168h-40-104v-168z"/><path d="m-1832-1680h128v72l-41.1666 152h-86.8334z"/><path d="m-1745.1666-1456-17.3332 64-43.3336 160h-26.1666v-224z"/><path d="m-1805.8334-1232-17.3333 64-8.8333 32.6154v-96.6154z"/><path d="m-1745.1666-1456 41.1666-152-26 96-32.5 120h.0002z"/><path d="m-2221.5-1392 60.6665 224h.0002z"/><path d="m-2280 56v-88-136h104v120 16 88z"/><path d="m-2176 128h-104v-72h104z"/><path d="m-2056-168h-120-104v-32h224z"/><path d="m-2048-200h64v32h-8.1667-63.8333v-32z"/><path d="m-1808 56v-88-16-120h104v136 88z"/><path d="m-1704 128h-104v-72h104z"/><path d="m-1808-168v120h-128v-120z"/><path d="m-1984-168v30.1538l-8.1667-30.1538z"/><path d="m-1984-137.8462v-30.1538-32h48v32 120h-16-32z"/><path d="m-1808-168h-128v-32h232v32z"/><path d="m-1952 128h-120-104v-72-88h224z"/><path d="m-1808-32v88 72h-104-24.8333-15.1667v-160z"/><path d="m-2056-168h63.8333l.1667.6155 8 29.5383v89.8462h-192v-120z"/><path d="m-1984-200h-64v-88-8h112v8 88z"/><path d="m-2280-480v-32h224 8v96 120 8h-232z"/><path d="m-2048-288v88h-8-224v-56-32z"/><path d="m-1936-296v-120-96h104 128v32 192h-232z"/><path d="m-1704-288v32 56h-232v-88z"/><path d="m-1808-544v-120-16h80 24v136z"/><path d="m-1952-544h-104-120v-72-48h224z"/><path d="m-1808-664v120h-24-120v-120z"/><path d="m-2056-512h-224v-32h104 120z"/><path d="m-1832-512h-104-112-8v-32h104 120z"/><path d="m-1808-544h104v32h-128v-32z"/><path d="m-1936-416h-112v-96h112z"/><path d="m-2280-704v-136h104v160 16 48h-104z"/><path d="m-2176-616v72h-104v-72z"/><path d="m-2176-680v-160h104 16 104v160z"/><path d="m-1952-840h40 184v160h-80-144z"/><path d="m-1728-840h24v160h-24z"/><path d="m-1952-32h-224 128z"/><path d="m-1704-512v-32-136 16 168 16z"/><path d="m-1704-680v-160z"/><path d="m-2280-256v56 32 136-16z"/><path d="m-2280-480v192 32-16z"/><path d="m-2280-704v88 72 32 32-16-168-16z"/><path d="m-1808-680h-128-16z"/><path d="m-1936-48h128-80-48-16z"/><path d="m-1952-664h-224 128z"/><path d="m-1936-416h-112z"/><path d="m-2048-296h112z"/><path d="m-2048-416v96 24z"/><path d="m-1704 1216h-56z"/><path d="m-1704 1216v-208z"/><path d="m-1704 968v-64-8 80z"/><path d="m-2280 992v136 88-200z"/><path d="m-2056 1216h-96v-88-112h16 136v200z"/><path d="m-2136 1016v-8h136v8z"/><path d="m-1760 1216h-224v-208h224z"/><path d="m-1704 1008v208h-56v-208z"/><path d="m-1912 976h-80-144v-8h208 16z"/><path d="m-1704 968v8h-160-48v-8z"/><path d="m-2219.3333 672 25.9998-96 32.5002-120h8.8333v224h-69.5z"/><path d="m-2152 680v224h-128v-8l58.5-216z"/><path d="m-2152 904v64 48 112h-128v-136-24-64z"/><path d="m-2152 1128v88h-128v-88z"/><path d="m-2152 680v-224h215.1667 8.8333v224z"/><path d="m-2152 904v-224h224v224z"/><path d="m-1928 968h-208-16v-64h224z"/><path d="m-1823.1667 456 32.5002 120 26 96 2.1665 8h-165.5v-224z"/><path d="m-1762.5 680 58.5 216v8h-224v-224z"/><path d="m-1704 904v64h-208-16v-64z"/><path d="m-2132.6667 352 60.6667-224h120 15.1667v224z"/><path d="m-2152 456h-8.8333l28.1666-104h195.8334v104z"/><path d="m-1936.8333 128h24.8333l60.6666 224h-85.4999z"/><path d="m-1851.3334 352 28.1667 104h-104.8333-8.8333v-104z"/><path d="m-2132.6667 352-28.1666 104-32.5002 120h.0002z"/><path d="m-1912 128 28.1666 104 32.5 120z"/><path d="m-1896-864h-96v16h96z"/><path d="m-1992-864h-88v16h88z"/><path d="m-1992 136h-96v16h96z"/><path d="m-1904 136h-88v16h88z"/><path d="m-1992-1720h-64-120z"/><path d="m-1992 1008h184v208h-184-8v-200-8z"/><path d="m-2056-1720h-120-104z"/><path d="m-2056-1720h56v-208h-56-120v208z"/><path d="m-1704 128h-128-80 104z"/><path d="m-2280-1688v8 72z"/><path d="m-1704-1680v72z"/><path d="m-1992-1720h8 136z"/><path d="m-2120-1688h-160z"/><path d="m-1704-840v160z"/><path d="m-1704 128v-72-88z"/><path d="m-2280-32v88 72z"/><path d="m-2280 1216h128 96z"/><path d="m-2056 1216h56 8z"/><path d="m-1704 896v80z"/><path d="m-2280 896v8 64z"/><path d="m-1704 896-58.5-216-2.1665-8h-.0001z"/><path d="m-2219.3333 672-2.1667 8-58.5 216z"/><path d="m-2219.3333 672 25.9998-96h.0002-.0002z"/><path d="m-2136 976v-8z"/><path d="m-1992 1008h-8-136z"/><path d="m-1864 976h160z"/><path d="m-1864 976h-128 80z"/><path d="m-2136 976h144z"/><path d="m-1848-1688v8z"/><path d="m-1992-1688h-128v8h128z"/><path d="m-1848-1688h-48z"/><path d="m-1864 968h-128v8h128z"/><path d="m-1992 976h-64-80z"/><path d="m-2176-1928h-104v208h104z"/><path d="m-1760 1216h-48-176z"/><path d="m-1808 1008h48-224z"/><path d="m-1760 1008h56z"/><path d="m-1704 1008h-56-48v208h48 56z"/><path d="m-1808 1216v-208h-176v208z"/><path d="m-2280-840h208-104z"/><path d="m-1704-1928h-24z"/><path d="m-2056-1928h-120-104z"/><path d="m-1832-1928h-120-104z"/><path d="m-1992-1720h-64z"/><path d="m-2280-1720v-208h104v208z"/><path d="m-1936-32h128-144z"/><path d="m-1704-256v208 16-136-32z"/><path d="m-1704-480v208 16-32z"/><path d="m-1704-664v168z"/><path d="m-2280-272v16 208-152z"/><path d="m-2280-496v16 208-16z"/><path d="m-2280-840v136z"/><path d="m-2280-680h104 128-8z"/><path d="m-1952-680h-96-128z"/><path d="m-2048-680h96 16z"/><path d="m-2176-48h-48-56v16h104z"/><path d="m-1704-48h-104v16h104z"/><path d="m-2176-680h-104v16h104z"/><path d="m-1704-680h-104v16h104z"/><path d="m-1936-664h-16-96z"/><path d="m-2176-664h-104 56 128 48z"/><path d="m-1808-48h104-56-128z"/><path d="m-2176-48h128-48-128z"/><path d="m-1952-48h-96-128 192z"/><path d="m-1808-680v16z"/><path d="m-1936-664h48 80-144z"/><path d="m-2176-664v-16z"/><path d="m-1808-48v16z"/><path d="m-2176-32v-16z"/><path d="m-1704-32v160z"/><path d="m-1992 1216h-64z"/><path d="m-1808 1216h-184z"/><path d="m-1704 1216h-64z"/><path d="m-1768 1008h-40-184 160z"/><path d="m-1808 1008h-184z"/><path d="m-1768 1008h64v208h-64-40v-208z"/><path d="m-2072 128h-208 104z"/><path d="m-1823.1666-1168-8.8334 32.6154-19.3333 71.3846h-.0001l19.3334-71.3846 8.8333-32.6154z"/><path d="m-1762.5-1392-28.1666 104-32.5 120h-.0001l17.3333-64 43.3336-160z"/><path d="m-1704-1608-26 96z"/><path d="m-1823.1666-1168h-48.8334z"/><path d="m-1790.6666-1288h-81.3334v120h48.8334z"/><path d="m-2112-1288h-81.3333l32.5 120h48.8333z"/><path d="m-2193.3333-1288h81.3333z"/><path d="m-2254-1512 32.5 120 28.1667 104z"/><path d="m-2254-1512-26-96 41.1667 152 17.3333 64z"/><path d="m-1760-656v-8h-128v8z"/><path d="m-1704-664h-56z"/><path d="m-1760-664h56-104-80z"/><path d="m-1888-664h-48 16z"/><path d="m-2224-664v8h128v-8z"/><path d="m-1760-48v-8h-128v8z"/><path d="m-1760-48h56z"/><path d="m-2048-432v152z"/><path d="m-1936-432h-112v152h112z"/><path d="m-1888-48h-32-16z"/><path d="m-2048-48h96 16z"/><path d="m-2048-48h-16-32z"/><path d="m-2096-48v-8h-128v8z"/><path d="m-2224-48h-56z"/><path d="m-1790.6666 576h-81.3334z"/><path d="m-1823.1666 456h-48.8334v120h81.3334z"/><path d="m-2112 456h-48.8333l-32.5 120h81.3333z"/><path d="m-2160.8333 456h48.8333z"/><path d="m-2100.1667 232-32.5 120-28.1666 104 28.1668-104 32.5-120z"/><path d="m-1912 128 28.167 104h-.0004z"/><path d="m-2100.1667 232 28.1667-104-60.6667 224z"/><path d="m-1851.3334 352 28.1668 104 32.5 120h.0001l-32.5002-120z"/><path d="m-1790.6666 576 19.3332 71.3846 6.6668 24.6154h.0001l-26-96z"/><path d="m-1704-1904v176 48-24z"/><path d="m-1832-1680h-16z"/><path d="m-1832-1728v24 24z"/><path d="m-1704-1728h-128v48h128z"/><path d="m-1832-1728h-16z"/><path d="m-2048-280v80z"/><path d="m-1936-432v-80z"/><path d="m-1936-432v152z"/><path d="m-2048-280h112v80h-112z"/><path d="m-2048-432h112v152h-112z"/><path d="m-1936-432h-112v-80h112z"/><path d="m-2280 968v24z"/><path d="m-2280 968v-72z"/><path d="m-2152 968h16z"/><path d="m-2152 1016h16z"/><path d="m-2280 992v24h128v-48h-128z"/><path d="m-2152 1016v-48z"/><path d="m-1730-1512-32.5 120-28.1666 104 28.1666-104z"/><path d="m-1730-1512 26-96-58.5 216z"/><path d="m-2112-1168h-48.8333z"/><path d="m-2112-1288v120z"/><path d="m-1872-1288h81.3334z"/><path d="m-1872-1168v-120z"/><path d="m-1823.1666-1168h-48.8334v-120h81.3334z"/><path d="m-2112-1168h-48.8333l-32.5-120h81.3333z"/><path d="m-2221.5-1392 28.1667 104 32.5 120z"/><path d="m-2280-1608 26 96z"/><path d="m-2112 576h-81.3333z"/><path d="m-1790.6666 576h-81.3334v-120h48.8334z"/><path d="m-2112 576h-81.3333l32.5-120h48.8333z"/><path d="m-1883.833 232-28.167-104 60.6666 224h.0001z"/><path d="m-2132.6665 352-60.6668 224h-.0002l60.6668-224z"/><path d="m-1872 456h48.8334z"/><path d="m-2072 128-28.1667 104h.0002z"/><path d="m-1883.833 232 32.4997 120 28.1667 104-28.1668-104-32.5-120z"/><path d="m-1872 576v-120z"/><path d="m-2112 456v120z"/><path d="m-1704-1680h-128z"/><path d="m-1848-1728v8z"/><path d="m-1848-1720v-8h16v8z"/><path d="m-1704-1680h-128v-8h128z"/><path d="m-1832-1720v-8h128v8z"/><path d="m-1832-1680h-16v-8h16z"/><path d="m-1832-1728h128z"/><path d="m-1848-1720h-144z"/><path d="m-2280 1016v200z"/><path d="m-2280 968h128z"/><path d="m-2136 1016v-8z"/><path d="m-2136 1008h80 64z"/><path d="m-2152 976v-8h16v8z"/><path d="m-2152 1016h-128v-8h128z"/><path d="m-2280 976v-8h128v8z"/><path d="m-2136 1016h-16v-8h16z"/><path d="m-2152 1016h-128z"/><path d="m-1704 128h-128z"/><path d="m-1912-840h80 128-24z"/><path d="m-2056-840h-16-208z"/><path d="m-1832-840h-80-144z"/><path d="m-2072-840-26-96-34.6665-128 15.1665 56z"/><path d="m-1888-664v8z"/><path d="m-1936-664v152h16v-152z"/><path d="m-1936-664h-112v152h112z"/><path d="m-2064-664h16-48z"/><path d="m-2064-664v152h16v-152z"/><path d="m-2048-512v80z"/><path d="m-1936-200v-80z"/><path d="m-1936-512h-112v80h112z"/><path d="m-2048-200h112v-80h-112z"/><path d="m-1920-48h32z"/><path d="m-2064-200v152z"/><path d="m-2048-48h112 16v-152h-16-112-16v152z"/><path d="m-2096-48v-8z"/><path d="m-2280 128v-160z"/><path d="m-2056 128h-16l-60.6667 224h76.6667z"/><path d="m-1912 128h-144v224h204.6666z"/><path d="m-2072 128-28.1665 104-32.5 120h-.0002z"/><path d="m-1896-848h-96v-16h96z"/><path d="m-1992-848v-16z"/><path d="m-1896-864v16z"/><path d="m-1896-848h-96z"/><path d="m-1992-864h96z"/><path d="m-1992-848h-88v-16h88z"/><path d="m-2080-848v-16z"/><path d="m-1992-864v16z"/><path d="m-1992-848h-88z"/><path d="m-2080-864h88z"/><path d="m-1992 152h-96v-16h96z"/><path d="m-1992 136v16z"/><path d="m-2088 152v-16z"/><path d="m-2088 136h96z"/><path d="m-1992 152h-96z"/><path d="m-1904 152h-88v-16h88z"/><path d="m-1904 136v16z"/><path d="m-1992 152v-16z"/><path d="m-1992 136h88z"/><path d="m-1904 152h-88z"/><path d="m-2098-936 26 96h16v-96z"/><path d="m-2056-936v96h144l26-96z"/><path d="m-2048-32h112-16z"/><path d="m-1936-680h128 104-128z"/><path d="m-1936-512h16z"/><path d="m-2048-512v-152z"/><path d="m-1936-664h-112v-16h112z"/><path d="m-1936-512h-112v-152h112z"/><path d="m-2048-200h-16z"/><path d="m-2048-200h112v152h-112z"/><path d="m-1936-200v152z"/><path d="m-1936-32v-16z"/><path d="m-2048-48v16z"/><path d="m-1936-32h-112v-16h112z"/><path d="m-1851.3333-1064-34.6667 128-26 96 45.5-168 15.1666-56z"/><path d="m-2132.6665-1064-28.1668-104h-.0002z"/><path d="m-2132.6667 352-60.6668 224h137.3335v-224z"/><path d="m-2056 352v224h224v-152.6154l-19.3334-71.3846z"/><path d="m-1851.3334 352 19.3334 71.3846 41.3334 152.6154-32.5-120-28.1667-104z"/><path d="m-1992-1680h-128z"/><path d="m-2120-1688v8z"/><path d="m-1992-1688v8z"/><path d="m-1992-1688h144-48z"/><path d="m-1992-1680h-128v-8h128z"/><path d="m-1992-1688h-128 64z"/><path d="m-2158.6665-1160 26 96 34.6665 128h42v-224z"/><path d="m-2056-1160v224h170l34.6667-128 19.3333-71.3846v-24.6154z"/><path d="m-1832-1160v24.6154l6.6666-24.6154z"/><path d="m-1992 968h128z"/><path d="m-1864 976v-8z"/><path d="m-1992 976v-8z"/><path d="m-1864 976h-128v-8h128z"/><path d="m-1992 976h128z"/><path d="m-2193.3335 576-60.6665 224h198v-224z"/><path d="m-2056 576v224h224v-152.6154-71.3846z"/><path d="m-1771.3334 647.3846-19.3332-71.3846-41.3334-152.6154v152.6154 71.3846z"/><path d="m-2219.3333-1384 58.5 216 2.1668 8h102.6665v-224z"/><path d="m-2056-1384v224h224v-224z"/><path d="m-1832-1384v224h6.6666l60.6665-224z"/><path d="m-1764.6666 672 60.6666 224z"/><path d="m-1762.5-1392-2.1669 8-58.4997 216 32.5-120z"/><path d="m-1762.5-1392 58.5-216h-128v224h67.3331z"/><path d="m-1888-656h128z"/><path d="m-1760-656h-128v-8h128z"/><path d="m-1760-656v-8z"/><path d="m-1888-664h-32z"/><path d="m-2224-664v8z"/><path d="m-2096-664h32z"/><path d="m-2096-656v-8z"/><path d="m-2224-656h128z"/><path d="m-2096-656h-128v-8h128z"/><path d="m-1888-56v8z"/><path d="m-1760-56h-128z"/><path d="m-1760-48h-128v-8h128z"/><path d="m-1760-48h56-184z"/><path d="m-1760-48v-8z"/><path d="m-2224-56v8z"/><path d="m-2064-48h-32z"/><path d="m-2096-48h32-160z"/><path d="m-2096-56h-128z"/><path d="m-2096-48h-128v-8h128z"/><path d="m-2254 800-26 96h224v-96z"/><path d="m-2056 800v96h224v-24.6154-71.3846z"/><path d="m-1710.6666 871.3846-60.6668-224h-60.6666v152.6154 71.3846z"/></g><g id="b"><path d="m-2056 128h-224 208z"/><path d="m-1832 128h-224 144z"/><path d="m-1704-840h-128z"/><path d="m-1704-1928h-24-104z"/><path d="m-2280-1720v-208z"/><path d="m-2280-1688v80z"/><path d="m-1704-1928v200-176z"/><path d="m-1704-1688v8z"/><path d="m-1704-1728v8z"/><path d="m-2056-1928h-224v208h224z"/><path d="m-1832-1928h-224v208h64 144 16z"/><path d="m-1704-1720v-8-200h-128v208z"/><path d="m-2056-1688h-64-160v80h224z"/><path d="m-1832-1688h-16-144-64v80h224z"/><path d="m-1704-1680v-8h-128v80h128z"/><path d="m-1832-1720h128z"/><path d="m-1832-1720h-16z"/><path d="m-1704-1688h-128z"/><path d="m-1848-1688h16z"/><path d="m-2056-1720h-224 104z"/><path d="m-2280-1688h160z"/><path d="m-2056-1608h-224l60.6667 224h163.3333z"/><path d="m-1832-1608h-224v224h224z"/><path d="m-2280-1608 26 96 32.5 120z"/><path d="m-1832-32h128-104-128z"/><path d="m-2280-32h224 8-128z"/><path d="m-1704-272v176 48-208z"/><path d="m-1704-496v56 120 48-208z"/><path d="m-2280-512v-152 168z"/><path d="m-2280-680v-160 136z"/><path d="m-2056-840h-224v160h224z"/><path d="m-1832-840h-224v160h8 112 104z"/><path d="m-1704-680v-160h-128v160z"/><path d="m-2064-200h-216v152h56 160z"/><path d="m-1936-320v88 32h16v-120z"/><path d="m-1704-272v-48h-184-32v120 104h216z"/><path d="m-1920-96v48h32 184v-48z"/><path d="m-2048-456v-56h-16-216v16 208h232z"/><path d="m-2280-288v16 72h216 16v-32-56z"/><path d="m-2064-512v-152h-160-56v152z"/><path d="m-1920-512h-16v56 136h16 32v-120-72z"/><path d="m-1936-512v-152-16h-112v16 152 56h112z"/><path d="m-2048-456v168 56h112v-88-136z"/><path d="m-2048-232v32 152 16h112v-16-152-32z"/><path d="m-1920-664v152h32v-152z"/><path d="m-1704-496v-168h-184v152 72h184z"/><path d="m-1888-440v120h184v-120z"/><path d="m-2064-512h16z"/><path d="m-1936-512v-152z"/><path d="m-1936-680v16z"/><path d="m-1704-664h-56-128z"/><path d="m-1920-512v-152z"/><path d="m-2048-664v-16z"/><path d="m-2064-664h-32-128z"/><path d="m-2064-512v-152z"/><path d="m-2280-664h56z"/><path d="m-1920-200h-16z"/><path d="m-1920-96v-104 152z"/><path d="m-2048-200v152z"/><path d="m-2056-32h-224v160h224z"/><path d="m-1832-32h-104-112-8v160h224z"/><path d="m-1704 128v-160h-128v160z"/><path d="m-2056 1216h-224z"/><path d="m-1768 1216h-64-160 184z"/><path d="m-1704 1008v208z"/><path d="m-2280 976v-8z"/><path d="m-2280 1016v-8z"/><path d="m-2056 1008h-80-16-128v8 200h224z"/><path d="m-1832 1008h-160-64v208h64 160z"/><path d="m-1768 1216h64v-208h-64-64v208z"/><path d="m-2056 896h-224v72 8h128 16 80z"/><path d="m-1832 896h-224v80h64 128 32z"/><path d="m-1704 896h-128v80h128z"/><path d="m-1832 896h128l-6.6666-24.6154h-121.3334z"/><path d="m-2280 896 26-96 34.6667-128z"/><path d="m-1704 1008h-64z"/><path d="m-1704 976h-128-32z"/><path d="m-2152 1008h16z"/><path d="m-2152 1008h-128z"/><path d="m-2136 976h-16z"/><path d="m-2280 976h128z"/></g></defs><g stroke="#000"><use fill="none" stroke-miterlimit="0" stroke-width="10" xlink:href="#a"/><use fill="#d9d9d9" xlink:href="#a"/><use fill="none" stroke-miterlimit="0" stroke-width="10" xlink:href="#b"/><use fill="#fff" xlink:href="#b"/></g></svg>