<svg viewBox="-598 -886 1900.35559082 1804" xmlns="http://www.w3.org/2000/svg" xmlns:xlink="http://www.w3.org/1999/xlink"><defs><g id="a"><path d="m304 320-16 16h-64l-16-16v-64l16-16h64l16 16z"/><path d="m-240-512-16 16h-64l-16-16v-64l16-16h64l16 16z"/><path d="m288 240h-64z"/><path d="m-256-592h-64z"/><path d="m-240-576-16-16z"/><path d="m-320-592-16 16z"/><path d="m-240-512v-64z"/><path d="m-256-496 16-16z"/><path d="m224 240h64z"/><path d="m224 336h64z"/><path d="m304 320v-64z"/><path d="m208 256v64z"/><path d="m224 240-16 16z"/><path d="m304 256-16-16z"/><path d="m288 336 16-16z"/><path d="m208 320 16 16z"/><path d="m-320-496h64z"/><path d="m-336-576v64z"/><path d="m-336-512 16 16z"/><path d="m384-656 16 16v64h-96v-64l16-16z"/><path d="m400-576-16 16h-64l-16-16z"/><path d="m384-560h-64z"/><path d="m400-576v-64z"/><path d="m304-640v64z"/><path d="m384-656h-64z"/><path d="m320-656-16 16z"/><path d="m400-640-16-16z"/><path d="m-448-320v64 160-160z"/><path d="m864-352v-160 224z"/><path d="m640-576h-64-160 32 32z"/><path d="m304-576v-64z"/><path d="m-320-592-16 16h-16l32-32z"/><path d="m-320-592v-16h64v16z"/><path d="m-224-576h-16l-16-16v-16z"/><path d="m-256-608h-64z"/><path d="m-320-592h64z"/><path d="m-256-592 16 16z"/><path d="m-336-576 16-16z"/><path d="m-256-320v32z"/><path d="m-256 0v64 160z"/><path d="m672 224h32-128z"/><path d="m-96-192v32z"/><path d="m768-448v-128h32l64 64v160h-64l-32-32z"/><path d="m864-352v64l-64-64z"/><path d="m576-576h64 128v128h-64z"/><path d="m768-448v64l-32-32-32-32z"/><path d="m32 0v64 160z"/><path d="m256 64h-32v-64h32 32v64z"/><path d="m224 64h-192v-64h192z"/><path d="m256 224h-32-192v-160h192 32z"/><path d="m288 64v160h-32v-160z"/><path d="m352 16v208h-64v-160-64h64z"/><path d="m32-96h160 64v96h-32-192z"/><path d="m256-96h16 80v64 32h-64-32z"/><path d="m32-96v-64l32-32h128v96z"/><path d="m32-448h32v64h-32z"/><path d="m272-192v96h-16-64v-96-32h64 16z"/><path d="m272-224h48v32h-48z"/><path d="m272-192h48 32v96h-80z"/><path d="m256-448h-192-32v-128h64 32 128z"/><path d="m288-576 32 32 32 32v64h-64-32v-128z"/><path d="m480 96v128h-128v-208h128z"/><path d="m512 224v-32l32 32z"/><path d="m512 16v80h-32v-80z"/><path d="m736 96h-32-32v-32h64z"/><path d="m672 96h32v128h-32z"/><path d="m736 96h96v128h-128v-128z"/><path d="m832 96h-96v-32-48h32 64z"/><path d="m832 96v-80h32v144 64h-32z"/><path d="m672 0h64v16 48h-64z"/><path d="m512 96v-80-16h64 96v64 32 128h-96l-64-64z"/><path d="m352-96v-96h96l32 32v128h-128z"/><path d="m512-96 128-128 32-32v96 128h-96-64z"/><path d="m512-160h32l-32 32z"/><path d="m512-160-64-64h160l-64 64z"/><path d="m640-256-32 32h-160-32l128-128h64l32 32z"/><path d="m576 0h-64-160v-32h128 32 64z"/><path d="m672-32h96v32h-32-64-96v-32z"/><path d="m352 0h160v16h-32-128z"/><path d="m736 16v-16h32v16z"/><path d="m384-544-32 32-32-32z"/><path d="m672-256v-64-64h64 32v224h-96z"/><path d="m768-160v128h-96v-128z"/><path d="m608-384h64v64z"/><path d="m256-224h-64-160v-160h32 192z"/><path d="m480-320-96 96h-64-48-16v-160h32 192z"/><path d="m512-384h32l-64 64v-64z"/><path d="m288-384h-32-192v-64h192 32z"/><path d="m512-384h-32-192v-64h64 160z"/><path d="m736-384h-64-64-64-32v-64h64 128l32 32z"/><path d="m768-384h-32v-32z"/><path d="m512-448h-160v-64l32-32 32-32h160v128z"/><path d="m576-576 128 128h-128z"/><path d="m800-352 64 64v128h-96v-224z"/><path d="m864-160v96 80h-32-64v-16-32-128z"/><path d="m608-384h-64z"/><path d="m416-224h32z"/><path d="m384-224h-64z"/><path d="m480-320 64-64-96 96-64 64z"/><path d="m608-224 32-32z"/><path d="m512-160v32z"/><path d="m512-96v64z"/><path d="m640-224-128 128 64-64z"/><path d="m512 192v32z"/><path d="m512 192 32 32z"/><path d="m480 224v-128z"/><path d="m384-560h-64z"/><path d="m32-224h160-128z"/><path d="m384-560 16-16z"/><path d="m304-576 16 16z"/><path d="m32-224-128-128v-32h32 64 32z"/><path d="m32-448h-32-64v-32-32-32l32-32h64z"/><path d="m0-384v-64h32v64z"/><path d="m0-448v64h-64v-64z"/><path d="m-96-512 32-32v32z"/><path d="m-96-480h32v32 64h-32z"/><path d="m-64-512v32h-32v-32z"/><path d="m32-224-128-128z"/><path d="m32-192-32 32h-96v-32z"/><path d="m0-160h-96z"/><path d="m-240-512v-64h16v64z"/><path d="m-224-512v-64z"/><path d="m-240-576v64z"/><path d="m-224 64h-32v-64h32z"/><path d="m-256 224v-160h32 64 32v160z"/><path d="m-128 64h-32v-64h32z"/><path d="m-224 64v-64h64v64z"/><path d="m-256-64v-32-96h96 32v32 160h-32-64-32z"/><path d="m-160-352v32h-96v-32z"/><path d="m-160-320v128h-96v-64-32-32z"/><path d="m-160-192v-128-32h32v160z"/><path d="m-128-480v32h-128v-32z"/><path d="m-256-448h128v64 32h-32-96z"/><path d="m-240-512h16l-32 32v-16z"/><path d="m-96-480h-32-128l32-32h96 32z"/><path d="m-128-448v-32h32v96h-32z"/><path d="m-128-192v-160-32 96 128z"/><path d="m-128 0v-160 224z"/><path d="m-240-512-16 16z"/><path d="m832 288h32-96z"/><path d="m864 224v64h-32v-64z"/><path d="m832 224v64h-64l-64-64z"/><path d="m768 288-64-64z"/><path d="m192 320v-64h16v64z"/><path d="m304 320v-64h16v64z"/><path d="m288 352v-16l16-16h16z"/><path d="m208 320 16 16v16l-32-32z"/><path d="m224 352v-16h64v16z"/><path d="m224 240v-16h32 32v16z"/><path d="m32 224h192l-32 32h-128z"/><path d="m224 224v16l-16 16h-16z"/><path d="m288 240v-16l32 32h-16z"/><path d="m352 224h128l-32 32h-128l-32-32z"/><path d="m192 320v-64z"/><path d="m320 256v64z"/><path d="m448 256h-128z"/><path d="m224 352h64z"/><path d="m224 352-32-32z"/><path d="m192 256h-128z"/><path d="m288 336h-64z"/><path d="m304 256v64z"/><path d="m208 320v-64z"/><path d="m208 256 16-16z"/><path d="m288 240 16 16z"/><path d="m304 320-16 16z"/><path d="m224 336-16-16z"/><path d="m-256 224h128v64h-128z"/><path d="m-128 224v64z"/><path d="m-320-352h32z"/><path d="m-448-448h160 32v96h-32-32-128z"/><path d="m-256-448h-32l-32-32h64z"/><path d="m-448-448v-32l32-32h64l32 32 32 32z"/><path d="m-352-512v-64h16v64z"/><path d="m-352-512h16l16 16v16z"/><path d="m-320-480v-16h64v16z"/><path d="m-352-576v64z"/><path d="m-256-496h-64z"/><path d="m-336-512v-64z"/><path d="m-320-496-16-16z"/><path d="m-288-256h-32z"/><path d="m-288-256 32-32v32z"/><path d="m-352-288-16-16 16-16z"/><path d="m-416-256 48-48 16 16 32 32z"/><path d="m-448-256v-64-32h128l-32 32-16 16-48 48z"/><path d="m-256-320-32-32h32z"/><path d="m-352-288v-32z"/><path d="m-256-192v96h-32-160v-160h32 96 32 32z"/><path d="m-256-64-32-32h32z"/><path d="m864 288v32z"/><path d="m256-576h-128z"/><path d="m256-576h32z"/><path d="m256-639.5v63.5z"/><path d="m256-576h-128v-15.5l128-48z"/><path d="m-256 288v-64z"/><path d="m864 320h-96z"/><path d="m864 288v32h-96v-32z"/><path d="m-256 288h128z"/><path d="m-128 303.5v-15.5 8 8z"/><path d="m-256 288h128v15.5l-.3636.1364-127.6364 47.8636z"/><path d="m-128 303.5v.5l-.3636-.3636z"/><path d="m-128.3636 303.6364-127.6364 47.8636z"/><path d="m864 320v-32 64z"/><path d="m256-639.5v-4.7131-59.7869 96 32z"/><path d="m128.0372-604.3558 127.9628-39.8573v4.7131l-128 48v-12.8442z"/><path d="m255.75-704.25.25.25v59.7869l-127.9628 39.8573z"/><path d="m128-591.5v15.5z"/><path d="m256-639.5-128 48z"/><path d="m-256 288v63.5z"/><path d="m768 320v32z"/><path d="m768 320v-32z"/><path d="m864 352h-96z"/><path d="m864 320v32h-96v-32z"/><path d="m-128.3636 303.6364.3636.3636v13.7059l-3 2.2941-125 95.5882v-64.0882z"/><path d="m-128 304v-8 21.7059z"/><path d="m-128 317.7059-3 2.2941z"/><path d="m-128.3636 303.6364.3636.3636z"/><path d="m864 352v-64 96z"/><path d="m128.0372-604.3558-.0372.0116z"/><path d="m128-608h-.1262l.1262-.1688z"/><path d="m128-608v-.1688l95.5631-127.8312h.4369l31.75 31.75-127.7128 99.8942-.0372.0116z"/><path d="m128-608h-.1262z"/><path d="m255.75-704.25-127.7128 99.8942z"/><path d="m256-704-.25-.25z"/><path d="m-256 288v63.5 64.0882z"/><path d="m864 352v32h-96v-32z"/><path d="m864 384h-96z"/><path d="m-128 320h.1262z"/><path d="m-128 317.7059v-21.7059 24z"/><path d="m-131 320 3-2.2941v2.2941z"/><path d="m-256 416v-.4118l125-95.5882h3 .1262l-95.6893 128h-.4369z"/><path d="m-127.8738 320-95.6893 128z"/><path d="m-131 320-125 95.5882z"/><path d="m224-736h-.4369z"/><path d="m864 384v-96 128z"/><path d="m-224 448-32-32z"/><path d="m119.5-608h8.3738.1262z"/><path d="m223.5631-736-95.5631 127.8312-.1262.1688z"/><path d="m224-736 32 32-.25-.25z"/><path d="m167.5-736h56.0631l-95.6893 128h-8.3738z"/><path d="m768 288v32 32 32z"/><path d="m864 416h-96z"/><path d="m864 384v32h-96v-32z"/><path d="m-224 448h.4369z"/><path d="m-119.5 320h-8.3738-.1262z"/><path d="m-127.8738 320h8.3738l-48 128h-56.0631z"/><path d="m-119.5 320-48 128z"/><path d="m224-736h-.4369-56.0631z"/><path d="m864 416v-128 160z"/><path d="m112-608h7.5 8.5z"/><path d="m112-608v-128z"/><path d="m167.5-736-48 128h-7.5v-128z"/><path d="m167.5-736-48 128z"/><path d="m864 448h-96z"/><path d="m768 288v96 32z"/><path d="m864 416v32h-96v-32z"/><path d="m-224 448h.4369 56.0631z"/><path d="m-112 320v128z"/><path d="m-119.5 320h-8.5 16z"/><path d="m-119.5 320h7.5v128h-55.5z"/><path d="m-128 288h-48v32h48z"/><path d="m224-736h-56.5-55.5z"/><path d="m864 448v-160 192z"/><path d="m112-608h16-24.375z"/><path d="m96.3158-608h.2489z"/><path d="m112-608h-8.375l-48-128h56.375z"/><path d="m96.5647-608h-.2489l-.6393-.4717-.6959-.9309z"/><path d="m864 448v32h-96v-32z"/><path d="m864 480h-96z"/><path d="m768 288v128 32z"/><path d="m-56.0847 448h-39.9153z"/><path d="m-224 448h56.5 55.5z"/><path d="m-224 448h112 16z"/><path d="m-56.0847 448h-39.9153-16v-128h3.8475z"/><path d="m-112 320h-16z"/><path d="m-96-384v32z"/><path d="m320-192v-32z"/><path d="m512-32h-32z"/><path d="m480-32v-128z"/><path d="m512 96v64z"/><path d="m480 96h32z"/><path d="m480-32v48h32v-48z"/><path d="m192-192h-128z"/><path d="m320-224h-48v32h48z"/><path d="m192-224v32z"/><path d="m-128-512h32z"/><path d="m-128-384h32z"/><path d="m256-608h-48v32h48z"/><path d="m-208 288h-48v32h48z"/><path d="m224-736h-112-56.375z"/><path d="m864 480v-192 32 192z"/><path d="m96.3158-608h.2489 7.0603 24.375z"/><path d="m96.3158-608-.6393-.4717z"/><path d="m.3398-736h55.2852l48 128h-7.0603l-1.5841-1.4026z"/><path d="m95.6765-608.4717-.6959-.9309z"/><path d="m55.625-736 48 128z"/><path d="m94.9806-609.4026 1.5841 1.4026z"/><path d="m768 512v-32z"/><path d="m864 512h-96z"/><path d="m864 480v32h-96v-32z"/><path d="m-96 448h39.9153 55.7449z"/><path d="m-96.0291 320 .0291.039z"/><path d="m-108.1525 320h-3.8475z"/><path d="m-96 320.6214v29.2536l-12.1525-29.875h12.1234l.0291.039z"/><path d="m-56.0847 448-39.9153-98.125v-29.2536l.971.7164 94.6892 126.6622z"/><path d="m-96 320.6214.971.7164z"/><path d="m-96 349.875 39.9153 98.125-52.0678-128z"/><path d="m-112 320h-16z"/><path d="m480 48v48h32v-48z"/><path d="m240-224h-48v32h48z"/><path d="m-128-464h32v-48h-32z"/><path d="m-128-432v48h32v-48z"/><path d="m176-608h-48v32h48z"/><path d="m224-736h-168.375-55.2852z"/><path d="m-448-480v32 96 32z"/><path d="m-448-256v160z"/><path d="m864-512v128 96z"/><path d="m864-288v96 32 96-96z"/><path d="m864-64v64 160-144z"/><path d="m864 160v64 64-64z"/><path d="m-416-512-32 32z"/><path d="m-320-608-32 32z"/><path d="m864-512-64-64z"/><path d="m-32-576h64 32 32-64z"/><path d="m96-576h32z"/><path d="m704-576h96-32-128z"/><path d="m704-576h-64-160 96z"/><path d="m256-704v96z"/><path d="m256-608h-128v3.6558 28.3442h128z"/><path d="m-32-704 32-32h.3398l95.3367 127.5283-127.6765-94.2079z"/><path d="m128-608h128-159.6842z"/><path d="m-32-702.6796 127.6765 94.2079.6393.4717z"/><path d="m.3398-736 94.6408 126.5974.6959.9309z"/><path d="m128-604.3442v-3.6558z"/><path d="m128-604.3442v12.8442 15.5z"/><path d="m-256-608h-64z"/><path d="m-224-576-32-32z"/><path d="m-256-320v32z"/><path d="m-256 0v224z"/><path d="m-256-64v64z"/><path d="m-256 320v-32 127.5882.4118z"/><path d="m-256 320v96z"/><path d="m864 544h-96z"/><path d="m512 224h32z"/><path d="m-96-512v48z"/><path d="m-96-432v48z"/><path d="m-32-576-32 32-32 32z"/><path d="m768-384-96-96z"/><path d="m32-160v64 96z"/><path d="m32 0v224z"/><path d="m416-576-32 32z"/><path d="m512 192v32h32z"/><path d="m480 16v32h32v-32z"/><path d="m544-160h-32v32z"/><path d="m448-256v32l64 64h32l64-64 32-32v-64l-32-32h-64z"/><path d="m672-256h64v-64h-64z"/><path d="m416-224h32v-32z"/><path d="m736-192v-64h-64l-32 32-64 64h160z"/><path d="m384-224 64-64v-160h-128v224z"/><path d="m448-448v-96h-64l-64 64v32z"/><path d="m544-384v-64h-64-32v160z"/><path d="m384-544h64v-32h-32z"/><path d="m480-480v-96h-32v32 96h32z"/><path d="m544-448h64 64v-32h-192v32z"/><path d="m672-480v32l64 64h32z"/><path d="m736-384-64-64h-64v64l64 64h64z"/><path d="m608-384v-64h-64v64z"/><path d="m768-384h-32v64 64 64h32z"/><path d="m512 0v16 32 48 64l64 64h128 32v-224z"/><path d="m736-160h-160l-64 64v64 32h224z"/><path d="m736 0v224h128v-64-160z"/><path d="m864-64v-96h-128v160h128z"/><path d="m864-160v-32h-96-32v32z"/><path d="m768-192h96z"/><path d="m768-192v-192z"/><path d="m672-480h-192z"/><path d="m480 48v-32-48-128 160 64z"/><path d="m672-320v64z"/><path d="m640-320-32-32z"/><path d="m608-384 64 64z"/><path d="m640-256v-64z"/><path d="m672-256-32 32z"/><path d="m608-352h-64z"/><path d="m448-256 96-96-128 128z"/><path d="m544-160-32 32 32-32 64-64z"/><path d="m480-160-32-32z"/><path d="m448-224 64 64z"/><path d="m448-192h-96-32z"/><path d="m512 48v48z"/><path d="m512 0v-32 48z"/><path d="m512 160 64 64z"/><path d="m480 16v-48z"/><path d="m480 64v32-48z"/><path d="m512 16h-32z"/><path d="m480 48h32z"/><path d="m384-544h-64z"/><path d="m384-544h-64v64z"/><path d="m240-192h-48z"/><path d="m288-192h32-48z"/><path d="m288-192h-16-32-48-128z"/><path d="m320-192h-32z"/><path d="m192-224h48z"/><path d="m288-224h-16 48z"/><path d="m32-224h32v-224h-32z"/><path d="m64-448v-96-32h-32v128z"/><path d="m288-576h-32-128-32-32v32h224z"/><path d="m320-544-32-32v32z"/><path d="m64-448v224h128 48 32 16v-224z"/><path d="m288-544h-224v96h224z"/><path d="m288-448v224h32v-224z"/><path d="m320-480v-64h-32v96h32z"/><path d="m288-576 32 32z"/><path d="m272-192v-32z"/><path d="m240-192h32v-32h-32z"/><path d="m240-224v32z"/><path d="m64-192-32 32z"/><path d="m32-192h-128z"/><path d="m32-224v-224h-128v16 48 32z"/><path d="m32-448v-128h-64l-64 64v48 16z"/><path d="m0-160 32-32h-128v32z"/><path d="m0-160 32-32z"/><path d="m-224-512h96z"/><path d="m-224-512h96z"/><path d="m-128-464v32h32v-16-16z"/><path d="m-128-160v224z"/><path d="m-128-384v-48-32-48 128 96z"/><path d="m-128-464v-48z"/><path d="m-128-384v-48z"/><path d="m-128-432h32z"/><path d="m-96-464h-32z"/><path d="m-128 64v160z"/><path d="m448 256 32-32z"/><path d="m864 288v-64h-128-32l64 64z"/><path d="m768 320v-32 160 32z"/><path d="m864 320v-32h-96v32z"/><path d="m864 512v32h-96v-32z"/><path d="m192 320v-64z"/><path d="m448 256h-128z"/><path d="m224 352h64z"/><path d="m288 352 32-32z"/><path d="m224 352-32-32z"/><path d="m32 224 32 32z"/><path d="m-128 224v64z"/><path d="m-96 320.039-.0291-.039h.0291z"/><path d="m-128 296v-8h-128v32h128z"/><path d="m32 416-32 32h-.3398l-94.6892-126.6622 127.029 93.7302z"/><path d="m-96 448h95.6602.3398-224z"/><path d="m32 415.068-127.029-93.7302-.971-.7164z"/><path d="m-.3398 448-94.6892-126.6622z"/><path d="m-96.0291 320h-12.1234-3.8475z"/><path d="m-96 320.6214v-.5824z"/><path d="m-128 288v8z"/><path d="m-320-352h32z"/><path d="m-352-512h-64z"/><path d="m-352-576v64z"/><path d="m-288-256h-32z"/><path d="m-352-288v-32z"/><path d="m-320-256-32-32z"/><path d="m-352-320 32-32z"/><path d="m-352-320 32-32z"/><path d="m-288-352 32 32z"/><path d="m-288-352 32 32z"/><path d="m-256-288-32 32z"/><path d="m-256-288-32 32z"/><path d="m-448-96h160z"/><path d="m-448-96h160z"/><path d="m-288-96 32 32z"/><path d="m-288-96 32 32z"/><path d="m-128 288v32z"/><path d="m-176 320v-32z"/><path d="m-128 320h-48v-32h48z"/><path d="m-128 320h-48z"/><path d="m-176 288h48z"/><path d="m-256 320v-32z"/><path d="m-208 288v32z"/><path d="m-208 320h-48v-32h48z"/><path d="m-208 320h-48z"/><path d="m-256 288h48z"/><path d="m176-608v32z"/><path d="m128-576v-32z"/><path d="m176-576h-48z"/><path d="m128-608h48z"/><path d="m176-576h-48v-32h48z"/><path d="m208-576v-32z"/><path d="m256-608v32z"/><path d="m256-576h-48z"/><path d="m208-608h48z"/><path d="m256-576h-48v-32h48z"/><path d="m864 576h-96z"/><path d="m-32-704v1.3204z"/><path d="m96-592h-.6667z"/><path d="m96.3158-608h159.6842-128-32z"/><path d="m-32-704 32-32z"/><path d="m-32-702.6796 128.3158 94.6796h-.3158-43.3333l-84.6667-31.75z"/><path d="m96-608v16z"/><path d="m96-592h-.6667l-42.6666-16h43.3333z"/><path d="m32 416v-.932z"/><path d="m768 320v160 32 32z"/><path d="m-96 320.6214v-.5824-.039z"/><path d="m-96 320v-12.7769z"/><path d="m-96 307.2231 128 45.4877z"/><path d="m32 416-32 32z"/><path d="m-96 320v-12.7769l128 45.4877v62.3572l-128-94.4466z"/><path d="m768 544v32z"/><path d="m864 544v32h-96v-32z"/><path d="m992 352v-128-96 32 96z"/><path d="m992 576v-128-96 128z"/><path d="m992 64v-64 128z"/><path d="m832 768h128-224z"/><path d="m224-736h-223.6602-.3398z"/><path d="m-448-320v-160 160 64z"/><path d="m-448-320v64 160z"/><path d="m768-192h96v32h-128v-32z"/><path d="m640-32v-128h96 128v224h-224z"/><path d="m864 64v160h-128-96v-96-32-32z"/><path d="m864-160h128v128 32 64h-128z"/><path d="m992 64v64 96h-96-32v-160z"/><path d="m736-288v-64-32h32v192h-32z"/><path d="m480-448h192v96h-96-128v-96z"/><path d="m672-448 64 64v32h-64z"/><path d="m768-384h-32l-64-64v-32z"/><path d="m672-480v32h-192v-32z"/><path d="m384-672v16h-64v-16z"/><path d="m448-544v-32h32v96 32h-32z"/><path d="m448-544h-64l32-32h32z"/><path d="m384-544v-16l16-16h16z"/><path d="m384-656v-16l32 32h-16z"/><path d="m384-560v16h-32-32v-16z"/><path d="m400-576v-64h16v64z"/><path d="m352-448v-96h32 64v96 96h-96z"/><path d="m672-352h64v64h-96l-64-64z"/><path d="m640-256v-32h96v96 32h-96z"/><path d="m608 64v-96h32v96 32h-32z"/><path d="m448-192v-32l64 64h-32z"/><path d="m448-320v96h-160v-96z"/><path d="m448-224v-96h64 64l32 32v128h-96z"/><path d="m288-192h-224v-32h128 96z"/><path d="m448-224v32h-128-32v-32z"/><path d="m512 0v64 160h-32v-160-64z"/><path d="m480-160h32v160h-32z"/><path d="m512 0v-160h96v96 32 96h-96z"/><path d="m608 64v32 128h-96v-160z"/><path d="m896 384v-96-64h96v128 96h-96z"/><path d="m992 448v128 32h-96v-160z"/><path d="m992 736h-96v-64h96z"/><path d="m896 736h96l-32 32h-128v-32z"/><path d="m864 608h32 96v64h-96-64v-64z"/><path d="m864 224h32v64h-32-96-32v-64z"/><path d="m896 384v64 160h-32v-32-32-160z"/><path d="m864 320v-32h32v96h-32z"/><path d="m896 672v64h-64v-64z"/><path d="m864 288v32h-96v-32z"/><path d="m864 576v32h-32-64v-32z"/><path d="m768 384v160 32 32h-32v-96-64-32-32z"/><path d="m736 288h32v32 64h-32z"/><path d="m736 224v64 96 32h-96v-64-128z"/><path d="m640 352v64h-64z"/><path d="m448 256 32-32h32l-64 64z"/><path d="m448 416v-32h96v32z"/><path d="m608 320v32l-32 32h-32-96v-96l64-64h96z"/><path d="m576 512v-64h64v64z"/><path d="m736 512h-96v-64h96z"/><path d="m576 416h64 96v32h-96-64z"/><path d="m576 512h64 96v96h-96l-64-64z"/><path d="m832 672v64 32h-96-64l-32-32v-128h96 32 64z"/><path d="m544 416h32v32 64 32h-32-64l-32-32v-96z"/><path d="m288-640h16v64h-16z"/><path d="m320-656-16 16h-16l32-32z"/><path d="m96-576h32 128 32v32h-224v-32z"/><path d="m288-576 32 32h-32z"/><path d="m288-448h-96-128v-96h224z"/><path d="m320-544h32v96h-64v-96z"/><path d="m288-576h16l16 16v16z"/><path d="m-32-608v-31.75l127.3333 47.75h-127.3333z"/><path d="m-32-576h96v32 96 96h-160v-32-128z"/><path d="m64-352v128l-64 64h-96v-64-128z"/><path d="m95.3333-592h.6667v16h-32-96v-16z"/><path d="m192-448h96 64v96h-64-96z"/><path d="m192-352h96v32 96h-96z"/><path d="m64-224v32l-32 32h-32z"/><path d="m192-352v128h-128v-128-96h128z"/><path d="m-96 0v-160h96v160 64h-96z"/><path d="m0 64v160h-96v-160z"/><path d="m32 0v224h-32v-160-64z"/><path d="m0-160h32v160h-32z"/><path d="m-128-512h32v128h-32z"/><path d="m0 224h32l32 32h-32z"/><path d="m-96 224h96l32 32v32h-128z"/><path d="m32 288v16h-128v-16z"/><path d="m-96 307.2231v-3.2231h128v16 32.7108z"/><path d="m864-512v128z"/><path d="m864-160h128z"/><path d="m448-352h128-160-64z"/><path d="m576-576h-96-32-32z"/><path d="m640-256v96 128-64-64z"/><path d="m640-288-64-64z"/><path d="m608-64v-96-128z"/><path d="m512-320h-64-160 192z"/><path d="m640 128v96 128-96-96z"/><path d="m576 544h-32z"/><path d="m448 288v96 32 96-128z"/><path d="m608 320v-96-128 32 32 96z"/><path d="m320 256v64z"/><path d="m448 256h-128z"/><path d="m224-736 32 32z"/><path d="m-32-704v64.25 31.75z"/><path d="m-224-512v-64z"/><path d="m-352-576v64z"/><path d="m-256-608h-64z"/><path d="m-96 0v64 160-192z"/><path d="m-96-224v64 160-192z"/><path d="m64 256h128-128-32z"/><path d="m32 304v-16-32 32 32z"/><path d="m-256 288h128-96z"/><path d="m-256 0v224-192z"/><path d="m-256-320v32z"/><path d="m-128-288v-96 96 96 32z"/><path d="m-288-256h-32z"/><path d="m-352-288v-32z"/><path d="m-320-352h32z"/><path d="m-448-96h160z"/><path d="m224 352h64z"/><path d="m224 352-32-32z"/><path d="m-256 320v96z"/><path d="m0 448h-96-128z"/><path d="m864 320v64 160-32z"/><path d="m864 544v32z"/><path d="m864-288v96z"/><path d="m-416-512-32 32z"/><path d="m-320-608-32 32z"/><path d="m864-512-64-64z"/><path d="m-256 416 32 32z"/><path d="m800-576h-96z"/><path d="m-32-704v1.3204 62.9296z"/><path d="m400-640v64z"/><path d="m384-656h-64z"/><path d="m304-640 16-16z"/><path d="m384-656 16 16z"/><path d="m-32-639.75 84.6667 31.75 42.6666 16z"/><path d="m256-704-32-32z"/><path d="m-224-576-32-32z"/><path d="m-256-64v64z"/><path d="m-256 224v64z"/><path d="m32-160v160z"/><path d="m448-192h-128z"/><path d="m480-576v96z"/><path d="m480 64v160-128z"/><path d="m480-160-32-32z"/><path d="m400-576-16 16z"/><path d="m320-560-16-16z"/><path d="m64-192-32 32z"/><path d="m-224-512v-64z"/><path d="m-128 64v160z"/><path d="m-128-288v128z"/><path d="m32 416v-.932-62.3572z"/><path d="m448 256 32-32z"/><path d="m768 384v-64 224z"/><path d="m864 320h-96z"/><path d="m320 320v-64z"/><path d="m288 352 32-32z"/><path d="m192 256h-128z"/><path d="m32 224 32 32z"/><path d="m-128 288h-128z"/><path d="m-256 320h128 32-.0291-15.9709-16z"/><path d="m-352-512h-64z"/><path d="m-320-256-32-32z"/><path d="m992 0h32 31.5l-31.5 84-16.5 44h-10.1039-1.3961-4z"/><path d="m1055.5 0-31.5 84z"/><path d="m996 128h1.3961z"/><path d="m997.3961 128h10.1039z"/><path d="m1024 0h31.5z"/><path d="m1024 127v.8312z"/><path d="m1055.5 0h64.0631l-94.1604 125.9549-1.4027 1.0451v-43z"/><path d="m1119.5631 0-94.1604 125.9549z"/><path d="m1007.5 128 16.5-44v43 .8312l-.1262.1688z"/><path d="m1024 84-16.5 44z"/><path d="m1024 0h95.5631-64.0631z"/><path d="m1120 0 31.7865 31.7865z"/><path d="m1024 127.8312v-.8312 1z"/><path d="m1119.5631 0h.4369l31.7865 31.7865-126.3838 94.1684z"/><path d="m1024 127 1.4027-1.0451z"/><path d="m997.3961 128h10.1039 16.3738z"/><path d="m1023.8738 128 .1262-.1688v.1688z"/><path d="m1024 127.8312-.1262.1688z"/><path d="m1151.7865 31.7865-31.7865-31.7865 32 32z"/><path d="m1152 87.5v-55.5z"/><path d="m1024 135.5v-7.5-1l127.7865-95.2135.2135.2135v55.5z"/><path d="m1024 127 1.4027-1.0451 126.3838-94.1684z"/><path d="m1152 87.5v-55.5 112z"/><path d="m1024 128v7.5z"/><path d="m1024 135.5v8.5-16z"/><path d="m1152 144h-128v-8.5l128-48z"/><path d="m1024 135.5 128-48z"/><path d="m-96 320h-32z"/><path d="m-96 288v-64z"/><path d="m-96 288v16 3.2231 12.7769z"/><path d="m32 256v32z"/><path d="m32 288h-48v32h48z"/><path d="m32 320v96-63.2892z"/><path d="m1152 144v-112 167.375z"/><path d="m1024 144h128z"/><path d="m1024 144v7.375z"/><path d="m1024 151.375v-7.375h128v55.375z"/><path d="m640-32h-32z"/><path d="m608-32v48h32v-48z"/><path d="m544 544h-64z"/><path d="m608 96h32z"/><path d="m576 416h-32z"/><path d="m544 416v48z"/><path d="m576 416h-32v48h32z"/><path d="m544 544h32v-48h-32z"/><path d="m-128-384h32z"/><path d="m96-576v-16-16z"/><path d="m96-576h32z"/><path d="m96-608h-48v32h48z"/><path d="m-32-576v-32 16z"/><path d="m-32-608v32h48v-32z"/><path d="m-128-512v48z"/><path d="m-96-512h-32z"/><path d="m-128-512h-96z"/><path d="m992 0v48h32v-48z"/><path d="m-48 288h-48v32h48z"/><path d="m1152 199.375v-167.375 221.5686z"/><path d="m1024 128v16z"/><path d="m1024 151.375v6.8211-14.1961z"/><path d="m1024 158.1961v-6.8211l128 48v54.1936z"/><path d="m1024 151.375 128 48z"/><path d="m608 48v48h32v-48z"/><path d="m-128-464h32v-48h-32z"/><path d="m-128-432v48h32v-48z"/><path d="m992 80v48h32v-48z"/><path d="m992 736v-128z"/><path d="m992 608v128-64-64-32z"/><path d="m992-32v-128z"/><path d="m992-32v32z"/><path d="m992 0v64 64z"/><path d="m992 0h32z"/><path d="m1024 0h96-.4369z"/><path d="m1024 0h-32v128h4 28z"/><path d="m1024 158.1961 2.421 1.8039h-2.421z"/><path d="m1152 256.3517v-.3517h.3556z"/><path d="m1152 253.5686v2.4314.3517l-30.5653 30.2294-99.009-126.5811h1.5743 2.421z"/><path d="m1152 253.5686v-221.5686 224z"/><path d="m1152.3556 256h-.3556z"/><path d="m1024 128v16 14.1961 1.8039z"/><path d="m1120 0 32 32z"/><path d="m1121.4347 286.5811 30.5653-30.2294z"/><path d="m1121.4347 286.5811-99.009-126.5811z"/><path d="m1026.421 160-2.421-1.8039 128 95.3725z"/><path d="m1024 144v-16z"/><path d="m992 128h4z"/><path d="m996 128h1.3961 26.4777.1262z"/><path d="m960 768h-224z"/><path d="m736 768h-64z"/><path d="m16-736h32 176-224z"/><path d="m864-160v-128h-224v32 96z"/><path d="m576-576h-160v224h160z"/><path d="m608-288h-128v96 32 96h128z"/><path d="m480-64v128 64h128v-32-48-32-48-32z"/><path d="m576-320h-64-32v32h128z"/><path d="m448-192h32v-96-32h-192v128z"/><path d="m448-192 32 32v-32z"/><path d="m864 160h-224v96h96 64 64z"/><path d="m992 256v-96h-128v96z"/><path d="m800 256h-64l-96 96-64 64v48 16h224z"/><path d="m992 480v-128-96h-128-64v224z"/><path d="m800 480h-224v16 48l32 32h192z"/><path d="m832 576h160v-96h-192v96z"/><path d="m864 128h-96-128v32h224z"/><path d="m992 160v-32h-128v32z"/><path d="m832 576h-32-192l32 32h192z"/><path d="m864 608h128v-32h-160v32z"/><path d="m736 256h-96v96z"/><path d="m608 48h32v-32h-32z"/><path d="m480 128v32h128v-32z"/><path d="m608 160h-128v64 32h128z"/><path d="m448 288v96h96 32l32-32v-32-64h-128-32z"/><path d="m480 256v-32l-32 32z"/><path d="m544 496v-32-48-32h-96v128l32 32h64z"/><path d="m544 464v32h32v-16-16z"/><path d="m128-432h-32-192v48 160 32h128 32 64z"/><path d="m288-192v-128-32-80h-160v240z"/><path d="m128-576h-32-48-32-48l-64 64v48h192 32z"/><path d="m288-464v-112h-32-128v112z"/><path d="m32-192v32l32-32z"/><path d="m96-464h-192-32v32h32 192z"/><path d="m128-432h160v-32h-160-32v32z"/><path d="m16-608v32h32v-32-128h-32z"/><path d="m96-608h32 128v-96l-32-32h-176v128z"/><path d="m0-736-32 32v96h48v-128z"/><path d="m32 0v-160-32h-128v192 32h128z"/><path d="m-96 32v192h128v-192z"/><path d="m64 256-32-32v32z"/><path d="m-224 288-32-32v32z"/><path d="m-96 288h48 32 48v-32-32h-128z"/><path d="m-48 320h32v-32h-32z"/><path d="m-96 448h96l32-32v-96h-48-32-48z"/><path d="m-96 320h-32-128v96l32 32h128z"/><path d="m-448-320v224-128z"/><path d="m288-576v112 32 80z"/><path d="m864 128h128-128-96z"/><path d="m864-288h-224z"/><path d="m576-352v-192-32z"/><path d="m864-384v-128 32 192z"/><path d="m640-288-64-64z"/><path d="m352-352h64-128z"/><path d="m416-576v32 192z"/><path d="m640-96v64 48 32 48 32z"/><path d="m864-160h128z"/><path d="m480-64v-96 224z"/><path d="m864 608h-32-192z"/><path d="m448 256h-96-32z"/><path d="m480 224v-64z"/><path d="m-128-512h-96z"/><path d="m-352-576v64z"/><path d="m-256-608h-64z"/><path d="m-256-320v32z"/><path d="m-128-288v-96-48-32-48 32z"/><path d="m-320-352h32z"/><path d="m-352-288v-32z"/><path d="m-288-256h-32z"/><path d="m-128-160v-32 224z"/><path d="m192 256h-128z"/><path d="m32 0v32 192-96z"/><path d="m224 352h64z"/><path d="m-448-96h160z"/><path d="m-128 288h-32-64z"/><path d="m-256 32v192 32-192z"/><path d="m-448-480v160z"/><path d="m960 768 32-32z"/><path d="m288-640v64z"/><path d="m288-320v-32z"/><path d="m608 48h32z"/><path d="m864-384v96 128-32-96z"/><path d="m352-352h-64z"/><path d="m416-576v-64z"/><path d="m800-576h-96-128z"/><path d="m864-512-64-64z"/><path d="m384-672h-64z"/><path d="m320-672-32 32z"/><path d="m416-640-32-32z"/><path d="m640-288v32z"/><path d="m640-32v48z"/><path d="m608-32v-32z"/><path d="m576-320h-64z"/><path d="m608-288-32-32z"/><path d="m608 16v-48z"/><path d="m640 16h-32z"/><path d="m640 608v128z"/><path d="m640 48v48z"/><path d="m640 96v32z"/><path d="m640 736 32 32z"/><path d="m448 512 32 32z"/><path d="m608 96v-48z"/><path d="m448 256v32z"/><path d="m640 352-64 64z"/><path d="m576 384h-32z"/><path d="m608 352v-32z"/><path d="m608 352-32 32z"/><path d="m544 384v32z"/><path d="m544 544v-48z"/><path d="m576 464h-32z"/><path d="m576 416v48z"/><path d="m576 496v48z"/><path d="m544 496h32z"/><path d="m288 352 32-32z"/><path d="m640 608-32-32-32-32z"/><path d="m-96-432v48z"/><path d="m-96-512v48z"/><path d="m256-576h-128z"/><path d="m288-576h-32z"/><path d="m256-608v-96z"/><path d="m128-608h128z"/><path d="m128-608h-32z"/><path d="m16-576h-48z"/><path d="m96-576h-48z"/><path d="m48-608h48z"/><path d="m-32-608h48z"/><path d="m0-736-32 32z"/><path d="m48-576v-32z"/><path d="m16-608v32z"/><path d="m-32-576-64 64z"/><path d="m-128-432h32z"/><path d="m-96-464h-32z"/><path d="m-128-384v-48z"/><path d="m-224-576-32-32z"/><path d="m-320-608-32 32z"/><path d="m-352-512h-64z"/><path d="m-416-512-32 32z"/><path d="m-128 320h-128z"/><path d="m-48 320h-48z"/><path d="m32 320h-48z"/><path d="m-96-384v32 128z"/><path d="m192 320v-64z"/><path d="m-48 288v32z"/><path d="m-16 320v-32z"/><path d="m-16 288h48z"/><path d="m-96 288h48z"/><path d="m-256 256v-32 64z"/><path d="m-256-64v64z"/><path d="m-128 224v64z"/><path d="m-128-160v192 32z"/><path d="m-128 64v160z"/><path d="m-352-320 32-32z"/><path d="m-320-256-32-32z"/><path d="m-256-288-32 32z"/><path d="m-288-352 32 32z"/><path d="m-288-96 32 32z"/><path d="m0 448 32-32z"/><path d="m-256 416 32 32z"/><path d="m992 0h32z"/><path d="m1024 48h-32z"/><path d="m992 48v-48z"/><path d="m1024 0v48z"/><path d="m992 48v-48h32v48z"/><path d="m1024 128h-32z"/><path d="m992 80h32z"/><path d="m992 128v-48z"/><path d="m1024 80v48z"/><path d="m992 128v-48h32v48z"/><path d="m1024 160h-1.5743z"/><path d="m1121.4347 286.5811-1.4347 1.4189h-64.25l-47.75-127.3333v-.6667h14.4257z"/><path d="m1055.75 288-47.75-127.3333z"/><path d="m992 352v-32 224z"/><path d="m992 320v-32z"/><path d="m992-32v-128z"/><path d="m992 0v-32z"/><path d="m992 0v-32-128 32 192z"/><path d="m992-480v-96 64 160z"/><path d="m1055.75 288h-47.75v-127.3333z"/><path d="m1008 160.6667v127.3333h-16v-32-96h16z"/><path d="m1008 288h47.75 64.25-96-32z"/><path d="m1024 128v32z"/><path d="m1152.3556 256h-.3556z"/><path d="m1152 32v224z"/><path d="m1120 0 32 32z"/><path d="m1152 256.3517.3556-.3517-32.3556 32z"/><path d="m1120 0h-96z"/><path d="m1055.75 288h64.25z"/><path d="m1008 160v.6667z"/><path d="m1152.3556 256-.3556.3517z"/><path d="m1024 160h-1.5743-14.4257z"/><path d="m1024 0v128z"/><path d="m1120 288 1.4347-1.4189 30.5653-30.2294z"/><path d="m736 768h224-64z"/><path d="m736 768h-64z"/><path d="m-192-736h-32-128-64z"/><path d="m-448-224v128 96z"/><path d="m-448-448v128 96z"/><path d="m-448-672v160 32 32z"/><path d="m-448-448v-32 160z"/><path d="m960 768 32-32z"/><path d="m416-544v-32h32z"/><path d="m896-192h-32v-64h32z"/><path d="m640-576h-64-32-96-32v-64-32h128 96z"/><path d="m768-672h96v96h-64-160v-96z"/><path d="m864-160v-32h32 64 32v32z"/><path d="m992-480v128 64 32h-32-64-32v-32-192z"/><path d="m864-512v-64-96h32l96 96v96h-128z"/><path d="m992-192h-32v-64h32z"/><path d="m544-576h32v32z"/><path d="m864-576v64l-64-64z"/><path d="m416-640-32-32h32z"/><path d="m896-192v-64h64v64z"/><path d="m448 256 32-32v32z"/><path d="m864 608h-224v-32h32 96 96z"/><path d="m992 576v32h-128v-32z"/><path d="m864 160h-224v-32h128 96z"/><path d="m992 128v32h-128v-32z"/><path d="m768 576h-96l-32-32-32-32-64-64 16-16 48-48 32-32h128z"/><path d="m864 352h128v192 32h-128-96v-224z"/><path d="m512 384 48 48-16 16-96-96h32z"/><path d="m560 432-48-48h96z"/><path d="m640 544 32 32h-32z"/><path d="m384 288 64 64 96 96v64h-160-64v-32-64-64-32-32z"/><path d="m544 448 64 64h-64z"/><path d="m352 256 32 32h-64v-32z"/><path d="m480 288v64h-32l-64-64-32-32h96 32z"/><path d="m864 352h-96-128v-96h224z"/><path d="m992 256v32 32 32h-128v-96z"/><path d="m864 256h-224v-96h224z"/><path d="m992 160v96h-128v-96z"/><path d="m-224-576v-32-32-64-32h32 32l32 32v192h-96z"/><path d="m-320-640h-32v-64h32z"/><path d="m-320-640h64 32v32h-32-64-32v-32z"/><path d="m-448-672v-32l32-32h64v32 64 32 32 64h-64-32z"/><path d="m-224-736v32h-32-64-32v-32z"/><path d="m-224-640h-32v-64h32z"/><path d="m-320-640v-64h64v64z"/><path d="m-224-576-32-32h32z"/><path d="m-320-608-32 32v-32z"/><path d="m-416-512-32 32v-32z"/><path d="m-352-288v-32l32-32h32l32 32v32l-32 32h-32z"/><path d="m32 256v-32l32 32z"/><path d="m288 352 32-32v32z"/><path d="m192 352v-32l32 32z"/><path d="m320 480h-32v-64h32z"/><path d="m288 416h-64-32v-64h32 64 32v64z"/><path d="m192 512v-32h32 64 32v32z"/><path d="m224 480h-32v-48-16h32z"/><path d="m224 480v-64h64v64z"/><path d="m64 288h32l-64 64v-64z"/><path d="m96 288h-32v-32h128v32z"/><path d="m0 384 32-32 64-64h96v32 32 64 16h-32-176l-16-16z"/><path d="m32 256h32v32h-32z"/><path d="m0 384-32 32-32-32z"/><path d="m-64 432v-48l32 32 16 16z"/><path d="m160 512h-224v-80h48 176z"/><path d="m192 432v48 32h-32v-80z"/><path d="m-448-96h160l32 32v64h-128-32-32z"/><path d="m-256 288v-32l32 32z"/><path d="m-256 64v192 32h-128v-64-160z"/><path d="m-384 32v-32h128v32 32h-128z"/><path d="m-384 32-32-32h32z"/><path d="m-64 432v80h-32v-160l32 32z"/><path d="m-96 352v160h-32v-192z"/><path d="m-160 512h-128-32l-64-64v-160h128 32 64z"/><path d="m-128 288v32 192h-32v-224z"/><path d="m544 512h64-96-128z"/><path d="m-160 512h32 32 32-96-128z"/><path d="m288-576v224-96z"/><path d="m416-352h-64-64z"/><path d="m448-576h96z"/><path d="m544-672h-128-32-64 32 96z"/><path d="m768-672h-128-96 128z"/><path d="m576-544v192-160z"/><path d="m864-256v64 32-128z"/><path d="m864-288h-128-64-32z"/><path d="m640 128v32 96 96z"/><path d="m640-96v224z"/><path d="m608 384h-96z"/><path d="m480-160v144 80z"/><path d="m640 352-32 32z"/><path d="m-128-480v-32-192 128z"/><path d="m-128-256v-32-192 128z"/><path d="m0 384h-64z"/><path d="m32 128v96 32 32 64z"/><path d="m32-96v96 128z"/><path d="m32 352-32 32z"/><path d="m-128 320v-32z"/><path d="m-128-192v64 160z"/><path d="m-384 224v64 160-192z"/><path d="m640 544v32z"/><path d="m-448 0h32z"/><path d="m288-640v64z"/><path d="m768 128h-128z"/><path d="m640-576h160-224z"/><path d="m864-512-64-64z"/><path d="m384-672h-64z"/><path d="m416-576v-64z"/><path d="m320-672-32 32z"/><path d="m416-640-32-32z"/><path d="m640-160v64z"/><path d="m864-160h-224z"/><path d="m448-192h-160z"/><path d="m480 64v64z"/><path d="m480-160-32-32z"/><path d="m640 608v128z"/><path d="m992 608h-128z"/><path d="m640 736 32 32z"/><path d="m480 128v32z"/><path d="m448 256 32-32z"/><path d="m320 288v32-64z"/><path d="m288 352 32-32z"/><path d="m288-192h-160-64z"/><path d="m-352-512h-64z"/><path d="m-224-512v-64z"/><path d="m-320-608-32 32z"/><path d="m-224-576-32-32z"/><path d="m-128-256v64-96z"/><path d="m-416-512-32 32z"/><path d="m-320-256-32-32z"/><path d="m-352-320 32-32z"/><path d="m-288-352 32 32z"/><path d="m-256-288-32 32z"/><path d="m-128 32v192-160z"/><path d="m-128 256v32-64z"/><path d="m32-96v-64 160z"/><path d="m64-192-32 32z"/><path d="m32 224 32 32z"/><path d="m192 288v-32 64z"/><path d="m192 320 32 32z"/><path d="m-256 0v-64 64 32z"/><path d="m-256 256 32 32z"/><path d="m-288-96 32 32z"/><path d="m992 160v-32z"/><path d="m992-160v-32-64-32z"/><path d="m1024 288h96z"/><path d="m1024 160h-16-16z"/><path d="m992 160v48h32v-48z"/><path d="m384 512h-96-128 32 128z"/><path d="m160 512h-96-64-64z"/><path d="m384 512h128-64-160z"/><path d="m992-288h-48v128h48z"/><path d="m512 384-32-32z"/><path d="m608 512v-48h-96v48z"/><path d="m-64 384v48h64v-48z"/><path d="m-64 384-32-32-32-32z"/><path d="m608 512 32 32z"/><path d="m992 240v48h32v-48z"/><path d="m912-288h-48v128h48z"/><path d="m608 464h-96z"/><path d="m608 432v-48h-96v48z"/><path d="m-64 432h64z"/><path d="m-64 464v48h64v-48z"/><path d="m992 544v192-128-32z"/><path d="m992 288v-48z"/><path d="m992 208v-48z"/><path d="m992 64v32 32z"/><path d="m992-352v64z"/><path d="m1120 0h-96z"/><path d="m1024 32v-32 128z"/><path d="m1024 160v48z"/><path d="m1024 256v-16 48z"/><path d="m1024 32v96 32 48 32 16h128v-224z"/><path d="m1120 0h-96v32h128z"/><path d="m1152.3556 256h-.3556-128v32h96z"/><path d="m992 240h32z"/><path d="m1024 208h-32v32h32z"/><path d="m1024 208h-32z"/><path d="m672 768h64z"/><path d="m-160-736h-32z"/><path d="m-448-704v32z"/><path d="m960 768 32-32z"/><path d="m-416-256v32 128z"/><path d="m-416-384v96z"/><path d="m-416-512v64 32z"/><path d="m-160 256-128-128-96-96v192 32z"/><path d="m-160 480v-16-32-144-32h-224v192l32 32z"/><path d="m-320 512h32 128v-32h-192z"/><path d="m-64 384-64-64-32-32v144h96z"/><path d="m320 128v96h32v-96z"/><path d="m160-32v128h32v-128z"/><path d="m160 128v96h32v-96z"/><path d="m320-32v128h32v-128z"/><path d="m-64 464h64 64v-16-16h-64-64-96v32z"/><path d="m64 320-32 32-32 32v48h64z"/><path d="m-160 480v32h96v-48h-96z"/><path d="m0 512h64v-48h-64z"/><path d="m-192-96h-192-32v96l32 32 96 96h96z"/><path d="m-160 128v-32-192h-32v224z"/><path d="m-160 256v-128h-32-96z"/><path d="m-192-288h-192-32v32h224z"/><path d="m-160-256v-32h-32v32z"/><path d="m-192-416h-192-32v32h224z"/><path d="m-160-384v-32h-32v32z"/><path d="m-192-544h-192-32v32h224z"/><path d="m-160-512v-32h-32v32z"/><path d="m-192-736h-224v32h224z"/><path d="m-160-704v-32h-32v32z"/><path d="m-160 96v32 128 32l32 32v-32-32-160z"/><path d="m-160-128v32 192h32v-64-160z"/><path d="m-160-352v64 32 128h32v-64-64-96z"/><path d="m-160-576v32 32 96 32 32h32v-128-96z"/><path d="m-128-704-32-32v32 128h32z"/><path d="m32 128v224l32-32v-96-96z"/><path d="m32-96v224h32v-32-128-32-32z"/><path d="m64-160v-32l-32 32v64h32z"/><path d="m192-160h-32v96h32z"/><path d="m352-160h-32v96h32z"/><path d="m352-576v-96h-32l-32 32v64 128h64z"/><path d="m288-448v96h64v-96z"/><path d="m512 464v-32h-32-32v16 64h64z"/><path d="m672 736v-96-32-32l-32-32v32 160l32 32z"/><path d="m608 464h64v-32h-64-96v32z"/><path d="m672 512v-32-16h-64v48l32 32 32 32z"/><path d="m288 224h-96-32-96v96 112 16h224z"/><path d="m448 448v-16-208h-96-32-32v224z"/><path d="m288 448h-224v16 48h224z"/><path d="m448 512v-64h-160v64z"/><path d="m480 432h32v-48l-32-32z"/><path d="m672 384v-32h-32l-32 32v48h64z"/><path d="m288 96h-96-32-96v32h96 32 96z"/><path d="m320 128h32 96v-32h-96-32-32v32z"/><path d="m896 736h-160-64v32h64 160z"/><path d="m960 768v-32h-64v32z"/><path d="m896 608h-160-64v32h224z"/><path d="m960 640v-32h-64v32z"/><path d="m896 480h-160-64v32h224z"/><path d="m960 512v-32h-64v32z"/><path d="m896 224h-160-64v32h224z"/><path d="m960 256v-32h-64v32z"/><path d="m896 352h-160-64v32h224z"/><path d="m960 384v-32h-64v32z"/><path d="m896 96h-160-64v32h224z"/><path d="m960 128v-32h-64v32z"/><path d="m288-64h-96-32-96v32h96 32 96z"/><path d="m320-32h32 96v-32h-96-32-32v32z"/><path d="m640 128v224h32v-96-32-96z"/><path d="m640-96v224h32v-32-96-96z"/><path d="m672-160h-32v64h32z"/><path d="m288-192h-224v32h96 32 96z"/><path d="m320-160h32 96v-32h-160v32z"/><path d="m448 208v16 208h32v-80-64-80z"/><path d="m448-16v112 32 80h32v-144-80z"/><path d="m480-160-32-32v32 96 32 16h32z"/><path d="m352-448v96h64v-192-32h-64z"/><path d="m448-576h-32v32z"/><path d="m576-576h-32l32 32z"/><path d="m576-512v160l64 64h32v-96-32-96z"/><path d="m672-544v-32h-96v32 32h96z"/><path d="m544-576h32 96v-64-32h-128-96v96z"/><path d="m416-576h32v-96h-96v96z"/><path d="m960 544v64 32 96 32l32-32v-192z"/><path d="m960 320v32 32 96 32 32h32v-224z"/><path d="m960 96v32 96 32 64h32v-32-48-32-48-32-32z"/><path d="m960-128v128 96h32v-32-192z"/><path d="m992-160h-32v32h32z"/><path d="m896-160h-32-192v64 96h224z"/><path d="m960 0v-128-32h-16-32-16v160z"/><path d="m944-160v-128h-32v128z"/><path d="m896-416h-160-64v32h224z"/><path d="m960-384v-32h-64v32z"/><path d="m896-544h-160-64v32h224z"/><path d="m960-512v-32h-64v32z"/><path d="m960-640v32l-32-32z"/><path d="m896-672h-128-96v32h224z"/><path d="m928-640-32-32v32z"/><path d="m960-512v96 32 96h32v-64-160z"/><path d="m992-576-32-32v64 32h32z"/><path d="m160-32h-96z"/><path d="m320-32h-32-96 96z"/><path d="m192-64h96 32-32z"/><path d="m352-64h96z"/><path d="m-192-256h-224z"/><path d="m-192-288h32-32-192z"/><path d="m864-288h48 32 16-224z"/><path d="m-192-384h-224z"/><path d="m896-384h-224z"/><path d="m-384-416h192 32-32z"/><path d="m736-416h160 64-64z"/><path d="m-192-512h-224z"/><path d="m896-512h-224z"/><path d="m-192-544h32-32-192z"/><path d="m736-544h160 64-64z"/><path d="m672-640v64 32z"/><path d="m896-640h-224z"/><path d="m960-544v-64-32z"/><path d="m-160-576v-128 160z"/><path d="m-192-704h-224z"/><path d="m672-416v-96z"/><path d="m960-416v-96z"/><path d="m-160-416v-96z"/><path d="m672-384v96z"/><path d="m960-288v-96z"/><path d="m-160-288v-64-32z"/><path d="m320-160v96z"/><path d="m448-64v-96z"/><path d="m288-160h-96 128z"/><path d="m160-160v96z"/><path d="m160-160h-96z"/><path d="m-384-96h192 32z"/><path d="m448 224v-16-80z"/><path d="m448-16v-16 128z"/><path d="m896 384h-224z"/><path d="m896 128h-224z"/><path d="m960 0v96z"/><path d="m896 0h-224z"/><path d="m736 96h160 64-64z"/><path d="m960 128v96z"/><path d="m672 128v96z"/><path d="m736 224h160 64-64z"/><path d="m736 352h160 64-64z"/><path d="m896 256h-224z"/><path d="m736 608h160 64-64z"/><path d="m960 480v-96z"/><path d="m960 608v-64-32z"/><path d="m672 432v32 16-96z"/><path d="m672 576v32-96z"/><path d="m896 512h-224z"/><path d="m736 480h160 64-64z"/><path d="m960 736v-96z"/><path d="m672 640v96z"/><path d="m736 736h160 64z"/><path d="m896 640h-224z"/><path d="m192 128v96z"/><path d="m192-32v128z"/><path d="m192 96h96 32-32z"/><path d="m352 96h96z"/><path d="m320 96v-128z"/><path d="m352-32v128z"/><path d="m352 128v96z"/><path d="m352 224h96z"/><path d="m320 128h-32-96 96z"/><path d="m192 224h96 32z"/><path d="m64-32v128z"/><path d="m160 96v-128z"/><path d="m160 128h-96z"/><path d="m64 128v96z"/><path d="m928-640 32 32 32 32-96-96z"/><path d="m288 512h-224 96z"/><path d="m64 512h-64z"/><path d="m-288 512h-32z"/><path d="m288-640v64z"/><path d="m672-160h192-224z"/><path d="m896-160h16-48z"/><path d="m960-160h32-48z"/><path d="m912-288v128z"/><path d="m960-288h-16 48z"/><path d="m944-160v-128z"/><path d="m896-672h-32-96z"/><path d="m320-672-32 32z"/><path d="m416-352v-192z"/><path d="m416-544 32-32z"/><path d="m544-576 32 32z"/><path d="m864-288h48z"/><path d="m576-352 64 64z"/><path d="m448-192h-160z"/><path d="m480-160-32-32z"/><path d="m640-160v64z"/><path d="m480 64v144 80-32-32-64-32z"/><path d="m480 288v64z"/><path d="m512 432v-48z"/><path d="m512 512v-48z"/><path d="m608 384v48z"/><path d="m608 432h-96z"/><path d="m608 464v48z"/><path d="m288-192h-224z"/><path d="m-128-192v-64z"/><path d="m-128-704-32-32z"/><path d="m-64 432v-48z"/><path d="m-64 512v-48z"/><path d="m32-160v64z"/><path d="m64-192-32 32z"/><path d="m0 384v48z"/><path d="m0 464v48z"/><path d="m-64 464h64z"/><path d="m-128 32v64 160-32z"/><path d="m-128 256v32z"/><path d="m-384 32v32 160z"/><path d="m-352 480-32-32 64 64z"/><path d="m-416 0 32 32z"/><path d="m640 576v32 128z"/><path d="m640 736 32 32z"/><path d="m-448-224v224h32v-96-128z"/><path d="m-448-448v224h32v-32-32-96-32-32z"/><path d="m-448-672v224h32v-64-32-128z"/><path d="m-416-704v-32l-32 32v32h32z"/><path d="m-416-736-32 32z"/><path d="m320 96v-128h32v128z"/><path d="m160 224v-96h32v96z"/><path d="m160 96v-128h32v128z"/><path d="m320 224v-96h32v96z"/><path d="m-192-256h-224v-32h32 192z"/><path d="m-160-288v32h-32v-32z"/><path d="m-192-384h-224v-32h32 192z"/><path d="m-160-416v32h-32v-32z"/><path d="m-192-512h-224v-32h32 192z"/><path d="m-160-544v32h-32v-32z"/><path d="m160-160h32v96h-32z"/><path d="m320-160h32v96h-32z"/><path d="m288 128h-96-32-96v-32h96 32 96z"/><path d="m320 96h32 96v32h-96-32-32v-32z"/><path d="m896 640h-224v-32h64 160z"/><path d="m960 608v32h-64v-32z"/><path d="m896 512h-224v-32h64 160z"/><path d="m960 480v32h-64v-32z"/><path d="m896 128h-224v-32h64 160z"/><path d="m960 96v32h-64v-32z"/><path d="m896 384h-224v-32h64 160z"/><path d="m960 352v32h-64v-32z"/><path d="m896 256h-224v-32h64 160z"/><path d="m960 224v32h-64v-32z"/><path d="m288-32h-96-32-96v-32h96 32 96z"/><path d="m320-64h32 96v32h-96-32-32v-32z"/><path d="m896-512h-224v-32h64 160z"/><path d="m960-544v32h-64v-32z"/><path d="m896-384h-224v-32h64 160z"/><path d="m960-416v32h-64v-32z"/><path d="m-416-704v32 128z"/><path d="m448-32h-96z"/><path d="m64-64h96z"/><path d="m-160-256h-32z"/><path d="m-384-288h-32z"/><path d="m736-288h-64z"/><path d="m-160-384h-32z"/><path d="m960-384h-64z"/><path d="m-416-416h32z"/><path d="m672-416h64z"/><path d="m-160-512h-32z"/><path d="m960-512h-64z"/><path d="m-384-544h-32z"/><path d="m672-544h64z"/><path d="m960-640h-32-32z"/><path d="m-160-704h-32z"/><path d="m64-160v64 32z"/><path d="m192-160v96z"/><path d="m448-160h-96z"/><path d="m352-160v96z"/><path d="m-160-96v-32-128z"/><path d="m-416-96h32z"/><path d="m960 384h-64z"/><path d="m960 128h-64z"/><path d="m672 0v96z"/><path d="m960 0h-64z"/><path d="m672 96h64z"/><path d="m960 352v-32-64z"/><path d="m672 256v96z"/><path d="m672 224h64z"/><path d="m672 352h64z"/><path d="m960 256h-64z"/><path d="m672 608h64z"/><path d="m960 512h-64z"/><path d="m672 480h64z"/><path d="m672 736h64z"/><path d="m960 640h-64z"/><path d="m320 224v-96z"/><path d="m448 128h-96z"/><path d="m64 96h96z"/><path d="m64 224h96z"/><path d="m160 224v-96z"/></g></defs><path d="m-598-886h1900.3556v1804h-1900.3556z" fill="#fff"/><g stroke="#000"><use fill="none" stroke-miterlimit="0" stroke-width="15" xlink:href="#a"/><use fill="#fff" xlink:href="#a"/></g></svg>