<svg viewBox="-441 -697 1458 1458" xmlns="http://www.w3.org/2000/svg" xmlns:xlink="http://www.w3.org/1999/xlink"><defs><g id="a"><path d="m64 32v-32l64-64v96z"/><path d="m128-64v-64h160v64 96h-160z"/><path d="m288 128h-224v-96h64 160z"/><path d="m320 32v32 64h-32v-96z"/><path d="m544 256h-224v-128-64h192 32z"/><path d="m624 64v192h-80v-192z"/><path d="m384 32h64 64v32h-192v-32z"/><path d="m384-64v64 32h-64-32v-96z"/><path d="m384 32v-32h64v32z"/><path d="m384-64h-96v-64h64 96v64z"/><path d="m448 32v-32-64-64h64v96 64z"/><path d="m64 32v96 128z"/><path d="m624 64h-80-32z"/><path d="m352-128h-64-160v-64l64-64h160z"/><path d="m512-128 64-64 64-64v96 128h-128z"/><path d="m320 256v-128z"/><path d="m624 256v-192z"/><path d="m624 256h-80z"/><path d="m320 128v128h-32v-128z"/><path d="m384 0v-64z"/><path d="m448-64v64z"/><path d="m384-64h64z"/><path d="m448 0h-64z"/><path d="m448 0h-64v-64h64z"/><path d="m128-192v64 64z"/><path d="m576-192-64 64h-64-96v-128h64 160z"/><path d="m-320-192v128 96-96z"/><path d="m-320-416v128 96-96z"/><path d="m-192-448v32z"/><path d="m-320-416v-96h128v64 32 128h-128z"/><path d="m-192-288v96 128h-128v-128-96z"/><path d="m-192-64v96h-128v-96z"/><path d="m-128-448v32z"/><path d="m64 32v-32l64-64v96z"/><path d="m128-64-64 64v32h64z"/><path d="m128 32h496v32 192h-80-32-192-32-224v-224z"/><path d="m288 256h32 192 32 80v-192-32h-496-64v224z"/><path d="m624 64v-32h16v32z"/><path d="m640 64v-32h-16v32z"/><path d="m352-256h64 160 64v96 128 64h-16-496v-96-128l64-64z"/><path d="m624 32h16v-64-128-96h-64-160-64-160l-64 64v128 96z"/><path d="m640-256v96z"/><path d="m64 32v224-208z"/><path d="m128-192v128-96z"/><path d="m416-256h-64-160 160z"/><path d="m544 256h80-80-32z"/><path d="m64 0v32z"/><path d="m624 64h16z"/><path d="m640-256-64 64v-64z"/><path d="m640-32v64 32h-16-112v-32-64z"/><path d="m192-256-64 64z"/><path d="m64 0 64-64z"/><path d="m544 256h-32-192z"/><path d="m288 256h-224v-128h224z"/><path d="m-192 32h-128z"/><path d="m-128 32h-64z"/><path d="m-192-448v-64z"/><path d="m-192-192v192 32-96z"/><path d="m-192-416v192 32-96z"/><path d="m-192-416v-32h64v32 192h-64z"/><path d="m-128-224v32 192h-64v-192-32z"/><path d="m-128 0v32h-64v-32z"/><path d="m-128-192v144 80-32z"/><path d="m-128-416v144 80-32z"/><path d="m-128-496v48z"/><path d="m736 576h32-192z"/><path d="m832-512v128 64z"/><path d="m832-256v-64 128 32z"/><path d="m288-512h-160-64z"/><path d="m512-512h-160-64z"/><path d="m736-512h-80-80-64z"/><path d="m-128 480v-128-96h64v16 208z"/><path d="m-64 496v80h-64v-96h64z"/><path d="m-64 496v-16-208h64 64 96v224z"/><path d="m160 576h-32-128-64v-80h224z"/><path d="m288 272v112 112h-128v-224z"/><path d="m288 496v80h-128v-80z"/><path d="m-64 256h64v16h-64z"/><path d="m160 272h-96v-16h224v16z"/><path d="m-128-416v-32-48h64v224h-64z"/><path d="m-64-272v112 96 16h-64v-144-80z"/><path d="m-64-48v16 64h-64v-80z"/><path d="m-64-32v-16-16h64v32z"/><path d="m128-64-64 64v-64z"/><path d="m64-64h-64-64v-96h96 32 64v96z"/><path d="m128-256h64l-64 64z"/><path d="m64-320h64v32 32 64 32h-64z"/><path d="m64-384v-128h64v128z"/><path d="m-64-496h96v112 112h-96z"/><path d="m32-272v112h-96v-112z"/><path d="m32-512v16h-96-64v-16z"/><path d="m288 384v-112-16h32v128z"/><path d="m512 576h-160-64v-80-112h32 192z"/><path d="m736 576h-160-64v-192h32 80 16 96z"/><path d="m768 384v128 64h-32v-192z"/><path d="m832 512h-64v-128h64z"/><path d="m128-288v-32-64-128h160 64v224z"/><path d="m352-256h-160-64v-32h224z"/><path d="m512-512h64v128 64 32h-224v-224z"/><path d="m576-288v32h-160-64v-32z"/><path d="m640-160v-96h160 32v96 128h-192z"/><path d="m832-32v96 128h-192v-32-96-96z"/><path d="m832 192v96 96h-64-32-96v-192z"/><path d="m576-288v-32h80 144v64h-160-64z"/><path d="m800-320h32v64h-32z"/><path d="m576-512h80v128h-80z"/><path d="m656-384v-128h80 96v192h-32-144z"/><path d="m624 64v32 160z"/><path d="m640 160v32 192-128z"/><path d="m640 64v32h-16v-32z"/><path d="m624 256h-80z"/><path d="m32-496v112z"/><path d="m32-496v-16z"/><path d="m-64-496h96-32-128z"/><path d="m64 48v208 16-80-32z"/><path d="m0-32v-32z"/><path d="m0 272v-16z"/><path d="m640-160v128 96-32-64z"/><path d="m192-256-64 64z"/><path d="m64 0v32z"/><path d="m624 64h16z"/><path d="m576-256h64-64-160z"/><path d="m128-64-64 64z"/><path d="m624 64v192z"/><path d="m288 256h-224z"/><path d="m512 256h-192-32 32z"/><path d="m-128-448h-64z"/><path d="m832 576h-64z"/><path d="m832-320v128z"/><path d="m832 288v96 128-128z"/><path d="m832 64v96 128-96z"/><path d="m832-160v192 32-96z"/><path d="m832 64v-32 128z"/><path d="m832 576v-64-128z"/><path d="m0 32h-64v-64h64z"/><path d="m-64 32v-64z"/><path d="m-64-32h64z"/><path d="m-128 32h64z"/><path d="m832 576h-64v-64h64z"/><path d="m768 576v-64z"/><path d="m768 512h64z"/><path d="m0 256h-64-64z"/><path d="m0 224v32h-128v-32z"/><path d="m-112-496v16h128v-16z"/><path d="m80-496h-16v96h16z"/><path d="m832 160v-128 160 64z"/><path d="m832 160v96 128-96z"/><path d="m640 160v96h-16v-160h16z"/><path d="m624 256h16z"/><path d="m640 96v-32 96z"/><path d="m0 192v32h-128v-32z"/><path d="m0 272v-16-32z"/><path d="m0 224h-128z"/><path d="m-128 160v32z"/><path d="m0 192v80-48z"/><path d="m0 192h-128z"/><path d="m0 160v32h-128v-32z"/><path d="m-128 256v-32z"/><path d="m-128 224v-32z"/><path d="m0 160h-128z"/><path d="m0 128v32h-128v-32z"/><path d="m0 160v32z"/><path d="m0 160v-32z"/><path d="m0 128h-128z"/><path d="m0 96v32h-128v-32z"/><path d="m-112-480v-16z"/><path d="m16-496v16z"/><path d="m-112-480v-16h128v16z"/><path d="m-112-496h128z"/><path d="m16-480h-128z"/><path d="m80-400h-16z"/><path d="m64-496h16z"/><path d="m80-400h-16v-96h16z"/><path d="m64-400v-96z"/><path d="m80-496v96z"/><path d="m-128 64v32z"/><path d="m832 256v128z"/><path d="m624 384h16z"/><path d="m640 256h192-64-144z"/><path d="m640 384v-128z"/><path d="m832 384v-128h-192v128z"/><path d="m0 96v32z"/><path d="m0 96v-32z"/><path d="m0 96h-128z"/><path d="m0 64v32h-128v-32z"/><path d="m-320-512v96z"/><path d="m-128 128v-32z"/><path d="m-128-512v16z"/><path d="m352 576h-32-128-64 32 128z"/><path d="m576 576h-32-192 160z"/><path d="m128 576h-128z"/><path d="m128 576h64-32z"/><path d="m832-192v96 128-192z"/><path d="m32-512h-160z"/><path d="m832-512h-96z"/><path d="m624 384h144 64-192z"/><path d="m320 384h224-32z"/><path d="m544 384h80z"/><path d="m288-512h-224v128h64 160z"/><path d="m512-512h-224v128h96 128z"/><path d="m736-512h-224v128h64 80 80z"/><path d="m832-384v-128h-96v128z"/><path d="m736-384h-80v64h144 32v-64z"/><path d="m800-320h-144-80v128 96h224z"/><path d="m576-96v96 32h160 64v-128z"/><path d="m832-192v-128h-32v224h32z"/><path d="m800-96v128h32v-128z"/><path d="m384-192v-192h-96v96 128h96z"/><path d="m288-160v96 96h96v-32-160z"/><path d="m576-320v-64h-64-128v192h192z"/><path d="m576 0h-192v32h128 64z"/><path d="m512 32h-128-96v128 32h32 192z"/><path d="m736 32h-160-64v160h32 192z"/><path d="m768 192h64v-160h-32-64v160z"/><path d="m544 192h-32-192v64h224z"/><path d="m768 192h-32-192v64h80 144z"/><path d="m832 256v-64h-64v64z"/><path d="m32-384h-32v48 16h32z"/><path d="m32-288v-16h-144v16z"/><path d="m-112-336h112v-48-112h-128v48 112z"/><path d="m32-384v-112h-32v112z"/><path d="m288-384h-160v64 32h160z"/><path d="m64-320v32h64v-32z"/><path d="m0-496h32v-16h-160v16z"/><path d="m288-160v-128h-160-64v128 96h224z"/><path d="m64-64v112 112h224v-128-96z"/><path d="m64 160v32h80 144v-32z"/><path d="m32-240v-16h-144v16z"/><path d="m64-160h-32v16 32 16 32h32z"/><path d="m32-144v-16h-144v16z"/><path d="m32-192v-16h-144v16z"/><path d="m32-96v-16h-144v16z"/><path d="m0 32v-96h-112-16v96z"/><path d="m-112-144v-16-32-16-32-16-32-16-32h-16v48 176h16z"/><path d="m-128-112v48h16v-32-16z"/><path d="m64 192v80l80-80z"/><path d="m0 32v32h-128v-32z"/><path d="m576 0v-96-96 96z"/><path d="m384-192v32 160-96z"/><path d="m320 256v-64z"/><path d="m144 192-80 80z"/><path d="m0-64h32-32-112z"/><path d="m32-112v-32z"/><path d="m32-208v-32z"/><path d="m32-256v-32z"/><path d="m32-304v-16z"/><path d="m-112-96v32z"/><path d="m-112-144v32z"/><path d="m-112-192v32z"/><path d="m-112-240v32z"/><path d="m-112-288v32z"/><path d="m32-208h-144z"/><path d="m32-304h-144z"/><path d="m32-256h-144z"/><path d="m32-160h-144z"/><path d="m32-112h-144z"/><path d="m320 344v40-128z"/><path d="m656-320h-80z"/><path d="m576-320v-64z"/><path d="m656-384v64z"/><path d="m576-384h80z"/><path d="m544 256h-224 192z"/><path d="m64-64h-32-32z"/><path d="m128-384v64z"/><path d="m32-160h32z"/><path d="m32-384v64 16 16 32 16 32 16 32-112z"/><path d="m128-320h-64z"/><path d="m64-384h64z"/><path d="m64-512v128z"/><path d="m64-288v-32 160z"/><path d="m0-496h32-96-64z"/><path d="m64-64v64 32 16z"/><path d="m0 64h-128z"/><path d="m0-64v96-64z"/><path d="m0 32h-128 64z"/><path d="m64 272h-64z"/><path d="m0 272v-80-32z"/><path d="m320 448v-64z"/><path d="m544 384h-224v64 128h32 192z"/><path d="m768 384h-144-80v192h32 192z"/><path d="m832 576v-192h-64v192z"/><path d="m320 576v-128l-128 128z"/><path d="m320 448-128 128z"/><path d="m-192-512h-128z"/><path d="m-320 32h128 64z"/><path d="m-128-336v-112h-64v160h64z"/><path d="m-192-448v-64h-128v96 128h128z"/><path d="m-128-64v-48-176h-64-128v96 128z"/><path d="m-128 32v-96h-192v96z"/><path d="m-128-192v32 96 96z"/><path d="m-128-416v32 192-192z"/><path d="m768 576h64-96z"/><path d="m160 576h32 96z"/><path d="m0 576h-64z"/><path d="m-64 576h-64z"/><path d="m832-448v32z"/><path d="m832 576v-192 16 160z"/><path d="m96-512h-160-48-16 128z"/><path d="m480-512h-32z"/><path d="m768-512h-96-96z"/><path d="m544 384h-224 32z"/><path d="m768 384h-64-80-80 32 48 16z"/><path d="m384 192v64h-32v-64z"/><path d="m672 256h-224v-64h128 96z"/><path d="m768 192v64h-96v-64z"/><path d="m576 192h-128-64-32v-96-64h32 192z"/><path d="m800 192h-32-96-96v-160h224z"/><path d="m832 32v160h-32v-160z"/><path d="m576 0v32h-192v-32z"/><path d="m384-320h192v128h-192z"/><path d="m352-256v-64h32v128 96h-32z"/><path d="m384-96v96 32h-32v-128z"/><path d="m416-512v64 64h-64v-128z"/><path d="m576-192v-128h80 144v224h-224z"/><path d="m800-96v128h-224v-32-96z"/><path d="m800-320h32v128 96h-32z"/><path d="m832-96v128h-32v-128z"/><path d="m800-320h-144v-64h176v64z"/><path d="m640-384h-64-160v-64h32 192z"/><path d="m672-448h96 64v32 32h-176-16v-64z"/><path d="m672-448h-32-192v-64h32 96 96z"/><path d="m768-512v64h-96v-64z"/><path d="m576-320h-192-32 64z"/><path d="m640-384h16-16-48-16z"/><path d="m768 256h-96z"/><path d="m352 256h32z"/><path d="m384 0h192z"/><path d="m576-192h-192z"/><path d="m288-384h-64z"/><path d="m-128-416v-96h16v128h-16z"/><path d="m-112-512h48v128h-48z"/><path d="m160-384h-160-64v-128h160 64z"/><path d="m352-384h-64-64-64v-128h128 64z"/><path d="m64 48v112 32 80z"/><path d="m288-320h32v64h-32z"/><path d="m288-256h32 32v160h-64z"/><path d="m64-320h224v64 160h-224z"/><path d="m288 192h32-32-144z"/><path d="m64 48v-112h224v160 64h-224z"/><path d="m288 160v32h-144-80v-32z"/><path d="m288-96v32h-224v-32z"/><path d="m320 96v96h-32v-32-64z"/><path d="m352-96v128 64h-32-32v-160-32z"/><path d="m320 96v96z"/><path d="m144 192-80 80v-80z"/><path d="m0 32h-128z"/><path d="m32-64v-32z"/><path d="m32-160v-32z"/><path d="m32-320h32z"/><path d="m32-112v-32-16-32-16-32-16-32-16-16h32v224h-32z"/><path d="m64-96v32h-32v-32z"/><path d="m-112-336v32z"/><path d="m32-288h-144z"/><path d="m0-320h32z"/><path d="m0-384v48h-64v-48z"/><path d="m-64-384v48h-48v-48z"/><path d="m0-320v-16z"/><path d="m-64-336h64-112z"/><path d="m32-304v16h-144v-16z"/><path d="m32-256v16h-144v-16z"/><path d="m32-240h-144z"/><path d="m32-160v16h-144v-16z"/><path d="m32-208v16h-144v-16z"/><path d="m32-112v16h-144v-16z"/><path d="m32-144h-144z"/><path d="m32-192h-144z"/><path d="m32-96h-144z"/><path d="m-112-384v48 32 16 32 16 32 16 32h-16v-32-192z"/><path d="m-112-160v16 32 16 32h-16v-96z"/><path d="m-112-64h112v96h-128v-96z"/><path d="m0 32v128-32-32-32z"/><path d="m544 576h-32-192v-128-64h224z"/><path d="m624 384v128 64h-80v-192z"/><path d="m736 576h-112v-64h80 64v64z"/><path d="m704 448v-64h64v64z"/><path d="m624 384h80v64 64h-80z"/><path d="m832 576h-64v-64-64-64h64z"/><path d="m320 448v128h-32-96z"/><path d="m832-512v64z"/><path d="m576-512h-96 32z"/><path d="m352 256v-160 96z"/><path d="m832-448h-64v-64h32 32z"/><path d="m832-448h-64z"/><path d="m768-448v-64z"/><path d="m768 192h32 32z"/><path d="m384 192h64z"/><path d="m448 192v64z"/><path d="m768 256v-64z"/><path d="m832 256h-64v-64h64z"/><path d="m768 256h64z"/><path d="m448 256h-64v-64h64z"/><path d="m384 256v-64z"/><path d="m704 512v-64z"/><path d="m768 448v64z"/><path d="m768 512h-64z"/><path d="m704 448h64z"/><path d="m768 512h-64v-64h64z"/><path d="m448-448h-32z"/><path d="m448-512v64z"/><path d="m480-512h-32v64h32z"/><path d="m416-448v-64z"/><path d="m448-448h-32v-64h32z"/><path d="m416-512h32z"/><path d="m736-512h-160-64 32z"/><path d="m576-512h160 64-32z"/><path d="m800-512h32z"/><path d="m480-448h-32z"/><path d="m448-448v-64z"/><path d="m480-512v64z"/><path d="m512-512h-32v64h32z"/><path d="m480-448h-32v-64h32z"/><path d="m768-512h64-32-64z"/><path d="m768-512h-32-192 32z"/><path d="m512-448h-32z"/><path d="m512-512v64z"/><path d="m544-512h-32v64h32z"/><path d="m512-448h-32v-64h32z"/><path d="m480-448v-64z"/><path d="m-128 576v-64-160 128z"/><path d="m-128 352v-64-32z"/><path d="m-128 288v64 160-168z"/><path d="m-128 256v-128 32 32 32z"/><path d="m-64 576h64 128 32-64z"/><path d="m480-512h32z"/><path d="m800-512h-32-192 32z"/><path d="m800-512h32-64z"/><path d="m352-256v-64z"/><path d="m544-448h-32z"/><path d="m512-448v-64z"/><path d="m544-512v64z"/><path d="m576-512h-32v64h32z"/><path d="m544-448h-32v-64h32z"/><path d="m352-256h-32z"/><path d="m320 96h32z"/><path d="m64 272h-64z"/><path d="m-64 512h-64v64h64z"/><path d="m480-512h-32-32z"/><path d="m480-512h64-32z"/><path d="m832-512h-32z"/><path d="m576-448h-32z"/><path d="m576-512v64z"/><path d="m608-512h-32v64h32z"/><path d="m544-448v-64z"/><path d="m576-448h-32v-64h32z"/><path d="m832-448v-64 96z"/><path d="m832-192v224-128z"/><path d="m832-416v224-128-64z"/><path d="m832 32v96 64z"/><path d="m480-512h96-32z"/><path d="m608-512h32 192-32z"/><path d="m592-320h64-80z"/><path d="m656-320v-64z"/><path d="m640-512h-32v64h32z"/><path d="m608-448h-32v-64h16 16z"/><path d="m656-384h-16z"/><path d="m608-448h-32z"/><path d="m576-448v-64z"/><path d="m608-512v64z"/><path d="m576-384h-160-64 64z"/><path d="m352-384h-64z"/><path d="m64 272v-144-80z"/><path d="m64-64v112z"/><path d="m320-224v-32z"/><path d="m320-224v32h32v-64h-32z"/><path d="m512 576h-160-64 32z"/><path d="m736 576h-96-16-48-64 32 80z"/><path d="m832-192v96 128z"/><path d="m832-416v96 128z"/><path d="m832 192v64z"/><path d="m592-512h16z"/><path d="m656-512h176-192z"/><path d="m576 384h-32-192z"/><path d="m832 384h-64z"/><path d="m640-320h16-64z"/><path d="m832-416v-96h-176v128 64h176z"/><path d="m640-384h-48z"/><path d="m608-448v-64z"/><path d="m640-512v64z"/><path d="m640-448v-64 128z"/><path d="m656-512h-16v64 64h16z"/><path d="m640-448h-32z"/><path d="m640-448h-32v-64h32z"/><path d="m832-192v-128h-176-16v32 192h192z"/><path d="m640-96v32 192h192v-96-128z"/><path d="m640 128v32 96h32 96 64v-64-64z"/><path d="m640-320v32z"/><path d="m640 256h-32-32z"/><path d="m640 160h-32z"/><path d="m640 256v-96h-32v96z"/><path d="m672 256h-32-64-128z"/><path d="m352 256h32 64z"/><path d="m320 96v96z"/><path d="m320 256v32 56z"/><path d="m320 256v88z"/><path d="m320 344v8 32z"/><path d="m640 400v160z"/><path d="m720 400h-32z"/><path d="m768 400h-32z"/><path d="m816 400h-32z"/><path d="m768 384h-128v16h32 16 32 16 32 16 32 16v-16z"/><path d="m688 560h32z"/><path d="m784 560h32z"/><path d="m736 560h32z"/><path d="m832 400h-16v160h16z"/><path d="m784 400h-16v160h16z"/><path d="m736 400h-16v160h16z"/><path d="m688 400h-16v160h16z"/><path d="m816 560h-32-16-32-16-32-16-32v16h96 96v-16z"/><path d="m640 560v-160-16h-16v192h16z"/><path d="m608 160h-224v96h3.1605 188.8395 32z"/><path d="m640-320h-48z"/><path d="m640-288v-32 128z"/><path d="m640-64v96 128-32z"/><path d="m640-288v96 128-32z"/><path d="m640 256h-32z"/><path d="m640 160v96h-32v-96z"/><path d="m-128 256v32z"/><path d="m-128 128v-8-88 32 32z"/><path d="m-128 120v8 128 32 56-72-80z"/><path d="m624 576h-48z"/><path d="m160 576h128-192z"/><path d="m832-320v-192 128z"/><path d="m832-320v128z"/><path d="m832 256v80z"/><path d="m832 576v-16z"/><path d="m592-512h48-32z"/><path d="m656-512h-16-48z"/><path d="m352 96v-64z"/><path d="m352-192v-64z"/><path d="m656-384v-128h176v192h-176z"/><path d="m640-512h16v128h-16z"/><path d="m592-384h48 16z"/><path d="m592-384h-176 160z"/><path d="m640 32v96 128-96z"/><path d="m640-192v96 128-96z"/><path d="m640-192v-128h16 176v128 96h-192z"/><path d="m832-96v128 96h-192v-96-128z"/><path d="m832 128v128 80 16h-192v-96-128z"/><path d="m832 352v32h-192v-32z"/><path d="m320 192v-96-64 96z"/><path d="m320 32v64z"/><path d="m352 32h-32v64h32z"/><path d="m320 192v64z"/><path d="m0 272h24 16 24z"/><path d="m0 32v-96z"/><path d="m0 160v112z"/><path d="m0 160v-128 32 128 80z"/><path d="m624 576v-16h16 32 16 32 16 32 16 32 16v16z"/><path d="m688 560h-16v-160h16z"/><path d="m736 560h-16v-160h16z"/><path d="m624 384h16v16 160h-16z"/><path d="m784 560h-16v-160h16z"/><path d="m832 560h-16v-160h16z"/><path d="m832 384v16h-16-32-16-32-16-32-16-32v-16z"/><path d="m624 560v16-192z"/><path d="m640 400h32z"/><path d="m640 560h32z"/><path d="m768 560v-160z"/><path d="m816 560v-160z"/><path d="m784 400v160z"/><path d="m736 400v160z"/><path d="m720 560v-160z"/><path d="m672 560v-160z"/><path d="m688 400v160z"/><path d="m-64 576h-64v-64h64z"/><path d="m-64 512v64z"/><path d="m-128 512h64z"/><path d="m576 256h-188.8395-3.1605-32 96z"/><path d="m608 160h-224z"/><path d="m608 256h-224v-96h224z"/><path d="m-128-512v96z"/><path d="m-128-192v224-32-128z"/><path d="m-128-512v96 32z"/><path d="m224-512h64-128-64z"/><path d="m224-512h-128-96 64 128z"/><path d="m288-512h64 64-64z"/><path d="m64-384h-64z"/><path d="m224-384h64-32-64-64z"/><path d="m224-384h-96-64-64 160z"/><path d="m64-288v192 32-32z"/><path d="m64-320h192 32z"/><path d="m64-320h32 160z"/><path d="m288-320h32z"/><path d="m64-96v-192-32h-32-32v128 96z"/><path d="m0-64h64v-32h-64z"/><path d="m0-320v-64 64 128z"/><path d="m0-64h32 32z"/><path d="m0-320v-16-48z"/><path d="m352-512h-64z"/><path d="m352 128v-96 64 160z"/><path d="m352-384v-128z"/><path d="m352-320h64z"/><path d="m416-320h176-16z"/><path d="m416-512h-64v128h64z"/><path d="m416-384h-64z"/><path d="m352-96h32z"/><path d="m416-320h-64v64 64h64z"/><path d="m384 256h3.1605z"/><path d="m384 32v96 128-96z"/><path d="m384 32v-128h-32v128 96h32z"/><path d="m352 128v128h32v-128z"/><path d="m352-384h-32-32z"/><path d="m256-320h32z"/><path d="m352-192h-32z"/><path d="m320-192h32z"/><path d="m320-256v-64h-32-32v64z"/><path d="m320-320v64z"/><path d="m320-256v64-32z"/><path d="m352-96h-32v128h32z"/><path d="m320 32v-128h-32v128 96h32z"/><path d="m288 128v128h32v-64-64z"/><path d="m320 256h-32l32 32z"/><path d="m288-96v128z"/><path d="m320 344v-56z"/><path d="m320 288-32-32z"/><path d="m320 32h32z"/><path d="m320 256v-64z"/><path d="m320 344v8z"/><path d="m320 352v16 16z"/><path d="m192 344h-32v32h32z"/><path d="m48 344h-32v32h32z"/><path d="m384-64v96 128-32z"/><path d="m384-64v-32 128z"/><path d="m352-384v64z"/><path d="m416-512v128z"/><path d="m352-384v-128h64v128 64h-64z"/><path d="m416-320v128z"/><path d="m352-192h64z"/><path d="m416-320v128h-64v-64-64z"/><path d="m384 256h-32z"/><path d="m384-96v32z"/><path d="m352-96h32v32 192h-32z"/><path d="m384 128v32 96h-32v-128z"/><path d="m288-96h32 32z"/><path d="m256-256v-64z"/><path d="m320-256h-64z"/><path d="m352-256h-32v-64h32z"/><path d="m320-320v64h-64v-64z"/><path d="m288 32v96 128-128z"/><path d="m288 32v-128h64v224h-64z"/><path d="m352 128v128h-32-32v-128z"/><path d="m320 344v-56-32z"/><path d="m320 288-32-32h32z"/><path d="m320 352v-8z"/><path d="m-128 64v-32 88z"/><path d="m-128-320v-64 192z"/><path d="m352 576h-32-32z"/><path d="m288 576h32z"/><path d="m832-384v-128z"/><path d="m832 336v48 176-160-16-32z"/><path d="m832 560v-176 160z"/><path d="m256-512h32-64z"/><path d="m288-512h128-64z"/><path d="m592-512h-16-96-64 96z"/><path d="m656-512h112 64z"/><path d="m624 384h16z"/><path d="m624 384h-48z"/><path d="m320 384h32z"/><path d="m656-384v64z"/><path d="m832-384h-176v64h176z"/><path d="m656-512h-64v128h64z"/><path d="m640 256v96 32z"/><path d="m832 336v-80h-192v128h192z"/><path d="m128-384h-32-32z"/><path d="m64-512h-64v128h64z"/><path d="m256-512h-32-32v128h64z"/><path d="m0 192h-128v80h128z"/><path d="m0 32v-32h-128v32 32h128z"/><path d="m0-192h-128v64h128z"/><path d="m0-384h-128v64h128z"/><path d="m0-320v128z"/><path d="m0-192v64 128 32-96-32z"/><path d="m352 384v192z"/><path d="m352 384h-32v192h32z"/><path d="m512-512h-96-128 32 32z"/><path d="m592-320h64-16z"/><path d="m416-384h-64v64h64z"/><path d="m416-384h176-240z"/><path d="m416-384v64z"/><path d="m40 344h-16-8 32z"/><path d="m40 344h8z"/><path d="m24 272h-24z"/><path d="m40 272h-16v72h16z"/><path d="m48 368v8z"/><path d="m48 368v-16-8 32z"/><path d="m160 352v-8z"/><path d="m160 352v16 8-32z"/><path d="m160 376h32z"/><path d="m160 352h-112v16h112z"/><path d="m16 344v32z"/><path d="m16 344h8z"/><path d="m64 272h-24z"/><path d="m24 344v-72z"/><path d="m40 272v72z"/><path d="m40 344h-16v-72h16z"/><path d="m48 344v8z"/><path d="m160 376v-8z"/><path d="m160 368h-112v-16h112z"/><path d="m160 368h-112z"/><path d="m48 352h112z"/><path d="m-128 576v-192-40 168z"/><path d="m-128 192v-32-96 56z"/><path d="m-128 344v-72z"/><path d="m-128 0v-64-64z"/><path d="m-128-288v-32 128z"/><path d="m832 576h-64-144z"/><path d="m576 576h-32-192 160z"/><path d="m96 576h-224 64z"/><path d="m832 32v64 160-128z"/><path d="m832-192v64 160-128z"/><path d="m832-384v-128-64h64v224h-64z"/><path d="m896-352v224h-64v-64-128-32z"/><path d="m896-128v224h-64v-64-160z"/><path d="m896 96v224h-64v-64-160z"/><path d="m896 320v224h-64v-160-64z"/><path d="m896 544v32h-64v-16-16z"/><path d="m-128-512h128z"/><path d="m64-512h32 96z"/><path d="m256-512h32z"/><path d="m544-512h48-80z"/><path d="m96-512h-32-64-128v-64h224z"/><path d="m320-512h-32-32-64-96v-64h224z"/><path d="m544-512h-32-160-32v-64h224z"/><path d="m768-512h-112-64-48v-64h224z"/><path d="m832-576v64h-64v-64z"/><path d="m800 384h32-192-16z"/><path d="m352-256v64z"/><path d="m352 160v96 128z"/><path d="m352-64v96 128z"/><path d="m352-288v32 64 128z"/><path d="m352 256h32 192v128h-224z"/><path d="m576 256h32 32 160v128h-176-48z"/><path d="m800 256h32v64 64h-32z"/><path d="m592-384v64h-240v-64z"/><path d="m832-352v32h-176v-64h176z"/><path d="m592-384v-128h64v128 64h-64z"/><path d="m592-320h-176-64z"/><path d="m832-320h-176z"/><path d="m656-512v128z"/><path d="m656-384h176z"/><path d="m592-384v-128z"/><path d="m800 256h-160 192z"/><path d="m608 256h-32-192z"/><path d="m352-512h-32v128h32z"/><path d="m96-320h-32-64-128v-64h128 64 32z"/><path d="m128-384h64 64 32 32v56 8h-64-160v-64z"/><path d="m320-320v64h32v-32-32z"/><path d="m352-64v-128h-32v88 136h32z"/><path d="m320 32v88 136h32v-96-128z"/><path d="m256-384h-64v-128h64z"/><path d="m0-128v-64-128h64v32 192h-64z"/><path d="m64-96v32 112 80h-64v-64-64-96z"/><path d="m64 128v144h-64v-80-64z"/><path d="m64-384h-64v-128h64z"/><path d="m-128 0h128v64h-128z"/><path d="m0-128h-128v-64h128z"/><path d="m0 272h-128v-80h128z"/><path d="m320-384v-128 184z"/><path d="m192-384h-64z"/><path d="m288-384h-32z"/><path d="m-128-384h128z"/><path d="m64-512v128z"/><path d="m192-384v-128z"/><path d="m256-512v128z"/><path d="m0-384v-128z"/><path d="m64-320v32z"/><path d="m64-64v112z"/><path d="m320-320h32-32-64z"/><path d="m352-192h-32z"/><path d="m320-256h32z"/><path d="m352 256h-32z"/><path d="m0 272h-128z"/><path d="m64 272h-24-16-24z"/><path d="m0-128h-128z"/><path d="m0-320h-128z"/><path d="m-128-192h128z"/><path d="m-128 0h128z"/><path d="m0-96v96-128z"/><path d="m0 64h-128z"/><path d="m0 64v64 64z"/><path d="m-128 192h128z"/><path d="m320 352v-8z"/><path d="m320 384v192z"/><path d="m96 640h-224v-64h224z"/><path d="m320 640h-224v-64h192 32z"/><path d="m544 640h-224v-64h32 192z"/><path d="m768 640h-224v-64h32 48 144z"/><path d="m832 576h64v64h-128v-64z"/><path d="m-128-512h-64v-64h64z"/><path d="m-128 640h-64v-64h64z"/><path d="m-192-512h64v128 64 32h-64z"/><path d="m-128-288v96 64 64h-64v-224z"/><path d="m-128-64v64 64 96h-64v-224z"/><path d="m-128 160v32 80 72 40h-64v-224z"/><path d="m-128 384v192h-64v-192z"/><path d="m192 344h-32z"/><path d="m320-512v184z"/><path d="m320 120v224-88z"/><path d="m320-104v224-88z"/><path d="m320-328v224-88-64-64z"/><path d="m192 376v-8-16-8z"/><path d="m192 368v8z"/><path d="m320 344v8 16-16z"/><path d="m320 368v-16h-128v16z"/><path d="m320 352h-128z"/><path d="m320-512v184z"/><path d="m320 120v224z"/><path d="m320-104v224z"/><path d="m320-328v224z"/><path d="m192 344v8z"/><path d="m320 344v8z"/><path d="m320 352v16h-128v-16z"/><path d="m320 368h-128z"/><path d="m352-512h-32z"/><path d="m192 376h-32v-32h32z"/><path d="m48 376h-32v-32h32z"/><path d="m352 160v224z"/><path d="m352-64v224z"/><path d="m352-288v224z"/><path d="m320-328v-184 208z"/><path d="m352-512v128 64 32z"/><path d="m16 344h8 16 8z"/><path d="m320 120v24 200z"/><path d="m320-104v24 200z"/><path d="m320-328v24 200z"/><path d="m48 376v-32 8 16z"/><path d="m192 344v8 16 8z"/><path d="m320 344v24-16z"/><path d="m320 384v-16z"/><path d="m160 344v32-8-16z"/><path d="m16 376h32z"/><path d="m352 384v192z"/><path d="m352 576h-32z"/><path d="m320-304v-208h32v224h-32z"/><path d="m352-288v224h-32v-16-208z"/><path d="m352-64v224h-32v-16-208z"/><path d="m352 160v224h-32v-16-208z"/><path d="m352 384v192h-32v-192z"/><path d="m352-512v224z"/><path d="m320 368v16z"/><path d="m320 144v16 208-24z"/><path d="m320-80v16 208-24z"/><path d="m320-304v16 208-24z"/></g></defs><path d="m-441-697h1458v1458h-1458z" fill="#fff"/><g stroke="#000"><use fill="none" stroke-miterlimit="0" stroke-width="15" xlink:href="#a"/><use fill="#fff" xlink:href="#a"/></g></svg>