<svg viewBox="-712 -1408 1460 2080" xmlns="http://www.w3.org/2000/svg" xmlns:xlink="http://www.w3.org/1999/xlink"><defs><g id="a"><path d="m48-928v-32h16v64h-16z"/><path d="m48-928v32h-96v-32z"/><path d="m-64-896v-64h16v32 32z"/><path d="m-48-896h96 16v96h-128v-96z"/><path d="m64-896v-64 160z"/><path d="m-48-960h-16z"/><path d="m-64-800h16z"/><path d="m48-800h16z"/><path d="m-48-976h-16z"/><path d="m64-976h-16z"/><path d="m-48-976h-16v176h16z"/><path d="m64-976h-16v176h16z"/><path d="m48-976v16 160z"/><path d="m-64-976v16 160z"/><path d="m48-928h-96z"/><path d="m48-928h-96v32h96z"/><path d="m48-896h-96z"/><path d="m48-896h-96v32h96z"/><path d="m-320-1104v-64z"/><path d="m-384-1168v64z"/><path d="m-320-1104h-64v-64h64z"/><path d="m-320-1344h-64v-64h64z"/><path d="m-384-1408v64z"/><path d="m-96-1168v-32h32v128h-32z"/><path d="m-64-1072v-128h128v240h-16-96-16z"/><path d="m48-864h-96v32h96z"/><path d="m-320-1344 32 32h-32z"/><path d="m-128-1168v-32h32v32z"/><path d="m-256-1168h-64v-144h32 128l32 64v48 32z"/><path d="m-416-1312 32-32v176 64h-32z"/><path d="m-320-1312v144h-64v-176h64z"/><path d="m-128-1072h-128v-32-64h128 32v96z"/><path d="m-160-960h-96v-112h128v48z"/><path d="m-256-1168v64h-64v-64z"/><path d="m-272-960h-144v-128-16h32 64 64v32 112z"/><path d="m-480-1184h-32-64v-16-16h96z"/><path d="m-512-1104v-64-16h32v96h-32z"/><path d="m-464-1232v-80h48v208 16h-48z"/><path d="m-416-1088v128h-48v-80-48z"/><path d="m-464-1312v80h-16-96v-16l32-64z"/><path d="m-480-1056v-32-96-32-16h16v144 48h-16z"/><path d="m-512-1168h-16-48v-16h64z"/><path d="m-480-1216h-96v-16h96z"/><path d="m-528-1104h-48v-64h48z"/><path d="m-528-1104h16v16h-64v-16z"/><path d="m-512-1088h32v32h-96v-32z"/><path d="m-480-1040h-96v-16h96z"/><path d="m-544-960-32-64v-16h96 16v80z"/><path d="m-512-1104h-16v-64h16z"/><path d="m-160-1312h-128z"/><path d="m64-1200v160 80z"/><path d="m64-960v64 96z"/><path d="m-256-960h96-96-16z"/><path d="m-128-1024v-48z"/><path d="m-96-1072h32-64z"/><path d="m-64-960v64 96z"/><path d="m64-960h-16z"/><path d="m48-960v32z"/><path d="m-48-928v-32z"/><path d="m-48-896v-32z"/><path d="m48-928v32z"/><path d="m48-864h-96z"/><path d="m48-896v32z"/><path d="m-48-864v-32z"/><path d="m-64-800h128z"/><path d="m-384-1104h64z"/><path d="m-320-1168h-64z"/><path d="m48-976h16v16h-16z"/><path d="m-64-976h16v16h-16z"/><path d="m48-928h-96v-32h96z"/><path d="m-48-960v32z"/><path d="m-48-960h96z"/><path d="m48-928v-32z"/><path d="m48-832h-96z"/><path d="m-48-928v32z"/><path d="m48-832v-32z"/><path d="m48-832h-96v32h96z"/><path d="m48-800h-96-16 128z"/><path d="m-576-1104v-64-16 16 64 16z"/><path d="m-576-1184v-16z"/><path d="m-608-1104h2z"/><path d="m-592-1104h16z"/><path d="m-606-1104h14z"/><path d="m-592-1168h-14z"/><path d="m-606-1168h-2z"/><path d="m-606-1104v-64h14v64z"/><path d="m-592-1104v-64h16v64z"/><path d="m-608-1168v64z"/><path d="m-608-1104v-64h2v64z"/><path d="m-48-960v-16 176z"/><path d="m64-960v-16 176z"/><path d="m-576-1168h-16v64h16z"/><path d="m-320-1408h-64v16h64z"/><path d="m-144-1040h-64v64h64z"/><path d="m-320-1408h-64z"/><path d="m-320-1344v-64z"/><path d="m-160-1312h-128z"/><path d="m-544-1312h128-48z"/><path d="m-288-1312-32-32z"/><path d="m-384-1344-32 32z"/><path d="m64-800v-96 64z"/><path d="m64-1200h-128-32-32z"/><path d="m-128-1200v-48z"/><path d="m-128-1248-32-64z"/><path d="m-576-1232v-16z"/><path d="m-576-1232v-16z"/><path d="m-576-1248 32-64z"/><path d="m-64-896v-64 160z"/><path d="m-64-1008v-32-32 112z"/><path d="m-48-928h96z"/><path d="m-48-896v32z"/><path d="m48-896v-32z"/><path d="m48-896h-96v-32h96z"/><path d="m64-800h-16z"/><path d="m-256-960h-16z"/><path d="m-128-1024v-48z"/><path d="m-64-1072h-32-32z"/><path d="m-160-960 32-64z"/><path d="m-272-960h-144z"/><path d="m-416-960h-32-96 80z"/><path d="m-576-1040v16z"/><path d="m-576-1040v-16z"/><path d="m-576-1024 32 64z"/><path d="m-144-1040v64z"/><path d="m-208-1040h64z"/><path d="m-208-976v-64z"/><path d="m-144-976h-64z"/><path d="m-144-976h-64v-64h64z"/><path d="m-48-864v32z"/><path d="m48-864v-32z"/><path d="m-48-896h96z"/><path d="m48-864h-96v-32h96z"/><path d="m64-896v-64-80 32z"/><path d="m48-832h-96v-32h96z"/><path d="m-48-864h96z"/><path d="m-48-832v32z"/><path d="m-256-960h-16z"/><path d="m-272-960h-144z"/><path d="m-448-960h-96z"/><path d="m-416-960h-32z"/><path d="m288-16h-16z"/><path d="m176-16h-16z"/><path d="m272 160h16z"/><path d="m160 160h16z"/><path d="m176 160v-160-16z"/><path d="m288-16h-16v176h16z"/><path d="m272-16v16 160z"/><path d="m288 160v-160-16z"/><path d="m176-16h-16v176h16z"/><path d="m160-16v16 160z"/><path d="m-64-800v-64-32z"/><path d="m-64-864v64-32z"/><path d="m-64-896v-112 48z"/><path d="m-48-832h96z"/><path d="m48-800h-96v-32h96z"/><path d="m48-800v-32z"/><path d="m-48-800h-16z"/><path d="m-592-1168h16z"/><path d="m-576-1104h-16v-64h16z"/><path d="m-576-1104h-16z"/><path d="m-576-1168v64z"/><path d="m-592-1104v-64z"/><path d="m32-512v64z"/><path d="m-32-448v-64z"/><path d="m32-448h-64v-64h64z"/><path d="m-320-1408h-64z"/><path d="m-320-1408v64z"/><path d="m512-160v-96z"/><path d="m512-608v64z"/><path d="m520-128h-8z"/><path d="m512-64v-64h8v64z"/><path d="m464-608h48z"/><path d="m240-720v112z"/><path d="m64-800v80z"/><path d="m64-672h64 96v64h-32-64-64z"/><path d="m128-704v-16h96v48h-96z"/><path d="m224-672v-48h16v112h-16z"/><path d="m128-672v-32z"/><path d="m-128-704h-96z"/><path d="m-64-720v-80h128v80 16h-128z"/><path d="m-64-800h16 96 16z"/><path d="m-272-960h16z"/><path d="m-416-944v-16h128v16z"/><path d="m-272-960h-16-128z"/><path d="m64-704v32h-32-64-32v-32z"/><path d="m32-608v-64h32v64z"/><path d="m-96-672h32 32v64h-64z"/><path d="m-32-672h64v64h-64z"/><path d="m-128-672h32v64h-32z"/><path d="m-224-704h96v32 64h-64-32z"/><path d="m-448-960h32-16z"/><path d="m-416-960h-32z"/><path d="m352-416v-128-64h48 64 48v64 160h-160z"/><path d="m512-384v64h-160v-64z"/><path d="m192-544h32 128v128h-128-32-64v-128z"/><path d="m-32-608v96 64h-64v-80-80z"/><path d="m32-608v96h-64v-96z"/><path d="m32-368v-80-64-96h32v224 16z"/><path d="m128-384v-32h64v64h-64z"/><path d="m128-544v-64h64v64z"/><path d="m64-608h64v64 128 32h-64z"/><path d="m128-384v32 64h-64v-80-16z"/><path d="m-32-448h64v80h-96-32v-80z"/><path d="m-96-608v80h-32v-80z"/><path d="m-128-608v80h-64v-16-64z"/><path d="m-320-544h96 32v16h-32-32-32-32-32v-16z"/><path d="m-192-416v-16-96h64 32v80 80h-32-64z"/><path d="m-320-432h32 32 32 32v16h-128-32v-16z"/><path d="m512-256v96 16h-32-128v-16-96z"/><path d="m512-320v16h-160v-16z"/><path d="m512-272v16h-160v-16z"/><path d="m512-304v32h-160v-32z"/><path d="m480-128h-192-32v-16h96 128z"/><path d="m512-144v16h-32v-16z"/><path d="m480-128h32v64 32h-224v-96z"/><path d="m352-160v16h-96v-16z"/><path d="m128-256v-32-64h64 32 16v112h-112z"/><path d="m160-160h96v16 16h-96z"/><path d="m160-64v-64h96 32v96 32h-128z"/><path d="m160-128v64h-8v-64z"/><path d="m32-368h32v80 64h-16-96-16v-32-32-80z"/><path d="m-96-368h32v80h-64v-80z"/><path d="m-128-368v80 32h-64v-96-16z"/><path d="m-192-256h-32v-96h32z"/><path d="m-64-256v32z"/><path d="m352-416h-112-16z"/><path d="m192-544h32z"/><path d="m192-352h32z"/><path d="m192-416h32v64h-32z"/><path d="m48-224h-16-64-16z"/><path d="m64-288v18.6667 13.3333 32z"/><path d="m128-288v32h-64v-13.3333-18.6667z"/><path d="m288-32v32z"/><path d="m512-32h-192-32z"/><path d="m152-64h8z"/><path d="m152-128v64z"/><path d="m-192-416h-18.6667-13.3333-96z"/><path d="m-320-544h-32z"/><path d="m-224-256h32 64z"/><path d="m32-512h-64z"/><path d="m-32-448h64z"/><path d="m-352-544v16z"/><path d="m-352-432v16z"/><path d="m-352-528h32 128 16z"/><path d="m-352-544v16h176v-16z"/><path d="m-176-544h-16-128-32z"/><path d="m-176-528h-16v-16h16z"/><path d="m-176-432h-16-128-32z"/><path d="m-352-432v16h176v-16z"/><path d="m-352-416h32 128 16z"/><path d="m-176-416h-16v-16h16z"/><path d="m64-800h-16v-160h16z"/><path d="m-48-800h-16v-160h16z"/><path d="m272-16h16v16h-16z"/><path d="m160-16h16v16h-16z"/><path d="m-576-1168v-16z"/><path d="m-608-1104h-16z"/><path d="m-576-1168h-16z"/><path d="m-606-1104v-64z"/><path d="m-606-1168v64z"/><path d="m-576-1168h-16v64h16z"/><path d="m-592-1168h-14v64h14z"/><path d="m-592-1104v-64z"/><path d="m-592-1168v64z"/><path d="m-606-1168h-2v64h2z"/><path d="m-48-224h-16z"/><path d="m-48-224h16z"/><path d="m48-192v16z"/><path d="m-32-208h64v14h-64z"/><path d="m-32-224h64v16h-64z"/><path d="m-32-224v16z"/><path d="m-32-208v14z"/><path d="m32-208v-16z"/><path d="m32-194v-14z"/><path d="m48-192h-16z"/><path d="m-32-192h64 16-96z"/><path d="m-32-194h64v2h-64z"/><path d="m32-192v-2z"/><path d="m-32-194v2z"/><path d="m288 32v-32-32z"/><path d="m160 0v32z"/><path d="m160 0v-64z"/><path d="m160 0h128z"/><path d="m160 32v-32h128v32z"/><path d="m-192-528v96z"/><path d="m-224-528h-32z"/><path d="m-224-528h32z"/><path d="m-192-432h-32z"/><path d="m-192-432h-32v-96h32z"/><path d="m32-224h-64v16h64z"/><path d="m-320-1408v16z"/><path d="m-384-1392v-16z"/><path d="m-384-1408h64z"/><path d="m-320-1392h-64z"/><path d="m512-608h-64v64h64z"/><path d="m512-512h-64v64h64z"/><path d="m224-608h16z"/><path d="m224-608h-32z"/><path d="m240-720v96 16z"/><path d="m64-704v-16z"/><path d="m64-704v32z"/><path d="m128-720v16z"/><path d="m240-720h-16-96z"/><path d="m-416-960v16z"/><path d="m-64-720v16z"/><path d="m-416-944h128z"/><path d="m-288-944v-16z"/><path d="m-64-704v32z"/><path d="m-576-1168v64z"/><path d="m-624-1168h16z"/><path d="m-608-1104v-64z"/><path d="m-64-256v-32z"/><path d="m-64-224v-32z"/><path d="m128-256v16z"/><path d="m128-256v-32z"/><path d="m240-352h-16z"/><path d="m240-240v-112z"/><path d="m128-240h112z"/><path d="m288 64v-32-64z"/><path d="m160 0v32 32z"/><path d="m160 64v-32h128v32z"/><path d="m160 32h128z"/><path d="m-256-528h-32z"/><path d="m-256-432h32z"/><path d="m-224-528v96z"/><path d="m-224-432h-32v-96h32z"/><path d="m448-608h64z"/><path d="m512-608v64z"/><path d="m512-544h-64z"/><path d="m448-544v-64z"/><path d="m512-544h-64v-64h64z"/><path d="m512-448h-64z"/><path d="m512-512v64z"/><path d="m448-512h64z"/><path d="m448-448v-64z"/><path d="m512-448h-64v-64h64z"/><path d="m288 96v-32-96z"/><path d="m160 0v64 32z"/><path d="m160 64h128z"/><path d="m160 96v-32h128v32z"/><path d="m-288-528h-32z"/><path d="m-256-528v96z"/><path d="m-288-432h32z"/><path d="m-256-432h-32v-96h32z"/><path d="m-384-1344h16z"/><path d="m-384-1344v-64z"/><path d="m512-256v-16z"/><path d="m512-304v-16z"/><path d="m512-272v-32z"/><path d="m512-544v224-64z"/><path d="m-416-1312h-128z"/><path d="m-320-1344h-16v32h48z"/><path d="m-368-1312v-32h-16l-32 32z"/><path d="m-336-1344v32z"/><path d="m-288-1312-32-32z"/><path d="m-384-1344-32 32z"/><path d="m400-608h-48z"/><path d="m464-608h-64z"/><path d="m64-1200v48 112z"/><path d="m-96-1200h160-192z"/><path d="m-368-1312v16z"/><path d="m-336-1312v16h48v-16z"/><path d="m-160-1312-8 16 24 48h16z"/><path d="m-128-1248h-16v48h16z"/><path d="m-288-1296h120l8-16h-128z"/><path d="m-144-1200v-48z"/><path d="m-128-1200v-48z"/><path d="m-128-1248-32-64z"/><path d="m-576-1232v16-16-16z"/><path d="m-576-1216v-16z"/><path d="m-368-1296v-16h-48v16z"/><path d="m-544-1312-8 16h136v-16z"/><path d="m-576-1248 24-48z"/><path d="m-552-1296 8-16-32 64z"/><path d="m-128-1200v16h32v-16z"/><path d="m-144-1200v16h16v-16z"/><path d="m-96-1200v16z"/><path d="m-160-960h-96z"/><path d="m-96-1088h-32v16h32z"/><path d="m-128-1072v-16h-16v64h16z"/><path d="m-128-1024h-16l-24 48 8 16z"/><path d="m-272-960h16 96l-8-16h-72z"/><path d="m-128-1088h32-32-16z"/><path d="m-144-1088v64z"/><path d="m-240-976-32 16z"/><path d="m-160-960 32-64z"/><path d="m-288-960v16z"/><path d="m-288-960h16z"/><path d="m-128-704v32z"/><path d="m-224-704v96z"/><path d="m-416-960h-16z"/><path d="m-576-1168v64z"/><path d="m-576-1040v16z"/><path d="m-576-1088v-16z"/><path d="m-576-1168v64 16z"/><path d="m-448-960h16l-32-16h-88l8 16z"/><path d="m-464-976h-88z"/><path d="m-432-960-32-16z"/><path d="m-544-960-8-16-24-48z"/><path d="m352-160h32z"/><path d="m352-608v64z"/><path d="m352-416v32 64z"/><path d="m352-256v96z"/><path d="m352-272v16z"/><path d="m352-320v16z"/><path d="m352-304v32z"/><path d="m512-608h-48-64-48l32 32h96z"/><path d="m512-160v-96h-32v96z"/><path d="m512-608-32 32v32h32z"/><path d="m352-608v64h32v-32z"/><path d="m288 128v-32-128z"/><path d="m160 128v-32h128v32z"/><path d="m160 96h128z"/><path d="m-320-528h-32z"/><path d="m-320-432h32z"/><path d="m-288-528v96z"/><path d="m-288-432h-32v-96h32z"/><path d="m-224-352v96z"/><path d="m-224-256h96z"/><path d="m-224-352h32z"/><path d="m288 160v-32-160 32z"/><path d="m160-64v64 96 32z"/><path d="m160 128h128z"/><path d="m160 160v-32h128v32z"/><path d="m-352-528v-16z"/><path d="m-352-528v96z"/><path d="m-320-432h-32v-96h32z"/><path d="m-352-432h32z"/><path d="m-320-528v96z"/><path d="m32-224v16z"/><path d="m32-208h-64v-16h64z"/><path d="m-32-208v-16z"/><path d="m32-208h-64z"/><path d="m-32-224h64z"/><path d="m-608-1104h-64v-64h64z"/><path d="m-224-128v-64z"/><path d="m-160-192v64z"/><path d="m-160-128h-64v-64h64z"/><path d="m144 320h-64z"/><path d="m144 256v64h-64v-64z"/></g><g id="b"><path d="m-704-1232v16z"/><path d="m-704-1184v16z"/><path d="m-336-1344h16z"/><path d="m48 480h-112z"/><path d="m-384-1344h16v32h-16z"/><path d="m-336-1312v-32h16v32z"/><path d="m-384-1344v32z"/><path d="m-368-1344v32z"/><path d="m64-896v-112 144z"/><path d="m64-832v32z"/><path d="m64-896v32 32z"/><path d="m-16-1200h32 48-160z"/><path d="m-336-1312v16z"/><path d="m-144-1200v-48h16v48z"/><path d="m-128-1248h-16l-24-48 8-16z"/><path d="m-320-1312h32 128l-8 16h-152z"/><path d="m-320-1296h-16v-16h16z"/><path d="m-320-1296h152-120-48z"/><path d="m-144-1248-24-48z"/><path d="m-592-1254v6 16h-48l40-80h8z"/><path d="m-592-1232h16v16h-72l8-16z"/><path d="m-576-1216v16h-80l8-16z"/><path d="m-576-1232h-16v-16h16z"/><path d="m-562-1312 10 16-24 48h-16v-6z"/><path d="m-562-1312-30 58v-58z"/><path d="m-448-1312h32 32 16v16h-184l-10-16z"/><path d="m-576-1200v-16z"/><path d="m-368-1296h-48-136z"/><path d="m-144-1184v-16z"/><path d="m-144-1184v-16h16 32v16z"/><path d="m-16-1200v32h32v-32z"/><path d="m-96-1184h-32-16z"/><path d="m-128-704h-96z"/><path d="m-272-832v-8z"/><path d="m-64-864v-32z"/><path d="m-64-1008v-32z"/><path d="m-64-1040v-32z"/><path d="m64-1040h-32v32h32z"/><path d="m64-864h-16-16z"/><path d="m64-832v-32h-32v32z"/><path d="m-96-1088v16z"/><path d="m-128-1088h32v16h-32z"/><path d="m-144-1088h16v16 48h-16z"/><path d="m-160-960-8-16 24-48h16z"/><path d="m-240-976h72l8 16h-96-16z"/><path d="m-240-976h72z"/><path d="m-168-976 24-48z"/><path d="m-256-704v-32h32v32z"/><path d="m-128-704h-96v-32h96z"/><path d="m-272-736h16v32h-16z"/><path d="m-224-736h-32-16v-96h80l64 32v64z"/><path d="m-288-960h16z"/><path d="m-272-832v96h-64v-96-8h64z"/><path d="m-352-704v-32h16 64v32z"/><path d="m-336-736h-16v-96h16z"/><path d="m-416-832h64v96 32h-64z"/><path d="m-336-840v8z"/><path d="m-224-640v-64 96z"/><path d="m-256-640h32v32h-96-32v-32z"/><path d="m-352-704v64 32h-64v-96z"/><path d="m-256-640h-96v-64h80 16z"/><path d="m-256-640v-64h32v64z"/><path d="m-592-1184v16h-16-64l8-16z"/><path d="m-576-1200v16h-16-72l8-16z"/><path d="m-592-1104v-64-16h16v16 80h-16z"/><path d="m-576-1024 24 48-10 16-30-58.001v-5.999z"/><path d="m-562-960h-30v-58.001z"/><path d="m-432-960h-16-96-18l10-16h88z"/><path d="m-592-1104h-16v-64h16z"/><path d="m-592-1088h16v32h-112v-32z"/><path d="m-672-1104h64 16v16h-96v-16z"/><path d="m-576-1056v16h-16-96v-16z"/><path d="m-672-1168v64h-16v-32z"/><path d="m-672-960-16-32v-48h96v16 5.999 58.001z"/><path d="m-576-1024h-16v-16h16z"/><path d="m-576-1056v-32z"/><path d="m-576-1040v16z"/><path d="m-576-1024 24 48z"/><path d="m-672-1168v64z"/><path d="m-608-1104v-64z"/><path d="m-608-1104h-64z"/><path d="m-672-1168h64z"/><path d="m-480-624v-48-128l64-32v128 96h-64z"/><path d="m-480-800 64-32z"/><path d="m-544-672h64-192z"/><path d="m-672-896v160 64z"/><path d="m-480-800v128h-64v-64-64z"/><path d="m-672-896v-64h80 30 18v160 64h-128z"/><path d="m-544-736v64h-128v-64z"/><path d="m-544-960v160z"/><path d="m288-32v32z"/><path d="m512-32h-192z"/><path d="m152-64h8z"/><path d="m288 160h-128z"/><path d="m160 96v-160 192 32z"/><path d="m160 96v64h-16-64-144v-64z"/><path d="m-64 224v-64h144v64z"/><path d="m144 160h16 128v64h-144z"/><path d="m144 160v64h-64v-64z"/><path d="m-416-96h32z"/><path d="m-352-416v-16z"/><path d="m-320-416h-32z"/><path d="m-320-608v16 32 16z"/><path d="m-224-544h32z"/><path d="m-320-544h16z"/><path d="m-304-544h80-96z"/><path d="m-352-608h32v64h-32z"/><path d="m-224-352v96z"/><path d="m-224-128h64z"/><path d="m-160-192h-64v-32h64z"/><path d="m-160-128v-64-32h32v96z"/><path d="m-224-256h96v32h-32-64z"/><path d="m-128-128v-96-32z"/><path d="m-160-192h-64z"/><path d="m-192-96h-32v-32h64 32z"/><path d="m-192-96 64-32-16 8z"/><path d="m-256-352v32h-64v-32z"/><path d="m-256-224h-96v-96h32 64z"/><path d="m-352-144v-80h96 32v32 64 32h-32-96z"/><path d="m-224-256v32h-32v-96-32h32z"/><path d="m-352-368v-48h32v48 16 32h-32z"/><path d="m-320-416v16 32z"/><path d="m-480-368h64 64v48 96 80h-128z"/><path d="m-352-144v48h-32-32l-64-32v-16z"/><path d="m-528-400v-32h64 32v32z"/><path d="m-528-384v-16h96v16z"/><path d="m-480-368-48-16h96 16v16z"/><path d="m-480-448h-48v-64h48z"/><path d="m-528-432v-16h48 16v16z"/><path d="m-432-432h-32v-16-64-16h32z"/><path d="m-464-448h-16v-64h16z"/><path d="m-464-512h-16-48v-16h64z"/><path d="m-480-576h-48l48-16z"/><path d="m-432-400v-32-96-32-16h16v192h-16z"/><path d="m-432-560v32h-32-64v-32z"/><path d="m-480-576h48v16h-96v-16z"/><path d="m-416-608v32h-16-48v-16-16z"/><path d="m-352-608v64 16 96 16 48h-64v-16-192-32z"/><path d="m-480-144v16-80-32-96-32z"/><path d="m-480-608v16z"/><path d="m-480-128 64 32-32-16z"/><path d="m-384 0v-96h32 96v96 128h-128z"/><path d="m-256 128v96h-128v-96z"/><path d="m-384 0v128 96z"/><path d="m-256-96v96z"/><path d="m-560-512v64z"/><path d="m-688-992-16-32v-16h16z"/><path d="m-688-1104h-16l16-32z"/><path d="m-688-1040h-16v-16h16z"/><path d="m-688-1088h-16v-16h16z"/><path d="m-688-1056h-16v-32h16z"/><path d="m-672-1168h-32v-16h40z"/><path d="m-656-1200-8 16h-40v-32h56z"/><path d="m-648-1216h-56v-16h64z"/><path d="m-640-1232h-64v-16l32-64h72z"/><path d="m-704-1168h32l-16 32-16 32z"/><path d="m-64 352v-128h144v32 64 32z"/><path d="m160 480h-112-112v-128h144 80z"/><path d="m288 352v128h-112-16v-128z"/><path d="m144 320h144v32h-128-80v-32z"/><path d="m288 224v32 64h-144v-64-32z"/><path d="m144 224v32h-64v-32z"/><path d="m144 256h-64z"/><path d="m80 320v-64z"/><path d="m144 256v64z"/><path d="m-384 224v128z"/><path d="m-160 352h-224v-128h128 96z"/><path d="m-64 224v128h-96v-128z"/><path d="m-64 352h-96z"/><path d="m176 480-32 32h-64l-32-32z"/><path d="m144 512v64h-64v-64z"/><path d="m144 576h-64z"/><path d="m144 576v-64z"/><path d="m-712-1104v-64h8v64z"/><path d="m-704-1168h-8z"/><path d="m-712-1104h8z"/><path d="m-352-528v-16h32v16z"/><path d="m-320-528v-16h128v16z"/><path d="m-352-416v-16h32v16z"/><path d="m-320-416v-16h128v16z"/><path d="m288 160h-16v-160h16z"/><path d="m176 160h-16v-160h16z"/><path d="m16-1200h32 16z"/><path d="m-144-1184v32z"/><path d="m48-1168v16-32z"/><path d="m-96-1152h112 16 16v-16h-32-32-80z"/><path d="m-16-1184h-80v16h80z"/><path d="m48-1184h-32v16h32z"/><path d="m-96-1168v-16h-48v32h48z"/><path d="m-16-1184v-16z"/><path d="m16-1184h32z"/><path d="m-96-1184h80-112-16z"/><path d="m-16-1184v16-32z"/><path d="m16-1184v-16 32z"/><path d="m-16-720v-80h-16-16v80 16h32z"/><path d="m48-720v-80h-16-16v80 16h32z"/><path d="m-48-832v32h16v-32z"/><path d="m32-832v32h16v-32z"/><path d="m-48-1088h16 16v-32h-48v32z"/><path d="m-16-944v-144h-16v48 32 144h16z"/><path d="m-32-864v32 32h16v-64z"/><path d="m-32-1008h-16v144h16z"/><path d="m32-1008v-32-112h-16v208 16h16z"/><path d="m16-928v128h16v-32-32-64z"/><path d="m48-1152h-16v112h16z"/><path d="m48-1008h-16v80 64h16z"/><path d="m-32-1088h-16v48h16z"/><path d="m16-1152v16 192z"/><path d="m48-864h16z"/><path d="m48-1040h16z"/><path d="m-16-1120h-48z"/><path d="m-16-944v80 64 80-192z"/><path d="m-48-1008h-16z"/><path d="m-48-1040v-48z"/><path d="m-48-1008v144z"/><path d="m-48-832h-16z"/><path d="m-48-800v-32 112z"/><path d="m16-704v-16z"/><path d="m-48-1040h-16 32z"/><path d="m48-1040h-16 32z"/><path d="m-48-1008h16-32z"/><path d="m48-1008h16-32z"/><path d="m-32-1040h-32v32h32z"/><path d="m48-832h16-32z"/><path d="m-48-832h16-32z"/><path d="m-48-864h-16 32z"/><path d="m-32-864h-32v32h32z"/><path d="m-64-1088h-80 16z"/><path d="m-64-1120h-80v32h80z"/><path d="m-528-528v-32z"/><path d="m-528-448v-64-16 16 64 16z"/><path d="m288-528h-64v32h64z"/><path d="m288-464h-64v32h64z"/><path d="m64-224h-16z"/><path d="m32-224h16z"/><path d="m64-269.3333v13.3333z"/><path d="m-32-194h64z"/><path d="m32-194h-64z"/><path d="m-32-208h64v-16h-64z"/><path d="m-32-194h64v-14h-64z"/><path d="m-32-208h64z"/><path d="m32-208h-64z"/><path d="m-32-192h-16z"/><path d="m-32-192h64v-2h-64z"/><path d="m-320-544v-16z"/><path d="m-320-560h8z"/><path d="m-320-560v-32h8v32z"/><path d="m-312-592h-8z"/><path d="m-304-544h80z"/><path d="m-320-368h8z"/><path d="m-320-368v-32h8v32z"/><path d="m-312-400h-8z"/><path d="m-320-368v16z"/><path d="m-528-448h-16v-64h16z"/><path d="m-544-448h-14v-64h14z"/><path d="m-528-448h-16z"/><path d="m-560-448v16z"/><path d="m-558-448h-2v-64h2z"/><path d="m-560-512h2z"/><path d="m-528-512h-16v64h16z"/><path d="m-320 288h-64v64h64z"/><path d="m144 560h-64v16h64z"/><path d="m176 480h112z"/><path d="m-64 480h112z"/><path d="m-64 224h-96-96z"/><path d="m512-64v32z"/><path d="m512-128v-16-16z"/><path d="m512-64v-64-32 128z"/><path d="m520-64h-8z"/><path d="m512-128v64h8v-64z"/><path d="m520-128v64z"/><path d="m64-720v16z"/><path d="m-16-1200h-80-32z"/><path d="m-128-1152h-16z"/><path d="m-128-1152h64 80-112-48z"/><path d="m64-1200h-16v16 32h16z"/><path d="m-16-1184v-16h-112v16z"/><path d="m48-1184v-16h-32v16z"/><path d="m-128-1184v-16z"/><path d="m16-1200v16z"/><path d="m-64-800v80z"/><path d="m-64-800v-32z"/><path d="m16-720h-32z"/><path d="m-48-720h-16z"/><path d="m16-944v32 192-80-128z"/><path d="m64-1008h-16z"/><path d="m48-1152v112h16v-112z"/><path d="m48-1152v112z"/><path d="m48-1008v144z"/><path d="m64-1008h-16v144h16z"/><path d="m64-832h-16z"/><path d="m48-832v32 80z"/><path d="m64-800v-32h-16v112h16z"/><path d="m-48-832h-16v32 80h16z"/><path d="m-48-1088h-16v16 32h16z"/><path d="m-48-1008h-16v112 32h16z"/><path d="m-16-1136h32v-16h-80v16z"/><path d="m-16-1120v-16h-48v16z"/><path d="m16-944v-192h-32v16 32 144 32h32z"/><path d="m-16-912v192h32v-192z"/><path d="m-48-1088h-16z"/><path d="m-16-1120v32z"/><path d="m-16-1088v144z"/><path d="m-64-864h16z"/><path d="m-64-1040h16z"/><path d="m48-720v16z"/><path d="m-48-720v16z"/><path d="m-128-1088h-16z"/><path d="m-144-1120v32z"/><path d="m-64-1120v-16-16h-64v32z"/><path d="m-128-1120v-32z"/><path d="m-64-1120h-64-16z"/><path d="m-96-1072h32v-16h-64v16z"/><path d="m-64-1072h-32z"/><path d="m-128-1072h32z"/><path d="m-64 128v96z"/><path d="m-64 128v-32 64 64z"/><path d="m-64 96v32z"/><path d="m512-160h-32z"/><path d="m480-544v-32h-96v32 128 64h96z"/><path d="m384-352v32h96v-32z"/><path d="m352-528v96 16h32v-128h-32z"/><path d="m480-160v-96h-96v96z"/><path d="m480-272v-32h-96v32z"/><path d="m480-256v-16h-96v16z"/><path d="m480-304v-16h-96v16z"/><path d="m480-304h32v-16h-32z"/><path d="m480-256h32v-16h-32z"/><path d="m480-272h32v-32h-32z"/><path d="m480-544v192 32h32v-224z"/><path d="m352-416h32z"/><path d="m384-544h-32z"/><path d="m384-352v-64h-32v96h32z"/><path d="m384-320h-32v16h32z"/><path d="m384-256h-32v96h32z"/><path d="m384-272h-32v16h32z"/><path d="m384-304h-32v32h32z"/><path d="m224-416h-32z"/><path d="m224-432v-32z"/><path d="m224-496v-32z"/><path d="m288-528h64v-16h-112v16z"/><path d="m352-416v-16h-64-48v16z"/><path d="m288-464v-32h-48v32z"/><path d="m288-496v32 32h64v-96h-64z"/><path d="m240-432h-16z"/><path d="m240-496h-16z"/><path d="m240-464v-32z"/><path d="m240-464h-16 64z"/><path d="m240-496h48-64z"/><path d="m240-528h-16 64z"/><path d="m240-544h112-128z"/><path d="m288-528v32z"/><path d="m288-464v32z"/><path d="m240-432h48-64z"/><path d="m-48-224h16 64 16z"/><path d="m-48-176h96v-16h-96z"/><path d="m-48-176v-16z"/><path d="m48-192h-16-64-16z"/><path d="m152-64h8v-64h-8z"/><path d="m160-128v64 160z"/><path d="m288 96v-96-32z"/><path d="m320-32h192-224z"/><path d="m288 160v64z"/><path d="m288 160v-64z"/><path d="m288 0v96 64 64-64z"/><path d="m288-32h32z"/><path d="m160-160v32z"/><path d="m160-128h-8z"/><path d="m160-64v160z"/><path d="m160 96h-224z"/><path d="m-256-96h32z"/><path d="m-416-96h32z"/><path d="m-384 0v224z"/><path d="m-384-96v96z"/><path d="m-256-96v96z"/><path d="m-256 0v224-96z"/><path d="m-64 352v128z"/><path d="m288 256v224-128-32z"/><path d="m288 224v32z"/><path d="m-384 224v128z"/><path d="m-64 352h-96z"/><path d="m-160 352h-224z"/><path d="m144 576h-64z"/><path d="m144 512 32-32z"/><path d="m48 480 32 32z"/><path d="m80 512v64z"/><path d="m-320 288v64z"/><path d="m-384 288h64z"/><path d="m-384 352v-64z"/><path d="m-320 352h-64z"/><path d="m-320 352h-64v-64h64z"/><path d="m512-160-32 32v64l32 32z"/><path d="m352-160h-96-96z"/><path d="m384-160h128-32-96-32z"/><path d="m160-160v32z"/><path d="m384-160h-32-192l32 32h192z"/><path d="m512-32-32-32h-64-128v32z"/><path d="m288-32-32-32v32 128h32z"/><path d="m-528-448h-16z"/><path d="m-544-512h16z"/><path d="m-528-448h-16v-64h16z"/><path d="m-528-512v64z"/><path d="m-544-448v-64z"/><path d="m-144-1184h16v32h-16z"/><path d="m-128-1152v-32-16z"/><path d="m-144-1184h16z"/><path d="m-48-704h32z"/><path d="m16-704h32z"/><path d="m64-720h-16z"/><path d="m48-704h-32v-16h32z"/><path d="m-16-704h-32v-16h32z"/><path d="m-16-704v-16z"/><path d="m-128-1088h-16v-32h16z"/><path d="m-128-1088v-32-32z"/><path d="m-144-1120h16z"/><path d="m-128-1072v-16z"/><path d="m-480-800v32z"/><path d="m-672-960v64z"/><path d="m-672-896v224l32-32v-192z"/><path d="m-480-800h-64z"/><path d="m-544-960h-32v64 96h32z"/><path d="m-480-672v-32h-64-96l-32 32z"/><path d="m-544-800-32 32h32 64v-32z"/><path d="m224-528h16v32h-16z"/><path d="m240-432h-16v-32h16z"/><path d="m240-464v-32-32-16 16 96z"/><path d="m240-528v-16z"/><path d="m224-528h16z"/><path d="m224-464h16z"/><path d="m240-432v16z"/><path d="m-64 224h-192z"/><path d="m-224-608h-96z"/><path d="m-224-608h32z"/><path d="m128-704v-16z"/><path d="m128-704v32h-64v-32z"/><path d="m-64-704v-16z"/><path d="m-128-704v-32-64z"/><path d="m-64-704v32h-32-32v-32z"/><path d="m224-544h16z"/><path d="m224-544h-32v-64h32z"/><path d="m224-352h16z"/><path d="m224-416v64z"/><path d="m64-256v32z"/><path d="m128-256h-64z"/><path d="m-224-416h-96z"/><path d="m-224-416h13.3333z"/><path d="m-224-544v-64h32v64z"/><path d="m-64-256h-64z"/><path d="m-224-416h13.3333 18.6667v48 16h-32z"/><path d="m-128-256v-32z"/><path d="m-64-256h-64v-32h64z"/><path d="m-384-96v96z"/><path d="m-256 0v224z"/><path d="m-256-96h-32v96h32z"/><path d="m-384 0v224h32v-32-64-64-64z"/><path d="m-160 352h-224z"/><path d="m-64 352v-32h-96v32z"/><path d="m-384 224v128l32-32v-64-32z"/><path d="m144 576h-64z"/><path d="m80 576v-64z"/><path d="m-528-512v-16z"/><path d="m-558-448v-64z"/><path d="m-558-512v64z"/><path d="m-528-512h-16v64h16z"/><path d="m-544-512h-14v64h14z"/><path d="m-558-512h14z"/><path d="m-544-512h16z"/><path d="m-544-448h-14z"/><path d="m-544-448v-64z"/><path d="m-544-512v64z"/><path d="m-558-512h-2v64h2z"/><path d="m-558-448h-2z"/><path d="m80 576v-16z"/><path d="m144 560v16z"/><path d="m80 560h64z"/><path d="m144 576h-64z"/><path d="m-320-1408h-64z"/><path d="m-712-1168v64z"/><path d="m-704-1248v16z"/><path d="m-704-1040v16z"/><path d="m-704-1216v32z"/><path d="m-704-1088v32z"/><path d="m-704-1104v16z"/><path d="m-704-1056v16z"/><path d="m-320-1408v64z"/><path d="m-384-1408v64z"/><path d="m-672-1312-32 64z"/><path d="m-672-1312h224-114-30-8z"/><path d="m-192-832h-80z"/><path d="m-336-832h64v-8h-64z"/><path d="m-272-832h-64-80 32 32z"/><path d="m-272-840h-64z"/><path d="m-336-832h-16-64z"/><path d="m-528-512v64z"/><path d="m416-128h64l32-32h-128v32z"/><path d="m192 96h-32z"/><path d="m288 96h-32z"/><path d="m192-32h64v-32h-64z"/><path d="m256-32h-64v128h64z"/><path d="m416-128h-32-192v64h64 32 128z"/><path d="m480-64v-64h-64v64z"/><path d="m192-32v-32-64h-32v224h32z"/><path d="m192-128-32-32v32z"/><path d="m288-64h-32l32 32z"/><path d="m288 96v64z"/><path d="m-560-528v16z"/><path d="m-560-448v-64z"/><path d="m-704-1024 16 32z"/><path d="m-704-1168h-8v64h8z"/><path d="m-384-1408h64z"/><path d="m-384-1312v-32z"/><path d="m-640-960h-32z"/><path d="m-576-960h32z"/><path d="m-640-960h64 32-112-16z"/><path d="m-480-768h-64v64h64z"/><path d="m-576-960h-64v64h64z"/><path d="m-544-704h-32-64z"/><path d="m-544-768h-32z"/><path d="m-640-896v192z"/><path d="m-640-960h-32v64h32z"/><path d="m-576-768 32-32h-32z"/><path d="m-352-96h64 32-80-48z"/><path d="m-384-96h32z"/><path d="m-288-96h32z"/><path d="m-320-560v-32-16 64z"/><path d="m-320-592v-16z"/><path d="m-320-592v32h8v-32z"/><path d="m-312-560v-32z"/><path d="m-304-544h-16z"/><path d="m-320-400v32h8v-32z"/><path d="m-320-368v-32-16 16z"/><path d="m-320-400v-16z"/><path d="m-312-368v-32z"/><path d="m-288-96h-64v96h64z"/><path d="m-288 64h-64v64h64z"/><path d="m-288 192h-64v32h64z"/><path d="m-288 64v-64z"/><path d="m-352 0h64z"/><path d="m-352 0v64z"/><path d="m-352 128h64z"/><path d="m-352 128v64z"/><path d="m-288 192h-64z"/><path d="m-288 192v-64z"/><path d="m-288 0v64 64 64 32h32v-224z"/><path d="m-352-96h-32v96h32z"/><path d="m-64 240v-16 32z"/><path d="m-64 320v32z"/><path d="m-64 224v16z"/><path d="m-224 256h-64v64h64z"/><path d="m-352 224v32h64v-32z"/><path d="m-64 256h-96v64h96z"/><path d="m-160 256h-64z"/><path d="m-224 320h64z"/><path d="m-160 256v64z"/><path d="m-352 320v-64z"/><path d="m-288 256v64z"/><path d="m-352 256h64z"/><path d="m-160 320h-64-64-64l-32 32h224z"/><path d="m-288 224v32l32-32z"/><path d="m-224 256h64 96v-32h-192l-32 32z"/><path d="m-320-1392h-64v-16h64z"/><path d="m-320-1408v16z"/><path d="m-384-1392v-16z"/><path d="m-384-1408h64z"/><path d="m-320-1392h-64z"/></g><g id="c"><path d="m176 480h112z"/><path d="m-48 224h-16 32 16z"/><path d="m-288 192v-64h-64v64z"/><path d="m-176 128h80v80 16h-160v-96z"/><path d="m-288 64v-64h-64v64z"/><path d="m-448-144v-64h-32v80l32 16z"/><path d="m-336-144v-192-16-16h-112v32 96 32 64z"/><path d="m-448-112 32 16h32 48v-48h-112z"/><path d="m-336-144v48h80 32v-160-32-6-42h-112z"/><path d="m-320-352h-16v16h112v-16z"/><path d="m-448-336h-32v96h32z"/><path d="m-224-96h32 16v192 32h-80v-128-96z"/><path d="m-96 128v-32h32v32 80h-32z"/><path d="m-48 96h-16v32 80 16h16z"/><path d="m-176 128v-32h80v32z"/><path d="m48-224v-32-16h-96v16 32z"/><path d="m-48-272h96 16v-16h-128v16z"/><path d="m-144-272h-42v16h42z"/><path d="m-144-256h-42-6-32v160h32l48-24z"/><path d="m-48-224v-32h-16v32z"/><path d="m-128-128v-128-16h-16v16 136z"/><path d="m-64-256h16v-16h-16-64v16z"/><path d="m48-256v32h16v-32z"/><path d="m-192-256h6v-16l-22-22h-16v6z"/><path d="m-192-256-32-32v32z"/><path d="m288 160v-64h-16v128h16z"/><path d="m240-240v-16h-16-80-16v16z"/><path d="m64-256h64 16v-16h-80-16v16z"/><path d="m240-352h-16v16 80h16z"/><path d="m-528-400v16h96v-16z"/><path d="m-432-400v-32h-32-64v32z"/><path d="m-480-448h-48v16h64v-16z"/><path d="m-464-512h-16v64h16z"/><path d="m-480-512h-48v64h48z"/><path d="m-416-624h-32v32 16h16 16z"/><path d="m-432-528h-32v16 64 16h32z"/><path d="m-448-576h-80v16h96v-16z"/><path d="m-464-528h-64v16h48 16z"/><path d="m-464-528h32v-32h-96v32z"/><path d="m-416-576h-16v16 32 96 32 16h16z"/><path d="m-448-576v-16h-32l-48 16z"/><path d="m-640-704h64v-64-32-96h-64z"/><path d="m-576-768v64h32v-64z"/><path d="m-416-800v-32l-64 32v32 64 32 48h32 32z"/><path d="m-448-368h112v-16h-80-16-96l48 16z"/><path d="m-224-416v-16h-96v16z"/><path d="m-208-432h-16v16 64 16 42h16z"/><path d="m-336-400v-224h-80v48 192h80z"/><path d="m-320-416v-16-96-16-64-16h-16v224h16z"/><path d="m-336-400v16 16 16h16v-16-32z"/><path d="m-224-528v-16h-80-16v16z"/><path d="m-224-608v64 16h16v-80z"/><path d="m-224-608h16v-16h-16-96v16z"/><path d="m-416-800h32v-32h-32z"/><path d="m-256-800v-32h-16-80v32z"/><path d="m-224-650v-6-32-112h-32-96-32-32v176h80 16 96z"/><path d="m-224-688v32l32-32z"/><path d="m-208-650h-16v26h16z"/><path d="m-192-688-32 32v6h16l22-22v-16z"/><path d="m-128-704v-96l-64-32h-32v32 112h32 6 58z"/><path d="m-288-960h-128v16h128z"/><path d="m208-432h-32v16h32z"/><path d="m224-352v-64-16h-16v16 80h16z"/><path d="m176-432v-96-16h-16v128h16z"/><path d="m208-544h-32v16h32z"/><path d="m224-650h-16v26h16z"/><path d="m224-544v-64-16h-16v80 16h16z"/><path d="m208-650h16v-6l-16-16h-22z"/><path d="m96-704h-32-128-64v16h166 58z"/><path d="m192-688h32v-16h-96-32v16z"/><path d="m224-688h-32l16 16 16 16z"/><path d="m38-688h-166-58v16h224z"/><path d="m186-672h22l-16-16h-96-58v16z"/><path d="m-64-720v16h128v-16z"/><path d="m224-704v-16h-96v16z"/><path d="m240-432h-16v16h16z"/><path d="m240-624h-16v16h16z"/><path d="m224-528h16v-16h-16z"/><path d="m208-432h16 16v-96h-16-16-32v96z"/><path d="m240-720h-16v16 16 32 6 26h16z"/><path d="m-64-960v112h-64v-48-64z"/><path d="m-256-800h32z"/><path d="m-384-800h32z"/><path d="m-288-960h16 16-160z"/><path d="m-64-960v64 48z"/><path d="m-64-848h-64z"/><path d="m-128-896v48z"/><path d="m-224-832h-32z"/><path d="m208-624v80z"/><path d="m38-672h-224z"/><path d="m160-544v128z"/><path d="m224-336h-16z"/><path d="m208-416v80z"/><path d="m224-256v-80z"/><path d="m144-272h-80z"/><path d="m64-288h-128z"/><path d="m-224-432h16-16-96z"/><path d="m-448-592v-32z"/><path d="m-448-624h-32z"/><path d="m-448-208v-32z"/><path d="m-64 128v-32 112z"/><path d="m272 96h-32z"/><path d="m272 96h-32v128h32z"/><path d="m-256 0v128 96-128z"/><path d="m-176-96v192z"/><path d="m-96 224v-16z"/><path d="m240-608h-16z"/><path d="m224-720h16-112z"/><path d="m96-704h32-64z"/><path d="m-128-1200v-48z"/><path d="m-144-1280 16 32-32-64z"/><path d="m-416-944v-16z"/><path d="m-64-704h-64z"/><path d="m64-720h-16-32-32-32-16z"/><path d="m-256-960h96z"/><path d="m-256-960h-16z"/><path d="m-128-1072v-16z"/><path d="m-128-1024v-48z"/><path d="m-160-960 32-64z"/><path d="m-256-832h32 32-80z"/><path d="m-128-800-64-32z"/><path d="m-288-944h-128z"/><path d="m-272-960h-16z"/><path d="m-448-960h-96z"/><path d="m-416-960h-32 16z"/><path d="m-688-992 16 32z"/><path d="m-480-768v64z"/><path d="m-480-624v-48z"/><path d="m-480-672v-32z"/><path d="m-480-624v16z"/><path d="m-576-896h-64z"/><path d="m-576-768v-32z"/><path d="m-576-800v-96z"/><path d="m-544-704v-64z"/><path d="m-528-560v-16z"/><path d="m-528-512v64z"/><path d="m-528-432v-16z"/><path d="m-528-400v-32z"/><path d="m-528-384v-16z"/><path d="m-64 208v-80 96z"/><path d="m128-240v-16z"/><path d="m240-416h-16z"/><path d="m224-544v-64z"/><path d="m240-352v96 16z"/><path d="m240-240h-112z"/><path d="m48-224h-96-16 16 96 16z"/><path d="m208 96h32 32 16-32-64-32z"/><path d="m-48 96h32 32 144-224z"/><path d="m-256-96h32z"/><path d="m-192-96h-32z"/><path d="m-224-544v-64z"/><path d="m-304-544h-16z"/><path d="m-224-416v64z"/><path d="m-224-352h-32-64z"/><path d="m-528-576 48-16z"/><path d="m-480-368-48-16z"/><path d="m-352 64h64z"/><path d="m-688-992-16-32z"/><path d="m-64 464v-48-64 128z"/><path d="m-64 416v-64z"/><path d="m-64 352v-112 16 64z"/><path d="m288 256v160 48 16z"/><path d="m288 224v32z"/><path d="m288 256v-32 192z"/><path d="m48 464h-96-16v16h112z"/><path d="m-48 416h-16v48h16z"/><path d="m96 480v-16h-48v16z"/><path d="m176 480v-16h-48v16z"/><path d="m288 464h-16-96v16h112z"/><path d="m288 416h-16v48h16z"/><path d="m128 464v16z"/><path d="m272 416v48z"/><path d="m176 464h96-144z"/><path d="m-256 224v16z"/><path d="m-96 224v16h-160v-16z"/><path d="m-96 240h-160z"/><path d="m-224 256v64z"/><path d="m-160 256h-64v64h64z"/><path d="m-352 320h64z"/><path d="m-288 256h-64v64h64z"/><path d="m96 480v32z"/><path d="m144 512h-16z"/><path d="m176 480h-48v32h16z"/><path d="m144 512 32-32z"/><path d="m144 512v64z"/><path d="m80 512h16v-32h-48z"/><path d="m48 480 32 32z"/><path d="m-256-832v32z"/><path d="m-224-800v-32z"/><path d="m-224-832h-32v32h32z"/><path d="m-384-832v32z"/><path d="m-352-832h-32z"/><path d="m-352-800v-32z"/><path d="m-352-832h-32v32h32z"/><path d="m-480-592v-32 16z"/><path d="m-480-592h32z"/><path d="m-448-624h-32v32h32z"/><path d="m-480-336h32z"/><path d="m-448-336v-32z"/><path d="m-448-368h-32z"/><path d="m-480-368v32z"/><path d="m-448-368h-32v32h32z"/><path d="m-480-208h32z"/><path d="m-480-240v32z"/><path d="m-448-240h-32z"/><path d="m-448-240h-32v32h32z"/><path d="m-384-1344v-64z"/><path d="m-160-1312h-112z"/><path d="m-288-1312h16 112z"/><path d="m-320-1312h16 16z"/><path d="m-416-1312h16 16z"/><path d="m-384-1312h-16 32z"/><path d="m-320-1312h-16 32z"/><path d="m-432-1312h-16-224 224z"/><path d="m-448-1312h16 16z"/><path d="m-384-1344v32h16 32 16v-32z"/><path d="m-320-1344v32z"/><path d="m-160-1312 16 32z"/><path d="m-336-1312v32z"/><path d="m-336-1312h-32v32h32z"/><path d="m-128-1072v16 32z"/><path d="m-128-1024v-32z"/><path d="m-128-1088v-32z"/><path d="m-128-1184v32z"/><path d="m-128-1216v-32z"/><path d="m-128-1248v32 16z"/><path d="m-128-1200v16 32 32 32 16-16-64z"/><path d="m-128-1184h-32z"/><path d="m-128-1200v-16l-32 16v16h32z"/><path d="m-128-1072v-16h-32v16l32 16z"/><path d="m-128-1056-32-16z"/><path d="m-416-1280v64z"/><path d="m-336-1280h32z"/><path d="m-288-1280 16-32z"/><path d="m-288-1280 16-32h-16-16v32z"/><path d="m-368-1280v-32z"/><path d="m-400-1280v-32z"/><path d="m-416-1280h16v-32h-16z"/><path d="m-160-960h-32-64z"/><path d="m-160-960h-32z"/><path d="m-160-1120v32z"/><path d="m-160-1120h32z"/><path d="m-160-1200 32-16z"/><path d="m-160-1152v32h32v-32z"/><path d="m-160-1088h32z"/><path d="m-160-1072h-64-6 6z"/><path d="m-160-1088h-16-48v16h64z"/><path d="m-224-1088-32-32h-16v6l42 42h6z"/><path d="m-256-1146h-16v26h16z"/><path d="m-374-1168h6v-16l-32-32h-16v6z"/><path d="m-400-1264v-16h-16v64h16z"/><path d="m-160-1120v-32-32-16-22h-16v38 96h16z"/><path d="m-294-1168v-16h-74v16z"/><path d="m-288-1184h-6v16l22 22h16v-6z"/><path d="m-256-1184h-32l32 32z"/><path d="m-186-1280h-10v16l20 42h16z"/><path d="m-294-1184h6 32 80v-38l-20-42h-204v48l32 32z"/><path d="m-176-1184h-80v32 6 26l32 32h48z"/><path d="m-196-1264v-16h-92-16-32-32-32v16z"/><path d="m-272-1114 42 42z"/><path d="m-256-896v48z"/><path d="m-128-848h64-192z"/><path d="m-128-896v48h-128v-48z"/><path d="m-416-960h-32z"/><path d="m-448-960h-208 112z"/><path d="m-416-1280v-32h-16z"/><path d="m-416-1280-16-32z"/><path d="m-176-96h-16-32-32z"/><path d="m-176 96v-192h-80v96 96z"/><path d="m-64 96h-32v112h32z"/><path d="m-96 208v-112h-80-80v128h160z"/><path d="m-256-96v96z"/><path d="m-96 208h32z"/><path d="m-96 96h32-32-80z"/><path d="m-688-1104h-16z"/><path d="m-688-1056v-32h-16v32z"/><path d="m-688-1088v-16h-16v16z"/><path d="m-688-1040v-16h-16v16z"/><path d="m-688-1232h-16z"/><path d="m-688-1232v16z"/><path d="m-688-1184v16z"/><path d="m-688-1216v-16h-16v16z"/><path d="m-688-1184v-32h-16v32z"/><path d="m-688-1168v-16h-16v16z"/><path d="m272 416h16v48h-16z"/><path d="m176 480h-32-16v-16h144 16v16z"/><path d="m-48 464h144v16h-16-32-112v-16z"/><path d="m-48 464h-16v-48h16z"/><path d="m288 416v-192 80 32 32 32 32 32z"/><path d="m272 416h16z"/><path d="m-64 416h16z"/><path d="m96 464v16z"/><path d="m-48 416v48z"/><path d="m-48 464h96 48z"/><path d="m-96 240v-16z"/><path d="m-96 240v-16h-160v16z"/><path d="m96 512h-16v-32h16z"/><path d="m144 512h-16v-32h16z"/><path d="m128 480v32z"/><path d="m96 512h-16z"/><path d="m208 96h32z"/><path d="m176 96h32-48-144z"/><path d="m16 96h-32z"/><path d="m-16 96h-32z"/><path d="m240 96v128z"/><path d="m-16 96h-32v128h32z"/><path d="m-560-448v-64z"/><path d="m-320-944v64z"/><path d="m-384-944h64v64h-64z"/><path d="m256-512v64z"/><path d="m192-448v-64z"/><path d="m256-448h-64z"/><path d="m256-512v64h-64v-64z"/><path d="m-32-192v-64z"/><path d="m32-256v64z"/><path d="m32-192h-64v-64h64z"/><path d="m-384-1344h64z"/><path d="m560 224h96-112z"/><path d="m544 160v-128h16v16 32 96 32 16h-16z"/><path d="m608 160h-16v-64h16z"/><path d="m656 48h-96v-16h96z"/><path d="m656 80v16h-48-16v-16z"/><path d="m656 48v32h-64-32v-32z"/><path d="m560 80h32v16 64 16h-32z"/><path d="m656 160h-48v-64h48z"/><path d="m560 224v-16h96v16z"/><path d="m608 160h48v16h-64v-16z"/><path d="m592 176h64v32h-96v-32z"/><path d="m-64 224h-240z"/><path d="m288 224h-16-32 16z"/><path d="m512 24h32v8h-32z"/><path d="m512 32h32v128h-32z"/><path d="m544 160v64h-32v-64z"/><path d="m-160-1312h-112-16 112z"/><path d="m-448-1312h-224 16 56z"/><path d="m-304-1312h-32-32-32-16l32-32h64l32 32z"/><path d="m64-1200v160z"/><path d="m176-816 64 32h-112-64v-16-16z"/><path d="m-416-1210v-6z"/><path d="m-196-1280h-92 92 10z"/><path d="m-400-1280h32z"/><path d="m-304-1312v32z"/><path d="m-288-1312h16l-16 32h-16v-32z"/><path d="m-416-1312h16v32h-16z"/><path d="m-336-1280h-32v-32h32z"/><path d="m-64-1040v-32-128h128v160 64h-128z"/><path d="m64-976v160h-128v-32-48-64-16z"/><path d="m-64-896v-64h-64v64z"/><path d="m-64-1072h-32v-128h32z"/><path d="m-64-848v-48h-64-128v48z"/><path d="m-96-800v-16h32 128v16z"/><path d="m-176-1088v-96-38h16v22 16 32 32 32z"/><path d="m-160-1120v-32h32v32z"/><path d="m-196-1264h-204v-16h32 32 32 16 92z"/><path d="m-400-1280v16 48h-16v-64z"/><path d="m-196-1264v-16h10l26 58h-16z"/><path d="m-256-1152-32-32h32z"/><path d="m-272-1146-22-22v-16h6l32 32v6z"/><path d="m-320-944h-64v-16h64z"/><path d="m-320-880v-64-16h16v56 40h-16z"/><path d="m-400-904v-56h16v16 64 16h-16z"/><path d="m-416-960h16v56z"/><path d="m-304-904v-56h16z"/><path d="m-256-1120h-16v-26h16z"/><path d="m-272-1114v-6h16l32 32v16h-6z"/><path d="m-368-1184v16h-6l-42-42v-6h16z"/><path d="m-294-1168h-74v-16h74z"/><path d="m-400-1264h204l20 42v38h-80-32-6-74l-32-32z"/><path d="m-224-1088-32-32v-26-6-32h80v96z"/><path d="m-160-1072h-64v-16h48 16z"/><path d="m-128-1200v16h-32v-16l32-16z"/><path d="m-128-1088v-32-32-32-16h32v128h-32z"/><path d="m-160-1072v-16h32v16 16z"/><path d="m-192-816h96v16h-112-16v-16z"/><path d="m-416-816h192v16h-192z"/><path d="m-384-864v-16h64v16z"/><path d="m-192-816h-32-192 16 32z"/><path d="m-128-1024v-32-16z"/><path d="m-96-1072h32-64z"/><path d="m-64-1040v64 16 64 48 32z"/><path d="m-304-904v40z"/><path d="m-192-960h-64-32-16-16-64-16-16 160z"/><path d="m-64-960h-64z"/><path d="m-160-1222v22z"/><path d="m-160-1184v32z"/><path d="m-128-1248-16-32z"/><path d="m-128-1152h-32z"/><path d="m-160-960 32-64z"/><path d="m-272-1114v-6z"/><path d="m-272-1120v-26z"/><path d="m-186-1280 26 58z"/><path d="m-368-1168h74-74-6z"/><path d="m-374-1168-42-42z"/><path d="m-272-1146-22-22z"/><path d="m-128-896h-128z"/><path d="m-128-960v64z"/><path d="m-384-880h64z"/><path d="m-320-944h-64z"/><path d="m-384-944v64z"/><path d="m64-784h-160v-16h160z"/><path d="m-224-800v16h-192v-16z"/><path d="m-208-784v-16h112v16z"/><path d="m-224-800h16v16h-16z"/><path d="m-416-960h-32z"/><path d="m-416-1280-16-32h16z"/><path d="m-480-784 64-32v16 16z"/><path d="m288-432v-96-16 16 96 16z"/><path d="m416 32v-8h64 32v8z"/><path d="m512 224h-112-112v-64h112 112z"/><path d="m400 96v64h-112v-64z"/><path d="m400 96v-64h16 96v128h-112z"/><path d="m-336-336v-16h16 96v16z"/><path d="m-336-144v-192h112v42 6 32 160h-80-32z"/><path d="m-416-368h80v16 16 192h-136l-8-32v-192z"/><path d="m-336-144v48h-64l-64-16-8-32z"/><path d="m-224-256h32 48v160h-32-48z"/><path d="m-144-256h16v160h-16z"/><path d="m-186-272h122v16h-64-16-48l-16-16z"/><path d="m-224-288 16 16 16 16h-32z"/><path d="m-208-294 22 22h-22l-16-16v-6z"/><path d="m32-256h-64v-16h64z"/><path d="m-48-272h16v16 64 16h-16z"/><path d="m48-160v-16-80h16v96z"/><path d="m-48-160v-16h16 64 16v16z"/><path d="m-64-256v-16h16v96 16h-16z"/><path d="m64-288v16h-16-16-64-16-16v-16z"/><path d="m48-256v80h-16v-16-64-16h16z"/><path d="m-32-176v-16h64v16z"/><path d="m128-240v-16h16 80 16v16z"/><path d="m224-256v-80-16h16v96z"/><path d="m64-272h80v16h-16-64-16v-16z"/><path d="m-528-432v-16h48 16v16z"/><path d="m-464-432h32v32h-96v-32z"/><path d="m-528-384v-16h96v16z"/><path d="m-432-384h16v16h-64l-48-16z"/><path d="m-480-448h-48v-64h48z"/><path d="m-464-448h-16v-64h16z"/><path d="m-464-448v-64-16h32v96h-32z"/><path d="m-432-576v16h-96v-16z"/><path d="m-464-528v16h-16-48v-16z"/><path d="m-432-560v32h-32-64v-32z"/><path d="m-432-400v-32-96-32-16h16v192h-16z"/><path d="m-480-784h64v160 32h-64z"/><path d="m-320-368v-32h8v32z"/><path d="m-224-432v16h-96v-16z"/><path d="m-224-336v-16-64-16h16v138h-16z"/><path d="m-416-592h80v16h-80-16-96l48-16z"/><path d="m-416-384v-192h80v176 32h-80z"/><path d="m-320-560v-32h8v32z"/><path d="m-416-592v-32h80v32z"/><path d="m-336-576v-16-32h16v16 16 32 16 16 96 16 16h-16z"/><path d="m-320-400v32 16h-16v-16-32z"/><path d="m-224-544v16h-96v-16z"/><path d="m-224-624v16h-96v-16z"/><path d="m-208-784v96 16l-16 16v-128z"/><path d="m-224-544v-64-16-32l16-16v22 26 96h-16z"/><path d="m-208-672 16-16h6v16l-22 22z"/><path d="m-96-688h-90-6-16v-96h112z"/><path d="m-192-688-16 16v-16z"/><path d="m-224-784v128 32h-96-16-80v-160z"/><path d="m208-528h-16-16v-16h32z"/><path d="m176-528v96 16h-16v-128h16z"/><path d="m208-544v-80-26h16v26 16 64 16h-16z"/><path d="m272-528h-16-32v-16h64v16z"/><path d="m224-416v-16h32 16 16v16z"/><path d="m208-416v-16h16v16 64 16h-16z"/><path d="m128-688h-90-134v-96h160 64z"/><path d="m240-784v96h-16-32-6-58v-96z"/><path d="m176-432v-96h16v16 64 16z"/><path d="m272-432h-16v-16-64-16h16z"/><path d="m208-528h16 32v16h-64v-16z"/><path d="m256-448v16h-32-16-16v-16z"/><path d="m38-672h-224v-16h90 134z"/><path d="m128-688h58v16h-148v-16z"/><path d="m224-608v-16h16v16z"/><path d="m224-656-32-32h32z"/><path d="m224-656v6h-16l-22-22v-16h6z"/><path d="m240-624h-16v-26-6-32h16z"/><path d="m208-416h-32v-16h16 16z"/><path d="m288-432h-16v-96h16z"/><path d="m288-416h-64z"/><path d="m240-624v-64-96 160 16z"/><path d="m64-256v16 80z"/><path d="m224-416v64z"/><path d="m128-256h-24-4-36z"/><path d="m-208-432v138z"/><path d="m-208-624v16 80z"/><path d="m-208-650v26z"/><path d="m176-416h32-32-16z"/><path d="m176-544h32z"/><path d="m160-544h16z"/><path d="m208-624v-26z"/><path d="m186-672h-148z"/><path d="m208-650-22-22z"/><path d="m-186-672-22 22z"/><path d="m256-512h-64z"/><path d="m64-288v16z"/><path d="m144-272v16z"/><path d="m144-256h80z"/><path d="m-64-272v-16z"/><path d="m32-256h-64z"/><path d="m-32-192h64z"/><path d="m-186-272h42 16 64z"/><path d="m-208-294 22 22z"/><path d="m-320-528v96z"/><path d="m-224-528h16-16-96z"/><path d="m-304 0v128 96z"/><path d="m288 96h-32z"/><path d="m-64 96h32z"/><path d="m-64 128v-32h32v128h-32z"/><path d="m-176 96h-48v-192h48z"/><path d="m-176 96h112v32h-160v-32z"/><path d="m-304 0v-96h80v192 32h-80z"/><path d="m-224 128h160v96h-240v-96z"/><path d="m-176-96v192z"/><path d="m288 480v-16z"/><path d="m688 160h16z"/><path d="m704 160h-16v-64h16z"/><path d="m656 160v-64z"/><path d="m656 160v16z"/><path d="m688 160h-2v-64h2z"/><path d="m686 160h-14v-64h14z"/><path d="m672 160h-16v-64h16z"/><path d="m672 160h14z"/><path d="m686 160h2z"/><path d="m672 96h-16z"/><path d="m688 96h-2z"/><path d="m686 96h-14z"/><path d="m-480-784 48-24 16-8z"/><path d="m-528-448v-64-16 16 64 16z"/><path d="m-528-512v-16z"/><path d="m-528-528v-32z"/><path d="m400 96v-16-32-16z"/><path d="m400 96h-112z"/><path d="m288 96h112z"/><path d="m-480-624v-160 192z"/><path d="m48 96h128-160z"/><path d="m176 80v16h-128v-16z"/><path d="m240 96h16v128h-16z"/><path d="m-32 96h16v128h-16z"/><path d="m256 96h32v64 64h-32z"/><path d="m-16 96v128z"/><path d="m-544-448h-14v-64h14z"/><path d="m-528-448h-16v-64h16z"/><path d="m-528-448h-16z"/><path d="m-560-448v16z"/><path d="m-558-448h-2v-64h2z"/><path d="m-560-512h2z"/><path d="m-528-512h-16v64h16z"/><path d="m672 96h-16v64h16z"/><path d="m-128-160h-64v64h64z"/><path d="m-416-800h-64v64h64z"/><path d="m-288-960h32z"/><path d="m-400-904v40z"/><path d="m-304-904v40z"/><path d="m-304-904 16-56z"/><path d="m-304-864h-96z"/><path d="m-304-864h-96 16 64z"/><path d="m-416-960 16 56z"/><path d="m-448-960h32z"/><path d="m-192-160h64z"/><path d="m-192-96v-64z"/><path d="m-128-160v64z"/><path d="m-128-96h-64z"/><path d="m-128-96h-64v-64h64z"/><path d="m-480-736v-64z"/><path d="m-416-736h-64z"/><path d="m-480-800h64z"/><path d="m-416-800v64z"/><path d="m-416-736h-64v-64h64z"/><path d="m-64-240v-16 96z"/><path d="m-64-160h16 96 16z"/><path d="m-64-160h128l-32-32h-64z"/><path d="m64-160v-80h-32v48z"/><path d="m-64-256h-40-24z"/><path d="m176 80h-128z"/><path d="m208 96h-32z"/><path d="m48 96h-32z"/><path d="m48 80v16z"/><path d="m176 96v-16z"/><path d="m288 224h112z"/><path d="m-64 224v-32h-96-32-80l-32 32z"/><path d="m400 224v-32h-16-96v32z"/><path d="m-688-1088v32z"/><path d="m-688-1104v16z"/><path d="m-688-1056v16z"/><path d="m64-1040v224-160z"/><path d="m64-1200-32 32v64 64h32z"/><path d="m64-1200h-128-32-32z"/><path d="m-64-1072 32-32h-16-64-16v32z"/><path d="m-64-1072v32z"/><path d="m-64-1040v224h32v-64-160z"/><path d="m-64-1072v32h32v-32z"/><path d="m-304-96h-96 64z"/><path d="m-304-96v96z"/><path d="m-304 0v224l32-32v-64-128z"/><path d="m-64 96h-112z"/><path d="m-688-1216v32z"/><path d="m-528-448h-16z"/><path d="m-544-512h16z"/><path d="m-528-448h-16v-64h16z"/><path d="m-528-512v64z"/><path d="m-544-448v-64z"/><path d="m656 96h16z"/><path d="m672 160h-16z"/><path d="m672 160h-16v-64h16z"/><path d="m656 160v-64z"/><path d="m672 96v64z"/><path d="m16 96h-32-16-32z"/><path d="m16 96h32z"/><path d="m-288-960h32z"/><path d="m-400-904v40z"/><path d="m-304-904v40z"/><path d="m-304-904 16-56z"/><path d="m-304-864h-96z"/><path d="m-416-960 16 56z"/><path d="m-448-960h32z"/><path d="m-64 96v16z"/><path d="m-64 96h80z"/><path d="m-672-1168h16v-32z"/><path d="m-672-1168h-16z"/><path d="m-64 352v64 48 16z"/><path d="m144 576h-64z"/><path d="m128 144h-32v32h32z"/><path d="m704 96h-16z"/><path d="m704 96h-16v64h16z"/><path d="m672 96h-16v64h16z"/><path d="m688 96h-2v64h2z"/><path d="m686 96h-14v64h14z"/><path d="m656 160h16z"/><path d="m672 160v-64z"/><path d="m672 96v64z"/><path d="m686 96v64z"/><path d="m686 160v-64z"/><path d="m-528-448v16z"/><path d="m288 96v32z"/><path d="m-64-240v-16z"/><path d="m-64-240h32z"/><path d="m32-240h32z"/><path d="m32-240h-64v48h64z"/><path d="m-32-240h-32v80l32-32z"/><path d="m288 96h-32-16z"/><path d="m-558-448v-64z"/><path d="m-558-512v64z"/><path d="m-544-512v64h16v-64z"/><path d="m-558-512v64h14v-64z"/><path d="m-544-512h16z"/><path d="m-558-512h14z"/><path d="m-544-448h-14z"/><path d="m-544-448v-64z"/><path d="m-544-512v64z"/><path d="m-560-528v16z"/><path d="m-560-448v-64-16 16 64 16z"/><path d="m-560-512v64h2v-64z"/><path d="m-558-448h-2z"/><path d="m128 144v32z"/><path d="m128 176h-32z"/><path d="m96 176v-32z"/><path d="m96 144h32z"/><path d="m128 176h-32v-32h32z"/><path d="m144 576h-64v-16h64z"/><path d="m80 576v-16z"/><path d="m144 560v16z"/><path d="m80 560h64z"/><path d="m144 576h-64z"/></g><g id="d"><path d="m-704-1232v-16z"/><path d="m-704-1104v-64z"/><path d="m-704-1024v-16z"/><path d="m-384-1408v64h64v-64z"/><path d="m-320-1408v64z"/><path d="m-704-1248 32-64z"/><path d="m656 160v-64z"/><path d="m656 528h32v96h-32z"/><path d="m80 480h-16-16z"/><path d="m544 24v8z"/><path d="m544 32h112-96z"/><path d="m512 24h32z"/><path d="m544 32v-8h-32v8z"/><path d="m-416-1312h-16-16z"/><path d="m-384-1344-32 32h128l-32-32z"/><path d="m-384-1344-32 32z"/><path d="m-288-1312-32-32z"/><path d="m112-784h32z"/><path d="m-144-784h32z"/><path d="m-400-784h32z"/><path d="m-432-808-48 24h48z"/><path d="m-400-816h-16l-16 8v24h32z"/><path d="m-272-784h48 80v-32h-48-176v32z"/><path d="m-656-1072v32 32h32z"/><path d="m-624-1264h32 176v-48h-32-152z"/><path d="m-416-1312v48h48 80v-48z"/><path d="m-432-1008h-96-64-32-32v48h208 16z"/><path d="m-416-960h16v-48h-16-16v48z"/><path d="m-128-1088v-16-64-32-48l-16-32-16-32h-16v48 64 112z"/><path d="m-176-1072v64 48h16l32-64v-48-16h-48z"/><path d="m-176-1072-32 64h32z"/><path d="m-400-960h-16l16 56z"/><path d="m-288-960h-16v56z"/><path d="m-176-1264h-32l32 64z"/><path d="m-128-1168v64h16v-64z"/><path d="m-304-904v-56-48h-96v48 56 40h96z"/><path d="m-208-1008h-96v48h16 32 80v-48z"/><path d="m-288-1312v48h80 32v-48z"/><path d="m0-784h112v-32h-48-32-64-32-48v32z"/><path d="m240-784-64-32h-32v32z"/><path d="m32-1040v-64h-64v32 32 160h64z"/><path d="m-32-880v64h64v-64z"/><path d="m-48-1104v-64h-64v64z"/><path d="m-48-1168v64h16 64v-64z"/><path d="m144-816h-32z"/><path d="m-176-1072v-16-112 32 64z"/><path d="m-592-1008h64z"/><path d="m-400-1008h96 96-32-64-112z"/><path d="m-368-1264h-48-176 64z"/><path d="m-112-816h-32z"/><path d="m-368-816h-32z"/><path d="m112-816h32 32-112z"/><path d="m240-784-64-32z"/><path d="m32-1040v160 64h32v-224z"/><path d="m64-816h-32z"/><path d="m-128-1200v-16-32z"/><path d="m-144-1280 16 32z"/><path d="m-144-816h32 48-32-96z"/><path d="m-32-816h-32z"/><path d="m-128-1168v-32z"/><path d="m-128-1088v16-32z"/><path d="m-112-1168h64 80l32-32h-192v32z"/><path d="m-32-1104-32 32h32z"/><path d="m-288-960h32z"/><path d="m-160-960h-16-80 64z"/><path d="m-128-1024-32 64z"/><path d="m-400-904v40z"/><path d="m-304-904 16-56z"/><path d="m-416-960 16 56z"/><path d="m-432-960h-16 32z"/><path d="m-528-384v-16z"/><path d="m-528-400v-32z"/><path d="m-528-448v-64-16 16 64 16z"/><path d="m-528-560v-16z"/><path d="m-464-112-16-64 8 32z"/><path d="m512 32h-96z"/><path d="m512 24h-32-64v8h96z"/><path d="m416 32v-8z"/><path d="m416 24h64z"/><path d="m480 24h32z"/><path d="m400 128v-32z"/><path d="m400 128h-16v64h16z"/><path d="m288 128h96z"/><path d="m384 128h-96v48l96 16z"/><path d="m288 128h96 16v-32h-112z"/><path d="m-272-96h-32z"/><path d="m-176-96h-32z"/><path d="m-128-96h-48 32z"/><path d="m-400-96-64-16z"/><path d="m144-704v26.6667l80 53.3333h16v-160h-96z"/><path d="m224-624-80-53.3333-40-26.6667h-4v16l108 74z"/><path d="m104-704 40 26.6667v-26.6667z"/><path d="m100-688v-16h-100-100v16z"/><path d="m0-784h-112-32-80v80h120 4 100z"/><path d="m100-704h4 40v-80h-32-112v80z"/><path d="m224-544v-64-16l-16 10v86h16z"/><path d="m272-528h16v-16h-64v16z"/><path d="m224-624v16h16v-16z"/><path d="m224-416v-16h-16v80h16z"/><path d="m288-528h-16v96h16z"/><path d="m288-416v-16h-16-48v16z"/><path d="m-100-688v-16h-4l-24 16-96 64 16 10z"/><path d="m-128-688 24-16h-120v16z"/><path d="m-224-704v-80h-48v96h48z"/><path d="m-224-624 96-64h-96-48v64z"/><path d="m-272-688v-96h-96-32-32v160h96 16 48z"/><path d="m-224-608v64 16h16v-86l-16-10z"/><path d="m-224-608v-16h-48-48v16z"/><path d="m-272-528h48v-16h-96v16z"/><path d="m-312-592h-8v32h8z"/><path d="m-336-432v-96-48h-80v192h80z"/><path d="m-416-576h-16v16 128 32 16h16z"/><path d="m-320-528v-16-16-32-16-16h-16v48 48z"/><path d="m-432-576h16 80v-48h-96-16v32 16z"/><path d="m-312-400h-8v32h8z"/><path d="m-224-416v-16h-48-48v16z"/><path d="m-320-432h48v-96h-48-16v96z"/><path d="m-208-432h-16v16 64h16z"/><path d="m-320-352v-16-32-16-16h-16v48 16 32h16z"/><path d="m-448-368h112v-16h-80-16-96l48 16z"/><path d="m-480-784v160h32 16v-160z"/><path d="m-480-592-48 16h80v-16z"/><path d="m-480-528h-48v16h48z"/><path d="m-432-560h-32v32 80 16h32z"/><path d="m-464-560h-64v32h48 16z"/><path d="m-464-560h32v-16h-16-80v16z"/><path d="m-464-528h-16v16 64h16z"/><path d="m-480-512h-48v64h48z"/><path d="m-464-448h-16-48v16h64z"/><path d="m-432-400v-32h-32-64v32z"/><path d="m-432-384v-16h-96v16z"/><path d="m128-256h112v-80h-16l-120 80z"/><path d="m224-336h16v-16h-16-16v6z"/><path d="m224-336-16-10-108 74v16h4z"/><path d="m240-240v-16h-112v16z"/><path d="m-64-256h128 36v-16h-200-28l24 16z"/><path d="m-64-256v16h128v-16z"/><path d="m-128-272h28l-108-74-16 10z"/><path d="m-128-256h24l-24-16-96-64h-16v80z"/><path d="m-240-336h16l16-10v-6h-16-96v16z"/><path d="m-128-256h-112v160h32 32 48z"/><path d="m-336-336v-32h-112v32z"/><path d="m-240-256v-80h-80-16-112-32v160l16 64 64 16h96 32 32z"/><path d="m224-432h48-48-16z"/><path d="m100-688 108 74z"/><path d="m208-352v-80 86z"/><path d="m100-272h-200z"/><path d="m208-346-108 74z"/><path d="m-224-528h-48 48 16z"/><path d="m-448-592v-32z"/><path d="m-448-624h-32z"/><path d="m-480-592h32z"/><path d="m-128-256v160z"/><path d="m224-544v-64z"/><path d="m224-608h16z"/><path d="m288-544h-64z"/><path d="m64-256v16z"/><path d="m128-240v-16z"/><path d="m224-352h16z"/><path d="m240-240h-112z"/><path d="m240-352v16 80 16-16z"/><path d="m-64-240h32 64 32z"/><path d="m-224-416h-96z"/><path d="m-320-608v16z"/><path d="m-320-560v16z"/><path d="m-224-608h-96z"/><path d="m-320-544h96z"/><path d="m-224-544v-64z"/><path d="m-312-560h-8z"/><path d="m-320-592h8z"/><path d="m-312-592v32z"/><path d="m-480-624v-160z"/><path d="m-480-624v32z"/><path d="m-528-576 48-16z"/><path d="m-320-416v16z"/><path d="m-320-368v16z"/><path d="m-320-352h96z"/><path d="m-224-416v64z"/><path d="m-320-368h8z"/><path d="m-320-400h8z"/><path d="m-312-400v32z"/><path d="m-480-176v-160-32z"/><path d="m-480-368-48-16z"/><path d="m-272-48v-48h-32v96h32z"/><path d="m-64 128v-32 16z"/><path d="m-208-48v-48h-32-32v48z"/><path d="m-208 128v-32-144h-64v48 128z"/><path d="m-160 192v-64h-32v64z"/><path d="m-208 128h-64v64h80v-64z"/><path d="m-160 192 96-16v-48h-96z"/><path d="m-208-96v48 144h32v-192z"/><path d="m-208 128h16 32 96v-16-16h-112z"/><path d="m-208 96v32l32-32z"/><path d="m-688-1104h32v-64h-16l-16 32z"/><path d="m-688-992 16 32h16v-48-32h-32z"/><path d="m-688-1104h32z"/><path d="m-656-1168h-16z"/><path d="m-656-1040h-32z"/><path d="m-656-1072v-32h-32v16 32 16h32z"/><path d="m-656-960h-16z"/><path d="m-672-960-16-32z"/><path d="m-704-1040v16l16 32v-48z"/><path d="m-704-1104h16v-32z"/><path d="m-704-1040h16z"/><path d="m-624-1264h-32v32 32z"/><path d="m-704-1248v16h16 32v-32-48h-16z"/><path d="m-656-1312v48h32l24-48z"/><path d="m-688-1168h-16v64l16-32 16-32z"/><path d="m-688-1232h32z"/><path d="m-704-1168h16z"/><path d="m-656-1232h-32v16 32 16h16l16-32z"/><path d="m288 192v32z"/><path d="m400 192v32-16-32z"/><path d="m400 192v32z"/><path d="m288 192h96z"/><path d="m-64 192v32z"/><path d="m-160 192h96z"/><path d="m-160 192h96v-16z"/><path d="m-64 240v-16z"/><path d="m592 624v-96h64v96z"/><path d="m80 512v-32 32 64z"/><path d="m-112-784v-32z"/><path d="m112-816v32z"/><path d="m144-784v-32z"/><path d="m144-816h-32v32h32z"/><path d="m-144-816v32z"/><path d="m-112-816h-32v32h32z"/><path d="m-368-784v-32z"/><path d="m-400-816v32z"/><path d="m-368-816h-32v32h32z"/><path d="m-480-592v-32z"/><path d="m-448-624h-32v32h32z"/><path d="m-448-368h-32z"/><path d="m-448-336v-32z"/><path d="m-480-336h32z"/><path d="m-480-368v32z"/><path d="m-448-368h-32v32h32z"/><path d="m192 480h-16 112z"/><path d="m192 480h96z"/><path d="m144 480h16-32z"/><path d="m160 480h-16 32z"/><path d="m80 480h16-32z"/><path d="m-64 480h96z"/><path d="m48 480h-16-96z"/><path d="m-560-432v-16z"/><path d="m-560-448v-64z"/><path d="m-560-512v-16z"/><path d="m288 224v80z"/><path d="m288 336v32z"/><path d="m288 400v32z"/><path d="m288 336h-32z"/><path d="m288 304-32 16v16h32z"/><path d="m288 464-32-16z"/><path d="m288 432h-32v16l32 16z"/><path d="m96 480v-32z"/><path d="m48 480h16v-32h-16l-16 32z"/><path d="m32 480 16-32z"/><path d="m144 512v-32h-16-32-16v32z"/><path d="m144 480v32 64-64z"/><path d="m80 512v64z"/><path d="m80 480v32z"/><path d="m688 624h-32-64 64z"/><path d="m688 528v96z"/><path d="m688 624v-96 32 32z"/><path d="m656 528h32z"/><path d="m688 624h-32v-96h32z"/><path d="m688 528h-32v96h32z"/><path d="m656 528h-64v96h64z"/><path d="m656 624h-64v-96h64z"/><path d="m592 528v96-32-32z"/><path d="m592 528h64z"/><path d="m592 624v-96z"/><path d="m688 624h-96 64z"/><path d="m688 528v32z"/><path d="m656 32v16z"/><path d="m656 80v16z"/><path d="m656 48v32z"/><path d="m656 160v-64z"/><path d="m656 208v16z"/><path d="m656 176v32z"/><path d="m688 560h-32v32h32z"/><path d="m656 96v-16h-112v16z"/><path d="m656 80v-32h-112v32z"/><path d="m656 48v-16h-112v16z"/><path d="m656 176v-16h-112v16z"/><path d="m656 176h-112v32h112z"/><path d="m656 224v-16h-112v16z"/><path d="m656 160h-64-48z"/><path d="m544 224h-32-112 112z"/><path d="m544 32h-32z"/><path d="m544 96h-32z"/><path d="m544 80h-32v16h32z"/><path d="m544 48h-32v32h32z"/><path d="m544 32h-32v16h32z"/><path d="m544 208h-32v16h32z"/><path d="m544 176h-32v32h32z"/><path d="m544 160h-32v16h32z"/><path d="m288 128v-32 80z"/><path d="m400 32h16z"/><path d="m512 160h-112v16h80 32z"/><path d="m512 136v-16h-112v16z"/><path d="m480 80v-32h-80v32z"/><path d="m512 32h-96-16v16h80 32z"/><path d="m512 48h-32v32h32z"/><path d="m512 80h-32-80v16h112z"/><path d="m400 136v24z"/><path d="m512 120h-32-80z"/><path d="m512 160h-32-80z"/><path d="m400 160v-24-16-24 32 64-16z"/><path d="m-64 128h-96z"/><path d="m512 176h-32v32h32z"/><path d="m512 208h-32-80v16h112z"/><path d="m480 176h-80v32h80z"/><path d="m288 176v16h96z"/><path d="m-64 192v32z"/><path d="m256 320 32-16z"/><path d="m256 432h32z"/><path d="m256 400h32z"/><path d="m256 368v32h32v-32z"/><path d="m256 320h-144z"/><path d="m160 448h-32z"/><path d="m176 448h80z"/><path d="m96 448h-32z"/><path d="m48 448v-16z"/><path d="m64 384h-16v48h16z"/><path d="m64 448h32 32 32 16 80v-16h-16-176-16v16z"/><path d="m240 336h-128l-48 48v48h176z"/><path d="m256 400v-32-32h-16v96h16z"/><path d="m256 320h-144v16h128 16z"/><path d="m112 336v-16h-6l-58 58v6h16z"/><path d="m106 320-58 58z"/><path d="m160 448v32z"/><path d="m176 448h-16v32h16 16z"/><path d="m128 448h-32v32h32z"/><path d="m592 528h64z"/><path d="m624 560h-32v32h32z"/><path d="m592 624v-32z"/><path d="m32-112v-64z"/><path d="m-32-176v64z"/><path d="m32-112h-64v-64h64z"/><path d="m736 672v-32-16-32 48z"/><path d="m688 592v32z"/><path d="m704 624v-112h32v48 32 32z"/><path d="m688 624v-32-32-32-16h16v112z"/><path d="m688 480h48v32h-32-16z"/><path d="m656 592v-32z"/><path d="m688 592h-32v-32h32z"/><path d="m688 528h-32v-16h32z"/><path d="m656 480h32v32h-32z"/><path d="m656 528h32z"/><path d="m688 592h-32z"/><path d="m656 560h32z"/><path d="m-64 480h96 16z"/><path d="m512 136v-16z"/><path d="m512 120h-24z"/><path d="m512 96h-24z"/><path d="m512 160h-24z"/><path d="m-656-1168v-32 32 64z"/><path d="m-656-1104v32z"/><path d="m-176-1168v-32z"/><path d="m-176-1072v-32z"/><path d="m-592-1008h-32z"/><path d="m-528-1008h96 16-16z"/><path d="m-416-1008h112z"/><path d="m-240-1008h32z"/><path d="m-304-1264h64 32-80-80z"/><path d="m-208-1264h-32z"/><path d="m-176-1072-32 64z"/><path d="m-208-1264 32 64z"/><path d="m-240-1168v64 64l32-64v-64l-32-64z"/><path d="m-176-1168h-32v64h32z"/><path d="m-208-1168-32-64z"/><path d="m-240-1040 32-64z"/><path d="m-528-1264h-64v32h64z"/><path d="m-400-1232h-128-64l-32 64h32 192z"/><path d="m-368-1168h128v-64h-64-96v64z"/><path d="m-240-1264h-64v32h64z"/><path d="m-400-1232h96-96-128z"/><path d="m-592-1232-32 64z"/><path d="m-368-1168h-32-192v64h192 32z"/><path d="m-240-1104v-64h-128v64z"/><path d="m-624-1104h32v-64h-32-32v64z"/><path d="m-528-1040h-64v32h64z"/><path d="m-240-1040h-64v32h64z"/><path d="m-400-1104h-192-32l32 64h64 128z"/><path d="m-304-1040h64v-64h-128-32v64z"/><path d="m288-96v-112h64v128h-64z"/><path d="m384-208h64 32v240h-128v-112-128z"/><path d="m480-208h-32z"/><path d="m480-208v240z"/><path d="m352-80h-64z"/><path d="m384 160h-32v-64h32z"/><path d="m400 120v16 24h-16v-64h16z"/><path d="m480 136h-80v-16h80z"/><path d="m480 80v16h-80-16-32v-16z"/><path d="m480 48v32h-128v-32z"/><path d="m480 32v16h-128v-16z"/><path d="m512 96h-32 8z"/><path d="m512 136h-32 8z"/><path d="m400 96v24z"/><path d="m480 136h32-112z"/><path d="m480 96h32-112z"/><path d="m-128-272 24 16v144 16h-24z"/><path d="m-100-272v16h-4l-24-16-96-64 16-10z"/><path d="m32-176h-64v-80h64z"/><path d="m-100-256h68v80 64h-72v-144z"/><path d="m-32-112h64 96v16h-192-40v-16z"/><path d="m100-256h4 24v48 96h-96v-64-80z"/><path d="m100-272v16h-68-64-68v-16z"/><path d="m208-346 16 10-96 64-24 16h-4v-16z"/><path d="m128-256h-24l24-16z"/><path d="m128-112v-96h160v112h-160z"/><path d="m-208-614v86h-16v-16-80z"/><path d="m-272-432h48v16h-64v-16z"/><path d="m-272-432h-16v-96h16z"/><path d="m-224-416v-16h16v86l-16 10z"/><path d="m-224-544v16h-48-16v-16z"/><path d="m-224-624 120-80h4v16l-108 74z"/><path d="m288-432h-16v-96h16z"/><path d="m208-432h16v16 80l-16-10z"/><path d="m272-432h16v16h-64v-16z"/><path d="m208-614 16-10v80 16h-16z"/><path d="m288-544v16h-16-48v-16z"/><path d="m-96-704h196v16h-200v-16z"/><path d="m100-688v-16h4l120 80-16 10z"/><path d="m-224-416h-32-32z"/><path d="m224-544h32 32z"/><path d="m-288-544v16 96 16z"/><path d="m128-256v-16 64z"/><path d="m288-208h-160z"/><path d="m224-416v64 16z"/><path d="m-208-432v80 6z"/><path d="m-208-614v86z"/><path d="m208-528v-86z"/><path d="m224-528h48-48-16z"/><path d="m272-432v-96z"/><path d="m100-688h-200z"/><path d="m-100-688-108 74z"/><path d="m-208-346 108 74z"/><path d="m-32-112h64z"/><path d="m32-176h-64z"/><path d="m-224-432h-48 48 16z"/><path d="m-272-528v96z"/><path d="m128-16v-64 32z"/><path d="m288-96v16h-160v-16z"/><path d="m128-96v16 64h-192v-80z"/><path d="m128-16h-64-32-64-32z"/><path d="m-128-16v-32h24v32z"/><path d="m-104-96v48h-24v-48z"/><path d="m-64-16h-40v-32-48h40z"/><path d="m-128-96v48 32-32z"/><path d="m480 208v16h-128v-16z"/><path d="m480 176v32h-128v-32z"/><path d="m384 160h16 80v16h-128v-16z"/><path d="m480 176v-16z"/><path d="m352 160v-32z"/><path d="m288 304v-80 96z"/><path d="m288 480v-16z"/><path d="m480 320v-96 224z"/><path d="m288 432v-32-32-32-16h32v128h-32z"/><path d="m320 320h32 128v128h-32-64-64z"/><path d="m352 224h128v96h-128z"/><path d="m320 320h-32 64z"/><path d="m384 448v16z"/><path d="m448 464v16z"/><path d="m448 464v-16z"/><path d="m384 464v-16h64v16 16h-64z"/><path d="m64 432h-16v-48h16z"/><path d="m48 448h16v32h-16-16z"/><path d="m96 448h32v32h-32z"/><path d="m160 448h16l16 32h-16-16z"/><path d="m256 448v-16h32v16 16z"/><path d="m64 432h176 16v16h-80-16-32-32-32-16v-16z"/><path d="m240 400h16v32h-16z"/><path d="m256 400h-16v-32h16 32v32z"/><path d="m240 336h16v32h-16z"/><path d="m112 336h128v32 32 32h-176v-48z"/><path d="m106 320h6v16l-48 48h-16v-6z"/><path d="m256 336h-16-128v-16h144 32v16z"/><path d="m256 320 32-16v16z"/><path d="m256 400v32z"/><path d="m256 336v32z"/><path d="m288 368h-32z"/><path d="m106 320h6z"/><path d="m48 432v-48z"/><path d="m48 384v-6z"/><path d="m176 448 16 32z"/><path d="m128 448v32z"/><path d="m64 480v-32z"/><path d="m384 480v128-64z"/><path d="m576 512h16v16 32 32 32h-16z"/><path d="m656 528h-64v-16h64z"/><path d="m544 624v-16-64-64h32v32 112z"/><path d="m592 512h-16v-32h48 32v32z"/><path d="m624 592h-32v-32h32z"/><path d="m624 560v32z"/><path d="m624 592h-32z"/><path d="m592 560v-32z"/><path d="m592 560h32z"/><path d="m448 608v-64h96v64z"/><path d="m448 480v64 64h-64v-128z"/><path d="m144 512h-64z"/><path d="m64 480h32 32 32 16l-32 32h-64l-32-32z"/><path d="m144 512v64z"/><path d="m656 672h-32-48v-32h16 96 16 32v32z"/><path d="m544 672v-48h32v16 32z"/><path d="m592 624v16h-16v-16z"/><path d="m704 640h-16v-16h16z"/><path d="m592 640v-16h96v16z"/><path d="m736 640h-32v-16h32z"/><path d="m448 448h-64v16h64z"/><path d="m736 672h-80z"/><path d="m748 592v-32-48h-12-4v48 32 48h4 12z"/><path d="m736 512v48-48-32z"/><path d="m736 592v-32z"/><path d="m748 512h-12z"/><path d="m748 592h-12v-32h12z"/><path d="m748 560h-12v-48h12z"/><path d="m736 640v-48h12v48z"/><path d="m-96-704h32z"/><path d="m-64-704h32 64 32 40-4-196z"/><path d="m-96-704h-4-4z"/><path d="m32-768v64z"/><path d="m32-704h-64v-64h64z"/><path d="m-32-704v-64z"/><path d="m-32-768h64z"/><path d="m288 464v-16z"/><path d="m384 464v16z"/><path d="m448 464v16z"/><path d="m384 464v-16z"/><path d="m-16-736h-16v32h16z"/><path d="m32-736h-16v32h16z"/><path d="m32-768h-64v32h64z"/><path d="m16-736h-32z"/><path d="m592 160h64v-64h-64z"/><path d="m592 160v-64h-48v64z"/><path d="m592 96h64-112z"/><path d="m544 160h-32z"/><path d="m544 96h-32v24 16 24h32z"/><path d="m512 96h-24v24h24z"/><path d="m488 160h24v-24h-24z"/><path d="m512 136h-24z"/><path d="m480 136v-16z"/><path d="m480 136v-16-24 32z"/><path d="m480 120h32-24z"/><path d="m488 96h-8v24h8z"/><path d="m480 136v24h8v-24z"/><path d="m480 160h32-24z"/><path d="m-496-1040h-32v16h32z"/><path d="m624 672h-80 32z"/><path d="m656 672h-32z"/><path d="m736 512v-32z"/><path d="m736 672v-32z"/><path d="m736 512h-16 12z"/><path d="m624 672v-32h-48l-32 32z"/><path d="m688 480h48z"/><path d="m656 480h32z"/><path d="m656 480h-32z"/><path d="m624 480h-48-32z"/><path d="m480-208-32 32v208h32z"/><path d="m-128-1328v16h-112v-16z"/><path d="m-304-1328h64v16h-64z"/><path d="m-304-1328v16h-224v-16z"/><path d="m-592-1328h64v16h-64z"/><path d="m-600-1312h-56v-16h64v16z"/><path d="m-664-1328h8v16h-16z"/><path d="m-624-1264-32 64z"/><path d="m-656-1168v-32z"/><path d="m-128-1312v48h-48-32-32v-48z"/><path d="m-176-1072v-32-64-32-64h48v224h-48z"/><path d="m-128-1040v32h-48v-32z"/><path d="m-240-1168v-64l32 64z"/><path d="m-176-1200-32-64h32z"/><path d="m-240-1312v48 32 64h-64v-64-32-48z"/><path d="m-304-1312v48h-224v-48z"/><path d="m-400-1168h-192-32l32-64h64 128z"/><path d="m-304-1232v64h-64-32v-64z"/><path d="m-208-1168h32v64h-32-32v-64z"/><path d="m-304-1040h-224v-64h160 64z"/><path d="m-240-1104h32l-32 64h-64v-64z"/><path d="m-176-1040v32h-32l32-64z"/><path d="m-208-1008h32 48v48h-112v-48z"/><path d="m-368-1104h-160-64v-64h192 32z"/><path d="m-304-1168h64v64h-64-64v-64z"/><path d="m-240-1008v48h-64v-48-32h64z"/><path d="m-432-960h-224v-48h32 32 64 96z"/><path d="m-416-1008h112v48h-128v-48z"/><path d="m-528-1312v48 32h-64v-32-48z"/><path d="m-592-1264h-32l24-48h8z"/><path d="m-592-1040v-64h64v64 32h-64z"/><path d="m-592-1168v64 64l-32-64v-64z"/><path d="m-624-1104h-32v-64h32z"/><path d="m-656-1072 32 64h-32z"/><path d="m-624-1264h32z"/><path d="m-304-1264h-64-160z"/><path d="m-240-1264v32z"/><path d="m-240-1040v32z"/><path d="m-176-1104h-32z"/><path d="m-208-1168h32z"/><path d="m-656-1168h32z"/><path d="m-528-1264v32z"/><path d="m-304-1232v-32z"/><path d="m-592-1232v-32z"/><path d="m-624-1104h-32z"/><path d="m-624-1008-32-64z"/><path d="m-528-1040v32z"/><path d="m-304-1008v-32z"/><path d="m-304-1040h-96-128z"/><path d="m-592-1008v-32z"/><path d="m-592-1040-32-64z"/><path d="m448-208h-64z"/><path d="m384-208h-32-64z"/><path d="m352-80 32-32h-32-64v16 16z"/><path d="m352-80v112z"/><path d="m352-80v112h32v-112z"/><path d="m480 80v16z"/><path d="m480 32v16z"/><path d="m480 48v32z"/><path d="m352 80v16z"/><path d="m352 96v64-32z"/><path d="m352 48v32z"/><path d="m352 32v16z"/><path d="m288-208h-160v32h160z"/><path d="m-64 128v48z"/><path d="m288-80h-160z"/><path d="m-656-1200v32 64 32 64h-16v-160z"/><path d="m-656-960h-16v-48h16z"/><path d="m-656-1264h32l-32 64z"/><path d="m-656-1312v48 64l-16 32v-144z"/><path d="m-624-1264h-32v-48h56z"/><path d="m480 160v-24-8z"/><path d="m480 224v-16z"/><path d="m480 208v-32z"/><path d="m352 160v16z"/><path d="m352 208v16z"/><path d="m352 176v32z"/><path d="m-64 128v-32z"/><path d="m288 320v32z"/><path d="m448 448h32z"/><path d="m288 448h32 64z"/><path d="m480 224h-32v192l32 32z"/><path d="m352 224v96z"/><path d="m352 320h-64v32h32 64z"/><path d="m448 448v16z"/><path d="m384 464v16z"/><path d="m448 464h-64v16h64z"/><path d="m448 448h-64z"/><path d="m544 544v-64z"/><path d="m544 624v-16z"/><path d="m544 480v64 16h32v-48z"/><path d="m544 608h-96-64 64z"/><path d="m448 480v64z"/><path d="m448 544h96z"/><path d="m544 592v-32-16h-96v64h96z"/><path d="m448 544h-64v64h64z"/><path d="m384 480v64h64v-64z"/><path d="m-672-1328h8l-8 16z"/><path d="m544 672v-48z"/><path d="m544 624v48l32-32v-16z"/><path d="m-496-1040v16z"/><path d="m-528-1024v-16z"/><path d="m-496-1024h-32z"/><path d="m-496-1024h-32v-16h32z"/><path d="m-528-1040h32z"/><path d="m384 464v-16z"/><path d="m448 464h-64v-16h64z"/><path d="m448 448v16z"/><path d="m448 464h-64z"/><path d="m384 448h64z"/><path d="m32-736v32z"/><path d="m32-768v32z"/><path d="m-16-736v32h32v-32z"/><path d="m-16-736v32z"/><path d="m16-704v-32z"/><path d="m32-704h-16z"/><path d="m-16-704h-16z"/><path d="m736 640h12z"/><path d="m176 80h-128z"/><path d="m208 96h80-48z"/><path d="m176 96h32z"/><path d="m176 96v-16h-128v16z"/><path d="m48 96v-16z"/><path d="m176 80v16z"/><path d="m448 448h-64v16h64z"/><path d="m384 464h64z"/><path d="m720 640h-16l32 32v-32z"/><path d="m720 640h16-4z"/><path d="m720 512v48h12v-48z"/><path d="m720 560v32h12v-32z"/><path d="m720 592v48h12v-48z"/><path d="m64-704h32 8z"/><path d="m32-704h32z"/><path d="m-64-704h32z"/><path d="m32-768h-64v64h64z"/><path d="m64-704v32 10.6667-10.6667z"/><path d="m64-672v-32h-32-64-32v32z"/><path d="m128-96v-16z"/><path d="m128-96v16h160v-16z"/><path d="m32-768v64z"/><path d="m-32-768v64z"/><path d="m32-768h-64z"/><path d="m32-704h-64z"/><path d="m32-704h-64v-64h64z"/><path d="m160 96h48-32-128-32z"/><path d="m160 96h-144-80z"/><path d="m48 448h-80-32v32h112z"/><path d="m-32 352h16v-128h-16z"/><path d="m-32 224v-96h-32v64 32 128h32z"/><path d="m-64 352v64 32h32v-96z"/><path d="m-64-48h-64v32h64z"/><path d="m32-48h-64v32h64z"/><path d="m64-192h-128v16h128z"/><path d="m-192-352h-32v16l96 64v-37.3333z"/><path d="m-96-288-32-21.3333v37.3333 96h32z"/><path d="m144 576v-64h-64v64z"/><path d="m608 560h-32v32h32z"/><path d="m704 560h-32v32h32z"/><path d="m624 512v32h32v-32z"/><path d="m608 560h16v-16-32h-48v48z"/><path d="m624 640v-32-16h-16-32v32 16z"/><path d="m688 512h-32v32 16h16 32v-48z"/><path d="m672 592h-16v16 32h48v-48z"/><path d="m656 608h-32v32h32z"/><path d="m288 464v-16h-32-80v32h112z"/><path d="m144 512 32-32v-32-16h-128v16 32l32 32z"/><path d="m288 416v-64h-32v96h32z"/><path d="m320 352h-32v64h32z"/><path d="m384 352h-64v64h64z"/><path d="m288 320v-96h-32-16v128h16 32z"/><path d="m448 224h-64v96 32 64h64z"/><path d="m448 176v-16h-64v16z"/><path d="m448 208v-32h-64v32z"/><path d="m448 224v-16h-64v16z"/><path d="m128-16v-32h-32-32v32z"/><path d="m160 96h-224v32h32 80 112z"/><path d="m176 128h80 32v-32h-128v32z"/><path d="m176 144v-16h-16-112v16z"/><path d="m288 128h-32v96h32z"/><path d="m128-208h-32v32h32z"/><path d="m352-176h-64-160v64h160 64z"/><path d="m384-112v-64h-32v64z"/><path d="m96-176h-32-128-32-32v80 48h64 32 64 32 32z"/><path d="m128-48v-32-16-16-64h-32v128z"/><path d="m128-272v-37.3333l-32 21.3333v80h32z"/><path d="m224-336v-16h-32l-64 42.6667v37.3333z"/><path d="m448 160v-64h-64v64z"/><path d="m448 48v-16h-64v16z"/><path d="m448 80v-32h-64v32z"/><path d="m448 96v-16h-64v16z"/><path d="m448 32v-208h-64v64 32 112z"/><path d="m-224-448h-32v32h32z"/><path d="m-192-608h-32v64 32h32z"/><path d="m-256-544v32h32v-32z"/><path d="m-256-416v-32-64-32h-32v128z"/><path d="m-192-448h-32v32 64h32z"/><path d="m-96-672v-32h-8l-120 80v16h32z"/><path d="m192-624h-24l24 16z"/><path d="m224-416v-32h-32v96h32z"/><path d="m256-448h-32v32h32z"/><path d="m288-416v-128h-32v32 64 32z"/><path d="m224-544v32h32v-32z"/><path d="m224-544v-80h-32v16 96h32z"/><path d="m-96-704v32h32v-32z"/><path d="m64-704v32h32v-32z"/><path d="m168-624h24 32l-120-80h-8v32z"/><path d="m64-48h-32z"/><path d="m-32-48h-32z"/><path d="m64-672v10.6667 21.3333z"/><path d="m168-624-72-48 72 48 24 16z"/><path d="m256-448v-64z"/><path d="m192-448v80 16z"/><path d="m128-309.3333 64-42.6667-96 64z"/><path d="m-64-672h-32z"/><path d="m-256-512v64z"/><path d="m64-192v-16h-128v16z"/><path d="m-128-309.3333 32 21.3333-64-42.6667-32-21.3333z"/><path d="m256 128v32 64z"/><path d="m256 352v64 32z"/><path d="m656 592h16z"/><path d="m656 560v-16z"/><path d="m672 560h-16z"/><path d="m656 544h-32z"/><path d="m656 608v-16z"/><path d="m624 608h32z"/><path d="m608 592h16z"/><path d="m624 560h-16z"/><path d="m608 560v32z"/><path d="m-32 224h16 16z"/><path d="m176 128v16 16z"/><path d="m256 128h-80z"/><path d="m32-16h32z"/><path d="m-64-16h32z"/><path d="m48 448v-16-16z"/><path d="m256 352h-16-16z"/><path d="m240 224h-16v128h16z"/><path d="m176 432v-16h-128v16z"/><path d="m-16 352h16v-128h-16z"/><path d="m-32 448h80z"/><path d="m-32 352v96z"/><path d="m704 512h16 16v-32z"/><path d="m704 640h16v-48h-16z"/><path d="m704 592h16v-32h-16z"/><path d="m704 560h16v-48h-16z"/><path d="m704 640h-48v32h80z"/><path d="m624 640v32h32v-32z"/><path d="m688 512h16l32-32h-48z"/><path d="m656 512h32v-32h-32z"/><path d="m176 480h16 96z"/><path d="m448 416h-128-32v32h96 64 32z"/><path d="m448 224h32v-16h-32z"/><path d="m448 176h32v-16h-32z"/><path d="m448 208h32v-32h-32z"/><path d="m448 160h32v-32-32h-32z"/><path d="m448 80h32v-32h-32z"/><path d="m448 48h32v-16h-32z"/><path d="m448 96h32v-16h-32z"/><path d="m288-416v-16-96-16z"/><path d="m352-176h32 64l32-32h-32-64-96v32z"/><path d="m384-112-32 32h32z"/><path d="m384 32h-32v16h32z"/><path d="m384 48h-32v32h32z"/><path d="m384 80h-32v16h32z"/><path d="m384 96h-32v32z"/><path d="m256-416h-32 64z"/><path d="m224-544v-80z"/><path d="m-224-608v-16 80z"/><path d="m224-624-120-80z"/><path d="m-64-672v10.6667-10.6667-32z"/><path d="m64-661.3333v-10.6667h-128v10.6667z"/><path d="m-104-704-120 80z"/><path d="m-256-544h32-64z"/><path d="m128-176v-32z"/><path d="m128-272 96-64z"/><path d="m288-112h-160v16h160z"/><path d="m-128-176v-96 176z"/><path d="m-224-352v-64 80z"/><path d="m-224-336 96 64z"/><path d="m128-80v-16z"/><path d="m288 96h-80-48z"/><path d="m-64-16h-64 24z"/><path d="m288 96v32 96-32-16z"/><path d="m384 96-32 32v32h32z"/><path d="m384 160h-32v16h32z"/><path d="m384 208h-32v16h32z"/><path d="m384 176h-32v32h32z"/><path d="m-64 128v48 16z"/><path d="m-64 416v-64 128z"/><path d="m-64 352v-128 16z"/><path d="m384 224h-32v96h32z"/><path d="m384 320h-32l32 32z"/><path d="m288 416v32z"/><path d="m288 448v16z"/><path d="m288 464v16z"/><path d="m-64 480v-32-32z"/><path d="m576 592h-32v16 16h32z"/><path d="m576 560h-32v32h32z"/><path d="m624 512v-32h-80l32 32z"/><path d="m656 512v-32h-32v32z"/><path d="m48 480 32 32z"/><path d="m176 480-32 32z"/><path d="m80 576v-64z"/><path d="m32-48v32z"/><path d="m64-16v-32z"/><path d="m64-48h-32v32h32z"/><path d="m-32-16v-32z"/><path d="m-64-48v32z"/><path d="m-32-48h-32v32h32z"/><path d="m-64-640h128v-21.3333h-128z"/><path d="m176 160v-16h-128v16z"/><path d="m224 224v128z"/><path d="m176 416h-80-48z"/></g><g id="e"><path d="m168-624-72-48v-64h176v128h-16-64z"/><path d="m96-672h-32v-48-16h32z"/><path d="m64-672v32h-128v-32-48h128z"/><path d="m-64-720v-16h128v16z"/><path d="m-64-720v48h-32v-64h32z"/><path d="m256-512h-64v-96h64z"/><path d="m256-448v-64-96h16 48v240h-64z"/><path d="m192-368v-80h64v80z"/><path d="m-272-736h176v64l-96 64h-64-16z"/><path d="m-320-608h48 16v96 64 64h-64z"/><path d="m-256-384v32h-16-48v-32z"/><path d="m-192-512h-64v-96h64z"/><path d="m-256-384v-64h64v96h-64z"/><path d="m256-368h64v16h-48-80v-16z"/><path d="m192-352h80v144h-144-32v-80z"/><path d="m128-176h-32v-32h32z"/><path d="m-64-176h128 32 32v64h-224v-64z"/><path d="m256 224v-64-32h64v224h-64z"/><path d="m320 352v96h-64v-32-64z"/><path d="m128 128h-80-80-64v-64h224z"/><path d="m320 64v64h-64-80-48v-64z"/><path d="m128 128h48v32h-80-48v-32z"/><path d="m224 224h32v128h-32z"/><path d="m96 416h80v32h-128v-32z"/><path d="m192 512h-224v-64h80 128 16z"/><path d="m256 448h64v64h-128v-64z"/><path d="m656 560v32h16v-32z"/><path d="m608 560v32h16v-32z"/><path d="m656 592v-32-16h-32v16 32 16h32z"/><path d="m64-176h-128v-32h128z"/><path d="m-160-176v-154.6667l64 42.6667v112 64h-64z"/><path d="m-256-352h64l32 21.3333v154.6667h-112v-176z"/><path d="m-32 224h32v128h-32z"/><path d="m-96 128h64v96 128h-64z"/><path d="m-32 352v96 64h-64v-160z"/><path d="m64-208v16 16z"/><path d="m192-448h32 32z"/><path d="m256-512h-32-32z"/><path d="m96-672h-32z"/><path d="m192-512v-96z"/><path d="m96-176h-32z"/><path d="m96-208v32-32-80z"/><path d="m-256-448h32 32z"/><path d="m-64-640v-21.3333-10.6667z"/><path d="m64-640h-128z"/><path d="m-192-512h-32-32z"/><path d="m-192-608v96z"/><path d="m-96-672-96 64z"/><path d="m-64-176v-16-16z"/><path d="m-64-208h128z"/><path d="m-64-176h-32z"/><path d="m-96-288v112z"/><path d="m-192-448v96z"/><path d="m624 560v-16z"/><path d="m624 608v-16z"/><path d="m672 560v32z"/><path d="m224 224h16 16z"/><path d="m-32 128h80z"/><path d="m48 160v-16-16z"/><path d="m96 160h80-128z"/><path d="m-32 224v-96z"/><path d="m176 416v16 16z"/><path d="m256 448h-64-16z"/><path d="m0 352h-16-16z"/><path d="m0 224v128z"/></g></defs><g stroke="#000"><use fill="none" stroke-miterlimit="0" stroke-width="10" xlink:href="#a"/><use fill="#c2c2c2" xlink:href="#a"/><use fill="none" stroke-miterlimit="0" stroke-width="10" xlink:href="#b"/><use fill="#d1d1d1" xlink:href="#b"/><use fill="none" stroke-miterlimit="0" stroke-width="10" xlink:href="#c"/><use fill="#e0e0e0" xlink:href="#c"/><use fill="none" stroke-miterlimit="0" stroke-width="10" xlink:href="#d"/><use fill="#f0f0f0" xlink:href="#d"/><use fill="none" stroke-miterlimit="0" stroke-width="10" xlink:href="#e"/><use fill="#fff" xlink:href="#e"/></g></svg>