<?xml version="1.0" encoding="utf-8" ?>
<svg baseProfile="tiny" height="100%" version="1.2" viewBox="-898.0 -882.0 1372.0 1636.0" width="100%" xmlns="http://www.w3.org/2000/svg" xmlns:ev="http://www.w3.org/2001/xml-events" xmlns:xlink="http://www.w3.org/1999/xlink"><defs><g id="bsp_ref"><polygon points="-180,-440 -180,-476 -180,-476 -180,-440" /><polygon points="28,-440 28,-476 28,-476 28,-440" /><polygon points="-12,-476 28,-476 28,-440 -12,-440" /><polygon points="-12,-476 -12,-476 4,-476 28,-476 28,-476" /><polygon points="-12,-440 28,-440 28,-440 -12,-440" /><polygon points="-220,-476 -180,-476 -180,-440 -220,-440" /><polygon points="-220,-440 -180,-440 -180,-440 -220,-440" /><polygon points="-180,-476 -220,-476 -220,-476 -180,-476" /><polygon points="-368,-64 -416,-64 -416,-136 -416,-216 -408,-208 -320,-120 -352,-64" /><polygon points="-464,-136 -464,-288 -464,-360 -440,-360 -416,-360 -416,-216 -416,-136" /><polygon points="-464,-64 -464,-136 -416,-136 -416,-64" /><polygon points="-464,-360 -464,-388 -440,-388 -440,-360" /><polygon points="-464,-432 -416,-432 -416,-388 -440,-388 -464,-388" /><polygon points="-220,-163 -220,-168 -200,-168" /><polygon points="-160,-176 -160,-168 -200,-168 -220,-168 -220,-176" /><polygon points="-160,-64 -160,-72 -144,-72 -128,-72 -128,-64" /><polygon points="-144,-176 -128,-176 -128,-160 -128,-72 -144,-72" /><polygon points="-176,-64 -176,-80 -160,-80 -160,-72 -160,-64" /><polygon points="-128,-176 -128,-208 -128,-384 -88,-384 -88,-176 -88,-160 -128,-160" /><polygon points="-88,-160 -88,-64 -128,-64 -128,-72 -128,-160" /><polygon points="-180,-432 -128,-432 -128,-384 -128,-208 -220,-208 -220,-432" /><polygon points="-128,-208 -128,-176 -144,-176 -160,-176 -220,-176 -220,-177.1429 -220,-208" /><polygon points="-380,-432 -352,-432 -220,-432 -220,-208 -408,-208 -416,-216 -416,-360 -416,-388 -416,-432" /><polygon points="-220,-208 -220,-177.1429 -264,-152 -320,-120 -408,-208" /><polygon points="-220,-177.1429 -220,-176 -220,-168 -220,-163 -264,-152" /><polygon points="-380,-456 -380,-432 -416,-432 -464,-432 -464,-480 -380,-480" /><polygon points="-380,-480 -352,-480 -352,-456 -380,-456" /><polygon points="-220,-432 -220,-440 -180,-440 -180,-432" /><polygon points="-256,-480 -220,-480 -220,-476 -220,-440 -220,-432 -352,-432 -352,-456 -352,-480" /><polygon points="-256,-584 -220,-584 -220,-480 -256,-480" /><polygon points="-180,-432 -180,-440 -180,-476 -128,-476 -128,-448 -128,-432" /><polygon points="-32,-80 -16,-80 -16,-72 -32,-72" /><polygon points="-48,-64 -48,-72 -32,-72 -16,-72 -16,-64" /><polygon points="-64,-176 -48,-176 -48,-72 -48,-64 -88,-64 -88,-160 -88,-176" /><polygon points="128,-144 128,-120 72,-152 30,-176 128,-176" /><polygon points="30,-176 72,-152 64,-154 8,-168 8,-176" /><polygon points="8,-176 8,-168 -32,-168 -32,-176" /><polygon points="-88,-384 -64,-384 -64,-208 -64,-176 -88,-176" /><polygon points="-64,-208 -64,-384 -64,-432 -12,-432 28,-432 128,-432 128,-368 128,-208" /><polygon points="30,-176 8,-176 -32,-176 -48,-176 -64,-176 -64,-208 128,-208 128,-176" /><polygon points="256,-368 280,-368 304,-368 304,-288 304,-144 128,-144 128,-176 128,-208 128,-368" /><polygon points="304,-144 304,-64 176,-64 160,-64 128,-120 128,-144" /><polygon points="184,-432 212,-432 256,-432 256,-396 256,-368 128,-368 128,-432" /><polygon points="304,-396 304,-368 280,-368 280,-396" /><polygon points="304,-432 304,-396 280,-396 256,-396 256,-432" /><polygon points="-64,-448 -64,-432 -64,-384 -88,-384 -128,-384 -128,-432 -128,-448" /><polygon points="-12,-448 -12,-440 -12,-432 -64,-432 -64,-448" /><polygon points="-12,-476 -12,-448 -64,-448 -128,-448 -128,-476" /><polygon points="28,-440 28,-432 -12,-432 -12,-440" /><polygon points="-24,-592 -24,-584 -168,-584 -168,-592" /><polygon points="-168,-608 -24,-608 -16,-608 -16,-592 -24,-592 -168,-592 -176,-592 -176,-608" /><polygon points="4,-476 -12,-476 -128,-476 -180,-476 -220,-476 -220,-480 -220,-584 -168,-584 -24,-584 4,-584" /><polygon points="28,-584 64,-584 64,-480 64,-476 28,-476 4,-476 4,-584" /><polygon points="-88,-768 -24,-768 -24,-616 -24,-608 -168,-608 -168,-616 -168,-768" /><polygon points="64,-476 184,-476 184,-456 184,-432 128,-432 28,-432 28,-440 28,-476" /><polygon points="212,-480 212,-476 184,-476 64,-476 64,-480" /><polygon points="184,-476 212,-476 212,-456 184,-456" /><polygon points="212,-456 212,-476 212,-480 304,-480 304,-432 256,-432 212,-432" /><polygon points="-24,-768 -24,-768 -24,-616 -24,-616" /><polygon points="304,-368 304,-396 304,-432 304,-480 304,-480 304,-288 304,-288" /><polygon points="-464,-288 -464,-136 -464,-64 -464,-64 -464,-64 -464,-288" /><polygon points="-24,-608 -24,-608 -16,-608 -16,-608" /><polygon points="-264,-152 -264,-152 -320,-120 -320,-120" /><polygon points="-32,-80 -32,-72 -32,-72 -32,-80" /><polygon points="8,-168 8,-168 -32,-168 -32,-168 -32,-168" /><polygon points="-16,-72 -16,-80 -16,-80 -16,-64 -16,-64" /><polygon points="-48,-176 -48,-176 -48,-72 -48,-72" /><polygon points="-160,-168 -160,-168 -160,-168 -200,-168 -200,-168" /><polygon points="-12,-448 -12,-476 -12,-476 -12,-440 -12,-440" /><polygon points="-220,-440 -220,-476 -220,-476 -220,-440" /><polygon points="176,96 176,0 176,-64 304,-64 304,96" /><polygon points="176,0 160,-64 176,-64" /><polygon points="-16,136 -16,136 -176,136 -176,136" /><polygon points="-160,-64 -128,-64 -88,-64 -48,-64 -16,-64 -16,136 -176,136 -176,-64" /><polygon points="-368,-64 -352,-64 -368,0" /><polygon points="-416,-64 -368,-64 -368,0 -368,96 -464,96 -464,-64" /><polygon points="208,-496 192,-496 192,-376 208,-376" /><polygon points="320,-392 208,-392 208,-376 320,-376" /><polygon points="192,-376 192,-376 320,-376 320,-376" /><polygon points="-360,-384 -480,-384 -480,-368 -360,-368" /><polygon points="-360,-496 -376,-496 -376,-384 -360,-384" /><polygon points="-360,-368 -360,-368 -360,-496 -360,-496" /><polygon points="-96,-608 -168,-608 -168,-592 -96,-592" /><polygon points="-24,-608 -96,-608 -96,-592 -24,-592" /><polygon points="-88,-136 -104,-136 -104,-120 -88,-120" /><polygon points="244,-468 244,-468 252,-460 284,-428 292,-420 292,-420" /><polygon points="296,-432 252,-476 244,-468 292,-420 300,-428" /><polygon points="-404,-464 -412,-472 -452,-432 -460,-424 -452,-416" /><polygon points="-412,-472 -412,-472 -420,-464 -452,-432 -452,-432" /><polygon points="176,96 176,96 176,96 176,0 176,0 176,96" /><polygon points="176,96 176,96 304,96 304,96" /><polygon points="176,128 176,96 304,96 304,128" /><polygon points="292,-420 292,-420 292,-420 300,-428 300,-428 292,-420" /><polygon points="252,-476 252,-476 252,-476 244,-468 244,-468 244,-468 244,-468 252,-476" /><polygon points="292,-436 260,-468 252,-476 252,-476 296,-432 296,-432" /><polygon points="260,-468 292,-436 290,-434 258,-466" /><polygon points="254,-462 258,-466 290,-434 286,-430" /><polygon points="252,-460 254,-462 286,-430 284,-428" /><polygon points="254,-462 254,-462 286,-430 286,-430" /><polygon points="254,-462 254,-462 258,-466 258,-466" /><polygon points="258,-466 290,-434 290,-434 258,-466" /><polygon points="292,-436 292,-436 290,-434 290,-434" /><polygon points="290,-434 290,-434 286,-430 286,-430" /><polygon points="252,-460 252,-460 254,-462 254,-462" /><polygon points="-452,-432 -452,-432 -452,-432 -460,-424 -460,-424 -452,-432" /><polygon points="-444,-424 -412,-456 -404,-464 -404,-464 -452,-416 -452,-416" /><polygon points="-404,-464 -404,-464 -404,-464 -412,-472 -412,-472 -412,-472 -412,-472 -404,-464" /><polygon points="-452,-432 -420,-464 -418,-462 -450,-430" /><polygon points="-418,-462 -414,-458 -446,-426 -450,-430" /><polygon points="-414,-458 -412,-456 -444,-424 -446,-426" /><polygon points="-418,-462 -418,-462 -450,-430 -450,-430" /><polygon points="-418,-462 -418,-462 -414,-458 -414,-458" /><polygon points="-414,-458 -414,-458 -446,-426 -446,-426" /><polygon points="-444,-424 -444,-424 -446,-426 -446,-426" /><polygon points="-446,-426 -446,-426 -450,-430 -450,-430" /><polygon points="-420,-464 -420,-464 -418,-462 -418,-462" /><polygon points="-16,-64 -16,96 -16,136 -16,136 -16,-64" /><polygon points="-16,-64 -16,-64 -16,-24 -16,96 -16,96 -16,96" /><polygon points="-176,-64 -176,-64 -176,136 -176,136" /><polygon points="-16,176 -16,176 -176,176 -176,176" /><polygon points="-16,136 -16,176 -176,176 -176,136" /><polygon points="-48,-156 -144,-156 -144,-140 -48,-140" /><polygon points="-48,-112 -144,-112 -144,-96 -48,-96" /><polygon points="-176,-8 -176,-64 -176,-64 -176,136 -176,176 -176,176" /><polygon points="-176,-8 -176,176 -176,216 -176,216 -176,216 -176,200 -176,-8" /><polygon points="-16,176 -16,216 -176,216 -176,176" /><polygon points="-48,-156 -48,-156 -48,-140 -48,-140" /><polygon points="-144,-140 -144,-140 -144,-156 -144,-156" /><polygon points="-144,-140 -144,-156 -48,-156 -48,-140" /><polygon points="-48,-140 -48,-140 -144,-140 -144,-140" /><polygon points="-144,-156 -144,-156 -48,-156 -48,-156" /><polygon points="-48,-112 -48,-112 -48,-96 -48,-96" /><polygon points="-144,-96 -144,-96 -144,-112 -144,-112" /><polygon points="-144,-96 -144,-112 -48,-112 -48,-96" /><polygon points="-144,-112 -144,-112 -48,-112 -48,-112" /><polygon points="-48,-96 -48,-96 -144,-96 -144,-96" /><polygon points="-176,216 -176,216 -16,216 -16,216" /><polygon points="-16,216 -16,216 -16,176 -16,176 -16,176 -16,200 -16,216" /><polygon points="-176,256 -16,256 -16,256 -176,256" /><polygon points="-176,256 -176,216 -16,216 -16,256" /><polygon points="304,-64 304,-64 304,-144 304,-288 304,-288" /><polygon points="304,-480 304,-480 304,-312 304,-288 304,-288" /><polygon points="64,-480 64,-480 64,-584 64,-584" /><polygon points="304,-480 304,-480 212,-480 64,-480 64,-480" /><polygon points="-256,-584 -256,-584 -256,-480 -256,-480" /><polygon points="304,96 304,96 304,96 304,-64 304,-64" /><polygon points="-464,-64 -464,-64 -464,96 -464,96" /><polygon points="-24,-584 -24,-584 -12,-584 -12,-584" /><polygon points="-12,-584 28,-584 28,-584 4,-584 -24,-584 -24,-584" /><polygon points="-220,-584 -180,-584 -168,-584 -168,-584 -220,-584 -256,-584 -256,-584 -256,-584" /><polygon points="28,-584 -12,-584 -12,-592 28,-592" /><polygon points="28,-592 -12,-592 -12,-592 28,-592" /><polygon points="-168,-584 -168,-584 -168,-592 -168,-592 -168,-584" /><polygon points="-180,-584 -220,-584 -220,-592 -180,-592" /><polygon points="-220,-584 -220,-584 -220,-592 -220,-592" /><polygon points="-176,256 -176,256 -176,216 -176,216 -176,216 -176,256" /><polygon points="-176,496 -16,496 -16,496 -176,496" /><polygon points="-208,464 -216,456 -216,448 -208,448" /><polygon points="-216,320 -208,320 -208,432 -216,432" /><polygon points="-216,296 -208,288 -208,304 -216,304" /><polygon points="-208,448 -208,432 -208,320 -208,304 -208,288 -176,256 -16,256 24,296 24,456 -16,496 -176,496 -208,464" /><polygon points="-208,464 -176,496 -176,496 -208,464 -216,456 -216,456 -216,456" /><polygon points="24,456 24,456 16,464 -16,496 -16,496" /><polygon points="-256,296 -304,296 -304,292 -248,292 -248,296" /><polygon points="-248,304 -256,304 -256,296 -248,296" /><polygon points="-304,296 -256,296 -256,304 -256,320 -304,320" /><polygon points="-256,432 -304,432 -304,320 -256,320 -216,320 -216,432" /><polygon points="-248,448 -248,460 -256,460 -256,448" /><polygon points="-256,448 -256,460 -304,460 -304,432 -256,432" /><polygon points="-88,-768 -88,-768 -88,-768 -24,-768 -24,-768 -24,-768 -88,-768" /><polygon points="-168,-768 -104,-768 -88,-768 -88,-768 -168,-768" /><polygon points="-88,-768 -104,-768 -104,-764 -88,-764" /><polygon points="-88,-764 -104,-764 -104,-752 -88,-752" /><polygon points="-304,292 -328,292 -328,292 -304,292" /><polygon points="-304,292 -304,292 -248,292 -248,292 -304,292" /><polygon points="-328,460 -304,460 -304,460 -328,460" /><polygon points="-328,292 -304,292 -304,460 -328,460" /><polygon points="-304,292 -304,292 -304,296 -304,320 -304,432 -304,460 -304,460" /><polygon points="-16,112 -16,112 -16,176 -16,176" /><polygon points="-16,96 -16,112 -16,176 -16,176 -16,176 -16,136 -16,96" /><polygon points="-20,112 -16,112 -16,96 -20,96" /><polygon points="-20,112 -20,96 -32,96 -32,112" /><polygon points="320,-392 320,-392 320,-376 320,-376" /><polygon points="192,-376 192,-376 192,-496 192,-496" /><polygon points="208,-392 208,-392 320,-392 320,-392" /><polygon points="208,-496 208,-496 208,-392 208,-392" /><polygon points="192,-496 192,-496 208,-496 208,-496" /><polygon points="192,-376 192,-376 320,-376 320,-376" /><polygon points="-376,-496 -376,-496 -360,-496 -360,-496" /><polygon points="-360,-368 -360,-368 -480,-368 -480,-368" /><polygon points="-376,-384 -376,-384 -376,-496 -376,-496" /><polygon points="-360,-368 -360,-368 -360,-496 -360,-496" /><polygon points="-480,-384 -480,-384 -376,-384 -376,-384" /><polygon points="-480,-368 -480,-368 -480,-384 -480,-384" /><polygon points="-48,-156 -144,-156 -144,-140 -48,-140" /><polygon points="-48,-112 -144,-112 -144,-96 -48,-96" /><polygon points="-88,-752 -88,-752 -88,-768 -88,-768 -88,-764" /><polygon points="-104,-752 -104,-752 -88,-752 -88,-752" /><polygon points="-328,460 -304,460 -256,460 -256,460 -352,460 -352,460" /><polygon points="-256,460 -304,460 -304,460 -304,460 -256,460" /><polygon points="-256,460 -256,460 -248,460 -248,460 -256,460" /><polygon points="-328,292 -328,292 -328,460 -328,460" /><polygon points="-248,292 -248,292 -248,292 -248,296 -248,296 -248,292" /><polygon points="-352,292 -328,292 -328,460 -352,460" /><polygon points="-104,-752 -104,-752 -104,-764 -104,-768 -104,-768" /><polygon points="-88,-752 -104,-752 -104,-768 -88,-768" /><polygon points="-32,96 -32,96 -32,112 -32,112" /><polygon points="-32,112 -32,112 -16,112 -16,112 -20,112" /><polygon points="28,-592 -12,-592 -12,-584 28,-584" /><polygon points="28,-584 28,-584 28,-592 28,-592" /><polygon points="-12,-592 -12,-592 -12,-584 -12,-584" /><polygon points="-220,-584 -180,-584 -180,-592 -220,-592" /><polygon points="-180,-584 -180,-584 -180,-592 -180,-592" /><polygon points="-220,-592 -180,-592 -180,-592 -220,-592" /><polygon points="-160,-176 -144,-176 -128,-176 -128,-176 -160,-176" /><polygon points="-160,-176 -160,-176 -144,-176 -144,-176" /><polygon points="-160,-176 -160,-176 -160,-168 -160,-168 -160,-176" /><polygon points="-32,-176 -32,-176 -32,-168 -32,-168 -32,-176" /><polygon points="-48,-156 -48,-156 -48,-140 -48,-140" /><polygon points="-144,-140 -144,-140 -144,-156 -144,-156" /><polygon points="-48,-140 -48,-140 -144,-140 -144,-140" /><polygon points="-144,-140 -144,-156 -48,-156 -48,-140" /><polygon points="-144,-156 -144,-156 -48,-156 -48,-156" /><polygon points="-48,-112 -48,-112 -48,-96 -48,-96" /><polygon points="-144,-96 -144,-96 -144,-112 -144,-112" /><polygon points="-48,-96 -48,-96 -144,-96 -144,-96" /><polygon points="-144,-112 -144,-112 -48,-112 -48,-112" /><polygon points="-144,-96 -144,-112 -48,-112 -48,-96" /><polygon points="284,-428 252,-460 244,-468 244,-468 292,-420 292,-420" /><polygon points="252,-460 252,-460 244,-468 244,-468" /><polygon points="292,-420 292,-420 284,-428 284,-428" /><polygon points="252,-476 252,-476 260,-468 260,-468" /><polygon points="292,-436 292,-436 296,-432 296,-432" /><polygon points="292,-436 260,-468 258,-466 290,-434" /><polygon points="290,-434 258,-466 254,-462 286,-430" /><polygon points="254,-462 252,-460 284,-428 286,-430" /><polygon points="254,-462 254,-462 286,-430 286,-430" /><polygon points="260,-468 260,-468 258,-466 258,-466" /><polygon points="258,-466 290,-434 290,-434 258,-466" /><polygon points="284,-428 284,-428 286,-430 286,-430" /><polygon points="-420,-464 -412,-472 -412,-472 -452,-432 -452,-432" /><polygon points="-420,-464 -420,-464 -412,-472 -412,-472" /><polygon points="-404,-464 -404,-464 -412,-456 -412,-456" /><polygon points="-444,-424 -444,-424 -452,-416 -452,-416" /><polygon points="-418,-462 -420,-464 -452,-432 -450,-430" /><polygon points="-414,-458 -418,-462 -450,-430 -446,-426" /><polygon points="-412,-456 -414,-458 -446,-426 -444,-424" /><polygon points="-418,-462 -418,-462 -450,-430 -450,-430" /><polygon points="-412,-456 -412,-456 -414,-458 -414,-458" /><polygon points="-414,-458 -414,-458 -446,-426 -446,-426" /><polygon points="-452,-432 -452,-432 -450,-430 -450,-430" /><polygon points="-16,-64 -16,-64 -16,-64 -16,-64 -16,-24 -16,-24" /><polygon points="-32,112 -32,96 -16,96 -16,112" /><polygon points="-176,-24 -176,-8 -176,200 -176,200 -176,200 -176,160 -176,-24" /><polygon points="-176,200 -176,216 -176,216 -176,216 -176,200" /><polygon points="-176,-24 -176,-64 -176,-64 -176,-8 -176,-8" /><polygon points="-32,96 -32,96 -20,96 -16,96 -16,96" /><polygon points="-16,216 -16,216 -16,256 -16,256 -16,256 -16,216" /><polygon points="-48,-176 -48,-176 -32,-176 -32,-176" /><polygon points="-144,-176 -144,-176 -144,-72 -144,-72" /><polygon points="-48,-72 -48,-72 -32,-72 -32,-72 -48,-72" /><polygon points="-48,-72 -64,-72 -48,-72" /><polygon points="-48,-176 -64,-176 -64,-72 -48,-72" /><polygon points="-144,-72 -144,-72 -160,-72 -160,-72 -144,-72" /><polygon points="-248,292 -248,292 -304,292 -328,292 -352,292 -352,292" /><polygon points="-352,460 -256,460 -248,460 -248,460 -376,460 -376,460" /><polygon points="-376,292 -352,292 -352,460 -376,460" /><polygon points="-352,292 -352,292 -352,460 -352,460" /><polygon points="244,-468 252,-476 296,-432 300,-428 292,-420" /><polygon points="300,-428 296,-432 296,-432 296,-432 296,-432 300,-428" /><polygon points="252,-476 252,-476 260,-468 292,-436 296,-432 296,-432" /><polygon points="-452,-432 -412,-472 -404,-464 -452,-416 -460,-424" /><polygon points="-460,-424 -452,-416 -452,-416 -452,-416 -452,-416 -460,-424" /><polygon points="-404,-464 -404,-464 -412,-456 -444,-424 -452,-416 -452,-416" /><polygon points="-64,-176 -64,-176 -128,-176 -128,-176" /><polygon points="-160,-80 -160,-72 -160,-72 -160,-80" /><polygon points="-160,-80 -160,-80 -128,-80" /><polygon points="-16,-80 -16,-80 -16,-80 -32,-80 -32,-80" /><polygon points="-64,-72 -64,-176 -128,-176 -128,-72" /><polygon points="-32,-80 -64,-80 -32,-80" /><polygon points="-32,-176 -32,-168 -64,-168 -64,-176" /><polygon points="-32,-80 -32,-72 -64,-72 -64,-80" /><polygon points="-144,-72 -128,-72 -144,-72" /><polygon points="-128,-176 -144,-176 -144,-72 -128,-72" /><polygon points="-104,-120 -104,-136 -88,-136 -88,-120" /><polygon points="-104,-120 -104,-120 -104,-136 -104,-136" /><polygon points="-88,-120 -88,-120 -104,-120 -104,-120" /><polygon points="-88,-136 -88,-136 -88,-120 -88,-120" /><polygon points="-104,-136 -104,-136 -88,-136 -88,-136" /><polygon points="-376,292 -400,292 -400,292 -376,292" /><polygon points="-376,292 -376,292 -376,292 -248,292 -248,292 -352,292 -376,292" /><polygon points="-376,460 -248,460 -248,460 -400,460 -400,460" /><polygon points="-376,292 -376,292 -376,460 -376,460" /><polygon points="-400,292 -376,292 -376,460 -400,460" /><polygon points="-64,-176 -64,-176 -48,-176 -32,-176 -32,-176" /><polygon points="-200,-168 -200,-168 -264,-152 -264,-152 -220,-163 -200,-168" /><polygon points="-64,-176 -64,-168 -128,-168 -128,-176" /><polygon points="-64,-80 -64,-72 -128,-72 -128,-80" /><polygon points="-160,-168 -128,-168 -64,-168 -32,-168 8,-168 8,-168 -40,-168 -200,-168 -200,-168" /><polygon points="-128,-80 -128,-72 -160,-72 -160,-80" /><polygon points="-128,-176 -128,-168 -160,-168 -160,-176" /><polygon points="-160,-168 -160,-168 -128,-168" /><polygon points="-16,-80 -16,-80 -32,-80 -32,-80" /><polygon points="-16,-64 -16,-64 -16,-64 -16,-80 -16,-80 -16,-80" /><polygon points="-64,-168 -32,-168 -32,-168" /><polygon points="-64,-72 -32,-72 -48,-72 -64,-72 -128,-72 -144,-72 -160,-72 -128,-72" /><polygon points="-176,-80 -160,-80 -160,-80 -160,-80 -176,-80" /><polygon points="-176,-80 -176,-80 -176,-64 -176,-64 -176,-64 -176,-64 -176,-64" /><polygon points="36,-340 -4,-340 -4,-304 36,-304" /><polygon points="-156,-340 -196,-340 -196,-304 -156,-304" /><polygon points="-400,460 -248,460 -248,460 -424,460 -424,460" /><polygon points="-400,292 -400,292 -400,460 -400,460" /><polygon points="-424,292 -400,292 -400,460 -424,460" /><polygon points="-168,-768 -168,-768 -104,-768 -104,-768 -104,-768 -168,-768" /><polygon points="-24,-616 -24,-616 -168,-616 -168,-616" /><polygon points="-24,-768 -24,-768 -24,-752 -24,-632 -24,-616 -24,-616" /><polygon points="-168,-616 -168,-768 -168,-768 -168,-768 -168,-616" /><polygon points="-464,-288 -464,-64 -464,-64 -464,-288" /><polygon points="-464,-384 -464,-388 -464,-432 -464,-456 -464,-480 -464,-480 -464,-432 -464,-388 -464,-360 -464,-288 -464,-288" /><polygon points="44,-584 28,-584 -24,-584 -168,-584 -180,-584 -180,-584 -24,-584 44,-584" /><polygon points="44,-584 64,-584 64,-584 64,-584 28,-584 28,-584 28,-584 28,-584" /><polygon points="28,-584 28,-584 -12,-584 -24,-584 -24,-584" /><polygon points="-168,-584 -168,-584 -180,-584 -180,-584 -180,-584" /><polygon points="-176,-592 -176,-608 -176,-608 -176,-592" /><polygon points="-16,-608 -16,-592 -16,-592 -16,-608" /><polygon points="-24,-608 -24,-616 -168,-616 -168,-608" /><polygon points="-24,-584 -24,-592 -168,-592 -168,-584" /><polygon points="-168,-592 -24,-592 -16,-592 -16,-608 -24,-608 -168,-608 -176,-608 -176,-592" /><polygon points="-24,-592 -24,-584 -24,-584 -24,-584 -24,-584 -24,-592" /><polygon points="-24,-616 -24,-608 -24,-608 -24,-616" /><polygon points="-16,-592 -24,-592 -24,-592 -16,-592" /><polygon points="-168,-608 -168,-616 -168,-616 -168,-608" /><polygon points="-168,-592 -176,-592 -176,-592 -168,-592" /><polygon points="-168,-608 -168,-608 -176,-608 -176,-608" /><polygon points="64,-584 64,-584 64,-480 64,-480 64,-584" /><polygon points="212,-432 208,-432 208,-392 256,-392 256,-396 256,-432" /><polygon points="212,-472 208,-472 208,-456 212,-456" /><polygon points="280,-472 256,-472 256,-432 256,-396 280,-396" /><polygon points="296,-472 280,-472 280,-396 280,-392 296,-392" /><polygon points="256,-472 212,-472 212,-456 212,-432 256,-432" /><polygon points="256,-392 208,-392 208,-392 256,-392" /><polygon points="208,-432 184,-432 184,-432 208,-432" /><polygon points="208,-456 208,-472 208,-472 208,-472 208,-456" /><polygon points="184,-432 184,-432 184,-456 184,-456" /><polygon points="280,-396 256,-396 256,-396 280,-396" /><polygon points="212,-432 212,-456 212,-456 212,-432" /><polygon points="208,-432 212,-432 212,-432 184,-432 184,-432" /><polygon points="212,-456 208,-456 184,-456 184,-456 212,-456" /><polygon points="256,-396 256,-392 256,-368 256,-368 256,-396" /><polygon points="280,-368 280,-368 256,-368 256,-368" /><polygon points="280,-368 280,-392 280,-396 280,-396 280,-368" /><polygon points="-376,-480 -256,-480 -256,-480 -256,-480 -352,-480 -380,-480 -464,-480 -464,-480" /><polygon points="-256,-480 -256,-480 -256,-584 -256,-584 -256,-584 -256,-480" /><polygon points="-464,-432 -464,-388 -440,-388 -416,-388 -416,-432" /><polygon points="-416,-388 -416,-384 -376,-384 -376,-432 -380,-432 -416,-432" /><polygon points="-464,-388 -464,-384 -440,-384 -440,-388" /><polygon points="-376,-480 -464,-480 -464,-456 -380,-456 -376,-456" /><polygon points="-464,-456 -464,-432 -416,-432 -380,-432 -380,-456" /><polygon points="-416,-384 -416,-360 -416,-360 -416,-384" /><polygon points="-440,-384 -464,-384 -464,-384 -456,-384 -440,-384" /><polygon points="-352,-456 -352,-456 -352,-432 -352,-432" /><polygon points="-416,-388 -440,-388 -440,-388 -416,-388" /><polygon points="-380,-456 -380,-432 -380,-432 -380,-456" /><polygon points="-376,-432 -352,-432 -352,-432 -380,-432 -380,-432" /><polygon points="-352,-456 -376,-456 -380,-456 -380,-456 -352,-456" /><polygon points="-416,-360 -416,-384 -416,-388 -416,-388 -416,-360" /><polygon points="-416,-360 -416,-360 -440,-360 -440,-360" /><polygon points="-440,-388 -440,-384 -440,-360 -440,-360 -440,-388" /><polygon points="176,128 176,96 176,96 176,128" /><polygon points="304,96 304,96 176,96 176,96 176,96 176,96" /><polygon points="304,96 176,96 176,128 304,128" /><polygon points="304,128 304,128 304,96 304,96 304,96" /><polygon points="304,128 176,128 176,128 304,128" /><polygon points="-168,-592 -168,-608 -96,-608 -96,-592" /><polygon points="-168,-592 -168,-592 -168,-608 -168,-608" /><polygon points="-96,-608 -96,-608 -96,-592 -96,-592" /><polygon points="-96,-592 -96,-592 -168,-592 -168,-592" /><polygon points="-168,-608 -168,-608 -96,-608 -96,-608" /><polygon points="-96,-592 -96,-608 -24,-608 -24,-592" /><polygon points="-24,-608 -24,-608 -24,-592 -24,-592" /><polygon points="-96,-592 -96,-592 -96,-608 -96,-608" /><polygon points="-24,-592 -24,-592 -96,-592 -96,-592" /><polygon points="-96,-608 -96,-608 -24,-608 -24,-608" /><polygon points="-640,532 -640,632 -640,640 -640,640 -640,640 -640,554.2857 -640,532" /><polygon points="-424,296 -424,292 -424,292 -424,460 -424,460" /><polygon points="-424,616 -424,616 -424,560" /><polygon points="-376,292 -376,292 -400,292 -424,292 -424,292" /><polygon points="-248,192 -248,292 -376,292 -424,292 -424,192" /><polygon points="-248,120 -248,192 -424,192 -424,136 -424,120" /><polygon points="-248,296 -248,296 -248,304 -248,304 -248,296" /><polygon points="-248,448 -248,460 -248,460 -248,460 -248,460 -248,460 -248,448" /><polygon points="-424,616 -424,560 -248,560 -248,632 -424,632" /><polygon points="-424,460 -248,460 -248,472 -248,560 -424,560" /><polygon points="-640,632 -640,532 -608,532 -456,532 -456,560 -456,616 -456,632" /><polygon points="-608,460 -456,460 -456,532 -608,532" /><polygon points="-608,296 -480,296 -424,296 -424,460 -456,460 -608,460 -640,460 -640,296" /><polygon points="-456,532 -456,460 -424,460 -424,560 -456,560" /><polygon points="-640,272 -608,272 -608,296 -640,296" /><polygon points="-480,292 -480,296 -608,296 -608,272 -608,200 -480,200" /><polygon points="-480,120 -480,192 -480,200 -608,200 -640,200 -640,143.1429 -640,120" /><polygon points="-480,292 -424,292 -424,296 -480,296" /><polygon points="-456,136 -456,192 -480,192 -480,120 -456,120" /><polygon points="-424,292 -480,292 -480,200 -480,192 -456,192 -424,192" /><polygon points="-456,192 -456,136 -456,136 -456,136" /><polygon points="-640,200 -608,200 -608,200 -608,200 -640,200" /><polygon points="-456,640 -640,640 -640,632 -456,632" /><polygon points="-424,632 -248,632 -248,640 -416,640 -456,640 -456,632" /><polygon points="-784,248 -784,248 -656,248 -640,248 -640,248" /><polygon points="-784,460 -656,460 -656,484 -656,496 -784,496" /><polygon points="-656,460 -640,460 -640,484 -656,484" /><polygon points="-640,460 -656,460 -784,460 -784,296 -640,296" /><polygon points="-640,272 -640,296 -784,296 -784,272 -784,248 -640,248" /><polygon points="-616,272 -632,272 -632,464 -616,464" /><polygon points="160,-64 128,-120 128,-120 160,-64" /><polygon points="128,-120 160,-64 64,-64 64,-88 64,-154 72,-152" /><polygon points="72,-152 64,-154 64,-154 72,-152" /><polygon points="128,-120 72,-152 72,-152 128,-120" /><polygon points="-320,-120 -352,-64 -352,-64 -320,-120" /><polygon points="64,-154 8,-168 8,-168 8,-168 64,-154" /><polygon points="-264,-152 -200,-168 -200,-88 -248,-64 -280,-64 -288,-64 -352,-64 -320,-120" /><polygon points="-200,-88 -200,-168 -40,-168" /><polygon points="8,-88 8,-88 -88,-88 -112,-88 -200,-88 -200,-88" /><polygon points="8,-88 8,-168 64,-154 64,-88" /><polygon points="8,-168 8,-88 -200,-88 -40,-168" /><polygon points="64,-64 56,-64 8,-88 64,-88" /><polygon points="96,0 160,0 160,32 96,32" /><polygon points="164,-48 176,0 160,0 96,0 72,-48" /><polygon points="64,-64 160,-64 164,-48 72,-48 56,-64" /><polygon points="160,32 160,0 176,0 176,96 160,96" /><polygon points="176,96 176,96 160,96 160,96" /><polygon points="176,0 164,-48 160,-64 160,-64 176,0" /><polygon points="-288,32 -288,0 -288,0 -288,32" /><polygon points="-288,-64 -280,-64 -280,-48 -280,-16 -288,0" /><polygon points="-280,-48 -264,-48 -280,-16" /><polygon points="-280,-64 -248,-64 -264,-48 -280,-48" /><polygon points="-288,0 -288,32 -352,32 -352,-64 -288,-64" /><polygon points="-464,96 -368,96 -352,96 -352,96 -352,96 -456,96 -464,96" /><polygon points="-368,96 -464,96 -464,96 -464,96 -368,96" /><polygon points="-368,0 -368,96 -368,96 -368,0" /><polygon points="-352,32 -352,96 -368,96 -368,0 -352,-64" /><polygon points="-352,-64 -368,0 -368,0 -352,-64" /><polygon points="-464,96 -464,96 -464,-64 -464,-64 -464,-64 -464,96" /><polygon points="96,0 96,0 96,32 96,32" /><polygon points="96,32 96,32 160,32 160,32" /><polygon points="96,96 96,32 160,32 160,96" /><polygon points="160,32 160,32 160,96 160,96" /><polygon points="96,0 96,0 72,-48 72,-48 96,0" /><polygon points="-352,96 -352,96 -352,32 -352,32" /><polygon points="-352,96 -288,96 -288,96 -296,96 -352,96" /><polygon points="-352,32 -352,32 -288,32 -288,32" /><polygon points="-352,96 -352,32 -288,32 -288,96" /><polygon points="-16,216 -16,216 -16,200 -16,200 -16,216" /><polygon points="-16,256 -16,256 -16,256 -8,264 24,296 24,296 -16,256" /><polygon points="-208,304 -208,304 -216,304 -216,304 -208,304" /><polygon points="-208,304 -208,320 -208,376 -208,376 -208,304" /><polygon points="-208,304 -208,304 -208,320 -208,320" /><polygon points="-256,304 -256,320 -256,320 -256,304" /><polygon points="-456,120 -456,120 -480,120 -640,120 -640,120" /><polygon points="-248,120 -248,120 -424,120 -424,120" /><polygon points="-640,640 -640,640 -456,640 -416,640 -416,640" /><polygon points="-416,640 -416,640 -248,640 -248,640" /><polygon points="-640,153.4286 -640,143.1429 -640,200 -640,200" /><polygon points="-640,120 -640,120 -640,143.1429 -640,153.4286" /><polygon points="-424,632 -424,632 -456,632 -456,632" /><polygon points="-424,120 -424,120 -424,136 -424,136" /><polygon points="-248,120 -248,120 -248,292 -248,292 -248,192 -248,120" /><polygon points="-456,136 -456,136 -456,120 -456,120" /><polygon points="-4,-304 -4,-340 36,-340 36,-304" /><polygon points="-4,-304 -4,-304 -4,-340 -4,-340" /><polygon points="36,-340 36,-340 36,-304 36,-304" /><polygon points="36,-304 36,-304 -4,-304 -4,-304" /><polygon points="-4,-340 -4,-340 36,-340 36,-340" /><polygon points="-196,-304 -196,-340 -156,-340 -156,-304" /><polygon points="-196,-304 -196,-304 -196,-340 -196,-340" /><polygon points="-156,-340 -156,-340 -156,-304 -156,-304" /><polygon points="-156,-304 -156,-304 -196,-304 -196,-304" /><polygon points="-196,-340 -196,-340 -156,-340 -156,-340" /><polygon points="-616,464 -616,464 -632,464 -632,464" /><polygon points="-632,272 -632,272 -616,272 -616,272" /><polygon points="-632,464 -632,384 -616,384 -616,464" /><polygon points="-632,352 -632,272 -616,272 -616,352" /><polygon points="-632,464 -632,464 -632,272 -632,272" /><polygon points="-616,272 -616,272 -616,464 -616,464" /><polygon points="-104,-768 -88,-768 -88,-768 -104,-768" /><polygon points="-152,-752 -40,-752 -24,-752 -24,-768 -88,-768 -104,-768 -168,-768 -168,-752" /><polygon points="-24,-752 -40,-752 -40,-632 -24,-632" /><polygon points="-24,-616 -24,-632 -40,-632 -152,-632 -168,-632 -168,-616" /><polygon points="-152,-752 -168,-752 -168,-632 -152,-632" /><polygon points="-40,-632 -40,-632 -152,-632 -152,-632" /><polygon points="-168,-632 -168,-752 -168,-768 -168,-768 -168,-616 -168,-616" /><polygon points="-208,432 -208,432 -208,448 -208,448" /><polygon points="-208,432 -216,432 -216,432 -208,432" /><polygon points="-216,320 -208,320 -208,320 -216,320" /><polygon points="-208,432 -208,376 -216,376 -216,432" /><polygon points="-256,432 -256,432 -256,448 -256,448 -256,432" /><polygon points="-256,320 -256,304 -256,304 -256,376 -256,376" /><polygon points="-256,432 -256,376 -256,376 -256,432" /><polygon points="-216,432 -256,432 -256,432 -216,432" /><polygon points="-256,320 -216,320 -216,320 -256,320" /><polygon points="-216,320 -256,320 -256,376 -216,376" /><polygon points="-216,456 -216,448 -216,448 -216,456" /><polygon points="-48,216 -48,216 -63.4074,216 -144,216" /><polygon points="-144,216 -63.4074,216 -85,216 -88,216 -104,216 -107,216 -176,216 -176,216" /><polygon points="-144,256 -176,256 -176,256" /><polygon points="-48,256 -48,256 -16,256 -16,256" /><polygon points="-144,256 -176,256 -176,256 -48,256 -48,256" /><polygon points="-144,256 -48,256 -48,216 -144,216" /><polygon points="-48,256 -16,256 -16,216 -48,216" /><polygon points="-144,216 -176,216 -176,256 -144,256" /><polygon points="-424,136 -424,136 -424,128 -424,120 -424,120 -424,136" /><polygon points="-424,136 -424,136 -424,136 -424,192" /><polygon points="-456,616 -456,616 -456,560" /><polygon points="-456,136 -424,136 -424,192 -456,192" /><polygon points="-424,616 -456,616 -456,560 -424,560" /><polygon points="-216,304 -216,296 -216,296 -216,304" /><polygon points="-216,448 -208,448 -208,448 -208,448 -216,448" /><polygon points="-248,304 -256,304 -256,304 -256,304 -248,304" /><polygon points="-256,304 -248,304 -248,376 -256,376" /><polygon points="-248,448 -248,448 -248,460 -248,460 -248,448" /><polygon points="-256,448 -248,448 -248,448 -248,448 -256,448" /><polygon points="-16,-80 -16,-64 -16,-64 -16,-80" /><polygon points="-176,-64 -176,-80 -176,-80 -176,-64" /><polygon points="-16,216 -48,216 -48,216 -16,216" /><polygon points="-40,-752 -40,-752 -152,-752 -152,-752" /><polygon points="-40,-632 -40,-632 -40,-752 -40,-752" /><polygon points="-152,-752 -152,-752 -152,-632 -152,-632" /><polygon points="-40,-632 -40,-752 -152,-752 -152,-632" /><polygon points="-216,312 -216,304 -208,304 -208,376 -216,376" /><polygon points="-248,432 -248,448 -256,448 -256,432" /><polygon points="-16,-24 -16,96 -16,200 -16,200 -16,200 -16,176 -16,112 -16,96 -16,-24" /><polygon points="-176,-64 -176,-64 -176,-64 -176,-64 -176,-24 -176,-24" /><polygon points="-176,160 -176,200 -107,200 -104,200 -104,160" /><polygon points="-208,376 -208,432 -208,448 -208,448 -208,376" /><polygon points="-208,376 -208,320 -216,320 -216,376" /><polygon points="-216,376 -256,376 -256,432 -216,432" /><polygon points="-616,384 -616,384 -632,384 -632,384" /><polygon points="-632,352 -632,352 -616,352 -616,352" /><polygon points="-632,384 -632,352 -616,352 -616,384" /><polygon points="-632,384 -632,384 -632,352 -632,352" /><polygon points="-616,352 -616,352 -616,384 -616,384" /><polygon points="-456,632 -456,632 -424,632 -424,632 -424,632 -456,632" /><polygon points="-424,616 -424,616 -424,616 -424,632 -424,632 -424,632" /><polygon points="-456,632 -456,632 -456,632 -456,616 -456,616 -456,616" /><polygon points="-424,616 -424,616 -456,616 -456,616 -456,616 -424,616" /><polygon points="-216,376 -208,376 -208,448 -216,448" /><polygon points="-248,376 -248,376 -248,432 -248,432" /><polygon points="-248,376 -248,432 -248,432" /><polygon points="-256,376 -248,376 -248,432 -256,432" /><polygon points="-640,532 -640,554.2857 -640,532" /><polygon points="-608,200 -608,200 -608,272 -608,272" /><polygon points="-608,272 -608,272 -640,272 -640,272 -608,272" /><polygon points="-640,532 -640,532 -608,532 -608,532 -608,532 -640,532" /><polygon points="-608,460 -608,460 -608,532 -608,532" /><polygon points="-608,460 -608,460 -640,460 -640,460 -608,460" /><polygon points="-85,-80 -88,-80 -88,-64 -16,-64 -16,-80" /><polygon points="-88,-80 -104,-80 -104,-64 -88,-64" /><polygon points="-85,-80 -88,-80 -88,-80" /><polygon points="-104,-80 -107,-80 -104,-80" /><polygon points="-104,-80 -104,-80 -104,-64 -104,-64" /><polygon points="-104,-80 -88,-80 -85,-80 -16,-80 -16,-80 -32,-80 -64,-80 -128,-80 -160,-80 -176,-80 -176,-80 -107,-80" /><polygon points="-88,216 -85,216 -88,216" /><polygon points="-107,216 -104,216 -104,216" /><polygon points="-104,-64 -104,-8 -104,160 -88,160 -88,-8 -88,-64" /><polygon points="-104,160 -104,216 -88,216 -88,160" /><polygon points="-88,-8 -88,160 -88,216 -88,216 -88,200 -88,-8" /><polygon points="-88,-64 -88,-8 -88,-8 -88,-24 -88,-64" /><polygon points="-107,216 -104,216 -104,200 -176,200 -176,216" /><polygon points="-88,-64 -88,-64 -85,-64 -16,-64 -16,-64" /><polygon points="-104,-64 -104,-80 -107,-80 -176,-80 -176,-64" /><polygon points="-88,-80 -88,-80 -88,-64 -88,-64" /><polygon points="-104,-64 -104,-64 -104,-64 -104,-24 -104,-24" /><polygon points="-104,-8 -104,200 -104,216 -104,216 -104,160 -104,-8" /><polygon points="-104,-64 -104,-24 -104,-8 -104,-8 -104,-64" /><polygon points="-88,200 -88,216 -85,216 -63.4074,216 -48,216 -16,216 -16,200" /><polygon points="-88,-24 -88,-8 -88,200 -88,200 -88,-8 -88,-24" /><polygon points="-104,200 -104,200 -107,200 -176,200 -176,200" /><polygon points="-107,-64 -104,-64 -104,-64 -176,-64 -176,-64" /><polygon points="-104,-64 -104,-80 -104,-80 -104,-64" /><polygon points="-107,-80 -104,-80 -104,-64 -107,-64" /><polygon points="-88,-80 -85,-80 -85,-64 -88,-64" /><polygon points="-85,-80 -88,-80 -88,-80" /><polygon points="-85,-80 -88,-80 -88,-64 -85,-64" /><polygon points="-107,216 -104,216 -104,216" /><polygon points="-85,-64 -88,-64 -88,-8 -88,96 -85,96 -16,96 -16,-24 -16,-64" /><polygon points="-85,96 -85,200 -16,200 -16,96" /><polygon points="-85,200 -85,96 -88,96 -88,216 -85,216" /><polygon points="-88,200 -85,200 -85,216 -88,216" /><polygon points="-88,-8 -88,200 -88,216 -88,216 -88,96 -88,-8" /><polygon points="-88,-64 -88,-24 -88,-8 -88,-8 -88,-64" /><polygon points="-85,200 -88,200 -88,200 -16,200 -16,200" /><polygon points="-88,-64 -88,-64 -88,-24 -88,-24" /><polygon points="-107,200 -104,200 -104,216 -107,216" /><polygon points="-107,200 -107,216 -104,216 -104,200" /><polygon points="-104,-80 -104,-80 -107,-80" /><polygon points="-104,-80 -107,-80 -107,-64 -104,-64" /><polygon points="-88,-80 -88,-80 -88,-64 -88,-64" /><polygon points="-88,216 -88,216 -85,216" /><polygon points="-104,216 -104,216 -104,200 -104,200" /><polygon points="-104,-24 -104,160 -104,200 -104,200 -104,200 -104,-8 -104,-24" /><polygon points="-104,-24 -104,-64 -107,-64 -176,-64 -176,-24 -176,160 -104,160" /><polygon points="-248,432 -248,432 -248,448 -248,448 -248,432" /><polygon points="-216,312 -216,312 -216,376" /><polygon points="304,-288 304,-88 304,-64 304,-64 304,-288" /><polygon points="-464,-304 -464,-384 -464,-384 -464,-288 -464,-288" /><polygon points="56,-584 64,-584 64,-584 44,-584 44,-584" /><polygon points="-256,-584 -248,-584 -220,-584 -220,-584 -220,-584 -256,-584" /><polygon points="-220,-584 -180,-584 -180,-584 -180,-584 -220,-584" /><polygon points="296,-480 304,-480 304,-480 64,-480 64,-480" /><polygon points="296,-392 296,-392 296,-368 296,-312 296,-312" /><polygon points="296,-472 296,-472 296,-392 296,-392" /><polygon points="304,-480 296,-480 296,-472 296,-392 296,-312 304,-312" /><polygon points="208,-472 128,-472 128,-472 184,-472 208,-472" /><polygon points="208,-472 208,-472 212,-472 256,-472 280,-472 296,-472 296,-472" /><polygon points="128,-472 208,-472 296,-472 296,-480 64,-480 64,-472" /><polygon points="296,-312 296,-288 296,-88 304,-88 304,-288 304,-312" /><polygon points="296,-88 296,-64 304,-64 304,-88" /><polygon points="296,-312 296,-312 296,-312 296,-288 296,-288" /><polygon points="-248,-576 -248,-504 -248,-504 -248,-576" /><polygon points="56,-584 56,-576 56,-504 56,-472 64,-472 64,-480 64,-584" /><polygon points="-80,-472 -80,-504 -80,-576 -88,-576 -88,-352 -80,-352" /><polygon points="-88,-352 -88,-304 -80,-304 -80,-352" /><polygon points="56,-504 -80,-504 -80,-472 56,-472" /><polygon points="-24,-584 -180,-584 -220,-584 -248,-584 -248,-576 -112,-576 -88,-576 -80,-576 -24,-576" /><polygon points="56,-576 56,-584 44,-584 -24,-584 -24,-576" /><polygon points="-88,-576 -112,-576 -112,-504 -112,-472 -112,-352 -88,-352" /><polygon points="-112,-352 -112,-304 -88,-304 -88,-352" /><polygon points="-112,-504 -248,-504 -248,-480 -248,-472 -112,-472" /><polygon points="56,-504 56,-576 56,-576 56,-504" /><polygon points="-80,-504 56,-504 56,-504 -80,-504" /><polygon points="-112,-504 -112,-576 -112,-576 -112,-504" /><polygon points="-112,-576 -248,-576 -248,-576 -112,-576" /><polygon points="-112,-352 -112,-472 -112,-472 -112,-352 -112,-304 -112,-304" /><polygon points="-256,-480 -256,-480 -376,-480 -376,-480" /><polygon points="-248,-504 -248,-576 -248,-584 -256,-584 -256,-480 -248,-480" /><polygon points="-376,-472 -376,-480 -376,-480 -376,-456 -376,-456" /><polygon points="-376,-472 -376,-456 -376,-456 -376,-472" /><polygon points="-296,-472 -248,-472 -248,-480 -256,-480 -376,-480 -376,-472" /><polygon points="-248,-472 -296,-472 -296,-472 -248,-472" /><polygon points="-296,-472 -376,-472 -376,-472 -352,-472 -296,-472" /><polygon points="-440,-384 -440,-384 -440,-360 -440,-360 -440,-384" /><polygon points="-456,-384 -464,-384 -464,-304 -456,-304" /><polygon points="-248,-72 -256,-64 -248,-64 -200,-88 -200,-96" /><polygon points="-112,-96 -200,-96 -200,-88 -112,-88" /><polygon points="-112,-304 -112,-96 -112,-88 -88,-88 -88,-96 -88,-304" /><polygon points="8,-96 -80,-96 -88,-96 -88,-88 8,-88" /><polygon points="56,-64 64,-64 56,-72 8,-96 8,-88" /><polygon points="-88,-304 -88,-96 -80,-96 -80,-304" /><polygon points="-80,-96 8,-96 8,-96 -32,-96 -80,-96" /><polygon points="-80,-304 -80,-96 -80,-96 -80,-128 -80,-304" /><polygon points="-248,-72 -248,-72 -256,-64 -256,-64" /><polygon points="-248,-64 -248,-64 -200,-88 -200,-88" /><polygon points="8,-88 8,-88 56,-64 56,-64" /><polygon points="-464,-304 -464,-288 -464,-64 -456,-64 -456,-304" /><polygon points="-216,296 -216,296 -216,304 -216,312 -216,312 -216,312" /><polygon points="-216,312 -216,312 -216,376 -216,448 -216,456 -216,456" /><polygon points="-176,496 -16,496 16,464 -8,464 -48,464 -64,464 -128,464 -144,464 -184,464 -208,464" /><polygon points="-184,424 -144,464 -128,464 -184,408" /><polygon points="-8,408 -64,464 -48,464 -8,424" /><polygon points="-208,464 -184,464 -184,424 -184,408 -184,344 -184,328 -184,288 -208,288 -216,296 -216,312 -216,456" /><polygon points="-48,288 -64,288 -8,344 -8,328" /><polygon points="-128,288 -144,288 -184,328 -184,344" /><polygon points="-184,288 -176,288 -144,288 -128,288 -64,288 -48,288 -8,288 -8,264 -16,256 -176,256 -208,288" /><polygon points="24,296 -8,264 -8,288 -8,328 -8,344 -8,408 -8,424 -8,464 16,464 24,456" /><polygon points="80,-48 64,-64 56,-64 72,-48" /><polygon points="80,-48 72,-48 96,0 96,-16" /><polygon points="104,88 104,0 96,-16 96,0 96,96 104,96" /><polygon points="176,96 304,96 304,88 296,88 104,88 104,96" /><polygon points="296,-64 296,88 304,88 304,-64" /><polygon points="-64,288 -128,288 -128,288 -64,288" /><polygon points="-144,288 -176,288 -176,288 -144,288" /><polygon points="64,-64 80,-48 80,-48 64,-64" /><polygon points="-48,464 -8,464 -8,464 -48,464" /><polygon points="-184,464 -144,464 -144,464 -184,464" /><polygon points="-128,464 -64,464 -64,464 -128,464" /><polygon points="-184,344 -184,408 -184,408 -184,344" /><polygon points="-184,424 -184,464 -184,464 -184,424" /><polygon points="-8,408 -8,344 -8,344 -8,408" /><polygon points="-8,464 -8,424 -8,424 -8,464" /><polygon points="-8,288 -8,288 -8,328 -8,328" /><polygon points="-144,288 -144,288 -184,328 -184,328" /><polygon points="-64,288 -64,288 -8,344 -8,344" /><polygon points="304,-64 304,88 304,96 304,96 304,96 304,-64" /><polygon points="104,96 96,96 96,96 160,96 176,96 176,96" /><polygon points="96,0 96,0 96,32 96,96 96,96" /><polygon points="72,-48 56,-64 56,-64 72,-48" /><polygon points="-16,256 -16,256 -48,256 -176,256 -176,256" /><polygon points="24,456 24,456 24,296 24,296" /><polygon points="-208,288 -176,256 -176,256 -176,256 -176,256 -176,256 -208,288 -216,296 -216,296 -216,296" /><polygon points="-464,-64 -464,96 -456,96 -456,-64" /><polygon points="-248,-64 -256,-64 -272,-48 -264,-48" /><polygon points="-264,-48 -272,-48 -296,0 -288,0" /><polygon points="-288,0 -296,0 -296,96 -288,96" /><polygon points="-456,-64 -456,96 -456,96 -456,-64" /><polygon points="-288,96 -288,96 -288,32 -288,0 -288,0" /><polygon points="-248,-64 -264,-48 -264,-48 -248,-64" /><polygon points="-264,-48 -288,0 -288,0 -288,0 -280,-16 -264,-48" /><polygon points="-248,376 -248,376 -248,432 -248,432" /><polygon points="-248,460 -248,472 -248,472 -248,460" /><polygon points="-248,472 -248,472 -248,632 -248,632 -248,560 -248,472" /><polygon points="-608,272 -640,272 -640,308 -608,308" /><polygon points="-640,460 -640,460 -640,484 -640,484 -640,460" /><polygon points="-640,460 -608,460 -608,428 -640,428" /><polygon points="-640,200 -640,212.4 -640,248 -640,248 -640,120 -640,120 -640,153.4286" /><polygon points="-608,200 -608,200 -608,272 -608,272 -608,272 -608,225 -608,212.4" /><polygon points="-184,288 -184,288 -176,288 -176,288 -176,288 -184,288" /><polygon points="-8,288 -8,288 -48,288 -48,288" /><polygon points="-184,464 -144,464 -128,464 -64,464 -48,464 -8,464 -8,464 -32,464 -160,464 -184,464" /><polygon points="-184,288 -184,288 -184,328 -184,328" /><polygon points="-8,424 -8,408 -8,344 -8,328 -8,288 -8,288 -8,464 -8,464" /><polygon points="-64,464 -8,408 -8,424 -48,464" /><polygon points="-184,408 -128,464 -144,464 -184,424" /><polygon points="-144,288 -128,288 -184,344 -184,328" /><polygon points="-64,288 -48,288 -8,328 -8,344" /><polygon points="-48,288 -48,288 -8,328 -8,328" /><polygon points="-128,288 -128,288 -184,344 -184,344" /><polygon points="-64,464 -64,464 -8,408 -8,408" /><polygon points="-8,424 -8,424 -48,464 -48,464" /><polygon points="-144,464 -144,464 -184,424 -184,424" /><polygon points="-184,408 -184,408 -128,464 -128,464" /><polygon points="296,-312 256,-312 128,-312 128,-312 296,-312" /><polygon points="184,-432 128,-432 128,-392 208,-392 208,-432" /><polygon points="208,-392 128,-392 128,-312 256,-312 256,-368 256,-392" /><polygon points="256,-312 296,-312 296,-368 280,-368 256,-368" /><polygon points="296,-392 280,-392 280,-368 296,-368" /><polygon points="128,-432 184,-432 184,-456 184,-472 128,-472" /><polygon points="184,-456 208,-456 208,-472 184,-472" /><polygon points="280,-392 296,-392 296,-392 296,-392 280,-392" /><polygon points="208,-456 184,-456 184,-456 208,-456" /><polygon points="128,-472 128,-472 64,-472 64,-472" /><polygon points="184,-456 184,-432 184,-432 184,-456" /><polygon points="208,-392 208,-392 208,-432 208,-432" /><polygon points="256,-368 256,-368 256,-392 256,-392" /><polygon points="256,-368 280,-368 280,-368 256,-368" /><polygon points="280,-368 280,-392 280,-392 280,-368" /><polygon points="64,-472 64,-472 56,-472 -80,-472 -80,-472 56,-472 64,-472" /><polygon points="-440,-360 -456,-360 -456,-304 -416,-304 -416,-360" /><polygon points="-440,-360 -440,-384 -456,-384 -456,-360" /><polygon points="-376,-384 -296,-384 -296,-432 -352,-432 -376,-432" /><polygon points="-416,-360 -416,-304 -296,-304 -296,-384 -376,-384 -416,-384" /><polygon points="-352,-472 -376,-472 -376,-456 -352,-456" /><polygon points="-296,-432 -296,-472 -352,-472 -352,-456 -352,-432" /><polygon points="-296,-472 -296,-472 -264,-472 -248,-472 -248,-472" /><polygon points="-376,-384 -376,-432 -376,-432 -376,-384" /><polygon points="-352,-432 -352,-432 -376,-432 -376,-432" /><polygon points="-352,-456 -376,-456 -376,-456 -376,-456 -352,-456" /><polygon points="-352,-432 -352,-456 -352,-456 -352,-432" /><polygon points="-376,-384 -376,-384 -416,-384 -416,-384" /><polygon points="-456,-384 -440,-384 -440,-384 -456,-384" /><polygon points="-440,-360 -416,-360 -416,-360 -440,-360" /><polygon points="-456,-360 -456,-384 -456,-384 -456,-304 -456,-304" /><polygon points="192,-496 208,-496 208,-376 192,-376" /><polygon points="208,-376 208,-392 320,-392 320,-376" /><polygon points="320,-392 320,-392 320,-376 320,-376" /><polygon points="192,-376 192,-376 192,-496 192,-496" /><polygon points="208,-392 208,-392 320,-392 320,-392" /><polygon points="208,-496 208,-496 208,-392 208,-392" /><polygon points="192,-496 192,-496 208,-496 208,-496" /><polygon points="-480,-368 -480,-384 -360,-384 -360,-368" /><polygon points="-360,-384 -376,-384 -376,-496 -360,-496" /><polygon points="-376,-496 -376,-496 -360,-496 -360,-496" /><polygon points="-360,-368 -360,-368 -480,-368 -480,-368" /><polygon points="-376,-384 -376,-384 -376,-496 -376,-496" /><polygon points="-480,-384 -480,-384 -376,-384 -376,-384" /><polygon points="-480,-368 -480,-368 -480,-384 -480,-384" /><polygon points="-160,288 -32,288 -8,288 -8,288 -48,288 -64,288 -128,288 -144,288 -176,288 -176,288" /><polygon points="-184,288 -184,288 -184,328 -184,344 -184,408 -184,424 -184,464 -184,464" /><polygon points="-8,464 -8,288 -32,288 -32,312 -32,440 -32,464" /><polygon points="-32,440 -160,440 -160,464 -32,464" /><polygon points="-32,288 -160,288 -160,312 -32,312" /><polygon points="-160,464 -160,440 -160,312 -160,288 -176,288 -184,288 -184,464" /><polygon points="-32,440 -32,312 -32,312 -32,440" /><polygon points="-32,312 -160,312 -160,312 -32,312" /><polygon points="-160,312 -160,440 -160,440 -160,312" /><polygon points="-160,440 -32,440 -32,440 -160,440" /><polygon points="-640,212.4 -640,200 -608,200 -608,212.4" /><polygon points="-608,517.6 -608,532 -640,532 -640,517.6" /><polygon points="-608,308 -640,308 -640,330 -608,330" /><polygon points="-608,330 -640,330 -640,330 -608,330" /><polygon points="-608,330 -608,330 -608,308 -608,308 -608,308 -608,330" /><polygon points="-608,330 -640,330 -640,340 -608,340" /><polygon points="-184,464 -8,464 -8,464 -184,464" /><polygon points="-8,440 -8,288 -8,288 -8,464 -8,464" /><polygon points="-184,464 -184,440 -160,440 -32,440 -8,440 -8,464" /><polygon points="-184,440 -184,312 -160,312 -160,440" /><polygon points="-160,312 -184,312 -184,288 -32,288 -32,312" /><polygon points="-32,312 -32,288 -8,288 -8,440 -32,440" /><polygon points="-248,640 -248,640 -416,640 -416,640 -248,640" /><polygon points="-640,396 -640,396 -640,428 -640,428" /><polygon points="-640,340 -640,340 -640,396 -640,396" /><polygon points="-640,248 -640,248 -640,272 -640,272 -640,272 -640,248" /><polygon points="-248,120 -248,120 -248,292 -248,292" /><polygon points="-248,296 -248,304 -248,304 -248,296" /><polygon points="-248,292 -248,296 -248,296 -248,296 -248,292" /><polygon points="-248,304 -248,376 -248,376 -248,376 -248,304" /><polygon points="-248,432 -248,460 -248,460 -248,448 -248,432" /><polygon points="-248,460 -248,472 -248,472 -248,460" /><polygon points="-608,272 -608,272 -608,308 -608,308" /><polygon points="-608,225 -608,246 -640,246 -640,212.4 -608,212.4" /><polygon points="-608,428 -608,428 -608,396 -608,396 -608,428" /><polygon points="-608,428 -608,428 -608,460 -608,460" /><polygon points="-608,460 -608,460 -608,460 -608,532 -608,532 -608,517.6 -608,505" /><polygon points="-608,340 -640,340 -640,396 -608,396" /><polygon points="-608,396 -640,396 -640,428 -608,428" /><polygon points="-248,632 -248,640 -248,640 -248,640 -248,632" /><polygon points="352,-312 360,-312 360,-88 352,-88" /><polygon points="360,-88 360,-64 352,-64 352,-88" /><polygon points="-32,-64 -208,-64 -216,-64 -256,-64 -248,-72 -200,-96 -112,-96 -80,-96 -32,-96" /><polygon points="8,-96 8,-64 -32,-64 -32,-96" /><polygon points="-80,-576 -80,-504 -80,-472 -80,-352 -112,-352 -112,-472 -112,-504 -112,-576" /><polygon points="-80,-352 -80,-304 -80,-128 -112,-128 -112,-304 -112,-352" /><polygon points="-80,-128 -80,-96 -112,-96 -112,-128" /><polygon points="-24,-576 -80,-576 -112,-576 -248,-576 -248,-584 -32,-584 -24,-584" /><polygon points="56,-584 56,-576 -24,-576 -24,-584" /><polygon points="-80,-504 56,-504 56,-488 56,-472 -80,-472" /><polygon points="-32,-584 -248,-584 -256,-584 -256,-600 -248,-600 -32,-600" /><polygon points="56,-600 56,-584 -24,-584 -32,-584 -32,-600" /><polygon points="80,-488 128,-488 128,-472 64,-472 56,-472 56,-488" /><polygon points="56,-488 56,-504 56,-576 56,-584 56,-600 56,-616 80,-616 80,-488" /><polygon points="296,-288 296,-312 352,-312 352,-88 296,-88" /><polygon points="352,-88 352,-64 296,-64 296,-88" /><polygon points="8,-96 56,-72 64,-64 8,-64" /><polygon points="-520,-304 -456,-304 -456,-64 -520,-64" /><polygon points="-264,-616 -248,-616 -248,-600 -256,-600 -264,-600" /><polygon points="-248,-584 -248,-576 -248,-504 -248,-488 -256,-488 -256,-584" /><polygon points="-264,-472 -296,-472 -296,-488 -264,-488 -256,-488 -248,-488 -248,-472" /><polygon points="-248,-488 -248,-504 -112,-504 -112,-472 -248,-472" /><polygon points="-264,-488 -264,-600 -256,-600 -256,-584 -256,-488" /><polygon points="352,-312 296,-312 128,-312 128,-312 352,-312" /><polygon points="128,-472 128,-488 128,-488 128,-472" /><polygon points="-296,-488 -296,-472 -296,-472 -296,-488" /><polygon points="128,-472 128,-472 64,-472 64,-472" /><polygon points="128,-312 128,-312 128,-392 128,-432 128,-472 128,-472" /><polygon points="296,-288 296,-88 296,-64 296,-64 296,-88 296,-288" /><polygon points="-296,-304 -296,-304 -416,-304 -456,-304 -456,-304" /><polygon points="-80,-576 -80,-576 -80,-504 -80,-504" /><polygon points="-80,-352 -80,-472 -80,-472 -80,-352 -80,-304 -80,-304" /><polygon points="-24,-576 56,-576 56,-576 -24,-576 -80,-576 -80,-576" /><polygon points="-112,-472 -112,-472 -248,-472 -248,-472 -248,-472" /><polygon points="-248,-504 -248,-504 -112,-504 -112,-504" /><polygon points="-296,-472 -296,-472 -296,-432 -296,-384 -296,-304 -296,-304" /><polygon points="-456,-304 -456,-304 -456,-304 -456,-64 -456,-64" /><polygon points="-112,-304 -112,-128 -112,-96 -112,-96 -112,-304" /><polygon points="56,-72 56,-72 64,-64 64,-64" /><polygon points="8,-96 8,-96 56,-72 56,-72" /><polygon points="-200,-96 -200,-96 -112,-96 -112,-96" /><polygon points="-248,-72 -248,-72 -200,-96 -200,-96" /><polygon points="-520,-304 -536,-304 -536,-304 -520,-304" /><polygon points="-536,-304 -520,-304 -520,-64 -536,-64" /><polygon points="104,88 104,0 104,0 104,88" /><polygon points="360,-64 360,88 352,88 352,-64" /><polygon points="352,-64 352,88 352,104 328,104 296,104 296,88 296,-64" /><polygon points="328,112 104,112 104,104 296,104 328,104" /><polygon points="352,104 352,112 328,112 328,104" /><polygon points="104,104 104,96 104,88 296,88 296,104" /><polygon points="296,-64 296,88 296,88 296,-64" /><polygon points="296,88 104,88 104,88 296,88" /><polygon points="64,-64 80,-48 104,0 96,0 32,-32 8,-44 8,-64" /><polygon points="88,96 88,0 96,0 104,0 104,88 104,96" /><polygon points="16,0 -208,0 -208,-32 8,-32 16,-32" /><polygon points="96,0 88,0 16,0 16,-32 32,-32" /><polygon points="8,-44 32,-32 16,-32 8,-32" /><polygon points="-208,-32 -208,-64 -32,-64 8,-64 8,-44 8,-32" /><polygon points="-216,-64 -208,-64 -208,-32 -208,0 -216,0" /><polygon points="104,0 80,-48 80,-48 96,-16 104,0" /><polygon points="-184,288 -184,288 -184,312 -184,440 -184,464 -184,464" /><polygon points="-456,-64 -456,96 -520,96 -520,-64" /><polygon points="-520,-64 -520,96 -536,96 -536,-64" /><polygon points="-280,0 -296,0 -272,-48 -256,-64 -216,-64 -216,0" /><polygon points="-280,104 -296,104 -296,96 -296,0 -280,0" /><polygon points="-520,96 -456,96 -296,96 -296,104 -312,104 -536,104 -536,96" /><polygon points="-296,104 -280,104 -232,104 -232,104 -296,104 -312,104 -312,104" /><polygon points="-296,0 -296,96 -296,96 -296,0" /><polygon points="-256,-64 -272,-48 -272,-48 -256,-64" /><polygon points="-272,-48 -296,0 -296,0 -272,-48" /><polygon points="-296,96 -456,96 -456,96 -352,96 -296,96" /><polygon points="-640,330 -640,340 -640,340 -640,330" /><polygon points="-640,308 -640,330 -640,330 -640,330 -640,308" /><polygon points="-640,428 -640,460 -640,460 -640,428" /><polygon points="-640,272 -640,308 -640,308 -640,272" /><polygon points="-640,248 -640,248 -656,248 -656,248" /><polygon points="-640,484 -656,484 -656,484 -640,484" /><polygon points="-640,460 -640,428 -640,396 -640,340 -640,330 -640,308 -640,272 -640,248 -656,248 -656,484 -640,484" /><polygon points="-656,248 -656,248 -656,472 -656,484 -656,484" /><polygon points="-656,484 -656,484 -656,496 -656,496 -656,484" /><polygon points="-784,496 -784,472 -784,272 -784,272 -784,296 -784,460 -784,496" /><polygon points="-784,272 -784,248 -784,248 -784,248 -784,272" /><polygon points="-640,246 -640,248 -640,248 -640,212.4" /><polygon points="-608,246 -608,225 -608,272 -608,308 -608,308 -608,272" /><polygon points="-608,484 -608,460 -608,428 -608,428 -608,460 -608,505" /><polygon points="-640,484 -608,484 -608,505 -608,517.6 -640,517.6" /><polygon points="-656,496 -784,496 -784,496 -656,496" /><polygon points="-656,248 -656,248 -656,248 -784,248 -784,248" /><polygon points="-656,248 -784,248 -784,272 -784,472 -656,472" /><polygon points="-784,472 -784,496 -656,496 -656,484 -656,472" /><polygon points="-640,248 -640,248 -640,246" /><polygon points="-640,248 -640,246 -608,246 -608,272 -640,272" /><polygon points="-8,288 -8,288 -8,288 -32,288 -184,288 -184,288 -184,288" /><polygon points="-640,460 -640,484 -640,484" /><polygon points="-640,460 -640,484 -640,484 -640,484 -640,444.2581 -640,441.8082" /><polygon points="-608,460 -640,460 -640,441.8082 -640,428 -608,428" /><polygon points="-608,460 -608,484 -640,484 -640,460" /><polygon points="-640,441.8082 -640,444.2581 -640,428" /><polygon points="-640,296 -640,272 -608,272 -608,308 -640,308" /><polygon points="-608,428 -640,428 -640,396 -608,396" /><polygon points="-608,330 -640,330 -640,308 -608,308" /><polygon points="-640,296 -640,272 -640,296" /><polygon points="-608,396 -608,384 -608,340 -608,340 -608,396" /><polygon points="-608,396 -640,396 -640,384 -608,384" /><polygon points="-640,484 -640,484 -640,484 -640,517.6" /><polygon points="-640,308 -640,308 -640,330 -640,340" /><polygon points="-640,484 -640,484 -640,372 -640,384 -640,396 -640,428 -640,444.2581" /><polygon points="-640,308 -640,308 -640,296 -640,296 -640,296 -640,308" /><polygon points="-640,384 -640,340 -608,340 -608,384" /><polygon points="-608,340 -608,330 -608,330 -608,340" /><polygon points="-608,340 -640,340 -640,330 -608,330" /><polygon points="-640,248 -640,248 -640,248 -640,272 -640,296 -640,296 -640,248" /><polygon points="-640,120 -632,120 -456,120 -456,120 -640,120" /><polygon points="-424,120 -256,120 -248,120 -248,120 -248,120 -424,120" /><polygon points="-232,104 -232,112 -296,112 -296,104" /><polygon points="-232,104 -232,104 -232,112 -232,112" /><polygon points="-312,104 -536,104 -536,104 -312,104" /><polygon points="-416,640 -640,640 -640,640 -640,640 -416,640" /><polygon points="-640,640 -640,632 -640,568 -640,484 -640,484 -640,484 -640,517.6 -640,532 -640,554.2857 -640,640" /><polygon points="-640,344 -640,308 -640,308 -640,340 -640,384 -640,372" /><polygon points="-456,632 -456,632 -632,632 -632,632" /><polygon points="-416,632 -256,632 -256,632 -424,632 -424,632" /><polygon points="-424,128 -424,136 -424,136 -424,136 -424,136 -424,128" /><polygon points="-424,632 -424,632 -424,616 -424,616 -424,616 -424,616 -424,632" /><polygon points="-256,128 -256,120 -424,120 -424,128" /><polygon points="-248,304 -248,292 -248,120 -256,120 -256,128 -256,184 -256,344 -248,344" /><polygon points="-256,344 -256,408 -256,568 -248,568 -248,460 -248,432 -248,344" /><polygon points="-256,568 -256,632 -248,632 -248,568" /><polygon points="-256,128 -256,128 -256,184 -256,184" /><polygon points="-248,292 -248,304 -248,304 -248,296 -248,292" /><polygon points="-248,304 -248,344 -248,432 -248,432 -248,376 -248,304" /><polygon points="-248,432 -248,460 -248,460 -248,432" /><polygon points="-248,460 -248,568 -248,632 -248,632 -248,472 -248,460" /><polygon points="-456,120 -456,128 -456,136 -456,136 -456,136 -456,120" /><polygon points="-456,136 -456,136 -424,136 -424,136 -424,136 -456,136" /><polygon points="-632,408 -632,568 -632,632 -632,632 -632,536 -632,448 -632,408" /><polygon points="-632,184 -632,344 -632,408 -632,408 -632,224 -632,184" /><polygon points="-456,128 -456,120 -632,120 -632,128" /><polygon points="-632,184 -632,128 -632,120 -640,120 -640,248 -640,296 -640,308 -640,344 -632,344" /><polygon points="-640,344 -640,372 -640,484 -640,568 -632,568 -632,408 -632,344" /><polygon points="-640,568 -640,632 -632,632 -632,568" /><polygon points="-248,632 -248,640 -248,640 -248,632" /><polygon points="-416,632 -424,632 -456,632 -632,632 -640,632 -640,640 -416,640" /><polygon points="-248,640 -248,632 -256,632 -416,632 -416,640" /><polygon points="-456,616 -456,616 -456,616 -456,632 -456,632 -456,632 -456,616" /><polygon points="-424,136 -456,136 -456,192 -424,192" /><polygon points="-424,136 -424,136 -424,192 -424,192 -424,143" /><polygon points="-456,616 -456,616 -456,560 -456,560 -456,609" /><polygon points="-424,616 -456,616 -456,609 -424,609" /><polygon points="-424,560 -456,560 -456,616 -424,616" /><polygon points="-456,609 -456,616 -424,616 -424,609" /><polygon points="-456,632 -456,616 -456,609 -456,560 -456,536 -552,536 -632,536 -632,632" /><polygon points="-424,536 -456,536 -456,560 -424,560" /><polygon points="-256,632 -256,536 -336,536 -424,536 -424,560 -424,609 -424,616 -424,632" /><polygon points="-632,184 -632,224 -552,224 -512,224 -512,199 -512,192 -512,128 -632,128" /><polygon points="-552,312 -552,224 -632,224 -632,408 -632,448 -552,448" /><polygon points="-632,448 -632,536 -552,536 -552,448" /><polygon points="-456,143 -456,136 -456,128 -512,128 -512,192 -456,192" /><polygon points="-512,199 -424,199 -424,192 -456,192 -512,192" /><polygon points="-456,136 -456,143 -424,143 -424,136" /><polygon points="-288,199 -256,199 -256,184 -256,128 -424,128 -424,136 -424,143 -424,192 -424,199" /><polygon points="-288,199 -424,199 -512,199 -512,224 -336,224 -288,224" /><polygon points="-256,224 -256,199 -288,199 -288,224" /><polygon points="-256,408 -256,224 -288,224 -336,224 -336,312 -336,448 -256,448" /><polygon points="-336,448 -336,536 -256,536 -256,448" /><polygon points="-456,536 -424,536 -336,536 -336,536 -360,536 -552,536 -552,536" /><polygon points="-336,224 -336,224 -336,312 -336,312" /><polygon points="-552,312 -552,448 -552,536 -552,536 -552,512 -552,472 -552,312" /><polygon points="-424,560 -424,560 -424,616 -424,616 -424,609" /><polygon points="-256,128 -256,128 -424,128 -424,128" /><polygon points="-256,408 -256,448 -256,536 -256,632 -256,632 -256,568 -256,408" /><polygon points="-256,184 -256,199 -256,224 -256,408 -256,408 -256,344 -256,184" /><polygon points="-456,136 -456,136 -456,136 -456,136 -456,128 -456,128" /><polygon points="-456,192 -456,192 -456,136 -456,136 -456,143" /><polygon points="-424,192 -424,192 -456,192 -456,192" /><polygon points="-424,136 -424,136 -456,136 -456,136" /><polygon points="-456,143 -456,136 -424,136 -424,143" /><polygon points="-456,560 -456,560 -424,560 -424,560" /><polygon points="-456,616 -456,616 -424,616 -424,616" /><polygon points="-632,128 -632,128 -632,184 -632,184" /><polygon points="-512,128 -456,128 -456,128 -632,128 -632,128" /><polygon points="-360,224 -336,224 -336,224 -512,224 -552,224 -552,224" /><polygon points="-360,512 -360,496 -360,496 -360,496 -360,512" /><polygon points="-360,440 -360,312 -360,312 -360,440" /><polygon points="-360,496 -360,456 -360,456 -360,496" /><polygon points="-336,312 -336,448 -336,536 -336,536 -336,448 -336,312" /><polygon points="-336,312 -336,224 -360,224 -360,248 -360,296 -360,312 -360,440 -360,448 -336,448" /><polygon points="-360,448 -360,456 -360,496 -360,512 -360,536 -336,536 -336,448" /><polygon points="-552,248 -552,224 -552,224 -552,312 -552,312" /><polygon points="-528,248 -360,248 -360,224 -552,224 -552,248" /><polygon points="-360,512 -360,512 -512,512 -528,512 -528,512" /><polygon points="-528,456 -528,472 -528,484 -528,484 -528,456" /><polygon points="-436,440 -360,440 -360,440 -436,440" /><polygon points="-452,440 -452,440 -528,440 -528,440" /><polygon points="-452,312 -436,312 -360,312 -360,296 -528,296 -528,312" /><polygon points="-436,312 -452,312 -452,440 -436,440" /><polygon points="-360,456 -360,448 -360,440 -436,440 -452,440 -528,440 -528,456" /><polygon points="-528,456 -528,440 -528,312 -528,296 -528,248 -552,248 -552,312 -552,472 -528,472" /><polygon points="-552,472 -552,512 -528,512 -528,484 -528,472" /><polygon points="-360,536 -360,512 -528,512 -552,512 -552,536" /><polygon points="360,-312 360,-312 352,-312 352,-312" /><polygon points="352,-472 352,-488 352,-536 360,-536 360,-312 352,-312" /><polygon points="128,-472 128,-488 352,-488 352,-472" /><polygon points="128,-472 128,-312 128,-312 128,-472" /><polygon points="128,-312 128,-472 352,-472 352,-312" /><polygon points="-296,-304 -296,-304 -456,-304 -520,-304 -520,-304" /><polygon points="-520,-488 -296,-488 -296,-472 -520,-472" /><polygon points="-296,-304 -296,-472 -296,-472 -296,-304" /><polygon points="-296,-304 -520,-304 -520,-472 -296,-472" /><polygon points="-536,-520 -520,-520 -520,-488 -520,-472 -520,-304 -536,-304" /><polygon points="-360,496 -360,456 -360,440 -360,312 -360,296 -360,296 -360,472 -360,496" /><polygon points="-528,440 -528,456 -528,484 -528,484 -528,472 -528,440" /><polygon points="-528,440 -528,440 -528,312 -528,312 -528,312 -528,440" /><polygon points="-528,248 -528,248 -528,296 -528,296" /><polygon points="-452,312 -452,312 -528,312 -528,312" /><polygon points="-360,312 -360,312 -436,312 -436,312" /><polygon points="-528,296 -528,296 -360,296 -360,296" /><polygon points="-360,296 -360,312 -436,312 -452,312 -528,312 -528,296" /><polygon points="-436,312 -436,312 -436,440 -436,440" /><polygon points="-452,440 -452,440 -452,312 -452,312" /><polygon points="-452,312 -436,312 -436,440 -452,440" /><polygon points="-360,456 -360,456 -528,456 -528,456" /><polygon points="-452,440 -436,440 -360,440 -360,456 -528,456 -528,440" /><polygon points="-360,248 -360,296 -360,296 -360,296 -360,248" /><polygon points="-512,248 -376,248 -360,248 -360,248 -528,248 -528,248 -528,248" /><polygon points="-528,512 -528,484 -528,484 -528,484 -528,512" /><polygon points="-528,248 -528,248 -528,296 -528,312 -528,312" /><polygon points="-360,296 -360,248 -376,248 -376,264 -376,472 -360,472" /><polygon points="-376,472 -376,496 -360,496 -360,472" /><polygon points="-376,248 -512,248 -512,264 -376,264" /><polygon points="-512,264 -512,248 -528,248 -528,312 -528,440 -528,472 -512,472" /><polygon points="-528,472 -528,484 -528,512 -512,512 -512,496 -512,472" /><polygon points="-360,512 -360,496 -376,496 -512,496 -512,512" /><polygon points="-376,264 -512,264 -512,264 -376,264" /><polygon points="-376,472 -376,264 -376,264 -376,496 -376,496" /><polygon points="-512,496 -512,496 -376,496 -376,496" /><polygon points="-512,264 -512,264 -512,472 -512,496 -512,496" /></g></defs><rect fill="#fff" height="1636.0" id="background" width="1372.0" x="-898.0" y="-882.0" /><use fill="none" stroke="black" stroke-miterlimit="0" stroke-width="15" xlink:href="#bsp_ref" /><use fill="white" stroke="black" stroke-width="1" xlink:href="#bsp_ref" /></svg>