<svg viewBox="-704 536 1856 1136" xmlns="http://www.w3.org/2000/svg" xmlns:xlink="http://www.w3.org/1999/xlink"><defs><g id="a"><path d="m-304 624v-80h64v80 144h-64z"/><path d="m-240 768v80h-64v-80z"/><path d="m-240 544v80z"/><path d="m-304 624v144 80z"/><path d="m432 544h-224z"/><path d="m-304 544h64z"/><path d="m512 544v48z"/><path d="m512 856v-32-8 20 20 4 116z"/><path d="m512 976v24z"/><path d="m512 1248v24 136z"/><path d="m136 1520h-120z"/><path d="m432 1520h80-136z"/><path d="m432 672h-80-144v-128h224z"/><path d="m512 544v48 80h-80v-128z"/><path d="m432 672h80v144h-32-88-40v-80-64z"/><path d="m232 800v-64h88v112h-88z"/><path d="m480 824h16v16h-16z"/><path d="m512 824h-16-16v-8h32z"/><path d="m496 840v-16h16v32h-16z"/><path d="m480 1000v-144h16 16v120 24 80h-32z"/><path d="m512 1080v32h-32v-32z"/><path d="m392 840v-24h88v8 16 16h-88z"/><path d="m392 816v24h-16-24v-24z"/><path d="m352 856v-16h24v16z"/><path d="m352 864v-8h24 16 88v144h-24-104z"/><path d="m232 928v-64h120v136h-120z"/><path d="m456 1112h-224v-8-104h120 104z"/><path d="m480 1000v80 32h-24v-112z"/><path d="m456 1224h-48-24-24-88-40v-112h224z"/><path d="m480 1112h32v112h-16-40v-112z"/><path d="m-240 1472v-184-40h80 24 88 32v224z"/><path d="m-16 1520h-192-32v-48h224z"/><path d="m-16 1472v-224h16 88 48 72v224z"/><path d="m208 1520h-72-120-32v-48h224z"/><path d="m208 1472v-224h16 8 40 88 48 24v224z"/><path d="m432 1520h-56-144-24v-48h224z"/><path d="m496 1248h16v160 64h-80v-224z"/><path d="m512 1472v48h-80v-48z"/><path d="m456 1224h40v24h-64-24v-24z"/><path d="m360 1224v24h-88v-24z"/><path d="m192 544v128h-224v-128z"/><path d="m160 800h-160-64v-32-32h224z"/><path d="m232 736v64h-72v-64z"/><path d="m-224 624v-80h160v128 64 32h-160z"/><path d="m-64 768v32h-160v-32z"/><path d="m172 864h4 56v64h-96v-64z"/><path d="m0 848h-224v-48h160 64z"/><path d="m160 800h72v48h-56-4-36-24-60-4-48v-48z"/><path d="m112 928v-64-16h24v16 64z"/><path d="m112 848v16h-60v-16z"/><path d="m136 848h36v16h-36z"/><path d="m-4 928v-64h52 4 60v64z"/><path d="m112 928h24 96v72 104h-144-92v-176z"/><path d="m-120 1064v-200h116v64 176h-116z"/><path d="m-120 1104h-16v-40h16z"/><path d="m-240 1064h80v48 88 48h-80z"/><path d="m-256 936v96h-24v-96z"/><path d="m-320 936v96h-8v-96z"/><path d="m-432 1152v-88h192v184 40h-192z"/><path d="m-240 1288v184 48h-192v-224-8z"/><path d="m88 1224h-88-48-88v-24-88-8h16 116 92z"/><path d="m232 1104v8 112h-8-88-24-24v-120z"/><path d="m224 1224v24h-16-72v-24z"/><path d="m88 1224v24h-88v-24z"/><path d="m-48 1224v24h-88v-24z"/><path d="m-136 1200h-24v-88h24z"/><path d="m-240 544v80z"/><path d="m224 1248h8z"/><path d="m88 1248h48z"/><path d="m360 1248h48z"/><path d="m48 848h-48z"/><path d="m352 672h-144z"/><path d="m192 672h-192-32z"/><path d="m320 736v32 16 32 16 16z"/><path d="m160 736h-224 80 32 16 32 16 32z"/><path d="m-224 624v144 32 48-80z"/><path d="m232 1224h40-48z"/><path d="m112 1224h-24z"/><path d="m0 1224h-48z"/><path d="m-160 1064v48z"/><path d="m-328 1032h8z"/><path d="m-280 1032h24z"/><path d="m-320 936h-8z"/><path d="m-304 624v224-176z"/><path d="m-328 936v96z"/><path d="m-280 936v96z"/><path d="m-432 1296v224-136z"/><path d="m-304 848h64z"/><path d="m-240 624v224-80z"/><path d="m-304 544v80z"/><path d="m428 840h-16v16h16z"/><path d="m464 840h-16v16h16z"/><path d="m252 576v8 48 8z"/><path d="m276 576h-24v64h24z"/><path d="m276 640v-8-48-8z"/><path d="m0 544h192-224z"/><path d="m-224 544h160z"/><path d="m-240 544v80z"/><path d="m-240 624v224z"/><path d="m-64 672v-128z"/><path d="m-64 672v64z"/><path d="m0 672h192-160z"/><path d="m252 640h24z"/><path d="m276 640v-8z"/><path d="m276 584v-8z"/><path d="m252 584h12z"/><path d="m264 584h4z"/><path d="m276 576h-24z"/><path d="m276 584v48h-8v-48z"/><path d="m264 584h4v48h-4z"/><path d="m252 632v-48h12v48z"/><path d="m276 632h-8z"/><path d="m268 632h-4z"/><path d="m192 544v128z"/><path d="m-32 544v128z"/><path d="m0 544h-32v128h32z"/><path d="m-64 672v-128h32v128z"/><path d="m-304 672v-48-64-16h64v80 224h-64z"/><path d="m-240 624v-80h-64v16 64 48 176h64z"/><path d="m-240 848h-64z"/><path d="m-304 560v-16 80z"/><path d="m512 928h-8v48h8z"/><path d="m192 544h-64 32z"/><path d="m128 544h-96 32z"/><path d="m32 544h96 64-192z"/><path d="m-224 544h32 32 128-32z"/><path d="m136 1520h72 24z"/><path d="m232 1520h144-32z"/><path d="m-240 624v144 80z"/><path d="m0 848h-120-104z"/><path d="m0 848h48-32-80-56z"/><path d="m32 672h160-128z"/><path d="m-64 672h32z"/><path d="m-64 672h32 32z"/><path d="m-32 672v-128z"/><path d="m0 544v128z"/><path d="m32 544h-32v128h32z"/><path d="m-32 672v-128h32v128z"/><path d="m-224 544v80z"/><path d="m-240 624v-80h16v80 144h-16z"/><path d="m-224 768v80h-16v-80z"/><path d="m128 544h-64 32z"/><path d="m0 672h32z"/><path d="m64 672h128-96z"/><path d="m32 544v128z"/><path d="m64 544h-32v128h32z"/><path d="m0 672v-128h32v128z"/><path d="m0 672v-128z"/><path d="m0 544h32z"/><path d="m128 544h-32z"/><path d="m0 672h32 32z"/><path d="m96 672h96-64z"/><path d="m32 672v-128z"/><path d="m96 544h-32v128h32z"/><path d="m32 672v-128h32v128z"/><path d="m64 544v128z"/><path d="m504 976v-48h8v48z"/><path d="m512 976h-8z"/><path d="m504 928h8z"/><path d="m512 928v48z"/><path d="m504 976v-48z"/><path d="m384 1224h24z"/><path d="m112 1224h24 32z"/><path d="m112 1224h24z"/><path d="m64 544h-32-32z"/><path d="m512 1248h-16z"/><path d="m0 672h64 32z"/><path d="m128 672h64-32z"/><path d="m64 672v-128z"/><path d="m96 544v128z"/><path d="m128 544h-32v128h32z"/><path d="m64 672v-128h32v128z"/><path d="m176 864h-4z"/><path d="m52 864h-4z"/><path d="m52 848h-4z"/><path d="m176 848h-16z"/><path d="m172 848h4z"/><path d="m52 848v16z"/><path d="m172 864v-16z"/><path d="m-136 1248h-24 56z"/><path d="m-136 1248h-24z"/><path d="m224 1248h-32z"/><path d="m360 1248h-32z"/><path d="m496 1248h-32 48z"/><path d="m224 1248v-24z"/><path d="m272 1224h32z"/><path d="m360 1224h24-56z"/><path d="m360 1224h24z"/><path d="m496 1224h16-48z"/><path d="m496 1224h16z"/><path d="m408 1224v24z"/><path d="m496 1248v-24z"/><path d="m360 1248v-24z"/><path d="m272 1224v24z"/><path d="m0 1224v24z"/><path d="m136 1224v24z"/><path d="m88 1248v-24z"/><path d="m-136 1112v32z"/><path d="m-136 1200v24z"/><path d="m-136 1224v24z"/><path d="m-136 1224v-56 32z"/><path d="m-48 1248v-24z"/><path d="m-136 1112h-24z"/><path d="m-136 1200h-24z"/><path d="m-160 1200v-32z"/><path d="m-136 1112h-24v32h24z"/><path d="m192 544h-32z"/><path d="m96 544h-32-64z"/><path d="m0 544h-32z"/><path d="m0 672h96 32z"/><path d="m160 672h32z"/><path d="m128 544v128z"/><path d="m160 544h-32v128h32z"/><path d="m96 672v-128z"/><path d="m96 672v-128h32v128z"/><path d="m156 864h-4 4 20-4z"/><path d="m68 848h-4-12z"/><path d="m64 848h4z"/><path d="m176 848h56z"/><path d="m160 848h-4 16 4z"/><path d="m68 848h88-60-28-4z"/><path d="m176 848h56-76 4z"/><path d="m156 864v-16h-88v16z"/><path d="m68 864v-16h-16v16z"/><path d="m156 848v16h16v-16z"/><path d="m272 864h-96-20-4-80-4-20 48 136z"/><path d="m272 864h80-120-56z"/><path d="m152 864h4-88 4z"/><path d="m156 864h20z"/><path d="m68 864h4-4-16-4z"/><path d="m48 864h20z"/><path d="m64 848h-16 4z"/><path d="m156 848h76 88-16-16-32-16-8-24-16-32-16-32-16z"/><path d="m320 848h-88z"/><path d="m-104 1248h12 12z"/><path d="m-80 1248h-12 20 24z"/><path d="m192 1248h-24 12z"/><path d="m272 1248h-40z"/><path d="m288 1248h16-32z"/><path d="m416 1248h24-32z"/><path d="m272 1248h-40 56z"/><path d="m448 1248h-8-24z"/><path d="m464 1248h-16z"/><path d="m0 672h128 32z"/><path d="m128 672v-128z"/><path d="m252 640v-8z"/><path d="m276 584v48z"/><path d="m276 584h-8z"/><path d="m268 584v48h8v-48z"/><path d="m264 632h4v-48h-4z"/><path d="m252 584v48h12v-48z"/><path d="m252 632h12z"/><path d="m264 584v48z"/><path d="m264 632v-48z"/><path d="m268 632v-48z"/><path d="m268 584v48z"/><path d="m160 544v128z"/><path d="m192 544h-32v128h32z"/><path d="m128 672v-128h32v128z"/><path d="m440 1224h-32z"/><path d="m304 1224h24 56 24 32 24 48-176-64z"/><path d="m448 1248h16v-24h-24v24z"/><path d="m464 1248h32v-24h-32z"/><path d="m440 1224h-32v24h32z"/><path d="m304 1224v24h24v-24z"/><path d="m328 1248h32v-24h-32z"/><path d="m304 1224h-32v24h32z"/><path d="m168 1224h24 32-112z"/><path d="m192 1224h32z"/><path d="m32 1224h24z"/><path d="m112 1224h-56 32z"/><path d="m32 1224h-32z"/><path d="m168 1224v24h24v-24z"/><path d="m168 1224h-32v24h32z"/><path d="m192 1224v24h32v-24z"/><path d="m32 1224v24h24v-24z"/><path d="m32 1224h-32v24h32z"/><path d="m56 1248h32v-24h-32z"/><path d="m-136 1144v24z"/><path d="m-80 1224h32z"/><path d="m-104 1224h-32z"/><path d="m-80 1224h32 48-4-100z"/><path d="m-104 1224v24h24v-24z"/><path d="m-80 1248h32v-24h-32z"/><path d="m-104 1224h-32v24h32z"/><path d="m-136 1144h-24v8 16h24z"/><path d="m-160 1144v-32 8 32z"/><path d="m-160 1200v-32-16 96z"/><path d="m-160 1144v-32z"/><path d="m-160 1168v32h24v-32z"/><path d="m-160 1248v-48z"/><path d="m512 860v116z"/><path d="m352 860v4z"/><path d="m352 736v-64z"/><path d="m352 860v-4-16-4-100 80 24 16 8z"/><path d="m496 836h16-160z"/><path d="m376 840h16 88 16v-4h-144v4z"/><path d="m512 836h-16v4 16h16z"/><path d="m512 860v-4h-16-16-88-16-24v4z"/><path d="m392 840v16h88v-16z"/><path d="m352 840v16h24v-16z"/><path d="m392 840v16z"/><path d="m480 856v-16z"/><path d="m496 840v16z"/><path d="m496 856h-16z"/><path d="m480 840h16z"/><path d="m376 856v-16z"/><path d="m392 856h-16z"/><path d="m376 840h16z"/><path d="m276 584v48 8z"/><path d="m64 1248h24-32z"/><path d="m160 1248h20-12-32z"/><path d="m160 1248h-24z"/><path d="m56 1248h-24z"/><path d="m32 1248h-32z"/><path d="m320 1248h8-24-16z"/><path d="m252 640v-8-48z"/><path d="m252 576v8z"/><path d="m252 584v-8h24v8 56h-24z"/><path d="m-192 1152v-32z"/><path d="m-160 1120v-8z"/><path d="m-160 1120h-32v32h32z"/><path d="m-92 1248h-12v32h32v-32z"/><path d="m64 1280v-32h-8-24v32z"/><path d="m180 1248h-20v32h32v-32z"/><path d="m320 1272v-24h-32v24 8h32z"/><path d="m448 1272v-24h-32v24 8h32z"/><path d="m320 1248v24z"/><path d="m416 1272v-24z"/><path d="m416 1280h32z"/><path d="m448 1272v8z"/><path d="m288 1272v-24z"/><path d="m320 1280h-32z"/><path d="m160 1280h32z"/><path d="m-104 1280h32z"/><path d="m412 856v-16h16v16z"/><path d="m412 840h16z"/><path d="m428 840v16z"/><path d="m428 856h-16z"/><path d="m412 856v-16z"/><path d="m448 856v-16h16v16z"/><path d="m448 840h16z"/><path d="m464 856h-16z"/><path d="m448 856v-16z"/><path d="m464 840v16z"/><path d="m104 1000h104-112z"/><path d="m96 1104v-104 88 24z"/><path d="m200 1008h8v-8h-104v8z"/><path d="m200 1008v96h8v-96z"/><path d="m104 1008v-8h-8v104h8z"/><path d="m208 1112v-8h-8-96-8v8z"/><path d="m200 1008h-96 16 8 52 8z"/><path d="m104 1008v96-16-4-52-8z"/><path d="m200 1104v-96 12 8 56 8z"/><path d="m104 1104h96-12-8-52-8z"/></g><g id="b"><path d="m512 544h-80z"/><path d="m160 544h-32z"/><path d="m128 544h-32-96 64z"/><path d="m512 592v80 144-144z"/><path d="m512 836v-20z"/><path d="m512 1000v84 28 112-112-32z"/><path d="m512 1272v8 128z"/><path d="m512 1408v112-48z"/><path d="m-208 1520h-32-192 192z"/><path d="m16 1520h-32-192 192z"/><path d="m512 1520h-136z"/><path d="m-48 1248h-24z"/><path d="m0 1248h-16-32z"/><path d="m88 1248h-24z"/><path d="m328 1248h-8z"/><path d="m416 1248h-8-48-32z"/><path d="m-160 1152h-24v96h24z"/><path d="m-104 1224h100v-40-80h-116-16v8 32 24 56z"/><path d="m0 1224h32 24 56v-40h-16-100v40z"/><path d="m112 1112h-16v72h16z"/><path d="m-160 1112v-48h-24v56h24z"/><path d="m-120 1064h-16v40h16z"/><path d="m-4 1088v-224h-116v200 40h116z"/><path d="m200 1084-20 20h8l12-12z"/><path d="m108 1084h-4v4l16 16h8z"/><path d="m104 1024v8l24-24h-8z"/><path d="m200 1020-12-12h-8l20 20z"/><path d="m208 1000v-72h-112v72z"/><path d="m232 1000v-72h-24v72 112h24z"/><path d="m96 1000v-72-64h-48-52v224h100z"/><path d="m-4 1088v16 80h100v-72-24z"/><path d="m48 816h-32v16h32z"/><path d="m96 832v16h16v-16z"/><path d="m208 928h24v-64h-136v64z"/><path d="m144 832v16h16v-16z"/><path d="m192 832v16h16v-16z"/><path d="m64 832v-16-32h-16v32 16 16h16z"/><path d="m112 736h-16v32h16z"/><path d="m112 784h-16v32h16z"/><path d="m64 736h-16v32h16z"/><path d="m16 832v-16-32-16-32h-80v112h80z"/><path d="m160 784h-16v32h16z"/><path d="m208 736h-16v32h16z"/><path d="m208 784h-16v32h16z"/><path d="m160 736h-16v32h16z"/><path d="m160 672v-128h32v128z"/><path d="m336 1112h-104-24-96v72 40h112 48 64z"/><path d="m512 1224v-112h-32-24-120v112z"/><path d="m352 1000h-120v112h104 120v-112z"/><path d="m456 1112h24v-28-84h-24z"/><path d="m240 832v16h16v-16z"/><path d="m352 928v-64h-80-40v64 72h120z"/><path d="m288 832v16h16v-16z"/><path d="m288 816h-32-16-32-16-32-16-32-16-32v16h32 16 32 16 32 16 32 16 32z"/><path d="m304 832h16v-16h-16-16v16z"/><path d="m456 1000h24v-72h-64-64v72z"/><path d="m352 864v64h64v-64-4h-64z"/><path d="m480 864h-64v64h64z"/><path d="m480 864v-4h-64v4z"/><path d="m512 1000v-24-116h-32v4 64 72 84h32z"/><path d="m480 1084v28h32v-28z"/><path d="m256 736h-16v32h16z"/><path d="m288 784v32h16v-32z"/><path d="m304 736h-16v32h16z"/><path d="m240 784v32h16v-32z"/><path d="m240 768h-32-16-32-16-32-16-32-16-32v16h32 16 32 16 32 16 32 16 32z"/><path d="m256 784h32 16 16v-16h-16-16-32-16v16z"/><path d="m512 816v-144h-80-80v64 100h160z"/><path d="m432 544h-224v128h144 80z"/><path d="m512 672v-80-48h-80v128z"/><path d="m-120 848h56z"/><path d="m16 848h32z"/><path d="m144 848h-28-4z"/><path d="m192 848h-32z"/><path d="m232 848h8z"/><path d="m304 848h16z"/><path d="m-64 736v-64 64 112z"/><path d="m48 736h-32z"/><path d="m96 736h-32z"/><path d="m144 736h-32z"/><path d="m288 736h-32z"/><path d="m320 736h-16z"/><path d="m192 672h-32z"/><path d="m16 832v16z"/><path d="m320 848v-16z"/><path d="m320 816v-32z"/><path d="m320 768v-32z"/><path d="m160 832v16z"/><path d="m240 768v-32z"/><path d="m240 816v-32z"/><path d="m240 848v-16z"/><path d="m288 784h-32z"/><path d="m288 768v-32z"/><path d="m304 768h16z"/><path d="m256 768h32z"/><path d="m304 816h16z"/><path d="m256 816h32z"/><path d="m288 816v-32z"/><path d="m304 784v32z"/><path d="m256 784v32z"/><path d="m288 848v-16z"/><path d="m304 832v16z"/><path d="m256 832v16z"/><path d="m288 832h-32z"/><path d="m192 784h-32z"/><path d="m240 768h-32z"/><path d="m192 768v-32z"/><path d="m160 768h32z"/><path d="m208 832v16z"/><path d="m240 816h-32z"/><path d="m160 816h32z"/><path d="m192 784v32z"/><path d="m192 848v-16z"/><path d="m192 832h-32z"/><path d="m96 768v-32z"/><path d="m96 784v32z"/><path d="m96 848v-16z"/><path d="m144 784h-32z"/><path d="m112 768h32z"/><path d="m144 768v-32z"/><path d="m112 816h32z"/><path d="m144 784v32z"/><path d="m144 848v-16z"/><path d="m112 832v16z"/><path d="m144 832h-32z"/><path d="m96 784h-32z"/><path d="m48 784h-32z"/><path d="m64 768h32z"/><path d="m48 768v-32z"/><path d="m64 832v16z"/><path d="m64 816h32z"/><path d="m96 832h-32z"/><path d="m48 784v32z"/><path d="m48 848v-16z"/><path d="m48 832h-32z"/><path d="m104 1084h4z"/><path d="m200 1008v12z"/><path d="m104 1008h16z"/><path d="m188 1008 12 12z"/><path d="m104 1104v-16z"/><path d="m200 1104h-12z"/><path d="m120 1104-16-16z"/><path d="m200 1092-12 12z"/><path d="m-184 1152h-8z"/><path d="m-184 1064h-56 48z"/><path d="m-192 1120v32z"/><path d="m-192 1120h8z"/><path d="m-184 1064v56z"/><path d="m352 864h-80z"/><path d="m-4 864h52-52-116z"/><path d="m352 736v100z"/><path d="m416 860h64 32-160z"/><path d="m-240 848h16 104z"/><path d="m64 848h4 28z"/><path d="m208 672v-128z"/><path d="m160 672v-128z"/><path d="m192 736h16 32 16 32 16 16-88-72z"/><path d="m112 1112h96-112z"/><path d="m208 1000v8 96 8z"/><path d="m-136 1064h16z"/><path d="m-240 1064h56 24z"/><path d="m-120 1064v-200z"/><path d="m-136 1104v-40 40 8z"/><path d="m-184 1152h24-32z"/><path d="m-184 1120h-8 32z"/><path d="m160 1272v8-32z"/><path d="m160 1280v-8z"/><path d="m448 1272h64z"/><path d="m448 1248v24z"/><path d="m464 1248h-16v24h64v-24z"/><path d="m376 1272h40v-24h-88-8v24z"/><path d="m416 1272v8z"/><path d="m448 1272v8z"/><path d="m288 1272v8z"/><path d="m192 1272v8z"/><path d="m192 1272v-24 32z"/><path d="m288 1272v-24h-56-8-32v24z"/><path d="m72 1384h-64-8-16z"/><path d="m64 1280h-32z"/><path d="m160 1272v-24h-24-48-24v24z"/><path d="m32 1272v-24h-32-48-24v24z"/><path d="m-160 1248h-24v24h80v-24z"/><path d="m32 1280v-8z"/><path d="m64 1272v8z"/><path d="m-72 1272v8z"/><path d="m-104 1280v-8z"/><path d="m32 1272v8-32z"/><path d="m64 1272v-24 32z"/><path d="m-72 1272v-24 32z"/><path d="m-104 1272v8-32z"/><path d="m136 1448v72z"/><path d="m-16 1384h-224v136h32 192z"/><path d="m16 1520h120v-72l-64-64h-88v136z"/><path d="m-240 1384h-192v136h192z"/><path d="m-432 1152v136 8z"/><path d="m-64 736h-240v112h240z"/><path d="m232 1520h-96z"/><path d="m232 1520h112-24z"/><path d="m376 1520h-32z"/><path d="m416 1272h-40z"/><path d="m344 1304v184z"/><path d="m376 1272-8 8h48v-8z"/><path d="m512 1408v-128h-64-32-48l-24 24v184l32 32h136z"/><path d="m512 1272h-64v8h64z"/><path d="m368 1280 8-8-32 32z"/><path d="m-304 560v64 48z"/><path d="m-304 560v-16z"/><path d="m416 864h64z"/><path d="m416 928v-64h64v64z"/><path d="m-400 648v-64z"/><path d="m-336 648h-64z"/><path d="m-336 584h-64z"/><path d="m-400 648v-64h64v64z"/><path d="m-304 848v-112z"/><path d="m-64 736v112z"/><path d="m-304 736h240z"/><path d="m-64 848h-240z"/><path d="m-304 848v-112h240v112z"/><path d="m-336 584h-64v64h64z"/><path d="m544 984v56-64z"/><path d="m544 952v24-16z"/><path d="m936 1368v-8-24z"/><path d="m944 1296h8v40h-16v-40z"/><path d="m936 1264h8v32h-8z"/><path d="m944 1208h8v56h-8-8v-56z"/><path d="m944 1208h-8v-32h8z"/><path d="m944 1120h8v56h-8-8v-56z"/><path d="m936 1112v-64h8v40 32h-8z"/><path d="m952 1048v40h-8v-40z"/><path d="m952 1048h-8z"/><path d="m952 1088v-40z"/><path d="m952 1120h-8z"/><path d="m944 1088v32z"/><path d="m952 1176v-56z"/><path d="m952 1208h-8z"/><path d="m952 1264v-56z"/><path d="m952 1296h-8z"/><path d="m944 1296v-32z"/><path d="m952 1336v-40z"/><path d="m832 1368h-32v-8h32z"/><path d="m896 1368h-32v-8h72v8z"/><path d="m704 1112h64v224h-224v-56-96-64-8z"/><path d="m768 1336v24 8h-160-64v-24-8z"/><path d="m936 1112v8 56 32 56 32 40h-168v-224z"/><path d="m936 1336v24h-72-32-32-32v-24z"/><path d="m544 976v-24-8-84-28-8-64h128 32v192 32h-160z"/><path d="m704 984v128h-160v-72-56z"/><path d="m832 952h64 32 8v96 64h-168-64v-128-32z"/><path d="m704 952v-192h128v64 128z"/><path d="m936 760v64h-8-32-64v-64z"/><path d="m896 824h-32-32z"/><path d="m768 1368v-8z"/><path d="m832 1368v-8z"/><path d="m768 1368h-32-64-64z"/><path d="m672 1408h24v128 24l-24 24z"/><path d="m720 1536-24 24v-24z"/><path d="m696 1408h136v128h-72-40-24z"/><path d="m720 1536h40z"/><path d="m760 1536h72z"/><path d="m696 1560 24-24-24 24-24 24z"/><path d="m544 1552v-8-136h128v176 48h-128z"/><path d="m672 1632v40h-128v-8-32z"/><path d="m-704 1056v200 24-24z"/><path d="m-704 832v160 40 24-40z"/><path d="m-704 608v160 64-40z"/><path d="m384 544h32 64z"/><path d="m64 544h-64-32-128 144z"/><path d="m-160 544h-32z"/><path d="m192 544h-32-32z"/><path d="m-240 544h16z"/><path d="m-480 544h-104-96-24 24 96z"/><path d="m512 544v64 32z"/><path d="m512 816v-48 56z"/><path d="m512 952v8 32 32z"/><path d="m512 1272v20 4z"/><path d="m512 860h32v84h-32z"/><path d="m544 832v28h-32v-28z"/><path d="m376 1520h72-66-8-30z"/><path d="m352 576v-32z"/><path d="m416 1208h32v16 24h-64v-40z"/><path d="m416 1208h-32v-64h32z"/><path d="m480 1224h32v24h-64v-24z"/><path d="m448 1208h32v16h-32z"/><path d="m480 1112v32h-64-32v-24-8z"/><path d="m384 1000h96v112h-96-32v-112z"/><path d="m480 944v56h-96v-8-64h32 64z"/><path d="m384 816h32v48 64h-32z"/><path d="m416 816h64v44 4h-64z"/><path d="m480 1144v-32-112-56h32v8 72 144h-32z"/><path d="m512 1168v56h-32v-16-40z"/><path d="m480 928v-64-4h32v84h-32z"/><path d="m480 816h32v8 8 28h-32z"/><path d="m384 768v-64-8-112-8-32h96 32v96 96 32z"/><path d="m512 816h-32-64-32v-48h128z"/><path d="m352 696v-112h32v112z"/><path d="m480 1144h-64z"/><path d="m416 864v64z"/><path d="m416 928h64z"/><path d="m480 928v-64z"/><path d="m-120 848h-72-48z"/><path d="m-64 848h80 32 16-64-120z"/><path d="m112 848h4-20z"/><path d="m232 848h-8-16z"/><path d="m288 848h-32z"/><path d="m288 848h16 16 32z"/><path d="m192 736h-32z"/><path d="m240 736h-32z"/><path d="m160 736h-16-32-16-32-16-32-80v-64h224z"/><path d="m192 672h16v64h-16-32v-64z"/><path d="m192 672v-128h16v128z"/><path d="m224 544h8 120v32 8 112 8 32h-32-16-16-32-16-32v-64-128z"/><path d="m192 672v-128z"/><path d="m160 672h-224 64z"/><path d="m16 784v32z"/><path d="m16 736v32z"/><path d="m320 832v-16-32-16-32h32v80 32h-32z"/><path d="m96 848v-16h16v16z"/><path d="m48 848v-16h16v16z"/><path d="m144 848v-16h16v16z"/><path d="m192 848v-16h16v16z"/><path d="m48 784h16v32h-16z"/><path d="m96 768v-32h16v32z"/><path d="m144 784h16v32h-16z"/><path d="m192 768v-32h16v32z"/><path d="m192 784h16v32h-16z"/><path d="m144 768v-32h16v32z"/><path d="m96 784h16v32h-16z"/><path d="m48 768v-32h16v32z"/><path d="m288 848v-16h16v16z"/><path d="m240 848v-16h16v16z"/><path d="m240 832h-32-16-32-16-32-16-32-16-32v-16h32 16 32 16 32 16 32 16 32z"/><path d="m256 816h32 16 16v16h-16-16-32-16v-16z"/><path d="m240 816v-32h16v32z"/><path d="m288 768v-32h16v32z"/><path d="m288 816v-32h16v32z"/><path d="m240 768v-32h16v32z"/><path d="m240 784h-32-16-32-16-32-16-32-16-32v-16h32 16 32 16 32 16 32 16 32z"/><path d="m256 768h32 16 16v16h-16-16-32-16v-16z"/><path d="m160 736v32z"/><path d="m160 784v32z"/><path d="m320 784h-16z"/><path d="m304 736v32z"/><path d="m256 736v32z"/><path d="m320 832h-16z"/><path d="m240 784h-32z"/><path d="m208 736v32z"/><path d="m208 784v32z"/><path d="m240 832h-32z"/><path d="m112 736v32z"/><path d="m112 784v32z"/><path d="m64 736v32z"/><path d="m16 768h32z"/><path d="m64 784v32z"/><path d="m16 816h32z"/><path d="m-64 736h80v32 16 32 16 16h-80z"/><path d="m-96 1184v32z"/><path d="m232 1216h56-32-64-48z"/><path d="m112 1216h-48-64-32z"/><path d="m-68 1200v16h-28v-32h28z"/><path d="m-68 1200h4v16h-4z"/><path d="m-68 1184h36v16h-32-4z"/><path d="m12 1184h84 16v16 16h-144v-16-16z"/><path d="m96 1184v-64-8h16v72z"/><path d="m112 1184v-72h32v88h-32z"/><path d="m208 1112h24v88 16h-88v-16-88z"/><path d="m-64 896v16 16h-32v-32z"/><path d="m180 1104 20-20v8l-12 12z"/><path d="m120 1104-16-16v-4h4l20 20z"/><path d="m128 1008-24 24v-8l16-16z"/><path d="m188 1008 12 12v8l-20-20z"/><path d="m112 928h32 88v72h-24-112v-72z"/><path d="m12 896v16h-44v-16z"/><path d="m-32 912h44v16h-76v-16z"/><path d="m12 960v-32-16-16h84v32 72 112 8h-84z"/><path d="m96 1120v64h-84v-64z"/><path d="m112 912v16h-16v-32h16z"/><path d="m112 912h32v16h-32z"/><path d="m144 928v-16-16h88v16 16z"/><path d="m232 1216v-16h56v16z"/><path d="m352 1216h-32v-16h32z"/><path d="m352 1120v80h-32-32-56v-88h120z"/><path d="m352 1112h-120-24v-112h24 120z"/><path d="m232 928v-16h56 32 32v80 8h-120z"/><path d="m232 896h56v16h-56z"/><path d="m320 896h32v16h-32z"/><path d="m96 1000v104 8z"/><path d="m208 1000h-104-8z"/><path d="m120 1104h8 52 8 12-96z"/><path d="m104 1024v8 52 4 16-96z"/><path d="m188 1008h-8-52-8-16 96z"/><path d="m200 1092v-8-56-8-12 96z"/><path d="m12 960v160 64-32z"/><path d="m-64 928h76-8-100z"/><path d="m104 1024v-16z"/><path d="m104 1032v52z"/><path d="m200 1028v56z"/><path d="m188 1008h12z"/><path d="m128 1008h52z"/><path d="m128 1008-24 24z"/><path d="m200 1028-20-20z"/><path d="m104 1024 16-16z"/><path d="m200 1092v12z"/><path d="m120 1104h-16z"/><path d="m180 1104h-52z"/><path d="m108 1084 20 20z"/><path d="m180 1104 20-20z"/><path d="m352 1496 24 24-32-32z"/><path d="m344 1304 32-32h136v24 200h-160l-8-8z"/><path d="m512 1496v24h-64-72l-24-24z"/><path d="m-16 1384h-224z"/><path d="m-16 1384h16v8h-240v-8z"/><path d="m0 1512v8h-72-32-112-24v-8z"/><path d="m0 1392v120h-240v-120z"/><path d="m8 1384h64l56 56v80h-120z"/><path d="m0 1520v-8-120-8h8v136z"/><path d="m128 1440 8 8v72h-8z"/><path d="m128 1440-56-56 64 64z"/><path d="m-584 1032h96z"/><path d="m-488 1032h32z"/><path d="m-488 936h48z"/><path d="m-280 936h-40-8-72 40 104z"/><path d="m-256 936h-24z"/><path d="m-304 840v-96-8-64 176z"/><path d="m-304 664v-96-8 112z"/><path d="m-304 664h-24v-16-64-16h24z"/><path d="m-328 840v-96h24v96z"/><path d="m-400 688h72-160z"/><path d="m-336 648v-64h8v64z"/><path d="m-328 560v8 16h-8-64v-40h72z"/><path d="m-336 648v-64z"/><path d="m-400 648h64 8v16 8 16h-72z"/><path d="m-480 544h80v40 64 40h-88-96v-144z"/><path d="m-448 736h120v8 96 8h-120z"/><path d="m-448 848h120z"/><path d="m-584 768v-80h96v24 200h-96z"/><path d="m-488 912v24h-96v-24z"/><path d="m-488 688v24z"/><path d="m-256 936v96z"/><path d="m-280 936v96h-40v-96z"/><path d="m-320 1032v-96z"/><path d="m-328 936v96h-32-40v-96z"/><path d="m-456 1032h-32-96v-40-56h96 48v96z"/><path d="m-432 1384v-88z"/><path d="m-240 1392h-192v-8h192z"/><path d="m-240 1384h-192z"/><path d="m-240 1512h-192-24v-120h24 192z"/><path d="m-240 1520h-192v-8h192z"/><path d="m-584 1280v-8-120-8h128v224h-128z"/><path d="m-456 1368v16 8 120 8h-128v-48-104z"/><path d="m-608 1032h24z"/><path d="m-680 544h96v144 80h-96z"/><path d="m-584 768v144 24 56h-96v-224z"/><path d="m-584 992v40h-24-72v-40z"/><path d="m-680 1032h72v112 8 104h-72z"/><path d="m-608 1256v16 8h-72v-24z"/><path d="m-608 1272v-16-104h24v120z"/><path d="m-608 1032v112z"/><path d="m-704 608v-64h24v224h-24z"/><path d="m-680 768v224h-24v-160-64z"/><path d="m-680 992v40h-24v-40z"/><path d="m-704 1056v-24h24v224h-24z"/><path d="m-680 1256v24h-24v-24z"/><path d="m128 1520v24h-120v-24z"/><path d="m448 1552v-8h64v8z"/><path d="m512 1664h-64v-112h64 32v80 32z"/><path d="m512 1672h-56-8v-8h64z"/><path d="m224 1672h-224v-128h8 120 8 88z"/><path d="m232 1544h216v8 112 8h-216-8v-128z"/><path d="m512 1672h-56z"/><path d="m224 1672h8-8-32-96-32-64z"/><path d="m480 1144v24 40z"/><path d="m480 1144v64h-64v-64z"/><path d="m480 1208h-32-32z"/><path d="m416 1208v-64z"/><path d="m208 1112h-64-32-16z"/><path d="m208 1104v-96-8 112z"/><path d="m208 1000v8h-8-96v-8z"/><path d="m208 1008v96h-8v-96z"/><path d="m96 1104v-104h8v8 96z"/><path d="m104 1104h96 8v8h-112v-8z"/><path d="m-336 584v64z"/><path d="m-400 648v-64z"/><path d="m-400 584h64z"/><path d="m-336 648h-64z"/><path d="m-400 648v-64h64v64z"/><path d="m512 1544h-64z"/><path d="m448 1520h64z"/><path d="m448 1544v-24h64v24z"/><path d="m512 1544v8z"/><path d="m512 1524h-64v16h64z"/><path d="m896 952h32z"/><path d="m864 952h32-64z"/><path d="m832 952v-128z"/><path d="m864 824v128z"/><path d="m832 824h32v128h-32z"/><path d="m760 1536h72 32z"/><path d="m832 1536v-128z"/><path d="m832 1536v-128h32v128z"/><path d="m-96 928v-32z"/><path d="m4 1184h8-44-36-28z"/><path d="m12 928v32z"/><path d="m-4 1168v-224-8h8v216 24h-8z"/><path d="m4 928v8h-8-92v-8z"/><path d="m4 936v-8h8v32 192h-8z"/><path d="m12 1152v32h-8v-8-24z"/><path d="m-4 936v8h-92v-8z"/><path d="m-4 1176h8v8h-100v-8z"/><path d="m-4 1168v8h-92v-8z"/><path d="m-4 944h-80-12z"/><path d="m-456 1032h16z"/><path d="m-440 1032h40-56z"/><path d="m-360 1032h-40z"/><path d="m-360 936h104z"/><path d="m-400 936v96z"/><path d="m-360 936h-40v96h40z"/><path d="m-440 1032v-96z"/><path d="m-440 1032v-96h40v96z"/><path d="m544 1344v24z"/><path d="m544 1112v8z"/><path d="m544 760v64z"/><path d="m672 760h-128z"/><path d="m672 760h32z"/><path d="m832 1408h32z"/><path d="m936 1336v32z"/><path d="m936 1048v-96z"/><path d="m936 824v-64z"/><path d="m896 952h-32z"/><path d="m936 952h-8z"/><path d="m864 824h32z"/><path d="m896 824v128z"/><path d="m864 824h32v128h-32z"/><path d="m896 1368h40z"/><path d="m896 1368h-32z"/><path d="m544 1368h64z"/><path d="m760 1536h104 32z"/><path d="m864 1536v-128z"/><path d="m864 1536v-128h32v128z"/><path d="m-96 944v-16 8z"/><path d="m-20 960h16v32h-16z"/><path d="m-4 944v16h-16-64v-16z"/><path d="m-96 1104v-160h12v16 32 128 32 16h-12z"/><path d="m-28 992h8 16v128h-16-8z"/><path d="m-84 992h8v128h-8z"/><path d="m-20 1120h16v32h-16z"/><path d="m-20 1152h16v16h-80v-16z"/><path d="m-20 960h-8-48-8z"/><path d="m-76 992v128z"/><path d="m-84 1168h80-92z"/><path d="m-4 1152v-32-128-32-16 224z"/><path d="m-240 544h48-32z"/><path d="m-240 544h-64z"/><path d="m352 816v-80-32z"/><path d="m352 992v-80-16z"/><path d="m352 848v-32z"/><path d="m352 992v8z"/><path d="m352 1216v-16-80z"/><path d="m-64 896h-32z"/><path d="m352 896h-32z"/><path d="m-96 1216v-48 8 8z"/><path d="m320 1216h32z"/><path d="m-96 1216h28 4z"/><path d="m288 1216v-16z"/><path d="m320 1200h-32z"/><path d="m320 1200v16z"/><path d="m-32 1200h-32z"/><path d="m-64 896v16z"/><path d="m-32 1200v16z"/><path d="m-64 1216v-16z"/><path d="m-184 1064h-8v56h8z"/><path d="m-192 1120v-56h-48v88h48z"/><path d="m-184 1152v96z"/><path d="m320 1280v-8z"/><path d="m320 1272h56z"/><path d="m160 1280v-8h32v8z"/><path d="m288 1280v-8h32v8z"/><path d="m320 1272h-32-96-32z"/><path d="m288 1272h-96z"/><path d="m32 1272h-104z"/><path d="m64 1272h96z"/><path d="m32 1280v-8h32v8z"/><path d="m-104 1280v-8h32v8z"/><path d="m-360 1032h32 8 40 24z"/><path d="m-400 936h40z"/><path d="m-304 848h64z"/><path d="m-304 848v-8z"/><path d="m-304 672v64z"/><path d="m-304 672v-8z"/><path d="m-360 936v96h104v-96z"/><path d="m-400 1032v-96h40v96z"/><path d="m-360 1032v-96z"/><path d="m-400 1032v-96z"/><path d="m-360 936v96z"/><path d="m-432 1064h192z"/><path d="m-240 1152h-192z"/><path d="m-240 1064h-192v88h192z"/><path d="m-432 1064v88z"/><path d="m896 1408h-32-32z"/><path d="m928 1408h-32z"/><path d="m928 824h-32z"/><path d="m928 824h8z"/><path d="m928 824v128z"/><path d="m896 824h32v128h-32z"/><path d="m760 1536h136 32z"/><path d="m896 1536v-128h32v128z"/><path d="m896 1536v-128z"/><path d="m544 1280v56 8z"/><path d="m544 1120v64z"/><path d="m544 1120v-8z"/><path d="m544 1040v72-32z"/><path d="m1152 832v-72 104z"/><path d="m696 1408h-24-128z"/><path d="m736 1408h96-136z"/><path d="m936 952v96z"/><path d="m936 952v-8z"/><path d="m944 1088h8z"/><path d="m1152 760v72h-168-16v-8-64z"/><path d="m968 832v112h-32v-112z"/><path d="m984 1048v-216h168v32 192h-168z"/><path d="m1152 1056v32h-168v-32z"/><path d="m968 952v-8-112h16v216h-16z"/><path d="m952 1088v-40h16 16v8 32z"/><path d="m968 944h-32z"/><path d="m944 1048h-8z"/><path d="m944 1264h8z"/><path d="m1152 1088v176h-168v-56-32-56-32z"/><path d="m944 1176h8z"/><path d="m952 1176v-56h32v56z"/><path d="m944 1208v-32z"/><path d="m952 1264v-56h32v56z"/><path d="m984 1400h168v8h-184v-8z"/><path d="m984 1336v64h-16v-64z"/><path d="m984 1296v40h-16-16v-40z"/><path d="m1152 1264v48 88h-168v-64-40-32z"/><path d="m944 1264v32z"/><path d="m936 1336h16z"/><path d="m936 832v112 8h-8v-128h8z"/><path d="m896 1400v-32 32 8z"/><path d="m832 1360h32z"/><path d="m768 1360h32z"/><path d="m864 1368h32v32h-32z"/><path d="m800 1368h32v32h-32z"/><path d="m736 1368h32v32h-32z"/><path d="m768 1400h32 32 32 32v8h-64-96v-8z"/><path d="m608 1368h64v8h-64z"/><path d="m864 1368v32-16-24z"/><path d="m736 1368h-64z"/><path d="m864 1360v8z"/><path d="m800 1360v8z"/><path d="m832 1368h-32z"/><path d="m608 1368h-64z"/><path d="m1152 1536h-200-8z"/><path d="m928 1536v-128z"/><path d="m968 1408h184v128h-208-16v-128z"/><path d="m544 1040h-8v-64h8z"/><path d="m536 1120h8v64h-8z"/><path d="m536 1280h8v64h-8z"/><path d="m384 1248h64 64z"/><path d="m384 1248v-32-96 24 64z"/><path d="m0 896h112-16-84-44z"/><path d="m-96 896h32z"/><path d="m-120 848h120-160-32z"/><path d="m-96 944v160z"/><path d="m112 896v16z"/><path d="m-28 992h8z"/><path d="m-28 992h-8z"/><path d="m-84 960v16 16z"/><path d="m-28 960v8h-48v-8z"/><path d="m-20 960h-8z"/><path d="m-76 960h-8z"/><path d="m-28 960v8z"/><path d="m-84 1120h8z"/><path d="m-36 992h8v128h-8z"/><path d="m-76 992h8v128h-8z"/><path d="m-68 992v128z"/><path d="m-28 992v128z"/><path d="m-20 1152v-16-16z"/><path d="m-84 1120v16 16z"/><path d="m-28 1144v8h-48v-8z"/><path d="m-76 1152h48 8-64z"/><path d="m-184 1152h-8-48z"/><path d="m-240 1064h56v88h-56z"/><path d="m-184 1064v56 32z"/><path d="m-456 1032h56 40z"/><path d="m-456 1032h96 16-16-128z"/><path d="m-360 936h-40 144z"/><path d="m-240 848h-64z"/><path d="m-344 1032h-16v-96h104v96z"/><path d="m-240 1064h-16z"/><path d="m-256 1032v32h-88v-32z"/><path d="m-432 1120v-56h88 88 16v88h-192z"/><path d="m64 848h32z"/><path d="m968 1088h-24 8 32z"/><path d="m968 1264h-24 8 32z"/><path d="m984 1208v-32z"/><path d="m944 1088h24v32h-24z"/><path d="m944 1208v-32h24v32z"/><path d="m968 1088v32z"/><path d="m968 1176h-24 8 32z"/><path d="m968 1120h16-32-8z"/><path d="m968 1208h16-32-8z"/><path d="m984 1296v-32z"/><path d="m968 1296h16-32-8z"/><path d="m944 1296v-32h24v32z"/><path d="m768 1384v16-32-8z"/><path d="m832 1384v16-32-8z"/><path d="m832 1360h32v24h-32z"/><path d="m832 1400h32z"/><path d="m800 1384v-24 8 32z"/><path d="m768 1360h32v24h-32z"/><path d="m344 1520h30z"/><path d="m448 1520h-66z"/><path d="m382 1516h-8v4h8z"/><path d="m512 1272h-136z"/><path d="m376 1272h-56z"/><path d="m448 1520v24z"/><path d="m544 1240v-32-24 96z"/><path d="m544 976v-16z"/><path d="m544 952v-8z"/><path d="m512 544h-32z"/><path d="m480 544h-64v-8h64z"/><path d="m512 1024v24 8 32 24z"/><path d="m512 1024v88 40 96-24-56z"/><path d="m512 1152v32 64z"/><path d="m544 1040h-8z"/><path d="m544 1184h-8z"/><path d="m512 1248h-32-64-32z"/><path d="m384 960v-144 112 64z"/><path d="m384 816v-112 64z"/><path d="m64 896h48-112z"/><path d="m192 896h64 32-56-88z"/><path d="m0 848h64-12z"/><path d="m208 848h-156 12 32 20 28 16 32z"/><path d="m52 848h156-160-48z"/><path d="m256 848h-24 8z"/><path d="m192 896v-16z"/><path d="m256 880v16h-64v-16z"/><path d="m256 896v-16z"/><path d="m0 896v-16h64v16z"/><path d="m0 896v-16z"/><path d="m-96 1104v64z"/><path d="m288 896v16z"/><path d="m144 1216v-16z"/><path d="m-32 1216v-16z"/><path d="m64 1216v16z"/><path d="m256 1216v16h-64v-16z"/><path d="m256 1232h-64z"/><path d="m0 1232v-16h64v16z"/><path d="m192 1272h40 144-56-160z"/><path d="m456 1272h56-136z"/><path d="m456 1272h-80-144 56 32 96 32z"/><path d="m-184 1272h80z"/><path d="m40 1272h24-32-104-32z"/><path d="m40 1272h-144-80 80 32 104z"/><path d="m160 1272h-96-24 24z"/><path d="m544 1520v-112 136z"/><path d="m544 1520v-112z"/><path d="m512 1544h-64 32z"/><path d="m512 1296v220 4-24z"/><path d="m512 1272v20z"/><path d="m512 1544v-24z"/><path d="m320 1520h-32-56z"/><path d="m374 1516v4z"/><path d="m382 1516h130-138z"/><path d="m374 1516h8z"/><path d="m382 1516v4z"/><path d="m448 1520h64v-4h-130v4z"/><path d="m512 1520h-64v24h64z"/><path d="m456 1672h56-32-32-88-32z"/><path d="m456 1672h-128-96 216z"/><path d="m448 1540v-16h64v16z"/><path d="m512 1524v16z"/><path d="m448 1540v-16z"/><path d="m448 1524h64z"/><path d="m512 1540h-64z"/><path d="m512 1344v-52-20 56z"/><path d="m512 1292v52 32 32 108-220z"/><path d="m512 1408v-32z"/><path d="m374 1520h2z"/><path d="m448 1520h-72z"/><path d="m512 1516v4h-64-72-2v-4z"/><path d="m232 1544h144 72z"/><path d="m448 1544h-72z"/><path d="m232 1544h-8-88z"/><path d="m136 1544h-8z"/><path d="m-304 544h64z"/><path d="m0 1520h8z"/><path d="m448 1520h-32-40z"/><path d="m448 1520h64z"/><path d="m-584 1144v8z"/><path d="m-328 544v16z"/><path d="m-584 1144h32 64 32z"/><path d="m-608 1280h-72z"/><path d="m-608 1280v-8z"/><path d="m8 1544h-8 16 16z"/><path d="m8 1544h-8z"/><path d="m128 1520h8-16-16z"/><path d="m128 1520h8z"/><path d="m-584 1272v8z"/><path d="m-328 664v-8z"/><path d="m-328 568v-8z"/><path d="m-328 664v8z"/><path d="m-304 568v-8z"/><path d="m-304 744h-24z"/><path d="m-328 664h24z"/><path d="m-304 568h-24z"/><path d="m-304 568h-24v24h24z"/><path d="m-328 840h24z"/><path d="m-456 1512v8z"/><path d="m-456 1512v-8z"/><path d="m-432 1392h-24z"/><path d="m-432 1392v-8z"/><path d="m-456 1512h24z"/><path d="m-608 1152v-8 16 16z"/><path d="m-608 1152v-8z"/><path d="m-584 1152h-24z"/><path d="m-608 1272h24z"/><path d="m-584 1152h-24v24h24z"/><path d="m128 1544v-24z"/><path d="m8 1520v24z"/><path d="m128 1544v-24h-24v24z"/><path d="m8 1520v24h24v-24z"/><path d="m328 1544h-96-96-16-16 88 32z"/><path d="m232 1544h96 48z"/><path d="m136 1544h-8-24 16z"/><path d="m0 1520h8 24-16z"/><path d="m374 1520h2 40z"/><path d="m448 1520h64-64-32z"/><path d="m-584 1144v8 24-16z"/><path d="m-328 672v-32z"/><path d="m-328 560v-16 48z"/><path d="m-328 736v8z"/><path d="m-328 672v16z"/><path d="m-328 848v-8z"/><path d="m-328 848v-8z"/><path d="m-304 736v8z"/><path d="m-304 736v-64z"/><path d="m-344 1056v-16-8 32z"/><path d="m-344 1056v8z"/><path d="m-256 1040v-8z"/><path d="m-256 1040v16 8-32z"/><path d="m-456 1520v-32z"/><path d="m-456 1384v-16-224 112 32z"/><path d="m-456 1384v8z"/><path d="m-432 1504v8z"/><path d="m-432 1520v-8z"/><path d="m-432 1504v-16h-24v16 8h24z"/><path d="m-328 744v-8 32z"/><path d="m-328 840v-24z"/><path d="m-304 840v-8-16z"/><path d="m-456 1392v-8 32z"/><path d="m-432 1392v8 16z"/><path d="m-608 1256v-8z"/><path d="m-584 1256v-8h-24v8 16h24z"/><path d="m-344 1056v8-24z"/><path d="m-256 1040v-8 8 16z"/><path d="m-376 1520h-56 192z"/><path d="m-240 1520h-8-96-32z"/><path d="m16 1520h16 28-36-24z"/><path d="m32 1520h72 16-16-16-56-16z"/><path d="m-584 1160v16 28-4-56z"/><path d="m-584 1256v-8z"/><path d="m-328 640v-16 16 32-8-8z"/><path d="m-328 640v-48 16 16z"/><path d="m-328 816v-16 16 24z"/><path d="m-328 816v-48 16 16z"/><path d="m-304 768v-16-8z"/><path d="m-304 768v48 16-16-48-16z"/><path d="m-304 592v16-16-24z"/><path d="m-304 592v48-16-16z"/><path d="m-328 592v48h24v-48z"/><path d="m-304 640h-24v16 8h24z"/><path d="m-328 768v48h24v-48z"/><path d="m-304 816h-24v24h24z"/><path d="m-328 768h24v-24h-24z"/><path d="m-456 1488v-72 16 8 32z"/><path d="m-456 1488v-16 16 32-8-8z"/><path d="m-432 1416v-16-8z"/><path d="m-432 1488v16 8 8-16z"/><path d="m-432 1520v-32 16z"/><path d="m-432 1488v-72h-24v72z"/><path d="m-456 1416h24v-24h-24z"/><path d="m-608 1256v24-8z"/><path d="m-608 1176v72h24v-72z"/><path d="m104 1520h-72v24h72z"/><path d="m-584 1256v16 8z"/><path d="m-584 1256v-8-16-56-16 16 72z"/><path d="m-608 1256v-8-32 40 24z"/><path d="m512 1544h-32z"/><path d="m360 1544h88-72-48z"/><path d="m360 1544h88z"/><path d="m32 1544h28 4z"/><path d="m64 1544h32 8 16-16-72-16 16z"/><path d="m512 1376v-32z"/><path d="m512 1408v56 56-4z"/><path d="m-432 1520h56z"/><path d="m-344 1520h96z"/><path d="m-216 1520h-24z"/><path d="m-216 1520h112z"/><path d="m-72 1520h-32z"/><path d="m-72 1520h72z"/><path d="m104 1520h56-136 36 28z"/><path d="m232 1520h-40-32-56 16 16z"/><path d="m232 1520h56-96z"/><path d="m320 1520h24 30z"/><path d="m448 1520h64z"/><path d="m-584 1440v-152-8 88 104z"/><path d="m-584 1256v-8 8 24z"/><path d="m-584 1248v8-56 4 28z"/><path d="m-184 1064v56z"/><path d="m-184 1120h-56v32h56z"/><path d="m-216 1520v-56h-24v56z"/><path d="m192 1272h-32z"/><path d="m232 1272h-40z"/><path d="m320 1272h96z"/><path d="m512 1272h-56z"/><path d="m448 1272h-32v56h32z"/><path d="m320 1272h-32v56h32z"/><path d="m192 1272h-32v56h32z"/><path d="m512 1408v-32h-32v32z"/><path d="m-72 1272h-32v56h32z"/><path d="m64 1272h-24-8v56h32z"/><path d="m-184 1272h80z"/><path d="m-344 1032h88z"/><path d="m-328 640v-16-16-16-48 24 96 8z"/><path d="m-328 592v16-16-24-8z"/><path d="m-328 816v-16-16-16-32 104z"/><path d="m-328 768v16-16-24z"/><path d="m-304 840v-24 16z"/><path d="m-304 736v8 8 16z"/><path d="m-304 640v-16 16 24z"/><path d="m-304 672v-32 24z"/><path d="m-304 544v16 8 24z"/><path d="m-256 1032v-96 24 48z"/><path d="m-344 1032v8z"/><path d="m-256 1064v-8z"/><path d="m-330.6667 1056h61.3334v-16h-61.3334z"/><path d="m-334.6667 1064h78.6667v-8h-9.3333-4-61.3334-4z"/><path d="m-334.6667 1040h4 61.3334 4 9.3333v-8h-88v8z"/><path d="m-334.6667 1056v-16h-9.3333v24h9.3333z"/><path d="m-265.3333 1040v16h9.3333v-16z"/><path d="m-265.3333 1056h9.3333-13.3333z"/><path d="m-330.6667 1056h-13.3333 9.3333z"/><path d="m-269.3333 1040h13.3333-9.3333z"/><path d="m-334.6667 1040h-9.3333 13.3333z"/><path d="m-330.6667 1040h-13.3333v16h13.3333z"/><path d="m-265.3333 1040h9.3333v16h-9.3333z"/><path d="m-269.3333 1056h13.3333v-16h-13.3333z"/><path d="m-334.6667 1056h-9.3333v-16h9.3333z"/><path d="m-456 1488v-16 48z"/><path d="m-456 1416v16-16-24z"/><path d="m-456 1144v112z"/><path d="m-456 1432v-16-32-96 152z"/><path d="m-432 1152v-32z"/><path d="m-432 1296v-32-112z"/><path d="m-432 1384v8z"/><path d="m-432 1416v-16 16 72 16-16z"/><path d="m-432 1392v24 72 32z"/><path d="m-584 1280v8h32v-32h-32z"/><path d="m-584 1440v32h32v-32z"/><path d="m-608 1176v28 28z"/><path d="m-608 1232v16 8-8-72-16 16z"/><path d="m0 1672v-32-64-32z"/><path d="m480 1672h32z"/><path d="m360 1672h88z"/><path d="m328 1672h-96z"/><path d="m96 1672h96z"/><path d="m224 1672h8z"/><path d="m0 1672h64z"/><path d="m480 1544h-32v32h32z"/><path d="m328 1672h32v-32h-32z"/><path d="m192 1672h32v-32h-32z"/><path d="m64 1672h32v-32h-32z"/><path d="m544 1672v-8z"/><path d="m512 824v8z"/><path d="m544 1552v-8z"/><path d="m544 832v24-16z"/><path d="m544 832v-8z"/><path d="m512 832v-8 16 16z"/><path d="m512 944v-24 16z"/><path d="m512 944v8z"/><path d="m544 944h-32z"/><path d="m512 832h32z"/><path d="m352 696v8z"/><path d="m352 1000v8 16z"/><path d="m352 1112v-24 16z"/><path d="m352 1112v8z"/><path d="m352 1112h32z"/><path d="m384 1000v-8z"/><path d="m384 696v8z"/><path d="m384 584v-8z"/><path d="m352 1000h32z"/><path d="m384 584h-32z"/><path d="m352 696h32z"/><path d="m384 1000h-32v24h32z"/><path d="m352 1112h32v-24h-32z"/><path d="m512 1664v8z"/><path d="m512 1664v-24-16 16z"/><path d="m544 1664h-32z"/><path d="m512 1552h32z"/><path d="m512 1664h32v-24h-32z"/><path d="m544 1552h-32v24h32z"/><path d="m60 1520h-28 56z"/><path d="m-584 1204v-28 56z"/><path d="m544 1544v-24z"/><path d="m-704 568v-24 64z"/><path d="m328 1544h-104z"/><path d="m0 1544h56 4-28-16z"/><path d="m64 1544h-4-4z"/><path d="m96 1544h96-88z"/><path d="m384 544h32z"/><path d="m352 544h-120 24z"/><path d="m-360 544h32-72-80z"/><path d="m512 952v8z"/><path d="m-680 1032v224-24z"/><path d="m-680 808v208 16-24-48-72z"/><path d="m-584 1520v-48z"/><path d="m-584 1288v152z"/><path d="m352 576v8z"/><path d="m352 592v-8z"/><path d="m352 816v32z"/><path d="m352 1120v96z"/><path d="m384 992v-32z"/><path d="m384 576v-32z"/><path d="m352 592v16h32v-24h-32z"/><path d="m384 1120v-8z"/><path d="m-488 936h88-40z"/><path d="m-336 840h-104-8v8h120v-8z"/><path d="m-488 712v-24-24h-24v48 176h24z"/><path d="m-512 888v48h24v-48z"/><path d="m-440 744v-8h-8v104h8z"/><path d="m-336 736h-104v8h104z"/><path d="m-328 736h-8v8 96h8z"/><path d="m-328 672v-8h-24-136v24h160z"/><path d="m-360 544h-120-104v24h224z"/><path d="m-352 568h24v-24h-32v24z"/><path d="m-328 568h-24v96h24z"/><path d="m-488 664h136-160z"/><path d="m-440 744v96z"/><path d="m-336 840v-96z"/><path d="m-440 840h104z"/><path d="m-336 744h-104z"/><path d="m-512 664v48z"/><path d="m-448 840v-104 112z"/><path d="m-448 736h8 104 8z"/><path d="m-488 712v176 48-24z"/><path d="m-256 960h-24v48h24z"/><path d="m-360 1008h-224v24h96 128z"/><path d="m-344 1032h88v-24h-24-80v24z"/><path d="m-280 960h24v-24h-144-88v24z"/><path d="m-512 936v24h24v-24z"/><path d="m-280 1008h-64-16z"/><path d="m-456 1288h-16-16v152h16 16z"/><path d="m-584 1440h32-16z"/><path d="m-456 1472h-32 16z"/><path d="m-584 568h16z"/><path d="m-608 1280v-24h-24-48v24z"/><path d="m-608 1216v-16-56-112h-24v224h24z"/><path d="m-584 1008h-48v24h24 24z"/><path d="m-584 544h-96v24h96z"/><path d="m-584 568h-96z"/><path d="m-632 1008v24z"/><path d="m-608 1144v56 4-28-16z"/><path d="m-608 1216v32-16-28-4z"/><path d="m-680 1280h-24z"/><path d="m-680 544h-24v24h24z"/><path d="m-680 568h-24v40 184h24z"/><path d="m-704 792v40 184h24v-208-16z"/><path d="m-704 1016v40 200h24v-224-16z"/><path d="m-680 1256h-24v24h24z"/><path d="m232 1672h96v-32h-104v32z"/><path d="m448 1672v-32 16z"/><path d="m480 1544v32-16z"/><path d="m96 1544v32-16z"/><path d="m64 1672v-32 16z"/><path d="m-104 1464v56h32v-56z"/><path d="m160 1464v56h32v-56z"/><path d="m288 1464v56h32v-56z"/><path d="m416 1464v56h32v-56z"/><path d="m-216 1464h-24z"/><path d="m-376 1120h-56v32h56z"/><path d="m-376 1264h-56v32h56z"/><path d="m-240 1464h-8v56h8z"/><path d="m-376 1464v56h32v-56z"/><path d="m544 832v8 16 8-40z"/><path d="m512 944v-8-16-24 56z"/><path d="m352 696v-8 16 112-112z"/><path d="m384 1000v24-32z"/><path d="m512 1664v-24 16 16z"/><path d="m512 1552v-8 16 16z"/><path d="m544 1576v64-16-32z"/><path d="m544 1576v16-16-24z"/><path d="m232 544h24z"/><path d="m232 544h-8z"/><path d="m512 920v-64-16 16 8 32 24 16z"/><path d="m544 856h-32v64h32z"/><path d="m512 856h32v-24h-32z"/><path d="m544 920h-32v24h32z"/><path d="m352 544v64-16-16z"/><path d="m352 672v-64-16 16 64 16z"/><path d="m352 688v-16 32z"/><path d="m352 816v-112 96z"/><path d="m352 608v-16-8-8 16z"/><path d="m352 672v16 8z"/><path d="m352 1088v-64-16 16 64 16z"/><path d="m352 1104v-16 24z"/><path d="m384 1024v16-16-24z"/><path d="m384 1024v64-16-32z"/><path d="m384 608v-16-8z"/><path d="m384 704v-16 8 8 112z"/><path d="m384 576v-32 32 8 8z"/><path d="m384 688v-16-16 16 24z"/><path d="m384 576v16 16z"/><path d="m384 608h-32v64h32z"/><path d="m384 672h-32v24h32z"/><path d="m384 1024h-32v64h32z"/><path d="m512 1576v-24 24 16z"/><path d="m512 1640v-64 16 32z"/><path d="m544 1576h-32v64h32z"/><path d="m968 832v-8z"/><path d="m968 832h-32z"/><path d="m968 944v-24h-32v24z"/><path d="m544 1640v-16 16 24 8z"/><path d="m544 1672v-32z"/><path d="m544 1520v24 8 24z"/><path d="m544 920v24z"/><path d="m544 864v-8-16 16 64z"/><path d="m352 544h-96z"/><path d="m512 736v-96 64z"/><path d="m512 736v32z"/><path d="m512 864v-8z"/><path d="m512 896v24z"/><path d="m512 992v32z"/><path d="m512 1112v8 32z"/><path d="m512 1344v-16z"/><path d="m-680 664v-96 224 16z"/><path d="m-160 544h-32v32h32z"/><path d="m352 544v64 32z"/><path d="m-240 1064v40z"/><path d="m-240 1152v-32z"/><path d="m352 704v-32-64-64 96z"/><path d="m352 1088v-64-32 120z"/><path d="m352 992v32-16-8z"/><path d="m352 1112v8z"/><path d="m384 1088v-16 16 24z"/><path d="m384 1112v-24z"/><path d="m384 992v32 16 32 16 24-24-32z"/><path d="m384 704v-32 16z"/><path d="m384 608v-16 16 64-16z"/><path d="m384 544v32z"/><path d="m512 640v-32h-32v32z"/><path d="m512 768v-32h-32v32z"/><path d="m512 896v-32h-32v32z"/><path d="m-192 848h-48z"/><path d="m0 848h-16-144z"/><path d="m232 848h24v-32h-32v32z"/><path d="m-160 848v-32h-32v32z"/><path d="m-184 1152h-56z"/><path d="m-184 1064h-56v40 16h56z"/><path d="m-184 1064h-56z"/><path d="m-240 1120h56z"/><path d="m-184 1248v-96h-56v96z"/><path d="m448 1464h64-80z"/><path d="m432 1464h-16 32z"/><path d="m288 1464h32z"/><path d="m160 1464h32z"/><path d="m-104 1464h32z"/><path d="m160 1520v-56z"/><path d="m320 1464v56z"/><path d="m416 1520v-56z"/><path d="m448 1464v56z"/><path d="m512 1464h-64v56h64z"/><path d="m416 1464h-96v56h54 42z"/><path d="m288 1520v-56z"/><path d="m192 1464v56z"/><path d="m288 1520v-56h-80-16v56z"/><path d="m-72 1464v56z"/><path d="m0 1520h24 136v-56h-176-56v56z"/><path d="m-104 1520v-56z"/><path d="m-216 1464v56z"/><path d="m-104 1464h-112v56h112z"/><path d="m160 1328v-56z"/><path d="m384 1328h-64-32-96-32 48z"/><path d="m448 1328h-32z"/><path d="m320 1328h-32z"/><path d="m192 1328h-32z"/><path d="m288 1328v-56h-56-40v56z"/><path d="m416 1272h-96v56h64 32z"/><path d="m512 1272h-64v56h64z"/><path d="m288 1272h-56z"/><path d="m512 1272h-56-8z"/><path d="m320 1272v56z"/><path d="m416 1328v-56z"/><path d="m448 1272v56z"/><path d="m288 1328v-56z"/><path d="m192 1272v56z"/><path d="m-16 1328h48v-56h-104v56z"/><path d="m160 1272h-96v56h96z"/><path d="m-240 1272h56v-24h-56z"/><path d="m-184 1272h-56v56h136v-56z"/><path d="m-16 1328h-56-32-136z"/><path d="m160 1328h-96-32-48z"/><path d="m-184 1248v24z"/><path d="m-72 1328h-32z"/><path d="m64 1328h-32z"/><path d="m32 1328v-56z"/><path d="m64 1272v56z"/><path d="m160 1272h-96z"/><path d="m-72 1272v56z"/><path d="m32 1272h-104z"/><path d="m-104 1328v-56z"/><path d="m-352 664v-96z"/><path d="m-352 568h-8-224 16z"/><path d="m-512 664h160v-96h-216v96z"/><path d="m-440 744v96h104v-96z"/><path d="m-512 712v176 48-48z"/><path d="m-512 712v-48h-56v224h56z"/><path d="m-568 888v48h56v-48z"/><path d="m-280 1008v-48z"/><path d="m-344 960h64-208-24z"/><path d="m-512 936v24z"/><path d="m-568 936v24h56v-24z"/><path d="m-360 1008h-208-16z"/><path d="m-344 960h-168-56v48h208 16z"/><path d="m-280 1008v-48h-64v48z"/><path d="m-432 1064h56 32z"/><path d="m-256 1064h-88-32 136z"/><path d="m-344 1064h88-78.6667z"/><path d="m-248 1464h-96v56h96z"/><path d="m-376 1464v-168h-56v96 128h56z"/><path d="m-432 1152v112h56v-24-88z"/><path d="m-376 1064h-56v56h56z"/><path d="m-376 1240v24 32 168z"/><path d="m-376 1152h-56z"/><path d="m-432 1064v56z"/><path d="m-376 1120v32z"/><path d="m-432 1120h56z"/><path d="m-376 1296h-56z"/><path d="m-376 1264v32z"/><path d="m-432 1264v-112z"/><path d="m-432 1264h56z"/><path d="m-432 1296v88 8z"/><path d="m-344 1464v56z"/><path d="m-240 1464h-8z"/><path d="m-248 1520v-56z"/><path d="m-376 1520v-56z"/><path d="m-376 1464h32z"/><path d="m-472 1472h-16v48h32v-48z"/><path d="m-472 1288h16-32z"/><path d="m-552 1288h-32 16z"/><path d="m-488 1288h-64-16 16 64 16z"/><path d="m-552 1256h16-16-32z"/><path d="m-552 1256h64-16-32z"/><path d="m-552 1256v32h64v-32z"/><path d="m-488 1288h32v-32h-32z"/><path d="m-488 1440h32-16z"/><path d="m-552 1440v32h64v-32z"/><path d="m-488 1472h-64-16 16 64 16z"/><path d="m-552 1472h-32 16z"/><path d="m-488 1472h32v-32h-32z"/><path d="m-568 1008h-16z"/><path d="m-568 960h-16v48h16z"/><path d="m-568 664h-16v224h16z"/><path d="m-584 888v72h16v-24-48z"/><path d="m-568 568h-16v96h16z"/><path d="m-584 1008h-48z"/><path d="m-584 960h-96v48h48 48z"/><path d="m-584 664h-96v144 80h96z"/><path d="m-680 888v72h96v-72z"/><path d="m-584 568h-96v96h96z"/><path d="m-680 1256h48z"/><path d="m-632 1032v200 24z"/><path d="m-632 1032v-24h-48v24 200h48z"/><path d="m-680 1232v24h48v-24z"/><path d="m64 1656v-16h-64v32h64z"/><path d="m192 1656v-16h-96v16 16h96z"/><path d="m448 1656v-16h-88v16 16h88z"/><path d="m512 1656v-16h-32v16 16h32z"/><path d="m96 1560v16h96v-16-16h-96z"/><path d="m360 1560v16h88v-16-16h-88z"/><path d="m512 1560v-16h-32v16 16h32z"/><path d="m224 1576v64-16-32z"/><path d="m224 1576v16-16-32z"/><path d="m360 1576v64 16-16-64-16z"/><path d="m360 1640v32-16z"/><path d="m360 1560v-16 32z"/><path d="m480 1576h-32v64h32z"/><path d="m480 1576v64 16-16-64-16z"/><path d="m448 1576v-32 16z"/><path d="m480 1656v-16 32z"/><path d="m480 1640h-32v32h32z"/><path d="m328 1640v-16 16 32z"/><path d="m328 1640v-64 16 32z"/><path d="m360 1576h-32v64h32z"/><path d="m360 1576v-32h-32v32z"/><path d="m96 1640v32-16z"/><path d="m96 1576v64 16-16-64-16z"/><path d="m224 1576h-32v64h32z"/><path d="m192 1576v-32 16z"/><path d="m192 1656v16-32z"/><path d="m224 1576v-32h-32v32z"/><path d="m96 1576h-32v64h32z"/><path d="m64 1576v-32 16z"/><path d="m96 1576v-32h-32v32z"/><path d="m544 864v-8z"/><path d="m936 944v-24z"/><path d="m512 1408v56z"/><path d="m512 1408h-32z"/><path d="m480 1408v-32 2.5263z"/><path d="m704 760h96 136-104z"/><path d="m936 856v-24 8z"/><path d="m936 856v-16 16 64z"/><path d="m936 760v64z"/><path d="m968 856v16-16-24z"/><path d="m968 856v64-16-32z"/><path d="m968 920v-64h-32v64z"/><path d="m968 856v-24h-32v24z"/><path d="m-76 960v8h48v-8z"/><path d="m-76 960v8z"/><path d="m-76 968h48z"/><path d="m-28 1152h8z"/><path d="m-28 1144h-48v8h48z"/><path d="m-28 1144v8z"/><path d="m-76 1152v-8z"/><path d="m-76 1144h48z"/><path d="m544 1344v-64z"/><path d="m544 960v-8z"/><path d="m936 920v24z"/><path d="m936 832v24-16z"/><path d="m936 856v-24 88z"/><path d="m968 920v-16 16 24z"/><path d="m968 944v-24z"/><path d="m968 856v-24z"/><path d="m608 1376v-8z"/><path d="m672 1368v8z"/><path d="m672 1368h-64v8h64z"/><path d="m672 1368h-40-24z"/><path d="m672 1376h-64z"/><path d="m512 1376v-32-16 80z"/><path d="m536 1120h8z"/><path d="m544 976h-8v64h8z"/><path d="m536 976h8z"/><path d="m536 1040v-64z"/><path d="m536 1184h8v-64h-8z"/><path d="m536 1184v-64z"/><path d="m536 1344h8v-64h-8z"/><path d="m536 1280h8z"/><path d="m544 1344h-8z"/><path d="m536 1344v-64z"/><path d="m-488 1520h-64-32 128z"/><path d="m-552 1256v-112h-32v56 56z"/><path d="m-552 1288h-16-16v152h16 16z"/><path d="m-552 1520v-48h-16-16v48z"/><path d="m-240 1064v40z"/><path d="m-240 1104v224-56-24-96-32z"/><path d="m-76 992h8z"/><path d="m-68 1120h-8-8 8z"/><path d="m-28 1120h-8z"/><path d="m-68 992h-8v128h8z"/><path d="m-28 992h-8v128h8z"/><path d="m-76 992v128z"/><path d="m-36 992v128z"/><path d="m480 1408v-29.4737-2.5263h32v32z"/><path d="m512 1464h-80z"/><path d="m-16 1328h-224z"/><path d="m208 1328h-48-176z"/><path d="m432 1328h-48-176z"/><path d="m-16 1464h-224 24 112 32z"/><path d="m208 1464h-224 176 32z"/><path d="m432 1464h-224 80 32 96z"/><path d="m480 1408v-29.4737z"/><path d="m512 1408h-32z"/><path d="m432 1328h80-64-32-32z"/><path d="m480 1376h32z"/><path d="m-536 1256h32 16v-112h-64v112z"/><path d="m-488 1288h-64v152h64z"/><path d="m-488 1520v-48h-64v48z"/><path d="m-376 1240v224-176z"/><path d="m-240 1464h-136 32 96z"/><path d="m-376 1064v56 32 88z"/><path d="m-488 1144v112h32v-112z"/><path d="m-488 1256h-16 16 32z"/><path d="m-552 1440h-16 16 64 16-16z"/><path d="m0 1576h64v-16-16h-8-56z"/><path d="m328 1576v-32h-104v32z"/><path d="m512 1576h-32v64h32z"/><path d="m448 1576h-88v64h88z"/><path d="m328 1640v-16-32-16h-104v16 32 16z"/><path d="m192 1576h-96v64h96z"/><path d="m64 1576h-64v64h64z"/><path d="m512 1640v16-16-16-32-16-16 16z"/><path d="m224 1640v-16 16 32z"/><path d="m448 1640v16-16-64-16 16z"/><path d="m328 1576v16-16-32z"/><path d="m192 1640v16-16-64-16 16z"/><path d="m64 1640v16-16-64-16 16z"/><path d="m936 824v8z"/><path d="m936 944v-24-88-8 96 32z"/><path d="m968 824v-64z"/><path d="m968 832v24 16 32 16 24z"/><path d="m968 952v-8z"/><path d="m968 944v8z"/><path d="m480 544h32z"/><path d="m416 544h64z"/><path d="m416 536v8h64v-8z"/><path d="m416 544v-8z"/><path d="m480 544v-8z"/><path d="m416 536h64z"/><path d="m256 576v-32h-24-8v32z"/><path d="m384 896v-64-16 144z"/><path d="m480 1024h32z"/><path d="m480 992v32h32v-32z"/><path d="m384 1216v-96z"/><path d="m384 1120v-8z"/><path d="m480 1152h32z"/><path d="m480 1120v32h32v-32z"/><path d="m112 896h-48z"/><path d="m192 896h-48z"/><path d="m64 896h-64 112z"/><path d="m288 896h-32z"/><path d="m64 880h-64z"/><path d="m256 880h-64z"/><path d="m48 848h-48z"/><path d="m208 848h-160z"/><path d="m224 816v32z"/><path d="m256 816h-32z"/><path d="m-160 816h-32z"/><path d="m256 896v-16h-64v16z"/><path d="m64 880h-64v16h64z"/><path d="m64 896v-16z"/><path d="m192 1216h64 32-144z"/><path d="m256 1216h32z"/><path d="m64 1216h48-112z"/><path d="m144 1216h48z"/><path d="m64 1216h48z"/><path d="m0 1216h-32z"/><path d="m-84 992h8z"/><path d="m-20 992v-16-16z"/><path d="m-76 960h48z"/><path d="m-84 1120h8z"/><path d="m-20 1120h-8z"/><path d="m-76 1120h48 8-64z"/><path d="m-76 992h48v128h-48z"/><path d="m-28 992v128z"/><path d="m-84 1152h8z"/><path d="m-28 1152h-48z"/><path d="m256 1232v-16h-64v16z"/><path d="m192 1216v16z"/><path d="m256 1216v16z"/><path d="m64 1216h-64v16h64z"/><path d="m0 1232v-16z"/><path d="m0 1232h64z"/><path d="m544 1240v-32z"/><path d="m544 1208v-24z"/><path d="m544 1080v-32-8z"/><path d="m544 1040v-80 16z"/><path d="m544 952v-32 24z"/><path d="m832 760h104-136z"/><path d="m800 760h-96z"/><path d="m672 760v56 32z"/><path d="m704 760h-32v88h32z"/><path d="m544 864v56z"/><path d="m544 864v56-96z"/><path d="m936 824v24 72z"/><path d="m968 1088h16z"/><path d="m968 1048v-96z"/><path d="m944 1048h8z"/><path d="m944 1048h8 16-16z"/><path d="m968 1264h16z"/><path d="m968 1088h-24v32h24z"/><path d="m968 1176h-24v32h24z"/><path d="m944 1088v24 8z"/><path d="m968 1176h16z"/><path d="m984 1120h-16z"/><path d="m984 1208h-16z"/><path d="m968 1208v-32z"/><path d="m984 1296h-16z"/><path d="m968 1264h-24v32h24z"/><path d="m968 1296v-32z"/><path d="m936 952h-72z"/><path d="m768 1400v-16z"/><path d="m832 1400v-16z"/><path d="m864 1384v16z"/><path d="m864 1384v16-32-8z"/><path d="m832 1384h32z"/><path d="m864 1360h-32v24h32z"/><path d="m800 1384v16z"/><path d="m768 1384h32z"/><path d="m800 1360h-32v24h32z"/><path d="m800 1400h-32z"/><path d="m-16 544h-144-32-48 64z"/><path d="m208 544h-144-80 64z"/><path d="m208 544h16-16-16-64-64z"/><path d="m512 704v32z"/><path d="m512 824v40-8-16z"/><path d="m512 960v32z"/><path d="m512 1112v-24z"/><path d="m512 1112v8z"/><path d="m512 1184v32 32z"/><path d="m-160 576h-32v-32h32z"/><path d="m256 544v32h-32v-32z"/><path d="m-160 544v32z"/><path d="m224 576v-32z"/><path d="m256 544v32z"/><path d="m256 576h-32z"/><path d="m-192 576v-32z"/><path d="m-160 576h-32z"/><path d="m480 640v-32h32v32z"/><path d="m480 608h32z"/><path d="m480 640v-32z"/><path d="m512 640h-32z"/><path d="m480 768v-32h32v32z"/><path d="m512 768h-32z"/><path d="m480 768v-32z"/><path d="m480 736h32z"/><path d="m480 896v-32h32v32z"/><path d="m512 896h-32z"/><path d="m480 896v-32z"/><path d="m480 864h32z"/><path d="m480 1024v-32h32v32z"/><path d="m480 1024v-32z"/><path d="m512 992h-32z"/><path d="m480 1152v-32z"/><path d="m480 1152v-32h32v32z"/><path d="m512 1120h-32z"/><path d="m-32 896h32z"/><path d="m320 896h32z"/><path d="m0 848h48-64z"/><path d="m224 848h-16z"/><path d="m224 848h32-48z"/><path d="m-160 848h-32v-32h32z"/><path d="m256 816v32h-32v-32z"/><path d="m256 848v-32z"/><path d="m-160 816v32z"/><path d="m-192 848v-32z"/><path d="m-20 992h-8-48-8z"/><path d="m-84 960h8 48 8z"/><path d="m-20 960v16h-64v-16z"/><path d="m-20 1120v16h-64v-16z"/><path d="m-20 1152h-8-48-8z"/><path d="m288 912v-16 96z"/><path d="m320 912v-16z"/><path d="m288 912h32z"/><path d="m320 912h-32v80h32z"/><path d="m144 912v-16z"/><path d="m112 912v-16 96z"/><path d="m112 912h32z"/><path d="m144 912h-32v80h32z"/><path d="m288 1200v16z"/><path d="m288 1200v-80z"/><path d="m144 1200v16-96z"/><path d="m112 1200v16z"/><path d="m144 1200h-32z"/><path d="m-32 912h-32v80h32z"/><path d="m-64 912v-16 96z"/><path d="m-32 912v-16z"/><path d="m-64 912h32z"/><path d="m-64 1200v16z"/><path d="m-20 1136v16h-64v-16z"/><path d="m-20 976v16h-64v-16z"/><path d="m544 1632v-112 56 16 32 16 32z"/><path d="m672 1672h-88-40z"/><path d="m696 1408h40z"/><path d="m920 1408h32 16-40-32z"/><path d="m952 1336h16z"/><path d="m968 1336h-16-16 16z"/><path d="m896 1408h-160-40v128h24 200v-128z"/><path d="m920 1536h24 8v-128h-32z"/><path d="m696 1560 24-24h-24z"/><path d="m696 1536v-128h-152v112 112h80l48-48 24-24z"/><path d="m544 1632v40h40l40-40z"/><path d="m624 1632-40 40h88v-88z"/><path d="m952 1536h200z"/><path d="m672 1584v88-40z"/><path d="m944 1536h-24-200 40 168z"/><path d="m968 760h184z"/><path d="m1152 1312v88 8 128-128-8z"/><path d="m1152 1088v176 48-48z"/><path d="m1152 864v80 144-32z"/><path d="m736 1408h160z"/><path d="m968 1408h-16z"/><path d="m968 1088h-16-8 24 16z"/><path d="m968 824v8 112z"/><path d="m1152 864v-104h-184v64 120h16 168z"/><path d="m1152 944h-168v104 40h168z"/><path d="m968 952v96h16v-104h-16z"/><path d="m984 1088v-40h-16v40z"/><path d="m968 1048h-16z"/><path d="m968 1048h-16v40h16z"/><path d="m952 1264h-8 24 16z"/><path d="m984 1088v32z"/><path d="m984 1088v32 56 32 56h168v-176z"/><path d="m952 1176h-8 24 16z"/><path d="m952 1120h32-16-24z"/><path d="m984 1176v-56h-32v56z"/><path d="m952 1208h32-16-24z"/><path d="m944 1176v32z"/><path d="m984 1264v-56h-32v56z"/><path d="m984 1264v32 104h168v-88-48z"/><path d="m984 1408h168v-8h-168z"/><path d="m952 1296h16 16-16-24z"/><path d="m944 1264v32z"/><path d="m968 1400v-64 64 8z"/><path d="m984 1296h-16v40 64h16z"/><path d="m968 1408h16v-8h-16z"/><path d="m952 1336h-16z"/><path d="m952 1296v40h16v-40z"/><path d="m832 1360h32z"/><path d="m768 1360h32z"/><path d="m736 1400v-32 32 8z"/><path d="m896 1408v-8h-32-32-32-32-32v8z"/><path d="m768 1368h-32v32h32z"/><path d="m832 1368h-32v32h32z"/><path d="m896 1368h-32v32h32z"/><path d="m800 1360v8z"/><path d="m832 1368v-8z"/><path d="m864 1360v8z"/><path d="m864 1368h32z"/><path d="m800 1368h32z"/><path d="m768 1368v-8z"/><path d="m736 1368h32z"/><path d="m768 1368v32-16-24z"/><path d="m832 1368v32-16-24z"/><path d="m800 1368v-8 24 16z"/><path d="m952 1408v128z"/><path d="m984 1408h-16-16v128h200v-128z"/><path d="m384 608v-32z"/><path d="m864 920v32h72v-32z"/><path d="m832 848v-88h-32v88z"/><path d="m632 920h-88z"/><path d="m632 952v-32h-88v32z"/><path d="m632 1048h-88z"/><path d="m632 1080v-32h-88v32z"/><path d="m632 1208h-88z"/><path d="m632 1240v-32h-88v32z"/><path d="m512 544v32 32z"/><path d="m512 704v-64-32z"/><path d="m512 736v64 32 96 32-8-56-32-40-56z"/><path d="m512 1048v-24-32z"/><path d="m512 992v-32 88z"/><path d="m512 1056v-8z"/><path d="m512 1056v32z"/><path d="m512 1184v-32-32z"/><path d="m512 608v-32h-32v32z"/><path d="m512 736v-32h-32v32z"/><path d="m512 800h-32v32h32z"/><path d="m512 1088v-32h-32v32z"/><path d="m384 576v-32z"/><path d="m-240 1104v184 40z"/><path d="m384 992v64-96z"/><path d="m384 1088v24z"/><path d="m384 960v-32-32z"/><path d="m384 832v-16z"/><path d="m384 736v64z"/><path d="m384 800v-64-32 112z"/><path d="m384 704v-64-32 48 16z"/><path d="m384 928v32h32v-32z"/><path d="m384 1248v-32z"/><path d="m288 1120v80h32v-80z"/><path d="m112 1120v80h32v-80z"/><path d="m-64 1120v80z"/><path d="m-32 1120h-32v80h32z"/><path d="m-16 1464h-224z"/><path d="m208 1464h-224z"/><path d="m432 1464h-224z"/><path d="m512 1328h-80z"/><path d="m-16 1328h-224v136h224z"/><path d="m208 1328h-224v136h224z"/><path d="m432 1328h-224v136h224z"/><path d="m512 1464v-56-80h-80v136z"/><path d="m-240 1464h-136z"/><path d="m-376 1064v176z"/><path d="m-240 1104v-40h-136v176 48h136z"/><path d="m-376 1288v176h136v-136-40z"/><path d="m544 1368v-24z"/><path d="m544 1184v-64z"/><path d="m544 1240v40z"/><path d="m544 1112v-32z"/><path d="m544 1048v-8z"/><path d="m544 816v-56 64z"/><path d="m832 760h104z"/><path d="m544 760h128z"/><path d="m944 1088h8v-40h-8-8v40z"/><path d="m832 760v88h32 72v-24-64z"/><path d="m936 848h-72v72h72z"/><path d="m704 848h96v-88h-96z"/><path d="m936 1088h-72v24h72 8v-24z"/><path d="m864 952v104 32h72v-40-96z"/><path d="m544 760v56h88 40v-56z"/><path d="m632 848h40v-32h-40z"/><path d="m632 848v-32h-88v8 96h88z"/><path d="m632 952h-88v8 80 8h88z"/><path d="m632 1080h-88v32 8 64 24h88z"/><path d="m936 1120h8v-8h-8z"/><path d="m944 1176h8v-56h-8-8v56z"/><path d="m936 1176v32h8v-32z"/><path d="m944 1208h-8v56h8 8v-56z"/><path d="m944 1264h-8v32h8z"/><path d="m944 1296h-8v40h16v-40z"/><path d="m936 1296v-32-56-32-56-8h-72v168 56h72z"/><path d="m864 1336v24 8h32 40v-32z"/><path d="m800 1360h32 32v-24-56h-96v80z"/><path d="m800 1360v8h32v-8z"/><path d="m672 1368h64 32v-8-80h-136v88z"/><path d="m632 1280v-40h-88v40 64 24h64 24z"/><path d="m768 1280h96-232z"/><path d="m864 952v-32-72 208z"/><path d="m632 1056v24 128 32 40z"/><path d="m952 1088h-8z"/><path d="m936 1048h8z"/><path d="m952 1048v40z"/><path d="m952 1264h-8z"/><path d="m952 1176h-8z"/><path d="m944 1120h8z"/><path d="m952 1120v56z"/><path d="m944 1208h8z"/><path d="m952 1208v56z"/><path d="m944 1296h8z"/><path d="m952 1296v40z"/><path d="m544 1080h88z"/><path d="m704 760v88z"/><path d="m832 760v88z"/><path d="m936 920h-72z"/><path d="m864 952v-32z"/><path d="m800 848v-88z"/><path d="m832 848h-32z"/><path d="m704 848h-32z"/><path d="m632 920v32z"/><path d="m632 1056v-8 32z"/><path d="m544 952h88z"/><path d="m936 1368h-40z"/><path d="m544 1240h88z"/><path d="m632 1208v32z"/><path d="m512 1184v-64-8-24h-32v128h32z"/><path d="m512 1048v-88h-32v96h32z"/><path d="m512 800v-64h-32v64z"/><path d="m512 704v-96h-32v96z"/><path d="m512 576v-32h-32v32z"/><path d="m272 544h80-96-32-16z"/><path d="m512 544v32z"/><path d="m512 736v64z"/><path d="m512 832v96z"/><path d="m512 1184v32z"/><path d="m384 544v32h32v-32z"/><path d="m384 640v-32z"/><path d="m384 608v32l32 32v-64z"/><path d="m-304 640v-96z"/><path d="m48 608h-224z"/><path d="m48 544h-64-160v64h224z"/><path d="m272 544h-64-160v64h224z"/><path d="m288 608h64v-64h-80v64z"/><path d="m288 608v48-16z"/><path d="m352 608h-64v32h64z"/><path d="m-176 608v-64h-64v96h64z"/><path d="m-240 544h-64v96h64z"/><path d="m352 896v96z"/><path d="m384 640v64h32v-32z"/><path d="m384 896v32z"/><path d="m384 832v64z"/><path d="m288 896h-32-64-48z"/><path d="m-16 848h-224 48 32z"/><path d="m352 848h-96 32z"/><path d="m208 800h80-240z"/><path d="m-176 640v160-64-64-16z"/><path d="m288 640v160h64v-96-64z"/><path d="m96 736h-224 176z"/><path d="m224 672h-128z"/><path d="m96 672h-224v64h224z"/><path d="m224 736v-64h-128v64z"/><path d="m-240 640v160h64v-160z"/><path d="m-16 800h-160-64v48h224z"/><path d="m208 800h-160-64v48h64 160z"/><path d="m256 848h96v-32-16h-64-80v48z"/><path d="m-96 1216v-96-16 64z"/><path d="m-96 896v32 16 160z"/><path d="m352 1216h-32z"/><path d="m-64 1216h-32z"/><path d="m0 1216h112v-96h-144v80 16z"/><path d="m-64 992v-96h-32v208 16h32z"/><path d="m-96 1120v96h32v-16-80z"/><path d="m112 992v-96h-112-32v96z"/><path d="m288 1216v-16-80h-128-16v96z"/><path d="m352 1112v-120-96h-32v96 128h32z"/><path d="m320 1120v80 16h32v-96z"/><path d="m160 992h128v-96h-144v96z"/><path d="m320 992v128z"/><path d="m288 1120h32-160z"/><path d="m160 992h-16-32-144-32z"/><path d="m320 992h-32z"/><path d="m320 896v16 80z"/><path d="m144 896v16 80z"/><path d="m144 992h-32z"/><path d="m288 1120h32z"/><path d="m320 1200v-80z"/><path d="m320 1216v-16z"/><path d="m112 1120h32z"/><path d="m112 1216v-16-80z"/><path d="m-32 1120v80z"/><path d="m-64 1120h32z"/><path d="m-32 992h-32z"/><path d="m-32 896v16 80z"/><path d="m-304 640v32 64 104 8h64v-48-160z"/><path d="m-304 848v-8z"/><path d="m-304 840v-104 32 48z"/><path d="m-304 672v-32-96 48 16 16 16z"/><path d="m864 848h-32-32-96-32-40z"/><path d="m864 1280h-232z"/><path d="m864 848v208z"/><path d="m864 1056v224-168-24z"/><path d="m632 848v72 32 96 8z"/><path d="m632 1056v224-208z"/><path d="m480 960h32v-32h-32z"/><path d="m480 1216v32h32v-32z"/><path d="m480 704h-16z"/><path d="m480 576h-16z"/><path d="m480 800h-16z"/><path d="m480 736h-16z"/><path d="m480 1056h-16z"/><path d="m480 928h-16z"/><path d="m480 1088h-16z"/><path d="m480 608h-64 16 32z"/><path d="m480 576h-16-32-16z"/><path d="m416 576h16-16-32z"/><path d="m480 576h-64v32h64z"/><path d="m416 608v-32h-32v32z"/><path d="m-176 608v32 16z"/><path d="m288 608h-16-224z"/><path d="m48 608h-224v48h224z"/><path d="m288 656v-48h-240v48z"/><path d="m400 1056h16v-96h-32v96z"/><path d="m480 832h-64 16 32z"/><path d="m416 704h16-16-32z"/><path d="m416 800h16-16-32z"/><path d="m480 736h-64 16 32z"/><path d="m480 704h-64v32h64z"/><path d="m416 736v-32h-32v32z"/><path d="m480 800h-64v32h64z"/><path d="m416 800h-32v16 16h32z"/><path d="m480 960h-64 16 32z"/><path d="m416 928h16-16-32z"/><path d="m480 928h-64v32h64z"/><path d="m400 1056h-16 32z"/><path d="m480 1088h-64 16 32z"/><path d="m480 1056h-64v32h64z"/><path d="m416 1088v-32h-32v32z"/><path d="m480 1216h-16-32-16z"/><path d="m416 1216h16-16-32z"/><path d="m480 1248v-32h-64v32z"/><path d="m416 1248v-32h-32v32z"/><path d="m48 800h-224 160z"/><path d="m288 656v16 64 64-160z"/><path d="m224 736h-128z"/><path d="m96 672h-48-176z"/><path d="m48 656h-224v16h48 176z"/><path d="m96 672h128 64v-16h-240v16z"/><path d="m224 672v64z"/><path d="m288 736v-64h-64v64z"/><path d="m-128 736v-64z"/><path d="m-128 672h-48v64h48z"/><path d="m48 736h-176-48v64h224z"/><path d="m288 800v-64h-64-128-48v64z"/><path d="m320 992v128z"/><path d="m-64 992v128z"/><path d="m320 1120h-160z"/><path d="m160 1120h-224 32 144 32z"/><path d="m320 992h-32-128z"/><path d="m160 992h-224z"/><path d="m480 832v96h32v-96z"/><path d="m416 544h64-64-32z"/><path d="m480 1088h-16-32-16v128h16 32 16z"/><path d="m464 1056h16v-96h-16-32-16v96z"/><path d="m480 832h-16-32-16v96h16 32 16z"/><path d="m432 800h32 16v-64h-16-32-16v64z"/><path d="m432 704h32 16v-96h-16-32-16v64 32z"/><path d="m432 576h32 16v-32h-64v32z"/><path d="m320 992v128z"/><path d="m320 1120h-160z"/><path d="m160 992h-224z"/><path d="m480 832h-16z"/><path d="m480 832h32z"/><path d="m480 704h32z"/><path d="m480 608h-16z"/><path d="m480 608h32z"/><path d="m480 576h32z"/><path d="m480 800h32z"/><path d="m480 736h32z"/><path d="m480 1056h32z"/><path d="m480 960h-16z"/><path d="m480 960h32z"/><path d="m480 928h32z"/><path d="m480 1216h-16 16 32z"/><path d="m480 1088h32z"/><path d="m416 608h16-16-32z"/><path d="m416 800v-64h-32v64z"/><path d="m416 832h-32v64 32h32z"/><path d="m416 1088h-32v24 8 96h32z"/><path d="m416 832h16-16-32z"/><path d="m432 704h-16 64-16z"/><path d="m432 800h-16 64-16z"/><path d="m416 736h16-16-32z"/><path d="m416 960h16-16-32z"/><path d="m432 928h-16 64-16z"/><path d="m416 1056h-16 16 64-16z"/><path d="m416 1088h16-16-32z"/><path d="m-64 992v128z"/><path d="m160 1120h-224z"/><path d="m320 992h-160z"/><path d="m864 848h-232z"/><path d="m864 1056v16 208z"/><path d="m632 848v208z"/><path d="m864 1056v-208h-232v208 16h232z"/><path d="m632 1072v208h232v-208z"/></g><g id="c"><path d="m160 992h-224v128h224z"/><path d="m320 1120v-128h-160v128z"/><path d="m-64 992v128z"/><path d="m160 1120h-224z"/><path d="m320 992h-160z"/></g></defs><g stroke="#000"><use fill="none" stroke-miterlimit="0" stroke-width="10" xlink:href="#a"/><use fill="#ccc" xlink:href="#a"/><use fill="none" stroke-miterlimit="0" stroke-width="10" xlink:href="#b"/><use fill="#e5e5e5" xlink:href="#b"/><use fill="none" stroke-miterlimit="0" stroke-width="10" xlink:href="#c"/><use fill="#fff" xlink:href="#c"/></g></svg>