<svg viewBox="-230 -1366 1612 1772" xmlns="http://www.w3.org/2000/svg" xmlns:xlink="http://www.w3.org/1999/xlink"><defs><g id="a"><path d="m992-642.0262v-61.9738z"/><path d="m160-321.4286v1.4286z"/><path d="m192-320h64v32 32 96l-96-96v-64z"/><path d="m160-321.4286 15.3199-30.5714 16.6801-33.2857v65.2857h-32z"/><path d="m231.4452-464h24.5548v144h-64v-65.2857-78.7143z"/><path d="m256-256h96l-32 32-64 64z"/><path d="m480-256v32h-32-128l32-32z"/><path d="m352-288h128v32h-128-96v-32z"/><path d="m352-416v128h-96v-32-144h96z"/><path d="m352-464h103.4452 24.5548v16 32h-128z"/><path d="m480-256v-32-128-32h64 64v160 64h-128z"/><path d="m832-224h-128-32-64v-64h64 128 32z"/><path d="m960-288v64h-128v-64z"/><path d="m960-224-64 64-64-64z"/><path d="m960-288v-97.2857l16.6796 33.2857 15.3204 30.5714v1.4286 64l-32 32z"/><path d="m192-464v-112.8571l48 95.7857-8.5548 17.0714z"/><path d="m256-544v31l-16 31.9286-48-95.7857-15.6063-31.1429h1.1558 78.4505z"/><path d="m160-642.0262v-61.9738l96-96v64 128h-78.4505z"/><path d="m271.5347-544-15.5347 31v-31z"/><path d="m455.4452-464h-103.4452-96-24.5548l8.5548-17.0714 16-31.9286 15.5347-31h80.4653 103.4452z"/><path d="m480-544v32 48h-24.5548v-80z"/><path d="m256-608v-128h64 32v64 128h-80.4653-15.5347z"/><path d="m320-736h-64v-64z"/><path d="m480-544v-128-64h64v224h-64z"/><path d="m544-512v64h-64v-16-48z"/><path d="m544-736h64v64 160h-64z"/><path d="m448-736h32v64h-128v-64z"/><path d="m672-448v-96h128v96 32h-128z"/><path d="m608-512v-160h64v128 96h-64z"/><path d="m672-448v32 128h-64v-160z"/><path d="m800-544v-128h16.3221 79.6779 64v64 31.1429 128.8571h-160z"/><path d="m960-448v62.7143 97.2857h-128-32v-128-32z"/><path d="m800-672v-32-.5715l.2863.5715 16.0358 32z"/><path d="m672-736h32 80.2505l15.7495 31.4285v.5715 32h-128-64v-64z"/><path d="m800-704.5715-15.7495-31.4285h47.7495 64v64h-79.6779l-16.0358-32z"/><path d="m832-736 64-64v64z"/><path d="m896-736v-64l64 64v64h-64z"/><path d="m960-608h14.4504 1.1559l-15.6063 31.1429z"/><path d="m960-672v-64l32 32v61.9738l-17.5496 34.0262h-14.4504z"/><path d="m960-224 32-32-96 96z"/><path d="m960-448v-128.8571.0001 191.5714-.0001z"/><path d="m975.6063-608h-1.1559-.0002z"/><path d="m992-642.0262-17.5498 34.0262h.0002z"/><path d="m976.6796-352-16.6796-33.2857v.0001l16.6802 33.2856z"/><path d="m544-512v64z"/><path d="m175.3199-352h-.0001l16.6802-33.2861v.0004z"/><path d="m176.3937-608 15.6063 31.1429v.0001z"/><path d="m832-224 64 64z"/><path d="m608-224h64-192z"/><path d="m352-672h128z"/><path d="m672-672h128z"/><path d="m480-288h-128z"/><path d="m800-288h-128z"/><path d="m800-672v128z"/><path d="m800-416v128z"/><path d="m672-544v-128z"/><path d="m800-544h-128z"/><path d="m800-544h-128v-128h128z"/><path d="m672-288v-128z"/><path d="m672-416h128z"/><path d="m800-288h-128v-128h128z"/><path d="m352-544v-128z"/><path d="m352-288v-128z"/><path d="m352-416h128z"/><path d="m480-544h-24.5548-103.4452z"/><path d="m480-672v128z"/><path d="m480-544h-128v-128h128z"/><path d="m480-416v128z"/><path d="m480-288h-128v-128h128z"/><path d="m992-608v-34.0262-61.9738 64 64z"/><path d="m992-544v128z"/><path d="m992-320v-1.4286z"/><path d="m160-704v61.9738z"/><path d="m160-320v64z"/><path d="m448-736v-32z"/><path d="m704-736h96 32-47.7495z"/><path d="m480-736h-32z"/><path d="m672-736h-64-64-64z"/><path d="m704-736h-32z"/><path d="m672-736h-192-32v-32h32 192z"/><path d="m704-768v32h-32v-32z"/><path d="m160-704 96-96z"/><path d="m992-642.0262v34.0262h-16.3937-1.1561z"/><path d="m976.6802-352h15.3198v30.5714z"/><path d="m960-576.857 15.6063-31.143h16.3937v32 32 128 32h-31.356l-.644-1.2856z"/><path d="m992-384v32h-15.3198l-16.0362-32z"/><path d="m992-321.4286-15.3204-30.5714h.0006z"/><path d="m960-576.857v-.0001l15.6063-31.1429z"/><path d="m177.5493-608h.0002-1.1558z"/><path d="m160-642.0262 17.5493 34.0262h-1.1556-16.3937z"/><path d="m160-642.0262 17.5495 34.0262h-.0002z"/><path d="m192-576.857v-.0001 112.8571 78.7143-.0004z"/><path d="m160-416v-128-32-32h16.3937l15.6063 31.143v191.5709l-.645 1.2861h-31.355z"/><path d="m191.355-384-31.355 62.5714v-62.5714z"/><path d="m175.3198-352h.0001l-15.3199 30.5714z"/><path d="m704-224v32z"/><path d="m448-224h32z"/><path d="m672-224h32z"/><path d="m672-192h-192z"/><path d="m672-192h-192-32v-32h32 192z"/><path d="m704-224v32h-32v-32z"/><path d="m448-224h-96-32z"/><path d="m1248-1024v72 32 56z"/><path d="m1248-512v2 14 32 14 2z"/><path d="m1248-544v3 1z"/><path d="m-96-416v-4z"/><path d="m-64 0v96l-32-32v-72h32z"/><path d="m0 0h-64v-8h64z"/><path d="m64 96h-128v-96h64 64z"/><path d="m0-8v-56h64v64h-64z"/><path d="m0-128h32 32v64h-64z"/><path d="m-64-8h-32v-88l32-32h64v64 56z"/><path d="m128-128v96 96l-32 32h-32v-96-64-64z"/><path d="m-64-416v32l-32-32z"/><path d="m-32-160h32l32 32h-32-64z"/><path d="m0-160h-32v-32z"/><path d="m128-128v-32-96l128 128v16 80h-128z"/><path d="m256-32v96h-128v-96z"/><path d="m160-256h-32v-64h32z"/><path d="m128-256h32l96 96v32z"/><path d="m384 48v16l-16-16z"/><path d="m256-32v-80l120 120-40 40-16 16h-64z"/><path d="m384 16-8-8-120-120h16 108.7851 3.2149z"/><path d="m368 48h-32l40-40 8 8v32z"/><path d="m256-128 16 16h-16z"/><path d="m816-96v160 16h-32l-16-16v-160z"/><path d="m896 64-16 16h-64v-16z"/><path d="m1040 64h48 32v32h-64l-32-32z"/><path d="m1088 64v-64h32v64z"/><path d="m1040 64h-16-128-80v-160h16 32 160 16z"/><path d="m1088-96v32 64 64h-48v-160z"/><path d="m1152 96h-32v-32-64h32z"/><path d="m1216 96h-64v-96-64h96v128z"/><path d="m1216-96h32v32h-96-64v-32z"/><path d="m1152-64v64h-32-32v-64z"/><path d="m672-160h-192-32v-32h32 192z"/><path d="m704-192v32h-32v-32z"/><path d="m765.5786-112h2.4214v16 160h-2.4214z"/><path d="m816-96h-48v-16h48l16 16z"/><path d="m992-256v-64h32v64z"/><path d="m880-112 16-16 128-128v96 64h-160z"/><path d="m992-256h32l-128 128v-32z"/><path d="m1216-128 32 32h-32z"/><path d="m1024-384h-32v-32h32z"/><path d="m1024-256v-64-64h192v32 192h-192z"/><path d="m1216-160v32 32h-128-48-16v-64z"/><path d="m1216-384v-32h32z"/><path d="m-96-512h16v64h-16z"/><path d="m-96-544 32-32v32z"/><path d="m-80-512h16v64h-16z"/><path d="m160-544h-32v-32h32z"/><path d="m128-544h32v128 32h-32z"/><path d="m-64-800v-32h192v128 64 32h-192z"/><path d="m128-608v32 32 160h-192v-32-32-64-32-32-32z"/><path d="m128-384v64 64 96h-128l-32-32-32-32v-160z"/><path d="m128-160v32h-64-32l-32-32z"/><path d="m256-832v32l-96 96h-32z"/><path d="m128-704v-128h16 112z"/><path d="m128-640v-64h32v64z"/><path d="m544-512h64v64h-64z"/><path d="m144-832h-16-192l-16-16h80 64 64 16z"/><path d="m208-848h64l-16 16h-112v-16z"/><path d="m0-960v64 48h-80l-16-16v-160l32-32h64z"/><path d="m64-960h-64v-96h64z"/><path d="m64-896v48h-64v-48z"/><path d="m128-1024v176h-64v-48-64-96h32z"/><path d="m64-896h-64v-64h64z"/><path d="m128-1024h96l16 16 16 16v96l-48 48h-64-16z"/><path d="m240-1008h16v16z"/><path d="m336-1008h32l-112 112v-96-16z"/><path d="m320-1024 16 16h-80-16l-16-16z"/><path d="m256-896 112-112 16-16h.7934v160.7937 15.2063h-112.7934-64z"/><path d="m672-768h-192-32v-32h32 192z"/><path d="m704-800v32h-32v-32z"/><path d="m1024-544h-32v-32h32z"/><path d="m992-544h32v128h-32z"/><path d="m1184-640h32v64h-192v-64z"/><path d="m1024-416v-128-32h192v32 32 64 32 32h-192z"/><path d="m1216-512h16v64h-16z"/><path d="m1232-512h16v64h-16z"/><path d="m1216-576 32 32h-32z"/><path d="m960-848h64v144l-128-128-16-16z"/><path d="m992-640v-64h32v64z"/><path d="m1024-704h-32l-96-96v-32z"/><path d="m1024-704v-144h128 32v48 32 128h-160z"/><path d="m1216-736v96h-32v-128z"/><path d="m1184-848h48l-48 48z"/><path d="m769.5868-848h-1.5868v-176h1.5868 14.4132 48v160l-16 16z"/><path d="m880-848-16-16h96v16z"/><path d="m832-1024h80 48v160h-96-32z"/><path d="m896-1040 16 16h-80-48l16-16z"/><path d="m960-864v-160h64v128 48h-64z"/><path d="m1088-1056h64v96h-64z"/><path d="m1088-960v64h-64v-128l32-32h32z"/><path d="m1024-848v-48h64 64v48z"/><path d="m1152-896h-64v-64h64z"/><path d="m1216-1056 32 32v160l-16 16h-48-32v-48-64-96z"/><path d="m1232-848 16-16-64 64z"/><path d="m1216-640v-96 160z"/><path d="m704-736h96z"/><path d="m896-800v-32z"/><path d="m769.5868-1024h-1.5868z"/><path d="m832-736 64-64z"/><path d="m769.5868-848h-1.5868z"/><path d="m1216-416v-32-4 28.0082z"/><path d="m1248-544v7.9979l-32 .0001v-7.998z"/><path d="m1248-416-32 32z"/><path d="m1232-512h-16v3.998l16 .002z"/><path d="m1232-448h16v-2-1.998l-16-.002z"/><path d="m1216-448h16v-4h-16z"/><path d="m1232-512v4 56 4z"/><path d="m1024 64h-128z"/><path d="m1216-384v32z"/><path d="m1216-128 32 32z"/><path d="m704-224h96z"/><path d="m816-112h-48-2.4214-13.5786z"/><path d="m896-160-64-64z"/><path d="m1120 96h32 64-96-64z"/><path d="m128-576h16 16z"/><path d="m448-736h-96z"/><path d="m224-1024h-96 192z"/><path d="m256-832v32z"/><path d="m384.7934-848v-15.2063l15.2066 15.2063z"/><path d="m384.7934-1024h63.2066v223.7691.2309l-48-48-15.2066-15.2063z"/><path d="m256-800 64 64z"/><path d="m-64-800v192 32z"/><path d="m672-160h-192z"/><path d="m448-224h-96z"/><path d="m-64-544v7.9913l-32 .0066v-7.9979z"/><path d="m-64-384-32-32z"/><path d="m-64-512h-16v4h16z"/><path d="m-80-512h-16v2 1.998l16 .002z"/><path d="m-80-448h16v-4h-16z"/><path d="m-80-512v4 56 4z"/><path d="m128-384v64z"/><path d="m128-320h16 16z"/><path d="m380.7851-112h3.2149z"/><path d="m256-160v32z"/><path d="m320-224-64 64z"/><path d="m256 64h64-192z"/><path d="m-32-192-32-32z"/><path d="m992-544v-32z"/><path d="m992-384v-32z"/><path d="m992-320v-1.4286-30.5714-32z"/><path d="m992-256v-64z"/><path d="m160-640v-64 61.9738 34.0262 32z"/><path d="m160-544v128z"/><path d="m160-576v32z"/><path d="m160-384v62.5714 1.4286z"/><path d="m160-416v32z"/><path d="m704-736v-32z"/><path d="m992-704-32-32-64-64z"/><path d="m832-736 64-64z"/><path d="m480-768h-32z"/><path d="m672-768h-192z"/><path d="m704-768h-32z"/><path d="m256-800 64 64z"/><path d="m320-736h32 96-96z"/><path d="m544-512h64z"/><path d="m608-448h-64z"/><path d="m608-512v64z"/><path d="m448-224v32z"/><path d="m800-224h-96 128z"/><path d="m448-192h32z"/><path d="m672-192h32z"/><path d="m320-224-64 64z"/><path d="m256-160-96-96z"/><path d="m-64-544h-32v128h32z"/><path d="m1248-544h-32v128h32z"/><path d="m768-864v16h-16z"/><path d="m768-864v-160 176z"/><path d="m384-112h16 48v176h-3.0826-60.9174z"/><path d="m384 64v-16-32-128z"/><path d="m384 64-16-16z"/><path d="m624-1104h-96z"/><path d="m624-1200v96h-96v-96z"/><path d="m624 240h-96z"/><path d="m624 144v96h-96v-96z"/><path d="m736-832-30.5454 30.5454z"/><path d="m416-128 28.9174-28.9174 3.0826-3.0826v48h-48z"/><path d="m416-128 28.9174-28.9174z"/><path d="m704-159.3629v-.6371l48 48h-48z"/><path d="m704-160 32 32 16 16z"/><path d="m704-112h48 13.5786v176h-61.5786z"/><path d="m704-160h-32z"/><path d="m448-800h32z"/><path d="m448-1024v160 64-.2309z"/><path d="m528-1104h-16v-96h16z"/><path d="m528-1104h96 16v16h-128v-16z"/><path d="m640-1216v16h-16-96-16v-16z"/><path d="m640-1104h-16v-96h16z"/><path d="m640-1104v-96-16 128z"/><path d="m528-1200v96z"/><path d="m624-1200h-96z"/><path d="m624-1104v-96z"/><path d="m1248-920v-32z"/><path d="m1248-540v-1 4.9979z"/><path d="m1248-464v-32z"/><path d="m1248-416v-4z"/><path d="m1248 64v-128-32z"/><path d="m-96-1024v160z"/><path d="m-96-544v4z"/><path d="m-96-510v-2 64-2z"/><path d="m-96-8v-32-56 88 72z"/><path d="m-96-40v32z"/><path d="m704-832v-192 224z"/><path d="m704-736v-32-32z"/><path d="m704-800v64z"/><path d="m704-160v-32-32z"/><path d="m704-160v.6371z"/><path d="m704-160v.6371 47.3629 176z"/><path d="m1216-1056h-64-64-32z"/><path d="m1056-1056-32 32z"/><path d="m1248-1024-32-32z"/><path d="m1184-800v32z"/><path d="m1184-768v-32z"/><path d="m1216-736-32-32z"/><path d="m1248-864-16 16-48 48z"/><path d="m1216-736v96 64z"/><path d="m800-736h32z"/><path d="m1024-1024h-64-48z"/><path d="m912-1024-16-16z"/><path d="m784-1024h-14.4132-1.5868-62.5454z"/><path d="m800-1040h32 32z"/><path d="m864-1040h32-96z"/><path d="m800-1040-16 16z"/><path d="m816-848 16-16z"/><path d="m832-864h32z"/><path d="m864-864 16 16 16 16z"/><path d="m896-800-64 64z"/><path d="m752-848h16 1.5868 46.4132z"/><path d="m736-832 16-16z"/><path d="m1248-544-32-32z"/><path d="m1248-416-32 32z"/><path d="m1248-510v-2h-16v4l16-.002z"/><path d="m704 64h61.5786 2.4214z"/><path d="m1024 64h-96-32z"/><path d="m1216-384v32z"/><path d="m1216-352v224-32z"/><path d="m1216-128 32 32z"/><path d="m800-224h32z"/><path d="m816-112h-64z"/><path d="m896-160v32z"/><path d="m896-128-16 16z"/><path d="m832-224 64 64z"/><path d="m864-96h-32z"/><path d="m832-96-16-16z"/><path d="m880-112-16 16z"/><path d="m1120 96h96-64z"/><path d="m1216 96 32-32z"/><path d="m1024 64 32 32z"/><path d="m816 80h-32 32 64z"/><path d="m880 80 16-16z"/><path d="m768 64 16 16z"/><path d="m448-800v64z"/><path d="m448-800v-.2309z"/><path d="m448-800v32 32z"/><path d="m672-800h-192z"/><path d="m704-800h-32z"/><path d="m640-1088 32 32v192h-224v-160l64-64z"/><path d="m672-864v32 32h-192-32v-64z"/><path d="m672-864v-192l32 32v192h-32z"/><path d="m704-832v32h-32v-32z"/><path d="m672-1056-32-32 64 64z"/><path d="m352-736h96z"/><path d="m320-736h32z"/><path d="m128-1024h192z"/><path d="m448-1024h-63.2066-.7934z"/><path d="m272-848h112.7934 15.2066z"/><path d="m368-1008h-32z"/><path d="m336-1008-16-16z"/><path d="m384-1024-16 16z"/><path d="m448-800-32-32-16-16z"/><path d="m256-832 16-16z"/><path d="m256-800 48 48 16 16z"/><path d="m32-1056h-32z"/><path d="m0-1056h32 64-32-64-64z"/><path d="m128-1024-32-32z"/><path d="m-64-800v224-64z"/><path d="m-64-832v32z"/><path d="m-64-1056-32 32z"/><path d="m-96-864 16 16 16 16z"/><path d="m448-224v32 32z"/><path d="m448-224v64z"/><path d="m448-160h32z"/><path d="m448 64v-224h32 192v224z"/><path d="m672 96-32 32h-128l-64-64h224z"/><path d="m704-160v224h-32v-224z"/><path d="m704 64-32 32v-32z"/><path d="m672 96 32-32-64 64z"/><path d="m320-224h32z"/><path d="m-64-576-32 32z"/><path d="m-64-384-32-32z"/><path d="m-96-450v2h16v-4l-16 .002z"/><path d="m-64-384v160z"/><path d="m-32-160-32 32-32 32z"/><path d="m272-112h112 16z"/><path d="m400-112h-16-3.2149-108.7851z"/><path d="m416-128-16 16z"/><path d="m272-112-16-16z"/><path d="m444.9174 64h3.0826-64z"/><path d="m384 64h60.9174z"/><path d="m336 48h32z"/><path d="m320 64h-64-128z"/><path d="m320 64 16-16z"/><path d="m-64 96h128 32z"/><path d="m-96 64 32 32z"/><path d="m96 96 32-32z"/><path d="m-32-192v32z"/><path d="m-32-160v-32z"/><path d="m-32-192-32-32z"/><path d="m640 128v16h-16-96-16v-16z"/><path d="m528 240h96 16v16h-128v-16z"/><path d="m640 240h-16v-96h16z"/><path d="m528 240h-16v-96h16z"/><path d="m640 240v-96-16 128z"/><path d="m640 256h-128z"/><path d="m528 144v96z"/><path d="m624 144h-96z"/><path d="m624 240v-96z"/><path d="m704-1024h1.4546 62.5454v160l-16 16-16 16-30.5454 30.5454-1.4546 1.4546z"/><path d="m448-112v-48 224z"/><path d="m1248-536.0021v-4.9979-3 27.9895z"/><path d="m1248-496v-14 1.998 11.9918z"/><path d="m1248-451.998v1.998-14 .0102z"/><path d="m1248-423.9918v7.9918-4z"/><path d="m-96-536.0021v-7.9979 4z"/><path d="m-96-423.9979v3.9979 4z"/><path d="m1216-508.002v-28 19.9917.0103 19.9899z"/><path d="m1216-536.002v28-3.998-32z"/><path d="m1216-423.9918v-28.0082-11.9899 19.9899.0103z"/><path d="m1248-536.0021v19.9916l-32 .0002v-19.9917z"/><path d="m1232-508v11.9899.0101 32 .0102 11.9898z"/><path d="m1232-508v-4 64-4z"/><path d="m1248-508.002-16 .002v11.9899l16-.0001z"/><path d="m1232-452 16 .002v-11.9918h-16z"/><path d="m1232-508-16-.002v11.9919h16z"/><path d="m1216-452h16v-11.9898l-16-.0001z"/><path d="m1248-423.9918v3.9918 4h-32v-7.9918z"/><path d="m-64-423.9918v-28.0082 4 32z"/><path d="m-64-508v-28.0087-7.9913 32z"/><path d="m-96-544 32-32z"/><path d="m-64-536.0087v19.9984l-32-.0002v-19.9916z"/><path d="m-80-508v-4 64-4z"/><path d="m-80-508v11.9899.0101 32 .0102 11.9898z"/><path d="m-64-508h-16v11.9899l16-.0001z"/><path d="m-80-452h16v-11.9899l-16 .0001z"/><path d="m-80-508-16-.002v11.9918l16 .0001z"/><path d="m-64-423.9918v7.9918h-32v-7.9979z"/><path d="m1248-516.0105v-27.9895 48-20z"/><path d="m1248-496.0102v.0102 32 .0102-.0102-32z"/><path d="m1248-416v-27.9895-.0105-20z"/><path d="m1248-416v-7.9918-19.9977z"/><path d="m-96-516v-28 7.9979z"/><path d="m-96-463.9898v-.0102-32-.0102-11.9918-1.998 60-1.998z"/><path d="m-96-416v-28 20.0021z"/><path d="m1216-496v-.0101-19.9899z"/><path d="m1216-444v-19.9899-.0101z"/><path d="m1232-496h-8v32h8z"/><path d="m1248-496h-16v32h16z"/><path d="m1216-464h8z"/><path d="m1224-496h-8z"/><path d="m1232-463.9898v-.0102-32-.0101-11.9899 56z"/><path d="m1248-443.9895v19.9977h-32v-19.9979z"/><path d="m-64-444v-19.9899 11.9899 28.0082-19.9977z"/><path d="m-64-516v-.0103-19.9984 28.0087 11.9898z"/><path d="m-64-516v20h-8-24v-20z"/><path d="m-72-496h-8v32h8z"/><path d="m-80-496h-16v32h16z"/><path d="m-72-464h8z"/><path d="m-64-496h-8z"/><path d="m-80-463.9898v-.0102-32-.0101-11.9899 56z"/><path d="m-96-463.9898v11.9918l16-.002v-11.9898z"/><path d="m-64-443.9895v19.9977l-32-.0061v-19.9916z"/><path d="m640-1088 64 64z"/><path d="m704 64-64 64z"/><path d="m1248-952v-72z"/><path d="m1248-464v-32 16z"/><path d="m-96-496v-48 28z"/><path d="m-96-464v20 28z"/><path d="m1248-920h-16z"/><path d="m800-1040h32z"/><path d="m864-1040v16z"/><path d="m1224-496h-8v-20h32v20z"/><path d="m1224-496h24v32h-24z"/><path d="m1224-464v-32z"/><path d="m1224-464h24v20h-32v-20z"/><path d="m1216 96h-64z"/><path d="m1120 96v-16z"/><path d="m848 80h-32 64z"/><path d="m880 80h-32z"/><path d="m816 80v-16z"/><path d="m32-1056v16z"/><path d="m-64-464v.0101 19.9899z"/><path d="m-64-496v-20 19.9898z"/><path d="m-72-464h-24v-32h24z"/><path d="m-72-496v32z"/><path d="m-72-464h8v20h-32v-20z"/><path d="m-96-40h16z"/><path d="m-64-416h-32v-128h32z"/><path d="m-96-544h32z"/><path d="m-64-416h-32z"/><path d="m-96-416v-128z"/><path d="m-64-544v128z"/><path d="m1248-416h-32v-128h32z"/><path d="m1216-544h32z"/><path d="m1248-416h-32z"/><path d="m1248-544v128z"/><path d="m1216-416v-128z"/><path d="m544-1088h96-128z"/><path d="m640-1216h-128z"/><path d="m512-1216v16 96 16z"/><path d="m640-1216v16 96 16z"/><path d="m1248-864v-56z"/><path d="m1248 64v-160z"/><path d="m-96-1024v160z"/><path d="m-96-464v-16-16z"/><path d="m-96-96v56z"/><path d="m-96 64v-72z"/><path d="m32-8h-112-16v72l32 32h160v-104z"/><path d="m32-8v-32h-112v32z"/><path d="m-32-128h-32l-32 32v56h16 112v-88z"/><path d="m256 64v-16-160-16h-48-80v112 80z"/><path d="m-32-128v-32l-32 32z"/><path d="m-32-240v-224h-32v80 144z"/><path d="m-32-192v-48h-32v16z"/><path d="m96-464h-64v224h64z"/><path d="m32-240v112 88 32h64v-8-224z"/><path d="m128-320v-64-80h-32v224h32z"/><path d="m96-240v224h32v-112-112z"/><path d="m96-16v8 104l32-32v-80z"/><path d="m32-464h-64v224h64z"/><path d="m-32-240v48 32 32h64v-112z"/><path d="m160-320h-16l64 64v-16z"/><path d="m256-160v-48-48h-48v128h48z"/><path d="m128-240v112h80v-128l-64-64h-16z"/><path d="m128-384h16l32-32v-48h-48z"/><path d="m160-384 16-16v-16l-32 32z"/><path d="m256 48v16h64l16-16z"/><path d="m384 64v-16h-16z"/><path d="m272-112h-16v160h80 32 16v-160z"/><path d="m448 64v-176h-48-16v160 16z"/><path d="m608-96v-16h-96-64v176l64 64h96z"/><path d="m384-256h-48l-16 16v16h32 96v-32z"/><path d="m272-112-16-16v16z"/><path d="m400-288h-16v16h32z"/><path d="m336-288-16 16-16 16h32 48v-16-16z"/><path d="m448-160-32 32-16 16h48z"/><path d="m256-256h48l16-16h-112v16z"/><path d="m304-208h-16-32v48z"/><path d="m304-208 16-16v-16l-32 32z"/><path d="m256-208h32l32-32 16-16h-32-48z"/><path d="m512-256v-32l-32 32z"/><path d="m512-112v-144h-32-32v32 64 48z"/><path d="m448-256h32v-16h-64-32v16z"/><path d="m512-288 32-32 16-16h-16l-64 64v16z"/><path d="m608-320h-64l-32 32v32 144h96z"/><path d="m816 80v-16h-48l16 16z"/><path d="m880 80 16-16h-48v16z"/><path d="m1024-96v160l32 32h64v-16-176z"/><path d="m928-96h-64-32-96-32v160h64 48 32 48 32z"/><path d="m1024 64v-160h-32-32-32v160z"/><path d="m1216 96 16-16h-80v16z"/><path d="m1216-96h-96v176h32 80l16-16v-160z"/><path d="m832-256 16-16h-16-128v16z"/><path d="m736-96 16-16-16-16-32-32v64z"/><path d="m752-112-16 16h96l-16-16z"/><path d="m832-224 64 64v-64z"/><path d="m928-96h32v-32h-64l-16 16-16 16z"/><path d="m928-256h-96-128v32h96 32 64 32z"/><path d="m960-224v-32h-32v32z"/><path d="m960-128v-32-64h-32-32v64 32z"/><path d="m608-320h32 16l-16-16h-80l-16 16z"/><path d="m656-320h-16l64 64v-16z"/><path d="m640-320h-32v208 16h96v-64-64-32z"/><path d="m608-96v224h32l64-64v-160z"/><path d="m960-400-32-32h-16l40 40z"/><path d="m960-384-112 112-16 16h96 32z"/><path d="m960-384v-16l-8 8-120 120h16z"/><path d="m1088-256-64-64h-32v160z"/><path d="m992-160v-160-64h-32v128 32 64z"/><path d="m960-128v32h32v-64h-32z"/><path d="m1088-256 128-128h-32-160v64z"/><path d="m1216-160v-192-32l-128 128-96 96z"/><path d="m1024-96h96 96v-32-32h-224v64z"/><path d="m1248-96-32-32v32z"/><path d="m-64-464v-16h-32v16 48l32 32z"/><path d="m128-576v-64h-144-48v64z"/><path d="m176-544v-16l-16-16h-16z"/><path d="m192-544-16-16v16 64h16z"/><path d="m-32-464h64 64 32 48v-16h-48-192v16z"/><path d="m192-480h-16v16 48 16l16-16z"/><path d="m128-576h-192l-32 32v48 16h32 192z"/><path d="m176-480v-64l-32-32h-16v96z"/><path d="m32-688v-48l-96-96v32 160h48z"/><path d="m0-848h-80l16 16 96 96v-96-16z"/><path d="m128-640v-144l-96 96-48 48z"/><path d="m144-640h16l48-48v-16z"/><path d="m256-752v-48-32-16h-48v144h48z"/><path d="m208-704v-144h-80v16 48 144h16z"/><path d="m256-704h48 32l-16-16-32-32h-32z"/><path d="m352-736h-32v16l16 16h48 64v-32z"/><path d="m256-800v48h32 16z"/><path d="m320-688-16-16h-48-48v16z"/><path d="m416-832 32 32v-48h-48z"/><path d="m336-704h-32l16 16 16 16h48v-16-16z"/><path d="m384-672h16l16-16h-32z"/><path d="m256-832 16-16h-16z"/><path d="m320-720v-16l-16-16h-16z"/><path d="m416-688h64v-16h-32-64v16z"/><path d="m544-640-32-32-32-32v16l64 64h16z"/><path d="m544-672v-32h-64l32 32z"/><path d="m0-1040v-16h-64l-32 32v160l16 16h80z"/><path d="m128-848v-176l-32-32h-64v16 192 16h96z"/><path d="m32-832v96 48l96-96v-48z"/><path d="m0-848h32v-192h-32z"/><path d="m128-1024v176h80 48 16 48v-160-16z"/><path d="m368-1008h-32-16v160h80 48v-16-144z"/><path d="m320-1024v16h16z"/><path d="m448-1008v-16h-64l-16 16z"/><path d="m544-1088h-32l-64 64v16 144h96z"/><path d="m448-864v16 48 64 32h32 64v-160z"/><path d="m640-624 16-16h-16-96l16 16z"/><path d="m640-640 32-32h-128-32l32 32z"/><path d="m928-528v48h32v-80z"/><path d="m960-576v-48-48h-64-32z"/><path d="m912-480h16v-48h-16z"/><path d="m928-480h-16v48h16z"/><path d="m960-480h-32v48l32 32z"/><path d="m952-568-40 40h16l32-32z"/><path d="m704-688v-16l-32 32-32 32h16z"/><path d="m704-848v48l32-32 16-16z"/><path d="m704-704h128v-32h-32-96z"/><path d="m896-688v-112l-64 64v32l16 16 16 16h32z"/><path d="m832-688h16l-16-16h-128v16z"/><path d="m864-672-16-16h-16l120 120 8 8v-16z"/><path d="m960-672v-16h-48-16v16z"/><path d="m896-800v112h16v-112-16l-16-16z"/><path d="m1024-576h160 32v-64h-192z"/><path d="m1184-480h-224v80 16h32 32 160z"/><path d="m1248-464v-16h-64v96h32l32-32z"/><path d="m1184-576h-160-32-32v16 80h224z"/><path d="m1248-480v-16-48l-32-32h-32v96z"/><path d="m992-640v-208h-32v48 112 16 48h32z"/><path d="m960-624v48h32v-48z"/><path d="m1216-848h-112l48 48h32l48-48z"/><path d="m1184-800h-32l32 32z"/><path d="m1024-640h192v-96l-32-32-32-32-48-48h-80-32v208z"/><path d="m752-848h64l16-16v-160h-48-80v160 16z"/><path d="m832-1024v-16h-32l-16 16z"/><path d="m960-848v-176h-48v208 16h48z"/><path d="m912-800v112h48v-112z"/><path d="m864-1024h-32v160h32z"/><path d="m912-1024-16-16h-32v16 160l32 32 16 16z"/><path d="m704-864v-160l-64-64h-96v224z"/><path d="m672-672 32-32v-32-64-48-16h-160v160 32z"/><path d="m960-1024v176h32 32v-176z"/><path d="m1024-848h80 112v-72-32-104h-160l-32 32z"/><path d="m1216-920h16v-32h-16z"/><path d="m1216-848h16l16-16v-56h-16-16z"/><path d="m1216-1056v104h16 16v-72z"/><path d="m832-272h-32-96z"/><path d="m480-272h-64z"/><path d="m320-272h-64-48z"/><path d="m176-560 16 16-32-32z"/><path d="m952-392-120 120z"/><path d="m560-336h80-96z"/><path d="m480-688 64 64z"/><path d="m912-480v48z"/><path d="m952-392-40-40z"/><path d="m832-688 120 120z"/><path d="m416-688-16 16z"/><path d="m544-336-64 64z"/><path d="m384-288h16-32-32z"/><path d="m320-272 16-16z"/><path d="m704-224v64z"/><path d="m1024-576h-32z"/><path d="m1024-640v64z"/><path d="m1232-952h16z"/><path d="m1216-1056h-160z"/><path d="m1056-1056-32 32z"/><path d="m1248-1024-32-32z"/><path d="m1232-920h16v-32h-16z"/><path d="m1216-736-32-32z"/><path d="m704-736h96z"/><path d="m896-832v32z"/><path d="m960-1024h64-112z"/><path d="m912-1024-16-16z"/><path d="m784-1024h-78.5454-1.4546z"/><path d="m896-1040h-32z"/><path d="m832-1024v-16z"/><path d="m864-1024v-16h-32v16z"/><path d="m800-1040-16 16z"/><path d="m816-848 16-16z"/><path d="m832-864h32z"/><path d="m864-864 32 32z"/><path d="m752-848h64z"/><path d="m704-800 1.4546-1.4546 30.5454-30.5454z"/><path d="m736-832 16-16z"/><path d="m992-624v48-64z"/><path d="m992-640h32z"/><path d="m992-384h32z"/><path d="m1216-576 32 32z"/><path d="m704 64h64z"/><path d="m992-320v-64z"/><path d="m1024-384v64z"/><path d="m1216-352v192 32z"/><path d="m1024-320h-32z"/><path d="m800-224h-96z"/><path d="m896-160v32z"/><path d="m896-128-16 16z"/><path d="m736-128-32-32z"/><path d="m752-112-16-16z"/><path d="m864-96h-32z"/><path d="m832-96-16-16z"/><path d="m880-112-16 16z"/><path d="m1056 96h64z"/><path d="m1152 80v16z"/><path d="m1232 80-16 16 32-32z"/><path d="m1120 80v16h32v-16z"/><path d="m1024 64 32 32z"/><path d="m784 80h32z"/><path d="m848 64v16z"/><path d="m880 80 16-16z"/><path d="m816 64v16h32v-16z"/><path d="m768 64 16 16z"/><path d="m512-1088-64 64z"/><path d="m128-576v-32-32z"/><path d="m448-1024h-64z"/><path d="m256-800v-32z"/><path d="m320-848h-48 128z"/><path d="m368-1008h-32z"/><path d="m336-1008-16-16z"/><path d="m384-1024-16 16z"/><path d="m416-832 32 32z"/><path d="m400-848 16 16z"/><path d="m256-832 16-16z"/><path d="m160-640v64z"/><path d="m144-640h-16 32z"/><path d="m-64-1056h64z"/><path d="m96-1056h-64z"/><path d="m0-1040v-16z"/><path d="m128-1024-32-32z"/><path d="m32-1040v-16h-32v16z"/><path d="m-64-832v32z"/><path d="m-64-1056-32 32z"/><path d="m-80-848-16-16 32 32z"/><path d="m448 64 64 64z"/><path d="m352-224h96z"/><path d="m160-384v64z"/><path d="m144-384h-16 32z"/><path d="m-64-240v-144 160z"/><path d="m-64-128 32-32-64 64z"/><path d="m256-128v-32z"/><path d="m320-224-16 16-48 48z"/><path d="m416-128-16 16z"/><path d="m448-160-3.0826 3.0826-28.9174 28.9174z"/><path d="m272-112-16-16z"/><path d="m-80-8h-16z"/><path d="m-80-40h-16v32h16z"/><path d="m336 48h32z"/><path d="m320 64 16-16z"/><path d="m368 48 16 16z"/><path d="m-64 96h160z"/><path d="m-96 64 32 32z"/><path d="m96 96 32-32z"/><path d="m512 128v16 96 16z"/><path d="m640 128v16 96 16z"/><path d="m640 256h-128z"/><path d="m640 128h-32-96z"/><path d="m528-1200h-16v96h16z"/><path d="m640-1088v-16h-16-96-16v16z"/><path d="m640-1200h-16v96h16z"/><path d="m528-1200h96 16v-16h-128v16z"/><path d="m624-1104h-96z"/><path d="m640-1216h-128z"/><path d="m512-1104v-96-16 128z"/><path d="m640 256v-16h-16-96-16v16z"/><path d="m624 240h16v-96h-16z"/><path d="m528 144h96 16v-16h-128v16z"/><path d="m512 240h16v-96h-16z"/><path d="m624 240h-96z"/><path d="m512 240v-96-16 128z"/><path d="m624-1200h-96v96h96z"/><path d="m624 144h-96v96h96z"/><path d="m256-256v32l-48-48h48z"/><path d="m176-416h16l-32 32h-16z"/><path d="m528 240h-16v-96h16z"/><path d="m432-64v64h-16v-64z"/><path d="m448 32.099v31.901l-31.901-31.901z"/><path d="m432-64h16v64h-16z"/><path d="m448 32.099v-32.099-64-32.0989-15.9011h32 128v16 224h-96l-64-64z"/><path d="m400-256-16-16h32 64v16z"/><path d="m448-128v16 15.9011h-31.901z"/><path d="m464-160v-32h16v48h-16z"/><path d="m448-128 16-16h16v32h-32z"/><path d="m400-256h80v64h-16z"/><path d="m544-336v16l-64 64v-16z"/><path d="m256-272h64l-16 16h-48z"/><path d="m352-272-16 16h-32l16-16 16-16h32z"/><path d="m400-288 16 16h-32-32l16-16z"/><path d="m256-256h48 32l-48 48h-16l-16-16z"/><path d="m544-320h64v208h-128v-32-48-64z"/><path d="m528 240h96 16v16h-128v-16z"/><path d="m640 240h-16v-96h16z"/><path d="m608 128h32v16h-16-96-16v-16z"/><path d="m704 0v64l-16 16v-96z"/><path d="m688-96h48l-48 48z"/><path d="m608-96h32 48v48 32 96l-48 48h-32z"/><path d="m952-392-40-40h16l32 32z"/><path d="m736-256h-32v-16h96l-16 16z"/><path d="m640-320v-16l64 64v16z"/><path d="m736-208v-48h48z"/><path d="m640-256v-64l64 64z"/><path d="m704-256h32v48 112h-48-48v-160z"/><path d="m640-336v16h-32-64v-16z"/><path d="m608-112v-208h32v64 160h-32z"/><path d="m992-432v32h-32l-32-32z"/><path d="m176-544v64h-80v-96h48z"/><path d="m160-576 32 32h-16l-32-32z"/><path d="m176-544h16v64h-16z"/><path d="m256-704v16h-48l48-48z"/><path d="m176-480h16v64h-16z"/><path d="m96-480h80v64l-32 32h-48z"/><path d="m336-704h-32-48v-32l16-16h16z"/><path d="m384-688h32l-16 16h-32l-16-16z"/><path d="m336-672-16-16-16-16h32l16 16 16 16z"/><path d="m320-688h-64v-16h48z"/><path d="m544-640v16l-64-64v-16z"/><path d="m400-704 64-64h16v64z"/><path d="m480-768h-16v-32-16h16z"/><path d="m432-848h16 32v32h-16z"/><path d="m416-688h-32l16-16h80v16z"/><path d="m448-863.901v15.901h-16l-15.901-15.901z"/><path d="m416-960h16v64h-16z"/><path d="m432-960h16v64h-16z"/><path d="m448-1024v31.901h-31.901z"/><path d="m448-848v-15.901-32.099-64-32.099-31.901l32-32v192 16z"/><path d="m512-1200h16v96h-16z"/><path d="m640-640v16h-96v-16z"/><path d="m736-752 48 48h-48z"/><path d="m912-480h16v48h-16z"/><path d="m704-704-16 16v-16z"/><path d="m704-688-64 64v-16l48-48 16-16z"/><path d="m800-688h-96v-16h32 48z"/><path d="m928-528v48h-16v-48z"/><path d="m960-560-32 32h-16l40-40z"/><path d="m960-560h32v32h-64z"/><path d="m928-480h64v48h-64z"/><path d="m992-528v48h-64v-48z"/><path d="m688-864v-48l48 48v112 48h-32-16z"/><path d="m688-944v-96l16 16v64z"/><path d="m528-1104h96 16v16h-128v-16z"/><path d="m624-1200h16v96h-16z"/><path d="m640-1216v16h-16-96-16v-16z"/><path d="m640-1088 48 48v96 32 48h-208v-192l32-32z"/><path d="m688-864v160 16l-48 48h-96l-64-64v-64-48-32-16z"/><path d="m640 240v-96-16 128z"/><path d="m640-1104v-96-16 96 32z"/><path d="m736-864v112z"/><path d="m688-912 48 48z"/><path d="m704-960v-64z"/><path d="m688-1040-48-48 48 48 16 16z"/><path d="m992-432v-48 80z"/><path d="m952-568-120-120 128 128z"/><path d="m784-256 16-16-64 64z"/><path d="m736-96-48 48z"/><path d="m704 0-16-16z"/><path d="m688 80 16-16-16 16-48 48z"/><path d="m448-863.901v-7.9835-.0861-28.0009-.0285 4z"/><path d="m448-992.099v7.9835h-32v-7.8845l.099-.099z"/><path d="m432-960v4 56 4z"/><path d="m448-960h-16v4h16z"/><path d="m432-896h16v-4h-16z"/><path d="m432-960h-16v4h16z"/><path d="m416-896h16v-4h-16z"/><path d="m640 256h-32-96z"/><path d="m448 64 64 64-96-96 .099.099z"/><path d="m448-96.0989v32.0989 4-.0285-28.0008-.0868z"/><path d="m448-96.0989v7.9828l-32 .0006v-7.8845l.099-.0989z"/><path d="m432 0h16v-4h-16z"/><path d="m448-64h-16v4h16z"/><path d="m432-64h-16v4h16z"/><path d="m208-272 48 48 16 16-16-16-96-96z"/><path d="m400-256 64 64-80-80z"/><path d="m528-1200v96z"/><path d="m624-1104v-96z"/><path d="m624-1200h-96z"/><path d="m160-384v64z"/><path d="m160-640v64z"/><path d="m800-688h32-128z"/><path d="m480-688h-64z"/><path d="m256-688h64-112z"/><path d="m912-528 40-40z"/><path d="m912-480v-48z"/><path d="m704-688-48 48-16 16z"/><path d="m640-624h-80-16z"/><path d="m208-688-48 48z"/><path d="m368-672h32-16-48z"/><path d="m336-672-16-16z"/><path d="m640-336 16 16 48 48z"/><path d="m160-320 48 48z"/><path d="m192-544v64z"/><path d="m192-480v64z"/><path d="m400-288 16 16z"/><path d="m192-416-16 16-16 16z"/><path d="m624 144h-96z"/><path d="m528 144v96z"/><path d="m624 240v-96z"/><path d="m528-1104v-96z"/><path d="m624-1104h-96z"/><path d="m624-1200v96z"/><path d="m528-1200h96z"/><path d="m624-1104h-96v-96h96z"/><path d="m528 240v-96z"/><path d="m528 144h96z"/><path d="m624 144v96z"/><path d="m624 240h-96z"/><path d="m624 240h-96v-96h96z"/><path d="m448-96h-32v128h32z"/><path d="m448-992h-32v128h32z"/><path d="m416-96v7.8845z"/><path d="m416-864v-7.8845z"/><path d="m416-984.1155v-7.8845z"/><path d="m416-899.9715v-11.9918-.0367-32-.0367-11.9918-3.9715 64z"/><path d="m448-984.1155v.0862h-32v-.0862z"/><path d="m416-871.8845v-.0861h32v.0861z"/><path d="m448-899.9715v28.0009-19.9917-.0377-19.9634z"/><path d="m448-984.0293v28.001 11.9918-19.9635-.0376z"/><path d="m448-984.0293v19.9917l-32-.0001v-19.9916z"/><path d="m432-900v-56-.0284 11.9918.0366 32 .0365 11.9918z"/><path d="m432-899.9717 16 .0002v-11.9919l-16-.0001z"/><path d="m448-956.0283-16-.0001v11.9918l16 .0001z"/><path d="m416-899.9715 16-.0002v-11.9918l-16 .0002z"/><path d="m432-956.0284-16-.0001v11.9918l16 .0001z"/><path d="m448-956.0283v-28.001-.0862-7.9835 32.099 4z"/><path d="m448-871.8845v7.9835h-31.901l-.099-.099v-7.8845z"/><path d="m432-956v-4 64-4z"/><path d="m448 24.1155v-.0861-28.0011-.0283 4 32.099z"/><path d="m416 32v-7.8845z"/><path d="m416-3.9714v-11.9919-.0367-32-.0366-11.9919-3.9715 64z"/><path d="m448-88.1161v.0868l-32-.0001v-.0861z"/><path d="m448 24.0294v.0861h-32v-.0861z"/><path d="m448-88.0293v19.9916h-32v-19.9917z"/><path d="m432-4v-56-.0283 11.9918.0365 32 .0367 11.9919z"/><path d="m432-3.9714 16-.0003v-11.9918l-16 .0002z"/><path d="m448-60.0285-16 .0002v11.9918l16-.0002z"/><path d="m432-60.0283-16-.0002v11.9919l16 .0001z"/><path d="m448 24.1155v7.9835h-31.901l-.099-.099v-7.8845z"/><path d="m432-4v4-64 4z"/><path d="m432-60v-4 64-4z"/><path d="m416-4v4h16v-4z"/><path d="m416-864v-27.9623 19.9917.0861z"/><path d="m416-892v.0377 27.9623-48z"/><path d="m416-964.0377v-27.9623 7.8845.0862z"/><path d="m448-964v20h-16-16v-20z"/><path d="m432-944h-16v32h16z"/><path d="m432-912h16z"/><path d="m448-944h-16z"/><path d="m448-964v19.9635.0365z"/><path d="m448-912v.0366 19.9634z"/><path d="m448-891.9623v19.9917h-32v-19.9917z"/><path d="m432-912v-32-.0366-11.9918.0284 56 .0283-11.9918z"/><path d="m432-48h-16v32h16z"/><path d="m432-16h16z"/><path d="m448-48h-16z"/><path d="m448-68v20h-16-16v-20z"/><path d="m416 4v.0378 27.9622-48z"/><path d="m448 4v-19.9635 11.9918 28.0011-19.9917z"/><path d="m448-68v-.0377-19.9916 28.0008 11.9918z"/><path d="m416 32v-27.9622 19.9916.0861z"/><path d="m416-68.0377v-27.9623 7.8845.0861z"/><path d="m448 4.0377v19.9917h-32v-19.9916z"/><path d="m432-15.9633v-.0367-32-.0365-11.9918.0283 56 .0286z"/><path d="m416-15.9633v11.9919h16v-11.9919z"/><path d="m160-320h-16-48v-64h64z"/><path d="m512 256v16h-16v-144h16z"/><path d="m416-48v32 48h-16v-128h16z"/><path d="m432-16h-16v-32h16z"/><path d="m512 128h-16l-96-96h16z"/><path d="m288-208 64-64v16l-64 64z"/><path d="m256-224 16 16v16l-16-16-112-112h16z"/><path d="m288-192h-16v-16h16z"/><path d="m464-160h-16v-32h16z"/><path d="m432-128 16-16h16l-16 16-32 32h-16z"/><path d="m464-192h-16-16l-32-32-48-48h32z"/><path d="m464-144h-16v-16h16z"/><path d="m608 256h32v16h-128v-16z"/><path d="m640 256v-128h16v144h-16z"/><path d="m736-64v96l-16-16-16-16-16-16v-32l48-48z"/><path d="m720 64h-16v-64l16 16z"/><path d="m688 80 16-16h16l-16 16-48 48h-16z"/><path d="m736-96v-112h16v112 32h-16z"/><path d="m800-272h32l-64 64h-16-16z"/><path d="m832-272 112-112 16-16v16l-128 128z"/><path d="m32-576h64v192h-64z"/><path d="m160-576h-64v-64h48 16z"/><path d="m256-752 16-16v16l-16 16-96 96h-16z"/><path d="m352-704v16l-64-64v-16z"/><path d="m272-752v-16h16v16z"/><path d="m448-768h16l-80 80h-32l80-80z"/><path d="m448-816v-16l16 16v16h-16z"/><path d="m448-800h16v32h-16z"/><path d="m432-912h-16v-32h16z"/><path d="m432-832-16-16-16-16h16l32 32v16z"/><path d="m400-992h16v48 32 48h-16z"/><path d="m496-1088h16l-80 80-16 16h-16z"/><path d="m512-1216v128h-16v-144h16z"/><path d="m752-752h16l64 64h-32l-64-64z"/><path d="m832-688v-16l128 128v16z"/><path d="m992-400v-80h16v96h-16z"/><path d="m1008-576v96h-16v-80-16z"/><path d="m736-864v-32h16v48 96h-16z"/><path d="m704-1024h16v48l-16 16z"/><path d="m688-944 16-16 16-16 16-16v96 32l-48-48z"/><path d="m640-1120v-96-16h16v144h-16z"/><path d="m640-1232v16h-128v-16z"/><path d="m688-1040-48-48h16l64 64h-16z"/><path d="m960-400h32z"/><path d="m832-688h-32z"/><path d="m800-688-16-16-48-48z"/><path d="m688-944 16-16z"/><path d="m688-912v-32z"/><path d="m992-480v-48-32z"/><path d="m992-560h-32z"/><path d="m800-272h32z"/><path d="m944-384-112 112 120-120 8-8z"/><path d="m736-96v-112z"/><path d="m704 64v-64z"/><path d="m688-16v-32z"/><path d="m160-576h-16-48z"/><path d="m640-1216h-128z"/><path d="m512-1216v16 96 16z"/><path d="m160-640v64z"/><path d="m432-1008 80-80-32 32-32 32-31.901 31.901-.099.099z"/><path d="m464-800v32z"/><path d="m464-816v16z"/><path d="m352-688-16-16-48-48z"/><path d="m384-688h-32z"/><path d="m464-768-64 64-16 16z"/><path d="m416-992v27.9623.0377 20z"/><path d="m448-832-32-32 .099.099 15.901 15.901 32 32z"/><path d="m432-944v32z"/><path d="m432-912h16v20h-32v-20z"/><path d="m288-752h-16z"/><path d="m256-736 16-16-16 16-48 48-48 48z"/><path d="m96-384h48 16z"/><path d="m96-576v96 96z"/><path d="m512 128v16 96 16z"/><path d="m160-384v64z"/><path d="m464-160v16z"/><path d="m464-192v32z"/><path d="m448-128 16-16-16 16-31.901 31.9011-.099.0989z"/><path d="m448-48v-20 19.9633z"/><path d="m416-96v27.9623.0377 20z"/><path d="m432-48v32z"/><path d="m448-16v.0365 19.9635z"/><path d="m432-16h16v20h-32v-20z"/><path d="m352-272h32z"/><path d="m288-208 48-48 16-16z"/><path d="m272-208h16z"/><path d="m448 32h-32v-128h32z"/><path d="m416-96h32z"/><path d="m448 32h-32z"/><path d="m416 32v-128z"/><path d="m448-96v128z"/><path d="m448-864h-32v-128h32z"/><path d="m448-864h-32z"/><path d="m416-992h32z"/><path d="m416-864v-128z"/><path d="m448-992v128z"/><path d="m992-384h-32v-16h32z"/><path d="m992-560h-32v-16h32z"/><path d="m960-400h32z"/><path d="m960-560v-16z"/><path d="m960-576h32z"/><path d="m992-576v16z"/><path d="m992-560h-32z"/><path d="m960-384v-16z"/><path d="m992-384h-32z"/><path d="m992-400v16z"/></g></defs><path d="m-230-1366h1612v1772h-1612z" fill="#fff"/><g stroke="#000"><use fill="none" stroke-miterlimit="0" stroke-width="15" xlink:href="#a"/><use fill="#fff" xlink:href="#a"/></g></svg>