<svg viewBox="-160 -160 1920 2112" xmlns="http://www.w3.org/2000/svg" xmlns:xlink="http://www.w3.org/1999/xlink"><defs><g id="a"><path d="m1152 1776h-32z"/><path d="m704 1776h-32z"/><path d="m16 736v192 32-96z"/><path d="m448 1552v-144h224v224h-224z"/><path d="m672 1632v144h-224v-144z"/><path d="m672 1408h32v144 80h-32z"/><path d="m704 1632v144h-32v-144z"/><path d="m64 1056v-32h224v224h-224z"/><path d="m288 1248v64h-224v-32-32z"/><path d="m288 1024h96v192 32h-96z"/><path d="m384 1248v32 32h-96v-64z"/><path d="m608 1216h-224v-192h224z"/><path d="m704 1024h96v64 128h-192v-192z"/><path d="m416 864h64 16 128v80h-224v-80z"/><path d="m704 1024v-160h96v160z"/><path d="m896 1552v-144h224v224h-224z"/><path d="m1120 1632v144h-224v-144z"/><path d="m1120 1408h32v144 80h-32z"/><path d="m1152 1632v144h-32v-144z"/><path d="m1008 1280h-48v-64h48z"/><path d="m800 1024v-160h96v128 96h-96z"/><path d="m896 1088v128h-64-32v-128z"/><path d="m16 736v-32h112v32 192h-112z"/><path d="m128 928v32h-112v-32z"/><path d="m400 864v-48h16v48z"/><path d="m240 640h-224v-192h176 48z"/><path d="m320 448v192h-80v-192z"/><path d="m496 864h-16v-48h16z"/><path d="m416 864v-48-16h64v16 48z"/><path d="m480 800h-64v-64h80v64z"/><path d="m496 816v-16-64-16h128v144h-128z"/><path d="m128 16h64v48h-64z"/><path d="m192 224v-96h128v192 32h-128z"/><path d="m320 352v64 32h-80-48v-96z"/><path d="m544 16v48h-96v-48z"/><path d="m544 320h-224v-192h96 128z"/><path d="m640 128h64v192h-160v-192z"/><path d="m960 704h-64v-128-64h64 48v192z"/><path d="m864 128h32v160 64h-192v-32-192z"/><path d="m896 352v160 64h-192v-96-128z"/><path d="m896 576v128 64 32h-192v-96-128z"/><path d="m896 800v64h-96-96v-64z"/><path d="m960 1280h48 48z"/><path d="m960 1216v64z"/><path d="m448 64h96z"/><path d="m448 16v48z"/><path d="m128 704h-112z"/><path d="m896 128v112 16 32z"/><path d="m960 512h-64z"/><path d="m416 128h-96-128z"/><path d="m640 128h-96-128 32 96z"/><path d="m864 128h-160-64 128z"/><path d="m320 352v-32 96z"/><path d="m704 480v96 128-128-32z"/><path d="m704 320h-24-16-24-32-64z"/><path d="m16 448h176z"/><path d="m192 224v128 96-64-96z"/><path d="m320 640h-80z"/><path d="m896 1216h-64z"/><path d="m704 800v64 160-64-32z"/><path d="m704 704v96z"/><path d="m896 704v64z"/><path d="m608 1024h-224z"/><path d="m624 720v80 64z"/><path d="m624 944h-128-64-32z"/><path d="m496 720v16z"/><path d="m496 800v16z"/><path d="m480 800h16z"/><path d="m416 736v64z"/><path d="m416 736h64 16z"/><path d="m416 800v16z"/><path d="m480 816v-16z"/><path d="m128 704v32z"/><path d="m288 1024h-224 176z"/><path d="m384 1024h-96 32z"/><path d="m64 1056v192 32-32z"/><path d="m1152 1408v64 80z"/><path d="m704 1408v64 80z"/><path d="m1120 1408h-224z"/><path d="m896 1552v80 144-48-32z"/><path d="m384 1312v-32 85.3334 42.6666z"/><path d="m448 1552v80 144-48-32z"/><path d="m672 1408h-224z"/><path d="m384 1312v96h-64-32v-96z"/><path d="m16 384v64z"/><path d="m16 704v32z"/><path d="m960 1280h96 64-224z"/><path d="m960 128v-64 160z"/><path d="m960 928v-160 224z"/><path d="m1056 512h-48-48z"/><path d="m960 704h48 144-64z"/><path d="m1056 512h96v192h-144v-192z"/><path d="m128 64h64z"/><path d="m864 64h-96-128z"/><path d="m544 64v-48z"/><path d="m560 64h-16v-48h16z"/><path d="m920 704h-16-8 64z"/><path d="m768 128h-128-96v-8-16-40h16 16 16 48 128z"/><path d="m864 64h96v64h-64-32-96v-64z"/><path d="m960 128v96 16h-40-16-8v-112z"/><path d="m920 256v-16h40v16z"/><path d="m896 256v-16h8v16z"/><path d="m896 288v-32h8 16 40v192 32h-64z"/><path d="m960 480v32h-64v-32z"/><path d="m544 128h-96v-8h48 16 32z"/><path d="m448 104h48v16h-48z"/><path d="m512 104h32v16h-32z"/><path d="m448 64h96v40h-32-4-8-4-48z"/><path d="m664 544v-224h16v224 16h-16z"/><path d="m640 480v-96-64h24v224h-24z"/><path d="m664 544v16 12 4h-24v-32z"/><path d="m680 320h24v160 64h-24z"/><path d="m704 544v32h-24v-16-16z"/><path d="m608 384h-224v-64h160 64z"/><path d="m640 320v64h-32v-64z"/><path d="m416 128h-224v-64h224z"/><path d="m448 64v40 16 8h-32v-64z"/><path d="m328 320h56v64 96 64h-40-16z"/><path d="m320 416v-96h8v224h-8z"/><path d="m328 544v16 80h-8v-96z"/><path d="m128 288v-128-96h64v64 96 64z"/><path d="m192 384h-64v-96h64z"/><path d="m16 448v-64h112 64v64z"/><path d="m640 576h24 16 24v128h-64z"/><path d="m344 640v-80-16h40v96z"/><path d="m328 640v-80h16v80z"/><path d="m240 704h-112-112v-64h224z"/><path d="m320 640h8 16 40v64h-32-112v-64z"/><path d="m384 384v96z"/><path d="m640 384h-32z"/><path d="m500 104h8z"/><path d="m496 104h4z"/><path d="m664 560v4 8z"/><path d="m640 480v64 32 128z"/><path d="m128 384h-112z"/><path d="m128 160v128 96z"/><path d="m896 288v192 32-160z"/><path d="m896 128h-32z"/><path d="m320 416v128 96-192z"/><path d="m704 320v32 128z"/><path d="m544 320h-160-56-8z"/><path d="m192 128v96z"/><path d="m240 640h-224z"/><path d="m384 1280v-32-32z"/><path d="m608 1216h-224z"/><path d="m832 1216h-224 192z"/><path d="m904 1056h16 40v160h-64v-160z"/><path d="m904 704h16v224h-16z"/><path d="m920 928v112h-16v-112z"/><path d="m896 768v-64h8v224h-8z"/><path d="m904 928v112 4 8 4h-8v-64-64z"/><path d="m920 704h40v64 160h-40z"/><path d="m960 928v64 64h-40v-16-112z"/><path d="m904 1052v-8z"/><path d="m896 992v64 160-128z"/><path d="m896 768v160 64-128-64z"/><path d="m704 1024h-96z"/><path d="m640 960h-16z"/><path d="m624 944v-80z"/><path d="m704 704v96 128h-64v-64-64-96z"/><path d="m704 928v32h-64v-32z"/><path d="m624 864v-64h16v64z"/><path d="m640 800h-16z"/><path d="m640 704v96z"/><path d="m432 944h64v16h-64z"/><path d="m496 960v-16z"/><path d="m608 1024h-224v-18-16-30h16 32 64 112z"/><path d="m624 960h16 64v64h-96v-64z"/><path d="m608 1280h-160-64v-64h224z"/><path d="m832 1280h-160-64v-64h224z"/><path d="m896 1216h64v64h-64-64v-64z"/><path d="m16 960h112z"/><path d="m320 960h32 32v30h-48-4-8-4z"/><path d="m336 990h48v16h-48z"/><path d="m320 1006h16 48v18h-64z"/><path d="m240 1024h-176-48v-64h112 112z"/><path d="m320 960v30 16 18h-32-48v-64z"/><path d="m16 1056v-32h48v32 192h-48z"/><path d="m64 1248v32h-48v-32z"/><path d="m324 990h8z"/><path d="m320 990h4z"/><path d="m64 1024v32z"/><path d="m64 1280v32 96-42.6667z"/><path d="m544 16h16z"/><path d="m448 16h96z"/><path d="m192 16h-64z"/><path d="m1104 1216h-96-48z"/><path d="m1104 1216h48v64h-32-64-48v-64z"/><path d="m576 64h16z"/><path d="m576 64h-16z"/><path d="m448 64v-48z"/><path d="m576 64h-16v-48h16z"/><path d="m560 64v-48z"/><path d="m192 64v-48z"/><path d="m128 960v-32-192z"/><path d="m128 704v32z"/><path d="m1120 1280h32z"/><path d="m1120 1776h-224z"/><path d="m672 1776h-224z"/><path d="m544 16h32-16z"/><path d="m1584 1152h-112v-128h112z"/><path d="m1472 1024v128-64z"/><path d="m1152 512h-96-96 128z"/><path d="m1312 512h-96-64-64 64z"/><path d="m1088 512h-128v-32-32h192v64z"/><path d="m1152 1280v-64z"/><path d="m1216 1056v128 96-64z"/><path d="m1216 832v128 96-64z"/><path d="m1408 512v96z"/><path d="m1216 704v-192h96 96v96 128h-192z"/><path d="m1408 736v96 128h-192v-128-96z"/><path d="m1408 960v96 128h-192v-128-96z"/><path d="m1408 1184v96h-192v-96z"/><path d="m1152 704v-192h64v192z"/><path d="m1088 704h64v64h-192v-64z"/><path d="m592 64h-16v-48h16z"/><path d="m576 64v-48z"/><path d="m1152 1552v144 32 48-144z"/><path d="m1408 1728h-32z"/><path d="m1216 1280v192z"/><path d="m1408 1280v224h-192v-32-192z"/><path d="m1408 1504v224h-32-160v-32-192z"/><path d="m1152 1472h64z"/><path d="m1152 1696v-144-80h64v32 192z"/><path d="m1216 1728h-64v-32h64z"/><path d="m704 1552v144 32 48-144z"/><path d="m1152 1408h-32z"/><path d="m1120 1728h-224v48h224z"/><path d="m1152 1776v-48h-32v48z"/><path d="m1120 1472h-224v80 144h224z"/><path d="m896 1696v32h224v-32z"/><path d="m1152 1696v-144-80h-32v224z"/><path d="m1152 1728v-32h-32v32z"/><path d="m1120 1408h-224v64h224z"/><path d="m1152 1472v-64h-32v64z"/><path d="m1152 1472h-32-32 32z"/><path d="m1152 1728h-32z"/><path d="m1152 1472v80 144h-32v-224z"/><path d="m1152 1696v32h-32v-32z"/><path d="m896 1472v-64 144z"/><path d="m672 1408h-224v64h224z"/><path d="m704 1472v-64h-32v64z"/><path d="m672 1472h-224v80 144h224z"/><path d="m448 1696v32h224v-32z"/><path d="m704 1552v-80h-32v224h32z"/><path d="m672 1696v32h32v-32z"/><path d="m384 1632v-160h64v80 144h-64z"/><path d="m448 1696v32h-64v-32z"/><path d="m672 1728h-224v48h224z"/><path d="m704 1776v-48h-32v48z"/><path d="m288 1600h-224v-192h224z"/><path d="m320 1408v192h-32v-192z"/><path d="m320 1600v-192h64v64 160h-64z"/><path d="m384 1632v64 32h-64v-96z"/><path d="m320 1632v96-128z"/><path d="m384 1408v-42.6666 42.6666 64z"/><path d="m384 1728h64 64-64-128z"/><path d="m448 1552v-80h64v224h-64z"/><path d="m320 1600h-32z"/><path d="m448 1472v-64 144z"/><path d="m704 1408h-32z"/><path d="m288 1408h-224v-96h224z"/><path d="m64 1365.3333v42.6667h-8-40v-128h48z"/><path d="m1120 1728h-224v-32h224z"/><path d="m1408 1776h24 40-128z"/><path d="m544 16h48-16z"/><path d="m16 1440v160 64-112z"/><path d="m16 1280v128z"/><path d="m1432 772v8z"/><path d="m1432 768v4z"/><path d="m1584 448v64h-112-40v-64z"/><path d="m1472 512v64z"/><path d="m1432 864h40v160 64h-40z"/><path d="m1472 1088v64h-40v-64z"/><path d="m1432 512h40v64 160h-40z"/><path d="m1472 736v64 64h-40v-80-4-8-4-32z"/><path d="m1472 1152v96 128h-40v-96-128z"/><path d="m1472 1376v96 80 48h-40v-96-128z"/><path d="m1472 1600v176h-40v-48-128z"/><path d="m1472 1152v96z"/><path d="m1376 512h32-96z"/><path d="m1376 448h-224 32z"/><path d="m1432 448h-56 32z"/><path d="m1376 512h-64-160v-64h224z"/><path d="m1432 512h-24-32v-64h56z"/><path d="m1152 992v160 64z"/><path d="m1408 736v-128-96h24v224z"/><path d="m1416 768h-8v-32h24v32z"/><path d="m1432 784v80h-16v-80z"/><path d="m1408 864v-32-64h8v16 80z"/><path d="m1208 768h-16-40v-64h64v64z"/><path d="m1208 768h8v64 160h-8z"/><path d="m1216 992v64 160h-8v-64-16-144z"/><path d="m1216 1216v64h-8v-64z"/><path d="m1192 768h16v224h-16z"/><path d="m1208 992v144h-16v-144z"/><path d="m1152 768h40v224h-40z"/><path d="m1192 992v144 12 4h-40v-160z"/><path d="m1408 1056v-192h8 16v224h-24z"/><path d="m1432 1088v64 128h-24v-192z"/><path d="m1192 1152h16v64 64h-56v-64-64z"/><path d="m1192 1136v4 8z"/><path d="m1216 768v-64 32 96z"/><path d="m1408 1056v32 192-96z"/><path d="m1408 832v32 192-96z"/><path d="m1408 608v128 32 64-96z"/><path d="m1152 704h64z"/><path d="m1152 704h-64z"/><path d="m1152 768h-192z"/><path d="m608 64h16 16-48z"/><path d="m592 64v-48z"/><path d="m608 64h-16v-48h16z"/><path d="m1408 1504v224z"/><path d="m1408 1280v224z"/><path d="m1432 1280v96 128h-24v-224z"/><path d="m1432 1504v96 128h-24v-224z"/><path d="m1432 1728v48h-24v-24-16-8z"/><path d="m1216 1736v16 24h-64v-48h64z"/><path d="m1152 1472v-64-128h56 8v192z"/><path d="m1216 1728h160 32v8h-96-16-80z"/><path d="m1312 1736h96v16h-96z"/><path d="m1216 1736h80v16h-80z"/><path d="m1216 1752h80 16 96v24h-64-128z"/><path d="m1376 1728h-160-64 64z"/><path d="m1120 1472h-32-192 32 32z"/><path d="m1152 1472h-32z"/><path d="m1152 1408v64h-32v-64z"/><path d="m1152 1728v48h-32v-48z"/><path d="m384 1408h64v64h-64z"/><path d="m512 1726h-64v2h64z"/><path d="m320 1728h128v48h-64-128v-48z"/><path d="m72 1424h-8v16h8z"/><path d="m56 1424v-16h8v16z"/><path d="m16 1440v-32h40v16 12 4z"/><path d="m56 1440h8v160h-48v-160z"/><path d="m256 1664v-64h32 32v128h-64z"/><path d="m64 1600h192v64h-240v-64z"/><path d="m512 1696v-224h160 32v224z"/><path d="m56 1424v4 8z"/><path d="m256 1664h-48-16-64-16-96z"/><path d="m64 1440v-16-16-42.6667 42.6667 192z"/><path d="m448 1408h-64v-42.6666-85.3334h64z"/><path d="m448 1408v-128z"/><path d="m448 1472h64-64-64z"/><path d="m512 1696v30 2h-64v-32z"/><path d="m288 1600h-32-192z"/><path d="m1184 448h-32-192z"/><path d="m1120 1408h-224 128z"/><path d="m1120 1472h-160-32-32v-2-16-46h224z"/><path d="m1120 1728h-224z"/><path d="m1120 1776h-224v-48h224z"/><path d="m16 448v192z"/><path d="m16 640v64 32 128z"/><path d="m608 64h16z"/><path d="m624 64h16z"/><path d="m624 64h-16v-48h16z"/><path d="m608 64v-48z"/><path d="m400 960h-16z"/><path d="m400 960h32z"/><path d="m624 960h15 1z"/><path d="m640 864v64 32z"/><path d="m480 816h16z"/><path d="m480 816h-64z"/><path d="m496 720v16 64 16z"/><path d="m416 800v-64z"/><path d="m480 736v64h16v-64z"/><path d="m480 800h-64v16h64z"/><path d="m352 960h-32-80-112z"/><path d="m384 960h-32z"/><path d="m608 16h16z"/><path d="m640 64h-16v-48h16z"/><path d="m624 64v-48z"/><path d="m624 960h-16-112z"/><path d="m624 800v-80z"/><path d="m624 864h16z"/><path d="m624 800v16 48h16v-64z"/><path d="m496 944h128z"/><path d="m400 944h32z"/><path d="m624 720h-128z"/><path d="m400 864v-48 48 80z"/><path d="m416 816h-16z"/><path d="m496 720v96h128v-16-80z"/><path d="m496 864v-48h-16-64-16v48z"/><path d="m496 816v48h128v-48z"/><path d="m496 864h-96v80h32 64 128v-80z"/><path d="m432 960h64v-16h-64z"/><path d="m432 944v16z"/><path d="m672 1472h-160-64 192z"/><path d="m864 16h-224 32z"/><path d="m640 16h-16-16z"/><path d="m960 64v-48 208z"/><path d="m960 224v224-192-16z"/><path d="m960 64h-96z"/><path d="m640 64v-48z"/><path d="m864 64h-224v-48h224z"/><path d="m960 16v48h-96v-48z"/><path d="m896 1728h-192z"/><path d="m896 1472v224h-192v-224z"/><path d="m896 1696v32h-192v-2-30z"/><path d="m896 1696v-224h192 32v224z"/><path d="m704 1472h-32z"/><path d="m704 1472h-32-32 32z"/><path d="m704 1726h-32z"/><path d="m704 1726h-32-160v-30h192z"/><path d="m672 1776h32-96z"/><path d="m928 244h-8v8h8z"/><path d="m500 96v8h8v-8z"/><path d="m352 548h-8v8h8z"/><path d="m928 1044h-8v8h8z"/><path d="m324 982v8h8v-8z"/><path d="m928 1472h32z"/><path d="m672 1408h-224z"/><path d="m672 1472h-32-192v-64h224z"/><path d="m672 1726h-224 64z"/><path d="m672 1776h-64-160v-48-2h224z"/><path d="m344 544h-16z"/><path d="m500 104v-8z"/><path d="m664 572v4z"/><path d="m664 564v-4z"/><path d="m664 572h-8z"/><path d="m664 564h-8v8h8z"/><path d="m344 556v4z"/><path d="m344 548h8z"/><path d="m344 556v-12 16z"/><path d="m920 1052v4z"/><path d="m920 1044h8z"/><path d="m920 1052v-8-4 16z"/><path d="m324 990v-8z"/><path d="m920 240h-16z"/><path d="m920 252v4z"/><path d="m920 252v-8-4 16z"/><path d="m920 244h8z"/><path d="m920 1040h-16z"/><path d="m896 1776h-16-48z"/><path d="m608 1776h-224 64z"/><path d="m384 1776h-128z"/><path d="m1408 448h-32-192z"/><path d="m928 244v8z"/><path d="m928 252h-8z"/><path d="m928 252h-8v-8h8z"/><path d="m500 96h8z"/><path d="m508 96v8z"/><path d="m656 572v-8z"/><path d="m656 564h8z"/><path d="m352 548v8z"/><path d="m352 556h-8z"/><path d="m352 556h-8v-8h8z"/><path d="m928 1044v8z"/><path d="m928 1052h-8z"/><path d="m928 1052h-8v-8h8z"/><path d="m324 982h8z"/><path d="m332 982v8z"/><path d="m704 1726v2z"/><path d="m800 1408h-96z"/><path d="m800 1408v46 16 2h-96v-64z"/><path d="m896 1728v48h-64-128v-48z"/><path d="m896 1408v46h-80-16v-46z"/><path d="m896 1454v16h-80v-16z"/><path d="m804 1470h12 80v2h-96v-2z"/><path d="m800 1472h96 32-32-192z"/><path d="m704 1408h-32z"/><path d="m672 1408h-224z"/><path d="m704 1408h-32z"/><path d="m704 1408v64h-32v-64z"/><path d="m704 1726v2 48h-32v-50z"/><path d="m328 560h16z"/><path d="m328 548v-4z"/><path d="m328 548v8 4-16z"/><path d="m512 120v-16z"/><path d="m500 120h8 4-16z"/><path d="m500 120h-4z"/><path d="m680 572v-8-4 16z"/><path d="m680 572v4z"/><path d="m680 560h-16z"/><path d="m324 1006h-4z"/><path d="m324 1006h8 4-16z"/><path d="m336 1006v-16z"/><path d="m904 256h16z"/><path d="m904 244v-4z"/><path d="m904 244v8 4-16z"/><path d="m904 1052v4z"/><path d="m664 560v12z"/><path d="m920 240v4z"/><path d="m500 104h8z"/><path d="m500 104v-8h8v8z"/><path d="m664 572h-8v-8h8z"/><path d="m920 1040v4z"/><path d="m324 990h8z"/><path d="m324 990v-8h8v8z"/><path d="m344 544v4z"/><path d="m1432 448h-24z"/><path d="m512 120h-4z"/><path d="m680 560v4z"/><path d="m904 256v-4z"/><path d="m904 1044v-4z"/><path d="m904 1052v-8z"/><path d="m336 1006h-4z"/><path d="m328 560v-4z"/><path d="m672 16h-32-32-64-96z"/><path d="m896 16h-32-192z"/><path d="m896 16h64-96z"/><path d="m544 16h64-16z"/><path d="m128 16h64z"/><path d="m1584 1024v128z"/><path d="m16 448v-64z"/><path d="m1472 512h112z"/><path d="m1472 1024v-160-64z"/><path d="m1472 800v-64-160z"/><path d="m1472 512v64z"/><path d="m1584 1024h-112z"/><path d="m960 448v-224z"/><path d="m960 16v208z"/><path d="m960 448h17 73.2858 18.5714 115.1428z"/><path d="m1184 448h108.8572 115.1428z"/><path d="m128 16v48z"/><path d="m904 256v-4-8-4z"/><path d="m920 256h-16v-16h16z"/><path d="m920 240v16z"/><path d="m496 104v16z"/><path d="m512 120h-4-8-4z"/><path d="m496 120v-16h4 8 4v16z"/><path d="m512 104h-4z"/><path d="m680 560v4 8 4z"/><path d="m664 576h16z"/><path d="m680 576h-16v-4-12h16z"/><path d="m16 384h112z"/><path d="m128 384v-96-128z"/><path d="m128 64v96z"/><path d="m328 560v-4-8-4z"/><path d="m344 560h-16v-16h16z"/><path d="m344 544v4 8 4z"/><path d="m904 1056h16z"/><path d="m920 1056h-16v-4-8-4h16z"/><path d="m920 1040v16z"/><path d="m320 990v16z"/><path d="m336 1006h-4-8-4z"/><path d="m320 1006v-16h4 8 4v16z"/><path d="m336 990h-4z"/><path d="m856 252h48z"/><path d="m856 244v8h48v-8z"/><path d="m508 168v-48z"/><path d="m500 168h8v-48h-8z"/><path d="m728 564h-48z"/><path d="m728 572v-8h-48v8z"/><path d="m280 556h48z"/><path d="m280 548v8h48v-8z"/><path d="m856 1052h48z"/><path d="m856 1044v8h48v-8z"/><path d="m332 1054v-48z"/><path d="m324 1054h8v-48h-8z"/><path d="m856 252v-8z"/><path d="m856 244h48z"/><path d="m856 252v-8h48v8z"/><path d="m508 168h-8z"/><path d="m500 168v-48z"/><path d="m508 168h-8v-48h8z"/><path d="m728 564v8z"/><path d="m728 572h-48z"/><path d="m728 564v8h-48v-8z"/><path d="m280 556v-8z"/><path d="m280 548h48z"/><path d="m280 556v-8h48v8z"/><path d="m856 1052v-8z"/><path d="m856 1044h48z"/><path d="m856 1052v-8h48v8z"/><path d="m332 1054h-8z"/><path d="m324 1054v-48z"/><path d="m332 1054h-8v-48h8z"/><path d="m1440 772h-8v8h8z"/><path d="m1432 772h8z"/><path d="m1192 1148h-8z"/><path d="m1192 1148v4z"/><path d="m1312 1752v-16z"/><path d="m1300 1752v8h8v-8z"/><path d="m1300 1752h-4z"/><path d="m1308 1752v8z"/><path d="m1300 1752h8 4-16z"/><path d="m56 1436h-8z"/><path d="m56 1428h-8v8h8z"/><path d="m56 1428v-4z"/><path d="m56 1436v4z"/><path d="m1192 1140v-4z"/><path d="m1192 1140h-8v8h8z"/><path d="m1584 448h-152z"/><path d="m1440 780h-8z"/><path d="m1440 772v8z"/><path d="m1440 780h-8v-8h8z"/><path d="m1184 1148v-8z"/><path d="m1184 1140h8z"/><path d="m1308 1760h-8z"/><path d="m1300 1760v-8z"/><path d="m1300 1760v-8h8v8z"/><path d="m48 1436v-8z"/><path d="m48 1428h8z"/><path d="m1416 784h16z"/><path d="m1416 772v8 4-16z"/><path d="m1416 772v-4z"/><path d="m1208 1136h-16z"/><path d="m1208 1148v4z"/><path d="m1208 1148v-8-4 16z"/><path d="m1296 1736v16z"/><path d="m1308 1736h4z"/><path d="m1308 1736h-8-4 16z"/><path d="m72 1424h-16 8z"/><path d="m72 1436v4z"/><path d="m72 1436v-8-4 16z"/><path d="m1312 1752h-4z"/><path d="m56 1428v-4 12z"/><path d="m1192 1140v-4 12z"/><path d="m1192 1148h-8v-8h8z"/><path d="m56 1436h-8v-8h8z"/><path d="m1432 772v8z"/><path d="m1296 1736h4z"/><path d="m72 1424v4z"/><path d="m1208 1136v4z"/><path d="m1416 784v-4z"/><path d="m1432 784v-4z"/><path d="m1432 768h-16z"/><path d="m1416 784v-4-8-4z"/><path d="m1432 772v8 4h-16v-16h16z"/><path d="m1192 1152h16z"/><path d="m1208 1136v4 8 4z"/><path d="m1208 1152h-16v-4-12h16z"/><path d="m1296 1736h4 8 4z"/><path d="m1296 1752v-16h16v16z"/><path d="m1312 1752h-4-8-4z"/><path d="m56 1440h16-8z"/><path d="m72 1424v4 8 4z"/><path d="m72 1440h-16v-4-12h16z"/><path d="m1368 780h48z"/><path d="m1368 772v8h48v-8z"/><path d="m1256 1140h-48z"/><path d="m1256 1148v-8h-48v8z"/><path d="m1300 1688v48z"/><path d="m1308 1688h-8v48h8z"/><path d="m120 1428h-48z"/><path d="m120 1436v-8h-48v8z"/><path d="m1368 780v-8z"/><path d="m1368 772h48z"/><path d="m1368 780v-8h48v8z"/><path d="m1256 1140v8z"/><path d="m1256 1148h-48z"/><path d="m1256 1140v8h-48v-8z"/><path d="m384 704v-64-96-64z"/><path d="m384 384v96z"/><path d="m384 384h224z"/><path d="m640 384h-32z"/><path d="m640 704v-96-128z"/><path d="m640 384v96z"/><path d="m1300 1688h8z"/><path d="m1308 1688v48z"/><path d="m1300 1688h8v48h-8z"/><path d="m120 1428v8z"/><path d="m120 1436h-48z"/><path d="m120 1428v8h-48v-8z"/><path d="m804 1446v8h8v-8z"/><path d="m800 1454v16z"/><path d="m812 1454h4z"/><path d="m804 1454v-8z"/><path d="m804 1454h-4 16z"/><path d="m1344 1776h128-112-32z"/><path d="m1120 1776h-16-208z"/><path d="m1344 1776h-16-208 32 64z"/><path d="m608 1776h-176-48z"/><path d="m832 1776h-176-48 96z"/><path d="m128 1776h64z"/><path d="m16 1776h96z"/><path d="m1584 1152v-128 80 144z"/><path d="m16 1552v112 112-208z"/><path d="m16 1328v112 112-208z"/><path d="m16 1328v-48 128 32z"/><path d="m1584 1152h-112z"/><path d="m1472 1248v-96h112v96 128h-112z"/><path d="m1584 1376v96h-112v-96z"/><path d="m1472 1248v128 96-96z"/><path d="m1472 1472v18.7059 15.8496 45.4445z"/><path d="m804 1446h8z"/><path d="m812 1446v8z"/><path d="m256 1664v64 48z"/><path d="m192 1664h16v16h-16z"/><path d="m112 1664h16v16h-16z"/><path d="m128 1760v-64-16-16h64v16 16 64 16h-64z"/><path d="m16 1776v-112h96v16 16 64 16z"/><path d="m128 1696v64h-16v-64z"/><path d="m208 1760v-64-16-16h48v112h-48z"/><path d="m208 1696v64h-16v-64z"/><path d="m816 1470v-16z"/><path d="m812 1470h4-12z"/><path d="m800 1454h4z"/><path d="m804 1454v-8h8v8z"/><path d="m816 1470h-4z"/><path d="m448 16h224z"/><path d="m672 16h224z"/><path d="m960 16h-64z"/><path d="m1584 512v-64z"/><path d="m16 864v-224z"/><path d="m16 1056v192 32z"/><path d="m16 864v96 64 32z"/><path d="m1584 512h-112z"/><path d="m448 1280h160 64z"/><path d="m672 1280h160 64z"/><path d="m1120 1280h-160-64z"/><path d="m1152 1280h-32z"/><path d="m960 1216v-160-64z"/><path d="m960 768v96 128z"/><path d="m1152 1216v-224z"/><path d="m1152 768v224z"/><path d="m1152 768h-192z"/><path d="m1152 1216h-48-144z"/><path d="m416 64h-224z"/><path d="m448 64h-32z"/><path d="m448 64v-48z"/><path d="m192 64v-48z"/><path d="m128 704h112 112z"/><path d="m352 704h32z"/><path d="m128 960h224z"/><path d="m128 960v-224z"/><path d="m128 704v32z"/><path d="m1152 1280v128z"/><path d="m704 1408h96z"/><path d="m896 1408h-96z"/><path d="m1152 1408h-32z"/><path d="m1024 1408h-128-96 96z"/><path d="m800 1470h4z"/><path d="m816 1470h-4-8z"/><path d="m804 1470h-4v-16h16v16z"/><path d="m800 1454h4 8 4z"/><path d="m448 1408v-128z"/><path d="m448 1408h224z"/><path d="m672 1408h32z"/><path d="m812 1518v-48z"/><path d="m804 1518h8v-48h-8z"/><path d="m812 1518h-8z"/><path d="m804 1518v-48z"/><path d="m812 1518h-8v-48h8z"/><path d="m480 736h-64v64h64z"/><path d="m1472 1776h112z"/><path d="m1584 1248v80 144-96z"/><path d="m1584 1024v80z"/><path d="m16 640v224-160-32z"/><path d="m16 640v-192z"/><path d="m1472 1776v-186.7059l31-7.2941 17-4 64-15.0588v213.0588z"/><path d="m1492 1486-17 4-3 .7059v-18.7059h79.5z"/><path d="m1492 1486 59.5-14h32.5v9.6667l-87 19.3333z"/><path d="m1515 1563 69-16.2353v5.2353 10.9412l-64 15.0588z"/><path d="m1472 1589.2941v-16.1765l26-6.1176 5 15z"/><path d="m1472 1506.5555v-15.8496l3-.7059 4 15z"/><path d="m1515 1563-17 4-26 6.1176v-21.1176-45.4445l7-1.5555 18-4 87-19.3333v65.098z"/><path d="m1551.5 1472h-79.5 112z"/><path d="m1472 1552v21.1176 16.1765 186.7059-176z"/><path d="m384 704h-32z"/><path d="m608 704h-112-96-16z"/><path d="m384 736v128 96-96z"/><path d="m416 816v-16h64v16z"/><path d="m480 800v-64h16v50.4286 13.5714z"/><path d="m496 704v16h-96v-16z"/><path d="m496 864v-48-11l91 52 14 8 39 22.2857v72.7143h-1l-70-40-14-8-59-33.7144z"/><path d="m609 851 22.75 13h-30.1786z"/><path d="m496 805v-5-13.5714l99 56.5714-8 14z"/><path d="m609 851-14-8-99-56.5714v-50.4286-16-16h112 32v160h-8.25z"/><path d="m416 816h64 16v48h-96v-48z"/><path d="m384 736v-32h16v16 96 48h-16z"/><path d="m639 960h-15-17.5l-45.5-26 8-14z"/><path d="m640 887.2857-39-22.2857.5714-1h30.1786 8.25z"/><path d="m547 926-51-29.1428v-18.5716l59 33.7144z"/><path d="m547 926 14 8 45.5 26h-110.5v-63.1428z"/><path d="m400 864h96v14.2856 18.5716 63.1428h-96-16v-96z"/><path d="m496 720v16z"/><path d="m496 720h-96z"/><path d="m480 816v-16z"/><path d="m496 736h-16z"/><path d="m400 816v-96z"/><path d="m587 857 14 8z"/><path d="m384 960h16z"/><path d="m496 960h110.5 17.5-128-64-32z"/><path d="m640 864v-160 96z"/><path d="m640 960v-72.7143-23.2857z"/><path d="m480 800h-64z"/><path d="m480 736v64z"/><path d="m480 736h-64z"/><path d="m352 960h-224z"/><path d="m352 960h32z"/><path d="m416 736h64z"/><path d="m480 736v64z"/><path d="m416 800v-64z"/><path d="m480 800h-64z"/><path d="m480 800h-64v-64h64z"/><path d="m112 1680h16z"/><path d="m192 1680h16z"/><path d="m112 1776v-16z"/><path d="m112 1696v-16z"/><path d="m192 1696v-16z"/><path d="m192 1776v-16z"/><path d="m192 1696v64h16v-64z"/><path d="m192 1760h16z"/><path d="m208 1696h-16z"/><path d="m208 1680v16z"/><path d="m208 1760v16z"/><path d="m128 1760v16z"/><path d="m128 1680v16z"/><path d="m192 1760v-64-16h-64v16 64 16h64z"/><path d="m112 1696v64h16v-64z"/><path d="m128 1696h-16z"/><path d="m112 1760h16z"/><path d="m1472 1776h112-224z"/><path d="m432 1776h-192-32 48 128z"/><path d="m656 1776h-192-32 176z"/><path d="m880 1776h-192-32 176z"/><path d="m1104 1776h-192-32 16z"/><path d="m1328 1776h-192-32 16z"/><path d="m1497 1501-5-15z"/><path d="m1476.8982 1497.1182-1.8982-7.1182z"/><path d="m1479 1505-4-15z"/><path d="m1497 1501-18 4z"/><path d="m1507 1598-27.7655-93.0521z"/><path d="m1504 1598.75 3-.75-27.7655-93.0521-.2345.0521z"/><path d="m1472 1511.8945v-5.3389-25.853l-2-6.7026-9 2z"/><path d="m1499 1600 5-1.25-25-93.75-7 1.5556v5.3389z"/><path d="m1472 1506.5556 7-1.5556-2.1018-7.8818-4.8982-16.4156z"/><path d="m1472 1480.7026 4.8982 16.4156-4.8982-16.4155z"/><path d="m1470 1474 2 6.7026v.0001z"/><path d="m631 832-87 131z"/><path d="m640 837-9-5-87 131 9 5z"/><path d="m160 1680h-28.2353-19.7647 16 64 16z"/><path d="m112 1728v28.2353 19.7647-16-64-16z"/><path d="m126 1762-14-5.7647v-28.2353z"/><path d="m126 1694 5.7647-14h28.2353z"/><path d="m126 1694-14 34v-48h19.7647z"/><path d="m126 1762 34 14h-48v-19.7647z"/><path d="m192 1766.8571v9.1429h-32l32-13.1765z"/><path d="m194 1694 14 5.7647v28.2353z"/><path d="m192 1762.8235 2-.8235-2 4.8571z"/><path d="m208 1776h-16v-9.1429l2-4.8571 14-34z"/><path d="m208 1680v19.7647l-14-5.7647-34-14z"/><path d="m194 1694-34-14z"/><path d="m208 1728v-28.2353-19.7647 16 64 16z"/><path d="m1584 448h-64v64h64z"/><path d="m1184 16h-224 160z"/><path d="m1408 16h-92.2858-18.5714-73.2856-18.5714-21.2858 160z"/><path d="m192 16h-64-112z"/><path d="m1584 16v208z"/><path d="m1584 448v64z"/><path d="m1584 512v64z"/><path d="m16 224v64 96 64z"/><path d="m1584 448h-152z"/><path d="m1584 16v208 16h-152v-224z"/><path d="m1584 240v208h-152v-208z"/><path d="m1472 576v-64h112v64 160h-112z"/><path d="m1584 736v64 160h-112v-160-64z"/><path d="m1584 960v64h-112v-64z"/><path d="m1472 800v160 64z"/><path d="m1472 576v160 64z"/><path d="m1472 1024h112z"/><path d="m960 224v16 205.25 2.75z"/><path d="m1201 184.25-31.8572 55.75-22.857 40h-73.2858l22.8572-40 105.1428-184z"/><path d="m1146.2858 280-96 168h-73.2858l60-105 8-14 28-49z"/><path d="m1223.8572 16h73.2856l-96.1428 168.25v-128.25z"/><path d="m977 448h-17v-2.75l63-110.25 14 8z"/><path d="m1068.8572 448h-18.5714l41.7142-73 14 8z"/><path d="m1169.1428 240 128-224h18.5714l-22.857 40-105.143 184z"/><path d="m1164.8573 280-50.8573 89-14-8 46.2858-81 22.857-40h18.5714z"/><path d="m1077.2858 240 106.7142-186.7499 21.2858-37.2501h18.5714l-22.8572 40-105.1428 184z"/><path d="m1073 280-28 49-14-8 46.2858-81h18.5714z"/><path d="m1184 53.2501-106.7142 186.7499h-117.2858v-16-208h224z"/><path d="m1077.2858 240-46.2858 81-8 14-63 110.25v-205.25z"/><path d="m1205.2858 16-21.2858 37.2501v-37.2501z"/><path d="m1164.8573 280 22.8569-40 105.143-184v184 40z"/><path d="m1292.8572 448h-108.8572-115.1428l37.1428-65 58.8573-103h127.9999z"/><path d="m1292.8572 240v-184l22.857-40h92.2858 24v224z"/><path d="m1432 448h-24-115.1428v-168-40h139.1428z"/><path d="m128 64v-48z"/><path d="m192 16v48z"/><path d="m16 64v-48h112v48z"/><path d="m16 288v-64-160h112v96 128z"/><path d="m128 384h-112v-96h112z"/><path d="m128 64v96z"/><path d="m1584 512h-64z"/><path d="m1520 512v-64z"/><path d="m1520 448h64z"/><path d="m1584 448v64z"/><path d="m1584 512h-64v-64h64z"/><path d="m1470 1474-9 2z"/><path d="m1503 1582-5-15 17-4 5 15z"/><path d="m1476.8982 1497.1182-1.8982-7.1182 17-4 5 15-17.7655 3.9479z"/><path d="m1472 1480.7027 7.2345 24.2452 27.7655 93.0521-35-117.297z"/><path d="m1472 1480.7027v.0003l-2-6.703z"/><path d="m1497 1501-17.7655 3.9479z"/><path d="m1492 1486-17 4z"/><path d="m1503 1582 17-4z"/><path d="m1520 1578-5-15z"/><path d="m1515 1563-17 4z"/><path d="m1498 1567 5 15z"/><path d="m1106.031 382.9457 7.969-13.9457-8 14z"/><path d="m1120 391-13.969-8.0543-.031.0543-3.969 6.9458 13.969 8.0542z"/><path d="m1106.031 382.9457 13.969 8.0543-13.969-8.0542z"/><path d="m1092.062 374.8916-.062.1084 8-14z"/><path d="m1092.062 374.8916 7.938-13.8916z"/><path d="m1106 383-14-8z"/><path d="m1114 369-14-8z"/><path d="m1092 375-3.9384 6.8914 13.9694 8.0544 3.969-6.9458z"/><path d="m1088.0616 381.8914 3.9384-6.8914.062-.1084-83.062-47.8916-4 7z"/><path d="m1092.062 374.8916-83.062-47.8916z"/><path d="m555 912-8 14z"/><path d="m547 926 8-14 14 8-8 14z"/><path d="m587 857 8-14 14 8-8 14z"/><path d="m609 851-7.4286 13-.5714 1z"/><path d="m569 920-14-8z"/><path d="m595 843-8 14z"/><path d="m609 851-14-8z"/><path d="m561 934 8-14z"/><path d="m547 926 14 8z"/><path d="m1472 1480.703 35 117.297-8 2-38-124 9-2z"/><path d="m1499 1600-27-88.1055-11-35.8945z"/><path d="m1499 1600 8-2-3 .75z"/><path d="m480 816h16z"/><path d="m480 816h-64z"/><path d="m416 736v64 16z"/><path d="m480 736v64h16v-64z"/><path d="m416 736v80h64v-16-64z"/><path d="m480 800h16z"/><path d="m416 736h64z"/><path d="m416 816h-16z"/><path d="m496 720v16 64z"/><path d="m496 800v5 11z"/><path d="m1045 329-14-8z"/><path d="m1009 327-4 7z"/><path d="m1092.062 374.8916 7.938-13.8916 14 8-7.969 13.9458z"/><path d="m1037 343-14-8 8-14 14 8z"/><path d="m1114 369-7.969 13.9457v.0001z"/><path d="m1023 335 14 8z"/><path d="m1031 321-8 14z"/><path d="m1037 343 8-14z"/><path d="m640 704h-32z"/><path d="m384 480v-96h224v224h-224z"/><path d="m608 608v96h-224v-96z"/><path d="m608 384h32v96 128h-32z"/><path d="m640 608v96h-32v-96z"/><path d="m384 480v128 96z"/><path d="m608 384h-224z"/><path d="m640 384v96z"/><path d="m496 816h-16-64z"/><path d="m496 720v80 16z"/><path d="m496 720v96h-80-16v-96z"/><path d="m194 1694 14 34-14 34-34 14-34-14-14-34 14-34 34-14z"/><path d="m126 1694 34-14z"/><path d="m194 1694 14 34z"/><path d="m112 1728 14-34z"/><path d="m208 1728-14 34z"/><path d="m126 1762-14-34z"/><path d="m194 1762-2 .8235-32 13.1765z"/><path d="m160 1776-34-14z"/><path d="m631 832 9 5-87 131-9-5z"/><path d="m640 837-87 131z"/><path d="m640 837-9-5z"/><path d="m544 963 9 5z"/><path d="m1116 398-111-64 4-7 111 64z"/><path d="m1005 334 111 64-27.9384-16.1086z"/><path d="m1116 398 4-7z"/><path d="m1009 327 83.062 47.8916 13.969 8.0542 13.969 8.0542z"/><path d="m16 0h-16 128 64z"/><path d="m672 0h-224z"/><path d="m896 0h-224z"/><path d="m1120 0h-224z"/><path d="m1344 0h-224z"/><path d="m1568 0h-224z"/><path d="m1600 1792h-32z"/><path d="m0 1568v224-64z"/><path d="m0 1344v224-64z"/><path d="m0 1120v224-64-96z"/><path d="m0 896v224-160z"/><path d="m0 672v224z"/><path d="m0 448v224z"/><path d="m0 224v224z"/><path d="m1600 0v224z"/><path d="m240 1792h-16-208v-16h224z"/><path d="m464 1792h-16-208v-16h144 80z"/><path d="m688 1792h-16-208v-16h224z"/><path d="m912 1792h-16-208v-16h112 112z"/><path d="m1136 1792h-16-208v-16h224z"/><path d="m1360 1792h-16-208v-16h80 144z"/><path d="m1584 1776h16v16h-32-208v-16z"/><path d="m0 0h16v16 208h-16z"/><path d="m16 224v224h-16v-224z"/><path d="m16 448v192 32h-16v-224z"/><path d="m16 672v32 160 32h-16v-224z"/><path d="m16 896v64 96 64h-16v-224z"/><path d="m16 1120v160 48 16h-16v-224z"/><path d="m16 1344v208 16h-16v-224z"/><path d="m16 1568v208 16h-16v-224z"/><path d="m192 16h-176v-16h176z"/><path d="m672 16h-224v-16h224z"/><path d="m896 16h-224v-16h224z"/><path d="m1120 16h-160-64v-16h224z"/><path d="m1344 16h-160-64v-16h224z"/><path d="m1568 0h16v16h-176-64v-16z"/><path d="m1584 16v-16h16v224h-16z"/><path d="m1600 224v224h-16v-224z"/><path d="m1600 448v224h-16v-96-64-64z"/><path d="m1600 672v224h-16v-32-64-128z"/><path d="m1600 896v224h-16v-16-80-128z"/><path d="m1600 1120v224h-16v-16-48-160z"/><path d="m1600 1344v224h-16v-16-208z"/><path d="m1600 1568v208h-16v-208z"/><path d="m1152 1280h-32z"/><path d="m960 864v-96 96 128z"/><path d="m1152 992v224-128z"/><path d="m384 704h-32z"/><path d="m416 64h-224z"/><path d="m384 736v128 96-32z"/><path d="m352 960h-224 96z"/><path d="m128 704v32z"/><path d="m672 1408h-224z"/><path d="m896 1408h-96-96-32 128z"/><path d="m1120 1408h-96-128 128z"/><path d="m240 1776h-224 96 48 32 16z"/><path d="m464 1776h-80-144 192z"/><path d="m688 1776h-224 192z"/><path d="m912 1776h-112-112 192z"/><path d="m1136 1776h-224 192z"/><path d="m1360 1776h-144-80 192z"/><path d="m1584 16h-152-24z"/><path d="m960 16h-64z"/><path d="m1584 224v224-208z"/><path d="m1584 800v64 32 128-64z"/><path d="m1584 576v96 128-64z"/><path d="m1584 1552v16 208-213.0588z"/><path d="m1584 1328v16 208-5.2353-65.098-9.6667z"/><path d="m1584 1104v16 160 48-80z"/><path d="m16 16v48 160z"/><path d="m16 448v192z"/><path d="m16 1280v-160-64z"/><path d="m16 1056v-96-64-32z"/><path d="m16 1280v48z"/><path d="m672 1280h-224z"/><path d="m896 1280h-224z"/><path d="m960 992v224z"/><path d="m1152 864v-96 224z"/><path d="m960 1216h192z"/><path d="m192 64h224z"/><path d="m416 64h32z"/><path d="m352 704h-224z"/><path d="m384 704v32z"/><path d="m384 960h-32z"/><path d="m128 736v224z"/><path d="m1152 1408v-128z"/><path d="m1120 1408h32-32-96z"/><path d="m448 1280v128z"/><path d="m1600 0h-16-16z"/><path d="m224 1792h-224 16z"/><path d="m448 1792h-64-160 16z"/><path d="m672 1792h-64-160 16z"/><path d="m896 1792h-96-128 16z"/><path d="m1120 1792h-96-128 16z"/><path d="m1344 1792h-128-96 16z"/><path d="m1568 1792h-128-96 16z"/><path d="m0 0v224z"/><path d="m1600 1568v160 64-16z"/><path d="m1600 1344v160 64z"/><path d="m1600 1120v160 64z"/><path d="m1600 896v192 32z"/><path d="m1600 672v192 32z"/><path d="m1600 448v224z"/><path d="m1600 224v224z"/><path d="m672 1280h-48-176z"/><path d="m896 1280h-48-176z"/><path d="m1120 1280h-160-64 64z"/><path d="m672 0h-224v64 160h224z"/><path d="m448 224v64 160h128 64 32v-224z"/><path d="m896 0h-224v224h224z"/><path d="m672 224v224h192 32v-224z"/><path d="m1120 0h-224v224h224z"/><path d="m896 224v224h64 160v-224z"/><path d="m1344 0h-224v224h224z"/><path d="m1120 224v224h64 32 128v-224z"/><path d="m1568 0h-224v224h224z"/><path d="m1344 224v224h96 128v-224z"/><path d="m1600 224v-224h-32v224z"/><path d="m1600 448v-224h-32v224z"/><path d="m1440 448h-96-128v224h224z"/><path d="m1216 672v96 96h216 8v-192z"/><path d="m1600 448h-32-128v224h160z"/><path d="m1440 672v192h160v-192z"/><path d="m1184 448h-64-160v224h224z"/><path d="m960 672v96h192 32v-96z"/><path d="m1216 672v-224h-32v224z"/><path d="m1216 768v-96h-32v96z"/><path d="m864 448h-192-32v224h224z"/><path d="m640 672v32 160h208 16v-192z"/><path d="m960 672v-224h-64-32v224z"/><path d="m960 864v-96-96h-96v192z"/><path d="m1184 768h-32v96h56 8v-96z"/><path d="m416 64h-224v160 64h224z"/><path d="m192 288v160h160 64v-160z"/><path d="m448 224v-160h-32v224h32z"/><path d="m416 288v160h32v-160z"/><path d="m192 64v-64h-64v224h64z"/><path d="m128 224v224h64v-160-64z"/><path d="m128 0h-128v224h128z"/><path d="m0 224v224h128v-224z"/><path d="m0 448v224h128v-224z"/><path d="m0 672v224h128v-160-32-32z"/><path d="m0 896v64h128v-64z"/><path d="m352 448h-160-64v224h224z"/><path d="m128 672v32h224v-32z"/><path d="m576 448h-128-32-64v224h224z"/><path d="m352 672v32h32 16 176v-32z"/><path d="m640 672v-224h-64v224z"/><path d="m640 704v-32h-64v32z"/><path d="m624 864h16v-160h-64-176v160z"/><path d="m400 864v-160h-16v32 192h16z"/><path d="m384 928v32h16v-32z"/><path d="m1432 864h-216-8v224h224z"/><path d="m1208 1088v128 64h8 216v-192z"/><path d="m1600 896v-32h-160-8v224h168z"/><path d="m1432 1088v192h8 160v-160-32z"/><path d="m1208 1088v-224h-56v128 96z"/><path d="m1152 1216h32 24v-128h-56z"/><path d="m1152 1216h-192v64h160 32 32v-64z"/><path d="m1184 1280h24v-64h-24z"/><path d="m624 864h-224v64 32 128h224z"/><path d="m400 1088v96 96h48 176v-192z"/><path d="m848 864h-208-16v224h224z"/><path d="m624 1088v192h48 176v-192z"/><path d="m960 1088v-96-128h-96-16v224z"/><path d="m896 1280h64v-64-128h-112v192z"/><path d="m224 960h-96-128v160 64h224z"/><path d="m0 1184v96h224v-96z"/><path d="m400 1184v-96-128h-16-32-128v224z"/><path d="m384 1280h16v-96h-176v96z"/><path d="m960 992v96 128z"/><path d="m960 768h192z"/><path d="m1152 864v-96 96 128z"/><path d="m1152 1216h-192z"/><path d="m352 704h-224z"/><path d="m448 0v16 48z"/><path d="m448 64h-32z"/><path d="m192 64v-48-16z"/><path d="m384 704v32z"/><path d="m384 960h-32z"/><path d="m128 736v160 64z"/><path d="m1440 1280h-8-216v224h224z"/><path d="m1216 1504v14 210h224v-224z"/><path d="m1216 1728v14 50h128 96v-64z"/><path d="m1600 1344v-64h-160v224h160z"/><path d="m1440 1504v224h160v-160-64z"/><path d="m1440 1728v64h128 32v-64z"/><path d="m1208 1280h-24-32v128 110h64v-14-224z"/><path d="m1024 1408h-128-96v64 46h224z"/><path d="m1152 1518v-110h-32-96v110z"/><path d="m1024 1518h-224v178 46h224z"/><path d="m800 1742v50h96 128v-50z"/><path d="m1216 1728v-210h-64-128v224h192z"/><path d="m1024 1742v50h96 96v-50z"/><path d="m672 1408h-224v64h160 64z"/><path d="m800 1472v-64h-128v64z"/><path d="m400 1280h-16v192h64v-64-128z"/><path d="m448 1472h-64v32 192h224v-224z"/><path d="m384 1696v32 64h64 160v-96z"/><path d="m800 1696v-178-46h-128-64v224z"/><path d="m608 1792h64 128v-50-46h-192z"/><path d="m224 1280h-224v64 160h224z"/><path d="m0 1504v64 160h224v-224z"/><path d="m0 1728v64h224v-64z"/><path d="m384 1472v-192h-160v224h160z"/><path d="m224 1504v224h160v-32-192z"/><path d="m224 1728v64h160v-64z"/><path d="m1152 1280v128z"/><path d="m448 1408v-128z"/><path d="m1152 1408h-32z"/></g></defs><path d="m-160-160h1920v2112h-1920z" fill="#fff"/><g stroke="#000"><use fill="none" stroke-miterlimit="0" stroke-width="15" xlink:href="#a"/><use fill="#fff" xlink:href="#a"/></g></svg>