<svg viewBox="0 -1984 4080 2240" xmlns="http://www.w3.org/2000/svg" xmlns:xlink="http://www.w3.org/1999/xlink"><defs><g id="a"><path d="m0 32v160 64z"/><path d="m0-192v160 64z"/><path d="m0-544v160 64z"/><path d="m0-768v160 64z"/><path d="m0-1120v160 64z"/><path d="m0-1344v160 64z"/><path d="m0-1696v160 64z"/><path d="m0-1920v160 64z"/><path d="m4064-256v64z"/><path d="m4064-832v64z"/><path d="m4064-1408v64z"/><path d="m4064-1984v64z"/><path d="m224-832h-224z"/><path d="m448-832h-224z"/><path d="m672-832h-224z"/><path d="m976-832h-224z"/><path d="m1232-832h-224z"/><path d="m1508-832h-224z"/><path d="m1808-832h-224z"/><path d="m2124-832h-224z"/><path d="m2460-832h-224z"/><path d="m2812-832h-224z"/><path d="m3180-832h-224z"/><path d="m3564-832h-224z"/><path d="m3788-832h-224z"/><path d="m4012-832h-224z"/><path d="m224-1408h-224z"/><path d="m448-1408h-224z"/><path d="m672-1408h-224z"/><path d="m896-1408h-224z"/><path d="m1120-1408h-224z"/><path d="m1344-1408h-224z"/><path d="m1568-1408h-224z"/><path d="m1792-1408h-224z"/><path d="m2016-1408h-224z"/><path d="m2240-1408h-224z"/><path d="m2464-1408h-224z"/><path d="m2688-1408h-224z"/><path d="m2912-1408h-224z"/><path d="m3136-1408h-224z"/><path d="m3360-1408h-224z"/><path d="m3584-1408h-224z"/><path d="m3808-1408h-224z"/><path d="m4032-1408h-224z"/><path d="m224-1984h-224z"/><path d="m448-1984h-224z"/><path d="m672-1984h-224z"/><path d="m896-1984h-224z"/><path d="m1120-1984h-224z"/><path d="m1344-1984h-224z"/><path d="m1568-1984h-224z"/><path d="m1792-1984h-224z"/><path d="m2016-1984h-224z"/><path d="m2240-1984h-224z"/><path d="m2464-1984h-224z"/><path d="m2688-1984h-224z"/><path d="m2912-1984h-224z"/><path d="m3136-1984h-224z"/><path d="m3360-1984h-224z"/><path d="m3584-1984h-224z"/><path d="m3808-1984h-224 96z"/><path d="m4032-1984h-224 96z"/><path d="m4064-1472h-32z"/><path d="m0-1760v-160-64h224v224z"/><path d="m0-1536v-160-64h224v224z"/><path d="m224-1472h-224v-64h224z"/><path d="m224-1760v-224h224v224z"/><path d="m224-1536v-224h224v224z"/><path d="m448-1472h-224v-64h224z"/><path d="m448-1760v-224h224v224z"/><path d="m448-1536v-224h224v224z"/><path d="m672-1472h-224v-64h224z"/><path d="m672-1760v-224h224v224z"/><path d="m672-1536v-224h224v224z"/><path d="m896-1472h-224v-64h224z"/><path d="m896-1760v-224h224v224z"/><path d="m896-1536v-224h224v224z"/><path d="m1120-1472h-224v-64h224z"/><path d="m1120-1760v-224h224v224z"/><path d="m1120-1536v-224h224v224z"/><path d="m1344-1472h-224v-64h224z"/><path d="m1344-1760v-224h224v224z"/><path d="m1344-1536v-224h224v224z"/><path d="m1568-1472h-224v-64h224z"/><path d="m1568-1760v-224h224v224z"/><path d="m1568-1536v-224h224v224z"/><path d="m1792-1472h-224v-64h224z"/><path d="m1792-1760v-224h224v224z"/><path d="m1792-1536v-224h224v224z"/><path d="m2016-1472h-224v-64h224z"/><path d="m2016-1760v-224h224v224z"/><path d="m2016-1536v-224h224v224z"/><path d="m2240-1472h-224v-64h224z"/><path d="m2240-1760v-224h224v224z"/><path d="m2240-1536v-224h224v224z"/><path d="m2464-1472h-224v-64h224z"/><path d="m2464-1760v-224h224v224z"/><path d="m2464-1536v-224h224v224z"/><path d="m2688-1472h-224v-64h224z"/><path d="m2688-1760v-224h224v224z"/><path d="m2688-1536v-224h224v224z"/><path d="m2912-1472h-224v-64h224z"/><path d="m2912-1760v-224h224v224z"/><path d="m2912-1536v-224h224v224z"/><path d="m3136-1472h-224v-64h224z"/><path d="m3136-1760v-224h224v224z"/><path d="m3136-1536v-224h224v224z"/><path d="m3360-1472h-224v-64h224z"/><path d="m3360-1760v-224h224v224z"/><path d="m3360-1536v-224h224v224z"/><path d="m3584-1472h-224v-64h224z"/><path d="m3584-1760v-224h224v224z"/><path d="m3584-1536v-224h224v224z"/><path d="m3808-1472h-224v-64h224z"/><path d="m3808-1760v-224h224v224z"/><path d="m3808-1536v-224h224v224z"/><path d="m4032-1472h-224v-64h224z"/><path d="m4064-1984v64 160h-32v-224z"/><path d="m4064-1760v64 160h-32v-224z"/><path d="m4064-1536v64h-32v-64z"/><path d="m4064-896h-32z"/><path d="m0-1184v-160-64h224v224z"/><path d="m0-960v-160-64h224v224z"/><path d="m224-896h-224v-64h224z"/><path d="m224-1184v-224h224v224z"/><path d="m224-960v-224h224v224z"/><path d="m448-896h-224v-64h224z"/><path d="m448-1184v-224h224v224z"/><path d="m448-960v-224h224v224z"/><path d="m672-896h-224v-64h224z"/><path d="m672-1184v-224h224v224z"/><path d="m672-960v-224h224v224z"/><path d="m896-896h-224v-64h224z"/><path d="m896-1184v-224h224v224z"/><path d="m896-960v-224h224v224z"/><path d="m1120-896h-224v-64h224z"/><path d="m1120-1184v-224h224v224z"/><path d="m1120-960v-224h224v224z"/><path d="m1344-896h-224v-64h224z"/><path d="m1344-1184v-224h224v224z"/><path d="m1344-960v-224h224v224z"/><path d="m1568-896h-224v-64h224z"/><path d="m1568-1184v-224h224v224z"/><path d="m1568-960v-224h224v224z"/><path d="m1792-896h-224v-64h224z"/><path d="m1792-1184v-224h224v224z"/><path d="m1792-960v-224h224v224z"/><path d="m2016-896h-224v-64h224z"/><path d="m2016-1184v-224h224v224z"/><path d="m2016-960v-224h224v224z"/><path d="m2240-896h-224v-64h224z"/><path d="m2240-1184v-224h224v224z"/><path d="m2240-960v-224h224v224z"/><path d="m2464-896h-224v-64h224z"/><path d="m2464-1184v-224h224v224z"/><path d="m2464-960v-224h224v224z"/><path d="m2688-896h-224v-64h224z"/><path d="m2688-1184v-224h224v224z"/><path d="m2688-960v-224h224v224z"/><path d="m2912-896h-224v-64h224z"/><path d="m2912-1184v-224h224v224z"/><path d="m2912-960v-224h224v224z"/><path d="m3136-896h-224v-64h224z"/><path d="m3136-1184v-224h224v224z"/><path d="m3136-960v-224h224v224z"/><path d="m3360-896h-224v-64h224z"/><path d="m3360-1184v-224h224v224z"/><path d="m3360-960v-224h224v224z"/><path d="m3584-896h-224v-64h224z"/><path d="m3584-1184v-224h224v224z"/><path d="m3584-960v-224h224v224z"/><path d="m3808-896h-224v-64h224z"/><path d="m3808-1184v-224h224v224z"/><path d="m3808-960v-224h224v224z"/><path d="m4032-896h-224v-64h224z"/><path d="m4064-1408v64 160h-32v-224z"/><path d="m4064-1184v64 160h-32v-224z"/><path d="m4064-960v64h-32v-64z"/><path d="m720-320h-48z"/><path d="m1252-320h-20z"/><path d="m1868-320h-60z"/><path d="m1552-320h-44z"/><path d="m2204-320h-80z"/><path d="m2556-320h-96z"/><path d="m2924-320h-80-8-24z"/><path d="m3308-320h-128z"/><path d="m4064-320h-52z"/><path d="m1900-544v160 64z"/><path d="m1900-768v160 64z"/><path d="m2956-544v160 64z"/><path d="m2956-768v160 64z"/><path d="m3340-544v160 64z"/><path d="m3340-768v160 64z"/><path d="m3340-608v-160-64h224v224z"/><path d="m3340-384v-160-64h224v224z"/><path d="m3564-320h-224v-64h224z"/><path d="m3564-608v-224h224v224z"/><path d="m3564-384v-224h224v224z"/><path d="m3788-320h-224v-64h224z"/><path d="m3788-608v-224h224v224z"/><path d="m3788-384v-224h224v224z"/><path d="m4012-320h-224v-64h224z"/><path d="m4064-832v64 160h-52v-224z"/><path d="m4064-608v64 160h-52v-224z"/><path d="m4064-384v64h-52v-64z"/><path d="m3308-832v64z"/><path d="m2956-608v-160-64h224v224z"/><path d="m2956-384v-160-64h224v224z"/><path d="m3180-320h-224v-64h224z"/><path d="m3308-832v64 160h-128v-224z"/><path d="m3308-608v64 160h-128v-224z"/><path d="m3308-384v64h-128v-64z"/><path d="m2556-832v64z"/><path d="m2588-544v160 64z"/><path d="m2588-768v160 64z"/><path d="m2924-832v64z"/><path d="m2588-608v-160-64h224v224z"/><path d="m2588-384v-160-64h224v224z"/><path d="m2812-320h-224v-64h224z"/><path d="m2924-832v64 160h-112v-224z"/><path d="m2924-608v64 160h-112v-224z"/><path d="m2924-384v64h-112v-64z"/><path d="m2236-544v160 64z"/><path d="m2236-768v160 64z"/><path d="m2236-608v-160-64h224v224z"/><path d="m2236-384v-160-64h224v224z"/><path d="m2460-320h-224v-64h224z"/><path d="m2556-832v64 160h-96v-224z"/><path d="m2556-608v64 160h-96v-224z"/><path d="m2556-384v64h-96v-64z"/><path d="m2204-832v64z"/><path d="m1900-608v-160-64h224v224z"/><path d="m1900-384v-160-64h224v224z"/><path d="m2124-320h-224v-64h224z"/><path d="m2204-832v64 160h-80v-224z"/><path d="m2204-608v64 160h-80v-224z"/><path d="m2204-384v64h-80v-64z"/><path d="m976-832v64z"/><path d="m1552-832v64z"/><path d="m1868-832v64z"/><path d="m1584-544v160 64z"/><path d="m1584-768v160 64z"/><path d="m1584-608v-160-64h224v224z"/><path d="m1584-384v-160-64h224v224z"/><path d="m1808-320h-224v-64h224z"/><path d="m1868-832v64 160h-60v-224z"/><path d="m1868-608v64 160h-60v-224z"/><path d="m1868-384v64h-60v-64z"/><path d="m1252-832v64z"/><path d="m1284-544v160 64z"/><path d="m1284-768v160 64z"/><path d="m1284-608v-160-64h224v224z"/><path d="m1284-384v-160-64h224v224z"/><path d="m1508-320h-224v-64h224z"/><path d="m1552-832v64 160h-44v-224z"/><path d="m1552-608v64 160h-44v-224z"/><path d="m1552-384v64h-44v-64z"/><path d="m1008-544v160 64z"/><path d="m1008-768v160 64z"/><path d="m1008-608v-160-64h224v224z"/><path d="m1008-384v-160-64h224v224z"/><path d="m1232-320h-224v-64h224z"/><path d="m1252-832v64 160h-20v-224z"/><path d="m1252-608v64 160h-20v-224z"/><path d="m1252-384v64h-20v-64z"/><path d="m720-832v64z"/><path d="m752-544v160 64z"/><path d="m752-768v160 64z"/><path d="m752-608v-160-64h224v64 160z"/><path d="m752-384v-160-64h224v64 160z"/><path d="m976-320h-224v-64h224z"/><path d="m0-608v-160-64h224v224z"/><path d="m0-384v-160-64h224v224z"/><path d="m224-320h-224v-64h224z"/><path d="m224-608v-224h224v224z"/><path d="m224-384v-224h224v224z"/><path d="m448-320h-224v-64h224z"/><path d="m448-608v-224h224v224z"/><path d="m448-384v-224h224v224z"/><path d="m672-320h-224v-64h224z"/><path d="m720-832v64 160h-48v-224z"/><path d="m720-608v64 160h-48v-224z"/><path d="m720-384v64h-48v-64z"/><path d="m4064 256h-172z"/><path d="m3212 256h-60z"/><path d="m2360 256h112-224z"/><path d="m1704 256h88-172z"/><path d="m1164 256h-44z"/><path d="m2136-160v128 96z"/><path d="m2836-256v96z"/><path d="m3068-256h-12-212z"/><path d="m3292-256h-72-8-144 144 8z"/><path d="m3516-256h-72-152z"/><path d="m3740-256h-72-152z"/><path d="m3964-256h-72-152z"/><path d="m3220 32v160 64z"/><path d="m3220-32v-32-192h72 152v224z"/><path d="m3220 192v-160-64h224v224z"/><path d="m3444 256h-224v-64h224z"/><path d="m3444-32v-224h72 152v224z"/><path d="m3444 192v-224h224v224z"/><path d="m3668 256h-224v-64h224z"/><path d="m3668-32v-224h72 152v224z"/><path d="m3668 192v-224h224v224z"/><path d="m3892 256h-224v-64h224z"/><path d="m3964-256h100v64 160h-172v-224z"/><path d="m4064-32v64 160h-172v-224z"/><path d="m4064 192v64h-172v-64z"/><path d="m3212-32v-32 96z"/><path d="m3212-256h8v192h-8z"/><path d="m2928 256h-92v-64-128h8 212v128 64z"/><path d="m2844-160v-96h212v224h-212z"/><path d="m3056-32v96h-212v-96z"/><path d="m3056-256h12 144v192 32h-156z"/><path d="m3212-32v64 160h-156v-128-96z"/><path d="m3212 192v64h-60-96v-64z"/><path d="m2844-160v128 96z"/><path d="m2360-256h-224z"/><path d="m2584-256h-104-8-112 112 8z"/><path d="m2808-256h-104-120z"/><path d="m2480 32v160 64z"/><path d="m2480-64v-192h104 120v224h-224z"/><path d="m2704-32v224h-224v-160-64z"/><path d="m2704 192v64h-224v-64z"/><path d="m2704-256h104 28v96 128h-132z"/><path d="m2836-32v96 128h-132v-224z"/><path d="m2836 192v64h-132v-64z"/><path d="m2472-32v-32 96z"/><path d="m2472-256h8v192h-8z"/><path d="m2136-160v-96h224v224h-224z"/><path d="m2360-32v224h-224v-128-96z"/><path d="m2360 192v64h-112-112v-64z"/><path d="m2360-256h112v192 32h-112z"/><path d="m2472-32v64 160h-112v-224z"/><path d="m2472 192v64h-112v-64z"/><path d="m876-256v96z"/><path d="m1480-160v128 96z"/><path d="m1704-256h-224z"/><path d="m1928-256h-136-88 88z"/><path d="m1792-32v-32 96z"/><path d="m1800 32v-96h204v32 96 96h-204z"/><path d="m2004 160v96h-204v-96z"/><path d="m1928-256h76v192h-204-8v-192z"/><path d="m2024 256h-20v-96-96h124 8v128 64z"/><path d="m2004-64v-192h124v96 128h-124z"/><path d="m2128-32v96h-124v-96z"/><path d="m2128-256v96z"/><path d="m1800 32v128 96z"/><path d="m1480-160v-96h224v224h-224z"/><path d="m1704-32v224h-224v-128-96z"/><path d="m1704 192v64h-84-140v-64z"/><path d="m1704-256h88v192 32h-88z"/><path d="m1792-32v64 160h-88v-224z"/><path d="m1792 192v64h-88v-64z"/><path d="m1472-256v96z"/><path d="m1480 64v128 64h-8v-64-128z"/><path d="m1108-256h-132-92 92z"/><path d="m1332-256h-160-64 64z"/><path d="m1172 32v160 64z"/><path d="m1172-64v-192h160 64v224h-224z"/><path d="m1396-32v224h-224v-160-64z"/><path d="m1396 192v64h-224v-64z"/><path d="m1396-256h76v96 128h-76z"/><path d="m1472-32v96 128h-76v-224z"/><path d="m1472 192v64h-76v-64z"/><path d="m1164-64h-188v-192h132 64v192z"/><path d="m976 64v-96-32h188v96 128h-188z"/><path d="m1164 160v96h-44-144v-96z"/><path d="m884-160v-96h92v192 32h-92z"/><path d="m976-32v96h-92v-96z"/><path d="m896 256h-20v-64-128h8 92v96 96z"/><path d="m884-160v128 96z"/><path d="m1164-64v96z"/><path d="m224-256h-224z"/><path d="m448-256h-224z"/><path d="m672-256h-224z"/><path d="m0-32v-160-64h224v224z"/><path d="m0 192v-160-64h224v224z"/><path d="m224 256h-224v-64h224z"/><path d="m224-32v-224h224v224z"/><path d="m224 192v-224h224v224z"/><path d="m448 256h-224v-64h224z"/><path d="m448-32v-224h224v224z"/><path d="m448 192v-224h224v224z"/><path d="m672 256h-224v-64h224z"/><path d="m876-256v96 128h-204v-224z"/><path d="m876-32v96 128h-204v-224z"/><path d="m876 192v64h-204v-64z"/><path d="m0-256v64z"/><path d="m0 32v224z"/><path d="m0-192v224z"/><path d="m0-832v64z"/><path d="m0-1408v64z"/><path d="m0-1120v224z"/><path d="m0-1344v224z"/><path d="m0-1984v64z"/><path d="m4064 32v128 96-64z"/><path d="m4064-192v128 96-64z"/><path d="m4064-192v-64 96 96z"/><path d="m4064-544v128 96-64z"/><path d="m4064-768v128 96-64z"/><path d="m4064-768v-64 96 96z"/><path d="m4064-1120v160 64-64z"/><path d="m4064-1344v160 64-64z"/><path d="m4064-1344v-64 64 160z"/><path d="m4064-1984v64z"/><path d="m4064-1696v224-64z"/><path d="m4064-1920v224-64z"/><path d="m672-832h-224z"/><path d="m720-832h-48z"/><path d="m976-832h-224 144z"/><path d="m1232-832h-224 112z"/><path d="m1252-832h-20z"/><path d="m1552-832h-44z"/><path d="m1508-832h-224 60z"/><path d="m1868-832h-60z"/><path d="m1808-832h-224 208z"/><path d="m2204-832h-80z"/><path d="m2124-832h-224 116z"/><path d="m2460-832h-224 4z"/><path d="m2556-832h-96z"/><path d="m2812-832h-224 100z"/><path d="m2924-832h-112z"/><path d="m3180-832h-224 180z"/><path d="m3308-832h-128z"/><path d="m4064-832h-52z"/><path d="m3564-832h-224 20z"/><path d="m3788-832h-224 20z"/><path d="m4012-832h-224 20z"/><path d="m4064-1408h-32z"/><path d="m224-1408h-224z"/><path d="m448-1408h-224z"/><path d="m672-1408h-224z"/><path d="m896-1408h-224z"/><path d="m1120-1408h-224z"/><path d="m1344-1408h-224z"/><path d="m1568-1408h-224z"/><path d="m1792-1408h-224z"/><path d="m2016-1408h-224z"/><path d="m2240-1408h-224z"/><path d="m2464-1408h-224z"/><path d="m2688-1408h-224z"/><path d="m2912-1408h-224z"/><path d="m3136-1408h-224z"/><path d="m3360-1408h-224z"/><path d="m3584-1408h-224z"/><path d="m3808-1408h-224z"/><path d="m4032-1408h-224z"/><path d="m224-1472 3840-224v-224-64h-32-128-96-128-96-224-224-224-224-224-224-224-224-224-224-224-224-224-224-224-224v64 224 224z"/><path d="m224-1472h224 224 224 224 224 224 224 224 224 224 224 224 224 88 136 88 136 88 136 88 136 32v-224z"/><path d="m224-1984 3448 512h-88-136-88-136-88-224-224-224-224-224-224-224-224-224-224-224-224-224-224v-224-224-64z"/><path d="m224-1984h224 224 224 224 224 224 224 224 224 224 224 224 224 224 224 96 128 96 128 32v64 224 224h-32-136-88-136z"/><path d="m3224-1472h-88z"/><path d="m4032-1472h32-160-8z"/><path d="m3904-1984h-96-128z"/><path d="m224-1984h-224z"/><path d="m448-1984h-224z"/><path d="m672-1984h-224z"/><path d="m896-1984h-224z"/><path d="m1120-1984h-224z"/><path d="m1344-1984h-224z"/><path d="m1568-1984h-224z"/><path d="m1792-1984h-224z"/><path d="m2016-1984h-224z"/><path d="m2240-1984h-224z"/><path d="m2464-1984h-224z"/><path d="m2688-1984h-224z"/><path d="m2912-1984h-224z"/><path d="m3136-1984h-224z"/><path d="m3360-1984h-224z"/><path d="m3584-1984h-224z"/><path d="m4064-1984h-32z"/><path d="m224-1472h-224z"/><path d="m448-1472h-224z"/><path d="m672-1472h-224z"/><path d="m896-1472h-224z"/><path d="m1120-1472h-224z"/><path d="m1344-1472h-224z"/><path d="m1568-1472h-224z"/><path d="m1792-1472h-224z"/><path d="m2016-1472h-224z"/><path d="m2240-1472h-224z"/><path d="m2464-1472h-224z"/><path d="m2688-1472h-224z"/><path d="m2912-1472h-224z"/><path d="m3136-1472h-224z"/><path d="m3360-1472h-136-88z"/><path d="m3584-1472h-136-88z"/><path d="m3808-1472h-136-88z"/><path d="m4032-1472h-136-88z"/><path d="m224-896 3840-64v-160-64-160-64h-32-224-224-224-224-224-224-224-224-224-224-224-224-224-224-224-224-224-224v64 224 224z"/><path d="m224-896h224 224 224 224 224 224 224 224 224 224 224 224 224 224 224 224 224 32v-64z"/><path d="m224-1408 3840 64v160 64 160 64h-32-224-224-224-224-224-224-224-224-224-224-224-224-224-224-224-224-224-224v-224-224-64z"/><path d="m224-1408h224 224 224 224 224 224 224 224 224 224 224 224 224 224 224 224 224 32v64z"/><path d="m4064-896h-32z"/><path d="m224-896h-224z"/><path d="m448-896h-224z"/><path d="m672-896h-224z"/><path d="m896-896h-224z"/><path d="m1120-896h-224z"/><path d="m1344-896h-224z"/><path d="m1568-896h-224z"/><path d="m1792-896h-224z"/><path d="m2016-896h-224z"/><path d="m2240-896h-224z"/><path d="m2464-896h-224z"/><path d="m2688-896h-224z"/><path d="m2912-896h-224z"/><path d="m3136-896h-224z"/><path d="m3360-896h-224z"/><path d="m3584-896h-224z"/><path d="m3808-896h-224z"/><path d="m4032-896h-224z"/><path d="m752-320h224z"/><path d="m720-320h-48z"/><path d="m224-320h-224z"/><path d="m448-320h-224z"/><path d="m672-320h-224z"/><path d="m1284-320h188-48z"/><path d="m1232-320h-224z"/><path d="m1808-320h-224z"/><path d="m1480-320h28 44z"/><path d="m1868-320h-60z"/><path d="m1252-320h-20z"/><path d="m1508-320h-28-8-188z"/><path d="m2124-320h-224z"/><path d="m2836-320h-24z"/><path d="m2460-320h-224z"/><path d="m2844-320h80z"/><path d="m2556-320h-96z"/><path d="m2812-320h-224z"/><path d="m2204-320h-52-28z"/><path d="m3180-320h-224z"/><path d="m4064-320h-52z"/><path d="m3564-320h-224z"/><path d="m3788-320h-224z"/><path d="m4012-320h-224z"/><path d="m3308-320h-16-112z"/><path d="m1900-544v224-64z"/><path d="m1900-768v224-64z"/><path d="m1900-832v64z"/><path d="m2956-544v224-64z"/><path d="m2956-768v224-64z"/><path d="m2956-832v64z"/><path d="m3340-832v64z"/><path d="m3340-544v224-64z"/><path d="m3340-768v224-64z"/><path d="m3564-320h224 224 52v-96-128-96-128-64h-52-224-224-224v64 224 224z"/><path d="m3564-832h224 224 52v64 128 96 128 96h-52-224-224-224v-224-224-64z"/><path d="m3308-544v224-64z"/><path d="m3308-768v224-64z"/><path d="m3308-832v64z"/><path d="m3180-320h128v-224-224-64h-128-224v64 224 224z"/><path d="m3180-832h128v64 224 224h-128-224v-224-224-64z"/><path d="m2556-832v64z"/><path d="m2556-544v224-64z"/><path d="m2556-768v224-64z"/><path d="m2588-832v64z"/><path d="m2588-544v224-64z"/><path d="m2588-768v224-64z"/><path d="m2924-544v224-64z"/><path d="m2924-768v224-64z"/><path d="m2924-832v64z"/><path d="m2812-832h-224v64 224 224h224 24 8 80v-224-224-64z"/><path d="m2844-320h-8-24-224v-224-224-64h224 112v64 224 224z"/><path d="m2236-832v64z"/><path d="m2236-544v224-64z"/><path d="m2236-768v224-64z"/><path d="m2460-320h-224v-224-224-64h224 96v64 224 224z"/><path d="m2460-832h-224v64 224 224h224 96v-224-224-64z"/><path d="m2204-544v224-64z"/><path d="m2204-768v224-64z"/><path d="m2204-832v64z"/><path d="m2124-320h80v-224-224-64h-80-224v64 224 224z"/><path d="m2124-832h80v64 224 224h-80-224v-224-224-64z"/><path d="m976-544v224-64z"/><path d="m976-768v224-64z"/><path d="m976-832v64z"/><path d="m1552-832v64z"/><path d="m1552-544v224-64z"/><path d="m1552-768v224-64z"/><path d="m1868-544v224-64z"/><path d="m1868-768v224-64z"/><path d="m1868-832v64z"/><path d="m1584-832v64z"/><path d="m1584-544v224-64z"/><path d="m1584-768v224-64z"/><path d="m1808-320h-224v-224-224-64h224 60v64 224 224z"/><path d="m1808-832h-224v64 224 224h224 60v-224-224-64z"/><path d="m1252-544v224-64z"/><path d="m1252-768v224-64z"/><path d="m1252-832v64z"/><path d="m1284-832v64z"/><path d="m1284-544v224-64z"/><path d="m1284-768v224-64z"/><path d="m1508-832h-224v64 224 224h188 8 28 44v-224-224-64z"/><path d="m1508-320h-28-8-188v-224-224-64h224 44v64 224 224z"/><path d="m1008-832v64z"/><path d="m1008-544v224-64z"/><path d="m1008-768v224-64z"/><path d="m1232-832h-224v64 224 224h224 20v-224-224-64z"/><path d="m1232-320h-224v-224-224-64h224 20v64 224 224z"/><path d="m720-544v224-64z"/><path d="m720-768v224-64z"/><path d="m720-832v64z"/><path d="m752-832v64z"/><path d="m752-544v224-64z"/><path d="m752-768v224-64z"/><path d="m976-320v-224-224-64h-224v64 224 224z"/><path d="m976-832v64 224 224h-224v-224-224-64z"/><path d="m224-832h224 224 48v64 224 224h-48-224-224-224v-224-224-64z"/><path d="m224-320h224 224 48v-224-224-64h-48-224-224-224v64 224 224z"/><path d="m884 64v192h-8v-192z"/><path d="m876 64v192h8v-192z"/><path d="m224 256h224 224 204v-192-224-96h-204-224-224-224v64 224 224z"/><path d="m224-256h224 224 204v96 224 192h-204-224-224-224v-224-224-64z"/><path d="m884 64v-224-96h92v192 320h-80-12z"/><path d="m976-64v-192h-92v96 224 192h12 80z"/><path d="m1472 64v192h8v-192z"/><path d="m1480 64v192h-8v-192z"/><path d="m1164 32v-96h-188v320h144 44z"/><path d="m976-64h188v96 224h-44-144z"/><path d="m1164-64h-188v-192h132 64v192z"/><path d="m1108-256h-132v192h188 8v-192z"/><path d="m1472 64v-224-96h-140-160v192 96 224h224 76z"/><path d="m1172 32v-96-192h160 140v96 224 192h-76-224z"/><path d="m1480 64v-224-96h224 88v192 96 224h-172-140z"/><path d="m1792 32v-96-192h-88-224v96 224 192h140 172z"/><path d="m2004-64h-204v96 224h204z"/><path d="m1800 32v-96h204v320h-204z"/><path d="m1928-256h76v192h-204-8v-192z"/><path d="m1800-64h204v-192h-76-136v192z"/><path d="m2136 64v192h-8v-192z"/><path d="m2128 64v192h8v-192z"/><path d="m2128 64v-224-96h-124v192 320h20 104z"/><path d="m2004-64v-192h124v96 224 192h-104-20z"/><path d="m2472 32v-96-192h-112-224v96 224 192h112 224z"/><path d="m2136 64v-224-96h224 112v192 96 224h-224-112z"/><path d="m2472-64h8v-192h-8z"/><path d="m2472-256h8v192h-8z"/><path d="m2844 64v192h-8v-192z"/><path d="m2836 64v192h8v-192z"/><path d="m2836 64v-224-96h-28-224-104v192 96 224h224 132z"/><path d="m2480 32v-96-192h104 224 28v96 224 192h-132-224z"/><path d="m2928 256h224 60v-224-96-192h-144-224v96 224 192z"/><path d="m3068-256h144v192 96 224h-60-224-84v-192-224-96z"/><path d="m3212-64h8v-192h-8z"/><path d="m3212-256h8v192h-8z"/><path d="m3444 256h224 224 172v-96-128-96-128-64h-100-224-224-224-72v192 96 224z"/><path d="m3292-256h224 224 224 100v64 128 96 128 96h-172-224-224-224v-224-96-192z"/><path d="m672-256h-224z"/><path d="m1108-256h-132-92 12z"/><path d="m1332-256h-160-64 12z"/><path d="m1704-256h-224 88z"/><path d="m1928-256h-136-88 88z"/><path d="m2360-256h-224 104z"/><path d="m2584-256h-104-8-112 104z"/><path d="m2808-256h-224 104z"/><path d="m3068-256h-224 68z"/><path d="m3292-256h-72-8-144 68z"/><path d="m3516-256h-224 68z"/><path d="m3740-256h-224 68z"/><path d="m3964-256h-224 68z"/><path d="m976 256h-80z"/><path d="m1792 256h-144-28z"/><path d="m2472 256h-152-72z"/><path d="m3212 256h-60z"/><path d="m4064 256h-172z"/><path d="m3220 32v224-96z"/><path d="m3212-64v96z"/><path d="m2480 32v224-96z"/><path d="m2836-256v96z"/><path d="m2844-160v224-96z"/><path d="m2472-64v96z"/><path d="m2128-256v96z"/><path d="m2136-160v224-96z"/><path d="m1480-160v224-96z"/><path d="m1792-64v96z"/><path d="m1800 32v224-96z"/><path d="m1472-256v96z"/><path d="m1164-64v96z"/><path d="m1172 32v224-96z"/><path d="m876-256v96z"/><path d="m884-160v224-96z"/><path d="m3444 256h-224z"/><path d="m3668 256h-224z"/><path d="m3892 256h-224z"/><path d="m2704 256h-224z"/><path d="m2928 256h-84-8-132 132z"/><path d="m3152 256h-224 128z"/><path d="m2024 256h-20-204 204z"/><path d="m2248 256h-112-8-104 112z"/><path d="m1396 256h-224z"/><path d="m1620 256h-140-8-76 76 8z"/><path d="m224 256h-224z"/><path d="m448 256h-224z"/><path d="m672 256h-224z"/><path d="m896 256h-12-8-204 204z"/><path d="m1120 256h-144-80 80z"/><path d="m2136-256v96z"/><path d="m2836-160v224-96z"/><path d="m4064-256h-100z"/><path d="m3220-64v32 64z"/><path d="m3212 32v224-64z"/><path d="m3212-64h8z"/><path d="m2844 64h-8z"/><path d="m2844-256v96z"/><path d="m2836-256h-28z"/><path d="m2480-64v32 64z"/><path d="m2472 32v224-64z"/><path d="m2472-64h8z"/><path d="m876-160v224-96z"/><path d="m1480-256v96z"/><path d="m2004-256h124-124-76z"/><path d="m1792 32v224-64z"/><path d="m2128-160v224-96z"/><path d="m2136 64h-8z"/><path d="m1792-64h8z"/><path d="m1800-64v96z"/><path d="m1472-160v224-96z"/><path d="m1480 64h-8z"/><path d="m1472-256h-76-64z"/><path d="m1172-64v32 64z"/><path d="m884-256v96z"/><path d="m1164-64h8z"/><path d="m1164 32v224-96z"/><path d="m884 64h-8z"/><path d="m876-256h-204z"/><path d="m224-832h-224z"/><path d="m448-832h-224z"/><path d="m0-1408h224z"/><path d="m224-1408h224z"/><path d="m448-1408h224z"/><path d="m672-1408h224z"/><path d="m896-1408h224z"/><path d="m1120-1408h224z"/><path d="m1344-1408h224z"/><path d="m1568-1408h224z"/><path d="m1792-1408h224z"/><path d="m2016-1408h224z"/><path d="m2240-1408h224z"/><path d="m2464-1408h224z"/><path d="m2688-1408h224z"/><path d="m2912-1408h224z"/><path d="m3136-1408h224z"/><path d="m3360-1408h224z"/><path d="m3584-1408h224z"/><path d="m3808-1408h224z"/><path d="m4064-1408h-32z"/><path d="m0-1472h224z"/><path d="m224-1472h224z"/><path d="m448-1472h224z"/><path d="m672-1472h224z"/><path d="m896-1472h224z"/><path d="m1120-1472h224z"/><path d="m1344-1472h224z"/><path d="m1568-1472h224z"/><path d="m1792-1472h224z"/><path d="m2016-1472h224z"/><path d="m2240-1472h224z"/><path d="m2464-1472h224z"/><path d="m2688-1472h224z"/><path d="m2912-1472h224z"/><path d="m3224-1472h-88z"/><path d="m0-1984h224z"/><path d="m224-1984h224z"/><path d="m448-1984h224z"/><path d="m672-1984h224z"/><path d="m896-1984h224z"/><path d="m1120-1984h224z"/><path d="m1344-1984h224z"/><path d="m1568-1984h224z"/><path d="m1792-1984h224z"/><path d="m2016-1984h224z"/><path d="m2240-1984h224z"/><path d="m2464-1984h224z"/><path d="m2688-1984h224z"/><path d="m2912-1984h224z"/><path d="m3136-1984h224z"/><path d="m3360-1984h224z"/><path d="m3680-1984h-96z"/><path d="m0-896h224z"/><path d="m224-896h224z"/><path d="m448-896h224z"/><path d="m672-896h224z"/><path d="m896-896h224z"/><path d="m1120-896h224z"/><path d="m1344-896h224z"/><path d="m1568-896h224z"/><path d="m1792-896h224z"/><path d="m2016-896h224z"/><path d="m2240-896h224z"/><path d="m2464-896h224z"/><path d="m2688-896h224z"/><path d="m2912-896h224z"/><path d="m3136-896h224z"/><path d="m3360-896h224z"/><path d="m3584-896h224z"/><path d="m3808-896h224z"/><path d="m4064-896h-32z"/><path d="m224-256h-224z"/><path d="m448-256h-224z"/><path d="m0 256h224z"/><path d="m224 256h224z"/><path d="m448 256h224z"/><path d="m672 256h204 8 12z"/><path d="m976 256h-80z"/><path d="m976 256h144 44z"/><path d="m0 256v-192-32z"/><path d="m0 32v-192-32z"/><path d="m0-256v64z"/><path d="m0-896v-224z"/><path d="m0-1120v-96-128z"/><path d="m0-1408v64z"/><path d="m4064-64v128 96-128z"/><path d="m4064-640v128 96-128z"/><path d="m4064-1184v64 160-160z"/><path d="m4064-1696v160 64z"/><path d="m4064-1920v160 64z"/><path d="m3672-1472h8-8-224z"/><path d="m3448-1472h-224 136z"/><path d="m3672-1472h-224 136z"/><path d="m3896-1472h-216-8 136z"/><path d="m3680-1984v64z"/><path d="m4064-1984h-32-128z"/><path d="m3904-1984h-224v64 160h224z"/><path d="m3680-1760v64 160h224v-224z"/><path d="m3680-1536v64h216 8v-64z"/><path d="m4064-1760v-160-64h-160v224z"/><path d="m4064-1536v-160-64h-160v224z"/><path d="m4064-1472v-64h-160v64z"/><path d="m3288-1656h-64v32h64z"/><path d="m2864-1832h-64v32h64z"/><path d="m2456-1648h-64v32h64z"/><path d="m2068-1840h-64v32h64z"/><path d="m1708-1640h-64v32h64z"/><path d="m1372-1848h-64v32h64z"/><path d="m1068-1632h-64v32h64z"/><path d="m792-1856h-64v32h64z"/><path d="m448-1824h-192v192h192z"/><path d="m4064-960h-224 160z"/><path d="m736-1312v96z"/><path d="m3840-1312v-32z"/><path d="m4064-1120v-64-160h-224v32 192z"/><path d="m3840-1088v96 32h224v-160h-224z"/><path d="m3840-1312h-192z"/><path d="m960-992h-224z"/><path d="m1184-992h-224z"/><path d="m1408-992h-224z"/><path d="m1632-992h-224z"/><path d="m1856-992h-224z"/><path d="m2080-992h-224z"/><path d="m2304-992h-224z"/><path d="m2528-992h-224z"/><path d="m2752-992h-224z"/><path d="m2976-992h-224z"/><path d="m3200-992h-224z"/><path d="m3424-992h-224z"/><path d="m3648-992h-224z"/><path d="m960-1312h-224v96 128h224z"/><path d="m736-1088v96h224v-96z"/><path d="m1184-1312h-224v224h224z"/><path d="m960-1088v96h224v-96z"/><path d="m1408-1312h-224v224h224z"/><path d="m1184-1088v96h224v-96z"/><path d="m1632-1312h-224v224h224z"/><path d="m1408-1088v96h224v-96z"/><path d="m1856-1312h-224v224h224z"/><path d="m1632-1088v96h224v-96z"/><path d="m2080-1312h-224v224h224z"/><path d="m1856-1088v96h224v-96z"/><path d="m2304-1312h-224v224h224z"/><path d="m2080-1088v96h224v-96z"/><path d="m2528-1312h-224v224h224z"/><path d="m2304-1088v96h224v-96z"/><path d="m2752-1312h-224v224h224z"/><path d="m2528-1088v96h224v-96z"/><path d="m2976-1312h-224v224h224z"/><path d="m2752-1088v96h224v-96z"/><path d="m3200-1312h-224v224h224z"/><path d="m2976-1088v96h224v-96z"/><path d="m3424-1312h-224v224h224z"/><path d="m3200-1088v96h224v-96z"/><path d="m3648-1312h-224v224h224z"/><path d="m3424-1088v96h224v-96z"/><path d="m3840-1088v-32-192h-192v224z"/><path d="m3840-992v-96h-192v96z"/><path d="m448-1248h-192v192h192z"/><path d="m3968-736h-224v96 128h224z"/><path d="m3744-512v96h224v-96z"/><path d="m4064-512v-128-96h-96v224z"/><path d="m4064-416v-96h-96v96z"/><path d="m3744-736v96z"/><path d="m4064-736h-64-32z"/><path d="m3968-416h-224z"/><path d="m448-672h-192v192h192z"/><path d="m3832-160v96z"/><path d="m4064 160h-232 168z"/><path d="m4064 64v-128-96h-232v96 128z"/><path d="m3832 160h232v-96h-232z"/><path d="m3440-32h-64v64h64z"/><path d="m3056-32h-64v64h64z"/><path d="m2688-32h-64v64h64z"/><path d="m2332-32h-64v64h64z"/><path d="m1992-32h-64v64h64z"/><path d="m1664-32h-64v64h64z"/><path d="m1352-32h-64v64h64z"/><path d="m1052-32h-64v64h64z"/><path d="m768-32h-64v64h64z"/><path d="m448-96h-192v192h192z"/><path d="m0-544v224z"/><path d="m0-768v224z"/><path d="m0-832v64z"/><path d="m0-1696v224z"/><path d="m0-1920v224z"/><path d="m0-1984v64z"/><path d="m1068-1600h-64z"/><path d="m728-1856h64z"/><path d="m1708-1640v32z"/><path d="m2800-1800v-32z"/><path d="m3224-1624v-32z"/><path d="m3288-1656v32z"/><path d="m3224-1656h64z"/><path d="m3288-1624h-64z"/><path d="m2864-1832v32z"/><path d="m2864-1800h-64z"/><path d="m2800-1832h64z"/><path d="m2392-1616v-32z"/><path d="m2456-1648v32z"/><path d="m2392-1648h64z"/><path d="m2456-1616h-64z"/><path d="m2068-1840v32z"/><path d="m2004-1808v-32z"/><path d="m2068-1808h-64z"/><path d="m2004-1840h64z"/><path d="m792-1856v32z"/><path d="m1308-1816v-32z"/><path d="m1644-1608v-32z"/><path d="m1644-1640h64z"/><path d="m1708-1608h-64z"/><path d="m1372-1848v32z"/><path d="m1372-1816h-64z"/><path d="m1308-1848h64z"/><path d="m1068-1632v32z"/><path d="m1004-1600v-32z"/><path d="m1004-1632h64z"/><path d="m728-1824v-32z"/><path d="m792-1824h-64z"/></g><g id="b"><path d="m4064-160v96z"/><path d="m4064-160v-96z"/><path d="m4064-736v96z"/><path d="m4064-736v-96z"/><path d="m4064-1344v160z"/><path d="m4064-1344v-64z"/><path d="m4064-1984v64z"/><path d="m720-832h-48z"/><path d="m1252-832h-20z"/><path d="m1552-832h-44z"/><path d="m1868-832h-60z"/><path d="m2204-832h-80z"/><path d="m2464-832h92-96z"/><path d="m2912-832h12-112z"/><path d="m3308-832h-128z"/><path d="m4032-832h32-52z"/><path d="m672-832h-224z"/><path d="m896-832h-144-32-48z"/><path d="m1120-832h-112-32-80z"/><path d="m1344-832h-60-32-20-112z"/><path d="m1568-832h-16-44-164z"/><path d="m1792-832h-208-16z"/><path d="m2016-832h-116-32-60-16z"/><path d="m2240-832h-4-32-80-108z"/><path d="m2464-832h-4-220z"/><path d="m2688-832h-100-32-92z"/><path d="m2912-832h-100-124z"/><path d="m3136-832h-180-32-12z"/><path d="m3360-832h-20-32-128-44z"/><path d="m3584-832h-20-204z"/><path d="m3808-832h-20-204z"/><path d="m4032-832h-20-204z"/><path d="m4000-1472h64z"/><path d="m3448-1472h-224z"/><path d="m3904-1472h96-104z"/><path d="m3680-1696v160 64-64z"/><path d="m3680-1920v160 64-64z"/><path d="m3680-1760v-160-64h224v224z"/><path d="m3680-1536v-160-64h224v224z"/><path d="m3904-1472h-8-216v-64h224z"/><path d="m4000-1984v224h-96v-224z"/><path d="m4000-1760v224h-96v-224z"/><path d="m4000-1536v64h-96v-64z"/><path d="m4000-1760v-224h64v64 160z"/><path d="m4000-1536v-224h64v64 160z"/><path d="m4064-1472h-64v-64h64z"/><path d="m4064-1984h-64z"/><path d="m3904-1984h-224z"/><path d="m1068-1600h-64z"/><path d="m728-1856h64z"/><path d="m352-1888h-96v-32h96z"/><path d="m352-1920h-96v32h96z"/><path d="m1708-1640v32z"/><path d="m2800-1800v-32z"/><path d="m3224-1624v-32z"/><path d="m3288-1624h-64v-32h64z"/><path d="m3288-1656v32z"/><path d="m3224-1656h64z"/><path d="m3288-1624h-64z"/><path d="m2864-1800h-64v-32h64z"/><path d="m2864-1832v32z"/><path d="m2864-1800h-64z"/><path d="m2800-1832h64z"/><path d="m2392-1616v-32z"/><path d="m2456-1616h-64v-32h64z"/><path d="m2456-1648v32z"/><path d="m2392-1648h64z"/><path d="m2456-1616h-64z"/><path d="m2068-1840v32z"/><path d="m2068-1808h-64v-32h64z"/><path d="m2004-1808v-32z"/><path d="m2068-1808h-64z"/><path d="m2004-1840h64z"/><path d="m792-1856v32z"/><path d="m1308-1816v-32z"/><path d="m1708-1608h-64v-32h64z"/><path d="m1372-1816h-64v-32h64z"/><path d="m1644-1608v-32z"/><path d="m1644-1640h64z"/><path d="m1708-1608h-64z"/><path d="m1372-1848v32z"/><path d="m1372-1816h-64z"/><path d="m1308-1848h64z"/><path d="m1068-1600h-64v-32h64z"/><path d="m1068-1632v32z"/><path d="m1004-1600v-32z"/><path d="m1004-1632h64z"/><path d="m448-1824v192z"/><path d="m792-1824h-64v-32h64z"/><path d="m728-1824v-32z"/><path d="m792-1824h-64z"/><path d="m448-1632h-176v-192h176z"/><path d="m256-1632v-192z"/><path d="m272-1632h176-192z"/><path d="m272-1824h-16 192z"/><path d="m352-1568h-96v32h96z"/><path d="m352-1536h-96v-32h96z"/><path d="m736-1216v128 96-96z"/><path d="m3840-960v-32z"/><path d="m4000-1344h-160 224z"/><path d="m4000-1120v-224h64v160 64z"/><path d="m4064-960h-64v-160h64z"/><path d="m3840-1120v-192-32h160v224z"/><path d="m4000-960h-160v-32-96-32h160z"/><path d="m736-1088v-128-96h224v224z"/><path d="m960-992h-224v-96h224z"/><path d="m960-1088v-224h224v224z"/><path d="m1184-992h-224v-96h224z"/><path d="m1184-1088v-224h224v224z"/><path d="m1408-992h-224v-96h224z"/><path d="m1408-1088v-224h224v224z"/><path d="m1632-992h-224v-96h224z"/><path d="m1632-1088v-224h224v224z"/><path d="m1856-992h-224v-96h224z"/><path d="m1856-1088v-224h224v224z"/><path d="m2080-992h-224v-96h224z"/><path d="m2080-1088v-224h224v224z"/><path d="m2304-992h-224v-96h224z"/><path d="m2304-1088v-224h224v224z"/><path d="m2528-992h-224v-96h224z"/><path d="m2528-1088v-224h224v224z"/><path d="m2752-992h-224v-96h224z"/><path d="m2752-1088v-224h224v224z"/><path d="m2976-992h-224v-96h224z"/><path d="m2976-1088v-224h224v224z"/><path d="m3200-992h-224v-96h224z"/><path d="m3200-1088v-224h224v224z"/><path d="m3424-992h-224v-96h224z"/><path d="m3424-1088v-224h224v224z"/><path d="m3648-992h-224v-96h224z"/><path d="m3840-1312v192 32h-192v-224z"/><path d="m3840-1088v96h-192v-96z"/><path d="m960-1312h-224z"/><path d="m1184-1312h-224z"/><path d="m1408-1312h-224z"/><path d="m1632-1312h-224z"/><path d="m1856-1312h-224z"/><path d="m2080-1312h-224z"/><path d="m2304-1312h-224z"/><path d="m2528-1312h-224z"/><path d="m2752-1312h-224z"/><path d="m2976-1312h-224z"/><path d="m3200-1312h-224z"/><path d="m3424-1312h-224z"/><path d="m3648-1312h-224z"/><path d="m3840-992h-192z"/><path d="m448-1248v192z"/><path d="m352-1344h-96v32h96z"/><path d="m352-1312h-96v-32h96z"/><path d="m448-1056h-176v-192h176z"/><path d="m352-992h-96v32h96z"/><path d="m352-960h-96v-32h96z"/><path d="m256-1056v-192z"/><path d="m272-1248h-16 192z"/><path d="m272-1056h176-192z"/><path d="m224-320h-224z"/><path d="m448-320h-224z"/><path d="m672-320h-224z"/><path d="m896-320h-144 224z"/><path d="m1472-320h-48z"/><path d="m1472-320h8z"/><path d="m1808-320h-104-120z"/><path d="m1232-320h-32-192z"/><path d="m2812-320h24-68-168z"/><path d="m2812-320h-212-12z"/><path d="m2836-320h8z"/><path d="m2460-320h-84-140z"/><path d="m2124-320h-196-28z"/><path d="m3564-320h-48-176z"/><path d="m3788-320h-48-176z"/><path d="m4012-320h-48-176z"/><path d="m3180-320h-112-112z"/><path d="m4012-320h52-100z"/><path d="m1900-832v64z"/><path d="m2956-832v64z"/><path d="m3340-832v64z"/><path d="m4000-512v-224h64v96 128z"/><path d="m4064-416h-64v-96h64z"/><path d="m3744-512v-128-96h224v224z"/><path d="m3968-416h-224v-96h224z"/><path d="m4000-736v224h-32v-224z"/><path d="m4000-512v96h-32v-96z"/><path d="m3744-640v128 96-96z"/><path d="m3968-736h-224z"/><path d="m4000-416h64-96z"/><path d="m3308-608v-160-64h32v64 160z"/><path d="m3308-384v-160-64h32v64 160z"/><path d="m3340-320h-32v-64h32z"/><path d="m3308-544v160 64z"/><path d="m3308-768v160 64z"/><path d="m2556-544v160 64z"/><path d="m2556-768v160 64z"/><path d="m2924-608v-160-64h32v64 160z"/><path d="m2924-384v-160-64h32v64 160z"/><path d="m2956-320h-32v-64h32z"/><path d="m2556-608v-160-64h32v64 160z"/><path d="m2556-384v-160-64h32v64 160z"/><path d="m2588-320h-32v-64h32z"/><path d="m2588-832v64z"/><path d="m2924-544v160 64z"/><path d="m2924-768v160 64z"/><path d="m2236-832v64z"/><path d="m2204-608v-160-64h32v64 160z"/><path d="m2204-384v-160-64h32v64 160z"/><path d="m2236-320h-32v-64h32z"/><path d="m2204-544v160 64z"/><path d="m2204-768v160 64z"/><path d="m976-544v160 64z"/><path d="m976-768v160 64z"/><path d="m1552-544v160 64z"/><path d="m1552-768v160 64z"/><path d="m1552-608v-160-64h16 16v64 160z"/><path d="m1552-384v-160-64h32v64 160z"/><path d="m1584-320h-32v-64h32z"/><path d="m1868-608v-160-64h32v64 160z"/><path d="m1868-384v-160-64h32v64 160z"/><path d="m1900-320h-32v-64h32z"/><path d="m1868-544v160 64z"/><path d="m1868-768v160 64z"/><path d="m1584-832v64z"/><path d="m1252-544v160 64z"/><path d="m1252-768v160 64z"/><path d="m1252-608v-160-64h32v64 160z"/><path d="m1252-384v-160-64h32v64 160z"/><path d="m1284-320h-32v-64h32z"/><path d="m1284-832v64z"/><path d="m976-608v-160-64h32v64 160z"/><path d="m976-384v-160-64h32v64 160z"/><path d="m1008-320h-32v-64h32z"/><path d="m1008-832v64z"/><path d="m720-544v160 64z"/><path d="m720-768v160 64z"/><path d="m720-608v-160-64h32v64 160z"/><path d="m720-384v-160-64h32v64 160z"/><path d="m752-320h-32v-64h32z"/><path d="m752-832v64z"/><path d="m352-768h-96v32h96z"/><path d="m352-736h-96v-32h96z"/><path d="m448-480h-176v-192h176z"/><path d="m352-384h-96v-32h96z"/><path d="m352-416h-96v32h96z"/><path d="m448-672v192z"/><path d="m272-672h-16 192z"/><path d="m256-480v-192z"/><path d="m272-480h176-192z"/><path d="m1992-32v64z"/><path d="m3056-32v64z"/><path d="m3440-32v64z"/><path d="m3832-64v128 96-96z"/><path d="m4000-160h-168 232z"/><path d="m4000 64v-224h64v96 128z"/><path d="m4064 160h-64v-96h64z"/><path d="m3832 64v-128-96h168v224z"/><path d="m4000 160h-168v-96h168z"/><path d="m3440 32h-64z"/><path d="m3376 32v-64z"/><path d="m3376-32h64z"/><path d="m3440 32h-64v-64h64z"/><path d="m2992 32v-64z"/><path d="m2992-32h64z"/><path d="m3056 32h-64z"/><path d="m3056 32h-64v-64h64z"/><path d="m2624-32h64z"/><path d="m2688-32v64z"/><path d="m2688 32h-64z"/><path d="m2624 32v-64z"/><path d="m2688 32h-64v-64h64z"/><path d="m2268 32v-64z"/><path d="m2332-32v64z"/><path d="m2332 32h-64z"/><path d="m2268-32h64z"/><path d="m2332 32h-64v-64h64z"/><path d="m988 32v-64z"/><path d="m1928 32v-64z"/><path d="m1992 32h-64z"/><path d="m1928-32h64z"/><path d="m1992 32h-64v-64h64z"/><path d="m1600-32h64z"/><path d="m1664-32v64z"/><path d="m1664 32h-64z"/><path d="m1600 32v-64z"/><path d="m1664 32h-64v-64h64z"/><path d="m1288 32v-64z"/><path d="m1352-32v64z"/><path d="m1288-32h64z"/><path d="m1352 32h-64z"/><path d="m1352 32h-64v-64h64z"/><path d="m1052 32h-64z"/><path d="m1052-32v64z"/><path d="m988-32h64z"/><path d="m1052 32h-64v-64h64z"/><path d="m448-96v192z"/><path d="m704 32v-64z"/><path d="m704-32h64z"/><path d="m768-32v64z"/><path d="m768 32h-64z"/><path d="m768 32h-64v-64h64z"/><path d="m272 96h176-192z"/><path d="m448 96h-176v-192h176z"/><path d="m352-192h-96v32h96z"/><path d="m352-160h-96v-32h96z"/><path d="m256 96v-192z"/><path d="m272-96h-16 192z"/><path d="m352 192h-96v-32h96z"/><path d="m352 160h-96v32h96z"/><path d="m4080-1984h-80v512h80z"/><path d="m4064-1344h-64v384h64z"/><path d="m352-1568h-96v32h96z"/><path d="m352-1344h-96v32h96z"/><path d="m352-992h-96v32h96z"/><path d="m4064-736h-64v320h64z"/><path d="m352-768h-96v32h96z"/><path d="m352-1920h-96v32h96z"/><path d="m352-416h-96v32h96z"/><path d="m352-192h-96v32h96z"/><path d="m352 160h-96v32h96z"/><path d="m4064-160h-64v320h64z"/><path d="m4064 256v-96z"/><path d="m4064 160v-96-128z"/><path d="m4064-160v96z"/><path d="m4064-256v64 32z"/><path d="m4064-320v-96z"/><path d="m4064-416v-96-128z"/><path d="m4064-736v96z"/><path d="m4064-832v64 32z"/><path d="m4064-896v-64z"/><path d="m4064-960v-160-64z"/><path d="m4064-1344v160z"/><path d="m4064-1408v64z"/><path d="m1200-320h-224 32z"/><path d="m1424-320h-224 32 20 32z"/><path d="m1704-320h-56-168 72 32z"/><path d="m1928-320h-56-168 104 60 32z"/><path d="m2152-320h-56-168 196z"/><path d="m2376-320h-56-168 52 32z"/><path d="m2600-320h-56-168 84 96 32z"/><path d="m3068-320h-76-148 80 32z"/><path d="m3292-320h-76-148 112z"/><path d="m3516-320h-76-148 16 32z"/><path d="m3740-320h-76-148 48z"/><path d="m3964-320h-76-148 48z"/><path d="m3964-320h100-176z"/><path d="m876-256h-204z"/><path d="m1344-256h128-140z"/><path d="m2016-256h112-124-76z"/><path d="m2836-256h-28z"/><path d="m4032-256h32-100z"/><path d="m672-256h-224z"/><path d="m896-256h-12-8-204z"/><path d="m1120-256h-12-212z"/><path d="m1344-256h-12-212z"/><path d="m1568-256h-88-8-128z"/><path d="m1792-256h-88-136z"/><path d="m2016-256h-88-136z"/><path d="m2240-256h-104-8-112z"/><path d="m2464-256h-104-120z"/><path d="m2688-256h-104-120z"/><path d="m2912-256h-68-8-28-120z"/><path d="m3136-256h-68-156z"/><path d="m3360-256h-68-156z"/><path d="m3584-256h-68-156z"/><path d="m3808-256h-68-156z"/><path d="m4032-256h-68-156z"/><path d="m1396 256h-196-28z"/><path d="m1620 256h-196-28 76 8z"/><path d="m2024 256h-152-72 204z"/><path d="m2248 256h-152-72 104 8z"/><path d="m2704 256h-160-64z"/><path d="m2928 256h-160-64 132 8z"/><path d="m3152 256h-160-64z"/><path d="m3444 256h-4-220z"/><path d="m3668 256h-4-220z"/><path d="m3892 256h-4-220z"/><path d="m3892 256h172-176z"/><path d="m3212 160v-128-96h8v96 128z"/><path d="m3220 256h-4-4v-96h8z"/><path d="m3212-64h8z"/><path d="m3220-64v96z"/><path d="m3212 32v128 96z"/><path d="m2480-64v96z"/><path d="m2836-32v-128-96h8v96 128z"/><path d="m2844 64h-8v-96h8z"/><path d="m2836-160v128 96z"/><path d="m2844 64h-8z"/><path d="m2844-256v96z"/><path d="m2472 160v-128-96h8v96 128z"/><path d="m2480 256h-8v-96h8z"/><path d="m2128-32v-128-96h8v96 128z"/><path d="m2136 64h-8v-96h8z"/><path d="m2472-64h8z"/><path d="m2472 32v128 96z"/><path d="m2136 64h-8z"/><path d="m2128-160v128 96z"/><path d="m2136-256v96z"/><path d="m1480-256v96z"/><path d="m1792 160v-128-96h8v96 128z"/><path d="m1800 256h-8v-96h8z"/><path d="m1792 32v128 96z"/><path d="m1792-64h8z"/><path d="m1800-64v96z"/><path d="m1164 160v-128-96h8v96 128z"/><path d="m1172 256h-8v-96h8z"/><path d="m1472-32v-128-96h8v96 128z"/><path d="m1480 64h-8v-96h8z"/><path d="m1480 64h-8z"/><path d="m1472-160v128 96z"/><path d="m1164-64h8z"/><path d="m1164 32v128 96z"/><path d="m1172-64v96z"/><path d="m876-32v-128-96h8v96 128z"/><path d="m884 64h-8v-96h8z"/><path d="m884 64h-8z"/><path d="m876-160v128 96z"/><path d="m884-256v96z"/><path d="m4064-1472v-64-160z"/><path d="m4064-1696v-64-160z"/><path d="m4064-1984v64z"/><path d="m224-832h-224z"/><path d="m448-832h-224z"/><path d="m448-832h224z"/><path d="m672-832h224z"/><path d="m896-832h224z"/><path d="m1120-832h224z"/><path d="m1344-832h224z"/><path d="m1568-832h224z"/><path d="m1792-832h224z"/><path d="m2016-832h224z"/><path d="m2240-832h224z"/><path d="m2464-832h224z"/><path d="m2688-832h224z"/><path d="m2912-832h224z"/><path d="m3136-832h224z"/><path d="m3360-832h224z"/><path d="m3584-832h224z"/><path d="m3808-832h224z"/><path d="m4064-832h-32z"/><path d="m0-1408h224z"/><path d="m224-1408h224z"/><path d="m448-1408h224z"/><path d="m672-1408h224z"/><path d="m896-1408h224z"/><path d="m1120-1408h224z"/><path d="m1344-1408h224z"/><path d="m1568-1408h224z"/><path d="m1792-1408h224z"/><path d="m2016-1408h224z"/><path d="m2240-1408h224z"/><path d="m2464-1408h224z"/><path d="m2688-1408h224z"/><path d="m2912-1408h224z"/><path d="m3136-1408h224z"/><path d="m3360-1408h224z"/><path d="m3584-1408h224z"/><path d="m3808-1408h224z"/><path d="m4064-1408h-32z"/><path d="m0-1472h224z"/><path d="m224-1472h224z"/><path d="m448-1472h224z"/><path d="m672-1472h224z"/><path d="m896-1472h224z"/><path d="m1120-1472h224z"/><path d="m1344-1472h224z"/><path d="m1568-1472h224z"/><path d="m1792-1472h224z"/><path d="m2016-1472h224z"/><path d="m2240-1472h224z"/><path d="m2464-1472h224z"/><path d="m2688-1472h224z"/><path d="m2912-1472h224z"/><path d="m3224-1472h-88z"/><path d="m4064-1472h-64z"/><path d="m3224-1472h224z"/><path d="m3448-1472h224z"/><path d="m3672-1472h8 216z"/><path d="m4000-1472h-104z"/><path d="m4000-1984h64z"/><path d="m3680-1984h224z"/><path d="m4000-1984h-96z"/><path d="m0-1984h224z"/><path d="m224-1984h224z"/><path d="m448-1984h224z"/><path d="m672-1984h224z"/><path d="m896-1984h224z"/><path d="m1120-1984h224z"/><path d="m1344-1984h224z"/><path d="m1568-1984h224z"/><path d="m1792-1984h224z"/><path d="m2016-1984h224z"/><path d="m2240-1984h224z"/><path d="m2464-1984h224z"/><path d="m2688-1984h224z"/><path d="m2912-1984h224z"/><path d="m3136-1984h224z"/><path d="m3360-1984h224z"/><path d="m3680-1984h-96z"/><path d="m0-896h224z"/><path d="m224-896h224z"/><path d="m448-896h224z"/><path d="m672-896h224z"/><path d="m896-896h224z"/><path d="m1120-896h224z"/><path d="m1344-896h224z"/><path d="m1568-896h224z"/><path d="m1792-896h224z"/><path d="m2016-896h224z"/><path d="m2240-896h224z"/><path d="m2464-896h224z"/><path d="m2688-896h224z"/><path d="m2912-896h224z"/><path d="m3136-896h224z"/><path d="m3360-896h224z"/><path d="m3584-896h224z"/><path d="m3808-896h224z"/><path d="m4064-896h-32z"/><path d="m0-320h224z"/><path d="m224-320h224z"/><path d="m448-320h224z"/><path d="m672-320h48 32 144z"/><path d="m896-320h80z"/><path d="m976-320h224z"/><path d="m1200-320h224z"/><path d="m1424-320h48 8 168z"/><path d="m1648-320h56 168z"/><path d="m1872-320h56 168z"/><path d="m2096-320h56 168z"/><path d="m2320-320h56 168z"/><path d="m2544-320h56 168z"/><path d="m2768-320h68 8 148z"/><path d="m2992-320h76 148z"/><path d="m3216-320h76 148z"/><path d="m3440-320h76 148z"/><path d="m3664-320h76 148z"/><path d="m4064-320h-176z"/><path d="m224-256h-224z"/><path d="m448-256h-224z"/><path d="m448-256h224z"/><path d="m672-256h224z"/><path d="m896-256h224z"/><path d="m1120-256h224z"/><path d="m1344-256h224z"/><path d="m1568-256h224z"/><path d="m1792-256h224z"/><path d="m2016-256h224z"/><path d="m2240-256h224z"/><path d="m2464-256h224z"/><path d="m2688-256h224z"/><path d="m2912-256h224z"/><path d="m3136-256h224z"/><path d="m3360-256h224z"/><path d="m3584-256h224z"/><path d="m3808-256h224z"/><path d="m4064-256h-32z"/><path d="m0 256h224z"/><path d="m224 256h224z"/><path d="m448 256h224z"/><path d="m672 256h224z"/><path d="m976 256h-80z"/><path d="m976 256h188 8 28z"/><path d="m1200 256h196 28z"/><path d="m1424 256h196 28z"/><path d="m1648 256h144 8 72z"/><path d="m1872 256h152 72z"/><path d="m2096 256h152 72z"/><path d="m2320 256h152 8 64z"/><path d="m2544 256h160 64z"/><path d="m2768 256h160 64z"/><path d="m2992 256h160 60 4z"/><path d="m3216 256h4 220z"/><path d="m3440 256h4 220z"/><path d="m3664 256h4 220z"/><path d="m4064 256h-176z"/><path d="m0-256v64z"/><path d="m0-160v192 32z"/><path d="m0-1408v64z"/><path d="m0-1120v224z"/><path d="m352-1920h-96z"/><path d="m256-1920h96z"/><path d="m352-1888v-32z"/><path d="m352-1920v32z"/><path d="m352-1920h-96v32h96z"/><path d="m352-1888h-96v-32h96z"/><path d="m256-1920v32z"/><path d="m256-1888v-32z"/><path d="m256-1888h96z"/><path d="m352-1888h-96z"/><path d="m256-1632v-192z"/><path d="m272-1824v192z"/><path d="m256-1824h16z"/><path d="m272-1632h-16z"/><path d="m352-1536v-32z"/><path d="m352-1568v32z"/><path d="m352-1568h-96v32h96z"/><path d="m352-1536h-96v-32h96z"/><path d="m256-1568v32z"/><path d="m256-1536v-32z"/><path d="m256-1536h96z"/><path d="m352-1536h-96z"/><path d="m352-1568h-96z"/><path d="m256-1568h96z"/><path d="m352-960h-96z"/><path d="m256-960h96z"/><path d="m256-1056v-192z"/><path d="m256-1312v-32z"/><path d="m256-1344v32z"/><path d="m256-992v32z"/><path d="m256-960v-32z"/><path d="m256-1248h16z"/><path d="m352-1344h-96v32h96z"/><path d="m352-1312h-96v-32h96z"/><path d="m352-1312v-32z"/><path d="m352-1344v32z"/><path d="m256-1344h96z"/><path d="m352-1344h-96z"/><path d="m352-1312h-96z"/><path d="m256-1312h96z"/><path d="m272-1056h-16z"/><path d="m272-1248v192z"/><path d="m352-992h-96v32h96z"/><path d="m352-960h-96v-32h96z"/><path d="m256-992h96z"/><path d="m352-992h-96z"/><path d="m352-992v32z"/><path d="m352-960v-32z"/><path d="m352-416v32z"/><path d="m352-384v-32z"/><path d="m352-768v32z"/><path d="m352-736v-32z"/><path d="m272-480h-16z"/><path d="m256-672h16z"/><path d="m352-736h-96v-32h96z"/><path d="m352-768h-96v32h96z"/><path d="m256-736v-32z"/><path d="m256-768v32z"/><path d="m256-736h96z"/><path d="m352-736h-96z"/><path d="m352-768h-96z"/><path d="m256-768h96z"/><path d="m256-480v-192z"/><path d="m272-672v192z"/><path d="m352-416h-96v32h96z"/><path d="m352-384h-96v-32h96z"/><path d="m256-416v32z"/><path d="m256-384v-32z"/><path d="m352-384h-96z"/><path d="m256-384h96z"/><path d="m256-416h96z"/><path d="m352-416h-96z"/><path d="m272 96h-16z"/><path d="m256 96v-192z"/><path d="m256-160v-32z"/><path d="m256-192v32z"/><path d="m256-96h16z"/><path d="m352-160h-96v-32h96z"/><path d="m352-192h-96v32h96z"/><path d="m256-160h96z"/><path d="m352-160h-96z"/><path d="m256-192h96z"/><path d="m352-192h-96z"/><path d="m352-192v32z"/><path d="m352-160v-32z"/><path d="m272-96v192z"/><path d="m352 160h-96v32h96z"/><path d="m352 192h-96v-32h96z"/><path d="m256 160v32z"/><path d="m256 192v-32z"/><path d="m352 192v-32z"/><path d="m352 160v32z"/><path d="m352 192h-96z"/><path d="m256 192h96z"/><path d="m352 160h-96z"/><path d="m256 160h96z"/><path d="m352-1536h-96v-32h96z"/><path d="m256-1536v-32z"/><path d="m352-1568v32z"/><path d="m352-1536h-96z"/><path d="m256-1568h96z"/><path d="m352-1312h-96v-32h96z"/><path d="m256-1312v-32z"/><path d="m352-1344v32z"/><path d="m352-1312h-96z"/><path d="m256-1344h96z"/><path d="m352-960h-96v-32h96z"/><path d="m256-960v-32z"/><path d="m352-992v32z"/><path d="m256-992h96z"/><path d="m352-960h-96z"/><path d="m352-736h-96v-32h96z"/><path d="m256-736v-32z"/><path d="m352-768v32z"/><path d="m352-736h-96z"/><path d="m256-768h96z"/><path d="m352-1888h-96v-32h96z"/><path d="m256-1888v-32z"/><path d="m352-1920v32z"/><path d="m352-1888h-96z"/><path d="m256-1920h96z"/><path d="m352-384h-96v-32h96z"/><path d="m256-384v-32z"/><path d="m352-416v32z"/><path d="m256-416h96z"/><path d="m352-384h-96z"/><path d="m352-160h-96v-32h96z"/><path d="m256-160v-32z"/><path d="m352-192v32z"/><path d="m352-160h-96z"/><path d="m256-192h96z"/><path d="m352 192h-96v-32h96z"/><path d="m256 192v-32z"/><path d="m352 160v32z"/><path d="m256 160h96z"/><path d="m352 192h-96z"/><path d="m0 64v-128-96z"/><path d="m0-256v64 32z"/><path d="m0-544v224z"/><path d="m0-768v224z"/><path d="m0-832v64z"/><path d="m0-896v-192-32z"/><path d="m0-1216v96z"/><path d="m0-1696v224z"/><path d="m0-1920v224z"/><path d="m0-1984v64z"/><path d="m4064 160v96z"/><path d="m4064-64v96 128z"/><path d="m4064-256v64z"/><path d="m4064-416v96z"/><path d="m4064-640v96 128z"/><path d="m4064-832v64z"/><path d="m4064-960v64z"/><path d="m4064-1184v64 160z"/><path d="m4064-1408v64z"/><path d="m4064-960h-64z"/><path d="m4000-960h64z"/><path d="m4064-1184v64 160h-64v-384h64z"/><path d="m4064-1120v-64-160h-64v384h64z"/><path d="m4000-1344h64z"/><path d="m4064-1344h-64z"/><path d="m4000-960v-160-224z"/><path d="m4000-1344v224 160z"/><path d="m4000-736v224 96z"/><path d="m4000-416v-96-224z"/><path d="m4064-416h-64z"/><path d="m4000-416h64z"/><path d="m4064-736h-64z"/><path d="m4000-736h64z"/><path d="m4064-640v96 128h-64v-320h64z"/><path d="m4064-544v-96-96h-64v320h64z"/><path d="m4064-64v96 128h-64v-320h64z"/><path d="m4064 32v-96-96h-64v320h64z"/><path d="m4000-160h64z"/><path d="m4064-160h-64z"/><path d="m4064 160h-64z"/><path d="m4000 160h64z"/><path d="m4000 160v-96-224z"/><path d="m4000-160v224 96z"/><path d="m4064-960h-64z"/><path d="m4000-1344h64z"/><path d="m4064-960h-64v-384h64z"/><path d="m4000-960v-384z"/><path d="m4064-1344v384z"/><path d="m4064-416h-64z"/><path d="m4000-736h64z"/><path d="m4064-416h-64v-320h64z"/><path d="m4000-416v-320z"/><path d="m4064-736v320z"/><path d="m4064 160h-64z"/><path d="m4000-160h64z"/><path d="m4064 160h-64v-320h64z"/><path d="m4000 160v-320z"/><path d="m4064-160v320z"/><path d="m4032-1088v-128-96h-32v96 128z"/><path d="m4000-992h32v-96h-32z"/><path d="m4032-1216v128 96-96z"/><path d="m4000-1312v96z"/><path d="m0 64v192z"/><path d="m0-320v-192-32z"/><path d="m0-1408v64 128z"/><path d="m0-1472v-192-32z"/><path d="m4064 256v-96-128z"/><path d="m4064 32v-96-96-32z"/><path d="m4064-256v64z"/><path d="m4064-320v-96-128z"/><path d="m4064-544v-96-96-32z"/><path d="m4064-832v64z"/><path d="m4064-896v-64-160z"/><path d="m4064-1120v-64-160z"/><path d="m4064-1408v64z"/><path d="m4064-1472v-224z"/><path d="m4064-1696v-224z"/><path d="m4064-1984v64z"/><path d="m224-832h-224z"/><path d="m448-832h-224z"/><path d="m448-832h224z"/><path d="m672-832h224z"/><path d="m896-832h224z"/><path d="m1120-832h224z"/><path d="m1344-832h224z"/><path d="m1568-832h224z"/><path d="m1792-832h224z"/><path d="m2016-832h224z"/><path d="m2240-832h224z"/><path d="m2464-832h224z"/><path d="m2688-832h224z"/><path d="m2912-832h224z"/><path d="m3136-832h224z"/><path d="m3360-832h224z"/><path d="m3584-832h224z"/><path d="m3808-832h224z"/><path d="m4064-832h-32z"/><path d="m0-1408h224z"/><path d="m224-1408h224z"/><path d="m448-1408h224z"/><path d="m672-1408h224z"/><path d="m896-1408h224z"/><path d="m1120-1408h224z"/><path d="m1344-1408h224z"/><path d="m1568-1408h224z"/><path d="m1792-1408h224z"/><path d="m2016-1408h224z"/><path d="m2240-1408h224z"/><path d="m2464-1408h224z"/><path d="m2688-1408h224z"/><path d="m2912-1408h224z"/><path d="m3136-1408h224z"/><path d="m3360-1408h224z"/><path d="m3584-1408h224z"/><path d="m3808-1408h224z"/><path d="m4064-1408h-32z"/><path d="m0-1472h224z"/><path d="m224-1472h224z"/><path d="m448-1472h224z"/><path d="m672-1472h224z"/><path d="m896-1472h224z"/><path d="m1120-1472h224z"/><path d="m1344-1472h224z"/><path d="m1568-1472h224z"/><path d="m1792-1472h224z"/><path d="m2016-1472h224z"/><path d="m2240-1472h224z"/><path d="m2464-1472h224z"/><path d="m2688-1472h224z"/><path d="m2912-1472h224z"/><path d="m3224-1472h-88z"/><path d="m4064-1472h-64z"/><path d="m3224-1472h224z"/><path d="m3448-1472h224z"/><path d="m3672-1472h224z"/><path d="m4000-1472h-104z"/><path d="m4000-1984h64z"/><path d="m3680-1984h128 96z"/><path d="m4000-1984h-96z"/><path d="m0-1984h224z"/><path d="m224-1984h224z"/><path d="m448-1984h224z"/><path d="m672-1984h224z"/><path d="m896-1984h224z"/><path d="m1120-1984h224z"/><path d="m1344-1984h224z"/><path d="m1568-1984h224z"/><path d="m1792-1984h224z"/><path d="m2016-1984h224z"/><path d="m2240-1984h224z"/><path d="m2464-1984h224z"/><path d="m2688-1984h224z"/><path d="m2912-1984h224z"/><path d="m3136-1984h224z"/><path d="m3360-1984h224z"/><path d="m3680-1984h-96z"/><path d="m0-896h224z"/><path d="m224-896h224z"/><path d="m448-896h224z"/><path d="m672-896h224z"/><path d="m896-896h224z"/><path d="m1120-896h224z"/><path d="m1344-896h224z"/><path d="m1568-896h224z"/><path d="m1792-896h224z"/><path d="m2016-896h224z"/><path d="m2240-896h224z"/><path d="m2464-896h224z"/><path d="m2688-896h224z"/><path d="m2912-896h224z"/><path d="m3136-896h224z"/><path d="m3360-896h224z"/><path d="m3584-896h224z"/><path d="m3808-896h224z"/><path d="m4064-896h-32z"/><path d="m0-320h224z"/><path d="m224-320h224z"/><path d="m448-320h224z"/><path d="m672-320h224z"/><path d="m896-320h80z"/><path d="m976-320h224z"/><path d="m1200-320h224z"/><path d="m1424-320h224z"/><path d="m1648-320h224z"/><path d="m1872-320h224z"/><path d="m2096-320h224z"/><path d="m2320-320h224z"/><path d="m2544-320h224z"/><path d="m2768-320h224z"/><path d="m2992-320h224z"/><path d="m3216-320h224z"/><path d="m3440-320h224z"/><path d="m3664-320h224z"/><path d="m4064-320h-32-144z"/><path d="m224-256h-224z"/><path d="m448-256h-224z"/><path d="m448-256h224z"/><path d="m672-256h224z"/><path d="m896-256h224z"/><path d="m1120-256h224z"/><path d="m1344-256h224z"/><path d="m1568-256h224z"/><path d="m1792-256h224z"/><path d="m2016-256h224z"/><path d="m2240-256h224z"/><path d="m2464-256h224z"/><path d="m2688-256h224z"/><path d="m2912-256h224z"/><path d="m3136-256h224z"/><path d="m3360-256h224z"/><path d="m3584-256h224z"/><path d="m3808-256h224z"/><path d="m4064-256h-32z"/><path d="m0 256h224z"/><path d="m224 256h224z"/><path d="m448 256h224z"/><path d="m672 256h224z"/><path d="m976 256h-80z"/><path d="m976 256h224z"/><path d="m1200 256h224z"/><path d="m1424 256h224z"/><path d="m1648 256h224z"/><path d="m1872 256h224z"/><path d="m2096 256h224z"/><path d="m2320 256h224z"/><path d="m2544 256h224z"/><path d="m2768 256h224z"/><path d="m2992 256h224z"/><path d="m3216 256h224z"/><path d="m3440 256h224z"/><path d="m3664 256h224z"/><path d="m4064 256h-32-144z"/><path d="m256-1824h16v192h-16z"/><path d="m256-1824v192z"/><path d="m272-1632v-192z"/><path d="m272-1824h-16z"/><path d="m256-1632h16z"/><path d="m256-1248h16v192h-16z"/><path d="m256-1248v192z"/><path d="m272-1248h-16z"/><path d="m256-1056h16z"/><path d="m272-1056v-192z"/><path d="m256-672h16v192h-16z"/><path d="m256-480h16z"/><path d="m272-672h-16z"/><path d="m256-672v192z"/><path d="m272-480v-192z"/><path d="m256-96h16v192h-16z"/><path d="m256 96h16z"/><path d="m256-96v192z"/><path d="m272-96h-16z"/><path d="m272 96v-192z"/><path d="m0-256v96z"/><path d="m0-544v-96-128z"/><path d="m0-768v-64z"/><path d="m0-1216v96z"/><path d="m0-1216v-192z"/><path d="m0-1696v-96-128z"/><path d="m0-1920v-64z"/><path d="m0-832h224z"/><path d="m192-1792h-192v96 32h192z"/><path d="m192-1216h-192v96 32h192z"/><path d="m192-640h-192v96 32h192z"/><path d="m0-256h224z"/><path d="m192-64h-192v128h192z"/><path d="m0-160v96 128-96z"/><path d="m0-64v-96-96 96z"/><path d="m0-512v192-64z"/><path d="m0-736v96 128-96z"/><path d="m0-640v-96-96 64z"/><path d="m0-1088v192-64z"/><path d="m0-1888v96 128-96z"/><path d="m0-1792v-96-96 64z"/><path d="m192-1792v128z"/><path d="m0-1792h192z"/><path d="m192-1664h-192v-128h192z"/><path d="m192-1664h-192z"/><path d="m192-1216v128z"/><path d="m0-1216h192z"/><path d="m192-1088h-192z"/><path d="m192-1088h-192v-128h192z"/><path d="m192-512h-192v-128h192z"/><path d="m192-640v128z"/><path d="m0-640h192z"/><path d="m192-512h-192z"/><path d="m192 64h-192z"/><path d="m192-64v128z"/><path d="m0-64h192z"/><path d="m192 64h-192v-128h192z"/><path d="m4000-1312h32z"/><path d="m4000-1088v-128-96h32v96 128z"/><path d="m4032-992h-32v-96h32z"/><path d="m4032-992h-32z"/><path d="m4032-1312v96z"/><path d="m4000-1216v128 96-96z"/></g><g id="c"><path d="m0 256v-64-128z"/><path d="m0-256v96z"/><path d="m0-832v96z"/><path d="m0-1088v-96-32z"/><path d="m0-1472v-64-128z"/><path d="m0-1984v96z"/><path d="m4064 32v160 64z"/><path d="m4064-192v160 64z"/><path d="m4064-544v160 64z"/><path d="m4064-768v160 64z"/><path d="m4064-1120v160 64z"/><path d="m4064-1344v160 64z"/><path d="m4064-1696v160 64z"/><path d="m4064-1920v160 64z"/><path d="m224-832h224z"/><path d="m4064-832h-32z"/><path d="m4064-1408h-32z"/><path d="m224-1984h-224v96 128h224z"/><path d="m0-1760v96 128h224v-224z"/><path d="m0-1536v64h224v-64z"/><path d="m448-1984h-224v224h224z"/><path d="m224-1760v224h224v-224z"/><path d="m224-1536v64h224v-64z"/><path d="m672-1984h-224v224h224z"/><path d="m448-1760v224h224v-224z"/><path d="m448-1536v64h224v-64z"/><path d="m896-1984h-224v224h224z"/><path d="m672-1760v224h224v-224z"/><path d="m672-1536v64h224v-64z"/><path d="m1120-1984h-224v224h224z"/><path d="m896-1760v224h224v-224z"/><path d="m896-1536v64h224v-64z"/><path d="m1344-1984h-224v224h224z"/><path d="m1120-1760v224h224v-224z"/><path d="m1120-1536v64h224v-64z"/><path d="m1568-1984h-224v224h224z"/><path d="m1344-1760v224h224v-224z"/><path d="m1344-1536v64h224v-64z"/><path d="m1792-1984h-224v224h224z"/><path d="m1568-1760v224h224v-224z"/><path d="m1568-1536v64h224v-64z"/><path d="m2016-1984h-224v224h224z"/><path d="m1792-1760v224h224v-224z"/><path d="m1792-1536v64h224v-64z"/><path d="m2240-1984h-224v224h224z"/><path d="m2016-1760v224h224v-224z"/><path d="m2016-1536v64h224v-64z"/><path d="m2464-1984h-224v224h224z"/><path d="m2240-1760v224h224v-224z"/><path d="m2240-1536v64h224v-64z"/><path d="m2688-1984h-224v224h224z"/><path d="m2464-1760v224h224v-224z"/><path d="m2464-1536v64h224v-64z"/><path d="m2912-1984h-224v224h224z"/><path d="m2688-1760v224h224v-224z"/><path d="m2688-1536v64h224v-64z"/><path d="m3136-1984h-224v224h224z"/><path d="m2912-1760v224h224v-224z"/><path d="m2912-1536v64h224v-64z"/><path d="m3360-1984h-224v224h224z"/><path d="m3136-1760v224h224v-224z"/><path d="m3136-1536v64h88 136v-64z"/><path d="m3584-1984h-224v224h224z"/><path d="m3360-1760v224h224v-224z"/><path d="m3360-1536v64h88 136v-64z"/><path d="m3808-1984h-128-96v224h224z"/><path d="m3584-1760v224h224v-224z"/><path d="m3584-1536v64h88 136v-64z"/><path d="m4000-1760v-224h-96-96v224z"/><path d="m4000-1536v-224h-192v224z"/><path d="m3896-1472h104v-64h-192v64z"/><path d="m4064-1760v-160-64h-64v224z"/><path d="m4064-1536v-160-64h-64v224z"/><path d="m4000-1472h64v-64h-64z"/><path d="m224-1472h-224z"/><path d="m448-1472h-224z"/><path d="m672-1472h-224z"/><path d="m896-1472h-224z"/><path d="m1120-1472h-224z"/><path d="m1344-1472h-224z"/><path d="m1568-1472h-224z"/><path d="m1792-1472h-224z"/><path d="m2016-1472h-224z"/><path d="m2240-1472h-224z"/><path d="m2464-1472h-224z"/><path d="m2688-1472h-224z"/><path d="m2912-1472h-224z"/><path d="m3136-1472h-224z"/><path d="m3448-1472h-88-136z"/><path d="m3672-1472h-88-136z"/><path d="m3896-1472h-88-136z"/><path d="m4000-1984h-96z"/><path d="m4000-1536v-224-224 224 224 64z"/><path d="m4000-1760v224 64-64-224-224z"/><path d="m3680-1984h-96z"/><path d="m224-1408h-224v192 32h224z"/><path d="m0-1184v96 128h224v-224z"/><path d="m0-960v64h224v-64z"/><path d="m448-1408h-224v224h224z"/><path d="m224-1184v224h224v-224z"/><path d="m224-960v64h224v-64z"/><path d="m672-1408h-224v224h224z"/><path d="m448-1184v224h224v-224z"/><path d="m448-960v64h224v-64z"/><path d="m896-1408h-224v224h224z"/><path d="m672-1184v224h224v-224z"/><path d="m672-960v64h224v-64z"/><path d="m1120-1408h-224v224h224z"/><path d="m896-1184v224h224v-224z"/><path d="m896-960v64h224v-64z"/><path d="m1344-1408h-224v224h224z"/><path d="m1120-1184v224h224v-224z"/><path d="m1120-960v64h224v-64z"/><path d="m1568-1408h-224v224h224z"/><path d="m1344-1184v224h224v-224z"/><path d="m1344-960v64h224v-64z"/><path d="m1792-1408h-224v224h224z"/><path d="m1568-1184v224h224v-224z"/><path d="m1568-960v64h224v-64z"/><path d="m2016-1408h-224v224h224z"/><path d="m1792-1184v224h224v-224z"/><path d="m1792-960v64h224v-64z"/><path d="m2240-1408h-224v224h224z"/><path d="m2016-1184v224h224v-224z"/><path d="m2016-960v64h224v-64z"/><path d="m2464-1408h-224v224h224z"/><path d="m2240-1184v224h224v-224z"/><path d="m2240-960v64h224v-64z"/><path d="m2688-1408h-224v224h224z"/><path d="m2464-1184v224h224v-224z"/><path d="m2464-960v64h224v-64z"/><path d="m2912-1408h-224v224h224z"/><path d="m2688-1184v224h224v-224z"/><path d="m2688-960v64h224v-64z"/><path d="m3136-1408h-224v224h224z"/><path d="m2912-1184v224h224v-224z"/><path d="m2912-960v64h224v-64z"/><path d="m3360-1408h-224v224h224z"/><path d="m3136-1184v224h224v-224z"/><path d="m3136-960v64h224v-64z"/><path d="m3584-1408h-224v224h224z"/><path d="m3360-1184v224h224v-224z"/><path d="m3360-960v64h224v-64z"/><path d="m3808-1408h-224v224h224z"/><path d="m3584-1184v224h224v-224z"/><path d="m3584-960v64h224v-64z"/><path d="m4032-1408h-224v224h224z"/><path d="m3808-1184v224h224v-224z"/><path d="m3808-960v64h224v-64z"/><path d="m4064-1184v-160-64h-32v224z"/><path d="m4064-960v-160-64h-32v224z"/><path d="m4064-896v-64h-32v64z"/><path d="m224-896h-224z"/><path d="m448-896h-224z"/><path d="m672-896h-224z"/><path d="m896-896h-224z"/><path d="m1120-896h-224z"/><path d="m1344-896h-224z"/><path d="m1568-896h-224z"/><path d="m1792-896h-224z"/><path d="m2016-896h-224z"/><path d="m2240-896h-224z"/><path d="m2464-896h-224z"/><path d="m2688-896h-224z"/><path d="m2912-896h-224z"/><path d="m3136-896h-224z"/><path d="m3360-896h-224z"/><path d="m3584-896h-224z"/><path d="m3808-896h-224z"/><path d="m4032-896h-224z"/><path d="m224-320h-224z"/><path d="m448-320h-224z"/><path d="m672-320h-224z"/><path d="m896-320h-224z"/><path d="m976-320h-80z"/><path d="m1200-320h-80-144z"/><path d="m1424-320h-80-144z"/><path d="m1648-320h-80-144z"/><path d="m1872-320h-80-144z"/><path d="m2096-320h-80-144z"/><path d="m2320-320h-80-144z"/><path d="m2544-320h-80-144z"/><path d="m2768-320h-80-144z"/><path d="m2992-320h-80-144z"/><path d="m3216-320h-80-144z"/><path d="m3440-320h-80-144z"/><path d="m3664-320h-80-144z"/><path d="m3888-320h-80-144z"/><path d="m224-832h-224v96 128h224z"/><path d="m0-608v96 128h224v-224z"/><path d="m0-384v64h224v-64z"/><path d="m448-832h-224v224h224z"/><path d="m224-608v224h224v-224z"/><path d="m224-384v64h224v-64z"/><path d="m672-832h-224v224h224z"/><path d="m448-608v224h224v-224z"/><path d="m448-384v64h224v-64z"/><path d="m896-832h-224v224h224z"/><path d="m672-608v224h224v-224z"/><path d="m672-384v64h224v-64z"/><path d="m1120-832h-224v224h224z"/><path d="m896-608v224h224v-224z"/><path d="m896-384v64h80 144v-64z"/><path d="m1344-832h-224v224h224z"/><path d="m1120-608v224h224v-224z"/><path d="m1120-384v64h80 144v-64z"/><path d="m1568-832h-224v224h224z"/><path d="m1344-608v224h224v-224z"/><path d="m1344-384v64h80 144v-64z"/><path d="m1792-832h-224v224h224z"/><path d="m1568-608v224h224v-224z"/><path d="m1568-384v64h80 144v-64z"/><path d="m2016-832h-224v224h224z"/><path d="m1792-608v224h224v-224z"/><path d="m1792-384v64h80 144v-64z"/><path d="m2240-832h-224v224h224z"/><path d="m2016-608v224h224v-224z"/><path d="m2016-384v64h80 144v-64z"/><path d="m2464-832h-224v224h224z"/><path d="m2240-608v224h224v-224z"/><path d="m2240-384v64h80 144v-64z"/><path d="m2688-832h-224v224h224z"/><path d="m2464-608v224h224v-224z"/><path d="m2464-384v64h80 144v-64z"/><path d="m2912-832h-224v224h224z"/><path d="m2688-608v224h224v-224z"/><path d="m2688-384v64h80 144v-64z"/><path d="m3136-832h-224v224h224z"/><path d="m2912-608v224h224v-224z"/><path d="m2912-384v64h80 144v-64z"/><path d="m3360-832h-224v224h224z"/><path d="m3136-608v224h224v-224z"/><path d="m3136-384v64h80 144v-64z"/><path d="m3584-832h-224v224h224z"/><path d="m3360-608v224h224v-224z"/><path d="m3360-384v64h80 144v-64z"/><path d="m3808-832h-224v224h224z"/><path d="m3584-608v224h224v-224z"/><path d="m3584-384v64h80 144v-64z"/><path d="m4032-832h-224v224h224z"/><path d="m3808-608v224h224v-224z"/><path d="m3808-384v64h80 144v-64z"/><path d="m4064-608v-160-64h-32v224z"/><path d="m4064-384v-160-64h-32v224z"/><path d="m4064-320v-64h-32v64z"/><path d="m224-256h-224v96 128h224z"/><path d="m0-32v96 128h224v-224z"/><path d="m0 192v64h224v-64z"/><path d="m448-256h-224v224h224z"/><path d="m224-32v224h224v-224z"/><path d="m224 192v64h224v-64z"/><path d="m672-256h-224v224h224z"/><path d="m448-32v224h224v-224z"/><path d="m448 192v64h224v-64z"/><path d="m896-256h-224v224h224z"/><path d="m672-32v224h224v-224z"/><path d="m672 192v64h224v-64z"/><path d="m1120-256h-224v224h224z"/><path d="m896-32v224h224v-224z"/><path d="m896 192v64h80 144v-64z"/><path d="m1344-256h-224v224h224z"/><path d="m1120-32v224h224v-224z"/><path d="m1120 192v64h80 144v-64z"/><path d="m1568-256h-224v224h224z"/><path d="m1344-32v224h224v-224z"/><path d="m1344 192v64h80 144v-64z"/><path d="m1792-256h-224v224h224z"/><path d="m1568-32v224h224v-224z"/><path d="m1568 192v64h80 144v-64z"/><path d="m2016-256h-224v224h224z"/><path d="m1792-32v224h224v-224z"/><path d="m1792 192v64h80 144v-64z"/><path d="m2240-256h-224v224h224z"/><path d="m2016-32v224h224v-224z"/><path d="m2016 192v64h80 144v-64z"/><path d="m2464-256h-224v224h224z"/><path d="m2240-32v224h224v-224z"/><path d="m2240 192v64h80 144v-64z"/><path d="m2688-256h-224v224h224z"/><path d="m2464-32v224h224v-224z"/><path d="m2464 192v64h80 144v-64z"/><path d="m2912-256h-224v224h224z"/><path d="m2688-32v224h224v-224z"/><path d="m2688 192v64h80 144v-64z"/><path d="m3136-256h-224v224h224z"/><path d="m2912-32v224h224v-224z"/><path d="m2912 192v64h80 144v-64z"/><path d="m3360-256h-224v224h224z"/><path d="m3136-32v224h224v-224z"/><path d="m3136 192v64h80 144v-64z"/><path d="m3584-256h-224v224h224z"/><path d="m3360-32v224h224v-224z"/><path d="m3360 192v64h80 144v-64z"/><path d="m3808-256h-224v224h224z"/><path d="m3584-32v224h224v-224z"/><path d="m3584 192v64h80 144v-64z"/><path d="m4032-256h-224v224h224z"/><path d="m3808-32v224h224v-224z"/><path d="m3808 192v64h80 144v-64z"/><path d="m4064-32v-160-64h-32v224z"/><path d="m4064 192v-160-64h-32v224z"/><path d="m4064 256v-64h-32v64z"/><path d="m224-256h224z"/><path d="m4064-256h-32z"/><path d="m224 256h-224z"/><path d="m448 256h-224z"/><path d="m672 256h-224z"/><path d="m896 256h-224z"/><path d="m1200 256h-80-144z"/><path d="m1424 256h-80-144z"/><path d="m1648 256h-80-144z"/><path d="m1872 256h-80-144z"/><path d="m2096 256h-80-144z"/><path d="m2320 256h-80-144z"/><path d="m2544 256h-80-144z"/><path d="m2768 256h-80-144z"/><path d="m2992 256h-80-144z"/><path d="m3216 256h-80-144z"/><path d="m3440 256h-80-144z"/><path d="m3664 256h-80-144z"/><path d="m3888 256h-80-144z"/></g><g id="d"><path d="m4080-1472h-80v-512h80z"/><path d="m4080-1472h-80z"/><path d="m4000-1984h80z"/><path d="m4000-1472v-512z"/><path d="m4080-1984v512z"/></g></defs><g stroke="#000"><use fill="none" stroke-miterlimit="0" stroke-width="10" xlink:href="#a"/><use fill="#c4c4c4" xlink:href="#a"/><use fill="none" stroke-miterlimit="0" stroke-width="10" xlink:href="#b"/><use fill="#d9d9d9" xlink:href="#b"/><use fill="none" stroke-miterlimit="0" stroke-width="10" xlink:href="#c"/><use fill="#ebebeb" xlink:href="#c"/><use fill="none" stroke-miterlimit="0" stroke-width="10" xlink:href="#d"/><use fill="#fff" xlink:href="#d"/></g></svg>