<svg viewBox="32 32 1920 1920" xmlns="http://www.w3.org/2000/svg" xmlns:xlink="http://www.w3.org/1999/xlink"><defs><g id="a"><path d="m1688 1512v64z"/><path d="m1752 1576v-64z"/><path d="m1688 1576v-64h64v64z"/><path d="m1752 1512h-64v64h64z"/><path d="m1752 1664h88-240z"/><path d="m1840 1424h-152-88z"/><path d="m1840 1512v-88 240z"/><path d="m1600 1664v-88h88 64v88z"/><path d="m1752 1664v-88-64h88v152z"/><path d="m1600 1424h88v88 64h-88z"/><path d="m1840 1424v88h-88-64v-88z"/><path d="m1688 1576h64z"/><path d="m1752 1512h-64z"/><path d="m1688 1576v-64z"/><path d="m1752 1576h-64z"/><path d="m1752 1512v64z"/><path d="m1688 1512h64z"/><path d="m1752 1576h-64v-64h64z"/><path d="m1840 1664h-240z"/><path d="m1600 1424v152 88z"/><path d="m1840 1424v240z"/><path d="m1600 1424h240v240h-240z"/><path d="m1840 1424h-240v240h240z"/><path d="m1840 1664h-240z"/><path d="m1840 1424h-240z"/><path d="m1600 1424v240z"/><path d="m1840 1424v208 32z"/><path d="m1600 1424h240v240h-240z"/><path d="m1840 1424h-240v240h240z"/><path d="m1840 1424h-240v120h240z"/><path d="m1840 1544h-240v120h240z"/><path d="m320 1952h160-224z"/><path d="m32 736v144 80z"/><path d="m32 512v144 80z"/><path d="m32 1728v160 64z"/><path d="m1952 32v64z"/><path d="m1952 320v72z"/><path d="m256 32h-24-200z"/><path d="m704 32h-160-64z"/><path d="m928 32h-128-32-64z"/><path d="m1152 32h-192-32z"/><path d="m1376 32h-192-32z"/><path d="m1728 32h-64-32-128z"/><path d="m32 1888v-160-64h96 128v224z"/><path d="m256 1952h-224v-64h224z"/><path d="m256 1888v-224h64v192 32z"/><path d="m320 1952h-64v-64h64z"/><path d="m128 1600v64h-96v-160h96z"/><path d="m128 1600v-96h128 64 32v96z"/><path d="m352 1504h32v96h-32z"/><path d="m520 1740v-6-122h24v128z"/><path d="m480 1612h24v122 6h-24z"/><path d="m504 1612v-102h16v102 122h-16z"/><path d="m520 1734v6 84h-16v-84-6z"/><path d="m384 1056v-128h96v32 64 128h-96z"/><path d="m480 1152v12 212h-96v-96-128z"/><path d="m480 1376v12 212h-96v-96-128z"/><path d="m480 1600v12 128 84h-96v-192-32z"/><path d="m480 1824v32h-96v-32z"/><path d="m32 512v-80h200 24v224h-224z"/><path d="m256 656v224h-224v-144-80z"/><path d="m256 880v224h-224v-48-96-80z"/><path d="m256 1104v224h-224v-48-176z"/><path d="m256 1328v176h-128-96v-176z"/><path d="m256 432h64v48 176h-64z"/><path d="m320 656v48 160 16h-64v-224z"/><path d="m320 880v48 128 48h-64v-224z"/><path d="m320 1104v176 48h-64v-224z"/><path d="m320 1328v176h-64v-176z"/><path d="m104 232h16 112v24 176h-200v-200z"/><path d="m32 208v-104h72v128h-72z"/><path d="m232 32v72h-128-72v-72z"/><path d="m232 256v-24-128-72h24 64v224z"/><path d="m320 432h-64-24v-176h88z"/><path d="m704 960h-224v-32h128 96z"/><path d="m832 928h32v32h-160v-32z"/><path d="m320 256v-224h160 64v224z"/><path d="m320 480v-48-176h224v224z"/><path d="m320 704v-48-176h224v224z"/><path d="m544 864h-16-208v-160h224z"/><path d="m544 256v-224h160 64v224z"/><path d="m544 480v-224h224v224z"/><path d="m544 704v-224h224v224z"/><path d="m768 864h-224v-160h224z"/><path d="m800 32v224h-32v-224z"/><path d="m800 256v96 96 32h-32v-224z"/><path d="m800 480v160 64h-32v-224z"/><path d="m800 704v160h-32v-160z"/><path d="m864 480v-32-96h96v224h-96z"/><path d="m960 576v224h-96v-96-128z"/><path d="m960 800v64 64 32h-32-64v-32-128z"/><path d="m928 32h32v96 128h-160v-224z"/><path d="m960 256v96h-96-64v-96z"/><path d="m1376 1632v-128h23.2727 104.7273v128 96h-128z"/><path d="m1504 1728v128h-64-64v-128z"/><path d="m1132 1064h-102v-16h102z"/><path d="m1132 1064v-16-24h20 108v24 16 24h-44-84z"/><path d="m1448.7672 1324.7123 7.2328 3.2877-11 5z"/><path d="m1376 1504v-107.6364l80-36.3636 11-5-67.7273 149z"/><path d="m1504 1408v6.4l-32-70.4-5-11 37 16.8182z"/><path d="m1376 1396.3636v-72.7272l69 31.3636 11 5z"/><path d="m1426.6666 1314.6666 22.1006 10.0457-8.7672 19.2877z"/><path d="m1399.2727 1504 67.7273-149 5-11 32 70.4v89.6z"/><path d="m1376 1291.6364 50.6666 23.0302 13.3334 29.3334 5 11-69-31.3636z"/><path d="m544 1312v-148-76h224v224z"/><path d="m544 1536v-148-76h224v224z"/><path d="m544 1760v-20-128-76h224v224z"/><path d="m768 1792h-224v-32h224z"/><path d="m768 1312v-224h192 32v224z"/><path d="m768 1536v-224h224v224z"/><path d="m768 1760v-224h224v224z"/><path d="m992 1792h-32-192v-32h224z"/><path d="m992 1312v-224h140 84v224z"/><path d="m992 1536v-224h224v224z"/><path d="m992 1760v-224h224v224z"/><path d="m1216 1792h-32-192v-32h224z"/><path d="m1260 1088h52v32 192h-96v-224z"/><path d="m1312 1312v32 192h-96v-224z"/><path d="m1312 1536v32 192h-96v-224z"/><path d="m1312 1760v32h-96v-32z"/><path d="m704 1024h-224v-64h224z"/><path d="m928 1024h-224v-64h160 64z"/><path d="m1152 1024h-20-204v-64h32 192z"/><path d="m1184 960h192v64h-116-108v-64z"/><path d="m1364 1048v16h-104v-16z"/><path d="m1376 1056v-32-64h32 96v224h-128z"/><path d="m1504 1184v165.8182l-55.2328-25.1059-22.1006-10.0457-50.6666-23.0302v-11.6364-96z"/><path d="m1808 1680h-208v-16h240v16z"/><path d="m544 1952h-64-160v-64-32h64 96 64z"/><path d="m768 1952h-64-160v-96h160 64z"/><path d="m992 1952h-32-32-160v-96h160 64z"/><path d="m1216 1952h-32-192v-96h160 64z"/><path d="m1440 1952h-32-192v-96h160 64z"/><path d="m1504 1856h80v48 48h-144v-96z"/><path d="m1584 1904v-48-176h16 208v224z"/><path d="m1808 1952h-176-48v-48h224z"/><path d="m1840 1680h16v176 48h-48v-224z"/><path d="m1856 1904v48h-48v-48z"/><path d="m1840 1424h-240v-16h50.9091 58.1817 130.9092z"/><path d="m1840 1424v-16h16v224h-16z"/><path d="m1856 1632v48h-16v-16-32z"/><path d="m1856 1408h2.9091 58.1818 34.9091v104 120h-96z"/><path d="m1952 1632v96 128h-96v-176-48z"/><path d="m1952 1856v96h-96v-48-48z"/><path d="m1861 1333 3.7671-8.2877 7.2329 3.2877z"/><path d="m1856 1352.7273v-8.7273l5 11z"/><path d="m1856 1408v-40.7273l16-7.2727 11-5-24.0909 53z"/><path d="m1888 1344-5-11 69 31.3636v43.6364h-34.9091z"/><path d="m1634.6666 1314.6666 22.1005 10.0457-8.7671 19.2877z"/><path d="m1600 1389.0909v-58.1818l53 24.0909 11 5z"/><path d="m1650.9091 1408 29.0909-64 29.0908 64z"/><path d="m1824 1400.7272 16 7.2728h-130.9092l-29.0908-64-5-11z"/><path d="m1650.9091 1408h-50.9091v-18.9091l64-29.0909 11-5z"/><path d="m1600 1330.9091v-32l34.6666 15.7575 13.3334 29.3334 5 11z"/><path d="m1656.7671 1324.7123 7.2329 3.2877-11 5z"/><path d="m1600 1184v-224h32 192v224z"/><path d="m1824 1400.7272-149-67.7272-11-5-29.3334-13.3334-34.6666-15.7575v-114.9091h224z"/><path d="m1856 960v32 192h-32v-224z"/><path d="m1856 1184v32 104.7273 23.2727 8.7273 14.5454 40.7273h-16l-16-7.2728v-216.7272z"/><path d="m1858.9091 1408 24.0909-53 5-11 29.0909 64z"/><path d="m1856 1367.2727v-14.5454l16 7.2727z"/><path d="m1856 1344v-23.2727l8.7671 3.985z"/><path d="m1504 960h80v224h-80z"/><path d="m1584 1184v224h-80v-58.1818-165.8182z"/><path d="m1584 1408v224h-80v-128-89.6-6.4z"/><path d="m1584 1632v48 176h-80v-128-96z"/><path d="m1584 960h16v224h-16z"/><path d="m1600 1184v114.9091 32 58.1818 18.9091h-16v-224z"/><path d="m1600 1408v16 208h-16v-224z"/><path d="m1600 1632v32 16h-16v-48z"/><path d="m960 256v-128h224v224h-224z"/><path d="m1184 352v224h-224v-224z"/><path d="m1184 576v224h-224v-224z"/><path d="m1184 800v64h-224v-64z"/><path d="m1184 128h128v64 160h-128z"/><path d="m1312 352v64 160h-128v-224z"/><path d="m1312 576v64 160h-128v-224z"/><path d="m1312 800v64h-128v-64z"/><path d="m1600 864h-224v-96h224z"/><path d="m1664 768v96h-64v-96z"/><path d="m1184 960h-32-192v-32h224z"/><path d="m1408 960h-32-192v-32h224z"/><path d="m1632 960h-32-16-80-96v-32h96 128z"/><path d="m1728 928h128v32h-32-192v-32z"/><path d="m1664 544v-64h160 32v64 160h-192z"/><path d="m1856 704v64 96h-32-160v-96-64z"/><path d="m1824 480h-160-64v-96h224z"/><path d="m1856 384v96h-32v-96z"/><path d="m1856 480v-96-64h32 64v72 152h-96z"/><path d="m1952 544v72 152h-96v-64-160z"/><path d="m1952 768v72 152h-96v-32-32-64-96z"/><path d="m1952 992v72 152h-96v-32-192z"/><path d="m1952 1216v72 76.3636l-69-31.3636-11-5-16-7.2727v-104.7273z"/><path d="m1408 128h192v32 192h-224v-96-128z"/><path d="m1600 352v32 96 96h-224v-96-128z"/><path d="m1600 576v128h-224v-128z"/><path d="m1184 128h-224v-96h192 32z"/><path d="m1408 128h-32-64-128v-96h192 32z"/><path d="m1632 128h-32-192v-96h96 128z"/><path d="m1664 32v96h-32v-96z"/><path d="m1664 256v-128-96h64 160v224z"/><path d="m1888 320h-32-192v-64h224z"/><path d="m1952 32v64 160h-64v-224z"/><path d="m1952 256v64h-64v-64z"/><path d="m1728 928h-96-128z"/><path d="m1184 928h-224 128z"/><path d="m1408 928h-224 128 64z"/><path d="m608 928h-128-96z"/><path d="m832 928h-128-96z"/><path d="m1312 128v64z"/><path d="m1600 768h-224z"/><path d="m1600 704v-128-96z"/><path d="m1600 128v32z"/><path d="m1856 320v64z"/><path d="m1600 128h32 32z"/><path d="m1664 128v128 64z"/><path d="m1664 320h192z"/><path d="m1600 480h64z"/><path d="m1664 544v160 64z"/><path d="m1312 128h64z"/><path d="m1600 704h-224z"/><path d="m1376 480v96 128z"/><path d="m1376 256v96 128z"/><path d="m1856 864v64z"/><path d="m1856 864h-32z"/><path d="m800 352h64z"/><path d="m800 448v-96z"/><path d="m1312 864h-128z"/><path d="m864 704v96 128-64z"/><path d="m864 480v96 128-64z"/><path d="m800 864h-32z"/><path d="m232 104h-128z"/><path d="m104 104v128z"/><path d="m320 880v-16 64z"/><path d="m1376 1280v11.6364 32 72.7272 107.6364-128-52.3636-11.6364z"/><path d="m1376 1056v128 96-192z"/><path d="m480 1152v-128 140z"/><path d="m704 1856h-160-64z"/><path d="m928 1856h-160-64z"/><path d="m1152 1856h-160-64z"/><path d="m1312 1088h-52z"/><path d="m1132 1024h-204z"/><path d="m1030 1064h102z"/><path d="m544 1388v148 76-96z"/><path d="m544 1164v148 76-96z"/><path d="m1312 1088v32z"/><path d="m1216 1792h96-64-64z"/><path d="m504 1510v102z"/><path d="m544 1740h-24z"/><path d="m504 1824h16z"/><path d="m504 1824v-84z"/><path d="m520 1740v84z"/><path d="m384 1504h-32-32z"/><path d="m384 1280v96 128z"/><path d="m384 1056v96 128z"/><path d="m384 1600h-32z"/><path d="m320 1856v-192z"/><path d="m320 1664h-64-128z"/><path d="m128 1664v-64z"/><path d="m1840 1424h-240z"/><path d="m1600 1632v-208 240z"/><path d="m1416 1752h-16v16h16z"/><path d="m1576 600h-176v80h176z"/><path d="m504 1708h16v-96h-16z"/><path d="m520 1682v-70z"/><path d="m520 1708v-26z"/><path d="m504 1708v-26h16v26z"/><path d="m520 1708h-16v32h16z"/><path d="m520 1740h-16z"/><path d="m504 1708v-26 58z"/><path d="m520 1708v-26h-16v26z"/><path d="m1132 1048v16h32v-16z"/><path d="m1132 1064v-16z"/><path d="m1164 1048h26-58z"/><path d="m1164 1064h26v-16h-26z"/><path d="m1164 1048v16h96v-16z"/><path d="m1190 1064h70z"/><path d="m1164 1064h26z"/><path d="m1164 1048h26v16h-26z"/><path d="m1600 1544v-120z"/><path d="m1840 1424v120z"/><path d="m1600 1424h240z"/><path d="m1840 1544h-240z"/><path d="m1840 1544h-240v-120h240z"/><path d="m1600 1664v-120z"/><path d="m1840 1544v120z"/><path d="m1840 1664h-240z"/><path d="m1600 1544h240z"/><path d="m1840 1664h-240v-120h240z"/><path d="m232 232v-128z"/><path d="m132 226h-12z"/><path d="m110 110h116v116h-50-44-12-10z"/><path d="m226 110v116z"/><path d="m176 232h-44v-6h44z"/><path d="m176 232v-6z"/><path d="m132 232h44 56-112z"/><path d="m176 228h-44v2h44z"/><path d="m864 352h-64z"/><path d="m800 352v96z"/><path d="m864 352v96z"/><path d="m480 1952h64 160z"/><path d="m704 1952h64 160z"/><path d="m928 1952h32z"/><path d="m32 1280v48 176z"/><path d="m32 1056v48 176z"/><path d="m32 960v96z"/><path d="m1952 320v-64-160z"/><path d="m1952 32v64z"/><path d="m1504 32h96 64 64z"/><path d="m1952 32h-64-160z"/><path d="m1504 928h96 128z"/><path d="m1856 928h-128z"/><path d="m384 928h160 64z"/><path d="m608 928h160 64z"/><path d="m864 928h-32z"/><path d="m1312 864v-64-160z"/><path d="m1312 640v-64-160z"/><path d="m1312 416v-64-160z"/><path d="m1312 128v64z"/><path d="m1376 768h224z"/><path d="m1664 768h-64z"/><path d="m1600 480v224z"/><path d="m1600 384v-32-192z"/><path d="m1600 128v32z"/><path d="m1824 384h-224z"/><path d="m1856 384h-32z"/><path d="m1856 384v-64z"/><path d="m1664 128h-64z"/><path d="m1664 320v-64-128z"/><path d="m1856 320h-80-112z"/><path d="m1664 480h-64z"/><path d="m1664 768v-64-160z"/><path d="m1664 480v64z"/><path d="m1376 128h-64z"/><path d="m1600 704h-224z"/><path d="m1376 704v-128-96z"/><path d="m1376 480v-128-96z"/><path d="m1376 128v128z"/><path d="m1856 928v-64z"/><path d="m1376 768v96z"/><path d="m1376 864h224z"/><path d="m1600 864h64 160z"/><path d="m1856 864h-32z"/><path d="m864 448v-96z"/><path d="m800 864v-160-64z"/><path d="m800 640v-160-32z"/><path d="m960 864h224z"/><path d="m1312 864h-96-32z"/><path d="m456 864h72 16z"/><path d="m544 864h224z"/><path d="m800 864h-32z"/><path d="m456 864h-136 208z"/><path d="m1376 1632v96 128z"/><path d="m1376 1504v128z"/><path d="m480 1856h224z"/><path d="m704 1856h224z"/><path d="m928 1856h224z"/><path d="m1376 1856h-160-64z"/><path d="m480 1024h224z"/><path d="m704 1024h224z"/><path d="m1132 1024h-108-96z"/><path d="m544 1792v-52 20z"/><path d="m544 1792h224z"/><path d="m768 1792h192z"/><path d="m320 1504h64z"/><path d="m320 1504v-176-48z"/><path d="m320 1280v-176-48z"/><path d="m320 1056v-128z"/><path d="m384 1504v-128-96z"/><path d="m384 1280v-128-96z"/><path d="m384 928v128z"/><path d="m384 1856h-64z"/><path d="m384 1632v192 32z"/><path d="m384 1600v32z"/><path d="m1384 1528h-8v32h8z"/><path d="m504 1682h16z"/><path d="m504 1682v26z"/><path d="m1190 1048v16z"/><path d="m1190 1048h-26z"/><path d="m1190 1048v16z"/><path d="m1190 1064h-26-32z"/><path d="m504 1682h16z"/><path d="m520 1682v26 32z"/><path d="m520 1714h-16v-21h16z"/><path d="m504 1682v32h16v-32z"/><path d="m520 1612v102-21z"/><path d="m504 1682v-70z"/><path d="m504 1714v-32h16v32z"/><path d="m504 1740v-26-21z"/><path d="m504 1714h16v-21h-16z"/><path d="m1158 1048h32v16h-32z"/><path d="m1132 1048h26 21z"/><path d="m1158 1048v16h21v-16z"/><path d="m1158 1048v16h32v-16z"/><path d="m1260 1064h-102 21z"/><path d="m1158 1064v-16h21v16z"/><path d="m1190 1048h70z"/><path d="m32 1952h224z"/><path d="m480 1952h-96-64-64z"/><path d="m32 1952v-64-160z"/><path d="m32 1504v160 64z"/><path d="m128 1600h224z"/><path d="m384 1600h-32z"/><path d="m320 1664v192z"/><path d="m320 1856h64z"/><path d="m128 1664h80 112z"/><path d="m128 1600v64z"/><path d="m1376 1528h8z"/><path d="m1384 1560h-8v-32h8z"/><path d="m1384 1560h-8z"/><path d="m1376 1560v-32z"/><path d="m1384 1528v32z"/><path d="m120 226h-10z"/><path d="m176 226h50z"/><path d="m132 226h44 50-106z"/><path d="m176 226h-44v6h44z"/><path d="m226 232h6z"/><path d="m226 232h6-56z"/><path d="m132 232v-6z"/><path d="m132 232h-12z"/><path d="m176 230h-44v-2h44z"/><path d="m176 228v2z"/><path d="m132 230v-2z"/><path d="m176 230h-44z"/><path d="m132 228h44z"/><path d="m520 1693h-16v-31h16z"/><path d="m520 1612v50-26z"/><path d="m520 1662h-16v-26h16z"/><path d="m504 1693v21-102z"/><path d="m520 1662h-16v31h16z"/><path d="m520 1693v21 26z"/><path d="m1179 1064h31v-16h-31z"/><path d="m1179 1064h-21-26z"/><path d="m1179 1064v-16h31v16z"/><path d="m1260 1064h-50 26z"/><path d="m1210 1064v-16h26v16z"/><path d="m1179 1048h-21 102z"/><path d="m144 232h48 24 10-50-44-12z"/><path d="m206 234h-4v1h4z"/><path d="m134 234h-4v1h4z"/><path d="m320 928v128z"/><path d="m320 864v64z"/><path d="m134 235h-4z"/><path d="m206 235h-4z"/><path d="m130 234h4z"/><path d="m130 234h4 10-10-4-10z"/><path d="m202 234h4z"/><path d="m202 234h4 10-10-4-10z"/><path d="m216 234h-10v1h10z"/><path d="m202 234h-10v1h10z"/><path d="m202 235v-1z"/><path d="m206 234v1z"/><path d="m134 234v1z"/><path d="m144 234h-10v1h10z"/><path d="m130 235v-1z"/><path d="m130 234h-10v1h10z"/><path d="m202 235h4 10-10-4-10z"/><path d="m130 235h4 10-10-4-10z"/><path d="m120 235v-1z"/><path d="m192 235v-1z"/><path d="m216 235h-10v-1h10z"/><path d="m216 234v1z"/><path d="m202 235h-10v-1h10z"/><path d="m144 234v1z"/><path d="m144 235h-10v-1h10z"/><path d="m130 235h-10v-1h10z"/><path d="m206 235h-4z"/><path d="m134 235h-4z"/><path d="m130 234h4z"/><path d="m202 234h4z"/><path d="m120 232h24z"/><path d="m144 232h-24z"/><path d="m144 232h48z"/><path d="m192 232h24z"/><path d="m226 232h-10z"/><path d="m206 235h-4v-1h4z"/><path d="m202 235v-1z"/><path d="m206 234v1z"/><path d="m134 235h-4v-1h4z"/><path d="m134 234v1z"/><path d="m130 235v-1z"/><path d="m226 110h-116v116h10 106z"/><path d="m110 110v116z"/><path d="m226 110h-116z"/><path d="m192 232h-48-24z"/><path d="m120 232h-16z"/><path d="m240 96v144l-30-30-12-12-30-30z"/><path d="m104 96h128 8l-72 72-42-42-16-16-14-14z"/><path d="m232 240v-8h-40-72-16-8v8z"/><path d="m104 104v-8h-8v114 22h8z"/><path d="m232 104v-8h-128v8z"/><path d="m240 96h-8v8 128 8h8z"/><path d="m96 96 14 14v88 12h-14z"/><path d="m240 240h-8-136l30-30h12 72z"/><path d="m232 232h-6-10-24z"/><path d="m480 1856v-32-84z"/><path d="m480 1388v20 204-12z"/><path d="m480 1164v20 204-12z"/><path d="m480 1164v-140 160z"/><path d="m544 1088h224z"/><path d="m1132 1088h-140-32z"/><path d="m1184 1088h-52-172 96z"/><path d="m1132 1064v24z"/><path d="m1132 1024v24z"/><path d="m1260 1048v-24z"/><path d="m1260 1088v-24z"/><path d="m1364 1064v-16h-104v16z"/><path d="m1364 1064v-16z"/><path d="m1364 1048h-104z"/><path d="m1260 1064h104z"/><path d="m1260 1064v-16-24h-128v24 16 24h52 76z"/><path d="m1132 1048h-102v16h102z"/><path d="m1030 1048v16z"/><path d="m1132 1048h-102z"/><path d="m544 1088v76z"/><path d="m544 1516v96 128-172z"/><path d="m544 1292v96 128-140-64z"/><path d="m544 1612h-24z"/><path d="m504 1612h-24z"/><path d="m520 1612v-102h-16v102z"/><path d="m520 1510h-16z"/><path d="m520 1612v-102z"/><path d="m480 1740h24z"/><path d="m504 1740h16 24v-128h-24-16-24v20 108z"/><path d="m504 1824h16v-84h-16z"/><path d="m520 1636h-16v-24h16z"/><path d="m520 1612h-16z"/><path d="m504 1636v26-50z"/><path d="m504 1636v26h16v-26z"/><path d="m520 1740h-16v-104h16z"/><path d="m520 1636v26 78z"/><path d="m504 1740v-78-26z"/><path d="m1132 1064v-16h104v16z"/><path d="m1132 1048h78 26z"/><path d="m1236 1064h-26-78z"/><path d="m1236 1048h-26v16h26z"/><path d="m1236 1064v-16h24v16z"/><path d="m1260 1064v-16z"/><path d="m1236 1048h-26 50z"/><path d="m110 210h16l-30 30v-8-22z"/><path d="m126 198h-16v-88l16 16z"/><path d="m126 198v12h-16v-12z"/><path d="m138 198h-12z"/><path d="m138 198 30-30 30 30z"/><path d="m138 198h60l12 12h-72z"/><path d="m272 32h208-160-64z"/><path d="m480 32h-208z"/><path d="m138 210h-12z"/><path d="m138 210h-12v-12h12z"/><path d="m126 198v12z"/><path d="m168 168-30 30h-12v-72z"/><path d="m138 198v12z"/><path d="m960 1952h32 192z"/><path d="m1184 1952h32 192z"/><path d="m1408 1952h32 144 48z"/><path d="m1632 1952h176 48z"/><path d="m1856 1952h96z"/><path d="m32 208v24 200z"/><path d="m32 32v72 104z"/><path d="m272 32h-16-224z"/><path d="m272 32h96 112z"/><path d="m480 32h112 112z"/><path d="m704 32h112 112z"/><path d="m928 32h112 112z"/><path d="m1152 32h112 112z"/><path d="m1504 32h-96-32z"/><path d="m32 432v-96-128z"/><path d="m32 960v-224z"/><path d="m32 736v-224z"/><path d="m32 432v80z"/><path d="m1952 392v-72 64 32z"/><path d="m1952 1288v24 52.3637 11.6363 136-104-43.6364z"/><path d="m1952 1064v24 200-72z"/><path d="m1952 840v24 200-72z"/><path d="m1952 616v24 200-72z"/><path d="m1952 392v24 200-72z"/><path d="m1952 1952v-96-128z"/><path d="m1952 1728v-96-120z"/><path d="m32 32h224 16z"/><path d="m1408 928h-32 128z"/><path d="m1504 928h-96z"/><path d="m1088 928h-128-96 128z"/><path d="m800 448v192z"/><path d="m960 928v-64z"/><path d="m960 864h-96v64h96z"/><path d="m864 640v64 160-192z"/><path d="m864 448v32z"/><path d="m1376 1024v32z"/><path d="m1376 1088v192 32z"/><path d="m1600 1376h-38.4-75.0546-29.0908-36.6546-44.8z"/><path d="m1824 1376h-54.3999-75.0547-29.0908-36.6546-28.8z"/><path d="m1648 1344 5-11 3.7671-8.2877-22.1005-10.0457z"/><path d="m1600 1312h-41.5999l86.3999 39.2728 8.2 3.7272-18.3334-40.3334-5.8666-2.6666z"/><path d="m1664 1360-35.2 16h36.6546l9.5454-21z"/><path d="m1675 1333 19.5454 43h75.0547z"/><path d="m1872 1328-7.2329-3.2877-3.7671 8.2877z"/><path d="m1873.4545 1376h29.091l-14.5455-32z"/><path d="m1842.6667 1314.6667 29.3333 13.3333 11 5 69 31.3637v-52.3637h-115.2001z"/><path d="m1883 1333 5 11 14.5455 32h49.4545v-11.6363z"/><path d="m1872 1360-35.2 16h36.6545l9.5455-21z"/><path d="m1852.8 1351.2728-86.4001-39.2728h-137.5999l5.8666 2.6666 29.3334 13.3334 11 5 94.6001 43h54.3999 12.8l16-7.2728z"/><path d="m1872 1360-11-5-8.2-3.7272v17.4544z"/><path d="m1842.6667 1314.6667-5.8668-2.6667h-12.7999-57.6001l86.4001 39.2728 8.2 3.7272z"/><path d="m1856 1344 8.7671-19.2877-22.1004-10.0456z"/><path d="m1675 1355-9.5454 21h29.0908l-14.5454-32z"/><path d="m1561.6 1376-94.6-43 19.5454 43z"/><path d="m1426.6666 1314.6666 29.3334 13.3334 11 5 94.6 43h38.4 28.8l16-7.2727v-17.4545l-86.3999-39.2728h-54.4001-83.2z"/><path d="m1644.8 1368.7273 19.2-8.7273-19.2-8.7272z"/><path d="m1664 1328-7.2329-3.2877-3.7671 8.2877z"/><path d="m1456 1360-35.2 16h36.6546l9.5454-21z"/><path d="m1456 1328-7.2328-3.2877-3.7672 8.2877z"/><path d="m1440 1344 8.7672-19.2877-22.1006-10.0457z"/><path d="m1440 1344-13.3334-29.3334-5.8666-2.6666h-44.8v11.6364l69 31.3636z"/><path d="m1376 1376h44.8l35.2-16-11-5-69-31.3636z"/><path d="m1467 1355-9.5454 21h29.0908l-14.5454-32z"/><path d="m1836.7999 1312h115.2001-128z"/><path d="m1653 1333 11-5z"/><path d="m1456 1328 11 5z"/><path d="m1445 1333 11-5z"/><path d="m1467 1333 5 11z"/><path d="m1440 1344 5-11z"/><path d="m1472 1344-5 11z"/><path d="m1445 1355-5-11z"/><path d="m1467 1355-11 5z"/><path d="m1456 1360-11-5z"/><path d="m1872 1328 11 5z"/><path d="m1648 1344 5-11z"/><path d="m1883 1333 5 11z"/><path d="m1653 1355-5-11z"/><path d="m1888 1344-5 11z"/><path d="m1664 1360-11-5z"/><path d="m1883 1355-11 5z"/><path d="m1675 1355-11 5z"/><path d="m1664 1328 11 5z"/><path d="m1680 1344-5 11z"/><path d="m1675 1333 5 11z"/><path d="m1872 1360-11-5z"/><path d="m1861 1333 11-5z"/><path d="m1861 1355-5-11z"/><path d="m1856 1344 5-11z"/><path d="m768 1088h64 128z"/><path d="m1280 1088h32-52-76z"/><path d="m1056 1088h-96-128 192z"/><path d="m1280 1088h-96-128 192z"/><path d="m1376 928h-64v96h64z"/><path d="m1312 1024h-52z"/><path d="m1312 928v96z"/><path d="m1376 1024h-64-52z"/><path d="m1260 1024h-12-116z"/><path d="m544 1088v76 128z"/><path d="m544 1568v172 52z"/><path d="m1312 1120v-32 192z"/><path d="m1312 1568v160 64-32z"/><path d="m1312 1344v160 64-32z"/><path d="m1312 1120v160 64-32z"/><path d="m768 1376h-224z"/><path d="m832 1152v160 64-32-32z"/><path d="m768 1088h-224v204 20h224z"/><path d="m544 1312v64h224v-64z"/><path d="m832 1152v-64h-64v224h64z"/><path d="m768 1312v64h64v-64z"/><path d="m1312 1504h-64z"/><path d="m960 1792h-32-160z"/><path d="m960 1792h64z"/><path d="m1184 1792h-160-64 32z"/><path d="m1024 1504v64z"/><path d="m1248 1504h-224v64 160h224z"/><path d="m1024 1728v64h160 64v-64z"/><path d="m1312 1728v-160-64h-64v224z"/><path d="m1312 1792v-64h-64v64z"/><path d="m864 1536h-96v96h96z"/><path d="m1400 1696h-24v128h24z"/><path d="m1416 1696h-16v56h16z"/><path d="m1400 1768v56h16v-56z"/><path d="m1440 1696h-24v128h24z"/><path d="m1416 1768h-16z"/><path d="m1400 1752h16z"/><path d="m1416 1752v16z"/><path d="m1400 1768v-16z"/><path d="m1400 576h-24v128h24z"/><path d="m1576 576h-176v24h176z"/><path d="m1400 680v24h176v-24z"/><path d="m1600 576h-24v128h24z"/><path d="m1576 600v80z"/><path d="m1400 680v-80z"/><path d="m1576 680h-176z"/><path d="m1400 600h176z"/></g><g id="b"><path d="m480 1952h224z"/><path d="m704 1952h224z"/><path d="m928 1952h32z"/><path d="m32 1280v224z"/><path d="m32 1056v224z"/><path d="m32 960v96z"/><path d="m1952 96v160 64z"/><path d="m1952 1088v200 24-24z"/><path d="m1952 864v96 104 24-24z"/><path d="m1952 640v96 128-24z"/><path d="m1952 416v96 128-24z"/><path d="m1952 960v96 8z"/><path d="m1952 1376v136z"/><path d="m1952 1512v216z"/><path d="m1776 32h128 48-224z"/><path d="m1824 928h32-128z"/><path d="m1216 928h96-128-96z"/><path d="m864 928h-32z"/><path d="m1312 640v128 96z"/><path d="m1312 416v160 64z"/><path d="m1312 192v160 64z"/><path d="m1664 768h-64z"/><path d="m1600 160v48 176z"/><path d="m1600 208v112 64z"/><path d="m1600 208v-48-32-96 96z"/><path d="m1824 384h-224z"/><path d="m1856 384h-32z"/><path d="m1952 320h-48-48v64h96z"/><path d="m1952 256v-160-64h-48v48 128 48z"/><path d="m1904 320h48v-64h-48z"/><path d="m1776 256v-48-128-48h-48-64v96 128z"/><path d="m1664 320h112v-64h-112z"/><path d="m1776 32v48h128v-48z"/><path d="m1776 208v48 64h80 48v-64-48z"/><path d="m1664 128v-96h-64v96z"/><path d="m1776 80v128z"/><path d="m1904 208v-128z"/><path d="m1600 704v-224h64v64 160z"/><path d="m1664 768h-64v-64h64z"/><path d="m1664 480v64z"/><path d="m1600 704v64h-224v-64z"/><path d="m1312 192v-64h64v128 96h-64z"/><path d="m1376 352v128 96h-64v-160-64z"/><path d="m1376 576v128 64h-64v-128-64z"/><path d="m1376 128v128z"/><path d="m1376 768v96 64h-64v-64-96z"/><path d="m1600 928h-96-128v-64h224z"/><path d="m1824 928h-96-128v-64h224z"/><path d="m1856 864v64h-32v-64z"/><path d="m1376 864v-96z"/><path d="m1600 864h-224z"/><path d="m1824 864h-224z"/><path d="m775.3846 352h24.6154-96z"/><path d="m864 352h-64-24.6154 24.6154z"/><path d="m800 448h-96z"/><path d="m800 352h64v96h-64z"/><path d="m800 352v96h-96v-96z"/><path d="m544 928h-160-64v-64h224z"/><path d="m768 928h-160-64v-64h224z"/><path d="m992 928h-128-32-64v-64h32 64 96 32z"/><path d="m1216 928h-128-96v-64h192 32z"/><path d="m1312 864v64h-96v-64z"/><path d="m864 448v192 32h-64v-32-192z"/><path d="m864 672v192h-64v-192z"/><path d="m800 640v32 192z"/><path d="m1184 864h-192-32z"/><path d="m864 864h96z"/><path d="m864 448v32 160z"/><path d="m544 864h-224 136z"/><path d="m768 864h-224z"/><path d="m1376 1856v-96-128z"/><path d="m1376 1632v-96-32z"/><path d="m1376 1504v-128z"/><path d="m1376 1024v32 32z"/><path d="m1376 928v96z"/><path d="m1952 1376h-49.4545-29.091-36.6545-12.8z"/><path d="m1824 1312h-224 28.8 137.5999z"/><path d="m1376 1312h44.8 83.2z"/><path d="m1600 1376h-224v-64h128 96z"/><path d="m1824 1376h-224v-64h224z"/><path d="m1952 1312v64h-128v-64z"/><path d="m480 1632v160 64-116z"/><path d="m480 1408v160 64-20z"/><path d="m480 1184v64 96 64-20z"/><path d="m1312 1856h64-224z"/><path d="m864 1632h-96v-96h96z"/><path d="m480 1408v-64h64v32 192h-64z"/><path d="m544 1568v224h-64v-160-64z"/><path d="m768 1376h-224v-32h160 64z"/><path d="m800 1344h32v32h-64v-32z"/><path d="m480 1248v-64-160h224v224z"/><path d="m544 1344h-64v-96h224v96z"/><path d="m704 1024h96v64 160h-96z"/><path d="m800 1248v64 32h-32-64v-96z"/><path d="m800 1312v-64-160h32v64 160z"/><path d="m832 1344h-32v-32h32z"/><path d="m1024 1728v-160-64h224v224z"/><path d="m1248 1792h-96-128v-64h224z"/><path d="m1312 1504v32 192h-64v-224z"/><path d="m1312 1728v32 32h-64v-64z"/><path d="m704 1856h-224v-64h64 160z"/><path d="m928 1856h-224v-64h64 160z"/><path d="m1152 1856h-224v-64h32 64 128z"/><path d="m1248 1792h64v64h-160v-64z"/><path d="m1312 1280v-192h64v224h-64z"/><path d="m1376 1312v64 128 32h-64v-32-192z"/><path d="m1376 1536v96 128h-64v-32-192z"/><path d="m1376 1760v96h-64v-64-32z"/><path d="m1024 1088h-192-32v-64h128 96z"/><path d="m1248 1088h-192-32v-64h108 116z"/><path d="m1260 1024h52 64v64h-64-32-32v-64z"/><path d="m1376 928v96h-64v-96z"/><path d="m1312 1088h-32z"/><path d="m704 1024h-224z"/><path d="m928 1024h-128-96z"/><path d="m544 1376v140 52z"/><path d="m1312 1280v32 192-160z"/><path d="m832 1376h-64z"/><path d="m832 1088v64z"/><path d="m1248 1504h-224z"/><path d="m768 1792h-64-160z"/><path d="m864 1536v96z"/><path d="m1024 1568v160 64-64z"/><path d="m768 1632v-96z"/><path d="m864 1632h-96z"/><path d="m768 1536h96z"/><path d="m320 1056v-128h64v128 96h-64z"/><path d="m384 1152v128 96h-64v-96-128z"/><path d="m384 1376v128h-64v-128z"/><path d="m320 1280v96 128z"/><path d="m320 1056v96 128z"/><path d="m384 928v128z"/><path d="m384 1632v224z"/><path d="m384 1600v32z"/><path d="m1376 1696h64z"/><path d="m1440 1824h-64z"/><path d="m1440 1696v128z"/><path d="m1376 1824v-128z"/><path d="m1376 1816v-112h64v112z"/><path d="m1376 704v-128z"/><path d="m1600 576v128z"/><path d="m1376 576h224z"/><path d="m1600 704h-224z"/><path d="m1600 704h-224v-128h224z"/><path d="m256 1952h-48-128-48z"/><path d="m32 1504v-128-96z"/><path d="m32 1504v96z"/><path d="m32 1664v-64-96 224z"/><path d="m352 1600h32-32-96z"/><path d="m352 1600h-96-128z"/><path d="m384 1856v-64-128-32z"/><path d="m320 1856v32 64h64v-96z"/><path d="m384 1856v96z"/><path d="m32 1664h48 48v-64h-96z"/><path d="m208 1776v-112h-80-48v112z"/><path d="m320 1888v-32-192h-112v112 112z"/><path d="m208 1904v48h48 64v-64h-112z"/><path d="m80 1888v-112-112h-48v64 160z"/><path d="m32 1952h48v-48-16h-48z"/><path d="m208 1904h-128v48h128z"/><path d="m208 1904v-16-112 112z"/><path d="m80 1776v112 16z"/><path d="m1376 1696h64z"/><path d="m1440 1824h-64z"/><path d="m1440 1696v8z"/><path d="m1440 1816v8z"/><path d="m1376 1704v-8z"/><path d="m1376 1824v-8z"/><path d="m1440 1704h-64z"/><path d="m1440 1704h-64v-8h64z"/><path d="m1376 1816h64z"/><path d="m1440 1824h-64v-8h64z"/><path d="m704 448h-224z"/><path d="m704 448h96v-96h-24.6154-71.3846z"/><path d="m704 448h-224v-96h224z"/><path d="m704 352h-224z"/><path d="m1952 32v64 64z"/><path d="m1824 32h-48-112-64 64z"/><path d="m1600 128v64 16z"/><path d="m1952 384h-96z"/><path d="m1888 208h-112 128z"/><path d="m1904 208v-128-48h48v128 48z"/><path d="m1904 80h-128v-48h48 80z"/><path d="m1904 80h-128z"/><path d="m1776 32v48 128h-112v-80-96z"/><path d="m1888 320h-32-192v-112h112 112z"/><path d="m1904 208h48v112h-64v-112z"/><path d="m1952 384h-96v-64h32 64z"/><path d="m1856 384v-64z"/><path d="m1600 128v-96h64v96z"/><path d="m1664 128h-64z"/><path d="m1504 1152v160h54.4001 41.5999v-160z"/><path d="m1600 1152v160h-96v-160z"/><path d="m384 1952h96z"/><path d="m320 1952h64 96-96-64-64z"/><path d="m32 1728v176 48z"/><path d="m384 1600h-32z"/><path d="m256 1600h-128-96 96z"/><path d="m320 1664v128 64z"/><path d="m320 1856h64z"/><path d="m384 1952h-64v-64-32h64z"/><path d="m208 1664h-80 64 128z"/><path d="m32 1600h96v64h-48-48z"/><path d="m128 1600v64z"/><path d="m208 1776v-112h112v192 32h-112z"/><path d="m320 1888v64h-64-48v-48-16z"/><path d="m80 1904h128z"/><path d="m128 1664h80v112h-128v-112z"/><path d="m32 1728v-64h48v112 128h-48z"/><path d="m208 1776h-128z"/><path d="m80 1904h128v48h-176v-48z"/><path d="m1600 1088v64 160-160z"/><path d="m1600 1088v-160h-64-32v160 64h96z"/><path d="m1504 1088v64 160-160z"/><path d="m1504 1088v-160h32 64v160 64h-96z"/><path d="m960 1952h-32z"/><path d="m960 1952h224z"/><path d="m1184 1952h224z"/><path d="m1408 1952h224z"/><path d="m1632 1952h224z"/><path d="m1856 1952h96z"/><path d="m1952 960v-96-128z"/><path d="m1952 736v-96-128z"/><path d="m1952 512v-96-32z"/><path d="m32 112v96 128-48z"/><path d="m32 208v-96-80z"/><path d="m592 32h-112-112 112z"/><path d="m816 32h-112-112 112z"/><path d="m1040 32h-112-112 112z"/><path d="m1264 32h-112-112 112z"/><path d="m1504 32h-128z"/><path d="m1504 32h96z"/><path d="m1120 928h-128-96 128z"/><path d="m1344 928h-32-96-96 128 64z"/><path d="m480 928h-160-64 96z"/><path d="m704 928h-160-64 96z"/><path d="m160 336v-112z"/><path d="m1536 832h-224v96h32 160 32z"/><path d="m1600 928v-96h-64v96z"/><path d="m1600 832h-64z"/><path d="m368 32h-96v192h48 48z"/><path d="m256 544v160z"/><path d="m480 224h-112-48v128h160z"/><path d="m320 352v96h160v-96z"/><path d="m480 352v96h224v-96z"/><path d="m480 448v96z"/><path d="m320 448v96h32 128v-96z"/><path d="m352 608v160 64-64z"/><path d="m352 768v-160-64h-32v224z"/><path d="m320 832h32v-64h-32z"/><path d="m544 832h-192-32v96h160 64z"/><path d="m768 832h-192-32v96h160 64z"/><path d="m992 832h-192-32v96h32 96 96z"/><path d="m1216 832h-192-32v96h128 96z"/><path d="m1312 832h-64-32v96h96z"/><path d="m320 832h-64v96h64z"/><path d="m320 352v-128h-48-16v224h64z"/><path d="m256 448v96h64v-96z"/><path d="m320 768v-224h-64v160 64z"/><path d="m256 832h64v-64h-64z"/><path d="m256 544h-96z"/><path d="m256 224h-96v112 96 16h96z"/><path d="m160 448v96h96v-96z"/><path d="m160 336h-128v96h128z"/><path d="m1504 928v160z"/><path d="m800 928v224z"/><path d="m1248 1344h32-32-128z"/><path d="m896 1120v32 192-192z"/><path d="m896 1120v-192h-96v224h96z"/><path d="m800 1152v192h96v-192z"/><path d="m1280 1600v192 32-32z"/><path d="m1280 1376v192 32-32z"/><path d="m1024 1824h-224z"/><path d="m1248 1824h-224z"/><path d="m1024 1344h-128-96v32 192h224z"/><path d="m800 1568v32 192h224v-224z"/><path d="m800 1792v32h224v-32z"/><path d="m1248 1344h-128-96v224h224z"/><path d="m1024 1568v224h224v-224z"/><path d="m1024 1792v32h224v-32z"/><path d="m1280 1568v-192-32h-32v224z"/><path d="m1280 1792v-192-32h-32v224z"/><path d="m1280 1824v-32h-32v32z"/><path d="m1952 1952h-96z"/><path d="m32 736v224-32z"/><path d="m32 512v224-32z"/><path d="m32 288v48 96 80-32z"/><path d="m32 64v48 176-32z"/><path d="m32 64v-32 80z"/><path d="m32 432v80z"/><path d="m1952 960v96z"/><path d="m1952 1288v216 8-136-64z"/><path d="m1952 1064v216 8-200z"/><path d="m1952 1728v224z"/><path d="m1376 32h128-128-112z"/><path d="m256 32h-224z"/><path d="m480 32h-112-96-16z"/><path d="m704 32h-112-112z"/><path d="m928 32h-112-112z"/><path d="m1152 32h-112-112 32z"/><path d="m1376 32h-112-112 32z"/><path d="m1504 928h-160z"/><path d="m800 928h-32-64z"/><path d="m160 448v96-96-16z"/><path d="m1600 832v96-29.5385z"/><path d="m1600 928v-29.5385z"/><path d="m1536 832h-224z"/><path d="m1536 928h-32-160-32v-96h224z"/><path d="m1600 832v66.4615 29.5385h-64v-96z"/><path d="m160 224h96 16z"/><path d="m384 224h-16 112z"/><path d="m368 32v192z"/><path d="m272 224v-192z"/><path d="m368 224h-96v-192h96z"/><path d="m576 928h-96-128v-96h224z"/><path d="m800 928h-96-128v-96h224z"/><path d="m1024 928h-128-96v-96h224z"/><path d="m1248 928h-128-96v-96h224z"/><path d="m1312 928h-64v-96h64z"/><path d="m256 768v-64-160h96v64 160z"/><path d="m352 832v96h-96v-160h96z"/><path d="m160 448v-16-96-112h112 96 16v224z"/><path d="m384 544h-32-96-96v-96h224z"/><path d="m480 224v128 96h-96v-224z"/><path d="m480 448v96h-96v-96z"/><path d="m256 704v64 160-96-64z"/><path d="m480 224v128z"/><path d="m384 544h96-128z"/><path d="m576 832h-224 192z"/><path d="m800 832h-224 192z"/><path d="m1024 832h-224 192z"/><path d="m1248 832h-224 192z"/><path d="m1312 832h-64z"/><path d="m352 544v64z"/><path d="m160 432h-128z"/><path d="m32 336h128z"/><path d="m160 432h-128v-96h128z"/><path d="m1600 928v160z"/><path d="m800 1600v192 32-32z"/><path d="m800 1376v192 32-32z"/><path d="m800 1152v192 32-32z"/><path d="m1120 1344h-96-128 128z"/><path d="m896 928v192z"/><path d="m800 928h96v192 32h-96z"/><path d="m896 1152v192h-96v-192z"/><path d="m1280 1344v32z"/><path d="m1280 1824h-32z"/><path d="m800 1568v-192-32h96 128v224z"/><path d="m800 1792v-192-32h224v224z"/><path d="m1024 1824h-224v-32h224z"/><path d="m1024 1568v-224h96 128v224z"/><path d="m1024 1792v-224h224v224z"/><path d="m1248 1824h-224v-32h224z"/><path d="m1280 1344v32 192h-32v-224z"/><path d="m1280 1568v32 192h-32v-224z"/><path d="m1280 1792v32h-32v-32z"/><path d="m256 1952h-224 176z"/><path d="m704 1952h-96-128z"/><path d="m928 1952h-96-128z"/><path d="m320 1952h-64z"/><path d="m928 1952h32-32-96z"/><path d="m32 1376v128 96z"/><path d="m32 1152v128 96z"/><path d="m32 1728v224-64z"/><path d="m32 1280v-128-96z"/><path d="m32 1056v-96z"/><path d="m32 1664v-64 64 64z"/><path d="m1952 32v64z"/><path d="m1952 384v96 32z"/><path d="m1952 160v160 64-64-112z"/><path d="m1888 32h64-48-80z"/><path d="m1888 32h-64-160z"/><path d="m128 1600h-96v64h96z"/><path d="m320 1856v96h64v-96z"/><path d="m1952 320h-96v64h96z"/><path d="m1664 96v-64h-64v96h64z"/><path d="m1600 384h64z"/><path d="m1952 384h-96-32-32 96z"/><path d="m1600 320v64z"/><path d="m1600 128v-96 64 96z"/><path d="m1664 96v32 192-64z"/><path d="m1856 320h96-64z"/><path d="m384 1632v32-64z"/><path d="m352 1600h32-64z"/><path d="m320 1856v-64 96 64z"/><path d="m1600 384h64 128 32z"/><path d="m1824 384h32z"/><path d="m1664 128v80 112z"/><path d="m1664 320h192z"/><path d="m352 1600h-32-128-64 128z"/><path d="m384 1632v-32z"/><path d="m256 1952h-224z"/><path d="m32 1664v64z"/><path d="m1952 96v160 64-160z"/><path d="m1952 32h-64z"/><path d="m1792 384h-128z"/><path d="m1888 384h-96-128 160z"/><path d="m1600 32v64z"/><path d="m1600 320v-112-16z"/><path d="m1664 32v64z"/><path d="m1856 320h-192z"/><path d="m1888 32h-224v64 160h224z"/><path d="m1664 256v64h192 32v-64z"/><path d="m1952 256v-160-64h-64v224z"/><path d="m1952 320v-64h-64v64z"/><path d="m384 1792v64 96z"/><path d="m384 1728v64 160-128z"/><path d="m384 1728v-64 128z"/><path d="m320 1600h-64z"/><path d="m256 1600h-64 128z"/><path d="m32 1600h96 64z"/><path d="m256 1664h64-128z"/><path d="m192 1664h-64-96z"/><path d="m320 1792v-128z"/><path d="m256 1664h-64-160v64 160h224z"/><path d="m32 1888v64h224v-64z"/><path d="m320 1888v-96-128h-64v224z"/><path d="m320 1952v-64h-64v64z"/><path d="m608 1952h-128-96 96z"/><path d="m832 1952h-128-96 96z"/><path d="m1184 1952h-128-96z"/><path d="m1408 1952h-128-96z"/><path d="m1632 1952h-128-96z"/><path d="m1856 1952h-128-96z"/><path d="m32 32v32z"/><path d="m32 960v96 96z"/><path d="m1952 736v192 32z"/><path d="m1952 512v192 32z"/><path d="m1952 1728v96 128z"/><path d="m1952 1504v96 128-216z"/><path d="m1952 1280v96 128-216z"/><path d="m1952 1056v96 128-216z"/><path d="m1408 32h192-96-128z"/><path d="m32 1824v-224h224v224z"/><path d="m256 1952h-224v-128h224z"/><path d="m320 1600h64v64 64 96h-128v-224z"/><path d="m384 1824v128h-128v-128z"/><path d="m1600 96v-64h32 192v224h-224z"/><path d="m1824 256v128h-160-64v-64-64z"/><path d="m1824 32h32 96v224h-128z"/><path d="m1952 256v128h-64-64v-128z"/><path d="m256 32h-224l224 224z"/><path d="m480 32h-224v224h224z"/><path d="m704 32h-224v224h224z"/><path d="m928 32h-224v224h224z"/><path d="m960 32h-32v224h32z"/><path d="m1184 32h-32-192v224h224z"/><path d="m1408 32h-32-192v224h224z"/><path d="m1632 32h-32-192v224h224z"/><path d="m1856 32h-32-192v224h96l128-128z"/><path d="m1952 32h-96v96z"/><path d="m1952 32-96 96-128 128h224z"/><path d="m32 32v32 192h224z"/><path d="m32 256v32 192h224v-224z"/><path d="m32 480v32 192h224v-224z"/><path d="m32 704v32 192h224v-224z"/><path d="m1952 1152v-96-96-32h-224v224z"/><path d="m1952 1376v-96-128h-224v224z"/><path d="m1952 1600v-96-128h-224v224z"/><path d="m1856 1952h96l-128-128-96-96v224z"/><path d="m32 928v32 192h224v-224z"/><path d="m32 1152v224h224v-224z"/><path d="m32 1376v224h224v-224z"/><path d="m32 1600v224h128l96-96v-128z"/><path d="m32 1824v128l128-128z"/><path d="m1952 384h-64z"/><path d="m1600 96v160 64-128z"/><path d="m384 1664v64z"/><path d="m256 1600h-224 160z"/><path d="m1824 1824 128 128v-128z"/><path d="m256 256 224 224v-224z"/><path d="m480 256v224h224v-224z"/><path d="m928 256v224h32v-224z"/><path d="m960 256v224h224v-224z"/><path d="m1184 256v224h224v-224z"/><path d="m1728 480v224h224v-192-32z"/><path d="m1728 704v224h224v-192-32z"/><path d="m256 928h224v-224h-224z"/><path d="m1728 1152v-224h-224v224z"/><path d="m1728 1376v-224h-224v224z"/><path d="m1728 1728 96 96h128v-96-128h-224z"/><path d="m1056 1728v224h128 96v-224z"/><path d="m1280 1728v224h128 96v-224z"/><path d="m1728 1728-128-128-96-96v224z"/><path d="m1728 1728h-224v224h128 96z"/><path d="m256 1728 128-128h-128z"/><path d="m256 1728-224 224h224z"/><path d="m256 1728v224h128 96v-224z"/><path d="m480 1728v224h128 96v-224z"/><path d="m704 1728v224h128 96v-224z"/><path d="m704 256v224h224v-224z"/><path d="m1408 256v224h96l128-128v-96z"/><path d="m1632 256v96l96-96z"/><path d="m1728 256-96 96-128 128h224z"/><path d="m1728 256v224h224v-96-128z"/><path d="m928 1728v224h32 96v-224z"/><path d="m1600 1600 128 128v-128z"/><path d="m384 1600 96-96v-128h-224v224z"/><path d="m704 1504v224h224v-224z"/><path d="m480 480 224 224v-224z"/><path d="m928 480v224h32v-224z"/><path d="m960 480v224h224v-224z"/><path d="m1184 480v224h96l128-128v-96z"/><path d="m1408 480v96l96-96z"/><path d="m1504 480-224 224h224z"/><path d="m1504 480v224h224v-224z"/><path d="m1504 704v224h224v-224z"/><path d="m480 480-224-224v224z"/><path d="m480 704v-224h-224v224z"/><path d="m480 928h224v-224h-224z"/><path d="m1504 1152v-224h-224v224z"/><path d="m1504 1504 96 96h128v-224h-224z"/><path d="m1056 1504v224h224v-224z"/><path d="m1504 1504-128-128-96-96v224z"/><path d="m1504 1504h-224v224h224z"/><path d="m480 1152v-224h-224v224z"/><path d="m480 1376v-224h-224v224z"/><path d="m480 1504 128-128h-128z"/><path d="m480 1504-224 224h224z"/><path d="m480 1504v224h224v-224z"/><path d="m704 480v224h224v-224z"/><path d="m928 1504v224h128v-224z"/><path d="m1376 1376 128 128v-128z"/><path d="m608 1376 96-96v-128h-224v224z"/><path d="m1184 704v96l96-96z"/><path d="m1280 704-224 224h224z"/><path d="m1280 704v224h224v-224z"/><path d="m704 704 224 224v-224z"/><path d="m928 704v224h32v-128-96z"/><path d="m960 704v96h96 128v-96z"/><path d="m704 704-224-224v224z"/><path d="m704 928h224l-224-224z"/><path d="m1280 1280 96 96h128v-224h-224z"/><path d="m1280 1280-128-128-96-96v224z"/><path d="m1280 1280h-224v224h224z"/><path d="m704 1152v-224h-224v224z"/><path d="m704 1280 128-128h-128z"/><path d="m704 1280-224 224h224z"/><path d="m704 1280v224h224v-224z"/><path d="m928 1280v224h128v-224z"/><path d="m1152 1152 128 128v-128z"/><path d="m832 1152 53.3332-53.333 42.6668-42.667v-128h-224v224z"/><path d="m970.3528 928h60.5034 25.1438-96-32z"/><path d="m1056 885.3329 42.6666.0001 85.3334-85.333h-128z"/><path d="m928 1013.6471v-60.5045-25.1426 128z"/><path d="m960 1056v-2.8236-26.3529l-32-13.1764v42.3529z"/><path d="m928 953.1426v60.5045l30 12.3529z"/><path d="m1026 1026-66 27.1764v2.8236h53.6472z"/><path d="m1053.1765 960h-22.3192-4.0338l13.1765 32z"/><path d="m992 1040-32-13.1765v26.3529z"/><path d="m1056 953.1429-42.3528 102.8571h42.3528z"/><path d="m958 958 12.3528-30h-42.3528v25.1426l16 38.8574z"/><path d="m1030.8562 928-38.8562 16 38.8573 16h22.3192l2.8235-6.8571v-25.1429z"/><path d="m1030.8573 960-4.8573-2 .8235 2z"/><path d="m1030.8562 928h-60.5034l-12.3528 30z"/><path d="m1026 958 14 34z"/><path d="m1026 1026 14-34z"/><path d="m992 1040 34-14z"/><path d="m992 1040-34-14z"/><path d="m1040 992-14-34-34-14-34 14-14 34 14 34 34 14 34-14z"/><path d="m960 928h96v-42.6671-85.3329h-96z"/><path d="m1056 928 42.6666-42.667-42.6666-.0001z"/><path d="m1056 928v25.1429 102.8571z"/><path d="m1056 928v128l96 96h128v-224z"/><path d="m1056 1056h-42.3528-53.6472-32z"/><path d="m1056 1056h-128v224h128z"/><path d="m928 1056-96 96-128 128h224z"/><path d="m992 944 34 14 14 34-14 34-34 14-34-14-14-34 14-34z"/><path d="m992 1040 34-14 14-34-14-34-34-14-34 14-14 34 14 34z"/><path d="m1026 958 14 34z"/><path d="m1026 958-34-14z"/><path d="m992 1040-34-14z"/><path d="m992 944 34 14z"/><path d="m992 944-34 14z"/><path d="m958 958-14 34z"/><path d="m958 1026-14-34z"/><path d="m958 1026-14-34 14-34 34-14 34 14 14 34-14 34-34 14z"/><path d="m1026 958 14 34z"/><path d="m1040 992-14 34z"/><path d="m992 944 34 14z"/><path d="m1026 1026-34 14z"/><path d="m958 958 34-14z"/><path d="m992 1040-34-14z"/><path d="m944 992 14-34z"/><path d="m958 1026-14-34z"/><path d="m992 1040 34-14 14-34-14-34-34-14-34 14-14 34 14 34z"/><path d="m1040 992-14 34z"/><path d="m1026 1026-34 14z"/><path d="m992 944-34 14z"/><path d="m958 1026-14-34z"/><path d="m958 958-14 34z"/><path d="m1168 1040h-32z"/><path d="m1168 1024v-64z"/><path d="m816 960v64z"/><path d="m1040 816h-192-32 32z"/><path d="m1136 944v-128h32v128z"/><path d="m1136 1024v-64h16v64z"/><path d="m1152 1024v-64h16v64z"/><path d="m1152 960h-16z"/><path d="m1152 1024h16z"/><path d="m1072 1040h-32-192v-16-64-16-128h192 32z"/><path d="m1136 816v128 16 64 16h-64v-224z"/><path d="m848 816v128h-32v-128z"/><path d="m832 1024v-64h16v64z"/><path d="m816 1024v-64h16v64z"/><path d="m832 1024h16z"/><path d="m832 960h-16z"/><path d="m1168 1168h-128z"/><path d="m1040 1168h-224v-128h32 192z"/><path d="m1072 1040h64 32v128h-128v-128z"/><path d="m1152 960h-16v64h16z"/><path d="m848 960h-16v64h16z"/><path d="m848 1040h-32z"/><path d="m848 1024v16z"/><path d="m848 944v16z"/><path d="m1136 1040v-16z"/><path d="m1136 960v-16z"/><path d="m1136 944h32z"/><path d="m1168 960h-16v64h16z"/><path d="m1152 960h-16v64h16z"/><path d="m1168 960h-16z"/><path d="m1136 1024h16z"/><path d="m1152 960v64z"/><path d="m1152 1024v-64z"/><path d="m848 944h-32z"/><path d="m832 960h-16v64h16z"/><path d="m848 960h-16v64h16z"/><path d="m816 1024h16z"/><path d="m848 960h-16z"/><path d="m832 1024v-64z"/><path d="m832 960v64z"/><path d="m1152 1024h-16v-64h16z"/><path d="m1152 1024h-16z"/><path d="m1136 960h16z"/><path d="m1152 960v64z"/><path d="m1136 1024v-64z"/><path d="m848 1024h-16v-64h16z"/><path d="m848 1024h-16z"/><path d="m832 960h16z"/><path d="m848 960v64z"/><path d="m832 1024v-64z"/></g><g id="c"><path d="m1168 816v128z"/><path d="m816 944v-128z"/><path d="m1072 816h64 32-32-64-32z"/><path d="m848 1024v16z"/><path d="m848 960v64z"/><path d="m848 944v16z"/><path d="m1136 1024v-64z"/><path d="m1136 1040v-16z"/><path d="m1136 960v-16z"/><path d="m1136 816v128h32v-128z"/><path d="m1072 816h-32-192v128 16 64 16h192 32z"/><path d="m1136 1040v-16-64-16-128h-64v224z"/><path d="m816 816v128h32v-128z"/><path d="m1168 1040v128z"/><path d="m816 1168v-128z"/><path d="m1040 1168h-224z"/><path d="m1040 1040h-192-32v128h224z"/><path d="m1168 1168v-128h-32-64-32v128z"/></g></defs><g stroke="#000"><use fill="none" stroke-miterlimit="0" stroke-width="10" xlink:href="#a"/><use fill="#ccc" xlink:href="#a"/><use fill="none" stroke-miterlimit="0" stroke-width="10" xlink:href="#b"/><use fill="#e5e5e5" xlink:href="#b"/><use fill="none" stroke-miterlimit="0" stroke-width="10" xlink:href="#c"/><use fill="#fff" xlink:href="#c"/></g></svg>