<svg viewBox="-867 -1475 1958 1974" xmlns="http://www.w3.org/2000/svg" xmlns:xlink="http://www.w3.org/1999/xlink"><defs><g id="a"><path d="m-128-1136h-64v64h64z"/><path d="m-416-144v64h64v-64z"/><path d="m-544-752v64h64v-64z"/><path d="m-192-1072v-64z"/><path d="m-128-1072h-64z"/><path d="m-192-1136h64z"/><path d="m-128-1136v64z"/><path d="m832-880v64h64v-64z"/><path d="m-448-432v64 4-72z"/><path d="m448-496h-64 69z"/><path d="m96-496h-192-32l160-160h64z"/><path d="m320-496h-192-32v-160h128l96 96z"/><path d="m384-496h-32-32v-64z"/><path d="m448-304h5-41z"/><path d="m-448-368v-64h128v64z"/><path d="m-96-304h-160l-64-64v-64l64-64h128 32z"/><path d="m128-304h-164-60v-192h192 32z"/><path d="m352-304h-164-60v-192h192 32z"/><path d="m384-496h64v192h-36-60v-192z"/><path d="m-320-432h-128v-4h128z"/><path d="m-320-432v-4l60-60h4z"/><path d="m-256-304h-4l-60-60v-4z"/><path d="m-448-436v72 28-128z"/><path d="m-128-496h-128-4z"/><path d="m453-496h-69 104z"/><path d="m224-656h-128-64z"/><path d="m384-496h-512l160-160h192z"/><path d="m384-496-160-160h-192l-160 160z"/><path d="m384-496-64-64-96-96z"/><path d="m32-656-160 160z"/><path d="m-36-304h-28-196 4 160z"/><path d="m188-304h-28-196 164z"/><path d="m412-304h-28-196 164z"/><path d="m412-304h41 35-104z"/><path d="m-448-436h128v72h-128z"/><path d="m-320-436h-128v72h128z"/><path d="m-128-496h512 69v192h-41-28-196-28-196-28-196l-60-60v-72l60-60z"/><path d="m-64-304h28 196 28 196 28 41v-192h-69-512-132l-60 60v72l60 60z"/><path d="m-448-436v-28h128v28z"/><path d="m-260-304h-28l-32-32v-28z"/><path d="m-320-436v-28l32-32h28z"/><path d="m453-304h-5v-192h5z"/><path d="m-448-364v-4h128v4z"/><path d="m240-640 144 144h-512l144-144 16-16h192z"/><path d="m384-496-144-144-16-16h-192l-16 16-144 144z"/><path d="m-96-304h32 192 32 192 32 104v-192h-104-512-160l-32 32v128l32 32z"/><path d="m-128-496h512 104v192h-104-32-192-32-192-32-192l-32-32v-128l32-32z"/><path d="m-320-464h-128v128h128z"/><path d="m-448-336v-128h128v128z"/><path d="m488-496h-104 32 64 32 32 64z"/><path d="m-128-496h-160-32 32 128z"/><path d="m224-656 16 16z"/><path d="m384-304h104 88-32-32-32-64-32-32z"/><path d="m-288-304h-32v-32z"/><path d="m-320-464v-32h32z"/><path d="m-448-464v128 96-64-32z"/><path d="m-448-336h128v32 64h-128z"/><path d="m-128-496h-132-28z"/><path d="m224-656h-192z"/><path d="m16-640 16-16-160 160z"/><path d="m240-640 144 144-160-160z"/><path d="m-64-304h-32-192 28z"/><path d="m160-304h-32-192 28z"/><path d="m384-304h-32-192 28z"/><path d="m488-304h-35v-192h35z"/><path d="m-448-336v-28h128v28z"/><path d="m448 176v64h64v-64z"/><path d="m-320-304v32 32z"/><path d="m224-656h-192z"/><path d="m32-656-16 16z"/><path d="m224-656v128h16v-112z"/><path d="m32-656-16 16v112h16z"/><path d="m240-640v112z"/><path d="m-320-176v128z"/><path d="m-448-656h-128z"/><path d="m-448-784v96 32z"/><path d="m-576-784h128v128h-128z"/><path d="m-320-48h-128z"/><path d="m-448-176h128v128h-128z"/><path d="m-448-80 32 32h64l32-32z"/><path d="m-448-144v64h32v-64z"/><path d="m-352-80h32v-64h-32z"/><path d="m-416-176-32 32h128l-32-32z"/><path d="m-416-80v-64z"/><path d="m-352-80h-64z"/><path d="m-352-144v64z"/><path d="m-416-144h64z"/><path d="m-576-688 32 32h64.0013l31.9987-31.9987z"/><path d="m-576-688h32v-64h-32z"/><path d="m-480-687.999 32 .0003v-64.0013h-32z"/><path d="m-448-752-32-32h-64l-32 32z"/><path d="m-544-752h64z"/><path d="m-544-688v-64z"/><path d="m-480-687.999v-.001h-64z"/><path d="m-480-752v64 .001z"/><path d="m576-304h32z"/><path d="m576-304h-88v-192h120v192z"/><path d="m800-464h16z"/><path d="m-576-784v128z"/><path d="m224-1296h-32 4z"/><path d="m64-1296h-32v-16z"/><path d="m-448-176v-64h128v64z"/><path d="m32-464h-16v128h16z"/><path d="m32-336h-16v32h16z"/><path d="m240-464h-16v128h16z"/><path d="m240-336h-16v32h16z"/><path d="m736-496h64v32 128 32h-192v-192z"/><path d="m-448-560v-64h128v64z"/><path d="m-336-688h64 16v32 32h-64-128v-32-32z"/><path d="m-448-688v-96-32h112v64 64z"/><path d="m-272-688v-64h16v64z"/><path d="m-336-816h80v32 32h-16-64z"/><path d="m32-528h-16v64h16z"/><path d="m224-336v-128-64h-192v64 128 32h96 96z"/><path d="m240-528h-16v64h16z"/><path d="m720-528 16 32h-128l16-32z"/><path d="m64-1296h128 32v128 32 64h-192v-64-32-128z"/><path d="m224-1072v64 128 32h-192v-32-128-64z"/><path d="m224-848v32 128 32h-192v-32-128-32z"/><path d="m224-1168h4z"/><path d="m32-1136v64 64h-48v-128z"/><path d="m224-1008h48v32 96h-48z"/><path d="m544-496h64z"/><path d="m736-496-16-32z"/><path d="m624-528-16 32z"/><path d="m576-304h32-32-32z"/><path d="m480-304v32h-32-32v-32z"/><path d="m384-304h32v32h-32z"/><path d="m240-304h16v8h-16z"/><path d="m352-528-112-112v-.9412l120 112.9412z"/><path d="m240-640v112-112.9412z"/><path d="m384-496-32-32h8l24 24z"/><path d="m224-656v128h-64-64-64v-128z"/><path d="m16-336v-128-64 64 128 40-8z"/><path d="m32-656v128h-16v-112.9412z"/><path d="m-320-240v-32 32 32 32z"/><path d="m-320-304v32 32-32z"/><path d="m-160-304v32h-128v-32z"/><path d="m-320-304h32v32h-32z"/><path d="m-448-496h16z"/><path d="m-320-48h-128z"/><path d="m-320-176v128z"/><path d="m-320-528v32-64z"/><path d="m624-596.5714v4.5714 64z"/><path d="m720-528v-64-4.5714z"/><path d="m720-528h-96v-64h96z"/><path d="m720-596.5714v4.5714h-96v-4.5714z"/><path d="m16-528v-112z"/><path d="m352-528 32 32-144-144z"/><path d="m224-528v-128h-192v128z"/><path d="m-32-592 48-48-144 144z"/><path d="m-96-304h-32-32-128-32 32z"/><path d="m128-304h-96-16-16-96 32z"/><path d="m352-304h-96-16-16-96 32z"/><path d="m-448-784h-128z"/><path d="m-320-176h-128z"/><path d="m-448-496v-64 96z"/><path d="m-448-560h128v64 32h-128z"/><path d="m-448-176v128z"/><path d="m-416-176h64z"/><path d="m-320-144v64z"/><path d="m-352-48h-64z"/><path d="m-448-80v-64z"/><path d="m-416-48-32-32v-64l32-32h64l32 32v64l-32 32z"/><path d="m-448-144 32-32z"/><path d="m-352-176 32 32z"/><path d="m-320-80-32 32z"/><path d="m-416-48-32-32z"/><path d="m-576-688v-64z"/><path d="m-480-656h.0013-64.0013z"/><path d="m-448-752v64.0013-.0013z"/><path d="m-544-784h64z"/><path d="m-480-784 32 32v64l-32 32h-64l-32-32v-64l32-32z"/><path d="m-576-752 32-32z"/><path d="m-448-688v.0013l-31.9987 31.9987h-.0013z"/><path d="m-544-656-32-32z"/><path d="m-480-784 32 32z"/><path d="m720-624h-96v48h96z"/><path d="m624-624v48z"/><path d="m720-576v-48z"/><path d="m720-624h-96z"/><path d="m624-576h96z"/><path d="m544-496v21.3333z"/><path d="m512-496v21.3333h32v-21.3333z"/><path d="m-336-688v-64z"/><path d="m-272-688h-64v-64h64z"/><path d="m-272-688h-64z"/><path d="m-336-752h64z"/><path d="m-272-752v64z"/><path d="m16-640.9412v.9412l-48 48v-8l48-48z"/><path d="m228-1296h4 24z"/><path d="m32-1296h32z"/><path d="m32-1296h-4-28z"/><path d="m224-1168v-128z"/><path d="m256-1168h-24-4z"/><path d="m228-1168h-4v-128h4 28v128z"/><path d="m228-1168h4 24v32h-32v-32z"/><path d="m32-1296v128z"/><path d="m32-1168h-4z"/><path d="m28-1296h4v128h-4-28v-128z"/><path d="m608-304h192z"/><path d="m608-304v32z"/><path d="m608-272v-32h192v32z"/><path d="m800-272v-32z"/><path d="m256-1296h-24 4 52z"/><path d="m0-1296h28z"/><path d="m0-1296h-32z"/><path d="m288-1168h-20-4z"/><path d="m256-1168v-128z"/><path d="m288-1296v128h-24-8v-128z"/><path d="m0-1168h24-24-32 24z"/><path d="m0-1168h28-4z"/><path d="m0-1296v128z"/><path d="m0-1296v128h-8-24v-128z"/><path d="m24-656h-24v-32h32v32z"/><path d="m608-272h192z"/><path d="m800-240h-192v-32h192z"/><path d="m224-208v-32-24 8 176z"/><path d="m256-296v-8h96 32v32h-128z"/><path d="m224-296h16 16v24h-32z"/><path d="m360-528-120-112.9412-16-15.0588h8z"/><path d="m224-528v-128l16 15.0588v112.9412z"/><path d="m240-336v-128-64 64 128 32 8z"/><path d="m384-504v-24h32v32h-32z"/><path d="m240-336h-16v-128h16z"/><path d="m224-336h16v40h-16z"/><path d="m224-528h16v64h-16z"/><path d="m32-296v-40-128-32h32v32 192h-32z"/><path d="m64-272v32 32h-32v-56-8z"/><path d="m64-272v-192h32 64 64v128 40 32 24h-160z"/><path d="m224-240v32h-160v-32z"/><path d="m96-496v32h-32v-32z"/><path d="m32-528h64v32h-32-32z"/><path d="m160-528h64v64h-64z"/><path d="m96-496v-32 64z"/><path d="m64-208h160v128h-192v-128z"/><path d="m24-656h8l-16 15.0588v-7.0588z"/><path d="m0-296v24h-128v-32h32 96z"/><path d="m0-296v-8h16v8z"/><path d="m16-528h16v32 32h-16z"/><path d="m32-336h-16v-128h16z"/><path d="m16-336h16v40h-16z"/><path d="m16-528v-112-.9412z"/><path d="m-400-52v4h32v-4z"/><path d="m-572-736h-4v32h4z"/><path d="m544-496v64z"/><path d="m512-304v-21.3333z"/><path d="m96-528h64z"/><path d="m160-464h-64z"/><path d="m160-528v64z"/><path d="m96-528h64v64h-64z"/><path d="m544-325.3333v21.3333z"/><path d="m512-325.3333v21.3333h32v-21.3333z"/><path d="m512-474.6667v-21.3333z"/><path d="m512-474.6667v42.6667h32v-42.6667z"/><path d="m800-208v-32z"/><path d="m268-1168h20 32-32z"/><path d="m268-1168h20-32-24 24 8z"/><path d="m320-1168h-32v-128h32z"/><path d="m288-1168v-128z"/><path d="m-32-1168h-32v-128h32z"/><path d="m-32-1296v128z"/><path d="m-96-1040v-128z"/><path d="m-96-1168v128h-128v-128z"/><path d="m-96-1040h-128z"/><path d="m608-240v-32z"/><path d="m800-208h-192v-32h192z"/><path d="m608-240h192z"/><path d="m-96-1136-32-32v128l32-32z"/><path d="m-192-1072v32h64v-32z"/><path d="m-128-1168h-64v32h64z"/><path d="m-192-1168-32 32v64l32 32z"/><path d="m-192-1072v-64z"/><path d="m-128-1072h-64z"/><path d="m-192-1136h64z"/><path d="m-128-1136v64z"/><path d="m800-176v-32-32z"/><path d="m224 112h-192z"/><path d="m320-1296h-32-52 20z"/><path d="m-272-656h16z"/><path d="m-272-656h16-32-32z"/><path d="m480-1296h32v128h-128v-128z"/><path d="m-224-1168v128z"/><path d="m-64-1296v128z"/><path d="m320-1168v-128z"/><path d="m384-1168h-32-32v-128h32 32z"/><path d="m-64-1168h32z"/><path d="m-64-1168h-32z"/><path d="m-96-1168h-128z"/><path d="m-96-1296h32v128h-32-128v-128z"/><path d="m-96-1040v-128z"/><path d="m-96-1040h-128z"/><path d="m-224-1168h-32-128v-128h128 32z"/><path d="m-256-656v-32-64-32z"/><path d="m-272-816h16-80-112 112 16z"/><path d="m-272-784h16z"/><path d="m-272-816v32h16v-32z"/><path d="m-256-784h-32v96 32h32z"/><path d="m544-304v-64-128z"/><path d="m608-240v32z"/><path d="m608-208h192z"/><path d="m800-176h-192v-32h192z"/><path d="m224-256v-8-32 24 32z"/><path d="m224-80v-176 16 224z"/><path d="m512-304v32z"/><path d="m544-496h-32z"/><path d="m512-304h32z"/><path d="m512-304h32v-192h-32z"/><path d="m224-80v64 128h-192v-128-64z"/><path d="m-272-624h-48 64z"/><path d="m-272-624h16v-32h-16z"/><path d="m-272-624v-32h-48v32z"/><path d="m-400-48v-4z"/><path d="m-368-52v4z"/><path d="m-400-48v-4h32v4z"/><path d="m-368-48h-32z"/><path d="m-400-52h32z"/><path d="m-576-736h4z"/><path d="m-572-704h-4v-32h4z"/><path d="m-572-704h-4z"/><path d="m-576-704v-32z"/><path d="m-572-736v32z"/><path d="m-192-1168h64z"/><path d="m-224-1072v-64z"/><path d="m-128-1040h-64z"/><path d="m-96-1136v64z"/><path d="m-224-1136 32-32h64l32 32v64l-32 32h-64l-32-32z"/><path d="m-224-1136 32-32z"/><path d="m-128-1168 32 32z"/><path d="m-96-1072-32 32z"/><path d="m-192-1040-32-32z"/><path d="m512-304h32z"/><path d="m544-496h-32z"/><path d="m544-304h-32v-64h32z"/><path d="m544-432h-32v-64h32z"/><path d="m544-368v64z"/><path d="m512-432v-64z"/><path d="m512-304v-64z"/><path d="m512-368v42.6667h32v-42.6667z"/><path d="m800-176v-64 96z"/><path d="m928-784h-128v-128h128z"/><path d="m928-912v128z"/><path d="m384-1168h128z"/><path d="m512-1168v32z"/><path d="m384-1136v-32h128v32z"/><path d="m384-1168h-32z"/><path d="m-384-1168h128z"/><path d="m-384-1168v-128z"/><path d="m-256-1136v-32z"/><path d="m-256-1136h-128v-32h128z"/><path d="m32-16v-64z"/><path d="m32-16v128z"/><path d="m608-240v32 32z"/><path d="m608-176h192z"/><path d="m800-144h-192v-32h192z"/><path d="m224 112v-128z"/><path d="m256 112h-32v-128h32z"/><path d="m32 112h-32v-128h32z"/><path d="m928-880-32-32h-63.999l-32.001 32.001z"/><path d="m928-880h-32v64h32z"/><path d="m832-880-32 .001v63.999h32z"/><path d="m800-816 32 32h64l32-32z"/><path d="m832-880h64z"/><path d="m896-880v64z"/><path d="m832-816v-64z"/><path d="m896-816h-64z"/><path d="m800-912v128z"/><path d="m800-784h128z"/><path d="m928-912h-128z"/><path d="m224 112h32z"/><path d="m32 112h-32z"/><path d="m768-784v-128h32v128z"/><path d="m800-912h-32z"/><path d="m384-1168v32z"/><path d="m384-784v128z"/><path d="m512-1136v-32 64z"/><path d="m384-1136h128z"/><path d="m384-1104v-32h128v32z"/><path d="m576-784v-32-160h192v32 32 128 32h-192z"/><path d="m768-752v96h-32-16-96-16-32v-96z"/><path d="m576-816v32h-32z"/><path d="m576-752v96h-64-128v-128h160 32z"/><path d="m-256-1136v-32 32 32z"/><path d="m-384-1168v32z"/><path d="m-256-1104h-128v-32h128z"/><path d="m-384-1136h128z"/><path d="m736-656-16 32v-32z"/><path d="m720-624h-96v-32h96z"/><path d="m624-624h96v27.4286h-96z"/><path d="m624-624-16-32h16z"/><path d="m608-240v64 32z"/><path d="m608-144h192z"/><path d="m800-112h-192v-32h192z"/><path d="m256-16h-32z"/><path d="m288 112h-32v-128h32z"/><path d="m256 112v-128z"/><path d="m0-16h32z"/><path d="m0-16v128z"/><path d="m0 112h-32v-128h32z"/><path d="m224 112v32h-32-128-32v-32z"/><path d="m-176-1044v4h32v-4z"/><path d="m720-576h-96v-48h96z"/><path d="m736-640h-128v16h128z"/><path d="m928-880v64z"/><path d="m800-816v-63.999-.001z"/><path d="m832-912h.001 63.999z"/><path d="m896-784h-64z"/><path d="m832-784-32-32v-64l32-32h64l32 32v64l-32 32z"/><path d="m896-912 32 32z"/><path d="m928-816-32 32z"/><path d="m800-880v.001l32.001-32.001h-.001z"/><path d="m832-784-32-32z"/><path d="m256 112h32z"/><path d="m384-1168v32 32z"/><path d="m384-1072v-32h128v32z"/><path d="m544-976h32v128h-32z"/><path d="m544-848h32v32l-32 32h-32v-32z"/><path d="m512-784h-128v-32h128z"/><path d="m512-1104v-64 96z"/><path d="m768-976h-192z"/><path d="m384-1104h128z"/><path d="m576-848v-128 160z"/><path d="m512-784h32-160z"/><path d="m576-816-32 32z"/><path d="m-256-1072v-32-32z"/><path d="m-384-1168v32 32z"/><path d="m-384-1104h128z"/><path d="m-256-1072h-128v-32h128z"/><path d="m608-112v-128 96z"/><path d="m800-80h-192v-32h192z"/><path d="m608-112h192z"/><path d="m288 112v-128z"/><path d="m320-16h-32z"/><path d="m320 112h-32v-128h32z"/><path d="m-32-16h32z"/><path d="m-32-16v128z"/><path d="m-32 112h-32v-128h32z"/><path d="m-16-736v16h16v-16z"/><path d="m-16-800v16h16v-16z"/><path d="m256-800v16h16v-16z"/><path d="m256-736v16h16v-16z"/><path d="m256-976v16h16v-16z"/><path d="m256-912v16h16v-16z"/><path d="m-16-912v16h16v-16z"/><path d="m-16-976v16h16v-16z"/><path d="m-208-528v16h16v-16z"/><path d="m-256-528v16h16v-16z"/><path d="m-208-288v16h16v-16z"/><path d="m-256-288v16h16v-16z"/><path d="m-432-448v16h16v-16z"/><path d="m-432-368v16h16v-16z"/><path d="m-304-704v16h16v-16z"/><path d="m-304-752v16h16v-16z"/><path d="m80-1312v16h16v-16z"/><path d="m160-1312v16h16v-16z"/><path d="m800-432v16h16v-16z"/><path d="m800-384v16h16v-16z"/><path d="m544-496v16h16v-16z"/><path d="m544-320v16h16v-16z"/><path d="m800-336v32z"/><path d="m800-464v-32z"/><path d="m800-272v32z"/><path d="m816-336h-16z"/><path d="m800-464v128h16v-128z"/><path d="m816-336h-16v-128h16z"/><path d="m-576-784v128z"/><path d="m192-1312h32l-32 16z"/><path d="m192-1312v16h-128v-16z"/><path d="m32-1312h32v16z"/><path d="m800 112h-192z"/><path d="m256 112h32 32z"/><path d="m0 112h-32z"/><path d="m-64 112h32 32-96z"/><path d="m-32 112h-32z"/><path d="m320-1296h32z"/><path d="m224-1296h32-20-4-4-4-28z"/><path d="m32-1296h-32-64 48z"/><path d="m0-1296h-32-32z"/><path d="m224-1296v-16h-32-128-32v16z"/><path d="m224-1312v16h-28-4z"/><path d="m-576-656h128z"/><path d="m-448-816v32z"/><path d="m-448-688v-96 128z"/><path d="m384-1168v64 32z"/><path d="m512-1072v-96 128z"/><path d="m384-1072h128z"/><path d="m384-1040v-32h128v32z"/><path d="m512-816h-128z"/><path d="m512-848v-128h32v128l-32 32z"/><path d="m544-976v128z"/><path d="m544-848-32 32z"/><path d="m512-816h-128v-32h128z"/><path d="m256-1008h-32z"/><path d="m0-1072v-64h-16v128h16z"/><path d="m0-1072 32-32v-32h-32z"/><path d="m64-1104h160v-32h-192v32z"/><path d="m224-1104 32 32v-64h-32z"/><path d="m272-1136h-16v64 64h16z"/><path d="m224-1168h-192-32v32h32 192z"/><path d="m256-1136v-32h-32v32z"/><path d="m224-1168v-128h-192v128z"/><path d="m-32-1168h32 32-48-48z"/><path d="m64-1104h-32z"/><path d="m256-1136h16-48z"/><path d="m272-1136v128h-48v-64-64z"/><path d="m0-1136h32-48z"/><path d="m-32-1168h24z"/><path d="m0-1136v-32h24 4 4v32z"/><path d="m224-816h-32-128-64 64 128z"/><path d="m256-1008h-32-32v32h32 32 16v-32z"/><path d="m192-976v-32h-128v32z"/><path d="m224-976h-32-128-64v128h64 128 32z"/><path d="m256-848v-128h-32v128z"/><path d="m272-880v-96h-16v128h16z"/><path d="m192-816v-32h-128v32z"/><path d="m256-848h-32-32v32h32 32 16v-32z"/><path d="m0-976h64v-32h-64-16v32z"/><path d="m0-976h-16v96 32h16z"/><path d="m0-816h64v-32h-64-16v32z"/><path d="m272-848v32h-48v-32-32h48z"/><path d="m-16-848v-32h48v32 32h-48z"/><path d="m-16-976v-32h48v128h-48z"/><path d="m256-816v128h16v-128z"/><path d="m0-816h-16v128h16z"/><path d="m256-688h-32 48z"/><path d="m0-688h-16 48z"/><path d="m-16-816h48v128h-48z"/><path d="m272-816v128h-48v-128z"/><path d="m256-688v32h-24-8v-32z"/><path d="m-256-1040v-32-64z"/><path d="m-384-1168v64 32z"/><path d="m-384-1072h128z"/><path d="m-256-1040h-128v-32h128z"/><path d="m-320-816h-16v32h16z"/><path d="m-288-688v-96h-32-16v96z"/><path d="m-336-784v-32h-112v32 96h112z"/><path d="m-320-656h32v-32h-48-112v32z"/><path d="m-288-784h32-16-48z"/><path d="m-320-784h48v-32h-48z"/><path d="m-448-784h-128z"/><path d="m-448-784h-128z"/><path d="m32-240v160 64-32-128z"/><path d="m32-272v-24 24 8 24z"/><path d="m32-240v-24 56 128z"/><path d="m800-496h-64z"/><path d="m624-528v-96 27.4286z"/><path d="m720-528v-96h-96v96z"/><path d="m736-496-16-32h-96v32z"/><path d="m720-528 16 32z"/><path d="m624-528-16 32h16z"/><path d="m768-336h-128v32h128z"/><path d="m576-336v32h32v-32z"/><path d="m544-496v128l32-64 32-64z"/><path d="m576-336v-96l-32 64v64h32z"/><path d="m800-464v-32h-64-112-16l-32 64v96h32 32 128 32z"/><path d="m768-336v32l32 32v-32-32z"/><path d="m608-304v32l32-32v-32h-32z"/><path d="m608-80h192z"/><path d="m608-80v-32z"/><path d="m800 48v32 32h-192v-192h192z"/><path d="m224-272v32z"/><path d="m480-272h32-32-32z"/><path d="m512-528v32z"/><path d="m512-528v32z"/><path d="m512-304v-192z"/><path d="m512-272h-32v-32h32z"/><path d="m384-528h-24l-128-128h24z"/><path d="m384-528v24l-24-24z"/><path d="m480-528h32v32h-32z"/><path d="m416-528h64v32h-64z"/><path d="m352-16h-32-32z"/><path d="m320 112v-128z"/><path d="m352 112h-32v-128h32z"/><path d="m256-16h32z"/><path d="m-32-16h-32z"/><path d="m-128-496v32 128 64-64-128z"/><path d="m-32-624v24 8l-96 96v-32z"/><path d="m0-656h24l-8 8-48 48v-24z"/><path d="m0-272v-24h16 16v24z"/><path d="m-320-624v64 32-32z"/><path d="m-320-528v32-32-32z"/><path d="m-320-528v32z"/><path d="m-128-496v-32h-32v64h32z"/><path d="m-160-336v-128-64h-128v64 128 32h128z"/><path d="m-288-304v32h128v-32z"/><path d="m-288-528h-32v32 32h32z"/><path d="m-128-336h-32v32 32h32z"/><path d="m-160-464v128h32v-128z"/><path d="m-320-464v128h32v-128z"/><path d="m-320-336v64h32v-32-32z"/><path d="m-160-272v-32h32v32z"/><path d="m-288-528v32h-32v-32z"/><path d="m-160-528v32h-128v-32z"/><path d="m-128-528v32h-32v-32z"/><path d="m-320-624v-32h-128v96h64 64z"/><path d="m-432-496h16l32-32v-32h-64v64z"/><path d="m-320-560h-64v32h64z"/><path d="m-448-560v-96 32 64 64z"/><path d="m-432-304h-16z"/><path d="m-432-464v128 32h16v-192h-16z"/><path d="m-432-464h-16v128h16z"/><path d="m-432-336h-16v32h16z"/><path d="m-432-496h-16v32h16z"/><path d="m-384-208h64v-32-32h-64z"/><path d="m-432-304h-16v96h64v-64l-32-32z"/><path d="m-384-208h-64v32h128v-32z"/><path d="m-448-208v-96 64 64z"/><path d="m-320-48h-128z"/><path d="m-320-176v128z"/><path d="m-448-176v128z"/><path d="m-64-16v128z"/><path d="m-64 112h-32v-128h32z"/><path d="m0-736v16z"/><path d="m-16-720v-16z"/><path d="m0-720h-16z"/><path d="m-16-736h16z"/><path d="m-16-720v-16h16v16z"/><path d="m0-800v16z"/><path d="m-16-784v-16z"/><path d="m0-784h-16z"/><path d="m-16-800h16z"/><path d="m-16-784v-16h16v16z"/><path d="m256-784v-16z"/><path d="m256-800h16z"/><path d="m272-800v16z"/><path d="m272-784h-16z"/><path d="m256-784v-16h16v16z"/><path d="m256-720v-16z"/><path d="m256-736h16z"/><path d="m272-736v16z"/><path d="m272-720h-16z"/><path d="m256-720v-16h16v16z"/><path d="m256-960v-16z"/><path d="m272-960h-16z"/><path d="m256-976h16z"/><path d="m272-976v16z"/><path d="m256-960v-16h16v16z"/><path d="m256-896v-16z"/><path d="m272-896h-16z"/><path d="m272-912v16z"/><path d="m256-912h16z"/><path d="m256-896v-16h16v16z"/><path d="m0-912v16z"/><path d="m-16-896v-16z"/><path d="m-16-912h16z"/><path d="m0-896h-16z"/><path d="m-16-896v-16h16v16z"/><path d="m0-976v16z"/><path d="m-16-960v-16z"/><path d="m-16-976h16z"/><path d="m0-960h-16z"/><path d="m-16-960v-16h16v16z"/><path d="m-208-528h16z"/><path d="m-192-512h-16z"/><path d="m-192-528v16z"/><path d="m-208-512v-16z"/><path d="m-208-512v-16h16v16z"/><path d="m-256-528h16z"/><path d="m-240-512h-16z"/><path d="m-240-528v16z"/><path d="m-256-512v-16z"/><path d="m-256-512v-16h16v16z"/><path d="m-192-272h-16z"/><path d="m-208-272v-16z"/><path d="m-208-288h16z"/><path d="m-192-288v16z"/><path d="m-208-272v-16h16v16z"/><path d="m-240-272h-16z"/><path d="m-256-272v-16z"/><path d="m-240-288v16z"/><path d="m-256-288h16z"/><path d="m-256-272v-16h16v16z"/><path d="m-416-448v16z"/><path d="m-432-432v-16z"/><path d="m-416-432h-16z"/><path d="m-432-448h16z"/><path d="m-432-432v-16h16v16z"/><path d="m-416-368v16z"/><path d="m-432-352v-16z"/><path d="m-416-352h-16z"/><path d="m-432-368h16z"/><path d="m-432-352v-16h16v16z"/><path d="m-304-704h16z"/><path d="m-288-704v16z"/><path d="m-288-688h-16z"/><path d="m-304-688v-16z"/><path d="m-304-688v-16h16v16z"/><path d="m-288-736h-16z"/><path d="m-288-752v16z"/><path d="m-304-752h16z"/><path d="m-304-736v-16z"/><path d="m-304-736v-16h16v16z"/><path d="m-176-1040v-4h32v4z"/><path d="m-144-1044v4z"/><path d="m-176-1040v-4z"/><path d="m-144-1040h-32z"/><path d="m-176-1044h32z"/><path d="m928-864h-4v32h4z"/><path d="m80-1296v-16z"/><path d="m80-1312h16z"/><path d="m96-1312v16z"/><path d="m96-1296h-16z"/><path d="m80-1296v-16h16v16z"/><path d="m176-1312v16z"/><path d="m160-1312h16z"/><path d="m160-1296v-16z"/><path d="m176-1296h-16z"/><path d="m160-1296v-16h16v16z"/><path d="m800-432h16z"/><path d="m816-416h-16z"/><path d="m800-416v-16z"/><path d="m816-432v16z"/><path d="m800-416v-16h16v16z"/><path d="m816-368h-16z"/><path d="m816-384v16z"/><path d="m800-368v-16z"/><path d="m800-384h16z"/><path d="m800-368v-16h16v16z"/><path d="m544-496h16z"/><path d="m544-480v-16z"/><path d="m560-480h-16z"/><path d="m560-496v16z"/><path d="m544-480v-16h16v16z"/><path d="m560-304h-16z"/><path d="m544-304v-16z"/><path d="m544-320h16z"/><path d="m560-320v16z"/><path d="m544-304v-16h16v16z"/><path d="m800 112v-32z"/><path d="m608 112h192-32-192z"/><path d="m256 112h64 32z"/><path d="m-96 112h96-128z"/><path d="m384-1168v96 32z"/><path d="m512-976h32z"/><path d="m384-1008v-32h128v32 32h-128z"/><path d="m512-976v-32z"/><path d="m384-1040h128z"/><path d="m512-976v128z"/><path d="m512-848h-128z"/><path d="m512-976v128h-128v-128z"/><path d="m-384-1040h128z"/><path d="m-384-1040v32z"/><path d="m-256-1008h-128v-32h128z"/><path d="m608-80v192z"/><path d="m576-80h32v192h-32z"/><path d="m352-16h-64 96z"/><path d="m352 112v-128z"/><path d="m384 112h-32v-128h32z"/><path d="m0-16h-32-32-32z"/><path d="m0-16h32z"/><path d="m-96-16v128z"/><path d="m-96 112h-32v-128h32z"/><path d="m544 144h-128z"/><path d="m416 272v-128h128v128z"/><path d="m416 240 32 32h64l32-32z"/><path d="m416 176v64h32v-64z"/><path d="m512 240h32v-64h-32z"/><path d="m448 144-32 32h128l-32-32z"/><path d="m448 176h64z"/><path d="m448 240v-64z"/><path d="m512 176v64z"/><path d="m512 240h-64z"/><path d="m800 48v-128z"/><path d="m800-112v32z"/><path d="m800 80v-32z"/><path d="m800-240v128-32z"/><path d="m-576-784v128z"/><path d="m800 112h-32z"/><path d="m256 112h96 32z"/><path d="m-128 112h128-128-32z"/><path d="m-160 112h32-32-32z"/><path d="m-352 112h32-32-32z"/><path d="m-352 112h-32-64z"/><path d="m272-1296h48-64-32z"/><path d="m-16-1296h-48z"/><path d="m576-656h-64z"/><path d="m576-656h-64z"/><path d="m-448-656h-128z"/><path d="m768-944v-32z"/><path d="m768-944v-32z"/><path d="m384-976v128z"/><path d="m384-976v-32z"/><path d="m384-656v-160 32z"/><path d="m384-816v-32z"/><path d="m768-976h-192-32z"/><path d="m224-1008h-32-128-64 64 128z"/><path d="m64-1104v-64-16z"/><path d="m192-1104h32-160z"/><path d="m320-1168h-48-48 32 32z"/><path d="m320-1168h-48z"/><path d="m272-1168h48v-128h-48-48v128z"/><path d="m256-1072v64z"/><path d="m224-1104 32 32z"/><path d="m224-1104h32v32z"/><path d="m-16-1168h-48z"/><path d="m-16-1168h48v-128h-48-48v128z"/><path d="m0-1072v64z"/><path d="m32-1104-32 32v-32z"/><path d="m32-1104-32 32z"/><path d="m0-1072h-64l32-32h32z"/><path d="m0-1072v64h-64v-16-48z"/><path d="m64-816h-64v-32h64z"/><path d="m160-848h-64v-32h64z"/><path d="m-224-976h64v128 96h-64z"/><path d="m-160-752v96h-64v-96z"/><path d="m-160-976h32v128h-32z"/><path d="m64-1008v32h-64v-32z"/><path d="m-128-976h96 32 64 32v32 64 32h-32-64-32-96z"/><path d="m96-944v-32h64v32z"/><path d="m256-816h-32-32v-32h64z"/><path d="m96-848h64 32v32h-128v-32z"/><path d="m192-1008v32h-32-64-32v-32z"/><path d="m256-976h-64v-32h32 32z"/><path d="m160-880v-64-32h32 64 32 96v128h-96-32-64-32z"/><path d="m288-848h64-32-64z"/><path d="m384-848h-32-64z"/><path d="m256-816v-32h64v192h-64z"/><path d="m-32-848h32-64-32z"/><path d="m-32-976h-96-32-64 64 64z"/><path d="m0-976h-32-64 32z"/><path d="m0-1008v32h-64v-32z"/><path d="m-160-752v-96 192z"/><path d="m256-816h-32z"/><path d="m0-816v128 32z"/><path d="m256-816v160-32z"/><path d="m-256-1136v96 64-32z"/><path d="m-256-1008v-32-96z"/><path d="m-256-976h32v224h-32z"/><path d="m-224-752v96h-32v-96z"/><path d="m-448-784h32v32 96h-32z"/><path d="m-288-976h32v224h-32z"/><path d="m-256-752v96h-32v-96z"/><path d="m-416-784v-32-160h32 96v224h-128z"/><path d="m-288-752v96h-128v-96z"/><path d="m-256-976h-32-96v-32h128z"/><path d="m-384-976v32-32-32z"/><path d="m-384-1168v96 32z"/><path d="m-384-1008h128z"/><path d="m32-272v32z"/><path d="m672-304h64 32-128z"/><path d="m608-272h32v-32z"/><path d="m800-272-32-32z"/><path d="m768-304v32h32z"/><path d="m640-304-32 32z"/><path d="m608-80h-32z"/><path d="m544 112v-96-96h32v192z"/><path d="m576-80v192z"/><path d="m224-240v32 32z"/><path d="m224-176v128z"/><path d="m224-240v64 128 32z"/><path d="m416-528v-32h64v32z"/><path d="m512-208h-96-64-64v-32h96 32 96z"/><path d="m544-240v32h-32v-32z"/><path d="m416-16v-96-32-64h96 32v96 32 96h-128z"/><path d="m544 16v96h-128v-96z"/><path d="m352-144h64v32h-64z"/><path d="m288-112v-96h64v64 32z"/><path d="m256-48v-128-64h32v32 96 96h-32z"/><path d="m384-16h-96v-96h64 64v96z"/><path d="m416 16v96h-32v-128h32z"/><path d="m416-560v32 64-32z"/><path d="m480-528v-32 64 32z"/><path d="m512-496v-32 64z"/><path d="m512-656-32 96z"/><path d="m512-528h-32v64h32z"/><path d="m448-272h32v-64h-64v64z"/><path d="m384-528v-16 48 32z"/><path d="m416-528h-32v64h32z"/><path d="m448-272h-32-32-128-32 32 128 32z"/><path d="m512-496v32 128 64-32z"/><path d="m384-528h32 64 32-32-64z"/><path d="m416-560-32-96z"/><path d="m480-560h-64l-32-96h128z"/><path d="m512-656-32 96z"/><path d="m256-656 128 128z"/><path d="m384 112v-128z"/><path d="m256-16h32-32-32z"/><path d="m-64-16h32 32-96-32z"/><path d="m-224-656h64v96 32 32h-32-64v-160z"/><path d="m-256-656v160 64h-32v-32-64-32-96z"/><path d="m-256-432v64 160h-32v-32-32-64-96z"/><path d="m-256-208v64 64h-32v-96-32z"/><path d="m-32-656-96 96v-96z"/><path d="m-32-656h32l-128 128v-32z"/><path d="m-160-496v-32h32v32 32h-32z"/><path d="m-320-496v-32h32v64h-32z"/><path d="m-192-496v64h-64v-64z"/><path d="m-192-432v-64h32v32 96h-32z"/><path d="m-160-368v-96h32v128h-32z"/><path d="m-256-208v-160h64 32v32 64 32 32 64h-96z"/><path d="m-160-144v64h-96v-64z"/><path d="m-160-272v-64h32v64z"/><path d="m-32-208v128h-32-96v-64-64z"/><path d="m0-240h-128v-32h128z"/><path d="m-128-240h128v32h-32-128v-32z"/><path d="m-32-80v-128h32v32 128 32h-32z"/><path d="m-320-272v-64h32v64z"/><path d="m-320-336v-128h32v32 96z"/><path d="m-320-176h32v96 64l-32-32z"/><path d="m-64-16h-64-32-96-32v-64h32 96 96z"/><path d="m-32-80v64h-32v-64z"/><path d="m-320-48 32 32h-160v-32z"/><path d="m-416-336h-64-16z"/><path d="m-288-560v-64-32z"/><path d="m-416-496v32h-64v-32z"/><path d="m-416-464v128h-80v-128z"/><path d="m0-176v-32-32z"/><path d="m0-176v128z"/><path d="m-288-208v32-64z"/><path d="m-320-176h-128z"/><path d="m-128-528v32z"/><path d="m32-272h-32-128 128z"/><path d="m-128-528 128-128-32 32z"/><path d="m-320-496v32 128 64-64-128z"/><path d="m-384-528h64z"/><path d="m-416-496 32-32z"/><path d="m-416-336v-128-32 192z"/><path d="m-384-272h64z"/><path d="m-416-304 32 32z"/><path d="m-448-176v128z"/><path d="m-256 112h-64-32-96-32v-128h32 160 32z"/><path d="m-160-16v128h-32-64v-128z"/><path d="m-128 112h-32v-128h32z"/><path d="m-128 112v-128z"/><path d="m32 144v-16-16z"/><path d="m224 144v-32 16z"/><path d="m416 112h128v32h-128z"/><path d="m416 144v128z"/><path d="m416 272h128z"/><path d="m544 272v-128z"/><path d="m-192 112h32v16z"/><path d="m512 272h-64z"/><path d="m416 240v-64z"/><path d="m544 176v64z"/><path d="m448 144h64z"/><path d="m448 272-32-32v-64l32-32h64l32 32v64l-32 32z"/><path d="m544 240-32 32z"/><path d="m416 176 32-32z"/><path d="m448 272-32-32z"/><path d="m512 144 32 32z"/><path d="m928-832h-4z"/><path d="m928-832h-4v-32h4z"/><path d="m924-864h4z"/><path d="m928-864v32z"/><path d="m924-832v-32z"/><path d="m96-880v-64z"/><path d="m160-944v64z"/><path d="m160-880h-64z"/><path d="m96-944h64z"/><path d="m160-880h-64v-64h64z"/><path d="m416-208v64z"/><path d="m352-208h64z"/><path d="m416-144h-64z"/><path d="m352-144v-64z"/><path d="m416-144h-64v-64h64z"/><path d="m-256-368v-64z"/><path d="m-192-432v64z"/><path d="m-192-368h-64z"/><path d="m-256-432h64z"/><path d="m-192-368h-64v-64h64z"/><path d="m-512 112h32z"/><path d="m-480-16h32z"/><path d="m-480-16v128z"/><path d="m-512 112v-128h32v128z"/><path d="m480-1296h32z"/><path d="m352-1296h32 96-96z"/><path d="m320-1296h-48z"/><path d="m-64-1296h-32z"/><path d="m-96-1296h-128z"/><path d="m-224-1296h-32z"/><path d="m-256-1296h-128z"/><path d="m512-1168v-128h-32-96v128z"/><path d="m512-1296v128z"/><path d="m-224-1168v128z"/><path d="m384-1296h-32-32v128h32 32z"/><path d="m352-1168h-32z"/><path d="m-64-1168v-128h-32v128z"/><path d="m-96-1168v-128h-128v128z"/><path d="m-96-1040h-128z"/><path d="m-256-1168h32z"/><path d="m-224-1296h-32v128h32z"/><path d="m-256-1296h-128v128h128z"/><path d="m-256-1168v32z"/><path d="m384-544v16l-128-128h64l32 32 32 32z"/><path d="m-480-16h-32z"/><path d="m-512-16v128z"/><path d="m-544 112v-128h32v128z"/><path d="m464 268v4h32v-4z"/><path d="m-288-1168h-16v1h16z"/><path d="m-336-1168h-16v1h16z"/><path d="m480-1168h-16v1h16z"/><path d="m432-1168h-16v1h16z"/><path d="m512-1168h-128z"/><path d="m-256-1168h-128z"/><path d="m-384-1168v128 32 32-64z"/><path d="m-480-16h-32-32z"/><path d="m-576 112v-128h32v128z"/><path d="m-544-16v128z"/><path d="m-576 112h-128v-128h128z"/><path d="m-336-1168v1z"/><path d="m-304-1167v-1z"/><path d="m-288-1168v1z"/><path d="m-288-1167h-16v-1h16z"/><path d="m-288-1167h-16z"/><path d="m-304-1168h16z"/><path d="m-336-1167h-16v-1h16z"/><path d="m-352-1167v-1z"/><path d="m-352-1168h16z"/><path d="m-336-1167h-16z"/><path d="m432-1168v1z"/><path d="m464-1167v-1z"/><path d="m480-1167h-16v-1h16z"/><path d="m480-1168v1z"/><path d="m480-1167h-16z"/><path d="m464-1168h16z"/><path d="m432-1167h-16v-1h16z"/><path d="m416-1167v-1z"/><path d="m416-1168h16z"/><path d="m432-1167h-16z"/><path d="m928-784h-128z"/><path d="m800-912h128z"/><path d="m928-912v128z"/><path d="m928-784v-128z"/><path d="m-576 112v32z"/><path d="m768-656h-32z"/><path d="m608-656h-32z"/><path d="m768-784v96 32-96z"/><path d="m768-912v128h32v-128z"/><path d="m800-784h-32z"/><path d="m768-784v-128h-64l-128 128v96h192z"/><path d="m576-688v32h32 128 32v-32z"/><path d="m256-1104h-32v-64l64 64z"/><path d="m256-1104h32l32 32h-64z"/><path d="m720-624 16-32h-128l16 32z"/><path d="m720-624v96-68.5714z"/><path d="m736-656-16 32z"/><path d="m624-624-16-32z"/><path d="m-704 112h128z"/><path d="m-704 112v-128z"/><path d="m-576 144h-128v-32h128z"/><path d="m496 268v4z"/><path d="m464 272v-4h32v4z"/><path d="m464 272v-4z"/><path d="m496 272h-32z"/><path d="m464 268h32z"/><path d="m608-624v-16z"/><path d="m736-624h-128v-16h128z"/><path d="m736-640v16z"/><path d="m608-640h128z"/><path d="m736-624h-128z"/><path d="m575-752v16h1v-16z"/><path d="m575-704v16h1v-16z"/><path d="m-256-1136v-32h-128v128h128z"/><path d="m-576 144v-32 64z"/><path d="m576-656v-32-96z"/><path d="m576-784h-32-32-32-32z"/><path d="m-576 176h-128v-32h128z"/><path d="m-704 112v32z"/><path d="m-704 144h128z"/><path d="m576-736h-1z"/><path d="m575-736v-16h1v16z"/><path d="m575-752h1z"/><path d="m576-752v16z"/><path d="m575-736v-16z"/><path d="m575-704h1z"/><path d="m576-688h-1z"/><path d="m575-688v-16h1v16z"/><path d="m575-688v-16z"/><path d="m576-704v16z"/><path d="m-576 208h-128v-32h128z"/><path d="m-576 336h-128v-128h128z"/><path d="m-704 112v32 32z"/><path d="m-704 176h128z"/><path d="m512-656h64v-128h-128v128z"/><path d="m-576 336h-128z"/><path d="m-576 336v-128z"/><path d="m-576 336v-128h32v128z"/><path d="m96-1184v16h16v-16z"/><path d="m144-1184v16h16v-16z"/><path d="m-480-384h-16v16h16z"/><path d="m-480-432h-16v16h16z"/><path d="m496-368v16h16v-16z"/><path d="m496-448v16h16v-16z"/><path d="m32-96v16h16v-16z"/><path d="m32-144v16h16v-16z"/><path d="m208-144v16h16v-16z"/><path d="m208-96v16h16v-16z"/><path d="m-16-96v16h16v-16z"/><path d="m-16-144v16h16v-16z"/><path d="m48 112v16h16v-16z"/><path d="m192 112v16h16v-16z"/><path d="m96 112v16h16v-16z"/><path d="m144 112v16h16v-16z"/><path d="m256-144v16h16v-16z"/><path d="m256-96v16h16v-16z"/><path d="m640-144v16h16v-16z"/><path d="m640-224v16h16v-16z"/><path d="m752-224v16h16v-16z"/><path d="m752-144v16h16v-16z"/><path d="m672-272v16h16v-16z"/><path d="m720-272v16h16v-16z"/><path d="m752 16v16h16v-16z"/><path d="m752-64v16h16v-16z"/><path d="m528-160v16h16v-16z"/><path d="m528-208v16h16v-16z"/><path d="m448-272v16h16v-16z"/><path d="m496-272v16h16v-16z"/><path d="m336-272v16h16v-16z"/><path d="m288-272v16h16v-16z"/><path d="m-224 112v16h16v-16z"/><path d="m-304 112v16h16v-16z"/><path d="m-448-176v16h16v-16z"/><path d="m-336-176v16h16v-16z"/><path d="m-448-64v16h16v-16z"/><path d="m-152-176v16h16v-16z"/><path d="m800-912v128z"/><path d="m800-784h128z"/><path d="m928-912h-128z"/><path d="m-544 336h32z"/><path d="m-544 336h-32z"/><path d="m-576-784v128z"/><path d="m768 112h-64-160 32z"/><path d="m224 112h32z"/><path d="m256 112h128 32z"/><path d="m0 112h32z"/><path d="m-480 112h-64 32z"/><path d="m-448 112h-32z"/><path d="m480-656h32-64z"/><path d="m-64-656h64-32-64z"/><path d="m-96-656h64-96z"/><path d="m-288-656h-128z"/><path d="m-448-656h32z"/><path d="m-576-656h128z"/><path d="m768-784v-128h32v128z"/><path d="m384-1008v-32-128 128z"/><path d="m384-752v-64 160z"/><path d="m512-1008v-32h-128v32z"/><path d="m480-976h-64v192h32 32z"/><path d="m416-976h64 32v-32h-128v32z"/><path d="m416-784v-192h-32v128 32 64h32z"/><path d="m384-752v96h32v-96z"/><path d="m704-784h-128l128-128h64v128z"/><path d="m704-784h64v32 32h-64z"/><path d="m576-784h128v64 64h-128z"/><path d="m416-752v96h32v-128h-32z"/><path d="m512-784h32z"/><path d="m480-784h32z"/><path d="m704-976h-160-32-32 32 128 32z"/><path d="m512-1040v-128h-128v128z"/><path d="m704-976h64-224z"/><path d="m512-1040v32-32-128z"/><path d="m704-912h64z"/><path d="m576-784 128-128z"/><path d="m-224-976v32z"/><path d="m-224-752v-128-64z"/><path d="m-64-1072v48z"/><path d="m-64-1024v16z"/><path d="m320-1072v64z"/><path d="m192-1168v-16h-128v16z"/><path d="m288-1104-64-64 96 96z"/><path d="m192-1184v16 64z"/><path d="m192-1168h32v64h-32z"/><path d="m192-1184v80h-128v-80z"/><path d="m320-1072v64h-64v-64z"/><path d="m64-1168v64h-32v-64z"/><path d="m32-1168v64h-32-32z"/><path d="m384-976h-32v128h32z"/><path d="m352-976h-32v96 32h32z"/><path d="m320-976h32-64-32z"/><path d="m352-976h32-96z"/><path d="m320-976h-64v-32h64z"/><path d="m-64-880v-96h-32v128h32z"/><path d="m-96-976h-64v96 32h64z"/><path d="m-224-880v128 96h64v-192-32z"/><path d="m-160-976h-64v32 64h64z"/><path d="m-64-880v32 192-32-128-32z"/><path d="m-160-848h32 96-64z"/><path d="m-64-848h64v32 160h-64z"/><path d="m-416-752v-32h-32v128h32z"/><path d="m-288-656h64v-96h-192v96z"/><path d="m-256-944v-32-64h-128v64 32z"/><path d="m-224-752h-192z"/><path d="m-256-976v32-32-32z"/><path d="m-224-944v-32h-32v32z"/><path d="m-416-784h-32z"/><path d="m-416-816v32z"/><path d="m-416-944v-32 160z"/><path d="m-384-944v-32h-32v32z"/><path d="m-448-784h-128v128h128z"/><path d="m-448-784h-128z"/><path d="m32-176v-64z"/><path d="m32-208v-64 32 64z"/><path d="m32-176v128z"/><path d="m32-48v32z"/><path d="m768 112h32v-32h-32z"/><path d="m768-48v32 64h32v-128h-32z"/><path d="m768-80h32v-32h-32z"/><path d="m768 80h32v-32h-32z"/><path d="m768-240h32v-32h-32z"/><path d="m768-112h32v-128h-32z"/><path d="m480-560 32-96h-32z"/><path d="m448-656h-32-32l32 96h64v-96z"/><path d="m480-496v-32h-64v32 32h64z"/><path d="m416-560v32h64v-32z"/><path d="m352-528h32v-64l-32-32z"/><path d="m352-528v-96l-32-32v192h32z"/><path d="m384-496v-32h-32v64h32z"/><path d="m768-80v-32-128-32h-32-64-32v32 128 32 32h128z"/><path d="m640-48v32h64 64v-32z"/><path d="m480-464h-64-32-32l-96 128h128 32 64z"/><path d="m512-336v-128h-32v128z"/><path d="m480-304h-64-32-128v64 32h16 208z"/><path d="m496-208h32 16v-32-64h-64v96z"/><path d="m544-80v-32-96h-16v176h16z"/><path d="m256-336 96-128h-32l-96 128z"/><path d="m272-32v-176h-16v32 128 32h16z"/><path d="m224-48v-128h-192v128z"/><path d="m224-176v-32h-192v32z"/><path d="m480-16h-208-16v128h160 64z"/><path d="m704-16h-64-96-48-16v128h64 160z"/><path d="m768 112v-32-32-64h-64v128z"/><path d="m640-16v-32-32h-32-32-32v48 16z"/><path d="m496-32h-224v16h208 16z"/><path d="m544-16v-16h-16-32v16z"/><path d="m224 112h32v-128h-32-160v128z"/><path d="m64-16h160v-32h-192v32z"/><path d="m64-16h-32v128h32z"/><path d="m224-208h-32-128-32z"/><path d="m496-208h-16-208 16 32 96 64z"/><path d="m320-656v96 32 64z"/><path d="m224-240v-64-32 128z"/><path d="m320-464-96 128z"/><path d="m528-208v176z"/><path d="m528-32h-32z"/><path d="m544-240v-64z"/><path d="m544-208v96-96-32z"/><path d="m544-80v-32z"/><path d="m736-272v-32h-64v32z"/><path d="m672-272v-32h-32v32z"/><path d="m768-272v-32h-32v32z"/><path d="m608-80h32-32-32z"/><path d="m576-80h-32z"/><path d="m608-80h-32z"/><path d="m640-112h-32v32h32z"/><path d="m640-240h-32v128h32z"/><path d="m640-272h-32v32h32z"/><path d="m224-304v64-32-64z"/><path d="m224-240v-64z"/><path d="m224-16v-32z"/><path d="m256-16h-32z"/><path d="m416-528v-32 64z"/><path d="m480-304h64v64h-32-96v-64z"/><path d="m480-528v32-64z"/><path d="m512-336v64z"/><path d="m512-336v-128z"/><path d="m480-336v64h32v-64z"/><path d="m256-208v-32 64z"/><path d="m256-304v64z"/><path d="m256-176v128z"/><path d="m256-48v32z"/><path d="m384-592v64 32-48z"/><path d="m384-656 32 96z"/><path d="m416-304v64h-32v-64z"/><path d="m384-336v64h32v-64z"/><path d="m384-304v64h-96-32v-64z"/><path d="m256-336v64h128v-64z"/><path d="m224-336v64h32v-64z"/><path d="m-480-16h-64-32z"/><path d="m32-16h-32z"/><path d="m-128-624v-32 96z"/><path d="m-128-592v-32 64 32z"/><path d="m-96-656h-32v32z"/><path d="m-64-656h-32l-32 32v32z"/><path d="m-480-464h64-80z"/><path d="m-224-656v32h64v-32z"/><path d="m-160-592v-32h-64-64v32z"/><path d="m-224-624v-32h-64v32z"/><path d="m-160-592h-128-32-64 64 32z"/><path d="m-288-592v-32 64 32z"/><path d="m-160-624v32 64-32z"/><path d="m-160-656v32 64z"/><path d="m-128-592v64h-32v-64z"/><path d="m-384-592v64l-32 32h-64z"/><path d="m-320-592h32v64h-32z"/><path d="m-384-592h64v64h-64z"/><path d="m-480-464h-16v128h16z"/><path d="m0-16v-32z"/><path d="m0-176v-64-32 64z"/><path d="m0-208v-64h32v64z"/><path d="m-288-176h-32-128z"/><path d="m-288-208v-64 32 64z"/><path d="m-128-208v-64 32 64z"/><path d="m-128-208v32h128v-32z"/><path d="m-128-208h128z"/><path d="m-224-176h64v-32h-128v32z"/><path d="m-160-208h-128z"/><path d="m-160-208h32z"/><path d="m-160-176v-64-32 64z"/><path d="m-160-208v-64h32v64z"/><path d="m-128-176v-64h-32v64z"/><path d="m-320-208h32z"/><path d="m-480-304h64l32 32v64z"/><path d="m-480-336h64v32h-64z"/><path d="m-320-208v-64h32v64z"/><path d="m-384-208v-64h64v64z"/><path d="m-448-176v128z"/><path d="m-448-16v-32z"/><path d="m-224-48h-224v32h224z"/><path d="m0-16v-32h-224v32z"/><path d="m-224-176h-64-160v128h224z"/><path d="m0-176h-128-32-64v128h224z"/><path d="m-480-16v48 32 48h32v-128z"/><path d="m-224-16h-224v128h64 32 32 96z"/><path d="m0-16h-224v128h64 32 128z"/><path d="m32 112v-128h-32v128z"/><path d="m-480 64v-32h-96v32z"/><path d="m-480 32v-48h-96v48z"/><path d="m480 112h-64v32h128v-32z"/><path d="m544 144v-32z"/><path d="m416 112v32z"/><path d="m416 144v128z"/><path d="m416 272h128z"/><path d="m544 272v-128z"/><path d="m64 112v16h128 32v-16z"/><path d="m32 112v16h32v-16z"/><path d="m192 128v16h32v-16z"/><path d="m64 128v16h128v-16z"/><path d="m32 128v16h32v-16z"/><path d="m-320 128h128 32v-16h-64-96z"/><path d="m-320 112h-32v16h32z"/><path d="m-352 112h32l-32 16z"/><path d="m-352 128 32-16v16z"/><path d="m-320 128v-16h64 64v16z"/><path d="m-192 128v-16l32 16z"/><path d="m-544 336v-128h32v128z"/><path d="m-544 336v-128z"/><path d="m96-1168v-16z"/><path d="m112-1184v16z"/><path d="m112-1168h-16z"/><path d="m96-1184h16z"/><path d="m96-1168v-16h16v16z"/><path d="m160-1184v16z"/><path d="m144-1168v-16z"/><path d="m160-1168h-16z"/><path d="m144-1184h16z"/><path d="m144-1168v-16h16v16z"/><path d="m-480-368h-16z"/><path d="m-496-368v-16z"/><path d="m-496-384h16z"/><path d="m-480-384v16z"/><path d="m-480-368h-16v-16h16z"/><path d="m-496-432h16z"/><path d="m-480-416h-16z"/><path d="m-480-432v16z"/><path d="m-496-416v-16z"/><path d="m-480-416h-16v-16h16z"/><path d="m512-352h-16z"/><path d="m496-352v-16z"/><path d="m496-368h16z"/><path d="m512-368v16z"/><path d="m496-352v-16h16v16z"/><path d="m512-432h-16z"/><path d="m496-432v-16z"/><path d="m496-448h16z"/><path d="m512-448v16z"/><path d="m496-432v-16h16v16z"/><path d="m32-80v-16z"/><path d="m32-96h16z"/><path d="m48-96v16z"/><path d="m48-80h-16z"/><path d="m32-80v-16h16v16z"/><path d="m32-128v-16z"/><path d="m48-144v16z"/><path d="m32-144h16z"/><path d="m48-128h-16z"/><path d="m32-128v-16h16v16z"/><path d="m224-144v16z"/><path d="m208-128v-16z"/><path d="m208-144h16z"/><path d="m224-128h-16z"/><path d="m208-128v-16h16v16z"/><path d="m224-96v16z"/><path d="m208-96h16z"/><path d="m208-80v-16z"/><path d="m224-80h-16z"/><path d="m208-80v-16h16v16z"/><path d="m0-96v16z"/><path d="m-16-96h16z"/><path d="m0-80h-16z"/><path d="m-16-80v-16z"/><path d="m-16-80v-16h16v16z"/><path d="m0-144v16z"/><path d="m-16-128v-16z"/><path d="m-16-144h16z"/><path d="m0-128h-16z"/><path d="m-16-128v-16h16v16z"/><path d="m48 112h16z"/><path d="m48 128v-16z"/><path d="m64 128h-16z"/><path d="m64 112v16z"/><path d="m48 128v-16h16v16z"/><path d="m192 112h16z"/><path d="m208 112v16z"/><path d="m208 128h-16z"/><path d="m192 128v-16z"/><path d="m192 128v-16h16v16z"/><path d="m96 112h16z"/><path d="m112 112v16z"/><path d="m112 128h-16z"/><path d="m96 128v-16z"/><path d="m96 128v-16h16v16z"/><path d="m144 112h16z"/><path d="m144 128v-16z"/><path d="m160 128h-16z"/><path d="m160 112v16z"/><path d="m144 128v-16h16v16z"/><path d="m256-128v-16z"/><path d="m272-128h-16z"/><path d="m272-144v16z"/><path d="m256-144h16z"/><path d="m256-128v-16h16v16z"/><path d="m256-80v-16z"/><path d="m256-96h16z"/><path d="m272-96v16z"/><path d="m272-80h-16z"/><path d="m256-80v-16h16v16z"/><path d="m640-144h16z"/><path d="m656-144v16z"/><path d="m656-128h-16z"/><path d="m640-128v-16z"/><path d="m640-128v-16h16v16z"/><path d="m640-224h16z"/><path d="m656-224v16z"/><path d="m656-208h-16z"/><path d="m640-208v-16z"/><path d="m640-208v-16h16v16z"/><path d="m752-224h16z"/><path d="m752-208v-16z"/><path d="m768-208h-16z"/><path d="m768-224v16z"/><path d="m752-208v-16h16v16z"/><path d="m768-144v16z"/><path d="m752-128v-16z"/><path d="m752-144h16z"/><path d="m768-128h-16z"/><path d="m752-128v-16h16v16z"/><path d="m672-272h16z"/><path d="m672-256v-16z"/><path d="m688-256h-16z"/><path d="m688-272v16z"/><path d="m672-256v-16h16v16z"/><path d="m720-272h16z"/><path d="m736-272v16z"/><path d="m736-256h-16z"/><path d="m720-256v-16z"/><path d="m720-256v-16h16v16z"/><path d="m768 32h-16z"/><path d="m752 16h16z"/><path d="m768 16v16z"/><path d="m752 32v-16z"/><path d="m752 32v-16h16v16z"/><path d="m768-64v16z"/><path d="m752-64h16z"/><path d="m768-48h-16z"/><path d="m752-48v-16z"/><path d="m752-48v-16h16v16z"/><path d="m544-144h-16z"/><path d="m528-160h16z"/><path d="m528-144v-16z"/><path d="m544-160v16z"/><path d="m528-144v-16h16v16z"/><path d="m528-208h16z"/><path d="m544-208v16z"/><path d="m544-192h-16z"/><path d="m528-192v-16z"/><path d="m528-192v-16h16v16z"/><path d="m448-272h16z"/><path d="m448-256v-16z"/><path d="m464-256h-16z"/><path d="m464-272v16z"/><path d="m448-256v-16h16v16z"/><path d="m496-272h16z"/><path d="m496-256v-16z"/><path d="m512-256h-16z"/><path d="m512-272v16z"/><path d="m496-256v-16h16v16z"/><path d="m336-272h16z"/><path d="m336-256v-16z"/><path d="m352-256h-16z"/><path d="m352-272v16z"/><path d="m336-256v-16h16v16z"/><path d="m288-272h16z"/><path d="m304-272v16z"/><path d="m304-256h-16z"/><path d="m288-256v-16z"/><path d="m288-256v-16h16v16z"/><path d="m-224 128v-16z"/><path d="m-208 112v16z"/><path d="m-224 112h16z"/><path d="m-208 128h-16z"/><path d="m-224 128v-16h16v16z"/><path d="m-304 112h16z"/><path d="m-288 112v16z"/><path d="m-288 128h-16z"/><path d="m-304 128v-16z"/><path d="m-304 128v-16h16v16z"/><path d="m-448-160v-16z"/><path d="m-432-160h-16z"/><path d="m-432-176v16z"/><path d="m-448-176h16z"/><path d="m-448-160v-16h16v16z"/><path d="m-336-160v-16z"/><path d="m-320-160h-16z"/><path d="m-320-176v16z"/><path d="m-336-176h16z"/><path d="m-336-160v-16h16v16z"/><path d="m-448-48v-16z"/><path d="m-448-64h16z"/><path d="m-432-64v16z"/><path d="m-432-48h-16z"/><path d="m-448-48v-16h16v16z"/><path d="m-152-176h16z"/><path d="m-136-176v16z"/><path d="m-136-160h-16z"/><path d="m-152-160v-16z"/><path d="m-152-160v-16h16v16z"/><path d="m768-656h-64z"/><path d="m704-656h-128z"/><path d="m704-656v-64z"/><path d="m704-720h64z"/><path d="m768-656h-64v-64h64z"/><path d="m-544 336h32 32z"/><path d="m576-656h128 64-32-192z"/><path d="m544-784h32z"/><path d="m576-784v128z"/><path d="m576-656h-32v-128h32z"/><path d="m-512 208h-32z"/><path d="m-512 336v-128z"/><path d="m-512 336v-128h32v128z"/><path d="m-352 336h-128v-128h128z"/><path d="m-544 112h-32z"/><path d="m768-656h-32z"/><path d="m768-912v-32z"/><path d="m544-784v128z"/><path d="m544-656h-32v-128h32z"/><path d="m-224-1168v128z"/><path d="m-96-1168v96 32z"/><path d="m-96-1168v128z"/><path d="m-96-1168h-128z"/><path d="m-96-1040h-128z"/><path d="m224-48v-128 128 32z"/><path d="m160-48h64v32h-64z"/><path d="m160-144v-32h64v128h-64z"/><path d="m-544 112h64v-48h-96v48z"/><path d="m-352 208v128z"/><path d="m-352 208h-128z"/><path d="m-544 208h-32z"/><path d="m-480 176v32z"/><path d="m-352 208h-128v-32h128z"/><path d="m736-656h32-32-32z"/><path d="m736-656h-32-192 32z"/><path d="m512-784v128z"/><path d="m512-656h-32v-128h32z"/><path d="m-352 208v-32z"/><path d="m-480 208h-32-32z"/><path d="m-352 176h-128v-32h128z"/><path d="m-352 176h-128z"/><path d="m-704-16h48 80z"/><path d="m-656 32v80h32v-48z"/><path d="m-624 64v48h48v-48z"/><path d="m-656-16v48h80v-48z"/><path d="m-704 112h48v-80-48h-48z"/><path d="m-576 32h-80l32 32h48z"/><path d="m800-912h128z"/><path d="m288 112h-16-32-16z"/><path d="m352 112h64z"/><path d="m-352-80v128 32 32h-128v-32-160z"/><path d="m-160 48v64h-64-32-32v-64z"/><path d="m-288 48h-32-32v-128h32 32 128v128z"/><path d="m-64-80h32v64 128h-64-64v-64-128z"/><path d="m-32-80h64v32 32h-64z"/><path d="m-480-336h-16v-128h16z"/><path d="m-160-208v32h-128v-32z"/><path d="m-64-80h-96-128v-64h224z"/><path d="m32-144v64h-64-32v-64z"/><path d="m-64-144h-224v-32h128 96z"/><path d="m0-176h32v32h-96v-32z"/><path d="m32-176v-32h32v32z"/><path d="m160-16h32 16v-32h-48z"/><path d="m208-48v32h16v-32z"/><path d="m192 112h-192-32v-128h64 32 16 80 32z"/><path d="m208-16h16 16 32 16v64 64h-64-32v-128z"/><path d="m288 48v-64h64v64z"/><path d="m576 112h-32-128-64v-64-64h144 48 32z"/><path d="m608-16v128h-32v-128z"/><path d="m496-16h-144-64-16v-16h224z"/><path d="m528-32 16 16h-48v-16z"/><path d="m544-112h64v96h-32-32z"/><path d="m672 80v-128h32v128z"/><path d="m608-16v-96h64v32 32 128 32h-64z"/><path d="m64-144h96v96h-80-16z"/><path d="m160-144h-96v-32h96z"/><path d="m192-208h32v32h-32z"/><path d="m224-176h16v128h-16z"/><path d="m224-336h32v64 64h-32z"/><path d="m320-208h-32-16-16v-64h64z"/><path d="m352-464v128h-32-64z"/><path d="m320-464h32l-96 128h-32z"/><path d="m528-208h16v32 64 96l-16-16z"/><path d="m352-336h160v64 64h-16-16-64-96v-64-64z"/><path d="m512-336v-64h32v128h-32z"/><path d="m672-112v-64-32h32v128h-32z"/><path d="m672-400v32 128 32 32h-128v-32-64-128z"/><path d="m672-176v64h-64-64v-64z"/><path d="m672-368h32v128h-32z"/><path d="m-224-752v48 80h-64-32-64-32v-128z"/><path d="m-176-704v64 16h-48v-80z"/><path d="m-224-624h48 16v32h-128v-32z"/><path d="m-112-640-16 16h-32-16v-16z"/><path d="m-96-816h32v128h-32z"/><path d="m-224-752v-192h112v80 160h-64-48z"/><path d="m-320-944h-64v-32h64z"/><path d="m-416-1072h32v32 64 32h-32z"/><path d="m-384-1072h64v32h-64z"/><path d="m-320-976v-64-32h64v64 64h-64z"/><path d="m-256-1072h32v32l-32 32z"/><path d="m-96-864v16 32 128 32l-16 16v-64-160z"/><path d="m-112-944v-64h16v32 112h-16z"/><path d="m-112-1008v64h-112-32v-64z"/><path d="m-96-864v-112h32v96 32h-32z"/><path d="m-64-1072v64l-32-32v-32z"/><path d="m-64-1008h-32-16-144l32-32h128z"/><path d="m320-528h32v64h-32z"/><path d="m352-656v-32-128-32-16h32v208 16h-32z"/><path d="m384-640v112h-32v-32-80z"/><path d="m416-656h64v96 32h-96v-112-16z"/><path d="m352-464v-64h32 96 32v128 64h-160z"/><path d="m384-864h32v112 96h-32z"/><path d="m320-880v-96h32v48 64 16h-32z"/><path d="m192-1184v16h-128v-16z"/><path d="m416-976v48h-64v-48z"/><path d="m416-864v-64-48h64v192 32h-64z"/><path d="m480-752v96h-64v-96z"/><path d="m64-16v-16z"/><path d="m352-928v64z"/><path d="m416-928h-64z"/><path d="m512-528v32 96z"/><path d="m704-656h-128-32-64 32z"/><path d="m768-912v-32z"/><path d="m768-752v-32z"/><path d="m768-944v-32z"/><path d="m768-752v32z"/><path d="m768-720v64z"/><path d="m768-784h32z"/><path d="m800-912h-32z"/><path d="m480-976v192z"/><path d="m768-976h-64z"/><path d="m480-752v-32 128z"/><path d="m-224-1072v-96 128z"/><path d="m-64-1072v48 16z"/><path d="m64-1168h128 32-32-128-32z"/><path d="m32-1168-64 64-32 32z"/><path d="m-96-1168h-128z"/><path d="m320-880v32 32 128 32-192z"/><path d="m320-1008v32 96-96z"/><path d="m-64-976v-32 32 96z"/><path d="m-384-944h64 64 32-32-128-32z"/><path d="m-416-784v-128-32 128 32 32z"/><path d="m512-208h16-32z"/><path d="m160-176v32z"/><path d="m160-48v-96 96 32z"/><path d="m272-208v176z"/><path d="m496-32h-224z"/><path d="m192-176h32-64z"/><path d="m208-16h-16-32 64z"/><path d="m-64-656-64 64z"/><path d="m-480-496v32z"/><path d="m-128-592h-32z"/><path d="m-384-592-96 96z"/><path d="m-480-464v128z"/><path d="m32-208h-32z"/><path d="m-480-336v32z"/><path d="m-320-208h-64z"/><path d="m-480-304 96 96z"/><path d="m416 144v-32h128v32z"/><path d="m416 272h128z"/><path d="m416 144v128z"/><path d="m544 272v-128z"/><path d="m416 144h128z"/><path d="m-352 208v-32-32z"/><path d="m-160 112v64z"/><path d="m-96 112h64l-64 64z"/><path d="m-224 112h64v64z"/><path d="m-480 144v32 32z"/><path d="m-352 144h-128v-32h128z"/><path d="m-352 144h-128z"/><path d="m96-1184v16h16v-16z"/><path d="m144-1184v16h16v-16z"/><path d="m-480-384h-16v16h16z"/><path d="m-480-432h-16v16h16z"/><path d="m688 32v16h16v-16z"/><path d="m688-16v16h16v-16z"/><path d="m688-176v16h16v-16z"/><path d="m688-128v16h16v-16z"/><path d="m688-336v16h16v-16z"/><path d="m688-288v16h16v-16z"/><path d="m288 112h64 64z"/><path d="m-160 112h64z"/><path d="m416-864h-32-32z"/><path d="m416-928v64z"/><path d="m416-864h-64v-64h64z"/><path d="m320-272h-64z"/><path d="m320-336v64z"/><path d="m256-336h64z"/><path d="m256-272v-64z"/><path d="m320-272h-64v-64h64z"/><path d="m288 112v-64z"/><path d="m288 48h64z"/><path d="m352 48v64z"/><path d="m352 112h-64v-64h64z"/><path d="m-176-704h64z"/><path d="m-176-640v-64z"/><path d="m-112-704v64z"/><path d="m-112-640h-64z"/><path d="m-176-640v-64h64v64z"/><path d="m-384-976v-64z"/><path d="m-320-976h-64z"/><path d="m-320-976h-64v-64h64z"/><path d="m-320-1040v64z"/><path d="m-384-1040h64z"/><path d="m-480 112v-32z"/><path d="m-96 112v64z"/><path d="m-96 176h-64v-64h64z"/><path d="m-160 176-64-64z"/><path d="m-544 208h-32 96z"/><path d="m-480 112v32z"/><path d="m96-1168v-16z"/><path d="m112-1184v16z"/><path d="m112-1168h-16z"/><path d="m96-1184h16z"/><path d="m96-1168v-16h16v16z"/><path d="m160-1184v16z"/><path d="m144-1168v-16z"/><path d="m160-1168h-16z"/><path d="m144-1184h16z"/><path d="m144-1168v-16h16v16z"/><path d="m-480-368h-16z"/><path d="m-496-368v-16z"/><path d="m-496-384h16z"/><path d="m-480-384v16z"/><path d="m-480-368h-16v-16h16z"/><path d="m-496-432h16z"/><path d="m-480-416h-16z"/><path d="m-480-432v16z"/><path d="m-496-416v-16z"/><path d="m-480-416h-16v-16h16z"/><path d="m704 48h-16z"/><path d="m688 48v-16z"/><path d="m688 32h16z"/><path d="m704 32v16z"/><path d="m688 48v-16h16v16z"/><path d="m704-16v16z"/><path d="m704 0h-16z"/><path d="m688 0v-16z"/><path d="m688-16h16z"/><path d="m688 0v-16h16v16z"/><path d="m704-176v16z"/><path d="m704-160h-16z"/><path d="m688-160v-16z"/><path d="m688-176h16z"/><path d="m688-160v-16h16v16z"/><path d="m704-128v16z"/><path d="m704-112h-16z"/><path d="m688-112v-16z"/><path d="m688-128h16z"/><path d="m688-112v-16h16v16z"/><path d="m704-320h-16z"/><path d="m688-336h16z"/><path d="m704-336v16z"/><path d="m688-320v-16z"/><path d="m688-320v-16h16v16z"/><path d="m704-272h-16z"/><path d="m688-272v-16z"/><path d="m688-288h16z"/><path d="m704-288v16z"/><path d="m688-272v-16h16v16z"/><path d="m-576 336h32 64z"/><path d="m-576 208v-32-64z"/><path d="m-576 256v32h96v-32z"/><path d="m-576 288v48h96v-48z"/><path d="m-656 288h80v-32h-48z"/><path d="m-656 288 32-32v-48h-32z"/><path d="m-656 208h-48v80h48z"/><path d="m-624 208v48h48v-48z"/><path d="m-656 288h-48v48h128v-48z"/><path d="m-704 208v-96 64z"/><path d="m-704 336v-48-80z"/><path d="m-624 208h48v-96h-48z"/><path d="m-704 208h48v-96h-48z"/><path d="m-656 208h32v-96h-32z"/><path d="m912-912v16h16v-16z"/><path d="m912-800v16h16v-16z"/><path d="m928-784h-128z"/><path d="m800-912v128h128v-128z"/><path d="m928-912v128z"/><path d="m64-208v-32z"/><path d="m64-208v32z"/><path d="m64-208v32z"/><path d="m800-784h-32z"/><path d="m768-912h32z"/><path d="m768-912v128h32v-128z"/><path d="m768-784v32z"/><path d="m192-208v32z"/><path d="m192-208h32z"/><path d="m224-208v-32z"/><path d="m224-208v32z"/><path d="m240-208v160-128z"/><path d="m224-208h16v32h-16z"/><path d="m64-208v-32h128v32 32h-32-96z"/><path d="m32-208v32z"/><path d="m32-208v32z"/><path d="m32-208h32z"/><path d="m64-208h-32v32h32z"/><path d="m912-912h16z"/><path d="m912-896v-16z"/><path d="m928-896h-16z"/><path d="m928-912v16z"/><path d="m912-896v-16h16v16z"/><path d="m928-784h-16z"/><path d="m912-784v-16z"/><path d="m912-800h16z"/><path d="m928-800v16z"/><path d="m912-784v-16h16v16z"/><path d="m-352 336h-48-80z"/><path d="m-480 208v-96 32z"/><path d="m-480 208h-96v48h96z"/><path d="m-400 288v-80h-32v48z"/><path d="m-400 288-32-32h-48v32z"/><path d="m-400 336v-48h-80v48z"/><path d="m-432 208h-48v48h48z"/><path d="m-400 288v48h48v-128h-48z"/><path d="m16-96v16h16v-16z"/><path d="m16-144v16h16v-16z"/><path d="m560-1008h-16v16h16z"/><path d="m608-1008h-16v16h16z"/><path d="m624-640h-16v16h16z"/><path d="m672-640h-16v16h16z"/><path d="m-432-816v16h16v-16z"/><path d="m-432-896v16h16v-16z"/><path d="m-384-576v16h16v-16z"/><path d="m-336-576v16h16v-16z"/><path d="m-224-1168v16h16v-16z"/><path d="m-112-1168v16h16v-16z"/><path d="m-88-627-11 11 11 11 11-11z"/><path d="m416 256v16h16v-16z"/><path d="m528 256v16h16v-16z"/><path d="m304-736h-16v16h16z"/><path d="m304-784h-16v16h16z"/><path d="m96-32v16h16v-16z"/><path d="m160-32v16h16v-16z"/><path d="m-160 160v16h16v-16z"/><path d="m-112 160v16h16v-16z"/><path d="m-56 120-8 8 8 8 8-8z"/><path d="m-200 120-8 8 8 8 8-8z"/><path d="m-48-240v16h16v-16z"/><path d="m-96-240v16h16v-16z"/><path d="m640-976v-32h-96v32z"/><path d="m736-656h32v-96h-64v96z"/><path d="m704-656v-96h-96-32v96 32h128z"/><path d="m608-752-32-32v32z"/><path d="m544-1008h-32v32h32z"/><path d="m512-976h-32-192v128 32 64h224z"/><path d="m288-752v64 32h64 128 32v-96z"/><path d="m544-816v-160h-32v224h32z"/><path d="m512-752v96h32v-96z"/><path d="m256-976v128h32v-128z"/><path d="m576-752v-32l-32-32v64 96h32z"/><path d="m480-656h-128v96h128z"/><path d="m480-560h-128v32h128z"/><path d="m-32-1008h32v-64h-32z"/><path d="m-416-784v32 32 160h32 64 32 96v-224z"/><path d="m-192-560h32 32l96-96v-32-96h-160z"/><path d="m-416-1008v32 32 160h224v-224z"/><path d="m-192-784h160v-32-32-128-32h-160z"/><path d="m-192-1072h-32-192v64h224z"/><path d="m-32-1072h-64-96v64h160z"/><path d="m-32-976v128h32v-32-96z"/><path d="m-192-1072h96v-96h-128v96z"/><path d="m-416-784v-160h-16v32 128 32h16z"/><path d="m-32-816v32 96h32v-128z"/><path d="m-160-560h-32-96v32h128z"/><path d="m512-400v128h32v-64-64z"/><path d="m544-112v96 128h128v-32-128-32-32z"/><path d="m544-336v64 64 96h128v-96-32-96z"/><path d="m672-368v-32h-128v64h128z"/><path d="m256-240h-32v32h16 16z"/><path d="m192-240h-128v32h128z"/><path d="m240-208h-16-32-128v32 128h16 128 32z"/><path d="m496-16h-224v128h16 128 80z"/><path d="m544 112v-128h-48v128z"/><path d="m416 144v128h128v-128z"/><path d="m496 112h-80v32h128v-32z"/><path d="m240 112h32v-128h-32z"/><path d="m224 112h16v-128-16h-32-128-16v16 128z"/><path d="m32-48v-128-32-32h-32-32v192 32h64z"/><path d="m-32-16v32 80 16h32 32v-128z"/><path d="m-32-240h-128-64v192h64 64 64z"/><path d="m-160-272h-128v32h64 64z"/><path d="m-224-48v-192h-64v160 64h64z"/><path d="m-288-16v64 64h32 32v-16-80-32z"/><path d="m32 112h32v-128h-32z"/><path d="m-32 112v-16l-64 64v16z"/><path d="m-96-48 64 64v-32-32z"/><path d="m-224-16v32l64-64h-64z"/><path d="m-224 96v16l64 64v-16z"/><path d="m-288-16v-64h-32v128h32z"/><path d="m-320 48v-128h-32v128z"/><path d="m-96 176v-16h-64v16z"/><path d="m-480 80h128v-32-128h-128z"/><path d="m-352 80h-128v32h48 32 48z"/><path d="m608-752h96 64z"/><path d="m768-784v-128-32-32 224z"/><path d="m576-784 32 32-64-64z"/><path d="m-160-528h-128-32-64z"/><path d="m480-528h-128-64-32 32z"/><path d="m0-880v32 32 128 32-32z"/><path d="m256-1008v-64 96z"/><path d="m512-528v32z"/><path d="m416-272h64 32-224z"/><path d="m544-112v-96 192z"/><path d="m496-208h-16-64-128-16z"/><path d="m544-16h-48z"/><path d="m-32 96-64 64z"/><path d="m672 112h-128 32 32z"/><path d="m224 112h-160-32-32 192z"/><path d="m0 112h-32z"/><path d="m-224 112h-32z"/><path d="m-256 112h-32z"/><path d="m64-176v32 96z"/><path d="m64-1104v-80 16z"/><path d="m256-528h32 64-32z"/><path d="m288-528h64z"/><path d="m480-528h32z"/><path d="m480-656v96z"/><path d="m480-560v32z"/><path d="m640-1008v32z"/><path d="m768-976v32z"/><path d="m768-944v32z"/><path d="m672-976h96-64z"/><path d="m640-976h32z"/><path d="m768-912v128z"/><path d="m480-976h32z"/><path d="m512-976v-32z"/><path d="m512-1008h32 96v32h-128z"/><path d="m576-624v-32z"/><path d="m704-656v32z"/><path d="m768-656h-32z"/><path d="m736-656h-32z"/><path d="m768-752v96-64z"/><path d="m704-624h-128v-32h128z"/><path d="m544-656h-32-32z"/><path d="m576-656h-32z"/><path d="m192-1104v-64-16z"/><path d="m256-976h32 64-32z"/><path d="m288-976h192-64-64z"/><path d="m224-1104 32 32h64l-96-96z"/><path d="m256-1072v64h64v-64z"/><path d="m256-1008v32h64v-32z"/><path d="m192-1104h32v-64h-32z"/><path d="m192-1104v-80h-128v80z"/><path d="m352-656h-64z"/><path d="m288-848h-32 64 32z"/><path d="m256-816v64 64h64v-128z"/><path d="m256-848v32h64v-32z"/><path d="m256-688v32h64v-32z"/><path d="m288-688v-64-64h64v128z"/><path d="m288-816v-32h64v32z"/><path d="m288-656v-32h64v32z"/><path d="m352-560v-96 16z"/><path d="m352-528v-32z"/><path d="m256-656v96h64v-96z"/><path d="m256-560v32h64v-32z"/><path d="m512-272v64z"/><path d="m672-80h32z"/><path d="m672-208h32z"/><path d="m512-208h32-16z"/><path d="m544-208v-64z"/><path d="m672-368h32z"/><path d="m672-400v32z"/><path d="m544-400h128z"/><path d="m672-240h32z"/><path d="m672-368v32 96h32v-128z"/><path d="m672-240v32z"/><path d="m544-272h-32z"/><path d="m512-400h32z"/><path d="m672-208v96 32h32v-128z"/><path d="m672-48h32z"/><path d="m672-80v32z"/><path d="m672 80v32z"/><path d="m672 80h32z"/><path d="m672-48v128h32v-128z"/><path d="m288-208h128-96z"/><path d="m416-208h64z"/><path d="m480-208h16 16-16z"/><path d="m480-272h-64v64h64z"/><path d="m416-272h-128v64h32 96z"/><path d="m512-272h-32v64h16 16z"/><path d="m240-16h32z"/><path d="m192-272h-128v64h128z"/><path d="m224-272h-32v64h32z"/><path d="m256-272h-32v64h32z"/><path d="m288-272h-32v64h16 16z"/><path d="m256-208v-32z"/><path d="m272-208h16z"/><path d="m272-16v-192 176z"/><path d="m240-48h-32 16z"/><path d="m208-48h-128 80z"/><path d="m80-48h-16z"/><path d="m192-208v-32z"/><path d="m240-208h16z"/><path d="m256-240v32h-16-16v-32z"/><path d="m240-32v16z"/><path d="m64-32h16v16h-16z"/><path d="m80-32h128v16h-16-32-80z"/><path d="m208-32h32v16h-16-16z"/><path d="m-416-464h-64-16z"/><path d="m-416-1072h192-32-64-64z"/><path d="m-96-1072h64z"/><path d="m-32-1072h32-64-32z"/><path d="m-96-1168v96z"/><path d="m32-1104h32v-64h-32z"/><path d="m0-1072 32-32v-64l-96 96z"/><path d="m-224-1072v-96z"/><path d="m-224-1168h128z"/><path d="m-288-528v-32-64 32z"/><path d="m-32-816h32-64-32z"/><path d="m-32-976h32-64-32z"/><path d="m0-1008h-32-64 32z"/><path d="m0-976v-32h-64v32z"/><path d="m-32-1008v32h-64v-32z"/><path d="m0-848h-32-64 32z"/><path d="m0-816v-32h-64v32z"/><path d="m-32-848v32h-64v-32z"/><path d="m-160-528h32v-64h-32z"/><path d="m0-656v-32h-64v32z"/><path d="m-128-528 128-128h-64l-64 64z"/><path d="m-32-688v32h-64v-32z"/><path d="m0-688h-32-64 32z"/><path d="m-128-560h-32v-64h32z"/><path d="m-32-656-96 96v-64l16-16 16-16z"/><path d="m-160-560v32-64-32z"/><path d="m-288-560h-32v-64h32z"/><path d="m-320-560h-64v-64h64z"/><path d="m-384-528h64v-64h-64z"/><path d="m-320-528h32v-64h-32z"/><path d="m-432-944h16v32z"/><path d="m-416-944v-32 32 32z"/><path d="m-416-976v-32-64 128z"/><path d="m-416-496 32-32v-64l-96 96z"/><path d="m-416-464v-32h-64v32z"/><path d="m-416-720v-32-32 32z"/><path d="m-416-560v-160-32 128z"/><path d="m-384-560h-32v-64h32z"/><path d="m-416-752h-16l16-32z"/><path d="m-432-912v-32l16 32z"/><path d="m-432-784v-128h16v128z"/><path d="m-432-752v-32h16z"/><path d="m-416-336h-80 16z"/><path d="m-416-336v-128h-80v128z"/><path d="m-160-272v32 64-32z"/><path d="m32-16h32z"/><path d="m32-208v-32z"/><path d="m32-176v128-32-64z"/><path d="m32-48v32z"/><path d="m64-272h-32v64h32z"/><path d="m-160-240h128 32v64h-64-96z"/><path d="m0-240h32v32 32h-32z"/><path d="m0-272h-160v64h32 128z"/><path d="m32-272h-32v64h32z"/><path d="m-320-80h32z"/><path d="m-480-80h128 32-32z"/><path d="m-288-80v-160 64 32z"/><path d="m-288-240v-32 64 32z"/><path d="m-384-272-32-32h-64l96 96z"/><path d="m-288-272h-32v64h32z"/><path d="m-320-272h-64v64h64z"/><path d="m-416-304v-32h-64v32z"/><path d="m-288 112v-64z"/><path d="m-352 80v32z"/><path d="m-352 48v32z"/><path d="m-288 48h-32z"/><path d="m-320 48h-32z"/><path d="m-480 80v-160z"/><path d="m544 272h-128z"/><path d="m416 272v-128z"/><path d="m416 144v-32z"/><path d="m544 112v32z"/><path d="m544 144v128z"/><path d="m-352 112v96-64z"/><path d="m-32 112-64 64z"/><path d="m-160 176h64z"/><path d="m-352 112h-48v96h48z"/><path d="m-400 112h-32v96h32z"/><path d="m-432 112h-48v96h48z"/><path d="m16-80v-16z"/><path d="m16-96h16z"/><path d="m32-96v16z"/><path d="m32-80h-16z"/><path d="m16-80v-16h16v16z"/><path d="m16-128v-16z"/><path d="m32-128h-16z"/><path d="m32-144v16z"/><path d="m16-144h16z"/><path d="m16-128v-16h16v16z"/><path d="m560-992h-16z"/><path d="m544-992v-16z"/><path d="m544-1008h16z"/><path d="m560-1008v16z"/><path d="m560-992h-16v-16h16z"/><path d="m608-992h-16z"/><path d="m608-1008v16z"/><path d="m592-1008h16z"/><path d="m592-992v-16z"/><path d="m608-992h-16v-16h16z"/><path d="m608-640h16z"/><path d="m608-624v-16z"/><path d="m624-624h-16z"/><path d="m624-640v16z"/><path d="m624-624h-16v-16h16z"/><path d="m656-640h16z"/><path d="m672-640v16z"/><path d="m672-624h-16z"/><path d="m656-624v-16z"/><path d="m672-624h-16v-16h16z"/><path d="m-416-816v16z"/><path d="m-432-800v-16z"/><path d="m-416-800h-16z"/><path d="m-432-816h16z"/><path d="m-432-800v-16h16v16z"/><path d="m-416-896v16z"/><path d="m-432-896h16z"/><path d="m-416-880h-16z"/><path d="m-432-880v-16z"/><path d="m-432-880v-16h16v16z"/><path d="m-368-560h-16z"/><path d="m-384-576h16z"/><path d="m-384-560v-16z"/><path d="m-368-576v16z"/><path d="m-384-560v-16h16v16z"/><path d="m-320-560h-16z"/><path d="m-336-576h16z"/><path d="m-336-560v-16z"/><path d="m-320-576v16z"/><path d="m-336-560v-16h16v16z"/><path d="m-224-1152v-16z"/><path d="m-224-1168h16z"/><path d="m-208-1152h-16z"/><path d="m-208-1168v16z"/><path d="m-224-1152v-16h16v16z"/><path d="m-112-1152v-16z"/><path d="m-112-1168h16z"/><path d="m-96-1168v16z"/><path d="m-96-1152h-16z"/><path d="m-112-1152v-16h16v16z"/><path d="m-77-616-11 11-11-11 11-11z"/><path d="m-88-627 11 11z"/><path d="m-99-616 11-11z"/><path d="m-88-605-11-11z"/><path d="m-77-616-11 11z"/><path d="m416 272v-16z"/><path d="m432 272h-16z"/><path d="m432 256v16z"/><path d="m416 256h16z"/><path d="m416 272v-16h16v16z"/><path d="m528 272v-16z"/><path d="m544 272h-16z"/><path d="m544 256v16z"/><path d="m528 256h16z"/><path d="m528 272v-16h16v16z"/><path d="m288-720v-16z"/><path d="m304-736v16z"/><path d="m304-720h-16z"/><path d="m288-736h16z"/><path d="m304-720h-16v-16h16z"/><path d="m288-768v-16z"/><path d="m288-784h16z"/><path d="m304-768h-16z"/><path d="m304-784v16z"/><path d="m304-768h-16v-16h16z"/><path d="m96-16v-16z"/><path d="m112-32v16z"/><path d="m112-16h-16z"/><path d="m96-32h16z"/><path d="m96-16v-16h16v16z"/><path d="m176-32v16z"/><path d="m160-32h16z"/><path d="m160-16v-16z"/><path d="m176-16h-16z"/><path d="m160-16v-16h16v16z"/><path d="m-144 176h-16z"/><path d="m-160 160h16z"/><path d="m-160 176v-16z"/><path d="m-144 160v16z"/><path d="m-160 176v-16h16v16z"/><path d="m-112 176v-16z"/><path d="m-112 160h16z"/><path d="m-96 160v16z"/><path d="m-96 176h-16z"/><path d="m-112 176v-16h16v16z"/><path d="m-48 128-8 8-8-8 8-8z"/><path d="m-56 136-8-8z"/><path d="m-48 128-8 8z"/><path d="m-64 128 8-8z"/><path d="m-56 120 8 8z"/><path d="m-192 128-8 8-8-8 8-8z"/><path d="m-192 128-8 8z"/><path d="m-200 136-8-8z"/><path d="m-208 128 8-8z"/><path d="m-200 120 8 8z"/><path d="m-32-224h-16z"/><path d="m-32-240v16z"/><path d="m-48-224v-16z"/><path d="m-48-240h16z"/><path d="m-48-224v-16h16v16z"/><path d="m-80-224h-16z"/><path d="m-96-240h16z"/><path d="m-96-224v-16z"/><path d="m-80-240v16z"/><path d="m-96-224v-16h16v16z"/><path d="m512-240h32-48z"/><path d="m64-240h208-32-176-16z"/><path d="m544-272v-128 160z"/><path d="m224-1136 32 32h-32-192l32-32z"/><path d="m288-752v192 32h-32v-224z"/><path d="m288-976v192 32h-32v-224z"/><path d="m256-1072 32 32v32 32h-32z"/><path d="m288-1072v32l-32-32-32-32h32z"/><path d="m512-560v32h-32-192v-32z"/><path d="m544-496v96 128h-32v-224z"/><path d="m512-528v-32h32v64h-32z"/><path d="m0-880v192l-32 32v-224z"/><path d="m-32-1072 32-32v32 192h-32z"/><path d="m32-1136h32l-32 32-32 32v-32z"/><path d="m-32-656 32-32v32l-128 128v-32z"/><path d="m-160-528h-224v-32h224z"/><path d="m-128-560v32h-32v-32z"/><path d="m-416-496h-32l64-64v32z"/><path d="m-160-240h-128-96v-32h224z"/><path d="m64-240h-16-208v-32h224z"/><path d="m288-240h-16-208v-32h224z"/><path d="m512-240h-16-208v-32h224z"/><path d="m544-272v32h-32v-32z"/><path d="m-448-304h32l32 32v32z"/><path d="m-416-496v192h-32v-192z"/><path d="m288-976v-32 224z"/><path d="m512-560h-224z"/><path d="m-128-528h-32z"/><path d="m512-528h-32z"/><path d="m224-1104h-32-128-32z"/><path d="m0-1072v64 32 96z"/><path d="m256-752v224-32-96-32z"/><path d="m256-976v224-64-32z"/><path d="m256-1072-32-32z"/><path d="m32-1104-32 32z"/><path d="m0-656-128 128z"/><path d="m-416-496v32 128 32z"/><path d="m512-496v224-128z"/><path d="m-160-272h-224 64 32z"/><path d="m64-272h-224 160 32z"/><path d="m288-272h-224 128 32 32z"/><path d="m-416-304 32 32z"/><path d="m-384-528-32 32z"/><path d="m496-240h-224 16z"/><path d="m48-240h-336 128z"/><path d="m544-976v160z"/><path d="m768-1008v32h-224v-32z"/><path d="m608-752h-64v-64z"/><path d="m768-976h-96-32-96z"/><path d="m288-784v224-192z"/><path d="m544-560h-32z"/><path d="m-32 16v80z"/><path d="m496-208h-224v-32h224z"/><path d="m544-240v32h-48v-32z"/><path d="m560-208v224h-16v-32-192z"/><path d="m544-240h16v32h-16z"/><path d="m240-240h32v32 192h-32z"/><path d="m272-16v32h-32v-32z"/><path d="m496 16h-224v-32h224z"/><path d="m544-16v32h-48v-32z"/><path d="m272-208v192z"/><path d="m544-208h-32-16z"/><path d="m496-16h-224z"/><path d="m-160-48h64z"/><path d="m-224 96v-80z"/><path d="m-160 160h64v32h-64z"/><path d="m-224 128v-32l64 64v32z"/><path d="m-160-48-64 64v-64z"/><path d="m-32 16-64-64h64z"/><path d="m-32 96v32l-64 64v-32z"/><path d="m-160 160h64z"/><path d="m-224 96 64 64z"/><path d="m-160-48-64 64z"/><path d="m-32 16-64-64z"/></g></defs><path d="m-867-1475h1958v1974h-1958z" fill="#fff"/><g stroke="#000"><use fill="none" stroke-miterlimit="0" stroke-width="15" xlink:href="#a"/><use fill="#fff" xlink:href="#a"/></g></svg>