<svg viewBox="-1094 -1254 2828 1996" xmlns="http://www.w3.org/2000/svg" xmlns:xlink="http://www.w3.org/1999/xlink"><defs><g id="a"><path d="m384-320v128h-128v-128z"/><path d="m384-192h-128z"/><path d="m384-320v128z"/><path d="m256-320v128z"/><path d="m384-192h-128z"/><path d="m384-320v40 88z"/><path d="m384-320h-128z"/><path d="m256-192v-128z"/><path d="m384-192h-128z"/><path d="m384-320v128z"/><path d="m256-320h128z"/><path d="m384-320h-128v128h128z"/><path d="m384-192h-128v-128h128z"/><path d="m1568-1088v48z"/><path d="m-928 352v176 48-192z"/><path d="m-928 128v176 48-192z"/><path d="m592-1088h-224z"/><path d="m816-1088h-224z"/><path d="m1040-1088h-224z"/><path d="m1264-1088h-224 176z"/><path d="m1488-1088h-16-208 176 32z"/><path d="m272 576h-48-32z"/><path d="m-928 128v-48h96v176 48h-96z"/><path d="m-832 304v176 48h-96v-176-48z"/><path d="m-832 528v48h-96v-48z"/><path d="m-608 576h-96-128v-48-48h224z"/><path d="m-384 576h-96-128v-96h32 128 64z"/><path d="m-160 576h-96-128v-96h160 64z"/><path d="m64 576h-96-128v-96h160 64z"/><path d="m184 480h88v96h-80-128v-96z"/><path d="m-208 432h-224v-96h224z"/><path d="m16 432h-224v-96h224z"/><path d="m96 336h72 16v96h-168v-96z"/><path d="m184 112v-112h40 48v128 96h-88z"/><path d="m272 224v128 96h-88v-16-96-112z"/><path d="m272 448v32h-88v-32z"/><path d="m0-224v-112h198.4 25.6v224h-224z"/><path d="m224-112v104h-224v-104z"/><path d="m224-336h32v16 128 80h-32z"/><path d="m256-112v104h-32v-104z"/><path d="m0-448v-64h53.8182l58.1818 128 5 11-117-53.1818z"/><path d="m135.2329-364.7123-7.2329-3.2877 11-5z"/><path d="m157.3333-354.6667-22.1004-10.0456 3.7671-8.2877 5-11z"/><path d="m224-336h-25.6l-41.0667-18.6667-13.3333-29.3333-5-11 117 53.1818v5.8182z"/><path d="m256-458.1818v116.3636l-117-53.1818-11-5z"/><path d="m128-400-11 5 53.1818-117h53.8182 32v53.8182z"/><path d="m117-395-5 11-58.1818-128h116.3636z"/><path d="m0-336v-90.1818l117 53.1818 11 5 7.2329 3.2877 22.1004 10.0456 41.0667 18.6667z"/><path d="m224 0h-40-88-96v-8h224z"/><path d="m448 0h-176-48v-8h32 128 16 48z"/><path d="m473.4546-8h109.0909 57.4545v8h-144-48v-8z"/><path d="m384-192v136 48h-128v-104-80z"/><path d="m473.4546-8 49.5454-109 5-11 54.5455 120z"/><path d="m512-112 11-5-49.5454 109h-25.4546-48v-48-5.0909z"/><path d="m501-117 11 5-112 50.9091v-101.8182z"/><path d="m482.6667-157.3333 13.3333 29.3333 5 11-101-45.9091v-32z"/><path d="m482.6667-157.3333 22.1004 10.0456-3.7671 8.2877-5 11z"/><path d="m504.7671-147.2877 7.2329 3.2877-11 5z"/><path d="m582.5455-8-54.5455-120-5-11 117 53.1818v77.8182z"/><path d="m384-320v-184h16v224h-16z"/><path d="m400-280v85.0909 32 101.8182 5.0909h-16v-136-88z"/><path d="m400-56v48h-16v-48z"/><path d="m400-504h208 32v216 8h-240z"/><path d="m640-280v56 138.1818l-117-53.1818-11-5-29.3333-13.3333-82.6667-37.5758v-85.0909z"/><path d="m280-512h88 16v8 184h-128v-16-5.8182-116.3636-53.8182z"/><path d="m608-504h-208-16v-8h72 8 144z"/><path d="m640-512v8h-32v-8z"/><path d="m368-960v-32h88v48 96 80h-88z"/><path d="m456-768v32 192h-88v-192-32z"/><path d="m456-544v32h-72-16v-32z"/><path d="m680-848h-136-88v-96h224z"/><path d="m904-848h-136-88v-96h224z"/><path d="m1072-944v96h-80-88v-96z"/><path d="m1472-992v-96h16 80v48 176h-96z"/><path d="m1568-864v48 176h-96v-176-48z"/><path d="m1568-640v48h-96v-48z"/><path d="m592-992h-136-88v-96h224z"/><path d="m816-992h-136-88v-96h224z"/><path d="m1040-992h-136-88v-96h224z"/><path d="m1264-992h-48-88-88v-96h224z"/><path d="m1472-1088v96h-32-176v-96z"/><path d="m1472-816v176 48-80z"/><path d="m-832 80v80 96z"/><path d="m1472-992h-32z"/><path d="m0 0h96z"/><path d="m184 0h-8-80z"/><path d="m640 0h-56-88z"/><path d="m368-736v192 32-160z"/><path d="m368-960v192 32-24z"/><path d="m456-768v-80 88 24z"/><path d="m544-848h-72-16z"/><path d="m1072-848h-80z"/><path d="m680-944h-224z"/><path d="m904-944h-224z"/><path d="m640-280v-8 64z"/><path d="m0-448v21.8182 90.1818 112-202.1818z"/><path d="m272 0v128z"/><path d="m-224 480h-160-64z"/><path d="m0 480h-160-64z"/><path d="m184 448v32-48z"/><path d="m184 112v112 112-88-88z"/><path d="m-208 336h-224 96z"/><path d="m16 336h-224 96z"/><path d="m184 336h-16z"/><path d="m184 432h-72-96z"/><path d="m-448 480h-128z"/><path d="m-608 480h-224z"/><path d="m-576 480h-32z"/><path d="m256-320v128z"/><path d="m384-320h-128z"/><path d="m176 0h8z"/><path d="m496 0h-136-80-8 176z"/><path d="m640 0h-56z"/><path d="m360-512h8-88z"/><path d="m544-512h96-32-144z"/><path d="m544-504v-8h-80v8z"/><path d="m360-8h-80z"/><path d="m360 0v-8h-80v8z"/><path d="m176 0v-8h-80v8z"/><path d="m360-504v-8h-80v8z"/><path d="m1472-592h96z"/><path d="m-832 80h-96z"/><path d="m176 0h8-88z"/><path d="m272 0h8z"/><path d="m584 0h-64-160 136z"/><path d="m584 0h56-64-56z"/><path d="m0-512h224-53.8182-116.3636z"/><path d="m224-512h56-24z"/><path d="m368-512h-8z"/><path d="m224-512h-224 53.8182 116.3636z"/><path d="m544-512h96z"/><path d="m176-8v8z"/><path d="m544-504h-80z"/><path d="m544-512v8z"/><path d="m464-504v-8z"/><path d="m544-512v8h-80v-8z"/><path d="m360-8v8z"/><path d="m280 0v-8z"/><path d="m360-8v8h-64-16v-8z"/><path d="m96-8h80z"/><path d="m176-8v8h-80v-8z"/><path d="m96 0v-8z"/><path d="m360-512v8z"/><path d="m360-504h-80z"/><path d="m280-504v-8z"/><path d="m360-512v8h-80v-8z"/><path d="m472-848h-16z"/><path d="m168 336h-72z"/><path d="m1568-816v144 80-48z"/><path d="m1568-1040v176 48-48z"/><path d="m-928 80v48z"/><path d="m1568-1088h-80z"/><path d="m-704 576h-128-96 96z"/><path d="m-480 576h-96-32-96 96z"/><path d="m-256 576h-192-32 96z"/><path d="m-32 576h-192-32 96z"/><path d="m192 576h-192-32 96z"/><path d="m1472-864v-128 128 48z"/><path d="m1568-1040v-48h-80-16v96 128h96z"/><path d="m1472-864v48 144h96v-144-48z"/><path d="m-832 256v128 96-176z"/><path d="m1472-992v-96h-32v96z"/><path d="m1440-1088h-176-48v96h224z"/><path d="m1440-992h-224 48z"/><path d="m296 0h-24 8z"/><path d="m352 0h-56z"/><path d="m520 0h-168-56 64z"/><path d="m288-512h80-8-80-56z"/><path d="m456-512h8z"/><path d="m368-760v24 64z"/><path d="m368-992v-96 96 32z"/><path d="m680-992h-88-136 136z"/><path d="m904-992h-88-136 136z"/><path d="m1128-992h-88-136 136z"/><path d="m1216-992h-88z"/><path d="m592-1088h-224v96h88 136z"/><path d="m816-1088h-224v96h88 136z"/><path d="m1040-1088h-224v96h88 136z"/><path d="m1216-1088h-176v96h88 88z"/><path d="m456-992v48z"/><path d="m456-736v64 160-32z"/><path d="m456-672v-64-24z"/><path d="m680-944h-224v96h16 72 136z"/><path d="m904-944h-224v96h88 136z"/><path d="m976-848v-96h-72v96z"/><path d="m472-848h72z"/><path d="m768-848h-88-136 136z"/><path d="m992-848h-16-72-136 136z"/><path d="m976-944h96-168z"/><path d="m456-848v-96-48h-88v32 200h88z"/><path d="m456-672h-88v160h88z"/><path d="m640-288v-216-8z"/><path d="m640-224v138.1818 77.8182 8-8-77.8182z"/><path d="m360-8-8 8h168 56v-8z"/><path d="m576 0h64v-8h-57.4545-6.1224-.4231z"/><path d="m501-139 3.7671-8.2877-3.7671-1.7123-10 10 5 11z"/><path d="m509.2426-110.7467 2.7574-1.2533-5.0896-2.3134z"/><path d="m582.5455-8-54.5455-120-5 11-7.3186 16.101 60.7417 92.899z"/><path d="m576-8h.4231l-60.7417-92.899-6.4388-9.8477-2.3322-3.5667-5.9104-2.6866-22-10-119 119z"/><path d="m640-8v-77.8182l-117-53.1818 5 11 54.5455 120z"/><path d="m515.6814-100.899 7.3186-16.101-11 5-2.7574 1.2533z"/><path d="m496-128-5-11-12 12 22 10z"/><path d="m512-144-7.2329-3.2877-3.7671 8.2877z"/><path d="m320-176 31-6 26-17 17-26 6-31-6-31-17-26-26-17-31-6-31 6-26 17-17 26-6 31 6 31 17 26 26 17z"/><path d="m640-224v-64l-64 64-75 75 3.7671 1.7123 7.2329 3.2877 11 5 117 53.1818z"/><path d="m320-336-31 6z"/><path d="m640-288-11.6757 11.6757-20.3243 20.3243-32 32z"/><path d="m512-144 11 5z"/><path d="m501-139 11-5z"/><path d="m523-139 5 11z"/><path d="m496-128 5-11z"/><path d="m528-128-5 11z"/><path d="m501-117-5-11z"/><path d="m523-117-11 5z"/><path d="m506.9104-114.3134 5.0896 2.3134-11-5z"/><path d="m0-512v64z"/><path d="m0-224v112 104 8z"/><path d="m138.1779-371.1914.8221-1.8086-3.0362 1.3801z"/><path d="m144-384 5 11 12-12-22-10z"/><path d="m224-448 64-64h-64-53.8182l-53.1818 117 11-5 88-40z"/><path d="m112-384-58.1818-128h-53.8182v64 21.8182l117 53.1818z"/><path d="m138.1779-371.1914-2.2141-.4285-7.9638 3.6199 11 5 6.7297-6.7297z"/><path d="m139-363-11-5-11-5-117-53.1818v202.1818z"/><path d="m117-395 53.1818-117h-116.3636l58.1818 128z"/><path d="m139-395 22 10 55-55-88 40z"/><path d="m145.7297-369.7297 3.2703-3.2703-5-11-5 11-.8221 1.8086z"/><path d="m224-448-8 8-55 55-12 12-3.2703 3.2703-6.7297 6.7297-139 139 11.6757-11.6757 77.1848-77.1848 56.8692-56.8692z"/><path d="m117-373 11 5z"/><path d="m128-368 7.9638-3.6199 3.0362-1.3801z"/><path d="m112-384 5 11z"/><path d="m139-373 5-11z"/><path d="m117-395-5 11z"/><path d="m144-384-5-11z"/><path d="m128-400-11 5z"/><path d="m139-395-11-5z"/><path d="m272 352v128 96-96-32z"/><path d="m272 128v32 88 104-128z"/><path d="m272 248v-88z"/><path d="m184 480h-120-64z"/><path d="m184 160v88z"/><path d="m184 0v112z"/><path d="m272 128v-128h-88v112 48h88z"/><path d="m272 352v-104h-88v88 96 48h40 48z"/><path d="m-112 336h-96-128v96h128 96z"/><path d="m112 336h-16-80-128v96h128 96z"/><path d="m184 432v-96h-16-56v96z"/><path d="m96 336h-80z"/><path d="m112 336h56-72z"/><path d="m-208 432h-128-96z"/><path d="m16 432h-128-96z"/><path d="m-224 480h-224v96h192 32z"/><path d="m0 480h-224v96h192 32z"/><path d="m224 480h-40-184v96h192 32z"/><path d="m272 576v-96h-48v96z"/><path d="m-448 480h-128v96h96 32z"/><path d="m-608 480h-224v96h128 96z"/><path d="m-576 480h-32v96h32z"/><path d="m-832 256v-96h-96v192 32h96z"/><path d="m-928 384v192h96v-96-96z"/><path d="m368-760v88-32z"/><path d="m456-672v-88z"/><path d="m456-760h-88z"/><path d="m368-672h88z"/><path d="m456-760h-88v88h88z"/><path d="m456-672h-88v-88h88z"/><path d="m272 248v-88z"/><path d="m184 160v88z"/><path d="m184 248h88z"/><path d="m272 160h-88z"/><path d="m272 248h-88v-88h88z"/><path d="m272 160h-88v88h88z"/><path d="m-96 224h8v184 8h-8z"/><path d="m-88 224h184v24 160h-184z"/><path d="m136 408h-40v-160h32 56 88 24v80.886 79.114z"/><path d="m96 224h32v24h-32z"/><path d="m272 248v-88h24v88z"/><path d="m128 224v-160h56v96 88h-56z"/><path d="m272 0h-48-40-88-96v-224l11.6757-11.6757 277.3243 53.6757 7 1.3548v9.2904 25.3164 70.9208 67.1176 8z"/><path d="m296-8v-67.1176-70.9208-25.3164-9.2904l-7-1.3548-277.3243-53.6757-11.6757 11.6757v224h96 88 40 48 24z"/><path d="m296 64v18.1139 22.7721 55.114h-24-88v-96z"/><path d="m246.6539-224-.6539-1-93.8139-143.4801-6.4564-1.2496-56.8692 56.8692 174.1395 113.8605z"/><path d="m88.8605-312.8605 56.8692-56.8692 6.4564 1.2496 93.8139 143.4801.6539 1 16.3461 25z"/><path d="m240-256-19.2-99.2-68.6139-13.2801 93.8139 143.4801z"/><path d="m152.1861-368.4801 68.6139 13.2801 19.2 99.2 6 31z"/><path d="m240-256 6-31 11.8134-61.0361-37.0134-7.1639z"/><path d="m220.8-355.2 37.0134 7.1639-11.8134 61.0361-6 31z"/><path d="m263-313-17 26 11.8134-61.0361 24.9388 4.8269z"/><path d="m257.8134-348.0361-11.8134 61.0361 17-26 19.7522-30.2092z"/><path d="m88.8605-312.8605 174.1395 113.8605 26 17-277.3243-53.6757z"/><path d="m263-199-174.1395-113.8605-77.1848 77.1848 277.3243 53.6757z"/><path d="m256-594.1139v-22.7722h17.1139v22.7722z"/><path d="m256-867.2v-60.8h40v224h-40z"/><path d="m296-704v32 55.1139h-.1139-22.7722-17.1139v-87.1139z"/><path d="m136 416h-224v-8h184 40z"/><path d="m360 416h-164.8-59.2v-8h160 64z"/><path d="m384 408v8h-24v-8z"/><path d="m296 248v-88-55.114h48.1139 22.7722 17.1139v19.914 204.086h-88z"/><path d="m384 328.886v79.114h-24-64v-79.114z"/><path d="m366.8861 82.1139h17.1139v22.7721h-17.1139z"/><path d="m296 82.1139h48.1139v22.7721h-48.1139z"/><path d="m296 64h88v18.1139h-17.1139-22.7722-48.1139z"/><path d="m352-8h-56v8h56l8-8z"/><path d="m296 0v-8h56 8l-8 8z"/><path d="m352-8 42-217-.6538 1-16.3462 25-81 123.8824v67.1176z"/><path d="m296-75.1176 81-123.8824 16.3462-25 .6538-1-42 217h-56z"/><path d="m296-146.0384 55-35.9616-31 6-24 4.6452z"/><path d="m296-171.3548 24-4.6452 31-6-55 35.9616z"/><path d="m320-176-24 4.6452v-9.2904z"/><path d="m320-176-24-4.6452v9.2904z"/><path d="m351-182 26-17-81 123.8824v-70.9208z"/><path d="m377-199-26 17-55 35.9616v70.9208z"/><path d="m414.2692-256h49.9073 143.8235l-32 32-160 160-56 56h-8l42-217 6-31z"/><path d="m416-64 160-160 32-32h-143.8235-49.9073-14.2692l-6 31-42 217h8z"/><path d="m273.1139-594.1139h22.7722 56.1139v18.1139h-96v-18.1139z"/><path d="m296-616.8861h56v22.7722h-56.1139v-22.7722z"/><path d="m352-576v-18.1139-22.7722-55.1139h16 88 56v96z"/><path d="m152.1861-368.4801 68.6139 13.2801 37.0134 7.1639 24.9388 4.8269 20.4088 3.9501 16.839 3.2591 31 6 277.3243 53.6757 11.6757-11.6757v-224h-128-48-176l-64 64-78.2703 78.2703z"/><path d="m464-512h48 128v224l-11.6757 11.6757-277.3243-53.6757-31-6-16.839-3.2591-20.4088-3.9501-24.9388-4.8269-37.0134-7.1639-68.6139-13.2801-6.4564-1.2496 78.2703-78.2703 64-64z"/><path d="m377-313 17 26 20.2692 31h49.9073z"/><path d="m394-287-17-26 87.1765 57h-49.9073z"/><path d="m414.2692-256-20.2692-31 6 31z"/><path d="m400-256-6-31 20.2692 31z"/><path d="m289-330 14.161-9.2591-20.4088-3.9501-19.7522 30.2092z"/><path d="m303.161-339.2591-14.161 9.2591-26 17 19.7522-30.2092z"/><path d="m320-336-16.839-3.2591-14.161 9.2591z"/><path d="m303.161-339.2591 16.839 3.2591-31 6z"/><path d="m464.1765-256-87.1765-57-26-17 277.3243 53.6757-20.3243 20.3243z"/><path d="m351-330 26 17 87.1765 57h143.8235l20.3243-20.3243z"/><path d="m352-672v55.1139h-56v-55.1139z"/><path d="m512-848h32v112h-32z"/><path d="m456-760v-88h56v112 64h-56z"/><path d="m296-928h72v168 56h-72z"/><path d="m368-704v32h-16-56v-32z"/><path d="m368-928h88v80 88h-88z"/><path d="m456-928h88v80h-32-56z"/><path d="m544-848v-80h3.2 188.8v192h-192z"/><path d="m547.2-928h-3.2-88-88-72-40 8 224z"/><path d="m512-512h-48-176 8z"/><path d="m736-928v184 8z"/><path d="m256-867.2v163.2 87.1139 22.7722 18.1139-8-120z"/><path d="m352-576h160-32-224z"/><path d="m512-672v-64 152 8z"/><path d="m544-736h192-224z"/><path d="m295.8861-594.1139-7.2914-7.2914v-8.1899l7.2914-7.2909z"/><path d="m295.8861-616.8861-7.2914 7.2909-8.1897.0003-7.2911-7.2912z"/><path d="m273.1139-616.8861 7.2911 7.2912v8.1896l-7.2911 7.2914z"/><path d="m608-256 20.3243-20.3243 11.6757-11.6757-64 64z"/><path d="m320-336-31 6z"/><path d="m246.6539-224-.6539-1 .6538 1z"/><path d="m224-448-78.2703 78.2703-56.8692 56.8692-77.1848 77.1848-11.6757 11.6757 64-64z"/><path d="m393.3462-224-16.3462 25z"/><path d="m360 416h24-24-164.8z"/><path d="m384 104.886v-22.7721-18.1139 60.8z"/><path d="m272 0h-48-40z"/><path d="m464-512h-8-88-80z"/><path d="m512-512h128-96-80z"/><path d="m1072-848v-96z"/><path d="m976-848h16 80z"/><path d="m1072-944h-96z"/><path d="m976-944v96z"/><path d="m456-760h-88z"/><path d="m368-672h88z"/><path d="m246-287 17-26z"/><path d="m576-224-160 160-56 56-8 8 8-8 119-119 12-12 10-10z"/><path d="m263-313 26-17z"/><path d="m320-336 31 6z"/><path d="m240-256 6-31z"/><path d="m351-330 26 17z"/><path d="m246-225-6-31z"/><path d="m377-313 17 26z"/><path d="m246.6539-224 16.3461 25-17-26z"/><path d="m394-287 6 31z"/><path d="m289-182-26-17z"/><path d="m400-256-6 31z"/><path d="m296-180.6452 24 4.6452-31-6z"/><path d="m393.3462-224 .6538-1-17 26z"/><path d="m351-182-31 6z"/><path d="m377-199-26 17z"/><path d="m288-512-64 64z"/><path d="m184 248h88z"/><path d="m272 160h-88z"/><path d="m-432 336v96z"/><path d="m-336 336h-96z"/><path d="m-432 432h96z"/><path d="m-336 432v-96z"/><path d="m896-224h-96-32-96 128z"/><path d="m-416-800v64z"/><path d="m224-584v-74.1139-13.8861 88 40z"/><path d="m224-904.8861v-23.1139 32z"/><path d="m246-225-6-31z"/><path d="m351-330 26 17z"/><path d="m640-288v-224z"/><path d="m288-512-64 64v-64z"/><path d="m288-512-64 64z"/><path d="m640-288v32 32h-64z"/><path d="m640-256v-32z"/><path d="m320-336 31 6 26 17 17 26 6 31-6 31-.6538 1h-146.6924l-.6538-1-6-31 6-31 17-26 26-17z"/><path d="m320-336 31 6z"/><path d="m263-313 26-17z"/><path d="m377-313 17 26z"/><path d="m246-287 17-26z"/><path d="m394-287 6 31z"/><path d="m240-256 6-31z"/><path d="m400-256-6 31z"/><path d="m394-225-.6538 1z"/><path d="m-416-306.1139v-22.7722h17.1139v22.7722z"/><path d="m-416-832v-96h96v96z"/><path d="m-288-328.8861v22.7722h-88.1139v-22.7722z"/><path d="m-398.8861-306.1139h22.7722 88.1139v18.1139h-32-96v-18.1139z"/><path d="m-128-384h96v96h-128v-96z"/><path d="m-32-544h32v32 64h-32z"/><path d="m224-448-160 160h-64v-144-16-64h64 16 144z"/><path d="m64-288-64 64v-64z"/><path d="m64-512h-64v-32h64z"/><path d="m192-544h-112-16-64-32v-40h160 64z"/><path d="m224-584v40h-32v-40z"/><path d="m-288-800v96 128h-128v-160-64z"/><path d="m-288-576v96 128h-128v-160-64z"/><path d="m-288-352v23.1139h-88.1139-22.7722-17.1139v-23.1139z"/><path d="m-288-800v-128h128v224h-128z"/><path d="m-160-704v32 32 32 128h-128v-96-128z"/><path d="m-160-480v96 96h-128v-18.1139-22.7722-23.1139-128z"/><path d="m-128-608v-32h96v56 40 96 16 16h-96z"/><path d="m-32-416v32h-96v-32z"/><path d="m-32-584v-56h128 32v56z"/><path d="m-160-704v-224h96 128v224z"/><path d="m64-672h-192-32v-32h224z"/><path d="m128-928v23.1139 22.7722 178.1139h-64v-224z"/><path d="m128-704v32h-32-32v-32z"/><path d="m128-672v-32-178.1139h57.1139 22.7722 16.1139v210.1139 13.8861h-96z"/><path d="m224-658.1139v74.1139h-32-64v-56-18.1139z"/><path d="m207.8861-904.8861h16.1139v8.8861 13.8861h-16.1139z"/><path d="m128-904.8861h57.1139v22.7722h-57.1139z"/><path d="m128-928h32 64v23.1139h-16.1139-22.7722-57.1139z"/><path d="m96-672h32z"/><path d="m-64-928h-96-128 192z"/><path d="m160-928h-32-64-128 192z"/><path d="m207.8861-904.8861-7.2911 7.2914-8.1901-.0002-7.291-7.2912z"/><path d="m207.8861-882.1139-7.2911-7.2914v-8.1894l7.2911-7.2914z"/><path d="m185.1139-904.8861 7.291 7.2912v8.1896l-7.291 7.2914z"/><path d="m-320-832v-96z"/><path d="m-160-288h128z"/><path d="m-160-640v32z"/><path d="m-128-608v192 32-160-40z"/><path d="m96-640h-128-96z"/><path d="m80-512h-16z"/><path d="m-32-384v-32-16 48 96z"/><path d="m-32-432v-16z"/><path d="m-376.1139-306.1139-7.2911-7.2914v-8.1894l7.2911-7.2914z"/><path d="m-376.1139-328.8861-7.2911 7.2914-8.1899-.0002-7.2912-7.2912z"/><path d="m-398.8861-328.8861 7.2912 7.2912v8.1896l-7.2912 7.2914z"/><path d="m0-288v64z"/><path d="m800-96v96 128-96z"/><path d="m960 416h96z"/><path d="m928-183.1139v-22.7721h88.1139v22.7721z"/><path d="m928 0v-183.1139h88.1139 22.7722 17.1139v23.1139 200.8861h-128z"/><path d="m1056 40.8861v23.1139 200.8861h-128v-104.8861-119.1139z"/><path d="m1056 264.8861v23.1139h-128v-23.1139z"/><path d="m1038.8861-205.886h17.1139v22.7721h-17.1139z"/><path d="m1038.8861-205.886h-22.7722-88.1139v-18.114h128v18.114z"/><path d="m1056 416h-96v-96h96z"/><path d="m1056-183.1139v-22.7721-18.114 64z"/><path d="m1056 288h-96-32z"/><path d="m1016.1139-183.1139 7.2911-7.291 8.19-.0002 7.2911 7.2912z"/><path d="m1016.1139-205.886 7.2911 7.2913v8.1898l-7.2911 7.291z"/><path d="m1038.8861-183.1139-7.2911-7.2912v-8.1896l7.2911-7.2913z"/><path d="m960 320v96z"/><path d="m800-96v-32-96h96 32v18.114 22.7721 183.1139h-128z"/><path d="m928 0v40.8861 119.1139h-128v-32-128z"/><path d="m928 160v104.8861 23.1139 96h-128v-224z"/><path d="m928 384v32h-128v-32z"/><path d="m416 192v64 114.114 22.772 23.114z"/><path d="m416 160v32z"/><path d="m640-224v144 16 64h-64-16-144v-64l160-160z"/><path d="m800-128h-32v-96h32z"/><path d="m672-64v-16-144h96v96 32 96h-96z"/><path d="m768 0v128h-32-64v-96-32z"/><path d="m560 32h16 64 32v96h-160v-96z"/><path d="m672 0v32h-32v-32-64h32z"/><path d="m640 32h-64v-32h64z"/><path d="m416 192v-32-128h96v96 32 96h-96z"/><path d="m512 256v114.114h-57.1139-22.7722-16.1139v-114.114z"/><path d="m416 392.886v-22.772h16.1139v22.772z"/><path d="m512 384v-13.886-114.114-96h224v224z"/><path d="m736 416h-96-128v-23.114-8.886h224z"/><path d="m736 384v-224h32 32v224z"/><path d="m800 416h-64v-32h64z"/><path d="m454.8861 370.114h57.1139v13.886 8.886h-57.114z"/><path d="m512 416h-96v-23.114h16.1139 22.7721 57.114z"/><path d="m736 160h-224 128z"/><path d="m800 160h-32z"/><path d="m560 0h16z"/><path d="m768 128h-32z"/><path d="m432.1139 392.886 7.2911-7.2912 8.1899.0001 7.2911 7.2911z"/><path d="m432.1139 370.114 7.2911 7.2913v8.1895l-7.2911 7.2912z"/><path d="m454.886 392.886-7.2911-7.2911v-8.1896l7.2912-7.2913z"/><path d="m576-224-160 160z"/><path d="m289-182-26-17z"/><path d="m393.3462-224-16.3462 25-26 17-31 6-31-6-26-17-16.3462-25z"/><path d="m263-199-16.3461-25h-.0001z"/><path d="m377-199-26 17z"/><path d="m320-176-24-4.6452-7-1.3548z"/><path d="m351-182-31 6z"/><path d="m352 0h-56z"/><path d="m416 0h-64l64-64z"/><path d="m416-64-64 64 8-8z"/><path d="m992 384h32v-32h-32z"/><path d="m992 352h32z"/><path d="m1024 352v32z"/><path d="m992 384v-32z"/><path d="m1024 384h-32z"/><path d="m-352-896h-32v32h32z"/><path d="m-352-896v32z"/><path d="m-384-896h32z"/><path d="m-352-864h-32z"/><path d="m-384-864v-32z"/><path d="m296-232v-48z"/><path d="m344-232h-48z"/><path d="m344-280v48z"/><path d="m296-280h48z"/><path d="m344-280h-48v48h48z"/><path d="m344-232h-48v-48h48z"/><path d="m-416-928v96z"/><path d="m-416-928v96 32 64z"/><path d="m224-928h-64z"/><path d="m-288-928v128z"/><path d="m-320-800h32-128z"/><path d="m-288-800h-32v-32-96h32z"/><path d="m-416-832h96z"/><path d="m-320-800h-96v-32h96z"/><path d="m928 416v-32-96z"/><path d="m1056 416v-96z"/><path d="m1056 64v128 96-23.1139z"/><path d="m1056-160v128 96-23.1139z"/><path d="m1056-160v-64 192z"/><path d="m1056 320h-96v-32h96z"/><path d="m960 320v96h-32v-128h32z"/><path d="m1056 320h-96z"/><path d="m0 0h96 88 40z"/><path d="m224 0h48 24z"/><path d="m1472-672v80z"/><path d="m-832 160v-80z"/><path d="m280.405-601.4053v-8.1896l8.1897-.0003v8.1899z"/><path d="m288.5947-601.4053 7.2914 7.2914h-22.7722l7.2911-7.2914z"/><path d="m640-512v224z"/><path d="m640-288v32z"/><path d="m640-224v-32z"/><path d="m0-224v-64z"/><path d="m351.4053 97.5948v-8.19l8.1896.0005v8.1896z"/><path d="m351.4053 89.4048v8.19l-7.2914 7.2912v-22.7721z"/><path d="m351.4053 97.5948 8.1896.0001 7.2912 7.2911h-22.7722z"/><path d="m359.5949 97.5949v-8.1896l7.2912-7.2914v22.7721z"/><path d="m359.5949 89.4053-8.1896-.0005-7.2914-7.2909h22.7722z"/><path d="m192.4049-889.4053v-8.1896l8.1901.0002v8.1894z"/><path d="m200.595-889.4053 7.2911 7.2914h-22.7722l7.291-7.2914z"/><path d="m-391.5949-313.4053v-8.1896l8.1899.0002v8.1894z"/><path d="m-383.405-313.4053 7.2911 7.2914h-22.7722l7.2912-7.2914z"/><path d="m1023.405-190.4049v-8.1898h8.19v8.1896z"/><path d="m1023.405-198.5947-7.2911-7.2913h22.7722l-7.2911 7.2913z"/><path d="m439.405 385.5948v-8.1895h8.1899v8.1896z"/><path d="m439.405 377.4053-7.2911-7.2913h22.7722l-7.2912 7.2913z"/><path d="m728-928h8-188.8z"/><path d="m256-928v60.8z"/><path d="m488-928h-224v8h224z"/><path d="m728-920v-8h-180.8-59.2v8z"/><path d="m736-928h-8v8 176h8z"/><path d="m736-736v-8h-8-216v8z"/><path d="m512-736v-8h-8v160h8z"/><path d="m480-584h-216-8v8h224z"/><path d="m512-576v-8h-8-24v8z"/><path d="m264-808v-112-8h-8v60.8 163.2h8z"/><path d="m256-704v120h8v-120z"/><path d="m264-808v104 120-112z"/><path d="m480-584h24-208-32z"/><path d="m488-920h-224 32 160z"/><path d="m504-744v72 88z"/><path d="m512-744h216-48-176z"/><path d="m195.2 416h-59.2-224-8 8 224z"/><path d="m-96 224v192z"/><path d="m384 124.8v163.2 120 8-8-79.114z"/><path d="m136 64h240 8-88-112-56z"/><path d="m384 124.8v-60.8h-8v8 112 104h8z"/><path d="m376 288v120h8v-120z"/><path d="m376 72v-8h-240v8z"/><path d="m136 408h-224v8h224z"/><path d="m360 408h-224v8h59.2 164.8z"/><path d="m384 416v-8h-8-16v8z"/><path d="m136 72v-8h-8v160 8h8z"/><path d="m128 232v-8h-216v8z"/><path d="m-88 408v-176-8h-8v192h8z"/><path d="m376 72v112z"/><path d="m360 408h16-80-160z"/><path d="m128 64v160z"/><path d="m-88 224h216-32-184-8z"/><path d="m-416-512v160 23.1139 22.7722 18.1139z"/><path d="m-416-736v160 64z"/><path d="m-416-736v-32-160z"/><path d="m728-744v-176z"/><path d="m264-920v112z"/><path d="m680-920h48-240z"/><path d="m680-920h-192-32v176h48 176z"/><path d="m728-744v-176h-48v176z"/><path d="m504-672v-72h-48v48 24z"/><path d="m456-744v-176h-160v224h160z"/><path d="m296-696v24h160v-24z"/><path d="m296-584h208v-88h-48-160z"/><path d="m296-920h-32v112 112h32z"/><path d="m264-696v112h32v-88-24z"/><path d="m-128-672h192 32z"/><path d="m-160-672h32z"/><path d="m-96-928h-192-32z"/><path d="m128-928h-192-32z"/><path d="m224-928h-64-32z"/><path d="m-416-288h96z"/><path d="m-160-640v-32z"/><path d="m800 128v32z"/><path d="m800 416h128z"/><path d="m1056 416v-96-32-96z"/><path d="m1056 192v-128-96z"/><path d="m1056-224v192z"/><path d="m416 416v-32-192z"/><path d="m416 192v-32z"/><path d="m416 160v-128z"/><path d="m416 416h96 128z"/><path d="m640 416h96 64z"/><path d="m768 160h32z"/><path d="m0-224v224z"/><path d="m-88 232v176z"/><path d="m376 184v112 112-120z"/><path d="m296 72h80-240z"/><path d="m136 408h-40-184z"/><path d="m376 184v-112h-80v176 48h80z"/><path d="m296 296v112h80v-112z"/><path d="m296 72h-160v160 16h160z"/><path d="m136 248v-16h-40v16z"/><path d="m136 248h-40v160h40 160v-112-48z"/><path d="m-88 232v176h184v-160-16z"/><path d="m136 72v160z"/><path d="m96 232h40-8-216z"/><path d="m1024 352h-32z"/><path d="m1024 384v-32z"/><path d="m992 352v32z"/><path d="m992 384h32z"/><path d="m-352-864v-32z"/><path d="m-352-896h-32z"/><path d="m-384-864h32z"/><path d="m-384-896v32z"/><path d="m-32-448h32z"/><path d="m64-544h16z"/><path d="m0-544h64-96z"/><path d="m64-512v-32z"/><path d="m0-512v-32h-32v96h32z"/><path d="m64-512v-32h-64v32z"/><path d="m0-448v16z"/><path d="m800-128v32z"/><path d="m800-128h-32z"/><path d="m672-64h-32z"/><path d="m640-64v-16z"/><path d="m672-64v-16z"/><path d="m576 32h-16z"/><path d="m576 0v32z"/><path d="m672-64h-32v64h32z"/><path d="m672 32v-32h-32-64v32z"/><path d="m1024-224h32-128-32z"/><path d="m1024-224h-128-96z"/><path d="m224-512h64z"/><path d="m520-512h120-128z"/><path d="m520-512h-8-216 48 24 88 24z"/><path d="m224-672h-96z"/><path d="m-320-928h64 32 128z"/><path d="m-320-928h-96z"/><path d="m-160-288h-160 32z"/><path d="m-160-608v-32 96 32z"/><path d="m-160-608v96 128-96z"/><path d="m224-672h-96v32 56h96z"/><path d="m96-640h-224v32 24h224z"/><path d="m128-584v-56h-32v56z"/><path d="m96-584h-224v40h96 96 16 16z"/><path d="m224-544v-40h-96-32v40z"/><path d="m-32-432v-16-96h-96v160h96z"/><path d="m-32-288v-96h-96-32v96z"/><path d="m-128-640v32z"/><path d="m224-544h-128-16 112z"/><path d="m128-672v13.8861 18.1139z"/><path d="m128-640h-32z"/><path d="m80-512h144z"/><path d="m-32-448v-96z"/><path d="m0-512v64z"/><path d="m64-512h-64z"/><path d="m0-432v144z"/><path d="m-128-384h-32z"/><path d="m800 32v96z"/><path d="m800-192v64 160-32z"/><path d="m800-128v32 128z"/><path d="m928 416h-32-32-64z"/><path d="m928 416h32 96z"/><path d="m640 160h-128-96z"/><path d="m768 160h-32z"/><path d="m512 128v-96h-96v128h96z"/><path d="m736 32h-64-96-16-48v96h224z"/><path d="m768 128v-96h-32v96z"/><path d="m672-128v48 16 96h64 32v-128-32z"/><path d="m672-224v96h96 32v-64-32z"/><path d="m768-96v128 96-128z"/><path d="m768-128v32z"/><path d="m640-80v-144z"/><path d="m672-80v-48-96z"/><path d="m512 32h48-48-96z"/><path d="m672 32h-96z"/><path d="m672-64v64 32z"/><path d="m576 0h64z"/><path d="m640 0v-64z"/><path d="m560 0h-144z"/><path d="m512 160v-32z"/><path d="m736 128h-224 160z"/><path d="m416 0h-64z"/><path d="m296 0h-24-48z"/><path d="m976-944v96z"/><path d="m1072-944h-96z"/><path d="m976-848h96z"/><path d="m1072-848v-96z"/><path d="m-336 336h-96z"/><path d="m-336 432v-96z"/><path d="m-432 336v96z"/><path d="m-432 432h96z"/><path d="m1568-592v-80z"/><path d="m-928 80v48 32z"/><path d="m1472-592v-80z"/><path d="m1568-672h-96z"/><path d="m1472-592h96z"/><path d="m-832 80v80z"/><path d="m-928 160h96z"/><path d="m-832 80h-96z"/><path d="m800-224h-128 96z"/><path d="m224-896v128 96-210.1139z"/><path d="m224-896v-32 160z"/><path d="m-128-672h-32z"/><path d="m-320-288h-96z"/><path d="m-32-288h-64z"/><path d="m-160-512v192 32-96z"/><path d="m224-544h-32z"/><path d="m96-544h-128-96v-96-32h224z"/><path d="m128-672h96v128h-32-96v-128z"/><path d="m-128-544h-32v-96h32z"/><path d="m-160-320v-192-32h32 96v32 192z"/><path d="m-32-288h-64-64v-32h128z"/><path d="m-32-544v32z"/><path d="m800-224v32z"/><path d="m672 160h96-32-96z"/><path d="m672-192v192 32-32z"/><path d="m672-192v-32h128v32 192h-128z"/><path d="m800 0v32h-32-96v-32z"/><path d="m768 32v96 32h-96v-128z"/><path d="m800 128h-32v-96h32z"/><path d="m640 160h-224v-128h224z"/><path d="m672 160h-32v-128h32z"/><path d="m640 32h-224z"/><path d="m296-512h-8-64z"/><path d="m640-512h-120z"/><path d="m224 0h-40-24-160z"/><path d="m0 0h160-96z"/><path d="m0 0v-224z"/><path d="m1472-672h96z"/><path d="m1552-368v80h-80v-80z"/><path d="m1440-592v-80h32v80z"/><path d="m1472-288h-32v-80h32z"/><path d="m1472-288h-32z"/><path d="m1440-672h-208-16z"/><path d="m1232-464v-32-16-32-16-32-16-32-16-16h208v80 144h-208z"/><path d="m1440-448v80 80h-208v-16-16-32-16-32-16-32z"/><path d="m1216-656v-16h16v16z"/><path d="m1216-608v-32h16v32z"/><path d="m1216-560v-32h16v32z"/><path d="m1216-512v-32h16v32z"/><path d="m1216-464v-32h16v32z"/><path d="m1216-416v-32h16v32z"/><path d="m1216-368v-32h16v32z"/><path d="m1216-320v-32h16v32z"/><path d="m1232-288h-16v-16h16z"/><path d="m640-512v32 192z"/><path d="m640-224v-32z"/><path d="m0-512v64 16z"/><path d="m0-432v144z"/><path d="m224-512h-144-16-64z"/><path d="m0-224v-64z"/><path d="m640 0h-224 144 16z"/><path d="m640 0v-64-16z"/><path d="m640-80v-144z"/><path d="m64 0h96z"/><path d="m64 0h-64z"/><path d="m-592 160h16-32z"/><path d="m-608-224h-192-32 32z"/><path d="m-800-144v-80h192 16v16 16 32 16 32 16 32 16 32 16h-208z"/><path d="m-592 0v32 16 32 16 32 16 16h-16-192v-80-80z"/><path d="m-576 160h-16v-16h16z"/><path d="m-592 128v-32h16v32z"/><path d="m-592 80v-32h16v32z"/><path d="m-592 32v-32h16v32z"/><path d="m-592-16v-32h16v32z"/><path d="m-592-64v-32h16v32z"/><path d="m-592-112v-32h16v32z"/><path d="m-592-160v-32h16v32z"/><path d="m-592-208v-16h16v16z"/><path d="m-832-224h32v80h-32z"/><path d="m-800 160h-32v-80h32z"/><path d="m-832 160h-96z"/><path d="m-912-144v-80h80v80z"/><path d="m368-512h-24z"/><path d="m368-512h88z"/><path d="m480-512h160-120z"/><path d="m344-512v45.037 2.963z"/><path d="m456-512v45.037 18.963z"/><path d="m184 0h88 24-136z"/><path d="m272 0h-88 40z"/><path d="m-576-224v16z"/><path d="m1440-672h32z"/><path d="m1472-672h-32z"/><path d="m1472-288h-32z"/><path d="m1216-288v-16z"/><path d="m1216-672h64 160z"/><path d="m1440-288h-224 16z"/><path d="m1440-288h-208-16z"/><path d="m1056-224h-32z"/><path d="m-416-288v-160-64z"/><path d="m-416-512v-160-64z"/><path d="m224-768v64 32 128-128z"/><path d="m644-288h12 144-128-16-12-4z"/><path d="m800-480v-32-32 128z"/><path d="m1024-672h-64-32-128z"/><path d="m1056-672v32 32z"/><path d="m960-384h-32z"/><path d="m1040-448v-128-80-16h16v64 160z"/><path d="m1056-384h-16v-64h16z"/><path d="m960-656v-16h64 16v16z"/><path d="m1024-384h-32-32v-64-128h80v128 64z"/><path d="m960-672v16 80 128h-32v-96-128z"/><path d="m960-448v64h-32v-32-32z"/><path d="m800-544v-128h128v128z"/><path d="m896-384v-32h32v32z"/><path d="m800-416h96v32 96h-96z"/><path d="m672-512v-64h16 80v64z"/><path d="m672-576v-96h16v16 80z"/><path d="m688-656v-16h80v16z"/><path d="m768-576v-80-16h32v128 32h-32z"/><path d="m800-672h-32-80-16z"/><path d="m800-512v32h-32v-32z"/><path d="m672-480v-32h96v32z"/><path d="m656-480h-12-4v-32h32v32z"/><path d="m656-320v-16-32-16-32-16-32-16h16 96 32v64 128h-144z"/><path d="m640-480h4v16 32 16 32 16 32 16 32h-4z"/><path d="m644-384v-32h12v32z"/><path d="m644-432v-32h12v32z"/><path d="m656-288h-12v-32h12z"/><path d="m644-336v-32h12v32z"/><path d="m640-288v32z"/><path d="m640-256v32z"/><path d="m-96-928h64 160z"/><path d="m128-928h64 32z"/><path d="m-256-928h-64z"/><path d="m-416-928h96z"/><path d="m-320-672v-64h-96v64z"/><path d="m-224-928h-32v160 32h32z"/><path d="m-320-736h64v-32h-160v32z"/><path d="m-32-928h-64-128v192h96 96z"/><path d="m-32-704v-32h-96v64h96z"/><path d="m-160-672h32v-64h-96-32-64v64z"/><path d="m192-928h-64-160v192 32h224z"/><path d="m-32-704v32h224v-32z"/><path d="m224-768v-160h-32v224h32z"/><path d="m192-704v32h32v-32z"/><path d="m-256-768h-160z"/><path d="m-256-768v-160z"/><path d="m-96-288h-64-160 160z"/><path d="m-160-672v32z"/><path d="m192-544h-224 128z"/><path d="m-128-640h-32v96h128v-96z"/><path d="m-128-672v32h96v-32z"/><path d="m-32-672v32 96h224v-128z"/><path d="m192-544h32v-128h-32z"/><path d="m-128-672v32z"/><path d="m-128-640h-32z"/><path d="m-160-544v32h128v-32z"/><path d="m-96-288h64v-224h-128v224z"/><path d="m-32-512v224-32z"/><path d="m-160-512v-32-96-32h-160v160z"/><path d="m-160-512h-160v64 160h160z"/><path d="m-320-448v-64-160h-96v160 64z"/><path d="m-416-288h96v-160h-96z"/><path d="m800 160v-32z"/><path d="m896 416h32z"/><path d="m1056 416h-128z"/><path d="m864 224h-64v192h64z"/><path d="m896 256v-32h-32v192h32z"/><path d="m1056 256v-32h-32-128v32z"/><path d="m1024-224h-224v224h224z"/><path d="m800 0v128 32 64h64 32 128v-224z"/><path d="m1056 0v-32-192h-32v224z"/><path d="m1056 224v-32-192h-32v224z"/><path d="m896 256v160z"/><path d="m1056 192v32 32 160z"/><path d="m1056-32v32 192z"/><path d="m416 32v128z"/><path d="m640 416h-224z"/><path d="m800 416h-128-32z"/><path d="m672-224v32z"/><path d="m800 0v-224h-32v224z"/><path d="m768 128h32v-128h-32z"/><path d="m768 0v-224h-96v32 192z"/><path d="m768 160v-32-128h-96v32 128z"/><path d="m768 128h32z"/><path d="m768 160v-32z"/><path d="m640 32h-224v128h224z"/><path d="m672 160v-128h-32v128z"/><path d="m672 32h-32z"/><path d="m800 224h-32-96v160 32h128z"/><path d="m672 224h96v-64h-96z"/><path d="m768 160v64h32v-64z"/><path d="m640 160h-224v32 192h224z"/><path d="m416 384v32h224v-32z"/><path d="m672 384v-160-64h-32v224z"/><path d="m672 416v-32h-32v32z"/><path d="m-16 0h12 4-4-12-16z"/><path d="m-4 0h-12v-32h12z"/><path d="m-16-48v-32h12v32z"/><path d="m-16-144v-32h12v32z"/><path d="m-16-96v-32h12v32z"/><path d="m-16-192v-32h12v32z"/><path d="m0 0h-4v-32-16-32-16-32-16-32-16-32h4z"/><path d="m-160-96v-128h112v224h-112z"/><path d="m-48-224h16 16v32 16 32 16 32 16 32 16 32h-16-16z"/><path d="m-128 144v16h-32v-96h32z"/><path d="m-48 144h16v16h-96v-16z"/><path d="m-48 64v-64h16v144h-16z"/><path d="m-48 0v64h-80-32v-32-32z"/><path d="m-128 160h96-128z"/><path d="m-288-96v128z"/><path d="m-256-128v-96h96v128h-96z"/><path d="m-288-96v-32h32v32z"/><path d="m-320-128h32v32 128h-32z"/><path d="m-192 160h-128v-16-80-32h32 128v32 96z"/><path d="m-320 144v16h-80v-16z"/><path d="m-416 96v-160-64h16v192 32z"/><path d="m-400 144v16h-16v-64h16z"/><path d="m-384-128h32 32v160 32h-80v-192z"/><path d="m-416-64v160 64-32-96z"/><path d="m-608 160h-192-32 32z"/><path d="m-608 160h32-64-160z"/><path d="m-800 160h-32z"/><path d="m-576-224h-16-16z"/><path d="m-800-224h-32z"/><path d="m960 416h32v-96h-32z"/><path d="m1024 416h32v-64h-32z"/><path d="m992 416h32v-32h-32z"/><path d="m1056 352v-32h-64v32z"/><path d="m960 416v-96z"/><path d="m960 416h96z"/><path d="m-16 0h12v-32h-12z"/><path d="m-4 0h-12z"/><path d="m-16-32h12z"/><path d="m-16 0v-32z"/><path d="m-4-32v32z"/><path d="m-16-48h12v-32h-12z"/><path d="m-16-80h12z"/><path d="m-4-48h-12z"/><path d="m-16-48v-32z"/><path d="m-4-80v32z"/><path d="m-16-96h12v-32h-12z"/><path d="m-16-128h12z"/><path d="m-4-96h-12z"/><path d="m-16-96v-32z"/><path d="m-4-128v32z"/><path d="m-16-144h12v-32h-12z"/><path d="m-4-144h-12z"/><path d="m-16-176h12z"/><path d="m-16-144v-32z"/><path d="m-4-176v32z"/><path d="m-16-192h12v-32h-12z"/><path d="m-16-224h12z"/><path d="m-4-192h-12z"/><path d="m-16-192v-32z"/><path d="m-4-224v32z"/><path d="m-320-928h-32v96h32z"/><path d="m-384-928h-32v64h32z"/><path d="m-352-928h-32v32h32z"/><path d="m-416-864v32h64v-32z"/><path d="m-320-928h-96z"/><path d="m-320-928v96z"/><path d="m656-512h-12v32h12z"/><path d="m644-512h12z"/><path d="m656-480h-12z"/><path d="m656-512v32z"/><path d="m644-480v-32z"/><path d="m656-464h-12v32h12z"/><path d="m656-432h-12z"/><path d="m644-464h12z"/><path d="m656-464v32z"/><path d="m644-432v-32z"/><path d="m656-416h-12v32h12z"/><path d="m656-384h-12z"/><path d="m644-416h12z"/><path d="m656-416v32z"/><path d="m644-384v-32z"/><path d="m656-368h-12v32h12z"/><path d="m644-368h12z"/><path d="m656-336h-12z"/><path d="m656-368v32z"/><path d="m644-336v-32z"/><path d="m656-320h-12v32h12z"/><path d="m656-288h-12z"/><path d="m644-320h12z"/><path d="m656-320v32z"/><path d="m644-288v-32z"/><path d="m480-464v-2.963-45.037z"/><path d="m344-464v16h24v-64h-24z"/><path d="m-256-224h-32z"/><path d="m896-288h-96z"/><path d="m896-288h32z"/><path d="m928-544v96 32z"/><path d="m800-544h128z"/><path d="m928-416h-32-96z"/><path d="m800-544h128v128h-128z"/><path d="m896-288v-96z"/><path d="m896-384h32z"/><path d="m928-288h-32v-96h32z"/><path d="m344-512h-48z"/><path d="m640-512h4 28z"/><path d="m480-512h160-160-24z"/><path d="m480-464v16z"/><path d="m344-448v-16z"/><path d="m344-464v-2.963-45.037z"/><path d="m368-512h-24v45.037h24z"/><path d="m456-466.963v-45.037h-88v45.037 18.963h88z"/><path d="m480-512h-24v45.037h24z"/><path d="m456-466.963v-45.037h24v45.037z"/><path d="m456-448h24v-16-48h-24z"/><path d="m368-448v-18.963-45.037z"/><path d="m344-466.963v-45.037h24v45.037z"/><path d="m-160-96v96 32z"/><path d="m272-16h24v-29.037h-24z"/><path d="m184-45.037v29.037h88v-29.037-18.963h-88z"/><path d="m160-45.037v29.037h24v-29.037z"/><path d="m296 0v-16h-24-88-24v16z"/><path d="m160-16v-29.037-18.963 64z"/><path d="m184-64h88 24-8-8-24-8-32-8-32-8-8z"/><path d="m184-45.037v-18.963 64z"/><path d="m296-64v64-45.037z"/><path d="m272-64v18.963 45.037z"/><path d="m272-45.037h24v45.037h-24z"/><path d="m296-64h-24v64h24z"/><path d="m160-64v18.963 45.037z"/><path d="m160-45.037h24v45.037h-24z"/><path d="m184-64h-24v64h24z"/><path d="m-160 32h-128z"/><path d="m-288-96h32 96z"/><path d="m-256-224v96z"/><path d="m-256-128h-32z"/><path d="m-256-128h-32v-96h32z"/><path d="m-288-96h128v128h-128z"/><path d="m-144-216h64v-8h-64z"/><path d="m-80-224v8z"/><path d="m-144-216v-8z"/><path d="m-144-224h64z"/><path d="m-80-216h-64z"/><path d="m784-296h-64v8h64z"/><path d="m720-288v-8z"/><path d="m784-296v8z"/><path d="m784-288h-64z"/><path d="m720-296h64z"/><path d="m-320-1088h-128-96 96z"/><path d="m-96-1088h-224z"/><path d="m128-1088h-224z"/><path d="m352-1088h-128-96z"/><path d="m576-1088h-128-96 64 128z"/><path d="m800-1088h-128-96 192z"/><path d="m1024-1088h-80-48-96 32z"/><path d="m-320 576h96 64-32z"/><path d="m1152 576h32-64-160z"/><path d="m1216-1042.114v-22.7721-23.1139 80z"/><path d="m-448-768v32z"/><path d="m32 448h-192-32z"/><path d="m448 448h-224z"/><path d="m672 448h-224z"/><path d="m1088 32v192 32-32z"/><path d="m1088-192v192 32-32z"/><path d="m1104-976h-16z"/><path d="m1216-1088v23.1139h-16.1139-22.7722-89.1139v-23.1139z"/><path d="m1177.1139-1064.8861v22.7721h-89.1139v-22.7721z"/><path d="m1199.8861-1064.8861h16.1139v22.7721h-16.1139z"/><path d="m1177.1139-1042.114h22.7722 16.1139v34.114 32h-112-16v-66.114z"/><path d="m1199.8861-1064.8861-7.2914 7.2911h-8.1897l-7.2911-7.2911z"/><path d="m1199.8861-1042.114-7.2914-7.2913v-8.1897l7.2914-7.2911z"/><path d="m1177.1139-1064.8861 7.2911 7.2911v8.1897l-7.2911 7.2913z"/><path d="m1104-976h112v160h-64-48z"/><path d="m1216-784v80h-64v-64-16-32h64z"/><path d="m1104-816h48v32h-64v-32z"/><path d="m1152-704h64z"/><path d="m1184 416v32h-32-64v-32z"/><path d="m1184 256v160h-96v-160z"/><path d="m1088-192v-32h96v224h-96z"/><path d="m1184 0v224h-96v-192-32z"/><path d="m1184 224v32h-96v-32z"/><path d="m1184-224v224z"/><path d="m224-960h192-64-160z"/><path d="m832-960h-64z"/><path d="m944-960v-16z"/><path d="m944-1088h80 64v23.1139 22.7721 66.114h-144z"/><path d="m-448-1088h128v45.886 82.114h-96-32z"/><path d="m-320-1042.114h64v82.114h-64z"/><path d="m-32-960h-224v-82.114h160 64z"/><path d="m192-960h-224v-82.114h160 64z"/><path d="m224-1042.114v82.114h-32v-82.114z"/><path d="m-96-1042.114h-160-64v-45.886h224z"/><path d="m128-1042.114h-160-64v-45.886h224z"/><path d="m224-1088v45.886h-32-64v-45.886z"/><path d="m448-960h-32-192v-82.114-45.886h128 96z"/><path d="m672-960h-128-96v-128h128 96z"/><path d="m896-960h-64-64-96v-128h128 96z"/><path d="m944-1088v112 16h-48v-128z"/><path d="m-96-224h-160-32-32 192z"/><path d="m-96-224h64-16-112-96z"/><path d="m-416-928v160z"/><path d="m944-288h16z"/><path d="m1088-816h-144z"/><path d="m1024-784h-80z"/><path d="m1088-784h-64-80v-16-16h144z"/><path d="m912-800h-16-64z"/><path d="m832-928v-32h64 48v144 16h-32-80z"/><path d="m944-800v16h-32v-16z"/><path d="m928-288v-96z"/><path d="m960-384v96h-16-16v-96z"/><path d="m768-928h-192-32 32z"/><path d="m480-928h-64v-32h32 96v32z"/><path d="m640-512h-160z"/><path d="m800-704h-224z"/><path d="m576-704v-178.1139h185.114 22.772 16.114v178.1139z"/><path d="m783.886-904.8861h16.114v22.7722h-16.114z"/><path d="m783.886-904.8861h-22.772-185.114v-23.1139h192 32v23.1139z"/><path d="m576-882.1139v-22.7722h185.114v22.7722z"/><path d="m783.886-882.1139-7.291-7.2914v-8.1894l7.291-7.2914z"/><path d="m783.886-904.8861-7.291 7.2914-8.1899-.0002-7.2911-7.2912z"/><path d="m761.114-904.8861 7.2911 7.2912v8.1896l-7.2911 7.2914z"/><path d="m368-544h-112z"/><path d="m256-768v64 160-160z"/><path d="m256-704v-64-160h160 64v224z"/><path d="m480-544h-24-88-112v-160h224z"/><path d="m544-928h32v23.1139 22.7722 178.1139h-96v-224z"/><path d="m576-704v160h-96v-160z"/><path d="m456-512h-88v-32h88z"/><path d="m480-464v-48 45.037z"/><path d="m472-456v-8-32-8-8h8v48 16h-8z"/><path d="m368-512h88 8v8 8 32h-24-8-32-8-32v-32-8-8z"/><path d="m464-504v-8h8v8z"/><path d="m464-464v-32h8v32z"/><path d="m344-464v-48h8v8 8 32 8 8h-8z"/><path d="m352-504v-8h8v8z"/><path d="m352-464v-32h8v32z"/><path d="m472-448h-8v-8h8z"/><path d="m440-448v-8-8h24v8 8z"/><path d="m432-456v8h-32v-8-8h32z"/><path d="m360-448h-8v-8h8z"/><path d="m400-448h-8v-8h8z"/><path d="m392-464v8 8h-32v-8-8z"/><path d="m440-448h-8v-8h8z"/><path d="m352-448h8 32 8 32 8 24 8 8-24-88-24z"/><path d="m-256-960v32h-64v-32z"/><path d="m-320-960v32h-96v-32z"/><path d="m-256-768h-64-96z"/><path d="m-256-928v-32 192z"/><path d="m-448-768v-96-64h32v160z"/><path d="m-416-928h-32v-32h32z"/><path d="m1088 416h-32v-160h32z"/><path d="m1088 448h-160v-32h128 32z"/><path d="m896 448v-32h32v32z"/><path d="m1056 256h-160z"/><path d="m1056 416v-160z"/><path d="m640 0h-224z"/><path d="m288 416h96-88-72z"/><path d="m96 416h-32z"/><path d="m416 0h-120 56z"/><path d="m160 0h8 8 8-8-8-8-96z"/><path d="m296-64v18.963 29.037 16z"/><path d="m288-8v-8-32-8-8h8v64h-8z"/><path d="m208-64v8 8 32h-32v-32-8-8z"/><path d="m160-64h8v8 8 32 8 8h-8z"/><path d="m168-56v-8h8v8z"/><path d="m208-56v-8h8v8z"/><path d="m248-56v-8h8v8z"/><path d="m280-16v-32h8v32z"/><path d="m280-56v-8h8v8z"/><path d="m248-16v-32h8v32z"/><path d="m208-16v-32h8v32z"/><path d="m168-16v-32h8v32z"/><path d="m216-16v-32-8-8h32v8 8 32z"/><path d="m256-16v-32-8-8h24v8 8 32z"/><path d="m208-16h8 32 8 24v8 8h-8-88-8v-8-8z"/><path d="m288 0h-8v-8h8z"/><path d="m176 0h-8v-8h8z"/><path d="m384 32v160z"/><path d="m272 32h-88v-32h88z"/><path d="m64 256v-64-160h120 88 16v224z"/><path d="m288 416h-64-128-32v-23.1139-22.7721-114.114h224z"/><path d="m384 32v160 64h-96v-224z"/><path d="m384 256v160h-96v-160z"/><path d="m-160 192h224z"/><path d="m64 192v64 114.114h-185.1139-22.7722-16.1139v-178.114z"/><path d="m-160 392.886v-22.772h16.1139v22.772z"/><path d="m-143.8861 392.886h22.7722l185.1139.0001v23.1139h-224v-23.114z"/><path d="m64 370.114v22.7721l-185.1139-.0001v-22.772z"/><path d="m-143.8861 392.886 7.2912-7.2912 8.1897.0001 7.2913 7.2911z"/><path d="m-143.8861 370.114 7.2912 7.2913v8.1895l-7.2912 7.2912z"/><path d="m-121.1139 392.886-7.2913-7.2911v-8.1896l7.2913-7.2913z"/><path d="m96 448v-32h128v32z"/><path d="m-288-128h-32v-96h32z"/><path d="m-288-224v96z"/><path d="m-320-128h32z"/><path d="m-192 304v-16z"/><path d="m-192 304v144z"/><path d="m-304 304h-16-128z"/><path d="m-384 272h64 48v16 16h-32-144v-32z"/><path d="m-256 288h64v16h-80v-16z"/><path d="m-304 304h32 80v144h-112z"/><path d="m-224 552.8861h-224v-88.8861h144 80z"/><path d="m-192 464h32v88.8861h-64v-88.8861z"/><path d="m-192 448h32v16h-32z"/><path d="m64 552.886h-64l-160 .0001v-88.8861-16h192 32z"/><path d="m96 552.886h-32v-104.886h32z"/><path d="m-192 448v16h-32-80v-16z"/><path d="m-224 576h-96-32-96v-23.1139h224z"/><path d="m0 576h-160-64v-23.1139h64l160-.0001z"/><path d="m64 552.886h32l128 .0001v23.1139h-160-64v-23.114z"/><path d="m224 552.8861-128-.0001v-104.886h128z"/><path d="m448 576h-160-64v-23.1139-104.8861h224z"/><path d="m672 576h-160-64v-128h224z"/><path d="m896 576h-160-64v-128h224z"/><path d="m928 448v128h-32v-128z"/><path d="m1152 576h-192-32v-128h160 64z"/><path d="m1184 448v128h-32v-128z"/><path d="m-304 448v16z"/><path d="m-544-960v-128h96v128 32 64h-96z"/><path d="m-448-864v96 32 96h-96v-96-128z"/><path d="m-448-640v128 96h-96v-96-128z"/><path d="m-448-416v128h-96v-128z"/><path d="m-544-512v96 128-128z"/><path d="m-544-736v96 128-128z"/><path d="m-544-960v96 128-128z"/><path d="m-448 272h-16-48z"/><path d="m-512 192h-64z"/><path d="m-576 192h64v64 16h-64z"/><path d="m-537.1139 552.8861v-22.7721h73.1139v22.7721z"/><path d="m-576 552.8861v-22.7721h16.1139v22.7721z"/><path d="m-576 432v-160h64 48v32 160 32h-112z"/><path d="m-464 496v34.114h-73.1139-22.7722-16.1139v-34.114z"/><path d="m-448 552.8861h-16v-22.7721-34.114-32h16z"/><path d="m-448 304h-16v-32h16z"/><path d="m-448 576h-128v-23.1139h16.1139 111.8861z"/><path d="m-448 464h-16z"/><path d="m-464 304v16 144z"/><path d="m-559.8861 552.8861 7.2914-7.291 8.1898-.0001 7.291 7.2911z"/><path d="m-559.8861 530.114 7.2914 7.2913v8.1898l-7.2914 7.291z"/><path d="m-537.1139 552.8861-7.291-7.2911v-8.1897l7.291-7.2913z"/><path d="m960 320h96z"/><path d="m1056 320v96z"/><path d="m960 416v-96h96v96z"/><path d="m1088 96h96v-16h-96z"/><path d="m1088 96v-16z"/><path d="m1184 80v16z"/><path d="m1088 80h96z"/><path d="m1184 96h-96z"/><path d="m-576 272h64v-16h-64z"/><path d="m-576 272v-16z"/><path d="m-512 256v16z"/><path d="m-512 272h-64z"/><path d="m-576 256h64z"/><path d="m-320-832h-96z"/><path d="m-416-832v-96z"/><path d="m-320-928v96h-96v-96z"/><path d="m-448-608h-96v16h96z"/><path d="m-448-608v16z"/><path d="m-544-592v-16z"/><path d="m-448-592h-96z"/><path d="m-544-608h96z"/><path d="m1216-784h-64v16h64z"/><path d="m1152-768v-16z"/><path d="m1216-784v16z"/><path d="m1152-784h64z"/><path d="m1216-768h-64z"/><path d="m400-496h32z"/><path d="m432-496v32z"/><path d="m432-464h-32z"/><path d="m400-464v-32z"/><path d="m432-496h-32v32h32z"/><path d="m248-16h-32z"/><path d="m216-16v-32z"/><path d="m216-48h32z"/><path d="m248-48v32z"/><path d="m248-48h-32v32h32z"/><path d="m432-464h-32v-32h32z"/><path d="m248-16h-32v-32h32z"/><path d="m-160 576h-32z"/><path d="m-448 320v112 16z"/><path d="m1104-816h-16z"/><path d="m1104-976v160z"/><path d="m1088-832v-128-16h16v160h-16z"/><path d="m944-976h16v16h-16z"/><path d="m1088-960h-128v-16h128z"/><path d="m1088-976h-128-16z"/><path d="m-128-224h-192-32 32z"/><path d="m-32-224h-64z"/><path d="m944-288h-48-96 96 32z"/><path d="m944-288h16 32z"/><path d="m832-800v-128z"/><path d="m944-832v16-144z"/><path d="m960-960v128h-16v-128z"/><path d="m976-848h96v-96h-96z"/><path d="m976-944h96v96h-96z"/><path d="m976-848v-96z"/><path d="m1072-944v96z"/><path d="m960-960v128z"/><path d="m976-848v-96z"/><path d="m976-944h96z"/><path d="m1072-848h-96z"/><path d="m1072-944v96z"/><path d="m960-832h128v16h-144v-16z"/><path d="m896-704h-64v-96h64z"/><path d="m992-384h-32z"/><path d="m960-288v-96z"/><path d="m992-288h-32v-96h32z"/><path d="m-320-224v96z"/><path d="m-352-128h32z"/><path d="m-320-128h-32v-96h32z"/><path d="m-192 288v-96z"/><path d="m-256 288h64z"/><path d="m-192 288h-64v-96h64z"/><path d="m-256 288h-16z"/><path d="m-320 320v-16h16v144h-16z"/><path d="m-320 304v16h-128v-16z"/><path d="m-336 432h-96v-96h96z"/><path d="m-336 336h-96v96h96z"/><path d="m-320 448v-16-112z"/><path d="m-320 320h-16-96-16z"/><path d="m-336 336v96z"/><path d="m-432 432v-96z"/><path d="m-304 304v144z"/><path d="m-432 336h96z"/><path d="m-336 336v96z"/><path d="m-432 432v-96z"/><path d="m-336 432h-96z"/><path d="m-320 464h-128v-16h128z"/><path d="m-304 448v16h-16v-16z"/><path d="m-320 464h16-144z"/><path d="m-448 320h-16v-16h16z"/><path d="m-464 320h16v128 16h-16z"/><path d="m-448 304h-16z"/><path d="m1568-672v80z"/><path d="m-928 160v-80z"/><path d="m1568-592h-96z"/><path d="m1568-672h-96v80h96z"/><path d="m1440-672v16 64z"/><path d="m1440-592v80 144-80z"/><path d="m1472-672h-32v80h32z"/><path d="m1472-592h-32z"/><path d="m-800 80v-144-80 144z"/><path d="m-800 80h-32v80h32z"/><path d="m-832 80h32z"/><path d="m-832 80h-96v80h96z"/><path d="m-928 80h96z"/><path d="m1472-368v80z"/><path d="m-832-144v-80z"/><path d="m-576 144v16z"/><path d="m1440-368h32z"/><path d="m1472-368h-32v80h32z"/><path d="m1216-656v-16z"/><path d="m1440-672h-160z"/><path d="m1232-656h48z"/><path d="m1232-656h-16z"/><path d="m1232-656h48v-16h-64v16z"/><path d="m-320 448h-128z"/><path d="m1088-960v128z"/><path d="m1072-960h-96-16 128z"/><path d="m-96-224h64-64-32z"/><path d="m-96-224h-32-192 128z"/><path d="m992-288h32z"/><path d="m896-704h-64z"/><path d="m832-704v-96z"/><path d="m1072-944h-96v-16h96z"/><path d="m960-960h16v16 96 16h-16z"/><path d="m1072-848v-96-16h16v128h-16z"/><path d="m976-832v-16h96v16z"/><path d="m960-768v64h-16-48v-64z"/><path d="m912-784h-16v-16h16z"/><path d="m912-784h32 80-64-64z"/><path d="m976-832h96 16-128z"/><path d="m1072-944h-96z"/><path d="m976-848h96z"/><path d="m1024-784h64z"/><path d="m896-800h16z"/><path d="m896-784v16 64-96z"/><path d="m912-784v-16z"/><path d="m944-784h-32z"/><path d="m1024-384h-32z"/><path d="m992-288v-96z"/><path d="m1024-288h-32v-96h32z"/><path d="m-384-128h32z"/><path d="m-352-224v96z"/><path d="m-352-128h-32v-96h32z"/><path d="m-256 192h64z"/><path d="m-256 272v-16-64 96z"/><path d="m-256 256h-64v-64h64z"/><path d="m-272 272v16z"/><path d="m-256 288h-16v-16h16z"/><path d="m-432 432h96z"/><path d="m-336 432v-96-16h16v112z"/><path d="m-336 336h-96z"/><path d="m-336 336h-96v-16h96z"/><path d="m-448 320h16v16 96h-16z"/><path d="m-448 448v-16h16 96 16v16z"/><path d="m-800 160h160z"/><path d="m-592 144h-48z"/><path d="m-592 144h16z"/><path d="m-592 144h-48v16h64v-16z"/><path d="m-800-144h-32z"/><path d="m-800-224h-32v80h32z"/><path d="m-576-192v32z"/><path d="m-576-144v32z"/><path d="m-576-96v32z"/><path d="m-576-16v-32z"/><path d="m-576 32v-32z"/><path d="m-576-48v32z"/><path d="m-576 0v32z"/><path d="m-576 80v-32z"/><path d="m-576 128v-32z"/><path d="m-576 48v32z"/><path d="m-576 96v32z"/><path d="m1440-592v-64-16 160z"/><path d="m1440-288v-80z"/><path d="m1216-640v32z"/><path d="m1216-592v32z"/><path d="m1216-608v-32z"/><path d="m1216-560v-32z"/><path d="m1216-544v32z"/><path d="m1216-496v32z"/><path d="m1216-512v-32z"/><path d="m1216-464v-32z"/><path d="m1216-416v-32z"/><path d="m1216-368v-32z"/><path d="m1216-320v-32z"/><path d="m1440-672h-160v16h160z"/><path d="m1280-656v-16h160v16z"/><path d="m1440-288v-80-144-80-64h-160-48v16 32 16 32 16 32 16 32 16 32 16 32 16 32 16 16z"/><path d="m1280-656h160v64 80 144 80h-208v-16-16-32-16-32-16-32-16-32-16-32-16-32-16-32-16z"/><path d="m1232-608v-32h-16v32z"/><path d="m1216-608v-32h16v32z"/><path d="m1216-560v-32h16v32z"/><path d="m1232-560v-32h-16v32z"/><path d="m1232-512v-32h-16v32z"/><path d="m1216-512v-32h16v32z"/><path d="m1216-464v-32h16v32z"/><path d="m1232-464v-32h-16v32z"/><path d="m1232-416v-32h-16v32z"/><path d="m1216-416v-32h16v32z"/><path d="m1216-368v-32h16v32z"/><path d="m1232-368v-32h-16v32z"/><path d="m1232-304h-16v16h16z"/><path d="m1232-288h-16v-16h16z"/><path d="m1216-320v-32h16v32z"/><path d="m1232-320v-32h-16v32z"/><path d="m1232-656h16 32z"/><path d="m1232-608v16z"/><path d="m1232-560v16z"/><path d="m1232-512v16z"/><path d="m1232-464v16z"/><path d="m1232-416v16z"/><path d="m1232-368v16z"/><path d="m1232-320v16z"/><path d="m1232-464h-16z"/><path d="m1280-672v16z"/><path d="m1232-560h-16z"/><path d="m1232-608h-16z"/><path d="m1216-640h16z"/><path d="m1232-640v-16z"/><path d="m1232-592v-16z"/><path d="m1216-592h16z"/><path d="m1232-512h-16z"/><path d="m1232-544v-16z"/><path d="m1216-544h16z"/><path d="m1232-496v-16z"/><path d="m1216-496h16z"/><path d="m1232-304v-16z"/><path d="m1232-400v-16z"/><path d="m1232-448v-16z"/><path d="m1232-352v-16z"/><path d="m1232-368h-16z"/><path d="m1232-416h-16z"/><path d="m1216-448h16z"/><path d="m1216-400h16z"/><path d="m1232-320h-16z"/><path d="m1216-352h16z"/><path d="m1216-304h16z"/><path d="m-384-224h-32z"/><path d="m-384-224h64-32z"/><path d="m992-288h32 32z"/><path d="m960-704h-16z"/><path d="m960-784v16h-64v-16z"/><path d="m1024-704h-64v-64h64z"/><path d="m1024-784h64-64-64z"/><path d="m1024-784h64z"/><path d="m896-768v-16z"/><path d="m960-704v-64z"/><path d="m960-768h-64z"/><path d="m1056-288h-32v-96h32z"/><path d="m1040-576h-80v-80h80z"/><path d="m1056-384h-32 16z"/><path d="m960-576v-80z"/><path d="m1040-656v80z"/><path d="m1040-576h-80z"/><path d="m960-656h80z"/><path d="m1024-288v-96z"/><path d="m768-656v80z"/><path d="m688-576v-80z"/><path d="m768-576h-80v-80h80z"/><path d="m768-576h-80z"/><path d="m688-656h80z"/><path d="m-128 144v-80z"/><path d="m-48 64v80z"/><path d="m-48 144h-80v-80h80z"/><path d="m-128 64h80z"/><path d="m-48 144h-80z"/><path d="m-320 64v80z"/><path d="m-416-128h32-16z"/><path d="m-384-224v96z"/><path d="m-384-128h-32v-96h32z"/><path d="m-400 144v-48-32z"/><path d="m-400 64h80z"/><path d="m-320 144h-80v-80h80z"/><path d="m-320 144h-80z"/><path d="m-320 192h96 32-64z"/><path d="m-320 192v64z"/><path d="m-256 256v16z"/><path d="m-320 256h64z"/><path d="m-256 272h-16-48v-16h64z"/><path d="m-272 272h16z"/><path d="m-320 272h48z"/><path d="m-320 256h-64v-64h64z"/><path d="m-320 272h-64z"/><path d="m-640-224h48 16-32-192z"/><path d="m-592-192v32h16v-32z"/><path d="m-576-192v32h-16v-32z"/><path d="m-592-224h16v16h-16z"/><path d="m-592-208h16v-16h-16z"/><path d="m-592-144v32h16v-32z"/><path d="m-576-144v32h-16v-32z"/><path d="m-576-96v32h-16v-32z"/><path d="m-592-96v32h16v-32z"/><path d="m-592-48v32h16v-32z"/><path d="m-576-48v32h-16v-32z"/><path d="m-576 0v32h-16v-32z"/><path d="m-592 0v32h16v-32z"/><path d="m-592 48v32h16v-32z"/><path d="m-576 48v32h-16v-32z"/><path d="m-576 96v32h-16v-32z"/><path d="m-592 96v32h16v-32z"/><path d="m-640-224v368h48v-16-32-16-32-16-32-16-32-16-32-16-32-16-32-16-16z"/><path d="m-640 144v-368h48v16 16 32 16 32 16 32 16 32 16 32 16 32 16 32 16z"/><path d="m-800 80v-144-80-80h160v368 16h-160z"/><path d="m-640 144v-368h-160v80 80 144 80h160z"/><path d="m-592-192v-16z"/><path d="m-592-144v-16z"/><path d="m-592-96v-16z"/><path d="m-592-48v-16z"/><path d="m-592 0v-16z"/><path d="m-592 48v-16z"/><path d="m-592 96v-16z"/><path d="m-592 144h-16-32z"/><path d="m-800-64v144 80-160z"/><path d="m-800-224v80z"/><path d="m-800 80v80z"/><path d="m-592-48h16z"/><path d="m-592-160v16z"/><path d="m-592-64v16z"/><path d="m-592-112v16z"/><path d="m-592-208v16z"/><path d="m-592-144h16z"/><path d="m-592-192h16z"/><path d="m-576-208h-16z"/><path d="m-576-160h-16z"/><path d="m-592-96h16z"/><path d="m-576-112h-16z"/><path d="m-576-64h-16z"/><path d="m-640 160v-16z"/><path d="m-592 48h16z"/><path d="m-592 0h16z"/><path d="m-592-16v16z"/><path d="m-576-16h-16z"/><path d="m-592 32v16z"/><path d="m-576 32h-16z"/><path d="m-592 96h16z"/><path d="m-592 80v16z"/><path d="m-576 80h-16z"/><path d="m-576 128h-16z"/><path d="m-592 128v16z"/><path d="m-80-216h-64v-8h64z"/><path d="m784-288h-64v-8h64z"/><path d="m-576 576h128 96z"/><path d="m-352 576h32z"/><path d="m-320 576h128z"/><path d="m1280-672h160z"/><path d="m1280-672v16z"/><path d="m1280-656h-32v-16h32z"/><path d="m1184.405-1049.4053v-8.1897h8.1897v8.1897z"/><path d="m1192.5947-1049.4053 7.2914 7.2913h-22.7722l7.2911-7.2913z"/><path d="m-320-224h-64-32-32 32z"/><path d="m944-704h80 64z"/><path d="m1024-704h-80 16z"/><path d="m960-768v-16z"/><path d="m1024-768h-64z"/><path d="m1024-768h-64v-16h64z"/><path d="m1024-704v-64z"/><path d="m1088-704h-64v-64h64z"/><path d="m1056-288v-96z"/><path d="m1088-288h-32v-96h32z"/><path d="m768.4051-889.4053v-8.1896l8.1899.0002v8.1894z"/><path d="m776.595-889.4053 7.291 7.2914h-22.772l7.2911-7.2914z"/><path d="m-136.5949 385.5948v-8.1895h8.1897v8.1896z"/><path d="m-136.5949 377.4053-7.2912-7.2913h22.7722l-7.2913 7.2913z"/><path d="m-416-128h-32v-96h32z"/><path d="m-416-224v96z"/><path d="m-320 192h-64-64z"/><path d="m-384 192h64z"/><path d="m-320 256v16z"/><path d="m-384 192v64z"/><path d="m-384 256h64z"/><path d="m-320 272h-64v-16h64z"/><path d="m-384 256h-64v-64h64z"/><path d="m-552.5947 545.5951v-8.1898h8.1898v8.1897z"/><path d="m-552.5947 537.4053-7.2914-7.2913h22.7722l-7.291 7.2913z"/><path d="m-640 160h-160z"/><path d="m-640 160v-16z"/><path d="m-608 160h-32v-16h32z"/><path d="m1472-288v-80z"/><path d="m1552-288v-80z"/><path d="m1552-368h-80z"/><path d="m1472-288h80z"/><path d="m-832-224v80z"/><path d="m-576 272v-16-64 80 160z"/><path d="m-576 432v64 34.114 22.7721 23.1139z"/><path d="m1216-768v64-80z"/><path d="m-448-224v96z"/><path d="m-448 192v64z"/><path d="m1088-704v-64z"/><path d="m1088-288v-96z"/><path d="m1152-768v-16z"/><path d="m1216-784h-64v16h64z"/><path d="m1152-784h-64z"/><path d="m1128-704h-40v-64h64v64z"/><path d="m1216-768h-64v64h64z"/><path d="m1152-704v-64z"/><path d="m1088-384h64z"/><path d="m1152-384v96z"/><path d="m1152-288h-64v-96h64z"/><path d="m1088-288h-144 48 64z"/><path d="m1088-768h-64v-16h64z"/><path d="m1088-768h-64z"/><path d="m1024-768v-16z"/><path d="m1088-784h-64z"/><path d="m-192 192v32 80-16z"/><path d="m-384 272h-64v-16h64z"/><path d="m-224 192h-96-128z"/><path d="m-384 256v16z"/><path d="m-448 256h64z"/><path d="m-384 272h-64z"/><path d="m-448-224h-64z"/><path d="m-512 192h-64v64h64z"/><path d="m-512 256h-64v16h64z"/><path d="m-488 192h40v64h-64v-64z"/><path d="m-448-128h-64v-96h64z"/><path d="m-448 256h-64z"/><path d="m-448-128h-40-24z"/><path d="m-512 256v16z"/><path d="m-512 192v64z"/><path d="m-912-144h80z"/><path d="m-832-224h-80z"/><path d="m-912-224v80z"/><path d="m-512 272h-64v-16h64z"/><path d="m1216-768h-64v-16h64z"/><path d="m-576-224v16z"/><path d="m-576-192v32z"/><path d="m-576-144v32z"/><path d="m-576-96v32z"/><path d="m-576 192v64z"/><path d="m1216-416v-32z"/><path d="m1216-368v-32z"/><path d="m1216-320v-32z"/><path d="m1216-288v-16z"/><path d="m1216-672h16 16z"/><path d="m1248-672h192-160z"/><path d="m1216-496h16z"/><path d="m1216-592h16z"/><path d="m1216-640h16z"/><path d="m1248-656h-16z"/><path d="m1248-672v16z"/><path d="m1248-672v16h-16-16v-16z"/><path d="m1216-544h16z"/><path d="m1216-400h16z"/><path d="m1216-464h16z"/><path d="m1216-448h16z"/><path d="m1216-352h16z"/><path d="m1216-304h16z"/><path d="m-448-128v64z"/><path d="m-448 256v16z"/><path d="m1088-768v-16z"/><path d="m1088-608v144 80-64z"/><path d="m1152-288h64z"/><path d="m1152-288h-64z"/><path d="m1152-768h-64z"/><path d="m1152-768h-64v-16h64z"/><path d="m1152-704v-64h64v64z"/><path d="m1152-704h64v32h-88v-32z"/><path d="m1128-704h24z"/><path d="m1152-704v-64z"/><path d="m1128-704h-40z"/><path d="m1088-384v-80h40 24v80z"/><path d="m1152-384v-80h64v16 32 16 32 16 32 16 16h-64z"/><path d="m1088-626.1139v-22.7722h17.1139v22.7722z"/><path d="m1127.8861-648.8861h-22.7722-17.1139v-7.1139h40v7.1139z"/><path d="m1216-656v16 32 16 32 16 32 16 32h-64-24v-162.1139-22.7722-7.1139z"/><path d="m1088-464v-144-18.1139h17.1139 22.7722.1139v162.1139z"/><path d="m1127.8861-648.8861h.1139v22.7722h-.1139z"/><path d="m1128-672h88v16h-88-40v-16z"/><path d="m1127.8861-648.8861-7.2911 7.291-8.1898.0002-7.2913-7.2912z"/><path d="m1127.8861-626.1139-7.2911-7.2909v-8.1903l7.2911-7.291z"/><path d="m1105.1139-648.8861 7.2913 7.2912v8.1896l-7.2913 7.2914z"/><path d="m1088-384h-32z"/><path d="m-448-128h32z"/><path d="m-512 272h64-64-64z"/><path d="m-512-224v96z"/><path d="m-488 114.1139h.1139v22.7722h-.1139z"/><path d="m-488 136.8861h.1139 22.7722 17.1139v23.1139h-40z"/><path d="m-465.1139 114.1139h17.1139v22.7722h-17.1139z"/><path d="m-488-128h40v64 160h-40z"/><path d="m-448 96v18.1139h-17.1139-22.7722-.1139v-18.1139z"/><path d="m-512 0v-128h24v224h-24z"/><path d="m-488 96v18.1139 22.7722 23.1139h-24v-64z"/><path d="m-487.8861 136.8861 7.2912-7.2912 8.1898.0001 7.2912 7.2911z"/><path d="m-487.8861 114.1139 7.2912 7.2909v8.1901l-7.2912 7.2912z"/><path d="m-465.1139 136.8861-7.2912-7.2911v-8.1897l7.2912-7.2914z"/><path d="m-576-16v-32-16-32-16-32-16-32-16-16h64v96 128h-64z"/><path d="m-512 0v96 64h-64v-16-16-32-16-32-16-32z"/><path d="m-512 160v32 64h-64v-64-32z"/><path d="m-488 160v32h-24v-32z"/><path d="m-488 192h-24z"/><path d="m-512 192v64z"/><path d="m-448 256v16h-64v-16z"/><path d="m-576 160h-16-16z"/><path d="m-608 160h-192 160z"/><path d="m-576-16h-16z"/><path d="m-576-112h-16z"/><path d="m-576-160h-16z"/><path d="m-576-208h-16z"/><path d="m-576-64h-16z"/><path d="m-576-48h-16z"/><path d="m-576 80h-16z"/><path d="m-576 32h-16z"/><path d="m-576 128h-16z"/><path d="m-608 144h16z"/><path d="m-608 160v-16z"/><path d="m-608 160v-16h16 16v16z"/><path d="m-576-208v16z"/><path d="m-576-64v16 32 16 32 16 32 16 32 16 16-160z"/><path d="m-576-160v16z"/><path d="m-576-112v16z"/><path d="m-576-64v16z"/><path d="m-576-16v16z"/><path d="m-576 32v16z"/><path d="m-576 80v16z"/><path d="m-576 128v16z"/><path d="m-576 272v160-80z"/><path d="m1216-1008v-80 96z"/><path d="m1216-1008v16 208-32-160z"/><path d="m1216-768v64z"/><path d="m1216-544v-16-32-16-32-16-16 160z"/><path d="m1216-640v-16z"/><path d="m1216-592v-16z"/><path d="m1216-544v-16z"/><path d="m1216-496v-16z"/><path d="m1216-448v-16z"/><path d="m1216-400v-16z"/><path d="m1216-352v-16z"/><path d="m1216-304v-16z"/><path d="m1232-288h-16z"/><path d="m1232-672h-16v16h16z"/><path d="m1216-640v32h16v-32z"/><path d="m1216-592v32h16v-32z"/><path d="m1216-544v32h16v-32z"/><path d="m1216-496v32h16v-32z"/><path d="m1216-448v32h16v-32z"/><path d="m1216-400v32h16v-32z"/><path d="m1216-352v32h16v-32z"/><path d="m1216-304v16h16v-16z"/><path d="m1232-512v16 32 16 32 16 32 16 32 16 16-160z"/><path d="m1216-656h16z"/><path d="m1232-640v-16z"/><path d="m1232-608h-16z"/><path d="m1232-560h-16z"/><path d="m1232-512h-16z"/><path d="m1232-416h-16z"/><path d="m1232-368h-16z"/><path d="m1232-320h-16z"/><path d="m1216-768h-64z"/><path d="m1216-768h-64v-16h64z"/><path d="m1152-768v-16z"/><path d="m1216-784h-64z"/><path d="m-512 272h-64z"/><path d="m-576 256h64z"/><path d="m-512 272h-64v-16h64z"/><path d="m-512 256v16z"/><path d="m-592-224h16z"/><path d="m-592 144v16h16v-16z"/><path d="m-592 96v32h16v-32z"/><path d="m-592 48v32h16v-32z"/><path d="m-592 0v32h16v-32z"/><path d="m-592-48v32h16v-32z"/><path d="m-592-96v32h16v-32z"/><path d="m-592-144v32h16v-32z"/><path d="m-592-192v32h16v-32z"/><path d="m-576-224h-16v16h16z"/><path d="m-592-96v-16-32-16-32-16-16 160z"/><path d="m-592-192h16z"/><path d="m-592-144h16z"/><path d="m-592-96h16z"/><path d="m-592 0h16z"/><path d="m-592 48h16z"/><path d="m-592 96h16z"/><path d="m-576 144h-16z"/><path d="m-592 128v16z"/><path d="m1056-1088h160-128-64z"/><path d="m1056-1088h-32-192 112 72z"/><path d="m-192 576h-128z"/><path d="m64 576h-32-192 160z"/><path d="m288 576h-64-128-32 160z"/><path d="m512 576h-64-160 160z"/><path d="m736 576h-64-160 160z"/><path d="m960 576h-64-160 160 32z"/><path d="m-576-224v16 16 32 16 32 16 32z"/><path d="m-576 160v32z"/><path d="m1216-512v64 160-16-16-32-16-32-16-32-16-32z"/><path d="m1440-672h-192-16z"/><path d="m1232-288h-16z"/><path d="m1232-672v16 16 32 16 32 16 32z"/><path d="m1216-512v-160h16v160 64h-16z"/><path d="m1232-448v160h-16v-160z"/><path d="m-448-512v96 128-128z"/><path d="m-448-736v96 128-128z"/><path d="m96 448h-32-32z"/><path d="m896 448h-224z"/><path d="m1088-224v32z"/><path d="m1184-224h-96z"/><path d="m1120 448h64v-192h-96v192z"/><path d="m1184-224h-96v32 192h96z"/><path d="m1088 0v32 192h96v-224z"/><path d="m1088 224v32h96v-32z"/><path d="m1184 224v32 192-32-160z"/><path d="m1184 0v224z"/><path d="m-32-960h-64-160z"/><path d="m192-960h-64-160z"/><path d="m768-960h-224 128z"/><path d="m-320-1088h-128v128h32 96z"/><path d="m-96-1088h-224v128h64 160z"/><path d="m128-1088h-224v128h64 160z"/><path d="m352-1088h-224v128h64 160z"/><path d="m416-960v-128h-64v128z"/><path d="m544-1088h-128v128h128z"/><path d="m768-1088h-192-32v128h224z"/><path d="m832-960v-128h-32-32v128z"/><path d="m-16-224h12 4-4-12-16z"/><path d="m800-928v224-178.1139-22.7722z"/><path d="m832-960v32z"/><path d="m832-960v32z"/><path d="m800-928h-32z"/><path d="m416-928h-160z"/><path d="m544-928v-32z"/><path d="m416-960v32h64 64v-32z"/><path d="m416-960v32z"/><path d="m768-928h-192v224h224v-224z"/><path d="m480-928h-64-160v160 64h224z"/><path d="m256-704v160h112 88 24v-160z"/><path d="m576-704v-224h-32-64v224z"/><path d="m576-544v-160h-96v160z"/><path d="m656-480h16v-32h-28v32z"/><path d="m644-320v-16-32-16-32-16-32-16-32h-4v224h4z"/><path d="m644-416v32h12v-32z"/><path d="m644-320v32h12v-32z"/><path d="m644-368v32h12v-32z"/><path d="m644-464v32h12v-32z"/><path d="m656-480v16 32 16 32 16 32 16 32h16v-192z"/><path d="m464-496v32h8v-32z"/><path d="m472-512h-8v8h8z"/><path d="m400-464h32 8 24v-32-8-8h-8-64v48z"/><path d="m480-512h-8v8 8 32 8 8h8z"/><path d="m352-496v32h8v-32z"/><path d="m360-512h-8v8h8z"/><path d="m456-544h-88v32h24 64z"/><path d="m352-456v-8-32-8-8h-8v64h8z"/><path d="m392-456v-8-48h-24-8v8 8 32 8 8h32z"/><path d="m464-456v8h8v-8z"/><path d="m440-464v8 8h24v-8-8z"/><path d="m400-464v8 8h32v-8-8z"/><path d="m352-456v8h8v-8z"/><path d="m392-456v8h8v-8z"/><path d="m432-456v8h8v-8z"/><path d="m640-512v224z"/><path d="m672-672h32 96z"/><path d="m672-512v32 192-32-128z"/><path d="m344-512v64z"/><path d="m296-512h-72z"/><path d="m344-512h8 8 8-8-8-8-48z"/><path d="m464-512h8 8 160-160-8-8-8z"/><path d="m576-544v-160z"/><path d="m672-672v96 64z"/><path d="m480-544h-24 24 96z"/><path d="m256-928v160z"/><path d="m368-544v32z"/><path d="m456-512v-32z"/><path d="m644-464v-16z"/><path d="m644-416v-16z"/><path d="m644-368v-16z"/><path d="m644-320v-16z"/><path d="m656-416h-12z"/><path d="m656-432v16z"/><path d="m656-480v16z"/><path d="m656-464h-12z"/><path d="m644-480h12z"/><path d="m644-432h12z"/><path d="m656-336v16z"/><path d="m656-384v16z"/><path d="m644-336h12z"/><path d="m656-368h-12z"/><path d="m644-384h12z"/><path d="m656-320h-12z"/><path d="m352-496v-8z"/><path d="m352-456v-8z"/><path d="m432-456v-8z"/><path d="m472-496h-8z"/><path d="m464-496v-8z"/><path d="m464-504h8z"/><path d="m472-504v8z"/><path d="m464-464h8z"/><path d="m432-464h8z"/><path d="m464-456v-8z"/><path d="m472-456h-8z"/><path d="m472-464v8z"/><path d="m440-464v8z"/><path d="m440-456h-8z"/><path d="m392-456v-8z"/><path d="m392-464h8z"/><path d="m400-464v8z"/><path d="m400-456h-8z"/><path d="m352-464h8z"/><path d="m360-496h-8z"/><path d="m360-504v8z"/><path d="m352-504h8z"/><path d="m360-464v8z"/><path d="m360-456h-8z"/><path d="m640-288v32z"/><path d="m-256-960h-64v192h64z"/><path d="m-416-768h96v-192h-96z"/><path d="m-416-768h-32z"/><path d="m-448-960v96 96h32v-192z"/><path d="m1088 256h-32-160z"/><path d="m896 256v160 32z"/><path d="m1088 256h-192v192h192z"/><path d="m640 0h-224z"/><path d="m-160 416v-224 178.114 22.772z"/><path d="m64 416h-224z"/><path d="m416 0h-120-8-8-8 8 8 8z"/><path d="m296-64h-8v8 8 32 8 8h8z"/><path d="m208-16v-32-8-8h-32v8 8 32z"/><path d="m168-8v-8-32-8-8h-8v64h8z"/><path d="m176-64h-8v8h8z"/><path d="m216-64h-8v8h8z"/><path d="m256-64h-8v8h8z"/><path d="m280-48v32h8v-32z"/><path d="m288-64h-8v8h8z"/><path d="m248-48v32h8v-32z"/><path d="m208-48v32h8v-32z"/><path d="m168-48v32h8v-32z"/><path d="m248-48v-8-8h-32v8 8 32h32z"/><path d="m256-64v8 8 32h24v-32-8-8z"/><path d="m256-16h-8-32-8-32v8 8h8 88 8v-8-8z"/><path d="m280-8v8h8v-8z"/><path d="m168-8v8h8v-8z"/><path d="m160-64v64z"/><path d="m216-56v8z"/><path d="m256-56v8z"/><path d="m280-16h8z"/><path d="m288-48h-8z"/><path d="m280-48v-8z"/><path d="m280-56h8z"/><path d="m288-56v8z"/><path d="m280-8v-8z"/><path d="m288-8h-8z"/><path d="m288-16v8z"/><path d="m256-48h-8z"/><path d="m248-48v-8z"/><path d="m248-56h8z"/><path d="m176-48h-8z"/><path d="m216-48h-8z"/><path d="m176-56v8z"/><path d="m208-48v-8z"/><path d="m208-56h8z"/><path d="m168-48v-8z"/><path d="m168-56h8z"/><path d="m176-16v8z"/><path d="m168-16h8z"/><path d="m176-8h-8z"/><path d="m168-8v-8z"/><path d="m0-224h-4v32 16 32 16 32 16 32 16 32h4z"/><path d="m-16-176v32h12v-32z"/><path d="m-4-224h-12v32h12z"/><path d="m-16-128v32h12v-32z"/><path d="m-16-80v32h12v-32z"/><path d="m-16-32v32h12v-32z"/><path d="m-16-32v-16-32-16-32-16-32-16-32h-16v224h16z"/><path d="m-32-224v32 192z"/><path d="m-16-176v-16z"/><path d="m-16-80v-16z"/><path d="m-16-128v-16z"/><path d="m-16-32v-16z"/><path d="m-4-128h-12z"/><path d="m-4-176h-12z"/><path d="m-16-192h12z"/><path d="m-4-192v16z"/><path d="m-16-144h12z"/><path d="m-4-144v16z"/><path d="m-16-48h12z"/><path d="m-4-80h-12z"/><path d="m-16-96h12z"/><path d="m-4-96v16z"/><path d="m-4-32h-12z"/><path d="m-4-48v16z"/><path d="m384 192v64 160-160z"/><path d="m64 32v160z"/><path d="m184 32h-120z"/><path d="m296 32h88-96-16z"/><path d="m272 0h-88v32h88z"/><path d="m272 32v-32z"/><path d="m184 0v32z"/><path d="m384 192v-160h-88v160 64h88z"/><path d="m296 256v160h88v-160z"/><path d="m272 32h-88-120v160h232v-160z"/><path d="m96 416h128 72v-160-64h-232v224z"/><path d="m-32 0v32 96 32-16z"/><path d="m64 192h-224v224h224z"/><path d="m96 416v32z"/><path d="m224 448v-32z"/><path d="m224 448v-32h-128v32z"/><path d="m1184 448v128z"/><path d="m32 448h-224v128h32 192z"/><path d="m64 576h32v-128h-64v128z"/><path d="m96 576h128v-128h-128z"/><path d="m448 448h-224v128h64 160z"/><path d="m672 448h-224v128h64 160z"/><path d="m896 448h-224v128h64 160z"/><path d="m1120 448h-32-192v128h64 160z"/><path d="m1184 576v-128h-64v128z"/><path d="m-448-224h-64-64z"/><path d="m-544-288h96z"/><path d="m-448-960v-128h-96v128 96h96z"/><path d="m-544-864v128 96h96v-96-32-96z"/><path d="m-544-640v128 96h96v-96-128z"/><path d="m-544-416v128h96v-128z"/><path d="m-544-1088v128z"/><path d="m-800 160h192 16z"/><path d="m-592-64v-160h16v160 64h-16z"/><path d="m-576 0v160h-16v-160z"/><path d="m-592-64v64 160-16-16-32-16-32-16-32-16-32z"/><path d="m1184 96h-96v-16h96z"/><path d="m-4 0h-12v-32h12z"/><path d="m-4-48h-12v-32h12z"/><path d="m-4-96h-12v-32h12z"/><path d="m-4-144h-12v-32h12z"/><path d="m-4-192h-12v-32h12z"/><path d="m-448-592h-96v-16h96z"/><path d="m656-480h-12v-32h12z"/><path d="m656-432h-12v-32h12z"/><path d="m656-384h-12v-32h12z"/><path d="m656-336h-12v-32h12z"/><path d="m656-288h-12v-32h12z"/><path d="m520-512h-40-136-48z"/><path d="m520-512h120-160z"/><path d="m344-512h-48z"/><path d="m480-512v64z"/><path d="m480-448h-8-8-24-8-32-8-32-8-8z"/><path d="m344-512h136v64h-136z"/><path d="m640 0h-224z"/><path d="m416 0h-32-88z"/><path d="m160 0h-96z"/><path d="m296-64v64z"/><path d="m160-64h8 8 32 8 32 8 24 8 8z"/><path d="m160-64h136v64h-136z"/><path d="m1112.4052-633.4053v-8.1896l8.1898-.0002v8.1903z"/><path d="m1120.595-633.4048 7.2911 7.2909h-22.7722l7.2913-7.2914z"/><path d="m832-1088v128z"/><path d="m832-704h64 48z"/><path d="m832-928v128 96z"/><path d="m832-960v32z"/><path d="m640-512v224z"/><path d="m640-512h-120z"/><path d="m224-512h72z"/><path d="m0-432v-80z"/><path d="m0-432v144z"/><path d="m0-512h224z"/><path d="m640-80v80z"/><path d="m640-224v144z"/><path d="m384 0h-224 136z"/><path d="m416 0h-32z"/><path d="m0-224v224z"/><path d="m0-224v224z"/><path d="m-192 192v32z"/><path d="m-192 576v-128z"/><path d="m-480.5949 129.5949v-8.1901l8.1898.0005v8.1897z"/><path d="m-480.5949 121.4048-7.2912-7.2909h22.7722l-7.2912 7.2914z"/><path d="m1232-288h208-128-96z"/><path d="m1440-288h-208z"/><path d="m1216-288h-128 64z"/><path d="m-32-224h-64z"/><path d="m896-288h-96-128 128z"/><path d="m1088-288h-32-32-128 48z"/><path d="m1056-672h-16-16z"/><path d="m1056-608v192 32-64z"/><path d="m1088-384h-32v64 32h32z"/><path d="m1024-320h-128-96z"/><path d="m1024-672h-224v32h224z"/><path d="m1056-640v-32h-32v32z"/><path d="m1024-640v96z"/><path d="m1056-608v-32h-32v96 128h32z"/><path d="m1024-416v96h32v-64-32z"/><path d="m1024-320h-224v32h96 128z"/><path d="m1056-288v-32h-32v32z"/><path d="m672-672v160z"/><path d="m704-544v96 128-128z"/><path d="m800-640h-96z"/><path d="m800-672h-96v32h96z"/><path d="m704-544v-96-32h-32v160 64h32z"/><path d="m672-448v128h32v-128z"/><path d="m800-320h-96-32v32h128z"/><path d="m-192-224h-128-96v32h32 192z"/><path d="m-160-192h96 32v-32h-64-96v32z"/><path d="m-32 0v-192h-32v96 128h32z"/><path d="m-64 32v96h32v-96z"/><path d="m-192 128h-192-32v32h224z"/><path d="m-160 160h128v-32h-32-96-32v32z"/><path d="m-384-96v-96h-32v64 64 96h32z"/><path d="m-416 32v96h32v-96z"/><path d="m-416-192v-32h-32v96h32z"/><path d="m0 0v-224z"/><path d="m-64 128h-96z"/><path d="m-64-192v96z"/><path d="m-160-192h-32-192 192z"/><path d="m-384-96v128 96-96z"/><path d="m-192 192v32z"/><path d="m-224 192h-224z"/><path d="m-192 160h-224 16 80z"/><path d="m-160 160h-32z"/><path d="m-416-128v64z"/><path d="m-192 224v224-144z"/><path d="m-192 192h-32z"/><path d="m-192 448v128z"/><path d="m1216-704v32z"/><path d="m1440-672h-208-16z"/><path d="m1216-672h-88z"/><path d="m1128-672v-32z"/><path d="m1216-672v-32h-88v32z"/><path d="m-416 32v-96-128h32v96 128z"/><path d="m-384 128h-32v-96h32z"/><path d="m-192 160h-224v-32h32 192z"/><path d="m-160 128h96v32h-128v-32z"/><path d="m-64 32v-128-96h32v128 96z"/><path d="m-32 160h-32v-32-96h32z"/><path d="m-192-192h-192-32v-32h224z"/><path d="m-32-224v32h-32-96-32v-32z"/><path d="m672-448v-64-160h32v32 96 96z"/><path d="m704-320h-32v-128h32z"/><path d="m896-288h-224v-32h32 96 96z"/><path d="m1024-320h32v32h-160v-32z"/><path d="m1024-416v-128-96h32v128 96z"/><path d="m1056-320h-32v-96h32z"/><path d="m928-640h-128-96v-32h192 32z"/><path d="m1056-672v32h-32-96v-32z"/><path d="m1056-288h-112-48z"/><path d="m944-704h-112z"/><path d="m832-928v224-160z"/><path d="m896-672h-192-32 128z"/><path d="m1056-640v-32 160z"/><path d="m672-512v64 128 32-160z"/><path d="m-64 160h32-128-32z"/><path d="m-32-192v-32 160z"/><path d="m-416-64v96 96 32-160z"/><path d="m-192-224h-224 128z"/><path d="m-192 192v32z"/><path d="m-224 192h-224 56 16 56z"/><path d="m832-1088v128z"/><path d="m944-704h144z"/><path d="m928-640h96-224z"/><path d="m1024-544v128 96-96z"/><path d="m800-320h-96z"/><path d="m704-640v96z"/><path d="m-160 128h-32-192 192z"/><path d="m-64-96v128 96-96z"/><path d="m-64-192h-96z"/><path d="m-384-192v96z"/><path d="m-192 224v224z"/><path d="m-192 192h-32z"/><path d="m-576 160h88z"/><path d="m-488 160v32z"/><path d="m-448 192h-40z"/><path d="m-488 192v-32h-88v32z"/><path d="m-576 160h-224 208z"/><path d="m-576 352v80 144-184z"/><path d="m-576 192v64 16z"/><path d="m1216-992v-96 160z"/><path d="m1216-992v64 160-16z"/><path d="m976-944v96z"/><path d="m1056-928v64z"/><path d="m1072-944h-16v16 64 16h16z"/><path d="m1056-864h-64z"/><path d="m1056-944h-64v16h64z"/><path d="m1056-864h-64v16h64z"/><path d="m992-864v-64-16h-16v96h16z"/><path d="m-352 352v64z"/><path d="m-336 336h-16v16 64 16h16z"/><path d="m-352 336h-64v16h64z"/><path d="m-352 416h-64v16h64z"/><path d="m-432 336v96z"/><path d="m-416 416v-64-16h-16v96h16z"/><path d="m992-944h64z"/><path d="m1056-944h16z"/><path d="m976-944h16z"/><path d="m1056-848h-64z"/><path d="m1072-848h-16z"/><path d="m992-848h-16z"/><path d="m1056-864v-64-16h16v96h-16z"/><path d="m1072-944v96z"/><path d="m992-928v64z"/><path d="m992-928v64z"/><path d="m1056-928h-64z"/><path d="m1056-928h-64v-16h64z"/><path d="m1056-928h-64v64h64z"/><path d="m1056-864v16h-64v-16z"/><path d="m976-944h16v16 64 16h-16z"/><path d="m-432 336h16z"/><path d="m-352 336h16z"/><path d="m-416 336h64z"/><path d="m-336 336v96z"/><path d="m-416 352v64z"/><path d="m-416 352v40 24z"/><path d="m-336 432h-16z"/><path d="m-352 432h-64z"/><path d="m-352 416v-64-16h16v96h-16z"/><path d="m-352 352h-24-16-24z"/><path d="m-352 352h-64z"/><path d="m-352 336v16h-64v-16z"/><path d="m-416 416h64z"/><path d="m-352 352h-64v64h64z"/><path d="m-352 432h-64v-16h64z"/><path d="m-416 432h-16z"/><path d="m-432 336h16v16 64 16h-16z"/><path d="m1056-904v-24 64z"/><path d="m1032-864h-16v-24h16z"/><path d="m1056-864h-24v-24-16h24z"/><path d="m992-928h24v24 16 24h-24z"/><path d="m1056-928v24h-24-16v-24z"/><path d="m1016-864h16 24-64z"/><path d="m1016-928h-24 64z"/><path d="m-376 392v-16-24h24v40z"/><path d="m-392 376v-24h16v24z"/><path d="m-416 392v-40h24v24 16z"/><path d="m-416 416v-24h24 16 24v24z"/><path d="m-352 392v-40 64z"/><path d="m-352 416h-64z"/><path d="m800-544v96 32z"/><path d="m912-416h-96-16 128z"/><path d="m816-528v96z"/><path d="m912-432v-96z"/><path d="m928-544h-16v16 96 16h16z"/><path d="m912-544h-96v16h96z"/><path d="m912-432h-96v16h96z"/><path d="m816-432v-96-16h-16v128h16z"/><path d="m-272-96h96 16-128z"/><path d="m-176 16v-96z"/><path d="m-160-96h-16v16 96 16h16z"/><path d="m-288-96v96 32z"/><path d="m-272-80v96z"/><path d="m-176-96h-96v16h96z"/><path d="m-176 16h-96v16h96z"/><path d="m-272 16v-96-16h-16v128h16z"/><path d="m1216-1088h-160z"/><path d="m-352 576h-224z"/><path d="m-320 576h-32z"/><path d="m-352 392h-24-16-184v184h224z"/><path d="m-320 576v-160-24h-32v184z"/><path d="m-392 392v-16-184h-56-40-88v160 40z"/><path d="m-320 192h-56v184 16h24 32z"/><path d="m-376 192h-16v184h16z"/><path d="m-576-224h-16-208v160 64h224z"/><path d="m-800 0v160h224v-160z"/><path d="m-448-64v-64-96h-128v224h128z"/><path d="m-576 0v160h88 40v-160z"/><path d="m-192 416v-192-32h-32-96v200 24z"/><path d="m-320 576h128v-128-32h-128z"/><path d="m-192 160h32v-128h-128v128z"/><path d="m-288 0v-96-128h-128v160 64z"/><path d="m-288 160v-128-32h-128v160z"/><path d="m-160-96v-128h-32-96v128z"/><path d="m-32-64v-160h-128v128 96h128z"/><path d="m-160 0v32 128h128v-160z"/><path d="m896-288h48v-128h-16-128v128z"/><path d="m800-544v-128h-128v160 64h128z"/><path d="m672-448v160h128v-128-32z"/><path d="m944-672h-16v128 96h16z"/><path d="m928-448v32h16v-32z"/><path d="m896-672h-96v128h128v-128z"/><path d="m944-864v-224h-112v160 64z"/><path d="m832-704h112v-144-16h-112z"/><path d="m1056-512v-160h-112v224h112z"/><path d="m944-448v32 128h112v-160z"/><path d="m1312-672h-96-88-40v64 160h224z"/><path d="m1088-448v64 96h128 96v-160z"/><path d="m1440-512v-160h-128v224h128z"/><path d="m1312-448v160h128v-160z"/><path d="m1032-848h-16-72v144h128v-144z"/><path d="m1016-888v40h16v-40z"/><path d="m1032-904v16 40h40v-56z"/><path d="m1072-848v144h16 40 88v-200h-144z"/><path d="m1016-888v-16-184h-72v224 16h72z"/><path d="m1032-904h40 144v-24-160h-160-40v184z"/><path d="m816-528v96z"/><path d="m-176 16v-96z"/><path d="m-576 192v80 80z"/><path d="m1440-512v64 160-80z"/><path d="m1216-928v24 200-64z"/><path d="m1312-672h128-224z"/><path d="m-448-64v64 160-23.1139-22.7722-18.1139z"/><path d="m-448-224v96z"/><path d="m1088-672v16 7.1139 22.7722 18.1139z"/><path d="m1088-288v-96z"/><path d="m1216-288h-128z"/><path d="m1088-672h40z"/><path d="m1128-704h88z"/><path d="m896-288h-96-128z"/><path d="m1088-704h-16-128z"/><path d="m1032-888h-16z"/><path d="m1016-888v-16z"/><path d="m1016-904h16z"/><path d="m1032-904v16z"/><path d="m832-1088v128 32z"/><path d="m928-672h16 112-128-32z"/><path d="m928-448v-96 128z"/><path d="m1056-512v64 160-32-96z"/><path d="m800-544h16 96 16z"/><path d="m816-432h96z"/><path d="m912-528h-96z"/><path d="m672-672v160z"/><path d="m-192 160h-96-128z"/><path d="m-32-64v64 160-128z"/><path d="m-416-224v32 128z"/><path d="m-160 32h-16-96-16z"/><path d="m-160-224h128-160z"/><path d="m-160 0v-96 128z"/><path d="m-176-80h-96z"/><path d="m-272 16h96z"/><path d="m-192 224v192 32z"/><path d="m-192 192h-32z"/><path d="m-392 376h16z"/><path d="m-376 376v16z"/><path d="m-376 392h-16z"/><path d="m-392 392v-16z"/><path d="m-576-224h128z"/><path d="m-448 160h-40z"/><path d="m-488 192h-88z"/><path d="m-800-224h208-48z"/><path d="m-592-224h16z"/><path d="m-800-224v80 80z"/><path d="m1472-368v80z"/><path d="m1552-288h-80v-80h80z"/><path d="m1552-368h-80v80h80z"/><path d="m1552-368v80z"/><path d="m1472-368h80z"/><path d="m1552-288h-80z"/><path d="m-832-144v-80z"/><path d="m-832-144h-80v-80h80z"/><path d="m-832-224h-80v80h80z"/><path d="m-832-144h-80z"/><path d="m-912-224h80z"/><path d="m-912-144v-80z"/><path d="m1472-368h80z"/><path d="m-32-183.1139v-22.7722-18.1139 160z"/><path d="m672-512v109.8861 73.2278 22.7722 18.1139-160z"/><path d="m896-672h-96-128z"/><path d="m1120-672h-176-16-32z"/><path d="m1344-672h-176-48z"/><path d="m1440-288h32-32-96z"/><path d="m800-544v128z"/><path d="m1440-626.1139v-22.7722-7.1139-16 80z"/><path d="m1472-288h-32v-80h32z"/><path d="m896-288h-96v-18.1139-22.7722-73.2278-13.8861h128 16v128z"/><path d="m928-544v-128h16v16 208h-16z"/><path d="m944-448v16 16h-16v-32z"/><path d="m800-544v-82.1139-22.7722-23.1139h96 32v128z"/><path d="m944-432v-16-208h224v224z"/><path d="m1168-288h-48-176v-128-16h224z"/><path d="m1232-656v7.1139 22.7722 194.1139h-64v-224z"/><path d="m1232-432v29.8861 114.1139h-64v-144z"/><path d="m1232-648.8861h169.1139v22.7722h-169.1139z"/><path d="m1392-656h48v7.1139h-16.1139-22.7722-169.1139v-7.1139z"/><path d="m1232-402.1139v-29.8861-194.1139h169.1139 22.7722 16.1139v34.1139 189.8861z"/><path d="m1440-368v80h-96-112v-114.1139h208z"/><path d="m1423.8861-648.8861h16.1139v22.7722h-16.1139z"/><path d="m1168-656h-224v-16h176 48z"/><path d="m1392-656h-160-64v-16h176 48z"/><path d="m1440-672v16h-48v-16z"/><path d="m1401.1139-648.8861 7.291 7.2912v8.1896l-7.291 7.2914z"/><path d="m1423.8861-626.1139-7.2911-7.2909v-8.1903l7.2911-7.291z"/><path d="m1423.8861-648.8861-7.2911 7.291-8.1901.0002-7.291-7.2912z"/><path d="m800-416h16 96 16z"/><path d="m912-432v-96z"/><path d="m816-528v96z"/><path d="m816-432h96z"/><path d="m912-528v96z"/><path d="m912-528h-96z"/><path d="m800-626.1139h-88.1139l-.0001-22.7722h88.114z"/><path d="m672-672h128v23.1139h-88.114-22.772-17.114z"/><path d="m672-512v-114.1139h17.114 22.7721 88.1139v82.1139 128 13.8861h-128z"/><path d="m800-402.1139v73.2278h-88.114-22.772-17.114v-73.2278z"/><path d="m689.114-626.1139h-17.114v-22.7722h17.114z"/><path d="m800-306.1139h-88.1139l-.0001-22.7722h88.114z"/><path d="m800-288h-128v-18.1139h17.114 22.7721 88.1139z"/><path d="m689.114-306.1139h-17.114v-22.7722h17.114z"/><path d="m711.886-328.8861-7.2913 7.2914-8.1896-.0002-7.2911-7.2912z"/><path d="m711.8861-626.1139-7.2914-7.2909v-8.1903l7.2913-7.291z"/><path d="m711.886-648.8861-7.2913 7.291-8.1896.0002-7.2911-7.2912z"/><path d="m689.114-648.8861 7.2911 7.2912v8.1896l-7.2911 7.2914z"/><path d="m711.8861-306.1139-7.2914-7.2914v-8.1894l7.2913-7.2914z"/><path d="m689.114-328.8861 7.2911 7.2912v8.1896l-7.2911 7.2914z"/><path d="m-608-224h-192-32 32z"/><path d="m-384-224h-192-32 32z"/><path d="m-160-224h-160-32-32 32z"/><path d="m-800-64v64 114.1139 22.7722 23.1139-160z"/><path d="m-32 160h-96z"/><path d="m-49.1139-205.8861h17.1139v22.7722h-17.1139z"/><path d="m-160 32v-128-87.1139h88.1139 22.7722 17.1139v119.1139 104.8861h-128z"/><path d="m-32 40.8861v73.2278h-17.1139-22.7722-88.1139v-73.2278z"/><path d="m-160-224h128v18.1139h-17.1139-22.7722-88.1139z"/><path d="m-160-205.8861h88.1139v22.7722h-88.1139z"/><path d="m-49.1139 114.1139h17.1139v22.7722h-17.1139z"/><path d="m-32 160h-96-32v-23.1139h88.1139 22.7722 17.1139z"/><path d="m-160 114.1139h88.1139v22.7722h-88.1139z"/><path d="m-71.8861-183.1139 7.2911-7.291 8.1899-.0002 7.2912 7.2912z"/><path d="m-71.8861-205.8861 7.2911 7.2914v8.1898l-7.2911 7.291z"/><path d="m-49.1139-183.1139-7.2912-7.2912v-8.1896l7.2912-7.2914z"/><path d="m-71.8861 114.1139 7.2911 7.2909v8.1901l-7.2911 7.2912z"/><path d="m-71.8861 136.8861 7.2911-7.2912 8.1899.0001 7.2912 7.2911z"/><path d="m-49.1139 136.8861-7.2912-7.2911v-8.1897l7.2912-7.2914z"/><path d="m-288-96h-32v-128h160v18.1139 22.7722 87.1139z"/><path d="m-320 114.1139v-114.1139-96h32v128 104.8861h-32z"/><path d="m-576 160h-224v-23.1139h16.1139 22.7722 185.1139z"/><path d="m-352 160h-224v-23.1139h38.8861 185.1139z"/><path d="m-320 136.8861h32v23.1139h-64v-23.1139z"/><path d="m-160 32v8.8861 73.2278 22.7722 23.1139h-128v-23.1139-104.8861z"/><path d="m-537.1139 136.8861h-38.8861-185.1139v-22.7722h185.1139 38.8861z"/><path d="m-352 114.1139h32v22.7722h-32-185.1139v-22.7722z"/><path d="m-800 0v-64-80-80h192 32v224z"/><path d="m-576 114.1139h-185.1139-22.7722-16.1139v-114.1139h224z"/><path d="m-576 0v-224h192 32v224z"/><path d="m-352 114.1139h-185.1139-38.8861v-114.1139h224z"/><path d="m-320-224v128 96h-32v-224z"/><path d="m-320 0v114.1139h-32v-114.1139z"/><path d="m-783.8861 136.8861h-16.1139v-22.7722h16.1139z"/><path d="m-288-96v128z"/><path d="m-160-96h-16-96-16z"/><path d="m-176 16v-96z"/><path d="m-272-80v96z"/><path d="m-761.1139 136.8861-7.2912-7.2911v-8.1897l7.2912-7.2914z"/><path d="m-783.8861 136.8861 7.2911-7.2912 8.1899.0001 7.2912 7.2911z"/><path d="m-783.8861 114.1139 7.2911 7.2909v8.1901l-7.2911 7.2912z"/><path d="m-176-80h-96z"/><path d="m-272 16h96z"/><path d="m-272 16v-96z"/><path d="m-832-224h32v80h-32z"/><path d="m-832-144h-80z"/><path d="m928-544v96 32z"/><path d="m912-544h-96-16 128z"/><path d="m912-432v-96-16h16v128h-16z"/><path d="m912-528h-96z"/><path d="m912-528h-96v-16h96z"/><path d="m816-432h96z"/><path d="m912-416h-96v-16h96z"/><path d="m800-544h16v16 96 16h-16z"/><path d="m-160-96v128z"/><path d="m-272 32h96 16-128z"/><path d="m-176 16v-96-16h16v128h-16z"/><path d="m-272 16h96z"/><path d="m-176-80h-96z"/><path d="m-176-80h-96v-16h96z"/><path d="m-176 32h-96v-16h96z"/><path d="m-288-96h16v16 96 16h-16z"/><path d="m1408.4049-633.4053v-8.1896l8.1901-.0002v8.1903z"/><path d="m1416.595-633.4048 7.2911 7.2909h-22.7722l7.291-7.2914z"/><path d="m696.4051-633.4053v-8.1896l8.1896-.0002v8.1903z"/><path d="m696.4051-313.4053v-8.1896l8.1896.0002v8.1894z"/><path d="m704.5947-633.4048 7.2914 7.2909h-22.7721l7.2911-7.2914z"/><path d="m704.5947-313.4053 7.2914 7.2914h-22.7721l7.2911-7.2914z"/><path d="m-64.595-190.4049v-8.1898h8.1899v8.1896z"/><path d="m-64.595 129.5949v-8.1901l8.1899.0005v8.1897z"/><path d="m-64.595-198.5947-7.2911-7.2914h22.7722l-7.2912 7.2914z"/><path d="m-64.595 121.4048-7.2911-7.2909h22.7722l-7.2912 7.2914z"/><path d="m-776.595 129.5949v-8.1901l8.1899.0005v8.1897z"/><path d="m-776.595 121.4048-7.2911-7.2909h22.7722l-7.2912 7.2914z"/><path d="m-800-224h-32v80h32z"/><path d="m-832-224h-80v80h80z"/><path d="m-576-224h-32-192v80 80 64h224z"/><path d="m-800 0v160h224v-160z"/><path d="m-352-224h-32-192v224h224z"/><path d="m-576 0v160h224v-160z"/><path d="m-128-224h-32-192v224h224z"/><path d="m-352 0v160h224v-160z"/><path d="m-32 0v-64-160h-96v224z"/><path d="m-32 160v-160h-96v160z"/><path d="m1552-368h-80v80h80z"/><path d="m1472-368h-32v80h32z"/><path d="m896-672h-224v160 64h224z"/><path d="m672-448v160h224v-160z"/><path d="m1120-672h-224v224h224z"/><path d="m896-448v160h224v-160z"/><path d="m1344-672h-224v224h224z"/><path d="m1120-448v160h224v-160z"/><path d="m1440-448v-144-80h-96v224z"/><path d="m1440-288v-80-80h-96v160z"/><path d="m1552-368v80z"/><path d="m1552-288h-80z"/><path d="m-32-64v64 160-23.1139-22.7722-73.2278z"/><path d="m672-672v23.1139 22.7722 114.1139z"/><path d="m1440-672h-48-48z"/><path d="m896-288h-224 128z"/><path d="m1120-288h-224 48z"/><path d="m1344-288h-224 48 64z"/><path d="m1440-592v144 80-34.1139z"/><path d="m1472-368h-32z"/><path d="m-128-224h96-128z"/><path d="m-800-144v80z"/><path d="m-576 160h-224z"/><path d="m-352 160h-224z"/><path d="m-128 160h-224 64 128z"/><path d="m-832-144h32z"/><path d="m-912-144v-80z"/><path d="m-912-224h80z"/></g></defs><path d="m-1094-1254h2828v1996h-2828z" fill="#fff"/><g stroke="#000"><use fill="none" stroke-miterlimit="0" stroke-width="15" xlink:href="#a"/><use fill="#fff" xlink:href="#a"/></g></svg>