<?xml version="1.0" encoding="utf-8" ?>
<svg baseProfile="tiny" height="100%" version="1.2" viewBox="-369.0 -1522.0 1760.0 1904.0" width="100%" xmlns="http://www.w3.org/2000/svg" xmlns:ev="http://www.w3.org/2001/xml-events" xmlns:xlink="http://www.w3.org/1999/xlink"><defs><g id="bsp_ref"><polygon points="704,236 704,236 685,236 653,236 624,236 592,236 512,236 512,236" /><polygon points="704,-244 768,-244 768,-172 704,-172" /><polygon points="768,12 704,12 704,-20 704,-172 768,-172 928,-172 928,12" /><polygon points="928,-172 960,-172 960,12 928,12" /><polygon points="704,76 704,12 768,12" /><polygon points="512,-148 608,-244 704,-244 704,-172 704,-20 512,-20" /><polygon points="704,-20 704,12 704,76 704,204 512,204 512,12 512,-20" /><polygon points="704,204 704,236 512,236 512,204" /><polygon points="704,236 704,204 704,76 704,76 704,236" /><polygon points="960,-172 928,-172 768,-172 768,-172 960,-172" /><polygon points="960,12 960,-172 960,-172 960,12" /><polygon points="512,12 512,204 512,236 512,236 512,76 512,12" /><polygon points="944,-172 784,-172 784,12 944,12" /><polygon points="642,-1252 642,-1292 642,-1376 689,-1376 769,-1376 824,-1376 824,-1292 824,-1179.95 676,-1179.95 642,-1179.95" /><polygon points="606,-1252 642,-1252 642,-1179.95 642,-1140 606,-1140" /><polygon points="744,-1139 744,-1152 824,-1152 824,-1080 744,-1080" /><polygon points="824,-1179.95 824,-1152 744,-1152 721,-1152 699,-1152 676,-1152 676,-1179.95" /><polygon points="721,-1152 744,-1152 744,-1139" /><polygon points="723.52,-1126 723.52,-1080 721,-1080 721,-1126" /><polygon points="676,-1140 676,-1152 699,-1152" /><polygon points="642,-1179.95 676,-1179.95 676,-1152 676,-1140 642,-1140" /><polygon points="699,-1080 696,-1080 696,-1127 699,-1127" /><polygon points="824,-1376 824,-1376 824,-1376 824,-1292 824,-1292" /><polygon points="721,-1126 721,-1080 721,-1080 721,-1126" /><polygon points="721,-1126 721,-1126 721.8,-1126 723.52,-1126" /><polygon points="699,-1152 721,-1152 721,-1152 699,-1152" /><polygon points="642,-1140 676,-1140 676,-1140 600,-1140 534,-1140 606,-1140" /><polygon points="696,-1358 696,-1354 766,-1354 766,-1358" /><polygon points="777,-1372 777,-1372 769,-1372 689,-1372 681,-1372 681,-1372" /><polygon points="777,-1356 777,-1372 681,-1372 681,-1356" /><polygon points="777,-1356 777,-1356 777,-1356 777,-1372 777,-1372 777,-1372 777,-1372 777,-1372 777,-1372 777,-1356" /><polygon points="689,-1372 769,-1372 769,-1368 689,-1368" /><polygon points="689,-1360 769,-1360 769,-1356 689,-1356" /><polygon points="689,-1368 769,-1368 769,-1360 689,-1360" /><polygon points="689,-1356 769,-1356 777,-1356 777,-1356 681,-1356 681,-1356" /><polygon points="699,-1080 696,-1080 696,-1080 699,-1080" /><polygon points="676,-1080 696,-1080 699,-1080 699,-1080 696,-1080 676,-1080" /><polygon points="676,-1127 676,-1080 676,-1080 676,-1127" /><polygon points="699,-1127 699,-1127 699,-1127 699,-1127 699,-1080 699,-1080 699,-1080 699,-1080 699,-1127" /><polygon points="699,-1127 699,-1127 696,-1127 696,-1127" /><polygon points="696,-1080 676,-1080 676,-1127 696,-1127" /><polygon points="696,-1080 696,-1127 696,-1127 696,-1080" /><polygon points="534,-1252 606,-1252 606,-1140 534,-1140" /><polygon points="534,-1252 534,-1140 534,-1080 520,-1080 520,-1252" /><polygon points="520,-1080 480,-1080 320,-1080 320,-1252 520,-1252" /><polygon points="320,-1080 480,-1080 480,-1036 320,-1036" /><polygon points="520,-1252 534,-1252 520,-1252" /><polygon points="696,-1080 699,-1080 699,-1080" /><polygon points="676,-1127 676,-1080 696,-1080 696,-1127" /><polygon points="696,-1127 699,-1127 699,-1127 696,-1127 676,-1127 676,-1127" /><polygon points="768,-244 768,-244 704,-244 608,-244 608,-244" /><polygon points="496,-421.1428 528,-407.4285 592,-380 592,-380 528,-407.4285 424,-452 424,-452" /><polygon points="520,-782 619,-688 528,-716.7368 524.5135,-717.8378 520,-722.5185" /><polygon points="656,-652 648,-656 720.3334,-656 733,-652" /><polygon points="588,-652 584.1429,-656 648,-656 656,-652 720,-620" /><polygon points="524.5135,-717.8378 528,-716.7368 619,-688 720.3334,-656 648,-656 584.1429,-656" /><polygon points="720,-620 656,-652 733,-652 824,-652 824,-568" /><polygon points="480,-884 520,-884 520,-782 520,-722.5185 480,-764" /><polygon points="320,-588 320,-604 464,-524 496,-506.2222 496,-488.4445 496,-421.1428 424,-452" /><polygon points="320,-604 320,-684 464,-524" /><polygon points="496,-506.2222 608,-444 528,-452.8889 496,-488.4445" /><polygon points="528,-407.4285 528,-452.8889 608,-444 670.4578,-437.0602 592,-380" /><polygon points="496,-488.4445 528,-452.8889 528,-407.4285 496,-421.1428" /><polygon points="824,-568 824,-652 824,-652 824,-568" /><polygon points="670.4578,-437.0602 670.4578,-437.0602 592,-380 592,-380" /><polygon points="520,-722.5185 524.5135,-717.8378 584.1429,-656 588,-652 588,-652 584.1429,-656 528,-714.2222 520,-722.5185 480,-764 480,-764" /><polygon points="720.3334,-656 619,-688 619,-688 720.3334,-656 733,-652 733,-652" /><polygon points="720,-620 720,-620 588,-652 588,-652" /><polygon points="670.4578,-437.0602 608,-444 608,-444 670.4578,-437.0602" /><polygon points="320,-684 320,-684 464,-524 464,-524" /><polygon points="960,-172 768,-172 768,-172 960,-172" /><polygon points="768,-172 768,-172 768,-244 768,-244" /><polygon points="768,12 768,12 928,12 960,12 960,12" /><polygon points="960,12 960,-172 960,-172 960,-116 960,12" /><polygon points="704,76 704,76 768,12 768,12" /><polygon points="608,-244 608,-244 512,-148 512,-148" /><polygon points="512,-148 512,-148 512,-20 512,12 512,12" /><polygon points="592,76 624,76 653,76 685,76 704,76 704,76 685,76 592,76 512,76 512,76" /><polygon points="624,140 624,124 624,124 624,140" /><polygon points="624,188 624,172 624,172 624,188" /><polygon points="685,188 653,188 653,236 685,236" /><polygon points="653,140 653,172 685,172 685,140" /><polygon points="653,76 653,124 685,124 685,76" /><polygon points="704,76 685,76 685,124 685,140 685,172 685,188 685,236 704,236" /><polygon points="653,188 653,172 653,140 653,124 653,76 624,76 624,124 624,140 624,172 624,188 624,236 653,236" /><polygon points="653,124 653,140 653,140 653,124" /><polygon points="685,140 685,124 685,124 685,140" /><polygon points="653,172 653,188 653,188 653,172" /><polygon points="685,188 685,172 685,172 685,188" /><polygon points="512,236 592,236 592,188 592,172 592,140 592,124 592,76 512,76" /><polygon points="624,188 592,188 592,236 624,236" /><polygon points="592,140 592,172 624,172 624,140" /><polygon points="592,76 592,124 624,124 624,76" /><polygon points="592,124 592,140 592,140 592,124" /><polygon points="592,172 592,188 592,188 592,172" /><polygon points="784,-172 784,-172 944,-172 944,-172" /><polygon points="944,12 944,12 784,12 784,12" /><polygon points="784,-172 768,-172 768,12 784,12" /><polygon points="960,-172 944,-172 944,12 960,12" /><polygon points="944,-172 944,-172 944,12 944,12" /><polygon points="784,12 784,12 784,-172 784,-172" /><polygon points="520,-1080 520,-1080 534,-1080 600,-1080" /><polygon points="480,-1036 480,-1036 480,-996" /><polygon points="480,-1036 480,-996 320,-996 320,-1036" /><polygon points="642,-1376 681,-1376 689,-1376 689,-1376 642,-1376" /><polygon points="769,-1376 777,-1376 824,-1376 824,-1376 769,-1376" /><polygon points="689,-1376 689,-1376 689,-1376 689,-1376 769,-1376 769,-1376 769,-1376 769,-1376 769,-1376 689,-1376" /><polygon points="777,-1376 777,-1372 777,-1372 777,-1376" /><polygon points="681,-1356 681,-1356 681,-1356 681,-1372 681,-1372 681,-1372" /><polygon points="769,-1372 769,-1372 769,-1372 769,-1368 769,-1368 769,-1372" /><polygon points="769,-1372 769,-1376 769,-1376 769,-1372" /><polygon points="769,-1372 769,-1372 777,-1372 777,-1372" /><polygon points="769,-1376 769,-1372 777,-1372 777,-1376" /><polygon points="681,-1372 681,-1372 689,-1372 689,-1372" /><polygon points="681,-1376 681,-1372 689,-1372 689,-1376" /><polygon points="681,-1356 681,-1356 681,-1356 689,-1356 689,-1356 681,-1356" /><polygon points="600,-1080 534,-1080 534,-1140 600,-1140" /><polygon points="721,-1126 721,-1080 721,-1080 721,-1139 721,-1128.7143" /><polygon points="721,-1152 721,-1152 744,-1139 744,-1139" /><polygon points="721.8,-1080 721,-1080 721,-1080 721,-1080 723.52,-1080" /><polygon points="824,-1080 744,-1080 744,-1080 824,-1080" /><polygon points="721.8,-1126 721,-1126 721,-1128.7143 721.8,-1128.2571" /><polygon points="744,-1080 721,-1080 721,-1139 744,-1139" /><polygon points="721.8,-1128.2571 721,-1128.7143 721,-1139" /><polygon points="744,-1139 721,-1139 721,-1140 721,-1152" /><polygon points="744,-1139 744,-1139 744,-1080 744,-1080" /><polygon points="721.8,-1080 723.52,-1080 723.52,-1126 721.8,-1126" /><polygon points="699,-1152 676,-1140 676,-1140 699,-1152" /><polygon points="699,-1152 699,-1151.4553 699,-1140 676,-1140" /><polygon points="676,-1140 699,-1140 699,-1139 699,-1127 699,-1080 676,-1080" /><polygon points="699,-1127 699,-1127 696,-1127 697.0645,-1127" /><polygon points="699,-1127 697.0645,-1127 697.0645,-1128.094" /><polygon points="697.0645,-1127 696,-1127 696,-1080 699,-1080 699,-1127" /><polygon points="676,-1140 676,-1080 600,-1080 600,-1140" /><polygon points="320,-588 320,-588 424,-452 424,-452" /><polygon points="320,-604 320,-684 320,-684 320,-604 320,-588 320,-588" /><polygon points="320,-604 320,-588 320,-588 320,-684 320,-684" /><polygon points="528,-407.4285 592,-380 592,-380 592,-380 424,-452 424,-452" /><polygon points="528,-774.4041 528,-716.7368 619,-688" /><polygon points="619,-688 528,-716.7368 528,-774.4041" /><polygon points="648,-656 656,-652 733,-652 720.3334,-656" /><polygon points="656,-652 648,-656 720.3334,-656 733,-652" /><polygon points="528,-714.2222 528,-716.7368 528,-774.4041 520,-782 520,-722.5185" /><polygon points="528,-716.7368 528,-714.2222 520,-722.5185 520,-782 528,-774.4041" /><polygon points="588,-652 584.1429,-656 648,-656 656,-652 720,-620" /><polygon points="656,-652 648,-656 584.1429,-656 588,-652 720,-620" /><polygon points="619,-688 720.3334,-656 648,-656 584.1429,-656 528,-714.2222 528,-716.7368" /><polygon points="619,-688 528,-716.7368 528,-714.2222 584.1429,-656 648,-656 720.3334,-656" /><polygon points="720,-620 656,-652 733,-652 824,-652 824,-568" /><polygon points="733,-652 656,-652 720,-620 824,-568 824,-652" /><polygon points="520,-782 520,-884 480,-884 480,-764 520,-722.5185" /><polygon points="480,-884 520,-884 520,-782 520,-722.5185 480,-764" /><polygon points="464,-524 320,-604 320,-588 424,-452 528,-407.4285 528,-452.8889 528,-488.4445" /><polygon points="320,-588 320,-604 464,-524 520,-492.8889 528,-488.4445 528,-452.8889 528,-407.4285 424,-452" /><polygon points="320,-684 320,-604 464,-524" /><polygon points="320,-604 320,-684 464,-524" /><polygon points="608,-444 528,-452.8889 528,-407.4285 592,-380 670.4578,-437.0602" /><polygon points="592,-380 528,-407.4285 528,-452.8889 608,-444 670.4578,-437.0602" /><polygon points="608,-444 528,-488.4445 528,-452.8889" /><polygon points="608,-444 528,-452.8889 528,-488.4445" /><polygon points="528,-714.2222 584.1429,-656 588,-652 588,-652 520,-722.5185 520,-722.5185" /><polygon points="824,-568 824,-652 824,-652 824,-568" /><polygon points="720,-620 720,-620 588,-652 588,-652" /><polygon points="670.4578,-437.0602 670.4578,-437.0602 592,-380 592,-380" /><polygon points="670.4578,-437.0602 608,-444 608,-444 670.4578,-437.0602" /><polygon points="520,-492.8889 464,-524 464,-524 520,-492.8889" /><polygon points="320,-684 320,-684 428,-564 464,-524 464,-524" /><polygon points="480,-1036 480,-1036 480,-948 480,-948 480,-996" /><polygon points="480,-996 480,-948 320,-948 320,-964 320,-996" /><polygon points="520,-884 520,-884 480,-884 480,-884" /><polygon points="520,-782 520,-782 520,-884 520,-884" /><polygon points="824,-652 824,-652 733,-652 733,-652" /><polygon points="528,-774.4041 619,-688 619,-688 520,-782 520,-782" /><polygon points="720,-620 720,-620 824,-568 824,-568" /><polygon points="480,-884 480,-884 480,-764 480,-764" /><polygon points="520,-492.8889 528,-488.4445 608,-444 608,-444 496,-506.2222 464,-524 464,-524" /><polygon points="606,-440 676,-432 680,-444 612,-452" /><polygon points="612,-452 470,-532 460,-522 606,-440" /><polygon points="320,-678 460,-522 470,-532 320,-694" /><polygon points="476,-764 586,-646 590,-658 488,-766" /><polygon points="476,-884 476,-764 488,-766 488,-884" /><polygon points="586,-646 718,-616 724,-626 590,-658" /><polygon points="826,-574 724,-626 718,-616 824,-560" /><polygon points="777,-1376 777,-1376 824,-1376 824,-1376 824,-1376 777,-1376" /><polygon points="681,-1372 681,-1356 681,-1356 681,-1372 681,-1376 681,-1376" /><polygon points="769,-1372 769,-1376 777,-1376 777,-1372" /><polygon points="689,-1376 689,-1376 689,-1372 689,-1372" /><polygon points="681,-1372 681,-1376 689,-1376 689,-1372" /><polygon points="700.3846,-1140 699,-1152 721,-1152 721,-1140" /><polygon points="700.3846,-1140 699,-1140 699,-1151.4553" /><polygon points="699,-1139.5 699,-1139 699,-1127 699,-1127" /><polygon points="699,-1139.5 699,-1140 700.3846,-1140" /><polygon points="721,-1139 721,-1080 721.8,-1080 721.8,-1126 721.8,-1128.2571" /><polygon points="699,-1080 721,-1080 721,-1080" /><polygon points="721,-1139 721,-1080 699,-1080 699,-1127 699,-1139" /><polygon points="699,-1139 699,-1139.5 700.3846,-1140 721,-1140 721,-1139" /><polygon points="699,-1140 699,-1139.5 699,-1127 697.0645,-1128.094" /><polygon points="699,-1139 699,-1140 697.0645,-1128.094 697.0645,-1127 699,-1127" /><polygon points="896,-1376 896,-1376 896,-1292 896,-1292" /><polygon points="824,-1376 896,-1376 896,-1292 824,-1292" /><polygon points="824,-1292 824,-1124 824,-1080 824,-1080 824,-1080 824,-1152 824,-1179.95 824,-1292" /><polygon points="824,-1124 824,-1096 824,-1080 824,-1080" /><polygon points="896,-1292 896,-1260 896,-1124 824,-1124 824,-1292" /><polygon points="704,236 704,236 672,236 640,236 640,236" /><polygon points="768,-244 768,-244 608,-244 608,-244" /><polygon points="320,-964 320,-964 320,-1036 320,-1036 320,-996 320,-964" /><polygon points="320,-812 320,-684 320,-588 320,-588 320,-644 320,-676 320,-812" /><polygon points="320,-964 320,-964 320,-948" /><polygon points="520,-782 520,-782 520,-884 520,-884 520,-782" /><polygon points="744,-564 520,-564 520,-581.8065 588,-652 720,-620 744,-608" /><polygon points="824,-568 824,-564 744,-564 744,-608" /><polygon points="520,-722.5185 588,-652 520,-581.8065" /><polygon points="848,-544 960,-452 960,-380 836,-380 836,-417.3333 836,-553.8572" /><polygon points="836,-554 848,-544 836,-553.8572" /><polygon points="780,-380 836,-417.3333 836,-380" /><polygon points="744,-497.3334 823.8273,-563.8561 824,-564 836,-554 836,-553.8572 836,-417.3333 780,-380 768,-372 700,-428 680.284,-444.2367" /><polygon points="744,-497.3334 680.284,-444.2367 680,-444 670.4578,-437.0602 608,-444 520,-492.8889 520,-564 744,-564" /><polygon points="824,-564 823.8273,-563.8561 744,-497.3334 744,-564" /><polygon points="768,-304.5715 768,-372 780,-380 836,-380 960,-380 960,-322.6415 882.5947,-255.4595" /><polygon points="680,-444 680.284,-444.2367 700,-428" /><polygon points="960,-380 960,-452 960,-452 960,-322.6415 960,-322.6415" /><polygon points="848,-544 848,-544 960,-452 960,-452" /><polygon points="670.4578,-437.0602 680,-444 680,-444 592,-380 592,-380" /><polygon points="768,-372 768,-372 700,-428 700,-428" /><polygon points="824,-652 824,-652 733,-652 733,-652" /><polygon points="619,-688 619,-688 528,-774.4041 520,-782 520,-782" /><polygon points="632,-683.8947 733,-652 733,-652 720.3334,-656 619,-688 619,-688" /><polygon points="608,-444 608,-444 528,-488.4445 520,-492.8889 520,-492.8889" /><polygon points="744,-608 720,-620 720,-620 824,-568 824,-568" /><polygon points="480,-884 480,-948 480,-948 480,-884" /><polygon points="320,-884 320,-948 480,-948 480,-884" /><polygon points="520,-492.8889 464,-524 428,-564 520,-564" /><polygon points="520,-581.8065 520,-564 428,-564 320,-684 480,-764 520,-722.5185" /><polygon points="320,-684 320,-812 320,-884 480,-884 480,-764" /><polygon points="480,-884 480,-884 480,-764 480,-764" /><polygon points="520,-722.5185 480,-764 480,-764 520,-722.5185" /><polygon points="768,-244 768,-304.5715 882.5947,-255.4595 869.3914,-244" /><polygon points="768,-244 768,-244 768,-260 768,-304.5715 768,-304.5715" /><polygon points="882.5947,-255.4595 960,-322.6415 960,-244 869.3914,-244" /><polygon points="928,140 832,236 704,236 704,188 704,76 768,12 928,12" /><polygon points="960,108 928,140 928,12 960,12" /><polygon points="960,-172 768,-172 768,-244 869.3914,-244 960,-244" /><polygon points="768,-172 768,-172 768,-244 768,-244" /><polygon points="928,12 768,12 768,12 960,12 960,12" /><polygon points="704,76 704,76 768,12 768,12" /><polygon points="608,-244 608,-244 512,-148 512,-148" /><polygon points="685,76 685,124 653,124 624,124 592,124 592,76" /><polygon points="685,172 685,140 685,124 685,76 704,76 704,188 685,188" /><polygon points="685,172 653,172 653,140 685,140" /><polygon points="624,172 624,140 624,124 653,124 653,140 653,172 653,188 624,188" /><polygon points="624,172 592,172 592,140 624,140" /><polygon points="624,188 653,188 685,188 704,188 704,236 640,236 592,236 592,188" /><polygon points="512,76 592,76 592,124 592,140 592,172 592,188 592,236 416,236 416,76" /><polygon points="512,-148 512,-148 512,12 512,76 512,76" /><polygon points="685,172 685,172 653,172 653,172" /><polygon points="685,124 685,124 653,124 653,124" /><polygon points="653,140 653,140 685,140 685,140" /><polygon points="653,188 653,188 685,188 685,188" /><polygon points="624,172 624,172 592,172 592,172" /><polygon points="592,140 592,140 624,140 624,140" /><polygon points="624,124 624,124 592,124 592,124" /><polygon points="592,188 592,188 624,188 624,188" /><polygon points="768,12 768,12 768,-172 768,-172" /><polygon points="960,-172 960,-172 960,12 960,12" /><polygon points="768,-172 768,-172 960,-172 960,-172" /><polygon points="960,12 960,12 768,12 768,12" /><polygon points="960,12 768,12 768,-172 960,-172" /><polygon points="676,-432 606,-440 612,-452 680,-444" /><polygon points="606,-440 606,-440 612,-452 612,-452" /><polygon points="676,-432 676,-432 606,-440 606,-440" /><polygon points="680,-444 680,-444 676,-432 676,-432" /><polygon points="612,-452 612,-452 680,-444 680,-444" /><polygon points="606,-440 460,-522 470,-532 612,-452" /><polygon points="460,-522 460,-522 470,-532 470,-532" /><polygon points="612,-452 612,-452 606,-440 606,-440" /><polygon points="470,-532 470,-532 612,-452 612,-452" /><polygon points="606,-440 606,-440 460,-522 460,-522" /><polygon points="320,-678 320,-678 320,-694 320,-694" /><polygon points="460,-522 320,-678 320,-694 470,-532" /><polygon points="470,-532 470,-532 460,-522 460,-522" /><polygon points="320,-694 320,-694 470,-532 470,-532" /><polygon points="460,-522 460,-522 320,-678 320,-678" /><polygon points="586,-646 476,-764 488,-766 590,-658" /><polygon points="476,-764 476,-764 488,-766 488,-766" /><polygon points="586,-646 586,-646 476,-764 476,-764" /><polygon points="590,-658 590,-658 586,-646 586,-646" /><polygon points="488,-766 488,-766 590,-658 590,-658" /><polygon points="476,-884 476,-884 488,-884 488,-884" /><polygon points="476,-764 476,-884 488,-884 488,-766" /><polygon points="476,-764 476,-764 476,-884 476,-884" /><polygon points="488,-884 488,-884 488,-766 488,-766" /><polygon points="488,-766 488,-766 476,-764 476,-764" /><polygon points="718,-616 586,-646 590,-658 724,-626" /><polygon points="724,-626 724,-626 718,-616 718,-616" /><polygon points="586,-646 586,-646 590,-658 590,-658" /><polygon points="590,-658 590,-658 724,-626 724,-626" /><polygon points="718,-616 718,-616 586,-646 586,-646" /><polygon points="824,-560 718,-616 724,-626 826,-574" /><polygon points="826,-574 826,-574 824,-560 824,-560" /><polygon points="718,-616 718,-616 724,-626 724,-626" /><polygon points="724,-626 724,-626 826,-574 826,-574" /><polygon points="824,-560 824,-560 718,-616 718,-616" /><polygon points="472,110 459,110 459,201 472,201" /><polygon points="896,-1036 896,-1096 896,-1036" /><polygon points="824,-1080 824,-1036 824,-1036 824,-1080" /><polygon points="896,-1036 824,-1036 824,-1080 824,-1096 896,-1096" /><polygon points="896,-1096 824,-1096 824,-1124 896,-1124" /><polygon points="721,-1080 721,-1080 744,-1080 824,-1080 824,-1080 824,-1080 824,-1080 721,-1080" /><polygon points="640,236 448,236 416,236 416,236 592,236 640,236" /><polygon points="704,236 704,236 672,236 672,236" /><polygon points="496,76 512,76 512,76 416,76 416,76" /><polygon points="448,108 448,108 448,116 448,196 448,196" /><polygon points="464,108 448,108 448,196 448,204 464,204" /><polygon points="416,236 416,236 416,236 416,76 416,76 416,76 416,76 416,76 416,236" /><polygon points="-61,-1348 30,-1348 30,-1201 -80,-1201 -80,-1348" /><polygon points="696,-1354 696,-1358 766,-1358 766,-1354" /><polygon points="696,-1354 696,-1354 696,-1358 696,-1358" /><polygon points="766,-1358 766,-1358 766,-1354 766,-1354" /><polygon points="766,-1354 766,-1354 696,-1354 696,-1354" /><polygon points="696,-1358 696,-1358 766,-1358 766,-1358" /><polygon points="464,196 464,116 464,108 464,108 464,204 464,204" /><polygon points="464,108 464,108 448,108 448,108 448,108 464,108" /><polygon points="456,196 456,116 464,116 464,196" /><polygon points="448,196 448,116 456,116 456,196" /><polygon points="464,116 456,116 456,116 464,116" /><polygon points="456,116 448,116 448,116 448,116 448,116 456,116" /><polygon points="681,-1372 681,-1372 681,-1356 681,-1356 681,-1356 681,-1372" /><polygon points="689,-1368 769,-1368 769,-1372 689,-1372" /><polygon points="689,-1356 769,-1356 769,-1360 689,-1360" /><polygon points="689,-1360 769,-1360 769,-1368 689,-1368" /><polygon points="689,-1372 769,-1372 777,-1372 777,-1372 681,-1372 681,-1372" /><polygon points="769,-1368 769,-1360 769,-1360 769,-1368" /><polygon points="769,-1360 769,-1356 769,-1356 769,-1360" /><polygon points="769,-1372 769,-1372 777,-1372 777,-1372" /><polygon points="769,-1356 777,-1356 777,-1356 769,-1356" /><polygon points="689,-1356 689,-1360 689,-1360 689,-1356" /><polygon points="689,-1360 689,-1368 689,-1368 689,-1360" /><polygon points="689,-1368 689,-1372 689,-1372 689,-1372 689,-1372 689,-1368" /><polygon points="689,-1368 769,-1368 769,-1368 689,-1368" /><polygon points="769,-1368 689,-1368 689,-1368 769,-1368" /><polygon points="769,-1360 689,-1360 689,-1360 769,-1360" /><polygon points="689,-1360 769,-1360 769,-1360 689,-1360" /><polygon points="681,-1372 681,-1372 689,-1372 689,-1372" /><polygon points="11,-1339 -56,-1339 -56,-1333 11,-1333" /><polygon points="642,-1376 681,-1376 681,-1376 681,-1376 642,-1376" /><polygon points="681,-1376 689,-1376 689,-1376 681,-1376" /><polygon points="681,-1376 642,-1376 642,-1376 689,-1376 689,-1376" /><polygon points="769,-1376 777,-1376 777,-1376 769,-1376" /><polygon points="777,-1376 769,-1376 769,-1376 824,-1376 824,-1376" /><polygon points="777,-1372 777,-1356 681,-1356 681,-1372" /><polygon points="777,-1356 777,-1356 769,-1356 689,-1356 681,-1356 681,-1356" /><polygon points="-80,-1174 -80,-1065 -80,-1174" /><polygon points="-80,-1174 -80,-1201 30,-1201 30,-1174 30,-1065 -80,-1065" /><polygon points="13,-1348 30,-1348 30,-1348 -61,-1348 -61,-1348" /><polygon points="30,-1348 30,-1348 30,-1348 30,-1285 30,-1174 30,-1174 30,-1174 30,-1201 30,-1348" /><polygon points="-30,-1337 13,-1337 13,-1348 -61,-1348 -61,-1337" /><polygon points="3,-1337 13,-1337 13,-1337 -30,-1337 -30,-1337" /><polygon points="-30,-1337 -30,-1337 -61,-1337 -61,-1337 -51,-1337 -30,-1337" /><polygon points="13,-1337 13,-1337 13,-1337 13,-1348 13,-1348 13,-1337" /><polygon points="3,-1337 3,-1337 3,-1337 13,-1337 13,-1337 3,-1337" /><polygon points="3,-1337 3,-1337 -30,-1337 -30,-1337" /><polygon points="3,-1348 3,-1342 -51,-1342 -51,-1348" /><polygon points="3,-1342 3,-1337 -30,-1337 -51,-1337 -51,-1342" /><polygon points="3,-1348 3,-1348 3,-1342 3,-1342" /><polygon points="-51,-1342 -51,-1337 -51,-1337 -51,-1342" /><polygon points="3,-1342 3,-1342 -51,-1342 -51,-1342" /><polygon points="448,236 448,236 448,236 416,236 416,236 448,236" /><polygon points="672,236 512,236 464,236 448,236 448,236 640,236 672,236" /><polygon points="448,76 464,76 496,76 496,76 416,76 416,76" /><polygon points="464,204 464,204 464,204 464,196 464,196 464,204" /><polygon points="448,116 448,116 448,108 448,108" /><polygon points="448,204 464,204 464,204 464,204 448,204" /><polygon points="464,76 448,76 448,108 464,108" /><polygon points="464,204 448,204 448,236 464,236" /><polygon points="448,236 464,236 464,236 448,236" /><polygon points="464,76 448,76 448,76 464,76" /><polygon points="464,76 464,76 496,76 496,76 464,76" /><polygon points="464,204 464,204 464,236 464,236" /><polygon points="464,76 464,76 464,108 464,108" /><polygon points="448,236 448,236 448,204 448,204" /><polygon points="448,204 448,204 448,204 448,196 448,196 448,196 448,204" /><polygon points="448,108 448,116 448,116 448,108 448,76 448,76" /><polygon points="464,108 448,108 448,76 464,76" /><polygon points="464,236 448,236 448,204 464,204" /><polygon points="896,-1376 896,-1376 824,-1376 824,-1376 824,-1376" /><polygon points="896,-1292 824,-1292 824,-1292 896,-1292" /><polygon points="642,-1292 642,-1376 642,-1376 642,-1376 642,-1376 642,-1292" /><polygon points="689,-1292 689,-1376 642,-1376 642,-1292" /><polygon points="824,-1292 896,-1292 896,-1376 824,-1376 769,-1376 689,-1376 689,-1292" /><polygon points="320,-1252 320,-1252 320,-1080 320,-1080" /><polygon points="824,-1036 824,-1036 896,-1036 896,-1036 896,-1036" /><polygon points="896,-1260 896,-1036 896,-1036 896,-1096 896,-1124 896,-1260" /><polygon points="896,-1292 896,-1260 896,-1260 896,-1292" /><polygon points="896,-1292 896,-1292 896,-1260 896,-1260" /><polygon points="800,-1192 816,-1192 816,-1204 816,-1224 806.5574,-1220.8525" /><polygon points="816,-1204 817.875,-1224.625 816,-1224" /><polygon points="806.5574,-1220.8525 817.875,-1224.625 822.9091,-1280 820,-1280" /><polygon points="820,-1280 822.9091,-1280 824,-1292 689,-1292 689,-1280" /><polygon points="689,-1252 689,-1192 800,-1192 806.5574,-1220.8525 820,-1280 689,-1280" /><polygon points="642,-1252 689,-1252 689,-1280 689,-1292 642,-1292" /><polygon points="688,-1192 689,-1192 689,-1252 642,-1252 520,-1252 520,-1192" /><polygon points="520,-1092 632,-1092 688,-1192 520,-1192" /><polygon points="632,-1092 520,-1092 520,-1080 632,-1080" /><polygon points="632,-1092 632,-1080 632,-1080 632,-1092" /><polygon points="721,-1080 824,-1080 824,-1080 648,-1080 648,-1080" /><polygon points="520,-1252 642,-1252 642,-1252 606,-1252 534,-1252 520,-1252" /><polygon points="642,-1252 642,-1292 642,-1292 642,-1252" /><polygon points="721,-1080 648,-1080 632,-1080 520,-1080 520,-1080 600,-1080 676,-1080 699,-1080 721,-1080" /><polygon points="480,-1080 480,-1080 520,-1080 520,-1080 520,-1080" /><polygon points="520,-1092 520,-1192 520,-1252 480,-1252 480,-1092 480,-1080 520,-1080" /><polygon points="480,-1252 480,-1252 480,-1092 480,-1092" /><polygon points="320,-1252 480,-1252 520,-1252 520,-1252 520,-1252 320,-1252" /><polygon points="480,-1080 480,-1080 480,-1056 480,-1036 480,-1036 480,-1036 480,-1080" /><polygon points="-72,-963 21,-963 21,-963 -72,-963" /><polygon points="30,-972 62,-1004 62,-1004 21,-963 21,-963" /><polygon points="62,-1141 62,-1141 62,-1004 62,-1004" /><polygon points="-80,-1174 -80,-1174 -80,-1285 -80,-1348 -80,-1348 -80,-1201 -80,-1174" /><polygon points="30,-1174 30,-1065 30,-1174" /><polygon points="30,-1174 30,-1174 32,-1174 32,-1174" /><polygon points="30,-1065 30,-1174 32,-1174 62,-1141 62,-1004 30,-972" /><polygon points="-80,-971 -80,-1065 30,-1065 30,-972 21,-963 -72,-963" /><polygon points="-113,-1141 -80,-1174 -80,-1065 -80,-971 -113,-1004" /><polygon points="-113,-1141 -113,-1141 -80,-1174 -80,-1174" /><polygon points="11,-1333 -56,-1333 -56,-1339 11,-1339" /><polygon points="-56,-1333 -56,-1333 -56,-1339 -56,-1339" /><polygon points="11,-1339 11,-1339 11,-1333 11,-1333" /><polygon points="11,-1333 11,-1333 -56,-1333 -56,-1333" /><polygon points="-56,-1339 -56,-1339 11,-1339 11,-1339" /><polygon points="512,236 464,236 464,236 464,236 512,236" /><polygon points="800,-1192 800,-1192 689,-1192 688,-1192 688,-1192" /><polygon points="800,-1192 800,-1192 816,-1192 816,-1192 800,-1192" /><polygon points="790.6666,-1280 804,-1220 800,-1192 688,-1192 632,-1192 575.3192,-1192 624,-1280" /><polygon points="688,-1192 632,-1092 632,-1192" /><polygon points="632,-1092 688,-1192 688,-1192 632,-1092" /><polygon points="632,-1092 520,-1092 575.3192,-1192 632,-1192" /><polygon points="520,-1092 632,-1092 632,-1080 632,-1064 632,-1036 520,-1036" /><polygon points="480,-1092 480,-1092 480,-1080 480,-1080 480,-1092" /><polygon points="480,-1252 480,-1252 480,-1092 480,-1092" /><polygon points="464,116 464,108 464,108 464,108 464,108 464,116" /><polygon points="448,196 448,196 448,116 448,116 448,116 448,116" /><polygon points="448,116 448,116 448,116 448,116 448,196 448,196" /><polygon points="448,204 448,204 464,204 464,204 464,204 448,204" /><polygon points="464,108 464,108 448,108 448,108 464,108" /><polygon points="464,196 456,196 456,196 464,196" /><polygon points="456,196 448,196 448,196 456,196" /><polygon points="448,116 448,196 456,196 456,116" /><polygon points="456,116 456,196 464,196 464,116" /><polygon points="456,196 456,196 456,116 456,116" /><polygon points="456,116 456,116 456,196 456,196" /><polygon points="3,-1348 3,-1348 -51,-1348 -51,-1348" /><polygon points="3,-1337 -30,-1337 -30,-1337 3,-1337" /><polygon points="-51,-1337 -51,-1337 -61,-1337 -61,-1337" /><polygon points="3,-1342 3,-1348 -51,-1348 -51,-1342" /><polygon points="-30,-1337 3,-1337 3,-1342 -51,-1342 -51,-1337" /><polygon points="3,-1337 3,-1337 3,-1342 3,-1342" /><polygon points="-51,-1348 -51,-1348 -51,-1342 -51,-1342" /><polygon points="3,-1342 3,-1342 -51,-1342 -51,-1342" /><polygon points="416,76 448,76 448,76 448,76 416,76" /><polygon points="512,76 512,76 496,76 496,76 496,76" /><polygon points="464,108 464,108 464,116 464,196 464,204 464,204" /><polygon points="448,204 448,204 448,196 448,116 448,116" /><polygon points="448,108 448,116 448,116 448,116 448,108" /><polygon points="448,116 448,108 464,108 464,204 448,204" /><polygon points="-30,-1337 -30,-1337 -51,-1337 -61,-1337 -61,-1337 -30,-1337" /><polygon points="632,-1036 632,-1064 632,-1064 632,-1044 632,-1036" /><polygon points="632,-1036 632,-968 520,-968 520,-1036" /><polygon points="13,-1348 30,-1348 30,-1348 13,-1348" /><polygon points="13,-1337 13,-1337 3,-1337 -30,-1337 -30,-1337" /><polygon points="-61,-1348 -61,-1337 -61,-1337 -61,-1337 -61,-1337 -61,-1348" /><polygon points="13,-1348 13,-1337 -30,-1337 -61,-1337 -61,-1348" /><polygon points="472,201 459,201 459,110 472,110" /><polygon points="472,201 472,201 459,201 459,201" /><polygon points="459,110 459,110 472,110 472,110" /><polygon points="472,110 472,110 472,201 472,201" /><polygon points="459,201 459,201 459,110 459,110" /><polygon points="1245,-671 1245,-720.2308 1245,-709 1245,-671" /><polygon points="1238.0865,-564 1245,-570 1245,-570 1245,-570 1194.3043,-526 1194.3043,-526" /><polygon points="1020,-671 1044,-643 1020,-643" /><polygon points="1131,-671 1200.7273,-671 1230,-671 1245,-671 1245,-643 1108,-643" /><polygon points="1150.1489,-564 1020,-564 1020,-643 1044,-643 1108,-643 1245,-643 1245,-570 1238.0865,-564" /><polygon points="916,-671 1020,-671 1020,-643 1020,-564 926.1489,-564 916,-573" /><polygon points="1150.1489,-526 969,-526 926.1489,-564 1020,-564 1150.1489,-564" /><polygon points="1238.0865,-564 1194.3043,-526 1150.1489,-526 1150.1489,-564" /><polygon points="1245,-671 1230,-671 1230,-718.7037 1230,-720.2308 1237.6755,-720.2308 1245,-720.2308" /><polygon points="1230,-671 1200.7273,-671 1208,-682.852 1230,-718.7037" /><polygon points="1200.7273,-671 1131,-671 1131,-720.2308 1208,-720.2308 1208,-682.852" /><polygon points="916,-671 916,-573 916,-573 916,-671" /><polygon points="1108,-643 1044,-643 1044,-643 1108,-643" /><polygon points="1044,-643 1020,-671 1020,-671 1044,-643" /><polygon points="1131,-671 1108,-643 1108,-643 1131,-671" /><polygon points="580,-987.082 548,-973 535,-941 548,-910 580,-896.082 611,-910.1615 624,-941.2281 611,-973.1615" /><polygon points="580,-988 580,-987.082 611,-973.1615 611,-974" /><polygon points="416,236 416,236 448,236 464,236 512,236 512,236" /><polygon points="704,236 640,236 512,236 512,236 512,236 672,236 704,236" /><polygon points="704,236 832,236 832,236 704,236 640,236 640,236" /><polygon points="832,236 704,236 704,236 704,236 704,236 832,236" /><polygon points="1245,-671 1245,-671 1245,-570 1245,-570 1245,-643 1245,-671" /><polygon points="1245,-671 1245,-709 1245,-709 1245,-671" /><polygon points="832,236 832,236 928,140 960,108 960,108" /><polygon points="768,-244 768,-244 608,-244 608,-244" /><polygon points="320,-588 320,-588 320,-588 424,-452 424,-452" /><polygon points="320,-1252 320,-1252 320,-1080 320,-1080" /><polygon points="320,-1036 320,-1056 320,-1080 320,-1080 320,-1080 320,-1036" /><polygon points="320,-884 320,-964 320,-964 320,-948 320,-884 320,-812 320,-812" /><polygon points="592,-380 592,-380 424,-452 424,-452" /><polygon points="824,-1036 824,-1036 896,-1036 896,-1036" /><polygon points="896,-1260 896,-1036 896,-1036 896,-1260" /><polygon points="824,-1080 824,-1080 824,-1036 824,-1036" /><polygon points="648,-1080 648,-1080 632,-1080 632,-1080 632,-1080 648,-1080" /><polygon points="480,-1056 320,-1056 320,-1036 480,-1036" /><polygon points="320,-1056 480,-1056 480,-1056 320,-1056" /><polygon points="320,-1252 480,-1252 480,-1252 480,-1252 320,-1252" /><polygon points="520,-884 520,-884 520,-884 520,-856 520,-820 520,-782 520,-782" /><polygon points="520,-968 520,-948 520,-884 520,-884 520,-884 520,-948 520,-1036 520,-1036" /><polygon points="680,-444 680,-444 700,-428 700,-428 700,-428 680,-444" /><polygon points="632,-968 632,-1036 632,-1036 632,-948 632,-948" /><polygon points="520,-968 632,-968 632,-948 520,-948" /><polygon points="1237.6755,-720.2308 1245,-709 1245,-720.2308" /><polygon points="1237.6755,-720.2308 1230,-720.2308 1230,-732" /><polygon points="1208,-720.2308 1230,-720.2308 1230,-718.7037 1208,-682.852" /><polygon points="1020,-671 916,-671 916,-692 1020,-692" /><polygon points="1044,-643 1044,-643 1108,-643 1108,-643" /><polygon points="1108,-643 1108,-643 1131,-671 1131,-671" /><polygon points="1020,-671 1020,-671 1020,-671 1044,-643 1044,-643" /><polygon points="916,-692 916,-692 1020,-692 1020,-692" /><polygon points="1131,-720.2308 1131,-671 1131,-671" /><polygon points="1020,-671 1020,-671 916,-671 916,-671" /><polygon points="733,-652 824,-652 824,-652 733,-652" /><polygon points="733,-652 632,-683.8947 632,-683.8947 733,-652" /><polygon points="632,-683.8947 733,-652 733,-652 632,-683.8947" /><polygon points="824,-652 824,-652 824,-564 824,-564" /><polygon points="824,-564 824,-564 824,-568 824,-652 824,-652" /><polygon points="960,-452 960,-452 960,-322.6415 960,-322.6415" /><polygon points="848,-544 848,-544 851,-541.5357 931.2034,-475.6544 960,-452 960,-452" /><polygon points="520,-782 520,-782 619,-688 619,-688" /><polygon points="520,-782 619,-688 619,-688 520,-782" /><polygon points="619,-688 632,-683.8947 632,-683.8947 619,-688" /><polygon points="632,-683.8947 619,-688 619,-688 632,-683.8947" /><polygon points="768,-304.5715 768,-372 768,-372 768,-304.5715" /><polygon points="680,-444 680,-444 592,-380 592,-380" /><polygon points="768,-372 768,-372 700,-428 700,-428" /><polygon points="320,-1036 320,-964 320,-884 480,-884 480,-948 480,-1036" /><polygon points="344,-592 320,-588 424,-452 432,-476" /><polygon points="768,-304.5715 768,-260 768,-260 768,-304.5714" /><polygon points="960,-322.6415 960,-244 960,-244 960,-322.6415" /><polygon points="960,-116 960,108 960,108 960,12 960,-116" /><polygon points="960,-244 960,-116 960,-116 960,-172 960,-244" /><polygon points="608,-244 608,-244 512,-148 512,-148" /><polygon points="512,-148 512,-148 512,76 512,76 512,76 512,76" /><polygon points="512,76 512,76 496,76 464,76 448,76 416,76 416,76" /><polygon points="-80,-1348 -61,-1348 -61,-1348 -61,-1348 -61,-1348 -80,-1348" /><polygon points="30,-1348 30,-1348 13,-1348 -61,-1348 -61,-1348" /><polygon points="62,-1004 62,-1004 22,-964 21,-963 21,-963" /><polygon points="62,-1004 62,-1141 62,-1141 62,-1004" /><polygon points="-113,-1004 -113,-1004 -80,-971 -72,-963 -72,-963" /><polygon points="-56,-1285 6,-1285 30,-1285 30,-1348 -61,-1348 -80,-1348 -80,-1285" /><polygon points="30,-1285 6,-1285 6,-1253 6,-1197 6,-1174 30,-1174" /><polygon points="6,-1253 6,-1285 -56,-1285 -56,-1253" /><polygon points="6,-1174 6,-1197 -56,-1197 -56,-1174" /><polygon points="-56,-1197 -56,-1253 -56,-1285 -80,-1285 -80,-1174 -56,-1174" /><polygon points="30,-1174 6,-1174 -56,-1174 -80,-1174 -80,-1174 -56,-1174 6,-1174 32,-1174 32,-1174" /><polygon points="6,-1253 6,-1253 6,-1242 6,-1208 6,-1197 6,-1197" /><polygon points="6,-1197 6,-1197 -56,-1197 -56,-1197" /><polygon points="62,-1141 62,-1141 32,-1174 32,-1174" /><polygon points="-113,-1141 -113,-1141 -113,-1004 -113,-1004" /><polygon points="-80,-1174 -113,-1141 -113,-1141 -81.4545,-1172.5455 -80,-1174" /><polygon points="548,-973.9641 548,-973 580,-987.082 580,-988" /><polygon points="611,-974 611,-973.1615 624,-941.2281 624,-942" /><polygon points="520,-884 520,-884 520,-884 480,-884 480,-884 480,-884 480,-884" /><polygon points="632,-948 632,-884 632,-856 520,-856 520,-884 520,-948" /><polygon points="1020,-671 1020,-671 1020,-692 1020,-692" /><polygon points="1020,-820 1020,-692 916,-692 916,-820" /><polygon points="916,-692 916,-692 840,-692 840,-692" /><polygon points="916,-692 840,-692 840,-820 861,-820 887,-820 916,-820" /><polygon points="840,-820 837,-820 800,-820 840,-820" /><polygon points="840,-692 837,-692 837,-820 840,-820" /><polygon points="837,-820 837,-692 800,-692 800,-820" /><polygon points="535,-941.9486 535,-941 548,-973 548,-973.9641" /><polygon points="624,-942 624,-941.2281 611,-910.1615 611,-910.9195" /><polygon points="1208,-820 1208,-831 1230,-831 1230,-732 1230,-720.2308 1208,-720.2308" /><polygon points="1208,-820 1208,-720.2308 1131,-720.2308 1131,-820" /><polygon points="1131,-820 1131,-720.2308 1131,-671 1131,-671 1131,-820" /><polygon points="1079,-746 1047,-732 1034,-698 1047,-666 1079,-652 1110,-666 1123,-698 1110,-732" /><polygon points="1230,-831 1230,-912 1230,-912" /><polygon points="1230,-831 1230,-912 1230,-912 1230,-912 1230,-912 1230,-732 1230,-732" /><polygon points="1208,-912 1230,-912 1230,-831 1208,-831" /><polygon points="1020,-912 1131,-912 1131,-831 1131,-820 1020,-820" /><polygon points="1131,-912 1208,-912 1208,-831 1131,-831" /><polygon points="1131,-831 1131,-820 1131,-820" /><polygon points="1131,-831 1208,-831 1208,-820 1131,-820" /><polygon points="1020,-820 1020,-671 1020,-671 1020,-692 1020,-820" /><polygon points="1131,-820 1131,-671 1108,-643 1044,-643 1020,-671 1020,-820" /><polygon points="548,-910.8831 548,-910 535,-941 535,-941.9486" /><polygon points="611,-910.9195 611,-910.1615 580,-896.082 580,-896.8837" /><polygon points="1079,-652 1047,-666 1034,-698 1047,-732 1079,-746 1110,-732 1123,-698 1110,-666" /><polygon points="1079,-746 1079,-746 1110,-732 1110,-732" /><polygon points="1047,-732 1047,-732 1079,-746 1079,-746" /><polygon points="1110,-732 1110,-732 1123,-698 1123,-698" /><polygon points="1034,-698 1034,-698 1047,-732 1047,-732" /><polygon points="1123,-698 1123,-698 1110,-666 1110,-666" /><polygon points="1047,-666 1047,-666 1034,-698 1034,-698" /><polygon points="1110,-666 1110,-666 1079,-652 1079,-652" /><polygon points="1079,-652 1079,-652 1047,-666 1047,-666" /><polygon points="580,-896.8837 548,-910.8831 535,-941.9486 548,-973.9641 580,-988 611,-974 624,-942 611,-910.9195" /><polygon points="580,-896.8837 580,-896.082 548,-910 548,-910.8831" /><polygon points="640,236 512,236 416,236 416,236 512,236 640,236" /><polygon points="928,140 832,236 832,236 960,108 960,108" /><polygon points="704,-244 768,-244 768,-244 608,-244 608,-244" /><polygon points="259.0707,-435.6768 298.1538,-384.5681 298.1538,-384.5681 259.0707,-435.6768 238.3953,-462.7139 238.3953,-462.7139" /><polygon points="320,-1056 320,-1056 320,-1056 320,-1080 320,-1080 320,-1056" /><polygon points="320,-588 320,-644 320,-644 320,-588" /><polygon points="592,-380 592,-380 424,-452 424,-452" /><polygon points="344,-592 344,-592 432,-476 432,-476" /><polygon points="840,-820 840,-820 840,-820 861,-820 861,-820 861,-820 840,-820" /><polygon points="916,-692 916,-692 840,-692 840,-692" /><polygon points="705,-820 704,-820 695,-828 695.375,-828" /><polygon points="663.5,-856 695,-828 704,-820 637.4681,-820 632,-824.8491 632,-856" /><polygon points="663.5,-856 632,-856 632,-884" /><polygon points="663.5,-856 632,-884 632,-884" /><polygon points="800,-675.868 800,-692 824,-692 824,-654.5849" /><polygon points="704,-820 705,-820 800,-820 800,-692 800,-675.868 637.4681,-820" /><polygon points="840,-692 824,-692 800,-692 837,-692 840,-692" /><polygon points="800,-652 824,-652 824,-652 733,-652 733,-652" /><polygon points="824,-652 800,-652 800,-675.868 824,-654.5849" /><polygon points="800,-675.868 800,-652 733,-652 632,-683.8947 632,-820 637.4681,-820" /><polygon points="637.4681,-820 632,-820 632,-824.8491" /><polygon points="960,-322.6415 960,-452 931.2034,-475.6544 851,-423.3478 771.018,-371.1856 898.4615,-269.2308" /><polygon points="824,-564 824,-563.7143 848,-544" /><polygon points="848,-544 824,-563.7143 824,-526 851,-526 851,-541.5357" /><polygon points="768,-373.6 768,-517.3333 680.284,-444.2367 700,-428" /><polygon points="824,-526 778.4,-526 768,-517.3333 768,-373.6 771.018,-371.1856 851,-423.3478 851,-526" /><polygon points="931.2034,-475.6544 851,-541.5357 851,-526 851,-423.3478" /><polygon points="824,-563.7143 824,-564 823.8273,-563.8561 778.4,-526 824,-526" /><polygon points="680.284,-444.2367 680,-444 700,-428" /><polygon points="824,-564 824,-652 824,-652 824,-564" /><polygon points="680.284,-444.2367 768,-517.3333 778.4,-526 824,-564 824,-564 680,-444 680,-444" /><polygon points="848,-544 848,-544 848,-544 836,-554 824,-564 824,-564 824,-564" /><polygon points="632,-824.8491 632,-820 520,-820 520,-856 632,-856" /><polygon points="632,-683.8947 619,-688 520,-782 520,-820 632,-820" /><polygon points="768,-373.6 768,-372 768,-369.2174 771.018,-371.1856" /><polygon points="768,-372 768,-373.6 700,-428" /><polygon points="771.018,-371.1856 768,-369.2174 768,-304.5714 882.5947,-255.4595 898.4615,-269.2308" /><polygon points="680,-444 680,-444 592,-380 592,-380" /><polygon points="768,-369.2174 768,-372 768,-372 768,-304.5715 768,-304.5714" /><polygon points="320,-588 344,-592 432,-476 424,-452" /><polygon points="424,-452 432,-476 432,-476 424,-452" /><polygon points="344,-592 320,-588 320,-588 344,-592" /><polygon points="768,-304.5714 768,-260 768,-244 869.3914,-244 882.5947,-255.4595" /><polygon points="768,-260 768,-260 768,-244 768,-244" /><polygon points="334.6383,-434.1277 384,-444 339.3185,-413.0667" /><polygon points="334.6383,-434.1277 339.3185,-413.0667 298.1538,-384.5681 259.0707,-435.6768 304,-548 307.4286,-556.5714" /><polygon points="259.0707,-435.6768 238.3953,-462.7139 304,-548" /><polygon points="320,-588 424,-452 384,-444 334.6383,-434.1277 307.4286,-556.5714" /><polygon points="298.1538,-384.5681 339.3185,-413.0667 384,-444 384,-444 339.3185,-413.0667 298.1538,-384.5681" /><polygon points="424,-452 424,-452 384,-444 384,-444" /><polygon points="960,-244 960,-322.6415 898.4615,-269.2308 882.5947,-255.4595 869.3914,-244" /><polygon points="960,-322.6415 960,-244 960,-244 960,-322.6415" /><polygon points="960,-116 960,52 960,108 960,108 960,-116" /><polygon points="960,-244 960,-172 960,-116 960,-116 960,-244" /><polygon points="768,-172 768,-244 704,-244 704,-172" /><polygon points="768,-172 928,-172 960,-172 960,-244 869.3914,-244 768,-244" /><polygon points="928,-172 768,-172 704,-172 704,-20 704,52 928,52" /><polygon points="704,52 704,204 704,236 832,236 928,140 928,52" /><polygon points="960,-116 960,-172 928,-172 928,52 960,52" /><polygon points="928,52 928,140 960,108 960,52" /><polygon points="608,-244 608,-244 512,-148 512,-148" /><polygon points="512,-20 512,-148 512,-148 512,76 512,76" /><polygon points="704,-172 704,-244 608,-244 512,-148 512,-20 704,-20" /><polygon points="512,-20 512,76 512,204 704,204 704,52 704,-20" /><polygon points="512,204 512,236 640,236 704,236 704,204" /><polygon points="512,76 512,76 416,76 416,76" /><polygon points="512,204 512,76 416,76 416,236 512,236" /><polygon points="416,76 416,76 416,236 416,236" /><polygon points="323,-525 291,-511 278,-477 291,-445 323,-431 354,-445 367,-477 354,-511" /><polygon points="323,-431 291,-445 278,-477 291,-511 323,-525 354,-511 367,-477 354,-445" /><polygon points="323,-525 323,-525 354,-511 354,-511" /><polygon points="291,-511 291,-511 323,-525 323,-525" /><polygon points="354,-511 354,-511 367,-477 367,-477" /><polygon points="278,-477 278,-477 291,-511 291,-511" /><polygon points="367,-477 367,-477 354,-445 354,-445" /><polygon points="291,-445 291,-445 278,-477 278,-477" /><polygon points="354,-445 354,-445 323,-431 323,-431" /><polygon points="323,-431 323,-431 291,-445 291,-445" /><polygon points="-46,-1242 -56,-1242 -56,-1208 -46,-1208" /><polygon points="6,-1242 -4,-1242 -4,-1208 6,-1208" /><polygon points="-20,-1242 -30,-1242 -30,-1208 -20,-1208" /><polygon points="6,-1197 6,-1208 -4,-1208 -20,-1208 -30,-1208 -46,-1208 -56,-1208 -56,-1197" /><polygon points="-46,-1242 -30,-1242 -20,-1242 -4,-1242 6,-1242 6,-1253 -56,-1253 -56,-1242" /><polygon points="-4,-1242 -20,-1242 -20,-1242 -4,-1242" /><polygon points="-20,-1208 -4,-1208 -4,-1208 -20,-1208" /><polygon points="-30,-1242 -46,-1242 -46,-1242 -30,-1242" /><polygon points="-46,-1208 -30,-1208 -30,-1208 -46,-1208" /><polygon points="-56,-1208 -56,-1242 -56,-1253 -56,-1253 -56,-1197 -56,-1197" /><polygon points="6,-1253 6,-1253 -56,-1253 -56,-1253" /><polygon points="-223,-1141 -223,-965 -223,-965 -223,-1141" /><polygon points="320,-676 320,-820 320,-884 320,-884 320,-812 320,-676" /><polygon points="480,-884 520,-884 520,-884 520,-884 480,-884" /><polygon points="320,-884 480,-884 480,-884 480,-884 320,-884" /><polygon points="288,-676 288,-676 252.7059,-676 252.7059,-676" /><polygon points="184,-765.8462 184,-794 184,-820 320,-820 320,-676 288,-676 252.7059,-676" /><polygon points="184,-676 184,-765.8462 252.7059,-676" /><polygon points="-220.7105,-963 -94,-963 -94,-890 -137.1447,-890" /><polygon points="-113,-964 -73,-964 -72,-963 -94,-963 -220.7105,-963 -221.8553,-964" /><polygon points="-72,-963 21,-963 22,-963 22,-891 22,-794 22,-739 -94,-739 -94,-890 -94,-963" /><polygon points="22,-739 22,-676 -94,-676 -94,-739" /><polygon points="158,-963 86,-891 22,-891 22,-963" /><polygon points="62,-964 159,-964 158,-963 22,-963 21,-963 22,-964" /><polygon points="156,-794 184,-794 184,-765.8462 184,-676 130,-676 22,-676 22,-739 22,-794" /><polygon points="6,-1253 -56,-1253 -56,-1285 6,-1285" /><polygon points="-221.8553,-964 -223,-965 -223,-1141 -113,-1141 -113,-1004 -113,-964" /><polygon points="-113,-964 -113,-1004 -73,-964" /><polygon points="-82,-1174 -113,-1141 -223,-1141 -107,-1285" /><polygon points="32,-1174 6,-1174 -56,-1174 -80,-1174 -81.4545,-1172.5455 -79,-1166 28,-1166" /><polygon points="-100,-1141 -79,-1166 -81.4545,-1172.5455 -113,-1141" /><polygon points="6,-1242 -4,-1242 -20,-1242 -30,-1242 -46,-1242 -56,-1242 -56,-1253 6,-1253" /><polygon points="6,-1208 -4,-1208 -4,-1242 6,-1242" /><polygon points="-20,-1208 -30,-1208 -30,-1242 -20,-1242" /><polygon points="-46,-1208 -56,-1208 -56,-1242 -46,-1242" /><polygon points="6,-1197 -56,-1197 -56,-1208 -46,-1208 -30,-1208 -20,-1208 -4,-1208 6,-1208" /><polygon points="28,-1166 51,-1141 62,-1141 32,-1174" /><polygon points="22,-964 62,-1004 62,-964" /><polygon points="-56,-1174 -56,-1197 6,-1197 6,-1174" /><polygon points="6,-1174 6,-1197 6,-1208 6,-1242 6,-1253 6,-1285 67,-1285 32,-1174" /><polygon points="-80,-1174 -82,-1174 -107,-1285 -56,-1285 -56,-1253 -56,-1242 -56,-1208 -56,-1197 -56,-1174" /><polygon points="160,-1143.5213 160,-1141 62,-1141 32,-1174 67,-1285" /><polygon points="160,-1141 160,-965 159,-964 62,-964 62,-1004 62,-1141" /><polygon points="-82,-1174 -80,-1174 -56,-1174 6,-1174 32,-1174 32,-1174 -82,-1174" /><polygon points="-82,-1174 -82,-1174 -113,-1141 -113,-1141" /><polygon points="158,-963 159,-964 160,-965 160,-965 86,-891 86,-891" /><polygon points="160,-1141 160,-1143.5213 160,-1143.5213 160,-965 160,-965" /><polygon points="28,-1166 -79,-1166 -79,-1166 28,-1166" /><polygon points="28,-1166 28,-1166 51,-1141 51,-1141" /><polygon points="-137.1447,-890 -94,-890 -94,-890 -137.1448,-890" /><polygon points="-100,-1141 -113,-1141 -113,-1141 -100,-1141" /><polygon points="21,-963 -72,-963 -72,-963 21,-963" /><polygon points="-73,-964 -113,-1004 -113,-1004 -72,-963 -72,-963" /><polygon points="-30,-1208 -30,-1208 -30,-1242 -30,-1242" /><polygon points="-4,-1208 -4,-1208 -4,-1242 -4,-1242" /><polygon points="-20,-1242 -20,-1242 -20,-1208 -20,-1208" /><polygon points="-46,-1242 -46,-1242 -46,-1208 -46,-1208" /><polygon points="62,-1141 62,-1141 32,-1174 32,-1174" /><polygon points="-113,-1141 -113,-1141 -113,-1004 -113,-1004" /><polygon points="320,-884 320,-884 320,-820" /><polygon points="320,-1036 384,-1036 384,-884 320,-884" /><polygon points="320,-1036 184,-1036 184,-1036 320,-1036" /><polygon points="184,-1036 320,-1036 320,-884 184,-884" /><polygon points="184,-884 320,-884 320,-820 184,-820" /><polygon points="896,-1036 896,-1036 896,-1036 840,-1036 840,-1036" /><polygon points="840,-1036 824,-1036 824,-1036 896,-1036 896,-1036" /><polygon points="824,-1036 824,-1036 824,-1044 824,-1080 824,-1080 824,-1036" /><polygon points="705,-820 840,-820 840,-820 800,-820 705,-820" /><polygon points="695,-828 695.375,-828 695.375,-828 695,-828" /><polygon points="695,-828 704,-820 705,-820 695.375,-828" /><polygon points="704,-820 695,-828 695,-828 704,-820" /><polygon points="695.375,-828 705,-820 705,-820 695.375,-828" /><polygon points="1084,-754 1060,-743 1050,-716 1060,-690 1084,-679 1108,-690 1118,-716 1108,-743" /><polygon points="632,-948 632,-884 632,-884 632,-884 632,-948" /><polygon points="520,-948 520,-884 632,-884 632,-948" /><polygon points="1118.4146,-738.8576 1109,-743 1123.9423,-706.3236 1128,-716" /><polygon points="1120,-716 1105.5796,-680.6038 1115,-685 1123.9423,-706.3236" /><polygon points="1084,-678 1050.8118,-692.6028 1054,-685 1076.6556,-674.7684" /><polygon points="1044.5504,-724.4665 1048,-716 1062.1246,-750.6692 1054,-747" /><polygon points="1062.1246,-750.6692 1059,-743 1084,-754 1076.6555,-757.2315" /><polygon points="1050.8118,-692.6028 1059,-689 1044.5504,-724.4665 1041,-716" /><polygon points="1109,-689 1076.6556,-674.7684 1085,-671 1105.5796,-680.6038" /><polygon points="1105.5792,-751.3964 1085,-761 1076.6555,-757.2315 1084,-754 1109,-743 1118.4146,-738.8576 1115,-747" /><polygon points="1230,-912 1213,-912 1213,-912 1230,-912" /><polygon points="1208,-912 1213,-912 1230,-912 1230,-912 1230,-912 1208,-912 1131,-912 1020,-912 1020,-912" /><polygon points="1213,-912 1208,-912 1208,-820 1208,-726.2435 1208,-692 1208,-682.8518 1213,-691" /><polygon points="887,-820 967,-820 972,-820 981.8814,-820 1020,-820 1020,-820 1020,-820 916,-820 887,-820" /><polygon points="967,-820 887,-820 887,-820 967,-820" /><polygon points="1020,-912 1020,-912 1020,-820 1020,-820" /><polygon points="1084.3871,-820 1208,-820 1208,-912 1020,-912 1020,-820" /><polygon points="1129,-759 1208,-726.2435 1208,-820 1084.3871,-820 1105.287,-770.1618 1105.9623,-768.5521" /><polygon points="989.1192,-817 1105.9623,-768.5521 1105.287,-770.1618 1084.3871,-820 1020,-820 981.8814,-820" /><polygon points="1162.068,-608 1200.7268,-671 1195,-671 1156,-608" /><polygon points="1200.7268,-671 1208,-682.8518 1208,-692 1195,-671" /><polygon points="1208,-692 1208,-726.2435 1129,-759 1146,-716 1163.7906,-671 1195,-671" /><polygon points="1175.9542,-640.2336 1195,-671 1163.7906,-671" /><polygon points="1163.7906,-671 1146,-716 1127.7856,-671" /><polygon points="1102.2858,-608 1156,-608 1175.9542,-640.2336 1163.7906,-671 1127.7856,-671" /><polygon points="1088,-776 1058.5487,-788.2117 1047,-759" /><polygon points="1047,-759 1058.5487,-788.2117 1020,-804.1955 1020,-740.7061 1030,-716" /><polygon points="1020,-804.1955 989.1192,-817 1020,-740.7061" /><polygon points="989.1192,-817 981.8814,-820 972,-820 972,-705.0976 1020,-685.1951 1020,-740.7061" /><polygon points="1020,-685.1951 1047,-674 1030,-716 1020,-740.7061" /><polygon points="1047,-674 1020,-685.1951 1020,-628.8049 1088,-657 1061.3691,-668.0421" /><polygon points="972,-705.0976 972,-692 1014.7917,-626.6453 1020,-628.8049 1020,-685.1951" /><polygon points="1014.7917,-626.6453 1020,-618.6909 1020,-628.8049" /><polygon points="1121.7648,-671 1088,-657 1020,-628.8049 1020,-618.6909 1027,-608 1102.2858,-608 1127.7856,-671" /><polygon points="1127.7856,-671 1129,-674 1121.7648,-671" /><polygon points="1014.7917,-626.6453 972,-692 972,-683.4138 1020,-610.5862 1020,-618.6909" /><polygon points="1027,-608 1020,-618.6909 1020,-610.5862 1021.7045,-608" /><polygon points="1156,-608 1102.2858,-608 1027,-608 1025,-603 1159,-603" /><polygon points="1027,-608 1021.7045,-608 1025,-603" /><polygon points="1159,-603 1162.068,-608 1156,-608" /><polygon points="972,-692 972,-705.0976 972,-820 967,-820 967,-691 972,-683.4138" /><polygon points="1120,-716 1109,-743 1109,-743 1120,-716" /><polygon points="1109,-743 1120,-716 1120,-716 1109,-743" /><polygon points="1120,-716 1109,-689 1109,-689 1120,-716" /><polygon points="1109,-689 1120,-716 1120,-716 1109,-689" /><polygon points="1084,-678 1109,-689 1109,-689 1084,-678" /><polygon points="1109,-689 1084,-678 1084,-678 1109,-689" /><polygon points="1059,-743 1048,-716 1048,-716 1059,-743" /><polygon points="1048,-716 1059,-743 1059,-743 1048,-716" /><polygon points="1109,-743 1084,-754 1084,-754 1109,-743" /><polygon points="1084,-754 1109,-743 1109,-743 1084,-754" /><polygon points="1059,-743 1084,-754 1084,-754 1059,-743" /><polygon points="1109,-743 1120,-716 1109,-689 1084,-678 1059,-689 1048,-716 1059,-743 1084,-754" /><polygon points="1084,-754 1059,-743 1048,-716 1059,-689 1084,-678 1109,-689 1120,-716 1109,-743" /><polygon points="1048,-716 1059,-689 1059,-689 1048,-716" /><polygon points="1059,-689 1084,-678 1084,-678 1059,-689" /><polygon points="1059,-689 1048,-716 1048,-716 1059,-689" /><polygon points="1084,-678 1059,-689 1059,-689 1084,-678" /><polygon points="1108,-690 1084,-679 1060,-690 1050,-716 1060,-743 1084,-754 1108,-743 1118,-716" /><polygon points="1084,-754 1084,-754 1108,-743 1108,-743" /><polygon points="1060,-743 1060,-743 1084,-754 1084,-754" /><polygon points="1108,-743 1108,-743 1118,-716 1118,-716" /><polygon points="1050,-716 1050,-716 1060,-743 1060,-743" /><polygon points="1118,-716 1118,-716 1108,-690 1108,-690" /><polygon points="1060,-690 1060,-690 1050,-716 1050,-716" /><polygon points="1108,-690 1108,-690 1084,-679 1084,-679" /><polygon points="1084,-679 1084,-679 1060,-690 1060,-690" /><polygon points="520,-1036 520,-1044 520,-1080 520,-1092 520,-1092 520,-1036" /><polygon points="520,-1036 520,-948 632,-948 632,-1036" /><polygon points="824,-1292 896,-1292 896,-1292 824,-1292" /><polygon points="320,-1080 320,-1252 320,-1252 320,-1252 320,-1080" /><polygon points="320,-1252 378,-1252 320,-1252" /><polygon points="378,-1056 320,-1056 320,-1056" /><polygon points="378,-1252 320,-1252 320,-1080 320,-1056 378,-1056" /><polygon points="824,-1036 824,-1036 840,-1036 840,-1036 824,-1036" /><polygon points="896,-1036 896,-1044 896,-1044 896,-1036" /><polygon points="896,-1260 896,-1192 896,-1080 896,-1044 896,-1036 896,-1036 896,-1036 896,-1260" /><polygon points="896,-1292 896,-1260 896,-1260 896,-1292" /><polygon points="480,-1080 480,-1252 378,-1252 378,-1056 480,-1056" /><polygon points="520,-1080 520,-1044 632,-1044 632,-1064 632,-1080" /><polygon points="824,-1080 824,-1044 896,-1044 896,-1080" /><polygon points="744,-1192 575.3192,-1192 520,-1092 520,-1080 632,-1080 648,-1080 744,-1080" /><polygon points="824,-1080 896,-1080 896,-1192 816,-1192 800,-1192 744,-1192 744,-1080" /><polygon points="624,-1280 575.3192,-1192 744,-1192 800,-1192 804,-1220 790.6667,-1280" /><polygon points="896,-1192 896,-1260 896,-1292 824,-1292 816,-1204 816,-1192" /><polygon points="824,-1044 824,-1036 824,-1036 824,-1044" /><polygon points="896,-1044 824,-1044 824,-1044 896,-1044" /><polygon points="632,-1044 520,-1044 520,-1036 632,-1036" /><polygon points="520,-1092 575.3192,-1192 624,-1280 624,-1280 575.3192,-1192 520,-1092" /><polygon points="816,-1192 816,-1204 816,-1204 816,-1192" /><polygon points="816,-1204 824,-1292 824,-1292 824,-1292 822.9091,-1280 817.875,-1224.625 816,-1204" /><polygon points="624,-1280 790.6667,-1280 790.6666,-1280 624,-1280" /><polygon points="790.6667,-1280 804,-1220 804,-1220 790.6666,-1280" /><polygon points="804,-1220 800,-1192 800,-1192 804,-1220" /><polygon points="632,-1080 632,-1064 632,-1064 632,-1080" /><polygon points="824,-1080 744,-1080 648,-1080 648,-1080 824,-1080" /><polygon points="480,-1056 378,-1056 320,-1056 320,-1056 480,-1056" /><polygon points="378,-1252 480,-1252 480,-1252 320,-1252 320,-1252" /><polygon points="480,-1252 480,-1080 480,-1080 480,-1092 480,-1252" /><polygon points="480,-1080 480,-1056 480,-1056 480,-1056 480,-1080" /><polygon points="1245,-671 1245,-709 1245,-709 1245,-570 1245,-570" /><polygon points="861,-820 887,-820 887,-820 887,-820 861,-820" /><polygon points="972,-838 972,-838 972,-824.0976 972,-820 972,-820" /><polygon points="972,-838 972,-820 967,-820 887,-820 861,-820 861,-838" /><polygon points="967,-820 967,-820 967,-820 967,-692 967,-691 967,-691 967,-820" /><polygon points="1084,-754 1084,-754 1059,-743 1059,-743" /><polygon points="1120,-716 1109,-743 1084,-754 1059,-743 1048,-716 1059,-689 1084,-678 1109,-689" /><polygon points="1109,-689 1084,-678 1059,-689 1048,-716 1059,-743 1084,-754 1109,-743 1120,-716" /><polygon points="184,-1018 184,-884 184,-794 184,-794 184,-794 184,-812 184,-1018" /><polygon points="184,-1018 184,-1036 184,-1036 184,-884 184,-884" /><polygon points="184,-794 184,-884 184,-884 184,-820 184,-794" /><polygon points="320,-588 320,-644 320,-644 320,-588" /><polygon points="592,-380 592,-380 592,-380 553.9387,-396.312 424,-452 424,-452" /><polygon points="384,-1036 320,-1036 320,-1036 448,-1036 544,-1036 544,-1036" /><polygon points="384,-1036 320,-1036 320,-1036" /><polygon points="608,-1036 520,-1036 384,-1036 544,-1036 608,-1036" /><polygon points="896,-1044 824,-1044 824,-1036 840,-1036 896,-1036" /><polygon points="1092,-948 972,-948 868,-948 868,-948 967,-948 1092,-948" /><polygon points="720,-1004 750,-968 720,-968" /><polygon points="720,-1036 720,-1004 720,-968 640,-968 632,-968 632,-1036" /><polygon points="760,-956 840,-956 840,-948 640,-948 640,-956" /><polygon points="640,-968 720,-968 750,-968 760,-956 640,-956" /><polygon points="632,-968 640,-968 640,-956 640,-948 632,-948" /><polygon points="720,-1004 720,-1036 720,-1036 720,-1004" /><polygon points="840,-956 760,-956 760,-956 839,-956 840,-956" /><polygon points="750,-968 720,-1004 720,-1004 750,-968 760,-956 760,-956" /><polygon points="608,-1036 632,-1036 632,-968 632,-948 520,-948 520,-1036" /><polygon points="1208,-948 1208,-948 1208,-912 1208,-912" /><polygon points="640,-948 640,-912 632,-912 632,-948" /><polygon points="840,-948 840,-912 640,-912 640,-948" /><polygon points="868,-948 972,-948 972,-912 840,-912 840,-948" /><polygon points="972,-912 972,-948 1092,-948 1208,-948 1208,-912" /><polygon points="916,-573 916,-573 916,-573 926.1489,-564 969,-526 969,-526" /><polygon points="840,-820 840,-820 840,-692 840,-692" /><polygon points="967,-820 967,-820 972,-820 972,-820" /><polygon points="972,-824.0976 972,-838 972,-912 1208,-912 1208,-820 981.8814,-820" /><polygon points="972,-824.0976 981.8814,-820 972,-820" /><polygon points="972,-912 972,-838 861,-838 840,-838 840,-912" /><polygon points="916,-820 967,-820 972,-820 972,-824.0976 972,-838 861,-838 861,-820" /><polygon points="972,-838 972,-838 967,-838 861,-838 861,-838" /><polygon points="861,-838 861,-838 861,-820 861,-820" /><polygon points="972,-838 972,-838 861,-838 861,-838" /><polygon points="916,-797 916,-692 916,-573 916,-573 916,-797" /><polygon points="916,-573 916,-692 916,-692 916,-692 916,-692 916,-671 916,-573" /><polygon points="1088,-776 1129,-759 1129,-759 1105.9623,-768.5521 1088,-776" /><polygon points="1208,-820 1208,-726.2434 1129,-759 1088,-776 1058.5488,-788.2111 981.8814,-820" /><polygon points="1159.7142,-614 1175.9541,-640.2335 1208,-692 1208,-692 1159,-612.8463 1156,-608 1156,-608" /><polygon points="1129,-759 1146,-716 1146,-716 1129,-759" /><polygon points="1208,-692 1175.9541,-640.2335 1146,-716 1129,-759 1208,-726.2434" /><polygon points="1014.7915,-626.6457 1020,-618.6912 1023.0714,-614 1027,-608 1027,-608 972,-692 972,-692" /><polygon points="1146,-716 1129,-674 1129,-674 1146,-716" /><polygon points="1146,-716 1175.9541,-640.2335 1159.7142,-614 1104.7146,-614" /><polygon points="1159.7142,-614 1156,-608 1102.2858,-608 1104.7146,-614" /><polygon points="1129,-674 1088,-657 1088,-657 1129,-674" /><polygon points="1088,-657 1047,-674 1047,-674 1061.3691,-668.0421 1088,-657" /><polygon points="1047,-674 1030,-716 1030,-716 1047,-674" /><polygon points="1030,-716 1047,-759 1047,-759 1030,-716" /><polygon points="1058.5488,-788.2111 1088,-776 1047,-759" /><polygon points="1047,-759 1088,-776 1088,-776 1047,-759" /><polygon points="989.1194,-817 1020,-804.1956 1020,-740.706" /><polygon points="1020,-804.1956 1058.5488,-788.2111 1047,-759 1030,-716 1020,-740.706" /><polygon points="1030,-716 1020,-690.7058 1020,-740.706" /><polygon points="1047,-674 1020,-685.1951 1020,-690.7058 1030,-716" /><polygon points="981.8814,-820 989.1194,-817 1020,-740.706 1020,-690.7058 1020,-685.1951 972,-705.0976 972,-820" /><polygon points="1020,-685.1951 1020,-628.8049 1014.7915,-626.6457 972,-692 972,-705.0976" /><polygon points="1020,-685.1951 1088,-657 1020,-628.8049" /><polygon points="1102.2858,-608 1027,-608 1023.0714,-614 1104.7146,-614" /><polygon points="1023.0714,-614 1020,-618.6912 1020,-628.8049 1088,-657 1129,-674 1104.7146,-614" /><polygon points="1020,-628.8049 1020,-618.6912 1014.7915,-626.6457" /><polygon points="916,-692 916,-797 916,-820 861,-820 840,-820 840,-692" /><polygon points="704,-820 840,-820 840,-820 705,-820 704,-820" /><polygon points="840,-912 840,-838 840,-820 704,-820 695,-828 640,-876.8889 640,-912" /><polygon points="640,-912 640,-876.8889 632,-884 632,-912" /><polygon points="640,-876.8889 695,-828 695,-828 695,-828 663.5,-856 632,-884 632,-884 632,-884" /><polygon points="824,-692 824,-692 824,-654.5849 824,-654.5849 824,-692" /><polygon points="840,-692 824,-692 824,-692 840,-692" /><polygon points="824,-692 840,-692 840,-692 840,-692 824,-692" /><polygon points="824,-564 824,-652 824,-652 824,-564" /><polygon points="824,-564 824,-564 777.9387,-525.6155 680,-444 680,-444" /><polygon points="520,-884 632,-884 632,-884 520,-884" /><polygon points="632,-948 632,-912 632,-884 520,-884 520,-948" /><polygon points="680,-444 680,-444 640,-414.9089 592,-380 592,-380" /><polygon points="520,-948 520,-884 384,-884 384,-1036 520,-1036" /><polygon points="384,-884 520,-884 520,-884 520,-884 480,-884 320,-884 320,-884" /><polygon points="320,-1036 184,-1036 184,-1036 224,-1036 320,-1036" /><polygon points="259.0707,-435.6768 304,-548 238.3953,-462.7139" /><polygon points="298.1538,-384.5681 339.3185,-413.0667 334.6383,-434.1277 307.4286,-556.5715 304,-548 259.0707,-435.6768" /><polygon points="384,-444 334.6383,-434.1277 339.3185,-413.0667" /><polygon points="320,-588 307.4286,-556.5715 334.6383,-434.1277 384,-444 424,-452" /><polygon points="307.4286,-556.5715 320,-588 320,-588 307.4286,-556.5714 304,-548 304,-548" /><polygon points="304,-548 304,-548 238.3953,-462.7139 238.3953,-462.7139" /><polygon points="1171,-952 1139,-938 1126,-904 1139,-872 1171,-858 1202,-872 1215,-904 1202,-938" /><polygon points="1245,-709 1245,-709 1245,-709 1245,-570 1245,-570" /><polygon points="1245,-570 1245,-570 1194.3043,-526 1194.3043,-526" /><polygon points="1194.3043,-526 1194.3043,-526 969,-526 969,-526" /><polygon points="1194.3043,-526 969,-526 969,-526 969,-526 1150.1489,-526 1194.3043,-526" /><polygon points="1171,-858 1139,-872 1126,-904 1139,-938 1171,-952 1202,-938 1215,-904 1202,-872" /><polygon points="1171,-952 1171,-952 1202,-938 1202,-938" /><polygon points="1139,-938 1139,-938 1171,-952 1171,-952" /><polygon points="1202,-938 1202,-938 1215,-904 1215,-904" /><polygon points="1126,-904 1126,-904 1139,-938 1139,-938" /><polygon points="1215,-904 1215,-904 1202,-872 1202,-872" /><polygon points="1139,-872 1139,-872 1126,-904 1126,-904" /><polygon points="1202,-872 1202,-872 1171,-858 1171,-858" /><polygon points="1171,-858 1171,-858 1139,-872 1139,-872" /><polygon points="1230,-912 1230,-912 1230,-732 1230,-732" /><polygon points="1230,-732 1245,-709 1245,-709 1245,-709 1245,-709 1237.6755,-720.2308 1230,-732" /><polygon points="972,-692 972,-692 972,-820 972,-820 972,-705.0976 972,-692" /><polygon points="1118.4146,-738.8576 1109,-743 1084,-754 1076.6553,-757.2317 1085,-761 1105.5792,-751.3964 1115,-747" /><polygon points="1076.655,-674.7685 1109,-689 1105.5792,-680.6036 1085,-671" /><polygon points="1044.5505,-724.4669 1059,-689 1050.8118,-692.6028 1041,-716" /><polygon points="1084,-754 1059,-743 1062.1244,-750.6691 1076.6553,-757.2317" /><polygon points="1062.1244,-750.6691 1048,-716 1044.5505,-724.4669 1054,-747" /><polygon points="1050.8118,-692.6028 1084,-678 1076.655,-674.7685 1054,-685" /><polygon points="1105.5792,-680.6036 1109,-689 1120,-716 1123.9423,-706.3236 1115,-685" /><polygon points="1123.9423,-706.3236 1109,-743 1118.4146,-738.8576 1128,-716" /><polygon points="1027,-608 1027,-608 1023.0714,-614 1008.8554,-635.7117 972,-692 972,-692" /><polygon points="1128,-716 1118.4146,-738.8576 1115,-747 1115,-747 1118.4146,-738.8576 1128,-716" /><polygon points="1109,-743 1120,-716 1120,-716 1109,-743" /><polygon points="1115,-747 1105.5792,-751.3964 1105.5792,-751.3964 1115,-747" /><polygon points="1123.9423,-706.3236 1128,-716 1128,-716 1123.9423,-706.3236" /><polygon points="1115,-685 1123.9423,-706.3236 1123.9423,-706.3236 1115,-685" /><polygon points="1120,-716 1109,-689 1109,-689 1120,-716" /><polygon points="1105.5792,-680.6036 1115,-685 1115,-685 1105.5796,-680.6038" /><polygon points="1085,-671 1105.5792,-680.6036 1105.5796,-680.6038 1085,-671" /><polygon points="1109,-689 1084,-678 1084,-678 1109,-689" /><polygon points="1041,-716 1054,-685 1054,-685 1041,-716" /><polygon points="1085,-761 1062.1244,-750.6691 1054,-747 1054,-747 1062.1246,-750.6692 1076.6555,-757.2315 1085,-761" /><polygon points="1048,-716 1059,-743 1059,-743 1048,-716" /><polygon points="1084,-754 1109,-743 1109,-743 1084,-754" /><polygon points="1105.5792,-751.3964 1085,-761 1085,-761 1105.5792,-751.3964" /><polygon points="1059,-743 1084,-754 1084,-754 1059,-743" /><polygon points="1054,-685 1076.655,-674.7685 1076.6556,-674.7684 1054,-685" /><polygon points="1084,-678 1059,-689 1059,-689 1084,-678" /><polygon points="1059,-689 1048,-716 1048,-716 1059,-689" /><polygon points="1054,-747 1041,-716 1041,-716 1054,-747" /><polygon points="1076.655,-674.7685 1085,-671 1085,-671 1076.6556,-674.7684" /><polygon points="1085,-749 1062,-739 1052,-716 1062,-693 1085,-683 1107,-693 1117,-716 1107,-739" /><polygon points="1085,-683 1062,-693 1052,-716 1062,-739 1085,-749 1107,-739 1117,-716 1107,-693" /><polygon points="1085,-749 1085,-749 1107,-739 1107,-739" /><polygon points="1062,-739 1062,-739 1085,-749 1085,-749" /><polygon points="1107,-739 1107,-739 1117,-716 1117,-716" /><polygon points="1052,-716 1052,-716 1062,-739 1062,-739" /><polygon points="1117,-716 1117,-716 1107,-693 1107,-693" /><polygon points="1062,-693 1062,-693 1052,-716 1052,-716" /><polygon points="1107,-693 1107,-693 1085,-683 1085,-683" /><polygon points="1085,-683 1085,-683 1062,-693 1062,-693" /><polygon points="1245,-709 1245,-709 1245,-684.6 1245,-570 1245,-570" /><polygon points="1245,-570 1245,-570 1194.3043,-526 1194.3043,-526" /><polygon points="916,-573 916,-573 969,-526 969,-526 969,-526" /><polygon points="1194.3043,-526 1194.3043,-526 1111.75,-526 969,-526 969,-526" /><polygon points="840,-820 840,-820 840,-760 840,-692 840,-692" /><polygon points="1230,-912 1230,-912 1230,-732 1230,-732" /><polygon points="1245,-709 1245,-709 1230,-732 1230,-732" /><polygon points="916,-820 916,-820 967,-820 967,-820 967,-820 916,-820" /><polygon points="916,-820 916,-820 916,-797 916,-797" /><polygon points="-223,-1141 -223,-965 -223,-965 -223,-1141" /><polygon points="288,-676 288,-676 252.7059,-676 252.7059,-676" /><polygon points="252.7059,-676 184,-676 184,-676 252.7059,-676" /><polygon points="130,-676 -94,-676 -94,-676 22,-676 130,-676" /><polygon points="184,-676 130,-676 130,-676 184,-676" /><polygon points="67,-1285 67,-1285 6,-1285 -56,-1285 -107,-1285 -107,-1285" /><polygon points="-107,-1285 -107,-1285 -223,-1141 -223,-1141" /><polygon points="160,-1143.5213 160,-1143.5213 67,-1285 67,-1285" /><polygon points="-94,-890 -94,-890 -94,-739 -94,-676 -94,-676" /><polygon points="86,-891 22,-891 22,-891 86,-891" /><polygon points="160,-965 160,-965 159,-964 86,-891 86,-891" /><polygon points="160,-1143.5213 160,-1143.5213 160,-965 160,-965" /><polygon points="22,-891 22,-794 22,-794 22,-891" /><polygon points="156,-794 22,-794 22,-794 156,-794" /><polygon points="22,-794 156,-794 156,-794 22,-794" /><polygon points="156,-794 156,-794 161,-794 184,-794 184,-794 184,-794 156,-794" /><polygon points="-137.1448,-890 -94,-890 -94,-890 -137.1447,-890" /><polygon points="-223,-965 -223,-965 -221.8553,-964 -220.7105,-963 -137.1447,-890 -137.1448,-890" /><polygon points="-82,-1174 -82,-1174 -94,-1161.2258 -113,-1141 -113,-1141" /><polygon points="-79,-1166 -79,-1166 -100,-1141 -100,-1141" /><polygon points="51,-1141 62,-1141 62,-1141 51,-1141" /><polygon points="32,-1174 32,-1174 62,-1141 62,-1141" /><polygon points="28,-1166 28,-1166 51,-1141 51,-1141" /><polygon points="320,-644 320,-644 320,-588 320,-588 320,-644" /><polygon points="320,-676 320,-676 320,-676 320,-644 320,-644 320,-644 320,-644" /><polygon points="252.7059,-676 288,-676 288,-676 252.7059,-676" /><polygon points="320,-676 320,-676 288,-676 288,-676 288,-676 288,-676 320,-676" /><polygon points="252.7059,-676 184,-676 184,-676 252.7059,-676" /><polygon points="184,-676 252.7059,-676 252.7059,-676 224,-676 184,-676" /><polygon points="130,-676 -75,-676 -94,-676 -94,-676 130,-676" /><polygon points="184,-676 161,-676 130,-676 130,-676 184,-676" /><polygon points="-94,-1285 67,-1285 67,-1285 -107,-1285 -107,-1285" /><polygon points="160,-1143.5213 156,-1149.6064 156,-1141 156,-964 159,-964 160,-965" /><polygon points="-94,-1141 51,-1141 28,-1166 -79,-1166 -100,-1141" /><polygon points="32,-1174 78.6435,-1267.287 67,-1285 -94,-1285 -94,-1206 -82,-1174" /><polygon points="-223,-1141 -113,-1141 -94,-1161.2258 -94,-1206 -94,-1285 -107,-1285" /><polygon points="62,-1141 130,-1141 156,-1141 156,-1149.6064 78.6435,-1267.287 32,-1174" /><polygon points="-94,-1161.2258 -82,-1174 -94,-1206" /><polygon points="62,-1141 51,-1141 -94,-1141 -94,-964 -75,-964 22,-964 130,-964 130,-1141" /><polygon points="130,-964 156,-964 156,-1141 130,-1141" /><polygon points="-94,-964 -94,-1141 -100,-1141 -113,-1141 -223,-1141 -223,-965 -168.0526,-917 -94,-917" /><polygon points="-168.0526,-917 -137.1447,-890 -94,-890 -94,-917" /><polygon points="159,-964 156,-964 130,-964 22,-964 22,-891 86,-891" /><polygon points="130,-676 161,-676 161,-794 156,-794 22,-794 -75,-794 -75,-740 -75,-676" /><polygon points="22,-794 22,-891 22,-964 -75,-964 -75,-794" /><polygon points="-75,-794 -75,-964 -94,-964 -94,-917 -94,-890 -94,-740 -75,-740" /><polygon points="-94,-740 -94,-676 -75,-676 -75,-740" /><polygon points="161,-794 161,-676 161,-676 161,-794" /><polygon points="-107,-1285 -107,-1285 -223,-1141 -223,-1141" /><polygon points="78.6435,-1267.287 156,-1149.6064 160,-1143.5213 160,-1143.5213 67,-1285 67,-1285" /><polygon points="-82,-1174 -82,-1174 32,-1174 32,-1174" /><polygon points="-79,-1166 -79,-1166 -100,-1141 -100,-1141" /><polygon points="-94,-740 -94,-890 -94,-890 -94,-676 -94,-676" /><polygon points="22,-891 22,-891 86,-891 86,-891" /><polygon points="62,-1141 62,-1141 51,-1141 51,-1141" /><polygon points="32,-1174 32,-1174 62,-1141 62,-1141" /><polygon points="28,-1166 28,-1166 -79,-1166 -79,-1166" /><polygon points="22,-794 22,-794 22,-891 22,-891" /><polygon points="-168.0526,-917 -223,-965 -223,-965 -137.1448,-890 -137.1447,-890" /><polygon points="-100,-1141 -100,-1141 -113,-1141 -113,-1141" /><polygon points="1213,-912 1230,-912 1230,-912 1230,-912 1230,-912 1213,-912" /><polygon points="1208,-948 1208,-948 1208,-912 1208,-912" /><polygon points="967,-527.7736 916,-573 916,-573 969,-526 969,-526" /><polygon points="1245,-684.6 1230,-687.6 1230,-564 1238.087,-564 1245,-570" /><polygon points="1230,-732 1230,-718.7037 1230,-687.6 1245,-684.6 1245,-709" /><polygon points="1238.087,-564 1230,-564 1230,-556.9811" /><polygon points="1245,-709 1245,-709 1230,-732 1230,-732" /><polygon points="1159,-603 1213,-691 1213,-691 1200.7268,-671 1162.068,-608 1159,-603" /><polygon points="1230,-564 1182.4,-564 1135.0682,-564 1111.75,-526 1194.3043,-526 1230,-556.9811" /><polygon points="1182.4,-564 1159,-603 1135.0682,-564" /><polygon points="1230,-687.6 1213,-691 1159,-603 1182.4,-564 1230,-564" /><polygon points="1213,-691 1230,-687.6 1230,-718.7037" /><polygon points="1208,-912 1208,-694.7593 1208,-692 1208,-692 1208,-726.2434 1208,-820 1208,-912" /><polygon points="1230,-732 1230,-912 1213,-912 1213,-691 1230,-718.7037" /><polygon points="1213,-912 1213,-912 1213,-912 1213,-691 1213,-691" /><polygon points="972,-820 972,-820 972,-838 972,-838 972,-824.0976 972,-820" /><polygon points="916,-573 916,-573 916,-596 916,-797 916,-797 916,-573" /><polygon points="967,-564 967,-691 967,-692 967,-692 967,-596 967,-527.7736 967,-527.7736" /><polygon points="967,-692 967,-820 967,-820 967,-692" /><polygon points="1208,-692 1208,-694.7593 1159,-614.0011 1159,-612.8463" /><polygon points="1023.0714,-614 1025,-614 1008.8554,-635.7117" /><polygon points="1159,-603 1025,-603 1020,-590.5001 1020,-564 1135.0682,-564" /><polygon points="1020,-590.5001 1025,-603 1020,-610.5862" /><polygon points="1025,-614 1023.0714,-614 1027,-608 1156,-608 1159,-612.8463 1159,-614.0011" /><polygon points="1020,-564 1020,-590.5001 1020,-610.5862 967,-691 967,-564" /><polygon points="1135.0682,-564 1020,-564 967,-564 967,-527.7736 969,-526 1111.75,-526" /><polygon points="1025,-614 1025,-614 1008.8554,-635.7117 1008.8554,-635.7117" /><polygon points="1025,-603 1159,-603 1159,-603 1025,-603" /><polygon points="1020,-610.5862 1025,-603 1025,-603 1021.7045,-608 1020,-610.5862 972,-683.4138 967,-691 967,-691" /><polygon points="1027,-608 1027,-608 1027,-608 1102.2858,-608 1156,-608 1156,-608" /><polygon points="720,-968 750,-968 720,-1004" /><polygon points="640,-1036 572,-1036 572,-996 572,-968 640,-968 720,-968 720,-1004 720,-1036" /><polygon points="448,-1036 320,-1036 224,-1036 224,-996 448,-996" /><polygon points="572,-996 572,-1036 544,-1036 448,-1036 448,-996" /><polygon points="1028.8,-820 972,-914.6667 972,-838 972,-820" /><polygon points="972,-914.6667 1028.8,-820 1191,-820 1191,-948 1092,-948 967,-948 967,-923" /><polygon points="1191,-820 1208,-820 1208,-912 1208,-948 1191,-948" /><polygon points="967,-923 967,-838 972,-838 972,-914.6667" /><polygon points="840,-838 861,-838 967,-838 967,-923 967,-948 868,-948 840,-948 839,-948 839,-838" /><polygon points="1025,-614 1159,-614 1208,-694.7594 1208,-820 1191,-820 1028.8,-820 972,-820 972,-692 1008.8554,-635.7117" /><polygon points="967,-692 967,-820 916,-820 916,-797 916,-596 967,-596" /><polygon points="916,-596 916,-573 967,-527.7736 967,-596" /><polygon points="840,-948 840,-956 839,-956 839,-948" /><polygon points="839,-760 840,-760 840,-820 840,-838 839,-838" /><polygon points="720,-760 780,-760 824,-760 839,-760 839,-838 839,-948 839,-956 760,-956 640,-956 640,-829.1892" /><polygon points="640,-956 760,-956 750,-968 720,-968 640,-968" /><polygon points="572,-888 640,-829.1892 640,-956 640,-968 572,-968" /><polygon points="840,-760 839,-760 824,-760 824,-692 840,-692" /><polygon points="824,-564 824,-652 824,-654.5849 824,-692 824,-760 780,-760 780,-569.3773 780,-564" /><polygon points="777.9387,-564 780,-564 780,-569.3773 772.9761,-564" /><polygon points="224,-996 224,-1036 184,-1036 184,-1018 184,-812 224,-812" /><polygon points="184,-812 184,-794 224,-794 224,-812" /><polygon points="349.6446,-620.992 320,-658.8868 320,-658.8712 320,-644 320,-588 364.6728,-529.5817 450.1408,-492.5276" /><polygon points="325.4545,-708 320,-708 320,-706.8" /><polygon points="332.0089,-700 330,-709 325.4545,-708 320,-706.8 320,-676 320,-658.8868 320,-658.8712 349.6446,-620.992" /><polygon points="224,-708 224,-676 252.7059,-676 288,-676 320,-676 320,-706.8 320,-708" /><polygon points="224,-708 224,-760 224,-794 184,-794 161,-794 161,-676 184,-676 224,-676" /><polygon points="777.9387,-564 772.9761,-564 596.6491,-429.0097 553.9387,-396.312 592,-380 640,-414.9089 680,-444 777.9387,-525.6155" /><polygon points="824,-564 780,-564 777.9387,-564 777.9387,-525.6155" /><polygon points="553.9387,-396.312 596.6491,-429.0097 450.1408,-492.5276 364.6728,-529.5817 424,-452" /><polygon points="380.8235,-481.3108 376.0089,-502.8802 385.1486,-491.1968" /><polygon points="448,-996 224,-996 224,-996 448,-996" /><polygon points="780,-569.3773 780,-760 780,-760 780,-569.3773" /><polygon points="224,-760 224,-708 224,-708 224,-760" /><polygon points="320,-708 325.4545,-708 325.4545,-708 224,-708 224,-708" /><polygon points="325.4545,-708 330,-709 330,-709 325.4545,-708" /><polygon points="376.0089,-502.8802 380.8235,-481.3108 380.8235,-481.3109 376.0089,-502.8801" /><polygon points="332.0089,-700 349.6446,-620.992 349.6447,-620.992 332.0089,-700" /><polygon points="772.9761,-564 780,-569.3773 780,-569.3773 772.9761,-564 596.649,-429.0096 596.6491,-429.0097" /><polygon points="596.6491,-429.0097 596.649,-429.0096 450.1408,-492.5276 450.1408,-492.5276" /><polygon points="385.1486,-491.1968 376.0089,-502.8802 376.0089,-502.8801 385.1486,-491.1968" /><polygon points="380.8235,-481.3108 385.1486,-491.1968 385.1486,-491.1968 380.8235,-481.3109" /><polygon points="184,-1036 184,-1036 184,-1018 184,-1018" /><polygon points="364.6728,-529.5817 320,-588 320,-588 424,-452 424,-452" /><polygon points="320,-644 320,-658.8712 320,-658.8868 320,-676 320,-676 320,-644" /><polygon points="544,-1036 572,-1036 640,-1036 608,-1036 544,-1036" /><polygon points="640,-414.9089 592,-380 592,-380" /><polygon points="720,-1036 720,-1036 632,-1036 608,-1036 608,-1036 640,-1036" /><polygon points="1191,-948 1208,-948 1208,-948 1208,-948 1092,-948 1092,-948" /><polygon points="868,-948 868,-948 840,-948 840,-948" /><polygon points="840,-948 840,-948 840,-956 840,-956" /><polygon points="916,-573 916,-573 967,-527.7736 967,-527.7736" /><polygon points="840,-838 840,-820 840,-820 840,-820 840,-838" /><polygon points="1208,-912 1208,-820 1208,-694.7594 1208,-694.7593 1208,-912" /><polygon points="861,-838 840,-838 840,-838 861,-838" /><polygon points="916,-797 916,-820 916,-820 916,-797" /><polygon points="972,-820 972,-820 972,-692 972,-692" /><polygon points="1025,-614 1025,-614 1159,-614.0011 1159,-614" /><polygon points="1159,-614 1159,-614.0011 1208,-694.7593 1208,-694.7594" /><polygon points="972,-692 972,-692 1008.8554,-635.7117 1008.8554,-635.7117" /><polygon points="824,-654.5849 824,-652 824,-652 824,-652 824,-654.5849" /><polygon points="161,-676 161,-676 184,-676 184,-676" /><polygon points="184,-794 184,-794 161,-794 161,-794" /><polygon points="384.7369,-463.7786 387.6534,-450.7126 387.6534,-450.7126 384.7369,-463.7786" /><polygon points="376.0089,-502.8801 376.0089,-502.8801 385.1486,-491.1968 385.1486,-491.1968" /><polygon points="417.8168,-449.437 417.8168,-449.437 486.4432,-361.7117 486.4432,-361.7118" /><polygon points="547,-391 547,-391 557.8042,-376.7106 557.8042,-376.7105" /><polygon points="271.8708,-636 271.7722,-636 271.7722,-636 280.125,-636 280.125,-636" /><polygon points="302.1907,-597.242 302.1907,-597.242 309.5119,-564 312.0694,-552.3876 314.9115,-539.483 328.8274,-476.2973 352.2974,-369.7308 352.2974,-369.7308" /><polygon points="603.0106,-369.1473 592.9331,-361.4323 592.933,-361.4323 603.0106,-369.1473" /><polygon points="572,-1036 572,-1040 572,-1040 572,-1036" /><polygon points="572,-1036 572,-1036 448,-1036 448,-1036" /><polygon points="206,-1042 224,-1042 224,-1042 206,-1042" /><polygon points="844,-760 854,-760 854,-760 844,-760" /><polygon points="854,-736 854,-512 854,-512 854,-564 854,-736" /><polygon points="795,-512 789.6077,-512 789.6076,-512 795,-512" /><polygon points="650.6329,-405.6053 675.3367,-394.8951 675.3367,-394.8951 650.6329,-405.6053" /><polygon points="224,-1042 224,-1042 224,-1036 224,-1036" /><polygon points="448,-1008 224,-1008 224,-1036 448,-1036" /><polygon points="572,-1036 572,-1008 448,-1008 448,-1036" /><polygon points="448,-1036 224,-1036 224,-1036 448,-1036" /><polygon points="210,-1008 206,-1008 206,-1042 224,-1042 224,-1036 224,-1008" /><polygon points="168,-1008 168,-1042 206,-1042 206,-1008" /><polygon points="720,-760 780,-760 780,-760 720,-760" /><polygon points="780,-760 720,-760 720,-760 780,-760 795,-760 795,-760" /><polygon points="572,-968 572,-996 572,-1008 572,-1008 572,-968" /><polygon points="572,-996 572,-968 572,-968 572,-996" /><polygon points="572,-968 572,-968 572,-888 572,-888 572,-968" /><polygon points="844,-760 844,-760 844,-776 844,-776 844,-760" /><polygon points="224,-784 224,-996 224,-996 224,-812 224,-794 224,-760 224,-760" /><polygon points="448,-996 224,-996 224,-1008 448,-1008" /><polygon points="572,-1008 572,-996 448,-996 448,-1008" /><polygon points="572,-996 572,-996 448,-996 448,-996" /><polygon points="210,-964 210,-1008 224,-1008 224,-996 224,-784 210,-784" /><polygon points="224,-784 224,-760 210,-760 210,-784" /><polygon points="854,-512 854,-512 795,-512 795,-512" /><polygon points="854,-760 854,-760 854,-736 854,-736" /><polygon points="844,-564 854,-564 854,-512 795,-512 795,-552.7692 809.6001,-564" /><polygon points="844,-590.4615 844,-564 809.6001,-564" /><polygon points="844,-590.4615 844,-760 854,-760 854,-736 854,-564 844,-564" /><polygon points="795,-564 795,-760 844,-760 844,-590.4615 809.6001,-564 795,-552.7692" /><polygon points="780,-569.3773 780,-760 795,-760 795,-564 780,-564" /><polygon points="780,-564 795,-564 795,-552.7692 780,-541.2311" /><polygon points="325.4545,-708 330,-709 332.0089,-700 315,-700 315,-705.7" /><polygon points="325.4545,-708 315,-705.7 289.0909,-700 256.7848,-700 224,-700 224,-708" /><polygon points="289.0909,-700 315,-705.7 315,-700" /><polygon points="330,-709 330,-709 332.0089,-700 332.0089,-700" /><polygon points="224,-760 224,-708 224,-700 210,-700 210,-740 210,-760" /><polygon points="772.9761,-564 780,-569.3773 780,-564" /><polygon points="332.0089,-700 349.6447,-620.992 319.9836,-658.9077 315.981,-676 315,-680.1892 315,-700" /><polygon points="342.2089,-564 328.5459,-622.3447 374.1882,-564" /><polygon points="319.9836,-658.9077 328.5459,-622.3447 342.2089,-564 328.1956,-564 302.1907,-597.242 275,-632 280.125,-636 316,-664" /><polygon points="328.1956,-564 309.5119,-564 302.1907,-597.242" /><polygon points="328.5459,-622.3447 319.9836,-658.9077 349.6447,-620.992 450.1408,-492.5276 419.815,-505.6751" /><polygon points="315,-676 315,-680.1892 315.981,-676" /><polygon points="289.0909,-700 315,-700 315,-680.1892 315,-676 306.6125,-676 262.4051,-676 256.7848,-700" /><polygon points="315,-676 315.981,-676 319.9836,-658.9077 316,-664 306.6125,-676" /><polygon points="306.6125,-676 316,-664 280.125,-636 271.7722,-636 262.4051,-676" /><polygon points="596.649,-429.0096 772.9761,-564 780,-564 780,-541.2311 610.5658,-410.8968 586.603,-421.3187" /><polygon points="450.1408,-492.5276 596.649,-429.0096 586.603,-421.3187 433.8264,-487.7644 419.815,-505.6751" /><polygon points="496,-408.2877 501.5696,-401.1681 515,-384 496,-369.1707" /><polygon points="528,-393 525.2626,-390.8635 501.5696,-401.1681 496,-408.2877 496,-415.5411 517.7394,-406.1161" /><polygon points="586.603,-421.3187 549.0269,-392.5517 517.7394,-406.1161 487.4136,-419.2637 433.8264,-487.7644" /><polygon points="547,-391 549.0269,-392.5517 586.603,-421.3187 610.5658,-410.8968 563.1189,-374.3991 557.8042,-376.7106" /><polygon points="377.9607,-474.7673 387.491,-462.5846 368.328,-470.8926 372.8701,-481.2745" /><polygon points="487.4136,-419.2637 496,-415.5411 496,-408.2877 496,-369.1707 486.4432,-361.7117 417.8168,-449.437" /><polygon points="315,-539.4445 314.9115,-539.483 312.0694,-552.3876 319.8924,-548.996 333.7407,-531.2938" /><polygon points="315,-539.4445 333.7407,-531.2938 356.7582,-501.8705 365.5171,-464.4676 364,-461 328.8274,-476.2973 314.9115,-539.483" /><polygon points="372.8701,-481.2745 356.7582,-501.8705 333.7407,-531.2938 319.8924,-548.996 350.2182,-535.8484 376.0089,-502.8801 380.8235,-481.3108 377.9607,-474.7673" /><polygon points="356.7582,-501.8705 372.8701,-481.2745 368.328,-470.8926 365.5171,-464.4676" /><polygon points="396,-516 350.2182,-535.8484 319.8924,-548.996 312.0694,-552.3876 309.5119,-564 328.1956,-564 342.2089,-564 374.1882,-564 419.815,-505.6751" /><polygon points="364,-461 365.5171,-464.4676 368.328,-470.8926 384.7369,-463.7786 387.6534,-450.7126" /><polygon points="328.8274,-476.2973 364,-461 366.5932,-459.8722 384.3607,-384 386,-377 352.2974,-369.7308" /><polygon points="385.1486,-491.1968 376.0089,-502.8801 350.2182,-535.8484 396,-516" /><polygon points="433.8264,-487.7644 487.4136,-419.2637 417.8168,-449.437 387.491,-462.5846 377.9607,-474.7673 380.8235,-481.3108 385.1486,-491.1968 396,-516 419.815,-505.6751" /><polygon points="376.0089,-502.8801 376.0089,-502.8801 380.8235,-481.3109 380.8235,-481.3108" /><polygon points="517.7394,-406.1161 549.0269,-392.5517 549.0268,-392.5516 517.7394,-406.1161" /><polygon points="417.8168,-449.437 417.8168,-449.437 387.4909,-462.5846 384.7369,-463.7786 384.7369,-463.7786" /><polygon points="349.6447,-620.992 349.6446,-620.992 450.1408,-492.5276 450.1408,-492.5276" /><polygon points="385.1486,-491.1968 380.8235,-481.3108 380.8235,-481.3109 385.1486,-491.1968" /><polygon points="528,-393 517.7394,-406.1161 517.7394,-406.1161 528,-393" /><polygon points="549.0269,-392.5517 547,-391 547,-391 549.0268,-392.5516" /><polygon points="525.2626,-390.8635 528,-393 528,-393 525.2626,-390.8635" /><polygon points="280.125,-636 275,-632 275,-632 280.125,-636" /><polygon points="302.1907,-597.242 302.1907,-597.242 275,-632 275,-632" /><polygon points="271.7722,-636 210,-636 210,-676 262.4051,-676" /><polygon points="262.4051,-676 210,-676 210,-700 224,-700 256.7848,-700" /><polygon points="610.5658,-410.8968 640.5248,-397.867 603.0106,-369.1473 592.933,-361.4323 563.1189,-374.3991" /><polygon points="640.5248,-397.867 665.2007,-387.1349 700,-372 683.4874,-334.257 603.0106,-369.1473" /><polygon points="650.6329,-405.6053 675.3367,-394.8951 665.2007,-387.1349 640.5248,-397.867" /><polygon points="789.6076,-512 780,-504.6447 780,-512" /><polygon points="780,-541.2311 780,-512 780,-504.6447 650.6329,-405.6053 640.5248,-397.867 610.5658,-410.8968" /><polygon points="795,-512 789.6076,-512 780,-512 780,-541.2311 795,-552.7692" /><polygon points="780,-504.6447 789.6076,-512 789.6077,-512 650.6329,-405.6053 650.6329,-405.6053" /><polygon points="603.0106,-369.1473 683.4874,-334.257 683.4874,-334.257 603.0106,-369.1473" /><polygon points="210,-636 168,-636 168,-676 210,-676" /><polygon points="168,-964 206,-964 210,-964 210,-784 210,-760 210,-740 168,-740" /><polygon points="210,-740 210,-700 210,-676 168,-676 168,-700 168,-740" /><polygon points="206,-964 206,-1008 210,-1008 210,-964" /><polygon points="168,-964 168,-1008 206,-1008 206,-964" /><polygon points="166,-700 168,-700 168,-676 166,-676" /><polygon points="168,-636 166,-636 166,-676 168,-676" /><polygon points="157,-676 157,-700 166,-700 166,-676" /><polygon points="166,-636 157,-636 157,-676 166,-676" /><polygon points="842,-1040 842,-1040 796,-1040 604,-1040 604,-1040" /><polygon points="604,-1040 604,-1040 572,-1040 572,-1040 572,-1040 604,-1040" /><polygon points="780,-760 720,-760 720,-760 795,-760 795,-760" /><polygon points="795,-760 795,-760 842,-760 844,-760 844,-760 795,-760" /><polygon points="572,-968 572,-1008 572,-1008 572,-888 572,-888" /><polygon points="720,-760 720,-760 720,-760 640,-829.1892 572,-888 572,-888" /><polygon points="842,-760 795,-760 720,-760 720,-760 796,-760 842,-760" /><polygon points="572,-1040 572,-1008 572,-1008 572,-1008 572,-1036 572,-1040" /><polygon points="572,-1040 604,-1040 796,-1040 796,-1008 572,-1008" /><polygon points="796,-1040 842,-1040 842,-1008 796,-1008" /><polygon points="692.25,-784 572,-888 572,-1008 796,-1008 796,-784" /><polygon points="796,-760 720,-760 692.25,-784 796,-784" /><polygon points="842,-1008 842,-784 796,-784 796,-1008" /><polygon points="842,-784 842,-760 796,-760 796,-784" /><polygon points="692.25,-784 720,-760 720,-760 720,-760 572,-888 572,-888" /></g></defs><rect fill="#fff" height="1904.0" id="background" width="1760.0" x="-369.0" y="-1522.0" /><use fill="none" stroke="black" stroke-miterlimit="0" stroke-width="15" xlink:href="#bsp_ref" /><use fill="white" stroke="black" stroke-width="1" xlink:href="#bsp_ref" /></svg>