<?xml version="1.0" encoding="utf-8" ?>
<svg baseProfile="tiny" height="100%" version="1.2" viewBox="-766.0 -758.0 1532.0 1516.0" width="100%" xmlns="http://www.w3.org/2000/svg" xmlns:ev="http://www.w3.org/2001/xml-events" xmlns:xlink="http://www.w3.org/1999/xlink"><defs><g id="bsp_ref"><polygon points="-32,512 -32,512 -32,512 -64,512 -64,512" /><polygon points="512,512 512,512 480,512 480,512" /><polygon points="-512,-256 -512,-64 -512,-32 -512,-32 -512,-32 -512,-160 -512,-256" /><polygon points="-512,-480 -512,-288 -512,-256 -512,-256 -512,-384 -512,-480" /><polygon points="-512,288 -512,480 -512,512 -512,512 -512,288" /><polygon points="-512,64 -512,256 -512,288 -512,288 -512,64" /><polygon points="512,-512 512,-512 512,-480 512,-480" /><polygon points="512,32 512,32 512,32 512,64 512,64" /><polygon points="-288,-512 -384,-512 -512,-512 -512,-512 -288,-512" /><polygon points="-64,-512 -160,-512 -288,-512 -288,-512 -64,-512" /><polygon points="256,-512 64,-512 32,-512 32,-512 32,-512 160,-512 256,-512" /><polygon points="480,-512 288,-512 256,-512 256,-512 384,-512 480,-512" /><polygon points="-384,384 -384,320 -384,320 -384,384" /><polygon points="-384,256 -384,128 -384,128 -384,128 -384,192 -384,256 -384,320 -384,320 -384,320" /><polygon points="-384,-384 -384,-384 -384,-384 -384,-320 -384,-288 -384,-288" /><polygon points="320,-384 384,-384 384,-384 320,-384" /><polygon points="288,-384 320,-384 320,-384 320,-384 256,-384 192,-384 128,-384 128,-384 128,-384" /><polygon points="-64,-384 -64,-384 -64,-384 -128,-384 -144,-384 -144,-384" /><polygon points="-384,-384 -368,-384 -368,-384 -384,-384" /><polygon points="-32,-448 -32,-512 -32,-512 -32,-448" /><polygon points="288,-384 128,-384 64,-384 64,-448 64,-512 256,-512 288,-512" /><polygon points="480,-512 512,-512 512,-480 512,-384 384,-384 320,-384 288,-384 288,-512" /><polygon points="32,-448 32,-512 64,-512 64,-448" /><polygon points="-32,-384 -32,-448 32,-448 64,-448 64,-384" /><polygon points="32,-512 32,-448 32,-448 32,-512" /><polygon points="32,-448 -32,-448 -32,-448 32,-448" /><polygon points="-160,-384 -368,-384 -384,-384 -384,-512 -288,-512 -160,-512" /><polygon points="-64,-512 -32,-512 -32,-448 -32,-384 -64,-384 -144,-384 -160,-384 -160,-512" /><polygon points="384,-288 384,-160 384,-64 384,-64 384,-64 384,-128 384,-192 384,-256 384,-288" /><polygon points="384,320 384,384 384,384 384,320" /><polygon points="512,32 448,32 448,32 512,32" /><polygon points="448,-32 512,-32 512,-32 448,-32" /><polygon points="384,-288 384,-384 512,-384 512,-256 512,-160 384,-160" /><polygon points="512,-160 512,-32 448,-32 384,-32 384,-64 384,-160" /><polygon points="448,32 448,-32 448,-32 448,32" /><polygon points="384,32 384,-32 448,-32 448,32" /><polygon points="384,128 384,64 384,32 448,32 512,32 512,64 512,256 384,256" /><polygon points="512,256 512,288 512,480 384,480 384,448 384,384 384,320 384,256" /><polygon points="512,480 512,512 480,512 384,512 384,480" /><polygon points="128,56 128,-64 168,-64 296,-64 352,-64 352,64 296,64 168,64 128,64" /><polygon points="352,-64 384,-64 384,-32 384,32 384,64 352,64" /><polygon points="-32,-384 64,-384 64,-296 64,-168 64,-160 -64,-160 -64,-168 -64,-296 -64,-384" /><polygon points="64,-160 64,-128 56,-128 -64,-128 -64,-160" /><polygon points="56,-56 56,-128 64,-128 128,-128 128,-64 128,56 56,56" /><polygon points="-64,-128 56,-128 56,-56 -56,-56 -128,-56 -128,-64 -128,-128" /><polygon points="256,512 32,512 32,448 64,448 256,448" /><polygon points="288,448 384,448 384,480 384,512 256,512 256,448" /><polygon points="288,448 256,448 64,448 64,384 128,384 288,384" /><polygon points="320,384 384,384 384,448 288,448 288,384" /><polygon points="56,56 128,56 128,64 128,128 64,128 -32,128 -56,128 -56,56" /><polygon points="-32,128 64,128 64,168 64,296 64,352 -32,352" /><polygon points="64,352 64,384 64,448 32,448 -32,448 -32,384 -32,352" /><polygon points="-128,64 -128,-56 -56,-56 -56,56 -56,128 -64,128 -128,128" /><polygon points="-384,32 -384,-32 -384,-64 -296,-64 -168,-64 -160,-64 -160,64 -168,64 -296,64 -384,64" /><polygon points="-160,-64 -128,-64 -128,-56 -128,64 -160,64" /><polygon points="-64,296 -64,168 -64,128 -56,128 -32,128 -32,352 -64,352" /><polygon points="-32,352 -32,384 -64,384 -64,352" /><polygon points="-160,512 -288,512 -384,512 -384,480 -384,384 -160,384" /><polygon points="-64,384 -32,384 -32,448 -32,512 -64,512 -160,512 -160,384" /><polygon points="352,64 384,64 384,64 296,64 296,64 296,64" /><polygon points="168,64 296,64 296,64 168,64" /><polygon points="-296,64 -168,64 -168,64 -296,64" /><polygon points="296,-64 168,-64 168,-64 296,-64" /><polygon points="64,-384 64,-384 64,-296 64,-296 64,-296" /><polygon points="64,-168 64,-296 64,-296 64,-168" /><polygon points="-168,-64 -296,-64 -296,-64 -168,-64" /><polygon points="-64,-296 -64,-168 -64,-168 -64,-296" /><polygon points="-56,-56 -56,-56 -56,-48 -56,-32 -56,32 -56,48 -56,56 -56,56" /><polygon points="56,-56 56,-56 -56,-56 -56,-56" /><polygon points="32,448 32,512 32,512 32,448" /><polygon points="384,384 320,384 320,384 384,384" /><polygon points="64,352 64,296 64,296 64,296 64,384 64,384" /><polygon points="64,296 64,168 64,168 64,296" /><polygon points="-160,384 -384,384 -384,384 -384,384 -320,384 -256,384 -192,384 -160,384" /><polygon points="-64,168 -64,296 -64,296 -64,168" /><polygon points="-32,512 -32,448 -32,448 -32,512" /><polygon points="-32,448 32,448 32,448 -32,448" /><polygon points="-512,-32 -448,-32 -448,-32 -512,-32" /><polygon points="-512,-480 -512,-512 -384,-512 -384,-384 -384,-288 -512,-288" /><polygon points="-384,-288 -384,-64 -512,-64 -512,-256 -512,-288" /><polygon points="-384,-64 -384,-32 -448,-32 -512,-32 -512,-64" /><polygon points="-448,32 -512,32 -512,32 -448,32" /><polygon points="-448,-32 -448,32 -448,32 -448,-32" /><polygon points="-448,-32 -384,-32 -384,32 -448,32" /><polygon points="-512,64 -512,32 -448,32 -384,32 -384,64 -384,128 -384,256 -512,256" /><polygon points="-384,256 -384,320 -384,384 -384,480 -512,480 -512,288 -512,256" /><polygon points="-384,480 -384,512 -512,512 -512,480" /><polygon points="-448,32 -512,32 -512,32 -448,32" /><polygon points="-448,-32 -448,32 -448,32 -448,-32" /><polygon points="-512,-32 -448,-32 -448,-32 -512,-32" /><polygon points="-512,32 -512,-32 -512,-32 -512,32" /><polygon points="-512,-32 -512,32 -448,32 -448,-32" /><polygon points="32,512 32,512 -32,512 -32,512" /><polygon points="-512,32 -512,32 -512,-32 -512,-32" /><polygon points="512,-32 512,-32 512,32 512,32" /><polygon points="-32,-512 -32,-512 32,-512 32,-512" /><polygon points="32,-448 -32,-448 -32,-512 32,-512" /><polygon points="512,32 448,32 448,-32 512,-32" /><polygon points="-296,64 -168,64 -168,138.2857 -168,168 -296,168" /><polygon points="32,512 -32,512 -32,448 32,448" /><polygon points="-448,32 -512,32 -512,-32 -448,-32" /><polygon points="-32,-448 -32,-512 -32,-512 -32,-448" /><polygon points="-32,-512 32,-512 32,-512 -32,-512" /><polygon points="32,-512 32,-448 32,-448 32,-512" /><polygon points="32,-448 -32,-448 -32,-448 32,-448" /><polygon points="-32,-512 -32,-448 32,-448 32,-512" /><polygon points="-448,32 -512,32 -512,-32 -448,-32" /><polygon points="-32,512 -32,448 -32,448 -32,512" /><polygon points="-32,448 32,448 32,448 -32,448" /><polygon points="32,448 32,512 32,512 32,448" /><polygon points="32,512 -32,512 -32,512 32,512" /><polygon points="-32,448 -32,512 32,512 32,448" /><polygon points="512,32 448,32 448,32 512,32" /><polygon points="512,-32 512,32 512,32 512,-32" /><polygon points="448,-32 512,-32 512,-32 448,-32" /><polygon points="448,32 448,-32 448,-32 448,32" /><polygon points="448,-32 448,32 512,32 512,-32" /><polygon points="32,-448 -32,-448 -32,-512 32,-512" /><polygon points="32,512 -32,512 -32,448 32,448" /><polygon points="512,32 448,32 448,-32 512,-32" /><polygon points="-384,320 -384,320 -384,320 -384,320 -384,384 -384,384 -384,384" /><polygon points="-384,128 -384,128 -384,64 -384,64" /><polygon points="384,-384 384,-384 384,-384 320,-384 320,-384 320,-384 320,-384" /><polygon points="64,-384 64,-384 128,-384 128,-384" /><polygon points="-368,-384 -368,-384 -368,-384 -384,-384 -384,-384 -384,-384" /><polygon points="384,64 384,64 384,128 384,128" /><polygon points="384,384 384,384 384,320 384,320 384,320 384,320" /><polygon points="384,64 384,64 296,64 296,64" /><polygon points="128,64 128,64 168,64 168,64 168,64" /><polygon points="-168,64 -168,64 -168,64 -160,64 -128,64 -128,64" /><polygon points="-384,64 -384,64 -296,64 -296,64 -296,64" /><polygon points="168,-64 168,-64 168,-64 128,-64 128,-64" /><polygon points="384,-64 384,-64 352,-64 296,-64 296,-64 296,-64" /><polygon points="64,-168 64,-168 138.2857,-168" /><polygon points="64,-384 64,-384 64,-296 64,-296" /><polygon points="138.2857,-296 64,-296 64,-296" /><polygon points="138.2857,-296 168,-296 168,-168 138.2857,-168 64,-168 64,-296" /><polygon points="168,-138.2857 168,-64 168,-64" /><polygon points="296,-64 296,-64 296,-138.2857" /><polygon points="296,-138.2857 296,-64 168,-64 168,-138.2857 168,-168 296,-168" /><polygon points="128,-128 128,-128 64,-128 64,-128" /><polygon points="64,-128 64,-128 64,-160 64,-168 64,-168 64,-168" /><polygon points="128,-64 128,-64 128,-128 128,-128" /><polygon points="-296,-64 -296,-64 -296,-64 -384,-64 -384,-64" /><polygon points="-128,-64 -128,-64 -160,-64 -168,-64 -168,-64 -168,-64" /><polygon points="-64,-168 -64,-168 -64,-168 -64,-160 -64,-128 -64,-128" /><polygon points="-64,-384 -64,-384 -64,-296 -64,-296 -64,-296" /><polygon points="-64,-296 -64,-296 -138.2857,-296" /><polygon points="-168,-64 -168,-64 -168,-138.2857" /><polygon points="-138.2857,-168 -64,-168 -64,-168" /><polygon points="-138.2857,-168 -168,-168 -168,-296 -138.2857,-296 -64,-296 -64,-168" /><polygon points="-128,-128 -128,-128 -128,-64 -128,-64" /><polygon points="-64,-128 -64,-128 -128,-128 -128,-128" /><polygon points="-168,-138.2857 -168,-64 -296,-64 -296,-168 -168,-168" /><polygon points="128,384 128,384 64,384 64,384" /><polygon points="320,384 320,384 320,384 320,384 384,384 384,384" /><polygon points="138.2857,168 64,168 64,168" /><polygon points="168,64 168,64 168,138.2857" /><polygon points="296,138.2857 296,64 296,64" /><polygon points="296,138.2857 296,168 168,168 168,138.2857 168,64 296,64" /><polygon points="64,128 64,128 128,128 128,128" /><polygon points="128,128 128,128 128,64 128,64" /><polygon points="64,168 64,168 64,168 64,128 64,128" /><polygon points="64,296 64,296 64,384 64,384" /><polygon points="64,296 64,296 138.2857,296" /><polygon points="138.2857,168 168,168 168,296 138.2857,296 64,296 64,168" /><polygon points="-64,296 -64,296 -64,296 -64,352 -64,384 -64,384" /><polygon points="-64,128 -64,128 -64,168 -64,168 -64,168" /><polygon points="-168,138.2857 -168,64 -168,64" /><polygon points="-64,168 -64,168 -138.2857,168" /><polygon points="-128,64 -128,64 -128,128 -128,128" /><polygon points="-128,128 -128,128 -64,128 -64,128" /><polygon points="-288,512 -512,512 -512,512 -384,512 -288,512" /><polygon points="-64,512 -288,512 -288,512 -160,512 -64,512" /><polygon points="256,512 160,512 32,512 32,512 32,512 256,512" /><polygon points="480,512 384,512 256,512 256,512 384,512 480,512" /><polygon points="480,512 512,512 512,512 480,512 384,512 384,512" /><polygon points="-512,288 -512,512 -512,512 -512,488 -512,288" /><polygon points="-512,64 -512,288 -512,288 -512,264 -512,64" /><polygon points="-512,-160 -512,-32 -512,32 -512,64 -512,64 -512,40 -512,-160" /><polygon points="-512,-384 -512,-256 -512,-160 -512,-160 -512,-184 -512,-384" /><polygon points="-512,-512 -512,-512 -512,-480 -512,-480" /><polygon points="-512,32 -512,32 -512,32 -512,64 -512,64" /><polygon points="512,-480 512,-512 512,-512 512,-408 512,-384 512,-384" /><polygon points="512,-256 512,-160 512,-32 512,-32 512,-32 512,-160 512,-256" /><polygon points="512,-480 512,-384 512,-256 512,-256 512,-384 512,-480" /><polygon points="512,288 512,512 512,512 512,480 512,288" /><polygon points="512,64 512,288 512,288 512,256 512,64" /><polygon points="-32,-512 -32,-512 -32,-512 -64,-512 -64,-512" /><polygon points="512,-512 512,-512 480,-512 480,-512" /><polygon points="-288,-512 -512,-512 -512,-512 -288,-512" /><polygon points="-64,-512 -288,-512 -288,-512 -64,-512" /><polygon points="160,-512 32,-512 -32,-512 -64,-512 -64,-512 160,-512" /><polygon points="384,-512 256,-512 160,-512 160,-512 384,-512" /><polygon points="-384,-128 -384,-128 -384,-64 -384,-64" /><polygon points="-384,-288 -384,-256 -384,-192 -384,-128 -384,-64 -384,-64 -384,-64 -384,-288" /><polygon points="-384,-256 -384,-256 -384,-192 -384,-192" /><polygon points="128,-384 128,-384 128,-384 64,-384 64,-384 128,-384" /><polygon points="256,-384 256,-384 192,-384 192,-384" /><polygon points="-64,-384 -64,-384 -96,-384 -128,-384 -128,-384" /><polygon points="-144,-384 -192,-384 -256,-384 -320,-384 -368,-384 -368,-384 -368,-384 -160,-384 -144,-384" /><polygon points="-192,-384 -192,-384 -256,-384 -256,-384" /><polygon points="384,-192 384,-192 384,-256 384,-256" /><polygon points="384,-320 384,-384 384,-384 384,-384 384,-288 384,-288" /><polygon points="384,-64 384,-64 384,-128 384,-128" /><polygon points="384,128 384,128 384,128 384,64 384,64 384,128" /><polygon points="384,256 384,256 384,192 384,192" /><polygon points="384,256 384,192 384,128 384,128 384,128 384,256 384,320 384,320 384,320" /><polygon points="56,32 56,-32 56,-48 56,-56 56,-56 56,56 56,56" /><polygon points="320,-384 320,-384 320,-368 320,-368" /><polygon points="384,-256 384,-256 368,-256 368,-256" /><polygon points="384,-288 384,-256 368,-256 368,-320 384,-320" /><polygon points="368,-320 368,-256 368,-256 368,-320" /><polygon points="384,-128 368,-128 368,-192 384,-192" /><polygon points="384,-128 384,-128 368,-128 368,-128" /><polygon points="368,-192 368,-128 368,-128 368,-192" /><polygon points="296,-168 168,-168 168,-168 296,-168" /><polygon points="192,-384 192,-384 192,-368 192,-368" /><polygon points="256,-368 256,-384 320,-384 320,-368" /><polygon points="256,-368 320,-368 320,-368 256,-368" /><polygon points="128,-368 128,-384 192,-384 192,-368" /><polygon points="128,-368 192,-368 192,-368 128,-368" /><polygon points="168,-168 168,-296 168,-296 168,-168" /><polygon points="-256,-384 -256,-384 -256,-368 -256,-368" /><polygon points="-192,-368 -192,-384 -144,-384 -128,-384 -128,-368" /><polygon points="-128,-384 -128,-384 -128,-368 -128,-368" /><polygon points="-192,-368 -128,-368 -128,-368 -192,-368" /><polygon points="-320,-368 -320,-384 -256,-384 -256,-368" /><polygon points="-320,-368 -256,-368 -256,-368 -320,-368" /><polygon points="-168,-296 -168,-168 -168,-168 -168,-296" /><polygon points="-168,-168 -296,-168 -296,-168 -168,-168" /><polygon points="-384,-192 -384,-192 -368,-192 -368,-192" /><polygon points="-384,-288 -384,-320 -368,-320 -368,-256 -384,-256" /><polygon points="-384,-320 -384,-320 -368,-320 -368,-320" /><polygon points="-368,-128 -384,-128 -384,-192 -368,-192" /><polygon points="-368,-128 -368,-192 -368,-192 -368,-128" /><polygon points="56,-32 48,-32 48,-48 56,-48" /><polygon points="-32,-48 32,-48 32,-40 -32,-40" /><polygon points="56,-56 56,-48 48,-48 32,-48 -32,-48 -48,-48 -56,-48 -56,-56" /><polygon points="56,56 48,56 48,48 48,32 56,32" /><polygon points="48,-32 56,-32 56,32 48,32 40,32 40,-32" /><polygon points="-48,48 -32,48 32,48 48,48 48,56 -56,56 -56,48" /><polygon points="-32,-32 32,-32 32,32 -32,32" /><polygon points="-32,48 -32,40 32,40 32,48" /><polygon points="-48,-32 -56,-32 -56,-48 -48,-48" /><polygon points="-48,32 -56,32 -56,-32 -48,-32 -40,-32 -40,32" /><polygon points="-56,32 -48,32 -48,48 -56,48" /><polygon points="-32,-48 -32,-40 -32,-40 -32,-48" /><polygon points="-32,-32 -32,32 -32,32 -32,-32" /><polygon points="-32,40 -32,48 -32,48 -32,40" /><polygon points="32,-32 -32,-32 -32,-32 32,-32" /><polygon points="48,-32 40,-32 40,-32 48,-32" /><polygon points="32,-40 32,-48 32,-48 32,-40" /><polygon points="32,-48 48,-48 48,-48 32,-48" /><polygon points="-32,-40 32,-40 32,-40 -32,-40" /><polygon points="-40,-32 -48,-32 -48,-32 -40,-32" /><polygon points="-48,-48 -32,-48 -32,-48 -48,-48" /><polygon points="48,56 56,56 56,56 -56,56 -56,56" /><polygon points="192,384 256,384 320,384 320,384 320,384 288,384 128,384 128,384 128,384" /><polygon points="192,384 192,384 256,384 256,384" /><polygon points="384,192 384,192 368,192 368,192" /><polygon points="384,192 368,192 368,128 384,128" /><polygon points="368,128 368,192 368,192 368,128" /><polygon points="384,320 368,320 368,256 384,256" /><polygon points="384,320 384,320 368,320 368,320" /><polygon points="168,168 296,168 296,168 168,168" /><polygon points="168,296 168,168 168,168 168,296" /><polygon points="320,384 256,384 256,368 320,368" /><polygon points="256,384 256,384 256,368 256,368" /><polygon points="320,368 256,368 256,368 320,368" /><polygon points="192,384 128,384 128,368 192,368" /><polygon points="128,384 128,384 128,368 128,368" /><polygon points="192,368 128,368 128,368 192,368" /><polygon points="-128,384 -64,384 -64,384 -64,384 -160,384 -160,384" /><polygon points="-320,384 -320,384 -320,368 -320,368" /><polygon points="-168,168 -168,296 -168,296 -168,168" /><polygon points="-168,296 -168,168 -138.2857,168 -64,168 -64,296" /><polygon points="-296,168 -168,168 -168,168 -296,168" /><polygon points="-128,384 -160,384 -192,384 -192,368 -128,368" /><polygon points="-192,384 -192,384 -192,368 -192,368" /><polygon points="-128,368 -192,368 -192,368 -128,368" /><polygon points="-320,384 -320,368 -256,368 -256,384" /><polygon points="-320,368 -320,368 -256,368 -256,368" /><polygon points="-384,256 -384,256 -368,256 -368,256" /><polygon points="-368,192 -384,192 -384,128 -368,128" /><polygon points="-384,128 -384,128 -368,128 -368,128" /><polygon points="-368,192 -368,128 -368,128 -368,192" /><polygon points="-384,256 -368,256 -368,320 -384,320" /><polygon points="-640,-512 -640,-512 -576,-572 -512,-632 -512,-632" /><polygon points="640,-408 640,-512 640,-512 640,-384 640,-384" /><polygon points="-640,288 -640,488 -640,512 -640,512 -640,324 -640,288" /><polygon points="-640,64 -640,264 -640,288 -640,288 -640,100 -640,64" /><polygon points="-640,-160 -640,40 -640,64 -640,64 -640,-124 -640,-160" /><polygon points="-640,-384 -640,-184 -640,-160 -640,-160 -640,-348 -640,-384" /><polygon points="640,512 640,512 601.6,548 576,572 544,602 512,632 512,632" /><polygon points="480,632 512,632 512,632 384,632 384,632" /><polygon points="-288,-632 -512,-632 -512,-632 -352,-632 -288,-632" /><polygon points="-64,-632 -288,-632 -288,-632 -128,-632 -64,-632" /><polygon points="160,-632 -64,-632 -64,-632 96,-632 160,-632" /><polygon points="384,-632 160,-632 160,-632 320,-632 384,-632" /><polygon points="-288,512 -416,512 -512,512 -512,512 -288,512" /><polygon points="-64,512 -192,512 -288,512 -288,512 -64,512" /><polygon points="160,512 32,512 -64,512 -64,512 -32,512 32,512 160,512" /><polygon points="384,512 256,512 160,512 160,512 256,512 384,512" /><polygon points="-512,-408 -512,-512 -512,-512 -512,-480 -512,-384 -512,-384" /><polygon points="512,288 512,488 512,512 512,512 512,288" /><polygon points="512,64 512,264 512,288 512,288 512,64" /><polygon points="512,-160 512,40 512,64 512,64 512,32 512,-32 512,-160" /><polygon points="512,-384 512,-184 512,-160 512,-160 512,-256 512,-384" /><polygon points="512,-512 512,-632 640,-512 640,-408 512,-408" /><polygon points="640,-408 640,-384 640,-184 512,-184 512,-384 512,-408" /><polygon points="640,-184 640,-160 640,40 512,40 512,-160 512,-184" /><polygon points="640,40 640,64 640,264 512,264 512,64 512,40" /><polygon points="640,264 640,288 640,488 512,488 512,288 512,264" /><polygon points="640,488 640,512 512,512 512,488" /><polygon points="512,-512 512,-512 480,-512 384,-512 384,-512" /><polygon points="-288,-512 -512,-512 -512,-632 -288,-632" /><polygon points="-64,-512 -288,-512 -288,-632 -64,-632" /><polygon points="160,-512 -64,-512 -64,-632 160,-632" /><polygon points="384,-512 160,-512 160,-632 384,-632" /><polygon points="512,-632 512,-512 384,-512 384,-632" /><polygon points="-296,64 -296,64 -384,64 -384,64 -296,64" /><polygon points="168,-168 168,-168 64,-168 64,-168 138.2857,-168 168,-168" /><polygon points="296,-168 168,-168 168,-296 296,-296" /><polygon points="296,-168 296,-168 296,-64 296,-64 296,-138.2857 296,-168" /><polygon points="-168,-296 -168,-296 -64,-296 -64,-296 -138.2857,-296 -168,-296" /><polygon points="-168,-168 -168,-168 -168,-64 -168,-64 -168,-138.2857 -168,-168" /><polygon points="-296,-296 -168,-296 -168,-168 -296,-168" /><polygon points="-296,-168 -296,-168 -296,-64 -296,-64 -296,-64" /><polygon points="168,168 168,168 168,64 168,64 168,138.2857 168,168" /><polygon points="168,296 168,296 64,296 64,296 138.2857,296 168,296" /><polygon points="296,296 168,296 168,168 296,168" /><polygon points="-168,296 -168,296 -64,296 -64,296 -64,296" /><polygon points="-168,168 -168,168 -64,168 -64,168 -138.2857,168 -168,168" /><polygon points="-168,296 -296,296 -296,168 -168,168" /><polygon points="-296,64 -296,64 -296,64 -296,168 -296,168" /><polygon points="-640,-512 -512,-632 -512,-512 -512,-408 -640,-408" /><polygon points="-512,-408 -512,-384 -512,-184 -640,-184 -640,-384 -640,-408" /><polygon points="-512,-184 -512,-160 -512,40 -640,40 -640,-160 -640,-184" /><polygon points="-512,40 -512,64 -512,264 -640,264 -640,64 -640,40" /><polygon points="-512,264 -512,288 -512,488 -640,488 -640,288 -640,264" /><polygon points="-512,488 -512,512 -640,512 -640,488" /><polygon points="-416,632 -512,632 -640,512 -512,512 -416,512" /><polygon points="-192,632 -288,632 -416,632 -416,512 -288,512 -192,512" /><polygon points="32,632 -64,632 -192,632 -192,512 -64,512 32,512" /><polygon points="256,632 160,632 32,632 32,512 160,512 256,512" /><polygon points="480,632 384,632 256,632 256,512 384,512 480,512" /><polygon points="512,512 640,512 512,632 480,632 480,512" /><polygon points="-384,192 -384,192 -384,256 -384,256 -384,256 -384,192" /><polygon points="-384,192 -384,128 -384,128 -384,160 -384,192" /><polygon points="-384,256 -384,256 -384,320 -384,320" /><polygon points="-384,-320 -384,-320 -384,-288 -384,-288" /><polygon points="-96,-384 -64,-384 -64,-384 -96,-384" /><polygon points="-320,-384 -320,-384 -368,-384 -368,-384 -320,-384" /><polygon points="384,-288 384,-256 384,-192 384,-128 384,-64 384,-64 384,-288" /><polygon points="384,-320 384,-320 384,-384 384,-384 384,-320" /><polygon points="368,-256 384,-256 384,-288 384,-320 368,-320" /><polygon points="368,-320 384,-320 384,-320 368,-320" /><polygon points="368,-128 384,-128 384,-192 368,-192" /><polygon points="368,-192 384,-192 384,-192 368,-192" /><polygon points="256,-384 256,-368 320,-368 320,-384" /><polygon points="256,-368 256,-384 256,-384 256,-368" /><polygon points="128,-384 128,-368 192,-368 192,-384" /><polygon points="128,-368 128,-384 128,-384 128,-368" /><polygon points="-320,-368 -320,-384 -320,-384 -320,-368" /><polygon points="-192,-384 -192,-368 -128,-368 -128,-384" /><polygon points="-192,-368 -192,-384 -192,-384 -192,-368" /><polygon points="-320,-384 -320,-368 -256,-368 -256,-384" /><polygon points="-368,-320 -384,-320 -384,-288 -384,-256 -368,-256" /><polygon points="-368,-256 -384,-256 -384,-256 -368,-256" /><polygon points="-368,-256 -368,-256 -368,-320 -368,-320" /><polygon points="-384,-192 -384,-128 -368,-128 -368,-192" /><polygon points="-368,-128 -384,-128 -384,-128 -368,-128" /><polygon points="-56,48 -56,32 -56,-32 -56,-48 -56,-56 -56,-56 -56,56 -56,56" /><polygon points="-48,-48 -32,-48 32,-48 48,-48 56,-48 56,-56 -56,-56 -56,-48" /><polygon points="-32,-40 32,-40 32,-48 -32,-48" /><polygon points="48,-32 56,-32 56,-48 48,-48" /><polygon points="48,48 48,56 56,56 56,32 48,32" /><polygon points="48,56 48,48 32,48 -32,48 -48,48 -56,48 -56,56" /><polygon points="-32,32 32,32 32,-32 -32,-32" /><polygon points="32,48 32,40 -32,40 -32,48" /><polygon points="48,32 56,32 56,-32 48,-32 40,-32 40,32" /><polygon points="-56,-32 -48,-32 -48,-48 -56,-48" /><polygon points="-48,32 -56,32 -56,48 -48,48" /><polygon points="-48,-32 -56,-32 -56,32 -48,32 -40,32 -40,-32" /><polygon points="56,-56 56,-56 -56,-56 -56,-56" /><polygon points="48,-48 48,-48 48,-32 48,-32" /><polygon points="32,40 32,48 32,48 32,40" /><polygon points="32,-32 32,32 32,32 32,-32" /><polygon points="48,32 40,32 40,32 48,32" /><polygon points="40,32 40,-32 40,-32 40,32" /><polygon points="48,48 48,32 48,32 48,48" /><polygon points="32,48 48,48 48,48 32,48" /><polygon points="32,32 -32,32 -32,32 32,32" /><polygon points="-32,40 32,40 32,40 -32,40" /><polygon points="-48,-32 -48,-32 -48,-48 -48,-48" /><polygon points="-40,32 -48,32 -48,32 -40,32" /><polygon points="-40,-32 -40,32 -40,32 -40,-32" /><polygon points="-48,48 -32,48 -32,48 -48,48" /><polygon points="-48,32 -48,48 -48,48 -48,32" /><polygon points="256,384 192,384 128,384 128,384 288,384 320,384 320,384" /><polygon points="320,368 320,384 320,384 320,368" /><polygon points="368,192 384,192 384,128 368,128" /><polygon points="368,128 384,128 384,128 368,128" /><polygon points="368,320 384,320 384,256 368,256" /><polygon points="368,256 384,256 384,256 368,256" /><polygon points="368,256 368,256 368,320 368,320" /><polygon points="192,368 192,384 192,384 192,368" /><polygon points="256,368 256,384 320,384 320,368" /><polygon points="128,368 128,384 192,384 192,368" /><polygon points="-128,384 -128,384 -64,384 -64,384 -128,384" /><polygon points="-256,384 -256,384 -192,384 -192,384 -192,384 -256,384" /><polygon points="-128,384 -192,384 -192,384 -160,384 -128,384" /><polygon points="-320,384 -320,384 -256,384 -256,384" /><polygon points="-256,384 -256,384 -256,368 -256,368" /><polygon points="-192,368 -192,384 -128,384 -128,368" /><polygon points="-128,384 -128,384 -128,368 -128,368" /><polygon points="-320,368 -320,384 -256,384 -256,368" /><polygon points="-384,128 -384,192 -368,192 -368,128" /><polygon points="-384,192 -384,192 -368,192 -368,192" /><polygon points="-368,256 -384,256 -384,320 -368,320" /><polygon points="-384,320 -384,320 -368,320 -368,320" /><polygon points="-368,320 -368,320 -368,256 -368,256" /><polygon points="640,288 640,324 640,512 640,512 640,488 640,288" /><polygon points="640,64 640,100 640,288 640,288 640,264 640,64" /><polygon points="640,-160 640,-124 640,64 640,64 640,40 640,-160" /><polygon points="640,-384 640,-348 640,-160 640,-160 640,-184 640,-384" /><polygon points="-576,572 -601.6,548 -640,512 -640,512 -512,632 -512,632" /><polygon points="-640,-512 -640,-512 -640,-408 -640,-384 -640,-384" /><polygon points="-288,632 -352,632 -512,632 -512,632 -416,632 -288,632" /><polygon points="-64,632 -128,632 -288,632 -288,632 -192,632 -64,632" /><polygon points="160,632 96,632 -64,632 -64,632 32,632 160,632" /><polygon points="384,632 320,632 160,632 160,632 256,632 384,632" /><polygon points="544,-602 576,-572 640,-512 640,-512 512,-632 512,-632" /><polygon points="512,-632 512,-632 384,-632 384,-632" /><polygon points="-64,168 -168,168 -296,168 -296,296 -64,296" /><polygon points="-128,128 -64,128 -64,64 -128,64" /><polygon points="-296,168 -168,168 -168,64 -296,64" /><polygon points="-576,-568 -576,-572 -640,-512 -640,-384 -640,-348 -576,-348" /><polygon points="-640,-348 -640,-160 -640,-124 -576,-124 -576,-328 -576,-348" /><polygon points="-640,-124 -640,64 -640,100 -576,100 -576,-104 -576,-124" /><polygon points="-640,100 -640,288 -640,324 -576,324 -576,120 -576,100" /><polygon points="-640,324 -640,512 -601.6,548 -576,548 -576,344 -576,324" /><polygon points="-601.6,548 -576,572 -576,568 -576,548" /><polygon points="-296,-296 -296,-64 -168,-64 -168,-168 -168,-296" /><polygon points="-128,-64 -64,-64 -64,-128 -128,-128" /><polygon points="-64,-288 -64,-296 -168,-296 -168,-168 -64,-168" /><polygon points="64,64 64,128 128,128 128,64" /><polygon points="64,296 168,296 168,168 64,168" /><polygon points="296,168 296,64 288,64 168,64 168,168 168,296 296,296" /><polygon points="-352,568 -576,568 -576,572 -512,632 -352,632" /><polygon points="-128,568 -352,568 -352,632 -288,632 -128,632" /><polygon points="96,568 -128,568 -128,632 -64,632 96,632" /><polygon points="320,568 96,568 96,632 160,632 320,632" /><polygon points="544,568 320,568 320,632 384,632 512,632 544,602" /><polygon points="576,572 576,568 544,568 544,602" /><polygon points="56,-56 56,56 -56,56 -56,-56" /><polygon points="64,-128 64,-64 128,-64 128,-128" /><polygon points="168,-168 168,-64 288,-64 296,-64 296,-168" /><polygon points="168,-168 296,-168 296,-296 168,-296 64,-296 64,-288 64,-168" /><polygon points="640,-384 640,-512 576,-572 576,-568 576,-348 640,-348" /><polygon points="576,-348 576,-328 576,-124 640,-124 640,-160 640,-348" /><polygon points="576,-124 576,-104 576,100 640,100 640,64 640,-124" /><polygon points="576,100 576,120 576,324 640,324 640,288 640,100" /><polygon points="576,324 576,344 576,548 601.6,548 640,512 640,324" /><polygon points="576,548 576,568 576,572 601.6,548" /><polygon points="-352,-632 -512,-632 -576,-572 -576,-568 -352,-568" /><polygon points="-128,-632 -288,-632 -352,-632 -352,-568 -128,-568" /><polygon points="96,-632 -64,-632 -128,-632 -128,-568 96,-568" /><polygon points="320,-632 160,-632 96,-632 96,-568 320,-568" /><polygon points="544,-602 512,-632 384,-632 320,-632 320,-568 544,-568" /><polygon points="576,-568 576,-572 544,-602 544,-568" /><polygon points="576,-348 576,-568 576,-568 576,-348 576,-328 576,-328" /><polygon points="576,568 576,568 544,568 544,568" /><polygon points="-576,344 -576,548 -576,568 -576,568 -576,480 -576,344" /><polygon points="-576,120 -576,324 -576,344 -576,344 -576,256 -576,120" /><polygon points="-576,-104 -576,100 -576,120 -576,120 -576,32 -576,-32 -576,-104" /><polygon points="-576,-328 -576,-124 -576,-104 -576,-104 -576,-124 -576,-328" /><polygon points="-160,-64 -168,-64 -296,-64 -384,-64 -384,-64 -160,-64" /><polygon points="288,-64 168,-64 128,-64 64,-64 64,-64 288,-64" /><polygon points="-96,-384 -64,-384 -64,-384 -160,-384 -160,-384" /><polygon points="320,-384 384,-384 384,-384 288,-384 288,-384" /><polygon points="-352,-568 -576,-568 -576,-568 -352,-568" /><polygon points="-128,-568 -352,-568 -352,-568 -128,-568" /><polygon points="96,-568 -128,-568 -128,-568 -32,-568 32,-568 96,-568" /><polygon points="320,-568 96,-568 96,-568 256,-568 320,-568" /><polygon points="544,-568 320,-568 320,-568 480,-568 544,-568" /><polygon points="-64,-288 -64,-168 -64,-128 -64,-64 -64,-64 -64,-160 -64,-288" /><polygon points="384,-288 384,-64 384,-64 384,-160 384,-288" /><polygon points="64,-296 64,-384 64,-384 64,-288 64,-288" /><polygon points="-384,-320 -384,-384 -384,-384 -384,-288 -384,-288" /><polygon points="64,128 64,64 64,64 64,160 64,160" /><polygon points="288,384 128,384 64,384 64,384 288,384" /><polygon points="384,160 384,320 384,384 384,384 384,288 384,160" /><polygon points="296,64 384,64 384,64 288,64 288,64" /><polygon points="-64,160 -64,168 -64,296 -64,384 -64,384 -64,288 -64,160" /><polygon points="-160,384 -192,384 -256,384 -320,384 -384,384 -384,384 -160,384" /><polygon points="-384,128 -384,64 -384,64 -384,160 -384,160" /><polygon points="-128,64 -64,64 -64,64 -160,64 -160,64" /><polygon points="-384,64 -384,128 -384,128 -384,128 -384,128 -384,64" /><polygon points="-384,-384 -384,-320 -384,-320 -384,-320 -384,-384" /><polygon points="-384,-288 -384,-64 -384,-64 -384,-128 -384,-192 -384,-256 -384,-288" /><polygon points="288,-384 128,-384 128,-384 192,-384 256,-384 320,-384 320,-384" /><polygon points="-160,-384 -320,-384 -320,-384 -256,-384 -192,-384 -128,-384 -96,-384 -96,-384" /><polygon points="384,-320 384,-320 384,-288 384,-288" /><polygon points="384,160 384,128 384,128 384,192 384,256 384,320 384,320" /><polygon points="168,64 128,64 128,64 168,64" /><polygon points="-128,64 -160,64 -168,64 -168,64 -128,64" /><polygon points="56,-56 56,-56 56,-48 56,-32 56,32 56,56 56,56" /><polygon points="128,-64 168,-64 168,-64 128,-64" /><polygon points="384,-64 384,-64 384,-64 384,-64 296,-64 296,-64" /><polygon points="64,-296 168,-296 168,-296 168,-296 138.2857,-296 64,-296" /><polygon points="168,-296 296,-296 296,-296 168,-296" /><polygon points="296,-296 296,-168 296,-168 296,-296" /><polygon points="168,-64 168,-168 168,-168 168,-168 168,-138.2857 168,-64" /><polygon points="64,-128 128,-128 128,-128 64,-128" /><polygon points="64,-168 64,-128 64,-128 64,-168" /><polygon points="128,-128 128,-64 128,-64 128,-128" /><polygon points="-296,-64 -296,-64 -296,-64 -384,-64 -384,-64 -384,-64 -384,-64" /><polygon points="-168,-64 -160,-64 -128,-64 -128,-64 -168,-64" /><polygon points="-64,-128 -64,-168 -64,-168 -64,-128" /><polygon points="-64,-384 -64,-384 -64,-384 -64,-384 -64,-296 -64,-296" /><polygon points="-296,-296 -168,-296 -168,-296 -296,-296" /><polygon points="-64,-168 -168,-168 -168,-168 -168,-168 -138.2857,-168 -64,-168" /><polygon points="-128,-64 -128,-128 -128,-128 -128,-64" /><polygon points="-128,-128 -64,-128 -64,-128 -128,-128" /><polygon points="-296,-64 -296,-296 -296,-296 -296,-168 -296,-64" /><polygon points="56,56 56,56 48,56 -56,56 -56,56" /><polygon points="64,384 128,384 128,384 128,384 128,384 64,384" /><polygon points="64,168 168,168 168,168 168,168 138.2857,168 64,168" /><polygon points="296,64 296,168 296,168 296,168 296,138.2857 296,64" /><polygon points="128,128 64,128 64,128 128,128" /><polygon points="128,64 128,128 128,128 128,64" /><polygon points="64,128 64,160 64,168 64,168 64,128" /><polygon points="296,296 168,296 168,296 296,296" /><polygon points="296,168 296,296 296,296 296,168" /><polygon points="-384,384 -320,384 -320,384 -320,384 -384,384" /><polygon points="-64,296 -64,296 -64,296 -64,384 -64,384 -64,384" /><polygon points="-64,168 -64,160 -64,128 -64,128 -64,168" /><polygon points="-64,296 -296,296 -296,296 -168,296 -64,296" /><polygon points="-168,64 -168,168 -168,168 -168,168 -168,138.2857 -168,64" /><polygon points="-128,128 -128,64 -128,64 -128,128" /><polygon points="-64,128 -128,128 -128,128 -64,128" /><polygon points="-296,296 -296,168 -296,64 -296,64 -296,168 -296,296" /><polygon points="480,632 512,632 512,632 480,632 288,632 288,632" /><polygon points="576,32 576,-32 576,-32 576,32" /><polygon points="576,344 576,480 576,568 576,568 576,548 576,344" /><polygon points="576,120 576,256 576,344 576,344 576,324 576,120" /><polygon points="576,-104 576,-32 576,32 576,120 576,120 576,100 576,-104" /><polygon points="576,-328 576,-124 576,-104 576,-104 576,-124 576,-328" /><polygon points="576,-32 640,-32 640,-32 576,-32" /><polygon points="576,-568 576,-572 640,-512 640,-480 640,-348 576,-348" /><polygon points="640,-348 640,-256 640,-124 576,-124 576,-328 576,-348" /><polygon points="640,-124 640,-32 576,-32 576,-104 576,-124" /><polygon points="640,32 576,32 576,32 640,32" /><polygon points="576,120 576,32 640,32 640,64 640,256 576,256" /><polygon points="640,256 640,288 640,480 576,480 576,344 576,256" /><polygon points="640,480 640,512 576,572 576,568 576,480" /><polygon points="-352,568 -356.2667,568 -576,568 -576,568 -352,568" /><polygon points="-128,568 -132.2667,568 -352,568 -352,568 -128,568" /><polygon points="96,568 32,568 -32,568 -128,568 -128,568 96,568" /><polygon points="320,568 256,568 96,568 96,568 320,568" /><polygon points="544,568 480,568 320,568 320,568 544,568" /><polygon points="-32,568 32,568 32,568 -32,568" /><polygon points="-576,-348 -576,-568 -576,-568 -576,-348 -576,-328 -576,-328" /><polygon points="-576,-32 -576,32 -576,32 -576,-32" /><polygon points="-64,-64 -64,-64 -128,-64 -160,-64 -160,-64" /><polygon points="384,-64 384,-64 296,-64 288,-64 288,-64" /><polygon points="-160,-384 -384,-384 -384,-384 -368,-384 -320,-384 -160,-384" /><polygon points="288,-384 64,-384 64,-384 128,-384 288,-384" /><polygon points="32,-568 -32,-568 -32,-568 32,-568" /><polygon points="576,-568 576,-568 544,-568 544,-568" /><polygon points="-32,-568 -32,-632 -32,-632 -32,-568" /><polygon points="32,-632 32,-568 32,-568 32,-632" /><polygon points="256,-568 96,-568 32,-568 32,-632 256,-632" /><polygon points="480,-568 320,-568 256,-568 256,-632 480,-632" /><polygon points="576,-572 576,-568 544,-568 480,-568 480,-632 512,-632" /><polygon points="-352,-568 -576,-568 -576,-572 -512,-632 -352,-632" /><polygon points="-128,-568 -352,-568 -352,-632 -288,-632 -128,-632" /><polygon points="-64,-632 -32,-632 -32,-568 -128,-568 -128,-632" /><polygon points="-64,-384 -64,-384 -64,-296 -64,-288 -64,-288" /><polygon points="384,-384 384,-384 384,-320 384,-288 384,-288" /><polygon points="64,-288 64,-160 64,-64 64,-64 64,-128 64,-168 64,-288" /><polygon points="64,-160 64,-288 64,-384 288,-384 288,-160" /><polygon points="288,-64 64,-64 64,-160 288,-160" /><polygon points="384,-384 384,-288 384,-160 288,-160 288,-384" /><polygon points="384,-160 384,-64 288,-64 288,-160" /><polygon points="-384,-288 -384,-160 -384,-64 -384,-64 -384,-288" /><polygon points="-384,-160 -384,-288 -384,-384 -160,-384 -160,-160" /><polygon points="-160,-64 -384,-64 -384,-160 -160,-160" /><polygon points="-64,-384 -64,-288 -64,-160 -160,-160 -160,-384" /><polygon points="-64,-160 -64,-64 -160,-64 -160,-160" /><polygon points="64,160 64,288 64,384 64,384 64,296 64,168 64,160" /><polygon points="384,384 384,384 320,384 288,384 288,384" /><polygon points="384,64 384,64 384,128 384,160 384,160" /><polygon points="288,64 64,64 64,64 128,64 168,64 288,64" /><polygon points="64,288 64,160 64,64 288,64 288,288" /><polygon points="288,384 64,384 64,288 288,288" /><polygon points="384,64 384,160 384,288 288,288 288,64" /><polygon points="384,288 384,384 288,384 288,288" /><polygon points="-64,64 -64,64 -64,128 -64,160 -64,160" /><polygon points="-64,384 -64,384 -128,384 -160,384 -160,384" /><polygon points="-384,160 -384,288 -384,384 -384,384 -384,320 -384,256 -384,192 -384,160" /><polygon points="-160,64 -384,64 -384,64 -296,64 -168,64 -160,64" /><polygon points="-384,160 -384,64 -160,64 -160,288 -384,288" /><polygon points="-160,288 -160,384 -384,384 -384,288" /><polygon points="-160,64 -64,64 -64,160 -64,288 -160,288" /><polygon points="-64,288 -64,384 -160,384 -160,288" /><polygon points="-640,-32 -576,-32 -576,-32 -640,-32" /><polygon points="-640,-480 -640,-512 -576,-572 -576,-568 -576,-348 -640,-348" /><polygon points="-576,-348 -576,-328 -576,-124 -640,-124 -640,-256 -640,-348" /><polygon points="-576,-124 -576,-104 -576,-32 -640,-32 -640,-124" /><polygon points="-576,32 -640,32 -640,32 -576,32" /><polygon points="-640,64 -640,32 -576,32 -576,120 -576,256 -640,256" /><polygon points="-576,256 -576,344 -576,480 -640,480 -640,288 -640,256" /><polygon points="-576,480 -576,568 -580.2667,568 -640,512 -640,480" /><polygon points="-32,632 -32,568 -32,568 -32,632" /><polygon points="32,568 32,632 32,632 32,568" /><polygon points="256,632 64,632 32,632 32,568 96,568 256,568" /><polygon points="480,632 288,632 256,632 256,568 320,568 480,568" /><polygon points="544,568 576,568 576,572 512,632 480,632 480,568" /><polygon points="-356.2667,632 -512,632 -580.2667,568 -576,568 -356.2667,568" /><polygon points="-132.2667,632 -288,632 -356.2667,632 -356.2667,568 -352,568 -132.2667,568" /><polygon points="-128,568 -32,568 -32,632 -64,632 -132.2667,632 -132.2667,568" /><polygon points="640,-32 640,-32 640,32 640,32" /><polygon points="-640,32 -640,32 -640,-32 -640,-32" /><polygon points="32,632 64,632 64,632 32,632 -32,632 -32,632" /><polygon points="32,632 32,632 64,632 64,632" /><polygon points="640,32 576,32 576,-32 640,-32" /><polygon points="32,-568 -32,-568 -32,-632 32,-632" /><polygon points="-576,32 -640,32 -640,-32 -576,-32" /><polygon points="32,632 -32,632 -32,568 32,568" /><polygon points="-32,-568 -32,-632 -32,-632 -32,-568" /><polygon points="-32,-632 32,-632 32,-632 -32,-632" /><polygon points="32,-568 -32,-568 -32,-568 32,-568" /><polygon points="32,-632 32,-568 32,-568 32,-632" /><polygon points="-32,-632 -32,-568 32,-568 32,-632" /><polygon points="-640,32 -640,-32 -640,-32 -640,32" /><polygon points="-640,-32 -576,-32 -576,-32 -640,-32" /><polygon points="-576,32 -640,32 -640,32 -576,32" /><polygon points="-576,-32 -576,32 -576,32 -576,-32" /><polygon points="-640,-32 -640,32 -576,32 -576,-32" /><polygon points="-32,632 -32,568 -32,568 -32,632" /><polygon points="-32,568 32,568 32,568 -32,568" /><polygon points="32,568 32,632 32,632 32,568" /><polygon points="32,632 -32,632 -32,632 32,632" /><polygon points="-32,568 -32,632 32,632 32,568" /><polygon points="640,32 576,32 576,32 640,32" /><polygon points="640,-32 640,32 640,32 640,-32" /><polygon points="576,-32 640,-32 640,-32 576,-32" /><polygon points="576,32 576,-32 576,-32 576,32" /><polygon points="576,-32 576,32 640,32 640,-32" /><polygon points="32,-568 -32,-568 -32,-632 32,-632" /><polygon points="-576,32 -640,32 -640,-32 -576,-32" /><polygon points="32,632 -32,632 -32,568 32,568" /><polygon points="640,32 576,32 576,-32 640,-32" /><polygon points="288,632 256,632 64,632 64,632 64,632 256,632 288,632" /><polygon points="32,-632 32,-632 -32,-632 -32,-632" /><polygon points="-640,32 -576,95.1579 -576,32 -576,-32 -640,-32" /><polygon points="-352,252.7059 -576,32 -576,95.1579 -416,253.0526 -413.0133,256 -352,256" /><polygon points="-413.0133,256 -352,316.2105 -352,256" /><polygon points="-128,473.4118 -352,252.7059 -352,256 -352,316.2105 -192,474.1053 -189.3647,476.7059 -128,476.7059" /><polygon points="-189.3647,476.7059 -128,537.2632 -128,476.7059" /><polygon points="-32,632 -32,568 -128,473.4118 -128,476.7059 -128,537.2632" /><polygon points="-416,-250.1053 -416,-253.0526 -640,-32 -576,-32 -416,-189.6471" /><polygon points="-192,-474.1053 -416,-253.0526 -416,-250.1053 -354.6394,-250.1053 -352,-252.7059 -192,-410.3529" /><polygon points="-416,-250.1053 -416,-189.6471 -354.6394,-250.1053" /><polygon points="-128,-473.4118 -32,-568 -32,-632 -192,-474.1053 -192,-410.3529" /><polygon points="256,350.5882 256,347.2941 32,568 96.8533,568 256,410.9474" /><polygon points="480,126.5882 256,347.2941 256,350.5882 317.1639,350.5882 480,189.8947" /><polygon points="256,350.5882 256,410.9474 317.1639,350.5882" /><polygon points="576,95.1579 576,32 480,126.5882 480,189.8947" /><polygon points="-32,-32 -32,32 32,32 32,-32" /><polygon points="32,632 96.8533,568 32,568 -32,568 -32,632" /><polygon points="576,32 576,95.1579 640,32 640,-32 576,-32" /><polygon points="256,-410.9474 96.8533,-568 32,-568 256,-347.2941" /><polygon points="480,-189.8947 256,-410.9474 256,-347.2941 418.74,-186.9474 480,-186.9474" /><polygon points="418.74,-186.9474 480,-126.5882 480,-186.9474" /><polygon points="576,-32 640,-32 480,-189.8947 480,-186.9474 480,-126.5882" /><polygon points="32,-568 96.8533,-568 32,-632 -32,-632 -32,-568" /><polygon points="32,-32 32,32 32,32 32,-32" /><polygon points="256,-410.9474 480,-189.8947 480,-189.8947 256,-410.9474" /><polygon points="480,-189.8947 640,-32 640,-32 480,-189.8947" /><polygon points="256,-347.2941 32,-568 32,-568 194.3881,-408 256,-347.2941" /><polygon points="480,-126.5882 418.74,-186.9474 256,-347.2941 256,-347.2941 418.74,-186.9474 480,-126.5882" /><polygon points="576,32 576,-32 576,-32 576,32" /><polygon points="576,32 576,32 480,126.5882 480,126.5882" /><polygon points="256,410.9474 96.8533,568 32,632 32,632 93.5153,571.2941 222.1949,444.3077 256,410.9474" /><polygon points="480,189.8947 317.1639,350.5882 256,410.9474 256,410.9474 317.1639,350.5882 413.0133,256 480,189.8947" /><polygon points="32,32 -32,32 -32,32 32,32" /><polygon points="-32,32 -32,-32 -32,-32 -32,32" /><polygon points="32,-568 -32,-568 -32,-568 32,-568" /><polygon points="-32,-32 32,-32 32,-32 -32,-32" /><polygon points="-352,-252.7059 -354.6394,-250.1053 -416,-189.6471 -576,-32 -576,-32 -416,-189.6471 -354.6394,-250.1053 -352,-252.7059" /><polygon points="-128,-473.4118 -192,-410.3529 -352,-252.7059 -352,-252.7059 -192,-410.3529 -128,-473.4118" /><polygon points="-32,-632 -32,-632 -192,-474.1053 -192,-474.1053" /><polygon points="-576,-32 -576,32 -576,32 -576,-32" /><polygon points="-32,568 32,568 32,568 -32,568" /><polygon points="-416,253.0526 -576,95.1579 -640,32 -640,32 -416,253.0526" /><polygon points="-192,474.1053 -352,316.2105 -413.0133,256 -416,253.0526 -416,253.0526 -381.2103,287.3846 -253.2643,413.6471 -192,474.1053" /><polygon points="-32,568 -32,568 -128,473.4118 -128,473.4118" /><polygon points="32,32 32,32 32,-32 32,-32" /><polygon points="-32,32 -32,32 32,32 32,32" /><polygon points="-32,-32 -32,-32 -32,32 -32,32" /><polygon points="32,-32 32,-32 -32,-32 -32,-32" /><polygon points="32,-632 32,-568 32,-440 32,-440" /><polygon points="576,-32 640,-32 640,-32 480,-32 448,-32 448,-32" /><polygon points="32,-568 32,-632 256,-410.9474 256,-408 194.3881,-408" /><polygon points="256,-408 256,-347.2941 194.3881,-408" /><polygon points="256,-408 256,-410.9474 480,-189.8947 480,-186.9474 418.74,-186.9474 256,-347.2941" /><polygon points="480,-186.9474 480,-126.5882 418.74,-186.9474" /><polygon points="480,-186.9474 480,-189.8947 640,-32 576,-32 480,-126.5882" /><polygon points="32,-632 32,-440 64.6274,-408 256,-408 256,-410.9474" /><polygon points="32,-632 32,-632 96.8533,-568 256,-410.9474 256,-410.9474" /><polygon points="576,-32 576,-32 480,-126.5882 480,-126.5882" /><polygon points="576,32 576,-32 448,-32 448,32" /><polygon points="256,350.5882 256,410.9474 222.1949,444.3077 93.5153,571.2941 32,571.2941 32,568 256,347.2941" /><polygon points="93.5153,571.2941 32,632 32,571.2941" /><polygon points="480,189.8947 413.0133,256 317.1639,350.5882 256,350.5882 256,347.2941 480,126.5882" /><polygon points="317.1639,350.5882 256,410.9474 256,350.5882" /><polygon points="576,32 640,32 480,189.8947 480,126.5882" /><polygon points="256,410.9474 222.1949,444.3077 93.5153,571.2941 32,632 32,632 256,410.9474" /><polygon points="480,189.8947 413.0133,256 317.1639,350.5882 256,410.9474 256,410.9474 480,189.8947" /><polygon points="640,32 480,32 480,189.8947" /><polygon points="256,347.2941 32,568 32,568 256,347.2941" /><polygon points="480,126.5882 256,347.2941 256,347.2941 480,126.5882" /><polygon points="640,32 640,32 576,95.1579 480,189.8947 480,189.8947" /><polygon points="-576,-32 -448,-32 -448,-32 -640,-32" /><polygon points="-416,-250.1053 -416,-189.6471 -576,-32 -640,-32 -416,-253.0526" /><polygon points="-192,-410.3529 -352,-252.7059 -354.6394,-250.1053 -416,-250.1053 -416,-253.0526 -192,-474.1053" /><polygon points="-354.6394,-250.1053 -416,-189.6471 -416,-250.1053" /><polygon points="-32,-632 -32,-568 -128,-473.4118 -192,-410.3529 -192,-474.1053" /><polygon points="-32,-568 -32,-568 -128,-473.4118 -128,-473.4118" /><polygon points="-416,-253.0526 -640,-32 -640,-32 -416,-253.0526" /><polygon points="-192,-474.1053 -416,-253.0526 -416,-253.0526 -192,-474.1053" /><polygon points="-416,253.0526 -640,32 -576,32 -416,189.6471" /><polygon points="-253.2643,413.6471 -381.2103,287.3846 -416,253.0526 -416,189.6471 -352,252.7059 -192,410.3529 -192,413.6471" /><polygon points="-192,474.1053 -253.2643,413.6471 -192,413.6471" /><polygon points="-128,473.4118 -32,568 -32,632 -158.5887,507.0769 -192,474.1053 -192,413.6471 -192,410.3529" /><polygon points="-416,253.0526 -640,32 -640,32 -416,253.0526" /><polygon points="-192,474.1053 -253.2643,413.6471 -381.2103,287.3846 -416,253.0526 -416,253.0526 -192,474.1053" /><polygon points="-381.2103,287.3846 -253.2643,413.6471 -192,474.1053 -192,287.3846" /><polygon points="-32,632 -32,507.0769 -158.5887,507.0769" /><polygon points="-158.5887,507.0769 -32,632 -32,632 -128,537.2632 -189.3647,476.7059 -192,474.1053 -192,474.1053" /><polygon points="-352,252.7059 -416,189.6471 -576,32 -576,32 -352,252.7059" /><polygon points="-128,473.4118 -192,410.3529 -352,252.7059 -352,252.7059 -128,473.4118" /><polygon points="256,-410.9474 480,-189.8947 480,-189.8947 256,-410.9474" /><polygon points="480,-189.8947 640,-32 640,-32 480,-189.8947" /><polygon points="-416,-250.1053 -416,-253.0526 -640,-32 -448,-32 -416,-63.3846" /><polygon points="-416,-250.1053 -416,-63.3846 -225.6182,-250.1053" /><polygon points="256,-408 256,-220.3077 290.0145,-186.9474 480,-186.9474 480,-189.8947 256,-410.9474" /><polygon points="480,-186.9474 480,-32 640,-32 480,-189.8947" /><polygon points="-512,-632 -512,-632 -576,-572 -640,-512 -640,-512" /><polygon points="640,-32 640,-32 640,-32 640,-32 640,-32 640,-32 640,-124 640,-256 640,-256" /><polygon points="640,-256 640,-256 640,-348 640,-480 640,-480" /><polygon points="640,-480 640,-480 640,-512 640,-512" /><polygon points="640,512 640,512 640,480 640,288 640,288" /><polygon points="640,288 640,288 640,256 640,64 640,64" /><polygon points="640,64 640,64 640,32 640,32 640,32 640,32 640,32" /><polygon points="-640,512 -640,512 -580.2667,568 -512,632 -512,632" /><polygon points="-640,288 -640,288 -640,480 -640,512 -640,512" /><polygon points="-640,64 -640,64 -640,256 -640,288 -640,288" /><polygon points="-640,32 -640,32 -640,32 -640,32 -640,32 -640,64 -640,64" /><polygon points="-640,-256 -640,-256 -640,-124 -640,-32 -640,-32 -640,-32 -640,-32 -640,-32" /><polygon points="-640,-480 -640,-480 -640,-348 -640,-256 -640,-256" /><polygon points="-640,-512 -640,-512 -640,-480 -640,-480" /><polygon points="512,632 512,632 512,632 576,572 640,512 640,512" /><polygon points="32,632 32,632 32,632 64,632 256,632 256,632" /><polygon points="256,632 256,632 288,632 480,632 480,632" /><polygon points="480,632 480,632 512,632 512,632" /><polygon points="-512,632 -512,632 -356.2667,632 -288,632 -288,632" /><polygon points="-288,632 -288,632 -132.2667,632 -64,632 -64,632" /><polygon points="-64,632 -64,632 -32,632 -32,632 -32,632 -32,632 -32,632" /><polygon points="640,-512 640,-512 576,-572 512,-632 512,-632" /><polygon points="-288,-632 -288,-632 -352,-632 -512,-632 -512,-632" /><polygon points="-64,-632 -64,-632 -128,-632 -288,-632 -288,-632" /><polygon points="-32,-632 -32,-632 -32,-632 -32,-632 -32,-632 -64,-632 -64,-632" /><polygon points="256,-632 256,-632 32,-632 32,-632 32,-632 32,-632 32,-632" /><polygon points="480,-632 480,-632 256,-632 256,-632" /><polygon points="512,-632 512,-632 480,-632 480,-632" /><polygon points="32,-632 32,-632 256,-410.9474 256,-410.9474" /><polygon points="480,-189.8947 480,-189.8947 256,-410.9474 256,-410.9474" /><polygon points="640,-32 640,-32 480,-189.8947 480,-189.8947" /><polygon points="32,632 32,632 256,410.9474 256,410.9474" /><polygon points="256,410.9474 256,410.9474 480,189.8947 480,189.8947" /><polygon points="640,32 640,32 480,189.8947 480,189.8947" /><polygon points="-640,-32 -640,-32 -416,-253.0526 -416,-253.0526" /><polygon points="-416,-253.0526 -416,-253.0526 -192,-474.1053 -192,-474.1053" /><polygon points="-192,-474.1053 -192,-474.1053 -32,-632 -32,-632" /><polygon points="-640,32 -640,32 -416,253.0526 -416,253.0526" /><polygon points="-416,253.0526 -416,253.0526 -192,474.1053 -192,474.1053" /><polygon points="-32,632 -32,632 -158.5887,507.0769 -192,474.1053 -192,474.1053" /><polygon points="-192,-408 -192,-474.1053 -416,-253.0526 -416,-250.1053 -225.6182,-250.1053 -224,-251.6923 -192,-283.0769" /><polygon points="-192,-408 -192,-283.0769 -64.6274,-408" /><polygon points="-32,507.0769 -32,440 -192,283.0769 -192,287.3846 -192,474.1053 -158.5887,507.0769" /><polygon points="32,-440 32,-248 32,-248 32,-440" /><polygon points="448,-32 448,-32 448,-32 256,-32 256,-32" /><polygon points="-448,32 -448,32 -448,32 -256,32 -256,32" /><polygon points="-32,-440 -32,-440 -32,-248 -32,-248 -32,-248" /><polygon points="-32,-440 32,-440 32,-568 -32,-568" /><polygon points="-448,-32 -256,-32 -256,-32 -448,-32" /><polygon points="-448,32 -448,-32 -576,-32 -576,32" /><polygon points="-32,440 -32,440 -32,507.0769 -32,632 -32,568" /><polygon points="32,440 -32,440 -32,568 32,568" /><polygon points="-32,440 32,440 32,248 -32,248" /><polygon points="256,256 256,220.3077 32,440 32,444.3077 222.1949,444.3077 256,410.9474" /><polygon points="256,256 256,410.9474 317.1639,350.5882 413.0133,256" /><polygon points="480,32 640,32 576,32 448,32 448,32" /><polygon points="480,32 448,32 256,220.3077 256,256 413.0133,256 480,189.8947" /><polygon points="32,444.3077 32,440 32,440 32,568 32,571.2941 32,632" /><polygon points="32,444.3077 32,632 93.5153,571.2941 222.1949,444.3077" /><polygon points="448,32 448,32 256,32 256,32 448,32" /><polygon points="448,32 448,32 256,220.3077 256,220.3077" /><polygon points="-448,32 -448,32 -576,32 -640,32" /><polygon points="-416,63.3846 -448,32 -640,32 -416,253.0526" /><polygon points="-192,283.0769 -224,251.6923 -416,63.3846 -416,253.0526 -381.2103,287.3846 -192,287.3846" /><polygon points="-192,283.0769 -32,440 -188.1457,286.8571 -224,251.6923 -224,251.6923" /><polygon points="64.6274,-408 256,-220.3077 256,-408" /><polygon points="290.0145,-186.9474 448,-32 480,-32 480,-186.9474" /><polygon points="256,-220.3077 64.6274,-408 32,-440 256,-220.3077" /><polygon points="256,220.3077 219.6078,256 32,440 256,220.3077" /><polygon points="219.6078,256 256,220.3077 256,32 32,248 32,256" /><polygon points="32,440 219.6078,256 32,256" /><polygon points="256,220.3077 448,32 256,32" /><polygon points="-32,-440 -32,-440 -64.6274,-408 -192,-283.0769 -224,-251.6923 -224,-251.6923" /><polygon points="-448,32 -224,251.6923 -224,62.8571 -256,32" /><polygon points="-224,251.6923 -188.1457,286.8571 -32,286.8571 -32,248 -224,62.8571" /><polygon points="-188.1457,286.8571 -32,440 -32,286.8571" /><polygon points="-224,251.6923 -448,32 -448,32 -416,63.3846 -224,251.6923" /><polygon points="-224,-251.6923 -225.6182,-250.1053 -416,-63.3846 -448,-32 -224,-251.6923" /><polygon points="256,-220.3077 32,-440 32,-248 65.1852,-216 256,-216" /><polygon points="-32,-440 -32,-440 -32,-440 -32,-568 -32,-632" /><polygon points="-32,-440 -32,-632 -192,-474.1053 -192,-408 -64.6274,-408" /><polygon points="448,-32 256,-220.3077 256,-216 256,-32" /><polygon points="448,-32 448,-32 290.0145,-186.9474 256,-220.3077 256,-220.3077" /><polygon points="32,-248 32,-32 32,-32 32,-248" /><polygon points="32,32 32,248 32,248 32,32" /><polygon points="32,-32 256,-32 256,-32 32,-32" /><polygon points="32,-32 32,32 256,32 256,-32" /><polygon points="256,-32 256,32 448,32 448,-32" /><polygon points="-32,32 -256,32 -256,32 -256,32 -32,32" /><polygon points="-32,-32 -32,-248 -32,-248 -32,-32" /><polygon points="-32,-248 -32,-32 32,-32 32,-248" /><polygon points="32,-248 32,-440 -32,-440 -32,-248" /><polygon points="-256,-32 -32,-32 -32,-32 -256,-32" /><polygon points="-256,-32 -256,32 -32,32 -32,-32" /><polygon points="-256,-32 -448,-32 -448,32 -256,32" /><polygon points="-32,248 -32,32 -32,32 -32,248" /><polygon points="-32,32 -32,248 32,248 32,32" /><polygon points="-32,286.8571 -32,440 -32,440 -32,248 -32,248" /><polygon points="32,256 32,248 32,248 32,440 32,440" /><polygon points="256,32 256,32 32,32 32,32 256,32" /><polygon points="-256,32 -224,62.8571 -32,248 -256,32" /><polygon points="65.1852,-216 32,-248 32,-32 256,-32" /><polygon points="65.1852,-216 256,-32 256,-216" /><polygon points="32,32 32,248 256,32" /><polygon points="32,248 256,32 256,32" /><polygon points="-256,-32 -224,-62.8571 -224,-216 -224,-251.6923 -448,-32" /><polygon points="-32,-248 -256,-32 -32,-32" /><polygon points="-32,32 -256,32 -32,248" /><polygon points="-224,-62.8571 -65.1852,-216 -224,-216" /><polygon points="-65.1852,-216 -224,-62.8571 -256,-32 -32,-248 -32,-248" /><polygon points="-65.1852,-216 -32,-248 -32,-440 -224,-251.6923 -224,-216" /><polygon points="-640,-512 -512,-632 -512,-632 -640,-512" /><polygon points="640,-256 640,-32 640,-32 640,-256" /><polygon points="640,-480 640,-256 640,-256 640,-480" /><polygon points="640,-512 640,-480 640,-480 640,-512" /><polygon points="640,288 640,512 640,512 640,288" /><polygon points="640,64 640,288 640,288 640,64" /><polygon points="640,32 640,64 640,64 640,32" /><polygon points="-512,632 -640,512 -640,512 -512,632" /><polygon points="-640,512 -640,288 -640,288 -640,512" /><polygon points="-640,288 -640,64 -640,64 -640,288" /><polygon points="-640,64 -640,32 -640,32 -640,64" /><polygon points="-640,-32 -640,-256 -640,-256 -640,-32" /><polygon points="-640,-256 -640,-480 -640,-480 -640,-256" /><polygon points="-640,-480 -640,-512 -640,-512 -640,-480" /><polygon points="640,512 512,632 512,632 640,512" /><polygon points="256,632 32,632 32,632 256,632" /><polygon points="480,632 256,632 256,632 480,632" /><polygon points="512,632 480,632 480,632 512,632" /><polygon points="-288,632 -512,632 -512,632 -288,632" /><polygon points="-64,632 -288,632 -288,632 -64,632" /><polygon points="-32,632 -64,632 -64,632 -32,632" /><polygon points="512,-632 640,-512 640,-512 512,-632" /><polygon points="-512,-632 -288,-632 -288,-632 -512,-632" /><polygon points="-288,-632 -64,-632 -64,-632 -288,-632" /><polygon points="-64,-632 -32,-632 -32,-632 -64,-632" /><polygon points="32,-632 256,-632 256,-632 32,-632" /><polygon points="256,-632 480,-632 480,-632 256,-632" /><polygon points="480,-632 512,-632 512,-632 480,-632" /><polygon points="32,-632 32,-632 256,-410.9474 256,-410.9474" /><polygon points="640,32 640,32 480,189.8947 480,189.8947" /><polygon points="-416,-253.0526 -640,-32 -640,-32 -416,-253.0526" /><polygon points="-192,-474.1053 -416,-253.0526 -416,-253.0526 -192,-474.1053" /><polygon points="-32,-632 -192,-474.1053 -192,-474.1053 -32,-632" /><polygon points="-32,632 -32,632 -192,474.1053 -192,474.1053" /></g></defs><rect fill="#fff" height="1516.0" id="background" width="1532.0" x="-766.0" y="-758.0" /><use fill="none" stroke="black" stroke-miterlimit="0" stroke-width="15" xlink:href="#bsp_ref" /><use fill="white" stroke="black" stroke-width="1" xlink:href="#bsp_ref" /></svg>