<svg viewBox="-1104 -472 1720 2112" xmlns="http://www.w3.org/2000/svg" xmlns:xlink="http://www.w3.org/1999/xlink"><defs><g id="a"><path d="m-304 800v-216h64 128v120 120h-168-24z"/><path d="m-100 704h84v80 40h-84z"/><path d="m-112 704h12v120h-12z"/><path d="m-100 704h-12v-120h96v61 59z"/><path d="m-320 576h16v8 216h-16z"/><path d="m-240 368v56 160h-64v-8-144z"/><path d="m-216 344h64v80h-88v-56z"/><path d="m-16 584v-160h96v112 48 16l-96 45z"/><path d="m-152 424h64 72v160h-96-128v-160z"/><path d="m80 376h16v48h-16-96-72v-48z"/><path d="m80 424h16v112h-16z"/><path d="m-88 344v32 48h-64v-80z"/><path d="m-88 376v-32h120 48v32z"/><path d="m-16 704v-59 75 32 32z"/><path d="m96 376h-16z"/><path d="m-320 800h16z"/><path d="m80 536v48z"/><path d="m128 536h-32v-160h32z"/><path d="m128 536v-160z"/><path d="m80 536h16z"/><path d="m96 536v-112-48z"/><path d="m-352 576h32v224h-32z"/><path d="m-320 576v224z"/><path d="m608 216v-24 240z"/><path d="m568 152 40 40v24h-40z"/><path d="m568 120v32 64h-64-96v-64-32z"/><path d="m408 216h-64l64-64z"/><path d="m280 440v-224h64 64 96v224z"/><path d="m504 536-24 24h-124-76v-120h224z"/><path d="m568 216h40v216l-8 8h-96v-224z"/><path d="m600 440-96 96v-96z"/><path d="m504 536 96-96 8-8-128 128z"/><path d="m408 120h160z"/><path d="m264 440v-112-96-16h16v224z"/><path d="m280 560h-16v-120h16z"/><path d="m264 216v16h-56v-16z"/><path d="m208 376v-32-16h56v112 120h-56z"/><path d="m264 232v96h-56v-96z"/><path d="m192 344h-24v-16h40v16z"/><path d="m144 272 24-28.2355v84.2355 16h-16-8z"/><path d="m208 328h-40v-84.2355l10-11.7645h30z"/><path d="m208 232h-30l13.6-16h16.4z"/><path d="m192 344h16v32h-16z"/><path d="m192 376h16v184h-16z"/><path d="m168 344v32h-16v-32z"/><path d="m168 376v-32h24v32z"/><path d="m160 560-8-6v-178h16 24v184z"/><path d="m144 344v32z"/><path d="m152 376h-8v-32h8z"/><path d="m152 554-8-6v-12-160h8z"/><path d="m144 536h-16z"/><path d="m128 536h-48 16z"/><path d="m144 376v160h-16v-160z"/><path d="m-352 576h-32z"/><path d="m-352 576h32z"/><path d="m-352 576v224z"/><path d="m-384 576h32v224h-32z"/><path d="m408 120v-32z"/><path d="m568 120v-32z"/><path d="m568 120v32z"/><path d="m408 88h160v32h-160z"/><path d="m-384 576h-32z"/><path d="m-384 576v224z"/><path d="m-416 576h32v224h-32z"/><path d="m568 88h-160z"/><path d="m568-72v96h-224v-160h160z"/><path d="m344 24h-64v-160h64z"/><path d="m568 24v64h-160l-64-64z"/><path d="m568 88v-64z"/><path d="m344 24h-64z"/><path d="m568 120v-32z"/><path d="m232-280 48 96v20l-48-96z"/><path d="m232-260v20z"/><path d="m280-164v20l-28-56-20-40v-20z"/><path d="m280-144v8 160h-48v-112-112h20z"/><path d="m232-200v-40l20 40z"/><path d="m232-88v112h-24v-88z"/><path d="m232 24h48l-64 64-8 8v-72z"/><path d="m216 112h-8v-16l8-8z"/><path d="m232-240v40 112z"/><path d="m168 112v-88h40v72 16z"/><path d="m208 24h-40v-48l40-40z"/><path d="m208-64-40 40 24-24z"/><path d="m-304 576v-40-32-24-48z"/><path d="m-416 800h32z"/><path d="m-352 800h-32z"/><path d="m-352 800h32 16z"/><path d="m-432 584v-8h16v8z"/><path d="m-432 560v16 8h-24z"/><path d="m-432 584h16v200h-80v-160l40-40z"/><path d="m-416 784v16h-16-64v-16z"/><path d="m-304 576h-16z"/><path d="m-416 784v-200-8 224z"/><path d="m-496 624v-40h40z"/><path d="m-432 432v128l-24 24h-40v-152z"/><path d="m-432 432v128z"/><path d="m-496 432h-176 24 12 120z"/><path d="m-704 688v-32-64z"/><path d="m-656 784v-16h48v16z"/><path d="m-704 688v-96-8h96v184h-48-48z"/><path d="m-496 800-16-16h16z"/><path d="m-496 624v160h-16-96v-16-184h112z"/><path d="m-496 584h-112-96v-152h32 176z"/><path d="m-704 768h48z"/><path d="m-608 784h96-144z"/><path d="m-768 432h64v152 8h-64z"/><path d="m-88 344h8 24 40 48z"/><path d="m-88 344h-8z"/><path d="m-128 344h32 8-64-64z"/><path d="m-128 344v-8z"/><path d="m-96 344h-32v-8h32z"/><path d="m-16 784v8 32z"/><path d="m-16 784v-32z"/><path d="m-16 645v75z"/><path d="m-16 752h8z"/><path d="m-16 752v-32h8v32z"/><path d="m-8 752v-32z"/><path d="m608 432-40 40-8 8-16 16-64 64z"/><path d="m232-280 48 96z"/><path d="m225.6669-272.6663-5.3336-10.6671 11.6667 3.3334v20z"/><path d="m232-280v20z"/><path d="m-768 432v160z"/><path d="m220.3333-283.3334-28.3333-8.0952-32-9.1428 37 10.5714z"/><path d="m192-291.4286 28.3333 8.0952 5.3336 10.6671-17.6669-5.0481-16-4.5714z"/><path d="m160-300.5714 32 9.1428v9.1428l-32-9.1428z"/><path d="m225.6669-272.6663 6.3331 12.6663v20l-18-36z"/><path d="m232-240v152l-24 24v-168-45.7144l6 1.7144z"/><path d="m232-88-24 24z"/><path d="m208 216h52 20-16z"/><path d="m160-291.4286v59.4286z"/><path d="m192-232v-50.2858l16 4.5714v45.7144z"/><path d="m192-282.2858v50.2858h-32v-59.4286z"/><path d="m191.6 216-13.6 16-10 11.7645-24 28.2355z"/><path d="m208 216h-16.4z"/><path d="m168 112h40z"/><path d="m168 112h40-80z"/><path d="m160 24h8v88h-40-32v-88z"/><path d="m160-82v106h-64v-96l64-64z"/><path d="m160-82 8-22v80 48h-8z"/><path d="m168-24v-80l24-66v122z"/><path d="m192-232v62l-24 66-8 22v-54-96z"/><path d="m208-64-16 16v-122-62h16z"/><path d="m160-232v96z"/><path d="m96-72 64-64z"/><path d="m168 24v-48 48 88z"/><path d="m192 560h16z"/><path d="m160 560h32z"/><path d="m152 554 8 6z"/><path d="m-304 800v24z"/><path d="m-304 824h24z"/><path d="m-304 800h-48z"/><path d="m-832 656h-192z"/><path d="m-1024 496 64-64h160v192l-32 32h-192z"/><path d="m-800 432h32v160l-32 32z"/><path d="m-768 432h-32-160 24z"/><path d="m-96 336h-32z"/><path d="m-96 344v-8z"/><path d="m-128 336v8h32v-8z"/><path d="m-8 720h-8z"/><path d="m-16 720v32h8v-32z"/><path d="m-1024 592v-96 160z"/><path d="m-1024 592v64 160-112z"/><path d="m120-312 40 11.4286z"/><path d="m88-312h32l40 11.4286v9.1428z"/><path d="m160-300.5714v9.1428z"/><path d="m80-312h8l72 20.5714v59.4286h-64-16z"/><path d="m88-312h-8z"/><path d="m96 112h-64-16z"/><path d="m96 24v-96 96 88z"/><path d="m160-232v96l-64 64v-128-32z"/><path d="m16 112v-88h64 16v88z"/><path d="m80 24h-64v-144l64-48z"/><path d="m96-200v128 96h-16v-192-32z"/><path d="m96-232v32h-16v-32z"/><path d="m80-232v32 32z"/><path d="m16-120 64-48z"/><path d="m-832 656v112 48h-192v-160z"/><path d="m-832 768v48z"/><path d="m356 560h124z"/><path d="m356 560h-32-44z"/><path d="m280 560h44z"/><path d="m280 216h12 52z"/><path d="m344 216h-52z"/><path d="m292 216v-8z"/><path d="m280 208h12v8h-12z"/><path d="m356 568v-8z"/><path d="m324 560v8z"/><path d="m324 568v-8h32v8z"/><path d="m260 216v-8h20v8z"/><path d="m260 208v8z"/><path d="m260 208h20z"/><path d="m280 560h-72 56z"/><path d="m208 560h72z"/><path d="m208 560h-16z"/><path d="m-720 1312h96 16-32-32z"/><path d="m-1024 704v112 64 48-112-48z"/><path d="m-1024 496v96z"/><path d="m80-312h-32z"/><path d="m48-312h32v16h-32z"/><path d="m48-296h32v16h-48z"/><path d="m0-280h32 48v48h-64-16z"/><path d="m80-280v-16-16 80z"/><path d="m16 24v-144 144 88z"/><path d="m80-232v64l-64 48v-80-32z"/><path d="m-144 24h128 32v88h-64l-112-32-28-56z"/><path d="m-144 24v-16h128v16z"/><path d="m-16 8h-128v-128h128z"/><path d="m-208-136 32-48 16-16 16-16v96 128 16h-44l-20-40z"/><path d="m-128-232-16 16-16 16v-32z"/><path d="m-144-120v-96l16-16h112v32 80z"/><path d="m16-200v80 144h-32v-16-128-80z"/><path d="m-16-232h16 16v32h-32z"/><path d="m-48 112-48-13.7142-64-18.2858z"/><path d="m-176-184-32 48z"/><path d="m-720 1136v96h-48v-96z"/><path d="m-720 1136h48v48 48h-48z"/><path d="m-672 1136v-16h48v64h-48z"/><path d="m-672 1072v-64h48v64z"/><path d="m-672 880v80 48 64 32h-96v-224z"/><path d="m-672 1104v16 16h-48-48v-32z"/><path d="m-656 880h32v80h-48v-80z"/><path d="m-624 1072v-64-48-80h16v128 96h-16z"/><path d="m-608 1104v128h-16v-48-64-16z"/><path d="m-608 880v80 48z"/><path d="m-720 1232v80h-48v-80z"/><path d="m-672 1232h48v80h-96v-80z"/><path d="m-608 1232v80h-16v-80z"/><path d="m-832 816v-48 48 48 16z"/><path d="m-928 816h-96 192z"/><path d="m-928 816h96v64h-96z"/><path d="m-1024 816h96v64h-96z"/><path d="m-832 1104v-224h64v224z"/><path d="m-768 1136h-64v-32h64z"/><path d="m-832 880v224h-96v-48-176z"/><path d="m-832 1104v32h-96v-32z"/><path d="m-928 880v176h-96v-128-48z"/><path d="m-1024 1056h96v48 32 48h-96z"/><path d="m-768 1232v80h-128-32v-128-48h96 64z"/><path d="m-1024 1184h96v128h-96z"/><path d="m-1056 1056h-32 32 16z"/><path d="m-1040 928v80h-48v-80z"/><path d="m-1040 1008v-80h16v128h-16z"/><path d="m-1088 1008v-24-32-24z"/><path d="m-1056 1184h16-16-32z"/><path d="m-1088 1056h32v128h-32z"/><path d="m-1056 1056h16 16v128h-16-16z"/><path d="m-1040 1232v80h-48v-80z"/><path d="m-1040 1312v-80-48h16v128z"/><path d="m-896 1344v-32z"/><path d="m-1024 1344v-32h96 32v32z"/><path d="m324 560h32 124-112-48-40z"/><path d="m292 216v-8h-12v8z"/><path d="m280 208h12z"/><path d="m356 560h-32v8h32z"/><path d="m324 568h32z"/><path d="m260 216h-52z"/><path d="m280 208h-20v8h20z"/><path d="m-1024 1312h-16-48 48z"/><path d="m608 192v96 48 96z"/><path d="m0-232h-16-112-32z"/><path d="m0-264v-16 48z"/><path d="m32-280h-32z"/><path d="m32-280 16-16z"/><path d="m-160-248v-16h144 16v32h-160z"/><path d="m-16-280h16v16h-16z"/><path d="m-160-232v32z"/><path d="m-1024 1312v32z"/><path d="m-896 1376v-32-32z"/><path d="m-1024 1344h128z"/><path d="m-896 1376h-128v-20-12h128z"/><path d="m-768 688v-32z"/><path d="m-768 656h40z"/><path d="m-704 592h-64z"/><path d="m-712 688h8z"/><path d="m-704 688h-8v-32h8z"/><path d="m-728 688h-40v-32h40z"/><path d="m504-136h-160z"/><path d="m568 24v-96z"/><path d="m-160-264v16z"/><path d="m-16-280v16z"/><path d="m-16-280h16z"/><path d="m-160-296h128l16 16v16h-144z"/><path d="m-16-264h-144z"/><path d="m-624 1232h-48z"/><path d="m-672 1072h48z"/><path d="m-672 1072h48-16z"/><path d="m-672 960h48z"/><path d="m-672 960h48-16z"/><path d="m-624 1008h-48z"/><path d="m-672 1008v-48z"/><path d="m-624 960v48z"/><path d="m-672 1184h48z"/><path d="m-672 1120v-16-32z"/><path d="m-624 1120h-48z"/><path d="m-624 1072v32 16z"/><path d="m-672 1232v-48z"/><path d="m-624 1184v48z"/><path d="m-1024 1376v-20z"/><path d="m-1024 1376v12-32z"/><path d="m-896 1408v-32-64z"/><path d="m-1024 1376h128z"/><path d="m-896 1408h-128v-20-12h128z"/><path d="m-704 656v-64z"/><path d="m-712 656h8z"/><path d="m-728 688v-32z"/><path d="m-704 656h-8v32h8z"/><path d="m-712 656v32z"/><path d="m-768 688h40z"/><path d="m-728 656h-40v32h40z"/><path d="m-896 1312h128 48-160z"/><path d="m-32-328v32z"/><path d="m-32-296 16 16z"/><path d="m-160-328h128v32h-128z"/><path d="m-32-296h-128z"/><path d="m-1024 1408v-20z"/><path d="m-1024 1408v32z"/><path d="m-896 1440h-128z"/><path d="m-896 1408v32h-128v-32z"/><path d="m-896 1408v-96 128z"/><path d="m-1024 1408h128z"/><path d="m232-280-11.6667-3.3334z"/><path d="m220.3333-283.3334-23.3333-6.6666z"/><path d="m192-296v-3.6471l7.284 2.1423-2.284 7.5048-5-1.4286z"/><path d="m168.3169-306.6127 23.6831 6.9656v3.6471h-15.3845l-10.6155-3z"/><path d="m120-312 46 13 10.6155 3h-.6155z"/><path d="m176.6155-296h15.3845v4.5714l-16-4.5714z"/><path d="m197-290 2.284-7.5048z"/><path d="m120-312 46 13z"/><path d="m120-312h-32z"/><path d="m80 376v-32z"/><path d="m144 536v12z"/><path d="m144 376h-16z"/><path d="m80 376h48-32z"/><path d="m128 536h16v-16h-64v16z"/><path d="m-176-472h112l8 8h-120z"/><path d="m-32-328h-128z"/><path d="m-32-440v112z"/><path d="m-176-464v120z"/><path d="m-56-464 24 24v112h-128l-16-16v-120z"/><path d="m-1088 1008h48-16z"/><path d="m-1056 1008h16v48h-16z"/><path d="m-1088 1184h32z"/><path d="m-1056 1232h16-48z"/><path d="m-1056 1184v48z"/><path d="m-1056 1184h16v48h-16z"/><path d="m-896 1440 64 64v128h-128l-64-64v-128z"/><path d="m-768 872v8z"/><path d="m-736 880h64 16-16-96z"/><path d="m-656 880h-16z"/><path d="m-704 768v-64-16z"/><path d="m-704 768h48z"/><path d="m-768 768h32z"/><path d="m-736 860v-92z"/><path d="m-768 860v-92h32v92z"/><path d="m-736 880v-8z"/><path d="m-736 880h-32v-8h32z"/><path d="m-1088 928h48 16-16z"/><path d="m-1088 984h-8v-32h8z"/><path d="m-1096 984h8z"/><path d="m-1096 952v32z"/><path d="m-1032 1388h8z"/><path d="m-1024 1388h-8v-32h8z"/><path d="m-1032 1356v32z"/><path d="m-832 1632h-64-64z"/><path d="m-896 1632h64 112z"/><path d="m-176-472h-32z"/><path d="m-176-472h112z"/><path d="m568-72-64-64z"/><path d="m568-72v16 48 16 16z"/><path d="m344 24 64 64z"/><path d="m232-280-11.6667-3.3334z"/><path d="m-176-472v8z"/><path d="m-208-472h32v8h-32z"/><path d="m-160-328-16-16z"/><path d="m-176-344h-32z"/><path d="m-208-464v120z"/><path d="m-176-464v120h-32v-120z"/><path d="m220.3333-283.3334-23.3333-6.6666-21-6-56-16z"/><path d="m192-296v4.5714l5 1.4286 2.284-7.5048-7.284-2.1423z"/><path d="m166-299-46-13 56 16h.6155z"/><path d="m168.3169-306.6127-2.3169 7.6127 10.6155 3h15.3845v-3.6471z"/><path d="m176.6155-296h-.6155l16 4.5714v-4.5714z"/><path d="m199.284-297.5048-30.9671-9.1079z"/><path d="m168.3169-306.6127-2.3169 7.6127z"/><path d="m-160-280v-16 32z"/><path d="m-160-328v32z"/><path d="m-164-248h4z"/><path d="m-160-280h-4z"/><path d="m-164-280h4v16 16h-4z"/><path d="m16 112h-16-48z"/><path d="m96 112h32z"/><path d="m-48 112h48z"/><path d="m0 112v8z"/><path d="m32 120v-8z"/><path d="m16 112h16v8h-32v-8z"/><path d="m80 520v-40z"/><path d="m80 392v10.6667 29.3333z"/><path d="m144 392v10.6667-26.6667z"/><path d="m144 392v40-29.3333z"/><path d="m144 392v-16h-16-48v16z"/><path d="m144 520v-40h-64v40z"/><path d="m-832 1632v-128z"/><path d="m-704 1504v128z"/><path d="m-704 1504v128h-16-112v-128z"/><path d="m-832 1504-64-64z"/><path d="m-768 768v92z"/><path d="m-736 880h-32z"/><path d="m-736 880h64z"/><path d="m-768 860h32z"/><path d="m-736 768h-32v92h32z"/><path d="m-768 872v8h32v-8z"/><path d="m-736 872h-32z"/><path d="m-1088 952h-8v32h8z"/><path d="m-1088 952h-8z"/><path d="m-1088 928v24z"/><path d="m-1088 984v24z"/><path d="m-1024 1356h-8z"/><path d="m-1024 1356h-8v32h8z"/><path d="m-704 1632h-16z"/><path d="m-704 1632h128-64-32-48z"/><path d="m-720 1312h48z"/><path d="m-64-472 8 8z"/><path d="m-208-472v8z"/><path d="m-240-472h32v8h-32z"/><path d="m-240-464v120z"/><path d="m-208-464v120h-32v-120z"/><path d="m-672 1232h32 16-48-48z"/><path d="m144 272 47.6-56z"/><path d="m144 272v72z"/><path d="m80 536v-16-40-48-29.3333-26.6667-32 224 16z"/><path d="m80 402.6667v-10.6667-16z"/><path d="m80 536v-16z"/><path d="m80 584v16z"/><path d="m144 536v-16z"/><path d="m144 480v40z"/><path d="m144 344v32 26.6667 29.3333 48 40 16 12-178.8571-17.1429z"/><path d="m144 480v-48h-64v48z"/><path d="m144 432v-40h-64v40z"/><path d="m-608 880h-16-32z"/><path d="m-608 1008v64 160-128z"/><path d="m-672 1072h-48z"/><path d="m-640 1072h32v-64h-32-32v64z"/><path d="m-608 1008v-48h-32v48z"/><path d="m-640 960h32v-80h-48-16v80z"/><path d="m-672 960v-80z"/><path d="m-720 960h48z"/><path d="m-672 1008h32 16-48-48z"/><path d="m-640 960h16v48h-16z"/><path d="m-720 1008h48v-48h-48z"/><path d="m-608 1072h-32v48 64 48h32z"/><path d="m-640 1120h-32v64h32z"/><path d="m-672 1120v64z"/><path d="m-672 1184h-48 48 48-16z"/><path d="m-640 1120h16-48z"/><path d="m-640 1072h16v48h-16z"/><path d="m-672 1120h-48z"/><path d="m-720 1120h48v-48h-48z"/><path d="m-640 1184h16v48h-16z"/><path d="m-720 1232h48v-48h-48z"/><path d="m-640 1232v80h32v-80z"/><path d="m-672 1232v80h32v-80z"/><path d="m-672 1312v-80z"/><path d="m-608 1232v80z"/><path d="m-960 432-64 64z"/><path d="m-832 656 32-32 32-32z"/><path d="m-704 1504 64-64h128v128l-64 64h-128z"/><path d="m-432 432h-64z"/><path d="m-636 432h-12z"/><path d="m-496 432h-20z"/><path d="m-516 432h-120l4 12h112z"/><path d="m-160-248v16z"/><path d="m-160-280h-4v32h4z"/><path d="m-164-280v32z"/><path d="m32 120v-8h-32v8z"/><path d="m0 120h32z"/><path d="m-624 584 8 8h80l8-8z"/><path d="m-624 432v152h96v-152z"/><path d="m-240-472h96 80-112-32z"/><path d="m408 88-64-64z"/><path d="m408 152v-32z"/><path d="m408 120v32h16v-64h-16z"/><path d="m-240-472v8z"/><path d="m-272-464v-8h32v8z"/><path d="m-272-344v-88l32-32v120z"/><path d="m-272-432v-32h32z"/><path d="m-512 1440v64 64z"/><path d="m-512 1440v-128 16z"/><path d="m-640 1440v-128h128v128z"/><path d="m-512 1440h-128z"/><path d="m-640 1440-64 64z"/><path d="m280-136v20z"/><path d="m344-136h96 48 16z"/><path d="m280-136h64z"/><path d="m344-136h-64v20h64z"/><path d="m280 24-64 64z"/><path d="m-536 592h-80z"/><path d="m-624 432h96z"/><path d="m-624 584v-152z"/><path d="m-528 432v152z"/><path d="m-528 584-8 8h-80l-8-8v-152h96z"/><path d="m-616 592-8-8z"/><path d="m-528 584-8 8z"/><path d="m-432 432h-64z"/><path d="m-648 432h-24z"/><path d="m-496 432h-20-120-12 144z"/><path d="m-520 444h-112z"/><path d="m-520 444h-112l-4-12h120z"/><path d="m-516 432-4 12z"/><path d="m-632 444-4-12z"/></g><g id="b"><path d="m-272-472h32z"/><path d="m-144-472h-96-32-72-12-12 12 12z"/><path d="m-720 1312h48 32-16z"/><path d="m-640 1312h128z"/><path d="m-344-472h72v8h-80z"/><path d="m-272-464v-8z"/><path d="m-648-56 64-64z"/><path d="m-176-344 16 16h-16z"/><path d="m-176-344h-64 32z"/><path d="m-240-344h-32z"/><path d="m-272-344v-88z"/><path d="m-272-432v88h-88z"/><path d="m-272-344h32 64v16h-200l16-16z"/><path d="m-400-304v64z"/><path d="m-160-280v32z"/><path d="m-160-328v32 16z"/><path d="m-160-328v48 32 16h-16v-64-32z"/><path d="m-176-328v32h-32-16-64-96v-24l8-8z"/><path d="m-224-296h16v64h-16z"/><path d="m-224-296v64h-64v-8-56z"/><path d="m-208-296h32v64h-32z"/><path d="m-384-320v24 56h-16v-64z"/><path d="m-384-296h96v56h-80-16z"/><path d="m-288-240v8h-80v-8z"/><path d="m-384-240h16-24-8z"/><path d="m32 344h48z"/><path d="m-128 344h40-8z"/><path d="m-216 344h88z"/><path d="m-648 96v152 72z"/><path d="m-160-232v32l-16 16v-48z"/><path d="m-176-232v48l-32 48v-96z"/><path d="m-288-232h64 16v96 16h-160v-112z"/><path d="m-208 24v-40l20 40z"/><path d="m-424 24h-48-32-144v-80l64-64h160z"/><path d="m-368-120h160v104 40h-160-56v-144z"/><path d="m0 112h32 96l-32 160h-64-32z"/><path d="m32 304h-32v-32h32z"/><path d="m-96 98.2858 48 13.7142h-48z"/><path d="m-96 256v-144h48 48v160 32h-96z"/><path d="m-160 80 64 18.2858v13.7142 144h-32-32z"/><path d="m-208 24h20l28 56v176h-48l-160-80v-120-32z"/><path d="m-128 272v-16h32v48h-32z"/><path d="m-160 256h32v16h-48l-32-16z"/><path d="m-504 56v-32h32z"/><path d="m-648 96v-72h144v32 40 152h-144z"/><path d="m-504 248v72 24h-144v-24-72z"/><path d="m-432 320v24h-64-8v-24z"/><path d="m-208 256 32 16-48-24-16-8-48-24-80-40z"/><path d="m208 112h-80z"/><path d="m32 304v-32z"/><path d="m-424 24h56-104z"/><path d="m-432 344v-24z"/><path d="m32 112h-32z"/><path d="m128 112h-96 64z"/><path d="m-208-120v-16 120z"/><path d="m-188 24-20-40 20 40 28 56z"/><path d="m-176-184 16-16z"/><path d="m-672 344v-24h24v24z"/><path d="m152 920h24v168l-24 24z"/><path d="m152 912h24v8h-24z"/><path d="m176 920v-8 176z"/><path d="m-496 800v16 32 16 16z"/><path d="m-216 344-24 24-64 64z"/><path d="m80 344h-48-48v224h96z"/><path d="m-16 568v77l96-45v-16-16z"/><path d="m-16 344h-40v136 48.0011 39.9989h40z"/><path d="m-56 568v160.0011 63.9989h40v-8-139-77z"/><path d="m-56 792v8 24h40v-32z"/><path d="m-80 344h-8-40-88l-88 88v48h16 184 24z"/><path d="m-56 480v-136h-24v136z"/><path d="m-80 504 24 24.0011v-48.0011h-24-24z"/><path d="m-56 568v-39.9989l-24-24.0011v32 192.0011h24z"/><path d="m-80 728.0011v47.9989 8 8 32l24-24v-8-63.9989z"/><path d="m-80 536v-32h-32z"/><path d="m-272 504h8 152 32l-24-24h-184l-16 24z"/><path d="m-288 480h-16v24z"/><path d="m-272 504h-32v32z"/><path d="m-80 824h24v-24z"/><path d="m-112 824h32v-32z"/><path d="m-80 728.0011v-192.0011 96 144z"/><path d="m144 548v-178.8571z"/><path d="m-264 504h-8z"/><path d="m-16 645v139-32-32z"/><path d="m144 548 8 6z"/><path d="m80 600-96 45z"/><path d="m-280 824h168z"/><path d="m-16 824h-40-24-32 12z"/><path d="m-280 824h-24z"/><path d="m96 920h-16v-36h72v28 8z"/><path d="m80 1136v-112h16v120 24l-16 16z"/><path d="m96 1144v-120-64-40h56v192l-32 32z"/><path d="m96 1168v-24h24z"/><path d="m96 960h-16v-40h16z"/><path d="m80 960h16v64h-16-44v-64z"/><path d="m36 884v44h-44v-44z"/><path d="m-112 976v-48h104 44v32 64 112h-148z"/><path d="m80 920v40h-44v-32-44h44z"/><path d="m36 1136v-112h44v112z"/><path d="m36 1136h44v48h-192v-48z"/><path d="m-8 884v44z"/><path d="m-480 1232v-96z"/><path d="m-256 976h-224 16z"/><path d="m-112 1136h-16-112-16z"/><path d="m-256 1136h-224v-32-128h224z"/><path d="m-112 976v160h-144v-160z"/><path d="m-480 880h-16z"/><path d="m-496 880h16v96 128h-16z"/><path d="m-480 1104v32 96h-16v-128z"/><path d="m-432 432v-88z"/><path d="m-432 344v88h-64v-88z"/><path d="m-432 432h-64z"/><path d="m-672 880h-64-32 112z"/><path d="m-504 344v88h-144v-88z"/><path d="m-496 432h-8v-88h8z"/><path d="m-672 432v-88h24v88z"/><path d="m-656 768h-16-32z"/><path d="m-496 800v80h-112-48v-96h144z"/><path d="m-656 784v-16z"/><path d="m-496 800-16-16z"/><path d="m-608 1072v-192h112v224h-112z"/><path d="m-496 1104v128h-112v-128z"/><path d="m-672 1008v64z"/><path d="m-672 1008v-48-80h16 48v192h-64z"/><path d="m-672 960h-48z"/><path d="m-608 1072v32 128h-64v-48-64-48z"/><path d="m-672 1184h-48z"/><path d="m-608 1232h112 16v80h-32-128-32v-80z"/><path d="m-272-432v-32z"/><path d="m-400-416v112-56z"/><path d="m-376-328-8 8v-24h24z"/><path d="m-272-464v32l-88 88h-24v-88l32-32z"/><path d="m-384-432v88 24l-16 16v-112z"/><path d="m-768 880h-64z"/><path d="m-384-444v12l-16 16v-12z"/><path d="m-356-472h12l-8 8-32 32v-12z"/><path d="m-400-428v12z"/><path d="m-400-440 16-16v12l-16 16z"/><path d="m-384-456 16-16h12l-28 28z"/><path d="m-1056 1056h-32z"/><path d="m-1088 1008h32z"/><path d="m-1056 1056v-48z"/><path d="m-1056 1232h-32z"/><path d="m-640 1312v128z"/><path d="m424 88h40z"/><path d="m552 152h-40 29.3333z"/><path d="m552 152h-10.6667 26.6667z"/><path d="m552 152h16v-32-32h-16z"/><path d="m424 88v64h40v-64z"/><path d="m32 344h-144-16z"/><path d="m88 272h-56 64z"/><path d="m-128 304v-32z"/><path d="m-128 304v40z"/><path d="m32 304v40h-160v-40z"/><path d="m-128 304h32 96 32z"/><path d="m152 912v-28z"/><path d="m152 912h16 8z"/><path d="m152 737.0667v38.9333h-161.2308l-2.6285-17.0854z"/><path d="m-11.8593 758.9146 2.6285 17.0854z"/><path d="m152 776v8h-160l-1.2308-8z"/><path d="m-9.2308 776 1.2308 8z"/><path d="m152 784v64h-160v-64z"/><path d="m152 884h-72-44-44z"/><path d="m152 848v36h-160v-36z"/><path d="m280 4v-44z"/><path d="m344-136v20z"/><path d="m280-116v44h64v-44z"/><path d="m280 4v20h64v-20z"/><path d="m408 88h16z"/><path d="m568 88h-16z"/><path d="m512 88h40z"/><path d="m424 88h40 48 40 16-128-32z"/><path d="m464 152h48v-64h-48z"/><path d="m464 152h24 16 8z"/><path d="m344 216h-52-12z"/><path d="m608 192-40-40z"/><path d="m464 152h-40z"/><path d="m424 152h-16z"/><path d="m512 88v64h40v-64z"/><path d="m408 152-64 64z"/><path d="m152 784v-8-38.9333z"/><path d="m152 784v16 112-28-36z"/><path d="m32 344 1.6 8h-153.6l8-8z"/><path d="m40 384-120 17.1429-48 6.8571z"/><path d="m33.6 352 6.4 32-168 24v-48l8-8z"/><path d="m145.0678 682.0481 6.9322 21.9519v33.0667l-163.8593 21.8479-4.4885-29.1755z"/><path d="m-16.3478 729.7391 4.4885 29.1755 2.6285 17.0854z"/><path d="m152 737.0667-163.8593 21.8479z"/><path d="m-9.2308 776 1.2308 8z"/><path d="m-120 352-8 8v-16h16z"/><path d="m-960 1632h64z"/><path d="m-1024 1568 64 64z"/><path d="m280-184v48-8-20z"/><path d="m280-136v64-44z"/><path d="m280 24v-20z"/><path d="m344-40v44z"/><path d="m344-136v20 44z"/><path d="m344 4v20z"/><path d="m344-72v32 44 20-16-48-96z"/><path d="m280-72v32h64v-32z"/><path d="m344-40h-64v44h64z"/><path d="m-576 1632 64-64z"/><path d="m504 152h64-26.6667-29.3333z"/><path d="m504 152h-16z"/><path d="m152 704v72 8-46.9333z"/><path d="m-128 408v-48z"/><path d="m40 384 16.3473 22.8862-136.3473 73.1138v-78.8571z"/><path d="m56.3473 406.8862-16.3473-22.8862z"/><path d="m56.3473 406.8862-136.3473 73.1138z"/><path d="m134.618 648.9568 10.4498 33.0913-161.4156 47.691-8.0782-52.5078z"/><path d="m-24.426 677.2313 8.0782 52.5078 7.117 46.2609z"/><path d="m145.0678 682.0481-161.4156 47.691z"/><path d="m152 704-6.9322-21.9519z"/><path d="m-80 480-48-72 48-6.8571z"/><path d="m-304 800v-21z"/><path d="m-304 576v-40z"/><path d="m-432 800h-64z"/><path d="m-352 800h-80 16 32z"/><path d="m-320 576h16z"/><path d="m-432 576h112-32-32-32z"/><path d="m-432 576v21z"/><path d="m-304 576h-16-112v21h128z"/><path d="m-352 800h48v-21h-128v21z"/><path d="m-1056 1056h-32z"/><path d="m-1056 1056h-32v-48h32z"/><path d="m-1056 1232h-32z"/><path d="m-1056 1232h-32v-48h32z"/><path d="m56.3473 406.8862 23.6527 33.1138-120 88-40-48z"/><path d="m128 628h-48v-14l48-6z"/><path d="m128 628 6.618 20.9568-54.618 9.7099v-30.6667z"/><path d="m-24.426 677.2313-7.574-49.2313 112-14v14 30.6667z"/><path d="m152 704-6.9322-21.9519-10.4498-33.0913z"/><path d="m80 658.6667 54.618-9.7099-159.044 28.2745z"/><path d="m-80 480-48-72z"/><path d="m-128-472h64-80z"/><path d="m-1104 1104v48 160 16-16-160z"/><path d="m-368-472-16 16-16 16z"/><path d="m-480 1312h-32z"/><path d="m-1024 656v-160 96 112z"/><path d="m80 1184 16-16 24-24 32-32 24-24z"/><path d="m88 1200h-24z"/><path d="m192 1072v24l-16 16v-24z"/><path d="m104 1184-16 16h-24l16-16z"/><path d="m176 1088v24l-72 72h-24z"/><path d="m280-164v20 168-20-44-32-64-48z"/><path d="m320 440v-224h-40v224z"/><path d="m320 480v-32-8h-40v40z"/><path d="m320 440v8l24-16v-216h-24z"/><path d="m352 480-32-32v32z"/><path d="m560 480 8-8h-184l-5.3333 8z"/><path d="m378.6667 480 5.3333-8-40-40-24 16 32 32z"/><path d="m280 216h40 24z"/><path d="m408 152-64 64z"/><path d="m368 496 10.6667-16h-26.6667z"/><path d="m544 496 16-16h-181.3333l-10.6667 16z"/><path d="m368 496v64h112l64-64z"/><path d="m368 560v-64l-16-16h-32v80z"/><path d="m320 560v-80h-40v80z"/><path d="m280-184-48-96-8 4 1.6666 3.3333 46.3334 92.6667z"/><path d="m224-276 8-4-11.6667-3.3334z"/><path d="m272-180 8 16v-20z"/><path d="m232-280-11.6667-3.3334z"/><path d="m-128-464h-224 120z"/><path d="m-128-472h-16-200l-8 8h224z"/><path d="m-68-464h12l-8-8h-64v8z"/><path d="m-768 432v160z"/><path d="m-768 704v64z"/><path d="m-56-464 24 24z"/><path d="m-40-436 8-4-24-24h-12z"/><path d="m-32-440-8 4v108h8z"/><path d="m-40-436v108z"/><path d="m116-304 4-8h-32z"/><path d="m220.3638-274.1818 5.3028 1.5151-1.6666-3.3333z"/><path d="m220.3638-274.1818 3.6362-1.8182-3.6667-7.3334-100.3333-28.6666-4 8z"/><path d="m88-312h32z"/><path d="m272-180v20l8 16v-20z"/><path d="m216 112h-8z"/><path d="m272-160v180l8 4v-168z"/><path d="m216 88 64-64-8-4-64 64v12z"/><path d="m208 96v8 8h8v-24z"/><path d="m272 20-4 4-60 60z"/><path d="m216 88v24z"/><path d="m208 216h72-20z"/><path d="m280 560h-72z"/><path d="m280 216h-72v128 96h72z"/><path d="m208 440v120h72v-80-40z"/><path d="m-40-328v32h8v-32z"/><path d="m48-312v8h8 60l-28-8z"/><path d="m48-304v8h8v-8z"/><path d="m56-292v-4h-8l-16 16h12z"/><path d="m-32-296h-8v4l12 12h12z"/><path d="m36-272 8-8h-12-32-16-12l8 8z"/><path d="m-20-272h56z"/><path d="m-28-280-12-12 20 20z"/><path d="m48-312h40-8z"/><path d="m48-304v-8 16z"/><path d="m0-280h32z"/><path d="m-400-304v64h8v-72z"/><path d="m-368-240h-16-8z"/><path d="m-392-312v72-64z"/><path d="m208 216h-16.4l-47.6 56v72h8 40 16z"/><path d="m191.6 216h16.4z"/><path d="m144 272v72z"/><path d="m88 272h-8-48z"/><path d="m96 272h-8z"/><path d="m128 104h80-8-80z"/><path d="m128 112v-8h-8l-32 168h8z"/><path d="m208 112v-8h-80v8z"/><path d="m96 272 32-160z"/><path d="m-432 320v24z"/><path d="m192 912v-16 16 160z"/><path d="m192 560h16v-120-96h-16z"/><path d="m152 352v16 186l8 6h32v-216h-40z"/><path d="m192 560h-32z"/><path d="m160 560-8-6z"/><path d="m192 896v16h-16-8v-16z"/><path d="m152 800h16v96 16h-16z"/><path d="m192 896h-24z"/><path d="m168 800v96z"/><path d="m176 912h16v160l-16 16z"/><path d="m-304 800v24z"/><path d="m-304 536 32-32z"/><path d="m-272 504-32 32z"/><path d="m144 352v-8z"/><path d="m144 344v8h8v-8z"/><path d="m144 369.1429v-17.1429z"/><path d="m144 352v17.1429l8-1.1429v-16z"/><path d="m-80 536v48 48z"/><path d="m144 369.1429v178.8571l8 6v-186z"/><path d="m152 554-8-6z"/><path d="m-240 504h128-152z"/><path d="m-80 536-32-32z"/><path d="m-80 776v8z"/><path d="m-8 784-1.2308-8z"/><path d="m-80 784v8z"/><path d="m-8 848v-32-32z"/><path d="m-24 848v-32h16v32z"/><path d="m-24 816h16z"/><path d="m-112 824h-64-48z"/><path d="m-112 824h-112-56z"/><path d="m-80 792-32 32z"/><path d="m-280 824-24-24v24z"/><path d="m-432 560v16z"/><path d="m-432 800v-21z"/><path d="m-480 816h-16v-16h64v16z"/><path d="m-496 848v-32h16v32z"/><path d="m-480 848v-32z"/><path d="m64 1200h-176v-16h192z"/><path d="m-8 928h-16v-16-64h16z"/><path d="m-24 912v16h-88v-16z"/><path d="m-112 912v16 32h-16v-48z"/><path d="m-240 976h-16-208v-16h224z"/><path d="m-128 960h16v16h-128v-16z"/><path d="m-128 1152v-16h16v48 16h-16z"/><path d="m-240 1152h-224v-16h208 16z"/><path d="m-128 1136v16h-112v-16z"/><path d="m-496 864v-16h16v16z"/><path d="m-480 880h-16v-16h16 16v16z"/><path d="m-480 880h16v80 16h-16z"/><path d="m-480 1232v-96h16v16 80z"/><path d="m-128 912v48z"/><path d="m-24 912v-64z"/><path d="m-240 960h-224 208z"/><path d="m-464 864h-16z"/><path d="m-464 880v-16 16 80z"/><path d="m-464 1152v80z"/><path d="m-128 1152h-112z"/><path d="m-112 1136v48z"/><path d="m-112 960v-32 48z"/><path d="m-112 1184h192z"/><path d="m-112 928h88 16z"/><path d="m-8 928v-80 36z"/><path d="m-480 976v-96z"/><path d="m-240 976h128-144z"/><path d="m-256 1136h-208-16z"/><path d="m-704 432h32-32-64z"/><path d="m-672 432v-88z"/><path d="m-704 480v-48h-64v160h64z"/><path d="m-704 768h-16v-64h16z"/><path d="m-704 768h32v16h-48v-16z"/><path d="m-672 864v-80-16h16v96z"/><path d="m-752 768v16h-16v-16z"/><path d="m-752 768h-16v-64h16z"/><path d="m-672 864h16v16h-112v-16z"/><path d="m-752 784h-16z"/><path d="m-720 784h48-32z"/><path d="m-720 768v16-80z"/><path d="m-704 480v112 64 32 16-160z"/><path d="m-752 704h-16z"/><path d="m-704 688v-32z"/><path d="m-656 864v-96 16 96z"/><path d="m-464 1312h-16v-80h16z"/><path d="m-480 1312v-80z"/><path d="m-400-360v56l8-8v-56z"/><path d="m-392-368v56z"/><path d="m-400-416v56l8-8v-56z"/><path d="m-392-424v56 56 8z"/><path d="m-400-360v-56z"/><path d="m-832 656h-104-48z"/><path d="m-1024 496 64-64z"/><path d="m-768 592-64 64z"/><path d="m-832 656h-152-40v48 64h192z"/><path d="m-832 864v-48h16v48z"/><path d="m-768 880h-64v-16h16 48z"/><path d="m-768 784h-48v-16h48z"/><path d="m-768 864h-48z"/><path d="m-832 768v-112z"/><path d="m-392-436-8 8v12l8-8z"/><path d="m-344-472h-12l-8 8h12z"/><path d="m-352-464h-12z"/><path d="m-392-436-8-4v12z"/><path d="m-364-464-4-8-32 32 8 4z"/><path d="m-356-472h-12l4 8z"/><path d="m-400-440v12z"/><path d="m-1040 912v-96h16v112h-16z"/><path d="m-1040 912v16h-48-16v-16z"/><path d="m-1104 1104v-176h16v80 48 96h-16z"/><path d="m-1088 1152v32 48 80h-16v-160z"/><path d="m-1088 1008h32z"/><path d="m-1088 928v24 32 24z"/><path d="m-1088 1152v-96 128z"/><path d="m-1088 1312v-80z"/><path d="m-1024 1312v32 12z"/><path d="m-1024 1356v32z"/><path d="m-1024 1504v-116 20 32 128z"/><path d="m-512 1568-64 64z"/><path d="m-512 1568v-64z"/><path d="m-496 1328h-16v-16h32 16v16z"/><path d="m-512 1440v-112h16v176h-16z"/><path d="m-496 1328v176z"/><path d="m-896 1440h16l48 48 16 16h-16z"/><path d="m-896 1312h16v16 112h-16z"/><path d="m-704 1488 48-48h16l-64 64h-16z"/><path d="m-704 1488-16 16h-96l-16-16z"/><path d="m-640 1440h-16v-112-16h16z"/><path d="m-720 1312h64v16h-224v-16z"/><path d="m-880 1328v112z"/><path d="m-656 1328h-224z"/><path d="m-816 1504h96 16-128z"/><path d="m-1024 1356h-16v-28-16h16z"/><path d="m-1104 1328v-16h16 48v16z"/><path d="m-1040 1356h16v32 116h-16z"/><path d="m-1040 1504h16z"/><path d="m-1104 1328h64z"/><path d="m-640 1640v-8z"/><path d="m-896 1632v8z"/><path d="m-672 1640h-224v-8h176 48z"/><path d="m-640 1632v8h-32v-8z"/><path d="m-640 1640h-32z"/><path d="m-80 632v144z"/><path d="m128 608-48 6-112 14z"/><path d="m128 504v104z"/><path d="m-40 528 120-88z"/><path d="m-40 528-40-48z"/><path d="m-32 552 160-48v104l-160 20z"/><path d="m80 440 48 64-160 48-8-24z"/><path d="m128 608v20z"/><path d="m128 628 24 76-17.382-55.0432z"/><path d="m-208 504h48 48-128z"/><path d="m-88 584v48h8v-48z"/><path d="m-160 504h-48v8h8 40z"/><path d="m-224 824h-56z"/><path d="m-112 824h-64z"/><path d="m-176 816h-48v8h48z"/><path d="m-88 632h8z"/><path d="m-88 592v-8z"/><path d="m-88 592v32 8-48z"/><path d="m-168 512h8-40z"/><path d="m-160 512v-8z"/><path d="m-200 568v24z"/><path d="m-200 536v-24z"/><path d="m-168 584v-72h-32v24 32 24z"/><path d="m-88 624v-32h-72l-8 32z"/><path d="m-160 592-8-8-32 8 32 32z"/><path d="m-88 592h-72z"/><path d="m-200 568v-32l-48 16z"/><path d="m-200 536-48 16z"/><path d="m-216 744v40z"/><path d="m-184 744h-32v40h32z"/><path d="m-216 744 16-48z"/><path d="m-224 816v8z"/><path d="m-216 784v32h32v-32z"/><path d="m-184 784v32z"/><path d="m-184 816h8z"/><path d="m-184 816h-32-8 48z"/><path d="m-304 576v21z"/><path d="m-432 576v72-51z"/><path d="m-304 779v-51h-128v51z"/><path d="m-432 800v16z"/><path d="m-200 696 16 48z"/><path d="m-200 696-16 48h32z"/><path d="m608 192v96z"/><path d="m608 336v72 24z"/><path d="m408 88h32z"/><path d="m568 88h-80-48z"/><path d="m568 24v32z"/><path d="m568 24v32 32z"/><path d="m608 432-40 40z"/><path d="m600 328v-32z"/><path d="m600 336v-8z"/><path d="m608 288h-8v8 32 8h8z"/><path d="m456 152h48-16-24-40-16z"/><path d="m504 160h-8z"/><path d="m496 160h-32z"/><path d="m456 152v8h8 32 8v-8z"/><path d="m504 472h-48-72 184z"/><path d="m568 472h-64z"/><path d="m504 472v-8h-8-32-8v8z"/><path d="m464 464h32z"/><path d="m456 464h8z"/><path d="m384 472-40-40z"/><path d="m-128 272h-48z"/><path d="m-128 304v40-72z"/><path d="m-304 728v51 21z"/><path d="m-304 584v-8 21 51z"/><path d="m-304 800 24 24z"/><path d="m-88 624v-32-8 48z"/><path d="m-88 632v-8z"/><path d="m-160 512h-8z"/><path d="m-208 512h8z"/><path d="m-88 624h-80z"/><path d="m-200 568v-32-24h32v72l-32 8z"/><path d="m-88 592v32h-80l8-32z"/><path d="m-200 592 32-8 8 8-8 32z"/><path d="m-168 512v72z"/><path d="m-168 584 8 8z"/><path d="m-168 624-32-32z"/><path d="m-200 568-48-16z"/><path d="m-200 536v32l-48-16z"/><path d="m-216 744h32v40h-32z"/><path d="m-184 744v40z"/><path d="m-216 744 16-48 16 48z"/><path d="m-184 784v32h-32v-32z"/><path d="m-224 816h8z"/><path d="m-216 784v32z"/><path d="m-304 728v-80h-128v80z"/><path d="m-432 728v-80-72 8 184 32z"/><path d="m-432 576v-16z"/><path d="m-432 800v-21-51z"/><path d="m-304 648v-51h-128v51z"/><path d="m504-136 64 64z"/><path d="m568 88h-80z"/><path d="m488-136h-48v8h48z"/><path d="m560 8v8 32 8z"/><path d="m568 24v-16h-8v48h8z"/><path d="m560-56v48h8v-48z"/><path d="m344-40v48h8v-48z"/><path d="m488 80h-48v8h48z"/><path d="m552 328h8 40z"/><path d="m552 296v32h48v-32z"/><path d="m464 208h32v-48h-32z"/><path d="m496 208v-8-40z"/><path d="m496 208h-32v32h32z"/><path d="m552 328v-32h-32v32z"/><path d="m464 464h32v-48h-32z"/><path d="m496 464v-40-8z"/><path d="m464 416h32v-32h-32z"/><path d="m-648-56 16 8 56-56-8-16z"/><path d="m-648-56v80 72z"/><path d="m-368-120v-112z"/><path d="m-504 320h72z"/><path d="m-648 320h16z"/><path d="m-368-120h-56-160z"/><path d="m-648 96v224h16v-144-80z"/><path d="m-368 24v-16h-112l8 16z"/><path d="m-504 96v224-72z"/><path d="m-504 56v40z"/><path d="m-472 24h-8l-24 14.3995v17.6005z"/><path d="m-472 24-32 32z"/><path d="m-504 56-16-8v48h16z"/><path d="m-160 504h48z"/><path d="m-160 512h-48v-8h48z"/><path d="m-88 632v-48h8v48z"/><path d="m-80 584h-8z"/><path d="m-160 512h-8-32-8z"/><path d="m-208 504v8z"/><path d="m-80 776v8z"/><path d="m-224 824h48z"/><path d="m-176 824v-8z"/><path d="m-176 824h-48v-8h48z"/><path d="m-224 816h8 32 8z"/><path d="m-640 1632h64z"/><path d="m-672 1632h32 64-160z"/><path d="m-1104 928v-16 16 176z"/><path d="m-960 1632-64-64z"/><path d="m-1088 1312h48 16z"/><path d="m-656 1312h16-32z"/><path d="m-1024 768v48z"/><path d="m176 1112-72 72-16 16 16-16 72-72 16-16z"/><path d="m-384-444 20-20-28 28z"/><path d="m192 1072v24z"/><path d="m176 1088v24l16-16v-24z"/><path d="m80 1184h24l72-72v-24z"/><path d="m88 1200 16-16h-24l-16 16z"/><path d="m448-128h-8z"/><path d="m448-128h32 8-48z"/><path d="m488-128v-8z"/><path d="m560 16v-8z"/><path d="m560-48v-8z"/><path d="m560-48v32 8-48z"/><path d="m560-8h8z"/><path d="m560 56h8z"/><path d="m352 0v-32-8 48z"/><path d="m352 0v8z"/><path d="m480 80h-32-8 48z"/><path d="m480 80h8z"/><path d="m480-56v-72h-32v24 32 24z"/><path d="m488-48-8 32h80v-32z"/><path d="m480-16 8-32-8-8-32 8z"/><path d="m560 16h-80v32h80z"/><path d="m448 8 32-8-32-32-8 32z"/><path d="m480 48v-32-16l-32 8v8 32 32h32z"/><path d="m440 0 8-32h-96v32z"/><path d="m448 16v-8z"/><path d="m448-72v24z"/><path d="m448-104v-24z"/><path d="m480-16h80z"/><path d="m448-48 32 32z"/><path d="m480 0-32-32z"/><path d="m480 48v32z"/><path d="m448-32h-96z"/><path d="m448-104-48 16z"/><path d="m448-72v-32l-48 16z"/><path d="m448 16-48 16z"/><path d="m448 16-48 16 48 16z"/><path d="m440 80v8z"/><path d="m352-40h-8z"/><path d="m225.6666-272.6667 46.3334 92.6667z"/><path d="m-68-464h-60z"/><path d="m-72-456 4-8h-60-104l-8 8z"/><path d="m-68-464-4 8 24 24 8-4z"/><path d="m-40-328v-108l-8 4v104z"/><path d="m-48-432v104z"/><path d="m-40-436-28-28z"/><path d="m208-277.7144 17.6666 5.0477-5.3028-1.5151-104.3638-29.8182z"/><path d="m219.3333-265.3334 44.6667 89.3334z"/><path d="m225.6666-272.6667-5.3029-1.5152-4.3637 2.1819 3.3333 6.6666 44.6667 89.3334 8-4z"/><path d="m216-272 4.3637-2.1819-6.3637-1.8181z"/><path d="m272-160v-20l-8 4z"/><path d="m272-180v20z"/><path d="m208 104v-8-12z"/><path d="m208.7273-268.3636 7.2727-3.6364-2-4-6-1.7144v9.143z"/><path d="m208.7273-268.3636 10.606 3.0302-3.3333-6.6666z"/><path d="m264 16v8h4l4-4v-180l-8-16z"/><path d="m264 16-8 8h8z"/><path d="m208 84 60-60h-4-8l-48 48z"/><path d="m256 24 8-8-56 56z"/><path d="m272-160v180z"/><path d="m56-292 8 4v-8h-8z"/><path d="m36-272 4 8 24-24-8-4z"/><path d="m-24-264h12l-8-8-20-20v12z"/><path d="m-48-288 8 8v-12-36h-8z"/><path d="m40-264-4-8h-56l8 8z"/><path d="m56-304v8h8 48l4-8z"/><path d="m208-277.7144-92-26.2856-4 8 96 27.4286z"/><path d="m64-296v8z"/><path d="m208-268.5714-96-27.4286z"/><path d="m-40-280-8-8 24 24z"/><path d="m40-264 24-24z"/><path d="m56-296v-8 8 4z"/><path d="m56-304h60z"/><path d="m-40-328v36-4z"/><path d="m56-292-12 12-8 8z"/><path d="m-392-304v64h8v-72z"/><path d="m-720 1232h48z"/><path d="m32 272h48-32-40z"/><path d="m-128 272h24 12-84z"/><path d="m200 96v8h8v-20-12l-8 8z"/><path d="m120 104h80v-8h-88l-1.4545 8z"/><path d="m110.5455 104-30.5455 168h8l32-168z"/><path d="m200 96v-16z"/><path d="m200 96h-16-72z"/><path d="m120 104-32 168z"/><path d="m32 272v72-40z"/><path d="m32 344v-72h-24v72z"/><path d="m-480 24h8l-8-16-9.6 16z"/><path d="m152 800v-16z"/><path d="m152 848v-48-16z"/><path d="m168 800h-16z"/><path d="m168 912h8 16v-16h-24z"/><path d="m168 896v-96h-16v48 64h16z"/><path d="m192 912h-16v176l16-16z"/><path d="m176 912v176z"/><path d="m-496 864v-16-32-16 80z"/><path d="m-304 584v64 80 72z"/><path d="m-304 576v8z"/><path d="m32 344 1.6 8z"/><path d="m-112 504h-48-48z"/><path d="m-240 504h32z"/><path d="m-240 504h-24z"/><path d="m-8 848v-32h-16v32z"/><path d="m-8 784v32z"/><path d="m-24 848v-32z"/><path d="m-224 824h48 64-168z"/><path d="m-432 800h-32-32z"/><path d="m-496 800v16h16 48v-16z"/><path d="m-480 848v-32h-16v32z"/><path d="m-480 816h48z"/><path d="m80 1184h-192v16h176z"/><path d="m-24 912v16h16v-80h-16z"/><path d="m-112 912v16h88v-16z"/><path d="m-112 960v-32-16h-16v48z"/><path d="m-256 960h-208-16v16h224z"/><path d="m-112 976v-12-4h-16-112-16v16z"/><path d="m-128 1200h16v-16-32h-16z"/><path d="m-256 1136h-224v16h16 208z"/><path d="m-240 1152h112 16v-16h-144v16z"/><path d="m-480 864v-16h-16v16z"/><path d="m-464 880h-16v80h16z"/><path d="m-480 864h-16v16h16 16v-16z"/><path d="m-464 1152h-16v80h16z"/><path d="m-112 964v12z"/><path d="m-256 976h-224z"/><path d="m-112 1136h-144z"/><path d="m-128 1152v48z"/><path d="m-112 912h88-88-16z"/><path d="m64 1200h-176-16 16z"/><path d="m-128 960h-112z"/><path d="m-480 864v-16z"/><path d="m-240 1152h-16-208z"/><path d="m-672 784h16v-16h-48v16z"/><path d="m-704 704h-16z"/><path d="m-704 768v-64h-16v80h16z"/><path d="m-752 704h-16v64 16h16z"/><path d="m-752 784v-16-64z"/><path d="m-672 864h-96z"/><path d="m-672 784v80h16v-64-16z"/><path d="m-672 784v80z"/><path d="m-656 880v-16h-16-96v16z"/><path d="m-720 1184v48z"/><path d="m-720 1072v48z"/><path d="m-720 960v48z"/><path d="m-672 960v48z"/><path d="m-720 1008h48z"/><path d="m-672 960-24 24-24-24z"/><path d="m-672 1008-24-24 24-24z"/><path d="m-672 1072-24 24-24-24z"/><path d="m-672 1232v-48z"/><path d="m-672 1072v48z"/><path d="m-720 1120h48z"/><path d="m-672 1120-24-24 24-24z"/><path d="m-672 1232-24-24 24-24z"/><path d="m-672 1184-24 24-24-24z"/><path d="m-480 1232v80h16v-80z"/><path d="m-464 1232v80z"/><path d="m-240-456h-120 120 16 48z"/><path d="m-232-464h-120l-8 8h120z"/><path d="m-392-424v120l8-8v-120z"/><path d="m-768 768h-48z"/><path d="m-768 880h-64z"/><path d="m-832 864v-48 56 8z"/><path d="m-768 784h-48z"/><path d="m-768 768h-48v16h48z"/><path d="m-816 768v16z"/><path d="m-832 816v48h16v-48z"/><path d="m-816 816h-16z"/><path d="m-816 864v-48z"/><path d="m-768 864h-48-16v16h64z"/><path d="m-384-444-8 8v12l8-8z"/><path d="m-360-456-4-8-20 20v12z"/><path d="m-352-464h-12l4 8z"/><path d="m-392-436v12z"/><path d="m-1024 816h-16z"/><path d="m-1040 816v96z"/><path d="m-1024 816h-16v96 16h16z"/><path d="m-1104 912v16h16 48v-16z"/><path d="m-1040 912h-64z"/><path d="m-1088 1088v-160h-16v176 48h16z"/><path d="m-1104 1152v160h16v-160z"/><path d="m-1088 1088v64 160-176z"/><path d="m-1024 1344v160 64-32z"/><path d="m-1024 1568v-64z"/><path d="m-512 1328v-16 32z"/><path d="m-496 1328h32z"/><path d="m-496 1328h32v-16h-16-32v16z"/><path d="m-464 1312v16z"/><path d="m-512 1504h16z"/><path d="m-496 1328h-16v16 160h16z"/><path d="m-832 1488-48-48-16-16v16l64 64h16z"/><path d="m-880 1328v-16h-16v112l16 16z"/><path d="m-720 1504 16-16h-128l16 16z"/><path d="m-640 1440h-16l-48 48-16 16h16z"/><path d="m-640 1312h-16v16 112h16z"/><path d="m-656 1328v-16h-16-208v16z"/><path d="m-896 1424v-112 128z"/><path d="m-656 1328v112z"/><path d="m-704 1488h-128z"/><path d="m-656 1440-48 48z"/><path d="m-832 1488-48-48z"/><path d="m-1040 1328v28 148z"/><path d="m-1024 1344v-32h-16v16 176h16z"/><path d="m-1040 1312h-48-16v16h64z"/><path d="m-672 1632h-64-160v8h224z"/><path d="m-640 1640v-8h-32v8z"/><path d="m-672 1640h-224z"/><path d="m-1024 616v-48-72 160z"/><path d="m-984 656h-40z"/><path d="m-888 432h48 48 24-168z"/><path d="m-792 432h-48v8h48z"/><path d="m-928 440h40v-8h-48v8z"/><path d="m-936 656v-8h-8-40v8z"/><path d="m-1016 568h-8v48h8z"/><path d="m-504 38.3995 24-14.3995h-16l-24 24z"/><path d="m-504 38.3995-16 9.6005 16 8z"/><path d="m-368 8v-40z"/><path d="m-368-120v16 40z"/><path d="m-368-120v16z"/><path d="m-632 320h-16 56z"/><path d="m-520 320h-40z"/><path d="m-632 176v144h40v-8-68.8-67.2z"/><path d="m-368-104v-16h-216l8 16z"/><path d="m-632-48-16-8v152h16z"/><path d="m-368 8v-40h-14-114l16 40z"/><path d="m-480 8-16 16h6.4z"/><path d="m-480 8-16-40-56 56h56z"/><path d="m-520 96v-48l-40-16v211.2 12.8h40z"/><path d="m-520 96v160 64h16v-224z"/><path d="m152 848v8 56z"/><path d="m-8 784v32 32z"/><path d="m-112 976h-144z"/><path d="m-256 976h-224v24h224z"/><path d="m-496 880h16z"/><path d="m-480 1136v48 48-80z"/><path d="m-256 1136h-224z"/><path d="m-112 1136v-24h-144v24z"/><path d="m-656 880h24z"/><path d="m-656 800v-32 16z"/><path d="m-656 800v64 16z"/><path d="m-496 800h-24z"/><path d="m-496 800h-24v80h24z"/><path d="m-1016 608v8z"/><path d="m-1016 608v-32-8 48z"/><path d="m-832 440h32 8-48z"/><path d="m-896 440h8-40z"/><path d="m-832 440h-8z"/><path d="m-888 440v-8z"/><path d="m-792 440v-8z"/><path d="m-928 440v64h32v-64z"/><path d="m-832 440v64h32v-64z"/><path d="m-944 536h112 32v-32h-32-64-32-24l-24 32z"/><path d="m-800 504v32-32-64z"/><path d="m-896 504h64z"/><path d="m-896 440v64z"/><path d="m-928 504h-24z"/><path d="m-952 504-24 32z"/><path d="m-832 536 16 64z"/><path d="m-800 536h-32l16 64z"/><path d="m-944 608v40z"/><path d="m-944 576v32l64-16z"/><path d="m-976 648h-8 40z"/><path d="m-976 648v-40z"/><path d="m-976 576v-40z"/><path d="m-944 608v-32-40h-32v40 32 40h32z"/><path d="m-1016 576h40z"/><path d="m-976 576h-40v32h40z"/><path d="m-984 648v8z"/><path d="m-1016 568h-8z"/><path d="m-1024 872v-80-24 48 112z"/><path d="m600 296v-8z"/><path d="m600 296v32z"/><path d="m464 160h32z"/><path d="m464 160h-8z"/><path d="m520 328h32 8-8z"/><path d="m560 296h-8 48z"/><path d="m560 296h-8-32 32z"/><path d="m496 240v-32-8 8z"/><path d="m464 200v8 32-32z"/><path d="m464 200v8-48z"/><path d="m496 200h-32v-40h32z"/><path d="m464 200h32v8h-32z"/><path d="m560 328v-32h40v32z"/><path d="m560 296v32h-8v-32z"/><path d="m496 464h8z"/><path d="m496 464h-32z"/><path d="m464 424v40-48z"/><path d="m464 384v32 8-8z"/><path d="m496 424v-8-32 32z"/><path d="m496 464h-32v-40h32z"/><path d="m496 424h-32v-8h32z"/><path d="m-366-32h-2z"/><path d="m-366-64v32z"/><path d="m-366-32v-32h-2v32z"/><path d="m-368-32h-14z"/><path d="m-368-64h-14v32h14z"/><path d="m-848 872v-8z"/><path d="m-848 864v-72 8z"/><path d="m-832 768v24 24z"/><path d="m-832 816v-24h-16v72 8h16z"/><path d="m-1008 864v-64-8h-16v80h16z"/><path d="m-1008 792v8z"/><path d="m-1008 800v64z"/><path d="m-560 306h-32v16h32z"/><path d="m608 288v48z"/><path d="m488-128h-8z"/><path d="m560-8v-8z"/><path d="m560 48v-32-8 48z"/><path d="m560 56v-8z"/><path d="m352-40v8z"/><path d="m448 80h-8z"/><path d="m448 80h32 8z"/><path d="m448-72v-32-24h32v72l-32 8z"/><path d="m480-56 8 8-8 32-32-32z"/><path d="m480-16 8-32h72v32z"/><path d="m480 16h80v32h-80z"/><path d="m448-32 32 32-32 8-8-8z"/><path d="m448 48v-32-8l32-8v16 32 32h-32z"/><path d="m448-32-8 32h-88v-32z"/><path d="m448 80v-32z"/><path d="m488-48h72z"/><path d="m480-128v72z"/><path d="m480-56 8 8z"/><path d="m480 16h80z"/><path d="m480 0v16z"/><path d="m560 48h-80z"/><path d="m448-72-48-16z"/><path d="m448-104v32l-48-16z"/><path d="m440 0h-88z"/><path d="m448 8-8-8z"/><path d="m448 16v32l-48-16z"/><path d="m448 48-48-16z"/><path d="m600 288h8z"/><path d="m608 336h-8z"/><path d="m600 328v-32-8h8v48h-8z"/><path d="m504 152v8z"/><path d="m456 160v-8z"/><path d="m496 160h-32-8v-8h48v8z"/><path d="m504 472h-48z"/><path d="m456 472v-8z"/><path d="m464 208 16 16-16 16z"/><path d="m504 464v8z"/><path d="m464 464h32 8v8h-48v-8z"/><path d="m-104 344h-24z"/><path d="m8 344h-40z"/><path d="m-672 344v-24z"/><path d="m-368-64v-56z"/><path d="m-368-32v40 16z"/><path d="m-368 24v-16z"/><path d="m-368-64h2z"/><path d="m-104 272v72h40v-72z"/><path d="m-104 272h-24v72h24z"/><path d="m-504 320h-16z"/><path d="m-504 320h-16v-8h16z"/><path d="m-592 312v8h-56v-8z"/><path d="m-560 320v-8h40v8z"/><path d="m-504 320v-8h8 64v8z"/><path d="m-592 19.2v156.8 67.2h32v-211.2z"/><path d="m-592 243.2v68.8h32v-56-12.8z"/><path d="m-552 24 56-56v-32h-16l-2.666 2.666-74.6666 74.6666-2.6674 2.6674v3.2l32 12.8z"/><path d="m-382-32v-32h-114v32z"/><path d="m-592 312h-56z"/><path d="m-432 312v8z"/><path d="m-592 19.2v-3.2l-40-64v144 80h40z"/><path d="m-512-64-5.8182-3.6364 3.1522 6.3024z"/><path d="m-592 16 2.6674-2.6674 74.6666-74.6666-3.1522-6.3024-58.1818-36.3636-56 56z"/><path d="m-382-64h14z"/><path d="m-496-64h114 14v-40h-208l58.1818 36.3636 5.8182 3.6364z"/><path d="m-382-32v-32z"/><path d="m-560 256v56 8h40v-64z"/><path d="m-552 24-8 8 40 16 24-24z"/><path d="m-648 312v8h-24v-8z"/><path d="m-672 320h24z"/><path d="m-880 592-64 16z"/><path d="m-848 800v-8z"/><path d="m-848 800h-160z"/><path d="m-848 864v-64h-160v64z"/><path d="m-656 304h-16v16h16z"/><path d="m-432 304h-224v16h224z"/><path d="m488-136h16z"/><path d="m440-136h-96z"/><path d="m488 88h80-128z"/><path d="m344-40v-96z"/><path d="m344 24v-16z"/><path d="m488-128h-8-32-8z"/><path d="m440-136v8z"/><path d="m488-128h-48v-8h48z"/><path d="m560-8v-8-32-8z"/><path d="m568 8v-16-48 112z"/><path d="m568-8v16z"/><path d="m568 88v-32z"/><path d="m568 8h-8z"/><path d="m560-8v-48h8v48z"/><path d="m568-56h-8z"/><path d="m560 8h8v48h-8z"/><path d="m352-40v8 32 8z"/><path d="m488 88v-8z"/><path d="m488 88h-48v-8h8 40z"/><path d="m344 8v-48h8v48z"/><path d="m344 8h8z"/><path d="m-432 312h-64z"/><path d="m-504 312h8-8-16-40-32z"/><path d="m-648 312h-24z"/><path d="m616 408v-216 216 24z"/><path d="m608 336v-48-96-8l8 8v216h-8z"/><path d="m616 408v24l-8 8v-8-24z"/><path d="m616 432-8 8z"/><path d="m440-136h64-16z"/><path d="m440 88h128-160z"/><path d="m344-136v160z"/><path d="m344-136v96 48 16z"/><path d="m568 56v-112-16 160z"/><path d="m568-72v16z"/><path d="m408 88-64-64z"/><path d="m568 472 40-40v8l-40 40h-8z"/><path d="m568 480h-8z"/><path d="m568 144 40 40z"/><path d="m568 152 40 40z"/><path d="m568 152v-8l40 40v8z"/><path d="m568 144v8l-8-8z"/><path d="m456 152h48z"/><path d="m456 152h-48z"/><path d="m568 152h-64-48-48-8l8-8h152z"/><path d="m400 152-64 64z"/><path d="m344 216 64-64z"/><path d="m384 472h72z"/><path d="m344 216v216l-4.7998 3.2003-3.2002-3.2003v-208z"/><path d="m339.2002 435.2003 4.7998-3.2003 40 40h-8z"/><path d="m344 432v-216z"/><path d="m384 472-3.2 4.8-4.8-4.8z"/><path d="m456 472h48 64l-8 8h-176l-3.2-3.2 3.2-4.8z"/><path d="m336 216h8l-8 8z"/><path d="m400 152h8l-64 64h-8z"/><path d="m-64 344h-40z"/><path d="m32 344h-24z"/><path d="m80 272h-32z"/><path d="m-64 272h-28-12z"/><path d="m-32 272h40z"/><path d="m-32 272h-32v72h32z"/><path d="m-32 272v72h40v-72z"/><path d="m128 848h-40z"/><path d="m16 848h12 28z"/><path d="m16 784h12-36z"/><path d="m128 848h24v-64h-24z"/><path d="m16 848v-64h-24v64z"/><path d="m16 784v64h40v-16-32-16z"/><path d="m-112 1000v40z"/><path d="m-112 1112v-12-28z"/><path d="m-112 1000v-24h-144v24z"/><path d="m-256 1000h-224v40h16 208z"/><path d="m-480 1112v-40z"/><path d="m-480 1112v24z"/><path d="m-256 1112h-224v24h224z"/><path d="m-112 1112v-40h-16-112-16v40z"/><path d="m-496 880h-24z"/><path d="m-656 800h24z"/><path d="m-632 800h40-64z"/><path d="m-520 800h-40v16 48 16h40z"/><path d="m-632 800h-24v80h24z"/><path d="m-1016 568v8z"/><path d="m-832 536h-112z"/><path d="m-928 440h-8z"/><path d="m-792 440h-8z"/><path d="m-888 440h-8z"/><path d="m-928 504h32 64 32v32h-32-112-32l24-32z"/><path d="m-800 504h-32v-64h32z"/><path d="m-896 504h-32v-64h32z"/><path d="m-928 504v-64z"/><path d="m-832 504v-64z"/><path d="m-800 536-16 64z"/><path d="m-832 536h32l-16 64z"/><path d="m-944 536v40z"/><path d="m-944 576 64 16z"/><path d="m-944 576 64 16-64 16z"/><path d="m-984 648h8z"/><path d="m-976 608v-32-40h32v40 32 40h-32z"/><path d="m-976 608h-40z"/><path d="m-1016 576h40v32h-40z"/><path d="m-1024 568v-72z"/><path d="m-1024 656v-40z"/><path d="m-366-32h-2v-32h2z"/><path d="m-936 656h-48z"/><path d="m-1016 568v8 32 8z"/><path d="m-888 440h-8-32z"/><path d="m-792 440h-8-32-8z"/><path d="m-888 432h48z"/><path d="m-792 432h24z"/><path d="m-792 440h-48v-8h48z"/><path d="m-840 432v8z"/><path d="m-888 432v8h-40-8v-8z"/><path d="m-936 432v8z"/><path d="m-944 648h8v8h-48v-8z"/><path d="m-936 648h-8z"/><path d="m-936 656v-8z"/><path d="m-984 648h8 32z"/><path d="m-1024 568h8v48h-8z"/><path d="m-1024 616h8z"/><path d="m-592 322v-16z"/><path d="m-560 322h-32v-16h32z"/><path d="m-560 306v16z"/><path d="m-560 322h-32z"/><path d="m-592 306h32z"/><path d="m-672 1312h-224 16z"/><path d="m-1024 496v72 48 40z"/><path d="m-384-432 24-24z"/><path d="m-768 432v160z"/><path d="m-72-456h-168 64z"/><path d="m-48-432-24-24h-104l-48 48v80h176z"/><path d="m-240-392v64h16v-80z"/><path d="m-240-328v-64l-64 64z"/><path d="m-48-432-24-24z"/><path d="m264-44.5714v-131.4286l-44.6667-89.3334-11.3333-3.238v36.5714 187.4286z"/><path d="m264 16v-60.5714h-56v36.5714 80z"/><path d="m264-176v131.4286 60.5714z"/><path d="m219.3333-265.3334-11.3333-3.238z"/><path d="m-240-240h-128v8h128z"/><path d="m-368-240h128v-88h-64l-80 80v8z"/><path d="m-24-264h-24-176v32h224v-32z"/><path d="m0-232h88v-32h-48-40z"/><path d="m-240-328v88 8h16v-32-64z"/><path d="m-224-328v64h176v-24-40z"/><path d="m-24-264-24-24v24z"/><path d="m88-264v-12l-24-12-24 24z"/><path d="m88-296h-24v8l24 12z"/><path d="m208-268.5714-96-27.4286h-24v20 12 32h120z"/><path d="m-48-328v40z"/><path d="m88-296h24-48z"/><path d="m0-264h40-52-12z"/><path d="m-368-232v-8z"/><path d="m-368-240h-16z"/><path d="m-384-240v-8-64z"/><path d="m-696 1208 24 24h-48z"/><path d="m-368 24v-32-112 56 32z"/><path d="m-368 56v-32z"/><path d="m-368 176v-120z"/><path d="m48 272h-224 84 28 32 40z"/><path d="m88-232v8 48 168h120v-36.5714-187.4286z"/><path d="m88-8v32 24 48h24 72l16-16 8-8v-80z"/><path d="m-240-232v16l2.6667 5.3334 13.3333-13.3334v-8z"/><path d="m-224-232v8h48 104 72v-8z"/><path d="m0-224h40 48v-8h-88z"/><path d="m88-224h-48l48 48z"/><path d="m-176-224h-48l-13.3333 13.3334 13.3333 26.6666z"/><path d="m-224-184-13.3333-26.6666-2.6667-5.3334v208 16h16z"/><path d="m-240 8v208 24l16 8v-200-24-16z"/><path d="m200 80-16 16h16z"/><path d="m48 96h-8-216v176h224z"/><path d="m80 272 32-176h-24-40v176z"/><path d="m-224 248 48 24v-176l-48-48z"/><path d="m88 48-48 48h8 40z"/><path d="m-368-232v112 112h128v-208-16z"/><path d="m-368-8v32 32 120l80 40h48v-208-16z"/><path d="m-288 216 48 24v-24z"/><path d="m-72-224h-104z"/><path d="m88-8v-168 200z"/><path d="m208 72-8 8z"/><path d="m112 96-32 176 30.5455-168z"/><path d="m-648 312h144-88z"/><path d="m-504 312h72-64z"/><path d="m-672 312h24z"/><path d="m152 848h-24z"/><path d="m28 848h-12-24z"/><path d="m88 784h40z"/><path d="m128 784h24z"/><path d="m56 784h-28-12z"/><path d="m88 800v-16z"/><path d="m88 784v16 32 16h40v-64z"/><path d="m88 832v-32h-32v32z"/><path d="m88 800h-32z"/><path d="m56 832v16z"/><path d="m-112 928v32 4 12 24z"/><path d="m-112 1100v12 24z"/><path d="m-112 928h8 96-16z"/><path d="m-464 1040h-16z"/><path d="m-480 1040v-40z"/><path d="m-480 1000v-24z"/><path d="m-480 1040v-40-24z"/><path d="m-480 976v-16-80z"/><path d="m-240 1040h112 16v-40h-144v40z"/><path d="m-480 1136v-24-40z"/><path d="m-240 1040h-16-208v32h208 16z"/><path d="m-128 1072v-32h-112v32z"/><path d="m-128 1072h16z"/><path d="m-128 1072v-32z"/><path d="m-480 1072h16z"/><path d="m-256 1072h-208-16v40h224z"/><path d="m-496 880h-64z"/><path d="m-496 880h-24-40z"/><path d="m-704 432h32z"/><path d="m-560 800h40 24z"/><path d="m-592 864v16z"/><path d="m-560 816h-32v48h32z"/><path d="m-560 816v-16z"/><path d="m-592 864v-48-16h-40v80h40z"/><path d="m-704 704v64z"/><path d="m-704 432v48z"/><path d="m-704 544v160 64-184z"/><path d="m-696 984-24 24v-48z"/><path d="m-696 1096-24 24v-48z"/><path d="m-696 1208-24 24v-48z"/><path d="m-696 984 24 24h-48z"/><path d="m-696 1096 24 24h-48z"/><path d="m-384-248v-184 120z"/><path d="m-304-328 64-64v-64h-120l-24 24v184z"/><path d="m-224-456h-16v64l16-16z"/><path d="m-176-456h-48v48z"/><path d="m-984 656h48 104-192z"/><path d="m-832 656h-104z"/><path d="m-936 432h-24z"/><path d="m-768 432h-24-48-48-48z"/><path d="m-672 1472-32 32h-128l-64-64v-128h224z"/><path d="m-640 1312v128l-32 32v-160z"/><path d="m-640 1312v128z"/><path d="m-704 1504h-16-96-16z"/><path d="m-672 1472 32-32-64 64z"/><path d="m-832 1504-64-64z"/><path d="m152 1112-72 72 96-96z"/><path d="m480 224-16-16h32z"/><path d="m480 224 16-16v32z"/><path d="m480 224 16 16h-32z"/><path d="m536 312 16-16v32z"/><path d="m536 312-16-16h32z"/><path d="m536 312 16 16h-32z"/><path d="m536 312-16 16v-32z"/><path d="m480 400 16 16h-32z"/><path d="m480 400 16-16v32z"/><path d="m480 400-16 16v-32z"/><path d="m480 400-16-16h32z"/><path d="m-128 344h8 8 144-24-40-32-40z"/><path d="m152 912h16 8-8z"/><path d="m152 1112 24-24-8-4-16 16z"/><path d="m168 912h-16v8h16z"/><path d="m176 912h-8v8 164l8 4z"/><path d="m168 920v8 156z"/><path d="m168 1084-16 16z"/><path d="m152 848h-24-40z"/><path d="m56 848h-28-36z"/><path d="m88 784h40 24z"/><path d="m-8 784h36 28z"/><path d="m144 776h-146z"/><path d="m-120 352h146l6-8h-144z"/><path d="m32 344-6 8h7.6z"/><path d="m-7.9459 736-3.5676-24-5.946-40-3.5675-24-2.973-20v52l14.7692 96h7.2308z"/><path d="m133.8947 672 10.1053 32h8l-24-76v25.3333z"/><path d="m152 704h-8v32 40h8z"/><path d="m-128 408 8-2v-54l-8 8z"/><path d="m-24 628v-44-32l-2.3415-7.6097-5.6585-6.7903v14.4 76l8 52z"/><path d="m128 628v-20-104h-8v124l6.3158 20 1.6842 5.3333z"/><path d="m26 352 6 32h6 2l-6.4-32z"/><path d="m40 384h-2l42 56z"/><path d="m80 440-42-56h-6l88 120h8z"/><path d="m-40 528 8 24v-14.4z"/><path d="m-32 526-18.3333-22-21.6667-26-8 2 53.6585 64.3903z"/><path d="m-80 480 8-2-48-72-8 2z"/><path d="m144 776v-40z"/><path d="m144 736v-32 8z"/><path d="m-264 504h24z"/><path d="m-120 352v54-14z"/><path d="m120 504v16 24 40 24 20z"/><path d="m120 628 6.3158 20z"/><path d="m-32 526-5-6-13.3333-16z"/><path d="m-26.3415 544.3903 2.3415 7.6097-2.4615-8-5.5385-18z"/><path d="m-24 584v44-20z"/><path d="m-21.027 648 3.5675 24z"/><path d="m-11.5135 712 3.5676 24z"/><path d="m33.6 352 6.4 32z"/><path d="m-80 584v-48z"/><path d="m-80 776v-144-48z"/><path d="m80 440 48 64z"/><path d="m40 384 40 56-23.6527-33.1138z"/><path d="m-32 552v76z"/><path d="m-32 552-8-24z"/><path d="m128 608v20z"/><path d="m-9.2308 776-14.7692-96-8-52 7.574 49.2313z"/><path d="m-112 504h-96-32z"/><path d="m-80 536-32-32z"/><path d="m56 784h32 64v-8h-8-146-7.2308l1.2308 8z"/><path d="m-264 504h-8z"/><path d="m88 848v-16z"/><path d="m88 800v-16h-32v16z"/><path d="m56 784v16z"/><path d="m88 848v-16h-32v16z"/><path d="m88 832h-32z"/><path d="m-120 352v-8h-8v16z"/><path d="m-120 344v8l8-8z"/><path d="m-128 360v-16z"/><path d="m-112 928v72 40z"/><path d="m-112 1072v28 36z"/><path d="m-112 1184v-32-16 16z"/><path d="m-104 1184h-8 192z"/><path d="m152 912v-56h-8v64h8z"/><path d="m88 856v-8h-32v8z"/><path d="m88 848v8h56 8v-8z"/><path d="m80 1184 72-72v-12l-76 76z"/><path d="m0 856h-8v72 8h8z"/><path d="m0 856h56v-8h-64v8z"/><path d="m-8 928h-96v8h96z"/><path d="m-104 936v-8h-8v112 32 64 16h8z"/><path d="m-112 1152v32h8v-8-24z"/><path d="m76 1176h-180v8h184z"/><path d="m144 856v64z"/><path d="m76 1176h-172-8z"/><path d="m-8 928v-72-8z"/><path d="m-112 1040h-16z"/><path d="m-128 1040v32h16v-32z"/><path d="m-848 864v-64-8z"/><path d="m-1008 864v8z"/><path d="m-848 800v64h-160v-64z"/><path d="m-848 864h-160z"/><path d="m-1008 792h-16z"/><path d="m-1024 792v-24z"/><path d="m-1024 928v-56z"/><path d="m-120 352h128.5333 17.4667z"/><path d="m144 712v-8z"/><path d="m37.8667 392 17.6001 24 29.3333 40 17.6 24 17.5999 24-88-120z"/><path d="m32 384 5.8667 8z"/><path d="m37.8667 392h-157.8667z"/><path d="m84.8001 456h-171.4668l14.6667 22 1.6667 2h172.7334z"/><path d="m37.8667 392h-157.8667v14l6.6667 10h168.8001z"/><path d="m84.8001 456h-.0001-171.4667z"/><path d="m-86.6667 456-26.6666-40-6.6667-10 48 72z"/><path d="m-50.3333 504-20-24-1.6667-2z"/><path d="m126.3158 648h-6.3158-141.027z"/><path d="m120 544v40z"/><path d="m120 504v16z"/><path d="m120 628 6.3158 20z"/><path d="m-24 584h144-134.1538z"/><path d="m120 544v-24h-153.8461l1.8461 6 5.5385 18z"/><path d="m-33.8461 520h-3.1539l5 6z"/><path d="m-33.8461 520h153.8461-157z"/><path d="m-37 520-13.3334-16h.0001z"/><path d="m-24 552-2.4615-8z"/><path d="m-24 552v32z"/><path d="m-24 628v-20z"/><path d="m120 608v-24h-144v24z"/><path d="m-24 628 2.973 20z"/><path d="m133.8947 672-7.5789-24h-147.3428l3.5675 24z"/><path d="m126.3158 648 7.5789 24-5.8947-18.6667z"/><path d="m144 712h-155.5135z"/><path d="m-17.4595 672 5.946 40z"/><path d="m144 704-10.1053-32z"/><path d="m144 736v-24h-155.5135l3.5676 24z"/><path d="m-832 872v8z"/><path d="m-832 872v-80-24 112z"/><path d="m-832 768v24z"/><path d="m-832 792h-16z"/><path d="m-848 864v-72h16v80h-16z"/><path d="m-848 872h16z"/><path d="m-1008 792v8 64z"/><path d="m-1024 792h16v72 8h-16z"/><path d="m-1024 872h16z"/><path d="m-1024 928h-16-48z"/><path d="m608 408v-216 240z"/><path d="m616 192-8-8v8 216h8z"/><path d="m608 408v24 8l8-8v-24z"/><path d="m608 184 8 8z"/><path d="m568-72-64-64z"/><path d="m504-136h-64-96z"/><path d="m568 144v8l40 40v-8z"/><path d="m408 152h160v-8h-160l-8 8z"/><path d="m344 216 64-64h-8l-64 64z"/><path d="m344 432v-216h-8v216l8 8z"/><path d="m608 440v-8l-40 40h8z"/><path d="m560 480h8l8-8h-8-184v8z"/><path d="m384 480v-8l-40-40v8z"/><path d="m568-72v160z"/><path d="m568 88h-160z"/><path d="m408 88-64-64z"/><path d="m568 472h-184z"/><path d="m568 152 40 40z"/><path d="m344 216 64-64z"/><path d="m608 432-40 40z"/><path d="m608 440-32 32-8 8z"/><path d="m568 144h-8-152z"/><path d="m560 480h-176z"/><path d="m408 144-8 8z"/><path d="m344 440-8-8 3.2002 3.2003 36.7998 36.7997 4.8 4.8 3.2 3.2z"/><path d="m336 216v8 208z"/><path d="m-736 1632h-64-160 64z"/><path d="m-480 1312h-32z"/><path d="m-1024 496v160z"/><path d="m-1024 768v24 80 56z"/><path d="m-768 432v160z"/><path d="m-70.3333 480 19.9999 24 13.3334 16h157v-16l-17.6-24z"/><path d="m-24 552v32h9.8462z"/><path d="m-26.4615 544 2.4615 8 9.8462 32h134.1538v-40z"/><path d="m8.5333 352 23.4667 32-6-32z"/><path d="m-112 504h16 16v32z"/><path d="m-96 480v24h-16-128-24-8v-24z"/><path d="m-96 480h12.6897l3.3103 5.3334v12.6666z"/><path d="m-120 352v40h157.8667l-5.8667-8-23.4667-32z"/><path d="m-113.3333 416 26.6666 40h171.4667l-29.3333-40z"/><path d="m-432 344v-24-8h-72v120 104h72z"/><path d="m-504 536v48h24 48v-8-16-24z"/><path d="m-304 536v-32h32z"/><path d="m-648 312h-24v32 88h168v-120z"/><path d="m-504 584v-48-104h-168-32v112 40z"/><path d="m126.3158 648-6.3158-20v20z"/><path d="m120 648v-20-20h-144v20l2.973 20z"/><path d="m144 712v-8l-10.1053-32h-151.3542l5.946 40z"/><path d="m144 776v-40h-151.9459l5.9459 40z"/><path d="m8 864h128v-8h-136v8z"/><path d="m144 920v-64h-8v8 56z"/><path d="m160 928h8v-8h-16-8-8v8z"/><path d="m152 1100 16-16-8-4-88 88 4 8z"/><path d="m168 928h-8v152l8 4z"/><path d="m0 936v8h8v-80h-8z"/><path d="m-96 944h96v-8h-8-96v8z"/><path d="m-80 792v32h-32z"/><path d="m-96 1168v-224h-8v232h8z"/><path d="m-280 824h-24v-24z"/><path d="m72 1168h-168v8h172z"/><path d="m-480 584h-24-200v184h48 64 32 80z"/><path d="m-464 768h32v-184h-48v184z"/><path d="m-464 800h32v-32h-32z"/><path d="m-560 800h64 32v-32h-16-80z"/><path d="m-560 816v-16-32h-32v32 16z"/><path d="m-592 768h-64v32h64z"/><path d="m-480 976v-96h-16-64v160h80z"/><path d="m-480 1072h16v-32h-16-80v32z"/><path d="m-480 1072h-80v32 32h16 64z"/><path d="m-560 880v-16h-32v16z"/><path d="m-560 1104v-32-32-160h-32-64-112v224z"/><path d="m-560 1136v-32h-208v32z"/><path d="m-544 1136h-16-208v48h224z"/><path d="m-480 1184v-48h-64v48z"/><path d="m-176-224h104z"/><path d="m88-176v40 112 48z"/><path d="m-80 485.3334-3.3103-5.3334h-.0001l3.3104 5.3333z"/><path d="m8 944v-80z"/><path d="m136 928h24z"/><path d="m136 920v-56 56 8z"/><path d="m160 1080v-152z"/><path d="m160 1080-80 80-8 8z"/><path d="m-672 344v-32 8z"/><path d="m40-224h-40-72z"/><path d="m-176 96h216z"/><path d="m-224-184v192 16z"/><path d="m-224 24v24z"/><path d="m88 48v-24z"/><path d="m88-176-48-48z"/><path d="m-176-224-48 40z"/><path d="m40 96 48-48z"/><path d="m-224 48 48 48z"/><path d="m-648 312h144z"/><path d="m168 920h-16z"/><path d="m-304 584v-48 40z"/><path d="m120 504-17.5999-24h-.0001z"/><path d="m84.8 456h.0001l-29.3333-40h-.0001z"/><path d="m26 352 6 32z"/><path d="m-240 504h128z"/><path d="m-120 392v-40z"/><path d="m55.4667 416h.0001-168.8001z"/><path d="m-113.3333 416 26.6666 40z"/><path d="m102.4 480h.0001-172.7334z"/><path d="m-50.3334 504-19.9999-24 20 24z"/><path d="m-80 584v192z"/><path d="m-80 536v48z"/><path d="m133.8947 672h-151.3542z"/><path d="m120 628v-20z"/><path d="m120 544h-146.4615z"/><path d="m-24 552v32z"/><path d="m120 608h-144z"/><path d="m144 736h-151.9459z"/><path d="m-2 776-5.9459-40z"/><path d="m-112 504 32 32z"/><path d="m-80 784v8z"/><path d="m-80 792-32 32z"/><path d="m-432 560v16z"/><path d="m-8 936h-96z"/><path d="m0 936h-8z"/><path d="m152 920h-8z"/><path d="m0 864v-8 80z"/><path d="m136 856h8-56-32-56z"/><path d="m-104 944v-8 216 24z"/><path d="m152 1100-76 76z"/><path d="m-480 880h-16z"/><path d="m-464 1040v32z"/><path d="m-432 344v192 24-128z"/><path d="m-656 880h-112z"/><path d="m-656 880h64-40z"/><path d="m-672 432v-88z"/><path d="m-656 800h64z"/><path d="m-592 800v16z"/><path d="m-592 816h32z"/><path d="m-560 880v-16z"/><path d="m-560 864h-32z"/><path d="m-704 432v48 64z"/><path d="m-656 768h-48z"/><path d="m-480 1184v48z"/><path d="m-544 1184h-224v48h224z"/><path d="m-480 1232v-48h-64v48z"/><path d="m-480 1232v80z"/><path d="m-544 1232h-224v80h192 32z"/><path d="m-512 1312h32v-80h-64v80z"/><path d="m-832 656h-192z"/><path d="m-960 432-64 64z"/><path d="m-768 432h-168-24z"/><path d="m-768 592-64 64z"/><path d="m-1008 768h176-192z"/><path d="m-768 880h-64-176v48 176h240z"/><path d="m-1008 1104v32h208 32v-32z"/><path d="m-832 768h-176v112h176z"/><path d="m-1008 880v-112h-16v160h16z"/><path d="m-1008 1104v-176h-16v208h16z"/><path d="m-800 1136h-208-16v176h224z"/><path d="m-768 1232v-48-48h-32v176h32z"/><path d="m-1024 1136h-64v176h64z"/><path d="m-1024 928h-64v160 48h64z"/><path d="m-1088 928v160z"/><path d="m-1024 1312v32z"/><path d="m-512 1344v192 32-64z"/><path d="m-800 1312h-224v32 192h224z"/><path d="m-1024 1536v32l64 64h160v-96z"/><path d="m-576 1536v-224h-192-32v224z"/><path d="m-736 1632h160v-96h-224v96z"/><path d="m-512 1536v-192-32h-32-32v224z"/><path d="m-576 1632 64-64v-32h-64z"/><path d="m-672 320v-16z"/><path d="m-432 304v16z"/><path d="m-432 320h-240v-16h240z"/><path d="m-672 304h240z"/><path d="m-432 320h-240z"/><path d="m-24-224h64-112z"/><path d="m40 96h-120-48-48z"/><path d="m-224 16v-48-48-48-56 208z"/><path d="m88 24v24z"/><path d="m-224-184 48-40z"/><path d="m80-184 8 8-48-48z"/><path d="m80-184v8 32 8z"/><path d="m80-184v48h8v-40z"/><path d="m-24-224h-48v8h8 40z"/><path d="m-216-128h-8v48h8z"/><path d="m80-24v48h8v-48z"/><path d="m-176 96-48-48z"/><path d="m-80 88h-48v8h48z"/><path d="m-224-32v48h8v-48z"/><path d="m-216-88v8z"/><path d="m-216-88v-32-8 48z"/><path d="m80-176v-8z"/><path d="m80-136h8z"/><path d="m-32-216h8-40z"/><path d="m-24-216v-8z"/><path d="m-64-144v64z"/><path d="m-64-176v-40z"/><path d="m-32-216v40z"/><path d="m80-176h-112z"/><path d="m80-144v-32h-112v32z"/><path d="m-32-144v-32-40h-32v40 32 64h32z"/><path d="m-216-120h56z"/><path d="m-64-144v-32l-64 16z"/><path d="m-64-176-64 16z"/><path d="m-216-88h56v-32h-56z"/><path d="m-216-128h-8z"/><path d="m80 24h8z"/><path d="m80-16v-8z"/><path d="m80-16v32 8-48z"/><path d="m-64-80 16 64 16-64z"/><path d="m-32-80-16 64z"/><path d="m80 16h-56z"/><path d="m24-16v32h56v-32z"/><path d="m24 16v-32l-64 16z"/><path d="m24-16-64 16z"/><path d="m-216-32h-8z"/><path d="m-216 8v8z"/><path d="m-216 8v-32-8 48z"/><path d="m-88 88h-32-8 48z"/><path d="m-88 88h8z"/><path d="m-120-24h-96z"/><path d="m-128 8 8-32h-96v32z"/><path d="m-88 8-32 8v72h32z"/><path d="m-120 16 32-8-32-32-8 32z"/><path d="m-120 16v72z"/><path d="m-128 88v8z"/><path d="m176 1096-5.3333-2.6667 5.3333-5.3333z"/><path d="m-96-104-64-16v32z"/><path d="m-96-104-64-16z"/><path d="m-96-104-64 16z"/><path d="m-96-104-64 16v-32z"/><path d="m-48-16-16-64z"/><path d="m-48-16-16-64h32z"/><path d="m152 920v-8h16v8z"/><path d="m136 856v8h-56-72-16v-8z"/><path d="m136 920v-56-8h16v56 8z"/><path d="m152 920h16v8h-8-24v-8z"/><path d="m80 1160 80-80 16 8-5.3333 5.3333-78.6667 78.6667h-18l-2-4z"/><path d="m160 1080v-152h8 8v160z"/><path d="m-8 928v-64h16v80h-16z"/><path d="m-96 928h88v16h-88z"/><path d="m-96 944v16h-16v-16-16h16z"/><path d="m-128 960v-16h16v16z"/><path d="m-128 960h16 16v208 4h-32z"/><path d="m-96 1172v-4h168l2 4z"/><path d="m-8 856v8 64z"/><path d="m-112 856v72z"/><path d="m-96 960v-16 224z"/><path d="m80 864h56-128z"/><path d="m-96 1168h168z"/><path d="m-8 944h16-8-96z"/><path d="m92 1172-12 12-6-12z"/><path d="m-96 1172v12h-32v-12z"/><path d="m80 1184h-176v-12h170z"/><path d="m568-72-64-64z"/><path d="m504-136h64v64z"/><path d="m504-136h-160z"/><path d="m568 152h-160z"/><path d="m344-136v160z"/><path d="m408 88h-64v-64z"/><path d="m344 216v216z"/><path d="m344 472v-40l40 40z"/><path d="m608 432v40h-40z"/><path d="m344 216v-64h64z"/><path d="m568 152h40v40z"/><path d="m344 432 40 40z"/><path d="m-216-120v32 8z"/><path d="m-216-120v-8z"/><path d="m80-136v-8z"/><path d="m-32-216h8z"/><path d="m-32-216h-32z"/><path d="m-32-144v64z"/><path d="m80-144h-112z"/><path d="m80-176v32h-112v-32z"/><path d="m-64-144v-32-40h32v40 32 64h-32z"/><path d="m-64-144-64-16z"/><path d="m-64-176v32l-64-16z"/><path d="m-216-120h56v32h-56z"/><path d="m-160-88h-56z"/><path d="m80 24v-8z"/><path d="m24-16h56z"/><path d="m24 16v-32h56v32z"/><path d="m24 16-64-16z"/><path d="m24-16v32l-64-16z"/><path d="m-216-32v8z"/><path d="m-128 88h8z"/><path d="m-88 8v80z"/><path d="m-88 8-32-32z"/><path d="m-120 16 32-8v80h-32z"/><path d="m-120-24 32 32-32 8-8-8z"/><path d="m-120-24-8 32h-88v-32z"/><path d="m-128 8h-88z"/><path d="m-120 16-8-8z"/><path d="m-24-224h64z"/><path d="m-128 96h-48z"/><path d="m-224 24v-8z"/><path d="m-224-32v-48z"/><path d="m-224-128v-56z"/><path d="m88-136v112z"/><path d="m88-24v-112-40 200z"/><path d="m-224-80h8z"/><path d="m40-224 40 40z"/><path d="m80-136v-8-32-8z"/><path d="m80-136v-48l8 8v40z"/><path d="m-72-216h8z"/><path d="m-72-224v8z"/><path d="m-24-216h-8-32-8v-8h48z"/><path d="m-224-128h8v8 40h-8z"/><path d="m-80 96v-8z"/><path d="m80 24v-8-32-8z"/><path d="m88-24h-8z"/><path d="m80 24v-48h8v48z"/><path d="m-216-32v8 32 8z"/><path d="m-128 88h8 32 8z"/><path d="m-80 96h-48v-8h48z"/><path d="m-224 16h8z"/><path d="m-224 16v-48h8v48z"/><path d="m-1024 496v160z"/><path d="m-832 656 64-64v64z"/><path d="m-112 856h104v72h-104z"/><path d="m-960 432-64 64v-64z"/><path d="m-80 96h120-216z"/><path d="m88 24v-200 224z"/><path d="m40-224h-64-48-104z"/><path d="m40 96h-120z"/><path d="m-80 96h-96 48z"/><path d="m-224 48v-24z"/><path d="m-224-184v56 48 48 48 8z"/><path d="m88-176-8-8-40-40z"/><path d="m88 48-48 48z"/><path d="m-8 928h-88-16z"/><path d="m-960 432-64 64z"/><path d="m-768 432h-192z"/><path d="m-832 656 64-64z"/><path d="m40 96h-216z"/><path d="m88-176v224z"/><path d="m40-224h-216z"/><path d="m-224-184v208 24z"/><path d="m88-176-48-48z"/><path d="m-176-224-48 40z"/><path d="m40 96 48-48z"/><path d="m-224 48 48 48z"/></g><g id="c"><path d="m40-224h48v48z"/><path d="m-224-184v-40h48z"/><path d="m88 48v48h-48z"/><path d="m-176 96h-48v-48z"/><path d="m40-224h-216z"/><path d="m-224-184v232z"/><path d="m88-176-48-48z"/><path d="m-176-224-48 40z"/><path d="m40 96 48-48z"/><path d="m-224 48 48 48z"/></g></defs><g stroke="#000"><use fill="none" stroke-miterlimit="0" stroke-width="10" xlink:href="#a"/><use fill="#ccc" xlink:href="#a"/><use fill="none" stroke-miterlimit="0" stroke-width="10" xlink:href="#b"/><use fill="#e5e5e5" xlink:href="#b"/><use fill="none" stroke-miterlimit="0" stroke-width="10" xlink:href="#c"/><use fill="#fff" xlink:href="#c"/></g></svg>