<svg viewBox="408 -544 1608 1664" xmlns="http://www.w3.org/2000/svg" xmlns:xlink="http://www.w3.org/1999/xlink"><defs><g id="a"><path d="m416 576v96z"/><path d="m416 480v64z"/><path d="m416 352v96z"/><path d="m416 160v64z"/><path d="m416 64v64z"/><path d="m416-32v64z"/><path d="m416-160v96z"/><path d="m1280 352v96z"/><path d="m1696-160h-96-128z"/><path d="m1792 192h-96z"/><path d="m1792 32v80z"/><path d="m1792-80v32 48z"/><path d="m1792-112v-48z"/><path d="m1792-112h-34.6667-13.3333z"/><path d="m1696-160h96v48h-48-48z"/><path d="m1744-80h-48v-32h48z"/><path d="m1744-80v-32h13.3333v32z"/><path d="m1792 0h-34.6667-13.3333z"/><path d="m1696-48v-32h48 48v80h-48-48z"/><path d="m1744 32h-48v-32h48z"/><path d="m1744 32v-32h13.3333v32z"/><path d="m1792 112h-34.6667-13.3333z"/><path d="m1696 80v-48h48 48v80h-48-48z"/><path d="m1744 144h-48v-32h48z"/><path d="m1744 144v-32h13.3333v32z"/><path d="m1744 144h48v48h-96v-48z"/><path d="m1600-48h96-128z"/><path d="m1600-80v-32-48h96v48 32 32h-96z"/><path d="m1520-112h-48v-48h128v48z"/><path d="m1600-112v32h-80v-32z"/><path d="m1568-48h-96v-32h48 80v32z"/><path d="m1472-80h34.6666 13.3334z"/><path d="m1520-112v32h-13.3334v-32z"/><path d="m1600 160v-80h96v32 32 48h-96z"/><path d="m1472-48h96v128 32h-48-48z"/><path d="m1568 144v-32-32h32v80h-32z"/><path d="m1568 144h-48v-32h48z"/><path d="m1472 160v-16h48 48v16z"/><path d="m1568 160h32v32h-128v-32z"/><path d="m1568-48v128z"/><path d="m1472 144h34.6666 13.3334z"/><path d="m1520 112v32h-13.3334v-32z"/><path d="m864 352v96z"/><path d="m896 448v224z"/><path d="m1232 672h48z"/><path d="m1152 672h48-48-176z"/><path d="m896 672h48z"/><path d="m1280 352h-48-16 16z"/><path d="m928 352h-32z"/><path d="m1232 352h48v96 128h-48z"/><path d="m1280 576v96h-48v-48-48z"/><path d="m1216 400v-48h16v224h-16z"/><path d="m1232 576v48h-16v-48z"/><path d="m1152 448v-96h32v48 176h-32z"/><path d="m1184 576v64h-32v-64z"/><path d="m1200 400h16v176 48h-16z"/><path d="m1184 576v-176h16v224 16h-16z"/><path d="m1152 672v-32h32 16v32z"/><path d="m1184 352v34.6667 13.3333z"/><path d="m1216 624h16v13.3333h-16-16v-13.3333z"/><path d="m1200 640v-16 13.3333 2.6667 32z"/><path d="m1152 352v96h-128-64v-48-48z"/><path d="m928 352v34.6667 13.3333z"/><path d="m960 400v48h-16-16v-48z"/><path d="m960 400h-32v-13.3333h32z"/><path d="m896 352h32v48 48h-32z"/><path d="m960 448h64v128h-48-32v-128z"/><path d="m976 672v-34.6667-13.3333z"/><path d="m1024 576h128v64 32h-176v-48-48z"/><path d="m944 624v-48h32v48z"/><path d="m944 624h32v13.3333h-32z"/><path d="m896 448h32 16v128 48 48h-48z"/><path d="m736 224h-96z"/><path d="m608-160h-64z"/><path d="m736-160h-96z"/><path d="m512-160h-96z"/><path d="m736 224v-64z"/><path d="m736-160v64z"/><path d="m416 64h34.6667 13.3333z"/><path d="m640-64v-48-48h96v64 160h-96z"/><path d="m544-64h64 32-32-64-32z"/><path d="m608-160v34.6667 13.3333z"/><path d="m640-112v48h-32v-48z"/><path d="m640-112h-32v-13.3333h32z"/><path d="m544-112v-48h64v48 48h-64z"/><path d="m512-160v34.6667 13.3333z"/><path d="m544-112v48h-32v-48z"/><path d="m544-112h-32v-13.3333h32z"/><path d="m464-64h-48v-96h96v48 48z"/><path d="m512 32v-64-32 32 64 32z"/><path d="m416-32h34.6667 13.3333z"/><path d="m464-64h48v32h-48z"/><path d="m464-64v32h-13.3333v-32z"/><path d="m464 32h-48v-64h48 48v64z"/><path d="m464 32h48v32h-48z"/><path d="m464 32v32h-13.3333v-32z"/><path d="m736 128h-34.6667-13.3333z"/><path d="m640 128h-176-48v-64h48 48 128z"/><path d="m736 64v64h-48-48v-64z"/><path d="m416 160h34.6667 13.3333z"/><path d="m640 128h48v32h-48-176v-32z"/><path d="m464 128v32h-13.3333v-32z"/><path d="m688 160v-32h13.3333v32z"/><path d="m640 224h-224v-64h48 176z"/><path d="m688 160h48v64h-96v-64z"/><path d="m416 672h96z"/><path d="m544 672h64z"/><path d="m640 672h64z"/><path d="m768 672h32-32-32z"/><path d="m832 672h32z"/><path d="m640 352h-224z"/><path d="m864 352h-32z"/><path d="m640 672v-34.6667-13.3333z"/><path d="m736 672v-34.6667-13.3333z"/><path d="m832 448v-48-48h32v96z"/><path d="m800 448v-48h32v48z"/><path d="m768 352h32v48 48h-32z"/><path d="m768 448h32 32 32v128h-32-32-32z"/><path d="m864 576v96h-32v-48-48z"/><path d="m832 576v48h-32v-48z"/><path d="m768 576h32v48 48h-32z"/><path d="m736 400v-48h32v96 128h-32z"/><path d="m768 576v96h-32v-48-48z"/><path d="m800 352v34.6667 13.3333z"/><path d="m832 672v-34.6667-13.3333z"/><path d="m832 400h-32v-13.3333h32z"/><path d="m800 624h32v13.3333h-32z"/><path d="m704 352v34.6667 13.3333z"/><path d="m704 576v-176h32v176 48h-32z"/><path d="m704 624h32v13.3333h-32z"/><path d="m736 400h-32v-13.3333h32z"/><path d="m640 448v-96h64v48 176h-64z"/><path d="m704 576v48 48h-64v-48-48z"/><path d="m640 352v96h-128-48-48v-96z"/><path d="m416 576h34.6667 13.3333z"/><path d="m512 544v-64-32 32 64 32z"/><path d="m416 480h34.6667 13.3333z"/><path d="m512 448v32h-48v-32z"/><path d="m464 448v32h-13.3333v-32z"/><path d="m464 480h48v64h-48-48v-64z"/><path d="m512 544v32h-48v-32z"/><path d="m464 544v32h-13.3333v-32z"/><path d="m544 672v-34.6667-13.3333z"/><path d="m640 576v48h-32v-48z"/><path d="m608 624h32v13.3333h-32z"/><path d="m608 576v48 48h-64v-48-48z"/><path d="m544 576v48h-32v-48z"/><path d="m512 624h32v13.3333h-32z"/><path d="m464 576h48v48 48h-96v-96z"/><path d="m1280 448v224-96z"/><path d="m1280 352v96z"/><path d="m1696-160h-224 96z"/><path d="m1792-160h-96z"/><path d="m1792 192h-96z"/><path d="m1696 192h-224 128z"/><path d="m1792 192v-48z"/><path d="m1792 32v80z"/><path d="m1792-112v-48z"/><path d="m1792-48v-32 48 32z"/><path d="m1472 144v16 32z"/><path d="m1472-160v48z"/><path d="m1472-48v-32 32 160z"/><path d="m1696-160h96v48h-34.6667-250.6667-34.6666v-48z"/><path d="m1506.6666-112h250.6667 34.6667v-48h-96-224v48z"/><path d="m1506.6666-80h250.6667 34.6667v32h-96-128-96v-32z"/><path d="m1568-48h128 96v-32h-34.6667-250.6667-34.6666v32z"/><path d="m1757.3333-112v32h-250.6667v-32z"/><path d="m1757.3333-80v-32h-250.6667v32z"/><path d="m1792-48v48h-34.6667-61.3333v-48z"/><path d="m1696 0h61.3333 34.6667v-48h-96z"/><path d="m1792 32h-34.6667-61.3333v48 32h61.3333 34.6667z"/><path d="m1696 80v-48h61.3333 34.6667v80h-34.6667-61.3333z"/><path d="m1696 0h61.3333v32h-61.3333z"/><path d="m1696 32h61.3333v-32h-61.3333z"/><path d="m1757.3333 144v-32h-61.3333-128-61.3334v32z"/><path d="m1568 112h128 61.3333v32h-250.6667v-32z"/><path d="m1506.6666 144h250.6667 34.6667v48h-96-224v-48z"/><path d="m1696 192h96v-48h-34.6667-250.6667-34.6666v48z"/><path d="m1696 80v32h-128v-32z"/><path d="m1696 112v-32h-128v32z"/><path d="m1472-48h96v128 32h-61.3334-34.6666z"/><path d="m1568 80v-128h-96v160h34.6666 61.3334z"/><path d="m1792-112h-8-26.6667z"/><path d="m1757.3333-112h26.6667v32h-26.6667z"/><path d="m1792 0h-8-26.6667z"/><path d="m1757.3333 0h26.6667v32h-26.6667z"/><path d="m1792 112h-8-26.6667z"/><path d="m1757.3333 112h26.6667v32h-26.6667z"/><path d="m1696-48h-128z"/><path d="m1472-80h8 26.6666z"/><path d="m1506.6666-80h-26.6666v-32h26.6666z"/><path d="m1568-48v96 32z"/><path d="m1472 144h8 26.6666z"/><path d="m1506.6666 144h-26.6666v-32h26.6666z"/><path d="m1696 32v-32-48 48 32 48z"/><path d="m1792 32h-48 13.3333z"/><path d="m1792-80h-48 13.3333z"/><path d="m1792 144h-48 13.3333z"/><path d="m1472-112h48-13.3334z"/><path d="m1696 80h-96-32z"/><path d="m1472 112h48-13.3334z"/><path d="m864 448v128 96-96z"/><path d="m864 352v96z"/><path d="m896 352v96z"/><path d="m896 448v224-96z"/><path d="m1232 672h48z"/><path d="m1152 672h48-48-128-48z"/><path d="m896 672h48z"/><path d="m1280 352h-48-16z"/><path d="m1152 352h32-32-192z"/><path d="m928 352h-32z"/><path d="m1152 448v128z"/><path d="m1232 637.3333v-13.3333 48z"/><path d="m1232 637.3333v34.6667-8z"/><path d="m1280 448v-96h-48v285.3333 34.6667h48z"/><path d="m1232 637.3333v-285.3333h48v96 224h-48z"/><path d="m1216 386.6667v-34.6667h16v285.3333h-16z"/><path d="m1232 352h-16v34.6667 250.6666h16z"/><path d="m1184 386.6667v-34.6667h-32v96 128 64h32z"/><path d="m1152 576v-128-96h32v34.6667 253.3333h-32z"/><path d="m1200 637.3333v-250.6666h-16v253.3333h16z"/><path d="m1184 386.6667h16v250.6666 2.6667h-16z"/><path d="m1200 386.6667h16v250.6666h-16z"/><path d="m1216 386.6667h-16v250.6666h16z"/><path d="m1200 672v-32h-16-32v32z"/><path d="m1184 640h16v32h-48v-32z"/><path d="m1184 352v8 26.6667z"/><path d="m1200 637.3333h16 16v26.6667h-32z"/><path d="m1200 640v-2.6667 26.6667 8z"/><path d="m1216 352v48-13.3333z"/><path d="m1200 386.6667h16v13.3333h-16-16v-13.3333z"/><path d="m1024 448h128z"/><path d="m960 352v48-13.3333z"/><path d="m1024 448h128v-96h-192v34.6667 61.3333z"/><path d="m1152 352v96h-128-64v-61.3333-34.6667z"/><path d="m928 352v8 26.6667z"/><path d="m928 386.6667v61.3333h16 16v-61.3333z"/><path d="m944 448h-16v-61.3333h32v61.3333z"/><path d="m928 386.6667v-26.6667h32v26.6667z"/><path d="m896 352h32v34.6667 61.3333h-32z"/><path d="m928 386.6667v-34.6667h-32v96h32z"/><path d="m960 448h-16v128h32 48v-128z"/><path d="m976 576h-32v-128h16 64v128z"/><path d="m1024 576h128v64 32h-176v-34.6667-61.3333z"/><path d="m1152 672v-32-64h-128-48v61.3333 34.6667z"/><path d="m944 576v61.3333h32v-61.3333z"/><path d="m944 637.3333v-61.3333h32v61.3333z"/><path d="m944 637.3333v-61.3333-128h-16-32v224h48z"/><path d="m896 448h32 16v128 61.3333 34.6667h-48z"/><path d="m976 672v-8-26.6667z"/><path d="m976 637.3333v26.6667h-32v-26.6667z"/><path d="m944 672v-48 13.3333z"/><path d="m1152 576h-128z"/><path d="m1024 576v-128z"/><path d="m736 224h-96z"/><path d="m640 224h-128-96z"/><path d="m736 224v-64z"/><path d="m736-160v64z"/><path d="m736-96v224-64z"/><path d="m736-96v-64h-96v34.6667 61.3333 128 64h61.3333 34.6667z"/><path d="m640 64v-128-61.3333-34.6667h96v64 224h-34.6667-61.3333z"/><path d="m640-125.3333v61.3333h-32v-61.3333z"/><path d="m608-125.3333v61.3333h32v-61.3333z"/><path d="m544-125.3333v61.3333h64v-61.3333-34.6667h-64z"/><path d="m544-125.3333v-34.6667h64v34.6667 61.3333h-64z"/><path d="m512-125.3333v61.3333h32v-61.3333z"/><path d="m544-125.3333v61.3333h-32v-61.3333z"/><path d="m450.6667-64h61.3333v-61.3333-34.6667h-96v96z"/><path d="m450.6667-64h-34.6667v-96h96v34.6667 61.3333z"/><path d="m450.6667-32h61.3333v-32h-61.3333z"/><path d="m450.6667-64h61.3333v32h-61.3333z"/><path d="m450.6667 32h-34.6667v-64h34.6667 61.3333v64z"/><path d="m450.6667 32h61.3333v-64h-61.3333-34.6667v64z"/><path d="m450.6667 64h61.3333v-32h-61.3333z"/><path d="m450.6667 32h61.3333v32h-61.3333z"/><path d="m640 128h61.3333v32h-61.3333z"/><path d="m640 160h61.3333v-32h-61.3333z"/><path d="m701.3333 160h-61.3333v64h96v-64z"/><path d="m640 224v-64h61.3333 34.6667v64z"/><path d="m512 160v-32-64h128v64 32 64h-128z"/><path d="m640 160v-32-64h-128v64 32 64h128z"/><path d="m450.6667 128h61.3333v-64h-61.3333-34.6667v64z"/><path d="m450.6667 128h-34.6667v-64h34.6667 61.3333v64z"/><path d="m450.6667 128h61.3333v32h-61.3333z"/><path d="m450.6667 160h61.3333v-32h-61.3333z"/><path d="m512 224v-64h-61.3333-34.6667v64z"/><path d="m416 224v-64h34.6667 61.3333v64z"/><path d="m512-160v8 26.6667z"/><path d="m512 32v-64-32 64 64z"/><path d="m544-64h64 32-32-64-32z"/><path d="m608-160v8 26.6667z"/><path d="m608-125.3333v-26.6667h32v26.6667z"/><path d="m512-125.3333v-26.6667h32v26.6667z"/><path d="m736 128h-8-26.6667z"/><path d="m701.3333 128h26.6667v32h-26.6667z"/><path d="m416-32h8 26.6667z"/><path d="m450.6667-32h-26.6667v-32h26.6667z"/><path d="m416 64h8 26.6667z"/><path d="m450.6667 64h-26.6667v-32h26.6667z"/><path d="m416 160h8 26.6667z"/><path d="m450.6667 160h-26.6667v-32h26.6667z"/><path d="m640 64h-128z"/><path d="m640-64v128z"/><path d="m640-160v48-13.3333z"/><path d="m416-64h48-13.3333z"/><path d="m544-160v48-13.3333z"/><path d="m416 32h48-13.3333z"/><path d="m416 128h48-13.3333z"/><path d="m736 160h-48 13.3333z"/><path d="m416 672h96z"/><path d="m544 672h64z"/><path d="m640 672h64z"/><path d="m768 672h32-64z"/><path d="m832 672h32z"/><path d="m640 352h-224 96z"/><path d="m704 352h-64z"/><path d="m864 352h-32z"/><path d="m768 352h32-32-32z"/><path d="m800 448v-61.3333-34.6667h-32v96z"/><path d="m768 448v-96h32v34.6667 61.3333z"/><path d="m832 448v-61.3333h-32v61.3333z"/><path d="m800 448v-61.3333h32v61.3333z"/><path d="m832 448v-61.3333-34.6667h32v96z"/><path d="m864 448v-96h-32v34.6667 61.3333z"/><path d="m864 448h-32-32-32v128h32 32 32z"/><path d="m768 448h32 32 32v128h-32-32-32z"/><path d="m832 576v61.3333 34.6667h32v-96z"/><path d="m864 576v96h-32v-34.6667-61.3333z"/><path d="m800 576v61.3333 34.6667h-32v-96z"/><path d="m768 576v96h32v-34.6667-61.3333z"/><path d="m832 576v61.3333h-32v-61.3333z"/><path d="m800 576v61.3333h32v-61.3333z"/><path d="m768 576v-128-96h-32v34.6667 250.6666 34.6667h32z"/><path d="m736 637.3333v-250.6666-34.6667h32v96 128 96h-32z"/><path d="m704 386.6667h32v250.6666h-32z"/><path d="m736 386.6667h-32v250.6666h32z"/><path d="m704 637.3333v-250.6666-34.6667h-64v96 128 61.3333 34.6667h64z"/><path d="m640 637.3333v-61.3333-128-96h64v34.6667 250.6666 34.6667h-64z"/><path d="m450.6667 448h61.3333 128v-96h-224v96z"/><path d="m640 352v96h-128-61.3333-34.6667v-96z"/><path d="m450.6667 480h61.3333v-32h-61.3333z"/><path d="m450.6667 448h61.3333v32h-61.3333z"/><path d="m608 576v61.3333h32v-61.3333z"/><path d="m640 576v61.3333h-32v-61.3333z"/><path d="m608 576v61.3333 34.6667h-64v-34.6667-61.3333z"/><path d="m544 576v61.3333 34.6667h64v-34.6667-61.3333z"/><path d="m450.6667 544h61.3333v-64h-61.3333-34.6667v64z"/><path d="m450.6667 544h-34.6667v-64h34.6667 61.3333v64z"/><path d="m450.6667 576h61.3333v-32h-61.3333z"/><path d="m450.6667 544h61.3333v32h-61.3333z"/><path d="m544 576v61.3333h-32v-61.3333z"/><path d="m512 576v61.3333h32v-61.3333z"/><path d="m416 672v-96h34.6667 61.3333v61.3333 34.6667z"/><path d="m512 672v-34.6667-61.3333h-61.3333-34.6667v96z"/><path d="m512 544v-64-32 128z"/><path d="m704 352v8 26.6667z"/><path d="m800 352v8 26.6667z"/><path d="m800 386.6667v-26.6667h32v26.6667z"/><path d="m704 386.6667v-26.6667h32v26.6667z"/><path d="m832 672v-8-26.6667z"/><path d="m832 637.3333v26.6667h-32v-26.6667z"/><path d="m736 672v-8-26.6667z"/><path d="m736 637.3333v26.6667h-32v-26.6667z"/><path d="m640 672v-8-26.6667z"/><path d="m640 637.3333v26.6667h-32v-26.6667z"/><path d="m544 672v-8-26.6667z"/><path d="m544 637.3333v26.6667h-32v-26.6667z"/><path d="m416 480h8 26.6667z"/><path d="m450.6667 480h-26.6667v-32h26.6667z"/><path d="m416 576h8 26.6667z"/><path d="m450.6667 576h-26.6667v-32h26.6667z"/><path d="m640 448v128z"/><path d="m736 352v48-13.3333z"/><path d="m800 672v-48 13.3333z"/><path d="m832 352v48-13.3333z"/><path d="m704 672v-48 13.3333z"/><path d="m416 448h48-13.3333z"/><path d="m512 448h128z"/><path d="m544 576h64 32-32-64-32z"/><path d="m416 544h48-13.3333z"/><path d="m608 672v-48 13.3333z"/><path d="m512 672v-48 13.3333z"/><path d="m416 672v-96z"/><path d="m416 544v-64z"/><path d="m416 448v-96z"/><path d="m416 448v32 64 32 96z"/><path d="m416 224v-64z"/><path d="m416 128v-64z"/><path d="m416 32v-32-32z"/><path d="m416-64v-96z"/><path d="m416 0v32 32 64 32 64z"/><path d="m1280 352v32 64z"/><path d="m1280 448v224z"/><path d="m1792-160h-96z"/><path d="m1696-160h96z"/><path d="m1568-160h-96z"/><path d="m1696 192h-128-96z"/><path d="m1696 192h96z"/><path d="m1472 192h96z"/><path d="m1792 192v-48z"/><path d="m1792-80v-32-48 128z"/><path d="m1472 144v48z"/><path d="m1472 80v-32-96-32 32 160z"/><path d="m1472-160v48z"/><path d="m1696-32v112 112-128z"/><path d="m1696-32v-16 48 32 48z"/><path d="m1784 32h8-34.6667z"/><path d="m1784-80h8-34.6667z"/><path d="m1784-80v-32h8v32z"/><path d="m1784 32v-32h8v32z"/><path d="m1784 144h8-34.6667z"/><path d="m1784 144v-32h8v32z"/><path d="m1568-48v-112z"/><path d="m1696-48v-112h-128v112z"/><path d="m1480-112h-8 34.6666z"/><path d="m1472-80v-32h8v32z"/><path d="m1696 80h-128z"/><path d="m1472 80h96z"/><path d="m1552-16h-64v64h64z"/><path d="m1568-48h-16v32 64h16z"/><path d="m1488-48v32h64v-32z"/><path d="m1488 48v-64-32h-16v96z"/><path d="m1552 48h-64-16v32h96v-32z"/><path d="m1568 80v112z"/><path d="m1696 192v-112h-128v112z"/><path d="m1480 112h-8 34.6666z"/><path d="m1472 144v-32h8v32z"/><path d="m864 448v128 96-96z"/><path d="m896 352v96z"/><path d="m1200 672h32 48-96-32z"/><path d="m944 672h32 48-128z"/><path d="m1024 352h128 32-32-192z"/><path d="m1152 448v128 96-96z"/><path d="m1152 448v128z"/><path d="m1232 672h-32v-8h32z"/><path d="m1216 360h-32v-8h32z"/><path d="m1216 360v-8 34.6667z"/><path d="m1184 360h32v26.6667h-16-16z"/><path d="m1024 448h128z"/><path d="m896 448h128-32z"/><path d="m960 360v-8 34.6667z"/><path d="m1152 352h-128v96h128z"/><path d="m960 360h-32v-8h32z"/><path d="m1024 576v-128z"/><path d="m1152 576h-128z"/><path d="m1152 576h-128v96h128z"/><path d="m1024 576v-128h-128v128z"/><path d="m944 664v8-34.6667z"/><path d="m976 672h-32v-8h32z"/><path d="m640 224h-128-96 96z"/><path d="m544-160h64z"/><path d="m640-160h96z"/><path d="m416-160h64 32z"/><path d="m736-160h-96 32z"/><path d="m416-160h96z"/><path d="m736-96v32 128 64z"/><path d="m512-64v-88-8 160z"/><path d="m640 64h-128z"/><path d="m736 64h-96z"/><path d="m640-152v-8 34.6667z"/><path d="m608-152v88h32v-88z"/><path d="m544-152v-8 34.6667z"/><path d="m608-152v-8h-64v8 88h64z"/><path d="m512-152v88h32v-88z"/><path d="m640-64v128z"/><path d="m640-64v128h96v-128z"/><path d="m640 64v160z"/><path d="m728 160h8-34.6667z"/><path d="m728 160v-32h8v32z"/><path d="m512 64v160h128v-160z"/><path d="m424 32h-8 34.6667z"/><path d="m424-64h-8 34.6667z"/><path d="m416-32v-32h8v32z"/><path d="m424 128h-8 34.6667z"/><path d="m416 64v-32h8v32z"/><path d="m416 160v-32h8v32z"/><path d="m704 672h32 64 32 32-96-128z"/><path d="m704 352h-64z"/><path d="m800 352h-32-32z"/><path d="m512 664v8-34.6667z"/><path d="m512 448v-96 96 32 96z"/><path d="m512 448h128z"/><path d="m864 448h-96-128z"/><path d="m832 360v-8 34.6667z"/><path d="m832 360h-32v-8h32z"/><path d="m736 360v-8 34.6667z"/><path d="m736 360h-32v-8h32z"/><path d="m640 352v96z"/><path d="m512 352v96h128v-96z"/><path d="m640 576h-32-64-32z"/><path d="m736 576h-96-128z"/><path d="m640 448v128z"/><path d="m736 576h128v-128h-224v128z"/><path d="m704 664v8-34.6667z"/><path d="m800 664v8-34.6667z"/><path d="m832 672h-32v-8h32z"/><path d="m736 672h-32v-8h32z"/><path d="m608 664v8-34.6667z"/><path d="m640 672h-32v-8h32z"/><path d="m544 672h-32v-8h32z"/><path d="m424 448h-8 34.6667z"/><path d="m416 480v-32h8v32z"/><path d="m424 544h-8 34.6667z"/><path d="m416 576v-32h8v32z"/><path d="m1152 1120h-32-32z"/><path d="m896-544h-128-64-32z"/><path d="m1120-544h-128-96z"/><path d="m416 896v192 32-192z"/><path d="m416 352v96z"/><path d="m416 448v224-128-64z"/><path d="m416 0v224-96-64-32z"/><path d="m416-160v96 32 32z"/><path d="m2016 64v-112 128z"/><path d="m432 1120v-16h64v16z"/><path d="m496 1088v16h-64v-16-48h64z"/><path d="m432 864h64v176h-64z"/><path d="m416 896v-32h16v176 48h-16z"/><path d="m432 1088v16 16h-16v-32z"/><path d="m496 1088v-48-176h144 80v224z"/><path d="m720 1120h-80-144v-16-16h224z"/><path d="m752 864v64 80 80h-32v-224z"/><path d="m752 1088v32h-32v-32z"/><path d="m640 864h-144-64-16v-160h224z"/><path d="m752 704v160h-32-80v-160z"/><path d="m864 1120h-112v-32-80h112 32v112z"/><path d="m864 1008v-16h32v16z"/><path d="m992 992h32v32 96h-128v-112-16z"/><path d="m896 896h32 32l-96 64v-32-32z"/><path d="m928 864v-64-32h32v128h-32z"/><path d="m896 864v-64h32v64z"/><path d="m752 864v-160h112v192 32h-112z"/><path d="m864 928v32 32 16h-112v-80z"/><path d="m864 704 32 21.3333v42.6667 32 64 32h-32z"/><path d="m928 768h-32v-42.6667l64 42.6667z"/><path d="m736 576h-224v-96h128 96z"/><path d="m768 480v96h-32v-96z"/><path d="m640 448h128v32h-32-96z"/><path d="m1024 736v-64-96h128v96 32 96h-128z"/><path d="m1152 800v32 32 32 128h-128v-32-32-160z"/><path d="m1152 1024v96h-64-64v-96z"/><path d="m992 576h-96-32-96v-96-32h96 32 96z"/><path d="m1024 448h128v128h-128-32v-128z"/><path d="m1024 352v-64h128v64 96h-128z"/><path d="m992 288h32v64h-128v-64z"/><path d="m1376 832h-192-32v-32-96h32 192z"/><path d="m1600 832h-192-32v-128h32 32 32 128z"/><path d="m1696 704h96v128h-160-32v-128z"/><path d="m1280 608v-160-64l96 64v128l-48 32z"/><path d="m1280 640v-32h48z"/><path d="m1184 288v32 32h-32v-64z"/><path d="m1184 352v-32h64v32z"/><path d="m1472 672v-224h224v224z"/><path d="m1696 704h-96-128v-32h224z"/><path d="m1760 448h32v64 64 32 64h-96v-224z"/><path d="m1792 672v32h-96v-32z"/><path d="m1600 352h64v32h-64z"/><path d="m1600 288h96v64h-32-64-32v-64z"/><path d="m1600 384h64 32v32h-128v-32z"/><path d="m1792 448v-32-96-32h32 96v64 160h-128z"/><path d="m1920 512v64h-96-32v-64z"/><path d="m1024 192v32 64h-32v-96z"/><path d="m1056 224h128v32 32h-32-128v-64z"/><path d="m896-64v-96h96v224h-96z"/><path d="m992 64v128 96h-96v-64-160z"/><path d="m864 64h-128-96v-64-64h96 128z"/><path d="m896-64v128h-32v-128z"/><path d="m992-160h128 32 64v64 32 128h-224z"/><path d="m1216 64v96 32h-160-32-32v-128z"/><path d="m768-224h-64v-64h64z"/><path d="m704-192v-32h64v32z"/><path d="m704-320v32 64 32h-32v-96-32z"/><path d="m512-416v-32h128v128 32 64h-128z"/><path d="m640-224v32 32 96 64h-128v-160-32-32z"/><path d="m640 0v64 160h-128v-224z"/><path d="m640 224v128 96h-128v-96-128z"/><path d="m640 448v32h-128v-32z"/><path d="m672-448h32v128h-32-32v-128z"/><path d="m704-448v-96h64v224h-64z"/><path d="m768-320v32h-64v-32z"/><path d="m704-544v96h-32v-32-64z"/><path d="m1216-192v32h-64v-32z"/><path d="m768-320v-224h128 96v224z"/><path d="m992-192h-96-128v-32-64-32h224z"/><path d="m1120-544h96v224h-224v-224z"/><path d="m1216-320v128h-64-32-128v-128z"/><path d="m1184 288v-32h64v64h-64z"/><path d="m1248 320v-64-32h32v128h-32z"/><path d="m1248 224v32h-64v-32z"/><path d="m1472 272 32 48h-32z"/><path d="m1504 320-32-48v-80h96v96 64 32 32z"/><path d="m1568 192v-112-32h32v16 224h-32z"/><path d="m1488 48h64 16v32h-96v-32z"/><path d="m1216 64v-128h64l96 64v128l-48 32h-112z"/><path d="m1328 160-48 32h-64v-32z"/><path d="m1552 48h-64v-64h64z"/><path d="m1552-16h-64v-32h64z"/><path d="m1472-48h16v32 64h-16z"/><path d="m1568-48h32v96h-32-16v-64-32z"/><path d="m1568-48v-112h32v112z"/><path d="m1696 384v-32-64-96h96v80l-32 48-64 96z"/><path d="m1792 272v16 32h-32z"/><path d="m1920 192h-72l72-48z"/><path d="m1824 192h24 72v96h-96z"/><path d="m1600 48v-96-112h96v128 96h-96z"/><path d="m1696 64v128 96h-96v-224z"/><path d="m1792-32v-128h32v224h-32z"/><path d="m1824 64v128 96h-32v-16-80-128z"/><path d="m1824-160h24l72 48 96 64v112h-192z"/><path d="m2016 64v16l-96 64-72 48h-24v-128z"/><path d="m1848-160h72v48z"/><path d="m1536-288h32v64 64h-96v-128z"/><path d="m1216-544h64v64 32 128h-64z"/><path d="m1280-320v32 192h-64v-64-32-128z"/><path d="m1280-96v32h-64v-32z"/><path d="m1504-320h-192-32v-128h32 192z"/><path d="m1536-448h32v128h-32-32v-128z"/><path d="m1568-288v-32-128h128v128 32 64h-128z"/><path d="m1696-224v64h-96-32v-64z"/><path d="m1728-288h192v128h-72-24-32-96v-64-64z"/><path d="m1920 288v-96-48 176 32z"/><path d="m1920-160v-128 160 16z"/><path d="m1920-112 32 21.3334 64 42.6666z"/><path d="m1696 448h-224z"/><path d="m1280 352v-128 128 32z"/><path d="m1280-96v-192 96 32 96z"/><path d="m1536-448h-32-192z"/><path d="m1472-64v16 96 32 80-64-48-64z"/><path d="m1376 0v128z"/><path d="m1328 160 48-32-64 42.6666-32 21.3334z"/><path d="m1504 320 64 96-42.6666-64z"/><path d="m1280 384 32 21.3334 64 42.6666z"/><path d="m736-160h-64z"/><path d="m672-544v64z"/><path d="m992-192h128-224z"/><path d="m512-416v192 32z"/><path d="m896 224v64 64 96-64-32z"/><path d="m1216 192h64-160-64z"/><path d="m736 224h-32-64z"/><path d="m736-160v32 64z"/><path d="m864 64h32v64h-32-96-32v-64z"/><path d="m864 352v32 64z"/><path d="m896 448h-32v-64h32z"/><path d="m416 352h32 64z"/><path d="m640 224h64v32 64 32h-64z"/><path d="m1152 864v32z"/><path d="m1792 704v-32-64 224z"/><path d="m1280 672v-32z"/><path d="m1376 576v-128z"/><path d="m1408 704h-32-192z"/><path d="m1792 832h-96-64z"/><path d="m1024 672h-128z"/><path d="m1024 736v64 160-192z"/><path d="m960 896v-128z"/><path d="m960 896-64 42.6667-32 21.3333z"/><path d="m640 704h-224 128z"/><path d="m864 672h-64-32z"/><path d="m1280 448v160 32 32z"/><path d="m1792-32v96 128-48-32-80-32z"/><path d="m1472 160v-80 32 32 48z"/><path d="m1472-64v-96 48 32 32z"/><path d="m1696-160v112 16z"/><path d="m1552-48h-64-16 16 64 16z"/><path d="m864 672v-96z"/><path d="m864 448v-96z"/><path d="m896 576v96z"/><path d="m896 352v96z"/><path d="m1184 352h64 32-64-32-32z"/><path d="m1024 352h-64-32-32z"/><path d="m1152 352v96z"/><path d="m1024 448v-96z"/><path d="m1024 672v-96z"/><path d="m992 576h32-128z"/><path d="m416 224h96z"/><path d="m640 224h96z"/><path d="m736 224v-64-32-64z"/><path d="m736-64v-32-64z"/><path d="m512 0v224-160z"/><path d="m640-64h96z"/><path d="m640-160v8 88z"/><path d="m640 672h-96-128 96 32 64z"/><path d="m512 352h-96z"/><path d="m864 352h-32-32-64-32-64z"/><path d="m768 576h96-128z"/><path d="m928 800h-32v64h32z"/><path d="m1600 352v32h64v-32z"/><path d="m416 352v96z"/><path d="m416 352v96 32z"/><path d="m416-32v-128 160z"/><path d="m416-160v128-64z"/><path d="m1472-288h64z"/><path d="m1472 48v48z"/><path d="m1472-128v-160 128 96z"/><path d="m1464-64h8z"/><path d="m1464-128h8v64h-8z"/><path d="m1464-16h8v64h-8z"/><path d="m1464 48h8z"/><path d="m1464 96h8v64h-8z"/><path d="m1464 160h8z"/><path d="m416-160h64z"/><path d="m768 672h-32-128-64 96z"/><path d="m768 672h32v16h-64v-16z"/><path d="m800 688h-64z"/><path d="m544 672h64v8h-64z"/><path d="m608 680v-8z"/><path d="m544 672h-128z"/><path d="m408 128h8z"/><path d="m408 32h8z"/><path d="m416-32v32 32h-8v-64z"/><path d="m416 64v64h-8v-64z"/><path d="m416 480v64h-8v-64z"/><path d="m408 544h8z"/><path d="m736 680v8h64v-8z"/><path d="m416 128v96z"/><path d="m416 32v32z"/><path d="m416-96v64 64 32 64-128z"/><path d="m1472-16v-48z"/><path d="m1472-288v160z"/><path d="m1464-64h8v-64h-8z"/><path d="m1472-128h-8z"/><path d="m1464-128v64z"/><path d="m1472 96h-8z"/><path d="m1464 48h8v-64h-8z"/><path d="m1472-16h-8z"/><path d="m1464-16v64z"/><path d="m1464 160h8v-64h-8z"/><path d="m1464 96v64z"/><path d="m1696 384v-32z"/><path d="m1600 384h-32z"/><path d="m1600 384h64z"/><path d="m1664 384h-64z"/><path d="m1696 384h-32z"/><path d="m1664 384h-64-32 128z"/><path d="m1600 352v32z"/><path d="m1664 352h-64v32h64z"/><path d="m1664 352h32-96z"/><path d="m1664 384v-32z"/><path d="m1664 352h32z"/><path d="m1600 352h64z"/><path d="m1664 352h-64z"/><path d="m1600 352h-32z"/><path d="m928 896h-32z"/><path d="m928 864v32z"/><path d="m928 800v64z"/><path d="m928 864v-64z"/><path d="m928 864v32-96z"/><path d="m928 800v-32z"/><path d="m928 800h-32z"/><path d="m896 800v64h32v-64z"/><path d="m896 864h32z"/><path d="m896 800v64z"/><path d="m896 864v-64z"/><path d="m896 896v-32z"/><path d="m544 672v8z"/><path d="m800 672h64z"/><path d="m800 672h64-96z"/><path d="m608 672h128z"/><path d="m736 672v16z"/><path d="m800 688v-16h-32-32v16z"/><path d="m800 688v-16z"/><path d="m608 672h-64v8h64z"/><path d="m544 680h64z"/><path d="m408 32h8v-64h-8z"/><path d="m416-32h-8z"/><path d="m408-32v64z"/><path d="m408 128h8v-64h-8z"/><path d="m416 64h-8z"/><path d="m408 64v64z"/><path d="m416 544v-64h-8v64z"/><path d="m416 480h-8z"/><path d="m408 480v64z"/><path d="m928 864h-32v-64h32z"/><path d="m928 864h-32z"/><path d="m896 800h32z"/><path d="m896 864v-64z"/><path d="m928 800v64z"/><path d="m1600 384v-32h64v32z"/><path d="m1664 352v32z"/><path d="m1600 384v-32z"/><path d="m1600 352h64z"/><path d="m1664 384h-64z"/><path d="m736 688v-8h64v8z"/><path d="m736 688v-8z"/><path d="m800 680v8z"/><path d="m800 688h-64z"/><path d="m736 680h64z"/></g><g id="b"><path d="m640 1120h-96-128 16 64z"/><path d="m864 1120h-96-128 80 32z"/><path d="m1088 1120h-192-32 32 128z"/><path d="m1152 1120h-32z"/><path d="m1280-544h-64-96z"/><path d="m896-544h-224z"/><path d="m1120-544h-224z"/><path d="m416 704v160 32z"/><path d="m416 544v128z"/><path d="m416 448v96 128-96z"/><path d="m416 448v-96 128 64z"/><path d="m416 0v128 96z"/><path d="m416-160v64z"/><path d="m2016-48v128z"/><path d="m1920 352v224z"/><path d="m1920 352v224-64z"/><path d="m1920-288v160z"/><path d="m1952-90.6666-32-21.3334v208 16h32z"/><path d="m1920 112v32l32-21.3334v-10.6666z"/><path d="m1952 122.6666 64-42.6666z"/><path d="m1952 122.6666-32 21.3334 96-64z"/><path d="m1776 0v-192h-32v32 128 64h32z"/><path d="m1744 32v160 32h32v-192z"/><path d="m1744-160v-32h-48-176v32z"/><path d="m1696-320h-128v32h128z"/><path d="m1280-160v-32h-128v32z"/><path d="m1520-32v-128-32h-48v128 48 48h48z"/><path d="m1472 32v128 64h48v-32-160z"/><path d="m1280-448v32 96h32v-128z"/><path d="m1696 224h48v-32h-224v32z"/><path d="m1312 160v-202.6666l-32-21.3334v32 192z"/><path d="m1280 192 32-21.3334v-10.6666h-32z"/><path d="m640-192h-128v32h128z"/><path d="m1152-64v-32h-128v32z"/><path d="m1184-96h-32v32 16 96 16h32z"/><path d="m1152-64-48 32v16l16-10.6667 32-21.3333z"/><path d="m1120-26.6667-16 10.6667v32l16 10.6667z"/><path d="m1152 48-32-21.3333-16-10.6667v16l48 32z"/><path d="m1024 48v-96-16-32h-32v160h32z"/><path d="m1072-32-48-32v16l24 16z"/><path d="m1072 16-16 10.6667-32 21.3333v16l48-32z"/><path d="m1072-16-16-10.6667v53.3334l16-10.6667z"/><path d="m1104 16h-32v16h32z"/><path d="m1056-26.6667 16 10.6667h32v-16h-32-24z"/><path d="m896-32v-96h-32v32 192h32z"/><path d="m864 96v32h32v-32z"/><path d="m1152 64h-128-32v32h192v-32z"/><path d="m1024 224v-32h-128v32z"/><path d="m768-96v-32h-32v64 128 32h32z"/><path d="m736 96v32h32v-32z"/><path d="m640 64h96v-128h-160l-64 64v64z"/><path d="m704 224h-64v32h64z"/><path d="m704 256h32v64h-32z"/><path d="m512 224v32h128v-32-160h-128z"/><path d="m512 224h-64v32h64z"/><path d="m416 256h32v64h-32z"/><path d="m1920 320h-128v32h128z"/><path d="m1728 320h-32-192l21.3334 32h42.6666 32 96 32z"/><path d="m1738.6666 352 21.3334-32h-32v32z"/><path d="m1600 352h96v32h-128v-32z"/><path d="m1120 352h-224v32h224z"/><path d="m1280 384v-32h-160v32z"/><path d="m1312 608v-202.6666l-32-21.3334v32 192z"/><path d="m1280 640 32-21.3333v-10.6667h-32z"/><path d="m1120 640h-224v32h128 96z"/><path d="m1152 672h32 96v-32h-160v32z"/><path d="m1184 704h-32v128h32z"/><path d="m896 608v-192-32h-32v64 160z"/><path d="m864 640h32v-32h-32z"/><path d="m672 320h-32-192v32h32 32 160z"/><path d="m704 352v-32h-32v32z"/><path d="m768 384v-32h-32v224h32z"/><path d="m512 512v-160h-32v32 192h32z"/><path d="m480 576v32h32v-32z"/><path d="m704 608h64v-32h-32-160-32v32z"/><path d="m544 576h32l-32-32z"/><path d="m512 576v32h32v-32-32l-32-32z"/><path d="m896 896v-96-32-42.6666l-32-21.3334v160 64h32z"/><path d="m864 928v16 16l32-21.3333v-10.6667z"/><path d="m896 800v-32h32v32 96h-32z"/><path d="m864 864v-160h-192v96l64 64z"/><path d="m864 992v16h32v-16z"/><path d="m864 992v-32-16l-64 64h64z"/><path d="m768 1008h-160-64v112h96 128z"/><path d="m864 1120h32v-112h-32-64-32v112z"/><path d="m672 704h-32-96v96h128z"/><path d="m544 800v-96h-128v192 32h128z"/><path d="m416 928v192h128v-112-64-16z"/><path d="m544 944v64h64z"/><path d="m480 352h-32-32z"/><path d="m864 352h-96z"/><path d="m1280 352h-160z"/><path d="m1920 352h-128z"/><path d="m1280 224v128z"/><path d="m1280-64v-96 128z"/><path d="m1280-448v-32-64 128z"/><path d="m1696-288h-128-32-64 48z"/><path d="m1696-320v-128z"/><path d="m1312-448v128z"/><path d="m1568-320h128-160z"/><path d="m1536-448h-224z"/><path d="m1472-288v96z"/><path d="m1728 320h32 32 128-176-48z"/><path d="m1696 224h-176-48 48z"/><path d="m1744-192h32-32-48z"/><path d="m1744-160v64 64z"/><path d="m1776 0v32 192-64z"/><path d="m1744-160h-224z"/><path d="m1744 192h-160-64z"/><path d="m1520-32v64 160-32z"/><path d="m1376 0v128z"/><path d="m1312 170.6666 64-42.6666z"/><path d="m1120-160h-224 96z"/><path d="m640-160h-128-32-64z"/><path d="m672-480v32-96z"/><path d="m1152-192h128-160z"/><path d="m512-192h128z"/><path d="m640-192v-96-32 96z"/><path d="m512-416v224-32z"/><path d="m896-32v128 32 64-128z"/><path d="m1280 192h-96-64z"/><path d="m992 64v-160 160 32z"/><path d="m1024-96h128 32-192z"/><path d="m1152 48v-96z"/><path d="m1072-16v32z"/><path d="m1104 16v-32z"/><path d="m1152-64-48 32z"/><path d="m1152 48-32-21.3331v-.0002z"/><path d="m1104-16h-32z"/><path d="m1072-32h32z"/><path d="m1072 16h32z"/><path d="m1104 32h-32z"/><path d="m1048-32-24-16 32 21.3333z"/><path d="m1056-26.6667v53.3334z"/><path d="m1056 26.6667-32 21.3333z"/><path d="m992 96h192z"/><path d="m1120 224h-64-32-128z"/><path d="m416 224h32 64z"/><path d="m640 224h64 32z"/><path d="m736 224v-96-32-32z"/><path d="m736-64v-64-32z"/><path d="m864-128h-96z"/><path d="m768 128h96z"/><path d="m864-128v32z"/><path d="m768-96v192 32-32z"/><path d="m640 64v160z"/><path d="m512 64v-64 224z"/><path d="m576-64-64 64z"/><path d="m736 256v64z"/><path d="m672 320h32 32-96z"/><path d="m640 256h-128-64-32z"/><path d="m896 1008v112-128z"/><path d="m896 416v192 32z"/><path d="m1792 576v32z"/><path d="m1792 416v32-96z"/><path d="m1824 576h96-128z"/><path d="m1472 480v192 32-32z"/><path d="m1696 448h-224z"/><path d="m1568 416h128z"/><path d="m1525.3334 352 42.6666 64z"/><path d="m1792 832h-96z"/><path d="m1152 672h-32-96z"/><path d="m1280 384v32z"/><path d="m1376 576v-128z"/><path d="m1312 405.3334v202.6666 10.6667-213.3334z"/><path d="m1312 618.6667 64-42.6667z"/><path d="m1280 640h-160z"/><path d="m1120 384h-224z"/><path d="m1408 704h-224z"/><path d="m1024 768v192 32-96z"/><path d="m1152 864v-32-128-32 224z"/><path d="m960 896v-128z"/><path d="m896 938.6667 64-42.6667z"/><path d="m768 672h96-96-64-64z"/><path d="m768 384v192 32-32z"/><path d="m864 384v-32 96z"/><path d="m480 352v32z"/><path d="m736 576h-160z"/><path d="m736 352v224z"/><path d="m544 544 32 32-64-64z"/><path d="m704 608h-160-32-32z"/><path d="m864 928v-64 80z"/><path d="m768 1008h32-192z"/><path d="m1792 448h-32z"/><path d="m1760 448h-64z"/><path d="m1280-288v-32z"/><path d="m1280-480v-64z"/><path d="m1280-448v-32z"/><path d="m1920-288h-192z"/><path d="m1728-288h-32z"/><path d="m1568-288h-32z"/><path d="m1696-320v-128z"/><path d="m1696-288v-32z"/><path d="m1312-320h192 32z"/><path d="m1536-320h32z"/><path d="m1280-320h32z"/><path d="m1312-448h-32z"/><path d="m1696-448h-128-32z"/><path d="m1568-320v32z"/><path d="m1792 320h-32z"/><path d="m1504 320h-32z"/><path d="m1472 224v-64 32 80 48z"/><path d="m1472 32v-48 64 48 64z"/><path d="m1472-192v-96 160 64z"/><path d="m1376 0-96-64z"/><path d="m1568 352v32z"/><path d="m1792 352v-32 96z"/><path d="m1792 416v32z"/><path d="m1760 320-21.3334 32-42.6666 64z"/><path d="m1696 416h-128z"/><path d="m512-160h-32z"/><path d="m672-160h-32z"/><path d="m1152-160h-32z"/><path d="m1120-160h-128-96z"/><path d="m672-480v32z"/><path d="m672-288v96z"/><path d="m672-320v32z"/><path d="m1152-192v32z"/><path d="m896-192h-224 32 64z"/><path d="m1120-192h32z"/><path d="m640-448h-128z"/><path d="m672-448h-32z"/><path d="m640-192v-32-64z"/><path d="m640-288v-32z"/><path d="m640-160v-32z"/><path d="m640-320h32z"/><path d="m512-192v32z"/><path d="m512-448v32z"/><path d="m896-128v-32 96z"/><path d="m896 192v-64-64 160z"/><path d="m1024 192h32z"/><path d="m1024 224v-32z"/><path d="m1120 224h160-32-64-128z"/><path d="m1056 224h-32z"/><path d="m448 224h-32 96z"/><path d="m736 224v-160 64z"/><path d="m768-128h96 32v64h-32-128v-64z"/><path d="m736 352h32 96-224 64z"/><path d="m448 320v-64-32h64v128h-64z"/><path d="m1152 864v-32z"/><path d="m1152 704v-32z"/><path d="m1152 896v224-96z"/><path d="m1792 608v-32z"/><path d="m1792 576h32z"/><path d="m1824 576h96z"/><path d="m1184 672h96z"/><path d="m1152 672h32z"/><path d="m1472 480v-32 224z"/><path d="m1312 618.6667-32 21.3333 48-32 48-32z"/><path d="m1472 704h-32z"/><path d="m1184 704h-32z"/><path d="m1440 704h-32z"/><path d="m1472 672v32z"/><path d="m1152 832h32z"/><path d="m1408 832h-224 192z"/><path d="m1632 832h-160-64 192z"/><path d="m864 992v-32z"/><path d="m864 640v32-96z"/><path d="m896 672v-32-64z"/><path d="m896 640h-32v-64h32z"/><path d="m896 992h-32z"/><path d="m1024 992h-32z"/><path d="m992 992h-96z"/><path d="m1024 960v32z"/><path d="m1024 672v64z"/><path d="m928 768h-32z"/><path d="m896 725.3334 64 42.6666-64-42.6667-32-21.3333z"/><path d="m896 768v32z"/><path d="m896 896v-32-64z"/><path d="m672 704h192-112-112z"/><path d="m768 672h-128-96 64 128z"/><path d="m1120 1120h-96-128 192z"/><path d="m1280-544h-160z"/><path d="m416 352v96z"/><path d="m416 256v64z"/><path d="m416-160v64 96z"/><path d="m416 0v224z"/><path d="m1920 96v64 128 32-176-32z"/><path d="m1920-128v64 160-208z"/><path d="m1952-90.6666v202.6666 10.6666z"/><path d="m2016-48-64-42.6666v213.3332l64-42.6666z"/><path d="m2016-48-64-42.6666z"/><path d="m736 352h-32-32-160z"/><path d="m1120 352h-224z"/><path d="m1738.6666 352h-10.6666-32-96-32-42.6666z"/><path d="m1280-32v96 128-32z"/><path d="m1280-416v96 128-96-32z"/><path d="m1744-288h32 144-192-32z"/><path d="m1536-320h-224z"/><path d="m1696-448h-160z"/><path d="m1536-448h-224v128h224z"/><path d="m1696-320v-128h-160v128z"/><path d="m1472 224v96z"/><path d="m1696 320h-176-48 32z"/><path d="m1744 288h-224v32h176 48z"/><path d="m1920 320v-32h-144-32v32z"/><path d="m1520 288v-64h-48v96h48z"/><path d="m1744 224h-48-176v64h224z"/><path d="m1776 288v-64h-32v64z"/><path d="m1472-288v96h48v-96z"/><path d="m1744-288h-48-176v96h176 48z"/><path d="m1776-192v-96h-32v96z"/><path d="m1920-128v-160h-144v96 128h144z"/><path d="m1776-64v64 160h144v-64-160z"/><path d="m1776 160v64 64h144v-128z"/><path d="m1744 192h-64-16-64-16z"/><path d="m1744-32v-64 16 32 16 48 16 32 16 32 16z"/><path d="m1520-64v32 192-32-16-32-16-32-16-48-16z"/><path d="m1744 224h32-32-48z"/><path d="m1696-192h-176-48 48z"/><path d="m1744-32v160 64-160z"/><path d="m1776-64v-128 192z"/><path d="m1520-64v-96 128z"/><path d="m1312-42.6666v202.6666 10.6666z"/><path d="m1376 0-64-42.6666v213.3332l64-42.6666z"/><path d="m1376 0-64-42.6666z"/><path d="m1184-160h96-128-32z"/><path d="m640-160h-224z"/><path d="m736-160h-64-32z"/><path d="m672-320v32 96z"/><path d="m896-192h-224z"/><path d="m1120-192h-224z"/><path d="m896-544h-224v96 128h224z"/><path d="m672-320v128h224v-128z"/><path d="m1120-544h-224v224h224z"/><path d="m896-320v128h224v-128z"/><path d="m1280-320v-96-128h-160v224z"/><path d="m1280-192v-128h-160v128z"/><path d="m640-448h32-32-128z"/><path d="m640-320h32z"/><path d="m640-448v128h32v-128z"/><path d="m512-448v32z"/><path d="m640-224v-96-128h-128v32 192z"/><path d="m512-192h128v-32h-128z"/><path d="m896-160v32 96z"/><path d="m896 224v128z"/><path d="m1120 192h-128-96 128 32z"/><path d="m1184 64v-160 160 32z"/><path d="m1280 64v-96-128h-96v64 160z"/><path d="m1280 192v-128h-96v32 96z"/><path d="m1024 64h128z"/><path d="m1152-64h-128z"/><path d="m1184-96v-64h-64-128v64z"/><path d="m1152 48v-96-16 16 96 16z"/><path d="m1024-48v96z"/><path d="m1024-64v16 96 16-16-96z"/><path d="m1152 64-48-32v-16l16 10.6669 32 21.3331z"/><path d="m1104-16 16-10.6667v53.3336l-16-10.6669z"/><path d="m1152-48-32 21.3333-16 10.6667v-16l48-32z"/><path d="m1152-48-32 21.3333z"/><path d="m1152 64-48-32z"/><path d="m1120-26.6667v53.3334.0002z"/><path d="m1104-16h-32v-16h32z"/><path d="m1104 32h-32v-16h32z"/><path d="m1072 32-48 32v-16l32-21.3333 16-10.6667z"/><path d="m1056-26.6667 16 10.6667v32l-16 10.6667z"/><path d="m1072-16-16-10.6667-32-21.3333v-16l48 32z"/><path d="m1024-64 48 32z"/><path d="m1072 32-48 32z"/><path d="m992 96v96h128 64v-96z"/><path d="m992 64v-160-64h-96v128 96z"/><path d="m896 192h96v-96-32h-96z"/><path d="m1280 224h-160z"/><path d="m1120 224h-224v128h224z"/><path d="m1280 224h-160v128h160z"/><path d="m416 224h96z"/><path d="m640 224h96z"/><path d="m736 224v-160z"/><path d="m736-64v-96z"/><path d="m864-96v192 32-32z"/><path d="m768-128v32z"/><path d="m864 96v-192-32h-96v32 192z"/><path d="m768 128h96v-32h-96z"/><path d="m576-64h160z"/><path d="m640 64v160z"/><path d="m736 64h-96z"/><path d="m512 0v224z"/><path d="m640 320h-224 32z"/><path d="m736 256h-32-64z"/><path d="m640 256h-224v64h224z"/><path d="m736 256h-96v64h96z"/><path d="m896 725.3334v42.6666 32 96 32 10.6667z"/><path d="m896 384v32z"/><path d="m896 416v224-64-16-96-16z"/><path d="m1792 608v64 32 128z"/><path d="m1920 352h-128v96 128h128z"/><path d="m960 768-64-42.6666v213.3333l64-42.6667z"/><path d="m896 992v128h128v-128z"/><path d="m1152 672h-128v96 128h128z"/><path d="m1024 896v96 128h96 32v-224z"/><path d="m1408 704h-224v128h224z"/><path d="m1632 704h-160-64v128h64 160z"/><path d="m1696 832h96v-128h-96-64v128z"/><path d="m1312 618.6667 64-42.6667v-128l-64-42.6667z"/><path d="m1696 448h-224v32 192h224z"/><path d="m1472 672v32h160 64v-32z"/><path d="m1792 672v-64-32-128h-96v224z"/><path d="m1792 704v-32h-96v32z"/><path d="m1696 416 42.6666-64h-213.3332l42.6666 64z"/><path d="m1280 448v16 96 16z"/><path d="m1120 384h-224 64 16 64 16z"/><path d="m1280 640h-64-16-64-16z"/><path d="m1472 448v32z"/><path d="m1792 448h-32-64z"/><path d="m1696 416 42.6666-64z"/><path d="m1696 832h-64-160 160z"/><path d="m1280 416v32 128 64-32z"/><path d="m1376 448-64-42.6666v-.0001z"/><path d="m1120 640h-224z"/><path d="m1280 384h-160z"/><path d="m1184 704v128z"/><path d="m1408 832h-224z"/><path d="m1472 832h-64z"/><path d="m1472 704h-32-32z"/><path d="m1024 672v64 32z"/><path d="m1152 896v224z"/><path d="m1024 992h-32-96z"/><path d="m960 768-64-42.6666z"/><path d="m640 672h-160-64 128z"/><path d="m768 352v32z"/><path d="m864 448v128 96-32-32z"/><path d="m864 576v-128-96h-96v32 192z"/><path d="m768 608v64h96v-96h-96z"/><path d="m480 384v192 32-32z"/><path d="m736 576v-224z"/><path d="m512 352v160z"/><path d="m768 608h-64z"/><path d="m704 608h-224v64h160 64z"/><path d="m768 672v-64h-64v64z"/><path d="m480 576v-192-32h-64v96 128z"/><path d="m416 672h64v-64-32h-64z"/><path d="m544 800v128 16z"/><path d="m864 864v80z"/><path d="m864 864h-128z"/><path d="m672 800h-128z"/><path d="m672 800h-128z"/><path d="m736 864-64-64z"/><path d="m800 1008h-192z"/><path d="m800 1008 64-64z"/><path d="m544 944 64 64z"/><path d="m1744 192h-64z"/><path d="m1600 192h64z"/><path d="m1584 192h-64z"/><path d="m1584-160h-64z"/><path d="m1584-160h16 64 16 64-224z"/><path d="m1664-160h-64z"/><path d="m1712-32v48z"/><path d="m1712 32v32z"/><path d="m1712-80v32z"/><path d="m1712 80v16 16-16z"/><path d="m1712 128v32z"/><path d="m1744-96v-64z"/><path d="m1712-96v16h32v-16z"/><path d="m1712-48v16h32v-16z"/><path d="m1712 16v16h32v-16z"/><path d="m1712 64v16h32v-16z"/><path d="m1712 112v16h32v-16z"/><path d="m1744-48v-32z"/><path d="m1744 16v-48z"/><path d="m1744 64v-32z"/><path d="m1744 112v-32z"/><path d="m1584 160h-32z"/><path d="m1664 160h-64z"/><path d="m1552 112v-16-16 16z"/><path d="m1552 64v-32z"/><path d="m1552 16v-48z"/><path d="m1552-48v-32z"/><path d="m1552-96v-32z"/><path d="m1680-128h32z"/><path d="m1600-128h64z"/><path d="m1680-160h-16v32h16z"/><path d="m1600-160h-16v32h16z"/><path d="m1712 96v-16-16-32-16-48-16-32-16-32h-32-16-64-16-32v32 16 32 16 48 16 32 16 16z"/><path d="m1584 160h16 64 16 32v-32-16-16h-160v16 16 32z"/><path d="m1520-96v16h32v-16z"/><path d="m1520-48v16h32v-16z"/><path d="m1520 16v16h32v-16z"/><path d="m1520 64v16h32v-16z"/><path d="m1520 112v16h32v-16z"/><path d="m1520-160v64z"/><path d="m1520-80v16 16-16z"/><path d="m1520-32v48z"/><path d="m1520 32v32z"/><path d="m1520 80v32z"/><path d="m1520 128v32z"/><path d="m1520-80v-16-64 96z"/><path d="m1680 160h-16v32h16z"/><path d="m1600 160h-16v32h16z"/><path d="m896 384v32z"/><path d="m896 576v64z"/><path d="m896 464v96z"/><path d="m1280 448v-32-32z"/><path d="m1280 576v64z"/><path d="m976 416h64z"/><path d="m1056 416h64z"/><path d="m1152 416h48-48-16z"/><path d="m1216 416h32z"/><path d="m1056 384h-16v32h16z"/><path d="m976 384h-16v32h16z"/><path d="m1136 384h-16v32h16z"/><path d="m1216 384h-16v32h16z"/><path d="m1280 384h-64z"/><path d="m1120 384h-64z"/><path d="m1040 384h-64z"/><path d="m1136 384h64 16 64-160z"/><path d="m960 608h-32z"/><path d="m1040 608h-64z"/><path d="m1120 608h-64z"/><path d="m1248 464v96z"/><path d="m1248 576v32z"/><path d="m1248 448v16h32v-16z"/><path d="m1248 560v16h32v-16z"/><path d="m928 448v-32z"/><path d="m928 560v-96z"/><path d="m1152 416h-16-16-64-16-64-16-32v32 16 96 16 32h32 16 64 16 64 16 16z"/><path d="m1200 608h16 32v-32-16-96-16-32h-32-16-48v192z"/><path d="m896 448v16h32v-16z"/><path d="m896 560v16h32v-16z"/><path d="m1216 608h-16v32h16z"/><path d="m1056 608h-16v32h16z"/><path d="m1136 608h-16v32h16z"/><path d="m976 608h-16v32h16z"/><path d="m1216 640h64z"/><path d="m1200 640h-64z"/><path d="m1056 640h64z"/><path d="m976 640h64z"/><path d="m960 640h-64z"/><path d="m1120 640h-64-16-64-16-64z"/><path d="m416 0v224-64z"/><path d="m416-160v160z"/><path d="m736 352h-224z"/><path d="m512 352h128 96z"/><path d="m1584 192h16 64 16 64-224z"/><path d="m1744-160h-64z"/><path d="m1712-128v32z"/><path d="m1744 128h-32z"/><path d="m1712 80v-16h32v16z"/><path d="m1712 128v-16h32v16z"/><path d="m1712 32v-16h32v16z"/><path d="m1712-32v-16h32v16z"/><path d="m1712-80v-16h32v16z"/><path d="m1744-160v64z"/><path d="m1712-96h32z"/><path d="m1712 16h32z"/><path d="m1744-32h-32z"/><path d="m1744-80h-32z"/><path d="m1712-48h32z"/><path d="m1744 80h-32z"/><path d="m1744 32h-32z"/><path d="m1712 64h32z"/><path d="m1712 112h32z"/><path d="m1744 192v-64z"/><path d="m1712 160h-32z"/><path d="m1552 160v-32z"/><path d="m1552-128h32z"/><path d="m1664-128v-32z"/><path d="m1680-160v32z"/><path d="m1680-128h-16v-32h16z"/><path d="m1600-160v32z"/><path d="m1600-128h-16v-32h16z"/><path d="m1584-128v-32z"/><path d="m1584-128h16 64 16 32v32 16 32 16 48 16 32 16 16h-160v-16-16-32-16-48-16-32-16-32z"/><path d="m1712 96v16 16 32h-32-16-64-16-32v-32-16-16z"/><path d="m1520-80v-16h32v16z"/><path d="m1520 32v-16h32v16z"/><path d="m1520-32v-16h32v16z"/><path d="m1520 128v-16h32v16z"/><path d="m1520 80v-16h32v16z"/><path d="m1520-64v16 16 48 16 32 16 32 16 32-192z"/><path d="m1520 16h32z"/><path d="m1552-80h-32z"/><path d="m1520-96h32z"/><path d="m1552-32h-32z"/><path d="m1520-48h32z"/><path d="m1552 80h-32z"/><path d="m1552 32h-32z"/><path d="m1520 64h32z"/><path d="m1552 128h-32z"/><path d="m1520 112h32z"/><path d="m1600 160v32z"/><path d="m1664 192v-32z"/><path d="m1680 192h-16v-32h16z"/><path d="m1680 160v32z"/><path d="m1584 192v-32z"/><path d="m1600 192h-16v-32h16z"/><path d="m1520 192v-32z"/><path d="m640-160h-224 32z"/><path d="m736-160h-96z"/><path d="m1024 64h128z"/><path d="m1152-64h-128z"/><path d="m1152-48v16 80z"/><path d="m1024-48v96z"/><path d="m1152 48-24-16h-24l48 32z"/><path d="m1072 32v-16l-16 10.6667-32 21.3333v16z"/><path d="m1056-32v-10.6667l-32-21.3333v16l32 21.3333z"/><path d="m1072-16-16-10.6667v53.3334l16-10.6667z"/><path d="m1072-32h-16v5.3333l16 10.6667h32v-16z"/><path d="m1072-32-16-10.6667v10.6667z"/><path d="m1152-64-48 32v16l16-10.6667 32-21.3333z"/><path d="m1120-26.6667-16 10.6667v32l16 10.6667z"/><path d="m1104 32h24l-8-5.3333-16-10.6667h-32v16z"/><path d="m1072-16v32z"/><path d="m1104 16v-32z"/><path d="m1152-64-48 32z"/><path d="m1104-16h-32z"/><path d="m1072-32h32z"/><path d="m1072 16h32z"/><path d="m1104 32h-32z"/><path d="m1024 64 48-32z"/><path d="m1056-42.6667 16 10.6667-48-32z"/><path d="m1056-26.6667v53.3334z"/><path d="m1056 26.6667-32 21.3333z"/><path d="m416 224h96z"/><path d="m640 224h96z"/><path d="m736 224v-160z"/><path d="m736-64v-96z"/><path d="m576-64h160z"/><path d="m736-64h-160z"/><path d="m640 64v160z"/><path d="m736 64h-96z"/><path d="m512 0v64 160z"/><path d="m512 0 64-64z"/><path d="m896 416v-32 32 32z"/><path d="m896 416v32 16 96 16 64z"/><path d="m1280 464v-16-64 32z"/><path d="m1280 464v96z"/><path d="m1280 576v-16z"/><path d="m928 416h32z"/><path d="m960 416v-32z"/><path d="m1216 416h-16v-32h16z"/><path d="m1056 416h-16v-32h16z"/><path d="m976 416h-16v-32h16z"/><path d="m1136 416h-16v-32h16z"/><path d="m1184 384h-48-16-64-16-64-16 160z"/><path d="m1136 384v32z"/><path d="m1200 416v-32z"/><path d="m1216 384v32z"/><path d="m1184 384h16-64z"/><path d="m1056 384v32z"/><path d="m1120 416v-32z"/><path d="m976 384v32z"/><path d="m1040 416v-32z"/><path d="m896 384h64z"/><path d="m1152 608h48-48-16z"/><path d="m1248 608h-32z"/><path d="m1248 416v32z"/><path d="m1280 464h-32z"/><path d="m1248 448h32z"/><path d="m1248 464v-16h32v16z"/><path d="m1248 560h32z"/><path d="m1248 576v-16h32v16z"/><path d="m1280 576h-32z"/><path d="m928 608v-32z"/><path d="m1152 608h-16-16-64-16-64-16-32v-32-16-96-16-32h32 16 64 16 64 16 16z"/><path d="m1200 416h16 32v32 16 96 16 32h-32-16-48v-192z"/><path d="m896 560h32z"/><path d="m928 464h-32z"/><path d="m896 448h32z"/><path d="m896 464v-16h32v16z"/><path d="m896 576v-16h32v16z"/><path d="m928 576h-32z"/><path d="m1216 640h-16v-32h16z"/><path d="m976 640h-16v-32h16z"/><path d="m1136 640h-16v-32h16z"/><path d="m1056 640h-16v-32h16z"/><path d="m1136 640h64 16 64-160z"/><path d="m1056 608v32z"/><path d="m1136 608v32z"/><path d="m1216 608v32z"/><path d="m1200 640v-32z"/><path d="m1120 640v-32z"/><path d="m976 608v32z"/><path d="m1040 640v-32z"/><path d="m960 640v-32z"/><path d="m576 576h160z"/><path d="m736 576h-96-64z"/><path d="m736 576v-224 160z"/><path d="m512 352v160z"/><path d="m512 512 64 64z"/><path d="m544 800v144z"/><path d="m864 864v48 32z"/><path d="m864 864h-128z"/><path d="m736 864-64-64z"/><path d="m800 1008h-192z"/><path d="m800 1008 64-64z"/><path d="m544 944 64 64z"/><path d="m608 1008-32-32-32-32z"/><path d="m1024 1120h-160z"/><path d="m416 896v32 192z"/><path d="m416-64v-96 160z"/><path d="m416 384v192 32z"/><path d="m416 160v64 128 32z"/><path d="m416-64v64 160z"/><path d="m576 1008v112h-32v-176l32 32z"/><path d="m608 1008h-32v-32z"/><path d="m416 896v-192h128v96 128h-128z"/><path d="m544 928v16 176h-128v-192z"/><path d="m544 704h32v16 64 16h-32z"/><path d="m672 800h-32v-16-64-16h32z"/><path d="m640 720h-64v-16h64z"/><path d="m576 800v-16h64v16z"/><path d="m640 784h-64v-64h64z"/><path d="m864 944v64h-64z"/><path d="m800 1120h-160-64v-112h32 192z"/><path d="m1024 1120h-160-64v-112h64 160z"/><path d="m1056 1008v90.6667l-32 21.3333v-112z"/><path d="m896 912h128 32v96h-32-160v-64-32z"/><path d="m1096 912 24 16v128l-64 42.6667v-90.6667-96z"/><path d="m864 912v-48h32v48z"/><path d="m864 704h32v96h-32-128v-96z"/><path d="m896 912v-48-64-96h128v160 48z"/><path d="m1096 912h-40-32v-48z"/><path d="m640 672h-160l-64-64v-32h96 64 64z"/><path d="m736 576v96h-32-64v-96z"/><path d="m416 576v-192-32h96v160 64z"/><path d="m576 576h-64v-64z"/><path d="m768 288h96v160 64h-128v-160-64z"/><path d="m864 512v160 32h-128v-32-96-64z"/><path d="m640 64v160h-128v-160z"/><path d="m416 224h96 128v128h-128-96z"/><path d="m640 224h96v64 64h-96z"/><path d="m576-64h160v128h-96-128v-64z"/><path d="m736-64v-96h32v16 64 16 128h-32z"/><path d="m768 64v224h-32v-64-160z"/><path d="m768 64h96v32 128 64h-96z"/><path d="m960 192v-96-32h32 32 128 32v176l-32 48h-128z"/><path d="m1184 64h32v128l-32 48z"/><path d="m832-64v-16-64-16h32v64 32z"/><path d="m768-64v-16h64v16z"/><path d="m832-144h-64v-16h64z"/><path d="m832-80h-64v-64h64z"/><path d="m992 64h-32-32-32-32-96v-128h64 32 32 32 32 32z"/><path d="m1024-64v16 96 16h-32v-128z"/><path d="m1152 64-48-32h24l24 16z"/><path d="m1056 26.6667 16-10.6667v16l-48 32v-16z"/><path d="m1152-48-32 21.3333-16 10.6667v-16l48-32z"/><path d="m1056-26.6667 16 10.6667v32l-16 10.6667z"/><path d="m1104-16 16-10.6667v53.3334l-16-10.6667z"/><path d="m1024-160h128v96h-128-32-32v-32-64z"/><path d="m1104-16h-32v-16h32z"/><path d="m1072-16-16-10.6667-32-21.3333v-16l48 32z"/><path d="m1104 16 16 10.6667 8 5.3333h-24-32v-16z"/><path d="m672-160h-32-192l64-96h128l32 48z"/><path d="m704-160h-32v-48z"/><path d="m1024-256v32 32 32h-64z"/><path d="m1056-192v-32h64v32z"/><path d="m1056-192h64 32v32h-128v-32z"/><path d="m1152-256v32h-32-64-32v-32z"/><path d="m1152-48v-16-96-32-32-32l64 96v128h-64z"/><path d="m1216-32v96h-32-32v-16-80z"/><path d="m1216-32v-128h64v128 96h-64z"/><path d="m1280 64v128h-64v-128z"/><path d="m1744 192h-224z"/><path d="m1744-160h-224 176z"/><path d="m1520-32v192 32-128z"/><path d="m1744-96v-64 128z"/><path d="m864 96v128z"/><path d="m1280-160h-64z"/><path d="m960 96v96z"/><path d="m960-160v64z"/><path d="m1280-160v128z"/><path d="m1024 288h128z"/><path d="m896 416v224-192z"/><path d="m1280 384v32z"/><path d="m1280 640h-160z"/><path d="m1120 384h-160-64z"/><path d="m832-160h-64-32-32 160z"/><path d="m640-256h-128z"/><path d="m1024 864v-160z"/><path d="m1120 1056v-128z"/><path d="m1056 1098.6667 64-42.6667-64 42.6667-32 21.3333z"/><path d="m1096 912-72-48 32 21.3333 64 42.6667z"/><path d="m1024 704h-128 64z"/><path d="m896 704h-32z"/><path d="m640 704h-64-32-128z"/><path d="m864 704v-32z"/><path d="m864 800h-128z"/><path d="m1744-160h-64-16-64-16-64z"/><path d="m1744-96v64 160-16-32-16-32-16-48-16-32z"/><path d="m1520-160v64 16 16z"/><path d="m672-160h32 32-96z"/><path d="m1024 64h128z"/><path d="m1152-64h-128z"/><path d="m1152-48-32 21.3333z"/><path d="m1152 64-48-32z"/><path d="m1120-26.6667v53.3334z"/><path d="m1128 32-8-5.3333 8 5.3333 24 16z"/><path d="m1056-26.6667-32-21.3333z"/><path d="m736 64h-96z"/><path d="m512 0 64-64z"/><path d="m896 384v32z"/><path d="m1280 384h-64-16-16z"/><path d="m1120 640h-224 64 16 64 16z"/><path d="m512 352v160z"/><path d="m512 512 64 64z"/><path d="m544 928v-128 144z"/><path d="m864 864h-128z"/><path d="m576 800h64 32-128z"/><path d="m736 864-64-64z"/><path d="m800 1008 64-64z"/><path d="m1056-224v32h64v-32z"/><path d="m1472-160h48v128 96h-48z"/><path d="m1520 64v128 32h-48v-160z"/><path d="m1744 224h-224v-32h224z"/><path d="m1776 192v32h-32v-32z"/><path d="m1744-32v-128h32v224h-32z"/><path d="m1776 64v128h-32v-128z"/><path d="m1696-160h-176-48v-32h224z"/><path d="m1776-192v32h-32-48v-32z"/><path d="m1520-160v96 32z"/><path d="m1744-32v96 128-64z"/><path d="m896 384v32z"/><path d="m896 448v192 32z"/><path d="m1120 672h-64-160v-32h224z"/><path d="m1280 640h32v32h-192v-32z"/><path d="m1280 416v-32h32v224h-32z"/><path d="m1312 608v32h-32v-32z"/><path d="m1120 384h-224v-32h64 160z"/><path d="m1312 352v32h-32-160v-32z"/><path d="m1280 416v192 32-64-16-96z"/><path d="m1120 640h-224z"/><path d="m1280 384h-96-64z"/><path d="m896 672h160z"/><path d="m960 352h-64z"/><path d="m896 352v32 32 32z"/><path d="m1152-192v-32z"/><path d="m1120-192h-64z"/><path d="m1056-192h64z"/><path d="m1152-192h-32z"/><path d="m1056-224h-32z"/><path d="m1120-224h-64z"/><path d="m1056-224h64z"/><path d="m1120-224h32z"/><path d="m1120-224h32-96z"/><path d="m1120-224h-64v32h64z"/><path d="m1120-192v-32z"/><path d="m1056-224v32z"/><path d="m1056-192v-32h64v32z"/><path d="m1120-224v32z"/><path d="m1056-192v-32z"/><path d="m1120-192h-64z"/><path d="m1056-224h64z"/><path d="m640 1120h-224 128 32z"/><path d="m864 1120h-224 160z"/><path d="m1024 1120h-128-32z"/><path d="m416 704v192z"/><path d="m416 896v224-80-112z"/><path d="m416-160v96z"/><path d="m416 384v224-96z"/><path d="m416 160v224-96z"/><path d="m416-64v224-96z"/><path d="m736 672h128-64-96z"/><path d="m704 672h32z"/><path d="m480 672h160 64z"/><path d="m864 96v-32z"/><path d="m864 448v224-160z"/><path d="m864 224v224-160z"/><path d="m864-64v-32-64 160z"/><path d="m864-64v-32z"/><path d="m864-96v-64z"/><path d="m1216 192h64-96z"/><path d="m1216 192h64z"/><path d="m1184-160h-224z"/><path d="m1184-192h-32-96-32-42.6666l-21.3334 32h224z"/><path d="m1216-160-21.3333-32h-10.6667v32z"/><path d="m1056-224h96v32h-96-32v-32z"/><path d="m1024-192h32 96 32 10.6667-213.3333z"/><path d="m1194.6667-192-42.6667-64z"/><path d="m1152-256 42.6667 64 21.3333 32z"/><path d="m1024-224v32z"/><path d="m1024-192h32z"/><path d="m1152-192h-32-64z"/><path d="m1152-256h-128z"/><path d="m981.3334-192 42.6666-64-64 96z"/><path d="m960 64v32z"/><path d="m960-96v32z"/><path d="m960-32v96 32 96-128z"/><path d="m1280-32v224-128z"/><path d="m1280-160v128z"/><path d="m896 64h32 32v-96-32h-32-32-32v64 64z"/><path d="m928-64h-32z"/><path d="m960-64h-32z"/><path d="m896-64h-32z"/><path d="m896 64h32z"/><path d="m928 64h32z"/><path d="m864 64h32z"/><path d="m1184 192h-224l21.3334 32h202.6666z"/><path d="m1194.6666 224 21.3334-32h-32v32z"/><path d="m1194.6666 224h-10.6666-202.6666z"/><path d="m1024 288h128z"/><path d="m981.3334 224 42.6666 64z"/><path d="m1194.6666 224-42.6666 64 32-48 32-48z"/><path d="m981.3334 224-21.3334-32 64 96z"/><path d="m448-160h-32z"/><path d="m864-160h-160 96z"/><path d="m640-256h-128z"/><path d="m704-160-32-48-32-48z"/><path d="m512-256-64 96z"/><path d="m576 576v32h192v-32z"/><path d="m704 320h-224v32h32 192z"/><path d="m736 352h32v-32h-64v32z"/><path d="m480 352v160h32v-160z"/><path d="m576 608v-32l-64-64h-32z"/><path d="m800 384v-64h-32v32 192h32z"/><path d="m768 544v32 32h32v-64z"/><path d="m768 320h32-96z"/><path d="m480 352v-32 192z"/><path d="m800 384v160 64-96z"/><path d="m736 352h-32-192 64 48z"/><path d="m480 512 96 96z"/><path d="m512 352v160-16-32-16-32z"/><path d="m512 512 64 64z"/><path d="m416 608 64 64z"/><path d="m1024 864v-160 192z"/><path d="m1056 885.3333-32-21.3333v32 192h32z"/><path d="m1024 1088v32l32-21.3333v-10.6667z"/><path d="m1120 1056v-128z"/><path d="m1056 1098.6667 64-42.6667z"/><path d="m1056 885.3333 64 42.6667z"/><path d="m960 704h-64-32-128 160z"/><path d="m640 704h-224 96z"/><path d="m672 704h-32z"/><path d="m864 704v-32h-128v32z"/><path d="m736 672v32z"/><path d="m896 800v64z"/><path d="m736 1040h-224 128z"/><path d="m512 768v48z"/><path d="m544 800v-32h-32v48 192h32z"/><path d="m672 800v-32h-128v32z"/><path d="m736 1008h-192-32v32h224z"/><path d="m864 1040v-32h-96-32v32z"/><path d="m896 864h-32v144 32h32z"/><path d="m864 800h32-160z"/><path d="m672 768v-64z"/><path d="m544 768h128-160z"/><path d="m864 864v48 32 16 48z"/><path d="m864 1008h-96z"/><path d="m736 704v96z"/><path d="m896 864h-32z"/><path d="m864 864h-128z"/><path d="m864 800h32z"/><path d="m672 768v32-96z"/><path d="m736 864-64-64z"/><path d="m640 1120h-224z"/><path d="m864 1120h-224z"/><path d="m416 704v192z"/><path d="m416-160v96z"/><path d="m704 672h-128-96z"/><path d="m864 448v64 96 64z"/><path d="m864 224v64 160z"/><path d="m864 0v64 160-128-32z"/><path d="m1184 192h-224z"/><path d="m1280-160h-64-32z"/><path d="m1152-256h-128z"/><path d="m1194.6667-192-42.6667-64h-128l-42.6666 64z"/><path d="m1024-256-42.6666 64z"/><path d="m960-160v64 32 32z"/><path d="m1280-32v96 128z"/><path d="m1184-160h-224v128 96h224z"/><path d="m960 64v128h224v-128z"/><path d="m1280 64v-96-128h-96v224z"/><path d="m1280 192v-128h-96v128z"/><path d="m1194.6666 224h-213.3332l42.6666 64h128z"/><path d="m1152 288 42.6666-64z"/><path d="m448-160h-32z"/><path d="m640-256h-128l-64 96h192 32v-48z"/><path d="m672-160h32l-32-48z"/><path d="m672-208 32 48-64-96z"/><path d="m512-256-64 96z"/><path d="m480 512v160h96v-64z"/><path d="m480 320v-32h-64v96 128h64z"/><path d="m416 512v96l64 64v-160z"/><path d="m800 608h-224v64h128 96z"/><path d="m864 672v-64h-64v64z"/><path d="m704 288h-64-160v32h224z"/><path d="m800 320v-32h-96v32z"/><path d="m864 0v-160h-64v224h64z"/><path d="m800 64v224h64v-64-160z"/><path d="m800 288v32 64 128h64v-64-160z"/><path d="m800 512v96h64v-96z"/><path d="m640-160h-192-32v96 128h224z"/><path d="m416 64v96 128h64 160v-224z"/><path d="m800 64v-224h-96-32-32v224z"/><path d="m704 288h96v-224h-160v224z"/><path d="m512 448v16z"/><path d="m768 576v-224 48 16 32 16 32 16z"/><path d="m576 352h-64 48z"/><path d="m688 576h16z"/><path d="m624 576h16z"/><path d="m704 320h-224z"/><path d="m800 320v64z"/><path d="m800 608h-32-192z"/><path d="m768 576v-32-192z"/><path d="m768 352h-32z"/><path d="m704 576h-16-48-16-48 192z"/><path d="m416 608 64 64z"/><path d="m1024 896v32 192-32z"/><path d="m1056 885.3333v202.6667 10.6667z"/><path d="m1056 885.3333v213.3334l64-42.6667v-128z"/><path d="m1024 704h-64z"/><path d="m672 704h-32z"/><path d="m896 928v-128 64 176z"/><path d="m1024 896v-192h-64-64v96 128h128z"/><path d="m896 928v112 80h128v-192z"/><path d="m864 1040h32-32-128z"/><path d="m512 816v112 112-32z"/><path d="m672 768v-64h-32-128v64z"/><path d="m896 800v-96h-160v96z"/><path d="m864 960v-16z"/><path d="m864 912v-48 32z"/><path d="m672 800h-96 16 32 16z"/><path d="m768 1008h96-48-16-32-16-32-16z"/><path d="m656 1008h-16-32-16-16z"/><path d="m576 800h96-128z"/><path d="m736 704v96z"/><path d="m544 960v-160 208z"/><path d="m752 864h112-128z"/><path d="m736 864-64-64z"/><path d="m768 1008h-64-48-80-32 192z"/><path d="m512 816v-48-64h-96v192 32h96z"/><path d="m416 928v112h96v-112z"/><path d="m640 1040h-128-96v80h224z"/><path d="m864 1040h-128-96v80h224z"/><path d="m896 1120v-80h-32v80z"/></g><g id="c"><path d="m512 512v-16z"/><path d="m512 464v32z"/><path d="m512 416v32z"/><path d="m512 400v-48 64z"/><path d="m768 352v48z"/><path d="m551.5 551.5 24.5 24.5z"/><path d="m551.5 551.5-15-15-24.5-24.5 64 64z"/><path d="m704 384h32z"/><path d="m640 384h48z"/><path d="m640 352h48 16 64-32-112z"/><path d="m624 352h-48z"/><path d="m704 352h-16v32h16z"/><path d="m640 352h-16v32h16z"/><path d="m576 352h-16v32h16z"/><path d="m704 576h64z"/><path d="m640 576h48z"/><path d="m624 576h-48z"/><path d="m736 416v32z"/><path d="m736 496v-32z"/><path d="m736 512v32z"/><path d="m736 400v16h32v-16z"/><path d="m736 448v16h32v-16z"/><path d="m736 496v16h32v-16z"/><path d="m583.5 519.5.5-.5-15-15-.5.5-32 32 15 15z"/><path d="m577 496-8 8 15 15 23-23z"/><path d="m560 496 8.5 8.5.5-.5 8-8z"/><path d="m640 544h-16v32h16z"/><path d="m704 544h-16v32h16z"/><path d="m624 544h16 48 16 32v-32-16h-129l-23 23-.5.5 24.5 24.5z"/><path d="m512 448v16h32v-16z"/><path d="m512 400v16h32v-16z"/><path d="m577 496h30 129v-32-16-32-16-16h-32-16-48-16-48-16-16v16 16 32 16 16l16 16z"/><path d="m688 544h-48z"/><path d="m544 400v-16z"/><path d="m544 448v-32z"/><path d="m560 496-16-16 16 16 8.5 8.5z"/><path d="m624 544h-16z"/><path d="m536.5 536.5 32-32z"/><path d="m544 912v32z"/><path d="m544 864v32z"/><path d="m544 944v-32-16-32-16-48 160z"/><path d="m544 800v48z"/><path d="m864 944v-32z"/><path d="m864 896v-32z"/><path d="m672 800h-32z"/><path d="m624 800h-32z"/><path d="m704 896h48z"/><path d="m768 896h32z"/><path d="m816 896h16z"/><path d="m752 864v32h16v-32z"/><path d="m800 864v32h16v-32z"/><path d="m800 864h-32z"/><path d="m768 864h32 16 48-112z"/><path d="m696.5002 824.5002 14.9998 14.9998 24.5 24.5-64-64z"/><path d="m696.5002 824.5002-24.5002-24.5002 24.5 24.5z"/><path d="m736 864h16z"/><path d="m679.5 871.5 32-32-14.9998-14.9998-32.0002 31.9998-.5.5 7 7 8 8z"/><path d="m640 832v32h17l7-7 .5-.5z"/><path d="m671 864-7-7-7 7z"/><path d="m679 872-24 24h49l-24.5-24.5z"/><path d="m657 864h-17v32h15l24-24-8-8z"/><path d="m679.5 871.5 24.5 24.5z"/><path d="m664.5 856.5 32.0002-31.9998-.0002-.0002z"/><path d="m800 912h32v-16h-16-16-32-16-48-49-15v16z"/><path d="m832 896v16h32v-16z"/><path d="m592 832h32z"/><path d="m624 800v32z"/><path d="m624 800v32h16v-32z"/><path d="m576 800v32h16v-32z"/><path d="m576 848v-16z"/><path d="m640 896v-32-32h-16-32-16v16 16 32 16h64z"/><path d="m544 848v16h32v-16z"/><path d="m544 896v16h32v-16z"/><path d="m704 976h-48z"/><path d="m752 976h-32z"/><path d="m640 976h-32z"/><path d="m592 976h-16z"/><path d="m832 960v16z"/><path d="m832 912v32z"/><path d="m832 944v16h32v-16z"/><path d="m576 944v-32z"/><path d="m800 912h-160-64v32 16 16h16 16 32 16 48 16 32 16 32z"/><path d="m816 976h16v-16-16-32h-32v64z"/><path d="m544 944v16h32v-16z"/><path d="m864 1008h-48z"/><path d="m768 1008h32z"/><path d="m720 1008h32z"/><path d="m656 1008h48z"/><path d="m608 1008h32z"/><path d="m576 1008h16z"/><path d="m576 1008h-32z"/><path d="m800 976v32h16v-32z"/><path d="m752 976v32h16v-32z"/><path d="m704 976v32h16v-32z"/><path d="m640 976v32h16v-32z"/><path d="m592 976v32h16v-32z"/><path d="m512 352v48z"/><path d="m768 464v32z"/><path d="m768 512v-16-32-16-32-16-48 224z"/><path d="m768 416v32z"/><path d="m768 512v64z"/><path d="m512 512 24.5 24.5z"/><path d="m576 384h48z"/><path d="m544 384h16z"/><path d="m768 352h-64-16 48z"/><path d="m704 352h64z"/><path d="m640 352h48z"/><path d="m512 352h48z"/><path d="m640 352v32z"/><path d="m704 352v32z"/><path d="m704 384h-16v-32h16z"/><path d="m688 384v-32z"/><path d="m576 352v32z"/><path d="m640 384h-16v-32h16z"/><path d="m624 384v-32z"/><path d="m576 384h-16v-32h16z"/><path d="m560 384v-32z"/><path d="m640 576h48 16 64-144z"/><path d="m736 384v16z"/><path d="m768 464h-32z"/><path d="m768 416h-32z"/><path d="m736 416v-16h32v16z"/><path d="m736 400h32z"/><path d="m736 464v-16h32v16z"/><path d="m736 448h32z"/><path d="m768 512h-32z"/><path d="m736 512v-16h32v16z"/><path d="m736 496h32z"/><path d="m607 496-23 23-15-15 8-8z"/><path d="m577 496-8 8-.5.5-8.5-8.5z"/><path d="m536.5 536.5 32-32 .5-.5 15 15-.5.5-32 32z"/><path d="m640 576h-16v-32h16z"/><path d="m704 576h-16v-32h16z"/><path d="m736 496v16 32h-32-16-48-16-16l-24.5-24.5.5-.5 23-23z"/><path d="m512 464v-16h32v16z"/><path d="m512 416v-16h32v16z"/><path d="m560 384h16 48 16 48 16 32v16 16 32 16 32h-129-30-17l-16-16v-16-16-32-16-16z"/><path d="m624 576v-32z"/><path d="m688 576v-32z"/><path d="m704 544v32z"/><path d="m736 544h-32z"/><path d="m640 544v32z"/><path d="m544 464h-32z"/><path d="m544 416h-32z"/><path d="m512 400h32z"/><path d="m512 448h32z"/><path d="m608 544-24.5-24.5z"/><path d="m544 480v-16z"/><path d="m583.5 519.5-32 32z"/><path d="m864 1008v-48z"/><path d="m864 944v-32-16-32 96z"/><path d="m864 912h-32z"/><path d="m576 912h-32z"/><path d="m672 800h-32-16-32-16z"/><path d="m576 800h-32z"/><path d="m640 800v32z"/><path d="m832 896h32z"/><path d="m752 896v-32z"/><path d="m752 896v-32h16v32z"/><path d="m800 896v-32h16v32z"/><path d="m816 864v32z"/><path d="m864 864h-48z"/><path d="m800 896v-32z"/><path d="m768 864v32z"/><path d="m736 864-24.5-24.5z"/><path d="m671 864-7-7 .5-.5 32-32 15 15-32 32-.5.5z"/><path d="m640 864v-32l24.5 24.5-.5.5-7 7z"/><path d="m657 864 7-7 7 7z"/><path d="m704 896h-49l24-24 .5-.5z"/><path d="m640 864h17 14l8 8-24 24h-15z"/><path d="m640 832 24.5 24.5z"/><path d="m711.5 839.5-32 32z"/><path d="m655 896h49 48 16 32 16 16v16h-32-160v-16z"/><path d="m832 912v-16h32v16z"/><path d="m592 800v32z"/><path d="m624 832v-32h16v32z"/><path d="m576 832v-32h16v32z"/><path d="m576 832v-32z"/><path d="m576 896v-32z"/><path d="m640 864v32 16h-64v-16-32-16-16h16 32 16z"/><path d="m576 864h-32z"/><path d="m544 864v-16h32v16z"/><path d="m544 848h32z"/><path d="m544 912v-16h32v16z"/><path d="m544 896h32z"/><path d="m832 976h-16z"/><path d="m800 976h-32z"/><path d="m832 944h32z"/><path d="m832 960v-16h32v16z"/><path d="m864 960h-32z"/><path d="m576 976v-16z"/><path d="m800 976h-32-16-32-16-48-16-32-16-16v-16-16-32h64 160z"/><path d="m832 912v32 16 16h-16-16v-64z"/><path d="m544 960v-16h32v16z"/><path d="m544 944h32z"/><path d="m576 960h-32z"/><path d="m816 1008h48-64z"/><path d="m704 1008v-32z"/><path d="m800 1008v-32z"/><path d="m800 1008v-32h16v32z"/><path d="m816 976v32z"/><path d="m752 1008v-32z"/><path d="m752 1008v-32h16v32z"/><path d="m768 976v32z"/><path d="m704 1008v-32h16v32z"/><path d="m720 976v32z"/><path d="m608 976v32z"/><path d="m656 976v32z"/><path d="m640 1008v-32h16v32z"/><path d="m640 1008v-32z"/><path d="m592 1008v-32h16v32z"/><path d="m592 1008v-32z"/><path d="m512 352v48 16 32 16 32z"/><path d="m768 576v-224 192z"/><path d="m512 512 24.5 24.5 15 15 24.5 24.5z"/><path d="m736 352h-48-48-128 192z"/><path d="m640 352h-16-48-16-48z"/><path d="m624 576h144-32-160z"/><path d="m544 1008v-48z"/><path d="m544 800v48 16 32 16 32 16z"/><path d="m864 960v-96 48 80 16z"/><path d="m864 864h-48-16-32-16z"/><path d="m736 864-24.5-24.5-15-15-24.5-24.5z"/><path d="m752 864h-16z"/><path d="m800 1008h-32-192 16 16 32 16 48 16 32 16z"/><path d="m800 1008h64-96z"/></g><g id="d"><path d="m512 512 64 64h-64z"/><path d="m480 352h32v160 64h-32z"/><path d="m512 576v32h-32v-32z"/><path d="m704 352h-192-32v-32h224z"/><path d="m768 320v32h-32-32v-32z"/><path d="m736 608h-224v-32h64 160z"/><path d="m768 576h32v32h-64v-32z"/><path d="m768 352v-32h32v224h-32z"/><path d="m800 544v32h-32v-32z"/><path d="m512 352v144 16z"/><path d="m512 512 64 64z"/><path d="m768 352h-32z"/><path d="m768 800h-96-32-96v-32h224z"/><path d="m864 768v32h-96v-32z"/><path d="m864 912v-48-64-32h32v224h-32z"/><path d="m896 992v48h-32v-32-16z"/><path d="m768 800h96v64h-112-16l-64-64z"/><path d="m768 1040h-224v-32h224z"/><path d="m864 1008v32h-96v-32z"/><path d="m512 768h32v32 112 80h-32z"/><path d="m544 992v16 32h-32v-48z"/><path d="m544 992v-80-112 160 48z"/><path d="m640 800h32-96-32z"/><path d="m864 864h-112z"/><path d="m736 864-64-64z"/><path d="m768 1008h-224 32z"/></g></defs><g stroke="#000"><use fill="none" stroke-miterlimit="0" stroke-width="10" xlink:href="#a"/><use fill="#c4c4c4" xlink:href="#a"/><use fill="none" stroke-miterlimit="0" stroke-width="10" xlink:href="#b"/><use fill="#d9d9d9" xlink:href="#b"/><use fill="none" stroke-miterlimit="0" stroke-width="10" xlink:href="#c"/><use fill="#ebebeb" xlink:href="#c"/><use fill="none" stroke-miterlimit="0" stroke-width="10" xlink:href="#d"/><use fill="#fff" xlink:href="#d"/></g></svg>