<svg viewBox="-691 -1587 1382 3174" xmlns="http://www.w3.org/2000/svg" xmlns:xlink="http://www.w3.org/1999/xlink"><defs><g id="a"><path d="m336-624v-16h160v16 208h-160z"/><path d="m496-416v16 64 32 112h-160v-64-32-16-32-64-16z"/><path d="m496-192v112 112h-160v-64-160z"/><path d="m496 32v112 112h-160v-64-160z"/><path d="m496 256v48 32h-160v-32-16-32z"/><path d="m552-576v48h-40v-48z"/><path d="m496-416v-208h16v48 48 128h-16z"/><path d="m512-400v64h-16v-64z"/><path d="m320-560v-64h16v208 16h-16z"/><path d="m336-400v64h-16v-64z"/><path d="m496-192v-112h16v64 48 112h-16z"/><path d="m512-80v40 184h-16v-112-112z"/><path d="m512 144v40 48 72h-16v-48-112z"/><path d="m288-272v-32-16h16v16 16 32 160h-16z"/><path d="m304-96v64 160h-16v-176-48z"/><path d="m304 128v64 64 32 16 16h-16v-16-32-96-48z"/><path d="m304-288v-16h32v16z"/><path d="m512-192v-48h40v48z"/><path d="m304-96v-160h32v64 160h-32z"/><path d="m336-32v64 160h-32v-64-160z"/><path d="m336 192v64h-32v-64z"/><path d="m224-304h-224v-16h144 80z"/><path d="m288-320v16h-64v-16z"/><path d="m0-64v-192-16h48v224h-48z"/><path d="m48-48v224h-48v-16-208z"/><path d="m48 176v80h-32-16v-80z"/><path d="m48-272h16v224h-16z"/><path d="m64-48v224h-16v-224z"/><path d="m64 176v96 32 16h-16v-32-32-80z"/><path d="m64-272h160 64v176 48h-224z"/><path d="m288-48v176 48h-224v-224z"/><path d="m288 176v96h-224v-96z"/><path d="m-496-624v-16h160v16 208h-160z"/><path d="m-336-416v16 64 32 16 32 64h-160v-112-32-64-16z"/><path d="m-336-192v160 64h-160v-112-112z"/><path d="m-336 32v160 64h-160v-112-112z"/><path d="m-336 256v32 16 32 144h-160v-144-32-48z"/><path d="m-336 480v80 64 16h-160v-16-64-80z"/><path d="m-336-416v-208h16v64 160h-16z"/><path d="m-320-400v64h-16v-64z"/><path d="m-512-528v-48-48h16v208 16h-16z"/><path d="m-496-400v64h-16v-64z"/><path d="m-512-576v48h-40v-48z"/><path d="m-16-288v-32h16v16 32 16h-16z"/><path d="m-48-320h32v32h-32z"/><path d="m-64-304v-16h16v32 16h-16z"/><path d="m-288-304v-16h208 16v16z"/><path d="m-16-256h16v192h-48v-192z"/><path d="m-64-272h16v16 192h-16-224v-32-176z"/><path d="m-304-304v16h-32v-16z"/><path d="m-304-256v-32-16-16h16v16 32 176h-16z"/><path d="m-288-96v32 192h-16v-160-64z"/><path d="m-288 128v32 112 32 16h-16v-16-16-32-64-64z"/><path d="m-512-192v-48-64h16v112 112h-16z"/><path d="m-496-80v112 112h-16v-184-40z"/><path d="m-496 144v112 48h-16v-72-48-40z"/><path d="m-336-192v-64h32v160 64h-32z"/><path d="m-304-32v160 64h-32v-160-64z"/><path d="m-304 192v64h-32v-64z"/><path d="m-552-192v-48h40v48z"/><path d="m552 184v48h-40v-48z"/><path d="m304 304v-16h32v16z"/><path d="m288 320h-144-80v-16h224z"/><path d="m48 320h-32v-32h32z"/><path d="m16 288v32h-16v-16-32-16h16z"/><path d="m512 560v-32h40v48h-40z"/><path d="m320 400v-64h16 160 16v192 32h-192z"/><path d="m512 560v16 48h-16-160-16v-64z"/><path d="m496 640h-160v-16h160z"/><path d="m-288 160v-32-192h224v224z"/><path d="m-64 272h-224v-112h224z"/><path d="m-48-64h48v16 208h-64v-224z"/><path d="m0 160v16 80 16h-64v-112z"/><path d="m-64 320h-16-208v-16h224z"/><path d="m0 304v16h-64v-16z"/><path d="m-304 288v16h-32v-16z"/><path d="m-512 184v48h-40v-48z"/><path d="m-512 528v-192h16v144 80h-16z"/><path d="m-496 560v64h-16v-48-16z"/><path d="m-336 480v-144h16v64 160h-16z"/><path d="m-320 560v64h-16v-64z"/><path d="m-552 528h40v32 16h-40z"/><path d="m512-240h40z"/><path d="m320-336h16z"/><path d="m512-624h-16z"/><path d="m320-624h16z"/><path d="m336-640v16z"/><path d="m336-640h160z"/><path d="m512-400v-128 192z"/><path d="m512-576h40z"/><path d="m552-528v-48z"/><path d="m320-560v160 64z"/><path d="m512-304h-16z"/><path d="m512-304v64z"/><path d="m336-288h-32z"/><path d="m552-192v-48z"/><path d="m512-80v-112 152z"/><path d="m-304-320v16z"/><path d="m288-304h-64z"/><path d="m-80-320h-208-16 16z"/><path d="m144-320h-144-16-32-16-16 16 16 32 16z"/><path d="m224-272h-160-16-48 48 16z"/><path d="m-48-272v-16 16 16z"/><path d="m-552-240h40z"/><path d="m-512-336h16z"/><path d="m-336-624h16z"/><path d="m-496-640v16z"/><path d="m-496-640h160z"/><path d="m-512-624v48z"/><path d="m-320-624v64z"/><path d="m-552-576v48z"/><path d="m-336-256h32z"/><path d="m-336-304h32z"/><path d="m-552-240v48z"/><path d="m-512-40v184 40z"/><path d="m304 320v-16z"/><path d="m512 336h-16z"/><path d="m552 232v-48z"/><path d="m512 304v-72z"/><path d="m336 256h-32z"/><path d="m336 304h-32z"/><path d="m496 624h-160z"/><path d="m512 624v-48z"/><path d="m552 576h-40z"/><path d="m512 528h40z"/><path d="m552 528v48z"/><path d="m320 400v160 64z"/><path d="m496 640h-160z"/><path d="m-64 304h-224z"/><path d="m0 272h-64z"/><path d="m288 320h16-16-128-16z"/><path d="m-320 336h-16z"/><path d="m-336 288h32z"/><path d="m-552 184v48z"/><path d="m-512 304h16z"/><path d="m-512 624h16z"/><path d="m-512 336v192z"/><path d="m-320 336v64z"/><path d="m-552 528h40z"/><path d="m-336 640v-16z"/><path d="m-336 640h-160z"/><path d="m32-32h-64v64h64z"/><path d="m-552 528h40v48h-40z"/><path d="m-512 528h-40v48h40z"/><path d="m-496 336h-16v192 48 48h16z"/><path d="m-512 576v-48-192h16v288h-16z"/><path d="m-336 336h16v64 224h-16z"/><path d="m-320 400v-64h-16v288h16z"/><path d="m-552 232v-48h40v48z"/><path d="m-552 184v48h40v-48z"/><path d="m-304 304v-16h-32v16z"/><path d="m-304 288v16h-32v-16z"/><path d="m-80 320h16 64v-16h-64-224v16z"/><path d="m-64 304h64v16h-64-16-208v-16z"/><path d="m-48-64h48v320 16h-64-224v-336z"/><path d="m-64 272h64v-16-320h-48-240v336z"/><path d="m320 400v-64h16 160 16v192 48 48h-16-160-16z"/><path d="m512 576v-48-192h-16-160-16v64 224h16 160 16z"/><path d="m552 528h-40v48h40z"/><path d="m512 528h40v48h-40z"/><path d="m48 288h-32v32h32z"/><path d="m48 320h-32v-32h32z"/><path d="m16 288v32h-16v-16-32-16h16z"/><path d="m0 256v16 32 16h16v-32-32z"/><path d="m288 320h-128-16-80v-16h224z"/><path d="m288 304h-224v16h80 16 128z"/><path d="m304 304v-16h32v16z"/><path d="m304 288v16h32v-16z"/><path d="m552 232v-48h-40v48z"/><path d="m552 184v48h-40v-48z"/><path d="m-512-192v-48h-40v48z"/><path d="m-512-240v48h-40v-48z"/><path d="m-304-256h-32v512h32z"/><path d="m-336-256h32v512h-32z"/><path d="m-304-288v-16h-32v16z"/><path d="m-304-304v16h-32v-16z"/><path d="m-512 232v-48-224-152-48-64h16v608h-16z"/><path d="m-496-304h-16v64 48 152 224 48 72h16z"/><path d="m-304 304v-16-32-512-32-16-16h16v16 32 208 336 32 16h-16z"/><path d="m-288 304v-32-336-208-32-16h-16v16 16 32 512 32 16 16h16z"/><path d="m-64-272h16v16 192h-240v-208z"/><path d="m-48-64v-192-16h-16-224v208z"/><path d="m-16-256h16v192h-48v-192z"/><path d="m0-64v-192h-16-32v192z"/><path d="m-288-304v-16h208 16v16z"/><path d="m-64-304v-16h-16-208v16z"/><path d="m-48-272v-16-32h-16v16 32z"/><path d="m-64-304v-16h16v32 16h-16z"/><path d="m-48-288h32v-32h-32z"/><path d="m-48-320h32v32h-32z"/><path d="m-16-288v-32h16v16 32 16h-16z"/><path d="m0-272v-32-16h-16v32 32h16z"/><path d="m-552-528v-48h40v48z"/><path d="m-552-576v48h40v-48z"/><path d="m-336-624h16v64 224h-16z"/><path d="m-320-560v-64h-16v288h16z"/><path d="m-512-528v-48-48h16v288h-16z"/><path d="m-496-624h-16v48 48 192h16z"/><path d="m-336 624v-288-32-16-32-512-32-16-16-16-288-16h-160v16 288 32 608 32 288 16h160z"/><path d="m-496 624v-288-32-608-32-288-16h160v16 288 16 16 16 32 512 32 16 32 288 16h-160z"/><path d="m288-272h-64-160v544h224z"/><path d="m64-272h160 64v544h-224z"/><path d="m64 304v-32-544h-16v528 32 32h16z"/><path d="m48 288v-32-528h16v544 32 16h-16z"/><path d="m0-64v-192-16h48v528h-32-16z"/><path d="m48-272h-48v16 192 320h16 32z"/><path d="m224-304h-224v-16h144 80 64v16z"/><path d="m224-320h-80-144v16h224 64v-16z"/><path d="m304-256h32v512h-32z"/><path d="m336-256h-32v512h32z"/><path d="m512-192v-48h40v48z"/><path d="m512-240v48h40v-48z"/><path d="m304 304v-16-32-512-32-16-16h-16v16 32 544 32 16h16z"/><path d="m288 304v-32-544-32-16h16v16 16 32 512 32 16 16h-16z"/><path d="m496-304h16v64 48 152 224 48 72h-16z"/><path d="m512 232v-48-224-152-48-64h-16v608h16z"/><path d="m304-288v-16h32v16z"/><path d="m304-304v16h32v-16z"/><path d="m512-528v-48-48h-16v288h16z"/><path d="m496-624h16v48 48 192h-16z"/><path d="m320-560v-64h16v288h-16z"/><path d="m336-624h-16v64 224h16z"/><path d="m552-576v48h-40v-48z"/><path d="m552-528v-48h-40v48z"/><path d="m496 304v-608-32-288-16h-160v16 288 32 16 32 512 32 16 32h160z"/><path d="m336 304v-16-32-512-32-16-32-288-16h160v16 288 32 608 32h-160z"/><path d="m-512-40v224-176z"/><path d="m-320 336h-16z"/><path d="m512-192v152z"/><path d="m512-304v64z"/><path d="m512-528v128 64z"/><path d="m512-240h12 8 20z"/><path d="m512-576h12 8 20z"/><path d="m-496-640v16z"/><path d="m512-624h-16z"/><path d="m320-560v224-64z"/><path d="m-320-624v64z"/><path d="m288 320h16-144z"/><path d="m224-272h-160-16-48z"/><path d="m288-304h-64z"/><path d="m-48-272v-16 32z"/><path d="m0 272h-64z"/><path d="m-64 304h-224z"/><path d="m552 528v48z"/><path d="m320 400v224-64z"/><path d="m552 576h-20-8-12z"/><path d="m512 528h12 8 20z"/><path d="m496 640h-160z"/><path d="m-336 640v-16z"/><path d="m-320 336v64z"/><path d="m-336 640h-160z"/><path d="m-552-240h20 8 12z"/><path d="m-552 528h20 8 12z"/><path d="m552 184h-40z"/><path d="m-512 184h-40z"/><path d="m304-256v-32z"/><path d="m304-304v-16z"/><path d="m496-336h16z"/><path d="m496-624v-16z"/><path d="m512-576v-48z"/><path d="m512-528h40z"/><path d="m320-624v64z"/><path d="m336-288v32z"/><path d="m336-336v32z"/><path d="m496-304v-32z"/><path d="m336-304h-32z"/><path d="m336-256h-32z"/><path d="m512-192h40z"/><path d="m512-40v224-40z"/><path d="m-304-288v32z"/><path d="m-16-256h-32z"/><path d="m224-304h-224z"/><path d="m-288-304h224z"/><path d="m224-320h64 16-16-64-80z"/><path d="m0-272v-32z"/><path d="m288-304v32z"/><path d="m288-272h-64z"/><path d="m-64-304v32z"/><path d="m-16-288v32z"/><path d="m-48-288h32z"/><path d="m-288-272v-32z"/><path d="m-64-272h-224z"/><path d="m-336-336h16z"/><path d="m-496-624h-16z"/><path d="m-336-624v-16z"/><path d="m-512-528v128 64z"/><path d="m-320-560v224-64z"/><path d="m-512-576h-40z"/><path d="m-552-528h40z"/><path d="m-336-320v16-32z"/><path d="m-336-256v-32z"/><path d="m-336-288h32z"/><path d="m-496-336v32z"/><path d="m-496-304h-16z"/><path d="m-512-304v64z"/><path d="m-552-192h40z"/><path d="m-512-192v112 40z"/><path d="m304 288v-32z"/><path d="m336 336h-16z"/><path d="m496 336v-32z"/><path d="m512 232h40z"/><path d="m496 304h16z"/><path d="m336 304v32z"/><path d="m336 256v32z"/><path d="m336 288h-32z"/><path d="m320 624h16z"/><path d="m496 624h-160z"/><path d="m496 624h16z"/><path d="m512 528v-192z"/><path d="m320 336v64z"/><path d="m336 624v16z"/><path d="m496 640v-16z"/><path d="m-304 304v16z"/><path d="m-304 256v32z"/><path d="m16 256h32z"/><path d="m288 304h-224z"/><path d="m0 304h-64z"/><path d="m0 272v32z"/><path d="m64 304v-32z"/><path d="m288 272v32z"/><path d="m64 272h224z"/><path d="m48 256v32z"/><path d="m16 288v-32z"/><path d="m48 288h-32z"/><path d="m-288 304v-32z"/><path d="m-64 272h-224z"/><path d="m-80 320h-208-16 16z"/><path d="m144 320h-80-16-32-16-64-16 16 64 16 32 16z"/><path d="m-496 336h-16z"/><path d="m-496 304v32z"/><path d="m-336 336v-32z"/><path d="m-336 288v-32z"/><path d="m-336 256h32z"/><path d="m-336 304h32z"/><path d="m-552 232h40z"/><path d="m-512 232v72z"/><path d="m-336 624h16z"/><path d="m-512 576v48z"/><path d="m-320 400v224-64z"/><path d="m-552 576h40z"/><path d="m-552 528v48z"/><path d="m-496 624v16z"/><path d="m32 32h-64v-64h64z"/><path d="m32-32v64z"/><path d="m32 32h-64z"/><path d="m-32 32v-64z"/><path d="m-32-32h64z"/><path d="m0 272v32z"/><path d="m0-272v-32z"/><path d="m288-272h-64z"/><path d="m288-304v32z"/><path d="m224-272h-224v-32h224z"/><path d="m288-304v32h-64v-32z"/><path d="m224-304h-224z"/><path d="m288 304h-224z"/><path d="m64 304v-32z"/><path d="m288 272v32z"/><path d="m64 272h224z"/><path d="m288 304h-224v-32h224z"/><path d="m-64-304h-224z"/><path d="m-64-272v-32z"/><path d="m-288-272v-32z"/><path d="m-64-272h-224z"/><path d="m-64-272h-224v-32h224z"/><path d="m-64 272h-224z"/><path d="m-288 304v-32z"/><path d="m-64 304h-224v-32h224z"/><path d="m0 272v32h-64v-32z"/><path d="m0 304h-64z"/><path d="m304-256v-32z"/><path d="m304 288v-32z"/><path d="m336 256v32z"/><path d="m336-288v32z"/><path d="m336-256h-32z"/><path d="m304-288h32z"/><path d="m336-256h-32v-32h32z"/><path d="m304 256h32z"/><path d="m336 288h-32z"/><path d="m336 288h-32v-32h32z"/><path d="m-288-320h192 32-16z"/><path d="m-64-320h64-16-32z"/><path d="m0-320h32 96 96-80z"/><path d="m-304 256v32z"/><path d="m-304-288v32z"/><path d="m-48-288h32v32h-32z"/><path d="m48 288h-32v-32h32z"/><path d="m16 256h32z"/><path d="m16 288h32z"/><path d="m48 288v-32z"/><path d="m16 256v32z"/><path d="m-16-256h-32z"/><path d="m-16-288h-32z"/><path d="m-16-288v32z"/><path d="m-336-256v-32z"/><path d="m-336 288v-32z"/><path d="m-336 256h32z"/><path d="m-304-256h-32z"/><path d="m-336-288h32z"/><path d="m-304-256h-32v-32h32z"/><path d="m-304 288h-32z"/><path d="m-304 288h-32v-32h32z"/><path d="m-512-576v-48z"/><path d="m-512 528v-192z"/><path d="m496 336h16z"/><path d="m512 232v72z"/><path d="m512-576h12z"/><path d="m552-528h-20z"/><path d="m532-528h-8-12 40z"/><path d="m552-576v48z"/><path d="m532-576h-8v48h8z"/><path d="m524-576v8 32 8z"/><path d="m532-192h20z"/><path d="m532-192h-8-12 40z"/><path d="m552-240v48z"/><path d="m532-240h-8v48h8z"/><path d="m524-240v8 32 8z"/><path d="m524 184h-12z"/><path d="m524 184h8 20-40z"/><path d="m532 232h-8-12 40z"/><path d="m552 232h-20z"/><path d="m552 184v48z"/><path d="m532 184h-8v48h8z"/><path d="m524 184v8 32 8z"/><path d="m-496-624v64z"/><path d="m-496-304v160z"/><path d="m-496-304v-16-16z"/><path d="m-496 304v32z"/><path d="m336 304v32z"/><path d="m336-304v-32z"/><path d="m336-304v160z"/><path d="m336-624v64z"/><path d="m336-624v-16z"/><path d="m496-304h16z"/><path d="m496-336v32z"/><path d="m496-560v144 80-96z"/><path d="m496-624v-16z"/><path d="m336-640h160z"/><path d="m496-560v-64-16h-160v16 64 144h160z"/><path d="m336-416v80 32h160v-32-80z"/><path d="m496 80v64 160-160z"/><path d="m496-144v64 160-160z"/><path d="m496 336v-32z"/><path d="m336-304v160 64h160v-64-160z"/><path d="m336-80v160 64h160v-64-160z"/><path d="m336 144v160 32h160v-32-160z"/><path d="m336-336h-16z"/><path d="m336 304h-16-16z"/><path d="m-336-624v-16z"/><path d="m-336-560v144 80-96z"/><path d="m-336-624h16z"/><path d="m-496-640h160z"/><path d="m-336-560v-64-16h-160v16 64 144h160z"/><path d="m-496-416v80h160v-80z"/><path d="m-336-336v16z"/><path d="m-496-336v16h160v-16z"/><path d="m-336 80v48 176-176z"/><path d="m-336-144v48 176-176z"/><path d="m-336-320v16z"/><path d="m-336 336v-32z"/><path d="m-336-304h16 2.2708 13.7292z"/><path d="m-496-320v16 160 48h160v-48-160-16z"/><path d="m-496-96v176 48h160v-48-176z"/><path d="m-496 128v176 32h160v-32-176z"/><path d="m-496-336h-16z"/><path d="m-496 304h-16z"/><path d="m496 400v160 64-64z"/><path d="m496 624v16z"/><path d="m552 576h-20z"/><path d="m512 528h12z"/><path d="m532 528h-8v48h8z"/><path d="m524 528v8 32 8z"/><path d="m512 576v48z"/><path d="m336 336v64z"/><path d="m336 640v-16z"/><path d="m336 336v64 160h160v-160-64z"/><path d="m336 560v64 16h160v-16-64z"/><path d="m336 624h-16z"/><path d="m-336 400v160 64-64z"/><path d="m-496 336v64z"/><path d="m-496 624v16z"/><path d="m-496 336v64 160h160v-160-64z"/><path d="m-496 560v64 16h160v-16-64z"/><path d="m-496 624h-16z"/><path d="m-532 184h-20z"/><path d="m-532 184h8 12-40z"/><path d="m-512-528h-12z"/><path d="m-524-528h-8-20 40z"/><path d="m-552-576h20z"/><path d="m-532-576h8 12-40z"/><path d="m-524-576h-8v48h8z"/><path d="m-532-576v8 32 8z"/><path d="m-552-528v-8-40z"/><path d="m-524-192h-8-20 40z"/><path d="m-524-192h12z"/><path d="m-524-240h-8v48h8z"/><path d="m-552-192v-48z"/><path d="m-552 528h20z"/><path d="m-512 232h-12z"/><path d="m-524 232h-8-20 40z"/><path d="m-524 184h-8v48h8z"/><path d="m-552 232v-48z"/><path d="m-512 576h-12z"/><path d="m-524 576h-8-20 40z"/><path d="m-524 528h-8v48h8z"/><path d="m-532 528v8 32 8z"/><path d="m552-240h-20z"/><path d="m552-576h-20z"/><path d="m512-528h12z"/><path d="m544-568h-12v32h12z"/><path d="m524-568v-8h8v8z"/><path d="m524-568h-12v32h12z"/><path d="m532-528h-8v-8h8z"/><path d="m524-568h8 12-32z"/><path d="m532-536v-32-8 48z"/><path d="m512-192h12z"/><path d="m532-192h-8v-8h8z"/><path d="m524-232h-12v32h12z"/><path d="m524-232v-8h8v8z"/><path d="m544-232h-12v32h12z"/><path d="m524-232h8 12-32z"/><path d="m532-200v-32-8 48z"/><path d="m552 184h-20z"/><path d="m512 232h12z"/><path d="m532 232h-8v-8h8z"/><path d="m524 192h-12v32h12z"/><path d="m524 192v-8h8v8z"/><path d="m544 192h-12v32h12z"/><path d="m524 192h8 12-32z"/><path d="m532 224v-32-8 48z"/><path d="m512 576h12z"/><path d="m532 528h-8-12 32 8z"/><path d="m552 528h-20z"/><path d="m532 576h-8v-8h8z"/><path d="m524 536h-12v32h12z"/><path d="m544 536h-12v32h12z"/><path d="m524 536v-8h8v8z"/><path d="m532 568v-32-8 48z"/><path d="m-512 184h-12z"/><path d="m-552-528h20z"/><path d="m-512-576h-12z"/><path d="m-532-568v-8h8v8z"/><path d="m-512-568h-12v32h12z"/><path d="m-532-568h-12v32h12z"/><path d="m-524-528h-8v-8h8z"/><path d="m-532-568h8 12-32z"/><path d="m-524-536v-32-8 48z"/><path d="m-532-240h-20z"/><path d="m-524-240h12z"/><path d="m-552-192h20z"/><path d="m-532-232h-12v32h12z"/><path d="m-524-192h-8v-8h8z"/><path d="m-512-232h-12v32h12z"/><path d="m-532-232v-8h8v8z"/><path d="m-532-232h8 12-32z"/><path d="m-524-200v-32-8 48z"/><path d="m-532-232v32 8-48z"/><path d="m-512 528h-12z"/><path d="m-524 528h-8-20 40z"/><path d="m-552 232h20z"/><path d="m-532 192v-8h8v8z"/><path d="m-512 192h-12v32h12z"/><path d="m-524 232h-8v-8h8z"/><path d="m-532 192h-12v32h12z"/><path d="m-532 192h8 12-32z"/><path d="m-524 224v-32-8 48z"/><path d="m-532 192v32 8-48z"/><path d="m-552 576h20z"/><path d="m-532 536v-8h8v8z"/><path d="m-512 536h-12v32h12z"/><path d="m-524 576h-8v-8h8z"/><path d="m-532 536h-12v32h12z"/><path d="m-524 568v-32-8 48z"/><path d="m-141.3586 1427.7362 13.3586 4.1829 128 40.0809-128-40.0811-70-21.9189z"/><path d="m128 1431.9192 70-21.9192-102 31.9392-96 30.0608z"/><path d="m-382.6083-1196-73.2471 172-22.1446 52 78-183.1609z"/><path d="m-198-1410-32.6397 34-29.4604 30.6877-31.9795 33.3123-61.4399 64-12.4805 13 12.4803-13 61.4399-64 61.44-64z"/><path d="m-461.3916 1011 46.4181 109 48.9735 115-48.9732-115z"/><path d="m-366 1235 30 31.2502 43.9202 45.7498 31.9793 33.312 62.1005 64.688-94.0802-98z"/><path d="m478 972-16.6084 39z"/><path d="m198 1410 101.7599-106 66.2401-69-66.2402 69-7.6798 8z"/><path d="m366-1235 2 4.6967 14.6085 34.3033z"/><path d="m366-1235-12.4801-13-61.4398-64-61.44-64-32.6401-34 32.6404 34 29.4601 30.6881 31.9797 33.3119 61.4398 64z"/><path d="m128-1376v-55.9188l70 21.9188 32.6401 34z"/><path d="m128-1431.9188v55.9188h-8-54.0434l-57.9566-88.8668v-4.6278z"/><path d="m8-1464.8668 57.9566 88.8668h-57.9566z"/><path d="m8-1469.4946v4.6278 88.8668h-136v-55.9191l123.7927-38.7634 4.2073-1.3175z"/><path d="m-230.6397-1376 32.6397-34 56.6406-17.736-15.0265 51.736z"/><path d="m-141.3594-1427.736 13.3594-4.1831v55.9191h-28.3859z"/><path d="m128-1312v-64h102.6401l61.44 64z"/><path d="m65.9566-1376 22.0434 33.7999v30.2001h-80v-64z"/><path d="m120-1312v-64h8v64z"/><path d="m120-1376v64h-12.3043l-19.6957-30.2001-22.0434-33.7999z"/><path d="m88-1312v-30.2001l19.6957 30.2001z"/><path d="m-88-1312v-21.2l47.5917 21.2z"/><path d="m8-1376v64h-48.4083l-47.5917-21.2-40-17.8182v-24.9818z"/><path d="m-128-1351.0182 8 3.5637v35.4545h-8z"/><path d="m-88-1333.2v21.2h-32v-35.4545z"/><path d="m-292.0796-1312 31.9795-33.3123-2.8154 33.3123z"/><path d="m-260.1001-1345.3123 29.4604-30.6877h74.2538l-18.5892 64h-87.9404z"/><path d="m-128-1376v24.9818 39.0182h-46.9751l18.5892-64z"/><path d="m128-1280.8667-8-12.2667v-18.8666h8z"/><path d="m124-1287-4-1.8386v-4.2948z"/><path d="m304-1248h-110.4357-44.1295l-21.4348-32.8667v-31.1333h164.0801l61.4398 64z"/><path d="m88-1312v57.2001l-80-35.6364v-21.5637z"/><path d="m8-1290.4363 80 35.6364v6.7999h-176v-64h47.5917z"/><path d="m8-1312v21.5637l-48.4083-21.5637z"/><path d="m-128-1312v31.1333l-21.4348 32.8667h-44.1295l18.5892-64z"/><path d="m-174.9751-1312-18.5892 64h-74.7596l5.4084-64z"/><path d="m-320-1248h-33.5195l61.4399-64h29.1641l-5.4084 64z"/><path d="m-124-1287 4-6.1334v4.2948z"/><path d="m-120-1312v18.8666l-8 12.2667v-31.1333z"/><path d="m-128-1280.8667 4-6.1333-4 6.1333-21.4348 32.8667z"/><path d="m-512-568v32z"/><path d="m-512-232v32z"/><path d="m-512 192v32z"/><path d="m-512 536v32z"/><path d="m-483.9099-924.8718-1.6142 12.8718-10.4759 83.5383-3.5691 28.4617-12.4309 99.1282v-.0005l12.4308-99.1277 3.5692-28.4615 12.09-96.4103z"/><path d="m-506.09 748 26.5853 212 1.5047 12-1.5047-12z"/><path d="m-512 700.8718 4.4052 35.1282 1.5048 12-1.5048-12z"/><path d="m512 224v-32z"/><path d="m512-200v-32z"/><path d="m512-536v-32z"/><path d="m552-240h-20-8z"/><path d="m512-240h12z"/><path d="m512-700.8719 5.627 44.8719h-5.627z"/><path d="m517.627-656h-5.627z"/><path d="m544-568v32z"/><path d="m544-536h-32v-32h32z"/><path d="m544-536h-12-8-12z"/><path d="m544-232v32z"/><path d="m544-200h-32v-32h32z"/><path d="m544-200h-12-8-12z"/><path d="m544 192v32z"/><path d="m544 224h-32v-32h32z"/><path d="m544 224h-12-8-12z"/><path d="m481.5113-944-3.5113-28 5.1214 40.8394.7886 6.2888z"/><path d="m-496-560v128 96-80z"/><path d="m-496 80v48 176-176z"/><path d="m-496-144v48 176-176z"/><path d="m336-656h-17.6479z"/><path d="m366-1235 16.6085 39 11.9239 28h-74.5324-16v-80h49.5199z"/><path d="m394.5324-1168 83.4676 196 3.5113 28h-161.5113v-42.4667-181.5333z"/><path d="m481.5113-944 2.3987 19.1282 12.09 96.4101v28.4617h-160-16v-12.7001-131.2999z"/><path d="m496-800v-28.4617l16 127.5898v44.8719h-16z"/><path d="m304-902v-109l16 24.5333v42.4667 131.2999l-16-55.0857z"/><path d="m320-1168v181.5333l-16-24.5333v-157z"/><path d="m320-812.7001v12.7001h-13.8169l-2.1831-25.8334v-41.9524z"/><path d="m336-800h160v144h-160z"/><path d="m318.3521-656-12.169-144h13.8169 16v144z"/><path d="m304-825.8334 2.1831 25.8334 12.169 144-12.169-144z"/><path d="m336 80v64 160-160z"/><path d="m336-144v64 160-160z"/><path d="m336-560v128 96-80z"/><path d="m496-624v64z"/><path d="m496-624v-32z"/><path d="m496-656v32 64 128h-160v-128-64-32z"/><path d="m496-432v96 32h-160v-32-96z"/><path d="m496-304v160z"/><path d="m496-304v160 64h-160v-64-160z"/><path d="m496-80v160 64h-160v-64-160z"/><path d="m496 144v160 32h-160v-32-160z"/><path d="m233.9378-1109 60.1244 207 4.9378 17-40.3734-139z"/><path d="m304-1168h-87.1992l-23.2365-80h110.4357z"/><path d="m229-1126 75 115v109h-9.9378z"/><path d="m304-902v34.2142l-5-17.2142-4.9378-17z"/><path d="m304-1011-75-115-12.1992-42h87.1992z"/><path d="m304-825.8334-5-59.1666 5 17.2142z"/><path d="m266-901 3.1844 37z"/><path d="m149.4348-1248 52.1739 80 27.3913 42z"/><path d="m229-1126-27.3913-42h15.1921z"/><path d="m216.8008-1168h-15.1921l-52.1739-80h44.1295z"/><path d="m237.4695-994.2903-34.4695-112.7097 34.4694 112.7095 28.5306 93.2905z"/><path d="m128-1218.2903 75 111.2903z"/><path d="m-96-320h96-64z"/><path d="m224-320h64z"/><path d="m128-320h-96z"/><path d="m288-320h6.0625 9.9375z"/><path d="m96-1232v-16z"/><path d="m96-1184v64 96z"/><path d="m96-544v112 48z"/><path d="m128-384h160z"/><path d="m288-640v32z"/><path d="m288.4631-640h-.4631v-5.3805z"/><path d="m128-608v61.7097 162.2903-162.2903z"/><path d="m128-832v61.7097 162.2903-162.2903z"/><path d="m128-1056v61.7097 162.2903-162.2903z"/><path d="m128-1056v-162.2903l75 111.2903 34.4695 112.7097h-109.4695z"/><path d="m237.4695-994.2903 28.5305 93.2903 3.1844 37 8.0652 93.7098-149.2496-.0001v-61.7097-162.2903z"/><path d="m277.2496-770.2902 10.7504 124.9097v5.3805 32 61.7097h-160v-61.7097-162.2903z"/><path d="m288-546.2903v162.2903h-160v-162.2903z"/><path d="m-96-800v64 160-32-112z"/><path d="m-96-1024v64 160-64-48-80z"/><path d="m96-1232h-192z"/><path d="m-88-1248h176 8v16h-192v-16z"/><path d="m96-576h-192z"/><path d="m-96-1024v-160h192v160 64h-192z"/><path d="m96-960v160 64h-192v-64-160z"/><path d="m96-736v160h-192v-160z"/><path d="m96-544v160h-64-128v-160z"/><path d="m32-384v64h-32-96v-64z"/><path d="m-128-1218.2903v194.2903z"/><path d="m-288-640h-.4631z"/><path d="m-306.1831-800-12.169 144h-1.6479v-144z"/><path d="m-128-1218.2903v194.2903 29.7097h-109.4695l34.4695-112.7097z"/><path d="m-128-994.2903v194.2903 29.7097h-149.2496l8.0652-93.7097 3.1844-37 28.5305-93.2903z"/><path d="m-128-770.2903v130.2903h-160-.4631l11.2135-130.2903z"/><path d="m-149.4348-1248-79.5652 122 35.4357-122z"/><path d="m-193.5643-1248-35.4357 122-4.9378 17-24.6888 85h-28.6269l18.9296-224z"/><path d="m-258.6266-1024-40.3734 139 11.7465-139z"/><path d="m-320-1248h51.6761l-18.9296 224h-32.7465z"/><path d="m-287.2535-1024-11.7465 139-7.1831 85h-13.8169v-112-112z"/><path d="m-229-1126-4.9378 17z"/><path d="m-269.1844-864-8.0652 93.7097-11.2135 130.2903.4631-5.3808 10.7504-124.9095 8.0653-93.7097z"/><path d="m-203-1107-34.4695 112.7097-28.5305 93.2903 28.5305-93.2903z"/><path d="m-320-656h1.6479z"/><path d="m-306.1831-800 7.1831-85-7.1831 85-12.169 144z"/><path d="m-288-576v-64h160v64z"/><path d="m-96-544h-192z"/><path d="m-288-384h192z"/><path d="m-96-384h-192v-160h192z"/><path d="m-382.6083-1196 16.6083-39 12.4805-13h33.5195v224h-135.8554z"/><path d="m-320-1024v112h-165.5241l1.6142-12.8718 5.9099-47.1282 22.1446-52z"/><path d="m-320-912v112h-16-160v-28.4617l10.4759-83.5383z"/><path d="m-320-656h-16v-144h16z"/><path d="m-496-800h160v144h-160z"/><path d="m-336-624v64z"/><path d="m-336-656v32z"/><path d="m-336-656v32 64 128h-160v-128-64-32z"/><path d="m-336-432v96h-160v-96z"/><path d="m-336-336v16h-160v-16z"/><path d="m-336-320v-16z"/><path d="m-64 320h-224 208z"/><path d="m160 320h-64-128-32 64 16 32 16 80z"/><path d="m160 320h144-9.9375-198.0625z"/><path d="m-288 320h224z"/><path d="m-64 320h32z"/><path d="m-288 320h-2.0625-13.9375z"/><path d="m96 336v-16 4z"/><path d="m96 320v16h-128v-16z"/><path d="m-336-304v160z"/><path d="m-336-320v16 160 48h-160v-48-160-16z"/><path d="m-336-96v176 48h-160v-48-176z"/><path d="m-336 128v176 32h-160v-32-176z"/><path d="m-496-800v144h-16v-44.8718l12.4309-99.1282z"/><path d="m-496-800h-3.5691l3.5691-28.4617z"/><path d="m-128 384v162.2903z"/><path d="m104 1304h-16 24.9131z"/><path d="m-96 960v64 160-64z"/><path d="m-96 736v64 160-64z"/><path d="m96 1240v-8z"/><path d="m96 576v128 32z"/><path d="m96 384v-48z"/><path d="m496 336v64z"/><path d="m544 568h-32v-32h32z"/><path d="m512 568v-32z"/><path d="m544 536v32z"/><path d="m512 536h12 8 12z"/><path d="m544 568h-12-8-12z"/><path d="m336 400v160 64-64z"/><path d="m496 336v64 160h-160v-160-64z"/><path d="m496 560v64 32h-160v-32-64z"/><path d="m288 544h-192z"/><path d="m288 544v-160z"/><path d="m288 384h-192z"/><path d="m288 384v160h-192v-160z"/><path d="m288.4631 640-.4631 5.3808v-5.3808z"/><path d="m128 576h160v64 5.3808l-.9139 10.6192h-159.0861z"/><path d="m288 640h.4631z"/><path d="m288 645.3808.4631-5.3808-.4631 5.3808-.914 10.6192h.0001z"/><path d="m124 1287 4-6.1333v4.2946z"/><path d="m352 1182.1935-224 102.9678v-4.2946l101-154.8667 3.9131-6h71.0869 48z"/><path d="m414.9732 1120-17.6041 41.3384-45.3691 20.8551v-62.1935z"/><path d="m304 1011v109h-71.0869l18.4006-28.2142 34.709-53.2205z"/><path d="m304 1120v-109-83h16 32v32 160z"/><path d="m294.0624 902 4.9376-17 5-17.2142v60.2142 83l-17.9773 27.5653-34.709 53.2205h-12.376z"/><path d="m251.3137 1091.7858-18.4006 28.2142-3.9131 6 9.9377-34.2142z"/><path d="m320 928v-115.2999-76.7001h16 16v192z"/><path d="m304 928v-60.2142l16-55.0857v115.2999z"/><path d="m352 928v-192h144 11.5949l-1.5048 12-26.5852 212h-127.5049z"/><path d="m479.5049 960-1.5049 12-16.6084 39-46.4184 109h-62.9732v-160z"/><path d="m287.0861 656-1.8074 21-17.4713 203h-139.8074v-109.7097-114.2903z"/><path d="m267.8074 880-1.8074 21-62.0825 203h-75.9175v-109.7097-114.2903z"/><path d="m203.9175 1104-.9175 3-75 111.2903v-114.2903z"/><path d="m318.3521 656h1.6479v80 76.7001l-16 55.0857-5 17.2142z"/><path d="m320 736v-80h16v80z"/><path d="m517.627 656-10.0321 80h-11.5949v-80z"/><path d="m496 656v80h-144-16v-80z"/><path d="m507.5949 736 10.0321-80-11.537 92h.0001z"/><path d="m294.0624 902-55.1247 189.7858-9.9377 34.2142 1.7428-6 56.195-193.4714 7.1243-24.5286z"/><path d="m203 1107-75 111.2903z"/><path d="m128 994.2903v109.7097 114.2903-194.2903z"/><path d="m128 770.2903v109.7097 114.2903-194.2903z"/><path d="m128 656v114.2903z"/><path d="m203.9175 1104 62.0825-203-37.6165 123-25.3835 83z"/><path d="m120 1304v-10.8666l4-6.1334 4-1.8387v18.8387z"/><path d="m124 1287-4 6.1334v-4.2947z"/><path d="m352 1249.5834-52.2401 54.4166h-171.7599v-18.8387l224-102.9678z"/><path d="m397.3691 1161.3384-31.3691 73.6616-14 14.5834v-67.3899z"/><path d="m-32 384h-64z"/><path d="m96 336v48h-128v-48z"/><path d="m96 544h-192v-160h64 128z"/><path d="m96 1184h-192z"/><path d="m-96 736v-160h192v160 64h-192z"/><path d="m96 800v160 64h-192v-64-160z"/><path d="m96 1024v160h-192v-160z"/><path d="m88 1232h8v8h-8z"/><path d="m88 1232v8 64h-176v-64-8z"/><path d="m-96 1240v-8h8v8z"/><path d="m104 1312h-8-216v-8h32 176 16z"/><path d="m112.9131 1304h7.0869 8v8h-24v-8z"/><path d="m299.7599 1304-7.6799 8h-164.08v-8z"/><path d="m-120 1312h-8v-8h8z"/><path d="m-128 1280.8667 4 6.1333-4-1.8387z"/><path d="m-128 1285.1613 8 3.6773v15.1614h-8z"/><path d="m-336 624v32z"/><path d="m-336 336v64z"/><path d="m-288 416v192 32-32z"/><path d="m-128 384h-160z"/><path d="m-288 416v-32h160v162.2903 61.7097h-160z"/><path d="m-128 608v32h-160v-32z"/><path d="m-262.9155 1312-16.2254-192h48.3981l1.7428 6 54.0249 186z"/><path d="m-229 1126 101 154.8667v4.2946 18.8387 8h-46.9751z"/><path d="m-336 1120h56.8591l16.2254 192h-29.1643l-43.9202-45.7498z"/><path d="m-336 928h40.6338 8.8558l55.7676 192h-48.3981-56.8591z"/><path d="m-295.3662 928-3.6338-43 4.9379 17 7.5517 26z"/><path d="m-336 736h24.4084l12.5916 149 3.6338 43h-40.6338z"/><path d="m-336 736v-80h17.6479l6.7605 80z"/><path d="m-285.2787 677-3.1844-37h.4631 160v130.2903 93.7097h-141.1844z"/><path d="m-128 864v130.2903 93.7097h-80.8107l-57.1893-187-3.1844-37z"/><path d="m-128 1088v130.2903l-75-111.2903-5.8107-19z"/><path d="m-311.5916 736-6.7605-80 6.7605 80 12.5916 149z"/><path d="m-299 885 4.9376 17h.0003z"/><path d="m-285.2787 677 16.0943 187 3.1844 37-5.9385-69z"/><path d="m-128 1280.8667-101-154.8667 38.0266 58.3075z"/><path d="m-336 656h17.6479z"/><path d="m-496 400v160 64-64z"/><path d="m-336 336v64 160h-160v-160-64z"/><path d="m-336 560v64 32h-160v-32-64z"/><path d="m-366 1235-48.9735-115h46.9735 32v146.2502z"/><path d="m-506.09 748-1.5048-12h11.5948 128v192 32h-111.5047z"/><path d="m-368 960v160h-46.9735l-46.4181-109-16.6084-39-1.5047-12z"/><path d="m-368 1120v-160-32h32v192z"/><path d="m-368 928v-192h32v192z"/><path d="m-496 656v80h-11.5948l-4.4052-35.1282v-44.8718z"/><path d="m-336 656v80h-32-128v-80z"/><path d="m-512-656h-5.627l5.627-44.8718z"/><path d="m-512-700.8718-5.627 44.8718 5.627-44.8723z"/><path d="m-544-536v-32z"/><path d="m-512-536h-32v-32h32z"/><path d="m-512-536h-12-8-12z"/><path d="m-532-240h8z"/><path d="m-544-200v-32z"/><path d="m-512-200h-32v-32h32z"/><path d="m-512-200h-12-8-12z"/><path d="m-544 224v-32z"/><path d="m-512 224h-32v-32h32z"/><path d="m-512 224h-12-8-12z"/><path d="m-544 568v-32z"/><path d="m-512 568h-32v-32h32z"/><path d="m-544 536h12 8 12z"/><path d="m-512 568h-12-8-12z"/><path d="m-512 700.8718-5.627-44.8718h5.627z"/><path d="m-260.2113 1344-2.7042-32h87.9404l9.2946 32z"/><path d="m-141.3586 1427.7362-56.6414-17.7362-62.1005-64.688-.1108-1.312h94.5308z"/><path d="m-128 1312v119.9191l-13.3586-4.1829-24.3219-83.7362-9.2946-32z"/><path d="m-262.9155 1312 2.7042 32 .1108 1.312-31.9793-33.312z"/><path d="m96 1441.9395-96 30.0605-128-40.0809v-119.9191h8 216z"/><path d="m104 1312h24v119.9192l-32 10.0203v-129.9395z"/><path d="m292.08 1312-94.08 98-70 21.9192v-119.9192z"/><path d="m440-24h-48v48h48z"/><path d="m-400-24h-48v48h48z"/><path d="m440 24h-48z"/><path d="m392 24v-48z"/><path d="m392-24h48z"/><path d="m440-24v48z"/><path d="m440 24h-48v-48h48z"/><path d="m-400-24v48z"/><path d="m-448 24v-48z"/><path d="m-400 24h-48z"/><path d="m-448-24h48z"/><path d="m-400 24h-48v-48h48z"/><path d="m96-1184v16 48z"/><path d="m96-800v128 96-160z"/><path d="m96-1024v48 64 48 64-160z"/><path d="m96-912v-64 48z"/><path d="m96-864v-48z"/><path d="m96-800v-64 16z"/><path d="m96-672v-128 16 48z"/><path d="m-96-1120v-64 160z"/><path d="m96-1184h-192z"/><path d="m96-576h-192z"/><path d="m96-672v-128-64-48-64-48-96-64h-192v64 96 32 80 48 64 80 112 32h192z"/><path d="m-96-608v-112-80-64-48-80-32-96-64h192v64 96 48 64 48 64 128 96h-192z"/><path d="m-96 672v-96 160z"/><path d="m-96 896v64 160-16-48z"/><path d="m-96 672v64 160-64z"/><path d="m96 1120v48 16z"/><path d="m96 960v160 64-160z"/><path d="m96 736v192 32-160z"/><path d="m96 576v64 64z"/><path d="m96 1184h-192z"/><path d="m96 576h-192z"/><path d="m96 1120v-160-32-192-32-128h-192v96 64 160 64 160 64h192z"/><path d="m-96 1120v-160-64-160-64-96h192v128 32 192 32 160 64h-192z"/><path d="m-96-1248h8z"/><path d="m96-1168v-16-48-16z"/><path d="m96-1120v16 48 80-48z"/><path d="m-96-1168v-16 64z"/><path d="m-96-1232v-16z"/><path d="m96-1184h-192z"/><path d="m96-1232v48h-192v-48z"/><path d="m96-1120v-48h-192v48z"/><path d="m96-1168h-192z"/><path d="m-96 1232v8z"/><path d="m-96 1168v16 48z"/><path d="m-96 1168v-48 64z"/><path d="m96 1232v-48-16z"/><path d="m96 1120v-160-32 128 48z"/><path d="m96 1168v-48h-192v48z"/><path d="m96 1120h-192z"/><path d="m96 1232h-8-176-8z"/><path d="m96 1184v48h-192v-48z"/><path d="m96-1120v-48-80 144z"/><path d="m96-1056v16 48 16z"/><path d="m-96-1168v-16-64 16 48z"/><path d="m-96-992v-64-48-16 96z"/><path d="m96-1168v48h-192v-48z"/><path d="m96-1056v-48h-192v48z"/><path d="m96-1104h-192z"/><path d="m96-1120h-192z"/><path d="m-96 1104v16z"/><path d="m-96 832v64 160-16-48z"/><path d="m-96 608v64 160-64z"/><path d="m-96 608v-32 96z"/><path d="m96 1120v-16z"/><path d="m96 928v64 48 16z"/><path d="m96 1104v-48h-192v48z"/><path d="m96 1120v48h-192v-48z"/><path d="m96 1056h-192z"/><path d="m96 1168h-192z"/><path d="m96 1240h-8z"/><path d="m96-480h-8v48h8z"/><path d="m-88 432h-8v48h8z"/><path d="m96-1056v-48-144 48 160z"/><path d="m96-976v-16z"/><path d="m-96-1104v-64 48z"/><path d="m-96-992v-48-16z"/><path d="m96-1056h-192z"/><path d="m96-1104v48h-192v-48z"/><path d="m96-1040h-192z"/><path d="m96-992v-48h-192v48z"/><path d="m-96 768v64 160-16-48z"/><path d="m-96 576v32z"/><path d="m96 1120v64 56-8-64z"/><path d="m96 928v48 16z"/><path d="m96 992h-192z"/><path d="m96 1104h-192z"/><path d="m96 1040v-48h-192v48z"/><path d="m96 1056v48h-192v-48z"/><path d="m128-320h160-64z"/><path d="m96-1248v48z"/><path d="m96-912v-16z"/><path d="m-96-1104v64 48-32z"/><path d="m-96-1104v48 16z"/><path d="m-96-912v-16-48-16z"/><path d="m-96-992v16z"/><path d="m-96-324v-60 64z"/><path d="m96-992h-192z"/><path d="m96-1040v48h-192v-48z"/><path d="m96-976h-192z"/><path d="m96-928v-48h-192v48z"/><path d="m32-320v-4h-128v4z"/><path d="m32-324v-60z"/><path d="m32-324h-32-96z"/><path d="m32-324v4-64z"/><path d="m96 320h-32-96z"/><path d="m96 324v-4h-128v4z"/><path d="m-32 324v12z"/><path d="m96 336v-12z"/><path d="m-32 324v-4 16z"/><path d="m-96 976v16 48z"/><path d="m-96 704v-128 32 160z"/><path d="m-96 704v64 160-16-48-128z"/><path d="m96 1040v80-16-48z"/><path d="m96 1040v-48-16z"/><path d="m96 976v-48h-192v48z"/><path d="m96 992v48h-192v-48z"/><path d="m96 928h-192z"/><path d="m96 1040h-192z"/><path d="m96-912v-16-48z"/><path d="m-96-992v16 48 16z"/><path d="m-96-912v-16z"/><path d="m-96-864v-48z"/><path d="m96-864v-48h-192v48z"/><path d="m96-976v48h-192v-48z"/><path d="m96-912h-192z"/><path d="m96-928h-192z"/><path d="m-96 1040v16 48 16z"/><path d="m-96 912v16z"/><path d="m-96 576v128z"/><path d="m96 928v-16z"/><path d="m96 576v64z"/><path d="m96 704v160 48 16-192z"/><path d="m96 864h-192z"/><path d="m96 976h-192z"/><path d="m96 912v-48h-192v48z"/><path d="m96 928v48h-192v-48z"/><path d="m96-432h-8z"/><path d="m96-432h-8v-48h8z"/><path d="m88-480h8z"/><path d="m96-480v48z"/><path d="m88-432v-48z"/><path d="m-96 432h8z"/><path d="m-88 480h-8v-48h8z"/><path d="m-88 480h-8z"/><path d="m-96 480v-48z"/><path d="m-88 432v48z"/><path d="m16-1376v-32h-32v32z"/><path d="m16-1408h-32z"/><path d="m544-568h-32v32h32z"/><path d="m544-232h-32v32h32z"/><path d="m544 192h-32v32h32z"/><path d="m400-944h-32v32h32z"/><path d="m0-488h-32v32h32z"/><path d="m-368-944h-32v32h32z"/><path d="m544 536h-32v32h32z"/><path d="m384 960h-32v32h32z"/><path d="m32 448h-32v32h32z"/><path d="m-368 960h-32v32h32z"/><path d="m-512-568h-32v32h32z"/><path d="m-512-232h-32v32h32z"/><path d="m-512 192h-32v32h32z"/><path d="m-512 536h-32v32h32z"/><path d="m16 1392v-32h-32v32z"/><path d="m16 1360h-32z"/><path d="m16-1376h-32z"/><path d="m16-1408v32z"/><path d="m-16-1376v-32z"/><path d="m16-1408h-32z"/><path d="m-512-568v32z"/><path d="m-512-304v64z"/><path d="m-512 8v176 8 32 8-88z"/><path d="m-512-216v16 8 152 48-88z"/><path d="m-512-216v-16 32z"/><path d="m-512-192v152z"/><path d="m-512 192v32z"/><path d="m-512 536v32z"/><path d="m512 224v-32z"/><path d="m512-40v48 176z"/><path d="m512-216v16-32z"/><path d="m512-232v-8-64 88z"/><path d="m512-528v-8-32-8z"/><path d="m512-536v-32z"/><path d="m512-240h32 8-28z"/><path d="m512-576h32 8-20-8z"/><path d="m544-568v32 8h8v-48h-8z"/><path d="m544-568v-8h-32v8z"/><path d="m512-536v8h32v-8z"/><path d="m544-528h-32 12 8 20z"/><path d="m544-568v32z"/><path d="m544-536h-32z"/><path d="m512-568h32z"/><path d="m544-192h-32 12 8 20z"/><path d="m544-232v32 8h8v-48h-8z"/><path d="m544-232v-8h-32v8z"/><path d="m512-200v8h32v-8z"/><path d="m544-232v32z"/><path d="m544-200h-32z"/><path d="m512-232h32z"/><path d="m544 192v32 8h8v-48h-8z"/><path d="m544 192v-8h-32v8z"/><path d="m512 224v8h32v-8z"/><path d="m544 184h8-20-8-12z"/><path d="m552 232h-8-32 12 8z"/><path d="m544 192v32z"/><path d="m544 224h-32z"/><path d="m512 192h32z"/><path d="m368-944h32z"/><path d="m400-912h-32z"/><path d="m400-944v32z"/><path d="m368-912v-32z"/><path d="m96-1200v128 96-16-48z"/><path d="m96-1200v-48 64 112z"/><path d="m-96-800v-48-16z"/><path d="m96-864h-192z"/><path d="m96-912v48h-192v-48z"/><path d="m96-848h-192z"/><path d="m96-800v-48h-192v48z"/><path d="m0-488v32z"/><path d="m0-456h-32z"/><path d="m-32-456v-32z"/><path d="m-32-488h32z"/><path d="m-368-912h-32z"/><path d="m-400-944h32z"/><path d="m-400-912v-32z"/><path d="m-368-944v32z"/><path d="m-512-304h16z"/><path d="m-96 928v48 64-96z"/><path d="m-96 848v-48-64 128z"/><path d="m96 928v16 96-64z"/><path d="m96 640v-64 160 48 16z"/><path d="m96 640v160 48 16-160z"/><path d="m552 576h-8-32 12 8z"/><path d="m544 536v-8h-32v8z"/><path d="m552 528h-8v8 32 8h8z"/><path d="m512 568v8h32v-8z"/><path d="m512 568v-32-8-192 224 16z"/><path d="m512 336v192z"/><path d="m544 568h-32z"/><path d="m512 536h32z"/><path d="m544 536v32z"/><path d="m512 568v-32z"/><path d="m352 992v-32z"/><path d="m384 992h-32z"/><path d="m384 960v32z"/><path d="m352 960h32z"/><path d="m0 480v-32z"/><path d="m32 480h-32z"/><path d="m32 448v32z"/><path d="m0 448h32z"/><path d="m96 800h-192z"/><path d="m96 848v-48h-192v48z"/><path d="m96 912h-192z"/><path d="m96 864v48h-192v-48z"/><path d="m-400 960h32z"/><path d="m-368 992h-32z"/><path d="m-400 992v-32z"/><path d="m-368 960v32z"/><path d="m-544 184h32-12-8-20z"/><path d="m-512-528h-40 20 8z"/><path d="m-552-576h8 32-12-8z"/><path d="m-512-528v-8h-32-8v8z"/><path d="m-552-576v40h8v-32-8z"/><path d="m-512-568v-8h-32v8z"/><path d="m-544-536v-32z"/><path d="m-512-536h-32z"/><path d="m-544-568h32z"/><path d="m-512-232v-8h-32v8z"/><path d="m-544-200v8h32v-8z"/><path d="m-552-240v48h8v-8-32-8z"/><path d="m-552-240h8 32-12-8z"/><path d="m-544-192h-8 20 8 12z"/><path d="m-544-200v-32z"/><path d="m-544-232h32z"/><path d="m-512-200h-32z"/><path d="m-512 192v-8h-32v8z"/><path d="m-544 224v8h32v-8z"/><path d="m-552 184v48h8v-8-32-8z"/><path d="m-512 232h-32-8 20 8z"/><path d="m-544 224v-32z"/><path d="m-544 192h32z"/><path d="m-512 224h-32z"/><path d="m-512 576h-32-8 20 8z"/><path d="m-552 536v40h8v-8-32z"/><path d="m-544 568v8h32v-8z"/><path d="m-552 528v8h8 32v-8z"/><path d="m-544 568v-32z"/><path d="m-512 568h-32z"/><path d="m-544 536h32z"/><path d="m-552 536v-8 48z"/><path d="m16 1360v32z"/><path d="m-16 1392v-32z"/><path d="m16 1392h-32z"/><path d="m16 1360h-32z"/><path d="m88-1312h32-24-184z"/><path d="m120-1312h-32 19.6957z"/><path d="m-88-1312h-32z"/><path d="m88-1248h8z"/><path d="m88-1312v64-6.7999z"/><path d="m-88-1248v-64z"/><path d="m88-1248v-64h-176v64z"/><path d="m-496 336h160z"/><path d="m-496 336h-16z"/><path d="m336 336h-16z"/><path d="m512-624v48z"/><path d="m-496-624v-32z"/><path d="m-496-304v-16-16 16z"/><path d="m-496 336v-32z"/><path d="m336 304v32z"/><path d="m336-336v32z"/><path d="m336-656v32z"/><path d="m496-304h-160z"/><path d="m336-624h160v-32h-160z"/><path d="m496-304v-32h-160v32z"/><path d="m496-336h16-176z"/><path d="m496-336v32z"/><path d="m512-336h-16z"/><path d="m496 304v32z"/><path d="m496 304h-160z"/><path d="m496 336v-32h-160v32z"/><path d="m96-800v-48 64z"/><path d="m96-672v-64 16z"/><path d="m96-672v16 48 32z"/><path d="m-96-848v-64 48z"/><path d="m-96-720v-16-48-16z"/><path d="m96-800h-192z"/><path d="m96-848v48h-192v-48z"/><path d="m96-784h-192z"/><path d="m96-736v-48h-192v48z"/><path d="m-496-624h160v-32h-160z"/><path d="m-496-336v16h160v-16z"/><path d="m-336-304v-16z"/><path d="m-336 336v-32z"/><path d="m-496-304h160z"/><path d="m-496-320v16h160v-16z"/><path d="m-496 304v32h160v-32z"/><path d="m-496-656h-16z"/><path d="m112.9131 1304h7.0869z"/><path d="m-96 848v16 48 16z"/><path d="m-96 784v-48 64z"/><path d="m96 848v80-16-48z"/><path d="m96 576v96 48 16z"/><path d="m496 656h21.627z"/><path d="m496 624v32z"/><path d="m336 624v32z"/><path d="m496 624h-160v32h160z"/><path d="m96 784v-48h-192v48z"/><path d="m96 848h-192z"/><path d="m96 800v48h-192v-48z"/><path d="m-88 1304v-64z"/><path d="m88 1304v-64h-176v64z"/><path d="m88 1240h8-184z"/><path d="m88 1240v64z"/><path d="m-88 1240h-8z"/><path d="m-336 656h-160z"/><path d="m-496 656v-32z"/><path d="m-336 624h-160v32h160z"/><path d="m-128-1431.9192 128-40.0808-4.2073 1.3175-123.7927 38.7634-13.3594 4.1831-56.6406 17.736z"/><path d="m96-1441.9391 102 31.9391-70-21.9188-120-37.5758-8-2.5054z"/><path d="m-366-1235-16.6083 39z"/><path d="m-478 972 16.6084 39z"/><path d="m461.3916 1011-46.4183 109-48.9733 115 31.3691-73.6616 17.6041-41.3384z"/><path d="m382.6085-1196 17.3915 40.8395 78 183.1605-83.4676-196z"/><path d="m16-1376h-32z"/><path d="m230.6404-1376-32.6404-34-56.6412-17.7362 15.0271 51.7362z"/><path d="m141.3588-1427.7362-13.3588-4.1831v23.9193 32h28.3859z"/><path d="m96-1441.9391-96-30.0609-128 40.0808v23.9192h112 32 80z"/><path d="m128-1408v-23.9193l-32-10.0198v33.9391z"/><path d="m96-1376h32v-32h-32-80v32z"/><path d="m-16-1376v-32h-112v32z"/><path d="m-128-1376v-32-23.9192l-13.3588 4.183-15.0271 51.7362z"/><path d="m-141.3588-1427.7362-56.6412 17.7362-32.6398 34h74.2539z"/><path d="m16-1408v32z"/><path d="m-16-1376v-32z"/><path d="m292.0802-1312-31.9797-33.3119 2.815 33.3119z"/><path d="m260.1005-1345.3119-29.4601-30.6881h-74.2545l18.5892 64h87.9404z"/><path d="m128-1376v64h46.9751l-18.5892-64z"/><path d="m96-1376h-80-32-112v64h8 32 184z"/><path d="m120-1312h8v-64h-32v64z"/><path d="m-128-1312v-64h-28.3859l-18.5892 64z"/><path d="m-230.6398-1376-61.44 64h117.1047l18.5892-64z"/><path d="m96-1248h-8-176-8z"/><path d="m120-1288.8386v-23.1614 18.8666z"/><path d="m120-1312v23.1614l8 3.6773v-26.8387z"/><path d="m128-1285.1613-4-1.8387 4 6.1333z"/><path d="m128-1312v26.8387 4.2946l21.4348 32.8667h44.1295l-18.5892-64z"/><path d="m174.9751-1312 18.5892 64h74.7596l-5.4084-64z"/><path d="m304-1248h49.52l-61.4398-64h-29.1647l5.4084 64z"/><path d="m128-1280.8667-4-6.1333 25.4348 39z"/><path d="m124-1287-4-1.8386z"/><path d="m-120-1312v18.8666 4.2948-4.2948z"/><path d="m-292.0798-1312-61.4399 64h159.9554l18.5892-64z"/><path d="m-128-1280.8667v-31.1333h-46.9751l-18.5892 64h44.1295z"/><path d="m-120-1288.8386v-4.2948l-4 6.1334z"/><path d="m-128-1280.8667 8-12.2667v-18.8666h-8z"/><path d="m-120-1288.8386-4 1.8386z"/><path d="m-512-576v8 32 8z"/><path d="m-512-400v-128 192z"/><path d="m-512-304v64 8 16z"/><path d="m-512 304v-72z"/><path d="m-512 560v-224 192 8 32 8z"/><path d="m-512 624v-48z"/><path d="m-483.1214-931.1606 5.1214-40.8394-5.9099 47.1282h-.0001z"/><path d="m336 336h160z"/><path d="m512 8v136 88-8-32-8z"/><path d="m512-216v136 88-48-152-8z"/><path d="m517.627-656-5.627-44.8719v44.8719z"/><path d="m512-700.8719 5.627 44.8719z"/><path d="m483.91-924.8718 15.6592 124.8718 12.4308 99.1281-16-127.5898z"/><path d="m304 304v16z"/><path d="m512-216v-88h-16-160-16v160 64h192z"/><path d="m320-80v160 64h192v-136-88z"/><path d="m320 144v160h16 160 16v-72-88z"/><path d="m512-528v-48-48h-176-16v64 160h192z"/><path d="m320-400v64h16 176v-64z"/><path d="m512-700.8719-12.4308-99.1281h-99.5692-32-61.8169l12.169 144h17.6479 160 16z"/><path d="m368-912v112h32v-112z"/><path d="m478-972-78-183.1605v148.8569 62.3036 12.8392l83.1214.0002z"/><path d="m400-931.1608v19.1608 112h99.5692l-15.6592-124.8718-.7886-6.2888z"/><path d="m382.6085-1196-14.6085-34.3033v206.3033 17.6964h32v-148.8569z"/><path d="m368-1006.3036v62.3036h32v-62.3036z"/><path d="m368-1230.3033-2-4.6967-12.48-13h-49.52v224h64z"/><path d="m304-1024v156.2142 41.9524l2.1831 25.8334h61.8169v-112-32-62.3036-17.6964z"/><path d="m304-304h16z"/><path d="m320-304v160z"/><path d="m496-656h-160z"/><path d="m512-656h-16z"/><path d="m368-944h32z"/><path d="m400-912h-32z"/><path d="m400-931.1608v-12.8392 32z"/><path d="m368-912v-32z"/><path d="m512-624h-16-160z"/><path d="m512 304h-16z"/><path d="m320-624h16z"/><path d="m320-624v64z"/><path d="m304-304h16 16z"/><path d="m229-1126 4.9378 17z"/><path d="m304-1248h-35.6761l18.9296 224h16.7465z"/><path d="m287.2535-1024 11.7465 139 5 17.2142v-156.2142z"/><path d="m193.5643-1248 35.4357 122 4.9378 17 24.6888 85h28.6269l-18.9296-224z"/><path d="m258.6266-1024 40.3734 139-11.7465-139z"/><path d="m299-885 5 59.1666z"/><path d="m299-885 5 59.1666v-41.9524z"/><path d="m269.1844-864 8.0652 93.7098 10.7504 124.9097.4631 5.3805-.4631-5.3805-10.7504-124.9097z"/><path d="m149.4348-1248 79.5652 122-35.4357-122z"/><path d="m96-1072v-112 80 160z"/><path d="m96-1072v128 96-16-48-64z"/><path d="m288-608v61.7097 162.2903-162.2903z"/><path d="m288-640h.4631l-.4631-5.3805z"/><path d="m288-640h.4631z"/><path d="m128-1218.2903v162.2903z"/><path d="m128-1218.2903v162.2903 61.7097l109.4694-.0002-34.4694-112.7095z"/><path d="m128-994.2903v162.2903 61.7097l149.2496.0001-8.0652-93.7098-3.1844-37-28.5306-93.2905z"/><path d="m128-770.2903v162.2903 61.7097h160v-61.7097-32-5.3805l-10.7504-124.9097z"/><path d="m128-546.2903v162.2903h160v-162.2903z"/><path d="m-96-1184v16z"/><path d="m-96-848v48 16z"/><path d="m-96-720v-16z"/><path d="m-96-608v-64-48z"/><path d="m-96-384v60z"/><path d="m-32-544h32 96-192z"/><path d="m96-1184v-64h-192v64z"/><path d="m96-720h-192z"/><path d="m96-784v48h-192v-48z"/><path d="m96-736h-192z"/><path d="m96-672v-48h-192v48z"/><path d="m0-432v-24h-32-64v72 60h96z"/><path d="m-32-456v-32-56h-64v88z"/><path d="m0-544h-32v56h32z"/><path d="m0-324h32v-60-48h-32z"/><path d="m32-384h64v-48h-64z"/><path d="m0-544v56 32 24h32 64v-112z"/><path d="m96-384h-64z"/><path d="m0-488v32z"/><path d="m0-456h-32z"/><path d="m-32-456v-32z"/><path d="m-32-488h32z"/><path d="m-193.5643-1248-35.4357 122 79.5652-122z"/><path d="m-353.5197-1248-12.4803 13-16.6083 39-17.3917 40.8391v131.1609h141.3734l24.6888-85 4.9378-17 35.4357-122z"/><path d="m-400-1024v80h32 48 38.1369l23.2365-80z"/><path d="m-128-1024v-194.2903l-75 111.2903-34.4695 112.7097h109.4695z"/><path d="m-237.4695-994.2903-28.5305 93.2903-3.1843 37-8.0653 93.7097h149.2496v-29.7097-194.2903z"/><path d="m-277.2496-770.2903-10.7504 124.9095v5.3808 64h160v-194.2903z"/><path d="m-320-944v131.2999l21-72.2999 17.1369-59z"/><path d="m-299-885-21 72.2999v12.7001h13.8169z"/><path d="m-368-944v32 112h48v-12.7001-131.2999z"/><path d="m-400-944v-80-131.1609l-78 183.1609-5.1214 40.8394 83.1214-.0002z"/><path d="m-483.1214-931.1606-.7886 6.2888-12.09 96.4103v28.4615h96v-112-19.1608z"/><path d="m-368-800v-112h-32v112z"/><path d="m-96-544h-192v88h192z"/><path d="m-336-656h16 1.6479l12.169-144h-13.8169-48-32-96v144z"/><path d="m-288-645.3808-.4631 5.3808h.4631z"/><path d="m-320-560v-64h-176v224h176z"/><path d="m-496-400v64h160 16v-64z"/><path d="m-96-456h-192v72h192z"/><path d="m-336-336h-160z"/><path d="m-320-336h-16z"/><path d="m-320-560v160 64z"/><path d="m-288-576h160z"/><path d="m-128-800v29.7097 194.2903-64-130.2903z"/><path d="m-128-1024v29.7097 194.2903-194.2903z"/><path d="m-149.4348-1248-79.5652 122z"/><path d="m-233.9378-1109-24.6888 85-23.2365 80-17.1369 59 40.3734-139z"/><path d="m-128-1218.2903-75 111.2903z"/><path d="m-266-901-3.1844 37h.0001z"/><path d="m-288-640v64z"/><path d="m-288-456v-88 160z"/><path d="m-368-912h-32z"/><path d="m-400-944h32z"/><path d="m-400-931.1608v19.1608-32z"/><path d="m-368-944v32z"/><path d="m-336-656h16z"/><path d="m-336-656h-160z"/><path d="m-320-624h-16-160z"/><path d="m-304-304v-16z"/><path d="m96 336v-12h-128v12z"/><path d="m96 324h-128z"/><path d="m-320-144v-160h-16-160v224h176z"/><path d="m-496-80v224h176v-64-160z"/><path d="m-496 144v160h160 16v-160z"/><path d="m-304 304h-12-1.7292z"/><path d="m-320 304h2.2708 1.7292z"/><path d="m-320 80v64 160z"/><path d="m-320-144v64 160z"/><path d="m-304 304h-13.7292-2.2708-16z"/><path d="m-336 304h-160z"/><path d="m-512-624h16z"/><path d="m-496-800h-3.5692l-12.4308 99.1277v44.8723h16z"/><path d="m-496-828.4615-3.5692 28.4615h3.5692z"/><path d="m-496-624h-16v48 48 128h16z"/><path d="m-512-400v64h16v-64z"/><path d="m-496-304h-16v88 136h16z"/><path d="m-512-80v88 136h16v-224z"/><path d="m-512 144v88 72h16v-160z"/><path d="m-128 994.2903v61.7097 162.2903-130.2903z"/><path d="m-128 770.2903v61.7097 162.2903-130.2903z"/><path d="m-128 546.2903v61.7097 162.2903-130.2903-32z"/><path d="m-120 1288.8386v4.2948 10.8666z"/><path d="m-88 1304h-32z"/><path d="m-16 1304h32 96.9131-24.9131-176z"/><path d="m-96 1240v-56-64 48 64z"/><path d="m-96 1120v64-16z"/><path d="m-96 784v16 48z"/><path d="m-96 720v16z"/><path d="m-96 720v-48-96 128 32z"/><path d="m-96 544v-160z"/><path d="m96 1184v-64 48z"/><path d="m96 784v64-48z"/><path d="m96 784v-48z"/><path d="m96 736v-16z"/><path d="m120 1288.8386v4.2948l4-6.1334z"/><path d="m120 1293.1334v10.8666h8v-23.1333z"/><path d="m177.2988 1304 51.7012-178-101 154.8667v23.1333z"/><path d="m299.7598 1304 66.2402-69 48.9733-115h-30.9733-32-121.2572l-1.7428 6-51.7012 178z"/><path d="m352 992v128h32v-128z"/><path d="m384 960v32 128h30.9733l46.4183-109 16.6084-39 1.5049-12z"/><path d="m285.2787 677 1.8073-21 .914-10.6192v-5.3808-64h-160v80 114.2903 29.7097h146.6926z"/><path d="m128 800v194.2903 29.7097h100.3835l37.6165-123 8.6926-101z"/><path d="m128 1024v194.2903l75-111.2903 25.3835-83z"/><path d="m96 480v64h192v-160h-192z"/><path d="m288 645.3808.4631-5.3808h-.4631z"/><path d="m352 880v-177.4714l-53 182.4714-4.9379 17-7.1243 24.5286h65.0622z"/><path d="m286.9378 926.5286-56.195 193.4714h121.2572v-128-32-33.4714z"/><path d="m352 702.5286v-46.5286h-16-17.6479l-19.3521 229z"/><path d="m506.09 748 11.537-92h-165.627v46.5286 177.4714h137.537z"/><path d="m352 880v46.5286 33.4714h32 95.5049l10.0321-80z"/><path d="m512 336h-16-160-16v64 160h192z"/><path d="m320 560v64h16 160 16v-48-16z"/><path d="m120 1288.8386 4-1.8386-4 1.8387z"/><path d="m336 656h-16-1.6479z"/><path d="m352 656h165.627-21.627-160z"/><path d="m320 336v64z"/><path d="m512 624h-16z"/><path d="m496 624h-160z"/><path d="m128 576v80z"/><path d="m288 640v-64z"/><path d="m128 576h160z"/><path d="m352 992v-32z"/><path d="m384 992h-32z"/><path d="m384 960v32z"/><path d="m506.09 748-16.553 132-10.0321 80-1.5049 12 1.5049-12 26.5852-212z"/><path d="m352 960h32z"/><path d="m299 885-4.9376 17h-.0003z"/><path d="m128 1280.8667 101-154.8667-101 154.8667-4 6.1333z"/><path d="m318.3521 656-19.3521 229z"/><path d="m285.2787 677-10.5861 123-8.6926 101 1.8074-21z"/><path d="m287.086 656-1.8073 21 1.8074-21z"/><path d="m120 1304v-10.8666-4.2948.0001 4.2947z"/><path d="m96 544h-96-96z"/><path d="m-32 384v-48z"/><path d="m0 384h32 64v-48h-128v48z"/><path d="m0 480v-32z"/><path d="m32 480h-32z"/><path d="m32 448v32z"/><path d="m96 384h-64v64 32h64z"/><path d="m0 448h32z"/><path d="m32 384h-32v64h32z"/><path d="m96 544v-64h-64-32v64z"/><path d="m0 544v-64-32-64h-32-64v160z"/><path d="m96 1184h-32-160z"/><path d="m96 736v48h-192v-48z"/><path d="m96 720v-48h-192v48z"/><path d="m0 544h96v32h-192v-32z"/><path d="m96 672h-192z"/><path d="m96 576h-192z"/><path d="m-96 736h192z"/><path d="m96 784h-192z"/><path d="m-88 1240h184v-56h-192v56z"/><path d="m-16 1312v-8h-72-32v8z"/><path d="m16 1312v-8h-32v8z"/><path d="m128 1312v-8h-8-7.0869-96.9131v8z"/><path d="m174.9751 1312 2.3237-8h-49.2988v8z"/><path d="m292.08 1312 7.6798-8h-122.461l-2.3237 8z"/><path d="m-120 1304v-10.8666l-8-12.2667v23.1333z"/><path d="m-120 1293.1334v-4.2948l-4-1.8386z"/><path d="m-120 1304h-8v8h8z"/><path d="m-124 1287-4-6.1333z"/><path d="m-124 1287 4 1.8386z"/><path d="m-190.9734 1184.3075-38.0266-58.3075-3.9131-6h-135.0869-32-14.9732l48.9732 115 73.9198 77h101.1068z"/><path d="m-128 1304v-23.1333l-62.9734-96.5592v127.6925h62.9734z"/><path d="m-479.5047 960 1.5047 12 16.6084 39 46.4184 109h14.9732v-128-32z"/><path d="m-368 992h-32v128h32z"/><path d="m-507.5948 736 1.5048 12 26.5853 212h79.5047 32v-47.1333-176.8667z"/><path d="m-342.278 736 43.278 149-12.5916-149z"/><path d="m-294.0624 902-4.9376-17-43.278-149h-25.722v176.8667l30.7391 47.1333h60.0451z"/><path d="m-337.2609 960 104.3478 160 3.9131 6-48.2158-166z"/><path d="m-337.2609 960-30.7391-47.1333v47.1333 32 128h135.0869z"/><path d="m-368 736h25.722 30.6864l-6.7605-80h-17.6479-160-16v44.8718l4.4052 35.1282z"/><path d="m-288 640h-.4631l.4631 5.3808z"/><path d="m-320 400v-64h-16-160-16v224h192z"/><path d="m-512 560v16 48h16 160 16v-64z"/><path d="m-128 546.2903v-162.2903h-160v32 192h160z"/><path d="m-288 608v32 5.3808l2.7213 31.6192 13.3402 155h143.9385v-61.7097-162.2903z"/><path d="m-271.9385 832 5.9385 69 47.4029 155h90.5971v-61.7097-162.2903z"/><path d="m-218.5971 1056 15.5971 51 75 111.2903v-162.2903z"/><path d="m-288 640h-.4631z"/><path d="m-288 384v32z"/><path d="m-320 624h-16z"/><path d="m-320 400v160 64z"/><path d="m-294.0624 902 16.8466 58 48.2158 166-1.7428-6-55.7676-192-7.5517-26z"/><path d="m-288 645.3808-.4631-5.3808 3.1844 37z"/><path d="m-203 1107 75 111.2903z"/><path d="m-218.5971 1056-47.4029-155 57.1893 187 5.8107 19z"/><path d="m-512 656h16z"/><path d="m-336 624h-160z"/><path d="m-400 960h32z"/><path d="m-368 992h-32z"/><path d="m-400 992v-32z"/><path d="m-368 960v32z"/><path d="m-512-700.8723-5.627 44.8723h5.627z"/><path d="m-512-656h-5.627z"/><path d="m-512 656h-5.627l5.627 44.8718z"/><path d="m-517.627 656h5.627z"/><path d="m-517.627 656 5.627 44.8718z"/><path d="m-190.9734 1312h-101.1068l94.0802 98 70 21.9189v-39.9189-80z"/><path d="m-128 1392h112v-32-48h-104-8z"/><path d="m16 1392h-32-112v39.9189l128 40.0811 96-30.0608v-49.9392z"/><path d="m96 1441.9392 32-10.0199v-39.9193h-32z"/><path d="m16 1360v-48h-32v48z"/><path d="m96 1392h32v-80h-112v48 32z"/><path d="m128 1392v39.9193l13.3588-4.1831 33.6163-115.7362h-46.9751z"/><path d="m141.3588 1427.7362 56.6412-17.7362 94.08-98h-117.1049z"/><path d="m16 1360v32z"/><path d="m-16 1392v-32z"/><path d="m16 1392h-32z"/><path d="m320 80v64 160-160z"/><path d="m320-144v64 160-160z"/><path d="m320-144v-160h-16v208 16h16z"/><path d="m-316-304h12-13.7292z"/><path d="m-316-304h-1.7292-2.2708z"/><path d="m-316-304h-4v160h4z"/><path d="m-316 160v144h12v-144z"/><path d="m-320 80v224h4v-144-80z"/><path d="m-320-144v224h4v-144-80z"/><path d="m-320-304v160z"/><path d="m-304-64h-12v144 80h12z"/><path d="m-304-320h13.9375 2.0625z"/><path d="m-304 320v-16z"/><path d="m-304-320v16h13.9375v-16z"/><path d="m-304-304h-12v160 80h12z"/><path d="m304-80v208 16h16v-64-160z"/><path d="m304 144v160h16v-160z"/><path d="m304-320v16z"/><path d="m304 304h16z"/><path d="m304-304v-16h-9.9375-34.0625v224h44z"/><path d="m-288-320h192z"/><path d="m-64-320h128 64-96-128z"/><path d="m96-1184v80z"/><path d="m96-944v64 160-16-48-64z"/><path d="m96-576v-32 16z"/><path d="m-96-800v-112 64 64 48 16z"/><path d="m-96-656v-16 64z"/><path d="m96-656h-192z"/><path d="m96-672h-192z"/><path d="m96-720v48h-192v-48z"/><path d="m96-608v-48h-192v48z"/><path d="m96 320h198.0625-34.0625-159.6041-36.3959z"/><path d="m-288 320h224-192-34.0625z"/><path d="m-32 320h96v-8h-128v8z"/><path d="m64-312v-8h-128v8z"/><path d="m64 312h-128z"/><path d="m-290.0625 320h34.0625v-64-96h-48v144 16z"/><path d="m-290.0625-96v-208h-13.9375v240h13.9377z"/><path d="m-290.0623-64h34.0623v-32h-34.0625z"/><path d="m-96 656v16 48 16z"/><path d="m-96 656v-48-64 32 96z"/><path d="m96 608v48 16-96-32z"/><path d="m96 608v-64 48z"/><path d="m96 736v-16-48-16z"/><path d="m96 720h-192z"/><path d="m96 656v-48h-192v48z"/><path d="m96 672v48h-192v-48z"/><path d="m96 608h-192z"/><path d="m96-1104v-80 144z"/><path d="m96-880v64 160-16-48z"/><path d="m96-1104v64 160-64z"/><path d="m-96-800v80 48 16z"/><path d="m-96-576v-16-16z"/><path d="m96-656v48h-192v-48z"/><path d="m96-576v-16h-192v16z"/><path d="m96-592h-192z"/><path d="m96-608h-192z"/><path d="m-96 736v48z"/><path d="m-96 592v-48 64z"/><path d="m96 736v-80-48-16 128z"/><path d="m96 544h-96-96z"/><path d="m96 592v-48h-192v48z"/><path d="m96 656h-192z"/><path d="m96 608v48h-192v-48z"/><path d="m260-320h34.0625-6.0625-160-64z"/><path d="m260 256v-128-64z"/><path d="m260 128v128 64h34.0625 9.9375v-16-160-16z"/><path d="m260-64h-192v32 96h192z"/><path d="m260-96v32 128 64h44v-208-16z"/><path d="m-256-320h192-32-192-2.0625z"/><path d="m-256 160v-96-128h-34.0623-13.9377v224z"/><path d="m-256 64v96 96z"/><path d="m-256-96v-160-64h-34.0625v16 208z"/><path d="m-256-256v160 32z"/><path d="m-96-592v-128-80 144 48z"/><path d="m-96-592v48z"/><path d="m96-544h-96-96z"/><path d="m96-592v48h-192v-48z"/><path d="m-96 592v16 48 80-16z"/><path d="m96 592v-48z"/><path d="m96 592h-192z"/><path d="m96 544v48h-192v-48z"/><path d="m260 64h-192z"/><path d="m260 64h-192z"/><path d="m260-256v192-32z"/><path d="m260-256h-192z"/><path d="m-256-64h192z"/><path d="m512 1248h-151.5361z"/><path d="m512 1116.1608v-28.1608 160z"/><path d="m442.2281 1056 69.7719-163.8392v195.8392 28.1608h-95.3916z"/><path d="m512 1116.1608v131.8392h-151.5361l5.5361-13 18-42.2678 32.6084-76.5714z"/><path d="m366 1235-5.5361 13h-6.9439z"/><path d="m512-1248v160z"/><path d="m512-1024v-64 128 67.8392.0001z"/><path d="m366-1235-5.5361-13h151.5361v160 64h-56.1445z"/><path d="m512-1024v131.8393l-34-79.8393-22.1445-52z"/><path d="m353.52-1248h6.9439l5.5361 13z"/><path d="m360.4639-1248h-6.9439z"/><path d="m353.52-1248h-49.52-110.4357-33.5643 128z"/><path d="m-160-1248h-112-81.52z"/><path d="m-512-892.1607v144.1607 44z"/><path d="m-512 668.1608v32.7111 35.1281 156.1607.0001-188.1608z"/><path d="m512-720v19.1281l-2.3987-19.1281z"/><path d="m499.5691-800-21.5691-172 34 79.8393v144.1607h-5.9099z"/><path d="m512-748v28h-2.3987l-3.5112-28z"/><path d="m480-416v32h-64v-32z"/><path d="m304-459.4761v-84.5239h112v64 64 32h-112z"/><path d="m480-416v-64-64h32v112 48h-32z"/><path d="m416-544h64v64h-64z"/><path d="m512-700.8719v44.8719 112h-32-64-112v-176h205.6013z"/><path d="m304-1248h49.52l12.48 13 89.8555 211h-151.8555z"/><path d="m455.8555-1024 22.1445 52 21.5691 172h-195.5691v-15.718-10.1154-41.9523-156.2143z"/><path d="m499.5691-800 6.521 52 3.5112 28h-205.6013v-80z"/><path d="m416-480v64z"/><path d="m416-384h64 32-208z"/><path d="m254.0611-1039.718-25.0611-86.282-35.4357-122h110.4357v224h-45.3734z"/><path d="m304-1024v156.2143l-5-17.2143-40.3734-139z"/><path d="m299-885 5 17.2143v41.9523z"/><path d="m266-901-7.9908-92.8458-3.9481-45.8722 4.5655 15.718 40.3734 139 5 59.1666v10.1154h-30.6602z"/><path d="m304-815.718v15.718 80h-22.4221l-8.2381-95.718z"/><path d="m304-544h-7.2746l-15.1475-176h22.4221z"/><path d="m296.7254-544h7.2746v84.5239z"/><path d="m160-1248h33.5643l35.4357 122-59.8994-91.8458-9.1006-13.9542z"/><path d="m229-1126 25.0611 86.282 3.9481 45.8722h-20.4038l-34.6054-113.1542-33.8994-110.8458z"/><path d="m258.0092-993.8458 7.9908 92.8458-14.0087-45.8064-14.3859-47.0394z"/><path d="m160-1170.8064v-60.9936l9.1006 13.9542 33.8994 110.8458z"/><path d="m160-1231.8v60.9936z"/><path d="m160-946.8064v-224l43 63.8064 34.6054 113.1542 14.3859 47.0394z"/><path d="m266-901 7.3398 85.282 8.2381 95.718h-121.5779v-224-2.8064h91.9913z"/><path d="m-353.52-1248h81.52v224h-183.8555l89.8555-211z"/><path d="m-272-1024v224h-224v-28.4617l18-143.5383 22.1445-52z"/><path d="m-272-800v224h-224v-28.4617-195.5383z"/><path d="m-272-576v120h-224v-120z"/><path d="m-272-1248h112v80 144h-112z"/><path d="m-160-1024v80 144h-112v-224z"/><path d="m-160-800v80 144h-112v-224z"/><path d="m-160-576v32 88h-112v-120z"/><path d="m296.7254-544h-152.7254-48v-48-128h64 121.5779z"/><path d="m144-400v-144h152.7254l7.2746 84.5239v75.4761h-160z"/><path d="m0-456v-88h96 48v144h-32-112z"/><path d="m96-328h-32-128-64v-40h224z"/><path d="m128-368v40h-32v-40z"/><path d="m-160-576v-144h64v128 48h-64z"/><path d="m-96-544h96v88h-144-16v-88z"/><path d="m0-456v56h-112-32v-56z"/><path d="m-272-384h-224v-72h224z"/><path d="m-160-456h16v56 16h-128v-72z"/><path d="m-160-720h64z"/><path d="m-160-1248v80z"/><path d="m160-944v224-48.922z"/><path d="m160-1170.8064v224 2.8064-48.922z"/><path d="m-96-1024v32 80 112h-64v-144-80z"/><path d="m-96-800v80h-64v-80z"/><path d="m64-1184h-160l-64-64h96 16 8 24 8 16 8 24 8 16z"/><path d="m96-1040v-144l32.9221-32.922 31.0779 46.1156v177.8844h-64z"/><path d="m0-400h112-224z"/><path d="m-112-400h-16-16z"/><path d="m96-368h-224 16z"/><path d="m64-328h-128z"/><path d="m-144-384h-128z"/><path d="m96-816v47.078 48.922 128-16-48z"/><path d="m96-1040v47.078 176.922-64z"/><path d="m96-544v-48z"/><path d="m-96-912v112z"/><path d="m64-1184h32-192z"/><path d="m96 336h-224v-8h64 128 32z"/><path d="m128 328v8h-32v-8z"/><path d="m128 328v8z"/><path d="m-496-384h-16v-72h16z"/><path d="m-512-604.4617v-96.4102l5.9099-47.1281 10.0901-80.4617v28.4617 195.5383z"/><path d="m-496-576v120h-16v-120-28.4617h16z"/><path d="m-507.5949 736h91.5949 132.4051v224h-195.9099z"/><path d="m-283.5949 960v224h-104.1238l-28.8897-67.8394-61.3916-144.1606-1.5048-12z"/><path d="m-283.5949 1184v64h-69.9251l-12.48-13-21.7187-51z"/><path d="m-283.5949 736h91.5949 32v64 160h-123.5949z"/><path d="m-160 960v64 160h-123.5949v-224z"/><path d="m-160 1184v64h-123.5949v-64z"/><path d="m-512 668.1608v-124.1608-64h32 64v128 96h-95.6077l-.3923-3.1281z"/><path d="m-416 704v32h-91.5949l-4.0128-32z"/><path d="m-512 384h32v32 64h-32z"/><path d="m-480 416v-32h64v32z"/><path d="m-416 608v-128-64-32h128 96v224z"/><path d="m-192 736h-91.5949-132.4051v-32-96h224z"/><path d="m-192 608v-224h32v16 144 64z"/><path d="m-160 720v16h-32v-128h32z"/><path d="m-96 544v48 128h-64v-112-64z"/><path d="m-160 384h16v16h-16z"/><path d="m96 592v-48h64v64 112h-64z"/><path d="m64 544h-160-64v-144h16 208z"/><path d="m80 400h64 16v144h-64-32v-144z"/><path d="m144 400v-16h16v16z"/><path d="m160 544v-144-16h208 16v224h-224z"/><path d="m384 608v224h-224v-32-80-112z"/><path d="m384 832v224h-224v-32-192z"/><path d="m384 1056v136.7322l-18 42.2678-12.48 13h-193.52v-192z"/><path d="m384 384h128v192 32h-128z"/><path d="m512 608v60.1608 163.8392h-128v-224z"/><path d="m512 832v60.1608l-69.7719 163.8392h-58.2281v-224z"/><path d="m442.2281 1056-25.6197 60.1608-32.6084 76.5714v-136.7322z"/><path d="m96 368h-224v-32h224z"/><path d="m128 336v32h-32v-32z"/><path d="m512 608v-32 92.1608z"/><path d="m512 576v-192z"/><path d="m160 720h-64z"/><path d="m368 384h-208-16z"/><path d="m80 400h-16-208 32z"/><path d="m-128 336v32z"/><path d="m128 368h-16-16z"/><path d="m-288 384h-128-64-32z"/><path d="m-160 736v-16 80z"/><path d="m96 928v-80-64-48-16h64v80 144h-64z"/><path d="m-96 944v96 80 48h-64v-144-80z"/><path d="m-96 1168v16l-64 64v-80z"/><path d="m96 1184 64 64h-96v-64z"/><path d="m160 1024v32 192-80z"/><path d="m160 800v32 192-80z"/><path d="m-96 592v-48z"/><path d="m64 544h32-192z"/><path d="m-511.6077 704 4.0128 32h-4.4051v-35.1281z"/><path d="m-512 736h4.4051l28.0901 224 1.5048 12-34-79.8393z"/><path d="m-512-748v-144.1607l34-79.8393-18 143.5383-10.0901 80.4617z"/><path d="m-512-700.8719v-3.1281-44h5.9099z"/><path d="m-353.52 1248h-6.9439l-5.5361-13z"/><path d="m-512 892.1607v224.0001 3.8392-32-128-67.8392z"/><path d="m-512 1116.1608v-224.0001l34 79.8393 61.3916 144.1606z"/><path d="m-387.7187 1184 21.7187 51 5.5361 13h-151.5361v-128-3.8392l95.3916-.0002z"/><path d="m-360.4639-1248h6.9439l-12.48 13z"/><path d="m-353.52-1248h-6.9439z"/><path d="m-360.4639-1248h-151.5361z"/><path d="m-512-1088v-160h151.5361l-5.5361 13-89.8555 211h-56.1445z"/><path d="m-455.8555-1024-22.1445 52-34 79.8393v-67.8393-64z"/><path d="m416-480h64z"/><path d="m480-416h-64z"/><path d="m416-480h64v64h-64z"/><path d="m480-480v64z"/><path d="m112-368h16-32z"/><path d="m112-400v32h-16-208v-32z"/><path d="m-144 400h32z"/><path d="m112 400h32-64z"/><path d="m112 400h32z"/><path d="m96 368h16v32h-32-192v-32z"/><path d="m128 368h-16z"/><path d="m-112 368h-16z"/><path d="m96 368h-208-16z"/><path d="m-416 480h-64z"/><path d="m-480 416h64z"/><path d="m-416 416v64z"/><path d="m-416 480h-64v-64h64z"/><path d="m-480 480v-64z"/><path d="m128.9221-1216.922 24.6832-24.6832 6.3947 9.8052v60.9936z"/><path d="m128.9221-1216.922-32.9221 32.922h-32v-64h43.9782z"/><path d="m260 64v192z"/><path d="m153.6053-1241.6052 6.3947-6.3948v16.2z"/><path d="m153.6053-1241.6052-24.6832 24.6832-20.9439-31.078h41.4566z"/><path d="m260-256v192z"/><path d="m260-256h-192z"/><path d="m512 892.1608v67.8392 128z"/><path d="m512 1088v96 64z"/><path d="m576 1088h-48v-16-8-24-8-16-8-24-8-16h48z"/><path d="m520 976v-16h8v16z"/><path d="m520 1064v-24h8v24z"/><path d="m528 1088h-8v-16h8z"/><path d="m520 1008v-24h8v24z"/><path d="m520 1032v-16h8v16z"/><path d="m520 976v8 24 8 16 8 24 8 16h-8v-128h8z"/><path d="m512-1248v160z"/><path d="m512-960v67.8393-.0001z"/><path d="m512-1088h8v16 8 24 8 16 8 24 8 16h-8z"/><path d="m520-984v-24h8v24z"/><path d="m520-1072v-16h8v16z"/><path d="m520-1016v-16h8v16z"/><path d="m520-1040v-24h8v24z"/><path d="m528-976v-8-24-8-16-8-24-8-16h48v128h-48z"/><path d="m528-960h-8v-16h8z"/><path d="m-353.52-1248h65.52 128z"/><path d="m-40-1256v8h-8v-8z"/><path d="m-8-1256v8h-8v-8z"/><path d="m-8-1256v-8-48h16v48 8 8h-16z"/><path d="m-64-1248v-64h16v48 8 8z"/><path d="m-40-1256v-8-48h24v48 8 8h-24z"/><path d="m-16-1312h8v48h-8z"/><path d="m-48-1312h8v48h-8z"/><path d="m16-1256v8h-8v-8z"/><path d="m48-1256v8h-8v-8z"/><path d="m48-1256v-8-48h16v64h-16z"/><path d="m16-1256v-8-48h24v48 8 8h-24z"/><path d="m40-1312h8v48h-8z"/><path d="m8-1312h8v48h-8z"/><path d="m64-1312v56 8z"/><path d="m-512-704v-96-92.1608.0001z"/><path d="m-512-592v-8-24-80 3.1281 96.4102 28.4617z"/><path d="m-512-576v120 72z"/><path d="m-512 384v96 64z"/><path d="m-512 576v-32 124.1608z"/><path d="m512-384v-48z"/><path d="m512-432v-144z"/><path d="m512-656v80 144-112z"/><path d="m512-892.1608v188.1608 48-44.8719-19.1281-28-144.1607z"/><path d="m528-576h-8v-16h8z"/><path d="m520-600v-24h8v24z"/><path d="m528-592v-8-24-8-16-8-24-8-16h48v128h-48z"/><path d="m520-656v-24h8v24z"/><path d="m520-632v-16h8v16z"/><path d="m520-688v-16h8v16z"/><path d="m512-656v-48h8v16 8 24 8 16 8 24 8 16h-8z"/><path d="m512-384h-144-64z"/><path d="m160-1248v16.2z"/><path d="m160-1248-6.3947 6.3948-4.1705-6.3948z"/><path d="m160-720h-64z"/><path d="m-160-944v144 80-80z"/><path d="m-160-1168v144 80-80z"/><path d="m-160-1168v-80l64 64v16 64 80h-64z"/><path d="m160-992.922v48.922 175.078h-64v-47.078-176.922z"/><path d="m160-768.922v48.922h-64v-48.922z"/><path d="m-144-384v-16z"/><path d="m144-400v16z"/><path d="m144-384h160z"/><path d="m112-400h32z"/><path d="m128-328v-40z"/><path d="m-128-368v40z"/><path d="m-128-368h16z"/><path d="m112-400v32z"/><path d="m128-328h-32-32 32z"/><path d="m-496-384h224z"/><path d="m-144-384h-128z"/><path d="m128 328v8z"/><path d="m-128 328v8z"/><path d="m-128 328h64z"/><path d="m-512-384h16z"/><path d="m512 668.1608v35.8392 188.1608-60.1608z"/><path d="m512 384v192z"/><path d="m512 704v32 156.1608z"/><path d="m576 704h-48v-16-8-24-8-16-8-24-8-16h48z"/><path d="m520 624v-24h8v24z"/><path d="m520 648v-16h8v16z"/><path d="m528 704h-8v-16h8z"/><path d="m520 592v-16h8v16z"/><path d="m520 680v-24h8v24z"/><path d="m520 592v8 24 8 16 8 24 8 16h-8v-35.8392-92.1608h8z"/><path d="m-160 720h64z"/><path d="m-144 400v-16z"/><path d="m144 384v16z"/><path d="m144 384h16 208z"/><path d="m512 384h-128-16z"/><path d="m128 368v-32z"/><path d="m-128 368v-32z"/><path d="m-512 384h48 32 16 128z"/><path d="m-144 384h-16-32-96z"/><path d="m-160 1024v144 80-64z"/><path d="m-160 800v144 80-64z"/><path d="m160 944v80 144h-64v-48-80-96z"/><path d="m160 1168v80l-64-64v-16z"/><path d="m-64 1248h-96z"/><path d="m-160 800v-80h64v16 48 64 80 16h-64z"/><path d="m64 1248h-16-8-24-8-16-8-24-8-16-96l64-64h160z"/><path d="m16 1264v48h-8v-48z"/><path d="m48 1264v48h-8v-48z"/><path d="m48 1264v-8-8h16v64h-16z"/><path d="m16 1264v-8-8h24v8 8 48h-24z"/><path d="m40 1248h8v8h-8z"/><path d="m8 1248h8v8h-8z"/><path d="m64 1248v64z"/><path d="m-8 1264v48h-8v-48z"/><path d="m-8 1264v-8-8h16v8 8 48h-16z"/><path d="m-40 1264v-8-8h24v8 8 48h-24z"/><path d="m-40 1264v48h-8v-48z"/><path d="m-48 1248h8v8h-8z"/><path d="m-64 1312v-64h16v8 8 48z"/><path d="m-16 1248h8v8h-8z"/><path d="m160 720v80z"/><path d="m-353.52 1248h69.9251 123.5949z"/><path d="m-528-592h8 8v16h-64v-16z"/><path d="m-520-592v-8h8v8z"/><path d="m-520-624h8v24h-8-8v-24z"/><path d="m-576-704h48v16 8 24 8 16 8 24 8h-48z"/><path d="m-528-688v-16h8v16z"/><path d="m-528-632v-16h8v16z"/><path d="m-528-656v-24h8v24z"/><path d="m-520-632v-16-8-24-8-16h8v80h-8z"/><path d="m-512 668.1608v35.8392h-8v-16-8-24-8-16-8-24-8-16h8z"/><path d="m-528 624v-24h8v24z"/><path d="m-528 648v-16h8v16z"/><path d="m-520 704h-8v-16h8z"/><path d="m-528 592v-16h8v16z"/><path d="m-528 680v-24h8v24z"/><path d="m-528 592v8 24 8 16 8 24 8 16h-48v-128h48z"/><path d="m-360.4639 1248h6.9439z"/><path d="m-512 1248h151.5361z"/><path d="m-512 892.1608v67.8392-67.8393z"/><path d="m-512 1120v128z"/><path d="m-512 1088h-8v-16-8-24-8-16-8-24-8-16h8z"/><path d="m-528 1008v-24h8v24z"/><path d="m-528 1032v-16h8v16z"/><path d="m-520 1088h-8v-16h8z"/><path d="m-528 976v-16h8v16z"/><path d="m-528 1064v-24h8v24z"/><path d="m-528 976v8 24 8 16 8 24 8 16h-48v-128h48z"/><path d="m-360.4639-1248h6.9439z"/><path d="m-512-1248h151.5361z"/><path d="m-512-1088v64 64z"/><path d="m-512-960v67.8393z"/><path d="m-512-1248v160z"/><path d="m-576-1088h48v16 8 24 8 16 8 24 8 16h-48z"/><path d="m-528-984v-24h8v24z"/><path d="m-528-1072v-16h8v16z"/><path d="m-528-1016v-16h8v16z"/><path d="m-528-1040v-24h8v24z"/><path d="m-520-976v-8-24-8-16-8-24-8-16h8v128h-8z"/><path d="m-520-960h-8v-16h8z"/><path d="m-256 256v-192z"/><path d="m-256-64v-192z"/><path d="m64 320h36.3959-57.0625-11.3334-64-7.3334-24.6666z"/><path d="m64 320v-8z"/><path d="m64-312v-8z"/><path d="m-64-320v8z"/><path d="m-64 312v8z"/><path d="m64-320v8h-128v-8z"/><path d="m64 312v8h-128v-8z"/><path d="m64-312h-128z"/><path d="m64-328v-8h-128v8z"/><path d="m64-336h-128z"/><path d="m-64-328h-64z"/><path d="m64 328h32 32-32z"/><path d="m64 336v-8h-128v8z"/><path d="m64 328h-128z"/><path d="m68-64v-192h-36v128 96h36z"/><path d="m68-64h192z"/><path d="m68 256h-36v64h11.3334 57.0625 159.6041v-64z"/><path d="m68-256v192z"/><path d="m-64-256h32v-64h-7.3334-24.6666-192v64z"/><path d="m-64-32v96 128h32v-96-128z"/><path d="m-64 192v64h32v-64z"/><path d="m-64-32v-32h-192v128h192z"/><path d="m-64 320h24.6666 7.3334v-64h-32-192v64z"/><path d="m-64-64v-192z"/><path d="m64-320h-20.6666-11.3334v64h36 192v-64z"/><path d="m288-1248h-128-10.5652-41.4566-43.9782 16z"/><path d="m-39.3334-320h7.3334z"/><path d="m-32-320h64 11.3334 20.6666-128 24.6666z"/><path d="m-144-400v16z"/><path d="m43.3334 320h-11.3334z"/><path d="m32 96v32 192-64-64z"/><path d="m32-128v32 192-128z"/><path d="m-32-320v64 128z"/><path d="m32-128v-192h-64v192 32h64z"/><path d="m-32-96v192 32h64v-32-192z"/><path d="m-32 128v192h64v-192z"/><path d="m-32 320h-7.3334z"/><path d="m-32-128v-128h-32v192 32h32z"/><path d="m-32 96v96 64 64-192z"/><path d="m-32-128v96 128-192z"/><path d="m68 256h192z"/><path d="m68 256v-192 128z"/><path d="m32-32v128 96h36v-128-96z"/><path d="m32 192v64h36v-64z"/><path d="m32-256v-64 192z"/><path d="m32-320h11.3334z"/><path d="m68-64h192z"/><path d="m-64 256h-192z"/><path d="m-64 256h-192z"/><path d="m-64-64h-192z"/><path d="m-64-256h-192z"/><path d="m-64 64h-192z"/><path d="m-64 64h-192z"/><path d="m-64 64v192-64z"/><path d="m353.52-1248h-65.52 16z"/><path d="m353.52 1248h-65.52-128z"/><path d="m360.4639 1248h-6.9439z"/><path d="m360.4639-1248h-6.9439z"/><path d="m68 256h192z"/><path d="m68 256v-192z"/><path d="m68-64v-192z"/><path d="m-64-256v192z"/><path d="m-64-256h-192z"/><path d="m-64 64v192z"/><path d="m-576-960v-19z"/><path d="m-576 576v40.5337z"/><path d="m-576 704v-16-3z"/><path d="m-576 1088v-19z"/><path d="m520 960h8 48-48-8-8z"/><path d="m528 960h-8v16h8z"/><path d="m576 1088v-16h-48-8-8v16z"/><path d="m512-960v-16-3z"/><path d="m520-1088h56-48-8-8z"/><path d="m528-960h-16 8 8 48z"/><path d="m64 1312h32z"/><path d="m-64 1312h19z"/><path d="m-64-1312h-32z"/><path d="m-64-1248h19z"/><path d="m64-1256v-56h-16v48 8z"/><path d="m-64-1256v-8-48 64z"/><path d="m-64-1312v48h16 3v-48z"/><path d="m-64-1264v8h16v-8z"/><path d="m-512 576v-32z"/><path d="m528-576h-16 8 8 48z"/><path d="m528-704h48-48-8-8z"/><path d="m512-704v16h8 8v-16z"/><path d="m528-576v-16h-8-8v16z"/><path d="m512 704v-16-3z"/><path d="m520 576h56-48-8-8z"/><path d="m512 704h8 8 48z"/><path d="m576 704v-16h-48-8-8v16z"/><path d="m-64 1312v-48-16z"/><path d="m-64 1248v16h16v-8-8z"/><path d="m-528-704h16-8-8-48z"/><path d="m-576-576h64z"/><path d="m-520 576h8-8-8-48z"/><path d="m-512 576h-8v16 3h8z"/><path d="m-576 576v16h48 8v-16z"/><path d="m-576 704h48 8 8z"/><path d="m-528 960h8 8-8-8-48z"/><path d="m-512 960h-8v16 3h8z"/><path d="m-520 960h-8v16h8z"/><path d="m-576 1088h48 8 8z"/><path d="m-520-1088h8-8-8-48z"/><path d="m-512-1088h-8v16 3h8z"/><path d="m-576-1088v16h48 8v-16z"/><path d="m-528-960h-48 48 8 8z"/><path d="m-512-960v-16h-8-8v16z"/><path d="m-576-960h48v-16-3h-48z"/><path d="m512 1088v-19z"/><path d="m512 1088h8 8 48z"/><path d="m64 336h-128z"/><path d="m-128-328v-40z"/><path d="m64-336v8h-128v-8z"/><path d="m128-328h-32z"/><path d="m64-328v-8z"/><path d="m-64-336v8z"/><path d="m64 328v8h-128v-8z"/><path d="m96 328h-32-128-64z"/><path d="m-64 328v8z"/><path d="m64 336v-8z"/><path d="m512-960v-64z"/><path d="m-64-1312h19z"/><path d="m-64-1312h19 45z"/><path d="m-64 1248h16 3z"/><path d="m512 704v-19-5-24-8-8z"/><path d="m-576 1088v-19-29z"/><path d="m512-688v3h8v-3z"/><path d="m-512 1072v-3h-8v3z"/><path d="m576 688v-3h-48v3z"/><path d="m-512 688v-3h-8v3z"/><path d="m528 976v8-5z"/><path d="m520 976h8z"/><path d="m520 976v-16h-8v19h8z"/><path d="m48-1256h-8 5z"/><path d="m48-1264v8z"/><path d="m48-1264v-48h-3v48z"/><path d="m48-1256h-3v8h19v-8z"/><path d="m-48-1264h8-5z"/><path d="m-48-1256v-8z"/><path d="m-48-1256h-16v8h19v-8z"/><path d="m528-592v16h48v-19h-48z"/><path d="m528-592h-8z"/><path d="m520-592v-8 5z"/><path d="m520-592v-3h-8v3z"/><path d="m48 1256v8z"/><path d="m48 1264v48h16v-64h-16z"/><path d="m48 1264h-8 5z"/><path d="m48 1256v-8h-3v8z"/><path d="m-48 1264v-8z"/><path d="m-48 1256h8-5z"/><path d="m-520-592h-8z"/><path d="m-528-592v-8 5z"/><path d="m-528-592v-3h-48v3z"/><path d="m-528-592h-48v16h64v-16z"/><path d="m-520 976v8-5z"/><path d="m-528 976h8z"/><path d="m-528 976v-16h-48v19h48z"/><path d="m-528-976v-8 5z"/><path d="m-520-976h-8z"/><path d="m-576-592v-3z"/><path d="m576 1072v-3h-48v3z"/><path d="m528-976v16h48v-19h-48z"/><path d="m520-976v-3h-8v3z"/><path d="m520-976h-8v16h16v-16z"/><path d="m528-976h-8z"/><path d="m520-976v-8 5z"/><path d="m512-592v-3z"/><path d="m528-688v8-5z"/><path d="m520-688h8z"/><path d="m528 688h-8z"/><path d="m520 688v-8 5z"/><path d="m520 688v-3h-8v3z"/><path d="m-528-688h8z"/><path d="m-520-688h8v-16h-16v16z"/><path d="m-520-688v8-5z"/><path d="m-528-688v-16h-48v19h48z"/><path d="m-520 688h-8z"/><path d="m-528 688v-8 5z"/><path d="m-528 688v-3h-48v3z"/><path d="m-520 688h-8-48v16h64v-16z"/><path d="m-512-688v3 21.5333-40.5333z"/><path d="m520 1072v-8 5z"/><path d="m520 1072v-3h-8v3z"/><path d="m-528 1072v-8 5z"/><path d="m-528 1072v-3h-48v3z"/><path d="m528 1072h-8z"/><path d="m520-1072h8z"/><path d="m528-1072h48v-16h-56v16z"/><path d="m528-1072v8-5z"/><path d="m520-1072v-16h-8v19h8z"/><path d="m-512-592v-3h-8v3z"/><path d="m-520 1072h-8z"/><path d="m-520 1072h-8-48v16h64v-16z"/><path d="m-576-1072v3h48v-3z"/><path d="m-528-1072h8z"/><path d="m-520-1072v8-5z"/><path d="m520 592v-16h-8v19h8z"/><path d="m528 592h48v-16h-56v16z"/><path d="m520 592h8z"/><path d="m528 592v8-5z"/><path d="m-576 592v3h48v-3z"/><path d="m-528 592h8z"/><path d="m-520 592v8-5z"/><path d="m-512-976v-3h-8v3z"/><path d="m48 1312h-3-21.5333 40.5333z"/><path d="m-576-592v16z"/><path d="m512-592v16z"/><path d="m-576-1069v-19 40.5333z"/><path d="m-576-595v-37 40z"/><path d="m576 1069v3 16z"/><path d="m576 979v21.5333-40.5333z"/><path d="m576 685v3 16z"/><path d="m576 595v45 8-31.4667z"/><path d="m576-595v19z"/><path d="m576-685v45 16-39.4667z"/><path d="m576-685v21.5333-40.5333z"/><path d="m576-979v19z"/><path d="m576-1069v85-63.4668z"/><path d="m512 1069v-5-40 64z"/><path d="m576 979v-19h-48v16 3z"/><path d="m576 979h-48v5 24 16h48z"/><path d="m512 1069h8v-5h-8z"/><path d="m576-1069v-3h-48v3z"/><path d="m45-1312h3 16-40.5334z"/><path d="m45-1248h-21.5333 40.5333z"/><path d="m-512-595v3 16z"/><path d="m-512-685v37 8 64-87.4667z"/><path d="m-512 595v21.5333-40.5333z"/><path d="m-512 595v37 8 64-16-71.4667z"/><path d="m-512 685v3 16z"/><path d="m512-595v-29 32z"/><path d="m576-685v-19h-48v16 3z"/><path d="m576-685h-48v5 24 8 8h48z"/><path d="m576 595v-3h-48v3z"/><path d="m-45 1248h29 8 8-64z"/><path d="m45 1256v-8h-5v8z"/><path d="m45 1312h3v-48h-3z"/><path d="m-45 1256v-8h-3v8z"/><path d="m-45 1312v-48h-3-16v48z"/><path d="m-512-685h-8v5 24 8h8z"/><path d="m-512-685v-3h-8v3z"/><path d="m-512 595h-8v5 24 8h8z"/><path d="m-512 979v21.5333-40.5333z"/><path d="m-512 979v5 24 8 8 64-87.4667z"/><path d="m-512 1069v3 16z"/><path d="m-512-1069v109-64-23.4668z"/><path d="m-512-979v3 16z"/><path d="m512-984v5h8v-5z"/><path d="m528-984v8-3z"/><path d="m520-984h8z"/><path d="m528 1064v8-3z"/><path d="m520 1064h8z"/><path d="m520-1064v-8 3z"/><path d="m528-1064h-8z"/><path d="m-512 984v-5h-8v5z"/><path d="m-528 1064h8z"/><path d="m-520 1064h8v-24h-8-8v24z"/><path d="m-520 1064v8-3z"/><path d="m-520 1064v5h8v-5z"/><path d="m-528 1064v-24-16h-48v45h48z"/><path d="m-528-1064v-8 3z"/><path d="m-520-1064h-8z"/><path d="m528 984h-8z"/><path d="m520 984v-8 3z"/><path d="m520 984v-5h-8v5z"/><path d="m520 984h-8v24h8 8v-24z"/><path d="m40-1264h8-3z"/><path d="m40-1256v-8z"/><path d="m40-1256h-24-8v8h37v-8z"/><path d="m-40-1264h24 8 8v-48h-45v48z"/><path d="m-40-1256h-8 3z"/><path d="m-40-1264v8z"/><path d="m528-600v8-3z"/><path d="m528-680h-8z"/><path d="m520-680v-8 3z"/><path d="m520-680v-5h-8v5z"/><path d="m520-680h-8v24h8 8v-24z"/><path d="m520-600h8z"/><path d="m520-600v-24-16h-8v16 29h8z"/><path d="m520 600h-8v24h8 8v-24z"/><path d="m520 600v-5h-8v5z"/><path d="m528 600v24 8 8h48v-45h-48z"/><path d="m528 600h-8z"/><path d="m520 600v-8 3z"/><path d="m528 680v8-3z"/><path d="m520 680h8z"/><path d="m40 1264v-8z"/><path d="m40 1256h8-3z"/><path d="m40 1264h-24-8v48h37v-48z"/><path d="m-40 1264h-8 3z"/><path d="m-40 1256v8z"/><path d="m-40 1256v-8h-5v8z"/><path d="m-528-680v-8 3z"/><path d="m-520-680h-8z"/><path d="m-520-600v8-3z"/><path d="m-528-600h8z"/><path d="m-528-600v-24-16h-48v8 37h48z"/><path d="m-528 600v-8 3z"/><path d="m-520 600h-8z"/><path d="m-520 680v8-3z"/><path d="m-528 680h8z"/><path d="m-528 680v-24-8-8h-48v8 37h48z"/><path d="m-528 984v-8 3z"/><path d="m-520 984h-8z"/><path d="m-512-1064v-5h-8v5z"/><path d="m-520-984v8-3z"/><path d="m-528-984h8z"/><path d="m-528-984v-24-8-8h-48v45h48z"/><path d="m512 680v5h8v-5z"/><path d="m-40 1248v8 8h24v-8-8z"/><path d="m-576-984v-40z"/><path d="m512 1248h-128-23.5361z"/><path d="m512-1248h-151.5361z"/><path d="m520-1008h-8v24h8 8v-24z"/><path d="m528-1008h-8z"/><path d="m520-1008v-8z"/><path d="m528 1040h-8z"/><path d="m520 1040v-8z"/><path d="m520 1040v-8h-8v8z"/><path d="m520 1040h-8v24h8 8v-24z"/><path d="m528-1040v8z"/><path d="m520-1040h8z"/><path d="m520-1040h8v-24h-8z"/><path d="m520-1040v-24-5h-8v37h8z"/><path d="m-528 1040v-8z"/><path d="m-520 1040h-8z"/><path d="m-528-1040h8z"/><path d="m-520-1040h8v-24h-8-8v24z"/><path d="m-520-1040v8z"/><path d="m528 1008v8z"/><path d="m520 1008h8z"/><path d="m16-1256h-8z"/><path d="m16-1264h24 5v-48h-37v48z"/><path d="m16-1264v8z"/><path d="m16-1264v8h24v-8z"/><path d="m-16-1264h8z"/><path d="m-16-1256v-8z"/><path d="m-16-1256v-8h-24v8z"/><path d="m528-656v8z"/><path d="m520-656h8z"/><path d="m520-624v-8z"/><path d="m528-624h-8z"/><path d="m528-624h-8v24h8z"/><path d="m520 624h8z"/><path d="m528 624v8z"/><path d="m528 656h-8z"/><path d="m520 656v-8z"/><path d="m520 656h-8v24h8 8v-24z"/><path d="m16 1264h-8z"/><path d="m16 1256v8z"/><path d="m16 1256v-8h-8v8z"/><path d="m-16 1264v-8z"/><path d="m-16 1256h8z"/><path d="m-528-624v-8z"/><path d="m-520-656v8z"/><path d="m-528-656h8z"/><path d="m-528-656h8v-24h-8z"/><path d="m-520-624h-8z"/><path d="m-520-624h-8v24h8z"/><path d="m-528 656v-8z"/><path d="m-520 624v8z"/><path d="m-528 624h8z"/><path d="m-528 624h8v-24h-8z"/><path d="m-520 656h-8z"/><path d="m-520 656h-8v24h8z"/><path d="m-528 1008h8z"/><path d="m-520 1008h8v-24h-8-8v24z"/><path d="m-520 1008v8z"/><path d="m-528 1008v-24-5h-48v45h48z"/><path d="m-528-1008v-8z"/><path d="m-520-1008h-8z"/><path d="m-520-1008h-8v24h8z"/><path d="m16 1248v8 8h24v-8-8z"/><path d="m-576 1040v-16z"/><path d="m512 648v8h8v-8z"/><path d="m-576 648v-8z"/><path d="m528 1032v8z"/><path d="m520 1032h8z"/><path d="m528-1032h-8z"/><path d="m520-1032v-8z"/><path d="m520-1016v-8h-8v16h8z"/><path d="m520-1016h8z"/><path d="m528-1016v8z"/><path d="m-512 1016v-8h-8v8z"/><path d="m-520 1032v8z"/><path d="m-528 1032h8z"/><path d="m-520-1032h-8z"/><path d="m-528-1032v-8z"/><path d="m-512-1032v-8h-8v8z"/><path d="m-528-1032v-8-24-5h-48v37z"/><path d="m-576-632v-8z"/><path d="m528 1016h-8z"/><path d="m520 1016v-8z"/><path d="m520 1016v-8h-8v8z"/><path d="m8-1256v-8z"/><path d="m8-1264h8z"/><path d="m8-1256v-8-48h-8v48 8 8h8z"/><path d="m-8-1256h-8z"/><path d="m-8-1264v8z"/><path d="m-8-1256h-8-24-5v8h45v-8z"/><path d="m528-632v8z"/><path d="m528-648h-8z"/><path d="m520-648v-8z"/><path d="m520-648v-8h-8v8z"/><path d="m520-648h-8v8h8 8v-8z"/><path d="m520-632h8z"/><path d="m520 648h8z"/><path d="m520 632v-8h-8v8z"/><path d="m528 632h-8z"/><path d="m520 632v-8z"/><path d="m520 648h8 48v-8h-48-16v8z"/><path d="m528 648v8z"/><path d="m528 648v8 24 5h48v-37z"/><path d="m8 1264v-8z"/><path d="m8 1256h8z"/><path d="m8 1264v-16h-8v16 48h8z"/><path d="m-8 1264h-8z"/><path d="m-8 1256v8z"/><path d="m-8 1256v-8h-8v8z"/><path d="m-528-648v-8z"/><path d="m-520-648h-8z"/><path d="m-528-632h8z"/><path d="m-520-648h-8v8h16v-8z"/><path d="m-520-632h8v-8h-16v8z"/><path d="m-520-632v8z"/><path d="m-512-632h-8v8 24 5h8z"/><path d="m-528-648v-8-24-5h-48v45h48z"/><path d="m-528 632v-8z"/><path d="m-520 632h-8z"/><path d="m-520 648v8z"/><path d="m-528 648h8z"/><path d="m-528 1016v-8z"/><path d="m-520 1016h-8z"/><path d="m-528-1016h8z"/><path d="m-520-1016h8v-8h-16v8z"/><path d="m-520-1016v8z"/><path d="m-512-1016h-8v8 24 5h8z"/><path d="m576-1032v-37h-48v5 24 8z"/><path d="m512-432v48z"/><path d="m512-624v-16z"/><path d="m464-464h-32v32h32z"/><path d="m-432 432h-32v32h32z"/><path d="m-576-1024v-8-37 21.5333 63.4667z"/><path d="m-576-640v-45 21.5333 31.4667z"/><path d="m-576 640v-45 21.5337 31.4663z"/><path d="m-576 1024v-45 21.5337 39.4663z"/><path d="m576 640v8z"/><path d="m576-640v16z"/><path d="m576-1024v40z"/><path d="m576 1024h-48v8 8 24 5h48z"/><path d="m512 1024v8h8 8v-8z"/><path d="m528 1024v-8h-8-8v8z"/><path d="m512-1024v-8-37 21.5333 23.4667 64z"/><path d="m576-1024h-48v8 32 5h48z"/><path d="m528-1024h-8v8h8z"/><path d="m520-1024h56v-8h-48-8-8v8z"/><path d="m0-1312h8 37-21.5334-87.4666z"/><path d="m0-1248h-45-19z"/><path d="m0-1256v-8h-8v8z"/><path d="m-512-640v64z"/><path d="m-512 640v45 19z"/><path d="m512-640v-8-8-24-5 21.5333 39.4667z"/><path d="m576-640h-48v16 24 5h48z"/><path d="m528-640h-8v8h8z"/><path d="m432-432v-32z"/><path d="m464-464v32z"/><path d="m432-464h32z"/><path d="m464-432h-32z"/><path d="m512 640v-8-8-24-5 21.5337 87.4663z"/><path d="m528 640v-8h-8-8v8z"/><path d="m-464 464v-32z"/><path d="m-432 464h-32z"/><path d="m-432 432v32z"/><path d="m-464 432h32z"/><path d="m0 1248h45-21.5334-87.4666z"/><path d="m0 1264v-16h-8v8 8z"/><path d="m0 1312v-48h-8-8-24-5v48z"/><path d="m-520 640h8v-8h-8-8v8z"/><path d="m-512 640h-8v8 8 24 5h8z"/><path d="m-520 640h-8v8h8z"/><path d="m-576 640h48v-8-8-24-5h-48z"/><path d="m-512 1024v64z"/><path d="m-520 1024h8v-8h-8-8v8z"/><path d="m-512 1024h-8v16h8z"/><path d="m-520 1024h-8v8h8z"/><path d="m-512-1024v8 37 19z"/><path d="m-528-1024h16v-8h-8-8-48v8z"/><path d="m-576 648v56-19z"/><path d="m576 1040v48z"/><path d="m576 1040v-16z"/><path d="m-112-400h224-112-128z"/><path d="m-112-400h-16z"/><path d="m-128-400h-16z"/><path d="m112-368h16z"/><path d="m112-368v-32h-224v32z"/><path d="m-112-368v-32z"/><path d="m144 400v-16z"/><path d="m80 400h-192-32 208z"/><path d="m80 400h32v-32h-16-208v32z"/><path d="m112 368h16-32z"/><path d="m-112 368v32z"/><path d="m112 400v-32z"/><path d="m-576-984v24z"/><path d="m-64 1312h64-45z"/><path d="m-576-704v40.5333-21.5333z"/><path d="m-576 960v40.5337z"/><path d="m576 1040v-39.4667-21.5333 45z"/><path d="m576 704v-56 37z"/><path d="m576 576v19 21.5333z"/><path d="m576-576v-48z"/><path d="m576-960v-24 5z"/><path d="m576-1088v40.5332z"/><path d="m96 1344v-32h-32-40.5333-87.4667-32v32z"/><path d="m-288 736h-128-96v156.1607 67.8393h224z"/><path d="m-512 960v40.5333 87.4667 32 64h224v-224z"/><path d="m-512 1184v64h151.5361 6.9439 65.52v-64z"/><path d="m-64 736h-96-32-96v224h224z"/><path d="m-288 960v224h224v-224z"/><path d="m-288 1184v64h128 96v-64z"/><path d="m160 736h-96-128v224h224z"/><path d="m-64 960v224h224v-224z"/><path d="m-64 1184v64h87.4666 40.5334 96v-64z"/><path d="m384 736h-224v224h224z"/><path d="m160 960v224h224v-224z"/><path d="m160 1184v64h128 65.52 6.9439 23.5361v-64z"/><path d="m512 960v-67.8392-156.1608h-128v224z"/><path d="m512 1184v-96-87.467-40.533h-128v224z"/><path d="m512 1248v-64h-128v64z"/><path d="m-416 608v-144h-16-32-48v80 32 40.5333 71.4667h96z"/><path d="m-512 688v16 32h96v-48z"/><path d="m-464 432v-48h-48v80h48z"/><path d="m-416 384h-16v48 32h16z"/><path d="m-432 384h-32v48h32z"/><path d="m-192 384h-96-128v80 144h224z"/><path d="m-416 608v80 48h128 96v-128z"/><path d="m-160 608v-208-16h-32v224z"/><path d="m-160 736v-112-16h-32v128z"/><path d="m-144 384h-16v16h16z"/><path d="m64 400h-208-16v208 16h224z"/><path d="m-160 624v112h96 128v-112z"/><path d="m160 624v-16-208h-16-64-16v224z"/><path d="m160 736v-112h-96v112z"/><path d="m160 384h-16v16h16z"/><path d="m384 384h-16-208v16 208h224z"/><path d="m160 608v16 112h224v-128z"/><path d="m512 608v-32-192h-128v224z"/><path d="m512 736v-32-87.4663-8.5337h-128v128z"/><path d="m96 328h-224v8 32h224z"/><path d="m128 368v-32-8h-32v40z"/><path d="m0-800h-144v224h144z"/><path d="m-144-576v176h16 128v-32-144z"/><path d="m96-368h-208-16v40h224z"/><path d="m128-328v-40h-16-16v40z"/><path d="m112-400h32v-32h-144v32z"/><path d="m368-432h-144-80v32 16h160 64z"/><path d="m512-384v-48h-48-32-16-48v48z"/><path d="m224-800h-144-80v224h224z"/><path d="m0-576v144h144 80v-144z"/><path d="m416-576v-224h-112-80v224z"/><path d="m368-432h48v-32-112h-192v144z"/><path d="m416-432h16v-32h-16z"/><path d="m464-464v32h48v-32z"/><path d="m512-624v-39.4667-40.5333-96h-96v224h96z"/><path d="m416-576v112h16 32 48v-112z"/><path d="m-288-1248h-65.52-6.9439-151.5361v160 40.5332 23.4668h224z"/><path d="m-512-1024v64 67.8392 92.1608h224v-224z"/><path d="m-512-800v96 40.5333 87.4667h224v-224z"/><path d="m-512-576v192h16 208v-192z"/><path d="m-144-1248h-16-128v224h144z"/><path d="m-288-1024v224h144v-224z"/><path d="m-288-800v224h144v-224z"/><path d="m-288-576v192h16 128v-16-176z"/><path d="m-64-1312h87.4666 40.5334 32v-32h-192v32z"/><path d="m80-1248h-16-40.5333-87.4667-80v224h224z"/><path d="m-144-1024v224h144 80v-224z"/><path d="m304-1248h-16-208v224h224z"/><path d="m80-1024v224h144 80v-224z"/><path d="m512-1024v-23.4667-40.5333-160h-151.5361-6.9439-49.52v224z"/><path d="m416-800h96v-92.1607-67.8393-64h-208v224z"/><path d="m512 892.1608v67.8392z"/><path d="m512 960v40.533z"/><path d="m512 1000.533v87.467-64-8-8-24-5z"/><path d="m360.4639 1248h-6.9439z"/><path d="m512-1248h-151.5361z"/><path d="m512-1088v40.5333-21.5333z"/><path d="m23.4667 1312h21.5333-37-8-64z"/><path d="m-96 1312h32z"/><path d="m96-1312h-32z"/><path d="m23.4667-1248h21.5333-37-8-64z"/><path d="m-144-1248h80-96z"/><path d="m-512-576v192z"/><path d="m-512 544v-80-80z"/><path d="m-512 736v-32 188.1608-.0001z"/><path d="m512-576v112 32-144-16-32z"/><path d="m512-704v40.5333-21.5333-3z"/><path d="m512-892.1607v92.1607 96-188.1608z"/><path d="m432-432v-32z"/><path d="m464-464v32z"/><path d="m432-464h32z"/><path d="m464-432h-32z"/><path d="m144-384v-16z"/><path d="m304-384h-160z"/><path d="m144-400h-32z"/><path d="m128-368v40z"/><path d="m96-368h16-224z"/><path d="m96-328h-224 64 128z"/><path d="m-272-384h-16-208z"/><path d="m-128 328v8z"/><path d="m128 328h-32z"/><path d="m-496-384h-16z"/><path d="m512 576v32 8.5337z"/><path d="m-144 384v16z"/><path d="m384 384h128-144z"/><path d="m144 400h-32-32z"/><path d="m128 336v32z"/><path d="m96 368h-224 16z"/><path d="m-192 384h32 16-144z"/><path d="m-464 464v-32z"/><path d="m-432 464h-32z"/><path d="m-432 432v32z"/><path d="m-464 432h32z"/><path d="m64 1248h-40.5334 21.5334 3z"/><path d="m288 1248h-128-96 96z"/><path d="m353.52 1248h-65.52z"/><path d="m-160 1248h-128-65.52z"/><path d="m-353.52 1248h-6.9439z"/><path d="m-360.4639 1248h-151.5361z"/><path d="m-512 1088v32z"/><path d="m-512 1248v-64-64z"/><path d="m-512-960v67.8393-.0001z"/><path d="m-512-1047.4668v-40.5332z"/><path d="m-512-1248v160z"/></g></defs><path d="m-691-1587h1382v3174h-1382z" fill="#fff"/><g stroke="#000"><use fill="none" stroke-miterlimit="0" stroke-width="15" xlink:href="#a"/><use fill="#fff" xlink:href="#a"/></g></svg>