<svg viewBox="-1008 -496 1408 1776" xmlns="http://www.w3.org/2000/svg" xmlns:xlink="http://www.w3.org/1999/xlink"><defs><g id="a"><path d="m-540-224h-20z"/><path d="m-304-224h-20z"/><path d="m-560 128h20z"/><path d="m-324 128h20z"/><path d="m-304-224v128z"/><path d="m-352-112 28-112h20v128 96h-48z"/><path d="m-304 0v128h-20l-28-112v-16z"/><path d="m-352 16 28 112z"/><path d="m-324-224-28 112z"/><path d="m-512 0v-112 128z"/><path d="m-560-96v96 128z"/><path d="m-560-96v-128h20l28 112v112h-48z"/><path d="m-512 0v16l-28 112h-20v-128z"/><path d="m-512-112-28-112z"/><path d="m-540 128 28-112z"/><path d="m256 768h-32z"/><path d="m-240 528v-32z"/><path d="m256 304v-32 48z"/><path d="m-16 272h-224z"/><path d="m208 272h-224z"/><path d="m208 304h16-240z"/><path d="m-16 304h-224v-32h224z"/><path d="m208 304h-224v-32h224z"/><path d="m256 272v32h-32-16v-32z"/><path d="m32 496v48z"/><path d="m224 544v224z"/><path d="m224 304h32v16 208h-32z"/><path d="m256 528v16 224h-32v-224-16z"/><path d="m-16 496h-224z"/><path d="m0 528v-32h32v48 176h-32z"/><path d="m32 720v48h-32v-48z"/><path d="m0 528h-240z"/><path d="m-16 496h16v32h-240v-32z"/><path d="m-560-224h20z"/><path d="m-304 128h-20z"/><path d="m-304-224v128z"/><path d="m-304-96v224-128z"/><path d="m-352-112v112 16z"/><path d="m-304-96v-128h-20l-28 112v128l28 112h20z"/><path d="m-352-112 28-112h20v128 224h-20l-28-112z"/><path d="m-352-112 28-112z"/><path d="m-512-112v128z"/><path d="m-560-224v128z"/><path d="m-560-96v224-144z"/><path d="m-512-112-28-112h-20v128 224h20l28-112z"/><path d="m-560-96v-128h20l28 112v128l-28 112h-20z"/><path d="m-512 16-28 112z"/><path d="m18 768h-18 32z"/><path d="m256 768h-16-16z"/><path d="m-240 290v-18 32z"/><path d="m-240 528v-16-16z"/><path d="m256 272v48z"/><path d="m256 544v224z"/><path d="m256 320v224-16z"/><path d="m-16 272h-224 104 8 64z"/><path d="m208 272h-224 72 8 64z"/><path d="m224 272h32-48z"/><path d="m0 528v-32h32v48 224h-14-18z"/><path d="m32 544v-48h-32v32 240h18 14z"/><path d="m-16 496h16v32h-240v-32z"/><path d="m0 528v-32h-16-224v32z"/><path d="m-16 272h224 16v32h-240-224v-14-18z"/><path d="m-16 304h240v-32h-16-224-224v18 14z"/><path d="m224 544v-240-32h32v48 224 224h-32z"/><path d="m256 544v-224-48h-32v32 240 224h32z"/><path d="m224 544v224-208z"/><path d="m224 304h-240z"/><path d="m32 496v48z"/><path d="m0 528h-64-64-112z"/><path d="m-16 496h-224z"/><path d="m-16 304h-224z"/><path d="m32 544v224-48z"/><path d="m224 304v224 16z"/><path d="m0 496h32-32-16z"/><path d="m0 528v192 48z"/><path d="m32 768h-14z"/><path d="m-240 304v-14z"/><path d="m224 336v-32 240z"/><path d="m-16 304h-224z"/><path d="m224 304v32h-16v-16z"/><path d="m224 560v208h-16v-208z"/><path d="m224 304-16 16h-224v-16z"/><path d="m32 544v160 64z"/><path d="m32 544v-48l16-16v208 16h-16z"/><path d="m32 496h-32-16z"/><path d="m-16 496h-224v-16h208 16z"/><path d="m32 496h-48v-16h48z"/><path d="m-144 960v96z"/><path d="m-240 1056v-96z"/><path d="m-144 1056h-96z"/><path d="m-240 960h96z"/><path d="m-144 1056h-96v-96h96z"/><path d="m-176 992h-32v32h32z"/><path d="m-208 1024v-32z"/><path d="m-208 992h32z"/><path d="m-176 992v32z"/><path d="m-176 1024h-32z"/><path d="m-400-80v64z"/><path d="m-464-80h64v64h-64z"/><path d="m-416 432h-64z"/><path d="m-416 368v16 48z"/><path d="m-480 368h64z"/><path d="m-480 368h64v64h-64z"/><path d="m160 976v64z"/><path d="m160 1040h-64z"/><path d="m96 1040v-64z"/><path d="m96 976h64z"/><path d="m96 1040v-64h64v64z"/><path d="m-992-96v32 32 32z"/><path d="m-320-368h-32-96z"/><path d="m-576 384v-40-16-152z"/><path d="m-336 144h16 16 16-32-32-64z"/><path d="m-288 88v56z"/><path d="m-288 88v-8z"/><path d="m-288-16v-88 24 96z"/><path d="m-288-104v-8z"/><path d="m-288-240v-128z"/><path d="m-288-112h16z"/><path d="m-288-112v-64h16v8 56z"/><path d="m-272-168v-8z"/><path d="m-272-176h-16z"/><path d="m-272 16h-16z"/><path d="m-288 80v-64h16v8 56z"/><path d="m-288 80h16z"/><path d="m-272 24v-8z"/><path d="m-540 128 28-112h16l-32 128h-16z"/><path d="m-560 128h20l-4 16h-16z"/><path d="m-324 128h20v16h-16z"/><path d="m-368 16h-96v-32h64 32z"/><path d="m-368 16h16l28 112 4 16h-16z"/><path d="m-464 16h96l32 128h-80-112l32-128z"/><path d="m-576-80v-32-128h16v16 128 80h-16z"/><path d="m-560-16v144 16h-16v-80-48-32z"/><path d="m-560-240h16l4 16h-20z"/><path d="m-496-80h8 24v64 32h-32z"/><path d="m-488-80h-8v-32z"/><path d="m-496-112h-16l-28-112-4-16h16z"/><path d="m-512-112h16v32 96h-16z"/><path d="m-400-80h24 8v64h-32z"/><path d="m-368-16v-64-32h16v128h-16z"/><path d="m-368-80h-8l8-32z"/><path d="m-352-240h16l-32 128-8 32h-24-64-24l-8-32-32-128z"/><path d="m-320-240h16v16h-20z"/><path d="m-336-240h16l-4 16-28 112h-16z"/><path d="m-304-96v-128-16h16v64 64 8 88h-16z"/><path d="m-288-16v32 64 8 56h-16v-16-144z"/><path d="m-352-240h-176-16-16-16l128-128h96z"/><path d="m-320-368h32v128h-16-16-16-16v-128z"/><path d="m-324-224h20z"/><path d="m-540 128h-20z"/><path d="m-464-80v64z"/><path d="m-304-96v80 144z"/><path d="m-352-112v128z"/><path d="m-324 128-28-112z"/><path d="m-400-16h-64z"/><path d="m-464-80h64z"/><path d="m-560-224v128z"/><path d="m-540-224 28 112z"/><path d="m-480 432h64v32 64h-24-16-56l-64-64v-32z"/><path d="m-416 464h112v16 32 16h-112z"/><path d="m-288 464-16 16v-16z"/><path d="m-288 528h-16v-16z"/><path d="m16 1232h-16v-128h24v112 8z"/><path d="m-144 1072v-16-96-16h16v128z"/><path d="m-256 1072v-128h16v16 96 16z"/><path d="m-144 960h-96v-16h96z"/><path d="m-144 1072h-96v-16h96z"/><path d="m-32 944v128h-96v-128z"/><path d="m24 976v64 32 32h-24l-32-32v-128l32-32h24z"/><path d="m0 912v-80h16 8v80z"/><path d="m32 1216-8 8v-8z"/><path d="m176 1232v32h-96v-32z"/><path d="m160 1072h16v80 64h-112-32-8v-112-32z"/><path d="m176 1216h16l-16 16h-96l-16-16z"/><path d="m224 1216v-112l32-32v32 128h-16z"/><path d="m176 1072h80l-32 32-48 48z"/><path d="m224 1104v112h-32-16v-64z"/><path d="m96 1040h64v32h-136v-32z"/><path d="m96 1040h-72v-64h72z"/><path d="m96 976h-72v-64-80h24 16 96v112 32z"/><path d="m288 976v64l-32 32h-80-16v-32-64-32h96z"/><path d="m192 832h16 32 16v80 32h-96v-112z"/><path d="m0 816 16 16h-16z"/><path d="m64 816v16h-16z"/><path d="m0 784v-16h16z"/><path d="m-256 528 16-16v16z"/><path d="m-128 528h64v16h-8-56z"/><path d="m-16 600v-8h16v64h-16z"/><path d="m48 480v-16h16v224h-16z"/><path d="m64 688v96l-16-16v-64-16z"/><path d="m-32 480h-208l-16-16h64 160z"/><path d="m32 464h16v16h-16-48-16v-16z"/><path d="m256 784-16-16h16z"/><path d="m256 816v16h-16z"/><path d="m192 816 16 16h-16z"/><path d="m-192 464h-64-32-16-112v-32-48h112 112z"/><path d="m32 464h-64-160v-80h112 112z"/><path d="m144 384h48v80h-128-16-16v-80z"/><path d="m64 464h128v96 128h-128z"/><path d="m192 688v96 32 16h-32-96v-16-32-96z"/><path d="m256 592h16v8 56h-16z"/><path d="m256 464v-64h16v8 56z"/><path d="m-576 384v-208h96v96 96 32h-96z"/><path d="m-480 400v32h-96v-32z"/><path d="m-448 272h32v96h-64v-96z"/><path d="m-416 368v-96h112v16 32 16 48h-112z"/><path d="m-448 240 32 32h-32z"/><path d="m-480 176h32v64 32h-32z"/><path d="m-560 144h16 16 112l-32 32h-32-96v-32z"/><path d="m-304 288v-16h16z"/><path d="m-256 272h16v16z"/><path d="m-288 336h-16v-16z"/><path d="m-64 272h-64v-16h56 8z"/><path d="m128 272h-64v-16h56 8z"/><path d="m-80 384h-112-112v-48h16 32 176z"/><path d="m144 384h-112-112v-48h48 176z"/><path d="m192 336v48h-48v-48z"/><path d="m192 464v-80-48h16v224h-16z"/><path d="m208 560v208l-16 16v-96-128z"/><path d="m-32 336h-48-176l16-16h208z"/><path d="m-16 320h224v16h-16-48-176v-16z"/><path d="m-128 256v16z"/><path d="m-128 528v16z"/><path d="m256 464h16z"/><path d="m64 256v16z"/><path d="m128 272v-16z"/><path d="m272 400h-16z"/><path d="m256 320v-48 128z"/><path d="m272 408v-8z"/><path d="m128 256h-8z"/><path d="m-64 272v-16z"/><path d="m64 272h-8z"/><path d="m-64 256h-8z"/><path d="m0 656v8z"/><path d="m256 664v-8z"/><path d="m256 472v-8z"/><path d="m272 592h-16z"/><path d="m256 656h16z"/><path d="m272 600v-8z"/><path d="m-72 544h8z"/><path d="m-64 544v-16z"/><path d="m0 528h-64z"/><path d="m-16 592v8z"/><path d="m0 592h-16z"/><path d="m-16 656h16z"/><path d="m-256 464h-32z"/><path d="m-128 272h-8z"/><path d="m-240 288-4-4-12-12z"/><path d="m-240 288v32z"/><path d="m-240 528h112-5.3333-2.6667-120z"/><path d="m-240 480-4-4-12-12z"/><path d="m-448 176v8 48 8z"/><path d="m-416 144-32 32z"/><path d="m-304 320v-32z"/><path d="m-304 320 4 4 12 12z"/><path d="m-304 512v-32z"/><path d="m-288 464-12 12-4 4z"/><path d="m-456 528h16z"/><path d="m-512 528h56z"/><path d="m256 784-12-12-4-4z"/><path d="m256 768v-104 24 32 48 16z"/><path d="m208 768h16 16z"/><path d="m208 768-4 4-12 12z"/><path d="m256 832v-16 16 80z"/><path d="m256 944v-32z"/><path d="m240 832h-32z"/><path d="m192 816 12 12 4 4z"/><path d="m16 768-4 4-12 12z"/><path d="m16 768h32z"/><path d="m0 816 12 12 4 4z"/><path d="m48 832h-24-8z"/><path d="m0 912-32 32z"/><path d="m176 1264v-32z"/><path d="m240 1232h16z"/><path d="m256 1104v112 16z"/><path d="m256 1104v-32z"/><path d="m288 1040-16 16-16 16z"/><path d="m192 1216-12 12-4 4z"/><path d="m80 1232v32z"/><path d="m80 1232-4-4-12-12z"/><path d="m-256 944v128z"/><path d="m24 1224 8-8-16 16z"/><path d="m16 768h-16 18 14 16z"/><path d="m224 768h-16z"/><path d="m-240 288v-16 18 14 16z"/><path d="m-240 496v-16z"/><path d="m256 544v48 64 8 104z"/><path d="m256 320v80 64 8 72z"/><path d="m256 272h-32-16z"/><path d="m208 336h16v208 16h-16z"/><path d="m-16 320h-16-208v-16h224z"/><path d="m48 704v64h-16v-64z"/><path d="m48 480-16 16v-16z"/><path d="m0 664v-8-64-64 240z"/><path d="m-480 400v-32 64z"/><path d="m-576-240h-96 32 32z"/><path d="m-800-240h24 16 88z"/><path d="m-608 16h-32z"/><path d="m-672-48v-32 32 32z"/><path d="m-640-112h32z"/><path d="m-672-240h96v128h-32-32-32z"/><path d="m-640 16h-32v-32z"/><path d="m-576 16h-32l32-32z"/><path d="m-608-112h32v32z"/><path d="m-672-112h32l-32 32z"/><path d="m-640 16-32-32z"/><path d="m-576-16-32 32z"/><path d="m-608-112 32 32z"/><path d="m-672-80 32-32z"/><path d="m-800-112v-32-96h128v128 32 32h-64-64z"/><path d="m-800-144h-144l-16-16v-16l64-64h96z"/><path d="m-800-112h-144v-32h144z"/><path d="m-944-112h144v64h-160v-48z"/><path d="m-992-96h32v48 48h-32z"/><path d="m-736 16h-96-112l-16-16v-48h160 64z"/><path d="m-672-48v32 32h-64v-64z"/><path d="m-944-112v-32z"/><path d="m-960-96h-32z"/><path d="m-960-176v16z"/><path d="m-944-144-16-16z"/><path d="m-960-96 4-4 12-12z"/><path d="m-992 0h32z"/><path d="m-608 64h32v80 32l-32-32z"/><path d="m-576 64h-32-64v-48h32 32 32z"/><path d="m-608 64v80h-64v-80z"/><path d="m-832 48v-32h96 64v48 80h-120-40z"/><path d="m-832 48v96h-96l-32-64v-16l16-16z"/><path d="m-832 16v32h-112v-32z"/><path d="m-672 144h64-64-120z"/><path d="m-608 144 32 32z"/><path d="m-928 144h96z"/><path d="m-792 144h-16-24z"/><path d="m-1008-48v-64l16 16v96l-16 16z"/><path d="m-992 0-16 16z"/><path d="m176 1264 16 16h-128l16-16z"/><path d="m192 1280h-16-96-16z"/><path d="m176 1264 16 16z"/><path d="m-960-112h16z"/><path d="m-944 16h-16z"/><path d="m-960-112v128h16v-128z"/><path d="m-944-112v128z"/><path d="m-960 16v-128z"/><path d="m192 1216v16z"/><path d="m64 1232v-16z"/><path d="m192 1216h-128v16h128z"/><path d="m192 1232h-128z"/><path d="m64 1216h128z"/><path d="m-576-40v-16z"/><path d="m-560-40h-16z"/><path d="m-560-56v16z"/><path d="m-576-56h16z"/><path d="m-560-56h-16v16h16z"/><path d="m-688-40v-16z"/><path d="m-672-40h-16z"/><path d="m-672-56v16z"/><path d="m-688-56h16z"/><path d="m-672-56h-16v16h16z"/><path d="m-560-40h-16v-16h16z"/><path d="m-672-40h-16v-16h16z"/><path d="m-288-368h32z"/><path d="m-256-240h-32z"/><path d="m-256-240v-128z"/><path d="m-256-240h-32v-128h32z"/><path d="m-960-112v128z"/><path d="m192 1216h-128z"/><path d="m-272-176h-16v8h16z"/><path d="m-272-112v8z"/><path d="m-272 16h-16v8h16z"/><path d="m-272 80v8z"/><path d="m272 400h-16v8h16z"/><path d="m128 272h-8z"/><path d="m-64 272h-8z"/><path d="m0 592v8z"/><path d="m272 464v8z"/><path d="m272 592h-16v8h16z"/><path d="m272 656v8z"/><path d="m0 592h-16v8h16z"/><path d="m76 1264h4-4-4z"/><path d="m80 1264h32 32 32z"/><path d="m176 1264h-32-32-32z"/><path d="m180 1264h4-4-4z"/><path d="m-992 4v4-4-4z"/><path d="m-992-100v4-4-4z"/><path d="m-256-368h32z"/><path d="m-224-240h-32z"/><path d="m-224-240v-128z"/><path d="m-224-240h-32v-128h32z"/><path d="m-288 272v8z"/><path d="m-288 328v8z"/><path d="m-288 464v8z"/><path d="m-288 520v8z"/><path d="m-288 336h32z"/><path d="m-244 316v-24-8l4 4v32l-4 4z"/><path d="m-244 316v8l-12 12v-8z"/><path d="m-256 272 12 12v8l-12-12z"/><path d="m-244 292v24z"/><path d="m-256 336v-8z"/><path d="m-256 280v-8z"/><path d="m-256 280 12 12z"/><path d="m-244 316-12 12z"/><path d="m-256 336 12-12 4-4z"/><path d="m-256 528v-8z"/><path d="m-256 472v-8z"/><path d="m-133.3333 528h-2.6667z"/><path d="m-136 528h-56-48-16z"/><path d="m-240 480v16 16z"/><path d="m-256 464 12 12v8l-12-12z"/><path d="m-244 508v-24-8l4 4v32l-4 4z"/><path d="m-244 508v8l-12 12v-8z"/><path d="m-256 472 12 12z"/><path d="m-244 508-12 12z"/><path d="m-244 516 4-4-16 16z"/><path d="m-448 240v-8z"/><path d="m-448 184v-8z"/><path d="m-448 232h8z"/><path d="m-440 184h-8z"/><path d="m-448 232v-48h8v48z"/><path d="m-440 232v-48z"/><path d="m-448 240 32 32z"/><path d="m-300 292v-8l12-12v8z"/><path d="m-288 336-12-12v-8l12 12z"/><path d="m-300 292v24 8l-4-4v-32l4-4z"/><path d="m-300 316v-24z"/><path d="m-300 292 12-12z"/><path d="m-288 328-12-12z"/><path d="m-300 284-4 4 16-16z"/><path d="m-300 484v-8l12-12v8z"/><path d="m-300 484v24 8l-4-4v-32l4-4z"/><path d="m-288 528-12-12v-8l12 12z"/><path d="m-300 508v-24z"/><path d="m-288 520-12-12z"/><path d="m-300 484 12-12z"/><path d="m-300 516 12 12-16-16z"/><path d="m64 816v-32z"/><path d="m192 816h8z"/><path d="m248 816h8z"/><path d="m192 784v32z"/><path d="m200 784h-8z"/><path d="m256 784h-8z"/><path d="m192 784 12-12h8l-12 12z"/><path d="m236 772h-24-8l4-4h32l4 4z"/><path d="m236 772h8l12 12h-8z"/><path d="m212 772h24z"/><path d="m236 772 12 12z"/><path d="m200 784 12-12z"/><path d="m256 816-12 12h-8l12-12z"/><path d="m212 828h24 8l-4 4h-32l-4-4z"/><path d="m212 828h-8l-12-12h8z"/><path d="m236 828h-24z"/><path d="m212 828-12-12z"/><path d="m248 816-12 12z"/><path d="m244 828 12-12-16 16z"/><path d="m56 816h8z"/><path d="m0 816h8z"/><path d="m44 772h-24-8l4-4h32l4 4z"/><path d="m44 772h8l12 12h-8z"/><path d="m0 784 12-12h8l-12 12z"/><path d="m20 772h24z"/><path d="m8 784h-8z"/><path d="m64 784h-8z"/><path d="m8 784 12-12z"/><path d="m44 772 12 12z"/><path d="m64 784-12-12-4-4z"/><path d="m20 828h-8l-12-12h8z"/><path d="m20 828h24 8l-4 4h-32l-4-4z"/><path d="m64 816-12 12h-8l12-12z"/><path d="m44 828h-24z"/><path d="m20 828-12-12z"/><path d="m56 816-12 12z"/><path d="m52 828 12-12-16 16z"/><path d="m32 1216v8z"/><path d="m224 1224v-8z"/><path d="m240 1232h16-16-8z"/><path d="m232 1232-8-8v-8l16 16z"/><path d="m224 1224 8 8z"/><path d="m224 1216 16 16z"/><path d="m184 1264h-4v-4z"/><path d="m180 1228 12-12v8l-12 12z"/><path d="m176 1264v-32l4-4v8 24 4z"/><path d="m180 1260v-24z"/><path d="m192 1216v8z"/><path d="m180 1236 12-12z"/><path d="m184 1264-4-4z"/><path d="m76 1260v-24-8l4 4v32h-4z"/><path d="m76 1260v4h-4z"/><path d="m64 1216 12 12v8l-12-12z"/><path d="m76 1236v24z"/><path d="m64 1224v-8z"/><path d="m76 1260-4 4z"/><path d="m64 1224 12 12z"/><path d="m16 1232h-16z"/><path d="m32 1216v8l-8 8h-8z"/><path d="m24 1232 8-8z"/><path d="m-944 16h-8z"/><path d="m-944-144h-8z"/><path d="m-944-144h-8l-8-8v-8z"/><path d="m-960-152 8 8z"/><path d="m-944-112-12 12h-8l12-12z"/><path d="m-988-100h-4v-4z"/><path d="m-988-100h24 8l-4 4h-32v-4z"/><path d="m-964-100h-24z"/><path d="m-952-112h8z"/><path d="m-952-112-12 12z"/><path d="m-988-100-4-4z"/><path d="m-992 0h32l4 4h-8-24-4z"/><path d="m-992 8v-4h4z"/><path d="m-956 4 12 12h-8l-12-12z"/><path d="m-988 4h24z"/><path d="m-964 4 12 12z"/><path d="m-992 8 4-4z"/><path d="m-956 4-4-4 16 16z"/><path d="m-960 64v-8z"/><path d="m-952 48h8z"/><path d="m-944 48v-32z"/><path d="m-952 48-8 8z"/><path d="m-960 56 8-8h8l-16 16z"/><path d="m-944 48-16 16z"/><path d="m-1008-112h8z"/><path d="m-1000 16h-8z"/><path d="m-1008 16v-16-48z"/><path d="m-992-100v4l-16-16h8l8 8z"/><path d="m-992 0v4 4l-8 8h-8z"/><path d="m-992-104-8-8z"/><path d="m-1000 16 8-8z"/><path d="m-992-96-16-16z"/><path d="m192 1272v8z"/><path d="m64 1280v-8z"/><path d="m76 1264h4l-16 16v-8l8-8z"/><path d="m176 1264h4 4l8 8v8z"/><path d="m192 1272-8-8z"/><path d="m72 1264-8 8z"/><path d="m80 1264-16 16z"/><path d="m-248 1024h-8z"/><path d="m-248 992h-8v32h8z"/><path d="m-256 992h8z"/><path d="m-256 1024v-32z"/><path d="m-248 992v32z"/><path d="m-288 24v-8z"/><path d="m-288-168v-8z"/><path d="m-272-168h-16z"/><path d="m-272-104h-16z"/><path d="m-272-104h-16v-8h16z"/><path d="m-272 24h-16z"/><path d="m-272 88h-16z"/><path d="m-272 88h-16v-8h16z"/><path d="m0 664h-16z"/><path d="m272 664h-16z"/><path d="m256 408v-8z"/><path d="m272 408h-16z"/><path d="m120 272v-16z"/><path d="m120 256v16h8v-16z"/><path d="m56 256h8z"/><path d="m56 272v-16z"/><path d="m56 272v-16h8v16z"/><path d="m-72 272v-16z"/><path d="m-72 256v16h8v-16z"/><path d="m256 600v-8z"/><path d="m272 472h-16z"/><path d="m272 472h-16v-8h16z"/><path d="m272 600h-16z"/><path d="m272 664h-16v-8h16z"/><path d="m-72 528h8z"/><path d="m-72 544v-16z"/><path d="m-72 528v16h8v-16z"/><path d="m0 600h-16z"/><path d="m-16 664v-8z"/><path d="m0 664h-16v-8h16z"/><path d="m-136 272v-16z"/><path d="m-136 256h8z"/><path d="m-136 272v-16h8v16z"/><path d="m-136 544v-16h2.6667 5.3333v16z"/><path d="m76 1264h4-4-4z"/><path d="m180 1264h4-4-4z"/><path d="m-992 4v4-4-4z"/><path d="m-992-100v4-4-4z"/><path d="m-224-368h32z"/><path d="m-192-240h-32z"/><path d="m-192-240v-128z"/><path d="m-192-240h-32v-128h32z"/><path d="m-244 292v-8l-12-12v8z"/><path d="m-244 292v24 8l4-4v-32l-4-4z"/><path d="m-256 336 12-12v-8l-12 12z"/><path d="m-240 288v32z"/><path d="m-244 324-12 12 12-12 4-4z"/><path d="m-244 476-12-12v8l12 12z"/><path d="m-240 480-4-4v8 24 8l4-4z"/><path d="m-256 520v8l12-12v-8z"/><path d="m-244 476 4 4-4-4-12-12z"/><path d="m-244 484v24z"/><path d="m-448 232v-48-8 8 48 8z"/><path d="m-448 184v48h8v-48z"/><path d="m-304 320v-32z"/><path d="m-288 272-12 12v8l12-12z"/><path d="m-300 316v8l12 12v-8z"/><path d="m-300 316v-24-8l-4 4v32l4 4z"/><path d="m-300 324-4-4 4 4 12 12z"/><path d="m-304 512v-32z"/><path d="m-300 508v8l12 12v-8z"/><path d="m-300 508v-24-8l-4 4v32l4 4z"/><path d="m-288 464-12 12v8l12-12z"/><path d="m-300 476 12-12-12 12-4 4z"/><path d="m244 772 12 12-12-12-4-4z"/><path d="m212 772h-8l-12 12h8z"/><path d="m212 772h24 8l-4-4h-32l-4 4z"/><path d="m256 784-12-12h-8l12 12z"/><path d="m208 768h32z"/><path d="m236 828h8l12-12h-8z"/><path d="m236 828h-24-8l4 4h32l4-4z"/><path d="m192 816 12 12h8l-12-12z"/><path d="m240 832h-32z"/><path d="m204 828-12-12 12 12 4 4z"/><path d="m20 772h-8l-12 12h8z"/><path d="m20 772h24 8l-4-4h-32l-4 4z"/><path d="m64 784-12-12h-8l12 12z"/><path d="m16 768h32z"/><path d="m52 772 12 12-12-12-4-4z"/><path d="m12 828-12-12 12 12 4 4z"/><path d="m44 828h8l12-12h-8z"/><path d="m44 828h-24-8l4 4h32l4-4z"/><path d="m0 816 12 12h8l-12-12z"/><path d="m48 832h-32z"/><path d="m176 1264v-32z"/><path d="m256 1232h-16z"/><path d="m224 1216v8l8 8h8z"/><path d="m180 1260v-24-8l-4 4v32h4z"/><path d="m180 1260v4h4z"/><path d="m192 1216-12 12v8l12-12z"/><path d="m80 1232v32z"/><path d="m80 1264v-32l-4-4v8 24 4z"/><path d="m72 1264h4v-4z"/><path d="m76 1228-12-12v8l12 12z"/><path d="m76 1228 4 4-4-4-12-12z"/><path d="m16 1232h8z"/><path d="m24 1232 8-8v-8l-16 16z"/><path d="m32 1216-16 16z"/><path d="m-960-96h-32z"/><path d="m-960-160v8z"/><path d="m-960-152 8 8h8l-16-16z"/><path d="m-944-144-16-16z"/><path d="m-992-96h32l4-4h-8-24-4z"/><path d="m-992-104v4h4z"/><path d="m-956-100 12-12h-8l-12 12z"/><path d="m-956-100-4 4 4-4 12-12z"/><path d="m-992 0h32z"/><path d="m-988 4h24 8l-4-4h-32v4z"/><path d="m-988 4h-4v4z"/><path d="m-944 16-12-12h-8l12 12z"/><path d="m-944 48h-8l-8 8v8z"/><path d="m-1008-96v-16 64z"/><path d="m-992-96v-4-4l-8-8h-8z"/><path d="m-992 4v-4l-16 16h8l8-8z"/><path d="m-992 0-16 16z"/><path d="m180 1264h-4l16 16v-8l-8-8z"/><path d="m80 1264h-4-4l-8 8v8z"/><path d="m176 1264 16 16z"/><path d="m-192-368h32z"/><path d="m-160-240h-32z"/><path d="m-160-240v-128z"/><path d="m-160-240h-32v-128h32z"/><path d="m-248 1024h-8v-32h8z"/><path d="m76 1264h4-4-4z"/><path d="m180 1264h4-4-4z"/><path d="m-992 4v4-4-4z"/><path d="m-992-100v4-4-4z"/><path d="m-160-368h32z"/><path d="m-128-240h-32z"/><path d="m-128-240v-128z"/><path d="m-128-240h-32v-128h32z"/><path d="m-288 328v8z"/><path d="m-288 272v8z"/><path d="m-288 464v8z"/><path d="m-288 520v8z"/><path d="m-244 284-12-12 12 12 4 4z"/><path d="m-244 316v8l-12 12v-8z"/><path d="m-244 316v-24-8l4 4v32l-4 4z"/><path d="m-256 272 12 12v8l-12-12z"/><path d="m-244 292v24z"/><path d="m-256 336v-8z"/><path d="m-256 280v-8z"/><path d="m-256 280 12 12z"/><path d="m-244 316-12 12z"/><path d="m-256 528v-8z"/><path d="m-256 472v-8z"/><path d="m-244 508v8l-12 12v-8z"/><path d="m-244 508v-24-8l4 4v32l-4 4z"/><path d="m-256 464 12 12v8l-12-12z"/><path d="m-244 508-12 12z"/><path d="m-256 472 12 12z"/><path d="m-240 480v32z"/><path d="m-244 516 4-4-4 4-12 12z"/><path d="m-448 240v-8z"/><path d="m-448 184v-8z"/><path d="m-448 232h8z"/><path d="m-440 184h-8z"/><path d="m-448 232v-48h8v48z"/><path d="m-440 232v-48z"/><path d="m-300 292v24 8l-4-4v-32l4-4z"/><path d="m-288 336-12-12v-8l12 12z"/><path d="m-300 292v-8l12-12v8z"/><path d="m-300 316v-24z"/><path d="m-288 328-12-12z"/><path d="m-300 292 12-12z"/><path d="m-300 284-4 4 4-4 12-12z"/><path d="m-288 528-12-12v-8l12 12z"/><path d="m-300 484v24 8l-4-4v-32l4-4z"/><path d="m-300 484v-8l12-12v8z"/><path d="m-300 508v-24z"/><path d="m-300 484 12-12z"/><path d="m-288 520-12-12z"/><path d="m-300 516 12 12-12-12-4-4z"/><path d="m248 816h8z"/><path d="m192 816h8z"/><path d="m256 784h-8z"/><path d="m200 784h-8z"/><path d="m192 784 12-12h8l-12 12z"/><path d="m236 772h-24-8l4-4h32l4 4z"/><path d="m236 772h8l12 12h-8z"/><path d="m212 772h24z"/><path d="m236 772 12 12z"/><path d="m200 784 12-12z"/><path d="m204 772-12 12 12-12 4-4z"/><path d="m212 828h-8l-12-12h8z"/><path d="m212 828h24 8l-4 4h-32l-4-4z"/><path d="m256 816-12 12h-8l12-12z"/><path d="m236 828h-24z"/><path d="m248 816-12 12z"/><path d="m212 828-12-12z"/><path d="m244 828 12-12-12 12-4 4z"/><path d="m0 816h8z"/><path d="m56 816h8z"/><path d="m12 772-12 12 16-16z"/><path d="m0 784 12-12h8l-12 12z"/><path d="m44 772h-24-8l4-4h32l4 4z"/><path d="m44 772h8l12 12h-8z"/><path d="m20 772h24z"/><path d="m8 784h-8z"/><path d="m64 784h-8z"/><path d="m8 784 12-12z"/><path d="m44 772 12 12z"/><path d="m64 816-12 12h-8l12-12z"/><path d="m20 828h24 8l-4 4h-32l-4-4z"/><path d="m20 828h-8l-12-12h8z"/><path d="m44 828h-24z"/><path d="m20 828-12-12z"/><path d="m56 816-12 12z"/><path d="m52 828 12-12-12 12-4 4z"/><path d="m32 1216v8z"/><path d="m224 1224v-8z"/><path d="m240 1232h16-16-8z"/><path d="m232 1232-8-8v-8l16 16z"/><path d="m224 1224 8 8z"/><path d="m224 1216 16 16z"/><path d="m176 1264v-32l4-4v8 24 4z"/><path d="m184 1264h-4v-4z"/><path d="m180 1228 12-12v8l-12 12z"/><path d="m180 1260v-24z"/><path d="m192 1216v8z"/><path d="m184 1264-4-4z"/><path d="m180 1236 12-12z"/><path d="m180 1228-4 4 4-4 12-12z"/><path d="m76 1260v-24-8l4 4v32h-4z"/><path d="m76 1260v4h-4z"/><path d="m64 1216 12 12v8l-12-12z"/><path d="m64 1224v-8z"/><path d="m76 1236v24z"/><path d="m76 1260-4 4z"/><path d="m64 1224 12 12z"/><path d="m32 1216v8l-8 8h-8z"/><path d="m24 1232 8-8z"/><path d="m-944 16h-8z"/><path d="m-944-144h-8z"/><path d="m-944-144h-8l-8-8v-8z"/><path d="m-960-152 8 8z"/><path d="m-988-100h24 8l-4 4h-32v-4z"/><path d="m-988-100h-4v-4z"/><path d="m-944-112-12 12h-8l12-12z"/><path d="m-964-100h-24z"/><path d="m-952-112h8z"/><path d="m-988-100-4-4z"/><path d="m-952-112-12 12z"/><path d="m-992 0h32l4 4h-8-24-4z"/><path d="m-992 8v-4h4z"/><path d="m-956 4 12 12h-8l-12-12z"/><path d="m-988 4h24z"/><path d="m-964 4 12 12z"/><path d="m-992 8 4-4z"/><path d="m-956 4-4-4 4 4 12 12z"/><path d="m-960 80v-16z"/><path d="m-960 64v16-16-8z"/><path d="m-952 48h8z"/><path d="m-952 48-8 8z"/><path d="m-960 56 8-8h8l-16 16z"/><path d="m-944 48-16 16z"/><path d="m-1008-112h8z"/><path d="m-1000 16h-8z"/><path d="m-1008 0v-32-16z"/><path d="m-992-100v4l-16-16h8l8 8z"/><path d="m-992-104-8-8z"/><path d="m-992-96-16-16z"/><path d="m-992 0v4 4l-8 8h-8z"/><path d="m-1000 16 8-8z"/><path d="m192 1272v8z"/><path d="m192 1280h-16z"/><path d="m176 1264h4 4l8 8v8z"/><path d="m192 1272-8-8z"/><path d="m76 1264h4l-16 16v-8l8-8z"/><path d="m64 1280v-8z"/><path d="m72 1264-8 8z"/><path d="m80 1264-16 16z"/><path d="m-288 88v-8z"/><path d="m-288-104v-8z"/><path d="m-272-168h-16v-8h16z"/><path d="m-288-104h16v-8h-16z"/><path d="m-272 24h-16v-8h16z"/><path d="m-288 88h16v-8h-16z"/><path d="m272 408h-16v-8h16z"/><path d="m120 256h8z"/><path d="m120 272v-16h8v16z"/><path d="m120 256h-56z"/><path d="m56 256v16h8v-16z"/><path d="m-72 256h8z"/><path d="m-72 272v-16h8v16z"/><path d="m-72 256h-56z"/><path d="m256 664v-8z"/><path d="m256 472v-8z"/><path d="m256 472h16v-8h-16z"/><path d="m272 600h-16v-8h16z"/><path d="m256 664h16v-8h-16z"/><path d="m-72 544v-16h8v16z"/><path d="m-16 600v-8z"/><path d="m0 600h-16v-8h16z"/><path d="m-16 600v56z"/><path d="m-16 664h16v-8h-16z"/><path d="m-136 256v16h8v-16z"/><path d="m-136 528h8z"/><path d="m-136 544v-16z"/><path d="m-136 528v16h8v-16z"/><path d="m76 1264h4-4-4z"/><path d="m180 1264h4-4-4z"/><path d="m-992 4v4-4-4z"/><path d="m-992-100v4-4-4z"/><path d="m-128-368h32z"/><path d="m-288-112h16z"/><path d="m-96-240h-32z"/><path d="m-96-240v-128z"/><path d="m-96-240h-32v-128h32z"/><path d="m-272-176v8z"/><path d="m-288-176h16z"/><path d="m-272-112v-56z"/><path d="m-288 16h16z"/><path d="m-288 80h16z"/><path d="m-272 16v8z"/><path d="m-272 80v-56z"/><path d="m-128 256v16z"/><path d="m-128 528v16z"/><path d="m256 464h16z"/><path d="m64 256v16z"/><path d="m256 400h16z"/><path d="m272 400v8z"/><path d="m272 464v-56z"/><path d="m256 592v-48-72z"/><path d="m256 592h16z"/><path d="m256 656h16z"/><path d="m272 592v8z"/><path d="m272 656v-56z"/><path d="m-128 544h56z"/><path d="m-64 544h-8z"/><path d="m-64 528v16z"/><path d="m-16 656h16z"/><path d="m-244 292v-8l-12-12v8z"/><path d="m-244 292v24 8l4-4v-32l-4-4z"/><path d="m-256 336 12-12v-8l-12 12z"/><path d="m-240 288v32z"/><path d="m-244 324-12 12 16-16z"/><path d="m-244 476-12-12v8l12 12z"/><path d="m-240 480-4-4v8 24 8l4-4z"/><path d="m-256 520v8l12-12v-8z"/><path d="m-244 484v24z"/><path d="m-128 544h-8z"/><path d="m-448 184v48h8v-48z"/><path d="m-304 320v-32z"/><path d="m-288 272-12 12v8l12-12z"/><path d="m-300 316v8l12 12v-8z"/><path d="m-300 316v-24-8l-4 4v32l4 4z"/><path d="m-300 324-4-4 16 16z"/><path d="m-304 512v-32z"/><path d="m-300 508v8l12 12v-8z"/><path d="m-300 508v-24-8l-4 4v32l4 4z"/><path d="m-288 464-12 12v8l12-12z"/><path d="m-300 476 12-12-16 16z"/><path d="m212 772h24 8l-4-4h-32l-4 4z"/><path d="m212 772h-8l-12 12h8z"/><path d="m256 784-12-12h-8l12 12z"/><path d="m208 768h32z"/><path d="m204 772 4-4-16 16z"/><path d="m240 832h-32z"/><path d="m192 816 12 12h8l-12-12z"/><path d="m236 828h-24-8l4 4h32l4-4z"/><path d="m236 828h8l12-12h-8z"/><path d="m204 828-12-12 16 16z"/><path d="m16 768-16 16z"/><path d="m20 772h24 8l-4-4h-32l-4 4z"/><path d="m20 772h-8l-12 12h8z"/><path d="m64 784-12-12h-8l12 12z"/><path d="m48 768h-32z"/><path d="m52 772 12 12-16-16z"/><path d="m44 828h-24-8l4 4h32l4-4z"/><path d="m44 828h8l12-12h-8z"/><path d="m0 816 12 12h8l-12-12z"/><path d="m48 832h-32 8z"/><path d="m52 828-4 4 16-16z"/><path d="m256 1232h-16z"/><path d="m240 1232-16-16v8l8 8z"/><path d="m240 1232-16-16z"/><path d="m180 1260v-24-8l-4 4v32h4z"/><path d="m180 1260v4h4z"/><path d="m192 1216-12 12v8l12-12z"/><path d="m80 1264v-32l-4-4v8 24 4z"/><path d="m72 1264h4v-4z"/><path d="m76 1228-12-12v8l12 12z"/><path d="m76 1228 4 4-16-16z"/><path d="m176 1232h-32v32h32z"/><path d="m16 1232h8z"/><path d="m24 1232 8-8v-8l-16 16z"/><path d="m32 1216-8 8-8 8z"/><path d="m-960-160v8z"/><path d="m-960-152 8 8h8l-16-16z"/><path d="m-944-144-16-16z"/><path d="m-956-100 12-12h-8l-12 12z"/><path d="m-992-104v4h4z"/><path d="m-992-96h32l4-4h-8-24-4z"/><path d="m-988 4h24 8l-4-4h-32v4z"/><path d="m-988 4h-4v4z"/><path d="m-944 16-12-12h-8l12 12z"/><path d="m-960-96v32z"/><path d="m-956 4 12 12-16-16z"/><path d="m-992 0h32v-32h-32z"/><path d="m-960 80v-16z"/><path d="m-960 64 16-16h-8l-8 8z"/><path d="m-960 64 16-16z"/><path d="m-1008 16v-16z"/><path d="m-1008-96v-16z"/><path d="m-992 0h-16z"/><path d="m-1008-96h16z"/><path d="m-992-100v-4l-8-8h-8l16 16z"/><path d="m-1008-112 16 16z"/><path d="m-1008 0h16v-32h-16z"/><path d="m-1008 16h8l8-8v-4-4z"/><path d="m176 1264v16z"/><path d="m180 1264h-4l16 16v-8l-8-8z"/><path d="m176 1264 16 16z"/><path d="m80 1280v-16z"/><path d="m80 1280h-16z"/><path d="m80 1264h-4-4l-8 8v8z"/><path d="m-992-64v-32 96-32z"/><path d="m-96-368h32z"/><path d="m-64-240h-32z"/><path d="m-64-240v-128z"/><path d="m-64-240h-32v-128h32z"/><path d="m112 1232h32z"/><path d="m112 1232h-32z"/><path d="m144 1232h-32v32h32z"/><path d="m112 1264v-32h-32v32z"/><path d="m-960-64h-32v32h32z"/><path d="m-992-64h32v-32h-32z"/><path d="m-1008-64v-32 48z"/><path d="m-992-64h-16v16 16h16z"/><path d="m-1008-64h16v-32h-16z"/><path d="m112 1264v16h32v-16z"/><path d="m112 1280h-32 96-32z"/><path d="m144 1264v16h32v-16z"/><path d="m112 1280v-16h-32v16z"/><path d="m-576 384v16 32 32z"/><path d="m288 1000v16 24-64z"/><path d="m288 1016v24z"/><path d="m288 976v24z"/><path d="m-560 344h-16z"/><path d="m-576 328h16z"/><path d="m-560 328v16z"/><path d="m-560 328h-16v16h16z"/><path d="m-440 512v16z"/><path d="m-456 528v-16z"/><path d="m-456 512h16z"/><path d="m-440 512h-16v16h16z"/><path d="m288 1016h-16z"/><path d="m272 1000h16z"/><path d="m272 1016v-16z"/><path d="m288 1000h-16v16h16z"/><path d="m-760-240h88z"/><path d="m-800-240h24z"/><path d="m-776-224v-16z"/><path d="m-760-224h-16z"/><path d="m-760-240h-16v16h16z"/><path d="m-760-240v16z"/><path d="m-792 128v16z"/><path d="m-808 144h-24z"/><path d="m-808 144v-16z"/><path d="m-792 128h-16v16h16z"/><path d="m-808 128h16z"/><path d="m-288-368h-32z"/><path d="m-224-368h-32-32-32-128z"/><path d="m-576-80v64z"/><path d="m-576 176v152z"/><path d="m-576 344v40z"/><path d="m-448-368-128 128z"/><path d="m-32-240h-32v-128h32z"/><path d="m-272-168v-8h-16v64h16z"/><path d="m-288 16v64h16v-56-8z"/><path d="m-32-240h-32z"/><path d="m-32-240v-128z"/><path d="m-288 144v-56-8-64-96h-32v192z"/><path d="m-288-80v-24-8-64-64h-16-16v128 32z"/><path d="m-288 144-32-32v32z"/><path d="m-576-112v32 64 32 32 64h32v-224z"/><path d="m-576 112v32l32-32z"/><path d="m-288-176v-64z"/><path d="m-512 528h56v-16-16-112h-24-64-32v80z"/><path d="m-440 512v-16h-16v16z"/><path d="m-384 496h-56v16 16h56z"/><path d="m-384 496v32h80v-16-32-16h-80z"/><path d="m-304 528h16l-16-16z"/><path d="m-288 464h-16v16z"/><path d="m-96 944h-32v128h32z"/><path d="m-32 944h-64v128h64z"/><path d="m0 1056v-144l-32 32v128l32 32z"/><path d="m24 832h-8-16v80 144h24z"/><path d="m0 1056v48 128h16l8-8v-8-144-16z"/><path d="m24 1216v8l8-8z"/><path d="m224 1216 16 16h16v-16z"/><path d="m112 1232h32 32l16-16h-128l16 16z"/><path d="m32 1216h32 128 32 32v-112-32h-96-136v144z"/><path d="m160 848v-16h-96-16-24v224 16h136z"/><path d="m288 1040v-24h-16v40z"/><path d="m288 1000v-24l-16-16v40z"/><path d="m256 944v-32-80h-16-32-16-32v16z"/><path d="m256 944-96-96v224h96l16-16v-40-16-40z"/><path d="m48 832h16v-16z"/><path d="m64 784v-16h-16z"/><path d="m0 816v16h16z"/><path d="m0 768v16l16-16z"/><path d="m0 720v48h16 32 16v-48z"/><path d="m0 592h-16v8 56h16z"/><path d="m-256 528h16v-16z"/><path d="m-304 464h16 32v-80h-32-16-80v80z"/><path d="m-64 528h-64v16h56 8z"/><path d="m256 784v-16h-16z"/><path d="m240 832h16v-16z"/><path d="m192 768v16l16-16z"/><path d="m192 816v16h16z"/><path d="m208 768h32 16v-48h-32-32v48z"/><path d="m160 832h32v-16-32-16-48h-128v48 16 32 16z"/><path d="m272 600v-8h-16v64h16z"/><path d="m256 464h16v-56-8h-16z"/><path d="m-560 344h-16v40h32v-40z"/><path d="m-560 328v16h16v-16z"/><path d="m-480 384v-56h-64v16 40z"/><path d="m-480 176h-96v152h16 16 64z"/><path d="m-384 464v-80-112h-32-40v112 112h16 56z"/><path d="m-384 384h80v-64-32-16h-80z"/><path d="m-456 240h8v-64h-8z"/><path d="m-448 240h-8v32h40z"/><path d="m-456 272v-32-64h-24v152 56h24z"/><path d="m-480 176h24 8l32-32h-160v32z"/><path d="m-288 384v-48l-16-16v64z"/><path d="m-240 320-16 16v48 80l16 16z"/><path d="m-72 256h-56v16h64v-16z"/><path d="m-256 384v-48h-32v48z"/><path d="m-240 288v-16h-16z"/><path d="m-288 272h-16v16z"/><path d="m-192 272h-48v16 32 160 16h48z"/><path d="m-240 496v16 16h48v-32z"/><path d="m120 256h-56v16h64v-16z"/><path d="m256 400v-128l-32 32v160h32z"/><path d="m64 272h-8-120-64-8-24v32h224z"/><path d="m-160 272h-32l32 32z"/><path d="m-192 496v32l32-32z"/><path d="m-136 528h8 64 64v-32h-160l-32 32z"/><path d="m0 528 32-32h-32z"/><path d="m0 688v32l32-32z"/><path d="m256 720-32-32v32z"/><path d="m-128 1072v-128z"/><path d="m-128 944h-128z"/><path d="m-256 944v128z"/><path d="m-256 1072h128z"/><path d="m128 256v16z"/><path d="m224 272h32-48-80z"/><path d="m-64 256v16z"/><path d="m56 272h8z"/><path d="m56 272h-72-48z"/><path d="m0 664v-8z"/><path d="m0 528v64z"/><path d="m0 592h-16z"/><path d="m-136 272h8z"/><path d="m-256 272 12 12 4 4z"/><path d="m-240 272h48 32 24-104-16z"/><path d="m-240 496v-16 32z"/><path d="m-240 512-4 4-12 12z"/><path d="m-256 464 12 12 4 4z"/><path d="m-448 240v-8-48-8z"/><path d="m-384 272h80 16-16-112z"/><path d="m-304 288 4-4 12-12z"/><path d="m-304 528h-80-56 24 112 16z"/><path d="m-288 528-12-12-4-4z"/><path d="m-576 464 64 64z"/><path d="m-128 944h32 64-96-16-96-16z"/><path d="m240 768 4 4 12 12z"/><path d="m256 816-12 12-4 4z"/><path d="m0 768v-48-32-24 104 16z"/><path d="m16 832-4-4-12-12z"/><path d="m0 832v-16 16 80z"/><path d="m272 960 16 16-32-32z"/><path d="m192 1216h32z"/><path d="m176 1232 4-4 12-12z"/><path d="m32 1216h32z"/><path d="m176 1232h-32z"/><path d="m-96 1072h-32-128 16 96 16 96z"/><path d="m0 1232v-128z"/><path d="m0 1104-32-32z"/><path d="m-896-240h64 24 8z"/><path d="m-960-176 64-64z"/><path d="m-608-112 32 32v-32-128h-32z"/><path d="m-640-112v-128h-32v16 144z"/><path d="m-640-112h32v-128h-32z"/><path d="m-672-240h-88v16h88z"/><path d="m-776-224v-16h-24v16z"/><path d="m-792-48h120v-32-144h-88-16-24v176z"/><path d="m-832-144v-96h-64l-64 64v16l16 16z"/><path d="m-808-48v-192h-24v96 32 96h24z"/><path d="m-832-16v64 96h24v-16-144z"/><path d="m-800-224v-16h-8v192h8z"/><path d="m-832-16v-96h-64v128 32h64z"/><path d="m-896-112h64v-32h-112v32z"/><path d="m-896-112h-48l-16 16v64 32l16 16h48z"/><path d="m-608 48h-64v96h64z"/><path d="m-608 48h32v-32h-32-32-32v32z"/><path d="m-576 144v-32-64h-32v96l32 32z"/><path d="m-608 16h32v-32z"/><path d="m-672 16h32l-32-32z"/><path d="m-672 144v-96-32-32-32h-120v176 16z"/><path d="m-800-48h-8v32 144h16v-176z"/><path d="m-896 48v-32h-48v32z"/><path d="m-928 144h96v-96h-64-48l-16 16v16z"/><path d="m-944-112-12 12-4 4z"/><path d="m-960 0v-32z"/><path d="m-960-96v32 32z"/><path d="m-928 144-32-64z"/><path d="m-1008 0v16l16-16z"/><path d="m-992-96-16-16v16z"/><path d="m-1008 16 16-16z"/><path d="m176 1280h16l-16-16z"/><path d="m64 1280h16v-16z"/><path d="m80 1264-16 16z"/><path d="m-960 16v-128h16v128z"/><path d="m192 1232h-128v-16h128z"/><path d="m-32-368h32z"/><path d="m0-240h-32z"/><path d="m0-240v-128z"/><path d="m0-240h-32v-128h32z"/><path d="m-32-368h-32-32-32-32-32-32z"/><path d="m-224-368h-224 128z"/><path d="m0-368h-32-192 128 32z"/><path d="m-544-272 96-96-128 128z"/><path d="m-448-368-96 96z"/><path d="m-320-240v128z"/><path d="m-80-240h16 32 32 32-96z"/><path d="m-64-240h-16-208 32 32 32 32 32 32z"/><path d="m-304-240h16z"/><path d="m-304-240h-16z"/><path d="m32-240h-32v-128h32z"/><path d="m-352 112h32-128-96z"/><path d="m-544-112v224-160z"/><path d="m-544-272-32 32v128h32z"/><path d="m-352 112h-192l-32 32h160 64z"/><path d="m-320 112h-32v32h32z"/><path d="m224 688h-32-128-32z"/><path d="m224 304v96 64z"/><path d="m224 464v224h32v-24-8-64-120-8z"/><path d="m224 304 32-32h-32z"/><path d="m0 496h32-192z"/><path d="m64 304h-224 160z"/><path d="m224 304v-32h-96-64v32z"/><path d="m-160 304-32-32v224h32z"/><path d="m32 496-32 32h32z"/><path d="m32 528h-32v64 64 8 24h32z"/><path d="m224 688 32 32v-32z"/><path d="m224 688h-192l-32 32h64 128 32z"/><path d="m-208 976h-16v64h16z"/><path d="m-208 1024v16h32v-16z"/><path d="m-224 960h-16v16h16z"/><path d="m-224 1040h-16v16h16z"/><path d="m-144 1040h-16v16h16z"/><path d="m-144 960h-16v16h16z"/><path d="m-160 960h-64v16h64z"/><path d="m-160 976v64h16v-64z"/><path d="m-160 1040h-64v16h64z"/><path d="m-240 976v64h16v-64z"/><path d="m-176 976h-32v16h32z"/><path d="m-160 976h-16v64h16z"/><path d="m-240 1056h96z"/><path d="m-240 960v96z"/><path d="m-144 1056v-96z"/><path d="m-376 110h-16v2h16z"/><path d="m-376-368h-16v2h16z"/><path d="m-156 408h-4 16z"/><path d="m-160 408v-16z"/><path d="m-160 392v16h4v-16z"/><path d="m-160 392h4 12z"/><path d="m-156 392v16h12v-16z"/><path d="m136 684v4-16z"/><path d="m136 688h-16z"/><path d="m120 688v-4-12z"/><path d="m136 684h-16v4h16z"/><path d="m120 684h16v-12h-16z"/><path d="m64 48v64z"/><path d="m0 112v-64z"/><path d="m0 48h64z"/><path d="m64 112h-64z"/><path d="m0 112v-64h64v64z"/><path d="m-160 752h-64z"/><path d="m-224 752v-64z"/><path d="m-224 688h64z"/><path d="m-160 688v64z"/><path d="m-224 752v-64h64v64z"/><path d="m-896 240h64z"/><path d="m-640-48h-32-32z"/><path d="m-640-112v64z"/><path d="m-704-48v-64z"/><path d="m-640-112v64h-64v-64z"/><path d="m-832 304h-64z"/><path d="m-832 240v64z"/><path d="m-896 304v-64z"/><path d="m-896 304v-64h64v64z"/><path d="m384-352v32 32 32z"/><path d="m384-352 16-16v128l-16-16z"/><path d="m400-368v32 80 16z"/><path d="m384-352 16-16z"/><path d="m-768 384v16l-16-16z"/><path d="m-768 496v-96-16h96 40v144 80h-120l-16-16z"/><path d="m-632 608v48h-72l-48-48z"/><path d="m-632 384h56v48 64 32h-56z"/><path d="m-576 496 32 32h-32z"/><path d="m-408 656h-8-32-184v-48-80h56 32 128 8z"/><path d="m-384 528v128h-24v-128z"/><path d="m-384 688-32-32h8 24z"/><path d="m-384 688v-32-128h96 8v160 64h-104z"/><path d="m-280 752v80 80h-8-96v-160z"/><path d="m-280 912h184l-32 32h-128l-32-32z"/><path d="m-56 912h-40-184v-80h120 104z"/><path d="m0 832v80h-56v-80z"/><path d="m-160 832h-120v-80h56 64z"/><path d="m-224 752h-56v-64h56z"/><path d="m-280 528h88 32v160h-64-56z"/><path d="m-160 688v-160h160v192 32h-160z"/><path d="m0 752v80h-56-104v-80z"/><path d="m0 528h32v160l-32 32z"/><path d="m-160 496h192v32h-32-160-32z"/><path d="m64 704v-16h128v16z"/><path d="m384 432v128h-128v-128z"/><path d="m224 464v-64l32 32v128l-32 32z"/><path d="m-928 240h32v64h-32-16v-56-8z"/><path d="m-896 240h-32v-64h96v64z"/><path d="m-768 384h-16l-16-16h96 32v16z"/><path d="m-704 368h-96-128v-56-8h32 64 128z"/><path d="m-672 304v64h-32v-64z"/><path d="m-832 240v-64h32 128v128h-32-128z"/><path d="m-800 176 32-32h96v32z"/><path d="m-768 144v-192h64 32v192z"/><path d="m-576 384v-144l32 32v128l-32 32z"/><path d="m-672 144v-192h32 64v192 32h-96z"/><path d="m-576 176v64 144h-56-40v-16-64-128z"/><path d="m-768-48v-64h64v64z"/><path d="m-640-48v-64h64v64z"/><path d="m-736-240h128 32v128h-64-64-64v-128z"/><path d="m-576-112v-128l32-32v160 64h-32z"/><path d="m-544-48v160l-32 32v-192z"/><path d="m-176 384v-48h16v128h-16z"/><path d="m-32 240v32h-128v-32z"/><path d="m-32 272 32 32h-160v-32z"/><path d="m-288 112v-96h64 32v96z"/><path d="m-224-16 32 32h-32z"/><path d="m-160-48v32 32h-32v-32-64h32z"/><path d="m-160 48v-32l64-32h32 32 32v64 64 96h-160z"/><path d="m0 208-32 32h-128v-32z"/><path d="m-32-48v32h-32z"/><path d="m0-16h-32v-32-32h32z"/><path d="m96 240-32-32h32z"/><path d="m0 112h64 32v96h-32-64z"/><path d="m96 272h128v32h-160z"/><path d="m96 240v-32-96h128v160h-128z"/><path d="m0-16v-64h64v32 96h-64z"/><path d="m64-80h32l32 32h-64z"/><path d="m64 48v-96h64 32l64 64v32 64h-128-32z"/><path d="m-96-400h-192v-48l48-48h96l48 48z"/><path d="m-96-496h32l-32 32z"/><path d="m-288-400h192v32h-128-96z"/><path d="m-96-400 32 32h-32z"/><path d="m-288-16v-96h64v32 64 32h-64z"/><path d="m-304-240h16v128 96h-32v-96-128z"/><path d="m-288-16v32 96h-32v-128z"/><path d="m32-432v32h-96v-96h96z"/><path d="m-64-112h-96-64-64v-128h208 16z"/><path d="m32-144v32h-96v-128h96z"/><path d="m-160-112-64 32v-32z"/><path d="m32-144h96l-32 32h-64z"/><path d="m32-112h64v32h-32-64-32l-32-32z"/><path d="m352-192v16h-128v-32h112z"/><path d="m32-432h64v32h-32-32z"/><path d="m32-240v-128h32 32 128v160 32l-64 32h-32-96z"/><path d="m160-432h56 8v64h-128z"/><path d="m32-496h96v64h-32-64z"/><path d="m224-368v-64h112v32 32 128 32h-112z"/><path d="m352-352h32v96h-32z"/><path d="m336-368 16 16v96l-16 16z"/><path d="m352-416-16 16v-32h16z"/><path d="m-288 912h-96z"/><path d="m-768 144v-56-16-120z"/><path d="m96-368h-32z"/><path d="m96-400v-32z"/><path d="m216-432h8z"/><path d="m128-432v-64z"/><path d="m32-400h32-32-96z"/><path d="m64-400h32z"/><path d="m-160 48v160 32 32-184-16z"/><path d="m96-80v-32z"/><path d="m352-256h32z"/><path d="m384-352h-32z"/><path d="m352-256-4 4-12 12z"/><path d="m128-144h32z"/><path d="m352-176h-96-32z"/><path d="m336-208 16 16z"/><path d="m224-176-64 32z"/><path d="m96-112 32-32z"/><path d="m-64-112h-24-16-56z"/><path d="m224 16v32z"/><path d="m-576 176v-32 48 16 32z"/><path d="m-288 112h96-16-48-64z"/><path d="m224 304v96z"/><path d="m64 688v16z"/><path d="m192 704h-56-16-56z"/><path d="m0 832v-80-32 192z"/><path d="m-176 464v-56-16-8z"/><path d="m-544 272v128z"/><path d="m-632 656h-16-56z"/><path d="m-576-240h-32z"/><path d="m-736-240h-32z"/><path d="m-928 304v8z"/><path d="m-944 304h16z"/><path d="m-944 240v8z"/><path d="m-928 240h-16z"/><path d="m-256 1072h128z"/><path d="m-256 944v128z"/><path d="m-128 1072v-128z"/><path d="m-128 944 32-32z"/><path d="m-256 944-32-32z"/><path d="m32-368h-32z"/><path d="m-320-112v96 128-192z"/><path d="m-288-240h-16 16 208z"/><path d="m32-240v-128z"/><path d="m-544-272v160z"/><path d="m224 464v128 96z"/><path d="m-160 464v-128-32 192z"/><path d="m224 304h-160z"/><path d="m32 528v-32z"/><path d="m32 528v160z"/><path d="m-640-112h-64z"/><path d="m-240 960h96z"/><path d="m-224 1040v-64h64v64z"/><path d="m-240 1040v-64h16v64z"/><path d="m-160 1056h-64v-16h64z"/><path d="m-160 1040v-64h16v64z"/><path d="m-160 976h-64v-16h64z"/><path d="m-144 976h-16v-16h16z"/><path d="m-144 1056h-16v-16h16z"/><path d="m-224 1056h-16v-16h16z"/><path d="m-224 976h-16v-16h16z"/><path d="m336-368h16z"/><path d="m352-240h-16z"/><path d="m336-368v128h16v-128z"/><path d="m352-368v128z"/><path d="m336-240v-128z"/><path d="m368 504v-16z"/><path d="m368 488h16z"/><path d="m384 488v16z"/><path d="m384 504h-16z"/><path d="m384 488h-16v16h16z"/><path d="m312 432h16z"/><path d="m328 432v16z"/><path d="m328 448h-16z"/><path d="m312 448v-16z"/><path d="m328 432h-16v16h16z"/><path d="m328 560h-16z"/><path d="m328 544v16z"/><path d="m312 544h16z"/><path d="m312 560v-16z"/><path d="m328 544h-16v16h16z"/><path d="m-376 112h-16v-2h16z"/><path d="m-392 112v-2z"/><path d="m-376 110v2z"/><path d="m-376 112h-16z"/><path d="m-392 110h16z"/><path d="m-376-366h-16v-2h16z"/><path d="m-392-366v-2z"/><path d="m-376-368v2z"/><path d="m-392-368h16z"/><path d="m-376-366h-16z"/><path d="m-72 896h16z"/><path d="m-56 896v16z"/><path d="m-72 912v-16z"/><path d="m-56 912h-16z"/><path d="m-56 896h-16v16h16z"/><path d="m-328 896h16z"/><path d="m-328 912v-16z"/><path d="m-312 912h-16z"/><path d="m-312 896v16z"/><path d="m-312 896h-16v16h16z"/><path d="m-368 776v16z"/><path d="m-384 776h16z"/><path d="m-384 792v-16z"/><path d="m-368 792h-16z"/><path d="m-368 776h-16v16h16z"/><path d="m-16 808v-16z"/><path d="m-16 792h16z"/><path d="m0 792v16z"/><path d="m0 808h-16z"/><path d="m0 792h-16v16h16z"/><path d="m-344 544h-16z"/><path d="m-344 528v16z"/><path d="m-360 528h16z"/><path d="m-360 544v-16z"/><path d="m-344 528h-16v16h16z"/><path d="m-160 408v-16h16v16z"/><path d="m136 688h-16v-16h16z"/><path d="m384 504h-16v-16h16z"/><path d="m328 448h-16v-16h16z"/><path d="m328 560h-16v-16h16z"/><path d="m-56 912h-16v-16h16z"/><path d="m-312 912h-16v-16h16z"/><path d="m-368 792h-16v-16h16z"/><path d="m0 808h-16v-16h16z"/><path d="m-344 544h-16v-16h16z"/><path d="m-512 272v128z"/><path d="m-544 272h32v128h-32z"/><path d="m-544 400-32 32z"/><path d="m336-368v128z"/><path d="m-928 240v-64z"/><path d="m-928 240v8z"/><path d="m-928 240h-16v8h16z"/><path d="m-944 304v-56z"/><path d="m384-252v4-4-4z"/><path d="m384-356v4-4-4z"/><path d="m400-240h-8z"/><path d="m392-368h8z"/><path d="m384-252v-4l16 16h-8l-8-8z"/><path d="m384-352v-4-4l8-8h8z"/><path d="m384-248 8 8z"/><path d="m392-368-8 8z"/><path d="m384-256 16 16z"/><path d="m336-368h8z"/><path d="m336-400 16-16z"/><path d="m344-400h-8z"/><path d="m352-408-8 8h-8l16-16z"/><path d="m344-400 8-8z"/><path d="m336-400v32z"/><path d="m336-208h8z"/><path d="m336-240v32z"/><path d="m348-356-12-12h8l12 12z"/><path d="m384-360v4h-4z"/><path d="m352-352-4-4h8 24 4v4z"/><path d="m380-356h-24z"/><path d="m384-360-4 4z"/><path d="m356-356-12-12z"/><path d="m348-356 4 4-16-16z"/><path d="m336-240 12-12h8l-12 12z"/><path d="m380-252h4v4z"/><path d="m380-252h-24-8l4-4h32v4z"/><path d="m356-252h24z"/><path d="m344-240h-8z"/><path d="m380-252 4 4z"/><path d="m344-240 12-12z"/><path d="m352-192v16z"/><path d="m336-208h8l8 8v8z"/><path d="m352-200-8-8z"/><path d="m-512 400h-32z"/><path d="m-480 272v128z"/><path d="m-512 272h32v128h-32z"/><path d="m-928 248h-16z"/><path d="m-944 312v-8z"/><path d="m-928 312h-16z"/><path d="m-928 312h-16v-8h16z"/><path d="m384-252v4-4-4z"/><path d="m384-356v4-4-4z"/><path d="m384-356v4l16-16h-8l-8 8z"/><path d="m384-256v4 4l8 8h8z"/><path d="m384-352 16-16z"/><path d="m352-408v-8z"/><path d="m352-432v16z"/><path d="m336-400h8l8-8v-8z"/><path d="m224-432h8 104z"/><path d="m336-432h16-16-112z"/><path d="m352-256h32z"/><path d="m384-352h-32z"/><path d="m336-368 12 12h8l-12-12z"/><path d="m380-356h4v-4z"/><path d="m380-356h-24-8l4 4h32v-4z"/><path d="m348-252-12 12h8l12-12z"/><path d="m384-248v-4h-4z"/><path d="m384-256h-32l-4 4h8 24 4z"/><path d="m348-252 4-4-4 4-12 12z"/><path d="m352-192v-8z"/><path d="m352-200-8-8h-8l16 16z"/><path d="m336-208 16 16z"/><path d="m-480 400h-32z"/><path d="m-448 272v128z"/><path d="m-480 272h32v128h-32z"/><path d="m-416 272v128z"/><path d="m-448 400h-32z"/><path d="m-416 400h-32z"/><path d="m-448 272h32v128h-32z"/><path d="m-576 432v24z"/><path d="m-576 456v40-64z"/><path d="m-576 496 32 32z"/><path d="m384-252v4-4-4z"/><path d="m384-356v4-4-4z"/><path d="m400-240h-8z"/><path d="m392-368h8z"/><path d="m400-368v16 16z"/><path d="m384-352v-4-4l8-8h8z"/><path d="m392-368-8 8z"/><path d="m384-252v-4l16 16h-8l-8-8z"/><path d="m384-248 8 8z"/><path d="m384-256 16 16z"/><path d="m336-368h8z"/><path d="m336-400 16-16z"/><path d="m344-400h-8z"/><path d="m352-408-8 8h-8l16-16z"/><path d="m344-400 8-8z"/><path d="m-416 272h32z"/><path d="m336-208h8z"/><path d="m352-352-4-4h8 24 4v4z"/><path d="m384-360v4h-4z"/><path d="m348-356-12-12h8l12 12z"/><path d="m336-240 12-12h8l-12 12z"/><path d="m380-252h4v4z"/><path d="m380-252h-24-8l4-4h32v4z"/><path d="m344-240h-8z"/><path d="m356-252h24z"/><path d="m380-356h-24z"/><path d="m356-356-12-12z"/><path d="m384-360-4 4z"/><path d="m380-252 4 4z"/><path d="m344-240 12-12z"/><path d="m348-356 4 4-4-4-12-12z"/><path d="m336-208h8l8 8v8z"/><path d="m352-200-8-8z"/><path d="m-576 144v48z"/><path d="m-576 192v16z"/><path d="m-576 208v32z"/><path d="m-576 240 32 32z"/><path d="m-384 272v128z"/><path d="m-416 272h32v128h-32z"/><path d="m-928 248h-16v-8h16z"/><path d="m-944 312h16v-8h-16z"/><path d="m384-252v4-4-4z"/><path d="m384-356v4-4-4z"/><path d="m384-352v96-32-32z"/><path d="m400-256h-16z"/><path d="m400-352v16z"/><path d="m400-368v16z"/><path d="m400-336v16 32 32z"/><path d="m384-352h16z"/><path d="m400-368h-8l-8 8v4 4z"/><path d="m384-256h16v-32h-16z"/><path d="m400-256v16z"/><path d="m384-252v4l8 8h8l-16-16z"/><path d="m400-240-16-16z"/><path d="m352-408v-8z"/><path d="m336-400h8l8-8v-8z"/><path d="m-384 272h32z"/><path d="m384-256h-32l-4 4h8 24 4z"/><path d="m384-248v-4h-4z"/><path d="m348-252-12 12h8l12-12z"/><path d="m380-356h-24-8l4 4h32v-4z"/><path d="m380-356h4v-4z"/><path d="m336-368 12 12h8l-12-12z"/><path d="m352-352v32z"/><path d="m384-352h-32v32h32z"/><path d="m348-356-12-12 16 16z"/><path d="m352-192v-8z"/><path d="m352-192v-8l-8-8h-8z"/><path d="m-352 400h-32z"/><path d="m-384 400h-32z"/><path d="m-352 272v128z"/><path d="m-384 272h32v128h-32z"/><path d="m400-336v-16h-16v32h16z"/><path d="m384-288h16v-32h-16z"/><path d="m-352 272h32z"/><path d="m-160 16v32z"/><path d="m-160 88v-16z"/><path d="m352-288v-32z"/><path d="m352-288v32z"/><path d="m352-320v32h32v-32z"/><path d="m352-288v32h32v-32z"/><path d="m224 48v-32 8 48z"/><path d="m224 72v16z"/><path d="m224 88v184z"/><path d="m224 48v24 16 184-160z"/><path d="m-160 16 16-8 40-20 8-4z"/><path d="m64 208h-24z"/><path d="m40 208h-16z"/><path d="m24 208h-24z"/><path d="m40 208h-16-24 64z"/><path d="m0 208-32 32z"/><path d="m-192 16v-32z"/><path d="m-192 40v16z"/><path d="m-192 56v56z"/><path d="m-192 40v16 56-96z"/><path d="m-160 16h-32z"/><path d="m224 272v32z"/><path d="m-320 272v128z"/><path d="m-320 400h-32z"/><path d="m-352 272h32v128h-32z"/><path d="m-200-496h16 40-96z"/><path d="m-240-496h40z"/><path d="m-184-496h40z"/><path d="m-768 72v-120z"/><path d="m-768 144v-56z"/><path d="m-768 456v-56z"/><path d="m-768 472v-16-56 96z"/><path d="m-768 496v96z"/><path d="m216-416v-16z"/><path d="m336-432h16z"/><path d="m232-432h104z"/><path d="m232-432v16z"/><path d="m232-416v-16h-8-8v16z"/><path d="m216-432h-56z"/><path d="m-184-496v16z"/><path d="m-144-496 16 16 32 32z"/><path d="m-200-480v-16z"/><path d="m-184-480h-16z"/><path d="m-184-496h-16v16h16z"/><path d="m232-176h-8 32z"/><path d="m224-176h-8z"/><path d="m216-176v-16z"/><path d="m232-176v-16z"/><path d="m224-176h8v-16h-16v16z"/><path d="m232-192h-8-8z"/><path d="m-88-128h-16z"/><path d="m-64-112h-24z"/><path d="m-104-112h-56z"/><path d="m-88-128v16z"/><path d="m-88-128h-16v16h16z"/><path d="m-104-112v-16z"/><path d="m224 88h-16z"/><path d="m208 72h16z"/><path d="m208 72v16z"/><path d="m224 72h-16v16h16z"/><path d="m-144 88h-16z"/><path d="m-160 72h16z"/><path d="m-144 72v16z"/><path d="m-144 72h-16v16h16z"/><path d="m24 192h16z"/><path d="m24 208v-16z"/><path d="m40 192h-16v16h16z"/><path d="m40 192v16z"/><path d="m-160-112-64 32z"/><path d="m-208 40h16z"/><path d="m-192 40h-16v16h16z"/><path d="m-192 56h-16z"/><path d="m-208 56v-16z"/><path d="m-752 88h-16z"/><path d="m-752 72v16-8z"/><path d="m-768 72h16z"/><path d="m-752 72h-16v16h16z"/><path d="m-592 192h16z"/><path d="m-592 208v-16z"/><path d="m-576 192h-16v16h16z"/><path d="m-576 208h-16z"/><path d="m-160 392v16z"/><path d="m136 688h-16v16h16z"/><path d="m120 704v-16z"/><path d="m136 688v16z"/><path d="m192 704h-56z"/><path d="m120 688h16z"/><path d="m120 704h-56z"/><path d="m-648 640h16z"/><path d="m-176 384v-48z"/><path d="m-176 392v-8z"/><path d="m-176 464v-56z"/><path d="m-176 392h16z"/><path d="m-160 392h-16v16h16z"/><path d="m-160 408h-16z"/><path d="m-592 472v-16z"/><path d="m-576 472v24z"/><path d="m-576 472v24-40z"/><path d="m-592 456h16z"/><path d="m-576 456h-16v16h16z"/><path d="m-576 472h-16z"/><path d="m-752 472h-16z"/><path d="m-752 456v16z"/><path d="m-752 456h-16v16h16z"/><path d="m-768 456h16z"/><path d="m-632 640v16z"/><path d="m-632 640h-16v16h16z"/><path d="m-648 656v-16z"/><path d="m-648 656h-56z"/><path d="m-200 1056h16z"/><path d="m-184 1072h-16z"/><path d="m-200 1072v-16z"/><path d="m-184 1056v16z"/><path d="m-200 1056v16h16v-16z"/><path d="m-128 1000v16z"/><path d="m-128 1016h-16z"/><path d="m-144 1016v-16z"/><path d="m-144 1000h16z"/><path d="m-144 1000v16h16v-16z"/><path d="m-240 1000v16z"/><path d="m-240 1016h-16z"/><path d="m-256 1016v-16z"/><path d="m-256 1000h16z"/><path d="m-256 1000v16h16v-16z"/><path d="m-184 960h-16z"/><path d="m-200 944h16z"/><path d="m-200 960v-16z"/><path d="m-184 944v16z"/><path d="m-200 944v16h16v-16z"/><path d="m24 520h-16z"/><path d="m24 504v16z"/><path d="m8 504h16z"/><path d="m8 520v-16z"/><path d="m24 504h-16v16h16z"/><path d="m-120 520h-16z"/><path d="m-136 520v-16z"/><path d="m-136 504h16z"/><path d="m-120 504v16z"/><path d="m-120 504h-16v16h16z"/><path d="m8 664v-16z"/><path d="m8 648h16z"/><path d="m24 648v16z"/><path d="m24 664h-16z"/><path d="m24 648h-16v16h16z"/><path d="m-240-176v16z"/><path d="m-256-160v-16z"/><path d="m-256-176h16z"/><path d="m-240-160h-16z"/><path d="m-240-176h-16v16h16z"/></g><g id="b"><path d="m-64-496h96 96-96-96-32z"/><path d="m384 432v128z"/><path d="m384 560v-128z"/><path d="m400-352v-16l-16 16z"/><path d="m400-240v-16h-16z"/><path d="m400-368-16 16z"/><path d="m-96 912h40 56z"/><path d="m-768-240v128 64z"/><path d="m-768 472v24z"/><path d="m-720 640-48-48 16 16 48 48z"/><path d="m-448-368-96 96-32 32z"/><path d="m64-368h-32-32-64z"/><path d="m-448-368h128z"/><path d="m-64-400v-96z"/><path d="m352-416v-16h-16v16 16z"/><path d="m336-432h-104v16h104z"/><path d="m336-400v-16h-104-8v48h112z"/><path d="m160-432v16h56v-16z"/><path d="m224-416h-8-56v48h64z"/><path d="m96-368h64v-48-16z"/><path d="m64-400h32v-32h-64v32z"/><path d="m128-496h-96v64h64 32z"/><path d="m32-400v-32-64h-96v96z"/><path d="m336-400 16-16z"/><path d="m224-416h8-16z"/><path d="m96-432h32z"/><path d="m160-432-64 64z"/><path d="m-288-400v-48z"/><path d="m-96-448v48z"/><path d="m-96-464v-32z"/><path d="m-64-496h-32v32z"/><path d="m-64-368-32-32v32z"/><path d="m-64-496-32 32z"/><path d="m-96-400 32 32z"/><path d="m-200-480v-16h-40l-16 16z"/><path d="m-128-480-16-16h-40v16z"/><path d="m-96-368v-32-48l-32-32h-56-16-56l-32 32v48 32z"/><path d="m-288-448 32-32 16-16z"/><path d="m-288-368v-32l-32 32z"/><path d="m-288-400-32 32z"/><path d="m352-288v-32-32l-16-16v128l16-16z"/><path d="m224-368v32 128h8 104v-32-128z"/><path d="m160-368v32h56 8v-32z"/><path d="m256-176h96v-16l-16-16h-104v16 16z"/><path d="m232-192v-16h-8v16z"/><path d="m216-192h8v-16-128h-8z"/><path d="m224-176h-8-56-64v32h32 32z"/><path d="m160-176h56v-16-144h-56z"/><path d="m96-144v32l32-32z"/><path d="m96-80v-32-32-32h-72v64 32z"/><path d="m-64-112h88v-64h-56-56v48 16z"/><path d="m-32-80h56v-32h-88z"/><path d="m-88-128v-48h-16v48z"/><path d="m-160-112h56v-16-48h-152v64z"/><path d="m-160-112h-96v32h32z"/><path d="m24-48h104l-32-32h-72-56v32z"/><path d="m192 8h24l-56-56h-32-104v32 24z"/><path d="m24 8v-24h-56v24z"/><path d="m-32-16h56v-32h-56l-32 32z"/><path d="m192 8h-168-56v16h72 152z"/><path d="m224 16-8-8h-24v16h32z"/><path d="m192 24h-152v48h168 16v-48z"/><path d="m40 72v-48h-72v56h56 16z"/><path d="m208 72h-168v8 8h120 48z"/><path d="m24 192v-112h-56v64 64h32 24z"/><path d="m40 88v-8h-16v112h16z"/><path d="m224 272v-184h-16-48v120 32 64h64z"/><path d="m160 88h-120v104 16h24 96z"/><path d="m96 272v32h64v-64h-64z"/><path d="m96 240h64v-32h-96z"/><path d="m64 304h32v-32z"/><path d="m-32 304h32l-32-32z"/><path d="m0 208h-32v32z"/><path d="m-88-16h-8l-8 4v124h8 8z"/><path d="m-160 72h16v-64l-16 8z"/><path d="m-32 80v-56-16-24h-32-24v128 8l24 24h32z"/><path d="m-104 112v-124l-40 20v64 16 56h40z"/><path d="m-88 112h-8l8 8z"/><path d="m-88 120-8-8h-8v32h40z"/><path d="m-144 88h-16v56h16z"/><path d="m-160-16v-32-32h-32v64 32h32z"/><path d="m-208 16h16l-32-32v32z"/><path d="m-256 16h32v-32-64h-32z"/><path d="m-192 16h-16v24h16z"/><path d="m-208 56v-16-24h-16-32v96h48z"/><path d="m-208 112h16v-56h-16z"/><path d="m-64 144h-40-40-16v128 32h128v-32-32-32-64z"/><path d="m-320 272h32v128h-32z"/><path d="m-160 336h-16v48 8h16z"/><path d="m-544-176h-32v128h32z"/><path d="m-576-48v-128-64l-16 16v208h16z"/><path d="m-592-16v16 192h16v-48-32-128z"/><path d="m-592-16v-208l-80 80v144h80z"/><path d="m-672 0v80 128h80v-16-192z"/><path d="m-752-64-16 16v120h16z"/><path d="m-672 0v-144l-80 80v136 8h80z"/><path d="m-752 80v8 216h80v-96-128z"/><path d="m-752 304v8 72h80v-80z"/><path d="m-544 112h-32v32z"/><path d="m-544 272-32-32v144 48l32-32z"/><path d="m-632 384h40 16v-144-32h-16-80v96 80z"/><path d="m-752 304v-216h-16v56 168h16z"/><path d="m-768 312v56 32 56h16v-72-72z"/><path d="m256 432-32-32v64 128l32-32z"/><path d="m136 704h56v-16h-56z"/><path d="m64 688v16h56v-16z"/><path d="m-176 408v56h16v-56z"/><path d="m32 528h-32v160 32l32-32z"/><path d="m0 528h32v-32h-192l-32 32z"/><path d="m-384 528h-32v128l32 32z"/><path d="m-576 456v-24-48h-16v72z"/><path d="m-592 496v-24-16-72h-40v112 32h40z"/><path d="m-592 496h16v-24h-16z"/><path d="m-544 528-32-32h-16v32z"/><path d="m-544 528h-48-40v112 16h184 32v-128z"/><path d="m-752 456v16 24h120v-112h-40-80z"/><path d="m-768 496h16v-24h-16z"/><path d="m-752 496h-16v96l48 48h72 16v-112-32z"/><path d="m-704 656h56v-16h-72z"/><path d="m-320 272h-32-32-32-32-32-32-32z"/><path d="m160-336v-32l-32 32v128l32 32z"/><path d="m-64-368h-32-192v32h32 192z"/><path d="m-256-176-32-32v32z"/><path d="m24-176h72 64l-32-32h-160v32z"/><path d="m-256-176v-32h-32z"/><path d="m-256-176h-32v32 32h32z"/><path d="m-544-48h16z"/><path d="m-320 112h64l-32-32h-32-32v32z"/><path d="m256 432v128z"/><path d="m384 432h-128z"/><path d="m256 560h128z"/><path d="m224 400v-96l-32 32v96 32h32z"/><path d="m-96 912h96l-32-32h-16-104-16-56v32z"/><path d="m64 304h-64-32-128l32 32h192z"/><path d="m-288 272v128z"/><path d="m-288 400h-32z"/><path d="m-384 688v224l32-32v-56-16-112-8z"/><path d="m64 688h56 16 56 32l-32-32h-128l-32 32z"/><path d="m-224 528h-64-96l32 32h2 126z"/><path d="m0 528-32 32v96 32h32z"/><path d="m-480 272h32z"/><path d="m-544 272h32z"/><path d="m-512 272h32z"/><path d="m-448 272h32z"/><path d="m-160-80v32z"/><path d="m-160-16v32z"/><path d="m-160-48v32z"/><path d="m-160 16v32 24z"/><path d="m-160 144v-56 184z"/><path d="m128-48h32z"/><path d="m336-240 12-12 4-4z"/><path d="m352-176h-96z"/><path d="m232-176h24z"/><path d="m352-192-16-16z"/><path d="m96-80 32 32z"/><path d="m-32-48v-32z"/><path d="m-32-80-32-32z"/><path d="m96 272v-32z"/><path d="m160-48 56 56 8 8z"/><path d="m-96-16h8 24z"/><path d="m-64-16 32-32z"/><path d="m-32 240v32z"/><path d="m96 240-32-32z"/><path d="m-160-80h-32z"/><path d="m-192-16v-64z"/><path d="m-192 40v-24z"/><path d="m-448 112h-96z"/><path d="m-320 112h-32-96z"/><path d="m-224-80v64z"/><path d="m-224-16 32 32z"/><path d="m-544 112-32 32z"/><path d="m-160 496v-32z"/><path d="m-160 336v-32z"/><path d="m-160 304v-32z"/><path d="m384 560h-128z"/><path d="m256 432h128z"/><path d="m224 400 32 32z"/><path d="m0 304h64z"/><path d="m-32 272 32 32z"/><path d="m64 304 32-32z"/><path d="m192 688v16z"/><path d="m224 688h-32z"/><path d="m224 592v96z"/><path d="m256 560-32 32z"/><path d="m64 688h-32z"/><path d="m32 688-32 32z"/><path d="m-160 464h-16z"/><path d="m-176 336h16z"/><path d="m-416 528h32 96-96-24z"/><path d="m-224 528h32-88-8z"/><path d="m-192 528 32-32z"/><path d="m-544 528h128z"/><path d="m-384 688v64 160z"/><path d="m-448 656h-184z"/><path d="m-416 656h-32z"/><path d="m-384 688-32-32z"/><path d="m-608-240h-128z"/><path d="m-752-64 80-80 80-80 16-16h-32-128-32v192z"/><path d="m-928 368v-56z"/><path d="m-928 312v-8z"/><path d="m-768 312v-168l-32 32v192h32z"/><path d="m-800 368 32 32v-32z"/><path d="m-800 176h-128v64 64 8 56h128z"/><path d="m-800 368h-128z"/><path d="m-928 176h128-32z"/><path d="m-800 176 32-32z"/><path d="m-800 368 16 16 16 16z"/><path d="m-928 304v-64h-16v8 56z"/><path d="m-928 304h-16z"/><path d="m-944 248v-8z"/><path d="m-944 240h16z"/><path d="m-256 944v128h128v-128z"/><path d="m-128 944 32-32h-128-64l32 32z"/><path d="m336-240v-128h16v128z"/><path d="m-200 1072v-16h16v16z"/><path d="m-144 1016v-16h16v16z"/><path d="m-256 1016v-16h16v16z"/><path d="m-200 960v-16h16v16z"/><path d="m24 520h-16v-16h16z"/><path d="m-120 520h-16v-16h16z"/><path d="m24 664h-16v-16h16z"/><path d="m-240-160h-16v-16h16z"/><path d="m-576-176h32z"/><path d="m-576-272v96z"/><path d="m-576-176h32v-96h-32z"/><path d="m-480-368v32z"/><path d="m-288-368h-192z"/><path d="m-480-368v32h192v-32z"/><path d="m-288 272h32z"/><path d="m-256 272v128z"/><path d="m-256 400h-32z"/><path d="m-288 272h32v128h-32z"/><path d="m-544-176h-32z"/><path d="m-544-176h16z"/><path d="m-544-176v-16z"/><path d="m-528-192v16z"/><path d="m-544-192h16z"/><path d="m-528-192h-16v16h16z"/><path d="m-528-48h16z"/><path d="m-544-48h-32z"/><path d="m-528-48v16z"/><path d="m-544-32v-16z"/><path d="m-528-32h-16z"/><path d="m-528-48h-16v16h16z"/><path d="m-544-272 64-64 32-32-128 128z"/><path d="m-480-336-64 64z"/><path d="m-288-368h-32z"/><path d="m-320 272h-224z"/><path d="m-288 272h-32z"/><path d="m-576-208v-32 64z"/><path d="m-512-176h-16z"/><path d="m-288-336v-32h-32-128l-32 32z"/><path d="m-528-176h16l-16-16z"/><path d="m-544-208v16h16z"/><path d="m128-208v-128z"/><path d="m-32-208h160-192z"/><path d="m-256-336h-32-192 192z"/><path d="m-32-336h-32-192 160z"/><path d="m-288-208v32z"/><path d="m-288-336v-32z"/><path d="m-32-336h160l32-32h-64-32-128v32z"/><path d="m-32-208h-32-192v32h152 16 56z"/><path d="m-544-192v-16-64l-32 32v32l32 32z"/><path d="m-576-208v32h32z"/><path d="m-544-32v16l16-16z"/><path d="m-512-48h-16v16z"/><path d="m-288 80h-32z"/><path d="m-288-176v32z"/><path d="m-544-16v96z"/><path d="m-288-112v192l32 32v-96-96-32z"/><path d="m-512-176h-16-16v128h16 16z"/><path d="m-352 80h-192l-32 32h32 96 96z"/><path d="m-544-16v-16-16h-32v32 128l32-32z"/><path d="m-544 272v128z"/><path d="m-352 808v16h2v-16z"/><path d="m-280 878h-16v2h16z"/><path d="m-350 680h-2v8 8h2z"/><path d="m-352 560v16h2v-16z"/><path d="m-152 878h-16v2h16z"/><path d="m-32 878h-16v2h16z"/><path d="m-256 272h32v128h-32z"/><path d="m192 336v96z"/><path d="m-352 880h56z"/><path d="m-224 880h56-56-56z"/><path d="m-48 880h-48-56z"/><path d="m96 336h-32-192 192z"/><path d="m192 656h-48-32-48z"/><path d="m32 464h32-32-128-32z"/><path d="m-32 560v96z"/><path d="m-168 560h-56-126z"/><path d="m-288 400h32 32-32-32-32z"/><path d="m-224 272v128z"/><path d="m-352 576v104z"/><path d="m-352 696v112-56z"/><path d="m-352 824v56z"/><path d="m192 464v192l32 32v-96-128z"/><path d="m-224 880h-56-16-56l-32 32h96 64z"/><path d="m64 464h-32v32z"/><path d="m32 464h-160l-32 32h192z"/><path d="m-128 336-32-32v32 56 16 56 32l32-32z"/><path d="m96 336h96l32-32h-64-64-32v32z"/><path d="m-320 400h-224 32 32 32 32 32 32z"/><path d="m-352 680v-104-16l-32-32v160h32z"/><path d="m64 656v-160h-32v32 160z"/><path d="m64 496v-32l-32 32z"/><path d="m-168 560h136l32-32h-192-32v32z"/><path d="m-32 688v190 2l32 32v-192-32z"/><path d="m-544 328v16h2v-16z"/><path d="m126-280v16h2v-16z"/><path d="m-544-272h-32z"/><path d="m-544-176h-32v-96h32z"/><path d="m-288-336v-32z"/><path d="m-480-336v-32h192v32z"/><path d="m144 496h-32v128h32z"/><path d="m112 496h32z"/><path d="m144 624h-32z"/><path d="m112 496v128z"/><path d="m-96 384h128z"/><path d="m32 384v32z"/><path d="m-96 416v-32z"/><path d="m32 416h-128z"/><path d="m-96 384v32h128v-32z"/><path d="m192 432v128 96-192z"/><path d="m192 336h-96z"/><path d="m64 496v160z"/><path d="m64 464v32z"/><path d="m192 432v-96l-48 48v112 64h48z"/><path d="m144 560v64 32h48v-96z"/><path d="m144 384 48-48h-96-32v48z"/><path d="m64 464v32h48 32v-112z"/><path d="m64 464 80-80h-80z"/><path d="m112 624v-128h-48v160h48z"/><path d="m112 656h32v-32h-32z"/><path d="m144 560v-64 128z"/><path d="m-128 384v-48 128z"/><path d="m64 336h-192v48h32 128 32z"/><path d="m64 464v-80h-32v32 48z"/><path d="m-96 464h128v-48h-128z"/><path d="m-96 416v-32h-32v80h32z"/><path d="m-128-496h-128z"/><path d="m384 560v-128z"/><path d="m-352 824v-16h2v16z"/><path d="m-280 880h-16v-2h16z"/><path d="m-352 696v-16h2v16z"/><path d="m-352 576v-16h2v16z"/><path d="m-152 880h-16v-2h16z"/><path d="m-32 880h-16v-2h16z"/><path d="m8 878v2h-8v-2z"/><path d="m0 784v-96h24v190h-16-8z"/><path d="m24 878v-190h40v32 32 128h-32-8z"/><path d="m-32 656v-96h32v128 96h-32z"/><path d="m0 784v94 2h-32v-2-94z"/><path d="m32 560h32v128h-40-24v-128z"/><path d="m-288 464h96v40h-158-2v-8-32z"/><path d="m-350 520h158v8h-160v-8z"/><path d="m-192 504v16h-158v-16z"/><path d="m-256 448 32-16h32v32h-96z"/><path d="m-256 400v16l-32-16z"/><path d="m-256 416v-16h32v32h-32z"/><path d="m-256 432h32l-32 16z"/><path d="m-192 520v-16-40-32-48h32 64v80 32 32h-32-64z"/><path d="m-128 560h-40-182-2v-32h160 64z"/><path d="m-96 528h96v32h-32-96v-32z"/><path d="m-96 496h128v32h-32-96z"/><path d="m0 528h32v32h-32z"/><path d="m32 560v-32-32h32v64z"/><path d="m-96 384h32v80h-32z"/><path d="m96 720-32 32v-32z"/><path d="m64 688v-128-64h64 64 32v96 96l-32 32h-96-32z"/><path d="m128 496h-64-32-128v-32h32 192z"/><path d="m192 464v32h-64v-32z"/><path d="m224 496v-96l32 32v128l-32 32z"/><path d="m-544-48-16 16-16-16z"/><path d="m-512-48-32 32-16-16 16-16z"/><path d="m-544-176h32v128h-32z"/><path d="m-576-176h32v128h-32-128v-128z"/><path d="m-544-208 32 32h-32l-16-16z"/><path d="m-560-192 16 16h-32z"/><path d="m-192 240 32-32v64 112h-32z"/><path d="m-224 400v-128-32h32v144 48h-32z"/><path d="m-256 240h32v32h-64z"/><path d="m-160 272h96v112h-32-64z"/><path d="m-256 112v-64-128h96v224h-96z"/><path d="m-160 144v64l-32 32h-32-32v-96z"/><path d="m-32-80v32 128 64h-128v-224z"/><path d="m-32 144v32 32 64h-32-96v-64-64z"/><path d="m0 208h-32v-32z"/><path d="m128 304h64v160h-64z"/><path d="m192 464v-160h32v80 16 96h-32z"/><path d="m224 304h-32-64v-32h74.6667z"/><path d="m0 208h96 64l42.6667 64h-74.6667-160v-64z"/><path d="m-32-48 32 32v24 16 24l-32 32z"/><path d="m-288-144v-32h32v96 128h-32z"/><path d="m-256 48v64l-32-32v-32z"/><path d="m-256-368v-128h128v128z"/><path d="m-96-336h-160-32l32-32h128z"/><path d="m-64-176h32v32 64h-128-96v-96z"/><path d="m-32-144v-32h32z"/><path d="m-64-176h-192-32v-32h224z"/><path d="m128-208v32h-128-32-32v-32z"/><path d="m-256-496v128z"/><path d="m-128-368v-128z"/><path d="m-256-368-32 32z"/><path d="m-544-16v96z"/><path d="m-296 880h16 56-128z"/><path d="m-168 880h16 56-128z"/><path d="m-32 880h32 8-56z"/><path d="m32 880h32z"/><path d="m224 304v56 16 8z"/><path d="m224 400v-16z"/><path d="m224 592v16 48 32z"/><path d="m256 560h128z"/><path d="m384 432h-128z"/><path d="m256 432-32-32z"/><path d="m224 592 32-32z"/><path d="m-288 80h-32z"/><path d="m-32-80v-64 96z"/><path d="m128-176h-64-64z"/><path d="m128-176v-32z"/><path d="m128-208v-128z"/><path d="m-32-144 32-32z"/><path d="m0 8v16z"/><path d="m0 48v-24z"/><path d="m0 48-32 32z"/><path d="m-480-336-64 64z"/><path d="m-32 176v-32-64z"/><path d="m128 272v192l-64-64v-64z"/><path d="m-32 272h160l-64 64h-64l-64-64z"/><path d="m-64 384v-112l64 64v64l-64 64z"/><path d="m-320 272h-224 64 64z"/><path d="m-256 240-32 32z"/><path d="m-288 80 32 32z"/><path d="m-288 400h-32z"/><path d="m-256 416-32-16z"/><path d="m64 752v64 64z"/><path d="m96 720h96z"/><path d="m224 688-32 32z"/><path d="m64 752 32-32z"/><path d="m-352 496v8z"/><path d="m-352 752v56 16 56z"/><path d="m-704-176v128z"/><path d="m-704-48h128z"/><path d="m-288 272h64-32-32-32z"/><path d="m-544-272v64z"/><path d="m-64-208h-224 32z"/><path d="m128-336h-160z"/><path d="m-544-208 16 16 16 16z"/><path d="m-512-48-16 16-16 16z"/><path d="m-320 80h-224 192z"/><path d="m-288-144v192 32-192z"/><path d="m-512-176v128z"/><path d="m-544 272v128z"/><path d="m-168 880v-2z"/><path d="m-48 878h16z"/><path d="m-168 878h16z"/><path d="m-128 560h96-136z"/><path d="m-32 656v128 94-190z"/><path d="m-48 880v-2z"/><path d="m-152 878v2z"/><path d="m-350 576h-2z"/><path d="m-320 400h-224z"/><path d="m-350 560v16z"/><path d="m-350 696h-2z"/><path d="m-352 680h2z"/><path d="m-350 680v16z"/><path d="m-280 878v2z"/><path d="m-352 808h2z"/><path d="m-296 880v-2z"/><path d="m-296 878h16z"/><path d="m-350 824h-2z"/><path d="m-350 808v16z"/><path d="m-544 344v-16h2v16z"/><path d="m-544 328h2z"/><path d="m-542 344h-2z"/><path d="m-544 344v-16z"/><path d="m-542 328v16z"/><path d="m126-264v-16h2v16z"/><path d="m126-280h2z"/><path d="m128-264h-2z"/><path d="m128-280v16z"/><path d="m126-264v-16z"/><path d="m0 336h64v64h-64z"/><path d="m64 400 64 64h-192l64-64z"/><path d="m-48 880h-48z"/><path d="m-352 496v-32z"/><path d="m-352 528v-8z"/><path d="m24 880h-16v-2h16z"/><path d="m-352 520v-16h2v16z"/><path d="m-350 520h-2z"/><path d="m-350 504v16z"/><path d="m-352 504h2z"/><path d="m8 880v-2z"/><path d="m8 878h16z"/><path d="m24 878v2z"/><path d="m-544 272v128z"/><path d="m24 880h-72 56z"/><path d="m32 880h-8z"/><path d="m-352 464h64z"/><path d="m128-208v-128h-64v128z"/><path d="m128-176v-32h-64v32z"/><path d="m-352 528v-32 8 16z"/><path d="m-352 720v-192 32 16 104 16 56z"/><path d="m-352 720v32 128l64-64v-96z"/><path d="m-352 496h64v-32h-64z"/><path d="m-224 880v-64h-64l-64 64z"/><path d="m64-336h64-160-64 64 32z"/><path d="m64-208v-128h-64v128z"/><path d="m64-176v-32h-64v32z"/><path d="m-480 272h-64v128h64z"/><path d="m-288 496h-64v32 192h64z"/><path d="m32 816v-64h-32-96v64z"/><path d="m-224 816v-64l-64 64z"/><path d="m64 816h-32v64h32z"/><path d="m32 816h-128v64h48 72 8z"/><path d="m-96 816h-128v64h128z"/><path d="m224 376v8z"/><path d="m-16 8h16z"/><path d="m0 8v-24z"/><path d="m0 24h-16z"/><path d="m0 8h-16v16h16z"/><path d="m-16 8v16z"/><path d="m72 208h24z"/><path d="m0 208h56z"/><path d="m0 208h56 16 24z"/><path d="m208 376v-16z"/><path d="m224 376h-16z"/><path d="m224 360h-16v16h16z"/><path d="m208 360h16z"/><path d="m72 224h-16z"/><path d="m56 224v-16z"/><path d="m72 208h-16v16h16z"/><path d="m72 208v16z"/><path d="m312 432h16z"/><path d="m328 432v16z"/><path d="m328 448h-16z"/><path d="m312 448v-16z"/><path d="m328 432h-16v16h16z"/><path d="m368 504v-16z"/><path d="m368 488h16z"/><path d="m384 488v16z"/><path d="m384 504h-16z"/><path d="m384 488h-16v16h16z"/><path d="m328 560h-16z"/><path d="m328 544v16z"/><path d="m312 544h16z"/><path d="m312 560v-16z"/><path d="m328 544h-16v16h16z"/><path d="m-648-176h16z"/><path d="m-632-176v16z"/><path d="m-632-160h-16z"/><path d="m-648-160v-16z"/><path d="m-632-176h-16v16h16z"/><path d="m-704-104v-16z"/><path d="m-704-120h16z"/><path d="m-688-120v16z"/><path d="m-688-104h-16z"/><path d="m-688-120h-16v16h16z"/><path d="m-632-48h-16z"/><path d="m-648-64h16z"/><path d="m-648-48v-16z"/><path d="m-632-64v16z"/><path d="m-632-64h-16v16h16z"/><path d="m-128-440v16z"/><path d="m-144-440h16z"/><path d="m-144-424v-16z"/><path d="m-128-424h-16z"/><path d="m-144-440v16h16v-16z"/><path d="m-200-496h16z"/><path d="m-184-496v16z"/><path d="m-184-480h-16z"/><path d="m-200-480v-16z"/><path d="m-200-496v16h16v-16z"/><path d="m-240-440v16z"/><path d="m-256-440h16z"/><path d="m-256-424v-16z"/><path d="m-240-424h-16z"/><path d="m-256-440v16h16v-16z"/><path d="m-360 384h16z"/><path d="m-344 384v16z"/><path d="m-344 400h-16z"/><path d="m-360 400v-16z"/><path d="m-344 384h-16v16h16z"/><path d="m-360 272h16z"/><path d="m-344 272v16z"/><path d="m-344 288h-16z"/><path d="m-360 288v-16z"/><path d="m-344 272h-16v16h16z"/><path d="m-280-184v-16z"/><path d="m-264-184h-16z"/><path d="m-264-200v16z"/><path d="m-280-200h16z"/><path d="m-264-200h-16v16h16z"/><path d="m-120-200v16z"/><path d="m-120-184h-16z"/><path d="m-136-184v-16z"/><path d="m-136-200h16z"/><path d="m-120-200h-16v16h16z"/><path d="m-280-40v-16z"/><path d="m-264-40h-16z"/><path d="m-264-56v16z"/><path d="m-280-56h16z"/><path d="m-264-56h-16v16h16z"/></g><g id="c"><path d="m-256-336h-32-192 192z"/><path d="m-32-336h-64-160z"/><path d="m-288-336h-192z"/><path d="m-256-336h160l-32-32h-128l-32 32z"/><path d="m-256-496v128h128v-128z"/><path d="m-96-336-32-32z"/><path d="m-544-272v64z"/><path d="m-544-144v128 96z"/><path d="m224 360v-56z"/><path d="m384 432h-128v128h128z"/><path d="m256 432-32-32v192l32-32z"/><path d="m-256 464v-16l-32 16z"/><path d="m64 656v-192h-32v32 32 160h32z"/><path d="m32 688v64h32v-32-32z"/><path d="m0 464h-192-32v32h224z"/><path d="m32 496v-32h-32v32z"/><path d="m64 720v32l32-32z"/><path d="m224 688h-160v32h32 96z"/><path d="m224 688v-32h-32-128v32z"/><path d="m224 592v-192-16h-16-16v48 176h32z"/><path d="m192 608v48h32v-48z"/><path d="m-288 272h-32-96v128h96 32z"/><path d="m-256 272v-32l-32 32v128l32 16z"/><path d="m96 304v-80h-24-16-88v80z"/><path d="m56 224v-16h-56-32v16z"/><path d="m-32 176v32h32z"/><path d="m96 208h-24v16h24z"/><path d="m160 336h32v-32h-96-128v32z"/><path d="m224 376h-16v8h16z"/><path d="m224 304h-16v56h16z"/><path d="m208 376v-16-56h-16v32 48h16z"/><path d="m192 304h16 16l-64-96h-64v16 80z"/><path d="m0 48v-24h-16-16v56z"/><path d="m-16 8v-40l-16-16v72h16z"/><path d="m0 8v-24l-16-16v40z"/><path d="m-224-144v-32h-32v224h32z"/><path d="m-256 48v64 128 32h32v-192-32z"/><path d="m-256 272v144 32 16h32v-160-32z"/><path d="m-192 16v-128-32h-32v192 32h32z"/><path d="m-224 80v192 32h32v-64-160z"/><path d="m-224 304v160h32v-160z"/><path d="m-256-176h-32v32 192h32z"/><path d="m-288 48v32l32 32v-64z"/><path d="m-64-112v-32h-128v32z"/><path d="m-32 24v-72-96h-32v32 192h32z"/><path d="m-64 80v32 192h32v-80-16-32-96z"/><path d="m-64 304v32h32v-32z"/><path d="m-192-144h128 32l32-32h-64-160v32z"/><path d="m-64-208h-192-32v32h32 32 160z"/><path d="m0-176v-32h-32-32v32z"/><path d="m32 752h-32z"/><path d="m192 384v-48 80 16z"/><path d="m-288-208h32z"/><path d="m0-208h-32z"/><path d="m0-208v-128z"/><path d="m-480-336-64 64z"/><path d="m-224 528v192 32z"/><path d="m64 464h-32z"/><path d="m-192 240v64 160-80z"/><path d="m-192 16v64 160-96-32z"/><path d="m160 336h-192-32 176z"/><path d="m-64 80v-192 32 128 64z"/><path d="m32 496v32z"/><path d="m192 656h-48-32-48z"/><path d="m0 496h-224z"/><path d="m-288 80h-32z"/><path d="m-288-176v32z"/><path d="m-288-176v-32z"/><path d="m-224 464h-32-32z"/><path d="m-320 80h-224z"/><path d="m-16-32 16 16-32-32z"/><path d="m-256 416v16 16z"/><path d="m-256 112v32 96z"/><path d="m160 208h-64z"/><path d="m-32 176 32 32z"/><path d="m224 304-21.3333-32-42.6667-64z"/><path d="m-288 272h-32z"/><path d="m-320 400h-96-64-64z"/><path d="m-416 272h-64v128h64z"/><path d="m-256 448-32 16z"/><path d="m64 752h-32v64h32z"/><path d="m-96 752h-128v64h128z"/><path d="m-224 496v-32h-64v32z"/><path d="m-224 720v-192-32h-64v224z"/><path d="m-224 752v-32h-64v96z"/><path d="m-544-144v-64l-32 32v128l32 32z"/><path d="m-576-48v-128h-128v128z"/><path d="m-576-176h-128z"/><path d="m-544-208-16 16-16 16z"/><path d="m-576-48 16 16 16 16z"/><path d="m328 448h-16v-16h16z"/><path d="m384 504h-16v-16h16z"/><path d="m328 560h-16v-16h16z"/><path d="m-632-160h-16v-16h16z"/><path d="m-688-104h-16v-16h16z"/><path d="m-632-48h-16v-16h16z"/><path d="m-144-424v-16h16v16z"/><path d="m-200-480v-16h16v16z"/><path d="m-256-424v-16h16v16z"/><path d="m-344 400h-16v-16h16z"/><path d="m-344 288h-16v-16h16z"/><path d="m-264-184h-16v-16h16z"/><path d="m-120-184h-16v-16h16z"/><path d="m-264-40h-16v-16h16z"/><path d="m-144 48v-128z"/><path d="m-144 304v-128z"/><path d="m-112-80v128z"/><path d="m-112 176v128z"/><path d="m-144 176h32z"/><path d="m-112 48h-32z"/><path d="m-144-80h32z"/><path d="m-112-80h-32v128h32z"/><path d="m-112 304h-32z"/><path d="m-112 176h-32v128h32z"/><path d="m-64 416v-32z"/><path d="m64 384v32z"/><path d="m-64 384h128z"/><path d="m64 416h-128z"/><path d="m-64 384v32h128v-32z"/><path d="m112 496v128z"/><path d="m144 624h-32z"/><path d="m112 496h32z"/><path d="m144 496h-32v128h32z"/><path d="m192 432v32 192-48z"/><path d="m-144-112h80-128z"/><path d="m32 464h-96-128 192z"/><path d="m-192-112v128z"/><path d="m-112-80h48v-32h-80v32z"/><path d="m-144 48v-128-32h-48v128 96h48z"/><path d="m-192 112v32h32 16v-32z"/><path d="m112 336h-176l-48 48h48 128 48z"/><path d="m144 384 48-48h-32-48v48z"/><path d="m192 336-48 48-32 32h32 48z"/><path d="m-64 48v-128h-48v128z"/><path d="m-64 112v-64h-48-32v64 32 32h32 48z"/><path d="m-144 176v-32h-16v160h16z"/><path d="m-64 304v-128h-48v128z"/><path d="m-112 384 48-48v-32h-48-32-16v80z"/><path d="m-160 304v-160h-32v96 144h32z"/><path d="m64 416v48l48-48 32-32h-32-48z"/><path d="m144 464v-48h-32v48z"/><path d="m192 432v-16h-48v48h48z"/><path d="m112 416-48 48h48z"/><path d="m32 464h32v-48h-128v48z"/><path d="m-64 464v-48-32h-48l-80 80z"/><path d="m-160 384h-32v80l80-80z"/><path d="m192 336h-32z"/><path d="m-64 112v64 128 32-32z"/><path d="m144 496v128z"/><path d="m144 464v32 128 32h48v-192z"/><path d="m112 496h32v-32h-32z"/><path d="m112 656h32v-32h-32z"/><path d="m64 464v192z"/><path d="m64 464v192h48v-32-128-32z"/></g><g id="d"><path d="m0-336h-32z"/><path d="m-544-272v64 64z"/><path d="m0 752h-224 128z"/><path d="m-544-336h64l-64 64z"/><path d="m-32-208h-224 192z"/><path d="m-224 496v32z"/><path d="m32 528v224-64z"/><path d="m32 496h-32z"/><path d="m-320 80h-224z"/><path d="m-288-144v224-32z"/></g></defs><g stroke="#000"><use fill="none" stroke-miterlimit="0" stroke-width="10" xlink:href="#a"/><use fill="#c4c4c4" xlink:href="#a"/><use fill="none" stroke-miterlimit="0" stroke-width="10" xlink:href="#b"/><use fill="#d9d9d9" xlink:href="#b"/><use fill="none" stroke-miterlimit="0" stroke-width="10" xlink:href="#c"/><use fill="#ebebeb" xlink:href="#c"/><use fill="none" stroke-miterlimit="0" stroke-width="10" xlink:href="#d"/><use fill="#fff" xlink:href="#d"/></g></svg>