<svg viewBox="-448 -1280 1600 1664" xmlns="http://www.w3.org/2000/svg" xmlns:xlink="http://www.w3.org/1999/xlink"><defs><g id="a"><path d="m512-720v80h-128v-80z"/><path d="m425.7391-953.7391 22.2609-6.2609h64v160h-128v-64-32l6.2609-22.2609z"/><path d="m512-800v-160h160v192h-160z"/><path d="m720-960h48v192h-48z"/><path d="m768-960v192z"/><path d="m384-720v80z"/><path d="m384-864v64 160z"/><path d="m512-640h-128z"/><path d="m672-960h-160-64z"/><path d="m768-960h-48z"/><path d="m512-640v-80z"/><path d="m512-800v32z"/><path d="m720-768h48z"/><path d="m672-768h64-224z"/><path d="m672-960h96v80 112h-32-64z"/><path d="m512-800v32 128h-128v-160z"/><path d="m768-864v224z"/><path d="m368-864v-96z"/><path d="m592-640h-224z"/><path d="m592-960h176z"/><path d="m592-736v96h176v-96z"/><path d="m768-960h-176v224h176z"/><path d="m368-736v96h224v-96z"/><path d="m592-960h-224v224h224z"/><path d="m688-480-96 32v32l96-32z"/><path d="m592-448 96-32z"/><path d="m512-384h32z"/><path d="m480-256v-32z"/><path d="m496-224-16-32z"/><path d="m480-288 32-96z"/><path d="m512-384v96l32-96z"/><path d="m512-384-32 96h32z"/><path d="m480-256 16 32h16v-32z"/><path d="m480-288v32h32v-32z"/><path d="m448-944v-48z"/><path d="m512-912-64-32v-48l64 32z"/><path d="m592-944-48 32v-48l48-32z"/><path d="m544-912h-32v-48h32z"/><path d="m512-960h32z"/><path d="m544-960 48-32z"/><path d="m512-960-64-32v32z"/><path d="m448-992 64 32z"/><path d="m592-992-48 32h48z"/><path d="m544-960v48l48-32v-16z"/><path d="m512-960h-64v16l64 32z"/><path d="m544-960h-32v48h32z"/><path d="m512-576v-64z"/><path d="m416-951 9.7391-2.7391-35.4782 35.4782 2.7391-9.7391z"/><path d="m768-960v96z"/><path d="m368-640v-224z"/><path d="m768-640h-176z"/><path d="m368-960h224z"/><path d="m768-640h-176v-96h176z"/><path d="m592-736v-224h176v224z"/><path d="m592-640h-224v-96h224z"/><path d="m368-736v-224h224v224z"/><path d="m768-960h-48v192h48z"/><path d="m512-640v-80h-128v80z"/><path d="m512-224h16l-16-32z"/><path d="m1088-1008h64z"/><path d="m1152-688h-64v-80h64z"/><path d="m576-576h-64z"/><path d="m512-640h64z"/><path d="m512-576v-64h64v64z"/><path d="m512-640v64h64v-64z"/><path d="m736-768h32z"/><path d="m896-1264h128-9-23-32-32-23z"/><path d="m896-1264h9 23 32 32 23 9z"/><path d="m896-1264v-16h128v16z"/><path d="m1024-1264v-16z"/><path d="m896-1280h9 23 32 32 23 9z"/><path d="m1152-1088v32z"/><path d="m1024-1152h17.5609-1.5609z"/><path d="m896-1264h128v112h-128z"/><path d="m1088-1104-48-48h1.5609 33.9391 12.5z"/><path d="m1088-1104 64 16v32 16z"/><path d="m1088-1104v-48l32 9 23 23 9 32z"/><path d="m1088-1104h-64v-32-16h16z"/><path d="m1024-1152v16h-128v-16z"/><path d="m864-1104v-32-16h32v16l-32 48z"/><path d="m864-1088 32-48h128v32 80h-128-64v-16z"/><path d="m1024-880v-16-128-80h64l64 64v160z"/><path d="m896-976v-48h128v128h-128z"/><path d="m821.3337-1008 10.6663-16h64v48h-83.5484v-18.6774z"/><path d="m1024-896v16h-32-96v-16z"/><path d="m777.5484-976h34.9032 83.5484v80 16h-128v-80-16z"/><path d="m992-768h-224v-112h128 96z"/><path d="m1024-880h128v48l-9 32-23 23-32 9h-64-32v-112z"/><path d="m688-576h16v128h-16z"/><path d="m576-576h112v128h-112z"/><path d="m576-448 18 64h-18z"/><path d="m512-640v128h-128v-128z"/><path d="m512-512v-128l32 9 23 23 9 32v128l-9 32h-55z"/><path d="m567-416-23 23-32 9v-32z"/><path d="m384-400v-64-48h128v96 32h-128z"/><path d="m320-640h64v128 48h-80-48l-64-48v-64l9-32 23-23 32-9z"/><path d="m304-432v-32h80v64h-80z"/><path d="m304-432h-32-16v-32h48z"/><path d="m384-320v-64h128v128h-128z"/><path d="m304-400h80v16 64h-80l-16-48v-12-20z"/><path d="m384-320v64h-80v-16-32-16z"/><path d="m503-160 9-32v32z"/><path d="m393-160h-9v-32z"/><path d="m393-64-9-32v-14l64-18 32-9-73 73z"/><path d="m407-64 73-73 23-23h9v64l-9 32z"/><path d="m416-137-32-9v-14h9z"/><path d="m416-137 32 9-64 18v-18-18z"/><path d="m393-64h14 96l-23 23-32 9-32-9z"/><path d="m384 0v-32h128v32z"/><path d="m288-380-7.4286-5.5714-8.5714-6.4286v-8h16z"/><path d="m288-368h-16l.0435-9.0435 8.5279-8.5279 7.4286 5.5714z"/><path d="m272-392 8.5714 6.4286-8.5279 8.5279-.0435-2.4565z"/><path d="m864-1152v16h-32-32v-7l32-9z"/><path d="m864-1104h-32v-32h32z"/><path d="m768-976v-32h5.7634l.2366 2 3.5484 30z"/><path d="m1024-768h64z"/><path d="m1143-800-23 23z"/><path d="m1152-832-9 32z"/><path d="m672-960h-224 192z"/><path d="m812.4516-976h-7.4516v-32h3.6667z"/><path d="m704-576h-16z"/><path d="m1024-768h-32z"/><path d="m384-640h-64z"/><path d="m384-864v224z"/><path d="m768-768h-32z"/><path d="m201-608-9 32z"/><path d="m512 0v-32z"/><path d="m512-160v-32z"/><path d="m688-448h16z"/><path d="m688-448h-112z"/><path d="m688-576v9 23 32 32 23 9z"/><path d="m704-576v9 23 32 32 9 14 9z"/><path d="m576-448 16 56.8889 2 7.1111z"/><path d="m512-256h-128z"/><path d="m384-256h-128 48z"/><path d="m272-432h32z"/><path d="m256-464h-32-32v-48z"/><path d="m256-432h-32v-32h32z"/><path d="m272-368h16z"/><path d="m288-368 16 48h-16z"/><path d="m416-41 32 9z"/><path d="m480-41 23-23z"/><path d="m512 0h-128z"/><path d="m832-1040v-48h32z"/><path d="m832-1024-10.6663 16h-10.7978-10.5359v-16z"/><path d="m812.4516-976-3.7849-32h1.8692l1.9157 13.3226z"/><path d="m821.3337-1008-8.8821 13.3226-1.9157-13.3226z"/><path d="m384-896v32z"/><path d="m768-960h-96z"/><path d="m512-640v-128z"/><path d="m448-960-22.2609 6.2609-9.7391 2.7391z"/><path d="m416-951-23 23z"/><path d="m393-928-2.7391 9.7391-6.2609 22.2609z"/><path d="m1024-1280h-128v20h128z"/><path d="m896-1280h128z"/><path d="m1024-1260h-128z"/><path d="m704-576h-20v128h20z"/><path d="m688-480v32z"/><path d="m688-448-96 32z"/><path d="m592-448 96-32v32l-96 32z"/><path d="m528-224h-32z"/><path d="m480-288 32-96h32l-32 96z"/><path d="m496-224-16-32h32l16 32z"/><path d="m480-256v-32h32v32z"/><path d="m512-288v32z"/><path d="m544-384-32 96z"/><path d="m512-256 16 32z"/><path d="m592-992v48z"/><path d="m1088-880v-128z"/><path d="m1152-1008v128z"/><path d="m192-640h64z"/><path d="m256-576-64 64h-64l64-64z"/><path d="m192-576v-64z"/><path d="m192-576v64l64-64z"/><path d="m192-640v64h64v-64z"/><path d="m192-576-64 64h64z"/><path d="m128-512 64-64z"/><path d="m576-640v64z"/><path d="m810.5359-1008h-1.8692-8.6667z"/><path d="m288-320h16v16h-16z"/><path d="m288-304h16v32h-32v-32z"/><path d="m774-1006v30h3.5484z"/><path d="m775.8788-1008h-2.1154-5.7634v-16h32v16z"/><path d="m773.7634-1008h2.1154l-1.8788 2z"/><path d="m808.6667-1008h-3.6667-5z"/><path d="m224-464h-32z"/><path d="m224-464v32z"/><path d="m832-1088h-16z"/><path d="m832-1136h-32z"/><path d="m832-1104v-32z"/><path d="m832-1104h32v16h-32-16-16v-16z"/><path d="m512-160v32 32z"/><path d="m512-256v32z"/><path d="m192-432h16z"/><path d="m272-304h16z"/><path d="m272-272v-32z"/><path d="m272-272h32v16h-48l-16-4.5v-11.5z"/><path d="m384-160v14 18z"/><path d="m384-192v32z"/><path d="m512-256v32h-128v-32z"/><path d="m503-160h9v-32z"/><path d="m393-160-9-32v32z"/><path d="m393-160-9-32z"/><path d="m512-192-9 32z"/><path d="m480-137-32 9-32-9-23-23h110z"/><path d="m503-160-23 23z"/><path d="m480-137-32 9z"/><path d="m416-137-23-23z"/><path d="m448-128-32-9z"/><path d="m832-1024h-32z"/><path d="m1152-880h-64v-128h64z"/><path d="m1152-768h-64v-112h64z"/><path d="m192-416v-16h16v55l-9.0434 9.0435-6.9566 1.9565z"/><path d="m800-1008h-24.1212z"/><path d="m800-1008h5v32h-31v-30l1.8788-2z"/><path d="m805-976h7.4516-34.9032-3.5484z"/><path d="m208-377v9.0321l-9.0434.0114z"/><path d="m208-377v-55 16 32 16z"/><path d="m208-368h16z"/><path d="m224-367.988v-.012 64z"/><path d="m192-464v-112 64z"/><path d="m192-432h16z"/><path d="m224-304h16z"/><path d="m224-304h-27.4999l-4.5001-16v-46l6.9566-1.9565 25.0434-.0315z"/><path d="m240-304v32 11.5z"/><path d="m201-288-4.4999-16h27.4999 16v43.5l-16-4.5z"/><path d="m1143-1120 9 32z"/><path d="m1143-1120-23-23z"/><path d="m800-1088h16-48z"/><path d="m800-1088h16z"/><path d="m832-1136v32h-32v-32z"/><path d="m800-1143v7 32 16h-32l9-32z"/><path d="m832-1104h-32z"/><path d="m567-608-23-23z"/><path d="m544-631-32-9z"/><path d="m576-576-9-32z"/><path d="m512-224v-32 64z"/><path d="m512-384v64 64z"/><path d="m567-416 9-32z"/><path d="m512-384 32-9z"/><path d="m544-393 23-23z"/><path d="m512-96-9 32z"/><path d="m192-432v16-48z"/><path d="m192-432v16z"/><path d="m272-432h-48 32z"/><path d="m224-432h-16z"/><path d="m224-464v32h-16-16v-32z"/><path d="m304-432v32z"/><path d="m240-304h32z"/><path d="m272-400v8 12.5 11.5z"/><path d="m272-432h32v32h-32z"/><path d="m304-400h-16-16z"/><path d="m240-272h32z"/><path d="m240-272v-32h32v32z"/><path d="m240-260.5-16-4.5z"/><path d="m384-256v32z"/><path d="m512-160h-9-110-9z"/><path d="m384-224h128z"/><path d="m384-192v-32h128v32z"/><path d="m384-160v32h128v-32z"/><path d="m592-416v-32z"/><path d="m1075.5-1152h-33.9391-17.5609-9z"/><path d="m832-1088v48 16z"/><path d="m1120-1143-32-9z"/><path d="m512-96v-32z"/><path d="m384-128v18 14z"/><path d="m384-256v32 32z"/><path d="m384-160v-32h128v32z"/><path d="m384-192h128z"/><path d="m512-128h-128z"/><path d="m384-128v32h128v-32z"/><path d="m192-576v-64h64v64z"/><path d="m896-1264v-16z"/><path d="m1024-1264v-16h-9v16z"/><path d="m1024-1152v-112z"/><path d="m896-1152v-112z"/><path d="m896-1264v112h9v-112z"/><path d="m1024-1152v-112h-9v112z"/><path d="m768-960h-96z"/><path d="m832-1024v-16-32-16z"/><path d="m768-1040v-32h16v32z"/><path d="m784-1040h32 16v16h-32-32v-16z"/><path d="m816-1088h16v16h-16-32-16v-16z"/><path d="m816-1072h16v32h-16z"/><path d="m816-1072v32z"/><path d="m784-1040v-32z"/><path d="m784-1072h32z"/><path d="m816-1040h-32z"/><path d="m768-1024v16 32 16z"/><path d="m768-1024h32z"/><path d="m832-1024h-32z"/><path d="m688-576h-112z"/><path d="m768-960v9z"/><path d="m384-896v32z"/><path d="m393-928-9 32z"/><path d="m384-896 9-32z"/><path d="m416-951-23 23 11.5-11.5z"/><path d="m393-928 23-23z"/><path d="m416-951 32-9z"/><path d="m448-960-32 9z"/><path d="m384-864v224h9v-75.5-148.5z"/><path d="m640-960h-192l-32 9h212.5 11.5z"/><path d="m512-768v23 105z"/><path d="m736-768h-60.4456-99.5544-64z"/><path d="m512-768h64v-7.8751-1.1249h-64z"/><path d="m675.5544-768-99.5544-7.8751v7.8751z"/><path d="m512-768-9-9 9 32z"/><path d="m512-768v-9h-9z"/><path d="m512-640 32 9z"/><path d="m688-448h16v-9h-16z"/><path d="m688-448v-9h-112v9z"/><path d="m576-448-9 32z"/><path d="m503-64h-110z"/><path d="m192-384v-32 50 46z"/><path d="m224-432h48v16h-48-16v-16z"/><path d="m272-416v32h-48v-32z"/><path d="m224-384h48v16h-48-16v-16z"/><path d="m272-368h16v48 16h-16-32-16v-64z"/><path d="m192-416v32h16v-32z"/><path d="m208-384h-16 32z"/><path d="m272-384v-32-16 32 32z"/><path d="m288-368h-16z"/><path d="m288-320v-48z"/><path d="m288-304v-16z"/><path d="m384-256v64 32z"/><path d="m384-160h128z"/><path d="m384-128v-32h128v32z"/><path d="m384-96 9 32h110l9-32z"/><path d="m512-96h-128z"/><path d="m393-64-9-32z"/><path d="m393-64 23 23z"/><path d="m-320-464 16 48z"/><path d="m-320-352v48z"/><path d="m-304-416-16 64z"/><path d="m509.1875-640h-6.1875 9z"/><path d="m512-160v32z"/><path d="m512-128v-32-96 160z"/><path d="m512-256v96-32z"/><path d="m384-256v96 32z"/><path d="m384-128h128z"/><path d="m384-96v-32h128v32z"/><path d="m384-32h128z"/><path d="m512-32h-128z"/><path d="m393-64 23 23 32 9 32-9 23-23z"/><path d="m448-32 32-9z"/><path d="m-304-256h-64z"/><path d="m-320-304 16 48z"/><path d="m512-640h-9-23z"/><path d="m576-448v-9z"/><path d="m1088-1152h-12.5-60.5-23z"/><path d="m576-775.8751 99.5544 7.8751h60.4456 32v-9h-32-160z"/><path d="m-320-256h16l-16-48z"/><path d="m905-1280h-9v16h9z"/><path d="m1015-1280h-23v16h23z"/><path d="m905-1152h-9-18 36z"/><path d="m905-1264v112h23v-112z"/><path d="m1015-1264h-23v112h23z"/><path d="m784-1040v-32h32v32z"/><path d="m768-960v-64-64z"/><path d="m768-1088v16 32 16 64z"/><path d="m768-777v9z"/><path d="m768-951v23-32z"/><path d="m393-715.5v75.5h23v-64-11.5z"/><path d="m393-928-9 32v32h9z"/><path d="m628.5-951h-212.5l-11.5 11.5 11.5 11.5h212.5z"/><path d="m768-951v-9h-96-32v9z"/><path d="m503-718.2222v78.2222h6.1875z"/><path d="m768-777v-23h-32v23z"/><path d="m503-777-23-23 23 81.7778z"/><path d="m503-777v58.7778l6.1875 78.2222h2.8125v-105z"/><path d="m512-96v-160 192z"/><path d="m704-567v-9h-16v9z"/><path d="m688-457h16v-14l-9-9h-7z"/><path d="m578.5312-567-2.5312-9v9z"/><path d="m688-567v-9h-112l2.5312 9z"/><path d="m688-457v-23h-112v9 14z"/><path d="m512-96v32h-9z"/><path d="m192-384v-32h32v32z"/><path d="m224-416v32z"/><path d="m192-416h16 16z"/><path d="m384-64v-32h128l-9 32z"/><path d="m384-96h128z"/><path d="m384 0v-32z"/><path d="m384-32v32h128v-32z"/><path d="m96-352h32z"/><path d="m96-352v32h32v-32z"/><path d="m32-448v32z"/><path d="m304 80h144z"/><path d="m304 80v48h144v-48z"/><path d="m-240-480h-32z"/><path d="m-416-80-32-16z"/><path d="m-320-128v-48l-96 48 48 24z"/><path d="m-304 320v48z"/><path d="m-304 320-96-48z"/><path d="m-448 288 48-16z"/><path d="m768-960v32 32z"/><path d="m576-471v-9z"/><path d="m704-471v-9h-9z"/><path d="m512-64v-192 160 64z"/><path d="m384-64h119 9z"/><path d="m384-64v-32z"/><path d="m384-32v-32h128v32z"/><path d="m224 32v16h-32-32v-16z"/><path d="m224 128v-32h32v32z"/><path d="m170.6667 128-10.6667-32v-46.2727l26 73.2727-14.0908 5z"/><path d="m192 64v32 32h-4.2258l-1.7742-5-26-73.2727v-1.7273h32z"/><path d="m224 48v16h-32v-16z"/><path d="m160 96 10.6667 32h-17.7957-24.871v-32z"/><path d="m208 240 21.3333 64h-53.3333-48v-96h53.2581 16.0752z"/><path d="m224 128h32l-48 64v-7-57z"/><path d="m170.6667 128h1.2425l-16.9092 6-2.129-6z"/><path d="m197 154-9.2258-26h4.2258 16v57z"/><path d="m197.3333 208-16.1314-48.3943 15.7981-5.6057 11 31v7 48z"/><path d="m152.871 128 2.129 6 11 31 15.2581 43h-53.2581v-80z"/><path d="m197.3333 208h-16.0752l-15.2581-43 15.2019-5.3943z"/><path d="m0 64 9 32-9-9z"/><path d="m0 110 32 9 32 9h-64z"/><path d="m0 87 9 9 23 23-32-9z"/><path d="m0 87v23 18h-64v-64h64z"/><path d="m128 208v96h-144-35.2l-12.8-21.3334v-74.6666-80h64 64 64z"/><path d="m96 331.4286v-11.4286l80-16v11.4285z"/><path d="m229.3333 304 .2381.7142-53.5714 10.7143v-11.4285z"/><path d="m128 304h48l-80 16-80 16-32-6.4v-25.6z"/><path d="m16 347.4286v-11.4286l80-16v11.4286z"/><path d="m-16 329.6 32 6.4v11.4286l-22.5107 4.5022-9.4893-5.9308z"/><path d="m-51.2 304h35.2v25.6 16.4l-16-10z"/><path d="m-112 128 25.6-64h22.4v64 80h-16z"/><path d="m-64 282.6666-16-26.6666v-48h16z"/><path d="m128 96v32z"/><path d="m384-32h128z"/><path d="m224 96v32z"/><path d="m224 48v-16 32z"/><path d="m166 165 31-11z"/><path d="m128 96h32z"/><path d="m192 96v-32z"/><path d="m186 123-31 11z"/><path d="m229.3333 304-21.3333-64h48v79.8073l-26.4286-15.0931z"/><path d="m64 128h64z"/><path d="m-16 346 9.4893 5.9308-.0306.0692-9.4587 21.4z"/><path d="m-32 336 16 10v6h-16z"/><path d="m-80 256v32h-16v-10.6666z"/><path d="m96 363.4286-14.2858-2.8572 14.2858-8.5714z"/><path d="m96 352-14.2858 8.5714-.1242-.0248-65.59-13.118 80-16z"/><path d="m229.5714 304.7142 3.5715 10.7144-57.1429-.0001z"/><path d="m96 363.4286v-11.4286-20.5714l80-16.0001z"/><path d="m176 315.4285v68.5715h-80v-20.5714z"/><path d="m0-576h-32z"/><path d="m32-640v48z"/><path d="m0-816 32 96z"/><path d="m32-592-32 16z"/><path d="m16-688 16 48z"/><path d="m32-720-16 32z"/><path d="m0-576 32-16h-32l-32 16z"/><path d="m96-320v-32z"/><path d="m128-352v32z"/><path d="m11-320h-43z"/><path d="m-11-448h43z"/><path d="m32-416v32z"/><path d="m32-384-21 64z"/><path d="m-11-448v32h43v-32z"/><path d="m304 128v-48z"/><path d="m448 80v48z"/><path d="m32-128v-48z"/><path d="m192-96-40 16z"/><path d="m32-128 120 48z"/><path d="m-192-608-32 64z"/><path d="m-272-480 16-64z"/><path d="m-224-544-16 64z"/><path d="m816-752v48z"/><path d="m1104-768h48z"/><path d="m1104-768v90h48v-90z"/><path d="m-384-464h64z"/><path d="m-384-352 16-64z"/><path d="m-368-416-16 64h64l16-64z"/><path d="m-320-352 16-64z"/><path d="m-384-352v48h64v-48z"/><path d="m-368-416h64l-16-48h-36z"/><path d="m-384-464 16 48 12-48z"/><path d="m-368-416-16-48z"/><path d="m-6.4 352h22.4v32h-32v-10.6l9.4587-21.4z"/><path d="m-6.4 352h-.1413l.0306-.0692 22.5107-4.5022v4.5714z"/><path d="m-16 352h-32 16z"/><path d="m576-471v23-9z"/><path d="m928-1280h-23v16h23z"/><path d="m992-1280h-32v16h32z"/><path d="m928-1264v112h32v-112z"/><path d="m768-800v23 9z"/><path d="m416-640h-23 9z"/><path d="m416-640h32z"/><path d="m416-704v64h32v-64z"/><path d="m416-928-11.5-11.5-11.5 11.5v64 148.5h23z"/><path d="m640-928h-11.5-212.5l32 32h192z"/><path d="m640-928h128v-23h-128-11.5v23z"/><path d="m736-800h32v-32h-96v32z"/><path d="m480-800v160h23v-78.2222z"/><path d="m480-800-32-32v128 64h32z"/><path d="m736-800h-64-160v23h64 160z"/><path d="m512-800h-32l23 23h9z"/><path d="m704-480v-32h-16v32z"/><path d="m704-544h-16v32h16z"/><path d="m704-544v-23h-16v23z"/><path d="m576-480h112v-32h-112z"/><path d="m688-544v-23h-109.4688-2.5312v23z"/><path d="m464-880h-16z"/><path d="m464-880.25h-16v.25h16z"/><path d="m448-880v-.25z"/><path d="m640-528v32z"/><path d="m608-496v-32z"/><path d="m608-528h32z"/><path d="m640-496h-32z"/><path d="m608-528v32h32v-32z"/><path d="m1104-912h-32z"/><path d="m1104-912v31.75.25z"/><path d="m1072-880v-32z"/><path d="m1088-880.25v.25z"/><path d="m1088-912v31.75h16v-31.75z"/><path d="m1104-880.25h-16v.25h16z"/><path d="m1072-912v32h16v-32z"/><path d="m1104-1088v31.75.25z"/><path d="m1104-1088h-32z"/><path d="m1072-1056v-32z"/><path d="m1088-1056.25v.25z"/><path d="m1088-1088v31.75h16v-31.75z"/><path d="m1104-1056.25h-16v.25h16z"/><path d="m1072-1088v32h16v-32z"/><path d="m896-1088v31.75.25z"/><path d="m864-1056v-32z"/><path d="m896-1088h-32z"/><path d="m880-1056.25v.25z"/><path d="m880-1088v31.75h16v-31.75z"/><path d="m896-1056.25h-16v.25h16z"/><path d="m864-1088v32h16v-32z"/><path d="m672-880v31.75.25z"/><path d="m640-848v-32z"/><path d="m672-880h-32z"/><path d="m656-848.25v.25z"/><path d="m656-880v31.75h16v-31.75z"/><path d="m672-848.25h-16v.25h16z"/><path d="m640-880v32h16v-32z"/><path d="m432-848v-32z"/><path d="m464-880v31.75.25z"/><path d="m464-880h-32z"/><path d="m448-848.25v.25z"/><path d="m448-880v31.75h16v-31.75z"/><path d="m464-848.25h-16v.25h16z"/><path d="m432-880v32h16v-32z"/><path d="m432-688v-32z"/><path d="m464-720v31.7503.2497z"/><path d="m464-720h-32z"/><path d="m448-688.25v.25z"/><path d="m448-720v31.75l16 .0003v-31.7503z"/><path d="m464-688.2497-16-.0003v.25h16z"/><path d="m432-720v32h16v-32z"/><path d="m464-688h-16z"/><path d="m1104-1056h-16z"/><path d="m896-1056h-16z"/><path d="m672-848h-16z"/><path d="m464-848h-16z"/><path d="m464-880v-.25z"/><path d="m448-880v-.25h16v.25z"/><path d="m1104-880h-16z"/><path d="m-96 256h-32v-48h48v48z"/><path d="m-96 256h16l-16 21.3334z"/><path d="m256 319.8073v.1927l-2.7935 9.9325-20.0636-14.5039-3.5715-10.7144z"/><path d="m96 384h80-80-80z"/><path d="m-64 384v-5.3333l3.2 5.3333z"/><path d="m-64 384v-5.3333z"/><path d="m256 320v-.1927z"/><path d="m960-1280h-32v16h32z"/><path d="m1152-1056v32 13 179-48-160z"/><path d="m-448-128v64z"/><path d="m-448 32v96 128-160z"/><path d="m1015-96 9-32z"/><path d="m992-73 23-23z"/><path d="m832-1152h46 18-32z"/><path d="m960-1152h-32 9z"/><path d="m937-1152h-9-23 9z"/><path d="m992-1152h96-96-32z"/><path d="m960-1152h32v-112h-32z"/><path d="m992-1152h-32-23-23-36-46l-32 9-23 23-9 32h110.222 113.778z"/><path d="m1102.2222-1088h49.7778l-9-32-23-23-32-9h-96v64z"/><path d="m832-1152-32 9z"/><path d="m800-1143-23 23z"/><path d="m777-1120-9 32z"/><path d="m1152-1024h-46.2223l46.2223 13z"/><path d="m1102.2222-1088h-110.2222-113.778l113.778 32 32 9 78.222 22z"/><path d="m1152-1024v-32-32h-49.7778l-.0002 63 3.5557 1z"/><path d="m1024-880v-80 64z"/><path d="m1024-1024h81.7777l-81.7777-23z"/><path d="m1105.7777-1024h-81.7777v18 23 23 80 80h119l9-32v-179z"/><path d="m1024-800v32h64l32-9 23-23z"/><path d="m1088-768 32-9z"/><path d="m878.222-1088h-110.222v64h18 23 23 128 32v-32z"/><path d="m992-1024h32v-23l-32-9z"/><path d="m1024-1024h-32-32l32 9 32 9z"/><path d="m1024-983-9-9 9 32z"/><path d="m832-1024h-23l-9 9z"/><path d="m1024-1006-32-9 23 23 9 9z"/><path d="m786-1024-9 32 23-23 9-9z"/><path d="m768-1024v64l9-32 9-32z"/><path d="m800-1015-23 23z"/><path d="m777-992-9 32z"/><path d="m-32-576h-96-128z"/><path d="m768-832v32 32z"/><path d="m0-672v32 64-224z"/><path d="m320-640h-64z"/><path d="m402-640h-9-9-64z"/><path d="m512-640h-32-32z"/><path d="m672-896h-32-192v64h224z"/><path d="m768-896h-96v64h96z"/><path d="m448-832v-64l-32-32v212.5 11.5h32z"/><path d="m672-896h96v-32h-128v32z"/><path d="m672-832h-224l32 32h32 160z"/><path d="m128-896v-64z"/><path d="m0-896v-64h128v64z"/><path d="m320-768h-32-32v-128h128v128z"/><path d="m0-800v-96h128 64v128 96h-192z"/><path d="m192-672v32h-192v-32z"/><path d="m192-896v128z"/><path d="m192-672v-96 128z"/><path d="m224-631-23 23z"/><path d="m256-640-32 9z"/><path d="m256-640-32 9 9-9z"/><path d="m210-640h23l-9 9-23 23z"/><path d="m192-640v64h-192v-64z"/><path d="m210-640-9 32-9 32v-64z"/><path d="m688-512v-32-23-9 128-9-23z"/><path d="m688-512v-32h-112v32z"/><path d="m640-64h-64z"/><path d="m688-256v9 23 32 32 23 9-25.6z"/><path d="m688-256h16 64v64 64h-16l-64-25.6z"/><path d="m992-96h-96-32-64-23l-9-32v-64h208 16z"/><path d="m1014.8571-192 9.1429 32v32l-9 32h-23v-96z"/><path d="m976-256v32 32h-208v-64l4.5-16h27.5 32 144z"/><path d="m992-311v23h-128v-32h96z"/><path d="m864-288h128v16h-16-144l10.6666-16z"/><path d="m976-272h16l4.5714 16h-20.5714z"/><path d="m992-224v32h-16v-32z"/><path d="m1014.8571-192h-22.8571 32z"/><path d="m992-311-32-9z"/><path d="m992-272v-16-23l23 23 4.5 16z"/><path d="m992-272h27.5l4.5 16h-16-11.4286z"/><path d="m976-256v32z"/><path d="m992-224h-16z"/><path d="m688-256h16z"/><path d="m800-272h16 16z"/><path d="m832-272v-16z"/><path d="m842.6666-288-10.6666 16v-16z"/><path d="m752-128h-64v-25.6z"/><path d="m992-96h23l-23 23-3.7519 1.0552-92.2481-20.4996v-3.5556z"/><path d="m988.2481-71.9448 3.7519-1.0552-32 9z"/><path d="m988.2481-71.9448-28.2481 7.9448h-64v-28.4444z"/><path d="m848-80-48-16h64v8z"/><path d="m848-80 16-8v24h-16z"/><path d="m777-96h23v23z"/><path d="m656-256v9 23 32 32 23 9z"/><path d="m672-160v-96h16v102.4z"/><path d="m672-256h16z"/><path d="m640-256h16v128h-16z"/><path d="m576-256h64v128h-64z"/><path d="m640-128h16-80z"/><path d="m640-256h-64 80z"/><path d="m640-64v192z"/><path d="m576 128h64z"/><path d="m576-64h64v192h-64z"/><path d="m-128-416v-32 64z"/><path d="m-128-256v-128 99.5555 92.4445z"/><path d="m-128-192v64z"/><path d="m192-416v32z"/><path d="m384-128v-128 128 32z"/><path d="m352-96v16z"/><path d="m352-112v-16z"/><path d="m384-96h-32z"/><path d="m352-64v-16-16h32v32z"/><path d="m256-80v16-32z"/><path d="m352-80h-32z"/><path d="m320-80v-16z"/><path d="m320-128v16z"/><path d="m320-128h32v16h-32z"/><path d="m320-112h32z"/><path d="m320-96v16h-64v-16z"/><path d="m352-64h-96v-16h64 32z"/><path d="m128-416v32 64h-128v-96z"/><path d="m192-416v32h-64v-32z"/><path d="m192-576v112 48h-64-128v-32-128z"/><path d="m0-448h-128z"/><path d="m-32-576h32v128h-128v-128z"/><path d="m192-238v46h-32-73l22.9131-22.9131z"/><path d="m64-192h-64v-112h64z"/><path d="m-64-128h-64z"/><path d="m160-192h32v23l-32 32z"/><path d="m-64-128h64v64h-128v-64z"/><path d="m0-64v-64h128v64z"/><path d="m192-64h-64v-64h32 32z"/><path d="m-128-448v32h-128v-32-128h128z"/><path d="m-256-416h-112v-32h64 48z"/><path d="m-256-416h128v32 128h-128-48-64v-160z"/><path d="m-304-448h48z"/><path d="m-368-448h64z"/><path d="m-256-64v-26l92.4444 26z"/><path d="m-256-128v-128h128v64 64 64h-35.5556l-92.4444-26z"/><path d="m-448-64v-64h192v38 26z"/><path d="m224 32h-64z"/><path d="m128-64h64 32v64h-64-32z"/><path d="m128 0h32v32h-32z"/><path d="m224 0v32h-64v-32z"/><path d="m224 0v-64h32 96v32 32l-24 32h-72-32z"/><path d="m352 0v32h-24z"/><path d="m352 32v-32-32h32 128v64z"/><path d="m384-32h-32v-32h32z"/><path d="m384-32v-32z"/><path d="m256 128v64z"/><path d="m256 128v-32z"/><path d="m352 128h48-121-23z"/><path d="m256 128v-32h24z"/><path d="m328 32-48 64h-24v-64z"/><path d="m352 32v32 64h-96l24-32 48-64z"/><path d="m400 96v32h-48v-64h48z"/><path d="m448 128h-16v-32h16z"/><path d="m400 64h48v32h-16-32z"/><path d="m512 64h-64-48-48v-32h160z"/><path d="m400 128v-32z"/><path d="m448 128v-32-32z"/><path d="m448 64h64z"/><path d="m400 96h32z"/><path d="m432 96v32z"/><path d="m256 96h-32z"/><path d="m256 96h-32v-32-32h32z"/><path d="m160 32v64h-32v-64z"/><path d="m197 154-31 11-11-31 31-11z"/><path d="m192 128v-32-32h32v32 32z"/><path d="m192 64h32z"/><path d="m160 32v16 1.7273 46.2727z"/><path d="m166 165-11-31z"/><path d="m186 123 1.7742 5 9.2258 26z"/><path d="m224 128h-16-16z"/><path d="m192 128v-32z"/><path d="m128 0v32 64 32h-64l-32-9-23-23-9-32v-64-18-46h128z"/><path d="m64 128-32-9z"/><path d="m9 96-9-32z"/><path d="m32 119-23-23z"/><path d="m-64 0h-41-151z"/><path d="m-128-64v10l-35.5556-10z"/><path d="m-32 0h-32-192v-64h92.4444l35.5556 10 96 27z"/><path d="m0-18v18h-32v-27z"/><path d="m0-64v46l-32-9-96-27v-10z"/><path d="m-96 288h16v32h-48v-12.8l24-19.2z"/><path d="m-96 288v-32 21.3334z"/><path d="m-320 0h-128v-64h192v64z"/><path d="m-320 0v128z"/><path d="m-448 32v-32h128v128h-128z"/><path d="m-320 128h64v128h-64-128v-128z"/><path d="m-448 320v-64h128v64z"/><path d="m1024-1260h-128v-20h128z"/><path d="m1024-1280v20z"/><path d="m896-1260v-20z"/><path d="m788-512h-20v128h20z"/><path d="m704-448h-20v-128h20z"/><path d="m684-576h20z"/><path d="m704-448h-20z"/><path d="m704-576v128z"/><path d="m684-448v-128z"/><path d="m585-480-2-1v-2l2-1 2 1v2z"/><path d="m585-510-2-1v-2l2-1 2 1v2z"/><path d="m586-540-2-1v-2l2-1 2 1v2z"/><path d="m585-524-2-1v-2l2-1 2 1v2z"/><path d="m584-496-2-1v-2l2-1 2 1v2z"/><path d="m585-480v-2l-2 1z"/><path d="m588-541-2-1v2z"/><path d="m586-540v-2l-2 1z"/><path d="m588-543-2 1 2 1z"/><path d="m584-541 2-1-2-1z"/><path d="m586-544v2l2-1z"/><path d="m584-543 2 1v-2z"/><path d="m583-483 2 1v-2z"/><path d="m587-525-2-1v2z"/><path d="m585-524v-2l-2 1z"/><path d="m587-527-2 1 2 1z"/><path d="m583-525 2-1-2-1z"/><path d="m585-528v2l2-1z"/><path d="m583-527 2 1v-2z"/><path d="m584-496v-2l-2 1z"/><path d="m587-511-2-1v2z"/><path d="m585-510v-2l-2 1z"/><path d="m587-513-2 1 2 1z"/><path d="m583-511 2-1-2-1z"/><path d="m585-514v2l2-1z"/><path d="m583-513 2 1v-2z"/><path d="m582-497 2-1-2-1z"/><path d="m586-497-2-1v2z"/><path d="m582-499 2 1v-2z"/><path d="m586-499-2 1 2 1z"/><path d="m584-500v2l2-1z"/><path d="m587-481-2-1v2z"/><path d="m583-481 2-1-2-1z"/><path d="m587-483-2 1 2 1z"/><path d="m585-484v2l2-1z"/><path d="m478-653 2 1v2l-2 1-2-1v-2z"/><path d="m450-654 2 1v2l-2 1-2-1v-2z"/><path d="m414-655 2 1v2l-2 1-2-1v-2z"/><path d="m435-654 2 1v2l-2 1-2-1v-2z"/><path d="m466-653 2 1v2l-2 1-2-1v-2z"/><path d="m478-653v2l2-1z"/><path d="m412-654 2 1v-2z"/><path d="m480-652-2 1 2 1z"/><path d="m412-652 2-1-2-1z"/><path d="m480-650-2-1v2z"/><path d="m414-651v-2l-2 1z"/><path d="m478-649v-2l-2 1z"/><path d="m476-652 2 1v-2z"/><path d="m476-650 2-1-2-1z"/><path d="m416-652-2-1v2z"/><path d="m414-655v2l2-1z"/><path d="m416-654-2 1 2 1z"/><path d="m466-653v2l2-1z"/><path d="m433-653 2 1v-2z"/><path d="m468-652-2 1 2 1z"/><path d="m433-651 2-1-2-1z"/><path d="m468-650-2-1v2z"/><path d="m435-650v-2l-2 1z"/><path d="m466-649v-2l-2 1z"/><path d="m464-652 2 1v-2z"/><path d="m464-650 2-1-2-1z"/><path d="m437-651-2-1v2z"/><path d="m435-654v2l2-1z"/><path d="m437-653-2 1 2 1z"/><path d="m450-654v2l2-1z"/><path d="m448-653 2 1v-2z"/><path d="m452-653-2 1 2 1z"/><path d="m448-651 2-1-2-1z"/><path d="m452-651-2-1v2z"/><path d="m450-650v-2l-2 1z"/><path d="m754-932h2v2l-1 2-2-1-1-2z"/><path d="m754-896 2 1v2l-1 1h-2l-1-2z"/><path d="m754-868 2 1v2l-1 1h-2l-1-2z"/><path d="m754-832 2 1v2l-1 1h-2l-1-2z"/><path d="m754-816 2 1v2l-1 1h-2l-1-2z"/><path d="m754-848 2 1v2l-1 1h-2l-1-2z"/><path d="m754-880 2 1v2l-1 1h-2l-1-2z"/><path d="m754-916h2v2l-1 2-2-1-1-2z"/><path d="m754-932v2l2-2z"/><path d="m752-814h2v-2z"/><path d="m756-815-2 1 2 1z"/><path d="m753-812 1-2h-2z"/><path d="m754-816v2l2-1z"/><path d="m755-812-1-2-1 2z"/><path d="m756-813-2-1 1 2z"/><path d="m756-930h-2l1 2z"/><path d="m752-830h2v-2z"/><path d="m756-831-2 1 2 1z"/><path d="m753-828 1-2h-2z"/><path d="m754-832v2l2-1z"/><path d="m755-828-1-2-1 2z"/><path d="m756-829-2-1 1 2z"/><path d="m754-916v2l2-2z"/><path d="m752-846h2v-2z"/><path d="m756-847-2 1 2 1z"/><path d="m753-844 1-2h-2z"/><path d="m754-848v2l2-1z"/><path d="m755-844-1-2-1 2z"/><path d="m756-845-2-1 1 2z"/><path d="m756-867-2 1 2 1z"/><path d="m756-916-2 2h2z"/><path d="m752-866h2v-2z"/><path d="m754-868v2l2-1z"/><path d="m753-864 1-2h-2z"/><path d="m756-865-2-1 1 2z"/><path d="m755-864-1-2-1 2z"/><path d="m756-914h-2l1 2z"/><path d="m752-878h2v-2z"/><path d="m756-879-2 1 2 1z"/><path d="m753-876 1-2h-2z"/><path d="m754-880v2l2-1z"/><path d="m755-876-1-2-1 2z"/><path d="m756-877-2-1 1 2z"/><path d="m754-896v2l2-1z"/><path d="m752-894h2v-2z"/><path d="m756-895-2 1 2 1z"/><path d="m753-892 1-2h-2z"/><path d="m756-893-2-1 1 2z"/><path d="m755-892-1-2-1 2z"/><path d="m752-915 2 1v-2z"/><path d="m755-912-1-2-1 1z"/><path d="m753-913 1-1-2-1z"/><path d="m752-931 2 1v-2z"/><path d="m756-932-2 2h2z"/><path d="m753-929 1-1-2-1z"/><path d="m755-928-1-2-1 1z"/><path d="m-32-816h32z"/><path d="m32-592-32 16h-32l32-16z"/><path d="m-16-688 16-32z"/><path d="m0-720-16 32h32l16-32z"/><path d="m-32-576 32-16z"/><path d="m0-592v-48z"/><path d="m0-640h32l-16-48h-16z"/><path d="m0-640v48l32-16v-32z"/><path d="m0-640-16-48z"/><path d="m-16-688 16 48v-48z"/><path d="m0-592h32v-16z"/><path d="m0-720h32l-12.8-38.4z"/><path d="m-32-816 32 96 19.2-38.4-19.2-57.6z"/><path d="m0-720-32-96z"/><path d="m128-320h-32z"/><path d="m96-320v-32h32v32z"/><path d="m-11-416v-32z"/><path d="m-11-384v-32z"/><path d="m-11-384v64h22l21-64z"/><path d="m-11-416v32h43v-32z"/><path d="m-32-320 21-64z"/><path d="m-11-384-21 64h21z"/><path d="m448 128h-144z"/><path d="m304 128v-48h144v48z"/><path d="m32-128v-48l120 48v48z"/><path d="m152-128 40-16z"/><path d="m152-128-120-48v48l60 24z"/><path d="m32-176 120 48z"/><path d="m152-128-60 24 60 24z"/><path d="m192-144-40 16v48l40-16z"/><path d="m-256-544h-32z"/><path d="m-256-544-16 64h32l16-64z"/><path d="m-272-480 16-64h32l-16 64z"/><path d="m832-640h-64z"/><path d="m752-752h64z"/><path d="m832-672v32z"/><path d="m816-704 16 32z"/><path d="m816-704v-48h-24z"/><path d="m752-752v48h64l-24-48z"/><path d="m1152-768v90z"/><path d="m1104-678-32 38h48l32-38z"/><path d="m1104-678v-90z"/><path d="m1072-640 32-38z"/><path d="m608-496v-32h32v32z"/><path d="m1088-880h-16z"/><path d="m1104-912v32h-32v-32z"/><path d="m1088-1056h-16z"/><path d="m1104-1088v32h-32v-32z"/><path d="m880-1056h-16z"/><path d="m896-1088v32h-32v-32z"/><path d="m656-848h-16z"/><path d="m672-880v32h-32v-32z"/><path d="m448-848h-16z"/><path d="m464-880v32h-32v-32z"/><path d="m448-688h-16z"/><path d="m464-720v32h-32v-32z"/><path d="m-384-304v-48z"/><path d="m-368-256-16-48z"/><path d="m-384-304 16 48h48v-48z"/><path d="m-256 256v-128z"/><path d="m-288 144h16z"/><path d="m-256 128h-16v16h16z"/><path d="m-320 144h32v-16h-32z"/><path d="m-272 240h-16z"/><path d="m-256 144h-64v96h64z"/><path d="m-256 240h-16v16h16z"/><path d="m-320 256h32v-16h-32z"/><path d="m-288 128v16h16v-16z"/><path d="m-272 128v16-16-16z"/><path d="m-288 144v-16-16 16z"/><path d="m-272 144h-16v-16h16z"/><path d="m-288 128h16v-16h-16z"/><path d="m-288 240v16h16v-16z"/><path d="m-272 240v16 16-16z"/><path d="m-288 256v-16 16 16z"/><path d="m-272 256h-16v16h16z"/><path d="m-288 240h16v16h-16z"/><path d="m690-256h-18v128h18z"/><path d="m690-128h-18z"/><path d="m672-256h18z"/><path d="m688-256h7z"/><path d="m695-128h-7z"/><path d="m688-256v128h7v-128z"/><path d="m688-128v-128z"/><path d="m695-256v128z"/><path d="m-320-176v48z"/><path d="m-448-144v48z"/><path d="m-320-128-96 48z"/><path d="m-448-144 32 16z"/><path d="m-416-128 96-48z"/><path d="m-416-128v48l48-24z"/><path d="m-416-128-32-16v48l32 16z"/><path d="m-304 320v48l-96-48v-48z"/><path d="m-304 368-96-48z"/><path d="m-400 320v-48l-48 16v8z"/><path d="m-400 320 96 48v-48l-96-48z"/><path d="m-448 336 48-16-48-24z"/><path d="m-400 320-48 16z"/><path d="m1008-224h16z"/><path d="m-64 320v-37.3334l12.8 21.3334 19.2 32v16h-16-16z"/><path d="m-64 320h-16z"/><path d="m-64 320h-16v-32-32l16 26.6666z"/><path d="m-48 352v21.3334z"/><path d="m1024-192v32l-9.1429-32z"/><path d="m-128 307.2v12.8-32z"/><path d="m-128 307.2v-19.2h24z"/><path d="m16 384h-32z"/><path d="m16 384v-32-4.5714l65.59 13.118 14.41 2.882v20.5714z"/><path d="m1008-256h16v16 16h-16z"/><path d="m576-471v-9-32z"/><path d="m-128 64h41.6l-25.6 64h-16z"/><path d="m5.3333-720h26.6667l-16 32z"/><path d="m-16 384h32-76.8 12.8 6.4z"/><path d="m1024-768v-32-80 80z"/><path d="m1024-640v32z"/><path d="m1152-768v64l-9 32-23 23-32 9h-64v-128z"/><path d="m992-768h-224z"/><path d="m992-595-128-36-64-18-23-23-9-32v-64h224z"/><path d="m1024-768v128 32 22l-32-9v-173z"/><path d="m786-640h23l-9 9-23 23z"/><path d="m919-576h-23l-9-32z"/><path d="m887-608-23-23 128 36 32 9v10h-105z"/><path d="m786-640-9 32-9 32v-64z"/><path d="m800-631 9-9h23z"/><path d="m800-649-23-23z"/><path d="m887-608 9 32z"/><path d="m800-631-23 23z"/><path d="m384-896v128z"/><path d="m288-896h96-128z"/><path d="m288-896h32 64z"/><path d="m256-768h32z"/><path d="m288-896h-32v128h32z"/><path d="m192-896h32v128h-32z"/><path d="m224-896v128z"/><path d="m256-896v128z"/><path d="m784-512v9 23 32 32 23 9z"/><path d="m784-512h112z"/><path d="m896-512v-64z"/><path d="m896-512v-64h23 105v64z"/><path d="m1024-384h-240z"/><path d="m784-512h112 128v128h-240z"/><path d="m768-512h16z"/><path d="m768-384h16z"/><path d="m768-512h16v128h-16z"/><path d="m256 240v51.5537 28.4463-.1927z"/><path d="m256 240v-48z"/><path d="m256 192h-48l48-64z"/><path d="m256 192v48h-48v-48z"/><path d="m-16 352v21.4 10.6z"/><path d="m-16 352v32h-25.6l-6.4-10.6666v-21.3334z"/><path d="m-41.6 384h-6.4v-10.6666z"/><path d="m-48 373.3334v10.6666h-12.8l-3.2-5.3333v-26.6667h16z"/><path d="m-80 320h16-64z"/><path d="m-128 208v-112-32 64z"/><path d="m-128 96v112 48 32 32-160z"/><path d="m-96 256h-32z"/><path d="m-128 208v-80h16l32 80z"/><path d="m-128 288v-32h32v32z"/><path d="m-128 288h32-8z"/><path d="m0-592v-48h32v48z"/><path d="m0-720-32-96h32l32 96z"/><path d="m0-640-16-48h32l16 48z"/><path d="m-16-688 16-32h5.3333l10.6667 32z"/><path d="m-11-416v-32h43v32z"/><path d="m-11-384v-32h43v32z"/><path d="m-32-320 21-64h43l-21 64z"/><path d="m192-144v48z"/><path d="m152-128 40-16v48l-40 16z"/><path d="m-256-608-32 64h64l32-64z"/><path d="m-288-544 32-64z"/><path d="m752-704v-48z"/><path d="m768-672-16-32z"/><path d="m768-672 16 32h48v-32z"/><path d="m752-704 16 32h64l-16-32z"/><path d="m768-640v-32z"/><path d="m768-672v32h16z"/><path d="m1120-640h-48z"/><path d="m1152-678-32 38z"/><path d="m1104-678v-90h48v90z"/><path d="m-272 160h-32v64h32z"/><path d="m-320 128h32z"/><path d="m-272 128h16z"/><path d="m-288 256h-32z"/><path d="m-256 256h-16z"/><path d="m-320 256v-128z"/><path d="m-288 128v16z"/><path d="m-272 144v-16z"/><path d="m-256 144h-16v-16h16z"/><path d="m-320 128h32v16h-32z"/><path d="m-256 240h-64v-96h64z"/><path d="m-288 240v16z"/><path d="m-272 256v-16z"/><path d="m-256 256h-16v-16h16z"/><path d="m-320 240h32v16h-32z"/><path d="m1024-224v-16z"/><path d="m-64 352v26.6667-10.6667-32-16z"/><path d="m247 352 6.2065-22.0675 2.7935-9.9325z"/><path d="m800-304h-7l7-7 32-9v16z"/><path d="m800-304v32z"/><path d="m800-304v32h-27.5l4.5-16 16-16z"/><path d="m1015-288 4.5 16z"/><path d="m800-73v-23l48 16v16h-16z"/><path d="m688-128h-16z"/><path d="m224 375-32 9h-16v-68.5715l57.1429.0001 20.0636 14.5039-6.2065 22.0675z"/><path d="m1104-640h-32l32-38z"/><path d="m1019.5-272-4.5-16 9 32z"/><path d="m1015-288-23-23z"/><path d="m-60.8 384h-3.2z"/><path d="m192 384h-16z"/><path d="m1152-768v64z"/><path d="m1152-768v-32z"/><path d="m1152-768h-128z"/><path d="m1152-768h-128v-32h128z"/><path d="m192-896h32z"/><path d="m224-768h-32z"/><path d="m288-768h32z"/><path d="m288-896v128z"/><path d="m320-768v-128h-32v128z"/><path d="m256-896v128z"/><path d="m224-896h32v128h-32z"/><path d="m864-320h-32z"/><path d="m864-320h96z"/><path d="m864-64h-32 16z"/><path d="m864-96h32z"/><path d="m864-304v-16 32z"/><path d="m992-256h-16 20.5714 11.4286z"/><path d="m992-192v-16h32v16z"/><path d="m976-256h16v16 16h-16z"/><path d="m992-256h16v16h-16z"/><path d="m1008-224h16v-16h-16z"/><path d="m1024-208h-32z"/><path d="m992-224v-16 32z"/><path d="m1008-240h16-32z"/><path d="m1008-240v-16 32z"/><path d="m992-208v16-32z"/><path d="m848-272h-16-16z"/><path d="m800-304h16v32h-16z"/><path d="m832-272h16v-16h-16z"/><path d="m848-304h16v16h-16z"/><path d="m848-304h-16v-16h32v16z"/><path d="m816-304h16 16z"/><path d="m848-288v16-32z"/><path d="m832-320v16z"/><path d="m848-288h16-21.3334-10.6666z"/><path d="m816-304h-16 32z"/><path d="m864-64v-24-8z"/><path d="m896-96v3.5556 28.4444z"/><path d="m896-96v32h-32v-32z"/><path d="m672-128v-32l16 6.4v25.6z"/><path d="m384-128v32z"/><path d="m352-112v-16 32z"/><path d="m384-96h-32z"/><path d="m256-96v32-16-32-16z"/><path d="m320-128h32z"/><path d="m352-96v16h-32v-16-16h32z"/><path d="m304-128h16v16 16h-16z"/><path d="m256-96v-32h16v32z"/><path d="m304-128v32z"/><path d="m272-96v-32z"/><path d="m304-96h-32z"/><path d="m256-128h16z"/><path d="m272-96h32 16-64z"/><path d="m400 128v-32h32v32z"/><path d="m-64 378.6667 3.2 5.3333z"/><path d="m-128 336h16v32h-16z"/><path d="m-64 320v16h-16-32-16v-16z"/><path d="m-112 368h32 16v10.6667 5.3333h-64v-16z"/><path d="m-64 368h-16v-32h16z"/><path d="m-80 368v-32z"/><path d="m-112 336v32z"/><path d="m-80 368h-32z"/><path d="m-128 160v160 16 32 16z"/><path d="m-128 64v32z"/><path d="m-256-608h64z"/><path d="m-288-544 32-64h64l-32 64z"/><path d="m752-704v-48h64v48z"/><path d="m768-640v-32h64v32z"/><path d="m768-672-16-32h64l16 32z"/><path d="m1152-678-32 38h-16v-38z"/><path d="m-368-416-16-48h64l16 48z"/><path d="m-384-352 16-64h64l-16 64z"/><path d="m-272 224h-32z"/><path d="m-304 160h32z"/><path d="m-272 160v64z"/><path d="m-304 224v-64z"/><path d="m-272 224h-32v-64h32z"/><path d="m-416-128 96-48v48l-96 48z"/><path d="m-448-144 32 16v48l-32-16z"/><path d="m-448 336v-48z"/><path d="m-400 320-48 16v-48l48-16z"/><path d="m224 375-32 9z"/><path d="m224 375 23-23z"/><path d="m1152-768v-32-32z"/><path d="m1024-896v16z"/><path d="m1024-880v-16 32 32z"/><path d="m1024-832v32-80z"/><path d="m1152-800h-128z"/><path d="m1152-800h-128v-32h128z"/><path d="m256-896h-32-32z"/><path d="m352-896h32-64z"/><path d="m352-896h32z"/><path d="m384-768h-32-32z"/><path d="m384-768h-32z"/><path d="m288-896v128z"/><path d="m320-896v128z"/><path d="m352-896h-32v128h32z"/><path d="m256-896h32v128h-32z"/><path d="m-384-304v-48h64v48z"/><path d="m-368-256-16-48h64l16 48z"/><path d="m-128 384h64z"/><path d="m1152-768v-64-32z"/><path d="m-448 320v-64z"/><path d="m-448-64v64 32z"/><path d="m1015-96 9-32z"/><path d="m992-73 23-23-11.5 11.5z"/><path d="m192 384 32-9z"/><path d="m-448 96v160 64h9v-215-9z"/><path d="m176 384h16l32-9h-128v9z"/><path d="m1024-896v-64 64 32z"/><path d="m1024-896v-64z"/><path d="m1024-608v224-128-64-10z"/><path d="m1024-208v16z"/><path d="m1024-256v16z"/><path d="m1024-128v-32-32z"/><path d="m1152-832h-128v-32h128z"/><path d="m1152-832h-128z"/><path d="m1024-192v-16-32-16l-9-32v192l9-32z"/><path d="m1024-640h-9v32h9z"/><path d="m0-576h-32z"/><path d="m0-800v-160 64z"/><path d="m0-800v224h6.4687 2.5313v-160-64z"/><path d="m320-640h-64-23-23-18z"/><path d="m192-896h96-32z"/><path d="m128-896h64z"/><path d="m192-768h32 32z"/><path d="m256-768h32z"/><path d="m256-768h32 32-137 9z"/><path d="m288-896h32v128h-32z"/><path d="m384-896h-32v128h32z"/><path d="m352-896v128z"/><path d="m192-768h-9v128h9z"/><path d="m512 64v-32-64z"/><path d="m784-512v9h112v-9z"/><path d="m896-512v9 9z"/><path d="m1024-384-9-9h-231v9z"/><path d="m768-512v9h16v-9z"/><path d="m576-471v-41-32z"/><path d="m960-64h-64z"/><path d="m864-64h32z"/><path d="m992-240h32v32h-32z"/><path d="m848-304v32h-32v-32z"/><path d="m832-320-32 9z"/><path d="m1015-288-23-23 11.5 11.5z"/><path d="m1024-256-9-32z"/><path d="m992-73-32 9z"/><path d="m768-128 9-9h-89v9z"/><path d="m768-256 9 9v-41z"/><path d="m777-288-9 32z"/><path d="m768-128 9 32z"/><path d="m777-96 23 23-19.0975-19.0975z"/><path d="m704-256h64z"/><path d="m800-311 32-9z"/><path d="m777-288-4.5 16-4.5 16z"/><path d="m800-311-7 7-16 16z"/><path d="m816-304v32z"/><path d="m688-128h64 16z"/><path d="m777-96-9-32z"/><path d="m800-73-23-23z"/><path d="m832-64-32-9z"/><path d="m672-128h16v-9h-16z"/><path d="m656-256h-80v9h80z"/><path d="m512-384h-9v64h9z"/><path d="m192-64h64-32z"/><path d="m-32-576h-224l3.0541 3.0541 5.9459 5.9459h215z"/><path d="m0-576 9 9-2.5313-9z"/><path d="m192-64v-16h16 32 16v16z"/><path d="m192-112h16v32h-16z"/><path d="m256-80h-16v-32h16z"/><path d="m128-304v12l-42.6667-12z"/><path d="m192-238-82.0869 23.0869 64.1356-64.1356 17.9513-17.9513z"/><path d="m109.9131-214.9131-22.9131 22.9131h-23v-112h21.3333l42.6667 12 46.0487 12.9513z"/><path d="m160-137 32-32v41h-32z"/><path d="m185-304 7 7-17.9513 17.9513-46.0487-12.9513v-12-16-28l10.1463-2.8536z"/><path d="m240-112h-32-16v-16h16 12.4445 35.5555v16z"/><path d="m272-96v-32h32v32z"/><path d="m352-128h32v32h-32z"/><path d="m192-384h9z"/><path d="m208-112h32z"/><path d="m192-320 9 32z"/><path d="m192-320 9 32v-96h-9z"/><path d="m384-256 9-9h-169l32 9z"/><path d="m224-265 16 4.5 16 4.5z"/><path d="m240-112v32z"/><path d="m240-80h-32z"/><path d="m208-80v-32z"/><path d="m-128-192v-92.4445l-4.6318-58.5555h-4.3682v87 137l9-9z"/><path d="m-128-384v-64l-9-9v58.7766l9 113.7789z"/><path d="m192-384h-64z"/><path d="m0-448 9-9h-146l9 9z"/><path d="m87-128h-151-64l-9 9h217.5312 6.4688z"/><path d="m192-128h-32-73v9h19.6664 85.3336z"/><path d="m-256-256 9-9-32 9z"/><path d="m-368-128h-80l9 9h80z"/><path d="m192-320v-64z"/><path d="m192-238v69-23z"/><path d="m192-128v16 32 16z"/><path d="m201-288-9-32 4.5001 16z"/><path d="m256-256-16-4.5z"/><path d="m224-265-23-23z"/><path d="m384-128v32z"/><path d="m384-256v128z"/><path d="m304-128h16z"/><path d="m0-320h128z"/><path d="m0-448v32 96z"/><path d="m192-384h-64z"/><path d="m128-384v36 28z"/><path d="m0-304h64z"/><path d="m64-192h-64z"/><path d="m160-192h-73z"/><path d="m64-304v112z"/><path d="m109.9131-214.9131 82.0869-23.0869z"/><path d="m87-192 22.9131-22.9131z"/><path d="m0-304v112z"/><path d="m-64-128h151 73-32-128z"/><path d="m160-128h32z"/><path d="m160-137v-55z"/><path d="m192-169-32 32z"/><path d="m-368-256h64z"/><path d="m-256-256h-23-25z"/><path d="m-368-448v32 160z"/><path d="m-256-576v128z"/><path d="m-256-151v-105 128z"/><path d="m-368-128h112-192z"/><path d="m471 128h-23v-64h64v64z"/><path d="m247 352 9-32z"/><path d="m256 291.5537-9-113.7775v142.2238 32l9-32z"/><path d="m224 375 23-23-11.5 11.5z"/><path d="m512 128-9-9h-32v9z"/><path d="m256 240v-48-64l-9-9v58.7762l9 113.7775z"/><path d="m247 352-23 23z"/><path d="m432 128h-32z"/><path d="m448 128h-16z"/><path d="m256 320-9 32z"/><path d="m-112 336h32v32h-32z"/><path d="m-64 0h64l9-9h-114v9z"/><path d="m-320 0-9-9v137h9z"/><path d="m-128 160v224-9-23-32z"/><path d="m-256 256v-128 16z"/><path d="m-320 320h-9-23-32-32-23-9z"/><path d="m-256 128v128z"/><path d="m0 0v64z"/><path d="m0 64h-64-22.4-41.6z"/><path d="m0 0h-64 32z"/><path d="m-112 336h32z"/><path d="m-128 128v-64 32 64z"/><path d="m-320 128h64z"/><path d="m-297 0h-23 64z"/><path d="m-256 256h-64z"/><path d="m-320 256v64z"/><path d="m-320 320h-128z"/><path d="m688-128v-128h7v128z"/><path d="m-160 352v32z"/><path d="m208-127.0155 12.4445-.9845h-12.4445z"/><path d="m-252.3849-138.1464 5.3849 19.1464v-87.2222z"/><path d="m-252.3849-138.1464-3.6151-12.8536v23l9 9z"/><path d="m1152-880v-16z"/><path d="m1152-864h-128z"/><path d="m1024-896h128v16 16h-128z"/><path d="m320-896h-32-96z"/><path d="m320-768v-128z"/><path d="m352-768h-32v-128h32z"/><path d="m-132.6318-343-4.3682-55.2234v55.2234z"/><path d="m800-73 32 9z"/><path d="m800-73-11.5-11.5-7.5975-7.5975z"/><path d="m1152-880v112-96z"/><path d="m1152-880v-16-32z"/><path d="m-439-119-9-9v64 96 64h9z"/><path d="m-439 105v215h23v-192-23z"/><path d="m224 375 11.5-11.5-11.5-11.5h-128v23z"/><path d="m96 375h-224v9h64 3.2 76.8 80z"/><path d="m1024-928v32-64z"/><path d="m1152-896h-128z"/><path d="m1152-896h-128v-32h128z"/><path d="m9-960h23 32 32 23 9-128z"/><path d="m1015-608v-32h-23v224h23z"/><path d="m1015-288-11.5-11.5-11.5 11.5v192l11.5 11.5 11.5-11.5z"/><path d="m1015-608v192 23l9 9v-224z"/><path d="m1015-640h9z"/><path d="m9-736v160h14 9v-160z"/><path d="m9-960h-9v160h9z"/><path d="m320-896h-128-64-9-23z"/><path d="m192-896h128 32-32z"/><path d="m128-896h-9z"/><path d="m119-896h9v-64h-9z"/><path d="m352-768h-32z"/><path d="m320-768h32 32-64-169 9 23z"/><path d="m352-768v-128z"/><path d="m384-768h-32v-128h32z"/><path d="m183-768h-23v128h23z"/><path d="m1015-393-23-23h-208v23z"/><path d="m784-393h-16v9h16z"/><path d="m992-73 11.5-11.5-11.5-11.5h-192l-11.5 11.5 11.5 11.5z"/><path d="m992-73h-192l32 9h32 32 64z"/><path d="m992-311-32-9z"/><path d="m992-311-32-9h-96-32l-32 9z"/><path d="m777-137 23-23h-112v23z"/><path d="m768-247h9l-9-9h-64-16v9z"/><path d="m800-311-23 23 11.5-11.5z"/><path d="m777-247 23 23-5.0486-17.9512z"/><path d="m777-137-9 9 9 32z"/><path d="m777-137v41l3.9025 3.9025 14.0489-49.9518z"/><path d="m672-247h16v-9h-16z"/><path d="m656-137h-80v9h80z"/><path d="m503-96v160 55l9 9v-64-96-64z"/><path d="m503-320v160 64h9v-160-64z"/><path d="m503-320v-64h-23v224h23z"/><path d="m-23-567h-9-215l23 23h201z"/><path d="m9-576v9l23 23-9-32z"/><path d="m9-567v-9h-2.5313z"/><path d="m-23-567h32l-9-9h-32v9z"/><path d="m-359-439-9-9v192l9-9z"/><path d="m201-384h23 9-41z"/><path d="m208-80v-32h32v32z"/><path d="m224-265-11.5-11.5-11.5-11.5z"/><path d="m393-265 23-23h-192l-11.5 11.5 11.5 11.5z"/><path d="m393-206.2214v-58.7786l-9 9v128l9 9z"/><path d="m393-119-9-9h-32-32-16-32-16-35.5555l-12.4445.9845v8.0155z"/><path d="m208-119v-8.0155-.9845h-16v9z"/><path d="m224-265-23-23z"/><path d="m119-320h-23-32-32-23-9 128z"/><path d="m9-457 23-23h-175.4688l1.42 5.0487 5.0488 17.9513z"/><path d="m9-457-9 9v128h9z"/><path d="m128-384h-9z"/><path d="m119-370-14-14h-9v64h23z"/><path d="m119-384h-14l14 14z"/><path d="m119-370v50h9v-28-36h-9z"/><path d="m192-119h-85.3336l-81.7775 23h53.1111 114z"/><path d="m-137-343v-55.2234-58.7766l-23-23v192 32h23z"/><path d="m-137-119-23 23 17.9512-5.0486z"/><path d="m-247-497.7777v-69.2223l-5.9459-5.9459z"/><path d="m-247-439-9-9h-48-64l9 9z"/><path d="m-247-439v-58.7777l-5.9459-75.1682-3.0541-3.0541v128z"/><path d="m-247-497.7777v58.7777l17.9512 5.0488z"/><path d="m-247-439 23 23-5.0488-17.9512z"/><path d="m-247-265-9 9v105l3.6151 12.8536 5.3849-68.0758z"/><path d="m-247-265 23-23h-112l-23 23z"/><path d="m-247-265h-112l-9 9h64 25z"/><path d="m-247-119-9-9h-112l9 9z"/><path d="m-359-119 5.0488 17.9512 17.9512 5.0488z"/><path d="m247 119-23-23 23 81.7762z"/><path d="m471 119h-23-201l32 9h121 32 16 23z"/><path d="m471 119h32l-23-23h-32v23z"/><path d="m247 119 9 9h23z"/><path d="m-329-9-23-23v160h23z"/><path d="m9 73-9-9h-128v9z"/><path d="m9 49.7783-1.7021 21.5196 1.7021 1.7021z"/><path d="m-105-9h-23-201l32 9h41 151z"/><path d="m-105-9h114l23-23h-160v23z"/><path d="m9-9-9 9v64l7.2979 7.2979 1.7021-21.5196z"/><path d="m9-9v58.7783l17.9512-63.8271z"/><path d="m9 73 23 23v-16.5312z"/><path d="m-329-9 9 9h23z"/><path d="m-329 320h9v-64h-9z"/><path d="m608-1056h-32z"/><path d="m1120-992v-96z"/><path d="m-256 352h96z"/><path d="m-160 384h-96z"/><path d="m-160 384v-32h-96v32z"/><path d="m80.5312-111.6497 26.1352-7.3503h-19.6664-6.4688z"/><path d="m1024-640h64z"/><path d="m1152-880v-48-32 32z"/><path d="m1024-928v-32z"/><path d="m1152-928h-128z"/><path d="m1152-928h-128v-32h128z"/><path d="m384-768v-128z"/><path d="m416-896h-32z"/><path d="m416-768h-32v-128h32z"/><path d="m576-448v64z"/><path d="m576-448v64h16v-7.1111z"/><path d="m594-384h-2z"/><path d="m592-391.1111v7.1111-7.1112z"/><path d="m592-391.1111v-.0001l2 7.1112z"/><path d="m594-384h-2-16z"/><path d="m712-496h56z"/><path d="m712-256-56-128z"/><path d="m656-384 56-112z"/><path d="m712-496-26.1333 52.2667 26.1333 59.7333 56-112z"/><path d="m685.8667-443.7333-29.8667 59.7333h56z"/><path d="m656-384 56 128h56l-56-128z"/><path d="m576-1056v-32z"/><path d="m608-1088v32z"/><path d="m624-1152h-16v64z"/><path d="m864-1120-32-32z"/><path d="m1152-992h-32z"/><path d="m1120-992v-96h32v96z"/><path d="m1120-1088v96h32v-96z"/><path d="m-353.9512-101.0488 1.42 5.0488h16.5312z"/><path d="m-353.9512-101.0488-5.0488-17.9512h-80l23 23h63.4688z"/><path d="m-416 128v192h32v-64-128z"/><path d="m224 352-32-32h-18-23-23-32v32z"/><path d="m-416-96-23-23v215 9h23z"/><path d="m96 352h-224v23h224z"/><path d="m992-288-32 32v18 23 23 64l32 32z"/><path d="m992-416 23 23v-23z"/><path d="m992-640h23 9z"/><path d="m32-736v160h32v-160z"/><path d="m32-960h-23v160 64h23z"/><path d="m96-896h23v-64h-23z"/><path d="m160-768h-32v128h32z"/><path d="m768-416v-32-32-23-9 128-9z"/><path d="m784-416v-32-32-23-9 128-9z"/><path d="m896-480v-23h-112v23z"/><path d="m784-480v32h112v-32z"/><path d="m896-480v32-23z"/><path d="m992-416-32-32h-64-112v32z"/><path d="m768-480h16v-23h-16z"/><path d="m784-480h-16v32h16z"/><path d="m784-416h-16v23h16z"/><path d="m688-160v-32-32-23-9 102.4 25.6-9z"/><path d="m992-96-32-32h-18-23-23-64l-32 32z"/><path d="m992-288h-192l32 32h18 23 23 64z"/><path d="m992-288 11.5-11.5-11.5-11.5h-192l-11.5 11.5 11.5 11.5z"/><path d="m800-160 32-32h-144v32z"/><path d="m800-160-5.0486 17.9507-14.0489 49.9518 7.5975 7.5975 11.5-11.5z"/><path d="m800-96 32-32v-18-23-23l-32 32z"/><path d="m800-288-11.5-11.5-11.5 11.5v41l17.9514 5.0488 5.0486 1.42z"/><path d="m800-224v-16.5312l-5.0486-1.42z"/><path d="m800-240.5312v16.5312l32 32v-46z"/><path d="m800-224-23-23h-89v23z"/><path d="m800-160-23 23 17.9514-5.0493z"/><path d="m672-160v-32-32-23-9 96 32-9z"/><path d="m688-160h-16v23h16z"/><path d="m672-224h16v-23h-16z"/><path d="m576-160v-32-32-23-9 128-9z"/><path d="m576-160v23h80v-23z"/><path d="m576-224h80v-23h-80z"/><path d="m480-160v224h23v-160-64z"/><path d="m480 64v32l23 23v-55z"/><path d="m480-384h-32v64 160h32z"/><path d="m0-544h-23-201l32 32h46 146z"/><path d="m32-576v32l32 32v-32-32z"/><path d="m32-544v-32h-9z"/><path d="m0-544h32l-23-23h-32v23z"/><path d="m-336-96h-16.5312l2.5312 32h46z"/><path d="m-336-416-23-23v174l23-23z"/><path d="m224-384h32-23z"/><path d="m416-288 32-32h-192l-32 32z"/><path d="m416-288-23 81.7786v87.2214l23 23z"/><path d="m416-96 32 32v-32z"/><path d="m416-96h-224v32h96 64 73z"/><path d="m416-96-23-23h-185-16v23z"/><path d="m416-288-23 23v58.7786z"/><path d="m224-384h-23v96l11.5 11.5 11.5-11.5z"/><path d="m96-384h-32v64h32z"/><path d="m32-480 32-32h-64-146l2.5312 32z"/><path d="m32-463.4688v-16.5312l-5.049 17.9513z"/><path d="m32-480-23 23 17.951-5.0487z"/><path d="m32-463.4688v143.4688h32v-64-82z"/><path d="m32-463.4688-5.049 1.4201-17.951 5.0487v137h23z"/><path d="m96-384h9 14 9z"/><path d="m78-96h-53.1111-168.3576l-2.5313 32h9 201 14z"/><path d="m192-96h-114v32h114z"/><path d="m24.8889-96 55.6423-15.6497v-7.3503h-217.5312l-5.0488 17.9514-1.4199 5.0486z"/><path d="m-160-480-32-32v128 64 32h32z"/><path d="m-143.4688-480h-16.5312l17.9512 5.0487z"/><path d="m-160-96h16.5313l1.4199-5.0486z"/><path d="m-143.4687-96h-16.5313l-32 32h46z"/><path d="m-160-256v160l23-23v-137z"/><path d="m-160-480 23 23-5.0488-17.9513z"/><path d="m-224-544-23-23v69.2223l17.9512 63.8265 5.0488 17.9512z"/><path d="m-224-416-23-23h-112l23 23z"/><path d="m-272-96h.531 47.469l-23-23h-112l23 23z"/><path d="m-224-288 32-32h-112l-32 32z"/><path d="m-224-288-23 81.7778v87.2222l23 23z"/><path d="m-224-288-23 23v58.7778z"/><path d="m-272-96v6.7166l.531-6.7166z"/><path d="m-224-96 32 32v-23z"/><path d="m-352.5312-96h-63.4688l32 32h23 11z"/><path d="m480 96-32-32h-32v32z"/><path d="m224 96v192 32h23v-142.2238z"/><path d="m224 320v32l11.5 11.5 11.5-11.5v-32z"/><path d="m224 96-32-32v64 18 23 23 64 32h32z"/><path d="m448 96h-224l23 23h201z"/><path d="m-352 128h-32 23z"/><path d="m-128-32h160l32-32h-201v32z"/><path d="m32-32-5.0488 17.9512-17.9512 63.8271v23.2217l23 6.4688z"/><path d="m32-32-23 23 17.9512-5.0488z"/><path d="m-128-32h-9-215l23 23h201z"/><path d="m32 96-23-23h-137v23z"/><path d="m32 79.4688v16.5312l32 9v-23z"/><path d="m32 96 32 32v-23z"/><path d="m-352-32-32-32v192h32z"/><path d="m-352 320h23v-64h-23z"/><path d="m608-1152h-16l-16 64h32z"/><path d="m1120-1152h-16l16 64z"/><path d="m80-848v32z"/><path d="m48-816v-32z"/><path d="m48-848h32z"/><path d="m80-816h-32z"/><path d="m48-848v32h32v-32z"/><path d="m80-624h-32z"/><path d="m48-624v-32z"/><path d="m80-656v32z"/><path d="m48-656h32z"/><path d="m48-656v32h32v-32z"/><path d="m48-336v-32z"/><path d="m80-368v32z"/><path d="m80-368h-32z"/><path d="m80-336v-32h-32v32z"/><path d="m0-528v32z"/><path d="m-32-496v-32z"/><path d="m0-528h-32z"/><path d="m0-496v-32h-32v32z"/><path d="m-176-528v32z"/><path d="m-208-496v-32z"/><path d="m-176-528h-32z"/><path d="m-176-496v-32h-32v32z"/><path d="m-208-272v-32z"/><path d="m-176-304h-32z"/><path d="m-176-304v32z"/><path d="m-176-272v-32h-32v32z"/><path d="m-208-48v-32z"/><path d="m-176-80v32z"/><path d="m-176-80h-32z"/><path d="m-176-48v-32h-32v32z"/><path d="m-368-80v32z"/><path d="m-368-80h-32z"/><path d="m-400-48v-32z"/><path d="m-368-48v-32h-32v32z"/><path d="m-368 80v32z"/><path d="m-368 80h-32z"/><path d="m-400 112v-32z"/><path d="m-368 112v-32h-32v32z"/><path d="m-368 272v32z"/><path d="m-368 272h-32z"/><path d="m-400 304v-32z"/><path d="m-368 304v-32h-32v32z"/><path d="m-16-80h-32z"/><path d="m-16-80v32z"/><path d="m-48-48v-32z"/><path d="m-16-48v-32h-32v32z"/><path d="m128-48v-32z"/><path d="m160-80v32z"/><path d="m160-80h-32z"/><path d="m160-48v-32h-32v32z"/><path d="m160 48v32z"/><path d="m128 80v-32z"/><path d="m160 48h-32z"/><path d="m160 80v-32h-32v32z"/><path d="m336-80v32z"/><path d="m304-48v-32z"/><path d="m336-80h-32z"/><path d="m336-48v-32h-32v32z"/><path d="m304 80v-32z"/><path d="m336 48h-32z"/><path d="m336 48v32z"/><path d="m336 80v-32h-32v32z"/><path d="m368-320h-32z"/><path d="m336-352h32z"/><path d="m336-320v-32z"/><path d="m368-352v32z"/><path d="m336-352v32h32v-32z"/><path d="m976-464v31.7502.2498z"/><path d="m976-464h-32z"/><path d="m944-432v-32z"/><path d="m960-432.25v.25z"/><path d="m960-464v31.75l16 .0002v-31.7502z"/><path d="m976-432.2498-16-.0002v.25h16z"/><path d="m944-464v32h16v-32z"/><path d="m752-176h-32z"/><path d="m720-176v-32z"/><path d="m720-208h32z"/><path d="m752-208v32z"/><path d="m720-208v32h32v-32z"/><path d="m976-432h-16z"/></g><g id="b"><path d="m-256 384h128-9-23-32-32-23-6.1875z"/><path d="m1152-960v-51-13-64 160z"/><path d="m864-1152h-64-160 192z"/><path d="m1120-1143 23 23z"/><path d="m1088-1152 32 9z"/><path d="m800-1088h-224l9-32 23-23 32-9h160z"/><path d="m1024-1088h-145.7775-78.2225v-64h64 160z"/><path d="m1088-1152 32 9 23 23 9 32h-49.7776-78.2224v-64z"/><path d="m585-1120-9 32z"/><path d="m608-1143-23 23z"/><path d="m1152-1024v13l-46.2223-13z"/><path d="m1102.2224-1025-78.2224-22-145.7775-41h145.7775 78.2224z"/><path d="m1152-1088v64h-46.2223l-3.5553-1v-63z"/><path d="m183 160 9 32v-23z"/><path d="m183 288-23 23-9 9h23z"/><path d="m160 311-32 9h23z"/><path d="m192 288v-32l-9 32-9 32h18z"/><path d="m192 146-32-9 23 23 9 9z"/><path d="m160 137 32 9v-18h-64z"/><path d="m288 48h-96v16h160v-16z"/><path d="m64 48v34 23 23h64 64v-64-16z"/><path d="m-128-96v16h-128v-16z"/><path d="m-192-320v-64h-112v64z"/><path d="m-256 128v-208h128v144 64 16h-128z"/><path d="m-128 144v16 160 64h-128v-128-112z"/><path d="m288-64h-96-114-14v112h128 96z"/><path d="m352 48v-112h-64v112z"/><path d="m192-297-7-7-46.8537-46.8536-10.1463 2.8536v44 112h32 32z"/><path d="m0-192h128v-112h-128z"/><path d="m160-192v64h32v-64z"/><path d="m128-402 32 9-23-23h-9z"/><path d="m192-384-32-9-32-9v18z"/><path d="m416 64h32v-128h-23-73v112 16z"/><path d="m448-320v-64h-32-160v64z"/><path d="m704-416v32h-110l-2-7.1112v-24.8888z"/><path d="m592-384h2 110v64h-128v-64z"/><path d="m512-384 32-9-9 9z"/><path d="m544-393 23-23h25v24.8888 7.1112h-16-41z"/><path d="m640-64h-64v192h64z"/><path d="m960-192-9 32-9 32h18z"/><path d="m928-137-32 9h23z"/><path d="m864-137-23-23-9-9v23z"/><path d="m832-169 9 9-9-32z"/><path d="m896-128-32-9-32-9v18z"/><path d="m951-160-23 23-9 9h23z"/><path d="m960-238-32-9 23 23 9 9z"/><path d="m832-256v18 46l9-32 9-32z"/><path d="m873-256-9 9 32-9z"/><path d="m850-256-9 32 23-23 9-9z"/><path d="m960-215-9-9 9 32z"/><path d="m960-256h-64l32 9 32 9z"/><path d="m151-640h-5l-9 32 23-23 9-9z"/><path d="m128-576 9-32 9-32h-18z"/><path d="m174-640h-5l-9 9 32-9z"/><path d="m128-416h9l-9-32z"/><path d="m128-576v-64-128h-32-32v32 160 32h64z"/><path d="m64-544v32 46 82h23 41v-18-14-32-96z"/><path d="m96-768v-128h-32v128z"/><path d="m576-599-9-9-23-23 32 9z"/><path d="m576-576-9-32 9 9z"/><path d="m544-631-32-9h64v18z"/><path d="m704-448v32h-112-25l9-32z"/><path d="m480-704-9-32 9 9z"/><path d="m448-649-9 9h-23z"/><path d="m448-759-32-9v-112h64v130z"/><path d="m439-640 9-9 7-7 8.9756 8.9756 7.0244 7.0244z"/><path d="m471-672-7.0244 24.9756-8.9756-8.9756z"/><path d="m471-640-7.0244-7.0244 7.0244-24.9756 9-32v64z"/><path d="m471-736-23-23 32 9v23z"/><path d="m576-800v160h-64-32v-64-23-23-130h96z"/><path d="m800-631 9-9h-23l-9 32z"/><path d="m777-608 9-32h-18v64z"/><path d="m896-512v18 23 23h64v-128h-41-23z"/><path d="m896-576h23l-32-32z"/><path d="m864-631 96 27v-36h-64-64z"/><path d="m887-608 32 32h41v-28l-96-27z"/><path d="m832-640h-23l-9 9z"/><path d="m576-880v-16-64-64h128v64 128 32h-128z"/><path d="m704-800v192 32h-128v-23-23-18-160z"/><path d="m704-576v128h-128v-23-51-54z"/><path d="m480-880h-64v-16h96 64v16z"/><path d="m800-1024h9l-9 9-23 23 9-32z"/><path d="m786-1024-9 32-9 32v-64z"/><path d="m1024-983-9-9-23-23 32 9z"/><path d="m832-1024-32 9 9-9z"/><path d="m1024-959.999-9-32.001 9 9z"/><path d="m1024-1006-32-9-32-9h64z"/><path d="m1152-1011v51l-128 .001v-23.001-23-18h81.7777z"/><path d="m800-1024h-14-18-64-128v-64h224z"/><path d="m1024-1024h-64-128-23-9v-64h78.2225l145.7775 41z"/><path d="m1105.7777-1024h-81.7777v-23z"/><path d="m96-896v128z"/><path d="m704-960v128z"/><path d="m704-960v-64 32z"/><path d="m704-384v64z"/><path d="m832-640h64z"/><path d="m960-640h64 64-32-160z"/><path d="m800-649-23-23z"/><path d="m704-1024h64-23z"/><path d="m768-1024v64z"/><path d="m768-928v160 64z"/><path d="m320-640h-128 224z"/><path d="m384-768h-64z"/><path d="m384-896h32z"/><path d="m320-896h-224z"/><path d="m576-896h-64 32z"/><path d="m448-649-32 9z"/><path d="m471-672-16 16-7 7z"/><path d="m480-704-9 32z"/><path d="m128-544v96-128z"/><path d="m448-384h23 23 18-96z"/><path d="m841-224-9 32z"/><path d="m864-247-23 23z"/><path d="m951-224-23-23z"/><path d="m928-247-32-9z"/><path d="m864-137 32 9z"/><path d="m841-160 23 23z"/><path d="m928-137 23-23z"/><path d="m951-160 9-32z"/><path d="m192 256v-64z"/><path d="m64 128h-128 192z"/><path d="m-128-80h-128 9 23 32 32 23z"/><path d="m-128-80v-16z"/><path d="m-256-96v16z"/><path d="m-128-96h-128 9 23 32 32 23z"/><path d="m-128-80v144z"/><path d="m-128 64v64z"/><path d="m-128 320v64z"/><path d="m-384-64-32-32v201 23h32z"/><path d="m96 320h-160-64v32h224z"/><path d="m1152-960h-128v.001z"/><path d="m1120-649 23-23z"/><path d="m1088-640 32-9z"/><path d="m1143-672 9-32z"/><path d="m832-1024h128z"/><path d="m960-1024 32 9z"/><path d="m832-1024-32 9z"/><path d="m992-1015 23 23z"/><path d="m1015-992 9 32.001v-.001z"/><path d="m960-640v36 28 128l32 32v-224z"/><path d="m960-640h32 32z"/><path d="m768-576v-64z"/><path d="m768-704v-64z"/><path d="m768-928v-32 64 64 64z"/><path d="m832-640-32-9 64 18z"/><path d="m768-704 9 32z"/><path d="m786-640h23 23-23-23-18z"/><path d="m887-608-23-23z"/><path d="m800-631 32-9z"/><path d="m777-608-9 32z"/><path d="m64-768v-128-64h-32v224h32z"/><path d="m146-640h5 9-32z"/><path d="m169-640h5 9-23-9z"/><path d="m192-640h128-128-9-9z"/><path d="m416-640h23 32 9 32-64-32-14-82z"/><path d="m384-768h32z"/><path d="m416-880v112-128z"/><path d="m384-896h-32-32z"/><path d="m96-896h-32z"/><path d="m64-896h32v-64h-32z"/><path d="m128-768h32-9z"/><path d="m544-631 23 23z"/><path d="m567-608 9 32z"/><path d="m896-494v-9 23 9z"/><path d="m784-448h-16v32h16z"/><path d="m576-522v51-73-23z"/><path d="m576-576v54-45z"/><path d="m544-393-32 9z"/><path d="m567-416-23 23z"/><path d="m832-256-32-32v47.4688l32 2.5312z"/><path d="m832-192-32-32h-112v32z"/><path d="m688-192h-16v32h16z"/><path d="m672-192h16v-32h-16z"/><path d="m576-192v32h80v-32z"/><path d="m656-192v-32h-80v32z"/><path d="m576-64v192z"/><path d="m494-384h9 9z"/><path d="m471-384h9 23-9z"/><path d="m448-160v64 32 128h32v-224z"/><path d="m448 64 32 32v-32z"/><path d="m448-384h32-9z"/><path d="m64-512-32-32h-32v32z"/><path d="m-304-320v-64l-32-32v128z"/><path d="m192-297v105 64-41-69z"/><path d="m448-64-32-32 9 32z"/><path d="m448-160v-160l-32 32v192h32z"/><path d="m256-384h-32v96l32-32z"/><path d="m160-192h-32-128 64 23z"/><path d="m0-304h128-42.6667-21.3333z"/><path d="m128-304v-44 28z"/><path d="m192-384h-64z"/><path d="m128-348 10.1463-2.8536z"/><path d="m138.1463-350.8536 46.8537 46.8536z"/><path d="m128-384h-41 9z"/><path d="m64-384h32-9z"/><path d="m64-512-32 32v16.5312l32-2.5312z"/><path d="m0-192v-112z"/><path d="m185-304 7 7z"/><path d="m192-128h-32z"/><path d="m160-128v-64 55z"/><path d="m-192-288v201 23l32-32v-160-32z"/><path d="m-146-512h-46l32 32h16.5312z"/><path d="m-192-384-32-32h-112l32 32z"/><path d="m-192-512-32-32v128l32 32z"/><path d="m-192-288v-32l-32 32v192l32 9z"/><path d="m-192-64-32-32h-47.469l-.531 6.7166v25.2834z"/><path d="m-272-64v-25.2834-6.7166h-64l32 32z"/><path d="m416 64h-64-160l32 32h192z"/><path d="m192 288v32l32 32v-32-32z"/><path d="m-256 128h-64-9-9z"/><path d="m-338 128h9-23-9z"/><path d="m-137-64h-9-46-80-32-46-11l9 32h215z"/><path d="m64 48v-112l-32 32v111.4688l32 2.5312z"/><path d="m-128 128v-32-23-9z"/><path d="m-64 128h128l-32-32h-160v32z"/><path d="m-361-64h-23l32 32z"/><path d="m-128 144v-16 32z"/><path d="m-338 256h9 9 64z"/><path d="m-361 256h9 23-9z"/><path d="m-384 256h32-9z"/><path d="m-384 320h32v-64h-32z"/><path d="m462-379 2 1v2l-1 1h-2l-1-2z"/><path d="m434-379 2 1v2l-1 1h-2l-1-2z"/><path d="m386-379 2 1v2l-1 1h-2l-1-2z"/><path d="m334-379 2 1v2l-1 1h-2l-1-2z"/><path d="m302-379 2 1v2l-1 1h-2l-1-2z"/><path d="m258-379 2 1v2l-1 1h-2l-1-2z"/><path d="m242-379 2 1v2l-1 1h-2l-1-2z"/><path d="m274-379 2 1v2l-1 1h-2l-1-2z"/><path d="m322-379 2 1v2l-1 1h-2l-1-2z"/><path d="m370-379 2 1v2l-1 1h-2l-1-2z"/><path d="m414-379 2 1v2l-1 1h-2l-1-2z"/><path d="m446-379 2 1v2l-1 1h-2l-1-2z"/><path d="m462-379v2l2-1z"/><path d="m240-377h2v-2z"/><path d="m464-378-2 1 2 1z"/><path d="m241-375 1-2h-2z"/><path d="m464-376-2-1 1 2z"/><path d="m244-376-2-1 1 2z"/><path d="m461-375 1-2h-2z"/><path d="m460-377h2v-2z"/><path d="m463-375-1-2-1 2z"/><path d="m256-377h2v-2z"/><path d="m446-379v2l2-1z"/><path d="m257-375 1-2h-2z"/><path d="m448-378-2 1 2 1z"/><path d="m260-376-2-1 1 2z"/><path d="m448-376-2-1 1 2z"/><path d="m272-377h2v-2z"/><path d="m387-375-1-2-1 2z"/><path d="m275-375-1-2-1 2z"/><path d="m323-375-1-2-1 2z"/><path d="m447-375-1-2-1 2z"/><path d="m273-375 1-2h-2z"/><path d="m445-375 1-2h-2z"/><path d="m444-377h2v-2z"/><path d="m276-376-2-1 1 2z"/><path d="m434-379v2l2-1z"/><path d="m300-377h2v-2z"/><path d="m436-378-2 1 2 1z"/><path d="m301-375 1-2h-2z"/><path d="m436-376-2-1 1 2z"/><path d="m304-376-2-1 1 2z"/><path d="m433-375 1-2h-2z"/><path d="m432-377h2v-2z"/><path d="m435-375-1-2-1 2z"/><path d="m320-377h2v-2z"/><path d="m414-379v2l2-1z"/><path d="m321-375 1-2h-2z"/><path d="m416-378-2 1 2 1z"/><path d="m324-376-2-1 1 2z"/><path d="m416-376-2-1 1 2z"/><path d="m332-377h2v-2z"/><path d="m413-375 1-2h-2z"/><path d="m412-377h2v-2z"/><path d="m415-375-1-2-1 2z"/><path d="m333-375 1-2h-2z"/><path d="m386-379v2l2-1z"/><path d="m336-376-2-1 1 2z"/><path d="m388-378-2 1 2 1z"/><path d="m368-377h2v-2z"/><path d="m388-376-2-1 1 2z"/><path d="m369-375 1-2h-2z"/><path d="m385-375 1-2h-2z"/><path d="m384-377h2v-2z"/><path d="m372-376-2-1 1 2z"/><path d="m371-375-1-2-1 2z"/><path d="m372-378-2 1 2 1z"/><path d="m370-379v2l2-1z"/><path d="m335-375-1-2-1 2z"/><path d="m336-378-2 1 2 1z"/><path d="m334-379v2l2-1z"/><path d="m322-379v2l2-1z"/><path d="m324-378-2 1 2 1z"/><path d="m303-375-1-2-1 2z"/><path d="m304-378-2 1 2 1z"/><path d="m302-379v2l2-1z"/><path d="m274-379v2l2-1z"/><path d="m276-378-2 1 2 1z"/><path d="m259-375-1-2-1 2z"/><path d="m260-378-2 1 2 1z"/><path d="m258-379v2l2-1z"/><path d="m242-379v2l2-1z"/><path d="m243-375-1-2-1 2z"/><path d="m244-378-2 1 2 1z"/><path d="m768-512h20z"/><path d="m788-384h-20v-128h20z"/><path d="m788-384h-20z"/><path d="m768-384v-128z"/><path d="m788-512v128z"/><path d="m-256-96v17h128v-17z"/><path d="m-256-79v-17z"/><path d="m-128-96v17z"/><path d="m-256-96h128z"/><path d="m-128-79h-128z"/><path d="m-98 112 2 1v2l-2 1-2-1v-2z"/><path d="m-46 112 2 1v2l-2 1-2-1v-2z"/><path d="m-18 112 2 1v2l-2 1-2-1v-2z"/><path d="m30 112 2 1v2l-2 1-2-1v-2z"/><path d="m62 112 2 1v2l-2 1-2-1v-2z"/><path d="m114 112 2 1v2l-2 1-2-1v-2z"/><path d="m142 112 2 1v2l-2 1-2-1v-2z"/><path d="m130 112 2 1v2l-2 1-2-1v-2z"/><path d="m98 112 2 1v2l-2 1-2-1v-2z"/><path d="m50 112 2 1v2l-2 1-2-1v-2z"/><path d="m2 112 2 1v2l-2 1-2-1v-2z"/><path d="m-34 112 2 1v2l-2 1-2-1v-2z"/><path d="m-78 112 2 1v2l-2 1-2-1v-2z"/><path d="m-98 112v2l2-1z"/><path d="m140 113 2 1v-2z"/><path d="m-78 112v2l2-1z"/><path d="m128 113 2 1v-2z"/><path d="m-46 112v2l2-1z"/><path d="m112 113 2 1v-2z"/><path d="m-34 112v2l2-1z"/><path d="m96 113 2 1v-2z"/><path d="m-18 112v2l2-1z"/><path d="m60 113 2 1v-2z"/><path d="m2 112v2l2-1z"/><path d="m48 113 2 1v-2z"/><path d="m30 112v2l2-1z"/><path d="m28 113 2 1v-2z"/><path d="m32 113-2 1 2 1z"/><path d="m28 115 2-1-2-1z"/><path d="m32 115-2-1v2z"/><path d="m30 116v-2l-2 1z"/><path d="m50 112v2l2-1z"/><path d="m48 115 2-1-2-1z"/><path d="m52 113-2 1 2 1z"/><path d="m50 116v-2l-2 1z"/><path d="m52 115-2-1v2z"/><path d="m0 113 2 1v-2z"/><path d="m4 113-2 1 2 1z"/><path d="m0 115 2-1-2-1z"/><path d="m4 115-2-1v2z"/><path d="m2 116v-2l-2 1z"/><path d="m62 112v2l2-1z"/><path d="m60 115 2-1-2-1z"/><path d="m64 113-2 1 2 1z"/><path d="m62 116v-2l-2 1z"/><path d="m64 115-2-1v2z"/><path d="m-20 113 2 1v-2z"/><path d="m-16 113-2 1 2 1z"/><path d="m-20 115 2-1-2-1z"/><path d="m-16 115-2-1v2z"/><path d="m-18 116v-2l-2 1z"/><path d="m98 112v2l2-1z"/><path d="m96 115 2-1-2-1z"/><path d="m100 113-2 1 2 1z"/><path d="m98 116v-2l-2 1z"/><path d="m100 115-2-1v2z"/><path d="m-36 113 2 1v-2z"/><path d="m-32 113-2 1 2 1z"/><path d="m-36 115 2-1-2-1z"/><path d="m-32 115-2-1v2z"/><path d="m-34 116v-2l-2 1z"/><path d="m114 112v2l2-1z"/><path d="m112 115 2-1-2-1z"/><path d="m116 113-2 1 2 1z"/><path d="m114 116v-2l-2 1z"/><path d="m116 115-2-1v2z"/><path d="m-48 113 2 1v-2z"/><path d="m-44 113-2 1 2 1z"/><path d="m-48 115 2-1-2-1z"/><path d="m-44 115-2-1v2z"/><path d="m-46 116v-2l-2 1z"/><path d="m130 112v2l2-1z"/><path d="m128 115 2-1-2-1z"/><path d="m132 113-2 1 2 1z"/><path d="m130 116v-2l-2 1z"/><path d="m132 115-2-1v2z"/><path d="m-80 113 2 1v-2z"/><path d="m-76 113-2 1 2 1z"/><path d="m-80 115 2-1-2-1z"/><path d="m-76 115-2-1v2z"/><path d="m-78 116v-2l-2 1z"/><path d="m142 112v2l2-1z"/><path d="m140 115 2-1-2-1z"/><path d="m144 113-2 1 2 1z"/><path d="m142 116v-2l-2 1z"/><path d="m144 115-2-1v2z"/><path d="m-100 113 2 1v-2z"/><path d="m-96 113-2 1 2 1z"/><path d="m-100 115 2-1-2-1z"/><path d="m-96 115-2-1v2z"/><path d="m-98 116v-2l-2 1z"/><path d="m206 180-2-1v-2l2-1 2 1v2z"/><path d="m205 210-2-1v-2l2-1 2 1v2z"/><path d="m205 240-2-1v-2l2-1 2 1v2z"/><path d="m206 276-2-1v-2l2-1 2 1v2z"/><path d="m206 256-2-1v-2l2-1 2 1v2z"/><path d="m204 224-2-1v-2l2-1 2 1v2z"/><path d="m205 196-2-1v-2l2-1 2 1v2z"/><path d="m206 180v-2l-2 1z"/><path d="m208 179-2-1v2z"/><path d="m204 179 2-1-2-1z"/><path d="m208 177-2 1 2 1z"/><path d="m204 177 2 1v-2z"/><path d="m206 176v2l2-1z"/><path d="m208 275-2-1v2z"/><path d="m205 196v-2l-2 1z"/><path d="m207 195-2-1v2z"/><path d="m203 195 2-1-2-1z"/><path d="m207 193-2 1 2 1z"/><path d="m203 193 2 1v-2z"/><path d="m205 192v2l2-1z"/><path d="m208 273-2 1 2 1z"/><path d="m205 210v-2l-2 1z"/><path d="m207 209-2-1v2z"/><path d="m203 209 2-1-2-1z"/><path d="m207 207-2 1 2 1z"/><path d="m203 207 2 1v-2z"/><path d="m205 206v2l2-1z"/><path d="m206 272v2l2-1z"/><path d="m204 224v-2l-2 1z"/><path d="m206 223-2-1v2z"/><path d="m202 223 2-1-2-1z"/><path d="m206 221-2 1 2 1z"/><path d="m202 221 2 1v-2z"/><path d="m204 220v2l2-1z"/><path d="m208 255-2-1v2z"/><path d="m205 240v-2l-2 1z"/><path d="m207 239-2-1v2z"/><path d="m203 239 2-1-2-1z"/><path d="m207 237-2 1 2 1z"/><path d="m203 237 2 1v-2z"/><path d="m205 236v2l2-1z"/><path d="m208 253-2 1 2 1z"/><path d="m206 256v-2l-2 1z"/><path d="m206 252v2l2-1z"/><path d="m204 255 2-1-2-1z"/><path d="m204 253 2 1v-2z"/><path d="m206 276v-2l-2 1z"/><path d="m204 273 2 1v-2z"/><path d="m204 275 2-1-2-1z"/><path d="m126 336-2-1v-2l2-1 2 1v2z"/><path d="m94 336-2-1v-2l2-1 2 1v2z"/><path d="m66 336-2-1v-2l2-1 2 1v2z"/><path d="m18 336-2-1v-2l2-1 2 1v2z"/><path d="m-14 336-2-1v-2l2-1 2 1v2z"/><path d="m-66 336-2-1v-2l2-1 2 1v2z"/><path d="m-94 336-2-1v-2l2-1 2 1v2z"/><path d="m-78 336-2-1v-2l2-1 2 1v2z"/><path d="m-34 336-2-1v-2l2-1 2 1v2z"/><path d="m2 336-2-1v-2l2-1 2 1v2z"/><path d="m46 336-2-1v-2l2-1 2 1v2z"/><path d="m82 336-2-1v-2l2-1 2 1v2z"/><path d="m114 336-2-1v-2l2-1 2 1v2z"/><path d="m4 333-2 1 2 1z"/><path d="m20 335-2-1v2z"/><path d="m18 336v-2l-2 1z"/><path d="m20 333-2 1 2 1z"/><path d="m16 335 2-1-2-1z"/><path d="m18 332v2l2-1z"/><path d="m16 333 2 1v-2z"/><path d="m126 336v-2l-2 1z"/><path d="m128 335-2-1v2z"/><path d="m124 335 2-1-2-1z"/><path d="m128 333-2 1 2 1z"/><path d="m124 333 2 1v-2z"/><path d="m126 332v2l2-1z"/><path d="m48 335-2-1v2z"/><path d="m46 336v-2l-2 1z"/><path d="m48 333-2 1 2 1z"/><path d="m44 335 2-1-2-1z"/><path d="m46 332v2l2-1z"/><path d="m44 333 2 1v-2z"/><path d="m114 336v-2l-2 1z"/><path d="m116 335-2-1v2z"/><path d="m112 335 2-1-2-1z"/><path d="m116 333-2 1 2 1z"/><path d="m112 333 2 1v-2z"/><path d="m114 332v2l2-1z"/><path d="m68 335-2-1v2z"/><path d="m66 336v-2l-2 1z"/><path d="m68 333-2 1 2 1z"/><path d="m64 335 2-1-2-1z"/><path d="m66 332v2l2-1z"/><path d="m64 333 2 1v-2z"/><path d="m94 336v-2l-2 1z"/><path d="m96 335-2-1v2z"/><path d="m92 335 2-1-2-1z"/><path d="m96 333-2 1 2 1z"/><path d="m92 333 2 1v-2z"/><path d="m94 332v2l2-1z"/><path d="m84 335-2-1v2z"/><path d="m82 336v-2l-2 1z"/><path d="m84 333-2 1 2 1z"/><path d="m80 335 2-1-2-1z"/><path d="m82 332v2l2-1z"/><path d="m80 333 2 1v-2z"/><path d="m-92 335-2-1v2z"/><path d="m-94 336v-2l-2 1z"/><path d="m-92 333-2 1 2 1z"/><path d="m-96 335 2-1-2-1z"/><path d="m-94 332v2l2-1z"/><path d="m-96 333 2 1v-2z"/><path d="m0 335 2-1-2-1z"/><path d="m4 335-2-1v2z"/><path d="m2 336v-2l-2 1z"/><path d="m2 332v2l2-1z"/><path d="m0 333 2 1v-2z"/><path d="m-76 335-2-1v2z"/><path d="m-78 336v-2l-2 1z"/><path d="m-76 333-2 1 2 1z"/><path d="m-80 335 2-1-2-1z"/><path d="m-78 332v2l2-1z"/><path d="m-80 333 2 1v-2z"/><path d="m-14 336v-2l-2 1z"/><path d="m-12 335-2-1v2z"/><path d="m-16 335 2-1-2-1z"/><path d="m-12 333-2 1 2 1z"/><path d="m-16 333 2 1v-2z"/><path d="m-14 332v2l2-1z"/><path d="m-64 335-2-1v2z"/><path d="m-66 336v-2l-2 1z"/><path d="m-64 333-2 1 2 1z"/><path d="m-68 335 2-1-2-1z"/><path d="m-66 332v2l2-1z"/><path d="m-68 333 2 1v-2z"/><path d="m-34 336v-2l-2 1z"/><path d="m-32 335-2-1v2z"/><path d="m-36 335 2-1-2-1z"/><path d="m-32 333-2 1 2 1z"/><path d="m-36 333 2 1v-2z"/><path d="m-34 332v2l2-1z"/><path d="m768-256h-56z"/><path d="m656-384 56-112h56l-56 112z"/><path d="m712-256-56-128h56l56 128z"/><path d="m712-384 56 128z"/><path d="m768-496-56 112z"/><path d="m608-1088v32h-32v-32z"/><path d="m608-1088h-32l16-64h32z"/><path d="m624-1152-16 64z"/><path d="m576-1088v32h32v-32z"/><path d="m832-1152v-32z"/><path d="m832-1152v-32l32 32v32z"/><path d="m992-1152-128 32z"/><path d="m864-1152-32-32v32l32 32z"/><path d="m864-1152 25.6-6.4z"/><path d="m864-1152 128-32-102.4 25.6z"/><path d="m992-1184-128 32v32l128-32z"/><path d="m1104-1152h32z"/><path d="m1152-1088v96z"/><path d="m1136-1152h-16v64h32z"/><path d="m1120-1088-16-64z"/><path d="m48-816v-32h32v32z"/><path d="m48-624v-32h32v32z"/><path d="m80-336h-32z"/><path d="m80-368v32h-32v-32z"/><path d="m0-496h-32z"/><path d="m0-528v32h-32v-32z"/><path d="m-176-496h-32z"/><path d="m-176-528v32h-32v-32z"/><path d="m-176-272h-32z"/><path d="m-176-304v32h-32v-32z"/><path d="m-176-48h-32z"/><path d="m-176-80v32h-32v-32z"/><path d="m-368-48h-32z"/><path d="m-368-80v32h-32v-32z"/><path d="m-368 112h-32z"/><path d="m-368 80v32h-32v-32z"/><path d="m-368 304h-32z"/><path d="m-368 272v32h-32v-32z"/><path d="m-16-48h-32z"/><path d="m-16-80v32h-32v-32z"/><path d="m160-48h-32z"/><path d="m160-80v32h-32v-32z"/><path d="m160 80h-32z"/><path d="m160 48v32h-32v-32z"/><path d="m336-48h-32z"/><path d="m336-80v32h-32v-32z"/><path d="m336 80h-32z"/><path d="m336 48v32h-32v-32z"/><path d="m336-320v-32h32v32z"/><path d="m960-432h-16z"/><path d="m976-464v32h-32v-32z"/><path d="m720-176v-32h32v32z"/><path d="m690-128h-18v-128h18z"/><path d="m672-128v-128z"/><path d="m690-256v128z"/><path d="m-256 384v-32z"/><path d="m592-1152h32z"/><path d="m576-1088 16-64z"/><path d="m992-1184v32z"/><path d="m992-1184v32l-128 32v-32z"/><path d="m832-1184 32 32z"/><path d="m1152-1088h-32l-16-64h32z"/><path d="m1136-1152 16 64z"/><path d="m-288 128v-16h16v16z"/><path d="m-288 272v-16h16v16z"/><path d="m1152-1088v160z"/><path d="m1152-928v224-64-112z"/><path d="m1152-704-9 32z"/><path d="m192-384-32-9z"/><path d="m1088-640h-32z"/><path d="m832-640-32-9z"/><path d="m768-928v224-192z"/><path d="m768-960v32z"/><path d="m416-640h-224z"/><path d="m128-576 9-32z"/><path d="m512-384h23 41z"/><path d="m416-384h-224 41 23z"/><path d="m512-384h-32-41-23z"/><path d="m256 192v64z"/><path d="m841-224-9 32z"/><path d="m960-192-9-32z"/><path d="m864-247-23 23z"/><path d="m951-224-23-23z"/><path d="m896-256-32 9z"/><path d="m928-247-32-9z"/><path d="m864-137 32 9z"/><path d="m896-128 32-9z"/><path d="m841-160 23 23z"/><path d="m928-137 23-23z"/><path d="m832-192 9 32z"/><path d="m951-160 9-32z"/><path d="m208 192h48v64h-48z"/><path d="m256 256h-48z"/><path d="m-64 320h160 32z"/><path d="m-64 320h192-128z"/><path d="m192 256-9 32z"/><path d="m128 128 32 9z"/><path d="m-256 384v-32h96v32z"/><path d="m1152-928v32 192z"/><path d="m1152-1088-9-32z"/><path d="m1152-1088-9-32z"/><path d="m1152-928v-160l-9-32v212.5 11.5h9z"/><path d="m1056-1152h32-64-160z"/><path d="m640-1152-32 9z"/><path d="m640-1152-32 9z"/><path d="m1143-1120-23-23 11.5 11.5z"/><path d="m832-1152h-192l-32 9h212.5 11.5z"/><path d="m1056-1152h-192-32v9h212.5 11.5z"/><path d="m1120-1143-32-9z"/><path d="m585-1120-9 32z"/><path d="m608-1143-23 23 11.5-11.5z"/><path d="m1143-672 9-32z"/><path d="m1143-672-23 23z"/><path d="m1120-649 23-23-11.5 11.5z"/><path d="m96-896v128h9v-119z"/><path d="m704-608v64 160-32-32-128z"/><path d="m704-832v64 160-192z"/><path d="m1056-640h-32-192 64z"/><path d="m832-640-32-9z"/><path d="m800-649-11.5-11.5-11.5-11.5z"/><path d="m1056-640h32l32-9h-96v9z"/><path d="m777-672-9-32z"/><path d="m768-704 9 32z"/><path d="m1120-649-32 9z"/><path d="m1088-640 32-9z"/><path d="m768-1024 9-9-32 9z"/><path d="m768-960v32z"/><path d="m768-896v192l9 32v-128-96z"/><path d="m768-1024v64 32 32h9v-128z"/><path d="m704-1024-9-9v41h9z"/><path d="m384-896h-64z"/><path d="m416-896h96z"/><path d="m576-1088v64 64z"/><path d="m576-896v-64z"/><path d="m576-1088v128 64h9v-192z"/><path d="m576-896 9 9v-9z"/><path d="m320-896h-224l9 9h215z"/><path d="m544-896h-32-96-32-64v9h9 161.6665l53.3335-4.2186z"/><path d="m576-384v64z"/><path d="m832-169 9 9 23 23-32-9z"/><path d="m942-128 9-32 9-32v64z"/><path d="m896-128 32-9-9 9z"/><path d="m832-112v-16h64 23 23 18v16z"/><path d="m919-128 9-9 23-23-9 32z"/><path d="m832-192 9 32-9-9z"/><path d="m832-146 32 9 32 9h-64z"/><path d="m873-256-9 9-23 23 9-32z"/><path d="m960-238-32-9-32-9h64z"/><path d="m960-192-9-32 9 9z"/><path d="m816-272h16v16 64 23 23 18 16h-16z"/><path d="m960-128v-64-23-23-18-16h16v160h-16z"/><path d="m960-256h-64-23-23-18v-16h128z"/><path d="m960-215-9-9-23-23 32 9z"/><path d="m896-256-32 9 9-9z"/><path d="m850-256-9 32-9 32v-64z"/><path d="m960-192-9-32z"/><path d="m896-256-32 9z"/><path d="m896-128 32-9z"/><path d="m832-192 9 32z"/><path d="m-128-80h-9-23-32-32-23-9z"/><path d="m-128-80v-16h-9v16z"/><path d="m-128 128h64z"/><path d="m-128 320h64z"/><path d="m-128 64v-144h-9v208h9z"/><path d="m-376 256 4-9 2.875-23 1.125-32-1.125-32-2.875-23-4-9h-8v128z"/><path d="m-376 256h-8 23 23 82z"/><path d="m-256 256 9-9h-125l-4 9z"/><path d="m-256 128h-82-23-23 8z"/><path d="m-256-80v208z"/><path d="m-256 128 9 9-2.5312-9z"/><path d="m-256 256v128z"/><path d="m-256 256v128h2.8125l6.1875-78.2222v-49.7778z"/><path d="m578.0847-893.9148-2.0847-2.0852h-32v4.7814z"/><path d="m-253.1875 384h6.1875v-78.2222z"/><path d="m-374.413 131.5708 2.413 5.4292h66.2221z"/><path d="m704-1031.875v-1.125h-9l9 2.5312z"/><path d="m1143-896v212.5 11.5l9-32v-192z"/><path d="m1120-1143-32-9h-32v9z"/><path d="m1143-1120-11.5-11.5-11.5 11.5v32 68 69 43.5h23z"/><path d="m820.5-1143h-212.5l-11.5 11.5 11.5 11.5h212.5z"/><path d="m1044.5-1143h-212.5-11.5v23h11.5 212.5z"/><path d="m585-1120-9 32h9z"/><path d="m1024-649h96l11.5-11.5-11.5-11.5h-96-11.5v23z"/><path d="m1024-649h-11.5-212.5l32 9h192z"/><path d="m718.2222-1033h-14.2222v1.125z"/><path d="m777-1033-9 9h9z"/><path d="m777-1033h-58.7778l-14.2222 1.125v1.4062 6.4688h41z"/><path d="m777-1033 23-23-81.7778 23z"/><path d="m777-1024v128 96h23v-64-160z"/><path d="m777-800v128l11.5 11.5 11.5-11.5v-128z"/><path d="m695-992v-41l-23-23v192 32h23z"/><path d="m695-544v160 64h9v-64-160z"/><path d="m695-768v160 64h9v-64-160z"/><path d="m695-992v160 64h9v-64-128-32z"/><path d="m695-1033 9 9v-6.4688z"/><path d="m105-887v119h23v-96z"/><path d="m585-1088v192h14 9v-192z"/><path d="m585-896v9l23 23-9-32z"/><path d="m329-887h-9-215l23 23h201z"/><path d="m553-887h-62.3335-161.6665v23h23 201z"/><path d="m585-887h-32v23h23 15.4688z"/><path d="m553-887h32l-6.9153-6.9148-87.4182 6.9148z"/><path d="m585-384h-9v64h9z"/><path d="m-137-80v-16h-23v16z"/><path d="m-247-96h-9v16h9z"/><path d="m-137 384h9v-64h-9z"/><path d="m-137 128h-5.0488-3.9512 18z"/><path d="m-137-80h-23v208h23z"/><path d="m-137 128h-23 17.9512z"/><path d="m-247 247 23-23h-145.125l-2.875 23z"/><path d="m-247-80h-9v208h6.4688 2.5312z"/><path d="m-247 137v-9h-2.5312z"/><path d="m-247 128v9l23 23v-16-16z"/><path d="m-247 137-9-9h-120l1.587 3.5708 68.6351 5.4292z"/><path d="m-247 247-9 9h9z"/><path d="m-247 247v9h14l3.9512-14.0487z"/><path d="m-247 256v49.7778l14-49.7778z"/><path d="m1120-907.5v143.0554 80.9446h23v-212.5-11.5z"/><path d="m1120-683.5v11.5l11.5 11.5 11.5-11.5v-11.5z"/><path d="m1056-1120h64l11.5-11.5-11.5-11.5h-64-11.5v23z"/><path d="m1120-1120-32 32h32z"/><path d="m608-1120-11.5-11.5-11.5 11.5v32h23z"/><path d="m832-1120h-11.5-212.5l32 32h23 41 128z"/><path d="m1056-1120h-11.5-212.5v32h46.2222 177.7778z"/><path d="m1012.5-672h-212.5l-11.5 11.5 11.5 11.5h212.5z"/><path d="m1120-672-32-32h-64v32z"/><path d="m800-864v64 128l32-32v-128-32z"/><path d="m800-1056h-96v23h14.2222z"/><path d="m800-1056-23 23v9h23z"/><path d="m672-832v192 32h23v-160-64z"/><path d="m672-608v192 32h23v-160-64z"/><path d="m672-384v64h23v-64z"/><path d="m704-1056h-32l23 23h9z"/><path d="m672-1056-32-32v192 32h32z"/><path d="m128-864v96h32v-64z"/><path d="m352-864h-23-201l32 32h192z"/><path d="m576-864h-23-201v32h32 32 160z"/><path d="m608-864v-32h-9z"/><path d="m608-896v32l32 32v-32-32z"/><path d="m608-864-23-23 6.4688 23z"/><path d="m608-384h-23v64h23z"/><path d="m-160-80v-16h-32v16z"/><path d="m-224-96h-23v16h23z"/><path d="m-160 384h23v-64h-23z"/><path d="m-160-80h-32v208h32z"/><path d="m-160 128h-32 23z"/><path d="m-224 224 32-32h-176l-1.125 32z"/><path d="m-224 224-5.0488 17.9513-3.9512 14.0487-14 49.7778v78.2222h23z"/><path d="m-224 144v16l32 32v-48z"/><path d="m-224 160-81.7779-23h-66.2221l2.875 23z"/><path d="m-224-80h-23v208h23z"/><path d="m-224 160-23-23h-58.7779z"/><path d="m-224 224-23 23 17.9512-5.0487z"/><path d="m-176 336h-32z"/><path d="m-208 368v-32z"/><path d="m-176 336v32z"/><path d="m-176 368v-32h-32v32z"/><path d="m-176 144h-32z"/><path d="m-208 176v-32z"/><path d="m-176 144v32z"/><path d="m-176 176v-32h-32v32z"/><path d="m-176-48h-32z"/><path d="m-208-16v-32z"/><path d="m-176-48v32z"/><path d="m-176-16v-32h-32v32z"/><path d="m208-816v-32z"/><path d="m240-816h-32z"/><path d="m240-848v32z"/><path d="m208-848h32z"/><path d="m208-848v32h32v-32z"/><path d="m352-816v-32z"/><path d="m384-816h-32z"/><path d="m384-848v32z"/><path d="m352-848h32z"/><path d="m352-848v32h32v-32z"/><path d="m656-880v32z"/><path d="m624-848v-32z"/><path d="m624-880h32z"/><path d="m656-848h-32z"/><path d="m624-880v32h32v-32z"/><path d="m656-640v32z"/><path d="m656-608h-32z"/><path d="m624-640h32z"/><path d="m624-608v-32z"/><path d="m624-640v32h32v-32z"/><path d="m656-336h-32z"/><path d="m624-336v-32z"/><path d="m656-368v32z"/><path d="m624-368h32z"/><path d="m624-368v32h32v-32z"/><path d="m656-1104v32z"/><path d="m624-1072v-32z"/><path d="m656-1072h-32z"/><path d="m624-1104h32z"/><path d="m624-1104v32h32v-32z"/><path d="m896-1072.25v.25-32z"/><path d="m896-1104h-32z"/><path d="m864-1104v32z"/><path d="m880-1072.25v.25z"/><path d="m880-1072.25h16v-31.75h-16z"/><path d="m896-1072.25h-16v.25h16z"/><path d="m880-1104h-16v32h16z"/><path d="m1104-1104v31.75.25z"/><path d="m1104-1104h-32z"/><path d="m1072-1072v-32z"/><path d="m1088-1072.25v.25z"/><path d="m1088-1104v31.75h16v-31.75z"/><path d="m1104-1072.25h-16v.25h16z"/><path d="m1072-1104v32h16v-32z"/><path d="m1104-928h-32z"/><path d="m1104-928v31.75.25z"/><path d="m1072-896v-32z"/><path d="m1088-896.25v.25z"/><path d="m1088-928v31.75h16v-31.75z"/><path d="m1104-896.25h-16v.25h16z"/><path d="m1072-928v32h16v-32z"/><path d="m1104-736v31.75.25z"/><path d="m1072-704v-32z"/><path d="m1104-736h-32z"/><path d="m1088-704.25v.25z"/><path d="m1088-736v31.75h16v-31.75z"/><path d="m1104-704.25h-16v.25h16z"/><path d="m1072-736v32h16v-32z"/><path d="m848-736v31.75.25z"/><path d="m816-704v-32z"/><path d="m848-736h-32z"/><path d="m832-704.25v.25z"/><path d="m832-736v31.75h16v-31.75z"/><path d="m848-704.25h-16v.25h16z"/><path d="m816-736v32h16v-32z"/><path d="m1104-896h-16z"/><path d="m896-1072h-16z"/><path d="m1104-1072h-16z"/><path d="m1104-704h-16z"/><path d="m848-704h-16z"/><path d="m480-471v4.3633h4.3633z"/></g><g id="c"><path d="m1088-1088 32-32h-64v32z"/><path d="m640-1088-32-32v32z"/><path d="m1024-1047-32-9z"/><path d="m1056-1056h-64l32 9 32 9z"/><path d="m992-1056h64v-32h-177.7778z"/><path d="m1088-1088h-32v32 18l32 9z"/><path d="m1088-1088v59l32 9v-68z"/><path d="m640-320h-32-23-9 128-9-23z"/><path d="m1047-1024-23-23z"/><path d="m1056-1038-32-9 23 23 9 9z"/><path d="m1056-1038v23l32 32v-46z"/><path d="m1088-1029v46l32 32v-69z"/><path d="m1056-992-9-32z"/><path d="m1056-1015-9-9 9 32z"/><path d="m1056-1015v23l32 113.7776v-104.7776z"/><path d="m1088-983v104.7776l32 113.7778v-143.0554-43.5z"/><path d="m928-736-32-9-32-9v18z"/><path d="m864-777 9 9-9-32z"/><path d="m1024-745-32 9h23z"/><path d="m1040-736v-7.1111-17.8889l-16 16-9 9z"/><path d="m896-745-23-23-9-9v23z"/><path d="m1047-768-7 7v17.8889z"/><path d="m1056-768v-32l-9 32-7 24.8889v7.1111h16z"/><path d="m1024-704h64v-32h-32-16-25-23-64-64v32z"/><path d="m864-1056v64l9-32 9-32z"/><path d="m905-1056-9 9 32-9z"/><path d="m882-1056-9 32 23-23 9-9z"/><path d="m864-992v-64h-32v192 32h32z"/><path d="m832-832v128h32v-32-18-23-23-32z"/><path d="m832-1088v32h32 18 23 23 64l-113.7778-32z"/><path d="m1056-992v192 32h32v-110.2224z"/><path d="m1056-768v32h32v-32z"/><path d="m992-1056h-64z"/><path d="m928-736h64z"/><path d="m1056-992v192z"/><path d="m1047-768 9-32z"/><path d="m1040-761 7-7-23 23z"/><path d="m873-768 23 23z"/><path d="m896-745 32 9z"/><path d="m873-1024-9 32z"/><path d="m928-1056-32 9z"/><path d="m896-1047-23 23z"/><path d="m1024-704h-160-32l-32 32h212.5 11.5z"/><path d="m1088-878.2224v110.2224 32 32l32 32v-11.5-80.9446z"/><path d="m832-1056v-32l-32 32v32 160h32z"/><path d="m832-1088h-128v32h96z"/><path d="m704-1088h-41l9 32h32z"/><path d="m416-640h-224z"/><path d="m384-832h-32-192v64h160 64z"/><path d="m416-768v-64h-32v64z"/><path d="m448-649-9 9h23l9-32z"/><path d="m416-640h23l9-9z"/><path d="m498-640-18-64-9 32-9 32z"/><path d="m471-736 96 96h9 64v-65l-192-54z"/><path d="m480-704 18 64h69l-96-96z"/><path d="m448-759 192 54v-127h-64-160v64z"/><path d="m640-864v32 127 65h32v-192-32z"/><path d="m663-1088h-23l32 32z"/><path d="m320-768h-160-32-23-9 32 23z"/><path d="m416-768h-32z"/><path d="m640-1088h-32v192h32z"/><path d="m640-832-32-32h-16.5312-15.4688v32z"/><path d="m471-736-23-23z"/><path d="m448-759-32-9z"/><path d="m480-704-9-32z"/><path d="m128-576v128z"/><path d="m128-576v128z"/><path d="m608-586 32 9v-63h-64v45z"/><path d="m576-466.6367h1.2917l-1.2917-.3633z"/><path d="m577.2917-466.6367 30.7083 8.6367v-128l-32-9v128z"/><path d="m608-416v-42l-30.7083-8.6367h-1.2917v50.6367z"/><path d="m640-577-32-9v128 42h32z"/><path d="m594-384h14 32v-32h-32-32v32z"/><path d="m640-640v63 161h32v-192-32z"/><path d="m640-416v32 64h32v-64-32z"/><path d="m608-384h32z"/><path d="m594-384h-9 23z"/><path d="m640-384h-32v64h32z"/><path d="m576-384h9 9z"/><path d="m416-384h-224z"/><path d="m416-384h-224z"/><path d="m448-631-32-9z"/><path d="m576-640h-9-69-36-23-23l32 9 32 9 96 27z"/><path d="m480-466.6367v18.6367z"/><path d="m480-471v23z"/><path d="m576-416h-87-9v32h32 64z"/><path d="m480-448v32h9z"/><path d="m480-599v23 105l4.3633 4.3633h91.6367v-.3633-128l-96-27z"/><path d="m576-466.6367h-91.6367-4.3633v18.6367l9 32h87z"/><path d="m480-471 4.3633 4.3633z"/><path d="m448-393-32 9h23z"/><path d="m480-416h-9l-23 23-9 9h41z"/><path d="m480-448-9 32h9z"/><path d="m471-608 9 32v-23z"/><path d="m448-631 23 23 9 9v-23z"/><path d="m471-416 9-32z"/><path d="m448-393 23-23z"/><path d="m471-608-23-23z"/><path d="m416-384 32-9z"/><path d="m-64 192v64z"/><path d="m192 256v-64z"/><path d="m192 256v-64z"/><path d="m208 192v64h48v-64z"/><path d="m256 192h-48z"/><path d="m208 192v64z"/><path d="m128 128h-128z"/><path d="m-46 128h23 23 128-192z"/><path d="m0 320h128z"/><path d="m-55 160-9 32z"/><path d="m-32 137-23 23z"/><path d="m0 128-32 9z"/><path d="m-23 128-9 9 32-9z"/><path d="m-32 311 32 9z"/><path d="m-55 288 23 23z"/><path d="m-64 256 9 32z"/><path d="m-64 279 9 9-9-32z"/><path d="m-64 302 32 9-23-23-9-9z"/><path d="m0 320-32-9-32-9v18z"/><path d="m-46 128-9 32 23-23 9-9z"/><path d="m-64 192 9-32 9-32h-18z"/><path d="m-192-96h-32v16h32z"/><path d="m-64 302v-23-23-64-64h-64-18-23-23v16 48 128h23 23 18 64z"/><path d="m-146 320h9 9z"/><path d="m-169 320h9 23-9z"/><path d="m-146 128h3.9512-17.9512-9z"/><path d="m-192 384h32v-64h-32z"/><path d="m-192 320h32-9z"/><path d="m-192 320v-128l-32 32v160h32z"/><path d="m-192 128v-208h-32v208 16h32z"/><path d="m-192 192-32-32h-145.125l1.125 32z"/><path d="m-256-79v-17h128v17z"/><path d="m-176 368h-32z"/><path d="m-176 336v32h-32v-32z"/><path d="m-176 176h-32z"/><path d="m-176 144v32h-32v-32z"/><path d="m-176-16h-32z"/><path d="m-176-48v32h-32v-32z"/><path d="m256-624v-16-16 16z"/><path d="m384-640v16-16-16z"/><path d="m256-640v16h128v-16z"/><path d="m256-640h128v-16h-128z"/><path d="m384-624h-128v-16h128z"/><path d="m144-448h-16-16 16z"/><path d="m128-576h16-16-16z"/><path d="m144-576h-16v128h16z"/><path d="m128-448v-128h-16v128z"/><path d="m144-576v128h-16v-128z"/><path d="m480-448h-16 16 16z"/><path d="m464-576h16 16-16z"/><path d="m480-576h-16v128h16z"/><path d="m480-576v128h16v-128z"/><path d="m464-448v-128h16v128z"/><path d="m256-384v-16 16 16z"/><path d="m384-400v16 16-16z"/><path d="m256-400v16h128v-16z"/><path d="m384-384h-128v16h128z"/><path d="m256-400h128v16h-128z"/><path d="m208-816v-32h32v32z"/><path d="m352-816v-32h32v32z"/><path d="m624-848v-32h32v32z"/><path d="m624-608v-32h32v32z"/><path d="m624-336v-32h32v32z"/><path d="m624-1072v-32h32v32z"/><path d="m880-1072h-16z"/><path d="m896-1104v32h-32v-32z"/><path d="m1088-1072h-16z"/><path d="m1104-1104v32h-32v-32z"/><path d="m1088-896h-16z"/><path d="m1104-928v32h-32v-32z"/><path d="m1088-704h-16z"/><path d="m1104-736v32h-32v-32z"/><path d="m832-704h-16z"/><path d="m848-736v32h-32v-32z"/><path d="m256-640v-16h128v16z"/><path d="m128-448h-16v-128h16z"/><path d="m496-448h-16v-128h16z"/><path d="m256-368v-16h128v16z"/><path d="m1024-1047-32-9z"/><path d="m137-416-9-32z"/><path d="m160-393 32 9z"/><path d="m137-416 23 23z"/><path d="m160-393-23-23z"/><path d="m1056-992-9-32z"/><path d="m1056-992v192z"/><path d="m864-992v160 32z"/><path d="m1047-768 9-32z"/><path d="m864-800 9 32z"/><path d="m1047-768-23 23z"/><path d="m873-768 23 23z"/><path d="m992-736 32-9z"/><path d="m896-745 32 9z"/><path d="m873-1024-9 32z"/><path d="m928-1056-32 9z"/><path d="m896-1047-23 23z"/><path d="m137-608 23-23z"/><path d="m160-631-23 23z"/><path d="m160-631 32-9z"/><path d="m137-608-9 32 4-14.2222z"/><path d="m416-384h-64-112-48z"/><path d="m448-631-32-9z"/><path d="m480-471v-105z"/><path d="m480-471v-105 28 100z"/><path d="m471-416 9-32z"/><path d="m480-576-9-32z"/><path d="m471-608 9 32z"/><path d="m448-393 23-23-4 4z"/><path d="m471-608-23-23 16 16z"/><path d="m448-393-7.3253 2.0602-24.6747 6.9398z"/><path d="m192 192v16 48z"/><path d="m0 320h128z"/><path d="m-55 160-9 32 7.2-25.6z"/><path d="m183 288 9-32z"/><path d="m183 288-23 23z"/><path d="m160 311 23-23z"/><path d="m0 128-32 9z"/><path d="m160 311-32 9z"/><path d="m-32 311 32 9z"/><path d="m160 137-32-9z"/><path d="m-55 288 23 23z"/><path d="m160 137 23 23z"/><path d="m160 137 23 23z"/><path d="m-64 256 9 32z"/><path d="m183 160 9 32z"/><path d="m192 192-9-32z"/><path d="m128-576v128z"/><path d="m128-576 4-14.2222z"/><path d="m1056-992v32 160z"/><path d="m1056-800-9 32z"/><path d="m992-1056 32 9z"/><path d="m992-1056h-64z"/><path d="m-56.8 166.4 13.8-18.4-12 12z"/><path d="m467-412-26.3253 21.0602 7.3253-2.0602z"/><path d="m480-576-9-32-7-7v39l16 28z"/><path d="m848-896-16-32 16-42.6667z"/><path d="m352-384h-57.931-54.069z"/><path d="m352-640h-96 50.8235z"/><path d="m928-736h48z"/><path d="m976-1056h-48z"/><path d="m1056-960v80 80z"/><path d="m1056-960v-32l-9-32-11.5-11.5-27.5 27.5v12.8 35.2z"/><path d="m1056-800v-80h-32l-3.2 16-12.8 64z"/><path d="m1056-960h-48l16 80h32z"/><path d="m864-800 4.5 16z"/><path d="m868.5-784 4.5 16z"/><path d="m1047-768 9-32z"/><path d="m896-745 32 9-30.5672-8.597z"/><path d="m1047-768-15.6 15.6-7.4 7.4z"/><path d="m928-1056-32 9 13.7233-3.8597z"/><path d="m976-736v-32l-76.6315 21.8947-1.9357 1.5083 30.5672 8.597z"/><path d="m976-1056h-48l-18.2767 5.1403 8.8854 19.9032 57.3913 22.9565z"/><path d="m873-1024-9 32z"/><path d="m864-864v64l4.5 16h43.5v-16-64z"/><path d="m1056-992-9-32z"/><path d="m1024-1047-32-9z"/><path d="m1024-1047 11.5 11.5 11.5 11.5z"/><path d="m992-736 32-9z"/><path d="m976-736h16l32-9 7.4-7.4-23.4-15.6h-32z"/><path d="m832-928 16 32v-32z"/><path d="m128-576v80z"/><path d="m480-548v79.9272 20.0728z"/><path d="m160-631-23 23z"/><path d="m128-448 9 32z"/><path d="m448-631-32-9z"/><path d="m137-416 23 23-2.1111-2.1111z"/><path d="m160-393 32 9z"/><path d="m192-640-32 9z"/><path d="m192-640-32 9-23 23-5.1147 18.1855 15.807 8.8914 44.3077-11.0769z"/><path d="m137-608-5 17.7778-4 14.2222 3.8853-13.8145z"/><path d="m464-615-16-16 5.2857 5.2857z"/><path d="m256-640v48l32-8 18.8235-40z"/><path d="m256-640h-64v48h64z"/><path d="m352-640h-45.1765l-18.8235 40 21.3333 8 42.6667 16z"/><path d="m440.6747-390.9398-8.6747 2.4398-16 4.5z"/><path d="m467-412 4-4z"/><path d="m471-416 9-32z"/><path d="m192-384h48v-32h-48-8l-26.1111 20.8889 2.1111 2.1111z"/><path d="m128-496h48l-28.3077-84.9231-15.807-8.8914-3.8853 13.8145z"/><path d="m192 208v-16z"/><path d="m192 256v-48z"/><path d="m48 128h-48z"/><path d="m128 128h-80z"/><path d="m0 320h128-80z"/><path d="m-64 240v16z"/><path d="m-32 137-11 11z"/><path d="m48 128h-48v5.3333l6.4 12.8 41.6 13.8667z"/><path d="m-56.8 166.4-7.2 25.6 4.5-16z"/><path d="m-64 256 9 32-2.2258-7.9139z"/><path d="m-55 288 23 23z"/><path d="m183 288 9-32-6.6007 23.4692z"/><path d="m-32 311 32 9z"/><path d="m128 320 32-9 23-23 2.3993-8.5308-7.1136-7.4692h-50.2857z"/><path d="m192 192-9-32 2.6703 9.4945z"/><path d="m128 320 32-9z"/><path d="m160 311 23-23z"/><path d="m183 160-23-23 9.5 9.5z"/><path d="m160 137-32-9z"/><path d="m128 320v-48l-80 32v16z"/><path d="m1047-1024 9 32z"/><path d="m976-1056h16-64z"/><path d="m896-1047 32-9z"/><path d="m128-448 9 32z"/><path d="m1047-1024-23-23z"/><path d="m992-736h-16-48z"/><path d="m864-864v-128 192z"/><path d="m868.5-784-4.5-16 9 32z"/><path d="m992-736 32-9z"/><path d="m256-640h96 64-224z"/><path d="m192-640-32 9z"/><path d="m128-496v-80 128z"/><path d="m-64 240v-48 64z"/><path d="m0 128h48 80z"/><path d="m-55 160 12-12 11-11z"/><path d="m160 311-32 9z"/><path d="m1047-768 9-32h-48v16 16l23.4 15.6z"/><path d="m1024-1047-32-9h-16v48h32l27.5-27.5z"/><path d="m873-768 23 23z"/><path d="m848-928v32-74.6667z"/><path d="m848-928v-42.6667l-16 42.6667z"/><path d="m896-1047-23 23z"/><path d="m192 256v-48h-32l13.7143 48 4.5714 16 7.1136 7.4692z"/><path d="m294.069-384-12.069-20-42-12v32z"/><path d="m0 128-32 9z"/><path d="m0 133.3333v-5.3333l-32 9-11 11-13.8 18.4-2.7 9.6h43.5l16-21.3334z"/><path d="m0 133.3333v-5.3333z"/><path d="m864-928v-64 128z"/><path d="m448-393-7.3253 2.0602z"/><path d="m-55 160 12-12z"/><path d="m-55 160 12-12-13.8 18.4z"/><path d="m480-468.0728-2.5098-.3194-5.4902 4.3922-40 32v43.5l8.6747-2.4398 26.3253-21.0602 4-4 9-32z"/></g><g id="d"><path d="m1088-688v-80z"/><path d="m1152-688h-64z"/><path d="m544-912h-32z"/><path d="m592-944-48 32z"/><path d="m512-912-64-32z"/><path d="m1088-768v-112z"/><path d="m1088-880h64z"/><path d="m1152-1008h-64v128h64z"/><path d="m1152-768v80z"/><path d="m1152-880v112z"/><path d="m1152-768h-64v80h64z"/><path d="m1152-880h-64v112h64z"/><path d="m192-512h-64z"/><path d="m256-640v64z"/><path d="m256-576-64 64z"/><path d="m976-1056h80v16h-48-32z"/><path d="m928-1056-9.3913 25.0435-26.6087 70.9565-12 32h-16v-128z"/><path d="m864-928h16l32 64v64 16l-5.3333 16-7.2982 21.8947-3.3685 10.1053h-32z"/><path d="m928-1056h48v16 32l-57.3913-22.9565z"/><path d="m976-1008v-32h32v32z"/><path d="m1056-1040v160h-32l-16-80v-35.2-12.8-32z"/><path d="m1056-880v112h-48v-16-16l12.8-64 3.2-16z"/><path d="m1008-768h48v32h-160l3.3685-10.1053 76.6315-21.8947z"/><path d="m892-960 26.6087-70.9565-8.8854-19.9032-13.7233 3.8597-23 23-9 32v64h16z"/><path d="m880-928h-16v64h48z"/><path d="m906.6667-768 5.3333-16h-43.5l4.5 16 23 23 1.4328.403 1.9357-1.5083z"/><path d="m282-404 70 20h-224v-32h56 8 48z"/><path d="m440.6747-390.9398 7.3253-2.0602-9 9h-7z"/><path d="m432-416h40l-5 4-26.3253 21.0602-8.6747 6.9398h-80l-70-20 30-12z"/><path d="m496-416v32h-57l9-9 19-19 5-4z"/><path d="m128-496h36l12 48 8 32h-56z"/><path d="m192-592-44.3077 11.0769-3.6923-11.0769z"/><path d="m176-448-12-48h12z"/><path d="m192-640v4 44h-48-16v-48z"/><path d="m128-592h16l3.6923 11.0769 28.3077 84.9231h-12-36z"/><path d="m416-576h-64l-42.6667-16-21.3333-8-96-36v-4h224z"/><path d="m256-592h-64v-44l96 36z"/><path d="m432-432v16h-120l40-16z"/><path d="m480-464h16v48h-24-40v-16l40-32z"/><path d="m472-464 5.4902-4.3922 2.5098 4.3922z"/><path d="m496-640v176h-16l-2.5098-4.3922-61.4902-107.6078v-64z"/><path d="m440.6747-390.9398 26.3253-21.0602-19 19z"/><path d="m176-496h-48v48h48z"/><path d="m416-576 37.2857-49.7143-5.2857-5.2857-32-9h-64v64z"/><path d="m477.4902-468.3922 2.5098.3194v-79.9272l-16-28h-48z"/><path d="m416-576h48v-39l-10.7143-10.7143z"/><path d="m184-416-8-32h-48l9 32 20.8889 20.8889z"/><path d="m352-432-40 16-30 12 12.069 20h57.931z"/><path d="m432-432h-80v48h64l16-4.5z"/><path d="m467-412-19 19z"/><path d="m0 144 6.4 2.1333-6.4 8.5333z"/><path d="m183 160h9l-6.3297 9.4945z"/><path d="m192 144v16h-9l-13.5-13.5z"/><path d="m173.7143 256-13.7143-48 5.8182-8.7273 19.8521-29.7782 6.3297-9.4945v112h-13.7143z"/><path d="m0 128h192v16l-22.5 2.5-121.5 13.5-41.6-13.8667-6.4-2.1333z"/><path d="m0 144v10.6666l-16 21.3334v-48h16z"/><path d="m-43 148-12 12 9-32h18z"/><path d="m-64 256v-80l7.2-9.6 13.8-18.4 15-20h12v48 64l-8 16-7.0588 14.1177z"/><path d="m-64 128h18l-9 32-1.8 6.4-7.2 9.6z"/><path d="m178.2857 272h13.7143v48h-106.6666l-37.3334-16 80-32z"/><path d="m-64 256 32.9412 14.1177 4.3921 1.8823 74.6667 32 37.3334 16h-149.3334z"/><path d="m-128 128h64v48 80 64h-64z"/><path d="m0 154.6666 6.4-8.5333-6.4-12.8z"/><path d="m169.5 146.5-9.5-9.5-32-9h-80v32z"/><path d="m-24 256 8-16h-48v16l6.7742 24.0861 26.167-9.9684z"/><path d="m-26.6667 272-4.3921-1.8823-26.167 9.9684 2.2258 7.9139 23 23 32 9h48v-16z"/><path d="m185.6703 169.4945-19.8521 29.7782-5.8182 8.7273h32v-16z"/><path d="m-16 176h-43.5l-4.5 16v48h48z"/><path d="m-56.8 166.4 1.8-6.4z"/></g></defs><g stroke="#000"><use fill="none" stroke-miterlimit="0" stroke-width="10" xlink:href="#a"/><use fill="#c4c4c4" xlink:href="#a"/><use fill="none" stroke-miterlimit="0" stroke-width="10" xlink:href="#b"/><use fill="#d9d9d9" xlink:href="#b"/><use fill="none" stroke-miterlimit="0" stroke-width="10" xlink:href="#c"/><use fill="#ebebeb" xlink:href="#c"/><use fill="none" stroke-miterlimit="0" stroke-width="10" xlink:href="#d"/><use fill="#fff" xlink:href="#d"/></g></svg>