<svg viewBox="-1344 -1600 2688 3008" xmlns="http://www.w3.org/2000/svg" xmlns:xlink="http://www.w3.org/1999/xlink"><defs><g id="a"><path d="m1280-832v160z"/><path d="m-1056-832h-224z"/><path d="m-832-832h-224z"/><path d="m-608-832h-32-192z"/><path d="m-384-832h-32-192z"/><path d="m-160-832h-32-192z"/><path d="m64-832h-32-192z"/><path d="m288-832h-32-192z"/><path d="m512-832h-32-192z"/><path d="m736-832h-96-128z"/><path d="m960-832h-96-128z"/><path d="m1184-832h-96-128z"/><path d="m-1280 224v64 160z"/><path d="m-1280 0v64 160z"/><path d="m-1280-224v64 160z"/><path d="m-1280-448v64 160z"/><path d="m-1280-672v64 160z"/><path d="m1280 448h-96z"/><path d="m640-672v-160h96 128v224h-224z"/><path d="m864-608v224h-224v-64-160z"/><path d="m864-384v224h-224v-64-160z"/><path d="m864-160v224h-224v-64-160z"/><path d="m864 64v224h-224v-64-160z"/><path d="m864 288v160h-128-96v-160z"/><path d="m864-832h96 128v224h-224z"/><path d="m1088-608v224h-224v-224z"/><path d="m1088-384v224h-224v-224z"/><path d="m1088-160v224h-224v-224z"/><path d="m1088 64v224h-224v-224z"/><path d="m1088 288v160h-128-96v-160z"/><path d="m1088-832h96 96v160 64h-192z"/><path d="m1280-608v160 64h-192v-224z"/><path d="m1280-384v160 64h-192v-224z"/><path d="m1280-160v160 64h-192v-224z"/><path d="m1280 64v160 64h-192v-224z"/><path d="m1280 288v160h-96-96v-160z"/><path d="m-416-800h-192l-32-32h32 192z"/><path d="m-192-800h-192-32v-32h32 192z"/><path d="m32-800h-192-32v-32h32 192z"/><path d="m256-800h-192-32v-32h32 192z"/><path d="m480-800h-192-32v-32h32 192z"/><path d="m512-832h128l-32 32h-96-32v-32z"/><path d="m640 224v64 160l-32-32v-192z"/><path d="m640 0v64 160h-32v-32-192z"/><path d="m640-224v64 160h-32v-32-192z"/><path d="m640-448v64 160h-32v-32-192z"/><path d="m640-672v64 160h-32v-32-192z"/><path d="m608-704v-96l32-32v160h-32z"/><path d="m-608 224v192l-32 32v-160-64z"/><path d="m-608 0v192 32h-32v-160-64z"/><path d="m-608-224v192 32h-32v-160-64z"/><path d="m-608-448v192 32h-32v-160-64z"/><path d="m-608-672v192 32h-32v-160-64z"/><path d="m-640-832 32 32v96 32h-32z"/><path d="m-1280-672v-160h224v224h-224z"/><path d="m-1056-608v224h-224v-64-160z"/><path d="m-1056-384v224h-224v-64-160z"/><path d="m-1056-160v224h-224v-64-160z"/><path d="m-1056 64v224h-224v-64-160z"/><path d="m-1056 288v160h-224v-160z"/><path d="m-1056-832h224v224h-224z"/><path d="m-832-608v224h-224v-224z"/><path d="m-832-384v224h-224v-224z"/><path d="m-832-160v224h-224v-224z"/><path d="m-832 64v224h-224v-224z"/><path d="m-832 288v160h-224v-160z"/><path d="m-832-832h192v160 64h-192z"/><path d="m-640-608v160 64h-192v-224z"/><path d="m-640-384v160 64h-192v-224z"/><path d="m-640-160v160 64h-192v-224z"/><path d="m-640 64v160 64h-192v-224z"/><path d="m-640 288v160h-192v-160z"/><path d="m-416 448h-192-32l32-32h192z"/><path d="m-192 448h-192-32v-32h32 192z"/><path d="m32 448h-192-32v-32h32 192z"/><path d="m256 448h-192-32v-32h32 192z"/><path d="m480 448h-192-32v-32h32 192z"/><path d="m512 416h96l32 32h-128-32v-32z"/><path d="m608-800h-96z"/><path d="m608 192v32 192z"/><path d="m608-32v32 192z"/><path d="m608-256v32 192z"/><path d="m608-480v32 192z"/><path d="m608-704v32 192z"/><path d="m-608-800v96z"/><path d="m-384 416h-32-192z"/><path d="m-160 416h-32-192z"/><path d="m64 416h-32-192z"/><path d="m288 416h-32-192z"/><path d="m512 416h-32-192z"/><path d="m1280 448v-160-64z"/><path d="m1280 224v-160-64z"/><path d="m1280 0v-160-64z"/><path d="m1280-224v-160-64z"/><path d="m1280-448v-160-64z"/><path d="m1280-832v160z"/><path d="m-1280-832h192 32z"/><path d="m-1056-832h192 32z"/><path d="m-832-832h192 32z"/><path d="m-608-832h192 32z"/><path d="m-384-832h192 32z"/><path d="m-160-832h192 32z"/><path d="m64-832h192 32z"/><path d="m288-832h192 32z"/><path d="m512-832h192 32z"/><path d="m736-832h192 32z"/><path d="m960-832h192 32z"/><path d="m1280-832h-96z"/><path d="m-1280 448v-160-64z"/><path d="m-1280 224v-160-64z"/><path d="m-1280 0v-160-64z"/><path d="m-1280-224v-160-64z"/><path d="m-1280-448v-160-64z"/><path d="m-1280-832v160z"/><path d="m-1280 448h224z"/><path d="m-1056 448h224z"/><path d="m-832 448h192 32z"/><path d="m-608 448h192 32z"/><path d="m-384 448h192 32z"/><path d="m-160 448h192 32z"/><path d="m64 448h192 32z"/><path d="m288 448h192 32z"/><path d="m512 448h128 96z"/><path d="m736 448h128 96z"/><path d="m960 448h128 96z"/><path d="m1280 448h-96z"/></g><g id="b"><path d="m1312-864v224z"/><path d="m-1312 256v32 192z"/><path d="m-1312 32v32 192z"/><path d="m-1312-192v32 192z"/><path d="m-1312-416v32 192z"/><path d="m-1312-640v32 192z"/><path d="m1184 480h96 32-32-96-32z"/><path d="m-1088-864h-224 32z"/><path d="m-864-864h-224 32z"/><path d="m-640-864h-224 32z"/><path d="m-416-864h-224 32z"/><path d="m-192-864h-224 32z"/><path d="m32-864h-224 32z"/><path d="m256-864h-224 32z"/><path d="m480-864h-224 32z"/><path d="m704-864h-224 32z"/><path d="m928-864h-224 32z"/><path d="m1152-864h-224 32z"/><path d="m1280 224v32 192z"/><path d="m1280 0v32 192z"/><path d="m1280-224v32 192z"/><path d="m1280-448v32 192z"/><path d="m1280-672v32 192z"/><path d="m1280-672v-160-32h32v224h-32z"/><path d="m1312-640v224h-32v-32-192z"/><path d="m1312-416v224h-32v-32-192z"/><path d="m1312-192v224h-32v-32-192z"/><path d="m1312 32v224h-32v-32-192z"/><path d="m1312 256v224h-32v-32-192z"/><path d="m1280-832h-96z"/><path d="m-1088-832h-192-32v-32h224z"/><path d="m-864-832h-192-32v-32h224z"/><path d="m-640-832h-192-32v-32h224z"/><path d="m-416-832h-192-32v-32h224z"/><path d="m-192-832h-192-32v-32h224z"/><path d="m32-832h-192-32v-32h224z"/><path d="m256-832h-192-32v-32h224z"/><path d="m480-832h-192-32v-32h224z"/><path d="m704-832h-192-32v-32h224z"/><path d="m928-832h-192-32v-32h224z"/><path d="m1152-832h-192-32v-32h224z"/><path d="m1280-864v32h-96-32v-32z"/><path d="m-1280-832v160z"/><path d="m-1056 448h-224z"/><path d="m-832 448h-224z"/><path d="m-608 448h-224z"/><path d="m-384 448h-224z"/><path d="m-160 448h-224z"/><path d="m64 448h-224z"/><path d="m288 448h-224z"/><path d="m512 448h-224z"/><path d="m736 448h-224z"/><path d="m960 448h-224z"/><path d="m1184 448h-224z"/><path d="m-1056 480h-32-192v-32h224z"/><path d="m-832 480h-32-192v-32h224z"/><path d="m-608 480h-32-192v-32h224z"/><path d="m-384 480h-32-192v-32h224z"/><path d="m-160 480h-32-192v-32h224z"/><path d="m64 480h-32-192v-32h224z"/><path d="m288 480h-32-192v-32h224z"/><path d="m512 480h-32-192v-32h224z"/><path d="m736 480h-32-192v-32h224z"/><path d="m960 480h-32-192v-32h224z"/><path d="m1184 480h-32-192v-32h224z"/><path d="m1280 448v32h-96v-32z"/><path d="m-1312-640v-192h32v160 64h-32z"/><path d="m-1280-608v160 64h-32v-32-192z"/><path d="m-1280-384v160 64h-32v-32-192z"/><path d="m-1280-160v160 64h-32v-32-192z"/><path d="m-1280 64v160 64h-32v-32-192z"/><path d="m-1280 288v160 32h-32v-192z"/></g><g id="c"><path d="m1312-864h-32v32 32 128 32h32z"/><path d="m1280-640v192 32h32v-224z"/><path d="m1280-416v192 32h32v-224z"/><path d="m1280-192v192 32h32v-224z"/><path d="m1280 32v192 32h32v-224z"/><path d="m1280 256v192 32h32v-224z"/><path d="m-1056-864h-32-192v32h224z"/><path d="m-832-864h-32-192v32h224z"/><path d="m-608-864h-32-192v32h224z"/><path d="m-384-864h-32-192v32h224z"/><path d="m-160-864h-32-192v32h224z"/><path d="m64-864h-32-192v32h224z"/><path d="m288-864h-32-192v32h224z"/><path d="m512-864h-32-192v32h224z"/><path d="m736-864h-32-192v32h224z"/><path d="m960-864h-32-192v32h224z"/><path d="m1184-864h-32-192v32h224z"/><path d="m1280-832v-32h-96v32z"/><path d="m-1280-672v-160-32h-32v224h32z"/><path d="m-1312-640v224h32v-32-192z"/><path d="m-1312-416v224h32v-32-192z"/><path d="m-1312-192v224h32v-32-192z"/><path d="m-1312 32v224h32v-32-192z"/><path d="m-1312 256v224h32v-32-192z"/><path d="m-1056 448h-224v32h192 32z"/><path d="m-832 448h-224v32h192 32z"/><path d="m-608 448h-224v32h192 32z"/><path d="m-384 448h-224v32h192 32z"/><path d="m-160 448h-224v32h192 32z"/><path d="m64 448h-224v32h192 32z"/><path d="m288 448h-224v32h192 32z"/><path d="m512 448h-224v32h192 32z"/><path d="m736 448h-224v32h192 32z"/><path d="m960 448h-224v32h192 32z"/><path d="m1184 448h-224v32h192 32z"/><path d="m1280 480v-32h-96v32z"/><path d="m1280-800v-32z"/><path d="m1280-800v128z"/><path d="m-1280 224v32 192z"/><path d="m-1280 0v32 192z"/><path d="m-1280-224v32 192z"/><path d="m-1280-448v32 192z"/><path d="m-1280-672v32 192z"/><path d="m-1056-832h-224 128z"/><path d="m-832-832h-224 96z"/><path d="m-608-832h-224 96z"/><path d="m-384-832h-224 96z"/><path d="m-160-832h-224 96z"/><path d="m64-832h-224 96z"/><path d="m288-832h-224 96z"/><path d="m512-832h-224 96z"/><path d="m736-832h-224 96z"/><path d="m960-832h-224 96z"/><path d="m1184-832h-224 96z"/><path d="m1280 448h-96z"/><path d="m1312 256v224z"/><path d="m1312 32v224z"/><path d="m1312-192v224z"/><path d="m1312-416v224z"/><path d="m1312-640v224z"/><path d="m-1312-864v32 192z"/><path d="m-1088 480h-192-32 32z"/><path d="m-864 480h-192-32 32z"/><path d="m-640 480h-192-32 32z"/><path d="m-416 480h-192-32 32z"/><path d="m-192 480h-192-32 32z"/><path d="m32 480h-192-32 32z"/><path d="m256 480h-192-32 32z"/><path d="m480 480h-192-32 32z"/><path d="m704 480h-192-32 32z"/><path d="m928 480h-192-32 32z"/><path d="m1152 480h-192-32 32z"/><path d="m1184-864h96 32-32-128z"/><path d="m1280-1568v96z"/><path d="m-1280-1312v96 128z"/><path d="m-1280-1536v192 32z"/><path d="m1280-832h-96z"/><path d="m-1280-832v-128h128v96 32z"/><path d="m-1152-960v-128h48 48v128 96h-96z"/><path d="m-1056-864v32h-96v-32z"/><path d="m-1280-1088v-128h32 16v128z"/><path d="m-1104-1088v-96h16 32v96z"/><path d="m-1056-1088v-96h96v64 160h-96z"/><path d="m-960-960v64 64h-96v-32-96z"/><path d="m-1104-1344v128h-16v-128z"/><path d="m-1280-1536v-32h32v224h-32z"/><path d="m-1248-1344v128h-32v-96-32z"/><path d="m-1104-1568h16v224h-16z"/><path d="m-1088-1344v32 128h-16v-32-128z"/><path d="m-1088-1568h32 96v224h-128z"/><path d="m-960-1344v32h-128v-32z"/><path d="m-1104-1568v224h-16-128v-224z"/><path d="m-960-1344v-224h128 96v224z"/><path d="m-960-1120v-64-128-32h224v224z"/><path d="m-960-896v-64-160h224v224z"/><path d="m-736-832h-96-128v-64h224z"/><path d="m-736-1344v-224h128 96v224z"/><path d="m-736-1120v-224h224v224z"/><path d="m-736-896v-224h224v224z"/><path d="m-512-832h-96-128v-64h224z"/><path d="m-512-1344v-224h128 96v224z"/><path d="m-512-1120v-224h224v224z"/><path d="m-512-896v-224h224v224z"/><path d="m-288-832h-96-128v-64h224z"/><path d="m-288-1344v-224h128 96v224z"/><path d="m-288-1120v-224h224v224z"/><path d="m-288-896v-224h224v224z"/><path d="m-64-832h-96-128v-64h224z"/><path d="m-64-1344v-224h128 96v224z"/><path d="m-64-1120v-224h224v224z"/><path d="m-64-896v-224h224v224z"/><path d="m160-832h-96-128v-64h224z"/><path d="m160-1344v-224h128 96v224z"/><path d="m160-1120v-224h224v224z"/><path d="m160-896v-224h224v224z"/><path d="m384-832h-96-128v-64h224z"/><path d="m384-1344v-224h128 96v224z"/><path d="m384-1120v-224h224v224z"/><path d="m384-896v-224h224v224z"/><path d="m608-832h-96-128v-64h224z"/><path d="m608-1344v-224h128 96v224z"/><path d="m608-1120v-224h224v224z"/><path d="m608-896v-224h224v224z"/><path d="m832-832h-96-128v-64h224z"/><path d="m832-1344v-224h128 96v224z"/><path d="m832-1120v-224h224v224z"/><path d="m832-896v-224h224v224z"/><path d="m1056-832h-96-128v-64h224z"/><path d="m1184-1568h96v96 128h-224v-224z"/><path d="m1280-1344v96 128h-224v-224z"/><path d="m1280-1120v96 128h-224v-224z"/><path d="m1280-896v64h-96-128v-64z"/><path d="m-1152-1088h48z"/><path d="m-1056-1568h-32-16-144-32 32z"/><path d="m-832-1568h-128-96 32z"/><path d="m-608-1568h-128-96 32z"/><path d="m-384-1568h-128-96 32z"/><path d="m-160-1568h-128-96 32z"/><path d="m64-1568h-128-96 32z"/><path d="m288-1568h-128-96 32z"/><path d="m512-1568h-128-96 32z"/><path d="m736-1568h-128-96 32z"/><path d="m960-1568h-128-96 32z"/><path d="m1184-1568h-128-96 32z"/><path d="m-1088-1312v128z"/><path d="m-960-1312h-96-32z"/><path d="m-1120-1216h16z"/><path d="m-1104-1184v96-96-32z"/><path d="m-1232-1216h-16z"/><path d="m-1280-1088v-192-32z"/><path d="m-1280-1312v-192-32z"/><path d="m-1280-1568v32z"/><path d="m1216-1568h32 32-96z"/><path d="m-1024-1568h-32-192v-32h224z"/><path d="m-800-1568h-32-192v-32h224z"/><path d="m-576-1568h-32-192v-32h224z"/><path d="m-352-1568h-32-192v-32h224z"/><path d="m-128-1568h-32-192v-32h224z"/><path d="m96-1568h-32-192v-32h224z"/><path d="m320-1568h-32-192v-32h224z"/><path d="m544-1568h-32-192v-32h224z"/><path d="m768-1568h-32-192v-32h224z"/><path d="m992-1568h-32-192v-32h224z"/><path d="m1216-1568h-32-192v-32h224z"/><path d="m1248-1600v32h-32v-32z"/><path d="m-1248-1600v32z"/><path d="m-1280-1056v96 128z"/><path d="m-1280-832v-128z"/><path d="m-1280-1088h48z"/><path d="m-1184-1344h-64 128z"/><path d="m-960-1312v128z"/><path d="m-1184-1216v-96 128z"/><path d="m-1104-1184v96h-48-32v-96z"/><path d="m-1184-1312v-32h64v32z"/><path d="m-1088-1312h-16v96 32h16z"/><path d="m-1056-1312h96v128h-96z"/><path d="m-1104-1312h-16v96h16z"/><path d="m-1120-1312h16 16 32-128z"/><path d="m-1056-1184h96-96-32z"/><path d="m-1120-1312v-32 128z"/><path d="m-1232-1216h48v32 96h-48z"/><path d="m-1184-1312v96h-48-16v-128h64z"/><path d="m-1248-1216v-128z"/><path d="m-1232-1088v-128z"/><path d="m-1152-1088v128z"/><path d="m-1152-960h-128v-96-32h48 48 32z"/><path d="m-1152-960h-128z"/><path d="m1280-800v-32-64-128z"/><path d="m1280-1024v-96-128z"/><path d="m1280-1248v-96-128z"/><path d="m1280-1568v96z"/><path d="m1280 448v-192-32z"/><path d="m1280 224v-192-32z"/><path d="m1280 0v-192-32z"/><path d="m1280-224v-192-32z"/><path d="m1280-448v-192-32z"/><path d="m1280-800v128z"/><path d="m-1280 448v-224z"/><path d="m-1280 224v-224z"/><path d="m-1280 0v-224z"/><path d="m-1280-224v-224z"/><path d="m-1280-448v-224z"/><path d="m-1280-832v160z"/><path d="m-1280 448h224z"/><path d="m-1056 448h224z"/><path d="m-832 448h224z"/><path d="m-608 448h224z"/><path d="m-384 448h224z"/><path d="m-160 448h224z"/><path d="m64 448h224z"/><path d="m288 448h224z"/><path d="m512 448h224z"/><path d="m736 448h224z"/><path d="m960 448h224z"/><path d="m1280 448h-96z"/><path d="m1280-1568h-32z"/><path d="m-1248-1568h-32z"/><path d="m-1280-1056v224-64z"/><path d="m-1280-1280v192 32-64z"/><path d="m-1280-1504v192 32-64z"/><path d="m-1280-1568v32z"/><path d="m-1280-1088v32z"/><path d="m1248-1568v-32z"/><path d="m-1184-1312h128v128h-128z"/><path d="m-1056-1184h-32-16-80z"/><path d="m-1056-1312v128z"/><path d="m-1248-1600v32z"/><path d="m1280-1024v128 96z"/><path d="m1280-1248v128 96z"/><path d="m1280-1472v128 96z"/><path d="m1280-1472v-96 64 160z"/><path d="m1280 224v224z"/><path d="m1280 0v224z"/><path d="m1280-224v224z"/><path d="m1280-448v224z"/><path d="m1280-672v224z"/><path d="m-1280-1568v32 32z"/><path d="m-1280 224v224-160z"/><path d="m-1280 0v224-160z"/><path d="m-1280-224v224-160z"/><path d="m-1280-448v224-160z"/><path d="m-1280-672v224-160z"/><path d="m-1280-896v64 160-160z"/><path d="m-1280-1120v64 160-160z"/><path d="m-1280-1344v64 160-160z"/><path d="m-1280-832v160z"/><path d="m1280 448h-96z"/><path d="m-1056 448h-224z"/><path d="m-832 448h-224z"/><path d="m-608 448h-224z"/><path d="m-384 448h-224z"/><path d="m-160 448h-224z"/><path d="m64 448h-224z"/><path d="m288 448h-224z"/><path d="m512 448h-224z"/><path d="m736 448h-224z"/><path d="m960 448h-224z"/><path d="m1184 448h-224z"/><path d="m1280-1568h-32z"/><path d="m-1248-1568h-32z"/><path d="m-416 512h-224 32z"/><path d="m-192 512h-224 32z"/><path d="m32 512h-224 32z"/><path d="m256 512h-224 32z"/><path d="m480 512h-224 32z"/><path d="m640 1344h-160z"/><path d="m-640 1120v64 160-160z"/><path d="m-640 896v64 160-160z"/><path d="m-640 672v64 160-160z"/><path d="m640 512v160z"/><path d="m-640 736v-64-160h224v224z"/><path d="m-640 960v-64-160h224v224z"/><path d="m-640 1184v-64-160h224v224z"/><path d="m-416 1344h-224v-160h224z"/><path d="m-416 736v-224h224v224z"/><path d="m-416 960v-224h224v224z"/><path d="m-416 1184v-224h224v224z"/><path d="m-192 1344h-224v-160h224z"/><path d="m-192 736v-224h224v224z"/><path d="m-192 960v-224h224v224z"/><path d="m-192 1184v-224h224v224z"/><path d="m32 1344h-224v-160h224z"/><path d="m32 736v-224h224v224z"/><path d="m32 960v-224h224v224z"/><path d="m32 1184v-224h224v224z"/><path d="m256 1344h-224v-160h224z"/><path d="m256 736v-224h224v224z"/><path d="m256 960v-224h224v224z"/><path d="m256 1184v-224h224v224z"/><path d="m480 1344h-224v-160h224z"/><path d="m640 512v160 64h-160v-224z"/><path d="m640 736v160 64h-160v-224z"/><path d="m640 960v160 64h-160v-224z"/><path d="m640 1184v160h-160v-160z"/></g><g id="d"><path d="m1184 512h96 64-192z"/><path d="m-832 512h128-192z"/><path d="m512 512h128-160z"/><path d="m1280-1568v64z"/><path d="m1280 224v64 160z"/><path d="m1280 0v64 160z"/><path d="m1280-224v64 160z"/><path d="m1280-448v64 160z"/><path d="m1280-672v64 160z"/><path d="m1280-896v64 160-128z"/><path d="m1280-1120v64 160-128z"/><path d="m1280-1344v64 160-128z"/><path d="m1344-832h-64z"/><path d="m1280-672v-160h64v224h-64z"/><path d="m1344-608v224h-64v-64-160z"/><path d="m1344-384v224h-64v-64-160z"/><path d="m1344-160v224h-64v-64-160z"/><path d="m1344 64v224h-64v-64-160z"/><path d="m1344 288v224h-64v-64-160z"/><path d="m-1280-1056v160 64z"/><path d="m-1280-1280v160 64z"/><path d="m-1280-1504v160 64z"/><path d="m-1280-1504v-64 64 160z"/><path d="m1248-1568v-32z"/><path d="m-1056 512h-64-160v-64h224z"/><path d="m-832 512h-64-160v-64h224z"/><path d="m-608 512h-32-64-128v-64h224z"/><path d="m-384 512h-32-192v-64h224z"/><path d="m-160 512h-32-192v-64h224z"/><path d="m64 512h-32-192v-64h224z"/><path d="m288 512h-32-192v-64h224z"/><path d="m512 512h-32-192v-64h224z"/><path d="m736 512h-32-64-128v-64h224z"/><path d="m960 512h-32-192v-64h224z"/><path d="m1184 512h-32-192v-64h224z"/><path d="m1280 448v64h-96v-64z"/><path d="m-1056 448h-224z"/><path d="m-832 448h-224z"/><path d="m-608 448h-224z"/><path d="m-384 448h-224z"/><path d="m-160 448h-224z"/><path d="m64 448h-224z"/><path d="m288 448h-224z"/><path d="m512 448h-224z"/><path d="m736 448h-224z"/><path d="m960 448h-224z"/><path d="m1184 448h-224z"/><path d="m-1280-832h-64z"/><path d="m-1344-832h64v160 64h-64z"/><path d="m-1280-608v160 64h-64v-224z"/><path d="m-1280-384v160 64h-64v-224z"/><path d="m-1280-160v160 64h-64v-224z"/><path d="m-1280 64v160 64h-64v-224z"/><path d="m-1280 288v160 64h-64v-224z"/><path d="m-704 1152v32 160 32z"/><path d="m-704 928v32 192z"/><path d="m-704 704v32 192z"/><path d="m704 512v192z"/><path d="m-416 1344h-64-160z"/><path d="m-192 1344h-64-160z"/><path d="m32 1344h-64-160z"/><path d="m256 1344h-64-160z"/><path d="m480 1344h-64-160z"/><path d="m-640 512v160z"/><path d="m640 1120v64 160-160z"/><path d="m640 896v64 160-160z"/><path d="m640 672v64 160-160z"/><path d="m640 736v-64-160h64v192 32z"/><path d="m640 960v-64-160h64v192 32z"/><path d="m640 1184v-64-160h64v192 32z"/><path d="m704 1344h-64v-160h64z"/><path d="m-704 736v-32-192h64v160 64z"/><path d="m-704 960v-32-192h64v160 64z"/><path d="m-704 1184v-32-192h64v160 64z"/><path d="m-640 1344h-64v-160h64z"/><path d="m-480 1376h-224v-32h64 160z"/><path d="m-256 1376h-224v-32h64 160z"/><path d="m-32 1376h-224v-32h64 160z"/><path d="m192 1376h-224v-32h64 160z"/><path d="m416 1376h-224v-32h64 160z"/><path d="m640 1376h-224v-32h64 160z"/><path d="m704 1344v32h-64v-32z"/><path d="m704 1376h-64z"/><path d="m-1248-1600v32z"/><path d="m704 512h32 192z"/><path d="m928 512h32 192z"/><path d="m1344 512h-192z"/><path d="m-1344 512h64 160z"/><path d="m-1120 512h64 160z"/><path d="m-704 512h-192z"/><path d="m1280-832v-64-160z"/><path d="m1280-1056v-64-160z"/><path d="m1280-1280v-64-160z"/><path d="m1280-1568v64z"/><path d="m1280-832h64z"/><path d="m-1280-832v-224z"/><path d="m-1280-1056v-224z"/><path d="m-1280-1280v-224z"/><path d="m-1280-1568v64z"/><path d="m-1344-832h64z"/><path d="m-704 1376v-224z"/><path d="m-704 1152v-224z"/><path d="m-704 928v-224z"/><path d="m-704 512v192z"/><path d="m704 1376v-32-160-32z"/><path d="m704 1152v-192-32z"/><path d="m704 928v-192-32z"/><path d="m704 512v192z"/><path d="m-704 1376h224z"/><path d="m-480 1376h224z"/><path d="m-256 1376h224z"/><path d="m-32 1376h224z"/><path d="m192 1376h224z"/><path d="m416 1376h224z"/><path d="m704 1376h-64z"/><path d="m1280-1568h-32z"/><path d="m-1248-1568h-32z"/><path d="m1248-1568v-32z"/><path d="m-1248-1600v32z"/><path d="m704 512h224z"/><path d="m928 512h224z"/><path d="m1344 512h-192z"/><path d="m-1344 512h224z"/><path d="m-1120 512h224z"/><path d="m-704 512h-192z"/><path d="m1280-832v-224z"/><path d="m1280-1056v-224z"/><path d="m1280-1280v-224z"/><path d="m1280-1568v64z"/><path d="m1280-832h64z"/><path d="m-1280-832v-224z"/><path d="m-1280-1056v-224z"/><path d="m-1280-1280v-224z"/><path d="m-1280-1568v64z"/><path d="m-1344-832h64z"/><path d="m-704 1376v-224z"/><path d="m-704 1152v-224z"/><path d="m-704 928v-224z"/><path d="m-704 512v192z"/><path d="m704 1376v-224z"/><path d="m704 1152v-224z"/><path d="m704 928v-224z"/><path d="m704 512v192z"/><path d="m-704 1376h224z"/><path d="m-480 1376h224z"/><path d="m-256 1376h224z"/><path d="m-32 1376h224z"/><path d="m192 1376h224z"/><path d="m416 1376h224z"/><path d="m704 1376h-64z"/><path d="m1280-1568h-32z"/><path d="m-1248-1568h-32z"/><path d="m1248-1568v-32z"/><path d="m-1248-1600v32z"/><path d="m704 512h224z"/><path d="m928 512h224z"/><path d="m1344 512h-192z"/><path d="m-1344 512h224z"/><path d="m-1120 512h224z"/><path d="m-704 512h-192z"/><path d="m1280-832v-224z"/><path d="m1280-1056v-224z"/><path d="m1280-1280v-224z"/><path d="m1280-1568v64z"/><path d="m1280-832h64z"/><path d="m-1280-832v-64-160z"/><path d="m-1280-1056v-64-160z"/><path d="m-1280-1280v-64-160z"/><path d="m-1280-1568v64z"/><path d="m-1344-832h64z"/><path d="m-704 1376v-192-32z"/><path d="m-704 1152v-192-32z"/><path d="m-704 928v-192-32z"/><path d="m-704 512v192z"/><path d="m704 1376v-224z"/><path d="m704 1152v-224z"/><path d="m704 928v-224z"/><path d="m704 512v192z"/><path d="m-704 1376h224z"/><path d="m-480 1376h224z"/><path d="m-256 1376h224z"/><path d="m-32 1376h224z"/><path d="m192 1376h224z"/><path d="m416 1376h224z"/><path d="m704 1376h-64z"/><path d="m1280-1568h-32z"/><path d="m-1248-1568h-32z"/><path d="m-1248-1568v-32z"/><path d="m1248-1568h32z"/><path d="m1248-1568v-32z"/><path d="m-1056-1568h-192-32z"/><path d="m-832-1568h-192-32z"/><path d="m-608-1568h-192-32z"/><path d="m-384-1568h-192-32z"/><path d="m-160-1568h-192-32z"/><path d="m64-1568h-192-32z"/><path d="m288-1568h-192-32z"/><path d="m512-1568h-192-32z"/><path d="m736-1568h-192-32z"/><path d="m960-1568h-192-32z"/><path d="m1184-1568h-192-32z"/><path d="m1248-1600v32z"/><path d="m-1024-1600h-224v32h192 32z"/><path d="m-800-1600h-224v32h192 32z"/><path d="m-576-1600h-224v32h192 32z"/><path d="m-352-1600h-224v32h192 32z"/><path d="m-128-1600h-224v32h192 32z"/><path d="m96-1600h-224v32h192 32z"/><path d="m320-1600h-224v32h192 32z"/><path d="m544-1600h-224v32h192 32z"/><path d="m768-1600h-224v32h192 32z"/><path d="m992-1600h-224v32h192 32z"/><path d="m1216-1600h-224v32h192 32z"/><path d="m1248-1568v-32h-32v32z"/></g><g id="e"><path d="m-640 672v-160h-32-32v192 32h64z"/><path d="m-704 736v192 32h64v-64-160z"/><path d="m-704 960v192 32h64v-64-160z"/><path d="m-704 1184v192h64v-32-160z"/><path d="m-416 1344h-224v32h160 64z"/><path d="m-192 1344h-224v32h160 64z"/><path d="m32 1344h-224v32h160 64z"/><path d="m256 1344h-224v32h160 64z"/><path d="m480 1344h-224v32h160 64z"/><path d="m640 1376h64v-32h-64-160v32z"/><path d="m-1120-832h-160-64v224h224z"/><path d="m-1344-608v224h224v-224z"/><path d="m-1344-384v224h224v-224z"/><path d="m-1344-160v224h224v-224z"/><path d="m-1344 64v224h224v-224z"/><path d="m-1344 288v224h224v-224z"/><path d="m-896-832h-160-64v224h224z"/><path d="m-1120-608v224h224v-224z"/><path d="m-1120-384v224h224v-224z"/><path d="m-1120-160v224h224v-224z"/><path d="m-1120 64v224h224v-224z"/><path d="m-1120 288v224h224v-224z"/><path d="m-672-832h-160-64v224h224z"/><path d="m-896-608v224h224v-224z"/><path d="m-896-384v224h224v-224z"/><path d="m-896-160v224h224v-224z"/><path d="m-896 64v224h224v-224z"/><path d="m-896 288v224h192 32v-224z"/><path d="m-640-672v-160h-32v224h32z"/><path d="m-672-608v224h32v-64-160z"/><path d="m-672-384v224h32v-64-160z"/><path d="m-672-160v224h32v-64-160z"/><path d="m-672 64v224h32v-64-160z"/><path d="m-672 288v224h32v-64-160z"/><path d="m928-832h-192-32v224h224z"/><path d="m704-608v224h224v-224z"/><path d="m704-384v224h224v-224z"/><path d="m704-160v224h224v-224z"/><path d="m704 64v224h224v-224z"/><path d="m704 288v224h224v-224z"/><path d="m1152-832h-192-32v224h224z"/><path d="m928-608v224h224v-224z"/><path d="m928-384v224h224v-224z"/><path d="m928-160v224h224v-224z"/><path d="m928 64v224h224v-224z"/><path d="m928 288v224h224v-224z"/><path d="m1344-832h-64-96-32v224h192z"/><path d="m1152-608v224h192v-224z"/><path d="m1152-384v224h192v-224z"/><path d="m1152-160v224h192v-224z"/><path d="m1152 64v224h192v-224z"/><path d="m1152 288v224h192v-224z"/><path d="m704-832h-64v160 64h64z"/><path d="m640-608v160 64h64v-224z"/><path d="m640-384v160 64h64v-224z"/><path d="m640-160v160 64h64v-224z"/><path d="m640 64v160 64h64v-224z"/><path d="m640 288v160 64h64v-224z"/><path d="m640 512v160 64h64v-32-192z"/><path d="m640 736v160 64h64v-32-192z"/><path d="m640 960v160 64h64v-32-192z"/><path d="m640 1184v160h64v-160z"/><path d="m-1056-1568h-224v64 160h224z"/><path d="m-1280-1344v64 160h224v-224z"/><path d="m-1280-1120v64 160h224v-224z"/><path d="m-1280-896v64h160 64v-64z"/><path d="m-832-1568h-224v224h224z"/><path d="m-1056-1344v224h224v-224z"/><path d="m-1056-1120v224h224v-224z"/><path d="m-1056-896v64h160 64v-64z"/><path d="m-608-1568h-224v224h224z"/><path d="m-832-1344v224h224v-224z"/><path d="m-832-1120v224h224v-224z"/><path d="m-832-896v64h160 32 32v-64z"/><path d="m-384-1568h-224v224h224z"/><path d="m-608-1344v224h224v-224z"/><path d="m-608-1120v224h224v-224z"/><path d="m-608-896v64h192 32v-64z"/><path d="m-160-1568h-224v224h224z"/><path d="m-384-1344v224h224v-224z"/><path d="m-384-1120v224h224v-224z"/><path d="m-384-896v64h192 32v-64z"/><path d="m64-1568h-224v224h224z"/><path d="m-160-1344v224h224v-224z"/><path d="m-160-1120v224h224v-224z"/><path d="m-160-896v64h192 32v-64z"/><path d="m288-1568h-224v224h224z"/><path d="m64-1344v224h224v-224z"/><path d="m64-1120v224h224v-224z"/><path d="m64-896v64h192 32v-64z"/><path d="m512-1568h-224v224h224z"/><path d="m288-1344v224h224v-224z"/><path d="m288-1120v224h224v-224z"/><path d="m288-896v64h192 32v-64z"/><path d="m736-1568h-224v224h224z"/><path d="m512-1344v224h224v-224z"/><path d="m512-1120v224h224v-224z"/><path d="m512-896v64h128 64 32v-64z"/><path d="m960-1568h-224v224h224z"/><path d="m736-1344v224h224v-224z"/><path d="m736-1120v224h224v-224z"/><path d="m736-896v64h192 32v-64z"/><path d="m1184-1568h-224v224h224z"/><path d="m960-1344v224h224v-224z"/><path d="m960-1120v224h224v-224z"/><path d="m960-896v64h192 32v-64z"/><path d="m1280-1344v-160-64h-96v224z"/><path d="m1280-1120v-160-64h-96v224z"/><path d="m1280-896v-160-64h-96v224z"/><path d="m1280-832v-64h-96v64z"/><path d="m-416-832h-192-32z"/><path d="m-192-832h-192-32z"/><path d="m32-832h-192-32z"/><path d="m256-832h-192-32z"/><path d="m480-832h-192-32z"/><path d="m640 1344h-160z"/><path d="m-640 1120v64 160z"/><path d="m-640 896v64 160z"/><path d="m-640 672v64 160z"/><path d="m-640 448v64 160z"/><path d="m-640 224v64 160z"/><path d="m-640 0v64 160z"/><path d="m-640-224v64 160z"/><path d="m-640-448v64 160z"/><path d="m-640-672v64 160z"/><path d="m640-832v160z"/><path d="m928 512h-224z"/><path d="m1152 512h-224z"/><path d="m-1120 512h-224z"/><path d="m-896 512h-224z"/><path d="m1280-1056v160 64z"/><path d="m1280-1280v160 64z"/><path d="m1280-1504v160 64z"/><path d="m-1280-1568v64z"/><path d="m1280-1568h-32-32-32z"/><path d="m-1280-1568h32z"/><path d="m-704 512v192z"/><path d="m704 1152v32 160 32z"/><path d="m704 928v32 192z"/><path d="m704 704v32 192z"/><path d="m-480 1376h-160-64z"/><path d="m-256 1376h-160-64z"/><path d="m-32 1376h-160-64z"/><path d="m192 1376h-160-64z"/><path d="m416 1376h-160-64z"/><path d="m640 1376h-160-64z"/><path d="m-640-832h224z"/><path d="m-416-832h224z"/><path d="m-192-832h224z"/><path d="m32-832h224z"/><path d="m256-832h224z"/><path d="m640-832h-128-32z"/><path d="m-640 1344h224z"/><path d="m-416 1344h224z"/><path d="m-192 1344h224z"/><path d="m32 1344h224z"/><path d="m256 1344h224z"/><path d="m640 1344h-160z"/><path d="m-640 1344v-160-64z"/><path d="m-640 1120v-160-64z"/><path d="m-640 896v-160-64z"/><path d="m-640 672v-160-64z"/><path d="m-640 448v-160-64z"/><path d="m-640 224v-160-64z"/><path d="m-640 0v-160-64z"/><path d="m-640-224v-160-64z"/><path d="m-640-448v-160-64z"/><path d="m-640-832v160z"/><path d="m640 1344v-160-64z"/><path d="m640 1120v-160-64z"/><path d="m640 896v-160-64z"/><path d="m640 672v-160-64z"/><path d="m640 448v-160-64z"/><path d="m640 224v-160-64z"/><path d="m640 0v-160-64z"/><path d="m640-224v-160-64z"/><path d="m640-448v-160-64z"/><path d="m640-832v160z"/><path d="m-416-832h-224 96z"/><path d="m-192-832h-224 96z"/><path d="m32-832h-224 96z"/><path d="m256-832h-224 96z"/><path d="m480-832h-224 96z"/><path d="m640-832h-160z"/><path d="m-416 1344h-224z"/><path d="m-192 1344h-224z"/><path d="m32 1344h-224z"/><path d="m256 1344h-224z"/><path d="m480 1344h-224z"/><path d="m-640-832v160z"/><path d="m-640 736v160 64z"/><path d="m-640 512v160 64z"/><path d="m-640 288v160 64z"/><path d="m-640 64v160 64z"/><path d="m-640-160v160 64z"/><path d="m-640-384v160 64z"/><path d="m-640-608v160 64z"/><path d="m640-672v-160 224z"/><path d="m640 1120v64 160z"/><path d="m640 896v64 160z"/><path d="m640 672v64 160z"/><path d="m640 448v64 160z"/><path d="m640 224v64 160z"/><path d="m640 0v64 160z"/><path d="m640-224v64 160z"/><path d="m640-448v64 160z"/><path d="m640-672v64 160z"/><path d="m640 960h-160z"/><path d="m-416 960h-224v160 64h224z"/><path d="m-640 1184v160h224v-160z"/><path d="m-192 960h-224v224h224z"/><path d="m-416 1184v160h224v-160z"/><path d="m32 960h-224v224h224z"/><path d="m-192 1184v160h224v-160z"/><path d="m256 960h-224v224h224z"/><path d="m32 1184v160h224v-160z"/><path d="m480 960h-224v224h224z"/><path d="m256 1184v160h224v-160z"/><path d="m640 1184v-64-160h-160v224z"/><path d="m640 1344v-160h-160v160z"/></g><g id="f"><path d="m1216-832v224z"/><path d="m-1216 1184v224z"/><path d="m-1216 960v224z"/><path d="m-1216 736v224z"/><path d="m-1216 512v224z"/><path d="m-1216 288v224z"/><path d="m-1216 64v224z"/><path d="m-1216-160v224z"/><path d="m-1216-384v224z"/><path d="m-1216-608v224z"/><path d="m-992-832h-224z"/><path d="m-768-832h-224z"/><path d="m-544-832h-96-128z"/><path d="m-320-832h-96-128z"/><path d="m-96-832h-96-128z"/><path d="m128-832h-96-128z"/><path d="m352-832h-96-128z"/><path d="m576-832h-96-128z"/><path d="m800-832h-160-64z"/><path d="m1024-832h-160-64z"/><path d="m576-832h64-160z"/><path d="m1088 1408h128-192z"/><path d="m-640 1184v-224h224v224z"/><path d="m-416 1408h-128-96v-224h224z"/><path d="m-416 1184v-224h224v224z"/><path d="m-192 1408h-128-96v-224h224z"/><path d="m-192 1184v-224h224v224z"/><path d="m32 1408h-128-96v-224h224z"/><path d="m32 1184v-224h224v224z"/><path d="m256 1408h-128-96v-224h224z"/><path d="m256 1184v-224h224v224z"/><path d="m480 1408h-128-96v-224h224z"/><path d="m640 960v224h-160v-224z"/><path d="m640 1184v224h-64-96v-224z"/><path d="m-1216-832h224v224h-224z"/><path d="m-992-608v224h-224v-224z"/><path d="m-992-384v224h-224v-224z"/><path d="m-992-160v224h-224v-224z"/><path d="m-992 64v224h-224v-224z"/><path d="m-992 288v224h-224v-224z"/><path d="m-992 512v224h-224v-224z"/><path d="m-992 736v224h-224v-224z"/><path d="m-992 960v224h-224v-224z"/><path d="m-992 1184v224h-224v-224z"/><path d="m-992-832h224v224h-224z"/><path d="m-768-608v224h-224v-224z"/><path d="m-768-384v224h-224v-224z"/><path d="m-768-160v224h-224v-224z"/><path d="m-768 64v224h-224v-224z"/><path d="m-768 288v224h-224v-224z"/><path d="m-768 512v224h-224v-224z"/><path d="m-768 736v224h-224v-224z"/><path d="m-768 960v224h-224v-224z"/><path d="m-768 1184v224h-224v-224z"/><path d="m-768-832h128v224h-128z"/><path d="m-640-608v224h-128v-224z"/><path d="m-640-384v224h-128v-224z"/><path d="m-640-160v224h-128v-224z"/><path d="m-640 64v224h-128v-224z"/><path d="m-640 288v224h-128v-224z"/><path d="m-640 512v224h-128v-224z"/><path d="m-640 736v224h-128v-224z"/><path d="m-640 960v224h-128v-224z"/><path d="m-640 1184v224h-128v-224z"/><path d="m640-832h160 64v224h-224z"/><path d="m864-608v224h-224v-224z"/><path d="m864-384v224h-224v-224z"/><path d="m864-160v224h-224v-224z"/><path d="m864 64v224h-224v-224z"/><path d="m864 288v224h-224v-224z"/><path d="m864 512v224h-224v-224z"/><path d="m864 736v224h-224v-224z"/><path d="m864 960v224h-224v-224z"/><path d="m864 1184v224h-64-160v-224z"/><path d="m864-832h160 64v224h-224z"/><path d="m1088-608v224h-224v-224z"/><path d="m1088-384v224h-224v-224z"/><path d="m1088-160v224h-224v-224z"/><path d="m1088 64v224h-224v-224z"/><path d="m1088 288v224h-224v-224z"/><path d="m1088 512v224h-224v-224z"/><path d="m1088 736v224h-224v-224z"/><path d="m1088 960v224h-224v-224z"/><path d="m1088 1184v224h-64-160v-224z"/><path d="m1088-832h128v224h-128z"/><path d="m1216-608v224h-128v-224z"/><path d="m1216-384v224h-128v-224z"/><path d="m1216-160v224h-128v-224z"/><path d="m1216 64v224h-128v-224z"/><path d="m1216 288v224h-128v-224z"/><path d="m1216 512v224h-128v-224z"/><path d="m1216 736v224h-128v-224z"/><path d="m1216 960v224h-128v-224z"/><path d="m1216 1184v224h-128v-224z"/><path d="m-640-832v160 64z"/><path d="m640 736v224-64z"/><path d="m640 512v224-64z"/><path d="m640 288v224-64z"/><path d="m640 64v224-64z"/><path d="m640-160v224-64z"/><path d="m640-384v224-64z"/><path d="m640-608v224-64z"/><path d="m-416 960h-224z"/><path d="m-192 960h-224z"/><path d="m32 960h-224z"/><path d="m256 960h-224z"/><path d="m480 960h-224z"/><path d="m1216 1408v-224z"/><path d="m1216 1184v-224z"/><path d="m1216 960v-224z"/><path d="m1216 736v-224z"/><path d="m1216 512v-224z"/><path d="m1216 288v-224z"/><path d="m1216 64v-224z"/><path d="m1216-160v-224z"/><path d="m1216-384v-224z"/><path d="m1216-832v224z"/><path d="m-1216 1408v-224z"/><path d="m-1216 1184v-224z"/><path d="m-1216 960v-224z"/><path d="m-1216 736v-224z"/><path d="m-1216 512v-224z"/><path d="m-1216 288v-224z"/><path d="m-1216 64v-224z"/><path d="m-1216-160v-224z"/><path d="m-1216-384v-224z"/><path d="m-1216-832v224z"/><path d="m-1216-832h224z"/><path d="m-992-832h224z"/><path d="m-768-832h224z"/><path d="m-544-832h224z"/><path d="m-320-832h224z"/><path d="m-96-832h224z"/><path d="m128-832h224z"/><path d="m352-832h224z"/><path d="m576-832h224z"/><path d="m800-832h224z"/><path d="m1216-832h-128-64z"/><path d="m-1216 1408h224z"/><path d="m-992 1408h224z"/><path d="m-768 1408h128 96z"/><path d="m-544 1408h128 96z"/><path d="m-320 1408h128 96z"/><path d="m-96 1408h128 96z"/><path d="m128 1408h128 96z"/><path d="m352 1408h128 96z"/><path d="m576 1408h64 160z"/><path d="m800 1408h64 160z"/><path d="m1216 1408h-192z"/></g><g id="g"><path d="m-384-800h-224 192z"/><path d="m-160-800h-224 192z"/><path d="m64-800h-224 192z"/><path d="m288-800h-224 192z"/><path d="m512-800h-224 192z"/><path d="m608-800v96z"/><path d="m-608 192v224-192z"/><path d="m-608-32v224-192z"/><path d="m-608-256v224-192z"/><path d="m-608-480v224-192z"/><path d="m-608-704v224-192z"/><path d="m608 416h-96z"/><path d="m1216 1184v224z"/><path d="m1216 960v224z"/><path d="m1216 736v224z"/><path d="m1216 512v224z"/><path d="m1216 288v224z"/><path d="m1216 64v224z"/><path d="m1216-160v224z"/><path d="m1216-384v224z"/><path d="m1216-608v224z"/><path d="m-1216-832v224z"/><path d="m1216-832h-192z"/><path d="m-992 1408h-224z"/><path d="m-768 1408h-224z"/><path d="m-544 1408h-224z"/><path d="m-320 1408h-224z"/><path d="m-96 1408h-224z"/><path d="m128 1408h-224z"/><path d="m352 1408h-224z"/><path d="m576 1408h-224z"/><path d="m800 1408h-224z"/><path d="m1024 1408h-224z"/><path d="m-992-832h-224v224h224z"/><path d="m-1216-608v224h224v-224z"/><path d="m-1216-384v224h224v-224z"/><path d="m-1216-160v224h224v-224z"/><path d="m-1216 64v224h224v-224z"/><path d="m-1216 288v224h224v-224z"/><path d="m-1216 512v224h224v-224z"/><path d="m-1216 736v224h224v-224z"/><path d="m-1216 960v224h224v-224z"/><path d="m-1216 1184v224h224v-224z"/><path d="m-768-832h-224v224h224z"/><path d="m-992-608v224h224v-224z"/><path d="m-992-384v224h224v-224z"/><path d="m-992-160v224h224v-224z"/><path d="m-992 64v224h224v-224z"/><path d="m-992 288v224h224v-224z"/><path d="m-992 512v224h224v-224z"/><path d="m-992 736v224h224v-224z"/><path d="m-992 960v224h224v-224z"/><path d="m-992 1184v224h224v-224z"/><path d="m-544-832h-224v224h224z"/><path d="m-768-608v224h224v-224z"/><path d="m-768-384v224h224v-224z"/><path d="m-768-160v224h224v-224z"/><path d="m-768 64v224h224v-224z"/><path d="m-768 288v224h224v-224z"/><path d="m-768 512v224h224v-224z"/><path d="m-768 736v224h224v-224z"/><path d="m-768 960v224h224v-224z"/><path d="m-768 1184v224h224v-224z"/><path d="m-320-832h-224v224h224z"/><path d="m-544-608v224h224v-224z"/><path d="m-544-384v224h224v-224z"/><path d="m-544-160v224h224v-224z"/><path d="m-544 64v224h224v-224z"/><path d="m-544 288v224h224v-224z"/><path d="m-544 512v224h224v-224z"/><path d="m-544 736v224h224v-224z"/><path d="m-544 960v224h224v-224z"/><path d="m-544 1184v224h224v-224z"/><path d="m-96-832h-224v224h224z"/><path d="m-320-608v224h224v-224z"/><path d="m-320-384v224h224v-224z"/><path d="m-320-160v224h224v-224z"/><path d="m-320 64v224h224v-224z"/><path d="m-320 288v224h224v-224z"/><path d="m-320 512v224h224v-224z"/><path d="m-320 736v224h224v-224z"/><path d="m-320 960v224h224v-224z"/><path d="m-320 1184v224h224v-224z"/><path d="m128-832h-224v224h224z"/><path d="m-96-608v224h224v-224z"/><path d="m-96-384v224h224v-224z"/><path d="m-96-160v224h224v-224z"/><path d="m-96 64v224h224v-224z"/><path d="m-96 288v224h224v-224z"/><path d="m-96 512v224h224v-224z"/><path d="m-96 736v224h224v-224z"/><path d="m-96 960v224h224v-224z"/><path d="m-96 1184v224h224v-224z"/><path d="m352-832h-224v224h224z"/><path d="m128-608v224h224v-224z"/><path d="m128-384v224h224v-224z"/><path d="m128-160v224h224v-224z"/><path d="m128 64v224h224v-224z"/><path d="m128 288v224h224v-224z"/><path d="m128 512v224h224v-224z"/><path d="m128 736v224h224v-224z"/><path d="m128 960v224h224v-224z"/><path d="m128 1184v224h224v-224z"/><path d="m576-832h-224v224h224z"/><path d="m352-608v224h224v-224z"/><path d="m352-384v224h224v-224z"/><path d="m352-160v224h224v-224z"/><path d="m352 64v224h224v-224z"/><path d="m352 288v224h224v-224z"/><path d="m352 512v224h224v-224z"/><path d="m352 736v224h224v-224z"/><path d="m352 960v224h224v-224z"/><path d="m352 1184v224h224v-224z"/><path d="m800-832h-224v224h224z"/><path d="m576-608v224h224v-224z"/><path d="m576-384v224h224v-224z"/><path d="m576-160v224h224v-224z"/><path d="m576 64v224h224v-224z"/><path d="m576 288v224h224v-224z"/><path d="m576 512v224h224v-224z"/><path d="m576 736v224h224v-224z"/><path d="m576 960v224h224v-224z"/><path d="m576 1184v224h224v-224z"/><path d="m1024-832h-224v224h224z"/><path d="m800-608v224h224v-224z"/><path d="m800-384v224h224v-224z"/><path d="m800-160v224h224v-224z"/><path d="m800 64v224h224v-224z"/><path d="m800 288v224h224v-224z"/><path d="m800 512v224h224v-224z"/><path d="m800 736v224h224v-224z"/><path d="m800 960v224h224v-224z"/><path d="m800 1184v224h224v-224z"/><path d="m1216-832h-192v224h192z"/><path d="m1024-608v224h192v-224z"/><path d="m1024-384v224h192v-224z"/><path d="m1024-160v224h192v-224z"/><path d="m1024 64v224h192v-224z"/><path d="m1024 288v224h192v-224z"/><path d="m1024 512v224h192v-224z"/><path d="m1024 736v224h192v-224z"/><path d="m1024 960v224h192v-224z"/><path d="m1024 1184v224h192v-224z"/></g></defs><g stroke="#000"><use fill="none" stroke-miterlimit="0" stroke-width="10" xlink:href="#a"/><use fill="#bdbdbd" xlink:href="#a"/><use fill="none" stroke-miterlimit="0" stroke-width="10" xlink:href="#b"/><use fill="#c7c7c7" xlink:href="#b"/><use fill="none" stroke-miterlimit="0" stroke-width="10" xlink:href="#c"/><use fill="#d1d1d1" xlink:href="#c"/><use fill="none" stroke-miterlimit="0" stroke-width="10" xlink:href="#d"/><use fill="#dedede" xlink:href="#d"/><use fill="none" stroke-miterlimit="0" stroke-width="10" xlink:href="#e"/><use fill="#e8e8e8" xlink:href="#e"/><use fill="none" stroke-miterlimit="0" stroke-width="10" xlink:href="#f"/><use fill="#f2f2f2" xlink:href="#f"/><use fill="none" stroke-miterlimit="0" stroke-width="10" xlink:href="#g"/><use fill="#fff" xlink:href="#g"/></g></svg>