<?xml version="1.0" encoding="utf-8" ?>
<svg baseProfile="tiny" height="100%" version="1.2" viewBox="-1146.0 -1506.0 1922.0 1752.0" width="100%" xmlns="http://www.w3.org/2000/svg" xmlns:ev="http://www.w3.org/2001/xml-events" xmlns:xlink="http://www.w3.org/1999/xlink"><defs><g id="bsp_ref"><polygon points="630,-124 630,100 630,100 630,-124" /><polygon points="630,-348 630,-124 630,-124 630,-348" /><polygon points="630,-572 630,-348 630,-348 630,-572" /><polygon points="630,-796 630,-572 630,-572 630,-796" /><polygon points="630,-1020 630,-796 630,-796 630,-1020" /><polygon points="630,-1244 630,-1020 630,-1020 630,-1244" /><polygon points="-1000,-1340 -1000,-1340 -1000,-1264 -1000,-1264" /><polygon points="500,-1360 500,-1360 472,-1360 472,-1360" /><polygon points="-276,100 -500,100 -500,100 -276,100" /><polygon points="-52,100 -276,100 -276,100 -52,100" /><polygon points="172,100 -52,100 -52,100 172,100" /><polygon points="396,100 172,100 172,100 396,100" /><polygon points="630,-1340 630,-1340 500,-1340 500,-1340" /><polygon points="44,-1340 -180,-1340 -180,-1340 44,-1340" /><polygon points="-200,-1340 -200,-1340 -288,-1340 -328,-1340 -328,-1340" /><polygon points="630,-1360 630,-1340 500,-1340 500,-1360" /><polygon points="-776,-1340 -1000,-1340 -1000,-1360 -776,-1360" /><polygon points="-552,-1340 -776,-1340 -776,-1360 -552,-1360" /><polygon points="-328,-1340 -552,-1340 -552,-1360 -328,-1360" /><polygon points="-200,-1360 -200,-1340 -328,-1340 -328,-1360" /><polygon points="610,-730 610,-730 610,-592 610,-592" /><polygon points="174,-50 28,-50 -50,-50 -50,-50 -30,-50 174,-50" /><polygon points="470,-1190 470,-1340 470,-1340 470,-1190" /><polygon points="470,-400 470,-400 470,-274 470,-274" /><polygon points="470,-580 470,-720 470,-730 610,-730 610,-592 610,-506 470,-506" /><polygon points="610,-506 610,-400 471,-400 470,-400 470,-410 470,-506" /><polygon points="471,-274 471,-176 471,-50 471,-50 471,-176 471,-274" /><polygon points="471,-274 471,-400 610,-400 610,-368 610,-176 471,-176" /><polygon points="610,-176 610,-144 610,-50 471,-50 471,-176" /><polygon points="-960,-704 -960,-612 -960,-480 -960,-480 -960,-580 -960,-704" /><polygon points="-960,-928 -960,-836 -960,-704 -960,-704 -960,-804 -960,-928" /><polygon points="300,-1190 300,-1340 470,-1340 470,-1190" /><polygon points="220,-960 220,-1170 300,-1170 300,-946 220,-946" /><polygon points="300,-946 300,-944 300,-720 220,-720 220,-760 220,-930 220,-946" /><polygon points="444,-580 300,-580 220,-580 220,-720 300,-720 444,-720" /><polygon points="470,-720 470,-580 444,-580 444,-720" /><polygon points="44,-1170 -180,-1170 -180,-1306 -180,-1340 44,-1340" /><polygon points="100,-1340 100,-1170 44,-1170 44,-1340" /><polygon points="0,-960 -180,-960 -180,-1060 -180,-1082 -180,-1170 44,-1170 44,-960" /><polygon points="44,-1170 100,-1170 120,-1170 140,-1170 160,-1170 220,-1170 220,-960 44,-960" /><polygon points="44,-960 220,-960 220,-946 220,-930 170,-930 0,-930 0,-960" /><polygon points="170,-760 170,-930 220,-930 220,-760" /><polygon points="200,-580 135,-580 135,-760 170,-760 220,-760 220,-720 220,-580" /><polygon points="0,-960 0,-930 0,-895 -180,-895 -180,-930 -180,-960" /><polygon points="444,-580 470,-580 470,-506 470,-410 300,-410 300,-580" /><polygon points="200,-560 200,-580 220,-580 300,-580 300,-410 300,-400 299,-400 200,-400" /><polygon points="300,-274 300,-400 470,-400 470,-274 470,-176 300,-176" /><polygon points="470,-176 470,-50 300,-50 300,-176" /><polygon points="200,-390 200,-400 299,-400 299,-260 200,-260" /><polygon points="200,-580 200,-560 170,-560 135,-560 135,-580" /><polygon points="170,-560 200,-560 200,-400 200,-390 170,-390" /><polygon points="170,-390 200,-390 200,-260 174,-260 0,-260 0,-390" /><polygon points="-180,-425 -50,-425 -50,-390 -146,-390 -180,-390" /><polygon points="-146,-260 -176,-260 -370,-260 -370,-356 -370,-390 -350,-390 -180,-390 -146,-390" /><polygon points="-50,-390 -50,-260 -146,-260 -146,-390" /><polygon points="-50,-390 -50,-425 0,-425 0,-390 0,-260 -50,-260" /><polygon points="-176,-50 -196,-50 -400,-50 -400,-260 -370,-260 -176,-260" /><polygon points="-146,-260 -50,-260 -50,-50 -176,-50 -176,-260" /><polygon points="-540,-1050 -540,-1060 -350,-1060 -350,-960 -370,-960 -416,-960 -540,-960" /><polygon points="-350,-960 -350,-1060 -316,-1060 -180,-1060 -180,-960 -180,-930 -350,-930" /><polygon points="-640,-960 -640,-1050 -540,-1050 -540,-960" /><polygon points="-350,-736 -350,-760 -320,-760 -320,-560 -350,-560" /><polygon points="-370,-880 -370,-960 -350,-960 -350,-930 -350,-760 -350,-736 -370,-736" /><polygon points="-350,-736 -350,-560 -350,-512 -370,-512 -370,-580 -370,-656 -370,-736" /><polygon points="-350,-512 -350,-390 -370,-390 -370,-512" /><polygon points="-416,-880 -540,-880 -640,-880 -640,-960 -540,-960 -416,-960" /><polygon points="-370,-960 -370,-880 -416,-880 -416,-960" /><polygon points="-540,-656 -540,-804 -540,-880 -416,-880 -370,-880 -370,-736 -370,-656" /><polygon points="-370,-580 -526,-580 -540,-580 -540,-656 -370,-656" /><polygon points="-750,-1060 -736,-1060 -640,-1060 -640,-1050 -640,-960 -640,-880 -640,-836 -750,-836" /><polygon points="-640,-836 -640,-804 -640,-612 -750,-612 -750,-836" /><polygon points="-640,-612 -640,-580 -750,-580 -750,-612" /><polygon points="-960,-928 -960,-1060 -750,-1060 -750,-836 -960,-836" /><polygon points="-750,-836 -750,-612 -960,-612 -960,-704 -960,-836" /><polygon points="-750,-612 -750,-580 -750,-480 -960,-480 -960,-612" /><polygon points="-750,-356 -750,-480 -750,-580 -640,-580 -540,-580 -526,-580 -526,-356" /><polygon points="-526,-260 -750,-260 -750,-356 -526,-356" /><polygon points="-370,-580 -370,-512 -370,-390 -370,-356 -526,-356 -526,-580" /><polygon points="-370,-356 -370,-260 -400,-260 -526,-260 -526,-356" /><polygon points="300,-274 300,-176 300,-50 300,-50 300,-176 300,-260 300,-274" /><polygon points="300,-946 300,-1170 300,-1170 300,-1130 300,-1110 300,-1090 300,-1082 300,-1052 300,-1050 300,-1030 300,-1010 300,-990 300,-970 300,-944 300,-944" /><polygon points="300,-400 300,-400 470,-400 470,-400" /><polygon points="470,-410 470,-410 300,-410 300,-410" /><polygon points="140,-1170 120,-1170 120,-1170 120,-1170 140,-1170" /><polygon points="-180,-1306 -180,-1170 -180,-1082 -180,-1082 -180,-1230 -180,-1260 -180,-1306" /><polygon points="-400,-260 -400,-260 -420,-260 -526,-260 -526,-260" /><polygon points="200,-260 299,-260 299,-260 194,-260 174,-260 174,-260" /><polygon points="299,-400 299,-400 299,-260 299,-260" /><polygon points="-316,-1060 -350,-1060 -540,-1060 -540,-1060 -316,-1060" /><polygon points="-736,-1060 -750,-1060 -960,-1060 -960,-1060 -736,-1060" /><polygon points="-180,-1082 -180,-1060 -180,-1060 -180,-1082" /><polygon points="-320,-760 -350,-760 -350,-760 -320,-760" /><polygon points="0,-895 0,-930 0,-930 0,-895" /><polygon points="170,-930 170,-930 0,-930 0,-930 0,-930" /><polygon points="170,-930 170,-760 170,-760 170,-760 170,-930" /><polygon points="135,-560 170,-560 170,-560 135,-560" /><polygon points="-320,-760 -320,-760 -320,-560 -320,-560" /><polygon points="-180,-425 -180,-390 -180,-390 -180,-425" /><polygon points="-350,-390 -350,-390 -180,-390 -180,-390 -180,-390" /><polygon points="-350,-512 -350,-560 -350,-560 -350,-560 -350,-390 -350,-390" /><polygon points="-640,-836 -640,-880 -640,-880 -640,-860 -640,-804 -640,-804" /><polygon points="-540,-804 -540,-656 -540,-580 -540,-580 -540,-804" /><polygon points="-400,-50 -400,-50 -400,-260 -400,-260 -400,-260" /><polygon points="610,80 610,80 492,80 476,80 476,80" /><polygon points="471,-50 610,-50 610,80 476,80 470,80 470,-49 470,-50" /><polygon points="300,-49 300,-49 470,-49 470,-49" /><polygon points="470,80 300,80 300,-49 470,-49" /><polygon points="-196,80 -420,80 -420,-50 -400,-50 -196,-50" /><polygon points="28,80 -196,80 -196,-50 -176,-50 -50,-50 28,-50" /><polygon points="252,80 28,80 28,-50 174,-50 252,-50" /><polygon points="300,-50 300,-49 300,80 252,80 252,-50" /><polygon points="-776,100 -1000,100 -1000,80 -776,80" /><polygon points="-552,100 -610,100 -776,100 -776,80 -552,80" /><polygon points="-500,80 -500,100 -552,100 -552,80" /><polygon points="-776,80 -1000,80 -1000,80 -776,80" /><polygon points="-552,80 -776,80 -776,80 -552,80" /><polygon points="100,-1170 100,-1170 100,-1340 100,-1340" /><polygon points="120,-1170 120,-1170 100,-1170 100,-1170" /><polygon points="120,-1170 100,-1170 100,-1340 120,-1340" /><polygon points="170,-760 170,-760 135,-760 135,-760" /><polygon points="-180,-930 -180,-930 -180,-895 -180,-895" /><polygon points="-180,-895 -180,-895 0,-895 0,-895" /><polygon points="-180,-880 0,-880 0,-880 -76,-880 -180,-880" /><polygon points="0,-880 -180,-880 -180,-895 0,-895" /><polygon points="0,-425 0,-440 0,-440 0,-425" /><polygon points="0,-425 0,-425 0,-390 0,-390 0,-425" /><polygon points="135,-760 135,-760 135,-580 135,-560 135,-560" /><polygon points="120,-760 135,-760 135,-560 120,-560" /><polygon points="-350,-560 -350,-560 -320,-560 -320,-560" /><polygon points="-300,-760 -300,-760 -300,-656 -300,-560 -300,-560" /><polygon points="-320,-760 -300,-760 -300,-560 -320,-560" /><polygon points="0,-425 0,-425 -50,-425 -180,-425 -180,-425" /><polygon points="0,-440 -180,-440 -180,-440 -76,-440 0,-440" /><polygon points="0,-425 -180,-425 -180,-440 0,-440" /><polygon points="630,-1340 630,-1340 630,-1244 630,-1244" /><polygon points="630,-124 630,100 630,100 630,-124" /><polygon points="630,-348 630,-124 630,-124 630,-348" /><polygon points="630,-572 630,-348 630,-348 630,-572" /><polygon points="630,-796 630,-572 630,-572 630,-796" /><polygon points="630,-1020 630,-796 630,-796 630,-1020" /><polygon points="630,-1244 630,-1020 630,-1020 630,-1244" /><polygon points="-1000,-144 -1000,80 -1000,80 -1000,-144" /><polygon points="-1000,-368 -1000,-144 -1000,-144 -1000,-368" /><polygon points="-1000,-592 -1000,-368 -1000,-368 -1000,-592" /><polygon points="-1000,-816 -1000,-592 -1000,-592 -1000,-816" /><polygon points="-1000,-1040 -1000,-816 -1000,-816 -1000,-1040" /><polygon points="-1000,-1264 -1000,-1040 -1000,-1040 -1000,-1264" /><polygon points="-1000,-1340 -1000,-1350 -1000,-1350 -1000,-1340 -1000,-1264 -1000,-1264" /><polygon points="24,-1360 -200,-1360 -200,-1360 24,-1360" /><polygon points="248,-1360 24,-1360 24,-1360 248,-1360" /><polygon points="472,-1360 248,-1360 248,-1360 472,-1360" /><polygon points="500,-1360 500,-1360 472,-1360 472,-1360" /><polygon points="630,100 630,100 396,100 396,100" /><polygon points="-276,100 -500,100 -500,100 -276,100" /><polygon points="-52,100 -276,100 -276,100 -52,100" /><polygon points="172,100 -52,100 -52,100 172,100" /><polygon points="396,100 172,100 172,100 396,100" /><polygon points="470,-1340 300,-1340 300,-1340 450,-1340 470,-1340" /><polygon points="300,-1340 470,-1340 470,-1340 300,-1340" /><polygon points="100,-1340 120,-1340 120,-1340 100,-1340" /><polygon points="140,-1340 120,-1340 100,-1340 100,-1340 140,-1340" /><polygon points="100,-1340 100,-1340 100,-1340 44,-1340 44,-1340" /><polygon points="-200,-1340 -200,-1340 -288,-1340 -288,-1340" /><polygon points="-776,-1340 -960,-1340 -1000,-1340 -1000,-1340 -776,-1340" /><polygon points="-552,-1340 -736,-1340 -776,-1340 -776,-1340 -552,-1340" /><polygon points="-328,-1340 -512,-1340 -552,-1340 -552,-1340 -328,-1340" /><polygon points="-200,-1340 -200,-1360 -200,-1360 -200,-1340" /><polygon points="-200,-1360 -200,-1340 -200,-1340 -200,-1360" /><polygon points="500,-1340 500,-1360 500,-1360 500,-1340" /><polygon points="-960,-1350 -1000,-1350 -1000,-1340 -960,-1340" /><polygon points="-960,-1350 -960,-1340 -960,-1340 -960,-1350" /><polygon points="-1000,-1350 -960,-1350 -960,-1350 -1000,-1350" /><polygon points="610,-144 610,80 610,80 610,-50 610,-144" /><polygon points="610,-368 610,-144 610,-144 610,-176 610,-368" /><polygon points="610,-592 610,-368 610,-368 610,-400 610,-506 610,-592" /><polygon points="610,-730 610,-730 610,-730 610,-592 610,-592" /><polygon points="-420,-50 -420,-50 -400,-50 -400,-50 -400,-50 -400,-50 -420,-50" /><polygon points="194,-50 300,-50 300,-50 252,-50 174,-50 174,-50" /><polygon points="418,-50 300,-50 300,-50 470,-50 470,-50" /><polygon points="194,-50 174,-50 -30,-50 -30,-50 194,-50" /><polygon points="418,-50 300,-50 194,-50 194,-50 418,-50" /><polygon points="471,-50 471,-50 470,-50 470,-50" /><polygon points="470,-274 470,-176 470,-50 470,-50 470,-176 470,-274" /><polygon points="470,-400 470,-400 470,-400 470,-410 470,-410 470,-410 470,-400" /><polygon points="470,-274 470,-176 470,-50 470,-50 470,-260 470,-274" /><polygon points="610,-730 560,-730 560,-730 560,-730 610,-730" /><polygon points="470,-730 470,-730 520,-730 520,-730 520,-730" /><polygon points="560,-730 520,-730 520,-730 560,-730" /><polygon points="520,-730 560,-730 610,-730 610,-730 470,-730 470,-730" /><polygon points="470,-400 470,-400 471,-400 471,-400" /><polygon points="470,-274 470,-400 471,-400 471,-274 471,-176 470,-176" /><polygon points="471,-176 471,-50 470,-50 470,-176" /><polygon points="471,-400 471,-400 471,-274 471,-274" /><polygon points="-960,-1060 -960,-970 -960,-970 -960,-970 -960,-1028 -960,-1060" /><polygon points="-960,-930 -960,-970 -960,-1060 -960,-1060 -960,-928 -960,-928" /><polygon points="-960,-970 -960,-930 -960,-930 -960,-970" /><polygon points="-960,-804 -960,-704 -960,-580 -960,-580 -960,-804" /><polygon points="300,-400 300,-400 300,-274 300,-274" /><polygon points="300,-260 300,-274 300,-400 300,-400 300,-260" /><polygon points="300,-1110 300,-1130 300,-1130 300,-1130 300,-1130 300,-1110" /><polygon points="300,-1030 300,-1050 300,-1050 300,-1050 300,-1050 300,-1030" /><polygon points="300,-1010 300,-1030 300,-1030 300,-1030 300,-1010" /><polygon points="300,-944 300,-730 300,-720 300,-720 300,-944" /><polygon points="300,-1082 300,-1082 300,-1052 300,-1052" /><polygon points="300,-1190 300,-1340 300,-1340 300,-1190" /><polygon points="470,-274 470,-400 300,-400 300,-274 300,-260 300,-176 470,-176" /><polygon points="300,-176 300,-50 418,-50 470,-50 470,-176" /><polygon points="160,-1170 160,-1170 140,-1170 140,-1170 140,-1170 160,-1170" /><polygon points="220,-1170 200,-1170 200,-1170 200,-1170 220,-1170" /><polygon points="200,-1170 180,-1170 180,-1170 180,-1170 200,-1170" /><polygon points="180,-1170 200,-1170 220,-1170 240,-1170 260,-1170 280,-1170 300,-1170 300,-1170 220,-1170 160,-1170 160,-1170" /><polygon points="240,-1170 220,-1170 220,-1170 220,-1170 240,-1170" /><polygon points="260,-1170 240,-1170 240,-1170 240,-1170 260,-1170" /><polygon points="280,-1170 260,-1170 260,-1170 260,-1170 280,-1170" /><polygon points="300,-1170 280,-1170 280,-1170 280,-1170 300,-1170" /><polygon points="140,-1170 120,-1170 120,-1340 140,-1340" /><polygon points="120,-1170 120,-1170 120,-1340 120,-1340" /><polygon points="-180,-1260 -180,-1230 -180,-1230 -180,-1260" /><polygon points="-180,-1340 -180,-1340 -180,-1306 -180,-1306" /><polygon points="-526,-260 -750,-260 -750,-260 -526,-260" /><polygon points="-420,-260 -420,-260 -526,-260 -526,-260" /><polygon points="-420,-260 -400,-260 -400,-260 -400,-260 -420,-260" /><polygon points="174,-260 -30,-260 -50,-260 -50,-260 0,-260 174,-260" /><polygon points="299,-260 300,-260 300,-260 194,-260 194,-260" /><polygon points="299,-400 299,-400 300,-400 300,-400" /><polygon points="299,-260 299,-400 300,-400 300,-274 300,-260" /><polygon points="-316,-1060 -540,-1060 -540,-1060 -540,-1060 -512,-1060 -316,-1060" /><polygon points="-180,-1060 -180,-1060 -316,-1060 -316,-1060" /><polygon points="-736,-1060 -960,-1060 -960,-1060 -960,-1060 -960,-1060 -736,-1060" /><polygon points="-640,-1060 -640,-1060 -736,-1060 -736,-1060" /><polygon points="-180,-1082 -180,-1060 -180,-1060 -180,-1082" /><polygon points="-300,-656 -300,-760 -300,-880 -180,-880 -76,-880 -76,-656" /><polygon points="-76,-440 -180,-440 -300,-440 -300,-560 -300,-656 -76,-656" /><polygon points="0,-880 120,-880 120,-760 120,-656 -76,-656 -76,-880" /><polygon points="120,-656 120,-560 120,-440 0,-440 -76,-440 -76,-656" /><polygon points="170,-930 170,-930 20,-930 0,-930 0,-930" /><polygon points="-180,-930 -180,-930 -350,-930 -350,-930" /><polygon points="120,-440 120,-560 120,-560 120,-440" /><polygon points="0,-425 0,-440 0,-440 0,-390 0,-390" /><polygon points="120,-440 120,-440 20,-440 0,-440 0,-440" /><polygon points="-350,-560 -350,-560 -350,-440 -350,-390 -350,-390" /><polygon points="170,-760 170,-760 135,-760 120,-760 120,-760" /><polygon points="-300,-760 -300,-760 -320,-760 -350,-760 -350,-760" /><polygon points="0,-880 0,-880 0,-895 0,-930 0,-930" /><polygon points="-180,-930 -180,-930 -180,-895 -180,-880 -180,-880" /><polygon points="-350,-760 -350,-760 -350,-760 -350,-930 -350,-930" /><polygon points="-350,-930 -350,-930 -180,-930 -180,-930 -180,-930" /><polygon points="120,-560 120,-560 135,-560 170,-560 170,-560" /><polygon points="120,-656 120,-760 120,-760 120,-560 120,-560" /><polygon points="170,-390 170,-390 0,-390 0,-390" /><polygon points="170,-560 170,-560 170,-560 170,-390 170,-390" /><polygon points="-350,-560 -350,-560 -320,-560 -300,-560 -300,-560" /><polygon points="-180,-440 -180,-440 -180,-425 -180,-390 -180,-390" /><polygon points="-610,-580 -570,-580 -540,-580 -540,-580 -640,-580 -640,-580" /><polygon points="-570,-580 -610,-580 -610,-580 -570,-580" /><polygon points="-640,-860 -640,-860 -640,-804 -640,-804" /><polygon points="-640,-804 -640,-580 -640,-580 -640,-612 -640,-804" /><polygon points="-640,-1060 -640,-1060 -640,-1050 -640,-1050 -640,-1060" /><polygon points="-640,-880 -640,-880 -540,-880 -540,-880 -540,-880 -640,-880" /><polygon points="-540,-860 -540,-880 -540,-880 -540,-804 -540,-804" /><polygon points="-540,-804 -540,-580 -540,-580 -540,-580 -540,-804" /><polygon points="-750,-480 -750,-480 -750,-356 -750,-260 -750,-260" /><polygon points="-960,-480 -960,-480 -750,-480 -750,-480" /><polygon points="-420,-50 -420,-50 -420,80 -420,80" /><polygon points="470,-49 300,-49 300,-50 418,-50 470,-50" /><polygon points="-240,80 -240,80 -240,80 -240,80 -420,80 -420,80" /><polygon points="610,80 610,80 492,80 492,80" /><polygon points="-196,80 -240,80 -420,80 -420,80 -196,80" /><polygon points="28,80 -180,80 -196,80 -196,80 28,80" /><polygon points="252,80 44,80 28,80 28,80 252,80" /><polygon points="476,80 268,80 252,80 252,80 300,80 470,80 476,80" /><polygon points="300,-49 300,-49 300,-50 300,-50" /><polygon points="470,-50 470,-50 470,-49 470,-49" /><polygon points="-500,100 -500,100 -500,80 -500,80" /><polygon points="-776,80 -1000,80 -1000,80 -776,80" /><polygon points="-552,80 -776,80 -776,80 -552,80" /><polygon points="-500,80 -500,80 -552,80 -552,80" /><polygon points="180,-1170 180,-1170 160,-1170 160,-1170" /><polygon points="140,-1170 140,-1170 140,-1340 140,-1340" /><polygon points="160,-1170 140,-1170 140,-1340 160,-1340" /><polygon points="100,-1340 160,-1340 160,-1340 140,-1340 100,-1340" /><polygon points="180,-1170 180,-1170 160,-1170 160,-1170" /><polygon points="160,-1170 160,-1170 160,-1340 160,-1340" /><polygon points="180,-1170 160,-1170 160,-1340 180,-1340" /><polygon points="100,-1340 180,-1340 180,-1340 160,-1340 100,-1340" /><polygon points="300,-1082 300,-1082 300,-1090 300,-1090 300,-1082" /><polygon points="200,-1170 200,-1170 180,-1170 180,-1170" /><polygon points="200,-1170 180,-1170 180,-1340 200,-1340" /><polygon points="180,-1170 180,-1170 180,-1340 180,-1340" /><polygon points="-180,-1230 -180,-1230 -180,-1082 -180,-1082 -180,-1230" /><polygon points="-180,-1230 -178,-1230 -178,-1260 -180,-1260" /><polygon points="298,-1052 300,-1052 300,-1082 298,-1082" /><polygon points="-960,-930 -956,-930 -956,-970 -960,-970" /><polygon points="100,-1340 200,-1340 200,-1340 180,-1340 100,-1340" /><polygon points="560,-730 520,-730 520,-728 560,-728" /><polygon points="220,-1170 220,-1170 200,-1170 200,-1170" /><polygon points="200,-1170 200,-1170 200,-1340 200,-1340" /><polygon points="220,-1170 200,-1170 200,-1340 220,-1340" /><polygon points="-200,80 -240,80 -240,80 -196,80 -180,80 -180,80" /><polygon points="-180,80 -180,80 -200,80 -200,80" /><polygon points="-200,76 -240,76 -240,80 -200,80" /><polygon points="240,-1170 240,-1170 220,-1170 220,-1170" /><polygon points="220,-1170 220,-1170 220,-1340 220,-1340" /><polygon points="240,-1170 220,-1170 220,-1340 240,-1340" /><polygon points="-610,-580 -610,-580 -640,-580 -640,-580 -610,-580" /><polygon points="-570,-580 -610,-580 -610,-578 -570,-578" /><polygon points="220,-1340 240,-1340 240,-1340 220,-1340" /><polygon points="-180,-1340 -180,-1340 44,-1340 44,-1340 -180,-1340" /><polygon points="300,-1090 300,-1090 300,-1110 300,-1110 300,-1110 300,-1090" /><polygon points="300,-1050 300,-1050 300,-1052 300,-1052 300,-1052" /><polygon points="298,-1082 298,-1082 300,-1082 300,-1082" /><polygon points="260,-1170 260,-1170 240,-1170 240,-1170" /><polygon points="240,-1170 240,-1170 240,-1340 240,-1340" /><polygon points="260,-1170 240,-1170 240,-1340 260,-1340" /><polygon points="-178,-1230 -180,-1230 -180,-1260 -178,-1260" /><polygon points="-180,-1306 -180,-1260 -180,-1230 -180,-1082 -180,-1082 -180,-1306" /><polygon points="-178,-1260 -178,-1260 -178,-1230 -178,-1230" /><polygon points="-180,-1306 -180,-1340 -180,-1340 -180,-1306 -180,-1260 -180,-1260 -180,-1260" /><polygon points="-178,-1230 -178,-1230 -180,-1230 -180,-1230" /><polygon points="-180,-1260 -180,-1260 -178,-1260 -178,-1260" /><polygon points="300,-1052 300,-1052 298,-1052 298,-1052" /><polygon points="300,-1070 300,-1052 298,-1052 298,-1082 300,-1082" /><polygon points="298,-1052 298,-1052 298,-1082 298,-1082" /><polygon points="-180,-1082 -180,-1060 -180,-1060 -180,-1082" /><polygon points="280,-1340 260,-1340 220,-1340 220,-1340 280,-1340" /><polygon points="220,-1340 260,-1340 260,-1340 240,-1340 220,-1340" /><polygon points="470,-1190 470,-1190 470,-1340 470,-1340" /><polygon points="-960,-804 -960,-580 -960,-580 -960,-722 -960,-804" /><polygon points="-960,-1028 -960,-970 -960,-930 -960,-804 -960,-804 -960,-946 -960,-1028" /><polygon points="-960,-930 -960,-930 -960,-930 -960,-928 -960,-804 -960,-804" /><polygon points="300,-1320 300,-1340 300,-1340 300,-1190 300,-1190" /><polygon points="450,-1190 300,-1190 300,-1190 300,-1190 470,-1190 470,-1190 470,-1190" /><polygon points="300,-1320 450,-1320 450,-1340 300,-1340" /><polygon points="300,-1190 450,-1190 450,-1320 300,-1320" /><polygon points="470,-1340 450,-1340 450,-1320 450,-1190 470,-1190" /><polygon points="280,-1170 280,-1170 260,-1170 260,-1170" /><polygon points="260,-1170 260,-1170 260,-1340 260,-1340" /><polygon points="280,-1170 260,-1170 260,-1340 280,-1340" /><polygon points="-956,-930 -956,-930 -960,-930 -960,-930" /><polygon points="-956,-930 -960,-930 -960,-970 -956,-970" /><polygon points="-956,-970 -956,-970 -956,-930 -956,-930" /><polygon points="-960,-970 -960,-970 -956,-970 -956,-970" /><polygon points="-50,-50 -50,-50 -30,-50 -30,-50 -30,-50 -50,-50" /><polygon points="470,-1170 470,-1190 470,-1320 470,-1340 470,-1340 470,-1170" /><polygon points="470,-720 470,-720 470,-730 470,-730 470,-730 470,-730 470,-720" /><polygon points="560,-728 520,-728 520,-730 560,-730" /><polygon points="560,-728 560,-728 520,-728 520,-728" /><polygon points="520,-728 520,-728 520,-730 520,-730" /><polygon points="560,-730 560,-730 560,-728 560,-728" /><polygon points="300,-720 300,-720 300,-690" /><polygon points="300,-1150 300,-1130 300,-1130 300,-1170 300,-1170 300,-1170" /><polygon points="470,-1320 450,-1320 300,-1320 300,-1340 444,-1340 470,-1340" /><polygon points="450,-1190 300,-1190 300,-1320 450,-1320" /><polygon points="470,-1190 450,-1190 450,-1320 470,-1320" /><polygon points="300,-1170 300,-1190 450,-1190 470,-1190 470,-1170" /><polygon points="470,-720 470,-720 444,-720 300,-720 300,-720 300,-720" /><polygon points="300,-720 300,-690 470,-690 470,-720" /><polygon points="300,-1320 300,-1190 300,-1170 280,-1170 280,-1340 300,-1340" /><polygon points="300,-1170 300,-1170 280,-1170 280,-1170" /><polygon points="280,-1170 280,-1170 280,-1340 280,-1340" /><polygon points="-50,-260 -50,-260 -90,-260" /><polygon points="-640,-880 -640,-880 -640,-880 -640,-860 -640,-860 -640,-880" /><polygon points="-540,-1050 -540,-1050 -540,-1060 -540,-1060 -540,-1060 -540,-1050" /><polygon points="-640,-1050 -540,-1050 -540,-1050 -640,-1050" /><polygon points="-540,-1050 -640,-1050 -640,-1020 -540,-1020" /><polygon points="-50,-50 -50,-50 -50,-50 -50,-260 -50,-260 -50,-260" /><polygon points="-400,-50 -360,-50 -360,-260 -400,-260" /><polygon points="-240,76 -240,76 -200,76 -200,76" /><polygon points="44,80 -16,80 -180,80 -180,80 -180,80 28,80 44,80" /><polygon points="268,80 208,80 44,80 44,80 252,80 268,80" /><polygon points="492,80 432,80 268,80 268,80 476,80 492,80" /><polygon points="492,80 610,80 610,80 476,80 432,80 432,80" /><polygon points="-200,76 -200,76 -200,80 -200,80" /><polygon points="-200,80 -240,80 -240,76 -200,76" /><polygon points="-240,80 -240,80 -240,76 -240,76" /><polygon points="470,-1170 470,-1340 470,-1340 470,-1150 470,-1150" /><polygon points="300,-1130 300,-1130 300,-1150 300,-1150" /><polygon points="300,-1150 300,-1150 300,-1170 300,-1170" /><polygon points="470,-1150 300,-1150 300,-1170 470,-1170" /><polygon points="300,-1170 300,-1170 470,-1170 470,-1170" /><polygon points="-540,-580 -540,-580 -570,-580 -570,-580 -570,-580" /><polygon points="-610,-578 -610,-578 -610,-580 -610,-580" /><polygon points="-570,-578 -610,-578 -610,-580 -570,-580" /><polygon points="-570,-578 -570,-578 -610,-578 -610,-578" /><polygon points="-570,-580 -570,-580 -570,-578 -570,-578" /><polygon points="194,-50 -30,-50 -30,-50 74,-50 194,-50" /><polygon points="418,-50 194,-50 194,-50 298,-50 418,-50" /><polygon points="470,-50 470,-50 418,-50 418,-50" /><polygon points="470,-1150 470,-1340 470,-1340 470,-1130 470,-1130" /><polygon points="470,-400 470,-400 470,-274 470,-274" /><polygon points="-960,-480 -960,-480 -960,-498 -960,-580 -960,-580 -960,-580 -960,-480" /><polygon points="300,-400 300,-400 300,-400 300,-410 300,-410 300,-410 300,-400" /><polygon points="300,-970 300,-990 300,-990 300,-990 300,-954 300,-954" /><polygon points="300,-954 300,-730 300,-730 300,-944 300,-970 300,-970" /><polygon points="300,-730 300,-730 300,-720 300,-720 300,-720 300,-720 300,-730" /><polygon points="300,-970 300,-970 300,-990 300,-990" /><polygon points="300,-1130 300,-1130 300,-1150 300,-1150" /><polygon points="300,-990 300,-990 300,-1010 300,-1010 300,-1010 300,-990" /><polygon points="300,-1150 300,-1150 470,-1150 470,-1150" /><polygon points="470,-1130 300,-1130 300,-1150 470,-1150" /><polygon points="-526,-260 -420,-260 -400,-260 -400,-260 -610,-260 -610,-260" /><polygon points="-526,-260 -610,-260 -750,-260 -750,-260 -526,-260" /><polygon points="-30,-260 -30,-260 -50,-260 -50,-260 -50,-260 -50,-260 -30,-260" /><polygon points="300,-260 300,-260 194,-260 194,-260" /><polygon points="194,-260 -30,-260 -30,-260 174,-260 194,-260" /><polygon points="120,-840 120,-810 120,-780 120,-760 120,-760 120,-880 120,-880" /><polygon points="120,-810 120,-840 120,-840 120,-810" /><polygon points="170,-760 170,-760 120,-760 120,-760" /><polygon points="170,-760 170,-760 170,-780 170,-930 170,-930" /><polygon points="170,-930 170,-930 170,-760 170,-760" /><polygon points="20,-880 0,-880 0,-880 20,-880" /><polygon points="20,-880 120,-880 120,-880 0,-880 0,-880" /><polygon points="0,-880 0,-880 0,-930 0,-930" /><polygon points="-350,-780 -350,-760 -350,-760 -350,-930 -350,-930" /><polygon points="-180,-880 -180,-880 -300,-880 -300,-880" /><polygon points="-300,-880 -300,-880 -200,-880 -180,-880 -180,-880" /><polygon points="-180,-930 -180,-930 -180,-880 -180,-880" /><polygon points="-180,-930 -180,-930 -200,-930 -350,-930 -350,-930" /><polygon points="-300,-880 -300,-880 -300,-760 -300,-760" /><polygon points="-300,-760 -300,-760 -300,-780 -300,-810 -300,-860 -300,-880 -300,-880" /><polygon points="-300,-760 -300,-760 -350,-760 -350,-760" /><polygon points="20,-390 170,-390 170,-390 0,-390 0,-390" /><polygon points="20,-390 0,-390 0,-390 20,-390" /><polygon points="170,-440 170,-440 170,-540 170,-560 170,-560" /><polygon points="170,-440 170,-560 170,-560 170,-390 170,-390" /><polygon points="120,-560 120,-560 170,-560 170,-560" /><polygon points="0,-440 0,-440 0,-390 0,-390" /><polygon points="-350,-560 -350,-560 -350,-540 -350,-440 -350,-440" /><polygon points="-200,-440 -300,-440 -300,-440 -180,-440 -180,-440" /><polygon points="-200,-440 -180,-440 -180,-440 -200,-440" /><polygon points="-300,-440 -300,-440 -300,-480 -300,-510 -300,-540 -300,-560 -300,-560" /><polygon points="-300,-560 -300,-560 -300,-440 -300,-440" /><polygon points="-350,-560 -350,-560 -300,-560 -300,-560" /><polygon points="-180,-440 -180,-440 -180,-390 -180,-390" /><polygon points="-180,-390 -180,-390 -350,-390 -350,-390" /><polygon points="-750,-480 -750,-480 -750,-260 -750,-260" /><polygon points="-960,-480 -960,-480 -750,-480 -750,-480" /><polygon points="470,-1130 470,-1340 470,-1340 470,-1314 470,-1110 470,-1110" /><polygon points="300,-1090 300,-1090 300,-1070 300,-1070 300,-1082 300,-1090" /><polygon points="300,-1110 300,-1110 300,-1130 300,-1130" /><polygon points="470,-1110 300,-1110 300,-1130 470,-1130" /><polygon points="300,-1130 300,-1130 470,-1130 470,-1130" /><polygon points="470,-1340 470,-1340 470,-1314 470,-1314" /><polygon points="300,-1090 300,-1090 300,-1110 300,-1110" /><polygon points="300,-1070 300,-1070 300,-1050 300,-1050 300,-1052 300,-1070" /><polygon points="300,-1110 300,-1110 470,-1110 470,-1110" /><polygon points="470,-1090 300,-1090 300,-1110 470,-1110" /><polygon points="-180,-950 -160,-950 -160,-950 -160,-950 -160,-950 -200,-950 -200,-950" /><polygon points="170,-930 170,-930 20,-930 20,-930 20,-930 170,-930" /><polygon points="0,-930 0,-930 20,-930 20,-930" /><polygon points="-20,-950 -20,-930 0,-930 20,-930 20,-950" /><polygon points="120,-780 120,-780 120,-810 120,-810 120,-810 120,-780" /><polygon points="120,-760 120,-760 120,-780 120,-780" /><polygon points="190,-780 170,-780 170,-760 190,-760" /><polygon points="190,-740 190,-760 170,-760 120,-760 120,-740" /><polygon points="170,-760 170,-760 120,-760 120,-760" /><polygon points="20,-880 20,-880 120,-880 120,-880 120,-880 20,-880" /><polygon points="0,-930 -20,-930 -20,-880 0,-880" /><polygon points="0,-880 0,-880 0,-930 0,-930" /><polygon points="20,-860 20,-880 0,-880 -20,-880 -20,-860" /><polygon points="120,-760 100,-760 100,-740 120,-740" /><polygon points="120,-760 120,-780 100,-780 100,-760" /><polygon points="-350,-760 -350,-760 -350,-780 -350,-780" /><polygon points="-350,-930 -350,-930 -350,-780 -350,-780 -350,-780 -350,-930" /><polygon points="-160,-950 -180,-950 -180,-930 -180,-880 -180,-860 -160,-860" /><polygon points="-180,-880 -200,-880 -200,-860 -180,-860" /><polygon points="-180,-950 -200,-950 -200,-930 -180,-930" /><polygon points="-280,-780 -300,-780 -300,-760 -300,-740 -280,-740" /><polygon points="-300,-760 -350,-760 -350,-740 -300,-740" /><polygon points="-300,-780 -300,-780 -300,-810 -300,-810 -300,-810" /><polygon points="-180,-930 -180,-930 -180,-880 -180,-880" /><polygon points="-300,-760 -300,-760 -350,-760 -350,-760" /><polygon points="-370,-740 -350,-740 -350,-760 -350,-780 -370,-780" /><polygon points="20,-390 20,-390 170,-390 170,-390 20,-390" /><polygon points="120,-540 120,-510 120,-480 120,-440 120,-440 120,-560 120,-560" /><polygon points="120,-480 120,-480 120,-480 120,-440 120,-440" /><polygon points="120,-510 120,-510 120,-480 120,-480" /><polygon points="120,-540 120,-540 120,-510 120,-510 120,-510" /><polygon points="190,-580 170,-580 170,-560 170,-540 190,-540" /><polygon points="170,-580 120,-580 120,-560 170,-560" /><polygon points="120,-560 120,-560 170,-560 170,-560" /><polygon points="100,-540 120,-540 120,-560 120,-580 100,-580" /><polygon points="120,-440 120,-440 120,-440 20,-440 20,-440 20,-440 120,-440" /><polygon points="0,-440 0,-440 20,-440 20,-440" /><polygon points="20,-460 0,-460 0,-440 20,-440" /><polygon points="0,-440 0,-460 -20,-460 -20,-390 0,-390" /><polygon points="20,-370 20,-390 0,-390 -20,-390 -20,-370" /><polygon points="-350,-440 -350,-440 -350,-390 -350,-390 -350,-390 -350,-440" /><polygon points="-180,-390 -200,-390 -200,-370 -180,-370" /><polygon points="-300,-580 -350,-580 -350,-560 -300,-560" /><polygon points="-280,-580 -300,-580 -300,-560 -300,-540 -280,-540" /><polygon points="-180,-460 -200,-460 -200,-440 -180,-440" /><polygon points="-160,-460 -180,-460 -180,-440 -180,-390 -180,-370 -160,-370" /><polygon points="-180,-460 -160,-460 -160,-460 -160,-460 -160,-460 -200,-460 -200,-460" /><polygon points="-300,-440 -300,-440 -300,-480 -300,-480 -300,-480" /><polygon points="-300,-510 -300,-510 -300,-510 -300,-540 -300,-540" /><polygon points="-300,-480 -300,-480 -300,-510 -300,-510" /><polygon points="-300,-440 -300,-440 -200,-440 -200,-440" /><polygon points="-350,-560 -350,-560 -300,-560 -300,-560" /><polygon points="-180,-440 -180,-440 -180,-390 -180,-390" /><polygon points="-200,-390 -180,-390 -180,-390 -350,-390 -350,-390" /><polygon points="-370,-540 -350,-540 -350,-560 -350,-580 -370,-580" /><polygon points="-360,-50 -400,-50 -400,-50 -360,-50" /><polygon points="-90,-50 -150,-50 -150,-50 -90,-50" /><polygon points="470,-1314 470,-1340 470,-1340 470,-1294 470,-1294" /><polygon points="470,-1314 470,-1294 470,-1090 470,-1090 470,-1110 470,-1314" /><polygon points="300,-1070 300,-1070 300,-1090 300,-1090" /><polygon points="300,-1090 300,-1090 470,-1090 470,-1090" /><polygon points="470,-1070 300,-1070 300,-1090 470,-1090" /><polygon points="-360,-260 -328,-260 -386,-260 -400,-260 -400,-260 -400,-260" /><polygon points="-90,-260 -50,-260 -50,-260 -150,-260 -150,-260" /><polygon points="-90,-50 -50,-50 -50,-260 -90,-260" /><polygon points="-360,-260 -360,-50 -300,-50 -300,-260" /><polygon points="470,-1294 470,-1340 470,-1340 470,-1274 470,-1274" /><polygon points="470,-1294 470,-1274 470,-1070 470,-1070 470,-1090 470,-1294" /><polygon points="470,-690 470,-610 470,-690" /><polygon points="300,-440 300,-520 300,-440" /><polygon points="300,-690 300,-720 300,-720 300,-664 300,-610" /><polygon points="300,-1050 300,-1050 300,-1070 300,-1070" /><polygon points="300,-1070 300,-1070 470,-1070 470,-1070" /><polygon points="470,-1050 300,-1050 300,-1070 470,-1070" /><polygon points="300,-690 300,-610 470,-610 470,-690" /><polygon points="300,-440 300,-410 470,-410 470,-440" /><polygon points="470,-1274 470,-1254 470,-1050 470,-1050 470,-1070 470,-1274" /><polygon points="470,-1274 470,-1340 470,-1340 470,-1254 470,-1254" /><polygon points="300,-1030 300,-1030 300,-1050 300,-1050" /><polygon points="300,-1050 300,-1050 470,-1050 470,-1050" /><polygon points="470,-1030 300,-1030 300,-1050 470,-1050" /><polygon points="120,-840 120,-840 120,-880 120,-880 120,-840" /><polygon points="120,-840 118,-840 118,-810 120,-810" /><polygon points="-300,-860 -300,-860 -300,-860 -300,-880 -300,-880 -300,-860" /><polygon points="-300,-840 -300,-840 -300,-860 -300,-860" /><polygon points="-300,-840 -300,-860 -300,-860 -300,-810 -300,-810" /><polygon points="-300,-810 -298,-810 -298,-840 -300,-840" /><polygon points="120,-510 118,-510 118,-480 120,-480" /><polygon points="-300,-480 -298,-480 -298,-510 -300,-510" /><polygon points="470,-1254 470,-1234 470,-1030 470,-1030 470,-1050 470,-1254" /><polygon points="470,-1254 470,-1340 470,-1340 470,-1234 470,-1234" /><polygon points="300,-1010 300,-1010 300,-1030 300,-1030" /><polygon points="470,-1010 300,-1010 300,-1030 470,-1030" /><polygon points="300,-1030 300,-1030 470,-1030 470,-1030" /><polygon points="-150,-50 -90,-50 -90,-260 -150,-260" /><polygon points="-300,-50 -300,-50 -360,-50 -360,-50" /><polygon points="-50,-50 -50,-50 -90,-50 -90,-50" /><polygon points="470,-50 470,-50 418,-50 418,-50" /><polygon points="74,-50 -30,-50 -50,-50 -90,-50 -150,-50 -150,-50 -140,-50 74,-50" /><polygon points="298,-50 194,-50 74,-50 74,-50 84,-50 298,-50" /><polygon points="470,-1234 470,-1340 470,-1340 470,-1214 470,-1214" /><polygon points="470,-1234 470,-1214 470,-1010 470,-1010 470,-1030 470,-1234" /><polygon points="470,-708 470,-720 470,-720 470,-690 470,-690" /><polygon points="470,-484 470,-440 470,-410 470,-400 470,-260 470,-260 470,-318 470,-484" /><polygon points="470,-708 470,-690 470,-610 470,-520 470,-484 470,-484 470,-542 470,-708" /><polygon points="470,-260 470,-400 470,-400 470,-274 470,-260" /><polygon points="470,-440 470,-440 470,-410 470,-410" /><polygon points="470,-484 470,-520 470,-440 470,-440" /><polygon points="470,-260 470,-260 470,-50 470,-50 470,-50 470,-60 470,-94 470,-260" /><polygon points="470,-730 470,-730 470,-730 610,-730 610,-730 560,-730 520,-730 470,-730" /><polygon points="300,-260 300,-260 300,-400 300,-400 300,-318 300,-260" /><polygon points="300,-440 300,-440 300,-410 300,-410 300,-440" /><polygon points="300,-954 300,-888 300,-730 300,-730 300,-954" /><polygon points="300,-954 300,-990 300,-990 300,-888 300,-888" /><polygon points="300,-990 300,-990 300,-1010 300,-1010" /><polygon points="300,-1010 300,-1010 470,-1010 470,-1010" /><polygon points="300,-990 300,-1010 470,-1010 470,-990" /><polygon points="470,-610 300,-610 300,-520 470,-520" /><polygon points="300,-520 300,-440 470,-440 470,-520" /><polygon points="-610,-260 -610,-260 -750,-260 -750,-260 -610,-260" /><polygon points="-328,-260 -360,-260 -300,-260 -300,-260" /><polygon points="-328,-260 -300,-260 -300,-260 -310,-260 -386,-260 -386,-260" /><polygon points="194,-260 74,-260 -30,-260 -30,-260 194,-260" /><polygon points="194,-260 300,-260 300,-260 84,-260 74,-260 74,-260" /><polygon points="-640,-910 -640,-880 -640,-880" /><polygon points="-540,-1020 -540,-970 -540,-1020" /><polygon points="-640,-910 -640,-880 -540,-880 -540,-910" /><polygon points="-540,-1020 -640,-1020 -640,-970 -540,-970" /><polygon points="-300,-260 -300,-260 -300,-50 -300,-50 -300,-50 -300,-260" /><polygon points="-150,-260 -150,-260 -150,-50 -150,-50 -150,-50 -150,-260" /><polygon points="-310,-50 -300,-50 -300,-50 -360,-50 -400,-50 -400,-50" /><polygon points="-420,-50 -420,-50 -512,-50 -512,-50" /><polygon points="300,-50 470,-50 470,-50 418,-50 298,-50 298,-50" /><polygon points="470,-1214 470,-1178 470,-990 470,-990 470,-1010 470,-1214" /><polygon points="470,-1214 470,-1340 470,-1340 470,-1178 470,-1178" /><polygon points="470,-730 470,-730 470,-720 470,-708 470,-708" /><polygon points="-960,-274 -960,-260 -960,-60 -960,-50 -960,-50 -960,-274" /><polygon points="-960,-498 -960,-480 -960,-470 -960,-274 -960,-274 -960,-498" /><polygon points="-960,-722 -960,-580 -960,-498 -960,-498 -960,-722" /><polygon points="-960,-946 -960,-804 -960,-722 -960,-722 -960,-946" /><polygon points="-960,-1060 -960,-1060 -960,-1028 -960,-1028" /><polygon points="300,-664 300,-542 300,-440 300,-440 300,-520 300,-610 300,-664" /><polygon points="300,-888 300,-766 300,-664 300,-664 300,-720 300,-730 300,-888" /><polygon points="460,-990 310,-990 300,-990 300,-990 470,-990 470,-990" /><polygon points="300,-888 300,-990 310,-990 310,-766 300,-766" /><polygon points="310,-766 310,-542 300,-542 300,-664 300,-766" /><polygon points="310,-542 310,-318 300,-318 300,-400 300,-410 300,-440 300,-542" /><polygon points="310,-318 310,-260 300,-260 300,-318" /><polygon points="310,-990 460,-990 460,-766 310,-766" /><polygon points="460,-766 460,-542 310,-542 310,-766" /><polygon points="460,-542 460,-318 310,-318 310,-542" /><polygon points="460,-318 460,-94 310,-94 310,-250 310,-260 310,-318" /><polygon points="460,-94 460,-60 310,-60 310,-94" /><polygon points="460,-990 470,-990 470,-954 470,-766 460,-766" /><polygon points="470,-766 470,-730 470,-708 470,-542 460,-542 460,-766" /><polygon points="470,-542 470,-484 470,-318 460,-318 460,-542" /><polygon points="470,-318 470,-260 470,-94 460,-94 460,-318" /><polygon points="470,-94 470,-60 460,-60 460,-94" /><polygon points="310,-250 310,-94 310,-60 300,-60 300,-250" /><polygon points="310,-60 460,-60 470,-60 470,-50 300,-50 300,-60" /><polygon points="310,-260 310,-250 300,-250 300,-260" /><polygon points="-386,-260 -536,-260 -610,-260 -610,-260 -400,-260 -386,-260" /><polygon points="74,-260 -140,-260 -150,-260 -150,-260 -50,-260 -30,-260 74,-260" /><polygon points="120,-810 120,-840 120,-880 120,-880 120,-780 120,-780" /><polygon points="118,-840 118,-840 120,-840 120,-840" /><polygon points="120,-780 120,-780 120,-780 120,-780 100,-780 100,-780 120,-780" /><polygon points="120,-810 118,-810 118,-840 120,-840" /><polygon points="120,-810 120,-810 118,-810 118,-810" /><polygon points="118,-810 118,-810 118,-840 118,-840" /><polygon points="-298,-810 -298,-810 -300,-810 -300,-810" /><polygon points="-298,-810 -300,-810 -300,-840 -298,-840" /><polygon points="-300,-840 -300,-840 -298,-840 -298,-840" /><polygon points="-298,-840 -298,-840 -298,-810 -298,-810" /><polygon points="120,-480 120,-510 120,-540 120,-540 120,-440 120,-440" /><polygon points="120,-480 120,-480 118,-480 118,-480" /><polygon points="120,-480 118,-480 118,-510 120,-510" /><polygon points="118,-510 118,-510 120,-510 120,-510" /><polygon points="118,-480 118,-480 118,-510 118,-510" /><polygon points="-300,-510 -300,-480 -300,-440 -300,-440 -300,-540 -300,-540" /><polygon points="-300,-510 -300,-510 -298,-510 -298,-510" /><polygon points="-300,-540 -300,-540 -300,-540 -300,-540 -280,-540 -280,-540 -300,-540" /><polygon points="-298,-480 -300,-480 -300,-510 -298,-510" /><polygon points="-298,-480 -298,-480 -300,-480 -300,-480" /><polygon points="-298,-510 -298,-510 -298,-480 -298,-480" /><polygon points="-950,-470 -760,-470 -760,-260 -950,-260" /><polygon points="-750,-260 -760,-260 -760,-470 -750,-470" /><polygon points="-760,-470 -950,-470 -960,-470 -960,-480 -750,-480 -750,-470" /><polygon points="-960,-274 -960,-470 -950,-470 -950,-260 -960,-260" /><polygon points="-750,-260 -750,-470 -750,-480 -750,-480 -750,-260" /><polygon points="-750,-480 -960,-480 -960,-480 -750,-480" /><polygon points="-140,-250 -140,-60 -140,-50 -150,-50 -150,-260 -140,-260" /><polygon points="84,-250 -140,-250 -140,-260 74,-260 84,-260" /><polygon points="300,-250 84,-250 84,-260 300,-260" /><polygon points="84,-50 74,-50 -140,-50 -140,-60 84,-60" /><polygon points="300,-50 298,-50 84,-50 84,-60 300,-60" /><polygon points="84,-60 -140,-60 -140,-250 84,-250" /><polygon points="300,-60 84,-60 84,-250 300,-250" /><polygon points="-536,-250 -760,-250 -760,-260 -750,-260 -610,-260 -536,-260" /><polygon points="-386,-260 -310,-260 -310,-250 -536,-250 -536,-260" /><polygon points="-536,-60 -736,-60 -760,-60 -760,-250 -536,-250" /><polygon points="-310,-250 -310,-60 -512,-60 -536,-60 -536,-250" /><polygon points="-736,-50 -960,-50 -960,-60 -950,-60 -760,-60 -736,-60" /><polygon points="-512,-50 -736,-50 -736,-60 -536,-60 -512,-60" /><polygon points="-310,-60 -310,-50 -400,-50 -420,-50 -512,-50 -512,-60" /><polygon points="-300,-50 -310,-50 -310,-60 -310,-250 -310,-260 -300,-260" /><polygon points="-760,-260 -760,-250 -760,-60 -950,-60 -950,-260" /><polygon points="-950,-260 -950,-60 -960,-60 -960,-260" /><polygon points="-420,80 -420,80 -420,-50 -420,-50 -420,-50 -420,80" /><polygon points="-16,80 -196,80 -240,80 -240,80 -200,80 -180,80 -16,80" /><polygon points="208,80 28,80 -16,80 -16,80 44,80 208,80" /><polygon points="432,80 252,80 208,80 208,80 268,80 432,80" /><polygon points="610,80 610,80 476,80 476,80" /><polygon points="-540,-580 -540,-580 -570,-580 -610,-580 -640,-580 -640,-580" /><polygon points="-640,-804 -640,-580 -640,-580 -640,-580 -640,-804" /><polygon points="-640,-860 -640,-880 -640,-960 -640,-970 -640,-1020 -640,-1020 -640,-836 -640,-804 -640,-804" /><polygon points="-640,-970 -640,-1020 -640,-1020" /><polygon points="-640,-880 -640,-880 -640,-910 -640,-960" /><polygon points="-540,-960 -540,-970 -640,-970 -640,-960" /><polygon points="-540,-804 -540,-580 -540,-580 -540,-612 -540,-804" /><polygon points="-540,-1028 -540,-1020 -540,-970 -540,-960 -540,-910 -540,-880 -540,-860 -540,-804 -540,-804 -540,-836 -540,-1028" /><polygon points="-540,-910 -540,-910 -540,-880 -540,-880" /><polygon points="-540,-960 -540,-910 -540,-910" /><polygon points="-540,-1028 -540,-1050 -540,-1050 -540,-1020 -540,-1020" /><polygon points="-540,-960 -640,-960 -640,-910 -540,-910" /><polygon points="-540,-880 -540,-880 -540,-880 -540,-860 -540,-860" /><polygon points="-540,-860 -540,-860 -540,-804 -540,-804" /><polygon points="630,-1340 630,-1340 630,-1244 630,-1244" /><polygon points="630,-124 630,100 630,100 630,-124" /><polygon points="630,-348 630,-124 630,-124 630,-348" /><polygon points="630,-572 630,-348 630,-348 630,-572" /><polygon points="630,-796 630,-572 630,-572 630,-796" /><polygon points="630,-1020 630,-796 630,-796 630,-1020" /><polygon points="630,-1244 630,-1020 630,-1020 630,-1244" /><polygon points="-1000,-144 -1000,80 -1000,80 -1000,-144" /><polygon points="-1000,-368 -1000,-144 -1000,-144 -1000,-368" /><polygon points="-1000,-592 -1000,-368 -1000,-368 -1000,-592" /><polygon points="-1000,-816 -1000,-592 -1000,-592 -1000,-816" /><polygon points="-1000,-1040 -1000,-816 -1000,-816 -1000,-1040" /><polygon points="-1000,-1264 -1000,-1040 -1000,-1040 -1000,-1264" /><polygon points="-1000,-1340 -1000,-1340 -1000,-1264 -1000,-1264" /><polygon points="500,-1360 500,-1360 472,-1360 472,-1360" /><polygon points="24,-1360 -200,-1360 -200,-1360 24,-1360" /><polygon points="248,-1360 24,-1360 24,-1360 248,-1360" /><polygon points="472,-1360 248,-1360 248,-1360 472,-1360" /><polygon points="-276,100 -500,100 -500,100 -276,100" /><polygon points="-52,100 -276,100 -276,100 -52,100" /><polygon points="172,100 -52,100 -52,100 172,100" /><polygon points="396,100 172,100 172,100 396,100" /><polygon points="630,100 630,100 396,100 396,100" /><polygon points="630,-1340 500,-1340 500,-1340 630,-1340" /><polygon points="44,-1340 -180,-1340 -180,-1340 44,-1340" /><polygon points="268,-1340 220,-1340 100,-1340 44,-1340 44,-1340 268,-1340" /><polygon points="220,-1340 268,-1340 444,-1340 444,-1340 300,-1340 280,-1340 220,-1340" /><polygon points="444,-1340 470,-1340 470,-1340 470,-1340 470,-1340 470,-1340 470,-1340 470,-1340 470,-1340 470,-1340 470,-1340 470,-1340 470,-1340 444,-1340" /><polygon points="100,-1340 220,-1340 220,-1340 220,-1340 220,-1340 220,-1340 220,-1340 200,-1340 100,-1340" /><polygon points="44,-1340 100,-1340 100,-1340 100,-1340 100,-1340 100,-1340 100,-1340 44,-1340" /><polygon points="-288,-1340 -200,-1340 -200,-1340 -328,-1340 -328,-1340" /><polygon points="-736,-1340 -776,-1340 -960,-1340 -960,-1340 -776,-1340 -736,-1340" /><polygon points="-512,-1340 -552,-1340 -736,-1340 -736,-1340 -552,-1340 -512,-1340" /><polygon points="-288,-1340 -328,-1340 -512,-1340 -512,-1340 -328,-1340 -288,-1340" /><polygon points="500,-1340 500,-1360 500,-1360 500,-1340" /><polygon points="-1000,-1340 -1000,-1350 -960,-1350 -960,-1340" /><polygon points="610,-144 610,80 610,80 610,80 610,80 610,-144" /><polygon points="610,-368 610,-144 610,-144 610,-368" /><polygon points="610,-592 610,-368 610,-368 610,-592" /><polygon points="610,-730 610,-730 610,-592 610,-592" /><polygon points="-420,-50 -420,-50 -512,-50 -512,-50" /><polygon points="-736,-50 -960,-50 -960,-50 -736,-50" /><polygon points="-512,-50 -736,-50 -736,-50 -512,-50" /><polygon points="470,-1340 470,-1340 470,-1178 470,-1178" /><polygon points="470,-954 470,-730 470,-730 470,-766 470,-954" /><polygon points="470,-1178 470,-954 470,-954 470,-990 470,-1178" /><polygon points="470,-730 470,-730 610,-730 610,-730" /><polygon points="-960,-274 -960,-50 -960,-50 -960,-274" /><polygon points="-960,-498 -960,-274 -960,-274 -960,-498" /><polygon points="-960,-722 -960,-498 -960,-498 -960,-722" /><polygon points="-960,-946 -960,-722 -960,-722 -960,-946" /><polygon points="-960,-1060 -960,-1060 -960,-1028 -960,-946 -960,-946" /><polygon points="-180,-1306 -180,-1082 -180,-1082 -180,-1284 -180,-1306" /><polygon points="-180,-1340 -180,-1340 -180,-1306 -180,-1306" /><polygon points="190,-740 190,-740 190,-740 190,-780 190,-780 190,-760 190,-740" /><polygon points="-736,-1060 -960,-1060 -960,-1060 -736,-1060" /><polygon points="-512,-1060 -540,-1060 -640,-1060 -736,-1060 -736,-1060 -512,-1060" /><polygon points="-288,-1060 -316,-1060 -512,-1060 -512,-1060 -288,-1060" /><polygon points="-288,-1060 -180,-1060 -180,-1060 -180,-1060 -316,-1060 -316,-1060" /><polygon points="-640,-1060 -640,-1060 -640,-1060 -736,-1060 -736,-1060" /><polygon points="-180,-1082 -180,-1060 -180,-1060 -180,-1082" /><polygon points="-370,-580 -370,-580 -370,-580 -370,-576 -370,-540 -370,-540 -370,-580" /><polygon points="-20,-370 -20,-370 -20,-370 -20,-370 20,-370 20,-370 -20,-370" /><polygon points="100,-580 100,-580 120,-580 170,-580 190,-580 190,-580" /><polygon points="-370,-580 -370,-580 -350,-580 -300,-580 -280,-580 -280,-580" /><polygon points="-160,-860 -160,-950 -160,-950 -160,-860" /><polygon points="100,-740 190,-740 190,-740 120,-740 100,-740" /><polygon points="-20,-950 -20,-860 -20,-860 -20,-880 -20,-930 -20,-950" /><polygon points="-20,-860 -20,-860 -20,-860 -20,-860 20,-860 20,-860 -20,-860" /><polygon points="190,-580 190,-610 100,-610 100,-580" /><polygon points="-280,-740 -280,-740 -300,-740 -350,-740 -370,-740 -370,-740" /><polygon points="-280,-740 -280,-740 -280,-740 -280,-780 -280,-780 -280,-740" /><polygon points="-280,-580 -280,-610 -370,-610 -370,-580" /><polygon points="-160,-370 -160,-460 -160,-460 -160,-370" /><polygon points="-20,-460 -20,-370 -20,-370 -20,-390 -20,-460" /><polygon points="100,-580 100,-580 100,-580 100,-576 100,-540 100,-540 100,-580" /><polygon points="-20,-460 -50,-460 -50,-370 -20,-370" /><polygon points="-540,-580 -540,-580 -640,-580 -640,-580" /><polygon points="-640,-804 -640,-612 -640,-580 -640,-580 -640,-804" /><polygon points="-640,-1060 -640,-1020 -640,-1020 -640,-1020 -640,-1050 -640,-1060" /><polygon points="-540,-1060 -540,-1060 -540,-1050 -540,-1028 -540,-1028" /><polygon points="-640,-1020 -640,-1060 -540,-1060 -540,-1028 -540,-836 -640,-836" /><polygon points="-540,-836 -540,-804 -540,-612 -640,-612 -640,-804 -640,-836" /><polygon points="-540,-612 -540,-580 -640,-580 -640,-612" /><polygon points="610,80 610,80 476,80 476,80" /><polygon points="-196,80 -420,80 -420,80 -240,80 -196,80" /><polygon points="28,80 -196,80 -196,80 -16,80 28,80" /><polygon points="252,80 28,80 28,80 208,80 252,80" /><polygon points="476,80 252,80 252,80 432,80 476,80" /><polygon points="-500,80 -500,100 -500,100 -500,80" /><polygon points="-500,80 -500,80 -552,80 -552,80" /><polygon points="-776,80 -1000,80 -1000,80 -776,80" /><polygon points="-552,80 -776,80 -776,80 -552,80" /><polygon points="170,-930 170,-930 120,-930 20,-930 20,-930" /><polygon points="20,-930 20,-930 20,-930 20,-950 20,-950 20,-930" /><polygon points="120,-780 120,-880 120,-880 120,-780" /><polygon points="170,-780 170,-930 170,-930 170,-780" /><polygon points="-350,-930 -350,-930 -350,-880 -350,-780 -350,-780" /><polygon points="-200,-880 -300,-880 -300,-880 -200,-880" /><polygon points="-300,-880 -200,-880 -200,-880 -300,-880" /><polygon points="-200,-930 -350,-930 -350,-930 -200,-930" /><polygon points="-200,-930 -200,-930 -300,-930 -350,-930 -350,-930" /><polygon points="-200,-880 -200,-880 -200,-880 -200,-860 -200,-860 -200,-880" /><polygon points="-300,-780 -300,-860 -300,-860 -300,-840 -300,-810 -300,-780" /><polygon points="-350,-780 -350,-780 -350,-780 -370,-780 -370,-780 -350,-780" /><polygon points="120,-440 120,-540 120,-540 120,-440" /><polygon points="170,-390 170,-440 170,-440 170,-440 170,-390" /><polygon points="170,-440 170,-540 170,-540 170,-440" /><polygon points="170,-540 170,-540 170,-540 190,-540 190,-540 170,-540" /><polygon points="20,-440 120,-440 120,-440 20,-440" /><polygon points="20,-440 20,-440 20,-440 20,-460 20,-460 20,-440" /><polygon points="-350,-440 -350,-540 -350,-540 -350,-440 -350,-390 -350,-390" /><polygon points="-350,-540 -350,-440 -350,-440 -350,-540" /><polygon points="-200,-440 -300,-440 -300,-440 -300,-440 -200,-440" /><polygon points="-300,-540 -300,-440 -300,-440 -300,-540" /><polygon points="-350,-390 -200,-390 -200,-390 -350,-390" /><polygon points="-200,-390 -200,-390 -200,-390 -200,-370 -200,-370 -200,-390" /><polygon points="190,-710 190,-740 190,-740" /><polygon points="-370,-610 -370,-580 -370,-580" /><polygon points="-370,-610 -370,-660 -370,-740 -370,-740 -370,-580 -370,-580" /><polygon points="-130,-950 -130,-950 -160,-950 -160,-950" /><polygon points="-130,-950 -90,-950 -115,-950 -130,-950" /><polygon points="-50,-950 -20,-950 -20,-950" /><polygon points="-50,-370 -90,-370 -50,-370" /><polygon points="-50,-370 -50,-370 -20,-370 -20,-370" /><polygon points="-130,-370 -160,-370 -160,-370" /><polygon points="-130,-860 -160,-860 -160,-860" /><polygon points="-50,-860 -50,-860 -20,-860 -20,-860" /><polygon points="-50,-860 -90,-860 -50,-860" /><polygon points="-130,-950 -160,-950 -160,-860 -130,-860" /><polygon points="-130,-950 -130,-860 -90,-860 -90,-950" /><polygon points="-50,-860 -20,-860 -20,-950 -50,-950" /><polygon points="-50,-950 -90,-950 -90,-860 -50,-860" /><polygon points="100,-610 100,-660 100,-740 100,-740 100,-580 100,-580" /><polygon points="100,-610 100,-580 100,-580" /><polygon points="190,-710 190,-740 100,-740 100,-710" /><polygon points="-280,-710 -280,-740 -280,-740" /><polygon points="-280,-710 -280,-740 -370,-740 -370,-710" /><polygon points="-50,-460 -20,-460 -20,-460" /><polygon points="-130,-460 -90,-460 -115,-460 -130,-460" /><polygon points="-130,-460 -130,-460 -160,-460 -160,-460" /><polygon points="-130,-460 -160,-460 -160,-370 -130,-370" /><polygon points="-50,-460 -90,-460 -90,-370 -50,-370" /><polygon points="190,-610 190,-610 190,-580 190,-580" /><polygon points="190,-660 190,-610 190,-610" /><polygon points="190,-740 190,-740 190,-710 190,-660" /><polygon points="-370,-660 -370,-710 -370,-740 -370,-740" /><polygon points="-370,-660 -370,-710 -370,-710" /><polygon points="-370,-710 -370,-710 -370,-740 -370,-740" /><polygon points="-160,-950 -130,-950 -115,-950 -108.1818,-950 -77.5,-950 -160,-950" /><polygon points="-115,-950 -90,-950 -108.1818,-950" /><polygon points="170,-880 170,-930 170,-930 170,-780 170,-780" /><polygon points="170,-780 170,-780 170,-760 170,-760" /><polygon points="190,-780 190,-780 170,-780 170,-780 170,-780 170,-780 190,-780" /><polygon points="170,-780 170,-760 120,-760 120,-780 120,-880 170,-880" /><polygon points="20,-880 20,-880 0,-880 0,-880" /><polygon points="120,-880 120,-880 20,-880 20,-880" /><polygon points="20,-930 120,-930 120,-880 20,-880 0,-880 0,-930" /><polygon points="100,-710 100,-710 100,-740 100,-740" /><polygon points="100,-660 100,-710 100,-710" /><polygon points="100,-660 100,-710 100,-740 100,-740" /><polygon points="100,-660 190,-660 190,-710 100,-710" /><polygon points="190,-660 100,-660 100,-610 190,-610" /><polygon points="-200,-930 -200,-930 -180,-930 -180,-930" /><polygon points="-200,-930 -180,-930 -180,-880 -200,-880 -300,-880 -300,-930" /><polygon points="-300,-880 -300,-880 -300,-860 -300,-780 -300,-780" /><polygon points="-300,-780 -300,-780 -300,-760 -300,-760" /><polygon points="-280,-780 -280,-780 -300,-780 -300,-780 -300,-780 -300,-780 -300,-780 -280,-780" /><polygon points="-350,-780 -350,-880 -300,-880 -300,-780 -300,-760 -350,-760" /><polygon points="-280,-610 -280,-610 -280,-580 -280,-580" /><polygon points="-280,-660 -280,-610 -280,-610" /><polygon points="-280,-740 -280,-740 -280,-710 -280,-660" /><polygon points="-280,-740 -280,-660 -280,-610 -280,-580 -280,-580 -280,-740" /><polygon points="-370,-660 -280,-660 -280,-710 -370,-710" /><polygon points="-280,-660 -370,-660 -370,-610 -280,-610" /><polygon points="120,-390 170,-390 170,-390 20,-390 20,-390" /><polygon points="20,-390 20,-390 0,-390 0,-390" /><polygon points="120,-540 120,-540 120,-560 120,-560" /><polygon points="170,-440 170,-540 170,-540 170,-440 170,-390 170,-390" /><polygon points="170,-540 170,-440 120,-440 120,-540 120,-560 170,-560" /><polygon points="20,-440 120,-440 120,-390 20,-390 0,-390 0,-440" /><polygon points="-115,-460 -90,-460 -108.1818,-460" /><polygon points="-160,-460 -130,-460 -115,-460 -108.1818,-460 -77.5,-460 -160,-460" /><polygon points="-90,-460 -130,-460 -130,-370 -90,-370" /><polygon points="-350,-540 -350,-540 -350,-560 -350,-560" /><polygon points="-200,-440 -200,-440 -180,-440 -180,-440" /><polygon points="-300,-440 -300,-440 -200,-440 -200,-440" /><polygon points="-350,-540 -350,-560 -300,-560 -300,-540 -300,-440 -350,-440" /><polygon points="-300,-390 -200,-390 -200,-390 -350,-390 -350,-390" /><polygon points="-200,-440 -180,-440 -180,-390 -200,-390 -300,-390 -300,-440" /><polygon points="120,-930 120,-930 170,-930 170,-930" /><polygon points="120,-880 120,-880 120,-930 120,-930" /><polygon points="170,-930 170,-930 170,-880 170,-880" /><polygon points="170,-880 120,-880 120,-930 170,-930" /><polygon points="170,-880 170,-880 120,-880 120,-880" /><polygon points="-350,-880 -350,-880 -350,-930 -350,-930" /><polygon points="-300,-880 -300,-880 -350,-880 -350,-880" /><polygon points="-350,-930 -350,-930 -300,-930 -300,-930" /><polygon points="-300,-880 -350,-880 -350,-930 -300,-930" /><polygon points="-300,-930 -300,-930 -300,-880 -300,-880" /><polygon points="170,-390 170,-390 120,-390 120,-390" /><polygon points="120,-390 120,-390 120,-440 120,-440" /><polygon points="170,-440 170,-440 170,-390 170,-390" /><polygon points="120,-440 120,-440 170,-440 170,-440" /><polygon points="170,-390 120,-390 120,-440 170,-440" /><polygon points="-350,-390 -350,-390 -350,-440 -350,-440" /><polygon points="-350,-440 -350,-440 -300,-440 -300,-440" /><polygon points="-300,-390 -300,-390 -350,-390 -350,-390" /><polygon points="-300,-390 -350,-390 -350,-440 -300,-440" /><polygon points="-300,-440 -300,-440 -300,-390 -300,-390" /><polygon points="-20,-370 -20,-370 -50,-370 -90,-370" /><polygon points="-20,-860 -20,-860 -50,-860 -90,-860" /><polygon points="630,-1340 630,-1340 630,-1244 630,-1244" /><polygon points="630,-124 630,100 630,100 630,-58 630,-124" /><polygon points="630,-348 630,-124 630,-124 630,-282 630,-348" /><polygon points="630,-572 630,-348 630,-348 630,-506 630,-572" /><polygon points="630,-796 630,-572 630,-572 630,-730 630,-796" /><polygon points="630,-1020 630,-796 630,-796 630,-892 630,-1020" /><polygon points="630,-1244 630,-1020 630,-1020 630,-1116 630,-1244" /><polygon points="-1000,-144 -1000,80 -1000,80 -1000,-144" /><polygon points="-1000,-368 -1000,-144 -1000,-144 -1000,-368" /><polygon points="-1000,-592 -1000,-368 -1000,-368 -1000,-592" /><polygon points="-1000,-816 -1000,-592 -1000,-592 -1000,-816" /><polygon points="-1000,-1040 -1000,-816 -1000,-816 -1000,-1040" /><polygon points="-1000,-1264 -1000,-1040 -1000,-1040 -1000,-1264" /><polygon points="-1000,-1340 -1000,-1340 -1000,-1264 -1000,-1264" /><polygon points="500,-1360 500,-1360 472,-1360 472,-1360" /><polygon points="24,-1360 -200,-1360 -200,-1360 24,-1360" /><polygon points="248,-1360 24,-1360 24,-1360 248,-1360" /><polygon points="472,-1360 248,-1360 248,-1360 472,-1360" /><polygon points="630,100 630,100 396,100 396,100" /><polygon points="-276,100 -500,100 -500,100 -276,100" /><polygon points="-52,100 -276,100 -276,100 -52,100" /><polygon points="172,100 -52,100 -52,100 172,100" /><polygon points="396,100 172,100 172,100 396,100" /><polygon points="-200,-390 -180,-390 -180,-440 -200,-440" /><polygon points="-300,-520 -280,-520 -280,-540 -300,-540" /><polygon points="-350,-540 -350,-520 -300,-520 -300,-540 -300,-560 -350,-560" /><polygon points="-200,-390 -200,-440 -200,-460 -200,-470 -220,-470 -220,-370 -200,-370" /><polygon points="-370,-540 -380,-540 -380,-520 -350,-520 -350,-540" /><polygon points="-370,-580 -370,-740 -370,-780 -370,-800 -380,-800 -380,-744 -380,-576 -370,-576" /><polygon points="-380,-576 -380,-540 -370,-540 -370,-576" /><polygon points="-350,-800 -370,-800 -370,-780 -350,-780" /><polygon points="-300,-780 -300,-800 -350,-800 -350,-780 -350,-760 -300,-760" /><polygon points="-280,-800 -300,-800 -300,-780 -280,-780" /><polygon points="-270,-744 -270,-800 -280,-800 -280,-780 -280,-740 -280,-580 -280,-576 -270,-576" /><polygon points="-280,-576 -280,-540 -280,-520 -270,-520 -270,-576" /><polygon points="-220,-880 -220,-860 -200,-860 -200,-880" /><polygon points="-200,-930 -220,-930 -220,-880 -200,-880 -180,-880 -180,-930" /><polygon points="-200,-950 -200,-960 -220,-960 -220,-930 -200,-930" /><polygon points="4,-360 20,-360 20,-370 -20,-370 -160,-370 -200,-370 -220,-370 -220,-360" /><polygon points="0,-440 0,-390 20,-390 20,-440" /><polygon points="-160,-460 -77.5,-460 -20,-460 20,-460 20,-470 4,-470 -200,-470 -200,-460" /><polygon points="170,-520 190,-520 190,-540 170,-540" /><polygon points="100,-540 90,-540 90,-520 120,-520 120,-540" /><polygon points="60,-470 20,-470 20,-460 20,-440 20,-390 20,-370 20,-360 60,-360" /><polygon points="120,-540 120,-520 170,-520 170,-540 170,-560 120,-560" /><polygon points="-160,-950 -77.5,-950 -20,-950 20,-950 20,-960 4,-960 -200,-960 -200,-950" /><polygon points="0,-880 20,-880 20,-930 0,-930" /><polygon points="4,-850 20,-850 20,-860 -20,-860 -160,-860 -200,-860 -220,-860 -220,-850" /><polygon points="170,-780 170,-800 120,-800 120,-780 120,-760 170,-760" /><polygon points="60,-850 60,-960 20,-960 20,-950 20,-930 20,-880 20,-860 20,-850" /><polygon points="120,-800 100,-800 100,-780 120,-780" /><polygon points="100,-580 100,-740 100,-780 100,-800 90,-800 90,-744 90,-576 100,-576" /><polygon points="90,-576 90,-540 100,-540 100,-576" /><polygon points="190,-800 170,-800 170,-780 190,-780" /><polygon points="200,-744 200,-800 190,-800 190,-780 190,-580 190,-576 200,-576" /><polygon points="190,-576 190,-540 190,-520 200,-520 200,-576" /><polygon points="-776,80 -1000,80 -1000,80 -776,80" /><polygon points="-552,80 -776,80 -776,80 -552,80" /><polygon points="610,80 610,80 476,80 476,80" /><polygon points="470,-1340 470,-1340 470,-1178 470,-1178" /><polygon points="630,-1340 630,-1340 500,-1340 500,-1340" /><polygon points="610,-730 610,-730 610,-592 610,-592" /><polygon points="-736,-1060 -960,-1060 -960,-1060 -736,-1060" /><polygon points="-512,-1060 -736,-1060 -736,-1060 -512,-1060" /><polygon points="-288,-1060 -512,-1060 -512,-1060 -288,-1060" /><polygon points="-180,-1284 -180,-1082 -180,-1060 -180,-1060 -180,-1136 -180,-1284" /><polygon points="44,-1340 -180,-1340 -180,-1340 44,-1340" /><polygon points="268,-1340 44,-1340 44,-1340 268,-1340" /><polygon points="-200,-1340 -200,-1340 -288,-1340 -328,-1340 -328,-1340" /><polygon points="-220,-370 -220,-470 -220,-470 -220,-360 -220,-360" /><polygon points="-220,-860 -220,-880 -220,-930 -220,-960 -220,-960 -220,-850 -220,-850" /><polygon points="20,-470 60,-470 60,-470 4,-470 4,-470" /><polygon points="90,-800 90,-800 90,-744 90,-744" /><polygon points="200,-744 200,-576 200,-520 200,-520 200,-576 200,-744" /><polygon points="4,-850 -220,-850 -220,-850 4,-850" /><polygon points="20,-960 60,-960 60,-960 4,-960 4,-960" /><polygon points="4,-360 -220,-360 -220,-360 4,-360" /><polygon points="-420,-50 -420,-50 -512,-50 -512,-50" /><polygon points="-380,-800 -380,-800 -380,-744 -380,-744" /><polygon points="-370,-800 -350,-800 -300,-800 -280,-800 -270,-800 -270,-800 -380,-800 -380,-800" /><polygon points="-270,-744 -270,-576 -270,-520 -270,-520 -270,-576 -270,-744" /><polygon points="-960,-274 -960,-50 -960,-50 -960,-220 -960,-274" /><polygon points="-960,-498 -960,-274 -960,-274 -960,-444 -960,-498" /><polygon points="-960,-722 -960,-498 -960,-498 -960,-668 -960,-722" /><polygon points="-960,-946 -960,-722 -960,-722 -960,-892 -960,-946" /><polygon points="500,-1340 500,-1340 630,-1340 630,-1340" /><polygon points="470,-1340 470,-1340 444,-1340 268,-1340 268,-1340" /><polygon points="-776,-1340 -1000,-1340 -1000,-1340 -960,-1340 -776,-1340" /><polygon points="-552,-1340 -776,-1340 -776,-1340 -736,-1340 -552,-1340" /><polygon points="-328,-1340 -552,-1340 -552,-1340 -512,-1340 -328,-1340" /><polygon points="-200,-1340 -200,-1340 -200,-1360 -200,-1360" /><polygon points="500,-1360 500,-1360 500,-1340 500,-1340" /><polygon points="610,-144 610,80 610,80 610,-144" /><polygon points="610,-368 610,-144 610,-144 610,-368" /><polygon points="610,-592 610,-368 610,-368 610,-592" /><polygon points="-736,-50 -960,-50 -960,-50 -736,-50" /><polygon points="-512,-50 -736,-50 -736,-50 -512,-50" /><polygon points="470,-954 470,-730 470,-730 470,-954" /><polygon points="470,-1178 470,-954 470,-954 470,-1178" /><polygon points="-960,-1060 -960,-1060 -960,-946 -960,-946" /><polygon points="-180,-1340 -180,-1340 -180,-1306 -180,-1306" /><polygon points="190,-540 190,-576 190,-580 190,-580 190,-580 190,-580 190,-540" /><polygon points="190,-780 190,-780 190,-740 190,-660 190,-610 190,-580 190,-580" /><polygon points="-180,-1060 -180,-1060 -288,-1060 -288,-1060" /><polygon points="-370,-780 -370,-740 -370,-740 -370,-740 -370,-740 -370,-740 -370,-780" /><polygon points="-20,-950 -77.5,-950 -108.1818,-950 -90,-950 -50,-950 -20,-950" /><polygon points="20,-950 -20,-950 -20,-950 -20,-950 -20,-950 20,-950" /><polygon points="-160,-370 -160,-370 -160,-370 -160,-370 -180,-370 -200,-370 -200,-370" /><polygon points="-20,-370 -20,-370 -90,-370 -130,-370 -160,-370 -160,-370" /><polygon points="20,-930 20,-930 0,-930 0,-930" /><polygon points="120,-780 120,-780 120,-760 120,-760" /><polygon points="120,-760 120,-760 170,-760 170,-760" /><polygon points="0,-930 0,-930 0,-880 0,-880" /><polygon points="20,-860 20,-880 20,-880 20,-880 20,-880 20,-860" /><polygon points="100,-780 100,-740 100,-740 100,-740 100,-740 100,-740 100,-760 100,-780" /><polygon points="-20,-860 -20,-860 -90,-860 -130,-860 -160,-860 -160,-860" /><polygon points="-350,-780 -350,-780 -350,-760 -350,-760" /><polygon points="-200,-880 -200,-880 -180,-880 -180,-880" /><polygon points="-180,-880 -180,-880 -180,-930 -180,-930" /><polygon points="-200,-950 -200,-930 -200,-930 -200,-930 -200,-930 -200,-950" /><polygon points="-280,-780 -280,-780 -280,-740 -280,-740" /><polygon points="-160,-860 -160,-860 -160,-860 -160,-860 -180,-860 -200,-860 -200,-860" /><polygon points="-350,-760 -350,-760 -300,-760 -300,-760" /><polygon points="170,-540 170,-540 170,-560 170,-560" /><polygon points="170,-560 170,-560 120,-560 120,-560" /><polygon points="100,-540 120,-540 120,-540 120,-540 120,-540 120,-540 100,-540" /><polygon points="20,-460 -20,-460 -20,-460 -20,-460 -20,-460 0,-460 20,-460" /><polygon points="0,-440 0,-440 0,-390 0,-390" /><polygon points="20,-440 20,-440 0,-440 0,-440" /><polygon points="20,-370 20,-390 20,-390 20,-390 20,-390 20,-370" /><polygon points="-20,-460 -77.5,-460 -108.1818,-460 -90,-460 -50,-460 -20,-460" /><polygon points="-280,-540 -280,-576 -280,-580 -280,-580 -280,-580 -280,-580 -280,-540" /><polygon points="-200,-460 -200,-440 -200,-440 -200,-440 -200,-440 -200,-460" /><polygon points="-300,-560 -300,-560 -350,-560 -350,-560" /><polygon points="-300,-540 -300,-540 -300,-560 -300,-560" /><polygon points="-180,-390 -180,-390 -180,-440 -180,-440" /><polygon points="-200,-390 -200,-390 -180,-390 -180,-390" /><polygon points="-370,-540 -350,-540 -350,-540 -350,-540 -350,-540 -370,-540" /><polygon points="-420,-50 -420,-50 -420,80 -420,80" /><polygon points="-196,80 -420,80 -420,80 -196,80" /><polygon points="28,80 -196,80 -196,80 28,80" /><polygon points="252,80 28,80 28,80 252,80" /><polygon points="476,80 252,80 252,80 476,80" /><polygon points="-500,100 -500,100 -500,80 -500,80" /><polygon points="-500,80 -500,80 -552,80 -552,80" /><polygon points="4,-470 -220,-470 -220,-470 -200,-470 4,-470" /><polygon points="90,-744 90,-576 90,-520 90,-520 90,-540 90,-576 90,-744" /><polygon points="90,-800 90,-800 100,-800 120,-800 170,-800 190,-800 200,-800 200,-800" /><polygon points="200,-800 200,-800 200,-744 200,-744" /><polygon points="200,-520 200,-520 190,-520 170,-520 120,-520 90,-520 90,-520" /><polygon points="90,-744 90,-800 200,-800 200,-744 200,-576 90,-576" /><polygon points="200,-576 200,-520 90,-520 90,-576" /><polygon points="60,-850 60,-850 20,-850 4,-850 4,-850" /><polygon points="60,-960 60,-960 60,-850 60,-850" /><polygon points="4,-960 -220,-960 -220,-960 -200,-960 4,-960" /><polygon points="4,-850 -220,-850 -220,-960 4,-960" /><polygon points="60,-960 60,-850 4,-850 4,-960" /><polygon points="60,-470 60,-470 60,-360 60,-360" /><polygon points="60,-360 60,-360 20,-360 4,-360 4,-360" /><polygon points="4,-360 -220,-360 -220,-470 4,-470" /><polygon points="60,-470 60,-360 4,-360 4,-470" /><polygon points="-380,-744 -380,-576 -380,-520 -380,-520 -380,-540 -380,-576 -380,-744" /><polygon points="-270,-520 -270,-520 -280,-520 -300,-520 -350,-520 -380,-520 -380,-520" /><polygon points="-270,-800 -270,-800 -270,-744 -270,-744" /><polygon points="-380,-744 -380,-800 -270,-800 -270,-744 -270,-576 -380,-576" /><polygon points="-270,-576 -270,-520 -380,-520 -380,-576" /><polygon points="630,-1340 630,-1340 630,-1244 630,-1244" /><polygon points="-1000,-144 -1000,-50 -1000,80 -1000,80 -1000,-144" /><polygon points="-1000,-368 -1000,-220 -1000,-144 -1000,-144 -1000,-368" /><polygon points="-1000,-592 -1000,-444 -1000,-368 -1000,-368 -1000,-592" /><polygon points="-1000,-816 -1000,-668 -1000,-592 -1000,-592 -1000,-816" /><polygon points="-1000,-1040 -1000,-892 -1000,-816 -1000,-816 -1000,-1040" /><polygon points="-1000,-1264 -1000,-1116 -1000,-1040 -1000,-1040 -1000,-1264" /><polygon points="24,-1360 -180,-1360 -200,-1360 -200,-1360 24,-1360" /><polygon points="248,-1360 44,-1360 24,-1360 24,-1360 248,-1360" /><polygon points="472,-1360 268,-1360 248,-1360 248,-1360 472,-1360" /><polygon points="610,100 630,100 630,100 396,100 396,100" /><polygon points="-776,80 -1000,80 -1000,-50 -960,-50 -776,-50" /><polygon points="-552,80 -776,80 -776,-50 -736,-50 -552,-50" /><polygon points="-512,-50 -420,-50 -420,80 -500,80 -552,80 -552,-50" /><polygon points="-1000,-1264 -1000,-1340 -960,-1340 -960,-1116 -1000,-1116" /><polygon points="-960,-1116 -960,-1060 -960,-946 -960,-892 -1000,-892 -1000,-1040 -1000,-1116" /><polygon points="-960,-892 -960,-722 -960,-668 -1000,-668 -1000,-816 -1000,-892" /><polygon points="-960,-668 -960,-498 -960,-444 -1000,-444 -1000,-592 -1000,-668" /><polygon points="-960,-444 -960,-274 -960,-220 -1000,-220 -1000,-368 -1000,-444" /><polygon points="-960,-220 -960,-50 -1000,-50 -1000,-144 -1000,-220" /><polygon points="-960,-1116 -960,-1340 -776,-1340 -736,-1340 -736,-1116" /><polygon points="-736,-1060 -960,-1060 -960,-1116 -736,-1116" /><polygon points="-736,-1116 -736,-1340 -552,-1340 -512,-1340 -512,-1116" /><polygon points="-512,-1060 -736,-1060 -736,-1116 -512,-1116" /><polygon points="-512,-1116 -512,-1340 -328,-1340 -288,-1340 -288,-1116" /><polygon points="-288,-1060 -512,-1060 -512,-1116 -288,-1116" /><polygon points="-200,-1340 -200,-1136 -200,-1116 -288,-1116 -288,-1340" /><polygon points="-200,-1116 -200,-1060 -288,-1060 -288,-1116" /><polygon points="-200,-1136 -200,-1340 -200,-1360 -180,-1360 -180,-1340 -180,-1284 -180,-1136" /><polygon points="-180,-1060 -200,-1060 -200,-1116 -200,-1136 -180,-1136" /><polygon points="-276,100 -500,100 -500,80 -420,80 -276,80" /><polygon points="-52,100 -276,100 -276,80 -196,80 -52,80" /><polygon points="172,100 -52,100 -52,80 28,80 172,80" /><polygon points="396,100 172,100 172,80 252,80 396,80" /><polygon points="476,80 610,80 610,100 396,100 396,80" /><polygon points="610,-592 610,-730 630,-730 630,-572 630,-506 610,-506" /><polygon points="630,-506 630,-348 630,-282 610,-282 610,-368 610,-506" /><polygon points="630,-282 630,-124 630,-58 610,-58 610,-144 610,-282" /><polygon points="630,-58 630,100 610,100 610,80 610,-58" /><polygon points="470,-1178 470,-1340 500,-1340 630,-1340 630,-1244 630,-1116 470,-1116" /><polygon points="630,-1116 630,-1020 630,-892 470,-892 470,-954 470,-1116" /><polygon points="630,-892 630,-796 630,-730 610,-730 470,-730 470,-892" /><polygon points="44,-1340 -180,-1340 -180,-1360 24,-1360 44,-1360" /><polygon points="268,-1340 44,-1340 44,-1360 248,-1360 268,-1360" /><polygon points="472,-1360 500,-1360 500,-1340 470,-1340 268,-1340 268,-1360" /><polygon points="-500,80 -500,80 -552,80 -552,80" /><polygon points="-196,80 -276,80 -420,80 -420,80 -196,80" /><polygon points="28,80 -52,80 -196,80 -196,80 28,80" /><polygon points="252,80 172,80 28,80 28,80 252,80" /><polygon points="476,80 396,80 252,80 252,80 476,80" /><polygon points="470,-954 470,-892 470,-730 470,-730 470,-954" /><polygon points="470,-1178 470,-1116 470,-954 470,-954 470,-1178" /><polygon points="610,-730 610,-730 470,-730 470,-730" /><polygon points="500,-1360 500,-1360 500,-1340 500,-1340" /><polygon points="610,-144 610,-58 610,80 610,80 610,-144" /><polygon points="610,-368 610,-282 610,-144 610,-144 610,-368" /><polygon points="610,-592 610,-506 610,-368 610,-368 610,-592" /><polygon points="-200,-1060 -180,-1060 -180,-1060 -288,-1060 -288,-1060" /><polygon points="-200,-1340 -200,-1340 -200,-1360 -200,-1360" /><polygon points="-180,-1340 -180,-1340 -180,-1306 -180,-1284 -180,-1284" /><polygon points="470,-1340 470,-1340 268,-1340 268,-1340" /><polygon points="-776,-1340 -960,-1340 -1000,-1340 -1000,-1340 -776,-1340" /><polygon points="-552,-1340 -736,-1340 -776,-1340 -776,-1340 -552,-1340" /><polygon points="-328,-1340 -512,-1340 -552,-1340 -552,-1340 -328,-1340" /><polygon points="-736,-50 -776,-50 -960,-50 -960,-50 -736,-50" /><polygon points="-512,-50 -552,-50 -736,-50 -736,-50 -512,-50" /><polygon points="-960,-1060 -960,-1060 -960,-946 -960,-946" /><polygon points="-420,-50 -420,-50 -420,80 -420,80" /><polygon points="-500,100 -500,100 -500,80 -500,80" /></g></defs><rect fill="#fff" height="1752.0" id="background" width="1922.0" x="-1146.0" y="-1506.0" /><use fill="none" stroke="black" stroke-miterlimit="0" stroke-width="15" xlink:href="#bsp_ref" /><use fill="white" stroke="black" stroke-width="1" xlink:href="#bsp_ref" /></svg>