<svg viewBox="-1520 -1552 1792 1440" xmlns="http://www.w3.org/2000/svg" xmlns:xlink="http://www.w3.org/1999/xlink"><defs><g id="a"><path d="m-184-1352h-16v16h16z"/><path d="m-160-1312v-64z"/><path d="m-160-1312h-64v-64h64z"/><path d="m-160-1408h-224v-128h224z"/><path d="m64-1408h-224v-128h224z"/><path d="m256-1536v96 32h-128-64v-128z"/><path d="m256-1408v192h-128v-192z"/><path d="m0-1184h-160-64v-128h64 160z"/><path d="m32-1312h64v128h-32-64v-128z"/><path d="m-160-1312v-64h160v64z"/><path d="m128-1024v-32-128h128v64 160h-128z"/><path d="m256-960v64h-80-48v-64z"/><path d="m-160-1056h-96-80-48v-128h128 32 64z"/><path d="m64-1056h-224v-128h160 64z"/><path d="m96-1184h32v128h-56-8v-128z"/><path d="m-160-896h-224v-128h224z"/><path d="m32-1024v128h-192v-128z"/><path d="m-256-1376v64 128h-128v-64-128z"/><path d="m-584-1280v-96h168v96 128h-168z"/><path d="m-416-1152v96h-168v-96z"/><path d="m-448-896h-224v-128h224z"/><path d="m-416-1024v128h-32v-128z"/><path d="m-1056-896h-224v-128h224z"/><path d="m-832-896h-224v-128h224z"/><path d="m-768-1024v128h-64v-128z"/><path d="m256-1536v96z"/><path d="m256-1184v64z"/><path d="m-160-1536h-224 8 48 16 48 16 48 16z"/><path d="m64-1536h-224 24 16 48 16 48 16 48z"/><path d="m-160-1024h-224 128z"/><path d="m128-1056v32z"/><path d="m128-1408h-64z"/><path d="m-256-1312v-64 8z"/><path d="m0-1376h-160z"/><path d="m64-1056h8-72-16-96-16-32z"/><path d="m-160-1056h-64-8-16-8z"/><path d="m96-1312v128z"/><path d="m-384-1376h32 64 32z"/><path d="m-336-1056h80-48z"/><path d="m176-896h80-48z"/><path d="m32-896h-64-128z"/><path d="m32-896v-128h-64v128z"/><path d="m128-1024v64 64h-56-104v-128z"/><path d="m-584-1280v128 96-96z"/><path d="m-416-1376v96z"/><path d="m-416-1024v128z"/><path d="m-416-896h-32z"/><path d="m-1056-1024h-224z"/><path d="m-832-1024h-224z"/><path d="m-224-1312v-64z"/><path d="m-160-1376h-64z"/><path d="m-224-1312h64z"/><path d="m120-1184h-16v128h16z"/><path d="m-232-1184h-16v128h16z"/><path d="m-416-1280h-168v32h168z"/><path d="m248-1296h-8-96z"/><path d="m144-1264h96 8v-32h-104-8v32z"/><path d="m-256-1376h-32z"/><path d="m-288-1376h-64v-8h64z"/><path d="m-352-1384v-16h64v16z"/><path d="m-288-1400h-64v16h64z"/><path d="m144-1296h-8z"/><path d="m240-1264h8z"/><path d="m144-1288v-8h96v8z"/><path d="m144-1272v-16h96v16z"/><path d="m240-1264h-96v-8h96z"/><path d="m144-1264h96z"/><path d="m240-1288h-96v16h96z"/><path d="m-32-1024h64-192z"/><path d="m-32-1024h-128-96v128h96 128z"/><path d="m256-1120v-64 208z"/><path d="m256-1120v144 32 48-64z"/><path d="m-384-1368v-8 128z"/><path d="m-384-1368v120z"/><path d="m256-1184h-128z"/><path d="m-256-1312v128z"/><path d="m-256-1312v-56z"/><path d="m-352-1376h-32z"/><path d="m-352-1376v-8z"/><path d="m-304-1056h48z"/><path d="m-336-1056h-48z"/><path d="m-256-1376h-32v8h32z"/><path d="m-352-1376h-32v8h32z"/><path d="m-304-1064h-32v8h32z"/><path d="m208-904h-32v8h32z"/><path d="m256-976h-8v32h8z"/><path d="m0-1312v-64z"/><path d="m32-1312h-32z"/><path d="m32-1312h64z"/><path d="m32-1312h-32v-64h32z"/><path d="m-416-1280v32z"/><path d="m-584-1248v-32z"/><path d="m-416-1312h-168v32h168z"/><path d="m-416-1248h-168v-32h168z"/><path d="m-584-1280h168z"/><path d="m-416-1248h-168z"/><path d="m-608-1024h-160-64z"/><path d="m-608-1024h56v128h-56-160v-128z"/><path d="m-32-896h-32-96-96v-128h224z"/><path d="m256-1376v40 48 16z"/><path d="m256-1440v64 104 56-192z"/><path d="m-32-1024h-224 96z"/><path d="m128-1024h-160z"/><path d="m256-1216h-128z"/><path d="m128-1184h128z"/><path d="m64-1408h64-8-48-16z"/><path d="m56-1408h-48z"/><path d="m8-1408h-16-48-16-48-16-24z"/><path d="m64-1408h-8-48-168z"/><path d="m-160-1408h-96-48-32-48z"/><path d="m128-1184h-32 8 16z"/><path d="m96-1312h-64v-64h64z"/><path d="m96-1312v-64 192z"/><path d="m32-1312v-64z"/><path d="m72-896h56 48z"/><path d="m-64-896h32 104z"/><path d="m-160-896h-96-128z"/><path d="m-416-1312v32z"/><path d="m-584-1280v-32z"/><path d="m-584-1312h168z"/><path d="m-416-1344h-168v32h168z"/><path d="m-416-1280h-168v-32h168z"/><path d="m-416-1280h-168z"/><path d="m-1056-896h224 224 56v-128h-56-224-224-224v128z"/><path d="m-1056-1024h224 224 56v128h-56-224-224-224v-128z"/><path d="m-416-896h-32-8v-128h8 32z"/><path d="m-416-1024h-32-8v128h8 32z"/><path d="m-552-896h24-80z"/><path d="m-1056-1024h-224 208z"/><path d="m-832-1024h-224 208z"/><path d="m-608-1024h-224 208z"/><path d="m-416-1024h-32-8z"/><path d="m-456-896h40v-128h-40z"/><path d="m-416-1024v128z"/><path d="m-1280-1024v128z"/><path d="m-448-896h-8-216z"/><path d="m-1056-896h-224z"/><path d="m-832-896h-224z"/><path d="m-608-896h-224 64z"/><path d="m-552-896h-56z"/><path d="m-456-1024h8-224z"/><path d="m-448-1024h32z"/><path d="m-552-1024h-56z"/><path d="m-456-896v-128h-216v128z"/><path d="m-1056-896h-16-208z"/><path d="m-832-896h-16-208z"/><path d="m-608-896h-16-208z"/><path d="m-608-896h80 72-168z"/><path d="m-1280-1024h-240 224z"/><path d="m-1280-1024v128z"/><path d="m-1280-896h-16-224v-128h240z"/><path d="m-416-896h-40 8z"/><path d="m-384-1056v-96-32z"/><path d="m-256-1184h8 16 8z"/><path d="m-288-1376h32z"/><path d="m-384-1056h48 32 48z"/><path d="m-304-1056h-32v-8h32z"/><path d="m-256-1368h-32v-8h32z"/><path d="m-352-1368h-32v-8h32z"/><path d="m-352-1368h-32z"/><path d="m-256-1368h-32z"/><path d="m-288-1368v-8z"/><path d="m-352-1376v8z"/><path d="m-336-1064h32z"/><path d="m-336-1056v-8z"/><path d="m-304-1064v8z"/><path d="m-384-896v-128z"/><path d="m-160-1376h32 16 96 16 32-32z"/><path d="m-160-1376h-64z"/><path d="m-256-1024h-128v128h128z"/><path d="m-416-1344v32z"/><path d="m-584-1312v-32z"/><path d="m-416-1312h-168z"/><path d="m-416-1376h-168v32h168z"/><path d="m-416-1312h-168v-32h168z"/><path d="m-584-1344h168z"/><path d="m-1520-896v-128z"/><path d="m56-1408h-48z"/><path d="m-352-1376h-32z"/><path d="m-304-1384v8h16v-8z"/><path d="m-336-1384h32 16v-16h-64v16z"/><path d="m-352-1376h16v-8h-16z"/><path d="m-304-1376v-8z"/><path d="m-352-1384v-16z"/><path d="m-288-1400v16z"/><path d="m-288-1384v8z"/><path d="m-288-1384h-16-32-16z"/><path d="m-352-1384h16 32 16z"/><path d="m-352-1400h64z"/><path d="m-1296-896h-224z"/><path d="m-1072-896h-224 16z"/><path d="m-848-896h-224 16z"/><path d="m-624-896h-224 16z"/><path d="m-456-896h40-32-176z"/><path d="m-456-1024h-96-56z"/><path d="m-1296-1024h-224 16z"/><path d="m-1072-1024h-208-16 16 120 16z"/><path d="m-848-1024h-208-16 160 16z"/><path d="m-624-1024h-208-16 176z"/><path d="m-456-1024h40 8v128h-8-40-72-24v-128z"/><path d="m-288-1384h-64v-16h64z"/><path d="m-352-1384v-16z"/><path d="m-288-1400v16z"/><path d="m-352-1400h64z"/><path d="m-288-1384h-64z"/><path d="m-304-1384h-32v8h32z"/><path d="m-408-1024h16v128h-16z"/><path d="m-392-1024h-16v128h16z"/><path d="m-1520-1024v128z"/><path d="m-408-896h16 8-8-16-8z"/><path d="m-1296-896h-208-16z"/><path d="m-1072-896h-72-16-120-16z"/><path d="m-848-896h-48-16-160z"/><path d="m-624-896h-48-176z"/><path d="m-408-1024h16z"/><path d="m-448-1024h32-40-152-16z"/><path d="m-408-1024v128z"/><path d="m-672-1024h-176-48v16h224z"/><path d="m-448-1024h-176-48v16h224z"/><path d="m-416-1008v-16h-32v16z"/><path d="m-672-912h-224v16h48 176z"/><path d="m-448-912h-224v16h48 176z"/><path d="m-416-896v-16h-32v16z"/><path d="m-416-896v-16z"/><path d="m-416-912v16h-32v-16z"/><path d="m-672-1008h-224v-16h224z"/><path d="m-448-1008h-224v-16h224z"/><path d="m-896-1024h-16v16h16z"/><path d="m-896-912h-16v16h16z"/><path d="m-1144-896h72 160v-16h-232z"/><path d="m-912-1024h-160-72v16h232z"/><path d="m-1144-1024h-16v16h16z"/><path d="m-1144-912h-16v16h16z"/><path d="m-1504-912v-96-16h-16v128h16z"/><path d="m-1280-1024h-16-208v16h208 16z"/><path d="m-1160-1008v-16h-120v16z"/><path d="m-1280-912h-16-208v16h208 16z"/><path d="m-1160-896v-16h-120v16z"/><path d="m-1280-912h120v16h-136v-16z"/><path d="m-1296-1008h-208l-16-16h224z"/><path d="m-392-896h-16z"/><path d="m-392-896v-128z"/><path d="m-392-896v-128h8v128z"/><path d="m-384-1184v-64z"/><path d="m-384-1376v8 120z"/><path d="m-256-1120v64z"/><path d="m-256-1376v32z"/><path d="m-256-1344v160-128-56-8z"/><path d="m-224-1376h64z"/><path d="m120-1056h-16-8-24 56z"/><path d="m-224-1056h64z"/><path d="m120-1184v128h8v-128z"/><path d="m96-1152v96h8v-128h-8z"/><path d="m-232-1184v128h8v-96-32z"/><path d="m-256-1120v64h8v-128h-8z"/><path d="m96-1184v-192 96 16 96 16z"/><path d="m-224-1184v-192 64z"/><path d="m-256-1376h-32-16z"/><path d="m-384-1376h48-16z"/><path d="m-160-896h-96z"/><path d="m-376-1024h120v128h-128v-128z"/><path d="m-384-1024h-8-16-8z"/><path d="m104-1184h16z"/><path d="m120-1056h-16v-128h16z"/><path d="m120-1056h-16z"/><path d="m120-1184v128z"/><path d="m104-1056v-128z"/><path d="m-248-1184h16z"/><path d="m-232-1056h-16v-128h16z"/><path d="m-232-1056h-16z"/><path d="m-248-1056v-128z"/><path d="m-232-1184v128z"/><path d="m-416-1376v32z"/><path d="m-584-1344v-32z"/><path d="m-416-1344h-168z"/><path d="m-416-1344h-168v-32h168z"/><path d="m-584-1376h168z"/><path d="m-376-1040v-16h120v32h-120z"/><path d="m-1520-896v-128z"/><path d="m-384-1376v-32z"/><path d="m-384-1408v-128z"/><path d="m-160-1408h-24-16-48-8z"/><path d="m-256-1408v32h-48v-8-24z"/><path d="m-304-1384h-32v-24h32z"/><path d="m-384-1408h48v24 8h-48z"/><path d="m-336-1376v-8z"/><path d="m-304-1384h-32z"/><path d="m-416-896h-32z"/><path d="m-1144-896h232z"/><path d="m-1160-896h-120-16z"/><path d="m-672-1024h-224z"/><path d="m-448-1024h-224z"/><path d="m-1296-1024h-224z"/><path d="m-416-1024v16z"/><path d="m-672-896h-224v-16h224z"/><path d="m-448-896h-224v-16h224z"/><path d="m-416-1024v16h-32v-16z"/><path d="m-1144-1024h232v16h-232z"/><path d="m-912-896h-232v-16h232z"/><path d="m-1296-896h-224l16-16h208z"/><path d="m-1520-896v-128l16 16v96z"/><path d="m-1160-1024v16h-120-16v-16z"/><path d="m-336-1376v-8z"/><path d="m-304-1376h-32v-8h32z"/><path d="m-304-1384v8z"/><path d="m-304-1376h-32z"/><path d="m-336-1384h32z"/><path d="m-384-1376v-32z"/><path d="m-256-1408v32z"/><path d="m-256-1408h-128v32h128z"/><path d="m-384-1408h128z"/><path d="m-256-1376h-128z"/><path d="m-384-1152v96h128v-96z"/><path d="m-384-1056h8v16h-8z"/><path d="m-256-1056v-88 88 32z"/><path d="m256-976v-208 64 176z"/><path d="m256-944v48z"/><path d="m96-1376h-64z"/><path d="m-16-1376h-96z"/><path d="m-128-1376h-32z"/><path d="m96-1376v96z"/><path d="m96-1264v96z"/><path d="m96-1152v96z"/><path d="m-224-1168v-96-16-96 192 32z"/><path d="m-224-1152v96z"/><path d="m32-1264h64v-16h-64-8v16z"/><path d="m0-1312v-64h-16v64 8h16z"/><path d="m-112-1312v-64h-16v64 8h16z"/><path d="m-160-1264h8v-16h-8-64v16z"/><path d="m32-1152h64v-16h-64-8v16z"/><path d="m0-1128h-16v72h16z"/><path d="m-160-1152h8v-16h-8-64v16z"/><path d="m-112-1128h-16v8 64h16z"/><path d="m96-1280h-64z"/><path d="m96-1168h-64z"/><path d="m-16-1376v64z"/><path d="m-128-1376v64z"/><path d="m24-1264v-16z"/><path d="m-16-1304v-8z"/><path d="m0-1304h-16z"/><path d="m-152-1264h-8z"/><path d="m-152-1168h-8z"/><path d="m-160-1264h-64z"/><path d="m-160-1152h-64z"/><path d="m208-896h48-80z"/><path d="m256-896h-48z"/><path d="m176-896v-8z"/><path d="m208-896h-32v-8h32z"/><path d="m256-944h-8v-32h8z"/><path d="m256-944h-8z"/><path d="m248-976h8z"/><path d="m248-944v-32z"/><path d="m208-904v8z"/><path d="m176-904h32z"/><path d="m32-1376h64-64-32z"/><path d="m96-1056h-24z"/><path d="m72-1056h-40-32z"/><path d="m-16-1056h-96z"/><path d="m-128-1056h-32z"/><path d="m-224-1312v-64 96z"/><path d="m-224-1264v96z"/><path d="m32-1120v-32z"/><path d="m32-1280v-32z"/><path d="m32-1264v96z"/><path d="m96-1264h-64z"/><path d="m96-1280v-96h-64v64 32z"/><path d="m96-1264h-64v96h64z"/><path d="m72-1152h24-64z"/><path d="m72-1120v64h24v-96h-24z"/><path d="m32-1152v32h40v-32z"/><path d="m72-1056v-64h-40v64z"/><path d="m-128-1312h-32z"/><path d="m-16-1312h-96z"/><path d="m-112-1376v64z"/><path d="m0-1376v64z"/><path d="m32-1312v-64h-32v64z"/><path d="m-16-1376h-96v64h96z"/><path d="m-128-1376h-32v64h32z"/><path d="m-160-1152v32z"/><path d="m-160-1264v96z"/><path d="m32-1280h-8z"/><path d="m32-1168h-8z"/><path d="m-128-1312v8z"/><path d="m-152-1152h-8z"/><path d="m-152-1152v-16z"/><path d="m0-1128h-16z"/><path d="m-112-1128h-16z"/><path d="m-16-1120v64-72z"/><path d="m32-1120h-32v64h32z"/><path d="m0-1120h32z"/><path d="m0-1120v-8 72z"/><path d="m-16-1120h-96v64h96z"/><path d="m-128-1120h-32v64h32z"/><path d="m-112-1120h96z"/><path d="m-112-1120v-8 72z"/><path d="m-128-1056v-64z"/><path d="m-128-1120v-8z"/><path d="m-160-1168h-64z"/><path d="m-224-1280h64z"/><path d="m-160-1312h-64v32h64z"/><path d="m-160-1264h-64v96h64z"/><path d="m-224-1152v96h64v-64-32z"/><path d="m-200-1376h-24v64h24z"/><path d="m-184-1376h-16v24h16z"/><path d="m-200-1336v24h16v-24z"/><path d="m-160-1376h-24v64h24z"/><path d="m-200-1336v-16z"/><path d="m-200-1352h16z"/><path d="m-184-1336h-16z"/><path d="m-184-1352v16z"/><path d="m256-1272v48 8z"/><path d="m256-1184v64z"/><path d="m-384-1112v-32 88 16z"/><path d="m-384-1040v-72z"/><path d="m144-1296h96 8-112z"/><path d="m248-1296h-8z"/><path d="m136-1296v32z"/><path d="m248-1264v-32z"/><path d="m240-1288v-8h-96v8z"/><path d="m240-1272v-16h-96v16z"/><path d="m240-1264v-8h-96v8z"/><path d="m144-1264v-8z"/><path d="m144-1288v-8z"/><path d="m144-1272v-16z"/><path d="m240-1272v8z"/><path d="m240-1288v16z"/><path d="m240-1296v8z"/><path d="m144-1272h96z"/><path d="m240-1272h-96z"/><path d="m240-1288h-96z"/><path d="m144-1288h96z"/><path d="m136-1264h8z"/><path d="m64-1376h-32-192 168 16 8z"/><path d="m32-1056h64-32-64z"/><path d="m96-1376v96z"/><path d="m-224-1280v192 32-96z"/><path d="m-224-1312v-64z"/><path d="m32-1168v-96-16-32-64h32 32v96 128h-64z"/><path d="m96-1152v96h-64v-64-32z"/><path d="m-224-1312h64z"/><path d="m32-1312h-32z"/><path d="m-160-1312v-64z"/><path d="m32-1376v64h-32-16-96-16-32v-64z"/><path d="m-160-1312v32z"/><path d="m-112-1312v8z"/><path d="m-160-1280h8z"/><path d="m-160-1152h8z"/><path d="m0-1120v-8z"/><path d="m-16-1120h16 32v64h-32-16z"/><path d="m-160-1120h32z"/><path d="m-112-1120v-8z"/><path d="m-160-1056v-32-32h32 16 96v64z"/><path d="m-224-1280v-32h64v32 16 96 16 32 32h-64z"/><path d="m-160-1088v32h-64v-32z"/><path d="m-160-896h96 136-8z"/><path d="m-160-896h-216-8 128z"/><path d="m-224-1376h64z"/><path d="m-224-1312v-64z"/><path d="m-160-1312h-64z"/><path d="m-160-1376v64z"/><path d="m-160-1312h-64v-64h64z"/><path d="m240-1272h-96v-16h96z"/><path d="m144-1272v-16z"/><path d="m240-1288v16z"/><path d="m240-1272h-96z"/><path d="m144-1288h96z"/><path d="m248-1296v32h-112v-32z"/><path d="m248-1264h-8-96-8z"/><path d="m-256-1184v40 88h-120-8v-88-40z"/><path d="m208-1488h-32z"/><path d="m168-1496v8h8 32 8v-8z"/><path d="m176-1456h32z"/><path d="m216-1488h-8v32h8z"/><path d="m176-1488h-8v32h8z"/><path d="m208-1456h-32-8v8h48v-8z"/><path d="m208-1376h-32v128h32z"/><path d="m96-1456v-32h-128v32z"/><path d="m96-1488h-24-16-48-16-24z"/><path d="m-160-1456v-32h-128v32z"/><path d="m-160-1488h-24-16-48-16-24z"/><path d="m-112-1312h-16z"/><path d="m-160-1168v16z"/><path d="m-16-1312h-96v8h96z"/><path d="m-152-1264v-16z"/><path d="m-152-1168h-8z"/><path d="m-152-1264h-8v96h8z"/><path d="m-256-1344v192 32-64z"/></g><g id="b"><path d="m256-1536v96 24z"/><path d="m256-1376v-24 48z"/><path d="m256-1536v120 16 24-64z"/><path d="m256-1376v24 16z"/><path d="m256-1288v-48z"/><path d="m256-1288v16z"/><path d="m256-1224v-48z"/><path d="m72-1536h48 8 8 120-192z"/><path d="m-384-1376v128 64z"/><path d="m128-1216v-8-48-16-48-16-48-8z"/><path d="m176-1376h32z"/><path d="m256-1416h-120z"/><path d="m176-1488v32z"/><path d="m208-1456v-32z"/><path d="m208-1488h-32v32h32z"/><path d="m136-1536h-8v120h8z"/><path d="m256-1416h-120-8v8 8h128z"/><path d="m208-1248h-32z"/><path d="m176-1288h-48v16h48z"/><path d="m176-1352h-48v16h48z"/><path d="m208-1248h-32v-24h32z"/><path d="m176-1336h32v48h-32z"/><path d="m176-1352v-24h32v24z"/><path d="m256-1272v-16h-48v16z"/><path d="m256-1336v-16h-48v16z"/><path d="m176-1288h32 48-128z"/><path d="m176-1352h32 48-128z"/><path d="m176-1352v16 48 16 24-128z"/><path d="m208-1272v-16-48-16-24 128z"/><path d="m256-1216v-8h-128v8z"/><path d="m256-1224h-128z"/><path d="m120-1408h-48z"/><path d="m-56-1408h48-24z"/><path d="m-120-1408h48z"/><path d="m-160-1408h24-48z"/><path d="m-264-1408h-48z"/><path d="m-32-1456v-32z"/><path d="m96-1488v32z"/><path d="m128-1416v-120h-8v128h8z"/><path d="m96-1456h-24v-32h24z"/><path d="m72-1536h-8-8v48h16z"/><path d="m56-1456v48h16v-48z"/><path d="m56-1488v32h-48v-32z"/><path d="m8-1536h-16v48h16z"/><path d="m-8-1456v48h16v-48z"/><path d="m-8-1456h-24v-32h24z"/><path d="m-8-1456h16 48 16 24-128z"/><path d="m-56-1536h-16v128h16z"/><path d="m-136-1536v128z"/><path d="m-120-1536h-16v128h16z"/><path d="m-160-1488v32z"/><path d="m-288-1456v-32z"/><path d="m-264-1456h-24v-32h24z"/><path d="m-264-1456v48h8 8v-48z"/><path d="m-200-1456v48h16v-48z"/><path d="m-200-1456h-48v-32h48z"/><path d="m-248-1488v-48h-16v48z"/><path d="m-160-1456h-24v-32h24z"/><path d="m-184-1536h-16v48h16z"/><path d="m-200-1456v-32-48 128z"/><path d="m-264-1456h16 48 16 24-128z"/><path d="m-376-1536h-8v128h8z"/><path d="m-312-1536h-16v128h16z"/><path d="m-256-1408v32z"/><path d="m-256-1376v-32h-8-48-16-48-8v32z"/><path d="m-256-1376h-128v-32h128z"/><path d="m-256-1376h-128z"/><path d="m-256-1376h-128v192 32h128z"/><path d="m-384-1144v-40-104 104 40 32z"/><path d="m-112-1312h96z"/><path d="m-160-1168v-96z"/><path d="m-16-1304h-96v-8h96z"/><path d="m-16-1304h-96z"/><path d="m-112-1304h-16z"/><path d="m-160-1264h8v96h-8z"/><path d="m-152-1264v96z"/><path d="m-384-1288v-120h128v32 96 96h-128z"/><path d="m-384-1144v32h8v-32z"/><path d="m256-1536v72 24z"/><path d="m256-1536h-120z"/><path d="m72-1536h48z"/><path d="m-56-1536h24 24z"/><path d="m-32-1536h-24-16-48-16-48-16-48-8z"/><path d="m-120-1536h48z"/><path d="m-136-1536h-24-24z"/><path d="m-248-1536h48z"/><path d="m-264-1536h-48z"/><path d="m-376-1536h48z"/><path d="m-384-1024h8z"/><path d="m128-1224v-48z"/><path d="m128-1288v-48z"/><path d="m128-1400v48z"/><path d="m128-1216h128z"/><path d="m184-1480v16 16h-16v-48h16z"/><path d="m184-1480v-16h16v16z"/><path d="m128-1416v-120h8v120z"/><path d="m256-1400h-128v-8-8h8 120z"/><path d="m200-1448h-16v-16h16z"/><path d="m216-1448h-16v-16-16-16h16z"/><path d="m216-1448v-48 8 32z"/><path d="m168-1496v48-8-32z"/><path d="m216-1496h-16-16-16z"/><path d="m168-1448h16 16 16z"/><path d="m136-1536v120z"/><path d="m256-1400h-128z"/><path d="m128-1216v-8h128v8z"/><path d="m256-1336h-128v-16h128z"/><path d="m256-1272h-128v-16h128z"/><path d="m256-1336h-48-32-48z"/><path d="m256-1272h-48-32-48z"/><path d="m72-1408h48 8-72z"/><path d="m-8-1408h16-40z"/><path d="m-248-1408h48z"/><path d="m-328-1408h-48z"/><path d="m-248-1408h-8v-128h8z"/><path d="m-312-1408h48v-128h-48z"/><path d="m-376-1408h48v-128h-48z"/><path d="m-184-1408h-16v-128h16z"/><path d="m-136-1536h16v128h-16z"/><path d="m-56-1408h-16v-128h16z"/><path d="m8-1408h-16v-128h16z"/><path d="m72-1408h-16v-128h16z"/><path d="m128-1416v8h-8v-128h8z"/><path d="m-120-1536v128z"/><path d="m120-1408v-128z"/><path d="m56-1408v-48-32-48z"/><path d="m72-1536v48 32 48z"/><path d="m8-1536v48 32 48z"/><path d="m-8-1408v-48-32-48z"/><path d="m-72-1408v-128z"/><path d="m-56-1536v128z"/><path d="m-184-1536v48 32 48z"/><path d="m-248-1536v48 32 48z"/><path d="m-264-1408v-48-32-48z"/><path d="m-328-1408v-128z"/><path d="m-312-1536v128z"/><path d="m-376-1536v128z"/><path d="m-376-1024v-16z"/><path d="m-376-896h-8z"/><path d="m-376-1024h-8v128h8z"/><path d="m-416-1056h-168z"/><path d="m-584-1376h168z"/><path d="m-416-1280v-96h-168v96 128h168z"/><path d="m-584-1152v96h168v-96z"/><path d="m-584-1376v96z"/><path d="m-416-1280v128 96-96z"/><path d="m-1296-1024h-224v128h224 16v-16-96-16z"/><path d="m-1280-896h120v-16h-120z"/><path d="m-1160-1008h-120v96h120 16v-96z"/><path d="m-1160-1008v-16h-120v16z"/><path d="m-1144-1008v96 16h232v-16-96-16h-232z"/><path d="m-896-912v-96h-16v96z"/><path d="m-672-1024h-224v16 96 16h224z"/><path d="m-448-1024h-224v128h224z"/><path d="m-416-896h8v-128h-8-32v128z"/><path d="m-392-1024v128h8v-128z"/><path d="m-392-896v-128z"/><path d="m-672-896h-224z"/><path d="m-448-896h-224z"/><path d="m-1296-896h-224z"/><path d="m-408-1024h16 8-32z"/><path d="m-416-1024h-32z"/><path d="m-1144-1024h232z"/><path d="m-1280-1024h120-136z"/><path d="m-912-896v-16z"/><path d="m-912-1008v-16z"/><path d="m-896-1024v16z"/><path d="m-896-912v16z"/><path d="m-912-912h16z"/><path d="m-896-1008h-16z"/><path d="m-1160-896v-16z"/><path d="m-1160-1008v-16z"/><path d="m-1144-1024v16z"/><path d="m-1144-912v16z"/><path d="m-1160-912h16z"/><path d="m-1144-1008h-16z"/><path d="m-408-1024h16z"/><path d="m-392-896h-16z"/><path d="m-392-896h-16v-128h16z"/><path d="m-392-1024v128z"/><path d="m-408-896v-128z"/><path d="m-384-1112h8z"/><path d="m-376-1024h-8v-16h8z"/><path d="m-376-1040h-8z"/><path d="m-376-1024v128z"/><path d="m-376-896h-8v-128h8z"/><path d="m-256-1376v96z"/><path d="m-256-1376v-32z"/><path d="m-384-1536h128v128h-128z"/><path d="m120-1056h-16z"/><path d="m-232-1056h-16z"/><path d="m120-1184h-16z"/><path d="m104-1184v128h16v-128z"/><path d="m104-1056v-128z"/><path d="m120-1184v128z"/><path d="m-144-1144v-32-8 40 8z"/><path d="m-144-1288v-8 8 40z"/><path d="m8-1296h8-8-32-8z"/><path d="m-144-1296h48-8z"/><path d="m-24-1144h32z"/><path d="m-104-1144h-32z"/><path d="m-96-1176v32-8-32z"/><path d="m-32-1288v-8 16z"/><path d="m16-1296h-8v8 32 8h8z"/><path d="m8-1288h-32z"/><path d="m-32-1296v8h8 32v-8z"/><path d="m-24-1256h32z"/><path d="m-24-1248h32v-8h-32z"/><path d="m-24-1256v-32h-8v8 32h8z"/><path d="m-32-1176v-8 32 8z"/><path d="m8-1176h-32z"/><path d="m-32-1184v8h8 32 8v-8z"/><path d="m16-1176h-8v32h8z"/><path d="m-24-1176h-8v32h8z"/><path d="m-104-1248h-32-8 16 32z"/><path d="m-104-1288h-32z"/><path d="m-96-1296h-48v8h8 32 8z"/><path d="m-104-1288v32z"/><path d="m-96-1288h-8v32 8h8z"/><path d="m-136-1256h32z"/><path d="m-104-1256h-32v8h32z"/><path d="m-136-1256v-32h-8v40h8z"/><path d="m-136-1176h32 8v-8h-48v8z"/><path d="m-96-1176h-8v32h8z"/><path d="m-136-1176h-8v32h8z"/><path d="m-32-1136v-8z"/><path d="m8-1144h-32-8v8h48v-8z"/><path d="m-96-1136v-8h-8-32-8v8z"/><path d="m-248-1184v128h16v-128z"/><path d="m-232-1184h-16z"/><path d="m-248-1056v-128z"/><path d="m-232-1184v128z"/><path d="m-96-1152v8z"/><path d="m-96-1280v-16 8 40z"/><path d="m0-1248h16-8-32-8z"/><path d="m-32-1280v32z"/><path d="m8-1256v-32z"/><path d="m-24-1288v32z"/><path d="m8-1288h-32v32h32z"/><path d="m-32-1280h-64v32h64z"/><path d="m-32-1248v24 16 24z"/><path d="m16-1184h-16z"/><path d="m0-1184h-32 48z"/><path d="m0-1248h-32v64h32z"/><path d="m8-1144v-32z"/><path d="m-24-1176v32z"/><path d="m8-1176h-32v32h32z"/><path d="m-32-1184h-64v32h64z"/><path d="m-144-1248h8 8z"/><path d="m-136-1288v32z"/><path d="m-104-1288h-32v32h32z"/><path d="m-128-1184h-16 48z"/><path d="m-128-1248v24 16 24z"/><path d="m-96-1248h-32v64h32z"/><path d="m-104-1176h-32z"/><path d="m-136-1176v32z"/><path d="m-104-1144v-32z"/><path d="m-104-1144v-32h-32v32z"/><path d="m-96-1144v8z"/><path d="m-384-1280v96z"/><path d="m-384-1184v-96-32-96 120z"/><path d="m16-1136h-48z"/><path d="m-96-1136h-48z"/><path d="m16-1144v-32-8 8 32 8z"/><path d="m16-1296v48z"/><path d="m16-1248h-8v-8-32-8h8z"/><path d="m8-1288h-32v-8h32z"/><path d="m-32-1280v-16h8v8 32h-8z"/><path d="m-136-1288h-8v-8h40v8z"/><path d="m-104-1288v-8h8v16h-8z"/><path d="m-24-1288h32v32h-32z"/><path d="m-136-1288h32v8 24h-32z"/><path d="m-144-1288h8v32 8h-8z"/><path d="m8-1248h-8-8-24v-8h8 32z"/><path d="m-16-1224h-16v-24h24v24z"/><path d="m-8-1224v-24h8v40h-8z"/><path d="m-32-1256v8h-24v-16-8-8h24z"/><path d="m-72-1272v-8h16v8z"/><path d="m-56-1248h-16v-16h16z"/><path d="m-32-1208v-16h16v16z"/><path d="m-16-1208h8 8v24h-24-8v-24z"/><path d="m-96-1280h24v8 8 16h-24-8v-8-24z"/><path d="m-120-1224h-8v-24h16v24z"/><path d="m-104-1256v8h-8-16-8v-8z"/><path d="m-112-1208v-16-24h8 8v64h-16z"/><path d="m-128-1208v-16h8v16z"/><path d="m-120-1208h8v24h-16v-24z"/><path d="m0-1184h16v8h-8-32v-8z"/><path d="m-32-1152v-32h8v8 32h-8z"/><path d="m16-1144h-8v-32h8z"/><path d="m8-1144h-32v-32h32z"/><path d="m-72-1168v8 8h-24v-24-8h24z"/><path d="m-72-1168v-16h16v16z"/><path d="m-104-1144h-32v-32h32z"/><path d="m-96-1152v8h-8v-32h8z"/><path d="m-144-1184h8v8 32h-8z"/><path d="m-104-1176h-32v-8h8 16 16v8z"/><path d="m-56-1152h-16v-8h16z"/><path d="m-32-1152h-24v-8-8-16h24z"/><path d="m-120-1208v-16z"/><path d="m-96-1248v64z"/><path d="m-96-1296v16z"/><path d="m-72-1248h16 24-64z"/><path d="m8-1248h8-16z"/><path d="m-56-1280h-16-24 64z"/><path d="m-32-1144v-8z"/><path d="m0-1208v-40 64z"/><path d="m-56-1184h-16-24 64z"/><path d="m-72-1152h16 24-64z"/><path d="m-136-1184h-8 16z"/><path d="m-32-1136v-8h8 32 8v8z"/><path d="m-144-1136v-8h8 32 8v8z"/><path d="m-384-1312v32h8v-32z"/><path d="m256-1120v96 128-48z"/><path d="m-384-1024v-32-56 72 16 128z"/><path d="m-384-1408v96z"/><path d="m-384-1536v128z"/><path d="m-384-1536v128 96-144-32z"/><path d="m64-1024h64-160z"/><path d="m128-1024v-160 128z"/><path d="m256-1024v-96-64h-128v160z"/><path d="m-256-1056v32z"/><path d="m-16-1224h8z"/><path d="m-56-1224h40 8z"/><path d="m-120-1224h8z"/><path d="m-56-1272v8z"/><path d="m-72-1264v-8z"/><path d="m-56-1264h-16z"/><path d="m-56-1272h-16z"/><path d="m-72-1264v40h16v-40z"/><path d="m-112-1224v16z"/><path d="m-8-1208v-16z"/><path d="m-8-1208h-8z"/><path d="m-72-1208h-40z"/><path d="m-16-1208v-16z"/><path d="m-72-1208h16 40v-16h-40-16-40v16z"/><path d="m-56-1168v8z"/><path d="m-56-1160h-16z"/><path d="m-72-1168v-40 48z"/><path d="m-72-1160v-8z"/><path d="m-72-1168h16z"/><path d="m-56-1208h-16v40h16z"/><path d="m-112-1208h-8z"/><path d="m-256-1056h-128v32h128z"/><path d="m-160-1024h-96-128v128h8 216z"/><path d="m64-1024h-96-128v128h224z"/><path d="m72-896h184v-128h-128-64v128z"/><path d="m256-896h-184 104z"/><path d="m-160-896h-216z"/><path d="m-384-896h8z"/><path d="m-136-1408h48-152z"/><path d="m-136-1408h-104-16z"/><path d="m-56-1224h-16v-48h16z"/><path d="m-8-1224v16h-48v-16z"/><path d="m-72-1208h16v48h-16z"/><path d="m-72-1224v16h-40-8v-16z"/><path d="m-120-1224h8 40z"/><path d="m-56-1272v8 40z"/><path d="m-72-1224v-40-8z"/><path d="m-8-1208h-8-40z"/><path d="m-56-1208v40 8z"/><path d="m-32-1408h-224 8 48 16 48 16 48 16z"/><path d="m-32-1536h-224v128h224z"/><path d="m-336-1536h32 144-96-128z"/><path d="m-304-1536h-32v8h32z"/><path d="m-384-1488v32h8v-32z"/><path d="m8-1536h-16-24z"/><path d="m-256-1408h16z"/><path d="m8-1408h48 72v-128h-72-48-40v128z"/><path d="m-256-1376v-32z"/><path d="m256-1088v40z"/><path d="m256-768v-56 104z"/><path d="m256-128v-144z"/><path d="m-384-496v144 80-96-32z"/><path d="m-384-720v144 80-128-16-16z"/><path d="m-384-944v144 80-104-56-32z"/><path d="m-384-128h32z"/><path d="m256-128h-24z"/><path d="m-160-1024h-144-64-16 128z"/><path d="m64-1024h-144-80 128z"/><path d="m256-1048v24h-64v-64h64z"/><path d="m192-1088v64h-48-16v-96h64z"/><path d="m96-1280v-96h-32-32v96 16 96 16h64z"/><path d="m32-1152v32h32 32v-32z"/><path d="m32-1376h-8v96h8z"/><path d="m32-1264h-8v80 16h8z"/><path d="m24-1184v-80-16-96h-16v32 32 8 16 104z"/><path d="m-152-1344h160v-32h-168v32z"/><path d="m-128-1312h16 96 16 8v-32h-160v32z"/><path d="m-152-1288v-16-8-32h-8v64h8z"/><path d="m0-1312v8h8v-8z"/><path d="m-112-1312v8h96v-8z"/><path d="m-128-1304v-8h-24v8z"/><path d="m8-1304h-8-16-96-16-24v16h24 56 16 64z"/><path d="m8-1288h-64v64 16 24h40 16 8z"/><path d="m-72-1208v-16-64h-56v104h16 40z"/><path d="m-56-1288h-16v64h16z"/><path d="m-128-1128v-56-104h-24v8 16 96 16 32h24z"/><path d="m-56-1184v-24h-16v24z"/><path d="m-152-1264h-8v96h8z"/><path d="m64-1120h-32-8-24-16-96-16-24-8v64h160 64z"/><path d="m96-1056v-64h-32v64z"/><path d="m24-1152v32h8v-32z"/><path d="m24-1120v-32-16-16h-16-8v56 8z"/><path d="m-16-1128h16v-56h-16z"/><path d="m-16-1120v-8-56h-40-16-40v56 8z"/><path d="m-160-1152v32h8v-32z"/><path d="m-128-1128h16v-56h-16z"/><path d="m-160-1168v-96-16-64-32h-64v96 128h64z"/><path d="m-224-1152v96h64v-64-32z"/><path d="m96-1376h-32z"/><path d="m0-1056h-160-64 64 144z"/><path d="m96-1280v128 32 64-96z"/><path d="m-224-1376v64 32z"/><path d="m32-1152v-16z"/><path d="m32-1280v16z"/><path d="m0-1312h-16z"/><path d="m-160-1280v16z"/><path d="m24-1264h8z"/><path d="m24-1152h8z"/><path d="m24-1168v16z"/><path d="m-16-1304v-8z"/><path d="m0-1304v-8z"/><path d="m-112-1312v8z"/><path d="m-56-1224v16z"/><path d="m-72-1224h16z"/><path d="m-72-1208v-16z"/><path d="m-56-1208h-16z"/><path d="m-160-1264h8z"/><path d="m-152-1168h-8z"/><path d="m-16-1128v8z"/><path d="m-16-1120h16z"/><path d="m-128-1120h16z"/><path d="m-128-1128v8z"/><path d="m-384-128v-48h16 16v48z"/><path d="m-368-176v-24h16v8 16z"/><path d="m-352-192v-8h48v8z"/><path d="m-304-200v-56h16v64h-16z"/><path d="m-288-192v-64h8v64 64h-8z"/><path d="m-128-128h-88v-64h88z"/><path d="m-256-256h40 88v24 40h-88-64v-64z"/><path d="m-128-456v123.2h-128v-43.2-80z"/><path d="m128-128h-120-8v-104-24h128z"/><path d="m-32-456h32v123.2 76.8 24h-128v-24-76.8-123.2z"/><path d="m0-232v104h-128v-64-40z"/><path d="m128-456v123.2h-128v-123.2z"/><path d="m-304-800v-24h48v56 128 40h-48z"/><path d="m-256-600v144 80h-48v-200-24z"/><path d="m-256-376v43.2 76.8h-24-8-16v-8-88-24z"/><path d="m-152-744h32 32v88h-152v-88z"/><path d="m-240-744v-8h88v8z"/><path d="m-120-824v56h-136v-56z"/><path d="m-120-744v-8-16-56h32v80z"/><path d="m-80-824h80v56 16 8 88h-16-72v-88-80z"/><path d="m0-656v-88h32 80v88z"/><path d="m32-744v-8h80v8z"/><path d="m-32-456h-96-128v-144-40h224z"/><path d="m128-640v96 88h-128-32v-184z"/><path d="m128-640v-128h96 32v48 176h-128z"/><path d="m256-544v48 176h-128v-12.8-123.2-88z"/><path d="m256-320v48 144h-24-104v-128-64z"/><path d="m224-768h-96-128v-56h144 80z"/><path d="m256-824v56h-32v-56z"/><path d="m-384-944v-80h16v224h-16z"/><path d="m-368-800v224h-16v-144-80z"/><path d="m-368-576v224h-16v-144-80z"/><path d="m-368-352v88 64 24h-16v-96-80z"/><path d="m-368-1024h64v200 24h-64z"/><path d="m-304-800v200 24h-64v-224z"/><path d="m-304-576v200 24h-64v-224z"/><path d="m-304-352v88h-64v-88z"/><path d="m-80-824h-8-32-136-48v-200h144 80z"/><path d="m144-824h-144-80v-200h144 64 16z"/><path d="m192-1024h64v200h-32-80v-200z"/><path d="m128-768h-128z"/><path d="m-120-768h-136z"/><path d="m128-640v-128z"/><path d="m-32-640h-224 128 16z"/><path d="m112-752h-80z"/><path d="m-152-752h-88z"/><path d="m0-656h112-80-32-16z"/><path d="m-256-768v128z"/><path d="m-216-192h-64z"/><path d="m-280-192v64z"/><path d="m-304-264h-16-48z"/><path d="m-352-176v-16 16 8 40z"/><path d="m-304-192h16-32-32z"/><path d="m56-1536h-48z"/><path d="m-32-1408h-56-48-120v-128h96 128z"/><path d="m-128-1536h112-16-128z"/><path d="m-16-1536h96 48v128h-48-112v-128z"/><path d="m-128-1536h-32v8h32z"/><path d="m-408-1024v128h16v-128z"/><path d="m-392-1024h-16z"/><path d="m-392-896h-16z"/><path d="m-408-896v-128z"/><path d="m-384-1112v56z"/><path d="m-384-1144v-40z"/><path d="m-384-1280h8z"/><path d="m-376-1144h-8z"/><path d="m-384-1112v-32h8v32z"/><path d="m-376-1112v-32z"/><path d="m256-1440v64 160-8-48-16-48-16-48-16z"/><path d="m256-1088v-32z"/><path d="m184-1536h16 56-120-8-8-48-16 72z"/><path d="m128-1344v-32-32 8 48 16 48 16 48 8z"/><path d="m184-1464v-16z"/><path d="m200-1464h-16z"/><path d="m256-1536h-56v56 16h56z"/><path d="m200-1536h-16v56h16z"/><path d="m184-1480h16z"/><path d="m200-1480v16z"/><path d="m200-1464h-16v88h72v-64-24z"/><path d="m184-1464v-16-56h-56v128 32h56z"/><path d="m184-1376h-56v32 128h128v-160z"/><path d="m192-1120h-64z"/><path d="m192-1088v-32z"/><path d="m256-1088h-64z"/><path d="m256-1088h-64v-32h64z"/><path d="m0-1216h-224v-128h224z"/><path d="m128-1344v128h-128v-128z"/><path d="m0-1056h-224v-128h224z"/><path d="m96-1184v128h-96v-128z"/><path d="m0-1216h128z"/><path d="m0-416v83.2h128v-83.2z"/><path d="m-256-416v83.2h128v-83.2z"/><path d="m48-1168v8 80 8z"/><path d="m72-1072v-8-80-8z"/><path d="m72-1168h-24v96h24z"/><path d="m256-1048v24 112 88-200z"/><path d="m-160-1536h-64z"/><path d="m-304-1536h80z"/><path d="m0-1536h40 40-96-112z"/><path d="m-224-1536h64-144z"/><path d="m-384-1280v96 40 32z"/><path d="m-32-1024h-128-96z"/><path d="m-384-1024h128z"/><path d="m128-1024h-64z"/><path d="m128-1024v-96z"/><path d="m256-1120h-64z"/><path d="m80-1408h48-16-112z"/><path d="m0-1408h-32z"/><path d="m-32-1408h-224 16 152z"/><path d="m80-1408h-80-32z"/><path d="m-160-1536v8z"/><path d="m-256-1280v224-88-40z"/><path d="m-256-1408v32z"/><path d="m-256-1376v-32 128z"/><path d="m72-1168h-24z"/><path d="m48-1072h24z"/><path d="m48-1072v-8z"/><path d="m48-1080v-80h8v80z"/><path d="m56-1080v-80h8v80z"/><path d="m64-1080v-80h8v80z"/><path d="m48-1080h8z"/><path d="m56-1080h8z"/><path d="m64-1080h8z"/><path d="m56-1160h-8z"/><path d="m64-1160h-8z"/><path d="m72-1160h-8z"/><path d="m72-1168v8z"/><path d="m-256-1056h-128z"/><path d="m64-1160h-8v80h8z"/><path d="m-216-396.8v140.8h-40v-140.8z"/><path d="m-128-480v-160h-128v160 64h128z"/><path d="m-128-480v64 83.2 76.8-160z"/><path d="m128-480v64 83.2 12.8 64-160z"/><path d="m128-480v-160h-128v160 64h128z"/><path d="m256-1536v96z"/><path d="m256-1120v-32-32z"/><path d="m256-1120v96-24-40z"/><path d="m256-272v136 8z"/><path d="m40-1536h88-48z"/><path d="m40-1536h-40 8z"/><path d="m-384-168v-64-40 96 48z"/><path d="m-280-128h-8z"/><path d="m232-128h24-64z"/><path d="m8-128h-40-184 88 128z"/><path d="m232-128h-40-184 120z"/><path d="m128-1344v-64z"/><path d="m128-1344v-64-128h48 80v96 128h-128z"/><path d="m256-1312v96h-32-48-48v-96z"/><path d="m224-1152v-32h32v32z"/><path d="m192-1120v-32h32 32v32z"/><path d="m224-1216h-16-32z"/><path d="m192-1152v32z"/><path d="m192-1120h64-64-64z"/><path d="m-216-192v64z"/><path d="m-288-192v64z"/><path d="m-216-192v64h-40-24v-64z"/><path d="m-352-168v-8h16v8z"/><path d="m-352-176h-16v8h16z"/><path d="m-352-168h-16v-8h16z"/><path d="m-336-168h16v40h-32v-40z"/><path d="m-368-176v-24-32h-16v64h16z"/><path d="m-368-200v24h16v-16-8z"/><path d="m-352-200v8h32v-8z"/><path d="m-320-232v-32h16v64h-16z"/><path d="m-320-168v-24h32v64h-32z"/><path d="m-320-264v32h-48v-32z"/><path d="m-368-232h48-16-32-16z"/><path d="m-368-176v8z"/><path d="m-352-200h32 16-48-16z"/><path d="m-304-264v8 56z"/><path d="m-368-232v32-64z"/><path d="m-336-176h-32v8h32z"/><path d="m128-416v160h-128v-160z"/><path d="m-128-416v160h-88v-140.8-19.2z"/><path d="m0-1344h128z"/><path d="m0-1216h128v-128h-128z"/><path d="m-384-1312v-144z"/><path d="m208-1216h16z"/><path d="m208-1224h-32v8h32z"/><path d="m176-1216h-48z"/><path d="m8-1528v-8z"/><path d="m40-1536h-32v8h32z"/><path d="m40-1536v8z"/><path d="m40-1528h-32z"/><path d="m-384-1456h8z"/><path d="m-384-1280v-32h8v32z"/><path d="m-376-1312h-8z"/><path d="m-376-1280v-32z"/><path d="m-256-480v83.2 140.8-76.8-83.2z"/><path d="m0-480v64 160-76.8-83.2z"/><path d="m0-480v-121.6-38.4h112 16v16 3.2 140.8 64h-128z"/><path d="m224-1184h32z"/><path d="m256-1216h-32z"/><path d="m224-1184v32z"/><path d="m224-1152h-32v-32h32z"/><path d="m224-1152h-32z"/><path d="m0-1408h112z"/><path d="m8-1344h104 16z"/><path d="m0-1344h8 120v32 96h-128-32v-128z"/><path d="m176-1536h32 48z"/><path d="m176-1536h-48-88z"/><path d="m-384-1536h48z"/><path d="m-384-1488v-48z"/><path d="m208-1536h-32v8h32z"/><path d="m-304-1528v-8z"/><path d="m-384-1456v-32h8v32z"/><path d="m-304-1528h-32v-8h32z"/><path d="m-376-1488h-8z"/><path d="m-336-1536v8z"/><path d="m-336-1528h32z"/><path d="m-376-1456v-32z"/><path d="m-32-1216h32-128-32-48z"/><path d="m-32-1344h-192 192 32z"/><path d="m-32-1216h-176-16-32v-128h32 192z"/><path d="m128-1408v64z"/><path d="m112-1408h16z"/><path d="m40-1216h-32-8 128z"/><path d="m128-1344h-16z"/><path d="m112-1344h-104-8z"/><path d="m40-1224h-32v8h32z"/><path d="m256-1024v112z"/><path d="m-384-128v-40z"/><path d="m-384-232v-40z"/><path d="m-384-128h32 32 32 8 24z"/><path d="m128-1120h64z"/><path d="m256-1184h-32-32z"/><path d="m192-1120h-64v-64h64z"/><path d="m192-1184v32 32z"/><path d="m0-768h128-16-128-16z"/><path d="m0-640h128-160z"/><path d="m-240-752v8 88z"/><path d="m112-656v-88-8z"/><path d="m-16-656h16v-88-8-16h-32-88v16 8 88z"/><path d="m32-744v88h80v-96h-80z"/><path d="m0-744v88h32v-88z"/><path d="m-152-744v88h32v-88z"/><path d="m-240-656h88v-88-8h-88z"/><path d="m32-744h-32z"/><path d="m-120-744h-32z"/><path d="m-120-752v8z"/><path d="m-120-768v16z"/><path d="m0-752v-16z"/><path d="m0-744v-8z"/><path d="m32-752v8z"/><path d="m-152-744v-8z"/><path d="m-16-656h-104-32-88 152z"/><path d="m0-640v38.4 121.6z"/><path d="m-112-640h-16v38.3999 38.3999l16 .0001z"/><path d="m-256-640v16 3.2 140.8z"/><path d="m-368-168h16 16z"/><path d="m-336-168h-16-16z"/><path d="m-368-168h-16z"/><path d="m-320-168h-16z"/><path d="m-320-232v32 8 24z"/><path d="m-336-176h-32v-56h32z"/><path d="m-384-232h16v56 8h-16z"/><path d="m-336-176h-32v8h32z"/><path d="m-336-168h-32v-8h32z"/><path d="m-320-168h-16v-8-56h16z"/><path d="m-336-168v-8z"/><path d="m-336-176h-16-16z"/><path d="m-336-168h-32v-8h32z"/><path d="m-336-176v8z"/><path d="m-368-168v-8z"/><path d="m-368-176h32z"/><path d="m-336-168h-32z"/><path d="m0-1536h8z"/><path d="m-128-1536h128z"/><path d="m176-1224h32z"/><path d="m208-1216h-32v-8h32z"/><path d="m176-1216v-8z"/><path d="m256-1216h-48 16z"/><path d="m208-1224v8z"/><path d="m-128-1528v-8z"/><path d="m-128-1528h-32v-8h32z"/><path d="m-160-1528h32z"/><path d="m-128-601.6001v-38.3999 76.7998z"/><path d="m-128-601.6001v-38.3999 160z"/><path d="m-224-1216h224z"/><path d="m-224-1344h224z"/><path d="m-224-1344v128h224v-128z"/><path d="m-224-1216v-128z"/><path d="m256-720v-104-56 224z"/><path d="m256-912v32 56z"/><path d="m256-496v96 32 96-48z"/><path d="m256-720v64 32 128-48z"/><path d="m256-496v-128 224z"/><path d="m256-272v-96z"/><path d="m-384-1024v80z"/><path d="m-32-128h16-96z"/><path d="m192-128h64-24-216z"/><path d="m-32-128h-80-32-112 40z"/><path d="m192-128h-176-32-16 40z"/><path d="m256-912h-128v32h128z"/><path d="m-256-912h-128v32h128z"/><path d="m128-620.8v-3.2-16 160z"/><path d="m128-624v3.2z"/><path d="m128-656v-112 128z"/><path d="m256-656h-128v16 16h128z"/><path d="m256-400h-128v32h128z"/><path d="m-256-656h-128v16h128z"/><path d="m-256-656v-112z"/><path d="m-256-656v16-128z"/><path d="m16-256h-32v128h32z"/><path d="m-216-620.8003v-19.1997h88v38.3999 121.6001 64h-88z"/><path d="m-112-256h-32v128h32z"/><path d="m-256-400h-128v32h128z"/><path d="m-384-640v16h128v-16z"/><path d="m-216-620.8003v204.8003 19.2h-40v-83.2-140.8z"/><path d="m128-624h128z"/><path d="m-256-624v-8-8z"/><path d="m-256-624v3.2z"/><path d="m-256-624v-16h16 24v19.1997l-40 .0003z"/><path d="m-256-624h-128z"/></g><g id="c"><path d="m256-656v-224-8 72 168z"/><path d="m256-904v-8z"/><path d="m256-400v-224-8 40 200z"/><path d="m256-368v-8z"/><path d="m-224-1536h192 32-128-32z"/><path d="m-32-1536h-192-32z"/><path d="m-336-1536h80 32-80z"/><path d="m-384-376v8z"/><path d="m-384-624v128 96z"/><path d="m-384-656v8z"/><path d="m-384-656v-168 104z"/><path d="m-384-888v8 56z"/><path d="m-384-824v-56z"/><path d="m-384-912v-112 80z"/><path d="m-384-1184v-96 168 56z"/><path d="m-384-1408v-48 144 32z"/><path d="m-384-1456v-80 48z"/><path d="m-144-128h-16-96z"/><path d="m-144-128h8z"/><path d="m-112-128h96 8-112z"/><path d="m256-128h-24z"/><path d="m-256-1536h-80-48v80 48h128z"/><path d="m-256-1280v96 128z"/><path d="m-384-1408v128 96h128v-96-128z"/><path d="m-384-1184v128h128v-128z"/><path d="m-136-136v8h-8v-128h8z"/><path d="m-112-128h-8v-8-120h8z"/><path d="m-120-272h-8-8v16h16z"/><path d="m-256-368h-128v-8h128z"/><path d="m-384-392v-8h128v8z"/><path d="m-240-392h-16v16h16z"/><path d="m-8-136v8h-8v-128h8z"/><path d="m16-128h-8v-8-120h8z"/><path d="m8-272h-8-8v16h16z"/><path d="m128-392h-16v16h16z"/><path d="m256-368h-128v-8h128z"/><path d="m128-392v-8h128v8z"/><path d="m-256-624h-128v-8h128z"/><path d="m-256-640v8h16v-8z"/><path d="m-384-648v-8h128v8z"/><path d="m-256-648v-8-112h16v120z"/><path d="m-16-640h-112-88-24v-8-120h208 16z"/><path d="m112-768v120 8h-112-16v-128z"/><path d="m112-640v8h16v-8z"/><path d="m256-624h-128v-8h128z"/><path d="m112-648v-120h16v112 8z"/><path d="m128-648v-8h128v8z"/><path d="m-256-880h-128v-8h128z"/><path d="m-384-904v-8h128v8z"/><path d="m-240-904h-16v16h16z"/><path d="m128-904h-16v16h16z"/><path d="m256-880h-128v-8h128z"/><path d="m128-904v-8h128v8z"/><path d="m256-904h-128z"/><path d="m-8-272h8z"/><path d="m-128-272h8z"/><path d="m128-888h-16z"/><path d="m0-640v76.7998 67.2002z"/><path d="m-128-640v144-67.2002z"/><path d="m-240-904h-16z"/><path d="m-120-272v16z"/><path d="m-256-888h-128z"/><path d="m-384-648h128z"/><path d="m-136-136v-120z"/><path d="m-8-136v-120z"/><path d="m8-136v8z"/><path d="m-120-136v8z"/><path d="m-32-768h-208-16 136z"/><path d="m-256-888v-16-8 32z"/><path d="m128-904v16 8-32z"/><path d="m256-880h-128z"/><path d="m128-912h128z"/><path d="m-384-912h128z"/><path d="m-256-880h-128z"/><path d="m128-392v16 8-32z"/><path d="m128-632v8-16z"/><path d="m128-768v112z"/><path d="m128-400h128z"/><path d="m128-656h128z"/><path d="m256-368h-128z"/><path d="m-384-656h128z"/><path d="m-112-256v128z"/><path d="m8-256h-16-8 32z"/><path d="m0-640v38.4 38.3998z"/><path d="m0-563.2002v-38.3998-38.4h-32-80v76.7999z"/><path d="m16-256v128z"/><path d="m-16-128v-128z"/><path d="m-120-256h-16-8 32z"/><path d="m-144-128v-128z"/><path d="m-384-400h128z"/><path d="m-256-368h-128z"/><path d="m-256-376v-16-8 32z"/><path d="m256-1024v-96-64 56z"/><path d="m256-888v-16-8-112 120 16 72z"/><path d="m-384-592v-40 8 224 8z"/><path d="m-384-592v200 16 8-8-16z"/><path d="m-384-904v-120 112z"/><path d="m232-128h-152-72 8z"/><path d="m232-128h24-128-48z"/><path d="m-128-1224h-32v8h32z"/><path d="m48-1160v-8z"/><path d="m64-1160v80h8v-80z"/><path d="m56-1160v80h8v-80z"/><path d="m48-1160v80h8v-80z"/><path d="m64-1080v-80z"/><path d="m64-1160v80z"/><path d="m56-1080v-80z"/><path d="m56-1160v80z"/><path d="m256-632h-128z"/><path d="m256-888h-128z"/><path d="m256-888h-128v-16h128z"/><path d="m256-648h-128z"/><path d="m128-648h128v16h-128z"/><path d="m128-392h128z"/><path d="m256-376h-128z"/><path d="m256-376h-128v-16h128z"/><path d="m-136-256h16z"/><path d="m-256-648v16z"/><path d="m128-904h-16z"/><path d="m-240-888h-16z"/><path d="m-8-256v-16z"/><path d="m-256-632h-128z"/><path d="m-256-904h-128z"/><path d="m-256-888h-128v-16h128z"/><path d="m-384-648h128v16h-128z"/><path d="m-384-392h128z"/><path d="m-256-376h-128z"/><path d="m-256-376h-128v-16h128z"/><path d="m8-256v120z"/><path d="m-8-136v-120h16v120z"/><path d="m-120-256v120h-16v-120z"/><path d="m-120-256v120z"/><path d="m-8-128v-8h16v8z"/><path d="m-120-136v8h-16v-8z"/><path d="m-8-128v-8z"/><path d="m-136-128v-8z"/><path d="m64-1080h-8v-80h8z"/><path d="m64-1080h-8z"/><path d="m56-1160h8z"/><path d="m64-1160v80z"/><path d="m56-1080v-80z"/><path d="m-224-1344h-32 16z"/><path d="m40-1216h88z"/><path d="m8-1216h-8z"/><path d="m8-1216v-8z"/><path d="m40-1216h-32v-8h32z"/><path d="m40-1224v8z"/><path d="m8-1224h32z"/><path d="m72-1080v8h-24v-96h24z"/><path d="m48-1072v-8-80-8z"/><path d="m72-1168v8 80z"/><path d="m72-1072v-8z"/><path d="m0-496v40 184-144z"/><path d="m-384-1184v128z"/><path d="m-384-1440v32 192-184-8z"/><path d="m-384-1440v-96h128v128h-128z"/><path d="m-256-1056v-128z"/><path d="m-256-1408v64z"/><path d="m-256-1216h32z"/><path d="m-256-1216h-48-32-48z"/><path d="m-256-1408v64 128h-128v-192z"/><path d="m-256-1184h-128z"/><path d="m-256-1056h-128z"/><path d="m-256-1056h-128v-128h128z"/><path d="m-128-456v184h8v-184z"/><path d="m-120-456h112 8v-40-67.2002l-112 .0001-16-.0001v67.2002 40z"/><path d="m40-1528h-32v-8h32z"/><path d="m-304-1224h-32v8h32z"/><path d="m0-1184h-224z"/><path d="m96-1184h-96z"/><path d="m96-1056v-128z"/><path d="m-224-1184v128z"/><path d="m-224-1056h224z"/><path d="m0-1056h96z"/><path d="m-128-496v80 144-184z"/><path d="m-128-496v-144h112 16v144 80h-128z"/><path d="m-160-1536h-96-128z"/><path d="m-256-1024h16 48 160z"/><path d="m128-1024h-64-96z"/><path d="m8-272h-8z"/><path d="m112-376v-16z"/><path d="m112-632v-8-8z"/><path d="m112-888v-16z"/><path d="m112-648h16z"/><path d="m128-888h-16z"/><path d="m112-904h16z"/><path d="m112-392h16z"/><path d="m128-632h-16z"/><path d="m128-376h-16z"/><path d="m-240-392v16z"/><path d="m-240-648v8 8z"/><path d="m-240-904v16z"/><path d="m-256-648h16z"/><path d="m-240-888h-16z"/><path d="m-256-904h16z"/><path d="m-256-392h16z"/><path d="m-240-632h-16z"/><path d="m-240-376h-16z"/><path d="m8-272v16z"/><path d="m-136-256v-16z"/><path d="m-136-1408h-104-16z"/><path d="m-136-1408h48-152z"/><path d="m-224-1344h-16z"/><path d="m-32-1408h-224z"/><path d="m-32-1536h-224v128h224z"/><path d="m208-1536h48z"/><path d="m208-1528h-32z"/><path d="m208-1528h-32v-8h32z"/><path d="m176-1528v-8z"/><path d="m208-1536v8z"/><path d="m-128-1216h128-32z"/><path d="m-224-1216h64 32z"/><path d="m-160-1216h-64 16z"/><path d="m-128-1216h-32v-8h32z"/><path d="m-128-1224v8z"/><path d="m-160-1216v-8z"/><path d="m-160-1224h32z"/><path d="m0-1408h128v-128h-128-32v128z"/><path d="m0-1536h-32z"/><path d="m128-1344v-64z"/><path d="m-256-1408h16z"/><path d="m-256-1344v-64z"/><path d="m0-1344h128-16z"/><path d="m-32-1344h-192-16-16z"/><path d="m-240-1344h-16z"/><path d="m0-416v144h-8-112-8v-144z"/><path d="m-32-1408h-56-48-120v-128h96 128z"/><path d="m256-1184v56z"/><path d="m256-592v200 16 8-8-16z"/><path d="m256-816v168 16 40-40-16z"/><path d="m256-816v-72 240z"/><path d="m256-592v-40 240z"/><path d="m256-368v-8z"/><path d="m-384-368v96z"/><path d="m-384-632v-16-8 8 16 40z"/><path d="m-384-824v-64-16 16z"/><path d="m256-1184h-64-64z"/><path d="m-336-1216h32z"/><path d="m-336-1216h-48z"/><path d="m-304-1216h-32v-8h32z"/><path d="m-336-1224h32z"/><path d="m-304-1224v8z"/><path d="m-336-1216v-8z"/><path d="m128-392v16z"/><path d="m128-648v16z"/><path d="m128-904v16z"/><path d="m256-392h-128v16h128z"/><path d="m256-648h-128v16h128z"/><path d="m256-888v-16h-128v16z"/><path d="m-256-888v-16z"/><path d="m-256-376v-16z"/><path d="m128-648h-16z"/><path d="m128-904h-16z"/><path d="m128-392h-16z"/><path d="m-256-888h16z"/><path d="m-256-632h16z"/><path d="m-256-376h16z"/><path d="m-256-392h-128v16h128z"/><path d="m-256-648h-128v16h128z"/><path d="m-256-888v-16h-128v16z"/><path d="m-128-272h-8z"/><path d="m-8-272v-184h-112v184z"/><path d="m0-272v-184h-8v184z"/></g><g id="d"><path d="m256-1440v128 96-96z"/><path d="m256-1128v104 120-120z"/><path d="m176-1536h80-48z"/><path d="m128-1536h48-136-32-8z"/><path d="m-384-128v-8-120-16 40 64z"/><path d="m-384-368v-8z"/><path d="m-384-632v40 200z"/><path d="m-384-888v64 168 8z"/><path d="m-384-1536v96z"/><path d="m80-128h-16-208 8 16 112 16z"/><path d="m128-1184v64 96z"/><path d="m256-1312v-128-96h-80-48v128 64 32z"/><path d="m128-1216h128v-96h-128z"/><path d="m256-1128v-56h-128v160h128z"/><path d="m128-1216h48 32 48z"/><path d="m128-1408h-128 112z"/><path d="m-256-1400v56-64z"/><path d="m-32-1344h-224v128h32 96 96z"/><path d="m0-1216h128v-96-32h-160v128z"/><path d="m0-1216h8 32 88z"/><path d="m128-1344h-128-32z"/><path d="m-304-1216h48z"/><path d="m-256-1344v-56h-128v184h48 32 48z"/><path d="m-256-1408h-128v8h128z"/><path d="m-256-1056v-128h-128v128z"/><path d="m128-376v24 96z"/><path d="m128-632v56 184z"/><path d="m128-888v88 152z"/><path d="m128-904v-120z"/><path d="m256-136v-136-96-8h-128v120 120z"/><path d="m256-632h-128v240h128z"/><path d="m256-888h-128v240h128z"/><path d="m128-1024v120h128v-120z"/><path d="m256-632h-128z"/><path d="m256-888h-128z"/><path d="m128-904h128z"/><path d="m128-648h128z"/><path d="m256-376h-128z"/><path d="m128-392h128z"/><path d="m-256-256h96 24z"/><path d="m8-256h-16z"/><path d="m8-256h56 64z"/><path d="m-256-1024v120z"/><path d="m8-256v-16z"/><path d="m-8-256v-16h-112v16z"/><path d="m-384-376v8 96 16h128v-120z"/><path d="m-256-632h-128v240h128z"/><path d="m-256-888h-128v240h128z"/><path d="m-256-904v-120h-128v120z"/><path d="m-384-648h128z"/><path d="m-256-888h-128z"/><path d="m-384-904h128z"/><path d="m-384-392h128z"/><path d="m-256-632h-128z"/><path d="m-256-376h-128z"/><path d="m-160-256h-96-128v120h224z"/><path d="m64-256h-56-16-112-16-24v120h224z"/><path d="m128-136v-120h-64v120z"/><path d="m-160-136h-224v8h128 96z"/><path d="m64-136h-224v8h16 208z"/><path d="m80-128h48v-8h-64v8z"/><path d="m128-128h128v-8h-128z"/><path d="m64-1536h-96-128z"/><path d="m64-1536h64v8 120h-160v-128z"/><path d="m-8-272v16h-24-88v-16z"/><path d="m-136-272v16z"/><path d="m128-1536h-64z"/><path d="m-384-1528v120-64z"/><path d="m-384-1528v-8 96 32z"/><path d="m248-1528v56z"/><path d="m128-1344v-64-120h120v56 168h-120z"/><path d="m248-1304v56 168h-120v-104-32-88z"/><path d="m248-1080v56h-120v-56z"/><path d="m128-1408h-160z"/><path d="m-160-1536h-224v8h224z"/><path d="m64-1536h-224v8h224z"/><path d="m128-1528v-8h-64v8z"/><path d="m-160-1528h-224z"/><path d="m64-1528h-224z"/><path d="m128-1528h-64z"/><path d="m-256-1400v152z"/><path d="m128-1344h-96z"/><path d="m0-1344h-224 8z"/><path d="m32-1216h-32z"/><path d="m0-1216h-224v-128h224z"/><path d="m32-1344h96v40 88h-96-32v-128z"/><path d="m-376-1248v-152h120v152 72h-120z"/><path d="m-256-1176v152h-120v-152z"/><path d="m-376-1248v72 152-152z"/><path d="m128-136h120-176z"/><path d="m248-1024v216 8h-120v-88-16-120z"/><path d="m248-800v216 8h-120v-56-168z"/><path d="m248-576v216 8h-120v-24-200z"/><path d="m248-352v216h-120v-120-96z"/><path d="m-256-800v-88 240z"/><path d="m-256-576v-56 240z"/><path d="m-256-352v-24 120z"/><path d="m-120-256v-16z"/><path d="m-376-480v128 96-96z"/><path d="m-376-704v128 96-96z"/><path d="m-376-928v128 96-96z"/><path d="m-376-1024v96z"/><path d="m-256-1024v120 16 88h-120v-128-96z"/><path d="m-256-800v152 16 56h-120v-128-96z"/><path d="m-256-576v184 16 24h-120v-128-96z"/><path d="m-256-352v96h-120v-96z"/><path d="m-376-256v120z"/><path d="m-32-136h-120-104v-120h120 16 88z"/><path d="m-8-256h16 120v120h-56-104v-120z"/><path d="m-256-256v120h-120v-120z"/><path d="m128-1344h-16v128h16z"/><path d="m256-1528v-8 64z"/><path d="m-160-1536h-224z"/><path d="m64-1536h-224z"/><path d="m-384-352v96 120 8z"/><path d="m-384-576v224z"/><path d="m-384-800v224z"/><path d="m-384-1024v224z"/><path d="m-384-1248v72 152z"/><path d="m-384-1472v64 8 152z"/><path d="m248-128h8-192z"/><path d="m248-1528h-120z"/><path d="m256-1536v8h-8-120v-8z"/><path d="m248-1472v-56h8v56 168h-8z"/><path d="m256-1304v56 168h-8v-168-56z"/><path d="m256-1080v56h-8v-56z"/><path d="m248-1248v168 56-56z"/><path d="m248-1472v168 56-56z"/><path d="m-256-1408h-128z"/><path d="m-160-1528h-224v-8h224z"/><path d="m64-1528h-224v-8h224z"/><path d="m128-1528h-64v-8h64z"/><path d="m-256-1400v-8z"/><path d="m-256-1400h-120z"/><path d="m-256-1400h-120-8v-8h128z"/><path d="m-376-1400v152z"/><path d="m-384-1248v-152h8v152 72h-8z"/><path d="m-376-1176v152h-8v-152z"/><path d="m-152-136h-8-216 120z"/><path d="m72-136h-8-216 120z"/><path d="m256-1024v224h-8v-8-216z"/><path d="m256-800v224h-8v-8-216z"/><path d="m256-576v224h-8v-8-216z"/><path d="m256-352v216h-8v-216z"/><path d="m248-360v8 216-216z"/><path d="m248-584v8 216-216z"/><path d="m248-808v8 216-216z"/><path d="m248-1024v216z"/><path d="m-376-1024v96 128h-8v-224z"/><path d="m-376-800v96 128h-8v-224z"/><path d="m-376-576v96 128h-8v-224z"/><path d="m-376-352v96h-8v-96z"/><path d="m-376-256v120h-8v-120z"/><path d="m256-136v8h-8v-8z"/><path d="m-160-128h-224v-8h8 216z"/><path d="m64-128h-224v-8h8 216z"/><path d="m72-136h176v8h-184v-8z"/><path d="m-224-1248v-64-32 128z"/><path d="m-224-1312v64z"/><path d="m32-1344h-32z"/><path d="m0-1344h-216z"/><path d="m0-1216h-216-8z"/><path d="m-216-1216h216z"/><path d="m0-1344v8h32v-8z"/><path d="m0-1224v8h32v-8z"/><path d="m-216-1344h-8v32h8z"/><path d="m-216-1248h-8v32h8z"/><path d="m128-1344v-64z"/><path d="m0-1336v-8h32v8z"/><path d="m0-1216v-8h32v8z"/><path d="m-216-1216h-8v-32h8z"/><path d="m-216-1312h-8v-32h8z"/><path d="m32-1216h96-128z"/><path d="m0-1344h-216-8z"/><path d="m32-1216h96z"/><path d="m0-1216v-8z"/><path d="m0-1336v-8z"/><path d="m32-1344v8z"/><path d="m32-1224v8z"/><path d="m32-1336h-32z"/><path d="m0-1224h32z"/><path d="m-216-1344v32z"/><path d="m-216-1248v32z"/><path d="m-224-1248h8z"/><path d="m-216-1312h-8z"/><path d="m-224-1184h224z"/><path d="m0-1184h96z"/><path d="m0-1184h-224v128h224z"/><path d="m96-1056v-128h-96v128z"/><path d="m96-1184v128z"/><path d="m-224-1056v-128z"/><path d="m0-1056h-224z"/><path d="m96-1056h-96z"/><path d="m64-768v-184h-8v96 128h8z"/><path d="m56-728v96 128h8v-40-184z"/><path d="m56-504v48 128h8v-176z"/><path d="m40-960h-8-216v8h112 112z"/><path d="m56-952h8v-8h-24v8z"/><path d="m-16-840v16h40v-16z"/><path d="m-184-776v-48-128-8h-8v192 32h8z"/><path d="m-192-736v192 32h8v-40-184z"/><path d="m-192-512v192h8v-8-184z"/><path d="m-72-888v8h16v-40h-16z"/><path d="m-112-824v-16h-40v16z"/><path d="m-16-648v16h40v-16z"/><path d="m-112-632v-16h-40v16z"/><path d="m-16-456v16h40v-16z"/><path d="m-56-400h-16v8 32h16z"/><path d="m40-328h-112-112v8h216 8z"/><path d="m64-320v-8h-8-16v8z"/><path d="m-112-440v-16h-40v16z"/><path d="m32-320h-216-8 216z"/><path d="m-192-960v136 56z"/><path d="m64-544v40 176 8-200z"/><path d="m64-768v40 184-200z"/><path d="m40-960h24-32z"/><path d="m-184-552v40 184-48z"/><path d="m-184-776v40 184-48z"/><path d="m56-952v96z"/><path d="m56-456v80 48z"/><path d="m40-328h16-112-16z"/><path d="m-16-632h8 32z"/><path d="m-16-824h8 32z"/><path d="m-72-920v32z"/><path d="m-112-840h-8-32z"/><path d="m-112-648h-8-32z"/><path d="m-112-456h-8-32z"/><path d="m-16-440h8 32z"/><path d="m-72-400v8z"/></g><g id="e"><path d="m256-1536v64z"/><path d="m256-352v224-8z"/><path d="m256-576v224z"/><path d="m256-800v224z"/><path d="m256-1024v224z"/><path d="m256-1248v224-56z"/><path d="m256-1472v224-56z"/><path d="m-160-1536h-224 208z"/><path d="m64-1536h-224 208z"/><path d="m256-1536h-128-64z"/><path d="m-384-352v224-64z"/><path d="m-384-576v224-64z"/><path d="m-384-800v224-64z"/><path d="m-384-1024v224-64z"/><path d="m-384-1248v224-64z"/><path d="m-384-1472v224-64z"/><path d="m-384-1536v8 56z"/><path d="m-160-128h-224z"/><path d="m64-128h-224z"/><path d="m256-128h-192z"/><path d="m32-1024h32 48 16-160z"/><path d="m128-1024v-144-16 104z"/><path d="m128-1184v-32z"/><path d="m0-1344h-224v128h224z"/><path d="m128-1216v-128h-128v128z"/><path d="m-256-1400v8 144z"/><path d="m-256-1408v8z"/><path d="m-256-1248v224-152z"/><path d="m-224-1344v32 64 32z"/><path d="m0-1216h-224 8z"/><path d="m128-1344h-96-32z"/><path d="m128-392v16z"/><path d="m128-632v-16z"/><path d="m128-888v-16z"/><path d="m128-480v88 16 104 16-16-80z"/><path d="m128-704v56 16 152-96z"/><path d="m128-928v24 16 184-96z"/><path d="m-120-256h-16z"/><path d="m8-256h-16z"/><path d="m-32-256h-88-16-120z"/><path d="m-256-1024v96z"/><path d="m-256-904v16z"/><path d="m-256-632v-16z"/><path d="m-256-376v-16z"/><path d="m8-272h-16 8z"/><path d="m-120-272h-16 8z"/><path d="m112-392v16z"/><path d="m112-648v16z"/><path d="m112-904v16z"/><path d="m112-376v56 16 32h16v-104z"/><path d="m128-480v-152h-16v104 136h16z"/><path d="m128-704v-184h-16v136 104h16z"/><path d="m128-928v-96h-16v48 72h16z"/><path d="m112-888h16z"/><path d="m112-632h16z"/><path d="m112-376h16z"/><path d="m-240-376v-16z"/><path d="m-240-632v-16z"/><path d="m-240-888v-16z"/><path d="m-192-1024h-48v48h40 8z"/><path d="m112-1024h-48v48h8 40z"/><path d="m32-1024h-64-160v48h224z"/><path d="m64-976v-48h-32v48z"/><path d="m112-752v-136-16-72h-40v8 216z"/><path d="m112-528v-104-16-104h-40v8 216z"/><path d="m72-520v200h40v-56-16-136h-40z"/><path d="m112-304v-16h-40v16z"/><path d="m64-320h-24-8z"/><path d="m32-976h-224v8h224z"/><path d="m64-968v-8h-32v8z"/><path d="m64-976v8h8v-8z"/><path d="m-192-968v-8h-8v8z"/><path d="m-192-544v120 104-192z"/><path d="m-192-768v120 104-192z"/><path d="m64-960v8 184z"/><path d="m64-968v8 192 24h8v-8-216z"/><path d="m64-744v200 24h8v-8-216z"/><path d="m64-520v200h8v-200z"/><path d="m32-960h-224 8z"/><path d="m32-968h-224v8h224z"/><path d="m64-960v-8h-32v8z"/><path d="m24-632v176z"/><path d="m24-824v176z"/><path d="m24-888v48-48-32z"/><path d="m24-632h32z"/><path d="m24-824h32z"/><path d="m24-440h32z"/><path d="m-152-392v-48 48 32z"/><path d="m-152-456v-176z"/><path d="m-152-648v-176z"/><path d="m-72-352v24h16v-32h-16z"/><path d="m-56-928v-24h-16v32h16z"/><path d="m-120-632h8-40z"/><path d="m-120-824h8-40z"/><path d="m-56-888v-32-8 8 40z"/><path d="m-8-888h-48z"/><path d="m-56-888h48 32v-32h-80z"/><path d="m-16-840v16z"/><path d="m24-840v-48h-32v48z"/><path d="m-8-840v-48z"/><path d="m-8-840h-8 40z"/><path d="m-120-888h48v-32h-80v32z"/><path d="m-112-824v-16z"/><path d="m-72-880h16z"/><path d="m-72-888v8z"/><path d="m-120-840v-48h-32v48z"/><path d="m-16-648v16z"/><path d="m-8-824v176h32v-176z"/><path d="m-8-648v-176z"/><path d="m-8-648h-8 40z"/><path d="m-112-632v-16z"/><path d="m-152-824v176h32v-176z"/><path d="m-120-824v176z"/><path d="m-8-456h-8 40z"/><path d="m-120-632v176z"/><path d="m-8-456v-176z"/><path d="m24-456v-176h-32v176z"/><path d="m-152-632v176h32v-176z"/><path d="m-56-392v-8 40z"/><path d="m-8-392h-48z"/><path d="m-16-456v16z"/><path d="m-8-440v48h32v-48z"/><path d="m-56-360h80z"/><path d="m24-360v-32h-32-48v32z"/><path d="m-120-392h48z"/><path d="m-112-440v-16z"/><path d="m-56-400h-16z"/><path d="m-152-440v48h32v-48z"/><path d="m-120-440v48z"/><path d="m-120-440h8-40z"/><path d="m-120-392h-32v32h80v-32z"/><path d="m-152-360h80z"/><path d="m-72-352v-8 32z"/><path d="m-72-392v32 8-8z"/><path d="m-152-648h-32z"/><path d="m-152-456h-32z"/><path d="m-192-544v-104h-8v224h8z"/><path d="m-200-424v104h8v-104z"/><path d="m-192-648v-120-56h-8v176z"/><path d="m-200-824h8v-136-8h-8z"/><path d="m24-320h-216-8v16h184 40z"/><path d="m72-320h-8-32-8v16h48z"/><path d="m-200-320h-40v16h40z"/><path d="m-200-648h-40v16 208h40z"/><path d="m-240-424v32 16 56h40v-104z"/><path d="m-200-824h-40v176h40z"/><path d="m-240-976v72 16 64h40v-144-8z"/><path d="m-16-304h-184-40v32h104 16 104z"/><path d="m-8-272h16 104v-32h-40-48-40v32z"/><path d="m-240-904v-72-48h-16v96 24z"/><path d="m-240-824v-64h-16v64z"/><path d="m-240-824h-16v120 56h16z"/><path d="m-240-424v-208h-16v152 88h16z"/><path d="m-240-272v-32-16-56h-16v104z"/><path d="m-240-648h-16z"/><path d="m-240-904h-16z"/><path d="m-240-392h-16z"/><path d="m112-272h-104v16h120v-16z"/><path d="m-32-256h24v-16h-8-104v16z"/><path d="m-136-256v-16h-104-16v16z"/><path d="m-8-272v16z"/><path d="m128-1216h-16z"/><path d="m112-1344h16z"/><path d="m128-1216h-16v-128h16z"/><path d="m128-1344v128z"/><path d="m112-1216v-128z"/><path d="m-184-824v48z"/><path d="m-184-600v48 176-64-16z"/><path d="m56-456v16 64z"/><path d="m-72-328h-112z"/><path d="m24-392v-48 48 32z"/><path d="m-152-920v32 48-48z"/><path d="m-120-632h8z"/><path d="m-120-824h8z"/><path d="m-56-920v-32 24z"/><path d="m-56-920h80z"/><path d="m24-920v32h-32-48v-32z"/><path d="m-8-840v-48h32v48 16h-32z"/><path d="m-8-840h-8z"/><path d="m-152-920h80z"/><path d="m-72-888h-48z"/><path d="m-56-888h-16-48-32v-32h80 16z"/><path d="m-72-888v8z"/><path d="m-120-888v48z"/><path d="m-152-840v-48h32v48 16h-32z"/><path d="m24-824v176 16h-32v-16-176z"/><path d="m-8-648h-8z"/><path d="m-120-824v176 16h-32v-16-176z"/><path d="m-8-456h-8z"/><path d="m24-632v176h-32v-176z"/><path d="m-120-632v176h-32v-176z"/><path d="m-56-392v-8z"/><path d="m-8-392v-48z"/><path d="m24-456v16 48h-32v-48-16z"/><path d="m-8-392h32v32h-80v-32z"/><path d="m-120-440h8z"/><path d="m-120-456v16 48h-32v-48-16z"/><path d="m-56-360h-16-80v-32h32 48 16z"/><path d="m-72-360h16v32h-16z"/><path d="m-184-632v-16-176 48 176z"/><path d="m-184-840v-112 128z"/><path d="m-56-952h112-16-112z"/><path d="m-184-952h112z"/><path d="m56-856v16 16 176 16-96z"/><path d="m56-456v-48-128 128z"/><path d="m56-376v48z"/><path d="m-56-328h-16z"/><path d="m-56-328h112z"/><path d="m56-824v-16h-32v16z"/><path d="m56-648h-32z"/><path d="m56-632v-16h-32v16z"/><path d="m56-456h-32z"/><path d="m56-440v-16h-32v16z"/><path d="m-56-328v-32z"/><path d="m-184-824h32z"/><path d="m-184-840v16h32v-16z"/><path d="m-184-632h32z"/><path d="m-184-648v16h32v-16z"/><path d="m-184-440h32z"/><path d="m-184-456v16h32v-16z"/><path d="m-176-1552h-224l16 16 16 16h96 96z"/><path d="m48-1552h-224v32h128 96z"/><path d="m272-1552h-16-208v32h96 96z"/><path d="m64-112h192 16l-32-32h-96-96v32z"/><path d="m272-1536v-16l-32 32v96 96h32z"/><path d="m256-352v160 64z"/><path d="m256-576v160 64z"/><path d="m256-800v160 64z"/><path d="m256-1024v160 64z"/><path d="m256-1248v160 64z"/><path d="m256-1472v160 64z"/><path d="m272-1552v16h-16v-16z"/><path d="m256-1472v-64h16v208 16h-16z"/><path d="m272-1312v208 16h-16v-160-64z"/><path d="m272-1088v208 16h-16v-160-64z"/><path d="m272-864v208 16h-16v-160-64z"/><path d="m272-640v208 16h-16v-160-64z"/><path d="m272-416v208 16h-16v-160-64z"/><path d="m272-192v80h-16v-16-64z"/><path d="m256-1536h-192z"/><path d="m-176-1536h-208-16v-16h224z"/><path d="m48-1536h-208-16v-16h224z"/><path d="m256-1536h-192-16v-16h208z"/><path d="m-384-1536v64z"/><path d="m-160-128h-224z"/><path d="m64-128h-224z"/><path d="m-256-1248v-144h16v192 32h-16z"/><path d="m-240-1168v144h-16v-144z"/><path d="m-272-1440v-64-16h-96v96h16 64 16z"/><path d="m112-1200v-192h16v208 16h-16z"/><path d="m128-1168v144h-16v-144z"/><path d="m-32-1392h-16-192-16v-8-8h224z"/><path d="m128-1408v16h-16-144v-16z"/><path d="m240-1520h-96v96h96z"/><path d="m-272-1504v64z"/><path d="m-272-1520v16z"/><path d="m240-1520v96z"/><path d="m112-1200v32 144h16 16v-176z"/><path d="m-32-1392h144l32-32h-192v32z"/><path d="m-272-1424h-16z"/><path d="m-288-1424h-64z"/><path d="m-272-1520h-96z"/><path d="m-368-1424v-96z"/><path d="m128-1392v-16 64 128 32z"/><path d="m-32-1408h-224 16 152z"/><path d="m-256-1248v80 144z"/><path d="m128-1024v96z"/><path d="m160-240h64z"/><path d="m240-240h-16-64-16v80 16h96z"/><path d="m144-240v16 64z"/><path d="m144-144v-16z"/><path d="m240-144h-96z"/><path d="m128-256h-120-16-24z"/><path d="m-256-480v128 80 16-16-104-16z"/><path d="m-256-704v128 96-152-16z"/><path d="m-256-928v128 96-120-64-16z"/><path d="m112-1024h16v96 128h-16z"/><path d="m128-800v96 128h-16v-224z"/><path d="m128-576v96 128h-16v-224z"/><path d="m128-352v80h-16v-80z"/><path d="m112-1024v224h16v-224z"/><path d="m112-800v224h16v-224z"/><path d="m112-576v224h16v-224z"/><path d="m112-352v80h16v-80z"/><path d="m72-968v-8h8v224h-8z"/><path d="m80-752v224h-8v-216-8z"/><path d="m80-528v224h-8v-8-8-200-8z"/><path d="m32-320h-8-216 8z"/><path d="m24-968h-216-8v-8h224z"/><path d="m72-976v8h-8-32-8v-8z"/><path d="m-192-960v192z"/><path d="m64-544v24 200-184z"/><path d="m64-768v24 200-184z"/><path d="m64-768v-192-8h8v216 8h-8z"/><path d="m72-744v216 8h-8v-24-200z"/><path d="m72-520v200h-8v-200z"/><path d="m64-960h-24-8z"/><path d="m32-960h-224v-8h216 8z"/><path d="m64-968v8h-32v-8z"/><path d="m-200-752v-216h8v8 192 24h-8z"/><path d="m-192-744v200 24h-8v-8-216z"/><path d="m-192-520v200h-8v-200z"/><path d="m24-304h-224v-8h224z"/><path d="m72-312v8h-48v-8z"/><path d="m24-312h-224v-8h8 216z"/><path d="m32-320h32 8v8h-48v-8z"/><path d="m-208-976h8v8 216h-8z"/><path d="m-200-752v8 216h-8v-224z"/><path d="m-200-528v8 200 8 8h-8v-224z"/><path d="m-256-928v-96h16v224h-16z"/><path d="m-240-800v224h-16v-128-96z"/><path d="m-240-576v224h-16v-128-96z"/><path d="m-240-352v80h-16v-80z"/><path d="m-240-800v-224h-16v224z"/><path d="m-240-576v-224h-16v224z"/><path d="m-240-352v-224h-16v224z"/><path d="m-240-272v-80h-16v80z"/><path d="m-32-256h-224v-16h16 208z"/><path d="m112-272h16v16h-160v-16z"/><path d="m-32-272h-208l-16 16h208 16z"/><path d="m112-272 16 16v-16z"/><path d="m-272-160v-80h-16-64-16v96h96z"/><path d="m-352-240h64z"/><path d="m-368-240v48 48z"/><path d="m-272-144h-96z"/><path d="m-160-112h-16-208v-16h224z"/><path d="m64-112h-16-208v-16h224z"/><path d="m256-128v16h-192v-16z"/><path d="m-400-1536h16v64 160h-16z"/><path d="m-384-1312v64 160h-16v-224z"/><path d="m-384-1088v64 160h-16v-224z"/><path d="m-384-864v64 160h-16v-224z"/><path d="m-384-640v64 160h-16v-224z"/><path d="m-384-416v64 160h-16v-224z"/><path d="m-384-192v64 16h-16v-80z"/><path d="m-400-1312v224h16v-224z"/><path d="m-400-1088v224h16v-224z"/><path d="m-400-864v224h16v-224z"/><path d="m-400-640v224h16v-224z"/><path d="m-400-416v224h16v-224z"/><path d="m-400-192v80l16-16v-64z"/><path d="m56-320h8-32z"/><path d="m-192-544v32 192-200z"/><path d="m-192-768v32 192-200z"/><path d="m64-952v-8 192z"/><path d="m32-960h-216-8z"/><path d="m-184-328v-48z"/><path d="m-184-376v-64z"/><path d="m-184-456v-56-120 32z"/><path d="m-184-648v-88-88z"/><path d="m-184-840v-112z"/><path d="m-56-952h96 16z"/><path d="m40-952h-96-16-112v-8h216 8z"/><path d="m64-960v8h-8-16v-8z"/><path d="m56-952v112-16z"/><path d="m56-824v96 80z"/><path d="m56-440v64z"/><path d="m56-824v-16-112h8v184 40h-8z"/><path d="m64-728v184 40h-8v-128-16-80z"/><path d="m64-504v184h-8v-8-48-64-16-48z"/><path d="m56-840h-32z"/><path d="m56-840v16h-32v-16z"/><path d="m56-632h-32v-16h32z"/><path d="m56-440h-32v-16h32z"/><path d="m-72-392v-8-24h-16-24-24v48h64z"/><path d="m-112-424v-16h-8-16v16z"/><path d="m-72-392v16h16v-16z"/><path d="m-56-424h-16v24h16z"/><path d="m8-424h-24-24-16v24 8 16h64z"/><path d="m-40-456v32h24v-16-16z"/><path d="m-8-440h-8v16h24v-16z"/><path d="m-8-456v16h16v-16z"/><path d="m-120-632v176h8v-176z"/><path d="m-120-824v176h8v-176z"/><path d="m-16-456h8 16v-144-32h-16-8-24v176z"/><path d="m-16-824v176h8v-176z"/><path d="m-88-648v-208h-24v16 16 176 16h24z"/><path d="m-112-632v176 16 16h24v-208z"/><path d="m-88-880v-24h-48v48h16 8 24z"/><path d="m-120-648v-176-16-16h-16v32 192h16z"/><path d="m-136-632v32 160h16v-16-176z"/><path d="m-112-856h-8v16h8z"/><path d="m-72-880h-16v24h32v-24z"/><path d="m-72-880v-8-16h-16v24z"/><path d="m-56-904h-16v16h16z"/><path d="m-16-648v-176-16-16h-24v208 16h24z"/><path d="m8-824v-32h-16v16 16 176 16h16z"/><path d="m-8-856h-8v16h8z"/><path d="m8-904h-64v16 8 24h16 24 8 16z"/><path d="m-88-904h16 16 64-144z"/><path d="m-136-856v-48 48 32z"/><path d="m8-600v144 16 16 48-48z"/><path d="m8-824v192 32-32z"/><path d="m-72-424h16 16-48z"/><path d="m-40-856v208z"/><path d="m-88-648v16 208-208z"/><path d="m-16-632h8z"/><path d="m-16-824h8z"/><path d="m-56-880v-8z"/><path d="m-8-824v-16z"/><path d="m-72-952v32z"/><path d="m-72-952h16v32h-16z"/><path d="m-56-888h-16z"/><path d="m-120-840v16z"/><path d="m-112-840h-8z"/><path d="m-8-648v16z"/><path d="m-120-632v-16z"/><path d="m-112-648h-8z"/><path d="m-112-456h-8z"/><path d="m-8-456v16z"/><path d="m-16-440h8z"/><path d="m-56-392h-16z"/><path d="m-72-400v8z"/><path d="m-120-440v-16z"/><path d="m-184-840h32z"/><path d="m-184-824v-16h32v16z"/><path d="m-184-648h32v16h-32z"/><path d="m-184-456h32v16h-32z"/><path d="m-72-328h16 112v8h-24-216v-8z"/><path d="m-192-768v-192h8v8 112 16 88h-8z"/><path d="m-184-736v88 16 120h-8v-32-192z"/><path d="m-184-512v56 16 64 48 8h-8v-192z"/><path d="m-384-1536-16-16v16z"/><path d="m-384-1312v224h16v-112-112z"/><path d="m-384-1088v224h16v-112-112z"/><path d="m-384-864v224h16v-112-112z"/><path d="m-384-640v224h16v-112-112z"/><path d="m-384-416v224h16v-48-64-112z"/><path d="m-384-192v64l16-16v-48z"/><path d="m144-1504v-16z"/><path d="m144-1504v64 16-96z"/><path d="m160-1424h-16z"/><path d="m160-1424h64 16-96z"/><path d="m144-1520h96z"/><path d="m224-1248v224-176z"/><path d="m160-1424v176z"/><path d="m160-1248v224h64v-224z"/><path d="m224-1424h-64v176h64z"/><path d="m-48-1440h-224z"/><path d="m144-1504h-192z"/><path d="m-48-1504h-224v64h224z"/><path d="m144-1440v-64h-192v64z"/><path d="m-352-1424v176z"/><path d="m-288-1248v224-176z"/><path d="m-352-1248v224h64v-224z"/><path d="m-288-1424h-64v176h64z"/><path d="m224-240h16z"/><path d="m160-240h-16z"/><path d="m160-464v224h64v-224z"/><path d="m160-688v224h64v-224z"/><path d="m160-912v224h64v-224z"/><path d="m160-1024v112h64v-112z"/><path d="m224-464v224-64z"/><path d="m224-688v224-64z"/><path d="m224-912v224-64z"/><path d="m224-1024v112-64z"/><path d="m128-272v16l16 16v-64-48h-16z"/><path d="m144-224v-16z"/><path d="m144-224h-16z"/><path d="m144-160v-64h-16v64z"/><path d="m8-376h-64-16-64z"/><path d="m-136-600v176 48-48-16z"/><path d="m-136-824v192 32-32z"/><path d="m8-856v-48 48 32z"/><path d="m-40-856h-16-32z"/><path d="m8-904v48h-48-48-48v-48z"/><path d="m-40-648v16 208-32-176z"/><path d="m-40-648v-208h48v32 192h-48z"/><path d="m8-632v32 176h-48v-208z"/><path d="m-88-856v208z"/><path d="m-136-824v-32h48v208 16h-48z"/><path d="m-88-632v208h-48v-176-32z"/><path d="m-88-424h48 48v48h-144v-48z"/><path d="m128-256-16-16h-144v16z"/><path d="m-256-256 16-16h-16z"/><path d="m-352-480v224h64v-224z"/><path d="m-352-704v224h64v-224z"/><path d="m-352-928v224h64v-224z"/><path d="m-352-1024v96h64v-96z"/><path d="m-288-480v224-48z"/><path d="m-288-704v224-48z"/><path d="m-288-928v224-48z"/><path d="m-288-1024v96-48z"/><path d="m-272-160v16z"/><path d="m-272-224v-16 80z"/><path d="m-48-224h-224v64h224z"/><path d="m128-224h-176v64h176z"/><path d="m-48-256h-208l-16 16h224z"/><path d="m128-256h-160-16v16h176z"/><path d="m-48-160h-224z"/><path d="m128-160h-176z"/><path d="m-288-240h16z"/><path d="m-352-240h-16z"/><path d="m-288-256v16z"/><path d="m-352-256v16h64v-16z"/><path d="m-384-1536h-16v224h16z"/></g><g id="f"><path d="m-176-144h-96-96l-16 16-16 16h16 208z"/><path d="m48-144h-96-128v32h16 208z"/><path d="m240-1328v128 96h32v-208-16z"/><path d="m240-1104v128 96h32v-208-16z"/><path d="m240-880v128 96h32v-208-16z"/><path d="m240-656v128 96h32v-208-16z"/><path d="m240-432v128 64 32h32v-208-16z"/><path d="m240-208v64l32 32v-80-16z"/><path d="m-368-1424v-96l-16-16v224h16z"/><path d="m240-1328v-96h-16v176 48h16z"/><path d="m224-1200v176 48h16v-128-96z"/><path d="m224-976v64 160h16v-128-96z"/><path d="m224-752v64 160h16v-128-96z"/><path d="m224-528v64 160h16v-128-96z"/><path d="m224-304v64h16v-64z"/><path d="m160-1248v-176h-16v224h16z"/><path d="m144-1200v176 48h16v-48-176z"/><path d="m144-976v176 48h16v-160-64z"/><path d="m144-752v176 48h16v-160-64z"/><path d="m144-528v176 48h16v-160-64z"/><path d="m144-304v64h16v-64z"/><path d="m-48-1520h-128-96v16h224z"/><path d="m144-1504v-16h-96-96v16z"/><path d="m-48-1440h-224v16h224z"/><path d="m144-1424v-16h-192v16z"/><path d="m-272-1424h-16v176 48h16z"/><path d="m-288-1200v176 48h16v-48-176z"/><path d="m-288-976v48 176h16v-48-176z"/><path d="m-288-752v48 176h16v-48-176z"/><path d="m-288-528v48 176h16v-48-176z"/><path d="m-288-304v48 16h16v-16-48z"/><path d="m-352-1248v-176h-16v112 112h16z"/><path d="m-368-1200v112 112h16v-48-176z"/><path d="m-368-976v112 112h16v-176-48z"/><path d="m-368-752v112 112h16v-176-48z"/><path d="m-368-528v112 112h16v-176-48z"/><path d="m-368-304v64h16v-16-48z"/><path d="m-48-240h-224v16h224z"/><path d="m128-224h16v-16h-16-176v16z"/><path d="m-48-160h-224v16h96 128z"/><path d="m48-144h96v-16h-16-176v16z"/><path d="m-272-1424v-16z"/><path d="m144-1424v-16z"/><path d="m240-1424h-16z"/><path d="m224-1424v176z"/><path d="m160-1248v48 176z"/><path d="m144-1440h-192z"/><path d="m-48-1504h-224z"/><path d="m-272-1424v224h32v-192z"/><path d="m-272-1200v176h16 16v-144-32z"/><path d="m144-1424-32 32v192h32z"/><path d="m-48-1424h-224l32 32h192z"/><path d="m-368-1424h16z"/><path d="m-352-1248v48 176z"/><path d="m-288-1424v176z"/><path d="m160-464v160 64z"/><path d="m160-688v160 64z"/><path d="m160-912v160 64z"/><path d="m160-1024v48 64z"/><path d="m144-800v-176-48h-16v224z"/><path d="m144-576v-176-48h-16v224z"/><path d="m144-352v-176-48h-16v224z"/><path d="m144-240-16-16v16z"/><path d="m240-208v-32 96z"/><path d="m144-160h-16z"/><path d="m-352-480v176 48z"/><path d="m-352-704v176 48z"/><path d="m-352-928v176 48z"/><path d="m-352-1024v48 48z"/><path d="m-272-1024v48 176h16v-224z"/><path d="m-272-800v48 176h16v-224z"/><path d="m-272-576v48 176h16v-224z"/><path d="m-272-352v48 48h16v-16-80z"/><path d="m-272-240v16z"/><path d="m-48-224h-224z"/><path d="m128-224h-176z"/><path d="m-272-256v16l16-16z"/><path d="m-352-256v16z"/></g></defs><g stroke="#000"><use fill="none" stroke-miterlimit="0" stroke-width="10" xlink:href="#a"/><use fill="#bfbfbf" xlink:href="#a"/><use fill="none" stroke-miterlimit="0" stroke-width="10" xlink:href="#b"/><use fill="#ccc" xlink:href="#b"/><use fill="none" stroke-miterlimit="0" stroke-width="10" xlink:href="#c"/><use fill="#d9d9d9" xlink:href="#c"/><use fill="none" stroke-miterlimit="0" stroke-width="10" xlink:href="#d"/><use fill="#e5e5e5" xlink:href="#d"/><use fill="none" stroke-miterlimit="0" stroke-width="10" xlink:href="#e"/><use fill="#f2f2f2" xlink:href="#e"/><use fill="none" stroke-miterlimit="0" stroke-width="10" xlink:href="#f"/><use fill="#fff" xlink:href="#f"/></g></svg>