<svg viewBox="-3008 -2048 5568 4608" xmlns="http://www.w3.org/2000/svg" xmlns:xlink="http://www.w3.org/1999/xlink"><defs><g id="a"><path d="m-1800.1144 2544.5171 20.9076 2.1893 126.9551 13.2936z"/><path d="m-1990.9442 2482.4402 190.8298 62.0769z"/><path d="m-2166.3308 2381.134 175.3866 101.3062z"/><path d="m-2319.4954 2243.2216 31.961 28.7784 60.3271 54.3196 60.8765 54.8144z"/><path d="m-1107.2075 2560h83.2075-180.251z"/><path d="m-2435.4023 2083.5413 115.9069 159.6803z"/><path d="m-1024 2048v64z"/><path d="m-2560 1477.405v21.1905 166.0057 36.8038z"/><path d="m-2560 1253.405v218.595 5.405z"/><path d="m-2336 1024h-136-88z"/><path d="m-2112 1024h-136-88z"/><path d="m-2287.5344 2272-31.961-28.7784-115.9069-159.6803-15.8052-35.5413h115.2075 108.7925v224z"/><path d="m-2227.2073 2326.3196-60.3271-54.3196h60.3269z"/><path d="m-2227.2075 2272v-224h115.2075 108.7925v224z"/><path d="m-2003.2075 2475.3566-163.1233-94.2226-60.8765-54.8144-.0002-54.3196h224z"/><path d="m-2003.2075 2272v-224h115.2075 108.7925v224z"/><path d="m-1949.2595 2496-41.6847-13.5598-12.2633-7.0836v-203.3566h224v224z"/><path d="m-1779.2068 2546.7064-20.9076-2.1893-149.1451-48.5171h170.052z"/><path d="m-1779.2075 2272v-224h115.2075 108.7925v224z"/><path d="m-1779.2075 2496v-224h224v224z"/><path d="m-1652.2517 2560-126.9551-13.2936-.0007-50.7064h224v64z"/><path d="m-1555.2075 2048h10.0238 12.3253 176.4401 25.2108v224h-224z"/><path d="m-1331.2075 2272v224h-224v-224z"/><path d="m-1331.2075 2496v64h-97.0435-126.9565v-64z"/><path d="m-1331.2075 2048h127.9596 96.0404v224h-224z"/><path d="m-1107.2075 2272v224h-224v-224z"/><path d="m-1107.2075 2496v64h-97.0435-126.9565v-64z"/><path d="m-1107.2075 2048h5.3514 77.8561v64 160h-83.2075z"/><path d="m-1024 2272v64 160h-83.2075v-224z"/><path d="m-1024 2496v64h-83.2075v-64z"/><path d="m-2560 1248v-224h88l10.7876 10.7877-38.7249 181.8135-6.6877 31.3988z"/><path d="m-2547.6477 1440.6012-6.6877 31.3988h-5.6646v-218.595-5.405h53.375z"/><path d="m-2560 1498.5955v-21.1905-5.405h5.6646z"/><path d="m-2248 1248-27.9373-27.9373-185.2751-185.275-10.7876-10.7877h136 88z"/><path d="m-2248 1248v-224h136 64v141.8557 20.03 62.1143z"/><path d="m-2048 1409.8859v38.1141l-3.9373-3.9373-196.0627-196.0627h200z"/><path d="m-2547.6477 1440.6012 41.0227-192.6012 6.6877-31.3988 58.024 42.1863 105.9133 77.0048v104.8089z"/><path d="m-2560 1664.6012v-166.0057l12.3523-57.9943h211.6477v119.191 104.809z"/><path d="m-2336 1783.7922v104.809h-184.1284l-39.8716-187.1962v-36.8038h224z"/><path d="m-2451.2075 2048-67.1162-150.9253-1.8047-8.4735h184.1284v119.191 40.2078z"/><path d="m-2048 1409.8859v-161.8859-62.1143l6.1888 19.0755 19.7742 60.9499 22.7854 143.9748z"/><path d="m-1986.5878 1489.9084 3.6676 23.1714-65.0798-65.0798v-38.1141h48.7484z"/><path d="m-2441.9133 1258.7875-58.024-42.1863 38.7249-181.8135 185.2751 185.275v38.725z"/><path d="m-2275.9373 1379.4611-60.0627-43.6688-105.9133-77.0048 165.976.0002z"/><path d="m-2187.0833 1444.0627-88.854-64.6016v-120.6734-38.725l27.9373 27.9373 196.0627 196.0627z"/><path d="m-2051.9373 1542.321-135.146-98.2583h135.146z"/><path d="m-1878.9901 1668.0627-172.9472-125.7417v-98.2583l3.9373 3.9373 65.0798 65.0798 154.9829 154.9829z"/><path d="m-1827.9373 1705.1809-51.0528-37.1182h51.0528z"/><path d="m-1691.9467 1804.0533-64.9121-47.1945-71.0785-51.6779v-37.1182z"/><path d="m-2048 1165.8557 6.1888 39.1055-6.1888-19.0755z"/><path d="m-1493.8375 1948.0896-39.0209-28.3708-28.0013-20.3578 145.5202 74.1963z"/><path d="m-1203.2479 2048h-127.9596-25.2108l-70.8296-51.4962 161.3351 25.5327 62.6649 9.9174z"/><path d="m-1101.8561 2048h-5.3514-96.0404v-16.0461z"/><path d="m-1427.2479 1996.5038-66.5896-48.4142 78.498 25.4677 149.4267 48.4792z"/><path d="m-1593.9985 1980.859-70.0015-96.2809-92.8588-127.7193 195.9991 142.5022 28.0013 20.3578v61.1402z"/><path d="m-1532.8584 2048h-12.3253l-48.8148-67.141h61.1401z"/><path d="m-1493.8375 1948.0896 137.4192 99.9104h-176.4401v-67.141-61.1402z"/><path d="m-1862.1418 1633.8582-37.2218-73.0029 95.3103 131.0914z"/><path d="m-2336 1559.7922v-119.191-104.8089l60.0627 43.6688 88.854 64.6016 75.0833 54.5895v61.14z"/><path d="m-2336 1783.7922v-119.191-104.809h224v162.86 61.14z"/><path d="m-2336 2007.7922v-119.191-104.809h224v162.86 61.14z"/><path d="m-2112 2048h-115.2075-108.7925v-40.2078h224z"/><path d="m-2112 1722.6522v-162.86-61.14l60.0627 43.6688 163.9373 119.1911v61.1401z"/><path d="m-2112 1946.6522v-162.86-61.14h224v162.8599 61.1401z"/><path d="m-1888 2048h-115.2075-108.7925v-40.2078-61.14h224z"/><path d="m-1888 1885.5121v-162.8599-61.1401l9.0099 6.5506 122.1313 88.7961 92.8588 127.7193v.934z"/><path d="m-1664 2048h-115.2075-108.7925v-101.3478-61.1401h224z"/><path d="m-1593.9985 1980.859 48.8148 67.141h-10.0238-108.7925v-162.4879-.934l61.1732 84.1387z"/><path d="m-1949.3643 1489.9084-24.1925-74.5683 74.1932 145.5152 37.2218 73.0029-59.9795-59.9795z"/><path d="m-1986.5878 1489.9084-12.6638-80.0225-22.7854-143.9748 48.4802 149.429 24.1925 74.5683z"/><path d="m-1922.1213 1573.8787-60.7989-60.7989-3.6676-23.1714h37.2235z"/><path d="m-2048 1165.8557v-141.8557 141.8555z"/><path d="m-1024 2048h-77.8561z"/><path d="m-2041.8112 1204.9612-6.1888-39.1055v-.0002l6.189 39.1065z"/><path d="m-1973.5568 1415.3401-48.4802-149.429-19.7742-60.9499.0002.0008 68.2539 210.3774z"/><path d="m-1101.8561 2048-101.3918-16.0461-62.6649-9.9174-.0007-.0002z"/><path d="m-1899.3636 1560.8553-74.1932-145.5152-.0003-.0007 74.1952 145.5184z"/><path d="m-1265.9128 2022.0365-149.4267-48.4792.0011.0003 149.4249 48.4787z"/><path d="m-1804.0533 1691.9467-95.3103-131.0914.0017.0025 95.3081 131.0884z"/><path d="m-1415.3395 1973.5573-145.5202-74.1963.0028.0013 145.5185 74.1953z"/><path d="m-1691.9467 1804.0533-112.1066-112.1066-.0005-.0005 112.107 112.107z"/><path d="m-1560.8597 1899.361-131.087-95.3077-.0001-.0001 131.0899 95.3091z"/><path d="m-2560 1701.405 39.8716 187.1962 1.8047 8.4735-.0005-.0011z"/><path d="m-1652.2517 2560-147.8627-15.4829z"/><path d="m-1800.1144 2544.5171-190.8297-62.0768-.0001-.0001z"/><path d="m-1990.9442 2482.4402.0001.0001-175.3867-101.3063z"/><path d="m-2166.3308 2381.134-153.1646-137.9122v-.0002z"/><path d="m-1652.2517 2560h97.0442 126.9565z"/><path d="m-1428.251 2560h97.0435 126.9565z"/><path d="m-1024 2560h-180.251z"/><path d="m-2319.4954 2243.2216v.0002l-115.9069-159.6804v-.0001z"/><path d="m-1024 2560v-64-160z"/><path d="m-1024 2336v-64-160z"/><path d="m-1024 2048v64z"/><path d="m-2560 1701.405v-224z"/><path d="m-2560 1477.405v-224z"/><path d="m-2560 1024v224 5.405z"/><path d="m-2560 1024h224z"/><path d="m-2336 1024h224z"/><path d="m-2048 1024h-64z"/><path d="m-2048 1024v141.856-.0005z"/><path d="m-1101.8561 2048h77.8561z"/><path d="m-2048 1165.8555v.0005l6.1881 39.1034.0009.0026z"/><path d="m-2041.811 1204.962-.0009-.0026 68.2556 210.3815-.0008-.0015z"/><path d="m-1265.9135 2022.0363.0011.0003 164.0563 25.9634z"/><path d="m-1973.5571 1415.3394.0008.0015 74.1948 145.5174-.0004-.0005z"/><path d="m-1415.3384 1973.5576-.0011-.0003 149.4271 48.4793-.0011-.0003z"/><path d="m-1899.3619 1560.8578.0004.0005 95.308 131.0882-.0003-.0003z"/><path d="m-1560.8569 1899.3623-.0028-.0013 145.5202 74.1963.0011.0003z"/><path d="m-1804.0538 1691.9462.0003.0003 112.1064 112.1064.0003.0003z"/><path d="m-1691.9468 1804.0532-.0003-.0003 131.0874 95.3081.0028.0013z"/><path d="m-2518.3242 1897.0736.0002.0003-41.676-195.6689z"/><path d="m-2518.3242 1897.0736.0005.0011 82.9214 186.4666z"/></g><g id="b"><path d="m-1800.1144 2544.5171 147.8627 15.4829z"/><path d="m-1990.9441 2482.4403 190.8297 62.0768z"/><path d="m-2166.3308 2381.134 175.3867 101.3063z"/><path d="m-2319.4954 2243.2218 153.1646 137.9122z"/><path d="m-1428.251 2560h-224.0007z"/><path d="m-1204.251 2560h-224z"/><path d="m-1024 2560h-180.2512.0002z"/><path d="m608 2560h96-160z"/><path d="m2560 2560h-160z"/><path d="m-2435.4023 2083.5414 115.9069 159.6804z"/><path d="m2528 2208v192h-32v-128-64z"/><path d="m2560 2048v128h-64v-128z"/><path d="m2560 2208v192h-32v-192z"/><path d="m1696 2560h-192-32v-64-64h128 96z"/><path d="m1920 2560h-192-32v-128h128 96z"/><path d="m2144 2560h-192-32v-128h128 96z"/><path d="m2368 2560h-192-32v-128h128 96z"/><path d="m2496 2432h64v128h-160-32v-128z"/><path d="m1600 2272v-64-160h224v224z"/><path d="m1824 2432h-128-96v-160h224z"/><path d="m1824 2272v-224h224v224z"/><path d="m2048 2432h-128-96v-160h224z"/><path d="m2048 2272v-224h224v224z"/><path d="m2272 2432h-128-96v-160h224z"/><path d="m2272 2272v-224h224v128 32 64z"/><path d="m2496 2400v32h-128-96v-160h224z"/><path d="m832 2272v-96-128h128 96v224z"/><path d="m832 2496v-160-64h224v224z"/><path d="m1056 2560h-224v-64h224z"/><path d="m1056 2272v-224h128 96v224z"/><path d="m1056 2496v-224h224v224z"/><path d="m1280 2560h-224v-64h224z"/><path d="m1408 2048h64v160 64h-192v-224z"/><path d="m1472 2272v160 64h-192v-224z"/><path d="m1472 2496v64h-192v-64z"/><path d="m704 2048h32 96v128h-128z"/><path d="m160 2560h-64-160v-64-64h128 96z"/><path d="m384 2560h-64-160v-128h128 96z"/><path d="m608 2560h-64-160v-128h128 96z"/><path d="m704 2432v128h-96v-128z"/><path d="m64 2272v-64-160h224v224z"/><path d="m288 2432h-128-96v-160h224z"/><path d="m288 2272v-224h224v224z"/><path d="m512 2432h-128-96v-160h224z"/><path d="m704 2048v128 96h-192v-224z"/><path d="m704 2272v64 96h-96-96v-160z"/><path d="m-2521.5515-199.4517 11.5063-35.4662 95.6158-131.5114 78.4294-57.0224v135.4517 88.5483z"/><path d="m-2560-80.943 38.4485-118.5087h185.5515v135.4517 88.5483h-224z"/><path d="m-2336 24.5483v135.4517 88.5483h-224v-120.5483-103.4517z"/><path d="m-2336 248.5483v135.4517 88.5483h-224v-120.5483-103.4517z"/><path d="m-2336 472.5483v135.4517 88.5483h-224v-120.5483-103.4517z"/><path d="m-2336 696.5483v135.4517h-224v-32-103.4517z"/><path d="m-2336-423.4517 53.0818-38.5933 150.9512-48.9739 3.0241-.9811h16.9429v224h-224z"/><path d="m-2112-288v224h-224v-135.4517-88.5483z"/><path d="m-2112-64v224h-224v-135.4517-88.5483z"/><path d="m-2112 160v224h-224v-135.4517-88.5483z"/><path d="m-2112 384v224h-224v-135.4517-88.5483z"/><path d="m-2112 608v224h-224v-135.4517-88.5483z"/><path d="m-2112-512h64v224h-64z"/><path d="m-2048-288v224h-64v-224z"/><path d="m-2048-64v64 128 32h-64v-224z"/><path d="m-2048 160v192 32h-64v-224z"/><path d="m-2048 384v192 32h-64v-224z"/><path d="m-2048 608v192 32h-64v-224z"/><path d="m-640 2272v-224h64 160v224z"/><path d="m-640 2496v-224h224v224z"/><path d="m-416 2560h-160-64v-64h224z"/><path d="m-416 2272v-224h64 160v224z"/><path d="m-416 2496v-224h224v224z"/><path d="m-192 2560h-160-64v-64h224z"/><path d="m-128 2048h64v160 64h-128v-224z"/><path d="m-64 2272v160 64h-128v-224z"/><path d="m-64 2496v64h-64-64v-64z"/><path d="m-1265.9124 2022.0366 80.0264 25.9634h84.0299z"/><path d="m-1265.9124 2022.0366 164.0563 25.9634h-84.0299z"/><path d="m-1185.886 2048-80.0264-25.9634-149.4271-48.4793 146.0039 74.4427z"/><path d="m-1269.3356 2048-146.0039-74.4427 149.4271 48.4793 80.0264 25.9634z"/><path d="m-1448 2048-243.9471-243.9471-112.1064-112.1064 258.8699 356.0535z"/><path d="m-1545.1836 2048-258.8699-356.0535 112.1064 112.1064 243.9471 243.9471z"/><path d="m-1650.9835 2048-248.378-487.1417-74.1948-145.5174 205.257 632.6591z"/><path d="m-1768.2993 2048-205.257-632.6591 74.1948 145.5174 248.378 487.1417z"/><path d="m-1982.9202 1513.0798-39.1167-247.1683-19.775-60.9521 133.419 843.0406h10.1287z"/><path d="m-2041.8119 1204.9594 19.775 60.9521 39.1167 247.1683 84.656 534.9202h-10.1287z"/><path d="m-2022.0369 1265.9115 48.4806 149.4294 205.257 632.6591h-129.9649l-84.656-534.9202z"/><path d="m-1973.5563 1415.3409-48.4806-149.4294 39.1167 247.1683 84.656 534.9202h129.9649z"/><path d="m-1650.9835 2048-248.378-487.1417 95.308 131.0882 258.8699 356.0535z"/><path d="m-1545.1836 2048-258.8699-356.0535-95.308-131.0882 248.378 487.1417z"/><path d="m-1691.9471 1804.0529 131.0874 95.3081 204.4414 148.639h-91.5817z"/><path d="m-1560.8597 1899.361-131.0874-95.3081 243.9471 243.9471h91.5817z"/><path d="m-1560.8597 1899.361 145.5202 74.1963 146.0039 74.4427h-87.0827z"/><path d="m-1560.8597 1899.361 204.4414 148.639h87.0827z"/><path d="m-2048 1165.856 6.1881 39.1034 133.419 843.0406h-139.6071z"/><path d="m-2041.8119 1204.9594-6.1881-39.1034v882.144h139.6071z"/><path d="m-2560 1477.405v-224-229.405h224 224 64v141.856 882.144h-403.2073l-67.1167-150.9261-41.676-195.6689z"/><path d="m-2112 1024h-224-224v229.405 224 224l41.676 195.6689 67.1167 150.9261h403.2073v-882.144-141.856z"/><path d="m-1101.8561 2048h-84.0299-83.4496-87.0827-91.5817-97.1836-105.7999-117.3158-129.9649-10.1287-139.6071-403.2073l15.805 35.5414 115.9069 159.6804 153.1646 137.9122 175.3867 101.3063 190.8297 62.0768 147.8627 15.4829h224.0007 224 180.251v-224-224-64z"/><path d="m-1024 2112v224 224h-180.251-224-224.0007l-147.8627-15.4829-190.8297-62.0768-175.3867-101.3063-153.1646-137.9122-115.9069-159.6804-15.805-35.5414h403.2073 139.6071 10.1287 129.9649 117.3158 105.7999 97.1836 91.5817 87.0827 83.4496 84.0299 77.8561z"/><path d="m288 2048h-224z"/><path d="m512 2048h-224z"/><path d="m736 2048h-32-192z"/><path d="m960 2048h-128-96z"/><path d="m1184 2048h-128-96z"/><path d="m1408 2048h-128-96z"/><path d="m-576 2048h-64-128z"/><path d="m-352 2048h-64-160z"/><path d="m-128 2048h-64-160z"/><path d="m-1024 2048h-77.8561z"/><path d="m-2048 1165.856v-141.856 141.8555z"/><path d="m-2048 0v128z"/><path d="m-2048-288v-224h224v224z"/><path d="m-2048-64v-224h224v224z"/><path d="m-1973.5563 1415.3409-48.4806-149.4294-19.775-60.9521.0006.0017 68.2542 210.3783z"/><path d="m-2041.8119 1204.9594-6.1881-39.1034v-.0005l6.1887 39.1056z"/><path d="m-1899.3615 1560.8583-74.1948-145.5174-.0008-.0015 74.1952 145.5184z"/><path d="m-1101.8561 2048-164.0563-25.9634-.0011-.0003z"/><path d="m-1804.0535 1691.9465-95.308-131.0882-.0004-.0005 95.3081 131.0884z"/><path d="m-1265.9124 2022.0366-149.4271-48.4793.0011.0003 149.4249 48.4787z"/><path d="m-1691.9471 1804.0529-112.1064-112.1064-.0003-.0003 112.107 112.107z"/><path d="m-1415.3395 1973.5573-145.5202-74.1963.0028.0013 145.5185 74.1953z"/><path d="m-1560.8597 1899.361-131.0874-95.3081.0003.0003 131.0899 95.3091z"/><path d="m-2048-512h-64-16.9429z"/><path d="m-2336 1024h-224z"/><path d="m-2112 1024h-224z"/><path d="m-2560 800v32 48z"/><path d="m-2560 576v120.5483 103.4517z"/><path d="m-2560 352v120.5483 103.4517z"/><path d="m-2560 128v120.5483 103.4517z"/><path d="m-2128.9429-512-3.0241.9811-150.9512 48.9739.0002-.0001z"/><path d="m-2048 832v48 144h-64v-192z"/><path d="m-2282.9182-462.045-131.5112 95.6157-.0003.0005 131.5117-95.6163z"/><path d="m-2510.0452-234.9179-11.5063 35.4662-38.4485 118.5087 49.9553-153.9753z"/><path d="m-2414.4294-366.4293-95.6158 131.5114.0005-.0004 95.615-131.5105z"/><path d="m-2560 1477.405v224z"/><path d="m-2560 1253.405v224z"/><path d="m-2560 1701.405 41.676 195.6689v.0001z"/><path d="m-64 2048v160z"/><path d="m1472 2048v160z"/><path d="m1600 2208v64 160z"/><path d="m2528 2208h-32z"/><path d="m2528 2400h32z"/><path d="m2528 2400v-192z"/><path d="m1600 2432h-128z"/><path d="m704 2272v-96 160z"/><path d="m832 2336v160 64z"/><path d="m704 2176h128z"/><path d="m64 2208v64 160z"/><path d="m64 2432h-128z"/><path d="m-640 2272v224h-160v-224z"/><path d="m-640 2496v64h-128-32v-64z"/><path d="m-1024 2048v64z"/><path d="m-1024 2336v224z"/><path d="m-1024 2112v224z"/><path d="m-2560 1024v229.405z"/><path d="m-2048 1024h-64z"/><path d="m-2518.324 1897.0739-.0002-.0003 82.9219 186.4677v.0001z"/><path d="m2496 2208h32z"/><path d="m2528 2208h-32v192h32z"/><path d="m2496 2400v-192z"/><path d="m-1652.2517 2560-147.8627-15.4829z"/><path d="m2560 2560v-128z"/><path d="m2560 2176v-128z"/><path d="m-1800.1144 2544.5171-190.8294-62.0767-.0003-.0001z"/><path d="m-1990.9441 2482.4403.0003.0001-175.387-101.3065v.0001z"/><path d="m-2166.3308 2381.134v-.0001l-153.1643-137.9119-.0003-.0002z"/><path d="m-1652.2517 2560h224.0007-.0002z"/><path d="m-1428.2512 2560h.0002 224-.0002z"/><path d="m-1024 2560h-180.2512z"/><path d="m-768 2560h128 64z"/><path d="m-576 2560h160 64z"/><path d="m-352 2560h160 64z"/><path d="m-128 2560h64 160z"/><path d="m96 2560h64 160z"/><path d="m320 2560h64 160z"/><path d="m704 2560h-160z"/><path d="m832 2560h224z"/><path d="m1056 2560h224z"/><path d="m1280 2560h192 32z"/><path d="m1504 2560h192 32z"/><path d="m1728 2560h192 32z"/><path d="m1952 2560h192 32z"/><path d="m2176 2560h192 32z"/><path d="m2560 2560h-160z"/><path d="m-2319.4954 2243.2218.0003.0002-115.907-159.6804-.0002-.0002z"/><path d="m-2518.324 1897.074v-.0001l82.9217 186.4675z"/><path d="m1824 2048h-224z"/><path d="m2048 2048h-224z"/><path d="m2272 2048h-224z"/><path d="m2496 2048h-224z"/><path d="m2560 2048h-64z"/><path d="m64 2048h224z"/><path d="m288 2048h224z"/><path d="m512 2048h224z"/><path d="m736 2048h224z"/><path d="m960 2048h224z"/><path d="m1184 2048h224z"/><path d="m1472 2048h-64z"/><path d="m-768 2048h-32 224z"/><path d="m-576 2048h224z"/><path d="m-352 2048h224z"/><path d="m-64 2048h-64z"/><path d="m-1101.8561 2048h77.8561z"/><path d="m-2048 1024v141.8555z"/><path d="m-2048 880v-48-32z"/><path d="m-2048 800v-192-32z"/><path d="m-2048 576v-192-32z"/><path d="m-2048 352v-192-32z"/><path d="m-2048 0v128z"/><path d="m-2041.8113 1204.9611 68.2542 210.3783z"/><path d="m-2048 1165.8555 6.1887 39.1056z"/><path d="m-1973.5571 1415.3394 74.1952 145.5184z"/><path d="m-1265.9135 2022.0363h-.0001l164.0575 25.9637z"/><path d="m-1899.3619 1560.8578 95.3081 131.0884z"/><path d="m-1415.3384 1973.5576 149.4248 48.4787h.0001z"/><path d="m-1804.0538 1691.9462 112.1071 112.107h-.0001z"/><path d="m-1560.8569 1899.3623h-.0002l145.5187 74.1953z"/><path d="m-1691.9468 1804.0532h.0001l131.0896 95.3091h.0002z"/><path d="m-2128.9429-512h80.9429z"/><path d="m-2560 880v144-224z"/><path d="m-2560 800v-224z"/><path d="m-2560 576v-224z"/><path d="m-2560 352v-224z"/><path d="m-2560-80.943v105.4913 103.4517z"/><path d="m-2282.918-462.0451 153.9751-49.9549z"/><path d="m-2414.4297-366.4288v-.0001l131.5117-95.6162z"/><path d="m-2560-80.943 49.9553-153.9754v.0001z"/><path d="m-2510.0447-234.9183v-.0001l95.615-131.5105v.0001z"/><path d="m-2560 1701.405v-224z"/><path d="m-2560 1477.405v-224z"/><path d="m-2560 1024v229.405z"/><path d="m-2518.324 1897.074v-.0001l-41.676-195.6689z"/><path d="m-64 2432v-160-64z"/><path d="m-64 2048v160z"/><path d="m1472 2432v-160-64z"/><path d="m1472 2048v160z"/><path d="m1600 2432v-224z"/><path d="m1600 2048v160z"/><path d="m2560 2176h-64z"/><path d="m1472 2432h128z"/><path d="m704 2560v-128-96z"/><path d="m704 2176v160z"/><path d="m832 2560v-224z"/><path d="m832 2176v96 64z"/><path d="m832 2176h-128z"/><path d="m64 2432v-224z"/><path d="m64 2048v160z"/><path d="m-64 2432h128z"/><path d="m-768 2048h128v224h-160v-224z"/><path d="m-800 2048h-224z"/><path d="m-800 2560h-224v-64h224z"/><path d="m-1824 0h-224v-64h224z"/><path d="m-1824-288v-224h216 8v224z"/><path d="m-1824-64v-224h224v224z"/><path d="m-1824-512h-224z"/><path d="m-2048 0h224z"/><path d="m-2048-512h224z"/><path d="m-1024 2272v-160-64h224v224z"/><path d="m-1024 2496v-160-64h224v224z"/><path d="m-1024 2336v160 64z"/><path d="m-1024 2112v160 64z"/><path d="m-2048 1024h-64z"/><path d="m-2336 1024h-224v-144-48h224z"/><path d="m-2112 1024h-224v-192h224z"/><path d="m-1824 0h216z"/><path d="m-1608-512h-216z"/><path d="m-1600 0h-8-216v-64h224z"/><path d="m-1600-288v-224h160 64v224z"/><path d="m-1600-64v-224h224v224z"/><path d="m2560 2400v-192z"/><path d="m2496 2400v32z"/><path d="m2560 2208h-32z"/><path d="m2496 2400h32z"/><path d="m2528 2208v192h32v-192z"/><path d="m2496 2208v192h32v-192z"/><path d="m2528 2400v-192z"/><path d="m2496 2400h32z"/><path d="m2496 2208h32v192h-32z"/><path d="m2528 2400v-192z"/><path d="m-1600 0h160z"/><path d="m-1600-512h-8-216z"/><path d="m-1440-512h-160z"/><path d="m2560 2176v32z"/><path d="m2496 2208v192z"/><path d="m2496 2176v32z"/><path d="m2496 2400v-192-32h64v32 192z"/><path d="m2560 2432h-64v-32h64z"/><path d="m2496 2432h64z"/><path d="m-1376 0h-64-160v-64h224z"/><path d="m-1376 0h104z"/><path d="m-1376-512h-64-160z"/><path d="m-1272-512h-104z"/><path d="m-1272-512h56v224h-160v-224z"/><path d="m-1652.2517 2560-147.8627-15.4829z"/><path d="m2560 2432v-32-192z"/><path d="m2560 2176v32z"/><path d="m2560 2560v-128z"/><path d="m2560 2176v-128z"/><path d="m-1800.1144 2544.5171-190.8293-62.0767h-.0001z"/><path d="m-1990.9438 2482.4404h.0001l-175.3871-101.3065z"/><path d="m-2166.3308 2381.1339-153.1643-137.9117v-.0002z"/><path d="m-1652.2517 2560h224.0005z"/><path d="m-1428.2512 2560h224z"/><path d="m-1024 2560h-180.2512z"/><path d="m-1024 2560h224z"/><path d="m-800 2560h32 192z"/><path d="m-576 2560h224z"/><path d="m-352 2560h224z"/><path d="m-128 2560h224z"/><path d="m96 2560h224z"/><path d="m320 2560h224z"/><path d="m704 2560h-160z"/><path d="m832 2560h224z"/><path d="m1056 2560h224z"/><path d="m1280 2560h224z"/><path d="m1504 2560h224z"/><path d="m1728 2560h224z"/><path d="m1952 2560h224z"/><path d="m2176 2560h224z"/><path d="m2560 2560h-160z"/><path d="m-2319.4951 2243.222v.0002l-115.907-159.6805v-.0001z"/><path d="m-2518.324 1897.0739v.0001l82.9217 186.4674.0002.0002z"/><path d="m1824 2048h-224z"/><path d="m2048 2048h-224z"/><path d="m2272 2048h-224z"/><path d="m2496 2048h-224z"/><path d="m2560 2048h-64z"/><path d="m64 2048h224z"/><path d="m288 2048h224z"/><path d="m512 2048h224z"/><path d="m736 2048h224z"/><path d="m960 2048h224z"/><path d="m1184 2048h224z"/><path d="m1472 2048h-64z"/><path d="m-1024 2048h224z"/><path d="m-800 2048h224z"/><path d="m-576 2048h224z"/><path d="m-352 2048h224z"/><path d="m-64 2048h-64z"/><path d="m-1101.8561 2048h77.8561z"/><path d="m-2048 1024v141.8555z"/><path d="m-2048 1024v-144-80z"/><path d="m-2048 800v-224z"/><path d="m-2048 576v-224z"/><path d="m-2048 352v-224z"/><path d="m-2048 0v128z"/><path d="m-1216-288v218.6664 5.3336h-160v-224z"/><path d="m-1216-64v64h-56-104v-64z"/><path d="m-1216-288v-224h64 160v224z"/><path d="m-2041.8113 1204.9611 68.2542 210.3783z"/><path d="m-2048 1165.8555 6.1887 39.1056z"/><path d="m-1973.5571 1415.3394 74.1952 145.5184z"/><path d="m-1265.9136 2022.0363 164.0575 25.9637z"/><path d="m-1899.3619 1560.8578 95.3081 131.0884z"/><path d="m-1415.3384 1973.5576 149.4248 48.4787z"/><path d="m-1804.0538 1691.9462 112.1071 112.107z"/><path d="m-1560.8571 1899.3623 145.5187 74.1953z"/><path d="m-1691.9467 1804.0532 131.0896 95.3091z"/><path d="m-2128.9429-512h80.9429z"/><path d="m-2560 1024v-224z"/><path d="m-2560 800v-224z"/><path d="m-2560 576v-224z"/><path d="m-2560 352v-224z"/><path d="m-2560-80.943v208.943z"/><path d="m-2282.918-462.0451 153.9751-49.9549z"/><path d="m-2414.4297-366.4289 131.5117-95.6162z"/><path d="m-2560-80.943 49.9553-153.9755v.0001z"/><path d="m-2510.0447-234.9184v-.0001l95.615-131.5104z"/><path d="m-2560 1701.405v-224z"/><path d="m-2560 1477.405v-224z"/><path d="m-2560 1024v229.405z"/><path d="m-2518.324 1897.0739-41.676-195.6689z"/><path d="m-64 2432v-224z"/><path d="m-64 2048v160z"/><path d="m1472 2432v-224z"/><path d="m1472 2048v160z"/><path d="m1600 2432v-224z"/><path d="m1600 2048v160z"/><path d="m1472 2432h128z"/><path d="m704 2560v-224z"/><path d="m704 2176v160z"/><path d="m832 2560v-224z"/><path d="m832 2176v160z"/><path d="m832 2176h-128z"/><path d="m64 2432v-224z"/><path d="m64 2048v160z"/><path d="m-64 2432h128z"/><path d="m-1152-512h-64-56-104z"/><path d="m-1152 0h-64v-64-5.3336l192 69.3336z"/><path d="m-2048 0h224z"/><path d="m-2048-512h224z"/><path d="m-992-68.8546-224-.479v-218.6664h224z"/><path d="m-992-288v-224h64 160v224z"/><path d="m-928-512h-64-160z"/><path d="m-1824 0h216 8z"/><path d="m-1824-512h224z"/><path d="m-992 0h-32l-192-69.3336 224 .479z"/><path d="m-768-68.376-224-.4786v-219.1454h224z"/><path d="m-768-288v-224h64 160v224z"/><path d="m-1600 0h160 64z"/><path d="m-1600-512h224z"/><path d="m-704-512h-64-160z"/><path d="m-768 0h-32-192v-68.8546l224 .4786z"/><path d="m-544-67.8973-224-.4787v-219.624h224z"/><path d="m-544-288v-224h64 160v224z"/><path d="m-1376 0h104 56 64z"/><path d="m-1376-512h224z"/><path d="m-1652.2517 2560-147.8627-15.4829z"/><path d="m2560 2432v-224z"/><path d="m2560 2176v32z"/><path d="m2560 2560v-128z"/><path d="m2560 2176v-128z"/><path d="m-1800.1144 2544.5171-190.8292-62.0765-.0001-.0002z"/><path d="m-1990.9437 2482.4404.0001.0002-175.3872-101.3067z"/><path d="m-2166.3308 2381.1339-153.1643-137.9116v-.0001z"/><path d="m-1652.2517 2560h224.0005z"/><path d="m-1428.2512 2560h224z"/><path d="m-1024 2560h-180.2512z"/><path d="m-1024 2560h224z"/><path d="m-800 2560h224z"/><path d="m-576 2560h224z"/><path d="m-352 2560h224z"/><path d="m-128 2560h224z"/><path d="m96 2560h224z"/><path d="m320 2560h224z"/><path d="m704 2560h-160z"/><path d="m832 2560h224z"/><path d="m1056 2560h224z"/><path d="m1280 2560h224z"/><path d="m1504 2560h224z"/><path d="m1728 2560h224z"/><path d="m1952 2560h224z"/><path d="m2176 2560h224z"/><path d="m2560 2560h-160z"/><path d="m-2319.4951 2243.2222v.0001l-115.907-159.6804v-.0002z"/><path d="m-2518.324 1897.0739 82.9219 186.4677v.0001z"/><path d="m1824 2048h-224z"/><path d="m2048 2048h-224z"/><path d="m2272 2048h-224z"/><path d="m2496 2048h-224z"/><path d="m2560 2048h-64z"/><path d="m64 2048h224z"/><path d="m288 2048h224z"/><path d="m512 2048h192 32z"/><path d="m736 2048h96 128z"/><path d="m960 2048h224z"/><path d="m1184 2048h224z"/><path d="m1472 2048h-64z"/><path d="m-1024 2048h224z"/><path d="m-800 2048h224z"/><path d="m-576 2048h224z"/><path d="m-352 2048h224z"/><path d="m-64 2048h-64z"/><path d="m-1101.8561 2048h77.8561z"/><path d="m-2048 1024v141.8555z"/><path d="m-2048 1024v-224z"/><path d="m-2048 800v-224z"/><path d="m-2048 576v-224z"/><path d="m-2048 352v-224z"/><path d="m-2048 0v128z"/><path d="m-2041.8113 1204.9611.0001.0003 68.2539 210.3777.0002.0003z"/><path d="m-2048 1165.8555 6.1888 39.1059-.0001-.0003z"/><path d="m-1973.5571 1415.3394-.0002-.0003 74.1954 145.5186v.0001z"/><path d="m-1265.9136 2022.0363.001.0003 164.0565 25.9634z"/><path d="m-1899.3619 1560.8578v-.0001l28.4585 39.1423 66.8503 91.9469-.0007-.0007z"/><path d="m-1415.3384 1973.5576-.0002-.0001 149.426 48.4791-.001-.0003z"/><path d="m-1804.0538 1691.9462.0007.0007 112.1062 112.1063h.0002z"/><path d="m-1560.8571 1899.3623-.0009-.0006 145.5194 74.1958.0002.0001z"/><path d="m-1691.9467 1804.0532h-.0002l131.0889 95.3085.0009.0006z"/><path d="m-2128.9429-512h80.9429z"/><path d="m-2560 1024v-224z"/><path d="m-2560 800v-224z"/><path d="m-2560 576v-224z"/><path d="m-2560 352v-224z"/><path d="m-2560-80.943v208.943z"/><path d="m-2282.918-462.0451-.0002.0001 153.9753-49.955z"/><path d="m-2414.4297-366.4289.0003-.0004 131.5112-95.6157.0002-.0001z"/><path d="m-2560-80.943 49.9548-153.9749.0005-.0006z"/><path d="m-2510.0447-234.9185-.0005.0006 95.6158-131.5114-.0003.0004z"/><path d="m-2560 1701.405v-224z"/><path d="m-2560 1477.405v-224z"/><path d="m-2560 1024v229.405z"/><path d="m-2518.324 1897.0739-41.676-195.6689z"/><path d="m-64 2432v-224z"/><path d="m-64 2048v160z"/><path d="m1472 2432v-224z"/><path d="m1472 2048v160z"/><path d="m1600 2432v-224z"/><path d="m1600 2048v160z"/><path d="m1472 2432h128z"/><path d="m704 2560v-224z"/><path d="m704 2176v160z"/><path d="m832 2560v-224z"/><path d="m832 2176v160z"/><path d="m832 2176h-128z"/><path d="m64 2432v-224z"/><path d="m64 2048v160z"/><path d="m-64 2432h128z"/><path d="m-480-512h-64-160z"/><path d="m-1152 0h128 96z"/><path d="m-1152-512h224z"/><path d="m-544 0h-32-192v-68.376l224 .4787z"/><path d="m-320-67.4187-224-.4786v-220.1027h224z"/><path d="m-320-288v-224h64 160v224z"/><path d="m-2048 0h224z"/><path d="m-2048-512h224z"/><path d="m-800 0h-128-96 32z"/><path d="m-256-512h-64-160z"/><path d="m-928 0h128 49.2307z"/><path d="m-928-512h224z"/><path d="m-1824 0h-224z"/><path d="m-1824 0h224z"/><path d="m-1824-512h224z"/><path d="m-320 0h-32-192v-67.8973l224 .4786z"/><path d="m-96-66.9401-224-.4786v-220.5813h224z"/><path d="m-96-288v-224h64 160v224z"/><path d="m-576 0h-97.231-30.769-46.7693-49.2307 32z"/><path d="m-576 0h32 192z"/><path d="m-704 0h30.769z"/><path d="m-704-512h224z"/><path d="m-32-512h-64-160z"/><path d="m-1600 0h-224z"/><path d="m-1600 0h224z"/><path d="m-1600-512h224z"/><path d="m-96 0h-32-192v-67.4187l224 .4786z"/><path d="m128-66.4614-224-.4787v-221.0599h224z"/><path d="m128-288v-224h64 160v224z"/><path d="m-480-512h224z"/><path d="m-128 0h32 49.454z"/><path d="m-1376 0h-224z"/><path d="m-1376 0h224z"/><path d="m-1376-512h224z"/><path d="m192-512h-64-160z"/><path d="m2560 2208v224z"/><path d="m2560 2432v128z"/><path d="m2560 2048v128z"/><path d="m-1428.2512 2560h-224.0005z"/><path d="m-1204.2512 2560h-224z"/><path d="m-800 2560h-224z"/><path d="m-576 2560h-224z"/><path d="m-352 2560h-224z"/><path d="m-128 2560h-224z"/><path d="m96 2560h-160-64z"/><path d="m320 2560h-224z"/><path d="m544 2560h-224z"/><path d="m1056 2560h-224z"/><path d="m1280 2560h-224z"/><path d="m1504 2560h-32-192z"/><path d="m1728 2560h-224z"/><path d="m1952 2560h-224z"/><path d="m2176 2560h-224z"/><path d="m2400 2560h-224z"/><path d="m-2451.2073 2048-67.1167-150.9261 82.9219 186.4678v.0002z"/><path d="m1600 2048h224z"/><path d="m1824 2048h224z"/><path d="m2048 2048h224z"/><path d="m2272 2048h224z"/><path d="m2496 2048h64z"/><path d="m1472 2048h-64z"/><path d="m-64 2048h-64z"/><path d="m-2048 800v224z"/><path d="m-2048 576v224z"/><path d="m-2048 352v224z"/><path d="m-2048 128v224z"/><path d="m-2560-80.943v208.943z"/><path d="m-2560 1024v229.405z"/><path d="m-64 2208v224z"/><path d="m1472 2208v224z"/><path d="m1600 2048v160z"/><path d="m704 2336v96 128z"/><path d="m832 2176v160z"/><path d="m64 2048v160z"/><path d="m-256-512h224z"/><path d="m128 0h-32-142.546-49.454v-66.9401l224 .4787z"/><path d="m352-65.9828-224-.4786v-221.5386h224z"/><path d="m352-288v-224h64 160v224z"/><path d="m-1152 0h-224z"/><path d="m-1152 0h224z"/><path d="m-1152-512h224z"/><path d="m-352 0h-128-96z"/><path d="m-352 0h32 192z"/><path d="m416-512h-64-160z"/><path d="m-32-512h224z"/><path d="m-928 0h-224z"/><path d="m-928 0h177.2307 46.7693z"/><path d="m-928-512h224z"/><path d="m96 0h32 192z"/><path d="m352 0h-32-192v-66.4614l224 .4786z"/><path d="m576-65.5042-224-.4786v-222.0172h224z"/><path d="m576-288v-224h64 160v224z"/><path d="m192-512h224z"/><path d="m640-512h-64-160z"/><path d="m-704 0h-224z"/><path d="m-704 0h30.769 97.231 96z"/><path d="m-704-512h224z"/><path d="m320 0h32 162.6848z"/><path d="m576 0h-61.3152-162.6848v-65.9828l224 .4786z"/><path d="m800-65.0256-224-.4786v-222.4958h224z"/><path d="m800-288v-224h64 160v224z"/><path d="m416-512h224z"/><path d="m-480 0h-224z"/><path d="m-480 0h128 92.3077z"/><path d="m-480-512h224z"/><path d="m864-512h-64-160z"/><path d="m544 0h32 107.8599z"/><path d="m-128 0h-54.1539-73.8461-3.6923-92.3077z"/><path d="m-128 0h81.454 142.546z"/><path d="m640-512h224z"/><path d="m800 0h-116.1401-107.8599v-65.5042l224 .4786z"/><path d="m-256 0h-224 220.3077z"/><path d="m-256 0h73.8461z"/><path d="m1024-64.5469-224-.4787v-222.9744h224z"/><path d="m1024-288v-224h224v224z"/><path d="m-256-512h224z"/><path d="m768 0h32 53.0346z"/><path d="m1024-512h-160z"/><path d="m-32-512h224z"/><path d="m1024 0h-170.9654-53.0346v-65.0256l224 .4787z"/><path d="m1248-512h-224z"/><path d="m1248-64.0683-224-.4786v-223.4531h224z"/></g><g id="c"><path d="m-2048-1466v154 70-42z"/><path d="m1472-1536h-192-32z"/><path d="m-544-1536h-224z"/><path d="m-320-1536h-224z"/><path d="m-96-1536h-224z"/><path d="m128-1536h-224z"/><path d="m352-1536h-224z"/><path d="m576-1536h-224z"/><path d="m800-1536h-224z"/><path d="m-1824-1536h-224z"/><path d="m-1600-1536h-224z"/><path d="m-1376-1536h-224z"/><path d="m-1152-1536h-224z"/><path d="m1998.0449-277.0816 3.5425-10.9184 46.4126-143.0571-49.9551 153.9754z"/><path d="m1902.429-145.57 49.571-68.1809 46.0449-63.3307v-.0001l-95.6159 131.5116z"/><path d="m2048-1024v-74.2489-6.694 225.886z"/><path d="m1998.0448-1258.9185-46.0448-63.3306-49.5704-68.18 95.6153 131.5106z"/><path d="m1024-1024h-224z"/><path d="m1280-1024h39.0126.0001-71.0127z"/><path d="m-768-1248v160 64z"/><path d="m-768-1472v160 64z"/><path d="m1024-1536v64z"/><path d="m1280-1312v-224h192 32v224z"/><path d="m1280-1088v-224h224v224z"/><path d="m1504-1024h-16-168.9874-39.0126v-64h224z"/><path d="m1504-1312v-224h112.9427l111.0573 36.0309v187.9691z"/><path d="m1504-1088v-224h224v36.0309 187.9691z"/><path d="m1728-1051.9691v27.9691h-38.5432-57.5474-127.9094v-64h224z"/><path d="m1902.4296-1390.4291 49.5704 68.18v46.28h-224v-36.0309-187.9691l42.918 13.9241z"/><path d="m1952-1275.9691v177.7202 46.2798h-224v-36.0309-187.9691z"/><path d="m1952-1051.9691v27.9691h-38.5432-185.4568v-27.9691z"/><path d="m1952-1275.9691v-46.28l46.0448 63.3306 49.9552 153.9756v6.694h-96z"/><path d="m2048-1098.2489v74.2489h-96v-27.9691-46.2798z"/><path d="m1770.918-1486.045-42.918-13.9241-111.0573-36.0309 153.9759 49.9554z"/><path d="m1280-1536v224h-32v-224z"/><path d="m1280-1312v224h-32v-224z"/><path d="m1280-1088v64h-32v-64z"/><path d="m1902.4296-1390.4291-131.5116-95.6159.0006.0004z"/><path d="m2048-1104.9429-49.9552-153.9756h.0001z"/><path d="m-768-1312v-160-64h224v224z"/><path d="m-768-1088v-160-64h224v224z"/><path d="m-544-1024h-224v-64h224z"/><path d="m-544-1312v-224h224v224z"/><path d="m-544-1088v-224h224v224z"/><path d="m-320-1024h-224v-64h224z"/><path d="m-320-1312v-224h224v224z"/><path d="m-320-1088v-224h224v224z"/><path d="m-96-1024h-224v-64h224z"/><path d="m-96-1312v-224h224v224z"/><path d="m-96-1088v-224h224v224z"/><path d="m128-1024h-224v-64h224z"/><path d="m128-1312v-224h224v224z"/><path d="m128-1088v-224h224v224z"/><path d="m352-1024h-224v-64h224z"/><path d="m352-1312v-224h224v224z"/><path d="m352-1088v-224h224v224z"/><path d="m576-1024h-224v-64h224z"/><path d="m576-1312v-224h224v224z"/><path d="m576-1088v-224h224v224z"/><path d="m800-1024h-224v-64h224z"/><path d="m1024-1536v64 160h-224v-224z"/><path d="m1024-1312v64 160h-224v-224z"/><path d="m1024-1088v64h-224v-64z"/><path d="m-2048-1312v-154-70h224v224z"/><path d="m-2048-1088v-154-70h224v224z"/><path d="m-1824-1024h-224v-26-38h224z"/><path d="m-1824-1312v-224h224v224z"/><path d="m-1824-1088v-224h224v224z"/><path d="m-1600-1024h-224v-64h224z"/><path d="m-1600-1312v-224h224v224z"/><path d="m-1600-1088v-224h224v224z"/><path d="m-1376-1024h-224v-64h224z"/><path d="m-1376-1312v-224h224v224z"/><path d="m-1376-1088v-224h224v224z"/><path d="m-1152-1024h-224v-64h224z"/><path d="m-1024-1536v224h-128v-224z"/><path d="m-1024-1312v224h-128v-224z"/><path d="m-1024-1088v64h-128v-64z"/><path d="m-1024-1312v-224h96 128v224z"/><path d="m-1024-1088v-224h224v224z"/><path d="m1280-512h-32z"/><path d="m1248-512h-224z"/><path d="m1536-807.0123v-43.3678l27.2429 37.5952-27.2429 83.7976z"/><path d="m1504-1024h127.9094l-68.6665 211.2151-27.2429-37.5952-25.5713-35.2884-22.4287-30.9516v-16.351-36.0905-54.9384z"/><path d="m1559.0864-800 4.1565-12.7849 68.6665-211.2151h57.5474v224z"/><path d="m1486.2634-576 24.1654-74.3318 25.5712-78.6555 23.0864-71.0127h130.3704v224z"/><path d="m1689.4568-512h-185.4568-38.5432l20.8066-64h203.1934z"/><path d="m1689.4568-800v-224h38.5432 185.4568v224z"/><path d="m1689.4568-576v-224h224v224z"/><path d="m1913.4568-512h-185.4568-38.5432v-64h224z"/><path d="m1952-1024h96v144.9431 79.0569h-134.5432v-224z"/><path d="m2048-800v144.9431 79.0569h-134.5432v-224z"/><path d="m2048-576v64h-96-38.5432v-64z"/><path d="m1463.0504-951.0504 24.9496 18.0793v16.351z"/><path d="m1397.6686-998.4286-78.656-25.5714h168.9874v54.9384z"/><path d="m1397.6681-537.5712 65.3823-47.3784-52.862 72.9496h-47.8084z"/><path d="m1510.4287-885.6685 25.5713 35.2884v43.3678z"/><path d="m1486.2634-576-20.8066 64h-55.2684l52.862-72.9496 47.3784-65.3822z"/><path d="m1397.6681-537.5712-35.2881 25.5712h-43.3673z"/><path d="m1463.0504-951.0504-65.3818-47.3782 90.3314 29.367v36.0905z"/><path d="m1536-807.0123v78.025-78.0254z"/><path d="m1536-728.9873-25.5712 78.6555-.0001.0003z"/><path d="m1510.4287-885.6685 25.5713 78.6562v-.0004z"/><path d="m1510.4288-650.3318-47.3784 65.3822.0009-.0006 47.3774-65.3813z"/><path d="m1463.0504-951.0504 24.9496 34.4303 22.4287 30.9516-47.3777-65.3815z"/><path d="m1463.0504-584.9496-65.3823 47.3784-.0011.0004 65.3843-47.3794z"/><path d="m1397.6686-998.4286 65.3818 47.3782.0006.0004-65.3821-47.3787z"/><path d="m1397.6681-537.5712-78.6554 25.5712 78.6543-25.5708z"/><path d="m1319.0126-1024 78.656 25.5714.0003-.0001-78.6562-25.5713z"/><path d="m1280-288v-224h39.0127 43.3673 47.8084 55.2684 38.5432v224z"/><path d="m1504-64h-224v-224h224z"/><path d="m1504-288v-224h185.4568 38.5432v224z"/><path d="m1728-64h-224v-224h224z"/><path d="m1728-288v-224h185.4568 38.5432v224z"/><path d="m1952-213.7509-49.571 68.1809-112.1928 81.57h-62.2362v-224h224z"/><path d="m2048-512v80.9429l-46.4126 143.0571h-49.5874v-224z"/><path d="m2001.5874-288-3.5425 10.9184-46.0449 63.3307v-74.2491z"/><path d="m1790.2362-64-19.3181 14.045-42.9181 13.9242v-27.9692z"/><path d="m1248-54.2223 32-9.7777v64h-64-145.4547z"/><path d="m1280-512v224h-32v-224z"/><path d="m1280-288v224l-32-.0683v-223.9317z"/><path d="m1248-54.2223-177.4547 54.2223h-46.5453v-64.5469l224 .4786z"/><path d="m1280-64-32 9.7777v-9.846z"/><path d="m-2122.1604-1242h74.1604v154 38h-74.1604z"/><path d="m-2048-1242h-74.1604l-54.2385-3.4865v-74.5135h8.4458 56.8784 63.0747z"/><path d="m96 0h-128-96z"/><path d="m96 0h224z"/><path d="m-2176.3989-1245.4865-98.3294-6.3205-125.6706-16.6079v-51.5851h34.3989 39.8586 29.5516 64.2202 55.9707z"/><path d="m1770.9181-49.955 19.3181-14.045 112.1928-81.57v-.0001l-131.511 95.6152z"/><path d="m1248-1536h-224z"/><path d="m1248-1024h-224v-64h224z"/><path d="m-2274.7283-1251.807 98.3294 6.3205 54.2385 3.4865v192l-152.5679-9.807z"/><path d="m-2274.7283-1251.807v192l-140.039-18.5067v-192z"/><path d="m192-512h224z"/><path d="m1728-36.0308-111.057 36.0308h-112.943v-64h224z"/><path d="m-928-1536h-96-128z"/><path d="m320 0h-67.7648-60.2352-96z"/><path d="m320 0h194.6848 29.3152z"/><path d="m1248 0h-32z"/><path d="m1616.943 0h-112.943z"/><path d="m-544-1536h-224z"/><path d="m-320-1536h-224z"/><path d="m-96-1536h-224z"/><path d="m128-1536h-224z"/><path d="m352-1536h-224z"/><path d="m576-1536h-224z"/><path d="m800-1536h-224z"/><path d="m1024-1536h-224z"/><path d="m1616.943 0 153.9751-49.955-.0001.0001z"/><path d="m1024-1024h-224z"/><path d="m-544-1024h-224z"/><path d="m-320-1024h-224z"/><path d="m-96-1024h-224z"/><path d="m128-1024h-224z"/><path d="m352-1024h-224z"/><path d="m576-1024h-224z"/><path d="m800-1024h-224z"/><path d="m-768-1536v64z"/><path d="m-768-1248v224-64z"/><path d="m-768-1472v224-64z"/><path d="m1024-1248v224-64z"/><path d="m1024-1472v224-64z"/><path d="m1024-1536v64z"/><path d="m-544-1536h224 224 224 224 224 224 224v64 224 224h-224-224-224-224-224-224-224-224v-224-224-64z"/><path d="m-544-1024h224 224 224 224 224 224 224v-224-224-64h-224-224-224-224-224-224-224-224v64 224 224z"/><path d="m1504 0h-224v-64h224z"/><path d="m-2400.3989-1268.4149-14.3684-1.8988-138.2891-28.6485-71.3425-21.0378h93.2568 92.3628 30.9204 7.46z"/><path d="m416-512h224z"/><path d="m-2048-1284v-91-91z"/><path d="m544 0h-224z"/><path d="m544 0h139.8599 84.1401z"/><path d="m-800-1024h-128-96v-64h224z"/><path d="m1024-1024h-224z"/><path d="m-768-1536v64z"/><path d="m1024-1248v160 64z"/><path d="m1024-1472v160 64z"/><path d="m1024-1312v-160-64h224v224z"/><path d="m1024-1088v-160-64h224v224z"/><path d="m-768-1536v64 160h-32v-224z"/><path d="m-768-1312v64 160h-32v-224z"/><path d="m-768-1088v64h-32v-64z"/><path d="m640-512h224z"/><path d="m-2553.0564-1106.9622v-192l138.2891 28.6485v192z"/><path d="m-32 0h-224 73.8461 54.1539z"/><path d="m768 0h-224z"/><path d="m768 0h85.0346 138.9654z"/><path d="m1024-512h-160z"/><path d="m576-1024h224z"/><path d="m-2048-1128v78 26z"/><path d="m-2048-1536v70z"/><path d="m-2048-1024h224z"/><path d="m-1824-1024h224z"/><path d="m-1600-1024h224z"/><path d="m-1376-1024h224z"/><path d="m-1152-1024h128 96z"/><path d="m-928-1024h128 32z"/><path d="m-768-1024h224z"/><path d="m-544-1024h224z"/><path d="m-320-1024h224z"/><path d="m-96-1024h224z"/><path d="m128-1024h224z"/><path d="m352-1024h224z"/><path d="m-2176.3989-1128h8.4455l-177.1098-23.3594 112.6933 23.3594z"/><path d="m-2296.5898-1128-29.5516-8.7188v8.7188z"/><path d="m-2438.7793-1128-30.3997-17.0049-61.9631-34.661v12.6659 39z"/><path d="m-2400.3989-1128h34.3989l-41.8586-17.0049v17.0049z"/><path d="m-2232.3699-1128-112.6933-23.3594-103.2176-21.3951 122.1394 36.0357 29.5516 8.7188z"/><path d="m-2111.075-1128-110.8706-7.1211 53.9922 7.1211z"/><path d="m-2400.3989-1128h-7.4597-30.9207-92.3628-93.2568l71.3425 21.0378 138.2891 28.6485 14.3684 1.8988z"/><path d="m-2176.3989-1128h-55.971-64.2199-29.5516-39.8586-34.3989v51.5851l125.6706 16.6079 98.3294 6.3205z"/><path d="m-2048-1128h-63.075-56.8784-8.4455v74.5135l54.2385 3.4865h74.1604z"/><path d="m-2624.3989-1320-49.6148-14.6306-43.0332-17.4822-2.6804-6.8872h188.5852v39z"/><path d="m-2407.8589-1320h-30.9204l-30.3999-17.0051h61.3203z"/><path d="m-2366-1320h-34.3989-7.46v-17.0051z"/><path d="m-2326.1414-1320h-39.8586l-41.8589-17.0051-142.2825-57.8023 224 66.0885z"/><path d="m-2296.5898-1320h-29.5516v-8.7189z"/><path d="m-2176.3989-1320h-55.9707l-112.6934-23.3594 177.1099 23.3594z"/><path d="m-2111.0747-1320-.0003 192h63.075v-192z"/><path d="m192 0h-224 128z"/><path d="m992 0h-224z"/><path d="m992 0h32 46.5453 145.4547z"/><path d="m-2221.9453-1327.1211 110.8706 7.1211h-56.8784z"/><path d="m-2221.9453-1327.1211-.0003 192 110.8706 7.1211.0003-192z"/><path d="m252.2352 0h-60.2352z"/><path d="m-2326.1414-1136.7188-122.1394-36.0357-101.8606-30.0528 184.1414 74.8073h39.8586z"/><path d="m1216 0h-224z"/><path d="m1248 0h-32z"/><path d="m1248 0h32z"/><path d="m1024-512h224z"/><path d="m1280 0h-32z"/><path d="m1280 0h224z"/><path d="m1616.943 0h-112.943z"/><path d="m1024-1536h64 160z"/><path d="m1248-1536h32 128 64z"/><path d="m1616.9427-1536h-112.9427-32z"/><path d="m-768-1536h64 160z"/><path d="m-544-1536h64 160z"/><path d="m-320-1536h64 160z"/><path d="m-96-1536h64 160z"/><path d="m128-1536h64 160z"/><path d="m352-1536h64 160z"/><path d="m576-1536h64 160z"/><path d="m1024-1536h-224z"/><path d="m-2048-1536h224z"/><path d="m-1824-1536h224z"/><path d="m-1600-1536h224z"/><path d="m-1376-1536h224z"/><path d="m-1152-1536h224z"/><path d="m-768-1536h-32-128z"/><path d="m1770.918-49.9549-.0002.0001-153.9748 49.9548z"/><path d="m2048-431.0571-49.9551 153.9753v.0001z"/><path d="m1902.429-145.5701-131.5112 95.6153.0002-.0001z"/><path d="m1998.0449-277.0817v-.0001l-95.6159 131.5117z"/><path d="m2048-431.0571v-80.9429-64-79.0569z"/><path d="m2048-655.0569v-144.9431-79.0569z"/><path d="m2048-1104.9429v.0002 16.9427 64 144.9431z"/><path d="m1902.4296-1390.4291 57.0219 78.4291 38.5934 53.0817v-.0002z"/><path d="m1024-1024h224z"/><path d="m1319.0127-1024h.0001-39.0128-32z"/><path d="m1616.9427-1536 153.9751 49.955.0008.0004z"/><path d="m1770.9186-1486.0446-.0008-.0004 131.5118 95.6159z"/><path d="m1998.0449-1258.9185v.0002l49.9551 153.9756v-.0002z"/><path d="m1319.0127-512h-39.0127-32z"/><path d="m1536-728.9873v-.0005-78.0245-.0004z"/><path d="m1510.4287-650.3315.0001-.0003 25.5712-78.656v.0005z"/><path d="m1536-807.0127v.0004l-25.5713-78.6562z"/><path d="m1463.0513-584.9502v-.0005l47.3775-65.3811-.0001.0003z"/><path d="m1510.4287-885.6685-47.3783-65.3819.0006.0004z"/><path d="m1397.667-537.5708.0011-.0002 65.3832-47.3797v.0005z"/><path d="m1463.051-951.05-.0006-.0004-65.3818-47.3782.0003-.0001z"/><path d="m1319.0127-512 78.6554-25.571-.0011.0002z"/><path d="m1397.6689-998.4287-.0003.0001-78.6558-25.5714h-.0001z"/><path d="m-2674.0137-1142.6305v-192.0001l49.6148 14.6306 71.3425 21.0378v192z"/><path d="m-2407.8586-1145.0049-224-91 100.7165 56.339 61.9631 34.661z"/><path d="m-2407.8586-1145.0049h-61.3204l30.3997 17.0049h30.9207z"/><path d="m-2469.1792-1337.0051-61.9629-34.661-100.7168-56.3391 81.7175 33.1978 142.2825 57.8023z"/><path d="m-2345.063-1343.3594-.0002 192 123.1176 16.2383.0003-192z"/><path d="m-2048-1352v32 192-91z"/><path d="m-2719.7273-1167 2.6804 6.8873 43.0332 17.4822 49.6148 14.6305h93.2568v-39z"/><path d="m-2734-1167 16.9531 6.8873-2.6804-6.8873z"/><path d="m-2719.7273-1359 2.6804 6.8872-16.9531-6.8872z"/><path d="m-2719.7273-1359-35.4148-91h45.6448 28.0105 10.3081l140.0366 78.3339v12.6661z"/><path d="m-2448.2808-1364.7546 103.2178 21.3952 112.6934 23.3594h-64.2202z"/><path d="m-2448.2808-1364.7546v192.0001l103.2176 21.3951.0002-192z"/><path d="m-2531.1421-1179.6659-140.0366-78.3341h-10.3081-28.0105-45.6448l35.4148 91h188.5852z"/><path d="m-2531.1421-1371.6661 92.3628 51.6661h-92.3628z"/><path d="m-2048-1375v-91z"/><path d="m-2779.9863-1185.6818v-192.0001l105.9726 43.0513v192.0001z"/><path d="m1024-1024h-64-160z"/><path d="m-2550.1414-1394.8074v192.0001l101.8606 30.0528v-192.0001z"/><path d="m-2550.1414-1202.8073v-192.0001l-81.7175-33.1978.0003 192.0003z"/><path d="m1024-512h-160z"/><path d="m576-1024h224z"/><path d="m-2837.1626-1409.682 57.1763 32.0001v192.0001l-87.7989-49.139v-174.8612z"/><path d="m-2048-1219v91 104z"/><path d="m-2048-1536v70z"/><path d="m-2048-1219v-29-62-42z"/><path d="m-2048-1411v36 23z"/><path d="m-2048-1024h224z"/><path d="m-1824-1024h224z"/><path d="m-1600-1024h224z"/><path d="m-1376-1024h224z"/><path d="m-1152-1024h224z"/><path d="m-928-1024h160z"/><path d="m-768-1024h224z"/><path d="m-544-1024h224z"/><path d="m-320-1024h224z"/><path d="m-96-1024h224z"/><path d="m128-1024h224z"/><path d="m352-1024h224z"/><path d="m1504 0h-224z"/><path d="m2112-1536v64z"/><path d="m1408-1536h-128-96z"/><path d="m1632-1536h-15.0573-144.9427-64z"/><path d="m1856-1536h-59.4083-164.5917z"/><path d="m2080-1536h-32-27.4083-164.5917z"/><path d="m-1824-1536h-224z"/><path d="m-1600-1536h-224z"/><path d="m-1376-1536h-224z"/><path d="m-1152-1536h-224z"/><path d="m-928-1536h-224z"/><path d="m-704-1536h-64-160z"/><path d="m-480-1536h-64-160z"/><path d="m-256-1536h-64-160z"/><path d="m-32-1536h-64-160z"/><path d="m192-1536h-64-160z"/><path d="m416-1536h-64-160z"/><path d="m640-1536h-64-160 96z"/><path d="m864-1536h-64-160z"/><path d="m1088-1536h-64-160 96z"/><path d="m1616.9427-1536h-144.9427z"/><path d="m864-1536h160-224z"/><path d="m-768-1536h-160z"/><path d="m2048-655.0569v143.0569 80.9429z"/><path d="m2048-879.0569v224z"/><path d="m2048-1312v-224h32 32v64 160z"/><path d="m2048-1088v-16.9427-85.2664-121.7909h64v64 160z"/><path d="m2112-1024h-64v-64h64z"/><path d="m1959.4515-1312-107.4024-147.7234-55.4574-76.2766h59.4083 164.5917v224z"/><path d="m2020.5917-1227.907-22.5468-31.0113-38.5934-53.0817h61.1402z"/><path d="m2048-1536v224h-27.4083v-224z"/><path d="m2048-1312v121.7909l-27.4083-37.6979v-84.093z"/><path d="m1280-1024h-32z"/><path d="m1248-1024h-224z"/><path d="m1280-1024h-96z"/><path d="m2020.5917-1227.907 27.4083 37.6979v85.2664l-49.9551-153.9756z"/><path d="m1852.0491-1459.7234 50.3805 69.2943-131.5118-95.6159z"/><path d="m1632-1536h164.5917l55.4574 76.2766-81.1313-26.3216-153.9751-49.955z"/><path d="m1280-512h39.0127-71.0127z"/><path d="m-2867.7852-1426.8209 30.6226 17.1389h-30.6226z"/><path d="m1248-1024h-64-160z"/><path d="m1184-1536h-224z"/><path d="m1184-1536h96-32-160z"/><path d="m-2755.1421-1258h45.6448l-16.25-20.3339h-37.3084z"/><path d="m-2755.1421-1258h-60.8579-80.8025-.0781l29.0954 23.1792 87.7989 49.139 45.9863 18.6818h14.2727z"/><path d="m-2755.1421-1450 35.4148 91h-14.2727l-45.9863-18.6819-87.7989-49.139-29.0358-23.1317-.0596-.0474z"/><path d="m-2896.8806-1450-41.4238-33-15.3433-19.162h137.6477v52.162z"/><path d="m-2681.4868-1450-24.3479-19.386 34.656 19.386z"/><path d="m-2709.4973-1450h-45.6448l-7.9136-20.3341h37.3084z"/><path d="m-2755.1421-1450h-60.8579v-52.162-13.2141h35.4153z"/><path d="m-2709.4973-1450-49.0032-61.3187 77.0137 61.3187z"/><path d="m960-1536h-224z"/><path d="m-2705.8345-1277.3856 24.3477 19.3856h10.3081z"/><path d="m-2705.8345-1277.3856-.0002-192.0004-52.6658-41.9327v192.0002z"/><path d="m-2705.8347-1469.386.0002 192.0004 73.9759 41.3807-.0003-192.0003z"/><path d="m-2725.7473-1278.3339-72.7234-91 17.8857 45.958 17.5293 45.042z"/><path d="m-2763.0557-1470.3341-17.529-45.042-17.886-45.9581 72.7234 91.0001z"/><path d="m800-1024h-64.0013-159.9987z"/><path d="m-2816-1283.6248v25.6248h60.8579l-25.4429-65.3759h-35.415z"/><path d="m-2886.8301-1283.6248h70.8301v-91h-35.415z"/><path d="m-2886.8301-1283.6248-9.9724 25.6248h80.8025v-25.6248z"/><path d="m736-1536h-224z"/><path d="m-2938.3044-1291-.0005-167.8208h30.352l11.1319 8.8682 29.0358 23.1317v17.1389 174.8612z"/><path d="m-2938.3049-1458.8208.0005-24.1792 30.3515 24.1792z"/><path d="m576-1024h-64-160z"/><path d="m-2048-1024v-224 29z"/><path d="m-2048-1248v-62z"/><path d="m-2048-1502v-34 70z"/><path d="m-2048-1502v91 59z"/><path d="m2112-1248v224-64z"/><path d="m2112-1472v224-64z"/><path d="m2112-1536h-32z"/><path d="m-1824-1024h-224z"/><path d="m-1600-1024h-224z"/><path d="m-1376-1024h-224z"/><path d="m-1152-1024h-224z"/><path d="m-928-1024h-224z"/><path d="m-768-1024h-160z"/><path d="m-544-1024h-224z"/><path d="m-320-1024h-224z"/><path d="m-96-1024h-224z"/><path d="m128-1024h-224z"/><path d="m352-1024h-224z"/><path d="m736-1024h-224 64 159.9987z"/><path d="m960-1024h-224-.0013 64.0013z"/><path d="m1184-1024h-224 64z"/><path d="m-2953.6477-1310.162 15.3433 19.162 41.4238 33h.0781l20.3001-52.162z"/><path d="m-2953.6477-1502.162-30.2114-37.7294-12.4637-32.0004-8.2844-21.2703h188.6072v77.786 13.2141z"/><path d="m-2758.5005-1319.3185 49.0032 61.3185h28.0105z"/><path d="m-2963.9285-1515 25.6241 32-.0005 24.1792.0005 167.8208-45.5547-56.8914.0002-167.1086z"/><path d="m-2780.585-1323.3759-17.8857-45.958-17.5293-45.042v39.7511 51.2489z"/><path d="m-2816-1515.3761v-77.786-13.2141l17.5293 45.042 17.886 45.9581z"/><path d="m-2983.8591-1539.8914 19.9306 24.8914h-19.9304z"/><path d="m-2798.4707-1543.3186v173.9847l39.9702 50.0154v-192.0002l-25.5732-31.9999z"/><path d="m-2798.4707-1369.3339v-173.9847-18.0156l-17.5293-45.042v192.0003z"/><path d="m-2798.4707-1561.3342v18.0156h14.397z"/><path d="m-2816-1374.6248v-90.9998l-25.0874 64.4626-10.3276 26.5372z"/><path d="m-2996.3228-1571.8918 12.4637 32.0004v192l-20.7481-53.2706-3.3928-8.7103v-162.0193z"/><path d="m-3004.6072-1401.162 20.7481 53.2706 30.2114 37.7294h77.1453l25.0874-64.4628 10.3276-26.5372z"/><path d="m-3004.6072-1593.1621-3.3928-8.71v-60.2551l8.582-22.0347 183.418-.0002v45.7859 45.2141z"/><path d="m-3008-1601.8721 11.6772 29.9803-11.6772.0002z"/><path d="m-3008-1633.8723v32.0002 29.9805 162.0193-60.255z"/><path d="m-2816-1638.3757v172.7511 51.2487-192.0003-32z"/><path d="m-2816-1657.625v19.2493-.0005z"/><path d="m-2816-1465.6246v-172.7511-19.2493l17.5291-45.0415v192.0004z"/><path d="m-3008-1662.1272v28.2549z"/><path d="m-2816-1680.7319 17.5291-21.9346-17.5291 45.0415z"/><path d="m-2999.418-1492.162-8.582 22.0347v60.255l3.3928 8.7103h163.5198l25.0874-64.4626v-23.107-3.4303z"/><path d="m-2999.418-1684.1619 15.5584-39.9463 40.8808-51.0534 126.9788-.0005v42.1724 26.0893 22.7383z"/><path d="m-2995.5364-1694.1274-12.4636 32.0002v28.2549 163.745l24.1406-61.981v-162.0191z"/><path d="m-2798.4709-1510.6661 39.9697-50.0148-57.4988 45.7808v22.7382 3.4303z"/><path d="m-2798.4709-1510.6661-17.5291 21.9345v23.107z"/><path d="m-2816-1706.9004 57.4988-45.7808-57.4988 71.9493z"/><path d="m-2983.8596-1724.1082-11.6768 29.9808h11.677z"/><path d="m-2816-1540.9895 21.4622-12.0056h-21.4622z"/><path d="m-2816-1732.9897v-12.0057h21.4622z"/><path d="m-2816-1732.9897 21.4622-12.0057 88.7026-49.6186-110.1648 87.7136z"/><path d="m-2794.5378-1552.9951 88.7026-49.6187 73.9768-41.3813-184.1416 74.8076v16.1924z"/><path d="m-2816-1744.9954v-16.1923l184.1416-74.8077-73.9768 41.3814-88.7026 49.6186z"/><path d="m-2758.5012-1734.666v173.9851l-39.9697 50.0148v-192.0004l25.573-31.9995z"/><path d="m-2758.5012-1560.6809v-173.9851-18.0152l52.666-41.9328v192.0002z"/><path d="m-2758.5012-1752.6812v18.0152h-14.3967z"/><path d="m-2958.2356-1756.1084-25.624 32.0002.0002 29.9808v162.0191l45.5552-56.8917v-167.1084z"/><path d="m-2942.9788-1583.1621-40.8806 51.0538-15.5586 39.9463 183.418.0001v-91.0002z"/><path d="m-2942.9788-1775.1616 4.6748-5.8384 70.5186-56.1792 51.7854-28.9829v91z"/><path d="m-2938.304-1781-19.9316 24.8916h19.9314z"/><path d="m-2816-1598.7542v-75.4079l-51.7864 28.9836-70.5178 56.1785-4.6746 5.8379h126.9788z"/><path d="m-2705.8352-1602.6138-88.7026 49.6187-21.4622 12.0056v26.0894z"/><path d="m-2705.8352-1602.6138v-192.0002l73.9768-41.3814v192.0003z"/><path d="m-2898.1365-1813-40.1675 32-.0002 24.8916v167.1084l70.5178-56.1785-.0007-167.8215z"/><path d="m-2631.8584-1643.9951v-192.0003l39.8584-16.1926 41.8572-17.0041.001 191.9997z"/><path d="m-2867.7854-1837.1792-30.3511 24.1792h30.3494z"/><path d="m-2592-1852.188-39.8584 16.1926-184.1416 74.8077v-29.5665l224-66.0886z"/><path d="m-2592-1664.8425-224 66.0883v15.5921 13.9746l184.1416-74.8076 39.8584-16.1924z"/><path d="m-2592-1856.8428-224 66.0886v-32.2695l224-46.4314z"/><path d="m-2550.1428-1869.1921-41.8572 17.0041v-4.6548z"/><path d="m-2550.1418-1677.1924-41.8582 12.3499v4.655z"/><path d="m-2550.1418-1677.1924-.001-191.9997 101.8628-30.0537.0005 192.0002z"/><path d="m-2592-1677.4548-224 46.4314v32.2692l224-66.0883z"/><path d="m-2592-1869.4551-224 46.4314v-35.5044l224-29.5439z"/><path d="m-2779.9858-1869.1792v-17.1392l-30.6236 17.1392z"/><path d="m-2779.9856-1694.3186-.0002-174.8606h-30.6236l-57.176 32-.001 192.0007z"/><path d="m-2592-1888.072-224 29.5439v-7.634l36.0142-20.1563 43.0332-17.4824 144.9526-9.31z"/><path d="m-2448.28-1899.2458-101.8628 30.0537-41.8572 12.3493v-12.6123z"/><path d="m-2448.2795-1707.2456-143.7205 29.7908v12.6123z"/><path d="m-2448.2795-1707.2456-.0005-192.0002 103.2195-21.3956.0002 192.0003z"/><path d="m-2736.9526-1903.8008-43.0332 17.4824.0002 191.9998 43.0327-17.4819 62.9385-25.5686v-192z"/><path d="m-2592-1721.1106-144.9529 9.3101-43.0327 17.4819-36.0144 20.1565v43.1387l224-46.4314z"/><path d="m-2368-1917.6157-224 29.5437v-25.0388l224-14.3872z"/><path d="m-2368-1917.6157v1.7292l-224 46.4314v-18.6169z"/><path d="m-2368-1917.6157 22.9395-3.0257-22.9395 4.7549z"/><path d="m-2512.9529-1918.1877-223.9997 14.3869 62.9382-25.5683 120.9595-35.669 40.1018-8.3078z"/><path d="m-2345.0603-1728.6411-22.9397 3.0256v1.7293z"/><path d="m-2345.0603-1728.6411-.0002-192.0003 123.1127-16.2375.0005 192.0002z"/><path d="m-2368-1735.4978-144.9529 9.3101-79.0471 5.0771v43.6558l224-46.4314z"/><path d="m-2674.0144-1929.3691v192l120.9595-35.669v-192z"/><path d="m-2288.9529-1932.575-224 14.3873-.0002-55.1582 98.1848-20.3401 125.8154-16.627z"/><path d="m-2221.9478-1936.8789-146.0522 19.2632v-9.8823z"/><path d="m-2221.9473-1744.8787-146.0527 9.3809v9.8823z"/><path d="m-2221.9473-1744.8787-.0005-192.0002 109.9478-7.0615v192z"/><path d="m-2112-1751.9404v-78.0596h-10.1597l-152.5686 9.8071-14.2246 1.8799v77.738z"/><path d="m-2112-1943.9404.925-.0596v192l-.925.0596z"/><path d="m-1824-2048h-224z"/><path d="m-1600-2048h-224z"/><path d="m-1376-2048h-224z"/><path d="m-1280-1536h-96z"/><path d="m-1280-2048v64z"/><path d="m-2048-1824v-120-104h224v224z"/><path d="m-2048-1600v-152-72h224v224z"/><path d="m-1824-1536h-224v-64h224z"/><path d="m-1824-1824v-224h224v224z"/><path d="m-1824-1600v-224h224v224z"/><path d="m-1600-1536h-224v-64h224z"/><path d="m-1600-1824v-224h224v224z"/><path d="m-1600-1600v-224h224v224z"/><path d="m-1376-1536h-224v-64h224z"/><path d="m-1280-2048v64 160h-96v-224z"/><path d="m-1280-1824v64 160h-96v-224z"/><path d="m-1280-1600v64h-96v-64z"/><path d="m-2112-1752v.0596l.925-.0596z"/><path d="m-2111.075-1944-.925.0596v-.0596z"/><path d="m-2111.075-1944h-.925v-78h64v78z"/><path d="m-2111.075-1752v-192h63.075v120 72z"/><path d="m-2048-1760v8 152 64-64z"/><path d="m-2048-1760v-70h-64v78h.925 63.075z"/><path d="m-2512.9531-1973.3459-40.1018 8.3078v192l40.102-8.3078 98.1841-20.3401.0005-192z"/><path d="m-2512.9529-1781.3459-40.102 8.3078-120.9595 35.669-62.9385 25.5686 144.9529-9.3101 79.0471-5.0771z"/><path d="m-2414.7683-1993.686-.0005 192 140.0405-18.5069-.0005-191.9997z"/><path d="m-2288.9529-1818.313-125.8159 16.627-98.1841 20.3401v55.1582l144.9529-9.3101 79.0471-5.0772z"/><path d="m-2274.7288-2012.1926.0005 191.9997 152.5686-9.8071v-192z"/><path d="m-2274.7288-2012.1926 152.5691-9.8074h10.1597v78.0596l-176.9529 11.3654v-77.738z"/></g><g id="d"><path d="m-1280-2048h-96z"/><path d="m-2048-1824v-6 70z"/><path d="m-2048-2048v104-78z"/><path d="m-1824-1536h-224z"/><path d="m-1600-1536h-224z"/><path d="m-1376-1536h-224z"/><path d="m-1280-1760v160 64-64z"/><path d="m-1280-1984v160 64-64z"/><path d="m-1824-2048h-224v26 192 6h224z"/><path d="m-2048-1824v64 160h224v-224z"/><path d="m-2048-1600v64h224v-64z"/><path d="m-1600-2048h-224v224h224z"/><path d="m-1824-1824v224h224v-224z"/><path d="m-1824-1600v64h224v-64z"/><path d="m-1376-2048h-224v224h224z"/><path d="m-1600-1824v224h224v-224z"/><path d="m-1600-1600v64h224v-64z"/><path d="m-1280-1824v-160-64h-96v224z"/><path d="m-1280-1600v-160-64h-96v224z"/><path d="m-1280-1536v-64h-96v64z"/><path d="m-2112-1830h64v-192h-64-10.1597v192z"/></g></defs><g stroke="#000"><use fill="none" stroke-miterlimit="0" stroke-width="10" xlink:href="#a"/><use fill="#c4c4c4" xlink:href="#a"/><use fill="none" stroke-miterlimit="0" stroke-width="10" xlink:href="#b"/><use fill="#d9d9d9" xlink:href="#b"/><use fill="none" stroke-miterlimit="0" stroke-width="10" xlink:href="#c"/><use fill="#ebebeb" xlink:href="#c"/><use fill="none" stroke-miterlimit="0" stroke-width="10" xlink:href="#d"/><use fill="#fff" xlink:href="#d"/></g></svg>