<svg viewBox="-764 -892 2296 1880" xmlns="http://www.w3.org/2000/svg" xmlns:xlink="http://www.w3.org/1999/xlink"><defs><g id="a"><path d="m576-160v64z"/><path d="m384 544h-64-25.6z"/><path d="m416-320-32-32 192 192z"/><path d="m256-352h128l32 32v192h-224v-224z"/><path d="m416-128v32 192h-224v-192-32z"/><path d="m416 96v32 192h-224v-144-48-32z"/><path d="m416 320v32 160l-32 32h-89.6-102.4v-144-80z"/><path d="m416-128v-192l160 160v64h-160z"/><path d="m576-96v224h-160v-32-192z"/><path d="m576 128v224h-160v-32-192z"/><path d="m576 352-24 24-136 136v-160z"/><path d="m192-352v224h-121.6v-224z"/><path d="m192-128v32h-64-57.6v-32z"/><path d="m192-96v192 32h-64v-224z"/><path d="m192 128v48h-64v-48z"/><path d="m576 352-24 24z"/><path d="m192 400v144h-121.6v-144z"/><path d="m576-96v-64z"/><path d="m576 128v-224z"/><path d="m1376-512v224z"/><path d="m1376-288v224z"/><path d="m1376-64v224z"/><path d="m1376 160v224z"/><path d="m1376 384v224z"/><path d="m1376 608v224z"/><path d="m1248 640v115.2l128 76.8v-192z"/><path d="m1248 416v224h128v-224z"/><path d="m1248 192v224h128v-224z"/><path d="m1248-32v224h128v-224z"/><path d="m1248-256v224h128v-224z"/><path d="m1248-480v224h128v-224z"/><path d="m1376-704-128 87.04v136.96h128z"/><path d="m1201.0667 727.04 46.9333 28.16v-28.16z"/><path d="m1024 503.04v117.76l177.0667 106.24h46.9333v-224z"/><path d="m1024 279.04v224h224v-224z"/><path d="m1024 55.04v224h224v-224z"/><path d="m1024-168.96v224h224v-224z"/><path d="m1024-392.96v224h224v-224z"/><path d="m1248-616.96-224 152.32v71.68h224z"/><path d="m800 431.36v55.04l224 134.4v-189.44z"/><path d="m800 207.36v224h224v-224z"/><path d="m800-16.64v224h224v-224z"/><path d="m800-240.64v224h224v-224z"/><path d="m1024-464.64-224 152.32v71.68h224z"/><path d="m588.8 359.68 211.2 126.72v-126.72z"/><path d="m576 135.68v216.32l12.8 7.68h211.2v-224z"/><path d="m576-88.32v224h224v-224z"/><path d="m800-312.32-224 152.32v71.68h224z"/><path d="m1248-616.96 128-87.04z"/><path d="m1024-464.64 224-152.32z"/><path d="m800-312.32 224-152.32z"/><path d="m1248 755.2-224-134.4z"/><path d="m1024 620.8-224-134.4z"/><path d="m800 486.4-224-134.4z"/><path d="m320 128v-64z"/><path d="m320 64h64z"/><path d="m384 64v64z"/><path d="m384 128h-64z"/><path d="m320 64v64h64v-64z"/><path d="m128 176h-57.6-166.4v-16-32h224z"/><path d="m128 176h64v144 80h-121.6v-224z"/><path d="m70.4-352h-224 57.6z"/><path d="m70.4-96h-166.4-57.6v-32h224z"/><path d="m70.4 544h-224v-128-16h224z"/><path d="m32 352v64z"/><path d="m32 416h-64z"/><path d="m-32 352v64h64v-64z"/><path d="m-32 352h64z"/><path d="m-32 416v-64z"/><path d="m70.4 176h-166.4-57.6 25.6 140.8z"/><path d="m294.4 176h-166.4-57.6 166.4 19.2z"/><path d="m464 176v-112-32z"/><path d="m-96 128v-96-16-112h166.4 57.6v224z"/><path d="m-96-96v112h-57.6v-112z"/><path d="m368-336h16z"/><path d="m256-336h16z"/><path d="m272-336h96z"/><path d="m448 32h16l-80-80h-16z"/><path d="m448 32v128 16h16v-144z"/><path d="m128 160h-48-176v16h166.4 57.6z"/><path d="m352 160h-32-192v16h166.4 57.6z"/><path d="m448 176v-16h-64-32v16z"/><path d="m384 32h64l-80-80v80z"/><path d="m384 64v64 32h64v-128h-64z"/><path d="m368-112v-208h-96v208 16h96z"/><path d="m272-96v48 80h32 64v-80-48z"/><path d="m384-272v-64h-16v16 208h16z"/><path d="m368-112v16 48h16v-64z"/><path d="m272-320v-16h-16v64 160h16z"/><path d="m256-112v64h16v-48-16z"/><path d="m368-336h-96v16h96z"/><path d="m272-48h-16l-64 64v16z"/><path d="m272 32v-80l-80 80z"/><path d="m304 32h-32-80-64-48v32h224z"/><path d="m320 64h64v-32h-16-64v32z"/><path d="m128 16h-57.6-166.4v16h176 48z"/><path d="m192 32v-16h-64v16z"/><path d="m320 160h32 32v-32h-64z"/><path d="m80 160h48 192v-32-64h-16-224z"/><path d="m-96 128v32h176v-96-32h-176z"/><path d="m256-336v64z"/><path d="m384-272v160 64z"/><path d="m464 32-80-80z"/><path d="m128 16h64-121.6z"/><path d="m192 16 64-64z"/><path d="m576 128v48 176z"/><path d="m576-96v160 64z"/><path d="m576-160v64z"/><path d="m272-352h96 16-128z"/><path d="m-96-352h-57.6-166.4 112z"/><path d="m128-352h-48-9.6-166.4 128 32z"/><path d="m80-352h48 112 16-64-121.6z"/><path d="m368-608v32z"/><path d="m112-736h-80z"/><path d="m304-448h-80v-144-16h144v32 128z"/><path d="m208-608v16h-80v-16z"/><path d="m208-592h16v144h-96v-144z"/><path d="m112-640h-80v-96h80z"/><path d="m32-640h80v32 96h-64-16z"/><path d="m112-496v-16-96h16v16 144h-16z"/><path d="m48-512h64v16h-64z"/><path d="m80-448h-48v-48h16 64v48z"/><path d="m304-416h-32-16-176v-32h32 16 96 80z"/><path d="m368-448v32h-64v-32z"/><path d="m368-352h-96v-32-32h32 64z"/><path d="m256-384v-32h16v32z"/><path d="m80-416h176v32h-16-160z"/><path d="m80-416v32h-48v-64h48z"/><path d="m32-496v48z"/><path d="m208-608h-80z"/><path d="m80-384h160-176-32z"/><path d="m70.4 544h-198.4-25.6z"/><path d="m294.4 544h-198.4-25.6 121.6z"/><path d="m384 544h-64z"/><path d="m576-96v-64l-192-192v16 64 224l80 80 32 32h80z"/><path d="m384-272v-64-16l192 192v64 160h-80l-32-32-80-80z"/><path d="m464 64v-32l32 32z"/><path d="m464 64h32l-32-32z"/><path d="m464 176v-112h32 80v64 48z"/><path d="m576 176v-48-64h-80-32v112z"/><path d="m-32 352h64 544v-176h-112-169.6-38.4-19.2-166.4-57.6-140.8v176z"/><path d="m12.8 176h57.6 166.4 19.2 38.4 169.6 112v176h-544-64-96v-176z"/><path d="m70.4 544h25.6 198.4 25.6 64l128-128h-480-64-96v128z"/><path d="m-32 416h64 480l-128 128h-64-25.6-198.4-25.6-198.4v-128z"/><path d="m576 352-24 24-40 40h-480v-64z"/><path d="m512 416 40-40 24-24h-544v64z"/><path d="m256-336h16 96 16v-16h-16-96-16-16-112-48v16z"/><path d="m128-352h112 16 16 96 16v16h-16-96-16-176v-16z"/><path d="m256-96v-176-64h-176v240z"/><path d="m256-336v64 176h-176v-240z"/><path d="m-96-352h166.4 9.6v16 240h-233.6v-32-224z"/><path d="m80-96v-240-16h-9.6-166.4-57.6v224 32z"/><path d="m80-96h176v48l-64 64h-121.6-57.6-166.4v-112z"/><path d="m12.8 16h57.6 121.6l64-64v-48h-176-233.6v112z"/><path d="m-32 352v64h-96v-64z"/><path d="m-128 416h96v-64h-96z"/><path d="m-153.6 416v-16-224h25.6v176 64 128h-25.6z"/><path d="m-128 416v-64-176h-25.6v224 16 128h25.6z"/><path d="m464 64v112-144z"/><path d="m256-336v64z"/><path d="m384-336h-16z"/><path d="m272-336h-16z"/><path d="m368-336h-96z"/><path d="m384-272v224-64z"/><path d="m464 32-80-80z"/><path d="m-32 416h64z"/><path d="m12.8 176h-140.8-25.6-57.6z"/><path d="m236.8 176h-166.4-57.6z"/><path d="m256 176h-19.2z"/><path d="m-153.6-128v32 112h-57.6-172.8v-144z"/><path d="m70.4 16h121.6-179.2z"/><path d="m256-48-64 64z"/><path d="m-32 352v64z"/><path d="m32 416v-64z"/><path d="m32 352h-64z"/><path d="m-153.6 416v128h-6.4-224v-128z"/><path d="m464 176h-16-96-57.6z"/><path d="m-153.6-128v-224h224v224z"/><path d="m256-272v176 48-64z"/><path d="m384-336v64z"/><path d="m70.4 16h-57.6-166.4 57.6z"/><path d="m552 376-40 40-128 128 32-32z"/><path d="m-153.6 400v-224h57.6 166.4v224z"/><path d="m-160 544h6.4 25.6z"/><path d="m112-736h-80-32z"/><path d="m32-736v96z"/><path d="m32-640h-32v-96h32z"/><path d="m256-272v160 64-48z"/><path d="m448 176h16-169.6-38.4z"/><path d="m272 32h96 80v128h-192v-128z"/><path d="m448 32h-80v-80z"/><path d="m448 160v16h-192v-16z"/><path d="m464 176h-16v-16-128h16z"/><path d="m384-48 80 80h-16l-80-80z"/><path d="m272-112v-208h96v208 16h-96z"/><path d="m368-96v48 80h-96v-80-48z"/><path d="m368-320v-16h16v64 160h-16z"/><path d="m384-112v64h-16v-48-16z"/><path d="m256-272v-64h16v16 208h-16z"/><path d="m272-112v16 48h-16v-64z"/><path d="m368-320h-96v-16h96z"/><path d="m256-48h16l-16 16z"/><path d="m272-48v80h-16v-64z"/><path d="m384-336v64z"/><path d="m-211.2 16v16 128 16h-172.8v-80-80z"/><path d="m12.8 160h-224v-128h224z"/><path d="m236.8 160h-224v-128h179.2 44.8z"/><path d="m256 160h-19.2v-128h19.2z"/><path d="m12.8 176h-224v-16h224z"/><path d="m236.8 176h-224v-16h224z"/><path d="m256 176h-19.2v-16h19.2z"/><path d="m256-48v16l-64 64v-16z"/><path d="m256 32h-19.2-44.8l64-64z"/><path d="m12.8 32h-224v-16h224z"/><path d="m192 16v16h-179.2v-16z"/><path d="m12.8 16h-224 57.6z"/><path d="m0-736v96z"/><path d="m112-640v-96z"/><path d="m0-640h-32v-96h32z"/><path d="m112-640v32z"/><path d="m576-160v64z"/><path d="m576-96v224z"/><path d="m576 352v-224z"/><path d="m1376-704v192z"/><path d="m1376-288v-224z"/><path d="m1376-64v-224z"/><path d="m1376 160v-224z"/><path d="m1376 384v-224z"/><path d="m1376 608v-224z"/><path d="m1376 832v-224z"/><path d="m1376-704-128 87.04z"/><path d="m1248-616.96-224 152.32z"/><path d="m1024-464.64-224 152.32z"/><path d="m576-160 224-152.32z"/><path d="m1376 832-128-76.8z"/><path d="m1024 620.8 224 134.4z"/><path d="m800 486.4 224 134.4z"/><path d="m576 352 224 134.4z"/><path d="m240-352h32-16z"/><path d="m240-352h-112z"/><path d="m64-352h-32z"/><path d="m112-736h-112-32z"/><path d="m0-640h-32z"/><path d="m112-736v96z"/><path d="m-32-736v96z"/><path d="m-32-640h-32v-96h32z"/><path d="m32-384v-32-32z"/><path d="m240-384v32z"/><path d="m64-384v32z"/><path d="m240-384v32h-112-64v-32z"/><path d="m576 128v160 64-176z"/><path d="m576-96v160 64-64z"/><path d="m576-96v-64h96 128v224h-224z"/><path d="m112-736h-144-32z"/><path d="m0-640h-64 32z"/><path d="m-64-640h-32v-96h32z"/><path d="m-64-736v96z"/><path d="m32-640v128z"/><path d="m48-496h-16z"/><path d="m224-608v16z"/><path d="m224-608h112 32z"/><path d="m224-592h-16z"/><path d="m224-608h-16-80z"/><path d="m224-592h-16v-16h16z"/><path d="m208-592v-16z"/><path d="m32-512h16z"/><path d="m32-496v-16h16v16z"/><path d="m48-512v16z"/><path d="m-576 320v32 64 128-128z"/><path d="m-576 544h192z"/><path d="m-384 544h224-96z"/><path d="m-576 320v-32-64h192v128h-64-128z"/><path d="m-576 416v-64h128v64z"/><path d="m-384-128v144 80h-192v-64-160z"/><path d="m-384 96v80 32h-192v-48-64z"/><path d="m-32 352v64z"/><path d="m32 416v-64z"/><path d="m32 352h-64z"/><path d="m-384 352v64z"/><path d="m-384 352h-64z"/><path d="m-384-352h64 166.4v224h-230.4z"/><path d="m-384 352v-128-16-32h172.8 57.6v224 16h-230.4z"/><path d="m-576 416h128 64v128h-192z"/><path d="m-560 400h-14v16h14z"/><path d="m-560 352h-14v16h14z"/><path d="m112-736h-176-32z"/><path d="m0-640h-96 32z"/><path d="m-96-736v96z"/><path d="m-96-640h-32v-96h32z"/><path d="m672-160h-96z"/><path d="m576 352h96z"/><path d="m-160-736h32z"/><path d="m-128-736v96z"/><path d="m-128-640h-32v-96h32z"/><path d="m32-384h32z"/><path d="m64-384h176-208z"/><path d="m240-352v-32h-176v32z"/><path d="m32-736h80-208-32z"/><path d="m32-736h-160-32-32 192z"/><path d="m0-640h-128 32z"/><path d="m0-640h32z"/><path d="m-160-640h32 128-192z"/><path d="m-128-640h-32z"/><path d="m-160-736v96z"/><path d="m-160-640h-32v-96h32z"/><path d="m176-352h-144-80z"/><path d="m368-352h16z"/><path d="m176-352h64-176-32z"/><path d="m-192-352h128 16 80-128-112z"/><path d="m368-576v128 32 64-64-32z"/><path d="m0-736h-192-32 128z"/><path d="m112-736h-80z"/><path d="m32-640h80-112z"/><path d="m-192-640h-32v-96h32z"/><path d="m-192-736v96z"/><path d="m368-352v-64h-96v32 32z"/><path d="m256-416v32h16v-32z"/><path d="m240-384h16v-32h-224v32z"/><path d="m256-448h-144-80v32h224z"/><path d="m272-416h96v-32h-32-80v32z"/><path d="m112-608v-32h-80v192h80z"/><path d="m336-608h-112-96-16v160h144 80z"/><path d="m368-448v-128-32h-32v160z"/><path d="m32-640v128 16 48z"/><path d="m112-608h16z"/><path d="m272-384h-16-16 16z"/><path d="m272-352v-32z"/><path d="m48 544h-80-96z"/><path d="m320 544h64-160-16z"/><path d="m96 544h-32-16-176 198.4z"/><path d="m320 544h-112-16-96 198.4z"/><path d="m-448 416h64z"/><path d="m80 192v32 112 80-80-112z"/><path d="m80-32v32 192-192z"/><path d="m-80 336h-160z"/><path d="m-480 336h16z"/><path d="m64-224h-32-96v224h128z"/><path d="m-64 0v224h128v-224z"/><path d="m-64 224v112h128v-112z"/><path d="m-48-352h-16l96 96 32 32h16z"/><path d="m80-32v-192h-16v224h16z"/><path d="m64 0v224h16v-32-192z"/><path d="m64 224v112h16v-112z"/><path d="m-80-224h16l-128-128h-16z"/><path d="m-64-224h-16v112 112h16z"/><path d="m-80 0v112 112h16v-224z"/><path d="m-80 224v112h16v-112z"/><path d="m-64-224h96v-32l-96-96h-128z"/><path d="m32-224h32l-32-32z"/><path d="m-80-224v112z"/><path d="m-576 224h192z"/><path d="m-576-160 192-192v224h-192z"/><path d="m-576 224v-16h192v16z"/><path d="m-480 416v-64-16 16z"/><path d="m-480 352v64h16v-64z"/><path d="m-448 352h-16v64h16z"/><path d="m-256 336h-208-16v16h16 16 64 128z"/><path d="m-160 352h96v-16h-16-160-16v16z"/><path d="m-160 352h-96-128v64h144 80z"/><path d="m-64 416h32v-64h-32-96v64z"/><path d="m64 416v-64h-32v64z"/><path d="m64 336v16 64h16v-80z"/><path d="m-64 336v16h32 64 32v-16z"/><path d="m-448 352v64z"/><path d="m96 544h96l-128-128v128z"/><path d="m192 544h16l-128-128h-16z"/><path d="m64 416h-32-64-32l128 128z"/><path d="m-64 416v16l112 112h16z"/><path d="m-240 416h-144-64-16v16h224z"/><path d="m-64 432v-16h-96-80v16z"/><path d="m-480 416v16h16v-16z"/><path d="m-480 432v-16z"/><path d="m80 416 128 128z"/><path d="m-240 432h-224z"/><path d="m-464 432h-16z"/><path d="m48 544-112-112z"/><path d="m-63 672h-224 31 64z"/><path d="m161 672h-224 95z"/><path d="m-576 32v64 64h-32v-128z"/><path d="m-576 32h-32z"/><path d="m-608 160h32z"/><path d="m-600 34v124z"/><path d="m-592 34h-8v124h8z"/><path d="m800 64v224h-224v-160-64z"/><path d="m800-160h-128-96z"/><path d="m800 288v64h-128-96v-64z"/><path d="m800-160h160v32 192h-160z"/><path d="m-96-736h-128-96 64z"/><path d="m112-736h-80-32z"/><path d="m0-640h-96-128 32z"/><path d="m0-640h112-144-64z"/><path d="m-224-736v96z"/><path d="m-224-736v96h-96v-96z"/><path d="m-496 352h-64v64h64z"/><path d="m-592 34v124z"/><path d="m-600 34h8z"/><path d="m-600 34h8v124h-8z"/><path d="m-208-352h-112z"/><path d="m-320-640v224-128z"/><path d="m-320-736v96z"/><path d="m-320-416v48z"/><path d="m112-640h-144z"/><path d="m-96-640h-160-64 96z"/><path d="m-64-544h32 192v176h-208-16z"/><path d="m160-544h32v96 80h-32z"/><path d="m-128-368v-48-128h64v176 16h-64z"/><path d="m-256-416v-128h128v128z"/><path d="m-256-544v128h-64v-224h64z"/><path d="m-128-352h-64v-16h64z"/><path d="m-256-416h128v48h-64-16-112v-48z"/><path d="m-32-544h-32-64-128 128z"/><path d="m160-368h32-240z"/><path d="m-208-368h-112z"/><path d="m-384 544h128-96z"/><path d="m48 544h16-80-16z"/><path d="m576-160-192-192z"/><path d="m384 544 128-128 40-40z"/><path d="m552 376 24-24z"/><path d="m-384-352-192 192z"/><path d="m-48-352 128 128z"/><path d="m80-224v192z"/><path d="m-240 336h-16-208 208z"/><path d="m-64-224h96 32v224h-128z"/><path d="m64 0v224h-128v-224z"/><path d="m64 224v112h-128v-112z"/><path d="m-128-352h64l96 96v32h-96l-128-128z"/><path d="m32-256 32 32h-32z"/><path d="m32-256-96-96h16l128 128h-16z"/><path d="m64-224h16v192 32h-16z"/><path d="m80 0v192 32h-16v-224z"/><path d="m80 224v112h-16v-112z"/><path d="m-64-224h-16l-128-128h16z"/><path d="m-80-112v-112h16v224h-16z"/><path d="m-64 0v224h-16v-112-112z"/><path d="m-64 224v112h-16v-112z"/><path d="m-80 112v112 112-112z"/><path d="m-80-112v112 112-112z"/><path d="m-80-224-128-128z"/><path d="m-480 416v-64h16v64z"/><path d="m-240 416h-224v-64h208 16z"/><path d="m-64 352v64h-176v-64z"/><path d="m-256 352h-208-16v-16h16 208z"/><path d="m-240 336h160 16v16h-176-16v-16z"/><path d="m80 336v80h-16v-80z"/><path d="m64 336v80h-128v-64-16z"/><path d="m-464 432h-16v-16h16z"/><path d="m-64 432v-16l128 128h-16z"/><path d="m-64 416h128v128z"/><path d="m-240 432h-224v-16h224z"/><path d="m-64 416v16h-176v-16z"/><path d="m192 544h-128v-128z"/><path d="m80 416 128 128h-16l-128-128z"/><path d="m-64 432h-176z"/><path d="m192 672h63-94z"/><path d="m32 672h-95-129z"/><path d="m-32 640h-160-64v-32h224z"/><path d="m192 640h-160-64v-32h96 128z"/><path d="m224 608v32h-32v-32z"/><path d="m208 560h16v48h-32v-48z"/><path d="m192 544v16 48h-128v-48-16z"/><path d="m-32 608h-224v-48h224z"/><path d="m64 560v48h-96v-48z"/><path d="m192 640h-160z"/><path d="m-32 560h-224 16z"/><path d="m-560 352h64z"/><path d="m-496 352v64z"/><path d="m-496 416h-64z"/><path d="m-560 416v-64z"/><path d="m-496 416h-64v-64h64z"/><path d="m-576 288v-64z"/><path d="m-576 288v32z"/><path d="m-256 544h-64-32z"/><path d="m-256 544h16z"/><path d="m-32 544h-208-16 96 32z"/><path d="m192 544h16z"/><path d="m-16 560h80-96z"/><path d="m208 560h-16z"/><path d="m208 560h16z"/><path d="m-16 560h-16-208v-16h208 16z"/><path d="m64 544v16h-80v-16z"/><path d="m192 544h16v16h-16z"/><path d="m192 560v-16z"/><path d="m64 544v16z"/><path d="m960-160v-64z"/><path d="m1024-352h-64 128 32 32z"/><path d="m1344-352h-96-96z"/><path d="m1024 544h128-32-32-128z"/><path d="m1152 544h96 96z"/><path d="m1344 544v-96z"/><path d="m1344 80v-16-64-64-32z"/><path d="m1344-256v-96z"/><path d="m960-160v-64-128h64v96 128h-64z"/><path d="m1024-128v96 128h-64v-32-192z"/><path d="m1024 96v96 128h-64v-32-192z"/><path d="m1024 320v96 32 96h-64v-128-64-32z"/><path d="m1120-160h160 64v32h-128-64-32z"/><path d="m1216-256h32 96v32h-64-64z"/><path d="m1120-128h32v64h-32z"/><path d="m1024-128v-128h64v32 192h-64z"/><path d="m1088-32v32 192h-64v-96-128z"/><path d="m1088 192v32 192h-64v-96-128z"/><path d="m1088 416v32h-64v-32z"/><path d="m1248-256h-32-64-32-32-64v-96h128 96z"/><path d="m1344-352v96h-96v-96z"/><path d="m1216-128h128v32 32h-128z"/><path d="m1120-192h32 64 64v32h-160z"/><path d="m1280-192h-64v-32h64z"/><path d="m1120-224v-32h32v64h-32z"/><path d="m1280 160h64v32h-128v-32z"/><path d="m1120 192h32 64 128v32h-64-160z"/><path d="m1120-64h32 64 128v64h-128-64-32z"/><path d="m1216 0h128v64h-128z"/><path d="m1120 96h160v32h-64-64-32z"/><path d="m1216 128h64v32h-64z"/><path d="m1120 0h32v64h-32z"/><path d="m1120 64h32 64 128v16 16h-64-160z"/><path d="m1152 192h-32v-64h32z"/><path d="m1120 224h160v32h-64-64-32z"/><path d="m1216 384h128v64h-96-32z"/><path d="m1120 336h192 32v48h-128-64-32z"/><path d="m1120 256h32v64h-32z"/><path d="m1280 288h64v16h-32-96v-16z"/><path d="m1312 320h-96v-16h96z"/><path d="m1120 320h32 64 96v16h-192z"/><path d="m1248 544h-96-128v-96h64 32 32 64 32z"/><path d="m1344 448v96h-96v-96z"/><path d="m1216 256h64v32h-64z"/><path d="m1120 384h32v64h-32z"/><path d="m1152-256h64z"/><path d="m1088-256h32z"/><path d="m1216 448h-64z"/><path d="m1120 448h-32z"/><path d="m1152 320v-64z"/><path d="m1152 448v-64z"/><path d="m1152 64v-64z"/><path d="m1152 192v-64z"/><path d="m1152-192v-64z"/><path d="m1152-128v64z"/><path d="m1280 96h64z"/><path d="m1216-64h-64z"/><path d="m1344-160h-64z"/><path d="m1280-160v-32-32z"/><path d="m1280-224h64z"/><path d="m1216-256v32 32z"/><path d="m1216-192h-64z"/><path d="m1152-128h64z"/><path d="m1216 0v64z"/><path d="m1152 0h64z"/><path d="m1216 64h-64z"/><path d="m1280 224h64z"/><path d="m1216 128v32 32z"/><path d="m1280 160v-32-32z"/><path d="m1216 192h-64z"/><path d="m1152 128h64z"/><path d="m1344 336h-32z"/><path d="m1280 256v-32 64z"/><path d="m1312 304h32z"/><path d="m1312 336v-16-16z"/><path d="m1216 256v32 16 16z"/><path d="m1152 256h64z"/><path d="m1216 320h-64z"/><path d="m1216 384v64z"/><path d="m1152 384h64z"/><path d="m1088-256v32z"/><path d="m1120 224v32 64 16 48 64-80-32z"/><path d="m1120 0v64 32 32 64 32-112z"/><path d="m1120-224v32 32 32 64 64-112z"/><path d="m960 352h-160z"/><path d="m960 64v32 192h-160v-224z"/><path d="m960 288v32 32h-160v-64z"/><path d="m192-352h160 32z"/><path d="m192-352h192-16-96-32-64z"/><path d="m-208-352h16z"/><path d="m-352-352h32-64z"/><path d="m192-368v-80z"/><path d="m192-368v-80 32 48 16z"/><path d="m192-448v-96z"/><path d="m-48-352v-16z"/><path d="m176-352h-224v-16h240v16z"/><path d="m-48-368h-16z"/><path d="m-208-368v16z"/><path d="m-208-368v16h-112v-16z"/><path d="m-576 320v-32 32 96z"/><path d="m-576 416v128z"/><path d="m384-352 192 192z"/><path d="m-560 368h-14v-16h14z"/><path d="m-560 416h-14v-16h14z"/><path d="m-574 416h14z"/><path d="m-560 416v-16z"/><path d="m-560 368v-16z"/><path d="m-574 368h14z"/><path d="m-560 352h-14z"/><path d="m-574 352v16z"/><path d="m-560 400h-14z"/><path d="m-574 400v16z"/><path d="m192 672h-31-129z"/><path d="m192 672h63z"/><path d="m-192 640h-64z"/><path d="m32 640h-224 160z"/><path d="m192 640v32z"/><path d="m32 672h-224v-32h224z"/><path d="m192 640v32h-160v-32z"/><path d="m1152-192v-64h64v64z"/><path d="m1216-128v64z"/><path d="m1152-128h64v64h-64z"/><path d="m1152 64v-64h64v64z"/><path d="m1152 192v-64h64v64z"/><path d="m1152 320v-64h64v64z"/><path d="m1152 448v-64h64v64z"/><path d="m1152-352h192z"/><path d="m1344 544h-192z"/><path d="m1344 448v96z"/><path d="m1344 304v-16z"/><path d="m1344 224v-32-32z"/><path d="m1344 80v16z"/><path d="m1344-96v176z"/><path d="m1344-352v96z"/><path d="m1344 160h-64z"/><path d="m1312 336v-32h32v32z"/><path d="m-128-512h64z"/><path d="m-64-512v64z"/><path d="m-64-448h-64z"/><path d="m-128-448v-64z"/><path d="m-128-512v64h64v-64z"/><path d="m208 544h-112-112z"/><path d="m224 560v48 32-32z"/><path d="m-16 560h-224 208z"/><path d="m-240 544v16z"/><path d="m208 560v-16z"/><path d="m-16 544h-224v16h224z"/><path d="m208 560v-16h-224v16z"/><path d="m-592 158h-8z"/><path d="m1344 368v80-64-48z"/><path d="m1344 336v32z"/><path d="m1344 288v16z"/><path d="m1344 160v64z"/><path d="m1344 112v-16z"/><path d="m1344 224v64z"/><path d="m1344-144v48-32-32z"/><path d="m1344-224v-32z"/><path d="m1344-160v-16 32z"/><path d="m1280-160v-64h64v48 16z"/><path d="m1280 160v-64h64v16 48z"/><path d="m1280 224h64v64h-64z"/><path d="m1344 288h-64z"/><path d="m352-352h-160-64 192z"/><path d="m-128-352h-64-16-112-32 32z"/><path d="m-64-352h16z"/><path d="m-352-352h32z"/><path d="m-320-736v96z"/><path d="m-320-416v48 16z"/><path d="m-32-736h144-112-96z"/><path d="m192-448v-96h-64v32 64z"/><path d="m-32-736h-64-160v96h224z"/><path d="m112-640v-96h-144v96z"/><path d="m96-448h32v-64h-32-160v64z"/><path d="m96-544h-128-96v32h64 160z"/><path d="m128-512v-32h-32v32z"/><path d="m96-448h-160-64v32h144 80z"/><path d="m192-416v-32h-64-32v32z"/><path d="m16-352h112 64v-16h-176-64v16z"/><path d="m16-416h-144-80v48h16 128 16 64z"/><path d="m192-368v-48h-96-80v48z"/><path d="m-128-352h64v-16h-128v16z"/><path d="m-256-544v-96-96h-64v96 96z"/><path d="m-208-416h80v-32-64-32h-128-64v128z"/><path d="m-208-368v-48h-112v64h112z"/><path d="m-32-640h-224 160z"/><path d="m-256-544v-96z"/><path d="m96-544h32 64-32-192z"/><path d="m-64-368v16z"/><path d="m-192-352v-16z"/><path d="m-192-368h-16z"/><path d="m-576-96v-32-32 32 160z"/><path d="m-576-128v32z"/><path d="m-576 64v96 64 64z"/><path d="m-576 160v48 16z"/><path d="m-352 544h32z"/><path d="m-352 544h-224 192z"/><path d="m-256 544h16 112-160-32z"/><path d="m-16 544h-112-112z"/><path d="m224 544h-16z"/><path d="m384 544h-32-32z"/><path d="m384 544h-64-96z"/><path d="m-576-160 192-192z"/><path d="m-287 672h31z"/><path d="m-256 672h64z"/><path d="m-63 672h-129-64-31z"/><path d="m161 672h-129-95z"/><path d="m-256 640v-32-48 48z"/><path d="m224 640v-32h-32v32z"/><path d="m-32 560h-208-16v48h64 160z"/><path d="m192 560h-208-16v48h64 160z"/><path d="m224 608v-48h-32v48z"/><path d="m32 608h-64-160v32 32h129 95z"/><path d="m161 672h31v-32-32h-160v64z"/><path d="m-192 608h-64v32h64z"/><path d="m224 640h-32z"/><path d="m-256 560h16z"/><path d="m192 560h32-16-224z"/><path d="m-192 640v32z"/><path d="m-576 64v-32h-32v128h32z"/><path d="m-608 32v128z"/><path d="m576-160v64z"/><path d="m576-96v224z"/><path d="m576 352v-224z"/><path d="m1376-704v192z"/><path d="m1376-288v-224z"/><path d="m1376-64v-224z"/><path d="m1376 160v-224z"/><path d="m1376 384v-224z"/><path d="m1376 608v-224z"/><path d="m1376 832v-224z"/><path d="m1376-704-128 87.04z"/><path d="m1248-616.96-224 152.32z"/><path d="m1024-464.64-224 152.32z"/><path d="m576-160 224-152.32z"/><path d="m1376 832-128-76.8z"/><path d="m1024 620.8 224 134.4z"/><path d="m800 486.4 224 134.4z"/><path d="m576 352 224 134.4z"/><path d="m16 544h-32z"/><path d="m-16 544h-112z"/><path d="m96 544h-80-32-112 112z"/><path d="m320 544h-80-144 112 16z"/><path d="m320 544h-80z"/><path d="m352 544h-32z"/><path d="m255 672h-63-31z"/><path d="m576-96v160z"/><path d="m960 416v128z"/><path d="m960 352v64z"/><path d="m960-352v128z"/><path d="m1088-352v96h32v-96z"/><path d="m1088-224v-32-96h-128v128 64 32h128z"/><path d="m960-128v192 32h128v-96-128z"/><path d="m960 96v192 32h128v-96-128z"/><path d="m960 320v32 64 128h128v-96-128z"/><path d="m1088 448v96h32v-96z"/><path d="m1120-112v112 112-32z"/><path d="m1120 336v32z"/><path d="m1088 224v96 128-32z"/><path d="m1088 0v96 128-32z"/><path d="m1088-224v96 128-32z"/><path d="m1120-256v32z"/><path d="m960-160h-160z"/><path d="m800 352h-224 96z"/><path d="m800-160h-224v32 32 160h224z"/><path d="m576 64v224h224v-224z"/><path d="m576 288v32 32h224v-64z"/><path d="m960-128v-32h-160v224h160z"/><path d="m800 64v224h160v-192-32z"/><path d="m800 288v64h160v-32-32z"/><path d="m352-352h32z"/><path d="m128-352h192z"/><path d="m384-352h-32z"/><path d="m128-352h-112z"/><path d="m-96-352h-32-192 128 64z"/><path d="m-96-352h80 32-64-16-64z"/><path d="m-576-128v-32z"/><path d="m-576 320v-32z"/><path d="m-352 544h-224z"/><path d="m576 352-24 24z"/><path d="m-576-96h32z"/><path d="m576-128h-32z"/><path d="m-16-352v32z"/><path d="m320-352v32z"/><path d="m352-352h-32v32h32z"/><path d="m16-352h-32v32h32z"/><path d="m-352-352v32z"/><path d="m-320-352h-32v32h32z"/><path d="m576-96v-32h-32v32z"/><path d="m-576-128v32h32v-32z"/><path d="m576 288h-32z"/><path d="m576 320v-32h-32v32z"/><path d="m16 544v-32z"/><path d="m352 544v-32z"/><path d="m320 544h32v-32h-32z"/><path d="m-320 544v-32z"/><path d="m-16 544h32v-32h-32z"/><path d="m-352 544h32v-32h-32z"/><path d="m1120-352h32z"/><path d="m1120-352v96z"/><path d="m1120 448v96z"/><path d="m1120 448v-80z"/><path d="m576 320v32z"/><path d="m-352-352h-32z"/><path d="m-544-96h-32 224z"/><path d="m240-96h-112-112 112z"/><path d="m-96-96h-224z"/><path d="m544-96h32z"/><path d="m-544-128h-32z"/><path d="m-16-128h-80z"/><path d="m320-128h-80z"/><path d="m544-128h32-224z"/><path d="m320-320v-32 64 64 96z"/><path d="m352-320v-32z"/><path d="m352-320h-32v192h32z"/><path d="m16-320v-32z"/><path d="m16-320v192-224z"/><path d="m-16-320v192h32v-192z"/><path d="m-320-320v-32z"/><path d="m-352-320v-32 224z"/><path d="m-320-320h-32v192h32z"/><path d="m-320-128h-32-192v32h192 32z"/><path d="m-96-128h-224v32h224z"/><path d="m128-128h-112-32-80v32h80 32 112z"/><path d="m352-128h-32-80-112v32h112 80 32z"/><path d="m544-96v-32h-192v32z"/><path d="m-544 288h-32z"/><path d="m-16 288h-80z"/><path d="m320 288h-80z"/><path d="m544 288h32-192-32z"/><path d="m-16-96v160z"/><path d="m320-96v160z"/><path d="m352 64v64 160-160z"/><path d="m352 128v-64-160h-32v160 64z"/><path d="m320 288h32v-160h-32z"/><path d="m16 64v64 160-160z"/><path d="m16 128v-64-160h-32v160 64z"/><path d="m-16 288h32v-160h-32z"/><path d="m-320 64v64 160z"/><path d="m-352-96v160z"/><path d="m-320 128v-64-160h-32v160 64z"/><path d="m-352 288h32v-160h-32z"/><path d="m-544 320h-32z"/><path d="m-96 320h-224 32 160z"/><path d="m240 320h-112-112 112z"/><path d="m544 320h32z"/><path d="m-320 288h-32-192v32h192 32z"/><path d="m-96 288h-224v32h224z"/><path d="m128 288h-112-32-80v32h80 32 112z"/><path d="m352 288h-32-80-112v32h112 80 32z"/><path d="m544 320v-32h-192v32z"/><path d="m-544 320v-32h-32v32z"/><path d="m320 512v-192 96 64 64z"/><path d="m320 512v32z"/><path d="m352 320h-32v192h32z"/><path d="m-16 320v192h32v-192z"/><path d="m-16 512v-192 224z"/><path d="m-16 512v32z"/><path d="m-352 512v-192 224z"/><path d="m-352 512v32z"/><path d="m-352 320v192h32v-192z"/><path d="m128-224v-64z"/><path d="m192-224h-64z"/><path d="m192-288v64z"/><path d="m128-288h64z"/><path d="m128-288v64h64v-64z"/><path d="m-192-224v-64z"/><path d="m-128-224h-64z"/><path d="m-128-288v64z"/><path d="m-192-288h64z"/><path d="m-192-288v64h64v-64z"/><path d="m448 128v-64z"/><path d="m512 128h-64z"/><path d="m448 64h64z"/><path d="m512 64v64z"/><path d="m448 64v64h64v-64z"/><path d="m-448 64v64z"/><path d="m-448 128h-64z"/><path d="m-512 64h64z"/><path d="m-512 128v-64z"/><path d="m-512 64v64h64v-64z"/><path d="m192 416v64z"/><path d="m128 416h64z"/><path d="m128 480v-64z"/><path d="m128 416v64h64v-64z"/><path d="m192 480h-64z"/><path d="m-128 416v64z"/><path d="m-192 416h64z"/><path d="m-192 480v-64z"/><path d="m-192 416v64h64v-64z"/><path d="m-128 480h-64z"/><path d="m576 64v64 160z"/><path d="m576-160v32z"/><path d="m1344 368v80z"/><path d="m1344 112v48z"/><path d="m1344-144v48z"/><path d="m1120-144v-32-80 32 112z"/><path d="m1120-256v80z"/><path d="m1120-256v-96z"/><path d="m1344-176h-32z"/><path d="m1120-176h32z"/><path d="m1344-144v-32h-32v32z"/><path d="m1120-176v32h32v-32z"/><path d="m1344 80h-32z"/><path d="m1120 80h32z"/><path d="m1344 112v-16-16h-32v32z"/><path d="m1120 80v32h32v-32z"/><path d="m1344 336h-32z"/><path d="m1344 368v-32h-32v32z"/><path d="m1120 336v32h32v-32z"/><path d="m-16-352h-80z"/><path d="m-576-96v128 32z"/><path d="m-576 416v-96z"/><path d="m240 544h-112-112 80z"/><path d="m384 544h-32z"/><path d="m552 376-168 168z"/><path d="m-352 320h-224v96 128h224z"/><path d="m-320 544h32v-64-64-96h-32z"/><path d="m-128 480h-64-96v64h160z"/><path d="m-192 416h-96v64h96z"/><path d="m-128 320h-160v96h96 64z"/><path d="m-512 128v-64h-64v224h64z"/><path d="m-512 288h160v-160h-96-64z"/><path d="m-352 128v-64h-96v64z"/><path d="m-512 64h64 96v-160h-224v160z"/><path d="m-128 416v64 64h112v-224h-80-32z"/><path d="m16 544h112v-64-64-96h-112z"/><path d="m240 544h80v-64h-128-64v64z"/><path d="m320 480v-64h-128v64z"/><path d="m192 416h128v-96h-80-112v96z"/><path d="m-16 128v-64-160h32v160 64z"/><path d="m16 288h-32v-160h32z"/><path d="m384 64v-160h-32v160 64h32z"/><path d="m352 128v160h32v-160z"/><path d="m-576-160v32h224v-224h-32z"/><path d="m-320-224h128v-64-64h-128z"/><path d="m-128-352h-64v64h64z"/><path d="m-96-224h-32-64-128v96h224z"/><path d="m-16-128v-96h-80v96z"/><path d="m-16-352h-80-32v64 64h32 80z"/><path d="m16-128h112v-96-64-64h-112z"/><path d="m240-128h80v-96h-128-64v96z"/><path d="m192-288v64h128v-64z"/><path d="m128-288h64 128v-64h-192z"/><path d="m384 544 168-168 24-24v-32h-224v224z"/><path d="m384 288h192v-160h-64-64-64z"/><path d="m448 64h-64v64h64z"/><path d="m448 64h64 64v-160h-192v160z"/><path d="m576 64h-64v64h64z"/><path d="m576-128v-32l-192-192h-32v224z"/><path d="m-320 64v224z"/><path d="m320-96v160z"/><path d="m-96-96h-224z"/><path d="m128-96h-112-32-80z"/><path d="m240 288h80-192z"/><path d="m320-96h-80z"/><path d="m-16-96h-80z"/><path d="m384-96h192-32-192z"/><path d="m-576-128h32 192z"/><path d="m-96-128h-224z"/><path d="m240-128h-112-112 112z"/><path d="m-16-224v96-192-32z"/><path d="m352-352v32 192z"/><path d="m-320-224v-128 32 192z"/><path d="m-512 288h-64 32 192z"/><path d="m-96 288h-224z"/><path d="m240 288h-112-112 112z"/><path d="m-16 64v64 160-160z"/><path d="m320 64v224-160z"/><path d="m352-96v160z"/><path d="m16-96v160z"/><path d="m-320-96v160z"/><path d="m-352 64v64 160-160z"/><path d="m-352 320h-192-32z"/><path d="m-16 320h-80z"/><path d="m320 320h-80z"/><path d="m576 320h-32-192z"/><path d="m16 320v192 32z"/><path d="m352 320v192 32z"/><path d="m-320 320v192 32z"/><path d="m1152 112h-32z"/><path d="m1312 112h32z"/><path d="m1312-144h32z"/><path d="m1152-176h160 32z"/><path d="m1152-144h160v-32h-160z"/><path d="m1152 80h160 32z"/><path d="m1152 112h160v-32h-160z"/><path d="m1152 336h-32z"/><path d="m1152 336h160 32z"/><path d="m1312 368h32z"/><path d="m1152 368h160v-32h-160z"/><path d="m1152 544h-32z"/><path d="m1344 304v32z"/><path d="m1344-256v80-48z"/><path d="m1152 112h192-32z"/><path d="m1120-144v32 192z"/><path d="m1152-144h192-32z"/><path d="m1120-144h32z"/><path d="m1152-176h192v-80-96h-192-32v96 80z"/><path d="m1344-96v-48h-192-32v224h32 192z"/><path d="m1120 112v112 112z"/><path d="m1344 304v-16-64-64-48h-192-32v224h32 192z"/><path d="m1120 368h32z"/><path d="m1152 368h192-32z"/><path d="m1120 544v-96z"/><path d="m1152 544h192v-96-80h-192-32v80 96z"/><path d="m-320-96v160z"/><path d="m320 64v224z"/><path d="m320-96h-80-112z"/><path d="m-96 288h-224z"/><path d="m128 288h-224 80 32z"/><path d="m576 352v-224z"/><path d="m1376-704v192z"/><path d="m1376 832-128-76.8v-115.2h128z"/><path d="m1248 640v-224h128v224z"/><path d="m1248 416v-224h128v224z"/><path d="m1248 192v-224h128v224z"/><path d="m1248-32v-224h128v224z"/><path d="m1248-256v-224h128v224z"/><path d="m1248-480v-136.96l128-87.04v224z"/><path d="m1248 755.2-46.9333-28.16h46.9333z"/><path d="m1201.0667 727.04-177.0667-106.24v-117.76h224v224z"/><path d="m1024 503.04v-224h224v224z"/><path d="m1024 279.04v-224h224v224z"/><path d="m1024 55.04v-224h224v224z"/><path d="m1024-168.96v-224h224v224z"/><path d="m1024-392.96v-71.68l224-152.32v224z"/><path d="m1024 620.8-224-134.4v-55.04h224z"/><path d="m800 431.36v-224h224v224z"/><path d="m800 207.36v-224h224v224z"/><path d="m800-16.64v-224h224v224z"/><path d="m800-240.64v-71.68l224-152.32v224z"/><path d="m800 486.4-211.2-126.72h211.2z"/><path d="m588.8 359.68-12.8-7.68v-216.32h224v224z"/><path d="m576 135.68v-224h224v224z"/><path d="m576-88.32v-71.68l224-152.32v224z"/><path d="m576-160 224-152.32z"/><path d="m1376 832-128-76.8z"/></g></defs><path d="m-764-892h2296v1880h-2296z" fill="#fff"/><g stroke="#000"><use fill="none" stroke-miterlimit="0" stroke-width="15" xlink:href="#a"/><use fill="#fff" xlink:href="#a"/></g></svg>