<svg viewBox="-1024 -512 1536 1536" xmlns="http://www.w3.org/2000/svg" xmlns:xlink="http://www.w3.org/1999/xlink"><defs><g id="a"><path d="m-672-512h-224z"/><path d="m-448-512h-224z"/><path d="m32-512h-224z"/><path d="m256-512h-224z"/><path d="m384-512h-128z"/><path d="m512-384v128z"/><path d="m512 320v48 80z"/><path d="m384 1024h-48-80z"/><path d="m-1024 672v64 160-128z"/><path d="m-1024 448v64 160-128z"/><path d="m-1024 224v64 160-128z"/><path d="m-320-384v-128z"/><path d="m-320-384v128z"/><path d="m-320 1024v-128z"/><path d="m-320 192h128z"/><path d="m512-384h-128z"/><path d="m-192-512v128z"/><path d="m32-384h-128-96v-128h224z"/><path d="m256-384h-128-96v-128h224z"/><path d="m384-512v128h-32-96v-128z"/><path d="m384-384v-128h-128v128z"/><path d="m-320-160v-128-96h128 96v224z"/><path d="m-320 64v-128-96h224v224z"/><path d="m-96 192h-96-128v-32-96h224z"/><path d="m-96-160v-224h128 96v224z"/><path d="m-96 64v-224h224v224z"/><path d="m128 192h-96-128v-128h224z"/><path d="m128-160v-224h128 96v224z"/><path d="m128 64v-224h224v224z"/><path d="m352 192h-96-128v-128h224z"/><path d="m384-384h128v128 96h-160v-224z"/><path d="m512-160v128 96h-160v-224z"/><path d="m512 64v128h-128-32v-128z"/><path d="m384 192h128v-128h-128z"/><path d="m-192 320h-128z"/><path d="m384 320v-128z"/><path d="m32 320h-128-96v-128h96 128z"/><path d="m256 320h-128-96v-128h96 128z"/><path d="m352 192h32v128h-32-96v-128z"/><path d="m384 896h-128z"/><path d="m384 896h128z"/><path d="m-320 544v-160-64h128 96v224z"/><path d="m-320 768v-160-64h224v224z"/><path d="m-96 896h-96-128v-64-64h224z"/><path d="m-96 544v-224h128 96v224z"/><path d="m-96 768v-224h224v224z"/><path d="m128 896h-96-128v-128h224z"/><path d="m128 544v-224h128 96v224z"/><path d="m128 768v-224h224v224z"/><path d="m352 896h-96-128v-128h224z"/><path d="m384 320h128v128 96h-160v-224z"/><path d="m512 544v128 96h-160v-224z"/><path d="m512 768v128h-128-32v-128z"/><path d="m384 320v128z"/><path d="m-320 896h128v-128h-128z"/><path d="m-192 896v128z"/><path d="m32 1024h-224v-128h96 128z"/><path d="m256 1024h-224v-128h96 128z"/><path d="m352 896h32v128h-128v-128z"/><path d="m-896-384v-128h224v224h-224z"/><path d="m-672-288v224h-224v-96-128z"/><path d="m-672-64v224h-224v-96-128z"/><path d="m-672 160v224h-224v-96-128z"/><path d="m-672 384v224h-224v-96-128z"/><path d="m-672 608v224h-224v-96-128z"/><path d="m-672 832v192h-224v-128-64z"/><path d="m-672-512h224v224h-224z"/><path d="m-448-288v224h-224v-224z"/><path d="m-448-64v224h-224v-224z"/><path d="m-448 160v224h-224v-224z"/><path d="m-448 384v224h-224v-224z"/><path d="m-448 608v224h-224v-224z"/><path d="m-448 832v192h-224v-192z"/><path d="m-448-512h128v128 96h-128z"/><path d="m-320-288v128 96h-128v-224z"/><path d="m-320-64v128 96h-128v-224z"/><path d="m-320 160v32 128 64h-128v-224z"/><path d="m-320 384v160 64h-128v-224z"/><path d="m-320 608v160 64h-128v-224z"/><path d="m-320 832v64 128h-128v-192z"/><path d="m-320 192h-128z"/><path d="m-320 320v-128h-128v128z"/><path d="m-1024-224v-160h128v96 128h-128z"/><path d="m-896-160v96 128h-128v-64-160z"/><path d="m-896 64v96 128h-128v-64-160z"/><path d="m-896 288v96 128h-128v-64-160z"/><path d="m-896 512v96 128h-128v-64-160z"/><path d="m-896 736v96 64h-128v-160z"/><path d="m-1024 896h128v-128h-128z"/><path d="m-1024-512h128z"/><path d="m512-512v128z"/><path d="m512 448v-80 176 32z"/><path d="m512 672v128 96-128z"/><path d="m512 448v128 96-128z"/><path d="m384 1024h128-128-80z"/><path d="m256 1024h80-80-128z"/><path d="m32 1024h-128-96z"/><path d="m256 1024h-128-96z"/><path d="m-320 1024h-128z"/><path d="m-1024-384v80-80-128z"/><path d="m384-384h-128z"/><path d="m512-384h-128v-128h128z"/><path d="m384-512v128h-128v-128z"/><path d="m-192-384h-128v-128h128z"/><path d="m-192-384v128z"/><path d="m512 320h-128v-128h128z"/><path d="m-192 320h-128v-128h128z"/><path d="m-192 896h-128v-128h128z"/><path d="m512 1024h-128v-128h128z"/><path d="m-192 1024h-128v-128h128z"/><path d="m-896-384v128z"/><path d="m-320 320h-128z"/><path d="m-320 192v128h-128v-128z"/><path d="m-896-384h-128v-128h128z"/><path d="m-896 1024h-128v-128h128z"/><path d="m-192 768v-96-128h-128v128 96z"/><path d="m-896 768v-96-128h-128v128 96z"/><path d="m256 1024h80 48v-128h-128z"/><path d="m256-384h-224z"/><path d="m256-512h-224v128h224z"/><path d="m-192-256v96 128-128z"/><path d="m-896-256v96 128-128z"/><path d="m-448 320h-224z"/><path d="m-448 192h-224v128h224z"/><path d="m-1024-304v144 80-176z"/><path d="m512 400v-80-128 128z"/><path d="m512 64v-96-128h-128v128 96z"/><path d="m512 192v-80z"/><path d="m512 112v80h-128v-128h128z"/><path d="m-816-512h-80z"/><path d="m-1024 800v96 128-128z"/><path d="m-1024-224v-160z"/><path d="m-320 768v-96-128h128v128 96z"/><path d="m-896 768v128h-128v-96-32z"/><path d="m-320-256v96 128-128z"/><path d="m256-384h-224v-128h144 80z"/><path d="m256 896h-224z"/><path d="m384 448v96 128-128z"/><path d="m256 896h128v128h-80-48z"/><path d="m-448 192h-224z"/><path d="m-448 320h-224v-128h224z"/><path d="m384 64v-96-128h128v48 80 96z"/><path d="m256-512h-80z"/><path d="m-192-160v-96-128h-128v128 96z"/><path d="m-896-160v-96-128h-128v160 64z"/><path d="m512-32v96 128-128z"/><path d="m-672 1024h-224z"/><path d="m32 320h-224z"/><path d="m32 192h-224v128h224z"/><path d="m-192 672v96 128-128z"/><path d="m512 544v-176-48h-128v128 96z"/><path d="m-896 672v96 128-128z"/><path d="m-672-384h-224z"/><path d="m-672-512h-224v128h224z"/><path d="m-672 896h-224v128h224z"/><path d="m512 576v192 32-128z"/><path d="m128 1024h-96-128z"/><path d="m176-512h-144 224z"/><path d="m384 544v-96-128h128v80 144z"/><path d="m-320 672v96 128-128z"/><path d="m32 192h-224z"/><path d="m384-32v96 128-128z"/><path d="m-320-160v-96-128h128v128 96z"/><path d="m32 320h-224v-128h224z"/><path d="m-672-384h-224v-128h80 144z"/><path d="m-672 896h-224z"/><path d="m-1024-160v-144-80h128v128 96z"/><path d="m-672 1024h-128-96v-128h224z"/><path d="m-1024-80v144 80-176z"/><path d="m32-384h-224z"/><path d="m32-512h-224v128h224z"/><path d="m-192-32v96 128-128z"/><path d="m-192 544v-96-128h-128v128 96z"/><path d="m32 1024h96 128v-128h-224z"/><path d="m-896-32v96 128-128z"/><path d="m-672 320h-224z"/><path d="m-672 192h-224v128h224z"/><path d="m-896 544v-96-128h-128v128 96z"/><path d="m512-32v96 128-80-48z"/><path d="m512-32v-80z"/><path d="m512 624v-80-144 48z"/><path d="m512-160v-96-128h-128v128 96z"/><path d="m-672-512h-144-80z"/><path d="m-592-512h-80z"/><path d="m-1024 576v192 32-128z"/><path d="m-1024 0v-160-64 64z"/><path d="m-320-32v96 128-128z"/><path d="m32-384h-224v-128h144 80z"/><path d="m32 896h-224z"/><path d="m384 672v96 128-128z"/><path d="m-320 544v-96-128h128v128 96z"/><path d="m32 896h224v128h-176-48z"/><path d="m-672 192h-224z"/><path d="m-672 320h-224v-128h224z"/><path d="m-896 544v128 96h-128v-192-32z"/><path d="m32-512h-80z"/><path d="m384-160v-96-128h128v128 96z"/><path d="m512-256v96 128-128z"/><path d="m-448 1024h-224z"/><path d="m256 320h-224z"/><path d="m256 192h-224v128h224z"/><path d="m-192 448v96 128-128z"/><path d="m512 768v-192-32h-128v128 96z"/><path d="m-896 448v96 128-128z"/><path d="m-448-384h-224z"/><path d="m-448-512h-224v128h224z"/><path d="m-448 896h-224v128h224z"/><path d="m-192 64v-96-128h-128v128 96z"/><path d="m-896 64v-96-128h-128v160 64z"/><path d="m-48-512h-144 224z"/><path d="m512 800v96 128-128z"/><path d="m-96 1024h-96-128z"/><path d="m-320 448v96 128-128z"/><path d="m256 192h-224z"/><path d="m384-256v96 128-128z"/><path d="m-320 64v-96-128h128v128 96z"/><path d="m256 320h-224v-128h224z"/><path d="m384 768v-96-128h128v80 144z"/><path d="m-448-384h-224v-128h80 144z"/><path d="m-448 896h-224z"/><path d="m-1024 64v-144-80h128v128 96z"/><path d="m-448-512h-144-80z"/><path d="m-448 1024h80-80-128z"/><path d="m-448 1024h-128-96v-128h224z"/><path d="m-320-512h-128z"/><path d="m-192-512h-128z"/><path d="m384-512h-128z"/><path d="m512-512h-128z"/><path d="m512 400v-80 48 80z"/><path d="m512 672v176-80-144z"/><path d="m304 1024h80-128z"/><path d="m80 1024h-48-176 176z"/><path d="m304 1024h-48-176 176z"/><path d="m-368 1024h48-128z"/><path d="m-800 1024h-96-128 128z"/><path d="m-576 1024h-96-128 128z"/><path d="m-1024 448v-80 176 32z"/><path d="m-1024 672v128 96-128z"/><path d="m-1024 448v128 96-128z"/><path d="m-1024 192v-128-64 64 160z"/><path d="m-1024-32v176 48-128z"/><path d="m-1024-256v176 48-128z"/><path d="m-1024-384v80 48z"/><path d="m-320-384v128z"/><path d="m-320 320v128z"/><path d="m384 192h-128z"/><path d="m384-384h128v-128h-128z"/><path d="m384-384v-128h-128v128z"/><path d="m-320-384h128v-128h-128z"/><path d="m384-384v128z"/><path d="m384 192h128v-128h-128z"/><path d="m-320 192h128v-128h-128z"/><path d="m384 320h128v-128h-128z"/><path d="m384 320v-128h-128v128z"/><path d="m-320 320h128v-128h-128z"/><path d="m384 896h-128z"/><path d="m384 320v128z"/><path d="m512 848v48h-128v-128h128z"/><path d="m384 896h128v-96-32h-128z"/><path d="m-320 896h128v-128h-128z"/><path d="m384 1024h128v-128h-128z"/><path d="m-192 896v128h96 128v-128z"/><path d="m-144 1024h-48v-128h224v128z"/><path d="m-320 1024h128v-128h-128z"/><path d="m-320 192h-128z"/><path d="m-320-384v-128h-128v128z"/><path d="m-320 320v-128h-128v128z"/><path d="m-320 896h-128z"/><path d="m-320 1024v-128h-128v128z"/><path d="m-1024-384h128v-128h-128z"/><path d="m-1024 192h128v-128h-128z"/><path d="m-1024 368v-48h128v128 96h-128z"/><path d="m-1024 224v96h128v-128h-128z"/><path d="m-1024 1024h128v-128h-128z"/><path d="m-1024-512h128z"/><path d="m512-512v128z"/><path d="m512-384v128z"/><path d="m512 448v-80 176 32z"/><path d="m512 320v48 80z"/><path d="m512 672v128 96-48z"/><path d="m512 448v128 96-48z"/><path d="m512 1024h-128z"/><path d="m-1024 1024v-128z"/><path d="m384-384h-128z"/><path d="m512-384h-128v-128h128z"/><path d="m384-512v128h-128v-128z"/><path d="m-192-384h-128v-128h128z"/><path d="m512 192h-128v-128h128z"/><path d="m-192-384v128z"/><path d="m-192 192h-128v-128h128z"/><path d="m384 320h-128z"/><path d="m512 320h-128v-128h128z"/><path d="m384 192v128h-128v-128z"/><path d="m-192 320h-128v-128h128z"/><path d="m-192 320v128z"/><path d="m-192 896h-128v-128h128z"/><path d="m512 1024h-128v-128h128z"/><path d="m-192 1024h-128v-128h128z"/><path d="m-896-384v128z"/><path d="m-896 320v128z"/><path d="m-320-384h-128z"/><path d="m-320-512v128h-128v-128z"/><path d="m-320 320h-128z"/><path d="m-320 192v128h-128v-128z"/><path d="m-320 896v128h-48-80v-128z"/><path d="m-896-384h-128v-128h128z"/><path d="m-896 192h-128v-48-80h128z"/><path d="m-896 320h-128v-128h128z"/><path d="m-896 1024h-128v-128h128z"/><path d="m256-384h-224z"/><path d="m-192-256v96 128-128z"/><path d="m-896-256v96 128-128z"/><path d="m-448 320h-224z"/><path d="m-448 192h-224v128h224z"/><path d="m512 64v-96-128h-128v128 96z"/><path d="m-192 768v-96-128h-128v128 96z"/><path d="m-816-512h-80z"/><path d="m256 1024h-224 48z"/><path d="m-896 1024h80z"/><path d="m256-512h-224v128h224z"/><path d="m256 1024h128v-128h-128z"/><path d="m-1024 768v128h128v-128z"/><path d="m-1024-256v96 128-16z"/><path d="m-320-256v96 128-128z"/><path d="m256-384h-224v-128h224z"/><path d="m256 896h-224z"/><path d="m384 448v96 128-128z"/><path d="m256 896h128v128h-128z"/><path d="m-448 192h-224z"/><path d="m-448 320h-224v-128h224z"/><path d="m256-512h-224 96z"/><path d="m384 64v-96-128h128v128 96z"/><path d="m-320 768v-96-128h128v128 96z"/><path d="m-896 768v128h-128v-128z"/><path d="m32 320h-224z"/><path d="m32 192h-224v128h224z"/><path d="m-192 672v96 128-128z"/><path d="m512 544v-176-48h-128v128 96z"/><path d="m-896 672v96 128-128z"/><path d="m-672-384h-224z"/><path d="m-672 896h-224v128h224z"/><path d="m-192-160v-96-128h-128v128 96z"/><path d="m-896-160v-96-128h-128v128 96z"/><path d="m-672 1024h-224 96z"/><path d="m-672-512h-224v128h224z"/><path d="m512 576v192 32-128z"/><path d="m176 1024h80z"/><path d="m256 1024h128z"/><path d="m-320 672v96 128-128z"/><path d="m32 192h-224z"/><path d="m384-32v96 128-128z"/><path d="m32 320h-224v-128h224z"/><path d="m384 544v-96-128h128v128 96z"/><path d="m-672-384h-224v-128h80 144z"/><path d="m-672 896h-224z"/><path d="m-672 1024h-144-80v-128h224z"/><path d="m-320-160v-96-128h128v128 96z"/><path d="m-1024-160v-96-128h128v128 96z"/><path d="m-1024 672v96 128-48z"/><path d="m32-384h-224z"/><path d="m-192-32v96 128-128z"/><path d="m-192 544v-96-128h-128v128 96z"/><path d="m-896-32v96 128-128z"/><path d="m-672 320h-224z"/><path d="m-672 192h-224v128h224z"/><path d="m-672-512h-144-80z"/><path d="m-592-512h-80z"/><path d="m32 1024h-224 48z"/><path d="m-672 1024h-224 80z"/><path d="m-672 1024h80z"/><path d="m32-512h-224v128h224z"/><path d="m512-160v-96-128h-128v128 96z"/><path d="m32 1024h224v-128h-224z"/><path d="m-1024 544v128 96h128v-96-128z"/><path d="m-1024-32v96 128-16z"/><path d="m-320-32v96 128-128z"/><path d="m32-384h-224v-128h224z"/><path d="m384-160v-96-128h128v128 96z"/><path d="m32 896h-224z"/><path d="m384 672v96 128-128z"/><path d="m32 896h224v128h-80-144z"/><path d="m-672 192h-224z"/><path d="m-672 320h-224v-128h224z"/><path d="m32-512h-224 96z"/><path d="m-320 544v-96-128h128v128 96z"/><path d="m-896 544v128 96h-128v-96-128z"/><path d="m-192 64v-96-128h-128v128 96z"/><path d="m-896 64v-96-128h-128v128 96z"/><path d="m512 768v-192-32h-128v128 96z"/><path d="m512-256v96 128-80-48z"/><path d="m256 320h-224z"/><path d="m256 192h-224v128h224z"/><path d="m-192 448v96 128-128z"/><path d="m-896 448v96 128-128z"/><path d="m-448-384h-224z"/><path d="m-448 896h-224v128h224z"/><path d="m-896 448v-128h-128v128 96h128z"/><path d="m-448 1024h-224 96z"/><path d="m-448-512h-224v128h224z"/><path d="m512 800v96 128-128z"/><path d="m-48 1024h80z"/><path d="m32 1024h144 80z"/><path d="m-48 1024h-144v-128h224v128z"/><path d="m-320 64v-96-128h128v128 96z"/><path d="m384 768v-96-128h128v128 96z"/><path d="m-1024 64v-96-128h128v128 96z"/><path d="m-448-512h-144-80z"/><path d="m-320 448v96 128-128z"/><path d="m256 192h-224z"/><path d="m384-256v96 128-128z"/><path d="m256 320h-224v-128h224z"/><path d="m-448-384h-224v-128h80 144z"/><path d="m-448 896h-224z"/><path d="m-448 1024h-144-80v-128h224z"/><path d="m-1024 448v96 128-48z"/><path d="m-1024 448v-128h128v128 96h-128z"/><path d="m-320-512h-128z"/><path d="m-192-512h-128z"/><path d="m512-512h-128z"/><path d="m512 320v-128z"/><path d="m-320 1024h128z"/><path d="m-1024 1024h128z"/><path d="m-1024 192v128z"/><path d="m-1024 320v48 80z"/><path d="m-1024-512v128z"/><path d="m-320-384v128z"/><path d="m-320 320v128z"/><path d="m384 192h-128z"/><path d="m384-384h128v-128h-128z"/><path d="m-320-384h128v-128h-128z"/><path d="m384-384v128z"/><path d="m-320 192h128v-128h-128z"/><path d="m384 320h128v-128h-128z"/><path d="m384 320v-128h-128v128z"/><path d="m-320 320h128v-128h-128z"/><path d="m384 896h128v-96-32h-128z"/><path d="m384 1024h128v-128h-128z"/><path d="m-192 896v128h224v-128z"/><path d="m-320 1024h128v-128h-128z"/><path d="m-320 192h-128z"/><path d="m-320-384v-128h-128v128z"/><path d="m-320 896h-128z"/><path d="m-320 1024v-128h-128v128z"/><path d="m-1024-384h128v-128h-128z"/><path d="m-1024 320h128v-128h-128z"/><path d="m-1024 192h128v-128h-128z"/><path d="m-1024 1024h128v-128h-128z"/><path d="m-1024-512h128z"/><path d="m336-512h48-128z"/><path d="m-96-512h-96-128 128z"/><path d="m128-512h-96-128 128z"/><path d="m512-32v176 48-128z"/><path d="m512-256v176 48-128z"/><path d="m512-384v80 48z"/><path d="m512 320v128z"/><path d="m512 448v-80 176 32z"/><path d="m512 672v128 96-128z"/><path d="m512 448v128 96-128z"/><path d="m512 1024h-128z"/><path d="m-320 1024h-128z"/><path d="m-1024 400v-80 128z"/><path d="m-1024-272v-64-48 128z"/><path d="m-1024 624v48 176-80z"/><path d="m-1024 400v48 176-80z"/><path d="m-1024 176v16 128 80-80-128z"/><path d="m-1024-48v16 208-112z"/><path d="m-1024-272v16 208-112z"/><path d="m-1024-336v64z"/><path d="m512-384h-128v-128h128z"/><path d="m-192-384h-128v-128h128z"/><path d="m-192 192h-128v-128h128z"/><path d="m384 320h-128z"/><path d="m512 320h-128v-128h128z"/><path d="m384 192v128h-128v-128z"/><path d="m-192 320h-128v-128h128z"/><path d="m384 896h-128z"/><path d="m-192 320v128z"/><path d="m384 320v128z"/><path d="m512 896h-128v-128h128z"/><path d="m-192 896h-128v-128h128z"/><path d="m512 1024h-128v-128h128z"/><path d="m-192 1024h-128v-128h128z"/><path d="m-896 320v128z"/><path d="m-320-384h-128z"/><path d="m-320-512v128h-128v-128z"/><path d="m-320 192v128h-128v-128z"/><path d="m-320 896v128h-128v-128z"/><path d="m-896-384h-128v-128h128z"/><path d="m-896 320h-128v-128h128z"/><path d="m-896 192h-128v-128h128z"/><path d="m-896 1024h-128v-128h128z"/><path d="m-320 768v128h128v-128z"/><path d="m384 64v128h128v-48-80z"/><path d="m256-512h80-80-128z"/><path d="m256 1024h128v-128h-128z"/><path d="m256-384h128v-128h-48-80z"/><path d="m-448 320h128v-128h-128z"/><path d="m-816-512h-80z"/><path d="m-896 1024h80z"/><path d="m-1024 768v80 48h128v-128z"/><path d="m-1024 800v96 128-128z"/><path d="m-320 768v-96-128h128v128 96z"/><path d="m-896 768v128h-128v-96-32z"/><path d="m512 64v32 96h-128v-128z"/><path d="m-320-256v96 128-128z"/><path d="m256-384h128z"/><path d="m256-512h128v128h-128z"/><path d="m-192-256v-128z"/><path d="m256 896h-224z"/><path d="m384 448v96 128-128z"/><path d="m256 896h128v128h-128z"/><path d="m-896-256v-128z"/><path d="m-448 192h-224z"/><path d="m-448 320h128z"/><path d="m-448 320h-224v-128h224z"/><path d="m-1024-256v80z"/><path d="m-192-160v-96-128h-128v128 96z"/><path d="m32 320h-224z"/><path d="m32 192h-224v128h224z"/><path d="m-192 672v96 128-128z"/><path d="m512 544v-176-48h-128v128 96z"/><path d="m-896 672v96 128-128z"/><path d="m-672-384h-224z"/><path d="m-672 896h-224v128h224z"/><path d="m-896-160v-96-128h-128v48 64 112z"/><path d="m-672-512h-224v128h224z"/><path d="m512 576v192 32-128z"/><path d="m-1024-176v16 128-128-96z"/><path d="m256-512h-80z"/><path d="m256-512h128z"/><path d="m176 1024h80z"/><path d="m512 528v-80z"/><path d="m512-80v144 80-176z"/><path d="m-320-160v-96-128h128v128 96z"/><path d="m384 544v-96-128h128v128 80 16z"/><path d="m-320 672v96 128-128z"/><path d="m32 192h-224z"/><path d="m384-32v96 128-128z"/><path d="m32 320h-224v-128h224z"/><path d="m-672-384h-224v-128h80 144z"/><path d="m-672 896h-224z"/><path d="m-1024-160v-16-80-128h128v128 96z"/><path d="m-672 1024h-144-80v-128h224z"/><path d="m-320 544v128 96h128v-96-128z"/><path d="m-672-512h-144-80z"/><path d="m-592-512h-80z"/><path d="m-672 1024h-224 80z"/><path d="m-672 1024h80z"/><path d="m32-384h224v-128h-128-96z"/><path d="m384-160v128 96h128v-144-80z"/><path d="m32 1024h224v-128h-224z"/><path d="m-672 320h224v-128h-224z"/><path d="m-1024 544v80 144h128v-96-128z"/><path d="m-1024 576v192 32-128z"/><path d="m-320 544v-96-128h128v128 96z"/><path d="m-896 544v128 96h-128v-192-32z"/><path d="m512-160v-176 80 128z"/><path d="m-320-32v96 128-128z"/><path d="m32-384h224z"/><path d="m32-512h144 80v128h-224z"/><path d="m512-160v32 192h-128v-96-128z"/><path d="m-192-32v-128-96 96z"/><path d="m32 896h-224z"/><path d="m384 672v96 128-128z"/><path d="m32 896h224v128h-80-144z"/><path d="m-896-32v-128-96 96z"/><path d="m-672 192h-224z"/><path d="m-672 320h224z"/><path d="m-672 320h-224v-128h224z"/><path d="m-1024-32v80z"/><path d="m256 320h-224z"/><path d="m256 192h-224v128h224z"/><path d="m-192 448v96 128-128z"/><path d="m-192 448v-128h-128v128 96h128z"/><path d="m-896 448v96 128-128z"/><path d="m-448-384h-224z"/><path d="m-448 896h-224v128h224z"/><path d="m-896 448v-128h-128v80 144h128z"/><path d="m-448 1024h-224 80z"/><path d="m-192 64v128-128-96z"/><path d="m-192 64v-96-128h-128v128 96z"/><path d="m512 768v-192-32h-128v128 96z"/><path d="m-896 64v128-128-96z"/><path d="m-448-512h-224v128h224z"/><path d="m-896 64v-96-128h-128v112 112z"/><path d="m32-512h-80z"/><path d="m32-512h224-80z"/><path d="m512 752v-80z"/><path d="m512 800v96 128-128z"/><path d="m-48 1024h80z"/><path d="m-1024 48v16 128-128-96z"/><path d="m-96-512h-96v128h224v-128z"/><path d="m-48 1024h-144v-128h224v128z"/><path d="m512-304v144 80-176z"/><path d="m-320 448v96 128-128z"/><path d="m256 192h-224z"/><path d="m384-256v96 128-128z"/><path d="m384-256v-128h128v48 176h-128z"/><path d="m512-304v-80h-128v128 96h128z"/><path d="m-320 64v-96-128h128v128 96z"/><path d="m256 320h-224v-128h224z"/><path d="m-448-384h-224v-128h80 144z"/><path d="m-448 896h-224z"/><path d="m-448-512h-144-80z"/><path d="m384 768v-96-128h128v128 80 16z"/><path d="m-448 1024h-144-80v-128h224z"/><path d="m-1024 64v-16-80-128h128v128 96z"/><path d="m-1024 176v16h128v-128h-128z"/><path d="m-320-512h-128z"/><path d="m512-512h-128z"/><path d="m512-336v-48 128z"/><path d="m512-384v80-80-128z"/><path d="m512 96v96 128-128z"/><path d="m512-128v96 128-32z"/><path d="m384 1024h-128z"/><path d="m-320 1024h128z"/><path d="m-192 1024h144 80z"/><path d="m-1024 1024h128z"/><path d="m-1024 448v-80 176 32z"/><path d="m-1024 672v128 96-128z"/><path d="m-1024 448v128 96-128z"/><path d="m-1024-384v128z"/><path d="m-1024-512v128z"/><path d="m-320-384v128z"/><path d="m-320 320v128z"/><path d="m384 192h-128z"/><path d="m-192-384h224z"/><path d="m384-384h128v-128h-128z"/><path d="m-320-384h128v-128h-128z"/><path d="m384-384v128z"/><path d="m-320 192h128v-128h-128z"/><path d="m384 320h128v-128h-128z"/><path d="m384 320v-128h-128v128z"/><path d="m-320 320h128v-128h-128z"/><path d="m384 896h-128z"/><path d="m384 320v128z"/><path d="m384 896h128v-96-32h-128z"/><path d="m-320 896h128v-128h-128z"/><path d="m384 1024h128v-128h-128z"/><path d="m-192 896v128h224v-128z"/><path d="m-320 1024h128v-128h-128z"/><path d="m-320 192h-128z"/><path d="m-320-384v-128h-128v128z"/><path d="m-896 320h224z"/><path d="m-320 320v-128h-128v128z"/><path d="m-896 192v128h224v-128z"/><path d="m-320 896h-128z"/><path d="m-320 1024v-128h-128v128z"/><path d="m-1024-384h128v-128h-128z"/><path d="m-1024 368v-48h128v128 96h-128z"/><path d="m-1024 320h128v-128h-128z"/><path d="m-1024 1024h128v-128h-128z"/><path d="m-1024-512h128z"/><path d="m-192-512h224-80z"/><path d="m512-512v128z"/><path d="m512 320v128z"/><path d="m512 1024h-128z"/><path d="m-320 1024h-128z"/><path d="m384-384h-128z"/><path d="m512-384h-128v-128h128z"/><path d="m-192-384v-128h144 80v128z"/><path d="m-192-384h-128v-128h128z"/><path d="m-192-384v128z"/><path d="m-192 192h-128v-128h128z"/><path d="m384 320h-128z"/><path d="m512 320h-128v-128h128z"/><path d="m384 192v128h-128v-128z"/><path d="m-192 320h-128v-128h128z"/><path d="m-192 320v128z"/><path d="m512 896h-128v-128h128z"/><path d="m-192 896h-128v-128h128z"/><path d="m512 1024h-128v-128h128z"/><path d="m-192 1024h-128v-128h128z"/><path d="m-896-384v128z"/><path d="m-896 320v128z"/><path d="m-320-384h-128z"/><path d="m-320-512v128h-128v-128z"/><path d="m-320 320h-128z"/><path d="m-320 192v128h-128v-128z"/><path d="m-320 896v128h-128v-128z"/><path d="m-896-384h-128v-128h128z"/><path d="m-896 320h-128v-128h128z"/><path d="m-896 192h-128v-128h128z"/><path d="m-896 1024h-128v-128h128z"/><path d="m384 64v128h128v-128z"/><path d="m-192 768v-96-128h-128v128 96z"/><path d="m256 1024h-224 144z"/><path d="m256-384h-224z"/><path d="m256-384h128v-128h-128z"/><path d="m-192-256v96 128-128z"/><path d="m256 1024h128v-128h-128z"/><path d="m-896-256v96 128-128z"/><path d="m-448 320h-224z"/><path d="m-448 192h-224v128h224z"/><path d="m-1024 768v128h128v-128z"/><path d="m512 448v96 128-128-16z"/><path d="m-1024 800v96 128-128z"/><path d="m-320 768v-96-128h128v128 96z"/><path d="m-896 768v128h-128v-96-32z"/><path d="m-320-256v96 128-128z"/><path d="m256 896h-224z"/><path d="m384 448v96 128-128z"/><path d="m256 896h128v128h-128z"/><path d="m-448 192h-224z"/><path d="m-448 320h-224v-128h224z"/><path d="m-1024-256v96 128z"/><path d="m256-512h128v128h-128z"/><path d="m512 64v32 96h-128v-128z"/><path d="m-192-160v-96-128h-128v128 96z"/><path d="m-896-160v-96-128h-128v128 96z"/><path d="m32 320h-224z"/><path d="m32 192h-224v128h224z"/><path d="m-192 672v96 128-128z"/><path d="m-896 672v96 128-128z"/><path d="m-672-384h-224z"/><path d="m-672-512h-224v128h224z"/><path d="m-672 896h-224v128h224z"/><path d="m512-32v96 128-96z"/><path d="m512 544v-96-128h-128v128 96z"/><path d="m-672-512h-224z"/><path d="m-320-160v-96-128h128v128 96z"/><path d="m384 544v-96-128h128v128 96z"/><path d="m-672 1024h-224v-128h224z"/><path d="m-320 672v96 128-128z"/><path d="m32 192h-224z"/><path d="m384-32v96 128-128z"/><path d="m32 320h-224v-128h224z"/><path d="m-672-384h-224v-128h224z"/><path d="m-672 896h-224z"/><path d="m-1024-160v-96-128h128v128 96z"/><path d="m384-160v128 96h128v-96-128z"/><path d="m-192 544v-96-128h-128v128 96z"/><path d="m32-384h-224z"/><path d="m32-384h224v-128h-224z"/><path d="m-192-32v96 128-128z"/><path d="m-896-32v96 128-128z"/><path d="m-672 320h-224z"/><path d="m-672 192h-224v128h224z"/><path d="m-1024 544v128 96h128v-96-128z"/><path d="m32 1024h-224 144z"/><path d="m32 1024h224v-128h-224z"/><path d="m512 672v96 128-128-16z"/><path d="m-1024 576v192 32-128z"/><path d="m-320 544v-96-128h128v128 96z"/><path d="m-896 544v128 96h-128v-192-32z"/><path d="m512-160v-176 80 128z"/><path d="m-320-32v96 128-128z"/><path d="m512-160v32 192h-128v-96-128z"/><path d="m32 896h-224z"/><path d="m384 672v96 128-128z"/><path d="m32 896h224v128h-224z"/><path d="m-672 192h-224z"/><path d="m-672 320h-224v-128h224z"/><path d="m-1024-32v96 32z"/><path d="m32-512h224v128h-224z"/><path d="m-448 1024h-224 80z"/><path d="m256 320h-224z"/><path d="m256 192h-224v128h224z"/><path d="m-192 448v96 128-128z"/><path d="m-896 448v96 128-128z"/><path d="m-448-384h-224z"/><path d="m-448-512h-224v128h224z"/><path d="m-448 896h-224v128h224z"/><path d="m-896 448v-128h-128v128 96h128z"/><path d="m512-256v96 128-96z"/><path d="m512-256v-128h-128v128 96h128z"/><path d="m-192 64v-96-128h-128v128 96z"/><path d="m-896 64v-96-128h-128v128 96z"/><path d="m512 768v-96-128h-128v128 96z"/><path d="m-448-512h-224z"/><path d="m-448 1024h-224v-128h224z"/><path d="m-320 448v96 128-128z"/><path d="m256 192h-224z"/><path d="m384-256v96 128-128z"/><path d="m384-256v-128h128v48 176h-128z"/><path d="m256 320h-224v-128h224z"/><path d="m-448-384h-224v-128h224z"/><path d="m-448 896h-224z"/><path d="m-320 64v-96-128h128v128 96z"/><path d="m384 768v-96-128h128v224z"/><path d="m-1024 64v-96-128h128v128 96z"/><path d="m-896-512h96 128z"/><path d="m-672-512h96 128z"/><path d="m32-512h-128z"/><path d="m256-512h-224z"/><path d="m384-512h-128z"/><path d="m512 800v-32-96z"/><path d="m512 672v-128-96z"/><path d="m512 320v64 64z"/><path d="m-96 1024h128z"/><path d="m32 1024h224z"/><path d="m256 1024h128z"/><path d="m-896 1024h224z"/><path d="m-672 1024h224z"/><path d="m-1024 96v96-32-192z"/><path d="m-1024-32v-32-192z"/><path d="m-1024-384v128z"/><path d="m512 800v96h-128v-128h128z"/><path d="m-96 1024h-96v-128h224v128z"/><path d="m-320-512h-128z"/><path d="m-192-512h-128z"/><path d="m512-512h-128z"/><path d="m512-336v-48 32 96z"/><path d="m512 96v96 128-128z"/><path d="m512-128v96 128-32z"/><path d="m512 1024v-128z"/><path d="m384 1024h-64-64z"/><path d="m-320 1024h128z"/><path d="m-1024 1024h128z"/><path d="m-1024 320v48 80z"/><path d="m-1024 192v128z"/><path d="m-1024 448v-80 176 32z"/><path d="m-1024 672v128 96-64z"/><path d="m-1024 448v128 96-64z"/><path d="m-1024-512v128z"/><path d="m-320 320v-128z"/><path d="m-320 320v128z"/><path d="m384 192h-128z"/><path d="m384 192h128z"/><path d="m-192-384h-128z"/><path d="m384-384v-128z"/><path d="m384-384h128v-128h-128z"/><path d="m-192-512v128h224v-128z"/><path d="m-320-384h128v-128h-128z"/><path d="m384-384v128z"/><path d="m-320 192h128v-128h-128z"/><path d="m512 320h-128z"/><path d="m-192 192v128z"/><path d="m384 320h128v-128h-128z"/><path d="m384 320v-128h-128v128z"/><path d="m-320 320h128v-128h-128z"/><path d="m-320 896h128z"/><path d="m384 896h128v-128h-128z"/><path d="m384 1024v-128z"/><path d="m384 1024h128v-128h-128z"/><path d="m-192 896v128h224v-128z"/><path d="m-320 1024h128v-128h-128z"/><path d="m-896-512v128z"/><path d="m-896 896v128z"/><path d="m-320-384v-128h-128v128z"/><path d="m-320 896h-128z"/><path d="m-320 1024v-128h-128v128z"/><path d="m-1024 896h128z"/><path d="m-896-384h-128z"/><path d="m-1024-384h128v-128h-128z"/><path d="m-1024 368v-48h128v128 96h-128z"/><path d="m-1024 192h128v-128h-128z"/><path d="m-1024 320h128v-128h-128z"/><path d="m-1024 1024h128v-128h-128z"/><path d="m-1024-512h128z"/><path d="m-192-512h64 160-128z"/><path d="m512-384v-128 160z"/><path d="m512-32v128 96-96z"/><path d="m512-256v128 96-96z"/><path d="m512 1024h-128z"/><path d="m-320 1024h-32-96z"/><path d="m-1024 1024v-128z"/><path d="m-896 1024h-128v-128h128z"/><path d="m-896 320h-128v-128h128z"/><path d="m-192 1024h-128v-128h128z"/><path d="m512 1024h-128v-128h128z"/><path d="m-192 320h-128v-128h128z"/><path d="m512 320h-128v-128h128z"/><path d="m-896-384h-128v-128h128z"/><path d="m-192-384h-128v-128h128z"/><path d="m512-384h-128v-128h128z"/><path d="m-192-384v-128h96 128v128z"/><path d="m-192 192h-128v-128h128z"/><path d="m384 320h-128z"/><path d="m384 192v128h-128v-128z"/><path d="m-192 320v128z"/><path d="m-896 320v128z"/><path d="m-320-384h-128z"/><path d="m-320-512v128h-128v-128z"/><path d="m-320 896v128h-128v-128z"/><path d="m-896 192h-128v-96-32h128z"/></g><g id="b"><path d="m-352-512h32-128z"/><path d="m32-512h64 160z"/><path d="m256-512h64 64z"/><path d="m-320-512h128z"/><path d="m384-512h128z"/><path d="m512 96v64 160-128z"/><path d="m512-128v64 160-128z"/><path d="m512-352v64 160-128z"/><path d="m512 672v160 64-96z"/><path d="m512 448v160 64z"/><path d="m512 896v128z"/><path d="m32 1024h-160-64 96z"/><path d="m256 1024h-160-64z"/><path d="m-192 1024h-128z"/><path d="m-672 1024h-128-96z"/><path d="m-448 1024h-128-96z"/><path d="m-896 1024h-128z"/><path d="m-1024 320v-128z"/><path d="m-1024 384v-64 48 80z"/><path d="m-1024-288v-96 128z"/><path d="m-1024-384v-128z"/><path d="m-800-512h-96-128v128 96h224z"/><path d="m-1024-288v32 192h224v-224z"/><path d="m-1024-64v32 192h224v-224z"/><path d="m-1024 160v32 128 64h224v-224z"/><path d="m-1024 384v64 160h224v-224z"/><path d="m-1024 608v64 160h224v-224z"/><path d="m-1024 832v64 128h128 96v-192z"/><path d="m-576-512h-96-128v224h224z"/><path d="m-800-288v224h224v-224z"/><path d="m-800-64v224h224v-224z"/><path d="m-800 160v224h224v-224z"/><path d="m-800 384v224h224v-224z"/><path d="m-800 608v224h224v-224z"/><path d="m-800 832v192h128 96v-192z"/><path d="m-352-512h-96-128v224h224z"/><path d="m-576-288v224h224v-224z"/><path d="m-576-64v224h224v-224z"/><path d="m-576 160v224h224v-224z"/><path d="m-576 384v224h224v-224z"/><path d="m-576 608v224h224v-224z"/><path d="m-576 832v192h128 96v-192z"/><path d="m-128-512h-64-128-32v224h224z"/><path d="m-352-288v224h224v-224z"/><path d="m-352-64v224h224v-224z"/><path d="m-352 160v224h224v-224z"/><path d="m-352 384v224h224v-224z"/><path d="m-352 608v224h224v-224z"/><path d="m-352 832v192h32 128 64v-192z"/><path d="m96-512h-64-160v224h224z"/><path d="m-128-288v224h224v-224z"/><path d="m-128-64v224h224v-224z"/><path d="m-128 160v224h224v-224z"/><path d="m-128 384v224h224v-224z"/><path d="m-128 608v224h224v-224z"/><path d="m-128 832v192h160 64v-192z"/><path d="m320-512h-64-160v224h224z"/><path d="m96-288v224h224v-224z"/><path d="m96-64v224h224v-224z"/><path d="m96 160v224h224v-224z"/><path d="m96 384v224h224v-224z"/><path d="m96 608v224h224v-224z"/><path d="m96 832v192h160 64v-192z"/><path d="m512-352v-160h-128-64v224h192z"/><path d="m320-288v224h192v-64-160z"/><path d="m320-64v224h192v-64-160z"/><path d="m320 160v224h192v-64-160z"/><path d="m320 384v224h192v-160-64z"/><path d="m320 608v224h192v-160-64z"/><path d="m320 832v192h64 128v-128-64z"/></g></defs><g stroke="#000"><use fill="none" stroke-miterlimit="0" stroke-width="10" xlink:href="#a"/><use fill="#d9d9d9" xlink:href="#a"/><use fill="none" stroke-miterlimit="0" stroke-width="10" xlink:href="#b"/><use fill="#fff" xlink:href="#b"/></g></svg>