<?xml version="1.0" encoding="utf-8" ?>
<svg baseProfile="tiny" height="100%" version="1.2" viewBox="-1228.0 -1484.0 2456.0 2712.0" width="100%" xmlns="http://www.w3.org/2000/svg" xmlns:ev="http://www.w3.org/2001/xml-events" xmlns:xlink="http://www.w3.org/1999/xlink"><defs><g id="bsp_ref"><polygon points="-1024,-1152 -1024,-1024 -1024,-1024 -1024,-1152" /><polygon points="-1024,-1024 -1024,-1152 -896,-1152 -896,-1024" /><polygon points="-896,-1024 -896,-1152 -896,-1152 -896,-1024" /><polygon points="-896,-1152 -1024,-1152 -1024,-1024 -896,-1024" /><polygon points="-128,-448 -128,-224 -128,-224 -128,-448" /><polygon points="-128,-224 -128,0 -128,0 -128,-224" /><polygon points="96,-512 -128,-512 -128,-512 96,-512" /><polygon points="256,-512 256,-512 256,-448 256,-448" /><polygon points="256,0 256,0 96,0 96,0" /><polygon points="256,-64 256,0 96,0 96,-64" /><polygon points="256,-288 256,-64 96,-64 96,-288" /><polygon points="96,-512 256,-512 256,-288 96,-288" /><polygon points="96,-64 96,0 -128,0 -128,-64" /><polygon points="96,-288 96,-64 -128,-64 -128,-288" /><polygon points="-128,-512 96,-512 96,-288 -128,-288" /><polygon points="96,-512 256,-512 256,-512 96,-512" /><polygon points="96,0 -128,0 -128,0 96,0" /><polygon points="-128,-448 -128,-512 -128,-512 -128,-448" /><polygon points="-128,-224 -128,-448 -128,-448 -128,-224" /><polygon points="256,-448 256,-224 256,-224 256,-448" /><polygon points="256,-224 256,0 256,0 256,-224" /><polygon points="96,-64 96,0 256,0 256,-64" /><polygon points="96,-288 96,-64 256,-64 256,-288" /><polygon points="256,-512 96,-512 96,-288 256,-288" /><polygon points="-128,-64 -128,0 96,0 96,-64" /><polygon points="-128,-288 -128,-64 96,-64 96,-288" /><polygon points="96,-512 -128,-512 -128,-288 96,-288" /><polygon points="-896,-1024 -1024,-1024 -1024,-1152 -896,-1152" /><polygon points="-1024,-1152 -1024,-1152 -896,-1152 -896,-1152" /><polygon points="-896,-1152 -896,-1152 -896,-1024 -896,-1024" /><polygon points="-896,-1024 -896,-1024 -1024,-1024 -1024,-1024" /><polygon points="-1024,-1024 -1024,-1024 -1024,-1152 -1024,-1152" /><polygon points="-128,-512 -128,-512 -128,-448 -128,-448" /><polygon points="-128,-448 -128,-224 -128,-224 -128,-448" /><polygon points="-128,-224 -128,0 -128,0 -128,-224" /><polygon points="256,-512 256,-512 96,-512 96,-512" /><polygon points="96,-512 -128,-512 -128,-512 96,-512" /><polygon points="256,-512 256,-512 256,-448 256,-448" /><polygon points="256,-448 256,-224 256,-224 256,-448" /><polygon points="256,-224 256,0 256,0 256,-224" /><polygon points="96,0 -128,0 -128,0 96,0" /><polygon points="256,0 256,0 96,0 96,0" /><polygon points="256,-512 -128,-512 -128,0 256,0" /><polygon points="-128,-512 256,-512 256,0 -128,0" /><polygon points="-1024,-1152 -1024,-1024 -1024,-1024 -1024,-1152" /><polygon points="-128,-448 -128,-224 -128,-224 -128,-448" /><polygon points="-128,-224 -128,0 -128,0 -128,-224" /><polygon points="-128,-512 -128,-512 -128,-448 -128,-448" /><polygon points="96,-512 -128,-512 -128,-512 96,-512" /><polygon points="256,-512 256,-512 96,-512 96,-512" /><polygon points="256,-448 256,-224 256,-224 256,-448" /><polygon points="256,-224 256,0 256,0 256,-224" /><polygon points="256,-512 256,-512 256,-448 256,-448" /><polygon points="256,0 256,0 96,0 96,0" /><polygon points="96,0 -128,0 -128,0 96,0" /><polygon points="-896,-1024 -896,-1152 -896,-1152 -896,-1024" /><polygon points="-896,-1152 -896,-1152 -1024,-1152 -1024,-1152" /><polygon points="-1024,-1024 -1024,-1024 -896,-1024 -896,-1024" /><polygon points="-896,-1152 -1024,-1152 -1024,-1088 -896,-1088" /><polygon points="-896,-1088 -1024,-1088 -1024,-1024 -896,-1024" /><polygon points="1024,768 1024,768 960,768 960,768" /><polygon points="-512,768 -512,768 -672,768 -672,768" /><polygon points="1024,0 1024,0 1024,96 1024,96" /><polygon points="1024,0 1024,-128 1024,-128 1024,0" /><polygon points="1024,-1152 1024,-1152 1024,-1120 1024,-1120" /><polygon points="192,-1280 -32,-1280 -32,-1280 192,-1280" /><polygon points="-32,-1280 -256,-1280 -256,-1280 -32,-1280" /><polygon points="736,-1280 512,-1280 512,-1280 736,-1280" /><polygon points="-1024,-1056 -1024,-832 -1024,-832 -1024,-1056" /><polygon points="-1024,-832 -1024,-608 -1024,-608 -1024,-832" /><polygon points="-1024,-608 -1024,-384 -1024,-384 -1024,-608" /><polygon points="-1024,-224 -1024,0 -1024,0 -1024,-224" /><polygon points="-1024,128 -1024,128 -1024,0 -1024,0" /><polygon points="-1024,192 -1024,416 -1024,416 -1024,192" /><polygon points="-1024,416 -1024,640 -1024,640 -1024,416" /><polygon points="1024,-928 1024,-896 896,-896 896,-928" /><polygon points="1024,-1152 1024,-928 896,-928 896,-1152" /><polygon points="1024,-768 1024,-640 896,-640 896,-768" /><polygon points="1024,-128 1008,-128 1008,-288 1024,-288" /><polygon points="1008,-288 1008,-512 1024,-512 1024,-288" /><polygon points="1024,-640 1024,-512 896,-512 896,-640" /><polygon points="1008,-64 1008,0 896,0 896,-64" /><polygon points="1008,-288 1008,-64 896,-64 896,-288" /><polygon points="896,-512 1008,-512 1008,-288 896,-288" /><polygon points="896,-1056 896,-896 736,-896 736,-1056" /><polygon points="896,-1280 896,-1056 736,-1056 736,-1280" /><polygon points="736,-896 512,-896 512,-1056 736,-1056" /><polygon points="512,-1056 512,-1280 736,-1280 736,-1056" /><polygon points="896,128 896,256 768,256 768,128" /><polygon points="896,-96 896,128 768,128 768,-96" /><polygon points="896,-320 896,-96 768,-96 768,-320" /><polygon points="896,-544 896,-320 768,-320 768,-544" /><polygon points="768,-768 896,-768 896,-544 768,-544" /><polygon points="768,-768 768,-640 608,-640 608,-768" /><polygon points="608,-640 384,-640 384,-768 608,-768" /><polygon points="384,-832 384,-640 224,-640 224,-832" /><polygon points="384,-1056 384,-832 224,-832 224,-1056" /><polygon points="384,-1280 384,-1056 224,-1056 224,-1280" /><polygon points="224,-640 0,-640 0,-832 224,-832" /><polygon points="0,-832 0,-1056 224,-1056 224,-832" /><polygon points="0,-1056 0,-1280 224,-1280 224,-1056" /><polygon points="255.4286,-640 255.4286,-512 96,-512 96,-640" /><polygon points="96,-512 -128,-512 -128,-640 96,-640" /><polygon points="255.4286,-64 255.4286,0 256,0 256,-64" /><polygon points="255.4286,-288 255.4286,-64 256,-64 256,-288" /><polygon points="256,-512 255.4286,-512 255.4286,-288 256,-288" /><polygon points="-128,-1152 -128,-1280 0,-1280 0,-1152" /><polygon points="-128,-1056 -128,-896 -256,-896 -256,-1056" /><polygon points="-256,-1280 -128,-1280 -128,-1056 -256,-1056" /><polygon points="0,-672 0,-640 -32,-640 -32,-672" /><polygon points="0,-896 0,-672 -32,-672 -32,-896" /><polygon points="-32,-640 -256,-640 -256,-672 -32,-672" /><polygon points="-256,-672 -256,-896 -32,-896 -32,-672" /><polygon points="-256,-832 -256,-640 -384,-640 -384,-832" /><polygon points="-256,-1056 -256,-832 -384,-832 -384,-1056" /><polygon points="-384,-1280 -256,-1280 -256,-1056 -384,-1056" /><polygon points="-384,-1056 -384,-1024 -448,-1024 -448,-1056" /><polygon points="-384,-1280 -384,-1056 -448,-1056 -448,-1280" /><polygon points="-448,-1024 -672,-1024 -672,-1056 -448,-1056" /><polygon points="-672,-1056 -672,-1280 -448,-1280 -448,-1056" /><polygon points="-672,-1024 -896,-1024 -896,-1056 -672,-1056" /><polygon points="-896,-1056 -896,-1280 -672,-1280 -672,-1056" /><polygon points="-384,-768 -384,-640 -448,-640 -448,-768" /><polygon points="-448,-640 -672,-640 -672,-768 -448,-768" /><polygon points="-672,-640 -896,-640 -896,-768 -672,-768" /><polygon points="-896,-800 -896,-640 -1024,-640 -1024,-800" /><polygon points="-1024,-1024 -896,-1024 -896,-800 -1024,-800" /><polygon points="-896,-1152 -1024,-1152 -1024,-1280 -896,-1280" /><polygon points="-256,-512 -384,-512 -384,-640 -256,-640" /><polygon points="-128,-160 -128,-128 -288,-128 -288,-160" /><polygon points="-128,-384 -128,-160 -288,-160 -288,-384" /><polygon points="-288,-128 -512,-128 -512,-160 -288,-160" /><polygon points="-512,-160 -512,-384 -288,-384 -288,-160" /><polygon points="-512,-191.1429 -512,-128 -640,-128 -640,-191.1429" /><polygon points="-512,-415.1429 -512,-191.1429 -640,-191.1429 -640,-415.1429" /><polygon points="-640,-639.1429 -512,-639.1429 -512,-415.1429 -640,-415.1429" /><polygon points="-512,-640 -512,-639.1429 -544,-639.1429 -544,-640" /><polygon points="-544,-639.1429 -768,-639.1429 -768,-640 -544,-640" /><polygon points="-768,-192 -768,-128 -800,-128 -800,-192" /><polygon points="-768,-416 -768,-192 -800,-192 -800,-416" /><polygon points="-800,-640 -768,-640 -768,-416 -800,-416" /><polygon points="-800,-192 -800,-128 -1024,-128 -1024,-192" /><polygon points="-800,-416 -800,-192 -1024,-192 -1024,-416" /><polygon points="-1024,-640 -800,-640 -800,-416 -1024,-416" /><polygon points="1024,-128 1024,0 1008,0 1008,-128" /><polygon points="1024,448 1024,640 896,640 896,448" /><polygon points="1024,224 1024,448 896,448 896,224" /><polygon points="896,0 1024,0 1024,224 896,224" /><polygon points="896,480 896,512 832,512 832,480" /><polygon points="896,256 896,480 832,480 832,256" /><polygon points="832,512 608,512 608,480 832,480" /><polygon points="608,480 608,256 832,256 832,480" /><polygon points="608,512 384,512 384,480 608,480" /><polygon points="384,480 384,256 608,256 608,480" /><polygon points="896,736 896,768 800,768 800,736" /><polygon points="896,512 896,736 800,736 800,512" /><polygon points="800,768 576,768 576,736 800,736" /><polygon points="576,736 576,512 800,512 800,736" /><polygon points="576,768 352,768 352,736 576,736" /><polygon points="352,736 352,512 576,512 576,736" /><polygon points="352,768 128,768 128,736 352,736" /><polygon points="128,736 128,512 352,512 352,736" /><polygon points="128,768 -96,768 -96,736 128,736" /><polygon points="-96,736 -96,512 128,512 128,736" /><polygon points="-96,768 -320,768 -320,736 -96,736" /><polygon points="-320,736 -320,512 -96,512 -96,736" /><polygon points="-320,768 -544,768 -544,736 -320,736" /><polygon points="-544,736 -544,512 -320,512 -320,736" /><polygon points="-544,768 -768,768 -768,736 -544,736" /><polygon points="-768,736 -768,512 -544,512 -544,736" /><polygon points="1024,768 896,768 896,640 1024,640" /><polygon points="128,0 255.4286,0 255.4286,128 128,128" /><polygon points="224,128 255.4286,128 255.4286,256 224,256" /><polygon points="0,256 0,128 224,128 224,256" /><polygon points="224,256 384,256 384,384 224,384" /><polygon points="0,384 0,256 224,256 224,384" /><polygon points="224,384 256,384 256,512 224,512" /><polygon points="0,512 0,384 224,384 224,512" /><polygon points="-128,-128 -128,0 -352,0 -352,-128" /><polygon points="-352,0 -576,0 -576,-128 -352,-128" /><polygon points="-576,0 -800,0 -800,-128 -576,-128" /><polygon points="-800,0 -1024,0 -1024,-128 -800,-128" /><polygon points="0,352 0,384 -96,384 -96,352" /><polygon points="-96,128 0,128 0,352 -96,352" /><polygon points="-96,352 -96,384 -320,384 -320,352" /><polygon points="-320,128 -96,128 -96,352 -320,352" /><polygon points="-320,352 -320,384 -544,384 -544,352" /><polygon points="-544,128 -320,128 -320,352 -544,352" /><polygon points="-768,384 -768,352 -544,352 -544,384" /><polygon points="-768,352 -768,128 -544,128 -544,352" /><polygon points="-128,384 -128,512 -160,512 -160,384" /><polygon points="-160,512 -384,512 -384,384 -160,384" /><polygon points="-384,0 -384,128 -560,128 -560,0" /><polygon points="-560,128 -784,128 -784,0 -560,0" /><polygon points="-784,128 -1008,128 -1008,0 -784,0" /><polygon points="-1024,128 -1024,0 -1008,0 -1008,128" /><polygon points="-768,576 -768,640 -800,640 -800,576" /><polygon points="-768,352 -768,576 -800,576 -800,352" /><polygon points="-800,128 -768,128 -768,352 -800,352" /><polygon points="-800,576 -800,640 -1024,640 -1024,576" /><polygon points="-800,352 -800,576 -1024,576 -1024,352" /><polygon points="-1024,128 -800,128 -800,352 -1024,352" /><polygon points="-768,768 -896,768 -896,640 -768,640" /><polygon points="0,-1024 0,-896 0,-896 0,-1024" /><polygon points="0,384 0,512 0,512 0,384" /><polygon points="768,-640 768,-640 703.4286,-640 703.4286,-640" /><polygon points="832,-768 608,-768 608,-896 832,-896" /><polygon points="608,-768 384,-768 512,-896 608,-896" /><polygon points="512,-1120 512,-896 512,-896 512,-1120" /><polygon points="1024,-896 1024,-896 960,-896 960,-896" /><polygon points="384,-1280 512,-1280 512,-1216 384,-1216" /><polygon points="703.4286,256 479.4286,256 479.4286,256 703.4286,256" /><polygon points="479.4286,256 255.4286,256 479.4286,256" /><polygon points="768,-416 768,-192 768,-192 768,-416" /><polygon points="768,-192 768,32 768,32 768,-192" /><polygon points="768,32 768,256 768,256 768,32" /><polygon points="255.4286,-640 479.4286,-640 479.4285,-416 255.4285,-416" /><polygon points="128,0 128,0 0,0 0,0" /><polygon points="384,512 256,512 256,512 384,512" /><polygon points="256,512 256,384 256,384 256,512" /><polygon points="256,384 384,384 384,384 256,384" /><polygon points="-896,-1024 -928,-992 -896,-992" /><polygon points="-384,512 -544,512 -544,512" /><polygon points="-544,512 -768,512 -768,512 -544,512" /><polygon points="-384,384 -416,384 -416,384" /><polygon points="-384,-1024 -399.7495,-1008.2505 -576,-1008.2505 -576,-1024" /><polygon points="-384,-1024 -384,-992 -416,-992" /><polygon points="-384,-992 -384,-768 -399.7495,-783.7495 -399.7495,-992" /><polygon points="-576,-768 -800,-768 -800,-783.7495 -576,-783.7495" /><polygon points="-800,-768 -896,-768 -911.7495,-783.7495 -800,-783.7495" /><polygon points="-640,-639.1429 -640,-576 -640,-576" /><polygon points="-640,-576 -640,-352 -640,-352 -640,-383.7143 -640,-576" /><polygon points="-640,-352 -640,-128 -640,-128 -640,-352" /><polygon points="0,128 -160,128 -160,128 0,128" /><polygon points="-160,128 -384,128 -384,128 -160,128" /><polygon points="-288,-384 -512,-384 -512,-384 -288,-384" /><polygon points="-256,-512 -256,-640 -256,-640 -256,-512" /><polygon points="-128,-608 -128,-384 -128,-384 -128,-608" /><polygon points="-512,-640 -512,-640 -512,-608 -512,-608" /><polygon points="-768,-639.1429 -768,-576 -768,-576" /><polygon points="-768,-639.1429 -640,-639.1429 -640,-415.143 -768,-415.143" /><polygon points="-384,384 -384,512 -416,512 -416,384" /><polygon points="-128,-512 -128,-512 -128,-448 -128,-448" /><polygon points="256,-512 256,-512 96,-512 96,-512" /><polygon points="256,-448 256,-224 256,-224 256,-448" /><polygon points="256,-224 256,0 256,0 256,-224" /><polygon points="96,0 -128,0 -128,0 96,0" /><polygon points="-896,-1152 -896,-1152 -1024,-1152 -1024,-1152" /><polygon points="-1024,-1024 -1024,-1024 -896,-1024 -896,-1024" /><polygon points="-384,1024 -384,1024 -512,1024 -512,1024" /><polygon points="-384,1024 -512,1024 -512,784 -384,784" /><polygon points="-512,784 -512,768 -384,768 -384,784" /><polygon points="-384,768 -384,768 -384,784 -384,784" /><polygon points="-512,784 -512,784 -512,768 -512,768" /><polygon points="-1024,-1088 -1024,-1088 -1024,-1152 -1024,-1152" /><polygon points="-896,-1152 -896,-1152 -896,-1088 -896,-1088" /><polygon points="-1024,-1152 -1024,-1152 -896,-1152 -896,-1152" /><polygon points="-896,-1088 -896,-1088 -1024,-1088 -1024,-1088" /><polygon points="-896,-1088 -1024,-1088 -1024,-1152 -896,-1152" /><polygon points="-128,-512 -128,-512 96,-512 96,-512" /><polygon points="256,0 256,0 96,0 96,0" /><polygon points="-128,0 -128,0 -128,-224 -128,-224" /><polygon points="256,-512 256,-512 256,-448 256,-448" /><polygon points="256,0 96,0 96,-64 256,-64" /><polygon points="96,-64 96,-288 256,-288 256,-64" /><polygon points="96,-288 96,-512 256,-512 256,-288" /><polygon points="96,0 -128,0 -128,-64 96,-64" /><polygon points="-128,-64 -128,-288 96,-288 96,-64" /><polygon points="-128,-288 -128,-512 96,-512 96,-288" /><polygon points="-384,784 -384,768 -512,768 -512,784" /><polygon points="-464,768 -432,768 -432,768 -464,768" /><polygon points="-432,768 -384,768 -384,768 -432,768" /><polygon points="-1024,-1024 -1024,-1024 -1024,-1088 -1024,-1088" /><polygon points="-896,-1088 -896,-1088 -896,-1024 -896,-1024" /><polygon points="-896,-1024 -896,-1024 -1024,-1024 -1024,-1024" /><polygon points="-1024,-1088 -1024,-1088 -896,-1088 -896,-1088" /><polygon points="-896,-1024 -1024,-1024 -1024,-1088 -896,-1088" /><polygon points="-1024,-800 -1024,-768 -896,-768 -896,-800" /><polygon points="-896,-1024 -1024,-1024 -1024,-800 -896,-800" /><polygon points="-1024,-992 -1024,-1024 -1024,-992" /><polygon points="-1024,-768 -1024,-992 -1024,-992 -1024,-783.7496" /><polygon points="-896,-768 -1024,-768 -1024,-783.7496 -911.7495,-783.7495" /><polygon points="-911.7494,-992 -896,-992 -896,-768 -911.7495,-783.7495" /><polygon points="-800,-783.7495 -800,-896 -576,-896 -576,-783.7495" /><polygon points="-911.7495,-783.7495 -896,-768 -896,-992 -911.7495,-992" /><polygon points="-399.7495,-1008.2505 -512,-896 -576,-896 -576,-1008.2505" /><polygon points="-800,-1008.2505 -800,-1024 -576,-1024 -576,-1008.2505" /><polygon points="-911.7495,-1008.2505 -896,-1024 -800,-1024 -800,-1008.2505" /><polygon points="-399.7495,-783.7495 -512,-896 -416,-992 -399.7495,-992" /><polygon points="-399.7495,-783.7495 -384,-768 -576,-768 -576,-783.7495" /><polygon points="-911.7495,-783.7495 -1024,-896 -800,-896 -800,-783.7495" /><polygon points="-1024,-1008.2505 -1024,-1024 -896,-1024 -911.7495,-1008.2505" /><polygon points="-1024,-992 -1024,-992 -1024,-896 -1024,-783.7496" /><polygon points="-1024,-783.7496 -1024,-896 -911.7495,-783.7495" /><polygon points="-768,-576 -768,-352 -768,-352 -768,-576" /><polygon points="-256,-1280 -256,-1280 -320,-1280 -320,-1280" /><polygon points="-320,-1280 -320,-1280 -544,-1280 -544,-1280" /><polygon points="-544,-1280 -544,-1280 -768,-1280 -768,-1280" /><polygon points="-768,512 -768,512 -640,512 -544,512 -544,512" /><polygon points="-416,384 -640,384 -640,384 -416,384" /><polygon points="-416,384 -640,384 -640,384" /><polygon points="-768,-128 -768,-128 -768,-352 -768,-352" /><polygon points="-416,512 -640,512 -640,384 -416,384" /><polygon points="-1016,-1120 -1024,-1120 -1024,-1056 -1016,-1056" /><polygon points="768,-640 768,-640 703.4286,-640 703.4286,-640" /><polygon points="768,256 768,256 703.4286,256 703.4286,256" /><polygon points="-432,760 -464,760 -464,768 -432,768" /><polygon points="384,384 384,384 384,512 384,512" /><polygon points="-928,-992 -896,-1024 -896,-992" /><polygon points="-928,-992 -1024,-896 -911.7495,-783.7495 -911.7495,-992" /><polygon points="-896,-1280 -896,-1280 -1024,-1280 -1024,-1280" /><polygon points="-512,768 -512,768 -464,768 -464,768" /><polygon points="-432,768 -464,768 -464,760 -432,760" /><polygon points="-464,768 -464,768 -464,760 -464,760" /><polygon points="-432,760 -432,760 -432,768 -432,768" /><polygon points="-464,760 -464,760 -432,760 -432,760" /><polygon points="480,-1280 384,-1280 256,-1280 256,-1280 480,-1280" /><polygon points="0,-896 0,-896 0,-1024 0,-1024" /><polygon points="-256,-640 -256,-640 -128,-640 -128,-640" /><polygon points="-512,-640 -512,-640 -384,-640 -384,-640" /><polygon points="-128,512 -128,512 -128,384 -128,384" /><polygon points="-1016,-1056 -1024,-1056 -1024,-1120 -1016,-1120" /><polygon points="-1024,-1120 -1024,-1120 -1016,-1120 -1016,-1120" /><polygon points="-1016,-1056 -1016,-1056 -1024,-1056 -1024,-1056" /><polygon points="-1024,-1056 -1024,-1056 -1024,-1120 -1024,-1120" /><polygon points="-1016,-1120 -1016,-1120 -1016,-1056 -1016,-1056" /><polygon points="1024,-1120 1024,-896 1024,-896 1024,-1120" /><polygon points="1024,-1152 1024,-1152 1024,-1120 1024,-1120" /><polygon points="896,-1280 896,-1280 736,-1280 736,-1280" /><polygon points="736,-1280 512,-1280 512,-1280 736,-1280" /><polygon points="512,-1120 512,-896 512,-896 512,-1120" /><polygon points="512,-1280 512,-1280 512,-1120 512,-1120" /><polygon points="960,-896 736,-896 736,-896 960,-896" /><polygon points="736,-896 512,-896 512,-896 736,-896" /><polygon points="1024,-896 1024,-896 960,-896 960,-896" /><polygon points="896,-1152 896,-1152 896,-1280 896,-1280" /><polygon points="1024,-1152 1024,-1152 896,-1152 896,-1152" /><polygon points="1024,-1152 1024,-896 896,-896 896,-1152" /><polygon points="1024,-896 1024,-1152 896,-1152 896,-896" /><polygon points="896,-896 896,-1280 512,-1280 512,-896" /><polygon points="896,-1280 896,-896 512,-896 512,-1280" /><polygon points="-640,-415.143 -640,-191.143 -768,-191.143 -768,-415.143" /><polygon points="479.4286,-640 255.4286,-640 479.4286,-640" /><polygon points="479.4286,-640 703.4286,-640 703.4285,-416 479.4285,-416" /><polygon points="479.4285,32 479.4286,256 255.4286,256 255.4285,32" /><polygon points="479.4285,-192 479.4285,32 255.4285,32 255.4285,-192" /><polygon points="479.4285,-416 479.4285,-192 255.4285,-192 255.4285,-416" /><polygon points="960,768 736,768 736,768 960,768" /><polygon points="736,768 512,768 512,768 736,768" /><polygon points="512,768 288,768 288,768 512,768" /><polygon points="288,768 64,768 64,768 288,768" /><polygon points="64,768 -160,768 -160,768 64,768" /><polygon points="-160,768 -384,768 -384,768 -160,768" /><polygon points="608,768 768,768 768,768 608,768" /><polygon points="384,768 608,768 608,768 384,768" /><polygon points="384,768 384,768 320,768 320,768" /><polygon points="-672,768 -896,768 -896,768 -672,768" /><polygon points="1024,96 1024,320 1024,320 1024,96" /><polygon points="1024,320 1024,544 1024,544 1024,320" /><polygon points="1024,544 1024,768 1024,768 1024,544" /><polygon points="1024,-1152 1024,-1280 1024,-1280 1024,-1152" /><polygon points="1024,-1120 1024,-896 1024,-896 1024,-1120" /><polygon points="1024,-896 1024,-800 1024,-800" /><polygon points="1024,-800 1024,-576 1024,-576 1024,-768 1024,-800" /><polygon points="1024,-576 1024,-352 1024,-352 1024,-576" /><polygon points="1024,-352 1024,-128 1024,-128 1024,-352" /><polygon points="1024,-1152 1024,-1152 1024,-992 1024,-992" /><polygon points="-768,-1280 -896,-1280 -896,-1280 -768,-1280" /><polygon points="-768,-1280 -768,-1280 -896,-1280 -896,-1280" /><polygon points="512,-1280 480,-1280 480,-1280" /><polygon points="256,-1280 256,-1280 480,-1280 480,-1280" /><polygon points="-1024,-384 -1024,-384 -1024,-224 -1024,-224" /><polygon points="-1024,-352 -1024,-128 -1024,-128 -1024,-352" /><polygon points="-1024,128 -1024,128 -1024,192 -1024,192" /><polygon points="0,-1152 0,-1152 0,-1024 0,-1024" /><polygon points="1024,-640 1024,-640 992,-640 992,-640" /><polygon points="1024,-1280 1024,-1152 896,-1152 896,-1280" /><polygon points="1024,-896 1024,-768 832,-768 832,-896" /><polygon points="512,-1280 512,-1280 512,-1120 512,-1120" /><polygon points="960,-896 736,-896 736,-896 960,-896" /><polygon points="736,-896 512,-896 512,-896 736,-896" /><polygon points="896,-1152 896,-1152 896,-1280 896,-1280" /><polygon points="1024,-1152 1024,-1152 896,-1152 896,-1152" /><polygon points="512,-1216 512,-992 384,-992 384,-1216" /><polygon points="512,-992 512,-896 384,-768 384,-992" /><polygon points="768,-640 768,-640 768,-416 768,-416" /><polygon points="1008,-128 1024,-128 1024,-192 1008,-192" /><polygon points="1024,-192 1024,-416 1008,-416 1008,-192" /><polygon points="1024,-416 1024,-640 1008,-640 1008,-416" /><polygon points="896,-192 896,0 1008,0 1008,-192" /><polygon points="896,-416 896,-192 1008,-192 1008,-416" /><polygon points="1008,-640 896,-640 896,-416 1008,-416" /><polygon points="768,32 768,128 896,128 896,32" /><polygon points="768,-192 768,32 896,32 896,-192" /><polygon points="768,-416 768,-192 896,-192 896,-416" /><polygon points="896,-640 768,-640 768,-416 896,-416" /><polygon points="1024,128 992,128 992,256 1024,256" /><polygon points="992,128 768,128 768,256 992,256" /><polygon points="1024,0 896,0 896,128 1024,128" /><polygon points="1008,0 1024,0 1024,-128 1008,-128" /><polygon points="1008,-128 1008,-128 1024,-128 1024,-128" /><polygon points="1024,-128 1024,-128 1008,-128 1008,-128" /><polygon points="1024,0 1024,0 1008,0 1008,0" /><polygon points="1008,0 1008,0 1024,0 1024,0" /><polygon points="1008,0 1008,0 1008,-128 1008,-128" /><polygon points="1008,-128 1008,-128 1008,0 1008,0" /><polygon points="128,0 128,0 128,128 128,128" /><polygon points="128,128 128,128 0,128 0,128" /><polygon points="128,128 0,128 0,0 128,0" /><polygon points="768,256 768,256 768,320 768,320" /><polygon points="992,768 1024,768 1024,704 992,704" /><polygon points="1024,704 1024,480 992,480 992,704" /><polygon points="1024,480 1024,256 992,256 992,480" /><polygon points="768,704 768,768 992,768 992,704" /><polygon points="768,480 768,704 992,704 992,480" /><polygon points="768,256 768,480 992,480 992,256" /><polygon points="-1024,640 -1024,640 -896,640 -896,640" /><polygon points="-128,-1152 -128,-1152 0,-1152 0,-1152" /><polygon points="-768,384 -768,384 -640,384 -640,384" /><polygon points="-128,-1024 -128,-1024 -128,-1152 -128,-1152" /><polygon points="0,-1024 -128,-1024 -128,-1152 0,-1152" /><polygon points="-640,160 -640,384 -640,384 -640,160" /><polygon points="-640,-383.7143 -640,-512 -640,-512 -640,-352.2857 -640,-352.2857" /><polygon points="-192,128 -416,128 -416,128 -192,128" /><polygon points="-416,128 -640,128 -640,128 -416,128" /><polygon points="-384,128 -384,96 -416,96 -416,128" /><polygon points="-384,96 -384,-128 -416,-128 -416,96" /><polygon points="-640,96 -640,128 -416,128 -416,96" /><polygon points="-416,-128 -640,-128 -640,96 -416,96" /><polygon points="-128,0 -128,-128 -160,-128 -160,0" /><polygon points="-160,-128 -384,-128 -384,0 -160,0" /><polygon points="0,128 -128,128 -128,0 0,0" /><polygon points="-640,-128 -512,-128 -512,-288 -640,-288" /><polygon points="-512,-288 -512,-512 -640,-512 -640,-288" /><polygon points="-256,-384 -384,-384 -384,-512 -256,-512" /><polygon points="-256,-640 -384,-640 -384,-512 -256,-512" /><polygon points="-128,-128 -128,-160 -288,-160 -288,-128" /><polygon points="-128,-160 -128,-384 -288,-384 -288,-160" /><polygon points="-512,-160 -512,-128 -288,-128 -288,-160" /><polygon points="-288,-384 -512,-384 -512,-160 -288,-160" /><polygon points="-384,-384 -256,-384 -256,-384 -384,-384" /><polygon points="-128,-320 -128,-96 -128,-96 -128,-320" /><polygon points="-128,-96 -128,128 -128,128 -128,-96" /><polygon points="-128,-384 -128,-384 -288,-384 -288,-384" /><polygon points="-384,-640 -384,-640 -384,-512 -384,-512" /><polygon points="-128,-640 -128,-640 -128,-608 -128,-608" /><polygon points="-384,-512 -384,-512 -256,-512 -256,-512" /><polygon points="-512,-608 -512,-384 -512,-384 -512,-608" /><polygon points="-384,128 -384,128 -384,0 -384,0" /><polygon points="0,0 -160,0 -160,0 0,0" /><polygon points="-160,0 -384,0 -384,0 -160,0" /><polygon points="-640,-128 -640,-128 -768,-128 -768,-128" /><polygon points="-768,-128 -768,-128 -768,-64 -768,-64" /><polygon points="-768,320 -768,384 -640,384 -640,320" /><polygon points="-768,96 -768,320 -640,320 -640,96" /><polygon points="-640,-128 -768,-128 -768,96 -640,96" /><polygon points="-768,512 -768,512 -768,384 -768,384" /><polygon points="-1024,0 -1024,0 -1008,0 -1008,0" /><polygon points="-1008,0 -1008,0 -1024,0 -1024,0" /><polygon points="-1008,128 -1008,128 -1024,128 -1024,128" /><polygon points="-1024,128 -1024,128 -1008,128 -1008,128" /><polygon points="-1008,0 -1024,0 -1024,128 -1008,128" /><polygon points="-1008,128 -1024,128 -1024,0 -1008,0" /><polygon points="-1008,0 -1008,0 -1008,128 -1008,128" /><polygon points="-1008,128 -1008,128 -1008,0 -1008,0" /><polygon points="-896,640 -896,640 -896,768 -896,768" /><polygon points="-896,768 -1024,768 -1024,640 -896,640" /><polygon points="-384,1024 -384,1024 -384,784 -384,784" /><polygon points="-384,784 -512,784 -512,1024 -384,1024" /><polygon points="-384,768 -512,768 -512,784 -384,784" /><polygon points="-512,784 -512,784 -512,1024 -512,1024" /><polygon points="-256,128 -288,128 -288,256 -256,256" /><polygon points="-288,128 -512,128 -512,256 -288,256" /><polygon points="-288,256 -512,256 -512,256 -288,256" /><polygon points="-288,128 -256,128 -256,128 -288,128" /><polygon points="-384,784 -384,768 -384,768 -384,784" /><polygon points="-384,784 -512,784 -512,768 -384,768" /><polygon points="-512,768 -512,784 -512,784 -512,768" /><polygon points="-512,768 -512,768 -384,768 -384,768" /><polygon points="-512,784 -384,784 -384,784 -512,784" /><polygon points="-768,-352 -768,-128.2857 -768,-128 -768,-128 -768,-352" /><polygon points="384,768 384,768 320,768 320,768" /><polygon points="96,768 96,768 320,768 320,768" /><polygon points="-128,768 -128,768 96,768 96,768" /><polygon points="-352,768 -352,768 -128,768 -128,768" /><polygon points="-576,768 -576,768 -352,768 -352,768" /><polygon points="-800,768 -800,768 -576,768 -576,768" /><polygon points="-1024,768 -1024,768 -800,768 -800,768" /><polygon points="-896,-1280 -896,-1280 -768,-1280 -768,-1280" /><polygon points="256,-1280 256,-1280 192,-1280 192,-1280" /><polygon points="-32,-1280 -32,-1280 192,-1280 192,-1280" /><polygon points="-256,-1280 -256,-1280 -32,-1280 -32,-1280" /><polygon points="-1024,-1280 -1024,-1280 -1024,-1056 -1024,-1056" /><polygon points="-1024,-832 -1024,-832 -1024,-1056 -1024,-1056" /><polygon points="-1024,-608 -1024,-608 -1024,-832 -1024,-832" /><polygon points="-1024,-384 -1024,-384 -1024,-608 -1024,-608" /><polygon points="-1024,-384 -1024,-384 -1024,-352 -1024,-352" /><polygon points="-1024,-128 -1024,-128 -1024,-352 -1024,-352" /><polygon points="0,512 0,512 0,384 0,384" /><polygon points="256,512 256,512 384,512 384,512" /><polygon points="256,384 256,384 256,512 256,512" /><polygon points="384,384 384,384 256,384 256,384" /><polygon points="-128,384 -128,384 0,384 0,384" /><polygon points="1024,-1280 1024,-1280 1024,-1152 1024,-1152" /><polygon points="0,512 0,512 -128,512 -128,512" /><polygon points="-128,-896 -128,-896 -128,-1024 -128,-1024" /><polygon points="0,-896 0,-896 -128,-896 -128,-896" /><polygon points="-128,-1024 -128,-1024 0,-1024 0,-1024" /><polygon points="-640,-191.143 -640,-128 -768,-128 -768,-191.143" /><polygon points="703.4286,-640 479.4286,-640 479.4286,-640 703.4286,-640" /><polygon points="703.4286,-640 768,-640 768,-416 703.4285,-416" /><polygon points="703.4285,32 703.4286,256 479.4286,256 479.4285,32" /><polygon points="703.4285,-192 703.4285,32 479.4285,32 479.4285,-192" /><polygon points="703.4285,-416 703.4285,-192 479.4285,-192 479.4285,-416" /><polygon points="-576,-896 -800,-896 -800,-1008.2505 -576,-1008.2505" /><polygon points="-800,-896 -1024,-896 -911.7495,-1008.2505 -800,-1008.2505" /><polygon points="-512,-896 -399.7495,-783.7495 -576,-783.7495 -576,-896" /><polygon points="-1024,-896 -1024,-1008.2505 -911.7495,-1008.2505" /><polygon points="-1024,-896 -928,-992 -911.7494,-992 -911.7495,-783.7495" /><polygon points="1024,-768 1024,-640 1024,-640 1024,-768" /><polygon points="1024,-768 1024,-768 1024,-704 1024,-704" /><polygon points="1024,-256 1024,-256 1024,-128 1024,-128" /><polygon points="-320,-1280 -256,-1280 -256,-1280 -320,-1280" /><polygon points="-544,-1280 -320,-1280 -320,-1280 -544,-1280" /><polygon points="-768,-1280 -544,-1280 -544,-1280 -768,-1280" /><polygon points="992,-640 768,-640 768,-640 992,-640" /><polygon points="768,-416 768,-192 768,-192 768,-416" /><polygon points="768,-192 768,32 768,32 768,-192" /><polygon points="768,32 768,256 768,256 768,32" /><polygon points="1024,-256 1008,-256 1008,-416 1024,-416" /><polygon points="1008,-416 1008,-640 1024,-640 1024,-416" /><polygon points="1024,-256 1024,-128 1008,-128 1008,-256" /><polygon points="1008,-128 896,-128 896,-192 1008,-192" /><polygon points="896,-192 896,-416 1008,-416 1008,-192" /><polygon points="896,-416 896,-640 1008,-640 1008,-416" /><polygon points="896,32 896,128 768,128 768,32" /><polygon points="896,-192 896,32 768,32 768,-192" /><polygon points="896,-416 896,-192 768,-192 768,-416" /><polygon points="768,-640 896,-640 896,-416 768,-416" /><polygon points="1024,0 896,0 896,-128 1024,-128" /><polygon points="992,128 1024,128 1024,256 992,256" /><polygon points="768,128 992,128 992,256 768,256" /><polygon points="1024,128 896,128 896,0 1024,0" /><polygon points="384,512 384,512 384,544 384,544" /><polygon points="1024,480 1024,512 992,512 992,480" /><polygon points="1024,256 1024,480 992,480 992,256" /><polygon points="992,512 768,512 768,480 992,480" /><polygon points="768,480 768,256 992,256 992,480" /><polygon points="1024,640 894,640 894,512 1024,512" /><polygon points="1024,768 894,768 894,640 1024,640" /><polygon points="768,768 768,736 608,736 608,768" /><polygon points="768,736 768,512 608,512 608,736" /><polygon points="384,736 384,768 608,768 608,736" /><polygon points="608,512 384,512 384,736 608,736" /><polygon points="832,512 894,512 832,512" /><polygon points="608,512 832,512 832,512 608,512" /><polygon points="894,736 894,768 832,768 832,736" /><polygon points="768,320 768,544 768,544 768,320" /><polygon points="768,544 768,768 768,768 768,544" /><polygon points="-320,-1152 -544,-1152 -544,-1152 -320,-1152" /><polygon points="-544,-1152 -768,-1152 -768,-1152 -544,-1152" /><polygon points="-256,-1152 -256,-1280 -320,-1280 -320,-1152" /><polygon points="-320,-1280 -544,-1280 -544,-1152 -320,-1152" /><polygon points="-544,-1280 -768,-1280 -768,-1152 -544,-1152" /><polygon points="-640,128 -640,128 -640,160 -640,160" /><polygon points="-640,-352.2857 -640,-128.2857 -640,-352.2857" /><polygon points="-640,-128 -640,-128 -640,-128.2857" /><polygon points="-128,128 -128,128 -192,128 -192,128" /><polygon points="-512,-384 -640,-384 -640,-512 -512,-512" /><polygon points="-640,-512 -640,-512 -512,-512 -512,-512" /><polygon points="-128,-384 -128,-384 -128,-320 -128,-320" /><polygon points="-128,128 -256,128 -256,0 -128,0" /><polygon points="-256,64 -256,128 -416,128 -416,64" /><polygon points="-256,-160 -256,64 -416,64 -416,-160" /><polygon points="-416,-384 -256,-384 -256,-160 -416,-160" /><polygon points="-416,64 -416,128 -640,128 -640,64" /><polygon points="-416,-160 -416,64 -640,64 -640,-160" /><polygon points="-640,-384 -416,-384 -416,-160 -640,-160" /><polygon points="-128,-160 -128,0 -256,0 -256,-160" /><polygon points="-256,-384 -128,-384 -128,-160 -256,-160" /><polygon points="-640,320 -640,384 -768,384 -768,320" /><polygon points="-640,96 -640,320 -768,320 -768,96" /><polygon points="-768,-128 -640,-128 -640,96 -768,96" /><polygon points="-768,-64 -768,160 -768,160 -768,-64" /><polygon points="-768,160 -768,384 -768,384 -768,160" /><polygon points="-640,512 -768,512 -768,384 -640,384" /><polygon points="-768,384 -768,512 -768,512 -768,384" /><polygon points="-512,256 -512,256 -512,128 -512,128" /><polygon points="-256,128 -256,128 -256,256 -256,256" /><polygon points="-256,256 -288,256 -288,128 -256,128" /><polygon points="-288,256 -512,256 -512,128 -288,128" /><polygon points="-256,256 -256,256 -288,256 -288,256" /><polygon points="-512,128 -512,128 -288,128 -288,128" /><polygon points="-640,-128 -640,-128 -768,-128 -768,-128" /><polygon points="-768,-128 -768,-128 -768,-128.2857" /><polygon points="768,256 768,256 703.4286,256 703.4286,256" /><polygon points="768,-640 768,-640 768,-416 768,-416" /><polygon points="768,32 768,256 703.4286,256 703.4285,32" /><polygon points="768,-192 768,32 703.4285,32 703.4285,-192" /><polygon points="768,-416 768,-192 703.4285,-192 703.4285,-416" /><polygon points="832,512 894,512 894,736 832,736" /><polygon points="832,736 832,768 608,768 608,736" /><polygon points="384,384 384,384 384,512 384,512" /><polygon points="384,512 384,512 608,512 608,512" /><polygon points="832,768 832,768 894,768 1024,768 1024,768" /><polygon points="-896,-1280 -896,-1280 -1024,-1280 -1024,-1280" /><polygon points="-1024,-128 -1024,-128 -1024,96 -1024,96" /><polygon points="-1024,96 -1024,96 -1024,320 -1024,320" /><polygon points="-1024,320 -1024,320 -1024,544 -1024,544" /><polygon points="-1024,544 -1024,544 -1024,768 -1024,768" /><polygon points="-384,-384 -384,-384 -512,-384 -512,-384" /><polygon points="-128,-384 -128,-384 -256,-384 -256,-384" /><polygon points="-128,-640 -128,-640 -128,-608 -128,-608" /><polygon points="-128,-608 -128,-608 -128,-384 -128,-384" /><polygon points="-512,-512 -512,-512 -512,-640 -512,-640" /><polygon points="-512,-384 -512,-384 -512,-512 -512,-512" /><polygon points="1024,-1152 1024,-1152 1024,-992 1024,-992" /><polygon points="1024,-768 1024,-768 1024,-992 1024,-992" /><polygon points="0,-896 0,-896 0,-1024 0,-1024" /><polygon points="-384,-640 -384,-640 -256,-640 -256,-640" /><polygon points="-256,-640 -256,-640 -128,-640 -128,-640" /><polygon points="-512,-640 -512,-640 -384,-640 -384,-640" /><polygon points="-384,-512 -384,-512 -384,-384 -384,-384" /><polygon points="-256,-384 -256,-384 -256,-512 -256,-512" /><polygon points="-256,-512 -256,-512 -384,-512 -384,-512" /><polygon points="-128,512 -128,512 -128,384 -128,384" /><polygon points="1024,96 1024,96 1024,-128 1024,-128" /><polygon points="1024,320 1024,320 1024,96 1024,96" /><polygon points="1024,544 1024,544 1024,320 1024,320" /><polygon points="1024,768 1024,768 1024,544 1024,544" /><polygon points="512,-1280 512,-1280 480,-1280 480,-1280" /><polygon points="256,-1280 256,-1280 480,-1280 480,-1280" /><polygon points="896,-1280 896,-1280 736,-1280 736,-1280" /><polygon points="512,-1280 512,-1280 736,-1280 736,-1280" /><polygon points="1024,-1280 1024,-1280 896,-1280 896,-1280" /><polygon points="320,768 96,768 96,768 320,768" /><polygon points="96,768 -128,768 -128,768 96,768" /><polygon points="-128,768 -352,768 -352,768 -128,768" /><polygon points="-352,768 -576,768 -576,768 -352,768" /><polygon points="-576,768 -800,768 -800,768 -576,768" /><polygon points="-800,768 -1024,768 -1024,768 -800,768" /><polygon points="1024,-704 1024,-480 1024,-480 1024,-704" /><polygon points="1024,-480 1024,-256 1024,-256 1024,-480" /><polygon points="1024,-768 1024,-768 1024,-576 1024,-576" /><polygon points="-672,-1280 -896,-1280 -896,-1280 -672,-1280" /><polygon points="160,-1280 -64,-1280 -64,-1280 160,-1280" /><polygon points="-64,-1280 -288,-1280 -288,-1280 -64,-1280" /><polygon points="-288,-1280 -512,-1280 -512,-1280 -288,-1280" /><polygon points="256,-1280 256,-1280 192,-1280 192,-1280" /><polygon points="-1024,-1184 -1024,-960 -1024,-960 -1024,-1184" /><polygon points="-1024,-960 -1024,-736 -1024,-736 -1024,-960" /><polygon points="-1024,-736 -1024,-512 -1024,-512 -1024,-736" /><polygon points="-1024,-128 -1024,-128 -1024,-352 -1024,-352" /><polygon points="-1024,-1280 -1024,-1280 -1024,-1056 -1024,-1056" /><polygon points="-1024,-384 -1024,-384 -1024,-352 -1024,-352" /><polygon points="0,640 0,512 0,512 0,640" /><polygon points="1024,-256 1024,-256 1008,-256 1008,-256" /><polygon points="1008,-256 1008,-256 1024,-256 1024,-256" /><polygon points="1024,-128 1024,-128 1008,-128 1008,-128" /><polygon points="1008,-128 1008,-128 1024,-128 1024,-128" /><polygon points="1024,-128 1008,-128 1008,-256 1024,-256" /><polygon points="1024,-256 1008,-256 1008,-128 1024,-128" /><polygon points="1008,-256 1008,-256 1008,-128 1008,-128" /><polygon points="1008,-128 1008,-128 1008,-256 1008,-256" /><polygon points="384,544 384,768 384,768 384,544" /><polygon points="256,512 256,384 224,384 224,512" /><polygon points="224,384 0,384 0,512 224,512" /><polygon points="384,384 384,384 224,384 224,384" /><polygon points="384,768 384,736 224,736 224,768" /><polygon points="384,736 384,512 224,512 224,736" /><polygon points="0,736 0,768 224,768 224,736" /><polygon points="224,512 0,512 0,736 224,736" /><polygon points="-256,-1152 -256,-1152 -320,-1152 -320,-1152" /><polygon points="-256,-1280 -256,-1280 -256,-1152 -256,-1152" /><polygon points="-640,-1152 -768,-1152 -768,-1280 -640,-1280" /><polygon points="-384,-1280 -384,-1152 -416,-1152 -416,-1280" /><polygon points="-416,-1152 -640,-1152 -640,-1280 -416,-1280" /><polygon points="-256,-1152 -384,-1152 -384,-1280 -256,-1280" /><polygon points="-768,-1152 -768,-1152 -768,-1280 -768,-1280" /><polygon points="0,640 -128,640 -128,768 0,768" /><polygon points="384,256 352,256 352,384 384,384" /><polygon points="352,256 128,256 128,384 352,384" /><polygon points="352,384 128,384 128,384 352,384" /><polygon points="352,256 384,256 384,256 352,256" /><polygon points="608,512 832,512 832,736 608,736" /><polygon points="-128,384 -128,384 0,384 0,384" /><polygon points="1024,-1280 1024,-1280 1024,-1152 1024,-1152" /><polygon points="1024,-768 1024,-768 1024,-576 1024,-576" /><polygon points="1024,-352 1024,-352 1024,-576 1024,-576" /><polygon points="1024,-128 1024,-128 1024,-352 1024,-352" /><polygon points="0,512 0,512 -128,512 -128,512" /><polygon points="-128,-896 -128,-896 -128,-1024 -128,-1024" /><polygon points="0,-896 0,-896 -128,-896 -128,-896" /><polygon points="-128,-1024 -128,-1024 0,-1024 0,-1024" /><polygon points="384,512 384,384 384,384 384,512" /><polygon points="384,544 384,768 384,768 384,544" /><polygon points="384,512 384,512 608,512 608,512" /><polygon points="384,768 384,736 608,736 608,768" /><polygon points="384,736 384,512 608,512 608,736" /><polygon points="1024,768 1024,768 896,768 896,768" /><polygon points="1024,768 832,768 832,768 1024,768" /><polygon points="832,768 608,768 608,768 832,768" /><polygon points="608,768 384,768 384,768 608,768" /><polygon points="-128,768 0,768 0,768 -128,768" /><polygon points="-1024,-1280 -896,-1280 -896,-1280 -1024,-1280" /><polygon points="-224,-1280 -448,-1280 -448,-1280 -224,-1280" /><polygon points="-448,-1280 -672,-1280 -672,-1280 -448,-1280" /><polygon points="-672,-1280 -896,-1280 -896,-1280 -672,-1280" /><polygon points="-512,-1280 -512,-1280 -640,-1280 -640,-1280" /><polygon points="-640,-1280 -640,-1280 -672,-1280 -672,-1280" /><polygon points="0,-1280 -128,-1280 -128,-1280 0,-1280" /><polygon points="256,-1280 256,-1280 160,-1280 160,-1280" /><polygon points="-1024,-1280 -1024,-1280 -1024,-1184 -1024,-1184" /><polygon points="-1024,-32 -1024,192 -1024,192 -1024,-32" /><polygon points="-1024,192 -1024,416 -1024,416 -1024,192" /><polygon points="-1024,416 -1024,640 -1024,640 -1024,416" /><polygon points="-1024,640 -1024,768 -1024,768 -1024,640" /><polygon points="-1024,96 -1024,-128 -1024,-128 -1024,96" /><polygon points="-1024,320 -1024,96 -1024,96 -1024,320" /><polygon points="-1024,544 -1024,320 -1024,320 -1024,544" /><polygon points="-1024,768 -1024,544 -1024,544 -1024,768" /><polygon points="0,-352 0,-128 0,-128 0,-352" /><polygon points="0,384 0,512 0,512 0,384" /><polygon points="384,608 384,768 224,768 224,608" /><polygon points="384,384 384,608 224,608 224,384" /><polygon points="224,768 0,768 0,608 224,608" /><polygon points="0,608 0,384 224,384 224,608" /><polygon points="384,384 384,384 384,544 384,544" /><polygon points="224,384 0,384 0,384 224,384" /><polygon points="-128,640 -128,640 0,640 0,640" /><polygon points="-896,-1280 -1024,-1280 -1024,-1152 -896,-1152" /><polygon points="-1024,-704 -1024,-640 -896,-640 -896,-704" /><polygon points="-1024,-928 -1024,-704 -896,-704 -896,-928" /><polygon points="-1024,-1152 -1024,-928 -896,-928 -896,-1152" /><polygon points="-896,-1152 -896,-1088 -896,-1088 -896,-1152" /><polygon points="-896,-1088 -896,-864 -896,-864 -896,-1088" /><polygon points="-896,-864 -896,-640 -896,-640 -896,-864" /><polygon points="-384,-384 -256,-384 -256,-384 -384,-384" /><polygon points="-512,-384 -384,-384 -384,-384 -512,-384" /><polygon points="-256,-384 -128,-384 -128,-384 -256,-384" /><polygon points="0,-512 -128,-512 -128,-384 0,-384" /><polygon points="-128,-608 -128,-640 -128,-640 -128,-608" /><polygon points="-128,-384 -128,-608 -128,-608 -128,-384" /><polygon points="-512,-640 -512,-512 -512,-512 -512,-640" /><polygon points="-512,-512 -512,-384 -512,-384 -512,-512" /><polygon points="-512,-640 -512,-640 -512,-608 -512,-608" /><polygon points="0,-128 0,-160 -64,-160 -64,-128" /><polygon points="0,-160 0,-384 -64,-384 -64,-160" /><polygon points="-288,-160 -288,-128 -64,-128 -64,-160" /><polygon points="-64,-384 -288,-384 -288,-160 -64,-160" /><polygon points="-512,-160 -512,-128 -288,-128 -288,-160" /><polygon points="-288,-384 -512,-384 -512,-160 -288,-160" /><polygon points="-64,-128 -288,-128 -288,-128 -64,-128" /><polygon points="-288,-128 -512,-128 -512,-128 -288,-128" /><polygon points="-1024,-640 -1024,-512 -896,-512 -896,-640" /><polygon points="-896,-640 -896,-512 -896,-512 -896,-640" /><polygon points="-128,768 -128,768 -128,640 -128,640" /><polygon points="0,768 -128,768 -128,640 0,640" /><polygon points="-256,-512 -384,-512 -384,-384 -256,-384" /><polygon points="384,256 384,256 384,384 384,384" /><polygon points="128,384 128,384 128,256 128,256" /><polygon points="384,384 384,384 352,384 352,384" /><polygon points="384,384 352,384 352,256 384,256" /><polygon points="352,384 128,384 128,256 352,256" /><polygon points="128,256 128,256 352,256 352,256" /><polygon points="1024,-1152 1024,-1152 1024,-992 1024,-992" /><polygon points="1024,-768 1024,-768 1024,-992 1024,-992" /><polygon points="-1024,-512 -1024,-512 -1024,-352 -1024,-352" /><polygon points="-1024,-128 -1024,-128 -1024,-352 -1024,-352" /><polygon points="-1024,-128 -1024,-128 -1024,-32 -1024,-32" /><polygon points="-1024,192 -1024,192 -1024,-32 -1024,-32" /><polygon points="-1024,416 -1024,416 -1024,192 -1024,192" /><polygon points="-1024,640 -1024,640 -1024,416 -1024,416" /><polygon points="0,-896 0,-896 0,-1024 0,-1024" /><polygon points="-384,-640 -384,-640 -256,-640 -256,-640" /><polygon points="-256,-640 -256,-640 -128,-640 -128,-640" /><polygon points="-512,-640 -512,-640 -384,-640 -384,-640" /><polygon points="-384,-512 -384,-512 -384,-384 -384,-384" /><polygon points="-256,-384 -256,-384 -256,-512 -256,-512" /><polygon points="-256,-512 -256,-512 -384,-512 -384,-512" /><polygon points="-128,512 -128,512 -128,384 -128,384" /><polygon points="1024,768 1024,768 896,768 896,768" /><polygon points="672,768 672,768 896,768 896,768" /><polygon points="448,768 448,768 672,768 672,768" /><polygon points="224,768 224,768 448,768 448,768" /><polygon points="0,768 0,768 224,768 224,768" /><polygon points="-352,768 -352,768 -128,768 -128,768" /><polygon points="-576,768 -576,768 -352,768 -352,768" /><polygon points="-800,768 -800,768 -576,768 -576,768" /><polygon points="-1024,768 -1024,768 -800,768 -800,768" /><polygon points="1024,96 1024,96 1024,-128 1024,-128" /><polygon points="1024,320 1024,320 1024,96 1024,96" /><polygon points="1024,544 1024,544 1024,320 1024,320" /><polygon points="1024,768 1024,768 1024,544 1024,544" /><polygon points="256,-1280 256,-1280 224,-1280 224,-1280" /><polygon points="224,-1280 224,-1280 0,-1280 0,-1280" /><polygon points="512,-1280 512,-1280 480,-1280 480,-1280" /><polygon points="256,-1280 256,-1280 480,-1280 480,-1280" /><polygon points="896,-1280 896,-1280 736,-1280 736,-1280" /><polygon points="512,-1280 512,-1280 736,-1280 736,-1280" /><polygon points="1024,-1280 1024,-1280 896,-1280 896,-1280" /><polygon points="-1024,768 -1024,768 -1024,640 -1024,640" /><polygon points="-352,-1280 -576,-1280 -576,-1280 -352,-1280" /><polygon points="-576,-1280 -800,-1280 -800,-1280 -576,-1280" /><polygon points="-800,-1280 -1024,-1280 -1024,-1280 -800,-1280" /><polygon points="-128,-1280 -128,-1280 -224,-1280 -224,-1280" /><polygon points="-1024,-1088 -1024,-864 -1024,-864 -1024,-1088" /><polygon points="-1024,-864 -1024,-640 -1024,-640 -1024,-864" /><polygon points="0,-512 0,-512 0,-352 0,-352" /><polygon points="-896,-1280 -896,-1280 -896,-1152 -896,-1152" /><polygon points="-896,-1152 -1024,-1152 -1024,-1280 -896,-1280" /><polygon points="0,384 -128,384 -128,384 0,384" /><polygon points="-896,-704 -896,-640 -1024,-640 -1024,-704" /><polygon points="-896,-928 -896,-704 -1024,-704 -1024,-928" /><polygon points="-1024,-1152 -896,-1152 -896,-928 -1024,-928" /><polygon points="0,-384 -128,-384 -128,-512 0,-512" /><polygon points="-128,-608 -128,-384 -128,-384 -128,-608" /><polygon points="-128,-512 -128,-512 0,-512 0,-512" /><polygon points="-128,-640 -128,-640 -128,-512 -128,-512" /><polygon points="-512,-608 -512,-384 -512,-384 -512,-608" /><polygon points="-512,-640 -512,-640 -512,-608 -512,-608" /><polygon points="-512,-384 -512,-352 -512,-352 -512,-384" /><polygon points="-512,-352 -512,-128 -512,-128 -512,-352" /><polygon points="0,-256 -128,-256 -128,-384 0,-384" /><polygon points="0,-128 -128,-128 -128,-256 0,-256" /><polygon points="-128,-160 -128,-128 -288,-128 -288,-160" /><polygon points="-128,-384 -128,-160 -288,-160 -288,-384" /><polygon points="-288,-128 -512,-128 -512,-160 -288,-160" /><polygon points="-512,-160 -512,-384 -288,-384 -288,-160" /><polygon points="0,-128 0,-128 -64,-128 -64,-128" /><polygon points="0,256 -128,256 -128,384 0,384" /><polygon points="-896,-512 -896,-512 -1024,-512 -1024,-512" /><polygon points="-896,-640 -896,-512 -1024,-512 -1024,-640" /><polygon points="-256,-512 -256,-512 -256,-384 -256,-384" /><polygon points="-384,-512 -384,-512 -256,-512 -256,-512" /><polygon points="-384,-384 -384,-384 -384,-512 -384,-512" /><polygon points="-256,-384 -256,-384 -384,-384 -384,-384" /><polygon points="-256,-384 -384,-384 -384,-512 -256,-512" /><polygon points="0,768 0,768 -128,768 -128,768" /><polygon points="1024,-1280 1024,-1280 1024,-1152 1024,-1152" /><polygon points="1024,-768 1024,-768 1024,-576 1024,-576" /><polygon points="1024,-352 1024,-352 1024,-576 1024,-576" /><polygon points="1024,-128 1024,-128 1024,-352 1024,-352" /><polygon points="-128,-1280 -128,-1280 0,-1280 0,-1280" /><polygon points="-1024,-1280 -1024,-1280 -1024,-1088 -1024,-1088" /><polygon points="-1024,-864 -1024,-864 -1024,-1088 -1024,-1088" /><polygon points="-1024,-640 -1024,-640 -1024,-864 -1024,-864" /><polygon points="0,512 0,512 0,384 0,384" /><polygon points="0,512 0,512 -128,512 -128,512" /><polygon points="-128,-896 -128,-896 -128,-1024 -128,-1024" /><polygon points="0,-896 0,-896 -128,-896 -128,-896" /><polygon points="-128,-1024 -128,-1024 0,-1024 0,-1024" /><polygon points="1024,-992 1024,-768 1024,-768 1024,-992" /><polygon points="-1024,-608 -1024,-384 -1024,-384 -1024,-608" /><polygon points="-1024,-512 -1024,-640 -1024,-640 -1024,-512" /><polygon points="-1024,-352 -1024,-512 -1024,-512 -1024,-352" /><polygon points="-1024,-128 -1024,-128 -1024,-32 -1024,-32" /><polygon points="0,256 0,256 0,384 0,384" /><polygon points="1024,-896 1024,-1024 960,-1024 960,-896" /><polygon points="960,-1024 736,-1024 736,-896 960,-896" /><polygon points="736,-1024 512,-1024 512,-896 736,-896" /><polygon points="1024,-768 1024,-896 896,-896 896,-768" /><polygon points="1024,-1024 1024,-1152 896,-1152 896,-1024" /><polygon points="384,-896 512,-896 512,-928 384,-928" /><polygon points="512,-928 512,-1152 384,-1152 384,-928" /><polygon points="384,-896 384,-1024 224,-1024 224,-896" /><polygon points="224,-1024 0,-1024 0,-896 224,-896" /><polygon points="1024,-1152 1024,-1152 896,-1152 896,-1152" /><polygon points="384,-1024 384,-1024 224,-1024 224,-1024" /><polygon points="896,-1024 896,-1024 736,-1024 736,-1024" /><polygon points="672,-896 448,-896 448,-896 672,-896" /><polygon points="448,-896 224,-896 224,-896 448,-896" /><polygon points="224,-896 0,-896 0,-896 224,-896" /><polygon points="-224,512 -448,512 -448,512 -224,512" /><polygon points="-448,512 -672,512 -672,512 -448,512" /><polygon points="-672,512 -896,512 -896,512 -672,512" /><polygon points="0,384 0,384 -224,384 -224,384" /><polygon points="-256,-640 -384,-640 -384,-640 -256,-640" /><polygon points="-128,-640 -256,-640 -256,-640 -128,-640" /><polygon points="-384,-640 -512,-640 -512,-640 -384,-640" /><polygon points="0,384 -128,384 -128,256 0,256" /><polygon points="-1024,192 -1024,384 -896,384 -896,192" /><polygon points="-1024,-32 -1024,192 -896,192 -896,-32" /><polygon points="-896,-256 -1024,-256 -1024,-32 -896,-32" /><polygon points="-256,-512 -384,-512 -384,-640 -256,-640" /><polygon points="-512,-512 -512,-640 -384,-640 -384,-512" /><polygon points="-256,-512 -256,-640 -128,-640 -128,-512" /><polygon points="-384,-384 -256,-384 -256,-512 -384,-512" /><polygon points="-128,-256 -128,-384 -352,-384 -352,-256" /><polygon points="-352,-384 -576,-384 -576,-256 -352,-256" /><polygon points="-576,-384 -800,-384 -800,-256 -576,-256" /><polygon points="-800,-384 -1024,-384 -1024,-256 -800,-256" /><polygon points="-224,-256 -448,-256 -448,-256 -224,-256" /><polygon points="-448,-256 -672,-256 -672,-256 -448,-256" /><polygon points="-672,-256 -896,-256 -896,-256 -672,-256" /><polygon points="-128,-512 -128,-480 -128,-480" /><polygon points="-128,-480 -128,-256 -128,-256 -128,-384 -128,-480" /><polygon points="-128,-512 -128,-384 -288,-384 -288,-512" /><polygon points="-512,-384 -512,-384 -576,-384 -576,-384" /><polygon points="-896,-64 -896,160 -896,160 -896,-64" /><polygon points="-896,160 -896,384 -896,384 -896,160" /><polygon points="-128,-384 -128,-384 -256,-384 -256,-384" /><polygon points="-384,-384 -384,-384 -512,-384 -512,-384" /><polygon points="-384,-384 -384,-512 -384,-512 -384,-384" /><polygon points="-256,-512 -256,-384 -256,-384 -256,-512" /><polygon points="-128,-640 -128,-640 -128,-608 -128,-608" /><polygon points="-384,-512 -256,-512 -256,-512 -384,-512" /><polygon points="-512,-608 -512,-384 -512,-384 -512,-608" /><polygon points="-128,256 -128,256 0,256 0,256" /><polygon points="-128,384 -128,384 -128,256 -128,256" /><polygon points="-128,384 -128,512 -128,512 -128,384" /><polygon points="-128,512 -128,384 -224,384 -224,512" /><polygon points="-224,384 -448,384 -448,512 -224,512" /><polygon points="-448,384 -672,384 -672,512 -448,512" /><polygon points="-672,384 -896,384 -896,512 -672,512" /><polygon points="-1024,384 -1024,512 -896,512 -896,384" /><polygon points="-1024,512 -1024,640 -896,640 -896,512" /><polygon points="-896,-512 -1024,-512 -1024,-384 -896,-384" /><polygon points="1024,768 1024,768 896,768 896,768" /><polygon points="672,768 672,768 896,768 896,768" /><polygon points="448,768 448,768 672,768 672,768" /><polygon points="224,768 224,768 448,768 448,768" /><polygon points="0,768 0,768 224,768 224,768" /><polygon points="-352,768 -352,768 -128,768 -128,768" /><polygon points="-576,768 -576,768 -352,768 -352,768" /><polygon points="-800,768 -800,768 -576,768 -576,768" /><polygon points="-1024,768 -1024,768 -800,768 -800,768" /><polygon points="1024,96 1024,96 1024,-128 1024,-128" /><polygon points="1024,320 1024,320 1024,96 1024,96" /><polygon points="1024,544 1024,544 1024,320 1024,320" /><polygon points="1024,768 1024,768 1024,544 1024,544" /><polygon points="-128,-1280 -128,-1280 -352,-1280 -352,-1280" /><polygon points="-576,-1280 -576,-1280 -352,-1280 -352,-1280" /><polygon points="-800,-1280 -800,-1280 -576,-1280 -576,-1280" /><polygon points="-1024,-1280 -1024,-1280 -800,-1280 -800,-1280" /><polygon points="256,-1280 256,-1280 224,-1280 224,-1280" /><polygon points="224,-1280 224,-1280 0,-1280 0,-1280" /><polygon points="512,-1280 512,-1280 480,-1280 480,-1280" /><polygon points="256,-1280 256,-1280 480,-1280 480,-1280" /><polygon points="896,-1280 896,-1280 736,-1280 736,-1280" /><polygon points="512,-1280 512,-1280 736,-1280 736,-1280" /><polygon points="1024,-1280 1024,-1280 896,-1280 896,-1280" /><polygon points="-1024,768 -1024,768 -1024,640 -1024,640" /><polygon points="1024,-1280 1024,-1280 1024,-1248 1024,-1248" /><polygon points="1024,-576 1024,-352 1024,-352 1024,-576" /><polygon points="1024,-352 1024,-128 1024,-128 1024,-352" /><polygon points="-1024,-1152 -1024,-928 -1024,-928 -1024,-1152" /><polygon points="-1024,-928 -1024,-704 -1024,-704 -1024,-928" /><polygon points="-1024,-704 -1024,-480 -1024,-480 -1024,-704" /><polygon points="-1024,-480 -1024,-256 -1024,-256 -1024,-480" /><polygon points="-1024,-256 -1024,-32 -1024,-32 -1024,-256" /><polygon points="-1024,-32 -1024,192 -1024,192 -1024,-32" /><polygon points="-1024,192 -1024,416 -1024,416 -1024,192" /><polygon points="-1024,416 -1024,640 -1024,640 -1024,416" /><polygon points="-1024,-1280 -1024,-1280 -1024,-1088 -1024,-1088" /><polygon points="-1024,-640 -1024,-640 -1024,-608 -1024,-608" /><polygon points="1024,-1152 1024,-1024 896,-1024 896,-1152" /><polygon points="1024,-1024 1024,-896 800,-896 800,-1024" /><polygon points="800,-896 576,-896 576,-1024 800,-1024" /><polygon points="576,-896 352,-896 352,-1024 576,-1024" /><polygon points="352,-896 128,-896 128,-1024 352,-1024" /><polygon points="1024,-896 1024,-768 896,-768 896,-896" /><polygon points="512,-1024 384,-1024 384,-1152 512,-1152" /><polygon points="128,-896 0,-896 0,-1024 128,-1024" /><polygon points="-128,-1024 0,-1024 0,-1056 -128,-1056" /><polygon points="0,-1056 0,-1280 -128,-1280 -128,-1056" /><polygon points="-128,224 -128,384 0,384 0,224" /><polygon points="-128,0 -128,224 0,224 0,0" /><polygon points="-128,-224 -128,0 0,0 0,-224" /><polygon points="-128,-448 -128,-224 0,-224 0,-448" /><polygon points="-128,-672 -128,-448 0,-448 0,-672" /><polygon points="0,-896 -128,-896 -128,-672 0,-672" /><polygon points="-256,-256 -384,-256 -384,-384 -256,-384" /><polygon points="-384,-256 -512,-256 -512,-384 -384,-384" /><polygon points="-128,-256 -256,-256 -256,-384 -128,-384" /><polygon points="-512,-384 -512,-256 -672,-256 -672,-384" /><polygon points="-672,-256 -896,-256 -896,-384 -672,-384" /><polygon points="-896,288 -896,512 -1024,512 -1024,288" /><polygon points="-896,64 -896,288 -1024,288 -1024,64" /><polygon points="-896,-160 -896,64 -1024,64 -1024,-160" /><polygon points="-1024,-384 -896,-384 -896,-160 -1024,-160" /><polygon points="-128,768 0,768 0,736 -128,736" /><polygon points="0,736 0,512 -128,512 -128,736" /><polygon points="-512,384 -512,512 -672,512 -672,384" /><polygon points="-672,512 -896,512 -896,384 -672,384" /><polygon points="-384,512 -512,512 -512,384 -384,384" /><polygon points="-128,512 -256,512 -256,384 -128,384" /><polygon points="-256,512 -384,512 -384,384 -256,384" /><polygon points="-896,640 -1024,640 -1024,512 -896,512" /><polygon points="0,-1248 0,-1024 0,-1024 0,-1248" /><polygon points="0,-1024 0,-800 0,-800 0,-1024" /><polygon points="0,-800 0,-576 0,-576 0,-800" /><polygon points="0,-576 0,-352 0,-352 0,-576" /><polygon points="0,-352 0,-128 0,-128 0,-352" /><polygon points="0,-128 0,96 0,96 0,-128" /><polygon points="0,96 0,320 0,320 0,96" /><polygon points="0,320 0,544 0,544 0,320" /><polygon points="0,544 0,768 0,768 0,544" /><polygon points="-128,-1280 -128,-1280 -128,-1248 -128,-1248" /><polygon points="896,-1024 896,-1024 896,-1152 896,-1152" /><polygon points="896,-768 896,-768 896,-896 896,-896" /><polygon points="1024,-768 1024,-768 896,-768 896,-768" /><polygon points="224,-1024 0,-1024 0,-1024 224,-1024" /><polygon points="736,-1024 512,-1024 512,-1024 736,-1024" /><polygon points="512,-1152 512,-1152 512,-1024 512,-1024" /><polygon points="384,-1024 384,-1024 384,-1152 384,-1152" /><polygon points="384,-1152 384,-1152 512,-1152 512,-1152" /><polygon points="896,-896 896,-896 672,-896 672,-896" /><polygon points="-896,640 -896,640 -1024,640 -1024,640" /><polygon points="-128,512 0,512 0,512 -128,512" /><polygon points="-128,512 -128,512 -224,512 -224,512" /><polygon points="-224,384 -448,384 -448,384 -224,384" /><polygon points="-448,384 -672,384 -672,384 -448,384" /><polygon points="-672,384 -896,384 -896,384 -672,384" /><polygon points="-128,-1024 -128,-896 -128,-896 -128,-1024" /><polygon points="-128,-896 0,-896 0,-896 -128,-896" /><polygon points="0,-1024 -128,-1024 -128,-1024 0,-1024" /><polygon points="-128,-256 -128,-256 -224,-256 -224,-256" /><polygon points="-512,-384 -512,-384 -512,-512" /><polygon points="-288,-384 -512,-384 -512,-512 -288,-512" /><polygon points="-576,-384 -800,-384 -800,-384 -576,-384" /><polygon points="-800,-384 -1024,-384 -1024,-384 -800,-384" /><polygon points="-896,-256 -896,-256 -896,-64 -896,-64" /><polygon points="-896,512 -896,512 -896,640 -896,640" /><polygon points="-1024,-512 -1024,-512 -896,-512 -896,-512" /><polygon points="-896,-512 -896,-512 -896,-384 -896,-384" /><polygon points="-896,-384 -896,-384 -1024,-384 -1024,-384" /><polygon points="-1024,-384 -1024,-384 -1024,-512 -1024,-512" /><polygon points="-896,-384 -1024,-384 -1024,-512 -896,-512" /><polygon points="8,-992 0,-992 0,-928 8,-928" /><polygon points="8,-928 0,-928 0,-992 8,-992" /><polygon points="0,-992 0,-992 8,-992 8,-992" /><polygon points="8,-928 8,-928 0,-928 0,-928" /><polygon points="0,-928 0,-928 0,-992 0,-992" /><polygon points="8,-992 8,-992 8,-928 8,-928" /><polygon points="896,768 672,768 672,768 896,768" /><polygon points="672,768 448,768 448,768 672,768" /><polygon points="448,768 224,768 224,768 448,768" /><polygon points="224,768 0,768 0,768 224,768" /><polygon points="-128,768 -352,768 -352,768 -128,768" /><polygon points="-352,768 -576,768 -576,768 -352,768" /><polygon points="-576,768 -800,768 -800,768 -576,768" /><polygon points="-800,768 -1024,768 -1024,768 -800,768" /><polygon points="1024,-128 1024,96 1024,96 1024,-128" /><polygon points="1024,96 1024,320 1024,320 1024,96" /><polygon points="1024,320 1024,544 1024,544 1024,320" /><polygon points="1024,544 1024,768 1024,768 1024,544" /><polygon points="1024,-1248 1024,-1024 1024,-1024 1024,-1248" /><polygon points="1024,-1024 1024,-800 1024,-800 1024,-1024" /><polygon points="1024,-800 1024,-576 1024,-576 1024,-800" /><polygon points="1024,-576 1024,-352 1024,-352 1024,-576" /><polygon points="1024,-352 1024,-128 1024,-128 1024,-352" /><polygon points="-128,-1280 -128,-1280 -352,-1280 -352,-1280" /><polygon points="224,-1280 256,-1280 256,-1280 224,-1280" /><polygon points="0,-1280 224,-1280 224,-1280 0,-1280" /><polygon points="512,-1280 512,-1280 480,-1280 480,-1280" /><polygon points="896,-1280 896,-1280 736,-1280 736,-1280" /><polygon points="1024,-1280 1024,-1280 896,-1280 896,-1280" /><polygon points="-1024,-1280 -1024,-1280 -1024,-1152 -1024,-1152" /><polygon points="0,-1280 0,-1280 0,-1248 0,-1248" /><polygon points="896,736 896,768 1024,768 1024,736" /><polygon points="896,512 896,736 1024,736 1024,512" /><polygon points="896,288 896,512 1024,512 1024,288" /><polygon points="896,64 896,288 1024,288 1024,64" /><polygon points="896,-160 896,64 1024,64 1024,-160" /><polygon points="896,-384 896,-160 1024,-160 1024,-384" /><polygon points="896,-608 896,-384 1024,-384 1024,-608" /><polygon points="896,-832 896,-608 1024,-608 1024,-832" /><polygon points="896,-1056 896,-832 1024,-832 1024,-1056" /><polygon points="1024,-1280 896,-1280 896,-1056 1024,-1056" /><polygon points="672,736 672,768 896,768 896,736" /><polygon points="672,512 672,736 896,736 896,512" /><polygon points="672,288 672,512 896,512 896,288" /><polygon points="672,64 672,288 896,288 896,64" /><polygon points="672,-160 672,64 896,64 896,-160" /><polygon points="672,-384 672,-160 896,-160 896,-384" /><polygon points="672,-608 672,-384 896,-384 896,-608" /><polygon points="672,-832 672,-608 896,-608 896,-832" /><polygon points="672,-1056 672,-832 896,-832 896,-1056" /><polygon points="896,-1280 672,-1280 672,-1056 896,-1056" /><polygon points="448,736 448,768 672,768 672,736" /><polygon points="448,512 448,736 672,736 672,512" /><polygon points="448,288 448,512 672,512 672,288" /><polygon points="448,64 448,288 672,288 672,64" /><polygon points="448,-160 448,64 672,64 672,-160" /><polygon points="448,-384 448,-160 672,-160 672,-384" /><polygon points="448,-608 448,-384 672,-384 672,-608" /><polygon points="448,-832 448,-608 672,-608 672,-832" /><polygon points="448,-1056 448,-832 672,-832 672,-1056" /><polygon points="672,-1280 448,-1280 448,-1056 672,-1056" /><polygon points="224,736 224,768 448,768 448,736" /><polygon points="224,512 224,736 448,736 448,512" /><polygon points="224,288 224,512 448,512 448,288" /><polygon points="224,64 224,288 448,288 448,64" /><polygon points="224,-160 224,64 448,64 448,-160" /><polygon points="224,-384 224,-160 448,-160 448,-384" /><polygon points="224,-608 224,-384 448,-384 448,-608" /><polygon points="224,-832 224,-608 448,-608 448,-832" /><polygon points="224,-1056 224,-832 448,-832 448,-1056" /><polygon points="448,-1280 224,-1280 224,-1056 448,-1056" /><polygon points="0,736 0,768 224,768 224,736" /><polygon points="0,512 0,736 224,736 224,512" /><polygon points="0,288 0,512 224,512 224,288" /><polygon points="0,64 0,288 224,288 224,64" /><polygon points="0,-160 0,64 224,64 224,-160" /><polygon points="0,-384 0,-160 224,-160 224,-384" /><polygon points="0,-608 0,-384 224,-384 224,-608" /><polygon points="0,-832 0,-608 224,-608 224,-832" /><polygon points="0,-1056 0,-832 224,-832 224,-1056" /><polygon points="224,-1280 0,-1280 0,-1056 224,-1056" /><polygon points="-128,-1248 -128,-1024 -128,-1024 -128,-1248" /><polygon points="-128,-1024 -128,-800 -128,-800 -128,-1024" /><polygon points="-128,-800 -128,-576 -128,-576 -128,-800" /><polygon points="-128,-576 -128,-352 -128,-352 -128,-576" /><polygon points="-128,-352 -128,-128 -128,-128 -128,-352" /><polygon points="-128,-128 -128,96 -128,96 -128,-128" /><polygon points="-128,96 -128,320 -128,320 -128,96" /><polygon points="-128,320 -128,544 -128,544 -128,320" /><polygon points="-128,544 -128,768 -128,768 -128,544" /><polygon points="-352,736 -352,768 -128,768 -128,736" /><polygon points="-352,512 -352,736 -128,736 -128,512" /><polygon points="-352,288 -352,512 -128,512 -128,288" /><polygon points="-352,64 -352,288 -128,288 -128,64" /><polygon points="-352,-160 -352,64 -128,64 -128,-160" /><polygon points="-352,-384 -352,-160 -128,-160 -128,-384" /><polygon points="-352,-608 -352,-384 -128,-384 -128,-608" /><polygon points="-352,-832 -352,-608 -128,-608 -128,-832" /><polygon points="-352,-1056 -352,-832 -128,-832 -128,-1056" /><polygon points="-128,-1280 -352,-1280 -352,-1056 -128,-1056" /><polygon points="-576,736 -576,768 -352,768 -352,736" /><polygon points="-576,512 -576,736 -352,736 -352,512" /><polygon points="-576,288 -576,512 -352,512 -352,288" /><polygon points="-576,64 -576,288 -352,288 -352,64" /><polygon points="-576,-160 -576,64 -352,64 -352,-160" /><polygon points="-576,-384 -576,-160 -352,-160 -352,-384" /><polygon points="-576,-608 -576,-384 -352,-384 -352,-608" /><polygon points="-576,-832 -576,-608 -352,-608 -352,-832" /><polygon points="-576,-1056 -576,-832 -352,-832 -352,-1056" /><polygon points="-352,-1280 -576,-1280 -576,-1056 -352,-1056" /><polygon points="-800,736 -800,768 -576,768 -576,736" /><polygon points="-800,512 -800,736 -576,736 -576,512" /><polygon points="-800,288 -800,512 -576,512 -576,288" /><polygon points="-800,64 -800,288 -576,288 -576,64" /><polygon points="-800,-160 -800,64 -576,64 -576,-160" /><polygon points="-800,-384 -800,-160 -576,-160 -576,-384" /><polygon points="-800,-608 -800,-384 -576,-384 -576,-608" /><polygon points="-800,-832 -800,-608 -576,-608 -576,-832" /><polygon points="-800,-1056 -800,-832 -576,-832 -576,-1056" /><polygon points="-576,-1280 -800,-1280 -800,-1056 -576,-1056" /><polygon points="-1024,736 -1024,768 -800,768 -800,736" /><polygon points="-1024,512 -1024,736 -800,736 -800,512" /><polygon points="-1024,288 -1024,512 -800,512 -800,288" /><polygon points="-1024,64 -1024,288 -800,288 -800,64" /><polygon points="-1024,-160 -1024,64 -800,64 -800,-160" /><polygon points="-1024,-384 -1024,-160 -800,-160 -800,-384" /><polygon points="-1024,-608 -1024,-384 -800,-384 -800,-608" /><polygon points="-1024,-832 -1024,-608 -800,-608 -800,-832" /><polygon points="-1024,-1056 -1024,-832 -800,-832 -800,-1056" /><polygon points="-800,-1280 -1024,-1280 -1024,-1056 -800,-1056" /></g></defs><rect fill="#fff" height="2712.0" id="background" width="2456.0" x="-1228.0" y="-1484.0" /><use fill="none" stroke="black" stroke-miterlimit="0" stroke-width="15" xlink:href="#bsp_ref" /><use fill="white" stroke="black" stroke-width="1" xlink:href="#bsp_ref" /></svg>