<svg viewBox="-4505 -4313 6450 8818" xmlns="http://www.w3.org/2000/svg" xmlns:xlink="http://www.w3.org/1999/xlink"><defs><g id="a"><path d="m-3520-2272v-128-96h224v224z"/><path d="m-3296-2176h-224v-96h224z"/><path d="m-3296-2272v-224h224v224z"/><path d="m-3072-2176h-224v-96h224z"/><path d="m-3072-2272v-224h224v224z"/><path d="m-2848-2176h-224v-96h224z"/><path d="m-2848-2272v-224h224v224z"/><path d="m-2624-2176h-224v-96h224z"/><path d="m-2624-2272v-224h224v224z"/><path d="m-2400-2176h-224v-96h224z"/><path d="m-2400-2272v-224h224v224z"/><path d="m-2176-2176h-224v-96h224z"/><path d="m-2176-2272v-224h224v224z"/><path d="m-1952-2176h-224v-96h224z"/><path d="m-1952-2272v-224h224v224z"/><path d="m-1728-2176h-224v-96h224z"/><path d="m-1728-2272v-224h224v224z"/><path d="m-1504-2176h-224v-96h224z"/><path d="m-1504-2272v-224h224v224z"/><path d="m-1280-2176h-224v-96h224z"/><path d="m-1152-2496v32 64 128h-128v-224z"/><path d="m-1152-2272v96h-128v-96z"/><path d="m-1152-2176h-64-64z"/><path d="m-3520-2400v128 96z"/><path d="m-1152-2464v64z"/><path d="m-3296-2496h-224 64z"/><path d="m-3072-2496h-224 32 160z"/><path d="m-2848-2496h-224 192z"/><path d="m-2624-2496h-224 192z"/><path d="m-2400-2496h-224 96z"/><path d="m-2176-2496h-224 96z"/><path d="m-1952-2496h-224 96 32z"/><path d="m-1728-2496h-224 128 80z"/><path d="m-1504-2496h-224 208z"/><path d="m-1280-2496h-224 208z"/><path d="m-1152-2176h-64z"/><path d="m-3296-2176h-160-64z"/><path d="m-3072-2176h-32-128-64z"/><path d="m-2848-2176h-32-192z"/><path d="m-2624-2176h-32-192z"/><path d="m-2400-2176h-128-96z"/><path d="m-2176-2176h-128-96z"/><path d="m-1952-2176h-96-32-96z"/><path d="m-1728-2176h-16-80-128z"/><path d="m-1504-2176h-160-64z"/><path d="m-1280-2176h-160-64z"/><path d="m-1728-2176h64-80z"/><path d="m-1744-2176h-80z"/><path d="m-2880-2176h32 192z"/><path d="m-2656-2176h32 96z"/><path d="m-3520-2176h64z"/><path d="m-3296-2176 2144-224v-64-32h-128-16-208-16-208-16-80-128-96-32-96-128-96-128-96-32-192-32-192-32-160-32-160v320z"/><path d="m-3296-2176h64 128 32 192 32 192 32 96 128 96 128 96 32 96 128 80 16 64 160 64 160 64 64v-224z"/><path d="m-3296-2496 2016 320h-160-64-160-64-16-80-128-96-32-96-128-96-128-96-32-192-32-192-32-128-64-160v-320z"/><path d="m-3296-2496h32 160 32 192 32 192 32 96 128 96 128 96 32 96 128 80 16 208 16 208 16 128v32 64 224h-64-64z"/><path d="m-1152-2464v64z"/><path d="m-1152-2464v-32z"/><path d="m-1520-2496h-208-16z"/><path d="m-1296-2496h-208-16z"/><path d="m-1824-2496h-128-96z"/><path d="m-2304-2496h-96-128 64z"/><path d="m-2080-2496h-96-128 64z"/><path d="m-2880-2496h-192-32z"/><path d="m-2656-2496h-192-32z"/><path d="m-2528-2496h-96-32z"/><path d="m-3104-2496h-160z"/><path d="m-3264-2496h-32z"/><path d="m-3296-2496h-160z"/><path d="m-3456-2496h-64z"/><path d="m-1152-2464v-32z"/><path d="m-1152-2400v224-96z"/><path d="m-1152-2496h-128z"/><path d="m-1152-2496h-2304v320h2304z"/><path d="m-1664-2176h-16-64z"/><path d="m-3104-2176h32 192z"/><path d="m-3456-2176h160 64z"/><path d="m-3232-2176h128z"/><path d="m-1744-2496h64 160z"/><path d="m-1520-2496h64 160z"/><path d="m-1152-2496h-128-16z"/><path d="m-3264-2496h160z"/><path d="m-3296-2496h32z"/><path d="m-3456-2496h160z"/><path d="m-3520-2496h64z"/><path d="m-1152-2496v320z"/><path d="m-3456-2176v-320z"/><path d="m-3456-2496h2304z"/><path d="m-1152-2176h-2304z"/><path d="m-1152-2176h-2304v-320h2304z"/><path d="m-2304-2176h128 96z"/><path d="m-2080-2176h32z"/><path d="m-2880-2176h-224z"/><path d="m-2656-2176h-224z"/><path d="m-2528-2176h-128z"/><path d="m-2048-2496h224z"/><path d="m-1744-2496h-80z"/><path d="m-3104-2496h224z"/><path d="m-2880-2496h224z"/><path d="m-2656-2496h128z"/><path d="m-3744-192h-224z"/><path d="m-3520-192h-224z"/><path d="m-3296-192h-224 192z"/><path d="m-3072-192h-224z"/><path d="m-2848-192h-224z"/><path d="m-2624-192h-224z"/><path d="m-2400-192h-224z"/><path d="m-2176-192h-224z"/><path d="m-1952-192h-224z"/><path d="m-1728-192h-224z"/><path d="m-1504-192h-224z"/><path d="m-1280-192h-224z"/><path d="m-1056-192h-224z"/><path d="m-832-192h-224z"/><path d="m-416-192h-192-32z"/><path d="m-192-192h-192-32z"/><path d="m-3968 3744v160 64z"/><path d="m-3968 3520v160 64z"/><path d="m-3968 3296v160 64z"/><path d="m-3968 3072v160 64z"/><path d="m-3968 2848v160 64z"/><path d="m-3968 2624v160 64z"/><path d="m-3968 2400v160 64z"/><path d="m-3968 2176v160 64z"/><path d="m-3968 1952v160 64z"/><path d="m-3968 1728v160 64z"/><path d="m-3968 1504v160 64z"/><path d="m-3968 1280v160 64z"/><path d="m-3968 1056v160 64z"/><path d="m-3968 832v160 64z"/><path d="m-3968 608v160 64z"/><path d="m-3968 384v160 64z"/><path d="m-3968 160v160 64z"/><path d="m-3968-64v96 64 64z"/><path d="m1408 3392v128z"/><path d="m-3328 3968h-192z"/><path d="m1408 3968h-32z"/><path d="m-3968 160v-64h224v224h-224z"/><path d="m-3744 320v224h-224v-160-64z"/><path d="m-3744 544v224h-224v-160-64z"/><path d="m-3744 768v224h-224v-160-64z"/><path d="m-3744 992v224h-224v-160-64z"/><path d="m-3744 1216v224h-224v-160-64z"/><path d="m-3744 1440v224h-224v-160-64z"/><path d="m-3744 1664v224h-224v-160-64z"/><path d="m-3744 1888v224h-224v-160-64z"/><path d="m-3744 2112v224h-224v-160-64z"/><path d="m-3744 2336v224h-224v-160-64z"/><path d="m-3744 2560v224h-224v-160-64z"/><path d="m-3744 2784v224h-224v-160-64z"/><path d="m-3744 3008v224h-224v-160-64z"/><path d="m-3744 3232v224h-224v-160-64z"/><path d="m-3744 3456v224h-224v-160-64z"/><path d="m-3744 3680v224h-224v-160-64z"/><path d="m-3744 3904v64h-224v-64z"/><path d="m-3744 96h224v224h-224z"/><path d="m-3520 320v224h-224v-224z"/><path d="m-3520 544v224h-224v-224z"/><path d="m-3520 768v224h-224v-224z"/><path d="m-3520 992v224h-224v-224z"/><path d="m-3520 1216v224h-224v-224z"/><path d="m-3520 1440v224h-224v-224z"/><path d="m-3520 1664v224h-224v-224z"/><path d="m-3520 1888v224h-224v-224z"/><path d="m-3520 2112v224h-224v-224z"/><path d="m-3520 2336v224h-224v-224z"/><path d="m-3520 2560v224h-224v-224z"/><path d="m-3520 2784v224h-224v-224z"/><path d="m-3520 3008v224h-224v-224z"/><path d="m-3520 3232v224h-224v-224z"/><path d="m-3520 3456v224h-224v-224z"/><path d="m-3520 3680v224h-224v-224z"/><path d="m-3520 3904v64h-224v-64z"/><path d="m-3520 96h192v224h-192z"/><path d="m-3328 320v32 128 64h-192v-224z"/><path d="m-3328 544v160 64h-192v-224z"/><path d="m-3328 768v160 64h-192v-224z"/><path d="m-3328 992v160 64h-192v-224z"/><path d="m-3328 1216v160 64h-192v-224z"/><path d="m-3328 1440v160 64h-192v-224z"/><path d="m-3328 1664v160 64h-192v-224z"/><path d="m-3328 1888v160 64h-192v-224z"/><path d="m-3328 2112v160 64h-192v-224z"/><path d="m-3328 2336v160 64h-192v-224z"/><path d="m-3328 2560v160 64h-192v-224z"/><path d="m-3328 2784v160 64h-192v-224z"/><path d="m-3328 3008v160 64h-192v-224z"/><path d="m-3328 3232v160 64h-192v-224z"/><path d="m-3328 3456v160 64h-192v-224z"/><path d="m-3328 3680v160 64h-192v-224z"/><path d="m-3328 3904v64h-192v-64z"/><path d="m-3328 3616v-160-64h64 160v224z"/><path d="m-3328 3840v-160-64h224v224z"/><path d="m-3104 3968h-224v-64-64h224z"/><path d="m-3104 3616v-224h64 160v224z"/><path d="m-3104 3840v-224h224v224z"/><path d="m-2880 3968h-224v-128h224z"/><path d="m-2880 3616v-224h64 160v224z"/><path d="m-2880 3840v-224h224v224z"/><path d="m-2656 3968h-224v-128h224z"/><path d="m-2656 3616v-224h64 160v224z"/><path d="m-2656 3840v-224h224v224z"/><path d="m-2432 3968h-224v-128h224z"/><path d="m-2432 3616v-224h64 160v224z"/><path d="m-2432 3840v-224h224v224z"/><path d="m-2208 3968h-224v-128h224z"/><path d="m-2208 3616v-224h64 160v224z"/><path d="m-2208 3840v-224h224v224z"/><path d="m-1984 3968h-224v-128h224z"/><path d="m-1984 3616v-224h64 160v224z"/><path d="m-1984 3840v-224h224v224z"/><path d="m-1760 3968h-224v-128h224z"/><path d="m-1760 3616v-224h64 160v224z"/><path d="m-1760 3840v-224h224v224z"/><path d="m-1536 3968h-224v-128h224z"/><path d="m-1536 3616v-224h64 160v224z"/><path d="m-1536 3840v-224h224v224z"/><path d="m-1312 3968h-224v-128h224z"/><path d="m-1312 3616v-224h64 160v224z"/><path d="m-1312 3840v-224h224v224z"/><path d="m-1088 3968h-224v-128h224z"/><path d="m-1088 3616v-224h64 160v224z"/><path d="m-1088 3840v-224h224v224z"/><path d="m-864 3968h-224v-128h224z"/><path d="m-864 3616v-224h64 160v224z"/><path d="m-864 3840v-224h224v224z"/><path d="m-640 3968h-224v-128h224z"/><path d="m-640 3616v-224h64 160v224z"/><path d="m-640 3840v-224h224v224z"/><path d="m-416 3968h-224v-128h224z"/><path d="m-416 3616v-224h64 160v224z"/><path d="m-416 3840v-224h224v224z"/><path d="m-192 3968h-224v-128h224z"/><path d="m-192 3616v-224h64 160v224z"/><path d="m-192 3840v-224h224v224z"/><path d="m32 3968h-224v-128h224z"/><path d="m32 3616v-224h64 160v224z"/><path d="m32 3840v-224h224v224z"/><path d="m256 3968h-224v-128h224z"/><path d="m256 3616v-224h64 160v224z"/><path d="m256 3840v-224h224v224z"/><path d="m480 3968h-224v-128h224z"/><path d="m480 3616v-224h64 160v224z"/><path d="m480 3840v-224h224v224z"/><path d="m704 3968h-224v-128h224z"/><path d="m704 3616v-224h64 160v224z"/><path d="m704 3840v-224h224v224z"/><path d="m928 3968h-224v-128h224z"/><path d="m928 3616v-224h64 160v224z"/><path d="m928 3840v-224h224v224z"/><path d="m1152 3968h-224v-128h224z"/><path d="m1152 3616v-224h64 160v224z"/><path d="m1152 3840v-224h224v224z"/><path d="m1376 3968h-224v-128h224z"/><path d="m1408 3392v128 96h-32v-224z"/><path d="m1408 3616v128 96h-32v-224z"/><path d="m1408 3840v128h-32v-128z"/><path d="m-3328 320v-224h32 192v224z"/><path d="m-3104 352h-224v-32h224z"/><path d="m-3104 320v-224h32 192v224z"/><path d="m-2880 352h-224v-32h224z"/><path d="m-2880 320v-224h32 192v224z"/><path d="m-2656 352h-224v-32h224z"/><path d="m-2656 320v-224h32 192v224z"/><path d="m-2432 352h-224v-32h224z"/><path d="m-2432 320v-224h32 192v224z"/><path d="m-2208 352h-224v-32h224z"/><path d="m-2208 320v-224h32 192v224z"/><path d="m-1984 352h-224v-32h224z"/><path d="m-1984 320v-224h32 192v224z"/><path d="m-1760 352h-224v-32h224z"/><path d="m-1760 320v-224h32 192v224z"/><path d="m-1536 352h-224v-32h224z"/><path d="m-1536 320v-224h32 192v224z"/><path d="m-1312 352h-224v-32h224z"/><path d="m-1312 320v-224h32 192v224z"/><path d="m-1088 352h-224v-32h224z"/><path d="m-1088 320v-224h32 192v224z"/><path d="m-864 352h-224v-32h224z"/><path d="m-864 320v-224h32 192v224z"/><path d="m-640 352h-224v-32h224z"/><path d="m-640 320v-224h32 192v224z"/><path d="m-416 352h-224v-32h224z"/><path d="m-416 320v-224h32 192v224z"/><path d="m-192 352h-224v-32h224z"/><path d="m-160 96h160v32 192h-192v-224z"/><path d="m0 320v32h-192v-32z"/><path d="m-3968 32v-96-128h224v224z"/><path d="m-3744 96h-224v-64h224z"/><path d="m-3744 32v-224h224v224z"/><path d="m-3520 96h-224v-64h224z"/><path d="m-3520 32v-224h224v224z"/><path d="m-3296 96h-32-192v-64h224z"/><path d="m-3296 32v-224h224v224z"/><path d="m-3072 96h-32-192v-64h224z"/><path d="m-3072 32v-224h224v224z"/><path d="m-2848 96h-32-192v-64h224z"/><path d="m-2848 32v-224h224v224z"/><path d="m-2624 96h-32-192v-64h224z"/><path d="m-2624 32v-224h224v224z"/><path d="m-2400 96h-32-192v-64h224z"/><path d="m-2400 32v-224h224v224z"/><path d="m-2176 96h-32-192v-64h224z"/><path d="m-2176 32v-224h224v224z"/><path d="m-1952 96h-32-192v-64h224z"/><path d="m-1952 32v-224h224v224z"/><path d="m-1728 96h-32-192v-64h224z"/><path d="m-1728 32v-224h224v224z"/><path d="m-1504 96h-32-192v-64h224z"/><path d="m-1504 32v-224h224v224z"/><path d="m-1280 96h-32-192v-64h224z"/><path d="m-1280 32v-224h224v224z"/><path d="m-1056 96h-32-192v-64h224z"/><path d="m-1056 32v-224h224v224z"/><path d="m-832 96h-32-192v-64h224z"/><path d="m-832 32v-224h128 64 32v224z"/><path d="m-608 96h-32-192v-64h224z"/><path d="m-608 32v-224h192 32v224z"/><path d="m-384 96h-32-192v-64h224z"/><path d="m-384 32v-224h192 32v224z"/><path d="m-160 96h-32-192v-64h224z"/><path d="m-64-192h64v96 128h-160v-224z"/><path d="m0 32v64h-160v-64z"/><path d="m-3328 3392v64 160 64 160 64 64z"/><path d="m-3328 352v128z"/><path d="m-3040 3392h-64-160z"/><path d="m-2816 3392h-64-160z"/><path d="m-2592 3392h-64-160z"/><path d="m-2368 3392h-64-160z"/><path d="m-2144 3392h-64-160z"/><path d="m-1920 3392h-64-160z"/><path d="m-1696 3392h-64-160z"/><path d="m-1472 3392h-64-160 192z"/><path d="m-1248 3392h-64-160 192z"/><path d="m-1024 3392h-64-160 192z"/><path d="m-800 3392h-64-160 192z"/><path d="m-576 3392h-64-160 192z"/><path d="m-352 3392h-64-160 192z"/><path d="m-128 3392h-64-160 192z"/><path d="m96 3392h-64-160 192z"/><path d="m320 3392h-64-160 192z"/><path d="m544 3392h-64-160 192z"/><path d="m768 3392h-64-160 192z"/><path d="m992 3392h-64-160 192z"/><path d="m1216 3392h-64-160 192z"/><path d="m0-192v64 32z"/><path d="m0 352h-128-64z"/><path d="m1408 3392v8 88 32z"/><path d="m1408 3744v224-128z"/><path d="m1408 3520v224-128z"/><path d="m-3104 3968h-224z"/><path d="m-2880 3968h-224z"/><path d="m-2656 3968h-224z"/><path d="m-2432 3968h-224z"/><path d="m-2208 3968h-224z"/><path d="m-1984 3968h-224z"/><path d="m-1760 3968h-224z"/><path d="m-1536 3968h-224z"/><path d="m-1312 3968h-224z"/><path d="m-1088 3968h-224z"/><path d="m-864 3968h-224z"/><path d="m-640 3968h-224z"/><path d="m-416 3968h-224z"/><path d="m-192 3968h-224z"/><path d="m32 3968h-224z"/><path d="m256 3968h-224z"/><path d="m480 3968h-224z"/><path d="m704 3968h-224z"/><path d="m928 3968h-224z"/><path d="m1152 3968h-224z"/><path d="m1376 3968h-224z"/><path d="m1408 3968h-32z"/><path d="m-3328 3392v576-64-64-160-64-160z"/><path d="m-1280 3392h-192-32z"/><path d="m-1056 3392h-192-32z"/><path d="m-832 3392h-192-32z"/><path d="m-608 3392h-192-32z"/><path d="m-384 3392h-192-32z"/><path d="m-160 3392h-192-32z"/><path d="m64 3392h-192-32z"/><path d="m288 3392h-192-32z"/><path d="m512 3392h-192-32z"/><path d="m736 3392h-192-32z"/><path d="m960 3392h-192-32z"/><path d="m1184 3392h-192-32z"/><path d="m1408 3392h-32-160z"/><path d="m-3040 3392h-224z"/><path d="m-2816 3392h-224z"/><path d="m-2592 3392h-224z"/><path d="m-2368 3392h-224z"/><path d="m-2144 3392h-224z"/><path d="m-1920 3392h-224z"/><path d="m-1696 3392h-224z"/><path d="m-3264 3392h-64z"/><path d="m-3104 3968 960-576h-224-224-224-224-224-64v576z"/><path d="m-3104 3968 4096-576h-32-192-32-192-32-192-32-192-32-192-32-192-32-192-32-192-32-192-32-192-32-192-32-192-224-224z"/><path d="m-3104 3968h224 224 224 224 224 224 224 224 224 224 224 224 224 224 224 224 224 224 224 224 32v-224-224-128h-192-32-192z"/><path d="m-1472 3392h-1792 224 224 224 224 224 224 224 192z"/><path d="m-1472 3392 2880 352v224h-32-224-224-224-224-224-224-224-224-224-224-224-224-224-224-224-224-224-224-224-224-224v-576h64z"/><path d="m-1472 3392h192 32 192 32 192 32 192 32 192 32 192 32 192 32 192 32 192 32 192 32 192 32 192 32 192v128 224z"/><path d="m-704-192h-128z"/><path d="m-3744-192h-224z"/><path d="m-3520-192h-224z"/><path d="m-3296-192h-32-192z"/><path d="m-3072-192h-224z"/><path d="m-2848-192h-224z"/><path d="m-2624-192h-224z"/><path d="m-2400-192h-224z"/><path d="m-2176-192h-224z"/><path d="m-1952-192h-224z"/><path d="m-1728-192h-224z"/><path d="m-1504-192h-224z"/><path d="m-1280-192h-224z"/><path d="m-1056-192h-224z"/><path d="m-832-192h-224z"/><path d="m-640-192h-64z"/><path d="m-64-192h-96-32z"/><path d="m0-192h-64z"/><path d="m-416-192h-224z"/><path d="m-192-192h-224z"/><path d="m-3968-192v128z"/><path d="m-3968 3744v224z"/><path d="m-3968 3520v224z"/><path d="m-3968 3296v224z"/><path d="m-3968 3072v224z"/><path d="m-3968 2848v224z"/><path d="m-3968 2624v224z"/><path d="m-3968 2400v224z"/><path d="m-3968 2176v224z"/><path d="m-3968 1952v224z"/><path d="m-3968 1728v224z"/><path d="m-3968 1504v224z"/><path d="m-3968 1280v224z"/><path d="m-3968 1056v224z"/><path d="m-3968 832v224z"/><path d="m-3968 608v224z"/><path d="m-3968 384v224z"/><path d="m-3968 160v224z"/><path d="m-3968-64v224z"/><path d="m1408 3744v192 24 8z"/><path d="m1408 3520v192 32z"/><path d="m1408 3400v24 64z"/><path d="m-3744 3968h-224z"/><path d="m-3520 3968h-224z"/><path d="m-3328 3968h-192z"/><path d="m-3328 352v128z"/><path d="m-3328 3168v224-160z"/><path d="m-3328 2944v224-160z"/><path d="m-3328 2720v224-160z"/><path d="m-3328 2496v224-160z"/><path d="m-3328 2272v224-160z"/><path d="m-3328 2048v224-160z"/><path d="m-3328 1824v224-160z"/><path d="m-3328 1600v224-160z"/><path d="m-3328 1376v224-160z"/><path d="m-3328 1152v224-160z"/><path d="m-3328 928v224-160z"/><path d="m-3328 704v224-160z"/><path d="m-3328 480v224-160z"/><path d="m0 128v224-32z"/><path d="m0-96v192 32-32-64z"/><path d="m0 96v32z"/><path d="m-352 352h-64z"/><path d="m-3104 352h-224z"/><path d="m-2880 352h-224z"/><path d="m-2656 352h-224z"/><path d="m-2432 352h-224z"/><path d="m-2208 352h-224z"/><path d="m-1984 352h-224z"/><path d="m-1760 352h-224z"/><path d="m-1536 352h-224z"/><path d="m-1312 352h-224z"/><path d="m-1088 352h-224z"/><path d="m-864 352h-224z"/><path d="m-640 352h-224z"/><path d="m-416 352h-224z"/><path d="m-192 352h-160-64z"/><path d="m0 352h-128z"/><path d="m-3328-192 3328 64v32 192 32 224h-128-64-160-64-224-224-224-224-224-224-224-224-224-224-224-224-224z"/><path d="m-3328-192h32 224 224 224 224 224 224 224 224 224 224 224 128 64 224 224 128 64v64z"/><path d="m0 128-2432 224h224 224 224 224 224 224 224 224 224 64 160 64 128z"/><path d="m0 128v-32-192-32-64h-64-128-224-224-64-128-224-224-224-224-224-224-224-224-224-224-224-32v544h224 224 224 224z"/><path d="m-2720 3616h96 32v344h-736v-344z"/><path d="m-2592 3960v-344h-32-96-608v344z"/><path d="m-2720 3616v-216h-608v216z"/><path d="m-2720 3400v216h-608v-216z"/><path d="m-2592 3400h-32v216h32z"/><path d="m-2624 3616v-216h32v216z"/><path d="m-800 3776v-96h96v96z"/><path d="m-704 3776v-96h-96v96z"/><path d="m-800 3960v-184-96-280h-704-1088v216 344z"/><path d="m-1504 3400h704v280 96 184h-1792v-344-216z"/><path d="m768 3960v-280h-96-1376v96 184z"/><path d="m672 3680h96v280h-1472v-184-96z"/><path d="m768 3680v-96h-96v96z"/><path d="m672 3680v-96h96v96z"/><path d="m-704 3680h1376v-96-184h-1472v280z"/><path d="m672 3400v184 96h-1376-96v-280z"/><path d="m1408 3400v88 32 192 32 192 24h-640v-280-96-184z"/><path d="m1408 3960v-24-192-32-192-32-88h-640v184 96 280z"/><path d="m-2592 3400h1088-1088-32z"/><path d="m-800 3400h1472-1824-128-224z"/><path d="m1408 3400h-640z"/><path d="m-800 3960v-184z"/><path d="m768 3400v184z"/><path d="m768 3960h640-640-672-800z"/><path d="m-2624 3400v216z"/><path d="m-2592 3960h1792-1792-736z"/><path d="m-3968 3744 224-3936h224 192v544 128 224 224 224 224 224 224 224 224 224 224 224 224 224 8 216 344 8h-192-224-224z"/><path d="m-3968 3744v-224-224-224-224-224-224-224-224-224-224-224-224-224-224-224-224-224-128h224z"/><path d="m-3328 3960-192-4152h-224-224v128 224 224 224 224 224 224 224 224 224 224 224 224 224 224 224 224 224 224h224 224 192z"/><path d="m-3328 3960v-344-216-8-224-224-224-224-224-224-224-224-224-224-224-224-224-128-544h-192z"/><path d="m-3328 352h-640v3616h640z"/><path d="m0-192h-3968v544h3968z"/><path d="m1408 3392h-4736v576h4736z"/><path d="m-2528-2176h128 96z"/><path d="m-3328 3968h-640z"/><path d="m-3968 352h640z"/><path d="m-3328 352v3616z"/><path d="m-3968 3968v-3616z"/><path d="m-3328 3968h-640v-3616h640z"/><path d="m-3968 352v-544z"/><path d="m0-192v544z"/><path d="m-3968-192h3968z"/><path d="m0 352h-3968z"/><path d="m0 352h-3968v-544h3968z"/><path d="m1408 3392v576z"/><path d="m-3328 3968v-576z"/><path d="m-3328 3392h4736z"/><path d="m1408 3968h-4736z"/><path d="m1408 3968h-4736v-576h4736z"/><path d="m-3968-192h96 128z"/><path d="m-3744-192h96 128z"/><path d="m-3520-192h224z"/><path d="m-3296-192h224z"/><path d="m-3072-192h224z"/><path d="m-2848-192h224z"/><path d="m-2624-192h224z"/><path d="m-2400-192h224z"/><path d="m-2176-192h224z"/><path d="m-1952-192h224z"/><path d="m-1728-192h224z"/><path d="m-1504-192h224z"/><path d="m-1280-192h224z"/><path d="m-1056-192h224z"/><path d="m-704-192h-128z"/><path d="m-64-3520v32 96z"/><path d="m-640-480v96 128z"/><path d="m-640-704v96 128z"/><path d="m-640-928v96 128z"/><path d="m-640-1152v96 128z"/><path d="m-640-1376v96 128z"/><path d="m-640-1600v96 128z"/><path d="m-640-1824v96 128z"/><path d="m-640-2048v96 128z"/><path d="m-640-2272v96 128z"/><path d="m-640-2496v96 128z"/><path d="m-640-2720v96 128z"/><path d="m-640-2944v96 128z"/><path d="m-64-256h-128z"/><path d="m-416-3520h-224z"/><path d="m-192-3520h-224z"/><path d="m-640-3520h224v224h-224z"/><path d="m-416-3296v224h-224v-32-192z"/><path d="m-416-3072v224h-224v-96-128z"/><path d="m-416-2848v224h-224v-96-128z"/><path d="m-416-2624v224h-224v-96-128z"/><path d="m-416-2400v224h-224v-96-128z"/><path d="m-416-2176v224h-224v-96-128z"/><path d="m-416-1952v224h-224v-96-128z"/><path d="m-416-1728v224h-224v-96-128z"/><path d="m-416-1504v224h-224v-96-128z"/><path d="m-416-1280v224h-224v-96-128z"/><path d="m-416-1056v224h-224v-96-128z"/><path d="m-416-832v224h-224v-96-128z"/><path d="m-416-608v224h-224v-96-128z"/><path d="m-416-384v128h-224v-128z"/><path d="m-416-3520h224v224h-224z"/><path d="m-192-3296v224h-224v-224z"/><path d="m-192-3072v224h-224v-224z"/><path d="m-192-2848v224h-224v-224z"/><path d="m-192-2624v224h-224v-224z"/><path d="m-192-2400v224h-224v-224z"/><path d="m-192-2176v224h-224v-224z"/><path d="m-192-1952v224h-224v-224z"/><path d="m-192-1728v224h-224v-224z"/><path d="m-192-1504v224h-224v-224z"/><path d="m-192-1280v224h-224v-224z"/><path d="m-192-1056v224h-224v-224z"/><path d="m-192-832v224h-224v-224z"/><path d="m-192-608v224h-224v-224z"/><path d="m-192-384v128h-224v-128z"/><path d="m-192-3520h128v128 96h-128z"/><path d="m-64-3296v128 96h-128v-224z"/><path d="m-64-3072v128 96h-128v-224z"/><path d="m-64-2848v128 96h-128v-224z"/><path d="m-64-2624v128 96h-128v-224z"/><path d="m-64-2400v128 96h-128v-224z"/><path d="m-64-2176v128 96h-128v-224z"/><path d="m-64-1952v128 96h-128v-224z"/><path d="m-64-1728v128 96h-128v-224z"/><path d="m-64-1504v128 96h-128v-224z"/><path d="m-64-1280v128 96h-128v-224z"/><path d="m-64-1056v128 96h-128v-224z"/><path d="m-64-832v128 96h-128v-224z"/><path d="m-64-608v128 96h-128v-224z"/><path d="m-64-384v128h-128v-128z"/><path d="m-704-2176h-64-96z"/><path d="m-1664-2176h160 64z"/><path d="m-1440-2176h160 64z"/><path d="m-1152-2176h-64z"/><path d="m-2048-2176h96 128z"/><path d="m-1744-2176h-80z"/><path d="m-3456-2176h-64z"/><path d="m-3520-2176v-32-192z"/><path d="m-3520-2496v96z"/><path d="m-3008-3520h-96-128 128z"/><path d="m-2784-3520h-96-128z"/><path d="m-2560-3520h-96-128z"/><path d="m-2336-3520h-96-128z"/><path d="m-2112-3520h-96-128z"/><path d="m-1888-3520h-96-128z"/><path d="m-1664-3520h-96-128z"/><path d="m-1440-3520h-96-128z"/><path d="m-1216-3520h-96-128z"/><path d="m-992-3520h-96-128z"/><path d="m-768-3520h-96-128z"/><path d="m-640-3520h-128z"/><path d="m-640-3104h-128z"/><path d="m-3104-3296v-224h96 128v224z"/><path d="m-2880-3104h-224v-192h224z"/><path d="m-2880-3296v-224h96 128v224z"/><path d="m-2656-3104h-128-96v-192h224z"/><path d="m-2656-3296v-224h96 128v224z"/><path d="m-2432-3104h-128-96v-192h224z"/><path d="m-2432-3296v-224h96 128v224z"/><path d="m-2208-3104h-128-96v-192h224z"/><path d="m-2208-3296v-224h96 128v224z"/><path d="m-1984-3104h-128-96v-192h224z"/><path d="m-1984-3296v-224h96 128v224z"/><path d="m-1760-3104h-128-96v-192h224z"/><path d="m-1760-3296v-224h96 128v224z"/><path d="m-1536-3104h-128-96v-192h224z"/><path d="m-1536-3296v-224h96 128v224z"/><path d="m-1312-3104h-128-96v-192h224z"/><path d="m-1312-3296v-224h96 128v224z"/><path d="m-1088-3104h-128-96v-192h224z"/><path d="m-1088-3296v-224h96 128v224z"/><path d="m-864-3104h-128-96v-192h224z"/><path d="m-768-3520h128v224h-224v-224z"/><path d="m-640-3296v192h-128-96v-192z"/><path d="m-704-3040v192z"/><path d="m-1088-2400v32 192z"/><path d="m-864-3040h-224z"/><path d="m-1088-2816v-224h224v224z"/><path d="m-1088-2592v-96-128h224v224z"/><path d="m-1088-2368v-32-64-128h224v224z"/><path d="m-864-2176h-224v-192h224z"/><path d="m-704-3040v192 32h-160v-224z"/><path d="m-704-2816v192 32h-160v-224z"/><path d="m-704-2592v192 32h-160v-224z"/><path d="m-704-2368v192h-160v-192z"/><path d="m-1152-2688h64-224z"/><path d="m-2880-2688h-224v-160h224z"/><path d="m-2656-2688h-224v-160h96 128z"/><path d="m-2432-2688h-224v-160h96 128z"/><path d="m-2208-2688h-224v-160h96 128z"/><path d="m-2112-2848h64v32 128h-160v-160z"/><path d="m-3104-3072v-32h224v224h-224z"/><path d="m-2880-2880v32h-224v-32z"/><path d="m-2880-3104h96v64 160h-96z"/><path d="m-2784-2880v32h-96v-32z"/><path d="m-2560-2848h-96-128v-32-160h224z"/><path d="m-2336-2848h-96-128v-192h224z"/><path d="m-2112-2848h-96-128v-192h224z"/><path d="m-2048-3040v192h-64v-192z"/><path d="m-2048-2816v-32-192h160 64v224z"/><path d="m-1824-2688h-160-64v-128h224z"/><path d="m-1824-2816v-224h160 64v224z"/><path d="m-1600-2688h-160-64v-128h224z"/><path d="m-1600-2816v-224h160 64v224z"/><path d="m-1376-2688h-160-64v-128h224z"/><path d="m-1376-2816v-224h160 64v224z"/><path d="m-1152-2688h-160-64v-128h224z"/><path d="m-1088-3040v224h-64v-224z"/><path d="m-1088-2816v128h-64v-128z"/><path d="m-2560-3040h-224z"/><path d="m-2336-3040h-224z"/><path d="m-2112-3040h-224z"/><path d="m-1888-3040h-160-64 64z"/><path d="m-1664-3040h-160-64z"/><path d="m-1440-3040h-160-64z"/><path d="m-1216-3040h-160-64z"/><path d="m-1088-3040h-64-64z"/><path d="m-1152-2400v224z"/><path d="m-1152-2496v32z"/><path d="m-1152-2464v64z"/><path d="m-3232-2912v64 160z"/><path d="m-3232-3136v64 160z"/><path d="m-3232-3360v64 160z"/><path d="m-3232-3360v-160h128v224h-128z"/><path d="m-3104-3296v192 32h-128v-64-160z"/><path d="m-3104-3072v192 32h-128v-64-160z"/><path d="m-3104-2848v160h-128v-160z"/><path d="m-3968 3968v-32-192z"/><path d="m-3968 3744v-32-192z"/><path d="m-3968 3520v-32-192z"/><path d="m-3968 3296v-32-192z"/><path d="m-3968 3072v-32-192z"/><path d="m-3968 2848v-32-192z"/><path d="m-3968 2624v-32-192z"/><path d="m-3968 2400v-32-192z"/><path d="m-3968 2176v-32-192z"/><path d="m-3968 1952v-32-192z"/><path d="m-3968 1728v-32-192z"/><path d="m-3968 1504v-32-192z"/><path d="m-3968 1280v-32-192z"/><path d="m-3968 1056v-32-192z"/><path d="m-3968 832v-32-192z"/><path d="m-3968 608v-32-192z"/><path d="m-3968 384v-32-192z"/><path d="m-3968 160v-32-32-64-96z"/><path d="m-3968-192v128z"/><path d="m-3968 3968h224z"/><path d="m-3744 3968h224z"/><path d="m-3328 3968h-160-32z"/><path d="m-1504 3392h224z"/><path d="m-1280 3392h128 96z"/><path d="m-1056 3392h128 96z"/><path d="m-832 3392h128 96z"/><path d="m-608 3392h128 96z"/><path d="m-384 3392h128 96z"/><path d="m-160 3392h128 96z"/><path d="m64 3392h128 96z"/><path d="m288 3392h128 96z"/><path d="m512 3392h128 96z"/><path d="m736 3392h128 96z"/><path d="m960 3392h128 96z"/><path d="m1408 3392h-192-32z"/><path d="m0 352v-224z"/><path d="m0 96v32z"/><path d="m-352 352h160 64z"/><path d="m0 352h-128z"/><path d="m-64-480v224-128z"/><path d="m-64-704v224-128z"/><path d="m-64-928v224-128z"/><path d="m-64-1152v224-128z"/><path d="m-64-1376v224-128z"/><path d="m-64-1600v96 128-128z"/><path d="m-64-1824v96 128-128z"/><path d="m-64-2048v96 128-128z"/><path d="m-64-2272v96 128-128z"/><path d="m-64-2496v96 128-128z"/><path d="m-64-2720v96 128-128z"/><path d="m-64-2944v96 128-128z"/><path d="m-64-3168v96 128-128z"/><path d="m-64-3392v128 96-128z"/><path d="m-64-3168v-96 192z"/><path d="m-64-1504v128z"/><path d="m-640-3040v-64 32 128z"/><path d="m-640-480v224-160z"/><path d="m-640-704v224-160z"/><path d="m-640-928v224-160z"/><path d="m-640-1152v224-160z"/><path d="m-640-1376v224-160z"/><path d="m-640-1600v224-160z"/><path d="m-640-1824v224-160z"/><path d="m-640-2048v224-160z"/><path d="m-640-2272v224-160z"/><path d="m-640-2496v224-160z"/><path d="m-640-2720v224-160z"/><path d="m-640-2944v224-160z"/><path d="m-640-3104v64z"/><path d="m-416-256h-224z"/><path d="m-192-256h-224z"/><path d="m-64-256h-128z"/><path d="m-416-3520h-224z"/><path d="m-192-3520h-224z"/><path d="m-64-3520h-128z"/><path d="m-640-480 576-2016v96 128 96 128 96 128 96 128 96 128 224 224 224 224 224h-128-224-224z"/><path d="m-640-480v-224-224-224-224-224-224-224-224-224-224-224-96-64-416h224 224 128v32 96 128 96 96 128 96 128 96 128z"/><path d="m-64-480-128-3040h-224-224v416 64 96 224 224 224 224 224 224 224 224 224 224 224 224h224 224 128z"/><path d="m-64-480v-224-224-224-224-128-96-128-96-128-96-128-96-128-96-128-96-128-96-128-96-96-128-96-32h-128z"/><path d="m-864-2176h-224z"/><path d="m-768-2176h64z"/><path d="m-768-2176h-96z"/><path d="m-3008-3520h-96-128z"/><path d="m-2784-3520h-224z"/><path d="m-2560-3520h-224z"/><path d="m-2336-3520h-224z"/><path d="m-2112-3520h-224z"/><path d="m-1888-3520h-224z"/><path d="m-1664-3520h-224z"/><path d="m-1440-3520h-224z"/><path d="m-1216-3520h-224z"/><path d="m-992-3520h-224z"/><path d="m-768-3520h-224z"/><path d="m-640-3520h-128z"/><path d="m-2560-3104h-224 128z"/><path d="m-2336-3104h-224 128z"/><path d="m-2112-3104h-224 128z"/><path d="m-1888-3104h-224 128z"/><path d="m-1664-3104h-224 128z"/><path d="m-1440-3104h-224 128z"/><path d="m-1216-3104h-224 128z"/><path d="m-992-3104h-224 128z"/><path d="m-768-3104h-224 128z"/><path d="m-640-3104h-128z"/><path d="m-2784-3104h224 224 224 224 224 224 224 224 224 128v-416h-128-224-224-224-224-224-224-224-224-224-224-96v416z"/><path d="m-3008-3520h224 224 224 224 224 224 224 224 224 224 128v416h-128-224-224-224-224-224-224-224-224-224-320v-416z"/><path d="m-704-2400v224-192z"/><path d="m-704-2624v224-192z"/><path d="m-704-2848v224-192z"/><path d="m-704-3040v192z"/><path d="m-1088-2464v64z"/><path d="m-1088-2688v96 128z"/><path d="m-1088-2400v224-64z"/><path d="m-704-3040h-64z"/><path d="m-768-3040h64-160z"/><path d="m-864-3040h-224z"/><path d="m-864-2176h96 64v-224-224-224-192h-64-96-224v352 224 64 224z"/><path d="m-864-3040h96 64v192 224 224 224h-64-96-224v-224-64-224-352z"/><path d="m-2880-2688h-224z"/><path d="m-2656-2688h-224z"/><path d="m-2432-2688h-224z"/><path d="m-2208-2688h-224z"/><path d="m-1984-2688h-64-160 160z"/><path d="m-1760-2688h-224 160z"/><path d="m-1536-2688h-224 160z"/><path d="m-1312-2688h-224 160z"/><path d="m-1088-2688h-224z"/><path d="m-2880-2688h224 224 224 160v-160h-736-320v160z"/><path d="m-2784-2848h736v160h-160-224-224-224-224v-160z"/><path d="m-2784-2848v-192-64h-320v256z"/><path d="m-3104-2848v-256h320v64 192z"/><path d="m-2560-3040h224 224 64v192h-736v-192z"/><path d="m-2048-2848v-192h-64-224-224-224v192z"/><path d="m-1888-3040h224 224 224 128v352h-224-224-224-224-64v-160-192z"/><path d="m-1984-2688h224 224 224 224v-352h-128-224-224-224-160v192 160z"/><path d="m-2560-3040h-224z"/><path d="m-2336-3040h-224z"/><path d="m-2112-3040h-224z"/><path d="m-1888-3040h-160-64z"/><path d="m-1664-3040h-224z"/><path d="m-1440-3040h-224z"/><path d="m-1216-3040h-224z"/><path d="m-1088-3040h-128z"/><path d="m-2784-3040v-64z"/><path d="m-2240-2496h-64-160z"/><path d="m-2048-2496h-32-160z"/><path d="m-2048-2496h-32z"/><path d="m-3104-2688h-128z"/><path d="m-3104-2848v-256-416h-128v160 224 224 224h128z"/><path d="m-3232-2912v-224-224-160h128v416 256 160h-128z"/><path d="m-3232-2912v224z"/><path d="m-3232-3136v224z"/><path d="m-3232-3360v224z"/><path d="m-3232-3520v160z"/><path d="m0 96v-192-32z"/><path d="m0-128v-64z"/><path d="m-64-3104h-576v2848h576z"/><path d="m-64-3520h-3168v416h3168z"/><path d="m-2784-3104h-448v64h448z"/><path d="m-1088-3040h-2144v352h2144z"/><path d="m-768-3040h-320v864h320z"/><path d="m-64-256h-576z"/><path d="m-640-3104h576z"/><path d="m-640-256v-2848z"/><path d="m-64-3104v2848z"/><path d="m-64-256h-576v-2848h576z"/><path d="m-64-3520v416z"/><path d="m-3232-3104v-416z"/><path d="m-3232-3520h3168z"/><path d="m-64-3104h-3168z"/><path d="m-64-3104h-3168v-416h3168z"/><path d="m-3232-3040v-64z"/><path d="m-2784-3104v64z"/><path d="m-2784-3040h-448z"/><path d="m-3232-3104h448z"/><path d="m-2784-3040h-448v-64h448z"/><path d="m-3232-2688v-352z"/><path d="m-1088-3040v352z"/><path d="m-1088-2688h-2144z"/><path d="m-3232-3040h2144z"/><path d="m-1088-2688h-2144v-352h2144z"/><path d="m-768-2176h-320z"/><path d="m-1088-3040h320z"/><path d="m-768-3040v864z"/><path d="m-1088-2176v-864z"/><path d="m-768-2176h-320v-864h320z"/><path d="m-64-192h-128z"/><path d="m-64-480v64 160z"/><path d="m-64-704v64 160z"/><path d="m-64-928v64 160z"/><path d="m-64-1152v64 160z"/><path d="m-64-1376v64 160z"/><path d="m-64-1376v-128 192z"/><path d="m-640-416v160 64z"/><path d="m-640-640v160 64z"/><path d="m-640-864v160 64z"/><path d="m-640-1088v160 64z"/><path d="m-640-1312v160 64z"/><path d="m-640-1536v160 64z"/><path d="m-640-1760v160 64z"/><path d="m-640-1984v160 64z"/><path d="m-640-2208v160 64z"/><path d="m-640-2432v160 64z"/><path d="m-640-2656v160 64z"/><path d="m-640-2880v160 64z"/><path d="m-640-3040v96z"/><path d="m-416-256h-224z"/><path d="m-192-256h-224z"/><path d="m-416-192h-224v-64h224z"/><path d="m-192-192h-224v-64h224z"/><path d="m-64-256v64h-128v-64z"/><path d="m-704-2176h-64z"/><path d="m-1152-2176h64z"/><path d="m-704-2176v-224z"/><path d="m-704-2400v-224z"/><path d="m-704-2624v-224z"/><path d="m-704-3040v192z"/><path d="m-1088-2464v64z"/><path d="m-768-3040h64z"/><path d="m-1152-2400v160 64z"/><path d="m-1088-2464h-64z"/><path d="m-1152-2240v-160-64h64v64 160z"/><path d="m-1088-2176h-64v-64h64z"/><path d="m1408 3400v24z"/><path d="m1408 3712v160 64-192z"/><path d="m1408 3488v160 64-192z"/><path d="m1408 3936v24z"/><path d="m1360 3936h-224z"/><path d="m1136 3424v64z"/><path d="m1408 3424h-48z"/><path d="m1360 3424h-224v64 160h224z"/><path d="m1136 3648v64 160h224v-224z"/><path d="m1136 3872v64h224v-64z"/><path d="m1408 3488v-64h-48v224h48z"/><path d="m1360 3648v224h48v-160-64z"/><path d="m1360 3872v64h48v-64z"/><path d="m-640-192h-64z"/><path d="m-64-3264v-128-96z"/><path d="m-64-3488v-32z"/><path d="m-64-192v-64-160z"/><path d="m-64-416v-64-160z"/><path d="m-64-640v-64-160z"/><path d="m-64-864v-64-160z"/><path d="m-64-1088v-64-160z"/><path d="m-64-1504v128 64z"/><path d="m-640-192v-64-160z"/><path d="m-640-416v-64-160z"/><path d="m-640-640v-64-160z"/><path d="m-640-864v-64-160z"/><path d="m-640-1088v-64-160z"/><path d="m-640-1312v-64-160z"/><path d="m-640-1536v-64-160z"/><path d="m-640-1760v-64-160z"/><path d="m-640-1984v-64-160z"/><path d="m-640-2208v-64-160z"/><path d="m-640-2432v-64-160z"/><path d="m-640-2656v-64-160z"/><path d="m-640-3040v96 64z"/><path d="m-640-3520h224z"/><path d="m-416-3520h224z"/><path d="m-64-3520h-128z"/><path d="m-384-3360h-96v96h96z"/><path d="m-256-2816h-96v96h96z"/><path d="m-288-2176h-96v96h96z"/><path d="m-288-1504v-96h-96v96z"/><path d="m-288-256v-96h-96v96z"/><path d="m-320-896v-96h-96v96z"/><path d="m-320-992h-96z"/><path d="m-288-352h-96z"/><path d="m-3456-2176h224z"/><path d="m-3232-2176h128z"/><path d="m-3232-3520h64 160z"/><path d="m-3008-3520h64 160z"/><path d="m-2784-3520h64 160z"/><path d="m-2560-3520h64 160z"/><path d="m-2336-3520h64 160z"/><path d="m-2112-3520h64 160z"/><path d="m-1888-3520h64 160z"/><path d="m-1664-3520h64 160z"/><path d="m-1440-3520h64 160z"/><path d="m-1216-3520h64 160z"/><path d="m-992-3520h64 160z"/><path d="m-768-3520h64 64z"/><path d="m-3456-2496v320z"/><path d="m-992-3200v-96h-96v96z"/><path d="m-1536-3456h-96v96h96z"/><path d="m-2048-3264h-96v96h96z"/><path d="m-2624-3424h-96v96h96z"/><path d="m-992-3296h-96z"/><path d="m-1088-2688v224z"/><path d="m-1024-2368h-64v64h64z"/><path d="m-768-2720h-96v96h96z"/><path d="m-3104-2688h224z"/><path d="m-2880-2688h224z"/><path d="m-2656-2688h224z"/><path d="m-2432-2688h224z"/><path d="m-2208-2688h160 64z"/><path d="m-1984-2688h224z"/><path d="m-1760-2688h224z"/><path d="m-1536-2688h224z"/><path d="m-1088-2688h-224z"/><path d="m-2784-2912v96z"/><path d="m-1184-2976h-96v96h96z"/><path d="m-1664-2944h-96z"/><path d="m-1664-2848v-96h-96v96z"/><path d="m-2176-2944h-96v96h96z"/><path d="m-2688-2912h-96v96h96z"/><path d="m-1680-2480v-16h-64v16z"/><path d="m-1456-2496h-64-160 160z"/><path d="m-1232-2496h-64-160 160z"/><path d="m-1232-2496h80-144z"/><path d="m-1680-2176v-16h-64v16z"/><path d="m-1680-2192h-64z"/><path d="m-3232-2688h128z"/><path d="m-3104-3168h-96v96h96z"/><path d="m-3232-2688v-160-64z"/><path d="m-3232-2912v-160-64z"/><path d="m-3232-3136v-160-64z"/><path d="m-3232-3520v160z"/><path d="m-3264-2496h64 96z"/><path d="m-3296-2496h32z"/><path d="m-3456-2496h160z"/><path d="m-3520-2496h64z"/><path d="m-2848 128h-128v128h128z"/><path d="m-2208-32h-128v128h128z"/><path d="m-1536 64h-128v128h128z"/><path d="m-864 0h-128v128h128z"/><path d="m-1664 64v128z"/><path d="m-992 0v128z"/><path d="m-1536 64h-128z"/><path d="m320 3776v64z"/><path d="m384 3744h-64v32h64z"/><path d="m256 3680h64z"/><path d="m256 3616h-32v64h32z"/><path d="m224 3840h-64z"/><path d="m160 3744v-64z"/><path d="m256 3680h-32-64v64 32 64h64 32 64v-64-32-64z"/><path d="m160 3744h-64v32h64z"/><path d="m256 3840h-32v64h32z"/><path d="m-512 3680h-64z"/><path d="m-576 3584v-64z"/><path d="m-480 3520h64z"/><path d="m-480 3456h-32v64h32z"/><path d="m-416 3616v64z"/><path d="m-352 3584h-64v32h64z"/><path d="m-480 3520h-32-64v64 32 64h64 32 64v-64-32-64z"/><path d="m-576 3584h-64v32h64z"/><path d="m-480 3680h-32v64h32z"/><path d="m-2048 3616v-64z"/><path d="m-1248 3680h64z"/><path d="m-1248 3616h-32v64h32z"/><path d="m-1344 3744v-64z"/><path d="m-1280 3840h-64z"/><path d="m-1184 3776v64z"/><path d="m-1120 3744h-64v32h64z"/><path d="m-1280 3840h32 64v-64-32-64h-64-32-64v64 32 64z"/><path d="m-1248 3840h-32v64h32z"/><path d="m-1344 3744h-64v32h64z"/><path d="m-1984 3712h-64z"/><path d="m-1952 3552h64z"/><path d="m-1952 3488h-32v64h32z"/><path d="m-1824 3616h-64v32h64z"/><path d="m-1984 3712h32 64v-64-32-64h-64-32-64v64 32 64z"/><path d="m-1952 3712h-32v64h32z"/><path d="m-2048 3616h-64v32h64z"/><path d="m-2816 3776v-64z"/><path d="m-2720 3712h64z"/><path d="m-2720 3648h-32v64h32z"/><path d="m-2752 3872h-64z"/><path d="m-2656 3808v64z"/><path d="m-2592 3776h-64v32h64z"/><path d="m-2656 3808v-32-64h-64-32-64v64 32 64h64 32 64z"/><path d="m-2720 3872h-32v64h32z"/><path d="m-2816 3776h-64v32h64z"/><path d="m-3520 256h-128v128h128z"/><path d="m-3552 928h-128v128h128z"/><path d="m-3680 1632h-128v128h128z"/><path d="m-3488 2288h-128v128h128z"/><path d="m-3712 2944h-128v128h128z"/><path d="m-3424 3680h-128v128h128z"/><path d="m-2304-2176h224z"/><path d="m-2080-2176h32z"/><path d="m-2304-2176h-160-64z"/><path d="m-2880-2176h-224z"/><path d="m-2656-2176h-224z"/><path d="m-2528-2176h-128z"/><path d="m-3104-2176h-96-32z"/><path d="m-2048-2496h64 160z"/><path d="m-1744-2496h-80z"/><path d="m-2464-2496h32 192z"/><path d="m-2240-2496h32 160z"/><path d="m-2464-2496h-64z"/><path d="m-3104-2496h224z"/><path d="m-2880-2496h224z"/><path d="m-2656-2496h128z"/><path d="m-704-192h64z"/><path d="m0-192h-64z"/><path d="m1408 3616v-192-24 120z"/><path d="m1408 3400v-8z"/><path d="m1408 3744v-128z"/><path d="m1408 3960v-24-192z"/><path d="m1408 3968v-8z"/><path d="m-3328 3968h224z"/><path d="m-3104 3968h224z"/><path d="m-2880 3968h224z"/><path d="m-2656 3968h224z"/><path d="m-2432 3968h224z"/><path d="m-2208 3968h224z"/><path d="m-1984 3968h224z"/><path d="m-1760 3968h224z"/><path d="m-1536 3968h224z"/><path d="m-1312 3968h224z"/><path d="m-1088 3968h224z"/><path d="m-864 3968h224z"/><path d="m-640 3968h224z"/><path d="m-416 3968h224z"/><path d="m-192 3968h224z"/><path d="m32 3968h224z"/><path d="m256 3968h224z"/><path d="m480 3968h224z"/><path d="m704 3968h224z"/><path d="m928 3968h224z"/><path d="m1152 3968h224z"/><path d="m1408 3968h-32z"/><path d="m-3328 3392v8z"/><path d="m-3328 3392v-224z"/><path d="m-3328 3168v-224z"/><path d="m-3328 2944v-224z"/><path d="m-3328 2720v-224z"/><path d="m-3328 2496v-224z"/><path d="m-3328 2272v-224z"/><path d="m-3328 2048v-224z"/><path d="m-3328 1824v-224z"/><path d="m-3328 1600v-224z"/><path d="m-3328 1376v-224z"/><path d="m-3328 1152v-224z"/><path d="m-3328 928v-224z"/><path d="m-3328 704v-224z"/><path d="m-3328 352v128z"/><path d="m-3264 3392h224z"/><path d="m-3040 3392h224z"/><path d="m-2816 3392h224z"/><path d="m-2592 3392h224z"/><path d="m-2368 3392h224z"/><path d="m-2144 3392h224z"/><path d="m-1920 3392h224z"/><path d="m-1504 3392h-192z"/><path d="m-3264 3392h-64z"/><path d="m0-192v64z"/><path d="m-3328 352h224z"/><path d="m-3104 352h224z"/><path d="m-2880 352h224z"/><path d="m-2656 352h224z"/><path d="m-2432 352h224z"/><path d="m-2208 352h224z"/><path d="m-1984 352h224z"/><path d="m-1760 352h224z"/><path d="m-1536 352h224z"/><path d="m-1312 352h224z"/><path d="m-1088 352h224z"/><path d="m-864 352h224z"/><path d="m-640 352h224z"/><path d="m-352 352h-64z"/><path d="m1392 3936h16-48z"/><path d="m1136 3712v128 96-64z"/><path d="m1136 3488v128 96-64z"/><path d="m1360 3424h-224z"/><path d="m1392 3744v-128h16v128z"/><path d="m1136 3840v-128-96h224v224z"/><path d="m1360 3936h-224v-96h224z"/><path d="m1392 3616v128 96h-32v-224z"/><path d="m1392 3840v96h-32v-96z"/><path d="m1408 3936h-16v-96-96h16z"/><path d="m1136 3616v-128-64h224v192z"/><path d="m1360 3424h48v192h-16-32z"/><path d="m1392 3616h-8v128h8z"/><path d="m-288-256h-96z"/><path d="m-384-3264h-96v-96h96z"/><path d="m-256-2720h-96v-96h96z"/><path d="m-288-2080h-96v-96h96z"/><path d="m-288-1600v96h-96v-96z"/><path d="m-288-352v96h-96v-96z"/><path d="m-320-992v96h-96v-96z"/><path d="m-288-2080h-96z"/><path d="m-352-2816h96z"/><path d="m-384-3264h-96z"/><path d="m-384-3360v96z"/><path d="m-480-3264v-96z"/><path d="m-480-3360h96z"/><path d="m-384-2176h96z"/><path d="m-256-2720h-96z"/><path d="m-352-2720v-96z"/><path d="m-256-2816v96z"/><path d="m-384-2080v-96z"/><path d="m-288-2176v96z"/><path d="m-288-1504h-96z"/><path d="m-384-1504v-96z"/><path d="m-384-1600h96z"/><path d="m-288-1600v96z"/><path d="m-320-896h-96z"/><path d="m-320-992v96z"/><path d="m-416-896v-96z"/><path d="m-384-256v-96z"/><path d="m-288-352v96z"/><path d="m-3104-3168v96z"/><path d="m-992-3296v96h-96v-96z"/><path d="m-1536-3360h-96v-96h96z"/><path d="m-2048-3168h-96v-96h96z"/><path d="m-2624-3328h-96v-96h96z"/><path d="m-2048-3264v96z"/><path d="m-1536-3456v96z"/><path d="m-1088-3200v-96z"/><path d="m-992-3296v96z"/><path d="m-992-3200h-96z"/><path d="m-1632-3360v-96z"/><path d="m-1536-3360h-96z"/><path d="m-1632-3456h96z"/><path d="m-2624-3424v96z"/><path d="m-2144-3168v-96z"/><path d="m-2144-3264h96z"/><path d="m-2048-3168h-96z"/><path d="m-2720-3328v-96z"/><path d="m-2624-3328h-96z"/><path d="m-2720-3424h96z"/><path d="m-1088-2304v-64z"/><path d="m-1024-2304h-64v-64h64z"/><path d="m-768-2624h-96v-96h96z"/><path d="m-768-2624h-96z"/><path d="m-864-2720h96z"/><path d="m-864-2624v-96z"/><path d="m-768-2720v96z"/><path d="m-1088-2368h64z"/><path d="m-1024-2368v64z"/><path d="m-1024-2304h-64z"/><path d="m-2688-2816h-96z"/><path d="m-1280-2976h96z"/><path d="m-1760-2848v-96z"/><path d="m-1280-2880v-96z"/><path d="m-1184-2880h-96v-96h96z"/><path d="m-1184-2976v96z"/><path d="m-1184-2880h-96z"/><path d="m-1664-2944v96z"/><path d="m-1664-2944v96h-96v-96z"/><path d="m-1664-2848h-96z"/><path d="m-2272-2848v-96z"/><path d="m-2176-2944v96z"/><path d="m-2176-2848h-96v-96h96z"/><path d="m-2272-2944h96z"/><path d="m-2176-2848h-96z"/><path d="m-2688-2912v96z"/><path d="m-2784-2912h96v96h-96z"/><path d="m-2784-2912h96z"/><path d="m-3200-3072v-96z"/><path d="m-3104-3072h-96z"/><path d="m-3200-3168h96z"/><path d="m-3104-3072h-96v-96h96z"/><path d="m-2848 256h-128v-128h128z"/><path d="m-2208 96h-128v-128h128z"/><path d="m-1664 64h128v128h-128z"/><path d="m-992 0h128v128h-128z"/><path d="m-864 0v128z"/><path d="m-1536 64v128z"/><path d="m-864 128h-128z"/><path d="m-992 0h128z"/><path d="m-1536 192h-128z"/><path d="m-2336 96v-128z"/><path d="m-2208-32v128z"/><path d="m-2208 96h-128z"/><path d="m-2336-32h128z"/><path d="m-2848 128v128z"/><path d="m-2976 128h128z"/><path d="m-2976 256v-128z"/><path d="m-2848 256h-128z"/><path d="m320 3680v64z"/><path d="m320 3744h64z"/><path d="m384 3744v32z"/><path d="m384 3776h-64v-32h64z"/><path d="m384 3776h-64z"/><path d="m-352 3584v32z"/><path d="m96 3776v-32z"/><path d="m160 3680h64z"/><path d="m256 3680h-32v-64h32z"/><path d="m224 3616h32z"/><path d="m224 3680v-64z"/><path d="m256 3616v64z"/><path d="m256 3904h-32v-64h32z"/><path d="m256 3840h-32-64v-64-32-64h64 32 64v64 32 64z"/><path d="m160 3776h-64v-32h64z"/><path d="m320 3840h-64z"/><path d="m160 3840v-64z"/><path d="m96 3744h64z"/><path d="m160 3776h-64z"/><path d="m224 3904v-64z"/><path d="m256 3840v64z"/><path d="m256 3904h-32z"/><path d="m-416 3680h-64z"/><path d="m-480 3520h-32v-64h32z"/><path d="m-480 3680h-32-64v-64-32-64h64 32 64v64 32 64z"/><path d="m-352 3616h-64v-32h64z"/><path d="m-576 3616h-64v-32h64z"/><path d="m-576 3680v-64z"/><path d="m-576 3520h64z"/><path d="m-480 3456v64z"/><path d="m-512 3456h32z"/><path d="m-512 3520v-64z"/><path d="m-416 3520v64z"/><path d="m-416 3584h64z"/><path d="m-352 3616h-64z"/><path d="m-640 3584h64z"/><path d="m-576 3616h-64z"/><path d="m-640 3616v-32z"/><path d="m-480 3744h-32v-64h32z"/><path d="m-512 3744v-64z"/><path d="m-480 3744h-32z"/><path d="m-480 3680v64z"/><path d="m-2720 3936h-32z"/><path d="m-2048 3712v-64z"/><path d="m-1120 3744v32z"/><path d="m-1344 3680h64z"/><path d="m-1248 3680h-32v-64h32z"/><path d="m-1280 3680v-64z"/><path d="m-1280 3616h32z"/><path d="m-1248 3616v64z"/><path d="m-1120 3776h-64v-32h64z"/><path d="m-1280 3680h32 64v64 32 64h-64-32-64v-64-32-64z"/><path d="m-1248 3904h-32v-64h32z"/><path d="m-1344 3776h-64v-32h64z"/><path d="m-1344 3840v-64z"/><path d="m-1184 3840h-64z"/><path d="m-1184 3680v64z"/><path d="m-1184 3744h64z"/><path d="m-1120 3776h-64z"/><path d="m-1248 3840v64z"/><path d="m-1280 3904v-64z"/><path d="m-1248 3904h-32z"/><path d="m-1344 3776h-64z"/><path d="m-1408 3744h64z"/><path d="m-1408 3776v-32z"/><path d="m-1824 3616v32z"/><path d="m-1888 3712h-64z"/><path d="m-1824 3648h-64v-32h64z"/><path d="m-1984 3552h32 64v64 32 64h-64-32-64v-64-32-64z"/><path d="m-1952 3552h-32v-64h32z"/><path d="m-2048 3552h64z"/><path d="m-1952 3488v64z"/><path d="m-1984 3488h32z"/><path d="m-1984 3552v-64z"/><path d="m-1888 3552v64z"/><path d="m-1888 3648v64z"/><path d="m-1888 3616h64z"/><path d="m-1824 3648h-64z"/><path d="m-1952 3776h-32v-64h32z"/><path d="m-1952 3712v64z"/><path d="m-1952 3776h-32z"/><path d="m-1984 3776v-64z"/><path d="m-2592 3776v32z"/><path d="m-2048 3648h-64z"/><path d="m-2112 3648v-32z"/><path d="m-2048 3648h-64v-32h64z"/><path d="m-2112 3616h64z"/><path d="m-2880 3808v-32z"/><path d="m-2752 3648h32z"/><path d="m-2592 3808h-64v-32h64z"/><path d="m-2816 3808h-64v-32h64z"/><path d="m-2720 3872h-32-64v-64-32-64h64 32 64v64 32 64z"/><path d="m-2720 3936h-32v-64h32z"/><path d="m-2720 3712h-32v-64h32z"/><path d="m-2816 3872v-64z"/><path d="m-2816 3712h64z"/><path d="m-2720 3648v64z"/><path d="m-2752 3712v-64z"/><path d="m-2656 3872h-64z"/><path d="m-2656 3712v64z"/><path d="m-2656 3776h64z"/><path d="m-2592 3808h-64z"/><path d="m-2720 3872v64z"/><path d="m-2752 3936v-64z"/><path d="m-2880 3776h64z"/><path d="m-2816 3808h-64z"/><path d="m-3520 384h-128v-128h128z"/><path d="m-3552 1056h-128v-128h128z"/><path d="m-3680 1760h-128v-128h128z"/><path d="m-3488 2416h-128v-128h128z"/><path d="m-3712 3072h-128v-128h128z"/><path d="m-3424 3808h-128v-128h128z"/><path d="m-3680 1760h-128z"/><path d="m-3680 928h128z"/><path d="m-3520 384h-128z"/><path d="m-3648 384v-128z"/><path d="m-3648 256h128z"/><path d="m-3520 256v128z"/><path d="m-3552 1056h-128z"/><path d="m-3680 1056v-128z"/><path d="m-3552 928v128z"/><path d="m-3808 1632h128z"/><path d="m-3680 1632v128z"/><path d="m-3808 1760v-128z"/><path d="m-3840 2944h128z"/><path d="m-3616 2288h128z"/><path d="m-3616 2416v-128z"/><path d="m-3488 2416h-128z"/><path d="m-3488 2288v128z"/><path d="m-3552 3680h128z"/><path d="m-3712 3072h-128z"/><path d="m-3712 2944v128z"/><path d="m-3840 3072v-128z"/><path d="m-3552 3808v-128z"/><path d="m-3424 3808h-128z"/><path d="m-3424 3680v128z"/><path d="m-2464-2176h160-128z"/><path d="m-2464-2496h-64v16h64z"/><path d="m-2464-2192h-64v16h64z"/><path d="m-704-192h-128z"/><path d="m-3296-192h-224z"/><path d="m-3072-192h-224z"/><path d="m-2848-192h-224z"/><path d="m-2624-192h-224z"/><path d="m-2400-192h-224z"/><path d="m-2176-192h-224z"/><path d="m-1952-192h-224z"/><path d="m-1728-192h-224z"/><path d="m-1504-192h-224z"/><path d="m-1280-192h-224z"/><path d="m-1056-192h-224z"/><path d="m-832-192h-224z"/><path d="m-64-1504v-96-128z"/><path d="m-64-1728v-96-128z"/><path d="m-64-1952v-96-128z"/><path d="m-64-2176v-96-128z"/><path d="m-64-2400v-96-128z"/><path d="m-64-2624v-96-128z"/><path d="m-64-2848v-96-128z"/><path d="m-64-3264v192z"/><path d="m-3904-2400v192 32z"/><path d="m-3904-2624v192 32-160z"/><path d="m-3904-2848v192 32-160z"/><path d="m-3904-3072v192 32-160z"/><path d="m-3904-3296v192 32-160z"/><path d="m-3904-3520v192 32-160z"/><path d="m-3904-3744v192 32-160z"/><path d="m-3680-3776h-224z"/><path d="m-640-3040v-64z"/><path d="m-1088-2176h224z"/><path d="m-768-2176h-96z"/><path d="m-1088-2176h-64z"/><path d="m-1664-2176h224z"/><path d="m-1440-2176h224z"/><path d="m-1152-2176h-64z"/><path d="m-1680-2176h16z"/><path d="m-1680-2176h-64z"/><path d="m-2048-2176h224z"/><path d="m-1744-2176h-80z"/><path d="m-2048-2176h-32z"/><path d="m-3520-2176h64-64-32-128z"/><path d="m-3520-3776v32 128z"/><path d="m-3520-2432v-64 96z"/><path d="m-3456-2176v-320z"/><path d="m-2784-3104h224z"/><path d="m-2560-3104h224z"/><path d="m-2336-3104h224z"/><path d="m-2112-3104h224z"/><path d="m-1888-3104h224z"/><path d="m-1664-3104h224z"/><path d="m-1440-3104h224z"/><path d="m-1216-3104h224z"/><path d="m-992-3104h224z"/><path d="m-640-3104h-128z"/><path d="m-1088-2464v-160-64z"/><path d="m-1088-3040h224z"/><path d="m-768-3040h-96z"/><path d="m-2784-3040v-64z"/><path d="m-2784-3040h224z"/><path d="m-2560-3040h224z"/><path d="m-2336-3040h224z"/><path d="m-2112-3040h64 160z"/><path d="m-1888-3040h224z"/><path d="m-1664-3040h224z"/><path d="m-1440-3040h224z"/><path d="m-1216-3040h128z"/><path d="m-1152-2496v32z"/><path d="m-1152-2464h64z"/><path d="m-1696-2368h-64z"/><path d="m-1744-2480v-16z"/><path d="m-1680-2496v16h-64v-16z"/><path d="m-1520-2496h-160-64 208z"/><path d="m-1296-2496h-160-64 208z"/><path d="m-1680-2496v16z"/><path d="m-1152-2496h-80z"/><path d="m-1680-2480h-64z"/><path d="m-1696-2304v-64h-64v64z"/><path d="m-1744-2176v-16z"/><path d="m-1680-2192v16z"/><path d="m-1680-2192v16h-64v-16z"/><path d="m-3904-3744v-32h224v224h-224z"/><path d="m-3680-3552v224h-224v-192-32z"/><path d="m-3680-3328v224h-224v-192-32z"/><path d="m-3680-3104v224h-224v-192-32z"/><path d="m-3680-2880v224h-224v-192-32z"/><path d="m-3680-2656v224h-224v-192-32z"/><path d="m-3680-2432v224h-224v-192-32z"/><path d="m-3680-2208v32h-224v-32z"/><path d="m-3680-3776h160v160 64h-160z"/><path d="m-3520-3552v160 64h-160v-224z"/><path d="m-3520-3328v160 64h-160v-224z"/><path d="m-3520-3104v160 64h-160v-224z"/><path d="m-3520-2880v160 64h-160v-224z"/><path d="m-3520-2656v160 64h-160v-224z"/><path d="m-3520-2432v32 192h-160v-224z"/><path d="m-3520-2208v32h-160v-32z"/><path d="m-3968-192v128z"/><path d="m-3968 3488v32 192-192z"/><path d="m-3968 3264v32 192-192z"/><path d="m-3968 3040v32 192-192z"/><path d="m-3968 2816v32 192-192z"/><path d="m-3968 2592v32 192-192z"/><path d="m-3968 2368v32 192-192z"/><path d="m-3968 2144v32 192-192z"/><path d="m-3968 1920v32 192-192z"/><path d="m-3968 1696v32 192-192z"/><path d="m-3968 1472v32 192-192z"/><path d="m-3968 1248v32 192-192z"/><path d="m-3968 1024v32 192-192z"/><path d="m-3968 800v32 192-192z"/><path d="m-3968 576v32 192-192z"/><path d="m-3968 352v32 192-192z"/><path d="m-3968 128v32 192-192z"/><path d="m1408 3392v8z"/><path d="m-3744 3968h-128-96z"/><path d="m-3520 3968h-192-32z"/><path d="m-3328 3968h-160z"/><path d="m1312 3392h96-224z"/><path d="m-928 3392h-128-96 96z"/><path d="m-704 3392h-128-96 96z"/><path d="m-480 3392h-128-96 96z"/><path d="m-256 3392h-128-96 96z"/><path d="m-32 3392h-128-96 96z"/><path d="m192 3392h-128-96 96z"/><path d="m416 3392h-128-96 96z"/><path d="m640 3392h-128-96 96z"/><path d="m864 3392h-128-96 96z"/><path d="m1088 3392h-128-96 96z"/><path d="m1312 3392h-128-96 96z"/><path d="m0 128v192 32z"/><path d="m-128 352h-224z"/><path d="m-352 96v32z"/><path d="m0 96h-128z"/><path d="m-128 96h-224v32 192h224z"/><path d="m-352 320v32h224v-32z"/><path d="m0 320v-192-32h-128v224z"/><path d="m0 352v-32h-128v32z"/><path d="m-1280 3400h128 1824-1472-704z"/><path d="m672 3400h-576-800-96-352z"/><path d="m-1504 3400v-8z"/><path d="m-1280 3392h-224v8h224z"/><path d="m-1152 3400v-8h-128v8z"/><path d="m-1152 3400v56z"/><path d="m-1280 3456h-224z"/><path d="m-1280 3400h-224v56h224z"/><path d="m-1152 3456v-56h-128v56z"/><path d="m-3872-96v128 64-64z"/><path d="m-3648-96h-224z"/><path d="m-3648-192h-96-128v96h224z"/><path d="m-3520-96v-96h-128v96z"/><path d="m-3872 32v-128-96h-96v128 96z"/><path d="m-3968 96h96v-64h-96z"/><path d="m-3712 3872h-160v64 32h128 32z"/><path d="m-3872 3936v-64-160h-96v32 192z"/><path d="m-3968 3968h96v-32h-96z"/><path d="m1408 3400v120z"/><path d="m1408 3616h-16z"/><path d="m1392 3616h16z"/><path d="m1408 3744h-16z"/><path d="m1392 3744h16z"/><path d="m1392 3616v128z"/><path d="m1392 3744v-128z"/><path d="m1408 3744h-16v-128h16z"/><path d="m1408 3616h-16v128h16z"/><path d="m1384 3616h8z"/><path d="m1392 3744h-8z"/><path d="m1392 3744h-8v-128h8z"/><path d="m1392 3616v128z"/><path d="m1384 3744v-128z"/><path d="m-704-192h-128z"/><path d="m-3744-192h-128-96z"/><path d="m-3520-192h-128-96z"/><path d="m-3296-192h-224z"/><path d="m-3072-192h-224z"/><path d="m-2848-192h-224z"/><path d="m-2624-192h-224z"/><path d="m-2400-192h-224z"/><path d="m-2176-192h-224z"/><path d="m-1952-192h-224z"/><path d="m-1728-192h-224z"/><path d="m-1504-192h-224z"/><path d="m-1280-192h-224z"/><path d="m-1056-192h-224z"/><path d="m-832-192h-224z"/><path d="m-3968 3744v128 96-64z"/><path d="m-3968 3520v192 32-64z"/><path d="m-3968 3296v192 32-64z"/><path d="m-3968 3072v192 32-64z"/><path d="m-3968 2848v192 32-64z"/><path d="m-3968 2624v192 32-64z"/><path d="m-3968 2400v192 32-64z"/><path d="m-3968 2176v192 32-64z"/><path d="m-3968 1952v192 32-64z"/><path d="m-3968 1728v192 32-64z"/><path d="m-3968 1504v192 32-64z"/><path d="m-3968 1280v192 32-64z"/><path d="m-3968 1056v192 32-64z"/><path d="m-3968 832v192 32-64z"/><path d="m-3968 608v192 32-64z"/><path d="m-3968 384v192 32-64z"/><path d="m-3968 160v192 32-64z"/><path d="m-3968-64v96 64 32 32-64-64z"/><path d="m-3968 96v32z"/><path d="m-3488 3968h-32-192 192z"/><path d="m-3488 3968h160-192z"/><path d="m-1280 3392h-224z"/><path d="m-1056 3392h-96-128z"/><path d="m-832 3392h-96-128z"/><path d="m-608 3392h-96-128z"/><path d="m-384 3392h-96-128z"/><path d="m-160 3392h-96-128z"/><path d="m64 3392h-96-128z"/><path d="m288 3392h-96-128z"/><path d="m512 3392h-96-128z"/><path d="m736 3392h-96-128z"/><path d="m960 3392h-96-128z"/><path d="m1184 3392h-96-128z"/><path d="m1408 3392h-96z"/><path d="m0-128v32 192z"/><path d="m0-128v-64 96z"/><path d="m0 352h-128z"/><path d="m-352 128v192 32-32z"/><path d="m-128 96h-224z"/><path d="m-352 320v-192-32h224v224z"/><path d="m-128 352h-224v-32h224z"/><path d="m0 96v32 192h-128v-224z"/><path d="m0 320v32h-128v-32z"/><path d="m-1280 3400h128-352z"/><path d="m-1152 3392v8z"/><path d="m-1280 3400h-224v-8h224z"/><path d="m-1152 3392v8h-128v-8z"/><path d="m-1504 3456v-56z"/><path d="m-1152 3456h-128z"/><path d="m-1280 3456h-224v-56h224z"/><path d="m-1152 3400v56h-128v-56z"/><path d="m-3872 96h-96z"/><path d="m-3520-192v96z"/><path d="m-3520-96h-128z"/><path d="m-3648-96h-224v-96h128 96z"/><path d="m-3520-192v96h-128v-96z"/><path d="m-3968 32v-96-128h96v96 128z"/><path d="m-3872 96h-96v-64h96z"/><path d="m-3968 3712h96z"/><path d="m-3712 3872v96z"/><path d="m-3968 3968v-96h96 128v96z"/><path d="m-3744 3872h32v96h-32z"/><path d="m-3968 3872v-128-32h96v160z"/><path d="m-3872 3712v160z"/><path d="m-3744 3872h-128 160z"/><path d="m-704-2400v32 192z"/><path d="m-704-2624v32 192z"/><path d="m-704-2848v32 192z"/><path d="m-704-2816v-32-192h-64v192 32z"/><path d="m-704-2592v-32-192h-64v192 32z"/><path d="m-704-2368v-32-192h-64v192 32z"/><path d="m-768-2176h64v-192h-64z"/><path d="m-768-3040v192z"/><path d="m-1696-2304h-64z"/><path d="m-1696-2368v64z"/><path d="m-1760-2304v-64z"/><path d="m-1696-2368v64h-64v-64z"/><path d="m-2240-2368h-64v64h64z"/><path d="m-64-192h64z"/><path d="m-416-192h-224 32z"/><path d="m-192-192h-224 32z"/><path d="m-64-3264v-128z"/><path d="m-64-3488v96 128z"/><path d="m-64-3520v32z"/><path d="m-64-416v160 64z"/><path d="m-64-640v160 64z"/><path d="m-64-864v160 64z"/><path d="m-64-1088v160 64z"/><path d="m-64-1312v160 64z"/><path d="m-64-1504v128z"/><path d="m-3904-3008v160 64-64z"/><path d="m-3904-3232v160 64-64z"/><path d="m-3904-3456v160 64-64z"/><path d="m-3904-3680v160 64-64z"/><path d="m-3904-3776v32z"/><path d="m-3904-2784v160 64z"/><path d="m-3520-3776h-160z"/><path d="m-3680-3776h-224z"/><path d="m-640-2944v-96 160z"/><path d="m-640-480v64 160z"/><path d="m-640-704v64 160z"/><path d="m-640-928v64 160z"/><path d="m-640-1152v64 160z"/><path d="m-640-1376v64 160z"/><path d="m-640-1600v64 160z"/><path d="m-640-1824v64 160z"/><path d="m-640-2048v64 160z"/><path d="m-640-2272v64 160z"/><path d="m-640-2496v64 160z"/><path d="m-640-2720v64 160z"/><path d="m-640-2944v64 160z"/><path d="m-64-256h-128z"/><path d="m-416-3520h-224z"/><path d="m-128-3520h64-128z"/><path d="m-128-3520h-64v64h64z"/><path d="m-64-3488v-32h-64v64 64h64z"/><path d="m-416-256h-224v64h224z"/><path d="m-192-256h-224v64h224z"/><path d="m-64-192v-64h-128v64z"/><path d="m-768-2176h64z"/><path d="m-3200-2176h96z"/><path d="m-3520-2176h64 160z"/><path d="m-3520-2176h-32z"/><path d="m-3776-2176h-128z"/><path d="m-3232-2176h-32-32-160z"/><path d="m-3680-2176h-96-128z"/><path d="m-3520-3776v32z"/><path d="m-3520-2720v160 64-160z"/><path d="m-3520-2944v96 64 64-160z"/><path d="m-3520-3168v96 128-160z"/><path d="m-3520-3392v96 128-160z"/><path d="m-3520-3616v96 128-160z"/><path d="m-3520-2784v-64z"/><path d="m-2944-3520h-64-160 160z"/><path d="m-2720-3520h-64-160 160z"/><path d="m-2496-3520h-64-160 160z"/><path d="m-2272-3520h-64-160 160z"/><path d="m-2048-3520h-64-160 160z"/><path d="m-1824-3520h-64-160 160z"/><path d="m-1600-3520h-64-160 160z"/><path d="m-1376-3520h-64-160 160z"/><path d="m-1152-3520h-64-160 160z"/><path d="m-928-3520h-64-160 160z"/><path d="m-704-3520h-64-160 160z"/><path d="m-640-3520h-64z"/><path d="m-704-3040v192z"/><path d="m-768-2400v32 192-192z"/><path d="m-768-2624v32 192-192z"/><path d="m-768-2848v32 192-192z"/><path d="m-768-2816v-32-192h64v192 32z"/><path d="m-768-2592v-32-192h64v192 32z"/><path d="m-768-2368v-32-192h64v192 32z"/><path d="m-704-2176h-64v-192h64z"/><path d="m-1088-2688h-224z"/><path d="m-2880-2688h-224z"/><path d="m-2656-2688h-224z"/><path d="m-2432-2688h-224z"/><path d="m-2208-2688h-224z"/><path d="m-1984-2688h-224z"/><path d="m-1760-2688h-224z"/><path d="m-1536-2688h-224z"/><path d="m-1312-2688h-224z"/><path d="m-3104-2688h-64-64z"/><path d="m-3168-3360v-160h-64v160 64h64z"/><path d="m-3232-3296v160 64h64v-64-160z"/><path d="m-3232-3072v160 64h64v-64-160z"/><path d="m-3232-2848v160h64v-160z"/><path d="m-3168-2912v64 160-160z"/><path d="m-3168-3136v64 160-160z"/><path d="m-3168-3360v64 160-160z"/><path d="m-3232-3520v160z"/><path d="m-3200-2496h-64v16h64z"/><path d="m-3200-2192h-64v16h32 32z"/><path d="m-3456-2176h-64v-320h64z"/><path d="m-3456-2496h-64v320h64z"/><path d="m-3520-2496-160-1280h-224v32 64 160 64 160 64 160 64 160 64 160 64 160 224h128 96 128 32z"/><path d="m-3520-2496v-64-160-64-64-96-128-96-128-96-128-96-128-32h-160z"/><path d="m-3904-2400 224-1376h160v32 128 96 128 96 128 96 128 96 64 64 160 64 320h-32-128-96-128z"/><path d="m-3904-2400v-160-64-160-64-160-64-160-64-160-64-160-64-32h224z"/><path d="m-3456-3776h-448v1600h448z"/><path d="m-2080-2176h32-160z"/><path d="m-2080-2176h-128-96z"/><path d="m-2464-2480h-64v-16h64z"/><path d="m-2880-2496h-224z"/><path d="m-2656-2496h-224z"/><path d="m-2432-2496h-32-64-128z"/><path d="m-2208-2496h-32-192z"/><path d="m-1984-2496h-64-160z"/><path d="m-1760-2496h-64-160z"/><path d="m-1536-2496h-208-16z"/><path d="m-1312-2496h-208-16z"/><path d="m-1152-2496h-80-64z"/><path d="m-2528-2480v-16z"/><path d="m-2464-2480h-64z"/><path d="m-1760-2496h16-80z"/><path d="m-2464-2496v16z"/><path d="m-2464-2192v16z"/><path d="m-2528-2176v-16z"/><path d="m-2464-2176h-64v-16h64z"/><path d="m-2528-2192h64z"/><path d="m-704-192h-128z"/><path d="m-160-192h96-128z"/><path d="m-64-3456v-64 128z"/><path d="m-416-3520h-224z"/><path d="m-192-3520h-224z"/><path d="m-192-3520h-224z"/><path d="m-64-3392h-64z"/><path d="m-192-3456v-64z"/><path d="m-128-3456h-64z"/><path d="m-64-3520v64h-64-64v-64z"/><path d="m-128-3392v-64z"/><path d="m-64-3392h-64v-64h64z"/><path d="m-3008-3520h-160-64 128z"/><path d="m-2784-3520h-160-64z"/><path d="m-2560-3520h-160-64z"/><path d="m-2336-3520h-160-64z"/><path d="m-2112-3520h-160-64z"/><path d="m-1888-3520h-160-64z"/><path d="m-1664-3520h-160-64z"/><path d="m-1440-3520h-160-64z"/><path d="m-1216-3520h-160-64z"/><path d="m-992-3520h-160-64z"/><path d="m-768-3520h-160-64z"/><path d="m-640-3520h-64-64z"/><path d="m-1088-2688h-224z"/><path d="m-2880-2688h-224z"/><path d="m-2656-2688h-224z"/><path d="m-2432-2688h-224z"/><path d="m-2208-2688h-224z"/><path d="m-1984-2688h-224z"/><path d="m-1760-2688h-224z"/><path d="m-1536-2688h-224z"/><path d="m-1312-2688h-224z"/><path d="m-2304-2304h64z"/><path d="m-2240-2368h-64z"/><path d="m-2240-2304v-64z"/><path d="m-2304-2368v64z"/><path d="m-2240-2304h-64v-64h64z"/><path d="m-2720-2368h-64v64h64z"/><path d="m-3104-2688h-64z"/><path d="m-3168-3520v160z"/><path d="m-3232-3360v-160h64v160 64h-64z"/><path d="m-3168-3296v160 64h-64v-64-160z"/><path d="m-3168-3072v160 64h-64v-64-160z"/><path d="m-3168-2848v160h-64v-160z"/><path d="m-3232-2912v64 160z"/><path d="m-3232-3136v64 160z"/><path d="m-3232-3360v64 160z"/><path d="m-3968-192v128z"/><path d="m1408 3520v224-128z"/><path d="m1408 3960v8z"/><path d="m-3744 3968h-224z"/><path d="m-3520 3968h-224 32z"/><path d="m-3104 3968h-224z"/><path d="m-2880 3968h-224z"/><path d="m-2656 3968h-224z"/><path d="m-2432 3968h-224z"/><path d="m-2208 3968h-224z"/><path d="m-1984 3968h-224z"/><path d="m-1760 3968h-224z"/><path d="m-1536 3968h-224z"/><path d="m-1312 3968h-224z"/><path d="m-1088 3968h-224z"/><path d="m-864 3968h-224z"/><path d="m-640 3968h-224z"/><path d="m-416 3968h-224z"/><path d="m-192 3968h-224z"/><path d="m32 3968h-224z"/><path d="m256 3968h-224z"/><path d="m480 3968h-224z"/><path d="m704 3968h-224z"/><path d="m928 3968h-224z"/><path d="m1152 3968h-224z"/><path d="m1376 3968h-224z"/><path d="m-3744 96h-224v64 160h224z"/><path d="m-3968 320v64 160h224v-224z"/><path d="m-3968 544v64 160h224v-224z"/><path d="m-3968 768v64 160h224v-224z"/><path d="m-3968 992v64 160h224v-224z"/><path d="m-3968 1216v64 160h224v-224z"/><path d="m-3968 1440v64 160h224v-224z"/><path d="m-3968 1664v64 160h224v-224z"/><path d="m-3968 1888v64 160h224v-224z"/><path d="m-3968 2112v64 160h224v-224z"/><path d="m-3968 2336v64 160h224v-224z"/><path d="m-3968 2560v64 160h224v-224z"/><path d="m-3968 2784v64 160h224v-224z"/><path d="m-3968 3008v64 160h224v-224z"/><path d="m-3968 3232v64 160h224v-224z"/><path d="m-3968 3456v64 160h224v-224z"/><path d="m-3968 3680v64 160h224v-224z"/><path d="m-3968 3904v64h224v-64z"/><path d="m-3520 96h-224v224h224z"/><path d="m-3744 320v224h224v-224z"/><path d="m-3744 544v224h224v-224z"/><path d="m-3744 768v224h224v-224z"/><path d="m-3744 992v224h224v-224z"/><path d="m-3744 1216v224h224v-224z"/><path d="m-3744 1440v224h224v-224z"/><path d="m-3744 1664v224h224v-224z"/><path d="m-3744 1888v224h224v-224z"/><path d="m-3744 2112v224h224v-224z"/><path d="m-3744 2336v224h224v-224z"/><path d="m-3744 2560v224h224v-224z"/><path d="m-3744 2784v224h224v-224z"/><path d="m-3744 3008v224h224v-224z"/><path d="m-3744 3232v224h224v-224z"/><path d="m-3744 3456v224h224v-224z"/><path d="m-3744 3680v224h224v-224z"/><path d="m-3744 3904v64h224v-64z"/><path d="m-3328 96h-192v224h192z"/><path d="m-3520 320v224h192v-64-128-32z"/><path d="m-3520 544v224h192v-64-160z"/><path d="m-3520 768v224h192v-64-160z"/><path d="m-3520 992v224h192v-64-160z"/><path d="m-3520 1216v224h192v-64-160z"/><path d="m-3520 1440v224h192v-64-160z"/><path d="m-3520 1664v224h192v-64-160z"/><path d="m-3520 1888v224h192v-64-160z"/><path d="m-3520 2112v224h192v-64-160z"/><path d="m-3520 2336v224h192v-64-160z"/><path d="m-3520 2560v224h192v-64-160z"/><path d="m-3520 2784v224h192v-64-160z"/><path d="m-3520 3008v224h192v-64-160z"/><path d="m-3520 3232v224h192v-56-8-160z"/><path d="m-3520 3456v224h192v-64-96-64z"/><path d="m-3520 3680v224h192v-160-64z"/><path d="m-3520 3904v64h192v-8-56z"/><path d="m-3104 96h-192-32v224h224z"/><path d="m-3328 320v32h224v-32z"/><path d="m-2880 96h-192-32v224h224z"/><path d="m-3104 320v32h224v-32z"/><path d="m-2656 96h-192-32v224h224z"/><path d="m-2880 320v32h224v-32z"/><path d="m-2432 96h-192-32v224h224z"/><path d="m-2656 320v32h224v-32z"/><path d="m-2208 96h-192-32v224h224z"/><path d="m-2432 320v32h224v-32z"/><path d="m-1984 96h-192-32v224h224z"/><path d="m-2208 320v32h224v-32z"/><path d="m-1760 96h-192-32v224h224z"/><path d="m-1984 320v32h224v-32z"/><path d="m-1536 96h-192-32v224h224z"/><path d="m-1760 320v32h224v-32z"/><path d="m-1312 96h-192-32v224h224z"/><path d="m-1536 320v32h224v-32z"/><path d="m-1088 96h-192-32v224h224z"/><path d="m-1312 320v32h224v-32z"/><path d="m-864 96h-192-32v224h224z"/><path d="m-1088 320v32h224v-32z"/><path d="m-640 96h-192-32v224h224z"/><path d="m-864 320v32h224v-32z"/><path d="m-416 96h-192-32v224h224z"/><path d="m-640 320v32h224v-32z"/><path d="m-192 96h-192-32v224h224z"/><path d="m-416 320v32h64 160v-32z"/><path d="m0 320v-192-32h-160-32v224z"/><path d="m-128 352h128v-32h-192v32z"/><path d="m-3744-192h-224v128 96h224z"/><path d="m-3968 32v64h224v-64z"/><path d="m-3520-192h-224v224h224z"/><path d="m-3744 32v64h224v-64z"/><path d="m-3296-192h-224v224h224z"/><path d="m-3520 32v64h192 32v-64z"/><path d="m-3072-192h-224v224h224z"/><path d="m-3296 32v64h192 32v-64z"/><path d="m-2848-192h-224v224h224z"/><path d="m-3072 32v64h192 32v-64z"/><path d="m-2624-192h-224v224h224z"/><path d="m-2848 32v64h192 32v-64z"/><path d="m-2400-192h-224v224h224z"/><path d="m-2624 32v64h192 32v-64z"/><path d="m-2176-192h-224v224h224z"/><path d="m-2400 32v64h192 32v-64z"/><path d="m-1952-192h-224v224h224z"/><path d="m-2176 32v64h192 32v-64z"/><path d="m-1728-192h-224v224h224z"/><path d="m-1952 32v64h192 32v-64z"/><path d="m-1504-192h-224v224h224z"/><path d="m-1728 32v64h192 32v-64z"/><path d="m-1280-192h-224v224h224z"/><path d="m-1504 32v64h192 32v-64z"/><path d="m-1056-192h-224v224h224z"/><path d="m-1280 32v64h192 32v-64z"/><path d="m-832-192h-224v224h224z"/><path d="m-1056 32v64h192 32v-64z"/><path d="m-608-192h-32-64-128v224h224z"/><path d="m-832 32v64h192 32v-64z"/><path d="m-384-192h-32-192v224h224z"/><path d="m-608 32v64h192 32v-64z"/><path d="m-160-192h-32-192v224h224z"/><path d="m-384 32v64h192 32v-64z"/><path d="m0 32v-128-96h-64-96v224z"/><path d="m0 96v-64h-160v64z"/><path d="m-3328 3744v160 56 8z"/><path d="m-3328 3520v96 64 64z"/><path d="m-3328 3960v8z"/><path d="m-3328 3968v-8z"/><path d="m-3328 3400v-8z"/><path d="m-3328 3168v64 160z"/><path d="m-3328 2944v64 160z"/><path d="m-3328 2720v64 160z"/><path d="m-3328 2496v64 160z"/><path d="m-3328 2272v64 160z"/><path d="m-3328 2048v64 160z"/><path d="m-3328 1824v64 160z"/><path d="m-3328 1600v64 160z"/><path d="m-3328 1376v64 160z"/><path d="m-3328 1152v64 160z"/><path d="m-3328 928v64 160z"/><path d="m-3328 704v64 160z"/><path d="m-3328 480v64 160z"/><path d="m1408 3392h-96-128z"/><path d="m-1504 3392h-192z"/><path d="m-3328 3392h64z"/><path d="m0 128v192 32-32z"/><path d="m0-96v128 64 32-32z"/><path d="m-3104 352h-224z"/><path d="m-2880 352h-224z"/><path d="m-2656 352h-224z"/><path d="m-2432 352h-224z"/><path d="m-2208 352h-224z"/><path d="m-1984 352h-224z"/><path d="m-1760 352h-224z"/><path d="m-1536 352h-224z"/><path d="m-1312 352h-224z"/><path d="m-1088 352h-224z"/><path d="m-864 352h-224z"/><path d="m-640 352h-224z"/><path d="m-416 352h-224z"/><path d="m-128 352h-64-160z"/><path d="m-2720 3400h-608z"/><path d="m-3328 3400h608z"/><path d="m-2592 3400h1088-1088-32z"/><path d="m-1152 3400h-128-224z"/><path d="m-800 3400h96 800 576-1824z"/><path d="m1408 3400h-640z"/><path d="m-800 3960v-184z"/><path d="m-704 3960v-184z"/><path d="m-704 3776v184z"/><path d="m768 3400v184z"/><path d="m672 3400v184z"/><path d="m672 3584v-184z"/><path d="m768 3584h-96z"/><path d="m672 3584h96z"/><path d="m96 3960h672 640-640-1472z"/><path d="m-704 3776h-96z"/><path d="m-800 3776h96z"/><path d="m-2720 3400v216z"/><path d="m-2720 3616v-216z"/><path d="m-2720 3616h96z"/><path d="m-2624 3616h-96z"/><path d="m-2624 3400v216z"/><path d="m-2592 3960h1792-1792-736z"/><path d="m-3456-2176h-448z"/><path d="m-3904-3776h448z"/><path d="m-3904-2176v-1600z"/><path d="m-3456-3776v1600z"/><path d="m-3456-2176h-448v-1600h448z"/><path d="m-3904-3072v64 160-160z"/><path d="m-3904-3296v64 160-160z"/><path d="m-3904-3520v64 160-160z"/><path d="m-3904-3744v64 160-160z"/><path d="m-3904-3744v-32 32 64z"/><path d="m-3904-2560v-224z"/><path d="m-3520-2848h-16v64h16z"/><path d="m-3888-2848h-16v64h16z"/><path d="m-3520-2496v-64z"/><path d="m-2720-2304h-64z"/><path d="m-2784-2368h64z"/><path d="m-2720-2368v64z"/><path d="m-2784-2304v-64z"/><path d="m-2720-2304h-64v-64h64z"/><path d="m-3264-2304h32z"/><path d="m-3232-2304h-32v64h32z"/><path d="m-3264-2304h-32v64h32z"/><path d="m-3264-2240h-32z"/><path d="m-3328 3392v8 56 64z"/><path d="m-64-1728v224z"/><path d="m-64-1952v224z"/><path d="m-64-2176v224z"/><path d="m-64-2400v224z"/><path d="m-64-2624v224z"/><path d="m-64-2848v224z"/><path d="m-64-3072v224z"/><path d="m-64-480v224-160z"/><path d="m-64-704v224-160z"/><path d="m-64-928v224-160z"/><path d="m-64-1152v224-160z"/><path d="m-64-1376v224-160z"/><path d="m-3904-3776h224z"/><path d="m-3520-3776h-160z"/><path d="m-640-3040v96z"/><path d="m-416-256h-224z"/><path d="m-192-256h-224z"/><path d="m-64-3520h-128z"/><path d="m-864-2176h-224z"/><path d="m-1664-2176h224z"/><path d="m-1440-2176h224z"/><path d="m-1152-2176h-64z"/><path d="m-1680-2176h16z"/><path d="m-1680-2176h-64z"/><path d="m-2048-2176h224z"/><path d="m-1744-2176h-80z"/><path d="m-3104-2176h224z"/><path d="m-2880-2176h224z"/><path d="m-2656-2176h128 64 32z"/><path d="m-2432-2176h128 96z"/><path d="m-2048-2176h-64-96z"/><path d="m-3200-2176h96-160z"/><path d="m-3264-2176h-32z"/><path d="m-3296-2176h-160-64z"/><path d="m-3520-2560v-160-64z"/><path d="m-3264-2192v16z"/><path d="m-3264-2480v-16z"/><path d="m-2560-3104h-224z"/><path d="m-2336-3104h-224z"/><path d="m-2112-3104h-224z"/><path d="m-1888-3104h-224z"/><path d="m-1664-3104h-224z"/><path d="m-1440-3104h-224z"/><path d="m-1216-3104h-224z"/><path d="m-992-3104h-224z"/><path d="m-768-3104h-224z"/><path d="m-704-2400v224-192z"/><path d="m-704-2624v224-192z"/><path d="m-704-2848v224-192z"/><path d="m-1152-2496v32z"/><path d="m-2880-2496h-224 96z"/><path d="m-2656-2496h-224 96z"/><path d="m-2432-2496h-224 96z"/><path d="m-2208-2496h-224 96z"/><path d="m-1984-2496h-224 96z"/><path d="m-1760-2496h-224 96z"/><path d="m-1536-2496h-224 96z"/><path d="m-1312-2496h-224 96z"/><path d="m-768-3040h64z"/><path d="m-768-3040h-96z"/><path d="m-2880-2688h-224z"/><path d="m-2656-2688h-224z"/><path d="m-2432-2688h-224z"/><path d="m-2208-2688h-224z"/><path d="m-1984-2688h-64-160z"/><path d="m-1760-2688h-224z"/><path d="m-1536-2688h-224z"/><path d="m-1312-2688h-224z"/><path d="m-2784-3104v64z"/><path d="m-1152-2496h-144-16z"/><path d="m-3104-2688h-128 64z"/><path d="m-3232-3520v160z"/><path d="m-3200-2480h-64v-16h64z"/><path d="m-3104-2496h-96-64 32z"/><path d="m-3200-2480h-64z"/><path d="m-3200-2496v16z"/><path d="m-3200-2496h96z"/><path d="m-3200-2192v16z"/><path d="m-3200-2176h-64v-16h64z"/><path d="m-3200-2192h-64z"/><path d="m-3264-2496h-32z"/><path d="m-3296-2496h-160z"/><path d="m-3456-2496h-64z"/><path d="m-3904-2400v224z"/><path d="m-3904-2560v160z"/><path d="m-3904-2176v-128-96z"/><path d="m-3264-2176h160-128-64z"/><path d="m-3776-2176h-64-64z"/><path d="m-3296-2240v-64z"/><path d="m-3232-2240h-32v-64h32z"/><path d="m-3232-2240h-32z"/><path d="m-3232-2304v64z"/><path d="m-3296-2304h32z"/><path d="m-3264-2240h-32v-64h32z"/><path d="m-3712-2400h-64v64h64z"/><path d="m-3904-3232v160 64-64z"/><path d="m-3904-3456v160 64-64z"/><path d="m-3904-3680v160 64-64z"/><path d="m-3904-3776v32z"/><path d="m-3776-2176h96 128z"/><path d="m-3520-2176h-32z"/><path d="m-3520-3072v64 160-96z"/><path d="m-3520-3296v64 160-96z"/><path d="m-3520-3520v64 160-96z"/><path d="m-3520-3744v64 160-96z"/><path d="m-3520-3744v-32 32 64z"/><path d="m-3520-2784v224z"/><path d="m-1088-2624v160z"/><path d="m-1088-2464h-64z"/><path d="m-3904-2848h16z"/><path d="m-3536-2848h16z"/><path d="m-3888-2784h-16z"/><path d="m-3520-2784h-16z"/><path d="m-3888-2848v64z"/><path d="m-3536-2784v-64z"/><path d="m-3520-2784h-16v-64h16z"/><path d="m-3888-2784h-16v-64h16z"/><path d="m-3904-3744v-32 32 64z"/><path d="m-3904-3296v64 160-160z"/><path d="m-3904-3520v64 160z"/><path d="m-3904-3744v64 160z"/><path d="m-3520-3776v32z"/><path d="m-3520-3232v160 64-64z"/><path d="m-3520-3456v160 64-64z"/><path d="m-3520-3680v160 64-64z"/><path d="m-3520-3008v224-64z"/><path d="m-3520-3072h-16v64h16z"/><path d="m-3888-3072h-16v64h16z"/><path d="m-3712-2848h-64v64h64z"/><path d="m-3712-2336h-64v-64h64z"/><path d="m-3776-2400h64z"/><path d="m-3712-2400v64z"/><path d="m-3712-2336h-64z"/><path d="m-3776-2336v-64z"/><path d="m-3904-2784v224z"/><path d="m-3904-2784v-224 160z"/><path d="m-3712-3264h-64v64h64z"/><path d="m-3712-2784h-64z"/><path d="m-3712-2848v64z"/><path d="m-3712-2784h-64v-64h64z"/><path d="m-3776-2848h64z"/><path d="m-3776-2784v-64z"/><path d="m-3904-3520v224z"/><path d="m-3904-3744v224-64z"/><path d="m-3904-3776v32z"/><path d="m-3904-2560v-96-128z"/><path d="m-3904-3008v224z"/><path d="m-3520-3296v64 160-160z"/><path d="m-3520-3520v224-160z"/><path d="m-3520-3744v224-160z"/><path d="m-3520-3776v32z"/><path d="m-3520-2496v-64z"/><path d="m-3520-2496h64z"/><path d="m-3520-3296h-16v64h16z"/><path d="m-3520-3072h-16z"/><path d="m-3888-3296h-16v64h16z"/><path d="m-3904-3776v32z"/><path d="m-3904-3072v-160z"/><path d="m-3904-3072v64z"/><path d="m-3520-3776h-160z"/><path d="m-1440-2176h-224z"/><path d="m-1216-2176h-224z"/><path d="m-1664-2176h-16z"/><path d="m-1824-2176h-64-160z"/><path d="m-2880-2176h-128-96z"/><path d="m-2656-2176h-128-96z"/><path d="m-2432-2176h-128-96z"/><path d="m-2208-2176h-128-96z"/><path d="m-3520-3520v-64z"/><path d="m-3520-3744v160 64z"/><path d="m-3520-3520v64 160z"/><path d="m-3520-3232v160z"/><path d="m-3520-3072v-160 128 96z"/><path d="m-3520-2560v64z"/><path d="m-3520-2496v64 32z"/><path d="m-3232-2496h-32-32-160v224h224z"/><path d="m-3456-2272v96h160 64v-96z"/><path d="m-3008-2496h-96-128v224h224z"/><path d="m-3232-2272v96h128 96v-96z"/><path d="m-2784-2496h-96-128v224h224z"/><path d="m-3008-2272v96h128 96v-96z"/><path d="m-2560-2496h-96-128v224h224z"/><path d="m-2784-2272v96h128 96v-96z"/><path d="m-2336-2496h-96-128v224h224z"/><path d="m-2560-2272v96h128 96v-96z"/><path d="m-2112-2496h-96-128v224h224z"/><path d="m-2336-2272v96h128 96v-96z"/><path d="m-1888-2496h-96-128v224h224z"/><path d="m-2112-2272v96h64 160v-96z"/><path d="m-1664-2496h-96-128v224h224z"/><path d="m-1888-2272v96h64 80 64 16v-96z"/><path d="m-1440-2496h-96-128v224h224z"/><path d="m-1664-2272v96h224v-96z"/><path d="m-1216-2496h-96-128v224h224z"/><path d="m-1440-2272v96h224v-96z"/><path d="m-1152-2272v-128-64-32h-64v224z"/><path d="m-1152-2176v-96h-64v96z"/><path d="m-1152-2464h64z"/><path d="m-1152-2400v128 96z"/><path d="m-1216-2496h64-160z"/><path d="m-3296-2496h32z"/><path d="m-3456-2496h160z"/><path d="m-3456-2496h-64v96 128h64z"/><path d="m-3520-2272v96h64v-96z"/><path d="m-3888-3008h-16z"/><path d="m-3520-3008h-16z"/><path d="m-3680-3584h-224z"/><path d="m-3680-3776h-224v32 160h224z"/><path d="m-3520-3584v-160-32h-160v192z"/><path d="m-3712-3200v-64z"/><path d="m-3520-3008h-16v-64h16z"/><path d="m-3536-3008v-64z"/><path d="m-3776-3200h64z"/><path d="m-3776-3264v64z"/><path d="m-3712-3200h-64v-64h64z"/><path d="m-3712-3264h-64z"/><path d="m-3888-3008h-16v-64h16z"/><path d="m-3888-3072h-16z"/><path d="m-3888-3008v-64z"/><path d="m-3904-2176v-128z"/><path d="m-3904-2400v-88-8-64z"/><path d="m-3840-2496v-64h-64v64z"/><path d="m-3904-2488v-8z"/><path d="m-3904-2304v-128-56 88z"/><path d="m-1152-2464h64z"/><path d="m-1152-2176v-224z"/><path d="m-1152-2464v64z"/><path d="m-3848-2560h-16-8-16-8-8 64z"/><path d="m-3864-2568h-8v8h8z"/><path d="m-3840-2568h-8v8h8z"/><path d="m-3888-2568h-8v8h8z"/><path d="m-3896-2496h16 8 16 8 8-64z"/><path d="m-3896-2560h8 16 8 16 8v8 8 16 8 16 8h-8-8-16-8-16-8v-64z"/><path d="m-3832-2528h-8v8h8z"/><path d="m-3832-2504h-8v8h8z"/><path d="m-3832-2552h-8v8h8z"/><path d="m-3840-2504v-16-8-16-8-8 64z"/><path d="m-3872-2496h-8v8h8z"/><path d="m-3848-2496h-8v8h8z"/><path d="m-3896-2496h-8v8h8z"/><path d="m-3840-2304h-64z"/><path d="m-3840-2176v-64-64h-64v128z"/><path d="m-3776-2176v-64h-64v64z"/><path d="m-3776-2240h-64z"/><path d="m-3904-2304v128-32z"/><path d="m-3680-3776h-224z"/><path d="m-3552-2176h-128-96z"/><path d="m-3552-2176h32-160z"/><path d="m-3520-3776v32z"/><path d="m-3520-3584h-160z"/><path d="m-3680-3584h-224v-192h224z"/><path d="m-3520-3776v32 160h-160v-192z"/><path d="m-3776-2240v64z"/><path d="m-3840-2304v64z"/><path d="m-3776-2240v64h-64v-64z"/><path d="m-3840-2304v64 64h-64v-128z"/><path d="m-3904-3296v-32-192z"/><path d="m-3520-3744v-32 96z"/><path d="m-3520-3744v64 160-64z"/><path d="m-3536-3296h16z"/><path d="m-3904-3296h16z"/><path d="m-3520-3232h-16z"/><path d="m-3536-3232v-64z"/><path d="m-3520-3232h-16v-64h16z"/><path d="m-3888-3232h-16v-64h16z"/><path d="m-3888-3296v64z"/><path d="m-3888-3232h-16z"/><path d="m-3904-2496v-64z"/><path d="m-3864-2560h-8v-8h8z"/><path d="m-3840-2560h-8v-8h8z"/><path d="m-3888-2560h-8v-8h8z"/><path d="m-3832-2544h-8v-8h8z"/><path d="m-3832-2496h-8v-8h8z"/><path d="m-3832-2520h-8v-8h8z"/><path d="m-3896-2496h16 8 16 8 8v-8-16-8-16-8-8h-8-16-8-16-8-8v64z"/><path d="m-3872-2488h-8v-8h8z"/><path d="m-3848-2488h-8v-8h8z"/><path d="m-3896-2488h-8v-8h8z"/><path d="m-3896-2568h8z"/><path d="m-3848-2568h8z"/><path d="m-3872-2568h8z"/><path d="m-3888-2560h-8z"/><path d="m-3840-2560h-8z"/><path d="m-3864-2560h-8z"/><path d="m-3840-2568v8z"/><path d="m-3872-2560v-8z"/><path d="m-3864-2568v8z"/><path d="m-3848-2560v-8z"/><path d="m-3888-2568v8z"/><path d="m-3896-2560v-8z"/><path d="m-3832-2496h-8z"/><path d="m-3880-2496h8z"/><path d="m-3856-2496h8z"/><path d="m-3904-2496h8z"/><path d="m-3832-2552v8z"/><path d="m-3832-2504v8z"/><path d="m-3832-2528v8z"/><path d="m-3840-2528h8z"/><path d="m-3840-2544v-8z"/><path d="m-3832-2544h-8z"/><path d="m-3840-2552h8z"/><path d="m-3840-2496v-8z"/><path d="m-3840-2520v-8z"/><path d="m-3840-2504h8z"/><path d="m-3832-2520h-8z"/><path d="m-3896-2488h-8z"/><path d="m-3848-2488h-8z"/><path d="m-3872-2488h-8z"/><path d="m-3848-2496v8z"/><path d="m-3880-2488v-8z"/><path d="m-3872-2496v8z"/><path d="m-3856-2488v-8z"/><path d="m-3896-2496v8z"/><path d="m-3904-2488v-8z"/><path d="m-3840-2560v64h-64v-64z"/><path d="m-3904-2560h8 8 16 8 16 8z"/><path d="m-3840-2496h-8-8-16-8-16-8z"/><path d="m-3840-2560v8 8 16 8 16 8z"/><path d="m-3904-3584v-192z"/><path d="m-3904-3520v-32-32z"/><path d="m-3904-3008v-96-128 160z"/><path d="m-3904-3232v-64z"/><path d="m-3904-2880v-128 224z"/><path d="m-3904-2488v-72 64z"/><path d="m-3520-3776h-160z"/><path d="m-3680-2176h-224 64 64z"/><path d="m-3520-3456v128 96-64z"/><path d="m-3520-3680v128 96-64z"/><path d="m-3520-2784v128 96z"/><path d="m-3520-3008v128 96z"/><path d="m-3520-2400v192 32-96z"/><path d="m-3680-3776h-224v192 32h224z"/><path d="m-3904-3552v32 192h224v-224z"/><path d="m-3904-3328v32 64 128h224v-224z"/><path d="m-3904-3104v96 128h224v-224z"/><path d="m-3904-2880v96 128h224v-224z"/><path d="m-3904-2656v96 72 56h224v-224z"/><path d="m-3904-2432v128 96h224v-224z"/><path d="m-3904-2208v32h224v-32z"/><path d="m-3520-3680v-96h-160v224h160z"/><path d="m-3680-3552v224h160v-128-96z"/><path d="m-3680-3328v224h160v-128-96z"/><path d="m-3680-3104v224h160v-128-96z"/><path d="m-3680-2880v224h160v-128-96z"/><path d="m-3680-2656v224h160v-64-64-96z"/><path d="m-3680-2432v224h160v-192-32z"/><path d="m-3680-2208v32h160v-32z"/><path d="m-1152-2464v64z"/></g></defs><path d="m-4505-4313h6450v8818h-6450z" fill="#fff"/><g stroke="#000"><use fill="none" stroke-miterlimit="0" stroke-width="15" xlink:href="#a"/><use fill="#fff" xlink:href="#a"/></g></svg>