<?xml version="1.0" encoding="utf-8" ?>
<svg baseProfile="tiny" height="100%" version="1.2" viewBox="-179.0 -1075.0 998.0 1126.0" width="100%" xmlns="http://www.w3.org/2000/svg" xmlns:ev="http://www.w3.org/2001/xml-events" xmlns:xlink="http://www.w3.org/1999/xlink"><defs><g id="bsp_ref"><polygon points="736,-32 736,-32 576,-32 576,-32" /><polygon points="128,-992 -96,-992 -96,-992 128,-992" /><polygon points="352,-992 128,-992 128,-992 352,-992" /><polygon points="576,-992 352,-992 352,-992 576,-992" /><polygon points="-96,-768 -96,-928 -96,-992 128,-992 128,-768" /><polygon points="-96,-544 -96,-704 -96,-768 128,-768 128,-544" /><polygon points="-96,-320 -96,-480 -96,-544 128,-544 128,-320" /><polygon points="-96,-96 -96,-256 -96,-320 128,-320 128,-96" /><polygon points="128,-32 -96,-32 -96,-96 128,-96" /><polygon points="128,-768 128,-992 352,-992 352,-768" /><polygon points="128,-544 128,-768 352,-768 352,-544" /><polygon points="128,-320 128,-544 352,-544 352,-320" /><polygon points="128,-96 128,-320 352,-320 352,-96" /><polygon points="352,-32 128,-32 128,-96 352,-96" /><polygon points="352,-768 352,-992 576,-992 576,-768" /><polygon points="352,-544 352,-768 576,-768 576,-544" /><polygon points="352,-320 352,-544 576,-544 576,-320" /><polygon points="352,-96 352,-320 576,-320 576,-96" /><polygon points="576,-32 352,-32 352,-96 576,-96" /><polygon points="736,-992 736,-928 736,-768 576,-768 576,-992" /><polygon points="736,-768 736,-704 736,-544 576,-544 576,-768" /><polygon points="736,-544 736,-480 736,-320 576,-320 576,-544" /><polygon points="736,-320 736,-256 736,-96 576,-96 576,-320" /><polygon points="736,-96 736,-32 576,-32 576,-96" /><polygon points="-96,-32 -96,-32 128,-32 128,-32" /><polygon points="128,-32 128,-32 352,-32 352,-32" /><polygon points="352,-32 352,-32 576,-32 576,-32" /><polygon points="736,-32 736,-32 576,-32 576,-32" /><polygon points="-96,-992 -96,-992 128,-992 128,-992" /><polygon points="128,-992 128,-992 352,-992 352,-992" /><polygon points="352,-992 352,-992 576,-992 576,-992" /><polygon points="736,-992 736,-992 576,-992 576,-992" /><polygon points="736,-32 736,-32 736,-96 736,-256 736,-256" /><polygon points="736,-256 736,-256 736,-320 736,-480 736,-480" /><polygon points="736,-480 736,-480 736,-544 736,-704 736,-704" /><polygon points="736,-704 736,-704 736,-768 736,-928 736,-928" /><polygon points="736,-928 736,-928 736,-992 736,-992" /><polygon points="-96,-256 -96,-256 -96,-96 -96,-32 -96,-32" /><polygon points="-96,-480 -96,-480 -96,-320 -96,-256 -96,-256" /><polygon points="-96,-704 -96,-704 -96,-544 -96,-480 -96,-480" /><polygon points="-96,-928 -96,-928 -96,-768 -96,-704 -96,-704" /><polygon points="-96,-992 -96,-992 -96,-928 -96,-928" /><polygon points="-96,-32 -96,-32 128,-32 128,-32" /><polygon points="128,-32 128,-32 352,-32 352,-32" /><polygon points="352,-32 352,-32 576,-32 576,-32" /><polygon points="736,-32 736,-32 576,-32 576,-32" /><polygon points="-96,-992 -96,-992 128,-992 128,-992" /><polygon points="128,-992 128,-992 352,-992 352,-992" /><polygon points="352,-992 352,-992 576,-992 576,-992" /><polygon points="736,-992 736,-992 576,-992 576,-992" /><polygon points="736,-32 736,-32 736,-256 736,-256" /><polygon points="736,-256 736,-256 736,-480 736,-480" /><polygon points="736,-480 736,-480 736,-704 736,-704" /><polygon points="736,-704 736,-704 736,-928 736,-928" /><polygon points="736,-928 736,-928 736,-992 736,-992" /><polygon points="-96,-256 -96,-256 -96,-32 -96,-32" /><polygon points="-96,-480 -96,-480 -96,-256 -96,-256" /><polygon points="-96,-704 -96,-704 -96,-480 -96,-480" /><polygon points="-96,-928 -96,-928 -96,-704 -96,-704" /><polygon points="-96,-992 -96,-992 -96,-928 -96,-928" /><polygon points="224,-672 224,-856.6696 93,-803 23.2171,-632.6696 224,-632.6696" /><polygon points="23.2171,-632.6696 0,-576 68.5539,-408.6696 224,-408.6696 224,-448 224,-632.6696" /><polygon points="68.5539,-408.6696 93,-349 224,-295.3304 224,-408.6696" /><polygon points="448,-843.5595 320,-896 224,-856.6696 224,-672 448,-672" /><polygon points="224,-672 224,-632.6696 224,-448 448,-448 448,-619.5595 448,-672" /><polygon points="224,-448 224,-408.6696 224,-295.3304 320,-256 448,-308.4406 448,-395.5594 448,-448" /><polygon points="622.1541,-619.5595 547,-803 448,-843.5595 448,-672 448,-619.5595" /><polygon points="566.075,-395.5594 640,-576 622.1541,-619.5595 448,-619.5595 448,-448 448,-395.5594" /><polygon points="547,-349 566.075,-395.5594 448,-395.5594 448,-308.4406" /><polygon points="448,-843.5595 320,-896 320,-896 448,-843.5595 547,-803 547,-803" /><polygon points="224,-856.6696 93,-803 93,-803 224,-856.6696 320,-896 320,-896" /><polygon points="68.5539,-408.6696 93,-349 93,-349 68.5539,-408.6696 0,-576 0,-576" /><polygon points="224,-295.3304 320,-256 320,-256 224,-295.3304 93,-349 93,-349" /><polygon points="23.2171,-632.6696 93,-803 224,-856.6696 224,-672 224,-632.6696" /><polygon points="68.5539,-408.6696 0,-576 23.2171,-632.6696 224,-632.6696 224,-448 224,-408.6696" /><polygon points="224,-295.3304 93,-349 68.5539,-408.6696 224,-408.6696" /><polygon points="224,-672 224,-856.6696 320,-896 448,-843.5595 448,-672" /><polygon points="224,-448 224,-632.6696 224,-672 448,-672 448,-619.5595 448,-448" /><polygon points="448,-395.5594 448,-308.4406 320,-256 224,-295.3304 224,-408.6696 224,-448 448,-448" /><polygon points="547,-803 622.1541,-619.5595 448,-619.5595 448,-672 448,-843.5595" /><polygon points="622.1541,-619.5595 640,-576 566.075,-395.5594 448,-395.5594 448,-448 448,-619.5595" /><polygon points="566.075,-395.5594 547,-349 448,-308.4406 448,-395.5594" /><polygon points="622.1541,-619.5595 547,-803 547,-803 622.1541,-619.5595 640,-576 640,-576" /><polygon points="23.2171,-632.6696 0,-576 0,-576 23.2171,-632.6696 93,-803 93,-803" /><polygon points="448,-308.4406 547,-349 547,-349 448,-308.4406 320,-256 320,-256" /><polygon points="566.075,-395.5594 640,-576 640,-576 566.075,-395.5594 547,-349 547,-349" /><polygon points="263,-633 247.8187,-595.3768 256,-576 275,-621 283.5714,-641.3008" /><polygon points="320,-512 275,-531 254.6992,-539.5714 263,-519 300.6232,-503.8187" /><polygon points="392.1813,-556.6232 384,-576 365,-531 356.4286,-510.6992 377,-519" /><polygon points="385.3008,-612.4286 365,-621 384,-576 392.1813,-556.6232 400,-576" /><polygon points="320,-640 365,-621 385.3008,-612.4286 377,-633 320,-656 300.6232,-648.1813" /><polygon points="275,-531 256,-576 275,-621 320,-640 365,-621 384,-576 365,-531 320,-512" /><polygon points="320,-512 365,-531 384,-576 365,-621 320,-640 275,-621 256,-576 275,-531" /><polygon points="320,-496 356.4286,-510.6992 365,-531 320,-512 300.6232,-503.8187" /><polygon points="275,-531 256,-576 247.8187,-595.3768 240,-576 254.6992,-539.5714" /><polygon points="320,-640 300.6232,-648.1813 283.5714,-641.3008 275,-621" /><polygon points="365,-621 320,-640 320,-640 365,-621" /><polygon points="384,-576 365,-621 365,-621 384,-576" /><polygon points="365,-531 384,-576 384,-576 365,-531" /><polygon points="320,-512 365,-531 365,-531 320,-512" /><polygon points="275,-621 256,-576 256,-576 275,-621" /><polygon points="256,-576 275,-531 275,-531 256,-576" /><polygon points="275,-531 320,-512 320,-512 275,-531" /><polygon points="365,-621 320,-640 320,-640 365,-621" /><polygon points="384,-576 365,-621 365,-621 384,-576" /><polygon points="365,-531 384,-576 384,-576 365,-531" /><polygon points="320,-512 365,-531 365,-531 320,-512" /><polygon points="275,-621 256,-576 256,-576 275,-621" /><polygon points="256,-576 275,-531 320,-512 365,-531 384,-576 365,-621 320,-640 275,-621" /><polygon points="275,-621 320,-640 365,-621 384,-576 365,-531 320,-512 275,-531 256,-576" /><polygon points="256,-576 275,-531 275,-531 256,-576" /><polygon points="275,-531 320,-512 320,-512 275,-531" /><polygon points="320,-640 320,-640 275,-621 275,-621" /><polygon points="283.5714,-641.3008 275,-621 256,-576 247.8187,-595.3768 263,-633" /><polygon points="254.6992,-539.5714 275,-531 320,-512 300.6232,-503.8187 263,-519" /><polygon points="365,-531 384,-576 392.1813,-556.6232 377,-519 356.4286,-510.6992" /><polygon points="384,-576 365,-621 385.3008,-612.4286 400,-576 392.1813,-556.6232" /><polygon points="377,-633 385.3008,-612.4286 365,-621 320,-640 300.6232,-648.1813 320,-656" /><polygon points="320,-512 365,-531 356.4286,-510.6992 320,-496 300.6232,-503.8187" /><polygon points="254.6992,-539.5714 240,-576 247.8187,-595.3768 256,-576 275,-531" /><polygon points="300.6232,-648.1813 320,-640 275,-621 283.5714,-641.3008" /><polygon points="377,-633 320,-656 320,-656 377,-633" /><polygon points="320,-656 300.6232,-648.1813 283.5714,-641.3008 263,-633 263,-633 283.5714,-641.3008 300.6232,-648.1813 320,-656" /><polygon points="400,-576 385.3008,-612.4286 377,-633 377,-633 385.3008,-612.4286 400,-576" /><polygon points="377,-519 392.1813,-556.6232 400,-576 400,-576 392.1813,-556.6232 377,-519" /><polygon points="320,-496 356.4286,-510.6992 377,-519 377,-519 356.4286,-510.6992 320,-496" /><polygon points="263,-519 300.6232,-503.8187 320,-496 320,-496 300.6232,-503.8187 263,-519" /><polygon points="240,-576 254.6992,-539.5714 263,-519 263,-519 254.6992,-539.5714 240,-576" /><polygon points="320,-640 320,-640 275,-621 275,-621" /><polygon points="263,-633 247.8187,-595.3768 240,-576 240,-576 247.8187,-595.3768 263,-633" /><polygon points="-96,-32 -96,-32 128,-32 128,-32" /><polygon points="128,-32 128,-32 352,-32 352,-32" /><polygon points="352,-32 352,-32 576,-32 576,-32" /><polygon points="736,-32 736,-32 576,-32 576,-32" /><polygon points="-96,-992 -96,-992 128,-992 128,-992" /><polygon points="128,-992 128,-992 352,-992 352,-992" /><polygon points="352,-992 352,-992 576,-992 576,-992" /><polygon points="736,-992 736,-992 576,-992 576,-992" /><polygon points="736,-32 736,-32 736,-256 736,-256" /><polygon points="736,-256 736,-256 736,-480 736,-480" /><polygon points="736,-480 736,-480 736,-704 736,-704" /><polygon points="736,-704 736,-704 736,-928 736,-928" /><polygon points="736,-928 736,-928 736,-992 736,-992" /><polygon points="-96,-256 -96,-256 -96,-32 -96,-32" /><polygon points="-96,-480 -96,-480 -96,-256 -96,-256" /><polygon points="-96,-704 -96,-704 -96,-480 -96,-480" /><polygon points="-96,-928 -96,-928 -96,-704 -96,-704" /><polygon points="-96,-992 -96,-992 -96,-928 -96,-928" /><polygon points="263,-633 247.8187,-595.3768 256,-576 275,-621 283.5714,-641.3008" /><polygon points="320,-512 275,-531 254.6992,-539.5714 263,-519 300.6232,-503.8187" /><polygon points="392.1813,-556.6232 384,-576 365,-531 356.4286,-510.6992 377,-519" /><polygon points="385.3008,-612.4286 365,-621 384,-576 392.1813,-556.6232 400,-576" /><polygon points="320,-640 365,-621 385.3008,-612.4286 377,-633 320,-656 300.6232,-648.1813" /><polygon points="320,-496 356.4286,-510.6992 365,-531 320,-512 300.6232,-503.8187" /><polygon points="275,-531 256,-576 247.8187,-595.3768 240,-576 254.6992,-539.5714" /><polygon points="320,-640 300.6232,-648.1813 283.5714,-641.3008 275,-621" /><polygon points="365,-621 320,-640 320,-640 365,-621" /><polygon points="384,-576 365,-621 365,-621 384,-576" /><polygon points="365,-531 384,-576 384,-576 365,-531" /><polygon points="320,-512 365,-531 365,-531 320,-512" /><polygon points="256,-576 275,-531 275,-531 256,-576" /><polygon points="275,-531 320,-512 320,-512 275,-531" /><polygon points="275,-621 256,-576 256,-576 275,-621" /><polygon points="365,-621 320,-640 320,-640 365,-621" /><polygon points="384,-576 365,-621 365,-621 384,-576" /><polygon points="365,-531 384,-576 384,-576 365,-531" /><polygon points="320,-512 365,-531 365,-531 320,-512" /><polygon points="275,-531 256,-576 275,-621 320,-640 365,-621 384,-576 365,-531 320,-512" /><polygon points="320,-512 365,-531 384,-576 365,-621 320,-640 275,-621 256,-576 275,-531" /><polygon points="256,-576 275,-531 275,-531 256,-576" /><polygon points="275,-531 320,-512 320,-512 275,-531" /><polygon points="275,-621 256,-576 256,-576 275,-621" /><polygon points="320,-640 320,-640 275,-621 275,-621" /><polygon points="283.5714,-641.3008 275,-621 256,-576 247.8187,-595.3768 263,-633" /><polygon points="254.6992,-539.5714 275,-531 320,-512 300.6232,-503.8187 263,-519" /><polygon points="365,-531 384,-576 392.1813,-556.6232 377,-519 356.4286,-510.6992" /><polygon points="384,-576 365,-621 385.3008,-612.4286 400,-576 392.1813,-556.6232" /><polygon points="377,-633 385.3008,-612.4286 365,-621 320,-640 300.6232,-648.1813 320,-656" /><polygon points="256,-576 275,-531 320,-512 365,-531 384,-576 365,-621 320,-640 275,-621" /><polygon points="275,-621 320,-640 365,-621 384,-576 365,-531 320,-512 275,-531 256,-576" /><polygon points="320,-512 365,-531 356.4286,-510.6992 320,-496 300.6232,-503.8187" /><polygon points="254.6992,-539.5714 240,-576 247.8187,-595.3768 256,-576 275,-531" /><polygon points="300.6232,-648.1813 320,-640 275,-621 283.5714,-641.3008" /><polygon points="320,-656 300.6232,-648.1813 283.5714,-641.3008 263,-633 263,-633 283.5714,-641.3008 300.6232,-648.1813 320,-656" /><polygon points="377,-633 320,-656 320,-656 377,-633" /><polygon points="263,-633 247.8187,-595.3768 240,-576 240,-576 247.8187,-595.3768 263,-633" /><polygon points="400,-576 385.3008,-612.4286 377,-633 377,-633 385.3008,-612.4286 400,-576" /><polygon points="377,-519 392.1813,-556.6232 400,-576 400,-576 392.1813,-556.6232 377,-519" /><polygon points="320,-496 356.4286,-510.6992 377,-519 377,-519 356.4286,-510.6992 320,-496" /><polygon points="263,-519 300.6232,-503.8187 320,-496 320,-496 300.6232,-503.8187 263,-519" /><polygon points="240,-576 254.6992,-539.5714 263,-519 263,-519 254.6992,-539.5714 240,-576" /><polygon points="320,-640 320,-640 275,-621 275,-621" /><polygon points="224,-672 224,-856.6696 93,-803 23.2171,-632.6696 224,-632.6696" /><polygon points="23.2171,-632.6696 0,-576 68.5539,-408.6696 224,-408.6696 224,-448 224,-632.6696" /><polygon points="68.5539,-408.6696 93,-349 224,-295.3304 224,-408.6696" /><polygon points="448,-843.5595 320,-896 224,-856.6696 224,-672 448,-672" /><polygon points="224,-672 224,-632.6696 224,-448 448,-448 448,-619.5595 448,-672" /><polygon points="224,-448 224,-408.6696 224,-295.3304 320,-256 448,-308.4406 448,-395.5594 448,-448" /><polygon points="622.1541,-619.5595 547,-803 448,-843.5595 448,-672 448,-619.5595" /><polygon points="566.075,-395.5594 640,-576 622.1541,-619.5595 448,-619.5595 448,-448 448,-395.5594" /><polygon points="547,-349 566.075,-395.5594 448,-395.5594 448,-308.4406" /><polygon points="23.2171,-632.6696 93,-803 224,-856.6696 224,-672 224,-632.6696" /><polygon points="68.5539,-408.6696 0,-576 23.2171,-632.6696 224,-632.6696 224,-448 224,-408.6696" /><polygon points="224,-295.3304 93,-349 68.5539,-408.6696 224,-408.6696" /><polygon points="224,-672 224,-856.6696 320,-896 448,-843.5595 448,-672" /><polygon points="224,-448 224,-632.6696 224,-672 448,-672 448,-619.5595 448,-448" /><polygon points="448,-395.5594 448,-308.4406 320,-256 224,-295.3304 224,-408.6696 224,-448 448,-448" /><polygon points="547,-803 622.1541,-619.5595 448,-619.5595 448,-672 448,-843.5595" /><polygon points="622.1541,-619.5595 640,-576 566.075,-395.5594 448,-395.5594 448,-448 448,-619.5595" /><polygon points="566.075,-395.5594 547,-349 448,-308.4406 448,-395.5594" /><polygon points="448,-843.5595 320,-896 320,-896 448,-843.5595 547,-803 547,-803" /><polygon points="224,-856.6696 93,-803 93,-803 224,-856.6696 320,-896 320,-896" /><polygon points="68.5539,-408.6696 93,-349 93,-349 68.5539,-408.6696 0,-576 0,-576" /><polygon points="224,-295.3304 320,-256 320,-256 224,-295.3304 93,-349 93,-349" /><polygon points="23.2171,-632.6696 0,-576 0,-576 23.2171,-632.6696 93,-803 93,-803" /><polygon points="622.1541,-619.5595 547,-803 547,-803 622.1541,-619.5595 640,-576 640,-576" /><polygon points="566.075,-395.5594 640,-576 640,-576 566.075,-395.5594 547,-349 547,-349" /><polygon points="448,-308.4406 547,-349 547,-349 448,-308.4406 320,-256 320,-256" /><polygon points="128,-32 -96,-32 -96,-32 128,-32" /><polygon points="352,-32 128,-32 128,-32 352,-32" /><polygon points="576,-32 352,-32 352,-32 576,-32" /><polygon points="736,-992 736,-992 576,-992 576,-992" /><polygon points="736,-256 736,-96 736,-32 736,-32 736,-256" /><polygon points="736,-480 736,-320 736,-256 736,-256 736,-480" /><polygon points="736,-704 736,-544 736,-480 736,-480 736,-704" /><polygon points="736,-928 736,-768 736,-704 736,-704 736,-928" /><polygon points="736,-992 736,-928 736,-928 736,-992" /><polygon points="-96,-32 -96,-96 -96,-256 -96,-256 -96,-32" /><polygon points="-96,-256 -96,-320 -96,-480 -96,-480 -96,-256" /><polygon points="-96,-480 -96,-544 -96,-704 -96,-704 -96,-480" /><polygon points="-96,-704 -96,-768 -96,-928 -96,-928 -96,-704" /><polygon points="-96,-928 -96,-992 -96,-992 -96,-928" /><polygon points="128,-992 -96,-992 -96,-928 -96,-768 128,-768" /><polygon points="-96,-768 -96,-704 -96,-544 128,-544 128,-768" /><polygon points="-96,-544 -96,-480 -96,-320 128,-320 128,-544" /><polygon points="-96,-320 -96,-256 -96,-96 128,-96 128,-320" /><polygon points="-96,-96 -96,-32 128,-32 128,-96" /><polygon points="352,-992 128,-992 128,-768 352,-768" /><polygon points="128,-768 128,-544 352,-544 352,-768" /><polygon points="128,-544 128,-320 352,-320 352,-544" /><polygon points="128,-320 128,-96 352,-96 352,-320" /><polygon points="128,-96 128,-32 352,-32 352,-96" /><polygon points="576,-992 352,-992 352,-768 576,-768" /><polygon points="352,-768 352,-544 576,-544 576,-768" /><polygon points="352,-544 352,-320 576,-320 576,-544" /><polygon points="352,-320 352,-96 576,-96 576,-320" /><polygon points="352,-96 352,-32 576,-32 576,-96" /><polygon points="736,-768 736,-928 736,-992 576,-992 576,-768" /><polygon points="736,-544 736,-704 736,-768 576,-768 576,-544" /><polygon points="736,-320 736,-480 736,-544 576,-544 576,-320" /><polygon points="736,-96 736,-256 736,-320 576,-320 576,-96" /><polygon points="736,-32 736,-96 576,-96 576,-32" /></g></defs><rect fill="#fff" height="1126.0" id="background" width="998.0" x="-179.0" y="-1075.0" /><use fill="none" stroke="black" stroke-miterlimit="0" stroke-width="15" xlink:href="#bsp_ref" /><use fill="white" stroke="black" stroke-width="1" xlink:href="#bsp_ref" /></svg>