<svg viewBox="32 -1120 1504 1824" xmlns="http://www.w3.org/2000/svg" xmlns:xlink="http://www.w3.org/1999/xlink"><defs><g id="a"><path d="m960-608h-224z"/><path d="m912-192v128h-48l-128-64v-64z"/><path d="m912-32v-32-128h48 48v128 96h-96z"/><path d="m1008 32v32h-96v-32z"/><path d="m1008-192h176v64l-128 64h-48z"/><path d="m736-384v-192-32h224v224z"/><path d="m960-192h-48-176v-160-32h224z"/><path d="m1184-608v32 192h-224v-224z"/><path d="m1184-384v32 160h-176-48v-192z"/><path d="m1184-608v32z"/><path d="m736-352v160 64-32z"/><path d="m736-576v192 32-32z"/><path d="m864-64-128-64z"/><path d="m912-64v32z"/><path d="m912 64h96z"/><path d="m1008 64v-32-96 32z"/><path d="m912-32v64 32z"/><path d="m864-64h48z"/><path d="m912-64h96-48-96z"/><path d="m912-32h96v-32h-96z"/><path d="m1184-608h-224z"/><path d="m736-784h-48-176v-32-96h224z"/><path d="m960-784h-128-32-64v-128h224z"/><path d="m1056-912h16v128h-112v-128z"/><path d="m800-784h32l-32 32z"/><path d="m464-656h-208-16v-128h224z"/><path d="m688-656h-176-32-16v-128h16 32 176z"/><path d="m736-784h64v32 96h-64-48v-128z"/><path d="m512-784h-32l32-32z"/><path d="m512-912v96z"/><path d="m800-656h-48-16z"/><path d="m736-912h-224z"/><path d="m960-912h-224 64 32 112z"/><path d="m800-752 32-32z"/><path d="m512-656h-32z"/><path d="m512-816-32 32z"/><path d="m1008-64h48z"/><path d="m1184-352v192 32-64z"/><path d="m1184-576v192 32-32z"/><path d="m736-608v32z"/><path d="m960-608h-224v32 192h224z"/><path d="m736-384v32 192h224v-224z"/><path d="m736-160v32l128 64h96v-96z"/><path d="m1184-576v-32h-224v224h224z"/><path d="m960-384v224h224v-192-32z"/><path d="m960-160v96h48 48l128-64v-32z"/><path d="m1056-64 128-64z"/><path d="m736-656h-96-128 176z"/><path d="m512-656h128z"/><path d="m736-656h16v8h-112v-8z"/><path d="m752-648v4h-112v-4z"/><path d="m752-648h-112v4h112z"/><path d="m240-784v128z"/><path d="m1072-784v-128z"/><path d="m912 64h96z"/><path d="m1008 64v-96z"/><path d="m1008-32h-96z"/><path d="m912-32v96z"/><path d="m800-656h-48z"/><path d="m752-656h48-64z"/><path d="m800-656v-96 64z"/><path d="m752-656v8z"/><path d="m752-648v4z"/><path d="m640-648v-8z"/><path d="m640-644v-4z"/><path d="m752-644v-4h-112v4z"/><path d="m752-656h-16-96v8h112z"/><path d="m640-648h112z"/><path d="m752-648h-112z"/><path d="m752-644h-112z"/><path d="m752-648v4z"/><path d="m640-644v-4z"/><path d="m752-644h-112v-4h112z"/><path d="m752-644h-112z"/><path d="m640-648h112z"/><path d="m736-656h-224 128z"/><path d="m960-912h-16 112z"/><path d="m1056-912h-96z"/><path d="m832-912h-32v160l32-32z"/><path d="m944-912h-112v128h112z"/><path d="m944-784h-112 128 112z"/><path d="m736-912h-224v96 48 80h224z"/><path d="m512-688v32h224v-32z"/><path d="m800-688v-64-160h-64v224z"/><path d="m800-656v-32h-64v32z"/><path d="m368-656h-112z"/><path d="m480-656h-96-16-112 208z"/><path d="m480-768v-16h-96v16z"/><path d="m480-768h-96v112h96 32v-32-80z"/><path d="m512-816-32 32v16h32z"/><path d="m368-784v128h16v-112-16z"/><path d="m368-784h16 96-16-224z"/><path d="m240-656v-128z"/><path d="m1072-912v128z"/><path d="m1072-912h-16z"/><path d="m1056-912h-112 128z"/><path d="m240-656h16z"/><path d="m256-656h112-128z"/><path d="m1072-912v128z"/><path d="m944-784v-128z"/><path d="m1072-784h-128z"/><path d="m240-784h128z"/><path d="m368-784v128z"/><path d="m368-784v128z"/><path d="m240-784v128z"/><path d="m1072-912v128z"/><path d="m1072-912h-128v128h128z"/><path d="m944-912h128v128h-128z"/><path d="m240-784h128v128h-128z"/><path d="m368-784h-128v128h128z"/><path d="m368-784v112 16z"/><path d="m1072-912h-128z"/><path d="m944-784v-128z"/><path d="m944-784h128z"/><path d="m240-656h128z"/><path d="m368-784h-128z"/><path d="m1008-32h-96v96h96z"/><path d="m352 704h88z"/><path d="m544-1120h-176-48 192z"/><path d="m1216-1120h-128-64-32 96z"/><path d="m480 704h-40-88-96v-128h112 112z"/><path d="m640 576v64 64h-160v-128z"/><path d="m256 32v-224h160 64v224z"/><path d="m480 192h-224v-160h224z"/><path d="m480 32v-224h160 64v224z"/><path d="m704 192h-64-160v-160h224z"/><path d="m768-192v224h-64v-224z"/><path d="m768 32v160h-64v-160z"/><path d="m704 192h64v64 64 96h-64z"/><path d="m768 416v224h-64v-224z"/><path d="m640 192h64v224h-64z"/><path d="m704 416v224h-64v-64-160z"/><path d="m704 640v64h-40-24v-64z"/><path d="m768 32v-224h8v224z"/><path d="m768 256v-64-160h8v32 176 16z"/><path d="m776 320h-8v-64h8z"/><path d="m128-192h64 64v224h-128z"/><path d="m256 32v160 64h-128v-224z"/><path d="m256 256v160 64h-128v-224z"/><path d="m256 480v96 128h-128v-224z"/><path d="m1000 320h-8-216v-64-16h224z"/><path d="m1224 320h-8-216v-80h8 216z"/><path d="m1232 240h48v80h-56v-80z"/><path d="m896 64h16 96v176h-8-224v-176z"/><path d="m912-32h-16v-160h112v160z"/><path d="m912-32v96h-16v-32-64z"/><path d="m776 32v-224h88 32v160 64z"/><path d="m896 64h-120v-32h120z"/><path d="m1008 32v-64-160h80 144v224z"/><path d="m1224 240h-216v-176-32h224v208z"/><path d="m1232-192h48v160 64h-48z"/><path d="m1280 32v64 144h-48v-208z"/><path d="m1280 96v-64-64h64v128z"/><path d="m320-408v-16h64v16z"/><path d="m368-656v80h-128v-80z"/><path d="m576-424v16h-64v-16z"/><path d="m512-576v152 16 56h-128v-56-16-152z"/><path d="m512-352v96h-96-32v-96z"/><path d="m224-608v-32-32-32-32-64h16v16 128 80h-16z"/><path d="m240-784v-16h16 32 32 48v16z"/><path d="m320-1024v-96h48v224h-48z"/><path d="m368-896v96h-48v-96z"/><path d="m368-1120h176 48v224h-224z"/><path d="m592-896v224h-224v-112-16-96z"/><path d="m592-672v96h-80-128-16v-80-16z"/><path d="m592-1120h96v128 96h-96z"/><path d="m688-896v96 128h-96v-224z"/><path d="m688-672v96h-96v-96z"/><path d="m720-1024v-96h80v192 32h-80z"/><path d="m800-896v192 32h-80v-128-96z"/><path d="m800-672v96h-80v-96z"/><path d="m896-424v16h-64v-16z"/><path d="m1024-408v-16h64v16z"/><path d="m896-408v-16-152h128v152 16 56h-128z"/><path d="m1024-352v96h-128v-96z"/><path d="m416-192h-160-64v-64h192 32z"/><path d="m640-192h-160-64v-64h96 128z"/><path d="m864-192h-88-8-64-64v-64h96 128z"/><path d="m1088-192h-80-112-32v-64h32 128 64z"/><path d="m1248-256h32v64h-48-144v-64z"/><path d="m1024-576h-128-96v-96-32h144 80z"/><path d="m1248-576h-224v-128h48 176z"/><path d="m1280-704v128h-32v-128z"/><path d="m944-928v16 128 80h-144v-192-32z"/><path d="m1072-784v16 64h-48-80v-80z"/><path d="m1024-928h48v16h-128v-16z"/><path d="m1072-784v-128-16h16v32 96 32h-16z"/><path d="m1024-928h-80-144v-192h192 32z"/><path d="m1088-1120v192h-16-48v-192z"/><path d="m1088-768h192v64h-32-176v-64z"/><path d="m1216-1120h64v192 32h-192v-32-192z"/><path d="m1280-896v96h-192v-96z"/><path d="m1280-576h-32z"/><path d="m896-576h-96z"/><path d="m720-576h80z"/><path d="m592-576h96-176z"/><path d="m240-576h128 16-160z"/><path d="m688-896v-96 192z"/><path d="m720-800v128 96-96z"/><path d="m720-1024v128 96-96z"/><path d="m1280-704v-64z"/><path d="m1280-896v-32 64 32 32z"/><path d="m1280-800h-192z"/><path d="m320-1024v128 96-96z"/><path d="m224-736v-32-32z"/><path d="m1248-256h-160-64 48z"/><path d="m736-256h-96-128 112z"/><path d="m192-256h192z"/><path d="m576-408v-16z"/><path d="m896-576v152z"/><path d="m1024-256v-96-56 56z"/><path d="m1088-408v-16z"/><path d="m1088-408h-64z"/><path d="m832-424v16z"/><path d="m384-576v152z"/><path d="m512-256v-96-56 56z"/><path d="m320-424v16z"/><path d="m384-408h-64z"/><path d="m768 320v96z"/><path d="m1280 240v-144 144 80z"/><path d="m1280-192v-64 224z"/><path d="m1344 96v-128z"/><path d="m1224 320h56-56-8z"/><path d="m128 480v224z"/><path d="m128 256v224z"/><path d="m128 32v224z"/><path d="m640 416v160l-128-128v-32z"/><path d="m480 576h-112-112l128-128h96z"/><path d="m640 192-128 128h-32v-128z"/><path d="m256 256v-64l128 128v96h-128z"/><path d="m240-784v128z"/><path d="m944-784v-128z"/><path d="m944-784h128z"/><path d="m1072-912h-128z"/><path d="m240-656h128z"/><path d="m368-784h-128z"/><path d="m1008 64h-96z"/><path d="m1008-32v64 32z"/><path d="m912-32h96z"/><path d="m912 64v-96z"/><path d="m384-424v16h29.8652v-16z"/><path d="m384-408v-16z"/><path d="m384-424h29.8652 27.243z"/><path d="m413.8652-424v16h27.243v-16z"/><path d="m413.8652-424v16h98.1348v-16z"/><path d="m512-424v16z"/><path d="m512-408h-98.1348 27.2429z"/><path d="m413.8652-408v-16h27.2429v16z"/><path d="m896-424v16h29.8645v-16z"/><path d="m896-408v-16z"/><path d="m896-424h29.8645 27.2439z"/><path d="m925.8645-424v16h27.2439v-16z"/><path d="m925.8645-424v16h98.1355v-16z"/><path d="m1024-424v16z"/><path d="m1024-408h-98.1355 27.2435z"/><path d="m925.8645-408v-16h27.2435v16z"/><path d="m912 64v-96z"/><path d="m1008 64h-96z"/><path d="m1008-32v96z"/><path d="m912-32h96z"/><path d="m1008 64h-96v-96h96z"/><path d="m512-1120h-192-32 192z"/><path d="m688-1120h-96-48z"/><path d="m688-1120v32 96z"/><path d="m1280-704v-64-32z"/><path d="m1280-832v-32z"/><path d="m1280-768h-192z"/><path d="m1088-768v-32z"/><path d="m1280-832h-192z"/><path d="m1280-800v-32h-192v32z"/><path d="m1280-800v32h-192v-32z"/><path d="m320-1120v96z"/><path d="m320-800h-32z"/><path d="m288-1024v128 96-96z"/><path d="m288-1024v-96h32v96 128h-32z"/><path d="m320-896v96h-32v-96z"/><path d="m688-1120h-144-32z"/><path d="m480-1120h-192-32z"/><path d="m1280-800v-32z"/><path d="m1280-864v-64 32z"/><path d="m1280-864h-192z"/><path d="m1088-800v-32z"/><path d="m1280-832v-32h-192v32z"/><path d="m1280-800h-192z"/><path d="m1280-832v32h-192v-32z"/><path d="m256-800h32z"/><path d="m288-1120v96z"/><path d="m256-1024v128 96-96z"/><path d="m256-1024v-96h32v96 128h-32z"/><path d="m288-896v96h-32v-96z"/><path d="m192-192h-64z"/><path d="m192-256v64z"/><path d="m192-192h-64v-64h64z"/><path d="m1280-928v-192 192 32z"/><path d="m1280-1120v192z"/><path d="m1280-864v-32h-192v32z"/><path d="m1280-896h-192z"/><path d="m1088-832v-32z"/><path d="m1280-864v32h-192v-32z"/><path d="m1280-832h-192z"/><path d="m224-800h32-16z"/><path d="m224-1024v128 96-96z"/><path d="m224-1024v-96h32v96 128h-32z"/><path d="m256-896v96h-32v-96z"/><path d="m256-1120v96z"/><path d="m480 320h32v96 32h-32-96v-32-96z"/><path d="m512 320 128-128v224h-128z"/><path d="m512 448 128 128h-160v-128z"/><path d="m480 320h-96l-128-128h224z"/><path d="m384 416v32l-128 128v-96-64z"/><path d="m412.7273-424h28.3809v16h-28.3809z"/><path d="m384-424h28.7273 18.6182z"/><path d="m412.7273-424v16h18.6182v-16z"/><path d="m384-408h57.1082-27.243z"/><path d="m412.7275-424v16h28.3806v-16z"/><path d="m512-424h-80.655-18.6175z"/><path d="m412.7275-408v-16h18.6175v16z"/><path d="m512-424h-70.8919-27.2429z"/><path d="m924.7272-424h28.3812v16h-28.3812z"/><path d="m896-424h28.7272 18.6183z"/><path d="m924.7272-424v16h18.6183v-16z"/><path d="m896-408h57.1084-27.2439z"/><path d="m924.7275-424v16h28.3805v-16z"/><path d="m1024-424h-80.6545-18.618z"/><path d="m924.7275-408v-16h18.618v16z"/><path d="m1024-424h-70.892-27.2435z"/><path d="m224-1120h-192z"/><path d="m32-1024v128 96-128z"/><path d="m1024-576h224z"/><path d="m1280-576h-32z"/><path d="m1280-864v64-32z"/><path d="m1280-864v-32z"/><path d="m1280-928v-192z"/><path d="m1280-864h-192z"/><path d="m1088-864v-32z"/><path d="m1280-928h-192z"/><path d="m1280-896v-32h-192v32z"/><path d="m1280-896v32h-192v-32z"/><path d="m224-1120v96z"/><path d="m32-1024v-96h192v96 128h-192z"/><path d="m224-896v96h-192v-96z"/><path d="m1280-1120h-64z"/><path d="m1088-896v-32z"/><path d="m1280-928v-192h-64-128v192z"/><path d="m1280-928v32h-192v-32z"/><path d="m1280-896h-192z"/><path d="m32-800h192z"/><path d="m224-768h-192v-32h192z"/><path d="m431.3455-408h27.925v-16h-27.925z"/><path d="m384-424h75.2705 27.2429z"/><path d="m459.2705-424v16h27.2429v-16z"/><path d="m431.3455-408h-18.6182-28.7273z"/><path d="m431.345-408v-16h27.9252v16z"/><path d="m512-408h-52.7298 27.2432z"/><path d="m459.2702-408v-16h27.2432v16z"/><path d="m512-408h-99.2725 18.6175z"/><path d="m943.3455-408h27.925v-16h-27.925z"/><path d="m896-424h75.2705 27.2432z"/><path d="m971.2705-424v16h27.2432v-16z"/><path d="m943.3455-408h-18.6183-28.7272z"/><path d="m943.3455-408v-16h27.9247v16z"/><path d="m1024-408h-52.7298 27.2435z"/><path d="m971.2702-408v-16h27.2435v16z"/><path d="m1024-408h-99.2725 18.618z"/><path d="m128 704h128 96z"/><path d="m440 704h-88z"/><path d="m32-1120h128 64z"/><path d="m256-1120h-32z"/><path d="m256-1120h128 96z"/><path d="m688-1120h-176-32z"/><path d="m992-1120h64 32z"/><path d="m32-768v-32z"/><path d="m688-576v-96-128z"/><path d="m688-992v192z"/><path d="m1280-576v-128z"/><path d="m1280-704v-96-64-32-32 160z"/><path d="m1280-928v-192 128z"/><path d="m1088-928v-192z"/><path d="m1280-928h-192z"/><path d="m1200-1120h80v192h-192v-192z"/><path d="m1056-1120v192h32v-192z"/><path d="m224-736v32z"/><path d="m224-768v32z"/><path d="m32-768h192z"/><path d="m224-736h-192v-32h192z"/><path d="m192-256h-64z"/><path d="m128-256v64z"/><path d="m128 704v-160-64z"/><path d="m128 480v-160-64z"/><path d="m128 256v-64-160z"/><path d="m128-192v224z"/><path d="m992-1120h32 32z"/><path d="m1168-1120h-80-32 48z"/><path d="m1168-1120h32-112z"/><path d="m32-736v-64 32z"/><path d="m32-928v128 64 32-192z"/><path d="m32-1120v96z"/><path d="m1088-1120v192z"/><path d="m1088-928h-32z"/><path d="m1056-928v-192z"/><path d="m1056-928v-192h32v192z"/><path d="m1024-1120v192h32v-192z"/><path d="m224-704v32z"/><path d="m224-704h-192v-32h192z"/><path d="m32-736h192z"/><path d="m992-1120h-192 160z"/><path d="m1024-1120h-32z"/><path d="m32-1120v96 96z"/><path d="m32-896v192 32-192z"/><path d="m800-576h96 128-96z"/><path d="m512-576h176-208-32z"/><path d="m1056-928h-32z"/><path d="m1024-928v-192z"/><path d="m1056-1120v192z"/><path d="m1024-928v-192h32v192z"/><path d="m992-1120v192h32v-192z"/><path d="m224-672v32z"/><path d="m32-704h192z"/><path d="m224-672h-192v-32h192z"/><path d="m1280-256h-32z"/><path d="m624-256h-112-112 96z"/><path d="m848-256h-112-112 96z"/><path d="m1072-256h-48-128-48 64 96z"/><path d="m848-256h48-32-128z"/><path d="m1024-408v-16-152h-128v152 16 56h128z"/><path d="m896-352v96h128v-96z"/><path d="m1088-408v-16h-64v16z"/><path d="m832-424v16h64v-16z"/><path d="m512-352v-56-16-152h-64-64v152 16 56z"/><path d="m400-256h112v-96h-128v96z"/><path d="m512-424v16h64v-16z"/><path d="m320-424v16h64v-16z"/><path d="m896-424h-64z"/><path d="m1088-424h-64z"/><path d="m1024-424v-152z"/><path d="m896-352v-56 56 96z"/><path d="m832-408h64z"/><path d="m576-424h-64z"/><path d="m384-424h-64z"/><path d="m512-424v-152z"/><path d="m384-352v-56 56 96z"/><path d="m512-408h64z"/><path d="m384-408v-16h102.5134v16z"/><path d="m486.5134-408h-27.2429-75.2705z"/><path d="m512-408h-25.4866v-16h25.4866z"/><path d="m486.5134-424h-27.2432 52.7298z"/><path d="m896-408v-16h102.5137v16z"/><path d="m998.5137-408h-27.2432-75.2705z"/><path d="m1024-408h-25.4863v-16h25.4863z"/><path d="m998.5137-424h-27.2435 52.7298z"/><path d="m1056-1120h-32-32 80 32z"/><path d="m1056-1120h-32z"/><path d="m32-864v192 32-192z"/><path d="m32-1088v192 32-192z"/><path d="m32-1088v-32 192 32z"/><path d="m992-928v-192z"/><path d="m1024-928h-32z"/><path d="m992-928v-192h32v192z"/><path d="m1024-1120v192z"/><path d="m960-1120v192h32v-192z"/><path d="m224-640v32z"/><path d="m224-640h-192z"/><path d="m32-672h192z"/><path d="m224-672v32h-192v-32z"/><path d="m800-1120h-80z"/><path d="m928-1120h32-160z"/><path d="m1072-1120h-112-112z"/><path d="m32-832v192 32-192z"/><path d="m32-1056v192 32-192z"/><path d="m32-1120v32z"/><path d="m992-1120v192z"/><path d="m992-928h-32z"/><path d="m960-928v-192z"/><path d="m960-928v-192h32v192z"/><path d="m928-1120v192h32v-192z"/><path d="m224-608v32z"/><path d="m224-608h-192z"/><path d="m224-640v32h-192v-32z"/><path d="m800-1120h128z"/><path d="m960-1120h112-80z"/><path d="m32-1120v32 32z"/><path d="m32-800v192 32z"/><path d="m32-1024v192 32z"/><path d="m448-576h-192-32 160z"/><path d="m688-576h-208z"/><path d="m720-1120v96z"/><path d="m928-1024v96-192z"/><path d="m928-800v128 96-96z"/><path d="m928-1024v96 32 96-96z"/><path d="m960-928h-32z"/><path d="m960-1120v192z"/><path d="m928-928v-96-96h32v192z"/><path d="m928-896v-32-96-96h-128-80v96 128z"/><path d="m928-672v-128-96h-208v96 128z"/><path d="m800-576h128v-96h-208v96z"/><path d="m224-608v32h-192v-32z"/><path d="m1344-32h-64v128h64z"/></g><g id="b"><path d="m1280 704h-128z"/><path d="m960-1120h-32z"/><path d="m32-576v152 72-72z"/><path d="m32-800v224-96z"/><path d="m32-1024v224-96z"/><path d="m32-1120v64 32z"/><path d="m1536-544v32 64z"/><path d="m1024-576h-96z"/><path d="m720-576h40z"/><path d="m480-576h208-128-112z"/><path d="m256-576h-32-192 192z"/><path d="m480-576h-32-192 192z"/><path d="m720-800v128 96-96z"/><path d="m848-1120h80v96 128h-208v-96-96-32z"/><path d="m928-896v96 128h-208v-128-96z"/><path d="m928-672v96h-40-128-40v-96z"/><path d="m928-1120v96z"/><path d="m720-1088h-16z"/><path d="m704-1088v96z"/><path d="m704-992v-96h16v96z"/><path d="m1536 448-32 32z"/><path d="m1232-256h-160-64 64z"/><path d="m1232-256h48-32-176z"/><path d="m720-256h-96-128 128z"/><path d="m32-424v-152h192v32 120z"/><path d="m496-256h-96v-32h80 16z"/><path d="m1008-256h-96v-32h16 80z"/><path d="m256-288h-160l-64-64v-72h192 32z"/><path d="m480-288h-80-80-64v-136h192 32z"/><path d="m704-288h-208-16v-136h192 32z"/><path d="m928-288h-16-192-16v-136h192 32z"/><path d="m1120-424h32v104 32h-144-80v-136z"/><path d="m888-576v32h-128v-32z"/><path d="m448-424h-192-32v-120h224z"/><path d="m672-424h-192-32v-120h112 112z"/><path d="m896-424h-192-32v-120h88 128 8z"/><path d="m1120-424h-192-32v-120h216 8z"/><path d="m1152-544v120h-32v-120z"/><path d="m1152-320v-104-120h128 8v224z"/><path d="m1288-288h-56-80v-32h136z"/><path d="m1288-320v-224h216 8v224z"/><path d="m1512-256h-168-56v-32-32h224z"/><path d="m1536-544v96 128h-24v-224z"/><path d="m1536-320v64h-24v-64z"/><path d="m448-544h-224z"/><path d="m1112-544h-216-8 120z"/><path d="m1504-544h-216-8 8z"/><path d="m224-544v-32z"/><path d="m888-544v-32z"/><path d="m760-576v32z"/><path d="m400-288v32z"/><path d="m912-288h-64-128z"/><path d="m1288-288h-56z"/><path d="m912-288v32z"/><path d="m1008-256v-32z"/><path d="m496-256v-32z"/><path d="m400-288h-80z"/><path d="m768 416v96 128z"/><path d="m768 416v-96 8 120 64z"/><path d="m1000 328h-224 216z"/><path d="m1280 96v80 64z"/><path d="m1280-256v80 64 80z"/><path d="m1288-112v-64-16-64h56v216h-56z"/><path d="m1344-40v-216h168 24v32 192h-192z"/><path d="m1536-32v32 192h-192v-88-8-128z"/><path d="m1536 192v32 16h-24-168v-48z"/><path d="m1288 240v-64-72h56v88 48z"/><path d="m1288-192v16z"/><path d="m1288-256v64z"/><path d="m1344 96h-64z"/><path d="m1288 104v72z"/><path d="m1344-32h-64z"/><path d="m1280 96h64z"/><path d="m1512 328h-8-216v-88h56 168z"/><path d="m1536 240v88h-24v-88z"/><path d="m992 320h-216-8 8z"/><path d="m1216 320h-216-8 8z"/><path d="m1280 320h-56z"/><path d="m1056 552v-224h224v224z"/><path d="m1280 704h-128-96v-64-88h224z"/><path d="m1504 480-72 72h-152v-224h8 216z"/><path d="m1432 552-152 152v-152z"/><path d="m1512 328h24v120l-32 32v-152z"/><path d="m776 552v-136-88h224v224z"/><path d="m1000 640h-8-216v-88h224z"/><path d="m1056 328v224h-56v-224z"/><path d="m1056 552v88h-56v-88z"/><path d="m992 704h-64-160v-64h8 216z"/><path d="m1000 640h56v64h-64v-64z"/><path d="m776 416v136 88-128-64z"/><path d="m768 640h-64z"/><path d="m768 704h-64v-64h64z"/><path d="m1280-32h64z"/><path d="m1344 96h-64z"/><path d="m1280 96v-128z"/><path d="m1344-32v128z"/><path d="m1344 96h-64v-128h64z"/><path d="m704 704h-40z"/><path d="m704 640v64z"/><path d="m720-1088v-32z"/><path d="m704-992h16z"/><path d="m688-992h16 16z"/><path d="m720-1088h-16-16z"/><path d="m704-1088v96h-16v-96z"/><path d="m768 512v32 96z"/><path d="m1056 328h-56z"/><path d="m1280-32v-80z"/><path d="m1280-256v80z"/><path d="m1280 240h8z"/><path d="m1280-112h8z"/><path d="m1288-112v-64z"/><path d="m1288-176h-8z"/><path d="m1280-112v-64h8v64z"/><path d="m1288 240v-64z"/><path d="m1288 176h-8z"/><path d="m1280 240v-64h8v64z"/><path d="m1000 320h-8-216 216z"/><path d="m1224 320h-168-56 216z"/><path d="m776 320h216-192z"/><path d="m768 320h8z"/><path d="m1056 328v-8z"/><path d="m992 320v8z"/><path d="m1056 328h-56-8v-8h8 56z"/><path d="m776 328v88 32-32z"/><path d="m776 328v88z"/><path d="m768 512h8z"/><path d="m776 448h-8z"/><path d="m768 512v-64h8v64z"/><path d="m960-1120h-32-80z"/><path d="m536 704h128 40-32z"/><path d="m664 704h-128-96 40 160z"/><path d="m536 704v-64h-96v64z"/><path d="m704 704h-32z"/><path d="m536 640h-96z"/><path d="m536 648v-8 64z"/><path d="m536 704h-88v-56h88z"/><path d="m688-992v-96-32z"/><path d="m688-1088v-32z"/><path d="m688-1088v96h32v-96z"/><path d="m768 448v-120z"/><path d="m768 512v-64-120z"/><path d="m1000 328h-8-216z"/><path d="m992 328h-216z"/><path d="m1280 320v-80z"/><path d="m1280 240v-64-80 96z"/><path d="m1280 176v-80z"/><path d="m1280-112v-64-80 224z"/><path d="m1288-192v16 64z"/><path d="m1280-176v64h8v-64z"/><path d="m1288-112v72-24z"/><path d="m1288 104v72 64z"/><path d="m1280 176v64h8v-64z"/><path d="m1288 240v88z"/><path d="m1216 320h-160 168 56z"/><path d="m1280 320h-32-32z"/><path d="m1056 320h-64v8h8 56z"/><path d="m776 416v32 64 128-88z"/><path d="m776 512v128z"/><path d="m768 448v64h8v-64z"/><path d="m672 704h-8-216 88z"/><path d="m1152 704h128-64-104z"/><path d="m928 704h-40-184 64z"/><path d="m1152 704h-40-184 64 64z"/><path d="m440 640v8 56z"/><path d="m536 640v8z"/><path d="m536 648h-88-8v-8h96z"/><path d="m440 704v-56h8v56z"/><path d="m448 648v56z"/><path d="m536 648h-88z"/><path d="m624-256h-128-96 176z"/><path d="m848-256h-128-96 176z"/><path d="m1072-256h-64-96-64 176z"/><path d="m1280-256h-48z"/><path d="m848-256h64-64-128z"/><path d="m720-288h-96-128 208z"/><path d="m1232-288h56-136-80z"/><path d="m1232-288h-160-64 144z"/><path d="m1008-288h-96v32h96z"/><path d="m496-288h-96v32h96z"/><path d="m1248-576h-80-144z"/><path d="m1248-576h32-112z"/><path d="m944-576h-56 40 96z"/><path d="m560-544h200-88z"/><path d="m784-544h-24-200 112z"/><path d="m1008-544h-120-104 112z"/><path d="m1232-544h-120-104 112 32z"/><path d="m1232-544h48-128-32-8z"/><path d="m784-544h104v-32h-128v32z"/></g><g id="c"><path d="m128 704h224z"/><path d="m664 704h-88-136 8z"/><path d="m888 704h-120-104 8 32z"/><path d="m1112 704h-120-104 40z"/><path d="m224-1120h32z"/><path d="m608-1120h80-208z"/><path d="m848-1120h-128z"/><path d="m1280-1120h-80-32-64-32z"/><path d="m32-1120v96z"/><path d="m1536 224v16 88 120-120-88z"/><path d="m1536 0v160 64-32z"/><path d="m1536-224v160 64-32z"/><path d="m1536-448v160 64-32-64z"/><path d="m944-576h-96-128 40 128z"/><path d="m1168-576h-16-80-128 80z"/><path d="m448-576h-64-160 32z"/><path d="m688-800v32 192z"/><path d="m720-896v-96 96 96z"/><path d="m720-1120v32 96z"/><path d="m1280-704v128z"/><path d="m1072-1120h-224v128h224z"/><path d="m1280-1120-128 128h128z"/><path d="m1168-576h112l-128-128v128z"/><path d="m720-672v96l96-96z"/><path d="m848-1120h-128l128 128z"/><path d="m384-1120h-128-32-64v128h224z"/><path d="m688-1120-80 80-48 48h128z"/><path d="m160-1120h-128l128 128z"/><path d="m32-896v96 128h96l32-32v-192z"/><path d="m32-672v96l96-96z"/><path d="m1504 480-72 72-152 152 152-152z"/><path d="m352 320h-224v160 64h224z"/><path d="m128 544v160h224v-160z"/><path d="m576 320h-224v224h224z"/><path d="m352 544v160h88 136v-160z"/><path d="m768 544v-32-184-8h-192v224z"/><path d="m664 704h104v-64-96h-192v160z"/><path d="m1000 328h-224v88 136h224z"/><path d="m776 552v88h216 8v-88z"/><path d="m1224 328h-168-56v224h224z"/><path d="m1000 552v88h216 8v-88z"/><path d="m1280 552v-224h-56v224z"/><path d="m1280 640v-88h-56v88z"/><path d="m992 640h-216-8v64h120 104z"/><path d="m1216 640h-216-8v64h120 104z"/><path d="m1280 704v-64h-56-8v64z"/><path d="m1504 328h-216-8v224h152l72-72z"/><path d="m1280 552v88 64l152-152z"/><path d="m1536 448v-120h-24-8v152z"/><path d="m1512 240h-168-56v88h216 8z"/><path d="m1536 240h-24v88h24z"/><path d="m1288 104v136h56v-80-56z"/><path d="m1344 96v-128h-64v128z"/><path d="m32-424h192v-120-32h-64-128z"/><path d="m256-424h-32-192v72l64 64h160z"/><path d="m480-424h-32-192v136h64 80 80z"/><path d="m704-424h-32-192v136h144 80z"/><path d="m928-424h-32-192v136h144 80z"/><path d="m1072-288h80v-32-104h-32-192v136z"/><path d="m448-544h-224v120h32 192z"/><path d="m672-544h-112-112v120h32 192z"/><path d="m896-544h-112-112v120h32 192z"/><path d="m1120-544h-112-112v120h32 192z"/><path d="m1152-424v-120h-32v120z"/><path d="m352-256h-160-64v64 160h224z"/><path d="m128-32v64 160h224v-224z"/><path d="m128 192v64 64h224v-128z"/><path d="m576-256h-176-48v224h224z"/><path d="m352-32v224h224v-224z"/><path d="m352 192v128h224v-128z"/><path d="m800-256h-176-48v224h224z"/><path d="m576-32v224h224v-224z"/><path d="m576 192v128h192 8 24v-128z"/><path d="m1024-256h-176-48v224h224z"/><path d="m800-32v224h224v-224z"/><path d="m800 192v128h192 32v-128z"/><path d="m1248-256h-176-48v224h224z"/><path d="m1024-32v224h224v-224z"/><path d="m1024 192v128h192 32v-128z"/><path d="m1280-256h-32v224h32z"/><path d="m1248-32v224h32v-96-128z"/><path d="m1248 192v128h32v-80-48z"/><path d="m1288-512v-32h-8-48-80v120 104h136z"/><path d="m1152-320v32h136v-32z"/><path d="m1536-448v-64h-24-168v224h192z"/><path d="m1344-288v224h192v-160-64z"/><path d="m1344-64v24 8 128 8 56h192v-160-64z"/><path d="m1344 160v80h168 24v-16-64z"/><path d="m1344-512h-56v192 32h56z"/><path d="m1288-288v32 64 80 48h56v-224z"/><path d="m1288-64v24h56v-24z"/><path d="m1512-544h-8-216v32h56 168z"/><path d="m1536-512v-32h-24v32z"/><path d="m1248-256h32-48-160z"/><path d="m192-256h160 48-16z"/><path d="m128-256h64z"/><path d="m32-352 64 64z"/><path d="m560-544h-112z"/><path d="m1280-544h-48z"/><path d="m1512-544h24-24-8z"/><path d="m1288-288v32z"/><path d="m624-288h-144-80 96z"/><path d="m848-288h-144-80 96z"/><path d="m1072-288h-144-80 64 96z"/><path d="m320-288h-64-160 160z"/><path d="m768 320v8z"/><path d="m1056 328h-56z"/><path d="m1224 328h56 8-8-224z"/><path d="m1344-32h-64z"/><path d="m1344-40v8z"/><path d="m1288-40h56z"/><path d="m1344 104h-56z"/><path d="m1344 96v8z"/><path d="m1216 320h-192-32 64z"/><path d="m776 328v88z"/><path d="m768 640h8z"/><path d="m128-192v-64z"/><path d="m128-32v-160 224z"/><path d="m608-1040 80-80h-80z"/><path d="m848-928v32 192z"/><path d="m1072-992h-224z"/><path d="m1152-992 128-128h-208v128z"/><path d="m1152-992v64z"/><path d="m1152-992v64 160h128v-160-64z"/><path d="m1152-768v64l128 128v-128-64z"/><path d="m1152-704h-80z"/><path d="m1072-704h-224v128h96 128z"/><path d="m1152-704h-80v128h80z"/><path d="m848-896v-32-64l-128-128v128 96z"/><path d="m848-704v-192h-128v96 128h96z"/><path d="m848-704-32 32-96 96h128z"/><path d="m160-928v32 192z"/><path d="m384-992h-224z"/><path d="m560-992 48-48v-80h-128-96v128z"/><path d="m560-992v64z"/><path d="m560-704v128h128z"/><path d="m560-992v64 160h128v-32-192z"/><path d="m560-768v64l128 128v-192z"/><path d="m560-704h-176z"/><path d="m384-704h-224v128h64 160z"/><path d="m560-704h-176v128h64 112z"/><path d="m160-704-32 32-96 96h128z"/><path d="m160-928v-64l-128-128v96 128h128z"/><path d="m848-928v224z"/><path d="m1152-992v64z"/><path d="m1152-704h-80z"/><path d="m1072-992h-224z"/><path d="m848-992v64z"/><path d="m1152-992h-80z"/><path d="m1152-928v224-64z"/><path d="m1072-704h-224z"/><path d="m160-928v224z"/><path d="m560-992v64z"/><path d="m560-704h-176z"/><path d="m384-992h-224z"/><path d="m160-992v64z"/><path d="m560-992h-176z"/><path d="m560-928v224-64z"/><path d="m384-704h-224z"/><path d="m848-992v64z"/><path d="m1152-928v224z"/><path d="m1072-704h-224z"/><path d="m1152-992h-80z"/><path d="m160-992v64z"/><path d="m560-928v224z"/><path d="m384-704h-224z"/><path d="m560-992h-176z"/></g></defs><g stroke="#000"><use fill="none" stroke-miterlimit="0" stroke-width="10" xlink:href="#a"/><use fill="#ccc" xlink:href="#a"/><use fill="none" stroke-miterlimit="0" stroke-width="10" xlink:href="#b"/><use fill="#e5e5e5" xlink:href="#b"/><use fill="none" stroke-miterlimit="0" stroke-width="10" xlink:href="#c"/><use fill="#fff" xlink:href="#c"/></g></svg>