<svg viewBox="-1344 -1344 1472 1664" xmlns="http://www.w3.org/2000/svg" xmlns:xlink="http://www.w3.org/1999/xlink"><defs><g id="a"><path d="m-192-512h-192 80 32z"/><path d="m-128-512h-64z"/><path d="m-544-1024v32z"/><path d="m-544-896h96-80z"/><path d="m-448-1216h-96 16z"/><path d="m-448-1216v80 16z"/><path d="m-544-1024v-192h96v96 128h-96z"/><path d="m-448-992v96h-96v-96z"/><path d="m-448-576 64 64h-64z"/><path d="m-384-512-64-64z"/><path d="m-608-1216h-96 80z"/><path d="m-704-1120v128 96-16z"/><path d="m-608-896h-16-80z"/><path d="m-608-992v16 80z"/><path d="m-704-1120v-96h96v192 32h-96z"/><path d="m-608-992v96h-96v-96z"/><path d="m-576-320v-64 192z"/><path d="m-576 128v-32 32 48 16z"/><path d="m-192-128h64-64-32z"/><path d="m-128-512v160z"/><path d="m-192-512h64v160 64h-64z"/><path d="m-128-288v160h-64v-128-32z"/><path d="m-448-352v64 160-128z"/><path d="m-448-512v160z"/><path d="m-384-512v224h-64v-64-160z"/><path d="m-384-288v32 128h-64v-160z"/><path d="m-384-512h192v224h-192z"/><path d="m-192-288v32h-192v-32z"/><path d="m-192-128h-32-160v-128h192z"/><path d="m-384 0h-64z"/><path d="m-384 0v16 80z"/><path d="m-448 96v128 96z"/><path d="m-448 96v-96h64v96 128h-64z"/><path d="m-384 224v96h-64v-96z"/><path d="m-672-128h-32z"/><path d="m-832-384v64z"/><path d="m-608-384h-224 192z"/><path d="m-640-320h-192z"/><path d="m-608-320h-32-192v-64h224z"/><path d="m-576-384v64h-32v-64z"/><path d="m-640-160v-160h32 32v128 64h-64z"/><path d="m-640-128h-32l32-32z"/><path d="m-640-160-32 32z"/><path d="m-576 128h-32l32-32z"/><path d="m-704 128h96 32v64h-128z"/><path d="m-608 0h32v32z"/><path d="m-704-128h32 32 64v128h-32-96z"/><path d="m-608 128h-96z"/><path d="m-576 96-32 32z"/><path d="m-1296-32v208 16-16z"/><path d="m-1072-64h-16-208z"/><path d="m-896 192h-176z"/><path d="m-1088-64h16 48v64z"/><path d="m-1296 176v-208-32h208v128 112z"/><path d="m-1088 64v-128l64 64 64 64z"/><path d="m-1072 176h-16v-112h128 64v112z"/><path d="m-896 64h-64z"/><path d="m-960 64-64-64z"/><path d="m-1072 192h-224v-16h208 16z"/><path d="m-896 176v16h-176v-16z"/><path d="m-384-512h80z"/><path d="m-192-512h64z"/><path d="m-544-1040v-176 192z"/><path d="m-544-976v-16 96z"/><path d="m-448-1216v64 16z"/><path d="m-448-1120v208 16-96z"/><path d="m-528-992v-144-80h80v80 16 208h-80z"/><path d="m-448-1120v-16-80h-80v80 144 80h80z"/><path d="m-528-1136v-80h-16v176 16 32h16z"/><path d="m-544-992v16 80h16v-16-80z"/><path d="m-448-912h-80v16h80z"/><path d="m-528-912h80z"/><path d="m-528-1136v144 80-64z"/><path d="m-448-576v64z"/><path d="m-384-512-64-64v64z"/><path d="m-448-576 64 64h-64z"/><path d="m-448-576 64 64z"/><path d="m-704-1216h64 16z"/><path d="m-704-1136v-80 96z"/><path d="m-704-1136v16 208-48-128z"/><path d="m-608-992v-32z"/><path d="m-608-1040v16-192z"/><path d="m-608-1024v-16-176h-16v80 144h16z"/><path d="m-624-992v80 16h16v-80-16z"/><path d="m-624-992v-144-80h-80v80 16 208h80z"/><path d="m-704-1120v-16-80h80v80 144 80h-80z"/><path d="m-624-912h-80v16h80z"/><path d="m-624-1216v16 64z"/><path d="m-576-192v64 128 32-32-128z"/><path d="m-576 128v-32 80z"/><path d="m-576-384v192z"/><path d="m-448 320h64z"/><path d="m-224-128h-224 64z"/><path d="m-192-128h64-96z"/><path d="m-192-352v64z"/><path d="m-128-352v224-160z"/><path d="m-128-512v160z"/><path d="m-128-352v-160h-64v128 32 64 32 128h64z"/><path d="m-192-256v-32-64-32-128h64v160 224h-64z"/><path d="m-448-352v96 128-160z"/><path d="m-448-512v160z"/><path d="m-384-288v-64-32-128h-64v160 96h64z"/><path d="m-384-512v128 32 64 32h-64v-96-160z"/><path d="m-192-384h-32-48v-128h80z"/><path d="m-192-512h-80v128h48 32z"/><path d="m-272-512h-32v128h32z"/><path d="m-304-384h-48-32v-128h80z"/><path d="m-304-512h-80v128h32 48z"/><path d="m-224-384h-48-32-48l-32 32v64l32 32h128l32-32v-64z"/><path d="m-224-384h32v32z"/><path d="m-192-352v-32h-32z"/><path d="m-384-352v-32h32z"/><path d="m-352-384h-32v32z"/><path d="m-384-288v32h32z"/><path d="m-352-256h-32v-32z"/><path d="m-192-288-32 32h32z"/><path d="m-192-256h-32l32-32z"/><path d="m-384-256h32 128 32v128h-32-224v-128z"/><path d="m-224-128h32v-128h-32-128-32-64v128z"/><path d="m-272-384h48z"/><path d="m-272-512v128z"/><path d="m-224-256h-128z"/><path d="m-192-288-32 32z"/><path d="m-224-384 32 32z"/><path d="m-384 16v80z"/><path d="m-384 96v224-96z"/><path d="m-448 96v224-96z"/><path d="m-448 16v-16 96z"/><path d="m-384 0h-64v16h64z"/><path d="m-448 96v-80h64v80 224h-64z"/><path d="m-384 96v-80h-64v80 224h64z"/><path d="m-384 16h-64z"/><path d="m-704-128h32z"/><path d="m-608-384h-32-192z"/><path d="m-576-384h-32z"/><path d="m-640-128h-32l32-32z"/><path d="m-640-160-32 32h32z"/><path d="m-640-384h-192v64h192z"/><path d="m-640-320h-192v-64h192z"/><path d="m-576-192v-192h-32-32v64 160 32h64z"/><path d="m-640-160v-160-64h32 32v192 64h-64z"/><path d="m-640-320h-64-128z"/><path d="m-672-128 32-32z"/><path d="m-640-320v160z"/><path d="m-704 176v-48 64z"/><path d="m-704-128v128z"/><path d="m-704 192h128z"/><path d="m-576 176h-128v16h128z"/><path d="m-704 176v-48h96 32v48z"/><path d="m-576 176v-48h-32-96v48z"/><path d="m-576 96-32 32h32z"/><path d="m-576 128h-32l32-32z"/><path d="m-576 0h-32l32 32z"/><path d="m-576 32-32-32h32z"/><path d="m-576-128h-64-32-32v128h96 32z"/><path d="m-704-128h32 32 64v128h-32-96z"/><path d="m-704 128h96z"/><path d="m-608 128 32-32z"/><path d="m-704 0h96z"/><path d="m-608 0 32 32z"/><path d="m-1296-64v32z"/><path d="m-1072-64h-224 16 64 128z"/><path d="m-1024-64h-48z"/><path d="m-1072 192h-224z"/><path d="m-896 176v16-16-112z"/><path d="m-896 176v-112z"/><path d="m-1024 176h128-176z"/><path d="m-1072 176h-224v-208-32h224 48v64 64 112z"/><path d="m-1072 176h48v-112-64-64h-48-224v32 208z"/><path d="m-960 64h-64v-64z"/><path d="m-1024 0v64h64z"/><path d="m-896 176v-112h-64-64v112z"/><path d="m-1024 176v-112h64 64v112z"/><path d="m-960 64h64z"/><path d="m-1024 0 64 64z"/><path d="m-1024 0v-64z"/><path d="m-1072 176h-224v16h224z"/><path d="m-896 192v-16h-128-48v16z"/><path d="m-192-512h-64z"/><path d="m-256-512h-16-32-80z"/><path d="m-272-512h16 64z"/><path d="m-128-768h-128z"/><path d="m128-928v-32z"/><path d="m128-992v32z"/><path d="m-32-896h-224 128z"/><path d="m128-896h-128z"/><path d="m0-960v-32-32h128v32 32 32h-128z"/><path d="m0-992v-32z"/><path d="m0-928v-32z"/><path d="m-32-768h-96-128v-32-16-32-16-32h224z"/><path d="m0-896h128v128h-128-32v-128z"/><path d="m-256-896h-64z"/><path d="m-320-896h-112z"/><path d="m-432-896h-16z"/><path d="m-528-1216h16 64z"/><path d="m-448-1216h-64z"/><path d="m-448-896h-80v-16h80z"/><path d="m-544-992v-32-16-160h16v64 160h-16z"/><path d="m-528-976v64 16h-16v-80z"/><path d="m-528-1216v16z"/><path d="m-448-1136v-16 32z"/><path d="m-448-1136v16 144 64-208z"/><path d="m-528-1200v-16 80z"/><path d="m-320-800h16 32 16v32h-64z"/><path d="m-256-848h-16v-16h16z"/><path d="m-304-848h-16v-16h16z"/><path d="m-256-800h-16v-16h16z"/><path d="m-304-800h-16v-16h16z"/><path d="m-272-800h-32v-16h32z"/><path d="m-256-816h-16-32-16v-32h16 32 16z"/><path d="m-272-848h-32v-16h32z"/><path d="m-320-896h64v32h-16-32-16z"/><path d="m-528-896h80 16 112v32 16 32 16 32h-128-64-32v-128z"/><path d="m-192-704v128z"/><path d="m-192-576v48 16z"/><path d="m0-704h-80-32-16z"/><path d="m-128-704h-64z"/><path d="m0-768v64z"/><path d="m128-704h-128v-64h128z"/><path d="m0-704h128v128h-144-16-32-16v-128z"/><path d="m128-576v64h-64-64-16v-16-32-16z"/><path d="m-16-560h-16v-16h16z"/><path d="m-64-560h-16v-16h16z"/><path d="m-16-512h-16v-16h16z"/><path d="m-64-512h-16v-16h16z"/><path d="m-32-512h-32v-16h32z"/><path d="m-16-528h-16-32-16v-32h16 32 16z"/><path d="m-32-560h-32v-16h32z"/><path d="m-112-528v16h-16-64v-16z"/><path d="m-112-528h-80v-48-128h64 16z"/><path d="m-80-576v16 32 16h-32v-16-176h32z"/><path d="m-512-768v64h-32v-64z"/><path d="m-512-704v64h-32v-64z"/><path d="m-464-576h-80v-64h32l48 48z"/><path d="m-544-576h80v64h-80z"/><path d="m-464-576v-16l16 16v64h-16z"/><path d="m-448-576v64z"/><path d="m-640-1216h-64z"/><path d="m-704-1216v80z"/><path d="m-704-1088v128z"/><path d="m-704-880v112z"/><path d="m-608-896h-96v-16h80 16z"/><path d="m-624-1136v-64h16v160 16 32 16h-16z"/><path d="m-608-976v64h-16v-64z"/><path d="m-544-896h-64v-16-64h16 32 16z"/><path d="m-544-1024h-16v-16h16z"/><path d="m-544-976h-16v-16h16z"/><path d="m-560-1024v32 16h-32v-16-32-16h32z"/><path d="m-592-992h-16v-32h16z"/><path d="m-544-992h-16v-32h16z"/><path d="m-592-976h-16v-16h16z"/><path d="m-592-1024h-16v-16h16z"/><path d="m-608-1200h64v160h-16-32-16z"/><path d="m-704-912h80z"/><path d="m-624-1136v160 64-80z"/><path d="m-544-768h-96-64v-112-16h96 64z"/><path d="m-544-704h-96v-64h96z"/><path d="m-640-768v64z"/><path d="m-608-576h48v64h-16-32z"/><path d="m-560-576h16v64h-16z"/><path d="m-544-576h-16-48v-64h64z"/><path d="m-544-640h-64-32v-64h96z"/><path d="m-608-576v64h-160l128-128h32z"/><path d="m-640-704v64z"/><path d="m-576 32v32 32z"/><path d="m-576-192v32 192-32-128z"/><path d="m-448 320h64z"/><path d="m-464 320h16 64-192z"/><path d="m128 0v-32z"/><path d="m0-448v64z"/><path d="m0-112v-16 128z"/><path d="m64 0h64z"/><path d="m0-512h64l-64 64z"/><path d="m128 0h-64l64-32z"/><path d="m128-32-64 32z"/><path d="m-448-512v160 64h-16v-224z"/><path d="m-448-288v160 16h-16v-176z"/><path d="m-544-512h80v224h-96v-96-16-112z"/><path d="m-464-288v176 32h-16-16-32-16-16v-80-128z"/><path d="m-128-352v-160h16v224h-16z"/><path d="m-112-288v176h-16v-16-160z"/><path d="m-112-512h32 16 32 16 16v64 64 96h-112z"/><path d="m0-288v32 128 16h-112v-176z"/><path d="m-224-112h-16-208v-16h224z"/><path d="m-128-128v16h-96v-16z"/><path d="m-464-16v-64-32h16 208v112h-16-128-64-16z"/><path d="m-240-112h16 96 16 112v112h-128-112z"/><path d="m-272-384h-32v-128h32z"/><path d="m-576-192v-192h16v96 128h-16z"/><path d="m-560-160v80 64 80h-16v-32-192z"/><path d="m-560 64v128h-16v-16-80-32z"/><path d="m-560-512v112h-16v-112z"/><path d="m-560-400v16h-16v-16z"/><path d="m-464 192v-192h16v16 80 128h-16z"/><path d="m-448 224v96h-16v-96z"/><path d="m-560 64v-80h16 16 32 16 16v16 192h-96z"/><path d="m-464-16h-16v-16-32-16h16z"/><path d="m-496-64h-32v-16h32z"/><path d="m-480-32h-16-32-16v-32h16 32 16z"/><path d="m-496-16h-32v-16h32z"/><path d="m-528-16h-16v-16h16z"/><path d="m-480-16h-16v-16h16z"/><path d="m-528-64h-16v-16h16z"/><path d="m-480-64h-16v-16h16z"/><path d="m-544-64v32 16h-16v-64h16z"/><path d="m-384 16h-64v-16h64z"/><path d="m-560 192h96v32 96h-112v-128z"/><path d="m-240 0h112-32-96z"/><path d="m-224-256h-128z"/><path d="m-192-352v64z"/><path d="m-192-288-32 32z"/><path d="m-352-256-32-32z"/><path d="m-224-128h-224z"/><path d="m-128-352v64 160z"/><path d="m-352-384h48z"/><path d="m-304-384v-128z"/><path d="m-384-288v-64z"/><path d="m-384-352 32-32z"/><path d="m-352-256-32-32z"/><path d="m-384 96v32 64 128z"/><path d="m-448 16v80z"/><path d="m-1056 320h160-176z"/><path d="m-672-128h-32z"/><path d="m-832-448v48 16 64z"/><path d="m-832-320v-64z"/><path d="m-576-384h-32z"/><path d="m-608-384h-224v-16h224z"/><path d="m-576-384h-32v-16h32z"/><path d="m-608-400h-224v-48l64-64h160z"/><path d="m-576-400h-32v-112h32z"/><path d="m-768-512-64 64z"/><path d="m-640-224v64z"/><path d="m-640-256v32z"/><path d="m-640-224v-32-64 160z"/><path d="m-640-320v64z"/><path d="m-640-160-32 32z"/><path d="m-704 176v-48z"/><path d="m-704-64v64z"/><path d="m-704-64v-64 128z"/><path d="m-704-64v-64z"/><path d="m-576 192h-128v-16h128z"/><path d="m-608 128h-96z"/><path d="m-576 96-32 32z"/><path d="m-704 176h128z"/><path d="m-704 0h96z"/><path d="m-608 0 32 32z"/><path d="m-576 320h-128v-128h128z"/><path d="m-704 320h-64v-32-16-32-16-32h64z"/><path d="m-768 224h-16-32-16v-32h64z"/><path d="m-768 240h-16v-16h16z"/><path d="m-816 240h-16v-16h16z"/><path d="m-768 288h-16v-16h16z"/><path d="m-816 288h-16v-16h16z"/><path d="m-784 288h-32v-16h32z"/><path d="m-768 272h-16-32-16v-32h16 32 16z"/><path d="m-784 240h-32v-16h32z"/><path d="m-768 320h-64v-32h16 32 16z"/><path d="m-768 192h-64z"/><path d="m-1296 176v16 16-112-96z"/><path d="m-1296-64v64z"/><path d="m-1296 176v-176-64 32z"/><path d="m-1024-64h-48z"/><path d="m-1024-64h-48-16 16z"/><path d="m-1216-64h-64z"/><path d="m-1280-64h-16z"/><path d="m-1088-64h-128z"/><path d="m-832 192h-64z"/><path d="m-1072 176h-224z"/><path d="m-1024 0v-64z"/><path d="m-896 64h-64z"/><path d="m-960 64-64-64z"/><path d="m-1072 192h-208-16v-16h224z"/><path d="m-896 176v16h-160-16v-16z"/><path d="m-1056 320h-16-208v-16-96-16h208 16z"/><path d="m-896 192h64v32 16 32 16 32h-64-160v-128z"/><path d="m-1296 192h16v16h-16z"/><path d="m-1280 320h-16v-16h16z"/><path d="m-1280 208v16z"/><path d="m-1280 208v96-16-64z"/><path d="m-544-1200v-16z"/><path d="m128-768v-128z"/><path d="m0-896v-32z"/><path d="m128-928h-128z"/><path d="m0-928h128z"/><path d="m128-960h-128v32h128z"/><path d="m128-896h-128v-32h128z"/><path d="m-544-1200h16z"/><path d="m-608-1200h-16z"/><path d="m-608-1200h64-64-16z"/><path d="m-544-1200h-64v-16h64z"/><path d="m-1280 288v16z"/><path d="m-1280 224h-16z"/><path d="m-1280 288h-16v-64h16z"/><path d="m-544-1216h-64v16h64z"/><path d="m-544-1216v16z"/><path d="m-544-1200h-64z"/><path d="m-1280 224h-16v64h16z"/><path d="m-1280 288h-16z"/><path d="m-1280 224v64z"/><path d="m128-768v-128-32z"/><path d="m128-992v-32z"/><path d="m0-992v32z"/><path d="m0-928v32-64z"/><path d="m0-960h128z"/><path d="m128-960h-128z"/><path d="m128-992h-128v32h128z"/><path d="m128-992h-128z"/><path d="m128-928h-128v-32h128z"/><path d="m128-768v-160-32z"/><path d="m128-976v-16z"/><path d="m128-1024h-128z"/><path d="m128-992v-32h-128v32z"/><path d="m0-976v-16h128v16 16h-128z"/><path d="m-192-512h-64-128z"/><path d="m-256-1024v-128z"/><path d="m32-1152h-32 96 32z"/><path d="m-64-1152h32z"/><path d="m-256-1152h160 32z"/><path d="m128-976v208-192z"/><path d="m128-992v-32-96-32 160 16z"/><path d="m-32-1024h-32z"/><path d="m128-1152v32h-32-16-32-16v-32z"/><path d="m0-1152h32v32 16 32 16h-32z"/><path d="m128-1024h-32v-32-16-32-16h32z"/><path d="m80-1056h-32v-16h32z"/><path d="m96-1072h-16-32-16v-32h16 32 16z"/><path d="m80-1104h-32v-16h32z"/><path d="m96-1104h-16v-16h16z"/><path d="m48-1104h-16v-16h16z"/><path d="m48-1056h-16v-16h16z"/><path d="m96-1056h-16v-16h16z"/><path d="m32-1056h16 32 16v32h-96v-32z"/><path d="m-64-1152h32v128h-32-192v-128z"/><path d="m0-1152v96 32z"/><path d="m0-976v-16z"/><path d="m96-1024h32v32h-128v-32z"/><path d="m128-992h-128z"/><path d="m-448-1216h-64z"/><path d="m-512-1216h-16z"/><path d="m128-512v-64z"/><path d="m-192-576v64-192z"/><path d="m-128-704h-64z"/><path d="m-384-512-128-128z"/><path d="m-384-512-64-64-16-16-48-48z"/><path d="m-640-1216h16z"/><path d="m-640-1216h-64z"/><path d="m0-448v64z"/><path d="m-704 128v48 16z"/><path d="m-704 192h-64z"/><path d="m-32-1152h32z"/><path d="m0-1024h-32z"/><path d="m-32-1024v-128z"/><path d="m-32-1152v128z"/><path d="m0-1024h-32v-128h32z"/><path d="m-32-1152h-32v128h32z"/><path d="m-64-1152h32z"/><path d="m-256-1152h128 32z"/><path d="m-32-1024h-32z"/><path d="m-96-1024h-160 192z"/><path d="m-64-1024v-128z"/><path d="m-64-1152v128z"/><path d="m-32-1024h-32v-128h32z"/><path d="m-64-1152h-32v128h32z"/><path d="m-256-1152h96 32z"/><path d="m-96-1024h32z"/><path d="m-128-1024h-128 160z"/><path d="m-96-1024v-128z"/><path d="m-96-1152v128z"/><path d="m-64-1024h-32v-128h32z"/><path d="m-96-1152h-32v128h32z"/><path d="m-544-1200h16z"/><path d="m-608-1216h64z"/><path d="m-544-1200h-64-16 16z"/><path d="m-544-1216h-64v16h64z"/><path d="m-608-1216v16z"/><path d="m-1296 288v-64z"/><path d="m-1280 224v64 16-96z"/><path d="m-1296 288h16z"/><path d="m-1280 224h-16v64h16z"/><path d="m-544-1200h-64v-16h64z"/><path d="m-608-1200v-16z"/><path d="m-608-1216h64z"/><path d="m-1280 288h-16v-64h16z"/><path d="m-1296 224h16z"/><path d="m-1296 288v-64z"/><path d="m-192-512h-192z"/><path d="m64-512h64z"/><path d="m0-768h128-160z"/><path d="m-32-768h-96 96 32z"/><path d="m-448-768h128z"/><path d="m-512-768h64z"/><path d="m-320-768h64z"/><path d="m-256-896v128z"/><path d="m-128-1024h32 32 32 32v48 80h-32-96z"/><path d="m-128-1152h-32v128h32z"/><path d="m-96-1024h-32v-128h32z"/><path d="m96-1152h-96-32-32-32-32 192z"/><path d="m-160-1152h-96 64z"/><path d="m-128-1152v128z"/><path d="m128-1152v160z"/><path d="m-96-1152h32z"/><path d="m-160-1024h-96 128z"/><path d="m-128-1024v-128z"/><path d="m0-896h-32z"/><path d="m0-976v-48 32z"/><path d="m0-896v-80 16z"/><path d="m-448-896h-96z"/><path d="m-528-1216v16h-16v-16z"/><path d="m-448-1152v-64 96z"/><path d="m-448-1120v144 80-16-64z"/><path d="m-448-1152v-64z"/><path d="m-528-1200h-16z"/><path d="m-256-896h-64v16 112h64z"/><path d="m-320-880v-16h-112-16-96v16z"/><path d="m-512-768h64 128v-112h-224v112z"/><path d="m128-512v-64z"/><path d="m128-576v-128z"/><path d="m128-704v-64z"/><path d="m32-704h-32-128-64z"/><path d="m128-768h-128v64h32 96z"/><path d="m-512-704v-64h-32v64z"/><path d="m-512-704v-64z"/><path d="m-512-640v-64z"/><path d="m-704-768h64z"/><path d="m-544-1216h-80-16-64z"/><path d="m-704-1120v32 128 64z"/><path d="m-704-1120v-96 80 48z"/><path d="m-704-896v-64 48 16 16z"/><path d="m-624-1200v-16z"/><path d="m-544-1200h-64-16v-16h80z"/><path d="m-544-896h-160v16h160z"/><path d="m-544-880h-160v112h64 96z"/><path d="m-544-704h-96z"/><path d="m-544-768h-96v64h96z"/><path d="m-640-704v64z"/><path d="m-640-640-128 128z"/><path d="m-576 32v64z"/><path d="m-384 320h-192z"/><path d="m0-256v-128-64 224z"/><path d="m0-256v-32-96z"/><path d="m0-224v96-128z"/><path d="m0-448 64-64z"/><path d="m-128 0h128-160z"/><path d="m-128 0h128z"/><path d="m-384 0h128z"/><path d="m-384-288v-64z"/><path d="m-224-256h-128z"/><path d="m-352-384h48 32 48z"/><path d="m-192-352v64z"/><path d="m-192-288-32 32z"/><path d="m-224-384 32 32z"/><path d="m-224-384 32 32z"/><path d="m-384-352 32-32z"/><path d="m-384 96v32-32-80-16z"/><path d="m-384 0v96z"/><path d="m-384 320v-128z"/><path d="m-384 192v-64z"/><path d="m-576 320h-128z"/><path d="m-768 320h64z"/><path d="m-832 320h64z"/><path d="m-896 320h64z"/><path d="m-1072 320h-224 16z"/><path d="m-896 320h-176z"/><path d="m-672-128h-32z"/><path d="m-832-320v-128z"/><path d="m-768-512-64 64z"/><path d="m-832-320h128z"/><path d="m-704-320h64-192z"/><path d="m-704-320h64z"/><path d="m-640-160-32 32z"/><path d="m-704 128v64z"/><path d="m-704 0h96z"/><path d="m-608 128h-96z"/><path d="m-576 96-32 32z"/><path d="m-608 0 32 32z"/><path d="m-704 192h-64v128h64z"/><path d="m-768 192h-64v128h64z"/><path d="m-1296 96v112 96 16z"/><path d="m-1296 320v-16z"/><path d="m-1072-64h-16-128-64-16z"/><path d="m-1280 304h-16v-96h16z"/><path d="m-832 192h-64v128h64z"/><path d="m-896 64v32z"/><path d="m-896 64h-64z"/><path d="m-960 64-64-64z"/><path d="m-896 96v96-16-112z"/><path d="m-1024 0v-64z"/><path d="m-1296 208h16z"/><path d="m-1296 304h16z"/><path d="m64-512h64z"/><path d="m-192-512h-192 64 112z"/><path d="m128-768h-160z"/><path d="m-32-768h-224 128z"/><path d="m-256-896v128z"/><path d="m128-1152h-32z"/><path d="m64-1152h-192-32 192z"/><path d="m-192-1152h-64 32z"/><path d="m-128-1024v128z"/><path d="m128-992v224-208z"/><path d="m128-1152v160z"/><path d="m-192-1024h-64 96z"/><path d="m-160-1024h32z"/><path d="m-160-1024v-128z"/><path d="m-160-1152v128z"/><path d="m-128-1024h-32v-128h32z"/><path d="m-160-1152h-32v128h32z"/><path d="m-128-896h-128z"/><path d="m-448-896h-96z"/><path d="m-448-1216h-64-16-16z"/><path d="m-448-1120v224-80z"/><path d="m-448-1216v96z"/><path d="m128-512v-64-128z"/><path d="m-192-704v192z"/><path d="m32-704h-224 48 16z"/><path d="m128-704h-96z"/><path d="m-512-704h-32z"/><path d="m-512-640v-64z"/><path d="m-384-512-128-128z"/><path d="m-544-1216h-160 48z"/><path d="m-704-1120v224-64-16-16z"/><path d="m-704-1216v96z"/><path d="m-544-896h-160z"/><path d="m-544-704h-96z"/><path d="m-640-704v64z"/><path d="m-640-640-128 128z"/><path d="m-576 32v64z"/><path d="m-384 320h-192z"/><path d="m0-224v224-128z"/><path d="m0-448v16 48 128 32z"/><path d="m0-448 64-64z"/><path d="m-160 0h-224 128z"/><path d="m0 0h-48-112z"/><path d="m-384-288v-64z"/><path d="m-224-256h-128z"/><path d="m-352-384h128z"/><path d="m-192-352v64z"/><path d="m-192-288-32 32z"/><path d="m-224-384 32 32z"/><path d="m-384-352 32-32z"/><path d="m-352-256-32-32z"/><path d="m-384 0v96z"/><path d="m-384 96v224-128-64z"/><path d="m-576 320h-128z"/><path d="m-896 320h-128-32-16z"/><path d="m-1072 320h-224z"/><path d="m-672-128h-32z"/><path d="m-768-512-64 64z"/><path d="m-640-320h-192z"/><path d="m-640-320v64 32 64z"/><path d="m-640-160-32 32z"/><path d="m-704 128v64 128z"/><path d="m-704-128v64 64z"/><path d="m-704 0h96z"/><path d="m-608 128h-96z"/><path d="m-576 96-32 32z"/><path d="m-608 0 32 32z"/><path d="m-1296-64v64 96z"/><path d="m-1296 96v224-160z"/><path d="m-1072-64h-224 16z"/><path d="m-1024-64h-48z"/><path d="m-896 96v224-128z"/><path d="m-896 64v32z"/><path d="m-1024 0v-64z"/><path d="m-896 64h-64z"/><path d="m-960 64-64-64z"/><path d="m-320-512h-64z"/><path d="m64-512h64z"/><path d="m128-768h-128-32z"/><path d="m-32-768h-224z"/><path d="m-256-896v128z"/><path d="m32-1152h-192-32 160z"/><path d="m128-1152h-32-32z"/><path d="m-224-1152h-32z"/><path d="m-128-1024v128z"/><path d="m128-1152v160z"/><path d="m128-992v224z"/><path d="m-224-1024h-32 64z"/><path d="m-192-1024v-128z"/><path d="m-192-1152v128z"/><path d="m-160-1024h-32v-128h32z"/><path d="m-192-1152h-32v128h32z"/><path d="m-128-896h-128z"/><path d="m-448-896h-96z"/><path d="m-496-1216h48-96z"/><path d="m-496-1040h-16l64 64v-16z"/><path d="m-512-1104 16-16h-48v16z"/><path d="m-496-1120-16 16v64h16z"/><path d="m-448-1120v-96h-48v96 80l48 48z"/><path d="m-496-1120v-96h-48v96z"/><path d="m-448-1120v128 16 80z"/><path d="m128-512v-192z"/><path d="m-192-576v-16-112 192z"/><path d="m96-704h32-96z"/><path d="m96-704h-64-160 128z"/><path d="m-128-704h-16v64h16z"/><path d="m-128-640h-16l-48 48v16z"/><path d="m-144-704h-48v112l48-48z"/><path d="m-128-704v64z"/><path d="m-128-640-64 64z"/><path d="m-512-704h-32z"/><path d="m-512-576v-64-64h-32v128z"/><path d="m-512-576h64l-64-64z"/><path d="m-384-512-64-64z"/><path d="m-512-640v-64z"/><path d="m-448-576 64 64-128-128z"/><path d="m-704-1216v96z"/><path d="m-544-896h-160z"/><path d="m-656-1120v80h16v-64z"/><path d="m-640-1040h-16l-48 48v16z"/><path d="m-656-1120v-96h-48v96 128l48-48z"/><path d="m-544-1120h-112l16 16h96z"/><path d="m-544-1216h-112v96h112z"/><path d="m-544-1104h-96z"/><path d="m-640-1104v64z"/><path d="m-640-1040-64 64z"/><path d="m-544-704h-96v64 64h64 32z"/><path d="m-640-640-64 64h64z"/><path d="m-544-576h-32z"/><path d="m-704-576 64-64-128 128z"/><path d="m-576-336v32z"/><path d="m-576 32v64z"/><path d="m-384 320h-192z"/><path d="m0-224v64 160z"/><path d="m64-512-64 64z"/><path d="m0-448 64-64z"/><path d="m64 0h64v-32z"/><path d="m-160 0h-32-176-16z"/><path d="m-384-288v-64-32 96 32z"/><path d="m-384-288v-64z"/><path d="m-304-384h-48 128z"/><path d="m0-448h-192v16h112 80z"/><path d="m-80-432h-112-16-96v48h80 32 112z"/><path d="m0-384v-48h-80v48z"/><path d="m-208-448h-96v16h96z"/><path d="m-320-512v64h16 96v-64z"/><path d="m-192-448v-64h-16v64 16h16z"/><path d="m-352-384h48v-48-16h-16l-64 64z"/><path d="m-192-512v64z"/><path d="m-192-352v64 32h192v-128h-80-112z"/><path d="m-384-288v32h16 16z"/><path d="m-224-256h32v-32z"/><path d="m-192-384h-32l32 32z"/><path d="m-384-384v32l32-32z"/><path d="m-384-352 32-32z"/><path d="m-352-256-32-32z"/><path d="m-160-160h64 48 48v-64-32h-192v48 48z"/><path d="m0-160h-48v160h48z"/><path d="m-48-160h-48-64-32v112 48h32 112z"/><path d="m-192-160v-48l-16 16v128l16 16z"/><path d="m-368-256h-16l64 64v-16z"/><path d="m-192-256h-32-128-16l48 48h128z"/><path d="m-192-208h-128v16h112z"/><path d="m-320-64-64 64h16l48-48z"/><path d="m-192-48h-128l-48 48h176z"/><path d="m-208-64h-112v16h128z"/><path d="m-208-192h-112z"/><path d="m-320-192-64-64z"/><path d="m-208-192v128z"/><path d="m-384 96v-96 192z"/><path d="m-384 96v96 128z"/><path d="m-576 320h-128z"/><path d="m-1072 320h-208-16z"/><path d="m-672-128h-32z"/><path d="m-832-384v-64 128z"/><path d="m-832-448v64z"/><path d="m-768-512-64 64z"/><path d="m-704-384h-128v64h192v-48-16z"/><path d="m-640-384v16l48 32h16z"/><path d="m-576-336h-16v32h16z"/><path d="m-576-304h-16l-48 36v12z"/><path d="m-640-368v48 52l48-36v-32z"/><path d="m-640-256v96z"/><path d="m-576-304-64 48z"/><path d="m-640-160-32 32z"/><path d="m-640-256v-12-52 160z"/><path d="m-704 192v128z"/><path d="m-704 192v-64 192z"/><path d="m-704-128v128z"/><path d="m-704 0h96z"/><path d="m-608 128h-96z"/><path d="m-576 96-32 32z"/><path d="m-608 0 32 32z"/><path d="m-1296-64v160z"/><path d="m-1056-64h32-48z"/><path d="m-1056-64h-16-208 128 64z"/><path d="m-896 96v96 16 112z"/><path d="m-1024 0v-64z"/><path d="m-896 64h-64z"/><path d="m-960 64-64-64z"/><path d="m-896 320v-112h-64l-64 64v48z"/><path d="m-960 192-64 64v16l64-64z"/><path d="m-896 192h-64v16h64z"/><path d="m-1280 32v128 96-96z"/><path d="m-1024 256h-32z"/><path d="m-1056 256h-224v64h208 16z"/><path d="m-1024 320v-48-16h-32v64z"/><path d="m-1280 32v-96h-16v160 64h16z"/><path d="m-1296 160v160h16v-64-96z"/><path d="m-224-1024h32z"/><path d="m-256-1024h32z"/><path d="m-192-1024h32 32z"/><path d="m-224-1152v128z"/><path d="m-224-1024v-128z"/><path d="m-192-1024h-32v-128h32z"/><path d="m-224-1152h-32v128h32z"/></g><g id="b"><path d="m64-512h64z"/><path d="m-544-1344v32z"/><path d="m-32-768h-160-64z"/><path d="m-512-768h192z"/><path d="m128-1152h-64-32z"/><path d="m-32-1152h-160-32-32z"/><path d="m-224-1152h32z"/><path d="m-128-1024v128z"/><path d="m128-992v224z"/><path d="m128-1152v160z"/><path d="m-256-1024h32 32 64z"/><path d="m-224-1024h-32v-128h32z"/><path d="m-128-896h-128z"/><path d="m-432-896v16l-16-16v-80h16z"/><path d="m-320-880h-112v-16h112z"/><path d="m-448-896 16 16h-112v-16z"/><path d="m-432-880h112v112h-192-32v-112z"/><path d="m-320-1216h-112-16v-16-80h64 64z"/><path d="m-448-1312v80h-48v-112h48z"/><path d="m-496-1104v64h-16v-64l16-16z"/><path d="m-448-992-48-48v-64h48z"/><path d="m-496-1120-16 16h-32v-16z"/><path d="m-432-1120v128 16l-16-16v-112-112h16z"/><path d="m-448-1216v112h-48v-16-112h48z"/><path d="m-448-992 16 16h-16l-64-64h16z"/><path d="m-496-1232v112h-48v-32-16-32-16-32-64-32h48z"/><path d="m-432-1120v-96h112v64 128 32h-112z"/><path d="m-320-992v96h-112v-80-16z"/><path d="m-448-1312v-32h64v32z"/><path d="m-256-1024h-64v-128h64z"/><path d="m-384-1344h-64-48-48z"/><path d="m-320-1024v32z"/><path d="m-320-1152v-64-96z"/><path d="m-384-1312v-32z"/><path d="m-512-1104h-32z"/><path d="m-512-1040v-64z"/><path d="m-448-896v-80z"/><path d="m-448-976-64-64z"/><path d="m128-512v-192z"/><path d="m128-704v192z"/><path d="m-512-768v64h-32v-64z"/><path d="m-304-528v-48h80 16v64h-96z"/><path d="m-320-672v-32h32v32z"/><path d="m-208-576h-16v-96-32h32v112z"/><path d="m-320-704v32 96h-112l-16-16v-112z"/><path d="m-448-592h-96v-112h32 64z"/><path d="m-384-512-64-64v-16l16 16 48 48z"/><path d="m-320-512h-64v-16h80z"/><path d="m-384-528-48-48h112 16v48z"/><path d="m-448-592v16h-96v-16z"/><path d="m-224-576h-80-16v-96h32 64z"/><path d="m-208-576h16v64h-16z"/><path d="m-320-512 16-16v16z"/><path d="m-128-640h-16v-64h16z"/><path d="m-192-592 48-48h16l-64 64h-16z"/><path d="m-192-592v-112h48v64z"/><path d="m0-704h-128-16-48z"/><path d="m128-704h-32-96 32z"/><path d="m-288-704h-32-128-64z"/><path d="m-192-704h-32z"/><path d="m-224-704v32z"/><path d="m-288-672v-32z"/><path d="m-192-576v64z"/><path d="m128-704h-32z"/><path d="m-448-576h-64-32z"/><path d="m-608-1344h-48-112z"/><path d="m-1216-608v32z"/><path d="m-1216-576v64z"/><path d="m-1216-576v-32h128v32 64h-128z"/><path d="m-1024-640 64-64v64 128h-64z"/><path d="m-896-768h-64v-128h64z"/><path d="m-832-576v-64-64h96 32v112l-16 16-64 64h-48z"/><path d="m-864-512v-32-16-32-16-32h32v64 64z"/><path d="m-928-608v16 32 16 32h-32v-128h32z"/><path d="m-864-512h-64v-32h16 32 16z"/><path d="m-720-880h-112v-16h112z"/><path d="m-880-592h-32v-16h32z"/><path d="m-864-560h-16-32-16v-32h16 32 16z"/><path d="m-880-544h-32v-16h32z"/><path d="m-912-544h-16v-16h16z"/><path d="m-864-544h-16v-16h16z"/><path d="m-912-592h-16v-16h16z"/><path d="m-864-592h-16v-16h16z"/><path d="m-864-608h-16-32-16v-32h64z"/><path d="m-720-576h16l-64 64h-16z"/><path d="m-896-704h64v64h-32-64-32v-64z"/><path d="m-832-880v112h-64v-128h64z"/><path d="m-992-736-64 64h-160v-96l128-128h64 32z"/><path d="m-1056-672-32 32h-128v-32z"/><path d="m-960-896v128l-32 32v-160z"/><path d="m-832-1120v-96h64 48v224h-112z"/><path d="m-720-992v16 80h-112v-96z"/><path d="m-656-1344v128h-48-16-48v-96-32z"/><path d="m-704-976h-16l16-16 48-48h16z"/><path d="m-720-896v-80h16v16 64l-16 16z"/><path d="m-720-992v-224h16v128 96l-16 16z"/><path d="m-656-1120v32h-48v-128h48z"/><path d="m-704-992v-96h48v48z"/><path d="m-640-1040h-16v-48-32l16 16z"/><path d="m-768-1216h-64v-96h64z"/><path d="m-608-1312v64 32 16 32 16 32h-48v-96-128h48z"/><path d="m-544-704h-32-64v-64h32 64z"/><path d="m-544-592h-32v-112h32z"/><path d="m-544-880h-64-112l16-16h160z"/><path d="m-640-704h64v112h-128v-112z"/><path d="m-544-576h-32-128-16l16-16h128 32z"/><path d="m-608-768h-32-192v-112h112 112z"/><path d="m-544-768h-64v-112h64z"/><path d="m-544-1216h-16-32-16v-32h64z"/><path d="m-544-1104h-96l-16-16h48 64z"/><path d="m-560-1200h-32v-16h32z"/><path d="m-544-1168h-16-32-16v-32h16 32 16z"/><path d="m-592-1152h-16v-16h16z"/><path d="m-544-1152h-16v-16h16z"/><path d="m-560-1152h-32v-16h32z"/><path d="m-592-1200h-16v-16h16z"/><path d="m-544-1200h-16v-16h16z"/><path d="m-544-1120h-64v-32h16 32 16z"/><path d="m-544-1248h-64v-64h64z"/><path d="m-832-1120v128 96z"/><path d="m-608-1312v-32z"/><path d="m-768-1344v32z"/><path d="m-736-704h-96-64-64z"/><path d="m-1056-672 64-64 32-32-128 128z"/><path d="m-1088-608h-128z"/><path d="m-704-960v-16 16 64z"/><path d="m-544-896h-160z"/><path d="m-576-576h-64-64z"/><path d="m-704-576-64 64z"/><path d="m-384 320h-192z"/><path d="m128 192v-64-64z"/><path d="m128-96v-96 128z"/><path d="m-224 128h-96v-32h32 64z"/><path d="m-320 96v-64h32v64z"/><path d="m-320-48-48 48h-16l64-64z"/><path d="m-192 0h-32-96-48l48-48h128z"/><path d="m-288 32h-32v-32h96v32z"/><path d="m-384 0h16v32 96 64h-16z"/><path d="m-368 32v-32h48v32 64 32h-48z"/><path d="m-192-48h-128v-16h112z"/><path d="m32 128h-80v-32h16 64z"/><path d="m-192 0h144v32 64 32h-96-80v-32-64-32z"/><path d="m-144 192h-112-112v-64h48 96 80z"/><path d="m80 192h-80-128-16v-64h96 80 48z"/><path d="m128 128v64h-48v-64z"/><path d="m-48 96v-64h16v64z"/><path d="m-208-192h-112v-16h128z"/><path d="m-192-256v48h-128l-48-48v-32h80 64 32z"/><path d="m-320-192-64-64h16l48 48z"/><path d="m-208-192 16-16v48 64 48l-16-16z"/><path d="m-384-288v-96h16v32 64 32h-16z"/><path d="m-368-288v-64h80v64z"/><path d="m-368-384h-16l64-64h16z"/><path d="m-304-448v16 48h-16-48z"/><path d="m16-432h-16l16-16z"/><path d="m-48-96h-48v-16-32-16h48z"/><path d="m-192-48v-48h32 16 32 16 48v96h-144z"/><path d="m-80-384h-64-48-112v-48h96 16 112z"/><path d="m0-432h16 112v48h-96-112v-48z"/><path d="m128-448h-112l48-48h64z"/><path d="m128-96v32 128 64h-48-48v-32-64-128z"/><path d="m32-192v-64h96v64 96h-96z"/><path d="m-192-448h192v16h-80-112-16z"/><path d="m32-288v-64-32h96v64 64h-96z"/><path d="m-144-352h112v64h-160-32v-64z"/><path d="m32-256h-80-144v-32h160 64z"/><path d="m-96-144h-16v-16h16z"/><path d="m-144-144h-16v-16h16z"/><path d="m-96-96h-16v-16h16z"/><path d="m-144-96h-16v-16h16z"/><path d="m-112-96h-32v-16h32z"/><path d="m-96-112h-16-32-16v-32h16 32 16z"/><path d="m-112-144h-32v-16h32z"/><path d="m-48-192v32h-48-16-32-16-32v-48-48h144z"/><path d="m-144-352h-80-64-80v-32h48 16 112 48z"/><path d="m-80-384h112v32h-64-112v-32z"/><path d="m64-496-48 48-16 16v-16l64-64z"/><path d="m32-192v96 128h-64-16v-32-96-64-32z"/><path d="m-48-256h80v64h-80z"/><path d="m128-496h-64v-16h64z"/><path d="m128-432h-112v-16h112z"/><path d="m-160-144v32 16h-32v-64h32z"/><path d="m-208-512v80h-96v-16-64z"/><path d="m-192-512v64l-16 16v-80z"/><path d="m-320-512h16v64h-16z"/><path d="m-144 192h16-32-96z"/><path d="m-224-352v64z"/><path d="m-224 32v64z"/><path d="m32-288h-64z"/><path d="m32-352v64z"/><path d="m32 96h-64z"/><path d="m32 32v64z"/><path d="m-224-288h-64z"/><path d="m-224 96h-64z"/><path d="m-384 320v-128z"/><path d="m-192-448h192z"/><path d="m-320-448v-64z"/><path d="m-384-384 64-64z"/><path d="m-320-64h112z"/><path d="m-384 0 64-64z"/><path d="m-384 320v-128z"/><path d="m-576 320h-64-16-48z"/><path d="m-1024 320h128-160z"/><path d="m-1328 320h16 16 16-64z"/><path d="m-1344 256v16 16 16 16z"/><path d="m-1344-64v64z"/><path d="m-1344 32v128 96z"/><path d="m-1344 160v-128-32-64h48v224z"/><path d="m-1296 272h-16-16-16v-16-96h48z"/><path d="m-1328 320h-16v-16h16z"/><path d="m-1296 320h-16v-16h16z"/><path d="m-1328 288h-16v-16h16z"/><path d="m-1296 304h-16v-16h16z"/><path d="m-1296 288h-16v-16h16z"/><path d="m-1328 304h-16v-16h16z"/><path d="m-1312 288v16 16h-16v-16-16-16h16z"/><path d="m-960 208h64v112h-128v-48z"/><path d="m-1072 272h-224l16-16h207.952z"/><path d="m-1056 256h32v16h-48l-.048-16z"/><path d="m-896-32v80h-64l-48-48v-64h112z"/><path d="m-960 64-64-64h16l48 48z"/><path d="m-1008 0h-16v-64h16z"/><path d="m-1072 320h-208-16v-16-16-16h224z"/><path d="m-1024 272v48h-32-16v-48z"/><path d="m-896 64h-64v-16h64z"/><path d="m-1296 160v-224h16v96 128z"/><path d="m-1280 256-16 16v-112h16z"/><path d="m-960 208-64 64v-16l64-64z"/><path d="m-896 208h-64v-16h64z"/><path d="m-672 176h-32v16h32z"/><path d="m-672 176v16l16 16h16z"/><path d="m-608 128h-96v-16h96z"/><path d="m-576 96h-16v-64h16z"/><path d="m-608 16h-96v-16h96z"/><path d="m-608 112h-96v-16h32 16 32 16z"/><path d="m-608 48h-16v-16h16z"/><path d="m-656 48h-16v-16h16z"/><path d="m-608 96h-16v-16h16z"/><path d="m-656 96h-16v-16h16z"/><path d="m-624 96h-32v-16h32z"/><path d="m-608 80h-16-32-16v-32h16 32 16z"/><path d="m-624 48h-32v-16h32z"/><path d="m-608 32h-16-32-16-32v-16h96z"/><path d="m-592 96-16 16v-16-16-32-16-16l16 16z"/><path d="m-576 32h-16l-16-16v-16z"/><path d="m-608 128v-16l16-16h16z"/><path d="m-672 192h-32v128h48v-112z"/><path d="m-640 208h-16v112h16z"/><path d="m-1152-256h-32-32v-128h32 32 64v128z"/><path d="m-1056-256h-32v-128h32z"/><path d="m-832-464h-16-16v-48h32 48z"/><path d="m-848-448v-16h16z"/><path d="m-848-368v112h-48-64v-32-96h96 16z"/><path d="m-832-368h-16l16-16h128 64v16z"/><path d="m-576-336h-16l-32-21.3333-16-10.6667v-16z"/><path d="m-576-304h-16v-32h16z"/><path d="m-672-144h-32v-112h48v96z"/><path d="m-672-128v-16l16-16h16z"/><path d="m-848-448v64h-16v-80h16z"/><path d="m-848-384v-64h16v64l-16 16z"/><path d="m-672-128h-32v-16h32z"/><path d="m-640-160h-16v-96h16z"/><path d="m-640-256h-16l32-24 32-24h16z"/><path d="m-624-280-32 24h-48-64-64-16v-112h16 192l16 10.6667z"/><path d="m-592-336v32l-32 24v-77.3333z"/><path d="m-864-464v80h-96v-128h32 64z"/><path d="m-960-256h64v64 64 64h-112-16v-64-64-64z"/><path d="m-1088-512v64h-128v-64z"/><path d="m-960-512v128 96h-64v-96-128z"/><path d="m-960-288v32h-64v-32z"/><path d="m-768-512-64 64h-16l16-16 48-48z"/><path d="m-896-64v32z"/><path d="m-704 32h32z"/><path d="m-704-256v112 16-96z"/><path d="m-672 96h-32z"/><path d="m-704 128v48z"/><path d="m-640 208v112z"/><path d="m-1088-64h-64z"/><path d="m-1024-64h-32-32z"/><path d="m-1152-64h-128z"/><path d="m-1024-384v96 32z"/><path d="m-1216-448v-32-32z"/><path d="m-1056-384h-32z"/><path d="m-1088-384h-64z"/><path d="m-1152-256h-32z"/><path d="m-1184-256h-16-16z"/><path d="m-832-384h128z"/><path d="m-704-384h64z"/><path d="m-640-384 64 48z"/><path d="m-704 176v-48 64z"/><path d="m-704-128v128z"/><path d="m-704 0h96z"/><path d="m-608 0 32 32z"/><path d="m-1024-64h-32z"/><path d="m-896 192v-96-32z"/><path d="m-1024 0v-64z"/><path d="m-960 192h64z"/><path d="m-1024 256 64-64z"/><path d="m-1280-64v96z"/><path d="m-1056 256h-16.048-207.952z"/><path d="m-1088-512h-128z"/><path d="m-1216-608v-32z"/><path d="m-1216-640h128z"/><path d="m-1088-512v-64z"/><path d="m-1088-576v-32z"/><path d="m-1088-640v32z"/><path d="m-1088-608h-128v-32h128z"/><path d="m-1088-576v-32h-128v32 64h128z"/><path d="m-1024-384v-128z"/><path d="m-1152-384h-32z"/><path d="m-1056-384h32z"/><path d="m-1152-256h64z"/><path d="m-1088-256h32z"/><path d="m-1024-256h-32z"/><path d="m-1056-256v-128z"/><path d="m-1056-384v128z"/><path d="m-1024-256h-32v-128h32z"/><path d="m-1056-384h-32-64v128h64 32z"/><path d="m-544-1312v-32z"/><path d="m-192-768h160 32z"/><path d="m-256-768h64z"/><path d="m-320-768h-64-64-64z"/><path d="m-256-896v128z"/><path d="m-256-1152h128 96z"/><path d="m128-1152h-96-64z"/><path d="m-128-1024v128z"/><path d="m128-768v-224z"/><path d="m128-1152v160z"/><path d="m-128-1024h-128z"/><path d="m-128-896h-128z"/><path d="m-544-1344h32 128z"/><path d="m-320-768v-112-16-96z"/><path d="m-320-1024v32z"/><path d="m-320-1312v160z"/><path d="m-256-1152h-64z"/><path d="m-320-1312h-64z"/><path d="m-384-1344v32z"/><path d="m-512-704h64 160z"/><path d="m-224-704h32z"/><path d="m-224-672v-32z"/><path d="m-288-704v32z"/><path d="m-224-672h-64z"/><path d="m-768-1344h160z"/><path d="m-1216-512v-64z"/><path d="m-1216-576v-32z"/><path d="m-1216-768v96 32z"/><path d="m-1024-896h-64z"/><path d="m-832-896h-64z"/><path d="m-896-896h-64-32-32z"/><path d="m-832-896v-192-32z"/><path d="m-832-1312v96 96z"/><path d="m-544-1312h-64z"/><path d="m-768-1312h-64z"/><path d="m-608-1344v32z"/><path d="m-768-1312v-32z"/><path d="m-640-768v64z"/><path d="m-960-704h160 64z"/><path d="m-640-704h-64-32z"/><path d="m-832-768h192z"/><path d="m-960-768h64z"/><path d="m-960-704-64 64z"/><path d="m-1088-896-128 128z"/><path d="m-1088-576v64h-128v-64-32h128z"/><path d="m-1216-608h128z"/><path d="m-384 320h-192z"/><path d="m-384 192v128z"/><path d="m-576 320h-64z"/><path d="m-896 320v-112-16z"/><path d="m-672 32h-32z"/><path d="m-704 96h32z"/><path d="m-672 32v16 32 16z"/><path d="m-704 192v-16z"/><path d="m-704 96v16 16z"/><path d="m-704 176h32z"/><path d="m-640 320h-16v-112h16z"/><path d="m-672 192 16 16v112h-48v-128z"/><path d="m-672 192h-32v-16h32z"/><path d="m-672 192v-16l16 16 16 16h-16z"/><path d="m-656 192-16-16 32 32z"/><path d="m-768 192h64z"/><path d="m-704 320h-64v-32-16-32-16-32h64z"/><path d="m-768 192h-64z"/><path d="m-832 192h-64z"/><path d="m-768 224h-16-32-16v-32h64z"/><path d="m-768 240h-16v-16h16z"/><path d="m-816 240h-16v-16h16z"/><path d="m-768 288h-16v-16h16z"/><path d="m-816 288h-16v-16h16z"/><path d="m-784 288h-32v-16h32z"/><path d="m-768 272h-16-32-16v-32h16 32 16z"/><path d="m-784 240h-32v-16h32z"/><path d="m-768 320h-64v-32h16 32 16z"/><path d="m-832 224v16 32 16 32h-64v-128h64z"/><path d="m-1152-384h64z"/><path d="m-1088-384h32z"/><path d="m-1088-480v32-64z"/><path d="m-1088-480h-128z"/><path d="m-1088-512h-128v32h128z"/><path d="m-1152-256v-128z"/><path d="m-1152-384v128z"/><path d="m-1056-256h-32-64v-128h64 32z"/><path d="m-1152-384h-32v128h32z"/><path d="m-1216-512h128z"/><path d="m-1216-448v-32z"/><path d="m-1216-288v-16-32-16-32 128z"/><path d="m-1200-384h16-32z"/><path d="m-1184-384h32z"/><path d="m-1088-448v-32z"/><path d="m-1088-480v-32z"/><path d="m-1216-448h128z"/><path d="m-1088-480h-128v-32h128z"/><path d="m-1088-480h-128v32h128z"/><path d="m-1152-256h-16-16z"/><path d="m-1184-384v128z"/><path d="m-1184-256v-128z"/><path d="m-1152-256h-32v-128h32z"/><path d="m-1200-288h-16v32h16z"/><path d="m-1200-384h-16v32h16z"/><path d="m-1200-304h-16v16h16z"/><path d="m-1200-352h-16v16h16z"/><path d="m-1200-336h-16v32h16z"/><path d="m-1184-384h-16v32 16 32 16 32h16z"/><path d="m-1216-512h-128z"/><path d="m-1216-576v64z"/><path d="m-1088-512v-64z"/><path d="m-1344-192v64z"/><path d="m-1344-448v64 64z"/><path d="m-1152-64h-128z"/><path d="m-1088-192v64h-64v-16-112h64z"/><path d="m-1152-128h-128v-16h16 16 64 16 16z"/><path d="m-1152-144h-16v-96-16h16z"/><path d="m-1168-240h-16-64-16v-16h16 32 16 16 16z"/><path d="m-1168-144h-16v-16-64-16h16z"/><path d="m-1184-224h-64v-16h64z"/><path d="m-1088-448h-128v-32h128z"/><path d="m-1200-256h-16v-32h16z"/><path d="m-1248-256h-16v-32h16z"/><path d="m-1200-304h-16v-32h16z"/><path d="m-1248-352h-16v-32h16z"/><path d="m-1248-336h-16v-16h16z"/><path d="m-1200-336h-16v-16h16z"/><path d="m-1200-288h-16v-16h16z"/><path d="m-1248-288h-16v-16h16z"/><path d="m-1200-352h-16v-32h16z"/><path d="m-1248-304h-16v-32h16z"/><path d="m-1264-352v16 32 16 32h-16-64v-64-64h80z"/><path d="m-1216-352v16 32 16 32h-32v-32-16-32-16-32h32z"/><path d="m-1184-256h-16v-32-16-32-16-32h16z"/><path d="m-1184-144h-64v-16h64z"/><path d="m-1248-224v64 16h-16v-96h16z"/><path d="m-1184-160h-64v-64h64z"/><path d="m-1264-240v96h-16v-112h16z"/><path d="m-1216-480v32 64h-32-16-80v-64-64h128z"/><path d="m-1280-144v16h-64v-64-64h64z"/><path d="m-1088-384h-64-32-16-16v-64h128z"/><path d="m-1216-480v-32z"/><path d="m-1216-480h128z"/><path d="m-1152-256h64z"/><path d="m-1088-256h32z"/><path d="m-1280-64h-16-48z"/><path d="m-1280-128h-64z"/><path d="m-1280-128h128z"/><path d="m-1152-64h-128v-64h128z"/><path d="m-320-1312h-64z"/><path d="m-224-672h-64z"/><path d="m-544-1312h-64z"/><path d="m-768-1312h-64z"/><path d="m-224-352v64z"/><path d="m-224 32v64z"/><path d="m32-288h-64z"/><path d="m-32-288v-64z"/><path d="m-32-352h64z"/><path d="m32-352v64z"/><path d="m-32 32h64z"/><path d="m-32 96v-64z"/><path d="m32 96h-64z"/><path d="m32 32v64z"/><path d="m-224-288h-64z"/><path d="m-288-288v-64z"/><path d="m-288-352h64z"/><path d="m-288 32h64z"/><path d="m-288 96v-64z"/><path d="m-224 96h-64z"/><path d="m-672 32v64z"/><path d="m-1216-512h-128z"/><path d="m128-768h-32-64z"/><path d="m32-768h-32 128z"/><path d="m-192-768h-64z"/><path d="m-256-896v128z"/><path d="m-256-1152v128z"/><path d="m-256-1152h-64v128h64z"/><path d="m-320-1024h64z"/><path d="m-320-1312h-64z"/><path d="m-512-768v-64h-32v64z"/><path d="m128-704v192z"/><path d="m-512-704v-64z"/><path d="m32-704h-32-192 160z"/><path d="m-224-672h-64z"/><path d="m-512-704v64l64-64z"/><path d="m-512-704v-64h-32v64z"/><path d="m-1216-640v32 32z"/><path d="m-1216-576v64z"/><path d="m-1216-640v-32-96z"/><path d="m-544-1312h-64z"/><path d="m-768-1312h-64z"/><path d="m-544-768h-96v64h96z"/><path d="m-544-704h-96v64h96z"/><path d="m-832-896v128-96z"/><path d="m-640-768h-64-64-64z"/><path d="m-896-768h64z"/><path d="m-832-896h-64v128h64z"/><path d="m-896-768h-64z"/><path d="m-640-704h-64l64 64z"/><path d="m-960-704-64 64z"/><path d="m-960-768-32 32-64 64-32 32z"/><path d="m-1088-576v-32z"/><path d="m-1088-512v-64z"/><path d="m-1024-640v128z"/><path d="m128-32v96-128z"/><path d="m128-256v64-64-64z"/><path d="m128-512v32 160-64-48-16-48z"/><path d="m64 192h-64 80 48z"/><path d="m-128 192h128z"/><path d="m128 192h-64z"/><path d="m-384 192h16 112z"/><path d="m-224-352v64z"/><path d="m-224 32v64z"/><path d="m32-288h-64z"/><path d="m-32-288v-64z"/><path d="m-32-352h64z"/><path d="m32-352v64z"/><path d="m-32 32h64z"/><path d="m-32 96v-64z"/><path d="m32 96h-64z"/><path d="m32 32v64z"/><path d="m-224-288h-64z"/><path d="m-288-288v-64z"/><path d="m-288-352h64z"/><path d="m-288 32h64z"/><path d="m-288 96v-64z"/><path d="m-224 96h-64z"/><path d="m-1056 320h-224 208z"/><path d="m-896 320h-160z"/><path d="m-1280 320h-64z"/><path d="m-1344 32v224-160z"/><path d="m-1344 256v64z"/><path d="m-1344 0v32z"/><path d="m-1344-512v64z"/><path d="m-896-64v32z"/><path d="m-896-32v224-128-16z"/><path d="m-896-192v-64z"/><path d="m-896-64v-64z"/><path d="m-896-128v-64z"/><path d="m-768-256h64z"/><path d="m-896-256h48 16 64z"/><path d="m-768-256h64-64-64-64z"/><path d="m-704-128v128z"/><path d="m-704-224v96 128-64-128z"/><path d="m-704 0v16 16z"/><path d="m-672 32v64z"/><path d="m-1088-64h-64 32z"/><path d="m-896-64h-128-64z"/><path d="m-1280-64h-64z"/><path d="m-1024-512v128z"/><path d="m-1024-64v-64z"/><path d="m-1024-192v-64z"/><path d="m-1024-128v-64z"/><path d="m-896-256h-128z"/><path d="m-896-192v-64h-128v64z"/><path d="m-896-64v-64h-128v64z"/><path d="m-896-128v-64h-128v64z"/><path d="m-1088-448v-32-32z"/><path d="m-1088-384v-64z"/><path d="m-1088-192v-64z"/><path d="m-1088-192v64z"/><path d="m-1024-384h-32-32z"/><path d="m-1024-256h-64 32z"/><path d="m-1280-64v-64z"/><path d="m-832 320h64z"/><path d="m-768 320h64z"/><path d="m-896 320h64z"/><path d="m-704 192v128z"/><path d="m-704 192h-64v128h64z"/><path d="m-832 192h-64v128h64z"/><path d="m-768 192h-64v128h64z"/><path d="m-1088-512v-64z"/><path d="m-1088-576v-32-32z"/><path d="m-1088-576h-128v64h96 32z"/><path d="m-1088-640h-128v64h128z"/><path d="m-1056 320h-64-160z"/><path d="m-1056 320h160-224z"/><path d="m-1344-64v64 32z"/><path d="m-1344 96v160 64-160z"/><path d="m-1344-288v-32 64 64z"/><path d="m-896 32v-64-32 160z"/><path d="m-896 320v-128z"/><path d="m-896-32v64 64 96z"/><path d="m-704-64h32v-128h-32z"/><path d="m-704-256v32z"/><path d="m-704 128v48 16h32v-96h-32z"/><path d="m-704 192v128h32v-128z"/><path d="m-1120-64h-32-128-64z"/><path d="m-1024-384v128-32-64z"/><path d="m-1088-128h-32-32z"/><path d="m-1088-384v-64z"/><path d="m-1088-192v-64z"/><path d="m-1024-384h-64v96 32h64z"/><path d="m-1088-128-32-32v32z"/><path d="m-1344-288v96 64l64-64v-64-32z"/><path d="m-1088-384v-64-64l-32 32-32 32v64 96h64z"/><path d="m-1152-128v64z"/><path d="m-1152-128h-128v64h128z"/><path d="m-1120 320h-224 64z"/><path d="m-1344-64v96 64z"/><path d="m-896 96v64 160-128z"/><path d="m-896-64h-192-32z"/><path d="m-1120-480 32-32h-32z"/><path d="m-1120-160-32-32h-128l-64 64h64 128 32z"/><path d="m-1120-64h-224v160 64h224z"/><path d="m-1344 160v160h224v-160z"/><path d="m-896 160v-64-160h-224v224z"/><path d="m-896 320v-160h-224v160z"/></g><g id="c"><path d="m32-768h-160-64 192z"/><path d="m96-1152h32-160z"/><path d="m-128-928v-96 128z"/><path d="m96-1152h-128-96v128 96h224z"/><path d="m-128-928v32 128h160 64v-160z"/><path d="m128-992v-160h-32v224h32z"/><path d="m96-928v160h32v-160z"/><path d="m128-992v64 160z"/><path d="m-256-1152v128h128v-128z"/><path d="m-192-768h64v-128h-128v128z"/><path d="m-128-896h-128z"/><path d="m-320-1088v64-128z"/><path d="m-320-992v128 96z"/><path d="m-512-1344h-32v32 192h32z"/><path d="m-544-1120v32 192h32v-224z"/><path d="m-544-896v32 32h32v-64z"/><path d="m-320-1152v-160h-64v192 32h64z"/><path d="m-384-1088v192 32h64v-128-32-64z"/><path d="m-384-864v96h64v-96z"/><path d="m-384-1312v-32h-128v224h128z"/><path d="m-512-1120v224h128v-192-32z"/><path d="m-512-896v64l64 64h64v-96-32z"/><path d="m-512-832v64h64z"/><path d="m-32-704h-160-32v32 160h192z"/><path d="m128-704h-96v192h96z"/><path d="m32-704h-64v192h64z"/><path d="m-224-672h-64v160h64z"/><path d="m-288-672v-32h-160l-64 64v128h160 64z"/><path d="m128-704h-96z"/><path d="m-512-512v-128h-32v128z"/><path d="m-512-640v-64h-32v64z"/><path d="m-800-704h-160l-64 64v128h224z"/><path d="m-640-512v-128l-64-64h-32-64v192z"/><path d="m-992-896h-32-64l-128 128v96h160l64-64z"/><path d="m-1216-672v32h128l32-32z"/><path d="m-960-768v-128h-32v160z"/><path d="m-896-896h-64v128h64z"/><path d="m-768-832v64h64l64-64z"/><path d="m-768-1120v-192h-64v192 32h64z"/><path d="m-832-1088v192 32h64v-32-192z"/><path d="m-832-864v96h64v-64-32z"/><path d="m-608-1312v-32h-160v32 192h160z"/><path d="m-768-1120v32 192h160v-192-32z"/><path d="m-768-896v32 32h128 32v-32-32z"/><path d="m-544-640h-96v128h64 32z"/><path d="m-544-1120v-192h-64v192 32h64z"/><path d="m-608-1088v192 32h64v-32-192z"/><path d="m-608-864v32h64v-32z"/><path d="m-1088-896h64z"/><path d="m-1024-896h32 32 64z"/><path d="m-832-1312v192z"/><path d="m-544-832h-64-32v64h96z"/><path d="m-704-704h64-96z"/><path d="m-704-768h64v-64z"/><path d="m-896-768v-128z"/><path d="m-1216-640h128z"/><path d="m-1216-768 128-128z"/><path d="m-1024-640v128z"/><path d="m128-32v64 64 96-128z"/><path d="m128-256v192 32-32-128z"/><path d="m128-480v128 64 32-64z"/><path d="m128-512v32z"/><path d="m-160 192h-64-64-64-32 128z"/><path d="m64 192h-32-64-128 32 128z"/><path d="m-224-512v160h192v-160z"/><path d="m32-512v160h96v-128-32z"/><path d="m-32-512v160h64v-160z"/><path d="m-288-512v160h64v-160z"/><path d="m-32-288v-64h-192v64z"/><path d="m128-256v-32h-96v224h96z"/><path d="m32-64v96h96v-64-32z"/><path d="m128-352h-96v64h96z"/><path d="m-32-288h-192v224h192z"/><path d="m-224-64v96h192v-96z"/><path d="m32-288h-64v224h64z"/><path d="m-32-64v96h64v-96z"/><path d="m-224-288h-64v224h64z"/><path d="m-288-64v96h64v-96z"/><path d="m-352-512h-160-32-32v160h64 160z"/><path d="m-288-352v-160h-64v160z"/><path d="m-352-288h64v-64h-64-160v64z"/><path d="m-512-352h-64v64h64z"/><path d="m-352-288h-160-64v224h224z"/><path d="m-576-64v96h64 160v-96z"/><path d="m-288-64v-224h-64v224z"/><path d="m-288 32v-96h-64v96z"/><path d="m-160 192h128v-96h-192v96z"/><path d="m128 32h-96v64h96z"/><path d="m128 96h-96v96h32 64z"/><path d="m-32 96v-64h-192v64z"/><path d="m-32 96v96h64v-96z"/><path d="m-352 96h64v-64h-64-160v64z"/><path d="m-512 32h-64v64h64z"/><path d="m-352 96h-160-64v96h192 32z"/><path d="m-288 192v-96h-64v96z"/><path d="m-288 96v96h64v-96z"/><path d="m-32-288v-64z"/><path d="m-32-352h64z"/><path d="m-32 32h64z"/><path d="m-32 96v-64z"/><path d="m-288-288v-64z"/><path d="m-288-352h64z"/><path d="m-288 32h64z"/><path d="m-288 96v-64z"/><path d="m-576 320h192v-128h-192z"/><path d="m-576 320h-96-32 48 16z"/><path d="m-576 192v-96h-96v96 128h96z"/><path d="m-896-256v-32h-128v32z"/><path d="m-576 32h-96v64h96z"/><path d="m-576-288h-96v96 128h96z"/><path d="m-672-64v96h96v-96z"/><path d="m-576-352h-224v64h32 96 96z"/><path d="m-800-352h-224v64h128 64 32z"/><path d="m-800-512h-224v128 32h224z"/><path d="m-576-512h-64-160v160h224z"/><path d="m-1152-448h-128 32 64z"/><path d="m-1280-384v96 32z"/><path d="m-896-256v-32z"/><path d="m-672-288-32 32v32 32h32z"/><path d="m-672-64h-32v64 32h32z"/><path d="m-768-288v32h64l32-32z"/><path d="m-896-288v32h64v-32z"/><path d="m-800-288h-32v32h64v-32z"/><path d="m-1152-448 32-32v-32h-96-128l64 64z"/><path d="m-1280-384v-64l-64-64v64 128 32h64z"/><path d="m-1152-288v32 64l32 32 32 32v-64-64-32z"/><path d="m-1248-448h-32z"/><path d="m-1152-448h-32z"/><path d="m-1184-192h-64-32 128z"/><path d="m-1280-256v64z"/><path d="m-1280-448v64z"/><path d="m-1152-256v-32-96z"/><path d="m-1152-384v-64z"/><path d="m-1152-192v-64z"/><path d="m-1184-448h-64z"/><path d="m-1152-448h-32z"/><path d="m-1248-448h-32z"/><path d="m-1184-192h32z"/><path d="m-1280-192h32z"/><path d="m-1280-256v64-32z"/><path d="m-1280-256v-128z"/><path d="m-1280-448v64z"/><path d="m-1152-256v-128z"/><path d="m-1152-192v-64 32z"/></g><g id="d"><path d="m-1248-192h64z"/><path d="m-1280-192h32z"/><path d="m-1184-192h32z"/><path d="m-1152-256v-128-64h-32-64-32v64 128 32h128z"/><path d="m-1280-224v32h32 64 32v-32z"/><path d="m-1152-384v-64z"/><path d="m-1152-256v-128z"/></g></defs><g stroke="#000"><use fill="none" stroke-miterlimit="0" stroke-width="10" xlink:href="#a"/><use fill="#c4c4c4" xlink:href="#a"/><use fill="none" stroke-miterlimit="0" stroke-width="10" xlink:href="#b"/><use fill="#d9d9d9" xlink:href="#b"/><use fill="none" stroke-miterlimit="0" stroke-width="10" xlink:href="#c"/><use fill="#ebebeb" xlink:href="#c"/><use fill="none" stroke-miterlimit="0" stroke-width="10" xlink:href="#d"/><use fill="#fff" xlink:href="#d"/></g></svg>