<?xml version="1.0" encoding="utf-8" ?>
<svg baseProfile="tiny" height="100%" version="1.2" viewBox="-734.9884033203125 -600.0 1470.8557739257812 1058.0851745605469" width="100%" xmlns="http://www.w3.org/2000/svg" xmlns:ev="http://www.w3.org/2001/xml-events" xmlns:xlink="http://www.w3.org/1999/xlink"><defs><g id="bsp_ref"><polygon points="-272,359.4374 -272,364.5948 -274.5787,362.0161" /><polygon points="-406.6758,232.0962 -430.392,208.38 -588.784,49.9881 -630.6758,8.0964 -627.7017,8.8932 -591.3626,45.2323 -432.9706,203.6242 -406.6758,229.9191" /><polygon points="-274.5787,362.0161 -272,364.5948 -272,366.7719 -406.6758,232.0962 -406.6758,229.9191" /><polygon points="-469.4904,-13.9148 -497.4789,-41.9033 -463.1219,-170.1254 -444.9579,-237.9148 -273.4789,-237.9148 -273.4789,-13.9148" /><polygon points="-273.4789,182.0966 -371.8822,83.6933 -469.4904,-13.9148 -273.4789,-13.9148" /><polygon points="-273.4789,-13.9148 -273.4789,-237.9148 -256.5686,-237.9148 -256,-237.9148 -49.4789,-237.9148 -49.4789,-13.9148" /><polygon points="-245.4902,210.0852 -273.4789,182.0966 -273.4789,-13.9148 -49.4789,-13.9148 -49.4789,210.0852" /><polygon points="-49.4789,242.0852 -154.648,242.0852 -213.4902,242.0852 -245.4902,210.0852 -49.4789,210.0852" /><polygon points="-49.4789,-13.9148 -49.4789,-237.9148 -32,-237.9148 174.5211,-237.9148 174.5211,-13.9148" /><polygon points="-49.4789,210.0852 -49.4789,-13.9148 174.5211,-13.9148 174.5211,210.0852" /><polygon points="174.5211,242.0852 69.352,242.0852 -49.4789,242.0852 -49.4789,210.0852 174.5211,210.0852" /><polygon points="192,-237.9148 256,-237.9148 256,-14.3777 256,-13.9148 174.5211,-13.9148 174.5211,-237.9148" /><polygon points="256,-13.9148 256,175.5755 221.4903,210.0852 174.5211,210.0852 174.5211,-13.9148" /><polygon points="221.4903,210.0852 189.4903,242.0852 174.5211,242.0852 174.5211,210.0852" /><polygon points="-256,-237.9148 -256.5686,-237.9148 -256.8474,-238.1937 -256,-239.3484" /><polygon points="-273.4789,-237.9148 -444.9579,-237.9148 -405.1466,-386.4929 -256.8474,-238.1937 -256.5686,-237.9148" /><polygon points="310.2438,-163.7747 256.4342,-237.7805 406.4284,-387.7747 435.7136,-278.481 466.4491,-163.7747" /><polygon points="493.6891,-62.1136 430.2719,1.3036 418.8701,-14.3777 310.2438,-163.7747 466.4491,-163.7747" /><polygon points="256,-14.3777 256,-237.9148 256,-238.3777 256.4342,-237.7805 310.2438,-163.7747 418.8701,-14.3777" /><polygon points="430.2719,1.3036 344.0163,87.5592 256,175.5755 256,-13.9148 256,-14.3777 418.8701,-14.3777" /><polygon points="406.4284,-387.7747 406.4284,-387.7747 435.7136,-278.481 435.7136,-278.481" /><polygon points="174.5211,242.0852 189.4903,242.0852 189.4903,242.0852 130.6476,242.0852 69.352,242.0852 69.352,242.0852" /><polygon points="430.2719,1.3036 493.6891,-62.1136 493.6891,-62.1136 476.8528,-45.2773 344.0163,87.5592 344.0163,87.5592" /><polygon points="256,-238.3777 256,-237.9148 256,-237.9148 256,-237.9148 256,-238.3777" /><polygon points="406.4284,-387.7747 256.4342,-237.7805 256.4342,-237.7805 406.4284,-387.7747" /><polygon points="-32,-237.9148 -49.4789,-237.9148 -256,-237.9148 -256,-237.9148 -255.8443,-237.9148 -32,-237.9148" /><polygon points="192,-237.9148 174.5211,-237.9148 -32,-237.9148 -32,-237.9148 -31.8444,-237.9148 192,-237.9148" /><polygon points="-256,-239.3484 -256.8474,-238.1937 -256.8474,-238.1937 -256,-239.3484" /><polygon points="-463.1219,-170.1254 -497.4789,-41.9033 -497.4789,-41.9033 -463.1219,-170.1254" /><polygon points="-273.4789,182.0966 -245.4902,210.0852 -213.4902,242.0852 -213.4902,242.0852 -342.4609,113.1145 -371.8822,83.6933 -371.8822,83.6933" /><polygon points="-256.8474,-238.1937 -256.8474,-238.1937 -405.1466,-386.4929 -405.1466,-386.4929" /><polygon points="-256.5686,-237.9148 -256.8474,-238.1937 -405.1466,-386.4929 -405.1466,-386.4929 -256.5686,-237.9148" /><polygon points="-256.8474,-238.1937 -256.5686,-237.9148 -256,-237.9148 -256,-239.3484" /><polygon points="-256,-237.9148 -256.5686,-237.9148 -256.1446,-237.4908 -255.8443,-237.9148" /><polygon points="-31.8444,-237.9148 -32,-237.9148 -255.8443,-237.9148 -255.8443,-237.9148 -31.8444,-237.9148" /><polygon points="192.1556,-237.9148 192,-237.9148 -31.8444,-237.9148 -31.8444,-237.9148 192.1556,-237.9148" /><polygon points="-256,-237.9148 -256,-237.9148 -256,-239.3484 -256,-239.3484" /><polygon points="192.1556,-237.9148 256,-237.9148 256,-237.9148 192,-237.9148 192,-237.9148" /><polygon points="-272,366.7719 -427.0787,211.6933 -430.392,208.38 -430.392,208.38 -406.6758,232.0962 -272,366.7719" /><polygon points="-430.392,208.38 -585.4706,53.3014 -588.784,49.9881 -588.784,49.9881 -430.392,208.38" /><polygon points="-588.784,49.9881 -630.6758,8.0964 -630.6758,8.0964 -588.784,49.9881" /><polygon points="-589.0129,-224.5837 -631.8929,-64.5535 -646.9884,-8.2163 -646.9884,-8.2163 -589.0129,-224.5837" /><polygon points="-531.0375,-440.9511 -573.9174,-280.9209 -589.0129,-224.5837 -589.0129,-224.5837 -531.0375,-440.9511" /><polygon points="573.9175,-280.9209 515.942,-497.2882 515.942,-497.2882 573.9175,-280.9209" /><polygon points="631.8929,-64.5535 573.9175,-280.9209 573.9175,-280.9209 631.8929,-64.5535" /><polygon points="643.6071,-20.8357 642.8275,-23.7455 647.8674,-25.096" /><polygon points="435.7136,-278.481 444.3615,-246.2064 493.6891,-62.1136 493.6891,-62.1136 466.4491,-163.7747 435.7136,-278.481" /><polygon points="444.3615,-246.2064 435.7136,-278.481 406.4284,-387.7747 515.942,-497.2882 573.9175,-280.9209" /><polygon points="502.337,-29.8391 493.6891,-62.1136 444.3615,-246.2064 573.9175,-280.9209 631.8929,-64.5535" /><polygon points="642.8275,-23.7455 643.6071,-20.8357 639.8149,-17.0435 514.7452,16.4688 506.0141,-16.116 502.337,-29.8391 631.8929,-64.5535" /><polygon points="639.8149,-17.0435 534.0936,88.678 514.7452,16.4688" /><polygon points="-274.5787,362.0161 -272,359.4374 -272,359.4374 -274.5787,362.0161" /><polygon points="414.059,208.7128 331.0838,291.6881 255.6673,367.1048 176,287.4376 160.069,271.5065 189.4903,242.0852 318.4609,113.1146" /><polygon points="506.0141,-16.116 514.7452,16.4688 534.0936,88.678 489.4756,133.2961 414.059,208.7128 318.4609,113.1146 344.0163,87.5592 476.8528,-45.2773" /><polygon points="493.6891,-62.1136 502.337,-29.8391 506.0141,-16.116 476.8528,-45.2773" /><polygon points="-48,370.0852 -195.3131,370.0852 -268.6867,370.0852 -272,366.7719 -272,359.4374 -184.0691,271.5063 -154.648,242.0852 -48,242.0852" /><polygon points="176,370.0852 28.6869,370.0852 -48,370.0852 -48,242.0852 69.352,242.0852 130.6476,242.0852 160.069,271.5065 176,287.4376" /><polygon points="255.6673,367.1048 252.6869,370.0852 176,370.0852 176,287.4376" /><polygon points="130.6476,242.0852 189.4903,242.0852 160.069,271.5065" /><polygon points="69.352,242.0852 -48,242.0852 -154.648,242.0852 -154.648,242.0852 -49.4789,242.0852 69.352,242.0852" /><polygon points="344.0163,87.5592 318.4609,113.1146 189.4903,242.0852 189.4903,242.0852 221.4903,210.0852 256,175.5755 344.0163,87.5592" /><polygon points="-272,366.7719 -272,366.7719 -272,364.5948 -272,359.4374 -272,359.4374" /><polygon points="406.4284,-387.7747 256.4342,-237.7805 256.4342,-237.7805 406.4284,-387.7747" /><polygon points="-515.942,-497.2883 -515.942,-497.2883 -414.9604,-396.3068 -414.9604,-396.3068" /><polygon points="-531.0375,-440.9511 -515.942,-497.2883 -414.9604,-396.3068 -405.1466,-386.4929 -442.845,-245.8002 -573.9174,-280.9209" /><polygon points="-442.845,-245.8002 -463.1219,-170.1254 -497.4789,-41.9033 -500.8203,-29.4327 -631.8929,-64.5535 -589.0129,-224.5837 -573.9174,-280.9209" /><polygon points="-500.8203,-29.4327 -518.9012,38.0461 -570.3822,24.2519 -627.7017,8.8932 -630.6758,8.0964 -646.9884,-8.2163 -631.8929,-64.5535" /><polygon points="-213.4902,242.0852 -154.648,242.0852 -184.0691,271.5063" /><polygon points="-213.4902,242.0852 -184.0691,271.5063 -272,359.4374 -274.5787,362.0161 -432.9706,203.6242 -342.4609,113.1145" /><polygon points="-432.9706,203.6242 -591.3626,45.2323 -570.3822,24.2519 -518.9012,38.0461 -380.4249,75.1506 -371.8822,83.6933 -342.4609,113.1145" /><polygon points="-591.3626,45.2323 -627.7017,8.8932 -570.3822,24.2519" /><polygon points="-518.9012,38.0461 -500.8203,-29.4327 -497.4789,-41.9033 -380.4249,75.1506" /><polygon points="-432.9706,203.6242 -274.5787,362.0161 -274.5787,362.0161 -406.6758,229.9191 -432.9706,203.6242" /><polygon points="-591.3626,45.2323 -432.9706,203.6242 -432.9706,203.6242 -591.3626,45.2323" /><polygon points="-627.7017,8.8932 -591.3626,45.2323 -591.3626,45.2323 -627.7017,8.8932" /><polygon points="-154.648,242.0852 -213.4902,242.0852 -213.4902,242.0852 -154.648,242.0852" /><polygon points="-442.845,-245.8002 -405.1466,-386.4929 -405.1466,-386.4929 -405.1466,-386.4929 -444.9579,-237.9148 -463.1219,-170.1254 -463.1219,-170.1254" /><polygon points="-371.8822,83.6933 -380.4249,75.1506 -497.4789,-41.9033 -497.4789,-41.9033 -469.4904,-13.9148 -371.8822,83.6933" /><polygon points="-630.6758,8.0964 -627.7017,8.8932 -627.7017,8.8932 -630.6758,8.0964" /><polygon points="-646.9884,-8.2163 -646.9884,-8.2163 -646.9884,-8.2163 -589.0129,-224.5837 -589.0129,-224.5837" /><polygon points="-589.0129,-224.5837 -589.0129,-224.5837 -531.0375,-440.9511 -531.0375,-440.9511" /><polygon points="-515.942,-497.2883 -515.942,-497.2883 -531.0375,-440.9511 -531.0375,-440.9511" /><polygon points="515.942,-497.2882 515.942,-497.2882 573.9175,-280.9209 573.9175,-280.9209" /><polygon points="573.9175,-280.9209 573.9175,-280.9209 631.8929,-64.5535 631.8929,-64.5535" /><polygon points="642.8275,-23.7455 642.8275,-23.7455 631.8929,-64.5535 631.8929,-64.5535" /><polygon points="515.942,-497.2882 515.942,-497.2882 406.4284,-387.7747 406.4284,-387.7747" /><polygon points="256,-237.9148 256,-237.9148 256,-238.3776 256,-238.3777" /><polygon points="256.4342,-237.7805 256.4342,-237.7805 406.4284,-387.7747 406.4284,-387.7747" /><polygon points="256.4342,-237.7805 256.4342,-237.7805 256.4342,-237.7805 256,-238.3777 256,-238.3777" /><polygon points="-256.1446,-237.4908 -256.1446,-237.4908 -256.5686,-237.9148 -256.5686,-237.9148 -256.5686,-237.9148" /><polygon points="-256.5686,-237.9148 -256.5686,-237.9148 -405.1466,-386.4929 -414.9604,-396.3068 -414.9604,-396.3068" /><polygon points="-515.942,-497.2883 -515.942,-497.2883 -414.9604,-396.3068 -414.9604,-396.3068" /><polygon points="-255.8443,-237.9148 -255.8444,-237.9148 -31.8444,-237.9148 -31.8444,-237.9148" /><polygon points="-31.8444,-237.9148 -31.8444,-237.9148 192.1556,-237.9148 192.1556,-237.9148" /><polygon points="256,-237.9148 256,-237.9148 192.1556,-237.9148 192.1556,-237.9148" /><polygon points="-255.8443,-237.9148 -255.8443,-237.9148 -256.1446,-237.4908 -256.1446,-237.4908" /><polygon points="28.6869,370.0852 28.6869,370.0852 176,370.0852 252.6869,370.0852 252.6869,370.0852" /><polygon points="-195.3131,370.0852 -195.3131,370.0852 -48,370.0852 28.6869,370.0852 28.6869,370.0852" /><polygon points="-268.6867,370.0852 -268.6867,370.0852 -195.3131,370.0852 -195.3131,370.0852" /><polygon points="-427.0787,211.6933 -427.0787,211.6933 -272,366.7719 -268.6867,370.0852 -268.6867,370.0852" /><polygon points="-585.4706,53.3014 -585.4706,53.3014 -430.392,208.38 -427.0787,211.6933 -427.0787,211.6933" /><polygon points="-646.9884,-8.2163 -646.9884,-8.2163 -646.9884,-8.2163 -630.6758,8.0964 -588.784,49.9881 -585.4706,53.3014 -585.4706,53.3014" /><polygon points="489.4756,133.2961 489.4756,133.2961 534.0936,88.678 639.8149,-17.0435 643.6071,-20.8357 647.8674,-25.096 647.8674,-25.096" /><polygon points="331.0838,291.6881 331.0838,291.6881 414.059,208.7128 489.4756,133.2961 489.4756,133.2961" /><polygon points="252.6869,370.0852 252.6869,370.0852 255.6673,367.1048 331.0838,291.6881 331.0838,291.6881" /><polygon points="647.8674,-25.096 647.8674,-25.096 642.8275,-23.7455 642.8275,-23.7455 642.8275,-23.7455" /><polygon points="-646.9884,-8.2163 -646.9884,-8.2163 -646.9884,-8.2163 -589.0129,-224.5837 -589.0129,-224.5837" /><polygon points="-589.0129,-224.5837 -589.0129,-224.5837 -531.0375,-440.9511 -531.0375,-440.9511" /><polygon points="-515.942,-497.2883 -515.942,-497.2883 -531.0375,-440.9511 -531.0375,-440.9511" /><polygon points="515.942,-497.2882 515.942,-497.2882 573.9175,-280.9209 573.9175,-280.9209" /><polygon points="573.9175,-280.9209 573.9175,-280.9209 631.8929,-64.5535 631.8929,-64.5535" /><polygon points="642.8275,-23.7455 642.8275,-23.7455 642.8275,-23.7455 631.8929,-64.5535 631.8929,-64.5535" /><polygon points="515.942,-497.2882 515.942,-497.2882 406.4284,-387.7747 406.4284,-387.7747" /><polygon points="256,-237.9148 256,-237.9148 256,-238.3776 256,-238.3776" /><polygon points="256.4342,-237.7805 256.4342,-237.7805 406.4284,-387.7747 406.4284,-387.7747" /><polygon points="256.4342,-237.7805 256.4342,-237.7805 256,-238.3777 256,-238.3776" /><polygon points="-256.1446,-237.4908 -256.1446,-237.4908 -256.5686,-237.9148 -256.5686,-237.9148" /><polygon points="-256.5686,-237.9148 -256.5686,-237.9148 -414.9604,-396.3068 -414.9604,-396.3068" /><polygon points="-515.942,-497.2883 -515.942,-497.2883 -414.9604,-396.3068 -414.9604,-396.3068" /><polygon points="-255.8444,-237.9148 -255.8444,-237.9148 -31.8444,-237.9148 -31.8444,-237.9148" /><polygon points="-31.8444,-237.9148 -31.8444,-237.9148 192.1556,-237.9148 192.1556,-237.9148" /><polygon points="256,-237.9148 256,-237.9148 192.1556,-237.9148 192.1556,-237.9148" /><polygon points="-255.8444,-237.9148 -255.8443,-237.9148 -256.1446,-237.4908 -256.1446,-237.4908" /><polygon points="28.6869,370.0852 28.6869,370.0852 252.6869,370.0852 252.6869,370.0852" /><polygon points="-195.3131,370.0852 -195.3131,370.0852 28.6869,370.0852 28.6869,370.0852" /><polygon points="-268.6867,370.0852 -268.6867,370.0852 -195.3131,370.0852 -195.3131,370.0852" /><polygon points="-427.0787,211.6933 -427.0787,211.6933 -268.6867,370.0852 -268.6867,370.0852" /><polygon points="-585.4706,53.3014 -585.4706,53.3014 -427.0787,211.6933 -427.0787,211.6933" /><polygon points="-646.9884,-8.2163 -646.9884,-8.2163 -646.9884,-8.2163 -585.4706,53.3014 -585.4706,53.3014" /><polygon points="489.4756,133.2961 489.4756,133.2961 647.8674,-25.096 647.8674,-25.096" /><polygon points="331.0838,291.6881 331.0838,291.6881 489.4756,133.2961 489.4756,133.2961" /><polygon points="252.6869,370.0852 252.6869,370.0852 331.0838,291.6881 331.0838,291.6881" /><polygon points="647.8674,-25.096 647.8674,-25.096 642.8275,-23.7455 642.8275,-23.7455 642.8275,-23.7455" /><polygon points="-646.9884,-8.2163 -646.9884,-8.2163 -646.9884,-8.2163 -589.0129,-224.5837 -589.0129,-224.5837" /><polygon points="-589.0129,-224.5837 -589.0129,-224.5837 -531.0375,-440.9511 -531.0375,-440.9511" /><polygon points="-515.942,-497.2883 -515.942,-497.2883 -531.0375,-440.9511 -531.0375,-440.9511" /><polygon points="515.942,-497.2882 515.942,-497.2882 569.9755,-295.6325 573.9175,-280.9209 573.9175,-280.9209" /><polygon points="573.9175,-280.9209 573.9175,-280.9209 627.951,-79.2652 631.8929,-64.5535 631.8929,-64.5535" /><polygon points="642.8275,-23.7455 642.8275,-23.7455 642.8275,-23.7455 631.8929,-64.5535 631.8929,-64.5535" /><polygon points="515.942,-497.2882 515.942,-497.2882 406.4284,-387.7747 406.4284,-387.7747" /><polygon points="256,-237.9148 256,-237.9148 256,-238.3776 256,-238.3776" /><polygon points="256.4342,-237.7805 256.4341,-237.7804 406.4284,-387.7747 406.4284,-387.7747" /><polygon points="256.4342,-237.7805 256.4342,-237.7805 256,-238.3776 256,-238.3776" /><polygon points="-256.1446,-237.4908 -256.1446,-237.4908 -256.5686,-237.9148 -256.5686,-237.9148" /><polygon points="-256.5686,-237.9148 -256.5686,-237.9148 -414.9604,-396.3068 -414.9604,-396.3068" /><polygon points="-515.942,-497.2883 -515.942,-497.2883 -414.9604,-396.3068 -414.9604,-396.3068" /><polygon points="-255.8444,-237.9148 -255.8444,-237.9148 -31.8444,-237.9148 -31.8444,-237.9148" /><polygon points="-31.8444,-237.9148 -31.8444,-237.9148 192.1556,-237.9148 192.1556,-237.9148" /><polygon points="256,-237.9148 256,-237.9148 192.1556,-237.9148 192.1556,-237.9148" /><polygon points="-255.8444,-237.9148 -255.8444,-237.9148 -256.1446,-237.4908 -256.1446,-237.4908" /><polygon points="28.6869,370.0852 28.6869,370.0852 252.6869,370.0852 252.6869,370.0852" /><polygon points="-195.3131,370.0852 -195.3131,370.0852 28.6869,370.0852 28.6869,370.0852" /><polygon points="-268.6867,370.0852 -268.6867,370.0852 -195.3131,370.0852 -195.3131,370.0852" /><polygon points="-427.0787,211.6933 -427.0787,211.6933 -268.6867,370.0852 -268.6867,370.0852" /><polygon points="-585.4706,53.3014 -585.4706,53.3014 -427.0787,211.6933 -427.0787,211.6933" /><polygon points="-646.9884,-8.2163 -646.9884,-8.2163 -646.9884,-8.2163 -585.4706,53.3014 -585.4706,53.3014" /><polygon points="489.4756,133.2961 489.4756,133.2961 647.8674,-25.096 647.8674,-25.096" /><polygon points="331.0838,291.6881 331.0838,291.6881 489.4756,133.2961 489.4756,133.2961" /><polygon points="252.6869,370.0852 252.6869,370.0852 331.0838,291.6881 331.0838,291.6881" /><polygon points="647.8674,-25.096 647.8674,-25.096 642.8275,-23.7455 642.8275,-23.7455 642.8275,-23.7455" /><polygon points="-515.942,-497.2883 -515.942,-497.2883 -531.0375,-440.9511 -531.0375,-440.9511" /><polygon points="-589.0129,-224.5837 -646.9884,-8.2163 -646.9884,-8.2163 -589.0129,-224.5837" /><polygon points="-531.0375,-440.9511 -589.0129,-224.5837 -589.0129,-224.5837 -531.0375,-440.9511" /><polygon points="642.8275,-23.7455 642.8275,-23.7455 642.8275,-23.7455 631.8929,-64.5535 631.8929,-64.5535" /><polygon points="515.942,-497.2882 512.5587,-509.9148 512,-511.9999 512,-511.9999 569.9755,-295.6325 569.9755,-295.6325" /><polygon points="-333.968,-476.4513 -239.4315,-381.9148 -189.3457,-331.829 -255.8444,-237.9148 -256.1446,-237.4908 -256.5686,-237.9148 -414.5365,-395.8828" /><polygon points="-414.9604,-396.3068 -515.942,-497.2883 -512.5587,-509.9148 -512,-509.9148 -367.4315,-509.9148 -333.968,-476.4513 -414.5365,-395.8828" /><polygon points="-512,-509.9148 -512.5587,-509.9148 -512,-512" /><polygon points="414.826,-396.1723 406.4284,-387.7747 256.4341,-237.7804 256,-238.3776 192.1556,-326.1846 188.5964,-331.0797 239.4315,-381.9148 304.5685,-447.0518 334.2575,-476.7409" /><polygon points="367.4315,-509.9148 384,-509.9148 512,-509.9148 512.5587,-509.9148 515.942,-497.2882 414.826,-396.1723 334.2575,-476.7409" /><polygon points="-239.4315,-381.9148 -153.8809,-381.9148 -189.3457,-331.829" /><polygon points="151.6342,-381.9148 239.4315,-381.9148 188.5964,-331.0797" /><polygon points="-143.4315,-381.9148 -153.8809,-381.9148 -239.4315,-381.9148 -333.968,-476.4513 -367.4315,-509.9148 -288,-509.9148 -143.4315,-509.9148" /><polygon points="80.5685,-381.9148 -31.8444,-381.9148 -143.4315,-381.9148 -143.4315,-509.9148 -64,-509.9148 80.5685,-509.9148" /><polygon points="304.5685,-447.0518 239.4315,-381.9148 151.6342,-381.9148 80.5685,-381.9148 80.5685,-509.9148 160,-509.9148 304.5685,-509.9148" /><polygon points="367.4315,-509.9148 334.2575,-476.7409 304.5685,-447.0518 304.5685,-509.9148" /><polygon points="-31.8444,-237.9148 -255.8444,-237.9148 -189.3457,-331.829 -153.8809,-381.9148 -143.4315,-381.9148 -31.8444,-381.9148" /><polygon points="192.1556,-237.9148 -31.8444,-237.9148 -31.8444,-381.9148 80.5685,-381.9148 151.6342,-381.9148 188.5964,-331.0797 192.1556,-326.1846" /><polygon points="256,-238.3776 256,-237.9148 192.1556,-237.9148 192.1556,-326.1846" /><polygon points="512,-511.9999 512.5587,-509.9148 512,-509.9148" /><polygon points="-512,-509.9148 -512,-512 -512,-512 -512,-509.9148" /><polygon points="512,-511.9999 512,-509.9148 512,-509.9148 512,-511.9999" /><polygon points="-288,-509.9148 -367.4315,-509.9148 -512,-509.9148 -512,-509.9148 -288,-509.9148" /><polygon points="-64,-509.9148 -143.4315,-509.9148 -288,-509.9148 -288,-509.9148 -64,-509.9148" /><polygon points="160,-509.9148 80.5685,-509.9148 -64,-509.9148 -64,-509.9148 160,-509.9148" /><polygon points="384,-509.9148 367.4315,-509.9148 304.5685,-509.9148 160,-509.9148 160,-509.9148 384,-509.9148" /><polygon points="414.826,-396.1723 515.942,-497.2882 515.942,-497.2882 406.4284,-387.7747 406.4284,-387.7747" /><polygon points="256,-238.3776 256.4341,-237.7804 256.4342,-237.7805 256,-238.3776" /><polygon points="-256.5686,-237.9148 -256.1446,-237.4908 -256.1446,-237.4908 -256.5686,-237.9148" /><polygon points="-414.9604,-396.3068 -414.5365,-395.8828 -256.5686,-237.9148 -256.5686,-237.9148 -414.9604,-396.3068" /><polygon points="256,-237.9148 256,-237.9148 192.1556,-237.9148 192.1556,-237.9148" /><polygon points="-256.1446,-237.4908 -255.8444,-237.9148 -255.8444,-237.9148 -256.1446,-237.4908" /><polygon points="28.6869,370.0852 28.6869,370.0852 252.6869,370.0852 252.6869,370.0852" /><polygon points="-195.3131,370.0852 -195.3131,370.0852 28.6869,370.0852 28.6869,370.0852" /><polygon points="-268.6867,370.0852 -268.6867,370.0852 -195.3131,370.0852 -195.3131,370.0852" /><polygon points="-427.0787,211.6933 -427.0787,211.6933 -268.6867,370.0852 -268.6867,370.0852" /><polygon points="-585.4706,53.3014 -585.4706,53.3014 -427.0787,211.6933 -427.0787,211.6933" /><polygon points="-646.9884,-8.2163 -646.9884,-8.2163 -646.9884,-8.2163 -585.4706,53.3014 -585.4706,53.3014" /><polygon points="-646.9884,-8.2163 -646.9884,-8.2163 -589.0129,-224.5837 -589.0129,-224.5837" /><polygon points="-589.0129,-224.5837 -589.0129,-224.5837 -531.0375,-440.9511 -531.0375,-440.9511" /><polygon points="-512,-512 -512,-512 -512.5587,-509.9148 -515.942,-497.2883 -531.0375,-440.9511 -531.0375,-440.9511" /><polygon points="489.4756,133.2961 489.4756,133.2961 647.8674,-25.096 647.8674,-25.096" /><polygon points="331.0838,291.6881 331.0838,291.6881 489.4756,133.2961 489.4756,133.2961" /><polygon points="252.6869,370.0852 252.6869,370.0852 331.0838,291.6881 331.0838,291.6881" /><polygon points="512,-511.9999 512,-511.9999 569.9755,-295.6325 569.9755,-295.6325" /><polygon points="627.951,-79.2652 627.951,-79.2652 573.9175,-280.9209 569.9755,-295.6325 569.9755,-295.6325" /><polygon points="642.8275,-23.7455 642.8275,-23.7455 631.8929,-64.5535 627.951,-79.2652 627.951,-79.2652" /><polygon points="647.8674,-25.096 647.8674,-25.096 642.8275,-23.7455 642.8275,-23.7455 642.8275,-23.7455" /><polygon points="-512,-512 -512,-512 -512,-509.9148 -512,-509.9148" /><polygon points="512,-509.9148 512,-509.9148 512,-511.9999 512,-511.9999" /><polygon points="-512,-509.9148 -512,-509.9148 -288,-509.9148 -288,-509.9148" /><polygon points="-288,-509.9148 -288,-509.9148 -64,-509.9148 -64,-509.9148" /><polygon points="-64,-509.9148 -64,-509.9148 160,-509.9148 160,-509.9148" /><polygon points="160,-509.9148 160,-509.9148 384,-509.9148 384,-509.9148" /><polygon points="512,-509.9148 512,-509.9148 384,-509.9148 384,-509.9148" /><polygon points="28.6869,370.0852 28.6869,370.0852 252.6869,370.0852 252.6869,370.0852" /><polygon points="-195.3131,370.0852 -195.3131,370.0852 28.6869,370.0852 28.6869,370.0852" /><polygon points="-268.6867,370.0852 -268.6867,370.0852 -195.3131,370.0852 -195.3131,370.0852" /><polygon points="-427.0787,211.6933 -427.0787,211.6933 -268.6867,370.0852 -268.6867,370.0852" /><polygon points="-585.4706,53.3014 -585.4706,53.3014 -427.0787,211.6933 -427.0787,211.6933" /><polygon points="-646.9884,-8.2163 -646.9884,-8.2163 -585.4706,53.3014 -585.4706,53.3014" /><polygon points="-646.9884,-8.2163 -646.9884,-8.2163 -589.0129,-224.5837 -589.0129,-224.5837" /><polygon points="-589.0129,-224.5837 -589.0129,-224.5837 -531.0375,-440.9511 -531.0375,-440.9511" /><polygon points="-512,-512 -512,-512 -531.0375,-440.9511 -531.0375,-440.9511" /><polygon points="489.4756,133.2961 489.4756,133.2961 647.8674,-25.096 647.8674,-25.096" /><polygon points="331.0838,291.6881 331.0838,291.6881 489.4756,133.2961 489.4756,133.2961" /><polygon points="252.6869,370.0852 252.6869,370.0852 331.0838,291.6881 331.0838,291.6881" /><polygon points="512,-511.9999 512,-511.9999 569.9755,-295.6325 569.9755,-295.6325" /><polygon points="627.951,-79.2652 627.951,-79.2652 569.9755,-295.6325 569.9755,-295.6325" /><polygon points="642.8275,-23.7455 642.8275,-23.7455 627.951,-79.2652 627.951,-79.2652" /><polygon points="647.8674,-25.096 647.8674,-25.096 642.8275,-23.7455 642.8275,-23.7455" /><polygon points="-512,-512 -512,-512 -512,-509.9148 -512,-509.9148" /><polygon points="512,-509.9148 512,-509.9148 512,-511.9999 512,-511.9999" /><polygon points="-512,-509.9148 -512,-509.9148 -288,-509.9148 -288,-509.9148" /><polygon points="-288,-509.9148 -288,-509.9148 -64,-509.9148 -64,-509.9148" /><polygon points="-64,-509.9148 -64,-509.9148 160,-509.9148 160,-509.9148" /><polygon points="160,-509.9148 160,-509.9148 384,-509.9148 384,-509.9148" /><polygon points="512,-509.9148 512,-509.9148 384,-509.9148 384,-509.9148" /><polygon points="28.6869,370.0852 28.6869,370.0852 252.6869,370.0852 252.6869,370.0852" /><polygon points="-195.3131,370.0852 -195.3131,370.0852 28.6869,370.0852 28.6869,370.0852" /><polygon points="-268.6867,370.0852 -268.6867,370.0852 -195.3131,370.0852 -195.3131,370.0852" /><polygon points="-427.0787,211.6933 -427.0787,211.6933 -268.6867,370.0852 -268.6867,370.0852" /><polygon points="-585.4706,53.3014 -585.4706,53.3014 -427.0787,211.6933 -427.0787,211.6933" /><polygon points="-646.9884,-8.2163 -646.9884,-8.2163 -585.4706,53.3014 -585.4706,53.3014" /><polygon points="-646.9884,-8.2163 -646.9884,-8.2163 -589.0129,-224.5837 -589.0129,-224.5837" /><polygon points="-589.0129,-224.5837 -589.0129,-224.5837 -586.9678,-232.2163 -531.0375,-440.9511 -531.0375,-440.9511" /><polygon points="-512,-512 -512,-512 -531.0375,-440.9511 -531.0375,-440.9511" /><polygon points="489.4756,133.2961 489.4756,133.2961 647.8674,-25.096 647.8674,-25.096" /><polygon points="331.0838,291.6881 331.0838,291.6881 489.4756,133.2961 489.4756,133.2961" /><polygon points="252.6869,370.0852 252.6869,370.0852 331.0838,291.6881 331.0838,291.6881" /><polygon points="512,-511.9999 512,-511.9999 512.5587,-509.9148 569.2769,-298.2399 569.9755,-295.6325 569.9755,-295.6325" /><polygon points="627.951,-79.2652 627.951,-79.2652 569.9755,-295.6325 569.9755,-295.6325" /><polygon points="642.8275,-23.7455 642.8275,-23.7455 627.951,-79.2652 627.951,-79.2652" /><polygon points="647.8674,-25.096 647.8674,-25.096 642.8275,-23.7455 642.8275,-23.7455" /><polygon points="-512,-512 -512,-512 -512,-509.9148 -512,-509.9148" /><polygon points="512,-509.9148 512,-509.9148 512,-511.9999 512,-511.9999" /><polygon points="-512,-509.9148 -512,-509.9148 -422.9884,-509.9148 -288,-509.9148 -288,-509.9148" /><polygon points="-288,-509.9148 -288,-509.9148 -198.9884,-509.9148 -64,-509.9148 -64,-509.9148" /><polygon points="-64,-509.9148 -64,-509.9148 25.0116,-509.9148 160,-509.9148 160,-509.9148" /><polygon points="160,-509.9148 160,-509.9148 249.0116,-509.9148 384,-509.9148 384,-509.9148" /><polygon points="512,-509.9148 512,-509.9148 384,-509.9148 384,-509.9148" /><polygon points="-512,-512 -512.5587,-509.9148 -512,-509.9148" /><polygon points="647.8674,-25.096 642.8275,-23.7455 643.6071,-20.8357" /><polygon points="-646.9884,-8.2163 -585.4706,53.3014 -427.0787,211.6933 -422.9884,215.7835 -422.9884,146.0852 -422.9884,-8.2165" /><polygon points="-586.9678,-232.2163 -589.0129,-224.5837 -646.9884,-8.2163 -422.9884,-8.2165 -422.9884,-77.9148 -422.9884,-232.2163" /><polygon points="-526.9472,-456.2163 -531.0375,-440.9511 -586.9678,-232.2163 -422.9884,-232.2163 -422.9884,-301.9148 -422.9884,-456.2163" /><polygon points="-422.9884,-509.9148 -512,-509.9148 -512.5587,-509.9148 -526.9472,-456.2163 -422.9884,-456.2163" /><polygon points="-422.9884,146.0852 -422.9884,215.7835 -268.6867,370.0852 -198.9884,370.0852 -198.9884,146.0852" /><polygon points="-422.9884,-77.9148 -422.9884,-8.2165 -422.9884,146.0852 -198.9884,146.0852 -198.9884,-77.9148" /><polygon points="-422.9884,-301.9148 -422.9884,-232.2163 -422.9884,-77.9148 -198.9884,-77.9148 -198.9884,-301.9148" /><polygon points="-198.9884,-509.9148 -288,-509.9148 -422.9884,-509.9148 -422.9884,-456.2163 -422.9884,-301.9148 -198.9884,-301.9148" /><polygon points="-198.9884,146.0852 -198.9884,370.0852 -195.3131,370.0852 25.0116,370.0852 25.0116,146.0852" /><polygon points="-198.9884,-77.9148 -198.9884,146.0852 25.0116,146.0852 25.0116,-77.9148" /><polygon points="-198.9884,-301.9148 -198.9884,-77.9148 25.0116,-77.9148 25.0116,-301.9148" /><polygon points="25.0116,-509.9148 -64,-509.9148 -198.9884,-509.9148 -198.9884,-301.9148 25.0116,-301.9148" /><polygon points="25.0116,146.0852 25.0116,370.0852 28.6869,370.0852 249.0116,370.0852 249.0116,146.0852" /><polygon points="25.0116,-77.9148 25.0116,146.0852 249.0116,146.0852 249.0116,-77.9148" /><polygon points="25.0116,-301.9148 25.0116,-77.9148 249.0116,-77.9148 249.0116,-301.9148" /><polygon points="249.0116,-509.9148 160,-509.9148 25.0116,-509.9148 25.0116,-301.9148 249.0116,-301.9148" /><polygon points="249.0116,146.0852 249.0116,370.0852 252.6869,370.0852 331.0838,291.6881 473.0116,149.7601 473.0116,146.0852" /><polygon points="249.0116,-77.9148 249.0116,146.0852 473.0116,146.0852 473.0116,-74.2399 473.0116,-77.9148" /><polygon points="249.0116,-301.9148 249.0116,-77.9148 473.0116,-77.9148 473.0116,-298.2399 473.0116,-301.9148" /><polygon points="473.0116,-509.9148 384,-509.9148 249.0116,-509.9148 249.0116,-301.9148 473.0116,-301.9148" /><polygon points="489.4756,133.2961 643.6071,-20.8357 642.8275,-23.7455 629.2975,-74.2399 473.0116,-74.2399 473.0116,146.0852 473.0116,149.7601" /><polygon points="629.2975,-74.2399 627.951,-79.2652 569.9755,-295.6325 569.2769,-298.2399 473.0116,-298.2399 473.0116,-77.9148 473.0116,-74.2399" /><polygon points="569.2769,-298.2399 512.5587,-509.9148 512,-509.9148 473.0116,-509.9148 473.0116,-301.9148 473.0116,-298.2399" /><polygon points="512.5587,-509.9148 512,-511.9999 512,-509.9148" /><polygon points="252.6869,370.0852 249.0116,370.0852 28.6869,370.0852 28.6869,370.0852 252.6869,370.0852" /><polygon points="28.6869,370.0852 25.0116,370.0852 -195.3131,370.0852 -195.3131,370.0852 28.6869,370.0852" /><polygon points="-195.3131,370.0852 -198.9884,370.0852 -268.6867,370.0852 -268.6867,370.0852 -195.3131,370.0852" /><polygon points="-268.6867,370.0852 -422.9884,215.7835 -427.0787,211.6933 -427.0787,211.6933 -268.6867,370.0852" /><polygon points="-427.0787,211.6933 -585.4706,53.3014 -585.4706,53.3014 -427.0787,211.6933" /><polygon points="-585.4706,53.3014 -646.9884,-8.2163 -646.9884,-8.2163 -585.4706,53.3014" /><polygon points="-526.9472,-456.2163 -512.5587,-509.9148 -512,-512 -512,-512 -531.0375,-440.9511 -531.0375,-440.9511" /><polygon points="647.8674,-25.096 643.6071,-20.8357 489.4756,133.2961 489.4756,133.2961 647.8674,-25.096" /><polygon points="489.4756,133.2961 473.0116,149.7601 331.0838,291.6881 331.0838,291.6881 489.4756,133.2961" /><polygon points="331.0838,291.6881 252.6869,370.0852 252.6869,370.0852 331.0838,291.6881" /><polygon points="569.9755,-295.6325 627.951,-79.2652 627.951,-79.2652 569.9755,-295.6325" /><polygon points="627.951,-79.2652 629.2975,-74.2399 642.8275,-23.7455 642.8275,-23.7455 627.951,-79.2652" /><polygon points="642.8275,-23.7455 647.8674,-25.096 647.8674,-25.096 642.8275,-23.7455" /><polygon points="473.0116,-509.9148 512,-509.9148 512,-509.9148 384,-509.9148 384,-509.9148" /></g></defs><rect fill="#fff" height="1058.0852" id="background" width="1470.8558" x="-734.9884" y="-600.0" /><use fill="none" stroke="black" stroke-miterlimit="0" stroke-width="15" xlink:href="#bsp_ref" /><use fill="white" stroke="black" stroke-width="1" xlink:href="#bsp_ref" /></svg>