<svg viewBox="-1620 -2996 3720 3704" xmlns="http://www.w3.org/2000/svg" xmlns:xlink="http://www.w3.org/1999/xlink"><defs><g id="a"><path d="m-608-1744h-224v-128h224z"/><path d="m-384-1744h-224v-128h224z"/><path d="m-160-1744h-96-128v-128h128 96z"/><path d="m-96-1872v128h-64v-128z"/><path d="m-160-1744h64v32h-160v-32z"/><path d="m-608-1872h-224v-32h160 64z"/><path d="m-384-1872h-224v-32h160 64z"/><path d="m-256-1872h-128v-32h128z"/><path d="m-96-1904v32h-64-96v-32z"/><path d="m-384-1712h128-192z"/><path d="m-672-1712h-160z"/><path d="m-448-1904h-160-64z"/><path d="m-608-1712h-64-160v-32h224z"/><path d="m-384-1712h-64-160v-32h224z"/><path d="m-256-1712h-128v-32h128z"/><path d="m-256-1904h160z"/><path d="m-448-1712h-224 64z"/><path d="m-256-1904h-128-64z"/><path d="m-256-1712v-32h-192v32z"/><path d="m-448-1904h-224v32h224z"/><path d="m-256-1744v32z"/><path d="m-256-1904v32z"/><path d="m-256-1712h160z"/><path d="m-448-1872h-224v128h224z"/><path d="m-256-1744v-128h-192v128z"/><path d="m-448-1744h-224v32h224z"/><path d="m-672-1872v-32z"/><path d="m-256-1872v-32h-192v32z"/><path d="m-672-1712v-32z"/><path d="m1456-1392h96z"/><path d="m1680-1456h-16v-96h16z"/><path d="m1664-1456h-16v-96h16z"/><path d="m1664-1552h-16z"/><path d="m1664-1456h16z"/><path d="m1296-1568v48z"/><path d="m1520-1568h-48-16-160l48-48h176z"/><path d="m1552-1616 72 48h-72-32v-48z"/><path d="m1552-1472v-64-32h72l24 16v96l-96 64z"/><path d="m1520-1568h32v32h-16-64v-32z"/><path d="m1456-1568h16v32 64h-16z"/><path d="m1536-1472v-64h16v64z"/><path d="m1456-1392v-80h16 64 16v80z"/><path d="m1296-1520v-48h160v96 80h-112l-48-48z"/><path d="m1624-1568-72-48 16 10.6666 80 53.3334z"/><path d="m-672-1712v-192h-160v192z"/><path d="m-672-1904v192h-160v-192z"/><path d="m-672-1712v-192 112z"/><path d="m-672-1712h-160z"/><path d="m-832-1904v32 128 32z"/><path d="m-672-1904h-160z"/><path d="m-672-1904v192-32-128z"/><path d="m1536-1472h-64v-64h64z"/><path d="m1472-1536h64z"/><path d="m1536-1472h-64z"/><path d="m1472-1472v-64z"/><path d="m1536-1536v64z"/><path d="m-928-1856v96z"/><path d="m-928-1744v144z"/><path d="m-928-2016v144z"/><path d="m-672-1472h-160z"/><path d="m-832-1472-32-32z"/><path d="m-704-2016h-128-32-16-48z"/><path d="m-576-2016v192z"/><path d="m-640-1504-32 32z"/><path d="m-640-1504v-64-16z"/><path d="m-576-1600h-64z"/><path d="m-576-2016v192 32h-64v-224z"/><path d="m-576-1792v192h-64v-192z"/><path d="m-640-2016v224h-32v-112-112z"/><path d="m-640-1792v192 16 16h-32v-144-80z"/><path d="m-640-1568v64l-32 32v-96z"/><path d="m-832-1792v-112 192z"/><path d="m-672-1904h-160z"/><path d="m-704-2016h32v112h-160v-112z"/><path d="m-672-1712v144 96h-160v-96-144z"/><path d="m-864-1568v64-96z"/><path d="m-832-2016v112 112h-32v-224z"/><path d="m-832-1792v80 144h-32v-32-144-48z"/><path d="m-832-1568v96l-32-32v-64z"/><path d="m-896-1744h16z"/><path d="m-880-1792v-64-16-144h16v224z"/><path d="m-864-1744h-16v-16-32h16z"/><path d="m-880-2016v144h-16-32v-144z"/><path d="m-896-1856h16v64 32h-16-16v-96z"/><path d="m-928-1760v-96h16v96z"/><path d="m-896-1872h-32z"/><path d="m-880-1872h-16z"/><path d="m-912-1760h16z"/><path d="m-880-1760h-16z"/><path d="m-912-1856h-16z"/><path d="m-896-1856h16z"/><path d="m-864-1600h-64z"/><path d="m-896-1744h16 16v144h-64v-144z"/><path d="m-96-1712v-192 128z"/><path d="m-96-1904v192-32-128z"/><path d="m-256-1712v-192 32 128z"/><path d="m-256-1712h160-128z"/><path d="m-896-1872h16v16h-16z"/><path d="m-896-1760h16v16h-16z"/><path d="m176-2256h-64-96-64z"/><path d="m496-2256h-96-48z"/><path d="m400-1424h96 16-128z"/><path d="m512-2224v128z"/><path d="m288-2256h64 48v64 16 64 16 64h-112z"/><path d="m400-2032v160 64h-112v-48-176z"/><path d="m400-1808v160 32 16h-112v-160-48z"/><path d="m400-2256h96v32 32h-16-80z"/><path d="m288-2256v224h-96v-224z"/><path d="m288-2032v176h-96v-176z"/><path d="m496-2096v-16-80-32h16v128 96h-16z"/><path d="m512-2000v128 96h-16v-96-128z"/><path d="m512-1776v128 96h-16v-64-32-128z"/><path d="m512-1552v128h-16v-96-32z"/><path d="m400-2032v-64h96v96 128h-96z"/><path d="m496-1872v96 128h-96v-160-64z"/><path d="m496-1648v32h-16-80v-32z"/><path d="m288-1760v160h-36v-160z"/><path d="m496-1520v96h-96v-96z"/><path d="m288-1600h112v80 96h-16-132v-112-64z"/><path d="m16-1920v-112-64h96v64 160h-96z"/><path d="m112-1872v64 160h-96v-48-176z"/><path d="m112-1648v32h-96v-32z"/><path d="m-48-2032v-192-32h64v64 80 16 64z"/><path d="m16-1920h-64v-80-32h64z"/><path d="m-64-2000v-224h16v192 32z"/><path d="m-48-1920h-16v-80h16z"/><path d="m112-2096v-16-64-16-64h64 16v224h-80z"/><path d="m192-2032v176 48h-80v-64-160z"/><path d="m192-1808v48 176h-80v-16-16-32-160z"/><path d="m192-1584v48h-80v-48z"/><path d="m32-2192h-16v-64h96v64z"/><path d="m-64-1776v-144h16 64v48 176h-80z"/><path d="m16-1696v48 32 16 80 48h-80v-80-32-112z"/><path d="m16-1472v48h-80v-48z"/><path d="m192-1536v-48-176h60v160 64z"/><path d="m16-1424v-48-48h96v96z"/><path d="m160-1424h-48v-96-16h80 60v112z"/><path d="m512-2224h-16z"/><path d="m496-2224v-32z"/><path d="m496-2192-16 16v-16z"/><path d="m400-2192 16 16h-16z"/><path d="m496-2096-16-16h16z"/><path d="m480-1616h16l-16 16z"/><path d="m400-1616 16 16h-16z"/><path d="m288-1856-16 16h-64l-16-16z"/><path d="m16-1520 16-16h64l16 16z"/><path d="m16-2192 16 16v64h-16z"/><path d="m112-2112v16l-16-16z"/><path d="m16-1616 16 16h-16z"/><path d="m-64-1584h-32z"/><path d="m-96-2224h32v224h-32z"/><path d="m-64-2000v80 144h-32v-128-96z"/><path d="m-64-1776v80 112h-32v-128-64z"/><path d="m-224-2128 96-96h32v224h-128z"/><path d="m-96-2000v96h-128v-96z"/><path d="m-96-1584h-32l-96-96v-32h128z"/><path d="m-224-1904v192 32z"/><path d="m-224-1680 96 96z"/><path d="m-96-1904h-160 32z"/><path d="m-224-1904h-32v192h32z"/><path d="m1344-1392h112z"/><path d="m1680-1552h-16z"/><path d="m1648-1456h16z"/><path d="m1664-1456v-96 32 32z"/><path d="m1680-1456v-96 32 32z"/><path d="m1664-1456h16v-32h-16z"/><path d="m1664-1552h-16v32h16z"/><path d="m1296-1440 48 48z"/><path d="m-48-2256h16 32 16 96 16 32 16z"/><path d="m352-2256h-64-96-16z"/><path d="m352-2256h144z"/><path d="m-64-1424h80 96 48z"/><path d="m160-1424h92 132z"/><path d="m512-1424h-16-96-16z"/><path d="m512-1424v-128-96z"/><path d="m512-1648v-128-96z"/><path d="m512-1872v-128-96z"/><path d="m512-2224v128z"/><path d="m496-2224h16z"/><path d="m496-2256v32z"/><path d="m480-2112v-64l16-16v80z"/><path d="m480-2176h-64l-16-16h80z"/><path d="m416-2176v64h-16v-64z"/><path d="m480-2112 16 16h-96l16-16z"/><path d="m416-2112-16 16v-16z"/><path d="m416-1536h64l16 16h-96z"/><path d="m480-1600 16-16v64 32l-16-16z"/><path d="m416-1600-16-16h80v16z"/><path d="m416-1536v-64z"/><path d="m416-1600v64l-16 16v-80z"/><path d="m272-1840v64h-64v-64z"/><path d="m272-1776 16 16h-36-60l16-16z"/><path d="m208-1776-16 16v-48-48l16 16z"/><path d="m272-1840 16-16v48 48l-16-16z"/><path d="m32-1600-16-16h96l-16 16z"/><path d="m32-2176v-16h80l-16 16z"/><path d="m96-2176 16-16v16z"/><path d="m96-2176h16v64h-16z"/><path d="m32-2176-16-16h16z"/><path d="m96-2112 16 16h-96l16-16z"/><path d="m32-2112-16 16v-16z"/><path d="m96-1600 16-16v16z"/><path d="m96-1600h16v16 48 16l-16-16z"/><path d="m32-1536v-64z"/><path d="m32-1600v64l-16 16v-80z"/><path d="m-64-1552v80 48z"/><path d="m-64-1584v32z"/><path d="m-48-2224h-16z"/><path d="m-48-2256v32z"/><path d="m-64-2224h-32-32z"/><path d="m-64-1584h-32z"/><path d="m-128-1584h32z"/><path d="m-224-1680v-224z"/><path d="m-224-2128v128 96z"/><path d="m-128-2224-96 96z"/><path d="m-128-1584-96-96z"/><path d="m-928-1760h16z"/><path d="m-896-1856h-16z"/><path d="m-896-1856v-16z"/><path d="m-912-1856h-16v96h16z"/><path d="m-896-1856h-16v96h16z"/><path d="m-912-1760v-96z"/><path d="m-912-1856v96z"/><path d="m1648-1520v-32z"/><path d="m1648-1456v-32z"/><path d="m1664-1520v32h16v-32z"/><path d="m1648-1520v32h16v-32z"/><path d="m1664-1488v-32-32 96z"/><path d="m1680-1520v-32h-16v32z"/><path d="m1648-1488v32h16v-32z"/><path d="m1296-1520v80z"/><path d="m1568-1605.3334v202.6667l80-53.3333v-32-32-32z"/><path d="m1568-1605.3334-16-10.6666v217.6 6.4l16-10.6667z"/><path d="m1568-1605.3334-16-10.6666z"/><path d="m1568-1402.6667-16 10.6667 96-64z"/><path d="m-576-2016h-64-32-32z"/><path d="m-576-1824v-192l-32 32v192h32z"/><path d="m-576-1824v32 192-192z"/><path d="m-704-2016h-224l32 32h192z"/><path d="m-640-1504v-80-16h-64-160v96l32 32h160z"/><path d="m-896-1872v16 96 16h-32v-48-80z"/><path d="m-640-1600h64l-32-32h-64-32v32z"/><path d="m-640-1584v-16z"/><path d="m-896-1744h-32z"/><path d="m-896-1856v96z"/><path d="m-896-1744v-16z"/><path d="m1552-1616h-32-176 144z"/><path d="m1552-1398.4v6.4z"/><path d="m1552-1392 16-10.6667z"/><path d="m1552-1616h-64v96 96l64 25.6z"/><path d="m1344-1616-48 48 32-32z"/><path d="m1344-1392-48-48z"/><path d="m1488-1520h-32v96h32z"/><path d="m1488-1616h-144l-16 16v80h128 32z"/><path d="m1456-1520h-128-32z"/><path d="m1456-1392v-32-96z"/><path d="m1456-1392v-32z"/><path d="m1456-1424v32h96v-6.4l-64-25.6z"/><path d="m1328-1520h-32z"/><path d="m1328-1600-32 32v48h32z"/><path d="m480-2176v64z"/><path d="m416-2176h64z"/><path d="m32-2176h64z"/><path d="m96-2176v64z"/><path d="m-896-1792v-192l-32-32v144 80z"/><path d="m-896-1632v-128-32h-32v48 144z"/><path d="m-608-1792v32 128l32 32v-192z"/><path d="m-672-1984h64l32-32h-128v32z"/><path d="m-672-1984h-32-192v192 32h224z"/><path d="m-896-1760v128h192 32v-128z"/><path d="m-608-1760v-32-192h-64v224z"/><path d="m-608-1632v-128h-64v128z"/><path d="m-704-1632h-192l-32 32h64 160z"/><path d="m-16 176v144 80-160z"/><path d="m432 96v16 64z"/><path d="m208 96h-160-64z"/><path d="m272 176h-158-66v-80h160 64z"/><path d="m368 96v80h-66-30v-80z"/><path d="m368 256v-80-80h64v80 144h-64z"/><path d="m432 320v80h-64v-80z"/><path d="m302 176h66v80z"/><path d="m-16 176v-80h64v80 80 64h-64z"/><path d="m48 320v80h-64v-80z"/><path d="m48 176h66l-66 80z"/><path d="m302 176 66 80z"/><path d="m368 256v64 80z"/><path d="m114 176-66 80z"/><path d="m48 400v-80-64z"/><path d="m272 176h30-188z"/><path d="m480-1600v64z"/><path d="m416-1600h64z"/><path d="m32-1600h64z"/><path d="m96-1600v64z"/><path d="m416-2112v-64z"/><path d="m416-2176h64z"/><path d="m480-2176 16-16h-80v16z"/><path d="m480-2176v64z"/><path d="m480-2176v64l16 16v-80z"/><path d="m416-2112v-64l-16-16v96z"/><path d="m480-2112h-64z"/><path d="m416-2112v-64z"/><path d="m480-1536h-64z"/><path d="m416-1536v-64z"/><path d="m416-1600h64z"/><path d="m416-1600h64l16-16h-80z"/><path d="m480-1600v64z"/><path d="m480-1600v64h16v-64z"/><path d="m416-1600-16-16v64 16h16z"/><path d="m480-1536 16 16v-16z"/><path d="m96-2176v64z"/><path d="m96-2176 16-16h-16z"/><path d="m32-2176h64z"/><path d="m32-2176-16-16v16z"/><path d="m32-2112v-64z"/><path d="m32-2176h-16v80l16-16z"/><path d="m96-2112h-64z"/><path d="m32-2112v-64z"/><path d="m96-1536h-64z"/><path d="m96-1600v64z"/><path d="m96-1600 16-16h-16z"/><path d="m32-1600h64z"/><path d="m32-1600-16-16v16z"/><path d="m32-1536v-64z"/><path d="m32-1600h-16v16 48h16z"/><path d="m32-1536-16 16h96l-16-16z"/><path d="m96-1536 16 16v-16z"/><path d="m1456-1392h-112z"/><path d="m1296-1440v-80z"/><path d="m1456-1520h-160z"/><path d="m-32-2256h-16z"/><path d="m352-2256h-176z"/><path d="m160-1424h-32-16-96-16-48-16z"/><path d="m384-1424h-48-160-16z"/><path d="m336-1424h-160z"/><path d="m512-1648v32 192z"/><path d="m512-1872v32 192z"/><path d="m512-2096v96 128z"/><path d="m128-1696v112 112z"/><path d="m128-1920v112 112z"/><path d="m128-2144v112 112z"/><path d="m128-2224 32-32h-32z"/><path d="m400-2224h96v-32h-144l32 32z"/><path d="m384-2224v80z"/><path d="m400-1520v96h96v-96z"/><path d="m416-1616h80 16v-32-192h-16-96v64 160z"/><path d="m496-1616v16 64 16 96h16v-192z"/><path d="m400-2096v-96-32h-16v80 144h16z"/><path d="m384-2000v80 144h16v-64-32-128z"/><path d="m384-1776v80 144h16v-64-160z"/><path d="m384-1552v80 48h16v-96-16-16z"/><path d="m496-1872v-128-96h-96v96 128z"/><path d="m496-1840v-32h-96v32z"/><path d="m416-2192h80v-32h-96v32z"/><path d="m512-2000v-96-128h-16v32 16 80 96z"/><path d="m496-1872v32h16v-32-128h-16z"/><path d="m496-2096-16-16h-64l-16 16z"/><path d="m496-2192-16 16h16z"/><path d="m416-2192h-16l16 16z"/><path d="m496-1616-16 16h16z"/><path d="m400-1616 16 16v-16z"/><path d="m496-1520-16-16h-64l-16 16z"/><path d="m400-1536v16l16-16z"/><path d="m128-1424h32 16l-48-48z"/><path d="m384-1472-48 48h48z"/><path d="m0-2224v80z"/><path d="m128-2144v-80-32h-16v64 96 64h16z"/><path d="m112-2032v160 64h16v-112-112z"/><path d="m112-1808v160 32 32h16v-112-112z"/><path d="m112-1584v48 16 96h16v-48-112z"/><path d="m16-2256v64h80 16v-64z"/><path d="m112-2032v-64h-96v64 160h96z"/><path d="m16-1872v64 160h96v-160-64z"/><path d="m16-1648v32h80 16v-32z"/><path d="m16-2096v-80-16-64h-16v32 80 112h16z"/><path d="m0-2032v112 112h16v-64-160z"/><path d="m0-1808v112 112h16v-16-16-32-160z"/><path d="m0-1584v112 48h16v-96-16-48z"/><path d="m16-1520v96h96v-96z"/><path d="m112-2096-16-16h-64l-16 16z"/><path d="m112-2192-16 16v64l16 16z"/><path d="m16-2192 16 16h64v-16z"/><path d="m112-1584v-32l-16 16v64h16z"/><path d="m16-1616 16 16h64v-16z"/><path d="m16-1536v16l16-16z"/><path d="m0-2256h-32l32 32z"/><path d="m0-1472-48 48h48z"/><path d="m592-720h64-96-32z"/><path d="m336-1424 48-48v-224-224-224-80l-32-32h-192l-32 32v80 224 224 224l48 48z"/><path d="m352-2256 32 32v80 224 224 224l-48 48h-160l-48-48v-224-224-224-80l32-32z"/><path d="m768-1088h-176-48v-64l112-112 112 112z"/><path d="m832-1088h-64v-64z"/><path d="m544-1152v64h-32v-64z"/><path d="m352-1120v-144h160v112 64h-144-16z"/><path d="m252-1120h68 32v32h-100z"/><path d="m368-864v-80-144h144 32 48v224z"/><path d="m592-720h-64-160v-144h224z"/><path d="m768-1088h64v192l-32 32h-208v-224z"/><path d="m800-864-144 144h-64v-144z"/><path d="m304-944h-52v-144h100 16v144z"/><path d="m-64-2224h-64l-96 96v208h160 16v-304z"/><path d="m-64-1920h-160v-208l96-96h64 16v304z"/><path d="m0-1920v-224-80l-32-32h-16v32 304z"/><path d="m-48-1920v-304-32h16l32 32v80 224z"/><path d="m0-1696v-224h-48-16v336 32 128h16l48-48z"/><path d="m-64-1552v-32-336h16 48v224 224l-48 48h-16z"/><path d="m-64-1920v336h-32-32l-96-96v-224-16z"/><path d="m-96-1584h32v-336h-160v16 224l96 96z"/><path d="m96-1264v128h-16-144v-16-112z"/><path d="m-96-1136v-16h32v16z"/><path d="m-272-1200 97.8824-30.1177 78.1176 78.1177v16h-16-224z"/><path d="m96-944v-176h156v32 144z"/><path d="m-336-912v-224h224v224z"/><path d="m-112-720h-32l-192-179.2v-12.8h224z"/><path d="m-96-1136h32 144v192 32h-192v-224z"/><path d="m80-912v192h-192v-192z"/><path d="m80-944v-192h16v16 176z"/><path d="m-64-1264h160z"/><path d="m352-1264h124 36z"/><path d="m-32-2256h-16z"/><path d="m336-1424h-160z"/><path d="m384-2224v80z"/><path d="m128-1696v224-80z"/><path d="m128-1920v224-80z"/><path d="m128-2144v224-80z"/><path d="m0-2224v80z"/><path d="m-224-1904v224-112-16z"/><path d="m512-1152v-112z"/><path d="m768-1152-112-112 176 176z"/><path d="m832-896v-192z"/><path d="m320-1120h-68-156z"/><path d="m368-944-64 48v-48z"/><path d="m80-912v-32l48 48v176h-16-32z"/><path d="m368-864v144h-64v-176l64-48z"/><path d="m-64-1552v128z"/><path d="m-64-1552v-32z"/><path d="m352-2256h-176-16z"/><path d="m-64-1424h16z"/><path d="m128-2224v80z"/><path d="m384-2224-32-32z"/><path d="m160-2256-32 32z"/><path d="m384-1696v224-80z"/><path d="m384-1920v224-80z"/><path d="m384-2144v224-80z"/><path d="m128-1472 48 48z"/><path d="m336-1424 48-48z"/><path d="m0-1696v224-112z"/><path d="m0-1920v224-112z"/><path d="m0-2144v224-112z"/><path d="m-64-2224h16z"/><path d="m-48-2224v-32z"/><path d="m0-2224-32-32z"/><path d="m-48-1424 48-48z"/><path d="m-128-2224h64z"/><path d="m-96-1584h-32z"/><path d="m-224-1920v-208 224z"/><path d="m-224-2128 96-96z"/><path d="m-960-1616v224z"/><path d="m-960-1840v224z"/><path d="m1616-1616v-66.4615l64 34.4615 112 128v32 29.5385h-176z"/><path d="m1792-1458.4615v146.4615h-96-80v-80-66.4615z"/><path d="m1584-1696v-3.6923l6.8572 3.6923z"/><path d="m1504-1552v-25-26-77-62.7692l48 25.8461v196.9231h-48z"/><path d="m1472-1760 32 17.2308v62.7692h-51-26-51v-80z"/><path d="m1504-1577v25h-26z"/><path d="m1376-1568v-9l18.36 9z"/><path d="m1376-1655v-25h51z"/><path d="m1504-1603-51-77h51z"/><path d="m1280-1692.8 48-67.2h48v80 25 78 9h-80-16z"/><path d="m1427-1552h51 26v32h-48-160v-32z"/><path d="m1488-1392h-32v-128h48 48v32z"/><path d="m1616-1392v80h-112z"/><path d="m1472-1088h-48-176v-176-48h32 192z"/><path d="m1696-1088h-48-176v-224h32 112 80z"/><path d="m1792-1312v48l-16 32-72 144h-8v-224z"/><path d="m1376-1568h18.36l32.64 16h-131v-16z"/><path d="m1456-1520v128h-112l-48-48v-80z"/><path d="m1456-1392v-128h-160v80l48 48z"/><path d="m1280-1568h16v16 32 80l-16-16z"/><path d="m1248-1264v176h-48v-176z"/><path d="m1648-992-40 40h-72-48-64v-136h48 176z"/><path d="m1696-1088h8l-40 80-16 16v-96z"/><path d="m1608-952-72 72v-8-64z"/><path d="m1488-888v-64h48v64z"/><path d="m1424-880v-8h64 48v8z"/><path d="m1200-880v-96-112h48 176v136 64 8z"/><path d="m1536-880h-112z"/><path d="m1608-952 56-56-96 96-16 16-16 16z"/><path d="m1792-1264-16 32z"/><path d="m1680-1648 112 128z"/><path d="m1616-1616v157.5385 66.4615-80z"/><path d="m1552-1520v-196.9231 228.9231z"/><path d="m1456-1392h32-112-32z"/><path d="m1394.36-1568-18.36-9 51 25z"/><path d="m1296-1440 48 48-64-64z"/><path d="m1248-1312h32z"/><path d="m1456-1392h-112z"/><path d="m1296-1520v80z"/><path d="m1296-1440 48 48z"/><path d="m1456-1392v-128z"/><path d="m-832-1936v96z"/><path d="m128-2384h-224 192z"/><path d="m304-2432v48z"/><path d="m304-2496v64 48h-128v-48-16-112h64z"/><path d="m-352-2592v-96h160v96z"/><path d="m-160-2560v112h-32v-112-32z"/><path d="m64-2448h-224v-112h224z"/><path d="m176-2560v112h-112v-112z"/><path d="m-384-2448h-224v-112h144 80z"/><path d="m-192-2560v112h-192v-112z"/><path d="m-352-2592h160v32h-192z"/><path d="m-608-2560v112l-32 32v-144z"/><path d="m-640-2560v144 32h-112v-112l64-64z"/><path d="m-464-2560h-144-32-48 48 32z"/><path d="m64-2560h-224z"/><path d="m176-2448v16z"/><path d="m176-2384v-48z"/><path d="m-640-2416v32z"/><path d="m176-2448h-112z"/><path d="m-608-2448-32 32z"/><path d="m-512-1264v64z"/><path d="m352-1264h-32z"/><path d="m880-1264h-224z"/><path d="m1120-1264h-16-208z"/><path d="m1200-1264h-80z"/><path d="m512-2224v112 16z"/><path d="m704-2384v128h-160-32v-128z"/><path d="m-256-2224v80-16z"/><path d="m-256-2032v16 32 16 32 16 32 16 32 16 16 16z"/><path d="m352-2256h-192z"/><path d="m-96-2256h32z"/><path d="m128-2256h-128-32-16-16-32v-128h224z"/><path d="m160-2384h16 128 16 32v128h-192-32v-128z"/><path d="m512-2384v128h-16-144v-128z"/><path d="m384-1424h-32z"/><path d="m-64-1424h16z"/><path d="m-224-2224h-32z"/><path d="m384-2224-32-32h144v32z"/><path d="m0-2224-32-32h32z"/><path d="m160-2256-32 32v-32z"/><path d="m0-2256h128v32h-128z"/><path d="m384-2224-32-32z"/><path d="m160-2256-32 32z"/><path d="m0-2224-32-32z"/><path d="m-224-2128 96-96z"/><path d="m384-1696v144 80z"/><path d="m384-1920v144 80z"/><path d="m384-2144v144 80z"/><path d="m384-2144v-80h112 16v128 96h-128z"/><path d="m512-2000v128 96h-128v-144-80z"/><path d="m512-1776v128 96h-128v-144-80z"/><path d="m512-1552v128h-128v-48-80z"/><path d="m-64-1424v-128z"/><path d="m128-2224v80z"/><path d="m384-1424h-32-16l48-48z"/><path d="m128-1472 48 48h-48z"/><path d="m128-1472 48 48z"/><path d="m336-1424 48-48z"/><path d="m0-1696v144 80z"/><path d="m0-1920v144 80z"/><path d="m0-2144v144 80z"/><path d="m128-2224v80 144h-128v-144-80z"/><path d="m128-2000v80 144h-128v-144-80z"/><path d="m128-1776v80 144h-128v-144-80z"/><path d="m128-1552v80 48h-128v-48-80z"/><path d="m0-1424h-48l48-48z"/><path d="m-48-1424 48-48z"/><path d="m-224-2032v-96z"/><path d="m-224-2032v-96 208 16z"/><path d="m-256-2144v-80h32v80z"/><path d="m-224-2144v-80z"/><path d="m512-1424v32h-36-92v-32z"/><path d="m476-1264h-124-32-68v-48-80h100 32 92z"/><path d="m512-1392v128h-36v-128z"/><path d="m128-1424v32 80h-128v-80-32z"/><path d="m160-1312h-32v-80h124v80z"/><path d="m-64-1312v-16l64-64v80z"/><path d="m160-1264h-64-160v-48h64 128 32z"/><path d="m252-1312v48h-92v-48z"/><path d="m352-1392h-100-124 32 92z"/><path d="m384-1424v32z"/><path d="m-288-2032h-224z"/><path d="m-512-2032h224v240h-224z"/><path d="m-288-2032h32v240h-32z"/><path d="m1056-1088h-160z"/><path d="m832-1088h48 16z"/><path d="m880-1088h-48l-176-176h224z"/><path d="m1104-1088h-48-160-16v-176h16 208z"/><path d="m1200-1088h-96v-176h16 80z"/><path d="m1200-976-144-112h48 96z"/><path d="m96-1264v112 16z"/><path d="m-432-880v128h-64v-128z"/><path d="m-432-752h-64z"/><path d="m-512-2032h-48z"/><path d="m-560-2032h48v240h-48l-80-80v-64-16z"/><path d="m-560-1792-80-80z"/><path d="m-640-1872h-48z"/><path d="m-752-2288v128 96-96z"/><path d="m-752-2384v96z"/><path d="m-640-2384v208 16h-112v-128-96z"/><path d="m-640-2160v208 16h-112v-128-96z"/><path d="m-640-1936v64h-48l-64-64z"/><path d="m-752-1936h-80z"/><path d="m-752-2064v128h-80v-128z"/><path d="m-592-752h80z"/><path d="m-640-1008h-160v-16h160z"/><path d="m-832-1168v-208h32 160v208 16h-192z"/><path d="m-640-1152v128h-160-32v-128z"/><path d="m-640-1392v16h-160v-16z"/><path d="m-640-1376v-16l128 128v64 32h-128z"/><path d="m-512-1168v192 32h-128v-64-16-128-16z"/><path d="m-512-944v192h-80l-48-48v-144z"/><path d="m-640-1008h-160z"/><path d="m-832-2064h-128z"/><path d="m-960-1840v-224h128v128 96z"/><path d="m-960-1616v-224h128v224z"/><path d="m-960-1392v-224h128v224z"/><path d="m-960-1168v-32-128-64h128v16 208z"/><path d="m-960-1136v-32h128v16 128 16z"/><path d="m-1088-1200h-192l-32-32v-64l32-32h192z"/><path d="m-1056-1328h96v128h-96-32v-128z"/><path d="m-960-1200h-96z"/><path d="m-1056-1328h-32-192 80 32z"/><path d="m672-2304h-32v32h32z"/><path d="m672-2368h-32v32h32z"/><path d="m-544-864h-32v32h32z"/><path d="m-544-800h-32v32h32z"/><path d="m-1232-1280h-32v32h32z"/><path d="m1424-888v-64z"/><path d="m1424-952h64z"/><path d="m1488-952v64z"/><path d="m1488-888h-64v-64h64z"/><path d="m1488-888h-64z"/><path d="m1200-976v96z"/><path d="m656-720h-80-16z"/><path d="m528-720h-192-32 64z"/><path d="m112-720h-224 192z"/><path d="m128-720h-16z"/><path d="m-112-720h-16-16z"/><path d="m96-2384h-192-32 192z"/><path d="m160-2384h-32z"/><path d="m160-2384h16z"/><path d="m-96-2256h32-64z"/><path d="m-96-2384v128z"/><path d="m-96-2256h-32v-128h32z"/><path d="m-224-1824v-16-32-16-32-16-32-16-32-16 128 96z"/><path d="m-256-1984v-32h32v32z"/><path d="m-256-1936v-32h32v32z"/><path d="m-256-1888v-32h32v32z"/><path d="m-256-1840v-32h32v32z"/><path d="m-256-1808v-16h32v16z"/><path d="m-256-1792h-32z"/><path d="m1056-1088 64 49.7778v158.2222h-96-32l-96-96v-112z"/><path d="m1120-1038.2222 80 62.2222v96h-48-32z"/><path d="m1120-1038.2222-64-49.7778 144 112z"/><path d="m1152-832v-48z"/><path d="m1152-832h-128v-48h96 32z"/><path d="m304-896v176h-176v-176z"/><path d="m304-896h-176l-48-48h16 156 52z"/><path d="m1616-1682.4615 64 34.4615z"/><path d="m1616-1682.4615v66.4615z"/><path d="m1504-1312h-32-192z"/><path d="m1616-1472v80l-32 22.8571v-102.8571z"/><path d="m432 400h-64z"/><path d="m1376-1760h96-96-48z"/><path d="m1328-1760-48 67.2z"/><path d="m1504-1742.7692-32-17.2308 80 43.0769z"/><path d="m1504-1742.7692 48 25.8461-48-25.8461-32-17.2308z"/><path d="m1280-1312v-16z"/><path d="m1280-1488v32z"/><path d="m1280-1488v-204.8 124.8 112z"/><path d="m1552-1716.9231v224 4.9231z"/><path d="m1376-1577v-78z"/><path d="m1488-1392 16-24v-136h-26-51-51v160z"/><path d="m1427-1552h51 26v136l-16 24h-112v-160z"/><path d="m1427-1680h-51v25z"/><path d="m1376-1655v-25h51z"/><path d="m1453-1680 51 77v-77z"/><path d="m1453-1680h51v77z"/><path d="m1472-1760h-96v80h51 26 51v-62.7692z"/><path d="m1453-1680h-26-51v-80h96l32 17.2308v62.7692z"/><path d="m1552-1716.9231-48-25.8461v62.7692 77 26 25 136l48-72z"/><path d="m1504-1552v-25-26-77-62.7692l48 25.8461v228.9231l-48 72z"/><path d="m1376-1577 51 25h-51z"/><path d="m1376-1577v25h51z"/><path d="m1504-1577v25h-26z"/><path d="m1504-1577-26 25h26z"/><path d="m1376-1577 51 25z"/><path d="m1478-1552h-51z"/><path d="m1427-1680h26z"/><path d="m1504-1603v26z"/><path d="m1453-1680 51 77z"/><path d="m1504-1577-26 25z"/><path d="m1376-1655 51-25z"/><path d="m1504-1416-16 24 64-96z"/><path d="m1280-1488v-204.8l48-67.2h48v80 25 78 25 160h-32l-64-64z"/><path d="m1376-1552v-25-78-25-80h-48l-48 67.2v204.8 32l64 64h32z"/><path d="m1344-1392-64-64z"/><path d="m160-2384h-32-32z"/><path d="m64-2384h-192-32 160z"/><path d="m-128-2384v128z"/><path d="m-128-2256h-32v-128h32z"/><path d="m1024-880h-32z"/><path d="m1024-880v48z"/><path d="m1152-784v-48-48z"/><path d="m1024-832h128z"/><path d="m1152-784h-128v-48h128z"/><path d="m-16 240v160z"/><path d="m-16 112v-16 80z"/><path d="m432 176v64 160-80z"/><path d="m432 96h-64-96-64z"/><path d="m208 96h-224v16h128 96z"/><path d="m304 112h128v-16h-224v16z"/><path d="m432 176v-64h-128l128 128z"/><path d="m304 112 64 64 64 64z"/><path d="m-16 112v64 64l128-128z"/><path d="m1280-1328v-16h224v32h-224z"/><path d="m1288-1488h-8v32h8z"/><path d="m1590.8572-1696 25.1428 13.5385z"/><path d="m1590.8572-1696h-6.8572z"/><path d="m48 400h-64z"/><path d="m368 400h64z"/><path d="m1680-1648-64-34.4615-25.1428-13.5385z"/><path d="m1584-1699.6923-32-17.2308-80-43.0769z"/><path d="m1280-1328v-16z"/><path d="m1584-1492.9231v-203.0769h6.8572l25.1428 13.5385v66.4615 144h-32z"/><path d="m1548.8003-1344 35.1997-25.1429 32-22.8571-112 80z"/><path d="m1584-1369.1429-32 22.8571v-45.7142-80h32z"/><path d="m1552-1716.9231 32 17.2308v3.6923 203.0769h-32z"/><path d="m1584-1492.9231v20.9231h-32v-16-4.9231z"/><path d="m1584-1696v-3.6923z"/><path d="m1488-1392h-144 32z"/><path d="m1376-1577v-78z"/><path d="m1478-1552h-51z"/><path d="m1427-1680h26z"/><path d="m1504-1603v26z"/><path d="m1376-1577v-78l51-25h26l51 77v26l-26 25h-51z"/><path d="m1504-1577-26 25z"/><path d="m1453-1680 51 77z"/><path d="m1376-1655 51-25z"/><path d="m1552-1472v80h-48-16l64-96z"/><path d="m1488-1392 16-24 48-72z"/><path d="m1280-1456h8z"/><path d="m1344-1392h-64v-64z"/><path d="m1504-1344h-224v-48h64 144 16z"/><path d="m1552-1392v45.7142l-3.1997 2.2858h-44.8003v-48z"/><path d="m1504-1344h44.8003l-44.8003 32z"/><path d="m-160-2384h-32z"/><path d="m-160-2256h-32z"/><path d="m-160-2384v128z"/><path d="m-160-2256h-32v-128h32z"/><path d="m1152-736h-128v-48h128z"/><path d="m1024-880v48 48z"/><path d="m1024-784h128z"/><path d="m432 400v-160z"/><path d="m432 240v64 96z"/><path d="m368 256v-80h-66z"/><path d="m302 176h66v80z"/><path d="m114 176h188 66l-64-64h-192l-64 64z"/><path d="m304 112 64 64h-66-188-66l64-64z"/><path d="m432 400h-64v-144-80l64 64z"/><path d="m432 240-64-64v80 144h64z"/><path d="m114 176h-66v80z"/><path d="m48 176h66l-66 80z"/><path d="m-16 240 64-64v80 144h-64z"/><path d="m48 256v-80l-64 64v160h64z"/><path d="m48 256v144z"/><path d="m302 176h-30-158z"/><path d="m114 176-52.8 64-13.2 16z"/><path d="m304 112h-96-96z"/><path d="m48 176 64-64-128 128z"/><path d="m-16 400h64z"/><path d="m144 400h-32z"/><path d="m528 400h-32z"/><path d="m624 304 32-32 64-64-160 160-32 32z"/><path d="m0-2384h-160-32-32 192z"/><path d="m160-2384h-64-32z"/><path d="m304-2384h16z"/><path d="m304-2432h-32v48h32z"/><path d="m-192-2256h32 16-80z"/><path d="m-192-2384v128z"/><path d="m-192-2256h-32v-128h32z"/><path d="m1152-720v-16z"/><path d="m1024-736h128v16h-128z"/><path d="m1024-736h128z"/><path d="m1024-880v96 48z"/><path d="m-736-144v16 208-96-64-48z"/><path d="m-736-368v16 208-208z"/><path d="m1152-576v-144z"/><path d="m1152-400v-96-80z"/><path d="m-304 208v-64-32-96h224v224h-192z"/><path d="m-80 240v160h-32l-160-160z"/><path d="m-80 16h48v96 128h-48z"/><path d="m-32 240v160h-48v-160z"/><path d="m-32 240h16v160h-16z"/><path d="m48 256 13.2-16h82.8v32 128h-32-64z"/><path d="m144 272v-32h32z"/><path d="m-16 240h-16v-128h144z"/><path d="m112 112h-144v-96h64 64 96v96z"/><path d="m192 16h60v64 32h-60z"/><path d="m48-96h32 16v112h-64v-112z"/><path d="m-304-144v-32l192-192h32v224z"/><path d="m-80 16h-224v-32-128h224z"/><path d="m-16-368h16 32v208 16h-112v-224z"/><path d="m32-144v48 112h-64-48v-160z"/><path d="m96-160v-208h128 28v224h-156z"/><path d="m252-144v160h-60-96v-112-48z"/><path d="m96-368v208h-48-16v-208z"/><path d="m-736-368v-80-32l96-96h48v160 16 48h-144z"/><path d="m-592-352v48 176h-144v-16-208z"/><path d="m-592-128v48 176h-128l-16-16v-208z"/><path d="m-592 96v48 16h-64l-64-64z"/><path d="m-544-400h-48v-16h48z"/><path d="m-368-416h32v16h-176v-16z"/><path d="m272 176v64h-32-64-32-82.8l52.8-64z"/><path d="m272 240v32l-32-32z"/><path d="m272 272v-32-64h30l66 80v144h-96z"/><path d="m432 112v128l-128-128z"/><path d="m320 80h64 48v32h-128-52v-32z"/><path d="m656 272-32 32h-192v-64-128-32h176 48z"/><path d="m624 304-96 96h-32-64v-96z"/><path d="m720 80v32 32 64l-64 64v-192z"/><path d="m320 80v-176h16 32 16v48 128z"/><path d="m368-160h-48v-112h64v112z"/><path d="m384-48v-48-64-112h160 64v224z"/><path d="m608 80h-176-48v-128h224z"/><path d="m624-272 96 96v128h-112v-224z"/><path d="m720-48v32 32 64h-64-48v-128z"/><path d="m252-368h68v96 112 16h-68z"/><path d="m320-144v48 176h-68v-64-160z"/><path d="m224-368h-128-64-32v-48h80 144z"/><path d="m304-416h112v48h-96-68-28v-48z"/><path d="m416-368h16 96l16 16v80h-160-64v-96z"/><path d="m544-352 80 80h-16-64z"/><path d="m752-400v-16h208v16z"/><path d="m1024-400h-32v-16h32z"/><path d="m-368-416h-144-32-48v-160h48 32 144z"/><path d="m-144-416h-160-32-32v-160h32 32 160z"/><path d="m80-416h-80-16-96-32v-160h64 160z"/><path d="m304-416h-80-144v-160h64 160z"/><path d="m528-416h-96-16-112v-160h64 160z"/><path d="m752-416h-32-64-128v-160h64 128 32z"/><path d="m976-416h-16-208v-160h96 96 16 16z"/><path d="m992-576h32v80 80h-32-16v-160z"/><path d="m848-608v-48h96v48 32h-96z"/><path d="m848-656v-32h96v32z"/><path d="m1152-720v144 80h-128v-80-144z"/><path d="m1152-496v96h-128v-16-80z"/><path d="m720 144v-32z"/><path d="m720 16v-32z"/><path d="m720 80v-64 96z"/><path d="m960-400v-16z"/><path d="m976-576h-16 32z"/><path d="m1024-720v144z"/><path d="m1024-400h128-160z"/><path d="m752-576h-32z"/><path d="m944-656v-32z"/><path d="m848-656v48z"/><path d="m-592-352v-48 48 48z"/><path d="m-304 112v32z"/><path d="m-304-16v32z"/><path d="m528-368h-96z"/><path d="m-112-416h96z"/><path d="m720-416h-64z"/><path d="m-80-576h-64-160z"/><path d="m144-576h-64-160z"/><path d="m368-576h-64-160z"/><path d="m592-576h-64-160z"/><path d="m624-272-80-80-16-16 64 64 32 32 96 96z"/><path d="m384-160-16 16v-16z"/><path d="m320-160 16 16h-16z"/><path d="m320-96 16-16v16z"/><path d="m96-160-16 16h-32v-16z"/><path d="m32-144v-16l16 16v32l-16 16z"/><path d="m48-96h-16l16-16z"/><path d="m272 272-32-32z"/><path d="m-304-576h-32z"/><path d="m-336-400h-176z"/><path d="m-512-576h-32z"/><path d="m-16 240v160z"/><path d="m192 112h60 52-192z"/><path d="m112 112-64 64-64 64z"/><path d="m432 240-64-64-64-64z"/><path d="m368 256v144z"/><path d="m302 176 66 80z"/><path d="m-624-16h-32v32h32z"/><path d="m-624 64h-32v32h32z"/><path d="m1280-1456v64 48 16-16z"/><path d="m1288-1456h-8v-32h8z"/><path d="m1288-1488h-8z"/><path d="m1288-1456v-32z"/><path d="m496 400h-128-96 96 64z"/><path d="m496 400h32-32-20-108z"/><path d="m1280-1692.8 48-67.2z"/><path d="m1280-1456v-32z"/><path d="m1280-1568v-124.8 204.8z"/><path d="m1280-1568v80 32 112l-8-16-8-48v-38.3999-121.6001z"/><path d="m-32-2384h-192-32 96 64z"/><path d="m160-2384h-96-64z"/><path d="m-256-1920v-16z"/><path d="m-256-1968v-16z"/><path d="m-256-2016v-16z"/><path d="m-256-1808v-16-16-32-16-32-16-32-16-32-16 240z"/><path d="m-256-1872v-16z"/><path d="m-256-1824v-16z"/><path d="m-256-1792v-16z"/><path d="m-224-2256h80 80-32-160z"/><path d="m-224-2256h-32v-128h32z"/><path d="m-224-2384v128z"/><path d="m-224-2032v16z"/><path d="m-224-1984v16z"/><path d="m-224-1936v16z"/><path d="m-224-1840v16z"/><path d="m-224-1888v16z"/><path d="m-224-1792v-16z"/><path d="m-224-1920h-32z"/><path d="m-224-1968h-32z"/><path d="m-256-2016v32h32v-32z"/><path d="m-256-1984h32z"/><path d="m-224-2016h-32z"/><path d="m-256-1968v32h32v-32z"/><path d="m-256-1936h32z"/><path d="m-224-1872h-32z"/><path d="m-256-1920v32h32v-32z"/><path d="m-256-1888h32z"/><path d="m-256-1840h32z"/><path d="m-256-1872v32h32v-32z"/><path d="m-256-1824v16h32v-16z"/><path d="m-256-1808h32z"/><path d="m-224-1824h-32z"/><path d="m368-112 16 16h-16z"/><path d="m368-112v-32l16-16v64z"/><path d="m368-144h-32l-16-16h48z"/><path d="m336-112h32v16h-32z"/><path d="m336-144v32l-16 16v-48z"/><path d="m80-144 16-16v16z"/><path d="m80-144h16v48l-16-16z"/><path d="m80-112 16 16h-16z"/><path d="m80-112v16h-32v-16z"/><path d="m48-144-16-16h16z"/><path d="m272 272v128z"/><path d="m144 400v-128z"/><path d="m176 240h64z"/><path d="m272 272v128h-128v-128l32-32h64z"/><path d="m144 272 32-32z"/><path d="m832-1088-48-48z"/><path d="m832-1088h64v-48h-112z"/><path d="m-688-2560-64 64z"/><path d="m-960-1168v-32 32 32z"/><path d="m-960-2064v224z"/><path d="m-960-1392v64z"/><path d="m-192-2688h-160z"/><path d="m-832-1376v-16z"/><path d="m-832-1616v224z"/><path d="m-832-1840v224z"/><path d="m-832-1008v-16z"/><path d="m-160-2384h-96-128z"/><path d="m128-2384h32-160-32z"/><path d="m128-2384h-160-64z"/><path d="m208-2384h-32z"/><path d="m304-2384h-32z"/><path d="m304-2448v16-64z"/><path d="m-752-2496v112z"/><path d="m64-2560h-224v112h224z"/><path d="m176-2448h32 96v-48l-64-64h-176v112z"/><path d="m272-2432h32v-16h-96v16z"/><path d="m272-2384v-48h-64v48z"/><path d="m-160-2560-32-32v144h32z"/><path d="m-352-2592v144h160v-144-96h-160z"/><path d="m-384-2560v112h32v-144z"/><path d="m-384-2448v-112h-80-144v112z"/><path d="m-608-2448v-112h-32v144z"/><path d="m-640-2384v-32-144h-48l-64 64v112z"/><path d="m-384-2560h-80z"/><path d="m240-2560h-64-112z"/><path d="m-352-2688v96z"/><path d="m-192-2592v-96z"/><path d="m-160-2560-32-32z"/><path d="m-352-2592-32 32z"/><path d="m176-2448h32z"/><path d="m304-2496-64-64z"/><path d="m272-2432h32z"/><path d="m208-2448h-32v16h32z"/><path d="m208-2432h-32v48h32z"/><path d="m-384-2448h-224z"/><path d="m-160-2448h-32-160-32 192z"/><path d="m64-2448h-224z"/><path d="m-512-896v16 128z"/><path d="m-512-976v32 48 144-192z"/><path d="m-512-1200v176 16 32-192z"/><path d="m320-1264h-68-156 64 92z"/><path d="m512-1392v128-128-32z"/><path d="m512-1392v-32z"/><path d="m-256-2384v128z"/><path d="m-256-2144v-16-64 160z"/><path d="m-224-1920v-112 16 32 16 32 16 32 16 32 16 16 16z"/><path d="m-224-1680v-64-48z"/><path d="m-224-2224h-32v64 16h32z"/><path d="m-256-2144h32z"/><path d="m-64-1312v-16z"/><path d="m-64-1264v-48z"/><path d="m384-1392h-32z"/><path d="m0-1392v-32z"/><path d="m-64-1312v48h159v-48z"/><path d="m160-1312h-65v48h1 156v-48z"/><path d="m160-1392h-32-128l-64 64v16h159 65z"/><path d="m252-1312v-80h-92v80z"/><path d="m476-1392h-92-32-100v80 48h68 32 124z"/><path d="m512-1264v-128h-36v128z"/><path d="m-64-1328 64-64z"/><path d="m-288-1792h-224z"/><path d="m-448-2288v-32l64-64h128v128 32 64h-192z"/><path d="m-256-2160v16 80h-192v-96z"/><path d="m-512-1792h224v-240h-224z"/><path d="m-288-1792h32v-240h-32z"/><path d="m-448-2288v128 96-192z"/><path d="m-256-2032h-32z"/><path d="m512-1152h32z"/><path d="m-64-1152v-112z"/><path d="m352-1120h-32z"/><path d="m96-1120v-16z"/><path d="m476-1264h-124v112h160v-112z"/><path d="m512-1152h-160z"/><path d="m352-1120v-32z"/><path d="m320-1120h-224v-16-16h224z"/><path d="m352-1152v-112 144z"/><path d="m-64-1264v112h159v-112z"/><path d="m95-1152h1v-112h-1z"/><path d="m-640-1392h-160z"/><path d="m-512-1792h-48z"/><path d="m-640-2176v16 208-208z"/><path d="m-640-2384v208z"/><path d="m-560-1792h48v-240h-48l-80 80v16 64z"/><path d="m-560-2032-80 80z"/><path d="m-640-2160v-16-208h-112v96 128z"/><path d="m-640-1936v-16-208h-112v96 128z"/><path d="m-640-1872v-64h-112l64 64z"/><path d="m-752-1936 64 64z"/><path d="m-752-2064h-80z"/><path d="m-752-1936v-128h-80v128z"/><path d="m-800-1392v16z"/><path d="m-800-1024v16z"/><path d="m-528-1024h-48z"/><path d="m-528-1264h16l-128-128v16z"/><path d="m-512-1200v-64h-16v240h16z"/><path d="m-640-1376v-16h-160v16z"/><path d="m-528-1264v240z"/><path d="m-512-1264-128-128z"/><path d="m-576-1024h-224v16h160 64z"/><path d="m-512-1008v-16h-16-48v16z"/><path d="m-800-1376h-32z"/><path d="m-512-976v-32h-64-64v64h48 32 48z"/><path d="m-640-896 48-48h-48z"/><path d="m-512-944h-48l48 48z"/><path d="m-640-896v-48-64 64 144z"/><path d="m-832-1840v-96-128h-128v224z"/><path d="m-832-1616v-224h-128v224z"/><path d="m-944-1392h112v-224h-128v224z"/><path d="m-832-1376v-16h-112v16z"/><path d="m-944-1168v-208-16h-16v64 128 32z"/><path d="m-960-1136h16v-32h-16z"/><path d="m-960-1136 128 128v-16l-112-112z"/><path d="m-944-1136 112 112z"/><path d="m-960-1136 128 128z"/><path d="m-1280-1200-32-32z"/><path d="m-1056-1200h96v-128h-96-112v128z"/><path d="m-1168-1200v-128z"/><path d="m-1056-1200h-112-32-80 192z"/><path d="m-960-1328h-96z"/><path d="m-1312-1200h144z"/><path d="m-1264-1328h-48v128h48z"/><path d="m-1232-1328h-32v48h32z"/><path d="m-1264-1248v48h32v-48z"/><path d="m-1168-1328h-64v128h64z"/><path d="m-1232-1280v32z"/><path d="m-1264-1280h32z"/><path d="m-1264-1248v-32z"/><path d="m-1232-1248h-32z"/><path d="m1248-1360h24l8 16v16 16h-32z"/><path d="m896-1264h-16z"/><path d="m160-2384h-32z"/><path d="m304-2384h-32-64-32z"/><path d="m352-2384h160-160-32z"/><path d="m592-2384h112-192z"/><path d="m128-2384h-224 32z"/><path d="m352-2384h-32-16-128-16-32 32z"/><path d="m704-2384h-112z"/><path d="m704-2384v128z"/><path d="m-256-2064v-160 192z"/><path d="m-448-2320v32z"/><path d="m-448-2256v192 32-192z"/><path d="m-448-2064h192z"/><path d="m-256-2032h-192z"/><path d="m-256-2032h-192v-32h192z"/><path d="m-832-1024h32z"/><path d="m-832-1376h32z"/><path d="m-1312-1200v-128z"/><path d="m-1168-1328v128z"/><path d="m-1312-1328h144z"/><path d="m-1168-1200h-144v-128h144z"/><path d="m1280-1692.8-16 22.4-16 22.4z"/><path d="m1264-1670.4 16-22.4z"/><path d="m1248-1264h-48z"/><path d="m1248-1488v-160l16-22.4v102.4 121.6001h-16z"/><path d="m1264-1446.3999v38.3999h-16v-38.3999z"/><path d="m1248-1488v41.6001 38.3999 32 64 48-204.7999z"/><path d="m1248-1376v16 48z"/><path d="m1248-1376v-32 48z"/><path d="m1264-1670.4 16-22.4v124.8h-16z"/><path d="m1264-1408 8 48h-24v-48z"/><path d="m1248-1264v-48z"/><path d="m-640-800 48 48z"/><path d="m-512-1264v32z"/><path d="m-256-2032v-192 32 192z"/><path d="m384-1424h128z"/><path d="m0-1424h128z"/><path d="m0-1424h-64 16z"/><path d="m384-1424v32h92 36v-32z"/><path d="m128-1424v32z"/><path d="m0-1424v32h128v-32z"/><path d="m-448-2224v192 32-192z"/><path d="m-448-2320v32 32z"/><path d="m-448-2000v-32h192v32z"/><path d="m896-1264v48-32z"/><path d="m1120-1264h-224v16 64h224z"/><path d="m-512-752h-80z"/><path d="m-800-1392v16z"/><path d="m-576-1008h-224v-16h224z"/><path d="m-528-1024h16v16h-64v-16z"/><path d="m-640-1392v16h-160v-16z"/><path d="m-528-1264h16v32 208h-16z"/><path d="m-512-1264h-16l-112-112v-16z"/><path d="m-576-1024h-224z"/><path d="m-640-1376h-160z"/><path d="m-528-1264-112-112z"/><path d="m-800-1024h-32z"/><path d="m-560-944h-32z"/><path d="m-640-896v96z"/><path d="m-592-944-48 48z"/><path d="m-512-896-48-48z"/><path d="m-832-1392v16h-112v-16z"/><path d="m-960-1168v-160-64h16v16 208z"/><path d="m-944-1136h-16v-32h16z"/><path d="m-832-1008-128-128h16l112 112z"/><path d="m-832-1376h-112z"/><path d="m-944-1168v-208 208 32z"/><path d="m-1104-1136h112 32z"/><path d="m-1136-1168-32-32v-128l64-64h112v64 160z"/><path d="m-992-1136h-112l-32-32h144z"/><path d="m-960-1168v32h-32v-32-160h32z"/><path d="m-960-1328h-32v-64h32z"/><path d="m-1168-1200h-32z"/><path d="m-256-2224v32z"/><path d="m512-2256h-16z"/><path d="m-224-2064v144-48z"/><path d="m-224-2128v32z"/><path d="m-224-1920v-144-32-32 96z"/><path d="m-224-1920v128 48z"/><path d="m-224-1712v32z"/><path d="m-224-1680v-32-32z"/><path d="m-96-2064v-32h-128v32z"/><path d="m-96-2096h32-160z"/><path d="m-96-1744h32-160z"/><path d="m-96-1712v-32h-128v32z"/><path d="m-448-2320v64 32z"/><path d="m-448-2192v192 32-192z"/><path d="m-448-2000h192z"/><path d="m-256-1968h-192v-32h192z"/><path d="m704-1216-48-48z"/><path d="m896-1136v48z"/><path d="m896-1136v-80h-192l80 80z"/><path d="m896-1216v-48h-16-224l48 48z"/><path d="m96-1152v16z"/><path d="m320-1152h-224 86.6667z"/><path d="m352-1152v32h-32v-32z"/><path d="m1792-1264v-48-146.4615-29.5385z"/><path d="m1792-1488v-32z"/><path d="m1472-1760h-96-48z"/><path d="m1664-1008 40-80 72-144z"/><path d="m1792-1264-16 32z"/><path d="m1590.8572-1696-6.8572-3.6923z"/><path d="m1590.8572-1696 89.1428 48z"/><path d="m1472-1760 112 60.3077z"/><path d="m1680-1648 70 80 42 48z"/><path d="m-96-2384h-64z"/><path d="m-160-2384h-224 128z"/><path d="m384-2384h128-160z"/><path d="m160-2384h-32-192 128z"/><path d="m384-2384h-32-192 128z"/><path d="m512-2384h-128z"/><path d="m592-2384h-80z"/><path d="m-384-2384-64 64z"/><path d="m512-1648v96 128-128z"/><path d="m512-1872v208 16-128z"/><path d="m512-2096v208 16-128z"/><path d="m512-2224v112z"/><path d="m544-2256h48v-128h-80v128z"/><path d="m592-2384v128-32z"/><path d="m544-2256h-32z"/><path d="m704-2256h-112-48z"/><path d="m-256-2192v-32-32 32 64z"/><path d="m-256-2224v-32z"/><path d="m-256-2192v32 192-32z"/><path d="m496-2256h16-128z"/><path d="m-64-2256h-80-16 32z"/><path d="m-96-2256h-48-112z"/><path d="m-48-2256h-16z"/><path d="m-64-2384h-32v128h32z"/><path d="m-64-2384v128h128v-128z"/><path d="m512-2256v-128h-128v128z"/><path d="m352-1424h-192-32 48 160z"/><path d="m496-2224h16z"/><path d="m496-2224h-112 128z"/><path d="m-64-2224h16z"/><path d="m-128-2224h64z"/><path d="m-48-2224v-32z"/><path d="m496-2256v32z"/><path d="m512-1424v-128h-128v128z"/><path d="m512-1648v-16l-128 112h128z"/><path d="m-64-1552v-32z"/><path d="m160-1552h-224v128h64 128 32z"/><path d="m384-1552h-224v128h192 32z"/><path d="m384-1552h-224z"/><path d="m-64-1584h-64 32z"/><path d="m-64-1584h-64z"/><path d="m-224-2128v32z"/><path d="m-224-1968v48 176-96z"/><path d="m-224-1712v32z"/><path d="m-128-1584-96-96z"/><path d="m-448-2160v192 32-192z"/><path d="m-448-2320v96 32z"/><path d="m-448-1968h192z"/><path d="m-256-1936h-192v-32h192z"/><path d="m720 144v64z"/><path d="m-304-16v-128-32 32z"/><path d="m-304 112v-96z"/><path d="m416-368h16z"/><path d="m0-416h-16z"/><path d="m0-416v48z"/><path d="m416-368v-48z"/><path d="m640-2384h-48v128h48z"/><path d="m640-2336v32h32v-32z"/><path d="m640-2272v16h32v-16z"/><path d="m672-2384h-32v16h32z"/><path d="m704-2384h-32v128h32z"/><path d="m640-2304h32z"/><path d="m640-2336v-32z"/><path d="m672-2336h-32z"/><path d="m672-2368v32z"/><path d="m640-2368h32z"/><path d="m640-2272v-32z"/><path d="m672-2304v32z"/><path d="m672-2272h-32z"/><path d="m-736 80 80 80z"/><path d="m-448-2320 64-64z"/><path d="m-256-2256v32z"/><path d="m-256-2160v-64 96z"/><path d="m-256-2160v32 192-32z"/><path d="m-48-2224h32 16 64-112-16z"/><path d="m-64-2224h16-16-64z"/><path d="m-128-2224-96 96z"/><path d="m-32-1879v39 96 32 57-121z"/><path d="m-32-2103v7 32 185-121z"/><path d="m-64-1584 32-71v-57h-32z"/><path d="m-32-1712v-32h-32v32z"/><path d="m-32-1879v-185h-32v224h32z"/><path d="m-64-1840v96h32v-96z"/><path d="m-32-2064v-32h-32v32z"/><path d="m-32-2096v-7-50l-32-71v128z"/><path d="m-64-1584 32-71z"/><path d="m-224-2064v96z"/><path d="m-64-2064h-32-128z"/><path d="m-64-2224h-64l-96 96v32h160z"/><path d="m-64-2064v-32h-32v32z"/><path d="m-64-2064h-160v96 128h160z"/><path d="m-224-1840v96h160v-96z"/><path d="m-64-1584v-128h-160v32l96 96z"/><path d="m-64-1712h-32-128z"/><path d="m-64-1712v-32h-32v32z"/><path d="m-224-1680 96 96z"/><path d="m-448-1936h192v32h-192z"/><path d="m-448-2128v192 32-32z"/><path d="m-256-1904h-192z"/><path d="m-448-1936h192z"/><path d="m-448-2320v128 32z"/><path d="m992-576h32z"/><path d="m960-416h16 16z"/><path d="m720-416h32z"/><path d="m-336-416h32z"/><path d="m-544-416h32z"/><path d="m-656 160h64z"/><path d="m704-2256h-112z"/><path d="m592-2384h112z"/><path d="m592-2256v-128z"/><path d="m704-2384v128z"/><path d="m704-2256h-112v-128h112z"/><path d="m704-2384h-112z"/><path d="m512-2224v96 16z"/><path d="m512-1888v224-208z"/><path d="m512-2112v224-208z"/><path d="m1120-1360h-112z"/><path d="m928-1360h64z"/><path d="m784-1808v64z"/><path d="m928-2032h-112z"/><path d="m1024-1840v-96 96 32z"/><path d="m1024-1776v-32z"/><path d="m1024-1712v-32z"/><path d="m1024-1648v-32z"/><path d="m1024-1584v-32z"/><path d="m896-1840h-80v-16-160-16h112l96 96v96z"/><path d="m896-1648v-32-32-32-32-32-32h128v32 32 32 32 32 32 32h-128z"/><path d="m1024-1616v32 32 32h-16-16-64-16-16v-32-32-32z"/><path d="m896-1808v32z"/><path d="m896-1744v32z"/><path d="m896-1616v32z"/><path d="m896-1680v32z"/><path d="m896-1552v32z"/><path d="m784-1856v-160h32v160z"/><path d="m992-1360h-64v-16h64z"/><path d="m800-1456 96-64h16v112 16 32h-16-96z"/><path d="m928-1392v-16-112h64v112 16 16h-64z"/><path d="m912-1520h16v112h-16z"/><path d="m992-1520h16v112h-16z"/><path d="m1120-1456v96h-112v-32-16-112h16z"/><path d="m912-1408v16z"/><path d="m1008-1392v-16z"/><path d="m992-1408v16z"/><path d="m1008-1408v16h-16v-16z"/><path d="m928-1392v-16z"/><path d="m928-1408v16h-16v-16z"/><path d="m992-1360v-16z"/><path d="m992-1376v-16z"/><path d="m928-1376v16z"/><path d="m608-1840h-16v-192h48v64 80 48z"/><path d="m592-2064v-192h112v224h-64-48z"/><path d="m720-1888v48h-80v-48z"/><path d="m720-1888v-80-64h64v16 160 16h-16-48z"/><path d="m704-2032h16v64h-80v-64z"/><path d="m592-2064v32 192-192z"/><path d="m592-2288v32 192-96z"/><path d="m704-2384v128z"/><path d="m720-1968-16 16h-48l-16-16z"/><path d="m720-1888-16-16v-48l16-16z"/><path d="m592-2256h112z"/><path d="m784-1808h-16z"/><path d="m640-1840h80 48v32h-160v-32z"/><path d="m592-1424h96-96-48z"/><path d="m512-1440v-112-96h32v160 48z"/><path d="m544-1488v-160-16l48-48v128 96z"/><path d="m592-1424h-48v-16-48h48z"/><path d="m608-1808h160 16v64 160h-192v-128-96z"/><path d="m784-1584v64l-96 96h-96v-64-96z"/><path d="m592-1808v96z"/><path d="m544-1664v16z"/><path d="m784-1520-96 96z"/><path d="m-256-2128v-96 80 96 16z"/><path d="m-256-2128v96 128-32z"/><path d="m-256-1360v-32z"/><path d="m512-1424h-36z"/><path d="m160-1424h92-92-48z"/><path d="m-112-1424h-12-132z"/><path d="m512-1648v96h-128l128-112z"/><path d="m512-1552v112 16h-36-92v-128z"/><path d="m384-1552 128-112z"/><path d="m160-1552h-224z"/><path d="m160-1424h-48-176v-128h224z"/><path d="m384-1424h-132-92v-128h224z"/><path d="m-64-1424h-48-144v-32-96h192z"/><path d="m-448-2160v-160 160 32z"/><path d="m-448-1712v32 192-64z"/><path d="m-448-1936v32 192z"/><path d="m-448-2160v32 192z"/><path d="m-448-1712v-192h192v96 128h-192z"/><path d="m-256-1680v96 32 96h-160l-32-32v-192z"/><path d="m-256-1456v32h-128l-32-32z"/><path d="m-256-1392v32h-128v-32-32h128z"/><path d="m1152-736v-144h-128v160h128z"/><path d="m1152-880v144-48z"/><path d="m1024-880v144 16z"/><path d="m1152-576h-128z"/><path d="m1024-720v144h128v-144z"/><path d="m944-656h-96 32 32z"/><path d="m848-688v32z"/><path d="m944-656v-32h-32v32z"/><path d="m944-576v-32z"/><path d="m944-608v-48z"/><path d="m848-608v32z"/><path d="m848-656v48h32v-48z"/><path d="m-304-16h32z"/><path d="m688-16h32z"/><path d="m192-368h-112z"/><path d="m48-368h-16-32z"/><path d="m32-368h-32z"/><path d="m416-368h-32z"/><path d="m0-416h32z"/><path d="m384-416h32z"/><path d="m256-416h128 32-80-112z"/><path d="m256-416h-32-192v48h16 32 112 32 32z"/><path d="m336-368h32 16v-48h-128v48z"/><path d="m384-368h32v-48h-32z"/><path d="m32-416h-32v48h32z"/><path d="m336-368v32h32v-32z"/><path d="m192-368v32h32v-32z"/><path d="m48-368v32h32v-32z"/><path d="m720 144h-32z"/><path d="m688 112h32-224 32z"/><path d="m688 112h32z"/><path d="m688 16v-32h-160v32z"/><path d="m720 16h-32z"/><path d="m688 16h32v-32h-32z"/><path d="m688 144v-32h-160v32z"/><path d="m688 144h32v-32h-32z"/><path d="m-272 144h-32z"/><path d="m-112 144v-32h-160v32z"/><path d="m-112 16v-32h-160v32z"/><path d="m-272 112h160 32-224z"/><path d="m-304 112h32z"/><path d="m-272 16h-32z"/><path d="m-272-16h-32v32h32z"/><path d="m-272 112h-32v32h32z"/><path d="m1200-1264v80z"/><path d="m1424-880h-96-18.2858-77.7142-32z"/><path d="m1328-896-18.2856-16-77.7144-68-32-28v32l32 28 41.1428 36 36.5714 32h18.2858z"/><path d="m1328-912h-18.2856l18.2856 16z"/><path d="m1424-880h112l16-16v-16h-18.2858-205.7142v16 16z"/><path d="m1552-896 16-16h-16z"/><path d="m1232-1204v-44-16h-32v80 144h32z"/><path d="m1200-1040v32l32 28v-60z"/><path d="m1248-1264h-16v16h48v-16z"/><path d="m1280-1472v-220.8l-32 44.8v160 19.2001h32z"/><path d="m1248-1468.7999v204.7999h32v-204.7999z"/><path d="m1232-1248h48z"/><path d="m1280-1472v3.2001 204.7999 16-16-204.7999z"/><path d="m1232-1204v164 60-60z"/><path d="m1552-912h16-34.2858z"/><path d="m1232-1264h16-48z"/><path d="m1248-1648v160z"/><path d="m1200-976v16 80h32v-32-36z"/><path d="m1273.1428-912h-41.1428v32h77.7142z"/><path d="m1232-948v36z"/><path d="m112-720h-16-208z"/><path d="m336-720h-84-108-32 16 176z"/><path d="m560-720h-206.8571-17.1429 192z"/><path d="m-512-880v128z"/><path d="m-512-896v16z"/><path d="m912-1392v32z"/><path d="m704-1904h-48v-48h48z"/><path d="m704-1904 16 16h-80l16-16z"/><path d="m656-1904-16 16v-80l16 16z"/><path d="m-256-1808v208 16-96z"/><path d="m-256-2032v208 16-96z"/><path d="m-256-2144v16 32 48z"/><path d="m-256-1552v-32z"/><path d="m-256-1360v-32 80z"/><path d="m-16-2224h-32-16z"/><path d="m-224-2048v-96-80h160l32 71v50 103h-192z"/><path d="m-32-2000v121 103h-192v-48-176z"/><path d="m-32-1776v121l-32 71h-160v-16-176z"/><path d="m-64-1584h-160z"/><path d="m-224-1824v48 176-32z"/><path d="m-224-2048v48 176-48z"/><path d="m-224-2224v80z"/><path d="m-64-1584v32z"/><path d="m-32-2153v50z"/><path d="m-32-2153-32-71z"/><path d="m-64-1552h-192z"/><path d="m-384-1392v32z"/><path d="m-384-1360h128z"/><path d="m-256-1312h-128v-48h128z"/><path d="m-336-1006.1177v-129.8823 224 12.8-.0001z"/><path d="m-112-1056v-14.7693l-16 14.7693v49.8823 62.1177l16 14.9333z"/><path d="m-41.8462-1136h-54.1538-32v80z"/><path d="m96-720h16l-224-209.0667-16-14.9333v16z"/><path d="m-112-720h208l-224-208v145.8823 62.1177z"/><path d="m-16-1136h-25.3333l-70.6667 65.2307v14.7693z"/><path d="m-128-1056v-80-48l-46.1176-46.1177-97.8824 30.1177-64 64v129.8823h208z"/><path d="m-336-1006.1177v106.9176l125.4453 117.0824h82.5547v-145.8823-16-62.1177z"/><path d="m-210.5547-782.1177 66.5547 62.1177h16v-62.1177z"/><path d="m-96-1136v-16l-32-32v48z"/><path d="m-41.8462-1136 17.2308-16h-39.3846-32v16z"/><path d="m560-928v-1.0667l-224 209.0667h17.1429l206.8571-193.0667z"/><path d="m560-928v14.9333l16-14.9333z"/><path d="m560-720h16v-96-112l-16 14.9333-206.8571 193.0667z"/><path d="m576-1040v-16l-16-14.7692v14.7692 126.9333 1.0667h16z"/><path d="m182.6667-1152h-86.6667-120l-17.3333 16h25.3333 198.6667z"/><path d="m406.6667-1152h-86.6667-137.3333v16h25.3333 198.6667z"/><path d="m432-1136h32v-16h-57.3333v16z"/><path d="m472-1152h-8v16l96 80v-14.7692z"/><path d="m576-1152h-32-32-39.3846l103.3846 96z"/><path d="m544-1152h32v-32z"/><path d="m800-1120-144-144-80 80v32 96 16h224z"/><path d="m576-1040v112 112h176l48-48v-32-144z"/><path d="m576-816v96h80l96-96z"/><path d="m832-1088-32-32v80 144h32z"/><path d="m800-896v32l32-32z"/><path d="m1120-1184h-224v96 112l16 16h208z"/><path d="m912-960 80 80h32 96v-80z"/><path d="m1200-976v-32-32-144h-80v224h80z"/><path d="m1120-960v80h32 48v-80z"/><path d="m-24-1152h-.6154z"/><path d="m472.6154-1152h-.6154z"/><path d="m472.6154-1152 103.3846 96z"/><path d="m560-929.0667v-126.9333z"/><path d="m464-1136 96 80z"/><path d="m-112-1070.7693 70.6667-65.2307 17.3333-16-17.3333 16-70.6667 65.2307-16 14.7693z"/><path d="m208-1136h-25.3333-198.6667 198.6667z"/><path d="m432-1136h-25.3333-198.6667 198.6667z"/><path d="m-112-1056 96-80z"/><path d="m656-1264 144 144 32 32-48-48-80-80z"/><path d="m896-1088v-96-64 32 80z"/><path d="m1200-1184v-80h-80v80z"/><path d="m544-1152 32-32 80-80z"/><path d="m1120-880h-96 128z"/><path d="m1200-880h-48z"/><path d="m896-976v-112z"/><path d="m912-960-16-16 96 96z"/><path d="m800-864-48 48-96 96 144-144 32-32z"/><path d="m406.6667-1152h57.3333 8 .6154 39.3846-160-32z"/><path d="m-24.6154-1152h.6154 120-1-159z"/><path d="m-272-1200 97.8824-30.1177z"/><path d="m-174.1176-1230.1177 46.1176 46.1177 32 32z"/><path d="m-96-1152h32z"/><path d="m-210.5547-782.1177-125.4453-117.0824v.0001l192 179.2z"/><path d="m-336-1136 64-64z"/><path d="m-432-752v-128h-64v128z"/><path d="m-432-880h-64z"/><path d="m-496-752v-128z"/><path d="m-432-880v128z"/><path d="m720-544v-32z"/><path d="m720-416v-32z"/><path d="m960-544v-32z"/><path d="m960-416v-32z"/><path d="m960-416v-32-96-32z"/><path d="m992-448v32z"/><path d="m992-576v32z"/><path d="m960-544v96h32v-96z"/><path d="m992-544v-32h-32v32z"/><path d="m960-448v32h32v-32z"/><path d="m960-576h-16z"/><path d="m752-448v32z"/><path d="m752-576v32z"/><path d="m752-416v16z"/><path d="m720-544v96h32v-96z"/><path d="m752-544v-32h-32v32z"/><path d="m720-448v32h32v-32z"/><path d="m-304-448v32z"/><path d="m-304-576v32z"/><path d="m-16-368h16z"/><path d="m-16-368h-64-32z"/><path d="m48-368h-48-16-96 32z"/><path d="m192-368h-112z"/><path d="m336-368h-80-32z"/><path d="m416-368h-32-16z"/><path d="m-112-416h-192 160z"/><path d="m224-416h-112-112 32z"/><path d="m432-416h-16z"/><path d="m656-416h-96-128 96z"/><path d="m656-416h64-128-32z"/><path d="m224-368v32z"/><path d="m336-176v32h32v-32z"/><path d="m368-368v32z"/><path d="m336-336v-32z"/><path d="m336-336v-32 224-32z"/><path d="m368-336h-32v160h32z"/><path d="m192-336v-32 224-32z"/><path d="m192-336v-32z"/><path d="m224-336h-32v160h32z"/><path d="m192-176v32h32v-32z"/><path d="m48-176v32h32v-32z"/><path d="m48-336v-32 224-32z"/><path d="m48-336v-32z"/><path d="m80-368v32z"/><path d="m80-336h-32v160h32z"/><path d="m-512-544v96 32 16-176z"/><path d="m-512-448v32z"/><path d="m-512-576v32z"/><path d="m-512-416v16z"/><path d="m-336-544v-32z"/><path d="m-336-416v-32z"/><path d="m-336-400v-16z"/><path d="m-336-544v96h32v-96z"/><path d="m-336-448v32h32v-32z"/><path d="m-304-544v-32h-32v32z"/><path d="m-544-400h-48z"/><path d="m-544-544v96h32v-96z"/><path d="m-544-416v-32z"/><path d="m-544-544v-32z"/><path d="m-512-544v-32h-32v32z"/><path d="m-544-448v32h32v-32z"/><path d="m-544-400v-16z"/><path d="m112 400h-96-128 32 48 16 64z"/><path d="m368 400h-116-108 128z"/><path d="m-256-2144v-80 64z"/><path d="m-256-1824v192 32-208z"/><path d="m-256-2048v176 48-208z"/><path d="m-256-1632v32z"/><path d="m-256-1600v16z"/><path d="m-256-1312v-80 128z"/><path d="m-256-1392v-32z"/><path d="m0-2224h-16-48-160 160z"/><path d="m-224-1600v-32z"/><path d="m-224-2096v-32z"/><path d="m-224-2096v-32-16 96z"/><path d="m-256-2048v-48h32v48 176h-32z"/><path d="m-224-1872v48 192h-32v-192-48z"/><path d="m-224-1632v32h-32v-32z"/><path d="m-256-2096v-32h32v32z"/><path d="m-384-1392v32 48z"/><path d="m-256-1264h-128v-48h128z"/><path d="m-384-1312h128z"/><path d="m-736-448v-32z"/><path d="m-736-448v80z"/><path d="m720-176v128 32-32z"/><path d="m720-416v-32-96-32z"/><path d="m992-416v-160 32 96z"/><path d="m992-400v-16z"/><path d="m1152-400v-176h-128-32v160 16z"/><path d="m848-576h-96z"/><path d="m944-576h-32z"/><path d="m880-576h-32z"/><path d="m912-688h-32v32h32z"/><path d="m912-608v-48h-32v48 32h32z"/><path d="m912-656h-32-32 96z"/><path d="m912-688h32-96 32z"/><path d="m880-688h-32v32h32z"/><path d="m880-608h-32v32h32z"/><path d="m912-608h32v-48h-32z"/><path d="m912-576h32v-32h-32z"/><path d="m752-416v-160 32 96z"/><path d="m752-400h208z"/><path d="m960-416v-160h-16-32-32-32-96v160 16h208z"/><path d="m-736-480 96-96z"/><path d="m-592 144v16z"/><path d="m-592-80v16 208z"/><path d="m-592-80v224-48z"/><path d="m-592-304v176 48-48z"/><path d="m-80-576h-224v160h192 32z"/><path d="m144-576h-224v160h192 32z"/><path d="m368-576h-224v160h192 32z"/><path d="m592-576h-224v160h192 32z"/><path d="m720-416v-160h-128v160z"/><path d="m592-304-64-64h-160v96h128 96z"/><path d="m624-272-32-32v32z"/><path d="m304-144h32v-224h-112v224z"/><path d="m720-48v-128l-96-96h-32-96v128 96z"/><path d="m720-16v-32h-224v32z"/><path d="m720 16h-224v96h224z"/><path d="m368-112h32l-32-32z"/><path d="m496-48v-96h-128l32 32 96 96z"/><path d="m496-272h-128v128h128z"/><path d="m304-144h-80-32-112v32h160 64z"/><path d="m336-112v-32h-32v32z"/><path d="m720 208v-64h-224v128 96h64z"/><path d="m496 368v32h32l32-32z"/><path d="m496 144-128 128h108 20z"/><path d="m476 272h-108-96-20v32 96h116 108z"/><path d="m496 400v-32-96h-20v128z"/><path d="m-336-400v-176h-176v176z"/><path d="m-544-576h-48v176h48z"/><path d="m192-368h-112v224h112z"/><path d="m48-368h-128v224h128z"/><path d="m-80-16 96-96 32-32h-128z"/><path d="m16-112h32v-32z"/><path d="m-80-368h-32l-192 192v32h224z"/><path d="m-304-144v128h224v-128z"/><path d="m48 272-128-128v128z"/><path d="m144 272h-96-128v32h96 128z"/><path d="m252 304v-32h-108v32z"/><path d="m16 304h-96-128l96 96h128z"/><path d="m112 400h32 108v-96h-108-128v96z"/><path d="m-80 112v-96h-224v96z"/><path d="m-80 304v-32-128h-224v64l96 96z"/><path d="m368 272h-96z"/><path d="m240-112h-160-32-32 128z"/><path d="m-304-576v32 96 32z"/><path d="m-304 208v-64z"/><path d="m-304-16h32 160 32z"/><path d="m496-16h32 160 32z"/><path d="m336-368h-112z"/><path d="m528-368h-96-16-48z"/><path d="m112-416h-192-32 96 16z"/><path d="m336-416h-192-32 112z"/><path d="m560-416h-192-32 80 16z"/><path d="m720-576h-128z"/><path d="m224-368v32 160 32z"/><path d="m368-272v-96 32 160 32z"/><path d="m368-112v-32z"/><path d="m368-144h-32z"/><path d="m336-144v32z"/><path d="m336-112h32z"/><path d="m-112-368-192 192z"/><path d="m80-368v32 160 32z"/><path d="m48-144v32z"/><path d="m80-144h-32z"/><path d="m80-112v-32z"/><path d="m48-112h32z"/><path d="m720 144h-32-160-32z"/><path d="m720 16h-32-160-32z"/><path d="m496 16h32v-32h-32z"/><path d="m496 144h32v-32h-32z"/><path d="m-80 144h-32-160-32z"/><path d="m-80 16h-32-160-32z"/><path d="m-80-16h-32v32h32z"/><path d="m-80 112h-32v32h32z"/><path d="m-208 304-96-96 32 32 160 160z"/><path d="m-336-400v-16-32-96-32z"/><path d="m-336-576h-32-144z"/><path d="m-592-576h48z"/><path d="m-544-400v-16-32-96-32z"/><path d="m-640-576h48z"/><path d="m-592-400v-176h-48l-96 96v32 80 16h144z"/><path d="m-736-352v208 16h144v-176-48z"/><path d="m-736-128v48h64 80v-48z"/><path d="m-736-16 64-64h-64z"/><path d="m-576-880h-16v128h16z"/><path d="m-544-880h-32v16h32z"/><path d="m-576-768v16h32v-16z"/><path d="m-576-832v32h32v-32z"/><path d="m-512-880h-32v128h32z"/><path d="m-544-832h-32z"/><path d="m-544-864v32z"/><path d="m-576-864h32z"/><path d="m-576-832v-32z"/><path d="m-576-800h32z"/><path d="m-544-800v32z"/><path d="m-544-768h-32z"/><path d="m-576-768v-32z"/><path d="m1536-880h-192z"/><path d="m1232-948 41.1428 36z"/><path d="m1200-976h16 16v27.4286z"/><path d="m1216-976v-18l16 14v4z"/><path d="m1344-912v16h-16l-18.2858-16z"/><path d="m1312-910 16 14h-16z"/><path d="m1232-948.5714v-27.4286-4l77.7142 68 2.2858 2v14 16z"/><path d="m1533.7142-912h34.2858l-32 32h-192v-16-16z"/><path d="m1232-1248v-16h16 32v16z"/><path d="m1200-1184v-80h16v80z"/><path d="m1216-1152v-32-80h16v16 44 164h-16z"/><path d="m1232-1040v60l-16-14v-14-32z"/><path d="m1200-1152h16v112 32h-16z"/><path d="m1248-1488v-160l32-44.8v220.8 3.2001h-32z"/><path d="m1280-1468.7999v204.7999h-32v-204.7999z"/><path d="m1248-1488v19.2001 204.7999-48z"/><path d="m1232-948.5714 80 68.5714-96-82.2856-16-13.7144z"/><path d="m1280-1692.8v220.8z"/><path d="m1232-1248v44z"/><path d="m1533.7142-912h-189.7142-34.2858.0002 18.2856z"/><path d="m1309.7142-912-77.7142-68 77.7144 68z"/><path d="m1232-912h41.1428z"/><path d="m1232-948v36h41.1428z"/><path d="m576-720h80-160-20z"/><path d="m336-720h-84z"/><path d="m144-720h108z"/><path d="m144-720h-32z"/><path d="m-384-1264h128z"/><path d="m235-1264h-35.6154-103.3846-85 11 73 11 73z"/><path d="m459-1264h-107-117 17 51 16 17 8 40 39 9 16z"/><path d="m252-1424h-92z"/><path d="m112-1424h-176-48 48z"/><path d="m-384-1264v-128 80z"/><path d="m-384-1104v64 160-96z"/><path d="m-384-1264v32z"/><path d="m-384-1200v32z"/><path d="m576-1056v-208h80l32 32 112 112v80h-224z"/><path d="m800-1040v144 32l-48 48h-176v-112-112z"/><path d="m752-816-96 96h-80v-96z"/><path d="m800-1040v-80l32 32v192h-32z"/><path d="m832-896-32 32v-32z"/><path d="m472.6154-1152-49.2308-45.7142-71.3846-66.2858h107 53 64v208z"/><path d="m464-1136v-16h8l88 81.2308v14.7692z"/><path d="m182.6667-1136h-198.6667-25.3333l17.3333-16h206.6667z"/><path d="m406.6667-1136h-198.6667-25.3333v-16h16.7179 207.2821z"/><path d="m423.3846-1152h40.6154v16h-32-25.3333v-16z"/><path d="m199.3846-1152h-16.7179-206.6667-.6154l.6154-.5714 8-7.4286 111-103.0714 1-.9286h103.3846z"/><path d="m235-1264h117l71.3846 66.2858v45.7142h-16.7179-207.2821v-112z"/><path d="m423.3846-1197.7142 49.2308 45.7142h-.6154-8-40.6154z"/><path d="m560-929.0667v-126.9333-14.7692l16 14.7692v16 112h-16z"/><path d="m576-928-16 14.9333v-14.9333z"/><path d="m560-913.0667 16-14.9333v112 96h-100-122.8571z"/><path d="m560-928v14.9333l-206.8571 193.0667h-17.1429l224-209.0667z"/><path d="m-16-1160-8 7.4286-.6154.5714-17.2307 16h-86.1539-112v-32-32-32-32h128 45 3 14 34z"/><path d="m11-1264h85l-1 .9286-111 103.0714v-104z"/><path d="m-384-1104v-64-32-32-32h128v32 32 32 32 96h-128z"/><path d="m-256-1040v128 96h-128v-64-160z"/><path d="m-256-816v64h-128v-64z"/><path d="m-256-1136v-32h16v32z"/><path d="m-256-1200v-32h16v32z"/><path d="m-112-1056v-14.7693l70.6667-65.2307h25.3333z"/><path d="m96-720h-208-16v-32-64-96-16z"/><path d="m-112-929.0667 224 209.0667h-16l-224-208v-16z"/><path d="m-41.8461-1136-86.1539 80v-80z"/><path d="m-256-1040v-96h16 112v80 112 16 16h-128z"/><path d="m-128-912v96h-64-64v-96z"/><path d="m-128-944v-112l16-14.7693v14.7693 126.9333z"/><path d="m-128-816v64h-32-32v-64z"/><path d="m-160-720h-224v-32h128 64 32z"/><path d="m-128-752v32h-32v-32z"/><path d="m832-896v-192z"/><path d="m-240-1264v32z"/><path d="m-112-929.0667 224 209.0667z"/><path d="m560-1070.7692-88-81.2308 88 81.2308 16 14.7692z"/><path d="m-41.8461-1136 17.2307-16-17.2308 16-86.1538 80z"/><path d="m-112-1056v126.9333z"/><path d="m464-1136h-32z"/><path d="m336-720 224-209.0667z"/><path d="m-432-752h-80z"/><path d="m-432-752h48z"/><path d="m-432-880h48v64 64h-48-80v-128z"/><path d="m368 272h-96z"/><path d="m272 272h-224 96 108z"/><path d="m48 272-128-128z"/><path d="m-1312-1232v-64z"/><path d="m-1312-1296 32-32z"/><path d="m-1168-1328 64-64z"/><path d="m-1200-1328h-80l-32 32v64l32 32h80z"/><path d="m-1200-1328v128h32v-128z"/><path d="m-1200-1200h-80z"/><path d="m-1200-1328h32z"/><path d="m-1280-1328h80z"/><path d="m-512-752h-80z"/><path d="m-592-880h80z"/><path d="m-512-880v128z"/><path d="m-592-752v-128z"/><path d="m-512-752h-80v-128h80z"/><path d="m-656-32-32 32v80l32 32z"/><path d="m-624-32h-32v16h32z"/><path d="m-656 96v16h32v-16z"/><path d="m-656 16v48h32v-48z"/><path d="m-592-32h-32v144h32z"/><path d="m-656 64h32z"/><path d="m-624 16h-32z"/><path d="m-624-16v32z"/><path d="m-656 16v-32z"/><path d="m-656-16h32z"/><path d="m-656 96v-32z"/><path d="m-624 64v32z"/><path d="m-624 96h-32z"/><path d="m-192-816v64z"/><path d="m-256-816h64z"/><path d="m-256-752v-64z"/><path d="m-192-752h-64v-64h64z"/><path d="m-192-752h-64z"/><path d="m656-720h-160z"/><path d="m476-720h-204-20 84 17.1429z"/><path d="m144-720h-32z"/><path d="m-256-2128v32z"/><path d="m144-816v96z"/><path d="m252-720h20v-96l-32-32h-64l-32 32v96z"/><path d="m272-816-32-32z"/><path d="m-656-32h64z"/><path d="m-592 112h-64z"/><path d="m-592-32v144z"/><path d="m-688 80v-80z"/><path d="m-592 112h-64l-32-32v-80l32-32h64z"/><path d="m-656 112-32-32z"/><path d="m-688 0 32-32z"/><path d="m-112-720h80-32z"/><path d="m112-720h-16-128-80 208z"/><path d="m-112-720h-48 32z"/><path d="m384-2256h-96z"/><path d="m64-2256h-128 16z"/><path d="m288-2224h-224 96z"/><path d="m288-2256h-224v32h224z"/><path d="m384-2224v-32h-96v32z"/><path d="m64-2224v-32h-112v32z"/><path d="m384-2256v32h112v-32z"/><path d="m272-816v96z"/><path d="m176-848h64z"/><path d="m272-816v96h-16-4-92-16v-96l32-32h64z"/><path d="m144-816 32-32z"/><path d="m-592 160v-16z"/><path d="m480-240h-208 144z"/><path d="m272-688v192z"/><path d="m144-496v32 192-192z"/><path d="m160-688v-32h92v32 192h-92z"/><path d="m252-496v32 192h-92v-192-32z"/><path d="m252-272v32h-92v-32z"/><path d="m252-240v-32h4v32z"/><path d="m252-464v-32-192h4 16v192 32z"/><path d="m256-272h-4v-192h20v192z"/><path d="m252-688v-32h4v32z"/><path d="m144-496v-192h16v192 32h-16z"/><path d="m160-464v192h-16v-192z"/><path d="m592-112v16 144z"/><path d="m592 272h-96z"/><path d="m272 272h-224z"/><path d="m272-144h96l32 32h-128z"/><path d="m496-144h-128-96v-96h208l16 18.2856z"/><path d="m564-144h-68v-77.7144z"/><path d="m496-16v-128h68l28 32v160 32h-96z"/><path d="m592 80v192h-96v-128-64z"/><path d="m400-112-32-32h128v128z"/><path d="m160-240h92 4 16v96 32h-32-96v-32-96z"/><path d="m496 144v128h-128z"/><path d="m16-112h-32v-32h92 68v32z"/><path d="m76-144h-92-64-68l84-96h140z"/><path d="m144-240v96h-68v-96z"/><path d="m16-112-32 32v-32z"/><path d="m-16-144v32 32l-64 64v-48-80z"/><path d="m-176-64v-16-32l28-32h68v80z"/><path d="m48 272h-128v-128z"/><path d="m-176-64h96v48 160h-96-32v-208z"/><path d="m-80 272h-96v-112-16h96z"/><path d="m-176-112v32z"/><path d="m496-16v96 64-32-96z"/><path d="m-80 144v-160 32 96z"/><path d="m272-112h128-32-32-32-64z"/><path d="m-80-16 64-64 32-32z"/><path d="m400-112 96 96z"/><path d="m496 144-128 128z"/><path d="m-336-80h-224z"/><path d="m-208 160h-128z"/><path d="m-336 160h-224v-16-208-16h224z"/><path d="m-208-80v16 208 16h-128v-240z"/><path d="m-592 144v-208h32v208z"/><path d="m-592 160h-64z"/><path d="m512-1648v-16z"/><path d="m512-1648v128z"/><path d="m512-1424v-16z"/><path d="m512-1888v208 16z"/><path d="m512-2112v208 16z"/><path d="m512-1648h32z"/><path d="m512-1440h32z"/><path d="m288-2256h-224z"/><path d="m-96-2256v-128z"/><path d="m288-2384h-128-96v128h224z"/><path d="m384-2256v-128h-96v128z"/><path d="m476-1424h-92-132 132z"/><path d="m160-1424h-224 176z"/><path d="m-64-1424h-48z"/><path d="m384-2224h128z"/><path d="m384-2224h-96z"/><path d="m64-2224h-64z"/><path d="m-64-1584v-48z"/><path d="m-64-1552v-32z"/><path d="m160-2128h-224 128 32z"/><path d="m160-2224h-96-64-64v96h224z"/><path d="m384-2224h-96-128v96h224z"/><path d="m400-2128h112v-96h-128v96z"/><path d="m384-1520h16-48-96-32z"/><path d="m0-1520-64-64v32 32z"/><path d="m512-2112v-16h-112v160 64h112z"/><path d="m400-1904v160 64h112v-208-16z"/><path d="m400-1680v160h112v-128-16-16z"/><path d="m400-2128h-48v160h48z"/><path d="m160-1520h-160-64v96h224z"/><path d="m384-1520h-160-64v96h92 132z"/><path d="m476-1424h36v-16-80h-112-16v96z"/><path d="m-64-1584v-48h-160v16 16 16z"/><path d="m-256-1600h32z"/><path d="m-224-2144v16z"/><path d="m-64-2224h-160v80 16h160z"/><path d="m-224-2128h-32z"/><path d="m-224-1584v-16z"/><path d="m-64-1552h-192 132z"/><path d="m-960-1168v32l48 48v-80z"/><path d="m784-1856v16z"/><path d="m816-2016v-16z"/><path d="m1024-1776v32z"/><path d="m1024-1712v32z"/><path d="m1024-1648v32z"/><path d="m1024-1584v32z"/><path d="m1024-1520v-32z"/><path d="m896-1808v-32z"/><path d="m896-1744v-32z"/><path d="m896-1680v-32z"/><path d="m896-1616v-32z"/><path d="m896-1552v-32z"/><path d="m816-2016h-32z"/><path d="m784-1856h32z"/><path d="m968-1392h-16-24v16h64v-16z"/><path d="m928-1376v16h64v-16z"/><path d="m968-1392h24z"/><path d="m992-1392h16z"/><path d="m912-1392h16z"/><path d="m928-1392v16z"/><path d="m928-1376h64z"/><path d="m992-1376h-64z"/><path d="m608-1840h-16z"/><path d="m768-1808v-32z"/><path d="m608-1840v32z"/><path d="m-960-1168v-224h-144l-64 64v128l32 32z"/><path d="m-960-1136v-32h-176l32 32z"/><path d="m-1168-1200v-128z"/><path d="m-960-1392h-32-112z"/><path d="m-1104-1136-32-32-32-32 32 32z"/><path d="m512-1520v80z"/><path d="m912-1360h96 112-96-128z"/><path d="m912-1360h-16z"/><path d="m896-1360h-96z"/><path d="m1008-1360v-32z"/><path d="m928-1392h24z"/><path d="m928-1392h24 16 24 16v32h-96v-32z"/><path d="m-256-2096v-32 80z"/><path d="m-256-2128v-16z"/><path d="m-256-2096v-32z"/><path d="m-256-1600v-32z"/><path d="m-224-1632v32-16z"/><path d="m-224-1840v208 16-16z"/><path d="m-224-2064v192 32-16z"/><path d="m-224-2064v-32h-32v48 176h32z"/><path d="m-256-1872v48 192h32v-208-32z"/><path d="m-256-1632v32h32v-32z"/><path d="m-224-2096v-32h-32v32z"/><path d="m-384-1200v-32z"/><path d="m-384-880h-48z"/><path d="m-432-880h-80z"/><path d="m-432-752h48v-32h-128v32z"/><path d="m-112-1424h48v-96-32h-60v128z"/><path d="m-64-1264h5z"/><path d="m-832-1376v-16z"/><path d="m-832-1376v144z"/><path d="m-832-1008v-16z"/><path d="m-144-2384h48-64z"/><path d="m-384-1264h16z"/><path d="m11-1264h-27-34 36.6667 7.3333z"/><path d="m179-1264h-73 39 17z"/><path d="m319-1264h-16z"/><path d="m512-1264h-53z"/><path d="m784-1984v-32z"/><path d="m784-1856v-32z"/><path d="m1024-1520h-32z"/><path d="m928-1520h-32z"/><path d="m816-2016v32z"/><path d="m816-1888v32z"/><path d="m896-1680h32z"/><path d="m992-1680h32z"/><path d="m1024-1776h-32z"/><path d="m928-1776h-32z"/><path d="m992-1808h-64v32h64z"/><path d="m896-1808h32z"/><path d="m992-1808h32z"/><path d="m928-1808h-32v32h32z"/><path d="m992-1776h32v-32h-32z"/><path d="m992-1744h-64v32h64z"/><path d="m1024-1712h-32z"/><path d="m928-1712h-32z"/><path d="m896-1744h32z"/><path d="m992-1744h32z"/><path d="m992-1712h32v-32h-32z"/><path d="m928-1744h-32v32h32z"/><path d="m928-1584h-32z"/><path d="m1024-1584h-32z"/><path d="m992-1680h-64v32h64z"/><path d="m992-1616h-64v32h64z"/><path d="m928-1616h64 32-128z"/><path d="m1024-1648h-32z"/><path d="m928-1648h-32z"/><path d="m928-1680h-32v32h32z"/><path d="m992-1648h32v-32h-32z"/><path d="m992-1616h32z"/><path d="m896-1616h32z"/><path d="m992-1584h32v-32h-32z"/><path d="m928-1616h-32v32h32z"/><path d="m992-1552h-64v32h64z"/><path d="m928-1552h64 32-128z"/><path d="m896-1552h32z"/><path d="m992-1552h32z"/><path d="m928-1552h-32v32h32z"/><path d="m992-1520h32v-32h-32z"/><path d="m784-1984v96h32v-96z"/><path d="m816-1984v-32h-32v32z"/><path d="m784-1888v32h32v-32z"/><path d="m608-1840h32z"/><path d="m768-1840h16z"/><path d="m736-1840h32z"/><path d="m640-1808h-32z"/><path d="m768-1808h-32z"/><path d="m736-1808v-32h-96v32z"/><path d="m640-1840h-32v32h32z"/><path d="m736-1808h32v-32h-32z"/><path d="m-256-1824v112 112-32z"/><path d="m-256-2048v112 112-48z"/><path d="m-144-2256v-128h-16-96v128z"/><path d="m-144-2256h48v-128h-48z"/><path d="m-64-2080v-48z"/><path d="m-64-1808v176 48-128-32z"/><path d="m-64-2032v176 48-112-32z"/><path d="m-224-2080v-16 32z"/><path d="m-64-2032v-48h-160v16 208h160z"/><path d="m-224-1856v16 208h160v-176-48z"/><path d="m-64-2080v-48h-160v32 16z"/><path d="m-124-1424v-128h-132v128z"/><path d="m-448-2320v160z"/><path d="m-256-2224v-32-128h-128l-64 64v160h192z"/><path d="m-448-2160v224h192v-112-80-16-16z"/><path d="m-448-1936v224h192v-112-112z"/><path d="m-448-1712v160h192v-32-16-112z"/><path d="m-256-1552h-192v64l64 64h128z"/><path d="m-256-1392v-32h-128v32 128h16 112z"/><path d="m-384-1424v32z"/><path d="m-448-1488 32 32 32 32z"/><path d="m-368-1232h-16z"/><path d="m-240-1232h-16z"/><path d="m-256-1232h-112-16z"/><path d="m459-1264h-11v16h64v-16z"/><path d="m423-1264v16h9v-16z"/><path d="m336-1264v16h8v-16z"/><path d="m252-1264v16h51v-16z"/><path d="m179-1264v16h11 45v-16z"/><path d="m303-1248h-51 11 23z"/><path d="m95-1264v16h11v-16z"/><path d="m11-1264v16h11v-16z"/><path d="m-256-1232v-32z"/><path d="m-256-1264h-112v32h112z"/><path d="m-368-1264h-16v32h16z"/><path d="m-240-1168h-16z"/><path d="m-368-1168h-16z"/><path d="m-240-1200v32z"/><path d="m-256-1168v-32z"/><path d="m-256-1200v-32z"/><path d="m-240-1232h-16v32h16z"/><path d="m-256-1200h16z"/><path d="m-256-1200h-112v32h112z"/><path d="m-384-1200h16z"/><path d="m-368-1200h-16v32h16z"/><path d="m-800-1232v80 128 16-160z"/><path d="m-800-1008v-16z"/><path d="m-800-1232v-144h-32v144 80h32z"/><path d="m-832-1152v128h32v-128z"/><path d="m-832-1008-80-80-48-48z"/><path d="m385.5531-1248h37.4469v-16h-39v16z"/><path d="m-59-1264h9-14z"/><path d="m-59-1264v16h9v-16z"/><path d="m235-1264h-45z"/><path d="m235-1264h17z"/><path d="m235-1264v16z"/><path d="m190-1248v-16h45v16z"/><path d="m190-1248h45z"/><path d="m319-1264h17z"/><path d="m303-1248h16z"/><path d="m319-1264h-16v16h16z"/><path d="m263-1248v-16h23v16z"/><path d="m286-1248h17z"/><path d="m286-1264h17v16h-17z"/><path d="m-64-1264h-3v16h8v-16z"/><path d="m-912-1392h-48v224h48z"/><path d="m-592-752-48-48z"/><path d="m-832-1232v64 160-16-128z"/><path d="m-512-848v-32z"/><path d="m-512-752v-32z"/><path d="m-512-1232v128 96-16z"/><path d="m-240-1264h128z"/><path d="m-67-1264h3z"/><path d="m-112-1264h45z"/><path d="m784-2032v16z"/><path d="m784-1856v-32-96-32z"/><path d="m784-1744v160 64-64z"/><path d="m1024-1520h-32-64-32z"/><path d="m816-2016v32 96 32z"/><path d="m816-1840v-16z"/><path d="m816-1840h80z"/><path d="m816-2032v16 160 16h80 128v-96l-96-96z"/><path d="m1024-1936-96-96z"/><path d="m1024-1552v-32h-128v32z"/><path d="m1024-1616v-32h-128v32z"/><path d="m896-1712v32h128v-32z"/><path d="m896-1776v32h128v-32z"/><path d="m1024-1840h-128v32h128z"/><path d="m896-1680h32 64 32z"/><path d="m1024-1776h-32-64-32z"/><path d="m896-1808h32 64 32z"/><path d="m1024-1712h-32-64-32z"/><path d="m896-1744h32 64 32z"/><path d="m1024-1584h-32-64-32z"/><path d="m1024-1648h-32-64-32z"/><path d="m608-1840h32 96 32z"/><path d="m592-2384v96z"/><path d="m784-2032h-64-16z"/><path d="m704-2256v-128h-112v96 128h112z"/><path d="m592-2160v96 32h112v-128z"/><path d="m704-2256v96 128z"/><path d="m608-1840h160 16v-16-160-16h-80-112v192z"/><path d="m592-1808h16z"/><path d="m768-1808h-32-96-32z"/><path d="m592-1488v-96-128l-48 48v16 160z"/><path d="m544-1440v16h48v-64h-48z"/><path d="m784-1584v-160-64h-16-160-16v96 128z"/><path d="m688-1424 96-96v-64h-192v96 64z"/><path d="m592-1712-48 48z"/><path d="m544-1424v-16z"/><path d="m544-1488v-160h-32v128 80h32z"/><path d="m-64-1584 64 64h-64z"/><path d="m96-2128h-32z"/><path d="m64-1520h32z"/><path d="m-64-1520h64 64z"/><path d="m256-1520h-32z"/><path d="m352-1920v176z"/><path d="m352-1920v-32z"/><path d="m352-1712v-32z"/><path d="m-64-1952v32z"/><path d="m-64-1744v32z"/><path d="m-64-2128v48 48z"/><path d="m224-2128h32 96 48-16-224z"/><path d="m224-1520h-128-32-64 160z"/><path d="m0-1520-64-64z"/><path d="m352-1744v32 192h48v-160-64z"/><path d="m352-1968v16 32 176h48v-160-64z"/><path d="m-384-880v32z"/><path d="m-384-784v32z"/><path d="m-384-1168v64z"/><path d="m-384-976v96 32 64 32-128-48z"/><path d="m-384-1200v32 64 128-176z"/><path d="m-50-1264v16z"/><path d="m-256-1264h16v32h-16-128v-32z"/><path d="m-256-1168h16-16-112-16z"/><path d="m-240-1232v32 32z"/><path d="m-240-1168h-16v-32-32h16z"/><path d="m-256-1168h-128v-32h128z"/><path d="m-384-1200h16 112z"/><path d="m-432-784v-64h-80v64z"/><path d="m-432-848v64h48v-64z"/><path d="m-432-848h48v-32h-48-80v32z"/><path d="m-640-1392h-160z"/><path d="m-512-784v-64-32-16l-48-48h-32l-48 48v96l48 48h80z"/><path d="m-576-1328-64-64h-160v16 144 64h224z"/><path d="m-800-1168v160h224v-96-64z"/><path d="m-512-1232v-32l-64-64v160 64h64z"/><path d="m-576-1104v96h64v-96z"/><path d="m-576-1008h-224z"/><path d="m-512-1008h-64z"/><path d="m-800-1376v144z"/><path d="m-576-1328 64 64-128-128z"/><path d="m-592-944h32z"/><path d="m-640-800v-96z"/><path d="m-640-896 48-48z"/><path d="m-560-944 48 48z"/><path d="m-832-1392h-112-16 48z"/><path d="m-832-1232v-144-16h-80v224h80z"/><path d="m-912-1168v80l80 80v-160z"/><path d="m-208 144v16z"/><path d="m160-272v32z"/><path d="m256-272h-32z"/><path d="m256-240v-32z"/><path d="m256-240v-32h-32v32z"/><path d="m-208 144h32z"/><path d="m-176-64h-32z"/><path d="m-592 144h32z"/><path d="m-560-64h-32z"/><path d="m512-1264v16z"/><path d="m466-1264h46v16h-46z"/><path d="m448-1248v-16z"/><path d="m466-1248h46-64z"/><path d="m-67-1264v16z"/><path d="m-67-1248h17-9z"/><path d="m912-1520h-16z"/><path d="m992-1520h-24z"/><path d="m952-1520h-24z"/><path d="m912-1520h16 24 16 24 16 16-128z"/><path d="m912-1520v128z"/><path d="m952-1520v128z"/><path d="m992-1520v128z"/><path d="m1008-1520h-16v128h16z"/><path d="m968-1520h-16v128h16z"/><path d="m928-1520h-16v128h16z"/><path d="m22-1264h39 34z"/><path d="m-13.3333-1264h7.3333z"/><path d="m179-1264h-17z"/><path d="m252-1264v16z"/><path d="m179-1264v16z"/><path d="m22-1264v16z"/><path d="m95-1264v16z"/><path d="m106-1264v16z"/><path d="m106-1264v16h39v-16z"/><path d="m22-1264v16h39v-16z"/><path d="m11-1264v16z"/><path d="m-17-1248h3.6667-36.6667 18.1176z"/><path d="m-17-1248h-14.8824z"/><path d="m-13.3333-1248h7.3333v-16h-7.3333-36.6667v16z"/><path d="m-101-1248h15.4706 18.5294-37.5z"/><path d="m-85.5294-1248h-15.4706v-16h34v16z"/><path d="m-6-1264h17z"/><path d="m-6-1248h-7.3333-3.6667 1.2222z"/><path d="m-112-1264v16h7.5 37.5v-16z"/><path d="m1792-1488v224z"/><path d="m1792-1520v32z"/><path d="m1200-1152v144z"/><path d="m1200-1264v80z"/><path d="m1472-1760h-144z"/><path d="m1680-1760v112l-89.1428-48-6.8572-3.6923-112-60.3077z"/><path d="m1750-1568-70-80h112v128z"/><path d="m1248-1760h80l-80 112z"/><path d="m1200-1760h48v112 80 32h-48z"/><path d="m1248-1536v48 176h-48v-224z"/><path d="m1248-1312v48h-48v-48z"/><path d="m1704-1088 72-144 16-32v224h-112z"/><path d="m1792-1040v32h-128l16-32z"/><path d="m1216-1152h-16v-32h16z"/><path d="m1568-912 96-96v128h-128z"/><path d="m1216-962.2856 96 82.2856h-112v-96z"/><path d="m1344-880h-32v-16h32z"/><path d="m1216-976h-16v-32h16z"/><path d="m1536-880 32-32z"/><path d="m1664-1008-96 96z"/><path d="m1328-1760-48 67.2-32 44.8z"/><path d="m1776-1232-72 144-24 48-16 32z"/><path d="m1584-1699.6923 6.8572 3.6923z"/><path d="m1248-1264h-16-16-16z"/><path d="m1248-1536v-32-80 160z"/><path d="m1344-896v16z"/><path d="m1200-1008h16z"/><path d="m1216-1152h-16z"/><path d="m1216-1184v32z"/><path d="m1200-1184h16z"/><path d="m1312-880v-16z"/><path d="m1312-896h16 16z"/><path d="m1216-976h-16z"/><path d="m1216-1008v14 18z"/><path d="m496-720h-20-204 204z"/><path d="m496-720h160-144-32-4z"/><path d="m256-720h16z"/><path d="m144-720h16z"/><path d="m144-720h-16-32 16z"/><path d="m-256-1264h-128z"/><path d="m-112-1264h-128-16z"/><path d="m656-1264h-80-64z"/><path d="m1024-1520h-16z"/><path d="m1008-1520v128z"/><path d="m992-1520h16v128h-16z"/><path d="m968-1520v128z"/><path d="m952-1520h16v128h-16z"/><path d="m928-1520v128z"/><path d="m912-1520h16v128h-16z"/><path d="m688-1232-32-32z"/><path d="m-112-1264v16z"/><path d="m688-1232 112.9697 112.9697 31.0303 31.0303-32-32z"/><path d="m-592-32v-32z"/><path d="m-592 144v-32z"/><path d="m-592 112v-144-32-16 224z"/><path d="m-592-64v-16z"/><path d="m-208-64v-16z"/><path d="m-208 112v-144-32-16 224z"/><path d="m-208-32v-32z"/><path d="m-208 144v-32z"/><path d="m160-240h-16z"/><path d="m192-240h-32z"/><path d="m272-240h-16z"/><path d="m256-240h-32z"/><path d="m272-496v32 192-192z"/><path d="m144-688v192z"/><path d="m256-688v-32h-4-92v32z"/><path d="m272-464v-32-192h-16-96-16v192 32z"/><path d="m160-272h32 32 32 16v-192h-128v192z"/><path d="m224-272h-32v32h32z"/><path d="m160-720v32z"/><path d="m256-272h16z"/><path d="m160-272h32z"/><path d="m272-688h-16z"/><path d="m256-688v-32z"/><path d="m192-272h-32v32h32z"/><path d="m160-688h-16z"/><path d="m144-272h16z"/><path d="m-176 144v16z"/><path d="m-176-64v32z"/><path d="m-176 112v32z"/><path d="m-176-80v16z"/><path d="m-208-32v144h32v-144z"/><path d="m-208 112v32h32v-32z"/><path d="m-176-32v-32h-32v32z"/><path d="m-560-80v16z"/><path d="m-560-64v32z"/><path d="m-560 112v32z"/><path d="m-592-32v144h32v-144z"/><path d="m-560-32v-32h-32v32z"/><path d="m-592 112v32h32v-32z"/><path d="m-17-1264v16h-14.8824-18.1176v-16z"/><path d="m-101-1264h34z"/><path d="m-101-1248h-3.5-7.5 10z"/><path d="m-101-1248h15.4706z"/><path d="m78-1264h17-34z"/><path d="m95-1264h-17z"/><path d="m145-1264h17z"/><path d="m106-1248v-16h39v16z"/><path d="m145-1264v16z"/><path d="m106-1248h39z"/><path d="m22-1248v-16h39v16z"/><path d="m61-1264v16z"/><path d="m22-1248h39z"/><path d="m-50-1248v-16z"/><path d="m-67-1264v16z"/><path d="m-67-1248v-16h17v16z"/><path d="m-736 80 80 80z"/><path d="m1024-1520h-16-16-24-16-24-16-16z"/><path d="m1120-1456v96z"/><path d="m800-1360v-96z"/><path d="m1024-1520h-128l-96 64v96h96 128z"/><path d="m1120-1360v-96l-96-64v160z"/><path d="m1120-1456-96-64z"/><path d="m800-1456 96-64z"/><path d="m-736 80v-96z"/><path d="m192-240h-48-176v144h16 208z"/><path d="m416-240h-144-80v144h16 208z"/><path d="m448-96h144v-16l-112-128h-64v144z"/><path d="m592 48v-144h-144v16 208h144z"/><path d="m448 128v32 16 96h48 96v-144z"/><path d="m208-96h-16-208v16h224z"/><path d="m432-80h16v-16h-32-208v16z"/><path d="m448 128v-208h-16v240h16z"/><path d="m192 160h-208-16v16h224z"/><path d="m416 160h-208-16v16h224z"/><path d="m448 176v-16h-16-16v16z"/><path d="m192 176h-224v32 64h80 144z"/><path d="m416 176h-224v96h80 144z"/><path d="m448 272v-96h-32v96z"/><path d="m-16-80v-16h-16v80 144h16z"/><path d="m-32 128v32h16v-32z"/><path d="m-32-96v-144h-32l-112 128v32 64h144z"/><path d="m-176-16v160 16 48h144v-32-16-32-144z"/><path d="m-176 208v64h144v-64z"/><path d="m-336-80h-224v224 16h224z"/><path d="m-208 160v-16-224h-128v240z"/><path d="m-592 144v-224h-80l-64 64v96l80 80h64z"/><path d="m432 160v-240 224z"/><path d="m416 160h16-224z"/><path d="m208-80h-224 208z"/><path d="m-32-240h176-68-140z"/><path d="m192-240h80-16-32-32-32-16z"/><path d="m592 48v80 144-192z"/><path d="m48 272h-80-144 96z"/><path d="m272 272h-80-144z"/><path d="m496 272h-48-32-144 96z"/><path d="m-176 208v-48 112z"/><path d="m-176-16v-64 16 32 144 32z"/><path d="m592-112-28-32-68-77.7144-16-18.2856z"/><path d="m-64-240-84 96-28 32z"/><path d="m-560-80v16 32 144 32z"/><path d="m-560 160v-16z"/><path d="m-208-80h-128z"/><path d="m-336 160h-224z"/><path d="m-672-80h80z"/><path d="m-672-80-64 64z"/><path d="m512-1264h-46z"/><path d="m512-1248h-46-18 46z"/><path d="m512-1248v-16h-46v16z"/><path d="m494-1264h-9v16h9z"/><path d="m494-1248h-46v-16h46z"/><path d="m-67-1264h-34-1z"/><path d="m-67-1264h17z"/><path d="m-17-1264h-33z"/><path d="m303-1248v-16z"/><path d="m-6-1248v-16z"/><path d="m-17-1248v-16h1.2222v16z"/><path d="m-15.7778-1248v-16h-1.2222-33v16z"/><path d="m-17-1248v-16z"/><path d="m-102-1264h1v16h-1z"/><path d="m-102-1248h35v-16h-35z"/><path d="m-101-1264v16z"/><path d="m-17-1264h1.2222z"/><path d="m-6-1248h-9.7778-34.2222z"/><path d="m-6-1264v16h-44v-16z"/><path d="m-112-1248v-16h45v16z"/><path d="m448-1264h37 9z"/><path d="m485-1248h17.6538 9.3462-18z"/><path d="m502.6538-1248h-17.6538v-16h27v16z"/><path d="m448-1264v16h37v-16z"/><path d="m78-1264h-17-39z"/><path d="m106-1264h39z"/><path d="m263-1264h23 17-17z"/><path d="m319-1248v-16z"/><path d="m336-1264v16z"/><path d="m319-1248h-16v-16h16z"/><path d="m263-1264v16h23v-16z"/><path d="m286-1248h-23-11 51z"/><path d="m263-1248v-16z"/><path d="m286-1248h17z"/><path d="m286-1264v16h17v-16z"/><path d="m252-1248h11z"/><path d="m22-1264v16z"/><path d="m106-1264v16z"/><path d="m162-1248v-16h-17-39v16z"/><path d="m78-1248v-16h-56v16z"/><path d="m423-1264h-39z"/><path d="m344-1264h40z"/><path d="m344-1248v-16z"/><path d="m423-1248h3.0674 5.9326z"/><path d="m344-1248h40 1.5531-1.5531z"/><path d="m423-1264v16z"/><path d="m344-1264v16h40v-16z"/><path d="m656-720h-144z"/><path d="m476-720h-124-32-68 4 16z"/><path d="m352-720h124 4z"/><path d="m252-720h68z"/><path d="m128-720h16 16 92z"/><path d="m128-720h-32z"/><path d="m-32-720h128z"/><path d="m-112-720h48z"/><path d="m-67-1264h-45z"/><path d="m-6-1264h-44z"/><path d="m190-1264h62-17z"/><path d="m336-1264h-17-16z"/><path d="m344-1264h79-39z"/><path d="m432-1264h16z"/><path d="m485-1264h27z"/><path d="m112-1264h-17-17-67-17-44-17-45z"/><path d="m336-1264h-33-51-62-11-17-50 16 124z"/><path d="m162-1264v16z"/><path d="m432-1248v-16z"/><path d="m448-1248v-16h37v16z"/><path d="m448-1248v-16z"/><path d="m485-1248h17.6538-17.6538-37z"/><path d="m179-1248v-16h11v16z"/><path d="m252-1248v-16h51v16z"/><path d="m336-1248v-16h8v16z"/><path d="m432-1264v16h-5.9326-3.0674v-16z"/><path d="m423-1248h3.0674-3.0674-37.4469-1.5531z"/><path d="m344-1248v-16h40v16z"/><path d="m423-1264v16h-39v-16z"/><path d="m336-1248h8z"/><path d="m190-1248v-16z"/><path d="m179-1248h11z"/><path d="m78-1264v16h-56-11v-16z"/><path d="m112-1264h50v16h-56-11v-16z"/><path d="m162-1248h-56z"/><path d="m95-1248h11z"/><path d="m78-1264v16z"/><path d="m78-1248h-56z"/><path d="m-50-1248v-16z"/><path d="m11-1248h11z"/><path d="m-67-1264v16z"/><path d="m-67-1248h-35-10z"/><path d="m-32-896h-32v16 160h32z"/><path d="m128-896h-32v176h32z"/><path d="m352-896h-32v176h32z"/><path d="m512-880v-16h-32v176h32z"/><path d="m512-880v160z"/><path d="m96-896v16 160z"/><path d="m-64-880v160z"/><path d="m-32-48v208 16z"/><path d="m448-80v-16 48z"/><path d="m128 176h-32z"/><path d="m192 176h96-96-64z"/><path d="m320 176h-32z"/><path d="m96-96h32z"/><path d="m288-96h32z"/><path d="m192-80h-208-16v-16h128 32 64z"/><path d="m416-80h-208-16v-16h96 32 96z"/><path d="m448-96v16h-16-16v-16z"/><path d="m432 144v-224h16v32 192z"/><path d="m448 176h-16v-16-16h16z"/><path d="m192 176h-64-32-128v-16h16 208z"/><path d="m208 160h224v16h-112-32-96v-16z"/><path d="m-32-48v-32h16v240h-16z"/><path d="m-16-80v208 32z"/><path d="m208 160h-16-208 208z"/><path d="m416-80h16-224z"/><path d="m-160-720h-224z"/><path d="m-384-1264h128z"/><path d="m96-2128h128-64z"/><path d="m256-2128h-32z"/><path d="m256-2128h96z"/><path d="m352-1712v192z"/><path d="m-64-1952v-176 96z"/><path d="m-64-1744v-176 112z"/><path d="m256-1520v-32h-32v32z"/><path d="m-384-720v-32z"/><path d="m-384-1264v32 32z"/><path d="m816-880-80 80-80 80 96-96 48-48 32-32z"/><path d="m800.9697-1119.0303-112.9697-112.9697z"/><path d="m320-752v32-176z"/><path d="m512-880v-16z"/><path d="m576-880h-64z"/><path d="m800-1118-224 238h160 64z"/><path d="m832-1088-31.0303-31.0303-.9697 1.0303v238h16l16-16z"/><path d="m800-1118 .9697-1.0303-.9697 1.0303-224 238z"/><path d="m736-880h-160-64v160h144l80-80z"/><path d="m816-880h-16-64v80z"/><path d="m352-896h-32z"/><path d="m480-880h-128v160h128z"/><path d="m352-880h128z"/><path d="m352-880v-16 176z"/><path d="m480-880v160-176z"/><path d="m-32-880v-16 176z"/><path d="m288-976h-128z"/><path d="m96-880h-128v160h128z"/><path d="m320-752v-144-48l-32-32h-128l-32 32v48 144z"/><path d="m252-720h68v-32h-192v32z"/><path d="m128-896v-48z"/><path d="m-32-880h128z"/><path d="m128-752v-144 176z"/><path d="m96-896h32z"/><path d="m-64-880h-48-16z"/><path d="m-32-896h-32z"/><path d="m-338.8236-1104-45.1764-48v176 48h210.8235z"/><path d="m-384-928v48h224v-34l-13.1765-14z"/><path d="m-160-880h32l-32-34z"/><path d="m-338.8236-1104 165.6471 176 13.1765 14 32 34-45.1765-48-165.647-176z"/><path d="m-160-880h-224v128 32h224z"/><path d="m-112-720h48v-160h-64-32v160z"/><path d="m656-720h-96z"/><path d="m96-1520h128z"/><path d="m256-1520h96z"/><path d="m256-1952v-144h-32v144z"/><path d="m256-1744v-176h-32v176z"/><path d="m192-1952h-96-32-96v32h96 32 96z"/><path d="m224-1920h32 64v-32h-64-32-32v32z"/><path d="m192-1744h-96-32-96v32h96 32 96z"/><path d="m224-1712h32 64v-32h-64-32-32v32z"/><path d="m256-1552v-160h-32v160z"/><path d="m64-2096v144h32v-144z"/><path d="m64-1920v176h32v-176z"/><path d="m64-1712v160h32v-160z"/><path d="m96-1744h96 32-64z"/><path d="m256-1744h64 32z"/><path d="m96-1920v176z"/><path d="m256-1952h64 32z"/><path d="m96-1952h96 32-64z"/><path d="m224-1952v-144-32z"/><path d="m224-1744v-176z"/><path d="m224-1920h-32-96 64z"/><path d="m64-1952v-144-32z"/><path d="m64-1920h-96-32z"/><path d="m64-1744v-176z"/><path d="m96-1712v160 32z"/><path d="m256-1712v160 32z"/><path d="m224-1712h-32-96 64z"/><path d="m64-1712h-96-32z"/><path d="m320-1744h32z"/><path d="m-64-1744h32z"/><path d="m96-2128v32z"/><path d="m352-1920h-32z"/><path d="m224-2096v-32z"/><path d="m320-1952h32z"/><path d="m256-2128v32z"/><path d="m256-2096v-32h-32v32z"/><path d="m320-1920h32v-32h-32z"/><path d="m-32-1920h-32z"/><path d="m-64-1952h32z"/><path d="m64-2096v-32z"/><path d="m96-2096v-32h-32v32z"/><path d="m-32-1952h-32v32h32z"/><path d="m96-1552v32z"/><path d="m224-1520v-32z"/><path d="m352-1712h-32z"/><path d="m320-1712h32v-32h-32z"/><path d="m256-1552v32z"/><path d="m-32-1712h-32z"/><path d="m-32-1744h-32v32h32z"/><path d="m64-1520v-32z"/><path d="m64-1552v32h32v-32z"/><path d="m-384-944v16 48 160z"/><path d="m-384-1168v16 208z"/><path d="m-384-1168v-96 64 48z"/><path d="m832-1088v192z"/><path d="m736-800 80-80 16-16-176 176z"/><path d="m320-944v48z"/><path d="m800-880h-64-160l224-238z"/><path d="m800.9697-1119.0303 31.0303 31.0303v192l-16 16h-16v-238z"/><path d="m736-800-80 80h-96-48v-160h64 160z"/><path d="m800-880h16l-80 80v-80z"/><path d="m352-880v-16z"/><path d="m512-720h-176-16v-160h32 128 32z"/><path d="m288-976 32 32z"/><path d="m-32-880v-16z"/><path d="m128-896v16z"/><path d="m320-720h-64v-48-64-48h64z"/><path d="m288-976 32 32v48 16h-64-64-64v-16-48l32-32z"/><path d="m192-768h64v48h-128v-48z"/><path d="m256-880v48h-64v-48z"/><path d="m192-880v48 64h-64v-112z"/><path d="m256-832h-64z"/><path d="m128-944 32-32z"/><path d="m128-896h-32z"/><path d="m128-768h-160v-112h128 32z"/><path d="m128-720h-16-144v-48h160z"/><path d="m-384-944v-208l45.1765 48 165.647 176h-210.8235z"/><path d="m-173.1765-928 13.1765 14v34h-224v-48z"/><path d="m-160-914 32 34h-32z"/><path d="m-384-1152 45.1764 48h.0001z"/><path d="m-384-880h224v160h-224z"/><path d="m-160-880h32 16v112 48h-48z"/><path d="m-32-768h-80v-112h48 32z"/><path d="m-32-720h-80v-48h80z"/><path d="m256-832v64h-64v-64z"/><path d="m192-768v-64z"/><path d="m256-832v64z"/><path d="m256-768h-64z"/><path d="m-64-2128h128z"/><path d="m352-2128v176-16z"/><path d="m-64-1520v-192 128z"/><path d="m256-2128v176h-32v-176z"/><path d="m160-1920h-64-32-128v-32h128 32 64z"/><path d="m224-1952h32 96v32h-96-32-64v-32z"/><path d="m256-1920v176h-32v-176z"/><path d="m160-1712h-64-32-128v-32h128 32 64z"/><path d="m224-1744h32 96v32h-96-32-64v-32z"/><path d="m256-1712v192h-32v-192z"/><path d="m64-1952v-176h32v176z"/><path d="m64-1744v-176h32v176z"/><path d="m96-1520h-32v-192h32z"/><path d="m-64-1744h32 96z"/><path d="m96-2128v32 144z"/><path d="m256-2128v32 144z"/><path d="m352-1920h-32-64z"/><path d="m256-1920v176z"/><path d="m-64-1952h32 96z"/><path d="m224-1520v-32-160z"/><path d="m352-1712h-32-64z"/><path d="m64-1520v-32-160z"/><path d="m96 176h-128z"/><path d="m320-96h128-32z"/><path d="m288-96v32z"/><path d="m320-96h-32v32h32z"/><path d="m288-64v16 192h32v-192-16z"/><path d="m96-64v16 192h32v-192-16z"/><path d="m288-64v-32 48z"/><path d="m320-48v192 32-48z"/><path d="m128-48v192 32-48z"/><path d="m96-64v-32 48z"/><path d="m128-96v32z"/><path d="m128 144v32z"/><path d="m288 176v-32z"/><path d="m320-96v32z"/><path d="m320 144v32z"/><path d="m288 144v32h32v-32z"/><path d="m96-64v-32z"/><path d="m96 176v-32z"/><path d="m96 144v32h32v-32z"/><path d="m128-64v-32h-32v32z"/><path d="m448 176h-32z"/><path d="m448 176h-32-96 112z"/><path d="m288-96h-96-64z"/><path d="m320-96h-32-160-32z"/><path d="m288-48v176 48-32z"/><path d="m320-96v32 16z"/><path d="m288-48v-48h32v48 176h-32z"/><path d="m320 128v48h-32v-48z"/><path d="m128-96v32 16z"/><path d="m96-48v176 48-32z"/><path d="m96-48v-48h32v48 176h-32z"/><path d="m128 128v48h-32v-48z"/><path d="m560-720h96-144z"/><path d="m112-720h-16-128-32-48 80z"/><path d="m336-720h-16-192-16 16 128 64z"/><path d="m560-720h-48-32-128-16 176z"/><path d="m352-720h128z"/><path d="m320-720h-68-124z"/><path d="m-32-720h128z"/><path d="m-112-720h48z"/><path d="m-112-720h-48z"/><path d="m320-880v160z"/><path d="m320-880v-16z"/><path d="m512-880h-32z"/><path d="m352-880h-32z"/><path d="m512-880h-32v160h32z"/><path d="m352-880h-32v160h16 16z"/><path d="m128-880h-32z"/><path d="m96-880v160z"/><path d="m128-880h-32v160h16 16z"/><path d="m-32-880h-32z"/><path d="m-64-896v16z"/><path d="m-64-896v16z"/><path d="m-32-880h-32v160h32z"/><path d="m-64-880v-16h32v16 160h-32z"/><path d="m96-880v-16h32v176h-32z"/><path d="m320-880v-16h32v16 160h-32z"/><path d="m480-880v-16h32v16 160h-32z"/><path d="m832-896v176h-176z"/><path d="m832-1264v176l-144-144-32-32z"/><path d="m-160-720h-224z"/><path d="m-256-1264h144z"/><path d="m512-1264h-27-37-16-9-79-8z"/><path d="m656-1264h-144z"/><path d="m-384-1264v96z"/><path d="m656-1264 32 32z"/><path d="m832-1088-31.0303-31.0303-112.9697-112.9697z"/><path d="m512-880v160z"/><path d="m512-896h-32z"/><path d="m480-896v16z"/><path d="m352-880v160z"/><path d="m480-720v-160z"/><path d="m-32-880v160z"/><path d="m128-896v16 160z"/><path d="m96-896v16z"/><path d="m-64-880v160z"/><path d="m-32-96v16 32z"/><path d="m448-48v224-32z"/><path d="m192 176h-224 128 32z"/><path d="m416 176h-224 96 32z"/><path d="m-32-96h128z"/><path d="m448-96h-128z"/></g></defs><path d="m-1620-2996h3720v3704h-3720z" fill="#fff"/><g stroke="#000"><use fill="none" stroke-miterlimit="0" stroke-width="15" xlink:href="#a"/><use fill="#fff" xlink:href="#a"/></g></svg>