<svg viewBox="-630 -630 1260 1260" xmlns="http://www.w3.org/2000/svg" xmlns:xlink="http://www.w3.org/1999/xlink"><defs><g id="a"><path d="m327 327 57-23 57 23 23 57-23 57-57 23-57-23-23-57z"/><path d="m464 384-23-57z"/><path d="m441 441 23-57z"/><path d="m384 464 57-23z"/><path d="m441 327-57-23z"/><path d="m327 441 57 23z"/><path d="m327 441-23-57z"/><path d="m327 441 57 23 57-23 23-57-23-57-57-23-57 23-23 57z"/><path d="m327 327 57-23 57 23 23 57-23 57-57 23-57-23-23-57z"/><path d="m384 304-57 23z"/><path d="m464 384-23-57z"/><path d="m441 327-57-23z"/><path d="m327 441-7-17.3479-16-39.6521z"/><path d="m384 304-57 23z"/><path d="m327 327-23 57z"/><path d="m400 56h-80v16h80z"/><path d="m320 56h-80v16h80z"/><path d="m8 240h-16v80h16z"/><path d="m8 320h-16v80h16z"/><path d="m-478-528h-4v64h4z"/><path d="m96 480v128h-192v-32-64-32z"/><path d="m-128 512h32v64h-32-32v-64z"/><path d="m-160 576v-64z"/><path d="m96 608h-192z"/><path d="m-96 512v-32z"/><path d="m-96 576h-32z"/><path d="m-128 512h-32z"/><path d="m-288 630h128 32-54-170z"/><path d="m384 630h-32-96z"/><path d="m128-128h128z"/><path d="m448-616v40z"/><path d="m-352-616h-32-80-32-80z"/><path d="m-128-616h-32-192z"/><path d="m96-616h-32-192z"/><path d="m320-616h-32-192z"/><path d="m-384-352v184 40z"/><path d="m-384-392v-56-168h32 192v224z"/><path d="m-384-168v-184-32-8h224v224z"/><path d="m-160-128h-192-32v-40h224z"/><path d="m-160-392v-224h32 192v224z"/><path d="m-160-168v-224h224v224z"/><path d="m64-128h-96-96-32v-40h224z"/><path d="m64-392v-224h32 192v224z"/><path d="m64-168v-224h224v224z"/><path d="m288-128h-32-128-64v-40h224z"/><path d="m320-616h128v40 184h-160v-224z"/><path d="m448-392v40 184h-160v-224z"/><path d="m448-168v40h-160v-40z"/><path d="m-464-544v-72h80v168h-80z"/><path d="m-496-544v-72h32v72z"/><path d="m-464-448h80v56 8h-112v-64z"/><path d="m-576-616h80v72 16 80 64h-80z"/><path d="m256-128v128z"/><path d="m256 128v-56z"/><path d="m256 416v-32z"/><path d="m480 0h-96-64-64v-128h32 160 16 16z"/><path d="m512-128v128h-32v-128z"/><path d="m480 512h32-128-32-32z"/><path d="m320 512h-32-32z"/><path d="m256 128v-56-16-56h64v27.1304 196.8696h-64z"/><path d="m320 224v32h-64v-32z"/><path d="m384 0v56 16 56 57.7392l-64-158.6088v-27.1304z"/><path d="m512 128v128h-99.6491l-28.3509-70.2608v-57.7392z"/><path d="m320 256v-32-196.8696l64 158.6088 28.3509 70.2608z"/><path d="m384 0v56z"/><path d="m512 256v32z"/><path d="m320 288h105.2632 54.7368-135.6523-1.6109-54.7368z"/><path d="m425.2632 288h-105.2632v-32h92.3509z"/><path d="m512 256v32h-32-54.7368l-12.9123-32z"/><path d="m320 256v32h-32-32v-21.6774-10.3226z"/><path d="m480 480v-56.3475-80.9157-54.7368z"/><path d="m480 480v-192h32v192z"/><path d="m288 288v56.3474 135.6526z"/><path d="m288 288v192h-32v-32-32-32-96z"/><path d="m480 512h-160-64v-32h32 192z"/><path d="m512 480v32h-32v-32z"/><path d="m320 624h32 32z"/><path d="m320 624h64v6h-128v-6z"/><path d="m-576 406v106 118-86z"/><path d="m-576 182v42 160 22-86z"/><path d="m-576-42v42 182-86z"/><path d="m128 128v128z"/><path d="m256 384h-128z"/><path d="m128 266.3226h128v21.6774 96h-128z"/><path d="m256 224v32 10.3226h-128v-10.3226-128h128z"/><path d="m-128 576v54z"/><path d="m-128 0v-128 96 64z"/><path d="m96 608h-192z"/><path d="m-128 256h120z"/><path d="m-8 384h-120z"/><path d="m-8 256h16 120v10.3226h-136z"/><path d="m-8 266.3226h136v117.6774h-120-16z"/><path d="m-8 256v10.3226 117.6774h-120v-128z"/><path d="m-96 512v-32z"/><path d="m-96 576v32z"/><path d="m-96 512h-32z"/><path d="m-128 512h32z"/><path d="m-96 576h-32z"/><path d="m-128-128v128h-32v-128z"/><path d="m-160 134.1936h32v121.8064h-32z"/><path d="m-128 0v32 102.1936h-32v-134.1936z"/><path d="m-128 256v128 96h-32v-96-128z"/><path d="m-128 480v32h-32v-32z"/><path d="m-160 630v-22-32h32v54z"/><path d="m-128 576h-32z"/><path d="m-416 384h-128z"/><path d="m-166.1935 384h-121.8065z"/><path d="m-352 0h-64-128-32v-42-86h192 32z"/><path d="m-160 0h-32-160v-128h192z"/><path d="m-288 134.1935 96 .0001h32v121.8064h-6.1935-121.8065z"/><path d="m-192 134.1936-96-.0001h-128v-134.1935h64 160z"/><path d="m-160 134.1936h-32v-134.1936h32z"/><path d="m-544 0h128v134.1935 89.8065h-128z"/><path d="m-416 224v32h-128v-32z"/><path d="m-576 182v-182h32v224h-32z"/><path d="m-544 224v32 128h-32v-160z"/><path d="m-166.1935 384v-128h6.1935v128z"/><path d="m-288 256h121.8065z"/><path d="m-288 134.1935v121.8065z"/><path d="m-288 134.1935v121.8065h-128v-121.8065z"/><path d="m-544 384v-128h128v128z"/><path d="m-166.1935 384h-121.8065v-128h121.8065z"/><path d="m-288 384v121.8065z"/><path d="m-288 608v-96-6.1935-121.8065h121.8065 6.1935v96 32 64 32z"/><path d="m-288 630v-22h128v22z"/><path d="m-576 630v-118h160 64v118z"/><path d="m-352 512h64v96 22h-64z"/><path d="m-544 384h128v121.8065 6.1935h-160v-106-22z"/><path d="m-288 505.8065v6.1935h-64-64v-6.1935z"/><path d="m-416 505.8065v-121.8065z"/><path d="m-288 505.8065h-128v-121.8065h128z"/><path d="m288 344.3474 16 39.6526 16 39.6521v14.5233 41.8246h-32z"/><path d="m342.7368 288-15.7368 39-23 57-16-39.6526v-56.3474z"/><path d="m320 438.1754 7 2.8246 57 23-39.6519 16h-24.3481z"/><path d="m425.2631 480 15.7369-39 23-57 16 39.6525v56.3475z"/><path d="m480 342.7368-39-15.7368-57-23-39.6523-16h135.6523z"/><path d="m480 423.6525-16-39.6525-23-57 39 15.7368z"/><path d="m344.3481 480 96.6519-39-15.7369 39z"/><path d="m320 423.6521 7 17.3479-7-2.8246z"/><path d="m384 304-57 23 15.7368-39h1.6109z"/><path d="m320 480h24.3481 80.915 54.7369-192z"/><path d="m327 327-23 57z"/><path d="m464 384-23 57z"/><path d="m441 441-57 23z"/><path d="m384 464-57-23z"/><path d="m-496-464v16-80z"/><path d="m-496-528v-16z"/><path d="m-464-464v-64-16 96z"/><path d="m-478-464v-64h14v64z"/><path d="m-482-464v-64h4v64z"/><path d="m-496-464v-64h14v64z"/><path d="m-496-528h14z"/><path d="m-482-528h4z"/><path d="m-464-464h-14z"/><path d="m-478-464h-4z"/><path d="m256 416v32z"/><path d="m256 384v32h-128v-32z"/><path d="m128 384h-32-88z"/><path d="m128 384v32z"/><path d="m128 416h128z"/><path d="m256 448h-128v-32h128z"/><path d="m256 480v32z"/><path d="m256 480v-32z"/><path d="m128 384v32 32z"/><path d="m128 448h128z"/><path d="m256 480h-128v-32h128z"/><path d="m-288 384h-128v-128h128z"/><path d="m-416 256h-128z"/><path d="m-416 256v-32-89.8065z"/><path d="m384 630h-32z"/><path d="m256 630v-6z"/><path d="m288 624h32-64z"/><path d="m288 512v112h-32v-112z"/><path d="m128 406v-22 64 32z"/><path d="m128 406v74 150-66-40z"/><path d="m128 480h128v32 112 6h-128z"/><path d="m128 480h128z"/><path d="m-128 406v106-32-96z"/><path d="m-128 384v22z"/><path d="m96 608h-104-56-32z"/><path d="m-96 576v-64h-32v64z"/><path d="m96 608v-56 24z"/><path d="m-96 576v32z"/><path d="m96 552v56-128z"/><path d="m-128-128h96z"/><path d="m128-128h-96-64 96z"/><path d="m256-128h-128z"/><path d="m256 0v-128z"/><path d="m256 0v56z"/><path d="m128 256v-128z"/><path d="m256 128h-128z"/><path d="m320 512h-32z"/><path d="m288 624h32z"/><path d="m288 624v-112z"/><path d="m320 624h-32v-112h32z"/><path d="m512 512h-128z"/><path d="m384 512h-32z"/><path d="m384 624v6z"/><path d="m352 624h32z"/><path d="m320 624v-112z"/><path d="m352 624h-32v-112h32z"/><path d="m-496-448v-16z"/><path d="m-496-464v-64-16 96z"/><path d="m-464-448h-32z"/><path d="m-464-464v16z"/><path d="m-464-528v64 16z"/><path d="m-464-528v-16z"/><path d="m-496-544h32z"/><path d="m-478-528v64h14v-64z"/><path d="m-496-528v64h14v-64z"/><path d="m-482-528v64h4v-64z"/><path d="m-464-528h-14z"/><path d="m-496-464h14z"/><path d="m-482-528v64z"/><path d="m-482-464v-64z"/><path d="m-478-464v-64z"/><path d="m-478-528v64z"/><path d="m384 624h-32v-112h32z"/><path d="m352 624v-112z"/><path d="m-478-464h-4v-64h4z"/><path d="m-478-464h-4z"/><path d="m-482-528h4z"/><path d="m-478-528v64z"/><path d="m-482-464v-64z"/><path d="m630 630h-22z"/><path d="m630 256v32 118z"/><path d="m-464-528v80h-32v-96h32z"/><path d="m256 56v16z"/><path d="m256 0h128z"/><path d="m384 0h96 32z"/><path d="m630 256h-118 48 32z"/><path d="m384 72v-16z"/><path d="m384 128v-56z"/><path d="m384 128v-56-16-56h-128v56 16 56z"/><path d="m512 288v192 32-32z"/><path d="m512 288v-32h118v150 74h-118z"/><path d="m630 480v32h-22-96v-32z"/><path d="m384 630v-6-112z"/><path d="m608 630h-224v-118h128 96z"/><path d="m630 512v118h-22v-118z"/><path d="m96 256h-88-16-120v128h120 16 88z"/><path d="m128 384v-128h-32v128z"/><path d="m8 256h88 32z"/><path d="m8 256h-16z"/><path d="m8 384h-16z"/><path d="m400 72h-80v-16h80z"/><path d="m400 56v16z"/><path d="m320 72v-16z"/><path d="m400 72h-80z"/><path d="m320 56h80z"/><path d="m320 72h-80v-16h80z"/><path d="m240 72v-16z"/><path d="m320 56v16z"/><path d="m320 72h-80z"/><path d="m240 56h80z"/><path d="m8 320h-16v-80h16z"/><path d="m-8 240h16z"/><path d="m8 320h-16z"/><path d="m8 240v80z"/><path d="m-8 320v-80z"/><path d="m8 400h-16v-80h16z"/><path d="m8 400h-16z"/><path d="m-8 320h16z"/><path d="m8 320v80z"/><path d="m-8 400v-80z"/><path d="m-64 480h56 16 56 32-192z"/><path d="m8 536v-56h-16v72h16z"/><path d="m96 536h-88v16h88z"/><path d="m96 480v56 16z"/><path d="m8 480h56z"/><path d="m64 480h32z"/><path d="m-8 480h-56z"/><path d="m-8 552v-72z"/><path d="m8 536v16h-16v-72h16z"/><path d="m96 552h-88v-16h88z"/><path d="m96 552v-16-24h16v64h-16z"/><path d="m112 512v12 40 12z"/><path d="m8 552h88-88-16z"/><path d="m96 480v32 24z"/><path d="m8 480v56z"/><path d="m8 536h88z"/><path d="m128 564v66z"/><path d="m128 384v22z"/><path d="m112 576h-16z"/><path d="m112 564v-40h16v40z"/><path d="m112 564h16z"/><path d="m128 524h-16z"/><path d="m112 524v-12z"/><path d="m112 576v-12z"/><path d="m512-128h-64v128h64z"/></g><g id="b"><path d="m-352 630h-54-170z"/><path d="m-128 630h-54z"/><path d="m-406-630h-170-54 54z"/><path d="m-182-630h-170-54 22z"/><path d="m42-630h-170-54 22z"/><path d="m266-630h-170-54 22z"/><path d="m630 0v-128 128 24z"/><path d="m-630 406v138 86-86z"/><path d="m-630 182v138 86-86z"/><path d="m-630-42v138 86-86z"/><path d="m-630-266v106 32 86-86-32z"/><path d="m-630-490v84 54 86-86-54z"/><path d="m-520-128h136-192z"/><path d="m-32-128h-96z"/><path d="m464-128h48-32z"/><path d="m630-128h-118-48 16z"/><path d="m464-128h-16z"/><path d="m464-616v-14 54z"/><path d="m-472-144h-48v-16h48z"/><path d="m-630-160h54v32h-54z"/><path d="m-400-280v48h-16v-48z"/><path d="m-472-160h-48-56-54v-106-86h54 56 48 56v72 48 72z"/><path d="m-520-352v-16h48v16z"/><path d="m-630-490v-140h54v14 210h-54z"/><path d="m-576-406v22 32h-54v-54z"/><path d="m448-392v-184-40h16v40 184z"/><path d="m448-168v-184-40h16v40 184z"/><path d="m464-128h-16v-40h16z"/><path d="m-352-616h-224v-14h170 54z"/><path d="m-128-616h-224v-14h170 54z"/><path d="m96-616h-224v-14h170 54z"/><path d="m320-616h-224v-14h170 54z"/><path d="m464-630v14h-16-128v-14z"/><path d="m-384-352v224-104-48z"/><path d="m-576-384h56z"/><path d="m-576-128v-32z"/><path d="m-416-352h-56z"/><path d="m-520-352v-16z"/><path d="m-400-232h-16z"/><path d="m-472-160v16z"/><path d="m448-352v184 40-40z"/><path d="m448-576v184 40-40z"/><path d="m-576-384v-22-210z"/><path d="m448-616h-128z"/><path d="m-384-384v32z"/><path d="m-384-384h-32-56-48-56 80z"/><path d="m512 0h-32-96z"/><path d="m512-128v128z"/><path d="m630 0h-110-8v-128h118z"/><path d="m630 256h-38z"/><path d="m520 128v40z"/><path d="m520 248h40z"/><path d="m520 224v-24-32-40-8-120h110v24 200z"/><path d="m630 248h-70-40v-24h110z"/><path d="m512 8v112h-43-77v-112z"/><path d="m512 8v-8h8v120h-8z"/><path d="m469 128h-85 51z"/><path d="m512 128v40 32z"/><path d="m512 128v72 56z"/><path d="m469 128h43-128z"/><path d="m-576-128v86z"/><path d="m-128 256v64 64z"/><path d="m-128 32v224-121.8064z"/><path d="m-96-96v64z"/><path d="m-32-128h64v32h-64z"/><path d="m-32-128v32z"/><path d="m96-96v192z"/><path d="m-96 32v-64-64h64 64 64v192h-32-128-32z"/><path d="m-128-32h32v64h-32z"/><path d="m-128 32h32z"/><path d="m-8 480h72-56z"/><path d="m64 98v-2z"/><path d="m64 98v156z"/><path d="m-64 254v66 158-190z"/><path d="m-64 478v2z"/><path d="m64 96v2 156 66h-128v-66-156-2z"/><path d="m64 320v158h-128v-158z"/><path d="m64 478v2h-72-56v-2z"/><path d="m-576-128v86 138h-54v-138-86z"/><path d="m-576 96v86 138h-54v-138-86z"/><path d="m-576 320v86 138h-54v-138-86z"/><path d="m-576 544v86h-54v-86z"/><path d="m448-128h64z"/><path d="m512 0h-64z"/><path d="m512-128v128z"/><path d="m448 0v-128z"/><path d="m512 0h-64v-128h64z"/><path d="m-520-128h48 88z"/><path d="m-384-128v-104z"/><path d="m-384-384v32z"/><path d="m-472-384h56z"/><path d="m-520-384h48z"/><path d="m-520-352h-56z"/><path d="m-472-368h-48v-16h48z"/><path d="m-472-352v-16-16z"/><path d="m-520-384v16 16z"/><path d="m-472-368v16z"/><path d="m-472-368h-48z"/><path d="m-520-160h-56z"/><path d="m-416-232v72z"/><path d="m-400-232v-48h16v48z"/><path d="m-416-232h16 16z"/><path d="m-384-280h-16-16z"/><path d="m-400-280h-16z"/><path d="m-400-280v48z"/><path d="m-520-128v-16h48v16z"/><path d="m-520-160v16 16z"/><path d="m-472-128v-16-16z"/><path d="m-520-144v-16z"/><path d="m-520-144h48z"/><path d="m560 256h32z"/><path d="m520 200v-32z"/><path d="m630 248h-38-32z"/><path d="m592 256h-32v-8h32z"/><path d="m560 248v8z"/><path d="m592 256v-8z"/><path d="m435 128h-51z"/><path d="m435 120h-43 77z"/><path d="m392 120h43z"/><path d="m469 128h-34v-8h34z"/><path d="m435 120v8z"/><path d="m469 128v-8z"/><path d="m512 200h8z"/><path d="m512 200v-32h8v32z"/><path d="m520 168h-8z"/><path d="m512 200v56z"/><path d="m128 480v-96 22 118z"/><path d="m128 384v96z"/><path d="m112 524v40h16v-40z"/><path d="m112 564v-40-12z"/><path d="m96 576v32z"/><path d="m96 480v32z"/><path d="m96 576v-64-32 84 44z"/><path d="m112 564v-52h-16v64h16z"/><path d="m96 512h16z"/><path d="m-520-128h-56z"/><path d="m-384-128h-88z"/><path d="m-384-352v72 48 104-54z"/><path d="m-384-352v-32 32 72z"/><path d="m-416-384h32z"/><path d="m-576-352v-32z"/><path d="m-472-384h-48v32h48z"/><path d="m-416-160h-56z"/><path d="m-416-352v72z"/><path d="m-416-280v48h32v-48z"/><path d="m-472-160h-48v32h48z"/><path d="m630 256h-38-32z"/><path d="m520 200v24 24-24z"/><path d="m520 128v-8z"/><path d="m560 248h32 38z"/><path d="m592 248h38z"/><path d="m592 248h-32v8h32z"/><path d="m512 128h-43z"/><path d="m469 128h-34-51z"/><path d="m469 120h43 8-8z"/><path d="m469 120h-34v8h34z"/><path d="m512 168v-40z"/><path d="m512 200v-32-40z"/><path d="m512 168v32h8v-32z"/><path d="m-32-128h64 96-64z"/><path d="m32-128h96z"/><path d="m128 480v44 40 66-54z"/><path d="m128 256v128z"/><path d="m-128 32v64 160z"/><path d="m-128-32v-96z"/><path d="m-128-32v-96 160z"/><path d="m64 0v-96h-32v96z"/><path d="m96-96h-32v96 64 32h32z"/><path d="m-32-96v96h64v-96-32h-64z"/><path d="m-96-96v64 32h32 32v-96z"/><path d="m-96 0v-32h-32v64h32z"/><path d="m64 64v-64h-32-64-32v64z"/><path d="m64 288v-34-156-2-32h-128v32 2 156 34z"/><path d="m-8 512h72v-32-2-190h-128v190 2 32z"/><path d="m96 564v-84h-32v32 52z"/><path d="m64 564v-52h-72v52z"/><path d="m96 608v-44h-32-72v44z"/><path d="m-96 0v32 64h32v-32-64z"/><path d="m-64 608h56v-44-52h-56z"/><path d="m-96 480v128h32v-96-32z"/><path d="m64 96h32z"/><path d="m-96 96h32z"/><path d="m-96 32v64z"/><path d="m-32-96h-64z"/><path d="m64-96h32-64z"/><path d="m32-96v-32z"/><path d="m-96-32h-32z"/><path d="m-96 480h32z"/><path d="m64 254v34 190-158z"/><path d="m64 480v-2z"/><path d="m-64 96v2z"/><path d="m-64 98v156z"/><path d="m-96 608v-128 32 64z"/></g><g id="c"><path d="m-406 630h-224 54z"/><path d="m-182 630h-224 54z"/><path d="m352 630h-32-192 128z"/><path d="m608 630h-64-160z"/><path d="m288-630h176-144-54z"/><path d="m630 406v106 118-118-32z"/><path d="m630 24v200 24-24z"/><path d="m-630-630v140z"/><path d="m320 288v-160h-64-128v128 96h192z"/><path d="m128 352v128 96h192v-64-160z"/><path d="m128 576v54h192v-54z"/><path d="m544 288h-32-192v64 160h224z"/><path d="m320 512v64 54h32 32 160v-118z"/><path d="m630 406v-118h-86v224h86z"/><path d="m544 512v118h64 22v-118z"/><path d="m512 288v-32-56-72h-43-85-64v160z"/><path d="m544 288h86v-32h-70-48v32z"/><path d="m469 120h43v-112h-120v112z"/><path d="m512 0v8 112h8v-120z"/><path d="m630 24v-24h-110v120 8 72 24h110z"/><path d="m520 224v24h40 70v-24z"/><path d="m-630-160v32h54v-32z"/><path d="m-576-352h-54v86 106h54 160v-192z"/><path d="m-406-128h-114-56-54v86 138h224z"/><path d="m-630 96v86 138h224v-224z"/><path d="m-630 320v86 138h224v-224z"/><path d="m-630 544v86h224v-86z"/><path d="m-182-128h-202-22v224h224z"/><path d="m-406 96v224h224v-224z"/><path d="m-406 320v224h224v-224z"/><path d="m-406 544v86h224v-86z"/><path d="m-128 32v-160h-32-22v224h54z"/><path d="m-182 96v224h54v-64-160z"/><path d="m-182 320v224h54v-138-22-64z"/><path d="m-182 544v86h54v-86z"/><path d="m-576-630h-54v140 84h54z"/><path d="m-630-406v54h54v-32-22z"/><path d="m-384-630h-22-170v224h192z"/><path d="m-576-406v22h160 32v-22z"/><path d="m480-128h-16-176-32v128h128 96z"/><path d="m512 0h8 110v-128h-150v128z"/><path d="m-160-630h-22-202v224h224z"/><path d="m-384-406v22 32 170h224v-224z"/><path d="m-384-182v54h202 22v-54z"/><path d="m64-630h-22-202v224h224z"/><path d="m-160-406v224h224v-224z"/><path d="m-160-182v54h32 96 96v-54z"/><path d="m288-630h-22-202v224h224z"/><path d="m64-406v224h224v-224z"/><path d="m64-182v54h64 128 32v-54z"/><path d="m464-406v-170-54h-176v224z"/><path d="m464-182v-170-54h-176v224z"/><path d="m464-128v-54h-176v54z"/><path d="m-520-128h114 22-88z"/><path d="m464-352v170 54-40z"/><path d="m464-576v170 54-40z"/><path d="m-384-384v32z"/><path d="m-576-384h56 48 56z"/><path d="m-416-352h-56-48-56z"/><path d="m-576-160h56 48 56z"/><path d="m-416-160v-72-48-72z"/><path d="m560 256h-48z"/><path d="m520 128v40 32z"/><path d="m392 120h43 34z"/><path d="m512 0v8z"/><path d="m392 8v112z"/><path d="m512 8h-120z"/><path d="m320 128h64-128z"/><path d="m128 352v-96 128 96z"/><path d="m128 128h128z"/><path d="m-128 406v138 86-54-64z"/></g></defs><g stroke="#000"><use fill="none" stroke-miterlimit="0" stroke-width="10" xlink:href="#a"/><use fill="#ccc" xlink:href="#a"/><use fill="none" stroke-miterlimit="0" stroke-width="10" xlink:href="#b"/><use fill="#e5e5e5" xlink:href="#b"/><use fill="none" stroke-miterlimit="0" stroke-width="10" xlink:href="#c"/><use fill="#fff" xlink:href="#c"/></g></svg>