<svg viewBox="-32 -2080 1952 1952" xmlns="http://www.w3.org/2000/svg" xmlns:xlink="http://www.w3.org/1999/xlink"><defs><g id="a"><path d="m904-1176v72z"/><path d="m584-1176v-16h120 88 16v88h-224z"/><path d="m808-1192h80l16 16v72h-96z"/><path d="m584-1192h16 88 16z"/><path d="m704-1192h72 16z"/><path d="m416-1200v8h-8z"/><path d="m448-1224v48h-32v-16-8l32-32z"/><path d="m472-1176h112v72h-112z"/><path d="m528-1224h-64v-8h64z"/><path d="m464-1224h64 16 8l32 32v16h-112-24v-48z"/><path d="m544-1224v-8l8 8z"/><path d="m448-1176h24-56z"/><path d="m808-1056h-16-88-120v-48h224z"/><path d="m904-1104v32l-16 16h-80v-48z"/><path d="m792-1056h-16-72z"/><path d="m704-1056h-16-88-16z"/><path d="m416-1048 32 32-40-40z"/><path d="m584-1104v48l-32 32h-8-16-56v-40-40z"/><path d="m544-1016v-8h8z"/><path d="m472-1064v40h-8-16v-40z"/><path d="m448-1064v40 8l-32-32v-8-8z"/><path d="m464-1024h8 56v8h-64z"/><path d="m408-1056h8v8z"/><path d="m472-1104v40-32z"/><path d="m416-1176v-16z"/><path d="m472-1176v72z"/><path d="m416-1176h56v72h-64v-72z"/><path d="m408-1104v8 24z"/><path d="m472-1064h-24-32z"/><path d="m416-1096v24h-8v-24z"/><path d="m472-1096v32h-56v-8-24z"/><path d="m472-1104v8h-56-8v-8z"/><path d="m444-1152h-24v48h24z"/><path d="m420-1104v-48 8z"/><path d="m444-1152v48-40z"/><path d="m420-1104v8 8h24v-8-8z"/><path d="m444-1104v8z"/><path d="m420-1088v-8z"/><path d="m444-1088h-24z"/><path d="m416-1064v-8z"/><path d="m408-1072h8z"/><path d="m416-1056v-8z"/><path d="m444-1152h-24z"/><path d="m420-1104v-40h12v40z"/><path d="m436-1104v-40h8v40z"/><path d="m432-1144h4v40h-4z"/><path d="m432-1104v-40z"/><path d="m436-1144h8z"/><path d="m444-1144v-8z"/><path d="m436-1144v40z"/><path d="m420-1144h12z"/><path d="m420-1096v-8z"/><path d="m436-1096h-4z"/><path d="m444-1096h-8z"/><path d="m420-1096v-8h12v8z"/><path d="m436-1096v-8h8v8z"/><path d="m436-1104v8h-4v-8z"/><path d="m432-1104v8z"/><path d="m436-1096v-8z"/><path d="m432-1144v40z"/><path d="m436-1144v40h8v-40z"/><path d="m436-1104v-40h-4v40z"/><path d="m444-1152v8 40z"/><path d="m436-1144h-4z"/><path d="m436-1104v-40z"/><path d="m420-1144v40h12v-40z"/><path d="m420-1104v-40z"/><path d="m444-1096v8z"/><path d="m444-1104v8z"/><path d="m420-1096v-8z"/><path d="m420-1096h12z"/><path d="m432-1096h4v-8h-4z"/><path d="m436-1104v8h8v-8z"/><path d="m420-1104v8h12v-8z"/><path d="m432-1096v-8z"/><path d="m436-1104v8z"/><path d="m420-1144v-8h24v48h-24z"/><path d="m420-1152v8z"/><path d="m444-1104v8 8h-24v-8-8z"/><path d="m408-1192 40-40-32 32z"/><path d="m584-1176v72z"/><path d="m600-1192h-16v16 72h16z"/><path d="m704-1192h-16v88h16z"/><path d="m688-1192v88z"/><path d="m528-1192v-32z"/><path d="m528-1176v72z"/><path d="m544-1232 40 40-32-32z"/><path d="m544-1176v-16-32h-16v32 16 72h16z"/><path d="m584-1192h-40v16h40z"/><path d="m544-1192h40z"/><path d="m544-1232v8 32z"/><path d="m528-1224h16z"/><path d="m544-1224v-8z"/><path d="m464-1232h64z"/><path d="m448-1192h-32v16h32z"/><path d="m528-1192h-64v16h64z"/><path d="m464-1176v-16-32h-16v32 16 72h16z"/><path d="m416-1176h-8 40z"/><path d="m528-1176h-64z"/><path d="m464-1232v8 32z"/><path d="m464-1192h64z"/><path d="m448-1192v-32z"/><path d="m448-1176v72z"/><path d="m408-1176h8z"/><path d="m464-1224v-8z"/><path d="m416-1192h-8z"/><path d="m448-1224v-8z"/><path d="m448-1224h16z"/><path d="m600-1056h88z"/><path d="m584-1104v32 16h16v-48z"/><path d="m688-1104v48h16v-48z"/><path d="m704-1104v48z"/><path d="m600-1104v48z"/><path d="m528-1024v8z"/><path d="m544-1016v-8z"/><path d="m544-1056v32 8z"/><path d="m544-1104v32z"/><path d="m584-1056-40 40 8-8z"/><path d="m584-1072h-40v16h40z"/><path d="m584-1056h-40z"/><path d="m544-1072h40z"/><path d="m528-1104v32 16 32h16v-32-16-32z"/><path d="m544-1024h-16z"/><path d="m528-1016h-64z"/><path d="m448-1104v32 16 32h16v-32-16-32z"/><path d="m528-1072h-64v16h64z"/><path d="m448-1056v-16h-32v16z"/><path d="m464-1056v32 8z"/><path d="m464-1104v32z"/><path d="m528-1056h-64z"/><path d="m464-1072h64z"/><path d="m416-1072h32-40z"/><path d="m408-1056h8z"/><path d="m416-1072h-8z"/><path d="m416-1056v-16 8z"/><path d="m448-1024v8z"/><path d="m464-1024h-16z"/><path d="m464-1016v-8z"/><path d="m584-1176v72z"/><path d="m688-1192h-88z"/><path d="m792-1192h96-80z"/><path d="m792-1192h-16v16z"/><path d="m792-1192-16 16z"/><path d="m704-1192v88z"/><path d="m776-1176v-16h-72v88h72z"/><path d="m600-1192v88z"/><path d="m688-1192h-88v88h88z"/><path d="m584-1176h-40z"/><path d="m584-1104v32z"/><path d="m776-1104v32z"/><path d="m776-1072v16h16z"/><path d="m688-1104v48z"/><path d="m704-1104v48h72v-16-32z"/><path d="m600-1104v48h88v-48z"/><path d="m408-1176v72z"/><path d="m448-1176h-40v72h40z"/><path d="m448-1224v-8l-40 40h40z"/><path d="m528-1176h-64v72h64z"/><path d="m584-1176h-40v72h40z"/><path d="m464-1192h64v-32-8h-64z"/><path d="m544-1232v40h40z"/><path d="m528-1232v8z"/><path d="m544-1176v72z"/><path d="m408-1192h8 32z"/><path d="m448-1232v8z"/><path d="m464-1176v72z"/><path d="m584-1104v32z"/><path d="m448-1016v-40h-40z"/><path d="m528-1056h-64v40h64z"/><path d="m544-1056v40l40-40z"/><path d="m408-1104v32h40v-32z"/><path d="m464-1104v32h64v-32z"/><path d="m544-1104v32h40v-32z"/><path d="m528-1016v-8-32z"/><path d="m528-1104v32z"/><path d="m448-1056h-32-8z"/><path d="m448-1104v32z"/><path d="m448-1016v-8-32z"/><path d="m776-1176v72z"/><path d="m776-1176v-16h16z"/><path d="m688-1192h88v16 72h-88z"/><path d="m776-1056h16-16-72-16z"/><path d="m792-1056h-16v-16z"/><path d="m776-1072 16 16z"/><path d="m688-1104v48z"/><path d="m776-1104v32 16h-88v-48z"/><path d="m704-1192h72 16-16-88z"/><path d="m792-1192h-16v16z"/><path d="m792-1192-16 16z"/><path d="m688-1192v88z"/><path d="m704-1192h-16v88h16z"/><path d="m776-1176v-16h-72v88h72z"/><path d="m776-1104v32z"/><path d="m776-1072v16h16z"/><path d="m688-1104v48h16v-48z"/><path d="m704-1104v48h72v-16-32z"/><path d="m888-1056h-96z"/><path d="m904-1176v104z"/><path d="m888-1192h-96l-16 16v104l16 16h96l16-16v-104z"/><path d="m904-1072-16 16z"/><path d="m888-1192 16 16z"/><path d="m792-1192h96z"/><path d="m776-1072v-104z"/><path d="m888-1056h-96l-16-16v-104l16-16h96l16 16v104z"/><path d="m792-1056-16-16z"/><path d="m776-1176 16-16z"/><path d="m944-1200v8h-8v-8z"/><path d="m936-1384.8889h8v88.8889 96h-8z"/><path d="m944-1192h16v88h-24v-88z"/><path d="m960-1192h-16v-8-96h16 128v104z"/><path d="m944-1384.8889h8 8v40.8889 48h-16z"/><path d="m1088-1192v-104-48-40.8889h128v56.8889 167.1111h-128z"/><path d="m1216-1160.8889v56.8889h-128v-56.8889z"/><path d="m1216-1160.8889v-167.1111h64v80 144h-64z"/><path d="m1328-1328 16 16v64h-64v-80z"/><path d="m1216-1384.8889h55.1111l56.8889 56.8889h-48-64z"/><path d="m1088-1296v-48z"/><path d="m1088-1344v-48 7.1111z"/><path d="m1280-1248v144z"/><path d="m960-1296h128z"/><path d="m960-1192v24 64z"/><path d="m936-1104h-32v-72-16h32z"/><path d="m852.4445-1384.8889h83.5555v184.8889h-160-16.8889v-91.5555z"/><path d="m936-1192h-32-16-96-16v-8h160z"/><path d="m904-1176-16-16h16z"/><path d="m776-1176v-16h16z"/><path d="m759.1111-1200h16.8889v8 16 72h-16.8889z"/><path d="m936-1384.8889h-83.5555l-17.7778-44.4444-3.8096-9.5238 1.1429-1.1429h104z"/><path d="m759.1111-1200v96h-55.1111v-96z"/><path d="m888-1192 16 16z"/><path d="m776-1176v72z"/><path d="m904-1104v8 24z"/><path d="m1088-1104v8 64-24z"/><path d="m1088-872v16.8889 7.1111-48z"/><path d="m1088-896v-48z"/><path d="m1088-896v-48-88-64h128 16v104 120h-144z"/><path d="m1232-872v16.8889h-144v-16.8889z"/><path d="m1232-872v-120h48 64v64l-72.8889 72.8889h-39.1111z"/><path d="m1232-1096h48v104h-48z"/><path d="m1216-1104v8h-128v-8z"/><path d="m1280-1104v8h-48-16v-8z"/><path d="m1344-992h-64z"/><path d="m1232-855.1111h39.1111l-55.1111 55.1111h-128v-1.7778-46.2222-7.1111z"/><path d="m1088-1032v88h-128v-88z"/><path d="m936-1104h24v8h-24-32v-8z"/><path d="m936-1056v-40h24v64 88 48 24h-24z"/><path d="m960-872v16.8889h-24v-16.8889z"/><path d="m904-1056v-16-24h32v40z"/><path d="m904-1056h32v184 16.8889h-32z"/><path d="m936-855.1111h24v7.1111 46.2222 1.7778h-24-32v-55.1111z"/><path d="m776-931.5555v-124.4445h16 96 16v200.8889h-51.5555z"/><path d="m792-1056h-16v-16z"/><path d="m904-1056h-16l16-16z"/><path d="m776-1104v32 16 124.4445l-16.8889-16.889v-155.5555z"/><path d="m759.1111-1104v155.5555l-44.4444 17.7779-9.5238 3.8094-1.1429-1.1428v-176z"/><path d="m888-1056h-96 16z"/><path d="m904-1072-16 16z"/><path d="m776-1072 16 16z"/><path d="m1088-1392v-10.6667z"/><path d="m960-848v46.2222z"/><path d="m1088-1192v31.1111 56.8889z"/><path d="m1064-1192h-104 128z"/><path d="m1064-1168v-24h24v88h-24z"/><path d="m1064-1168h-80z"/><path d="m1064-1192v24h-80-24v-24z"/><path d="m984-1168v64z"/><path d="m960-1168h24v64h-24z"/><path d="m960-1104v72-64z"/><path d="m984-1032h104-128z"/><path d="m1064-1104v48z"/><path d="m1088-1104v48h-24v-48z"/><path d="m1064-1056h24v24h-104v-24z"/><path d="m984-1104v48 24h-24v-72z"/><path d="m984-1168h80v64h-80z"/><path d="m1088-1296h-128v-48h128z"/><path d="m1280-1248h64v32 112h-64z"/><path d="m1344-1216v112z"/><path d="m1088-1344v-48z"/><path d="m1088-1392v-46.2222 35.5555z"/><path d="m960-1344h128z"/><path d="m1280-1248h64z"/><path d="m1344-1248v-64z"/><path d="m1344-1312-16-16-56.8889-56.8889-17.7777-17.7778z"/><path d="m1253.3334-1402.6667 17.7777 17.7778h-55.1111-128v-7.1111-10.6667z"/><path d="m960-1344v-40.8889-7.1111z"/><path d="m960-1392v-10.6667z"/><path d="m960-1296v-48z"/><path d="m960-1402.6667v10.6667 7.1111h-8v-17.7778z"/><path d="m1064-1168v64z"/><path d="m952-1402.6667v17.7778h-8-8v-55.1111h8 8z"/><path d="m1344-928v-64z"/><path d="m1280-1104v112-104z"/><path d="m1344-1104v80 32h-64v-112z"/><path d="m960-896v-48z"/><path d="m960-944h128z"/><path d="m984-1104v48z"/><path d="m1064-1056h-80z"/><path d="m1064-1104v48h-80v-48z"/><path d="m1088-896h-128v-48h128z"/><path d="m1036-1144h-24v8 32h24z"/><path d="m1012-1136v32z"/><path d="m1012-1104v16 8h24v-24z"/><path d="m1036-1104v24-8z"/><path d="m1344-1216h56z"/><path d="m1400-1216v112z"/><path d="m1344-1216h56v112h-56z"/><path d="m960-1344v-48z"/><path d="m960-1392h128z"/><path d="m1088-1344h-128v-48h128z"/><path d="m1036-1144h-24z"/><path d="m1024-1136v32z"/><path d="m1024-1136h4v32h-4z"/><path d="m1028-1136h8v32h-8z"/><path d="m1028-1136h8z"/><path d="m1036-1136v-8z"/><path d="m1028-1136v32z"/><path d="m1036-1136v-8 40z"/><path d="m1012-1136h12z"/><path d="m1012-1136h12v32h-12z"/><path d="m1344-1104v80z"/><path d="m1400-1104v80h-24-32v-80z"/><path d="m960-848v-7.1111-16.8889-24z"/><path d="m1024-1104v16z"/><path d="m1036-1104v16h-8v-16z"/><path d="m1028-1104v16h-4v-16z"/><path d="m1036-1088h-8z"/><path d="m1028-1088h-4z"/><path d="m1028-1104v16z"/><path d="m1036-1080v-8z"/><path d="m1024-1104v16h-12v-16z"/><path d="m1012-1104v16z"/><path d="m1012-1088v8z"/><path d="m960-896h128z"/><path d="m1088-848h-128v-48h128z"/><path d="m821.3333-1429.3333 6.6667-6.6667 2.8571-2.8571z"/><path d="m821.3333-1429.3333h13.3334l-6.6667-6.6667z"/><path d="m714.6667-917.3334-6.6667-6.6666-2.8571-2.8572z"/><path d="m714.6667-917.3334v-13.3332l-6.6667 6.6666z"/><path d="m1400-1216h36 20v112h-56z"/><path d="m1456-1216v112z"/><path d="m960-1440h128z"/><path d="m960-1392v-10.6667-35.5555z"/><path d="m960-1438.2222v-1.7778z"/><path d="m1088-1438.2222v46.2222h-128v-46.2222-1.7778h128z"/><path d="m1400-1024h-24z"/><path d="m1376-1024h-24-8z"/><path d="m1400-1104v80z"/><path d="m1456-1104v80h-56v-80z"/><path d="m1088-801.7778v-46.2222z"/><path d="m960-848h128z"/><path d="m1088-801.7778v1.7778h-128v-1.7778-46.2222h128z"/><path d="m830.8571-1438.8571 3.8096 9.5238h-13.3334z"/><path d="m828-1436 6.6667 6.6667 17.7778 44.4444-93.3334 93.3334-53.9682-21.5874z"/><path d="m708-924 6.6667-6.6666 44.4444-17.7779 16.8889 16.889 76.4445 76.4444-21.5874 53.9683z"/><path d="m705.1429-926.8572 9.5238-3.8094v13.3332z"/><path d="m1088-1440v1.7778z"/><path d="m1216-1440 37.3334 37.3333h-165.3334v-35.5555-1.7778z"/><path d="m960-1440v1.7778 35.5555h-8v-37.3333z"/><path d="m704-1312 1.1429-1.1429 53.9682 21.5874v91.5555h-55.1111z"/><path d="m936-800h24-8z"/><path d="m1088-800v-1.7778z"/><path d="m960-800v-1.7778z"/><path d="m904-800h-72l-1.1429-1.1428 21.5874-53.9683h51.5555z"/><path d="m704-1104v176-112z"/><path d="m1344-1312v64z"/><path d="m1344-1312-90.6666-90.6667-37.3334-37.3333z"/><path d="m1344-928v-64-32z"/><path d="m1216-800h-24-104z"/><path d="m1216-800 55.1111-55.1111 72.8889-72.8889z"/><path d="m1512-1216v112z"/><path d="m1436-1216h20z"/><path d="m1456-1216h56v112h-56z"/><path d="m960-1488h128v48h-128z"/><path d="m1088-1488v48z"/><path d="m960-1488h128z"/><path d="m1512-1024h-56z"/><path d="m1512-1104v80h-56v-80z"/><path d="m1456-1104v80z"/><path d="m960-800h128z"/><path d="m960-784v-16h128v48h-128z"/><path d="m960-784v32z"/><path d="m704-1200v-88-24z"/><path d="m712-1184v-16h-8v96h8z"/><path d="m704-1200v96z"/><path d="m704-1104v64h8v-16-48z"/><path d="m712-1104v48-32z"/><path d="m704-928 1.1429 1.1428 2.8571 2.8572 122.8571 122.8572 1.1429 1.1428z"/></g><g id="b"><path d="m1824-1824v-32 64z"/><path d="m1824-1352v-216 16 144 16 56z"/><path d="m1576-1984h-132-92 80 16z"/><path d="m1344-1984v128z"/><path d="m1668-1856h-36-188v-128h132 61.0909 30.9091z"/><path d="m1696-1984 128 128h-156v-128z"/><path d="m1344-1984h8 92v128h-100z"/><path d="m1668-1856h156v32h-160l-32-32z"/><path d="m1824-1824v32 128l-28-28-132-132z"/><path d="m1344-1856v16z"/><path d="m1664-1824h-92-128v-16-16h188z"/><path d="m1572-1600v-104-120h92l132 132v92z"/><path d="m1796-1576h-164-60v-24h224z"/><path d="m1824-1664v88h-28v-24-92z"/><path d="m1572-1824v120h-8-16-104v-8-112z"/><path d="m1564-1696v-8h8v104 24h-8z"/><path d="m1548-1704v8 120h-104v-128z"/><path d="m1444-1856v16h-100v-16z"/><path d="m1444-1840v16 112h-100v-128z"/><path d="m1344-1712h100v8 128h-100z"/><path d="m1796-1576h28v8 216h-192v-88-128-8z"/><path d="m1824-1352v16 120h-88-104v-136z"/><path d="m1512-1216h120 104v112h-224z"/><path d="m1736-1216h88v104 8h-88z"/><path d="m1572-1576h60v8h-60-8v-8z"/><path d="m1444-1576h104v8h-8-40-32-32-92v-8z"/><path d="m1468-1568h-16-16z"/><path d="m1500-1568h-16-16z"/><path d="m1540-1568h-8-16-8-8z"/><path d="m1632-1568h-60z"/><path d="m1564-1704v8z"/><path d="m1548-1576v-120 128z"/><path d="m1632-1440v88 136z"/><path d="m1512-1216h64 24 32z"/><path d="m1436-1216h-36-56z"/><path d="m1512-1216h-56-20z"/><path d="m1184-1840h-96-128z"/><path d="m960-1800v184 40-40z"/><path d="m1088-1616v-96 8 128z"/><path d="m1312-1712h32-32-208z"/><path d="m1312-1712h-208-16v-128h96 128z"/><path d="m1344-1712h-32v-128h32z"/><path d="m960-1800v-40h128v128 96h-128z"/><path d="m1088-1616v40 88h-128v-88-40z"/><path d="m1824-1104v16z"/><path d="m1648-1024h-30.7416-17.2584-24z"/><path d="m1736-1024h24-16-96z"/><path d="m1824-1024h-48-16z"/><path d="m1512-1104v80z"/><path d="m1736-1024h-88-72-64v-80h224z"/><path d="m1824-1104v16 64h-64-24v-80z"/><path d="m960-480h128-184z"/><path d="m960-608v-144h128v48 176h-128z"/><path d="m1088-528v48h-128v-48z"/><path d="m960-752h128z"/><path d="m960-608v80 48h-56v-128z"/><path d="m344-640h-136-88 144z"/><path d="m120-736h144v80h-144z"/><path d="m120-656v16h-64v-96h64z"/><path d="m528-360v80 120z"/><path d="m528-480v56 16 48z"/><path d="m528-640v16 16z"/><path d="m752-608h-224z"/><path d="m904-608h-152z"/><path d="m752-480h-224v-120-8h224z"/><path d="m904-480h-152v-128h152z"/><path d="m-16-576v72 152z"/><path d="m416-128h24-120-48-16-48z"/><path d="m208-600h-224v-8l32-32h40 64 88z"/><path d="m432-600h-88-136v-40h136 88z"/><path d="m444-640h84v32 8h-48-48v-40z"/><path d="m528-600v120 120h-40-8v-16-224z"/><path d="m464-376v16h-24-16v-16z"/><path d="m432-600h48v224h-16-40-16-64v-128-96z"/><path d="m464-360h16 8v144h-16-32v-136-8z"/><path d="m432-200h40 16v72h-48-24v-72z"/><path d="m440-216h32v16h-40v-16z"/><path d="m528-360v200l-32 32h-8v-72-16-144z"/><path d="m424-360h16v8h-32v-8z"/><path d="m408-360v8h-64v-24h64z"/><path d="m208-504h-48-32-144v-72-24h224z"/><path d="m344-600v96h-136v-96z"/><path d="m128-360h8v8h-8z"/><path d="m136-352v-8h24v16h-24z"/><path d="m160-360h-24-8v-144h32z"/><path d="m128-504v144 8h-144v-152z"/><path d="m432-216h-16-72v-128-8h64 32v136z"/><path d="m344-344v128h-136v-32-16-80z"/><path d="m344-216h72v16 72h-208v-24-16-48z"/><path d="m160-344h48v80h-24-16-32v-72-8z"/><path d="m184-248v-16h24v16z"/><path d="m136-264h32v16h-144v-16z"/><path d="m128-336h8v72h-112-16-24v-72z"/><path d="m-16-248v-16h24v16z"/><path d="m184-248h24v32 48h-24-16v-80z"/><path d="m184-152v-16h24v16z"/><path d="m168-128v-24h16 24v24z"/><path d="m8-248h16 144v80 16 24h-152l-32-32v-88z"/><path d="m464-360h16z"/><path d="m480-360v-16z"/><path d="m472-200h16z"/><path d="m488-200v-16z"/><path d="m160-360v-144 152 8z"/><path d="m208-504h136-16-152-16z"/><path d="m128-336h-144 16z"/><path d="m1548-1568h-8z"/><path d="m1564-1568h8z"/><path d="m1540-1696v128z"/><path d="m1564-1696h8z"/><path d="m1564-1696v120 8z"/><path d="m1572-1696h-8v128h8z"/><path d="m1548-1696h-8v128h8z"/><path d="m712-1184v-16z"/><path d="m712-1152v-32 80z"/><path d="m712-1088v32z"/><path d="m712-1104v16h-128v-16z"/><path d="m-16-248v-24-16-16-32 72 16 88z"/><path d="m440-128h-72-16-32z"/><path d="m320-128h-16-16-16z"/><path d="m272-128h-16z"/><path d="m208-128h-72-120 152z"/><path d="m344-344h-136-48z"/><path d="m344-352v-152 128 24 8z"/><path d="m176-360h152v8h-152z"/><path d="m328-352v-8-128-16h16v152z"/><path d="m176-504h152v16h-152z"/><path d="m160-504h16v16 128 8h-16z"/><path d="m176-352h152 16v8h-184v-8z"/><path d="m328-360v-128z"/><path d="m328-488h-152z"/><path d="m136-336v-16 8z"/><path d="m128-368v16z"/><path d="m128-336v16z"/><path d="m136-336h-8z"/><path d="m128-336h8z"/><path d="m128-368h-128v16h128z"/><path d="m0-336h-16v-16h16z"/><path d="m0-336v16h128v-16z"/><path d="m0-336v-16-16 48z"/><path d="m0-352h-16 144z"/><path d="m1540-1568h-8z"/><path d="m1572-1696v128z"/><path d="m1548-1696h16z"/><path d="m1540-1696h8z"/><path d="m1540-1696h8 16 8v128h-32z"/><path d="m1532-1696v-8h-16v8 128h16z"/><path d="m1532-1704v8z"/><path d="m1516-1696v128z"/><path d="m-16-288v-16z"/><path d="m128-320h-128z"/><path d="m328-488v128h-152v-128z"/><path d="m176-360v-128z"/><path d="m328-360h-152z"/><path d="m0-368h128z"/><path d="m0-368h128v16 16 16h-128z"/><path d="m136-304v16z"/><path d="m128-288h8v-16h-8-144v16z"/><path d="m136-288h-8z"/><path d="m128-304h-128-16z"/><path d="m1516-1568h-8z"/><path d="m1508-1568h-8z"/><path d="m1548-1704h16z"/><path d="m1508-1696v128z"/><path d="m1548-1696v-8z"/><path d="m1564-1696h-16v-8h16z"/><path d="m1532-1696h8z"/><path d="m1540-1696h-8v128h8z"/><path d="m1516-1696h-8v128h8z"/><path d="m1532-1696v128z"/><path d="m1824-1088v64z"/><path d="m1760-1024v-56.7273-7.2727z"/><path d="m1824-1104h-64v16h64z"/><path d="m-16-272v-16z"/><path d="m128-320h-128z"/><path d="m260-392v-56-8h-24v8 56z"/><path d="m260-456v8z"/><path d="m260-456h-24z"/><path d="m260-392v-8-48z"/><path d="m136-336h-8v-16h8z"/><path d="m128-336v-16z"/><path d="m128-352h8z"/><path d="m128-320v16z"/><path d="m128-288v16z"/><path d="m128-304v-16h-128v16z"/><path d="m128-272v-16h-128v16z"/><path d="m0-288h-16v-16h16z"/><path d="m0-288v-16-16 48z"/><path d="m0-288h128-144z"/><path d="m1824-1336v224-104z"/><path d="m1824-1568v16z"/><path d="m1824-1552v16 112 16z"/><path d="m1824-1336v-56-16z"/><path d="m1824-1112v8z"/><path d="m1352-1984h-8z"/><path d="m1592-1984h16 29.0909-61.0909z"/><path d="m1608-1984h-16l-65.4546 65.4546h16z"/><path d="m1592-1984h-16l-49.4546 49.4546v16z"/><path d="m1540-1696v128z"/><path d="m1508-1696h8z"/><path d="m1516-1696h16z"/><path d="m1508-1696h8 16 8v128h-32z"/><path d="m1500-1696v-8h-16v8 128h16z"/><path d="m1500-1704v8z"/><path d="m1484-1696v128z"/><path d="m1824-1552v-16l-65.4546 65.4545v16z"/><path d="m1824-1568v16l-49.4546 49.4545h-16z"/><path d="m712-1184v32z"/><path d="m16-128-12-12-8-8-12-12z"/><path d="m16-128-12-12z"/><path d="m424-360v-16z"/><path d="m480-360h-16z"/><path d="m464-360v-16z"/><path d="m424-376h-16z"/><path d="m472-216h16z"/><path d="m432-216h-16z"/><path d="m472-200v-16z"/><path d="m432-200v-16z"/><path d="m236-448h12z"/><path d="m252-448h8z"/><path d="m252-400v-48h8v48z"/><path d="m236-400v-48h12v48z"/><path d="m248-448h4v48h-4z"/><path d="m252-400h-4z"/><path d="m260-400h-8z"/><path d="m252-400v-48z"/><path d="m252-448v48z"/><path d="m236-400v8-56z"/><path d="m128-272h-128z"/><path d="m128-320v16 16 16h-128v-48z"/><path d="m24-160-8-8-20 20 8 8z"/><path d="m16-168-8 8-12 12z"/><path d="m1484-1568h-8-8z"/><path d="m1516-1704h16z"/><path d="m1532-1696h-16v-8h16z"/><path d="m1516-1696v-8z"/><path d="m1476-1696v128z"/><path d="m1500-1696h8z"/><path d="m1500-1696v128z"/><path d="m1508-1696h-8v128h8z"/><path d="m1484-1696h-8v128h8z"/><path d="m-16-160 12 12z"/><path d="m24-272h144 16 8-192z"/><path d="m136-288h-8v-16h8z"/><path d="m128-288v-16z"/><path d="m128-304h8z"/><path d="m184-264v-8h-16v8z"/><path d="m192-272h-8v8 16h8z"/><path d="m168-248v-16-8h-144v8 16z"/><path d="m24-272h-24v8h8 16z"/><path d="m0-264v16h8v-16z"/><path d="m184-168h8v-80h-8-16v80z"/><path d="m184-168v16 8h8v-24z"/><path d="m168-144h16v-8h-16z"/><path d="m16-152 8 8h16l-16-16z"/><path d="m24-160 16 16h128v-8-16-80h-144-8v80z"/><path d="m8-160 8 8-12 12-8-8z"/><path d="m0-168 8 8 8-8v-80h-8-8z"/><path d="m0-248v-16-8 104z"/><path d="m24-248v-16z"/><path d="m168-168v16z"/><path d="m168-264v16z"/><path d="m184-168h-16z"/><path d="m168-248h16z"/><path d="m184-248v-16z"/><path d="m184-264h-16z"/><path d="m168-152h16z"/><path d="m184-152v-16z"/><path d="m8-248h8 8z"/><path d="m8-264v16z"/><path d="m24-264h-16z"/><path d="m16-168 8 8z"/><path d="m16-152 8-8-20 20z"/><path d="m1824-1112v-224z"/><path d="m1824-1112v8z"/><path d="m1744-1024h-96z"/><path d="m1744-1024h16-24-88z"/><path d="m1744-1024v-56.7273h16v56.7273z"/><path d="m1824-1088h-64 7.2727z"/><path d="m1444-1984h4l49.4546 49.4546v16l-65.4546-65.4546z"/><path d="m424-360v-16z"/><path d="m464-360h-12v-16h12z"/><path d="m472-200h16z"/><path d="m472-200h16-16-20 8z"/><path d="m432-200v-16z"/><path d="m472-200h-12v-16h12z"/><path d="m680-1184h-96 128z"/><path d="m680-1184h32v32h-128z"/><path d="m1476-1568h-8z"/><path d="m1508-1696v128z"/><path d="m1476-1696h8z"/><path d="m1484-1696h16z"/><path d="m1476-1696h8 16 8v128h-32z"/><path d="m1468-1696v-8h-16v8 128h16z"/><path d="m1468-1704v8z"/><path d="m1452-1696v128z"/><path d="m1024-1136v32z"/><path d="m1036-1136h-8v32h8z"/><path d="m1028-1136h-4v32h4z"/><path d="m1028-1136h-4z"/><path d="m1028-1136v32z"/><path d="m1012-1136v-8z"/><path d="m1024-1136h-12v32h12z"/><path d="m1012-1136v32z"/><path d="m1216-800h-24z"/><path d="m1024-1104v16z"/><path d="m1024-1104v16h4v-16z"/><path d="m1028-1104v16h8v-16z"/><path d="m1036-1104v16 8z"/><path d="m1028-1104v16z"/><path d="m1012-1088h12z"/><path d="m1012-1104v16h12v-16z"/><path d="m1088-800v48z"/><path d="m960-800v16 32 80z"/><path d="m960-672v-80 144z"/><path d="m56-640h-40z"/><path d="m56-640v-96z"/><path d="m-16-248v-24z"/><path d="m-16-304v16 16z"/><path d="m-16-248v88z"/><path d="m-16-352v16 32z"/><path d="m-16-352v-120-48-32-24z"/><path d="m-16-608v8 24z"/><path d="m224-128h-16 48z"/><path d="m192-272v24 80 24z"/><path d="m224-272v-8h-16v8 144h16z"/><path d="m224-280v8z"/><path d="m0-272h192v128h-168l-24-24z"/><path d="m192-144h-8-16-128-16z"/><path d="m24-144-8-8-8-8-8-8z"/><path d="m444-360h-20 12z"/><path d="m444-376h-8-12z"/><path d="m444-360v-16h-20v16z"/><path d="m444-360h20v-16h-20z"/><path d="m452-216h20 16-16-12z"/><path d="m452-216h8 12 16-16-20-8-12z"/><path d="m452-200v-16h-20v16z"/><path d="m452-200h20v-16h-20z"/><path d="m1824-1408v-16-112-16-16 64 48 120z"/><path d="m1444-1984h-12-80z"/><path d="m1464-1984h112 16-16-128z"/><path d="m1444-1984h4z"/><path d="m1592-1984h16l-65.4546 65.4546v-16z"/><path d="m1576-1984h16l-49.4546 49.4546h-16z"/><path d="m1448-1984h16l49.4546 49.4546h-16z"/><path d="m1464-1984h-16l65.4546 65.4546v-16z"/><path d="m1452-1568h-8-8z"/><path d="m1444-1696v128z"/><path d="m1484-1704h16z"/><path d="m1484-1696v-8z"/><path d="m1500-1696h-16v-8h16z"/><path d="m1468-1696h8z"/><path d="m1468-1696v128z"/><path d="m1476-1696h-8v128h8z"/><path d="m1452-1696h-8v128h8z"/><path d="m1012-1136v-8h24v40h-24z"/><path d="m1036-1144v8 32z"/><path d="m1036-1104v24h-24v-8-16z"/><path d="m1012-1080h24z"/><path d="m1012-1104v16z"/><path d="m436-376h8 20-12-8-20z"/><path d="m452-360h12v-16h-12z"/><path d="m436-360h-12v-16h12z"/><path d="m444-200h8 20 16-16-12-8-20z"/><path d="m444-216v16h-12v-16z"/><path d="m444-200v-16h-12v16z"/><path d="m460-200h12v-16h-12z"/><path d="m192-272v128z"/><path d="m224-272h16z"/><path d="m208-272h-16v128h16z"/><path d="m224-128h-16v-16h16z"/><path d="m240-272h-16v128h16z"/><path d="m208-144v16-144z"/><path d="m224-144v-128 144z"/><path d="m444-360h20-12z"/><path d="m444-360h8 12 16-16-20-8-12z"/><path d="m444-376v16h-20v-16z"/><path d="m452-200h-8-12-16 16z"/><path d="m452-216v16h-20v-16z"/><path d="m1420-1568h-8-32-36 92z"/><path d="m1380-1568h-8-16-12z"/><path d="m1444-1568h-8z"/><path d="m1476-1696v128z"/><path d="m1452-1696h16z"/><path d="m1444-1696h8z"/><path d="m1444-1696h8 16 8v128h-32z"/><path d="m1436-1696v-8h-16v8 128h16z"/><path d="m1436-1704v8z"/><path d="m1420-1696v128z"/><path d="m1180-1440h36-128z"/><path d="m960-1576v88z"/><path d="m960-1488v48z"/><path d="m1088-1488v-88 48.75 87.25z"/><path d="m1088-1488v-88z"/><path d="m1216-1440 120 120 8 8z"/><path d="m584-1152h128v48h-128z"/><path d="m444-640h68 16z"/><path d="m368-640h76-12-88z"/><path d="m584-1104v16l-48-16z"/><path d="m584-1088h-128v-16h80z"/><path d="m256-128h-32z"/><path d="m240-272v128z"/><path d="m272-272v-8h-16v8 144h16z"/><path d="m272-280v8z"/><path d="m256-272v128 16z"/><path d="m208-272h16z"/><path d="m192-272h16z"/><path d="m208-272h16 16v128h-48v-128z"/><path d="m240-144h-16-16-16z"/><path d="m464-360v-16z"/><path d="m424-360h12v-16h-12z"/><path d="m472-216h16z"/><path d="m432-216h12 8-20-16z"/><path d="m472-200v-16z"/><path d="m1420-1568h-8z"/><path d="m1452-1704h16z"/><path d="m1468-1696h-16v-8h16z"/><path d="m1452-1696v-8z"/><path d="m1412-1696v128z"/><path d="m1436-1696h8z"/><path d="m1436-1696v128z"/><path d="m1444-1696h-8v128h8z"/><path d="m1420-1696h-8v128h8z"/><path d="m320-1184v32 48z"/><path d="m80-1224h240v24 16 80h-240z"/><path d="m320-896v-144 176.4z"/><path d="m80-1104v24z"/><path d="m320-1104v48 16 144h-240v-152-32-24z"/><path d="m528-640v16z"/><path d="m320-128h-16z"/><path d="m288-128h16z"/><path d="m208-128h16 32 16 16z"/><path d="m224-128h-16z"/><path d="m208-280h16z"/><path d="m240-272v128z"/><path d="m272-272h16z"/><path d="m272-128h-16v-16h16z"/><path d="m256-272h-16v128h16z"/><path d="m288-272h-16v128h16z"/><path d="m288-144h-16-16-16z"/><path d="m272-144v-128 144z"/><path d="m208-272v-8z"/><path d="m224-272h-16v-8h16z"/><path d="m264-736v80z"/><path d="m56-736h64 144-144z"/><path d="m120-656v16z"/><path d="m264-656h-144z"/><path d="m120-656h144v-80h-144z"/><path d="m120-656v-80h-64v96h64z"/><path d="m1404-1568h-16-8 32z"/><path d="m1444-1568h-8z"/><path d="m1444-1696v128z"/><path d="m1420-1696h16z"/><path d="m1412-1696h8z"/><path d="m1412-1696h8 16 8v128h-8-24z"/><path d="m1404-1696v-8h-16v8 128h16z"/><path d="m1404-1704v8z"/><path d="m1388-1696v128z"/><path d="m1088-1440h8 16 68z"/><path d="m960-1440h47.25z"/><path d="m1344-1840h-32-128z"/><path d="m960-1840v40z"/><path d="m960-1576v88 48z"/><path d="m960-1616v40 136h47.25v-87.25-88.75z"/><path d="m1184-1840h-224l47.25 47.25h176.75z"/><path d="m1088-1712h16z"/><path d="m320-1200v-24z"/><path d="m320-1224h-240z"/><path d="m320-1256v32h-240v-32z"/><path d="m1088-704v128 96-48z"/><path d="m1088-752v48z"/><path d="m1088-480-47.25-47.25h-33.5-103.25v47.25z"/><path d="m1088-704v-48-48h-47.25v224h47.25z"/><path d="m960-616v-184 128 64z"/><path d="m960-616v8h8z"/><path d="m528-616v-8z"/><path d="m528-616v8-16z"/><path d="m752-480h-224z"/><path d="m904-480h-152z"/><path d="m424-360v-16z"/><path d="m464-376h16z"/><path d="m464-376h-20 8z"/><path d="m464-360h-20v-16h20z"/><path d="m416-216v16z"/><path d="m416-200h16z"/><path d="m472-200h16z"/><path d="m416-216h16z"/><path d="m472-200h-20v-16h20z"/><path d="m288-272v128z"/><path d="m320-272v-8h-16v8 144h16z"/><path d="m320-280v8z"/><path d="m304-272v128 16z"/><path d="m240-272h16z"/><path d="m256-272h16z"/><path d="m240-272h16 16 16v128h-48z"/><path d="m1088-1712v8z"/><path d="m1088-1712h16z"/><path d="m1344-1712v-39.25h-32v39.25z"/><path d="m1088-1712v-39.25h-47.25l47.25 47.25z"/><path d="m960-608v-8z"/><path d="m960-608h-56z"/><path d="m960-608h-56v39.25h56z"/><path d="m752-608h-224v8 31.25h224z"/><path d="m904-608h-152v39.25h152z"/><path d="m1388-1568h-8z"/><path d="m1412-1568h-8z"/><path d="m1380-1696v128z"/><path d="m1420-1704h16z"/><path d="m1420-1696v-8z"/><path d="m1436-1696h-16v-8h16z"/><path d="m1404-1696h8z"/><path d="m1404-1696v128z"/><path d="m1412-1696h-8v128h8z"/><path d="m1388-1696h-8v128h8z"/><path d="m320-1200v-24-32z"/><path d="m320-1152h136v48h-136z"/><path d="m456-1152v-32h128z"/><path d="m456-1152h128v48h-48-80z"/><path d="m584-1184h96l-96 32z"/><path d="m456-1152 128-32v32z"/><path d="m80-1224v-32z"/><path d="m320-1256h-240z"/><path d="m320-1288v32h-240v-32z"/><path d="m320-1104v16 32z"/><path d="m584-1056h-56z"/><path d="m456-1104v16h-136v-16z"/><path d="m456-1088v32h-136v-32z"/><path d="m584-1056h-56-72v-32z"/><path d="m584-1056v-32h128v32z"/><path d="m584-1056-128-32h128z"/><path d="m440-128h-64-8z"/><path d="m368-128h-16z"/><path d="m304-128h16 32-64z"/><path d="m256-280h16z"/><path d="m288-272v128z"/><path d="m320-272h16z"/><path d="m320-128h-16v-16h16z"/><path d="m304-272h-16v128h16z"/><path d="m336-272h-16v128h16z"/><path d="m320-144v-128 144z"/><path d="m256-272v-8z"/><path d="m272-272h-16v-8h16z"/><path d="m1760-1104h-8.7273v7.2727l8.7273 8.7273z"/><path d="m1344-1568h12-8z"/><path d="m1412-1568h24z"/><path d="m1412-1696v128z"/><path d="m1388-1696h16z"/><path d="m1380-1696h8z"/><path d="m1380-1696h8 16 8v128h-32z"/><path d="m1372-1696v-8h-16v8 128h16z"/><path d="m1372-1704v8z"/><path d="m1356-1696v128z"/><path d="m176-1488h93.76v116h-37.76-56z"/><path d="m269.76-1347.52v-24-.48-116h50.24v200h-50.24z"/><path d="m232-1371.52h13.76v24h-13.76z"/><path d="m269.76-1372v.48h-24-13.76v-.48z"/><path d="m269.76-1288h-37.76v-59.52h13.76 24z"/><path d="m176-1347.52v-24-.48h56v.48 24 59.52h-56z"/><path d="m80-1488h96v116 .48h-21.76-24-50.24z"/><path d="m154.24-1371.52h21.76v24h-21.76z"/><path d="m176-1288h-96v-59.52h50.24 24 21.76z"/><path d="m80-1347.52v-24h50.24v24z"/><path d="m176-1288h56 37.76 50.24-240z"/><path d="m712-1056h-128-56 56z"/><path d="m712-1056v-32h-128v32z"/><path d="m352-272v128 16z"/><path d="m368-272v-8h-16v8 144h16z"/><path d="m368-280v8z"/><path d="m304-272h16z"/><path d="m288-272h16z"/><path d="m336-272v128z"/><path d="m336-144h-16-16-16z"/><path d="m288-272h16 16 16v128h-48z"/><path d="m154.4615-1372 45.5385-98.6667 8-17.3333h-24l-5.5385 12-48 104-.2215.48h24z"/><path d="m154.4615-1372-.2215.48v24l11.2985-24.48z"/><path d="m1436-1568h-56 32z"/><path d="m1444-1568h32 32 32 92-64-132z"/></g><g id="c"><path d="m1767.2727-1104h-16 8.7273 64z"/><path d="m1526.5454-1918.5454h-13.0908-16-1.4546v14.5454h46.5454v-14.5454z"/><path d="m1544-1944h-1.4546v9.4546 16 14.5454h1.4546z"/><path d="m1496-1934.5454v16h1.4546v-16z"/><path d="m1513.4546-1918.5454h13.0908v-16h-13.0908z"/><path d="m1542.5454-1944h-46.5454v9.4546h1.4546 16 13.0908 16z"/><path d="m1544-1944v40z"/><path d="m1544-1904h-1.4546-46.5454z"/><path d="m1497.4546-1918.5454h16l-65.4546-65.4546h-16z"/><path d="m1344-1568h4z"/><path d="m1380-1568h-8z"/><path d="m1388-1704h16z"/><path d="m1404-1696h-16v-8h16z"/><path d="m1388-1696v-8z"/><path d="m1348-1696v128z"/><path d="m1372-1696h8z"/><path d="m1372-1696v128z"/><path d="m1380-1696h-8v128h8z"/><path d="m1356-1696h-8v128h8z"/><path d="m1776-1112h-8.7273v8h8.7273z"/><path d="m1767.2727-1112h-31.2727v8h15.2727 16z"/><path d="m1744-1502.5455v16h14.5454v-16z"/><path d="m1784-1504h-9.4546v1.4545 16 13.091 16 1.4545h9.4546z"/><path d="m1758.5454-1457.4545h-14.5454v1.4545h30.5454v-1.4545z"/><path d="m1744-1473.4545v16h14.5454v-16z"/><path d="m1758.5454-1486.5455h-14.5454v13.091h14.5454 16v-13.091z"/><path d="m1774.5454-1504h-30.5454v1.4545h14.5454 16z"/><path d="m1784-1456h-9.4546-30.5454z"/><path d="m1784-1504v48z"/><path d="m1736-1112v8z"/><path d="m1758.5454-1473.4545v16l65.4546 65.4545v-16z"/><path d="m1758.5454-1457.4545h16l49.4546 49.4545v16z"/><path d="m1758.5454-1486.5455h16l49.4546-49.4545v-16z"/><path d="m1774.5454-1486.5455v-16l49.4546-49.4545v16z"/><path d="m1774.5454-1473.4545h-16l65.4546 65.4545v-16z"/><path d="m1774.5454-1457.4545v-16l49.4546 49.4545v16z"/><path d="m168-1372h8z"/><path d="m176-1372h56-8z"/><path d="m168-1348v-24z"/><path d="m176-1348h56v-24h-56-8v24z"/><path d="m232-1348h-56 48z"/><path d="m1760-1080.7273v8.7273h7.2727v-16h-7.2727z"/><path d="m1744-1080.7273h-8v8.7273h24v-8.7273z"/><path d="m1767.2727-1104v16 16h8.7273v-32z"/><path d="m1736-1104v7.2727h8 7.2727v-7.2727z"/><path d="m1744-1096.7273h-8v16h8z"/><path d="m1776-1104v32z"/><path d="m1776-1072h-8.7273-7.2727-24z"/><path d="m1744-1096.7273v16 56.7273z"/><path d="m1767.2727-1104h56.7273v16h-56.7273z"/><path d="m1751.2727-1096.7273h-7.2727v72.7273h16v-64z"/><path d="m352-128h16z"/><path d="m368-272h16z"/><path d="m384-272h-16v128h16z"/><path d="m368-128h-16v-16h16z"/><path d="m384-144h-16-16z"/><path d="m368-144v-128 144z"/><path d="m320-272h-16v-8h16z"/><path d="m352-272h-16v128h16z"/><path d="m336-272v128z"/><path d="m352-144h-16z"/><path d="m304-280h16z"/><path d="m304-272v-8z"/><path d="m1344-1751.25v-8.75-24-8.75z"/><path d="m1344-1792.75v8.75-8-48z"/><path d="m1080-1440h8-47.25z"/><path d="m1040.75-1440h-33.5-47.25-8 128z"/><path d="m952-1440h8z"/><path d="m1007.25-1751.25v-41.5l-47.25-47.25v40 184h47.25z"/><path d="m1231.25-1792.75h112.75v-47.25h-160v47.25z"/><path d="m1040.75-1751.25h-33.5v135.25 88.75h33.5z"/><path d="m1007.25-1527.25v87.25h33.5v-87.25z"/><path d="m1231.25-1792.75h-47.25-176.75v41.5h33.5 47.25 143.25z"/><path d="m1312-1751.25h32v-41.5h-112.75v41.5z"/><path d="m1312-1751.25h-80.75-143.25v39.25h16 208z"/><path d="m1040.75-1751.25v224h47.25v-48.75-128z"/><path d="m1040.75-1527.25v87.25h47.25v-87.25z"/><path d="m944-1440h8z"/><path d="m944-1440h8z"/><path d="m936-800h-32z"/><path d="m960-800h47.25z"/><path d="m1040.75-800h47.25z"/><path d="m952-800h-16z"/><path d="m960-800h47.25 33.5 47.25-136z"/><path d="m1088-800h104-80-16z"/><path d="m1007.25-527.25v-41.5h-47.25-56v41.5z"/><path d="m1040.75-800h-33.5v224h33.5z"/><path d="m1007.25-576v7.25 41.5h33.5v-48.75z"/><path d="m1040.75-576v48.75l47.25 47.25v-96z"/><path d="m1007.25-568.75-39.25-39.25h-8v39.25z"/><path d="m1007.25-576v-224h-47.25v184l8 8 39.25 39.25z"/><path d="m528-480v-47.25z"/><path d="m528-568.75v-31.25z"/><path d="m528-527.25v-41.5-31.25 120z"/><path d="m752-568.75h-224v41.5h224z"/><path d="m904-568.75h-152v41.5h152z"/><path d="m752-527.25h-224v47.25h224z"/><path d="m904-527.25h-152v47.25h152z"/><path d="m1648-1216h-16v112h16z"/><path d="m1648-1104v80-72z"/><path d="m1824-1792v128 88 8-8-88z"/><path d="m1824-1336v104 120z"/><path d="m1444-1984h91.2727 56.7273-16-112-16z"/><path d="m1664-1984h32-28-30.9091-29.0909-16-56.7273z"/><path d="m1824-1856-128-128z"/><path d="m1696-1856h128l-128-128h-32v40 88z"/><path d="m1496-1944h48 120v-40h-128.7273-91.2727v40z"/><path d="m1544-1944v40 48h88 32v-88z"/><path d="m1496-1856h48v-48h-48z"/><path d="m1496-1904v-40h-52v88h52z"/><path d="m1344-1856h64 36v-88-40h-92-8z"/><path d="m1496-1904v-14.5454-16-9.4546z"/><path d="m1496-1944h46.5454 1.4546z"/><path d="m1632-1856 64 64z"/><path d="m1696-1856h-32-32l64 64z"/><path d="m1824-1792v-64h-128v64l128 128z"/><path d="m1344-1712v136 8z"/><path d="m1344-1712v-48 8.75z"/><path d="m1696-1576v-216 224z"/><path d="m1696-1792v216h48 80v-88z"/><path d="m1824-1568v-8h-80v8z"/><path d="m1744-1568v-8h-48v8z"/><path d="m1380-1696v128z"/><path d="m1356-1696h16z"/><path d="m1348-1696h8z"/><path d="m1348-1696h8 16 8v128h-32z"/><path d="m1348-1696v-100l-4 4v8 24 48 144h4z"/><path d="m1744-1456v-1.4545-16-13.091-16-1.4545z"/><path d="m1744-1504h30.5454 9.4546z"/><path d="m1784-1504h40v-64h-80v64z"/><path d="m1784-1504v48h40v-48z"/><path d="m1696-1456h48v-48-64h-48z"/><path d="m1736-1112h31.2727 8.7273z"/><path d="m1824-1232v-104-120h-40-40-48v16 208z"/><path d="m1736-1112h40 48v-120h-128v16 104z"/><path d="m1776-1112v8z"/><path d="m1824-1112h-48v8h48z"/><path d="m1696-1112v8h40v-8z"/><path d="m1648-1216h-16z"/><path d="m1648-1216v112z"/><path d="m1696-1112v-104h-48v112h48z"/><path d="m1600-1216h32z"/><path d="m1496-1216h16-76z"/><path d="m1348-1796 60-60h-64v16 48z"/><path d="m1080-1440h8z"/><path d="m1096-1440h-8 8 16z"/><path d="m320-1184v32z"/><path d="m456-1184v32h-136v-32z"/><path d="m176-1360v-12z"/><path d="m176-1348v-8z"/><path d="m176-1372h48v12h-48z"/><path d="m176-1360h48v4h-48z"/><path d="m224-1348h-48v-8h48z"/><path d="m224-1360v4z"/><path d="m224-1372v12z"/><path d="m224-1348h8z"/><path d="m176-1356h48z"/><path d="m224-1356h-48z"/><path d="m1824-1104v16z"/><path d="m1736-1104v8 24-8.7273-16z"/><path d="m1776-1104v32 48h48v-64-16z"/><path d="m1736-1024h24 16v-48h-40z"/><path d="m1736-1024v-48-24h-40-48v72z"/><path d="m1648-1104v8h48v-8z"/><path d="m1696-1104v8h40v-8z"/><path d="m320-1056v-32z"/><path d="m456-1056h-136z"/><path d="m352-272h16z"/><path d="m384-272v128z"/><path d="m352-272h16 16v128h-32z"/><path d="m336-272h16z"/><path d="m336-272h16v128h-16z"/><path d="m528-1056h-72z"/><path d="m1344-1248v32z"/><path d="m1344-1216h8 24 8.9888 51.0112z"/><path d="m1632-1216h-32v112h32z"/><path d="m1632-1104h-32v80h17.2584 30.7416v-80z"/><path d="m141.5385-1372-11.2985 24.48v-24l.2215-.48z"/><path d="m165.5385-1372-11.2985 24.48h-24l11.2985-24.48z"/><path d="m1372-1704h-16z"/><path d="m1372-1696h-16v-8h16z"/><path d="m1356-1704v8z"/><path d="m1576-1216h24z"/><path d="m1600-1216h-24v112h24z"/><path d="m1576-1216v112z"/><path d="m712-1184v32z"/><path d="m712-1152v-32h-128v32z"/><path d="m712-1152h-128v48h128z"/><path d="m1600-1104v80z"/><path d="m1576-1104v80h24v-80z"/><path d="m712-1088v32z"/><path d="m712-1104v16 32z"/><path d="m528-424v16z"/><path d="m528-480v-120 32 48 16 32 16 16 16z"/><path d="m512-160-24 24z"/><path d="m352-272v-8z"/><path d="m480-392h32-128z"/><path d="m464-360v-16h-40v16z"/><path d="m408-376h16 40 16v-16h-96v16z"/><path d="m488-360h24v-32h-32v16 16z"/><path d="m416-216h16 40 16v-144h-8-16-40-16-24v144z"/><path d="m512-360h-24v144 16 64l24-24z"/><path d="m472-200v-16h-40v16z"/><path d="m488-136v-64h-16-40-16-32v64z"/><path d="m384-376v16h24v-16z"/><path d="m368-272h-16v-8h16z"/><path d="m384-216v16h32v-16z"/><path d="m384-376v-16 32z"/><path d="m352-280h16z"/><path d="m464-360v-16z"/><path d="m408-360h16z"/><path d="m408-376v16z"/><path d="m416-200h16z"/><path d="m472-216h16z"/><path d="m472-200v-16z"/><path d="m432-200v-16z"/><path d="m1080-1440h8 8-8z"/><path d="m1476-1568h-32z"/><path d="m232-1377.3333 13.76 29.8133v-24l-13.76-29.8133z"/><path d="m1600-1216v112z"/><path d="m1600-1024h17.2584z"/><path d="m1648-1216v112z"/><path d="m1648-1024h-80z"/><path d="m1920-2080v96z"/><path d="m1824-2080h-160-64 64z"/><path d="m1824-1568v-8 8 16z"/><path d="m1824-1824h16z"/><path d="m1840-2000v-80h80v96 128h-80z"/><path d="m1920-1856v32h-80v-32z"/><path d="m1840-2000h-16z"/><path d="m1840-2080v80h-16v-80z"/><path d="m1840-1824h80v64h-96v-64z"/><path d="m1440-1984h-96 100z"/><path d="m1664-1984h4 28z"/><path d="m1824-2000h-160v-80h160z"/><path d="m1664-2000v16h-64v-96h64z"/><path d="m1600-1984v-96z"/><path d="m1440-1856h192-88-48-52-36z"/><path d="m1440-1856h-32-64-128l128-128h96z"/><path d="m1664-1856h-32-192v-128h4 156 64z"/><path d="m1696-1984 128 128h-128-32v-128z"/><path d="m1632-1856h32 32v64z"/><path d="m1696-1856h128v32 64 96l-128-128z"/><path d="m1408-1856-60 60z"/><path d="m1824-1664v88 8h-128v-224z"/><path d="m1344-1792 4-4v228h-4z"/><path d="m1348-1796v100 128z"/><path d="m1696-1440v96 128-16z"/><path d="m1696-1568v128-16z"/><path d="m1824-1568v16 208h-128v-96-128z"/><path d="m1824-1344v16 224h-128v-112-128z"/><path d="m1648-1216h48z"/><path d="m1648-1104v-112h48v112z"/><path d="m1589.9326-1216h-13.9326-80v112h93.9326z"/><path d="m1576-1216h13.9326v112h-13.9326z"/><path d="m1344-1856h64l-60 60-4 4z"/><path d="m1216-1664v-128-64h128v64z"/><path d="m1216-1664 128-128v224h-128z"/><path d="m1216-1792v128 96-8-56z"/><path d="m1576-1024h13.9326z"/><path d="m1648-1104v8 72z"/><path d="m1824-1104v8h-128v-8z"/><path d="m1648-1096v-8h48v8z"/><path d="m1696-1096h128v72h-176v-72z"/><path d="m1576-1104v80z"/><path d="m1589.9326-1104v80h-13.9326v-80z"/><path d="m528-408v48z"/><path d="m384-408h144v-16h-144-8v16z"/><path d="m528-424h-16-128z"/><path d="m488-136h-104z"/><path d="m384-360v192 32-64-16z"/><path d="m512-168v-224 32 200z"/><path d="m512-392v224h-128v-192-32z"/><path d="m512-168v8l-24 24h-104v-32z"/><path d="m252-448h-4z"/><path d="m236-448v-8z"/><path d="m248-400v-48z"/><path d="m248-448v48z"/><path d="m252-448v48h8v-48z"/><path d="m248-400h4v-48h-4z"/><path d="m260-448v48z"/><path d="m236-448v48h12v-48z"/><path d="m236-400h12z"/><path d="m236-392v-8z"/><path d="m1632-1216h16v112h-16z"/><path d="m1632-1104h16v80h-80v-80z"/><path d="m1576-1216h13.9326z"/><path d="m264-640h104-24z"/><path d="m264-640h-144z"/><path d="m16-640h40z"/><path d="m-16-160v-56-32z"/><path d="m440-128h48 8z"/><path d="m16-640-32 32z"/><path d="m496-128 32-32z"/><path d="m-16-160 12 12 8 8 12 12z"/><path d="m512-440h-128z"/><path d="m384-424v-16z"/><path d="m512-424v-16h-128v16z"/><path d="m528-408h-16v-16h16z"/><path d="m512-392v-16h-128v16z"/><path d="m512-408h16-144z"/><path d="m384-424h-8z"/><path d="m260-456v8 48 8h-24v-56-8z"/><path d="m260-392h-24z"/><path d="m260-392v-8z"/><path d="m236-392v-8-48z"/><path d="m1508-1568h-32z"/><path d="m320-1288v-200z"/><path d="m320-1200v-56-32z"/><path d="m80-1488v116.48 24 59.52z"/><path d="m80-1288v32 32z"/><path d="m320-1488h-50.24-93.76-96z"/><path d="m320-1040v144 10.8 61.2-39.6z"/><path d="m80-863.6v-32.4h240v32.4 39.6h-240z"/><path d="m80-1048v152 32.4z"/><path d="m80-1080v32z"/><path d="m528-408v-16z"/><path d="m528-360v-48-16-16 24 136z"/><path d="m528-520v16z"/><path d="m528-568v16 32z"/><path d="m440-128h-32-32z"/><path d="m136-128h-32-32-32-24z"/><path d="m528-160-24 24-8 8z"/><path d="m16-128-8-8-16-16-8-8z"/><path d="m512-392h-128z"/><path d="m376-456v-16z"/><path d="m384-456h144v-16h-144-8v16z"/><path d="m528-472h-16-128z"/><path d="m376-472h8z"/><path d="m384-392v-16z"/><path d="m384-408v-16z"/><path d="m512-440v48h-128v-16-16-16z"/><path d="m512-440v16 16 16z"/><path d="m1568-1216h64v112h-64z"/><path d="m1568-1216h-224z"/><path d="m1568-1024h-224v-80h224z"/><path d="m1496-1216h80-64z"/><path d="m1436-1216h36 24z"/><path d="m1496-1216h-24v112h24z"/><path d="m1472-1216v112z"/><path d="m584-1184h-128v32h128z"/><path d="m1496-1024h-24-16 56 64-68.0449z"/><path d="m1496-1104v80z"/><path d="m1472-1104v80h24v-80z"/><path d="m528-456v16z"/><path d="m512-488h-128z"/><path d="m376-424v16z"/><path d="m384-472v-16z"/><path d="m528-456h-16v-16h16z"/><path d="m512-472v-16h-128v16z"/><path d="m512-440v-16h-128v16z"/><path d="m512-488v16 16 16z"/><path d="m512-456h16-144z"/><path d="m376-408h8z"/><path d="m384-408h-8v-16h8z"/><path d="m1496-1216v112z"/><path d="m1496-1024h11.9551z"/><path d="m1496-1104v80h11.9551 68.0449 13.9326v-80z"/><path d="m1480.6293-1216h-44.6293-51.0112-8.9888v112h104.6293z"/><path d="m1480.6293-1216h-8.6293-36z"/><path d="m1436-1216h36z"/><path d="m1472-1216h8.6293v112h-8.6293z"/><path d="m1472-1024h-16z"/><path d="m1456-1024h16 8.6293z"/><path d="m1480.6293-1104v80h-8.6293v-80z"/><path d="m1472-1104v80z"/><path d="m528-504v32z"/><path d="m384-504h144v-16h-144-8v16z"/><path d="m528-520h-16-128z"/><path d="m512-440h-128z"/><path d="m384-456v-16z"/><path d="m384-440v-16z"/><path d="m512-488v48h-128v-16-16-16z"/><path d="m384-456h-8z"/><path d="m1540-1568h-32z"/><path d="m528-1056h56v-32h-128v32z"/><path d="m528-472v32-16z"/><path d="m512-536h-128z"/><path d="m384-520v-16z"/><path d="m512-488v-16h-128v16z"/><path d="m528-504h-16v-16h16z"/><path d="m512-520v-16h-128v16z"/><path d="m512-504h16-144z"/><path d="m384-456h-8v-16h8z"/><path d="m232-1453.3333-10.4615-22.6667-5.5385-12h-8l-8 17.3333 32 69.3334 13.76 29.8133h24z"/><path d="m232-1453.3333 37.76 81.8133v24l-37.76-81.8133z"/><path d="m232-1429.3333 37.76 81.8133h-24l-13.76-29.8133z"/><path d="m456-1184h128z"/><path d="m456-1184h-136z"/><path d="m584-1152h-128v48h128z"/><path d="m456-1056v-32h-136v32z"/><path d="m584-1104v16h128v-16z"/><path d="m528-520v48-32z"/><path d="m528-520v-32z"/><path d="m384-552h144v-16h-144-8v16z"/><path d="m528-568h-16-128z"/><path d="m512-488h-128z"/><path d="m384-488v-16z"/><path d="m384-504v-16z"/><path d="m512-536v16 16 16z"/><path d="m512-536v48h-128v-16-16-16z"/><path d="m384-504h-8z"/><path d="m528-616v16-8-8-8-16z"/><path d="m528-616v16z"/><path d="m528-568v-32z"/><path d="m512-584h-128z"/><path d="m384-568v-16z"/><path d="m512-536v-16h-128v16z"/><path d="m512-568v-16h-128v16z"/><path d="m528-552h-16v-16h16z"/><path d="m512-584v16 16 16z"/><path d="m512-552h16-144z"/><path d="m384-504h-8v-16h8z"/><path d="m376-504v-16z"/><path d="m376-520h8z"/><path d="m1376-1216h-24v112h24z"/><path d="m1376-1216h8.9888z"/><path d="m1344-1216h8z"/><path d="m1352-1216v112z"/><path d="m1344-1024v96z"/><path d="m1376-1104v80z"/><path d="m1352-1104v80h24v-80z"/><path d="m1376-1216v112z"/><path d="m1376-1024h24 56z"/><path d="m1376-1104v80h80 24.6293v-80z"/><path d="m200-1446.6667 8-17.3333h8l16 34.6667v52z"/><path d="m200-1470.6667v24l32 69.3334v-24z"/><path d="m200-1446.6667v-24l-45.5385 98.6667h11.077z"/><path d="m936-1288v-152z"/><path d="m936-1264v-24 26.7826z"/><path d="m1088-1440h8z"/><path d="m1112-1264v-24-152h-16v152 24 16h16z"/><path d="m1096-1440v152z"/><path d="m952-1248v-8-184h-8-8v152 24 16z"/><path d="m936-1440h8z"/><path d="m832-1440h104z"/><path d="m1112-952v-32-8h-16v16 24 152h16z"/><path d="m952-952v-16-16h-16v8 24 152h16z"/><path d="m936-976v5.2174 18.7826z"/><path d="m1112-952v152z"/><path d="m1112-984v32-26.7826z"/><path d="m1112-992v8-12.174z"/><path d="m952-968v16-18.7826z"/><path d="m952-952v152z"/><path d="m444-640h68z"/><path d="m384-640h60z"/><path d="m384-640h60-76z"/><path d="m512-536h-128z"/><path d="m384-600h144v-16h-144-8v16z"/><path d="m528-600h-144 128z"/><path d="m528-616h-16-128z"/><path d="m384-552v-16z"/><path d="m384-536v-16z"/><path d="m512-584v48h-128v-16-16-16z"/><path d="m384-552h-8z"/><path d="m1352-1216h5.663v112h-5.663z"/><path d="m1352-1216h-8 13.663z"/><path d="m1357.663-1216h-13.663v112h13.663z"/><path d="m1344-1024h8z"/><path d="m1357.663-1104v80h-5.663v-80z"/><path d="m1352-1104v80z"/></g><g id="d"><path d="m952-1288v-152 184z"/><path d="m952-1256v-5.2174-26.7826z"/><path d="m952-1256v8 2.7826z"/><path d="m1344-1312v96-32z"/><path d="m1192-1440h24-36-68z"/><path d="m1080-1440h8z"/><path d="m1336-1216v112h8v-112-96l-8-8z"/><path d="m1192-1208v104z"/><path d="m1216-1440h-24v152 72h144v-104z"/><path d="m1192-1216v8 104h144v-112z"/><path d="m1096-1288h-16z"/><path d="m1112-1440v152z"/><path d="m1192-1440h-80v152h80z"/><path d="m1096-1440h-8-8-128v152h128 16z"/><path d="m1096-1288v26.7826-2.7826z"/><path d="m1112-1288 80 80v-8-72z"/><path d="m1192-1208-80-80z"/><path d="m320-1152v-32z"/><path d="m320-1184v-16z"/><path d="m320-1152v-32-16 96z"/><path d="m712-1288h144 80v-152h-104l-128 128v24z"/><path d="m936-1288h-80v80z"/><path d="m856-1208v-80h-144v88 16 80h144z"/><path d="m704-1288v88h8v-88z"/><path d="m456-1152h-136v48h136z"/><path d="m936-1440h-104z"/><path d="m712-1200h-8z"/><path d="m704-1312 128-128-1.1429 1.1429-2.8571 2.8571-122.8571 122.8571z"/><path d="m712-1184v32 48z"/><path d="m456-1152v-32h-136v32z"/><path d="m1344-1024h8 5.663z"/><path d="m1344-1104v80h13.663v-80z"/><path d="m1192-800h-80z"/><path d="m1088-800h8z"/><path d="m1344-928-48 48-80 80z"/><path d="m936-912v112-152z"/><path d="m1336-1104h-144v72 152h104l48-48v-96-80z"/><path d="m1192-880v80h24l80-80z"/><path d="m1192-880v-152l-80 80v152h80z"/><path d="m952-952h144z"/><path d="m1096-952v-24-2.7826z"/><path d="m1096-800v-152z"/><path d="m1088-800h8v-152h-144v152z"/><path d="m936-912h-32v112h32z"/><path d="m936-952-32-32v72h32z"/><path d="m904-984 32 32z"/><path d="m512-640h8 8z"/><path d="m320-1056v-32z"/><path d="m320-1040v-16z"/><path d="m904-912h-48-136l112 112h72z"/><path d="m856-1032v-8h-144-8v112l16 16h136z"/><path d="m904-984-48-48v120h48z"/><path d="m320-1104v16h136v-16z"/><path d="m712-1104v48 16h144v-64z"/><path d="m856-1104v64 8z"/><path d="m904-800h-72z"/><path d="m704-1040h8z"/><path d="m712-1040v-16z"/><path d="m456-1104v16h128v-16z"/><path d="m704-928v-112z"/><path d="m832-800-112-112-16-16z"/><path d="m376-552v-16z"/><path d="m512-632h-128z"/><path d="m384-616v-16z"/><path d="m528-600h-16v-16h16z"/><path d="m512-616v-16h-128v16z"/><path d="m512-584v-16h-128v16z"/><path d="m376-568h8z"/><path d="m384-552h-8v-16h8z"/><path d="m1920-1984v128 32 64-64-32z"/><path d="m1840-2080h80-80-16z"/><path d="m1824-1760v96 88-88z"/><path d="m1840-1856v-144 144 32z"/><path d="m1920-1984v-96h-80v80 144h80z"/><path d="m1840-1856v32h80v-32z"/><path d="m1824-2000h16v-80h-16z"/><path d="m1920-1760v-64h-80-16v64z"/><path d="m1824-1760h96z"/><path d="m1664-1984h-64z"/><path d="m1664-1984v-16z"/><path d="m1824-2000h-160z"/><path d="m1664-2000h160v-80h-160z"/><path d="m1664-2000v-80h-64v96h64z"/><path d="m196-872v-8h-8v40h8z"/><path d="m168-872v-8h-8v40h8z"/><path d="m224-872v-8h-8v40h8z"/><path d="m196-872v32z"/><path d="m196-880v8z"/><path d="m224-872v32z"/><path d="m224-880v8z"/><path d="m224-840h-8z"/><path d="m216-880v8 32z"/><path d="m160-880v8 32z"/><path d="m168-840h-8z"/><path d="m196-840h-8z"/><path d="m188-880v8 32z"/><path d="m168-880v8z"/><path d="m168-872v32z"/><path d="m936-1261.2174v27.8261 16-30.6087-16z"/><path d="m952-1288h128z"/><path d="m1096-1261.2174v27.8261 16-30.6087-16z"/><path d="m1112-1261.2174v-26.7826 24z"/><path d="m1096-1261.2174v-26.7826h16v26.7826z"/><path d="m952-1261.2174v27.8261h-8-8v-27.8261z"/><path d="m952-1288v26.7826h-16v-26.7826z"/><path d="m936-1288-80 80z"/><path d="m208-1488h8l3.84 8.32h-15.68-24l3.84-8.32z"/><path d="m216-1464v-24l5.5385 12z"/><path d="m184-1488v24l-5.5385-12z"/><path d="m184-1464v-24l-3.84 8.32v24z"/><path d="m232-1372v24z"/><path d="m224-1372h8z"/><path d="m176-1372h48 8z"/><path d="m184-1464-42.4615 92h-11.077l48-104z"/><path d="m216-1464 5.5385-12 10.4615 22.6667v24z"/><path d="m184-1464h24l-8 17.3333-34.4615 74.6667h-24z"/><path d="m176-1360v4z"/><path d="m224-1372h-48v12h48z"/><path d="m176-1356h48v-4h-48z"/><path d="m176-1348h48v-8h-48z"/><path d="m232-1348h-8-48z"/><path d="m224-1348v-8z"/><path d="m176-1360h48z"/><path d="m224-1360h-48z"/><path d="m176-1348h-8z"/><path d="m1112-978.7826v-1.3914-3.826z"/><path d="m952-970.7826v-27.826-16 30.6086 16z"/><path d="m1096-952v-26.7826h16v26.7826z"/><path d="m936-952v-18.7826h16v18.7826z"/><path d="m528-568v16z"/><path d="m528-472v-48-32-16-32 160z"/><path d="m512-584h-128z"/><path d="m384-600v-16z"/><path d="m384-584v-16z"/><path d="m384-600v-16-16h128v48h-128z"/><path d="m512-632v16 16 16z"/><path d="m384-600h-8z"/><path d="m224-840h-8v-32h8z"/><path d="m216-872h8z"/><path d="m188-872h8z"/><path d="m196-840h-8v-32h8z"/><path d="m160-872h8z"/><path d="m168-840h-8v-32h8z"/><path d="m1824-1520v192z"/><path d="m1824-1328v224z"/><path d="m1824-1552v32 192-16z"/><path d="m1632-1568h-92 32z"/><path d="m1824-1520h-66.6666z"/><path d="m1632-1520v-48 128z"/><path d="m1632-1216v-224z"/><path d="m1632-1568v48h66.6666v-48z"/><path d="m1632-1520h66.6666z"/><path d="m1344-1216h224v112h-224z"/><path d="m1176-1440h-224z"/><path d="m1336-1320-120-120 120 120 8 8z"/><path d="m1336-1216v-104l8 8v96 112h-8z"/><path d="m1192-1288v-152h24l120 120v104h-144z"/><path d="m1336-1216v112h-144v-104-8z"/><path d="m1080-1288h32-16z"/><path d="m1176-1440h16v152h-80-32-128v-152z"/><path d="m1192-1216v8l-80-80h80z"/><path d="m952-1440h-16z"/><path d="m952-1288h-16z"/><path d="m952-1288h-16v-152h16z"/><path d="m320-1200v96z"/><path d="m704-1184v-16z"/><path d="m936-1440h-80-24 8z"/><path d="m856-1208v104z"/><path d="m856-1208v-8-72h80z"/><path d="m936-1288h-80v-152h80z"/><path d="m704-1312 128-128h24v152 72h-152z"/><path d="m856-1216v8 104h-152v-80-16-16z"/><path d="m608-1104h-224v-80h224z"/><path d="m704-1184v80h-96v-80z"/><path d="m608-1184h-224z"/><path d="m180.16-1479.68h24l-4.16 9.0133-80.32 174.0267h-24z"/><path d="m176-1372h56v24h-56-8v-24z"/><path d="m219.84-1455.68h-15.68l-4.16 9.0133 80.32 174.0267h24z"/><path d="m180.16-1479.68-84.48 183.04v24l84.48-183.04z"/><path d="m204.16-1455.68h15.68l-3.84-8.32h-8-24l-3.84 8.32z"/><path d="m219.84-1479.68-3.84-8.32v24l3.84 8.32z"/><path d="m1824-1104v8z"/><path d="m1824-1096v72z"/><path d="m936-800h56-56-32z"/><path d="m1112-800h104-104-48z"/><path d="m1344-928-128 128z"/><path d="m1336-1104h8v80 72h-152v-80-72z"/><path d="m1192-952h152v24l-128 128h-104v-152z"/><path d="m1192-952h-80l80-80z"/><path d="m1192-1104v72z"/><path d="m1112-952 80-80z"/><path d="m936-952h16 144 16z"/><path d="m1112-996.174v-26.4346h-16v30.6086h16z"/><path d="m1112-800h-48-72-56v-8-144h176z"/><path d="m936-808v8h-32v-8z"/><path d="m936-952v144h-32v-176z"/><path d="m1064-784v-16 16 72z"/><path d="m1064-784h-72v-16h72z"/><path d="m992-784v-16z"/><path d="m992-784h72v72h-160v-72z"/><path d="m1064-712h-160z"/><path d="m444-640h68-68-60z"/><path d="m384-640h-16z"/><path d="m320-1104v64-16-32z"/><path d="m904-800h-72l-8-8h32 48z"/><path d="m904-808h-48v-72-152l48 48z"/><path d="m856-1104v72 152h-104l-48-48v-112-16-40-8z"/><path d="m856-880v72h-32l-72-72z"/><path d="m856-1032 48 48z"/><path d="m904-712h-48v-72h48z"/><path d="m904-784h-48z"/><path d="m856-784v72z"/><path d="m384-864v224z"/><path d="m384-1104v8 224 8-16z"/><path d="m384-1096h60v224h-60z"/><path d="m444-872v64 168h-60v-224-8z"/><path d="m444-640v-168h12 56v168z"/><path d="m456-832v-40-184h56v192 32z"/><path d="m512-808h-56v-24h56z"/><path d="m444-872v-224h12v40 184z"/><path d="m456-832v24h-12v-64h12z"/><path d="m680-1056h-168-56v-40h152 72z"/><path d="m704-1096v40h-24v-40z"/><path d="m608-1096h-152-12-60v-8h224z"/><path d="m704-1104v8h-24-72v-8z"/><path d="m680-1056h24-184-8z"/><path d="m512-1056v192z"/><path d="m384-600h-8v-16h8z"/><path d="m376-600v-16z"/><path d="m376-616h8z"/><path d="m1600-1984h-156z"/><path d="m1668-1984h-4-64-156 116z"/><path d="m1696-1984 8 8 120 120z"/><path d="m80-1288v-200z"/><path d="m80-1224v72-112-24z"/><path d="m80-1152v-72 120z"/><path d="m-32-1152h112v48h-112z"/><path d="m-32-1104v24z"/><path d="m80-1104v24h-112v-24z"/><path d="m200-1470.6667v24l-80.32 174.0267v-24z"/><path d="m200-1446.6667v-24l80.32 174.0267v24z"/><path d="m200-1446.6667 4.16-9.0133h-24l-84.48 183.04h24z"/><path d="m936-976v5.2174z"/><path d="m936-976v-22.6086h16v27.826h-16z"/><path d="m196-880v8 32z"/><path d="m224-880v8 32z"/><path d="m224-840h-8z"/><path d="m224-880h-8z"/><path d="m216-872v32h8v-32z"/><path d="m160-840v-32-8z"/><path d="m160-872v-8z"/><path d="m196-840h-8z"/><path d="m168-840h-8z"/><path d="m196-880h-8z"/><path d="m188-872v32h8v-32z"/><path d="m168-880h-8z"/><path d="m160-872v32h8v-32z"/><path d="m168-880v8 32z"/><path d="m216-880v8z"/><path d="m216-840v-32z"/><path d="m188-880v8z"/><path d="m188-840v-32z"/><path d="m168-840h-8v-40h8z"/><path d="m196-840h-8v-40h8z"/><path d="m224-840h-8v-40h8z"/><path d="m216-840v-32-8z"/><path d="m188-840v-32-8z"/><path d="m1757.3334-1568h66.6666z"/><path d="m1698.6666-1568h13.3334-80z"/><path d="m1757.3334-1568h66.6666-112-13.3334z"/><path d="m1757.3334-1568h-58.6668v48h58.6668z"/><path d="m1824-1520h-66.6666-58.6668-66.6666 66.6666 58.6668z"/><path d="m1632-1216v-80-144z"/><path d="m1568-1216h-224z"/><path d="m1757.3334-1520h66.6666v-32-16h-66.6666z"/><path d="m1632-1440v-80z"/><path d="m1632-1216h-64z"/><path d="m104-640h16z"/><path d="m120-640h144z"/><path d="m56-640h-40 8 48z"/><path d="m56-640h16 32 16z"/><path d="m528-248v32 32 24-120z"/><path d="m-16-248v-56 32z"/><path d="m-16-304v-48z"/><path d="m-16-472v120 48 56-48z"/><path d="m-16-608v32z"/><path d="m376-128h-48-192 72 80 64 16z"/><path d="m-16-608 8-8 16-16 8-8z"/><path d="m528-248h-8z"/><path d="m72-640v78.7693 9.2307z"/><path d="m104-640h-32v88l22.7692 22.7693h9.2308z"/><path d="m440-128v-78.7693-9.2307z"/><path d="m520-216h8v-32h-8z"/><path d="m1824-1328v32 192z"/><path d="m1824-1328v-192h-66.6666v224h66.6666z"/><path d="m1632-1440v-80z"/><path d="m1632-1296v80l66.6666 66.6666v-146.6666z"/><path d="m1632-1216h-64z"/><path d="m1568-1216h-224v66.6666h224z"/><path d="m1632-1216h-64v66.6666h64z"/><path d="m1344-1024v96-24z"/><path d="m1344-1024v-66.6666z"/><path d="m1824-1104v8z"/><path d="m1824-1024-32-32v32z"/><path d="m1824-1024h-32-144z"/><path d="m1568-1024h-224z"/><path d="m992-784h-88z"/><path d="m1064-800h-72v16h72z"/><path d="m1064-712v-72h-72-88v72z"/><path d="m904-784h-48v72h48z"/><path d="m904-712h-48z"/><path d="m704-1040v-16z"/><path d="m528-184v16 8z"/><path d="m528-216v32z"/><path d="m528-280v32z"/><path d="m408-128h-32z"/><path d="m376-128h32 32z"/><path d="m40-128h32 32z"/><path d="m72-128h-32z"/><path d="m40-128h-16-8z"/><path d="m104-640v110.7693-32z"/><path d="m72-640h32v78.7693h-32z"/><path d="m-16-248h110.7692-32z"/><path d="m1824-1824v64z"/><path d="m1824-1856v32z"/><path d="m1824-1576v8z"/><path d="m1696-1984h-28z"/><path d="m1816-1856h8l-120-120h-8z"/><path d="m1560-1984h-116-100l-8 8h8 64 152z"/><path d="m1640-1976h56 8l-8-8h-28-108v8z"/><path d="m1344-1976h-8l-120 120h8z"/><path d="m1696-1976h-56z"/><path d="m1408-1976h-64z"/><path d="m1336-1976 8-8-128 128z"/><path d="m1824-1664v-96-64-32h-8v184z"/><path d="m1816-1856v184z"/><path d="m1380-1568h-32z"/><path d="m1348-1568h-4z"/><path d="m1792-1568h-160 80 112z"/><path d="m1568-1576h-224v8h4 32 56 132z"/><path d="m1792-1576h-160-64v8h64 160z"/><path d="m1824-1568v-8h-8-24v8z"/><path d="m1816-1576h8v-88l-8-8z"/><path d="m1632-1576h-16-48z"/><path d="m1344-1576h-120-8v8h128z"/><path d="m1224-1800v-56h-8v64 160h8z"/><path d="m1216-1632v56h8v-56z"/><path d="m1224-1800v168 56-56z"/><path d="m1344-1568h-128z"/><path d="m1216-1856v64z"/><path d="m384-1184v80z"/><path d="m704-1184h-96z"/><path d="m384-1184v80h47.25v-32.75z"/><path d="m608-1184h-224l47.25 47.25h16.75 160z"/><path d="m-32-1152v48z"/><path d="m80-1152h-112v48h112z"/><path d="m80-1152h-112z"/><path d="m384-640h47.25z"/><path d="m704-1056v16-8-8-40z"/><path d="m384-1104v224h47.25v-216-8z"/><path d="m384-880v16 224h47.25v-232-8z"/><path d="m520-1056-8-8v8z"/><path d="m80-1104v24z"/><path d="m-32-1104v24h112v-24z"/><path d="m80-1080h-112z"/><path d="m520-216h8z"/><path d="m520-248h8v32h-8z"/><path d="m520-248h-70.7692-32z"/><path d="m1792-1056-34.6666-34.6666h-189.3334v66.6666h80 144z"/><path d="m512-640h-39.25z"/><path d="m512-1056h8z"/><path d="m512-864v32 192-168-24z"/><path d="m1640-1976v14.272z"/><path d="m1424-1976h200 16-80-152z"/><path d="m1632-1576h160 24z"/><path d="m1568-1576h-144-16-64z"/><path d="m1344-1576h64z"/><path d="m1344-1576h-120z"/><path d="m704-1096v-7.25h-32-199.25l39.25 39.25 8 8h184z"/><path d="m1344-1149.3334v-66.6666z"/><path d="m1344-1149.3334v-66.6666 112z"/><path d="m1757.3334-1296v192h66.6666v-192z"/><path d="m1568-1149.3334h-224v45.3334h224z"/><path d="m1698.6666-1104v-45.3334h-66.6666-64v45.3334z"/><path d="m1757.3334-1520h-58.6668v224h58.6668z"/><path d="m1698.6666-1296v146.6666 45.3334h58.6668v-192z"/><path d="m1698.6666-1520h-66.6666v80 144h66.6666z"/><path d="m1698.6666-1149.3334-66.6666-66.6666v66.6666z"/><path d="m1568-1096h-224v5.3334h224z"/><path d="m1757.3334-1090.6666v-5.3334h-58.6668-130.6666v5.3334z"/><path d="m1568-1104h-224v8h224z"/><path d="m1698.6666-1096v-8h-130.6666v8z"/><path d="m1698.6666-1104v8h58.6668v-8z"/><path d="m1568-1090.6666h-224v66.6666h224z"/><path d="m1757.3334-1104v8 5.3334l34.6666 34.6666 32 32v-72-8z"/><path d="m704-1136.75v8.75-64-8 16z"/><path d="m672-1136.75h-64-160v32.75h224z"/><path d="m704-1104v-32.75h-32v32.75z"/><path d="m448-1104v-32.75h-16.75v32.75z"/><path d="m672-1136.75h32v-47.25h-96v47.25z"/><path d="m704-1103.25v7.25z"/><path d="m704-1103.25v7.25-8z"/><path d="m672-1104h-224v.75h24.75 199.25z"/><path d="m704-1103.25v-.75h-32v.75z"/><path d="m472.75-1103.25h-24.75v7.25h24.75z"/><path d="m431.25-1096h16.75v-7.25-.75h-16.75z"/><path d="m472.75-872v-184-40h-24.75-16.75v216 8z"/><path d="m472.75-640v-192-40h-41.5v232z"/><path d="m472.75-1103.25v7.25 40h39.25v-8z"/><path d="m472.75-1056v184 40h39.25v-32-192z"/><path d="m472.75-832v192h39.25v-192z"/><path d="m1516.8-1980.16h-108.8-67.84l-47.36 47.36 39.5521 26.368 3.4559 2.304h.192 32 148.8z"/><path d="m1820.16-1856v-3.84l-60.16-60.16-24 24v24 76.16h84.16z"/><path d="m1704-1976h-8-56v-1.728-2.432h59.84z"/><path d="m1704-1976 116.16 116.16v3.84h-4.16l-120-120z"/><path d="m1816-1856-120-120z"/><path d="m1340.16-1980.16-4.16 4.16-114.24 114.24 71.04-71.04z"/><path d="m1408-1976v72 16z"/><path d="m1408-1976v-1.728z"/><path d="m1624-1961.728v73.728h16v-73.728-14.272h-16z"/><path d="m1516.8-1980.16h123.2v2.432h-16-200-16v-2.432z"/><path d="m1624-1961.728v-14.272z"/><path d="m1624-1977.728v1.728h-200v-1.728z"/><path d="m1624-1976h-200z"/><path d="m1336-1976h8l-120 120h-2.24v-5.76z"/><path d="m1344-1976h-8l4.16-4.16h67.84v2.432 1.728z"/><path d="m1344-1976h64z"/><path d="m1224-1856 120-120z"/><path d="m1816-1672v-184h4.16v60.16 128z"/><path d="m1344-1571.84h64 160v-73.728h-11.6479-212.3521z"/><path d="m1568-1571.84h64 160v-28.16l-45.568-45.568h-178.432z"/><path d="m1792-1571.84h28.16l-28.16-28.16z"/><path d="m1632-1576v-72-16z"/><path d="m1632-1574.272v-1.728z"/><path d="m1816-1672v96z"/><path d="m1820.16-1576h-4.16v-96l4.16 4.16z"/><path d="m1816-1576h4.16v4.16h-28.16-160v-2.432-1.728z"/><path d="m1424-1576v-72-16z"/><path d="m1424-1574.272v-1.728z"/><path d="m1616-1576v1.728h-192v-1.728z"/><path d="m1616-1576h-192 144z"/><path d="m1424-1574.272h192 16v2.432h-64-160v-2.432z"/><path d="m1408-1576v1.728 2.432h-64v-4.16z"/><path d="m1221.76-1856h2.24v56 168h-2.24z"/><path d="m1224-1632v56h-2.24v-56z"/><path d="m1344-1571.84h-122.24v-4.16h2.24 120z"/><path d="m1221.76-1632v56 4.16l90.24-60.16z"/><path d="m1224-1576h120z"/><path d="m1224-1856v56z"/><path d="m704-1104v-24-8.75z"/><path d="m704-1192v28-36z"/><path d="m704-1048v8-16z"/><path d="m704-1056v8z"/><path d="m704-1104v8 40z"/><path d="m1408-1976v-1.728h16v1.728 72h-16z"/><path d="m1424-1976v-1.728z"/><path d="m1408-1576v1.728z"/><path d="m1616-1576v-72h16v72 1.728h-16z"/><path d="m1408-1576v-72h16v72 1.728h-16z"/><path d="m1616-1576v1.728z"/><path d="m1704-1976 51.136 51.136 4.864 4.864 60.16 60.16-116.16-116.16-4.16-4.16z"/><path d="m72-520h-88 78.7692 32z"/><path d="m72-552h-9.2308-78.7692z"/><path d="m72-552h-88v32h88z"/><path d="m408-216v-22.7693 32 78.7693z"/><path d="m440-216-22.7692-22.7693h-9.2308v22.7693z"/><path d="m440-216h80v-32h-102.7692v9.2307z"/><path d="m440-216h-32v88h32z"/><path d="m72-216 22.7692-22.7693v-9.2307h-110.7692v32z"/><path d="m72-216v9.2307 78.7693z"/><path d="m72-216v88h32v-88z"/><path d="m1344-1312v96z"/><path d="m1192-1440h24-24-16z"/><path d="m1336-1248v48 96z"/><path d="m1344-1216v-96h-8v64 144h8z"/><path d="m1336-1312h8l-8-8z"/><path d="m1216-1432v-8h-24v8z"/><path d="m1216-1440v8l120 120v-8z"/><path d="m1216-1432 120 120z"/><path d="m1192-1440h-16-224v8h176 64z"/><path d="m1192-1432h-64z"/><path d="m952-1440h-16v8h16z"/><path d="m952-1432h-16 8z"/><path d="m704-1312v96 16z"/><path d="m704-1164v-28 64 24z"/><path d="m936-1440h-96l-8 8h104z"/><path d="m832-1432 8-8h-8l-128 128h8z"/><path d="m712-1248v-64h-8v112 36 60h8z"/><path d="m936-1432h-104 88z"/><path d="m712-1312v64z"/><path d="m832-1440-128 128z"/><path d="m1344-1104v80-66.6666-5.3334z"/><path d="m992-800h72z"/><path d="m1336-1104v176h8v-96-80z"/><path d="m1216-800v-8h-88-16v8z"/><path d="m1344-928h-8l-120 120v8z"/><path d="m1128-808h-16z"/><path d="m1216-808h-88z"/><path d="m1336-928-120 120z"/><path d="m1112-808h-176v8h56 72 48z"/><path d="m936-808h-32v8h32z"/><path d="m704-936v-104 112z"/><path d="m904-800h-72z"/><path d="m712-928-8-8v8l120 120h8z"/><path d="m904-808h-72-8l8 8h72z"/><path d="m704-1104v48 16 104l8 8v-176z"/><path d="m712-1104v176-64-48z"/><path d="m824-808-120-120 48 48 72 72 8 8z"/></g><g id="e"><path d="m512-640h-39.25-41.5-47.25z"/><path d="m264-640h64 56-16z"/><path d="m72-640h32z"/><path d="m528-280v88 8-32-32z"/><path d="m528-616v16z"/><path d="m528-640v24z"/><path d="m-16-160v-8-29.5385-18.4615z"/><path d="m-16-216v-32z"/><path d="m-16-520v48z"/><path d="m-16-520v-32z"/><path d="m-16-570.4615v-29.5385-8 32 24z"/><path d="m496-128h-8-48z"/><path d="m136-128h-32z"/><path d="m496-128 8-8h-8l-8 8z"/><path d="m528-160h-8l-24 24h8z"/><path d="m520-160h8v-8z"/><path d="m520-632v24z"/><path d="m528-440v-160-16-24h-8v8 24 192h8z"/><path d="m520-416v32 192h8v-88-136z"/><path d="m520-192v32l8-8v-16-8z"/><path d="m328-640h-64-144-16v8h224z"/><path d="m520-632v-8h-8-128-56v8z"/><path d="m328-632h-224 136z"/><path d="m104-632h-88z"/><path d="m104-640h-32-48l-8 8h88z"/><path d="m-16-600v29.5385h8v-37.5385z"/><path d="m-8-570.4615v50.4615-41.2307z"/><path d="m-16-570.4615v18.4615 32h8v-50.4615z"/><path d="m496-136h-32-136z"/><path d="m328-136h-224v8h32 192z"/><path d="m496-136h-168v8h48 64 48z"/><path d="m-16-520v48 176h8v-176-48z"/><path d="m-16-296v48h8v-48z"/><path d="m-8-472v176 48-136z"/><path d="m-8-520v48z"/><path d="m-8-197.5385v37.5385-46.7693z"/><path d="m104-136h-88l8 8h16 64z"/><path d="m-16-197.5385v29.5385l8 8v-37.5385z"/><path d="m-8-248v50.4615-9.2308z"/><path d="m-16-248v32 18.4615h8v-50.4615z"/><path d="m16-136-24-24v8l16 16z"/><path d="m16-136h-8l8 8h8z"/><path d="m-16-168v8l8 8v-8z"/><path d="m24-640h-8l-8 8h8z"/><path d="m-8-608 24-24h-8l-16 16z"/><path d="m-8-616-8 8v8l8-8z"/><path d="m952-1217.3913v-16-27.8261 5.2174 10.7826z"/><path d="m1336-1248v-64z"/><path d="m1336-1200v96z"/><path d="m968-1104v-96h-16v96z"/><path d="m968-1248h-16v14.6087 16 17.3913h16 112v-17.3913-16-14.6087z"/><path d="m1128-1200h-16-32v96h48z"/><path d="m1080-1200h32v-17.3913h-16-16z"/><path d="m1112-1248h-32v14.6087h16 16z"/><path d="m1080-1217.3913h16v-16h-16z"/><path d="m968-1432h-16v184h16z"/><path d="m1128-1432h-48v184h32 16z"/><path d="m1128-1200h208v-48h-208-16v14.6087 16 17.3913z"/><path d="m1336-1248h-208z"/><path d="m1216-1432 120 120z"/><path d="m968-1248h112z"/><path d="m1080-1432v88 96z"/><path d="m1080-1200v96z"/><path d="m1080-1200h-112z"/><path d="m1216-1432h-24z"/><path d="m968-1432h112 48-176z"/><path d="m1112-1217.3913v-16-27.8261-2.7826 16z"/><path d="m1096-1217.3913h16v-30.6087h-16z"/><path d="m1112-1233.3913h-16v-27.8261h16z"/><path d="m952-1432h-8v184h8z"/><path d="m952-1248h-8v14.6087h8z"/><path d="m944-1248v-184h-8v198.6087h8z"/><path d="m944-1200h8v-17.3913h-8z"/><path d="m952-1200h-8v96h8z"/><path d="m944-1104v-96-17.3913h-8v113.3913z"/><path d="m944-1217.3913h8v-27.8261-2.7826h-16v30.6087z"/><path d="m320-1488v8 192z"/><path d="m320-1288v32 56z"/><path d="m832-1432h88z"/><path d="m920-1200v96z"/><path d="m920-1248v-184z"/><path d="m936-1432h-16v184 14.6087h16z"/><path d="m920-1217.3913h16v-16h-16z"/><path d="m936-1217.3913h-16v17.3913 96h16z"/><path d="m712-1248h208z"/><path d="m712-1200v-48 144z"/><path d="m920-1200h-208z"/><path d="m920-1217.3913v-16-14.6087h-208v48h208z"/><path d="m80-1152v48z"/><path d="m88-1488h224 8-240z"/><path d="m88-1328v64 160-168.64-24z"/><path d="m312-1480v152z"/><path d="m320-1288v-192h-8v152 72h8z"/><path d="m312-1256v152h8v-96-56z"/><path d="m320-1480v-8h-8v8z"/><path d="m312-1488h-224v8h224z"/><path d="m88-1328v-152-8h-8v200 24h8z"/><path d="m80-1264v112 48h8v-160z"/><path d="m1080-1104v64h32 16v-64z"/><path d="m944-1096h24v-8h-16-8z"/><path d="m920-1096h16 8v-8h-8-16z"/><path d="m1128-992h208v-48h-208-16v17.3914 16 14.6086z"/><path d="m1096-1006.6086h-16v14.6086h32v-14.6086z"/><path d="m1080-1022.6086v16h16v-16z"/><path d="m1080-1040v17.3914h16 16v-17.3914z"/><path d="m1128-992h-16-32v184h32 16z"/><path d="m968-992h112v-14.6086-16-17.3914h-112-16v25.3914 16 6.6086z"/><path d="m936-992h16v-6.6086h-16z"/><path d="m936-1040h16 16v-56h-24-8z"/><path d="m952-1040h-16v25.3914h16z"/><path d="m968-992h-16-16v120 64h32z"/><path d="m936-872v-120-6.6086-16-25.3914-56h-16v56 48 120z"/><path d="m920-808h16v-64h-16z"/><path d="m920-1040h-16v48h16z"/><path d="m1128-1104v64z"/><path d="m1336-1040h-208z"/><path d="m1216-808h-88z"/><path d="m1336-928-120 120z"/><path d="m1080-992h-112z"/><path d="m920-992h-16z"/><path d="m968-1104v8 56z"/><path d="m968-1040h112z"/><path d="m904-1040h16z"/><path d="m1080-808h-16-72-24z"/><path d="m1080-992v96 88z"/><path d="m904-808h16z"/><path d="m920-872v-120 184z"/><path d="m936-998.6086v22.6086-8-30.6086z"/><path d="m1112-1006.6086v-16 26.4346 12.174 3.826z"/><path d="m1336-1104v64 48 64z"/><path d="m1096-1022.6086v16 27.826 2.7826-16z"/><path d="m1096-1006.6086h16v26.4346 1.3914h-16z"/><path d="m952-1014.6086h-16v30.6086h16z"/><path d="m1112-808h-32-112-32z"/><path d="m936-808h-16-16z"/><path d="m320-1104v64z"/><path d="m904-808h-72z"/><path d="m712-1104v64z"/><path d="m712-928v-64z"/><path d="m904-992h-192z"/><path d="m712-1040h192z"/><path d="m904-1040h-192v48h192z"/><path d="m80-885.2v-10.8-152 184.4 39.6z"/><path d="m80-1048v-32z"/><path d="m312-896h-224z"/><path d="m312-1104v208h8v-144-64z"/><path d="m88-1104v208-200z"/><path d="m80-1104v24 32 152h8v-208z"/><path d="m320-885.2h-240v61.2h240z"/><path d="m320-885.2v-10.8h-8-224-8v10.8z"/><path d="m16-632-24 24z"/><path d="m417.2308-248h32 22.7692v-32h-40-24-23.5428-8.4572v32z"/><path d="m449.2308-248v32h22.7692v-32z"/><path d="m449.2308-216h-9.2308v9.2307 22.7693h32v-32z"/><path d="m40-552v32h22.7692v-32z"/><path d="m136-528v-24-32h-32v22.7693 32 9.2307h32z"/><path d="m40-561.2307v9.2307h22.7692 9.2308v-9.2307z"/><path d="m94.7692-529.2307v9.2307h9.2308v-9.2307z"/><path d="m72-561.2307h32v-22.7693h-64v22.7693z"/><path d="m104-520h-9.2308-32-22.7692v32h64 32v-23.5294-8.4706z"/><path d="m376-238.7693v32h32v-32z"/><path d="m376-248v9.2307h32 9.2308v-9.2307z"/><path d="m408-206.7693h-32v22.7693h64v-22.7693z"/><path d="m136-224v-24-16.4706-15.5294h-32v41.2307 32 22.7693h32z"/><path d="m94.7692-280h-54.7692v32h22.7692 32z"/><path d="m104-280h-9.2308v32 9.2307h9.2308z"/><path d="m72-184h32v-22.7693h-32z"/><path d="m40-184h32v-22.7693-9.2307h-9.2308-22.7692z"/><path d="m62.7692-248h-22.7692v32h22.7692z"/><path d="m-8-384v136 41.2307 46.7693-24-192z"/><path d="m240-632h-136-88 24z"/><path d="m464-632h-136-88 24z"/><path d="m496-136h-24-8z"/><path d="m472-280v32 32 32z"/><path d="m136-184h-32-32-32z"/><path d="m40-216v-32-32 96z"/><path d="m40-520v-32-9.2307-22.7693 96z"/><path d="m136-584v32z"/><path d="m472-280h-40z"/><path d="m136-552v24z"/><path d="m408-280h24z"/><path d="m136-488h-32 19.4286z"/><path d="m136-511.5294v23.5294z"/><path d="m136-280v15.5294z"/><path d="m136-248v24z"/><path d="m104-488h-64 40z"/><path d="m464-632h56-192z"/><path d="m-8-608v37.5385 9.2308z"/><path d="m62.7692-552v32h-78.7692v-32z"/><path d="m94.7692-520v-9.2307l-22.7692-22.7693v32z"/><path d="m104-206.7693v-32 22.7693 88z"/><path d="m408-206.7693h32v78.7693h-32z"/><path d="m328-136h-88-136z"/><path d="m449.2308-216v-32h70.7692v32z"/><path d="m440-216h9.2308 70.7692z"/><path d="m72-206.7693h32v78.7693h-32z"/><path d="m104-136h-88z"/><path d="m62.7692-248v32h-78.7692v-32z"/><path d="m62.7692-216h9.2308-88z"/><path d="m104-238.7693h-9.2308l-22.7692 22.7693h32z"/><path d="m1080-1200h-112v96h112z"/><path d="m1056-1344h-64-24v96h112v-96z"/><path d="m992-1344v-64-24h-24v88z"/><path d="m992-1432v24h64v-24z"/><path d="m1080-1432h-24v24 64h24z"/><path d="m1336-1200h-208v96h208z"/><path d="m1336-1248v-64l-120-120h-88v184z"/><path d="m1056-1344v-64z"/><path d="m992-1408v64z"/><path d="m1056-1408h-64z"/><path d="m1128-1432v184z"/><path d="m1128-1200v96z"/><path d="m1216-1432h-24-64z"/><path d="m1336-1200h-208z"/><path d="m992-1432h64 24-112z"/><path d="m968-1344v-88 184z"/><path d="m968-1200v96z"/><path d="m920-1248v-184h-88l-120 120v64z"/><path d="m832-1432-120 120z"/><path d="m712-1200v96z"/><path d="m920-1200h-208v96h192 16z"/><path d="m920-992h-16v184h16z"/><path d="m968-808h24v-24-64h-24z"/><path d="m1064-808v-24h-8-64v24z"/><path d="m1056-896v64h8v-64z"/><path d="m1064-832v24h16v-88h-16z"/><path d="m968-992v96h24 64 8 16v-96z"/><path d="m1216-808 120-120v-64h-208v184z"/><path d="m904-1040h16v-64h-16z"/><path d="m968-1104v64h112v-64z"/><path d="m1128-1104v64h208v-64z"/><path d="m992-896v64z"/><path d="m1056-832v-64z"/><path d="m1056-896h-64z"/><path d="m1128-992v184z"/><path d="m1336-992h-208z"/><path d="m1336-1104v64z"/><path d="m1336-928v-64z"/><path d="m1080-1104v64z"/><path d="m920-1104v64-56z"/><path d="m968-896v-96 184z"/><path d="m832-808h72z"/><path d="m712-1104v64h192v-64z"/><path d="m904-992h-192v64l120 120h72z"/><path d="m712-928 120 120z"/><path d="m432-552h-72z"/><path d="m272-248h-8-24-104z"/><path d="m432-504v200 24-48z"/><path d="m360-528h-224 104 24z"/><path d="m360-552h-224v24h224z"/><path d="m408-528h24v-24h-72v24z"/><path d="m408-528v24z"/><path d="m432-504v-24h-24v24 200h24z"/><path d="m408-304v24h24v-24z"/><path d="m376-248v-32z"/><path d="m104-280h32-16.4571z"/><path d="m376-224v40-22.7693-32-9.2307z"/><path d="m136-224v40z"/><path d="m376-224h-240z"/><path d="m376-248h-104-136v24h240z"/><path d="m80-280h-40 54.7692 9.2308z"/><path d="m80-488v208z"/><path d="m104-488h-24v208h24z"/><path d="m992-1344h64z"/><path d="m1056-1408h-64v64h64z"/><path d="m992-832h64z"/><path d="m1056-896h-64v64h64z"/><path d="m272-248h104z"/><path d="m384-528h24-48z"/><path d="m136-528h104z"/><path d="m184-363.2941-28.8 59.2941-11.6571 24-7.5429 15.5294 19.2-39.5294z"/><path d="m136-264.4706v16.4706z"/><path d="m252-503.2941 60 123.5295z"/><path d="m372.8-304 3.2 6.5883 8.4572 17.4117-8.4572-17.4117-3.2-6.5883-36.8-75.7646z"/><path d="m384.4572-280h23.5428z"/><path d="m408-528h-24l-60 123.5294 12 24.706z"/><path d="m384-528-60 123.5294z"/><path d="m376-280h8.4572z"/><path d="m376-280h8.4572l-8.4572-17.4117z"/><path d="m336-379.7646-12-24.706-60-123.5294-12 24.7059 60 123.5295 12 24.7058 24.8 51.0588h24z"/><path d="m348.8-304 27.2 56v-32-17.4117l-3.2-6.5883z"/><path d="m264-248-8-16.4706-60-123.5294-12 24.7059 56 115.2941z"/><path d="m312-379.7646-56 115.294 8 16.4706h8l52-107.0588z"/><path d="m256-264.4706 56-115.294z"/><path d="m324-355.0588-52 107.0588z"/><path d="m196-388 60 123.5294z"/><path d="m104-280h15.5429z"/><path d="m136-313.8823 36-74.1177-36 74.1177-16.4571 33.8823z"/><path d="m184-412.7059 56-115.2941z"/><path d="m136-304v-9.8823l-16.4571 33.8823h16.4571z"/><path d="m184-363.2941 12-24.7059 56-115.2941 12-24.7059h-24l-56 115.2941-12 24.7059-36 74.1177v9.8823h19.2z"/><path d="m136-304v24h7.5429l11.6571-24z"/><path d="m136-511.5294 48 98.8235z"/><path d="m136-528v8 8.4706z"/><path d="m184-412.7059-48-98.8235v23.5294 25.8823l36 74.1177z"/><path d="m123.4286-488 12.5714 25.8823v-25.8823z"/><path d="m136-462.1177-12.5714-25.8823 12.5714 25.8823 36 74.1177z"/><path d="m136-280v15.5294l7.5429-15.5294z"/><path d="m95.68-1296.64h24 160.64 24v-183.36h-216.32v152 31.36z"/><path d="m312-1328v-152h-7.68v183.36 24 16.64h7.68z"/><path d="m304.32-1256v152h7.68v-152z"/><path d="m280.32-1272.64v-24h-160.64v24z"/><path d="m304.32-1104v-152-16.64h-24-160.64-24-7.68v168.64z"/><path d="m95.68-1296.64h-7.68v24h7.68z"/><path d="m88-1480v152z"/><path d="m312-1328v72 152-152z"/><path d="m304.32-1296.64h-24l-80.32-174.0267 4.16-9.0133h15.68z"/><path d="m304.32-1480h7.68-224z"/><path d="m304.32-1296.64-84.48-183.04v24l84.48 183.04z"/><path d="m312-1104v8 200z"/><path d="m304.32-1104v8h7.68v-8z"/><path d="m304.32-1096v-8h-216.32v8z"/><path d="m312-896v-200h-7.68-216.32v200z"/><path d="m496-136 24-24z"/><path d="m-8-160 24 24z"/><path d="m520-384v56 144 24-32z"/><path d="m520-608v8 48 168-32z"/><path d="m-8-600v-8 46.7693 41.2307 48 88z"/><path d="m472-632h48-56z"/><path d="m240-136h-200-24 88z"/><path d="m464-136h-200-24 88z"/><path d="m520-600v-8-24h-48v32z"/><path d="m520-384v-168h-48v224h48z"/><path d="m472-328v48 96h48v-144z"/><path d="m520-552v-48h-48v48z"/><path d="m496-136 24-24v-24h-48v48z"/><path d="m472-184h-32-64z"/><path d="m360-552h-224z"/><path d="m40-584h96v-16h-96z"/><path d="m360-600h-96-128v16 32h224z"/><path d="m472-600h-112v48h72 40z"/><path d="m264-632h-24-200v32h96 128z"/><path d="m472-632h-8-200v32h96 112z"/><path d="m40-584h64 32z"/><path d="m432-552v24 24z"/><path d="m472-328v-224h-40v48 176z"/><path d="m472-280v-48h-40v48z"/><path d="m376-224v40z"/><path d="m376-224h-240v40h128 112z"/><path d="m80-280h-40z"/><path d="m40-488h40z"/><path d="m80-488h-40v112 96h40z"/><path d="m40-632h-24l-24 24v8h48z"/><path d="m40-488v-96-16h-48v216 8h48z"/><path d="m-8-376v192h48v-96-96z"/><path d="m-8-184v24l24 24h24v-48z"/><path d="m264-184h-128-96v48h200 24z"/><path d="m472-184h-96-112v48h200 8z"/><path d="m119.5429-280 16.4571-33.8823v9.8823 24z"/><path d="m272-248h-8l-8-16.4706 56-115.294 12 24.7058z"/><path d="m256-264.4706 8 16.4706h-24l-56-115.2941 12-24.7059z"/><path d="m376-297.4117 8.4572 17.4117h-8.4572z"/><path d="m136-462.1177-12.5714-25.8823h12.5714z"/><path d="m136-462.1177v-25.8823-23.5294l48 98.8235-12 24.7059z"/><path d="m324-355.0588-12-24.7058-60-123.5295 12-24.7059 60 123.5294 12 24.706 36.8 75.7646h-24z"/><path d="m372.8-304 3.2 6.5883v17.4117 32l-27.2-56z"/><path d="m172-388 12-24.7059 56-115.2941h24l-12 24.7059-56 115.2941-12 24.7059-28.8 59.2941h-19.2v-9.8823z"/><path d="m155.2-304-19.2 39.5294v-15.5294-24z"/><path d="m384-528h24l-72 148.2354-12-24.706z"/><path d="m104-280h15.5429 16.4571z"/><path d="m408-528v24z"/><path d="m360-528h-96-24-104z"/><path d="m136-511.5294v23.5294-40z"/><path d="m376-248v-32z"/><path d="m104-488v208z"/><path d="m136-248h104z"/><path d="m360-528h24-24-96z"/><path d="m408-504v224-24z"/><path d="m252-503.2941-56 115.2941z"/><path d="m348.8-304 27.2 56-27.2-56-24.8-51.0588z"/><path d="m264-528 60 123.5294z"/><path d="m408-528-72 148.2354z"/><path d="m240-248-56-115.2941z"/><path d="m104-488h19.4286z"/><path d="m1736-1924.864h19.136l-51.136-51.136v51.136z"/><path d="m1736-1924.864h-32v20.736h32z"/><path d="m376-280h8.4572 23.5428z"/><path d="m408-504v96 128z"/><path d="m104-408v-80 208z"/><path d="m408-528h-24-24z"/><path d="m104-488h32-12.5714z"/><path d="m136-248v-32 15.5294z"/><path d="m136-248h104 24 8 104z"/><path d="m1760-1920-4.864-4.864h-19.136v20.736 8.128z"/><path d="m1424-1648h-16v-16h16z"/><path d="m1424-1888h-16v-16h16z"/><path d="m1632-1648h-16v-16h16z"/><path d="m1640-1888h-16v-16h16z"/><path d="m1332.3521-1856v-24-26.432l-39.5521-26.368-71.04 71.04v5.76z"/><path d="m1640-1888v-16-73.728 1.728 14.272z"/><path d="m1408-1888h16v-88h-16z"/><path d="m1640-1904h-16v-73.728h16z"/><path d="m1624-1904v16-73.728-14.272-1.728z"/><path d="m1424-1888v-16-72z"/><path d="m1408-1664v88h16v-88z"/><path d="m1616-1664v88h16v-88z"/><path d="m1408-1648v72-88z"/><path d="m1616-1648v72-88z"/><path d="m1332.3521-1645.568-20.3521 13.568-90.24 60.16h122.24v-73.728z"/><path d="m1332.3521-1856h-110.5921v224h90.24l20.3521-13.568z"/><path d="m1592-1904.128h112v-20.736-51.136l-4.16-4.16h-59.84-123.2v76.032z"/><path d="m1335.808-1880v-24.128l-3.4559-2.304v26.432z"/><path d="m1335.808-1880h-3.4559v24h3.6479v-24z"/><path d="m1560-1648h-224 220.3521z"/><path d="m1704-1680.128v-199.872 200z"/><path d="m1736-1872v191.872 32.128-8-139.84z"/><path d="m1736-1872v-32.128h-32v24.128 199.872h32z"/><path d="m1704-1680.128v.128 32h32v-32.128z"/><path d="m1336-1680v-200 24 208z"/><path d="m1704-1680h-112z"/><path d="m1592-1880h-224z"/><path d="m1592-1904.128h-75.2-148.8v24.128h224z"/><path d="m1704-1880v-24.128h-112v24.128z"/><path d="m1368-1880v-24.128h-32v24.128 200h32z"/><path d="m1560-1680h-192-32v32h224z"/><path d="m1704-1648v-32h-112-32v32z"/><path d="m1336-1880h-.192z"/><path d="m1336-1904.128h-.192v24.128h.192z"/><path d="m1336-1856h-3.6479v210.432l3.6479-2.432z"/><path d="m1736-1648h-32-144z"/><path d="m1744-1648-8-8v8z"/><path d="m1556.3521-1648h-220.3521l-3.6479 2.432h11.6479 212.3521z"/><path d="m1744-1648h-8-176-3.6479v2.432h11.6479 178.432z"/><path d="m1736-1795.84v139.84l8 8 2.432 2.432 45.568 45.568 28.16 28.16v-4.16-91.84-128z"/><path d="m1736-1896v-8.128 32.128z"/><path d="m1704-1880v200z"/><path d="m1592-1880h-224z"/><path d="m1704-1680h-112z"/><path d="m1592-1680h-224 192z"/><path d="m1368-1880v200z"/><path d="m1704-1880h-112z"/></g><g id="f"><path d="m1336-1912h32v32 200h-32z"/><path d="m1560-1648h-224v-32h32 192z"/><path d="m1592-1680h112 24v32h-168v-32z"/><path d="m1592-1880h-224v-32h224z"/><path d="m1728-1912v32h-24-112v-32z"/><path d="m1704-1880h24v200h-24z"/><path d="m1368-1880v200z"/><path d="m1704-1880h-112z"/><path d="m1592-1680h-32-192z"/></g></defs><g stroke="#000"><use fill="none" stroke-miterlimit="0" stroke-width="10" xlink:href="#a"/><use fill="#bfbfbf" xlink:href="#a"/><use fill="none" stroke-miterlimit="0" stroke-width="10" xlink:href="#b"/><use fill="#ccc" xlink:href="#b"/><use fill="none" stroke-miterlimit="0" stroke-width="10" xlink:href="#c"/><use fill="#d9d9d9" xlink:href="#c"/><use fill="none" stroke-miterlimit="0" stroke-width="10" xlink:href="#d"/><use fill="#e5e5e5" xlink:href="#d"/><use fill="none" stroke-miterlimit="0" stroke-width="10" xlink:href="#e"/><use fill="#f2f2f2" xlink:href="#e"/><use fill="none" stroke-miterlimit="0" stroke-width="10" xlink:href="#f"/><use fill="#fff" xlink:href="#f"/></g></svg>