<svg viewBox="-648 -651.80810547 1296 1303.66308594" xmlns="http://www.w3.org/2000/svg" xmlns:xlink="http://www.w3.org/1999/xlink"><defs><g id="a"><path d="m387.4854 356.5614-3.9943-4.0054-44.0004 43.9995 3.9948 4.0059z"/><path d="m343.4855 400.5614-3.9948-4.0059.0001.0006 3.9945 4.0055z"/><path d="m383.4911 352.556 3.9943 4.0054v.0001l-3.9943-4.0057z"/><path d="m343.4855 400.5614-3.9944-4.0056 43.9999-43.9999 3.9945 4.0055z"/><path d="m-344.761 401.2859 57.2451 57.245z"/><path d="m343.4855 400.5614-20.0024 20.0024z"/><path d="m343.4855 400.5614-3.9947-4.0053z"/><path d="m339.4908 396.5561 3.9947 4.0053z"/><path d="m15.9065 384.9969-9.8291-56.3075h22.3456z"/><path d="m387.4855 356.5614-3.9944-4.0056z"/><path d="m383.491 352.5559-43.9999 43.9999-123.4911 123.4911v-105.4359-62.5641h168z"/><path d="m383.491 352.5559.509-.509 56-56 88-88v8l-140.5145 140.5145z"/><path d="m216 352.0469v-161.4359l38.5122-37.5448 25.664-25.0193h103.8238 18.1791 37.8209v168l-56 56z"/><path d="m-544 352.0469v96 80h-96v-15.509-160.491z"/><path d="m-544 352.0469v-128l16 16v21.6326 186.3674h-16z"/><path d="m640 352.0469v160.491 15.509h-112v-66-110z"/><path d="m383.4911 352.5558 3.9944 4.0056z"/><path d="m406.8739 337.1729-19.3884 19.3885z"/><path d="m6.0774 328.6894-39.1019-224.0005 88.83 100.816-27.3825 123.1845z"/><path d="m-489.4157 300.3703 10.8846-10.8545z"/><path d="m-640 288.5378v63.5091 160.491h-8v-84.683-139.3171z"/><path d="m648 288.5379v139.3171 84.683l-8-.0001v-160.491-63.509z"/><path d="m-309.6643 480.6183-45.4172-45.5427-134.3342-134.7053 179.7513 180.2479z"/><path d="m460.6848 283.3621-74.4111 74.411 1.2118-1.2117 19.3884-19.3885z"/><path d="m-7.5404 252.0469 23.2531 133.8205-92.503 90.1795h-141.2097v-4.1897-143.9623-75.848z"/><path d="m-440.9584 252.0469-26.5575 26.4841-26.4841-26.4841z"/><path d="m-218 252.0469v75.848l-76.0581-75.848z"/><path d="m-294.6786 251.4281.6205.6188 76.0581 75.848v143.9623h-56.1896l-70.989-70.989 46.9192-153.011z"/><path d="m-294.6786 251.4281-3.5808-3.5709-47.6402-47.5086-21.6087-21.549-151.1703-150.7527h218.6786 5.3214z"/><path d="m-298.5311 469.5157 58.5311 58.5312-109.9082-109.9083z"/><path d="m-528 240.0469 49.4689 49.4688-10.8846 10.8546-38.5843-38.6908z"/><path d="m528 238.0469v2 112 110h-66v-158z"/><path d="m544 224.0469 96-96v160.491 63.509h-112v-112z"/><path d="m-544 224.0469v128h-96v-63.5091-160.4909z"/><path d="m-528 218.0469 60.4841 60.4841z"/><path d="m528 216.0469-88 88-67.4811 67.4811 13.7548-13.7549 74.4111-74.411z"/><path d="m-478.5311 289.5158-10.8847 10.8544.0001.0001z"/><path d="m648 203.855v-75.8081z"/><path d="m-489.4157 300.3703-.0001-.0001 179.7514 180.248z"/><path d="m-345.8867 200.3615 9.3026 9.277-57.5188-4.3177 8.8858-8.8615z"/><path d="m-385.2065 196.449 17.6982-17.6494 21.6087 21.549z"/><path d="m-385.2171 196.4593-8.8858 8.8615-73.413 73.2102z"/><path d="m216 190.611v224h-122.1301v-104.9376z"/><path d="m254.0669 153.184-63.0914 16.6498v-27.3072z"/><path d="m177.5365 140.0761-210.7122-35.5589-13.2878-76.4703h194.4635 29.5365z"/><path d="m440 128.0469h88v80l-88 88z"/><path d="m384 128.0469v-34.466l18.1791 34.466z"/><path d="m648 128.0469v-8z"/><path d="m-524-34.9531h-6v63h6z"/><path d="m-524 28.0469h-6z"/><path d="m-530-34.9531h6z"/><path d="m-544 64.5379v159.509l-96-96v-63.509z"/><path d="m-640 64.5379v63.509 160.4909h-8v-84.6829-139.3171z"/><path d="m648 64.5379v-139.9639 103.4729 48.8723 11.1277 30 2z"/><path d="m648 64.5379v55.509 8 75.8081 84.6829h-8v-160.491-63.509z"/><path d="m-240 528.0469-58.5311-58.5312z"/><path d="m190.9755 169.8338 63.0914-16.6498-238.1604 231.8129 12.5165-56.3075 27.3825-123.1845z"/><path d="m190.9755 169.8338-135.17 35.6711-88.83-100.816 224 37.8377z"/><path d="m-528 28.0469h4 5.3214l151.1703 150.7527-17.6982 17.6494-55.7519 55.5979h-53.0416l-34-34z"/><path d="m-218 28.0469v224h-76.0581l-.6205-.6188v-223.3812z"/><path d="m-218 28.0469h142 29.5365l13.2878 76.4703 25.6353 147.5297h-210.4596z"/><path d="m382.7527 28.0469-102.5765 100-25.664 25.0193-76.9757-12.9901v-112.0292z"/><path d="m-524 28.0469h-4v-63h4z"/><path d="m382.7527 28.0469 1.2473-1.216v66.75 34.466h-103.8238z"/><path d="m-518.6786 28.0469h-5.3214v-63-40.4726h224v103.4726z"/><path d="m-528 28.0469h4z"/><path d="m-524 28.0469h-4z"/><path d="m528 128.0469h-125.7956 3.864z"/><path d="m640 1.2612v63.2767 63.509l-96 96v-222.7857z"/><path d="m544 .0469v224z"/><path d="m-528-34.9531h4z"/><path d="m-524-34.9531h-4z"/><path d="m343.4853 400.5616-3.9945-4.0055 4.9275-4.9275 4.0013 3.9986z"/><path d="m343.4855 400.5614-3.9947-4.0053 4.9275-4.9275 4.0013 3.9987z"/><path d="m339.4908 396.5561 44.0003-44.0003-1.2343 1.2342-13.7338 13.7338-13.6199 13.62-10.4848 10.4848z"/><path d="m339.4908 396.5561-.0001-.0006 44.0004-43.9995v-.0002l-1.2343 1.2342-13.7335 13.7341-13.6198 13.6199-10.4852 10.4846z"/><path d="m-300-75.4257h-224v-146.5274h224z"/><path d="m154.2437-75.4257h-6.2437-22.2787l-164.0325-228.5274h192.5549z"/><path d="m-300-75.4257h37.2248 186.7752v103.4726h-142-76.6786-5.3214z"/><path d="m-76-75.4257h201.7213 22.2787v103.4726h-194.4635-29.5365z"/><path d="m148-75.4257h6.2437 229.7563v102.2566l-1.2473 1.216h-205.2162-29.5365z"/><path d="m-240 640.0469h22z"/><path d="m240 640.0469h-24z"/><path d="m238 528.0469h2z"/><path d="m-478.5311 289.5158-65.4689-65.4689z"/><path d="m-298.5311 469.5157 58.5311 58.5312z"/><path d="m544 224.0469-16 16z"/><path d="m-528 28.0469v190z"/><path d="m-528 28.0469v-5.45-15.9367-20.9733-14.5095-6.1305z"/><path d="m528 216.0469v-88z"/><path d="m528 240.0469v-2z"/><path d="m544 224.0469v-224z"/><path d="m462 304.0469-224 224z"/><path d="m528 238.0469-66 66z"/><path d="m-218 528.0469-69.5159-69.516z"/><path d="m-467.5159 278.531-60.4841-60.4841z"/><path d="m-544 224.0469v-224z"/><path d="m-298.5311 469.5157-11.1332 11.1026-.0001-.0001z"/><path d="m216 528.0469v112z"/><path d="m240 528.0469v112z"/><path d="m-218 640.0469v-112z"/><path d="m-240 528.0469v112z"/><path d="m384-84.6366v55.7707 66.4068 56.0015z"/><path d="m384-84.6257v-43.3274h24.9025z"/><path d="m-187.2589 358.5511-110.7252-110.4193-46.7769 153.1541 57.2451 57.245z"/><path d="m-187.2589 358.5511-.0001-.0001-56.2569-56.1014-93.0682-92.8111-9.3026-9.277 47.9026 47.7703z"/><path d="m-528-118.5769v63.773 19.8508 6.1305z"/><path d="m383.4911 352.5558 3.9944 4.0056-1.2118 1.2117-4.0169-3.9831z"/><path d="m383.4911 352.5558 3.9943 4.0057-1.2117 1.2116-4.0169-3.9831z"/><path d="m387.4855 356.5614-1.2118 1.2117-13.7548 13.7549-13.6199 13.6199-10.4794 10.4794-4.9341 4.9341z"/><path d="m387.4854 356.5615v-.0001l-43.9999 44-.0002.0002 4.9343-4.9344 10.4794-10.4793 13.6199-13.6199 13.7548-13.7549z"/><path d="m90.7812-124.2195 34.9903 48.8225-85.3992-48.8226z"/><path d="m408.8889-127.9531h36.4492l-61.3381 99.0872v-55.7707z"/><path d="m544-129.1502v-94.8029l48.0043 48.0044z"/><path d="m544-129.1502 48.0043-46.7985 15.9957-15.5939 32-31.1962v63.2767 160.7233h-96z"/><path d="m382.2568 353.79 4.0169 3.9831 1.2118-1.2117-3.9944-4.0056z"/><path d="m-544-159.4621v224h-96v-224z"/><path d="m-640-159.4621v224l-8-.0001v-84.6829-139.317z"/><path d="m648-159.4621v84.0361 139.9639h-8v-63.2767-160.7233z"/><path d="m344.4183 391.6286 10.4848-10.4848 13.6199-13.62 13.7338-13.7338 1.2343-1.2342-44.0003 44.0003z"/><path d="m348.4196 395.6273-4.0013-3.9987 10.4848-10.4848 3.9959 4.0041z"/><path d="m348.4196 395.6273-4.0013-3.9987-4.9275 4.9275 3.9947 4.0053z"/><path d="m348.4196 395.6272-4.0013-3.9986 10.4852-10.4846 3.9955 4.0039z"/><path d="m608-191.5426-15.9957 15.5939-48.0043-48.0044-159.509-159.509h223.509z"/><path d="m-528-217.9531 4-4v146.5274 40.4726h-4z"/><path d="m528-217.9531v90h-119.0975-24.9025v-176-58z"/><path d="m-524-221.9531 224-224v142 82z"/><path d="m-544-223.9531v224z"/><path d="m528 216.0469-88 88z"/><path d="m216 528.0469 107.4831-107.4831 20.0024-20.0024 4.9341-4.9341 2.5804-2.5804z"/><path d="m358.899 385.1479-7.899 7.899-2.5804 2.5804z"/><path d="m372.5189 371.528-3.9959-4.0042-13.6199 13.62 3.9959 4.0041z"/><path d="m358.899 385.1479-3.9959-4.0041 13.6199-13.62 3.9959 4.0042z"/><path d="m368.523 367.5238 13.7338-13.7338 4.0169 3.9831-13.7548 13.7549z"/><path d="m372.5189 371.528 13.7548-13.7549-4.0169-3.9831-13.7338 13.7338z"/><path d="m358.899 385.1479-3.9959-4.0041-10.4848 10.4848 4.0013 3.9987z"/><path d="m358.899 385.1479-3.9955-4.0039 13.6198-13.6199 3.9956 4.0039z"/><path d="m368.5233 367.5241 13.7335-13.7341 4.0169 3.9831-13.7548 13.7549z"/><path d="m528-239.9531 16 16z"/><path d="m528-239.9531-80-80z"/><path d="m442-303.9531-224-224z"/><path d="m-100.8059-303.9531-161.9693 228.5274h-37.2248v-146.5274-82z"/><path d="m-38.3112-303.9531-31.4451-43.8088 127.7109-180.1912h96.2891v224z"/><path d="m384-303.9531v176 43.3274 9.2h-229.7563v-228.5274z"/><path d="m-178.2408-124.2197-84.5851 48.8233 34.5507-48.8233z"/><path d="m-178.2408-124.2197 108.782-62.7899 30.6336 17.513v94.0996l-224.0007.0006z"/><path d="m-76-338.9531-24.8059 35h-199.1941v-142l82-82h142z"/><path d="m384.491-383.4621-.491-.491v-160-63.509l96-.0004 128 .0004v224z"/><path d="m-544-383.4621v159.509 64.491h-96v-224z"/><path d="m-384.491-383.4621-159.509 159.509v-159.509z"/><path d="m640-383.4621v160.7233l-32 31.1962v-191.9195z"/><path d="m-640-383.4621v224h-8v-84.683-139.317z"/><path d="m648-383.462v187.5089 36.491h-8v-63.2767-160.7233z"/><path d="m-524-34.9531v63-5.45-15.9367-20.9733-14.5095z"/><path d="m-524-34.9531v63-5.45-15.9367-20.9733-14.5095z"/><path d="m-530-34.9531h6v6.1305l-6 .0001z"/><path d="m-528-34.9531v-19.8508z"/><path d="m-528-34.9531h4v6.1305h-4z"/><path d="m-524 28.0469h-4v-5.45h4z"/><path d="m-530 28.0469v-63 6.1306 14.5094 20.9733 15.9368z"/><path d="m-524 28.0469h-6v-5.4499l6-.0001z"/><path d="m-648-468.1451v-139.3173l8-.0001v224.0004h-8z"/><path d="m-528 22.5969v-3.943-11.9937z"/><path d="m-524 22.5969h-4v-15.9367h4z"/><path d="m-524 22.5969h-4v5.45h4z"/><path d="m-524 22.5969-6 .0001v-15.9368h6z"/><path d="m-528-28.8226h4v-6.1305h-4z"/><path d="m-524-28.8226v14.5095 20.9733 15.9367 5.45-63z"/><path d="m-187.259 358.551-56.257 56.1015.0001-112.2029z"/><path d="m-38.8252-169.4966 79.1975 45.277 85.3992 48.8226h-164.5967z"/><path d="m-38.8252-169.4966-30.6336-17.513-.2985-161.2101 160.5385 224.0002-50.4089-.0001z"/><path d="m57.9546-527.9531-127.7109 180.1912-6.2437 8.8088v-189z"/><path d="m218-527.9531 166 166v58h-229.7563v-224z"/><path d="m224-543.9531h160v160z"/><path d="m-528 28.0469v-9.393 3.943z"/><path d="m-528-195.9531v-22 99.3762 89.7543 14.5095z"/><path d="m-528-195.9531v181.64 20.9733 11.9937 9.393z"/><path d="m-524 6.6602h-4v-20.9733h4z"/><path d="m-524-14.3131h-4v20.9733h4z"/><path d="m-528-14.3131v-14.5095h4v14.5095z"/><path d="m-524-14.3131v-14.5095h-4v14.5095z"/><path d="m-524 6.6602h-4v15.9367h4z"/><path d="m-524 6.6602h-6v-20.9733h6z"/><path d="m-530-14.3131v-14.5094l6-.0001v14.5095z"/><path d="m-69.4588-187.0096-108.782 62.7899h-50.0344l158.5179-224z"/><path d="m640-607.5293v.0668l-32 .0004-128-.0004v-.0669z"/><path d="m480-607.5294h-224v-32.4237h224z"/><path d="m-416-607.5294-224 .0001v-32.4238h224z"/><path d="m-192-607.5294h-224v-32.4237h224z"/><path d="m32-607.5294h-224v-32.4237h224z"/><path d="m256-607.5294h-224v-32.4237h224z"/><path d="m-640-607.5293v.0668l-8 .0001v-32.4907h8z"/><path d="m-544-607.4621 128-.0004 96 .0004v159.509l-64.491 64.491h-159.509z"/><path d="m-320-607.4621 128-.0004 31.509.0004-63.509 63.509-96 96z"/><path d="m-160.491-607.4621h160.491v63.509h-224z"/><path d="m0-607.4621 32-.0004 192 .0004v63.509h-224z"/><path d="m224-607.4621 32-.0004 128 .0004v63.509h-160z"/><path d="m-648-607.4624v139.3173-178.6866z"/><path d="m648-607.4619-8-.0006v-.0668-32.4238h8z"/><path d="m-640-607.4625 96 .0004v224h-96z"/><path d="m640-607.4625 8 .0006v187.5088 36.4911l-8-.0001z"/><path d="m640-607.4625v224.0004h-32v-224z"/><path d="m-416-607.4625-128 .0004-96-.0004v-.0668l224-.0001z"/><path d="m-192-607.4625-128 .0004-96-.0004v-.0669h224z"/><path d="m32-607.4625-32 .0004h-160.491l-31.509-.0004v-.0669h224z"/><path d="m256-607.4625-32 .0004-192-.0004v-.0669h224z"/><path d="m480-607.4625-96 .0004-128-.0004v-.0669h224z"/><path d="m-243.516 414.6525-14.7089 14.6683h-58.5012l-150.7898-150.7898 73.413-73.2102 57.5188 4.3177 93.0682 92.8111z"/><path d="m384 37.5409 37.4707 58.506 20.4943 32h-35.8966-3.864l-18.2044-34.5045z"/><path d="m384-28.8659 61.3381-99.0872h82.6619v32 192h-106.5293l-37.4707-58.506z"/><path d="m-258.2249 429.3208-29.291 29.2101-29.2102-29.2101z"/><path d="m-258.2249 429.3208 14.7089-14.6683 56.257-56.1015.0001.0001-100.257 99.9798z"/><path d="m-467.5159 278.531 150.7898 150.7898 29.2102 29.2101z"/><path d="m441.965 128.0469h86.035-121.9316z"/><path d="m445.3381-127.9531h-36.4492 119.1111z"/><path d="m-298.5311 469.5157-180-179.9999z"/><path d="m-489.4158 300.3702 10.8847-10.8544 180 179.9999-11.1333 11.1025z"/><path d="m528-127.9531v32z"/><path d="m528-127.9531v-90z"/><path d="m528 96.0469v32h-86.035l-20.4943-32z"/><path d="m-240 640.0469h22z"/><path d="m240 640.0469h-24z"/><path d="m238 528.0469h2z"/><path d="m-478.5311 289.5158-65.4689-65.4689z"/><path d="m-478.5311 289.5158 180 179.9999z"/><path d="m-298.5311 469.5157 58.5311 58.5312z"/><path d="m544 224.0469-16 16z"/><path d="m-224-543.9531h224z"/><path d="m0-543.9531h224z"/><path d="m-528 28.0469v190z"/><path d="m-528 28.0469v-224z"/><path d="m-528-217.9531v22z"/><path d="m528 216.0469v-88z"/><path d="m528 240.0469v-2z"/><path d="m528 128.0469v-32-192z"/><path d="m528-127.9531v32z"/><path d="m528-217.9531v90z"/><path d="m544 224.0469v-224z"/><path d="m544-223.9531v224z"/><path d="m544-223.9531-16-16z"/><path d="m216 528.0469 135-135 7.899-7.899 13.6199-13.6199 67.4811-67.4811z"/><path d="m528 216.0469-88 88z"/><path d="m462 304.0469-224 224z"/><path d="m528 238.0469-66 66z"/><path d="m-528-239.9531 224-224z"/><path d="m-304-463.9531 80-80z"/><path d="m-218 528.0469-69.5159-69.516z"/><path d="m-467.5159 278.531-60.4841-60.4841z"/><path d="m-287.5159 458.5309-180-179.9999z"/><path d="m224-543.9531 224 224z"/><path d="m528-239.9531-80-80z"/><path d="m218-527.9531 224 224z"/><path d="m528-217.9531-86-86z"/><path d="m6-527.9531h-224z"/><path d="m218-527.9531h-212z"/><path d="m-304-441.9531-224 224z"/><path d="m-218-527.9531-86 86z"/><path d="m-544 224.0469v-224z"/><path d="m-544-223.9531v224z"/><path d="m-544-223.9531 16-16z"/><path d="m216 528.0469v112z"/><path d="m240 528.0469v112z"/><path d="m-218 640.0469v-112z"/><path d="m-240 528.0469v112z"/><path d="m-240 640.0469h22z"/><path d="m240 640.0469h-24z"/><path d="m238 528.0469h2z"/><path d="m-478.5311 289.5158-65.4689-65.4689z"/><path d="m-478.5311 289.5158 152.5311 152.5311 22 22 5.4689 5.4688z"/><path d="m-298.5311 469.5157 58.5311 58.5312z"/><path d="m544 224.0469-16 16z"/><path d="m-224-543.9531h224z"/><path d="m0-543.9531h224z"/><path d="m-528 28.0469v190z"/><path d="m-528 28.0469v-44-180z"/><path d="m-528-217.9531v22z"/><path d="m528 216.0469v-88z"/><path d="m528 240.0469v-2z"/><path d="m528 128.0469v-224z"/><path d="m528-127.9531v32z"/><path d="m528-217.9531v90z"/><path d="m544 224.0469v-16-208z"/><path d="m544-223.9531v224z"/><path d="m544-223.9531-16-16z"/><path d="m216 528.0469 224-224z"/><path d="m528 216.0469-88 88z"/><path d="m462 304.0469-224 224z"/><path d="m528 238.0469-66 66z"/><path d="m-528-239.9531 224-224z"/><path d="m-304-463.9531 80-80z"/><path d="m-218 528.0469-69.5159-69.516z"/><path d="m-467.5159 278.531-60.4841-60.4841z"/><path d="m-287.5159 458.5309-16.4841-16.484-163.5159-163.5159z"/><path d="m224-543.9531 224 224z"/><path d="m528-239.9531-80-80z"/><path d="m218-527.9531 224 224z"/><path d="m528-217.9531-86-86z"/><path d="m6-527.9531h-224z"/><path d="m218-527.9531h-212z"/><path d="m-304-441.9531-224 224z"/><path d="m-218-527.9531-86 86z"/><path d="m-544 224.0469v-224z"/><path d="m-544-223.9531v208 16z"/><path d="m-544-223.9531 16-16z"/><path d="m216 528.0469v16 8 88z"/><path d="m240 528.0469v112z"/><path d="m-218 640.0469v-90-6-16z"/><path d="m-240 528.0469v112z"/></g><g id="b"><path d="m648 629.3366v2.833 7.8773 11.8081-11.8081-127.5089-84.683z"/><path d="m648-98.6157v-90.6072l-176 .0004v90.6068z"/><path d="m-424 629.3366-224 .0001v2.833l8-.0001h216z"/><path d="m-200 629.3366h-224v2.833h8 216z"/><path d="m24 629.3366h-224v2.833h8 216z"/><path d="m248 629.3366h-224v2.833h8 216z"/><path d="m472 629.3366h-224v2.833h8 216z"/><path d="m648 203.855v-75.8081-10-73.0052-16.9948 197.1687-6.4553z"/><path d="m640-189.2225 8-.0004v-6.7302-220h-8z"/><path d="m640-189.2225v-226.7306h-160v226.7306z"/><path d="m-416 632.1696h-8-216v7.8773h216 8z"/><path d="m-192 632.1696h-8-216v7.8773h216 8z"/><path d="m32 632.1696h-8-216v7.8773h216 8z"/><path d="m256 632.1696h-8-216v7.8773h216 8z"/><path d="m480 632.1696h-8-216v7.8773h216 8z"/><path d="m-648 632.1697v7.8772h8v-7.8773z"/><path d="m-424-189.2225-224-.0004v88.3057 2.3013l224 .0002z"/><path d="m-200-189.2225h-224v90.6068h224z"/><path d="m24-189.2225h-224v90.6068h224z"/><path d="m248-189.2225h-224v90.6068h224z"/><path d="m472-189.2225h-224v90.6068h224z"/><path d="m480 632.1696h160 8v-2.833h-176v2.833z"/><path d="m648-195.9531v6.7302 90.6072 126.6626z"/><path d="m-648 203.8549v84.6829 139.3171z"/><path d="m-648 203.8549v-224z"/><path d="m-648-244.1451v54.9222l8 .0004v-226.7306h-8z"/><path d="m648 28.0469v-103.4729-84.0361-36.491z"/><path d="m-416-415.9531v226.7306h224v-226.7306z"/><path d="m-192-415.9531v226.7306h224v-226.7306z"/><path d="m32-415.9531v226.7306h224v-226.7306z"/><path d="m256-415.9531v226.7306h216 8v-226.7306z"/><path d="m-640-415.9531v226.7306h224v-226.7306z"/><path d="m640-415.9531v-224h-160v224z"/><path d="m-640-415.9531v-224h-8v171.808 52.192z"/><path d="m648-415.9531v-4-220h-8v224z"/><path d="m648-419.9531v4 220z"/><path d="m-424 640.0469h-216-8v11.808h224z"/><path d="m-200 640.0469h-216-8v11.808h224z"/><path d="m24 640.0469h-216-8v11.808h224z"/><path d="m248 640.0469h-216-8v11.808h224z"/><path d="m472 640.0469h-216-8v11.808h224z"/><path d="m640 640.0469h8v-7.8773h-8z"/><path d="m640 640.0469v-7.8773h-160v7.8773z"/><path d="m-648-20.1451v84.6829 139.3171z"/><path d="m-648-20.1451v-78.4708-2.3013-88.3057-54.9222z"/><path d="m648 120.0469v-2 10z"/><path d="m648-195.9531v-187.5089-36.4911z"/><path d="m648 118.0469v-30-43.0052z"/><path d="m480-639.9531h160 8v-11.855l-176 .0002v11.8548z"/><path d="m-416-639.9531h-8-216v224h224z"/><path d="m-192-639.9531h-8-216v224h224z"/><path d="m32-639.9531h-8-216v224h224z"/><path d="m256-639.9531h-8-216v224h224z"/><path d="m480-639.9531h-8-216v224h224z"/><path d="m-424-651.8079-224 .0003v11.8545h8 216z"/><path d="m-200-651.8079h-224v11.8548h8 216z"/><path d="m24-651.8079h-224v11.8548h8 216z"/><path d="m248-651.8079h-224v11.8548h8 216z"/><path d="m472-651.8079h-224v11.8548h8 216z"/><path d="m648-651.8081v11.855 220-226.8789z"/><path d="m648-651.8081v4.9761 6.8789h-168-8v-11.8548z"/><path d="m-648-244.1451v84.683 139.317z"/><path d="m-648-244.1451v-171.808-52.192z"/><path d="m648 45.0417v43.0052-11.1277-48.8723z"/><path d="m648 118.0469v-30z"/><path d="m648 88.0469v-11.1277z"/><path d="m-648-468.1451v84.683 139.317z"/><path d="m-648-468.1451v-171.808-11.8545 4.9759z"/><path d="m648-419.9531v-187.5088-32.4912-6.8789z"/><path d="m-424 651.8549h-224v-11.808h8 96 16 104z"/><path d="m-200 651.8549h-224v-11.808h5.4797 178.5203 22 18z"/><path d="m24 651.8549h-224v-11.808h206 18z"/><path d="m248 651.8549h-224v-11.808h192 24 8z"/><path d="m472 651.8549h-224v-11.808h216 8z"/><path d="m648 651.855v-11.8081h-8-160-8v11.808z"/><path d="m648 120.0469v-2z"/><path d="m248 640.0469h-8v-112h222 2v112z"/><path d="m6 640.0469h-206-18v-26.3373l87.8699-85.6627h136.1301z"/><path d="m-240 640.0469h-178.5203l34.3436-112h144.1767z"/><path d="m-418.5203 640.0469h-5.4797-104v-112h143.8233z"/><path d="m640 640.0469h8v11.8081l-176-.0001v-11.808z"/><path d="m-218 640.0469h-22z"/><path d="m216 640.0469v-112z"/><path d="m-240 640.0469v-112z"/><path d="m216 528.0469v-8l123.4911-123.4911 3.9944 4.0056z"/><path d="m93.8699 528.0469h122.1301v112h-192-18v-112z"/><path d="m-130.1301 528.0469-87.8699 85.6627v-85.6627z"/><path d="m-528 528.0469v-42.3674h156.8148l-12.9915 42.3674z"/><path d="m-384.1767 528.0469 12.9915-42.3674 15.6551-51.0537 5.1885-16.9205 110.3416 110.3416z"/><path d="m464 528.0469h64 112v112h-168-8z"/><path d="m-528 528.0469v112h-16v-112z"/><path d="m-544 528.0469v112h-96v-112z"/><path d="m-218 528.0469-69.5159-69.516z"/><path d="m-218 528.0469v112z"/><path d="m-640 512.5379v15.509 112h-8v-127.509z"/><path d="m648 512.538v127.5089h-8v-112-15.509z"/><path d="m-528 485.6795v-37.6326-186.3674l38.5843 38.6908 133.8856 134.2555-15.6551 51.0537z"/><path d="m-76.7903 476.0469-53.3398 52h-87.8699v-52z"/><path d="m-218 471.8572v4.1897 52l-56.1896-56.1897z"/><path d="m462 462.0469v66h-222-2l224-224z"/><path d="m528 462.0469v66h-64-2v-66z"/><path d="m-528 448.0469v37.6326 42.3674h-16v-80z"/><path d="m-424-639.9531h-216-8v-11.8545l224-.0003z"/><path d="m-200-639.9531h-216-8v-11.8548h224z"/><path d="m24-639.9531h-216-8v-11.8548h224z"/><path d="m248-639.9531h-216-8v-11.8548h224z"/><path d="m472-639.9531h-216-8v-11.8548h224z"/><path d="m640-639.9531v32.4238l-160-.0001v-32.4237z"/><path d="m-355.0815 435.0756 45.4172 45.5427 11.1332-11.1026-51.3771-51.3771z"/><path d="m-648 427.8549v84.683 127.509 11.808-11.808-7.8772-2.833z"/><path d="m648 427.855v-139.3171-84.6829 14.9053 6.4553z"/><path d="m93.8699 414.611v113.4359h-87.8699-136.1301l53.3398-52 92.503-90.1795 78.1572-76.194z"/><path d="m216 414.611v113.4359h-122.1301v-113.4359z"/><path d="m216 640.0469h24z"/><path d="m-218 544.0469v6l-6-6z"/><path d="m-326 442.0469-152.5311-152.5311-49.4689-49.4689v-22l60.4841 60.4841 163.5159 163.5159z"/><path d="m-304 464.0469-22-22h22z"/><path d="m-287.5159 458.5309 69.5159 69.516h-22l-58.5311-58.5312-5.4689-5.4688v-22z"/><path d="m-240 528.0469h22v16h-6z"/><path d="m-218 640.0469h-22v-112l16 16 6 6z"/><path d="m240 640.0469h-24v-88l8-8 16-16z"/><path d="m440 326.0469-202 202h-22l224-224z"/><path d="m528 216.0469v22l-66 66-22 22v-22z"/><path d="m238 528.0469h2l-16 16h-8v-16z"/><path d="m224 544.0469-8 8v-8z"/><path d="m-544-223.9531 16-16v22 22 180h-16z"/><path d="m-528-15.9531v44 180h-16v-208-16z"/><path d="m-528 208.0469v10 22l-16-16v-16z"/><path d="m-16-527.9531h-202-22l16-16h208z"/><path d="m208-527.9531h-202-22v-16h16 208z"/><path d="m224-543.9531 16 16h-22-10v-16z"/><path d="m-304-441.9531-202 202h-22l224-224z"/><path d="m-506-239.9531-22 22v-22z"/><path d="m-240-527.9531h22l-86 86v-22z"/><path d="m442-303.9531-224-224h22l202 202z"/><path d="m448-319.9531 80 80v22l-86-86v-22z"/><path d="m528-95.9531v-32-90-22l16 16v208h-16z"/><path d="m544-15.9531v16 208h-16v-80-144z"/><path d="m544 208.0469v16l-16 16v-2-22-8z"/><path d="m240 528.0469h-2z"/><path d="m-528 240.0469 49.4689 49.4689-65.4689-65.4689z"/><path d="m528 240.0469 16-16z"/><path d="m0-543.9531h-16-208z"/><path d="m224-543.9531h-16-208z"/><path d="m-528 218.0469v-10-180z"/><path d="m-528-217.9531v22z"/><path d="m528 128.0469v80 8z"/><path d="m528 238.0469v2z"/><path d="m528-95.9531v80 144z"/><path d="m544-15.9531v-208 224z"/><path d="m440 304.0469-224 224z"/><path d="m238 528.0469 202-202 22-22z"/><path d="m462 304.0469 66-66z"/><path d="m-304-463.9531-224 224z"/><path d="m-224-543.9531-16 16-64 64z"/><path d="m448-319.9531-6-6-202-202-16-16z"/><path d="m528-217.9531-86-86z"/><path d="m-218-527.9531h202 22z"/><path d="m6-527.9531h202 10z"/><path d="m-528-217.9531 22-22 202-202z"/><path d="m-304-441.9531 86-86z"/><path d="m-544 .0469v208 16z"/><path d="m-528-239.9531-16 16z"/><path d="m240 640.0469v-112z"/></g></defs><g stroke="#000"><use fill="none" stroke-miterlimit="0" stroke-width="10" xlink:href="#a"/><use fill="#d9d9d9" xlink:href="#a"/><use fill="none" stroke-miterlimit="0" stroke-width="10" xlink:href="#b"/><use fill="#fff" xlink:href="#b"/></g></svg>