<?xml version="1.0" encoding="utf-8" ?>
<svg baseProfile="tiny" height="100%" version="1.2" viewBox="-575.0 -963.0 1430.0 2390.0" width="100%" xmlns="http://www.w3.org/2000/svg" xmlns:ev="http://www.w3.org/2001/xml-events" xmlns:xlink="http://www.w3.org/1999/xlink"><defs><g id="bsp_ref"><polygon points="-456,940 -456,940 -316,940 -232,940 -232,940" /><polygon points="48,-844 -8,-844 -176,-844 -176,-844 -8,-844 48,-844" /><polygon points="272,-844 204,-844 175,-844 172,-844 91,-844 76,-844 48,-844 48,-844 60,-844 272,-844" /><polygon points="736,320 736,296 736,296 736,460 736,460" /><polygon points="736,168 736,168 736,168 736,296 736,296 736,296" /><polygon points="736,-352 736,-352 736,-280 736,-280" /><polygon points="-456,-592 -456,-569.6001 -456,-476 -456,-476 -456,-476 -456,-592" /><polygon points="-4,832 12,832 76,832 76,908 -20,908 -20,832" /><polygon points="90,940 76,940 76,916 90,916" /><polygon points="-448,333.6471 -376,304 -356.5714,296 -330.3529,296 -224,296 -224,520 -448,520" /><polygon points="-224,520 -224,744 -448,744 -448,536 -448,520" /><polygon points="-224,744 -224,908 -252,908 -448,908 -448,816 -448,760 -448,744" /><polygon points="-224,296 -106.3529,296 -20,296 -20,400 -20,520 -224,520" /><polygon points="-20,520 -20,624 -20,744 -224,744 -224,520" /><polygon points="-20,744 -20,760 -20,832 -20,908 -224,908 -224,744" /><polygon points="-448,312 -448,274.353 -427,283 -376,304 -448,333.6471" /><polygon points="-356.5714,296 -325,283 -330.3529,296" /><polygon points="-224,296 -330.3529,296 -325,283 -320.4706,272 -287.5294,272 -106.3529,272 -106.3529,296" /><polygon points="-106.3529,272 -96.4706,272 -44,272 -20,272 -20,296 -106.3529,296" /><polygon points="8,400 76,400 76,536 76,624 -20,624 -20,520 -20,400" /><polygon points="76,624 76,760 60,760 44,760 28,760 12,760 -4,760 -20,760 -20,744 -20,624" /><polygon points="-20,296 -20,272 8,272 8,384 8,400 -20,400" /><polygon points="189,940 189,916 204,916 204,940" /><polygon points="268,832 284,832 300,832 300,908 204,908 204,832" /><polygon points="640,824 640,908 620,908 620,824" /><polygon points="204,624 204,536 204,400 272,400 300,400 300,496 300,624" /><polygon points="284,760 268,760 252,760 236,760 220,760 204,760 204,624 300,624 300,720 300,760" /><polygon points="189,384 189,608 90,608 90,384" /><polygon points="189,608 189,832 90,832 90,608" /><polygon points="189,832 189,916 189,940 175,940 172,940 90,940 90,916 90,832" /><polygon points="300,400 300,272 324,272 528,272 528,496 300,496" /><polygon points="528,496 528,720 300,720 300,624 300,496" /><polygon points="528,720 528,824 528,908 428,908 300,908 300,832 300,760 300,720" /><polygon points="300,272 300,400 272,400 272,384 272,272" /><polygon points="548,272 596,272 596,279.2941 596,496 528,496 528,272" /><polygon points="596,496 596,503.2941 596,720 528,720 528,496" /><polygon points="596,720 596,727.2941 596,824 528,824 528,720" /><polygon points="620,520 620,503.2941 620,318.8235 656,304 675.4286,296 701.647,296 732,296 732,320 732,520" /><polygon points="620,744 620,727.2941 620,520 732,520 732,544 732,744" /><polygon points="640,824 620,824 620,744 732,744 732,768 732,824" /><polygon points="620,289.1765 656,304 620,318.8235" /><polygon points="675.4286,296 707,283 701.647,296" /><polygon points="596,496 596,279.2941 605,283 620,289.1765 620,318.8235 620,503.2941 596,503.2941" /><polygon points="620,503.2941 620,520 620,727.2941 596,727.2941 596,720 596,503.2941" /><polygon points="620,727.2941 620,744 620,824 596,824 596,727.2941" /><polygon points="701.647,296 707,283 711.5294,272 728,272 732,272 732,296" /><polygon points="600.4706,272 605,283 596,279.2941 596,272" /><polygon points="-320.4706,272 -304,232 -287.5294,272" /><polygon points="-448,232 -427,283 -448,274.353" /><polygon points="-106.3529,272 -287.5294,272 -304,232 -320.4706,192 -298.2857,192 -224,192 -96.4706,192 -96.4706,272" /><polygon points="-96.4706,192 -44,192 -44,272 -96.4706,272" /><polygon points="-320.4706,192 -325,181 -298.2857,192" /><polygon points="-448,130.3529 -412.213,145.0887 -427,181 -448,232" /><polygon points="-412.213,145.0887 -405.1429,148 -376,160 -427,181" /><polygon points="-448,-76 -448,-136 -448,-294 -437.5001,-300 -364,-300 -344,-300 -252,-300 -224,-300 -224,-76" /><polygon points="-412.213,145.0887 -448,130.3529 -448,88 -448,-76 -224,-76 -224,148 -405.1429,148" /><polygon points="-224,148 -224,192 -298.2857,192 -325,181 -376,160 -405.1429,148" /><polygon points="-224,-300 -20,-300 -20,-296 -20,-76 -224,-76" /><polygon points="-20,-76 -20,-72 -20,64 -20,148 -224,148 -224,-76" /><polygon points="-20,148 -20,192 -44,192 -96.4706,192 -224,192 -224,148" /><polygon points="-20,148 -20,64 8,64 8,192 -20,192" /><polygon points="-4,-296 12,-296 24,-296 28,-296 44,-296 60,-296 76,-296 76,-160 76,-72 -20,-72 -20,-76 -20,-296" /><polygon points="76,-72 76,64 24,64 8,64 -20,64 -20,-72" /><polygon points="-456,-280 -456,-300 -456,-360 -448,-360 -448,-294 -448,-136 -456,-136" /><polygon points="-448,-136 -448,-76 -448,88 -456,88 -456,-56 -456,-136" /><polygon points="-448,88 -448,130.3529 -448,232 -448,274.353 -448,312 -456,312 -456,296 -456,168 -456,88" /><polygon points="-448,312 -448,333.6471 -448,520 -448,536 -456,536 -456,368 -456,312" /><polygon points="-448,536 -448,744 -448,760 -456,760 -456,592 -456,536" /><polygon points="-448,760 -448,816 -456,816 -456,760" /><polygon points="-448,-360 -364,-360 -364,-342 -437.5001,-300 -447.4017,-294.3419 -448,-294" /><polygon points="-364,-300 -437.5001,-300 -364,-342" /><polygon points="-344,-360 -344,-300 -364,-300 -364,-342 -364,-360 -364,-444 -344,-444" /><polygon points="-344,-360 -252,-360 -252,-300 -344,-300" /><polygon points="-252,-360 -252,-444 -28,-444 -20,-444 -20,-368 -20,-300 -224,-300 -252,-300" /><polygon points="76,-444 76,-368 60,-368 44,-368 28,-368 12,-368 -4,-368 -20,-368 -20,-444" /><polygon points="172,-476 172,-452 91,-452 76,-452 76,-476 76,-600 91,-600 105,-600 155,-600 172,-600" /><polygon points="-456,-569.6001 -456,-592 -232,-793.6001 -232,-620 -232,-569.6001" /><polygon points="-232,-476 -252,-476 -456,-476 -456,-569.6001 -232,-569.6001" /><polygon points="-176,-844 -8,-844 -8,-620 -232,-620 -232,-793.6001" /><polygon points="-8,-620 -8,-476 -20,-476 -232,-476 -232,-569.6001 -232,-620" /><polygon points="-8,-844 48,-844 76,-844 76,-721 76,-706 76,-625 76,-620 -8,-620" /><polygon points="76,-620 76,-610 76,-600 76,-476 -8,-476 -8,-620" /><polygon points="105,-600 105,-610 105,-625 155,-600" /><polygon points="105,-706 105,-721 171.8,-687.6 128.4001,-662.8 105,-674.5" /><polygon points="172,-641 128.4001,-662.8 171.8,-687.6 172,-687.7144" /><polygon points="91,-602 91,-600 76,-600 76,-610" /><polygon points="91,-698 91,-681.5 91,-632 76,-625 76,-706" /><polygon points="155,-600 105,-625 91,-632 91,-681.5 105,-674.5 172,-641 172,-620 172,-600" /><polygon points="91,-698 105,-706 105,-674.5 91,-681.5" /><polygon points="91,-600 91,-602 105,-610 105,-600" /><polygon points="105,-721 91,-728 91,-844 172,-844 172,-687.7144 171.8,-687.6" /><polygon points="76,-844 91,-844 91,-728 76,-721" /><polygon points="24,272 24,192 24,148 256,148 256,192 256,272 256,316 24,316" /><polygon points="596,192 596,202.8571 584,232 567.5294,192" /><polygon points="324,192 272,192 272,80 272,64 300,64 496,64 496,192" /><polygon points="496,64 524,64 596,64 596,135.2941 596,192 567.5294,192 548,192 496,192" /><polygon points="204,-72 204,-160 204,-296 220,-296 236,-296 252,-296 268,-296 284,-296 300,-296 300,-220 300,-72" /><polygon points="272,64 204,64 204,-72 300,-72 300,4 300,64" /><polygon points="707,181 728,189.647 728,232" /><polygon points="728,232 728,272 711.5294,272" /><polygon points="548,272 528,272 324,272 324,192 496,192 548,192" /><polygon points="584,232 600.4706,272 596,272 548,272 548,192 567.5294,192" /><polygon points="596,192 596,135.2941 619.787,145.0887 605,181 596,202.8571" /><polygon points="619.787,145.0887 656,160 605,181" /><polygon points="284,-368 268,-368 252,-368 236,-368 220,-368 204,-368 204,-444 300,-444 300,-368" /><polygon points="172,-452 190,-452 190,-368 190,-228 91,-228 91,-368 91,-452" /><polygon points="190,-228 190,-144 190,-4 91,-4 91,-144 91,-228" /><polygon points="190,-4 190,80 91,80 91,-4" /><polygon points="190,-452 172,-452 172,-476 204,-476 204,-452" /><polygon points="300,-296 300,-368 300,-444 428,-444 524,-444 524,-220 300,-220" /><polygon points="524,-220 524,4 300,4 300,-72 300,-220" /><polygon points="524,4 524,64 496,64 300,64 300,4" /><polygon points="524,-444 528,-444 596,-444 596,-220 524,-220" /><polygon points="596,-220 596,4 524,4 524,-220" /><polygon points="596,4 596,64 524,64 524,4" /><polygon points="396,-476 204,-476 172,-476 172,-600 175,-600 190,-600 204,-600 396,-600" /><polygon points="428,-600 596,-600 596,-495.5555 596,-476 428,-476 396,-476 396,-600" /><polygon points="190,-698 204,-706 204,-625 190,-632" /><polygon points="190,-600 190,-602 204,-610 204,-600" /><polygon points="175,-625 175,-706 190,-698 190,-632" /><polygon points="175,-600 175,-610 190,-602 190,-600" /><polygon points="175,-735.5 190,-728 175,-721" /><polygon points="190,-728 175,-735.5 175,-844 204,-844 204,-721" /><polygon points="172,-641 172,-687.7144 172,-844 175,-844 175,-735.5 175,-721 175,-706 175,-625 175,-620 172,-620" /><polygon points="175,-620 175,-610 175,-600 172,-600 172,-620" /><polygon points="204,-620 204,-625 204,-706 204,-721 204,-844 272,-844 428,-844 428,-620" /><polygon points="428,-600 396,-600 204,-600 204,-610 204,-620 428,-620" /><polygon points="484,-844 534.4002,-788 596,-719.5555 596,-620 428,-620 428,-844" /><polygon points="596,-620 596,-600 428,-600 428,-620" /><polygon points="596,-444 728,-444 728,-352 728,-220 596,-220" /><polygon points="728,-220 728,-128 728,4 596,4 596,-220" /><polygon points="728,4 728,96 728,189.647 707,181 656,160 619.787,145.0887 596,135.2941 596,64 596,4" /><polygon points="728,-220 728,-352 732,-352 732,-128 728,-128" /><polygon points="732,-128 732,96 728,96 728,4 728,-128" /><polygon points="732,96 732,272 728,272 728,232 728,189.647 728,96" /><polygon points="732,-352 736,-352 736,-280 736,-128 732,-128" /><polygon points="736,-128 736,-56 736,96 732,96 732,-128" /><polygon points="736,96 736,168 736,296 736,320 732,320 732,296 732,272 732,96" /><polygon points="736,320 736,460 736,544 732,544 732,520 732,320" /><polygon points="736,544 736,684 736,768 732,768 732,744 732,544" /><polygon points="736,768 736,908 732,908 732,824 732,768" /><polygon points="596,-495.5555 596,-600 596,-620 596,-719.5555 736,-564 736,-495.5555" /><polygon points="736,-476 596,-476 596,-495.5555 736,-495.5555" /><polygon points="534.4002,-788 484,-844 484,-844 534.3998,-788" /><polygon points="-232,-793.6001 -456,-592 -456,-592 -424.8889,-620 -232,-793.6" /><polygon points="736,-352 732,-352 728,-352 728,-352 736,-352" /><polygon points="728,-352 728,-444 728,-444 728,-352" /><polygon points="728,-444 596,-444 596,-444 596,-444 728,-444" /><polygon points="656,160 656,160 605,181 605,181" /><polygon points="596,202.8571 605,181 605,181 584,232 584,232" /><polygon points="600.4706,272 584,232 584,232 605,283 605,283" /><polygon points="620,289.1765 605,283 605,283 656,304 656,304" /><polygon points="732,908 736,908 736,908 736,908 732,908" /><polygon points="620,908 640,908 640,908 620,908" /><polygon points="76,-476 76,-452 76,-452 76,-452 76,-476" /><polygon points="12,832 12,832 12,832 28,832 44,832 60,832 76,832 76,832" /><polygon points="428,-444 300,-444 204,-444 204,-444 428,-444" /><polygon points="190,-452 190,-452 190,-368 190,-368" /><polygon points="76,-368 76,-444 76,-444 76,-444 76,-368" /><polygon points="-28,-444 -252,-444 -252,-444 -28,-444" /><polygon points="24,148 24,192 24,192 24,148" /><polygon points="24,384 24,384 24,316" /><polygon points="76,80 24,80 24,80 76,80" /><polygon points="91,-144 91,-4 91,80 91,80 91,-144" /><polygon points="91,-368 91,-228 91,-144 91,-144 91,-368" /><polygon points="256,316 256,272 256,272 256,316" /><polygon points="256,192 256,192 256,272 256,272" /><polygon points="324,272 300,272 272,272 272,272" /><polygon points="272,192 324,192 272,192" /><polygon points="272,192 272,192 272,192 272,80 272,80" /><polygon points="256,316 256,316 24,316 24,316" /><polygon points="76,80 91,80 190,80 204,80 256,80 256,148 24,148 24,80" /><polygon points="-20,-300 -20,-368 -20,-368 -20,-296 -20,-296" /><polygon points="-20,192 8,192 8,192 -44,192" /><polygon points="8,64 8,64 8,192 8,192 8,192 8,192" /><polygon points="8,272 -20,272 -44,272 8,272" /><polygon points="204,536 204,624 204,760 204,760 204,760 204,692 204,536" /><polygon points="204,400 204,536 204,536 204,468 204,400" /><polygon points="90,608 90,832 90,832 90,608" /><polygon points="189,384 189,384 189,608 189,608" /><polygon points="-20,760 -20,760 -20,832 -20,832" /><polygon points="90,832 90,916 90,916 90,832" /><polygon points="-252,908 -224,908 -20,908 -20,908 -20,908 -252,908" /><polygon points="-344,-444 -364,-444 -364,-444 -344,-444" /><polygon points="-376,160 -376,160 -427,181 -427,181" /><polygon points="-427,181 -427,181 -448,232 -448,232" /><polygon points="-448,232 -448,232 -427,283 -427,283" /><polygon points="-427,283 -427,283 -376,304 -376,304" /><polygon points="-456,816 -448,816 -448,816 -456,816" /><polygon points="736,1056 736,940 736,940 736,1056" /><polygon points="204,1164 204,1089 204,1074 204,1057.4286 204,940 300,940 428,940 428,1164" /><polygon points="428,1308 204,1308 204,1192 204,1185 204,1170 204,1164 428,1164" /><polygon points="652,1131.6 616,1164 428,1164 428,940 528,940 652,940" /><polygon points="616,1164 456,1308 428,1308 428,1164" /><polygon points="736,940 736,1056 680,1106.4 652,1131.6 652,940" /><polygon points="172,1064 172,940 175,940 175,1074 175,1089 172,1087.5" /><polygon points="175,940 189,940 204,940 204,1057.4286 189,1066 175,1074" /><polygon points="204,1057.4286 204,1074 189,1066" /><polygon points="189,1118.8 189,1096 204,1089 204,1164 204,1170 189,1162" /><polygon points="90,1096 105,1103.5 175,1138.5 175,1170 175,1185 172,1183.5 105,1150 76,1135.5 76,1089" /><polygon points="175,1138.5 175,1111.3334 189,1118.8 189,1162 175,1170" /><polygon points="189,1118.8 175,1111.3334 172,1109.7334 172,1087.5 175,1089 189,1096" /><polygon points="172,1192 172,1183.5 175,1185 189,1192" /><polygon points="172,1109.7334 175,1111.3334 175,1138.5 105,1103.5 105,1089 105,1074" /><polygon points="189,1192 204,1185 204,1192" /><polygon points="189,1192 204,1192 204,1308 172,1308 172,1192" /><polygon points="90,1064 76,1064 76,940 90,940 172,940 172,1064" /><polygon points="-20,940 76,940 76,1064 76,1074 76,1089 76,1135.5 76,1164 -20,1164" /><polygon points="76,1164 76,1170 76,1185 76,1192 -20,1192 -20,1164" /><polygon points="172,1064 172,1087.5 172,1109.7334 105,1074 90,1066 90,1064" /><polygon points="105,1089 105,1103.5 90,1096" /><polygon points="91.6296,1192.8148 90,1192 105,1185 105,1199.5" /><polygon points="76,1192 76,1185 90,1192" /><polygon points="90,1162 90,1142.5001 105,1150 105,1170" /><polygon points="105,1199.5 105,1185 105,1170 105,1150 172,1183.5 172,1192 172,1308 139.0588,1308 105,1225.2858" /><polygon points="76,1164 76,1135.5 90,1142.5001 90,1162 76,1170" /><polygon points="90,1066 76,1074 76,1064 90,1064" /><polygon points="-20,1308 -20,1192 76,1192 90,1192 91.6296,1192.8148 105,1225.2858 139.0588,1308" /><polygon points="105,1199.5 105,1225.2858 91.6296,1192.8148" /><polygon points="-333.6,1164 -405.5999,1084 -456,1028 -456,940 -232,940 -232,1164" /><polygon points="-232,1276.8889 -333.6,1164 -232,1164" /><polygon points="-20,940 -20,1164 -232,1164 -232,940" /><polygon points="-20,1164 -20,1192 -20,1308 -204,1308 -232,1276.8889 -232,1164" /><polygon points="-204,1308 -20,1308 -20,1308 -20,1308 -204,1308" /><polygon points="139.0588,1308 172,1308 204,1308 204,1308 -20,1308 -20,1308" /><polygon points="456,1308 456,1308 428,1308 428,1308" /><polygon points="736,1056 736,1056 680,1106.4 680,1106.4" /><polygon points="-405.5999,1084 -333.6,1164 -232,1276.8889 -204,1308 -204,1308 -405.5999,1084" /><polygon points="204,-464 76,-464 76,-452 204,-452" /><polygon points="204,916 76,916 76,928 204,928" /><polygon points="656,160 707,181 728,232 707,283 656,304 605,283 584,232 605,181" /><polygon points="656,160 656,160 707,181 707,181" /><polygon points="707,181 707,181 728,232 728,232" /><polygon points="728,232 728,232 711.5294,272 707,283 707,283" /><polygon points="707,283 707,283 675.4286,296 656,304 656,304" /><polygon points="-376,160 -325,181 -304,232 -325,283 -376,304 -427,283 -448,232 -427,181" /><polygon points="-376,160 -376,160 -325,181 -325,181" /><polygon points="-325,181 -325,181 -320.4706,192 -304,232 -304,232" /><polygon points="-304,232 -304,232 -320.4706,272 -325,283 -325,283" /><polygon points="-325,283 -325,283 -356.5714,296 -376,304 -376,304" /><polygon points="300,832 300,832 284,832 284,832" /><polygon points="-4,832 -4,832 12,832 12,832 -4,832" /><polygon points="-4,832 -4,832 -20,832 -20,832" /><polygon points="-20,-368 -20,-368 -4,-368 -4,-368" /><polygon points="284,-368 284,-368 300,-368 300,-368" /><polygon points="284,-368 284,-368 268,-368 268,-368 284,-368" /><polygon points="300,-296 300,-296 284,-296 284,-296" /><polygon points="300,-368 300,-368 300,-296 300,-296" /><polygon points="284,-368 300,-368 300,-296 284,-296" /><polygon points="-4,-296 -4,-296 12,-296 12,-296 -4,-296" /><polygon points="-4,-296 -4,-296 -20,-296 -20,-296" /><polygon points="-4,-368 -4,-368 -4,-296 -4,-296" /><polygon points="-20,-368 -4,-368 -4,-296 -20,-296" /><polygon points="300,760 300,760 300,832 300,832" /><polygon points="284,760 284,760 300,760 300,760" /><polygon points="284,760 284,760 268,760 268,760 284,760" /><polygon points="284,760 300,760 300,832 284,832" /><polygon points="-20,760 -20,760 -4,760 -4,760" /><polygon points="-4,760 -4,760 -4,832 -4,832" /><polygon points="-20,760 -4,760 -4,832 -20,832" /><polygon points="272,192 324,192 324,272 272,272 256,272 256,192" /><polygon points="8,192 24,192 24,272 8,272 -44,272 -44,192" /><polygon points="8,272 8,272 8,272 8,288 8,384 8,384 8,272" /><polygon points="256,384 256,384 204,384 204,384 204,384 256,384" /><polygon points="24,148 24,148 24,80 24,80" /><polygon points="24,192 24,192 24,272 24,272" /><polygon points="24,316 24,384 24,384 24,304 24,272 24,272" /><polygon points="24,272 24,272 24,316 24,316" /><polygon points="256,384 256,384 256,316" /><polygon points="256,192 256,192 256,148 256,148" /><polygon points="256,192 256,148 256,148 256,192" /><polygon points="256,272 272,272 272,272 256,272" /><polygon points="256,192 256,192 272,192 272,192" /><polygon points="24,272 24,192 24,148 256,148 256,192 256,272 256,316 24,316" /><polygon points="256,272 256,192 256,148 24,148 24,192 24,272 24,316 256,316" /><polygon points="256,148 256,148 24,148 24,148" /><polygon points="256,316 256,384 204,384 189,384 90,384 76,384 24,384 24,316" /><polygon points="24,272 24,272 8,272 8,272" /><polygon points="268,832 284,832 284,832 284,832 268,832" /><polygon points="12,-368 -4,-368 -4,-368 -4,-368 12,-368" /><polygon points="268,-368 268,-368 252,-368 252,-368 268,-368" /><polygon points="284,-368 284,-368 284,-296 284,-296" /><polygon points="268,-296 284,-296 284,-296 284,-296 268,-296" /><polygon points="268,-368 284,-368 284,-296 268,-296" /><polygon points="12,-296 12,-296 24,-296 24,-296 12,-296" /><polygon points="12,-368 12,-368 12,-296 12,-296" /><polygon points="-4,-368 12,-368 12,-296 -4,-296" /><polygon points="268,760 268,760 252,760 252,760 268,760" /><polygon points="284,760 284,760 284,832 284,832" /><polygon points="268,760 284,760 284,832 268,832" /><polygon points="12,760 -4,760 -4,760 -4,760 12,760" /><polygon points="12,760 12,760 12,832 12,832" /><polygon points="-4,760 12,760 12,832 -4,832" /><polygon points="528,940 528,940 428,940 300,940 300,940" /><polygon points="528,940 528,940 596,940 736,940 736,940 652,940 528,940" /><polygon points="-252,-476 -252,-476 -232,-476 -20,-476 -20,-476" /><polygon points="596,-444 596,-444 528,-444 528,-444" /><polygon points="76,908 76,908 76,832 76,832 76,832 76,908" /><polygon points="204,908 204,908 300,908 428,908 428,908" /><polygon points="428,908 428,908 528,908 528,908" /><polygon points="-20,908 -20,908 76,908 76,908" /><polygon points="204,1308 204,1308 204,1308 60,1308 -20,1308 -20,1308 -20,1308" /><polygon points="76,940 76,940 -20,940 -20,940" /><polygon points="204,-476 204,-476 396,-476 428,-476 428,-476" /><polygon points="428,-476 428,-476 596,-476 596,-476" /><polygon points="204,-476 204,-476 204,-452 204,-452 204,-476" /><polygon points="76,940 76,940 76,916 76,916 76,940" /><polygon points="220,832 236,832 252,832 268,832 268,832 268,832 204,832 204,832" /><polygon points="28,-368 24,-368 12,-368 12,-368 12,-368 28,-368" /><polygon points="252,-368 252,-368 236,-368 236,-368 252,-368" /><polygon points="252,-296 268,-296 268,-296 268,-296 252,-296" /><polygon points="268,-368 268,-368 268,-296 268,-296" /><polygon points="252,-368 268,-368 268,-296 252,-296" /><polygon points="28,-296 28,-296 44,-296 44,-296 28,-296" /><polygon points="24,-296 28,-296 28,-296 24,-296" /><polygon points="24,-368 28,-368 28,-296 24,-296" /><polygon points="28,-368 28,-368 28,-296 28,-296" /><polygon points="12,-368 24,-368 24,-296 12,-296" /><polygon points="252,760 252,760 236,760 236,760 252,760" /><polygon points="268,760 268,760 268,832 268,832" /><polygon points="252,760 268,760 268,832 252,832" /><polygon points="28,760 12,760 12,760 12,760 28,760" /><polygon points="28,760 28,760 28,832 28,832" /><polygon points="12,760 28,760 28,832 12,832" /><polygon points="736,908 736,908 736,768 736,684 736,684" /><polygon points="736,684 736,684 736,544 736,460 736,460" /><polygon points="736,296 736,296 736,296 736,296 736,440 736,460 736,460" /><polygon points="736,168 736,168 736,96 736,-56 736,-56" /><polygon points="736,-56 736,-56 736,-128 736,-280 736,-280" /><polygon points="736,-352 736,-352 736,-300 736,-280 736,-280" /><polygon points="-456,592 -456,592 -456,760 -456,816 -456,816" /><polygon points="-456,368 -456,368 -456,536 -456,592 -456,592" /><polygon points="-456,296 -456,296 -456,312 -456,368 -456,368" /><polygon points="-456,-56 -456,-56 -456,88 -456,168 -456,168" /><polygon points="-456,-280 -456,-280 -456,-136 -456,-56 -456,-56" /><polygon points="-456,-300 -456,-300 -456,-280 -456,-280" /><polygon points="-456,-300 -456,-300 -456,-360 -456,-360 -456,-300" /><polygon points="-456,-476 -456,-476 -252,-476 -252,-476 -252,-476" /><polygon points="728,-352 728,-352 736,-352 736,-352" /><polygon points="728,-444 728,-444 728,-352 728,-352" /><polygon points="596,-444 596,-444 596,-444 728,-444 728,-444" /><polygon points="204,832 204,832 220,832 220,832 220,832 204,832" /><polygon points="204,-444 204,-444 204,-368 204,-368" /><polygon points="204,-444 204,-444 428,-444 428,-444" /><polygon points="528,-444 528,-444 528,-444 524,-444 428,-444 428,-444" /><polygon points="-252,-444 -252,-444 -252,-444 -28,-444 -28,-444" /><polygon points="76,-444 76,-444 -20,-444 -28,-444 -28,-444" /><polygon points="204,832 204,832 204,832 204,908 204,908 204,908" /><polygon points="-448,816 -448,816 -448,908 -448,908" /><polygon points="-448,908 -448,908 -252,908 -252,908 -316,908 -448,908" /><polygon points="-448,816 -448,816 -456,816 -456,816" /><polygon points="236,832 252,832 252,832 236,832" /><polygon points="28,832 44,832 44,832 28,832" /><polygon points="44,832 44,832 60,832 60,832 44,832" /><polygon points="44,-368 28,-368 28,-368 28,-368 44,-368" /><polygon points="236,-368 236,-368 220,-368 220,-368 236,-368" /><polygon points="236,-296 252,-296 252,-296 252,-296 236,-296" /><polygon points="236,-368 252,-368 252,-296 236,-296" /><polygon points="252,-368 252,-368 252,-296 252,-296" /><polygon points="44,-296 44,-296 60,-296 60,-296 44,-296" /><polygon points="28,-368 44,-368 44,-296 28,-296" /><polygon points="44,-368 44,-368 44,-296 44,-296" /><polygon points="236,760 236,760 220,760 220,760 236,760" /><polygon points="252,760 252,760 252,832 252,832" /><polygon points="236,760 252,760 252,832 236,832" /><polygon points="44,760 28,760 28,760 28,760 44,760" /><polygon points="44,760 44,760 44,832 44,832" /><polygon points="28,760 44,760 44,832 28,832" /><polygon points="736,-476 736,-476 736,-495.5555 736,-564 736,-564 736,-476" /><polygon points="596,-476 596,-476 596,-476 736,-476 736,-476" /><polygon points="220,832 236,832 236,832 236,832 220,832" /><polygon points="60,832 60,832 76,832 76,832 60,832" /><polygon points="60,-368 44,-368 44,-368 44,-368 60,-368" /><polygon points="220,-368 220,-368 204,-368 204,-368 204,-368 220,-368" /><polygon points="220,-296 236,-296 236,-296 236,-296 220,-296" /><polygon points="220,-368 236,-368 236,-296 220,-296" /><polygon points="236,-368 236,-368 236,-296 236,-296" /><polygon points="60,-296 60,-296 76,-296 76,-296 60,-296" /><polygon points="44,-368 60,-368 60,-296 44,-296" /><polygon points="60,-368 60,-368 60,-296 60,-296" /><polygon points="220,760 220,760 204,760 204,760 220,760" /><polygon points="220,760 236,760 236,832 220,832" /><polygon points="236,760 236,760 236,832 236,832" /><polygon points="60,760 44,760 44,760 44,760 60,760" /><polygon points="44,760 60,760 60,832 44,832" /><polygon points="60,760 60,760 60,832 60,832" /><polygon points="528,908 528,908 528,908 528,824 528,824" /><polygon points="640,828 620,828 620,908 640,908" /><polygon points="608,828 608,824 620,824 620,828" /><polygon points="640,828 640,824 712,824 712,828" /><polygon points="732,908 712,908 712,828 712,824 732,824" /><polygon points="608,828 608,908 528,908 528,824 608,824" /><polygon points="528,908 608,908 608,908 608,908 596,908 528,908" /><polygon points="608,908 608,828 608,828 608,908" /><polygon points="640,828 640,908 640,908 640,824 640,824" /><polygon points="712,824 640,824 640,824 732,824 732,824" /><polygon points="732,824 732,824 732,908 732,908" /><polygon points="620,828 620,824 620,824 620,908 620,908" /><polygon points="608,824 528,824 528,824 596,824 620,824 620,824" /><polygon points="-252,-444 -252,-444 -252,-444 -252,-360 -252,-360" /><polygon points="-424,-364 -424,-360 -456,-360 -456,-444 -424,-444" /><polygon points="-252,-360 -320,-360 -320,-364 -320,-444 -252,-444" /><polygon points="-364,-364 -344,-364 -344,-444 -364,-444" /><polygon points="-320,-360 -344,-360 -344,-364 -320,-364" /><polygon points="-364,-360 -424,-360 -424,-364 -364,-364" /><polygon points="-320,-444 -320,-364 -320,-364 -320,-444" /><polygon points="-252,-444 -320,-444 -320,-444 -320,-444 -316,-444 -252,-444" /><polygon points="-424,-360 -364,-360 -364,-360 -448,-360 -456,-360 -456,-360" /><polygon points="-320,-360 -252,-360 -252,-360 -344,-360 -344,-360" /><polygon points="-344,-364 -344,-360 -344,-360 -344,-444 -344,-444" /><polygon points="-364,-364 -364,-444 -364,-444 -364,-360 -364,-360" /><polygon points="76,-368 60,-368 60,-368 60,-368 76,-368" /><polygon points="204,-368 204,-368 204,-368 204,-368 204,-444 204,-444 204,-368" /><polygon points="76,-444 76,-444 76,-368 76,-368" /><polygon points="204,-296 220,-296 220,-296 220,-296 204,-296" /><polygon points="220,-368 220,-368 220,-296 220,-296" /><polygon points="204,-368 220,-368 220,-296 204,-296" /><polygon points="76,-296 76,-296 76,-160 76,-160 76,-296" /><polygon points="60,-368 76,-368 76,-296 60,-296" /><polygon points="76,760 76,760 76,832 76,832" /><polygon points="220,760 220,760 220,832 220,832" /><polygon points="204,760 220,760 220,832 204,832" /><polygon points="76,760 60,760 60,760 60,760 76,760" /><polygon points="60,760 76,760 76,832 60,832" /><polygon points="91,-728 172,-728 175,-728 190,-728 204,-728 204,-728 76,-728 76,-728" /><polygon points="204,-625 204,-625 204,-620 204,-610 204,-610" /><polygon points="204,-721 204,-721 204,-706 204,-706" /><polygon points="76,-610 76,-610 76,-620 76,-625 76,-625" /><polygon points="76,-706 76,-706 76,-721 76,-721" /><polygon points="204,-728 190,-728 204,-721" /><polygon points="204,-706 190,-698 172,-687.7142 172,-687.5 172,-641 175,-639.5 190,-632 204,-625" /><polygon points="175,-721 175,-728 172,-728 172,-707.6 175,-706" /><polygon points="190,-728 175,-728 175,-721" /><polygon points="172,-687.7142 190,-698 172,-707.6" /><polygon points="190,-602 186.5,-600 204,-600 204,-610" /><polygon points="186.5,-600 190,-602 175,-610 172,-611.6 172,-600" /><polygon points="172,-611.6 175,-610 175,-625 175,-639.5 172,-641" /><polygon points="190,-632 175,-639.5 175,-625" /><polygon points="105,-706 91,-698 76,-689.4286 76,-639.5 91,-632 105,-625" /><polygon points="105,-721 171.8,-687.6 172,-687.5 172,-687.7142 172,-707.6 172,-728 91,-728" /><polygon points="76,-706 76,-689.4286 91,-698" /><polygon points="76,-610 76,-600 87.5,-600 91,-602" /><polygon points="76,-625 91,-632 76,-639.5" /><polygon points="91,-602 87.5,-600 105,-600 105,-610" /><polygon points="91,-728 76,-728 76,-721" /><polygon points="172,-611.6 172,-641 172,-687.5 171.8,-687.6 105,-721 105,-706 105,-625 105,-610 105,-600 172,-600" /><polygon points="175,-610 175,-610 175,-620 175,-625 175,-625" /><polygon points="175,-706 175,-706 175,-721 175,-721" /><polygon points="175,-625 175,-625 190,-632 190,-632" /><polygon points="190,-728 190,-728 204,-721 204,-721" /><polygon points="175,-721 175,-721 190,-728 190,-728" /><polygon points="204,-706 204,-706 190,-698 190,-698" /><polygon points="190,-698 190,-698 175,-706 175,-706" /><polygon points="190,-632 190,-632 204,-625 204,-625" /><polygon points="190,-602 190,-602 175,-610 175,-610" /><polygon points="204,-610 204,-610 190,-602 190,-602" /><polygon points="105,-625 105,-625 105,-610 105,-610" /><polygon points="105,-721 105,-721 105,-706 105,-706" /><polygon points="91,-728 91,-728 105,-721 105,-721" /><polygon points="76,-625 76,-625 91,-632 91,-632" /><polygon points="105,-706 105,-706 91,-698 91,-698" /><polygon points="76,-721 76,-721 91,-728 91,-728" /><polygon points="91,-698 91,-698 76,-706 76,-706" /><polygon points="91,-632 91,-632 105,-625 105,-625" /><polygon points="91,-602 91,-602 76,-610 76,-610" /><polygon points="105,-610 105,-610 91,-602 91,-602" /><polygon points="189,916 204,916 204,916 189,916" /><polygon points="91,-452 190,-452 190,-452 188,-452 92,-452 76,-452 76,-452" /><polygon points="91,-452 76,-452 76,-452 91,-452" /><polygon points="91,-452 91,-452 91,-368 91,-368" /><polygon points="190,-368 190,-452 91,-452 91,-368" /><polygon points="204,384 189,384 189,384 204,384" /><polygon points="189,384 204,384 204,384 90,384 90,384" /><polygon points="90,384 90,384 76,384 76,384 90,384" /><polygon points="91,80 91,80 76,80 76,80 91,80" /><polygon points="204,80 204,80 190,80 190,80" /><polygon points="204,80 204,80 256,80 256,80 204,80" /><polygon points="190,-144 190,-368 91,-368 91,-144" /><polygon points="190,80 190,-144 91,-144 91,80" /><polygon points="190,-144 190,80 190,80 190,-4 190,-144" /><polygon points="190,-368 190,-144 190,-144 190,-228 190,-368" /><polygon points="189,608 189,384 90,384 90,608" /><polygon points="189,832 189,608 90,608 90,832" /><polygon points="90,384 90,384 90,608 90,608" /><polygon points="189,608 189,832 189,832 189,608" /><polygon points="189,832 189,916 189,916 189,832" /><polygon points="189,916 189,832 90,832 90,916" /><polygon points="204,916 204,916 204,940 204,940 204,916" /><polygon points="93.5,1064 172,1064 175,1064 192.5,1064 204,1064 204,1064 76,1064 76,1064" /><polygon points="76,1089 76,1089 76,1074 76,1074" /><polygon points="76,1185 76,1185 76,1170 76,1170" /><polygon points="204,1170 204,1170 204,1185 204,1185" /><polygon points="204,1074 204,1074 204,1089 204,1089" /><polygon points="76,1185 76,1192 90,1192" /><polygon points="90,1192 105,1192 105,1185" /><polygon points="105,1153.4285 90,1162 105,1170" /><polygon points="105,1103.5 90,1096 76,1089 76,1170 90,1162 105,1153.4285" /><polygon points="90,1066 93.5,1064 76,1064 76,1074" /><polygon points="90,1096 105,1103.5 105,1089" /><polygon points="105,1074 172,1109.7334 172,1064 93.5,1064 90,1066" /><polygon points="172,1183.5 172,1109.7334 105,1074 105,1089 105,1103.5 105,1153.4285 105,1170 105,1185 105,1192 172,1192" /><polygon points="172,1109.7334 172,1183.5 175,1185 175,1170 175,1089 175,1074 175,1064 172,1064" /><polygon points="172,1192 189,1192 175,1185 172,1183.5" /><polygon points="189,1192 204,1192 204,1185" /><polygon points="189,1066 192.5,1064 175,1064 175,1074" /><polygon points="204,1089 189,1096 204,1103.5" /><polygon points="204,1064 192.5,1064 189,1066 204,1074" /><polygon points="204,1170 204,1153.4285 189,1162" /><polygon points="175,1170 189,1162 204,1153.4285 204,1103.5 189,1096 175,1089" /><polygon points="105,1170 105,1170 105,1185 105,1185" /><polygon points="105,1074 105,1074 105,1089 105,1089" /><polygon points="175,1089 175,1089 175,1074 175,1074" /><polygon points="175,1185 175,1185 175,1170 175,1170" /><polygon points="204,1089 204,1089 189,1096 189,1096" /><polygon points="189,1096 189,1096 175,1089 175,1089" /><polygon points="189,1066 189,1066 204,1074 204,1074" /><polygon points="175,1074 175,1074 189,1066 189,1066" /><polygon points="189,1192 189,1192 175,1185 175,1185" /><polygon points="204,1185 204,1185 189,1192 189,1192" /><polygon points="175,1170 175,1170 189,1162 189,1162" /><polygon points="189,1162 189,1162 204,1170 204,1170" /><polygon points="90,1192 90,1192 76,1185 76,1185" /><polygon points="105,1089 105,1089 90,1096 90,1096" /><polygon points="90,1096 90,1096 76,1089 76,1089" /><polygon points="90,1066 90,1066 105,1074 105,1074" /><polygon points="76,1074 76,1074 90,1066 90,1066" /><polygon points="76,1170 76,1170 90,1162 90,1162" /><polygon points="105,1185 105,1185 90,1192 90,1192" /><polygon points="90,1162 90,1162 105,1170 105,1170" /><polygon points="-368,816 -448,816 -448,908 -368,908" /><polygon points="728,-444 648,-444 648,-352 728,-352" /><polygon points="300,940 300,940 300,940 204,940 204,940" /><polygon points="300,940 300,940 524,940 528,940 528,940 528,940 300,940" /><polygon points="-20,-476 -20,-476 -28,-476 -252,-476 -252,-476 -252,-476 -20,-476" /><polygon points="-20,-476 -20,-476 -20,-476 -8,-476 76,-476 76,-476" /><polygon points="204,-600 204,-600 186.5,-600 172,-600 105,-600 87.5,-600 76,-600 76,-600" /><polygon points="204,-728 204,-600 76,-600 76,-728" /><polygon points="204,-728 204,-728 204,-721 204,-706 204,-625 204,-610 204,-600 204,-600" /><polygon points="76,-600 76,-600 76,-610 76,-625 76,-639.5 76,-689.4286 76,-706 76,-721 76,-728 76,-728" /><polygon points="92,916 188,916 204,916 204,916 189,916 90,916 90,916" /><polygon points="76,916 90,916 90,916 90,916 76,916" /><polygon points="204,-452 190,-452 190,-452 190,-452 204,-452" /><polygon points="204,-476 188,-476 188,-452 190,-452 204,-452" /><polygon points="92,-476 76,-476 76,-452 92,-452" /><polygon points="188,-476 188,-476 188,-452 188,-452" /><polygon points="204,832 204,832 184,832 96,832 76,832 76,832" /><polygon points="188,-452 188,-384 92,-384 92,-452" /><polygon points="92,-452 92,-384 92,-384 92,-452" /><polygon points="188,-384 188,-384 92,-384 92,-384" /><polygon points="76,384 24,384 24,384 24,384 76,384" /><polygon points="24,192 24,148 24,148 24,192" /><polygon points="204,80 204,80 190,80 91,80 91,80" /><polygon points="204,64 204,-4 204,-144 204,-160 204,-160 204,-72 204,64" /><polygon points="204,-160 204,-296 204,-296 204,-296 204,-160" /><polygon points="204,-4 204,64 204,64" /><polygon points="204,-368 204,-368 204,-296 204,-296" /><polygon points="272,64 272,64 204,64 204,64 204,64 272,64" /><polygon points="272,80 272,64 272,64 272,80" /><polygon points="76,-160 76,-144 76,-4 76,64 76,64 76,-72 76,-160" /><polygon points="76,-368 76,-296 76,-296 76,-368" /><polygon points="204,-368 204,-296 204,-160 204,-144 76,-144 76,-160 76,-296 76,-368" /><polygon points="204,-144 204,-4 76,-4 76,-144" /><polygon points="204,-4 204,64 172,64 108,64 76,64 76,-4" /><polygon points="76,64 76,64 24,64 24,64 76,64" /><polygon points="256,272 256,304 256,384 256,384 256,316 256,272" /><polygon points="256,80 256,148 256,148 256,80" /><polygon points="256,192 256,272 272,272 272,192" /><polygon points="272,80 272,192 272,272 272,272 272,80" /><polygon points="256,272 256,192 256,148 256,80 204,80 91,80 76,80 24,80 24,148 24,192 24,272 24,304 256,304" /><polygon points="24,304 24,384 76,384 90,384 204,384 256,384 256,304" /><polygon points="8,192 24,192 24,192 8,192" /><polygon points="8,192 8,272 24,272 24,192" /><polygon points="8,272 8,192 8,192 8,272" /><polygon points="76,468 76,400 76,400" /><polygon points="76,536 76,692 76,760 76,760 76,760 76,624 76,536" /><polygon points="76,400 76,468 76,536 76,536 76,400" /><polygon points="204,760 204,760 204,832 204,832" /><polygon points="204,400 204,400 272,400 272,400 204,400" /><polygon points="204,468 204,536 204,692 76,692 76,536 76,468" /><polygon points="204,692 204,760 204,832 76,832 76,760 76,692" /><polygon points="76,832 76,908 76,908 76,832" /><polygon points="188,848 188,916 92,916 92,848" /><polygon points="188,848 188,848 188,916 188,916" /><polygon points="90,916 76,916 76,940 92,940 92,916" /><polygon points="188,916 188,940 204,940 204,916" /><polygon points="92,916 92,940 92,940 92,916" /><polygon points="204,1064 204,1192 76,1192 76,1064" /><polygon points="204,1192 204,1192 189,1192 172,1192 105,1192 90,1192 76,1192 76,1192" /><polygon points="76,1192 76,1192 76,1185 76,1170 76,1089 76,1074 76,1064 76,1064" /><polygon points="204,1064 204,1064 204,1074 204,1089 204,1103.5 204,1153.4285 204,1170 204,1185 204,1192 204,1192" /><polygon points="76,-452 76,-452 76,-464 76,-464" /><polygon points="204,-464 204,-464 204,-452 204,-452" /><polygon points="204,-452 76,-452 76,-464 204,-464" /><polygon points="76,-464 76,-464 204,-464 204,-464" /><polygon points="204,-452 204,-452 76,-452 76,-452" /><polygon points="76,928 76,928 76,916 76,916" /><polygon points="204,916 204,916 204,928 204,928" /><polygon points="204,928 76,928 76,916 204,916" /><polygon points="204,928 204,928 76,928 76,928" /><polygon points="76,916 76,916 204,916 204,916" /><polygon points="736,168 728,168 728,172 728,296 736,296" /><polygon points="736,296 728,296 728,296 728,296 728,296 732,296 736,296" /><polygon points="728,172 728,172 728,292 728,296 728,296" /><polygon points="728,172 728,172 728,168 728,168 728,172" /><polygon points="728,172 732,172 732,292 728,292" /><polygon points="728,172 728,172 728,292 728,292" /><polygon points="732,172 732,172 732,292 732,292" /><polygon points="728,296 728,292 728,292 728,296" /><polygon points="732,172 728,172 728,292 732,292" /><polygon points="172,116 172,64 204,64 204,116" /><polygon points="204,148 204,116 204,64 272,64 272,80 272,272 272,288 204,288" /><polygon points="272,288 272,348 204,348 204,316 204,288" /><polygon points="172,288 172,148 204,148 204,288 204,316 172,316" /><polygon points="108,148 108,116 108,64 172,64 172,116 172,148 172,288 108,288" /><polygon points="172,288 172,316 172,348 172,400 108,400 108,348 108,316 108,288" /><polygon points="76,116 76,64 108,64 108,116" /><polygon points="76,288 76,148 108,148 108,288 108,316 76,316" /><polygon points="8,272 8,192 8,64 24,64 76,64 76,116 76,148 76,288 8,288" /><polygon points="76,288 76,316 76,348 76,400 8,400 8,384 8,288" /><polygon points="204,400 172,400 172,348 204,348 272,348 272,384 272,400" /><polygon points="108,400 76,400 76,348 108,348" /><polygon points="272,64 272,64 272,80 272,80" /><polygon points="76,64 76,64 76,-4" /><polygon points="272,384 272,348 272,288 272,272 272,272 272,272 272,272 272,384" /><polygon points="24,64 8,64 8,64 24,64" /><polygon points="204,400 204,400 204,468" /><polygon points="272,400 272,384 272,384 272,400" /><polygon points="108,400 172,400 204,400 204,468 76,468 76,400" /><polygon points="8,400 76,400 76,400 76,400 8,400" /><polygon points="8,384 8,400 8,400 8,384" /><polygon points="-456,168 -456,168 -456,168 -456,296 -456,296 -456,296" /><polygon points="-456,168 -456,168 -456,168 -456,-56 -456,-56 -456,168" /><polygon points="-456,168 -448,168 -448,168 -448,168 -448,168 -452,168 -456,168" /><polygon points="-448,168 -456,168 -456,296 -448,296" /><polygon points="-452,172 -448,172 -448,292 -452,292" /><polygon points="-448,168 -448,172 -448,172 -448,168" /><polygon points="-448,172 -448,172 -448,292 -448,292" /><polygon points="-448,292 -448,172 -448,168 -448,168 -448,296 -448,296" /><polygon points="-448,172 -452,172 -452,292 -448,292" /><polygon points="608,828 608,828 620,828 640,828 712,828 712,828" /><polygon points="608,908 608,828 712,828 712,908" /><polygon points="712,828 712,828 712,908 712,908" /><polygon points="-320,-364 -320,-364 -344,-364 -364,-364 -424,-364 -424,-364" /><polygon points="-320,-364 -424,-364 -424,-444 -320,-444" /><polygon points="-456,-444 -424,-444 -424,-444 -456,-444" /><polygon points="-424,-364 -424,-364 -424,-444 -424,-444" /><polygon points="-368,908 -448,908 -448,816 -368,816" /><polygon points="-368,908 -368,908 -448,908 -448,908" /><polygon points="-448,816 -448,816 -368,816 -368,816" /><polygon points="-448,908 -448,908 -448,816 -448,816" /><polygon points="-368,816 -368,816 -368,908 -368,908" /><polygon points="728,-352 648,-352 648,-444 728,-444" /><polygon points="648,-444 648,-444 728,-444 728,-444" /><polygon points="728,-352 728,-352 648,-352 648,-352" /><polygon points="728,-444 728,-444 728,-352 728,-352" /><polygon points="648,-352 648,-352 648,-444 648,-444" /><polygon points="728,168 728,168 736,168 736,168 732,168 728,168" /><polygon points="732,172 728,172 728,292 732,292" /><polygon points="728,292 728,172 728,168 728,168 728,296 728,296" /><polygon points="732,172 732,172 728,172 728,172" /><polygon points="728,292 728,292 732,292 732,292" /><polygon points="728,172 728,172 728,292 728,292" /><polygon points="728,172 728,172 732,172 732,172" /><polygon points="732,292 732,292 728,292 728,292" /><polygon points="732,292 728,292 728,172 732,172" /><polygon points="728,292 728,292 728,172 728,172" /><polygon points="732,172 732,172 732,292 732,292" /><polygon points="-232,940 -92,940 -20,940 -20,940 -20,940 -232,940" /><polygon points="-92,940 -232,940 -316,940 -316,940 -92,940" /><polygon points="-232,-844 -456,-844 -456,-844 -232,-844" /><polygon points="-8,-844 -176,-844 -232,-844 -232,-844 -8,-844" /><polygon points="284,-844 484,-844 484,-844 428,-844 272,-844 272,-844" /><polygon points="284,-844 272,-844 60,-844 60,-844 60,-844 220,-844 284,-844" /><polygon points="508,-844 484,-844 284,-844 284,-844 444,-844 508,-844" /><polygon points="-456,-700 -456,-620 -456,-592 -456,-476 -456,-476 -456,-700" /><polygon points="-456,-844 -456,-700 -456,-700 -456,-844" /><polygon points="736,-476 736,-476 736,-476 608,-476 596,-476 596,-476 596,-476 736,-476" /><polygon points="685.6,-620 534.3998,-788 484,-844 508,-844 708,-844 708,-620" /><polygon points="708,-595.1111 685.6,-620 708,-620" /><polygon points="708,-620 708,-844 736,-844 736,-700 736,-620" /><polygon points="736,-564 708,-595.1111 708,-620 736,-620" /><polygon points="685.6,-620 708,-595.1111 736,-564 736,-564 596,-719.5555 534.4002,-788 534.3998,-788" /><polygon points="-232,-793.6 -424.8889,-620 -456,-620 -456,-700 -456,-844 -232,-844" /><polygon points="-424.8889,-620 -456,-592 -456,-620" /><polygon points="-176,-844 -232,-793.6 -232,-844" /><polygon points="-176,-844 -176,-844 -232,-793.6001 -232,-793.6" /><polygon points="728,168 732,168 732,296 728,296" /><polygon points="732,168 736,168 736,168 736,168 732,168" /><polygon points="732,168 732,168 732,296 732,296" /><polygon points="608,908 712,908 736,908 736,908 596,908 596,908" /><polygon points="736,908 712,908 712,908 712,908 732,908 736,908" /><polygon points="712,908 608,908 608,908 712,908" /><polygon points="-20,908 -20,908 -252,908 -252,908" /><polygon points="-448,908 -448,908 -448,816 -448,816 -448,908" /><polygon points="-456,1084 -456,1252 -456,1308 -456,1308 -456,1084" /><polygon points="-456,940 -456,1028 -456,1084 -456,1084 -456,940" /><polygon points="-456,1028 -456,940 -456,940 -456,1028" /><polygon points="428,1308 204,1308 204,1308 204,1308 428,1308" /><polygon points="456,1308 528,1308 528,1308 508,1308 428,1308 428,1308" /><polygon points="680,1280 680,1308 528,1308 456,1308 680,1106.4" /><polygon points="736,1056 736,1084 736,1280 680,1280 680,1106.4" /><polygon points="736,1280 736,1308 680,1308 680,1280" /><polygon points="680,1106.4 456,1308 456,1308 616,1164 652,1131.6 680,1106.4" /><polygon points="-456,1252 -456,1084 -456,1028 -405.5999,1084 -254.4,1252" /><polygon points="-232,1308 -456,1308 -456,1252 -254.4,1252 -232,1276.8889" /><polygon points="-204,1308 -232,1308 -232,1276.8889" /><polygon points="-456,1028 -456,1028 -405.5999,1084 -405.5999,1084" /><polygon points="-448,296 -448,296 -448,296 -456,296 -456,296 -452,296 -448,296" /><polygon points="-448,172 -452,172 -452,292 -448,292" /><polygon points="-452,292 -452,292 -448,292 -448,292" /><polygon points="-448,172 -448,172 -452,172 -452,172" /><polygon points="-452,172 -452,172 -452,292 -452,292" /><polygon points="-448,172 -448,172 -448,292 -448,292" /><polygon points="-448,292 -448,292 -448,296 -448,296" /><polygon points="-452,172 -452,172 -448,172 -448,172" /><polygon points="-448,292 -448,292 -452,292 -452,292" /><polygon points="-448,292 -452,292 -452,172 -448,172" /><polygon points="-448,172 -448,172 -448,292 -448,292" /><polygon points="-452,292 -452,292 -452,172 -452,172" /><polygon points="-452,168 -448,168 -448,296 -452,296" /><polygon points="-452,296 -456,296 -456,296 -456,296 -452,296" /><polygon points="-448,168 -448,168 -448,172 -448,292 -448,296 -448,296" /><polygon points="-368,816 -448,816 -448,908 -368,908" /><polygon points="728,-444 648,-444 648,-352 728,-352" /><polygon points="76,940 92,940 92,940 76,940" /><polygon points="300,940 300,940 204,940 188,940 188,940" /><polygon points="300,940 188,940 92,940 76,940 76,940 76,940 204,940 300,940" /><polygon points="524,940 300,940 300,940 428,940 524,940" /><polygon points="596,940 596,940 528,940 528,940" /><polygon points="-252,-476 -252,-476 -328,-476 -456,-476 -456,-476 -456,-476 -456,-476 -252,-476" /><polygon points="-20,-476 -20,-476 76,-476 92,-476 92,-476" /><polygon points="204,-476 188,-476 188,-476 204,-476" /><polygon points="-20,-476 92,-476 188,-476 204,-476 204,-476 204,-476 76,-476 -28,-476 -28,-476" /><polygon points="596,-444 596,-444 596,-444 528,-444 528,-444 528,-444" /><polygon points="188,-452 188,-476 92,-476 92,-452" /><polygon points="92,-476 92,-476 92,-452 92,-452" /><polygon points="184,832 184,832 96,832 96,832" /><polygon points="96,-368 184,-368 204,-368 204,-368 76,-368 76,-368" /><polygon points="188,-384 188,-452 92,-452 92,-384" /><polygon points="188,-452 188,-384 188,-384 188,-452" /><polygon points="108,348 108,348 108,316 108,316 108,316 108,348" /><polygon points="108,148 108,148 108,116 108,116 108,116 108,148" /><polygon points="204,316 204,316 204,348 204,348" /><polygon points="204,116 204,116 204,148 204,148" /><polygon points="204,608 204,796 204,832 204,832 204,608" /><polygon points="204,384 204,572 204,608 204,608 204,384" /><polygon points="204,8 204,80 204,116 204,148 204,232 204,232 204,160 204,80 204,8" /><polygon points="204,-216 204,-144 204,8 204,8 204,-144 204,-216" /><polygon points="184,316 172,316 172,316 204,316 204,316" /><polygon points="184,116 172,116 172,116 204,116 204,116" /><polygon points="204,-216 204,-368 184,-368 184,-332 184,-144 204,-144" /><polygon points="184,-144 184,-108 184,80 204,80 204,8 204,-144" /><polygon points="184,80 184,116 204,116 204,80" /><polygon points="184,-368 184,-368 184,-332 184,-332" /><polygon points="184,148 172,148 172,148 184,148" /><polygon points="184,148 204,148 204,148 172,148 172,148" /><polygon points="172,148 172,148 172,116 172,116 172,116 172,148" /><polygon points="204,232 184,232 184,316 204,316" /><polygon points="184,148 184,232 204,232 204,148" /><polygon points="184,232 184,232 184,316 184,316" /><polygon points="184,348 172,348 172,348 184,348" /><polygon points="184,348 204,348 204,348 172,348 172,348" /><polygon points="172,348 172,348 172,316 172,316 172,316 172,348" /><polygon points="204,384 204,348 184,348 184,384 184,572 204,572" /><polygon points="184,572 184,608 184,796 204,796 204,608 204,572" /><polygon points="184,796 184,832 204,832 204,796" /><polygon points="184,348 184,348 184,384 184,384" /><polygon points="96,384 96,348 76,348 76,384 76,572 96,572" /><polygon points="76,572 76,608 76,796 96,796 96,608 96,572" /><polygon points="76,796 76,832 96,832 96,796" /><polygon points="96,232 76,232 76,316 96,316" /><polygon points="76,148 76,232 96,232 96,148" /><polygon points="96,-332 96,-368 76,-368 76,-216 76,-144 96,-144" /><polygon points="76,-144 76,8 76,80 96,80 96,-108 96,-144" /><polygon points="76,80 76,116 96,116 96,80" /><polygon points="96,-108 96,80 96,116 96,116 96,80 96,-108" /><polygon points="96,-332 96,-144 96,-108 96,-108 96,-144 96,-332" /><polygon points="96,148 96,232 96,232 96,148" /><polygon points="96,608 96,796 96,832 96,832 96,608" /><polygon points="96,384 96,572 96,608 96,608 96,384" /><polygon points="96,116 108,116 108,116 96,116" /><polygon points="96,316 108,316 108,316 96,316" /><polygon points="76,-368 76,-368 76,-216 76,-216" /><polygon points="76,348 76,316 76,232 76,232 76,384 76,384" /><polygon points="96,316 76,316 76,316 108,316 108,316" /><polygon points="96,116 76,116 76,116 108,116 108,116" /><polygon points="96,148 108,148 108,148 76,148 76,148" /><polygon points="76,148 76,148 76,116 76,116" /><polygon points="96,348 108,348 108,348 76,348 76,348" /><polygon points="76,348 76,348 76,316 76,316" /><polygon points="76,832 76,832 76,908 76,908 76,908 76,832" /><polygon points="204,908 204,908 204,832 204,832 204,832 204,832 204,832 204,908" /><polygon points="204,908 204,908 204,908 428,908 428,908" /><polygon points="428,908 428,908 528,908 528,908 528,908 528,908" /><polygon points="188,916 188,848 92,848 92,916" /><polygon points="92,848 92,848 92,916 92,916" /><polygon points="188,848 188,848 92,848 92,848" /><polygon points="-20,908 -20,908 -92,908 -252,908 -252,908 -252,908" /><polygon points="-20,908 -20,908 -20,908 76,908 76,908 76,908 76,908" /><polygon points="188,940 188,916 92,916 92,940" /><polygon points="188,916 188,940 188,940 188,916" /><polygon points="428,1308 284,1308 204,1308 204,1308 428,1308" /><polygon points="528,1308 528,1308 508,1308 508,1308" /><polygon points="528,1308 528,1308 680,1308 736,1308 736,1308 736,1308 668,1308 528,1308" /><polygon points="-316,940 -316,940 -316,940 -232,940 -92,940 -92,940" /><polygon points="-20,940 -20,940 -92,940 -92,940" /><polygon points="-316,940 -316,940 -456,940 -456,940 -456,940 -328,940 -316,940" /><polygon points="76,940 76,940 76,940 76,940 -20,940 -20,940 -20,940" /><polygon points="-456,-844 -456,-844 -232,-844 -232,-844" /><polygon points="-232,-844 -232,-844 -8,-844 -8,-844" /><polygon points="60,-844 60,-844 48,-844 -8,-844 -8,-844" /><polygon points="736,-476 736,-476 736,-564 736,-620 736,-700 736,-700" /><polygon points="736,-700 736,-700 736,-844 736,-844" /><polygon points="-456,-476 -456,-476 -456,-476 -456,-476 -456,-620 -456,-700 -456,-700" /><polygon points="-456,-700 -456,-700 -456,-844 -456,-844" /><polygon points="204,-476 204,-476 204,-476 204,-476 428,-476 428,-476" /><polygon points="428,-476 428,-476 596,-476 596,-476 596,-476" /><polygon points="-456,1308 -456,1308 -456,1164 -456,1084 -456,1084" /><polygon points="-456,1084 -456,1084 -456,940 -456,940 -456,940" /><polygon points="736,1308 736,1308 736,1280 736,1084 736,1084" /><polygon points="736,1084 736,1084 736,1056 736,940 736,940" /><polygon points="-456,1308 -456,1308 -232,1308 -232,1308" /><polygon points="-232,1308 -232,1308 -204,1308 -20,1308 -20,1308 -20,1308" /><polygon points="-20,1308 -20,1308 60,1308 60,1308 60,1308 -20,1308" /><polygon points="596,940 596,940 528,940 524,940 524,940" /><polygon points="608,940 736,940 736,940 736,940 596,940 596,940 596,940" /><polygon points="428,940 300,940 204,940 204,940 204,940 216,940 428,940" /><polygon points="736,296 736,296 736,404 736,440 736,440" /><polygon points="736,684 736,736 736,908 736,908 736,908 736,908 736,684" /><polygon points="736,460 736,664 736,684 736,684 736,460" /><polygon points="736,-200 736,-56 736,-56" /><polygon points="736,-56 736,168 736,168 736,168 736,168 736,-56" /><polygon points="736,-280 736,-200 736,-56 736,-56 736,-280" /><polygon points="-456,816 -456,736 -456,664 -456,592 -456,592 -456,816" /><polygon points="-456,592 -456,440 -456,368 -456,368 -456,592" /><polygon points="-456,368 -456,296 -456,296 -456,296 -456,296 -456,368" /><polygon points="-456,440 -456,592 -456,664 -456,628 -456,440" /><polygon points="-456,-56 -456,168 -456,168 -456,60 -456,24 -456,-56" /><polygon points="-456,-200 -456,-56 -456,-56" /><polygon points="-456,-56 -456,-200 -456,-220 -456,-280 -456,-280 -456,-56" /><polygon points="-456,-280 -456,-300 -456,-300 -456,-300 -456,-280" /><polygon points="-456,-300 -456,-444 -456,-444 -456,-444 -456,-360 -456,-300" /><polygon points="-28,-476 76,-476 76,-476 76,-476 -8,-476 -104,-476 -104,-476" /><polygon points="204,-476 204,-476 76,-476 76,-476" /><polygon points="-28,-476 -104,-476 -252,-476 -252,-476 -28,-476" /><polygon points="596,736 608,736 608,736 608,736 608,736 596,736" /><polygon points="596,-444 596,-444 596,-300 596,-300" /><polygon points="596,-444 596,-300 608,-300 728,-300 728,-352 728,-444" /><polygon points="736,-300 736,-352 728,-352 728,-300" /><polygon points="528,-444 528,-444 596,-444 596,-444 596,-444 528,-444" /><polygon points="608,664 608,628 608,609.8333 608,664 608,736 608,736" /><polygon points="736,-280 736,-300 728,-300 608,-300 608,-272 608,-200 736,-200" /><polygon points="736,296 736,296 732,296 732,296 736,296" /><polygon points="736,736 736,684 736,664 608,664 608,736" /><polygon points="596,-300 596,-272 608,-272 608,-300" /><polygon points="736,736 608,736 596,736 596,908 736,908" /><polygon points="596,736 596,736 596,908 596,908" /><polygon points="528,908 528,908 528,908 596,908 596,908" /><polygon points="76,384 96,384 96,608 76,608" /><polygon points="96,608 96,832 76,832 76,608" /><polygon points="96,384 108,384 108,348 96,348" /><polygon points="184,384 204,384 204,608 184,608" /><polygon points="204,608 204,832 184,832 184,608" /><polygon points="172,348 172,384 184,384 184,348" /><polygon points="108,304 108,148 96,148 96,232 96,316 108,316" /><polygon points="108,80 96,80 96,116 108,116" /><polygon points="172,148 172,116 172,80 108,80 108,116 108,148 108,304 172,304" /><polygon points="108,304 108,316 108,348 108,384 172,384 172,348 172,316 172,304" /><polygon points="76,-216 76,-368 96,-368 96,-332 96,-144 76,-144" /><polygon points="96,-144 96,-108 96,80 76,80 76,8 76,-144" /><polygon points="184,232 184,148 172,148 172,304 172,316 184,316" /><polygon points="184,80 172,80 172,116 184,116" /><polygon points="204,-444 204,-368 184,-368 96,-368 76,-368 76,-444" /><polygon points="184,-332 184,-368 204,-368 204,-216 204,-144 184,-144" /><polygon points="204,-144 204,8 204,80 184,80 184,-108 184,-144" /><polygon points="96,80 108,80 172,80 184,80 204,80 204,80 76,80 76,80" /><polygon points="76,80 76,80 76,160 76,160" /><polygon points="204,160 204,232 204,384 204,384 204,304 204,160" /><polygon points="184,-368 184,-368 96,-368 96,-368" /><polygon points="528,-444 528,-444 528,-444 428,-444 428,-444" /><polygon points="76,-444 76,-368 76,-368 76,-368 76,-444" /><polygon points="76,-444 76,-444 76,-444 76,-444 -28,-444 -28,-444" /><polygon points="204,232 204,232 204,316 204,348 204,384 204,384" /><polygon points="204,-368 204,-368 204,-216 204,-216" /><polygon points="172,316 172,316 184,316 184,316" /><polygon points="172,116 172,116 184,116 184,116" /><polygon points="184,-108 184,80 184,116 184,116 184,80 184,-108" /><polygon points="184,-332 184,-144 184,-108 184,-108 184,-144 184,-332" /><polygon points="184,232 184,232 184,148 184,148" /><polygon points="184,608 184,832 184,832 184,796 184,608" /><polygon points="184,384 184,608 184,608 184,572 184,384" /><polygon points="96,-368 96,-368 96,-332 96,-332" /><polygon points="96,232 96,232 96,316 96,316" /><polygon points="96,348 96,348 96,384 96,384" /><polygon points="108,148 108,148 96,148 96,148" /><polygon points="108,348 108,348 96,348 96,348" /><polygon points="76,8 76,80 76,160 76,232 76,232 76,148 76,116 76,80 76,8" /><polygon points="76,-216 76,-144 76,8 76,8 76,-144 76,-216" /><polygon points="76,608 76,832 76,832 76,796 76,608" /><polygon points="76,384 76,608 76,608 76,572 76,384" /><polygon points="528,908 528,908 428,908 428,908 528,908" /><polygon points="96,832 184,832 204,832 204,908 76,908 76,832" /><polygon points="204,908 204,908 76,908 76,908" /><polygon points="76,908 76,908 76,908 -20,908 -20,908 76,908" /><polygon points="-456,168 -456,168 -452,168 -452,168 -456,168" /><polygon points="-328,-272 -328,-444 -456,-444 -456,-300 -456,-280 -456,-220 -328,-220" /><polygon points="-456,-220 -456,-200 -328,-200 -328,-220" /><polygon points="-316,-444 -320,-444 -328,-444 -328,-272 -316,-272" /><polygon points="-328,-220 -328,-200 -328,-145.8333 -328,-164 -328,-200 -328,-228 -328,-272 -328,-272" /><polygon points="-316,-272 -328,-272 -328,-272 -328,-272 -328,-272 -316,-272" /><polygon points="-316,-444 -316,-444 -252,-444 -252,-444" /><polygon points="-456,-444 -328,-444 -320,-444 -320,-444 -424,-444 -456,-444" /><polygon points="-456,664 -456,736 -328,736 -328,664" /><polygon points="-448,816 -448,908 -316,908 -316,816" /><polygon points="-448,816 -316,816 -316,736 -328,736 -456,736 -456,816" /><polygon points="-316,908 -316,908 -252,908 -252,908 -252,908" /><polygon points="-448,908 -448,908 -316,908 -316,908" /><polygon points="736,940 736,940 736,940 736,1084 736,1084 736,940" /><polygon points="-368,908 -368,908 -448,908 -448,908" /><polygon points="-448,816 -448,816 -368,816 -368,816" /><polygon points="-448,908 -448,908 -448,816 -448,816" /><polygon points="-368,816 -368,816 -368,908 -368,908" /><polygon points="-368,908 -448,908 -448,816 -368,816" /><polygon points="648,-444 648,-444 728,-444 728,-444" /><polygon points="728,-352 728,-352 648,-352 648,-352" /><polygon points="728,-444 728,-444 728,-352 728,-352" /><polygon points="648,-352 648,-352 648,-444 648,-444" /><polygon points="728,-352 648,-352 648,-444 728,-444" /><polygon points="-456,628 -456,664 -328,664 -328,628" /><polygon points="608,628 608,664 736,664 736,628" /><polygon points="-316,940 -328,940 -328,940 -316,940" /><polygon points="736,940 736,940 608,940 608,940" /><polygon points="736,-272 736,-300 736,-300 736,-272" /><polygon points="-456,-476 -456,-452 -456,-300 -456,-300 -456,-300 -456,-300 -456,-476" /><polygon points="-456,-476 -456,-476 -328,-476 -328,-476" /><polygon points="596,-476 596,-476 440,-476 428,-476 428,-476 596,-476" /><polygon points="596,-476 608,-476 608,-476 596,-476" /><polygon points="608,-476 736,-476 736,-300 608,-300" /><polygon points="608,-476 608,-300 608,-300 608,-300 608,-396 608,-476" /><polygon points="608,-272 608,-272 608,-300 608,-300" /><polygon points="608,-200 608,-164 608,-164" /><polygon points="608,-200 608,-164 608,-145.8333 608,-200 608,-272 608,-272" /><polygon points="736,-300 736,-272 736,-200 608,-200 608,-272 608,-300" /><polygon points="608,664 736,664 736,736 608,736" /><polygon points="608,824 608,824 608,764 608,736 608,736" /><polygon points="736,736 736,824 736,940 608,940 608,824 608,736" /><polygon points="-456,-476 -328,-476 -328,-452 -456,-452" /><polygon points="-328,-164 -328,-145.8333 -328,24 -328,60 -328,60 -328,24 -328,-164" /><polygon points="-328,-200 -328,-164 -328,-164" /><polygon points="-328,-452 -328,-300 -328,-272 -328,-228 -456,-228 -456,-272 -456,-300 -456,-452" /><polygon points="-328,-228 -328,-200 -456,-200 -456,-228" /><polygon points="-328,664 -328,609.8333 -328,628 -328,664 -328,736 -328,736" /><polygon points="-456,664 -328,664 -328,736 -456,736" /><polygon points="-328,609.8333 -328,440 -328,404 -456,404 -456,440 -456,628 -328,628" /><polygon points="-328,916 -328,816 -328,816 -328,816 -328,916" /><polygon points="-328,736 -328,736 -328,764 -328,816 -328,816" /><polygon points="-328,736 -328,816 -328,916 -456,916 -456,816 -456,736" /><polygon points="-328,940 -328,916 -328,916 -328,916 -328,940" /><polygon points="-328,916 -328,940 -456,940 -456,916" /><polygon points="76,160 76,304 76,384 76,384 76,232 76,160" /><polygon points="204,384 204,384 184,384 172,384 108,384 96,384 76,384 76,384" /><polygon points="204,80 204,80 204,160 204,160" /><polygon points="76,160 76,80 204,80 204,160 204,304 76,304" /><polygon points="204,304 204,384 76,384 76,304" /><polygon points="-328,-292 -456,-292 -456,-280 -328,-280" /><polygon points="736,-292 608,-292 608,-280 736,-280" /><polygon points="736,744 608,744 608,756 736,756" /><polygon points="-328,744 -456,744 -456,756 -328,756" /><polygon points="736,628 736,664 608,664 608,628" /><polygon points="-456,-164 -456,24 -456,60 -456,-160 -456,-164" /><polygon points="608,-164 608,24 608,60 608,60 608,24 608,-145.8333 608,-164" /><polygon points="-328,628 -328,664 -456,664 -456,628" /><polygon points="736,-56 736,24 736,60 736,168 736,168 736,-56" /><polygon points="444,-844 284,-844 220,-844 220,-844 284,-844 444,-844" /><polygon points="668,-844 508,-844 444,-844 444,-844 508,-844 668,-844" /><polygon points="668,-844 736,-844 736,-844 736,-844 708,-844 508,-844 508,-844" /><polygon points="736,-844 736,-844 736,-844 736,-700 736,-700 736,-844" /><polygon points="220,-764 220,-844 60,-844 60,-764" /><polygon points="284,1308 220,1308 60,1308 60,1308 204,1308 284,1308" /><polygon points="508,1308 444,1308 284,1308 284,1308 428,1308 508,1308" /><polygon points="736,1308 736,1308 668,1308 668,1308" /><polygon points="220,1308 220,1228 60,1228 60,1308" /><polygon points="220,1228 220,1228 60,1228 60,1228" /><polygon points="-456,512 -456,628 -456,664 -456,736 -456,736 -456,512" /><polygon points="-456,512 -456,404 -328,404 -328,440 -328,628 -456,628" /><polygon points="736,440 736,628 736,664 736,460 736,440" /><polygon points="736,24 736,-56 736,-200 608,-200 608,-145.8333 608,24" /><polygon points="736,440 736,404 608,404 608,440 608,609.8333 608,628 736,628" /><polygon points="-328,24 -328,-145.8333 -328,-200 -456,-200 -456,-56 -456,24" /><polygon points="-328,440 -328,609.8333 -328,664 -328,628 -328,440" /><polygon points="284,-844 220,-844 60,-844 60,-844 216,-844 284,-844" /><polygon points="508,-844 444,-844 284,-844 284,-844 440,-844 508,-844" /><polygon points="736,-844 736,-844 668,-844 668,-844" /><polygon points="-456,404 -456,296 -456,296 -456,368 -456,440 -456,440" /><polygon points="220,-844 220,-844 220,-764 220,-764" /><polygon points="60,-764 60,-764 60,-844 60,-844" /><polygon points="220,-764 220,-764 60,-764 60,-764" /><polygon points="220,-844 220,-764 60,-764 60,-844" /><polygon points="608,168 608,60 608,60 608,180 608,180" /><polygon points="608,404 608,404 608,440 608,440" /><polygon points="608,60 608,168 732,168 736,168 736,60" /><polygon points="608,60 736,60 736,24 608,24" /><polygon points="732,168 608,168 608,180 608,296 732,296" /><polygon points="732,296 608,296 608,404 736,404 736,296" /><polygon points="-452,168 -328,168 -328,60 -456,60 -456,168" /><polygon points="-456,60 -328,60 -328,24 -456,24" /><polygon points="-328,168 -328,296 -328,404 -328,404 -328,296 -328,168" /><polygon points="-452,168 -452,168 -452,296 -452,296" /><polygon points="-328,168 -452,168 -452,296 -328,296" /><polygon points="-452,296 -456,296 -456,404 -328,404 -328,296" /><polygon points="-20,1308 -20,1308 -232,1308 -232,1308 -20,1308" /><polygon points="668,1308 736,1308 736,1308 664,1308 652,1308 652,1308" /><polygon points="444,1308 428,1308 220,1308 220,1308 284,1308 444,1308" /><polygon points="668,1308 652,1308 444,1308 444,1308 508,1308 528,1308 668,1308" /><polygon points="60,1308 60,1308 60,1228 60,1228" /><polygon points="220,1228 220,1228 220,1308 220,1308" /><polygon points="220,1228 220,1308 204,1308 60,1308 60,1228" /><polygon points="608,440 608,628 608,664 608,609.8333 608,440" /><polygon points="608,440 608,404 736,404 736,512 736,628 608,628" /><polygon points="608,24 608,-164 608,-200 736,-200 736,-56 736,24" /><polygon points="-456,24 -456,-164 -456,-200 -328,-200 -328,-164 -328,24" /><polygon points="736,736 736,736 736,764 736,824 736,824 736,736" /><polygon points="736,512 736,736 736,736 736,664 736,628 736,512" /><polygon points="736,404 736,512 736,512" /><polygon points="736,284 736,168 736,168 736,168 736,176 736,288 736,288" /><polygon points="736,60 736,168 736,168" /><polygon points="-456,404 -456,512 -456,512" /><polygon points="-456,-272 -456,-272 -456,-228 -456,-200 -456,-164 -456,-164" /><polygon points="-456,512 -456,736 -456,736 -456,736 -456,512" /><polygon points="-456,288 -456,296 -456,404 -456,512 -456,512 -456,496 -456,288" /><polygon points="-456,64 -456,168 -456,288 -456,288 -456,272 -456,168 -456,64" /><polygon points="-456,-160 -456,60 -456,64 -456,64 -456,-48 -456,-160" /><polygon points="-456,-272 -456,-272 -456,-300 -456,-300 -456,-272" /><polygon points="608,180 608,284 608,404 608,404 608,296 608,180" /><polygon points="608,180 608,60 736,60 736,168 736,284 608,284" /><polygon points="736,284 736,288 736,404 608,404 608,284" /><polygon points="736,60 608,60 608,24 736,24" /><polygon points="-328,60 -328,60 -328,168 -328,168" /><polygon points="-328,60 -328,168 -452,168 -456,168 -456,64 -456,60" /><polygon points="-328,60 -456,60 -456,24 -328,24" /><polygon points="-456,288 -456,168 -452,168 -452,296 -456,296" /><polygon points="-452,168 -328,168 -328,296 -452,296" /><polygon points="-452,296 -328,296 -328,404 -456,404 -456,296" /><polygon points="-328,404 -328,404 -328,440 -328,440" /><polygon points="204,940 204,940 76,940 76,940" /><polygon points="204,-476 204,-476 76,-476 76,-476" /><polygon points="204,-444 204,-444 76,-444 76,-444" /><polygon points="204,-444 204,-444 356,-444 428,-444 428,-444 204,-444" /><polygon points="204,908 204,908 132,908 76,908 76,908" /><polygon points="736,824 736,824 736,940 736,940 736,824" /><polygon points="736,824 736,764 736,764 736,824" /><polygon points="736,-272 736,-272 736,-56 736,-56 736,-200 736,-272" /><polygon points="-456,816 -456,816 -456,916 -456,940 -456,940 -456,816" /><polygon points="-456,764 -456,736 -456,736 -456,736 -456,816 -456,816" /><polygon points="-456,816 -456,816 -456,764 -456,764 -456,764" /><polygon points="608,-300 736,-300 736,-300 608,-300" /><polygon points="608,-300 608,-272 736,-272 736,-300" /><polygon points="608,-272 608,-272 608,-272 596,-272 596,-272 608,-272" /><polygon points="608,824 608,824 608,940 608,940 608,824" /><polygon points="608,824 608,824 608,764 608,764" /><polygon points="608,736 608,764 736,764 736,736" /><polygon points="736,764 608,764 608,764 736,764" /><polygon points="-328,736 -328,736 -328,736 -316,736 -316,736 -328,736" /><polygon points="-328,-272 -328,-272 -328,-300 -328,-300" /><polygon points="-328,-300 -328,-300 -328,-452 -328,-452 -328,-300" /><polygon points="-456,-300 -328,-300 -328,-300 -456,-300" /><polygon points="-456,-300 -456,-272 -328,-272 -328,-300" /><polygon points="-328,764 -328,764 -328,816 -328,816" /><polygon points="-456,736 -456,764 -328,764 -328,736" /><polygon points="-328,764 -456,764 -456,764 -328,764" /><polygon points="-328,-280 -456,-280 -456,-292 -328,-292" /><polygon points="-456,-280 -456,-280 -456,-292 -456,-292" /><polygon points="-328,-292 -328,-292 -328,-280 -328,-280" /><polygon points="-328,-280 -328,-280 -456,-280 -456,-280" /><polygon points="-456,-292 -456,-292 -328,-292 -328,-292" /><polygon points="736,-280 608,-280 608,-292 736,-292" /><polygon points="736,-292 736,-292 736,-280 736,-280" /><polygon points="608,-280 608,-280 608,-292 608,-292" /><polygon points="736,-280 736,-280 608,-280 608,-280" /><polygon points="608,-292 608,-292 736,-292 736,-292" /><polygon points="736,756 608,756 608,744 736,744" /><polygon points="736,744 736,744 736,756 736,756" /><polygon points="608,756 608,756 608,744 608,744" /><polygon points="608,744 608,744 736,744 736,744" /><polygon points="736,756 736,756 608,756 608,756" /><polygon points="-328,756 -456,756 -456,744 -328,744" /><polygon points="-456,756 -456,756 -456,744 -456,744" /><polygon points="-328,744 -328,744 -328,756 -328,756" /><polygon points="-456,744 -456,744 -328,744 -328,744" /><polygon points="-328,756 -328,756 -456,756 -456,756" /><polygon points="736,512 736,624 736,736 736,736 736,736 736,512" /><polygon points="736,288 736,400 736,512 736,512 736,404 736,288" /><polygon points="736,-56 736,-48 736,168 736,168 736,60 736,24 736,-56" /><polygon points="-456,-272 -456,-272 -456,-272 -456,-164 -456,-160 -456,-160" /><polygon points="608,736 608,736 736,736 736,736" /><polygon points="596,-300 596,-444 528,-444 528,-300" /><polygon points="596,496 596,400 596,272 528,272 528,496" /><polygon points="596,736 596,624 596,496 528,496 528,720 528,736" /><polygon points="596,-76 596,-272 596,-300 528,-300 528,-76" /><polygon points="596,148 596,-48 596,-76 528,-76 528,148" /><polygon points="596,272 596,176 596,148 528,148 528,272" /><polygon points="736,-56 736,-272 608,-272 596,-272 596,-76 596,-48 736,-48" /><polygon points="596,-48 596,148 596,176 736,176 736,168 736,-48" /><polygon points="596,176 596,272 596,400 736,400 736,288 736,176" /><polygon points="596,400 596,496 596,624 736,624 736,512 736,400" /><polygon points="596,624 596,736 608,736 736,736 736,624" /><polygon points="736,-272 736,-272 608,-272 608,-272" /><polygon points="596,-300 596,-272 596,-272 596,-300" /><polygon points="596,908 596,736 528,736 528,908" /><polygon points="596,908 528,908 528,908 596,908" /><polygon points="-328,-452 -328,-452 -328,-476 -328,-476 -328,-452" /><polygon points="-316,496 -316,272 -456,272 -456,288 -456,496" /><polygon points="-328,736 -316,736 -316,720 -316,496 -456,496 -456,512 -456,736" /><polygon points="-92,272 -232,272 -316,272 -316,496 -92,496" /><polygon points="-316,496 -316,720 -92,720 -92,496" /><polygon points="-316,720 -316,736 -316,908 -252,908 -92,908 -92,720" /><polygon points="132,272 -20,272 -92,272 -92,496 132,496" /><polygon points="-92,496 -92,720 132,720 132,496" /><polygon points="-92,720 -92,908 -20,908 76,908 132,908 132,720" /><polygon points="356,272 204,272 132,272 132,496 356,496" /><polygon points="132,496 132,720 356,720 356,496" /><polygon points="132,720 132,908 204,908 356,908 356,720" /><polygon points="528,272 428,272 356,272 356,496 528,496" /><polygon points="356,496 356,720 528,720 528,496" /><polygon points="356,720 356,908 428,908 528,908 528,736 528,720" /><polygon points="-232,168 -316,168 -456,168 -456,272 -316,272 -232,272" /><polygon points="-92,272 -20,272 -20,168 -92,168 -232,168 -232,272" /><polygon points="-316,-48 -316,-76 -316,-272 -328,-272 -456,-272 -456,-160 -456,-48" /><polygon points="-456,64 -456,168 -316,168 -316,148 -316,-48 -456,-48" /><polygon points="-92,-300 -316,-300 -316,-272 -316,-76 -92,-76" /><polygon points="-316,-76 -316,-48 -316,148 -92,148 -92,-76" /><polygon points="-316,148 -316,168 -232,168 -92,168 -92,148" /><polygon points="-20,-76 -20,-300 -92,-300 -92,-76" /><polygon points="-20,148 -20,-76 -92,-76 -92,148" /><polygon points="-20,168 -20,148 -92,148 -92,168" /><polygon points="204,-300 132,-300 -20,-300 -20,-76 204,-76" /><polygon points="-20,-76 -20,148 204,148 204,-76" /><polygon points="-20,148 -20,168 -20,272 132,272 204,272 204,148" /><polygon points="428,-300 356,-300 204,-300 204,-76 428,-76" /><polygon points="204,-76 204,148 428,148 428,-76" /><polygon points="204,148 204,272 356,272 428,272 428,148" /><polygon points="528,-300 428,-300 428,-76 528,-76" /><polygon points="428,-76 428,148 528,148 528,-76" /><polygon points="428,148 428,272 528,272 528,148" /><polygon points="-92,-444 -252,-444 -316,-444 -316,-300 -92,-300" /><polygon points="132,-444 76,-444 -28,-444 -92,-444 -92,-300 -20,-300 132,-300" /><polygon points="356,-444 204,-444 132,-444 132,-300 204,-300 356,-300" /><polygon points="528,-444 428,-444 356,-444 356,-300 428,-300 528,-300" /><polygon points="-328,-300 -328,-300 -456,-300 -456,-300" /><polygon points="-328,-452 -328,-452 -328,-300 -328,-300" /><polygon points="-456,764 -456,764 -328,764 -328,764" /><polygon points="-328,816 -328,816 -328,916 -328,916" /><polygon points="-328,764 -328,764 -328,816 -328,816" /><polygon points="-252,-444 -92,-444 -28,-444 -28,-444 -252,-444" /><polygon points="-28,-444 76,-444 76,-444 76,-444 -28,-444" /><polygon points="132,-444 204,-444 204,-444 76,-444 76,-444" /><polygon points="428,-444 528,-444 528,-444 428,-444" /><polygon points="428,908 356,908 204,908 204,908 204,908 204,908 428,908" /><polygon points="-456,736 -456,736 -328,736 -328,736" /><polygon points="-316,-300 -316,-444 -316,-444 -316,-272 -316,-272" /><polygon points="-328,-272 -328,-272 -456,-272 -456,-272" /><polygon points="-252,908 -316,908 -316,908 -252,908" /><polygon points="-316,736 -316,736 -316,816 -316,908 -316,908" /><polygon points="-20,940 -20,940 -92,940 -92,940" /><polygon points="-20,940 -8,940 76,940 76,940 76,940 76,940 -20,940" /><polygon points="204,940 204,940 76,940 76,940" /><polygon points="440,940 608,940 608,940 608,940 596,940 524,940 428,940 428,940" /><polygon points="60,-844 60,-844 60,-844 60,-844 -8,-844 -8,-844" /><polygon points="608,-844 736,-844 736,-844 668,-844 508,-844 508,-844" /><polygon points="736,-476 736,-396 736,-300 736,-300 736,-300 736,-476" /><polygon points="736,-700 736,-620 736,-476 736,-476 736,-476 736,-700" /><polygon points="-328,916 -328,816 -328,764 -456,764 -456,816 -456,940 -328,940" /><polygon points="736,824 736,764 608,764 608,824 608,940 664,940 736,940" /><polygon points="-456,-300 -328,-300 -328,-452 -328,-476 -456,-476" /><polygon points="736,-700 736,-844 608,-844 608,-620 736,-620" /><polygon points="608,-620 608,-476 608,-396 736,-396 736,-476 736,-620" /><polygon points="608,-396 608,-300 736,-300 736,-396" /><polygon points="-232,-844 -456,-844 -456,-700 -456,-620 -232,-620" /><polygon points="-456,-620 -456,-476 -328,-476 -232,-476 -232,-620" /><polygon points="-8,-844 -232,-844 -232,-620 -8,-620" /><polygon points="-232,-620 -232,-476 -104,-476 -8,-476 -8,-620" /><polygon points="216,-844 60,-844 -8,-844 -8,-620 216,-620" /><polygon points="-8,-620 -8,-476 76,-476 204,-476 216,-476 216,-620" /><polygon points="440,-844 284,-844 216,-844 216,-620 440,-620" /><polygon points="216,-620 216,-476 428,-476 440,-476 440,-620" /><polygon points="608,-620 608,-844 508,-844 440,-844 440,-620" /><polygon points="596,-476 608,-476 608,-620 440,-620 440,-476" /><polygon points="-104,-476 -232,-476 -328,-476 -328,-476 -328,-476 -252,-476 -104,-476" /><polygon points="428,-476 216,-476 204,-476 204,-476 204,-476 204,-476 428,-476" /><polygon points="736,1084 736,1164 736,1308 736,1308 736,1308 736,1308 736,1084" /><polygon points="-232,940 -316,940 -328,940 -456,940 -456,1084 -456,1164 -232,1164" /><polygon points="-456,1164 -456,1308 -232,1308 -232,1164" /><polygon points="-8,940 -20,940 -92,940 -232,940 -232,1164 -8,1164" /><polygon points="-232,1164 -232,1308 -20,1308 -8,1308 -8,1164" /><polygon points="216,940 204,940 76,940 -8,940 -8,1164 216,1164" /><polygon points="-8,1164 -8,1308 204,1308 216,1308 216,1164" /><polygon points="440,940 428,940 216,940 216,1164 440,1164" /><polygon points="216,1164 216,1308 428,1308 440,1308 440,1164" /><polygon points="664,940 608,940 440,940 440,1164 664,1164" /><polygon points="440,1164 440,1308 652,1308 664,1308 664,1164" /><polygon points="736,1164 736,1084 736,940 664,940 664,1164" /><polygon points="736,1308 736,1164 664,1164 664,1308" /><polygon points="-232,1308 -456,1308 -456,1308 -232,1308" /><polygon points="204,1308 -8,1308 -20,1308 -20,1308 60,1308 204,1308" /><polygon points="428,1308 216,1308 204,1308 204,1308 220,1308 428,1308" /><polygon points="652,1308 440,1308 428,1308 428,1308 444,1308 652,1308" /></g></defs><rect fill="#fff" height="2390.0" id="background" width="1430.0" x="-575.0" y="-963.0" /><use fill="none" stroke="black" stroke-miterlimit="0" stroke-width="15" xlink:href="#bsp_ref" /><use fill="white" stroke="black" stroke-width="1" xlink:href="#bsp_ref" /></svg>