<svg viewBox="-496 -1040 1728 1984" xmlns="http://www.w3.org/2000/svg" xmlns:xlink="http://www.w3.org/1999/xlink"><defs><g id="a"><path d="m128 160v-128h64 128 16v224h-208z"/><path d="m336 256v128 64h-144l-64-64v-128z"/><path d="m704 448v-64h128 96v96 64h-128z"/><path d="m560 448h-144-80v-64h208 16z"/><path d="m608 384h96v64h-96-48v-64z"/><path d="m992 480-64 64v-64z"/><path d="m960 384h32 32v96h-32-64v-96z"/><path d="m384 256h32 128v128h-208v-128z"/><path d="m384 256v-32l32 32z"/><path d="m560 384h-16v-128l64-64v128 64z"/><path d="m336 32h48v32 160 32h-48z"/><path d="m960 320 32 32v32h-32z"/><path d="m992 384v-32h32v32z"/><path d="m608 320v-128-96h224v224z"/><path d="m832 384h-128-96v-64h224z"/><path d="m864 96 96 96v128h-128v-224z"/><path d="m960 320v64h-32-96v-64z"/><path d="m960 320 32 32z"/><path d="m832 96h-224 160z"/><path d="m1024 384v-32 128z"/><path d="m704 448h-96z"/><path d="m992 480-64 64z"/><path d="m128 32v-32z"/><path d="m128 160v96 128z"/><path d="m384 64v160z"/><path d="m192 32v-32h128v32z"/><path d="m128 32v-32h64v32z"/><path d="m560 448h48-192z"/><path d="m128 160v-128-32h64 128 16v256 128 64h-144l-64-64z"/><path d="m336 384v-128-256h-16-128-64v32 128 224l64 64h144z"/><path d="m928 544h-128l-96-96h224z"/><path d="m704 448 96 96h128v-96z"/><path d="m416 448h192 96 224v-64h-320-64-208v64z"/><path d="m544 384h64 320v64h-224-96-192-80v-64z"/><path d="m992 480v-96h-32-32v64 96z"/><path d="m928 448v-64h32 32v96l-64 64z"/><path d="m416 256h-32-48v128h208v-128z"/><path d="m336 384v-128h48 32 128v128z"/><path d="m416 256-32-32v32z"/><path d="m384 256v-32l32 32z"/><path d="m544 384v-128l64-64v192z"/><path d="m608 384v-192l-64 64v128z"/><path d="m384 224v-160-32-32h-48v256h48z"/><path d="m336 0h48v32 32 160 32h-48z"/><path d="m992 384v-32h16v128h-16z"/><path d="m1008 352h-16v32 96h16z"/><path d="m992 384v-32l-32-32v64z"/><path d="m960 320 32 32v32h-32z"/><path d="m928 384h32v-64-128l-96-96h-32-64-160v96 192z"/><path d="m768 96h64 32l96 96v128 64h-32-320v-192-96z"/><path d="m1008 352h16z"/><path d="m992 352h16z"/><path d="m1024 480h-16z"/><path d="m1008 352v128z"/><path d="m1024 352v128z"/><path d="m992 480-32 32-32 32z"/><path d="m704 448h-96z"/><path d="m608 448h-192z"/><path d="m384 64v-32 192z"/><path d="m768 96h-160z"/><path d="m128 160v224z"/><path d="m608 96v96z"/><path d="m1008 352h16-32z"/><path d="m960 320v-128z"/><path d="m864 96h-32z"/><path d="m960 192-96-96z"/><path d="m800 544h128z"/><path d="m704 448 96 96z"/><path d="m1008 480h-16 32z"/><path d="m128 32v128z"/><path d="m544 256h-128z"/><path d="m384 64v-32z"/><path d="m384 32v-32z"/><path d="m608 192-64 64z"/><path d="m416 256-32-32z"/><path d="m336 0h48v32h-48-16v-32z"/><path d="m416 448h-80-144 144z"/><path d="m128 384 64 64z"/><path d="m800 544h128z"/><path d="m960 320v-128z"/><path d="m960 320 32 32z"/><path d="m416 448h-224 144z"/><path d="m608 448h-192z"/><path d="m864 96h-32-64z"/><path d="m960 192-96-96z"/><path d="m384 32v160 32z"/><path d="m768 96h-160 32z"/><path d="m608 96v96z"/><path d="m544 256h-128z"/><path d="m416 256-32-32z"/><path d="m608 192-64 64z"/><path d="m128 32v128z"/><path d="m128 160v224-160-32z"/><path d="m128 384 64 64z"/><path d="m704 448 96 96h-96l-96-96z"/><path d="m704 448 96 96z"/><path d="m928 544-64 64h-96l32-64z"/><path d="m800 544-32 64-64-64z"/><path d="m768 608-64-64z"/><path d="m128-48v-48h64v96h-64z"/><path d="m992 352v128h16v-128z"/><path d="m144-128-16 32-64-64 32-16z"/><path d="m96-384v160 48l-32 16v-32-128-32-32z"/><path d="m64-416 32 16v16h-32z"/><path d="m64-416 64-64 16 32-48 48z"/><path d="m160-480v-16h128v16z"/><path d="m160-496v-16h128v16z"/><path d="m352-448h-32-176l-16-32h32 128 32 32z"/><path d="m384-480-16 32h-16v-32z"/><path d="m352-96h-32-128-64l16-32h176 32z"/><path d="m368-128 16 32h-32v-32z"/><path d="m448-384v224l-32-16v-48-160z"/><path d="m416-400 32-16v32h-32z"/><path d="m416-176 32 16-64 64-16-32z"/><path d="m96-224v-160-16l48-48h176v224z"/><path d="m320-128h-176l-48-48v-48h224z"/><path d="m416-400v16 160h-96v-224h32 16z"/><path d="m416-224v48l-48 48h-16-32v-96z"/><path d="m384-480 64 64-32 16-48-48z"/><path d="m160-512v16z"/><path d="m160-496v16z"/><path d="m448-416v32z"/><path d="m288-496v-16z"/><path d="m192-96h128v96h-128z"/><path d="m320-96h32 32v64 32h-48-16z"/><path d="m384-96v64z"/><path d="m64-160h-128v-32h128z"/><path d="m64-320h-128v-32h128z"/><path d="m64-192h-128v-128h128z"/><path d="m1008 480h-16z"/><path d="m992 352h16z"/><path d="m992 480v-128h16v128z"/><path d="m992 480v-128z"/><path d="m1008 352v128z"/><path d="m128-480-64 64z"/><path d="m384-480h-32-32z"/><path d="m448-416v32z"/><path d="m448-384v224z"/><path d="m448-416-64-64z"/><path d="m160-496v16h128v-16z"/><path d="m56-784 16 16h-72-104l16-16z"/><path d="m56-784 8-16 32 32h-24z"/><path d="m0-800h64l-8 16h-144l-8-16z"/><path d="m-128-768 32-32 8 16-16 16z"/><path d="m96-768-32-32z"/><path d="m0-608h-64-160v-40l120-120h104z"/><path d="m72-768 8 8v144l-8 8h-8-64v-160z"/><path d="m96-768-16 8-8-8z"/><path d="m80-616 16 8h-24z"/><path d="m80-760 16-8v160l-16-8z"/><path d="m-224-672 96-96h24l-120 120z"/><path d="m96-768h128z"/><path d="m64-160 64 64z"/><path d="m384-96 64-64z"/><path d="m160-480h-32z"/><path d="m992 480h16z"/><path d="m1024 352h-16v128h16z"/><path d="m1008 352h-16v128h16z"/><path d="m1008 352v128z"/><path d="m992 480-32 32z"/><path d="m960 512-32 32z"/><path d="m960 288v32-128z"/><path d="m992 352-32-32v192l32-32z"/><path d="m416 448h-32-48-144z"/><path d="m768 160v-64 16 32z"/><path d="m960 288h-192z"/><path d="m864 96h-96z"/><path d="m960 192-96-96h-96v64 64 64h192z"/><path d="m960 192-96-96z"/><path d="m384 32v112 48z"/><path d="m416 448h192v-64h-64-160v64z"/><path d="m608 448 64-64h-64z"/><path d="m416 256-32-32v32z"/><path d="m544 384v-128h-128-32v128z"/><path d="m608 384h64l96-96v-64h-160-32l-32 32v128z"/><path d="m768 224v-64h-128-32v32 32z"/><path d="m576 224h32v-32z"/><path d="m576 224-32 32h-128l-32-32z"/><path d="m640 160v-64h-32v64z"/><path d="m640 96v64-16-32z"/><path d="m416 256h128z"/><path d="m608 160v-64 96z"/><path d="m544 256h-128z"/><path d="m416 256-32-32z"/><path d="m576 224 32-32-64 64z"/><path d="m128-96v48z"/><path d="m128-48v48 32-32-32z"/><path d="m128 32v128z"/><path d="m336 384v-128-32h-208v160l64 64h144z"/><path d="m384 384h-48v64h48z"/><path d="m352 192h-224v32h208 16z"/><path d="m384 224v-32h-32v32z"/><path d="m384 224h-32-16v32h48z"/><path d="m384 256h-48v128h48z"/><path d="m384 192v-48h-32v48z"/><path d="m128 384 64 64z"/><path d="m96-608-32 32v-24l8-8z"/><path d="m72-608-8 8v-8z"/><path d="m64-576-96 96-32 32v-24l128-128z"/><path d="m64-600-128 128v-136h64 64z"/><path d="m64-576-96 96z"/><path d="m-64-472-16 16h-144v-152h160z"/><path d="m-64-448-16-8 16-16z"/><path d="m-224-456h144v72 152h-144z"/><path d="m-80-232v64l-8 8h-136v-72z"/><path d="m-64-384v32 32 128 32l-16-8v-64-152z"/><path d="m-80-456 16 8v32 32h-16z"/><path d="m-80-168 16 8h-24z"/><path d="m-224-112v-16h128v16z"/><path d="m-224-128 8-16h112l8 16z"/><path d="m-64-160-32 32-8-16 16-16z"/><path d="m-224-152 8 8-8 16z"/><path d="m-88-160-16 16h-112l-8-8v-8z"/><path d="m-96-128v16z"/><path d="m-224-112v16z"/><path d="m-224-96v-16h128v16z"/><path d="m-256-384v224z"/><path d="m-256-160 16-8 16 16v24z"/><path d="m-240-384v-72h16v224h-16z"/><path d="m-224-232v72 8l-16-16v-64z"/><path d="m-256-640 32-32v24l-16 16z"/><path d="m-240-384v152 64l-16 8v-224z"/><path d="m-240-608v152 72h-16v-160-64z"/><path d="m-256-640 16 8v24h-16z"/><path d="m-224-608v152h-16v-152-24l16-16z"/><path d="m160-480v-16z"/><path d="m288-496v16z"/><path d="m160-480v-16h128v16z"/><path d="m288-480h-128z"/><path d="m160-496h128z"/><path d="m384-480h-64z"/><path d="m384-480 8-16-2 16z"/><path d="m448-384v184 40z"/><path d="m448-200v-184-32l16-8v40 184z"/><path d="m384-480h6 18l40 40v24z"/><path d="m448-416-64-64z"/><path d="m-96-800-32 32-96 96-32 32z"/><path d="m64-800h-64z"/><path d="m0-800h-96z"/><path d="m-256-640v96h-16v-80z"/><path d="m960 320v64 64 64z"/><path d="m384-96v64z"/><path d="m-256-384v224z"/><path d="m-256-544h-16z"/><path d="m-256-544v160z"/><path d="m-256-640v32 64z"/><path d="m-256-160 32 32z"/><path d="m-96-800-8-16h24z"/><path d="m320-496v16-40z"/><path d="m320-496v-24-8z"/><path d="m392-496 16 16h-18z"/><path d="m392-496 16-32 16 16 32 32h-8-40z"/><path d="m392-496-8 16h-64v-16z"/><path d="m448-440 16 16-16 8z"/><path d="m464-384v-40l32-4v44z"/><path d="m464-160h-16v-40h16z"/><path d="m464-424 32-16v12z"/><path d="m448-440-40-40h40z"/><path d="m0-816v16h-96l16-16z"/><path d="m0-896v80h-80z"/><path d="m0-896v64 16z"/><path d="m0-800v-16z"/><path d="m0-800h48 16z"/><path d="m992 96h96v32 64 32h-96z"/><path d="m384 0v32-32-32z"/><path d="m768 96h-128z"/><path d="m640 144v16h128v-16z"/><path d="m640 96v16h128v-16z"/><path d="m640 160h128z"/><path d="m128-48v-24-24z"/><path d="m192 0-32-32h-32v32z"/><path d="m352 0h32v-32h-32l-32 32z"/><path d="m352 0h-32-128-64v32h224z"/><path d="m384 32v-32h-32v32z"/><path d="m352-32-32 32z"/><path d="m192 0h128z"/><path d="m128 144v-112 128 32z"/><path d="m352 32h-224v112h224z"/><path d="m384 144v-112h-32v112z"/><path d="m352 144h-224v48h224z"/><path d="m-272-544h16-32z"/><path d="m-288-544h16z"/><path d="m-272-624v80h-16v-64z"/><path d="m-112-832 8 16-168 168-16-8z"/><path d="m0-896-80 80h-24l-8-16 64-64z"/><path d="m-288-656 16 8v24l-16 16z"/><path d="m-104-816 8 16-160 160-16-8z"/><path d="m-272-648 16 8-16 16z"/><path d="m-144-896 32 64-176 176v-96z"/><path d="m-112-832-32-64h96z"/><path d="m-352-544v-144l64 32v48 64z"/><path d="m-288-656-64-32 64-64z"/><path d="m-224-128v16h128v-16z"/><path d="m0-896h-48-96z"/><path d="m-352-688v144z"/><path d="m-144-896-144 144-64 64z"/><path d="m768 608h96z"/><path d="m192-608h32z"/><path d="m192-608h-32z"/><path d="m640-672h-128v-96-64h32 160v160z"/><path d="m320-832v64h-64z"/><path d="m320-832h192v64h-192z"/><path d="m512-768v96 64h-64-128v-160z"/><path d="m256-768h64v160h-64-16v-160z"/><path d="m224-608v-160h16v160z"/><path d="m224-768v160h-32-32-64v-160z"/><path d="m64-352v-64 32z"/><path d="m768-416h32 128 32v96 128h-192z"/><path d="m960-192v96h-192v-64-32z"/><path d="m768-160h-96z"/><path d="m496-160h-8-24z"/><path d="m448-160h16 24z"/><path d="m496-245.3333v-138.6667-44-12l58.6667-29.3333 53.3333 53.3333v170.6667z"/><path d="m608-192v32h-112v-85.3333h112z"/><path d="m704-416h64v224h-160v-53.3333-170.6667z"/><path d="m768-192v32h-96-64v-32z"/><path d="m456-480-32-32h88l42.6667 42.6667-58.6667 29.3333z"/><path d="m408-528 40-80h64v96h-88z"/><path d="m448-608-40 80h-88v-80z"/><path d="m554.6667-469.3333-42.6667-42.6667 96 96z"/><path d="m408-528-16 32h-72v-32z"/><path d="m496-245.3333v85.3333h-32v-40-184h32z"/><path d="m456-480 40 40-32 16-16-16v-40z"/><path d="m320-480h-32z"/><path d="m288-480v-16z"/><path d="m288-496v-16h-128v16z"/><path d="m192-480h64 32v-16h-128v16z"/><path d="m160-496h128z"/><path d="m288-496h-128z"/><path d="m288-512h-128z"/><path d="m992 192v-96 128z"/><path d="m960 512-32 32z"/><path d="m960 320v-32z"/><path d="m992 192v32h-32v-32z"/><path d="m960 224h32l-32 32z"/><path d="m960 128v-64l32 32v96h-32z"/><path d="m768 112v16 16z"/><path d="m960-96v160 64h-192v-16-16-64-64-64z"/><path d="m960 128v64h-192v-32-16-16z"/><path d="m960 224h-192v-32h192z"/><path d="m768 288v-64h192v32 32z"/><path d="m928 384v64h32v-64z"/><path d="m768 288-96 96-64 64z"/><path d="m608 32h-224z"/><path d="m608 160h-224v-88-40h224z"/><path d="m640 32v64 16 32 16h-32v-128z"/><path d="m640 160v-16h128v16z"/><path d="m640 96v-64h64 64v64z"/><path d="m640 112v-16h128v16z"/><path d="m608 224h-32-192v-40-24h224z"/><path d="m640 160h128v32 32h-64-96v-64z"/><path d="m544 256 32-32h-192l32 32z"/><path d="m704 224h-96z"/><path d="m576 224h-192z"/><path d="m640 144v-32z"/><path d="m768 112h-128z"/><path d="m640 144h128z"/><path d="m384 224 32 32z"/><path d="m544 256 32-32z"/><path d="m128-32v-16z"/><path d="m352-32h32z"/><path d="m352-32-16 16-16 16z"/><path d="m192 0h128v32h-128z"/><path d="m128-32h32z"/><path d="m160-32 32 32z"/><path d="m336 48 24 24h-24z"/><path d="m336 72h24 24v88 24h-40-8z"/><path d="m192 32h128l16 16v24 112h-144z"/><path d="m336 184h8-8-80-16-48z"/><path d="m704 544-96-96z"/><path d="m-64-352v-32-32z"/><path d="m64-352h-128z"/><path d="m864 608 64-64z"/><path d="m768 608-64-64z"/><path d="m-352-544h64-32z"/><path d="m-224-112v-16z"/><path d="m-96-128v16z"/><path d="m-224-112v-16h128v16z"/><path d="m-224-128h128z"/><path d="m-96-112h-128z"/><path d="m768-480v-128h32v192h-32z"/><path d="m512-512v-96z"/><path d="m704-416h-96z"/><path d="m512-512 96 96z"/><path d="m960 448v64z"/><path d="m960 448h-32z"/><path d="m928 448v-64h32v64z"/><path d="m928 384h32z"/><path d="m928 448v-64z"/><path d="m64-576-96 96z"/><path d="m768 608h96z"/><path d="m616 608h-88z"/><path d="m0-896v32 32z"/><path d="m704-768v96-160z"/><path d="m704-672h-64z"/><path d="m64-384v32 192z"/><path d="m64-384v-32 64z"/><path d="m528 448h-224 96z"/><path d="m768 224v64z"/><path d="m768 288-160 160z"/><path d="m704 224h-64-32z"/><path d="m608 224h-224 192z"/><path d="m768 224h-64z"/><path d="m80 448v-64h32 96 32l64 64z"/><path d="m680 544-96-96h24l96 96z"/><path d="m304 544h-128l-96-96h224z"/><path d="m528 544h-128-96v-96h224z"/><path d="m584 448 96 96h-56-96v-96z"/><path d="m704 544-96-96z"/><path d="m-224-112h128z"/><path d="m-96-112h-128z"/><path d="m32-160h-64-32 128z"/><path d="m-64-416v32z"/><path d="m-64-384v32-64z"/><path d="m-32-352h64 32-128z"/><path d="m32-352v64 64 64h32v-192z"/><path d="m-32-224v64h64v-64z"/><path d="m-32-288v64h64v-64z"/><path d="m-64-352v192h32v-64-64-64z"/><path d="m-32-352v64h64v-64z"/><path d="m-224-128v16z"/><path d="m-96-128 32-32h-32z"/><path d="m-64-160-32 32z"/><path d="m-224-128v16h128v-16z"/><path d="m-224-128h128v-32h-128z"/><path d="m-224-128-32-32z"/><path d="m-96-112v16z"/><path d="m-224-112v16h128v-16z"/><path d="m-224-96h128z"/><path d="m400 608h-96-64l-64-64h128 96z"/><path d="m624 608h-8-88-128v-64h128 96z"/><path d="m680 544 8 8v56h-64v-64z"/><path d="m768 608h-24l-56-56-8-8h24z"/><path d="m688 552 56 56h-56z"/><path d="m928 544-64 64z"/><path d="m176 544 64 64h-64-16l-120-120 40-40z"/><path d="m160 608h-208v-32l88-88z"/><path d="m40 488-88 88z"/><path d="m768 608-8 16-16-16z"/><path d="m760 624 8-16h96v16z"/><path d="m704 736 56-112h104v112z"/><path d="m744 608 16 16-56 112h-16v-56-72z"/><path d="m864 624v-16 24 136-32z"/><path d="m272 640-32-32h64z"/><path d="m616 608h8 64v72z"/><path d="m176 672-64 64h-32l-20-20-88-88-20-20h208 16z"/><path d="m240 608-64 64v-64z"/><path d="m688 736v32z"/><path d="m704 736-16 32v-32z"/><path d="m688 768 16-32h160v32z"/><path d="m-44 644 16-16 88 88-16 16z"/><path d="m44 732 16-16z"/><path d="m-60 660 16-16 88 88-16 16z"/><path d="m44 732-16 16z"/><path d="m-44 644-16 16z"/><path d="m112 384h-32z"/><path d="m240 384h-32z"/><path d="m208 384h-96z"/><path d="m736-832h-32-192 192z"/><path d="m704-672v-96z"/><path d="m928-608h-128-32l8-16h168 8l8 16z"/><path d="m952-624 24-24 16 8-32 32z"/><path d="m960-832 32 32-16 8-24-24z"/><path d="m704-768v-64l16 16v136l-16 8z"/><path d="m944-624h-168l-56-56v-136h208 16z"/><path d="m952-816 24 24v144l-24 24h-8v-192z"/><path d="m704-672 16-8 56 56-8 16z"/><path d="m976-792 16-8v160l-16-8z"/><path d="m928-816h-208l-16-16h32 192z"/><path d="m960-832-8 16h-8-16v-16z"/><path d="m64-416v32z"/><path d="m64-384v224z"/><path d="m960-608v32 32z"/><path d="m768-480v-64-64z"/><path d="m768-480v64z"/><path d="m800-608h128v192h-128z"/><path d="m928-608h32v64 128h-32z"/><path d="m-256-384v224z"/><path d="m-256-544v160z"/><path d="m-64-384v224-192z"/><path d="m-64-416v32z"/><path d="m-256-160 32 32v-32z"/><path d="m-4 780 16-16-88-88-16 16z"/><path d="m-48-896h48-144z"/><path d="m-352-688v144z"/><path d="m1088 96v32z"/><path d="m-288-752 110.3919-110.3919 33.6081-33.6081-208 208z"/><path d="m192-608h32 16 16z"/><path d="m512-608v-64z"/><path d="m704-672 64 64z"/><path d="m576-672h-64 128z"/><path d="m128-480-64 64z"/><path d="m960-320v192 32-96z"/><path d="m960-544v192 32-96z"/><path d="m960-608v32z"/><path d="m768-416v-64z"/><path d="m768-128v-32 64z"/><path d="m960-128h-192v32h192z"/><path d="m768-160h-32-64z"/><path d="m672-160h-224 40 8 112z"/><path d="m512-512v-96z"/><path d="m768-416h-64z"/><path d="m704-416h-96z"/><path d="m512-512 32 32 48 48 16 16z"/><path d="m256-480h64-32z"/><path d="m192-480h64z"/><path d="m128-480h32z"/><path d="m992 224h96z"/><path d="m1088 96h-96z"/><path d="m960-96v128 8 24z"/><path d="m960 256v32z"/><path d="m960 288v96-64-32-32z"/><path d="m960 384v64z"/><path d="m992 96-32-32z"/><path d="m960 256 32-32z"/><path d="m768-32v64z"/><path d="m768-96v64z"/><path d="m768-32v-64 128z"/><path d="m768-96v64 64h96 64 24 8v-128z"/><path d="m960 40-8-8h-24l32 32z"/><path d="m768 128 96-96h-96z"/><path d="m952 32 8 8v-8z"/><path d="m960 64-32-32z"/><path d="m384 72v112 40-192z"/><path d="m384 32v40z"/><path d="m384 184v40z"/><path d="m640 32h32 32-64-32z"/><path d="m768 32h-64z"/><path d="m608 32h-224 160z"/><path d="m608-96h160v64 64h-64-32l-64-64z"/><path d="m672 32-64-64z"/><path d="m640 224h-32z"/><path d="m608 224h-224z"/><path d="m704 32h-32-32v192h64 64v-96-96z"/><path d="m192 0v32z"/><path d="m320 32v-32z"/><path d="m192 0v32h64 64v-32z"/><path d="m192 0-16-16-16-16z"/><path d="m80 288v-64-64h32v224h-32z"/><path d="m192 160v-128 152z"/><path d="m344 184h40z"/><path d="m192 160h48l16-16v-112h-64z"/><path d="m192 160v24h48v-24z"/><path d="m256 184v-40l-16 16v24z"/><path d="m336 184v-112-24l-16-16h-64v112 40z"/><path d="m336 184h8 40v-112h-24-24z"/><path d="m336 72h24l-24-24z"/><path d="m384 72h-24z"/><path d="m336 48 24 24-24-24-16-16z"/><path d="m864 768v-32z"/><path d="m688 768h176z"/><path d="m544-832h160z"/><path d="m544-832h-32v64h192v-64z"/><path d="m-92 692 16-16 88 88-16 16z"/><path d="m-76 676 88 88z"/><path d="m12 764-16 16z"/><path d="m-4 780-88-88z"/><path d="m-92 692 16-16z"/><path d="m1088 128v64z"/><path d="m1088 192v32z"/><path d="m512-832h32-32-192z"/><path d="m160-608h-64z"/><path d="m256-608h64z"/><path d="m192-608h64z"/><path d="m512-768v96z"/><path d="m512-608v-64z"/><path d="m512-768h192z"/><path d="m512-672v-96-64h-192v224h192z"/><path d="m320-832-64 64v96 64h64z"/><path d="m48-720 16-8v-40-32h-16z"/><path d="m96-768h-32v40l76 76 20-20v-96z"/><path d="m64-800v32h32z"/><path d="m160-608h32 64v-64h-96l-20 20-12 12-32 32z"/><path d="m140-652-76-76-16 8 80 80z"/><path d="m160-768v96h96v-96z"/><path d="m48-720 80 80z"/><path d="m0-832v32-16z"/><path d="m160-768h96-16-16-128z"/><path d="m64-800 32 32z"/><path d="m320-832-64 64z"/><path d="m64-384v224-64z"/><path d="m64-416v32z"/><path d="m64-576 32-32z"/><path d="m64-416 64-64z"/><path d="m768-96h-160z"/><path d="m960-608v32z"/><path d="m960-352v128 64 32-192z"/><path d="m960-576v224-192z"/><path d="m128-96-64-64z"/><path d="m768-160v32z"/><path d="m832-352-64-64v64z"/><path d="m832-160v-64-128h-64v192z"/><path d="m960-352-24 24v80l24 24z"/><path d="m832-352 24 24h80l24-24z"/><path d="m856-328-24-24v128l24-24z"/><path d="m960-224-24-24h-80l-24 24z"/><path d="m832-224v64h128v-64z"/><path d="m768-96v-64h64 128v64z"/><path d="m832-160h-64 192z"/><path d="m832-160h-64v32h192v-32z"/><path d="m264-432-48-48h-24l64 64z"/><path d="m440-480h-120-64-40l48 48h176z"/><path d="m480-432h112l-48-48h-104v48z"/><path d="m480-432h-40-176l-8 16h192 32z"/><path d="m608-416-16-16h-112v16z"/><path d="m736-352h-64-160v192h160 64z"/><path d="m768-352h-32v192h32z"/><path d="m672-416h-64-128-32l64 64h160z"/><path d="m768-416h-64-32v64h64 32z"/><path d="m440-480h104l-32-32h-192v32z"/><path d="m320-608v96h192v-96z"/><path d="m448-160h64z"/><path d="m320-512v-96 80 8 40z"/><path d="m672-160h-160-64z"/><path d="m512-512v-96z"/><path d="m768-416h-64z"/><path d="m672-416h32-96z"/><path d="m384-96 64-64z"/><path d="m216-480h40-64z"/><path d="m160-480h32z"/><path d="m672 32h32 64z"/><path d="m608-96v64z"/><path d="m768-96h-160v64l64 64h96z"/><path d="m128-96v24l40 40 16 16 8-16z"/><path d="m128-72v24 16h32 8z"/><path d="m336-16 16-16h-160l-8 16z"/><path d="m320 0 16-16h-152-8l16 16z"/><path d="m184-16-16-16h-8l16 16z"/><path d="m352-32h32-192z"/><path d="m128-96 64 64z"/><path d="m384-32h-32z"/><path d="m192 0h128z"/><path d="m160-32h-32z"/><path d="m384 224h-48z"/><path d="m-184-480 8-16h-80v16z"/><path d="m-64-384v-32-32l-32 32-12 12-20 20z"/><path d="m-108-404-76-76h-72v96h128z"/><path d="m-96-416-80-80-8 16 76 76z"/><path d="m-256-160h192v-224h-64-128z"/><path d="m64-576-96 96z"/><path d="m-96-416 32-32-12 12z"/><path d="m-256-480v-16-16-32 160z"/><path d="m-256-160h32 128 32z"/><path d="m-64-384v224z"/><path d="m-64-416v-32z"/><path d="m-64-448 32-32z"/><path d="m-320-544h32v-112l-64-32v144z"/><path d="m-44 644 88 88z"/><path d="m44 732-88-88z"/><path d="m-48 608 20 20z"/><path d="m60 716 20 20z"/><path d="m16-800h32-48z"/><path d="m16-688-16-16 96 96z"/><path d="m108-620-12 12 32-32z"/><path d="m108-620 20-20z"/><path d="m16-712v24l80 80 12-12z"/><path d="m16-712-16 8 16 16z"/><path d="m0-800v96l16-8v-88z"/><path d="m96-608-16 16-16 16z"/><path d="m888-328h16 32-80z"/><path d="m888-328h-32z"/><path d="m904-248h32z"/><path d="m904-248h-16-32 80z"/><path d="m888-328v80h16v-80z"/><path d="m-256-544h-32z"/><path d="m-256-528v16z"/><path d="m-256-528v-16 32z"/><path d="m-168-528 92 92z"/><path d="m-160-544-8 16 92 92 12-12z"/><path d="m-168-528 8-16h-24z"/><path d="m-256-544v16h88l-16-16z"/><path d="m-96-416-80-80z"/><path d="m60 716-88-88-16 16 88 88z"/><path d="m-28 628-16 16z"/><path d="m44 732-88-88-16 16 88 88z"/><path d="m-60 660 88 88z"/><path d="m992 96v128h96v-128z"/><path d="m688 800h-48-80z"/><path d="m1088 32v32z"/><path d="m1088 192v-64z"/><path d="m832 800h-112-32v-32h176v32z"/><path d="m528 608h-32-16-32-16-96-32 96z"/><path d="m-288-512v32 192-96z"/><path d="m-288-64v16 128 80z"/><path d="m224-832h-64-96-64 160z"/><path d="m0-832v-32z"/><path d="m496-848 16 16h-16z"/><path d="m320-896h128l48 48v16h-176z"/><path d="m256-832 64-64v64z"/><path d="m-64-832h64v-32-32z"/><path d="m704-672 64 64z"/><path d="m640-672h-64z"/><path d="m576-672h-64z"/><path d="m512-768v-64h192v64z"/><path d="m512-832v64 96l-16 16v-176z"/><path d="m496-832v176l-48 48h-128v-224z"/><path d="m256-672v-160h64v224h-64z"/><path d="m160-832h64 32v160h-96z"/><path d="m0-704v-96z"/><path d="m0-800v-32z"/><path d="m64-816v-16h96v160l-20 20-76-76z"/><path d="m48-800 16-16v88l-16 8z"/><path d="m64-832v16l-16 16h-32-16v-32z"/><path d="m48-720 16-8 76 76-12 12z"/><path d="m0-704 16-8 92 92-12 12z"/><path d="m16-712-16 8v-96h16z"/><path d="m48-800h-32z"/><path d="m16-800v88z"/><path d="m48-720v-80z"/><path d="m16-712 92 92z"/><path d="m64-416v32z"/><path d="m832-96h-64 192z"/><path d="m960-352v128z"/><path d="m960-96v-64z"/><path d="m64-160 64 64z"/><path d="m768-544v64z"/><path d="m768-608v64z"/><path d="m768-128v-32 64z"/><path d="m832-224 24-24h32 16 32l24 24z"/><path d="m888-248v-80h16v80z"/><path d="m936-328 24-24v128l-24-24z"/><path d="m960-352-24 24h-32-16-32l-24-24z"/><path d="m832-312v-40l24 24v80l-24 24z"/><path d="m768-376v-40l64 64v40z"/><path d="m768-352v-24l64 64v88h-64z"/><path d="m832-352h128z"/><path d="m768-416 64 64z"/><path d="m936-328h-32z"/><path d="m856-328v80z"/><path d="m856-248h32z"/><path d="m904-328v80z"/><path d="m936-248v-80z"/><path d="m888-248v-80z"/><path d="m832-96h128v-64h-192v32 32z"/><path d="m256-416-64-64z"/><path d="m512-512 32 32h-96v-96z"/><path d="m448-576v96h-128v-32-96h128z"/><path d="m608-160v-48-144h64 32 64v128 64 32h-160z"/><path d="m768-128v32h-160v-32z"/><path d="m608-352v-64l64 64z"/><path d="m528-432v72l-72-72z"/><path d="m512-352 16-8v152 48h-16z"/><path d="m456-432 72 72-16 8-64-64z"/><path d="m448-480h96v48h-16-72-136v-48z"/><path d="m544-480 48 48h-48z"/><path d="m528-360v-72h16 48l16 16v64 144h-80z"/><path d="m608-208v48h-32-48v-48z"/><path d="m320-432h136l-8 16h-192l8-16z"/><path d="m320-608v96h-64v-32-32-32z"/><path d="m224-512 32-32v32z"/><path d="m192-480 12-12 60 60-8 16z"/><path d="m204-492 20-20h32 64v32 48h-56z"/><path d="m592-432-48-48-32-32 96 96z"/><path d="m448-416h-192z"/><path d="m512-160v-192z"/><path d="m512-352-64-64z"/><path d="m64-136 40 40h-24-16z"/><path d="m64-160 64 64h-24l-40-40z"/><path d="m960-96 48 48 80 80z"/><path d="m80 160v64z"/><path d="m80 224v64z"/><path d="m768-96v112 88l-12 12-148-148v-64z"/><path d="m960 16v-112l128 128h-128z"/><path d="m768-96h64 128v112h-24-80-88z"/><path d="m128-72 56 56h-56z"/><path d="m128-96 64 64-8 16-56-56-24-24z"/><path d="m104-96 24 24v56 48h-48v-128z"/><path d="m960 32h128v32 16h-88l-48-48z"/><path d="m1000 80h88v16h-96z"/><path d="m952 32 48 48-8 16-32-32-32-32 8-16z"/><path d="m960 16v16h-8l-16-16z"/><path d="m768 104 88-88 8 16-96 96-12-12z"/><path d="m768 16h88l-88 88z"/><path d="m936 16-8 16h-64l-8-16z"/><path d="m960 256 32-32 8 16-24 24z"/><path d="m976 264 24-24h88v48 176h-112z"/><path d="m1088 464v48h-112v-32-16z"/><path d="m1088 224v16h-88l-8-16z"/><path d="m960 288v-32l16 8v200 16h-16z"/><path d="m976 480v32h-16v-32z"/><path d="m608 224h32v-192h-32-64v192z"/><path d="m544 384v-64l96-96h64 64v64l-160 160h-64z"/><path d="m384-32v16h-64-136l8-16z"/><path d="m384 16v16h-48l-16-16z"/><path d="m384-16v32h-64v-32z"/><path d="m400 448h-96l-64-64v-96z"/><path d="m320 32v-16l16 16v192h-16z"/><path d="m256 144-16 16h-32-96-32v-16z"/><path d="m128 32h128v112h-176v-112z"/><path d="m240 160 16-16v80h-16z"/><path d="m256 32h-128v-48h56 136v32 16z"/><path d="m256 144v-112h64v192h-16-48z"/><path d="m320 224h16 48 160-64-64-112z"/><path d="m384-96v64z"/><path d="m756 116 12 12-160-160z"/><path d="m544 224v-192h-64v192z"/><path d="m992 224h96z"/><path d="m1088 96h-96z"/><path d="m928 544 32-32z"/><path d="m960 288v192 32-64-64z"/><path d="m992 96-32-32z"/><path d="m960 256 32-32z"/><path d="m544 448h64-24-56z"/><path d="m768 128v96z"/><path d="m768 224v64z"/><path d="m864 32h64z"/><path d="m864 32-96 96z"/><path d="m768 288-160 160z"/><path d="m640 32h-32z"/><path d="m608 224h-64-160z"/><path d="m640 224v-192z"/><path d="m384 32h-48z"/><path d="m336 32h48v192h-48z"/><path d="m208 160h32v224h-32z"/><path d="m112 160h96v224h-96z"/><path d="m240 160v64 64 96z"/><path d="m304 448-64-64z"/><path d="m64 224h16z"/><path d="m64 144 16 16v64h-16z"/><path d="m80 144h-16v-80-32h16z"/><path d="m80 160-16-16h16z"/><path d="m80 32h-16v-80-48h16z"/><path d="m-64 224h80-160z"/><path d="m-160-544 96 96z"/><path d="m-256-544h72 24z"/><path d="m-256-496h80l-8 16h-88z"/><path d="m-288-288v-192h16 88l56 56v40 128h-160z"/><path d="m-128-256v32h-160v-32z"/><path d="m-128-424 20 20-20 20z"/><path d="m-96-416-12 12-20-20-56-56 8-16z"/><path d="m-288-512v-32h32v16 16 16l-16 16h-16z"/><path d="m-168-528 8-16 96 96-12 12z"/><path d="m-160-544-8 16h-88v-16z"/><path d="m-128-256v-128 160z"/><path d="m-256-496v-16z"/><path d="m-76-436-20 20z"/><path d="m-176-496h-80z"/><path d="m-168-528h-88z"/><path d="m64-160-16 8v-72h16z"/><path d="m-64-48h-32-128-64v-16-160h160 64z"/><path d="m48-224v72 104h-112v-176z"/><path d="m48-152 16 16v40 48h-16z"/><path d="m48-152 16-8v24z"/><path d="m64-48v80h-16v-64-16z"/><path d="m0 40v24h-24z"/><path d="m0-8v-24h48v64h-48z"/><path d="m-24-32h24v24z"/><path d="m-64-48h112v16h-48-24-48-24v-16z"/><path d="m0 40v-8h48 16v32h-64z"/><path d="m-64 80v-16h40 24 64v80 80h-48-80z"/><path d="m-96 64h24 8v16h-32z"/><path d="m-96-8v-24h24z"/><path d="m-72 64h-24v-24z"/><path d="m-96-32v24 48 24 16h-128v-128h128z"/><path d="m-64 224h-80l-80-80v-64h128 32z"/><path d="m-288 80v-128h64v128 64z"/><path d="m-24-32h-48z"/><path d="m-64-832h-48z"/><path d="m-112-832h48l64-64h-48z"/><path d="m-144 224h-80v-80z"/><path d="m-224 224-64-64v-80l64 64z"/><path d="m-112-832 64-64h-96z"/><path d="m-288-656 158.3919-158.3919-48-48-110.3919 110.3919z"/><path d="m-129.6081-814.3919 17.6081-17.6081-32-64-33.6081 33.6081z"/><path d="m-288-544h-32z"/><path d="m-288-656v-96l-64 64z"/><path d="m688 800v-32z"/><path d="m688 680v56 32z"/><path d="m864 800v-32z"/><path d="m864 608v24z"/><path d="m336 608h96v16 32 16h-96z"/><path d="m432 608h16l-16 16z"/><path d="m496 656v16h-16z"/><path d="m480 608h16v16z"/><path d="m496 656v-32-16h32 88l64 64h-120-64z"/><path d="m448 672h-16v-16z"/><path d="m560 800h-224v-128h96 16 32 16 64z"/><path d="m680 672 8 8v88 32h-128v-128z"/><path d="m272 640 32-32h32v64 128l-64-64z"/><path d="m272 640 32-32z"/><path d="m680 672-64-64 72 72z"/><path d="m1088 224h-96z"/><path d="m992 96h96z"/><path d="m1088 96v128z"/><path d="m992 224v-128z"/><path d="m992 224v-128h96v128z"/><path d="m-48 608 20 20 88 88 20 20z"/><path d="m80 384v-96z"/><path d="m80 448v-64z"/><path d="m176 608h64l-160-160-40 40 120 120z"/><path d="m80 448-40 40z"/><path d="m-48 576v32z"/><path d="m40 488-88 88v32h208z"/><path d="m176 672-64 64 64-64 64-64z"/><path d="m176 608h-16-208l128 128h32l64-64z"/><path d="m240 608h-64v64z"/><path d="m80 736h32z"/><path d="m80 448 160 160z"/><path d="m80 288v96 64z"/><path d="m480 32h64-160z"/><path d="m992-640v-160z"/><path d="m864 608 64-64z"/><path d="m240 608 32 32z"/><path d="m448-896h-128z"/><path d="m560 800h-144-80z"/><path d="m1088 288v160 64-48z"/><path d="m1088 64v112 48 64-48-16-32-64-32-16z"/><path d="m992-800-32-32z"/><path d="m272 608h144-176z"/><path d="m448 608h32z"/><path d="m-288 160 64 64z"/><path d="m-288-544v32z"/><path d="m-288-64v224-80-128z"/><path d="m-288-288v32 32z"/><path d="m-288-224v160z"/><path d="m80 448 160 160z"/><path d="m928-832h32-32-192z"/><path d="m256-832h-32z"/><path d="m480-864-32-32h-128l-64 64h224z"/><path d="m512-832-32-32v32z"/><path d="m480-864 32 32-16-16-48-48z"/><path d="m320-896-64 64z"/><path d="m992-640v-160z"/><path d="m928-832h-192-32v160l64 64h160z"/><path d="m960-608 32-32v-160l-32-32h-32v224z"/><path d="m704-672 64 64z"/><path d="m960-608 32-32z"/><path d="m704-832h-192v160h192z"/><path d="m512-672h64 64 64z"/><path d="m160-832v160z"/><path d="m256-672v64z"/><path d="m448-608 32-32v-192h-224v160 64z"/><path d="m480-640 32-32v-160h-32z"/><path d="m480-640-32 32 48-48 16-16z"/><path d="m160-672h96z"/><path d="m256-832h-32-64v160h96z"/><path d="m96-608 12-12 20-20 12-12 20-20z"/><path d="m160-672-32 32-32 32z"/><path d="m64-416v32 160z"/><path d="m960-96h-128z"/><path d="m832-96h-64z"/><path d="m960-576v192 32z"/><path d="m768-608v64 64z"/><path d="m768-384v-32 40 24z"/><path d="m768-128v32-32-32-64z"/><path d="m768-224h64z"/><path d="m832-224h128z"/><path d="m960-576v-32h-32-160v128 64 32h192z"/><path d="m768-384v32 128h64 128v-128-32z"/><path d="m448-576v-32z"/><path d="m768-352h-64z"/><path d="m704-352h-32z"/><path d="m448-576 64 64z"/><path d="m512-512 32 32 64 64z"/><path d="m768-224v-128h-64v224h64z"/><path d="m704-128v32h64v-32z"/><path d="m704-352h-32v192l32 32z"/><path d="m704-128-32-32h-64v32z"/><path d="m704-128h-96v32h96z"/><path d="m512-160h16 48z"/><path d="m576-160h32z"/><path d="m608-128v-32 32 32z"/><path d="m256-608v32z"/><path d="m256-576v32z"/><path d="m256-576v32z"/><path d="m448-576v-32h-192v32z"/><path d="m256-544-32 32-20 20-12 12z"/><path d="m160-480h32z"/><path d="m160-480h-32z"/><path d="m128-480h32z"/><path d="m80 224v64z"/><path d="m80 288v160z"/><path d="m768 128v96z"/><path d="m960 512h16 112z"/><path d="m992-48h16l-48-48h-128-64v48z"/><path d="m1008-48h-16v72 72 80h96v-112-32z"/><path d="m992 176v48h96v-48z"/><path d="m928 24v8l64 64v-72z"/><path d="m992-48h-224v72h160 64z"/><path d="m768 128 96-96h-96z"/><path d="m928 24h-160v8h96 64z"/><path d="m1088 288v-64h-96l-32 32v32 160h128z"/><path d="m960 448v64h128v-64z"/><path d="m928 32h-64z"/><path d="m960 256v32z"/><path d="m768 224h-64z"/><path d="m704 224h-64z"/><path d="m480 224h-64z"/><path d="m416 224h64-176z"/><path d="m240 224h16 48z"/><path d="m608-48v-48 64z"/><path d="m704-96v48h64v-48z"/><path d="m608-96v48h96v-48z"/><path d="m768 128v-96-8-72h-64-96v16z"/><path d="m480 224v-192z"/><path d="m240 288v-64z"/><path d="m544 448h-16-128z"/><path d="m544 384v64z"/><path d="m544 320v64z"/><path d="m768 288v-64h-64-64l-96 96v64 64h64z"/><path d="m640 224-96 96z"/><path d="m400 448-160-160z"/><path d="m240 288v-64h-160v64z"/><path d="m16 224h48z"/><path d="m-128-224h64z"/><path d="m64-224h-16-112z"/><path d="m-128-384h-160v96 64h160z"/><path d="m-128-384h-160z"/><path d="m-64-448-32 32-32 32z"/><path d="m-128-384 20-20 12-12 20-20 12-12z"/><path d="m-144 224h-80z"/><path d="m240 608 32 32v-32z"/><path d="m496 608h-16l16 16z"/><path d="m640 672h40l-64-64h-120v16 32 16z"/><path d="m432 656v16h16z"/><path d="m640 672h-144-16-32-16-16v128h144 80z"/><path d="m688 800v-120l-8-8h-40v128z"/><path d="m336 800h80v-128-64h-144v32 96z"/><path d="m432 656v-32-16h-16v64h16z"/><path d="m448 608h-16v16z"/><path d="m480 672h16v-16z"/><path d="m272 736v-96z"/><path d="m496 624v32z"/><path d="m432 656v-32z"/><path d="m480 672h-32z"/><path d="m432 624 16-16z"/><path d="m448 672-16-16z"/><path d="m480 608 16 16z"/><path d="m496 656-16 16z"/><path d="m336 800-64-64z"/><path d="m272 640-32-32z"/><path d="m0-8v-24h-24z"/><path d="m0-8v48 24l16-16v-64l-16-16z"/><path d="m-72-32h48 24l-16-16h-64l-16 16z"/><path d="m-16 80 16-16h-24-48-24l16 16z"/><path d="m0 64v-24l-24 24z"/><path d="m-96 40v24h24z"/><path d="m-96 40v-48-24l-16 16v64l16 16z"/><path d="m-72-32h-24v24z"/><path d="m-96 40v-48z"/><path d="m-24 64h-40-8z"/><path d="m0-8v40 8z"/><path d="m-24-32 24 24z"/><path d="m-72 64-24-24z"/><path d="m0 40-24 24z"/><path d="m-96-8 24-24z"/><path d="m616 608h-152z"/><path d="m464 608h-48 16 16 32 16 120z"/><path d="m-288 160 64 64z"/><path d="m-288-224v160z"/><path d="m80 448 160 160z"/><path d="m160-832v160z"/><path d="m64-384v-32 192z"/><path d="m64-384v160 64z"/><path d="m480-480h64l-32-32-64-64h-128v32 64z"/><path d="m448-416h32v-64h-160v64z"/><path d="m672-352-64-64-64-64h-64v64 32l32 32z"/><path d="m448-416 32 32v-32z"/><path d="m512-352v192h160v-192z"/><path d="m320-576h-64v32h64z"/><path d="m320-480v-64h-64l-64 64 64 64h64z"/><path d="m128-48h48l-112-112v112z"/><path d="m336 80h144v-48h-96-48z"/><path d="m336 32h48v-64h-48z"/><path d="m288 80h-160-64v144h16 208z"/><path d="m304 224h176v-144h-144-48v144z"/><path d="m128 80h160 48v-48-64h-144-64z"/><path d="m192-32-16-16h-48v16z"/><path d="m64 80h64v-112-16h-64z"/><path d="m928 32h-64z"/><path d="m512-160h-64z"/><path d="m480-384-32-32 64 64z"/><path d="m384-96v64z"/><path d="m336-32h48-192z"/><path d="m960 256v32z"/><path d="m672-352-64-64z"/><path d="m512-160h64 32 64z"/><path d="m672-160v-192z"/><path d="m320-576h128-192z"/><path d="m256-544-64 64z"/><path d="m192-480h-32z"/><path d="m384-96 64-64z"/><path d="m80 288v160z"/><path d="m768 224v64z"/><path d="m768 128v96z"/><path d="m992 224v-48-80z"/><path d="m864 32-96 96z"/><path d="m992 96-64-64z"/><path d="m960 288v224-64z"/><path d="m960 256 32-32z"/><path d="m928 544 32-32z"/><path d="m304 224h-16-208 160z"/><path d="m384 32v-16-32-16z"/><path d="m384 32h96z"/><path d="m480 80v144-192z"/><path d="m608 448h-64-144z"/><path d="m744 312 24-24-160 160z"/><path d="m400 448-160-160z"/><path d="m240 288h-160z"/><path d="m80 224h-16z"/><path d="m64 224h-64-144 160z"/><path d="m-64-48h-16 64z"/><path d="m-128-224h-160z"/><path d="m64-224h-128z"/><path d="m64-576-96 96z"/><path d="m-32-480-32 32z"/><path d="m-128-384h-128-32z"/><path d="m-64-224h-64-160v160 16h64 112 32 16z"/><path d="m-16-48h32 48v-112-64h-128v176z"/><path d="m0 80h-16-64-32-112v64l80 80h144z"/><path d="m64 80h-48-16v144h64z"/><path d="m16-16v64 32h48v-128h-48z"/><path d="m16-16v-32h-32z"/><path d="m-16 80h16 16v-32z"/><path d="m-112 80h32l-32-32z"/><path d="m-80-48h-32v32z"/><path d="m-112 48v-64-32h-112v128h112z"/><path d="m-224 144v-64-128h-64v128z"/><path d="m-112 48v-64z"/><path d="m-16 80h-64z"/><path d="m16-16v64z"/><path d="m-80 80-16-16-16-16z"/><path d="m-16-48 16 16 16 16z"/><path d="m-112-16 16-16 16-16z"/><path d="m16 48-16 16-16 16z"/><path d="m928 544-64 64z"/><path d="m-144 224h-80z"/><path d="m-224 144v80h80z"/><path d="m-288 160 64 64v-80l-64-64z"/><path d="m688 680v120z"/><path d="m616 608 64 64 8 8z"/><path d="m720 800h112z"/><path d="m688 800h32z"/><path d="m832 800h32z"/><path d="m-128-384 32-32h-48-112v32z"/><path d="m-256-640v-48l-32 32v112 80h32z"/><path d="m-288-464v80h32v-32-48z"/><path d="m-256-640 160-160h-48l-112 112z"/><path d="m80-640-224 224h48l32-32 32-32 96-96 16-16z"/><path d="m96-608 32-32v-48l-48 48v48z"/><path d="m160-832-32 32v112 48l32-32z"/><path d="m80-832h-80-64-48l-32 32h48 176z"/><path d="m128-800 32-32h-80v32z"/><path d="m384-32h-96-96z"/><path d="m128-688-48 48z"/><path d="m64-384v224-32z"/><path d="m384-96v64z"/><path d="m512-160h-64z"/><path d="m448-416 64 64z"/><path d="m464 608h-128-96 176z"/><path d="m-288-656v112z"/><path d="m-288-464v-80 32 128z"/><path d="m-256-688 112-112 32-32-17.6081 17.6081-158.3919 158.3919z"/><path d="m80 448 160 160z"/><path d="m0-832h80 80z"/><path d="m0-832h-64z"/><path d="m64-416v32z"/><path d="m128-480-64 64z"/><path d="m512-160v-192z"/><path d="m448-416h-128-64z"/><path d="m192-480h-32-32z"/><path d="m256-416-64-64z"/><path d="m384-96 64-64z"/><path d="m64-160 112 112 16 16z"/><path d="m768 224v-96 96 64z"/><path d="m992 224v-128z"/><path d="m992 96-64-64z"/><path d="m960 288v96 64 64z"/><path d="m960 256 32-32z"/><path d="m864 32-96 96z"/><path d="m960 512-32 32z"/><path d="m80 288v160z"/><path d="m608 448h-208z"/><path d="m240 288h-160z"/><path d="m672 384 72-72-136 136z"/><path d="m768 288-24 24z"/><path d="m336 384 64 64-160-160z"/><path d="m688 680v120z"/><path d="m864 632v168-32z"/><path d="m616 608 72 72z"/><path d="m-256-416h112z"/><path d="m288-416h96 64-192z"/><path d="m-256-640v176 48z"/><path d="m128-800h-48-176z"/><path d="m256-416-64-64h-64l-64 64z"/><path d="m128-688v-112z"/><path d="m192-480h-64z"/><path d="m256-416-64-64z"/><path d="m80-640-224 224z"/><path d="m128-480-64 64z"/><path d="m-96-800-160 160z"/><path d="m64-416v32z"/><path d="m512-192v32-192z"/><path d="m448-416h-64v224h64z"/><path d="m384-192v96l64-64v-32z"/><path d="m512-352-64-64v224h64z"/><path d="m448-192v32h64v-32z"/><path d="m448-160-64 64z"/><path d="m288-416h-32-192v32 192h224z"/><path d="m64-192v32l128 128h96v-160z"/><path d="m384-416h-96v224h96z"/><path d="m288-192v160h96v-64-96z"/><path d="m64-160 128 128z"/></g></defs><path d="m-496-1040h1728v1984h-1728z" fill="#fff"/><g stroke="#000"><use fill="none" stroke-miterlimit="0" stroke-width="15" xlink:href="#a"/><use fill="#fff" xlink:href="#a"/></g></svg>