<svg viewBox="-971 -203 1478 1486" xmlns="http://www.w3.org/2000/svg" xmlns:xlink="http://www.w3.org/1999/xlink"><defs><g id="a"><path d="m-624-80h-40-184 184z"/><path d="m-400-80h-61.3333-18.6667-130.4615-13.5385 162.6667z"/><path d="m-176-80h-80-48-96 2 142z"/><path d="m48-80h-84.8-43.2-96 28 124z"/><path d="m272-80h-155.6221-22.7423-45.6356 45.6356 22.7423z"/><path d="m296 1160h16 72-72-16-24z"/><path d="m384-80v120z"/><path d="m-848 963.2v196.8-224z"/><path d="m-848 144v-104-120h184l-16 40-48 120-25.6 64z"/><path d="m-817.6 304-30.4 76v-116-120h94.4z"/><path d="m-817.6 304 64-160 25.6-64-8 80-4.0851 40.8511-5.5149 11.9489-42.0923 91.2z"/><path d="m-848 434.6667v-54.6667l30.4-76h29.9077z"/><path d="m-740.0851 200.8511 4.0851-40.8511 3.6923 24z"/><path d="m-664-80h40 13.5385l-29.5385 64-40-24z"/><path d="m-740.0851 200.8511 7.7774-16.8511 12.3077 80-25.6-51.2z"/><path d="m-720 264 32 64-60.4445 108.8h-99.5555v-2.1333l60.3077-130.6667 42.0923-91.2z"/><path d="m-748.4445 436.8-27.5555 49.6-16 28.8-56 100.8v-128-51.2z"/><path d="m-640-16 29.5385-64h130.4615v33.6l-48 86.4-40 72-17.7778 32h-114.6667l12.4445-56z"/><path d="m-585.7778 144-1.453 2.6154-87.4359 157.3846-21.3333-48-8-96 3.5555-16z"/><path d="m-480-80h18.6667l-18.6667 33.6z"/><path d="m-560 192 12 20-20 20-16 16-50.6667 50.6667-29.3333 29.3333-10.6667-24 87.4359-157.3846z"/><path d="m-560 192-27.2308-45.3846 1.453-2.6154 17.7778-32z"/><path d="m-304-32-129 129-55-33-40-24 48-86.4 18.6667-33.6h61.3333 96z"/><path d="m-256-80-48 48v-48z"/><path d="m-455 119-73 73v-64l40-64 55 33z"/><path d="m-848 739.2v-27.2-96l56-100.8v195.2 28.8z"/><path d="m-848 963.2v-27.2-196.8h56v92.8 80 51.2z"/><path d="m-792 1064v32 64h-56v-196.8h56z"/><path d="m-792 1064v-100.8-51.2l16-8v144.5714z"/><path d="m-792 515.2 16-28.8v38.4 19.2 166.4h-16z"/><path d="m-776 710.4v57.6 56l-16 8v-92.8-28.8z"/><path d="m-648 472v-152l13.3333-21.3333 50.6667-50.6667v192 32z"/><path d="m-648 696v-152-72h64v48 152 24z"/><path d="m-584 704v115.7647l-64-3.7647v-48-72h64z"/><path d="m-680 344 7.5555 15.1111-103.5555 165.6889v-38.4l27.5555-49.6 60.4445-108.8z"/><path d="m-648 1104v56h-144v-64z"/><path d="m-776 544v-19.2l103.5555-165.6889 24.4445-39.1111v152 72z"/><path d="m-776 768v-57.6-166.4h128v152 72z"/><path d="m-648 816-128 8v-56h128z"/><path d="m-648 320-24.4445 39.1111-7.5555-15.1111 16-16 29.3333-29.3333z"/><path d="m-584 672v-152l16-8v144.5714z"/><path d="m-572.5996 852.4353-203.4004 196.1361v-144.5714-48l128-8z"/><path d="m-584 248 16-16v200l-16 8z"/><path d="m-528 870.8965v145.1035 48l-120 8-90.5942-5.033z"/><path d="m-528 1096v64h-96-24v-56z"/><path d="m-512 1096v64h-16v-64l16-8z"/><path d="m-512 940v68l-16 8v-145.1035l16-14.8965z"/><path d="m-512 708v116l-72-4.2353v-115.7647z"/><path d="m-440 424v-32l19.9024 33.1707z"/><path d="m-440 904-72 36v-84-32-116l72 4z"/><path d="m-512 272 72 120v32l-128 8v-200l20-20z"/><path d="m-512 1096v-8-80-68l72-36 64-32v40 152 32z"/><path d="m-376 1160h-24-112v-64h136z"/><path d="m-440 712 64-4.2667v124.2667 40l-64 32z"/><path d="m-360 824-16 8v-124.2667l16-1.0666z"/><path d="m-376 1064v-152l16-8v144.5714z"/><path d="m-320 608v16 48l-120 8-90.5942-5.033 166.5471-155.0611z"/><path d="m-320 704v117.5l-40 2.5v-117.3333z"/><path d="m-320 608 6.4 12.8-6.4 3.2z"/><path d="m-304 696v22 44.6667 5.3333 52.5l-16 1v-117.5z"/><path d="m-458 332 46.8485 93.697-8.9461-.5263-19.9024-33.1707-72-120 16-16z"/><path d="m-364.5996 460.4353-203.4004 196.1361v-144.5714-48l128-8z"/><path d="m-406.4 228.8-9.6 19.2v-16z"/><path d="m-496 256-32-64 73-73 27.7059 46.1765 11.2941 18.8235v48 16l-42 84z"/><path d="m-392 224-14.4 4.8-9.6 3.2v-48z"/><path d="m-304 494v122l-9.6 4.8-6.4-12.8-44.0471-88.0941 60.0471-55.9059z"/><path d="m-427.2941 165.1765 11.2941-13.1765v32z"/><path d="m-392 224 48 40 40 80v88l-107.1515-6.303-46.8485-93.697 42-84 9.6-19.2z"/><path d="m-433 97 129-129v53.3334l-64 74.6666-48 56-11.2941 13.1765-27.7059-46.1765z"/><path d="m-304 64v3.5555l-64 28.4445 64-74.6666z"/><path d="m-336 128 32-16v48.8889 89.5726l-16-2.4615-48-32-16-32 16-32z"/><path d="m-344 264 40 6v74z"/><path d="m-173.4545 218.9091 26.7878-53.5758 26.6667-53.3333 32 40v32l-32 40-40 16-25.7143 3.4286z"/><path d="m-273.5714 255.1429-30.4286-4.6814v-89.5726l16 7.1111 72 32 42.5455 18.9091-12.2598 24.5195z"/><path d="m-184 184 37.3333-18.6667-26.7878 53.5758-42.5455-18.9091z"/><path d="m-304 64h8l-8 3.5555z"/><path d="m-120 112-26.6667 53.3333-37.3333 18.6667-72-32 97.2308-48.6154z"/><path d="m-304 112 16-8 96-8 33.2308 7.3846-97.2308 48.6154-32 16-16-7.1111z"/><path d="m-96 64-16 32-72-32z"/><path d="m-113.6 318.4-7.2649 16.9514-63.1351-47.3514-13.1765-9.8823 61.1765-6.1177 26.9091 35.8788z"/><path d="m-120.8649 335.3514-7.1351 16.6486-16 37.3333-44.8571 104.6667h-115.1429v-30-32-88-74l120 18z"/><path d="m-188.8571 494-51.1429 119.3333-44.8571 104.6667h-19.1429v-22-80-122z"/><path d="m-284.8571 718-19.1429 44.6667v-44.6667z"/><path d="m-240 613.3333 51.1429-119.3333 44.8571-104.6667v50.6667 72l-63.3333 101.3333z"/><path d="m-232 652.8-72 115.2v-5.3333l19.1429-44.6667 44.8571-104.6667h32.6667z"/><path d="m-144 389.3333 16-37.3333v80l-16 8z"/><path d="m-96.3478 324.8696-17.2522-6.4696 4.5091-10.5212z"/><path d="m-120.8649 335.3514 7.2649-16.9514 17.2522 6.4696 56.1453 21.0545-21.2443 33.9908-31.1711 49.8737-35.3821 2.2114v-80z"/><path d="m-232 736v-83.2l24.6667-39.4667 63.3333-101.3333v8 152 32 32z"/><path d="m-144 821.1765-88-5.1765v-80h88z"/><path d="m-232 1104v56h-144v-64z"/><path d="m-304 820.5v-52.5l72-115.2v83.2 80z"/><path d="m-232 848 75.4004 4.4353-203.4004 196.1361v-144.5714-48z"/><path d="m-128 885.7931v138.2069 41.0667l-104 6.9333-90.5942-5.033z"/><path d="m-144 672v-152l16-8v144.5714z"/><path d="m-128 885.7931 32-29.7931v74.6667 77.3333l-16 8-16 8z"/><path d="m-112 1096v64h-64-56v-56z"/><path d="m-128 1024 16-8v48l-16 1.0667z"/><path d="m-96 706.6667v117.3333l-48-2.8235v-85.1765-32z"/><path d="m-96 1160h-16v-64l16-8z"/><path d="m-61.4468 379.9149 58.5532 43.9149.4321.3241-90.1564 5.6347z"/><path d="m0 933.8667v-3.2-218.6667l32-2.1333v122.1333 80 21.8667z"/><path d="m32 1064v32 64h-32v-226.1333h32z"/><path d="m-2.4615 424.1539-.4321-.3241 2.8936.1702z"/><path d="m-96 930.6667v-74.6667-32-117.3333l96 5.3333v218.6667z"/><path d="m0 933.8667v226.1333h-96v-72-80-77.3333h96z"/><path d="m4.8 273.92 43.2 17.28v3.2 84.6l-88.2025-33.0759-56.1453-21.0545-12.7431-16.9908-26.9091-35.8788 56-32z"/><path d="m32 1064v-130.1333-21.8667l16-8v144.5714z"/><path d="m48 275.2v16l-43.2-17.28 11.2-17.92z"/><path d="m48 824-16 8v-122.1333l16-1.0667z"/><path d="m48 291.2v-16l8 4.8-8 14.4z"/><path d="m75.4004 460.4353-203.4004 196.1361v-144.5714-48l128-8z"/><path d="m48 708.8 72-4.8v115.5l-72 4.5z"/><path d="m120 478.8965v145.1035 48l-120 8-90.5942-5.033z"/><path d="m48 379 88 33v20l-136-8-2.8936-.1702-58.5532-43.9149 21.2443-33.9908z"/><path d="m120 819.5v-115.5l16-8v56 66.5z"/><path d="m120 478.8965 16-14.8965v64 88l-16 8z"/><path d="m136 344v68l-88-33v-84.6l8-14.4 5.7143-10.2857z"/><path d="m296 1160h-24-96v-56l120-8z"/><path d="m176 1104v56h-128-16v-64z"/><path d="m176 848 75.4004 4.4353-203.4004 196.1361v-144.5714-48z"/><path d="m136 752v-56-80-88l40 30v194z"/><path d="m176 782v34l-40 2.5v-66.5h40z"/><path d="m296 1016v48l-120 8-90.5942-5.033 210.5942-196.0705z"/><path d="m189.3333 568 122.6667 92v84 38h-136v-30-194z"/><path d="m312 782v42l-136-8v-34z"/><path d="m243.7969 451.7969 41.9174 41.9174 26.2857 26.2857v48h-122.6667l-13.3333-10-40-30v-64-32-20-68z"/><path d="m312 568v92l-122.6667-92z"/><path d="m312 1160h-16v-64l16-8z"/><path d="m296 870.8965 16-14.8965v112 40l-16 8z"/><path d="m312 660v-92-48l28 28 44 73.3333v90.6667 32h-72z"/><path d="m384 744v192 32h-72v-112-32-42-38z"/><path d="m384 968v192h-72v-72-80-40z"/><path d="m-56 152h13.7143l-13.7143 32z"/><path d="m-80 64h104l32 64v24h-98.2857-13.7143l-56-56 16-32z"/><path d="m-56 184 13.7143-32h98.2857v40l-40 64-11.2 17.92-84.8-33.92z"/><path d="m97.6 144 50.2781 83.7969-2.0546.1325-49.8235-19.9294-8-80z"/><path d="m136 344-74.2857-74.2857 20.9509-37.7117 63.1583-4.0732 2.0546-.1325 39.3219 65.5364 31.8876 53.146 39.2093 65.3489 14.8443 24.7405 9.1369 15.2282h-38.4812z"/><path d="m282.2781 451.7969 3.4362 5.7269v36.1905l-41.9174-41.9174z"/><path d="m285.7143 457.5238 54.2857 90.4762-28-28-26.2857-26.2857z"/><path d="m82.6652 232.0026 13.3348-24.0026 49.8235 19.9294z"/><path d="m-80 64h-16-88-112-8v-42.6666-53.3334l48-48h80 96z"/><path d="m40 48-16 16h-104v-144h43.2z"/><path d="m97.6 144-9.6-16-48-80-76.8-128h84.8 45.6356l61.63 76.2087 31.9344 39.4886v108.3027z"/><path d="m187.2 259.6972v33.6361l-39.3219-65.5364-50.2781-83.7969h89.6z"/><path d="m237.3843 148.1315 3.1801 73.6878-6.5257 37.8779h-46.8387v-115.6972-108.3027l17.6102 21.7758z"/><path d="m234.0387 259.6972-12.9215 75.0017-2.0296 11.7804-31.8876-53.146v-33.6361z"/><path d="m265.9659 347.5283-7.669 64.2999-39.2093-65.3489 2.0296-11.7804z"/><path d="m302.595 217.8187-21.323 1.3752-12.9781-79.3446z"/><path d="m93.6356-80h22.7423l50.2014 56.6128-11.3137 19.5959z"/><path d="m268.2939 139.8493-42.372-96.3152 89.0883 100.4659 25.3677 28.6075 35.8785 40.4606-73.6614 4.7506z"/><path d="m302.595 217.8187 73.6614-4.7506 7.7436-.4994v51.4313 172.5687h-110.8588l-14.8443-24.7405 7.669-64.2999 15.3061-128.3344z"/><path d="m384 436.5687v51.4313 133.3333l-44-73.3333-54.2857-90.4762-3.4362-5.7269-9.1369-15.2282z"/><path d="m315.0102 144-89.0883-100.4659-59.3426-66.9213-50.2014-56.6128h155.6221 68.3779v224z"/><path d="m340.3779 172.6075-25.3677-28.6075h25.3677z"/><path d="m340.3779 144v-224h43.6221v120 104z"/><path d="m384 212.5687-7.7436.4994-35.8785-40.4606v-28.6075h43.6221z"/><path d="m312 1088v-80z"/><path d="m312 824v32z"/><path d="m-792 912v-80z"/><path d="m312 824-136-8z"/><path d="m-584 520v-48-32z"/><path d="m136 432v32z"/><path d="m136 696v-80z"/><path d="m155.2656-3.7913 11.3137-19.5959z"/><path d="m240.5644 221.8193-3.1801-73.6878z"/><path d="m237.3843 148.1315-32.5741-90.6584z"/><path d="m-440 424-128 8z"/><path d="m-56 152v32z"/><path d="m40 48 48 80z"/><path d="m56 152v-24 24 40z"/><path d="m96 208-8-80z"/><path d="m56 128-32-64z"/><path d="m24 64 16-16z"/><path d="m56 192-40 64z"/><path d="m-184 64h-112z"/><path d="m-112 96-72-32z"/><path d="m-56 152-56-56z"/><path d="m-304 67.5555 8-3.5555-8 3.5555-64 28.4445z"/><path d="m-158.7692 103.3846-33.2308-7.3846 33.2308 7.3846 38.7692 8.6154z"/><path d="m-368 96-48 56z"/><path d="m-160 240 40-16z"/><path d="m-288 104 96-8z"/><path d="m-88 184-32 40z"/><path d="m-184 184-72-32z"/><path d="m-185.7143 243.4286 25.7143-3.4286-25.7143 3.4286-30.7563 4.1008-57.1008 7.6135z"/><path d="m-368 216-16-32z"/><path d="m-304 250.4615 30.4286 4.6814-30.4286-4.6814-16-2.4615z"/><path d="m-288 168 32-16z"/><path d="m-368 152-16 32z"/><path d="m-336 128-32 24z"/><path d="m-320 248-48-32z"/><path d="m-288 168 72 32z"/><path d="m-416 184 24 40z"/><path d="m-197.1765 278.1177 13.1765 9.8823z"/><path d="m-528 40 40 24z"/><path d="m-496 256-32-64z"/><path d="m-528 192v-64z"/><path d="m-488 64-40 64z"/><path d="m-568 112 8 80z"/><path d="m-512 272 16-16z"/><path d="m-304 432v32z"/><path d="m-304 696v-80z"/><path d="m136 696-16 8z"/><path d="m-92.6179 429.7886 90.1564-5.6347 2.4615-.1539-2.4615.1539-90.1564 5.6347-35.3821 2.2114z"/><path d="m120 672-120 8z"/><path d="m136 432-88-5.1765-48-2.8235z"/><path d="m-128 656.5714 203.4004-196.1361-203.4004 196.1361-16 15.4286z"/><path d="m-128 512v-48z"/><path d="m-128 512-16 8z"/><path d="m120 672v-48z"/><path d="m-90.5942 674.967 90.5942 5.033z"/><path d="m-304 696-16 8z"/><path d="m-420.0976 425.1707 8.9461.5263 107.1515 6.303-107.1515-6.303-8.9461-.5263-19.9024-1.1707z"/><path d="m-568 656.5714 203.4004-196.1361-203.4004 196.1361-16 15.4286z"/><path d="m-568 464v48z"/><path d="m-568 512-16 8z"/><path d="m-320 672-56 3.7333-64 4.2667z"/><path d="m-320 672v-48z"/><path d="m-313.6 620.8 9.6-4.8-16 8z"/><path d="m-440 680-90.5942-5.033z"/><path d="m-664 328-16 16z"/><path d="m-704 160 8 96z"/><path d="m-640-16-48 104 42.7907-92.7131z"/><path d="m-674.6667 304 10.6667 24-10.6667-24-21.3333-48z"/><path d="m-688 88-12.4445 56-3.5555 16z"/><path d="m-376 912v-40-40 40z"/><path d="m32 912v-80z"/><path d="m312 1088-16 8z"/><path d="m48 1048.5714 203.4004-196.1361-203.4004 196.1361-16 15.4286z"/><path d="m48 856v48z"/><path d="m120 819.5 16-1 40-2.5-40 2.5-16 1-72 4.5z"/><path d="m251.4004 852.4353-75.4004-4.4353z"/><path d="m48 904-16 8z"/><path d="m176 1072-90.5942-5.033z"/><path d="m176 1072 120-8z"/><path d="m296 1064v-48z"/><path d="m-96 1088v-80z"/><path d="m-96 824v32z"/><path d="m-96 1088-16 8z"/><path d="m-320 821.5 16-1 72-4.5-72 4.5-16 1-40 2.5z"/><path d="m-144 821.1765 48 2.8235-48-2.8235-88-5.1765z"/><path d="m-128 1065.0667 16-1.0667-16 1.0667-104 6.9333z"/><path d="m-156.5996 852.4353-75.4004-4.4353z"/><path d="m-360 1048.5714 203.4004-196.1361-203.4004 196.1361-16 15.4286z"/><path d="m-360 856v48z"/><path d="m-360 904-16 8z"/><path d="m-112 1064v-48z"/><path d="m-232 1072-90.5942-5.033z"/><path d="m-512 824v32z"/><path d="m-512 1088v-80z"/><path d="m-512 1088-16 8z"/><path d="m-528 1064-56 3.7333-64 4.2667z"/><path d="m-584 819.7647 72 4.2353-72-4.2353-64-3.7647z"/><path d="m-776 1048.5714 203.4004-196.1361-203.4004 196.1361-16 15.4286z"/><path d="m-776 856v48z"/><path d="m-776 904-16 8z"/><path d="m-528 1064v-48z"/><path d="m-738.5942 1066.967 90.5942 5.033z"/><path d="m384-80h-43.6221-68.3779z"/><path d="m-624-80h-40-184z"/><path d="m-400-80h-61.3333-162.6667z"/><path d="m-176-80h-80-142-2z"/><path d="m48-80h-72-124-28z"/><path d="m272-80h-155.6221-22.7423-45.6356z"/><path d="m296 1160h16 72-112z"/><path d="m-624 1160h-24-144-56 56 144z"/><path d="m-400 1160h-112-16-96 96 16z"/><path d="m-176 1160h-56-144-24 24 144z"/><path d="m48 1160h-16-32-96-16-64 64 16 96 32z"/><path d="m272 1160h-96-128 128z"/><path d="m384 936v224-192z"/><path d="m384 712v224-192z"/><path d="m384 488v133.3333 90.6667-90.6667z"/><path d="m384 264v138.8592 85.1408-51.4313z"/><path d="m384 40v181.8007 42.1993-51.4313-68.5687z"/><path d="m384-80v120z"/><path d="m-848 936v-224 27.2z"/><path d="m-848 712v-72-24-128 128z"/><path d="m-848 488v-53.3333-54.6667-116 116 54.6667 2.1333z"/><path d="m-848 264v-224 104z"/><path d="m-848 40v-120z"/><path d="m-848 1160v-224z"/><path d="m-848-80v120 224 116l120-300 48-120 16-40z"/><path d="m-680-40-48 120-120 300v-116-224-120h184z"/><path d="m-745.6 212.8-102.4 221.8667v-54.6667l120-300-8 80-4.0851 40.8511z"/><path d="m-745.6 212.8 5.5149-11.9489 4.0851-40.8511 8-80-120 300v54.6667z"/><path d="m-720 264-22-44 1.9149-19.1489 4.0851-40.8511z"/><path d="m-740.0851 200.8511-1.9149 19.1489 22 44-16-104z"/><path d="m-745.6 212.8 5.5149-11.9489-1.9149 19.1489z"/><path d="m-742 220 1.9149-19.1489-5.5149 11.9489z"/><path d="m-718 382 30-54-32-64-22-44-3.6-7.2-102.4 221.8667v53.3333 128z"/><path d="m-742 220 22 44 32 64-30 54-130 234v-128-53.3333l102.4-221.8667z"/><path d="m-640-16 32.9412 19.7646 88.2896 19.62 57.4359-103.3846h-162.6667-40l-16 40z"/><path d="m-624-80h162.6667l-57.4359 103.3846-88.2896-19.62-32.9412-19.7646-40-24 16-40z"/><path d="m-645.2093-4.7131 38.1505 8.4777-32.9412-19.7646z"/><path d="m-640-16 32.9412 19.7646-38.1505-8.4777z"/><path d="m-688 88-16 72 8 96 21.3333 48 87.4359-157.3846 19.2308-34.6154 40-72 9.2308-16.6154-88.2896-19.62-38.1505-8.4777z"/><path d="m-528 40-40 72-19.2308 34.6154-87.4359 157.3846-21.3333-48-8-96 16-72 42.7907-92.7131 38.1505 8.4777 88.2896 19.62z"/><path d="m-718 382 30-54 8 16z"/><path d="m-680 344-8-16-30 54z"/><path d="m-560 192-27.2308-45.3846-87.4359 157.3846 10.6667 24 29.3333-29.3333 50.6667-50.6667 36-36z"/><path d="m-584 248-50.6667 50.6667-29.3333 29.3333-10.6667-24 87.4359-157.3846 27.2308 45.3846 12 20z"/><path d="m-568 112-19.2308 34.6154 27.2308 45.3846z"/><path d="m-587.2308 146.6154 19.2308-34.6154 8 80z"/><path d="m-398-80h-2-61.3333l-57.4359 103.3846-9.2308 16.6154 40 24z"/><path d="m-518.7692 23.3846 57.4359-103.3846h61.3333 2l-90 144-40-24z"/><path d="m-455 119 151-151 48-48h-142l-90 144-40 64v64z"/><path d="m-488 64 90-144h142l-48 48-151 151-73 73v-64z"/><path d="m-792 832v80 152 32 64h-56v-224-224-72l56-89.6z"/><path d="m-792 1096v-32-152-80-281.6l-56 89.6v72 224 224h56z"/><path d="m-792 832 16-8v-299.2l-16 25.6z"/><path d="m-776 824-16 8v-281.6l16-25.6z"/><path d="m-776 1048.5714v-144.5714l-16 8v152z"/><path d="m-792 1064v-152l16-8v144.5714z"/><path d="m-776 524.8 128-204.8v496l-128 8z"/><path d="m-648 816v-496l-128 204.8v299.2z"/><path d="m-584 1044v23.7333l-64 4.2667-90.5942-5.033 154.5942-143.9325z"/><path d="m-584 1067.7333v-23.7333-120.9655l-154.5942 143.9325 90.5942 5.033z"/><path d="m-648 816v-496l13.3333-21.3333 50.6667-50.6667v185 7 80 152 32 115.7647z"/><path d="m-584 819.7647v-115.7647-32-152-80-7-185l-50.6667 50.6667-13.3333 21.3333v496z"/><path d="m-792 550.4 16-25.6 128-204.8 13.3333-21.3333-29.3333 29.3333-16 16-38 38-130 234v24z"/><path d="m-680 344 16-16 29.3333-29.3333-13.3333 21.3333-128 204.8-16 25.6-56 89.6v-24l130-234z"/><path d="m-648 1160v-56l-144-8v64z"/><path d="m-648 1104v56h-144v-64z"/><path d="m-572.5996 852.4353-203.4004 196.1361v-144.5714-48l128-8z"/><path d="m-572.5996 852.4353-75.4004-4.4353-128 8v48 144.5714z"/><path d="m-528 1096v64h-96-24v-56z"/><path d="m-624 1160h96v-64l-120 8v56z"/><path d="m-584 1044 56-28v48l-56 3.7333z"/><path d="m-528 1064v-48l-56 28v23.7333z"/><path d="m-584 819.7647v-115.7647l72 4v116z"/><path d="m-584 704v115.7647l72 4.2353v-116z"/><path d="m-568 656.5714v-144.5714l-16 8v152z"/><path d="m-584 672v-152l16-8v144.5714z"/><path d="m-584 1044 56-28 16-8v-68-84l-72 67.0345z"/><path d="m-512 940v68l-16 8-56 28v-120.9655l72-67.0345z"/><path d="m-568 432-16 1v7z"/><path d="m-584 440v-7l16-1z"/><path d="m-512 1088-16 8v64h16z"/><path d="m-512 1160h-16v-64l16-8z"/><path d="m-512 272 72 120v32l-128 8-16 1v-185l36-36z"/><path d="m-568 432 128-8v-32l-72-120-36-60-36 36v185z"/><path d="m-512 856v-32-116l72 4v192l-72 36z"/><path d="m-440 712-72-4v116 32 84l72-36z"/><path d="m-376 1096v-32-152-40l-64 32-72 36v68 80 72h112 24z"/><path d="m-376 912v152 32 64h-24-112v-72-80-68l72-36 64-32z"/><path d="m-376 675.7333v-23.7333-120.9655l-154.5942 143.9325 90.5942 5.033z"/><path d="m-376 652v23.7333l-64 4.2667-90.5942-5.033 154.5942-143.9325z"/><path d="m-420.0976 425.1707-19.9024-33.1707v32z"/><path d="m-440 424v-32l19.9024 33.1707z"/><path d="m-440 904 64-32v-40-7-117.2667l-64 4.2667z"/><path d="m-376 825v7 40l-64 32v-192l64-4.2667z"/><path d="m-376 652 56-28v48l-56 3.7333z"/><path d="m-320 672v-48l-56 28v23.7333z"/><path d="m-376 1064v-152l16-8v144.5714z"/><path d="m-360 1048.5714v-144.5714l-16 8v152z"/><path d="m-320 704v117.5l16-1v-52.5-5.3333-66.6667z"/><path d="m-304 696v66.6667 5.3333 52.5l-16 1v-117.5z"/><path d="m-376 825 16-1 40-2.5v-117.5l-56 3.7333z"/><path d="m-376 707.7333 56-3.7333v117.5l-40 2.5-16 1z"/><path d="m-376 832 16-8-16 1z"/><path d="m-376 825 16-1-16 8z"/><path d="m-440 392-72-120 16-16 38 76 46.8485 93.697-8.9461-.5263z"/><path d="m-458 332-38-76-16 16 72 120 19.9024 33.1707 8.9461.5263z"/><path d="m-406.4 228.8-9.6 19.2v-16z"/><path d="m-416 232v16l9.6-19.2z"/><path d="m-364.5996 460.4353-75.4004-4.4353-128 8v48 144.5714z"/><path d="m-364.5996 460.4353-203.4004 196.1361v-144.5714-48l128-8z"/><path d="m-320 624 16-8v-152l-72 67.0345v120.9655z"/><path d="m-304 464v152l-16 8-56 28v-120.9655z"/><path d="m-406.4 228.8 14.4-4.8-24-40v48z"/><path d="m-392 224-14.4 4.8-9.6 3.2v-48z"/><path d="m-427.2941 165.1765-27.7059-46.1765-73 73 32 64 38 76 42-84v-16-48z"/><path d="m-496 256-32-64 73-73 27.7059 46.1765 11.2941 18.8235v48 16l-42 84z"/><path d="m-416 152-11.2941 13.1765 11.2941 18.8235z"/><path d="m-427.2941 165.1765 11.2941-13.1765v32z"/><path d="m-392 224 48 40 40 80v88l-107.1515-6.303-46.8485-93.697 42-84 9.6-19.2z"/><path d="m-304 344-40-80-48-40-14.4 4.8-9.6 19.2-42 84 46.8485 93.697 107.1515 6.303z"/><path d="m-416 152 48-56 64-74.6666v-53.3334l-151 151 27.7059 46.1765z"/><path d="m-304-32v53.3334l-64 74.6666-48 56-11.2941 13.1765-27.7059-46.1765z"/><path d="m-304 344-40-80 40 6z"/><path d="m-344 264 40 80v-74z"/><path d="m-336 128 32-16v48 90.4615l-16-2.4615-48-32-16-32 16-32z"/><path d="m-304 160v-48l-32 16-32 24-16 32 16 32 48 32 16 2.4615z"/><path d="m-304 67.5555v-3.5555-42.6666l-64 74.6666z"/><path d="m-304 64v3.5555l-64 28.4445 64-74.6666z"/><path d="m-120 224-40 16-25.7143 3.4286 12.2598-24.5195 26.7878-53.5758 26.6667-53.3333 32 40v32z"/><path d="m-146.6667 165.3333-26.7878 53.5758-12.2598 24.5195 25.7143-3.4286 40-16 32-40v-32l-32-40z"/><path d="m-302.4 161.6 85.9294 85.9294-57.1008 7.6135-30.4286-4.6814v-90.4615z"/><path d="m-304 250.4615 30.4286 4.6814 57.1008-7.6135-85.9294-85.9294-1.6-1.6z"/><path d="m-216.4706 247.5294-85.9294-85.9294 14.4 6.4 72 32 42.5455 18.9091-12.2598 24.5195z"/><path d="m-216.4706 247.5294 30.7563-4.1008 12.2598-24.5195-42.5455-18.9091-72-32-14.4-6.4z"/><path d="m-304 64h8l-8 3.5555z"/><path d="m-296 64h-8v3.5555z"/><path d="m-256 152-32 16-14.4-6.4-1.6-1.6v-48l16-8 96-8 33.2308 7.3846z"/><path d="m-192 96-96 8-16 8v48l1.6 1.6 14.4 6.4 32-16 97.2308-48.6154z"/><path d="m-184 184 37.3333-18.6667-26.7878 53.5758-42.5455-18.9091z"/><path d="m-184 184-32 16 42.5455 18.9091 26.7878-53.5758z"/><path d="m-256 152 72 32 37.3333-18.6667 26.6667-53.3333-38.7692-8.6154z"/><path d="m-158.7692 103.3846 38.7692 8.6154-26.6667 53.3333-37.3333 18.6667-72-32z"/><path d="m-80 240-29.0909 67.8788-26.9091-35.8788z"/><path d="m-136 272 26.9091 35.8788 29.0909-67.8788z"/><path d="m-184 288 63.1351 47.3514 11.774-27.4726-26.9091-35.8788-61.1765 6.1177z"/><path d="m-120.8649 335.3514-63.1351-47.3514-13.1765-9.8823 61.1765-6.1177 26.9091 35.8788z"/><path d="m-304 344v88 32 152 80 66.6667l160-373.3334 16-37.3333 7.1351-16.6486-63.1351-47.3514-120-18z"/><path d="m-120.8649 335.3514-7.1351 16.6486-16 37.3333-160 373.3334v-66.6667-80-152-32-88-74l120 18z"/><path d="m-232 652.8 88-140.8v-72-50.6667l-160 373.3334v5.3333z"/><path d="m-144 389.3333v50.6667 72l-88 140.8-72 115.2v-5.3333z"/><path d="m-128 432v-80l-16 37.3333v50.6667z"/><path d="m-144 389.3333 16-37.3333v80l-16 8z"/><path d="m-232 848 75.4004 4.4353-203.4004 196.1361v-144.5714-48z"/><path d="m-156.5996 852.4353-75.4004-4.4353-128 8v48 144.5714z"/><path d="m-232 816v-163.2l-72 115.2v52.5z"/><path d="m-232 816-72 4.5v-52.5l72-115.2z"/><path d="m-232 1160v-56l-144-8v64z"/><path d="m-232 1104v56h-144v-64z"/><path d="m-232 816 88 5.1765v-117.1765-32-152-8l-88 140.8z"/><path d="m-144 520v152 32 117.1765l-88-5.1765v-163.2l88-140.8z"/><path d="m-144 672v-152l16-8v144.5714z"/><path d="m-128 656.5714v-144.5714l-16 8v152z"/><path d="m-128 1065.0667v-41.0667-138.2069l-194.5942 181.1739 90.5942 5.033z"/><path d="m-128 885.7931v138.2069 41.0667l-104 6.9333-90.5942-5.033z"/><path d="m-112 1096v64h-64-56v-56z"/><path d="m-176 1160h64v-64l-120 8v56z"/><path d="m-128 885.7931 32-29.7931v152l-16 8-16 8z"/><path d="m-112 1016 16-8v-152l-32 29.7931v138.2069z"/><path d="m-96 1088-16 8v64h16z"/><path d="m-96 1160h-16v-64l16-8z"/><path d="m-96 824v-117.3333l-48-2.6667v117.1765z"/><path d="m-96 706.6667v117.3333l-48-2.8235v-117.1765z"/><path d="m-112 1064v-48l-16 8v41.0667z"/><path d="m-128 1024 16-8v48l-16 1.0667z"/><path d="m32 832v80 152 32 64h-32v-448l32-2.1333z"/><path d="m32 1096v-32-152-80-122.1333l-32 2.1333v448h32z"/><path d="m-2.4615 424.1539-.4321-.3241 2.8936.1702z"/><path d="m0 424-2.8936-.1702.4321.3241z"/><path d="m-96 824v32 152 80 72h96v-448l-96-5.3333z"/><path d="m0 712v448h-96v-72-80-152-32-117.3333z"/><path d="m-92.6179 429.7886 90.1564-5.6347-.4321-.3241-58.5532-43.9149z"/><path d="m-61.4468 379.9149 58.5532 43.9149.4321.3241-90.1564 5.6347z"/><path d="m0 424 48 2.8235v-132.4235-19.2l-32-19.2-77.4468 123.9149 58.5532 43.9149z"/><path d="m48 275.2v19.2 132.4235l-48-2.8235-2.8936-.1702-58.5532-43.9149 77.4468-123.9149z"/><path d="m48 824v-115.2l-16 1.0667v122.1333z"/><path d="m32 709.8667 16-1.0667v115.2l-16 8z"/><path d="m48 1048.5714v-144.5714l-16 8v152z"/><path d="m32 1064v-152l16-8v144.5714z"/><path d="m48 275.2 8 4.8-8 14.4z"/><path d="m56 280-8-4.8v19.2z"/><path d="m48 708.8 72-4.8v115.5l-72 4.5z"/><path d="m120 819.5v-115.5l-72 4.8v115.2z"/><path d="m120 478.8965v145.1035 48l-120 8-90.5942-5.033z"/><path d="m120 672v-48-145.1035l-210.5942 196.0705 90.5942 5.033z"/><path d="m75.4004 460.4353-75.4004-4.4353-128 8v48 144.5714z"/><path d="m75.4004 460.4353-203.4004 196.1361v-144.5714-48l128-8z"/><path d="m136 464v64 88l-16 8v-145.1035z"/><path d="m136 528v-64l-16 14.8965v145.1035l16-8z"/><path d="m136 432v-88l-74.2857-74.2857-5.7143 10.2857-8 14.4v132.4235z"/><path d="m136 344v88l-88-5.1765v-132.4235l8-14.4 5.7143-10.2857z"/><path d="m136 818.5v-122.5l-16 8v115.5z"/><path d="m120 819.5v-115.5l16-8v122.5z"/><path d="m136 818.5v-122.5-80-88l40 30v258z"/><path d="m176 816v-258l-40-30v88 80 122.5z"/><path d="m296 1160h-24-96v-56l120-8z"/><path d="m296 1096-120 8v56h96 24z"/><path d="m48 1160h128v-56l-144-8v64z"/><path d="m176 1104v56h-128-16v-64z"/><path d="m251.4004 852.4353-75.4004-4.4353-128 8v48 144.5714z"/><path d="m176 848 75.4004 4.4353-203.4004 196.1361v-144.5714-48z"/><path d="m176 1072 120-8v-48-145.1035l-210.5942 196.0705z"/><path d="m296 870.8965v145.1035 48l-120 8-90.5942-5.033z"/><path d="m312 520v140l-136-102-40-30v-64-32-88z"/><path d="m176 558 136 102v-140l-176-176v88 32 64z"/><path d="m312 660v164l-136-8v-258z"/><path d="m312 824v-164l-136-102v258z"/><path d="m312 1088-16 8v64h16z"/><path d="m312 1160h-16v-64l16-8z"/><path d="m296 1016 16-8v-152l-16 14.8965z"/><path d="m312 856v152l-16 8v-145.1035z"/><path d="m312 1088v-80-152-32-164-140l28 28 44 73.3333v90.6667 224 224h-72z"/><path d="m384 936v-224-90.6667l-44-73.3333-28-28v140 164 32 152 80 72h72z"/><path d="m24 64 32 64v24h-98.2857-13.7143l-56-56 16-32z"/><path d="m-56 152h13.7143 98.2857v-24l-32-64h-120l-16 32z"/><path d="m-56 152h13.7143l-13.7143 32z"/><path d="m-42.2857 152h-13.7143v32z"/><path d="m-61.4468 379.9149 77.4468-123.9149 40-64v-40h-98.2857l-13.7143 32-24 56-29.0909 67.8788-11.774 27.4726-7.1351 16.6486v80l35.3821-2.2114z"/><path d="m-120.8649 335.3514 11.774-27.4726 29.0909-67.8788 24-56 13.7143-32h98.2857v40l-40 64-77.4468 123.9149-31.1711 49.8737-35.3821 2.2114v-80z"/><path d="m96 208 19.2308-34.6154-27.2308-45.3846z"/><path d="m115.2308 173.3846-19.2308 34.6154-8-80z"/><path d="m258.2969 411.8282-39.2093-65.3489-103.8568-173.0947-19.2308 34.6154-34.2857 61.7143 74.2857 74.2857 176 176 28 28z"/><path d="m96 208 19.2308-34.6154 103.8568 173.0947 39.2093 65.3489 81.7031 136.1718-28-28-176-176-74.2857-74.2857z"/><path d="m-256-80h80 28l-36 144h-112-8v-42.6666-53.3334z"/><path d="m-304 21.3334v42.6666h8 112l36-144h-28-80l-48 48z"/><path d="m-96 64h120l16-16-69.8182-116.3636z"/><path d="m24 64h-120l66.1818-132.3636 69.8182 116.3636z"/><path d="m-24-80-5.8182 11.6364-66.1818 132.3636-16 32-72-32 36-144z"/><path d="m-96 64 66.1818-132.3636 5.8182-11.6364h-124l-36 144 72 32z"/><path d="m115.2308 173.3846-27.2308-45.3846-48-80-69.8182-116.3636 5.8182-11.6364h72 45.6356l61.63 76.2087 49.5446 61.2644 32.5741 90.6584 3.1801 73.6878-19.4472 112.8796-2.0296 11.7804z"/><path d="m204.8102 57.4731-49.5446-61.2644-61.63-76.2087h-45.6356-72l-5.8182 11.6364 69.8182 116.3636 48 80 27.2308 45.3846 103.8568 173.0947 2.0296-11.7804 19.4472-112.8796-3.1801-73.6878z"/><path d="m258.2969 411.8282 7.669-64.2999-44.8487-12.8294-2.0296 11.7804z"/><path d="m265.9659 347.5283-7.669 64.2999-39.2093-65.3489 2.0296-11.7804z"/><path d="m281.272 219.1939 4.6769-39.2133-17.655-40.1313z"/><path d="m281.272 219.1939-12.9781-79.3446 17.655 40.1313z"/><path d="m285.9489 179.9806-4.6769 39.2133-15.3061 128.3344-7.669 64.2999 81.7031 136.1718 44 73.3333v-133.3333-85.1408z"/><path d="m265.9659 347.5283 15.3061-128.3344 4.6769-39.2133 98.0511 222.8786v85.1408 133.3333l-44-73.3333-81.7031-136.1718z"/><path d="m155.2656-3.7913 11.3137-19.5959-50.2014-56.6128h-22.7423z"/><path d="m166.5793-23.3872-11.3137 19.5959-61.63-76.2087h22.7423z"/><path d="m384 264v-42.1993l-158.0781-178.2666 42.372 96.3152 17.655 40.1313 98.0511 222.8786z"/><path d="m285.9489 179.9806-17.655-40.1313-42.372-96.3152 158.0781 178.2666v42.1993 138.8592z"/><path d="m166.5793-23.3872 59.3426 66.9213 158.0781 178.2666v-181.8007-120h-112-155.6221z"/><path d="m384 40v181.8007l-158.0781-178.2666-59.3426-66.9213-50.2014-56.6128h155.6221 112z"/><path d="m312 1088v-80z"/><path d="m312 856v-32z"/><path d="m-792 832v80z"/><path d="m312 824-136-8z"/><path d="m-584 440v80z"/><path d="m136 696v-80z"/><path d="m136 464v-32z"/><path d="m166.5793-23.3872-11.3137 19.5959z"/><path d="m204.8102 57.4731 32.5741 90.6584z"/><path d="m237.3843 148.1315 3.1801 73.6878z"/><path d="m-440 424-128 8z"/><path d="m-56 184v-32z"/><path d="m88 128-48-80z"/><path d="m56 152v-24 64z"/><path d="m96 208-8-80z"/><path d="m24 64 32 64z"/><path d="m40 48-16 16z"/><path d="m56 192-40 64z"/><path d="m-184 64h-112z"/><path d="m-112 96-72-32z"/><path d="m-56 152-56-56z"/><path d="m-304 67.5555 8-3.5555-72 32z"/><path d="m-368 96-37.8947 44.2105-10.1053 11.7895z"/><path d="m-88 184-32 40z"/><path d="m-184 184-72-32z"/><path d="m-368 216-16-32z"/><path d="m-304 250.4615 30.4286 4.6814-30.4286-4.6814-16-2.4615z"/><path d="m-256 152-32 16z"/><path d="m-384 184 16-32z"/><path d="m-368 152 32-24z"/><path d="m-320 248-48-32z"/><path d="m-288 168 72 32z"/><path d="m-416 184 24 40z"/><path d="m-488 64-40-24z"/><path d="m-568 112 8 80z"/><path d="m-496 256-32-64z"/><path d="m-528 192v-64z"/><path d="m-528 128 40-64z"/><path d="m-512 272 16-16z"/><path d="m-304 696v-80z"/><path d="m-304 464v-32z"/><path d="m120 704 16-8z"/><path d="m-92.6179 429.7886 90.1564-5.6347 2.4615-.1539-128 8z"/><path d="m48 426.8235 88 5.1765-136-8z"/><path d="m-128 656.5714 203.4004-196.1361-219.4004 211.5647z"/><path d="m-128 512v-48z"/><path d="m-144 520 16-8z"/><path d="m120 672v-48z"/><path d="m0 680-90.5942-5.033z"/><path d="m120 672-120 8z"/><path d="m-320 704 16-8z"/><path d="m-420.0976 425.1707 8.9461.5263 107.1515 6.303-136-8z"/><path d="m-568 656.5714 203.4004-196.1361-219.4004 211.5647z"/><path d="m-568 464v48z"/><path d="m-584 520 16-8z"/><path d="m-320 672v-48z"/><path d="m-304 616-16 8z"/><path d="m-440 680-90.5942-5.033z"/><path d="m-376 675.7333 56-3.7333-120 8z"/><path d="m-680 344 16-16z"/><path d="m-645.2093-4.7131-42.7907 92.7131 48-104z"/><path d="m-674.6667 304 10.6667 24-32-72z"/><path d="m-704 160 16-72z"/><path d="m-696 256-8-96z"/><path d="m-376 872v-40 80z"/><path d="m32 832v80z"/><path d="m296 1096 16-8z"/><path d="m48 1048.5714 203.4004-196.1361-203.4004 196.1361-16 15.4286z"/><path d="m48 856v48z"/><path d="m120 819.5 16-1 40-2.5-128 8z"/><path d="m176 848 75.4004 4.4353z"/><path d="m32 912 16-8z"/><path d="m296 1064v-48z"/><path d="m296 1064-120 8z"/><path d="m176 1072-90.5942-5.033z"/><path d="m-96 856v-32z"/><path d="m-96 1088v-80z"/><path d="m-112 1096 16-8z"/><path d="m-320 821.5 16-1 72-4.5-128 8z"/><path d="m-144 821.1765 48 2.8235-136-8z"/><path d="m-360 1048.5714 203.4004-196.1361-219.4004 211.5647z"/><path d="m-360 856v48z"/><path d="m-232 848 75.4004 4.4353z"/><path d="m-376 912 16-8z"/><path d="m-112 1064v-48z"/><path d="m-232 1072-90.5942-5.033z"/><path d="m-128 1065.0667 16-1.0667-120 8z"/><path d="m-512 1088v-80z"/><path d="m-512 856v-32z"/><path d="m-528 1096 16-8z"/><path d="m-584 819.7647 72 4.2353-136-8z"/><path d="m-776 1048.5714 203.4004-196.1361-219.4004 211.5647z"/><path d="m-776 856v48z"/><path d="m-792 912 16-8z"/><path d="m-528 1064v-48z"/><path d="m-648 1072-90.5942-5.033z"/><path d="m-584 1067.7333 56-3.7333-120 8z"/><path d="m-792 1096v-32z"/><path d="m-584 704v-8-24z"/><path d="m281.272 219.1939-15.3061 128.3344z"/><path d="m265.9659 347.5283-44.8487-12.8294z"/><path d="m166.5793-23.3872 59.3426 66.9213z"/><path d="m268.2939 139.8493 12.9781 79.3446z"/><path d="m225.9219 43.5341 42.372 96.3152z"/><path d="m221.1172 334.6989 12.9215-75.0017 6.5257-37.8779z"/><path d="m204.8102 57.4731-17.6102-21.7758-31.9344-39.4886z"/><path d="m-568 112 40-72z"/><path d="m61.7143 269.7143 34.2857-61.7143-13.3348 24.0026-20.9509 37.7117-5.7143 10.2857z"/><path d="m48 275.2 8 4.8-8-4.8-32-19.2z"/><path d="m-416 184v-32z"/><path d="m-56 184-24 56z"/><path d="m-88 152-32-40z"/><path d="m-80 240-56 32z"/><path d="m-88 184v-32z"/><path d="m-304 270 120 18-120-18-40-6z"/><path d="m-304 112 16-8-16 8-32 16z"/><path d="m-184 184-32 16z"/><path d="m-344 264-48-40z"/><path d="m-136 272-61.1765 6.1177z"/><path d="m-548 212 36 60-36-60-12-20z"/><path d="m-144 704v-32z"/><path d="m-144 512v8-8-72z"/><path d="m-144 440 16-8z"/><path d="m32 709.8667 16-1.0667 72-4.8-72 4.8-16 1.0667-32 2.1333z"/><path d="m120 478.8965 16-14.8965-16 14.8965-210.5942 196.0705z"/><path d="m0 456-128 8z"/><path d="m75.4004 460.4353-75.4004-4.4353z"/><path d="m120 624 16-8z"/><path d="m-96 706.6667 96 5.3333-96-5.3333-48-2.6667z"/><path d="m-584 440 16-8z"/><path d="m-440 456-128 8z"/><path d="m-376 707.7333 56-3.7333-40 2.6667-16 1.0666-64 4.2667z"/><path d="m-364.5996 460.4353-75.4004-4.4353z"/><path d="m-376 531.0345 72-67.0345-60.0471 55.9059-166.5471 155.0611z"/><path d="m-512 708 72 4-72-4-72-4z"/><path d="m-680-40 40 24z"/><path d="m-688 328 8 16-8-16-32-64z"/><path d="m-728 80 48-120z"/><path d="m-736 160 8-80z"/><path d="m-720 264-12.3077-80-3.6923-24z"/><path d="m-376 1096v-32z"/><path d="m32 1096v-32z"/><path d="m176 848-128 8z"/><path d="m32 832 16-8z"/><path d="m296 1096-120 8z"/><path d="m296 870.8965 16-14.8965-16 14.8965-210.5942 196.0705z"/><path d="m296 1016 16-8z"/><path d="m176 1104-144-8z"/><path d="m-376 832 16-8z"/><path d="m-112 1096-120 8z"/><path d="m-232 848-128 8z"/><path d="m-128 885.7931 32-29.7931-32 29.7931-194.5942 181.1739z"/><path d="m-112 1016 16-8z"/><path d="m-232 1104-144-8z"/><path d="m-792 832 16-8z"/><path d="m-528 1096-120 8z"/><path d="m-776 824 128-8z"/><path d="m-584 923.0345 72-67.0345-16 14.8965-210.5942 196.0705z"/><path d="m-648 848-128 8z"/><path d="m-572.5996 852.4353-75.4004-4.4353z"/><path d="m-528 1016 16-8z"/><path d="m-648 1104-144-8z"/><path d="m166.5793-23.3872 59.3426 66.9213z"/><path d="m166.5793-23.3872 59.3426 66.9213-21.1117 13.939z"/><path d="m155.2656-3.7913 11.3137-19.5959 38.2309 80.8603z"/><path d="m40 48 48 80h-32z"/><path d="m24 64 16-16 16 80z"/><path d="m-288 168 32-16 72 32-32 16z"/><path d="m-184 184-32 16z"/><path d="m-512 272-36-60-12-20z"/><path d="m-512 272-16-80 32 64z"/><path d="m-144 520v-8-72z"/><path d="m136 616-16 8z"/><path d="m-304 616v80l-16 8v-32-48z"/><path d="m-680 344-8-16-32-64z"/><path d="m-680 344-40-80 24-8z"/><path d="m-664 328-16 16-16-88z"/><path d="m312 1008-16 8z"/><path d="m-96 1008-16 8z"/><path d="m-512 1008-16 8z"/><path d="m-128 464v48l-16 8v-80l16-8z"/><path d="m-568 464v48l-16 8v-80l16-8z"/><path d="m48 856v48l-16 8v-80l16-8z"/><path d="m-360 856v48l-16 8v-80l16-8z"/><path d="m-776 856v48l-16 8v-80l16-8z"/><path d="m-736 160 8-80 48-120 40 24-48 104-33.2308 72-11.0769 24z"/><path d="m-704 160h-17.2308l33.2308-72z"/><path d="m-696 256-24 8-12.3077-80 11.0769-24h17.2308z"/><path d="m-528 128-40-16 40-72 40 24z"/><path d="m-528 192h-32l-8-80 40 16z"/><path d="m-738.5942 1066.967 90.5942 5.033v16l-96-16z"/><path d="m-792 1064 48 8 96 16v16l-144-8z"/><path d="m-648 848-128 8v-32l128-8z"/><path d="m-572.5996 852.4353 4.5996.2706v55.432l-170.5942 158.8291-5.4058 5.033-48-8z"/><path d="m-568 852.7059 56 3.2941-56 52.1379z"/><path d="m-528 1064v32l-120 8v-16-16z"/><path d="m-530.5942 674.967 90.5942 5.033v16l-96-16z"/><path d="m-440 696v-16l120-8v32l-120 8z"/><path d="m-584 672 48 8 96 16v16l-144-8z"/><path d="m-440 456-128 8v-32l128-8z"/><path d="m-512 824v32l-56-3.2941-4.5996-.2706-75.4004-4.4353v-32z"/><path d="m-364.5996 460.4353 4.5996.2706v55.432l-170.5942 158.8291-5.4058 5.033-48-8z"/><path d="m-360 460.7059 56 3.2941-56 52.1379z"/><path d="m-304 432v32l-56-3.2941-4.5996-.2706-75.4004-4.4353v-32z"/><path d="m-392 224-24-40v-32l10.1053-11.7895 5.8947 11.7895 16 32 16 32 24 48z"/><path d="m-336 128-32 24h-32l-5.8947-11.7895 37.8947-44.2105z"/><path d="m-384 184-16-32h32z"/><path d="m-368 216 48 32-24 16z"/><path d="m-304 259.2v10.8l-40-6 24-16 16 2.4615z"/><path d="m-88 184v-32h25.6z"/><path d="m-160.3478 274.4348-36.8287 3.6829-18.8235 1.8823-64-24 6.4286-.8571 113.5714-15.1429 13.1613 17.5484z"/><path d="m-216 280 14.2222 5.3333-102.2222-15.3333v-10.8l24-3.2z"/><path d="m-296 64 8 40-48 24-32-32z"/><path d="m-192 96 8-32 72 32-8 16z"/><path d="m-192 96-96 8-8-40h112z"/><path d="m-304 250.4615 30.4286 4.6814-6.4286.8571-24 3.2z"/><path d="m-197.1765 278.1177 13.1765 9.8823-17.7778-2.6667-14.2222-5.3333z"/><path d="m-146.8387 257.5484-13.1613-17.5484 40-16z"/><path d="m-56 152h-6.4-25.6l-32-40 8-16z"/><path d="m-146.8387 257.5484 26.8387-33.5484 32-40 25.6-32h6.4v32l-24 56-56 32-24.3478 2.4348z"/><path d="m-96 824v32l-56-3.2941-4.5996-.2706-75.4004-4.4353v-32z"/><path d="m-232 816v32l-128 8v-32z"/><path d="m-328 1072 96 16v16l-144-8v-32z"/><path d="m0 424v32l-128 8v-32z"/><path d="m-144 672 48 8 96 16v16l-144-8z"/><path d="m-90.5942 674.967 90.5942 5.033v16l-96-16z"/><path d="m-232 1088v-16l120-8v32l-120 8z"/><path d="m-232 1072v16l-96-16 5.4058-5.033z"/><path d="m-156.5996 852.4353 4.5996.2706v55.432l-170.5942 158.8291-5.4058 5.033-48-8z"/><path d="m-152 852.7059 56 3.2941-56 52.1379z"/><path d="m32 1064 16-15.4286v18.0953 30.2222l-16-.8889z"/><path d="m272 893.2414-186.5942 173.7256-5.4058 5.033-32-5.3333v-18.0953l203.4004-196.1361 20.5996 1.2118z"/><path d="m312 856-40 37.2414v-39.5943z"/><path d="m85.4058 1066.967 90.5942 5.033v16l-96-16z"/><path d="m176 1088v-16l120-8v32l-120 8z"/><path d="m75.4004 460.4353 4.5996.2706v55.432l-170.5942 158.8291-5.4058 5.033-48-8z"/><path d="m80 460.7059 56 3.2941-56 52.1379z"/><path d="m120 672v32l-120 8v-16-16z"/><path d="m136 432v32l-56-3.2941-4.5996-.2706-75.4004-4.4353v-32z"/><path d="m48 1066.6667 32 5.3333 96 16v16l-128-7.1111z"/><path d="m176 848-128 8v-32l128-8z"/><path d="m312 824v32l-40-2.3529-20.5996-1.2118-75.4004-4.4353v-32z"/><path d="m56 192 40 16-40 72-40-24z"/><path d="m88 128 8 80-40-16v-64z"/><path d="m237.3843 148.1315 30.9096-8.2822 12.9781 79.3446-40.7076 2.6254z"/><path d="m281.272 219.1939-15.3061 128.3344-44.8487-12.8294 19.4472-112.8796z"/><path d="m204.8102 57.4731 21.1117-13.939 42.372 96.3152-30.9096 8.2822z"/><path d="m-792 1096v-32z"/><path d="m-728 80 48-120z"/><path d="m-584 704v-32z"/><path d="m281.272 219.1939-15.3061 128.3344z"/><path d="m265.9659 347.5283-44.8487-12.8294z"/><path d="m281.272 219.1939-12.9781-79.3446z"/><path d="m225.9219 43.5341 42.372 96.3152z"/><path d="m221.1172 334.6989 19.4472-112.8796z"/><path d="m204.8102 57.4731-49.5446-61.2644z"/><path d="m-568 112 40-72z"/><path d="m96 208-34.2857 61.7143-5.7143 10.2857z"/><path d="m56 280-8-4.8-32-19.2z"/><path d="m-416 184v-32z"/><path d="m-56 184-24 56z"/><path d="m-88 152-32-40z"/><path d="m-192 96 72 16-38.7692-8.6154z"/><path d="m-80 240-56 32z"/><path d="m-88 184v-32z"/><path d="m-304 270 102.2222 15.3333 17.7778 2.6667-120-18-40-6z"/><path d="m-288 104-16 8-32 16z"/><path d="m-120 224-40 16z"/><path d="m-288 104 96-8z"/><path d="m-160 240-113.5714 15.1429 57.1008-7.6135 30.7563-4.1008z"/><path d="m-344 264-48-40z"/><path d="m-184 288-13.1765-9.8823z"/><path d="m-160.3478 274.4348 24.3478-2.4348-61.1765 6.1177z"/><path d="m-528 192 16 80-48-80z"/><path d="m-144 704v-32z"/><path d="m-144 440 16-8z"/><path d="m120 704-72 4.8-16 1.0667-32 2.1333z"/><path d="m0 712-96-5.3333-48-2.6667z"/><path d="m80 516.1379 56-52.1379-16 14.8965-210.5942 196.0705z"/><path d="m-128 464v-32z"/><path d="m0 456-128 8z"/><path d="m75.4004 460.4353-75.4004-4.4353z"/><path d="m120 672v32z"/><path d="m136 696-16 8v-32-48l16-8z"/><path d="m-584 440 16-8z"/><path d="m-320 704-56 3.7333-64 4.2667z"/><path d="m-568 464v-32z"/><path d="m-440 456-128 8z"/><path d="m-364.5996 460.4353-75.4004-4.4353z"/><path d="m-440 712-72-4-72-4z"/><path d="m-360 516.1379 56-52.1379-72 67.0345-154.5942 143.9325z"/><path d="m-320 672v32z"/><path d="m-680-40 40 24z"/><path d="m-736 160 8-80z"/><path d="m-732.3077 184 12.3077 80-16-104z"/><path d="m-376 1096v-32z"/><path d="m32 1096v-32z"/><path d="m48 856v-32z"/><path d="m176 848-128 8z"/><path d="m32 832 16-8z"/><path d="m296 1096-120 8z"/><path d="m48 1096.8889 128 7.1111-144-8z"/><path d="m272 893.2414 40-37.2414-16 14.8965-210.5942 196.0705z"/><path d="m296 1064v32z"/><path d="m312 1088-16 8v-32-48l16-8z"/><path d="m-376 832 16-8z"/><path d="m-112 1096-120 8z"/><path d="m-232 1104-144-8z"/><path d="m-152 908.1379 56-52.1379-32 29.7931-194.5942 181.1739z"/><path d="m-360 856v-32z"/><path d="m-232 848-128 8z"/><path d="m-112 1064v32z"/><path d="m-96 1088-16 8v-32-48l16-8z"/><path d="m-792 832 16-8z"/><path d="m-528 1096-120 8z"/><path d="m-776 824 128-8z"/><path d="m-648 1104-144-8z"/><path d="m-568 908.1379 56-52.1379-72 67.0345-154.5942 143.9325z"/><path d="m-776 856v-32z"/><path d="m-648 848-128 8z"/><path d="m-572.5996 852.4353-75.4004-4.4353z"/><path d="m-528 1064v32z"/><path d="m-512 1088-16 8v-32-48l16-8z"/><path d="m-848-80h224z"/><path d="m-624-80h224z"/><path d="m-400-80h224z"/><path d="m-176-80h224z"/><path d="m48-80h224z"/><path d="m384-80h-112z"/><path d="m-848 1160h56 144 24z"/><path d="m-624 1160h96 16 112z"/><path d="m-400 1160h24 144 56z"/><path d="m-176 1160h64 16 96 32 16z"/><path d="m48 1160h128 96z"/><path d="m384 1160h-112z"/><path d="m384 1160v-224z"/><path d="m384 936v-224z"/><path d="m384 712v-90.6667-133.3333z"/><path d="m384 488v-85.1408-138.8592z"/><path d="m384 264v-42.1993-181.8007z"/><path d="m384-80v120z"/><path d="m-848 1160v-224z"/><path d="m-848 712v224z"/><path d="m-848 488v128 24 72z"/><path d="m-848 264v116 54.6667 53.3333z"/><path d="m-848 40v224z"/><path d="m-848-80v120z"/><path d="m384-80h-112z"/><path d="m-624 1160h-224z"/><path d="m-400 1160h-224z"/><path d="m-176 1160h-224z"/><path d="m48 1160h-224z"/><path d="m272 1160h-224z"/><path d="m384 936v224z"/><path d="m384 712v224z"/><path d="m384 488v224z"/><path d="m384 264v224z"/><path d="m384 40v224z"/><path d="m-848 936v-224z"/><path d="m-848 712v-224z"/><path d="m-848 488v-224z"/><path d="m-848 264v-224z"/><path d="m-848 40v-120z"/></g></defs><path d="m-971-203h1478v1486h-1478z" fill="#fff"/><g stroke="#000"><use fill="none" stroke-miterlimit="0" stroke-width="15" xlink:href="#a"/><use fill="#fff" xlink:href="#a"/></g></svg>