<svg viewBox="-800 -608 1504 1344" xmlns="http://www.w3.org/2000/svg" xmlns:xlink="http://www.w3.org/1999/xlink"><defs><g id="a"><path d="m-64-160v96 128z"/><path d="m-64-384v96 128z"/><path d="m160-416h-224 128z"/><path d="m256-416v128z"/><path d="m256-128v192z"/><path d="m-64-160v-128h128v160 64h-128z"/><path d="m64-64v128h-128v-128z"/><path d="m64-64v-64h192v192h-192z"/><path d="m160-288h-96-128v-96-32h224z"/><path d="m256-416v128h-96v-128z"/><path d="m256-128h-192z"/><path d="m64-128v-160z"/><path d="m128-304v-96z"/><path d="m128-400h112z"/><path d="m112-400h-48z"/><path d="m64-304h-16z"/><path d="m-48-400v48z"/><path d="m48-128v192z"/><path d="m64 224v-32z"/><path d="m64 192h192z"/><path d="m256 64v128h-192v-128z"/><path d="m64 224h-128z"/><path d="m64 64v128 32h-128v-160z"/><path d="m48 64v112z"/><path d="m-48 80h-16z"/><path d="m-320 64h-96-128 112z"/><path d="m-96 64h-160-64 64z"/><path d="m-544 160v128 96z"/><path d="m-416 384h-16-112z"/><path d="m-416 64v128 96h-128v-128-96z"/><path d="m-416 288v96h-128v-96z"/><path d="m-256 192h-160v-128h96 64z"/><path d="m-64 224h-192v-32-128h160 32z"/><path d="m-256 192v32z"/><path d="m-64 176h-192z"/><path d="m-528 80v112z"/><path d="m-256 176h-176z"/><path d="m-416 288v-96 192z"/><path d="m-528 368h96z"/><path d="m-432 368v-176z"/><path d="m-64-416v32z"/><path d="m-64-160v224z"/><path d="m-64-384v224z"/><path d="m256-416h-96z"/><path d="m160-416h-96-128z"/><path d="m256-416v16 96 16z"/><path d="m256-128v192z"/><path d="m64-128h192v192h-192z"/><path d="m256-128h-192v192h192z"/><path d="m-64-160v-224-32h128v128 160 192h-128z"/><path d="m64-128v-160-128h-128v32 224 224h128z"/><path d="m256-288h-192v-128h96 96z"/><path d="m256-416h-96-96v128h192z"/><path d="m64-128h192z"/><path d="m64-288v160z"/><path d="m128-400v96z"/><path d="m240-400h-112z"/><path d="m112-400h-48z"/><path d="m64-304h-16z"/><path d="m-48-400v48z"/><path d="m48-128v192z"/><path d="m64-288h96 96z"/><path d="m240-400v96z"/><path d="m240-304h-112z"/><path d="m112-304h-48z"/><path d="m112-400v96z"/><path d="m64-400h-112z"/><path d="m48-304v176z"/><path d="m-48-352v224z"/><path d="m-48-128v192z"/><path d="m64 192v32z"/><path d="m256 64v128z"/><path d="m256 64v128h-192v-128z"/><path d="m64 64v128h192v-128z"/><path d="m256 192h-192z"/><path d="m64 64v128 32h-128v-160z"/><path d="m64 224v-32-128h-128v160z"/><path d="m64 224h-128z"/><path d="m48 64v112z"/><path d="m-48 80h-16z"/><path d="m48 176h-112z"/><path d="m-48 64v16z"/><path d="m-320 64h-112-112 112z"/><path d="m-96 64h-160-64 112z"/><path d="m-64 64h-32z"/><path d="m-544 160v224-160z"/><path d="m-544 64v96z"/><path d="m-432 384h16-16-96-16z"/><path d="m-432 368v-176-16-112h-112v96 224h112z"/><path d="m-544 160v-96h112v112 16 176 16h-112z"/><path d="m-416 192h-16v176 16h16z"/><path d="m-432 368v-176h16v192h-16z"/><path d="m-256 64h-64-112v112 16h16 160z"/><path d="m-432 176v-112h112 64v128h-160-16z"/><path d="m-64 64h-32-160v128 32h192z"/><path d="m-64 224h-192v-32-128h160 32z"/><path d="m-256 224v-32z"/><path d="m-64 176h-192z"/><path d="m-528 80v112z"/><path d="m-256 176h-176z"/><path d="m-416 192v192z"/><path d="m-528 368h96z"/><path d="m-432 368v-176z"/><path d="m-64 224h-192z"/><path d="m-64 80h-192z"/><path d="m-416 192h160z"/><path d="m-304 80h-224z"/><path d="m-256 80h-48z"/><path d="m-432 192v-16z"/><path d="m-528 192v176z"/><path d="m256-400v-16z"/><path d="m256-400h16v96h-16z"/><path d="m272-400h16v96h-16z"/><path d="m288-400h-16z"/><path d="m272-400h-16z"/><path d="m272-304v-96z"/><path d="m288-304v-96z"/><path d="m256-288h-192z"/><path d="m128-400h112v96h-112z"/><path d="m240-304v-96z"/><path d="m128-304h112z"/><path d="m64-400h48v96h-48z"/><path d="m112-304h-48z"/><path d="m112-304v-96z"/><path d="m64-400h-16-96z"/><path d="m48-304v-96h16v96z"/><path d="m-48-352v-48h96v96 128h-96z"/><path d="m48-176v48h-96v-48z"/><path d="m48-176v-128 176z"/><path d="m-48-352v176 48z"/><path d="m48-128v192h-96v-192z"/><path d="m-48-128v192z"/><path d="m-48 176h96-112z"/><path d="m-48 64v16z"/><path d="m48 64v112h-96v-96-16z"/><path d="m-48 80v96h-16v-96z"/><path d="m-64 176h-192v-96h192z"/><path d="m-64 80h-192z"/><path d="m-256 176h-176v-96h128 48z"/><path d="m-528 80h96v96 16h-96z"/><path d="m-304 80h-128-96z"/><path d="m-256 80h-48z"/><path d="m-432 192v-16z"/><path d="m-432 192v176h-96v-176z"/><path d="m-528 192v176z"/><path d="m-432 384v16h-96v-16z"/><path d="m-432 400v16h-96v-16z"/><path d="m-432 416v-16z"/><path d="m-432 400v-16z"/><path d="m-528 400h96z"/><path d="m-528 416h96z"/><path d="m-64-160v224-192z"/><path d="m-64-384v224-128z"/><path d="m-64-416v32z"/><path d="m160-416h-224z"/><path d="m256-416h-96z"/><path d="m256-288v-16z"/><path d="m256-128v192z"/><path d="m64-288h192-32-64z"/><path d="m64 224v-32z"/><path d="m256 64v128z"/><path d="m64 192h192z"/><path d="m64 224h-128z"/><path d="m-64 64h-32z"/><path d="m-208 64h-112-112 16 160z"/><path d="m-544 64v96 64z"/><path d="m-544 64v96z"/><path d="m-416 384h-16z"/><path d="m-544 384h16z"/><path d="m-64 224h-192z"/><path d="m-256 192h-160z"/><path d="m-416 192h160z"/><path d="m-416 192v32 64 96z"/><path d="m256-304v-96-16 128z"/><path d="m272-400h-16v96h16z"/><path d="m288-400h-16v96h16z"/><path d="m288-304h-16z"/><path d="m272-304h-16z"/><path d="m272-304v-96z"/><path d="m256-416h-96z"/><path d="m160-416h-224z"/><path d="m256-288v-128z"/><path d="m256-128v192z"/><path d="m64 224v-32z"/><path d="m256 64v128z"/><path d="m64 192h192z"/><path d="m64 224h-128z"/><path d="m-544 64h112z"/><path d="m-544 384v-112-48z"/><path d="m-544 64v160z"/><path d="m-256 224v-32z"/><path d="m-64 224h-192z"/><path d="m-432 384h-96v16h96z"/><path d="m-528 400v16h96v-16z"/><path d="m-528 400v-16z"/><path d="m-528 416v-16z"/><path d="m-528 400h96z"/></g><g id="b"><path d="m-64-416v32z"/><path d="m64-128v-160h-128v128 32z"/><path d="m160-432h-224v-112-64h224z"/><path d="m256-608v16 64 96h-96v-176z"/><path d="m160-416h-224v-16h224z"/><path d="m256-432v16h-96v-16z"/><path d="m256-416v-16h16v128 16h-16z"/><path d="m256-592h48v64h-48z"/><path d="m256-128h128 32v192h-160z"/><path d="m480-160h-224v-96-32h16 144 64z"/><path d="m544-288v128h-32-32v-128z"/><path d="m512-160h32v32z"/><path d="m544-128v-32-128h160v128 96h-160z"/><path d="m704-64v128h-160v-128z"/><path d="m384-432v112 16h-112v-128z"/><path d="m400-304h-16v-16z"/><path d="m384-304h16l16 16h-144v-16z"/><path d="m368-592v64h-64v-64z"/><path d="m368-592h16v64h-16z"/><path d="m384-608v16h-16-64-48v-16z"/><path d="m304-528h64 16v48 48h-112-16v-96z"/><path d="m224-288h-64z"/><path d="m704-288h-160z"/><path d="m384-480v-48-64-16z"/><path d="m384-320v-112-48z"/><path d="m160-608h-224z"/><path d="m704-288v56 16 56z"/><path d="m160-128h-96-128 128z"/><path d="m384-128h-128-96 128 32z"/><path d="m256-256v96z"/><path d="m512-160h-32z"/><path d="m416-128v192z"/><path d="m256-416h-96z"/><path d="m64-128h96 96z"/><path d="m64-288v160z"/><path d="m64 224v-32h192v96 96h-96-96z"/><path d="m64 224v160h-128v-160z"/><path d="m672 512h-224v-32-64h64 32 128z"/><path d="m704 416v96h-32v-96z"/><path d="m448 672h-32-32-160v-160h32 160 32z"/><path d="m672 576-96 96h-128v-160h224z"/><path d="m704 512v32l-32 32v-64z"/><path d="m416 288v-64h128v64 96h-32-64-32z"/><path d="m416 416v-32h32z"/><path d="m416 64v160 64h-160v-96-128z"/><path d="m416 288v96 32 64 32h-160v-128-96z"/><path d="m704 64v64 160h-160v-64-160z"/><path d="m704 288v64 32 32h-32-128v-32-96z"/><path d="m704 512v-96-32 160z"/><path d="m384 672h-48-112z"/><path d="m448 672h128-160z"/><path d="m544 64v160z"/><path d="m448 384h64z"/><path d="m416 480v-64z"/><path d="m416 416 32-32z"/><path d="m256 384h-96z"/><path d="m256 64v128z"/><path d="m-64 64h-32-112z"/><path d="m-720 592h64v64h-64z"/><path d="m-736 656h16 64v16h-80z"/><path d="m-736 592h16v64h-16z"/><path d="m-736 544v-32h80v80h-64-16z"/><path d="m-736 320v-96h176 16v48 112 64h-192z"/><path d="m-544 448v48 16h-112-80v-64z"/><path d="m-544 64v160h-16v-16-144z"/><path d="m-560 208v16h-176v-16z"/><path d="m-672 64h112v144h-176v-112-32z"/><path d="m-432 672h-112-64-48v-16-64-80h112 112z"/><path d="m-416 512h160v64 96h-96-64-16v-160z"/><path d="m-432 384h16v-96-64h-128v48 112z"/><path d="m-416 384v-96-64h160v160 64h-160z"/><path d="m-256 448v64h-160v-64z"/><path d="m-416 192h160v-128h-160z"/><path d="m-64 384h-192v-160h192z"/><path d="m-736 544v48 64 16z"/><path d="m-736 320v128 64 32-96z"/><path d="m-736 96v112 16 96-96z"/><path d="m-656 672h48-128z"/><path d="m-544 672h-64z"/><path d="m-432 672h16-128z"/><path d="m-416 288v96 64 64z"/><path d="m-416 192v-128 160z"/><path d="m-256 512v-64-64 64 128z"/><path d="m-416 224h-128z"/><path d="m-544 224v48z"/><path d="m-432 384h-112 16z"/><path d="m-64 224h-192z"/><path d="m464 432h32z"/><path d="m464 464v-32z"/><path d="m496 432h-32v32h32z"/><path d="m-64-544v-64z"/><path d="m-64-416v-128 112z"/><path d="m464 464h32z"/><path d="m464 464h32z"/><path d="m464 432h32z"/><path d="m496 464v-32z"/><path d="m496 464v-32z"/><path d="m464 432h32v32h-32z"/><path d="m496 464h-32v-32h32z"/><path d="m496 432h-32v32h32z"/><path d="m464 464v-32z"/><path d="m-672 64h128-16z"/><path d="m384-480v-128z"/><path d="m384-608h-128z"/><path d="m-736 544v128z"/><path d="m-608 672h-128z"/><path d="m-416 672h-128z"/><path d="m-256 672h-96z"/><path d="m-256 576v96z"/><path d="m-64-416v-128z"/><path d="m704-288v-32z"/><path d="m544-288 160-32v32z"/><path d="m704-320-160 32z"/><path d="m704 384v64 96z"/><path d="m704 384v-32z"/><path d="m704 544-128 128 96-96z"/><path d="m192 672h32z"/><path d="m576 672h-32-128z"/><path d="m224 512h32z"/><path d="m512 384h32z"/><path d="m448 384h64z"/><path d="m416 480v32z"/><path d="m448 480v-64z"/><path d="m512 416h32z"/><path d="m448 416h64z"/><path d="m416 416 32-32z"/><path d="m256 512v-128z"/><path d="m224 672v-160z"/><path d="m192 512h32v160h-32z"/><path d="m-672 64h128z"/><path d="m-96-544h32v128h-32z"/><path d="m-544 32v32h-128v-32z"/><path d="m384-480v-128 64z"/><path d="m384-608h-128z"/><path d="m-736 544v128z"/><path d="m-608 672h-128z"/><path d="m-416 672h64z"/><path d="m-256 672h-96z"/><path d="m-416 672h-96-32z"/><path d="m-256 576v96z"/><path d="m-544 32v32z"/><path d="m-96-416h32z"/><path d="m-96-544h32z"/><path d="m-96-416v-128z"/><path d="m-672 32v32z"/><path d="m-672 32h128z"/><path d="m-64-288v-128 32z"/><path d="m-64 64v-192z"/><path d="m160-288h-224 128z"/><path d="m224-288h-64z"/><path d="m224-288h32z"/><path d="m416-288h96 32-64z"/><path d="m384-608v64z"/><path d="m696-368-152 80z"/><path d="m384-320 32 32-16-16z"/><path d="m544-288 152-80 8 48z"/><path d="m384-608h-128z"/><path d="m256-608h-96z"/><path d="m544-128v64 128z"/><path d="m704-216v56z"/><path d="m704-216v-16z"/><path d="m704-160v224-128z"/><path d="m416-128h-32z"/><path d="m256-256v-32z"/><path d="m512-160h-32z"/><path d="m480-160h-224z"/><path d="m512-160 32 32z"/><path d="m416-128v192z"/><path d="m704 128v96 128-64z"/><path d="m704 64v64z"/><path d="m384 672h32z"/><path d="m192 512h64-32z"/><path d="m416 224h128z"/><path d="m416 64v160z"/><path d="m160 384h-224 128z"/><path d="m256 384h-96z"/><path d="m160 512h32v160h-32z"/><path d="m160 512v160h-128-96v-160z"/><path d="m192 672v-160z"/><path d="m-256 64h192-144z"/><path d="m-432 64h16z"/><path d="m-736 64h64z"/><path d="m-128-544h32v128h-32z"/><path d="m-544 0v32h-128v-32z"/><path d="m-96-416v-128z"/><path d="m-672 32h128z"/><path d="m-736 64v32z"/><path d="m-736 448v96 128-128-32z"/><path d="m-736 224v96 128-160z"/><path d="m-256 672h-32z"/><path d="m-256 672h-32-64z"/><path d="m-416 288v224-64z"/><path d="m-416 224v64z"/><path d="m-416 64v160z"/><path d="m-256 192v-128 128 32z"/><path d="m-256 576v96z"/><path d="m-256 384v64z"/><path d="m-64 384h-192z"/><path d="m-416 224h160z"/><path d="m-416 224h-128z"/><path d="m-544 224v48z"/><path d="m-544 272v224-48-64z"/><path d="m-416 512h-16-112z"/><path d="m-544 496v16z"/><path d="m-128-544h64-32z"/><path d="m-672 0v32z"/><path d="m-128-416h32 32z"/><path d="m-128-416v-128z"/><path d="m-544 0v32z"/><path d="m-672 0h128z"/><path d="m-64-544v-32-32z"/><path d="m664-408 32 40-152 80z"/><path d="m-128-416v-128z"/><path d="m-160-544v128z"/><path d="m-160-544h32v128h-32z"/><path d="m-544 32v32z"/><path d="m-672 0h128z"/><path d="m-544-32h-128z"/><path d="m-544-32v32h-128v-32z"/><path d="m-160-544h64 32-64z"/><path d="m-672-32v32 32z"/><path d="m-160-416h32 64z"/><path d="m-160-544v128z"/><path d="m-544-32v64-32z"/><path d="m-544-32h-128z"/><path d="m-64-288v-128z"/><path d="m-64-576v32z"/><path d="m-64 64v-128-64z"/><path d="m664-408-120 120z"/><path d="m624-440 40 32-120 120z"/><path d="m-64-128h128z"/><path d="m-256 64h160 32z"/><path d="m-736 64h32 32z"/><path d="m-96-544h-64-32-128z"/><path d="m-672 32v32z"/><path d="m-320-512v192 32-64z"/><path d="m-160-416h-32v-128h32z"/><path d="m-320-512v-32h128v128 96h-128z"/><path d="m-192-320v32h-128v-32z"/><path d="m-320-288h128 96v224h-224z"/><path d="m-96-64v128h-160-64v-128z"/><path d="m-96-288h32v160 64h-32z"/><path d="m-64-64v128h-32v-128z"/><path d="m-416-192 96-96v224h-96z"/><path d="m-320-64v128h-96v-128z"/><path d="m-448-192h-96-128 192z"/><path d="m-544 32v-64-32z"/><path d="m-448-192h32v128h-128v-128z"/><path d="m-672-192h128v128 32h-128z"/><path d="m704-288v-32z"/><path d="m696-368-32-40z"/><path d="m624-440-80 152z"/><path d="m624-440 40 32z"/><path d="m576-448 48 8-80 152z"/><path d="m704-320-8-48z"/><path d="m704-288v56z"/><path d="m-64-576v32z"/><path d="m-64-576v-32z"/><path d="m576-448-32 160z"/><path d="m576-448 32 5.3333 16 2.6667z"/><path d="m576-448-32 160-32-160z"/><path d="m160-608h-224z"/><path d="m256-608h-96z"/><path d="m704 224v128z"/><path d="m704 224v-96-64z"/><path d="m32 672h128z"/><path d="m160 672h32 32 112z"/><path d="m256 512h-64-32z"/><path d="m464 464h32z"/><path d="m464 432h32z"/><path d="m464 432h32z"/><path d="m496 432h-32v32h32z"/><path d="m464 464h32v-32h-32z"/><path d="m464 432h32v32h-32z"/><path d="m464 464v-32z"/><path d="m496 464v-32z"/><path d="m464 464v-32z"/><path d="m256 512v-128z"/><path d="m-704 64h32z"/><path d="m-96-544h-224z"/><path d="m-64-544h-32z"/><path d="m-672-160v192 32z"/><path d="m-672-160v-32 160 64z"/><path d="m-320-544v32z"/><path d="m-64-288h-32-96z"/><path d="m-192-416h32 96z"/><path d="m-192-288v-32-96z"/><path d="m-416-64v128z"/><path d="m-320-288-96 96z"/><path d="m-416-192h-32z"/><path d="m-544-64h128z"/><path d="m-544 208v-128 56 16z"/><path d="m-544 80h16z"/><path d="m-528 80h-16v128h16z"/><path d="m544-288h-32z"/><path d="m512-448h64z"/><path d="m464-440 48-8 32 160z"/><path d="m512-448 32 160z"/><path d="m464 464h32z"/><path d="m496 464v-32z"/><path d="m464 432h32v32h-32z"/><path d="m-544 152v-16z"/><path d="m-544 208h16z"/><path d="m-528 152v-16-56 128z"/><path d="m-544 136h16z"/><path d="m-544 80h16v56h-16z"/><path d="m-528 152v56h-16v-56z"/></g><g id="c"><path d="m160-288h-224z"/><path d="m416-288h64 32z"/><path d="m384-544v128 96-160z"/><path d="m464-440 48-8z"/><path d="m424-408 40-32 80 152z"/><path d="m464-440 80 152z"/><path d="m384-320v32h32z"/><path d="m384-608h-128z"/><path d="m304-416h32 48v-128-64h-128v192z"/><path d="m384-320v-96h-48v128h48z"/><path d="m336-288v-128h-32v128z"/><path d="m160-416h-224v128h224z"/><path d="m224-288h32 48v-128h-48-96v128z"/><path d="m544-160v32 192z"/><path d="m544 64v-192z"/><path d="m704-160v224z"/><path d="m320-128h96-32z"/><path d="m256-160v-96z"/><path d="m480-160h-224z"/><path d="m480-288h-64-32-48-32-48v32 96h224z"/><path d="m512-160h32v-128h-32-32v128z"/><path d="m544-160h-32l32 32z"/><path d="m320 64h96v-192h-96z"/><path d="m704 64v160z"/><path d="m704 544-128 128z"/><path d="m384 672h-48z"/><path d="m544 224v-160z"/><path d="m544 416v-32z"/><path d="m704 384v-32-128h-160v160 32 32h160z"/><path d="m544 448v32 32 160h32l128-128v-96z"/><path d="m544 224h160z"/><path d="m416 512h32z"/><path d="m416 192h-80v32h80z"/><path d="m336 192h80v-128h-96v128z"/><path d="m416 224h-80v160h80 32 64 32v-160z"/><path d="m336 224v-32h-16v192h16z"/><path d="m416 224h128z"/><path d="m416 64v128 32z"/><path d="m416 416v64z"/><path d="m448 512v-32z"/><path d="m448 480v-64z"/><path d="m512 480v-64h-64v64 32h64z"/><path d="m544 448v-32h-32v64h32z"/><path d="m544 480h-32v32h32z"/><path d="m448 416h64z"/><path d="m448 384h-32v32z"/><path d="m384 512h32v-32-64-32h-80-16v128z"/><path d="m320 384h-64v128h64z"/><path d="m352 656v-128z"/><path d="m384 672h32 128v-160h-32-64-32-32l-32 16v128z"/><path d="m352 528 32-16z"/><path d="m-416 64h-16-112z"/><path d="m-64-416h-32-96z"/><path d="m-544 32v-96 128z"/><path d="m-736 64v32 128z"/><path d="m-512 672h-48-144-32 128 64z"/><path d="m-288 672h-128-96 96 64z"/><path d="m-416 224v64z"/><path d="m-256 448v64 160-96z"/><path d="m-288 672h32v-160h-160v160z"/><path d="m-256 384v-160h-160v64 160h160z"/><path d="m-416 448v64h160v-64z"/><path d="m-416 224h160z"/><path d="m-416 224v-160h-128v72 16 72z"/><path d="m-528 152v-16z"/><path d="m-544 152h16z"/><path d="m-720 496h160z"/><path d="m-736 512 16-16z"/><path d="m-416 512h-128z"/><path d="m-560 496v16h16z"/><path d="m-416 512h-128-16v32 96 32h48 96z"/><path d="m-560 512v-16h-160l-16 16v32h32 144z"/><path d="m-560 640h-144v32h144z"/><path d="m-736 544v128h32v-32-96z"/><path d="m-704 544v96-32-32z"/><path d="m-704 640h144z"/><path d="m-64-128v-160z"/><path d="m424-408 40-32z"/><path d="m392-368 32-40 120 120z"/><path d="m424-408 120 120z"/><path d="m64-128h224-128z"/><path d="m-64-128v4h128v-4z"/><path d="m544 224h160z"/><path d="m352 656v-128z"/><path d="m352 656 32 16z"/><path d="m352 528 32-16z"/><path d="m-256 64h-160 96z"/><path d="m-256 192v-128z"/><path d="m-256 192v32z"/><path d="m-256 192h4v-128h-4z"/><path d="m-64 512h-32z"/><path d="m-64 672h-32v-160h32z"/><path d="m-64-124v5h128v-5z"/><path d="m-252 192h5v-128h-5z"/><path d="m-64-576v32z"/><path d="m544-288-160-32z"/><path d="m392-368 32-40z"/><path d="m544-288-160-32 8-48z"/><path d="m392-368 152 80z"/><path d="m352 656v-128z"/><path d="m352 656 32 16z"/><path d="m352 528 32-16z"/><path d="m-704 64h-32z"/><path d="m-704 64h32z"/><path d="m-64-544h-32z"/><path d="m-672-160v224z"/><path d="m-672-192v32z"/><path d="m-320-512v-32 32 160z"/><path d="m-320-288v-64z"/><path d="m-416-192 96-96z"/><path d="m-480-192h32 32-32z"/><path d="m-480-192h-192z"/><path d="m-64-119v7h128v-7z"/><path d="m-247 192h7v-128h-7z"/><path d="m384-288h160z"/><path d="m384-320 8-48z"/><path d="m544-288h-160v-32z"/><path d="m544-160v224-192z"/><path d="m544-288v128z"/><path d="m288-128h-224 96z"/><path d="m288-128h32z"/><path d="m-64-112v9h128v-9z"/><path d="m544 64v160z"/><path d="m160 512h-224z"/><path d="m160 512h96z"/><path d="m352 656v-128z"/><path d="m352 656 32 16z"/><path d="m352 528 32-16z"/><path d="m-416 64h160z"/><path d="m-736 512v-224 160z"/><path d="m-64 672h-32z"/><path d="m-256 224v160z"/><path d="m-240 192h9v-128h-9z"/><path d="m-64 512h-32-32z"/><path d="m-128 512v160z"/><path d="m-128 512h32v160h-32z"/><path d="m-96 672v-160z"/><path d="m-720 496h160z"/><path d="m-736 512 16-16z"/><path d="m-560 544v32 32 32z"/><path d="m-544 512-16-16z"/><path d="m-704 544v32 32 32-32-32z"/><path d="m-704 640h144z"/><path d="m-704 544h144z"/><path d="m-560 608h-144z"/><path d="m-560 576h-144v32h144z"/><path d="m-64-103v11h128v-11z"/><path d="m-64-92v-11 7z"/><path d="m-64-92v13h128v-13z"/><path d="m-220 192h-11 7z"/><path d="m-220 192h13v-128h-13z"/><path d="m-220 64h-11v128h11z"/><path d="m64-79v15-32z"/><path d="m-64-79v15h128v-15z"/><path d="m-207 64h15-32z"/><path d="m-207 192h15v-128h-15z"/><path d="m-64-96v-7-9-7-5-4z"/><path d="m-64-103v-9z"/><path d="m-64-119v-5z"/><path d="m-64-608v32 32z"/><path d="m-64-124v-4z"/><path d="m-64-112v-7z"/><path d="m-64-288v160z"/><path d="m160-288h-224z"/><path d="m384-288v-32z"/><path d="m-64-608h224z"/><path d="m544-288v128z"/><path d="m320-128h-32z"/><path d="m160-128h-96-128v-160h224z"/><path d="m384-128h-64-32-128v-160h224z"/><path d="m544-288v128 32h-160v-160z"/><path d="m384 0v-16-112h160v192h-160z"/><path d="m320 64v-192z"/><path d="m64-96v4 13z"/><path d="m64-103v11-4z"/><path d="m64-119v7z"/><path d="m64-128v4z"/><path d="m64-124v5z"/><path d="m64-112v9z"/><path d="m192-64h-32v32h32z"/><path d="m160-32v-32h-96-128v32z"/><path d="m192-32h-32v96h32z"/><path d="m160 64v-96h-224v96z"/><path d="m336 672h-176z"/><path d="m-64 512h224z"/><path d="m320 64v128z"/><path d="m320 384v-192z"/><path d="m528 240v32h-128v-32z"/><path d="m384 400v-16-96l16-16h128l16 16v96 128h-160z"/><path d="m544 64v160l-16 16h-128l-16-16v-160z"/><path d="m384 64v160z"/><path d="m160 320h-224z"/><path d="m192 96v192 32-32z"/><path d="m192 64v32z"/><path d="m160 320v-32h-224v32z"/><path d="m192 288h-32v32h32z"/><path d="m160 288v-224h-224v224z"/><path d="m160 64v224h32v-192-32z"/><path d="m256 384h64z"/><path d="m-64 384h224z"/><path d="m256 384h-96z"/><path d="m384 512h160v96 16 16 16 16h-16-16-96-16-16l-32-16v-128z"/><path d="m352 656 32 16z"/><path d="m512 672h16v32h-16z"/><path d="m416 704v-32h96v32 16h-96z"/><path d="m512 720v16h-96v-16z"/><path d="m400 672h16v32h-16z"/><path d="m-224 64h4 13z"/><path d="m-231 64h11-4z"/><path d="m-247 64h7z"/><path d="m-256 64h4z"/><path d="m-252 64h5z"/><path d="m-240 64h9z"/><path d="m-704 64h32z"/><path d="m-64-64h-96v32h96z"/><path d="m-64-32h-96v96h96z"/><path d="m-160-64h-32v32h32z"/><path d="m-160-32h-32v96h32z"/><path d="m-192-32v-32 32 80 16z"/><path d="m-256 288v-96 32 160z"/><path d="m-64 320h-96-32 32z"/><path d="m-192 288v-96 16 80 32z"/><path d="m-160 64v224h96v-224z"/><path d="m-64 288h-96v32h96z"/><path d="m-192 64v128 96h32v-224z"/><path d="m-160 288h-32v32h32z"/><path d="m-240 192h-7z"/><path d="m-252 192h-4z"/><path d="m-247 192h-5z"/><path d="m-231 192h-9z"/><path d="m-224 192h-7-9-7-5-4z"/><path d="m-128 512v160h-112-16v-160z"/><path d="m-256 672h-160v-160h160z"/><path d="m-416 64h160v128 96h-160z"/><path d="m-256 288v96 128h-160v-224z"/><path d="m-560 544v32 32 32-32-32z"/><path d="m-560 496 16 16h-16z"/><path d="m-544 512-16-16z"/><path d="m-416 672h-48-96v-32-32-32-32-32h16 128z"/><path d="m-560 496v16h-144-32l16-16z"/><path d="m-704 512h144v32h-144z"/><path d="m-736 656v-128-16h32v32 32 32 32 32h-16-16z"/><path d="m-560 608h-144v-32h144z"/><path d="m-704 640h144v32h-128-16z"/><path d="m-704 544h144z"/><path d="m-560 576h-144z"/><path d="m-768 640v-96-16h32v128h-32z"/><path d="m-784 544h16v96h-16z"/><path d="m-800 544h16v96h-16z"/><path d="m-64-64v-32z"/><path d="m-64-64v-15-17z"/><path d="m-64-96v17-13z"/><path d="m64-128h-128z"/><path d="m64-96v-32 4 5 7 9z"/><path d="m-64-96v-32h128v32z"/><path d="m-224 64h-32 4 5 7 9z"/><path d="m-256 64v128z"/><path d="m-224 192h17-13z"/><path d="m-192 192h-15-17z"/><path d="m-192 192h-32z"/><path d="m-224 192h-32v-128h32z"/><path d="m-64-64v32z"/><path d="m336-288h48-224z"/><path d="m-64-288h224z"/><path d="m192-32v-32 32 96z"/><path d="m64-64v32h-128v-32-32h128z"/><path d="m-64-32h128 16 80v96h-224z"/><path d="m160-32v96z"/><path d="m64-64h16z"/><path d="m160-64h-80-16 96 32z"/><path d="m64-64v-32z"/><path d="m64-96h-128z"/><path d="m192 320h-32z"/><path d="m160 64v32h-128-64-32v-32z"/><path d="m32 96h128v64h-128z"/><path d="m-32 96h64v64h-64z"/><path d="m-64 96h32v64h-32z"/><path d="m-64 160h32 64 128v128h-224z"/><path d="m160 288h-224z"/><path d="m-192 64h-32z"/><path d="m-160 48v-80h80 16v96h-96z"/><path d="m-192-32v80z"/><path d="m-192 64v-16z"/><path d="m-80-64h-80-32 32 96z"/><path d="m-544-64v128z"/><path d="m-64 64v32 64 128h-96v-80-16-128z"/><path d="m-192 64h32v128h-32-32v-128z"/><path d="m-192 192h32z"/><path d="m-64 320h-96z"/><path d="m-256 512v-128z"/><path d="m-256 384h192z"/><path d="m-224 64v128z"/><path d="m-64 512h-64-128z"/><path d="m-544 64v160-72-16z"/><path d="m-544 272v224z"/><path d="m-544 512h80 48z"/><path d="m-544 496v16z"/><path d="m192-32v96z"/><path d="m336-288h48z"/><path d="m560-288h-176-48 208z"/><path d="m704-320v32z"/><path d="m608-442.6667-32-5.3333h-64l-48 8-40 32-32 40-8 48v32h176 48z"/><path d="m704-288v-32l-8-48-32-40-40-32-16-2.6667v154.6667z"/><path d="m664-408 32 40z"/><path d="m696-368 8 48z"/><path d="m704-288v128-56-16z"/><path d="m400 240h128z"/><path d="m400 240-16-16z"/><path d="m400 272v-32z"/><path d="m528 240v32z"/><path d="m528 240h-128v32h128z"/><path d="m528 272 16 16z"/><path d="m416 720v-16z"/><path d="m416 736v-16z"/><path d="m416 720v16h96v-16z"/><path d="m512 704h-96v16h96z"/><path d="m512 704h16-112z"/><path d="m512 704v16z"/><path d="m512 720v16z"/><path d="m528 704h-16z"/><path d="m512 720h-96z"/><path d="m416 720h96z"/><path d="m512 736h-96z"/><path d="m416 704h-16z"/><path d="m-768 640h-16z"/><path d="m-784 640h-16z"/><path d="m-768 528h32z"/><path d="m-800 544v96h16v-96z"/><path d="m-784 640h16v-96h-16z"/><path d="m-800 544h16z"/><path d="m-784 544h16z"/><path d="m-768 544v-16z"/><path d="m-784 544v96z"/><path d="m-784 640v-96z"/><path d="m-800 640v-96z"/></g><g id="d"><path d="m-64-608v64z"/><path d="m160-288h160 16z"/><path d="m704-288h-96-48z"/><path d="m704-288h-144-16z"/><path d="m160-416h-224z"/><path d="m256-416h-96z"/><path d="m256-416h-96z"/><path d="m256-416v-192z"/><path d="m256-608v192z"/><path d="m160-608h-224z"/><path d="m160-608h96z"/><path d="m544-160v32 192z"/><path d="m704-160v224z"/><path d="m704-288v128z"/><path d="m384-128h-64z"/><path d="m320-128v-64z"/><path d="m384-128h160v-32-128h-208-16v96 64z"/><path d="m160-192h-224z"/><path d="m160-288h-224v96h224z"/><path d="m320-192v-96h-160v96z"/><path d="m384-16v-112z"/><path d="m384 0v-16z"/><path d="m384 0v64z"/><path d="m544-128h-160v112 16 64h160z"/><path d="m160 672h-224 96z"/><path d="m400 672h-16-48 48z"/><path d="m544 672h-16z"/><path d="m336 672h48-224z"/><path d="m544 608v16z"/><path d="m544 640v16z"/><path d="m544 656v16z"/><path d="m544 624v16z"/><path d="m544 384v128 96-96z"/><path d="m544 288v96z"/><path d="m544 64v160z"/><path d="m544 224h160z"/><path d="m704 224h-160z"/><path d="m256 512h128-64z"/><path d="m160 512h-224z"/><path d="m400 272h128z"/><path d="m384 64v160l16 16h128l16-16v-160z"/><path d="m544 224-16 16z"/><path d="m384 400v-16z"/><path d="m384 512v-112z"/><path d="m384 384v-96z"/><path d="m544 384v-96l-16-16h-128l-16 16v96 16 112h160z"/><path d="m384 288 16-16z"/><path d="m160 320h-224z"/><path d="m320 192h-16 8z"/><path d="m320 192v-128h-16v128z"/><path d="m384 512v96h160v-96z"/><path d="m544 656v-16h-160v16z"/><path d="m544 640v-16h-160v16z"/><path d="m544 624v-16h-160v16z"/><path d="m400 672h128 16v-16h-160v16z"/><path d="m384 656v-16z"/><path d="m384 640v-16z"/><path d="m384 624v-16z"/><path d="m384 672v-16z"/><path d="m400 704v-32z"/><path d="m416 704h112v-32h-128v32z"/><path d="m528 672v32z"/><path d="m-672 64h-64z"/><path d="m-736 64h64-32z"/><path d="m-544-544-128 128z"/><path d="m-320-544h224z"/><path d="m-96-544h32z"/><path d="m-672-416v96z"/><path d="m-672-160v224z"/><path d="m-672-192v32z"/><path d="m-320-288v-32-96-96 160z"/><path d="m-320-512v-32z"/><path d="m-192-288h96 32z"/><path d="m-192-416h-128v96 32h128z"/><path d="m-192-416v128z"/><path d="m-96-192h-224z"/><path d="m-64-192h-32z"/><path d="m-96-288h-96-128v96h224z"/><path d="m-64-288h-32v96h32z"/><path d="m-320-16h16-8z"/><path d="m-320-16v32h16v-32z"/><path d="m-416-192h-32-96v32 96h128z"/><path d="m-320 16v-32h-96v32z"/><path d="m-320 16h-96v48h96z"/><path d="m-320-64v-64-64-96l-96 96v128z"/><path d="m-320-16v-48h-96v48z"/><path d="m-672-320v-96l128-128h96v224z"/><path d="m-448-192h-96-128v-128h224z"/><path d="m-320-544v32 96 96h-128v-224z"/><path d="m-320-320v32l-96 96h-32v-128z"/><path d="m-320-288-96 96z"/><path d="m-544-192v32z"/><path d="m-416 16v-32-48 128z"/><path d="m-672-192h128 96-32z"/><path d="m-448-192h32z"/><path d="m-416-64h-128z"/><path d="m-736 672v-16z"/><path d="m-736 528v-16z"/><path d="m-736 288v-224 160z"/><path d="m-736 288v224z"/><path d="m-720 672h-16z"/><path d="m-688 672h-32 16z"/><path d="m-464 672h-224 128z"/><path d="m-240 672h-16-160-48 48 160z"/><path d="m-128 672h-112z"/><path d="m-64 672h-64 32z"/><path d="m-416 512v-128-96z"/><path d="m-416 288v-16-32-96-32-48z"/><path d="m-320 384h64z"/><path d="m-160 320h96z"/><path d="m-160 320h-32z"/><path d="m-320 240h-96v32h96z"/><path d="m-320 272h-96v16 96h96z"/><path d="m-320 112h-96v32h96z"/><path d="m-320 144h-96v96h96z"/><path d="m-416 64v48h96v-48z"/><path d="m-320 64v48z"/><path d="m-320 240h16-8z"/><path d="m-320 112h16-8z"/><path d="m-320 112v32h16v-32z"/><path d="m-320 240v32h16v-32z"/><path d="m-416 384v128 64h64 32v-192z"/><path d="m-256 608v64l128-16v-128l-128-16z"/><path d="m-320 384v192 32h64v-96-128z"/><path d="m-352 576h-64v32h64z"/><path d="m-256 608h-64-32-64v64h160z"/><path d="m-320 576h-32v32h32z"/><path d="m-64 512h-192z"/><path d="m-256 384v128z"/><path d="m-256 512h192z"/><path d="m-464 512h-80-144v160h224z"/><path d="m-416 672v-64-32-64h-48v160z"/><path d="m-688 512h-32v160h32z"/><path d="m-720 512h-16v16 128 16h16z"/><path d="m-720 512h32z"/><path d="m-736 512h16z"/><path d="m-688 512h144z"/><path d="m-544 64v160z"/><path d="m-544 272v16 208z"/><path d="m-544 224v48z"/><path d="m-544 496v16z"/><path d="m-736 656h-32z"/><path d="m-736 528h-32v112 16h32z"/><path d="m-768 528v16 96z"/><path d="m-768 656v-16z"/><path d="m-402-274h32z"/><path d="m-402-242v-32z"/><path d="m-370-274h-32v32h32z"/><path d="m-402-274h32z"/><path d="m-402-242v-32z"/><path d="m-370-274h-32v32h32z"/><path d="m-370-242h-32v-32h32z"/><path d="m-402-274h32v32h-32z"/><path d="m-402-242h32z"/><path d="m-370-242v-32z"/><path d="m-402-242h32z"/><path d="m-370-242v-32z"/><path d="m160-128h-224z"/><path d="m320-192h-160z"/><path d="m160-192h-224v64h224z"/><path d="m320-128v-64h-160v64z"/><path d="m192-64v32z"/><path d="m160-64h32z"/><path d="m64-32h16z"/><path d="m80-32h80z"/><path d="m64-64h16-144z"/><path d="m80-64h80z"/><path d="m64-64v32z"/><path d="m-64-64v32h128v-32z"/><path d="m192 320h-32z"/><path d="m192 288v32z"/><path d="m352 656v-128z"/><path d="m384 656v-16-16-16-96l-32 16v128l32 16z"/><path d="m384 672-32-16z"/><path d="m384 512v96z"/><path d="m-192 64h32z"/><path d="m-544-544-128 128z"/><path d="m-544-544h96z"/><path d="m-672-416v96z"/><path d="m-320-128v-64z"/><path d="m-320-16v-112 64z"/><path d="m-96-128h-224z"/><path d="m-64-128h-32z"/><path d="m-96-192h-224v64h224z"/><path d="m-64-192h-32v64h32z"/><path d="m-192-32v-32z"/><path d="m-192 48v16z"/><path d="m-192-64h32z"/><path d="m-64-64h-16z"/><path d="m-160-64h80z"/><path d="m-160 64v-16z"/><path d="m-416-192h-128 96z"/><path d="m-320-288-96 96z"/><path d="m-192 320v-32z"/><path d="m-192 288v-80z"/><path d="m-192 192v16z"/><path d="m-160 64v128z"/><path d="m-160 64h-32v128h32z"/><path d="m-192 320h32z"/><path d="m-128 528v128z"/><path d="m160 64v-96h-80-144v96z"/><path d="m80-64h80-224z"/><path d="m80-32h-16-128z"/><path d="m160 64v224-128-64z"/><path d="m304 192v-128h-10v128z"/><path d="m160 288v-224h-224v224z"/><path d="m-192 48v-80 16 32 48z"/><path d="m-80-32h16z"/><path d="m-160-32h80z"/><path d="m-160-64h-32z"/><path d="m-64-32h-16-80v80 16h96z"/><path d="m-160-32v80z"/><path d="m-160 48v16z"/><path d="m-304-16v32h10v-32z"/><path d="m-192 288v32z"/><path d="m-192 64v128z"/><path d="m-64 288h-96z"/><path d="m-160 208v-16z"/><path d="m-160 288v-80z"/><path d="m-160 64v128 16 80h96v-224z"/><path d="m-304 112v32h10v-32z"/><path d="m-304 240v32h10v-32z"/><path d="m312 64h-8 16z"/><path d="m312 192h-8-10 8z"/><path d="m-312-16h8 10-8z"/><path d="m-312 16h8-16z"/><path d="m-312 240h8 10-8z"/><path d="m-312 144h8-16z"/><path d="m-312 112h8 10-8z"/><path d="m-312 272h8-16z"/><path d="m-544-544-128 128z"/><path d="m-544-544h96z"/><path d="m-672-416v96z"/><path d="m294 192v-128h-14v128z"/><path d="m-294-16v32h14v-32z"/><path d="m-294 112v32h14v-32z"/><path d="m-294 240v32h14v-32z"/><path d="m302 64h-8 10 8z"/><path d="m302 192h-8-14 8z"/><path d="m-302-16h8 14-8z"/><path d="m-302 16h8-10-8z"/><path d="m-302 240h8 14-8z"/><path d="m-302 144h8-10-8z"/><path d="m-302 112h8 14-8z"/><path d="m-302 272h8-10-8z"/><path d="m160-32v96z"/><path d="m160-32v96h-224v-96z"/><path d="m320 192h-8z"/><path d="m160 64v224h-224v-224z"/><path d="m160 288h-224z"/><path d="m352 528v128z"/><path d="m352 528 32-16z"/><path d="m-64-32h-96z"/><path d="m-160 64v-96h96v96z"/><path d="m-320-16h8z"/><path d="m-64 288h-96v-224h96z"/><path d="m-160 64v224z"/><path d="m-320 240h8z"/><path d="m-320 112h8z"/><path d="m312 64h8z"/><path d="m312 192h-10-14-18-22-26-30 128z"/><path d="m312 192h-10z"/><path d="m-312-16h10 14 18 22 26 30-128z"/><path d="m-312-16h10z"/><path d="m-312 16h-8z"/><path d="m-312 240h10z"/><path d="m-312 240h10 14 18 3.3333 44.6667 30-128z"/><path d="m-312 144h-8z"/><path d="m-312 112h10z"/><path d="m-312 112h10 14 18 3.3333 44.6667 30-128z"/><path d="m-312 272h-8z"/><path d="m280 192h-18 8 18z"/><path d="m280 64h-18v128h18z"/><path d="m-280-16h18-8-18z"/><path d="m-280-16v32h18v-32z"/><path d="m-280 240h18-8-18z"/><path d="m-280 112h18-8-18z"/><path d="m-280 112v32h18v-32z"/><path d="m-280 240v32h18v-32z"/><path d="m302 64h10z"/><path d="m302 192h-14z"/><path d="m-302-16h14z"/><path d="m-302 16h-10z"/><path d="m-302 240h14z"/><path d="m-302 144h-10z"/><path d="m-302 112h14z"/><path d="m-302 272h-10z"/><path d="m-64-544v-64z"/><path d="m320 64h-128 30 26 22 18 14 10z"/><path d="m288 64h-8 14 8z"/><path d="m288 64h-18-8 18z"/><path d="m544-288h160z"/><path d="m-64-416h224z"/><path d="m256-416h-96z"/><path d="m256-608v192z"/><path d="m-64-608h224z"/><path d="m256-608h-96z"/><path d="m544 64v-224z"/><path d="m544-288v128z"/><path d="m704 64v-224z"/><path d="m704-288v128z"/><path d="m-64-128h224z"/><path d="m320-128h-160z"/><path d="m320 64v-192z"/><path d="m704 224v-160z"/><path d="m-64 672h224z"/><path d="m384 672h-224z"/><path d="m544 224v-160z"/><path d="m704 224h-160z"/><path d="m-64 512h224z"/><path d="m384 512h-128-96z"/><path d="m320 384v-192z"/><path d="m256 384h64z"/><path d="m-64 384h224z"/><path d="m256 384h-96z"/><path d="m384 512-32 16z"/><path d="m352 656 32 16z"/><path d="m-736 64h64z"/><path d="m-544-544h96z"/><path d="m-320-544h-128z"/><path d="m-96-544h-224z"/><path d="m-64-544h-32z"/><path d="m-672-320v128z"/><path d="m-672 64v-224z"/><path d="m-672-192v32z"/><path d="m-320-288v-32-96z"/><path d="m-320 16v48z"/><path d="m-320-416h128 96z"/><path d="m-96-416h32z"/><path d="m-320-128h224z"/><path d="m-96-128h32z"/><path d="m-288 16h8-14-8z"/><path d="m-288 16h18 8-18z"/><path d="m-448-544h-96l-128 128h128 96z"/><path d="m-320-416v-128h-128v128z"/><path d="m-370-274h-32v32h32z"/><path d="m-402-242h32v-32h-32z"/><path d="m-402-274h32v32h-32z"/><path d="m-320-288-96 96z"/><path d="m-402-242v-32z"/><path d="m-402-274h32z"/><path d="m-402-274h32z"/><path d="m-402-242v-32z"/><path d="m-402-242h32z"/><path d="m-370-242v-32z"/><path d="m-544-416h-128v96 128h128z"/><path d="m-544 64v-128-96z"/><path d="m-544-192v32z"/><path d="m-736 512v-224z"/><path d="m-736 64v224z"/><path d="m-256 672h16 112 64z"/><path d="m-128 656-128 16z"/><path d="m-256 384h192z"/><path d="m-256 384h-64z"/><path d="m-320 384v-112z"/><path d="m-320 160v-16 96z"/><path d="m-320 160v80 32 112z"/><path d="m-320 64v48 32 16z"/><path d="m-288 144h8-14-8z"/><path d="m-288 144h18 8-18z"/><path d="m-288 272h18 8-18z"/><path d="m-288 272h8-14-8z"/><path d="m-256 512h192z"/><path d="m-128 656v-128z"/><path d="m-256 512 128 16z"/><path d="m-688 512h-32z"/><path d="m-720 512h-16z"/><path d="m-544 512h-144z"/><path d="m-544 512v-16-208z"/><path d="m-544 288v-16-48-160z"/><path d="m262 192h-22 8 22z"/><path d="m262 64h-22v128h22z"/><path d="m-262-16h22-8-22z"/><path d="m-262-16v32h22v-32z"/><path d="m-262 240h22-8-22z"/><path d="m-262 112h22-8-22z"/><path d="m-262 112v32h22v-32z"/><path d="m-262 240v32h22v-32z"/><path d="m288 64h14z"/><path d="m288 192h-18z"/><path d="m-288-16h18z"/><path d="m-288 16h-14z"/><path d="m-288 240h18z"/><path d="m-288 144h-14z"/><path d="m-288 112h18z"/><path d="m-288 272h-14z"/><path d="m270 64h-22-8 22z"/><path d="m-270 16h22 8-22z"/><path d="m-270 144h22 8-22z"/><path d="m-270 272h22 8-22z"/><path d="m-120 592v4h16v-4z"/><path d="m-104 592v-4h-16v4z"/><path d="m240 64h-26v128h26z"/><path d="m-240-16h26-8-26z"/><path d="m-240-16v32h26v-32z"/><path d="m-402-242h32z"/><path d="m-370-242v-32z"/><path d="m-402-274h32v32h-32z"/><path d="m-240 112v32h26v-32z"/><path d="m-240 240v32h26v-32z"/><path d="m270 64h18z"/><path d="m-270 16h-18z"/><path d="m-270 240h22-18.6667z"/><path d="m-270 144h-18z"/><path d="m-270 112h22-18.6667z"/><path d="m-270 272h-18z"/><path d="m214 64h-22v128h22z"/><path d="m-214-16h22-30z"/><path d="m-214-16v32h22v-32z"/><path d="m-214 112v32h22v-32z"/><path d="m-214 240v32h22v-32z"/><path d="m248 64h-26-8 26z"/><path d="m192 64v-96z"/><path d="m192 192v-128 32 192z"/><path d="m248 192h22z"/><path d="m192 192h30-8z"/><path d="m-192 16v48z"/><path d="m-248 16h26 8-26z"/><path d="m-192 64v48 32 96 32 16-80-16z"/><path d="m-192 288v-16z"/><path d="m-266.6667 240h18.6667 26z"/><path d="m-192 240h-30 8z"/><path d="m-248 144h-22 3.3333z"/><path d="m-248 144h-18.6667 44.6667z"/><path d="m-248 144h26 8-26z"/><path d="m-266.6667 112h18.6667 26z"/><path d="m-192 112h-30 8z"/><path d="m-248 272h26 8-26z"/><path d="m222 64h-30 22z"/><path d="m222 192h26-8-26z"/><path d="m-222 16h30-22z"/><path d="m-222 240h-26 8 26z"/><path d="m-222 144h30-22z"/><path d="m-222 112h-26 8 26z"/><path d="m-222 272h30-22z"/><path d="m-120 596v-4-4-2 2 8 2z"/><path d="m-104 588v-2h-16v2z"/><path d="m-120 596v2h16v-2z"/><path d="m-320-416v-128z"/><path d="m-192-16h-30z"/><path d="m-320-416h-128-96z"/><path d="m-544-416v224z"/><path d="m-320-288v-128h-224v224h128z"/><path d="m248 64h22z"/><path d="m248 192h-26z"/><path d="m-248-16h-22z"/><path d="m-248 16h-22z"/><path d="m-248 16h26z"/><path d="m-248 272h-22z"/><path d="m-120 598v-2 8 6z"/><path d="m-104 598h-16v12h16z"/><path d="m-120 574v6 8-2z"/><path d="m-104 574h-16v12h16z"/><path d="m222 64h26z"/><path d="m222 192h-30z"/><path d="m-222-16h-26z"/><path d="m-222 16h30z"/><path d="m-222 240h30z"/><path d="m-222 112h30z"/><path d="m-222 272h-26z"/><path d="m-104 566v6-6-8z"/><path d="m-104 596v-8-2 2 4 4 2z"/><path d="m-104 596v2 12-6z"/><path d="m-104 618v-6-8 6z"/><path d="m-120 618v-6 6 8z"/><path d="m-120 596v-8z"/><path d="m-120 566v6 8-6z"/><path d="m-120 588h16z"/><path d="m-104 566h-16v8h16z"/><path d="m-120 596h16v8h-16z"/><path d="m-120 618h16v-8h-16z"/><path d="m-104 580v-6 12 2z"/><path d="m-104 580h-16v-8h16z"/><path d="m-120 580h16v8h-16z"/><path d="m-104 572v-6 8 6z"/><path d="m-120 612v6-8-6z"/><path d="m-104 572h-16v-6h16z"/><path d="m-120 612h16v6h-16z"/><path d="m-104 612h-16v-8h16z"/><path d="m-104 596v-8z"/><path d="m-104 626v-8-6 6z"/><path d="m-120 596v-8-4 12 4z"/><path d="m-120 558v8 6-6z"/><path d="m-120 596h16z"/><path d="m-104 558h-16v8h16z"/><path d="m-120 626h16v-8h-16z"/><path d="m-120 618v1.3333 2.6667 5.2-1.2z"/><path d="m-104 584h-16z"/><path d="m-104 584h-16v4h16z"/><path d="m-120 600h16v-4h-16z"/><path d="m-104 596v-12 4 8 4z"/><path d="m-104 622v-2.6667-1.3333 8 1.2z"/><path d="m-120 562v2.6667 1.3333-8-1.2z"/><path d="m-120 619.3333v2.6667z"/><path d="m-120 627.2v.8h16v-.8-1.2h-16z"/><path d="m-120 564.6667v-2.6667h16v4h-16z"/><path d="m-120 584h16v12h-16z"/><path d="m-120 600h16z"/><path d="m-104 596v4h-16v-4z"/><path d="m-104 619.3333v2.6667h-16v-2.6667-1.3333h16z"/><path d="m192 64h30z"/><path d="m-192 240v-96z"/><path d="m-192 144h-30z"/><path d="m-192 272h-30z"/><path d="m-104 556v6z"/><path d="m-104 556h-16v.8 1.2h16z"/><path d="m-104 562v-6 2 8z"/><path d="m-104 622v-2.6667z"/><path d="m-120 622v4 2-.8z"/><path d="m-120 562v2.6667z"/><path d="m-104 562h-16z"/><path d="m-120 622h16z"/><path d="m-104 556h-16z"/><path d="m-120 628h16z"/><path d="m-120 622v-2z"/><path d="m-120 562v-5.2-.8 2z"/><path d="m-104 562h-16v2h16z"/><path d="m-120 622h16v-2h-16z"/><path d="m192-32v-32z"/><path d="m192 64v128z"/><path d="m192 192v96z"/><path d="m192 192v-128h128v128z"/><path d="m-192-32v16z"/><path d="m-192 16v-32-16 96z"/><path d="m-192 16h-30-26-22-18-14-10-8z"/><path d="m-192-16v32h-128v-32z"/><path d="m-192 64v48z"/><path d="m-192 144h-30-44.6667-3.3333-18-14-10-8z"/><path d="m-192 112v32h-128v-32z"/><path d="m-192 272h-30-26-22-18-14-10-8z"/><path d="m-192 240v32h-128v-32z"/><path d="m-104 558v6 2 4-6z"/><path d="m-104 558v-2 6 2z"/><path d="m-104 622v-2z"/><path d="m-104 626v-4 5.2.8z"/><path d="m-104 558h-16v-2h16z"/><path d="m-120 562v2z"/><path d="m-120 562v-4 6 6-4-2z"/><path d="m-120 620h16v-2h-16z"/><path d="m-120 558h16v6h-16z"/><path d="m-104 564h-16v2h16z"/><path d="m-120 626h16v2h-16z"/><path d="m-104 618v2 2-2-6z"/><path d="m-120 622v-2h16v2 4h-16z"/><path d="m-120 620v2-2-2-4z"/><path d="m-104 614v6h-16v-6z"/><path d="m-120 570v-6h16v6z"/><path d="m-104 570v-4h-16v4z"/><path d="m-120 614v4h16v-4z"/><path d="m192-32v96z"/><path d="m160-32h-224z"/><path d="m160-64h-224z"/><path d="m160 64v-96h-224v96z"/><path d="m160 320h32z"/><path d="m160 320h-224z"/><path d="m160 64v224z"/><path d="m192 64v128 96z"/><path d="m160 288v-224h-224v224z"/><path d="m-192-32v96z"/><path d="m-64-64h-96 80z"/><path d="m-64-32h-96v96h96z"/><path d="m-160-32v96z"/><path d="m-192 64v224-16-32-96-32z"/><path d="m-160 64v224h96v-224z"/><path d="m-64 320h-96-32z"/><path d="m-64 288h-96z"/></g><g id="e"><path d="m192-32v96z"/><path d="m160-32v96h-224v-96z"/><path d="m160-32h-224v-32h224z"/><path d="m192-64v32h-32v-32z"/><path d="m160-32h32v96h-32z"/><path d="m192-64h-32z"/><path d="m160 320h-224z"/><path d="m192 64v224h-32v-224z"/><path d="m192 288v32h-32v-32z"/><path d="m192 320v-32z"/><path d="m160 288v32h-224v-32z"/><path d="m160 64v224h-224v-224z"/><path d="m-192-32v-32h32v32 96h-32z"/><path d="m-160 64v-96h96v96z"/><path d="m-64-32h-96v-32h96z"/><path d="m-192-64v32z"/><path d="m-64-64h-96z"/><path d="m-192 64v224z"/><path d="m-64 288h-96v-224h96z"/><path d="m-64 320h-128v-32h32 96z"/><path d="m-160 64v224h-32v-224z"/><path d="m-128 528-128-16z"/><path d="m160-416h-224z"/><path d="m256-608h-96z"/><path d="m544-288v128z"/><path d="m704-160v224z"/><path d="m320-128h-160z"/><path d="m320-128v192z"/><path d="m704 64v160z"/><path d="m160 672h-224z"/><path d="m384 512h-224z"/><path d="m320 192v192z"/><path d="m320 64v128z"/><path d="m320 384h-64z"/><path d="m160 384h-224z"/><path d="m384 672-32-16v-128l32-16z"/><path d="m-320-544h224z"/><path d="m-96-544h32z"/><path d="m-672-192v32z"/><path d="m-320-128v112 32 48z"/><path d="m-96-416h-224z"/><path d="m-64-416h-32z"/><path d="m-672-192h128z"/><path d="m-544-160v224z"/><path d="m-736 64v224z"/><path d="m-64 672h-192z"/><path d="m-256 672 128-16z"/><path d="m-64 384h-192z"/><path d="m-256 512 128 16v128l-128 16z"/><path d="m-544 288v224z"/><path d="m-544 64v224z"/></g></defs><g stroke="#000"><use fill="none" stroke-miterlimit="0" stroke-width="10" xlink:href="#a"/><use fill="#c2c2c2" xlink:href="#a"/><use fill="none" stroke-miterlimit="0" stroke-width="10" xlink:href="#b"/><use fill="#d1d1d1" xlink:href="#b"/><use fill="none" stroke-miterlimit="0" stroke-width="10" xlink:href="#c"/><use fill="#e0e0e0" xlink:href="#c"/><use fill="none" stroke-miterlimit="0" stroke-width="10" xlink:href="#d"/><use fill="#f0f0f0" xlink:href="#d"/><use fill="none" stroke-miterlimit="0" stroke-width="10" xlink:href="#e"/><use fill="#fff" xlink:href="#e"/></g></svg>