<?xml version="1.0" encoding="utf-8" ?>
<svg baseProfile="tiny" height="100%" version="1.2" viewBox="-630.0 -950.0 1420.0 1836.0" width="100%" xmlns="http://www.w3.org/2000/svg" xmlns:ev="http://www.w3.org/2001/xml-events" xmlns:xlink="http://www.w3.org/1999/xlink"><defs><g id="bsp_ref"><polygon points="-416,704 -416,704 -512,704 -512,704" /><polygon points="256,704 512,704 512,704 -96,704 -96,704" /><polygon points="384,-832 144,-832 -96,-832 -480,-832 -512,-832 -512,-832 384,-832" /><polygon points="-512,-192 -512,-64 -512,336 -512,544 -512,672 -512,704 -512,704 -512,-192" /><polygon points="-480,672 -480,544 -416,544 -416,672" /><polygon points="-96,672 -416,672 -416,544 -96,544" /><polygon points="-96,544 -416,544 -480,544 -512,544 -512,336 -96,336" /><polygon points="-512,544 -480,544 -480,672 -512,672" /><polygon points="-416,-64 -96,-64 66,-64 66,192 66,336 -96,336 -512,336 -512,-64" /><polygon points="-480,672 -416,672 -96,672 256,672 256,704 -96,704 -416,704 -512,704 -512,672" /><polygon points="66,336 256,336 256,672 -96,672 -96,544 -96,336" /><polygon points="256,672 256,336 512,336 512,704 256,704" /><polygon points="144,-64 320,-64 320,192 66,192 66,-64" /><polygon points="320,192 512,192 512,336 256,336 66,336 66,192" /><polygon points="-288,-384 -224,-384 -96,-384 -96,-64 -416,-64 -416,-384" /><polygon points="-512,-192 -512,-832 -480,-832 -416,-768 -416,-608 -416,-544 -416,-384 -416,-64 -512,-64" /><polygon points="-96,-832 -96,-768 -224,-768 -288,-768 -416,-768 -480,-832" /><polygon points="-96,-384 -96,-544 -96,-608 -96,-768 -96,-832 144,-832 144,-320 144,-64 66,-64 -96,-64" /><polygon points="320,-320 320,-256 320,-64 144,-64 144,-320" /><polygon points="144,-832 384,-832 512,-832 512,-320 320,-320 144,-320" /><polygon points="512,-832 512,-832 512,-320 512,-320" /><polygon points="512,336 512,192 512,192 512,704 512,704" /><polygon points="512,-320 512,-320 512,-320 416,-320 320,-320 320,-320" /><polygon points="-96,-608 -96,-544 -96,-544 -96,-608" /><polygon points="-224,-384 -288,-384 -288,-384 -224,-384" /><polygon points="-288,-384 -416,-384 -416,-384 -288,-384" /><polygon points="-224,-768 -96,-768 -96,-768 -224,-768" /><polygon points="-288,-768 -224,-768 -224,-768 -288,-768" /><polygon points="-416,-544 -416,-544 -416,-384 -416,-384" /><polygon points="-416,-768 -416,-768 -416,-608 -416,-608" /><polygon points="320,-320 320,-320 320,-256 320,-256" /><polygon points="-416,768 -416,704 -96,704 -96,768" /><polygon points="-96,704 -96,704 -96,768 -96,768" /><polygon points="367,-584 390,-584 390,-600 367,-600 350,-600 350,-584" /><polygon points="280,-687 280,-710 264,-710 264,-687 264,-670 280,-670" /><polygon points="177,-600 154,-600 154,-584 177,-584 194,-584 194,-600" /><polygon points="264,-497 264,-474 280,-474 280,-497 280,-514 264,-514" /><polygon points="480,-433 416,-433 416,-321 480,-321" /><polygon points="280,-710 280,-687 280,-664" /><polygon points="280,-670 264,-670 264,-656 280,-656" /><polygon points="390,-584 367,-584 344,-584" /><polygon points="264,-474 264,-497 264,-520" /><polygon points="280,-474 264,-474 264,-520 280,-520" /><polygon points="154,-600 177,-600 200,-600" /><polygon points="194,-600 194,-584 208,-584 208,-600" /><polygon points="154,-584 154,-600 200,-600 200,-584" /><polygon points="412,332 412,308 388,308 388,332" /><polygon points="300,308 276,308 276,332 300,332" /><polygon points="300,420 276,420 276,444 300,444" /><polygon points="412,420 388,420 388,444 412,444" /><polygon points="412,308 416,304 384,304 388,308" /><polygon points="108,-220 84,-220 84,-196 108,-196" /><polygon points="-68,-220 -92,-220 -92,-196 -68,-196" /><polygon points="108,276 84,276 84,300 108,300" /><polygon points="-68,276 -92,276 -92,300 -68,300" /><polygon points="232,628 208,628 208,652 232,652" /><polygon points="232,508 208,508 208,532 232,532" /><polygon points="112,508 88,508 88,532 112,532" /><polygon points="112,628 88,628 88,652 112,652" /><polygon points="-142,-212 -157,-212 -157,-196 -142,-196" /><polygon points="-142,-108 -157,-108 -157,-92 -142,-92" /><polygon points="-207,-212 -222,-212 -222,-196 -207,-196" /><polygon points="-207,-108 -222,-108 -222,-92 -207,-92" /><polygon points="-157,-196 -157,-184 -142,-184 -142,-196" /><polygon points="-142,-212 -142,-224 -157,-224 -157,-212" /><polygon points="-142,-108 -142,-120 -157,-120 -157,-108" /><polygon points="-157,-92 -157,-80 -142,-80 -142,-92" /><polygon points="-222,-196 -222,-184 -207,-184 -207,-196" /><polygon points="-207,-212 -207,-224 -222,-224 -222,-212" /><polygon points="-207,-108 -207,-120 -222,-120 -222,-108" /><polygon points="-308,-188 -308,-164 -284,-164 -284,-188" /><polygon points="-404,-164 -404,-188 -428,-188 -428,-164" /><polygon points="-428,196 -428,220 -404,220 -404,196" /><polygon points="-308,196 -308,220 -284,220 -284,196" /><polygon points="-404,-188 -400,-192 -432,-192 -428,-188" /><polygon points="264,-656 264,-670 264,-687 264,-664 264,-641 264,-641" /><polygon points="280,-656 264,-656 264,-641 280,-641" /><polygon points="336,-600 350,-600 367,-600 344,-600 321,-600 321,-600" /><polygon points="336,-600 336,-584 350,-584 350,-600" /><polygon points="336,-584 336,-600 321,-600 321,-584" /><polygon points="280,-528 280,-514 280,-497 280,-520 280,-543 280,-543" /><polygon points="280,-528 264,-528 264,-514 280,-514" /><polygon points="264,-528 280,-528 280,-543 264,-543" /><polygon points="208,-584 194,-584 177,-584 200,-584 223,-584 223,-584" /><polygon points="208,-600 208,-584 223,-584 223,-600" /><polygon points="-184,-760 -408,-760 -408,-760 -288,-760 -184,-760" /><polygon points="-104,-392 -104,-392 -184,-392 -184,-392" /><polygon points="-408,-616 -408,-536 -408,-392 -408,-392 -408,-536 -408,-616" /><polygon points="-104,-760 -104,-760 -104,-616 -104,-616" /><polygon points="-408,-536 -408,-616 -408,-760 -184,-760 -184,-536" /><polygon points="-184,-392 -408,-392 -408,-536 -184,-536" /><polygon points="-104,-760 -104,-616 -104,-536 -184,-536 -184,-760" /><polygon points="-104,-536 -104,-392 -184,-392 -184,-536" /><polygon points="-120,-488 -136,-488 -136,-472 -120,-472" /><polygon points="-120,-696 -136,-696 -136,-648 -120,-648" /><polygon points="-157,-120 -142,-120 -142,-120 -157,-120" /><polygon points="-142,-184 -157,-184 -157,-184 -142,-184" /><polygon points="-157,-224 -142,-224 -142,-224 -157,-224" /><polygon points="-142,-224 -142,-212 -142,-196 -142,-184 -142,-184 -142,-196 -142,-212 -142,-224" /><polygon points="-142,-80 -157,-80 -157,-80 -142,-80" /><polygon points="-142,-120 -142,-108 -142,-92 -142,-80 -142,-80 -142,-92 -142,-108 -142,-120" /><polygon points="-222,-120 -207,-120 -207,-120 -222,-120" /><polygon points="-207,-184 -222,-184 -222,-184 -207,-184" /><polygon points="-222,-224 -207,-224 -207,-224 -222,-224" /><polygon points="-207,-224 -207,-212 -207,-196 -207,-184 -207,-184 -207,-196 -207,-212 -207,-224" /><polygon points="-207,-80 -222,-80 -222,-80 -207,-80" /><polygon points="-207,-120 -207,-108 -207,-92 -207,-80 -207,-80 -207,-92 -207,-108 -207,-120" /><polygon points="-207,-80 -207,-92 -222,-92 -222,-80" /><polygon points="244,-592 252,-572 272,-564 292,-572 300,-592 292,-612 272,-620 252,-612" /><polygon points="-158,-176 -158,-224 -158,-240 -206,-240 -206,-64 -158,-64" /><polygon points="280,-664 280,-687 280,-670 280,-656 280,-641 280,-641" /><polygon points="264,-664 264,-687 264,-710" /><polygon points="264,-664 280,-664 280,-641 264,-641" /><polygon points="280,-664 264,-664 264,-710 280,-710" /><polygon points="224,-616 224,-616 224,-568 224,-568" /><polygon points="240,-632 248,-640 248,-640 240,-632 224,-616 224,-616" /><polygon points="344,-584 367,-584 350,-584 336,-584 321,-584 321,-584" /><polygon points="344,-600 367,-600 390,-600" /><polygon points="344,-600 344,-584 321,-584 321,-600" /><polygon points="344,-584 344,-600 390,-600 390,-584" /><polygon points="256,-624 248,-640 240,-632 240,-624" /><polygon points="296,-640 248,-640 256,-624 288,-624 304,-624 312,-624" /><polygon points="320,-616 312,-624 304,-624 304,-608 304,-576 304,-560 312,-560 320,-568" /><polygon points="304,-576 288,-560 304,-560" /><polygon points="304,-624 288,-624 304,-608" /><polygon points="304,-560 304,-552 312,-560" /><polygon points="296,-544 304,-552 304,-560 288,-560 256,-560 272,-544" /><polygon points="256,-624 240,-624 240,-608" /><polygon points="256,-560 240,-576 240,-560" /><polygon points="256,-560 240,-560 240,-552 248,-544 272,-544" /><polygon points="240,-560 240,-576 240,-608 240,-624 240,-632 224,-616 224,-568 240,-552" /><polygon points="280,-520 280,-497 280,-474" /><polygon points="264,-520 264,-497 264,-514 264,-528 264,-543 264,-543" /><polygon points="280,-520 264,-520 264,-543 280,-543" /><polygon points="200,-584 177,-584 154,-584" /><polygon points="200,-600 177,-600 194,-600 208,-600 223,-600 223,-600" /><polygon points="200,-584 200,-600 223,-600 223,-584" /><polygon points="-120,-504 -136,-504 -136,-488 -120,-488" /><polygon points="-136,-472 -136,-456 -120,-456 -120,-472" /><polygon points="-136,-504 -136,-480 -136,-456" /><polygon points="-120,-504 -120,-480 -136,-480 -136,-504" /><polygon points="-136,-456 -136,-480 -120,-480 -120,-456" /><polygon points="-136,-488 -136,-488 -120,-488 -120,-488" /><polygon points="-120,-472 -120,-472 -136,-472 -136,-472" /><polygon points="-136,-472 -136,-472 -136,-488 -136,-488" /><polygon points="-120,-488 -120,-488 -120,-472 -120,-472" /><polygon points="-142,-184 -157,-184 -157,-196 -142,-196" /><polygon points="-157,-224 -142,-224 -142,-212 -157,-212" /><polygon points="-157,-120 -142,-120 -142,-108 -157,-108" /><polygon points="-142,-80 -157,-80 -157,-92 -142,-92" /><polygon points="-207,-184 -222,-184 -222,-196 -207,-196" /><polygon points="-222,-224 -207,-224 -207,-212 -222,-212" /><polygon points="-222,-120 -207,-120 -207,-108 -222,-108" /><polygon points="-512,704 -416,704 -416,704 -512,704" /><polygon points="512,704 512,704 -96,704 -96,704" /><polygon points="512,-832 512,-832 384,-832 384,-832" /><polygon points="384,-832 -512,-832 -512,-832 384,-832" /><polygon points="-512,-832 -512,-832 -512,-192 -512,-192" /><polygon points="-512,-192 -512,704 -512,704 -512,-192" /><polygon points="512,192 512,192 512,192 512,192 512,704 512,704" /><polygon points="-176,-32 -176,-36 -224,-48 -224,-44" /><polygon points="-416,768 -416,704 -416,704 -416,768" /><polygon points="-96,768 -96,768 -416,768 -416,768 -416,768 -96,768" /><polygon points="416,-465 416,-433 480,-433 480,-465" /><polygon points="-206,-240 -206,-240 -158,-240 -158,-240" /><polygon points="-158,-64 -158,-64 -206,-64 -206,-64" /><polygon points="-206,-232 -206,-232 -206,-224 -206,-176 -206,-176" /><polygon points="-206,-232 -206,-176 -206,-64 -206,-64 -206,-240 -206,-240" /><polygon points="-158,-176 -158,-176 -158,-64 -158,-64" /><polygon points="-158,-176 -158,-176 -158,-224 -158,-224 -158,-224 -158,-176" /><polygon points="-158,-232 -158,-240 -158,-240 -158,-224 -158,-224" /><polygon points="-206,-176 -158,-176 -158,-64 -206,-64" /><polygon points="-206,-232 -206,-240 -158,-240 -158,-232" /><polygon points="-158,-232 -158,-232 -206,-232 -206,-232" /><polygon points="-162,-124 -194,-132 -202,-100 -170,-92" /><polygon points="-194,-132 -194,-132 -202,-100 -202,-100" /><polygon points="-142,-196 -157,-196 -157,-212 -142,-212" /><polygon points="-157,-196 -157,-184 -157,-184 -157,-196 -157,-212 -157,-224 -157,-224 -157,-212" /><polygon points="-142,-92 -157,-92 -157,-108 -142,-108" /><polygon points="-157,-92 -157,-80 -157,-80 -157,-92 -157,-108 -157,-120 -157,-120 -157,-108" /><polygon points="-207,-196 -222,-196 -222,-212 -207,-212" /><polygon points="-222,-196 -222,-184 -222,-184 -222,-196 -222,-212 -222,-224 -222,-224 -222,-212" /><polygon points="-207,-92 -222,-92 -222,-108 -207,-108" /><polygon points="-222,-92 -222,-80 -222,-80 -222,-92 -222,-108 -222,-120 -222,-120 -222,-108" /><polygon points="-207,-92 -207,-80 -222,-80 -222,-92" /><polygon points="264,-641 280,-641 280,-641 264,-641" /><polygon points="280,-543 264,-543 264,-543 280,-543" /><polygon points="321,-600 321,-584 321,-584 321,-600" /><polygon points="223,-584 223,-600 223,-600 223,-584" /><polygon points="248,-640 248,-640 296,-640 296,-640" /><polygon points="320,-616 320,-616 320,-568 320,-568" /><polygon points="272,-544 296,-544 296,-544 272,-544 248,-544 248,-544" /><polygon points="240,-552 248,-544 248,-544 240,-552 224,-568 224,-568" /><polygon points="240,-608 240,-608 240,-576 240,-576" /><polygon points="312,-560 320,-568 320,-568 312,-560 304,-552 296,-544 296,-544" /><polygon points="312,-624 296,-640 296,-640 312,-624 320,-616 320,-616" /><polygon points="240,-576 240,-576 256,-560 256,-560" /><polygon points="288,-624 288,-624 256,-624 256,-624" /><polygon points="288,-624 256,-624 248,-640 296,-640" /><polygon points="240,-632 248,-640 256,-624 240,-624" /><polygon points="304,-624 288,-624 296,-640 312,-624" /><polygon points="256,-560 256,-560 288,-560 288,-560" /><polygon points="304,-576 304,-576 304,-608 304,-608" /><polygon points="304,-576 320,-568 312,-560 304,-560" /><polygon points="304,-576 304,-608 320,-616 320,-568" /><polygon points="320,-616 304,-608 304,-624 312,-624" /><polygon points="288,-560 304,-576 304,-560" /><polygon points="288,-560 288,-560 304,-576 304,-576" /><polygon points="304,-608 304,-608 288,-624 288,-624" /><polygon points="304,-608 288,-624 304,-624" /><polygon points="296,-544 272,-544 256,-560 288,-560" /><polygon points="288,-560 304,-560 312,-560 296,-544" /><polygon points="256,-624 240,-608 240,-624" /><polygon points="256,-624 256,-624 240,-608 240,-608" /><polygon points="272,-544 248,-544 256,-560" /><polygon points="240,-576 256,-560 248,-544 240,-552" /><polygon points="224,-616 240,-632 240,-624 240,-608 240,-576 240,-552 224,-568" /><polygon points="-206,-232 -158,-232 -158,-224 -206,-224" /><polygon points="-170,-92 -202,-100 -194,-132 -162,-124" /><polygon points="-170,-92 -170,-92 -202,-100 -202,-100" /><polygon points="-194,-132 -194,-132 -162,-124 -162,-124" /><polygon points="-162,-124 -162,-124 -170,-92 -170,-92" /><polygon points="236,656 204,656 204,624 236,624" /><polygon points="236,536 204,536 204,504 236,504" /><polygon points="116,536 84,536 84,504 116,504" /><polygon points="116,656 84,656 84,624 116,624" /><polygon points="204,504 208,508 232,508 236,504" /><polygon points="84,504 88,508 112,508 116,504" /><polygon points="236,656 232,652 208,652 204,656" /><polygon points="116,656 112,652 88,652 84,656" /><polygon points="236,536 232,532 208,532 204,536" /><polygon points="116,536 112,532 88,532 84,536" /><polygon points="116,504 112,508 112,532 116,536" /><polygon points="204,536 208,532 208,508 204,504" /><polygon points="236,504 232,508 232,532 236,536" /><polygon points="84,536 88,532 88,508 84,504" /><polygon points="204,624 208,628 232,628 236,624" /><polygon points="84,624 88,628 112,628 116,624" /><polygon points="204,656 208,652 208,628 204,624" /><polygon points="236,624 232,628 232,652 236,656" /><polygon points="116,624 112,628 112,652 116,656" /><polygon points="84,656 88,652 88,628 84,624" /><polygon points="-312,-160 -312,-192 -280,-192 -280,-160" /><polygon points="-400,-192 -400,-160 -432,-160 -432,-192" /><polygon points="-432,224 -432,192 -400,192 -400,224" /><polygon points="-312,224 -312,192 -280,192 -280,224" /><polygon points="-432,-160 -428,-164 -428,-188 -432,-192" /><polygon points="-432,224 -428,220 -428,196 -432,192" /><polygon points="-280,192 -284,196 -284,220 -280,224" /><polygon points="-280,-192 -284,-188 -284,-164 -280,-160" /><polygon points="-400,192 -404,196 -404,220 -400,224" /><polygon points="-400,-192 -404,-188 -404,-164 -400,-160" /><polygon points="-312,-160 -308,-164 -308,-188 -312,-192" /><polygon points="-312,224 -308,220 -308,196 -312,192" /><polygon points="-280,-160 -284,-164 -308,-164 -312,-160" /><polygon points="-312,-192 -308,-188 -284,-188 -280,-192" /><polygon points="-312,192 -308,196 -284,196 -280,192" /><polygon points="-280,224 -284,220 -308,220 -312,224" /><polygon points="-432,192 -428,196 -404,196 -400,192" /><polygon points="-400,-160 -404,-164 -428,-164 -432,-160" /><polygon points="-400,224 -404,220 -428,220 -432,224" /><polygon points="240,496 80,496 80,656 240,656" /><polygon points="80,656 80,496 66,496 52,496 52,670" /><polygon points="-272,-196 -432,-196 -432,228 -272,228" /><polygon points="-432,-196 -446,-224 -448,-216 -448,-196 -448,228 -448,248 -446,256 -432,228" /><polygon points="-272,-196 -272,-212 -272,-224 -446,-224 -432,-196" /><polygon points="-158,-176 -206,-176 -206,-224 -158,-224" /><polygon points="-158,-224 -158,-232 -158,-232 -158,-224" /><polygon points="-206,-176 -158,-176 -158,-176 -206,-176" /><polygon points="-120,-480 -120,-504 -120,-456" /><polygon points="-120,-648 -136,-648 -136,-696 -120,-696" /><polygon points="-120,-648 -120,-648 -136,-648 -136,-648" /><polygon points="-136,-696 -136,-696 -120,-696 -120,-696" /><polygon points="-120,-696 -120,-696 -120,-648 -120,-648" /><polygon points="-136,-648 -136,-648 -136,-696 -136,-696" /><polygon points="-132,-212 -132,-208 -180,-220 -180,-224" /><polygon points="-132,-212 -180,-224 -224,-48 -176,-36" /><polygon points="-180,-224 -180,-220 -224,-44 -224,-48" /><polygon points="416,-321 416,-433 416,-465 416,-353" /><polygon points="66,496 80,496 240,496 256,496 224,496 96,496 66,496" /><polygon points="66,496 66,496 66,496 60,496 52,496" /><polygon points="-180,-220 -132,-208 -176,-32 -224,-44" /><polygon points="-132,-208 -132,-212 -176,-36 -176,-32" /><polygon points="112,-192 80,-192 80,-224 112,-224" /><polygon points="-64,-192 -96,-192 -96,-224 -64,-224" /><polygon points="112,304 80,304 80,272 112,272" /><polygon points="-64,304 -96,304 -96,272 -64,272" /><polygon points="-64,-192 -68,-196 -92,-196 -96,-192" /><polygon points="112,-192 108,-196 84,-196 80,-192" /><polygon points="-96,-192 -92,-196 -92,-220 -96,-224" /><polygon points="-96,-224 -92,-220 -68,-220 -64,-224" /><polygon points="80,-224 84,-220 108,-220 112,-224" /><polygon points="-64,-224 -68,-220 -68,-196 -64,-192" /><polygon points="112,-224 108,-220 108,-196 112,-192" /><polygon points="80,-192 84,-196 84,-220 80,-224" /><polygon points="-96,272 -92,276 -68,276 -64,272" /><polygon points="80,272 84,276 108,276 112,272" /><polygon points="112,272 108,276 108,300 112,304" /><polygon points="112,304 108,300 84,300 80,304" /><polygon points="-64,304 -68,300 -92,300 -96,304" /><polygon points="80,304 84,300 84,276 80,272" /><polygon points="-96,304 -92,300 -92,276 -96,272" /><polygon points="-64,272 -68,276 -68,300 -64,304" /><polygon points="672,-224 672,-224 672,-224 672,96 672,96" /><polygon points="512,-224 672,-224 672,96 512,96" /><polygon points="-128,-256 -128,-256 -128,-112 -128,-112" /><polygon points="144,-112 144,192 144,336 144,336 144,192 144,-112" /><polygon points="400,192 512,192 512,192 512,192 320,192 320,192" /><polygon points="400,160 400,192 320,192 320,-64 400,-64" /><polygon points="480,160 512,160 512,192 400,192 400,160" /><polygon points="400,-64 416,-64 480,-64 480,96 480,160 400,160" /><polygon points="400,-64 320,-64 320,-256 320,-320 416,-320 416,-288 416,-64" /><polygon points="416,-288 480,-288 480,-64 416,-64" /><polygon points="480,-288 416,-288 416,-320 512,-320 512,-288" /><polygon points="480,-64 480,-288 480,-288 480,-224 480,96 480,96" /><polygon points="320,-256 320,-64 320,192 320,192 320,-64 320,-256" /><polygon points="144,-256 144,-256 -128,-256 -128,-256" /><polygon points="144,-112 144,-256 -128,-256 -128,-112 -128,192 144,192" /><polygon points="-128,192 -128,336 144,336 144,192" /><polygon points="256,496 268,496 260,496 240,496 224,496" /><polygon points="66,496 96,496 80,496 66,496" /><polygon points="96,632 96,496 224,496 224,632" /><polygon points="224,632 224,496 240,496 240,640" /><polygon points="-272,212 -272,-180 -272,-212 -272,-196 -272,228 -272,244" /><polygon points="-272,244 -272,256 -272,248 -272,228 -272,212" /><polygon points="-408,-180 -272,-180 -272,212 -408,212" /><polygon points="-408,212 -272,212 -272,228 -416,228" /><polygon points="456,128 456,140 456,144 456,140 456,128 456,117 456,112 456,117" /><polygon points="416,79 400,79 400,140.8182 416,140.8182" /><polygon points="400,79 400,71 400,92.75 400,140 400,140.8182" /><polygon points="456,128 456,117 336,117 336,128" /><polygon points="656,-32 656,-9 656,0 656,-9 656,-32 656,-55 656,-64 656,-55" /><polygon points="656,-32 536,-32 536,-9 656,-9" /><polygon points="592,-156 560,-156 560,-12 592,-12" /><polygon points="560,-156 544,-164 544,-20 560,-12" /><polygon points="456,140 456,128 336,128 336,140" /><polygon points="456,117 456,112 336,112 336,117" /><polygon points="374.5938,63.75 370,48 362,48 366.5938,63.75" /><polygon points="366.5938,63.75 362,48 361,44 375.2188,92.75" /><polygon points="361,44 362,48 370,48 369,44" /><polygon points="656,-9 536,-9 536,0 656,0" /><polygon points="656,-55 536,-55 536,-32 656,-32" /><polygon points="536,-55 656,-55 656,-64 536,-64" /><polygon points="400,71 416,71 416,92.75 400,92.75" /><polygon points="416,71 416,79 416,140.8182 416,140 416,92.75" /><polygon points="400,71 400,79 416,79 416,71" /><polygon points="292,-572 272,-564 252,-572 244,-592 252,-612 272,-620 292,-612 300,-592" /><polygon points="252,-612 244,-592 244,-592 252,-612" /><polygon points="272,-620 252,-612 252,-612 272,-620" /><polygon points="244,-592 252,-572 252,-572 244,-592" /><polygon points="252,-572 272,-564 272,-564 252,-572" /><polygon points="292,-572 300,-592 300,-592 292,-572" /><polygon points="292,-612 272,-620 272,-620 292,-612" /><polygon points="272,-564 292,-572 292,-572 272,-564" /><polygon points="300,-592 292,-612 292,-612 300,-592" /><polygon points="323.7647,-762.6851 272,-784 136,-728 99.7647,-640 224,-640 248,-640 323.7647,-640" /><polygon points="416,-640 444.2353,-640 408,-728 323.7647,-762.6851 323.7647,-640" /><polygon points="416,-475.4286 464,-592 444.2353,-640 416,-640" /><polygon points="272,-400 408,-456 416,-475.4286 416,-640 323.7647,-640 248,-640 224,-616 224,-419.7647" /><polygon points="248,-640 224,-640 224,-616" /><polygon points="224,-616 224,-640 99.7647,-640 80,-592 136,-456 224,-419.7647" /><polygon points="-104,-536 -104,-616 -104,-760 -184,-760 -288,-760 -288,-608 -288,-536" /><polygon points="-288,-392 -184,-392 -104,-392 -104,-536 -288,-536" /><polygon points="-288,-760 -288,-768 -288,-608 -288,-608" /><polygon points="-408,-392 -288,-392 -288,-384 -416,-384" /><polygon points="-408,-392 -328,-392 -328,-536 -408,-536" /><polygon points="-104,-760 -104,-760 -184,-760 -184,-760" /><polygon points="-184,-392 -288,-392 -408,-392 -408,-392 -184,-392" /><polygon points="-408,-760 -408,-760 -408,-616 -408,-616" /><polygon points="-104,-616 -104,-536 -104,-392 -104,-392 -104,-536 -104,-616" /><polygon points="-128,-112 -128,192 -128,336 -128,336 -128,192 -128,-112" /><polygon points="144,-256 144,-256 144,-112 144,-112" /><polygon points="144,336 144,336 -128,336 -128,336" /><polygon points="-128,-112 -128,-256 144,-256 144,-112 144,192 -128,192" /><polygon points="144,192 144,336 -128,336 -128,192" /><polygon points="480,-353 480,-465 480,-433 480,-321" /><polygon points="480,-353 416,-353 416,-465 480,-465" /><polygon points="416,-353 480,-353 480,-321 416,-321" /><polygon points="456,144 456,140 336,140 336,144" /><polygon points="456,112 456,117 336,117 336,112" /><polygon points="66,230 -30,230 -30,326 66,326" /><polygon points="66,326 66,326 66,230 66,230" /><polygon points="66,230 66,230 64,230 -28,230 -30,230 -30,230" /><polygon points="544,-164 544,-176 544,-32 544,-20" /><polygon points="544,-164 560,-156 592,-156 608,-164 608,-176 592,-184 560,-184 544,-176" /><polygon points="608,-164 592,-156 592,-12 608,-20" /><polygon points="64,232 64,232 64,286 64,318 64,324 64,324" /><polygon points="64,324 64,324 64,324 -28,324 -28,324" /><polygon points="-28,232 -28,232 64,232 64,232 64,232" /><polygon points="-28,232 64,232 64,324 -28,324" /><polygon points="64,232 64,232 64,286 64,286 64,286" /><polygon points="64,318 64,286 32,286 32,318" /><polygon points="64,286 64,286 32,286 32,286" /><polygon points="32,286 32,286 32,318 32,318" /><polygon points="-96,-544 -96,-544 -96,-384 -96,-384" /><polygon points="-96,-768 -96,-768 -96,-608 -96,-608" /><polygon points="-96,-384 -96,-384 -224,-384 -224,-384" /><polygon points="-416,-768 -416,-768 -288,-768 -288,-768" /><polygon points="-416,-608 -416,-544 -416,-544 -416,-608" /><polygon points="-288,-608 -288,-544 -288,-384 -288,-392 -288,-536 -288,-608" /><polygon points="-96,-544 -224,-544 -224,-608 -96,-608" /><polygon points="-96,-608 -224,-608 -224,-768 -96,-768" /><polygon points="-224,-544 -96,-544 -96,-384 -224,-384" /><polygon points="-288,-608 -288,-768 -224,-768 -224,-608 -224,-544 -288,-544" /><polygon points="-224,-544 -224,-384 -288,-384 -288,-544" /><polygon points="-288,-768 -288,-760 -408,-760 -416,-768" /><polygon points="-416,-768 -408,-760 -328,-760 -336,-768" /><polygon points="-416,-544 -336,-544 -336,-384 -416,-384" /><polygon points="-416,-768 -336,-768 -336,-608 -416,-608" /><polygon points="336,140 336,144 336,140 336,128 336,117 336,112 336,117 336,128" /><polygon points="456,140 456,144 336,144 336,140" /><polygon points="456,117 456,128 336,128 336,117" /><polygon points="416,92.75 416,135 400,135 400,92.75" /><polygon points="383.2188,92.75 397,140 389,140 375.2188,92.75 361,44 369,44" /><polygon points="383.2188,92.75 369,44 370,48 374.5938,63.75" /><polygon points="390.3438,117.75 374.5938,63.75 366.5938,63.75 382.3438,117.75" /><polygon points="512,-224 512,-224 512,96 512,96" /><polygon points="672,-224 672,-224 512,-224 512,-224" /><polygon points="480,96 480,96 480,128 480,160 480,160 480,96" /><polygon points="480,-224 480,-224 512,-224 512,-224" /><polygon points="480,-224 512,-224 512,96 480,96" /><polygon points="64,318 64,318 64,324 64,324 64,318" /><polygon points="64,318 32,318 32,286 64,286" /><polygon points="32,318 64,318 64,318 32,318" /><polygon points="456,128 456,140 336,140 336,128" /><polygon points="-30,326 -30,326 -30,230 -30,230" /><polygon points="-28,326 64,326 66,326 66,326 -30,326 -30,326" /><polygon points="64,286 64,318 64,318 64,286" /><polygon points="64,324 64,318 64,286 64,232 64,230 66,230 66,326 64,326" /><polygon points="-28,232 -28,232 -28,324 -28,324" /><polygon points="-28,230 64,230 64,232 -28,232" /><polygon points="64,324 64,326 -28,326 -28,324" /><polygon points="-30,230 -28,230 -28,232 -28,324 -28,326 -30,326" /><polygon points="656,0 536,0 536,-9 656,-9" /><polygon points="536,-64 656,-64 656,-55 536,-55" /><polygon points="30,286 32,286 60,286 58,286" /><polygon points="30,318 32,318 32,286 30,286" /><polygon points="390,144 398,144 390.3438,117.75 382.3438,117.75" /><polygon points="398,144 397.2045,140.8179 390.3438,117.75" /><polygon points="544,-176 560,-184 560,-40 544,-32" /><polygon points="608,-176 608,-164 608,-20 608,-32" /><polygon points="60,286 32,286 32,318 60,318" /><polygon points="416,140.8182 416,143 416,142.3478 416,140" /><polygon points="400,140.8182 400,143 416,143 416,140.8182" /><polygon points="389.2045,140.818 390,144 382.3438,117.75" /><polygon points="397.2045,140.8179 397,140 383.2188,92.75 374.5938,63.75 390.3438,117.75" /><polygon points="268,670 268,496 256,496 240,496 240,656" /><polygon points="-272,-224 -272,-216 -448,-216 -446,-224" /><polygon points="-446,256 -272,256 -272,244 -272,228 -432,228" /><polygon points="400,140 400,92.75 400,135 400,142.3478" /><polygon points="416,140 416,142.3478 416,135 416,92.75" /><polygon points="397,140 397.2045,140.8179 398,144 390,144 389.2045,140.818 389,140" /><polygon points="389,140 389.2045,140.818 382.3438,117.75 366.5938,63.75 375.2188,92.75" /><polygon points="400,140 400,142.3478 400,143 400,140.8182" /><polygon points="58,318 60,318 32,318 30,318" /><polygon points="58,286 60,286 60,318 58,318" /><polygon points="58,286 58,318 30,318 30,286" /><polygon points="536,-9 536,0 536,-9 536,-32 536,-55 536,-64 536,-55 536,-32" /><polygon points="656,-9 536,-9 536,-32 656,-32" /><polygon points="560,-184 592,-184 592,-40 560,-40" /><polygon points="592,-184 608,-176 608,-32 592,-40" /><polygon points="416,135 416,142.3478 416,143 400,143 400,142.3478 400,135" /><polygon points="416,304 416,336 384,336 384,304" /><polygon points="304,336 272,336 272,304 304,304" /><polygon points="304,448 272,448 272,416 304,416" /><polygon points="416,448 384,448 384,416 416,416" /><polygon points="272,304 276,308 300,308 304,304" /><polygon points="416,448 412,444 388,444 384,448" /><polygon points="304,448 300,444 276,444 272,448" /><polygon points="416,336 412,332 388,332 384,336" /><polygon points="304,336 300,332 276,332 272,336" /><polygon points="304,304 300,308 300,332 304,336" /><polygon points="384,336 388,332 388,308 384,304" /><polygon points="416,336 416,304 412,308 412,332" /><polygon points="272,336 276,332 276,308 272,304" /><polygon points="272,416 276,420 300,420 304,416" /><polygon points="384,416 388,420 412,420 416,416" /><polygon points="384,448 388,444 388,420 384,416" /><polygon points="416,416 412,420 412,444 416,448" /><polygon points="304,416 300,420 300,444 304,448" /><polygon points="272,448 276,444 276,420 272,416" /><polygon points="149.1609,-714.8391 136,-728 272,-784 272,-765.4194" /><polygon points="272,-765.4194 272,-784 323.7647,-762.6851 408,-728 394.8387,-714.8387" /><polygon points="394.8387,-714.8387 408,-728 444.2353,-640 464,-592 445.4193,-592" /><polygon points="149.1613,-469.1613 136,-456 80,-592 98.5807,-592" /><polygon points="98.5807,-592 80,-592 99.7647,-640 136,-728 149.1609,-714.8391" /><polygon points="416,-520.553 416,-592 445.4193,-592 464,-592 416,-475.4286" /><polygon points="272,-418.5806 272,-400 224,-419.7647 224,-438.3454" /><polygon points="416,-520.553 416,-475.4286 408,-456 394.8387,-469.1613" /><polygon points="394.8387,-469.1613 408,-456 272,-400 272,-418.5806" /><polygon points="224,-438.3454 224,-419.7647 136,-456 149.1613,-469.1613 162.5807,-482.5807 224,-457.2903" /><polygon points="256,288 256,288 256,464 256,464" /><polygon points="432,288 432,288 256,288 256,288" /><polygon points="432,288 256,288 256,464 432,464" /><polygon points="80,672 240,672 260,672 268,670 240,656 80,656 52,670 60,672" /><polygon points="80,640 80,496 96,496 96,632" /><polygon points="260,496 260,672 240,672 240,640 240,496" /><polygon points="260,496 268,496 268,670 260,672" /><polygon points="240,672 224,688 224,656 240,640" /><polygon points="240,640 224,656 96,656 80,640 96,632 224,632" /><polygon points="80,640 96,656 96,688 80,672" /><polygon points="66,496 80,496 80,640 80,672 60,672 60,496" /><polygon points="60,672 52,670 52,496 60,496" /><polygon points="-272,-216 -272,-224 -272,-212 -272,-180 -272,-196" /><polygon points="-448,-196 -464,-180 -464,212 -448,228" /><polygon points="-416,-196 -272,-196 -272,-180 -408,-180" /><polygon points="-416,-196 -448,-196 -448,-216 -272,-216 -272,-196" /><polygon points="-448,228 -464,212 -432,212 -416,228" /><polygon points="-416,-196 -432,-180 -464,-180 -448,-196" /><polygon points="-272,248 -448,248 -448,228 -416,228 -272,228" /><polygon points="-272,248 -272,256 -446,256 -448,248" /><polygon points="656,-32 536,-32 536,-55 656,-55" /><polygon points="432,464 432,464 256,464 256,464" /><polygon points="432,288 432,288 432,464 432,464" /><polygon points="256,288 432,288 432,464 256,464" /><polygon points="336,360 328,368 328,384 336,392 352,392 360,384 360,368 352,360" /><polygon points="-328,-608 -328,-536 -328,-392 -336,-384 -336,-544 -336,-608" /><polygon points="-328,-536 -328,-608 -328,-760 -408,-760 -408,-616 -408,-536" /><polygon points="-336,-384 -328,-392 -408,-392 -416,-384" /><polygon points="-336,-768 -328,-760 -328,-608 -336,-608" /><polygon points="-336,-608 -336,-544 -416,-544 -416,-608" /><polygon points="162.5807,-482.5807 210.5806,-530.5807 224,-544 224,-525.055 224,-457.2903" /><polygon points="544,-32 560,-40 592,-40 608,-32 608,-20 592,-12 560,-12 544,-20" /><polygon points="-144,736 -144,752 -133,752 -133,736" /><polygon points="-133,752 -144,752 -155,752 -160,752 -155,752 -144,752 -133,752 -128,752" /><polygon points="-155,752 -155,736 -160,736 -160,752" /><polygon points="-133,736 -133,752 -128,752 -128,736" /><polygon points="-155,736 -155,752 -144,752 -144,736" /><polygon points="447,-296 447,-304 416,-304 416,-296" /><polygon points="447,-296 416,-296 416,-200 447,-200" /><polygon points="416,-296 416,-304 416,-276 416,-212 416,-200" /><polygon points="-144,767 -150,767 -152,767 -150,767 -144,767 -139,767 -136,767 -139,767" /><polygon points="-144,753 -144,767 -139,767 -139,753" /><polygon points="-150,767 -150,753 -152,753 -152,767" /><polygon points="-139,753 -139,767 -136,767 -136,753" /><polygon points="-150,753 -150,767 -144,767 -144,753" /><polygon points="366,386 354,398 334,398 322,386 322,366 334,354 354,354 366,366" /><polygon points="334,354 336,360 352,360 354,354" /><polygon points="322,366 328,368 336,360 334,354" /><polygon points="354,354 352,360 360,368 366,366" /><polygon points="322,386 328,384 328,368 322,366" /><polygon points="366,366 360,368 360,384 366,386" /><polygon points="334,398 336,392 328,384 322,386" /><polygon points="366,386 360,384 352,392 354,398" /><polygon points="354,398 352,392 336,392 334,398" /><polygon points="-160,752 -160,736 -155,736 -155,752" /><polygon points="-128,736 -128,752 -133,752 -133,736" /><polygon points="-152,767 -152,753 -150,753 -150,767" /><polygon points="-136,753 -136,767 -139,767 -139,753" /><polygon points="346,374 342,374 342,378 346,378" /><polygon points="-150,767 -150,753 -144,753 -144,767" /><polygon points="-144,753 -150,753 -152,753 -150,753 -144,753 -139,753 -136,753 -139,753" /><polygon points="-144,767 -144,753 -139,753 -139,767" /><polygon points="-155,752 -155,736 -144,736 -144,752" /><polygon points="416,-200 416,-212 447,-212 447,-200" /><polygon points="-144,736 -155,736 -160,736 -155,736 -144,736 -133,736 -128,736 -133,736" /><polygon points="-144,752 -144,736 -133,736 -133,752" /><polygon points="447,-304 447,-296 447,-200 447,-212 447,-276" /><polygon points="416,-304 447,-304 447,-276 416,-276" /><polygon points="360,416 356,404 372,388 384,392" /><polygon points="360,336 356,348 332,348 328,336" /><polygon points="328,416 332,404 356,404 360,416" /><polygon points="328,336 332,348 316,364 304,360" /><polygon points="304,392 316,388 332,404 328,416" /><polygon points="304,360 316,364 316,388 304,392" /><polygon points="384,392 378,390 378,398" /><polygon points="384,360 378,362 378,390 384,392" /><polygon points="378,362 384,360 378,354" /><polygon points="360,336 358,342 378,362 378,354" /><polygon points="358,342 360,336 352,336" /><polygon points="378,390 366,386 354,398 358,410" /><polygon points="360,416 358,410 352,416" /><polygon points="378,390 358,410 360,416 378,398" /><polygon points="330,342 328,336 322,342" /><polygon points="328,336 330,342 358,342 352,336" /><polygon points="358,410 354,398 334,398 330,410" /><polygon points="330,410 310,390 304,392 322,410" /><polygon points="304,392 310,390 310,362 304,360" /><polygon points="304,360 310,362 330,342 322,342" /><polygon points="310,362 322,366 334,354 330,342" /><polygon points="310,390 322,386 322,366 310,362" /><polygon points="328,416 330,410 322,410" /><polygon points="358,410 330,410 328,416 352,416" /><polygon points="96,688 96,656 224,656 224,688" /><polygon points="224,688 240,672 80,672 96,688" /><polygon points="-464,-180 -432,-180 -432,212 -464,212" /><polygon points="-432,-180 -416,-196 -408,-180 -408,212 -416,228 -432,212" /><polygon points="342,378 342,378 342,374 342,374" /><polygon points="346,378 342,378 342,374 346,374" /><polygon points="342,374 342,374 346,374 346,374" /><polygon points="346,378 346,378 342,378 342,378" /><polygon points="346,374 346,374 346,378 346,378" /><polygon points="372,364 366,366 354,354 356,348" /><polygon points="366,386 366,366 372,364 372,388" /><polygon points="354,398 366,386 372,388 356,404" /><polygon points="334,398 354,398 356,404 332,404" /><polygon points="322,386 334,398 332,404 316,388" /><polygon points="322,366 322,386 316,388 316,364" /><polygon points="334,354 322,366 316,364 332,348" /><polygon points="354,354 334,354 332,348 356,348" /><polygon points="372,364 384,360 384,392 372,388" /><polygon points="356,348 360,336 384,360 372,364" /><polygon points="366,386 378,390 378,362 366,366" /><polygon points="366,366 378,362 358,342 354,354" /><polygon points="354,354 358,342 330,342 334,354" /><polygon points="322,386 310,390 330,410 334,398" /><polygon points="512,-320 512,-288 512,-288 512,-320" /><polygon points="512,160 512,192 512,192 512,160" /><polygon points="672,96 512,96 512,96 512,96 672,96" /><polygon points="512,-224 672,-224 672,-224 512,-224" /><polygon points="672,-224 512,-224 512,96 672,96" /><polygon points="480,-288 480,-224 480,-224 480,-288" /><polygon points="512,96 480,96 480,96 512,96" /><polygon points="512,-320 480,-320 480,-288 512,-288" /><polygon points="512,-288 480,-288 480,-288 480,-288 512,-288" /><polygon points="512,-224 480,-224 480,96 512,96" /><polygon points="480,160 480,192 512,192 512,160" /><polygon points="480,160 512,160 512,160 480,160" /><polygon points="480,96 480,-224 480,-288 480,-320 456,-320 456,128 480,128" /><polygon points="456,128 456,184 456,192 480,192 480,160 480,128" /><polygon points="456,-320 448,-320 448,-256 448,128 456,128" /><polygon points="448,128 448,184 456,184 456,128" /><polygon points="448,-320 448,-320 448,-256 448,-256" /><polygon points="448,184 448,192 456,192 456,184" /><polygon points="448,192 448,192 496,192 512,192 512,192 480,192 456,192 448,192" /><polygon points="448,192 448,192 448,184" /><polygon points="512,-832 512,-832 384,-832 384,-832" /><polygon points="-512,-320 -512,-832 -512,-832 -512,-192 -512,-192" /><polygon points="512,-832 512,-320 512,-320 512,-320 512,-320 512,-832" /><polygon points="384,-832 -512,-832 -496,-816 384,-816" /><polygon points="512,704 496,688 -80,688 -96,704" /><polygon points="512,192 496,192 496,688 512,704" /><polygon points="-512,-192 -512,704 -496,688 -496,576 -496,-192" /><polygon points="-512,-320 -512,-192 -496,-192 -496,-320" /><polygon points="-96,704 -96,704 -96,704 -96,768 -96,768 -96,704" /><polygon points="210.5804,-653.4196 149.1609,-714.8391 272,-765.4194 272,-678.7097" /><polygon points="272,-678.7097 272,-765.4194 394.8387,-714.8387 333.4193,-653.4194" /><polygon points="333.4193,-653.4194 394.8387,-714.8387 445.4193,-592 416,-592 358.7097,-592" /><polygon points="210.5806,-530.5807 162.5807,-482.5807 149.1613,-469.1613 98.5807,-592 185.2903,-592" /><polygon points="185.2903,-592 98.5807,-592 149.1609,-714.8391 210.5804,-653.4196" /><polygon points="272,-505.2903 272,-418.5806 224,-438.3454 224,-457.2903 224,-525.055" /><polygon points="358.7097,-592 416,-592 416,-520.553 394.8387,-469.1613 333.4193,-530.5807" /><polygon points="333.4193,-530.5807 394.8387,-469.1613 272,-418.5806 272,-505.2903" /><polygon points="-416,704 -416,704 -512,704 -512,704" /><polygon points="512,704 512,704 384,704 -96,704 -96,704" /><polygon points="384,-832 -496,-832 -512,-832 -512,-832 384,-832" /><polygon points="-512,-192 -512,576 -512,704 -512,704 -512,-192" /><polygon points="512,704 512,688 512,336 512,336 512,336 512,704" /><polygon points="496,-320 448,-320 448,-320 456,-320 480,-320 512,-320 512,-320" /><polygon points="-496,-816 -512,-832 -512,-320 -496,-320" /><polygon points="496,-320 512,-320 512,-832 496,-816" /><polygon points="512,-832 496,-816 496,-832" /><polygon points="512,-320 496,-320 496,-816 512,-832" /><polygon points="400,-816 496,-816 512,-832 384,-832 384,-816" /><polygon points="400,-816 384,-816 -496,-816 -496,-832 384,-832 400,-832" /><polygon points="496,-816 400,-816 400,-832 496,-832" /><polygon points="-496,-816 -512,-832 -496,-832" /><polygon points="-512,-832 -496,-816 -496,-320 -512,-320" /><polygon points="496,192 512,192 512,336 512,688 496,688" /><polygon points="447,-204 416,-204 416,-284 447,-284" /><polygon points="496,192 448,192 448,192 512,192 512,192" /><polygon points="448,-320 448,-320 448,-256 448,-256" /><polygon points="447,-204 447,-284 447,-276 447,-212" /><polygon points="448,-256 448,192 448,192 448,184 448,128 448,-256" /><polygon points="416,-284 416,-204 416,-212 416,-276" /><polygon points="447,-284 416,-284 416,-276 447,-276" /><polygon points="416,-204 447,-204 447,-212 416,-212" /><polygon points="496,688 512,704 -96,704 -80,688" /><polygon points="512,688 512,704 496,688" /><polygon points="-96,704 -96,704 -80,688" /><polygon points="-496,-320 -496,-192 -496,576 -512,576 -512,-192 -512,-320" /><polygon points="-496,576 -496,688 -512,704 -512,576" /><polygon points="-512,704 -496,688 -432,688 -416,704" /><polygon points="-496,688 -512,704 -416,704 -432,688" /><polygon points="-432,688 -416,704 -416,704" /><polygon points="512,192 512,128 512,-320 512,-320 512,-192 512,336 512,336" /><polygon points="512,192 512,336 512,336 512,192" /><polygon points="448,-320 448,-320 496,-320 512,-320 512,-320" /><polygon points="448,-256 448,-320 512,-320 512,128 448,128" /><polygon points="512,128 512,192 448,192 448,128" /><polygon points="448,-256 448,128 448,192 448,192 448,-256" /><polygon points="495,-224 479,-224 479,-128 495,-128" /><polygon points="511,-224 495,-224 495,-128 495,96 511,96" /><polygon points="512,704 512,704 512,704 384,704 384,704" /><polygon points="512,-832 512,-832 496,-832 400,-832 384,-832 384,-832" /><polygon points="384,-832 -512,-832 -512,-832 384,-832" /><polygon points="-512,-832 -512,-832 -512,-320 -512,-192 -512,-192" /><polygon points="-512,-192 -512,704 -512,704 -512,64 -512,-192" /><polygon points="512,-832 512,-320 512,-320 512,-320 512,-832" /><polygon points="512,-320 512,-832 512,-832 512,-192 512,-192" /><polygon points="-96,704 -416,704 -416,768 -96,768" /><polygon points="-416,768 -416,704 -416,704 -416,704 -416,704 -416,768" /><polygon points="272,-592 272,-678.7097 333.4193,-653.4194" /><polygon points="272,-592 333.4193,-653.4194 358.7097,-592" /><polygon points="272,-592 224,-544 210.5806,-530.5807 185.2903,-592" /><polygon points="272,-592 185.2903,-592 210.5804,-653.4196" /><polygon points="272,-592 210.5804,-653.4196 272,-678.7097" /><polygon points="272,-592 272,-505.2903 224,-525.055 224,-544" /><polygon points="272,-592 358.7097,-592 333.4193,-530.5807" /><polygon points="272,-592 333.4193,-530.5807 272,-505.2903" /><polygon points="479,-128 479,-224 495,-224 495,96 479,96" /><polygon points="479,-224 495,-224 511,-224 495,-224" /><polygon points="479,-128 479,96 495,96 495,-128" /><polygon points="495,-224 511,-224 511,96 495,96" /><polygon points="495,96 511,96 495,96 479,96" /><polygon points="512,-832 512,-832 512,-192 512,-192" /><polygon points="512,-192 512,704 512,704 512,336 512,-192" /><polygon points="384,704 -512,704 -512,704 -416,704 -96,704 384,704" /><polygon points="512,-832 512,-832 512,-832 384,-832 384,-832" /><polygon points="-512,-832 -512,-832 -512,-192 -512,-192" /><polygon points="384,-832 -512,-832 -512,-192 -512,64 384,64" /><polygon points="-512,64 -512,704 384,704 384,64" /><polygon points="512,-192 512,-832 384,-832 384,64 512,64" /><polygon points="384,64 384,704 512,704 512,64" /><polygon points="512,-192 512,64 512,704 512,704 512,-192" /></g></defs><rect fill="#fff" height="1836.0" id="background" width="1420.0" x="-630.0" y="-950.0" /><use fill="none" stroke="black" stroke-miterlimit="0" stroke-width="15" xlink:href="#bsp_ref" /><use fill="white" stroke="black" stroke-width="1" xlink:href="#bsp_ref" /></svg>