<svg viewBox="-630 -950 1420 1836" xmlns="http://www.w3.org/2000/svg" xmlns:xlink="http://www.w3.org/1999/xlink"><defs><g id="a"><path d="m-416 704h-96z"/><path d="m256 704h256-608z"/><path d="m384-832h-240-240-384-32z"/><path d="m-512-192v128 400 208 128 32z"/><path d="m-480 672v-128h64v128z"/><path d="m-96 672h-320v-128h320z"/><path d="m-96 544h-320-64-32v-208h416z"/><path d="m-512 544h32v128h-32z"/><path d="m-416-64h320 162v256 144h-162-416v-400z"/><path d="m-480 672h64 320 352v32h-352-320-96v-32z"/><path d="m66 336h190v336h-352v-128-208z"/><path d="m256 672v-336h256v368h-256z"/><path d="m144-64h176v256h-254v-256z"/><path d="m320 192h192v144h-256-190v-144z"/><path d="m-288-384h64 128v320h-320v-320z"/><path d="m-512-192v-640h32l64 64v160 64 160 320h-96z"/><path d="m-96-832v64h-128-64-128l-64-64z"/><path d="m-96-384v-160-64-160-64h240v512 256h-78-162z"/><path d="m320-320v64 192h-176v-256z"/><path d="m144-832h240 128v512h-192-176z"/><path d="m512-832v512z"/><path d="m512 336v-144 512z"/><path d="m512-320h-96-96z"/><path d="m-96-608v64z"/><path d="m-224-384h-64z"/><path d="m-288-384h-128z"/><path d="m-224-768h128z"/><path d="m-288-768h64z"/><path d="m-416-544v160z"/><path d="m-416-768v160z"/><path d="m320-320v64z"/><path d="m-416 768v-64h320v64z"/><path d="m-96 704v64z"/><path d="m367-584h23v-16h-23-17v16z"/><path d="m280-687v-23h-16v23 17h16z"/><path d="m177-600h-23v16h23 17v-16z"/><path d="m264-497v23h16v-23-17h-16z"/><path d="m480-433h-64v112h64z"/><path d="m280-710v23 23z"/><path d="m280-670h-16v14h16z"/><path d="m390-584h-23-23z"/><path d="m264-474v-23-23z"/><path d="m280-474h-16v-46h16z"/><path d="m154-600h23 23z"/><path d="m194-600v16h14v-16z"/><path d="m154-584v-16h46v16z"/><path d="m412 332v-24h-24v24z"/><path d="m300 308h-24v24h24z"/><path d="m300 420h-24v24h24z"/><path d="m412 420h-24v24h24z"/><path d="m412 308 4-4h-32l4 4z"/><path d="m108-220h-24v24h24z"/><path d="m-68-220h-24v24h24z"/><path d="m108 276h-24v24h24z"/><path d="m-68 276h-24v24h24z"/><path d="m232 628h-24v24h24z"/><path d="m232 508h-24v24h24z"/><path d="m112 508h-24v24h24z"/><path d="m112 628h-24v24h24z"/><path d="m-142-212h-15v16h15z"/><path d="m-142-108h-15v16h15z"/><path d="m-207-212h-15v16h15z"/><path d="m-207-108h-15v16h15z"/><path d="m-157-196v12h15v-12z"/><path d="m-142-212v-12h-15v12z"/><path d="m-142-108v-12h-15v12z"/><path d="m-157-92v12h15v-12z"/><path d="m-222-196v12h15v-12z"/><path d="m-207-212v-12h-15v12z"/><path d="m-207-108v-12h-15v12z"/><path d="m-308-188v24h24v-24z"/><path d="m-404-164v-24h-24v24z"/><path d="m-428 196v24h24v-24z"/><path d="m-308 196v24h24v-24z"/><path d="m-404-188 4-4h-32l4 4z"/><path d="m264-656v-14-17 23 23z"/><path d="m280-656h-16v15h16z"/><path d="m336-600h14 17-23-23z"/><path d="m336-600v16h14v-16z"/><path d="m336-584v-16h-15v16z"/><path d="m280-528v14 17-23-23z"/><path d="m280-528h-16v14h16z"/><path d="m264-528h16v-15h-16z"/><path d="m208-584h-14-17 23 23z"/><path d="m208-600v16h15v-16z"/><path d="m-184-760h-224 120z"/><path d="m-104-392h-80z"/><path d="m-408-616v80 144-144z"/><path d="m-104-760v144z"/><path d="m-408-536v-80-144h224v224z"/><path d="m-184-392h-224v-144h224z"/><path d="m-104-760v144 80h-80v-224z"/><path d="m-104-536v144h-80v-144z"/><path d="m-120-488h-16v16h16z"/><path d="m-120-696h-16v48h16z"/><path d="m-157-120h15z"/><path d="m-142-184h-15z"/><path d="m-157-224h15z"/><path d="m-142-224v12 16 12-12-16z"/><path d="m-142-80h-15z"/><path d="m-142-120v12 16 12-12-16z"/><path d="m-222-120h15z"/><path d="m-207-184h-15z"/><path d="m-222-224h15z"/><path d="m-207-224v12 16 12-12-16z"/><path d="m-207-80h-15z"/><path d="m-207-120v12 16 12-12-16z"/><path d="m-207-80v-12h-15v12z"/><path d="m244-592 8 20 20 8 20-8 8-20-8-20-20-8-20 8z"/><path d="m-158-176v-48-16h-48v176h48z"/><path d="m280-664v-23 17 14 15z"/><path d="m264-664v-23-23z"/><path d="m264-664h16v23h-16z"/><path d="m280-664h-16v-46h16z"/><path d="m224-616v48z"/><path d="m240-632 8-8-8 8-16 16z"/><path d="m344-584h23-17-14-15z"/><path d="m344-600h23 23z"/><path d="m344-600v16h-23v-16z"/><path d="m344-584v-16h46v16z"/><path d="m256-624-8-16-8 8v8z"/><path d="m296-640h-48l8 16h32 16 8z"/><path d="m320-616-8-8h-8v16 32 16h8l8-8z"/><path d="m304-576-16 16h16z"/><path d="m304-624h-16l16 16z"/><path d="m304-560v8l8-8z"/><path d="m296-544 8-8v-8h-16-32l16 16z"/><path d="m256-624h-16v16z"/><path d="m256-560-16-16v16z"/><path d="m256-560h-16v8l8 8h24z"/><path d="m240-560v-16-32-16-8l-16 16v48l16 16z"/><path d="m280-520v23 23z"/><path d="m264-520v23-17-14-15z"/><path d="m280-520h-16v-23h16z"/><path d="m200-584h-23-23z"/><path d="m200-600h-23 17 14 15z"/><path d="m200-584v-16h23v16z"/><path d="m-120-504h-16v16h16z"/><path d="m-136-472v16h16v-16z"/><path d="m-136-504v24 24z"/><path d="m-120-504v24h-16v-24z"/><path d="m-136-456v-24h16v24z"/><path d="m-136-488h16z"/><path d="m-120-472h-16z"/><path d="m-136-472v-16z"/><path d="m-120-488v16z"/><path d="m-142-184h-15v-12h15z"/><path d="m-157-224h15v12h-15z"/><path d="m-157-120h15v12h-15z"/><path d="m-142-80h-15v-12h15z"/><path d="m-207-184h-15v-12h15z"/><path d="m-222-224h15v12h-15z"/><path d="m-222-120h15v12h-15z"/><path d="m-512 704h96z"/><path d="m512 704h-608z"/><path d="m512-832h-128z"/><path d="m384-832h-896z"/><path d="m-512-832v640z"/><path d="m-512-192v896z"/><path d="m512 192v512z"/><path d="m-176-32v-4l-48-12v4z"/><path d="m-416 768v-64z"/><path d="m-96 768h-320z"/><path d="m416-465v32h64v-32z"/><path d="m-206-240h48z"/><path d="m-158-64h-48z"/><path d="m-206-232v8 48z"/><path d="m-206-232v56 112-176z"/><path d="m-158-176v112z"/><path d="m-158-176v-48z"/><path d="m-158-232v-8 16z"/><path d="m-206-176h48v112h-48z"/><path d="m-206-232v-8h48v8z"/><path d="m-158-232h-48z"/><path d="m-162-124-32-8-8 32 32 8z"/><path d="m-194-132-8 32z"/><path d="m-142-196h-15v-16h15z"/><path d="m-157-196v12-12-16-12 12z"/><path d="m-142-92h-15v-16h15z"/><path d="m-157-92v12-12-16-12 12z"/><path d="m-207-196h-15v-16h15z"/><path d="m-222-196v12-12-16-12 12z"/><path d="m-207-92h-15v-16h15z"/><path d="m-222-92v12-12-16-12 12z"/><path d="m-207-92v12h-15v-12z"/><path d="m264-641h16z"/><path d="m280-543h-16z"/><path d="m321-600v16z"/><path d="m223-584v-16z"/><path d="m248-640h48z"/><path d="m320-616v48z"/><path d="m272-544h24-24-24z"/><path d="m240-552 8 8-8-8-16-16z"/><path d="m240-608v32z"/><path d="m312-560 8-8-8 8-8 8-8 8z"/><path d="m312-624-16-16 16 16 8 8z"/><path d="m240-576 16 16z"/><path d="m288-624h-32z"/><path d="m288-624h-32l-8-16h48z"/><path d="m240-632 8-8 8 16h-16z"/><path d="m304-624h-16l8-16 16 16z"/><path d="m256-560h32z"/><path d="m304-576v-32z"/><path d="m304-576 16 8-8 8h-8z"/><path d="m304-576v-32l16-8v48z"/><path d="m320-616-16 8v-16h8z"/><path d="m288-560 16-16v16z"/><path d="m288-560 16-16z"/><path d="m304-608-16-16z"/><path d="m304-608-16-16h16z"/><path d="m296-544h-24l-16-16h32z"/><path d="m288-560h16 8l-16 16z"/><path d="m256-624-16 16v-16z"/><path d="m256-624-16 16z"/><path d="m272-544h-24l8-16z"/><path d="m240-576 16 16-8 16-8-8z"/><path d="m224-616 16-16v8 16 32 24l-16-16z"/><path d="m-206-232h48v8h-48z"/><path d="m-170-92-32-8 8-32 32 8z"/><path d="m-170-92-32-8z"/><path d="m-194-132 32 8z"/><path d="m-162-124-8 32z"/><path d="m236 656h-32v-32h32z"/><path d="m236 536h-32v-32h32z"/><path d="m116 536h-32v-32h32z"/><path d="m116 656h-32v-32h32z"/><path d="m204 504 4 4h24l4-4z"/><path d="m84 504 4 4h24l4-4z"/><path d="m236 656-4-4h-24l-4 4z"/><path d="m116 656-4-4h-24l-4 4z"/><path d="m236 536-4-4h-24l-4 4z"/><path d="m116 536-4-4h-24l-4 4z"/><path d="m116 504-4 4v24l4 4z"/><path d="m204 536 4-4v-24l-4-4z"/><path d="m236 504-4 4v24l4 4z"/><path d="m84 536 4-4v-24l-4-4z"/><path d="m204 624 4 4h24l4-4z"/><path d="m84 624 4 4h24l4-4z"/><path d="m204 656 4-4v-24l-4-4z"/><path d="m236 624-4 4v24l4 4z"/><path d="m116 624-4 4v24l4 4z"/><path d="m84 656 4-4v-24l-4-4z"/><path d="m-312-160v-32h32v32z"/><path d="m-400-192v32h-32v-32z"/><path d="m-432 224v-32h32v32z"/><path d="m-312 224v-32h32v32z"/><path d="m-432-160 4-4v-24l-4-4z"/><path d="m-432 224 4-4v-24l-4-4z"/><path d="m-280 192-4 4v24l4 4z"/><path d="m-280-192-4 4v24l4 4z"/><path d="m-400 192-4 4v24l4 4z"/><path d="m-400-192-4 4v24l4 4z"/><path d="m-312-160 4-4v-24l-4-4z"/><path d="m-312 224 4-4v-24l-4-4z"/><path d="m-280-160-4-4h-24l-4 4z"/><path d="m-312-192 4 4h24l4-4z"/><path d="m-312 192 4 4h24l4-4z"/><path d="m-280 224-4-4h-24l-4 4z"/><path d="m-432 192 4 4h24l4-4z"/><path d="m-400-160-4-4h-24l-4 4z"/><path d="m-400 224-4-4h-24l-4 4z"/><path d="m240 496h-160v160h160z"/><path d="m80 656v-160h-14-14v174z"/><path d="m-272-196h-160v424h160z"/><path d="m-432-196-14-28-2 8v20 424 20l2 8 14-28z"/><path d="m-272-196v-16-12h-174l14 28z"/><path d="m-158-176h-48v-48h48z"/><path d="m-158-224v-8z"/><path d="m-206-176h48z"/><path d="m-120-480v-24 48z"/><path d="m-120-648h-16v-48h16z"/><path d="m-120-648h-16z"/><path d="m-136-696h16z"/><path d="m-120-696v48z"/><path d="m-136-648v-48z"/><path d="m-132-212v4l-48-12v-4z"/><path d="m-132-212-48-12-44 176 48 12z"/><path d="m-180-224v4l-44 176v-4z"/><path d="m416-321v-112-32 112z"/><path d="m66 496h14 160 16-32-128z"/><path d="m66 496h-6-8z"/><path d="m-180-220 48 12-44 176-48-12z"/><path d="m-132-208v-4l-44 176v4z"/><path d="m112-192h-32v-32h32z"/><path d="m-64-192h-32v-32h32z"/><path d="m112 304h-32v-32h32z"/><path d="m-64 304h-32v-32h32z"/><path d="m-64-192-4-4h-24l-4 4z"/><path d="m112-192-4-4h-24l-4 4z"/><path d="m-96-192 4-4v-24l-4-4z"/><path d="m-96-224 4 4h24l4-4z"/><path d="m80-224 4 4h24l4-4z"/><path d="m-64-224-4 4v24l4 4z"/><path d="m112-224-4 4v24l4 4z"/><path d="m80-192 4-4v-24l-4-4z"/><path d="m-96 272 4 4h24l4-4z"/><path d="m80 272 4 4h24l4-4z"/><path d="m112 272-4 4v24l4 4z"/><path d="m112 304-4-4h-24l-4 4z"/><path d="m-64 304-4-4h-24l-4 4z"/><path d="m80 304 4-4v-24l-4-4z"/><path d="m-96 304 4-4v-24l-4-4z"/><path d="m-64 272-4 4v24l4 4z"/><path d="m672-224v320z"/><path d="m512-224h160v320h-160z"/><path d="m-128-256v144z"/><path d="m144-112v304 144-144z"/><path d="m400 192h112-192z"/><path d="m400 160v32h-80v-256h80z"/><path d="m480 160h32v32h-112v-32z"/><path d="m400-64h16 64v160 64h-80z"/><path d="m400-64h-80v-192-64h96v32 224z"/><path d="m416-288h64v224h-64z"/><path d="m480-288h-64v-32h96v32z"/><path d="m480-64v-224 64 320z"/><path d="m320-256v192 256-256z"/><path d="m144-256h-272z"/><path d="m144-112v-144h-272v144 304h272z"/><path d="m-128 192v144h272v-144z"/><path d="m256 496h12-8-20-16z"/><path d="m66 496h30-16z"/><path d="m96 632v-136h128v136z"/><path d="m224 632v-136h16v144z"/><path d="m-272 212v-392-32 16 424 16z"/><path d="m-272 244v12-8-20-16z"/><path d="m-408-180h136v392h-136z"/><path d="m-408 212h136v16h-144z"/><path d="m456 128v12 4-4-12-11-5 5z"/><path d="m416 79h-16v61.8182h16z"/><path d="m400 79v-8 21.75 47.25.8182z"/><path d="m456 128v-11h-120v11z"/><path d="m656-32v23 9-9-23-23-9 9z"/><path d="m656-32h-120v23h120z"/><path d="m592-156h-32v144h32z"/><path d="m560-156-16-8v144l16 8z"/><path d="m456 140v-12h-120v12z"/><path d="m456 117v-5h-120v5z"/><path d="m374.5938 63.75-4.5938-15.75h-8l4.5938 15.75z"/><path d="m366.5938 63.75-4.5938-15.75-1-4 14.2188 48.75z"/><path d="m361 44 1 4h8l-1-4z"/><path d="m656-9h-120v9h120z"/><path d="m656-55h-120v23h120z"/><path d="m536-55h120v-9h-120z"/><path d="m400 71h16v21.75h-16z"/><path d="m416 71v8 61.8182-.8182-47.25z"/><path d="m400 71v8h16v-8z"/><path d="m292-572-20 8-20-8-8-20 8-20 20-8 20 8 8 20z"/><path d="m252-612-8 20z"/><path d="m272-620-20 8z"/><path d="m244-592 8 20z"/><path d="m252-572 20 8z"/><path d="m292-572 8-20z"/><path d="m292-612-20-8z"/><path d="m272-564 20-8z"/><path d="m300-592-8-20z"/><path d="m323.7647-762.6851-51.7647-21.3149-136 56-36.2353 88h124.2353 24 75.7647z"/><path d="m416-640h28.2353l-36.2353-88-84.2353-34.6851v122.6851z"/><path d="m416-475.4286 48-116.5714-19.7647-48h-28.2353z"/><path d="m272-400 136-56 8-19.4286v-164.5714h-92.2353-75.7647l-24 24v196.2353z"/><path d="m248-640h-24v24z"/><path d="m224-616v-24h-124.2353l-19.7647 48 56 136 88 36.2353z"/><path d="m-104-536v-80-144h-80-104v152 72z"/><path d="m-288-392h104 80v-144h-184z"/><path d="m-288-760v-8 160z"/><path d="m-408-392h120v8h-128z"/><path d="m-408-392h80v-144h-80z"/><path d="m-104-760h-80z"/><path d="m-184-392h-104-120z"/><path d="m-408-760v144z"/><path d="m-104-616v80 144-144z"/><path d="m-128-112v304 144-144z"/><path d="m144-256v144z"/><path d="m144 336h-272z"/><path d="m-128-112v-144h272v144 304h-272z"/><path d="m144 192v144h-272v-144z"/><path d="m480-353v-112 32 112z"/><path d="m480-353h-64v-112h64z"/><path d="m416-353h64v32h-64z"/><path d="m456 144v-4h-120v4z"/><path d="m456 112v5h-120v-5z"/><path d="m66 230h-96v96h96z"/><path d="m66 326v-96z"/><path d="m66 230h-2-92-2z"/><path d="m544-164v-12 144 12z"/><path d="m544-164 16 8h32l16-8v-12l-16-8h-32l-16 8z"/><path d="m608-164-16 8v144l16-8z"/><path d="m64 232v54 32 6z"/><path d="m64 324h-92z"/><path d="m-28 232h92z"/><path d="m-28 232h92v92h-92z"/><path d="m64 232v54z"/><path d="m64 318v-32h-32v32z"/><path d="m64 286h-32z"/><path d="m32 286v32z"/><path d="m-96-544v160z"/><path d="m-96-768v160z"/><path d="m-96-384h-128z"/><path d="m-416-768h128z"/><path d="m-416-608v64z"/><path d="m-288-608v64 160-8-144z"/><path d="m-96-544h-128v-64h128z"/><path d="m-96-608h-128v-160h128z"/><path d="m-224-544h128v160h-128z"/><path d="m-288-608v-160h64v160 64h-64z"/><path d="m-224-544v160h-64v-160z"/><path d="m-288-768v8h-120l-8-8z"/><path d="m-416-768 8 8h80l-8-8z"/><path d="m-416-544h80v160h-80z"/><path d="m-416-768h80v160h-80z"/><path d="m336 140v4-4-12-11-5 5 11z"/><path d="m456 140v4h-120v-4z"/><path d="m456 117v11h-120v-11z"/><path d="m416 92.75v42.25h-16v-42.25z"/><path d="m383.2188 92.75 13.7812 47.25h-8l-13.7812-47.25-14.2188-48.75h8z"/><path d="m383.2188 92.75-14.2188-48.75 1 4 4.5938 15.75z"/><path d="m390.3438 117.75-15.75-54h-8l15.75 54z"/><path d="m512-224v320z"/><path d="m672-224h-160z"/><path d="m480 96v32 32z"/><path d="m480-224h32z"/><path d="m480-224h32v320h-32z"/><path d="m64 318v6z"/><path d="m64 318h-32v-32h32z"/><path d="m32 318h32z"/><path d="m456 128v12h-120v-12z"/><path d="m-30 326v-96z"/><path d="m-28 326h92 2-96z"/><path d="m64 286v32z"/><path d="m64 324v-6-32-54-2h2v96h-2z"/><path d="m-28 232v92z"/><path d="m-28 230h92v2h-92z"/><path d="m64 324v2h-92v-2z"/><path d="m-30 230h2v2 92 2h-2z"/><path d="m656 0h-120v-9h120z"/><path d="m536-64h120v9h-120z"/><path d="m30 286h2 28-2z"/><path d="m30 318h2v-32h-2z"/><path d="m390 144h8l-7.6562-26.25h-8z"/><path d="m398 144-.7955-3.1821-6.8607-23.0679z"/><path d="m544-176 16-8v144l-16 8z"/><path d="m608-176v12 144-12z"/><path d="m60 286h-28v32h28z"/><path d="m416 140.8182v2.1818-.6522-2.3478z"/><path d="m400 140.8182v2.1818h16v-2.1818z"/><path d="m389.2045 140.818.7955 3.182-7.6562-26.25z"/><path d="m397.2045 140.8179-.2045-.8179-13.7812-47.25-8.625-29 15.75 54z"/><path d="m268 670v-174h-12-16v160z"/><path d="m-272-224v8h-176l2-8z"/><path d="m-446 256h174v-12-16h-160z"/><path d="m400 140v-47.25 42.25 7.3478z"/><path d="m416 140v2.3478-7.3478-42.25z"/><path d="m397 140 .2045.8179.7955 3.1821h-8l-.7955-3.182-.2045-.818z"/><path d="m389 140 .2045.818-6.8607-23.068-15.75-54 8.625 29z"/><path d="m400 140v2.3478.6522-2.1818z"/><path d="m58 318h2-28-2z"/><path d="m58 286h2v32h-2z"/><path d="m58 286v32h-28v-32z"/><path d="m536-9v9-9-23-23-9 9 23z"/><path d="m656-9h-120v-23h120z"/><path d="m560-184h32v144h-32z"/><path d="m592-184 16 8v144l-16-8z"/><path d="m416 135v7.3478.6522h-16v-.6522-7.3478z"/><path d="m416 304v32h-32v-32z"/><path d="m304 336h-32v-32h32z"/><path d="m304 448h-32v-32h32z"/><path d="m416 448h-32v-32h32z"/><path d="m272 304 4 4h24l4-4z"/><path d="m416 448-4-4h-24l-4 4z"/><path d="m304 448-4-4h-24l-4 4z"/><path d="m416 336-4-4h-24l-4 4z"/><path d="m304 336-4-4h-24l-4 4z"/><path d="m304 304-4 4v24l4 4z"/><path d="m384 336 4-4v-24l-4-4z"/><path d="m416 336v-32l-4 4v24z"/><path d="m272 336 4-4v-24l-4-4z"/><path d="m272 416 4 4h24l4-4z"/><path d="m384 416 4 4h24l4-4z"/><path d="m384 448 4-4v-24l-4-4z"/><path d="m416 416-4 4v24l4 4z"/><path d="m304 416-4 4v24l4 4z"/><path d="m272 448 4-4v-24l-4-4z"/><path d="m149.1609-714.8391-13.1609-13.1609 136-56v18.5806z"/><path d="m272-765.4194v-18.5806l51.7647 21.3149 84.2353 34.6851-13.1613 13.1613z"/><path d="m394.8387-714.8387 13.1613-13.1613 36.2353 88 19.7647 48h-18.5807z"/><path d="m149.1613-469.1613-13.1613 13.1613-56-136h18.5807z"/><path d="m98.5807-592h-18.5807l19.7647-48 36.2353-88 13.1609 13.1609z"/><path d="m416-520.553v-71.447h29.4193 18.5807l-48 116.5714z"/><path d="m272-418.5806v18.5806l-48-19.7647v-18.5807z"/><path d="m416-520.553v45.1244l-8 19.4286-13.1613-13.1613z"/><path d="m394.8387-469.1613 13.1613 13.1613-136 56v-18.5806z"/><path d="m224-438.3454v18.5807l-88-36.2353 13.1613-13.1613 13.4194-13.4194 61.4193 25.2904z"/><path d="m256 288v176z"/><path d="m432 288h-176z"/><path d="m432 288h-176v176h176z"/><path d="m80 672h160 20l8-2-28-14h-160l-28 14 8 2z"/><path d="m80 640v-144h16v136z"/><path d="m260 496v176h-20v-32-144z"/><path d="m260 496h8v174l-8 2z"/><path d="m240 672-16 16v-32l16-16z"/><path d="m240 640-16 16h-128l-16-16 16-8h128z"/><path d="m80 640 16 16v32l-16-16z"/><path d="m66 496h14v144 32h-20v-176z"/><path d="m60 672-8-2v-174h8z"/><path d="m-272-216v-8 12 32-16z"/><path d="m-448-196-16 16v392l16 16z"/><path d="m-416-196h144v16h-136z"/><path d="m-416-196h-32v-20h176v20z"/><path d="m-448 228-16-16h32l16 16z"/><path d="m-416-196-16 16h-32l16-16z"/><path d="m-272 248h-176v-20h32 144z"/><path d="m-272 248v8h-174l-2-8z"/><path d="m656-32h-120v-23h120z"/><path d="m432 464h-176z"/><path d="m432 288v176z"/><path d="m256 288h176v176h-176z"/><path d="m336 360-8 8v16l8 8h16l8-8v-16l-8-8z"/><path d="m-328-608v72 144l-8 8v-160-64z"/><path d="m-328-536v-72-152h-80v144 80z"/><path d="m-336-384 8-8h-80l-8 8z"/><path d="m-336-768 8 8v152h-8z"/><path d="m-336-608v64h-80v-64z"/><path d="m162.5807-482.5807 47.9999-48 13.4194-13.4193v18.945 67.7647z"/><path d="m544-32 16-8h32l16 8v12l-16 8h-32l-16-8z"/><path d="m-144 736v16h11v-16z"/><path d="m-133 752h-11-11-5 5 11 11 5z"/><path d="m-155 752v-16h-5v16z"/><path d="m-133 736v16h5v-16z"/><path d="m-155 736v16h11v-16z"/><path d="m447-296v-8h-31v8z"/><path d="m447-296h-31v96h31z"/><path d="m416-296v-8 28 64 12z"/><path d="m-144 767h-6-2 2 6 5 3-3z"/><path d="m-144 753v14h5v-14z"/><path d="m-150 767v-14h-2v14z"/><path d="m-139 753v14h3v-14z"/><path d="m-150 753v14h6v-14z"/><path d="m366 386-12 12h-20l-12-12v-20l12-12h20l12 12z"/><path d="m334 354 2 6h16l2-6z"/><path d="m322 366 6 2 8-8-2-6z"/><path d="m354 354-2 6 8 8 6-2z"/><path d="m322 386 6-2v-16l-6-2z"/><path d="m366 366-6 2v16l6 2z"/><path d="m334 398 2-6-8-8-6 2z"/><path d="m366 386-6-2-8 8 2 6z"/><path d="m354 398-2-6h-16l-2 6z"/><path d="m-160 752v-16h5v16z"/><path d="m-128 736v16h-5v-16z"/><path d="m-152 767v-14h2v14z"/><path d="m-136 753v14h-3v-14z"/><path d="m346 374h-4v4h4z"/><path d="m-150 767v-14h6v14z"/><path d="m-144 753h-6-2 2 6 5 3-3z"/><path d="m-144 767v-14h5v14z"/><path d="m-155 752v-16h11v16z"/><path d="m416-200v-12h31v12z"/><path d="m-144 736h-11-5 5 11 11 5-5z"/><path d="m-144 752v-16h11v16z"/><path d="m447-304v8 96-12-64z"/><path d="m416-304h31v28h-31z"/><path d="m360 416-4-12 16-16 12 4z"/><path d="m360 336-4 12h-24l-4-12z"/><path d="m328 416 4-12h24l4 12z"/><path d="m328 336 4 12-16 16-12-4z"/><path d="m304 392 12-4 16 16-4 12z"/><path d="m304 360 12 4v24l-12 4z"/><path d="m384 392-6-2v8z"/><path d="m384 360-6 2v28l6 2z"/><path d="m378 362 6-2-6-6z"/><path d="m360 336-2 6 20 20v-8z"/><path d="m358 342 2-6h-8z"/><path d="m378 390-12-4-12 12 4 12z"/><path d="m360 416-2-6-6 6z"/><path d="m378 390-20 20 2 6 18-18z"/><path d="m330 342-2-6-6 6z"/><path d="m328 336 2 6h28l-6-6z"/><path d="m358 410-4-12h-20l-4 12z"/><path d="m330 410-20-20-6 2 18 18z"/><path d="m304 392 6-2v-28l-6-2z"/><path d="m304 360 6 2 20-20h-8z"/><path d="m310 362 12 4 12-12-4-12z"/><path d="m310 390 12-4v-20l-12-4z"/><path d="m328 416 2-6h-8z"/><path d="m358 410h-28l-2 6h24z"/><path d="m96 688v-32h128v32z"/><path d="m224 688 16-16h-160l16 16z"/><path d="m-464-180h32v392h-32z"/><path d="m-432-180 16-16 8 16v392l-8 16-16-16z"/><path d="m342 378v-4z"/><path d="m346 378h-4v-4h4z"/><path d="m342 374h4z"/><path d="m346 378h-4z"/><path d="m346 374v4z"/><path d="m372 364-6 2-12-12 2-6z"/><path d="m366 386v-20l6-2v24z"/><path d="m354 398 12-12 6 2-16 16z"/><path d="m334 398h20l2 6h-24z"/><path d="m322 386 12 12-2 6-16-16z"/><path d="m322 366v20l-6 2v-24z"/><path d="m334 354-12 12-6-2 16-16z"/><path d="m354 354h-20l-2-6h24z"/><path d="m372 364 12-4v32l-12-4z"/><path d="m356 348 4-12 24 24-12 4z"/><path d="m366 386 12 4v-28l-12 4z"/><path d="m366 366 12-4-20-20-4 12z"/><path d="m354 354 4-12h-28l4 12z"/><path d="m322 386-12 4 20 20 4-12z"/><path d="m512-320v32z"/><path d="m512 160v32z"/><path d="m672 96h-160z"/><path d="m512-224h160z"/><path d="m672-224h-160v320h160z"/><path d="m480-288v64z"/><path d="m512 96h-32z"/><path d="m512-320h-32v32h32z"/><path d="m512-288h-32z"/><path d="m512-224h-32v320h32z"/><path d="m480 160v32h32v-32z"/><path d="m480 160h32z"/><path d="m480 96v-320-64-32h-24v448h24z"/><path d="m456 128v56 8h24v-32-32z"/><path d="m456-320h-8v64 384h8z"/><path d="m448 128v56h8v-56z"/><path d="m448-320v64z"/><path d="m448 184v8h8v-8z"/><path d="m448 192h48 16-32-24z"/><path d="m448 192v-8z"/><path d="m512-832h-128z"/><path d="m-512-320v-512 640z"/><path d="m512-832v512z"/><path d="m384-832h-896l16 16h880z"/><path d="m512 704-16-16h-576l-16 16z"/><path d="m512 192h-16v496l16 16z"/><path d="m-512-192v896l16-16v-112-768z"/><path d="m-512-320v128h16v-128z"/><path d="m-96 704v64z"/><path d="m210.5804-653.4196-61.4195-61.4195 122.8391-50.5803v86.7097z"/><path d="m272-678.7097v-86.7097l122.8387 50.5807-61.4194 61.4193z"/><path d="m333.4193-653.4194 61.4194-61.4193 50.5806 122.8387h-29.4193-57.2903z"/><path d="m210.5806-530.5807-47.9999 48-13.4194 13.4194-50.5806-122.8387h86.7096z"/><path d="m185.2903-592h-86.7096l50.5802-122.8391 61.4195 61.4195z"/><path d="m272-505.2903v86.7097l-48-19.7648v-18.9449-67.7647z"/><path d="m358.7097-592h57.2903v71.447l-21.1613 51.3917-61.4194-61.4194z"/><path d="m333.4193-530.5807 61.4194 61.4194-122.8387 50.5807v-86.7097z"/><path d="m-416 704h-96z"/><path d="m512 704h-128-480z"/><path d="m384-832h-880-16z"/><path d="m-512-192v768 128z"/><path d="m512 704v-16-352z"/><path d="m496-320h-48 8 24 32z"/><path d="m-496-816-16-16v512h16z"/><path d="m496-320h16v-512l-16 16z"/><path d="m512-832-16 16v-16z"/><path d="m512-320h-16v-496l16-16z"/><path d="m400-816h96l16-16h-128v16z"/><path d="m400-816h-16-880v-16h880 16z"/><path d="m496-816h-96v-16h96z"/><path d="m-496-816-16-16h16z"/><path d="m-512-832 16 16v496h-16z"/><path d="m496 192h16v144 352h-16z"/><path d="m447-204h-31v-80h31z"/><path d="m496 192h-48 64z"/><path d="m448-320v64z"/><path d="m447-204v-80 8 64z"/><path d="m448-256v448-8-56z"/><path d="m416-284v80-8-64z"/><path d="m447-284h-31v8h31z"/><path d="m416-204h31v-8h-31z"/><path d="m496 688 16 16h-608l16-16z"/><path d="m512 688v16l-16-16z"/><path d="m-96 704 16-16z"/><path d="m-496-320v128 768h-16v-768-128z"/><path d="m-496 576v112l-16 16v-128z"/><path d="m-512 704 16-16h64l16 16z"/><path d="m-496 688-16 16h96l-16-16z"/><path d="m-432 688 16 16z"/><path d="m512 192v-64-448 128 528z"/><path d="m512 192v144z"/><path d="m448-320h48 16z"/><path d="m448-256v-64h64v448h-64z"/><path d="m512 128v64h-64v-64z"/><path d="m448-256v384 64z"/><path d="m495-224h-16v96h16z"/><path d="m511-224h-16v96 224h16z"/><path d="m512 704h-128z"/><path d="m512-832h-16-96-16z"/><path d="m384-832h-896z"/><path d="m-512-832v512 128z"/><path d="m-512-192v896-640z"/><path d="m512-832v512z"/><path d="m512-320v-512 640z"/><path d="m-96 704h-320v64h320z"/><path d="m-416 768v-64z"/><path d="m272-592v-86.7097l61.4193 25.2903z"/><path d="m272-592 61.4193-61.4194 25.2904 61.4194z"/><path d="m272-592-48 48-13.4194 13.4193-25.2903-61.4193z"/><path d="m272-592h-86.7097l25.2901-61.4196z"/><path d="m272-592-61.4196-61.4196 61.4196-25.2901z"/><path d="m272-592v86.7097l-48-19.7647v-18.945z"/><path d="m272-592h86.7097l-25.2904 61.4193z"/><path d="m272-592 61.4193 61.4193-61.4193 25.2904z"/><path d="m479-128v-96h16v320h-16z"/><path d="m479-224h16 16-16z"/><path d="m479-128v224h16v-224z"/><path d="m495-224h16v320h-16z"/><path d="m495 96h16-16-16z"/><path d="m512-832v640z"/><path d="m512-192v896-368z"/><path d="m384 704h-896 96 320z"/><path d="m512-832h-128z"/><path d="m-512-832v640z"/><path d="m384-832h-896v640 256h896z"/><path d="m-512 64v640h896v-640z"/><path d="m512-192v-640h-128v896h128z"/><path d="m384 64v640h128v-640z"/><path d="m512-192v256 640z"/></g></defs><path d="m-630-950h1420v1836h-1420z" fill="#fff"/><g stroke="#000"><use fill="none" stroke-miterlimit="0" stroke-width="15" xlink:href="#a"/><use fill="#fff" xlink:href="#a"/></g></svg>