<svg viewBox="-2304 -2304 4608 4608" xmlns="http://www.w3.org/2000/svg" xmlns:xlink="http://www.w3.org/1999/xlink"><defs><g id="a"><path d="m-1904-160v-128h224v224h-224z"/><path d="m-1680-64v224h-224v-96-128z"/><path d="m-1680 160v128h-224v-128z"/><path d="m-1680-288h96v128 96h-96z"/><path d="m-1584-64v128 96h-96v-224z"/><path d="m-1584 160v128h-96v-128z"/><path d="m-288 1808v-128-96h224v224z"/><path d="m-64 1904h-224v-96h224z"/><path d="m-64 1808v-224h224v224z"/><path d="m160 1904h-224v-96h224z"/><path d="m288 1584v96 128h-128v-224z"/><path d="m288 1808v96h-128v-96z"/><path d="m684 1818.0435-224 94.9565 224-95.4435z"/><path d="m908 1723.0869-224 94.9566v-.487l224-95.4435z"/><path d="m1108.1818 1636.8182-2.446 2.446-197.7358 83.8227v-.9739z"/><path d="m1584-160v-128h224v224h-224z"/><path d="m1808-64v224h-224v-96-128z"/><path d="m1808 160v128h-224v-128z"/><path d="m1808-288h96v128 96h-96z"/><path d="m1904-64v128 96h-96v-224z"/><path d="m1904 160v128h-96v-128z"/><path d="m1732.2617-884.1818-10.1487-23.8182-85.2948-200.1818 2.446 2.446 83.8227 197.7358 10.0969 23.8182z"/><path d="m1827.7052-660.1818-10.1487-23.8182-85.2948-200.1818h.9221l84.8597 200.1818 10.0969 23.8182z"/><path d="m1860.8182-582.4674-33.113-77.7144h.4352l32.6778 77.0863z"/><path d="m1913-460-52.1818-122.4674v-.6281z"/><path d="m1827.7052-660.1818 33.113 77.7144 52.1818 122.4674-95.4435-224z"/><path d="m684 1817.5565-224 95.4435z"/><path d="m908 1722.113-224 95.4435z"/><path d="m288 1584v36 8 40 8 4z"/><path d="m1904 288h-36-8-40-8-4z"/><path d="m1808-288h-224 36 8 40 8 40 8 40 8z"/><path d="m1584 64v96 128-128-16z"/><path d="m1584-160v96 128-56-16-136z"/><path d="m1904-288v128z"/><path d="m-1584 288h-36-8-40-8-4z"/><path d="m-1680-288h-224 36 8 40 8 40 8 40 8z"/><path d="m-1584-288v128z"/><path d="m-1904 64v96 128-128-16z"/><path d="m-1904-160v96 128-56-16-136z"/><path d="m-288 1680v128 96-36-8-40-8-40-8-40-8z"/><path d="m-64 1584h-224 128 16z"/><path d="m160 1584h-224 56 16 136z"/><path d="m288 1904h-128z"/><path d="m288 1772v-8z"/><path d="m288 1820v-8z"/><path d="m288 1868v-8z"/><path d="m288 1724v-8z"/><path d="m288 1676v-8z"/><path d="m288 1628v-8z"/><path d="m288 1680v36 8 40 8 40 8 40 8 36-96z"/><path d="m1764 288h8z"/><path d="m1860 288h8z"/><path d="m1668 288h8z"/><path d="m1716 288h8z"/><path d="m1584 288h36z"/><path d="m1620 288h8z"/><path d="m1812 288h8z"/><path d="m1808 288h-36-8-40-8-40-8-40-8-36z"/><path d="m1812-288h8 40 8 36-96z"/><path d="m1628-288h-8z"/><path d="m1676-288h-8z"/><path d="m1724-288h-8z"/><path d="m1868-288h-8z"/><path d="m1820-288h-8z"/><path d="m1772-288h-8z"/><path d="m1584 144v16z"/><path d="m1584-8v16z"/><path d="m1584-160v16z"/><path d="m1584-288v128z"/><path d="m1904 160v-16z"/><path d="m1904 8v-16z"/><path d="m1904-144v-16z"/><path d="m1904 64v80 16 128-128z"/><path d="m1904-160v16 136 16 56-128z"/><path d="m1584 160 320-16v16 128h-36-8-40-8-4-36-8-40-8-40-8-40-8-36z"/><path d="m1584 160v-16-80-56-16-136-16-128h36 8 40 8 40 8 40 8 36 4 8 40 8 36v128 16 136 16 56 80z"/><path d="m1904 160-320-16v16 128h36 8 40 8 40 8 40 8 36 4 8 40 8 36z"/><path d="m1904 160v-16-80-56-16-136-16-128h-36-8-40-8-4-36-8-40-8-40-8-40-8-36v128 16 136 16 56 80z"/><path d="m-1724 288h8z"/><path d="m-1628 288h8z"/><path d="m-1820 288h8z"/><path d="m-1772 288h8z"/><path d="m-1904 288h36z"/><path d="m-1868 288h8z"/><path d="m-1676 288h8z"/><path d="m-1680 288h-36-8-40-8-40-8-40-8-36z"/><path d="m-1716-288h-8z"/><path d="m-1668-288h-8z"/><path d="m-1620-288h-8z"/><path d="m-1764-288h-8z"/><path d="m-1812-288h-8z"/><path d="m-1860-288h-8z"/><path d="m-1676-288h8 40 8 36-96z"/><path d="m-1584 160v-16z"/><path d="m-1584 8v-16z"/><path d="m-1584-144v-16z"/><path d="m-1584 64v80 16 128-128z"/><path d="m-1584-160v16 136 16 56-128z"/><path d="m-1904 144v16z"/><path d="m-1904-8v16z"/><path d="m-1904-160v16z"/><path d="m-1904-288v128z"/><path d="m-1584 160-320-16v16 128h36 8 40 8 40 8 40 8 36 4 8 40 8 36z"/><path d="m-1584 160v-16-80-56-16-136-16-128h-36-8-40-8-4-36-8-40-8-40-8-40-8-36v128 16 136 16 56 80z"/><path d="m-1904 160 320-16v16 128h-36-8-40-8-4-36-8-40-8-40-8-40-8-36z"/><path d="m-1904 160v-16-80-56-16-136-16-128h36 8 40 8 40 8 40 8 36 4 8 40 8 36v128 16 136 16 56 80z"/><path d="m-288 1764v8z"/><path d="m-288 1860v8z"/><path d="m-288 1668v8z"/><path d="m-288 1716v8z"/><path d="m-288 1584v36z"/><path d="m-288 1620v8z"/><path d="m-288 1812v8z"/><path d="m-288 1676v-8-40-8-36 96z"/><path d="m-144 1584h-16z"/><path d="m160 1584h-16z"/><path d="m288 1584h-128z"/><path d="m-160 1904h16z"/><path d="m8 1904h-16z"/><path d="m144 1904h16z"/><path d="m-64 1904h-80-16-128z"/><path d="m160 1904h-16-136-16-56z"/><path d="m-160 1904 16-320h-16-128v36 8 40 8 4 36 8 40 8 40 8 40 8 36z"/><path d="m-160 1904h16 80 56 16 136 16 128v-36-8-40-8-40-8-40-8-36-4-8-40-8-36h-128-16-136-16-56-80z"/><path d="m-160 1584 16 320h-16-128v-36-8-40-8-40-8-40-8-36-4-8-40-8-36z"/><path d="m-160 1584h16 80 56 16 136 16 128v36 8 40 8 4 36 8 40 8 40 8 40 8 36h-128-16-136-16-56-80z"/><path d="m1584-8v-133.9575-2.0425z"/><path d="m1904-144v68.1925 67.8075z"/><path d="m1904-160v-128z"/><path d="m1808 144h-36-8-40-8-40-8-40-8-36v16h36 8 40 8 40 8 40 8 36z"/><path d="m1812 160h8 40 8 36v-16h-36-8-40-8-4v16z"/><path d="m1808-8h-36-8-40-8-40-8-40-8-36v16h36 8 40 8 40 8 40 8 36z"/><path d="m1812 8h8 40 8 36v-16h-36-8-40-8-4v16z"/><path d="m1808-160h-36-8-40-8-40-8-40-8-36v16h36 8 40 8 40 8 40 8 36z"/><path d="m1812-144h8 40 8 36v-16h-36-8-40-8-4v16z"/><path d="m1628 8h-8z"/><path d="m1676 8h-8z"/><path d="m1724 8h-8z"/><path d="m1772 8h-8z"/><path d="m1820 8h-8z"/><path d="m1868 8h-8z"/><path d="m1628-144h-8z"/><path d="m1676-144h-8z"/><path d="m1724-144h-8z"/><path d="m1772-144h-8z"/><path d="m1820-144h-8z"/><path d="m1868-144h-8z"/><path d="m1860-160h8z"/><path d="m1812-160h8z"/><path d="m1764-160h8z"/><path d="m1716-160h8z"/><path d="m1668-160h8z"/><path d="m1620-160h8z"/><path d="m1764-8h8z"/><path d="m1860-8h8z"/><path d="m1716-8h8z"/><path d="m1668-8h8z"/><path d="m1620-8h8z"/><path d="m1812-8h8z"/><path d="m1716 144h8z"/><path d="m1668 144h8z"/><path d="m1620 144h8z"/><path d="m1764 144h8z"/><path d="m1812 144h8z"/><path d="m1860 144h8z"/><path d="m1868 160h-8z"/><path d="m1820 160h-8z"/><path d="m1772 160h-8z"/><path d="m1676 160h-8z"/><path d="m1724 160h-8z"/><path d="m1628 160h-8z"/><path d="m-1584-144v136z"/><path d="m-1904 160v128z"/><path d="m-1904 8v56 80-7.0769z"/><path d="m-1904-8v-79.0769-56.9231z"/><path d="m-1680 144h-36-8-40-8-40-8-40-8-36v16h36 8 40 8 40 8 40 8 36z"/><path d="m-1676 160h8 40 8 36v-16h-36-8-40-8-4v16z"/><path d="m-1680-8h-36-8-40-8-40-8-40-8-36v16h36 8 40 8 40 8 40 8 36z"/><path d="m-1676 8h8 40 8 36v-16h-36-8-40-8-4v16z"/><path d="m-1680-160h-36-8-40-8-40-8-40-8-36v16h36 8 40 8 40 8 40 8 36z"/><path d="m-1676-144h8 40 8 36v-16h-36-8-40-8-4v16z"/><path d="m-1860 8h-8z"/><path d="m-1812 8h-8z"/><path d="m-1668 8h-8z"/><path d="m-1764 8h-8z"/><path d="m-1716 8h-8z"/><path d="m-1620 8h-8z"/><path d="m-1860-144h-8z"/><path d="m-1812-144h-8z"/><path d="m-1668-144h-8z"/><path d="m-1764-144h-8z"/><path d="m-1620-144h-8z"/><path d="m-1716-144h-8z"/><path d="m-1628-160h8z"/><path d="m-1724-160h8z"/><path d="m-1772-160h8z"/><path d="m-1676-160h8z"/><path d="m-1820-160h8z"/><path d="m-1868-160h8z"/><path d="m-1904-160h36z"/><path d="m-1724-8h8z"/><path d="m-1628-8h8z"/><path d="m-1772-8h8z"/><path d="m-1820-8h8z"/><path d="m-1868-8h8z"/><path d="m-1676-8h8z"/><path d="m-1820 144h8z"/><path d="m-1868 144h8z"/><path d="m-1676 144h8z"/><path d="m-1772 144h8z"/><path d="m-1628 144h8z"/><path d="m-1724 144h8z"/><path d="m-1620 160h-8z"/><path d="m-1716 160h-8z"/><path d="m-1764 160h-8z"/><path d="m-1668 160h-8z"/><path d="m-1860 160h-8z"/><path d="m-1812 160h-8z"/><path d="m8 1584h-16z"/><path d="m8 1904h136-68.1925z"/><path d="m160 1904h128z"/><path d="m-144 1772v-8-40-8-40-8-40-8-36h-16v36 8 40 8 40 8 40 8 36h16z"/><path d="m-160 1808v4 8 40 8 36h16v-36-8-40-8-4z"/><path d="m8 1808v-36-8-40-8-40-8-40-8-36h-16v36 8 40 8 40 8 40 8 36z"/><path d="m8 1904v-36-8-40-8-4h-16v4 8 40 8 36z"/><path d="m160 1772v-8-40-8-40-8-40-8-36h-16v36 8 40 8 40 8 40 8 36h16z"/><path d="m144 1808v4 8 40 8 36h16v-36-8-40-8-4z"/><path d="m-8 1820v-8z"/><path d="m-8 1868v-8z"/><path d="m-8 1676v-8z"/><path d="m-8 1724v-8z"/><path d="m-8 1772v-8z"/><path d="m-8 1628v-8z"/><path d="m144 1820v-8z"/><path d="m144 1868v-8z"/><path d="m144 1628v-8z"/><path d="m144 1676v-8z"/><path d="m144 1724v-8z"/><path d="m144 1772v-8z"/><path d="m160 1620v8z"/><path d="m160 1764v8z"/><path d="m160 1716v8z"/><path d="m160 1668v8z"/><path d="m160 1860v8z"/><path d="m160 1812v8z"/><path d="m8 1620v8z"/><path d="m8 1764v8z"/><path d="m8 1716v8z"/><path d="m8 1668v8z"/><path d="m8 1860v8z"/><path d="m8 1812v8z"/><path d="m-144 1812v8z"/><path d="m-144 1860v8z"/><path d="m-144 1716v8z"/><path d="m-144 1668v8z"/><path d="m-144 1620v8z"/><path d="m-144 1764v8z"/><path d="m-160 1628v-8z"/><path d="m-160 1772v-8z"/><path d="m-160 1676v-8z"/><path d="m-160 1724v-8z"/><path d="m-160 1868v-8z"/><path d="m-160 1820v-8z"/><path d="m288 1620v-36z"/><path d="m288 1668v-40z"/><path d="m288 1716v-36-4 4z"/><path d="m288 1764v-40z"/><path d="m288 1812v-40z"/><path d="m288 1860v-40z"/><path d="m1820 288h40z"/><path d="m1628 288h40z"/><path d="m1724 288h40z"/><path d="m1676 288h40z"/><path d="m1772 288h36 4-4z"/><path d="m1868 288h36z"/><path d="m1860-288h-40z"/><path d="m1812-288h-4-36 36z"/><path d="m1764-288h-40z"/><path d="m1716-288h-40z"/><path d="m1668-288h-40z"/><path d="m1620-288h-36z"/><path d="m1668 8h-40z"/><path d="m1620 8h-36z"/><path d="m1764 8h-40z"/><path d="m1716 8h-40z"/><path d="m1812 8h-4-36 36z"/><path d="m1860 8h-40z"/><path d="m1868 8h36z"/><path d="m1764-144h-40z"/><path d="m1716-144h-40z"/><path d="m1668-144h-40z"/><path d="m1620-144h-36z"/><path d="m1812-144h-4-36 36z"/><path d="m1860-144h-40z"/><path d="m1820-160h40z"/><path d="m1772-160h36 4-4z"/><path d="m1676-160h40z"/><path d="m1724-160h40z"/><path d="m1628-160h40z"/><path d="m1860-160h8v-128h-8z"/><path d="m1812-160h8v-128h-8z"/><path d="m1764-160h8v-128h-8z"/><path d="m1716-160h8v-128h-8z"/><path d="m1668-160h8v-128h-8z"/><path d="m1620-160h8v-128h-8z"/><path d="m1820-8h40z"/><path d="m1628-8h40z"/><path d="m1676-8h40z"/><path d="m1724-8h40z"/><path d="m1772-8h36 4-4z"/><path d="m1868-8h36z"/><path d="m1868-144h-8v136h8z"/><path d="m1820-144h-8v136h8z"/><path d="m1772-144h-8v136h8z"/><path d="m1724-144h-8v136h8z"/><path d="m1676-144h-8v136h8z"/><path d="m1628-144h-8v136h8z"/><path d="m1628 144h40z"/><path d="m1676 144h40z"/><path d="m1724 144h40z"/><path d="m1868 144h36z"/><path d="m1772 144h36 4-4z"/><path d="m1820 144h40z"/><path d="m1868 8h-8v136h8z"/><path d="m1820 8h-8v136h8z"/><path d="m1772 8h-8v136h8z"/><path d="m1724 8h-8v136h8z"/><path d="m1676 8h-8v136h8z"/><path d="m1628 8h-8v136h8z"/><path d="m1868 160h36z"/><path d="m1860 160h-40z"/><path d="m1812 160h-4-36 36z"/><path d="m1764 160h-40z"/><path d="m1716 160h-40z"/><path d="m1620 160h-36z"/><path d="m1668 160h-40z"/><path d="m1868 160h-8v128h8z"/><path d="m1820 160h-8v128h8z"/><path d="m1772 160h-8v128h8z"/><path d="m1724 160h-8v128h8z"/><path d="m1676 160h-8v128h8z"/><path d="m1628 160h-8v128h8z"/><path d="m-1668 288h40z"/><path d="m-1860 288h40z"/><path d="m-1764 288h40z"/><path d="m-1812 288h40z"/><path d="m-1716 288h36 4-4z"/><path d="m-1620 288h36z"/><path d="m-1868-288h-36z"/><path d="m-1820-288h-40z"/><path d="m-1772-288h-40z"/><path d="m-1724-288h-40z"/><path d="m-1676-288h-4-36 36z"/><path d="m-1628-288h-40z"/><path d="m-1772 8h-40z"/><path d="m-1820 8h-40z"/><path d="m-1676 8h-4-36z"/><path d="m-1724 8h-40z"/><path d="m-1628 8h-40 24z"/><path d="m-1772-144h-40z"/><path d="m-1820-144h-40z"/><path d="m-1868-144h-36z"/><path d="m-1676-144h-4-36 36z"/><path d="m-1724-144h-40z"/><path d="m-1628-144h-40z"/><path d="m-1668-160h40-16z"/><path d="m-1620-160h36z"/><path d="m-1764-160h40z"/><path d="m-1716-160h36 4z"/><path d="m-1860-160h40z"/><path d="m-1812-160h40z"/><path d="m-1628-160h8v-128h-8z"/><path d="m-1676-160h8v-128h-8z"/><path d="m-1724-160h8v-128h-8z"/><path d="m-1772-160h8v-128h-8z"/><path d="m-1820-160h8v-128h-8z"/><path d="m-1868-160h8v-128h-8z"/><path d="m-1668-8h40z"/><path d="m-1860-8h40z"/><path d="m-1812-8h40z"/><path d="m-1764-8h40z"/><path d="m-1716-8h36 4-4z"/><path d="m-1620-8h36z"/><path d="m-1620-144h-8v136h8z"/><path d="m-1668-144h-8v136h8z"/><path d="m-1716-144h-8v136h8z"/><path d="m-1764-144h-8v136h8z"/><path d="m-1812-144h-8v136h8z"/><path d="m-1860-144h-8v136h8z"/><path d="m-1860 144h40z"/><path d="m-1812 144h40z"/><path d="m-1620 144h36z"/><path d="m-1716 144h36 4-4z"/><path d="m-1764 144h40z"/><path d="m-1668 144h40z"/><path d="m-1620 8h-8v136h8z"/><path d="m-1668 8h-8v136h8z"/><path d="m-1716 8h-8v136h8z"/><path d="m-1764 8h-8v136h8z"/><path d="m-1812 8h-8v136h8z"/><path d="m-1860 8h-8v136h8z"/><path d="m-1628 160h-40 24z"/><path d="m-1724 160h-40z"/><path d="m-1676 160h-4-36z"/><path d="m-1772 160h-40z"/><path d="m-1820 160h-40z"/><path d="m-1620 160h-8v128h8z"/><path d="m-1668 160h-8v128h8z"/><path d="m-1716 160h-8v128h8z"/><path d="m-1764 160h-8v128h8z"/><path d="m-1812 160h-8v128h8z"/><path d="m-1860 160h-8v128h8z"/><path d="m-288 1820v40z"/><path d="m-288 1628v40z"/><path d="m-288 1724v40z"/><path d="m-288 1676v4 36-36z"/><path d="m-288 1772v40z"/><path d="m-288 1868v36z"/><path d="m-8 1868v36z"/><path d="m-8 1812v-4-36z"/><path d="m-8 1860v-40z"/><path d="m-8 1764v-40z"/><path d="m-8 1716v-40z"/><path d="m-8 1668v-40 16z"/><path d="m-8 1620v-36z"/><path d="m144 1812v-4-36z"/><path d="m144 1860v-40z"/><path d="m144 1764v-40z"/><path d="m144 1716v-40 4z"/><path d="m144 1668v-40z"/><path d="m144 1620v-36z"/><path d="m160 1628v40-24z"/><path d="m160 1676v40z"/><path d="m160 1724v40z"/><path d="m160 1820v40z"/><path d="m160 1772v36 4z"/><path d="m160 1620v8h128v-8z"/><path d="m160 1668v8h128v-8z"/><path d="m160 1716v8h128v-8z"/><path d="m160 1764v8h128v-8z"/><path d="m160 1812v8h128v-8z"/><path d="m160 1860v8h128v-8z"/><path d="m8 1628v40-24z"/><path d="m8 1676v40z"/><path d="m8 1724v40z"/><path d="m8 1820v40z"/><path d="m8 1772v36 4z"/><path d="m8 1620v8h136v-8z"/><path d="m8 1668v8h136v-8z"/><path d="m8 1716v8h136v-8z"/><path d="m8 1764v8h136v-8z"/><path d="m8 1812v8h136v-8z"/><path d="m8 1860v8h136v-8z"/><path d="m-144 1868v36z"/><path d="m-144 1772v36 4z"/><path d="m-144 1820v40z"/><path d="m-144 1628v40z"/><path d="m-144 1676v40-36z"/><path d="m-144 1724v40z"/><path d="m-144 1620v8h136v-8z"/><path d="m-144 1668v8h136v-8z"/><path d="m-144 1716v8h136v-8z"/><path d="m-144 1764v8h136v-8z"/><path d="m-144 1812v8h136v-8z"/><path d="m-144 1860v8h136v-8z"/><path d="m-160 1620v-36z"/><path d="m-160 1668v-40 16z"/><path d="m-160 1764v-40z"/><path d="m-160 1716v-40z"/><path d="m-160 1860v-40z"/><path d="m-160 1812v-4-36z"/><path d="m-288 1628h128v-8h-128z"/><path d="m-288 1676h128v-8h-128z"/><path d="m-288 1724h128v-8h-128z"/><path d="m-288 1772h128v-8h-128z"/><path d="m-288 1820h128v-8h-128z"/><path d="m-288 1868h128v-8h-128z"/><path d="m-160 1868v36z"/><path d="m288 1676v-8-40-8-36 96z"/><path d="m288 1904v-36z"/><path d="m1812 288h8 40 8 36-96z"/><path d="m1904-288h-36z"/><path d="m1808-288h-36-8-40-8-40-8-40-8-36z"/><path d="m1584 160v128z"/><path d="m1584 8v56 80-61.9575z"/><path d="m1584-288v128z"/><path d="m1904 288v-128z"/><path d="m1904 144v-80-56z"/><path d="m1808 8h-36-8-40-8-40-8-40-8-36z"/><path d="m1904-144h-36z"/><path d="m1808-144h-36-8-40-8-40-8-40-8-36z"/><path d="m1868-288v128z"/><path d="m1812-160h8 40 8-60z"/><path d="m1584-160h36z"/><path d="m1724-288v128z"/><path d="m1812-160v-128z"/><path d="m1820-288v128z"/><path d="m1860-160v-128z"/><path d="m1868-160h-8v-128h8z"/><path d="m1820-160h-8v-128h8z"/><path d="m1772-288v128z"/><path d="m1764-160v-128z"/><path d="m1772-160h-8v-128h8z"/><path d="m1668-160v-128z"/><path d="m1716-160v-128z"/><path d="m1724-160h-8v-128h8z"/><path d="m1676-288v128z"/><path d="m1676-160h-8v-128h8z"/><path d="m1628-288v128z"/><path d="m1620-160v-128z"/><path d="m1628-160h-8v-128h8z"/><path d="m1584-8h36z"/><path d="m1812-8h8 40 8 36-96z"/><path d="m1724-144v136z"/><path d="m1812-8v-136z"/><path d="m1860-8v-136z"/><path d="m1868-144v136z"/><path d="m1868-8h-8v-136h8z"/><path d="m1820-144v136z"/><path d="m1820-8h-8v-136h8z"/><path d="m1764-8v-136z"/><path d="m1772-144v136z"/><path d="m1772-8h-8v-136h8z"/><path d="m1668-8v-136z"/><path d="m1676-144v136z"/><path d="m1716-8v-136z"/><path d="m1724-8h-8v-136h8z"/><path d="m1676-8h-8v-136h8z"/><path d="m1628-144v136z"/><path d="m1620-8v-136z"/><path d="m1628-8h-8v-136h8z"/><path d="m1584 144h36z"/><path d="m1812 144h8 40 8 36-96z"/><path d="m1764 144v-136z"/><path d="m1820 8v136z"/><path d="m1860 144v-136z"/><path d="m1868 8v136z"/><path d="m1868 144h-8v-136h8z"/><path d="m1772 8v136z"/><path d="m1812 144v-136z"/><path d="m1820 144h-8v-136h8z"/><path d="m1772 144h-8v-136h8z"/><path d="m1676 8v136z"/><path d="m1724 8v136z"/><path d="m1716 144v-136z"/><path d="m1724 144h-8v-136h8z"/><path d="m1628 8v136z"/><path d="m1668 144v-136z"/><path d="m1676 144h-8v-136h8z"/><path d="m1620 144v-136z"/><path d="m1628 144h-8v-136h8z"/><path d="m1868 160v128z"/><path d="m1808 160h-36-8-40-8-40-8-40-8-36z"/><path d="m1724 160v128z"/><path d="m1812 288v-128z"/><path d="m1820 160v128z"/><path d="m1860 288v-128z"/><path d="m1860 288v-128h8v128z"/><path d="m1812 288v-128h8v128z"/><path d="m1772 160v128z"/><path d="m1764 288v-128z"/><path d="m1764 288v-128h8v128z"/><path d="m1668 288v-128z"/><path d="m1716 288v-128z"/><path d="m1716 288v-128h8v128z"/><path d="m1676 160v128z"/><path d="m1668 288v-128h8v128z"/><path d="m1628 160v128z"/><path d="m1620 288v-128z"/><path d="m1620 288v-128h8v128z"/><path d="m-1676 288h8 40 8 36-96z"/><path d="m-1680-288h-36-8-40-8-40-8-40-8-36z"/><path d="m-1584-288h-36z"/><path d="m-1584 288v-128z"/><path d="m-1584 144v-80-56 67.5898z"/><path d="m-1584-160v-128z"/><path d="m-1904-288v128z"/><path d="m-1868 8h-36z"/><path d="m-1584 8h-36z"/><path d="m-1644 8h-24-8-40-8-40-8-40-8-40-8 188z"/><path d="m-1584-144h-36z"/><path d="m-1680-144h-36-8-40-8-40-8-40-8-36z"/><path d="m-1868-160v-128z"/><path d="m-1628-160h8 36-60z"/><path d="m-1724-160v-128z"/><path d="m-1668-288v128z"/><path d="m-1628-160v-128z"/><path d="m-1620-288v128z"/><path d="m-1620-160h-8v-128h8z"/><path d="m-1716-288v128z"/><path d="m-1676-160v-128z"/><path d="m-1668-160h-8v-128h8z"/><path d="m-1716-160h-8v-128h8z"/><path d="m-1812-288v128z"/><path d="m-1764-288v128z"/><path d="m-1772-160v-128z"/><path d="m-1764-160h-8v-128h8z"/><path d="m-1820-160v-128z"/><path d="m-1812-160h-8v-128h8z"/><path d="m-1860-288v128z"/><path d="m-1860-160h-8v-128h8z"/><path d="m-1904-8h36z"/><path d="m-1676-8h8 40 8 36-96z"/><path d="m-1764-144v136z"/><path d="m-1676-8v-136z"/><path d="m-1628-8v-136z"/><path d="m-1620-144v136z"/><path d="m-1620-8h-8v-136h8z"/><path d="m-1668-144v136z"/><path d="m-1668-8h-8v-136h8z"/><path d="m-1724-8v-136z"/><path d="m-1716-144v136z"/><path d="m-1716-8h-8v-136h8z"/><path d="m-1820-8v-136z"/><path d="m-1812-144v136z"/><path d="m-1772-8v-136z"/><path d="m-1764-8h-8v-136h8z"/><path d="m-1812-8h-8v-136h8z"/><path d="m-1860-144v136z"/><path d="m-1868-8v-136z"/><path d="m-1860-8h-8v-136h8z"/><path d="m-1904 144h36z"/><path d="m-1676 144h8 40 8 36-96z"/><path d="m-1724 144v-136z"/><path d="m-1668 8v136z"/><path d="m-1628 144v-136z"/><path d="m-1620 8v136z"/><path d="m-1620 144h-8v-136h8z"/><path d="m-1716 8v136z"/><path d="m-1676 144v-136z"/><path d="m-1668 144h-8v-136h8z"/><path d="m-1716 144h-8v-136h8z"/><path d="m-1812 8v136z"/><path d="m-1764 8v136z"/><path d="m-1772 144v-136z"/><path d="m-1764 144h-8v-136h8z"/><path d="m-1860 8v136z"/><path d="m-1820 144v-136z"/><path d="m-1812 144h-8v-136h8z"/><path d="m-1868 144v-136z"/><path d="m-1860 144h-8v-136h8z"/><path d="m-1868 288v-128z"/><path d="m-1644 160h-24-8-40-8-40-8-40-8-40-8 188z"/><path d="m-1584 160h-36z"/><path d="m-1724 288v-128z"/><path d="m-1668 160v128z"/><path d="m-1628 288v-128z"/><path d="m-1620 160v128z"/><path d="m-1628 288v-128h8v128z"/><path d="m-1716 160v128z"/><path d="m-1676 288v-128z"/><path d="m-1676 288v-128h8v128z"/><path d="m-1724 288v-128h8v128z"/><path d="m-1812 160v128z"/><path d="m-1764 160v128z"/><path d="m-1772 288v-128z"/><path d="m-1772 288v-128h8v128z"/><path d="m-1820 288v-128z"/><path d="m-1820 288v-128h8v128z"/><path d="m-1860 160v128z"/><path d="m-1868 288v-128h8v128z"/><path d="m-1868 160h-36z"/><path d="m-288 1680v36 8 40 8 40 8 40 8 36-96z"/><path d="m-160 1584h-128z"/><path d="m-8 1584h-56-80 61.9575z"/><path d="m288 1584h-128z"/><path d="m-288 1904h128z"/><path d="m-144 1904h80 56z"/><path d="m-8 1628v-8-36 60z"/><path d="m144 1904v-36z"/><path d="m144 1676v-8-40-8-36 96z"/><path d="m288 1868h-128z"/><path d="m160 1584v36z"/><path d="m160 1644v24 8 40 8 40 8 40 8 40 8-60z"/><path d="m288 1724h-128z"/><path d="m160 1668h128z"/><path d="m288 1628h-128z"/><path d="m160 1620h128z"/><path d="m288 1628h-128v-8h128z"/><path d="m160 1716h128z"/><path d="m288 1676h-128z"/><path d="m288 1676h-128v-8h128z"/><path d="m288 1724h-128v-8h128z"/><path d="m160 1812h128z"/><path d="m288 1772h-128z"/><path d="m160 1764h128z"/><path d="m288 1772h-128v-8h128z"/><path d="m288 1820h-128z"/><path d="m288 1820h-128v-8h128z"/><path d="m160 1860h128z"/><path d="m288 1868h-128v-8h128z"/><path d="m144 1868h-136z"/><path d="m8 1584v36z"/><path d="m8 1644v24 8 40 8 40 8 40 8 40 8-60z"/><path d="m144 1724h-136z"/><path d="m8 1668h136z"/><path d="m144 1628h-136z"/><path d="m8 1620h136z"/><path d="m8 1628v-8h136v8z"/><path d="m8 1716h136z"/><path d="m144 1676h-136z"/><path d="m8 1676v-8h136v8z"/><path d="m8 1724v-8h136v8z"/><path d="m8 1812h136z"/><path d="m144 1772h-136z"/><path d="m8 1764h136z"/><path d="m8 1772v-8h136v8z"/><path d="m144 1820h-136z"/><path d="m8 1820v-8h136v8z"/><path d="m8 1860h136z"/><path d="m8 1868v-8h136v8z"/><path d="m-144 1680v36 8 40 8 40 8 40 8 36-96z"/><path d="m-144 1584v36z"/><path d="m-144 1764h136z"/><path d="m-8 1676h-136z"/><path d="m-8 1628h-136z"/><path d="m-144 1620h136z"/><path d="m-144 1628v-8h136v8z"/><path d="m-144 1668h136z"/><path d="m-144 1676v-8h136v8z"/><path d="m-8 1724h-136z"/><path d="m-144 1716h136z"/><path d="m-144 1724v-8h136v8z"/><path d="m-8 1820h-136z"/><path d="m-8 1772h-136z"/><path d="m-144 1772v-8h136v8z"/><path d="m-144 1812h136z"/><path d="m-144 1820v-8h136v8z"/><path d="m-144 1860h136z"/><path d="m-8 1868h-136z"/><path d="m-144 1868v-8h136v8z"/><path d="m-160 1868h-128z"/><path d="m-160 1628v-8-36 60z"/><path d="m-160 1724h-128z"/><path d="m-288 1668h128z"/><path d="m-160 1628h-128z"/><path d="m-288 1620h128z"/><path d="m-288 1620h128v8h-128z"/><path d="m-288 1716h128z"/><path d="m-160 1676h-128z"/><path d="m-288 1668h128v8h-128z"/><path d="m-288 1716h128v8h-128z"/><path d="m-288 1812h128z"/><path d="m-160 1772h-128z"/><path d="m-288 1764h128z"/><path d="m-288 1764h128v8h-128z"/><path d="m-160 1820h-128z"/><path d="m-288 1812h128v8h-128z"/><path d="m-288 1860h128z"/><path d="m-288 1860h128v8h-128z"/><path d="m-1440.9929 1263.0776 51.6344 51.4886 172.3656 171.8787z"/><path d="m-1216.9929 1486.4449 51.6344 51.4886 106.7174 106.4159z"/><path d="m-1415.3962-1288.6021-3.1546 3.1457-220.8454 220.2215z"/><path d="m-1191.3962-1511.9692-3.1546 3.1456-220.8454 220.2215z"/><path d="m1817.5565-684-95.4435-224 10.1487 23.8182z"/><path d="m1722.113-908-85.2948-200.1818z"/><path d="m-1086.6415-1613.3585-5.3546 2.2699z"/><path d="m1108.1818 1636.8182-200.1818 85.2948z"/><path d="m1808-288h-224v-11.5898-4.4102h208 16z"/><path d="m1904-304v4.1925 11.8075h-96v-16z"/><path d="m1568-888.1416v-187.9274-36.0726l26.42 26.4949 23.2496 54.565 60.9049 142.9401z"/><path d="m1568-664.1416v-197.9839-26.0161h110.5745l34.5385 81.0599 60.9049 142.9401z"/><path d="m1568-440.1416v-9.2924-210.566-4.1416h206.0179l17.9821 42.2028v181.7972z"/><path d="m1792-397.9388v93.9388h-208-1.8695l-14.1305-33.3333v-102.8083h224z"/><path d="m1792-397.9388v-42.2028-181.7972l16.5565 38.8572 78.887 185.1428z"/><path d="m1904-359.0816v55.0816h-96-16v-93.9388h95.4435z"/><path d="m1582.1305-304h1.8695v4.4102z"/><path d="m1808-144h-224v-16h224z"/><path d="m1868-160h36v16h-96v-16z"/><path d="m64-1680v-224h23.0769 200.9231v224z"/><path d="m288-1584h-139.5898-84.4102v-96h224z"/><path d="m288-1680v-224h23.0769 59.1359l141.7872 57.4482v166.5518z"/><path d="m512-1622.5518v38.5518h-204.3209-19.6791v-96h224z"/><path d="m512-1622.5518v-57.4482-166.5518l82.2128 33.3105 141.7872 57.4482v133.2413z"/><path d="m736-1584h-204.3209-19.6791v-38.5518h224z"/><path d="m960-1584h-204.3209-19.6791v-38.5518-133.2413l82.2128 33.3103 141.7872 57.4484z"/><path d="m1055.0867-1626.5079 42.3879 42.5079h-117.7955-19.6791v-81.0344z"/><path d="m307.6791-1584h204.3209 19.6791v90.2759z"/><path d="m531.6791-1584h204.3209 19.6791v180.5518l-224-90.2759z"/><path d="m755.6791-1584h204.3209 19.6791v224h-116.1925l-107.8075-43.4482z"/><path d="m979.6791-1360v46.8276l-108.6322-43.7807-7.5603-3.0469z"/><path d="m979.6791-1584h117.7955l50.2109 50.3533 55.9937 56.1521v117.4946h-224.0001z"/><path d="m1203.6792-1360v106.5054 30.598l-108.6323-43.7806-115.3678-46.4952v-46.8276z"/><path d="m1203.6792-1360v-117.4946l167.3737 167.8479 55.9934 56.1521h-223.3671z"/><path d="m1427.0463-1253.4946.6329.6346v120.2393l-108.6323-43.7807-115.3677-46.4952v-30.598z"/><path d="m1427.6792-1252.86 140.3208 140.7184v36.0726l-24.9531-10.0565-115.3677-46.4952z"/><path d="m32-1792v-112h16v112z"/><path d="m32-1680v-112h16v112z"/><path d="m48-1584h-16v-96h16z"/><path d="m48-1680v-112-112h16v224z"/><path d="m64-1584h-16v-96h16z"/><path d="m32-1904v112 112h-64v-112-112z"/><path d="m32-1680v96h-64v-96z"/><path d="m1095.0469-1132.9531-224-224 108.6322 43.7807 115.3678 46.4952z"/><path d="m1185.3228-1042.6772-90.2759-90.2759v-133.7241l108.6323 43.7806 115.3677 46.4952v133.7242z"/><path d="m1319.0469-952.4014v43.4483l-133.7241-133.7241h133.7241z"/><path d="m1319.0469-952.4014v-90.2758-133.7242l108.6323 43.7807 115.3677 46.4952v133.7241z"/><path d="m1499.5986-728.4014-169.0326-169.0326-11.5191-11.5191v-43.4483h224v90.2759 133.7241z"/><path d="m1543.0469-684.9531-43.4483-43.4483h43.4483z"/><path d="m1568-1076.069v187.9274 26.0161h-24.9531v-90.2759-133.7241z"/><path d="m1568-862.1255v197.9839 4.1416l-13.434-13.434-11.5191-11.5191v-43.4483-133.7241z"/><path d="m1425.5226-673.434-31.4357-74.1557-63.5209-149.8443 169.0326 169.0326 43.4483 43.4483 11.5191 11.5191z"/><path d="m1520.4791-449.434-31.4356-74.1558-63.5209-149.8442h129.0434l13.434 13.434v210.566z"/><path d="m1568-440.1416v102.8083l-47.5209-112.1007h47.5209z"/><path d="m1808 8h-224v-16h224z"/><path d="m1904-8v16h-36-60v-16z"/><path d="m1808 160h-224v-16h224z"/><path d="m1904 144v4.1925 11.8075h-36-60v-16z"/><path d="m1584 304h.8276l-.8276 2.0425z"/><path d="m304 1711.174v-127.174-1.8695l219.5897-93.087 4.4103-1.8695v129.0434 94.9566z"/><path d="m528 1832.0261-168.9184 71.9739h-55.0816v-96-96.826h224z"/><path d="m528 1616.2174v-129.0434l219.5897-93.0871 4.4103-1.8695v129.0435 94.9565z"/><path d="m752 1736.5826-168.9183 71.9739-55.0817 23.4696v-120.8521-94.9566h224z"/><path d="m752 1521.2609v-129.0435l148.1118-62.7865 75.8882-32.17v129.0434 94.9566z"/><path d="m976 1641.1392-168.9183 71.9738-55.0817 23.4696v-120.3652-94.9565h224z"/><path d="m976 1426.3043v-129.0434l148.1118-62.7865 75.8882-32.1701v129.0435 94.9565z"/><path d="m1200 1480.3898-114.3533 114.0302-54.565 23.2496-55.0817 23.4696v-119.8783-94.9566h224z"/><path d="m1424 1237.4194v19.6032l-74.5358 74.3252h-149.4642v-129.0435l148.1118-62.7865 75.8882-32.17z"/><path d="m1349.4642 1331.3478-39.8175 39.7051-109.6467 109.3369v-54.0855-94.9565z"/><path d="m1424.0441 1107.3292 148.0677-62.7679 73.4627-31.1418-15.2648 37.8762-96.663 96.3898-89.988 89.7339h-19.6587v-130.0716z"/><path d="m1443.6587 1237.4194-19.6587 19.6032v-19.6032z"/><path d="m1124.1118 1106.6964v127.778l-148.1118 62.7865-75.8882 32.17 224-223.3673z"/><path d="m1124.1118 1106.6964v-.6328l224-223.3672v.6328 223.3672z"/><path d="m1348.1118 1107.3291v32.1887l-148.1118 62.7865-75.8882 32.1701v-127.778h224z"/><path d="m1348.1118 883.3292v-.6328l3.7652-3.7546 105.1479-104.8509 115.0869-114.7617v.6327 223.3673z"/><path d="m1572.1118 883.9619v160.5994l-148.0677 62.7679-75.9323-.0001v-.6327-223.3672h224z"/><path d="m1424.0441 1107.3292-.0441.0186-75.8882 32.17v-32.1887z"/><path d="m1796.1118 552.3785v87.5152l-8.0879 20.0682h-215.9121v-.6327l3.7652-3.7545 127.936-127.5747 92.2988-92.0381z"/><path d="m1788.0239 659.9619-67.4383 167.3338-22.8376 56.6662h-125.6362v-.6327-223.3673z"/><path d="m1697.748 883.9619-52.1735 129.4576-73.4627 31.1418v-160.5994z"/><path d="m1799.877 432.2075 104.123-103.829v43.814l-72.618 180.186h-35.2702v-116.4166z"/><path d="m1831.382 552.3785-20.5205 50.9172-14.7497 36.598v-87.5152z"/><path d="m1485.1183 550.0909 48.276-119.1491 42.4827-104.8509v201.9091 22.0909z"/><path d="m1575.877 655.5747-3.7652 3.7545-115.0869 114.7617h-62.6652l48.2759-119.1491 42.4827-104.8509h90.7587z"/><path d="m1457.0249 774.0909-105.1479 104.8509 42.4827-104.8509z"/><path d="m1799.877 432.2075-3.7652 3.7544-92.2988 92.0381h-127.936v-201.9091l8.123-20.0484.8276-2.0425h215.0494z"/><path d="m1703.813 528-127.936 127.5747v-105.4838-22.0909z"/><path d="m1808 304h96v24.3785l-104.123 103.829v-128.2075z"/><path d="m1808 304h-8.123-215.0494-.8276v-16h224z"/><path d="m1904 288v16h-96v-16z"/><path d="m304 1584h-4.4102l4.4102-1.8695z"/><path d="m288 1808v-128-96h11.5898 4.4102v127.174 96.826z"/><path d="m304 1904h-4.1925-11.8075v-96h16z"/><path d="m144 1680v-96h16v60 164h-16z"/><path d="m160 1808v60 36h-16v-96z"/><path d="m8 1584v60 164h-16v-164-60z"/><path d="m8 1808v60 36h-16v-36-60z"/><path d="m-873.4746-1584h-22.5254-201.4746l13.415-13.453 210.585-89.2698z"/><path d="m-649.4746-1652.6357v68.6357h-22.5254-201.4746v-102.7228l13.415-5.6867 210.585-89.2697z"/><path d="m-649.4746-1652.6357v-129.0435l13.415-5.6869 210.585-89.2696v196.6357 27.3643z"/><path d="m-425.4746-1584h-22.5254-201.4746v-68.6357h224z"/><path d="m-425.4746-1680v-196.6357l13.415-5.6869 51.1365-21.6774h159.4485v224z"/><path d="m-201.4746-1584h-98.1152-125.8848v-68.6357-27.3643h224z"/><path d="m-136.9231-1904h72.9231v224h-137.4746v-224z"/><path d="m-64-1680v96h-11.5898-125.8848v-96z"/><path d="m-64-1680v-224h16v112 112z"/><path d="m-48-1584h-16v-96h16z"/><path d="m-48-1792v-112h16v112z"/><path d="m-48-1680v-112h16v112z"/><path d="m-32-1584h-16v-96h16z"/><path d="m-1418.5508-1281.4492-224 224 3.1546-7.7857 220.8454-220.2215z"/><path d="m-1194.5508-1505.4492-224 224v-4.0072l3.1546-3.1457 220.8454-220.2215z"/><path d="m-1191.3962-1511.9692 99.4001-99.1194 5.3546-2.2699-107.9093 107.9093v-3.3744z"/><path d="m-1344-1141.2609-67.1945 28.4847h-156.1727l163.1216-163.5838 60.2456-60.4162z"/><path d="m-1411.1945-1112.7762-156.8055 66.4719v-65.8373l.6328-.6346z"/><path d="m-1343.3672-1337.4108 162.4889-162.9492 60.8783-61.0508v201.4108 22.5892z"/><path d="m-1120-1236.2174-224 94.9565v-195.5153l.6328-.6346h223.3672z"/><path d="m-1097.4746-1584h201.4746v224h-224v-201.4108z"/><path d="m-896-1360v28.826l-6.2126 2.6337-217.7874 92.3229v-101.1934-22.5892z"/><path d="m-896-1584h22.5254 201.4746v157.8695l-6.2126 2.6337-149.7874 63.4968h-68z"/><path d="m-828-1360-68 28.826v-28.826z"/><path d="m-672-1584h22.5254 201.4746v62.9131l-6.2126 2.6335-217.7874 92.3229z"/><path d="m-448-1584h22.5254 125.8848l-148.4102 62.9131z"/><path d="m-1568-649.5052v-11.3617l32.3025-32.394 179.7351-180.2443-47.4858 117.8261-42.79 106.1739z"/><path d="m-1568-425.5052v-14.6364-209.3636h121.7618l-47.4859 117.8261-42.7899 106.1739z"/><path d="m-1568-347.3797v-78.1255h31.486z"/><path d="m-1568-917.2609v-129.0434l156.8055-66.4719 67.1945-28.4847v129.0435 94.9565z"/><path d="m-1344-885.5014-11.9624 11.9962-179.7351 180.2443h-32.3025v-194.8807-29.1193h224z"/><path d="m-1535.6975-693.2609-32.3025 32.394v-3.2747-29.1193z"/><path d="m-1120-1110.136-12.5951 12.6309-85.0469 85.2877h-126.358v-129.0435l224-94.9565z"/><path d="m-1217.642-1012.2174-126.358 126.716v-31.7595-94.9565z"/><path d="m-902.2126-1328.5403-217.7874 218.4043v-126.0814z"/><path d="m-1584-888.1416v-207.9547l16-16.0453v65.8373 129.0434 29.1193z"/><path d="m-1584-664.1416v-207.9547-16.0453h16v194.8807 29.1193z"/><path d="m-1584-440.1416v-207.9547-16.0453h16v3.2747 11.3617 209.3636z"/><path d="m-1568-425.5052v78.1255l-16 39.7006v-116.4172-16.0453h16z"/><path d="m-1680-288h-224v-16h224z"/><path d="m-1584-304v16h-96v-16z"/><path d="m-1770.7587-699.0638 48.2759-119.149 42.4828-104.851v50.9675 173.0325z"/><path d="m-1861.5172-475.0638 48.2759-119.149 42.4826-104.851h90.7587v50.9675 173.0325z"/><path d="m-1680-424.0963v120.0963h-224v-7.0769-59.1359l42.4828-104.851h181.5172z"/><path d="m-1680-872.0963v-50.9675l52.3872-129.2962 43.6128-43.7363v207.9547 16.0453z"/><path d="m-1680-648.0963v-50.9675-173.0325h96v207.9547 16.0453z"/><path d="m-1680-424.0963v-50.9675-173.0325h96v207.9547 16.0453z"/><path d="m-1584-307.6791v3.6791h-96v-120.0963h96z"/><path d="m-1680-144h-224v-16h36 188z"/><path d="m-1644-160h60v11.5898 4.4102h-96v-16z"/><path d="m-1440.9929 1263.0776-169.0189-168.5413-1.0768-2.5402-2.2699-5.3546 224 224v3.9247z"/><path d="m-1389.3585 1310.6415 224 224v3.292l-51.6344-51.4886-172.3656-171.8787z"/><path d="m-1165.3585 1534.6415 111.7268 111.7268-5.0094-2.0189-106.7174-106.4159z"/><path d="m-1236.3453 1119.6981-29.7416-70.1596-65.215-153.8404 224 224z"/><path d="m-1141.3888 1343.6981-90.6112-213.7494-4.3453-10.2506h129.0434v224z"/><path d="m-1107.3019 1424.1084-29.7416-70.1597-4.3453-10.2506h34.0869z"/><path d="m-1107.3019 1343.6981v-224l224 224z"/><path d="m-883.3019 1568h-1.6981-161.3043l-60.9976-143.8916v-80.4103h224z"/><path d="m-872.5217 1354.4783 213.5217 213.5217h-2-222.3019v-224.3019z"/><path d="m-1833.174 528-52.4692-123.7736-18.3568-43.3033v-56.9231h224v224z"/><path d="m-1738.2174 752-52.4692-123.7736-42.4874-100.2264h153.174v224z"/><path d="m-1680 889.3333-15.7301-37.1069-42.4873-100.2264h58.2174z"/><path d="m-1680 528v-224h96 1.8695l60.9155 143.6981 34.041 80.3019z"/><path d="m-1680 752v-224h192.826l31.174 73.5385v150.4615z"/><path d="m-1643.2609 976-36.7391-86.6667v-137.3333h224v73.5385 150.4615z"/><path d="m-1477 1200-123.7736-123.7736-42.4873-100.2264h187.2609v73.5385 150.4615z"/><path d="m-1456 1221-21-21h21z"/><path d="m-1456 825.5385v-73.5385-150.4615l29.7416 70.1596 65.2149 153.8404z"/><path d="m-1456 1049.5385v-73.5385-150.4615h94.9565l29.7416 70.1596 65.215 153.8404z"/><path d="m-1403.4615 1273.5385-52.5385-52.5385v-21-150.4615h189.9131l29.7416 70.1596 4.3453 10.2506v143.5898z"/><path d="m-1232 1353.9487v91.0513l-144.7736-144.7736-26.6879-26.6879h171.4615z"/><path d="m-1232 1353.9487v-80.4102-143.5898l90.6112 213.7494 4.3453 10.2506z"/><path d="m-1107.3019 1424.1084 60.9976 143.8916h-62.6957l-43.7736-43.7736-79.2264-79.2264v-91.0513h94.9565z"/><path d="m-648.5217 1568h-10.4783l-213.5217-213.5217 224 90.7586z"/><path d="m-424.5217 1568h-12.4783-211.5217v-122.7631l224 90.7586z"/><path d="m-345.5319 1568h-78.9898v-32.0045z"/><path d="m-1680 8h-188-36v-16h224z"/><path d="m-1584-8v16h-60-36v-16z"/><path d="m-1680 160h-188-36v-16h224z"/><path d="m-1584 144v16h-60-36v-16z"/><path d="m-1582.1305 304h-1.8695v-4.4102z"/><path d="m-1680 304h-224v-16h224z"/><path d="m-1584 288v11.5898 4.4102h-96v-16z"/><path d="m-1610.0118 1094.5363-54.9811-54.8259-1.3179-3.093 55.2222 55.3787z"/><path d="m-160 1644v-60h16v96 128h-16z"/><path d="m-144 1808v96h-4.1925-11.8075v-36-60z"/><path d="m-1093 1584-16-16h62.6957 161.3043v16z"/><path d="m-885 1568h1.6981 222.3019v16h-208-16z"/><path d="m-661 1568h2 10.4783 211.5217v16h-208-16z"/><path d="m-437 1568h12.4783 78.9898l39.4894 16h-114.9575-16z"/><path d="m-304 1808v-224h16v96 128z"/><path d="m-288 1904h-16v-96h16z"/><path d="m-869 1703.7781-174.5812-70.3593-49.4188-49.4188h208 16z"/><path d="m-645 1794.0538-174.5812-70.3591-49.4188-19.9166v-119.7781h208 16z"/><path d="m-610.3958 1808-34.6042-13.9462v-210.0538h208 16v224z"/><path d="m-421 1884.3297-174.5812-70.3592-14.8146-5.9705h189.3958z"/><path d="m-306.0425 1584h2.0425v224h-117v-224z"/><path d="m-304 1808v96h-68.1925l-48.8075-19.6703v-76.3297z"/><path d="m-1613.3585 1086.6415 184.0755 184.0755 23 23 16.9245 16.9245z"/><path d="m1904-304v-55.0816 59.2741z"/><path d="m-136.9231-1904h-64.5515-159.4485 183.8975z"/><path d="m87.0769-1904h-23.0769-16-16-64-16-16-72.9231 183.8975z"/><path d="m311.0769-1904h-23.0769-200.9231 183.8975z"/><path d="m304 1904h55.0816-59.2741z"/><path d="m-1904 136.9231v7.0769 16 128 16 56.9231-101.0933z"/><path d="m-1904-87.0769v79.0769 16 128.9231-101.0933z"/><path d="m-1904-311.0769v7.0769 16 128 16 56.9231-101.0933z"/><path d="m-1404.2456-1276.36-163.1216 163.5838-.6328.6346-16 16.0453-43.6128 43.7363 195.3651-195.9186 19.4188-19.4737z"/><path d="m-1180.8783-1500.36-162.4889 162.9492-.6328.6346-60.2456 60.4162 195.9979-196.5531z"/><path d="m1185.3228-1042.6772 133.7241 133.7241 11.5191 11.5191-50.0462-50.0462-185.4729-185.4729z"/><path d="m1594.42-1085.6467 23.2496 54.565z"/><path d="m594.2128-1813.2413-82.2128-33.3105-141.7872-57.4482z"/><path d="m818.2128-1722.4828-82.2128-33.3103-141.7872-57.4482z"/><path d="m1371.0529-1309.6467-167.3737-167.8479-55.9937-56.1521 102.957 103.2485z"/><path d="m1147.6855-1533.6467-50.2109-50.3533-42.3879-42.5079z"/><path d="m288-1584h19.6791-159.2689z"/><path d="m-860.0596-1692.4095-13.415 5.6867-210.585 89.2698z"/><path d="m-636.0596-1787.3661-13.415 5.6869-210.585 89.2697z"/><path d="m-412.0596-1882.3226-13.415 5.6869-210.585 89.2696z"/><path d="m1124.1118 1106.0636-224 223.3673 181.3977-180.8852 25.1261-25.0552z"/><path d="m1584 82.0425v61.9575 16 128 16 2.0425-195.3758z"/><path d="m1584-141.9575v133.9575 16 74.0425-195.3758z"/><path d="m-1107.3019 1119.6981-224-224 185.8114 185.8114 21.9999 21.9999z"/><path d="m-1584-160v-128-16-3.6791 159.2689z"/><path d="m-82.0425 1584h-61.9575-16-128-16-2.0425 184.5106z"/><path d="m141.9575 1584h-133.9575-16-74.0425 184.5106z"/><path d="m-448-1521.0869 148.4102-62.9131-37.7435 16-101.6856 43.1058-15.1937 6.4408z"/><path d="m-1120-1110.136 217.7874-218.4043-22.2675 22.3306-208.115 208.7046z"/><path d="m-1426.2584 671.6981-29.7416-70.1596-31.174-73.5385-34.041-80.3019 31.1715 73.5327z"/><path d="m-1521.215 447.6981-60.9155-143.6981-1.8695-4.4102 16 37.7435z"/><path d="m1442.6356 654.9418-48.2759 119.1491-42.4827 104.8509 17.5867-43.4055 33.3613-82.3384z"/><path d="m1533.3943 430.9418-48.276 119.1491-42.4827 104.8509 50.948-125.7439z"/><path d="m523.5897 1489.0435-219.5897 93.087-4.4102 1.8695 37.7435-16 182.381-77.3137z"/><path d="m747.5897 1394.0869-219.5897 93.0871-4.4103 1.8695 220.1246-93.3136z"/><path d="m-872.5217 1354.4783 36.9854 14.9854 187.0146 75.7732z"/><path d="m1520.4791-449.434 47.5209 112.1007 14.1305 33.3333 1.8695 4.4102-16-37.7435-29.3788-69.3038-15.1514-35.7417-34.4263-81.211z"/><path d="m-1355.9624-873.5052-6.42 15.93-10.0977 25.0554-30.9681 76.8407z"/><path d="m531.6791-1493.7241 224 90.2759-2.4812-1z"/><path d="m755.6791-1403.4482 107.8075 43.4482 7.5603 3.0469-38.5271-15.527z"/><path d="m-1813.2413-594.2128-48.2759 119.149-42.4828 104.851 59.4828-146.8085z"/><path d="m-1722.4828-818.2128-48.2759 119.149-42.4826 104.851 59.4826-146.8085z"/><path d="m-1695.7301 852.2264 15.7301 37.1069 36.7391 86.6667 42.4873 100.2264-79.2264-186.8931z"/><path d="m-1790.6866 628.2264 52.4692 123.7736 42.4873 100.2264-18.3568-43.3033z"/><path d="m-1885.6432 404.2264 52.4692 123.7736 42.4874 100.2264-18.3569-43.3033z"/><path d="m-421 1884.3297 48.8075 19.6703-223.3887-90.0295z"/><path d="m-1376.7736 1300.2264 144.7736 144.7736 79.2264 79.2264-29.5094-29.5094z"/><path d="m-1152.7736 1524.2264 43.7736 43.7736 16 16 49.4188 49.4188z"/><path d="m1085.6467 1594.42-54.565 23.2496z"/><path d="m1831.382 552.3785 72.618-180.186-49.6903 123.2958-43.4482 107.8074z"/><path d="m1630.3097 1051.2957-96.663 96.3898z"/><path d="m-1086.6415-1613.3585-107.9093 107.9093z"/><path d="m-1613.3585 1086.6415 2.2699 5.3546z"/><path d="m288 1680v128 96-36-8-40-8-40-8-40-8z"/><path d="m1808 288h-224 36 8 40 8 40 8 40 8z"/><path d="m1904-288h-36-8-40-8-4z"/><path d="m1868 8h-8-40-8-4z"/><path d="m1904-144h-36-8-40-8-4z"/><path d="m1904-160h-36z"/><path d="m1808-160h-224 36 8 40 8 40 8 40 8z"/><path d="m1808-8h-224 36 8 40 8 40 8 40 8z"/><path d="m1808 144h-224 36 8 40 8 40 8 40 8z"/><path d="m1868 160h-8-40-8-4z"/><path d="m-1680 288h-224 36 8 40 8 40 8 40 8z"/><path d="m-1584-288h-36-8-40-8-4z"/><path d="m-1584 8h-36-8-16z"/><path d="m-1584-144h-36-8-40-8-4z"/><path d="m-1644-160h-36-188 8 40 8 40 8 40 8 40 8z"/><path d="m-1680-8h-224 36 8 40 8 40 8 40 8z"/><path d="m-1680 144h-224 36 8 40 8 40 8 40 8z"/><path d="m-1584 160h-36-8-16z"/><path d="m-288 1584v36 8 40 8 4z"/><path d="m141.9575 1584h2.0425-136z"/><path d="m-8 1644v164 60-8-40-8-40-8-40-8-40-8z"/><path d="m144 1680v128 96-36-8-40-8-40-8-40-8z"/><path d="m160 1584v36 8 16z"/><path d="m160 1904v-36z"/><path d="m8 1584v36 8 16z"/><path d="m8 1904v-36z"/><path d="m-144 1584v36 8 40 8 4z"/><path d="m-160 1644v164 60-8-40-8-40-8-40-8-40-8z"/><path d="m-139.282-1920h-37.7436-186.2564 186.2564z"/><path d="m144-1920h-97.0256-126.9744 16 16 160 16z"/><path d="m1920-363.282v65.9558z"/><path d="m-1920 139.282v120.5478 103.4522-103.4522z"/><path d="m-1920-84.718v120.5478 103.4522-103.4522z"/><path d="m-1920-308.718v120.5478 103.4522-103.4522z"/><path d="m363.282 1920h-65.9558z"/><path d="m-1664.9929 1039.7104 54.9811 54.8259 169.0189 168.5413z"/><path d="m-1216.9929 1486.4449-134.9165-134.5355-89.0835-88.8318z"/><path d="m-1058.6411 1644.3494-158.3518-157.9045z"/><path d="m-1639.3962-1065.2349 224-223.3672z"/><path d="m-1415.3962-1288.6021 224-223.3671z"/><path d="m-1091.9961-1611.0886-99.4001 99.1194z"/><path d="m1817.5565-684 95.4435 224z"/><path d="m1722.113-908 95.4435 224z"/><path d="m1636.8182-1108.1818 85.2948 200.1818z"/><path d="m-867.9961-1706.0452-186.6985 79.144-31.9469 13.5427-5.3546 2.2699 5.3546-2.2699 31.9469-13.5427z"/><path d="m-643.9961-1801.0017-216.0635 91.5922-7.9365 3.3643 7.9365-3.3643z"/><path d="m-419.9961-1895.9581-216.0635 91.592-7.9365 3.3644 7.9365-3.3644z"/><path d="m684 1817.5565-224 95.4435z"/><path d="m908 1722.113-224 95.4435z"/><path d="m1108.1818 1636.8182-200.1818 85.2948z"/><path d="m-1611.0886 1091.9961-55.2222-55.3787z"/><path d="m-819.5812 1740.6947-15.0599-6.0695-180.4636-72.7299-28.4765-28.4765 224 90.2759z"/><path d="m-595.5812 1830.9705-15.0599-6.0694-208.9401-84.2064v-17l224 90.2758z"/><path d="m-372.1925 1904h-42.1818l-181.2069-73.0295v-17z"/><path d="m-1826.0435 584.9231-69.9146-164.927-8.0419-18.9705v-40.1025l18.3568 43.3033 76.5997 180.6967z"/><path d="m-1731.0869 808.9231-69.9148-164.927-25.0418-59.073h17l18.3569 43.3033 76.5997 180.6967z"/><path d="m-1680 929.4359-26.0452-61.4398-25.0417-59.073h17l18.3568 43.3033 15.7301 37.1069z"/><path d="m-1600.7736 1076.2264-29.5094-29.5094-49.717-117.2811v-40.1026z"/><path d="m-1613.3585 1086.6415-16.9245-39.9245 29.5094 29.5094 194.4906 194.4906h-23z"/><path d="m-1406.283 1270.717v23l-23-23z"/><path d="m-1406.283 1270.717 29.5094 29.5094 194.4906 194.4906h-23l-184.0755-184.0755-16.9245-16.9245z"/><path d="m-1182.283 1494.717v23l-23-23z"/><path d="m-1182.283 1494.717 29.5094 29.5094 109.1924 109.1924 28.4765 28.4765-38.527-15.527-111.7268-111.7268-16.9245-16.9245z"/><path d="m-1490.0435 521.2308-31.1715-73.5327-46.785-110.3648v-40.1025l60.1058 141.7881 34.8507 82.2119z"/><path d="m-1395.0869 745.2308-31.1715-73.5327-63.7851-150.4673h17l60.1059 141.7881 34.8507 82.2119z"/><path d="m-1344 861-3.4906-3.4905-47.5963-112.2787h17l34.0869 80.4103z"/><path d="m-1317.9811 887.0189-26.0189-26.0189v-35.3589z"/><path d="m-1145.4905 1081.5095-185.8114-185.8114-16.1887-38.1886 3.4906 3.4905 26.0189 26.0189 194.4905 194.4905z"/><path d="m-1123.4906 1103.5094-21.9999-21.9999 21.9999-.0001z"/><path d="m-921.4906 1305.5094-185.8113-185.8113-16.1887-16.1887v-22l29.5095 29.5095 194.4905 194.4905z"/><path d="m-899.4906 1327.5094-22-22h22z"/><path d="m-860.9964 1344.0037 25.4601 25.46-36.9854-14.9854-26.9689-26.9689v-22z"/><path d="m-636.9964 1449.9066-11.5253-4.6697-187.0146-75.7732-25.4601-25.46 224 90.2757z"/><path d="m-412.9964 1540.6653-11.5253-4.6698-212.4747-86.0889v-15.6272l224 90.2759z"/><path d="m-305.1979 1568h-40.334l-67.4645-27.3347v-16.11z"/><path d="m-1680-923.0638-42.4828 104.851-31.2759 77.1915h-17l32.2759-79.6595 58.4828-144.3405z"/><path d="m-1753.7587-741.0213-59.4826 146.8085-31.2759 77.1915h-17l32.2759-79.6595 58.4826-144.3405z"/><path d="m-1844.5172-517.0213-59.4828 146.8085v-41.9574l42.4828-104.8511z"/><path d="m-1656.2477-1023.6439 20.0515-20.1084 8.5834-8.6077-52.3872 129.2962v-41.9575z"/><path d="m-1920-308.718v-63.9628l16-39.4894v41.9574 59.1359 122.9067h-16z"/><path d="m-1904-188.1702v101.0933 122.9067h-16v-120.5478-103.4522z"/><path d="m-1904 35.8298v101.0933 122.9067h-16v-120.5478-103.4522z"/><path d="m-1904 259.8298v101.0933 40.1025l-16-37.7436v-103.4522z"/><path d="m-1584-148.4102v-159.2689l16-39.7006v42.1818 154.4287 27.3895h-16z"/><path d="m-1568-123.3797v196.6105 27.3895h-16v-25.0305-198.9695z"/><path d="m-1568 100.6203v196.6105 40.1025l-16-37.7435v-198.9695z"/><path d="m-1451.2794-636.9964 47.8312-118.6827 30.9681-76.8407 25.0553-25.0554 3.4211-3.4212-43.4445 107.7985-46.8312 116.2015z"/><path d="m-1541.5553-412.9964 47.8312-118.6827 42.4447-105.3173h17l-43.4447 107.7985-46.8312 116.2015z"/><path d="m-1568-305.1979v-42.1818l26.4447-65.6167h17z"/><path d="m-1148.4801-1056.5199-195.5236 195.5235-3.4211 3.4212h-14.9576l6.42-15.93 207.4823-208.07z"/><path d="m-1347.4248-857.5752-25.0553 25.0554 10.0977-25.0554z"/><path d="m-924.4801-1280.5199-195.5236 195.5236-2.7866 2.7866h-25.0571l15.2523-15.2954 208.115-208.7046z"/><path d="m-1122.7903-1082.2097-25.6898 25.6898v-25.0553l.6327-.6345z"/><path d="m-902.2126-1328.5403 44.7031-18.9503-29.5094 29.5095-37.4612 37.4612v-25.6898z"/><path d="m-663.0189-1412.9376-224 94.9565 29.5094-29.5095 179.2969-76.0062 15.1937-6.4408z"/><path d="m-439.0189-1507.8942-224 94.9566v-17l208.8063-88.5158 15.1937-6.4408z"/><path d="m-337.3333-1568h40.1025l-141.7881 60.1058v-17z"/><path d="m-860.0596-1692.4095-224 94.9565 29.365-29.4482 186.6985-79.144 7.9365-3.3643z"/><path d="m-636.0596-1787.3661-224 94.9566v-17l216.0635-91.5922 7.9365-3.3644z"/><path d="m-412.0596-1882.3226-224 94.9565v-17l216.0635-91.592 7.9365-3.3645z"/><path d="m-401.0256-1904h40.1025l-51.1365 21.6774v-17z"/><path d="m-1432.2477-1248.2786-195.3651 195.9186-8.5834 8.6077h-11.9041l.3762-.9285 5.1733-12.7684 210.3031-210.3031z"/><path d="m-1636.1962-1043.7523-20.0515 20.1084 8.1474-20.1084z"/><path d="m-1208.2477-1472.9131-195.9979 196.5531-8.5833 8.6077h-19.4188l13.6969-13.6969 210.3031-210.3031z"/><path d="m-1412.8289-1267.7523-19.4188 19.4737v-19.4737z"/><path d="m-1194.5508-1505.4492 107.9093-107.9093 31.9469-13.5427-29.365 29.4482-96.8187 97.093-27.3694 27.4469v-18.8392z"/><path d="m-121.5319 1584h-184.5106l-39.4894-16h40.334 183.666z"/><path d="m102.4681 1584h-184.5106-39.4894v-16h40.334 183.666z"/><path d="m142.8021 1568h152.9122 41.619l-37.7435 16h-157.6323-39.4894v-16z"/><path d="m-190.3743 1920h-184.2995l-39.7005-16h42.1818 181.8182z"/><path d="m33.6257 1920h-184.2995-39.7005v-16h42.1818 181.8182z"/><path d="m257.6257 1920h-184.2995-39.7005v-16h42.1818 181.8182z"/><path d="m299.8075 1904h59.2741 41.944l-37.7436 16h-65.9558-39.7005v-16z"/><path d="m583.0817 1826.8241-182.0561 77.1759h-41.944l224.0001-95.4435z"/><path d="m807.0817 1731.8676-219.7997 93.1759-4.2003 1.7806v-18.2676l224-95.4435z"/><path d="m1031.0817 1636.911-219.7997 93.1759-4.2003 1.7807v-18.7546l224-95.4434z"/><path d="m1085.6467 1594.42-33.7718 33.6766-16.5928 7.0339-4.2004 1.7805v-19.2414z"/><path d="m1477.7241 529.1979 46.8312-116.2015 43.4447-107.7985v40.334l-34.6057 85.4099-39.8107 98.2561z"/><path d="m1387.4482 753.1979 46.8312-116.2015 43.4447-107.7985h15.8595l-50.948 125.7439-39.8106 98.2561z"/><path d="m1369.4637 835.5363-25.46 25.4601 43.4445-107.7985h15.3768z"/><path d="m1081.5095 1148.5457-181.3977 180.8852-42.6023 18.0597 32.8693-32.8694 191.1307-191.1307z"/><path d="m1305.5095 925.1783-181.3977 180.8853-17.4762 17.4269h-25.1261l32.8693-32.8693 191.1307-191.1307z"/><path d="m1106.6356 1123.4905-25.1261 25.0552v-25.0552z"/><path d="m1344.0037 860.9964 25.46-25.4601-17.5867 43.4055-46.3675 46.2365v-25.6878z"/><path d="m519.7143 1490.6863-182.381 77.3137h-41.619l224-95.4435z"/><path d="m743.7143 1395.7299-220.1246 93.3136-3.8754 1.6428v-18.1298l224-95.4435z"/><path d="m890.3788 1314.6212-32.8693 32.8694-109.9198 46.5963-3.8754 1.643v-18.6169z"/><path d="m1275.8749 1405.3621v18.763l-189.2334 189.2334-34.7666 14.7381 33.7718-33.6766 190.2282-189.6908z"/><path d="m1499.8749 1200.1251-189.2334 189.2334-16.0036 16.0036h-18.763v-.6329l33.7718-33.6763 190.2282-189.6908z"/><path d="m1294.6379 1405.3621-18.763 18.763v-18.763z"/><path d="m1533.6467 1147.6855 96.663-96.3898 28.4224-28.3421-12.3638 30.6781-111.7268 111.7268-34.7666 34.7666v-18.763z"/><path d="m1854.3097 537.67-27.3898 67.9617-45.8861 113.8566h-17l46.8277-116.1926 43.4482-107.8074z"/><path d="m1781.0338 719.4883-44.3896 110.1434-45.8863 113.8566h-17l46.8277-116.1926 43.4482-107.8074z"/><path d="m1690.7579 943.4883-32.0258 79.4653-28.4224 28.3421 43.4482-107.8074z"/><path d="m1904 372.1925v42.1818l-49.6903 123.2957v-42.1817z"/><path d="m1410.0647-666.3788-32.9517-77.3355-62.4918-146.6645 32.8694 32.8693 46.5963 109.9198 34.4264 81.2109z"/><path d="m1505.5082-442.3788-32.9517-77.3355-62.4918-146.6645h18.4486l60.5302 142.789 34.4263 81.211z"/><path d="m1538.6212-364.6645-33.113-77.7143h17.9616l15.1514 35.7417z"/><path d="m1568-337.3333v41.619l-29.3788-68.9502v-41.9726z"/><path d="m1056.5198-1148.4802-195.5234-195.5235-28.4766-28.4764 38.5271 15.527 185.4729 185.473z"/><path d="m1257.5199-947.4801-172.5234-172.5234-28.4767-28.4767v-22.9999l38.5271 38.527 185.4729 185.4729z"/><path d="m1280.5198-924.4802-22.9999-22.9999 22.9999-.0001z"/><path d="m1330.566-897.434 16.9246 39.9245-32.8694-32.8693-34.1014-34.1014v-23z"/><path d="m529.1979-1477.7241-224-90.2759h42.1818l181.8182 73.2759z"/><path d="m753.1979-1387.4482-224-90.2759v-17l2.4812 1 221.5188 89.2759z"/><path d="m755.6791-1403.4482 76.8407 30.9681 28.4766 28.4764-107.7985-43.4445v-17z"/><path d="m594.2128-1813.2413-224-90.7587h41.9574l182.0426 73.7587z"/><path d="m818.2128-1722.4828-224-90.7585v-17l2.468 1 221.532 89.7585z"/><path d="m820.6808-1738.4828 205.9617 83.45 28.4442 28.5249-236.8739-95.9749v-17z"/><path d="m-177.0256-1904h-183.8975-40.1025l37.7436-16h186.2564z"/><path d="m46.9744-1904h-183.8975-40.1025v-16h37.7436 59.282 126.9744z"/><path d="m270.9744-1904h-183.8975-40.1025v-16h97.0256 126.9744z"/><path d="m372.6808-1920 39.4894 16h-41.9574-59.1359-40.1025v-16z"/><path d="m-113.3333-1568h-183.8975-40.1025l37.7435-16h186.2565z"/><path d="m110.6667-1568h-183.8975-40.1025v-16h37.7435 186.2565z"/><path d="m148.4102-1584h159.2689l39.7006 16h-42.1818-177.1979-17.3333v-16z"/><path d="m1689.8635-861.6467-72.1939-169.435-23.2496-54.565 33.6766 33.7718 7.0339 16.5928 73.6062 173.6354z"/><path d="m1785.307-637.6467-72.194-169.435-23.2495-54.565h18.8732l21.3502 50.3647 73.6063 173.6353z"/><path d="m1818.42-559.9326-9.8635-23.1491-23.2495-54.565h18.3862l14.7268 34.7401z"/><path d="m1895.5529-378.9066-77.1329-181.026v-42.974l6.6235 15.6246 78.9565 186.2564v22.119z"/><path d="m1904-359.0816-8.4471-19.825h8.4471z"/><path d="m1250.6425-1430.3982-102.957-103.2485-92.5988-92.8612-28.4442-28.5249 30.8067 12.482 193.1933 193.1933z"/><path d="m1455.1039-1225.3575-84.051-84.2892-120.4104-120.7515v-18.9593l30.8067 30.8067 193.1933 193.1933z"/><path d="m1474.6425-1205.7637-19.5386-19.5938h19.5386z"/><path d="m1505.4492-1194.5508 107.9093 107.9093 14.7381 34.7666-33.6766-33.7718-119.7775-120.117v-19.5938z"/><path d="m1904-299.8075v-59.2741-19.825-22.119l16 37.7436v65.9558 120.3006h-16z"/><path d="m1920-177.0256v103.6994 120.3006h-16v-122.7819-101.2181z"/><path d="m1920 46.9744v103.6994 120.3006h-16v-122.7819-101.2181z"/><path d="m1920 270.9744v103.6994l-16 39.7005v-42.1818-101.2181z"/><path d="m1568-142.8021v-152.9122-41.619l16 37.7435v157.6323 28.6242h-16z"/><path d="m1584-113.3333v195.3758 28.6242h-16v-29.4688-194.5312z"/><path d="m1584 110.6667v195.3758l-16 39.4894v-40.334-194.5312z"/><path d="m-1680 929.4359 49.717 117.2811 16.9245 39.9245 2.2699 5.3546-2.2699-5.3546-16.9245-39.9245-49.717-117.2811-26.0452-61.4398z"/><path d="m1281.4492-1418.5508-30.8067-30.8067-193.1933-193.1933 193.1933 193.1933z"/><path d="m1505.4492-1194.5508-30.8067-30.8067-193.1933-193.1933 193.1933 193.1933z"/><path d="m1051.8749 1628.0966 34.7666-14.7381-34.7666 14.7381-16.5929 7.0339h.0001z"/><path d="m1646.3683 1053.6317-111.7268 111.7268z"/><path d="m1825.0435-587.282-6.6235-15.6246-14.7268-34.7401-73.6063-173.6353 73.6063 173.6353 14.7268 34.7401z"/><path d="m1730.0869-811.282-21.3502-50.3647-73.6062-173.6354v.0001l73.6062 173.6353z"/><path d="m1635.1305-1035.2821-7.0339-16.5928-14.7381-34.7666 14.7381 34.7666 7.0339 16.5929z"/><path d="m1854.3097 537.67 49.6903-123.2957 16-39.7005-16 39.7005-49.6903 123.2957-27.3898 67.9617z"/><path d="m-834.6411 1734.6252 15.0599 6.0695 208.9401 84.2064-208.9401-84.2064z"/><path d="m-610.6411 1824.9011 15.0599 6.0694 181.2069 73.0295 39.7005 16-39.7005-16-181.2069-73.0295z"/><path d="m594.2128-1830.2413-182.0426-73.7587-39.4894-16 39.4894 16 182.0426 73.7587 2.468 1z"/><path d="m-1829.2413-596.6808-32.2759 79.6595-42.4828 104.8511-16 39.4894 16-39.4894 42.4828-104.8511z"/><path d="m-1738.4828-820.6808-32.2759 79.6595-58.4826 144.3405 58.4826-144.3405z"/><path d="m-1647.7241-1044.6808-.3762.9285-8.1474 20.1084-23.7523 58.6226-58.4828 144.3405 58.4828-144.3405 23.7523-58.6226 8.1474-20.1084.3762-.9286z"/><path d="m1114.3788 1090.6212-32.8693 32.8693-191.1307 191.1307 191.1307-191.1307z"/><path d="m-81.1979 1568h-40.334-183.666 183.666z"/><path d="m142.8021 1568h-40.334-183.666 183.666z"/><path d="m519.7143 1472.5565-224 95.4435z"/><path d="m743.7143 1377.113-224 95.4435z"/><path d="m1568 81.1979v29.4688 194.5312-194.5312z"/><path d="m1568-142.8021v29.4688 194.5312-194.5312z"/><path d="m1434.2794 636.9964-46.8312 116.2015-43.4445 107.7985 43.4445-107.7985z"/><path d="m1524.5553 412.9964-46.8312 116.2015-43.4447 107.7985 43.4447-107.7985z"/><path d="m1472.5565-519.7143 32.9517 77.3355 33.113 77.7143 29.3788 68.9502-29.3788-68.9502-33.113-77.7143z"/><path d="m1377.113-743.7143 32.9517 77.3355 62.4918 146.6645-62.4918-146.6645z"/><path d="m860.9964-1344.0037-107.7985-43.4445z"/><path d="m1257.5199-947.4801 22.9999 22.9999 34.1014 34.1014-34.1014-34.1014-25.4441-25.4441-170.0792-170.0792z"/><path d="m-1093.9811 1111.0189-29.5095-29.5095-194.4905-194.4905 194.4905 194.4905z"/><path d="m-636.9964 1434.2794-224-90.2757z"/><path d="m-412.9964 1524.5553-224-90.2759z"/><path d="m110.6667-1568h17.3333-16-160-16-9.2308z"/><path d="m-1568-305.1979v154.4287z"/><path d="m-1344.0037-860.9964-43.4445 107.7985z"/><path d="m-297.2308-1568-141.7881 60.1058z"/><path d="m-1568 297.2308 60.1058 141.7881z"/><path d="m-924.4801-1280.5199 37.4612-37.4612-37.4612 37.4612-195.5236 195.5236z"/><path d="m-1389.3585 1310.6415 184.0755 184.0755 23 23 16.9245 16.9245z"/><path d="m-1165.3585 1534.6415 111.7268 111.7268z"/><path d="m1904 148.1925v122.7819 101.2181-43.814-24.3785-16-128z"/><path d="m1904-75.8075v122.7819 101.2181-4.1925-136-16z"/><path d="m1904-299.8075v122.7819 101.2181-68.1925-16-128z"/><path d="m370.2128-1904h-59.1359z"/><path d="m-148.1925 1904h-42.1818-181.8182 68.1925 16 128z"/><path d="m75.8075 1904h-42.1818-181.8182 4.1925 136 16z"/><path d="m299.8075 1904h-42.1818-181.8182 68.1925 16 128z"/><path d="m-1904-370.2128v59.1359z"/><path d="m-1084.0596-1597.453-13.415 13.453-22.5254 22.5892-60.8783 61.0508z"/><path d="m1095.0469-1132.9531-38.5271-38.527-185.4729-185.473z"/><path d="m1808.5565-583.0817 9.8635 23.1491 77.1329 181.026 8.4471 19.825-16.5565-38.8572-78.887-185.1428z"/><path d="m1713.113-807.0817 72.194 169.435 23.2495 54.565v.0001l-16.5565-38.8572-17.9821-42.2028z"/><path d="m1617.6696-1031.0817 72.1939 169.435 23.2495 54.565-34.5385-81.0599z"/><path d="m1055.0867-1626.5079-95.0867-38.5265-141.7872-57.4484z"/><path d="m1455.1039-1225.3575 19.5386 19.5938 119.7775 120.117-26.42-26.4949-140.3208-140.7184-.6329-.6346-55.9934-56.1521z"/><path d="m-75.5898-1584h-37.7435-186.2565 98.1152z"/><path d="m148.4102-1584h-37.7435-186.2565 11.5898 16 16 64 16 16z"/><path d="m-360.9231-1904-51.1365 21.6774z"/><path d="m1305.5095 925.1783 46.3675-46.2365-3.7652 3.7546-224 223.3672z"/><path d="m1584-299.5898v11.5898 128 16 2.0425z"/><path d="m-921.4906 1305.5094 22 22 26.9689 26.9689-10.7802-10.7802-224-224z"/><path d="m-1584 75.5898v25.0305 198.9695-11.5898-128-16z"/><path d="m-1584-148.4102v25.0305 198.9695-67.5898-16-136z"/><path d="m299.5898 1584h-11.5898-128-16-2.0425z"/><path d="m-678.2126-1423.4968-179.2969 76.0062-44.7031 18.9503 6.2126-2.6337 68-28.826z"/><path d="m-454.2126-1518.4534-208.8063 88.5158-15.1937 6.4408 6.2126-2.6337z"/><path d="m-1132.5951-1097.5051-15.2523 15.2954-.6327.6345-207.4823 208.07 11.9624-11.9962 126.358-126.716z"/><path d="m-1395.0869 745.2308 47.5963 112.2787 16.1887 38.1886-29.7416-70.1596-65.2149-153.8404z"/><path d="m1568 345.5319 16-39.4894-8.123 20.0484-42.4827 104.8509z"/><path d="m857.5095 1347.4906 42.6023-18.0597-148.1118 62.7865-4.4103 1.8695z"/><path d="m-648.5217 1445.2369 11.5253 4.6697 212.4747 86.0889z"/><path d="m-424.5217 1535.9955 11.5253 4.6698 67.4645 27.3347 39.4894 16-39.4894-16z"/><path d="m1489.0435-523.5898-60.5302-142.789-34.4264-81.2109 31.4357 74.1557z"/><path d="m1394.0869-747.5897-46.5963-109.9198-16.9246-39.9245z"/><path d="m-1493.7241-531.6791-47.8312 118.6827-26.4447 65.6167-16 39.7006 16-39.7006 31.486-78.1255z"/><path d="m-1403.4482-755.6791-47.8312 118.6827-42.4447 105.3173 47.4859-117.8261z"/><path d="m529.1979-1494.7241-181.8182-73.2759-39.7006-16 224 90.2759z"/><path d="m-1680-923.0638 52.3872-129.2962-52.3872 129.2962-42.4828 104.851z"/><path d="m-1904 360.9231 18.3568 43.3033z"/><path d="m-819.5812 1723.6947-224-90.2759 174.5812 70.3593z"/><path d="m-595.5812 1813.9705-224-90.2758 174.5812 70.3591 34.6042 13.9462z"/><path d="m-1406.283 1270.717-194.4906-194.4906 123.7736 123.7736 21 21 52.5385 52.5385 26.6879 26.6879z"/><path d="m583.0817 1808.5565-224.0001 95.4435 168.9184-71.9739z"/><path d="m807.0817 1713.113-224 95.4435 168.9183-71.9739z"/><path d="m1031.0817 1617.6696-224 95.4434 168.9183-71.9738z"/><path d="m1720.5856 827.2957-46.8277 116.1926-43.4482 107.8074 15.2648-37.8762 52.1735-129.4576z"/><path d="m1810.8615 603.2957-46.8277 116.1926-43.4482 107.8074 67.4383-167.3338 8.0879-20.0682z"/><path d="m1309.6467 1371.0529-33.7718 33.6763-190.2282 189.6908 114.3533-114.0302z"/><path d="m1533.6467 1147.6855-33.7718 33.6766-190.2282 189.6908 39.8175-39.7051 74.5358-74.3252 19.6587-19.6032z"/><path d="m-1418.5508-1281.4492-13.6969 13.6969-210.3031 210.3031z"/><path d="m-1194.5508-1505.4492-13.6969 13.6969-210.3031 210.3031z"/><path d="m-1639.3962-1065.2349-3.1546 7.7857z"/><path d="m-1058.6411 1644.3494 5.0094 2.0189z"/><path d="m-1666.3108 1036.6174 1.3179 3.093z"/><path d="m-80-1920h-59.282z"/><path d="m352-1920h-208-16z"/><path d="m352-1920h20.6808-101.7064-126.9744z"/><path d="m1913-460-95.4435-224z"/><path d="m1913-460-52.1818-123.0955-32.6778-77.0863-10.0969-23.8182z"/><path d="m1818.0435-684-84.8597-200.1818-10.0969-23.8182z"/><path d="m1723.0869-908-83.8227-197.7358z"/><path d="m1639.2642-1105.7358-2.446-2.446z"/><path d="m460 1913 224-95.4435z"/><path d="m128-1792v96 128-16z"/><path d="m-297.2308-1568h224 9.2308-49.3333z"/><path d="m-73.2308-1568h-224 183.8975z"/><path d="m-64-1920v64 64z"/><path d="m-48-1696v-224h-16v128 96z"/><path d="m-64-1568h16v-128h-16z"/><path d="m128-1696v-96-128h-16v224z"/><path d="m112-1568h16v-128h-16z"/><path d="m112-1696v-224h-160v224z"/><path d="m112-1568v-128h-160v128z"/><path d="m460 1913 224-94.9565z"/><path d="m684 1818.0435 224-94.9566z"/><path d="m908 1723.0869 197.7358-83.8227z"/><path d="m1105.7358 1639.2642 2.446-2.446z"/><path d="m128-1808v-80-32 128z"/><path d="m128-1808v16 208z"/><path d="m128-1920v32-16z"/><path d="m128-1584v16z"/><path d="m128-1568h177.1979z"/><path d="m96-1568h-96-32z"/><path d="m-64-1792v64 160-128z"/><path d="m-64-1920v16 48z"/><path d="m-64-1728v-64-64h16v128z"/><path d="m-48-1728v-128h16v128z"/><path d="m96-1888v96 128h-128v-64-128-32z"/><path d="m96-1664v96h-128v-96z"/><path d="m96-1888v96z"/><path d="m-80-1920h16z"/><path d="m372.6808-1920h-20.6808z"/><path d="m1920 150.6738v120.3006 103.6994-103.6994z"/><path d="m1920-73.3262v120.3006 103.6994-103.6994z"/><path d="m1920-297.3262v120.3006 103.6994-103.6994z"/><path d="m-1920-372.6808v63.9628z"/><path d="m-150.6738 1920h-39.7005-184.2995 184.2995z"/><path d="m73.3262 1920h-39.7005-184.2995 184.2995z"/><path d="m297.3262 1920h-39.7005-184.2995 184.2995z"/><path d="m-412.0596-1899.3226 11.034-4.6774 37.7436-16-37.7436 16-11.034 4.6774-7.9365 3.3645z"/><path d="m-1086.6415-1613.3585-5.3546 2.2699z"/><path d="m-1613.3585 1086.6415 2.2699 5.3546z"/><path d="m-1706.0452 867.9961-25.0417-59.073-69.9148-164.927 69.9148 164.927z"/><path d="m-1801.0017 643.9961-25.0418-59.0731-69.9146-164.9269 69.9146 164.927z"/><path d="m-1895.9581 419.9961-8.0419-18.9705-16-37.7436 16 37.7436z"/><path d="m1613.3585-1086.6415-107.9093-107.9093z"/><path d="m587.282 1825.0435-4.2004 1.7806-182.056 77.1759-37.7436 16 37.7436-16 182.0561-77.1759z"/><path d="m811.282 1730.0869-4.2003 1.7807-219.7997 93.1759 219.7997-93.1759z"/><path d="m1035.282 1635.1305-4.2003 1.7805-219.7997 93.1759 219.7997-93.1759 4.2004-1.7805z"/><path d="m1310.6415 1389.3585-16.0036 16.0036-18.763 18.763-189.2334 189.2334 189.2334-189.2334 18.763-18.763z"/><path d="m1534.6415 1165.3585-34.7666 34.7666-189.2334 189.2334 189.2334-189.2334z"/><path d="m1904-401.0256 16 37.7436-16-37.7436-78.9565-186.2564z"/><path d="m1736.6442 829.6317-45.8863 113.8566-32.0258 79.4653-12.3638 30.6781 12.3638-30.6781 32.0258-79.4653z"/><path d="m1826.9199 605.6317-45.8861 113.8566-44.3896 110.1434 44.3896-110.1434z"/><path d="m1904-359.0816v34.7815 24.4926z"/><path d="m1920-297.3262v-65.9558l-16-37.7436v22.119 19.825 59.2741 122.7819h16z"/><path d="m1904-177.0256v101.2181 122.7819h16v-120.3006-103.6994z"/><path d="m1904 46.9744v101.2181 122.7819h16v-120.3006-103.6994z"/><path d="m1904 270.9744v101.2181 42.1818l16-39.7005v-103.6994z"/><path d="m-1015.1047 1661.8953-38.527-15.527-5.0094-2.0189 5.0094 2.0189 38.527 15.527 180.4636 72.7299z"/><path d="m359.0816 1904h-59.2741z"/><path d="m1124.1118 1106.0636-17.4762 17.4269-25.1261 25.0552-181.3977 180.8852z"/><path d="m-1376.7736 1300.2264 194.4906 194.4906 29.5094 29.5094z"/><path d="m-1152.7736 1524.2264 109.1924 109.1924-49.4188-49.4188z"/><path d="m-82.0425 1584h-39.4894-184.5106z"/><path d="m141.9575 1584h-39.4894-184.5106z"/><path d="m596.6808-1829.2413 221.532 89.7585 2.468 1-2.468-1z"/><path d="m820.6808-1738.4828 205.9617 83.45 30.8067 12.482-30.8067-12.482z"/><path d="m523.5897 1489.0435-3.8754 1.6428-182.381 77.3137-37.7435 16 37.7435-16z"/><path d="m747.5897 1394.0869-3.8754 1.643-220.1246 93.3136z"/><path d="m1371.0529-1309.6467-120.4104-120.7515-102.957-103.2485z"/><path d="m1147.6855-1533.6467-92.5988-92.8612 42.3879 42.5079z"/><path d="m1250.6425-1449.3575-193.1933-193.1933-30.8067-12.482 28.4442 28.5249 92.5988 92.8612 102.957 103.2485z"/><path d="m1474.6425-1225.3575-193.1933-193.1933-30.8067-30.8067v18.9593l120.4104 120.7515 84.051 84.2892z"/><path d="m1474.6425-1225.3575h-19.5386l19.5386 19.5938z"/><path d="m1594.42-1085.6467 33.6766 33.7718-14.7381-34.7666-107.9093-107.9093-30.8067-30.8067v19.5938z"/><path d="m1584 82.0425v28.6242 195.3758z"/><path d="m1584-141.9575v28.6242 195.3758z"/><path d="m1708.7367-861.6467-73.6062-173.6353-7.0339-16.5929-33.6766-33.7718 23.2496 54.565 72.1939 169.435z"/><path d="m1803.6932-637.6467-73.6063-173.6353-21.3502-50.3647h-18.8732l23.2495 54.565 72.194 169.435z"/><path d="m1818.42-602.9066-14.7268-34.7401h-18.3862l23.2495 54.5651 9.8635 23.149z"/><path d="m1904-378.9066v-22.119l-78.9565-186.2564-6.6235-15.6246v42.974l77.1329 181.026z"/><path d="m1904-359.0816v-19.825h-8.4471z"/><path d="m1594.42-1085.6467 10.4046 24.4187 12.845 30.1463z"/><path d="m-1642.5508-1057.4492 3.1546-7.7857-3.1546 7.7857-5.1733 12.7684v-.0001z"/><path d="m1442.6356 654.9418-39.8106 98.2561-33.3613 82.3384-17.5867 43.4055z"/><path d="m1533.3943 430.9418-39.8107 98.2561-50.948 125.7439z"/><path d="m-1904 136.9231v122.9067 101.0933z"/><path d="m-1904-87.0769v122.9067 101.0933z"/><path d="m-1904-311.0769v122.9067 101.0933z"/><path d="m-1107.3019 1119.6981-16.1887-16.1887-21.9999-21.9999-185.8114-185.8114z"/><path d="m-1404.2456-1276.36-8.5833 8.6077-19.4188 19.4737-195.3651 195.9186 43.6128-43.7363z"/><path d="m-1180.8783-1500.36-27.3694 27.4469-195.9979 196.5531z"/><path d="m-835.5363 1369.4637-36.9854-14.9854 224 90.7586z"/><path d="m-1584-307.6791v159.2689z"/><path d="m1305.5095 899.4905 38.4942-38.4941-38.4942 38.4941-191.1307 191.1307z"/><path d="m1081.5095 1123.4905-191.1307 191.1307-32.8693 32.8694 42.6023-18.0597 181.3977-180.8852z"/><path d="m1305.5095 899.4905-191.1307 191.1307-32.8693 32.8693h25.1261l17.4762-17.4269 181.3977-180.8853z"/><path d="m1081.5095 1123.4905v25.0552l25.1261-25.0552z"/><path d="m1351.877 878.9418 17.5867-43.4055-25.46 25.4601-38.4942 38.4941v25.6878z"/><path d="m295.7143 1568h-152.9122z"/><path d="m890.3788 1314.6212-146.6645 62.4918z"/><path d="m128-1888v-16z"/><path d="m352-1904h-224z"/><path d="m352-1920h-224v16h224z"/><path d="m370.2128-1904h41.9574l-39.4894-16h-20.6808v16z"/><path d="m594.2128-1830.2413-182.0426-73.7587h-41.9574l224 90.7587z"/><path d="m818.2128-1739.4828-221.532-89.7585-2.468-1v17l224 90.7585z"/><path d="m1055.0867-1626.5079-28.4442-28.5249-205.9617-83.45-2.468-1v17z"/><path d="m594.2128-1813.2413-224-90.7587z"/><path d="m818.2128-1722.4828-224-90.7585z"/><path d="m1493.5836 529.1979 39.8107-98.2561 34.6057-85.4099v-40.334l-43.4447 107.7985-46.8312 116.2015z"/><path d="m1402.825 753.1979 39.8106-98.2561 50.948-125.7439h-15.8595l-43.4447 107.7985-46.8312 116.2015z"/><path d="m1344.0037 860.9964 25.46-25.4601 33.3613-82.3384h-15.3768z"/><path d="m1428.5133-666.3788-34.4264-81.2109-46.5963-109.9198-32.8694-32.8693 62.4918 146.6645 32.9517 77.3355z"/><path d="m1523.4698-442.3788-34.4263-81.2109-60.5302-142.7891h-18.4486l62.4918 146.6645 32.9517 77.3355z"/><path d="m1538.6212-406.6371-15.1514-35.7417h-17.9616l33.113 77.7143z"/><path d="m1568-295.7143v-41.619l-29.3788-69.3038v41.9726z"/><path d="m1056.5198-1173.9243-180.5221-181.0335-43.4779-17.5223 28.4766 28.4764 195.5234 195.5235z"/><path d="m1279.8871-949.9243-173.9181-174.4109-49.4492-49.5891v25.4441l28.4767 28.4767 170.0792 170.0792z"/><path d="m1280.5198-949.2899-.6327-.6344h-24.8114l25.4441 25.4441z"/><path d="m1314.6212-890.3788 32.8694 32.8693-18.1544-42.8256-48.8164-48.9548v24.8097z"/><path d="m529.1979-1494.7241-181.8182-73.2759h-42.1818l224 90.2759z"/><path d="m753.1979-1404.4482-221.5188-89.2759-2.4812-1v17l224 90.2759z"/><path d="m860.9964-1344.0037-28.4766-28.4764-76.8407-30.9681-2.4812-1v17z"/><path d="m128-1584v16h177.1979 42.1818l-39.7006-16z"/><path d="m1584-141.9575v-157.6323l-16-37.7435v41.619 152.9122 29.4688h16z"/><path d="m1568-113.3333v194.5312 29.4688h16v-28.6242-195.3758z"/><path d="m1568 110.6667v194.5312 40.334l16-39.4894v-195.3758z"/><path d="m1105.969-1124.3352 173.9181 174.4109.6327.6344 48.8164 48.9548-.1893-.4466-222.9219-223.5535z"/><path d="m1523.4698-442.3788 15.1514 35.7417 29.3788 69.3038 16 37.7435-94.9565-224v.0001z"/><path d="m531.6791-1493.7241 221.5188 89.2759 2.4812 1z"/><path d="m755.6791-1403.4482 76.8407 30.9681 43.4779 17.5223.4281.1725z"/><path d="m1568-295.7143v152.9122z"/><path d="m1568 305.1979-43.4447 107.7985z"/><path d="m1314.6212-890.3788 62.4918 146.6645z"/><path d="m529.1979-1477.7241-224-90.2759z"/><path d="m753.1979-1387.4482-224-90.2759z"/><path d="m1084.9965-1120.0035-28.4767-28.4767-195.5234-195.5235 195.5234 195.5235z"/><path d="m-1426.2584 671.6981-63.7851-150.4673-31.1715-73.5327z"/><path d="m-1521.215 447.6981-46.785-110.3648-16-37.7435 16 37.7435z"/><path d="m-899.4906 1305.5094 38.4942 38.4943-38.4942-38.4943-194.4905-194.4905z"/><path d="m-305.1979 1568-107.7985-43.4447z"/><path d="m-64-1904v48z"/><path d="m-64-1728v48 96z"/><path d="m-64-1584v16-160z"/><path d="m-64-1584h-16z"/><path d="m-136.9231-1904h-40.1025-183.8975z"/><path d="m-177.0256-1920h-186.2564l-37.7436 16h40.1025 183.8975z"/><path d="m-136.9231-1904h56.9231 16v-16h-16-59.282-37.7436v16z"/><path d="m-860.0596-1709.4095-7.9365 3.3643-186.6985 79.144-29.365 29.4482 224-94.9565z"/><path d="m-636.0596-1804.3661-7.9365 3.3644-216.0635 91.5922v17l224-94.9566z"/><path d="m-412.0596-1899.3226-7.9365 3.3645-216.0635 91.592v17l224-94.9565z"/><path d="m-360.9231-1904h-40.1025l-11.034 4.6774v17z"/><path d="m-860.0596-1692.4095-224 94.9565z"/><path d="m-636.0596-1787.3661-224 94.9566z"/><path d="m-412.0596-1882.3226-224 94.9565z"/><path d="m-113.3333-1584h-186.2565l-37.7435 16h40.1025 183.8975z"/><path d="m-64-1568v-16h-16-33.3333v16z"/><path d="m-299.5898-1584-37.7435 16z"/><path d="m-663.0189-1429.9376-15.1937 6.4408-179.2969 76.0062-29.5094 29.5095 224-94.9565z"/><path d="m-439.0189-1524.8942-15.1937 6.4408-208.8063 88.5158v17l224-94.9566z"/><path d="m-297.2308-1568h-40.1025l-101.6856 43.1058v17z"/><path d="m-1148.4801-1081.5752-207.4823 208.07-6.42 15.93h14.9576l3.4211-3.4212 195.5236-195.5235z"/><path d="m-1362.3824-857.5752-10.0977 25.0554 25.0553-25.0554z"/><path d="m-924.4801-1306.2097-208.115 208.7045-15.2523 15.2955h25.0571l2.7866-2.7866 195.5236-195.5236z"/><path d="m-1147.8474-1082.2097-.6327.6345v25.0553l25.6898-25.6898z"/><path d="m-887.0189-1317.9811 29.5094-29.5095-44.7031 18.9503-22.2675 22.3306v25.6898z"/><path d="m-1434.2794-636.9964 46.8312-116.2015 43.4445-107.7985-3.4211 3.4212-25.0553 25.0554-30.9681 76.8407-47.8312 118.6827z"/><path d="m-1524.5553-412.9964 46.8312-116.2015 43.4447-107.7985h-17l-42.4447 105.3173-47.8312 118.6827z"/><path d="m-1568-347.3797v42.1818l43.4447-107.7985h-17z"/><path d="m-1568-150.7692v-154.4287-42.1818l-16 39.7006v159.2689 25.0305h16z"/><path d="m-1584-123.3797v198.9695 25.0305h16v-27.3895-196.6105z"/><path d="m-1584 100.6203v198.9695l16 37.7435v-40.1025-196.6105z"/><path d="m-1473.0435 521.2308-34.8507-82.2119-60.1058-141.7881v40.1025l46.785 110.3648 31.1715 73.5327z"/><path d="m-1378.0869 745.2308-34.8507-82.2119-60.1059-141.7881h-17l63.7851 150.4673 31.1715 73.5327z"/><path d="m-1344 825.6411-34.0869-80.4103h-17l47.5963 112.2787 3.4906 3.4905z"/><path d="m-1317.9811 887.0189-26.0189-61.3778v35.3589z"/><path d="m-924.4801-1306.2097 22.2675-22.3306-230.3825 231.0352v-.0001z"/><path d="m-1372.4801-832.5198 10.0977-25.0554 6.42-15.93-47.4858 117.8261z"/><path d="m-1568 73.2308v27.3895 196.6105-196.6105z"/><path d="m-1568-150.7692v27.3895 196.6105-196.6105z"/><path d="m-1477.7241-529.1979-46.8312 116.2015-43.4447 107.7985 43.4447-107.7985z"/><path d="m-1387.4482-753.1979-46.8312 116.2015-43.4447 107.7985 43.4447-107.7985z"/><path d="m-663.0189-1412.9376-224 94.9565z"/><path d="m-439.0189-1507.8942-224 94.9566z"/><path d="m-1412.9376 663.0189 34.8507 82.2119 34.0869 80.4103 26.0189 61.3778-26.0189-61.3778-34.0869-80.4103z"/><path d="m-1507.8942 439.0189 34.8507 82.2119 60.1059 141.7881-60.1059-141.7881z"/><path d="m-1120.0037-1084.9963-2.7866 2.7866-25.6898 25.6898-195.5236 195.5235 195.5236-195.5235 25.6898-25.6898z"/><path d="m-636.9964 1434.2794-224-90.2757 25.4601 25.46 187.0146 75.7732 11.5253 4.6697z"/><path d="m-412.9964 1524.5553-224-90.2759v15.6272l212.4747 86.0889 11.5253 4.6698z"/><path d="m-345.5319 1568h40.334l-107.7985-43.4447v16.11z"/><path d="m-1123.4906 1081.5094-194.4905-194.4905-26.0189-26.0189-3.4906-3.4905 16.1887 38.1886 185.8114 185.8114z"/><path d="m-1123.4906 1081.5094-21.9999.0001 21.9999 21.9999z"/><path d="m-899.4906 1305.5094-194.4905-194.4905-29.5095-29.5095v22l16.1887 16.1887 185.8113 185.8113z"/><path d="m-899.4906 1305.5094h-22l22 22z"/><path d="m-872.5217 1354.4783 36.9854 14.9854-25.4601-25.46-38.4942-38.4943v22z"/><path d="m519.7143 1472.5565-224 95.4435h41.619l182.381-77.3137z"/><path d="m743.7143 1377.113-224 95.4435v18.1298l3.8754-1.6428 220.1246-93.3136z"/><path d="m747.5897 1394.0869 109.9198-46.5963 32.8693-32.8694-146.6645 62.4918v18.6169z"/><path d="m-121.5319 1568h-183.666-40.334l39.4894 16h184.5106z"/><path d="m102.4681 1568h-183.666-40.334v16h39.4894 184.5106z"/><path d="m141.9575 1584h157.6323l37.7435-16h-41.619-152.9122-40.334v16z"/><path d="m-1680-965.0213-58.4828 144.3405-32.2759 79.6595h17l31.2759-77.1915 42.4828-104.851z"/><path d="m-1770.7587-741.0213-58.4826 144.3405-32.2759 79.6595h17l31.2759-77.1915 59.4826-146.8085z"/><path d="m-1861.5172-517.0213-42.4828 104.8511v41.9574l59.4828-146.8085z"/><path d="m-1627.6128-1052.36-8.5834 8.6077-20.0515 20.1084-23.7523 58.6226v41.9575z"/><path d="m-1813.2413-594.2128-31.2759 77.1915-59.4828 146.8085z"/><path d="m-1722.4828-818.2128-31.2759 77.1915-59.4826 146.8085z"/><path d="m-1432.2477-1267.7523-210.3031 210.3031-5.1733 12.7683-.3762.9286h11.9041l8.5834-8.6077 195.3651-195.9186z"/><path d="m-1648.1003-1043.7523-8.1474 20.1084 20.0515-20.1084z"/><path d="m-1208.2477-1491.7523-210.3031 210.3031-13.6969 13.6969h19.4188l8.5833-8.6077 195.9979-196.5531z"/><path d="m-1432.2477-1267.7523v19.4737l19.4188-19.4737z"/><path d="m-1180.8783-1500.36 96.8187-97.093 29.365-29.4482-31.9469 13.5427-107.9093 107.9093-13.6969 13.6969v18.8392z"/><path d="m-1086.6415-1613.3585-107.9093 107.9093z"/><path d="m-1809.0435 584.9231-76.5997-180.6967-18.3568-43.3033v40.1025l8.0419 18.9705 69.9146 164.9269z"/><path d="m-1714.0869 808.9231-76.5997-180.6967-18.3569-43.3033-17-.0001 25.0418 59.0731 69.9148 164.927z"/><path d="m-1680 889.3333-15.7301-37.1069-18.3568-43.3033h-17l25.0417 59.073 26.0452 61.4398z"/><path d="m-1630.283 1046.717 29.5094 29.5094-79.2264-186.8931v40.1026z"/><path d="m-1695.7301 852.2264 15.7301 37.1069 79.2264 186.8931z"/><path d="m-1790.6866 628.2264 76.5997 180.6967 18.3568 43.3033z"/><path d="m-1885.6432 404.2264 76.5997 180.6967 18.3569 43.3033z"/><path d="m-1904-311.0769v-59.1359-41.9574l-16 39.4894v63.9628 120.5478h16z"/><path d="m-1920-188.1702v103.4522 120.5478h16v-122.9067-101.0933z"/><path d="m-1920 35.8298v103.4522 120.5478h16v-122.9067-101.0933z"/><path d="m-1920 259.8298v103.4522l16 37.7436v-40.1025-101.0933z"/><path d="m-819.5812 1723.6947-224-90.2759 28.4765 28.4765 180.4636 72.7299 15.0599 6.0695z"/><path d="m-595.5812 1813.9705-224-90.2758v17l208.9401 84.2064 15.0599 6.0694z"/><path d="m-414.3743 1904h42.1818l-223.3887-90.0295v17z"/><path d="m-372.1925 1904-223.3887-90.0295z"/><path d="m-1600.7736 1076.2264-29.5094-29.5094 16.9245 39.9245 184.0755 184.0755h23z"/><path d="m-1429.283 1270.717 23 23v-23z"/><path d="m-1406.283 1293.717 16.9245 16.9245 184.0755 184.0755h23l-194.4906-194.4906-29.5094-29.5094z"/><path d="m-1205.283 1494.717 23 23v-23z"/><path d="m-1182.283 1517.717 16.9245 16.9245 111.7268 111.7268 38.527 15.527-28.4765-28.4765-109.1924-109.1924-29.5094-29.5094z"/><path d="m-1406.283 1293.717-23-23-184.0755-184.0755 224 224z"/><path d="m583.0817 1808.5565-224.0001 95.4435h41.944l182.056-77.1759z"/><path d="m807.0817 1713.113-224 95.4435-.0001 18.2676 4.2004-1.7806 219.7997-93.1759z"/><path d="m1031.0817 1617.6696-224 95.4434v18.7546l4.2003-1.7807 219.7997-93.1759z"/><path d="m1035.282 1635.1305 16.5929-7.0339 33.7718-33.6766-54.565 23.2496v19.2414z"/><path d="m1275.8749 1405.3621v-.6329l-190.2282 189.6908-33.7718 33.6766 34.7666-14.7381 189.2334-189.2334z"/><path d="m1499.8749 1181.3621-190.2282 189.6908-33.7718 33.6763v.6329h18.763l16.0036-16.0036 189.2334-189.2334z"/><path d="m1275.8749 1405.3621v18.763l18.763-18.763z"/><path d="m1534.6415 1165.3585 111.7268-111.7268 12.3638-30.6781-28.4224 28.3421-96.663 96.3898-33.7718 33.6766v18.763z"/><path d="m1854.3097 495.4883-43.4482 107.8074-46.8277 116.1926h17l45.8861-113.8566 27.3898-67.9617z"/><path d="m1764.0338 719.4883-43.4482 107.8074-46.8277 116.1926h17l45.8863-113.8566 44.3896-110.1434z"/><path d="m1673.7579 943.4883-43.4482 107.8074 28.4224-28.3421 32.0258-79.4653z"/><path d="m1904 414.3743v-42.1818l-49.6903 123.2958v42.1817z"/><path d="m1854.3097 495.4883 49.6903-123.2958-93.1385 231.1032z"/><path d="m1085.6467 1594.42-54.565 23.2496z"/><path d="m1630.3097 1051.2957-46.3097 46.1789-50.3533 50.2109z"/><path d="m-190.3743 1904h-181.8182-42.1818l39.7005 16h184.2995z"/><path d="m33.6257 1904h-181.8182-42.1818v16h39.7005 184.2995z"/><path d="m257.6257 1904h-181.8182-42.1818v16h39.7005 184.2995z"/><path d="m297.3262 1920h65.9558l37.7436-16h-41.944-59.2741-42.1818v16z"/><path d="m64-1728h-64v64h64z"/><path d="m128-1888v80z"/><path d="m128-1808v224z"/><path d="m0-1888h96-128z"/><path d="m0-1664v-64z"/><path d="m64-1664h-64v96h96v-96z"/><path d="m96-1664v-64h-32v64z"/><path d="m64-1728h32v-64-96h-96v32 128z"/><path d="m64-1728v64z"/><path d="m96-1792v64 64 96-96z"/><path d="m0-1728h64z"/><path d="m64-1664h-64z"/><path d="m-64-1728h16 16z"/><path d="m-32-1856h-16-16z"/><path d="m-32-1888v32h32v-32z"/><path d="m-32-1856v-32z"/><path d="m-32-1728h32v-128h-32-32v128z"/><path d="m-32-1568h32v-96-64h-32z"/><path d="m-32-1568v-160 64z"/><path d="m-80-1584h-219.5898 186.2565z"/><path d="m-64-1904h-16z"/><path d="m-80-1904h-56.9231z"/><path d="m-80-1904v96z"/><path d="m-64-1728v-128-48h-16v96 128h16z"/><path d="m-80-1680v96h16v-96z"/><path d="m-1664.9929 1039.7104 224 223.3672z"/><path d="m-1091.9961-1611.0886-99.4001 99.1194z"/><path d="m1817.5565-684-95.4435-224z"/><path d="m1722.113-908-85.2948-200.1818z"/><path d="m1636.8182-1108.1818 2.446 2.446z"/><path d="m684 1817.5565 224-95.4435z"/><path d="m908 1722.113 200.1818-85.2948z"/><path d="m-1666.3108 1036.6174 55.2222 55.3787z"/><path d="m1904 148.1925v224-101.2181z"/><path d="m1904-75.8075v224-101.2181z"/><path d="m1904-299.8075v224-101.2181z"/><path d="m-1058.6411 1644.3494 5.0094 2.0189z"/><path d="m-148.1925 1904h-224 181.8182z"/><path d="m75.8075 1904h-224 181.8182z"/><path d="m299.8075 1904h-224 181.8182z"/><path d="m1351.877 878.9418-46.3675 46.2365-181.3977 180.8853z"/><path d="m-1568 1109-16-16-16.7736-16.7736 194.4906 194.4906 29.5094 29.5094z"/><path d="m299.5898 1584h-157.6323z"/><path d="m900.1118 1329.4309-42.6023 18.0597-109.9198 46.5963z"/><path d="m1594.42-1085.6467-119.7775-120.117-19.5386-19.5938-84.051-84.2892z"/><path d="m1584-299.5898v157.6323z"/><path d="m1808.5565-583.0817 95.4435 224.0001-8.4471-19.825-77.1329-181.026-9.8635-23.149z"/><path d="m1713.113-807.0817 95.4435 224v.0001l-23.2495-54.5651z"/><path d="m1617.6696-1031.0817 95.4434 224-23.2495-54.565z"/><path d="m-1639.3962-1065.2349-3.1546 7.7857z"/><path d="m1584 306.0425-16 39.4894-34.6057 85.4099z"/><path d="m-1904-370.2128v59.1359z"/><path d="m-872.5217 1354.4783-26.9689-26.9689-22-22-185.8113-185.8113z"/><path d="m-1097.4746-1584 13.415-13.453-96.8187 97.093z"/><path d="m-648.5217 1445.2369 224 90.7586-212.4747-86.0889z"/><path d="m-424.5217 1535.9955 118.4792 48.0045-39.4894-16-67.4645-27.3347z"/><path d="m-1584 75.5898v224-198.9695z"/><path d="m-1584-148.4102v224-198.9695z"/><path d="m128-1904v16 80z"/><path d="m128-1584h179.6791z"/><path d="m370.2128-1904h-18.2128z"/><path d="m1055.0867-1626.5079-236.8739-95.9749z"/><path d="m876.4258-1354.7853-.4281-.1725 180.5221 181.0335 49.4492 49.5891h.256z"/><path d="m1489.0435-523.5898-94.9566-223.9999 34.4264 81.2109 60.5302 142.7891z"/><path d="m1394.0869-747.5897-64.94-153.192.1893.4466 18.1544 42.8256z"/><path d="m307.6791-1584 39.7006 16 181.8182 73.2759 2.4812 1z"/><path d="m-1331.3019 895.6981-16.1887-38.1886-47.5963-112.2787-31.1715-73.5327z"/><path d="m-80-1808v224-96z"/><path d="m-360.9231-1904-51.1365 21.6774z"/><path d="m-678.2126-1423.4968-224 94.9565 44.7031-18.9503z"/><path d="m-454.2126-1518.4534-224 94.9566 15.1937-6.4408z"/><path d="m-337.3333-1568-116.8793 49.5466 15.1937-6.4408z"/><path d="m-1132.5951-1097.5051-223.3673 223.9999 207.4823-208.07.6327-.6345 15.2523-15.2955z"/><path d="m-1493.7241-531.6791-90.2759 224 16-39.7006 26.4447-65.6167z"/><path d="m-1403.4482-755.6791-90.2759 224 42.4447-105.3173z"/><path d="m-1627.6128-1052.36-52.3872 129.2962-42.4828 104.851z"/><path d="m-1418.5508-1281.4492-224 224 210.3031-210.3031z"/><path d="m-1194.5508-1505.4492-224 224 210.3031-210.3031z"/><path d="m-1904 360.9231 18.3568 43.3033z"/><path d="m-819.5812 1723.6947-224-90.2759z"/><path d="m-595.5812 1813.9705-224-90.2758z"/><path d="m-1389.3585 1310.6415 224 224-16.9245-16.9245-23-23z"/><path d="m-1165.3585 1534.6415 111.7268 111.7268z"/><path d="m1720.5856 827.2957-90.2759 224 43.4482-107.8074z"/><path d="m1810.8615 603.2957-90.2759 224 43.4482-107.8074z"/><path d="m583.0816 1808.5565-224 95.4435 224.0001-95.4435z"/><path d="m807.0817 1713.113-224.0001 95.4435h.0001z"/><path d="m1031.0817 1617.6696-224 95.4434z"/><path d="m1309.6467 1371.0529-197.5051 196.9471-16.0453 16-10.4496 10.42 190.2282-189.6908z"/><path d="m1533.6467 1147.6855-224 223.3674 190.2282-189.6908z"/><path d="m-1664.9929 1039.7104-1.3179-3.093z"/><path d="m1108.1818 1636.8182-2.446 2.446z"/><path d="m1733.1838-884.1818-10.0969-23.8182-83.8227-197.7358-2.446-2.446 95.4435 224z"/><path d="m1828.1404-660.1818-10.0969-23.8182-84.8597-200.1818h-.9221l95.4435 224z"/><path d="m1860.8182-583.0955-32.6778-77.0863h-.4352l33.113 77.7144z"/><path d="m1913-460-52.1818-123.0955v.6281z"/><path d="m684 1817.5565-224 95.4435 224-94.9565z"/><path d="m908 1722.113-224 95.4435v.487l224-94.9566z"/><path d="m1105.7358 1639.2642 2.446-2.446-200.1818 85.2948v.9739z"/><path d="m1818.0435-684 10.0969 23.8182 32.6778 77.0863 52.1818 123.0955z"/><path d="m1723.0869-908 10.0969 23.8182 84.8597 200.1818z"/><path d="m1639.2642-1105.7358 83.8227 197.7358z"/><path d="m684 1818.0435-224 94.9565z"/><path d="m908 1723.0869-224 94.9566z"/><path d="m1105.7358 1639.2642-197.7358 83.8227z"/></g></defs><path d="m-2304-2304h4608v4608h-4608z" fill="#fff"/><g stroke="#000"><use fill="none" stroke-miterlimit="0" stroke-width="15" xlink:href="#a"/><use fill="#fff" xlink:href="#a"/></g></svg>