<svg viewBox="-490 -858 1804 1660" xmlns="http://www.w3.org/2000/svg" xmlns:xlink="http://www.w3.org/1999/xlink"><defs><g id="a"><path d="m768-88h-224v-192-44l44 8 32 8 32 12 87 58 29 43.7544z"/><path d="m808-120 8 32h-48v-106.2456l28 42.2456z"/><path d="m544-324v44z"/><path d="m816-88h-48z"/><path d="m544-324 44 8z"/><path d="m808-120 8 32z"/><path d="m544-324v44-92z"/><path d="m544-280v192z"/><path d="m588-316v-49l32 8v49z"/><path d="m544-324v-48l32 4 12 3v49z"/><path d="m640-352 12 4.5v51.5l-32-12v-49z"/><path d="m773.877-274.0797-34.877 36.0797-87-58v-51.5l20 7.5z"/><path d="m808-120h49l3 12 4 20h-48z"/><path d="m847.5-152 4.5 12 5 20h-49l-12-32z"/><path d="m840-172 7.5 20h-51.5l-57-86 34.877-36.0797.123.0797z"/><path d="m620-357-32-8-12-3 64 16z"/><path d="m652-347.5-12-4.5 32 12z"/><path d="m860-108 4 20z"/><path d="m847.5-152-7.5-20 12 32z"/><path d="m857-120-5-20 8 32z"/><path d="m796-152-28-42.2456-29-43.7544z"/><path d="m620-308-32-8z"/><path d="m808-120-12-32z"/><path d="m652-296-32-12z"/><path d="m739-238-87-58z"/><path d="m896-24h124v160h-156v-160z"/><path d="m576-368-32-4v-16h32z"/><path d="m576-368v-20h64v36z"/><path d="m640-352v-36h32v48z"/><path d="m768-388h32v87.0546l-26 26.9454-102-66v-48z"/><path d="m540-520h4v128h-4z"/><path d="m528-520h12v128h-12z"/><path d="m544-392v-128-48h160l32 4 32 8v168h-96-32-64-32z"/><path d="m768-556 32 8v156 4h-32z"/><path d="m800-300.9454 84-87.0546v216h-44l-66-102z"/><path d="m840-172h44v4 28h-32z"/><path d="m852-140h32v32h-24z"/><path d="m884-88h-20l-4-20h24z"/><path d="m884-388-84 87.0546v-87.0546-4h84z"/><path d="m1020-88v64h-124v-64z"/><path d="m1020-280v112h-136v-4-216-4h97.3334l10.6666 16 12 32z"/><path d="m1020-168v80h-124-12v-20-32-28z"/><path d="m896-493.3336 32 21.3336 53.3334 80h-97.3334-84v-156l32 12z"/><path d="m1020-24v-64 224z"/><path d="m981.3334-392-53.3334-80 64 96z"/><path d="m896-24v-64z"/><path d="m928-472-32-21.3336v.0003z"/><path d="m768-88h48 48 20 12-128-64z"/><path d="m832-536-32-12z"/><path d="m896-493.3336-64-42.6664 64 42.6667z"/><path d="m544-520v-42-6z"/><path d="m544-392h-4z"/><path d="m540-520v4 8 8 16 16 24 16 16 8 8 4z"/><path d="m544-88v-8-16-16-32-32-88z"/><path d="m768-88h-64-160z"/><path d="m816-88h48z"/><path d="m576-368-32-4z"/><path d="m774-274-.123-.0797-101.877-65.9203z"/><path d="m840-172-66-102z"/><path d="m540-520h-12v128h12z"/><path d="m832 136h32z"/><path d="m864-24h-32z"/><path d="m864-24v160z"/><path d="m864 136h-32v-160h32z"/><path d="m544-88h160z"/><path d="m704-88v-8z"/><path d="m544-88h160v-8h-160z"/><path d="m736-564-32-4z"/><path d="m832-24v160z"/><path d="m832 136h-32v-160h32z"/><path d="m548-264h-4v32h4z"/><path d="m768 136h32z"/><path d="m800-24h32z"/><path d="m800-24h-32z"/><path d="m800-548-32-8-32-8z"/><path d="m800-24v160z"/><path d="m800 136h-32v-160h32z"/><path d="m1020-88v-80-112z"/><path d="m1020-280-16-64z"/><path d="m928-472 64 96z"/><path d="m1004-344-12-32z"/><path d="m896 136h-32 156z"/><path d="m864 136h-64 32z"/><path d="m736 136h32 32z"/><path d="m896-493.3333v-.0001l32 21.3334z"/><path d="m800-24h-32-32z"/><path d="m800-548 32 12z"/><path d="m832-536 64 42.6666v.0001z"/><path d="m768 136h-32v-160h32z"/><path d="m768-24v160z"/><path d="m784-92v4h32v-4z"/><path d="m928-472-14-9-2 1 24 25 2-2z"/><path d="m608-568v4h32v-4z"/><path d="m544-264h4z"/><path d="m548-232h-4v-32h4z"/><path d="m548-232h-4z"/><path d="m548-264v32z"/><path d="m544-232v-32z"/><path d="m896 132v4h32v-4z"/><path d="m896 136h-32z"/><path d="m896 136h124z"/><path d="m896-24v4-.1053-.0197z"/><path d="m1020-88h-4z"/><path d="m1020-88h-4v220l4 4z"/><path d="m1020 136-4-4h-120v4z"/><path d="m896-24h-32z"/><path d="m896-24h-32-32z"/><path d="m544-392v-4z"/><path d="m544-520h-4z"/><path d="m540-520h-12z"/><path d="m528-392h12z"/><path d="m540-392h4v-4h-4z"/><path d="m544-520h-4v4h4z"/><path d="m528-392h12v-4h-12z"/><path d="m540-520h-12v4h12z"/><path d="m736 136h64-96z"/><path d="m736 136h-32v-160h32z"/><path d="m736-24v160z"/><path d="m1016-88h4-12z"/><path d="m900-88h-4z"/><path d="m900-88h8-12z"/><path d="m1016 132-8-8h-112v8z"/><path d="m1016-88h-8v212l8 8z"/><path d="m900-88h-4v64l4 4z"/><path d="m896-20.125 4 .125-4-4z"/><path d="m900-20-4-.1053v3.8948l9.3333 3.2748z"/><path d="m704-112v16 8z"/><path d="m544-112v16h160v-16z"/><path d="m544-112h160v-16h-160z"/><path d="m544-520v4z"/><path d="m544-516v8-12z"/><path d="m540-396h4v-8h-4z"/><path d="m540-516h-12v8h12z"/><path d="m704 136h96-128z"/><path d="m704-24h-32z"/><path d="m704-24h96-64z"/><path d="m704 136h-32v-160h32z"/><path d="m704-24v160z"/><path d="m784-88v-4h32v4z"/><path d="m816-92v4z"/><path d="m784-88v-4z"/><path d="m784-92h32z"/><path d="m816-88h-32z"/><path d="m936-455-24-25 2-1 14 9 10 15z"/><path d="m938-457-2 2z"/><path d="m928-472 10 15z"/><path d="m936-455-24-25z"/><path d="m914-481 14 9z"/><path d="m912-480 2-1z"/><path d="m608-564v-4h32v4z"/><path d="m608-564v-4z"/><path d="m640-568v4z"/><path d="m608-568h32z"/><path d="m640-564h-32z"/><path d="m896 128v-4h32v4z"/><path d="m896 128v8-4-8z"/><path d="m928 124v8 4-8z"/><path d="m928 128v8h-32v-8z"/><path d="m896 124v8h32v-8z"/><path d="m704-568 32 4z"/><path d="m704-568h-160z"/><path d="m704-568h-160v6 2h160z"/><path d="m896-12v-.3158-3.8947-3.8948.1053z"/><path d="m896-12.3158v.3158 7.5238z"/><path d="m1020-88h-20 8z"/><path d="m1008-88h-8v204l8 8z"/><path d="m908-12-8-8 5.3333 7.0643z"/><path d="m908-88h-8v68l8 8z"/><path d="m908-12-12-.3158v7.8396l20 .4762z"/><path d="m896-12.3158 12 .3158-12-4.2105z"/><path d="m544-404v8 4z"/><path d="m540-508v-8-4 128-4-8-8-16-16-24-16-16z"/><path d="m544-508h-4v8h4z"/><path d="m544-508v-8h-4v8z"/><path d="m540-404h4v-8h-4z"/><path d="m528-508v-8-4 128-4-8-8-16-16-24-16-16z"/><path d="m540-508h-12v8h12z"/><path d="m528-404v8h12v-8z"/><path d="m528-404h12v-8h-12z"/><path d="m672 136h128-24-136z"/><path d="m704-24h-32-32z"/><path d="m672-24v160z"/><path d="m672 136h-32v-160h32z"/><path d="m896-4.4762v.4762z"/><path d="m896-4.4762v15.7562l36 .72-16-16z"/><path d="m1000 116-16-16h-88v16z"/><path d="m896 116v8h112l-8-8z"/><path d="m1000-88h-16v188l16 16z"/><path d="m916-88h-8v76l8 8z"/><path d="m916-4 16 16-7.973-15.8089z"/><path d="m704-160v32z"/><path d="m704-160v-32z"/><path d="m544-500v16z"/><path d="m540-412h4v-16h-4z"/><path d="m528-500v16h12v-16z"/><path d="m544-160v32h160v-32z"/><path d="m896-4.4762 7.9026.1882z"/><path d="m704-128v16 24z"/><path d="m544-280h160v-32h-160z"/><path d="m704-280h-160v88h160z"/><path d="m704-192h-160v32h160z"/><path d="m896 11.28v.72z"/><path d="m896 11.28v-15.28z"/><path d="m896 11.28v.72 15.1035l52 .8965-16-16z"/><path d="m984-88h-16z"/><path d="m984 100-16-16h-72v16z"/><path d="m984-88h-16v32 104 36l16 16z"/><path d="m932-88h-16v84l8.027.1911 7.973.1899z"/><path d="m932-3.619v15.619l16 16v-31.2381z"/><path d="m932 12v-15.619l-7.973-.1899z"/><path d="m544-428v-16z"/><path d="m544-428v16z"/><path d="m540-484h4v-16h-4z"/><path d="m544-484h-4v16h4z"/><path d="m540-484h-12v16h12z"/><path d="m528-428v16h12v-16z"/><path d="m640 136h136-96-72z"/><path d="m896 28v-.8965-15.1035z"/><path d="m932-88h16 20 16 16-84z"/><path d="m916-88h-20 12z"/><path d="m984-88h16z"/><path d="m948-88h-16z"/><path d="m916-88h16z"/><path d="m896 27.1035v.8965 56h72v-36l-20-20z"/><path d="m968-56v-32h-20v32z"/><path d="m968-56h-20v52.7619 31.2381l20 20z"/><path d="m948-56v-32h-16v84.381l16 .3809z"/><path d="m776 136h24 64 32v-4h-184-32v4z"/><path d="m704-24h-64-32z"/><path d="m544-392v4 16 92-32-32z"/><path d="m544-520v12 8z"/><path d="m544-468v-16z"/><path d="m544-412v8 12z"/><path d="m544-468h-4v24h4z"/><path d="m540-468h-12v24h12z"/><path d="m544-444h-4v16h4z"/><path d="m540-444h-12v16h12z"/><path d="m640-24v160z"/><path d="m640 136h-32v-160h32z"/><path d="m540-392h-12v-128h12z"/><path d="m540-392h-12z"/><path d="m528-520h12z"/><path d="m528-392v-128z"/><path d="m540-520v128z"/><path d="m704-312v32 88 32 32 40-192z"/><path d="m704-312v-42.6667 10.6667z"/><path d="m864-4h32v-.4762-7.5238h-32z"/><path d="m704-568v8z"/><path d="m544-333.3333v2.1333-12.8z"/><path d="m544-331.2v-2.1333-10.6667 32z"/><path d="m544-392v-16-24-32-32-32-16-16-2 42 20 16 16 24 16 16z"/><path d="m544-331.2v19.2h160v-32h-160z"/><path d="m608-24v160z"/><path d="m608 136h-32v-160h32z"/><path d="m544-344v-32-16 48 10.6667z"/><path d="m832 12v16h64v-16z"/><path d="m-352-108v52 128 44-108-12.8-8.5333z"/><path d="m-348 132-4-16z"/><path d="m-332 156-8-8z"/><path d="m-332 156 16 8z"/><path d="m-96 168v4z"/><path d="m32 168h64 76-76z"/><path d="m32-280v-32z"/><path d="m916-88h84 20-60-64z"/><path d="m704-24h-96-32z"/><path d="m512-472v4 8 8 16 16 140z"/><path d="m768-88h128z"/><path d="m704-354.6667v-21.3333h-160v32h160z"/><path d="m544-280h144v192h-144-32v-160-32z"/><path d="m704-88h-16v-192h16z"/><path d="m320-472h-64-32-128z"/><path d="m96-472h128v160 32 32h-128z"/><path d="m224-248v140 84h-128v-224z"/><path d="m224-472h32v160h-32z"/><path d="m256-248v-64-160h64 160v224z"/><path d="m480-88h-172l-16-4-16-8-8-8-8-16-4-16v-108h224z"/><path d="m512-472v192 32h-32v-224z"/><path d="m512-248v160h-32v-160z"/><path d="m480-88h32-96-64-44z"/><path d="m224-280v-32z"/><path d="m224-108v84z"/><path d="m224-248v-32 32 140z"/><path d="m576-24v160z"/><path d="m576 136h-32v-160h32z"/><path d="m224 72v64h-128v-64z"/><path d="m224-24v96h-128v-96z"/><path d="m224 136-4 10-8 10-8 5-16 5-16 2h-76v-32z"/><path d="m212 156 8-10z"/><path d="m188 166 16-5z"/><path d="m96-472h-64z"/><path d="m96 136v32h-64v-96h64z"/><path d="m32-280v-32-160h64v224h-64z"/><path d="m96-248v224h-64v-32-192z"/><path d="m96-24v96h-64v-96z"/><path d="m32-280v32 192h-128v-224z"/><path d="m32-56v32 96h-128v-128z"/><path d="m32 168h-128v-96h128z"/><path d="m-352-56v-52-120l4-16 8-16 8-8 16-8 16-4h172v224z"/><path d="m-128 72h-96-128v-128h224z"/><path d="m-128-56v-224h32v224z"/><path d="m-96 72h-32v-128h32z"/><path d="m-224 168v-96h96 32v96 4h-128z"/><path d="m-224 168h-76l-16-4-16-8-8-8-8-16-4-16v-44h128z"/><path d="m-300 168-16-4z"/><path d="m-224 184v-12h128v12z"/><path d="m-96 172h-128v12h128z"/><path d="m704-544v-24 8z"/><path d="m544-544h160v-16h-160z"/><path d="m704-544h-160v16h160z"/><path d="m712 132h184v-8h-136-48z"/><path d="m760 124h136v-8h-120-16z"/><path d="m776 116h120v-16h-104-16z"/><path d="m680-24h24-128-32z"/><path d="m518-24h-6z"/><path d="m704-312v-64 21.3333 42.6667 32z"/><path d="m688-280h16-16-144z"/><path d="m544-280v-32z"/><path d="m704-280h-16v-32h16z"/><path d="m688-312v32h-144v-32z"/><path d="m792 100h104v-16l-104-.0011z"/><path d="m800 84h96v-56h-64-32z"/><path d="m680-24h-224l32 4h192z"/><path d="m712-20h184v-4h-216v4z"/><path d="m544 136h-32v-160h6 26z"/><path d="m544-24v160z"/><path d="m792 28h8 32v-16h-40z"/><path d="m544-528v32h160v-32z"/><path d="m776 12h16 40 64v-.72-15.28h-32-88z"/><path d="m760-4h16 88v-8h-104z"/><path d="m480 136h32z"/><path d="m680 132h-192l-32 4h56 32 32 32 72z"/><path d="m518-24h26z"/><path d="m704-408v-24z"/><path d="m704-344v-32-32 32 64z"/><path d="m704-408h-160v16 16h160z"/><path d="m688-344v32h-144v-32z"/><path d="m704-312h-16v-32h16z"/><path d="m704-312h-16z"/><path d="m688-312h-144z"/><path d="m512-24v160z"/><path d="m512 136h-32v-160h32z"/><path d="m-96 176h-128v8h128z"/><path d="m-224 184v-12z"/><path d="m-96 172v12z"/><path d="m-96 184h-128v-12h128z"/><path d="m-96 184h-128z"/><path d="m-224 172h128z"/><path d="m704-432v-32z"/><path d="m544-432v24h160v-24z"/><path d="m704-496h-160v32h160z"/><path d="m712-12h48 104 32v-8h-184z"/><path d="m704-496v-32z"/><path d="m704-464v-32z"/><path d="m704-496v32 32 24z"/><path d="m704-464h-160v32h160z"/><path d="m480 136h32-64z"/><path d="m518-24h-6-32z"/><path d="m704-376v32z"/><path d="m688-344h-144z"/><path d="m704-344h-16z"/><path d="m688-376v32h-144v-32z"/><path d="m704-344h-16v-32h16z"/><path d="m480-24v160z"/><path d="m480 136h-32v-160h32z"/><path d="m608 136h-32z"/><path d="m-348-244-4 16z"/><path d="m-340-260-8 16z"/><path d="m-332-268-8 8z"/><path d="m32-280h-128z"/><path d="m-96-280h-32-172z"/><path d="m-316-276-16 8z"/><path d="m-300-280-16 4z"/><path d="m518-24h-38-32z"/><path d="m704-408v32z"/><path d="m544-408h144v32h-144z"/><path d="m688-408h16v32h-16z"/><path d="m688-376h-144z"/><path d="m704-376h-16z"/><path d="m448-24v160z"/><path d="m448 136h-32v-160h32z"/><path d="m-348-72h-4v32h4z"/><path d="m-80 164v4h32v-4z"/><path d="m224 24h-4v32h4z"/><path d="m144-472v4h32v-4z"/><path d="m384-472v4h32v-4z"/><path d="m832-92v4h32v-4z"/><path d="m32-312v-108-16-16-8-8-4z"/><path d="m576 136h-32z"/><path d="m512-280v4z"/><path d="m512-88h32z"/><path d="m544-280h-32z"/><path d="m544-280v-64 32z"/><path d="m544-88v-4z"/><path d="m544-280h-32v4h32z"/><path d="m512-88h32v-4h-32z"/><path d="m512-472h-32-160z"/><path d="m320-472h-224v4h224z"/><path d="m32-280h4z"/><path d="m96-472h-64v4h64z"/><path d="m32-312v32h4v-32z"/><path d="m-96 184v-12z"/><path d="m224-312h-4z"/><path d="m224-280v-32h-4v32z"/><path d="m-224 172h128z"/><path d="m-96 172h-128z"/><path d="m-224 168v4z"/><path d="m-96 168h-4z"/><path d="m-224 168h4z"/><path d="m-224 168v4h4v-4z"/><path d="m-96 172v-4h-4v4z"/><path d="m-224 168h-76z"/><path d="m-224 172v12z"/><path d="m-224 172v12h4v-12z"/><path d="m-96 184v-12h-4v12z"/><path d="m580-716 16-4z"/><path d="m384 136h32z"/><path d="m518-24h-70-32z"/><path d="m704-528v-40 24z"/><path d="m704-408h-16z"/><path d="m688-408h-144z"/><path d="m544-469v-3-112h144v176h-144z"/><path d="m640-720 64 8v128h-16-144v-84l4-16 8-16 8-8 16-8 16-4z"/><path d="m688-584h16v16 40 32 88h-16z"/><path d="m544-668 4-16z"/><path d="m556-700 8-8z"/><path d="m556-700-8 16z"/><path d="m416-24v160z"/><path d="m384-24h32v160h-32z"/><path d="m544 136h-32z"/><path d="m512-88v-4z"/><path d="m544-468v8-12z"/><path d="m544-472v-32-164 84z"/><path d="m544-472v3 1z"/><path d="m544-92v4-12z"/><path d="m544-276v8-12z"/><path d="m544-280v4z"/><path d="m512-468v-4h-192v4z"/><path d="m320-468h-224v8h224z"/><path d="m32-312h4z"/><path d="m36-312h8-12z"/><path d="m96-468h-64v8h64z"/><path d="m640 40h-32v32h32z"/><path d="m220-280h-8 12z"/><path d="m224-280h-4z"/><path d="m640 40v32h-64v-32z"/><path d="m640 40v32z"/><path d="m640 72h-32-32z"/><path d="m-220 172h8 8 16 16 24 16 16 8 8 4-128z"/><path d="m-100 172h-8-8-16-16-24-16-16-8-8-4 128z"/><path d="m-224 168h4 8z"/><path d="m-100 172v-4h-8v4z"/><path d="m-100 184h-8-8-16-16-24-16-16-8-8-4 128z"/><path d="m-220 172v12h8v-12z"/><path d="m352 136h32 32z"/><path d="m518-24h-102-32z"/><path d="m704-584v-128z"/><path d="m704-568v-16z"/><path d="m736-564 32 8 32 8z"/><path d="m736-564-32-4v-16l32 4z"/><path d="m736-580-32-4v-128l32 4z"/><path d="m544-344v-32z"/><path d="m548-376h-4v32h4z"/><path d="m384-24v160z"/><path d="m352-24h32v160h-32z"/><path d="m-348-40h-4v-32h4z"/><path d="m-352-72h4z"/><path d="m-348-40h-4z"/><path d="m-352-40v-32z"/><path d="m-348-72v32z"/><path d="m-80 168v-4h32v4z"/><path d="m-80 168v-4z"/><path d="m-48 164v4z"/><path d="m-48 168h-32z"/><path d="m-80 164h32z"/><path d="m224 56h-4v-32h4z"/><path d="m224 56h-4z"/><path d="m220 24h4z"/><path d="m224 24v32z"/><path d="m220 56v-32z"/><path d="m144-460v-4h32v4z"/><path d="m144-460v-8-4 8z"/><path d="m176-464v-8 4 8z"/><path d="m144-464v-8h32v8z"/><path d="m176-460v-8h-32v8z"/><path d="m384-460v-8-4 8z"/><path d="m384-460v-4h32v4z"/><path d="m416-464v-8 4 8z"/><path d="m384-464v-8h32v8z"/><path d="m416-460v-8h-32v8z"/><path d="m832-88v-4h32v4z"/><path d="m864-92v4z"/><path d="m832-88v-4z"/><path d="m832-92h32z"/><path d="m864-88h-32z"/><path d="m608 40h32-64z"/><path d="m-96 168h128z"/><path d="m512-268v-8-4z"/><path d="m512-88v-12-8z"/><path d="m512-88v-4-8z"/><path d="m544-472v12 8z"/><path d="m544-280v12 8z"/><path d="m512-100h32v-8h-32z"/><path d="m544-268v-8h-32v8z"/><path d="m512-100v8h32v-8z"/><path d="m544-268h-32v8h32z"/><path d="m224-312h32z"/><path d="m212-312h8 4z"/><path d="m320-460h-224v8h224z"/><path d="m512-460v-8h-192v8z"/><path d="m212-280h8v-32h-8z"/><path d="m212-280v-32h-8v32z"/><path d="m44-280h-8-4z"/><path d="m32-312h12 8z"/><path d="m96-460h-64v8h64z"/><path d="m44-312v32h8v-32z"/><path d="m44-312h-8v32h8z"/><path d="m-108 168h8 4z"/><path d="m-224 168h12 8z"/><path d="m-108 172v-4h-8v4z"/><path d="m-212 168h-8v4h8z"/><path d="m-212 168v4h8v-4z"/><path d="m-108 184v-12h-8v12z"/><path d="m-108 184h8v-12h-8z"/><path d="m-212 172v12h8v-12z"/><path d="m736-708 32 8z"/><path d="m488-24h30-134-32z"/><path d="m488-24h-136-32 136z"/><path d="m736-564v-16z"/><path d="m736-580v-128z"/><path d="m768-700v128z"/><path d="m768-556-32-8v-16l32 8z"/><path d="m768-572-32-8v-128l32 8z"/><path d="m352-24v160z"/><path d="m320-24h32v160h-32z"/><path d="m512-108v-16z"/><path d="m544-452v16z"/><path d="m544-260v16z"/><path d="m512-260v16h32v-16z"/><path d="m320-452h-224v16h224z"/><path d="m512-452v-8h-192v8z"/><path d="m204-280h-16z"/><path d="m204-312h-16v32h16z"/><path d="m52-312h16z"/><path d="m96-452h-64v16h64z"/><path d="m52-280h16v-32h-16z"/><path d="m-204 168h16z"/><path d="m-116 168h-16v4h16z"/><path d="m-204 184h16v-12h-16z"/><path d="m32 168h64-21.3333-4.2667z"/><path d="m576 72h32v-32h-32z"/><path d="m224-24v160-64z"/><path d="m224-24-128 32v128h128z"/><path d="m96 8 128-32z"/><path d="m96 136v32h76l16-2 16-5 8-5 8-10 4-10z"/><path d="m220 146 4-10z"/><path d="m204 161 8-5z"/><path d="m172 168 16-2z"/><path d="m96 136v-128h-32v160h10.6667 21.3333z"/><path d="m512-244v-16z"/><path d="m512-244v16z"/><path d="m544-124v16z"/><path d="m544-124v-16z"/><path d="m512-124v16h32v-16z"/><path d="m544-244h-32v16h32z"/><path d="m188-312h-16z"/><path d="m320-436h-224v16h160 64z"/><path d="m512-436v-16h-192v16z"/><path d="m384-200h32-64z"/><path d="m416-200h-32v32h32z"/><path d="m352-168h32v-32h-32z"/><path d="m576 72v-32z"/><path d="m68-280h-16z"/><path d="m68-280h16z"/><path d="m96-436h-64v16h64z"/><path d="m68-312v32h16v-32z"/><path d="m-132 168h-16z"/><path d="m-132 168h16z"/><path d="m-188 168v4h16v-4z"/><path d="m-188 172v-4h-16v4z"/><path d="m-132 172v12h16v-12z"/><path d="m-188 172v12h16v-12z"/><path d="m596-720h44z"/><path d="m640-720h-44z"/><path d="m704-712 32 4z"/><path d="m640-720 64 8z"/><path d="m596-720-16 4z"/><path d="m32 168h-32-32-32-32z"/><path d="m70.4 168h4.2667-10.6667z"/><path d="m32 168h38.4-6.4z"/><path d="m580-716-16 8z"/><path d="m564-708 16-8z"/><path d="m1020-232v-24l-10 10v14z"/><path d="m1016-280v20h4v-20l-4-16z"/><path d="m960-232h-144l-46 18-18 18-16 44.001v63.999h20 140 64z"/><path d="m1020-88v-144h-10-14-36v144z"/><path d="m1020-256v-4h-4-12l-8 4v8 10l14-8z"/><path d="m1016-280-12 20h12z"/><path d="m996-248v-8l-24 8z"/><path d="m960-232h36v-6-10h-24-156v16z"/><path d="m816-232v-16l-48 16 2 18z"/><path d="m1010-246-14 8v6h14z"/><path d="m800-548-32-8v-16l32 8z"/><path d="m768-700 32 8v128l-32-8z"/><path d="m512-228v-16-16-20-140h-96v220 4h96z"/><path d="m416-196v28 80h96v-20-16-16-56z"/><path d="m736-200 16 4 18-18-2-18z"/><path d="m720-88h16v-63.999l-16-.001z"/><path d="m720-152 16 .001 16-44.001-16-4z"/><path d="m548-344h-4v-32h4z"/><path d="m512-228v32 56h32v-88z"/><path d="m416-420h-96-64v108 112h96 64z"/><path d="m172-312h16 16 20 32v-108h-160v108z"/><path d="m172-312h-76v32h76z"/><path d="m416-168h-64v80h64z"/><path d="m268-108 8 8 16 8 16 4h44v-80-32h-96v60l4 16z"/><path d="m288-24h32v160h-32z"/><path d="m972-248h-156z"/><path d="m928-472 64 96z"/><path d="m1004-344 12 48z"/><path d="m768-232-32 32z"/><path d="m816-248-48 16z"/><path d="m720-88h-128z"/><path d="m544-504v32 20 16 16 12 32 32 64-64z"/><path d="m548-684-4 16z"/><path d="m564-708-8 8z"/><path d="m556-700-8 16z"/><path d="m544-280v20 16 16 88 16 16 20z"/><path d="m320-24h136z"/><path d="m320 136h96-128z"/><path d="m488 132h-168-64v4h160 40z"/><path d="m456-24h-136-32-32v4h224 8z"/><path d="m224-24-128 32z"/><path d="m1020-280v20 4 24 144z"/><path d="m1016-296 4 16-16-64z"/><path d="m992-376 12 32z"/><path d="m320 136h32 64z"/><path d="m416 136h32 64-56z"/><path d="m488 132h192 32v-8h-176z"/><path d="m536 124h176 48v-8h-208z"/><path d="m552 116h208 16v-16h-208z"/><path d="m896-88h-140 12z"/><path d="m512-260v-8-12z"/><path d="m512-140v16z"/><path d="m756-88h-20-16-128-48 144 16 64z"/><path d="m800-548-32-8z"/><path d="m768-556v-16z"/><path d="m544-420v-16z"/><path d="m544-408v32z"/><path d="m544-408v-12-16-16-8-8-1z"/><path d="m548-344h-4z"/><path d="m548-376v32z"/><path d="m544-376h4z"/><path d="m544-228v-16z"/><path d="m544-108v8 12z"/><path d="m544-140h-32v16h32z"/><path d="m188-312h16z"/><path d="m204-312h8 12z"/><path d="m416-420h96v-16h-192v16z"/><path d="m256-200v-112 64 108z"/><path d="m416-168h-32-32z"/><path d="m416-196v-4 32z"/><path d="m352-168v-32z"/><path d="m268-108-8-16z"/><path d="m276-100-8-8z"/><path d="m260-124-4-16z"/><path d="m308-88-16-4z"/><path d="m292-92-16-8z"/><path d="m224-280h-12-8z"/><path d="m172-280h16z"/><path d="m172-312v32h16v-32z"/><path d="m224-108v84z"/><path d="m568 100h208 16v-16.0011h-216z"/><path d="m576 83.9989 224 .0011v-56h-8-216z"/><path d="m576 28h216v-16h-16-208z"/><path d="m568 12h208v-16h-16-208z"/><path d="m536-12h176v-8h-32-192z"/><path d="m552-4h208v-8h-48-176z"/><path d="m320-24v160z"/><path d="m52-280h-8-12z"/><path d="m84-280h-16-16-20 36 28z"/><path d="m84-312h-16z"/><path d="m96-420h-64v108h20 16 16 12z"/><path d="m96-312h-12v32h12z"/><path d="m96 8h-32z"/><path d="m-116 168h8 12z"/><path d="m-172 168h-16z"/><path d="m-148 168h-24v4h24z"/><path d="m-148 168v4h16v-4z"/><path d="m-172 184h24v-12h-24z"/><path d="m-148 172v12h16v-12z"/><path d="m-224 184v-8z"/><path d="m-96 176v8z"/><path d="m-96 184h-128v-8h128z"/><path d="m-96 184h-128z"/><path d="m-224 176h128z"/><path d="m64 8h-32v160h32z"/><path d="m800-692 32 11.6364z"/><path d="m800-564v-128z"/><path d="m800-548v-16z"/><path d="m832-536 96 64-32-21.3334z"/><path d="m832-536-32-12v-16l32 12z"/><path d="m832-552-32-12v-128l32 11.6364z"/><path d="m832-536-32-12z"/><path d="m544 28h32l-8-16h-24z"/><path d="m288-24h-32z"/><path d="m288-24h32z"/><path d="m288-24v160z"/><path d="m256-24h32v160h-32z"/><path d="m416 136h40z"/><path d="m32 8h-32v160h32z"/><path d="m480 124h-160v8h168l48-8z"/><path d="m480 124h56l16-8h-72z"/><path d="m480-12h56l-48-8h-8z"/><path d="m1176-184v44z"/><path d="m1164-108 8-16z"/><path d="m1172-124 4-16z"/><path d="m736-708-32-4-64-8z"/><path d="m736-708 64 16-32-8z"/><path d="m1170-232-6-48 12 96z"/><path d="m1136.3636-376-20.3636-56 32 88z"/><path d="m1124-88h-23z"/><path d="m1077-344h71l12 48h-78.5z"/><path d="m1074-376h62.3636l11.6364 32h-71z"/><path d="m1081.5-296h78.5l4 16 6 48h-82.5z"/><path d="m1059.8395-527.0406 20.1605 23.0406 36 72 20.3636 56h-62.3636z"/><path d="m1170-232 6 48v44l-4 16-8 16-8 8-16 8-16 4h-23l-13.5-144z"/><path d="m1156-100 8-8z"/><path d="m1140-92 16-8z"/><path d="m172 168h-76z"/><path d="m752-196-16 44h-16l16-48z"/><path d="m736-152v64h-16v-64z"/><path d="m752-196-16-4 32-32 2 18z"/><path d="m928-472-96-64v-16-128.3636l56 20.3636 72 36 64 56z"/><path d="m996-238 14-8v14h-14z"/><path d="m1101-88h-205v-144h76 24 14 22 55.5z"/><path d="m1010-246-14 8v-18l8-4h20z"/><path d="m972-248v16h-76-80v-16z"/><path d="m816-248v16l-46 18-2-18z"/><path d="m992-376-64-96 96-96 35.8395 40.9594 14.1605 151.0406z"/><path d="m1032-260v-20-16h49.5l6 64h-55.5z"/><path d="m1032-280-8 20h-20l12-20z"/><path d="m736-56v-32-64l16-44 18-18 46-18h80v144 80h-160z"/><path d="m896-8v112h-160v-112z"/><path d="m1004-344-12-32h82l3 32z"/><path d="m1032-296h-16l-12-48h73l4.5 48z"/><path d="m1016-296h16v16h-16z"/><path d="m1032-280v20h-8z"/><path d="m1010-232v-14l14-14h8v28z"/><path d="m996-238v6h-24v-16l24-8z"/><path d="m896-8v-80 192z"/><path d="m832-536v-16z"/><path d="m832-552v-128.3636z"/><path d="m1016-280v-16z"/><path d="m1004-260 12-20z"/><path d="m996-256 8-4z"/><path d="m972-248 24-8z"/><path d="m1004-344-12-32z"/><path d="m720-88v-64z"/><path d="m720-152 16-48z"/><path d="m544-668v164z"/><path d="m416-504h128v160h-128-32v-160z"/><path d="m256 56v-64-16 160z"/><path d="m592-88h-48z"/><path d="m256 56v80h-32z"/><path d="m256-8h-32v-16h32z"/><path d="m96 24 128-32h32v64l-32 80-4 10-8 10-8 5-16 5-16 2h-76z"/><path d="m96 8 128-32v16l-128 32z"/><path d="m32-280v4h32v-4z"/><path d="m-192-280v4h32v-4z"/><path d="m480 116h72l16-16h-88z"/><path d="m480-4h72l-16-8h-56z"/><path d="m480 100h88l8-16.0011-96-.0001z"/><path d="m480 12h-160v16h160 64v-16z"/><path d="m480 12h64 24l-16-16h-72z"/><path d="m96 168h76-108z"/><path d="m96 8v16z"/><path d="m96 24v144z"/><path d="m736-56v48 112z"/><path d="m736-56v-32z"/><path d="m736 104h-32z"/><path d="m704-56h32v160h-32z"/><path d="m384-344h-32z"/><path d="m384-504h32z"/><path d="m384-504v160z"/><path d="m352-504h32v160h-32z"/><path d="m480 83.9988 96 .0001v-55.9989h-32-64z"/><path d="m64 8h-32z"/><path d="m96 24h-32v-16h32z"/><path d="m64 24h32v144h-32z"/><path d="m0 8h32z"/><path d="m0 8h-32v160h32z"/><path d="m704-56h-32z"/><path d="m704-56h32z"/><path d="m672-56h32v160h-32z"/><path d="m704 104h32-64z"/><path d="m704-56v160z"/><path d="m352-344h32-64z"/><path d="m384-504h-32z"/><path d="m352-504v160z"/><path d="m320-504h32v160h-32z"/><path d="m64 24h-32v-16h32z"/><path d="m32 24h32v144h-32z"/><path d="m64 24v144z"/><path d="m64 8v16z"/><path d="m-32 8h32z"/><path d="m-32 8h-32v160h32z"/><path d="m224-168h-4v32h4z"/><path d="m32-276v-4z"/><path d="m32-276v-4h32v4z"/><path d="m64-280v4z"/><path d="m32-280h32z"/><path d="m64-276h-32z"/><path d="m-192-276v-4z"/><path d="m-160-280v4z"/><path d="m-192-276v-4h32v4z"/><path d="m-192-280h32z"/><path d="m-160-276h-32z"/><path d="m800 100v4h32v-4z"/><path d="m608-720v4h32v-4z"/><path d="m-64 8h-32v160h32z"/><path d="m-352-13.3333v8.5333-19.2-32z"/><path d="m-352-228v120z"/><path d="m320 648h-12z"/><path d="m308 648-16-4z"/><path d="m-348 132 8 16z"/><path d="m-352-228 4-16z"/><path d="m476 644-16 4z"/><path d="m276 636 16 8z"/><path d="m32 24v144z"/><path d="m32 8v16z"/><path d="m672 104v64z"/><path d="m672-56v160z"/><path d="m592-56h80v160 64h-80z"/><path d="m320-344h64-96z"/><path d="m320-504h40 12 12-32z"/><path d="m320-504v160z"/><path d="m288-504h32v160h-32z"/><path d="m592-56h-28z"/><path d="m524-36 8-8 16-8 16-4h28v224h-80v-172l4-16z"/><path d="m532-44-8 8z"/><path d="m516-20-4 16z"/><path d="m564-56-16 4z"/><path d="m532-44 16-8z"/><path d="m0 24h32v144h-32z"/><path d="m32 24h-32v-16h32z"/><path d="m512 168v32z"/><path d="m592 168h80v192h-160v-32-128-32z"/><path d="m336 264h16 32v64h-125l1-4 8-16 8-12 10.6667-16 10.6666-16z"/><path d="m284 280h2.6667l-10.6667 16z"/><path d="m352 264h-16v-36l16-8z"/><path d="m352 264v-44l12-8 16-8 4-1v61z"/><path d="m297.3333 264 20.6667-31 2-1 16-4v36z"/><path d="m297.3333 264-10.6666 16h-2.6667l4-16 8-16 8-8 14-7z"/><path d="m512 200v128h-32-96v-64-61l12-3z"/><path d="m480 360h-224v-20l3-12h125 96z"/><path d="m512 328v32h-32v-32z"/><path d="m352 220-16 8z"/><path d="m336 228-16 4z"/><path d="m276 296-8 12z"/><path d="m380 204-16 8z"/><path d="m288 264-4 16z"/><path d="m-128 8h-64-160v108l4 16 8 16 8 8 16 8 16 4h76 96z"/><path d="m-96 8h-32v160h32z"/><path d="m-96 168h-32-96 20 16 16 24 16 16z"/><path d="m480 392h-224v-32h224z"/><path d="m512 360v32h-32v-32z"/><path d="m512 392v160z"/><path d="m480 552h-224v-160h224z"/><path d="m512 392v160h-32v-160z"/><path d="m256 596v-44z"/><path d="m480 642-4 2-16 4h-12-116l-72-36-4-16v-44h224z"/><path d="m512 552v44l-4 16-8 16-8 8-12 6v-90z"/><path d="m512 596-4 16z"/><path d="m260 612-4-16z"/><path d="m500 628 8-16z"/><path d="m500 628-8 8z"/><path d="m332 648h-12-12l-16-4-16-8-8-8-8-16z"/><path d="m276 636-8-8z"/><path d="m332 648h116v4h-128v-4z"/><path d="m448 652v12h-128v-12z"/><path d="m448 648v4z"/><path d="m448 652h-128z"/><path d="m448 664h-128z"/><path d="m448 652h-128v12h128z"/><path d="m384 40h-32v32h32z"/><path d="m-352-24v19.2 12.8z"/><path d="m384 40v32h-64v-32z"/><path d="m384 40v32z"/><path d="m384 72h-32-32z"/><path d="m-96 8h32z"/><path d="m-64 8h-32z"/><path d="m-96 8h-64z"/><path d="m-192 8h32 64z"/><path d="m-192 8h64 32-64z"/><path d="m-192-24h-160v32h160z"/><path d="m256 552h-80z"/><path d="m288-504h32z"/><path d="m256-504h32v160h-32z"/><path d="m288-504v160z"/><path d="m-32 8h-32z"/><path d="m0 24v144z"/><path d="m0 8v16z"/><path d="m-32 24h32v144h-32z"/><path d="m0 24h-32v-16h32z"/><path d="m256 392v-32z"/><path d="m256 392v160z"/><path d="m256 392v160h-80z"/><path d="m220-168h4z"/><path d="m224-136h-4v-32h4z"/><path d="m224-136h-4z"/><path d="m224-168v32z"/><path d="m220-136v-32z"/><path d="m800 104v-4h32v4z"/><path d="m800 104v-4z"/><path d="m832 100v4z"/><path d="m832 104h-32z"/><path d="m800 100h32z"/><path d="m992-92v4h32v-4z"/><path d="m1116-432-7-14-3 2 14 33 3-2z"/><path d="m914-647-2 4 32 16 2-4z"/><path d="m608-716v-4h32v4z"/><path d="m608-716v-4z"/><path d="m640-720v4z"/><path d="m608-720h32z"/><path d="m640-716h-32z"/><path d="m548-208h-4v32h4z"/><path d="m544-504v-164z"/><path d="m544-344h-128z"/><path d="m416-344h-24-8z"/><path d="m416-504h128z"/><path d="m256-24h32z"/><path d="m256 136h32 128z"/><path d="m256-24h-32z"/><path d="m256 136h-32z"/><path d="m224-24v4z"/><path d="m256-24h-32v4h32z"/><path d="m224 136-4 10z"/><path d="m352 40h32-64z"/><path d="m896-88h-4z"/><path d="m736-88h-144 128z"/><path d="m896-88h-4v192h4z"/><path d="m736-56 4 4z"/><path d="m736-56 4 4v-36h-4z"/><path d="m736-56v4.2002l4-.2002z"/><path d="m896 104v-4z"/><path d="m896 104h-160z"/><path d="m736 104h160v-4h-160z"/><path d="m116 540 16 8z"/><path d="m176 552h80-108z"/><path d="m148 552-16-4z"/><path d="m544-347v3-4z"/><path d="m224-344h32z"/><path d="m256-504h32z"/><path d="m256-504h-32z"/><path d="m224-504h32v160h-32z"/><path d="m256-504v160z"/><path d="m392-344h24v-3z"/><path d="m416-347v3h128v-3z"/><path d="m-32 24v144z"/><path d="m-32 8v16z"/><path d="m-64 24h32v144h-32z"/><path d="m-32 24h-32v-16h32z"/><path d="m-192-56h-160v32h160z"/><path d="m256 392-80 160h-28l-16-4-16-8-8-8-8-16-4-16v-28z"/><path d="m100 516-4-16z"/><path d="m116 540-8-8z"/><path d="m256 392-80 160z"/><path d="m544-504v4z"/><path d="m544-500v8-12z"/><path d="m544-500v-4h-128v4z"/><path d="m416-348h-24-8v4h8l24-3z"/><path d="m416-348v1h128v-1z"/><path d="m256-20v8h224v-8z"/><path d="m224 132v-8 12z"/><path d="m224 136v-4z"/><path d="m224 132v4h32v-4z"/><path d="m320 72h32v-32h-32z"/><path d="m1124-88h-23z"/><path d="m1101-88h-205z"/><path d="m736-88h4 8z"/><path d="m736-88h4z"/><path d="m892-88h-8v192h8z"/><path d="m740-52 8 8v-44h-8z"/><path d="m320 72v-32z"/><path d="m736-56v4.2002z"/><path d="m736-51.7998v-4.2002 12.5999z"/><path d="m736-56 4 4z"/><path d="m736 104v-4z"/><path d="m736 100v-8 12z"/><path d="m448 648h12z"/><path d="m460 648 16-4z"/><path d="m492 636-16 8 4-2z"/><path d="m476 644 16-8z"/><path d="m672 360h-160z"/><path d="m512 360h160z"/><path d="m672 104v64z"/><path d="m224-344h32-64z"/><path d="m192-504h32v160h-32z"/><path d="m224-504v160z"/><path d="m416-352v4l8-4z"/><path d="m392-348h24v-4z"/><path d="m424-352-8 4h128v-8h-112z"/><path d="m512 104v-108 172z"/><path d="m320 28h-64v55.9988h224v-55.9988z"/><path d="m-64 24v48h-32v-48z"/><path d="m-96 8h32v16h-32z"/><path d="m-64 72v96h-32v-96z"/><path d="m-64 72v-48 144z"/><path d="m-64 8v16z"/><path d="m512 168v32z"/><path d="m672 168v192z"/><path d="m480 200h32-116z"/><path d="m-128 168h-172l-16-4-16-8-8-8-8-16-4-16v-44h96 128z"/><path d="m-96 168h-32v-96h32z"/><path d="m-208 24v-16h16z"/><path d="m-352 72v-64h144v16l-48 48z"/><path d="m-192 8h96v16h-112z"/><path d="m-96 72h-32-128l48-48h112z"/><path d="m512 552v-160z"/><path d="m256 392-160 80v-80z"/><path d="m96 500v-28z"/><path d="m256 392-160 80z"/><path d="m108 532-8-16z"/><path d="m512 552v44z"/><path d="m512 596v-44z"/><path d="m508 612 4-16z"/><path d="m500 628 8-16z"/><path d="m492 636 8-8z"/><path d="m268 628-8-16z"/><path d="m320 664v-12z"/><path d="m448 664v-12z"/><path d="m448 652v12z"/><path d="m448 664h-4-8-8-16-16-24-16-16-8-8-4z"/><path d="m992-88v-4h32v4z"/><path d="m992-88v-4z"/><path d="m1024-92v4z"/><path d="m992-92h32z"/><path d="m1024-88h-32z"/><path d="m1120-411-14-33 3-2 7 14 7 19z"/><path d="m1116-432 7 19z"/><path d="m1109-446 7 14z"/><path d="m1123-413-3 2z"/><path d="m1106-444 3-2z"/><path d="m1120-411-14-33z"/><path d="m912-643 2-4 32 16-2 4z"/><path d="m944-627-32-16z"/><path d="m914-647 32 16z"/><path d="m912-643 2-4z"/><path d="m946-631-2 4z"/><path d="m548-176h-4v-32h4z"/><path d="m548-176h-4z"/><path d="m544-208h4z"/><path d="m548-208v32z"/><path d="m544-176v-32z"/><path d="m-192-88h-160v32h160z"/><path d="m372-500h44v-4h-32-12z"/><path d="m1124-88h-23z"/><path d="m1101-88h-217 8 4z"/><path d="m736-88h12 8z"/><path d="m884-88h-8v192h8z"/><path d="m748-44-8-8-4-4z"/><path d="m748-44 8 8v-52h-8z"/><path d="m544-356v8 4z"/><path d="m544-504v12 8z"/><path d="m432-492h112v-8h-128z"/><path d="m416-492h16l-16-8z"/><path d="m416-492 32 8h32l-48-8z"/><path d="m416-492v8h32z"/><path d="m416-356v4h8l8-4z"/><path d="m544-356v-8h-64l-48 8z"/><path d="m256 124v8h64v-8z"/><path d="m256-12v8h224v-8z"/><path d="m224-12v-8-4z"/><path d="m224-12h32v-8h-32z"/><path d="m224 124v8h32v-8z"/><path d="m736-43.4443 12.2164-.3394-.2164-.2163z"/><path d="m736-56 4 4 8 8z"/><path d="m748-44-8-8-4 .2002v8.3997z"/><path d="m896 92v8 4z"/><path d="m896 104h-160z"/><path d="m896 104h-160z"/><path d="m736 92h160v-8h-160z"/><path d="m736 92v8h160v-8z"/><path d="m-352 72v-64z"/><path d="m224 392h32-160z"/><path d="m76 360h20-32z"/><path d="m64 360h-32z"/><path d="m96-280h128-20-16-16z"/><path d="m192-344h64-64-32z"/><path d="m192-504h168-40-32-32-32z"/><path d="m192-504h-32z"/><path d="m408-356h-24v8h8l24-4v-4z"/><path d="m192-344h-32v-160h32z"/><path d="m192-504v160z"/><path d="m408-356h8v-4z"/><path d="m420-360h-4v4l16-4z"/><path d="m224-280v32z"/><path d="m96-280h-28z"/><path d="m256 360v-20z"/><path d="m480 200h-84z"/><path d="m276 296-8 12h-12v-28-16h32l-4 16z"/><path d="m256 324v-16h12l-8 16z"/><path d="m380 204-16 8v-12h16z"/><path d="m304 240-8 8h-40v-48h48z"/><path d="m296 248-8 16h-32v-16z"/><path d="m320 232-16 8v-40h16z"/><path d="m380 204v-4h16z"/><path d="m256 340v-16h4z"/><path d="m364 200v12l-12 8-16 8-16 4v-32z"/><path d="m288 264 8-16z"/><path d="m364 212-12 8z"/><path d="m296 248 8-8z"/><path d="m320 232-2 1-14 7z"/><path d="m396 200-12 3-4 1z"/><path d="m256 340 4-16-1 4z"/><path d="m260 324 8-16z"/><path d="m276 296 8-16z"/><path d="m96 280h128v80h-128z"/><path d="m96 200h160v48 16 16h-32-128z"/><path d="m224 280h32v28 16 16 20h-32z"/><path d="m96 200v80 80h-20l-44-22v-138z"/><path d="m-192-88v-32z"/><path d="m-192 8h-16z"/><path d="m-208 8h-144z"/><path d="m-192-24v-64 32 32 32z"/><path d="m-208 8v-32h16v32z"/><path d="m-352 8v-32h144v32z"/><path d="m32 338v22z"/><path d="m76 360h-12-32v-22z"/><path d="m256 392v-32z"/><path d="m224 360v32h-128v-32z"/><path d="m756-88h16z"/><path d="m876 104h-16-16-108 160-4-8z"/><path d="m876-88h-16v192h16z"/><path d="m756-36 16 16z"/><path d="m544-484v9.1429 6.8571z"/><path d="m320-344h-64 32 96z"/><path d="m480-484h64v-8h-112z"/><path d="m320-344h64v-4h-64z"/><path d="m416-484 8 8 8 8h96l-80-16z"/><path d="m448-364h-16l5.3333 2.6667z"/><path d="m416-484v16l8-8z"/><path d="m416-364v-16h-8-88v16z"/><path d="m432-364h-16l4 4h12l5.3333-1.3333z"/><path d="m416-364h-96v8h64 24l8-4z"/><path d="m416-364v4h4z"/><path d="m480-364h-32l-10.6667 2.6667-5.3333 1.3333-16 4h16z"/><path d="m448-364h32l64-9.1432v-6.8568h-16z"/><path d="m480-364h64v-9.1432z"/><path d="m256-4v16h64 160v-16z"/><path d="m256 116v8h64 160v-8z"/><path d="m224 116v20-12z"/><path d="m224 116v-16z"/><path d="m224-4h32v-8h-32z"/><path d="m256 116h-32v8h32z"/><path d="m224-4v16h32v-16z"/><path d="m756-36-20 .5557v-.0001z"/><path d="m756-36-7.7836-7.7837-12.2164.3394v8z"/><path d="m756-36 16 16z"/><path d="m736 84v-16z"/><path d="m-352-120v-108 120 94.6667-42.6667-32z"/><path d="m-348-244 8-16z"/><path d="m-340-260 8-8z"/><path d="m64-280h4-36z"/><path d="m48-168 8-24-24 24v16z"/><path d="m56-192 8-24v-64h-32v112z"/><path d="m64-216v-64z"/><path d="m18-154-50 18v16l48-16z"/><path d="m-32-136h-64v16h64z"/><path d="m32-168-14 14-2 18 16-16z"/><path d="m32-280h-128v144h64l50-18 14-14z"/><path d="m32-152-16 16z"/><path d="m-32-120 48-16z"/><path d="m-96-280h128z"/><path d="m-300-280h172 32z"/><path d="m-96-120h-32-64z"/><path d="m-128-280h-172l-16 4-16 8-8 8-8 16-4 16v108h160 64z"/><path d="m-96-136v-144h-32v160h32z"/><path d="m-332-268 16-8z"/><path d="m-316-276 16-4z"/><path d="m-192-120h-160v32h160z"/><path d="m-208-24h-144z"/><path d="m-208-24h16z"/><path d="m544-474.8571v-9.1429h-64z"/><path d="m736-19.3076v16.0723z"/><path d="m736-19.3076v16.0723l52-.7647-16-16z"/><path d="m320 648h-12z"/><path d="m320 648h4z"/><path d="m448 648h-4z"/><path d="m860-88h-16z"/><path d="m860-88h16z"/><path d="m860-88h-16v140 52h16z"/><path d="m772-88h-16v52l16 16z"/><path d="m544-380v6.8568 9.1432z"/><path d="m528-468h16v-6.8571l-64-9.1429h-32z"/><path d="m384-356h-64v8h64z"/><path d="m432-468h-16v16h40z"/><path d="m416-380v-16l-8 16z"/><path d="m416-380 16 16h16l80-16z"/><path d="m416-468h16l-8-8z"/><path d="m416-380v16h16z"/><path d="m544-380v-2.9093l-16 2.9093z"/><path d="m256 12v16h64v-16z"/><path d="m256 100v16h224v-16z"/><path d="m224 12v16z"/><path d="m224 12v-16z"/><path d="m224 100v16h32v-16z"/><path d="m256 12h-32v16h32z"/><path d="m320 652v-4z"/><path d="m448 652v-4z"/><path d="m448 652h-128z"/><path d="m448 652h-4-8-8-16-16-24-16-16-8-8-4z"/><path d="m320 648v4h4v-4z"/><path d="m448 652v-4h-4v4z"/><path d="m320 652v12h4v-12z"/><path d="m448 664v-12h-4v12z"/><path d="m772-20h-36z"/><path d="m736-20h36l-16-16-20 .5556z"/><path d="m896 68v16z"/><path d="m896 68v-16z"/><path d="m736 68v16h160v-16z"/><path d="m544-382.9093v2.9093-16z"/><path d="m544-382.9093v-13.0907h-128v16h112z"/><path d="m544-465.0906v13.0906-16z"/><path d="m544-465.0906v-2.9094h-16z"/><path d="m-352 116v-44z"/><path d="m-352 72v-96 32z"/><path d="m1176-184v16 28z"/><path d="m596-720h44z"/><path d="m640-720 96 12z"/><path d="m-348 132-4-16z"/><path d="m-352 116 4 16z"/><path d="m736-708 64 16z"/><path d="m-348 132 8 16z"/><path d="m-340 148-8-16z"/><path d="m888-660-56-20.3636-32-11.6364z"/><path d="m1164-280-4-16-12-48z"/><path d="m960-624-72-36z"/><path d="m1116-432-36-72z"/><path d="m-332 156-8-8z"/><path d="m-340 148 8 8z"/><path d="m1024-568-64-56z"/><path d="m1080-504-20.1605-23.0406-35.8395-40.9594z"/><path d="m1124-88h-23z"/><path d="m32 360h32-64z"/><path d="m-316 164-16-8z"/><path d="m-332 156 16 8z"/><path d="m-32 168h-32z"/><path d="m-64 168h-32z"/><path d="m32 168h-32z"/><path d="m0 168h-32z"/><path d="m172 168h-44z"/><path d="m172 168h-44-96 32z"/><path d="m128-490v-14h28z"/><path d="m1101-88h-61-164 8z"/><path d="m788-88h-16z"/><path d="m736-3.2353v-16.0723-36.6924 160z"/><path d="m844-88h-28-28v84l56 56z"/><path d="m756-36-20-20v36.6924l36-.6924z"/><path d="m736-3.2353v107.2353h108v-52l-56-56z"/><path d="m788-4-16-16z"/><path d="m736-56 20 20-8-8z"/><path d="m788-88h-16v68l16 16z"/><path d="m736-19.3076 36-.6924z"/><path d="m624-56h112-32-32-80z"/><path d="m736 104h-64z"/><path d="m624-52v-4h-32v4z"/><path d="m224-280h-128z"/><path d="m544-280v-64z"/><path d="m544-364v8 12z"/><path d="m544-504v20 16 16 44 12 16 16 20 64-212z"/><path d="m544-668 4-16z"/><path d="m256-344h-24-40z"/><path d="m128-344h32 32z"/><path d="m544-408v-44h-88z"/><path d="m544-452v-13.0906l-16-2.9094h-96l24 16z"/><path d="m544-396v-12l-88-44h-40v56z"/><path d="m416-396v-56h-96v56z"/><path d="m416-396h-96v16h88z"/><path d="m416-452-8-16h-88v16z"/><path d="m416-452v-16h-8z"/><path d="m408-468h8v-16h-76-20v16z"/><path d="m160-504v160z"/><path d="m128-490v146z"/><path d="m160-344h-32v-146l28-14h4z"/><path d="m592-56h-28z"/><path d="m592-88h-48z"/><path d="m544-280v192z"/><path d="m544-88v-192z"/><path d="m256 83.9988v16.0012h224v-16.0012z"/><path d="m532-44-8 8z"/><path d="m516-20-4 16z"/><path d="m524-36-8 16z"/><path d="m564-56-16 4z"/><path d="m256 28h-32v56l32-.0012z"/><path d="m224-248v-32 192z"/><path d="m220 146 4-10z"/><path d="m212 156 8-10z"/><path d="m204 161 8-5z"/><path d="m172 168 16-2z"/><path d="m188 166 16-5z"/><path d="m224-248v160 64-84z"/><path d="m224 84v16z"/><path d="m224-24v20-8z"/><path d="m256 83.9988-32 .0012v16h32z"/><path d="m220 146-8 10z"/><path d="m212 156-8 5z"/><path d="m188 166-16 2z"/><path d="m204 161-16 5z"/><path d="m64-280h4z"/><path d="m96-280h-28-4z"/><path d="m188 200h68-160-64z"/><path d="m32 200v138z"/><path d="m0 322v-122h32v138z"/><path d="m-192-24v-32-32z"/><path d="m-208-24h-144z"/><path d="m-208-24v-32h16v32z"/><path d="m-352-24v-32h144v32z"/><path d="m-96 168h-204 172z"/><path d="m-300 168-16-4z"/><path d="m-316 164 16 4z"/><path d="m0 322v38z"/><path d="m32 360h-32v-38l32 16z"/><path d="m736-35.4444v.0001-8-12.5557z"/><path d="m736-20v-15.4444z"/><path d="m736-20v-16h20l16 16z"/><path d="m756-36h-20v-20z"/><path d="m736-56 12.2164 12.2163 7.7836 7.7837z"/><path d="m896 84v8 12z"/><path d="m736 104v-12-8z"/><path d="m736 52v16z"/><path d="m896 68h-160v-16h160z"/><path d="m896 104h-160v-20h160z"/><path d="m736 84v-16h160v16z"/><path d="m896 52h-160v16h160z"/><path d="m672 216h-4v32h4z"/><path d="m384-440h-32v32h32z"/><path d="m356-492h60v-8h-44-16z"/><path d="m320 648h4 8z"/><path d="m444 648h4-12z"/><path d="m384-440v32z"/><path d="m444 652v-4h-8v4z"/><path d="m324 652v12h8v-12z"/><path d="m0 360h64-96z"/><path d="m128-504h28z"/><path d="m96-474v-30h32v14z"/><path d="m128-504v14z"/><path d="m96-344h32 64z"/><path d="m128-344h-32v-130l32-16z"/><path d="m188 200h-156-32z"/><path d="m0 200v122z"/><path d="m-32 306v-106h32v122z"/><path d="m-192-88v32z"/><path d="m-192-56h-16z"/><path d="m-208-56h-144z"/><path d="m-208-56v-32h16v32z"/><path d="m-352-56v-32h144v32z"/><path d="m-32 306v54-1z"/><path d="m0 360h-32v-54l32 16z"/><path d="m352-408h-32 64z"/><path d="m340-484h76v-8h-60-16z"/><path d="m448 648h12z"/><path d="m512 360h160l-4-4h-156z"/><path d="m672 104h-4z"/><path d="m672 104h-4v64h4z"/><path d="m320-356h-224v6 2h224z"/><path d="m512 168v-64z"/><path d="m512 104v-108z"/><path d="m672 168v192z"/><path d="m512 200 4 4z"/><path d="m512 168v32l4 4v-36z"/><path d="m512 200h-32z"/><path d="m-32 360v-1z"/><path d="m436 652v-4h-8v4z"/><path d="m332 648h-8v4h8z"/><path d="m332 648v4h8v-4z"/><path d="m436 664v-12h-8v12z"/><path d="m436 664h8v-12h-8z"/><path d="m332 652v12h8v-12z"/><path d="m512 200v4h4z"/><path d="m-352-56v32 96 44z"/><path d="m-352-56v-32z"/><path d="m-352-108v20 32 172-44z"/><path d="m308 648-16-4z"/><path d="m608-720h32-44z"/><path d="m672-716 64 8-96-12z"/><path d="m-352 116 4 16z"/><path d="m800-692-64-16z"/><path d="m-348 132 8 16z"/><path d="m888-660-88-32z"/><path d="m-348-244-4 16z"/><path d="m1176-184-12-96z"/><path d="m-340-260-8 16z"/><path d="m1158.2401-303.0399 5.7599 23.0399-16-64z"/><path d="m1148-344-32-88z"/><path d="m580-716 16-4z"/><path d="m292 644-16-8z"/><path d="m132 548-16-8z"/><path d="m116 540 16 8z"/><path d="m224 552h32z"/><path d="m256 552h-32-76z"/><path d="m148 552-16-4z"/><path d="m960-624-72-36z"/><path d="m1116-432-36-72z"/><path d="m-340 148 8 8z"/><path d="m996.5712-592 27.4288 24-64-56z"/><path d="m1048-540.5707 11.84 13.5307 20.16 23.04-56-64z"/><path d="m672-716-32-4h-32v4z"/><path d="m608-720h-12l-16 4h12 16z"/><path d="m1158.2401-303.0399-10.2401-40.9601-32-88-36-72-20.16-23.04 19.7315 210.4685 1.2685 13.5314z"/><path d="m1093.5-168h82.5v-16l-12-96-5.7599-23.0399-77.4001-.0002z"/><path d="m1124-88 16-4 16-8 8-8 8-16 4-16v-28h-82.5l7.5 80z"/><path d="m1124-88 16-4z"/><path d="m-32 360h96 32-224z"/><path d="m-332 156 16 8z"/><path d="m128 168h44-204z"/><path d="m128 168h-160-64 32 32 32 32z"/><path d="m96-504v30 130z"/><path d="m564-708 16-8z"/><path d="m96-504h32z"/><path d="m592-52v-4z"/><path d="m816-88h-208-16 144 20 16 16z"/><path d="m1040-88h-208-16 28 16 16z"/><path d="m1101-88h-45-16z"/><path d="m920-504v-88h-120v38.4 47.1385l120 18.4615z"/><path d="m1024-568-27.4288-24h-76.5712v88h36 36 56v-36.5707z"/><path d="m800-592h120 76.5712l-36.5712-32-72-36-88-32z"/><path d="m992-280v-164l-4-8h-12v20 204h16z"/><path d="m976-228v4 36 20h16v-60z"/><path d="m976-452h12l-8-16h-16l8 16z"/><path d="m980-468-10-14-14-10v11.2 4.8l8 8z"/><path d="m988-452 4 8v-24h-12z"/><path d="m980-468h12v-36l-22 22z"/><path d="m992-504h-36v12l14 10z"/><path d="m1048-280v-36.5715-187.4285h-56v36 24 164z"/><path d="m1048-168v-112h-56v52 60z"/><path d="m1079.5715-316.5715-19.7315-210.4685-11.84-13.5307v36.5707 187.4285z"/><path d="m1048-280v112h8 37.5l-12.66-135.0401-1.2685-13.5314h-31.5715z"/><path d="m976-452h-4l4 20z"/><path d="m940-484 16 8v-4.8z"/><path d="m976-188h-7.2-4.8l-8 8v4.8 7.2h20z"/><path d="m976-224-4 20-3.2 16h7.2z"/><path d="m972-204-8 16h4.8z"/><path d="m940-172 16-3.2v-4.8z"/><path d="m956-168v-7.2l-16 3.2-20 4z"/><path d="m920-504v16l20 4 16 3.2v-11.2-12z"/><path d="m832-168h-120-36-5.6-14.4-48v80h208 16z"/><path d="m1056-168h-8-56-16-20-36-88v80h208 16z"/><path d="m1093.5-168h-37.5v80h45z"/><path d="m800-592v-100l-64-16-64-8h-64v180h32 16 20 16 20l88-17.6z"/><path d="m800-553.6-88 17.6v16l88 13.5385z"/><path d="m608-492v-44-180h-16v224z"/><path d="m608-268v-76-148h-16v212 12z"/><path d="m592-88h16v-80-100h-16z"/><path d="m660-484-4 8v12z"/><path d="m656-505.6 6-8.4-6-6z"/><path d="m662-514 14-10v-12h-20v16z"/><path d="m692-536v4l20-4z"/><path d="m692-516 20-4v-16l-20 4z"/><path d="m676-524v16l16-8v-16-4h-16z"/><path d="m668-500 8-8v-16l-14 10-6 8.4v5.6z"/><path d="m656-476 4-8 8-16h-12z"/><path d="m656-448v-16-12-24-5.6l-4 5.6-8 16-4 20v120h16z"/><path d="m640-476 4-8 8-16h-12z"/><path d="m640-536v36h12l4-5.6v-14.4-16z"/><path d="m640-344v-120-12-24-36h-32v44 148z"/><path d="m644-484-4 8v12z"/><path d="m668-188-8-16-4-8v24z"/><path d="m676-175.2v-4.8l-8-8h-12v5.6l6 8.4 8.4 6h5.6z"/><path d="m676-180v4.8l16 3.2z"/><path d="m670.4-168-8.4-6-6 6z"/><path d="m656-168 6-6-6-8.4z"/><path d="m712-168-20-4-16-3.2v7.2z"/><path d="m656-224v12l4 8z"/><path d="m656-168v-14.4-5.6-24-12-120h-16-32v76 100z"/><path d="m832-168h88-208z"/><path d="m976-228v-204 208z"/><path d="m656-448v104 120z"/><path d="m976-224-4 20z"/><path d="m656-464 4-20z"/><path d="m972-204-8 16z"/><path d="m660-484 8-16z"/><path d="m940-172-20 4z"/><path d="m668-500 8-8z"/><path d="m956-180-16 8z"/><path d="m676-508 16-8z"/><path d="m964-188-8 8z"/><path d="m692-516 20-4z"/><path d="m660-204-4-20z"/><path d="m920-488 20 4z"/><path d="m668-188-8-16z"/><path d="m940-484 16 8z"/><path d="m676-180-8-8z"/><path d="m956-476 8 8z"/><path d="m692-172-16-8z"/><path d="m964-468 8 16z"/><path d="m712-168-20-4z"/><path d="m972-452 4 20z"/><path d="m736-56h-112z"/><path d="m736-56h-4v160h4z"/><path d="m624-52h-32z"/><path d="m624-56v4z"/><path d="m624-56v4h-32v-4z"/><path d="m224-280h-128z"/><path d="m544-668v164z"/><path d="m580-716-16 8-8 8-8 16-4 16v164 12h48v-224z"/><path d="m544-492v212h48v-212z"/><path d="m556-700 8-8z"/><path d="m548-684 8-16z"/><path d="m192-344h40-136z"/><path d="m592-56h-28z"/><path d="m544-280v192h48v-180-12z"/><path d="m592-88h-48z"/><path d="m532-44-8 8z"/><path d="m516-20-4 16z"/><path d="m524-36-8 16z"/><path d="m564-56-16 4z"/><path d="m548-52-16 8z"/><path d="m548-52-16 8z"/><path d="m224-280v112 80z"/><path d="m224-88v224-20-16-16-56-16-16-20z"/><path d="m220 146 4-10z"/><path d="m212 156 8-10z"/><path d="m204 161 8-5z"/><path d="m188 166 16-5z"/><path d="m32-504h64v160h-32-16-16z"/><path d="m32-280v-64h16v128h-16z"/><path d="m48-344h16v64 64h-16z"/><path d="m48-216h16l-16 48-16 1.7778v-5.3334z"/><path d="m48-216-16 44.4444v-44.4444z"/><path d="m48-168-16 16v-14.2222z"/><path d="m64-344v1.3333 62.6667z"/><path d="m64-216-8 24-8 24z"/><path d="m48-168-16 16z"/><path d="m32-504h-128z"/><path d="m-32-120h-64z"/><path d="m32-166.2222-2 .2222 2-5.5556z"/><path d="m32-171.5556-2 5.5556-12 12-50 18h-64v-80h128z"/><path d="m32-152-16 16 2-18 12-12 2-.2222z"/><path d="m-96-504h128v160 64h-128z"/><path d="m32-280v64h-128v-64z"/><path d="m-32-136v16h-64v-16z"/><path d="m-32-120v-16l50-18-2 18z"/><path d="m480 200h-84-16-16-44-16-48z"/><path d="m480 200h-224z"/><path d="m-32 168v32h-64v-32z"/><path d="m-96 200h64v106l-64-32z"/><path d="m238 200h-50-174 217z"/><path d="m-32 200v106z"/><path d="m238 200h18-68z"/><path d="m14 200h174-188-32z"/><path d="m-192 226v-26h96v74z"/><path d="m-96 200h-96v-32h96z"/><path d="m-288-216 80 80v48h-144v-20-108z"/><path d="m-208-136 16 16v32h-16z"/><path d="m-96-120h-96l-16-16h112z"/><path d="m-128-216h-160-64v-12l4-16 8-16 8-8 16-8 16-4h172z"/><path d="m-96-280v64h-32v-64z"/><path d="m-96-136h-112l-80-80h160 32z"/><path d="m-316 164 16 4z"/><path d="m-300-280-16 4z"/><path d="m-316-276-16 8z"/><path d="m-192-88h-16z"/><path d="m-208-88h-144z"/><path d="m-96 168h-96-108z"/><path d="m-192 296v-70l96 48 64 32v53h-97z"/><path d="m-32 359v1h-96l-1-1z"/><path d="m512 392v-32z"/><path d="m96 392v-32z"/><path d="m-192 360v-64l63 63 1 1z"/><path d="m-192 360v-64z"/><path d="m96 500v-108 80z"/><path d="m100 516-4-16z"/><path d="m116 540-8-8z"/><path d="m100 516 8 16z"/><path d="m108 532-8-16z"/><path d="m256 596v-44z"/><path d="m260 612-4-16z"/><path d="m276 636-8-8z"/><path d="m268 628-8-16z"/><path d="m64 164v4h32v-4z"/><path d="m672 248h-4v-32h4z"/><path d="m668 216h4z"/><path d="m672 248h-4z"/><path d="m672 216v32z"/><path d="m668 248v-32z"/><path d="m384 200v4h32v-4z"/><path d="m100 440h-4v32h4z"/><path d="m428 648h-16z"/><path d="m320-484h-204l-20 10v6h224z"/><path d="m320-364h-224v8h224z"/><path d="m428 652h8 8 4-128 4 8 8 16 16 24 16z"/><path d="m428 652v-4h-16v4z"/><path d="m428 664v-12h-16v12z"/><path d="m340 664h16v-12h-16z"/><path d="m320-408h32v-32h-32z"/><path d="m412 648h-16z"/><path d="m668 104h4-12z"/><path d="m668 104h-8v64h8z"/><path d="m320-408v-32h64v32z"/><path d="m320-468h-224v16h224z"/><path d="m320-380h-224v16h224z"/><path d="m320-408v-32z"/><path d="m320-440h32 32z"/><path d="m512 104v-108z"/><path d="m512 104h4z"/><path d="m516 104h-4v64h4z"/><path d="m668 168v188l4 4v-192z"/><path d="m516 168v36l8 8v-44z"/><path d="m512 356v-8 4z"/><path d="m512 356v-4 8z"/><path d="m512 360v-4z"/><path d="m356 648v4h16v-4z"/><path d="m356 652v-4h-16v4z"/><path d="m356 652v12h16v-12z"/><path d="m512 200v4z"/><path d="m512 204v-4 12z"/><path d="m512 200 4 4z"/><path d="m732-56h-8v160h8z"/><path d="m372 648h-16z"/><path d="m340 648h16z"/><path d="m320 648h12 8z"/><path d="m428 648h8 12z"/><path d="m320 648h20 16 16 24 16 16 20 12-128-24z"/><path d="m308 648-16-4z"/><path d="m920-168h-208z"/><path d="m976-224v-208z"/><path d="m656-464v16z"/><path d="m972-204 4-20z"/><path d="m660-484-4 20z"/><path d="m964-188 8-16z"/><path d="m668-500-8 16z"/><path d="m920-168 20-4z"/><path d="m676-508-8 8z"/><path d="m940-172 16-8z"/><path d="m692-516-16 8z"/><path d="m956-180 8-8z"/><path d="m712-520-20 4z"/><path d="m920-488-120-18.4615-88-13.5385z"/><path d="m656-224 4 20z"/><path d="m940-484-20-4z"/><path d="m660-204 8 16z"/><path d="m956-476-16-8z"/><path d="m668-188 8 8z"/><path d="m964-468-8-8z"/><path d="m676-180 16 8z"/><path d="m972-452-8-16z"/><path d="m692-172 20 4z"/><path d="m976-432-4-20z"/><path d="m320-452h-224v56h224z"/><path d="m320-396h-224v16h224z"/><path d="m372 664h24v-12h-24z"/><path d="m396 648h-24v4h24z"/><path d="m396 648v4h16v-4z"/><path d="m396 652v12h16v-12z"/><path d="m320 664v-12z"/><path d="m448 652v12z"/><path d="m448 664h-128v-12h128z"/><path d="m448 664h-128z"/><path d="m320 652h128z"/><path d="m512 348v8h156l-8-8z"/><path d="m724 104h-8-16-16-12 64-4z"/><path d="m724-56h-8v160h8z"/><path d="m660 104h-8v64h8z"/><path d="m512 104h4 8z"/><path d="m524 104h-8v64h8z"/><path d="m512 200 12 12-8-8z"/><path d="m512 200 20 20-8-8z"/><path d="m660 168v180l8 8v-188z"/><path d="m524 168v44l8 8v-52z"/><path d="m512 348v-8z"/><path d="m512 352v-4-8 7z"/><path d="m512 200 4 4 8 8z"/><path d="m524 212-8-8h-4v8z"/><path d="m524 212h-12v8h20z"/><path d="m-348 8h-4v32h4z"/><path d="m64 168v-4z"/><path d="m96 164v4z"/><path d="m64 168v-4h32v4z"/><path d="m96 168h-32z"/><path d="m64 164h32z"/><path d="m-48 356v4h32v-4z"/><path d="m-192-280v4h32v-4z"/><path d="m-92-408h-4v32h4z"/><path d="m224-56h-4v32h4z"/><path d="m384 204v-4h32v4z"/><path d="m384 204v-4z"/><path d="m416 200v4z"/><path d="m384 200h32z"/><path d="m416 204h-32z"/><path d="m96 440h4z"/><path d="m100 472h-4v-32h4z"/><path d="m100 472h-4z"/><path d="m100 440v32z"/><path d="m96 472v-32z"/><path d="m-332-268 16-8z"/><path d="m512 340v8h148l-8-8z"/><path d="m716-56h8 8 4-112-32 92 16z"/><path d="m716-56h-16v160h16z"/><path d="m652 104h-16v64h16z"/><path d="m532 104h16z"/><path d="m532 104h-8v64h8z"/><path d="m532 168v52l16 16v-68z"/><path d="m652 168v172l8 8v-180z"/><path d="m532 220 16 16z"/><path d="m512 220v16h36l-16-16z"/><path d="m156-504h36-32z"/><path d="m-316 164-16-8z"/><path d="m-316-276 16-4z"/><path d="m700-56h-16v160h16z"/><path d="m636 104h-16z"/><path d="m636 104h16z"/><path d="m636 104h-16v64h16z"/><path d="m548 104h-16v64h16z"/><path d="m512 324v4 12z"/><path d="m548 236 16 16z"/><path d="m548 236-16-16z"/><path d="m548 168v68l16 16v-84z"/><path d="m636 168v156l16 16v-172z"/><path d="m512 324v16h140l-16-16z"/><path d="m512 236v16z"/><path d="m512 236v-16z"/><path d="m548 236h-36v16h52z"/><path d="m620 104h-28v64h28z"/><path d="m684-56h-92v160h28 16 16 20 12z"/><path d="m920-168h-25.6-182.4z"/><path d="m656-448v224-16z"/><path d="m656-448v-16 16 224z"/><path d="m920-488-208-32z"/><path d="m652 104h8 12z"/><path d="m592-56h-28l-16 4-16 8-8 8-8 16-4 16v108h20 16 16 28z"/><path d="m592 104h-28v64h28z"/><path d="m564 104h-16z"/><path d="m512 104h12 8z"/><path d="m524-36-8 16z"/><path d="m564 104h-16v64h16z"/><path d="m512 324v-16-108 96 32z"/><path d="m512 308v16z"/><path d="m620 308-56-56-16-16-16-16-20-20v108z"/><path d="m592 168h-28v84l56 56v-140z"/><path d="m620 168v140l16 16v-156z"/><path d="m512 308v16h124l-16-16z"/><path d="m512 328v10 2z"/><path d="m512 338v2z"/><path d="m512 360v-8-5z"/><path d="m512 392v160z"/><path d="m512 220v-8-12z"/><path d="m512 236v-16h20l16 16z"/><path d="m532 220h-20v-20z"/><path d="m564 252h-52v-16h36z"/><path d="m564 252-16-16z"/><path d="m512 200 12 12 8 8z"/><path d="m-300-280h144z"/><path d="m-300 168-16-4z"/><path d="m128-504h-32v4h52l8-4z"/><path d="m-300 168h108z"/><path d="m148-500h208 16v-4h-12-168-36z"/><path d="m1055.1111-584 .8889 1v7l-16-8z"/><path d="m1056-576v8h-8l-8-16z"/><path d="m1048-568h8l1.8462 19.6924z"/><path d="m1040-568h8l9.8462 19.6924 1.0134 10.8098-17.3795-15.2071z"/><path d="m1040-568 1.4801 15.2951-17.4801-15.2951z"/><path d="m1048-568h-8-16l-18.2858-16h34.2858z"/><path d="m1041.4801-552.7049.5094 5.2643-17.9895-20.5594z"/><path d="m1058.8596-537.4978.9805 10.4577-17.8506-20.4005-.5094-5.2643z"/><path d="m848-568h-48-176v-16h224z"/><path d="m1024-568h-176v-16h157.7142z"/><path d="m676-164 16 8-16-3.2z"/><path d="m640-168h16 14.4l5.6 4v4.8 7.2h-52v-16z"/><path d="m676-152v-7.2l16 3.2 20 4z"/><path d="m644-204-4-8v-12z"/><path d="m640-212 4 8 8 16h-12z"/><path d="m676-168v-4-8l16 8 8 4z"/><path d="m660-204-4-8v-12z"/><path d="m660-204 8 16 8 16v4h-5.6l-8.4-6-6-8.4v-29.6z"/><path d="m676-180v8l-8-16z"/><path d="m692-172 20 4h-12z"/><path d="m662-174 8.4 6h-14.4z"/><path d="m656-182.4 6 8.4-6 6h-16v-20h12z"/><path d="m692-532-16 8v-4.8z"/><path d="m640-464v-12l4-8z"/><path d="m692-532 20-4v10l-20 10-16 8v-8-8z"/><path d="m656-464h-6l10-20z"/><path d="m624-360v-176h16v36 24 12 152h-16z"/><path d="m640-312v72 16 12 24 20h-16v-144z"/><path d="m640-312v-152h10 6v16 208h-16z"/><path d="m656-240v16 12 29.6l-4-5.6-8-16-4-20v-16z"/><path d="m652-500 10-14 14-10v8l-8 16-8 16-10 20h-10l4-20z"/><path d="m676-516v8l-8 8z"/><path d="m692-516 20-10v6z"/><path d="m676-528.8v4.8l-14 10-22-22h36z"/><path d="m652-500h-12v-36l22 22z"/><path d="m644-484-4 8v-24h12z"/><path d="m692-532-16 3.2v-7.2h36z"/><path d="m800-522.4615-88-13.5385h88z"/><path d="m800-536h-88-36-36-16v-32h176z"/><path d="m894.4-152h-46.4-136l-20-4-16-8-5.6-4h5.6 24 12 182.4z"/><path d="m920-168h36 5.6l-5.6 4-16 8-20 4h-25.6v-16z"/><path d="m956-152h-16v-4l16-8z"/><path d="m848-105.1034-224-30.8966v-16h52 36 136z"/><path d="m894.4-152h25.6 20 16 76l14.8652 74.3262-198.8652-27.4296v-46.8966z"/><path d="m848-90.1333-224-29.8667v-16l224 30.8966z"/><path d="m1072-60.2667-224-29.8666v-14.9701l198.8652 27.4296 25.1348 3.4669z"/><path d="m1088-72 16 16-32-4.2667v-13.9402z"/><path d="m976-168h16 36.8l3.2 16h-76v-12l5.6-4z"/><path d="m940-156v4h-20z"/><path d="m940-172 16-3.2v7.2h-36z"/><path d="m968.8-188h-4.8l8-16z"/><path d="m976-432-4-20h4z"/><path d="m956-504v7.2l-16-3.2-20-4z"/><path d="m920-488v-6l20 10z"/><path d="m956-476v-8l8 16z"/><path d="m956-484v-8l14 10 6 8.4v21.6h-4z"/><path d="m970-174 6 6h-14.4z"/><path d="m800-522.4615 120 18.4615v10 6l-208-32v-6-10z"/><path d="m940-484-20-10v-10l20 4 16 8v8 8z"/><path d="m956-492-16-8 16 3.2z"/><path d="m976-188h-7.2l3.2-16 4-20z"/><path d="m940-172 16-8v4.8z"/><path d="m968.8-188h7.2 4l-10 14-8.4 6h-5.6v-7.2-4.8l8-8z"/><path d="m1059.8401-527.0401 19.0874 203.5997-15.2606-.0002-17.4733-180.5594-4.2041-43.4406z"/><path d="m1078.9275-323.4404 20.9999 223.9988-14.583.001-17.4734-180.5594-4.2041-43.4406z"/><path d="m1099.9274-99.4416 4.0726 43.4416-16-16-2.6556-27.4406z"/><path d="m992-444-4-8-8-16h12z"/><path d="m992-504v36h-12l-4-5.6-6-8.4z"/><path d="m992-504-22 22-14-10v-4.8-7.2z"/><path d="m980-188h4.8 7.2v20h-16l-6-6z"/><path d="m984.8-188h-4.8l8-16z"/><path d="m992-188h-7.2l3.2-16 4-20z"/><path d="m992-352v-80-12-24-36h32 22.1936l17.4733 180.5594 4.2041 43.4406h-61.471z"/><path d="m1067.871-280 17.4734 180.5594 2.6556 27.4406-16-2.2069-25.1348-3.4669-18.0652-90.3262-22.4-112z"/><path d="m992-188v-36-25.6-102.4l14.4 72 22.4 112h-36.8z"/><path d="m988-452 4 8v12z"/><path d="m976-249.6v-182.4-20-21.6l4 5.6 8 16 4 20v80 102.4z"/><path d="m992-224-4 20-8 16h-4v-36-25.6h16z"/><path d="m1024-504h-32-36-36l-120-18.4615v-13.5385-32h48 176z"/><path d="m1041.9895-547.4406 4.2041 43.4406h-22.1936v-64z"/><path d="m976-249.6v25.6-208z"/><path d="m656-464v16z"/><path d="m972-204 4-20z"/><path d="m660-484-4 20z"/><path d="m964-188 8-16z"/><path d="m668-500-8 16z"/><path d="m920-168 20-4z"/><path d="m676-508-8 8z"/><path d="m940-172 16-8z"/><path d="m692-516-16 8z"/><path d="m956-180 8-8z"/><path d="m712-520-20 4z"/><path d="m920-488-208-32z"/><path d="m656-224 4 20z"/><path d="m940-484-20-4z"/><path d="m660-204 8 16z"/><path d="m956-476-16-8z"/><path d="m668-188 8 8z"/><path d="m964-468-8-8z"/><path d="m676-180 16 8z"/><path d="m972-452-8-16z"/><path d="m692-172 20 4z"/><path d="m976-432-4-20z"/><path d="m608-584h16v16 32 176h-16z"/><path d="m624-360v48 144 16 16 16h-16v-240z"/><path d="m-348 40h-4z"/><path d="m-352 8h4z"/><path d="m-348 40h-4v-32h4z"/><path d="m-352 40v-32z"/><path d="m-348 8v32z"/><path d="m1056-152h-32v32h32z"/><path d="m-16 356v4z"/><path d="m-48 360v-4z"/><path d="m-48 360v-4h32v4z"/><path d="m-16 360h-32z"/><path d="m-48 356h32z"/><path d="m-192-276v-4z"/><path d="m-160-280v4z"/><path d="m-192-276v-4h32v4z"/><path d="m-192-280h32z"/><path d="m-160-276h-32z"/><path d="m-96-408h4z"/><path d="m-92-376h-4z"/><path d="m-92-376h-4v-32h4z"/><path d="m-96-376v-32z"/><path d="m-92-408v32z"/><path d="m220-56h4z"/><path d="m224-24h-4z"/><path d="m224-24h-4v-32h4z"/><path d="m224-56v32z"/><path d="m220-24v-32z"/><path d="m368 644v4h32v-4z"/><path d="m-96-484v-20 224z"/><path d="m96-504h-64z"/><path d="m96-344h-32z"/><path d="m64-344h32v-4h-32z"/><path d="m64-344-4-4 4 5.3333z"/><path d="m64-344v-4h-4z"/><path d="m32-504h-128l4 4h124z"/><path d="m-96-280h4z"/><path d="m192-440h-32v32h32z"/><path d="m224 552h-76z"/><path d="m256 392h-32z"/><path d="m224 360h32z"/><path d="m224 360h32v-4h-36z"/><path d="m96 360 4-4h-16-216l4 4z"/><path d="m-32 168h-4z"/><path d="m192-440v32z"/><path d="m-32 200v-32z"/><path d="m14 200h-46z"/><path d="m256 200h-18z"/><path d="m231 200h-217l-7 4h173 51z"/><path d="m14 200-7 4z"/><path d="m-32 200v-32h-4v36z"/><path d="m-192 226v-58 32z"/><path d="m-192 296v-70z"/><path d="m-192 226v70l.8.8 3.2-12.8v-56z"/><path d="m256 360v-4z"/><path d="m96 360h2l2-4z"/><path d="m224 360-4-4 2 4z"/><path d="m512 360v32z"/><path d="m96 360v32z"/><path d="m224 392v-32z"/><path d="m224 392v-32h-2-2v28l.5 4z"/><path d="m-128 360h-64z"/><path d="m256 552v-4z"/><path d="m224 392h-3.5-.5v4z"/><path d="m224 552h32v-4h-32z"/><path d="m-191.2 296.8 3.2 3.2v-16z"/><path d="m-191.2 296.8-.8-.8v64l4-4v-56z"/><path d="m-332-268-8 8z"/><path d="m-332-268 16-8z"/><path d="m512 200v48 48z"/><path d="m512 296v26 16-10z"/><path d="m512 322v17 8-7-2z"/><path d="m512 339v20 1-13z"/><path d="m512 359v1z"/><path d="m512 552v44z"/><path d="m512 596-4 16z"/><path d="m-316-276 16-4z"/><path d="m-316 164-16-8z"/><path d="m-92-500-4-4v20 204h4z"/><path d="m96-500v8h36l16-8z"/><path d="m96-348v4h136 24 64v-4z"/><path d="m64-280h-4z"/><path d="m60-280h-8 12z"/><path d="m96-500v-4h-64v4z"/><path d="m60-348h4v-4l-12-4z"/><path d="m60-348v68h4v-62.6667z"/><path d="m60-348-8-8v76h8z"/><path d="m32-500h-124l4 4.6667 4 3.3333h116z"/><path d="m256 360v-4z"/><path d="m98 360h2v-4z"/><path d="m512 360v32z"/><path d="m98 360h-2v32h3.5l.5-4v-28z"/><path d="m-300 168-16-4z"/><path d="m-300 168h108z"/><path d="m160-408h-32 64z"/><path d="m99.5 392h-3.5 4z"/><path d="m256 392v-32z"/><path d="m99.5 392h.5v-4z"/><path d="m132-492h208 16v-8h-208z"/><path d="m512 392v160z"/><path d="m220 388v4h.5z"/><path d="m100 356 8-8h-24v8z"/><path d="m256 356v-8h-44l8 8z"/><path d="m-36 168h4-12z"/><path d="m256 200v4z"/><path d="m14 200h-46l-4 4h43z"/><path d="m180 204h-173-43l-8 8h8 208 8z"/><path d="m-36 168h-8v44l8-8z"/><path d="m256 204v-4h-18-7v4z"/><path d="m-32 200-4 4z"/><path d="m-192 168h4z"/><path d="m-188 168h8-8-4z"/><path d="m-188 168h-4v58l4 2z"/><path d="m-188 228v56l8-16v-36z"/><path d="m-188 284v16l8 8v-40z"/><path d="m512 356v4-1z"/><path d="m512 356v-8 12z"/><path d="m220 356-8-8 6 12h2z"/><path d="m220 356v4h2z"/><path d="m-132 356h-56l-4 4h64z"/><path d="m-188 300v56l8-8v-40z"/><path d="m256 396v8-12z"/><path d="m256 392v4z"/><path d="m256 396v-4h-32l-4 4z"/><path d="m224 552v-4z"/><path d="m224 548v-8 12z"/><path d="m220 396-8 8h4z"/><path d="m-89.3333-280h-2.6667-4 2 5.5z"/><path d="m64-352v4h32v-2l-32-5.3333z"/><path d="m64-352v-3.3333l-4-.6667h-8z"/><path d="m-96-280h2z"/><path d="m218 360h-5l7 28v-28z"/><path d="m102 360h-2v28l7-28z"/><path d="m1024-152h32z"/><path d="m1056-120h-32v-32h32z"/><path d="m1056-120h-32z"/><path d="m1024-120v-32z"/><path d="m1056-152v32z"/><path d="m400 644v4z"/><path d="m368 648v-4h32v4z"/><path d="m368 648v-4z"/><path d="m400 648h-32z"/><path d="m368 644h32z"/><path d="m-88-495.3333-4-4.6667v220h4z"/><path d="m-88-280h-4 2.6667z"/><path d="m-88-280h-1.3333.8333z"/><path d="m-88.5-280h-5.5 7.3333z"/><path d="m128-408h32v-32h-32z"/><path d="m256 360v-4z"/><path d="m512 360v-20-11.4284-4.5716 68z"/><path d="m213 360-1-4v32l.5 4h5.5 2v-4z"/><path d="m107 360-7 28v4h7.5l.5-4v-32z"/><path d="m116-484h-20v10z"/><path d="m116-484h204 20v-8h-208z"/><path d="m64-355.3333 32 5.3333v-6h-36z"/><path d="m107.5 392h-7.5-4 12z"/><path d="m256 392v-32z"/><path d="m107.5 392h.5v-4z"/><path d="m212.5 392h-.5v12l6-12z"/><path d="m-188 168h-4z"/><path d="m108 388v4h8v-36z"/><path d="m212 388v4h.5z"/><path d="m108 356v32l8-32v-16z"/><path d="m256 348v-8h-52l8 8z"/><path d="m84 348h24l8-8h-40v8z"/><path d="m84 348h-8-216l8 8h216z"/><path d="m-84-492-4-3.3333v215.3333h4z"/><path d="m96-492v8h20l16-8z"/><path d="m128-408v-32h64v32z"/><path d="m128-440h32 32z"/><path d="m128-408v-32z"/><path d="m96-492v-8h-64v8z"/><path d="m96-356v-8h-52l16 8z"/><path d="m52-356-8-8v84h8z"/><path d="m32-492h-116l8 8h108z"/><path d="m256 200v4 8z"/><path d="m256 212v-8h-25-51v8z"/><path d="m-44 168h-8v48l8-4z"/><path d="m172 212h-208l-16 8h212 12z"/><path d="m-36 212h-8l-8 8z"/><path d="m-84-280h-4-.5 1.8333z"/><path d="m-84-280h-2.6667-7.3333-2z"/><path d="m-96-280h-32z"/><path d="m-188 168h8 8z"/><path d="m-180 168h-8v60l8 4z"/><path d="m-180 232v36l8-8v-24z"/><path d="m-180 268v40l8-4v-44z"/><path d="m-180 308 8 8v-12z"/><path d="m256 348v8 4z"/><path d="m108 348-8 8v4h2z"/><path d="m256 348v12-4z"/><path d="m512 348v-8 20z"/><path d="m108 348v8l8-16z"/><path d="m212 348-8-8 8 16z"/><path d="m108 348-6 12h5l1-4z"/><path d="m212 348v8l1 4h5z"/><path d="m-140 348h-40l-8 8h56z"/><path d="m-180 308v40l8-8v-24z"/><path d="m256 552v-12 8z"/><path d="m256 404v-8h-36l-4 8z"/><path d="m224 540h32v-8h-32z"/><path d="m224 540v8h32v-8z"/><path d="m212 404 8-8v-4h-2z"/><path d="m-192 168h4 16z"/><path d="m224 552v-12-8z"/><path d="m204 356v36h1 7v-4z"/><path d="m256 340v-16h-68l16 16z"/><path d="m76 340h40l16-16h-64-4v16z"/><path d="m204 340-16-16 16 32z"/><path d="m204 340v16l8 32v-32z"/><path d="m76 340h-12-212l8 8h216z"/><path d="m-76-484-8-8v212h8z"/><path d="m96-484v-8h-64v8z"/><path d="m44-280v-84l-12-12v96z"/><path d="m96-364v-16h-64v4l12 12z"/><path d="m44-364 8 8h8z"/><path d="m256 220v16z"/><path d="m-52 168h-12v51l12-3z"/><path d="m256 220v-8h-76-8v8z"/><path d="m160 220h-212l-12 12 4 4h220z"/><path d="m-52 216v4l8-8z"/><path d="m-76-280h12z"/><path d="m-172 168h-8v64l8 4z"/><path d="m256 340v8 8z"/><path d="m-172 316v24l12-12z"/><path d="m-148 340h-24l-8 8h40z"/><path d="m256 412v16z"/><path d="m204 392v4l1-4z"/><path d="m256 412v-8h-40-4l-8 8z"/><path d="m204 412v-16l-10.6665 21.333z"/><path d="m204 396v16l8-8v-12h-7z"/><path d="m224 532v-16z"/><path d="m-172 168h16z"/><path d="m256 340v16 4z"/><path d="m512 328.5716v11.4284 8 8 3-20z"/><path d="m-64 232-4 4h8z"/><path d="m-64 219v-51h-4v68l4-4z"/><path d="m-64 168h12-8z"/><path d="m32-280h-4z"/><path d="m32-376-4-4v100h4z"/><path d="m-64 219v13l12-12v-4z"/><path d="m-160 328-12 12h24z"/><path d="m132 392h16z"/><path d="m-156-280h-144 172z"/><path d="m-156 168h-16v68 24 44 12l12 12 4-4z"/><path d="m96-468v-6-10h-64-108l16 16z"/><path d="m132 324 16-16h-16-48-16v16z"/><path d="m256 324v-16h-84l16 16z"/><path d="m256 324v-16z"/><path d="m512 324v-16 84z"/><path d="m188 324v68h16v-36z"/><path d="m188 324-16-16v84h16z"/><path d="m132 324-16 32v36h16z"/><path d="m64 324h-220l-4 4 12 12h212z"/><path d="m256 324v16z"/><path d="m132 324-16 16v16z"/><path d="m-60-468-16-16v204h16z"/><path d="m-68 168h4 4 8-12z"/><path d="m-60-280h8z"/><path d="m-60 236h-8l3.2 12.8h11.2z"/><path d="m-60-280h8 8z"/><path d="m-60 236 6.4 12.8h6.4001z"/><path d="m96-380v-16h-64v16z"/><path d="m32-380h-4l4 4z"/><path d="m28-380-16-8v108h16z"/><path d="m28-380-16-16v8z"/><path d="m164 236h-4-220l12.8001 12.8h187.1999 24z"/><path d="m164 236h92v-16h-84-12v16z"/><path d="m-68 168h-16z"/><path d="m-68 168h-16v80l3.2.8 12.8-12.8z"/><path d="m-68 236-12.8 12.8h16z"/><path d="m256 516v-16z"/><path d="m256 516v16z"/><path d="m188 392v36l5.3335-10.667 10.6665-21.333v-4z"/><path d="m224 516v16z"/><path d="m256 428v-16h-52l-16 16z"/><path d="m188 428 16-16-10.6665 5.333z"/><path d="m224 516v16h32v-16z"/><path d="m-52 168h-8z"/><path d="m-52 168h8 12-12z"/><path d="m256 248.8v-12.8h-92v12.8z"/><path d="m140 248.8h-187.1999-6.4001-11.2-16l-3.2 3.2h178 38 8z"/><path d="m476 644-16 4z"/><path d="m292 644-16-8z"/><path d="m492 636-12 6-4 2z"/><path d="m132 548 16 4z"/><path d="m132 392h-16z"/><path d="m116 392h-8-12z"/><path d="m32-452h64v-16h-156l16 16z"/><path d="m-140 298v-50-80h-16v156l16-16z"/><path d="m-156 168h-16z"/><path d="m-140 168h-16z"/><path d="m68 308h-208l-16 16h220 4z"/><path d="m256 340v20z"/><path d="m256 324v16z"/><path d="m480 308h-224v16 16 20 32h224z"/><path d="m512 392v-84h-32v84z"/><path d="m148 392h24v-84h-24z"/><path d="m148 308-16 16v68h16z"/><path d="m-60-280h-16 12z"/><path d="m-44-452-16-16v188h16z"/><path d="m-52 168h8z"/><path d="m-32 168h204-76-12-128z"/><path d="m172 168 16-2z"/><path d="m96-396v-56h-64v56z"/><path d="m12-280h16z"/><path d="m12-388v-8l-56-56v172h56z"/><path d="m32-452h-76l56 56h20z"/><path d="m32-396h-20l16 16h4z"/><path d="m256 248v-12 12.8z"/><path d="m256 200v12 8z"/><path d="m480 200h-224v20 16 12h224z"/><path d="m512 248v-48h-32v48z"/><path d="m512 200h-32z"/><path d="m-68 168h4z"/><path d="m-76-280h-8-12z"/><path d="m-84 168h-12v80h12z"/><path d="m-128-280h-172 144z"/><path d="m-128-280h32z"/><path d="m-96 168h-44v80h44z"/><path d="m256 252v-4 .8z"/><path d="m512 248v50 24-26z"/><path d="m480 248h-224v4 46h224z"/><path d="m512 298v-50h-32v50z"/><path d="m-96 248h-44v50h10l46-46v-4z"/><path d="m94 252h-178l-46 46h214 10z"/><path d="m132 298v-30-16h-38v46z"/><path d="m158 298 2-2-28-28v30z"/><path d="m162 298-2-2-2 2z"/><path d="m256 298v-46h-116-8v16l28 28 2 2z"/><path d="m256 252v-3.2h-92-24v3.2z"/><path d="m-84 248v4l3.2-3.2z"/><path d="m512 298v10 16 4.5716 10.4284-17z"/><path d="m480 298h-224v10h224z"/><path d="m512 308v-10h-32v10z"/><path d="m256 308v-10h-94l10 10z"/><path d="m172 308-10-10h-4l-10 10z"/><path d="m132 308h16l10-10h-26z"/><path d="m84 298h-214l-10 10h208 16z"/><path d="m132 308v-10h-38-10v10z"/><path d="m-140 298v10l10-10z"/><path d="m256 552v-20 8z"/><path d="m256 444v-16z"/><path d="m256 392v12 8z"/><path d="m480 392h-224v20 16 16 56 16 16 20h224z"/><path d="m512 552v-160h-32v160z"/><path d="m224 444v56h32v-56z"/><path d="m116 392h-20v108l4 16 8 16h24v-48-92z"/><path d="m224 516v-16-56h-52l-40 40v48h92z"/><path d="m132 532h-24l8 8 16 8 16 4h76v-20z"/><path d="m172 392h-24-16v92l40-40z"/><path d="m96 500v-108z"/><path d="m96 500 4 16z"/><path d="m108 532 8 8z"/><path d="m224 444h32v-16h-68l-16 16z"/><path d="m172 392v52l16-16v-36z"/><path d="m256 500h-32v16h32z"/><path d="m224 500v16z"/><path d="m224 552v-20z"/><path d="m512 552v44z"/><path d="m256 596v-44z"/><path d="m460 648 16-4 4-2v-90h-224v44l4 16 72 36z"/><path d="m480 642 12-6 8-8 8-16 4-16v-44h-32z"/><path d="m260 612-4-16z"/><path d="m508 612-8 16z"/><path d="m500 628-8 8z"/><path d="m260 612 8 16 8 8 16 8 16 4h24z"/><path d="m276 636-8-8z"/><path d="m268 628-8-16z"/><path d="m-96 168h57.333 26.667-116-28 16z"/><path d="m-96-280h57.3329-25.3329-12z"/><path d="m-96 168h-44z"/><path d="m32-280h-4-16-56z"/><path d="m44-280h-12z"/><path d="m-38.6671-280h-57.3329-32 116z"/><path d="m-38.6671-280h26.6671 24-64-8-4z"/><path d="m-38.667 168h-57.333 12 16 4z"/><path d="m64-280h-12-8z"/><path d="m-352-168v-60 12 108z"/><path d="m-128-280h-172l-16 4-16 8-8 8-8 16-4 16v60h112 36 16 20 40z"/><path d="m96-280h-12-20-20-12-20-24-116v112h168 20 16 20z"/><path d="m112-168h112v-112h-128v112z"/><path d="m-80-152h120v-16h-168-40v16z"/><path d="m-16 56h56v-16h-120-88v16z"/><path d="m112-96v-20h-20l4 20z"/><path d="m60-148 16 8v-28h-16z"/><path d="m112-132v-36h-16-20v28l8 8z"/><path d="m112 4v-20h-16l-4 20z"/><path d="m76 28-16 8v20h16z"/><path d="m76 56h36v-36h-28l-8 8z"/><path d="m-16 56h-152-20-16-36v16h112 112z"/><path d="m96 72h16v-16h-36-16-20-56v16z"/><path d="m224 72v-160-80h-112v36 16 20 80 20 16 36 16z"/><path d="m40 56h20v-20l-20 4z"/><path d="m112 20v-16h-20l-8 16z"/><path d="m60-168h-20v16l20 4z"/><path d="m112-116v-16h-28l8 16z"/><path d="m112-96h-16v80h16z"/><path d="m-188-148v-20h-16v28z"/><path d="m-188 56v-20l-16-8v28z"/><path d="m-188 56h20v-16l-20-4z"/><path d="m-168-168h-20v20l20-4z"/><path d="m-240-116v20h16l4-20z"/><path d="m-204-168h-36v36h28l8-8z"/><path d="m-240-16v20h20l-4-20z"/><path d="m-240 20v36h36v-28l-8-8z"/><path d="m-240 56v-36-16-20-80-20-16-36h-112v60 180h112z"/><path d="m-240 4v16h28l-8-16z"/><path d="m-240-132v16h20l8-16z"/><path d="m-224-40v-56h-16v80h16z"/><path d="m-128 72h-112-112v44l4 16 8 16 8 8 16 8 16 4h108 20 16 28z"/><path d="m96 72h-112-112v96h116 24 72 12z"/><path d="m172 168 16-2 16-5 8-5 8-10 4-10v-64h-112-16v96z"/><path d="m40 40h-88-32z"/><path d="m96-96v24 32 24z"/><path d="m-188 36-4-2-12-6z"/><path d="m-172 168h-20z"/><path d="m-192 168h-108z"/><path d="m12 168h-24-26.667-25.333 12z"/><path d="m84 168h-72-64 8z"/><path d="m12-280h20-76-8z"/><path d="m44-280h-12z"/><path d="m44-280h20z"/><path d="m64-280h20z"/><path d="m96-280h128z"/><path d="m224-88v160 64z"/><path d="m84-280h12-32z"/><path d="m-80-152v64z"/><path d="m-80-24v64z"/><path d="m40 40h-88z"/><path d="m-48-152h88-120z"/><path d="m-48-88v-64z"/><path d="m96-40v-32h-128v32z"/><path d="m-32-72-16-16v16 16 16 16l16-16z"/><path d="m96-72h-128z"/><path d="m-48-24v-16h-32v16 64h32z"/><path d="m-48-56h-32v16h32z"/><path d="m-80-56h32v-16h-32z"/><path d="m-80-88v16h32v-16-64h-32z"/><path d="m-80 40h-88z"/><path d="m-224-72v-24 56z"/><path d="m-96-40v-32h-128v32z"/><path d="m-80-40v-16-16-16l-16 16v32l16 16z"/><path d="m-96-72h-128z"/><path d="m-48 40h88-8-112z"/><path d="m40-152h-88z"/><path d="m-48-24v64z"/><path d="m96-16v-24z"/><path d="m-32-72h-16v-16z"/><path d="m-48-88 16 16z"/><path d="m96-40h-128z"/><path d="m-32-72h128v32h-128-16v-32z"/><path d="m-32-40-16 16v-16z"/><path d="m-32-40-16 16z"/><path d="m-80-24v-16-32-16-64h32v64 16 32 16 64h-32z"/><path d="m-224-72v-24z"/><path d="m-224-72v32z"/><path d="m-224-40v24z"/><path d="m-96-40h16v16z"/><path d="m-96-72h16v32h-16-128v-32z"/><path d="m-96-72 16-16v16z"/><path d="m-96-72 16-16z"/><path d="m-96-40h-128z"/><path d="m-80-24-16-16z"/><path d="m40-168h20v4z"/><path d="m112-168v36h-12l-10-14z"/><path d="m32-152h-112-88-20-4v-10l4-2 20-4h120 80z"/><path d="m76-156 5.6 4h-5.6-16-20-8v-16h8l20 4z"/><path d="m-48-168h-120-20-16-36-32v-48h224z"/><path d="m144-216v48h-32-36-16-20-8-80v-48z"/><path d="m112 56v-16-20-16-20-80-20-16-36h32v240h-32z"/><path d="m81.6-152-5.6-4v-12h36l-22 22z"/><path d="m76-156-16-8v-4h16z"/><path d="m108-116h4v20z"/><path d="m96 4v-20-56-24-20-16h4l8 16 4 20v80l-4 20-8 16h-4z"/><path d="m100-132h-4-12l-8-8v-12h5.6l8.4 6z"/><path d="m108-116-8-16h12v16z"/><path d="m40-152h20v4z"/><path d="m92-116-8-16h12v16z"/><path d="m76-140-16-8v-4h16z"/><path d="m96-96-4-20h4z"/><path d="m112-16v20h-4z"/><path d="m96 20h4l-10 14-8.4 6h-5.6v-12l8-8z"/><path d="m100 20h12v20h-16l-6-6z"/><path d="m100 20 8-16h4v16z"/><path d="m92 4 4-20v20z"/><path d="m60 36 16-8v12h-16z"/><path d="m84 20 8-16h4v16z"/><path d="m40 40 20-4v4z"/><path d="m81.6 40 8.4-6 6 6z"/><path d="m60 56h-20l20-4z"/><path d="m96 40h16v16h-36v-12l5.6-4z"/><path d="m32 56h-48-152l-20-4-4-2v-10h4 20 88 112z"/><path d="m40 40h20 16 5.6l-5.6 4-16 8-20 4h-8v-16z"/><path d="m-16 72h-32-192v-16h36 16 20 152z"/><path d="m32 56h8 20 16 36v16h-128v-16z"/><path d="m60 52 16-8v12h-16z"/><path d="m-188-164v-4h20z"/><path d="m-188-168v4l-4 2-12 6v-12z"/><path d="m-188-148-4 2v-6h4z"/><path d="m-188-148v-4h20z"/><path d="m-188 40v-4l20 4z"/><path d="m-192 34 4 2v4h-4z"/><path d="m-168 56h-20v-4z"/><path d="m-192 50 4 2v4h-16v-12z"/><path d="m-240-96v-20h4z"/><path d="m-218-146-22-22h36v12z"/><path d="m-272-168h32v36 16 20 80 20 16 36 16h-32z"/><path d="m-212-132-8 16h-16l8-16z"/><path d="m-192-152v6l-12 6v-16l12-6z"/><path d="m-218-146 14-10v16l-8 8h-16z"/><path d="m-220-116-4 20h-16l4-20z"/><path d="m-240-132v-36l22 22-10 14z"/><path d="m-228-132-8 16h-4v-16z"/><path d="m-240-96h16v24 32 24h-16z"/><path d="m-240 20v-16h4l8 16z"/><path d="m-218 34-22 22v-36h12z"/><path d="m-224-16 4 20h-16l-4-20z"/><path d="m-212 20 8 8v16l-14-10-10-14z"/><path d="m-204 28 12 6v6 10l-12-6z"/><path d="m-220 4 8 16h-16l-8-16z"/><path d="m-240 56 22-22 14 10v12z"/><path d="m-236 4h-4v-20z"/><path d="m-48 88h-224v-16h32 192z"/><path d="m-16 72h128 32v16h-192v-16z"/><path d="m32-152h8-88-32z"/><path d="m96-96v24z"/><path d="m96-16v-24-32z"/><path d="m96-96-4-20z"/><path d="m84 20 8-16z"/><path d="m84-132-8-8z"/><path d="m60 36 16-8z"/><path d="m60-148-20-4z"/><path d="m40 40 20-4z"/><path d="m76-140-16-8z"/><path d="m76 28 8-8z"/><path d="m92-116-8-16z"/><path d="m92 4 4-20z"/><path d="m-168-152h88z"/><path d="m-220 4 8 16z"/><path d="m-220-116-4 20z"/><path d="m-204-140-8 8z"/><path d="m-168 40-20-4z"/><path d="m-188-148 20-4z"/><path d="m-212 20 8 8z"/><path d="m-192-146 4-2-16 8z"/><path d="m-224-16 4 20z"/><path d="m-212-132-8 16z"/></g></defs><path d="m-490-858h1804v1660h-1804z" fill="#fff"/><g stroke="#000"><use fill="none" stroke-miterlimit="0" stroke-width="15" xlink:href="#a"/><use fill="#fff" xlink:href="#a"/></g></svg>