<?xml version="1.0" encoding="utf-8" ?>
<svg baseProfile="tiny" height="100%" version="1.2" viewBox="-662.0 -950.0 1996.0 1804.0" width="100%" xmlns="http://www.w3.org/2000/svg" xmlns:ev="http://www.w3.org/2001/xml-events" xmlns:xlink="http://www.w3.org/1999/xlink"><defs><g id="bsp_ref"><polygon points="384,176 384,176 384,224 384,224" /><polygon points="384,224 384,224 256,224 256,224" /><polygon points="384,176 384,224 256,224 256,176" /><polygon points="448,-64 448,-32 352,-32 320,-32 320,-64" /><polygon points="352,96 352,-32 448,-32 448,0 448,96 448,168 392,168 352,168" /><polygon points="288,-32 320,-32 352,-32 352,96 224,96 224,-32" /><polygon points="352,168 392,168 384,176 256,176 248,168" /><polygon points="392,168 448,168 448,224 392,224" /><polygon points="384,176 392,168 392,224 384,224" /><polygon points="224,96 352,96 352,168 248,168 160,168 160,96" /><polygon points="240,-256 320,-256 320,-240 288,-240 240,-240" /><polygon points="224,-256 224,-248 160,-248 160,-256" /><polygon points="224,-248 224,-240 160,-240 160,-248" /><polygon points="64,-240 64,-256 144,-256 144,-240" /><polygon points="64,-32 160,-32 160,64 148,64 64,64" /><polygon points="160,64 160,-32 224,-32 224,96 160,96" /><polygon points="288,-32 224,-32 160,-32 64,-32 64,-160 64,-240 144,-240 160,-240 224,-240 240,-240 288,-240" /><polygon points="320,-76 320,-64 320,-32 288,-32 288,-240 320,-240" /><polygon points="248,168 256,176 256,224 248,224" /><polygon points="160,192 160,168 248,168 248,224 160,224" /><polygon points="1120,32 1056,32 1056,32 1120,32" /><polygon points="160,192 160,224 128,224" /><polygon points="448,-32 448,-64 448,-160 448,0 448,0" /><polygon points="320,-240 320,-256 320,-256 320,-160 320,-76" /><polygon points="224,-248 224,-248 160,-248 160,-248" /><polygon points="896,320 896,480 896,544 896,480 896,320" /><polygon points="896,96 896,320 896,320 896,256 896,96" /><polygon points="1056,32 896,32 896,32 896,32 928,32 1056,32" /><polygon points="384,224 384,224 256,224 256,224" /><polygon points="448,168 448,96 448,96 448,96 448,224 448,224" /><polygon points="64,-160 64,-32 64,64 64,64 64,-160" /><polygon points="160,-240 144,-240 144,-240" /><polygon points="64,64 148,64 64,64" /><polygon points="148,64 160,64 64,64 64,64" /><polygon points="896,480 896,608 896,608 896,544" /><polygon points="256,608 32,608 32,608 192,608 256,608" /><polygon points="480,608 256,608 256,608 384,608 448,608 480,608" /><polygon points="704,608 480,608 480,608 672,608 704,608" /><polygon points="-416,320 -416,320 -416,352 -416,384 -416,384" /><polygon points="-192,608 -416,608 -416,608 -192,608" /><polygon points="32,608 -192,608 -192,608 -160,608 32,608" /><polygon points="-512,320 -512,320 -416,320 -416,320" /><polygon points="256,176 256,176 256,224 256,224" /><polygon points="384,176 384,176 256,176 256,176" /><polygon points="144,-240 144,-240 144,-256 144,-256" /><polygon points="-384,576 -384,576 -384,544" /><polygon points="-384,576 -384,544 -352,544" /><polygon points="-384,576 -352,544 -384,576" /><polygon points="320,-160 320,-160 320,-64 320,-76" /><polygon points="320,-256 320,-256 320,-160 320,-160" /><polygon points="64,-256 64,-256 64,-240 64,-160 64,-160" /><polygon points="64,-160 64,64 64,64 64,0 64,-64 64,-160" /><polygon points="64,-256 64,-256 144,-256 144,-256 64,-256" /><polygon points="224,-672 160,-672 96,-672 0,-672 0,-672 32,-672 128,-672 224,-672" /><polygon points="32,544 101.3333,544 160,544 192,544 192,576 0,576 -32,544" /><polygon points="384,544 384,576 256,576 256,544" /><polygon points="448,544 512,544 512,576 448,576" /><polygon points="336,-672 384,-672 448,-608 336,-608" /><polygon points="160,-672 224,-672 256,-672 320,-672 320,-608 160,-608" /><polygon points="96,-672 160,-672 160,-608 64,-608 32,-608" /><polygon points="320,-672 336,-672 336,-608 320,-608" /><polygon points="448,-608 384,-672 384,-672 384,-672 448,-608" /><polygon points="-64,-384 -64,-288 -64,-160 -64,-160 -64,-256 -64,-288 -64,-384" /><polygon points="-64,-512 -64,-384 -64,-384 -64,-512" /><polygon points="64,96 64,64 160,64 160,96 160,168 160,192 128,224 64,288" /><polygon points="808,0 808,0 664,0 664,0" /><polygon points="64,0 64,0 32,0 32,0" /><polygon points="832,-288 832,-288 832,-256 832,-256" /><polygon points="448,-608 448,-608 448,-416 448,-416 448,-416 448,-416 448,-416" /><polygon points="448,-384 448,-384 448,-288 448,-288" /><polygon points="448,-160 448,-160 448,-32 448,0 448,0" /><polygon points="608,-160 608,-160 448,-160 448,-160" /><polygon points="672,-160 640,-160 608,-160 448,-160 448,-192 672,-192" /><polygon points="768,-192 768,-160 672,-160 672,-192" /><polygon points="672,-192 448,-192 448,-256 448,-288 480,-288 672,-288" /><polygon points="704,-288 768,-288 768,-192 672,-192 672,-288" /><polygon points="832,-288 832,-256 832,-160 768,-160 768,-192 768,-288" /><polygon points="704,-288 608,-288 640,-288 704,-288 768,-288 768,-288" /><polygon points="672,-160 768,-160 832,-160 832,-32 808,0 664,0 640,-32 640,-160" /><polygon points="224,-256 224,-256 160,-256 160,-256" /><polygon points="240,-256 320,-256 320,-256 320,-256 240,-256" /><polygon points="64,-256 64,-256 85.8182,-256 144,-256 144,-256" /><polygon points="64,-256 144,-256 144,-256" /><polygon points="448,-608 448,-416 448,-384 336,-384 336,-608" /><polygon points="448,-384 448,-288 448,-256 336,-256 336,-384" /><polygon points="320,-608 320,-416 160,-416 160,-608" /><polygon points="160,-608 160,-416 160,-384 64,-384 64,-608" /><polygon points="160,-384 160,-288 144,-288 64,-288 64,-384" /><polygon points="336,-608 336,-384 320,-384 320,-416 320,-608" /><polygon points="336,-384 336,-256 320,-256 320,-384" /><polygon points="168,-288 160,-288 160,-384 168,-384" /><polygon points="168,-384 160,-384 160,-384 168,-384" /><polygon points="144,-288 160,-288 168,-288 168,-288 144,-288" /><polygon points="168,-288 168,-384 168,-384 168,-384 168,-288" /><polygon points="336,-256 336,-192 336,-160 320,-160 320,-256" /><polygon points="448,-160 336,-160 336,-192 448,-192" /><polygon points="448,-256 448,-192 336,-192 336,-256" /><polygon points="336,-160 448,-160 448,-64 320,-64 320,-160" /><polygon points="144,-256 144,-256 144,-256 144,-240 144,-240 144,-240 144,-256" /><polygon points="224,-256 224,-256 224,-248 224,-248 224,-256" /><polygon points="64,288 64,288 64,288 48,304 -16,368 -16,368" /><polygon points="896,32 896,32 896,96 896,96" /><polygon points="896,256 896,320 896,480 864,480 864,320 864,256" /><polygon points="896,480 896,544 864,544 864,480" /><polygon points="352,288 256,288 128,288 128,288 256,288 352,288" /><polygon points="448,0 448,96 448,96 448,0" /><polygon points="384,448 384,320 384,288 512,288 512,416 512,512 384,512" /><polygon points="512,512 512,544 448,544 384,544 384,512" /><polygon points="384,320 384,448 256,448 256,416 256,320" /><polygon points="352,288 384,288 384,320 256,320 256,288" /><polygon points="384,448 384,512 384,544 256,544 256,448" /><polygon points="128,288 256,288 256,320 256,416 64,416 64,352" /><polygon points="256,416 256,448 256,544 192,544 160,544 64,448 64,416" /><polygon points="64,-256 64,-256 64,-160 64,-160" /><polygon points="64,448 32,416 64,416" /><polygon points="32,96 64,96 64,288 32,320 -48,320 -64,296 -64,96" /><polygon points="32,320 -16,368 -48,320" /><polygon points="64,64 64,96 32,96 32,64" /><polygon points="64,416 32,416 16,400 64,352" /><polygon points="0,-288 32,-288 32,-64 -64,-64 -64,-160" /><polygon points="32,-64 32,0 32,64 32,96 -64,96 -64,64 -64,-64" /><polygon points="-64,-288 0,-288 -64,-160" /><polygon points="32,-288 64,-288 64,-256 64,-160 64,-64 32,-64" /><polygon points="64,-64 64,0 32,0 32,-64" /><polygon points="-64,-384 -64,-512 32,-608 64,-608 64,-384" /><polygon points="64,-288 32,-288 0,-288 -64,-288 -64,-384 64,-384" /><polygon points="64,0 32,0 32,0" /><polygon points="64,64 32,64 32,64" /><polygon points="64,352 16,400 16,400" /><polygon points="32,320 64,288 -16,368 -16,368" /><polygon points="-128,64 -128,-32 -64,-160 -64,-64 -64,64" /><polygon points="-64,96 -128,96 -128,64 -64,64" /><polygon points="-128,-32 -128,-32 -64,-160 -64,-160" /><polygon points="-64,296 -128,200 -128,96 -64,96" /><polygon points="32,416 16,416 9.6,406.4 16,400" /><polygon points="64,448 160,544 101.3333,544 16,416 32,416" /><polygon points="101.3333,544 32,544 -96,416 -32,416 0,416 16,416" /><polygon points="-128,384 -32,384 -32,416 -96,416" /><polygon points="-64,296 -48,320 -16,368 -32,384 -128,384 -128,320 -128,200" /><polygon points="16,416 0,416 9.6,406.4" /><polygon points="9.6,406.4 0,416 0,416 9.6,406.4" /><polygon points="512,544 512,544 512,544 512,576" /><polygon points="896,544 864,576 864,544" /><polygon points="-192,320 -224,288 -224,192 -128,96 -128,200 -128,320" /><polygon points="-128,384 -192,320 -128,320" /><polygon points="-128,416 -160,416 -160,416 -160,416 -160,416 -128,416" /><polygon points="-128,416 -128,384 -96,416" /><polygon points="32,544 -32,544 -160,416 -128,416 -96,416" /><polygon points="896,608 896,608 704,608 704,608" /><polygon points="448,608 448,608 448,576" /><polygon points="672,608 480,608 448,608 448,576 512,576 672,576" /><polygon points="896,544 896,608 864,576" /><polygon points="256,608 256,608 256,576" /><polygon points="-384,544 -384,576 -352,544" /><polygon points="-32,544 -160,544 -160,416" /><polygon points="-416,320 -512,320 -512,320 -384,320" /><polygon points="-160,416 -160,544 -160,544 -160,416" /><polygon points="32,608 -160,608 -160,576 0,576" /><polygon points="-416,320 -384,320 -384,352 -416,352" /><polygon points="-192,608 -416,608 -384,576 -192,576" /><polygon points="-160,608 -192,608 -192,576 -160,576" /><polygon points="-416,384 -416,576 -416,608 -416,608 -416,384" /><polygon points="-64,-608 0,-672 96,-672 32,-608 -64,-512" /><polygon points="480,-288 448,-288 448,-160 480,-160" /><polygon points="160,-384 160,-384 160,-416 160,-416" /><polygon points="168,-384 160,-384 160,-384 168,-384" /><polygon points="224,-256 224,-256 160,-256 160,-256" /><polygon points="85.8182,-256 64,-256 64,-256" /><polygon points="64,-256 64,-256 64,-288 64,-288 64,-256" /><polygon points="171.4286,-384 192,-384 192,-384" /><polygon points="160,-384 160,-384 160,-416 160,-416" /><polygon points="192,-288 192,-384 192,-384 192,-384 192,-288" /><polygon points="144,-288 168,-288 192,-288 192,-288 192,-288 192,-288 144,-288" /><polygon points="171.4286,-384 192,-384 192,-288 168,-288 168,-384" /><polygon points="240,-240 240,-240 240,-256 240,-256 240,-256 240,-240" /><polygon points="144,-240 160,-240 160,-240 144,-240" /><polygon points="224,-240 240,-240 240,-240 224,-240" /><polygon points="224,-240 224,-248 160,-248 160,-240" /><polygon points="224,-248 224,-256 160,-256 160,-248" /><polygon points="224,-248 224,-240 224,-240 224,-248" /><polygon points="160,-248 160,-256 160,-256 160,-256 160,-248" /><polygon points="160,-240 160,-248 160,-248 160,-240" /><polygon points="224,-248 224,-248 160,-248 160,-248" /><polygon points="512,544 512,544 512,512 512,416 512,416" /><polygon points="808,0 784,32 688,32 664,0" /><polygon points="688,32 784,32 784,32 688,32" /><polygon points="544,416 512,416 512,416 544,416" /><polygon points="544,544 512,544 512,416 544,416" /><polygon points="-192,384 -160,416 -160,544 -192,544" /><polygon points="32,64 32,64 32,0 32,0" /><polygon points="448,680 384,680 384,704 448,704" /><polygon points="256,680 192,680 192,704 256,704" /><polygon points="256,-672 256,-672 224,-672 224,-672" /><polygon points="-192,384 -192,384 -176,400 -160,416 -160,416 -192,384" /><polygon points="1184,32 1184,32 1120,32 1120,32" /><polygon points="1120,32 1056,32 1056,32 1056,32 1088,32 1120,32" /><polygon points="544,544 576,544 576,544 544,544" /><polygon points="544,544 544,544 512,544 512,544 544,544" /><polygon points="144,-256 144,-256 85.8182,-256 64,-256 44,-256 44,-256 144,-256" /><polygon points="194.2857,-384 216,-384 216,-384" /><polygon points="192,-384 192,-384 171.4286,-384 168,-384 160,-384 192,-384" /><polygon points="192,-288 216,-288 216,-288 208,-288 192,-288" /><polygon points="194.2857,-384 216,-384 216,-288 192,-288 192,-384" /><polygon points="144,-240 144,-256 192,-256 192,-240" /><polygon points="864,320 864,480 864,544 864,544 864,320" /><polygon points="864,96 864,256 864,320 864,320 864,96" /><polygon points="864,32 896,32 896,32" /><polygon points="896,32 864,32 864,32 864,32 864,32 896,32" /><polygon points="864,96 864,32 896,32 896,96 896,256 864,256" /><polygon points="784,64 784,32 784,32 784,64" /><polygon points="688,64 784,64 784,64 688,64" /><polygon points="688,64 688,32 784,32 784,64" /><polygon points="688,32 688,32 688,32 664,0 664,0 664,0 688,32" /><polygon points="576,416 544,416 512,416 512,416 576,416" /><polygon points="544,544 544,544 544,416 544,416" /><polygon points="576,544 544,544 544,416 576,416" /><polygon points="256,224 256,224 128,224 128,224 160,224 248,224 256,224" /><polygon points="384,224 384,224 392,224 448,224 448,224 448,224 448,224 384,224" /><polygon points="448,96 448,48 448,96 448,224 448,224" /><polygon points="384,224 384,216 256,216 256,224" /><polygon points="16,400 16,400 9.6,406.4 9.6,406.4 16,400" /><polygon points="864,544 864,576 864,576 864,544" /><polygon points="736,576 672,576 512,576 640,576 736,576" /><polygon points="736,576 864,576 896,608 704,608 672,608 672,576" /><polygon points="384,576 384,608 256,608 256,576" /><polygon points="192,576 192,608 32,608 0,576" /><polygon points="-336,320 -352,320 -352,320 -336,320" /><polygon points="-160,576 -160,544 -160,544 -160,544" /><polygon points="0,576 -160,576 -160,544 -32,544" /><polygon points="-160,576 -192,576 -384,576 -384,576 -224,576" /><polygon points="-384,320 -384,320 -384,352 -384,352" /><polygon points="-160,544 -192,544 -192,544 -192,544 -160,544" /><polygon points="-336,544 -192,544 -192,544 -224,544 -352,544 -352,544" /><polygon points="-336,384 -336,400 -336,400 -336,384" /><polygon points="-336,464 -336,480 -336,480 -336,464" /><polygon points="-192,384 -192,384 -192,544 -192,544" /><polygon points="-336,480 -336,464 -336,400 -336,384 -336,320 -256,320 -192,384 -192,544 -336,544" /><polygon points="-352,384 -352,320 -336,320 -336,384" /><polygon points="-336,480 -352,480 -352,480 -352,480 -336,480" /><polygon points="-352,400 -344,400 -344,464 -352,464" /><polygon points="-344,400 -336,400 -336,464 -344,464" /><polygon points="-344,400 -344,400 -344,464 -344,464" /><polygon points="-336,544 -352,544 -352,480 -336,480" /><polygon points="-352,480 -352,544 -352,544 -352,480" /><polygon points="-384,352 -384,576 -416,576 -416,384 -416,352" /><polygon points="-384,576 -416,608 -416,576" /><polygon points="216,-288 216,-288 208,-288" /><polygon points="216,-288 216,-288 216,-384 216,-384 216,-384 216,-288" /><polygon points="216,-384 194.2857,-384 192,-384 192,-384 205.7143,-384 216,-384" /><polygon points="320,-416 320,-416 160,-416 160,-416 320,-416" /><polygon points="320,-416 320,-416 320,-384 320,-256 320,-256" /><polygon points="217.1429,-384 240,-384 240,-384" /><polygon points="208,-288 216,-288 240,-288 240,-288 208,-288 192,-288" /><polygon points="217.1429,-384 240,-384 240,-288 216,-288 216,-384" /><polygon points="688,32 688,32 688,64 688,64" /><polygon points="784,32 784,32 784,32 808,0 808,0 784,32" /><polygon points="784,96 688,96 688,64 784,64" /><polygon points="608,416 576,416 512,416 512,416 608,416" /><polygon points="576,544 576,544 576,416 576,416" /><polygon points="608,544 576,544 576,416 608,416" /><polygon points="544,544 576,544 640,544 640,576 512,576 512,544" /><polygon points="-176,80 -176,80 -240,144 -240,144" /><polygon points="-192,544 -160,544 -160,576 -224,576 -224,544" /><polygon points="-16,368 -16,368 -32,384 -32,384 -16,368" /><polygon points="192,-256 192,-256 224,-256 240,-256 240,-256" /><polygon points="192,-256 144,-256 144,-256 192,-256" /><polygon points="192,-240 240,-240 240,-240 224,-240 160,-240 144,-240 144,-240" /><polygon points="192,-240 192,-256 240,-256 240,-240" /><polygon points="448,96 448,96 448,224 448,224" /><polygon points="32,-672 32,-672 0,-672 0,-672 32,-672" /><polygon points="128,-672 128,-672 32,-672 32,-672" /><polygon points="256,-672 256,-672 224,-672 128,-672 128,-672 128,-672 256,-672" /><polygon points="352,-672 384,-672 384,-672 336,-672 320,-672 256,-672 256,-672 256,-672" /><polygon points="832,544 832,544 800,544 800,544" /><polygon points="608,544 576,544 544,544 576,544 608,544" /><polygon points="240,-384 262.8572,-384 264,-384 264,-384" /><polygon points="208,-288 264,-288 272,-288 304,-288 288,-288 192,-288 192,-288" /><polygon points="240,-288 240,-288 240,-384 240,-384" /><polygon points="264,-288 240,-288 240,-384 264,-384" /><polygon points="64,-288 64,-288 144,-288 144,-288 144,-288 64,-288" /><polygon points="128,224 64,288 64,288 128,224" /><polygon points="512,352 512,416 512,416 512,416 512,416 512,416 512,288 512,288" /><polygon points="784,96 736,96 688,96 688,96 784,96" /><polygon points="688,96 688,96 688,32 688,32 688,64 688,96" /><polygon points="832,96 832,96 832,320 832,320" /><polygon points="704,416 784,416 784,544 608,544 608,416" /><polygon points="640,224 704,224 704,288" /><polygon points="736,224 784,224 784,320 784,416 704,416 704,288 704,224" /><polygon points="736,224 704,224 640,224 512,224 512,96 576,96 640,96 688,96 736,96" /><polygon points="784,96 784,224 736,224 736,96" /><polygon points="784,320 784,224 784,96 832,96 832,320" /><polygon points="832,544 800,544 784,544 784,416 784,320 832,320" /><polygon points="640,224 640,224 640,224 576,224 560,224 512,224 512,224" /><polygon points="608,416 512,416 512,416 704,416 704,416" /><polygon points="608,544 608,544 608,416 608,416" /><polygon points="384,288 512,288 512,288 384,288 352,288 352,288" /><polygon points="256,224 256,224 256,216 256,224" /><polygon points="384,224 384,224 384,216 384,224" /><polygon points="512,224 448,224 448,96 512,96" /><polygon points="512,96 448,96 448,0 512,0" /><polygon points="384,608 384,576 384,544 384,544" /><polygon points="192,608 192,576 192,544 192,544" /><polygon points="-176,80 -176,80 -240,144 -240,144" /><polygon points="448,608 448,608 384,608 384,608" /><polygon points="256,608 256,608 192,608 192,608" /><polygon points="192,608 192,608 192,576" /><polygon points="384,608 384,608 384,576" /><polygon points="448,608 448,680 448,704 448,650.6667" /><polygon points="256,608 256,680 256,704 256,650.6667" /><polygon points="384,608 384,680 448,680 448,608" /><polygon points="192,608 192,680 256,680 256,608" /><polygon points="-384,352 -384,384 -384,480 -384,544 -384,576 -384,576 -384,352" /><polygon points="-352,384 -352,384 -336,384 -336,384 -352,384" /><polygon points="-368,384 -384,384 -384,352 -384,320 -352,320 -352,384" /><polygon points="-352,320 -352,320 -352,384 -352,384" /><polygon points="-368,384 -368,384 -368,384 -368,432 -368,480 -368,480 -368,480" /><polygon points="-352,400 -352,400 -344,400 -344,400 -352,400" /><polygon points="-352,400 -352,400 -352,464 -352,464" /><polygon points="-384,384 -368,384 -368,480 -384,480" /><polygon points="-368,480 -352,480 -352,544 -384,544 -384,480" /><polygon points="-352,544 -224,544 -224,576 -384,576 -384,544" /><polygon points="256,224 256,224 184,224 128,224 128,224 128,224 128,224 256,224" /><polygon points="384,224 384,224 448,224 448,224 448,224 384,224" /><polygon points="384,216 384,200 256,200 256,216" /><polygon points="352,-800 352,-800 256,-800 256,-800" /><polygon points="128,-800 128,-800 32,-800 32,-800" /><polygon points="264,-384 262.8572,-384 285.7144,-384 288,-384 288,-384" /><polygon points="264,-288 264,-288 208,-288 240,-288 264,-288" /><polygon points="264,-288 288,-288 288,-288 272,-288 264,-288" /><polygon points="264,-288 264,-288 264,-384 264,-384" /><polygon points="288,-288 264,-288 264,-384 288,-384" /><polygon points="448,0 448,48 448,96 448,96 448,0" /><polygon points="448,0 448,0 448,0 448,96 448,48" /><polygon points="336,-256 340,-256 340,-416 336,-416 320,-416 320,-256" /><polygon points="340,-256 349.0909,-256 384,-256" /><polygon points="340,-416 349.0909,-416 336,-416 336,-416" /><polygon points="352,-800 352,-800 256,-800 256,-800" /><polygon points="240,-800 256,-800 256,-800 256,-800 256,-800 240,-800" /><polygon points="16,-800 32,-800 32,-800 32,-800 32,-800 16,-800" /><polygon points="128,-800 128,-800 32,-800 32,-800" /><polygon points="-240,336 -192,384 -192,384 -256,320 -256,320" /><polygon points="-128,384 -144,368 -208,304 -224,288 -224,288 -192,320 -128,384" /><polygon points="-144,368 -128,384 -128,384 -128,384 -144,368" /><polygon points="800,544 640,544 576,544 608,544 784,544 800,544" /><polygon points="384,544 384,544 448,544 448,544" /><polygon points="192,544 192,544 256,544 256,544" /><polygon points="-16,368 16,400 16,400 -16,368" /><polygon points="448,-384 448,-384 448,-416 448,-416" /><polygon points="448,-288 448,-384 448,-416 448,-416 448,-256 448,-256" /><polygon points="448,-256 448,-256 448,-224 448,-224" /><polygon points="448,-32 448,0 448,0" /><polygon points="480,-288 480,-288 448,-288 448,-288" /><polygon points="608,-288 704,-288 672,-288 480,-288 480,-288" /><polygon points="608,-288 480,-288 448,-288 448,-256 448,-224 448,-160 608,-160" /><polygon points="312,-384 288,-384 285.7144,-384 308.5716,-384 312,-384" /><polygon points="272,-288 288,-288 312,-288 312,-288 304,-288" /><polygon points="288,-288 288,-288 288,-384 288,-384" /><polygon points="312,-288 288,-288 288,-384 312,-384" /><polygon points="928,32 1056,32 1056,32 928,32" /><polygon points="864,32 864,32 864,96 864,96" /><polygon points="832,96 784,96 784,96 864,96 864,96" /><polygon points="832,96 832,96 784,96 784,96" /><polygon points="784,96 784,96 784,96 784,64 784,32 784,32 784,96" /><polygon points="832,320 832,544 832,544 832,320" /><polygon points="864,320 864,544 832,544 832,320" /><polygon points="832,96 864,96 864,320 832,320" /><polygon points="192,288 256,288 256,288 128,288 128,288" /><polygon points="80,336 16,400 -16,368 48,304" /><polygon points="128,288 80,336 80,336 128,288" /><polygon points="80,336 128,288 128,288 128,288 64,352 16,400 16,400" /><polygon points="16,400 9.6,406.4 9.6,406.4 16,400" /><polygon points="0,416 0,416 -32,416 -32,416 0,416" /><polygon points="-32,384 -32,384 -32,416 -32,416 -32,384" /><polygon points="9.6,406.4 0,416 0,416 0,416 9.6,406.4" /><polygon points="800,544 832,544 864,544 864,576 736,576 640,576 640,544" /><polygon points="864,576 864,576 736,576 736,576" /><polygon points="256,544 256,608 256,650.6667 256,544" /><polygon points="256,544 256,544 256,576 256,608" /><polygon points="448,544 448,608 448,650.6667 448,544" /><polygon points="448,544 448,544 448,576 448,608" /><polygon points="-224,192 -208,176 -144,112 -128,96 -128,96 -224,192" /><polygon points="-208,176 -208,176 -240,144 -240,144" /><polygon points="-144,112 -208,176 -240,144 -176,80" /><polygon points="-240,144 -240,144 -256,160 -256,160 -240,144" /><polygon points="-224,288 -224,192 -224,192 -224,288" /><polygon points="-128,384 -128,384 -128,416 -128,416 -128,384" /><polygon points="-176,400 -192,384 -240,336 -208,304 -144,368" /><polygon points="-176,400 -144,368 -144,368 -176,400" /><polygon points="-256,320 -256,320 -336,320 -336,320 -336,320" /><polygon points="-336,320 -336,320 -352,320 -384,320 -384,320 -336,320" /><polygon points="480,-160 480,-160 448,-160 448,-160" /><polygon points="448,-288 448,-288 480,-288 480,-288" /><polygon points="448,-288 480,-288 480,-160 448,-160" /><polygon points="448,-256 448,-256 448,-288 448,-288" /><polygon points="448,-160 448,-160 448,-256 448,-256" /><polygon points="480,-288 480,-288 480,-160 480,-160" /><polygon points="384,200 384,200 256,200 256,200" /><polygon points="448,650.6667 448,704 384,704 384,650.6667" /><polygon points="256,650.6667 256,704 192,704 192,650.6667" /><polygon points="384,650.6667 384,704 384,680 384,608" /><polygon points="192,650.6667 192,704 192,680 192,608" /><polygon points="44,-256 35.2,-256 44,-256" /><polygon points="44,-288 44,-288 0,-288" /><polygon points="44,-256 64,-256 64,-288 44,-288" /><polygon points="448,-224 448,-160 448,-16 448,0 448,0 448,-32 448,-160 448,-224" /><polygon points="448,-16 448,-32 448,-32 448,0 448,0" /><polygon points="456,-256 456,-256 456,-160 456,-160" /><polygon points="448,-224 448,-256 456,-256 456,-160 448,-160" /><polygon points="336,-256 349.0909,-256 340,-256 336,-256" /><polygon points="224,-256 192,-256 144,-256 44,-256 35.2,-256 0,-256 64,-256 224,-256" /><polygon points="320,-256 320,-256 336,-256 336,-256 336,-256 336,-256 320,-256" /><polygon points="320,-256 320,-256 320,-256 240,-256 240,-256 240,-256" /><polygon points="349.0909,-416 384,-416 448,-416 448,-416 336,-416 336,-416" /><polygon points="384,-416 349.0909,-416 340,-416" /><polygon points="336,-416 336,-416 320,-416 320,-416 336,-416" /><polygon points="384,-256 448,-256 448,-416 384,-416" /><polygon points="384,-416 340,-416 340,-256 384,-256" /><polygon points="336,-288 336,-384 336,-384 336,-384 336,-288" /><polygon points="320,-288 312,-288 312,-384 336,-384 336,-288" /><polygon points="304,-288 312,-288 320,-288 320,-288 288,-288 288,-288" /><polygon points="320,-288 336,-288 336,-288 320,-288" /><polygon points="312,-288 312,-288 312,-384 312,-384" /><polygon points="64,-288 64,-288 44,-288 44,-288 64,-288" /><polygon points="35.2,-256 44,-256 44,-288 0,-288 0,-256" /><polygon points="576,0 576,32 576,96 512,96 512,0" /><polygon points="448,0 448,96 448,96 448,0" /><polygon points="-336,320 -336,320 -288,320 -256,320 -256,320 -256,320 -336,320" /><polygon points="-512,320 -384,320 -384,320 -384,320 -512,320" /><polygon points="-368,384 -368,384 -352,384 -352,384" /><polygon points="-352,480 -352,480 -368,480 -368,480" /><polygon points="-344,400 -352,400 -352,464 -344,464" /><polygon points="-336,400 -344,400 -344,464 -336,464" /><polygon points="-336,464 -344,464 -344,464 -336,464" /><polygon points="-344,464 -352,464 -352,464 -352,464 -344,464" /><polygon points="-344,400 -336,400 -336,400 -344,400" /><polygon points="-344,400 -344,400 -344,464 -344,464" /><polygon points="-352,400 -352,400 -352,464 -352,464" /><polygon points="448,-32 448,-16 448,-160 448,-160" /><polygon points="448,-160 448,-160 456,-160 456,-160" /><polygon points="456,-256 456,-256 456,-160 456,-160" /><polygon points="448,-256 456,-256 456,-256 448,-256" /><polygon points="336,-256 448,-256 448,-256 384,-256 349.0909,-256 336,-256" /><polygon points="336,-416 448,-416 448,-416 320,-416 320,-416" /><polygon points="320,-416 320,-416 160,-416 160,-416" /><polygon points="320,-384 336,-384 336,-384 312,-384 308.5716,-384" /><polygon points="352,-672 384,-672 384,-672 352,-672" /><polygon points="352,-800 352,-800 352,-672 352,-672 352,-672" /><polygon points="352,-800 352,-672 256,-672 256,-800" /><polygon points="32,-672 32,-672 32,-800 32,-800 32,-672" /><polygon points="128,-800 128,-800 128,-672 128,-672" /><polygon points="32,-800 128,-800 128,-672 32,-672" /><polygon points="-64,-608 0,-672 0,-672 0,-672 -64,-608" /><polygon points="-160,416 -160,416 -176,400 -176,400 -160,416" /><polygon points="-128,64 -128,0 -128,-32 -128,-32 -128,64 -128,96 -128,96 -128,96" /><polygon points="-64,-512 -64,-384 -64,-288 -64,-288 -64,-512" /><polygon points="688,0 784,0 808,0 832,-32 704,-32 640,-32 664,0" /><polygon points="544,-416 576,-416 576,-256 456,-256 448,-256 448,-288 448,-384 448,-416" /><polygon points="456,-256 576,-256 576,-192 576,-160 456,-160" /><polygon points="448,-384 448,-288 384,-288 336,-288 336,-384" /><polygon points="448,-416 448,-384 336,-384 320,-384 320,-416" /><polygon points="456,-160 576,-160 608,-160 608,-32 576,-32 448,-32 448,-160" /><polygon points="64,-128 64,-256 0,-256 -64,-256" /><polygon points="0,-288 -64,-288 -64,-256 0,-256" /><polygon points="576,-416 576,-416 576,-256 576,-256" /><polygon points="576,-32 576,-32 576,0 576,0" /><polygon points="704,-32 704,-32 672,-32 640,-32 640,-32 640,-32 640,-32" /><polygon points="832,-32 832,-32 736,-32 704,-32 704,-32 704,-32 704,-32 704,-32 704,-32" /><polygon points="640,-160 640,-160 632,-160" /><polygon points="576,-192 576,-256 608,-256 608,-192" /><polygon points="608,-160 608,-160 608,-32 608,-32" /><polygon points="448,-608 448,-608 448,-416 448,-416 448,-416 448,-416" /><polygon points="288,-256 224,-256 64,-256 192,-256 288,-256" /><polygon points="448,-288 448,-288 384,-288 384,-288" /><polygon points="832,-32 808,0 808,0 808,0 832,-32" /><polygon points="832,-256 832,-192 832,-160 832,-32 832,-32 832,-160 832,-256" /><polygon points="448,-32 576,-32 576,0 512,0 448,0" /><polygon points="576,-32 576,0 576,0" /><polygon points="664,0 640,-32 664,0" /><polygon points="448,-32 448,-32 448,-160 448,-160" /><polygon points="640,-160 608,-160 608,-160 640,-160" /><polygon points="448,-160 448,-160 456,-160 456,-160" /><polygon points="832,-288 832,-288 768,-288 768,-288" /><polygon points="640,-288 608,-288 608,-160 640,-160" /><polygon points="456,-256 456,-256 448,-256 448,-256" /><polygon points="640,-160 640,-160 640,-32 640,-32" /><polygon points="640,-32 640,-32 664,0 664,0 664,0" /><polygon points="448,-256 448,-256 336,-256 336,-256" /><polygon points="288,-256 320,-256 320,-256 240,-256 224,-256 224,-256" /><polygon points="320,-384 320,-384 308.5716,-384 285.7144,-384 262.8572,-384 240,-384 217.1429,-384 216,-384 205.7143,-384" /><polygon points="336,-384 336,-384 320,-384 320,-384" /><polygon points="320,-416 320,-384 205.7143,-384 192,-384 160,-384 160,-416" /><polygon points="288,-288 160,-288 64,-288 64,-288 144,-288 192,-288 288,-288" /><polygon points="64,-32 64,-128 -64,-256 -64,-160 -64,-32" /><polygon points="32,0 64,0 64,-32 -64,-32 -64,0" /><polygon points="128,224 64,288 64,288 64,288 128,224" /><polygon points="64,288 64,288 48,304 48,304 64,288" /><polygon points="576,96 576,96 576,32 576,32" /><polygon points="576,0 576,0 576,32 576,32 576,32 576,0" /><polygon points="664,0 688,32 688,0" /><polygon points="96,160 64,96 64,192 64,288 128,224" /><polygon points="-64,64 0,64 32,64 32,0 -64,0" /><polygon points="-64,96 -32,96 0,64 -64,64" /><polygon points="64,96 64,64 32,64 0,64 -32,96 64,192" /><polygon points="64,0 64,64 64,96 64,96 64,0" /><polygon points="64,0 64,0 64,64 64,64" /><polygon points="32,64 64,64 64,64 32,64" /><polygon points="32,0 32,64 32,64 32,0" /><polygon points="-128,-32 -128,0 -64,0 -64,-32 -64,-160" /><polygon points="-128,0 -128,64 -64,64 -64,0" /><polygon points="-128,64 -128,96 -64,96 -64,64" /><polygon points="-32,384 -32,384 -16,368 -16,368 -32,384" /><polygon points="-128,384 -96,416 -32,416 -32,384" /><polygon points="-128,96 -128,96 -144,112 -144,112 -128,96" /><polygon points="-96,416 -128,416 -160,416 -160,416 -160,416 -96,416" /><polygon points="-128,384 -128,416 -96,416" /><polygon points="-336,480 -368,480 -368,432 -336,432" /><polygon points="-368,384 -336,384 -336,432 -368,432" /><polygon points="-336,384 -336,384 -336,400 -336,464 -336,480 -336,480 -336,432" /><polygon points="-368,384 -368,384 -352,384 -336,384 -336,384" /><polygon points="-336,480 -336,480 -352,480 -368,480 -368,480" /><polygon points="-64,-608 -64,-608 -64,-512 -64,-512" /><polygon points="608,-32 608,-32 608,-32 576,-32 576,-32 608,-32" /><polygon points="632,-160 640,-160 640,-160 624,-160" /><polygon points="640,-160 640,-160 640,-32 640,-32" /><polygon points="608,-160 608,-160 608,-32 608,-32" /><polygon points="784,32 808,0 784,0" /><polygon points="784,32 784,0 688,0 688,32 688,96 784,96" /><polygon points="608,-32 640,-32 640,-32 640,-32 608,-32" /><polygon points="608,-160 576,-160 576,-160 608,-160 624,-160" /><polygon points="576,-160 608,-160 608,-160 608,-160 576,-160" /><polygon points="640,-160 640,-160 640,-32 640,-32" /><polygon points="608,-160 624,-160 640,-160 640,-32 608,-32" /><polygon points="672,-32 704,-32 704,-32 672,-32" /><polygon points="640,-160 640,-160 640,-32 640,-32" /><polygon points="672,-160 640,-160 640,-32 672,-32" /><polygon points="32,-672 32,-672 0,-672 0,-672 32,-672" /><polygon points="352,-672 352,-672 384,-672 384,-672 352,-672" /><polygon points="256,-672 128,-672 32,-672 32,-672 224,-672 256,-672" /><polygon points="256,-672 256,-800 256,-800 256,-672" /><polygon points="352,-672 352,-800 256,-800 256,-672" /><polygon points="576,-32 576,-32 576,0 576,0 576,0" /><polygon points="608,-32 640,-32 640,-32 576,-32 576,-32 576,-32" /><polygon points="640,-32 672,-32 672,-32 672,-32 672,-32 640,-32" /><polygon points="672,-32 704,-32 704,-32 672,-32" /><polygon points="640,-160 640,-160 672,-160 672,-160" /><polygon points="608,-192 608,-256 608,-288 640,-288 640,-160 632,-160 624,-160 608,-160" /><polygon points="672,-160 672,-160 672,-32 672,-32" /><polygon points="640,-160 672,-160 672,-32 640,-32" /><polygon points="480,-416 544,-416 544,-416 448,-416 448,-416" /><polygon points="544,-416 544,-416 544,-416 576,-416 576,-416 544,-416" /><polygon points="544,-416 480,-416 480,-412 544,-412" /><polygon points="512,352 512,352 512,288 512,288" /><polygon points="864,96 864,96 864,32 864,32 864,96" /><polygon points="688,96 688,96 640,96 640,96 688,96" /><polygon points="576,32 576,32 576,96 576,96 576,32" /><polygon points="384,544 384,650.6667 384,608 384,544" /><polygon points="448,544 448,650.6667 384,650.6667 384,544" /><polygon points="192,544 192,650.6667 192,608 192,544" /><polygon points="256,544 256,650.6667 192,650.6667 192,544" /><polygon points="672,-160 672,-160 672,-32 672,-32" /><polygon points="704,-160 672,-160 672,-32 704,-32" /><polygon points="672,-160 672,-160 704,-160 704,-160" /><polygon points="704,-160 704,-160 704,-32 704,-32" /><polygon points="672,-160 704,-160 704,-32 672,-32" /><polygon points="704,-32 704,-32 704,-32 704,-32 704,-32 672,-32 672,-32 704,-32" /><polygon points="832,-32 832,-32 736,-32 736,-32" /><polygon points="704,-160 704,-160 704,-32 704,-32" /><polygon points="736,-160 704,-160 704,-32 736,-32" /><polygon points="512,416 512,416 512,352 512,352 512,352" /><polygon points="640,96 640,96 576,96 576,96 576,96 640,96" /><polygon points="864,96 864,96 784,96 688,96 688,96" /><polygon points="704,288 704,288 704,416 704,416" /><polygon points="640,224 640,224 704,288 704,288" /><polygon points="1184,32 1184,32 1120,32 1120,32" /><polygon points="1056,32 1056,32 1088,32 1088,32" /><polygon points="736,-32 832,-32 832,-32 768,-32 736,-32 704,-32 704,-32" /><polygon points="704,-160 704,-160 736,-160 736,-160" /><polygon points="736,-160 736,-160 736,-32 736,-32" /><polygon points="704,-160 736,-160 736,-32 704,-32" /><polygon points="192,-256 64,-256 64,-128" /><polygon points="896,32 896,32 928,32 928,32" /><polygon points="928,32 928,32 1056,32 1056,32 1056,32 928,32" /><polygon points="928,32 928,32 928,32 896,32 896,32" /><polygon points="512,416 512,416 512,352 512,352" /><polygon points="784,32 864,32 864,96 640,96 640,32" /><polygon points="576,224 640,224 640,96 576,96" /><polygon points="560,224 576,224 576,96 576,32 560,32" /><polygon points="704,416 640,416 640,352 640,224 704,288" /><polygon points="640,352 640,416 512,416 512,352" /><polygon points="864,32 864,32 864,96 864,96" /><polygon points="864,96 864,96 688,96 640,96 640,96" /><polygon points="576,32 576,32 576,0 576,0" /><polygon points="640,416 704,416 704,416 512,416 512,416" /><polygon points="704,288 704,288 704,416 704,416" /><polygon points="640,224 640,224 704,288 704,288" /><polygon points="384,288 384,288 352,288 256,288 256,288 256,288" /><polygon points="512,224 512,224 456,224 448,224 448,224" /><polygon points="512,224 448,224 448,224 512,224" /><polygon points="256,200 256,128 256,128 256,200" /><polygon points="256,200 256,200 256,224 256,224 256,216 256,200" /><polygon points="384,200 384,128 256,128 256,200" /><polygon points="256,343.5854 256,544 256,544 256,370.468" /><polygon points="448,343.5854 448,544 448,544 448,370.468" /><polygon points="736,-160 736,-160 736,-32 736,-32" /><polygon points="768,-160 736,-160 736,-32 768,-32" /><polygon points="704,-32 704,-32 736,-32 736,-32" /><polygon points="768,-32 768,-32 832,-32 832,-32 800,-32 768,-32" /><polygon points="736,-160 736,-160 768,-160 768,-160" /><polygon points="768,-160 768,-160 768,-32 768,-32" /><polygon points="736,-160 768,-160 768,-32 736,-32" /><polygon points="144,-496 144,-496 160,-496 184,-496 184,-496" /><polygon points="144,-536 144,-536 144,-512 144,-512" /><polygon points="144,-576 144,-592 144,-592 144,-576 144,-552 144,-552" /><polygon points="224,-520 224,-536 224,-536 224,-520" /><polygon points="224,-568 224,-568 224,-552 224,-552" /><polygon points="240,-592 224,-592 224,-576 224,-568 224,-552 240,-552" /><polygon points="224,-520 224,-512 224,-496 240,-496 240,-536 224,-536" /><polygon points="216,-576 200,-576 200,-576 216,-576" /><polygon points="200,-592 200,-576 216,-576 224,-576 224,-592" /><polygon points="144,-592 144,-576 160,-576 168,-576 184,-576 184,-592" /><polygon points="168,-512 184,-512 184,-512 168,-512" /><polygon points="224,-576 216,-576 200,-560 208,-560" /><polygon points="208,-528 200,-528 216,-512 224,-512" /><polygon points="184,-528 176,-528 160,-512 168,-512" /><polygon points="176,-528 184,-528 200,-528 208,-528 208,-536 208,-552 208,-560 200,-560 192,-552 184,-544 176,-536" /><polygon points="160,-576 160,-568 176,-552 184,-544 192,-552 184,-560 168,-576" /><polygon points="200,-560 184,-560 192,-552" /><polygon points="176,-552 176,-536 184,-544" /><polygon points="160,-520 160,-512 176,-528 176,-536" /><polygon points="208,-536 208,-528 224,-512 224,-520" /><polygon points="208,-560 208,-552 224,-568 224,-576" /><polygon points="208,-552 208,-536 208,-536 208,-552" /><polygon points="200,-528 184,-528 184,-528 200,-528" /><polygon points="168,-512 168,-512 184,-528 184,-528" /><polygon points="160,-568 160,-568 168,-560 176,-552 176,-552" /><polygon points="184,-560 200,-560 200,-560 184,-560" /><polygon points="176,-536 176,-552 176,-552 176,-536" /><polygon points="144,-576 144,-552 160,-552 160,-568 160,-576" /><polygon points="160,-520 160,-536 144,-536 144,-512 160,-512" /><polygon points="224,-512 216,-512 200,-512 200,-496 224,-496" /><polygon points="168,-512 160,-512 144,-512 144,-496 184,-496 184,-512" /><polygon points="384,320 384,288 384,288 384,320 384,370.468 384,343.5854" /><polygon points="384,320 384,343.5854 384,544 448,544 448,343.5854 448,320" /><polygon points="192,320 192,288 192,288 192,320 192,370.468 192,343.5854" /><polygon points="192,320 192,343.5854 192,544 256,544 256,343.5854 256,320" /><polygon points="200,-592 184,-592 184,-576 200,-576" /><polygon points="200,-512 184,-512 184,-496 200,-496" /><polygon points="240,-552 224,-552 224,-536 240,-536" /><polygon points="160,-552 144,-552 144,-536 160,-536" /><polygon points="768,-32 768,-32 768,-32 768,-32 768,-32 768,-32 768,-32 704,-32 704,-32 704,-32 736,-32 768,-32" /><polygon points="800,-32 832,-32 832,-32 800,-32" /><polygon points="800,-160 768,-160 768,-32 800,-32" /><polygon points="352,-800 352,-800 256,-800 256,-800" /><polygon points="352,-800 352,-800 352,-800 368,-800 368,-800 352,-800" /><polygon points="128,-800 128,-800 128,-800 144,-800 144,-800 128,-800" /><polygon points="128,-800 32,-800 32,-672 128,-672" /><polygon points="-240,336 -240,336 -256,320 -256,320" /><polygon points="1088,32 1088,32 1120,32 1120,32 1088,32" /><polygon points="-224,288 -224,288 -208,304 -208,304" /><polygon points="-16,368 -16,368 -48,320 -48,320" /><polygon points="576,-32 576,-32 576,0 576,0" /><polygon points="768,-32 800,-32 832,-32 832,-32 800,-32 768,-32" /><polygon points="832,-288 768,-288 768,-288 832,-288" /><polygon points="768,-288 832,-288 832,-288 768,-288" /><polygon points="768,-160 768,-160 800,-160 800,-160" /><polygon points="832,-288 832,-288 832,-288 832,-288 832,-256 832,-256 832,-256 832,-256 832,-288" /><polygon points="768,-32 768,-32 768,-160 768,-160" /><polygon points="800,-160 800,-160 800,-32 800,-32" /><polygon points="800,-32 768,-32 768,-160 800,-160" /><polygon points="544,-412 544,-412 480,-412 480,-412" /><polygon points="480,-416 480,-416 448,-416 448,-416" /><polygon points="480,-416 448,-416 448,-416 544,-416 544,-416" /><polygon points="544,-412 480,-412 480,-416 544,-416" /><polygon points="544,-416 544,-416 544,-412 544,-412" /><polygon points="480,-412 480,-412 480,-416 480,-416" /><polygon points="224,-496 240,-496 240,-496 224,-496 200,-496 200,-496" /><polygon points="240,-512 240,-536 240,-536 240,-496 240,-496" /><polygon points="240,-576 240,-592 240,-592 240,-552 240,-552" /><polygon points="144,-512 144,-512 144,-496 144,-496 144,-496 144,-512" /><polygon points="208,-560 200,-560 216,-576 224,-576" /><polygon points="224,-568 224,-576 240,-576 240,-552 224,-552" /><polygon points="208,-560 224,-576 224,-568 208,-552" /><polygon points="216,-576 200,-576 200,-592 224,-592 224,-576" /><polygon points="168,-560 160,-568 160,-576 168,-576 184,-560" /><polygon points="144,-576 160,-576 160,-568 160,-552 144,-552" /><polygon points="168,-576 160,-576 160,-592 184,-592 184,-576" /><polygon points="240,-512 224,-512 224,-520 224,-536 240,-536" /><polygon points="224,-512 216,-512 200,-528 208,-528" /><polygon points="208,-560 208,-552 208,-536 208,-528 200,-528 184,-528 184,-544 200,-560" /><polygon points="184,-560 200,-560 184,-544 176,-552 168,-560" /><polygon points="208,-528 208,-536 224,-520 224,-512" /><polygon points="216,-512 224,-512 224,-496 200,-496 200,-512" /><polygon points="168,-512 160,-512 176,-528 184,-528" /><polygon points="184,-544 184,-528 176,-528 176,-536 176,-552" /><polygon points="144,-512 144,-536 160,-536 160,-520 160,-512" /><polygon points="160,-512 160,-520 176,-536 176,-528" /><polygon points="160,-496 160,-512 168,-512 184,-512 184,-496" /><polygon points="224,-592 200,-592 200,-592 224,-592 240,-592 240,-592" /><polygon points="160,-592 144,-592 144,-592 184,-592 184,-592" /><polygon points="240,-552 240,-552 224,-552 224,-552" /><polygon points="224,-536 224,-536 240,-536 240,-536" /><polygon points="184,-576 184,-576 168,-576 168,-576" /><polygon points="184,-592 184,-592 184,-576 184,-576" /><polygon points="200,-576 200,-576 200,-592 200,-592" /><polygon points="200,-512 200,-512 216,-512 216,-512" /><polygon points="160,-536 160,-536 160,-520 160,-520" /><polygon points="160,-568 160,-568 160,-552 160,-552" /><polygon points="200,-560 200,-560 216,-576 216,-576" /><polygon points="160,-520 160,-520 176,-536 176,-536" /><polygon points="216,-512 216,-512 200,-528 200,-528" /><polygon points="208,-536 208,-536 224,-520 224,-520" /><polygon points="224,-568 224,-568 208,-552 208,-552" /><polygon points="168,-576 168,-576 184,-560 184,-560" /><polygon points="144,-536 144,-536 160,-536 160,-536" /><polygon points="160,-552 160,-552 144,-552 144,-552" /><polygon points="184,-512 184,-512 184,-496 184,-496" /><polygon points="200,-496 200,-496 200,-512 200,-512" /><polygon points="48,304 64,288 64,288 -16,368 -16,368 -16,368" /><polygon points="512,288 512,288 512,288 512,352 512,352 512,352 512,352 512,288" /><polygon points="784,32 832,32 864,32 864,32 784,32" /><polygon points="864,32 864,32 896,32 896,32 896,32 864,32" /><polygon points="560,224 560,224 512,224 512,224 512,224 560,224" /><polygon points="560,224 576,224 576,224 560,224" /><polygon points="576,128 560,128 560,32 576,32" /><polygon points="576,224 560,224 560,192 576,192" /><polygon points="576,192 560,192 560,160 576,160" /><polygon points="560,32 560,32 576,32 576,32" /><polygon points="576,0 576,32 576,32 576,0" /><polygon points="560,128 560,192 560,224 560,224 560,32 560,32" /><polygon points="128,288 128,288 184,288 192,288 192,288 192,288 128,288" /><polygon points="192,288 256,288 256,288 256,288 192,288" /><polygon points="448,288 512,288 512,288 512,288 384,288 384,288 384,288" /><polygon points="448,288 384,288 384,320 448,320" /><polygon points="256,288 192,288 192,320 256,320" /><polygon points="80,336 48,304 -16,368 16,400" /><polygon points="80,336 80,336 48,304 48,304" /><polygon points="-128,96 -128,96 -128,96 -64,96 -64,96 -128,96" /><polygon points="-128,384 -128,384 -32,384 -32,384" /><polygon points="-32,384 -16,368 -48,320 -112,320 -128,344 -128,384" /><polygon points="-112,320 -112,320 -128,344 -128,344" /><polygon points="-128,344 -144,368 -128,384" /><polygon points="-208,176 -144,112 -176,80 -240,144" /><polygon points="-176,80 -176,80 -240,144 -240,144" /><polygon points="-208,176 -208,176 -224,192 -224,192" /><polygon points="-176,80 -144,112 -144,112 -176,80" /><polygon points="-160,64 -176,80 -176,80 -176,80 -160,64" /><polygon points="-240,336 -176,400 -144,368 -208,304" /><polygon points="-208,304 -208,304 -240,336 -240,336" /><polygon points="768,-32 800,-32 800,-32 768,-32" /><polygon points="832,-160 800,-160 800,-32 832,-32" /><polygon points="832,-160 832,-32 832,-32 832,-32 832,-32 832,-32 832,-32 832,-32 832,-160" /><polygon points="-16,368 -16,368 -48,320 -48,320" /><polygon points="768,-32 800,-32 832,-32 832,-32 832,-32 768,-32" /><polygon points="800,-160 800,-160 832,-160 832,-160" /><polygon points="800,-32 800,-32 800,-160 800,-160" /><polygon points="832,-32 800,-32 800,-160 832,-160" /><polygon points="832,32 864,32 864,32 832,32" /><polygon points="832,32 832,32 784,32 784,32 832,32" /><polygon points="-112,320 -112,320 -48,320 -48,320" /><polygon points="-112,320 -112,320 -128,344 -128,344" /><polygon points="-128,344 -144,368 -144,368 -128,344" /><polygon points="384,370.468 384,544 384,544 384,343.5854" /><polygon points="192,370.468 192,544 192,544 192,343.5854" /><polygon points="832,-288 768,-288 768,-288 832,-288" /><polygon points="832,-256 832,-192 832,-192 832,-256" /><polygon points="832,-192 832,-192 832,-192 832,-160 832,-160 832,-160 832,-160 832,-160 832,-160 832,-192" /><polygon points="832,-32 832,-32 832,-160 832,-160" /><polygon points="896,32 896,32 864,32 832,32 832,32" /><polygon points="560,160 560,192 560,128" /><polygon points="576,160 560,160 560,128 576,128" /><polygon points="224,-672 32,-672 0,-672 0,-672 64,-672 96,-672 160,-672 224,-672" /><polygon points="352,-672 352,-672 256,-672 256,-672" /><polygon points="352,-800 352,-800 256,-800 256,-800" /><polygon points="32,-800 32,-800 128,-800 128,-800" /><polygon points="0,-672 0,-672 -64,-608 -64,-608" /><polygon points="1120,-192 1120,-288 1120,-288 1120,-160 1120,-160" /><polygon points="1120,-96 1120,-160 1120,-160 1120,-160 1120,-96" /><polygon points="448,-608 448,-608 384,-672 384,-672" /><polygon points="1056,0 1088,32 1056,32" /><polygon points="1120,-352 1120,-288 1120,-192 1056,-192 1056,-416" /><polygon points="1120,-192 1120,-160 1120,-96 1056,-32 1056,-192" /><polygon points="-224,288 -224,288 -208,304 -144,368 -144,368 -144,368" /><polygon points="-64,-512 -64,-288 -64,-288 -64,-448 -64,-512" /><polygon points="576,-32 576,-32 576,-32 576,-32 576,-32 576,0 576,0" /><polygon points="832,-32 864,-32 928,-32 928,-32 896,-32 768,-32 768,-32" /><polygon points="992,-416 864,-416 768,-416 768,-416 768,-416 960,-416 992,-416" /><polygon points="864,-192 864,-256 864,-288 864,-416 992,-416 1056,-416 1056,-192" /><polygon points="1056,-32 928,-32 864,-32 864,-160 864,-192 1056,-192" /><polygon points="832,-288 864,-288 864,-288 832,-288" /><polygon points="768,-288 768,-288 768,-288 768,-288 704,-288 704,-288 704,-288 736,-288 768,-288" /><polygon points="640,-288 640,-288 672,-288 704,-288 704,-288 704,-288 704,-288 704,-288" /><polygon points="608,-288 640,-288 704,-288 704,-288 640,-288 608,-288" /><polygon points="832,-288 768,-288 768,-416 864,-416 864,-288" /><polygon points="608,-288 608,-288 608,-256 608,-256" /><polygon points="832,-192 832,-192 832,-256 832,-256" /><polygon points="864,-192 832,-192 832,-256 864,-256" /><polygon points="864,-256 832,-256 832,-256 864,-256" /><polygon points="576,-256 608,-256 608,-256 576,-256" /><polygon points="864,-32 832,-32 832,-160 864,-160" /><polygon points="832,-32 832,-32 832,-160 832,-160" /><polygon points="928,0 928,-32 1056,-32 1056,0" /><polygon points="448,-608 448,-608 448,-448 448,-416 448,-416" /><polygon points="448,-288 448,-288 448,-256 448,-256" /><polygon points="416,-256 320,-256 192,-256 192,-256 256,-256 416,-256" /><polygon points="416,-256 448,-256 448,-256 336,-256 320,-256 288,-256 288,-256 320,-256" /><polygon points="320,-256 288,-256 192,-256 192,-256" /><polygon points="160,-288 -64,-288 -64,-288 0,-288 44,-288 64,-288 160,-288" /><polygon points="384,-288 160,-288 160,-288 288,-288 320,-288 336,-288 384,-288" /><polygon points="448,-288 448,-288 384,-288 384,-288" /><polygon points="192,-256 192,-256 64,-128 64,-128" /><polygon points="64,-128 64,-128 64,-32 64,0 64,0" /><polygon points="-16,368 64,288 64,288 64,288 64,288 -16,368" /><polygon points="928,0 896,32 896,32 896,32 896,32 928,0" /><polygon points="928,0 1056,0 1056,32 928,32 896,32" /><polygon points="576,160 576,160 576,224 576,224 576,224 576,192 576,160" /><polygon points="576,0 576,160 576,160 576,128 576,32 576,0" /><polygon points="384,128 384,200 384,200 384,128" /><polygon points="384,128 384,128 256,128 256,128" /><polygon points="64,0 64,96 64,96 64,0" /><polygon points="64,96 64,96 96,160 96,160" /><polygon points="96,160 96,160 128,224 128,224" /><polygon points="-16,368 -32,384 -128,384 -128,344 -112,320 -48,320" /><polygon points="-112,320 -112,320 -48,320 -48,320" /><polygon points="0,416 0,416 0,416 -32,416 -96,416 -96,416" /><polygon points="0,416 0,416 9.6,406.4 9.6,406.4 0,416" /><polygon points="-128,344 -144,368 -144,368 -128,344" /><polygon points="-128,384 -144,368 -128,344" /><polygon points="-96,416 -160,416 -160,416 -96,416" /><polygon points="-64,-608 -64,-608 -64,-512 -64,-512" /><polygon points="768,-416 768,-416 768,-288 768,-288" /><polygon points="32,-800 32,-800 128,-800 128,-800" /><polygon points="960,-416 768,-416 736,-416 736,-416 736,-416 928,-416 960,-416" /><polygon points="1056,-416 1056,-416 992,-416 992,-416" /><polygon points="768,-288 768,-288 736,-288 736,-288" /><polygon points="768,-416 768,-416 768,-288 768,-288" /><polygon points="736,-416 768,-416 768,-288 736,-288" /><polygon points="256,224 256,224 184,224 184,224" /><polygon points="448,224 456,224 456,224 384,224 384,224" /><polygon points="256,200 256,128 256,128 256,224 256,224" /><polygon points="384,224 384,200 384,200 384,200 384,216 384,224" /><polygon points="384,128 384,128 256,128 256,128" /><polygon points="256,320 256,288 256,288 256,320 256,343.5854 256,370.468" /><polygon points="448,320 448,288 448,288 448,320 448,343.5854 448,370.468" /><polygon points="448,320 448,370.468 448,544 384,544 384,370.468 384,320" /><polygon points="256,320 256,370.468 256,544 192,544 192,370.468 192,320" /><polygon points="128,224 128,224 128,224 96,160 96,160 96,160 96,160 128,224" /><polygon points="704,-288 736,-288 736,-288 736,-288 704,-288" /><polygon points="736,-416 736,-416 736,-288 736,-288" /><polygon points="1056,-416 1056,-416 992,-416 960,-416 960,-416" /><polygon points="928,-416 736,-416 704,-416 704,-416 704,-416 896,-416 928,-416" /><polygon points="736,-288 736,-288 704,-288 704,-288" /><polygon points="736,-416 736,-416 736,-288 736,-288" /><polygon points="704,-416 736,-416 736,-288 704,-288" /><polygon points="560,224 576,224 576,224 576,224 512,224 512,224 512,224 512,224" /><polygon points="264,288 376,288 384,288 384,288 384,288 256,288 256,288 256,288" /><polygon points="448,288 456,288 512,288 512,288 448,288" /><polygon points="456,288 456,288 512,288 512,288" /><polygon points="184,224 184,224 128,224 128,224 184,224" /><polygon points="512,224 512,224 456,224 456,224 456,224 512,224" /><polygon points="376,224 376,224 264,224 264,224" /><polygon points="384,128 384,224 376,224 264,224 256,224 256,128" /><polygon points="384,128 384,128 384,200 384,224 384,224" /><polygon points="448,288 384,288 376,288 376,224 384,224 456,224 456,288" /><polygon points="256,288 192,288 184,288 184,224 256,224 264,224 264,288" /><polygon points="184,288 184,288 184,224 184,224" /><polygon points="384,288 448,288 448,320 384,320" /><polygon points="192,288 256,288 256,320 192,320" /><polygon points="704,-416 704,-416 704,-288 704,-288" /><polygon points="896,-416 704,-416 672,-416 672,-416 672,-416 864,-416 896,-416" /><polygon points="1056,-416 1056,-416 960,-416 928,-416 928,-416" /><polygon points="704,-288 704,-288 672,-288 672,-288" /><polygon points="704,-288 672,-288 672,-416 704,-416" /><polygon points="704,-416 704,-416 704,-288 704,-288" /><polygon points="640,-288 672,-288 672,-288 672,-288 640,-288" /><polygon points="672,-416 672,-416 672,-288 672,-288" /><polygon points="240,-672 384,-672 384,-672 352,-672 256,-672 224,-672 224,-672" /><polygon points="0,-672 0,-672 -64,-608 -64,-608" /><polygon points="-256,320 -256,320 -160,416 -160,416 -160,416 -176,400 -240,336 -256,320" /><polygon points="448,-608 384,-672 240,-672 240,-608" /><polygon points="224,-672 160,-672 160,-608 224,-608" /><polygon points="128,-608 80,-656 32,-608" /><polygon points="224,-672 224,-608 240,-608 240,-672" /><polygon points="160,-608 160,-672 96,-672 80,-656 128,-608" /><polygon points="448,-608 448,-608 384,-672 384,-672" /><polygon points="-224,288 -224,288 -144,368 -128,384 -128,384" /><polygon points="576,-416 576,-256 576,-256 576,-416" /><polygon points="576,-192 576,-160 576,-160 576,-160 576,-160 576,-192" /><polygon points="640,-32 608,-32 576,-32 576,-32 640,-32" /><polygon points="864,-416 672,-416 640,-416 640,-416 640,-416 832,-416 864,-416" /><polygon points="1056,-416 1056,-416 928,-416 896,-416 896,-416" /><polygon points="672,-288 672,-288 640,-288 640,-288" /><polygon points="608,-288 640,-288 640,-288 640,-288 640,-288 608,-288" /><polygon points="672,-416 672,-416 672,-288 672,-288" /><polygon points="672,-288 640,-288 640,-416 672,-416" /><polygon points="576,-160 608,-160 608,-160 576,-160" /><polygon points="608,-256 608,-288 608,-288 608,-256" /><polygon points="608,-160 608,-160 608,-192 608,-192 608,-192 608,-160" /><polygon points="608,-256 576,-256 576,-192 608,-192" /><polygon points="608,-192 576,-192 576,-192 608,-192" /><polygon points="576,-256 608,-256 608,-256 576,-256" /><polygon points="608,-160 576,-160 576,-32 608,-32" /><polygon points="448,-256 448,-288 448,-288 448,-256" /><polygon points="480,-416 448,-416 448,-288 448,-256 480,-224" /><polygon points="576,-256 576,-416 480,-416 480,-224 480,-192 576,-192" /><polygon points="480,-192 480,-128 576,-32 576,-160 576,-192" /><polygon points="480,-192 480,-224 480,-224 480,-128 480,-128" /><polygon points="448,-416 480,-416 576,-416 576,-416 544,-416 448,-416" /><polygon points="224,-576 224,-512 232,-512 232,-576" /><polygon points="224,-512 160,-512 160,-504 224,-504" /><polygon points="160,-592 160,-608 128,-608 144,-592" /><polygon points="224,-608 224,-592 240,-592 240,-608" /><polygon points="144,-512 144,-576 144,-592 128,-608 32,-608 -64,-512 -64,-448 96,-448 144,-496" /><polygon points="160,-448 160,-496 144,-496 96,-448" /><polygon points="224,-496 224,-504 160,-504 160,-496 160,-448 224,-448" /><polygon points="288,-448 240,-496 224,-496 224,-448" /><polygon points="232,-576 232,-512 240,-512 240,-576" /><polygon points="144,-576 144,-512 152,-512 152,-576" /><polygon points="160,-608 160,-592 160,-584 224,-584 224,-592 224,-608" /><polygon points="224,-584 160,-584 160,-576 224,-576" /><polygon points="160,-512 160,-576 152,-576 152,-512" /><polygon points="160,-448 96,-448 -64,-448 -64,-288 160,-288" /><polygon points="384,-448 288,-448 224,-448 160,-448 160,-288 384,-288" /><polygon points="448,-288 448,-416 448,-448 384,-448 384,-288" /><polygon points="384,-448 448,-448 448,-608 240,-608 240,-592 240,-576 240,-512 240,-496 288,-448" /><polygon points="160,-496 160,-496 144,-496 144,-496" /><polygon points="240,-496 240,-496 224,-496 224,-496" /><polygon points="240,-512 240,-512 240,-496 240,-496" /><polygon points="240,-592 240,-592 240,-576 240,-576" /><polygon points="144,-576 144,-576 144,-592 144,-592" /><polygon points="232,-576 240,-576 240,-576 224,-576 224,-576" /><polygon points="152,-576 160,-576 160,-576 144,-576 144,-576" /><polygon points="224,-584 224,-576 224,-576 224,-592 224,-592" /><polygon points="224,-592 224,-592 240,-592 240,-592" /><polygon points="160,-584 160,-592 160,-592 160,-576 160,-576" /><polygon points="144,-592 144,-592 160,-592 160,-592" /><polygon points="224,-504 224,-496 224,-496 224,-512 224,-512" /><polygon points="232,-512 224,-512 224,-512 240,-512 240,-512" /><polygon points="152,-512 144,-512 144,-512 160,-512 160,-512" /><polygon points="160,-504 160,-512 160,-512 160,-496 160,-496" /><polygon points="160,-288 -64,-288 -64,-288 160,-288" /><polygon points="384,-288 160,-288 160,-288 384,-288" /><polygon points="640,352 640,224 640,224 640,352" /><polygon points="640,224 640,128 640,96 640,96 640,224" /><polygon points="640,128 640,224 640,352 640,352 640,128" /><polygon points="640,96 640,96 640,32 640,32 640,96" /><polygon points="576,224 576,160 576,160 576,160 576,224" /><polygon points="376,224 376,224 376,224 264,224 264,224 264,224" /><polygon points="264,224 264,224 264,288 264,288 264,224" /><polygon points="-128,96 -128,96 -144,112 -208,176 -224,192 -224,192" /><polygon points="-224,192 -224,192 -224,192 -224,288 -224,288 -224,288 -224,288" /><polygon points="-336,320 -336,320 -384,320 -512,320 -512,320" /><polygon points="32,-608 80,-656 64,-672 0,-672 -64,-608 -64,-512" /><polygon points="96,-672 64,-672 80,-656" /><polygon points="-64,-608 -64,-608 -64,-512 -64,-512" /><polygon points="184,-576 184,-576 184,-592 184,-592" /><polygon points="184,-496 184,-496 184,-512 184,-512" /><polygon points="224,-552 224,-552 240,-552 240,-552" /><polygon points="200,-576 184,-576 184,-592 200,-592" /><polygon points="200,-592 200,-592 200,-576 200,-576" /><polygon points="184,-592 184,-592 200,-592 200,-592" /><polygon points="200,-576 200,-576 184,-576 184,-576" /><polygon points="200,-496 184,-496 184,-512 200,-512" /><polygon points="240,-536 224,-536 224,-552 240,-552" /><polygon points="224,-536 224,-536 224,-552 224,-552" /><polygon points="240,-536 240,-536 224,-536 224,-536" /><polygon points="240,-552 240,-552 240,-536 240,-536" /><polygon points="184,-512 184,-512 200,-512 200,-512" /><polygon points="200,-496 200,-496 184,-496 184,-496" /><polygon points="200,-512 200,-512 200,-496 200,-496" /><polygon points="144,-552 144,-552 160,-552 160,-552" /><polygon points="160,-536 144,-536 144,-552 160,-552" /><polygon points="160,-536 160,-536 144,-536 144,-536" /><polygon points="160,-552 160,-552 160,-536 160,-536" /><polygon points="144,-536 144,-536 144,-552 144,-552" /><polygon points="640,-288 640,-288 608,-288 608,-288" /><polygon points="640,-416 640,-416 640,-288 640,-288" /><polygon points="832,-416 640,-416 608,-416 608,-416 608,-416 800,-416 832,-416" /><polygon points="1056,-416 1056,-416 896,-416 864,-416 864,-416" /><polygon points="640,-288 640,-288 608,-288 608,-288" /><polygon points="640,-416 640,-416 640,-288 640,-288" /><polygon points="640,-288 608,-288 608,-416 640,-416" /><polygon points="480,-224 480,-224 480,-128 480,-128" /><polygon points="576,-32 576,-32 480,-128 480,-128" /><polygon points="576,-32 480,-128 480,-128 544,-64 576,-32" /><polygon points="480,-224 480,-224 448,-256 448,-256" /><polygon points="448,-256 448,-256 448,-256 416,-256 416,-256" /><polygon points="64,-128 64,-128 64,-128 192,-256 192,-256 192,-256 64,-128" /><polygon points="64,-128 64,-128 64,0 64,0" /><polygon points="-64,96 -32,96 -32,96 -64,96" /><polygon points="-32,96 -64,96 -64,96 -32,96" /><polygon points="64,0 64,96 64,96 64,0" /><polygon points="96,160 64,96 64,96 96,160" /><polygon points="64,192 64,192 64,288 64,288 64,288 64,288 64,192" /><polygon points="-32,96 64,192 64,192 -32,96" /><polygon points="-64,96 -128,96 -128,96 -64,96" /><polygon points="608,-288 608,-416 608,-416 608,-288" /><polygon points="256,-608 232,-608 152,-608 32,-608 32,-608 160,-608 176,-608 208,-608 224,-608 256,-608" /><polygon points="1056,-32 1056,0 1056,0 1056,-32" /><polygon points="1056,-32 1056,-32 1120,-96 1120,-96 1056,-32" /><polygon points="1056,0 1056,32 1088,32" /><polygon points="1056,0 1088,32 1088,32 1056,0" /><polygon points="-128,-384 -128,-256 -128,-160 -128,-160 -128,-192 -128,-256 -128,-384" /><polygon points="-128,32 -128,96 -128,96 -128,64 -128,32" /><polygon points="576,-288 576,-288 576,-256 576,-256" /><polygon points="768,-32 896,-32 896,-32 768,-32" /><polygon points="928,-32 1056,-32 1056,-32 896,-32 896,-32 896,-32" /><polygon points="1024,-416 1056,-416 1056,-416 864,-416 832,-416 832,-416" /><polygon points="800,-416 608,-416 576,-416 576,-416 640,-416 800,-416" /><polygon points="1024,-416 832,-416 800,-416 800,-416 864,-416 1024,-416" /><polygon points="864,-288 864,-288 864,-256 864,-256 864,-256 864,-256 864,-288" /><polygon points="832,-288 864,-288 864,-288 800,-288 704,-288 704,-288" /><polygon points="608,-288 640,-288 640,-288 576,-288 576,-288" /><polygon points="608,-288 576,-288 576,-416 608,-416" /><polygon points="608,-416 608,-416 608,-288 608,-288" /><polygon points="832,-160 832,-160 864,-160 864,-160 832,-160" /><polygon points="608,-256 608,-288 608,-288 608,-288 608,-288 608,-288 608,-256" /><polygon points="608,-192 608,-192 608,-256 608,-256 608,-256 608,-192" /><polygon points="832,-192 832,-192 608,-192 608,-192" /><polygon points="832,-256 832,-288 704,-288 640,-288 608,-288 608,-256" /><polygon points="832,-256 608,-256 608,-256 832,-256" /><polygon points="832,-160 832,-192 608,-192 608,-160" /><polygon points="608,-160 608,-160 608,-32 608,-32 608,-32 608,-160" /><polygon points="928,0 928,-32 928,-32 928,0" /><polygon points="1056,0 1056,-32 928,-32 928,0" /><polygon points="480,-384 480,-504 480,-512 576,-416 576,-288 480,-288" /><polygon points="576,-288 576,-256 576,-64 544,-64 480,-128 480,-224 480,-288" /><polygon points="576,-64 576,-32 544,-64" /><polygon points="448,-504 480,-504 480,-384 448,-384" /><polygon points="448,-544 480,-512 480,-504 448,-504" /><polygon points="480,-288 480,-224 448,-256 448,-384 480,-384" /><polygon points="480,-512 448,-544 448,-544 576,-416 576,-416 576,-416" /><polygon points="480,-224 480,-224 448,-256 448,-256" /><polygon points="384,-256 448,-256 448,-256 416,-256 256,-256 256,-256" /><polygon points="0,-448 160,-448 128,-384 64,-320 0,-256 -64,-256 -64,-448" /><polygon points="0,-576 0,-504 0,-448 -64,-448 -64,-512" /><polygon points="0,-576 32,-608 152,-608 152,-584 152,-504 0,-504" /><polygon points="152,-584 160,-576 160,-512 152,-504" /><polygon points="232,-504 224,-512 224,-576 232,-584" /><polygon points="160,-512 224,-512 232,-504 196,-504 188,-504 152,-504" /><polygon points="176,-480 188,-504 196,-504 208,-480" /><polygon points="208,-480 196,-504 232,-504 336,-504 336,-384 336,-304 320,-320 256,-384" /><polygon points="232,-608 232,-584 152,-584 152,-608" /><polygon points="152,-504 188,-504 176,-480 160,-448 0,-448 0,-504" /><polygon points="232,-584 224,-576 160,-576 152,-584" /><polygon points="336,-304 384,-256 256,-256 320,-320" /><polygon points="448,-256 384,-256 336,-304 336,-384 448,-384" /><polygon points="256,-608 384,-608 448,-544 448,-504 336,-504 232,-504 232,-584 232,-608" /><polygon points="336,-504 448,-504 448,-384 336,-384" /><polygon points="448,-544 384,-608 384,-608 384,-608 384,-608 448,-544" /><polygon points="160,-448 176,-480 176,-480 160,-448 128,-384 128,-384" /><polygon points="64,-320 64,-320 0,-256 0,-256 0,-256" /><polygon points="224,-512 224,-512 224,-576 224,-576" /><polygon points="224,-576 224,-576 160,-576 160,-576" /><polygon points="160,-576 160,-576 160,-512 160,-512" /><polygon points="160,-512 160,-512 224,-512 224,-512" /><polygon points="-64,-256 0,-256 0,-192" /><polygon points="64,-128 64,0 0,0 0,-32 0,-192" /><polygon points="-64,-32 -64,-256 0,-192 0,-32" /><polygon points="0,0 -64,0 -64,-32 0,-32" /><polygon points="64,-128 64,-128 64,0 64,0" /><polygon points="1056,0 928,0 896,32 1056,32" /><polygon points="0,0 64,0 64,96 -32,96 -64,96 -64,0" /><polygon points="64,96 64,160 64,192 -32,96" /><polygon points="64,288 64,192 64,160 64,160 64,208 64,272 64,288" /><polygon points="64,192 64,192 -32,96 -32,96" /><polygon points="-64,-448 -128,-448 -64,-512" /><polygon points="-64,-256 -96,-256 -128,-256 -128,-384 -128,-448 -64,-448" /><polygon points="-96,-32 -96,-96 -96,-256 -64,-256 -64,-32" /><polygon points="-64,0 -96,0 -96,-32 -64,-32" /><polygon points="-112,0 -96,-32 -96,0" /><polygon points="-128,-160 -128,-256 -96,-256 -96,-96" /><polygon points="-64,96 -128,96 -128,32 -112,0 -96,0 -64,0" /><polygon points="-96,-32 -96,-32 -96,-96 -96,-96" /><polygon points="176,-480 176,-480 208,-480 208,-480" /><polygon points="184,-384 200,-384 256,-384 256,-384 200,-384 184,-384 128,-384 128,-384" /><polygon points="128,-384 160,-448 184,-448 184,-424 184,-408 184,-384" /><polygon points="200,-384 184,-384 184,-408 200,-408" /><polygon points="184,-448 200,-448 200,-424 184,-424" /><polygon points="200,-408 200,-424 200,-448 224,-448 256,-384 200,-384" /><polygon points="224,-448 208,-480 208,-480 256,-384 256,-384" /><polygon points="1120,-288 1120,-288 1120,-160 1120,-160" /><polygon points="1120,32 1184,32 1184,32 1120,32" /><polygon points="352,-608 384,-608 384,-608 256,-608 256,-608" /><polygon points="384,-608 352,-608 352,-608 384,-608" /><polygon points="176,-608 160,-608 160,-608 176,-608" /><polygon points="224,-608 208,-608 208,-608 224,-608" /><polygon points="1120,32 1088,32 1056,32 1056,32 1120,32" /><polygon points="704,-32 672,-32 672,-32 704,-32" /><polygon points="672,-32 672,-32 672,-32 640,-32 640,-32 640,-32 672,-32" /><polygon points="704,-32 768,-32 896,-32 896,-32 672,-32 672,-32" /><polygon points="1056,32 896,32 896,32 1056,32" /><polygon points="512,352 640,352 640,352 640,352 512,352" /><polygon points="640,96 640,96 640,128 640,128" /><polygon points="640,128 640,352 640,352 640,128" /><polygon points="640,32 784,32 784,32 784,32 784,32 640,32" /><polygon points="864,32 784,32 640,32 640,32 784,32 864,32" /><polygon points="896,32 864,32 864,32 896,32" /><polygon points="784,32 864,32 896,32 896,32 832,32 784,32" /><polygon points="128,288 184,288 184,288 128,288" /><polygon points="352,288 376,288 376,288 264,288 264,288" /><polygon points="352,288 264,288 184,288 128,288 128,288 352,288" /><polygon points="128,224 184,224 264,224 264,224 264,224 224,224 192,224 128,224" /><polygon points="376,288 376,224 376,224 376,224 376,288" /><polygon points="456,224 376,224 376,288 456,288" /><polygon points="456,288 456,288 456,224 456,224" /><polygon points="184,288 264,288 264,224 184,224" /><polygon points="16,400 128,288 128,288 128,288 80,336 16,400" /><polygon points="9.6,406.4 16,400 16,400 9.6,406.4" /><polygon points="16,400 9.6,406.4 9.6,406.4 16,400" /><polygon points="0,416 0,416 -96,416 -96,416" /><polygon points="9.6,406.4 0,416 0,416 9.6,406.4" /><polygon points="-96,416 -160,416 -160,416 -96,416" /><polygon points="-512,320 -288,320 -288,320 -336,320 -512,320" /><polygon points="-288,320 -256,320 -256,320 -288,320" /><polygon points="-288,320 -512,320 -512,320 -288,320" /><polygon points="1120,-352 1120,-352 1056,-416 1056,-416 1056,-416 1056,-416 1056,-416 1056,-416 1056,-416 1056,-416" /><polygon points="1120,-352 1120,-352 1120,-320 1120,-320" /><polygon points="1120,-352 1120,-320 1120,-288 1120,-288 1120,-288 1120,-352" /><polygon points="1056,-32 1056,-32 896,-32 896,-32" /><polygon points="1056,-416 1056,-416 1024,-416 1024,-416" /><polygon points="864,-416 800,-416 640,-416 640,-416 800,-416 864,-416" /><polygon points="352,-608 352,-608 256,-608 224,-608 224,-608" /><polygon points="352,-608 352,-608 384,-608 384,-608 384,-608" /><polygon points="208,-608 208,-608 176,-608 176,-608 176,-608 208,-608" /><polygon points="160,-608 160,-608 176,-608 176,-608 176,-608" /><polygon points="208,-608 208,-608 208,-608 224,-608 224,-608" /><polygon points="160,-608 160,-608 32,-608 32,-608" /><polygon points="64,-128 64,-128 0,-192 0,-192" /><polygon points="576,-256 576,-224 576,-32 576,-32 576,-64 576,-256" /><polygon points="576,-256 576,-288 576,-288 576,-224 576,-224" /><polygon points="640,-32 608,-32 608,-32 640,-32" /><polygon points="640,-32 672,-32 672,-32 608,-32 608,-32" /><polygon points="640,-288 640,-288 704,-288 704,-288 640,-288" /><polygon points="640,-288 640,-288 576,-288 576,-288" /><polygon points="192,-256 256,-256 256,-256 256,-256 192,-256" /><polygon points="320,-320 320,-320 256,-384 256,-384 256,-384 256,-384 320,-320" /><polygon points="320,-320 320,-320 256,-256 256,-256" /><polygon points="0,-192 0,-192 0,-256 0,-256" /><polygon points="576,0 576,96 576,160 576,160 576,160 576,0" /><polygon points="96,160 64,96 64,96 64,96 96,160" /><polygon points="64,208 60,208 60,272 64,272" /><polygon points="64,208 64,160 64,160 64,192 64,208" /><polygon points="64,160 64,160 64,96 64,96" /><polygon points="176,-480 176,-480 208,-480 208,-480" /><polygon points="208,-480 208,-480 224,-448 224,-448" /><polygon points="184,-448 200,-448 224,-448 224,-448 200,-448 184,-448 160,-448 160,-448" /><polygon points="184,-408 184,-408 184,-424 184,-424" /><polygon points="200,-424 200,-424 200,-408 200,-408" /><polygon points="256,-384 224,-448 200,-448 200,-424 200,-408 200,-384" /><polygon points="184,-424 184,-424 200,-424 200,-424" /><polygon points="184,-448 184,-424 200,-424 200,-448" /><polygon points="184,-384 200,-384 200,-408 184,-408" /><polygon points="200,-408 200,-408 184,-408 184,-408" /><polygon points="128,-384 184,-384 184,-408 184,-424 184,-448 160,-448" /><polygon points="832,-256 608,-256 608,-192 832,-192" /><polygon points="864,-192 832,-192 832,-192 832,-192 864,-192" /><polygon points="864,-256 864,-256 832,-256 832,-256" /><polygon points="864,-192 864,-256 832,-256 832,-192" /><polygon points="512,224 512,224 488,224 488,224" /><polygon points="488,224 376,224 376,224 456,224 512,224 512,224" /><polygon points="208,-480 208,-480 208,-504" /><polygon points="176,-480 176,-480 176,-504" /><polygon points="1120,-352 1120,-352 1056,-416 1056,-416" /><polygon points="32,-608 32,-608 32,-608 32,-608 0,-576 -64,-512 -128,-448 -128,-448" /><polygon points="-160,416 -160,416 -256,320 -256,320" /><polygon points="1120,-320 1120,-192 1120,-96 1120,-96 1120,-160 1120,-288 1120,-320" /><polygon points="1184,32 1184,32 1120,32 1120,32" /><polygon points="32,-608 32,-608 96,-608 160,-608 160,-608 32,-608" /><polygon points="1120,-320 1120,-352 1056,-416 1056,-192 1120,-192" /><polygon points="1056,-192 1056,-32 1120,-96 1120,-192" /><polygon points="1056,-32 1056,-32 1120,-96 1120,-96" /><polygon points="-128,384 -128,384 -224,288 -224,288 -128,384" /><polygon points="-128,-448 -128,-448 -128,-384 -128,-384" /><polygon points="64,272 60,272 60,208 64,208" /><polygon points="-128,96 -32,96 0,64 -128,64" /><polygon points="0,64 -32,96 64,192 64,160 64,96 64,64" /><polygon points="-96,0 -112,0 -128,32 -128,64 0,64 64,64 64,0" /><polygon points="64,96 96,160 128,224 192,224" /><polygon points="-96,0 -96,-32 -112,0" /><polygon points="-96,-128 -96,-96 -96,-32 -96,0 64,0 64,-128" /><polygon points="-128,-192 -128,-160 -112,-128 -96,-128 64,-128 0,-192" /><polygon points="0,-192 0,-256 -128,-256 -128,-192" /><polygon points="-96,-128 -112,-128 -96,-96" /><polygon points="-128,-448 -128,-384 -128,-256 0,-256 64,-320" /><polygon points="488,224 512,224 576,224 576,160 576,96 448,224" /><polygon points="576,-224 576,-288 576,-416 544,-404 448,-368 448,-256 512,-192 576,-192" /><polygon points="512,-192 576,-128 576,-192" /><polygon points="416,-256 448,-256 448,-368 320,-320 256,-256" /><polygon points="832,-160 608,-160 608,-32 672,-32 832,-32" /><polygon points="864,-32 864,-160 832,-160 832,-32" /><polygon points="800,-416 640,-416 576,-416 576,-288 640,-288 704,-288 800,-288" /><polygon points="864,-288 864,-416 800,-416 800,-288" /><polygon points="1056,-416 864,-416 864,-288 864,-256 864,-192 1056,-192" /><polygon points="864,-192 864,-160 864,-32 896,-32 1056,-32 1056,-192" /><polygon points="416,-256 256,-256 192,-256 192,-256 416,-256" /><polygon points="208,-480 208,-480 208,-548 208,-548 208,-504" /><polygon points="576,-416 576,-416 544,-404 544,-404" /><polygon points="448,-544 384,-608 384,-608 432,-560 576,-416 576,-416" /><polygon points="264,224 448,224 448,224 416,224 224,224 224,224" /><polygon points="576,0 576,-128 576,-128 576,96 576,96" /><polygon points="512,-192 448,-256 448,-256 576,-128 576,-128" /><polygon points="576,96 576,96 448,224 448,224" /><polygon points="192,224 192,224 64,96 64,96" /><polygon points="64,-128 64,-128 0,-192 0,-192" /><polygon points="576,-224 576,-192 576,-128 576,0 576,0 576,-32 576,-224" /><polygon points="896,-32 864,-32 832,-32 672,-32 672,-32 672,-32 896,-32" /><polygon points="640,-416 640,-416 576,-416 576,-416" /><polygon points="1056,-416 1056,-416 1024,-416 864,-416 864,-416" /><polygon points="864,-256 864,-256 864,-192 864,-192" /><polygon points="864,-160 864,-192 864,-192 864,-192 864,-160" /><polygon points="832,-160 832,-160 608,-160 608,-160" /><polygon points="256,-256 256,-256 192,-256 192,-256" /><polygon points="208,-504 208,-480 208,-480" /><polygon points="176,-480 176,-480 176,-504" /><polygon points="176,-504 176,-480 208,-480 208,-504" /><polygon points="208,-480 208,-480 208,-480 224,-448 256,-384 256,-384" /><polygon points="160,-448 160,-448 160,-448 176,-480 176,-480 176,-480 176,-480" /><polygon points="128,-384 128,-384 160,-448 160,-448" /><polygon points="320,-320 320,-320 256,-256 256,-256" /><polygon points="64,-320 64,-320 128,-384 128,-384 128,-384 128,-384" /><polygon points="0,-192 0,-192 0,-256 0,-256" /><polygon points="192,-256 192,-256 64,-128 64,-128" /><polygon points="512,352 512,352 512,288 512,288" /><polygon points="640,352 640,352 512,352 512,352" /><polygon points="640,32 640,32 640,96 640,128 640,128" /><polygon points="576,160 576,160 576,96 576,96" /><polygon points="576,0 576,96 576,96 576,0" /><polygon points="512,288 512,288 456,288 376,288 352,288 352,288" /><polygon points="488,224 448,224 264,224 264,224 376,224 488,224" /><polygon points="128,288 128,288 16,400 16,400" /><polygon points="64,96 64,96 96,160 96,160" /><polygon points="60,208 60,208 64,208 64,208" /><polygon points="64,160 64,160 64,96 64,96" /><polygon points="64,272 64,272 60,272 60,272" /><polygon points="60,272 60,272 60,208 60,208" /><polygon points="64,288 64,288 64,272 64,272" /><polygon points="-112,0 -96,-32 -96,-32 -112,0 -128,32 -128,32" /><polygon points="-112,-128 -128,-160 -128,-160 -96,-96 -96,-96" /><polygon points="-128,384 -128,384 -128,384 -32,384 -32,384" /><polygon points="-32,384 -32,384 -16,368 -16,368" /><polygon points="0,416 0,416 -96,416 -96,416" /><polygon points="-96,416 -160,416 -160,416 -96,416" /><polygon points="-256,320 -256,320 -288,320 -288,320" /><polygon points="176,-548 176,-608 176,-548" /><polygon points="176,-548 176,-504 208,-504 208,-548" /><polygon points="-160,416 -160,416 -256,320 -256,320" /><polygon points="208,-608 208,-548 208,-548" /><polygon points="176,-480 176,-480 176,-504 176,-548 176,-548" /><polygon points="176,-548 176,-608 176,-608 176,-480 176,-480" /><polygon points="208,-608 176,-608 176,-548 208,-548" /><polygon points="176,-480 176,-480 160,-448 160,-448 176,-480" /><polygon points="0,416 0,416 -96,416 -96,416" /><polygon points="128,288 128,288 16,400 9.6,406.4 0,416 0,416" /><polygon points="64,192 64,288 64,288 64,272 64,208 64,192" /><polygon points="64,288 64,192 64,192 64,288" /><polygon points="-32,96 -32,96 -128,96 -128,96" /><polygon points="64,192 64,192 -32,96 -32,96" /><polygon points="-32,384 -128,384 -128,384 -32,384" /><polygon points="64,288 -32,384 -32,384 -16,368 64,288" /><polygon points="-128,96 -224,192 -224,192 -128,96" /><polygon points="-224,192 -128,96 -128,96 -128,96 -128,96 -128,96 -224,192" /><polygon points="-224,288 -224,192 -224,192 -224,288" /><polygon points="448,-256 448,-256 416,-256 416,-256" /><polygon points="192,-256 192,-256 64,-128 64,-128" /><polygon points="64,-128 64,-128 64,0 64,64 64,96 64,96" /><polygon points="224,224 192,224 192,224 224,224" /><polygon points="576,96 544,64 416,192 448,224" /><polygon points="448,-256 416,-224 544,-96 576,-128" /><polygon points="192,224 224,192 96,64 64,96" /><polygon points="576,-128 544,-96 544,64 576,96" /><polygon points="448,224 416,192 416,224" /><polygon points="-224,288 -224,288 -128,384 -128,384" /><polygon points="416,-224 416,-256 192,-256 224,-224" /><polygon points="416,-224 448,-256 416,-256" /><polygon points="224,-224 192,-256 64,-128 96,-96" /><polygon points="544,64 480,0 432,48 384,96 352,128 416,192" /><polygon points="416,-224 352,-160 384,-128 432,-80 480,-32 544,-96" /><polygon points="224,192 288,128 256,96 208,48 160,0 96,64" /><polygon points="544,-96 480,-32 480,0 544,64" /><polygon points="96,-96 64,-128 64,96 96,64" /><polygon points="416,192 352,128 288,128 224,192" /><polygon points="416,192 224,192 192,224 224,224 416,224" /><polygon points="-128,96 -32,96 -32,96 -128,96" /><polygon points="-32,96 -32,96 0,128 64,192 64,192" /><polygon points="-32,96 64,192 64,192 -32,96" /><polygon points="-128,384 -128,384 -32,384 -32,384" /><polygon points="-32,384 -32,384 64,288 64,288" /><polygon points="-224,192 -224,192 -224,288 -224,288" /><polygon points="-128,-448 32,-608 32,-608 -128,-448" /><polygon points="352,-608 352,-608 224,-608 224,-608" /><polygon points="208,-608 208,-608 208,-548 208,-480 208,-480" /><polygon points="432,-560 384,-608 352,-608 224,-608 208,-608 208,-480 256,-384 432,-384" /><polygon points="256,-384 320,-320 432,-362 432,-384" /><polygon points="544,-404 576,-416 432,-560 432,-384 432,-362" /><polygon points="208,-480 208,-480 208,-480 256,-384 256,-384" /><polygon points="544,-404 432,-362 320,-320 320,-320 448,-368 544,-404" /><polygon points="320,-320 256,-384 256,-384 320,-320" /><polygon points="96,-608 32,-608 -128,-448 -32,-384 96,-384" /><polygon points="-32,-384 64,-320 96,-352 96,-384" /><polygon points="160,-448 176,-480 176,-608 160,-608 96,-608 96,-384 128,-384" /><polygon points="96,-384 96,-352 128,-384" /><polygon points="128,-384 96,-352 64,-320 64,-320 128,-384" /><polygon points="160,-448 128,-384 128,-384 160,-448" /><polygon points="64,-320 -32,-384 -128,-448 -128,-448 64,-320" /><polygon points="384,96 432,48 432,-80 384,-128 256,-128 208,-80 208,48 256,96" /><polygon points="384,-128 352,-160 288,-160 256,-128" /><polygon points="480,0 480,-32 432,-80 432,48" /><polygon points="352,128 384,96 256,96 288,128" /><polygon points="208,-80 160,-32 160,0 208,48" /><polygon points="0,320 0,128 -32,96 -128,96 -224,192 -224,288 -192,320" /><polygon points="-128,384 -32,384 0,352 0,320 -192,320" /><polygon points="0,320 0,352 64,288 64,192 0,128" /><polygon points="-192,320 -224,288 -224,288 -128,384 -128,384" /><polygon points="352,-160 416,-224 224,-224 288,-160" /><polygon points="64,288 64,288 64,192 64,192" /><polygon points="160,-32 208,-80 256,-128 288,-160 224,-224 96,-96" /><polygon points="160,0 160,-32 96,-96 96,64" /><polygon points="-32,96 -32,96 -128,96 -128,96" /><polygon points="-128,384 -128,384 -32,384 -32,384" /><polygon points="0,352 -32,384 -32,384 64,288 64,288" /><polygon points="-128,96 -128,96 -224,192 -224,192" /><polygon points="-224,192 -224,192 -224,288 -224,288" /></g></defs><rect fill="#fff" height="1804.0" id="background" width="1996.0" x="-662.0" y="-950.0" /><use fill="none" stroke="black" stroke-miterlimit="0" stroke-width="15" xlink:href="#bsp_ref" /><use fill="white" stroke="black" stroke-width="1" xlink:href="#bsp_ref" /></svg>