<svg viewBox="-1846 -566 3300 1036" xmlns="http://www.w3.org/2000/svg" xmlns:xlink="http://www.w3.org/1999/xlink"><defs><g id="a"><path d="m-1568-64v128z"/><path d="m-1408 128h64 32-96-96z"/><path d="m-1312 128h-32-64v-32h96 32z"/><path d="m-1312-96v48 32 32 32 48h-96v-192z"/><path d="m-1312 96v-48h32v16 32z"/><path d="m-1312 16v-32h32v32z"/><path d="m-1312-48v-48h32v32 16z"/><path d="m-1504-128h96v32 192h-128l-32-32v-128z"/><path d="m-1408 96v32h-96l-32-32z"/><path d="m-1408-128h96l32 32h-32-96z"/><path d="m-1280-96-32-32z"/><path d="m-1312 128 32-32z"/><path d="m-1536 96 32 32-64-64z"/><path d="m-1280 224h-64z"/><path d="m-1344 224h-224v-96h64 96 64z"/><path d="m-1312 128h32v96h-64v-96z"/><path d="m-1344 128h-64-96-64v48h224z"/><path d="m-1408-32h-64v64h64z"/><path d="m1344 128v-64z"/><path d="m-896-480h-128-96 192z"/><path d="m-672-480h-128-96 192z"/><path d="m-1344 224h64v-48h-64-224v48z"/><path d="m-1344 176h64v48h-64-224v-48z"/><path d="m-1312 128 32-32h-32-96v32z"/><path d="m-1312 96h32l-32 32h-96v-32z"/><path d="m-1280 96v-32-16h-32v48z"/><path d="m-1280 48v16 32h-32v-48z"/><path d="m-1280-16v32h-32v-32z"/><path d="m-1280 16v-32h-32v32z"/><path d="m-992 96h32v32 96h-32-64v-128z"/><path d="m-1504-128h96v224 32h-96l-64-64v-128z"/><path d="m-1408 96v-224h-96l-64 64v128l64 64h96z"/><path d="m-1280-64v-32l-32-32v80h32z"/><path d="m-1312-128 32 32v32 16h-32z"/><path d="m-1408-128h96v80 32 32 32 48h-96z"/><path d="m-1312 48v-32-32-32-80h-96v224h96z"/><path d="m-1152-448v-32h32 96v128 32 64h-128z"/><path d="m-1024-256v32h-128v-32z"/><path d="m-960 128v-32h192l32 32z"/><path d="m-672 64v32h-32v-32z"/><path d="m-640 112v-16h64v16z"/><path d="m-672 64h-32v-144h32 32v144z"/><path d="m-736 224h-224v-96h224z"/><path d="m-512 224h-224v-96h224z"/><path d="m-288 224h-224v-96h160 64z"/><path d="m-192 128v96h-96v-96z"/><path d="m-320 96h128v32h-96-64z"/><path d="m-640 64v-144-16h64v160 32h-64z"/><path d="m-672-96h32v16h-32z"/><path d="m-576-224h-96-32v-32-32h32 64 32z"/><path d="m-672-224h96v128h-64-32z"/><path d="m-704-160v-64h32v128 16h-32z"/><path d="m-576-96h32v160h-32z"/><path d="m-512-160v32 32h-32-32v-128-64h64z"/><path d="m-544 64v-160h32v160 32h-32z"/><path d="m-320-160h-32-128-32v-128h32 32 32 96z"/><path d="m-320-128v-32-128h96 32v32 192h-128z"/><path d="m-192-64v32 128h-128v-160z"/><path d="m-800-352h-192-32v-128h128 96z"/><path d="m-576-352h-32-160-32v-128h128 96z"/><path d="m-480-480v128h-96v-128z"/><path d="m-480-288h-32-64v-64h96z"/><path d="m-448-448v96 64h-32v-64-128h32z"/><path d="m-128 96h-64v-128h64z"/><path d="m64-32v128h-64v-128z"/><path d="m224 288h-64-160v-128h64 160z"/><path d="m448 288h-64-160v-128h64 32 64 64z"/><path d="m512 160v64l-64 64v-128z"/><path d="m-128 96v-128-32-32h128v64 128 32h-128z"/><path d="m0 128v32 128h-64l-64-64v-96z"/><path d="m-64-224h160v128h-32-64-128v-64z"/><path d="m96-224h64 160v128h-32-192z"/><path d="m320-224h64v128h-64z"/><path d="m384-32v-64-128h64l64 64v160h-128z"/><path d="m512 0v160h-64-64v-64-96z"/><path d="m984 96h40v32h-40z"/><path d="m984 128h40 16 48v32l-64 64h-32-8z"/><path d="m984 64v-16h40 16 48v48h-48-16-40z"/><path d="m1040 96h48v32h-48z"/><path d="m1040-64h48v32h-48z"/><path d="m1040 16h48v32h-48z"/><path d="m984 16h40v32h-40z"/><path d="m984-64h40v32h-40z"/><path d="m984-32h40 16 48v48h-48-16-40z"/><path d="m1216 128v-64l32-32h64l32 32v64l-32 32h-64z"/><path d="m704-64v-96h224v224h-224z"/><path d="m928 64v160h-160l-64-64v-96z"/><path d="m928-160h56v96 32 48 32 16h-56z"/><path d="m984 64v32 32 96h-56v-160z"/><path d="m984-160h40l64 64v32h-48-16-40z"/><path d="m1088-96v32z"/><path d="m1312 32h-64z"/><path d="m1248 160h64z"/><path d="m1216 64v64z"/><path d="m1344 64-32-32z"/><path d="m1216 128 32 32z"/><path d="m1312 160 32-32z"/><path d="m1248 32-32 32z"/><path d="m1024 128v-32z"/><path d="m1088-96-64-64z"/><path d="m1024 16h16z"/><path d="m1024 224 64-64z"/><path d="m1024 224h-32z"/><path d="m928-160h-224z"/><path d="m704-64v128 96z"/><path d="m704 160 64 64z"/><path d="m448 288 64-64z"/><path d="m-192 224v-96z"/><path d="m-192 128v-32z"/><path d="m-192-32v-32z"/><path d="m512-160v96 32 32z"/><path d="m448-224 64 64z"/><path d="m0-96h64z"/><path d="m320-96h-32z"/><path d="m160-224h-64-160z"/><path d="m384-224h-64-160z"/><path d="m-128 224 64 64z"/><path d="m288 160h-64-160 160z"/><path d="m64 160h-64z"/><path d="m0-96v64z"/><path d="m0 160v-32-32z"/><path d="m448 288h-64z"/><path d="m-192-32h64z"/><path d="m-128 96h-64z"/><path d="m-1024-224v-32-64z"/><path d="m-320-288h-96 160 32z"/><path d="m-448-448v96z"/><path d="m-608-352h-160z"/><path d="m-704-288v32z"/><path d="m-704-160v80 144-192z"/><path d="m-512-96v-32 192z"/><path d="m-992 224h-64z"/><path d="m-512 128h-224z"/><path d="m-576 112v-16z"/><path d="m-320 96-32 32z"/><path d="m-736 128-32-32z"/><path d="m-192 224-64 64z"/><path d="m-192 224-64 64h-32v-64z"/><path d="m-960 224 64 64z"/><path d="m-1344 176h-224v48h48 144 32z"/><path d="m-1312-128 32 32z"/><path d="m-1568-64v128-64z"/><path d="m-1312 48h16 16z"/><path d="m-1280-64v16z"/><path d="m-1312-16h16 16z"/><path d="m-1408 128h96-192z"/><path d="m-1504 128-16-16-48-48z"/><path d="m-1280 96-32 32z"/><path d="m-1568 176v48z"/><path d="m-1280 224v-48z"/><path d="m-1280 224h-64z"/><path d="m-1280-96v32z"/><path d="m-1280-64v16z"/><path d="m-1280-16v32z"/><path d="m-1280 48v16z"/><path d="m-1280 64v32z"/><path d="m-1280 176v48-96z"/><path d="m-1568 176v-48 96z"/><path d="m-1408-128h96-96-96z"/><path d="m-1312 48v-32z"/><path d="m-1312-16v-32z"/><path d="m-1312-16h32z"/><path d="m-1280-48h-32z"/><path d="m-1312 48h32z"/><path d="m-1280 16h-32z"/><path d="m-1504-128-64 64z"/><path d="m-1344 224h-224z"/><path d="m-1280 176v-48h-32-32v48z"/><path d="m64 96h-64z"/><path d="m128 96h-64v-128h64z"/><path d="m64 96v-128z"/><path d="m-992 96h-64z"/><path d="m-1024-224v-96 160z"/><path d="m-1152-224h128z"/><path d="m-1152-224v-32z"/><path d="m-1024-160h-64z"/><path d="m-1024-160h-64l-64-64h128z"/><path d="m-1056 224h64-128z"/><path d="m-1056 96v128z"/><path d="m-1056 224h-64v-128h64z"/><path d="m1024-32v-32z"/><path d="m1024 48v-32z"/><path d="m1024-64h16z"/><path d="m1024 96h16z"/><path d="m64 96h64z"/><path d="m128-32h-64z"/><path d="m128 96v-128z"/><path d="m160 96h-32v-128h32z"/><path d="m-992 96h-64-64z"/><path d="m-1024-160v-160 192z"/><path d="m-1152-224 64 64h-64z"/><path d="m-1056-96h-96v-64h64 64v32z"/><path d="m-1152-160v64-128z"/><path d="m-1152-224 64 64z"/><path d="m-1120 224h128-32-160z"/><path d="m-1120 96v128z"/><path d="m-1120 224h-64v-128h64z"/><path d="m-288 288h32-192z"/><path d="m-736 288h-160l-64-64h224z"/><path d="m-512 288h-160-64v-64h224z"/><path d="m-288 288h-160-64v-64h224z"/><path d="m-1280 16v-32-32-16 32 64 16z"/><path d="m-1280-16v32z"/><path d="m-1280 48h-16v-32h16z"/><path d="m-1280-16h-16v-32h16z"/><path d="m-1296-48h-16 32z"/><path d="m-1296 16h-16 32z"/><path d="m-1296-16h-16v-32h16z"/><path d="m-1296 48h-16v-32h16z"/><path d="m-1280 48v16z"/><path d="m-1248-96v-128z"/><path d="m-1248 224v-96-32z"/><path d="m64 96h64 32z"/><path d="m128-32h32z"/><path d="m192 96h-32v-128h32z"/><path d="m160 96v-128z"/><path d="m-1024 96h-160-64z"/><path d="m-1184 96h160 32-128z"/><path d="m-1152-96h96z"/><path d="m-1184-224h32v128h-96v-128z"/><path d="m-992 224h-32z"/><path d="m-992 224h32z"/><path d="m-1184 96v128z"/><path d="m-1184 224h-64v-128h64z"/><path d="m1040 48h-16 24z"/><path d="m1040 48h-16z"/><path d="m1040-32h-16z"/><path d="m1040-32h-16 24z"/><path d="m1040-64v32z"/><path d="m1040-32h8v-32h-8z"/><path d="m1040 16h8z"/><path d="m1040 16v32z"/><path d="m1040 48h8v-32h-8z"/><path d="m1040 128h-16z"/><path d="m1040 96v32z"/><path d="m1040 128h8v-32h-8z"/><path d="m1088-64v32 48 32 48 32 32z"/><path d="m1088-64v224-32-32-48-32-48z"/><path d="m1312 160h-64l-32-32v-64l32-32h64l32 32v64z"/><path d="m1344 128v-64l-32-32h-64l-32 32v64l32 32h64z"/><path d="m1024 160h24 40l-64 64h-32-8v-64z"/><path d="m992 224h32l64-64h-40-24-40v64z"/><path d="m1040 128h8v32h-24v-32z"/><path d="m1048 160v-32h-8-16v32z"/><path d="m1024 96v-48h24v48z"/><path d="m1048 96v-48h-24v48z"/><path d="m1048-32v48h-8-16v-48z"/><path d="m1040 16h8v-48h-24v48z"/><path d="m1024 128v-32-48-32-48-32h-40v224h40z"/><path d="m984-64h40v32 48 32 48 32 32h-40z"/><path d="m1048 128v-32-48-32-48-32h40v224h-40z"/><path d="m1088-64h-40v32 48 32 48 32 32h40z"/><path d="m704-64v-96h224 56v96 224 64h-216l-64-64z"/><path d="m984 160v-224-96h-56-224v96 224l64 64h216z"/><path d="m1024-160h-40v96h40 24 40v-32z"/><path d="m984-160h40l64 64v32h-40-24-40z"/><path d="m928-160h-224z"/><path d="m1024-160 16 16 24 24 24 24z"/><path d="m704-64v224-192z"/><path d="m1024-64h24 24-24z"/><path d="m1048-32h24v-32h-24z"/><path d="m1024 224h-32z"/><path d="m1024 96h24 24-24z"/><path d="m1040 16h8 24-24-24z"/><path d="m1048 48h24v-32h-24z"/><path d="m1048 128h24v-32h-24z"/><path d="m1088 160-64 64z"/><path d="m768 224-64-64z"/><path d="m1024-64h16 8z"/><path d="m1040 128h8z"/><path d="m1024 96h16 8z"/><path d="m992 224h-8-216 160 56z"/><path d="m984-160h40-40-56z"/><path d="m704-160v96z"/><path d="m192 96h32z"/><path d="m192 96h-128 96z"/><path d="m192 96v-128z"/><path d="m224 96h-32v-128h32z"/><path d="m-1248-224h64z"/><path d="m-1280 224v-48h-64v48z"/><path d="m-1664-160v64z"/><path d="m-1600 224-64-64z"/><path d="m-1344 224h64-96z"/><path d="m-1664-160 64-64z"/><path d="m-1376-224h-32-160-32 192z"/><path d="m-1280-96-32-32-32-32-64-64h32 96 32v128z"/><path d="m-1344-128h32-96-96z"/><path d="m-1408-224 64 64v32h-160-64v-96z"/><path d="m-1344-160 32 32h-32z"/><path d="m-1504-128-64 64z"/><path d="m-1280 48v-16z"/><path d="m-1280 32h8z"/><path d="m-1280 32v-64h8v64z"/><path d="m-1272-32h-8z"/><path d="m-1280 64v-16z"/><path d="m-1280 48v16z"/><path d="m-1280 96h32v32h-32z"/><path d="m-1248 128v96h-32v-96z"/><path d="m-1568 64 48 48v16 96h-48z"/><path d="m-1504 128h-16v-16z"/><path d="m-1280 224h-64-32-144v-96h16 192 32z"/><path d="m-1280 96v32h-32z"/><path d="m-1568-128h64l-64 64z"/><path d="m-1600-224h32v96 64 64h-32z"/><path d="m-1568 0v64 160h-32v-224z"/><path d="m-1664-32v-64-64l64-64v224h-64z"/><path d="m-1600 0v224l-64-64v-64-64-32z"/><path d="m-1344 224h-32-144-48z"/><path d="m-1408 32h-64v-64h64z"/><path d="m-1408 32h-64z"/><path d="m-1472 32v-64z"/><path d="m-1472-32h64z"/><path d="m-1408-32v64z"/><path d="m192 96h32 32z"/><path d="m192-32h32z"/><path d="m224 96v-128z"/><path d="m256 96h-32v-128h32z"/><path d="m1088-64v-32z"/><path d="m704-32v192-96z"/><path d="m704-160v96z"/><path d="m1072-32h-24 24 16z"/><path d="m1072-32h-24-24 24z"/><path d="m1072-64v32h16v-32z"/><path d="m1048-64h24v32h-24-24v-32z"/><path d="m1072 48h-24 24 16z"/><path d="m1072 48h-24-24 24z"/><path d="m1072 16v32h16v-32z"/><path d="m1048 16h24v32h-24-24v-32z"/><path d="m1072 128h-24 24 16z"/><path d="m1048 128h24-24-8-16z"/><path d="m1048 96h24v32h-24-24v-32z"/><path d="m1072 96v32h16v-32z"/><path d="m192 96h64 32z"/><path d="m192-32h64-32z"/><path d="m256 96v-128z"/><path d="m288 96h-32v-128h32z"/><path d="m-640 96h64z"/><path d="m-576 96h-64z"/><path d="m-672 64v32z"/><path d="m-672 64h32z"/><path d="m-640 64h64 32-128z"/><path d="m-576 64h32z"/><path d="m-576 64h-64v32h64z"/><path d="m-576 96v-32z"/><path d="m-640 64v32z"/><path d="m-640 112v-16z"/><path d="m-576 96h-64v16h64z"/><path d="m-640 112h64z"/><path d="m192 96h96 32-96z"/><path d="m192-32h96-32z"/><path d="m288 96v-128z"/><path d="m320 96h-32v-128h32z"/><path d="m-1120-480h-32z"/><path d="m-448-480h-32z"/><path d="m-480-480h-96-96z"/><path d="m-928-480h-192-32z"/><path d="m-704-480h-192-32z"/><path d="m-480-480h-192-32z"/><path d="m1088 224v-64 32 32 48 16z"/><path d="m1088 128v32z"/><path d="m1088 48v48z"/><path d="m1088-32v48z"/><path d="m1088 16v-48-32-32 64 80z"/><path d="m1088 160h8z"/><path d="m1096 96h-8z"/><path d="m1088 128v-32h8v64h-8z"/><path d="m928 352h96-40-24-96z"/><path d="m640-160-64 64z"/><path d="m1088 288-64 64z"/><path d="m704-32h38.688 7.5104z"/><path d="m1072-32v-32h16v32z"/><path d="m1072-64h-24 24 16z"/><path d="m704-160h160 64v128h-185.312-38.688z"/><path d="m992 224h-64-160 216z"/><path d="m1024 224 64-64v64z"/><path d="m1072 128v-32h16v32z"/><path d="m1072 48v-32h16v32z"/><path d="m1072 96h-24 24 16z"/><path d="m1072 16h-24 24 16z"/><path d="m704 224v-64l64 64z"/><path d="m928 352h-64-160v-128h64 160z"/><path d="m992 224h32 64v64l-64 64h-96v-128z"/><path d="m576-32v-32-32l64-64h64v128 96h-128z"/><path d="m704 64v96 64h-128v-96-32-32z"/><path d="m704 352h-64l-64-64v-64h128z"/><path d="m544-32h32v96 32h-32z"/><path d="m448 288 64-64z"/><path d="m-192-256v-32z"/><path d="m-192-256v-32 64z"/><path d="m-192-224v160-192z"/><path d="m-128 128v96z"/><path d="m-128 96v32z"/><path d="m-128-64v32z"/><path d="m-128 0v96 32 96z"/><path d="m-128-160v64 32z"/><path d="m-64-224-64 64z"/><path d="m512 0v96 32 96-64z"/><path d="m512-160v96z"/><path d="m512 128v96z"/><path d="m512 96v-96-32h32v128z"/><path d="m448-224 64 64z"/><path d="m288-96h32 64-160z"/><path d="m384-96h-64z"/><path d="m288-96h-64-160 32z"/><path d="m160-224h-224z"/><path d="m384-224h-224z"/><path d="m448-224h-64z"/><path d="m-128 224 64 64z"/><path d="m320 160h-32z"/><path d="m320 160h64z"/><path d="m224 160h-160-64z"/><path d="m384-64v-32 64z"/><path d="m384 96v-128z"/><path d="m384 128v-32 64z"/><path d="m384 96v-128 32z"/><path d="m416-64h96z"/><path d="m384-64h32l-32-32z"/><path d="m384-96 32 32z"/><path d="m416-64h-32v32 128 32h32 96v-32-96-32-32z"/><path d="m384 128v32l32-32z"/><path d="m416 128-32 32z"/><path d="m0-96v64z"/><path d="m320 96h64-160z"/><path d="m224-32h-32-128-64z"/><path d="m192-32h32 96-32z"/><path d="m64-32h128-32-32z"/><path d="m0-32h64z"/><path d="m384 96h-64v-128h64z"/><path d="m320 96v-128z"/><path d="m448 288h-64z"/><path d="m160 288h-224 64z"/><path d="m384 288h-224 64z"/><path d="m-128 96v-96-32h-64v32 96z"/><path d="m-992 96h-32z"/><path d="m-1024 96h-224z"/><path d="m-800 96h-192-32 32 32z"/><path d="m-800 96h32-192-32z"/><path d="m-672 96h-32z"/><path d="m-512 96h-32z"/><path d="m-672 96h128 32-192z"/><path d="m-1024-320v-32 224z"/><path d="m-1024-320v-32z"/><path d="m-192-288h-32z"/><path d="m-416-288h-32z"/><path d="m-480-288h-96-32-64-32 192z"/><path d="m-256-288h-160-32-32 160z"/><path d="m-608-288h-64z"/><path d="m-576-288h-32z"/><path d="m-672-288h-32z"/><path d="m-448-448v-32z"/><path d="m-448-288v-64z"/><path d="m-448-448v-32 128z"/><path d="m-1024-352h32z"/><path d="m-768-352h-32-192 192z"/><path d="m-608-352h32z"/><path d="m-448-352h-128z"/><path d="m-448-352h-128v64h96 32z"/><path d="m-576-352v64z"/><path d="m-704 64v32z"/><path d="m-704-256v32 64z"/><path d="m-704-128v192 32-160z"/><path d="m-512 96v-32z"/><path d="m-512-128v-32z"/><path d="m-512-160v32z"/><path d="m-480-160h128z"/><path d="m-512-160h32z"/><path d="m-352-160h32z"/><path d="m-480-160h128 32-192z"/><path d="m-320-160v32z"/><path d="m-320-128v224-160z"/><path d="m-320-128v64 160z"/><path d="m-544 96v-32z"/><path d="m-544 64v32h-128v-32z"/><path d="m-1152-224h-32z"/><path d="m-1152-448v192 32z"/><path d="m-1152-480v32z"/><path d="m-1152-448v192z"/><path d="m-1248-96h96 96z"/><path d="m-1024-128-32 32z"/><path d="m-1056-96 32-32z"/><path d="m-1024 224h-224 64z"/><path d="m-992 224h32-32-32z"/><path d="m-352 128h-160z"/><path d="m-512 128h-224z"/><path d="m-320 96-32 32z"/><path d="m-736 128-32-32z"/><path d="m-672 288h-224 160z"/><path d="m-448 288h-224 160z"/><path d="m-256 288h-120-72z"/><path d="m-256 288 64-64z"/><path d="m-960 224 64 64z"/><path d="m-1248 224h-32z"/><path d="m-1248-96h-32z"/><path d="m-1280-32v-32z"/><path d="m-1280-32v64h8v-64z"/><path d="m-1272 32v-64z"/><path d="m1344 64-32-32z"/><path d="m1312 160 32-32z"/><path d="m1216 128 32 32z"/><path d="m1248 32-32 32z"/><path d="m742.688-32h185.312 32-32-177.8016z"/><path d="m-448-480h-32z"/><path d="m-928-480h-224 128 64z"/><path d="m-704-480h-224 192z"/><path d="m-480-480h-224 96z"/><path d="m1088-96v64z"/><path d="m544-32h32z"/><path d="m448 288 64-64z"/><path d="m512 96h-128v-128h128z"/><path d="m-192-224v-64h-64-64v128 32 64h128z"/><path d="m-320-64v160 32h32 96v-128-64z"/><path d="m-512-128v-32-128h-192v160 64h192z"/><path d="m-704-64v160h192v-160z"/><path d="m-320-160v-128h-160-32v128z"/><path d="m-320 96-32 32h32z"/><path d="m-672 224h-64-160v16h120 104z"/><path d="m-448 224h-64-160v16h72 48 104z"/><path d="m-376 240h120v-16h-32-160v16z"/><path d="m-736 128h-224v96h64 160z"/><path d="m-512 128h-224v96h64 160z"/><path d="m-288 128h-32-32-160v96h64 160z"/><path d="m-256 224h64v-96h-96v96z"/><path d="m-256 224v16 48l64-64z"/><path d="m-960 128h224l-32-32h-32-160z"/><path d="m-896 240v-16h-64l64 64z"/><path d="m-960 128v-32h-32v128h32z"/><path d="m-128 0v224-96z"/><path d="m160-224h-224 160z"/><path d="m384-224h-224 160z"/><path d="m448-224 64 64z"/><path d="m448 288h-64z"/><path d="m0-96v64z"/><path d="m512 128v32 64z"/><path d="m512-160v96z"/><path d="m544-32h-32z"/><path d="m224-32h-224 64z"/><path d="m512-64h-32-64z"/><path d="m384-96h-96-64z"/><path d="m384 96h-96-64z"/><path d="m512 96h-32-64-32z"/><path d="m224 160h-224 64z"/><path d="m-128 224 64 64z"/><path d="m-896 288h120-48z"/><path d="m-552 288h-48z"/><path d="m-376 288h120-72z"/><path d="m-576-352h128-160z"/><path d="m-776 240h-120 72z"/><path d="m-1152-448v224-32z"/><path d="m-1024-352v96 128z"/><path d="m-1056-96 32-32z"/><path d="m-1024 96h-224z"/><path d="m-992 224h-32z"/><path d="m-192 0v128 96-96-32z"/><path d="m-192-224v160 64-32-32z"/><path d="m-128-160v96 32 32z"/><path d="m-64-224-64 64z"/><path d="m512-32v32 96z"/><path d="m512 96h32z"/><path d="m544-32h-32z"/><path d="m224-96h-224 64z"/><path d="m448-224h-64z"/><path d="m384 160h-64-32-64z"/><path d="m512 128h-96z"/><path d="m0 160v-64z"/><path d="m224 96h-224 64 128z"/><path d="m384-32h-64-96z"/><path d="m160 288h-224z"/><path d="m384 288h-224z"/><path d="m-768 96h-32z"/><path d="m-192-288h-32-32z"/><path d="m-800-352h-32-128-64 32z"/><path d="m-576-352h-32-192 32 160z"/><path d="m-704-288v32 96 32z"/><path d="m-512-128v64 160-32z"/><path d="m-320-160v32z"/><path d="m-1152-224h-32-64z"/><path d="m-1152-480v32z"/><path d="m-1248-96h192z"/><path d="m-1024 224h-224z"/><path d="m-352 128h-160z"/><path d="m-672 288h-104-120z"/><path d="m-448 288h-104-48-72z"/><path d="m928-160h-224v96 32h46.1984 177.8016z"/><path d="m1344 128v-64z"/><path d="m1216 64v64z"/><path d="m1312 32 32 32z"/><path d="m1312 32h-64z"/><path d="m1344 128-32 32z"/><path d="m1248 160h64z"/><path d="m1248 160-32-32z"/><path d="m1216 64 32-32z"/><path d="m984-160h24 16-40-56 32z"/><path d="m1064-48h-24v16h24z"/><path d="m1040-144v64h24v-40z"/><path d="m1088-96-24-24v40 32 16h24z"/><path d="m1040-48h24z"/><path d="m1064-80v32z"/><path d="m1008-48h-24v16h24z"/><path d="m984-160v80h24v-80z"/><path d="m1040-48v-32-64l-16-16h-16v80 32 16h32z"/><path d="m1008-80v32z"/><path d="m960-160h-32v128h32z"/><path d="m984-48v-32-80h-24v128h24z"/><path d="m864-160h-160-64z"/><path d="m512-32h-32z"/><path d="m416-32h64 32-128z"/><path d="m416-64v32z"/><path d="m416-64h64v32h-64z"/><path d="m480-32v-32z"/><path d="m416 96v32z"/><path d="m512 128h-32z"/><path d="m416 128h64 32z"/><path d="m480 128h-64v-32h64z"/><path d="m480 128v-32z"/><path d="m928-160h32v128h-32z"/><path d="m-448-480h-32z"/><path d="m1088 160v-64z"/><path d="m1088-96v96-32z"/><path d="m1088 96v64h8v-64z"/><path d="m1096 160v-64z"/><path d="m984-80v32z"/><path d="m1064-48v-32-40l24 24v64h-24z"/><path d="m1064-80h-24v-64l24 24z"/><path d="m1008-80h-24v-80h24z"/><path d="m1008-48v-32-80h16l16 16v64 32 16h-32z"/><path d="m1040-32v-16h24v16z"/><path d="m984-32v-16h24v16z"/><path d="m1040-80v32z"/><path d="m1064-80h-24z"/><path d="m1008-48h-24z"/><path d="m1008-80h-24z"/><path d="m960-160h24v80 32 16h-24z"/><path d="m984-32h24 32 24 24v32 192h-128v-14.1984-209.8016z"/><path d="m0 160v-64z"/><path d="m0-96v64z"/><path d="m288-32h96-160z"/><path d="m288-32h-64-160 160z"/><path d="m224-96h-160-64z"/><path d="m384-96h-64-32z"/><path d="m384-96 32 32z"/><path d="m384 96h-96z"/><path d="m224 96h-160-64z"/><path d="m384 96h32z"/><path d="m288 160h96-160z"/><path d="m288 160h-64-160 160z"/><path d="m384 160 32-32z"/><path d="m-448-352v-128z"/><path d="m-608-480h-96l-32 32-96 96h224z"/><path d="m-448-352v-128h-32-128v128z"/><path d="m-608-352h-224 32z"/><path d="m-288-80v-48 48 112z"/><path d="m-416-192h-80-48-32-64 64z"/><path d="m-384 96h32-32-32z"/><path d="m-352 96 64-64z"/><path d="m-288-128v48h-96-112v-112h80 64z"/><path d="m-352 96h-32v-48-16-112h96v112z"/><path d="m-384-80v112h-32-48-32v-112z"/><path d="m-384 96h-32v-48h32z"/><path d="m-416 48v48h-48v-48-16h48z"/><path d="m-464 96h-32v-48h32z"/><path d="m-544-192h48v112 112h-48z"/><path d="m-496 32v16 48h-48v-48-16z"/><path d="m-576-192h32v224h-32z"/><path d="m-544 96h-32v-48h32z"/><path d="m-704-128 64-64h64v224h-128z"/><path d="m-576 32v16 48h-64l-64-64z"/><path d="m-704 32 64 64z"/><path d="m-640-192-64 64z"/><path d="m-832-352h-128z"/><path d="m-736-480h-192-32v128h128l96-96z"/><path d="m-704-480h-32v32z"/><path d="m-1152-96h-96 192z"/><path d="m-1152-480v32z"/><path d="m-960-352h-64z"/><path d="m-960-480h-64v128h64z"/><path d="m-1024-352v-128h-128v32 192h128z"/><path d="m-1152-256v32 128h96l32-32v-128z"/><path d="m-1152-224h-96z"/><path d="m-1152-96v-128h-96v128z"/><path d="m-992 224v-128z"/><path d="m-992 96h-32z"/><path d="m-1024 224h-224z"/><path d="m-1024 96h-224v128h224z"/><path d="m-992 224v-128h-32v128z"/><path d="m-1664-160v64z"/><path d="m-1664-96v64z"/><path d="m-1664-32v32 32z"/><path d="m-1664 32v64z"/><path d="m-1664 96v64z"/><path d="m-1664 160 64 64z"/><path d="m-1408 224h-192z"/><path d="m-1376 224h-32-192 32 48z"/><path d="m-1600-224-64 64z"/><path d="m-1280-224h-96z"/><path d="m-1280-224h32z"/><path d="m-1280-96-64-64z"/><path d="m-1280-224v128h32v-128z"/><path d="m-1280-224h-96-32l64 64 64 64z"/><path d="m-1408-224v64h64z"/><path d="m-1280 160v-64l-64 64z"/><path d="m-1280 160h-64-64v64h32 96z"/><path d="m-1280 160v64h32v-128h-32z"/><path d="m-1344 160 64-64z"/><path d="m-1344-160h-64z"/><path d="m-1280-64v112-16-64z"/><path d="m-1280-64v-32z"/><path d="m-1280 48v16z"/><path d="m-1280 96v-32z"/><path d="m-1280 96h32z"/><path d="m-1728-32 64-64v64 64 64l-64-64z"/><path d="m-1728 32 64 64z"/><path d="m-1664-96-64 64z"/><path d="m1024-160h-16-24-24z"/><path d="m-1664 96v64z"/><path d="m-1408 224h-64-128z"/><path d="m-1408-224h-192z"/><path d="m-1408-224h-192 128z"/><path d="m-1280 64v-16-112z"/><path d="m-1280 64v-128 16 32 32 32z"/><path d="m-1408-160v-64z"/><path d="m-1408-160v-64z"/><path d="m-1408 224v-64z"/><path d="m-1408 160h64z"/><path d="m-1728-32v64z"/><path d="m960 185.312v-217.312 209.8016z"/><path d="m1088 192v-32-64-48-80h-24-24-32-24-24v217.312 6.688z"/><path d="m864 352h-224 64z"/><path d="m960 352h-32-64z"/><path d="m640 352-64-64z"/><path d="m984 224h24 32 24 24v-32h-128v32z"/><path d="m1088 224h-24v16 32h24z"/><path d="m984 224v16h24v-16z"/><path d="m1008 224v16 32h32v-32-16z"/><path d="m1040 224v16h24v-16z"/><path d="m1088 288v-16h-24-24-32-24v80h40z"/><path d="m960 352h24v-80-32-16h-24z"/><path d="m984 240v32z"/><path d="m1064 240h-24z"/><path d="m1064 272v-32z"/><path d="m-496 32h32z"/><path d="m-416 32h32z"/><path d="m-384 32v16z"/><path d="m-464 32v16z"/><path d="m-544 32v16z"/><path d="m-576 32h32z"/><path d="m928 352h32v-128h-32z"/><path d="m-600 288h-72-104 104z"/><path d="m-376 288h-72-104 104z"/><path d="m-256 240v48z"/><path d="m-896 288v-48z"/><path d="m-552 280h-8-32-8z"/><path d="m-328 240h72-120z"/><path d="m-552 240h-48z"/><path d="m-328 240h-48v8h48z"/><path d="m-552 248v-8h-48v8z"/><path d="m-776 240h-48v8h8 40z"/><path d="m-328 280h-48v8h48z"/><path d="m-552 288v-8h-48v8z"/><path d="m-776 280h-48v8h48z"/><path d="m416-32h-32z"/><path d="m480-64h32z"/><path d="m416-64h64 32z"/><path d="m480-32v-32h-64v32z"/><path d="m480 96h32z"/><path d="m480 96h-64v32h64z"/><path d="m-336 280h-32-8 48z"/><path d="m-336 280h8z"/><path d="m-560 280h8z"/><path d="m-784 280h-32-8 48z"/><path d="m-784 280h8z"/><path d="m-368 248h32 8-48z"/><path d="m-368 248h-8z"/><path d="m-592 248h32 8-48z"/><path d="m-592 248h-8z"/><path d="m-784 248h8-40z"/><path d="m-552 248v-8z"/><path d="m-328 248v-8z"/><path d="m-776 248v-8z"/><path d="m-592 280v-32z"/><path d="m-368 280v-32z"/><path d="m-368 248v32h32v-32z"/><path d="m-336 248v32z"/><path d="m-560 248v32z"/><path d="m-560 280v-32h-32v32z"/><path d="m-784 248v32z"/><path d="m-816 248v32h32v-32z"/><path d="m-816 280v-32z"/><path d="m-376 280v8z"/><path d="m-600 280v8z"/><path d="m-824 280v8z"/><path d="m-496 48v-16 24z"/><path d="m-496 48v-16z"/><path d="m-416 48v-16 24z"/><path d="m-416 48v-16z"/><path d="m-384 48h-32z"/><path d="m-416 48v8h32v-8z"/><path d="m-464 48h-32z"/><path d="m-496 48v8h32v-8z"/><path d="m-576 48v-16z"/><path d="m-576 48v-16 24z"/><path d="m-544 48h-32z"/><path d="m-576 48v8h32v-8z"/><path d="m864 352h-32-192z"/><path d="m960 192v32-32-6.688-7.5104z"/><path d="m1088 192v32h-24-24-32-24-24v-32z"/><path d="m576 64v32 32 160z"/><path d="m576-64v-32z"/><path d="m576-32v-32z"/><path d="m576 128v-32z"/><path d="m576 288v-160 96z"/><path d="m1088 0v64 160-32z"/><path d="m1088 0v-96 160z"/><path d="m864-160h-224z"/><path d="m1024-160h-64-32-64z"/><path d="m984 352h24 16-112-16 32 32z"/><path d="m640 352h192-64z"/><path d="m576 288 64 64z"/><path d="m640-160-64 64z"/><path d="m1024 352 16-16 24-24 24-24z"/><path d="m1088-96-24-24-24-24-16-16z"/><path d="m1040 272v-32z"/><path d="m1040 336v-64h24v40z"/><path d="m1064 312v-40-32-16h24v64z"/><path d="m1064 240h-24v-16h24z"/><path d="m1040 272h24z"/><path d="m984 352v-80h24v80z"/><path d="m1008 240h-24v-16h24z"/><path d="m1008 352v-80-32-16h32v16 32 64l-16 16z"/><path d="m984 272h24z"/><path d="m984 240h24z"/><path d="m1008 240v32z"/><path d="m960 224h24v16 32 80h-24z"/><path d="m544-32v128h32v-32-96z"/><path d="m576 96h-32z"/><path d="m-128-96v-64 160z"/><path d="m-64-224-64 64z"/><path d="m448-224h-64z"/><path d="m160 288h-160-64z"/><path d="m384 288h-160-64z"/><path d="m224 160h-160-64v128h160 64z"/><path d="m384 288h64v-128h-64-96-64v128z"/><path d="m448 288 64-64v-64h-64z"/><path d="m448 160h64v-32h-96l-32 32z"/><path d="m224-32h-160-64v128h64 160z"/><path d="m448-32h-64-96-64v128h64 96 64z"/><path d="m512 96h32v-128h-32-64v128z"/><path d="m0 96v-128-64h-128v96 128h128z"/><path d="m-128 128v96l64 64h64v-128-32z"/><path d="m96-224h-160l-64 64v64h128 64 32z"/><path d="m320-224h-160-64v128h192 32z"/><path d="m384-224h-64v128h64z"/><path d="m448-224h-64v128l32 32h96v-96z"/><path d="m0 128v32-64z"/><path d="m512 96h32z"/><path d="m64-32h-64z"/><path d="m384-32h-96z"/><path d="m448-32h64-32-64-32z"/><path d="m0-96h64z"/><path d="m288-96h-192-32 160z"/><path d="m0 96h64z"/><path d="m288 96h-64-160 160z"/><path d="m448 96h-64 32 64 32z"/><path d="m512 128h-32-64z"/><path d="m384 160h-96z"/><path d="m64 160h-64z"/><path d="m-288-80v-48 64 96z"/><path d="m-352-192h-64z"/><path d="m-416-192h-160-64 128z"/><path d="m-704-128v160z"/><path d="m-544 56h48v-24h-48z"/><path d="m-544 32h48v24h-48z"/><path d="m-416 96h32v-40h-32-48-32-48-32v40z"/><path d="m-544 56h48 32 48 32v40h-32-160v-40z"/><path d="m-464 56h48v-24h-48z"/><path d="m-464 32h48v24h-48z"/><path d="m-544 32h48 32 48 32v-112h-192v112z"/><path d="m-384-80v112h-32-48-32-48-32v-112z"/><path d="m-288-80v112l-64 64h-32v-40-24-112z"/><path d="m-352 96 64-64v-112h-96v112 24 40z"/><path d="m-704-128 64-64h64v112 112 24 40h-64l-64-64z"/><path d="m-576 56v-24-112-112h-64l-64 64v160l64 64h64z"/><path d="m-384-80h96v-48l-64-64h-64-160v112z"/><path d="m-288-128v48h-96-192v-112h160 64z"/><path d="m-416 96h32 32-32-32-48-32-48-32z"/><path d="m-384 32v24 24-24z"/><path d="m-416 56v24h32v-24z"/><path d="m-464 32v24 24-24z"/><path d="m-496 56v24h32v-24z"/><path d="m-544 32v24 24-24z"/><path d="m-576 56v24h32v-24z"/><path d="m-416 96h-160-64 64 32 48 32z"/><path d="m-288-128-64-64z"/><path d="m-384 32v16 8z"/><path d="m-464 32v16 8z"/><path d="m-544 32v16 8z"/><path d="m928 224h32v128h-32z"/><path d="m576 64v224z"/><path d="m576-96v32 32 96z"/><path d="m1088 64v224-64z"/><path d="m1088-96v96 32 32z"/><path d="m864-160h-224 16 32 16z"/><path d="m1024-160h-160z"/><path d="m1024 352h-112z"/><path d="m640 352h128-64-16-32z"/><path d="m576 288 64 64z"/><path d="m640-160-64 64z"/><path d="m1088-96-64-64z"/><path d="m896 352h-192v-64-64h46.1984 177.8016v128z"/><path d="m-376 280h8z"/><path d="m-592 280h32 8-48z"/><path d="m-600 280h8z"/><path d="m-824 280h8z"/><path d="m-328 248h-8z"/><path d="m-552 248h-8z"/><path d="m-776 248h-8z"/><path d="m-824 248h8z"/><path d="m-368 280v-32h32v32z"/><path d="m-560 248v32h-32v-32z"/><path d="m-816 280v-32h32v32z"/><path d="m742.688 224h185.312 32-32-177.8016z"/><path d="m742.688 224h-38.688v64 64h64 64 32 64v-128z"/><path d="m-824 288h-72z"/><path d="m-824 288h48z"/><path d="m-552 288h-48z"/><path d="m-376 288h48z"/><path d="m-376 280h8 32 8z"/><path d="m-824 280h8 32 8z"/><path d="m-328 248h-8-32-8z"/><path d="m-552 248h-8-32-8z"/><path d="m-776 248h-8-32-8z"/><path d="m-328 240h72z"/><path d="m-328 240h-48z"/><path d="m-376 240h-72-104 104z"/><path d="m-600 240h-72-104 104z"/><path d="m-776 240h-48z"/><path d="m-376 240v8z"/><path d="m-328 248h-48v-8h48z"/><path d="m-600 240v8z"/><path d="m-552 240v8h-48v-8z"/><path d="m-824 240v8z"/><path d="m-776 248h-48v-8h48z"/><path d="m-552 288v-8z"/><path d="m-328 288v-8z"/><path d="m-328 288h-48v-8h48z"/><path d="m-776 288v-8z"/><path d="m-552 280v8h-48v-8z"/><path d="m-776 288h-48v-8h48z"/><path d="m576-96v160z"/><path d="m928-160h-64-160 160z"/><path d="m928-160h96-160z"/><path d="m1024-160 64 64z"/><path d="m704 0v64 160-160z"/><path d="m704 0v-160h-16v224h16z"/><path d="m688 64v184 24 16h16v-64-160z"/><path d="m688 288v16 24 24h16v-64z"/><path d="m656-160h-16l-64 64v160h80z"/><path d="m576 64v224h80v-16-24-184z"/><path d="m576 288 64 64h16v-24-24-16z"/><path d="m688-160h-32v224h32z"/><path d="m656 64v184h32v-184z"/><path d="m688 328h-32v24h32z"/><path d="m688 288v-16h-32v16 16h32z"/><path d="m656 248v24z"/><path d="m688 328v-24z"/><path d="m656 304v24z"/><path d="m-256 288h-72z"/><path d="m-376 288h48 72-192z"/><path d="m-704-16v-64-48 160z"/><path d="m-576 80v-24-24 24z"/><path d="m-576 80v-24 24 16z"/><path d="m-416 80v-24-24 24z"/><path d="m-416 80v-24 24 16z"/><path d="m-384 56v24h-32v-24-24h32z"/><path d="m-384 80h-32v16h32z"/><path d="m-496 80v-24 24 16z"/><path d="m-496 80v-24-24 24z"/><path d="m-464 56v24h-32v-24-24h32z"/><path d="m-464 80h-32v16h32z"/><path d="m-544 56v24h-32v-24-24h32z"/><path d="m-544 80h-32v16h32z"/><path d="m-640 96h64z"/><path d="m-704 32 64 64z"/><path d="m-704-128 64-64z"/><path d="m-672 240h-104-48-72 160z"/><path d="m-448 240h-104-48-72 160z"/><path d="m-552 240h-48z"/><path d="m-896 240h72z"/><path d="m-1408 224h-64z"/><path d="m-1600-64v-32-128 128 32 64z"/><path d="m-1584-64h32z"/><path d="m-1520-64h32z"/><path d="m-1312-64h32-32-160z"/><path d="m-1552-96h-32z"/><path d="m-1488-96h-32z"/><path d="m-1472-224h-128v128h16 32 32 32 16z"/><path d="m-1472-96h-16v32h16z"/><path d="m-1552-96v32h32v-32z"/><path d="m-1600-96v32h16v-32z"/><path d="m-1312-48v32z"/><path d="m-1312 16v32z"/><path d="m-1280-16h-32v32h32z"/><path d="m-1280-64h-32v16h32z"/><path d="m-1280 48h-32v16h32z"/><path d="m-1312 64v-16-32-32-32-16h-160v128z"/><path d="m-1584 96h32z"/><path d="m-1520 96h32z"/><path d="m-1488-64v128 32h16v-32-128z"/><path d="m-1488 64h-32z"/><path d="m-1552 64h-32z"/><path d="m-1584 64h32 32 32v-128h-32-32-32-16v64 64z"/><path d="m-1552 64v32h32v-32z"/><path d="m-1600 64v32h16v-32z"/><path d="m-1472 224v-128h-16-32-32-32-16v128z"/><path d="m544-224v160z"/><path d="m576-96v32z"/><path d="m864-160h-160-16-32-16z"/><path d="m1024-160h-96z"/><path d="m704 352h-16z"/><path d="m640 352h16 32z"/><path d="m640 352-64-64z"/><path d="m656 352v-24h32v24z"/><path d="m688 288v16h-32v-16-16h32z"/><path d="m688-160h16v160 64h-16z"/><path d="m704 64v160 64h-16v-16-24-184z"/><path d="m704 288v64h-16v-24-24-16z"/><path d="m576-32v-32-32l64-64h16v224h-80z"/><path d="m656 64v184 24 16h-80v-160-32-32z"/><path d="m656 288v16 24 24h-16l-64-64z"/><path d="m656-160h32v224h-32z"/><path d="m688 64v184h-32v-184z"/><path d="m704-160v160z"/><path d="m704 224h38.688 7.5104z"/><path d="m656 272h32z"/><path d="m688 248v24z"/><path d="m688 248h-32z"/><path d="m688 304h-32z"/><path d="m656 328h32z"/><path d="m576-32v96 32h-32v-96-32z"/><path d="m-960-224v64z"/><path d="m-960 224v-64z"/><path d="m-944 240 48 48-64-64z"/><path d="m384-192v-32h160v160 32 32h-160z"/><path d="m544 0v96h-96l-64-64v-32z"/><path d="m384-192v192 32z"/><path d="m-672-288h-64-160 160 32z"/><path d="m-288-288h-32z"/><path d="m-320-288h-128v-32-32h128z"/><path d="m-320-352h-128z"/><path d="m-192-64v-160 96 128z"/><path d="m-352 128h-32z"/><path d="m-736-64v-64 48 64z"/><path d="m-288-128v-64-96h32l64 64v160h-96z"/><path d="m-192-64v64 128h-96v-32-64-96z"/><path d="m-256-288 64 64z"/><path d="m-352-192h-64z"/><path d="m-512-192h-128-64-32v-96h64 160z"/><path d="m-480-288h32 128 32v96h-64-64-96v-96z"/><path d="m-352 96h-32z"/><path d="m-416 96h32z"/><path d="m-416 96h-48z"/><path d="m-544 96h48 32-80-32z"/><path d="m-496 96h-48z"/><path d="m-288-128-64-64h64z"/><path d="m-352 96 64-64v64z"/><path d="m-384 96h-32v-16h32z"/><path d="m-384 80v-24 24 16z"/><path d="m-352-192 64 64z"/><path d="m-288 32-64 64z"/><path d="m-464 96h-32v-16h32z"/><path d="m-544 96h-32v-16h32z"/><path d="m-464 80v-24 24 16z"/><path d="m-544 80v-24 24 16z"/><path d="m-576 96h-64z"/><path d="m-704-128v-64h64z"/><path d="m-928-96v-32-128l32-32h160v96 64 64h-192z"/><path d="m-736-64v48 112 32h-192v-32-160z"/><path d="m-928-96v32 160l-32-32v-128z"/><path d="m-960-160v-64l32-32v128z"/><path d="m-960 64 32 32z"/><path d="m-960-160 32 32z"/><path d="m-896 288-48-48h48z"/><path d="m-736 240h-160-48l-16-16v-64l32-32h192z"/><path d="m-512 240h-160-64v-112h32 128 64z"/><path d="m-288 240h-160-64v-112h128 32 64z"/><path d="m-192 128v96l-16 16h-48-32v-112z"/><path d="m-208 240-48 48v-48z"/><path d="m-928 128-32 32z"/><path d="m-288 240h32-72-48-72z"/><path d="m-1024 64h-224v-128h224z"/><path d="m-960-64v128h-64v-128z"/><path d="m-960 64h-32-32z"/><path d="m-1024-64h-224z"/><path d="m-1472 224h64-192z"/><path d="m-1408-224h-64-128z"/><path d="m-1472-224h64z"/><path d="m-1600 0v64 32 128-128-32z"/><path d="m-1280 16v32z"/><path d="m-1280-48v32z"/><path d="m-1248 64h-32v-16-32-32-32-16h32z"/><path d="m-1472-96h-16-32-32-32-16v-128h128z"/><path d="m-1488-64v-32h16v32z"/><path d="m-1600-64v-32h16v32z"/><path d="m-1552-64v-32h32v32z"/><path d="m-1472-96v-128 128 32z"/><path d="m-1552-64v-32z"/><path d="m-1520-96v32z"/><path d="m-1488-64v-32z"/><path d="m-1584-96v32z"/><path d="m-1472 96v-32 32 128z"/><path d="m-1312 64h32-32-160z"/><path d="m-1280 16h-32v-32h32z"/><path d="m-1280 64h-32v-16h32z"/><path d="m-1312-64v16 32 32 32 16h-160v-128z"/><path d="m-1280-48h-32v-16h32z"/><path d="m-1280 16h-32z"/><path d="m-1312-16h32z"/><path d="m-1280-48h-32z"/><path d="m-1312 48h32z"/><path d="m-1408 224v-64z"/><path d="m-1472 64h-16-32-32-32-16v-64-64h16 32 32 32 16z"/><path d="m-1488 96v-32h16v32z"/><path d="m-1584 96h32 32 32 16v128h-128v-128z"/><path d="m-1600 96v-32h16v32z"/><path d="m-1552 96v-32h32v32z"/><path d="m-1488 96v-32z"/><path d="m-1552 96v-32z"/><path d="m-1520 64v32z"/><path d="m-1584 64v32z"/><path d="m544-224h-160z"/><path d="m544-224h-160v-64h160z"/><path d="m-320-352v32 32z"/><path d="m-384-416 64 64h-128v-64z"/><path d="m544-288v64z"/><path d="m544-352v64z"/><path d="m384-288v64z"/><path d="m384-320v32z"/><path d="m384-320v-32h160v64h-160z"/><path d="m544-288h-160z"/><path d="m-384-416h-64z"/><path d="m-384-480h64v64h-64-64z"/><path d="m-448-416 64-64z"/><path d="m-320-416v64l-64-64z"/><path d="m-320-352-64-64z"/><path d="m-544 128h128 32-128-64z"/><path d="m-464 96h48v32h-128v-32z"/><path d="m-1664-160v64z"/><path d="m-1664 96v64z"/><path d="m-1664 160 64 64z"/><path d="m-1408 224h-192z"/><path d="m-1600-224-64 64z"/><path d="m-1600-224h96 96z"/><path d="m-1280-96-64-64z"/><path d="m-1344 160 64-64z"/><path d="m-1280 96v-32z"/><path d="m-1280-64v-32z"/><path d="m-1408-224v64z"/><path d="m-1344-160h-64z"/><path d="m-1408 160v64z"/><path d="m-1408 160h64z"/><path d="m-1728-32v64z"/><path d="m-1728 32 64 64z"/><path d="m-1664-96-64 64z"/><path d="m1344 64v64z"/><path d="m1216 128v-64z"/><path d="m1344 64-32-32h32z"/><path d="m1248 32h64z"/><path d="m1216 32h32z"/><path d="m1344 160h-32z"/><path d="m1312 160 32-32v32z"/><path d="m1312 160h-64z"/><path d="m1248 32-32 32v-32z"/><path d="m1248 160h-32v-32z"/><path d="m1344 32h-64v128h64z"/><path d="m1280 32h-64v128h64z"/><path d="m384-352v-128z"/><path d="m544-352h-160z"/><path d="m544-352h-160v-128h96l64 64z"/><path d="m-320-352v-64-64z"/><path d="m-288-352h-32v-128h32z"/><path d="m1344 64v-32z"/><path d="m1344 160v-32z"/><path d="m1216 32v32z"/><path d="m1216 128v32z"/><path d="m1344 64-32-32z"/><path d="m1344 32h-32z"/><path d="m1344 32h-32l32 32z"/><path d="m1312 160 32-32z"/><path d="m1344 160v-32l-32 32z"/><path d="m1216 160h32z"/><path d="m1216 32v32l32-32z"/><path d="m1216 160h32l-32-32z"/><path d="m1248 32-32 32z"/><path d="m1216 128 32 32z"/><path d="m1344 160h-64z"/><path d="m1280 32h64z"/><path d="m1344 32v128z"/><path d="m1280 160v-128z"/><path d="m1344 160h-64v-128h64z"/><path d="m1280 160h-64z"/><path d="m1216 32h64z"/><path d="m1216 160v-128z"/><path d="m1280 32v128z"/><path d="m1280 160h-64v-128h64z"/><path d="m32-128v64z"/><path d="m-32-128h64v64h-64z"/><path d="m-32-480h-128-96z"/><path d="m192-480h-128-96z"/><path d="m384-480h96z"/><path d="m1088 288v-96z"/><path d="m1088 64v96 32 96z"/><path d="m1088-96v96z"/><path d="m1120 32h96v32 64 32h-96-32v-96-32z"/><path d="m1248 160h-32v-32z"/><path d="m1312 160 32-32v32z"/><path d="m1344 64-32-32h32z"/><path d="m1248 32-32 32v-32z"/><path d="m1088 288-64 64z"/><path d="m-128-352h-32z"/><path d="m64-352h-32-96-64-32v-128h128 96z"/><path d="m288-352h-160-64v-128h128 96z"/><path d="m352-480h32v128h-32-64v-128z"/><path d="m-128-288v32z"/><path d="m-128-160v96 128-192z"/><path d="m-64-352h96v64h-64-32z"/><path d="m32-288v-64h32v64 160h-32z"/><path d="m64-128v64h-32v-64z"/><path d="m64-128v-160h64v32 96 96h-64z"/><path d="m128-64v128 32h-64v-160z"/><path d="m-128-160v-96-32h64 32v160 64h-32-64z"/><path d="m-32-288h64v160h-64z"/><path d="m-64 128v-32-160h32 64 32v160 32 32h-128z"/><path d="m64 160v64h-128v-64z"/><path d="m-64-64v160h-64v-32-128z"/><path d="m-64 96h-64z"/><path d="m128-256v96z"/><path d="m128-64v-96 32 64 32 96z"/><path d="m128 96v-32z"/><path d="m64-352v64z"/><path d="m64 160v-32 32 64z"/><path d="m-32-64h64z"/><path d="m-32-128v64z"/><path d="m32-128h-64z"/><path d="m-160-352h-96-32v-128h32 96z"/><path d="m-320-352h32z"/><path d="m-288-480v128z"/><path d="m-736-16v112z"/><path d="m-704-16v48z"/><path d="m-704-16v-64z"/><path d="m-704-80v-48z"/><path d="m-704-80v64h-8v-64z"/><path d="m-728-16h-8v-64h8z"/><path d="m-704-80h-8z"/><path d="m-728-80h-8z"/><path d="m-712-16h8z"/><path d="m-736-16h8z"/><path d="m160 352h-96z"/><path d="m160 256v96z"/><path d="m160 352h-96l96-96z"/><path d="m160 256-96 96z"/><path d="m-32 320 96-96z"/><path d="m-64 128v32 64z"/><path d="m-64 224h128z"/><path d="m-32 320-32-32v-64h128z"/><path d="m1344 64v64 32-32-64-32z"/><path d="m1344 160v-32z"/><path d="m1344 128h24z"/><path d="m1344 128v-64h24v64z"/><path d="m1368 64h-24z"/><path d="m-32 320 32 32-64-64z"/><path d="m-32 320-32-32z"/><path d="m64 352h96v-96z"/><path d="m64 352h-64l-32-32 96-96z"/><path d="m-576 128h-128z"/><path d="m-384 128h-32z"/><path d="m-544 128h-32z"/><path d="m-576 96h32 128 32-32z"/><path d="m-416 96h32z"/><path d="m-576 96h32z"/><path d="m-544 96v32z"/><path d="m-416 128v-32z"/><path d="m-416 96h-128v32h128z"/><path d="m1368 64h-16v64h16z"/><path d="m64 352h-64z"/><path d="m64 352v-128z"/><path d="m160 352h-96v-128h96z"/><path d="m160 224v128z"/><path d="m480-480h-96z"/><path d="m544-64v32z"/><path d="m544-416v64z"/><path d="m544-352v-64 128z"/><path d="m160 352h-96z"/><path d="m352 352h-128-32z"/><path d="m544-416-64-64z"/><path d="m480-480 64 64z"/><path d="m384 288v-64z"/><path d="m384 192v-32z"/><path d="m384-224v32z"/><path d="m384-192v224z"/><path d="m384-320v-32z"/><path d="m448 96h96z"/><path d="m544 96h-96z"/><path d="m384 32 64 64z"/><path d="m448 96-64-64z"/><path d="m384 224h16v64h-16z"/><path d="m400 288v-64z"/><path d="m128 64v-96z"/><path d="m128-128h32v64h-32z"/><path d="m384 160h-32z"/><path d="m192 160h-32z"/><path d="m160 224v-64z"/><path d="m384 160v32h-32v-32z"/><path d="m352 224h32v64h-32z"/><path d="m352 352v-32h32v32z"/><path d="m384 320h-32z"/><path d="m192 160h160v32 32 64 32 32h-160-32v-128-64z"/><path d="m-704 128h-32z"/><path d="m-512 128h128-32-128-32z"/><path d="m-512 128h-64-128-32z"/><path d="m-736 96v-112-64 208z"/><path d="m-736 128v-32z"/><path d="m-704-80v64 48z"/><path d="m-712-16h8v-64h-8z"/><path d="m-736-80v64h8v-64z"/><path d="m-712-80v64z"/><path d="m-728-16v-64z"/><path d="m480-480h-96z"/><path d="m544-416v128z"/><path d="m544-288v224-160z"/><path d="m544-416-64-64z"/><path d="m384-192v224-64z"/><path d="m384-320v32 64 32z"/><path d="m448 96h96z"/><path d="m384 32 64 64z"/><path d="m256-128v-32z"/><path d="m256-64v-64-32h32v128h-32z"/><path d="m160-128h96z"/><path d="m160-128h96v64h-96z"/><path d="m1344 64v-32z"/><path d="m1344 160v-32-64-32z"/><path d="m1344 64v64h24v-64z"/><path d="m1368 128v-64z"/><path d="m1368 128h-16z"/><path d="m1368 128h-16v-64h16z"/><path d="m1352 64h16z"/><path d="m1368 64v64z"/><path d="m1352 128v-64z"/><path d="m-384-480h64z"/><path d="m-256-480h-32z"/><path d="m-320-480h32z"/><path d="m-32-480h-224 96z"/><path d="m192-480h-224 96z"/><path d="m320-480h32-64-96z"/><path d="m352-480h32z"/><path d="m544-288v32 192z"/><path d="m576-32v-32z"/><path d="m576 128v-32z"/><path d="m576 64v32 32 160z"/><path d="m576 288v-160z"/><path d="m1088 32v32 96h32v-128z"/><path d="m1120 32v128z"/><path d="m912 352h112-160z"/><path d="m1088 32v-32-96 160z"/><path d="m864-160h-224z"/><path d="m640-160-64 64z"/><path d="m576 288 64 64z"/><path d="m1088-96-64-64z"/><path d="m1024 352 64-64z"/><path d="m1088 192v-32z"/><path d="m1088 32v-32z"/><path d="m1088 160h32z"/><path d="m1120 160h96 32 64 32z"/><path d="m1344 32h-32-64-32-96z"/><path d="m1120 32h-32z"/><path d="m1024-160h-96-64z"/><path d="m912 352h-48-176 16 192z"/><path d="m576-96 64-64z"/><path d="m544-32v128h32v-32-96z"/><path d="m544-32h32z"/><path d="m576 96h-32z"/><path d="m64 352h96-160z"/><path d="m-960 160v64z"/><path d="m-960-64v128z"/><path d="m-960-224v64z"/><path d="m-960 224 64 64z"/><path d="m-896-288-32 32-32 32z"/><path d="m-64 288 64 64z"/><path d="m384-256v-64 128z"/><path d="m544-288v-128l-64-64h-96v128 32 64h160z"/><path d="m384-256v64 160h160v-32-192z"/><path d="m384-32v64l64 64h96v-128z"/><path d="m320-352h-32z"/><path d="m352-352h-32-32-160 160z"/><path d="m64-352h64z"/><path d="m-128-352h64z"/><path d="m384-352h-32z"/><path d="m320-480v128h32v-128z"/><path d="m352-480v128h32v-128z"/><path d="m320-352v-128z"/><path d="m-128-128v192 32-48z"/><path d="m-128-256v96z"/><path d="m-128 64v32z"/><path d="m96 96h-32 64z"/><path d="m128 96h-32z"/><path d="m128-256v-32z"/><path d="m128-160v-96-32 112 48z"/><path d="m128-128v-32z"/><path d="m128-32v-32z"/><path d="m256-64v32z"/><path d="m288-160h-32v32 64 32h32z"/><path d="m160-128h-32z"/><path d="m128-64h32z"/><path d="m256-64h-96z"/><path d="m160-128h-32v64h32z"/><path d="m256-128h-96v64h96z"/><path d="m-64-288h-64z"/><path d="m96-288h-32-128-64z"/><path d="m96-288h32-64z"/><path d="m-64-352v64z"/><path d="m64-352h-128v64h128z"/><path d="m64 128v-32z"/><path d="m64 224v-64z"/><path d="m160 160v64z"/><path d="m160 224h-96z"/><path d="m64 224h96z"/><path d="m64 160v-32-32h-128v32 32z"/><path d="m-64 96v32z"/><path d="m-64 160v-32 96 64z"/><path d="m-256 288 48-48 16-16z"/><path d="m-256 288 64-64z"/><path d="m-672 288h-224 72 48z"/><path d="m-448 288h-224 72 48z"/><path d="m-256 288h-32-160z"/><path d="m-256-352v-128h-32v128z"/><path d="m-320-320h-128v32h128z"/><path d="m-704-288h-32v96h32z"/><path d="m-192 96h-96v32h96z"/><path d="m-448-320h128z"/><path d="m-448-416v64 32z"/><path d="m-256-480v128z"/><path d="m-288-352v-128z"/><path d="m-384-480-64 64z"/><path d="m-512 128h-224z"/><path d="m-288 128h-64-160z"/><path d="m-736-128v-64-96 192z"/><path d="m-704-192v64 48 112-128z"/><path d="m-192-224-64-64z"/><path d="m-480-288h-192-32z"/><path d="m-192-224v96z"/><path d="m-384 96h32 64 96-224z"/><path d="m-960 64 32 32z"/><path d="m-960-160 32 32z"/><path d="m-192 224v-96z"/><path d="m-928 128-32 32z"/><path d="m-480-288h-32-160z"/><path d="m-288-288h32z"/><path d="m-448-288h-32z"/><path d="m-448-320v-32z"/><path d="m-448-352v-64z"/><path d="m-448-320v32z"/><path d="m-160-352h-96z"/><path d="m-288-352h-32 32 32z"/><path d="m-192 0v96 32 96-96z"/><path d="m-288 128h-64z"/><path d="m-352 128h-32-128z"/><path d="m-736-128v32 16z"/><path d="m-736-128v-64z"/><path d="m-288 96v32z"/><path d="m-736-192h32z"/><path d="m-704-192v64z"/><path d="m-352 96h64z"/><path d="m-640 96-64-64z"/><path d="m-928-128v32z"/><path d="m-928 96v32z"/><path d="m-928-96-32 32z"/><path d="m-960-64h-32v128h32z"/><path d="m-992-64v128z"/><path d="m-1024-64h-224z"/><path d="m-992 64h-32z"/><path d="m-1024 64h-224z"/><path d="m-992-64h32-64z"/><path d="m-1280 64v32z"/><path d="m-1248-64h-32v128h32z"/><path d="m-1248-64h-32z"/><path d="m-1280 64h32z"/><path d="m1344 160v-128z"/><path d="m-320-480h32-32-64z"/><path d="m288-480h32-128z"/><path d="m576-96v32 32 96z"/><path d="m576 64v224-32z"/><path d="m1344 32h-224z"/><path d="m1120 160h224z"/><path d="m1344 160v-128h-224v128z"/><path d="m864 352h-224 48z"/><path d="m1024 352h-160z"/><path d="m1088 64v224-96-32z"/><path d="m1088-96v128 32z"/><path d="m864-160h-224 160z"/><path d="m1024-160h-160z"/><path d="m640-160-64 64z"/><path d="m576 288 64 64z"/><path d="m1088-96-64-64z"/><path d="m160 352h32z"/><path d="m160 352h-160z"/><path d="m-1248-64v128z"/><path d="m-928-256 32-32-64 64z"/><path d="m-64 288 64 64z"/><path d="m64-352h-224 32 64z"/><path d="m288-352h-224 64z"/><path d="m64-480h-96-128v128h224z"/><path d="m288-480h-96-128v128h224z"/><path d="m320-352v-128h-32v128z"/><path d="m-128-176v-112 32 96 32z"/><path d="m96 96h-88-88-48 64 128z"/><path d="m128-128v128 96-32-96-32z"/><path d="m128-288h-32z"/><path d="m8 96v-96-16h-72-16v64 48z"/><path d="m80 0h-72v96h88 32v-96z"/><path d="m8-16h56v-16h-128v16z"/><path d="m80 0v-16h-16-56v16z"/><path d="m-64-176v16h128v-16z"/><path d="m-64-32v-128-16h-16v160h16z"/><path d="m-80-16v-160h-48v48 176h48z"/><path d="m-128 48v48h48v-48z"/><path d="m128-128v-48h-32-16v160 16h48z"/><path d="m80-176h-16v16 128 16h16z"/><path d="m96-288h-224v112h48 16 128 16 16z"/><path d="m128-288h-32v112h32z"/><path d="m64-32h-56-16-56z"/><path d="m64-160v56 40 32z"/><path d="m64 224v-64z"/><path d="m160 160v64z"/><path d="m64 160h-128z"/><path d="m-64 160v128z"/><path d="m-672 288h-64-160z"/><path d="m-448 288h-64-160z"/><path d="m-320-320v-32z"/><path d="m-160-352h-96z"/><path d="m-160-480h-96v128h96z"/><path d="m-320-352h32z"/><path d="m-320-480v128h32v-128z"/><path d="m-448-416v96h128v-32-128h-64z"/><path d="m-192 128h-96z"/><path d="m-736-96v32 192-208z"/><path d="m-736-288h-160z"/><path d="m-928 96v32z"/><path d="m-928-128v32z"/><path d="m-736-96v-192h-160l-32 32v128 32 32h192z"/><path d="m-928-64v160 32h192v-192z"/><path d="m-960-224v64l32 32v-128z"/><path d="m-928-64v-32l-32 32v128l32 32z"/><path d="m-928-96-32 32z"/><path d="m-736 128h-192l-32 32v64l64 64h160z"/><path d="m-512 128h-224v160h64 160z"/><path d="m-288 128h-224v160h64 160z"/><path d="m-256 288 64-64v-96h-96v160z"/><path d="m-992-64h-32z"/><path d="m-1024 64h-224z"/><path d="m-1024-64h-224v128h224z"/><path d="m-992 64v-128h-32v128z"/><path d="m-1280 64v-128z"/><path d="m-1280 64v-128z"/><path d="m384 224v64z"/><path d="m384 288v-64z"/><path d="m384 224h16z"/><path d="m-8-32h16z"/><path d="m-64-64v-40-56 128z"/><path d="m64-104v16 24z"/><path d="m64-160v56z"/><path d="m64-160h-128z"/><path d="m352 288v32z"/><path d="m352 224v-32z"/><path d="m352 224v-32 96z"/><path d="m384 224h-32z"/><path d="m352 288h32z"/><path d="m352 224v64h32v-64z"/><path d="m-704-288v96z"/><path d="m-192-224-64-64z"/><path d="m-256-288h-32-32-128-32z"/><path d="m-480-288h-224v-32h128 96z"/><path d="m-192-128v128 96-96z"/><path d="m-192-128v-96h32v224h-32z"/><path d="m-192 96 32 32h-32z"/><path d="m-416 96h-224 64z"/><path d="m-192 96v32h-224v-32z"/><path d="m-640 96-64-64z"/><path d="m-704 32 64 64z"/><path d="m-704-288-32-32h32z"/><path d="m-704-96v128h-32v-128z"/><path d="m-8-32h-56z"/><path d="m-64-88v-16 40z"/><path d="m64-64v32z"/><path d="m-8-160h16 56-128z"/><path d="m-8-160h-56z"/><path d="m-8-144v-16z"/><path d="m-8-104v-24z"/><path d="m-8-64v-24z"/><path d="m8-144v16l24 24h16z"/><path d="m-8-144v16 24 16 24 16 16h16v-16-16-24-16-24-16-16h-16z"/><path d="m64-104h-16-16-24v16h24 16 16z"/><path d="m48-88h-16l-24 24v16z"/><path d="m32-88h-24z"/><path d="m48-104h16z"/><path d="m8-104h24z"/><path d="m8-128v24z"/><path d="m8-48v16z"/><path d="m8-88v24z"/><path d="m8-64 24-24z"/><path d="m-8-88h-24z"/><path d="m-48-88h-16z"/><path d="m-32-104h24z"/><path d="m-8-128v-16l-40 40h16z"/><path d="m-8-128-24 24z"/><path d="m-8-144-40 40z"/><path d="m-8-104h-24-16-16v16h16 16 24z"/><path d="m-8-64-24-24h-16l40 40z"/><path d="m-48-88 40 40z"/><path d="m576 32v-128 160z"/><path d="m864 352h-64-160z"/><path d="m1088 64v192 32z"/><path d="m1088-96v-64-32h32v224h-32z"/><path d="m1120 32v224h-32v-192-32z"/><path d="m1120 256v96h-32v-64-32z"/><path d="m1024-160h-160z"/><path d="m800-160h-160-64v-32h224z"/><path d="m1024-160h-160-64v-32h224z"/><path d="m1088-192v32h-64v-32z"/><path d="m1088-96-64-64h64z"/><path d="m576-160h64l-64 64z"/><path d="m1024 352 64-64v64z"/><path d="m640 352h-64v-64z"/><path d="m1088 288-64 64z"/><path d="m800 384h-224v-32h64 160z"/><path d="m1024 384h-224v-32h64 160z"/><path d="m1088 352h32v32h-96v-32z"/><path d="m544-192h32v32 64 128h-32z"/><path d="m576 32v32 192h-32v-224z"/><path d="m576 256v32 64 32h-32v-128z"/><path d="m352 352h32z"/><path d="m352 352h32-64-96z"/><path d="m-64 288 64 64z"/><path d="m384 320v32z"/><path d="m384 224v64h16v-64z"/><path d="m400 288h-16z"/><path d="m-8-32h16z"/><path d="m-64-64v32z"/><path d="m-64-64v-24z"/><path d="m-64-160v56z"/><path d="m64-88v24z"/><path d="m64-88v-16 40z"/><path d="m64-160h-56z"/><path d="m-8-32v-16z"/><path d="m-8-48v-16-24-16-24-16l16 16v24 16 24 16 16h-16z"/><path d="m-8-160h16v16h-16z"/><path d="m8-128-16-16h16l40 40h-16z"/><path d="m8-104h24 16 16v16h-16-16-24z"/><path d="m8-64 24-24h16l-40 40z"/><path d="m64-88h-16z"/><path d="m8-160v16z"/><path d="m32-104-24-24z"/><path d="m8-144 40 40z"/><path d="m48-88-40 40z"/><path d="m-64-104h16 16 24v16h-24-16-16z"/><path d="m-8-144v16l-24 24h-16z"/><path d="m-64-104h16z"/><path d="m-48-88h16l24 24v16z"/><path d="m-32-88 24 24z"/><path d="m64 224v-64z"/><path d="m352 160h-160z"/><path d="m352 288v-96h32v32 64 32h-32z"/><path d="m160 224h-96z"/><path d="m160 160v64z"/><path d="m384 192h-32z"/><path d="m64 224h96z"/><path d="m-64 160h128z"/><path d="m64 160h-128z"/><path d="m-64 160v128z"/><path d="m-736 128v-96h32l64 64v32z"/><path d="m-160-320v96h-32l-64-64v-32z"/><path d="m-192-224h32z"/><path d="m-256-320v32z"/><path d="m-256-320v32h-224v-32z"/><path d="m-640 96v32z"/><path d="m-160 0v128l-32-32v-96z"/><path d="m-416 128h-192-32v-32h224z"/><path d="m-736 32h32z"/><path d="m-736-320 32 32v96 96h-32z"/><path d="m-1280-96-64-64h64z"/><path d="m-1344-160h-64v-64h128v64z"/><path d="m-1248-96h-32v-64-64-32h32z"/><path d="m-1504-224h-96-64-64v-32h224z"/><path d="m-1280-256v32h-128-96v-32z"/><path d="m-1728-224h64v64 64l-64 64z"/><path d="m-1664-160v-64h64z"/><path d="m-1760-256h32v32 192h-32z"/><path d="m-1728-32v64 32h-32v-96z"/><path d="m-1248-64h-32v-32h32z"/><path d="m-1248 64h-32v-128h32z"/><path d="m-1408 256v-32-64h64 96v96z"/><path d="m-1280 96h32v64h-96z"/><path d="m-1280 96v-32h32v32z"/><path d="m-1408 224v32h-160l-32-32z"/><path d="m-1728 32 32 32h-32z"/><path d="m-1760 256v-192h32 32l32 32v64 96z"/><path d="m-1600 224 32 32h-96v-96z"/><path d="m-1664-96v-64z"/><path d="m-1664 160v-64z"/><path d="m-1600 224-64-64z"/><path d="m-1664-160 64-64z"/><path d="m-1344-160 64 64z"/><path d="m-1280 96-64 64z"/><path d="m-1280-96v32z"/><path d="m-1408-160h64z"/><path d="m-1344 160h-64z"/><path d="m-1728 32v-64z"/><path d="m-1664 96-32-32-32-32z"/><path d="m-1728-32 64-64z"/><path d="m208 192h96 16-128z"/><path d="m304 208v96z"/><path d="m320 192h-16v16 96 16h16z"/><path d="m208 192v16h96v-16z"/><path d="m304 304h-96v16h96z"/><path d="m208 304v-96-16h-16v128h16z"/><path d="m224 352h-32-128-64 160 32z"/><path d="m384 192v160-32-32-64-32-32z"/><path d="m192 160h192-32-160-32z"/><path d="m192 224v96-128z"/><path d="m320 192h64v-32h-192v32z"/><path d="m320 192v128z"/><path d="m384 192h-64v128 32h64z"/><path d="m320 320h-16-96-16z"/><path d="m208 208v96z"/><path d="m208 304h96z"/><path d="m304 208h-96z"/><path d="m304 208h-96v96h96z"/><path d="m224 352h96v-32h-128v32z"/><path d="m192 224v-32-32h-32v64z"/><path d="m192 352v-32-96h-32-96v128z"/><path d="m-64 160v128z"/><path d="m64 224v-64h-128v128l64 64h64z"/><path d="m-8-32h16 56-128z"/><path d="m64-64v-40-56 128z"/><path d="m64-32h-56z"/><path d="m-64-160v56 16 24z"/><path d="m64-160h-56-16-56z"/><path d="m64-32v16h-128v-16z"/><path d="m64-32v-128-16h16v160h-16z"/><path d="m-80-176h16v16 128 16h-16z"/><path d="m64-160h-128v-16h128z"/><path d="m-64-160v96 32z"/><path d="m64-160h-128z"/></g></defs><path d="m-1846-566h3300v1036h-3300z" fill="#fff"/><g stroke="#000"><use fill="none" stroke-miterlimit="0" stroke-width="15" xlink:href="#a"/><use fill="#fff" xlink:href="#a"/></g></svg>