<?xml version="1.0" encoding="utf-8" ?>
<svg baseProfile="tiny" height="100%" version="1.2" viewBox="-220.0 -1612.0 1112.0 3032.0" width="100%" xmlns="http://www.w3.org/2000/svg" xmlns:ev="http://www.w3.org/2001/xml-events" xmlns:xlink="http://www.w3.org/1999/xlink"><defs><g id="bsp_ref"><polygon points="560,-976 464,-976 464,-960 560,-960" /><polygon points="448,-960 464,-960 464,-1056 448,-1056" /><polygon points="448,-1072 448,-1056 560,-1056 560,-1072" /><polygon points="560,-960 576,-960 576,-1072 560,-1072" /><polygon points="464,-1056 464,-976 464,-976 464,-1056" /><polygon points="560,-1056 560,-1056 560,-976 560,-976" /><polygon points="560,-1056 464,-1056 464,-1056 560,-1056" /><polygon points="464,-976 560,-976 560,-976 464,-976" /><polygon points="576,-928 560,-928 560,-816 576,-816" /><polygon points="464,-928 448,-928 448,-816 464,-816" /><polygon points="464,-928 464,-912 560,-912 560,-928" /><polygon points="560,-832 464,-832 464,-816 560,-816" /><polygon points="560,-832 560,-912 560,-912 560,-832" /><polygon points="464,-912 464,-832 464,-832 464,-912" /><polygon points="464,-832 560,-832 560,-832 464,-832" /><polygon points="560,-912 464,-912 464,-912 560,-912" /><polygon points="576,-784 560,-784 560,-672 576,-672" /><polygon points="464,-784 464,-768 560,-768 560,-784" /><polygon points="560,-688 464,-688 464,-672 560,-672" /><polygon points="464,-672 464,-784 448,-784 448,-672" /><polygon points="560,-688 560,-768 560,-768 560,-688" /><polygon points="464,-768 464,-688 464,-688 464,-768" /><polygon points="464,-688 560,-688 560,-688 464,-688" /><polygon points="560,-768 464,-768 464,-768 560,-768" /><polygon points="576,-1168 608,-1168 608,-1088 576,-1088" /><polygon points="608,-1088 608,-864 576,-864 576,-1088" /><polygon points="608,-864 608,-640 576,-640 576,-864" /><polygon points="560,-1168 576,-1168 576,-1120 560,-1120" /><polygon points="576,-1120 576,-896 560,-896 560,-1120" /><polygon points="576,-896 576,-672 560,-672 560,-896" /><polygon points="464,-1168 560,-1168 560,-1056 464,-1056" /><polygon points="400,-1168 464,-1168 464,-1120 400,-1120" /><polygon points="464,-1120 464,-896 400,-896 400,-1120" /><polygon points="464,-896 464,-672 400,-672 400,-896" /><polygon points="560,-912 464,-912 464,-976 560,-976" /><polygon points="560,-768 464,-768 464,-832 560,-832" /><polygon points="464,-688 560,-688 560,-672 464,-672" /><polygon points="576,-672 576,-640 400,-640 400,-672" /><polygon points="608,-1024 608,-1024 608,-848 608,-848" /><polygon points="608,-1152 608,-1168 608,-1168 608,-1152" /><polygon points="608,-1136 608,-1136 608,-1040 608,-1040" /><polygon points="562.8235,-1168 400,-1168 338.8235,-1168 562.8235,-1168" /><polygon points="400,-640 448,-640 448,-432 338.8235,-432" /><polygon points="400,-1104 400,-880 334.1176,-880 334.1176,-1104" /><polygon points="400,-880 400,-656 334.1176,-656 334.1176,-880" /><polygon points="400,-656 400,-640 338.8235,-432 334.1176,-432 334.1176,-656" /><polygon points="608,-848 608,-624 608,-640 608,-848" /><polygon points="608,-1024 608,-1024 608,-864 608,-864" /><polygon points="624,-1040 608,-1040 608,-1136 624,-1136" /><polygon points="624,-1040 624,-1136 624,-1136 624,-1040" /><polygon points="640,-1136 624,-1136 624,-1136 640,-1136" /><polygon points="640,-1040 624,-1040 624,-1136 640,-1136" /><polygon points="640,-1136 640,-1136 640,-1040 640,-1040" /><polygon points="656,-1136 656,-1136 656,-1040 656,-1040" /><polygon points="656,-1040 640,-1040 640,-1136 656,-1136" /><polygon points="656,-1040 672,-1040 672,-1040 656,-1040" /><polygon points="672,-1136 672,-1136 672,-1040 672,-1040" /><polygon points="672,-1040 656,-1040 656,-1136 672,-1136" /><polygon points="672,-1136 672,-1136 688,-1136 688,-1136" /><polygon points="688,-1136 688,-1136 688,-1040 688,-1040" /><polygon points="688,-1040 672,-1040 672,-1136 688,-1136" /><polygon points="544,-1168 480,-1168 480,-1164 544,-1164" /><polygon points="608,-560 608,-640 608,-640" /><polygon points="608,-1024 608,-1024 608,-864 608,-864" /><polygon points="608,-640 608,-640 608,-864 608,-864" /><polygon points="608,-1024 608,-1024 608,-1040 608,-1040" /><polygon points="608,-1136 608,-1136 608,-1152 608,-1152" /><polygon points="704,-1040 688,-1040 688,-1136 704,-1136" /><polygon points="704,-1136 704,-1136 704,-1040 704,-1040" /><polygon points="704,-1136 704,-1136 672,-1136 672,-1136" /><polygon points="672,-1136 672,-1136 720,-1136 720,-1136" /><polygon points="720,-1040 720,-1040 704,-1040 704,-1040" /><polygon points="720,-1136 720,-1136 720,-1040 720,-1040" /><polygon points="720,-1040 704,-1040 704,-1136 720,-1136" /><polygon points="688,-1040 736,-1040 736,-1040 688,-1040" /><polygon points="704,-1040 688,-1040 688,-1040 704,-1040" /><polygon points="736,-1040 720,-1040 720,-1136 736,-1136" /><polygon points="736,-1136 736,-1136 736,-1040 736,-1040" /><polygon points="736,-1136 736,-1136 672,-1136 672,-1136" /><polygon points="672,-1136 672,-1136 752,-1136 752,-1136" /><polygon points="752,-1040 736,-1040 736,-1136 752,-1136" /><polygon points="752,-1136 752,-1136 752,-1040 752,-1040" /><polygon points="736,-1040 736,-1040 688,-1040 688,-1040" /><polygon points="656,-1040 656,-1040 688,-1040 688,-1040" /><polygon points="608,-1040 608,-1040 624,-1040 624,-1040" /><polygon points="624,-1040 624,-1040 640,-1040 640,-1040" /><polygon points="640,-1040 640,-1040 656,-1040 656,-1040" /><polygon points="544,-1164 480,-1164 480,-1168 544,-1168" /><polygon points="480,-1164 480,-1164 480,-1168 480,-1168" /><polygon points="544,-1168 544,-1168 544,-1164 544,-1164" /><polygon points="480,-1168 480,-1168 544,-1168 544,-1168" /><polygon points="544,-1164 544,-1164 480,-1164 480,-1164" /><polygon points="768,-1136 672,-1136 672,-1136 768,-1136" /><polygon points="768,-1040 752,-1040 752,-1136 768,-1136" /><polygon points="736,-1040 736,-1040 688,-1040 688,-1040" /><polygon points="768,-1040 768,-1040 736,-1040 736,-1040" /><polygon points="768,-1136 768,-1136 768,-1040 768,-1040" /><polygon points="752,-1040 736,-1040 736,-1040 752,-1040" /><polygon points="656,-1040 656,-1040 688,-1040 688,-1040" /><polygon points="640,-1040 640,-1040 656,-1040 656,-1040" /><polygon points="624,-1040 624,-1040 640,-1040 640,-1040" /><polygon points="608,-1040 608,-1040 624,-1040 624,-1040" /><polygon points="496,256 496,256 560,256 560,256" /><polygon points="496,128 496,128 560,128 560,128" /><polygon points="560,64 560,64 496,64 496,64" /><polygon points="496,0 496,0 560,0 560,0" /><polygon points="560,0 560,0 560,64 560,64" /><polygon points="496,64 496,64 496,0 496,0" /><polygon points="560,64 496,64 496,0 560,0" /><polygon points="560,128 560,128 560,192 560,192" /><polygon points="560,192 560,192 496,192 496,192" /><polygon points="496,192 496,192 496,128 496,128" /><polygon points="560,192 496,192 496,128 560,128" /><polygon points="560,320 560,320 496,320 496,320" /><polygon points="560,256 560,256 560,320 560,320" /><polygon points="496,320 496,320 496,256 496,256" /><polygon points="560,320 496,320 496,256 560,256" /><polygon points="560,384 560,384 560,448 560,448" /><polygon points="560,448 560,448 496,448 496,448" /><polygon points="496,448 496,448 496,384 496,384" /><polygon points="496,384 496,384 560,384 560,384" /><polygon points="560,448 496,448 496,384 560,384" /><polygon points="608,-96 608,-96 608,80 608,80" /><polygon points="784,-1136 672,-1136 672,-1136 784,-1136" /><polygon points="688,-1040 656,-1040 656,-1040 688,-1040" /><polygon points="784,-1040 784,-1040 656,-1040 656,-1040" /><polygon points="784,-1040 768,-1040 768,-1136 784,-1136" /><polygon points="784,-1136 784,-1136 784,-1040 784,-1040" /><polygon points="256,-144 208,-144 256,-144" /><polygon points="272,-144 480,-144 480,-96 272,-96" /><polygon points="272,304 272,528 256,528 256,304" /><polygon points="272,80 272,304 256,304 256,80" /><polygon points="256,-144 272,-144 272,80 256,80" /><polygon points="560,0 496,0 496,-96 560,-96" /><polygon points="560,-96 608,-96 608,80 560,80" /><polygon points="608,80 608,304 560,304 560,80" /><polygon points="608,304 608,528 560,528 560,304" /><polygon points="560,128 496,128 496,64 560,64" /><polygon points="272,-96 496,-96 496,80 272,80" /><polygon points="496,80 496,304 272,304 272,80" /><polygon points="496,304 496,528 272,528 272,304" /><polygon points="560,256 496,256 496,192 560,192" /><polygon points="560,384 496,384 496,320 560,320" /><polygon points="496,528 496,448 560,448 560,528" /><polygon points="480,-144 400,-144 400,-112 480,-96" /><polygon points="256,-112 256,80 32,80 32,-112" /><polygon points="256,80 256,304 32,304 32,80" /><polygon points="256,304 256,528 32,528 32,304" /><polygon points="448,-1520 464,-1520 432,-1520 416,-1520" /><polygon points="608,-1520 448,-1520 448,-1520 608,-1520" /><polygon points="464,-1520 464,-1472 432,-1472 432,-1520" /><polygon points="608,-1472 464,-1472 464,-1520 608,-1520" /><polygon points="464,-1472 464,-1344 432,-1344 432,-1472" /><polygon points="608,80 608,304 608,304 608,80" /><polygon points="608,304 608,528 608,528 608,304" /><polygon points="800,-1152 800,-1216 800,-1216 800,-1056 800,-1056" /><polygon points="800,-1152 800,-1136 688,-1136 688,-1152" /><polygon points="800,-1152 688,-1152 688,-1216 800,-1216" /><polygon points="800,-1040 784,-1040 784,-1136 800,-1136" /><polygon points="688,-1040 800,-1040 800,-912 688,-912" /><polygon points="800,-912 800,-688 688,-688 688,-912" /><polygon points="608,0 604,0 604,32 608,32" /><polygon points="608,32 604,32 604,32 608,32" /><polygon points="604,0 608,0 608,0 604,0" /><polygon points="568,-1496 560,-1496 560,-1488 568,-1488" /><polygon points="504,-1496 496,-1496 496,-1488 504,-1488" /><polygon points="608,-136 608,-144 608,-144 608,-136" /><polygon points="608,-448 608,-448 608,-624 608,-640" /><polygon points="608,-432 608,-432 576,-432 576,-432" /><polygon points="608,-1168 608,-1168 562.8235,-1168 562.8235,-1168" /><polygon points="448,-1168 416,-1168 416,-1168 448,-1168" /><polygon points="608,-432 584,-432 584,-640 608,-640" /><polygon points="584,-432 448,-432 448,-640 584,-640" /><polygon points="-112,-432 -112,-432 -112,-192 -112,-192" /><polygon points="608,-96 608,-96 512,-96 512,-96" /><polygon points="512,-144 608,-144 608,-96 512,-96" /><polygon points="496,-1496 432,-1496 432,-1488 496,-1488" /><polygon points="608,-1496 568,-1496 568,-1488 608,-1488" /><polygon points="560,-1496 504,-1496 504,-1488 560,-1488" /><polygon points="432,-1488 432,-1488 608,-1488 608,-1488" /><polygon points="504,-1496 504,-1496 504,-1488 504,-1488" /><polygon points="560,-1488 560,-1488 560,-1496 560,-1496" /><polygon points="568,-1496 568,-1496 568,-1488 568,-1488" /><polygon points="560,-1496 560,-1496 568,-1496 568,-1496" /><polygon points="568,-1488 568,-1488 560,-1488 560,-1488" /><polygon points="496,-1488 496,-1488 496,-1496 496,-1496" /><polygon points="504,-1488 504,-1488 496,-1488 496,-1488" /><polygon points="496,-1496 496,-1496 504,-1496 504,-1496" /><polygon points="608,-1496 608,-1496 608,-1488 608,-1488" /><polygon points="432,-1488 432,-1488 432,-1496 432,-1496" /><polygon points="496,-1488 432,-1488 432,-1496 496,-1496" /><polygon points="608,-1488 568,-1488 568,-1496 608,-1496" /><polygon points="560,-1488 504,-1488 504,-1496 560,-1496" /><polygon points="432,-1496 432,-1496 608,-1496 608,-1496" /><polygon points="608,-1344 464,-1344 464,-1472 608,-1472" /><polygon points="608,-320 608,-384 608,-384 608,-320" /><polygon points="608,-136 608,-192 608,-192 608,-136" /><polygon points="800,-1216 688,-1216 688,-1344 800,-1344" /><polygon points="528,-144 512,-144 512,-144 528,-144" /><polygon points="608,-144 608,-144 512,-144 512,-144" /><polygon points="400,-144 480,-144 272,-144 272,-144" /><polygon points="256,-144 272,-144 272,-144 256,-144" /><polygon points="352,-432 528,-432 528,-432 352,-432" /><polygon points="576,-432 352,-432 352,-432 576,-432" /><polygon points="608,-1168 608,-1168 448,-1168 448,-1168" /><polygon points="464,-1168 448,-1168 416,-1168 432,-1168" /><polygon points="464,-1344 608,-1344 608,-1184 464,-1184" /><polygon points="608,-1184 608,-1168 464,-1168 464,-1184" /><polygon points="464,-1344 464,-1216 432,-1216 432,-1344" /><polygon points="464,-1216 464,-1184 432,-1184 432,-1216" /><polygon points="464,-1184 464,-1168 432,-1168 432,-1184" /><polygon points="334.1176,-1104 334.1176,-880 320,-880 320,-1104" /><polygon points="334.1176,-880 334.1176,-656 320,-656 320,-880" /><polygon points="334.1176,-656 334.1176,-432 320,-432 320,-656" /><polygon points="334.1176,-1168 400,-1168 400,-1104 334.1176,-1104" /><polygon points="528,-320 528,-432 608,-432 608,-320" /><polygon points="352,-416 528,-416 528,-320 352,-320" /><polygon points="608,-192 608,-144 528,-144 528,-192" /><polygon points="584,-304 584,-208 352,-208 352,-304" /><polygon points="584,-304 608,-304 608,-192 584,-192" /><polygon points="584,-192 528,-192 528,-208 584,-208" /><polygon points="224,-352 336,-416 352,-416 352,-208 336,-208 224,-272" /><polygon points="208,-352 224,-352 224,-272 208,-272" /><polygon points="528,-432 528,-416 528,-416 528,-432" /><polygon points="576,-304 352,-304 352,-304 576,-304" /><polygon points="608,-320 608,-320 576,-320 576,-320" /><polygon points="528,-208 528,-208 336,-208 336,-208" /><polygon points="224,-272 336,-208 336,-208 224,-272" /><polygon points="400,-144 256,-144 256,-112 400,-112" /><polygon points="480,-96 480,-96 400,-112" /><polygon points="208,-144 256,-144 256,-112 208,-112" /><polygon points="256,-112 208,-112 96,-112 256,-112" /><polygon points="256,-144 208,-144 208,-112 256,-112" /><polygon points="604,32 608,32 608,32 604,32" /><polygon points="608,64 604,64 604,64 608,64" /><polygon points="608,32 604,32 604,64 608,64" /><polygon points="608,32 604,32 604,0 608,0" /><polygon points="608,0 608,0 608,32 608,32" /><polygon points="604,32 604,32 604,0 604,0" /><polygon points="688,-632.2758 688,-408.2758 688,-632.2758" /><polygon points="608,-1216 608,-1216 608,-1344 608,-1344" /><polygon points="624,-1136 624,-1136 608,-1136 608,-1136" /><polygon points="688,-1344 688,-1344 688,-1216 688,-1216" /><polygon points="688,-1328 688,-1232 608,-1232 608,-1328" /><polygon points="504,-1496 504,-1496 504,-1488 504,-1488" /><polygon points="560,-1488 560,-1488 560,-1496 560,-1496" /><polygon points="568,-1496 568,-1496 568,-1488 568,-1488" /><polygon points="608,-1496 568,-1496 568,-1488 608,-1488" /><polygon points="608,-1488 568,-1488 568,-1488 608,-1488" /><polygon points="568,-1496 608,-1496 608,-1496 568,-1496" /><polygon points="560,-1496 504,-1496 504,-1488 560,-1488" /><polygon points="504,-1496 560,-1496 560,-1496 504,-1496" /><polygon points="560,-1488 504,-1488 504,-1488 560,-1488" /><polygon points="496,-1488 496,-1488 496,-1496 496,-1496" /><polygon points="496,-1496 432,-1496 432,-1488 496,-1488" /><polygon points="432,-1496 496,-1496 496,-1496 432,-1496" /><polygon points="496,-1488 432,-1488 432,-1488 496,-1488" /><polygon points="624,-1136 624,-1136 640,-1136 640,-1136" /><polygon points="-112,-336 -112,-288 -112,-288 -112,-336" /><polygon points="112,-336 112,-336 208,-352 208,-352" /><polygon points="112,-336 208,-352 208,-336" /><polygon points="-112,-288 -112,-336 112,-336 112,-288" /><polygon points="112,-288 112,-336 208,-336 208,-288" /><polygon points="112,-288 208,-288 208,-272" /><polygon points="608,64 604,64 604,96 608,96" /><polygon points="608,96 604,96 604,96 608,96" /><polygon points="604,64 608,64 608,64 604,64" /><polygon points="608,64 604,64 604,32 608,32" /><polygon points="608,32 608,32 608,64 608,64" /><polygon points="604,64 604,64 604,32 604,32" /><polygon points="800,-1328 600,-1328 600,-1320 800,-1320" /><polygon points="608,-1496 608,-1496 608,-1488 608,-1488" /><polygon points="432,-1488 432,-1488 432,-1496 432,-1496" /><polygon points="608,-1488 568,-1488 568,-1496 608,-1496" /><polygon points="560,-1488 504,-1488 504,-1496 560,-1496" /><polygon points="496,-1488 432,-1488 432,-1496 496,-1496" /><polygon points="800,-1328 800,-1328 800,-1320 800,-1320" /><polygon points="600,-1320 600,-1320 600,-1328 600,-1328" /><polygon points="768,-1320 728,-1320 728,-1328 768,-1328" /><polygon points="624,-1320 600,-1320 600,-1328 624,-1328" /><polygon points="800,-1320 776,-1320 776,-1328 800,-1328" /><polygon points="720,-1320 680,-1320 680,-1328 720,-1328" /><polygon points="672,-1320 632,-1320 632,-1328 672,-1328" /><polygon points="800,-1320 800,-1320 600,-1320 600,-1320" /><polygon points="600,-1328 600,-1328 800,-1328 800,-1328" /><polygon points="656,-1136 656,-1136 640,-1136 640,-1136" /><polygon points="320,-1168 334.1176,-1168 334.1176,-1104 320,-1104" /><polygon points="320,-1104 320,-880 382.2222,-880 382.2222,-1104" /><polygon points="320,-880 320,-656 382.2222,-656 382.2222,-880" /><polygon points="320,-656 320,-432 342.2222,-432 382.2222,-576 382.2222,-656" /><polygon points="608,528 608,528 560,528 560,528" /><polygon points="496,528 496,528 608,528 608,528" /><polygon points="496,544 496,528 560,528 560,544" /><polygon points="560,528 560,528 560,544 560,544" /><polygon points="496,544 560,544 560,544 496,544" /><polygon points="416,-1168 448,-1168 416,-1168" /><polygon points="604,96 608,96 608,96 604,96" /><polygon points="608,128 604,128 604,128 608,128" /><polygon points="608,96 604,96 604,128 608,128" /><polygon points="608,96 604,96 604,64 608,64" /><polygon points="608,64 608,64 608,96 608,96" /><polygon points="604,96 604,96 604,64 604,64" /><polygon points="504,-1496 504,-1496 504,-1488 504,-1488" /><polygon points="560,-1496 504,-1496 504,-1488 560,-1488" /><polygon points="608,-1496 568,-1496 568,-1488 608,-1488" /><polygon points="504,-1488 504,-1488 608,-1488 608,-1488" /><polygon points="560,-1488 560,-1488 560,-1496 560,-1496" /><polygon points="568,-1496 568,-1496 568,-1488 568,-1488" /><polygon points="560,-1488 568,-1488 568,-1488 560,-1488" /><polygon points="568,-1496 560,-1496 560,-1496 568,-1496" /><polygon points="496,-1488 496,-1488 496,-1496 496,-1496" /><polygon points="496,-1496 432,-1496 432,-1488 496,-1488" /><polygon points="496,-1488 432,-1488 432,-1488 496,-1488" /><polygon points="432,-1496 496,-1496 496,-1496 432,-1496" /><polygon points="800,-1344 800,-1344 800,-1216 800,-1152 800,-1152" /><polygon points="800,-1136 800,-1136 800,-1056 800,-1056" /><polygon points="800,-1216 800,-1216 800,-1344 800,-1344" /><polygon points="800,-1056 800,-832 800,-832 800,-1056" /><polygon points="608,-1136 624,-1136 624,-1136 608,-1136" /><polygon points="640,-1136 656,-1136 656,-1136 640,-1136" /><polygon points="656,-1136 672,-1136 672,-1136 656,-1136" /><polygon points="688,-1136 688,-1136 672,-1136 672,-1136" /><polygon points="688,-1216 688,-1216 688,-1152 688,-1136 688,-1136" /><polygon points="688,-1152 688,-1152 688,-1216 688,-1216" /><polygon points="624,-1040 608,-1040 608,-1040 624,-1040" /><polygon points="640,-1040 624,-1040 624,-1040 640,-1040" /><polygon points="656,-1040 640,-1040 640,-1040 656,-1040" /><polygon points="656,-1040 656,-1040 688,-1040 688,-1040" /><polygon points="688,-1040 688,-1136 608,-1136 608,-1040" /><polygon points="688,-832 688,-832 688,-1040 688,-1040" /><polygon points="688,-1040 688,-1040 688,-832 688,-832" /><polygon points="112,-336 112,-336 -112,-336 -112,-336" /><polygon points="-112,-336 -112,-288 112,-288 112,-336" /><polygon points="112,-336 112,-288 208,-272 208,-336" /><polygon points="-112,-288 -112,-288 112,-288 112,-288" /><polygon points="112,-288 112,-288 208,-272 208,-272" /><polygon points="608,-1496 608,-1496 608,-1488 608,-1488" /><polygon points="432,-1488 432,-1488 432,-1496 432,-1496" /><polygon points="560,-1488 504,-1488 504,-1496 560,-1496" /><polygon points="608,-1488 568,-1488 568,-1496 608,-1496" /><polygon points="504,-1496 504,-1496 608,-1496 608,-1496" /><polygon points="496,-1488 432,-1488 432,-1496 496,-1496" /><polygon points="800,-533.5173 800,-688 800,-688" /><polygon points="768,-1328 728,-1328 728,-1320 768,-1320" /><polygon points="624,-1328 600,-1328 600,-1320 624,-1320" /><polygon points="800,-1328 776,-1328 776,-1320 800,-1320" /><polygon points="720,-1328 680,-1328 680,-1320 720,-1320" /><polygon points="672,-1328 632,-1328 632,-1320 672,-1320" /><polygon points="720,-1320 720,-1320 720,-1328 720,-1328" /><polygon points="768,-1320 768,-1320 768,-1328 768,-1328" /><polygon points="776,-1328 776,-1328 776,-1320 776,-1320" /><polygon points="776,-1320 776,-1320 768,-1320 768,-1320" /><polygon points="768,-1328 768,-1328 776,-1328 776,-1328" /><polygon points="728,-1328 728,-1328 728,-1320 728,-1320" /><polygon points="728,-1320 728,-1320 720,-1320 720,-1320" /><polygon points="720,-1328 720,-1328 728,-1328 728,-1328" /><polygon points="672,-1320 672,-1320 672,-1328 672,-1328" /><polygon points="680,-1328 680,-1328 680,-1320 680,-1320" /><polygon points="680,-1320 680,-1320 672,-1320 672,-1320" /><polygon points="672,-1328 672,-1328 680,-1328 680,-1328" /><polygon points="632,-1328 632,-1328 632,-1320 632,-1320" /><polygon points="624,-1320 624,-1320 624,-1328 624,-1328" /><polygon points="624,-1328 624,-1328 632,-1328 632,-1328" /><polygon points="632,-1320 632,-1320 624,-1320 624,-1320" /><polygon points="464,-1520 448,-1520 416,-1520 432,-1520" /><polygon points="448,-1520 608,-1520 608,-1520 448,-1520" /><polygon points="608,-1520 608,-1472 608,-1472 608,-1520" /><polygon points="608,-1472 608,-1344 608,-1344 608,-1472" /><polygon points="608,-1520 464,-1520 464,-1472 608,-1472" /><polygon points="464,-1472 432,-1472 432,-1344 448,-1344" /><polygon points="464,-1472 464,-1520 432,-1520 432,-1472" /><polygon points="608,-640 608,-448 608,-448 608,-560 608,-640" /><polygon points="608,-864 608,-640 608,-640 608,-864" /><polygon points="608,-1040 608,-1024 608,-1024 608,-1040" /><polygon points="608,-1152 608,-1136 608,-1136 608,-1152" /><polygon points="608,-1152 608,-1152 608,-1088 608,-1088" /><polygon points="608,-1040 608,-1040 608,-1136 608,-1136" /><polygon points="800,-1152 800,-1136 800,-1136 800,-1152" /><polygon points="688,-1136 688,-1152 688,-1152 688,-1136" /><polygon points="688,-1136 800,-1136 800,-1152 688,-1152" /><polygon points="688,-1152 800,-1152 800,-1216 688,-1216" /><polygon points="608,128 604,128 604,160 608,160" /><polygon points="608,160 604,160 604,160 608,160" /><polygon points="604,128 608,128 608,128 604,128" /><polygon points="608,128 604,128 604,96 608,96" /><polygon points="608,96 608,96 608,128 608,128" /><polygon points="604,128 604,128 604,96 604,96" /><polygon points="800,-1328 800,-1328 800,-1320 800,-1320" /><polygon points="600,-1320 600,-1320 600,-1328 600,-1328" /><polygon points="800,-1320 600,-1320 600,-1328 800,-1328" /><polygon points="800,-1320 800,-1320 600,-1320 600,-1320" /><polygon points="600,-1328 600,-1328 800,-1328 800,-1328" /><polygon points="504,-1496 504,-1496 504,-1488 504,-1488" /><polygon points="560,-1488 560,-1488 560,-1496 560,-1496" /><polygon points="568,-1496 568,-1496 568,-1488 568,-1488" /><polygon points="568,-1488 560,-1488 560,-1496 568,-1496" /><polygon points="568,-1488 568,-1488 560,-1488 560,-1488" /><polygon points="560,-1496 560,-1496 568,-1496 568,-1496" /><polygon points="504,-1488 496,-1488 496,-1496 504,-1496" /><polygon points="496,-1488 496,-1488 496,-1496 496,-1496" /><polygon points="504,-1496 496,-1496 496,-1496 504,-1496" /><polygon points="496,-1488 504,-1488 504,-1488 496,-1488" /><polygon points="688,-512 688,-688 800,-688 800,-512" /><polygon points="640,-1520 608,-1520 608,-1520 640,-1520" /><polygon points="608,-432 608,-384 608,-384 608,-432" /><polygon points="608,-136 608,-144 608,-144 608,-136" /><polygon points="608,-192 608,-192 608,-304 608,-304" /><polygon points="608,-1344 608,-1328 608,-1328 608,-1344" /><polygon points="608,-1232 608,-1216 608,-1216 608,-1232" /><polygon points="688,-1216 688,-1232 688,-1232 688,-1216" /><polygon points="688,-1328 688,-1344 688,-1344 688,-1328" /><polygon points="688,-1232 688,-1328 608,-1328 608,-1232" /><polygon points="608,-1328 688,-1328 688,-1328 608,-1328" /><polygon points="688,-1232 608,-1232 608,-1232 688,-1232" /><polygon points="608,-432 608,-432 576,-432 576,-432" /><polygon points="-112,-272 -112,-192 -112,-192 -112,-272" /><polygon points="-112,-288 -112,-272 -112,-272 -112,-288" /><polygon points="-112,-432 -112,-432 -112,-192 -112,-192" /><polygon points="-112,-432 -112,-352 -112,-352 -112,-432" /><polygon points="-112,-336 -112,-288 -112,-288 -112,-336" /><polygon points="-112,-352 -112,-336 -112,-336 -112,-352" /><polygon points="528,-432 528,-320 608,-320 608,-432" /><polygon points="352,-320 528,-320 528,-416 352,-416" /><polygon points="608,-208 608,-304 576,-304 576,-208" /><polygon points="576,-304 352,-304 352,-208 576,-208" /><polygon points="608,-192 528,-192 528,-144 608,-144" /><polygon points="528,-208 528,-192 608,-192 608,-208" /><polygon points="224,-352 208,-352 208,-272 224,-272" /><polygon points="352,-416 336,-416 224,-352 224,-272 336,-208 352,-208" /><polygon points="224,-272 208,-272 208,-272 224,-272" /><polygon points="208,-352 224,-352 224,-352 208,-352" /><polygon points="528,-416 528,-416 336,-416 336,-416" /><polygon points="336,-416 336,-416 224,-352 224,-352" /><polygon points="352,-304 352,-304 352,-320 352,-320" /><polygon points="608,-304 608,-304 576,-304 576,-304" /><polygon points="576,-320 352,-320 352,-320 576,-320" /><polygon points="208,-352 112,-336 208,-336" /><polygon points="208,-272 112,-288 208,-272" /><polygon points="528,-208 528,-208 528,-192 528,-192" /><polygon points="528,-192 528,-192 528,-144 528,-144" /><polygon points="608,528 608,528 496,528 496,528" /><polygon points="272,528 272,528 496,528 496,528" /><polygon points="256,-144 400,-144 400,-112 256,-112" /><polygon points="400,-112 480,-96 480,-96" /><polygon points="400,-144 480,-144 480,-96 400,-112" /><polygon points="400,-112 400,-112 256,-112 256,-112" /><polygon points="400,-112 480,-96 480,-96 400,-112" /><polygon points="96,-144 256,-144 256,-112 96,-112" /><polygon points="560,528 496,528 496,544 560,544" /><polygon points="496,528 496,528 496,544 496,544" /><polygon points="688,-1344 800,-1344 800,-1344 688,-1344" /><polygon points="464,-1344 608,-1344 608,-1472 464,-1472" /><polygon points="464,-1344 464,-1472 448,-1344" /><polygon points="608,-136 608,-96 608,-96 608,-136" /><polygon points="608,-448 608,-448 608,-640 608,-640" /><polygon points="608,-1216 608,-1152 608,-1152 608,-1216" /><polygon points="608,-1152 608,-1168 608,-1168 608,-1152" /><polygon points="608,-1216 608,-1216 608,-1344 608,-1344" /><polygon points="688,-1344 688,-1344 688,-1216 688,-1216" /><polygon points="800,-1344 688,-1344 688,-1216 800,-1216" /><polygon points="608,-144 608,-144 512,-144 512,-144" /><polygon points="576,-432 352,-432 352,-432 576,-432" /><polygon points="352,-432 342.2222,-432 320,-432 338.8235,-432 352,-432" /><polygon points="416,-1168 448,-1168 416,-1168" /><polygon points="448,-1168 464,-1168 432,-1168 416,-1168" /><polygon points="448,-1168 416,-1168 416,-1168 448,-1168" /><polygon points="608,-1344 464,-1344 464,-1184 608,-1184" /><polygon points="608,-1168 608,-1184 464,-1184 464,-1168" /><polygon points="464,-1184 464,-1216 432,-1216 432,-1184" /><polygon points="464,-1168 464,-1184 432,-1184 432,-1168" /><polygon points="464,-1216 464,-1344 432,-1344 432,-1216" /><polygon points="-112,-192 -128,-192 -128,-192 -112,-192" /><polygon points="512,-144 512,-144 512,-96 512,-96" /><polygon points="608,-144 512,-144 512,-96 608,-96" /><polygon points="604,224 608,224 608,224 604,224" /><polygon points="608,512 604,512 604,512 608,512" /><polygon points="604,448 604,512 608,512 608,448" /><polygon points="608,224 604,224 604,448 608,448" /><polygon points="608,288 608,512 608,512 608,288" /><polygon points="604,288 604,224 604,224 604,288" /><polygon points="604,160 608,160 608,160 604,160" /><polygon points="608,224 604,224 604,224 608,224" /><polygon points="608,160 604,160 604,224 608,224" /><polygon points="608,160 604,160 604,128 608,128" /><polygon points="608,128 608,128 608,160 608,160" /><polygon points="604,160 604,160 604,128 604,128" /><polygon points="608,-448 608,-432 608,-432 608,-448" /><polygon points="453.3333,-144 400,-144 272,-144 272,-144" /><polygon points="368,-144 368,-144 480,-144 453.3333,-144" /><polygon points="570.6666,-1168 346.6667,-1168 400,-1168 570.6666,-1168" /><polygon points="608,-1168 608,-1168 448,-1168 448,-1168" /><polygon points="346.6667,-1168 416,-1168 416,-1168 338.8235,-1168 320,-1168" /><polygon points="608,-144 608,-144 608,-96 608,-96" /><polygon points="368,-144 368,-144 496,-144 496,-144" /><polygon points="368,-144 368,-144 272,-144 272,-144" /><polygon points="496,528 272,528 272,528 496,528" /><polygon points="416,528 448,528 448,528 416,528" /><polygon points="480,-144 608,-144 608,-96 480,-96" /><polygon points="512,-96 608,-96 608,-96 512,-96" /><polygon points="480,-96 512,-96 512,-96 480,-96" /><polygon points="608,-64 604,-64 604,-32 608,-32" /><polygon points="608,-32 604,-32 604,-32 608,-32" /><polygon points="604,-64 608,-64 608,-64 604,-64" /><polygon points="608,512 604,512 604,448 608,448" /><polygon points="604,448 604,224 608,224 608,448" /><polygon points="608,224 608,224 608,288 608,288" /><polygon points="604,512 604,512 604,288 604,288" /><polygon points="608,224 604,224 604,160 608,160" /><polygon points="608,160 608,160 608,224 608,224" /><polygon points="604,224 604,224 604,160 604,160" /><polygon points="608,656 608,576 608,576 608,656" /><polygon points="608,704 608,656 608,656 608,880" /><polygon points="608,512 608,512 608,576 608,576" /><polygon points="608,512 608,528 608,528 608,512" /><polygon points="800,-1056 800,-832 800,-832 800,-1056" /><polygon points="800,-688 800,-512 800,-512 800,-533.5173 800,-688" /><polygon points="800,-832 800,-688 800,-688 800,-832" /><polygon points="688,-1136 800,-1136 800,-1136 688,-1136" /><polygon points="800,-1136 688,-1136 688,-912 800,-912" /><polygon points="688,-912 688,-688 800,-688 800,-912" /><polygon points="800,-688 688,-688 688,-512 800,-512" /><polygon points="688,-1040 688,-1136 688,-1136 688,-1040" /><polygon points="688,-688 688,-688 688,-632.2758 688,-632.2758" /><polygon points="688,-688 688,-832 688,-832 688,-688" /><polygon points="272,-144 272,-144 256,-144 256,-144" /><polygon points="256,528 256,528 272,528 272,528" /><polygon points="448,528 464,528 432,528 416,528" /><polygon points="448,528 448,528 608,528 608,528" /><polygon points="416,528 448,528 416,528" /><polygon points="32,528 256,528 256,528" /><polygon points="32,528 -80,528 -80,304 32,304" /><polygon points="464,544 608,544 608,704 464,704" /><polygon points="464,544 464,528 608,528 608,544" /><polygon points="464,528 464,544 432,544 432,528" /><polygon points="608,-96 608,-64 608,-64 608,-96" /><polygon points="608,64 608,64 608,-64 608,-64" /><polygon points="608,288 608,288 608,64 608,64" /><polygon points="608,512 608,512 608,288 608,288" /><polygon points="608,-144 608,-144 608,-128 608,-128" /><polygon points="608,-32 604,-32 604,-64 608,-64" /><polygon points="608,-64 608,-64 608,-32 608,-32" /><polygon points="604,-32 604,-32 604,-64 604,-64" /><polygon points="608,0 604,0 604,0 608,0" /><polygon points="604,-32 608,-32 608,-32 604,-32" /><polygon points="608,-32 604,-32 604,0 608,0" /><polygon points="608,-848 592,-848 592,-816 608,-816" /><polygon points="592,-848 608,-848 608,-848 592,-848" /><polygon points="608,-816 592,-816 592,-816 608,-816" /><polygon points="544,-1168 480,-1168 480,-1164 544,-1164" /><polygon points="208,-144 256,-144 256,-144 208,-144" /><polygon points="-16,-144 208,-144 208,-144 96,-144" /><polygon points="64,-144 -16,-144 -80,-144 -16,-144 64,-144" /><polygon points="128,-144 192,-144 192,-144" /><polygon points="91.022,-144 83,-144 128,-144" /><polygon points="128,-176 128,-192 173,-192 173,-176" /><polygon points="128,-144 83,-144 83,-176 128,-176" /><polygon points="128,528 83,528 91.0222,528" /><polygon points="256,528 208,528 208,528 256,528" /><polygon points="208,528 -16,528 32,528 208,528" /><polygon points="64,528 91.0222,528 64,528" /><polygon points="128,560 128,528 173,528 173,560" /><polygon points="128,560 128,576 83,576 83,560" /><polygon points="608,0 604,0 604,-32 608,-32" /><polygon points="608,-32 608,-32 608,0 608,0" /><polygon points="604,0 604,0 604,-32 604,-32" /><polygon points="604,0 608,0 608,0 604,0" /><polygon points="608,32 604,32 604,32 608,32" /><polygon points="608,0 604,0 604,32 608,32" /><polygon points="608,-816 592,-816 592,-848 608,-848" /><polygon points="608,-848 608,-848 608,-816 608,-816" /><polygon points="592,-816 592,-816 592,-848 592,-848" /><polygon points="240,188 240,233 256,233 256,188" /><polygon points="240,188 256,188 256,143 240,143" /><polygon points="240,188 240,168.8151 240,240.9368 240,233" /><polygon points="256,161.7975 256,140 256,132.1003 256,143" /><polygon points="240,161.7975 240,154 240,188 240,168.8151" /><polygon points="416,528 448,528 416,528" /><polygon points="432,544 464,544 464,704 432,704" /><polygon points="83,-176 83,-192 128,-192 128,-176" /><polygon points="173,-144 128,-144 128,-176 173,-176" /><polygon points="83,-144 64,-144 64,-176 83,-176" /><polygon points="83,560 83,528 128,528 128,560" /><polygon points="173,560 173,528 192,528 192,560" /><polygon points="173,576 128,576 128,560 173,560" /><polygon points="83,560 83,576 64,576 64,560" /><polygon points="256,188 256,154 256,161.7975 256,168.8153" /><polygon points="256,188 240,188 240,154 256,154" /><polygon points="252,184 244,184 244,192 252,192" /><polygon points="800,-309.5173 800,-512 800,-512" /><polygon points="192,-144 173,-144 192,-144" /><polygon points="192,528 128,528 192,528" /><polygon points="688,-584 688,-688 688,-584" /><polygon points="608,32 604,32 604,0 608,0" /><polygon points="608,0 608,0 608,32 608,32" /><polygon points="604,32 604,32 604,0 604,0" /><polygon points="608,64 604,64 604,64 608,64" /><polygon points="604,32 608,32 608,32 604,32" /><polygon points="608,32 604,32 604,64 608,64" /><polygon points="544,-1164 480,-1164 480,-1168 544,-1168" /><polygon points="480,-1164 480,-1164 480,-1168 480,-1168" /><polygon points="544,-1168 544,-1168 544,-1164 544,-1164" /><polygon points="480,-1168 480,-1168 544,-1168 544,-1168" /><polygon points="544,-1164 544,-1164 480,-1164 480,-1164" /><polygon points="240,222 240,188 256,188 256,222" /><polygon points="688,-288 688,-512 800,-512 800,-288" /><polygon points="256,240.9366 256,168.8153 256,188 256,233" /><polygon points="608,704 608,704 608,880 608,880" /><polygon points="382.2222,-1024 382.2222,-800 400,-800 400,-1024" /><polygon points="382.2222,-800 382.2222,-576 400,-640 400,-800" /><polygon points="382.2222,-1168 320,-1168 320,-1104 382.2222,-1104" /><polygon points="-128,1072 -128,1056 -128,1056 -128,1072" /><polygon points="-128,1072 -128,1072 -128,912 -128,912" /><polygon points="416,1056 416,1056 320,1056 320,1056" /><polygon points="448,1056 416,1056 416,1056" /><polygon points="608,928 464,928 464,880 608,880" /><polygon points="464,880 432,880 432,762.6667" /><polygon points="464,880 432,762.6667 432,704 464,704" /><polygon points="608,880 464,880 464,704 608,704" /><polygon points="608,928 608,1056 544,1056 544,928" /><polygon points="544,1056 320,1056 320,928 544,928" /><polygon points="320,1056 96,1056 96,928 320,928" /><polygon points="96,1056 -128,1056 -128,928 96,928" /><polygon points="608,1104 464,1104 464,1056 608,1056" /><polygon points="464,1104 464,1280 440,1104" /><polygon points="-112,928 -128,928 -128,1056 -112,1056" /><polygon points="256,132.1003 256,154 256,135.0633 256,124" /><polygon points="64,-144 91.022,-144 64,-144" /><polygon points="192,-144 164.9775,-144 192,-144" /><polygon points="64,-176 64,-192 83,-192 83,-176" /><polygon points="192,-192 192,-176 173,-176 173,-192" /><polygon points="192,-176 192,-192 173,-192 173,-176" /><polygon points="192,-144 173,-144 173,-176 192,-176" /><polygon points="64,-144 83,-144 83,-176 64,-176" /><polygon points="64,528 83,528 64,528" /><polygon points="192,528 173,528 192,528" /><polygon points="-80,80 -80,-112 32,-112 32,80" /><polygon points="-80,304 -80,80 32,80 32,304" /><polygon points="-80,-144 96,-144 96,-112 -80,-112" /><polygon points="-80,304 -80,528 144,528 144,304" /><polygon points="-80,184 -72,184 -72,-40 -80,-40" /><polygon points="144,192 -80,192 -72,192 144,192" /><polygon points="252,192 252,184 144,184 144,192" /><polygon points="144,184 -80,184 -80,192 144,192" /><polygon points="252,184 252,184 144,184 144,184" /><polygon points="240,125.6889 240,141.6471 240,161.7975 240,143" /><polygon points="256,141.6471 256,154 240,154 240,141.6471" /><polygon points="64,528 83,528 83,560 64,560" /><polygon points="192,560 192,528 173,528 173,560" /><polygon points="192,560 192,576 173,576 173,560" /><polygon points="64,560 64,576 83,576 83,560" /><polygon points="244,192 252,192 252,192 244,192" /><polygon points="252,236 244,236 244,236 252,236" /><polygon points="252,192 252,236 252,236 252,192" /><polygon points="244,236 244,192 244,192 244,236" /><polygon points="244,192 244,236 252,236 252,192" /><polygon points="252,184 244,184 244,184 252,184" /><polygon points="244,140 252,140 252,140 244,140" /><polygon points="252,140 252,184 252,184 252,140" /><polygon points="244,184 244,140 244,140 244,184" /><polygon points="244,140 244,184 252,184 252,140" /><polygon points="252,192 244,192 244,184 252,184" /><polygon points="252,192 252,192 244,192 244,192" /><polygon points="244,192 244,192 244,184 244,184" /><polygon points="244,184 244,184 252,184 252,184" /><polygon points="252,184 252,184 252,192 252,192" /><polygon points="608,64 604,64 604,32 608,32" /><polygon points="608,32 608,32 608,64 608,64" /><polygon points="604,64 604,64 604,32 604,32" /><polygon points="604,64 608,64 608,64 604,64" /><polygon points="608,64 604,64 604,96 608,96" /><polygon points="608,96 604,96 604,96 608,96" /><polygon points="240,252 256,252 256,233 240,233" /><polygon points="256,124 240,124 240,143 256,143" /><polygon points="256,236 240,236 240,222 256,222" /><polygon points="240,140 240,141.6471 240,138.353" /><polygon points="240,140 256,140 256,141.6471 240,141.6471" /><polygon points="-72,-40 -72,-136 -80,-136 -80,-40" /><polygon points="-72,-32 -72,192 152,192 152,-32" /><polygon points="252,192 252,192 144,192 144,192" /><polygon points="144,184 -72,184 -80,184 144,184" /><polygon points="252,184 252,184 252,192 252,192" /><polygon points="252,184 252,192 152,192 152,184" /><polygon points="152,192 -72,192 -72,184 152,184" /><polygon points="252,184 244,184 244,192 252,192" /><polygon points="244,236 244,192 252,192 252,236" /><polygon points="244,184 244,140 252,140 252,184" /><polygon points="640,1328 608,1328 608,1328 640,1328" /><polygon points="608,1328 448,1328 448,1328 608,1328" /><polygon points="608,704 608,704 608,576 608,576" /><polygon points="608,528 608,528 448,528 448,528" /><polygon points="416,528 448,528 448,528 416,528" /><polygon points="464,528 448,528 416,528 432,528" /><polygon points="608,544 464,544 464,704 608,704" /><polygon points="464,528 464,544 608,544 608,528" /><polygon points="464,544 464,528 432,528 432,544" /><polygon points="464,544 432,544 432,704 464,704" /><polygon points="800,-512 800,-288 800,-288 800,-309.5173 800,-512" /><polygon points="688,-512 688,-288 800,-288 800,-512" /><polygon points="256,243.8998 256,222 256,240.9366 256,252" /><polygon points="240,243.8998 240,236 240,214.2023 240,233" /><polygon points="240,243.8998 240,252 240,240.9368 240,222" /><polygon points="256,135.0633 256,188 256,168.8151 256,143" /><polygon points="240,135.0633 240,154 240,138.353 240,125.6889 240,124" /><polygon points="608,-64 608,-64 608,-128 608,-128" /><polygon points="608,-640 608,-624 608,-448 608,-448" /><polygon points="608,-640 608,-448 608,-640" /><polygon points="608,-1152 608,-1152 608,-1072 608,-1072" /><polygon points="608,-1088 608,-864 608,-864 608,-1088" /><polygon points="608,-864 608,-640 608,-640 608,-864" /><polygon points="416,528 272,528 272,528 416,528" /><polygon points="496,528 560,528 560,528 496,528" /><polygon points="608,1328 464,1328 464,1280 608,1280" /><polygon points="464,1280 432,1280 432,1104 440,1104" /><polygon points="464,1280 464,1328 432,1328 432,1280" /><polygon points="608,1280 464,1280 464,1104 608,1104" /><polygon points="608,96 604,96 604,64 608,64" /><polygon points="608,64 608,64 608,96 608,96" /><polygon points="604,96 604,96 604,64 604,64" /><polygon points="608,96 604,96 604,128 608,128" /><polygon points="608,128 604,128 604,128 608,128" /><polygon points="604,96 608,96 608,96 604,96" /><polygon points="568,1296 560,1296 560,1304 568,1304" /><polygon points="504,1296 496,1296 496,1304 504,1304" /><polygon points="504,1304 496,1304 496,1304 504,1304" /><polygon points="496,1296 504,1296 504,1296 496,1296" /><polygon points="64,528 128,528 64,528" /><polygon points="64,-144 64,-144 128,-144" /><polygon points="240,222 240,236 256,236 256,222" /><polygon points="240,154 240,188 256,188 256,154" /><polygon points="240,154 256,154 256,140 240,140" /><polygon points="83,-144 64,-144 64,-144" /><polygon points="83,-176 83,-192 64,-192 64,-176" /><polygon points="173,-176 173,-192 128,-192 128,-176" /><polygon points="173,-144 192,-144 192,-176 173,-176" /><polygon points="83,-144 128,-144 128,-176 83,-176" /><polygon points="83,560 83,528 64,528 64,560" /><polygon points="173,560 173,528 128,528 128,560" /><polygon points="173,560 173,576 192,576 192,560" /><polygon points="173,576 173,560 128,560 128,576" /><polygon points="608,1328 608,1328 608,1280" /><polygon points="608,-1072 608,-848 608,-848 608,-1072" /><polygon points="608,-848 608,-640 608,-624 608,-848" /><polygon points="608,-1168 608,-1168 570.6666,-1168 570.6666,-1168" /><polygon points="576,-640 576,-672 400,-672 400,-640" /><polygon points="560,-688 464,-688 464,-672 560,-672" /><polygon points="464,-768 560,-768 560,-832 464,-832" /><polygon points="464,-912 560,-912 560,-976 464,-976" /><polygon points="464,-1168 400,-1168 400,-1120 464,-1120" /><polygon points="400,-1120 400,-896 464,-896 464,-1120" /><polygon points="400,-896 400,-672 464,-672 464,-896" /><polygon points="560,-1168 464,-1168 464,-1056 560,-1056" /><polygon points="576,-1168 560,-1168 560,-1120 576,-1120" /><polygon points="560,-1120 560,-896 576,-896 576,-1120" /><polygon points="560,-896 560,-672 576,-672 576,-896" /><polygon points="608,-1168 576,-1168 576,-1088 608,-1088" /><polygon points="576,-1088 576,-864 608,-864 608,-1088" /><polygon points="576,-864 576,-640 608,-640 608,-864" /><polygon points="464,-1056 464,-976 464,-976 464,-1056" /><polygon points="560,-976 560,-1056 560,-1056 560,-976" /><polygon points="560,-1056 464,-1056 464,-1056 560,-1056" /><polygon points="464,-976 560,-976 560,-976 464,-976" /><polygon points="560,-832 560,-912 560,-912 560,-832" /><polygon points="464,-912 464,-832 464,-832 464,-912" /><polygon points="464,-832 560,-832 560,-832 464,-832" /><polygon points="560,-912 464,-912 464,-912 560,-912" /><polygon points="560,-688 560,-768 560,-768 560,-688" /><polygon points="464,-768 464,-688 464,-688 464,-768" /><polygon points="464,-688 560,-688 560,-688 464,-688" /><polygon points="560,-768 464,-768 464,-768 560,-768" /><polygon points="448,-640 400,-640 342.2222,-432 448,-432" /><polygon points="608,-640 584,-640 584,-432 608,-432" /><polygon points="584,-640 448,-640 448,-432 584,-432" /><polygon points="400,-1168 382.2222,-1168 382.2222,-1024 400,-1024" /><polygon points="432,1056 416,1056 448,1056 464,1056" /><polygon points="416,1056 432,1056 464,1056 448,1056" /><polygon points="416,928 448,928 416,928" /><polygon points="432,928 416,928 448,928 464,928" /><polygon points="416,928 432,928 464,928 448,928" /><polygon points="416,928 416,928 448,928" /><polygon points="432,880 464,880 464,928 432,928" /><polygon points="432,1056 464,1056 464,1104 432,1104" /><polygon points="504,1296 504,1296 504,1304 504,1304" /><polygon points="560,1296 504,1296 504,1304 560,1304" /><polygon points="608,1296 568,1296 568,1304 608,1304" /><polygon points="504,1304 504,1304 608,1304 608,1304" /><polygon points="560,1304 560,1304 560,1296 560,1296" /><polygon points="568,1296 568,1296 568,1304 568,1304" /><polygon points="560,1296 560,1296 568,1296 568,1296" /><polygon points="568,1304 568,1304 560,1304 560,1304" /><polygon points="496,1304 496,1304 496,1296 496,1296" /><polygon points="496,1296 432,1296 432,1304 496,1304" /><polygon points="432,1296 496,1296 496,1296 432,1296" /><polygon points="496,1304 432,1304 432,1304 496,1304" /><polygon points="240,233 256,233 256,252 240,252" /><polygon points="256,143 240,143 240,124 256,124" /><polygon points="240,143 256,143 256,188 240,188" /><polygon points="256,188 240,188 240,222 256,222" /><polygon points="240,188 240,135.0633 240,143 240,168.815" /><polygon points="252,192 244,192 244,184 252,184" /><polygon points="252,192 252,192 244,192 244,192" /><polygon points="244,192 244,192 244,184 244,184" /><polygon points="244,184 244,184 252,184 252,184" /><polygon points="252,184 252,184 252,192 252,192" /><polygon points="608,1296 608,1296 608,1304 608,1304" /><polygon points="432,1304 432,1304 432,1296 432,1296" /><polygon points="560,1304 504,1304 504,1296 560,1296" /><polygon points="608,1304 568,1304 568,1296 608,1296" /><polygon points="560,1296 568,1296 568,1296 560,1296" /><polygon points="568,1304 560,1304 560,1304 568,1304" /><polygon points="504,1296 504,1296 608,1296 608,1296" /><polygon points="496,1304 432,1304 432,1296 496,1296" /><polygon points="256,214.2024 256,236 256,243.8998 256,233" /><polygon points="240,168.815 240,188 240,214.2023 240,222" /><polygon points="256,168.8151 256,222 256,214.2024 256,188" /><polygon points="208,-144 -16,-144 208,-144" /><polygon points="256,-144 256,-144 192,-144 192,-144" /><polygon points="164.9775,-144 173,-144 128,-144" /><polygon points="128,-176 128,-192 83,-192 83,-176" /><polygon points="128,-144 173,-144 173,-176 128,-176" /><polygon points="256,528 192,528 192,528 256,528" /><polygon points="164.9775,528 192,528 192,528" /><polygon points="64,528 -16,528 -80,528 -16,528 64,528" /><polygon points="128,528 173,528 164.9775,528" /><polygon points="128,528 83,528 83,560 128,560" /><polygon points="128,576 128,560 83,560 83,576" /><polygon points="608,128 604,128 604,96 608,96" /><polygon points="608,96 608,96 608,128 608,128" /><polygon points="604,128 604,128 604,96 604,96" /><polygon points="608,128 604,128 604,160 608,160" /><polygon points="604,128 608,128 608,128 604,128" /><polygon points="608,160 604,160 604,160 608,160" /><polygon points="240,188 256,188 256,233 240,233" /><polygon points="352,-144 368,-144 368,-144 352,-144" /><polygon points="608,-144 608,-144 496,-144 496,-144" /><polygon points="368,-144 360,-144 360,-136 368,-136" /><polygon points="368,-144 368,-136 504,-136 504,-144" /><polygon points="688,-136 688,-136 688,-360 688,-360" /><polygon points="504,1296 504,1296 504,1304 504,1304" /><polygon points="560,1304 560,1304 560,1296 560,1296" /><polygon points="568,1296 568,1296 568,1304 568,1304" /><polygon points="608,1296 568,1296 568,1304 608,1304" /><polygon points="568,1296 608,1296 608,1296 568,1296" /><polygon points="608,1304 568,1304 568,1304 608,1304" /><polygon points="560,1296 504,1296 504,1304 560,1304" /><polygon points="560,1304 504,1304 504,1304 560,1304" /><polygon points="504,1296 560,1296 560,1296 504,1296" /><polygon points="496,1304 496,1304 496,1296 496,1296" /><polygon points="496,1296 432,1296 432,1304 496,1304" /><polygon points="496,1304 432,1304 432,1304 496,1304" /><polygon points="432,1296 496,1296 496,1296 432,1296" /><polygon points="416,1328 432,1328 464,1328 448,1328" /><polygon points="432,1328 416,1328 448,1328 464,1328" /><polygon points="608,528 608,528 608,512 608,512" /><polygon points="608,-144 608,-144 608,-128 608,-128" /><polygon points="480,-144 368,-144 368,-144 480,-144" /><polygon points="352,-144 352,-144 272,-144 272,-144" /><polygon points="560,-960 560,-1072 576,-1072 576,-960" /><polygon points="448,-1056 448,-1072 560,-1072 560,-1056" /><polygon points="464,-1056 464,-960 448,-960 448,-1056" /><polygon points="464,-960 464,-976 560,-976 560,-960" /><polygon points="464,-816 464,-832 560,-832 560,-816" /><polygon points="560,-912 464,-912 464,-928 560,-928" /><polygon points="448,-928 464,-928 464,-816 448,-816" /><polygon points="560,-928 576,-928 576,-816 560,-816" /><polygon points="448,-672 448,-784 464,-784 464,-672" /><polygon points="464,-672 464,-688 560,-688 560,-672" /><polygon points="560,-768 464,-768 464,-784 560,-784" /><polygon points="560,-784 576,-784 576,-672 560,-672" /><polygon points="496,-136 496,-136 368,-136 368,-136" /><polygon points="496,-136 368,-136 368,-144 496,-144" /><polygon points="608,160 604,160 604,128 608,128" /><polygon points="608,128 608,128 608,160 608,160" /><polygon points="604,160 604,160 604,128 604,128" /><polygon points="608,160 604,160 604,192 608,192" /><polygon points="604,160 608,160 608,160 604,160" /><polygon points="608,192 604,192 604,192 608,192" /><polygon points="608,1296 608,1296 608,1304 608,1304" /><polygon points="432,1304 432,1304 432,1296 432,1296" /><polygon points="608,1304 568,1304 568,1296 608,1296" /><polygon points="560,1304 504,1304 504,1296 560,1296" /><polygon points="496,1304 432,1304 432,1296 496,1296" /><polygon points="608,880 608,1104 608,1104 608,880" /><polygon points="688,-136 688,-136 688,-360 688,-360" /><polygon points="688,-360 688,-386.7586 688,-584 688,-584 688,-408.2758 688,-360" /><polygon points="272,-144 272,-144 256,-144 256,-144" /><polygon points="256,528 256,528 272,528 272,528" /><polygon points="-128,912 -128,928 -128,928 -128,912" /><polygon points="-128,912 -128,912 -128,1072 -128,1072" /><polygon points="320,1056 96,1056 96,1056 320,1056" /><polygon points="96,1056 -128,1056 -128,1056 96,1056" /><polygon points="416,1056 416,1056 448,1056" /><polygon points="320,928 416,928 416,928 320,928" /><polygon points="96,928 320,928 320,928 96,928" /><polygon points="-128,928 96,928 96,928 -128,928" /><polygon points="608,880 464,880 464,928 608,928" /><polygon points="464,880 432,880 432,928 464,928" /><polygon points="464,880 608,880 608,704 464,704" /><polygon points="464,880 464,704 432,704 432,880" /><polygon points="608,1056 608,928 544,928 544,1056" /><polygon points="544,928 320,928 320,1056 544,1056" /><polygon points="320,928 96,928 96,1056 320,1056" /><polygon points="96,928 -128,928 -128,1056 96,1056" /><polygon points="608,1056 464,1056 464,1104 608,1104" /><polygon points="464,1104 432,1104 432,1280 440,1280" /><polygon points="464,1056 432,1056 432,1104 464,1104" /><polygon points="-112,1056 -112,1056 -128,1056 -128,1056" /><polygon points="-128,928 -128,928 -112,928 -112,928" /><polygon points="-112,1056 -128,1056 -128,928 -112,928" /><polygon points="-128,1056 -128,1056 -128,928 -128,928" /><polygon points="-112,928 -112,928 -112,1056 -112,1056" /><polygon points="608,-64 608,64 608,64 608,-64" /><polygon points="608,64 608,288 608,288 608,64" /><polygon points="608,288 608,512 608,512 608,288" /><polygon points="608,-64 608,-64 608,32 608,32" /><polygon points="800,-85.5173 800,-288 800,-288" /><polygon points="608,192 604,192 604,160 608,160" /><polygon points="608,160 608,160 608,192 608,192" /><polygon points="604,192 604,192 604,160 604,160" /><polygon points="688,-360 688,-386.7586 688,-360" /><polygon points="496,1296 432,1296 432,1304 496,1304" /><polygon points="608,1296 568,1296 568,1304 608,1304" /><polygon points="560,1296 504,1296 504,1304 560,1304" /><polygon points="432,1304 432,1304 608,1304 608,1304" /><polygon points="504,1296 504,1296 504,1304 504,1304" /><polygon points="560,1304 560,1304 560,1296 560,1296" /><polygon points="568,1296 568,1296 568,1304 568,1304" /><polygon points="496,1304 496,1304 496,1296 496,1296" /><polygon points="608,256 608,240 608,240 608,256" /><polygon points="608,32 608,256 608,256 608,32" /><polygon points="608,240 624,240 624,240 608,240" /><polygon points="608,-48 608,-48 688,-48 688,-48" /><polygon points="800,-64 688,-64 688,-288 800,-288" /><polygon points="688,-64 688,-48 688,-48 688,-64" /><polygon points="688,-64 688,-64 688,-136 688,-136" /><polygon points="688,-64 688,-48 688,-48" /><polygon points="800,-64 800,-48 688,-48 688,-64" /><polygon points="800,-48 800,64 688,64 688,-48" /><polygon points="688,-48 688,64 608,64 608,-48" /><polygon points="720,144 720,128 720,128 720,144" /><polygon points="720,80 768,80 768,96 720,96" /><polygon points="720,112 736,112 736,128 720,128" /><polygon points="784,64 784,80 720,80 720,64" /><polygon points="752,96 752,112 720,112 720,96" /><polygon points="752,112 752,96 752,96 752,112" /><polygon points="784,80 784,64 784,64 784,80" /><polygon points="768,96 768,80 768,80 768,96" /><polygon points="736,128 736,112 736,112 736,128" /><polygon points="720,144 608,144 608,64 720,64" /><polygon points="672,192 672,176 672,176 672,192" /><polygon points="688,160 688,176 672,176 672,160" /><polygon points="672,144 704,144 704,160 672,160" /><polygon points="704,160 704,144 704,144 704,160" /><polygon points="688,176 688,160 688,160 688,176" /><polygon points="672,192 608,192 608,144 672,144" /><polygon points="656,192 656,208 608,208 608,192" /><polygon points="608,224 608,208 640,208 640,224" /><polygon points="608,240 608,224 624,224 624,240" /><polygon points="640,224 640,208 640,208 640,224" /><polygon points="656,208 656,192 656,192 656,208" /><polygon points="608,1296 608,1296 608,1304 608,1304" /><polygon points="432,1304 432,1304 432,1296 432,1296" /><polygon points="496,1304 432,1304 432,1296 496,1296" /><polygon points="608,1304 568,1304 568,1296 608,1296" /><polygon points="560,1304 504,1304 504,1296 560,1296" /><polygon points="432,1296 432,1296 608,1296 608,1296" /><polygon points="608,1328 448,1328 448,1328 608,1328" /><polygon points="608,1280 608,1328 608,1328 608,1104 608,1104" /><polygon points="464,1328 464,1280 432,1280 432,1328" /><polygon points="608,1280 464,1280 464,1328 608,1328" /><polygon points="464,1280 608,1280 608,1104 464,1104" /><polygon points="464,1280 464,1104 440,1280" /><polygon points="504,1296 504,1296 504,1304 504,1304" /><polygon points="560,1304 560,1304 560,1296 560,1296" /><polygon points="568,1296 568,1296 568,1304 568,1304" /><polygon points="568,1304 560,1304 560,1296 568,1296" /><polygon points="568,1304 568,1304 560,1304 560,1304" /><polygon points="560,1296 560,1296 568,1296 568,1296" /><polygon points="496,1304 496,1304 496,1296 496,1296" /><polygon points="504,1304 496,1304 496,1296 504,1296" /><polygon points="496,1296 496,1296 504,1296 504,1296" /><polygon points="504,1304 504,1304 496,1304 496,1304" /><polygon points="496,544 496,528 560,528 560,544" /><polygon points="560,528 560,528 560,544 560,544" /><polygon points="496,544 560,544 560,544 496,544" /><polygon points="800,-288 800,-64 800,-64 800,-85.5173 800,-288" /><polygon points="688,-288 688,-64 800,-64 800,-288" /><polygon points="496,-144 496,-144 480,-144 480,-144" /><polygon points="144,192 -80,192 -80,304 144,304" /><polygon points="144,-144 -80,-144 -80,-136 144,-136" /><polygon points="152,-136 -72,-136 -72,-32 152,-32" /><polygon points="608,-48 608,-48 608,-64 608,-64" /><polygon points="608,-64 608,-64 608,32 608,32" /><polygon points="608,224 608,240 624,240 624,224" /><polygon points="704,80 704,96 768,96 768,80" /><polygon points="736,128 736,112 720,112 720,128" /><polygon points="784,80 784,64 704,64 704,80" /><polygon points="704,64 688,64 688,160 704,160" /><polygon points="672,176 688,176 688,-48 672,-48" /><polygon points="656,208 656,192 608,192 608,208" /><polygon points="608,208 608,224 640,224 640,208" /><polygon points="608,192 672,192 672,-48 608,-48" /><polygon points="752,112 752,96 704,96 704,112" /><polygon points="720,112 704,112 704,144 720,144" /><polygon points="688,64 704,64 704,64 688,64" /><polygon points="800,64 800,64 704,64 704,64" /><polygon points="688,-48 688,64 688,64 688,-48" /><polygon points="784,64 784,64 800,64 800,64" /><polygon points="704,144 704,144 720,144 720,144" /><polygon points="768,80 768,80 784,80 784,80" /><polygon points="752,96 752,96 768,96 768,96" /><polygon points="736,112 736,112 752,112 752,112" /><polygon points="720,128 720,128 736,128 736,128" /><polygon points="656,192 656,192 672,192 672,192" /><polygon points="688,160 688,160 704,160 704,160" /><polygon points="672,176 672,176 688,176 688,176" /><polygon points="640,208 640,208 656,208 656,208" /><polygon points="624,224 624,224 640,224 640,224" /><polygon points="624,240 624,240 624,224 624,224" /><polygon points="496,528 560,528 560,528 496,528" /><polygon points="496,528 496,528 496,544 496,544" /><polygon points="560,528 496,528 496,544 560,544" /><polygon points="608,32 608,256 608,256 608,32" /><polygon points="608,-128 608,-128 608,32 608,32" /><polygon points="608,-128 608,-64 608,-64 608,-128" /><polygon points="800,64 800,64 800,240 800,240" /><polygon points="704,64 800,64 800,240 704,240" /><polygon points="480,-144 496,-144 496,-144 480,-144" /><polygon points="368,-144 480,-144 480,-144 368,-144" /><polygon points="560,528 560,528 608,528 608,528" /><polygon points="272,528 272,528 496,528 496,528" /><polygon points="496,-136 496,-136 496,-144 496,-144" /><polygon points="368,-144 368,-144 368,-136 368,-136" /><polygon points="496,-144 368,-144 368,-136 496,-136" /><polygon points="704,68 704,80 800,80 800,68" /><polygon points="800,68 800,80 800,80 800,68" /><polygon points="800,80 704,80 704,80 800,80" /><polygon points="704,68 800,68 800,68 704,68" /><polygon points="504,-144 608,-144 608,-144 504,-144" /><polygon points="368,-144 368,-144 496,-144 496,-144" /><polygon points="504,-136 496,-136 496,-144 504,-144" /><polygon points="496,-136 504,-136 504,-136 496,-136" /><polygon points="504,-136 504,-144 504,-144 504,-136" /><polygon points="368,-136 360,-136 360,-144 368,-144" /><polygon points="496,-136 368,-136 368,-144 496,-144" /><polygon points="360,-136 368,-136 368,-136 360,-136" /><polygon points="496,-136 496,-136 368,-136 368,-136" /><polygon points="360,-144 360,-136 360,-136 360,-144" /><polygon points="256,-144 256,-144 208,-144 208,-144" /><polygon points="208,528 208,528 256,528 256,528" /><polygon points="208,528 -16,528 208,528" /><polygon points="360,-144 360,-144 352,-144 352,-144" /><polygon points="608,512 608,528 608,528 608,512" /><polygon points="608,256 608,288 608,288 608,256" /><polygon points="608,288 608,512 608,512 608,288" /><polygon points="608,32 608,256 608,256 608,32" /><polygon points="608,-144 608,-144 608,80 608,80" /><polygon points="608,80 608,304 608,304 608,80" /><polygon points="608,304 608,528 608,528 608,304" /><polygon points="608,-144 608,-144 496,-144 496,-144" /><polygon points="360,-144 368,-144 368,-144 360,-144" /><polygon points="352,-144 360,-144 360,-144 352,-144" /><polygon points="272,-144 352,-144 352,-144 272,-144" /><polygon points="256,-144 256,-144 208,-144" /><polygon points="256,-144 272,-144 272,-144 256,-144" /><polygon points="608,528 560,528 560,528 608,528" /><polygon points="496,528 272,528 272,528 496,528" /><polygon points="272,528 256,528 256,528 272,528" /><polygon points="256,528 208,528 256,528" /><polygon points="496,0 496,64 496,64 496,0" /><polygon points="496,128 496,192 496,192 496,128" /><polygon points="496,256 496,320 496,320 496,256" /><polygon points="496,384 496,448 496,448 496,384" /><polygon points="560,448 496,448 496,528 560,528" /><polygon points="560,320 496,320 496,384 560,384" /><polygon points="560,64 496,64 496,128 560,128" /><polygon points="560,192 496,192 496,256 560,256" /><polygon points="560,-144 496,-144 496,0 560,0" /><polygon points="608,-144 560,-144 560,80 608,80" /><polygon points="560,80 560,304 608,304 608,80" /><polygon points="560,304 560,528 608,528 608,304" /><polygon points="560,128 496,128 496,128 560,128" /><polygon points="496,64 560,64 560,64 496,64" /><polygon points="560,0 496,0 496,0 560,0" /><polygon points="560,64 560,0 560,0 560,64" /><polygon points="560,256 496,256 496,256 560,256" /><polygon points="496,192 560,192 560,192 496,192" /><polygon points="560,192 560,128 560,128 560,192" /><polygon points="496,320 560,320 560,320 496,320" /><polygon points="560,320 560,256 560,256 560,320" /><polygon points="560,448 560,384 560,384 560,448" /><polygon points="496,448 560,448 560,448 496,448" /><polygon points="560,384 496,384 496,384 560,384" /><polygon points="256,304 256,528 272,528 272,304" /><polygon points="256,80 256,304 272,304 272,80" /><polygon points="272,-144 256,-144 256,80 272,80" /><polygon points="496,-144 272,-144 272,80 496,80" /><polygon points="272,80 272,304 496,304 496,80" /><polygon points="272,304 272,528 496,528 496,304" /><polygon points="256,304 256,192 144,192 144,304" /><polygon points="256,528 256,304 144,304 144,528" /><polygon points="256,-32 256,-136 152,-136 152,-32" /><polygon points="256,192 256,-32 152,-32 152,192" /><polygon points="256,-136 256,-144 144,-144 144,-136" /><polygon points="800,240 704,240 704,240 800,240" /><polygon points="688,-64 688,64 800,64 800,-64" /><polygon points="800,64 704,64 704,240 800,240" /><polygon points="800,-64 800,64 800,64 800,-64" /><polygon points="688,-64 688,-136 688,-136 688,-48 688,-48" /><polygon points="704,64 704,64 704,240 704,240" /><polygon points="560,0 496,0 496,64 560,64" /><polygon points="560,128 496,128 496,192 560,192" /><polygon points="560,256 496,256 496,320 560,320" /><polygon points="560,384 496,384 496,448 560,448" /><polygon points="800,80 704,80 704,68 800,68" /><polygon points="704,80 704,80 704,68 704,68" /></g></defs><rect fill="#fff" height="3032.0" id="background" width="1112.0" x="-220.0" y="-1612.0" /><use fill="none" stroke="black" stroke-miterlimit="0" stroke-width="15" xlink:href="#bsp_ref" /><use fill="white" stroke="black" stroke-width="1" xlink:href="#bsp_ref" /></svg>