<?xml version="1.0" encoding="utf-8" ?>
<svg baseProfile="tiny" height="100%" version="1.2" viewBox="-147.0 -1619.0 1894.0 1766.0" width="100%" xmlns="http://www.w3.org/2000/svg" xmlns:ev="http://www.w3.org/2001/xml-events" xmlns:xlink="http://www.w3.org/1999/xlink"><defs><g id="bsp_ref"><polygon points="1584,-1456 1584,-1456 1584,-1312 1584,-1312" /><polygon points="1584,-768 1584,-768 1584,-768 1584,-768 1584,-688 1584,-688" /><polygon points="16,-928 16,-854.7501 16,-823.25 16,-768 16,-704 16,-704 16,-768 16,-928" /><polygon points="16,-576 16,-528 16,-528 16,-576" /><polygon points="1584,-16 1584,-16 1536,-16 1536,-16" /><polygon points="1440,-1456 1216,-1456 1216,-1456 1384,-1456 1440,-1456" /><polygon points="64,-1456 16,-1456 16,-1456 16,-1456 64,-1456" /><polygon points="16,-160 16,-240 16,-384 64,-384 64,-288 64,-160" /><polygon points="64,-64 16,-64 16,-160 64,-160" /><polygon points="240,-16 16,-16 16,-64 64,-64 192,-64 240,-64" /><polygon points="320,-64 384,-64 384,-16 240,-16 240,-64" /><polygon points="384,-256 384,-64 320,-64 320,-256" /><polygon points="480,-320 256,-320 256,-384 448,-384 480,-384" /><polygon points="672,-384 720,-384 720,-320 704,-320 480,-320 480,-384" /><polygon points="112,-552 112,-536 112,-528 16,-528 16,-576 64,-576 112,-576" /><polygon points="192,-512 192,-384 64,-384 16,-384 16,-512" /><polygon points="112,-536 128,-536 128,-528 112,-528" /><polygon points="176,-576 176,-552 128,-552 112,-552 112,-576" /><polygon points="176,-528 128,-528 128,-536 128,-552 176,-552" /><polygon points="64,-704 16,-704 16,-768 54.4286,-768 58,-768 64,-768" /><polygon points="64,-704 64,-768 86,-768 116,-768 176,-768 176,-640 176,-576 112,-576 64,-576" /><polygon points="192,-768 192,-640 176,-640 176,-768" /><polygon points="672,-384 480,-384 448,-384 448,-512 672,-512" /><polygon points="720,-512 720,-384 672,-384 672,-512" /><polygon points="408,-768 448,-768 448,-576 448,-544 256,-544 256,-768" /><polygon points="448,-544 448,-512 448,-384 256,-384 256,-544" /><polygon points="16,-854.7501 27,-874 41,-867 16,-823.25" /><polygon points="16,-768 16,-823.25 41,-867 45,-874 64,-907.25 64,-784.75 54.4286,-768" /><polygon points="64,-768 58,-768 98,-838 113,-831 86,-768" /><polygon points="49.2859,-913 60,-938 74,-931 42.2222,-875.3889 34.7647,-879.1176" /><polygon points="102,-845 116,-869.4999 116,-844.25 116,-838" /><polygon points="86,-768 113,-831 116,-838 116,-768" /><polygon points="64,-944.5333 63,-945 64,-947.3333" /><polygon points="54.4286,-768 64,-784.75 116,-875.75 116,-869.4999 102,-845 98.2222,-838.3889 98,-838 58,-768" /><polygon points="64,-907.25 45,-874 42.2222,-875.3889 64,-913.5" /><polygon points="31,-881 49.2859,-913 34.7647,-879.1176" /><polygon points="112,-994 128,-994 176,-994 176,-980.75 135,-909 131,-902 116,-875.75 64,-784.75 64,-907.25 64,-913.5 110,-994" /><polygon points="176,-949.25 149,-902 135,-909 176,-980.75" /><polygon points="145,-895 149,-902 176,-949.25 176,-768 116,-768 116,-838 116,-844.25" /><polygon points="116,-869.4999 116,-875.75 131,-902 145,-895 116,-844.25" /><polygon points="16,-928 16,-1008 64,-1008 64,-947.3333 63,-945 60,-938 49.2859,-913 31,-881 27,-874 16,-854.7501" /><polygon points="64,-947.3333 64,-1008 112,-1008 112,-997.5 110,-994 78,-938 64,-944.5333" /><polygon points="112,-997.5 112,-994 110,-994" /><polygon points="176,-994 128,-994 128,-1008 176,-1008" /><polygon points="64,-1152 192,-1152 192,-1024 16,-1024 16,-1152" /><polygon points="16,-1232 16,-1376 16,-1456 64,-1456 64,-1376 64,-1232" /><polygon points="64,-1152 16,-1152 16,-1232 64,-1232" /><polygon points="256,-1216 256,-1408 408,-1408 408,-1216 408,-1184 256,-1184" /><polygon points="408,-1184 408,-992 408,-960 256,-960 256,-992 256,-1184" /><polygon points="408,-960 408,-768 256,-768 256,-960" /><polygon points="408,-1184 408,-1216 448,-1216 448,-1152 448,-1024 448,-992 408,-992" /><polygon points="448,-992 448,-800 448,-768 408,-768 408,-960 408,-992" /><polygon points="1152,-256 1152,-64 1152,-16 1088,-16 1088,-256" /><polygon points="944,-320 928,-320 720,-320 720,-384 720,-512 896,-512 944,-512" /><polygon points="960,-512 1152,-512 1152,-320 944,-320 944,-512" /><polygon points="1376,-16 1312,-16 1152,-16 1152,-64 1376,-64" /><polygon points="1536,-64 1536,-16 1376,-16 1376,-64" /><polygon points="1216,-256 1216,-320 1440,-320 1440,-256" /><polygon points="1440,-320 1472,-320 1536,-320 1536,-256 1440,-256" /><polygon points="1536,-96 1536,-256 1536,-320 1584,-320 1584,-240 1584,-96" /><polygon points="1584,-16 1536,-16 1536,-64 1536,-96 1584,-96" /><polygon points="1472,-768 1584,-768 1584,-688 1584,-544 1472,-544" /><polygon points="1584,-544 1584,-464 1584,-320 1536,-320 1472,-320 1472,-544" /><polygon points="736,-896 512,-896 512,-960 736,-960" /><polygon points="896,-960 896,-896 736,-896 736,-960" /><polygon points="960,-736 960,-832 1152,-832 1152,-736 1152,-608 960,-608" /><polygon points="1152,-608 1152,-512 960,-512 960,-608" /><polygon points="632,-1216 448,-1216 408,-1216 408,-1408 480,-1408 632,-1408" /><polygon points="856,-1216 672,-1216 632,-1216 632,-1408 704,-1408 856,-1408" /><polygon points="928,-1408 960,-1408 960,-1216 896,-1216 856,-1216 856,-1408" /><polygon points="960,-1216 960,-1408 1006,-1408 1152,-1408 1152,-1248 1152,-1184 960,-1184" /><polygon points="1152,-1184 1152,-1024 960,-1024 960,-1152 960,-1184" /><polygon points="1184,-832 1152,-832 960,-832 960,-960 960,-1024 1152,-1024 1184,-1024" /><polygon points="1408,-832 1216,-832 1184,-832 1184,-1024 1216,-1024 1408,-1024" /><polygon points="1440,-1024 1584,-1024 1584,-832 1440,-832 1408,-832 1408,-1024" /><polygon points="1472,-1232 1472,-1312 1472,-1408 1472,-1456 1584,-1456 1584,-1312 1584,-1232" /><polygon points="1584,-1088 1472,-1088 1472,-1232 1584,-1232" /><polygon points="1440,-1408 1216,-1408 1216,-1456 1440,-1456" /><polygon points="1472,-1456 1472,-1408 1440,-1408 1440,-1456" /><polygon points="192,-384 192,-512 192,-512 192,-384" /><polygon points="192,-640 192,-768 192,-768 192,-736 192,-640" /><polygon points="192,-1024 192,-1152 192,-1152 192,-1024" /><polygon points="1536,-256 1536,-256 1440,-256 1440,-256" /><polygon points="384,-256 320,-256 320,-256 384,-256" /><polygon points="256,-544 256,-384 256,-320 256,-320 256,-512 256,-544" /><polygon points="256,-768 256,-544 256,-544 256,-736 256,-768" /><polygon points="256,-992 256,-960 256,-768 256,-768 256,-960 256,-992" /><polygon points="256,-1216 256,-1184 256,-992 256,-992 256,-1184 256,-1216" /><polygon points="1216,-320 1216,-256 1216,-256 1216,-320" /><polygon points="1472,-1088 1584,-1088 1584,-1088 1472,-1088" /><polygon points="1440,-1024 1408,-1024 1216,-1024 1216,-1024 1440,-1024" /><polygon points="1584,-832 1584,-832 1472,-832 1440,-832 1440,-832" /><polygon points="1440,-320 1216,-320 1216,-320 1216,-320 1440,-320" /><polygon points="1472,-544 1472,-320 1472,-320 1472,-544" /><polygon points="672,-512 448,-512 448,-512 672,-512" /><polygon points="896,-512 720,-512 672,-512 672,-512 896,-512" /><polygon points="1216,-1024 1184,-1024 1152,-1024 1152,-1024 1160,-1024 1216,-1024" /><polygon points="1152,-1408 1152,-1408 1152,-1248 1152,-1248" /><polygon points="1152,-832 1152,-832 1152,-736 1152,-736" /><polygon points="480,-1408 408,-1408 256,-1408 256,-1408 480,-1408" /><polygon points="704,-1408 632,-1408 480,-1408 480,-1408 704,-1408" /><polygon points="928,-1408 856,-1408 704,-1408 704,-1408 928,-1408" /><polygon points="1006,-1408 960,-1408 928,-1408 928,-1408 1006,-1408" /><polygon points="448,-1216 448,-1216 448,-1152 448,-1152" /><polygon points="960,-1216 960,-1216 928,-1216 896,-1216 896,-1216" /><polygon points="896,-896 896,-960 896,-960 896,-928 896,-896" /><polygon points="960,-736 960,-608 960,-512 960,-512 960,-576 960,-736" /><polygon points="960,-960 960,-832 960,-736 960,-736 960,-768 960,-928 960,-960" /><polygon points="960,-1152 960,-1024 960,-960 960,-960 960,-1152" /><polygon points="512,-960 512,-896 512,-896 512,-960" /><polygon points="896,-896 896,-896 896,-896 736,-896 736,-896" /><polygon points="736,-960 512,-960 512,-960 512,-960 736,-960" /><polygon points="944,-320 1152,-320 1152,-320 1088,-320 1056,-320 928,-320 928,-320" /><polygon points="1152,-64 1152,-256 1152,-256 1152,-256 1152,-64" /><polygon points="1376,-64 1152,-64 1152,-64 1376,-64" /><polygon points="384,-16 384,-64 384,-256 384,-256 384,-256 384,-16" /><polygon points="64,-1456 64,-1456 64,-1376 64,-1376" /><polygon points="112,-1008 64,-1008 16,-1008 16,-1008 112,-1008" /><polygon points="176,-1008 128,-1008 128,-1008 176,-1008" /><polygon points="176,-949.25 176,-980.75 176,-994 176,-1008 176,-1008 176,-768 176,-768" /><polygon points="98.2222,-838.3889 102,-845 102,-845 101.9198,-844.8596 98.2222,-838.3889" /><polygon points="64,-384 192,-384 192,-384 192,-384 64,-384" /><polygon points="112,-528 128,-528 176,-528 176,-528 16,-528 16,-528" /><polygon points="16,-704 64,-704 64,-704 32,-704 16,-704" /><polygon points="176,-640 192,-640 192,-640 192,-640 176,-640" /><polygon points="176,-552 176,-576 176,-640 176,-640 176,-528 176,-528" /><polygon points="1584,-1312 1584,-1456 1584,-1456 1584,-1248 1584,-1248" /><polygon points="1584,-1312 1584,-1248 1584,-1088 1584,-1088 1584,-1232 1584,-1312" /><polygon points="1584,-1024 1584,-1024 1584,-992 1584,-832 1584,-832 1584,-832 1584,-1024" /><polygon points="1584,-1456 1584,-1456 1472,-1456 1440,-1456 1440,-1456" /><polygon points="416,-1456 256,-1456 192,-1456 192,-1456 416,-1456" /><polygon points="640,-1456 480,-1456 416,-1456 416,-1456 640,-1456" /><polygon points="864,-1456 704,-1456 640,-1456 640,-1456 864,-1456" /><polygon points="1088,-1456 1006,-1456 928,-1456 864,-1456 864,-1456 1088,-1456" /><polygon points="192,-992 192,-960 192,-768 192,-768 192,-992" /><polygon points="192,-1376 192,-1184 192,-1152 192,-1152 192,-1376" /><polygon points="1440,-256 1376,-256 1216,-256 1216,-256 1440,-256" /><polygon points="1440,-256 1536,-256 1536,-256 1376,-256 1376,-256" /><polygon points="1088,-256 1088,-256 1056,-256 1056,-256" /><polygon points="1152,-256 1152,-256 1088,-256 1088,-256" /><polygon points="256,-1408 256,-1408 256,-1216 256,-1216" /><polygon points="1216,-1456 1216,-1456 1216,-1408 1216,-1408" /><polygon points="1216,-608 1216,-768 1216,-768 1216,-544 1216,-544" /><polygon points="1440,-1088 1216,-1088 1216,-1088 1440,-1088" /><polygon points="1440,-1024 1216,-1024 1216,-1088 1440,-1088" /><polygon points="1472,-1088 1584,-1088 1584,-1024 1440,-1024 1440,-1088" /><polygon points="1584,-1024 1584,-1024 1440,-1024 1440,-1024" /><polygon points="1584,-768 1584,-768 1472,-768 1472,-768" /><polygon points="1472,-768 1472,-768 1440,-768 1440,-768" /><polygon points="1216,-832 1440,-832 1440,-768 1216,-768" /><polygon points="1440,-832 1472,-832 1472,-824 1472,-808 1472,-768 1440,-768" /><polygon points="1472,-808 1476,-808 1484,-808 1488,-808 1584,-808 1584,-768 1472,-768" /><polygon points="1488,-824 1584,-824 1584,-808 1488,-808" /><polygon points="1472,-832 1584,-832 1584,-824 1488,-824 1472,-824" /><polygon points="1488,-808 1484,-808 1484,-808 1484,-808 1484,-808 1488,-808" /><polygon points="1484,-808 1476,-808 1476,-808 1484,-808" /><polygon points="1440,-832 1216,-832 1216,-832 1408,-832 1440,-832" /><polygon points="960,-512 960,-512 944,-512 896,-512 896,-512" /><polygon points="1160,-1232 1160,-1456 1176,-1456 1176,-1232" /><polygon points="1176,-1200 1160,-1200 1160,-1232 1176,-1232" /><polygon points="1176,-1232 1176,-1456 1216,-1456 1216,-1408 1216,-1312 1216,-1232" /><polygon points="1216,-1088 1176,-1088 1176,-1184 1176,-1188 1176,-1196 1176,-1200 1176,-1232 1216,-1232" /><polygon points="1160,-1088 1160,-1184 1176,-1184 1176,-1088" /><polygon points="1216,-1024 1160,-1024 1160,-1088 1176,-1088 1216,-1088" /><polygon points="1152,-1248 1152,-1408 1152,-1456 1160,-1456 1160,-1232 1152,-1232" /><polygon points="1160,-1232 1160,-1200 1160,-1184 1160,-1088 1160,-1024 1152,-1024 1152,-1232" /><polygon points="1088,-1456 1152,-1456 1152,-1408 1006,-1408 1006,-1456" /><polygon points="1176,-1200 1176,-1196 1176,-1196 1176,-1196 1176,-1196 1176,-1200" /><polygon points="1176,-1196 1176,-1188 1176,-1188 1176,-1196" /><polygon points="1152,-1408 1152,-1408 1006,-1408 1006,-1408" /><polygon points="1152,-1248 1152,-1232 1152,-1024 1152,-1024 1152,-1184 1152,-1248" /><polygon points="1170,-832 1216,-832 1216,-768 1216,-608 1170,-608" /><polygon points="1216,-608 1216,-544 1216,-512 1170,-512 1170,-608" /><polygon points="1154,-832 1170,-832 1170,-608 1154,-608" /><polygon points="1170,-608 1170,-512 1154,-512 1154,-608" /><polygon points="1152,-736 1152,-832 1154,-832 1154,-608 1152,-608" /><polygon points="1154,-608 1154,-512 1152,-512 1152,-608" /><polygon points="1216,-832 1170,-832 1154,-832 1152,-832 1152,-832 1184,-832 1216,-832" /><polygon points="1152,-736 1152,-608 1152,-512 1152,-512 1152,-608 1152,-736" /><polygon points="480,-1408 256,-1408 256,-1456 416,-1456 480,-1456" /><polygon points="704,-1408 480,-1408 480,-1456 640,-1456 704,-1456" /><polygon points="928,-1408 704,-1408 704,-1456 864,-1456 928,-1456" /><polygon points="1006,-1408 928,-1408 928,-1456 1006,-1456" /><polygon points="896,-1152 896,-1152 736,-1152 736,-1152" /><polygon points="960,-1208 960,-1216 960,-1216 960,-1184 960,-1152 960,-1152" /><polygon points="672,-1152 512,-1152 472,-1152 448,-1152 448,-1216 672,-1216" /><polygon points="704,-1216 704,-1208 704,-1192 704,-1152 672,-1152 672,-1216" /><polygon points="704,-1192 708,-1192 720,-1192 720,-1152 704,-1152" /><polygon points="928,-1208 720,-1208 704,-1208 704,-1216 896,-1216 928,-1216" /><polygon points="960,-1216 960,-1208 928,-1208 928,-1216" /><polygon points="960,-1152 958,-1152 942,-1152 896,-1152 736,-1152 720,-1152 720,-1192 720,-1208 928,-1208 960,-1208" /><polygon points="672,-1216 448,-1216 448,-1216 632,-1216 672,-1216" /><polygon points="896,-1216 704,-1216 672,-1216 672,-1216 856,-1216 896,-1216" /><polygon points="896,-1152 896,-960 896,-960 896,-1152" /><polygon points="896,-800 896,-768 896,-576 896,-576 896,-800" /><polygon points="960,-576 960,-512 896,-512 896,-576" /><polygon points="896,-576 896,-768 942,-768 958,-768 960,-768 960,-736 960,-576" /><polygon points="896,-960 896,-1152 942,-1152 942,-928 896,-928" /><polygon points="942,-928 942,-832 942,-816 942,-768 896,-768 896,-800 896,-896 896,-928" /><polygon points="942,-768 942,-816 958,-816 958,-768" /><polygon points="942,-1152 958,-1152 958,-928 942,-928" /><polygon points="958,-928 958,-832 942,-832 942,-928" /><polygon points="958,-1152 960,-1152 960,-960 960,-928 958,-928" /><polygon points="960,-928 960,-768 958,-768 958,-816 958,-832 958,-928" /><polygon points="736,-576 672,-576 512,-576 512,-576 736,-576" /><polygon points="512,-1152 512,-1152 512,-960 512,-960" /><polygon points="512,-896 512,-896 512,-800 512,-800" /><polygon points="472,-576 456,-576 456,-640 472,-640" /><polygon points="512,-576 472,-576 472,-640 472,-656 512,-656" /><polygon points="456,-880 456,-960 472,-960 512,-960 512,-896 512,-800 512,-736 456,-736" /><polygon points="512,-736 512,-656 472,-656 456,-656 456,-736" /><polygon points="456,-960 456,-1088 472,-1088 472,-960" /><polygon points="448,-1024 448,-1104 456,-1104 456,-1088 456,-960 456,-880 448,-880" /><polygon points="456,-880 456,-736 456,-656 448,-656 448,-800 448,-880" /><polygon points="456,-656 456,-640 456,-576 448,-576 448,-656" /><polygon points="472,-1088 472,-1104 472,-1152 512,-1152 512,-960 472,-960" /><polygon points="456,-1104 448,-1104 448,-1152 472,-1152 472,-1104" /><polygon points="448,-800 448,-656 448,-576 448,-576 448,-768 448,-800" /><polygon points="448,-1024 448,-880 448,-800 448,-800 448,-992 448,-1024" /><polygon points="448,-1152 448,-1104 448,-1024 448,-1024 448,-1152" /><polygon points="672,-512 448,-512 448,-576 456,-576 472,-576 512,-576 672,-576" /><polygon points="896,-512 672,-512 672,-576 736,-576 896,-576" /><polygon points="448,-576 448,-512 448,-512 448,-544 448,-576" /><polygon points="1216,-512 1216,-320 1170,-320 1170,-464 1170,-468 1170,-480 1170,-512" /><polygon points="1170,-512 1170,-480 1154,-480 1154,-512" /><polygon points="1154,-512 1154,-480 1154,-464 1154,-320 1152,-320 1152,-512" /><polygon points="1154,-320 1154,-464 1170,-464 1170,-320" /><polygon points="1152,-320 1154,-320 1170,-320 1216,-320 1216,-256 1152,-256 1088,-256 1088,-296 1088,-312 1088,-320" /><polygon points="608,-312 560,-312 544,-312 384,-312 384,-320 480,-320 608,-320" /><polygon points="832,-312 784,-312 608,-312 608,-320 704,-320 832,-320" /><polygon points="1056,-312 1008,-312 832,-312 832,-320 928,-320 1056,-320" /><polygon points="1088,-320 1088,-312 1056,-312 1056,-320" /><polygon points="784,-296 608,-296 560,-296 560,-312 608,-312 784,-312" /><polygon points="1008,-296 832,-296 784,-296 784,-312 832,-312 1008,-312" /><polygon points="1056,-312 1088,-312 1088,-296 1056,-296 1008,-296 1008,-312" /><polygon points="608,-256 384,-256 384,-296 544,-296 560,-296 608,-296" /><polygon points="832,-256 608,-256 608,-296 784,-296 832,-296" /><polygon points="1056,-256 832,-256 832,-296 1008,-296 1056,-296" /><polygon points="1088,-296 1088,-256 1056,-256 1056,-296" /><polygon points="384,-312 544,-312 544,-296 384,-296" /><polygon points="384,-320 384,-312 384,-296 384,-256 320,-256 256,-256 256,-288 256,-320" /><polygon points="560,-312 560,-312 556,-312 548,-312 544,-312 544,-312" /><polygon points="1152,-512 1152,-320 1152,-320 1152,-512" /><polygon points="480,-320 384,-320 256,-320 256,-320 480,-320" /><polygon points="704,-320 608,-320 480,-320 480,-320 704,-320" /><polygon points="928,-320 832,-320 704,-320 704,-320 720,-320 928,-320" /><polygon points="256,-1408 192,-1408 192,-1456 256,-1456" /><polygon points="192,-1376 192,-1408 256,-1408 256,-1216 256,-1184 192,-1184" /><polygon points="256,-1184 256,-992 256,-960 192,-960 192,-992 192,-1024 192,-1152 192,-1184" /><polygon points="256,-960 256,-768 256,-736 192,-736 192,-768 192,-960" /><polygon points="256,-736 256,-544 256,-512 192,-512 192,-640 192,-736" /><polygon points="256,-512 256,-320 256,-288 192,-288 192,-384 192,-512" /><polygon points="256,-288 256,-256 192,-256 192,-288" /><polygon points="1536,-256 1536,-256 1536,-96 1536,-64 1536,-64 1536,-256" /><polygon points="192,-1152 192,-1152 64,-1152 64,-1152 192,-1152" /><polygon points="78,-938 78,-938 63,-945 63,-945 63,-945 64,-944.5333 78,-938" /><polygon points="98,-838 98,-838 113,-831 113,-831 113,-831 98,-838" /><polygon points="74.0803,-931.1405 78,-938 78,-938 74,-931 74,-931" /><polygon points="133.679,-900.4381 152,-891 152,-891 74.0803,-931.1405 74.0803,-931.1405" /><polygon points="98.2222,-838.3889 101.9198,-844.8596 101.9197,-844.8596 98.2222,-838.3889" /><polygon points="116,-838 126.7143,-863 116,-844.25" /><polygon points="126.7143,-863 144.8261,-894.6957 133.679,-900.4381 116,-869.5 116,-844.25" /><polygon points="123,-834 152,-891 144.8261,-894.6957 126.7143,-863 116,-838 115.8617,-837.6773" /><polygon points="116,-838 116,-844.25 116,-869.5 102,-845" /><polygon points="115.8617,-837.6773 113,-831 113,-831 115.8617,-837.6773" /><polygon points="102,-845 102,-845 116,-838 116,-838" /><polygon points="115.8617,-837.6773 116,-838 116,-838 113,-831 113,-831" /><polygon points="102,-845 116,-869.5 133.679,-900.4381 74.0803,-931.1405 74,-931 42.3211,-875.5619 101.9198,-844.8596" /><polygon points="34.883,-879.3936 60,-938 60.1383,-938.3227 53,-942 24,-885" /><polygon points="60,-938 34.883,-879.3936 42.3211,-875.5619 74,-931" /><polygon points="60.1383,-938.3227 63,-945 63,-945 60.1383,-938.3227" /><polygon points="42.3211,-875.5619 34.883,-879.3936 24,-885 24,-885 42.3211,-875.5619" /><polygon points="60.1383,-938.3227 60,-938 60,-938 63,-945 63,-945" /><polygon points="74,-931 74,-931 60,-938 60,-938" /><polygon points="98,-838 98,-838 98.2222,-838.3889 98.2222,-838.3889" /><polygon points="123,-834 123,-834 152,-891 152,-891 152,-891 123,-834" /><polygon points="53,-942 53,-942 24,-885 24,-885 24,-885 53,-942" /><polygon points="145,-895 131,-902 135,-909 149,-902" /><polygon points="60.1383,-938.3227 63,-945 78,-938 74.0803,-931.1405" /><polygon points="113,-831 98,-838 98.2222,-838.3889 101.9197,-844.8596 115.8617,-837.6773" /><polygon points="41,-867 27,-874 31,-881 45,-874" /><polygon points="60.1383,-938.3227 74.0803,-931.1405 152,-891 152,-891 109.8395,-912.7191 102.6988,-916.3976 101.9036,-916.8073 90.7458,-922.5552 87.9894,-923.9752 81.2021,-927.4716 80.8313,-927.6627 53,-942 53,-942" /><polygon points="27,-874 41,-867 41,-867 27,-874" /><polygon points="78,-938 78,-938 74.0803,-931.1405 74.0803,-931.1405" /><polygon points="131,-902 145,-895 145,-895 131,-902" /><polygon points="135,-909 131,-902 131,-902 135,-909" /><polygon points="149,-902 135,-909 135,-909 149,-902" /><polygon points="145,-895 149,-902 149,-902 145,-895" /><polygon points="123,-834 123,-834 115.8617,-837.6773 115.8617,-837.6773" /><polygon points="101.9197,-844.8596 101.9198,-844.8596 42.3211,-875.5619 42.3211,-875.5619" /><polygon points="45,-874 42.2222,-875.3889 42.2222,-875.3889 45,-874" /><polygon points="41,-867 45,-874 45,-874 41,-867" /><polygon points="42.2222,-875.3889 31,-881 31,-881 34.7647,-879.1176 42.2222,-875.3889" /><polygon points="53,-942 53,-942 60.1383,-938.3227 60.1383,-938.3227" /><polygon points="31,-881 27,-874 27,-874 31,-881" /><polygon points="98,-838 98,-838 98.2222,-838.3889 98.2222,-838.3889" /><polygon points="16,-1024 16,-1024 16,-1152 16,-1152 16,-1024" /><polygon points="16,-512 16,-512 16,-384 16,-384 16,-512" /><polygon points="192,-528 192,-640 192,-640 192,-512 192,-512" /><polygon points="192,-1008 192,-1010 192,-1024 192,-1024 192,-992 192,-992" /><polygon points="1216,-1088 1216,-1088 1216,-1232 1216,-1312 1216,-1312" /><polygon points="1216,-1312 1216,-1312 1216,-1408 1216,-1408" /><polygon points="1216,-1088 1216,-1088 1440,-1088 1440,-1088" /><polygon points="1472,-1088 1472,-1088 1440,-1088 1440,-1088" /><polygon points="1472,-1312 1472,-1312 1472,-1232 1472,-1088 1472,-1088 1472,-1088" /><polygon points="1472,-1408 1472,-1408 1472,-1312 1472,-1312" /><polygon points="1216,-1408 1216,-1408 1216,-1408 1440,-1408 1440,-1408" /><polygon points="1440,-1408 1440,-1408 1472,-1408 1472,-1408" /><polygon points="192,-64 192,-64 320,-64 320,-64 240,-64 192,-64" /><polygon points="176,-768 192,-768 192,-768 192,-768 176,-768" /><polygon points="16,-1024 192,-1024 192,-1010 128,-1010 112,-1010 16,-1010" /><polygon points="16,-1024 16,-1024 192,-1024 192,-1024 192,-1024" /><polygon points="192,-1010 192,-1008 176,-1008 128,-1008 128,-1010" /><polygon points="112,-1008 16,-1008 16,-1010 112,-1010" /><polygon points="176,-1008 192,-1008 192,-992 192,-768 176,-768" /><polygon points="152,-891 123,-834 80.8724,-855.7021 81,-856 84,-863 91.7143,-881 106,-906 109.8395,-912.7191" /><polygon points="56,-878 80.8313,-927.6627 81.2021,-927.4716 81,-927 78,-920 59.2131,-876.1639" /><polygon points="77,-867 101.9036,-916.8073 102.6988,-916.3976 99,-909 77.7778,-866.5555" /><polygon points="80.8724,-855.7021 78.4055,-856.973 81,-856" /><polygon points="85,-917 77.2857,-899 63,-874 59.2131,-876.1639 78,-920" /><polygon points="109.8395,-912.7191 110,-913 103,-917 102.6988,-916.3976" /><polygon points="73,-859 78.4055,-856.973 73.3012,-859.6024" /><polygon points="52,-870 59,-867 52.2289,-870.4578" /><polygon points="81.2021,-927.4716 87.9894,-923.9752 81,-927" /><polygon points="106,-906 91.7143,-881 82.0615,-864.1077 77.7778,-866.5555 99,-909" /><polygon points="91.7143,-881 84,-863 82.0615,-864.1077" /><polygon points="59,-867 63,-874 77.2857,-899 90.7458,-922.5552 101.9036,-916.8073 77,-867 73.3012,-859.6024 58.9866,-866.9766" /><polygon points="85,-917 87.9894,-923.9752 90.7458,-922.5552 77.2857,-899" /><polygon points="56,-878 52.2289,-870.4578 24,-885 53,-942 80.8313,-927.6627" /><polygon points="52.2289,-870.4578 58.9866,-866.9766 73.3012,-859.6024 78.4055,-856.973 80.8724,-855.7021 123,-834 123,-834 42.3211,-875.5619 24,-885 24,-885" /><polygon points="192,-384 192,-384 192,-384 64,-384 64,-384" /><polygon points="176,-640 192,-640 192,-528 176,-528" /><polygon points="176,-528 192,-528 192,-512 16,-512 16,-528" /><polygon points="192,-512 192,-512 192,-512 16,-512 16,-512" /><polygon points="192,-64 192,-64 64,-64 64,-64" /><polygon points="64,-64 64,-64 64,-160 64,-288 64,-288" /><polygon points="64,-288 64,-288 64,-384 64,-384" /><polygon points="88,-924 88,-924 81,-927 81,-927 81,-927 88,-924" /><polygon points="73,-859 73,-859 81,-856 81,-856 81,-856 78.4055,-856.973 73,-859" /><polygon points="56,-878 56,-878 52,-870 52,-870 52,-870 52.2289,-870.4578 56,-878" /><polygon points="110,-913 110,-913 103,-917 103,-917 103,-917 110,-913" /><polygon points="78,-920 81,-927 56.0544,-877.9689 59.2131,-876.1639" /><polygon points="90.6294,-922.3514 87.8653,-923.6857 85,-917 77.2857,-899" /><polygon points="73.3472,-859.6945 77,-867 101.9445,-916.8889 90.6294,-922.3514 77.2857,-899 63,-874 59,-867 58.8301,-866.7027" /><polygon points="82.0615,-864.1077 84,-863 91.7143,-881" /><polygon points="78,-920 59.2131,-876.1639 63,-874 77.2857,-899 85,-917" /><polygon points="91.7143,-881 106,-906 99,-909 77.7778,-866.5555 82.0615,-864.1077" /><polygon points="110,-913 106,-906 91.7143,-881 84,-863 81,-856" /><polygon points="99,-909 102.75,-916.5 101.9445,-916.8889 77,-867 77.7778,-866.5555" /><polygon points="52,-870 58.8301,-866.7027 59,-867" /><polygon points="102.75,-916.5 103,-917 103,-917 102.75,-916.5" /><polygon points="90.6294,-922.3514 101.9445,-916.8889 102.75,-916.5 102.75,-916.5 87.8653,-923.6857 87.8653,-923.6857" /><polygon points="56.0544,-877.9689 81,-927 81,-927 56.0544,-877.9689" /><polygon points="87.8653,-923.6857 88,-924 88,-924 87.9894,-923.9752 85,-917 85,-917" /><polygon points="73.3472,-859.6945 73,-859 73,-859 73.3012,-859.6024 77,-867 77,-867" /><polygon points="106,-906 106,-906 99,-909 99,-909" /><polygon points="102.75,-916.5 99,-909 99,-909 102.6988,-916.3976 103,-917 103,-917" /><polygon points="110,-913 110,-913 109.8395,-912.7191 106,-906 106,-906" /><polygon points="84,-863 84,-863 81,-856 81,-856" /><polygon points="77.7778,-866.5555 77,-867 77,-867 77.7778,-866.5555 84,-863 84,-863" /><polygon points="63,-874 63,-874 59,-867 59,-867" /><polygon points="85,-917 85,-917 78,-920 78,-920" /><polygon points="78,-920 78,-920 81,-927 81,-927" /><polygon points="56.0544,-877.9689 56,-878 56,-878 59.2131,-876.1639 63,-874 63,-874" /><polygon points="59,-867 59,-867 52,-870 52,-870" /><polygon points="87.8653,-923.6857 85,-917 78,-920 81,-927 88,-924" /><polygon points="81,-856 62.6531,-864.8572 85,-917 87.8653,-923.6857 102.75,-916.5 110,-913" /><polygon points="102.75,-916.5 103,-917 110,-913" /><polygon points="81,-856 73,-859 73.3472,-859.6944" /><polygon points="52,-870 56,-878 56.0544,-877.9689" /><polygon points="62.6531,-864.8572 55.7877,-868.1714 78,-920 85,-917" /><polygon points="78,-920 55.7877,-868.1714 52,-870 56.0544,-877.9689 81,-927" /><polygon points="110,-913 110,-913 81,-856 81,-856" /><polygon points="73.3472,-859.6944 73.3472,-859.6945 58.8301,-866.7027 52,-870 52,-870" /><polygon points="56,-878 56,-878 56.0544,-877.9689 56.0544,-877.9689" /><polygon points="88,-924 88,-924 87.8653,-923.6857 87.8653,-923.6857" /><polygon points="73,-859 73,-859 73.3472,-859.6945 73.3472,-859.6944" /><polygon points="1152,-256 1152,-256 1216,-256 1376,-256 1376,-256" /><polygon points="1536,-256 1536,-256 1376,-256 1376,-256" /><polygon points="512,-1152 512,-1152 672,-1152 704,-1152 720,-1152 736,-1152 736,-1152" /><polygon points="896,-1152 896,-1152 736,-1152 736,-1152" /><polygon points="896,-960 896,-960 896,-1152 896,-1152" /><polygon points="512,-1152 512,-1152 512,-960 512,-960" /><polygon points="512,-960 512,-960 736,-960 736,-960" /><polygon points="896,-960 896,-960 896,-960 736,-960 736,-960" /><polygon points="1152,-256 1152,-256 1152,-64 1152,-64" /><polygon points="1536,-64 1536,-64 1536,-256 1536,-256" /><polygon points="1152,-64 1152,-64 1376,-64 1376,-64" /><polygon points="1536,-64 1536,-64 1376,-64 1376,-64" /><polygon points="116,-1018 116,-1010 124,-1010 124,-1018" /><polygon points="116,-1010 116,-1018 116,-1018 116,-1010" /><polygon points="112,-1010 112,-1010 112,-1010 112,-1008 112,-1008 112,-1010" /><polygon points="124,-1010 128,-1010 128,-1010 124,-1010" /><polygon points="124,-1010 116,-1010 112,-1010 112,-1010 128,-1010 128,-1010" /><polygon points="116,-536 116,-528 124,-528 124,-536" /><polygon points="116,-536 112,-536 112,-536 116,-536" /><polygon points="124,-536 124,-528 124,-528 124,-536" /><polygon points="128,-536 128,-536 128,-536 128,-552 128,-552 128,-552 128,-552 128,-536" /><polygon points="112,-536 116,-536 124,-536 128,-536 128,-536 112,-536" /><polygon points="16,-1008 16,-1008 16,-1008 16,-928 16,-928" /><polygon points="16,-576 16,-576 16,-528 16,-512 16,-512 16,-576" /><polygon points="192,-288 192,-384 192,-384 192,-384 192,-288 192,-256 192,-256" /><polygon points="192,-288 192,-256 192,-64 192,-64 192,-288" /><polygon points="192,-256 192,-256 256,-256 320,-256 320,-256" /><polygon points="320,-64 192,-64 192,-256 320,-256" /><polygon points="320,-64 320,-256 320,-256 320,-256 320,-64" /><polygon points="116,-1018 116,-1018 124,-1018 124,-1018" /><polygon points="124,-1018 124,-1018 124,-1010 124,-1010" /><polygon points="124,-528 124,-528 116,-528 116,-528" /><polygon points="116,-528 116,-528 116,-536 116,-536" /><polygon points="116,-528 116,-536 124,-536 124,-528" /><polygon points="16,-688 16,-704 32,-704 32,-688" /><polygon points="32,-576 16,-576 16,-592 32,-592" /><polygon points="16,-608 16,-672 32,-672 32,-608" /><polygon points="64,-576 32,-576 32,-592 32,-608 32,-672 32,-688 32,-704 64,-704" /><polygon points="16,-608 32,-608 32,-608 32,-608 16,-608" /><polygon points="16,-688 32,-688 32,-688 32,-688 16,-688" /><polygon points="32,-576 64,-576 64,-576 16,-576 16,-576 16,-576" /><polygon points="64,-704 64,-704 64,-576 64,-576" /><polygon points="128,-994 128,-994 128,-994 128,-1008 128,-1008 128,-1008 128,-994" /><polygon points="116,-994 112,-994 112,-994 116,-994" /><polygon points="112,-994 116,-994 124,-994 128,-994 128,-994 112,-994" /><polygon points="124,-552 128,-552 128,-552 124,-552" /><polygon points="112,-552 112,-552 112,-552 112,-536 112,-536 112,-536 112,-536 112,-552" /><polygon points="128,-552 124,-552 116,-552 112,-552 112,-552 128,-552" /><polygon points="112,-1010 112,-1010 116,-1010 116,-1010" /><polygon points="116,-1010 116,-1018 124,-1018 124,-1010" /><polygon points="128,-536 128,-536 124,-536 124,-536" /><polygon points="1184,-1196 1176,-1196 1176,-1188 1184,-1188" /><polygon points="480,-1100 472,-1100 472,-1092 480,-1092" /><polygon points="480,-652 472,-652 472,-644 480,-644" /><polygon points="1178,-476 1170,-476 1170,-468 1178,-468" /><polygon points="112,-994 112,-994 112,-994 112,-997.5 112,-1008 112,-1008 112,-1008 112,-994" /><polygon points="128,-994 128,-994 124,-994 124,-994" /><polygon points="112,-552 112,-552 116,-552 116,-552" /><polygon points="1170,-480 1170,-480 1170,-480 1154,-480 1154,-480 1154,-480 1154,-480 1170,-480" /><polygon points="1170,-476 1170,-480 1170,-480 1170,-468 1170,-468" /><polygon points="1170,-476 1178,-476 1178,-476 1170,-476" /><polygon points="1484,-808 1484,-800 1484,-800 1484,-808" /><polygon points="1476,-808 1476,-800 1484,-800 1484,-808" /><polygon points="1176,-1196 1184,-1196 1184,-1196 1176,-1196" /><polygon points="720,-1192 720,-1192 720,-1192 720,-1208 720,-1208 720,-1208 720,-1208 720,-1192" /><polygon points="708,-1192 708,-1184 716,-1184 716,-1192" /><polygon points="716,-1192 716,-1184 716,-1184 716,-1192" /><polygon points="716,-1192 720,-1192 720,-1192 708,-1192 708,-1192" /><polygon points="942,-816 942,-816 942,-816 958,-816 958,-816 958,-816 958,-816 942,-816" /><polygon points="942,-828 942,-832 942,-832 942,-828" /><polygon points="942,-828 942,-820 942,-816 942,-816 942,-832 942,-832" /><polygon points="942,-820 934,-820 934,-820 942,-820" /><polygon points="942,-828 934,-828 934,-820 942,-820" /><polygon points="472,-656 472,-656 472,-656 456,-656 456,-656 456,-656 456,-656 472,-656" /><polygon points="472,-1104 472,-1104 472,-1104 456,-1104 456,-1104 456,-1104 456,-1104 472,-1104" /><polygon points="472,-1092 472,-1088 472,-1088 472,-1092" /><polygon points="472,-1092 472,-1100 472,-1104 472,-1104 472,-1088 472,-1088" /><polygon points="472,-1100 480,-1100 480,-1100 472,-1100" /><polygon points="472,-644 472,-640 472,-640 472,-644" /><polygon points="472,-644 472,-652 472,-656 472,-656 472,-640 472,-640" /><polygon points="472,-652 480,-652 480,-652 472,-652" /><polygon points="560,-296 560,-296 560,-296 560,-312 560,-312 560,-312 560,-312 560,-296" /><polygon points="548,-296 556,-296 560,-296 560,-296 544,-296 544,-296" /><polygon points="548,-296 544,-296 544,-296 548,-296" /><polygon points="556,-296 556,-288 556,-288 556,-296" /><polygon points="548,-296 548,-288 556,-288 556,-296" /><polygon points="16,-1152 16,-1152 16,-1320 16,-1376 16,-1376 16,-1232 16,-1152" /><polygon points="16,-992 16,-768 16,-768 16,-768 16,-872 16,-992" /><polygon points="16,-1024 16,-1024 16,-1010 16,-1008 16,-1008 16,-1008" /><polygon points="16,-992 16,-1008 16,-1008 16,-928 16,-768 16,-768" /><polygon points="16,-576 16,-576 16,-592 16,-592 16,-576" /><polygon points="1484,-800 1484,-800 1476,-800 1476,-800" /><polygon points="1476,-800 1476,-800 1476,-808 1476,-808" /><polygon points="1476,-800 1476,-808 1484,-808 1484,-800" /><polygon points="1184,-1196 1184,-1196 1184,-1188 1184,-1188" /><polygon points="1184,-1188 1184,-1188 1176,-1188 1176,-1188" /><polygon points="1184,-1188 1176,-1188 1176,-1196 1184,-1196" /><polygon points="716,-1184 716,-1184 708,-1184 708,-1184" /><polygon points="708,-1184 708,-1184 708,-1192 708,-1192" /><polygon points="708,-1184 708,-1192 716,-1192 716,-1184" /><polygon points="934,-820 934,-820 934,-828 934,-828" /><polygon points="934,-828 934,-828 942,-828 942,-828" /><polygon points="480,-1100 480,-1100 480,-1092 480,-1092" /><polygon points="480,-1092 480,-1092 472,-1092 472,-1092" /><polygon points="480,-1092 472,-1092 472,-1100 480,-1100" /><polygon points="480,-652 480,-652 480,-644 480,-644" /><polygon points="480,-644 480,-644 472,-644 472,-644" /><polygon points="480,-644 472,-644 472,-652 480,-652" /><polygon points="1178,-476 1178,-476 1178,-468 1178,-468" /><polygon points="1178,-468 1178,-468 1170,-468 1170,-468" /><polygon points="1178,-468 1170,-468 1170,-476 1178,-476" /><polygon points="556,-288 556,-288 548,-288 548,-288" /><polygon points="548,-288 548,-288 548,-296 548,-296" /><polygon points="548,-288 548,-296 556,-296 556,-288" /><polygon points="112,-1010 112,-1010 116,-1010 124,-1010 128,-1010 128,-1010" /><polygon points="112,-1008 112,-1010 128,-1010 128,-1008" /><polygon points="128,-1008 128,-1010 128,-1010 128,-1010 128,-1010 128,-1008" /><polygon points="128,-994 128,-994 124,-994 116,-994 112,-994 112,-994" /><polygon points="112,-994 112,-1008 128,-1008 128,-994" /><polygon points="112,-552 112,-552 116,-552 124,-552 128,-552 128,-552" /><polygon points="128,-536 128,-536 124,-536 116,-536 112,-536 112,-536" /><polygon points="112,-536 112,-552 128,-552 128,-536" /><polygon points="32,-608 32,-608 32,-592 32,-592" /><polygon points="32,-672 32,-672 32,-608 32,-608" /><polygon points="32,-688 32,-704 32,-704 32,-688" /><polygon points="32,-688 32,-688 32,-672 32,-672" /><polygon points="48,-704 32,-704 32,-688 32,-672 32,-608 32,-592 32,-576 48,-576" /><polygon points="32,-672 32,-672 16,-672 16,-672 32,-672" /><polygon points="32,-592 32,-592 16,-592 16,-592 32,-592" /><polygon points="1154,-464 1154,-464 1154,-464 1170,-464 1170,-464 1154,-464" /><polygon points="1154,-476 1154,-468 1154,-464 1154,-464 1154,-480 1154,-480" /><polygon points="1154,-476 1154,-480 1154,-480 1154,-476" /><polygon points="1472,-824 1472,-824 1472,-824 1472,-808 1472,-808 1472,-824" /><polygon points="1484,-824 1488,-824 1488,-824 1484,-824" /><polygon points="1484,-824 1476,-824 1472,-824 1472,-824 1488,-824 1488,-824" /><polygon points="704,-1208 704,-1208 704,-1208 704,-1192 704,-1192 704,-1208" /><polygon points="716,-1208 720,-1208 720,-1208 716,-1208" /><polygon points="716,-1208 708,-1208 704,-1208 704,-1208 720,-1208 720,-1208" /><polygon points="958,-832 958,-832 958,-832 942,-832 942,-832 942,-832 942,-832 958,-832" /><polygon points="958,-820 958,-828 958,-832 958,-832 958,-816 958,-816" /><polygon points="958,-820 958,-816 958,-816 958,-820" /><polygon points="456,-1088 456,-1088 456,-1088 472,-1088 472,-1088 472,-1088 472,-1088 456,-1088" /><polygon points="456,-640 456,-640 456,-656 456,-656" /><polygon points="456,-640 456,-640 456,-640 472,-640 472,-640 472,-640 472,-640 456,-640" /><polygon points="456,-1100 456,-1092 456,-1088 456,-1088 456,-1104 456,-1104" /><polygon points="456,-1100 456,-1104 456,-1104 456,-1100" /><polygon points="456,-652 456,-656 456,-656 456,-652" /><polygon points="1160,-1184 1160,-1184 1160,-1184 1176,-1184 1176,-1184 1160,-1184" /><polygon points="1160,-1196 1160,-1188 1160,-1184 1160,-1184 1160,-1200 1160,-1200" /><polygon points="1160,-1196 1160,-1200 1160,-1200 1160,-1196" /><polygon points="544,-312 544,-312 544,-312 544,-296 544,-296 544,-296 544,-296 544,-312" /><polygon points="556,-312 560,-312 560,-312 556,-312" /><polygon points="1484,-808 1476,-808 1476,-808 1484,-808" /><polygon points="1176,-1196 1176,-1188 1176,-1188 1176,-1196" /><polygon points="720,-1192 720,-1192 716,-1192 716,-1192" /><polygon points="708,-1192 708,-1192 708,-1192 704,-1192 704,-1192 708,-1192" /><polygon points="942,-816 942,-816 942,-820 942,-820" /><polygon points="942,-820 934,-820 934,-828 942,-828" /><polygon points="472,-1104 472,-1104 472,-1100 472,-1100" /><polygon points="472,-656 472,-656 472,-652 472,-652" /><polygon points="1170,-468 1170,-468 1170,-468 1170,-464 1170,-464 1170,-468" /><polygon points="560,-296 560,-296 556,-296 556,-296" /><polygon points="1170,-480 1170,-480 1170,-476 1170,-476" /><polygon points="124,-946 124,-946 124,-994 124,-994" /><polygon points="116,-946 124,-946 124,-994 116,-994" /><polygon points="124,-600 116,-600 116,-552 124,-552" /><polygon points="116,-600 116,-600 116,-552 116,-552" /><polygon points="1472,-824 1472,-824 1476,-824 1476,-824" /><polygon points="704,-1208 704,-1208 708,-1208 708,-1208" /><polygon points="958,-832 958,-832 958,-828 958,-828" /><polygon points="456,-1088 456,-1088 456,-1092 456,-1092" /><polygon points="456,-640 456,-640 456,-644 456,-644" /><polygon points="1160,-1184 1160,-1184 1160,-1188 1160,-1188" /><polygon points="1154,-464 1154,-464 1154,-468 1154,-468" /><polygon points="544,-312 544,-312 548,-312 548,-312" /><polygon points="548,-312 556,-312 560,-312 560,-312 544,-312 544,-312" /><polygon points="1584,-1248 1584,-1456 1584,-1456 1584,-1456 1584,-1216 1584,-1216" /><polygon points="1584,-1248 1584,-1216 1584,-1024 1584,-1024 1584,-1088 1584,-1248" /><polygon points="1584,-768 1584,-768 1584,-808 1584,-824 1584,-832 1584,-832" /><polygon points="384,-256 384,-256 608,-256 608,-256" /><polygon points="608,-256 608,-256 832,-256 832,-256" /><polygon points="832,-256 832,-256 1056,-256 1056,-256" /><polygon points="1088,-256 1088,-256 1056,-256 1056,-256" /><polygon points="1472,-824 1472,-824 1476,-824 1484,-824 1488,-824 1488,-824" /><polygon points="1484,-808 1476,-808 1472,-808 1472,-824 1488,-824 1488,-808" /><polygon points="1488,-808 1488,-824 1488,-824 1488,-824 1488,-824 1488,-808" /><polygon points="1472,-808 1476,-808 1476,-808 1476,-808 1476,-808 1472,-808" /><polygon points="1176,-1200 1160,-1200 1160,-1200 1160,-1200 1160,-1200 1176,-1200" /><polygon points="1160,-1184 1160,-1184 1160,-1188 1160,-1196 1160,-1200 1160,-1200" /><polygon points="1176,-1196 1176,-1188 1176,-1184 1160,-1184 1160,-1200 1176,-1200" /><polygon points="1176,-1184 1176,-1188 1176,-1188 1176,-1188 1176,-1188 1176,-1184" /><polygon points="704,-1208 704,-1208 708,-1208 716,-1208 720,-1208 720,-1208" /><polygon points="708,-1192 704,-1192 704,-1208 720,-1208 720,-1192" /><polygon points="720,-1192 720,-1192 716,-1192 708,-1192 708,-1192" /><polygon points="958,-832 958,-832 958,-828 958,-820 958,-816 958,-816" /><polygon points="958,-816 942,-816 942,-832 958,-832" /><polygon points="942,-816 942,-816 942,-820 942,-828 942,-832 942,-832" /><polygon points="456,-1088 456,-1088 456,-1092 456,-1100 456,-1104 456,-1104" /><polygon points="472,-1088 456,-1088 456,-1104 472,-1104" /><polygon points="472,-1104 472,-1104 472,-1100 472,-1092 472,-1088 472,-1088" /><polygon points="456,-640 456,-640 456,-644 456,-652 456,-656 456,-656" /><polygon points="472,-640 456,-640 456,-656 472,-656" /><polygon points="472,-656 472,-656 472,-652 472,-644 472,-640 472,-640" /><polygon points="1154,-464 1154,-464 1154,-468 1154,-476 1154,-480 1154,-480" /><polygon points="1170,-468 1170,-464 1154,-464 1154,-480 1170,-480" /><polygon points="1170,-480 1170,-480 1170,-468 1170,-468" /><polygon points="544,-296 544,-312 560,-312 560,-296" /><polygon points="560,-296 560,-296 556,-296 548,-296 544,-296 544,-296" /><polygon points="1088,-256 1088,-256 1088,-256 1088,-16 1088,-16" /><polygon points="384,-256 384,-256 384,-16 384,-16 384,-16" /><polygon points="124,-946 124,-946 116,-946 116,-946" /><polygon points="116,-946 116,-946 116,-994 116,-994" /><polygon points="124,-946 116,-946 116,-994 124,-994" /><polygon points="116,-600 116,-600 124,-600 124,-600" /><polygon points="124,-600 124,-600 124,-552 124,-552" /><polygon points="116,-600 124,-600 124,-552 116,-552" /><polygon points="1476,-872 1476,-872 1476,-824 1476,-824" /><polygon points="1484,-872 1476,-872 1476,-824 1484,-824" /><polygon points="1112,-1188 1112,-1188 1160,-1188 1160,-1188" /><polygon points="1112,-1196 1112,-1188 1160,-1188 1160,-1196" /><polygon points="708,-1256 708,-1256 708,-1208 708,-1208" /><polygon points="716,-1256 708,-1256 708,-1208 716,-1208" /><polygon points="1006,-828 1006,-828 958,-828 958,-828" /><polygon points="1006,-820 1006,-828 958,-828 958,-820" /><polygon points="408,-1092 408,-1092 456,-1092 456,-1092" /><polygon points="408,-1100 408,-1092 456,-1092 456,-1100" /><polygon points="408,-644 408,-644 456,-644 456,-644" /><polygon points="408,-652 408,-644 456,-644 456,-652" /><polygon points="1106,-468 1106,-468 1154,-468 1154,-468" /><polygon points="1106,-476 1106,-468 1154,-468 1154,-476" /><polygon points="548,-360 548,-360 548,-312 548,-312" /><polygon points="556,-360 548,-360 548,-312 556,-312" /><polygon points="1584,-16 1584,-16 1584,-96 1584,-240 1584,-240" /><polygon points="1584,-240 1584,-240 1584,-320 1584,-464 1584,-464" /><polygon points="1584,-464 1584,-464 1584,-544 1584,-688 1584,-688" /><polygon points="1584,-768 1584,-768 1584,-688 1584,-688" /><polygon points="16,-384 16,-384 16,-576 16,-576 16,-576 16,-512 16,-384" /><polygon points="16,-240 16,-240 16,-160 16,-64 16,-16 16,-16" /><polygon points="16,-384 16,-384 16,-384 16,-240 16,-240" /><polygon points="1088,-16 1088,-16 1088,-16 1152,-16 1312,-16 1312,-16" /><polygon points="1312,-16 1312,-16 1376,-16 1536,-16 1536,-16" /><polygon points="1584,-16 1584,-16 1536,-16 1536,-16" /><polygon points="16,-16 16,-16 240,-16 240,-16" /><polygon points="240,-16 240,-16 384,-16 384,-16 384,-16" /><polygon points="1384,-1456 1384,-1456 1216,-1456 1176,-1456 1160,-1456 1160,-1456" /><polygon points="1584,-1456 1584,-1456 1584,-1456 1440,-1456 1384,-1456 1384,-1456" /><polygon points="1476,-872 1476,-872 1484,-872 1484,-872" /><polygon points="1484,-872 1484,-872 1484,-824 1484,-824" /><polygon points="1476,-872 1484,-872 1484,-824 1476,-824" /><polygon points="1006,-828 1006,-828 1006,-820 1006,-820" /><polygon points="1112,-1188 1112,-1188 1112,-1196 1112,-1196" /><polygon points="1112,-1196 1112,-1196 1160,-1196 1160,-1196" /><polygon points="1112,-1188 1112,-1196 1160,-1196 1160,-1188" /><polygon points="708,-1256 708,-1256 716,-1256 716,-1256" /><polygon points="408,-1092 408,-1092 408,-1100 408,-1100" /><polygon points="408,-644 408,-644 408,-652 408,-652" /><polygon points="716,-1256 716,-1256 716,-1208 716,-1208" /><polygon points="708,-1256 716,-1256 716,-1208 708,-1208" /><polygon points="896,-576 896,-576 896,-800 896,-800" /><polygon points="896,-896 896,-896 896,-800 896,-800" /><polygon points="1006,-820 1006,-820 958,-820 958,-820" /><polygon points="1006,-828 1006,-820 958,-820 958,-828" /><polygon points="512,-576 512,-576 736,-576 736,-576" /><polygon points="896,-576 896,-576 736,-576 736,-576" /><polygon points="512,-576 512,-576 512,-656 512,-736 512,-800 512,-800" /><polygon points="512,-896 512,-896 512,-800 512,-800" /><polygon points="512,-896 512,-896 512,-896 736,-896 736,-896" /><polygon points="896,-896 896,-896 736,-896 736,-896" /><polygon points="408,-1100 408,-1100 456,-1100 456,-1100" /><polygon points="408,-1092 408,-1100 456,-1100 456,-1092" /><polygon points="408,-652 408,-652 456,-652 456,-652" /><polygon points="408,-644 408,-652 456,-652 456,-644" /><polygon points="1106,-468 1106,-468 1106,-476 1106,-476" /><polygon points="1106,-476 1106,-476 1154,-476 1154,-476" /><polygon points="1106,-468 1106,-476 1154,-476 1154,-468" /><polygon points="548,-360 548,-360 556,-360 556,-360" /><polygon points="556,-360 556,-360 556,-312 556,-312" /><polygon points="548,-360 556,-360 556,-312 548,-312" /><polygon points="1088,-16 1088,-16 1088,-256 1088,-256 1088,-16" /><polygon points="16,-768 16,-768 16,-768 16,-704 16,-688 16,-688" /><polygon points="16,-632 16,-672 16,-672 16,-608 16,-608" /><polygon points="32,-576 32,-576 48,-576 48,-576 32,-576" /><polygon points="32,-576 32,-576 32,-592 32,-592" /><polygon points="32,-592 32,-608 32,-672 32,-688 32,-704 32,-704 32,-648 32,-632 32,-576 32,-576" /><polygon points="32,-672 16,-672 16,-688 32,-688" /><polygon points="32,-592 16,-592 16,-608 32,-608" /><polygon points="16,-1376 16,-1456 16,-1456 16,-1376" /><polygon points="16,-872 16,-768 16,-648 16,-648 16,-832 16,-872" /><polygon points="16,-1096 16,-992 16,-872 16,-872 16,-1056 16,-1096" /><polygon points="16,-1320 16,-1152 16,-1096 16,-1096 16,-1280 16,-1320" /><polygon points="16,-1096 16,-1152 16,-1152 16,-1024 16,-1008 16,-992 16,-992" /><polygon points="16,-648 16,-768 16,-768 16,-688 16,-672 16,-632 16,-632" /><polygon points="48,-704 32,-704 32,-704 32,-704 48,-704" /><polygon points="32,-704 48,-704 48,-648 32,-648" /><polygon points="64,-648 48,-648 48,-632 64,-632" /><polygon points="32,-648 16,-648 16,-632 32,-632" /><polygon points="48,-576 32,-576 32,-632 48,-632" /><polygon points="48,-632 48,-648 48,-704 48,-704 48,-576 48,-576" /><polygon points="16,-608 16,-576 16,-384 16,-384 16,-608" /><polygon points="16,-832 16,-648 16,-632 16,-608 16,-608 16,-832" /><polygon points="16,-1056 16,-872 16,-832 16,-832 16,-1056" /><polygon points="16,-1280 16,-1096 16,-1056 16,-1056 16,-1280" /><polygon points="16,-1456 16,-1456 16,-1376 16,-1320 16,-1320" /><polygon points="16,-576 16,-608 16,-632 16,-632 16,-632 16,-608 16,-592 16,-576" /><polygon points="192,-1456 192,-1456 240,-1456 416,-1456 416,-1456" /><polygon points="416,-1456 416,-1456 464,-1456 640,-1456 640,-1456" /><polygon points="640,-1456 640,-1456 688,-1456 864,-1456 864,-1456" /><polygon points="864,-1456 864,-1456 912,-1456 1088,-1456 1088,-1456" /><polygon points="1160,-1456 1160,-1456 1160,-1456 1152,-1456 1088,-1456 1088,-1456" /><polygon points="16,-1456 16,-1456 16,-1456 64,-1456 64,-1456" /><polygon points="192,-1152 192,-1152 192,-1232 192,-1376 192,-1376" /><polygon points="192,-1456 192,-1456 192,-1408 192,-1376 192,-1376" /><polygon points="1216,-320 1216,-320 1216,-512 1216,-544 1216,-544" /><polygon points="1216,-768 1216,-768 1216,-544 1216,-544" /><polygon points="1216,-768 1216,-768 1440,-768 1440,-768" /><polygon points="1472,-768 1472,-768 1440,-768 1440,-768" /><polygon points="1216,-320 1216,-320 1440,-320 1440,-320" /><polygon points="1472,-320 1472,-320 1440,-320 1440,-320" /><polygon points="1472,-320 1472,-320 1472,-544 1472,-544" /><polygon points="1472,-768 1472,-768 1472,-768 1472,-544 1472,-544" /><polygon points="64,-1152 64,-1152 192,-1152 192,-1152" /><polygon points="64,-1152 64,-1152 64,-1232 64,-1376 64,-1376" /><polygon points="64,-1456 64,-1456 64,-1376 64,-1376" /><polygon points="64,-632 16,-632 16,-648 64,-648" /><polygon points="64,-632 64,-632 48,-632 32,-632 16,-632 16,-632" /><polygon points="16,-648 16,-648 32,-648 48,-648 64,-648 64,-648" /><polygon points="64,-648 64,-648 64,-632 64,-632" /><polygon points="192,-64 192,-64 192,-160 192,-288 192,-288" /><polygon points="192,-384 192,-384 192,-288 192,-288" /><polygon points="1216,-1088 1216,-1088 1216,-1312 1216,-1312" /><polygon points="1216,-1312 1216,-1312 1216,-1408 1216,-1408" /><polygon points="1216,-1088 1216,-1088 1440,-1088 1440,-1088" /><polygon points="1472,-1088 1472,-1088 1440,-1088 1440,-1088" /><polygon points="1472,-1312 1472,-1312 1472,-1088 1472,-1088" /><polygon points="1472,-1408 1472,-1408 1472,-1312 1472,-1312" /><polygon points="1216,-1408 1216,-1408 1440,-1408 1440,-1408" /><polygon points="1440,-1408 1440,-1408 1472,-1408 1472,-1408" /><polygon points="192,-384 192,-384 64,-384 64,-384" /><polygon points="192,-64 192,-64 192,-64 64,-64 64,-64" /><polygon points="64,-64 64,-64 64,-288 64,-288" /><polygon points="64,-288 64,-288 64,-384 64,-384" /><polygon points="1376,-256 1152,-256 1152,-256 1376,-256" /><polygon points="736,-1152 512,-1152 512,-1152 736,-1152" /><polygon points="736,-960 512,-960 512,-1152 736,-1152" /><polygon points="896,-1152 896,-960 736,-960 736,-1152" /><polygon points="896,-960 896,-960 736,-960 736,-960" /><polygon points="1376,-64 1152,-64 1152,-256 1376,-256" /><polygon points="1536,-256 1536,-64 1376,-64 1376,-256" /><polygon points="1536,-64 1536,-64 1376,-64 1376,-64" /><polygon points="1088,-16 1088,-16 1088,-16 1056,-16 1056,-16" /><polygon points="608,-256 384,-256 384,-256 608,-256" /><polygon points="832,-256 608,-256 608,-256 832,-256" /><polygon points="1056,-256 832,-256 832,-256 1056,-256" /><polygon points="608,-16 384,-16 384,-256 608,-256" /><polygon points="832,-16 608,-16 608,-256 832,-256" /><polygon points="1056,-16 832,-16 832,-256 1056,-256" /><polygon points="1088,-256 1088,-16 1056,-16 1056,-256" /><polygon points="1584,-768 1584,-768 1584,-768 1584,-832 1584,-992 1584,-992" /><polygon points="1584,-992 1584,-992 1584,-1024 1584,-1216 1584,-1216" /><polygon points="1584,-1456 1584,-1456 1584,-1248 1584,-1216 1584,-1216" /><polygon points="1584,-16 1584,-16 1584,-240 1584,-240" /><polygon points="1584,-240 1584,-240 1584,-464 1584,-464" /><polygon points="1584,-464 1584,-464 1584,-688 1584,-688" /><polygon points="1584,-768 1584,-768 1584,-688 1584,-688" /><polygon points="16,-384 16,-384 16,-576 16,-608 16,-608" /><polygon points="16,-608 16,-608 16,-800 16,-832 16,-832" /><polygon points="16,-832 16,-832 16,-1024 16,-1056 16,-1056" /><polygon points="16,-1056 16,-1056 16,-1248 16,-1280 16,-1280" /><polygon points="16,-1456 16,-1456 16,-1320 16,-1280 16,-1280" /><polygon points="16,-240 16,-240 16,-16 16,-16" /><polygon points="16,-384 16,-384 16,-384 16,-240 16,-240" /><polygon points="1088,-16 1088,-16 1088,-16 1312,-16 1312,-16" /><polygon points="1312,-16 1312,-16 1536,-16 1536,-16" /><polygon points="1584,-16 1584,-16 1536,-16 1536,-16" /><polygon points="16,-16 16,-16 240,-16 240,-16" /><polygon points="240,-16 240,-16 384,-16 384,-16 384,-16" /><polygon points="1384,-1456 1384,-1456 1160,-1456 1160,-1456 1160,-1456" /><polygon points="1584,-1456 1584,-1456 1384,-1456 1384,-1456" /><polygon points="896,-576 896,-576 896,-800 896,-800" /><polygon points="896,-896 896,-896 896,-800 896,-800" /><polygon points="512,-576 512,-576 720,-576 736,-576 736,-576" /><polygon points="896,-576 896,-576 736,-576 736,-576" /><polygon points="512,-576 512,-576 512,-800 512,-800" /><polygon points="512,-896 512,-896 512,-800 512,-800" /><polygon points="512,-896 512,-896 736,-896 736,-896" /><polygon points="896,-896 896,-896 736,-896 736,-896" /><polygon points="1536,-640 1472,-640 1472,-576 1536,-576" /><polygon points="1160,-1456 1160,-1456 1360,-1456 1384,-1456 1384,-1456 1160,-1456" /><polygon points="1136,-1456 1160,-1456 1160,-1456 1160,-1456 1088,-1456 1088,-1456" /><polygon points="240,-1456 192,-1456 64,-1456 16,-1456 16,-1456 240,-1456" /><polygon points="464,-1456 416,-1456 240,-1456 240,-1456 464,-1456" /><polygon points="688,-1456 640,-1456 464,-1456 464,-1456 512,-1456 688,-1456" /><polygon points="912,-1456 864,-1456 688,-1456 688,-1456 896,-1456 912,-1456" /><polygon points="1136,-1456 1088,-1456 912,-1456 912,-1456 1136,-1456" /><polygon points="192,-1456 192,-1456 192,-1376 192,-1376" /><polygon points="1216,-544 1216,-320 1216,-320 1216,-544" /><polygon points="1216,-544 1216,-768 1440,-768 1440,-544" /><polygon points="1440,-320 1216,-320 1216,-544 1440,-544" /><polygon points="1472,-768 1472,-544 1440,-544 1440,-768" /><polygon points="1472,-544 1472,-320 1440,-320 1440,-544" /><polygon points="1440,-768 1216,-768 1216,-768 1440,-768" /><polygon points="1472,-320 1472,-320 1440,-320 1440,-320" /><polygon points="1472,-768 1472,-768 1472,-544 1472,-544" /><polygon points="64,-1232 64,-1376 64,-1456 192,-1456 192,-1376 192,-1232" /><polygon points="192,-1152 64,-1152 64,-1232 192,-1232" /><polygon points="64,-1376 64,-1232 64,-1152 64,-1152 64,-1376" /><polygon points="1536,-576 1536,-576 1472,-576 1472,-576" /><polygon points="1472,-576 1472,-576 1472,-640 1472,-640" /><polygon points="1472,-640 1472,-640 1536,-640 1536,-640" /><polygon points="1536,-640 1536,-640 1536,-576 1536,-576" /><polygon points="1536,-576 1472,-576 1472,-640 1536,-640" /><polygon points="1536,-1328 1472,-1328 1472,-1264 1536,-1264" /><polygon points="192,-384 192,-384 192,-288 192,-288" /><polygon points="1216,-1312 1216,-1184 1216,-1088 1216,-1088 1216,-1312" /><polygon points="1216,-1408 1216,-1312 1216,-1312 1216,-1408" /><polygon points="1472,-1088 1472,-1088 1440,-1088 1440,-1088" /><polygon points="1216,-1184 1216,-1312 1216,-1408 1440,-1408 1440,-1184" /><polygon points="1440,-1088 1216,-1088 1216,-1184 1440,-1184" /><polygon points="1472,-1408 1472,-1312 1472,-1184 1440,-1184 1440,-1408" /><polygon points="1472,-1184 1472,-1088 1440,-1088 1440,-1184" /><polygon points="1472,-1088 1472,-1184 1472,-1312 1472,-1312 1472,-1088" /><polygon points="1472,-1312 1472,-1408 1472,-1408 1472,-1312" /><polygon points="1440,-1408 1216,-1408 1216,-1408 1440,-1408" /><polygon points="1472,-1408 1440,-1408 1440,-1408 1472,-1408" /><polygon points="64,-160 64,-288 64,-384 192,-384 192,-288 192,-160" /><polygon points="192,-64 64,-64 64,-160 192,-160" /><polygon points="64,-64 192,-64 192,-64 64,-64" /><polygon points="64,-288 64,-160 64,-64 64,-64 64,-288" /><polygon points="64,-384 64,-288 64,-288 64,-384" /><polygon points="1536,-1328 1536,-1328 1536,-1264 1536,-1264" /><polygon points="1472,-1328 1472,-1328 1536,-1328 1536,-1328" /><polygon points="1472,-1264 1472,-1264 1472,-1328 1472,-1328" /><polygon points="1536,-1264 1536,-1264 1472,-1264 1472,-1264" /><polygon points="1536,-1264 1472,-1264 1472,-1328 1536,-1328" /><polygon points="0,-224 0,-128 0,0 0,0 0,-160 0,-224" /><polygon points="0,-448 0,-352 0,-224 0,-224 0,-384 0,-448" /><polygon points="0,-672 0,-576 0,-448 0,-448 0,-576 0,-672" /><polygon points="0,-896 0,-800 0,-672 0,-672 0,-800 0,-896" /><polygon points="0,-1120 0,-1024 0,-896 0,-896 0,-1024 0,-1120" /><polygon points="0,-1344 0,-1248 0,-1120 0,-1120 0,-1248 0,-1344" /><polygon points="1600,-1472 1600,-1472 1600,-1344 1600,-1344" /><polygon points="224,-1472 16,-1472 0,-1472 0,-1472 224,-1472" /><polygon points="448,-1472 240,-1472 224,-1472 224,-1472 408,-1472 448,-1472" /><polygon points="672,-1472 464,-1472 448,-1472 448,-1472 632,-1472 672,-1472" /><polygon points="896,-1472 688,-1472 672,-1472 672,-1472 856,-1472 896,-1472" /><polygon points="1120,-1472 912,-1472 896,-1472 896,-1472 1120,-1472" /><polygon points="1344,-1472 1136,-1472 1120,-1472 1120,-1472 1344,-1472" /><polygon points="1568,-1472 1360,-1472 1344,-1472 1344,-1472 1568,-1472" /><polygon points="1584,0 1600,0 1600,0 1568,0 1568,0" /><polygon points="0,-1344 0,-1472 16,-1472 16,-1456 16,-1280 16,-1248 0,-1248" /><polygon points="16,-1248 16,-1056 16,-1024 0,-1024 0,-1120 0,-1248" /><polygon points="16,-1024 16,-832 16,-800 0,-800 0,-896 0,-1024" /><polygon points="16,-800 16,-608 16,-576 0,-576 0,-672 0,-800" /><polygon points="16,-576 16,-384 16,-352 0,-352 0,-448 0,-576" /><polygon points="16,-352 16,-240 16,-128 0,-128 0,-224 0,-352" /><polygon points="16,-128 16,-16 16,0 0,0 0,-128" /><polygon points="240,0 224,0 16,0 16,-16 240,-16" /><polygon points="464,0 448,0 240,0 240,-16 384,-16 464,-16" /><polygon points="688,0 672,0 464,0 464,-16 608,-16 688,-16" /><polygon points="912,0 896,0 688,0 688,-16 720,-16 832,-16 912,-16" /><polygon points="1136,0 1120,0 912,0 912,-16 1056,-16 1088,-16 1136,-16" /><polygon points="1360,0 1344,0 1136,0 1136,-16 1312,-16 1360,-16" /><polygon points="1536,-16 1584,-16 1584,0 1568,0 1360,0 1360,-16" /><polygon points="240,-1456 16,-1456 16,-1472 224,-1472 240,-1472" /><polygon points="464,-1456 240,-1456 240,-1472 448,-1472 464,-1472" /><polygon points="688,-1456 512,-1456 464,-1456 464,-1472 672,-1472 688,-1472" /><polygon points="912,-1456 896,-1456 688,-1456 688,-1472 896,-1472 912,-1472" /><polygon points="1136,-1456 912,-1456 912,-1472 1120,-1472 1136,-1472" /><polygon points="1360,-1456 1160,-1456 1136,-1456 1136,-1472 1344,-1472 1360,-1472" /><polygon points="1568,-1472 1584,-1472 1584,-1456 1384,-1456 1360,-1456 1360,-1472" /><polygon points="1584,-1456 1584,-1472 1600,-1472 1600,-1344 1600,-1248 1584,-1248" /><polygon points="1600,-1248 1600,-1120 1600,-1024 1584,-1024 1584,-1216 1584,-1248" /><polygon points="1600,-1024 1600,-896 1600,-800 1584,-800 1584,-992 1584,-1024" /><polygon points="1600,-800 1600,-672 1600,-576 1584,-576 1584,-688 1584,-768 1584,-800" /><polygon points="1600,-576 1600,-448 1600,-352 1584,-352 1584,-464 1584,-576" /><polygon points="1600,-352 1600,-224 1600,-128 1584,-128 1584,-240 1584,-320 1584,-352" /><polygon points="1600,-128 1600,0 1584,0 1584,-16 1584,-128" /><polygon points="896,-800 896,-576 896,-576 896,-768 896,-800" /><polygon points="896,-896 896,-896 856,-896 736,-896 736,-896" /><polygon points="512,-896 512,-896 512,-800 512,-800" /><polygon points="736,-576 720,-576 512,-576 512,-576 632,-576 720,-576 736,-576" /><polygon points="1584,-992 1584,-800 1584,-768 1584,-768 1584,-992" /><polygon points="1584,-1216 1584,-1024 1584,-992 1584,-992 1584,-1216" /><polygon points="1584,-240 1584,-128 1584,-16 1584,-16 1584,-240" /><polygon points="1584,-464 1584,-352 1584,-320 1584,-240 1584,-240 1584,-464" /><polygon points="1584,-688 1584,-576 1584,-464 1584,-464 1584,-688" /><polygon points="16,-1456 16,-1456 16,-1456 16,-1280 16,-1280" /><polygon points="16,-16 16,-128 16,-240 16,-240 16,-16" /><polygon points="16,-240 16,-352 16,-384 16,-384 16,-240" /><polygon points="1312,-16 1136,-16 1088,-16 1088,-16 1312,-16" /><polygon points="1536,-16 1360,-16 1312,-16 1312,-16 1536,-16" /><polygon points="608,-16 464,-16 384,-16 384,-16 384,-16 608,-16" /><polygon points="832,-16 720,-16 688,-16 608,-16 608,-16 832,-16" /><polygon points="1056,-16 912,-16 832,-16 832,-16 1056,-16" /><polygon points="240,-16 16,-16 16,-16 240,-16" /><polygon points="384,-16 240,-16 240,-16 384,-16" /><polygon points="1384,-1456 1584,-1456 1584,-1456 1384,-1456" /><polygon points="1160,-1456 1160,-1456 1136,-1456 1136,-1456" /><polygon points="896,-896 896,-896 896,-800 896,-800" /><polygon points="896,-576 896,-576 736,-576 736,-576" /><polygon points="512,-800 512,-576 512,-576 512,-800" /><polygon points="736,-896 512,-896 512,-896 736,-896" /><polygon points="0,-1472 0,-1472 0,-1344 0,-1344" /><polygon points="1600,-224 1600,-96 1600,0 1600,0 1600,-128 1600,-224" /><polygon points="1600,-448 1600,-320 1600,-224 1600,-224 1600,-352 1600,-448" /><polygon points="1600,-672 1600,-544 1600,-448 1600,-448 1600,-576 1600,-672" /><polygon points="1600,-896 1600,-800 1600,-768 1600,-672 1600,-672 1600,-800 1600,-896" /><polygon points="1600,-1120 1600,-1024 1600,-896 1600,-896 1600,-1024 1600,-1120" /><polygon points="1600,-1344 1600,-1248 1600,-1120 1600,-1120 1600,-1248 1600,-1344" /><polygon points="1600,-1472 1600,-1472 1584,-1472 1568,-1472 1568,-1472" /><polygon points="224,0 0,0 0,0 16,0 224,0" /><polygon points="448,0 224,0 224,0 240,0 448,0" /><polygon points="672,0 448,0 448,0 464,0 672,0" /><polygon points="896,0 720,0 672,0 672,0 688,0 896,0" /><polygon points="1120,0 944,0 896,0 896,0 912,0 1120,0" /><polygon points="1344,0 1154,0 1120,0 1120,0 1136,0 1344,0" /><polygon points="1568,0 1378,0 1344,0 1344,0 1360,0 1568,0" /><polygon points="224,-384 0,-384 0,-224 0,-160 224,-160" /><polygon points="0,-160 0,0 224,0 224,-160" /><polygon points="448,-384 408,-384 224,-384 224,-160 448,-160" /><polygon points="224,-160 224,0 448,0 448,-160" /><polygon points="672,-384 632,-384 448,-384 448,-160 672,-160" /><polygon points="448,-160 448,0 672,0 672,-160" /><polygon points="720,-160 720,-352 720,-384 672,-384 672,-160" /><polygon points="720,0 720,-128 720,-160 672,-160 672,0" /><polygon points="512,-576 408,-576 408,-384 448,-384 632,-384 632,-576" /><polygon points="632,-384 672,-384 720,-384 720,-576 632,-576" /><polygon points="224,-1472 0,-1472 0,-1344 0,-1248 224,-1248" /><polygon points="0,-1248 0,-1120 0,-1024 224,-1024 224,-1248" /><polygon points="0,-1024 0,-896 0,-800 224,-800 224,-1024" /><polygon points="0,-800 0,-672 0,-576 224,-576 224,-800" /><polygon points="0,-576 0,-448 0,-384 224,-384 224,-576" /><polygon points="408,-1472 224,-1472 224,-1248 408,-1248" /><polygon points="224,-1248 224,-1024 408,-1024 408,-1248" /><polygon points="224,-1024 224,-800 408,-800 408,-896 408,-1024" /><polygon points="224,-800 224,-576 408,-576 408,-672 408,-800" /><polygon points="224,-576 224,-384 408,-384 408,-576" /><polygon points="512,-800 512,-896 408,-896 408,-800 408,-672 512,-672" /><polygon points="408,-672 408,-576 512,-576 512,-672" /><polygon points="944,-576 896,-576 736,-576 720,-576 720,-384 720,-352 944,-352" /><polygon points="720,-352 720,-160 720,-128 944,-128 944,-352" /><polygon points="720,-128 720,0 896,0 944,0 944,-128" /><polygon points="1154,-544 1154,-576 1120,-576 944,-576 944,-352 1154,-352" /><polygon points="944,-352 944,-128 1154,-128 1154,-320 1154,-352" /><polygon points="944,-128 944,0 1120,0 1154,0 1154,-96 1154,-128" /><polygon points="1120,-768 896,-768 896,-576 944,-576 1120,-576" /><polygon points="1154,-576 1154,-768 1120,-768 1120,-576" /><polygon points="1378,-768 1344,-768 1154,-768 1154,-576 1154,-544 1378,-544" /><polygon points="1154,-544 1154,-352 1154,-320 1378,-320 1378,-544" /><polygon points="1154,-320 1154,-128 1154,-96 1378,-96 1378,-320" /><polygon points="1154,-96 1154,0 1344,0 1378,0 1378,-96" /><polygon points="1600,-672 1600,-768 1568,-768 1378,-768 1378,-544 1600,-544" /><polygon points="1378,-544 1378,-320 1600,-320 1600,-448 1600,-544" /><polygon points="1378,-320 1378,-96 1600,-96 1600,-224 1600,-320" /><polygon points="1378,-96 1378,0 1568,0 1600,0 1600,-96" /><polygon points="632,-1472 448,-1472 408,-1472 408,-1248 632,-1248" /><polygon points="408,-1248 408,-1024 632,-1024 632,-1248" /><polygon points="408,-1024 408,-896 512,-896 632,-896 632,-1024" /><polygon points="856,-1472 672,-1472 632,-1472 632,-1248 856,-1248" /><polygon points="632,-1248 632,-1024 856,-1024 856,-1248" /><polygon points="632,-1024 632,-896 736,-896 856,-896 856,-1024" /><polygon points="896,-1248 896,-1472 856,-1472 856,-1248" /><polygon points="896,-1024 896,-1248 856,-1248 856,-1024" /><polygon points="896,-896 896,-1024 856,-1024 856,-896" /><polygon points="1120,-1472 896,-1472 896,-1248 1120,-1248" /><polygon points="896,-1248 896,-1024 1120,-1024 1120,-1248" /><polygon points="896,-1024 896,-896 896,-800 1120,-800 1120,-1024" /><polygon points="896,-800 896,-768 1120,-768 1120,-800" /><polygon points="1344,-1472 1120,-1472 1120,-1248 1344,-1248" /><polygon points="1120,-1248 1120,-1024 1344,-1024 1344,-1248" /><polygon points="1120,-1024 1120,-800 1344,-800 1344,-1024" /><polygon points="1120,-800 1120,-768 1154,-768 1344,-768 1344,-800" /><polygon points="1568,-1472 1344,-1472 1344,-1248 1568,-1248" /><polygon points="1344,-1248 1344,-1024 1568,-1024 1568,-1248" /><polygon points="1344,-1024 1344,-800 1568,-800 1568,-1024" /><polygon points="1344,-800 1344,-768 1378,-768 1568,-768 1568,-800" /><polygon points="1600,-1248 1600,-1344 1600,-1472 1568,-1472 1568,-1248" /><polygon points="1600,-1024 1600,-1120 1600,-1248 1568,-1248 1568,-1024" /><polygon points="1600,-800 1600,-896 1600,-1024 1568,-1024 1568,-800" /><polygon points="1600,-768 1600,-800 1568,-800 1568,-768" /><polygon points="896,-896 896,-896 896,-800 896,-800" /><polygon points="736,-896 632,-896 512,-896 512,-896 736,-896" /><polygon points="512,-800 512,-672 512,-576 512,-576 512,-800" /><polygon points="896,-576 896,-576 736,-576 736,-576" /></g></defs><rect fill="#fff" height="1766.0" id="background" width="1894.0" x="-147.0" y="-1619.0" /><use fill="none" stroke="black" stroke-miterlimit="0" stroke-width="15" xlink:href="#bsp_ref" /><use fill="white" stroke="black" stroke-width="1" xlink:href="#bsp_ref" /></svg>