<svg viewBox="-492 -1180 1112 1288" xmlns="http://www.w3.org/2000/svg" xmlns:xlink="http://www.w3.org/1999/xlink"><defs><g id="a"><path d="m-144-240h176v128 48h-176z"/><path d="m160-48h-96v-48h96z"/><path d="m96-112v16h-32v-16z"/><path d="m160-112v16h-48v-16z"/><path d="m64-240h32 8v128h-8-32-32v-128z"/><path d="m64-112v16 48z"/><path d="m64-240v-16h32v16z"/><path d="m160-240h-48l5-16h43z"/><path d="m200-240h-8v-16h8z"/><path d="m160-240h-48z"/><path d="m104-240h-8z"/><path d="m112-240h48v-16h-43z"/><path d="m104-112v-128z"/><path d="m160-48v-48z"/><path d="m160-96v-16z"/><path d="m112-96h48v-16h-48z"/><path d="m32-64h-3.2-64.8-8-8-8-8-8-64.7998-3.2002z"/><path d="m32-112v48z"/><path d="m266.6661-256h-66.6661-8v-32z"/><path d="m160-256v-48 48 16z"/><path d="m-144-256v-32-32h176v16 16 32 16h-176z"/><path d="m192-288v-16h64v16z"/><path d="m-144-288v32z"/><path d="m32-288v-16z"/><path d="m352-512v160l-30.5778 15.2889-33.4222-41.135-96-118.1539v-16z"/><path d="m64-304v48 16z"/><path d="m64-304h96v48h-43-21-32z"/><path d="m256-304 64-32 1.4222-.7111z"/><path d="m32-320h16l-16 16z"/><path d="m-176-328v-40-32-40z"/><path d="m-176-440h8v112h-8z"/><path d="m-168-328v8z"/><path d="m-168-448v8z"/><path d="m288-336h32l-64 32h-64l-32-32z"/><path d="m288-336h-128-96v-112-48h128l96 118.1539z"/><path d="m64-336-16 16z"/><path d="m321.4222-336.7111-1.4222.7111h-32v-41.8461z"/><path d="m321.4222-336.7111 30.5778-15.2889z"/><path d="m136-240h-32-8 32z"/><path d="m96-240v-16z"/><path d="m96-112h8 32-8z"/><path d="m96-112h8z"/><path d="m104-112v-128h32v128z"/><path d="m96-96v-16z"/><path d="m96-96v-16h32 32v16z"/><path d="m-144-480v32z"/><path d="m-144-448h96l-120 120v-112-8z"/><path d="m160-112h-48z"/><path d="m160-96h-48-16z"/><path d="m256-304v8 8z"/><path d="m170.6669-256 21.3331-32z"/><path d="m170.6669-256 21.3331-32v32z"/><path d="m-64-512h64v16l-48 48h-96v-32z"/><path d="m528-928h-16z"/><path d="m64-48v-64z"/><path d="m64-240v-64z"/><path d="m64-304h96z"/><path d="m168-240h-32-8 32z"/><path d="m136-112h32-8-32z"/><path d="m136-112v-128z"/><path d="m168-112v-128z"/><path d="m168-240v128h-32v-128z"/><path d="m-30-448h94v112l-16 16h-16-176-24v-8l120-120z"/><path d="m192-304-32-32z"/><path d="m192-496-32-16h22z"/><path d="m192-256v-32-16 16 32 16z"/><path d="m192-256h8z"/><path d="m266.6661-256-34.5248-14.7966 20.5264 8.7966z"/><path d="m192-256h-21.3331z"/><path d="m192-496-10-16h10z"/><path d="m0-512h-64 96z"/><path d="m0-496-30 48h-18z"/><path d="m0-496h64v48h-94z"/><path d="m64-496h-64l32-16h32z"/><path d="m352-512h-160-10z"/><path d="m200-240h-8z"/><path d="m200-256v16z"/><path d="m200-256h-8v16h8z"/><path d="m160-512v-56z"/><path d="m160-512 32 16h-128v-16z"/><path d="m160-240h32z"/><path d="m160-256h-64 21z"/><path d="m160-256v16h-32-32v-16z"/><path d="m168-112h32-8-32z"/><path d="m200-240v128z"/><path d="m200-240v128h-32v-128z"/><path d="m160-96v-16z"/><path d="m32-512v-32z"/><path d="m64-512h-32v-32l32-6z"/><path d="m32-512-32 16v-16z"/><path d="m512-928h16z"/><path d="m352-352v-160 96 32z"/><path d="m352-112h32z"/><path d="m64-48h96z"/><path d="m256-304 65.4222-32.7111 30.5778-15.2889z"/><path d="m160-336h-96z"/><path d="m160-336h-16-64-16z"/><path d="m304-240h16 8v128h-24z"/><path d="m320-240h-16z"/><path d="m192-240h8-32-8z"/><path d="m256-240h-16z"/><path d="m304-240h-48z"/><path d="m192-288v-8-8z"/><path d="m200-256h66.6667l-74.6667-32v32z"/><path d="m200-256h66.6661.0006z"/><path d="m266.6667-256-34.5254-14.7966-40.1413-17.2034z"/><path d="m266.6667-256h-.0006l-13.9984-6z"/><path d="m192-288-21.3331 32h21.3331z"/><path d="m240-240h16v128h-16z"/><path d="m256-240h48v128h-48z"/><path d="m200-112v-128h40v128z"/><path d="m160-112h32z"/><path d="m32-544v32-80z"/><path d="m-168-440v-8z"/><path d="m-168-320v-8z"/><path d="m-168-440h-8z"/><path d="m-176-328h8z"/><path d="m48-320-16 16z"/><path d="m64-550-32 6v-48h32z"/><path d="m64-592h-32z"/><path d="m160-568v-24 80z"/><path d="m160-568v56h-96v-38z"/><path d="m-352-736v176 48-112-48z"/><path d="m-128-1040v8h-48v-8z"/><path d="m-128-1032v-8h80 32v8z"/><path d="m-224-864v-16z"/><path d="m-224-784v-16 128 48 8 40z"/><path d="m-224-512v-48-16 32z"/><path d="m256-656v32h-16-32v-24-8z"/><path d="m96-800h-32-192v-32h96 64 64z"/><path d="m188-832v32h-92v-32z"/><path d="m64-704h96v48 32h-96-32v-80z"/><path d="m64-704h-32-192v-96h32 192z"/><path d="m96-800h92v8 88h-28-96v-96z"/><path d="m-128-1032v24 64h-48v-64-24z"/><path d="m-160-800v-80h32v48 32z"/><path d="m-16-1008h48 47v128h-47-64v-128z"/><path d="m-32-880v48h-96v-48-64-64h96z"/><path d="m-32-1008h-96v-24h112v24z"/><path d="m-208-944h32 48v64h-32-16-48v-64z"/><path d="m-176-944h-32v-64h32z"/><path d="m-224-944v-64h16v64z"/><path d="m-24-648h8v24h-8z"/><path d="m-136-624v-24-8h112v8 24z"/><path d="m-144-624v-24h8v24z"/><path d="m-176-1008v-24z"/><path d="m188-800v-32 40z"/><path d="m208-656v8z"/><path d="m160-704v48z"/><path d="m160-624v-32 8z"/><path d="m32-1008h-48z"/><path d="m-32-832h16 48z"/><path d="m32-704h-56-40-32-64z"/><path d="m352-528v-40-8 32 32z"/><path d="m288-608h-16l-32-16h16z"/><path d="m288-608v8l-16-8z"/><path d="m352-576v8l-48-24-16-8v-8z"/><path d="m160-592h-96z"/><path d="m288-592v-8l16 8z"/><path d="m288-600v8h-128v-16h112z"/><path d="m272-608h-112v-16h48 32z"/><path d="m160-624v16 16h-96v-32z"/><path d="m288-512h64-170-22z"/><path d="m288-592v64 16h-128v-80z"/><path d="m352-528v16h-64v-16z"/><path d="m352-568v40h-64v-64h16z"/><path d="m160-592v24l-96 18v-42z"/><path d="m-144-504v8h-24v-8z"/><path d="m-144-624v8h-24v-8z"/><path d="m-136-608h-8v-8-8h8z"/><path d="m-176-512v-104h8 24v8 104h-24-8z"/><path d="m-144-504v-104h8 72v80l-80 32z"/><path d="m-64-528v16l-80 32v-16z"/><path d="m-24-608h-40-72v-16h112z"/><path d="m-24-608h56v16 80h-96v-16-80z"/><path d="m-24-624h8 48v16h-56z"/><path d="m64-592h-32v-16-16h32z"/><path d="m-144-480 80-32z"/><path d="m-144-320h-24z"/><path d="m32-304v8 8z"/><path d="m-144-288v-8-24z"/><path d="m-144-320v32z"/><path d="m32-288v32z"/><path d="m32-256v-32z"/><path d="m-352-512h112v64h-112z"/><path d="m-352-448h112 16v48 80h-128z"/><path d="m-224-448h-16v-64h16z"/><path d="m-352-800v-208h128v64 64 16 64 16h-128z"/><path d="m-224-784v208 16h-128v-176-48z"/><path d="m-224-560v48h-16-112v-48z"/><path d="m32-112h32z"/><path d="m32-240h32z"/><path d="m32-240v-16z"/><path d="m-144-288h4 7.7103z"/><path d="m32-256v-32h-4v48h4z"/><path d="m-144-288v32z"/><path d="m-144-256v16 176z"/><path d="m508-800h4z"/><path d="m504-800h4z"/><path d="m448-928h56z"/><path d="m504-928v128h-56v-128z"/><path d="m504-928h4v128h-4z"/><path d="m508-928h4v128h-4z"/><path d="m512-928v128z"/><path d="m-352-320v-128-64 64z"/><path d="m416-800h32z"/><path d="m448-800h-32v-128h32z"/><path d="m79-880v-128z"/><path d="m111.3333-880h-32.3333v-128h32.3333z"/><path d="m80-304h64 16-96z"/><path d="m128-320h16v8h-16z"/><path d="m80-312v-8h16v8z"/><path d="m80-304v-8h16 8 16 8 16v8z"/><path d="m128-320h-8-16-8-16v-16h64v16z"/><path d="m104-320h16v8h-16z"/><path d="m-352-320h128z"/><path d="m-352-288v-32h128v32z"/><path d="m-352-288v-32z"/><path d="m384-800h32 32z"/><path d="m416-928h32z"/><path d="m416-928v128z"/><path d="m384-800v-128h32v128z"/><path d="m111.3333-880h-32.3333z"/><path d="m79-1008h32.3333z"/><path d="m111.3333-880v-128z"/><path d="m143.6667-880h-32.3334v-128h32.3334z"/><path d="m352-544v-32z"/><path d="m352-416v-96z"/><path d="m352-352v-32z"/><path d="m352-416h8z"/><path d="m360-512h-8v-32h8z"/><path d="m352-544h8z"/><path d="m352-384v-32h8v32z"/><path d="m352-352-96 48z"/><path d="m96-320h8z"/><path d="m96-312v-8z"/><path d="m96-312v-8h8v8z"/><path d="m-352-288h128z"/><path d="m-352-256v-32h128v32z"/><path d="m224-240v128h16v-128z"/><path d="m104-320v8z"/><path d="m104-312h-8z"/><path d="m-44-96v8 24z"/><path d="m-36-96h-8v32h8z"/><path d="m-68-96h-8v32h8z"/><path d="m-52-96h-8v32h8z"/><path d="m-76-96v8 24z"/><path d="m-60-96v8 24z"/><path d="m256-240v128-8-24-32-32-24z"/><path d="m240-240h-40-8-32z"/><path d="m-352-256v-32z"/><path d="m-352-256v32z"/><path d="m32-624h-48z"/><path d="m32-656v-48 80z"/><path d="m384-800h64-96z"/><path d="m384-928h64-32z"/><path d="m384-928v128z"/><path d="m384-928v128h-32v-128z"/><path d="m143.6667-880h-64.6667 32.3333z"/><path d="m79-1008h64.6667-32.3334z"/><path d="m143.6667-880v-128z"/><path d="m176-880h-32.3333v-128h32.3333z"/><path d="m-160-704v-88-8z"/><path d="m-96-696v-8h32v8z"/><path d="m-64-696v-8z"/><path d="m-24-656v8z"/><path d="m-96-656v-8h32v8z"/><path d="m-96-656v-8z"/><path d="m-64-656v-8z"/><path d="m-96-656h32 40-112z"/><path d="m64-240v8 4.7997z"/><path d="m144-304v-8-8-16z"/><path d="m80-336v16 8 8z"/><path d="m160-112v64-48z"/><path d="m-144-448h-24z"/><path d="m-144-496v16 32z"/><path d="m-168-496h24z"/><path d="m-168-496v-8z"/><path d="m-140-288h12 18.1132-22.4029z"/><path d="m28-288h4-11.7102z"/><path d="m-140-288h-4v32 192h3.2002.7998z"/><path d="m-76-64h8 8 8 8 8 64-9-55-8-8-8-8-8-55-9z"/><path d="m-36-64h64.8-.8z"/><path d="m-44-64h-8z"/><path d="m-60-64h-8z"/><path d="m-140-64h-.7998 64.7998z"/><path d="m-36-88v-8 32z"/><path d="m32-240h-4z"/><path d="m28-288h-12v48h12z"/><path d="m28-112h4z"/><path d="m28-112-9-6v6z"/><path d="m28-112v48h.8 3.2v-48z"/><path d="m28-112h-9v48h9z"/><path d="m-36-96h-8z"/><path d="m-44-64v-24h8v24z"/><path d="m-68-88v-8 32z"/><path d="m-52-96h-8z"/><path d="m-60-64v-24h8v24z"/><path d="m-52-88v-8 32z"/><path d="m-68-96h-8z"/><path d="m-76-64v-24h8v24z"/><path d="m-352-256h128z"/><path d="m-224-224h-128z"/><path d="m-352-224v-32h128v32z"/><path d="m224-240h16z"/><path d="m240-112h-16z"/><path d="m224-112v-128z"/><path d="m240-240v128z"/><path d="m224-112v-128h16v128z"/><path d="m240-112v-128 8 24 32 32 24z"/><path d="m240-112h16v-8h-16z"/><path d="m240-112h-80 32 8z"/><path d="m240-112v-8h-80v8z"/><path d="m256-112h-16z"/><path d="m256-112h48v-8h-48z"/><path d="m304-112h16.0026l-.0026-8h-16z"/><path d="m304-112h-48z"/><path d="m320.0026-112h-16.0026 24 24z"/><path d="m-352-800v64 64z"/><path d="m-352-800v16 48z"/><path d="m-224-672v48z"/><path d="m-224-512v-32z"/><path d="m-224-616v40z"/><path d="m-224-624v8z"/><path d="m-224-512v8 104-48z"/><path d="m-224-320v-48z"/><path d="m-224-320v32z"/><path d="m-224-368v48-80z"/><path d="m120-320h8z"/><path d="m120-312v-8z"/><path d="m120-312v-8h8v8z"/><path d="m-176-544v-32-40 104z"/><path d="m-176-544v32z"/><path d="m-176-616v-.0089.0089h8z"/><path d="m-184-576h8v32h-8z"/><path d="m-224-544v-32h8v32z"/><path d="m-224-576h8z"/><path d="m-176-576h-8z"/><path d="m-176-544h-8z"/><path d="m-176-440h8z"/><path d="m-176-368v40z"/><path d="m-176-440v40z"/><path d="m-224-368v-32h8v32z"/><path d="m-184-400h8v32h-8z"/><path d="m-224-400h8z"/><path d="m-184-368h8z"/><path d="m-224-368h8z"/><path d="m448-784v-16 96.05z"/><path d="m448-800h56z"/><path d="m-352-624v-48z"/><path d="m-176-1032v-8z"/><path d="m224-1040v8z"/><path d="m448-1040v8h-112v-8z"/><path d="m280-1040h56v8h-56z"/><path d="m272-1040h8v8h-8z"/><path d="m272-1040v8h-48v-8z"/><path d="m-176-1008v8 4.8z"/><path d="m32-1008v8 4.8z"/><path d="m32-832v8 4.8z"/><path d="m32-656v-48z"/><path d="m280-792v-8-8z"/><path d="m448-1032v88h-112v-88z"/><path d="m448-944v16h-96-16v-16z"/><path d="m352-784h32v90.7167l-48 8v-98.7167z"/><path d="m448-800v16h-64-32v-16z"/><path d="m384-693.2833v-90.7167h64v80.05z"/><path d="m336-808v-120h16v128 16h-16z"/><path d="m336-1032v88 16 120h-56v-24-200z"/><path d="m336-808v24 98.7167l-56 9.3333v-116.05-16z"/><path d="m336-685.2833 48-8 64-10.6667-8 1.3334-160 26.6666z"/><path d="m448-928h-64-32z"/><path d="m352-928v128z"/><path d="m224-1032v24z"/><path d="m280-1032v200h-8v-200z"/><path d="m272-1032v200h-48v-48-128-24z"/><path d="m176-880v-128h48v128z"/><path d="m79-880h97 48-24-8z"/><path d="m79-880h64.6667 32.3333z"/><path d="m79-1008h97-32.3333z"/><path d="m176-880v-128z"/><path d="m32-880h47z"/><path d="m79-1008h-47z"/><path d="m280-832v24h-8v-24z"/><path d="m272-832v24 8h-48v-32z"/><path d="m192-800 8-8 24-24v32z"/><path d="m188-832v40z"/><path d="m272-808h8-80z"/><path d="m224-832-24 24z"/><path d="m224-800h48-80z"/><path d="m200-808-8 8z"/><path d="m272-800v-8h-72l-8 8z"/><path d="m280-675.95-8 1.3334v-117.3834h8z"/><path d="m188-792v88z"/><path d="m32-704h8 4.8z"/><path d="m32-704v48h8v-48z"/><path d="m-16-880h-16 64z"/><path d="m-160-880h8 4.8z"/><path d="m-176-880h16z"/><path d="m-16-1008v8h48v-8z"/><path d="m-16-880h48v-8h-48z"/><path d="m-160-800v-32-48z"/><path d="m-32-832h-8-4.8z"/><path d="m-32-880v48z"/><path d="m-160-880v48h8v-48z"/><path d="m-32-880h-8v48h8z"/><path d="m-24-704h8z"/><path d="m32-704h-48-8z"/><path d="m-24-704h-40z"/><path d="m-16-832v8h48v-8z"/><path d="m-16-704h48v-8h-48z"/><path d="m-224-880h48z"/><path d="m-224-1008h48-32z"/><path d="m-224-1008v8h48v-8z"/><path d="m-224-880h48v-8h-48z"/><path d="m128-320v8z"/><path d="m128-312h-8z"/><path d="m-224-224v32h-128v-32z"/><path d="m-224-624h-8-4.8z"/><path d="m-352-672v48h8v-48z"/><path d="m-224-672h-8v48h8z"/><path d="m-224-192h-128z"/><path d="m488-928v128h16v-128z"/><path d="m256-656v8 24z"/><path d="m256-656h-48z"/><path d="m256-648v-8h-48v8z"/><path d="m19-64h-3-52z"/><path d="m-44-88v-8z"/><path d="m-44-88v-8 32z"/><path d="m-36-96v8z"/><path d="m19-118-3-2v8h3z"/><path d="m19-112h-3v48h3z"/><path d="m-44-88v24h8v-24z"/><path d="m-36-88h-8z"/><path d="m-76-88v-8 32z"/><path d="m-76-88v-8z"/><path d="m-68-96v8z"/><path d="m-60-88v24h8v-24z"/><path d="m-60-88v-8 32z"/><path d="m-52-88h-8z"/><path d="m-60-88v-8z"/><path d="m-52-96v8z"/><path d="m-68-88h-8z"/><path d="m-76-88v24h8v-24z"/><path d="m448-800v-8-4.7999z"/><path d="m512-928h-4z"/><path d="m508-928h-4z"/><path d="m504-800v-8-24-32-32-24-8z"/><path d="m504-928v8 24 32 32 24 8z"/><path d="m512-928v8 4.8002z"/><path d="m508-928v8 24 32 32 24 8z"/><path d="m508-800v-8-24-32-32-24-8z"/><path d="m508-800h4v-8h-4z"/><path d="m504-800h4v-8h-4z"/><path d="m448-928v8h56v-8z"/><path d="m448-800h56v-8h-56z"/><path d="m272-792h8z"/><path d="m280-808v8h-88l8-8z"/><path d="m272-792v117.3834-.0001z"/><path d="m256-792h16v117.3833l-16 2.6667z"/><path d="m240-664v-128z"/><path d="m240-792h16v120.05 7.95h-16z"/><path d="m64-120v-4.8-19.2z"/><path d="m64-120v8-12.8z"/><path d="m320-120v-4.7996-19.2004z"/><path d="m304-120h16v-24h-16z"/><path d="m240-120v-24-32-32-24-8 128z"/><path d="m256-232v24 32 32 24 8-128z"/><path d="m256-120h48v-24h-48z"/><path d="m240-120h16v-24h-16z"/><path d="m256-232v-8h-16v8z"/><path d="m256-232h-16v24h16z"/><path d="m160-120v-4.7999 12.7999z"/><path d="m160-232v-8 28z"/><path d="m240-120v-24h-80v24z"/><path d="m240-232v-8h-80v8z"/><path d="m-128-288h20 11.3726-13.2594z"/><path d="m-76-96h8v32h-8z"/><path d="m-60-96h8v32h-8z"/><path d="m-44-96h8v32h-8z"/><path d="m16-288h-2.5001l-12.4999 80.0028 15-24.0007z"/><path d="m16-120-15-24 12.4998 80h2.5002z"/><path d="m16-231.9979-9 24.0007 57-.0028v-24z"/><path d="m16-231.9979-15 24.0007h6z"/><path d="m-44-64h-8z"/><path d="m-128-64h-3 55z"/><path d="m-60-64h-8z"/><path d="m-36-96v8 24z"/><path d="m16-231.9979 48-.0021v-8h-32-4z"/><path d="m16-240v8.0021l12-8.0021z"/><path d="m64-120h-48l3 2 9 6h4 32z"/><path d="m-68-96v8 24z"/><path d="m-52-96v8 24z"/><path d="m-128-288h-12v224h9 3z"/><path d="m-224-160h-128z"/><path d="m-224-192v32h-128v-32z"/><path d="m488-928h16z"/><path d="m504-800h-16z"/><path d="m504-928v128z"/><path d="m488-800v-128z"/><path d="m488-800v-128h16v128z"/><path d="m304-232v-8h-48v8z"/><path d="m304-232h-48v24h48z"/><path d="m320-232v-8h-16v8z"/><path d="m320-232h-16v24h16z"/><path d="m272-792h-16-16 8z"/><path d="m256-648v24z"/><path d="m256-648h-48z"/><path d="m-352-128v-32z"/><path d="m-352-160v-32z"/><path d="m-224-888v-24z"/><path d="m-224-1000v-8 12.8z"/><path d="m-224-1000v4.8 19.2014z"/><path d="m-224-160v-32 16 48z"/><path d="m-224-160v-32z"/><path d="m32-712v8-12.7998z"/><path d="m32-712v-4.7998-19.2002z"/><path d="m248-792h-8-32 8z"/><path d="m240-664h-32v-128h32z"/><path d="m40-656h-8 12.8z"/><path d="m40-656h4.8 19.2z"/><path d="m152-656h-4.8 12.8z"/><path d="m152-704h-4.8-19.2z"/><path d="m152-704h-24v48h24z"/><path d="m152-656h8v-48h-8z"/><path d="m40-656h24v-48h-24z"/><path d="m-40-880h8-12.8z"/><path d="m-40-880h-4.8-19.2z"/><path d="m-16-1000v4.8 19.2z"/><path d="m-16-1000v-8 12.8z"/><path d="m32-1000h-48v24h48z"/><path d="m-152-832h-8 12.8z"/><path d="m-152-832h4.8 19.2z"/><path d="m-40-880h-24v48h24z"/><path d="m-152-832h24v-48h-24z"/><path d="m-16-712v-4.7999 12.7999z"/><path d="m-16-824v4.8 19.2z"/><path d="m-16-824v-8 12.8z"/><path d="m32-824h-48v24h48z"/><path d="m-176-1000h-48v24.0014l48-.0001z"/><path d="m320-112v-12.7996 4.7996l.0026 8z"/><path d="m-232-672h-4.8-19.2z"/><path d="m-232-672h8-12.8z"/><path d="m-344-672h4.8-12.8z"/><path d="m-344-624h24z"/><path d="m-232-672h-24v48h24z"/><path d="m-344-624h24v-48h-24z"/><path d="m-224-160v32h-128v-32z"/><path d="m160-124.7999v4.7999-24z"/><path d="m320-227.1995v-4.8005 24z"/><path d="m79-880h113 8-24z"/><path d="m79-880h-2.6923-44.3077z"/><path d="m240-664h16z"/><path d="m240-664h16v16h-48v-8-8z"/><path d="m188-832h-92-64 40z"/><path d="m188-704v-88h-28v88z"/><path d="m188-704h-28z"/><path d="m64-208v32-64z"/><path d="m64-208v-19.2003-4.7997z"/><path d="m304-208v32h16v-32z"/><path d="m256-208v32h48v-32z"/><path d="m240-208v32h16v-32z"/><path d="m240-144v-32h-80v32z"/><path d="m240-208v-24h-80v24z"/><path d="m1-207.9972 12.4999-80.0028h-17.4999v112z"/><path d="m1-144-5-32v112h17.4998z"/><path d="m1-144 15 24h48v-24z"/><path d="m1-207.9972-5 31.9972h68v-32z"/><path d="m-176 0h32z"/><path d="m448-920v4.8002 19.1998z"/><path d="m448-920v-8 12.8002z"/><path d="m512-808v-4.7997-19.2003z"/><path d="m512-808v8-12.7997z"/><path d="m508-808h4v-24h-4z"/><path d="m512-920v-8h-4v8z"/><path d="m512-920h-4v24h4z"/><path d="m504-808h4v-24h-4z"/><path d="m508-920v-8h-4v8z"/><path d="m508-920h-4v24h4z"/><path d="m504-920h-56v24h56z"/><path d="m-48-1040h-80-48z"/><path d="m-16-1040h-32z"/><path d="m-16-1040v8z"/><path d="m-176-1008v-24z"/><path d="m32-1008h44.3077 2.6923z"/><path d="m216-792h-8-32 8z"/><path d="m208-672v-120 128z"/><path d="m256-671.95v7.95z"/><path d="m256-624v-24-16z"/><path d="m176-792h32v120h-32z"/><path d="m160-704h-12.8 4.8z"/><path d="m-160-832v32z"/><path d="m-16-832h-16z"/><path d="m352-576-64-32-32-16z"/><path d="m352-384v-32-96-32-32 8 208 8z"/><path d="m352-544v32h8v-32z"/><path d="m360-512h-8z"/><path d="m360-512v-32z"/><path d="m352-416v32h8v-32z"/><path d="m360-384v-32z"/><path d="m352-384h8z"/><path d="m160-304h-16z"/><path d="m144-336h16z"/><path d="m144-336v32z"/><path d="m320-176h-16v32h16z"/><path d="m304-176h-48v32h48z"/><path d="m256-176h-16v32h16z"/><path d="m160-176v-32 56 40z"/><path d="m240-176v-32h-80v32z"/><path d="m-144-128h-32z"/><path d="m-176-128h32v128h-32-16-32v-128z"/><path d="m-4-176 5 32h63v-32z"/><path d="m-108-288h-20v224h20z"/><path d="m-4-288h-24l.0014 224h23.9986z"/><path d="m-256-128v64h-96v-64z"/><path d="m-256-64v64h-88-8v-64z"/><path d="m-224 0h-32v-64-64h32z"/><path d="m-256-128h-96 128z"/><path d="m-224-888v-24-32z"/><path d="m-224-888v88-64-16z"/><path d="m-16-888v-24z"/><path d="m-16-888v8z"/><path d="m-344-624h-8z"/><path d="m-176-995.2v-4.8 24.0013z"/><path d="m32-995.2v-4.8 24z"/><path d="m32-819.2v-4.8 24z"/><path d="m-16-716.7999v4.7999-24z"/><path d="m147.2-656h-19.2-32 32 32z"/><path d="m-44.8-832h-19.2-32 64z"/><path d="m44.8-704h19.2 32 26.6667-50.6667-40z"/><path d="m160-792h28v-40h-116v40z"/><path d="m208-672v8z"/><path d="m208-664h32z"/><path d="m160-792h-88v88h50.6667 37.3333z"/><path d="m160-624h48z"/><path d="m-176-912v24z"/><path d="m32-912v24z"/><path d="m200-808-8 8z"/><path d="m200-808 24-24z"/><path d="m128-656h19.2 4.8z"/><path d="m64-704h-19.2-4.8z"/><path d="m128-656v-48h-32v48z"/><path d="m160-648v-8h-32-48v8z"/><path d="m-128-880h-19.2-4.8z"/><path d="m-16-912v24h48v-24z"/><path d="m-16-976v32h48v-32z"/><path d="m-64-832h19.2 4.8z"/><path d="m-128-832h32v-48h-32z"/><path d="m-16-736v24h48v-24z"/><path d="m-16-800v32h48v-32z"/><path d="m-224-912v24h48v-24z"/><path d="m-224-975.9986v31.9986h48v-31.9987z"/><path d="m-320-672h-19.2-4.8z"/><path d="m-256-624h19.2 4.8z"/><path d="m-256-624h-32 64z"/><path d="m-320-624h32v-48h-32z"/><path d="m320-221.176v-6.0235 19.1995 32z"/><path d="m192-800h88v8h-8-24-32-32-32-32-32v-8z"/><path d="m-132.2897-288h22.4029 13.2594 12.6274 28-88z"/><path d="m20.2898-288h-22.4031 18.1133 12z"/><path d="m-176 0h32 32z"/><path d="m-176 0h-16z"/><path d="m448-928v-16-88-8 8z"/><path d="m32-768v32 19.2002 12.7998z"/><path d="m176-1008h48-48-97z"/><path d="m224-880h-48 24z"/><path d="m176-880v-8-4.7999z"/><path d="m176-1008v8h48v-8z"/><path d="m176-880h48v-8h-48z"/><path d="m184-792h-8-16-16 8z"/><path d="m160-672v8z"/><path d="m160-792h16v120h-16z"/><path d="m176-672h32z"/><path d="m176-792v120z"/><path d="m144-664h16-8z"/><path d="m144-792h16v120 8h-16z"/><path d="m96-656v-48h-32v48z"/><path d="m-96-880h32 19.2 12.8z"/><path d="m32-944h-48v32h48z"/><path d="m-96-832h-32-32 128z"/><path d="m-96-880v48h32v-48z"/><path d="m-96-704h-64z"/><path d="m-16-768v-32-32 8 32 88z"/><path d="m32-768h-48v32h48z"/><path d="m-96-704v8h32v-8z"/><path d="m-96-704v8z"/><path d="m-96-696h32z"/><path d="m-64-656h40z"/><path d="m-96-664v8h32v-8z"/><path d="m-64-664h-32z"/><path d="m-176-944h-48v32h48z"/><path d="m384-112h-32z"/><path d="m352-112h-32 .0026z"/><path d="m320-220v-20z"/><path d="m320-220v-1.176 45.176 32 19.2004 12.7996z"/><path d="m160-112v-12.7999-19.2001-32z"/><path d="m-144 0v-128z"/><path d="m-112 0h-32v-128h32z"/><path d="m-288-672h32 19.2 12.8z"/><path d="m-288-672v48h32v-48z"/><path d="m-2.1133-288h-13.2593 11.3726 17.4999 2.5001z"/><path d="m-96.6274-288h-11.3726 24z"/><path d="m448-812.7999v4.7999-24z"/><path d="m512-915.1998v-4.8002 24z"/><path d="m-28-288h24-11.3726z"/><path d="m-84-288h-24v224h24z"/><path d="m-27.9986-64h-28.0014-28-24-20 52 8 8 8 8 8 52-2.5002-17.4998z"/><path d="m-28-288h-28v224h28.0014z"/><path d="m122.6667-704h-26.6667 32 19.2 12.8z"/><path d="m448-832v-32 64z"/><path d="m512-896v32 64-128z"/><path d="m508-896v32h4v-32z"/><path d="m504-896v32h4v-32z"/><path d="m448-832v24h56v-24z"/><path d="m448-896v32h56v-32z"/><path d="m-224-512v-32-32 71.9735.0265z"/><path d="m-224-400v-104 8z"/><path d="m-224-288v32z"/><path d="m-224-192v-32-32-32-32-48-32 40 184z"/><path d="m-224-256v32z"/><path d="m-224-224v32z"/><path d="m-176-576v-40z"/><path d="m-184-544h8v-32h-8z"/><path d="m-224-576v32h8v-32z"/><path d="m-216-544h-8z"/><path d="m-216-544v-32z"/><path d="m-184-576v32z"/><path d="m-224-400v32h8v-32z"/><path d="m-184-368h8v-32h-8z"/><path d="m-184-400h8z"/><path d="m-216-368v-32z"/><path d="m-184-400v32z"/><path d="m-56-288h-28v224h28z"/><path d="m160-648v-16-8 48z"/><path d="m160-648v24z"/><path d="m-224-888v-56-31.9986-19.2014-12.8 112z"/><path d="m-176-888v-32-24 32z"/><path d="m32-888v-56 32z"/><path d="m-16-888v-24-32z"/><path d="m-176 0h64 32z"/><path d="m-344 0h-8z"/><path d="m512-864v32 32z"/><path d="m512-864h-4v32h4z"/><path d="m508-864h-4v32h4z"/><path d="m504-864h-56v32h56z"/><path d="m448-1040h-112-56-8-48z"/><path d="m-352-512v-104-8z"/><path d="m-352-224v-32 32 32z"/><path d="m-352-160v32 64 64z"/><path d="m448-1032v-8h-224v8z"/><path d="m-224-672v-128z"/><path d="m144-792h-32 8 32z"/><path d="m144-664h8-32-8z"/><path d="m144-792v128z"/><path d="m112-792h32v128h-32z"/><path d="m-16-704v-12.7999-19.2001-32z"/><path d="m-80 0v-128z"/><path d="m-112.0017-128h-63.9983 96z"/><path d="m-112 0v-128h-.0017z"/><path d="m-80 0h-32l-.0017-128h32.0017z"/><path d="m-344-616h120v-8h-120-8v8z"/><path d="m-344-624h120-64-32z"/><path d="m-344-224v224-168z"/><path d="m-344-448v224-168z"/><path d="m-352-224v32 32 160h8v-224z"/><path d="m-352-448v128 32 32 32h8v-224z"/><path d="m-344-616h-8v104 64h8z"/><path d="m-176-128h-48z"/><path d="m-176-128h63.9983.0017-32z"/><path d="m-176 0h96 32z"/><path d="m512-800h16z"/><path d="m-352-896v-112 208z"/><path d="m-224-576v-40-.0089.0089 32z"/><path d="m-224-400v-96z"/><path d="m-176-888v-8-24z"/><path d="m-176-880v-8z"/><path d="m32-792v-40 32 32 64z"/><path d="m32-648v24z"/><path d="m32-624v-24-8z"/><path d="m224-880v48z"/><path d="m224-1000v4.7991-12.7991z"/><path d="m224-888v8-12.7998z"/><path d="m224-888v-4.7998-19.2002z"/><path d="m176-1000v4.7989 19.2011z"/><path d="m176-1000v-8 12.7989z"/><path d="m224-1000h-48v24h48z"/><path d="m112-792h-32 8 32z"/><path d="m72-832h-40v40h40z"/><path d="m80-800h4z"/><path d="m80-792 4-8h-4z"/><path d="m80-800v8z"/><path d="m208-656v-16 8z"/><path d="m208-656v8z"/><path d="m208-624v-24z"/><path d="m80-648h8 72z"/><path d="m80-792h32v128h-32z"/><path d="m80-648v-8h-48v8z"/><path d="m72-792h-40v88h40z"/><path d="m80-664h8z"/><path d="m80-664h32 8-32z"/><path d="m80-656h48-32-32-19.2-12.8z"/><path d="m112-792v128z"/><path d="m-160-880h32 32 64z"/><path d="m-160-880h128 16v-8h-160v8z"/><path d="m-16-888h-160z"/><path d="m-96-704h32z"/><path d="m-96-704h32 40 8v-88h-144v88z"/><path d="m-16-824-8-8h-8-128v32 8h144z"/><path d="m-136-648v-8z"/><path d="m-24-648h8z"/><path d="m-136-648h112v-8h-40-32-40z"/><path d="m-24-648h-112z"/><path d="m-64-656h-32z"/><path d="m-136-656h40z"/><path d="m160-48h-96z"/><path d="m80-304h-16z"/><path d="m160-336 32 32z"/><path d="m160-336h-16z"/><path d="m64-336h16z"/><path d="m80-304v-8-8-16z"/><path d="m256-288v-8h-64v8z"/><path d="m192-288v8 40h-32z"/><path d="m192-280v40z"/><path d="m256-296v-8z"/><path d="m256-296h-64z"/><path d="m192-240h-32z"/><path d="m160-112v-40-60-28 48 32 112z"/><path d="m160-240v-16z"/><path d="m160-256v-48z"/><path d="m256-288h-64z"/><path d="m160-152v-56-24 20z"/><path d="m48-320 16-16z"/><path d="m-80 0v-128h32v128z"/><path d="m32-288v-8h-176v8z"/><path d="m32-304v8z"/><path d="m32-296h-176z"/><path d="m-224-128h48z"/><path d="m32-288h-176 88 28 12.6274 13.2593 22.4031z"/><path d="m32-304 16-16z"/><path d="m-352-1008h128z"/><path d="m-224-616h-120l120-.0089z"/><path d="m-352-672h32 32 64z"/><path d="m-352-896v96 128h128v-128-88-8z"/><path d="m-224-1008h-128v112h128z"/><path d="m-16-880h-16z"/><path d="m-16-832h-8l8 8z"/><path d="m84-800-4 8v-8z"/><path d="m448-1088v32z"/><path d="m-48 0h16 64-8-24z"/><path d="m-352 0h8-8-16z"/><path d="m448-1032v104z"/><path d="m528-1056v24z"/><path d="m448-1056v16h-224v-16z"/><path d="m448-1032h-224z"/><path d="m448-1040v8h-224v-8z"/><path d="m-224-1032v224z"/><path d="m-224-496v-8z"/><path d="m-176-896v8 16 72 8 120-136z"/><path d="m224-832v.0015-48.0015z"/><path d="m224-1008v-24z"/><path d="m80-792h8z"/><path d="m88-800v8h-8-48v-8z"/><path d="m200-808 24-24z"/><path d="m192-800 8-8z"/><path d="m192-800h-104z"/><path d="m80-792v128h-48v-8-120z"/><path d="m80-664h8v16h-56v-16z"/><path d="m88-648h-8-48z"/><path d="m88-664h32 32 8v16h-72z"/><path d="m80-792v128z"/><path d="m-144-672h-24-8z"/><path d="m16-792h16v120h-48-128-32v-120z"/><path d="m-24-800h32l8 8h-192v-8z"/><path d="m-24-872v40 32h-152v-72z"/><path d="m-24-800v-32l32 32z"/><path d="m-16-888v16h-8-152v-16z"/><path d="m-24-872h8v40h-8z"/><path d="m8-800-32-32h8l32 32v8z"/><path d="m32-792h-16v-8h16z"/><path d="m32-800h-16 8z"/><path d="m-16-1008v-24z"/><path d="m-16-888v-56-32-19.2-12.8z"/><path d="m-144-624v-24z"/><path d="m-16-648v24z"/><path d="m-16-648v-16-8z"/><path d="m-16-672v8h-128v-8z"/><path d="m-16-664v16h-8-112-8v-16z"/><path d="m-144-648h8z"/><path d="m64-240v64 32 32z"/><path d="m64-240v-64z"/><path d="m64-304h16z"/><path d="m192-304-32-32z"/><path d="m96-312h8v-8h-8z"/><path d="m192-280v-8z"/><path d="m192-304v8z"/><path d="m192-160v-32-48z"/><path d="m256-280v-8 16 224z"/><path d="m192-288v-8h64v8 8h-64z"/><path d="m192-160v-80-40h64v232h-64z"/><path d="m192-280v-8l-32 48h32z"/><path d="m160-304v48z"/><path d="m160-256v16z"/><path d="m192-288-32 48z"/><path d="m-176-504v-.0265-7.9735z"/><path d="m-176-616.0089v.0089 40-40z"/><path d="m-144-320h-24z"/><path d="m32-144v-96h32v128h-32z"/><path d="m-144-320v24z"/><path d="m-48-280h80v8h-80z"/><path d="m32-296v16h-80-96v-16z"/><path d="m-144-272v-8h96v8z"/><path d="m-48-128h16v128h-16z"/><path d="m-48-144h-128v-64h128z"/><path d="m-176-208v-48h32 96v48z"/><path d="m-32-128v-16h64v32 112h-64z"/><path d="m-48-144h16v16h-16-128v-16z"/><path d="m-144-272v16h-32v-16z"/><path d="m32-272v32 96h-64-16v-64-48-16z"/><path d="m-48-256h-96v-16h96z"/><path d="m-48-128h-32-96z"/><path d="m-48 0v-128z"/><path d="m-352-616h8v168 56h-8z"/><path d="m-344-392v168 56h-8v-224z"/><path d="m-344-168v168h-8v-168z"/><path d="m-352-1032h8v224h-8z"/><path d="m-344-808v192h-8v-192z"/><path d="m-344-1032h120v224h-120z"/><path d="m-224-808v191.9911l-120 .0089v-192z"/><path d="m-344-616v168z"/><path d="m-368-616h16v224h-16z"/><path d="m-352-392v224h-16v-224z"/><path d="m-352-168v168h-16v-168z"/><path d="m-368-1032h16v224h-16z"/><path d="m-352-808v192h-16v-192z"/><path d="m224-995.2009v19.2009 32 64-21.3327-130.6673 24z"/><path d="m224-995.2009v-4.7991 24z"/><path d="m176-892.7999v-19.2001-32 64z"/><path d="m176-892.7999v4.7999-24z"/><path d="m176-912v24h48v-24z"/><path d="m176-976v32h48v-32z"/><path d="m176-944v32h48v-32z"/><path d="m528-1088v32h-32-48v-32z"/><path d="m528-1088v32z"/><path d="m-224 0h-120 88 32 32z"/><path d="m448-926.6167v126.6167-64-32-32z"/><path d="m448-1056v16 8-8z"/><path d="m528-1056v24h-32v-24z"/><path d="m496-1056v24z"/><path d="m-16-1040h-32-128z"/><path d="m440-1056v16h8v-16z"/><path d="m440-1040v-16z"/><path d="m-176-1032v-8z"/><path d="m224-1032v-8z"/><path d="m440-1040v8h8v-8z"/><path d="m440-1032v-8z"/><path d="m-176-1040v8h8 152v-8z"/><path d="m-224-808v192-.0089z"/><path d="m-224-504.0265v8.0265-8z"/><path d="m-224-176v48z"/><path d="m-16-624h48z"/><path d="m-176-1008v12.8 19.2013 31.9987 24z"/><path d="m-176-920v24z"/><path d="m32-1008v12.8 19.2 32 56z"/><path d="m32-880v-8z"/><path d="m440-926.6167v118.6167 96 9.3834l8-1.3334v-96.05-126.6167z"/><path d="m448-928v-104h-8v105.3833h8z"/><path d="m440-712-160 26.6667v9.3833l160-26.6666z"/><path d="m440-926.6167v-105.3833 224z"/><path d="m440-712-160 26.6667z"/><path d="m224-880v-64 32 19.2002z"/><path d="m96-1008h8 36 36z"/><path d="m79-1008h17 80z"/><path d="m96-880h8-25z"/><path d="m96-880h-17 97z"/><path d="m176-1008v128-64-32-19.2011z"/><path d="m256-624-8-4v4z"/><path d="m280-685.3333-32 5.3333v9.3833l8-1.3333 16-2.6667 8-1.3333z"/><path d="m248-628 8 4v-47.95l-8 1.3333z"/><path d="m248-628v-42.6167-9.3833 56z"/><path d="m96-800h8 36 44z"/><path d="m208-656v32l-24-24 24-24z"/><path d="m160-672 24 24-24 24z"/><path d="m208-672-24 24-24-24z"/><path d="m96-800h88 8-104-56z"/><path d="m208-624v-32 8z"/><path d="m256-624v-40-7.95z"/><path d="m280-675.95-8 1.3333v.0001z"/><path d="m272-674.6167-16 2.6667z"/><path d="m208-672h-48 16z"/><path d="m-16-888v-120-24 200z"/><path d="m-16-1032v24z"/><path d="m-16-1008v120z"/><path d="m-16-832v-40-16z"/><path d="m32-800h-8z"/><path d="m-16-832 32 32z"/><path d="m-168-896v88 136-136z"/><path d="m-168-808v-88-136h-8v24 88 24 88z"/><path d="m-176-672h8v-136h-8z"/><path d="m348.0849-577.9572 3.9151 1.9572-96-48z"/><path d="m344-572 4.0849-5.9572-92.0849-46.0428h-8v4z"/><path d="m352-576-3.9151-1.9572-4.0849 5.9572 8 4z"/><path d="m248-48h-56 64z"/><path d="m344-355.6923-96 51.6923h8l96-48v-8z"/><path d="m344-572v216.3077l8-4.3077v-208z"/><path d="m344-572v216.3077z"/><path d="m344-355.6923-96 51.6923z"/><path d="m192-240v-64 8 8 8z"/><path d="m192-56v-104 112z"/><path d="m248-304v4l8-4z"/><path d="m248-272v192 24 8h8v-224z"/><path d="m256-288v-16l-8 4v28h8z"/><path d="m192-56v8h56v-8z"/><path d="m248-272v-28-4 32 192z"/><path d="m256-288v-8-8z"/><path d="m168-160h-8v-32h8z"/><path d="m192-160h-8v-32h8z"/><path d="m168-192h-8z"/><path d="m160-160v96 16z"/><path d="m-168-448h24z"/><path d="m-176-576v32 32z"/><path d="m-168-616v-8z"/><path d="m-168-616h-8v40 64 7.9735.0265h8z"/><path d="m-168-504h-8z"/><path d="m-176-328h8v-112h-8z"/><path d="m-176-440v40 32 40z"/><path d="m-168-328h-8z"/><path d="m32-48v48-112z"/><path d="m-168-272h24-32z"/><path d="m-224-120h48v-8h-48z"/><path d="m-176-128v8h8v-152h-8z"/><path d="m0-8h-224v8h32 16 128 48z"/><path d="m24 0v-8h-24v8z"/><path d="m32-48h-8v40 8h8z"/><path d="m24-8v-40z"/><path d="m24-8h-24z"/><path d="m-176-272v16 48 64 16z"/><path d="m-352 0h8v-8h-8z"/><path d="m-224-8h-120v8h120z"/><path d="m-224-1032h-8v224h8z"/><path d="m-232-808v16 208h8v-32-192z"/><path d="m-232-584v16 208h8v-40-96-8.0265-71.9735-8z"/><path d="m-232-360v16 224h8v-8-48-184z"/><path d="m-352-8h8z"/><path d="m-232-808v-224 224 16z"/><path d="m-232-120h8z"/><path d="m-368 0h16v-8h-16z"/><path d="m-368-8h16z"/><path d="m120-320v8z"/><path d="m120-312h8z"/><path d="m120-312h8v-8h-8z"/><path d="m104-864h36-36-36z"/><path d="m104-1024v16h-25-2.6923-8.3077v-16z"/><path d="m176-880h-36-36-8z"/><path d="m104-864v-16h36v16z"/><path d="m104-800h-8-64 36z"/><path d="m104-816v16h-36v-16z"/><path d="m-168-624h24z"/><path d="m32-880v-8-24-32-32-24-8 120z"/><path d="m176-1008h-36-13.8461z"/><path d="m32-1008v8h22.1541l13.8459-5 8.3077-3z"/><path d="m128-312v-8z"/><path d="m128-320h-8z"/><path d="m-168-616v112z"/><path d="m448-1056h-8 8 48z"/><path d="m448-1032v-8-16h48v24 104 96h-48z"/><path d="m496-832v38.3327 185.6673h-48v-16-184-24z"/><path d="m496-608v224h-48v-144-80z"/><path d="m496-384v224h-48v-148-76z"/><path d="m496-160v152 8h-48v-84-76z"/><path d="m80-1040h48 12-36-36z"/><path d="m152-1040h-12-12z"/><path d="m80-1040h-12-12z"/><path d="m440-1056h8v16h-8z"/><path d="m-224-1056v16z"/><path d="m-16-1056v16h-160v-16z"/><path d="m-224-1040v-16h48v16z"/><path d="m-16-1032h-152z"/><path d="m-224-1032h-8z"/><path d="m448-1040v8h-8v-8z"/><path d="m-16-1040v8h-152-8v-8z"/><path d="m-176-1032h-26.6666-21.3334v-8h48z"/><path d="m-224-1040v8z"/><path d="m448-1032v200 24h-8v-224z"/><path d="m448-808v184h-8v-88-96z"/><path d="m440-712-60.3429 88h-99.6571v-61.3333z"/><path d="m379.6571-624 60.3429-88v88z"/><path d="m440-808v96z"/><path d="m280-624h-24-8v-56l32-5.3333z"/><path d="m280-685.3333-32 5.3333z"/><path d="m-176-672h8z"/><path d="m-176-1032h8v136 88h-8z"/><path d="m-168-808v136h-8v-136z"/><path d="m-168-1032v136z"/><path d="m-144-624v-48 8 16z"/><path d="m-202.6666-1032h26.6666v224h-26.6666z"/><path d="m-176-808v136h-16-10.6666v-136z"/><path d="m-202.6666-672h10.6666v48h-10.6666z"/><path d="m-224-672h21.3334v48h-21.3334z"/><path d="m-224-1032h21.3334v224h-21.3334z"/><path d="m-202.6666-808v136h-21.3334v-136z"/><path d="m352-576-3.9151-1.9572 31.5722-46.0428h60.3429v92z"/><path d="m280-624h99.6571l-31.5722 46.0428-92.0849-46.0428z"/><path d="m448-624v16 80l-8-4v-92z"/><path d="m448-528v144 76h-8v-99.3846-124.6154z"/><path d="m448-308v148 76h-8v-99.3846-124.6154z"/><path d="m448-84v84h-8v-84z"/><path d="m352-568v-8l88 44v124.6154l-88 47.3846z"/><path d="m352-272v-32-56l88-47.3846v99.3846 124.6154h-88z"/><path d="m440-183.3846v99.3846 84h-88v-48-135.3846z"/><path d="m344-572-96-48z"/><path d="m344-572 4.0849-5.9572 3.9151 1.9572v8z"/><path d="m348.0849-577.9572-4.0849 5.9572-96-48v-4h8z"/><path d="m248-624v4z"/><path d="m64-240v8 4.8z"/><path d="m192-48h-32z"/><path d="m344-572 8 4v208l-8 4.3077z"/><path d="m344-355.6923 8-4.3077v56h-8z"/><path d="m344-355.6923v51.6923h-96z"/><path d="m192-160v104z"/><path d="m192-48v-8h56v8z"/><path d="m344-272v224h-96v-8-24-192z"/><path d="m344-304v32h-96v-32z"/><path d="m352-272v88.6154 135.3846h-8v-224z"/><path d="m352-304v32h-8v-32z"/><path d="m192-56h56z"/><path d="m248-80v24z"/><path d="m192-160h-8z"/><path d="m192-8v8h-112-16v-8z"/><path d="m160-48h32v40h-128v-40z"/><path d="m248 0v-48h96v48z"/><path d="m192-8v-40h56v48h-56z"/><path d="m352-48v48h-8v-48z"/><path d="m-168-448h-24z"/><path d="m-224-624h21.3334 10.6666 24v128h-24-32z"/><path d="m-168-624v8 112 8z"/><path d="m-224-496h32v48h-32z"/><path d="m-168-320h24-48z"/><path d="m-168-320v-128 8 112z"/><path d="m-192-448h24v128h-24-32v-128z"/><path d="m32-112v32 32z"/><path d="m32-112v-8-4.7999z"/><path d="m64-112h-32z"/><path d="m32-240h32z"/><path d="m32-240v8h32v-8z"/><path d="m32-112h32v-8h-32z"/><path d="m64-48h-32z"/><path d="m64-8h-32v-40h32z"/><path d="m64 0h-32v-8h32z"/><path d="m24-8v-40h8v40z"/><path d="m-224-320h32v48h-32z"/><path d="m-224-272h32 24v152h-56z"/><path d="m0 0h-144-80v-8h224z"/><path d="m32 0h-32v-8h24 8z"/><path d="m-192-320v48z"/><path d="m-144-272h-24z"/><path d="m-144-320v24 16 8z"/><path d="m-224-120h56-8z"/><path d="m-168-272v152z"/><path d="m24-48h8z"/><path d="m0-8h-224z"/><path d="m-224-8h-120z"/><path d="m-232-344v24 48 152z"/><path d="m-232-568v72 48 104-16z"/><path d="m-232-792v120 48 56-16z"/><path d="m-232-1032h8v224h-8z"/><path d="m-224-808v136h-8v-120-16z"/><path d="m-232-568v-56h8v128h-8z"/><path d="m-232-624v-48h8v48z"/><path d="m-232-272h8v152h-8z"/><path d="m-232-272v-48h8v48z"/><path d="m-232-448v-48h8v48z"/><path d="m-224-320h-8v-24-104h8z"/><path d="m-224 0h-128v-8h8 120z"/><path d="m-352 0h-16v-8h16z"/><path d="m448 0h48v16h-56v-16z"/><path d="m440 0v16h-88v-16z"/><path d="m352 0v16h-8v-16z"/><path d="m248 0v16h-56v-16z"/><path d="m344 16h-96v-16h96z"/><path d="m-144 16h-224v-16h16 128 80z"/><path d="m80 16h-224v-16h144 32 32 16z"/><path d="m192 0v16h-112v-16z"/><path d="m-368 0v16h-32v-24h32z"/><path d="m79-1008h25-8z"/><path d="m76.3077-880-8.3077-3-13.8458-5h-22.1542v8z"/><path d="m76.3077-880h2.6923 25v16h-36v-16z"/><path d="m140-1040h12 72-24-96z"/><path d="m68-1040h36 96-216 72z"/><path d="m140-1024v16h-36v-16z"/><path d="m68-1008h8.3077l-8.3077 3z"/><path d="m140-880h36-49.8462z"/><path d="m68-883 8.3077 3h-8.3077z"/><path d="m140-800h-36 88-8z"/><path d="m140-816v16h-36v-16z"/><path d="m54.1542-888h49.8458l43.2002-24h-115.2002v24z"/><path d="m126.1538-880-22.1538-8v8z"/><path d="m126.1538-880h-22.1538v16h36v-16z"/><path d="m-144-624h-24-24z"/><path d="m-192-672 16 16 8 8-24 24z"/><path d="m32-624v-48 8 16z"/><path d="m32-672h-48z"/><path d="m-144-672h-24z"/><path d="m-16-624v-24-24z"/><path d="m-16-672 24 24-24 24z"/><path d="m32-672-24 24-24-24z"/><path d="m32-624-24-24 24-24z"/><path d="m-144-624-24-24 24-24z"/><path d="m-168-672h24l-24 24-8-8v-16z"/><path d="m-192-672h16z"/><path d="m-192-624v-48z"/><path d="m64-120v8-12.7999z"/><path d="m64-120v-4.7999-19.2001z"/><path d="m144-304h16z"/><path d="m80-336h-16z"/><path d="m144-336h-16v24 8h16z"/><path d="m80-336v16h16 8v-16z"/><path d="m80-320v8h16v-8z"/><path d="m-144-448v-48z"/><path d="m-144-496h-24z"/><path d="m-168-496h-24z"/><path d="m-192-448v-48z"/><path d="m-144-448-24-24 24-24z"/><path d="m-168-496h24l-24 24-24-24z"/><path d="m-192-496 24 24-24 24z"/><path d="m32-232v4.8 19.2z"/><path d="m32-232v-8 12.8z"/><path d="m64-232h-32v24h32z"/><path d="m-144-320-24 24-24-24z"/><path d="m-144-272h-24-24z"/><path d="m-144-272v-48z"/><path d="m-144-272-24-24 24-24z"/><path d="m-192-320 24 24-24 24z"/><path d="m184-648 24 24h-48z"/><path d="m104-1024h36-36-36z"/><path d="m104-1024v16h22.1539 13.8461v-16z"/><path d="m104-1008v-16h-36v16z"/><path d="m104-1000-36-5-13.8459 5z"/><path d="m104-1000h72v-8h-49.8461z"/><path d="m104-1008v8l22.1539-8z"/><path d="m104-1000v-8h-36v3z"/><path d="m176-1008v8 24 32 32 24 8z"/><path d="m104-888h-49.8458l13.8458 5z"/><path d="m104-888 22.1538 8h49.8462v-8z"/><path d="m104-880v-8l-36 5v3z"/><path d="m104-864v-16h-36v16z"/><path d="m104-816h36-36-36z"/><path d="m104-816v16h36v-16z"/><path d="m104-800v-16h-36v16z"/><path d="m192-240v48z"/><path d="m168-160h-8z"/><path d="m184-160h8v-32h-8z"/><path d="m160-192v32h8v-32z"/><path d="m168-160v-32z"/><path d="m192-192h-8z"/><path d="m184-192v32z"/><path d="m32-124.7999v4.7999-24z"/><path d="m64-227.2v-4.8 24z"/><path d="m64-208v32 64-128z"/><path d="m32-144v-32 64z"/><path d="m32-144v24h32v-24z"/><path d="m32-208v32h32v-32z"/><path d="m64-176v32 32z"/><path d="m64-176h-32v32h32z"/><path d="m128-320v-16h-8v16z"/><path d="m96-312h8z"/><path d="m96-320v8z"/><path d="m128-304h-8 24z"/><path d="m128-336h16-24z"/><path d="m-176-656-16-16h16z"/><path d="m64-112v64-16z"/><path d="m32-800h135z"/><path d="m32-800h-8-8z"/><path d="m147.2002-912h28.7998v-32h-144v32z"/><path d="m147.2002-912-43.2002 24h72v-24z"/><path d="m104-304h-24z"/><path d="m104-336h-24z"/><path d="m104-336h16 24 16-80z"/><path d="m104-320v8 8h16v-8-8-16h-16z"/><path d="m104-312v-8z"/><path d="m120-304h8v-8h-8z"/><path d="m104-320h-8z"/><path d="m104-304v-8h-8-16v8z"/><path d="m160-304v64-16z"/><path d="m-168-648 24 24h-48z"/><path d="m8-648 24 24h-48z"/><path d="m176-976v-24h-72-49.8459-22.1541v24z"/><path d="m-168-472 24 24h-24-24z"/><path d="m-168-296 24 24h-48z"/><path d="m176-944v-32h-144v32z"/><path d="m224-1040h8-32z"/><path d="m-16-1040h-8v8h8z"/><path d="m232-1032v-8h-8v8z"/><path d="m-24-1032v-8z"/><path d="m-16-1040v8z"/><path d="m232-1032h-8v130.6673 21.3327 48.0015l8 .0005z"/><path d="m232-831.998-8-.0005-32 31.9985 8 .0014z"/><path d="m192.0018-792 7.9982-7.9986-8-.0014h-25-135-16-7.9988l8 8z"/><path d="m-16-832v7.9988l24.0012 24.0012h7.9988z"/><path d="m-24-832.0012 8 8v-7.9988-200h-8z"/><path d="m200-272v-32h-8v64 80 80h8z"/><path d="m192-80v32h8v-32z"/><path d="m200-304-32-32h-8l32 32z"/><path d="m80-336h80 8l-8-8h-96v8z"/><path d="m160-160v-32-48-64h-80-16v64 128 48h96z"/><path d="m24-304h8l16-16 16-16v-8z"/><path d="m32-112v-128-64h-8v224h8z"/><path d="m24-80v32h8v-32z"/><path d="m32-48h-8z"/><path d="m232-831.998v-200.002z"/><path d="m8.0012-800-24.0012-24.0012-8-8v-.0007l40.0012 40.0019z"/><path d="m24-304v216 8z"/><path d="m200-272v192 32-72z"/><path d="m224-901.3327v-130.6673z"/><path d="m192-800h-88-36-36 135z"/><path d="m224-831.9985v-.0015l-24 24-8 8z"/><path d="m160-48h-96z"/><path d="m160-304h-16-24-16-24z"/><path d="m192-240v48 32z"/><path d="m192-80v-80 104 8z"/><path d="m160-160v-32z"/><path d="m160-240v48z"/><path d="m160-64h-96v16h96z"/><path d="m64-336-16 16z"/><path d="m32-112v-64-32-32z"/><path d="m32-304v64-32-8-16z"/><path d="m48-320-16 16z"/><path d="m200-1040h-224 8z"/><path d="m232-1040v8z"/><path d="m200-1032h-224v-8h224z"/><path d="m232-1040v8h-32v-8z"/><path d="m-24-832.0019v.0007-199.9988z"/><path d="m200-48h-8-32-96-32z"/><path d="m64-344h96z"/><path d="m192.0018-792h-176.0006z"/><path d="m200-799.9981-7.9982 7.9981h-176.0006l-40.0012-40.0019v-199.9981h224z"/><path d="m232-1032v200.002l-32 31.9999v-232.0019z"/><path d="m200-799.9981 32-31.9999-32 31.9994-7.9982 7.9986z"/><path d="m24-80v32z"/><path d="m200-304v32z"/><path d="m24-304 8-8v192 32h-8z"/><path d="m32-88v40h-8v-32-8z"/><path d="m64-344h96l40 40v32 152h-168v-192z"/><path d="m200-120v72h-168v-40-32z"/><path d="m32-312-8 8 40-40z"/><path d="m160-344 8 8 32 32z"/></g></defs><path d="m-492-1180h1112v1288h-1112z" fill="#fff"/><g stroke="#000"><use fill="none" stroke-miterlimit="0" stroke-width="15" xlink:href="#a"/><use fill="#fff" xlink:href="#a"/></g></svg>