<?xml version="1.0" encoding="utf-8" ?>
<svg baseProfile="tiny" height="100%" version="1.2" viewBox="-428.0 -748.0 1816.0 1304.0" width="100%" xmlns="http://www.w3.org/2000/svg" xmlns:ev="http://www.w3.org/2001/xml-events" xmlns:xlink="http://www.w3.org/1999/xlink"><defs><g id="bsp_ref"><polygon points="576,-512 576,-640 576,-640 576,-512" /><polygon points="544,-512 576,-512 576,-512 448,-512 448,-512" /><polygon points="544,-512 448,-512 320,-512 320,-576 384,-640 544,-640" /><polygon points="576,-640 576,-512 544,-512 544,-640" /><polygon points="448,-512 448,-512 448,-448 448,-352" /><polygon points="320,-512 448,-512 448,-352 320,-352" /><polygon points="448,-640 576,-640 576,-640 544,-640 384,-640 384,-640" /><polygon points="448,-448 448,-512 448,-640 384,-640 320,-576 320,-544 320,-352 448,-352" /><polygon points="320,-544 320,-576 384,-640 448,-640 448,-512 448,-448 448,-352 320,-352" /><polygon points="896,-192 768,-192 768,-256 896,-256" /><polygon points="576,-512 576,-640 448,-640 448,-512" /><polygon points="576,-640 576,-512 448,-512 448,-640" /><polygon points="768,-256 768,-192 768,-192 768,-256" /><polygon points="896,-192 896,-256 896,-256 896,-192" /><polygon points="448,-448 448,-448 448,-320 448,-352" /><polygon points="576,-512 576,-512 448,-512 448,-512" /><polygon points="576,-640 576,-640 576,-512 576,-512" /><polygon points="320,-544 320,-352 320,-320 320,-544" /><polygon points="320,-352 448,-352 448,-320 320,-320" /><polygon points="320,-544 320,-576 320,-576 320,-512 320,-352" /><polygon points="384,-640 384,-640 320,-576 320,-576" /><polygon points="864,-240 864,-224 880,-224 880,-240" /><polygon points="784,-240 784,-224 800,-224 800,-240" /><polygon points="1280,-264 1280,-448 1280,-448 1280,-440 1280,-264 1280,-256 1280,-256" /><polygon points="640,-256 640,-256 640,-192 640,-192" /><polygon points="640,-432 640,-448 640,-448 640,-440 640,-384 640,-384" /><polygon points="640,-640 640,-640 640,-616 640,-536 640,-512 640,-512" /><polygon points="1112,-448 1216,-448 1280,-448 1280,-264 1248,-264 1112,-264" /><polygon points="1280,-264 1280,-256 1248,-256 1248,-264" /><polygon points="1112,-224 1112,-264 1248,-264 1248,-256 1248,-136 1152,-136 1112,-136" /><polygon points="992,-256 992,-448 1112,-448 1112,-264 1112,-224 1056,-224 992,-224" /><polygon points="896,-352 896,-384 896,-448 992,-448 992,-256 928,-256 896,-256" /><polygon points="1056,-136 1056,-160 1056,-224 1112,-224 1112,-136" /><polygon points="992,-136 992,-160 1056,-160 1056,-136" /><polygon points="928,-256 992,-256 992,-224 992,-160 992,-136 928,-136" /><polygon points="768,-448 896,-448 896,-384 864,-384 768,-384" /><polygon points="864,-352 640,-352 640,-384 768,-384 864,-384" /><polygon points="896,-384 896,-352 864,-352 864,-384" /><polygon points="640,-352 864,-352 864,-256 768,-256 640,-256" /><polygon points="864,-352 896,-352 896,-256 864,-256" /><polygon points="1152,-128 1112,-128 928,-128 928,-136 992,-136 1056,-136 1112,-136 1152,-136" /><polygon points="1248,-136 1248,-128 1152,-128 1152,-136" /><polygon points="992,-448 896,-448 768,-448 768,-448 776,-448 992,-448" /><polygon points="1216,-448 1112,-448 992,-448 992,-448 1000,-448 1216,-448" /><polygon points="896,-192 896,-256 896,-256 896,-256 896,-224 896,-192" /><polygon points="1248,-136 1248,-256 1248,-256 1248,-256 1248,-128 1248,-128 1248,-128 1248,-128" /><polygon points="1152,-128 1248,-128 1248,-128 1192,-128 1112,-128 1112,-128" /><polygon points="1112,-128 1112,-128 1112,-128 1112,-128 960,-128 928,-128 928,-128" /><polygon points="768,-256 768,-256 640,-256 640,-256" /><polygon points="864,-256 896,-256 896,-256 768,-256 768,-256" /><polygon points="768,-192 768,-192 896,-192 896,-192" /><polygon points="192,-384 192,-320 192,-192 64,-192 64,-384" /><polygon points="256,-200 256,-192 192,-192 192,-320 256,-320" /><polygon points="448,-200 480,-200 480,-192 256,-192 256,-200" /><polygon points="320,-320 448,-320 448,-224 448,-200 256,-200 256,-320" /><polygon points="448,-320 448,-448 480,-448 480,-432 480,-352 480,-224 448,-224" /><polygon points="480,-224 480,-200 448,-200 448,-224" /><polygon points="480,-200 480,-224 480,-352 544,-352 608,-352 640,-352 640,-256 640,-192 480,-192" /><polygon points="640,-352 608,-352 608,-384 640,-384" /><polygon points="480,-432 544,-432 544,-416 544,-352 480,-352" /><polygon points="608,-416 608,-432 640,-432 640,-384 608,-384" /><polygon points="608,-432 608,-416 544,-416 544,-432" /><polygon points="640,-448 640,-432 608,-432 544,-432 480,-432 480,-448" /><polygon points="576,-640 640,-640 640,-512 576,-512" /><polygon points="320,-544 320,-320 320,-320 320,-448 320,-512 320,-544" /><polygon points="576,-512 576,-512 544,-512 448,-512 448,-512" /><polygon points="544,-416 544,-416 544,-352 544,-352" /><polygon points="640,-192 640,-192 632,-192 480,-192 480,-192" /><polygon points="256,-320 192,-320 192,-320 240,-320 256,-320" /><polygon points="448,-448 448,-448 448,-512 448,-512" /><polygon points="320,-576 320,-576 320,-544 320,-544" /><polygon points="384,-640 384,-640 320,-576 320,-576" /><polygon points="992,-160 992,-160 992,-224 992,-224" /><polygon points="1056,-160 1056,-160 992,-160 992,-160" /><polygon points="1056,-224 1056,-224 1056,-160 1056,-160" /><polygon points="992,-224 992,-224 1056,-224 1056,-224" /><polygon points="1056,-160 992,-160 992,-224 1056,-224" /><polygon points="608,-352 608,-352 544,-352 544,-352" /><polygon points="608,-416 608,-416 608,-384 608,-352 608,-352" /><polygon points="544,-416 544,-416 608,-416 608,-416" /><polygon points="544,-416 608,-416 608,-352 544,-352" /><polygon points="1248,-128 1248,-128 1192,-128 1192,-128" /><polygon points="1112,-144 1112,-144 1112,-144 1112,-144 1112,-128 1112,-128" /><polygon points="1192,-144 1176,-144 1112,-144 1112,-128 1192,-128" /><polygon points="640,-512 640,-512 640,-512 576,-512 576,-512 640,-512" /><polygon points="640,-536 624,-536 624,-536 640,-536" /><polygon points="640,-616 624,-616 624,-600 624,-552 624,-536 640,-536" /><polygon points="192,-384 192,-384 192,-320 192,-320 192,-320 192,-320 192,-384" /><polygon points="192,-384 192,-384 64,-384 64,-384" /><polygon points="64,-416 64,-384 64,-384 64,-416" /><polygon points="192,-384 64,-384 64,-416 192,-448" /><polygon points="640,-552 640,-600 640,-600 640,-552" /><polygon points="1176,-128 1176,-128 1128,-128 1128,-128" /><polygon points="1176,-144 1128,-144 1112,-144 1112,-144 1176,-144" /><polygon points="1112,-144 1128,-144 1128,-144 1112,-144" /><polygon points="1176,-144 1176,-144 1192,-144 1192,-144 1176,-144" /><polygon points="1176,-136 1176,-128 1128,-128 1128,-136" /><polygon points="1128,-144 1176,-144 1176,-136 1128,-136" /><polygon points="1176,-136 1176,-144 1176,-144 1176,-136" /><polygon points="1128,-136 1128,-128 1128,-128 1128,-136" /><polygon points="1128,-144 1128,-136 1128,-136 1128,-144" /><polygon points="624,-552 624,-552 624,-552 624,-536 624,-536 624,-552" /><polygon points="624,-600 624,-552 624,-552 624,-600" /><polygon points="624,-600 624,-600 624,-616 624,-616 624,-600" /><polygon points="624,-552 624,-600 632,-600 632,-552" /><polygon points="632,-552 632,-600 640,-600 640,-552" /><polygon points="632,-600 624,-600 624,-600 632,-600" /><polygon points="632,-552 640,-552 640,-552 632,-552" /><polygon points="624,-552 632,-552 632,-552 624,-552" /><polygon points="192,-448 192,-448 192,-384 192,-384 192,-448" /><polygon points="192,-448 64,-416 64,-448 168,-552 192,-528" /><polygon points="168,-552 64,-448 64,-448 168,-552" /><polygon points="192,-448 192,-448 64,-416 64,-416" /><polygon points="144,-576 96,-576 96,-576 144,-576" /><polygon points="192,-528 192,-528 168,-552 168,-552" /><polygon points="192,-528 192,-528 192,-448 192,-448 192,-528" /><polygon points="64,-448 48,-464 64,-464" /><polygon points="48,-464 47,-464 64,-502.8571 64,-464" /><polygon points="96,-576 144,-576 168,-552 64,-448 64,-464 64,-502.8571" /><polygon points="47,-464 48,-464 48,-464 47,-464" /><polygon points="928,-256 960,-256 928,-256" /><polygon points="928,-256 928,-256 928,-136 928,-128 928,-128" /><polygon points="144,-576 144,-576 144,-576 152,-568 184,-536 192,-528 192,-528 192,-528 168,-552 144,-576" /><polygon points="17,-464 47,-464 48,-464 48,-464 17,-464" /><polygon points="96,-576 47,-464 17,-464 -32,-576" /><polygon points="17,-464 17,-464 0,-502.8571 -32,-576 -32,-576" /><polygon points="96,-576 96,-576 64,-502.8571 47,-464 47,-464" /><polygon points="1248,-128 1216,-128 1248,-128" /><polygon points="1248,-256 1248,-128 1248,-128 1248,-256" /><polygon points="1248,-128 1248,-256 1216,-256 1216,-128" /><polygon points="1128,-144 1176,-144 1192,-144 1192,-144 1112,-144 1112,-144" /><polygon points="1176,-128 1176,-136 1128,-136 1128,-128" /><polygon points="1128,-136 1176,-136 1176,-144 1128,-144" /><polygon points="1176,-128 1176,-128 1176,-136 1176,-136" /><polygon points="1128,-136 1128,-136 1176,-136 1176,-136" /><polygon points="1176,-136 1176,-136 1128,-136 1128,-136" /><polygon points="624,-552 624,-600 624,-616 624,-616 624,-552" /><polygon points="640,-600 640,-600 632,-600 632,-600" /><polygon points="624,-600 624,-552 632,-552 632,-600" /><polygon points="632,-600 632,-552 640,-552 640,-600" /><polygon points="632,-600 632,-600 632,-552 632,-552" /><polygon points="632,-552 632,-552 632,-600 632,-600" /><polygon points="144,-576 144,-576 96,-576 -32,-576 -32,-576" /><polygon points="0,-448 0,-464 16,-464" /><polygon points="-80,-576 -32,-576 0,-502.8571 0,-464 0,-448 -104,-552" /><polygon points="0,-502.8571 17,-464 16,-464 0,-464" /><polygon points="48,-464 48,-464 48,-464 64,-448 64,-448" /><polygon points="640,-536 640,-512 640,-512 640,-536" /><polygon points="640,-536 640,-616 640,-616 640,-512 640,-512" /><polygon points="1192,-128 1248,-128 1248,-128 1152,-128 1112,-128 1112,-128 1112,-128" /><polygon points="1192,-144 1192,-144 1192,-144 1192,-128 1192,-128" /><polygon points="1112,-144 1192,-144 1192,-128 1112,-128" /><polygon points="624,-552 624,-616 640,-616 640,-536 624,-536" /><polygon points="640,-616 624,-616 624,-616 624,-616 640,-616" /><polygon points="544,-640 576,-640 576,-640 576,-640 448,-640 384,-640 384,-640 384,-640" /><polygon points="640,-640 640,-640 640,-640 576,-640 576,-640" /><polygon points="640,-640 640,-616 640,-616 640,-616 640,-640" /><polygon points="768,-448 768,-448 768,-384 768,-384" /><polygon points="768,-256 768,-256 768,-192 768,-192" /><polygon points="768,-256 768,-192 768,-192 768,-288" /><polygon points="1272,-264 1272,-264 1152,-264 1152,-264" /><polygon points="1224,-448 1280,-448 1280,-448 1216,-448 1216,-448" /><polygon points="1058,-440 1000,-440 896,-440 896,-440 1058,-440" /><polygon points="1000,-448 992,-448 776,-448 776,-440 896,-440 1000,-440" /><polygon points="1224,-448 1216,-448 1000,-448 1000,-440 1058,-440 1074,-440 1224,-440" /><polygon points="1272,-440 1280,-440 1280,-448 1224,-448 1224,-440" /><polygon points="1272,-264 1272,-440 1272,-440 1272,-440 1272,-264" /><polygon points="1280,-440 1272,-440 1272,-264 1280,-264" /><polygon points="776,-440 776,-448 768,-448 768,-384 776,-416" /><polygon points="1280,-256 1248,-256 1248,-256 1280,-256" /><polygon points="1152,-256 1120,-256 960,-256 928,-256 928,-256 1152,-256" /><polygon points="896,-256 896,-256 928,-256 928,-256 928,-256" /><polygon points="1120,-264 928,-264 896,-256 928,-256 960,-256 1120,-256" /><polygon points="1152,-256 1248,-256 1280,-256 1280,-264 1272,-264 1152,-264 1120,-264 1120,-256" /><polygon points="960,-128 1112,-128 1112,-128 928,-128 928,-128" /><polygon points="928,-256 960,-256 960,-128 928,-128" /><polygon points="960,-256 928,-256 928,-128 960,-128" /><polygon points="768,-384 768,-384 640,-384 640,-384" /><polygon points="384,-640 384,-640 320,-576 320,-576" /><polygon points="320,-576 320,-576 320,-544 320,-544" /><polygon points="552,-448 640,-448 640,-448 480,-448 448,-448 448,-448" /><polygon points="544,-640 384,-640 320,-576 320,-544 320,-512 448,-512 544,-512" /><polygon points="576,-512 640,-512 640,-616 640,-640 576,-640 544,-640 544,-512" /><polygon points="448,-512 448,-448 448,-448 448,-512" /><polygon points="320,-512 320,-448 328,-448 448,-448 448,-512" /><polygon points="640,-440 632,-440 632,-408 640,-384" /><polygon points="552,-448 448,-448 328,-448 328,-440 448,-440 464,-440 480,-440 552,-440" /><polygon points="632,-440 640,-440 640,-448 552,-448 552,-440" /><polygon points="632,-440 632,-440 632,-408 632,-408" /><polygon points="464,-440 448,-440 448,-440 464,-440" /><polygon points="328,-440 328,-448 320,-448 320,-320 320,-312 328,-312" /><polygon points="256,-312 320,-312 320,-320 256,-320" /><polygon points="320,-320 320,-320 256,-320 256,-320" /><polygon points="632,-200 632,-192 640,-192 640,-256 632,-224" /><polygon points="480,-200 256,-200 256,-192 480,-192" /><polygon points="632,-192 632,-200 480,-200 480,-192" /><polygon points="632,-200 632,-200 480,-200 480,-200" /><polygon points="480,-192 256,-192 256,-192 480,-192" /><polygon points="-128,-528 -128,-448 -128,-448 -128,-528" /><polygon points="-80,-576 -80,-576 -104,-552 -104,-552" /><polygon points="256,-200 256,-312 256,-320 240,-320 240,-192 256,-192" /><polygon points="192,-320 192,-320 240,-320 240,-320" /><polygon points="240,-320 240,-320 240,-192 240,-192" /><polygon points="256,-192 240,-192 192,-192 192,-192 256,-192" /><polygon points="-104,-552 -104,-552 0,-448 0,-448" /><polygon points="0,-416 0,-448 0,-448 0,-416" /><polygon points="-128,-528 -104,-552 0,-448 0,-416 -128,-448" /><polygon points="1216,-256 1248,-256 1248,-256" /><polygon points="1216,-128 1216,-256 1248,-256 1248,-128" /><polygon points="1248,-256 1248,-128 1248,-128 1248,-256" /><polygon points="928,-128 928,-256 928,-256 928,-128" /><polygon points="1152,-256 1248,-256 1248,-256 1152,-256" /><polygon points="928,-256 1152,-256 1152,-256 928,-256" /><polygon points="1248,-128 1152,-128 1152,-128 1248,-128" /><polygon points="1152,-128 928,-128 928,-128 1152,-128" /><polygon points="1152,-128 1248,-128 1248,-256 1152,-256" /><polygon points="928,-256 928,-128 1152,-128 1152,-256" /><polygon points="1120,-440 1074,-440 1058,-440 896,-440 896,-440 992,-440 1120,-440" /><polygon points="1120,-440 1272,-440 1272,-440 1224,-440 1074,-440 1074,-440" /><polygon points="1058,-424 1058,-440 1058,-440" /><polygon points="1074,-440 1074,-440 1074,-424" /><polygon points="1074,-424 1058,-424 1058,-440 1074,-440" /><polygon points="1074,-424 1074,-440 1058,-440 1058,-424" /><polygon points="480,-440 480,-440 480,-424" /><polygon points="480,-440 464,-440 448,-440 448,-440 480,-440" /><polygon points="464,-424 464,-440 464,-440" /><polygon points="480,-424 464,-424 464,-440 480,-440" /><polygon points="480,-424 480,-440 464,-440 464,-424" /><polygon points="-128,-528 -128,-448 -128,-384 -128,-384 -128,-528" /><polygon points="-128,-448 0,-416 0,-384 -128,-384" /><polygon points="-128,-448 -128,-448 0,-416 0,-416" /><polygon points="-192,-192 -128,-192 -128,-192 -192,-192" /><polygon points="-128,-192 -192,-192 -192,-320 -128,-320" /><polygon points="-144,-304 -160,-304 -160,-288 -144,-288" /><polygon points="-144,-224 -160,-224 -160,-208 -144,-208" /><polygon points="768,-224 768,-192 896,-192 896,-224" /><polygon points="768,-240 768,-224 784,-224 784,-240" /><polygon points="880,-224 896,-224 896,-240 880,-240" /><polygon points="800,-224 864,-224 864,-240 800,-240" /><polygon points="768,-256 768,-240 896,-240 896,-256" /><polygon points="864,-224 864,-224 864,-240 864,-240" /><polygon points="880,-224 880,-224 864,-224 864,-224" /><polygon points="864,-240 864,-240 880,-240 880,-240" /><polygon points="880,-240 880,-240 880,-224 880,-224" /><polygon points="800,-240 800,-240 800,-224 800,-224" /><polygon points="800,-224 800,-224 784,-224 784,-224" /><polygon points="784,-224 784,-224 784,-240 784,-240" /><polygon points="784,-240 784,-240 800,-240 800,-240" /><polygon points="1248,-256 1248,-256 1152,-256 1152,-256" /><polygon points="928,-256 928,-256 928,-128 928,-128" /><polygon points="1152,-256 928,-256 928,-128 1112,-128 1152,-128" /><polygon points="1248,-256 1152,-256 1152,-128 1248,-128" /><polygon points="1152,-256 1248,-256 1248,-128 1152,-128" /><polygon points="928,-128 928,-256 1152,-256 1152,-128" /><polygon points="1280,-32 1280,-224 1280,-224 1280,-128 1280,0 1280,0 1280,0" /><polygon points="1280,-264 1280,-440 1280,-448 1280,-448 1280,-440 1280,-256 1280,-256" /><polygon points="640,-256 640,-256 640,-288" /><polygon points="640,-136 640,-160 640,-160 640,64 640,64 640,64" /><polygon points="640,-200 640,-256 640,-288 640,-352 640,-352 640,-224 640,-192 640,-192" /><polygon points="640,-384 640,-384 640,-352 640,-352 640,-384" /><polygon points="640,-440 640,-448 640,-448 640,-384 640,-384" /><polygon points="1152,0 1280,0 1280,0 1120,0 1120,0" /><polygon points="768,-352 768,-352 768,-384 768,-384 768,-384" /><polygon points="992,-128 896,-128 768,-128 768,-136 896,-136 928,-136 992,-136" /><polygon points="1152,-136 1152,-128 1120,-128 992,-128 992,-136" /><polygon points="1152,0 1152,-32 1184,-32 1248,-32 1280,-32 1280,0" /><polygon points="1152,-32 1152,-96 1184,-96 1184,-32" /><polygon points="1152,-128 1152,-136 1248,-136 1248,-96 1184,-96 1152,-96" /><polygon points="768,-192 896,-192 896,-136 768,-136" /><polygon points="768,-440 776,-440 776,-416 768,-384" /><polygon points="896,-136 896,-192 896,-224 928,-224 928,-136" /><polygon points="1152,-136 992,-136 928,-136 928,-224 928,-256 1120,-256 1152,-256" /><polygon points="1248,-256 1248,-224 1248,-136 1152,-136 1152,-256" /><polygon points="1248,-96 1248,-136 1248,-224 1280,-224 1280,-32 1248,-32" /><polygon points="1120,-256 928,-256 896,-256 928,-264 1120,-264" /><polygon points="1152,-264 1272,-264 1280,-264 1280,-256 1248,-256 1152,-256 1120,-256 1120,-264" /><polygon points="1272,-264 1272,-440 1280,-440 1280,-264" /><polygon points="992,-440 896,-440 776,-440 768,-440 768,-448 776,-448 992,-448" /><polygon points="1216,-440 1120,-440 992,-440 992,-448 1000,-448 1216,-448" /><polygon points="1224,-448 1280,-448 1280,-440 1272,-440 1216,-440 1216,-448" /><polygon points="1000,-448 992,-448 776,-448 776,-448 896,-448 1000,-448" /><polygon points="1224,-448 1216,-448 1000,-448 1000,-448 1120,-448 1152,-448 1224,-448" /><polygon points="896,-224 896,-256 896,-256 896,-224" /><polygon points="1152,-128 1120,-128 1120,-128" /><polygon points="1152,-128 1152,-96 1152,-32 1152,0 1120,0 1120,-128" /><polygon points="1152,-264 1120,-264 928,-264 928,-264 1120,-264 1152,-264" /><polygon points="776,-440 776,-440 776,-416 776,-416" /><polygon points="776,-440 896,-440 896,-440 896,-440 776,-440" /><polygon points="1216,-440 1272,-440 1272,-440 1120,-440 1120,-440" /><polygon points="776,-416 776,-416 768,-384 768,-384" /><polygon points="896,-256 896,-256 928,-264 928,-264" /><polygon points="768,-192 768,-192 768,-192 896,-192 896,-192" /><polygon points="768,-352 640,-352 640,-288 768,-288" /><polygon points="640,-288 640,-256 768,-256 768,-288" /><polygon points="768,-352 768,-384 640,-384 640,-352" /><polygon points="640,384 688,384 688,384 640,384" /><polygon points="672,256 640,256 640,256 672,256" /><polygon points="672,256 688,384 640,384 640,256" /><polygon points="256,32 256,64 256,224 256,256 256,256 256,96 256,64 256,32" /><polygon points="256,-312 256,-312 256,-200 256,-200" /><polygon points="288,432 288,416 352,416 352,432" /><polygon points="352,432 352,416 352,384 368,384 368,432" /><polygon points="368,432 368,384 384,384 384,432" /><polygon points="352,288 352,352 288,352 288,288" /><polygon points="256,384 256,256 256,224 288,224 288,288 288,352 288,416 288,432 272,432 256,432" /><polygon points="352,64 352,-96 384,-96 384,64 384,128 352,128" /><polygon points="384,128 384,256 352,256 352,224 352,128" /><polygon points="384,-96 416,-96 480,-96 480,-32 480,32 480,64 468,64 384,64" /><polygon points="256,32 256,-96 256,-160 288,-160 352,-160 352,-96 352,64 256,64" /><polygon points="352,64 352,128 352,224 288,224 256,224 256,64" /><polygon points="416,-192 416,-160 352,-160 288,-160 288,-192" /><polygon points="416,-160 416,-192 480,-192 480,-136 480,-96 416,-96" /><polygon points="320,-312 256,-312 256,-320 320,-320" /><polygon points="320,-320 320,-448 328,-448 328,-440 328,-312 320,-312" /><polygon points="576,384 524,384 508,384 480,384 384,384 368,384 352,384 352,352 352,288 352,256 384,256 576,256" /><polygon points="640,384 576,384 576,256 608,256 640,256" /><polygon points="544,32 544,64 484,64 480,64 480,32" /><polygon points="544,-136 544,-32 480,-32 480,-96 480,-136" /><polygon points="544,64 544,32 544,-32 544,-136 608,-136 640,-136 640,64" /><polygon points="640,-200 632,-200 632,-224 640,-256" /><polygon points="544,-136 480,-136 480,-192 608,-192 608,-160 608,-136" /><polygon points="624,-160 640,-160 640,-136 608,-136 608,-160" /><polygon points="480,-192 416,-192 288,-192 256,-192 256,-200 480,-200" /><polygon points="632,-200 640,-200 640,-192 624,-192 608,-192 480,-192 480,-200" /><polygon points="552,-440 480,-440 448,-440 328,-440 328,-448 544,-448 552,-448" /><polygon points="640,-448 640,-440 632,-440 552,-440 552,-448" /><polygon points="632,-440 640,-440 640,-384 632,-408" /><polygon points="544,64 640,64 640,64 484,64 484,64 484,64" /><polygon points="480,64 484,64 484,64 468,64 468,64" /><polygon points="384,64 468,64 468,64 468,64 468,64 384,64" /><polygon points="544,-448 328,-448 320,-448 320,-448 368,-448 384,-448 512,-448 528,-448 544,-448" /><polygon points="624,-192 640,-192 640,-192 624,-192" /><polygon points="384,128 384,64 384,64 384,96 384,256 384,256" /><polygon points="608,256 576,256 384,256 384,256 384,256 608,256" /><polygon points="384,384 480,384 480,384 480,384 384,384" /><polygon points="508,384 524,384 524,384 508,384" /><polygon points="288,224 288,224 288,288 288,288" /><polygon points="288,352 288,352 288,416 288,416" /><polygon points="320,-312 328,-312 328,-312 320,-312 256,-312 256,-312" /><polygon points="328,-440 328,-440 328,-312 328,-312" /><polygon points="640,-384 640,-384 632,-408 632,-408" /><polygon points="552,-440 632,-440 632,-440 552,-440 480,-440 480,-440 480,-440" /><polygon points="328,-440 448,-440 448,-440 448,-440 328,-440" /><polygon points="632,-200 632,-200 632,-224 632,-224" /><polygon points="632,-224 632,-224 640,-256 640,-256" /><polygon points="480,-200 256,-200 256,-200 480,-200" /><polygon points="122,384 138,384 138,384 122,384" /><polygon points="32,384 96,384 122,384 122,384 122,384 32,384" /><polygon points="32,128 96,128 128,128 128,128 0,128 0,128" /><polygon points="-128,-96 -128,32 -128,128 -128,128 -128,32 -128,-96" /><polygon points="-128,-192 -128,-192 -128,-320 -128,-320" /><polygon points="192,-192 192,-192 240,-192 240,-192" /><polygon points="192,-192 240,-192 240,-320 192,-320" /><polygon points="-128,-384 -128,-384 0,-384 0,-384" /><polygon points="64,-384 64,-448 64,-448 64,-448 64,-448 64,-416 64,-384" /><polygon points="64,-448 64,-448 48,-464 48,-464 64,-448" /><polygon points="0,-384 0,-384 0,-416 0,-448 0,-448" /><polygon points="0,-448 0,-448 0,-384 0,-384" /><polygon points="64,-192 64,-320 64,-384 64,-384 64,-384 64,-384 64,-192" /><polygon points="64,-384 64,-320 64,-320 64,-328 64,-384" /><polygon points="64,-320 64,-192 192,-192 192,-320" /><polygon points="64,-192 64,-192 192,-192 192,-192 192,-192" /><polygon points="-128,-192 -128,-320 -128,-384 0,-384 0,-352 0,-160 -128,-160" /><polygon points="0,-160 0,-128 -128,-128 -128,-160" /><polygon points="128,-128 128,-128 128,-120 128,-96 128,-96" /><polygon points="-128,-96 -128,-128 0,-128 96,-128 96,32 32,32 -128,32" /><polygon points="96,-128 128,-128 128,-96 128,32 96,32" /><polygon points="128,32 128,128 96,128 96,96 96,32" /><polygon points="32,128 32,96 96,96 96,128" /><polygon points="0,128 -128,128 -128,32 32,32 32,96 32,128" /><polygon points="-128,-320 -128,-320 -192,-320 -192,-320" /><polygon points="-192,-320 -192,-320 -192,-192 -192,-192" /><polygon points="-128,128 -128,256 -128,320 -128,320 -128,192 -128,128" /><polygon points="-128,256 -128,128 0,128 0,256" /><polygon points="96,384 32,384 -64,384 -128,320 -128,256 0,256 96,256" /><polygon points="224,256 256,256 256,384 138,384 122,384 96,384 96,256" /><polygon points="224,256 96,256 0,256 0,256 0,256 208,256 224,256" /><polygon points="0,128 0,128 0,192 0,256 0,256" /><polygon points="288,432 288,448 272,448 272,432" /><polygon points="352,448 288,448 288,432 352,432" /><polygon points="368,448 352,448 352,432 368,432" /><polygon points="896,-256 896,-256 896,-192 896,-192" /><polygon points="768,-192 768,-192 768,-256 768,-256" /><polygon points="896,-192 896,-192 768,-192 768,-192" /><polygon points="768,-256 768,-256 896,-256 896,-256" /><polygon points="896,-192 768,-192 768,-256 896,-256" /><polygon points="1184,-96 1184,-96 1248,-96 1248,-96" /><polygon points="1184,-32 1184,-32 1184,-96 1184,-96" /><polygon points="1248,-32 1184,-32 1184,-96 1248,-96" /><polygon points="1248,-32 1248,-32 1184,-32 1184,-32" /><polygon points="1248,-96 1248,-96 1248,-32 1248,-32" /><polygon points="416,-160 416,-160 416,-96 416,-96" /><polygon points="544,-32 544,-32 544,32 544,32" /><polygon points="480,-32 480,-32 544,-32 544,-32" /><polygon points="544,32 544,32 480,32 480,32" /><polygon points="480,32 480,32 480,-32 480,-32" /><polygon points="544,32 480,32 480,-32 544,-32" /><polygon points="352,-96 352,-96 352,-160 352,-160" /><polygon points="416,-96 352,-96 352,-160 416,-160" /><polygon points="416,-96 416,-96 384,-96 352,-96 352,-96" /><polygon points="352,-160 352,-160 416,-160 416,-160" /><polygon points="272,-160 288,-160 288,-160 256,-160 256,-160" /><polygon points="272,-160 256,-160 256,-160 272,-160" /><polygon points="288,-160 272,-160 272,-160 272,-160 288,-160" /><polygon points="288,-160 288,-160 288,-192 288,-192 288,-192 288,-160" /><polygon points="352,352 352,352 352,384 352,416 352,416" /><polygon points="352,224 352,224 352,256 352,288 352,288" /><polygon points="352,288 352,288 288,288 288,288" /><polygon points="288,224 288,224 352,224 352,224" /><polygon points="288,224 352,224 352,288 288,288" /><polygon points="288,352 288,352 352,352 352,352" /><polygon points="352,416 352,416 288,416 288,416" /><polygon points="288,352 352,352 352,416 288,416" /><polygon points="192,-384 192,-448 192,-528 192,-528 192,-328 192,-320 192,-320" /><polygon points="192,-320 192,-320 64,-320 64,-320 192,-320" /><polygon points="32,32 32,32 96,32 96,32" /><polygon points="32,96 32,96 32,32 32,32" /><polygon points="96,32 96,32 96,96 96,96" /><polygon points="96,96 96,96 32,96 32,96" /><polygon points="96,96 32,96 32,32 96,32" /><polygon points="1120,-128 960,-128 896,-128 896,-128 992,-128 1120,-128" /><polygon points="1120,0 896,0 896,-96 896,-128 960,-128 1120,-128" /><polygon points="640,384 688,384 744,384 744,384 640,384" /><polygon points="698.8235,256 672,256 640,256 640,256 698.8235,256" /><polygon points="744,384 688,384 672,256 698.8235,256" /><polygon points="688,384 688,384 672,256 672,256" /><polygon points="640,384 640,384 640,384 524,384 524,384 524,384 576,384 640,384" /><polygon points="1120,0 1120,0 1032,0 1016,0 896,0 896,0 896,0 1120,0" /><polygon points="1280,0 1280,0 1280,0 1280,0 1264,0 1168,0 1152,0 1120,0 1120,0" /><polygon points="896,-256 896,-256 896,-256 896,-224 896,-224 896,-224" /><polygon points="725.1765,256 720,256 723.1429,252.8571" /><polygon points="744,384 698.8235,256 720,256 725.1765,256 804.8572,379.1429 800,384" /><polygon points="723.1429,252.8571 720,256 720,256 723.1429,252.8571" /><polygon points="723.1429,252.8571 723.1429,252.8571 804.8571,379.1429 804.8572,379.1429" /><polygon points="744,384 744,384 698.8235,256 698.8235,256" /><polygon points="800,384 800,384 648,384 640,384 640,384 640,384 640,384 640,384 744,384 800,384" /><polygon points="832,352 848,336 848,336 832,352" /><polygon points="800,384 800,384 804.8572,379.1429 804.8571,379.1429" /><polygon points="723.1429,252.8571 744,232 848,336 832,352 804.8571,379.1429" /><polygon points="744,232 744,232 848,336 848,336" /><polygon points="832,352 832,352 832,352 808,376 800,384 800,384 804.8571,379.1429 832,352" /><polygon points="848,336 890.963,293.037 890.963,293.037 832,352 832,352" /><polygon points="760,216 744,232 744,232 760,216" /><polygon points="890.963,293.037 848,336 744,232 760,216" /><polygon points="508,384 508,384 480,384 480,384 508,384" /><polygon points="138,384 138,384 256,384 256,384 138,384" /><polygon points="484,64 484,48 468,48 468,64" /><polygon points="768,220.7061 760,216 768,208" /><polygon points="768,220.7061 768,208 768,192 896,232 896,288 890.963,293.037" /><polygon points="768,192 768,208 768,208 768,192" /><polygon points="768,220.7061 890.963,293.037 890.963,293.037 760,216 760,216" /><polygon points="720,256 744,232 744,232 744,232 723.1429,252.8571 720,256" /><polygon points="720,256 720,256 720,256 698.8235,256 640,256 640,256" /><polygon points="508,384 508,384 508,368" /><polygon points="524,368 524,384 524,384" /><polygon points="524,384 508,384 508,368 524,368" /><polygon points="508,368 508,384 524,384 524,368" /><polygon points="122,384 138,384 256,384 256,384 144,384 32,384 32,384" /><polygon points="32,384 32,384 -64,384 -64,384 32,384" /><polygon points="138,384 122,384 122,368 138,368" /><polygon points="122,384 122,384 122,368" /><polygon points="138,368 138,384 138,384" /><polygon points="122,368 122,384 138,384 138,368" /><polygon points="468,64 480,64 480,64 468,64" /><polygon points="484,48 484,64 480,64 468,64 468,48" /><polygon points="468,64 468,64 468,48" /><polygon points="484,48 484,64 484,64" /><polygon points="768,-440 768,-448 768,-448 768,-440 768,-384 768,-384" /><polygon points="768,-136 768,-216 768,-352 768,-352 768,-288 768,-192 768,-136 768,-128 768,-128" /><polygon points="1280,-448 1280,-448 1224,-448 1224,-448" /><polygon points="768,-448 768,-448 776,-448 776,-448 776,-448 768,-448" /><polygon points="1272,-224 1248,-224 1248,-224 1272,-224" /><polygon points="1272,-224 1280,-224 1280,-224 1248,-224 1248,-224" /><polygon points="1272,-256 1248,-256 1248,-256 1280,-256 1280,-256" /><polygon points="1272,-440 1280,-440 1280,-448 1224,-448 1152,-448 1152,-440" /><polygon points="1280,-440 1272,-440 1272,-256 1280,-256" /><polygon points="1272,-256 1272,-440 1272,-440 1272,-440 1272,-256" /><polygon points="1280,-224 1272,-224 1272,-160 1280,-128" /><polygon points="1272,-160 1272,-160 1280,-128 1280,-128" /><polygon points="928,-224 928,-224 896,-224 896,-224 896,-224" /><polygon points="1120,-440 896,-440 896,-440 1120,-440" /><polygon points="1152,-440 1120,-440 1120,-440 1152,-440" /><polygon points="1120,-448 1000,-448 896,-448 896,-440 1120,-440" /><polygon points="1152,-448 1120,-448 1120,-440 1152,-440" /><polygon points="960,-128 928,-136 896,-136 896,-128" /><polygon points="928,-136 928,-136 896,-136 896,-136" /><polygon points="960,-128 928,-136 928,-136" /><polygon points="896,-440 776,-440 776,-440 896,-440" /><polygon points="896,-448 776,-448 776,-440 896,-440" /><polygon points="776,-320 776,-440 768,-440 768,-384 768,-352 768,-216 776,-216" /><polygon points="768,-216 768,-136 776,-136 776,-216" /><polygon points="896,-136 776,-136 768,-136 768,-128 896,-128" /><polygon points="896,-128 768,-128 768,-128 896,-128" /><polygon points="896,232 896,288 896,288 896,232" /><polygon points="896,288 896,288 896,288 896,288 888,296 832,352 832,352 890.963,293.037 896,288" /><polygon points="768,160 768,192 768,208 768,208 768,160" /><polygon points="896,232 768,192 768,160 896,176" /><polygon points="896,232 896,232 768,192 768,192" /><polygon points="256,-96 256,-96 256,32 256,32" /><polygon points="256,-96 256,-96 256,-160 256,-160 256,-160 256,-96" /><polygon points="480,64 480,64 484,64 640,64 640,64 624,64 528,64 512,64 480,64" /><polygon points="384,64 468,64 480,64 480,64 384,64 368,64 352,64" /><polygon points="384,96 384,96 384,256 384,256" /><polygon points="136,-576 144,-576 144,-576 -32,-576 -80,-576 -80,-576 -80,-576" /><polygon points="-128,-192 -128,-192 -128,-160 -128,-128 -128,-96 -128,-96" /><polygon points="-128,-512 -128,-528 -128,-528 -128,-384 -128,-320 -128,-320" /><polygon points="192,-528 184,-536 184,-520 184,-328 192,-328" /><polygon points="136,-568 184,-520 184,-536 152,-568" /><polygon points="136,-576 -80,-576 -88,-568 -72,-568 136,-568" /><polygon points="152,-568 144,-576 136,-576 136,-568" /><polygon points="72,-472 64,-472 64,-464 64,-448 64,-384 64,-328 72,-328" /><polygon points="192,-320 192,-328 184,-328 72,-328 64,-328 64,-320" /><polygon points="128,-96 128,-120 120,-120 120,-12 120,4 120,32 120,120 128,120" /><polygon points="120,-120 128,-120 128,-128 0,-128 -8,-128 -8,-120" /><polygon points="-8,-384 -120,-384 -120,-368 -8,-368" /><polygon points="-120,-368 -120,-384 -120,-520 -128,-512 -128,-320 -120,-352" /><polygon points="0,-464 0,-448 16,-464" /><polygon points="64,-448 64,-464 48,-464" /><polygon points="64,-472 0,-472 0,-464 16,-464 48,-464 64,-464" /><polygon points="0,-352 0,-384 0,-448 0,-464 0,-472 -8,-472 -8,-384 -8,-368 -8,-344 -8,-248 0,-248" /><polygon points="-8,-248 -8,-128 0,-128 0,-248" /><polygon points="-128,-512 -120,-520 -72,-568 -88,-568 -128,-528" /><polygon points="-120,-128 -120,-160 -128,-192 -128,-96 -128,32 -120,32" /><polygon points="-128,32 -128,128 -120,96 -120,32" /><polygon points="128,128 128,120 120,120 32,120 0,128" /><polygon points="-8,-368 -8,-368 -8,-344 -8,-344" /><polygon points="-8,-384 -8,-472 -8,-472 -8,-384" /><polygon points="184,-520 136,-568 136,-568 184,-520" /><polygon points="184,-520 184,-520 184,-448 184,-352 184,-328 184,-328" /><polygon points="0,-472 64,-472 72,-472 72,-472 64,-472 -8,-472 -8,-472" /><polygon points="120,32 120,4 120,4 120,32" /><polygon points="120,-120 120,-120 120,-12 120,-12" /><polygon points="-72,-568 -120,-520 -120,-520 -72,-568" /><polygon points="-120,-368 -120,-352 -120,-352 -120,-368" /><polygon points="-120,-128 -120,32 -120,96 -120,96 -120,32 -120,-128" /><polygon points="128,-128 128,-128 96,-128 0,-128 0,-128" /><polygon points="-88,-568 -80,-576 -80,-576 -104,-552 -128,-528 -128,-528 -128,-528 -128,-528" /><polygon points="64,-448 64,-448 64,-384 64,-384" /><polygon points="48,-464 16,-464 16,-464 17,-464 48,-464" /><polygon points="16,-464 0,-448 0,-448 0,-448 0,-448 0,-448 16,-464" /><polygon points="0,-352 0,-248 0,-128 0,-128 0,-160 0,-352" /><polygon points="0,-384 0,-352 0,-352 0,-384" /><polygon points="128,-96 128,120 128,128 128,128 128,32 128,-96" /><polygon points="-128,-192 -128,-192 -160,-192 -192,-192 -192,-192 -128,-192" /><polygon points="0,192 0,192 0,256 0,256" /><polygon points="0,192 -16,192 0,192" /><polygon points="0,192 0,128 -16,128 -16,192" /><polygon points="-128,192 -128,192 -112,192" /><polygon points="368,448 272,448 272,448 288,448 352,448 368,448" /><polygon points="-64,384 -80,368 -112,336 -128,320 -128,320 -128,320 -64,384" /><polygon points="768,-440 768,-448 768,-448 768,-440" /><polygon points="896,-440 896,-320 896,-320 896,-336 896,-344 896,-352 896,-416 896,-432 896,-440" /><polygon points="1272,-440 1272,-440 1152,-440 1152,-440" /><polygon points="1120,-440 896,-440 896,-440 1120,-440" /><polygon points="1152,-440 1120,-440 1120,-440 1152,-440" /><polygon points="768,-440 768,-440 776,-440 776,-440" /><polygon points="776,-440 776,-440 776,-448 776,-448" /><polygon points="776,-448 768,-448 768,-440 776,-440" /><polygon points="776,-440 776,-440 776,-320 776,-320" /><polygon points="896,-440 776,-440 776,-320 896,-320" /><polygon points="896,176 896,128 896,128 896,288 896,288" /><polygon points="896,176 896,288 896,288 896,232 896,176" /><polygon points="640,256 640,256 640,256 648,256 720,256 720,256 640,256" /><polygon points="896,128 896,176 768,160 768,128" /><polygon points="896,176 896,176 768,160 768,160" /><polygon points="368,432 368,432 384,432 384,432" /><polygon points="272,432 256,432 256,432 272,432" /><polygon points="256,432 256,384 256,384 256,384 256,432" /><polygon points="256,96 256,96 256,256 256,256" /><polygon points="624,-448 640,-448 640,-448 552,-448 544,-448 544,-448" /><polygon points="624,-448 544,-448 528,-448 528,-448 544,-448 624,-448" /><polygon points="368,-448 320,-448 320,-448 368,-448" /><polygon points="624,-448 624,-448 624,-416 624,-416" /><polygon points="512,-448 512,-448 512,-360 512,-360" /><polygon points="368,-448 368,-448 368,-416 368,-416" /><polygon points="592,272 384,272 368,272 368,272 592,272" /><polygon points="608,256 384,256 384,272 592,272 608,272" /><polygon points="624,272 640,272 640,256 608,256 608,272" /><polygon points="640,256 640,256 640,256 640,256 640,256 608,256 608,256" /><polygon points="368,96 352,96 368,96" /><polygon points="384,96 384,96 368,96" /><polygon points="368,96 384,96 384,64 352,64 352,96" /><polygon points="384,256 384,96 368,96 368,272 384,272" /><polygon points="368,96 368,96 368,272 368,272" /><polygon points="368,368 368,368 368,432 368,432" /><polygon points="608,368 624,368 624,368 592,368 592,368" /><polygon points="624,368 624,272 624,272 624,368" /><polygon points="624,272 624,368 640,368 640,272" /><polygon points="384,384 384,432 384,432 384,384" /><polygon points="608,368 592,368 384,368 384,384 480,384 608,384" /><polygon points="640,384 640,368 624,368 608,368 608,384" /><polygon points="640,384 608,384 480,384 480,384 508,384 524,384 640,384" /><polygon points="384,384 384,368 368,368 368,432 384,432" /><polygon points="272,96 256,96 256,96" /><polygon points="272,96 288,96 288,64 256,64 256,96" /><polygon points="272,96 256,96 256,256 256,272 272,272" /><polygon points="272,368 256,368 256,384 256,432 272,432" /><polygon points="272,368 272,368 256,368 256,368" /><polygon points="-16,128 0,128 0,128 -32,128" /><polygon points="120,32 120,32 120,120 120,120 120,32" /><polygon points="120,4 120,-12 120,-120 120,-120 120,32 120,32" /><polygon points="120,4 120,4 104,4" /><polygon points="104,-12 120,-12 120,-12" /><polygon points="104,4 104,-12 120,-12 120,4" /><polygon points="104,4 120,4 120,-12 104,-12" /><polygon points="-128,192 -128,192 -128,320 -128,320" /><polygon points="-16,256 -16,192 -16,192 -16,272 -16,272" /><polygon points="256,256 256,256 256,256 224,256 224,256" /><polygon points="0,192 -16,192 -16,256 0,256" /><polygon points="208,256 0,256 -16,256 -16,272 208,272" /><polygon points="256,272 256,256 224,256 208,256 208,272" /><polygon points="208,272 -16,272 -16,272 208,272" /><polygon points="256,272 208,272 208,272 256,272" /><polygon points="-16,192 -32,192 -16,192" /><polygon points="-16,128 -32,128 -32,192 -16,192" /><polygon points="-112,192 -96,192 -96,128 -128,128 -128,192" /><polygon points="-112,320 -112,192 -128,192 -128,320 -112,336" /><polygon points="-64,368 -112,320 -112,336 -80,368" /><polygon points="-112,320 -64,368 -64,368 -112,320" /><polygon points="144,368 -64,368 -80,368 -64,384 32,384 144,384" /><polygon points="256,384 256,368 160,368 144,368 144,384" /><polygon points="368,432 272,432 272,448 368,448" /><polygon points="368,448 368,448 368,432 368,432" /><polygon points="272,448 272,432 272,432 272,448" /><polygon points="-160,-320 -192,-320 -192,-192 -160,-192" /><polygon points="-144,-320 -160,-320 -160,-304 -144,-304" /><polygon points="-160,-208 -160,-192 -144,-192 -144,-208" /><polygon points="-160,-288 -160,-224 -144,-224 -144,-288" /><polygon points="-128,-320 -144,-320 -144,-192 -128,-192" /><polygon points="-144,-288 -144,-288 -160,-288 -160,-288" /><polygon points="-160,-288 -160,-288 -160,-304 -160,-304" /><polygon points="-160,-304 -160,-304 -144,-304 -144,-304" /><polygon points="-144,-304 -144,-304 -144,-288 -144,-288" /><polygon points="-160,-224 -160,-224 -144,-224 -144,-224" /><polygon points="-160,-208 -160,-208 -160,-224 -160,-224" /><polygon points="-144,-224 -144,-224 -144,-208 -144,-208" /><polygon points="-144,-208 -144,-208 -160,-208 -160,-208" /><polygon points="384,-416 384,-224 384,-192 384,-192 384,-320 384,-416" /><polygon points="384,-416 384,-448 368,-448 368,-416 368,-224 384,-224" /><polygon points="528,-360 528,-224 528,-136 528,-136 528,-320 528,-360" /><polygon points="528,-360 528,-448 512,-448 512,-360 512,-224 528,-224" /><polygon points="640,-352 640,-384 640,-448 624,-448 624,-416 624,-224 640,-224" /><polygon points="624,-224 624,-192 640,-192 640,-224" /><polygon points="512,-224 512,-136 512,0 528,0 528,-136 528,-224" /><polygon points="368,-224 368,-192 384,-192 384,-224" /><polygon points="608,-192 608,-192 624,-192 624,-192" /><polygon points="608,-192 608,-192 608,-160 608,-160 608,-192" /><polygon points="368,-192 368,-192 368,-192 368,-160 368,-160" /><polygon points="368,-192 368,-160 368,32 384,32 384,-160 384,-192" /><polygon points="624,-160 624,-160 624,-136 624,-128 624,64" /><polygon points="640,-160 640,-160 624,-160 624,-160" /><polygon points="640,-160 624,-160 624,64 640,64" /><polygon points="1076,0 1076,0 1060,0 1060,0" /><polygon points="1076,0 1060,0 1060,-16 1076,-16" /><polygon points="1076,-16 1076,0 1076,0" /><polygon points="1060,0 1060,0 1060,-16" /><polygon points="1060,-16 1060,0 1076,0 1076,-16" /><polygon points="512,0 512,64 528,64 528,0" /><polygon points="368,32 368,64 384,64 384,32" /><polygon points="1280,0 1280,0 1280,-128 1280,-128" /><polygon points="1280,-128 1280,-224 1280,-224 1280,0 1280,0" /><polygon points="1280,-440 1280,-448 1280,-448 1280,-256 1280,-256" /><polygon points="-320,-96 -320,32 -320,128 -320,128 -320,64 -320,48 -320,-48 -320,-64 -320,-96" /><polygon points="640,256 640,256 640,272 640,368 640,384 640,384" /><polygon points="768,-224 768,-136 768,-128 768,-96 768,0 768,0 768,0 768,-96 768,-224" /><polygon points="1120,-448 896,-448 896,-448 928,-448 1016,-448 1032,-448 1120,-448" /><polygon points="880,-448 784,-448 784,-448 880,-448" /><polygon points="1272,-160 1272,-224 1280,-224 1280,-128" /><polygon points="1280,-448 1280,-440 1272,-440 1152,-440 1152,-448" /><polygon points="1272,-256 1272,-440 1280,-440 1280,-256" /><polygon points="1248,-256 1248,-256 1272,-256 1272,-256" /><polygon points="1272,-440 1272,-440 1152,-440 1152,-440" /><polygon points="1248,-224 1248,-224 1248,-224 1248,-256 1248,-256 1248,-256" /><polygon points="1272,-160 1272,-160 1272,-224 1272,-224" /><polygon points="1120,-440 896,-440 896,-448 1120,-448" /><polygon points="1152,-440 1120,-440 1120,-448 1152,-448" /><polygon points="896,-256 896,-256 896,-256 928,-256 928,-256" /><polygon points="928,-256 928,-256 928,-224 928,-224 928,-224" /><polygon points="896,-136 928,-136 960,-128 896,-128" /><polygon points="880,-440 880,-432 800,-432 800,-440" /><polygon points="784,-432 784,-440 800,-440 800,-432 800,-416 800,-352 784,-352" /><polygon points="880,-440 800,-440 784,-440 784,-448 880,-448" /><polygon points="768,-432 776,-432 776,-336 768,-336" /><polygon points="880,-432 896,-432 896,-416 864,-416 800,-416 800,-432" /><polygon points="776,-432 784,-432 784,-352 784,-344 784,-336 776,-336" /><polygon points="864,-416 896,-416 896,-352 864,-352" /><polygon points="880,-344 784,-344 784,-352 800,-352 864,-352 896,-352 896,-344" /><polygon points="880,-344 880,-336 880,-320 784,-320 784,-336 784,-344" /><polygon points="880,-336 880,-344 896,-344 896,-336" /><polygon points="776,-136 768,-136 768,-224 768,-320 776,-320" /><polygon points="896,-128 896,-96 864,-96 800,-96 768,-96 768,-128" /><polygon points="776,-136 896,-136 896,-128 768,-128 768,-136" /><polygon points="896,-96 896,0 864,0 864,-32 864,-96" /><polygon points="864,-32 864,0 800,0 800,-32" /><polygon points="800,-96 800,-32 800,0 768,0 768,-96" /><polygon points="800,-416 800,-416 800,-352 800,-352" /><polygon points="896,-136 776,-136 776,-136 896,-136" /><polygon points="784,-320 880,-320 896,-320 896,-320 776,-320 776,-320" /><polygon points="776,-136 776,-320 776,-320 776,-320 776,-216 776,-136" /><polygon points="896,0 896,0 896,8 896,64 896,64" /><polygon points="896,128 896,128 768,128 768,128" /><polygon points="768,0 800,0 864,0 896,0 896,64 896,128 768,128" /><polygon points="272,432 272,432 368,432 368,432" /><polygon points="256,-96 256,-96 256,32 256,64 256,64" /><polygon points="256,-192 256,-320 256,-320 256,-312 256,-200 256,-192" /><polygon points="288,64 272,64 256,64 256,64" /><polygon points="416,-448 512,-448 512,-448 384,-448 384,-448" /><polygon points="480,64 512,64 512,-128 416,-128 384,-128 384,64" /><polygon points="528,64 624,64 624,-128 544,-128 528,-128" /><polygon points="624,-416 624,-320 624,-192 624,-192 624,-224 624,-416" /><polygon points="624,-320 624,-192 624,-192" /><polygon points="624,-320 608,-320 608,-192 624,-192" /><polygon points="624,-416 624,-448 544,-448 544,-320 608,-320 624,-320" /><polygon points="624,-192 624,-192 608,-192 608,-192 624,-192" /><polygon points="512,64 512,0 512,-136 512,-136 512,-136 512,-128" /><polygon points="512,-320 512,-136 512,-136" /><polygon points="512,-360 512,-320 512,-136 512,-136 512,-224 512,-360" /><polygon points="528,-136 528,-136 528,0 528,64 528,-128 528,-136" /><polygon points="528,-320 528,-136 528,-136" /><polygon points="528,-448 528,-448 528,-360 528,-360" /><polygon points="544,-448 528,-448 528,-360 528,-320 544,-320" /><polygon points="544,-320 528,-320 528,-136 544,-136" /><polygon points="512,-320 512,-360 512,-448 416,-448 416,-320" /><polygon points="288,-192 272,-192 256,-192 256,-192 288,-192" /><polygon points="272,-192 288,-192 288,-192 272,-192" /><polygon points="272,-320 256,-320 256,-192 272,-192" /><polygon points="368,-416 368,-448 320,-448 320,-320 368,-320" /><polygon points="416,-448 384,-448 384,-416 384,-320 416,-320" /><polygon points="368,-192 368,-320 368,-192" /><polygon points="384,-320 384,-192 384,-192" /><polygon points="416,-320 384,-320 384,-192 416,-192" /><polygon points="272,-320 272,-192 272,-192" /><polygon points="320,-320 320,-448 320,-448 320,-448 320,-320" /><polygon points="368,-416 368,-320 368,-192 368,-192 368,-224 368,-416" /><polygon points="384,-448 384,-448 384,-416 384,-416" /><polygon points="256,-320 272,-320 320,-320 320,-320 256,-320" /><polygon points="272,-160 256,-160 256,-96 256,64 272,64" /><polygon points="592,272 368,272 368,320 368,368 592,368" /><polygon points="624,368 624,272 592,272 592,368" /><polygon points="352,64 288,64 288,96 352,96" /><polygon points="368,272 368,96 352,96 288,96 272,96 272,272 272,320 368,320" /><polygon points="272,320 272,368 272,432 368,432 368,368 368,320" /><polygon points="272,368 272,320 272,272 256,272 256,368" /><polygon points="624,272 624,272 608,272 592,272 592,272" /><polygon points="592,368 368,368 368,368 384,368 592,368" /><polygon points="288,96 272,96 272,96" /><polygon points="272,272 272,272 256,272 256,272" /><polygon points="272,96 272,96 272,272 272,272" /><polygon points="272,368 272,368 272,432 272,432" /><polygon points="128,128 128,128 128,128 96,128 96,128" /><polygon points="-96,128 -128,128 -128,128" /><polygon points="-160,128 -160,128 -200,128 -280,128 -280,128" /><polygon points="192,-576 256,-576 256,-448 192,-448" /><polygon points="32,-576 -120,-576 -128,-576 -192,-576 -192,-640 32,-640" /><polygon points="256,-640 256,-576 192,-576 184,-576 104,-576 32,-576 32,-640" /><polygon points="184,-448 184,-520 184,-568 184,-576 192,-576 192,-448 192,-352 184,-352" /><polygon points="192,-352 192,-328 184,-328 184,-352" /><polygon points="104,-568 72,-568 -72,-568 -120,-568 -120,-576 32,-576 104,-576" /><polygon points="184,-576 184,-568 136,-568 104,-568 104,-576" /><polygon points="184,-520 136,-568 184,-568" /><polygon points="64,-328 64,-384 64,-472 72,-472 72,-448 72,-328" /><polygon points="64,-320 64,-328 72,-328 184,-328 192,-328 192,-320" /><polygon points="120,32 120,-120 128,-120 128,-96 128,120 120,120" /><polygon points="0,-128 128,-128 128,-120 120,-120 -8,-120 -8,-128" /><polygon points="-72,-568 -120,-520 -120,-568" /><polygon points="-128,-576 -120,-576 -120,-568 -120,-520 -120,-472 -120,-384 -128,-384" /><polygon points="-192,-576 -128,-576 -128,-384 -192,-384" /><polygon points="64,-472 64,-384 32,-384 -8,-384 -8,-472" /><polygon points="-8,-320 0,-320 0,-128 -8,-128" /><polygon points="-120,-352 -120,-320 -8,-320 -8,-344 -8,-368 -120,-368" /><polygon points="-128,-320 -120,-320 -120,-352" /><polygon points="-128,-160 -128,-192 -120,-160 -120,-128 -120,32 -128,32" /><polygon points="-120,32 -120,96 -128,128 -128,96 -128,64 -128,32" /><polygon points="-160,32 -160,-160 -128,-160 -128,32 -128,64 -160,64" /><polygon points="-128,64 -128,96 -160,96 -160,64" /><polygon points="-192,-320 -192,-208 -256,-208 -320,-208 -320,-320" /><polygon points="-192,0 -192,-128 -192,-192 -160,-192 -160,-160 -160,32 -192,32" /><polygon points="-160,32 -160,64 -160,96 -160,112 -192,112 -192,64 -192,32" /><polygon points="-192,-208 -192,-192 -256,-192 -256,-208" /><polygon points="-256,-128 -192,-128 -192,0 -256,0" /><polygon points="-320,-96 -320,-208 -256,-208 -256,-192 -256,-128 -256,0 -256,32 -280,32 -320,32" /><polygon points="-256,32 -256,0 -192,0 -192,32 -192,64 -256,64" /><polygon points="32,120 120,120 128,120 128,128 96,128 0,128" /><polygon points="-192,64 -192,112 -256,112 -256,64" /><polygon points="-256,112 -192,112 -160,112 -160,128 -280,128 -280,112" /><polygon points="-256,32 -256,64 -256,112 -280,112 -280,32" /><polygon points="-280,112 -280,128 -320,128 -320,32 -280,32" /><polygon points="-192,-320 -320,-320 -320,-320 -192,-320" /><polygon points="192,-328 192,-352 192,-448 192,-448 192,-320 192,-320" /><polygon points="64,-384 64,-384 32,-384 32,-384" /><polygon points="128,-120 128,-128 128,-128 128,-96 128,-96" /><polygon points="0,-320 0,-320 0,-304 0,-208 0,-192 0,-128 0,-128" /><polygon points="72,-568 104,-568 136,-568 136,-568 -72,-568 -72,-568" /><polygon points="-8,-344 -8,-320 -8,-128 -8,-120 -8,-120 -8,-128 -8,-248 -8,-344" /><polygon points="120,-120 120,-120 120,-120 -8,-120 -8,-120" /><polygon points="72,-328 72,-328 184,-328 184,-328" /><polygon points="72,-448 72,-472 72,-472 72,-328 72,-328" /><polygon points="32,120 32,120 120,120 120,120" /><polygon points="0,128 0,128 32,120 32,120" /><polygon points="-8,-368 -8,-368 -120,-368 -120,-368" /><polygon points="-120,-384 -120,-384 -8,-384 -8,-384" /><polygon points="-120,-472 -120,-520 -120,-520 -120,-384 -120,-384" /><polygon points="-120,-160 -120,-160 -120,-128 -120,-128" /><polygon points="-120,96 -120,96 -128,128 -128,128" /><polygon points="-120,-352 -120,-352 -128,-320 -128,-320" /><polygon points="-128,-192 -128,-192 -120,-160 -120,-160" /><polygon points="-128,-320 -128,-320 -128,-320 -192,-320 -192,-320" /><polygon points="-192,-192 -192,-208 -192,-320 -192,-320 -192,-192" /><polygon points="160,368 -16,368 -64,368 -64,368 144,368 160,368" /><polygon points="256,368 208,368 160,368 160,368 256,368" /><polygon points="208,272 -16,272 -16,368 160,368 208,368" /><polygon points="256,272 208,272 208,368 256,368" /><polygon points="-96,192 -32,192 -32,128 -96,128" /><polygon points="-16,272 -16,192 -32,192 -96,192 -112,192 -112,320 -64,368 -16,368" /><polygon points="-96,192 -112,192 -112,192" /><polygon points="-112,192 -112,192 -112,320 -112,320" /><polygon points="-128,-192 -128,-192 -192,-192 -192,-192" /><polygon points="-192,-320 -192,-320 -128,-320 -128,-320" /><polygon points="-128,-320 -128,-320 -128,-192 -128,-192" /><polygon points="-192,-192 -192,-192 -192,-320 -192,-320" /><polygon points="-128,-192 -192,-192 -192,-320 -128,-320" /><polygon points="864,-352 864,-352 800,-352 800,-352" /><polygon points="800,-416 800,-416 864,-416 864,-416" /><polygon points="800,-416 864,-416 864,-352 800,-352" /><polygon points="864,-416 864,-416 864,-352 864,-352" /><polygon points="800,-96 800,-96 864,-96 864,-96" /><polygon points="864,-96 864,-96 864,-32 864,-32" /><polygon points="864,-32 800,-32 800,-96 864,-96" /><polygon points="864,-32 864,-32 800,-32 800,-32" /><polygon points="800,-32 800,-32 800,-96 800,-96" /><polygon points="-256,-192 -256,-192 -192,-192 -192,-192" /><polygon points="-256,-128 -256,-128 -256,-192 -256,-192" /><polygon points="-192,-128 -256,-128 -256,-192 -192,-192" /><polygon points="-192,-128 -192,-128 -256,-128 -256,-128" /><polygon points="-192,-192 -192,-192 -192,-128 -192,-128" /><polygon points="-280,128 -280,128 -280,128 -320,128 -320,128 -280,128" /><polygon points="-200,112 -200,112 -216,112 -264,112 -280,112 -280,112" /><polygon points="-200,128 -200,112 -280,112 -280,128" /><polygon points="-264,128 -216,128 -216,128 -264,128" /><polygon points="-280,112 -280,112 -280,112 -280,128 -280,128 -280,112" /><polygon points="-264,120 -216,120 -216,128 -264,128" /><polygon points="-264,112 -216,112 -216,120 -264,120" /><polygon points="-264,112 -264,120 -264,120 -264,112" /><polygon points="-264,120 -264,128 -264,128 -264,120" /><polygon points="-216,120 -216,112 -216,112 -216,120" /><polygon points="-280,112 -264,112 -264,112 -280,112" /><polygon points="384,-192 384,-160 384,-128 416,-128 416,-192" /><polygon points="288,-192 368,-192 368,-320 320,-320 272,-320 272,-192" /><polygon points="288,-192 288,-160 368,-160 368,-192" /><polygon points="384,-160 384,-192 384,-192 384,-192 384,-160" /><polygon points="368,-160 368,-128 368,64 368,32 368,-160" /><polygon points="608,-160 608,-136 624,-136 624,-160" /><polygon points="608,-160 608,-192 608,-320 544,-320 544,-136 608,-136" /><polygon points="608,-160 624,-160 624,-160 624,-160 608,-160" /><polygon points="288,-160 272,-160 272,-128 368,-128 368,-160" /><polygon points="544,-136 528,-136 528,-128 544,-128" /><polygon points="256,-448 256,-448 256,-576 256,-640 256,-640" /><polygon points="368,-128 272,-128 272,64 288,64 352,64 368,64" /><polygon points="624,-128 624,-136 608,-136 544,-136 544,-128" /><polygon points="512,-128 512,-136 512,-320 416,-320 416,-192 416,-128" /><polygon points="384,-128 384,-160 384,-160 384,32 384,64" /><polygon points="272,-128 272,-160 272,-160 272,64" /><polygon points="-192,-320 -128,-320 -128,-320 -192,-320" /><polygon points="64,-384 64,-384 64,-328 64,-320 64,-320" /><polygon points="192,-448 192,-448 256,-448 256,-448" /><polygon points="32,-384 -192,-384 -192,-384 -128,-384 -120,-384 -8,-384 32,-384" /><polygon points="-264,120 -216,120 -216,112 -264,112" /><polygon points="-264,128 -216,128 -216,120 -264,120" /><polygon points="-216,128 -216,128 -216,120 -216,120" /><polygon points="-216,112 -216,112 -200,112 -200,112" /><polygon points="-216,120 -216,120 -264,120 -264,120" /><polygon points="-264,120 -264,120 -216,120 -216,120" /><polygon points="-320,-90 -320,-90 -320,-106 -320,-106" /><polygon points="-304,-90 -320,-90 -320,-90" /><polygon points="-320,-90 -320,-106 -304,-106 -304,-90" /><polygon points="-320,-106 -320,-106 -304,-106" /><polygon points="-304,-106 -320,-106 -320,-90 -304,-90" /><polygon points="640,256 640,256 640,384 640,384" /><polygon points="768,0 768,8 776,8 888,8 896,8 896,0" /><polygon points="776,8 768,8 768,128 768,208 768,216 776,208" /><polygon points="896,64 896,8 888,8 888,64 888,232 896,232" /><polygon points="888,232 888,288 888,296 896,288 896,232" /><polygon points="720,264 728,256 720,256 648,256 648,264" /><polygon points="728,256 768,216 768,208 720,256" /><polygon points="832,352 888,296 888,288 800,376 808,376" /><polygon points="800,384 808,376 800,376 648,376 648,384" /><polygon points="648,376 648,264 648,256 640,256 640,384 648,384" /><polygon points="888,8 776,8 776,8 888,8" /><polygon points="888,8 888,8 888,64 888,64" /><polygon points="648,376 800,376 800,376 648,376" /><polygon points="888,288 888,288 800,376 800,376" /><polygon points="896,64 896,232 896,288 896,288 896,128 896,64" /><polygon points="768,8 768,0 768,0 768,128 768,128" /><polygon points="768,208 768,128 768,128 768,128 768,160 768,208" /><polygon points="720,256 768,208 768,208 768,208 768,208 760,216 744,232 720,256" /><polygon points="-160,128 -200,128 -200,128 -160,128" /><polygon points="-200,128 -160,128 -160,128 -280,128 -280,128" /><polygon points="-200,128 -200,112 -200,112 -200,112 -200,112 -200,128" /><polygon points="-280,128 -280,112 -200,112 -200,128" /><polygon points="-280,112 -280,112 -264,112 -216,112 -200,112 -200,112" /><polygon points="128,-48 128,-48 128,48 128,48" /><polygon points="128,-96 128,-64 128,-48 128,48 128,64 128,128 128,128 128,120 128,-96" /><polygon points="128,-96 128,-128 128,-128 128,-64 128,-64" /><polygon points="128,-64 128,-64 96,-64 96,-64" /><polygon points="128,48 128,48 64,48 64,48" /><polygon points="96,-48 -96,-48 -128,-48 -128,-48 0,-48 96,-48" /><polygon points="96,-48 128,-48 128,-64 96,-64 -96,-64 -96,-48" /><polygon points="64,64 -96,64 -160,64 -160,64 0,64 64,64" /><polygon points="64,64 128,64 128,48 64,48 -96,48 -96,64" /><polygon points="-96,-64 -128,-64 -320,-64 -320,-48 -128,-48 -96,-48" /><polygon points="-96,48 -160,48 -320,48 -320,64 -160,64 -96,64" /><polygon points="-160,48 -160,48 -160,48 -320,48" /><polygon points="-320,-192 -320,-208 -320,-304 -320,-320 -320,-320 -320,-320 -320,-208 -320,-96 -320,-96" /><polygon points="-320,-304 -320,-208 -160,-208 -160,-304" /><polygon points="880,0 784,0 768,0 768,0 896,0 896,0" /><polygon points="880,-448 784,-448 784,-224 880,-224" /><polygon points="1016,-448 928,-448 928,-256 928,-224 1016,-224" /><polygon points="928,-448 896,-448 896,-256 928,-256" /><polygon points="1152,-448 1120,-448 1032,-448 1032,-224 1152,-224" /><polygon points="1264,-448 1248,-448 1248,-256 1264,-256" /><polygon points="768,-432 768,-432 768,-336 768,-336" /><polygon points="768,-320 768,-320 768,-224 768,-224" /><polygon points="1152,-448 1168,-448 1248,-448 1264,-448 1280,-448 1280,-448 1152,-448 1120,-448 1120,-448" /><polygon points="896,-336 896,-336 896,-320 896,-320" /><polygon points="896,-448 896,-432 896,-336 896,-320 896,-256 896,-256" /><polygon points="896,-448 896,-448 896,-440 896,-432 896,-432" /><polygon points="1152,-448 1152,-224 1152,-224" /><polygon points="1248,-256 1248,-256 1248,-224 1248,-224 1248,-224 1248,-256" /><polygon points="1264,-224 1280,-224 1280,-224 1272,-224 1248,-224 1248,-224" /><polygon points="1264,-224 1248,-224 1248,-224 1264,-224" /><polygon points="1280,-448 1264,-448 1264,-256 1280,-256" /><polygon points="1264,-256 1264,-448 1264,-256" /><polygon points="1264,-256 1248,-256 1248,-256 1272,-256 1280,-256 1280,-256" /><polygon points="1280,-224 1264,-224 1264,0 1280,0" /><polygon points="1264,-224 1264,-224 1264,0" /><polygon points="1168,-448 1152,-448 1152,-224 1168,-224" /><polygon points="1152,-224 1152,0 1168,0 1168,-224" /><polygon points="1168,-224 1168,0 1168,-224" /><polygon points="1168,-448 1168,-224 1168,-224" /><polygon points="896,-224 896,-224 928,-224 928,-224 928,-224 896,-224" /><polygon points="1032,-448 1032,-224 1032,-224" /><polygon points="1032,-448 1016,-448 1016,-224 1032,-224" /><polygon points="1016,-448 1016,-224 1016,-224" /><polygon points="1016,-224 1016,0 1032,0 1032,-224" /><polygon points="1032,-224 1032,0 1032,-224" /><polygon points="784,-432 768,-432 768,-336 784,-336" /><polygon points="896,-432 880,-432 880,-336 896,-336" /><polygon points="896,-224 896,-256 896,-320 880,-320 880,-224 880,-96 896,-96" /><polygon points="880,-96 880,0 896,0 896,-96" /><polygon points="784,-224 784,-320 768,-320 768,-224 768,-96 784,-96" /><polygon points="768,-96 768,0 784,0 784,-96" /><polygon points="880,-320 880,-336 880,-432 880,-448 880,-224 880,-224" /><polygon points="784,-224 784,-96 784,0 784,-224" /><polygon points="784,-448 784,-432 784,-336 784,-320 784,-224 784,-224" /><polygon points="896,-320 896,-320 880,-320 880,-320" /><polygon points="784,-320 784,-320 776,-320 768,-320 768,-320" /><polygon points="880,-432 880,-432 880,-440 880,-448 880,-448" /><polygon points="896,-432 896,-432 880,-432 880,-432" /><polygon points="880,-320 880,-320 880,-336 880,-336" /><polygon points="880,-336 880,-336 896,-336 896,-336" /><polygon points="784,-432 784,-432 776,-432 768,-432 768,-432" /><polygon points="784,-448 784,-448 784,-440 784,-432 784,-432" /><polygon points="768,-336 768,-336 776,-336 784,-336 784,-336" /><polygon points="784,-336 784,-336 784,-320 784,-320" /><polygon points="888,64 888,232 888,264 888,288 888,288 888,232 888,64" /><polygon points="888,64 888,8 896,8 896,232 888,232" /><polygon points="896,232 896,384 888,384 888,376 888,288 888,264 888,232" /><polygon points="776,8 776,128 648,128 640,128 640,8" /><polygon points="776,128 776,208 720,264 648,264 648,128" /><polygon points="888,288 888,376 800,376" /><polygon points="800,376 888,376 888,384 648,384 648,376" /><polygon points="640,128 648,128 648,264 648,352 640,352" /><polygon points="648,352 648,376 648,384 640,384 640,352" /><polygon points="720,264 720,264 648,264 648,264" /><polygon points="776,128 776,8 776,8 776,208 776,208" /><polygon points="776,208 776,208 768,216 728,256 720,264 720,264" /><polygon points="648,352 648,264 648,264 648,376 648,376" /><polygon points="96,128 0,128 -128,128 -128,128 -96,128 -32,128 0,128 96,128" /><polygon points="0,128 -128,128 -128,128" /><polygon points="-128,-320 -128,-320 -192,-320 -320,-320 -320,-320" /><polygon points="-96,-320 0,-320 0,-320 -8,-320 -120,-320 -128,-320 -128,-320 -128,-320" /><polygon points="128,128 128,128 128,64 128,64" /><polygon points="96,-64 0,-64 -128,-64 -128,-64 -96,-64 96,-64" /><polygon points="-128,-64 0,-64 -128,-64" /><polygon points="-320,-64 -128,-64 -128,-64 -128,-64 -160,-64" /><polygon points="128,-128 0,-128 0,-96 0,-64 96,-64 128,-64" /><polygon points="128,-128 128,-128 128,-128 0,-128 0,-128" /><polygon points="-160,-192 -160,-192 -128,-192 -128,-192" /><polygon points="0,-192 -96,-192 -128,-192 -128,-192" /><polygon points="-96,-208 -320,-208 -320,-192 -160,-192 -128,-192 -96,-192" /><polygon points="0,-192 0,-208 -96,-208 -96,-192" /><polygon points="-96,-320 -128,-320 -320,-320 -320,-304 -96,-304" /><polygon points="0,-304 0,-320 -96,-320 -96,-304" /><polygon points="0,-208 -96,-208 -96,-208" /><polygon points="-96,-304 -320,-304 -160,-304 -96,-304" /><polygon points="0,-304 -96,-304 -96,-304" /><polygon points="-160,-192 -160,-192 -160,-160 -160,-160 -160,-192" /><polygon points="0,-96 0,-128 0,-192 -128,-192 -128,-160 -128,-96" /><polygon points="64,48 0,48 -160,48 -160,48 -96,48 64,48" /><polygon points="0,48 -160,48 -160,48" /><polygon points="128,-48 128,-48 96,-48 96,-48" /><polygon points="0,-48 -128,-48 -128,-48" /><polygon points="-128,-48 -128,-48 -320,-48 -160,-48 -128,-48" /><polygon points="128,-48 96,-48 0,-48 0,48 64,48 128,48" /><polygon points="0,-48 -128,-48 -160,-48 -160,48 0,48" /><polygon points="128,64 128,64 64,64 64,64" /><polygon points="-128,128 -128,128 -128,96 -128,96 -128,128" /><polygon points="96,128 128,128 128,64 64,64 0,64 0,128" /><polygon points="-280,128 -160,128 -160,96 -160,64 -320,64 -320,128" /><polygon points="-96,-208 -160,-208 -320,-208 -96,-208" /><polygon points="-96,-208 0,-208 0,-304 -96,-304 -160,-304 -160,-208" /><polygon points="-128,-64 0,-64 0,-96 -128,-96 -160,-96 -160,-64" /><polygon points="-128,-160 -128,-192 -128,-192 -128,-192 -128,-160" /><polygon points="-128,64 0,64 -160,64 -160,64" /><polygon points="-128,96 -128,128 0,128 0,64 -128,64" /><polygon points="-128,96 -160,96 -160,96 -128,96" /><polygon points="1248,-256 1248,-448 1168,-448 1168,-224 1248,-224" /><polygon points="1248,-256 1248,-256 1264,-256 1264,-256" /><polygon points="928,-256 896,-256 896,-256 896,-256 928,-256" /><polygon points="-160,-48 -320,-48 -320,48 -160,48" /><polygon points="-160,-96 -160,-160 -160,-192 -320,-192 -320,-96 -320,-64 -160,-64" /><polygon points="1264,-224 1248,-224 1168,-224 1168,0 1264,0" /><polygon points="1152,-224 1032,-224 1032,0 1120,0 1152,0" /><polygon points="1016,-224 928,-224 896,-224 896,0 1016,0" /><polygon points="880,-224 784,-224 784,0 880,0" /><polygon points="896,-224 896,-224 896,-96 896,0" /><polygon points="1152,-224 1152,0 1152,-224" /><polygon points="928,-224 928,-256 928,-256 928,-224" /><polygon points="1016,-224 1016,0 1016,-224" /><polygon points="880,-224 880,0 880,-96 880,-224" /><polygon points="-160,-192 -160,-192 -320,-192" /><polygon points="-160,-160 -160,-96 -128,-96 -128,-160" /><polygon points="-160,-160 -128,-160 -128,-160 -160,-160" /><polygon points="-160,64 -160,64 -160,64 -320,64" /><polygon points="-160,128 -160,128 -160,128 -160,128 -160,112 -160,96 -160,96" /><polygon points="-160,64 -160,96 -128,96 -128,64" /></g></defs><rect fill="#fff" height="1304.0" id="background" width="1816.0" x="-428.0" y="-748.0" /><use fill="none" stroke="black" stroke-miterlimit="0" stroke-width="15" xlink:href="#bsp_ref" /><use fill="white" stroke="black" stroke-width="1" xlink:href="#bsp_ref" /></svg>