<svg viewBox="-731 -1123 1862 2038" xmlns="http://www.w3.org/2000/svg" xmlns:xlink="http://www.w3.org/1999/xlink"><defs><g id="a"><path d="m304-196v72z"/><path d="m260-80h-72z"/><path d="m144-124v-72l44-44h72l44 44v72l-44 44h-72z"/><path d="m260-240 44 44z"/><path d="m304-124-44 44z"/><path d="m144-124v-72l44-44h72l44 44v72l-44 44h-72z"/><path d="m304-124v-72l-44-44h-72l-44 44v72l44 44h72z"/><path d="m304-196v72z"/><path d="m260-80h-72z"/><path d="m260-240 44 44z"/><path d="m304-124-44 44z"/><path d="m144-196v72z"/><path d="m260-240h-72z"/><path d="m188-240-44 44z"/><path d="m144-124 44 44z"/><path d="m-544-360v32z"/><path d="m-544-328v184-160z"/><path d="m-320-368v8z"/><path d="m-320-368h64v8h-64z"/><path d="m-176-144v-184-32z"/><path d="m-176-144h-144z"/><path d="m-320-328h-32z"/><path d="m-224-360h48v32h-48z"/><path d="m-224-360v32z"/><path d="m-320-328v-32h64v32z"/><path d="m-320-360v32z"/><path d="m-544-328v-32h32 160v32z"/><path d="m-320-144h-224v-184h192 32z"/><path d="m-256-328h32 48v184h-144v-184z"/><path d="m-544-112v-32z"/><path d="m-144-360h-32z"/><path d="m-176-112h32-176z"/><path d="m-144-360v24z"/><path d="m-176-136v-8-216h32v24 200z"/><path d="m-144-112h-32v-24h32z"/><path d="m-320-144h-224z"/><path d="m-320-112h-224v-32h224z"/><path d="m-176-144v8 24h-144v-32z"/><path d="m196-72h56 8-72z"/><path d="m260-240v-8l44 44v8z"/><path d="m260-248v8h-72v-8z"/><path d="m304-196v-8l8 8v64l-8 8z"/><path d="m260-80 44-44 8-8v8l-52 52h-8z"/><path d="m188-248v8l-44 44h-8z"/><path d="m136-124v-8l8 8 44 44 8 8h-8z"/><path d="m136-196h8v72l-8-8z"/><path d="m260-80-8 8h-56l-8-8z"/><path d="m136-132v8-72z"/><path d="m312-124-8 8-36 36-8 8z"/><path d="m304-204-44-44 44 44 8 8z"/><path d="m144-196v72z"/><path d="m260-240h-72z"/><path d="m188-240-44 44z"/><path d="m144-124 44 44z"/><path d="m136-180v-16z"/><path d="m312-196v16z"/><path d="m136-196h176z"/><path d="m300-208h-152z"/><path d="m300-208-16-16h-120l-16 16z"/><path d="m164-224h120z"/><path d="m284-224 16 16z"/><path d="m148-208 16-16z"/><path d="m312-180h-176z"/><path d="m136-196v16h176v-16z"/><path d="m312-168h-176v16h176z"/><path d="m312-140h-176v16h176z"/><path d="m300-112h-152l16 16h120z"/><path d="m-176-360h-48z"/><path d="m-320-80h208-16-224z"/><path d="m-384-80h-128z"/><path d="m-112-360v56z"/><path d="m-320-112h-224z"/><path d="m-144-136v-200-24h32v56 168z"/><path d="m-112-112h-32v-24h32z"/><path d="m-144-336v200 24-24z"/><path d="m-544-112h224v32h-32-32-128-32z"/><path d="m-320-112h176 32v32h-208z"/><path d="m260-248v8l8 8 36 36v-8z"/><path d="m188-232h72 8l-8-8h-72l-8 8z"/><path d="m260-240v-8h-72v8z"/><path d="m304-116v-8l-36 36-8 8h8z"/><path d="m296-196v72h8v-72z"/><path d="m304-124h-8l-36 36h8z"/><path d="m296-196h8l-36-36h-8z"/><path d="m304-196v72 8l8-8v-72l-8-8z"/><path d="m152-204 28-28 8-8v-8l-52 52h8z"/><path d="m152-196 36-36h-8l-28 28z"/><path d="m152-124v8l28 28h8z"/><path d="m180-88-28-28-8-8h-8l52 52v-8z"/><path d="m136-124h8v-72h-8z"/><path d="m144-196v72l8 8v-8-72-8z"/><path d="m260-72 8-8h-8-72v8z"/><path d="m260-80 8-8h-8-72-8l8 8z"/><path d="m296-124-36 36z"/><path d="m260-88h-72z"/><path d="m260-248h-72z"/><path d="m312-124v-8-64z"/><path d="m136-124 52 52z"/><path d="m188-248-52 52z"/><path d="m136-124v-16z"/><path d="m136-152v-16z"/><path d="m312-140v16z"/><path d="m312-168v16z"/><path d="m312-152h-176z"/><path d="m148-208 16-16h120l16 16z"/><path d="m136-168h176z"/><path d="m312-180h-176v-16h176z"/><path d="m136-168h176v16h-176z"/><path d="m312-124h-176z"/><path d="m136-140h176z"/><path d="m136-140h176v16h-176z"/><path d="m148-112h152z"/><path d="m284-96h-120z"/><path d="m148-112h152l-16 16h-120z"/><path d="m164-96-16-16z"/><path d="m300-112-16 16z"/><path d="m368-128v-4-16-44z"/><path d="m432-128h-64z"/><path d="m432-192v64z"/><path d="m432-128h-64v-64h64z"/><path d="m480-328v64z"/><path d="m480-40v32z"/><path d="m112-360h-24-168-32 208z"/><path d="m336-360h-200-24 208z"/><path d="m448-360h32z"/><path d="m-80 88v-32-32z"/><path d="m-80 200v-16-32z"/><path d="m448-8h-32z"/><path d="m432-192v-168h16 32v32 64 136h-48z"/><path d="m368-232v-16-8-104h64v168h-64z"/><path d="m432-192h-64z"/><path d="m368-72v-56h64 48v88 32h-32-32-48z"/><path d="m156-104-20-20 52 52z"/><path d="m260-248h-72z"/><path d="m336-360h32v104h-180-52v-104z"/><path d="m260-248h-72v-8h180v8z"/><path d="m136-256h52v8h-52z"/><path d="m368-248v16h-48-8-36l-16-16z"/><path d="m320-196 28 28-8 8-20 20z"/><path d="m348-168-28-28v-36h48v40 44z"/><path d="m368-148v16l-24-24-4-4 8-8z"/><path d="m344-156-24 24v-8l20-20z"/><path d="m320-132 24-24 24 24v4 56h-56v-52z"/><path d="m312-196h8v56 8l-8 8z"/><path d="m320-232v36h-8v-36z"/><path d="m312-72h-52l52-52z"/><path d="m312-196-36-36h36z"/><path d="m276-232 36 36z"/><path d="m172-232-36 36v-36z"/><path d="m188-248-16 16h-36v-16z"/><path d="m172-232 16-16-16 16-36 36z"/><path d="m156-104h-20v-20z"/><path d="m136-104h20l32 32h-44-8z"/><path d="m-80-80v-24h168 48v32h-216z"/><path d="m88-360v104 24 96h-168v-224z"/><path d="m88-136v32h-168v-32z"/><path d="m136-232v36 72 20h-48v-32-96z"/><path d="m88-256h48v8 16h-48z"/><path d="m136-256h-48v-104h24 24z"/><path d="m144-8h-224v-48-16h216 8z"/><path d="m188-72h72 52 56v64h-176-32-16v-64z"/><path d="m-80 152v-32-32-64-32h224 16l-208 208h-32z"/><path d="m160-8-208 208z"/><path d="m-352-80h-32z"/><path d="m-112-304v168 32 24-32-24z"/><path d="m-80-80h-32v-24h32z"/><path d="m-112-136v-168-56h32v224z"/><path d="m-80-104h-32v-32h32z"/><path d="m-128-56h-96-128v-24h224z"/><path d="m-112-80h32v8 16h-48v-24z"/><path d="m-128-56h48v48 32h-144v-80z"/><path d="m-352 72v-32-88-8h128v80 32 32 32 32 16h-128z"/><path d="m-224 168v16 96h-128v-112z"/><path d="m-224 88v-32z"/><path d="m-224 24v32z"/><path d="m-80 24h-144z"/><path d="m-224 184v32 64z"/><path d="m-224 184v-16-16z"/><path d="m-224 120v-32z"/><path d="m260-72h-72z"/><path d="m260-248 16 16h-16-72-16l16-16z"/><path d="m296-124h16l-52 52v-16z"/><path d="m296-124v-72h16v72z"/><path d="m312-196h-16l-36-36h16z"/><path d="m188-232-36 36h-16l36-36z"/><path d="m136-124h16l36 36v16z"/><path d="m152-124h-16v-72h16z"/><path d="m260-88v16h-72v-16z"/><path d="m136-124v-72z"/><path d="m152-124 36 36z"/><path d="m152-196 36-36z"/><path d="m152-124v-72z"/><path d="m260-232h-72z"/><path d="m260-248 16 16z"/><path d="m312-196v72z"/><path d="m312-124-52 52z"/><path d="m260-232 36 36z"/><path d="m296-196v72z"/><path d="m-80 56h-144z"/><path d="m-80 24v32h-144v-32z"/><path d="m-80 56v32z"/><path d="m-80 88h-144z"/><path d="m-80 56v32h-144v-32z"/><path d="m-80 120v-32z"/><path d="m-224 120v32z"/><path d="m-80 120h-144z"/><path d="m-80 88v32h-144v-32z"/><path d="m-320-360h64z"/><path d="m-256-360h-64z"/><path d="m-320-360h64z"/><path d="m-256-368v8z"/><path d="m-320-368v8z"/><path d="m-256-368v8h-64v-8z"/><path d="m-320-368v8h64v-8z"/><path d="m-256-368h-64z"/><path d="m-80 152v-32z"/><path d="m-224-328h-32z"/><path d="m-352-328v-32z"/><path d="m-256-328v-32z"/><path d="m-320-328h64v-32h-64z"/><path d="m-80 152h-144z"/><path d="m-80 120v32h-144v-32z"/><path d="m-80 184h-144z"/><path d="m-80 152v32h-144v-32z"/><path d="m-176-360h64-32z"/><path d="m-256-360v-8z"/><path d="m-320-368v8h64v-8z"/><path d="m-256-368h-64z"/><path d="m-80 184v16z"/><path d="m-80 216v-16z"/><path d="m-320-360h64 32v32h-128v-32z"/><path d="m-224-328h-32-64-32z"/><path d="m-224 280h-32-96z"/><path d="m-80 184v16 16h-144v-32z"/><path d="m-80 216h-144z"/><path d="m-80 232v16z"/><path d="m-224 248v32-64z"/><path d="m-80 248h-144z"/><path d="m-80 216v16 16h-144v-32z"/><path d="m-80 248v-16 48z"/><path d="m-80 280h-144z"/><path d="m-224 280v-32z"/><path d="m-80 248v32h-144v-32z"/><path d="m-80 312h-144z"/><path d="m-80 280v-48 80z"/><path d="m-80 280v32h-144v-32z"/><path d="m-80 312v96z"/><path d="m-224 312h144v96 32h-32-112z"/><path d="m-224 440h-32z"/><path d="m-224 312v128z"/><path d="m-256 312h32v128h-32z"/><path d="m272-272 8-24h-112l8 24z"/><path d="m280-296-8 24 64 64 24-8z"/><path d="m336-112v8h24v-112l-24 8z"/><path d="m336-112-8 8h8z"/><path d="m176-272-8-24-80 80 24 8z"/><path d="m112-112-24 8 80 80 8-24z"/><path d="m112-112v-96l-24-8v112z"/><path d="m280-24-8-24h-96l-8 24z"/><path d="m360-104h-24-8l-56 56 8 24z"/><path d="m-80 200h32l-192-192v32z"/><path d="m-352 40h112v-32h-112z"/><path d="m-288 312h32v128h-32z"/><path d="m-256 280v32h-32-64v-32z"/><path d="m416-8h32 32-96z"/><path d="m480-264v-64-32 128z"/><path d="m280-296h-48-64z"/><path d="m-128-360h-224z"/><path d="m96-360h-208-16 80z"/><path d="m320-360h-208-16 80 56z"/><path d="m88-216v112z"/><path d="m360-104v-32-80z"/><path d="m168-296-80 80z"/><path d="m88-104 56 56 24 24z"/><path d="m272-48h-96z"/><path d="m328-104 8-8-64 64z"/><path d="m-48 200-80-80-112-112z"/><path d="m160-8-128 128-80 80z"/><path d="m-240 40h-112z"/><path d="m-352 8h112z"/><path d="m-80 312v-80-32 208z"/><path d="m-352-360h-160-32 14.9333 89.0667z"/><path d="m-512-80h128 32-94.9333-82.1334-14.9333z"/><path d="m-544-304v160 32 32-24-32z"/><path d="m480-328v-32z"/><path d="m480-264v32 192-88z"/><path d="m-544-112v32z"/><path d="m-224 312h-32z"/><path d="m-512-360h-32z"/><path d="m-512-360h160z"/><path d="m-128-360h16-64-48-32-64-32z"/><path d="m448-360h-16-64-32z"/><path d="m-80 232v-16-16z"/><path d="m448-8h32z"/><path d="m416-8h-32-192 176z"/><path d="m192-8h-32z"/><path d="m-48 200h-32z"/><path d="m-544-80h32z"/><path d="m-352 40v32z"/><path d="m-352 72v96 112z"/><path d="m-352-48v-32 24z"/><path d="m-352 40v-32-56z"/><path d="m-224 280v32z"/><path d="m-80 440v-32z"/><path d="m-256 312v128z"/><path d="m-448-344h-8v8 64h8z"/><path d="m-456-336v-8h-64v8z"/><path d="m-520-336v-8h-8v72h8z"/><path d="m-448-264v-8h-8-64-8v8z"/><path d="m-528-272v-72l-1.0667-1.0667v82.1334l1.0667-1.0667z"/><path d="m-448-264h-80l-1.0667 1.0667h82.1334z"/><path d="m-520-272h64l16 16h-96z"/><path d="m-224 440h-64 32z"/><path d="m-352 312v-32z"/><path d="m-352-80v32 56z"/><path d="m-352-80v88h112v-112h-112z"/><path d="m-320 312h32v128h-32z"/><path d="m-48 200 80-80h-112-48z"/><path d="m-128 120h48v-128-16-80h-48-112v112z"/><path d="m160-8h-16-224v128h112z"/><path d="m88-104h-136-32v80h224v-24z"/><path d="m144-24h24l-24-24z"/><path d="m360-24v-80l-80 80z"/><path d="m144-24h-224v16h224z"/><path d="m160-8h200v-16h-80-112-24v16z"/><path d="m88-104v-112l-136-45.3333v125.3333 32z"/><path d="m176-360h-80-144v98.6667l136 45.3333 80-80 8-8z"/><path d="m232-360h-56v56z"/><path d="m-128-360h-224v14.9333 209.0667h224z"/><path d="m-352-136v14.9333 17.0667h112 112v-32z"/><path d="m-48-136v-125.3333-98.6667h-80v224z"/><path d="m-80-104h32v-32h-80v32z"/><path d="m176-304-8 8h64v-48-16z"/><path d="m320-360h-88v16l48 48 80 80v-144z"/><path d="m480-232v-128h-120v144 80h120z"/><path d="m360-136v32 80 16h24 96v-128z"/><path d="m232-296h48l-48-48z"/><path d="m272-48h-96z"/><path d="m336-112-56 56-8 8z"/><path d="m-80 200v208z"/><path d="m384-8h-24-200 32z"/><path d="m480-232v96 128-32z"/><path d="m360-104-80 80z"/><path d="m360-360h120-32-112-16z"/><path d="m336-208-64-64z"/><path d="m280-296 80 80z"/><path d="m280-24h-112z"/><path d="m336-112v-96z"/><path d="m272-272h-96z"/><path d="m112-208v96z"/><path d="m112-112 64 64z"/><path d="m176-272-64 64z"/><path d="m-80 440v-32z"/><path d="m-256 280h32z"/><path d="m-80 200-160-160z"/><path d="m-320 312h-32 64z"/><path d="m-224 312h-32z"/><path d="m-224 280v32z"/><path d="m-256 312v-32z"/><path d="m-288 312v128z"/><path d="m-544-360v32 24z"/><path d="m-529.0667-345.0667 1.0667 1.0667h8 64 8l1.0667-1.0667z"/><path d="m-352-360h-88v14.9333h88z"/><path d="m-446.9333-345.0667h6.9333v-14.9333h-89.0667v14.9333z"/><path d="m-446.9333-345.0667-1.0667 1.0667v72 8l1.0667 1.0667z"/><path d="m-446.9333-80h94.9333v-24h-88-6.9333z"/><path d="m-440-121.0667v-224h-6.9333v82.1334 141.8666z"/><path d="m-446.9333-104h6.9333v-17.0667h-6.9333z"/><path d="m-440-345.0667v224h88v-14.9333-209.0667z"/><path d="m-440-121.0667v17.0667h88v-17.0667z"/><path d="m-446.9333-104v-17.0667-141.8666h-82.1334v126.9333 32z"/><path d="m-529.0667-80h82.1334v-24h-82.1334z"/><path d="m-544-104v24h14.9333v-24z"/><path d="m-529.0667-136v-126.9333-82.1334-14.9333h-14.9333v56 168z"/><path d="m-544-104h14.9333v-32h-14.9333z"/><path d="m432 440h80-112z"/><path d="m-128-656h-80-144 144z"/><path d="m672-656h-72-152z"/><path d="m224-656h-224l112-160h112z"/><path d="m304-816v160h-80v-160z"/><path d="m304-816h32l112 160h-48-96z"/><path d="m336-816 112 160z"/><path d="m-352-216v96 16 112-112z"/><path d="m-352-440v96 128-128z"/><path d="m824-296v24z"/><path d="m824-656v64 8 24 32z"/><path d="m296 264h-88-120-16 32 104 64z"/><path d="m824 176h-56z"/><path d="m544 96 104-104 48-48 48-48 24-24v208 16z"/><path d="m768 176h-224v-80h224z"/><path d="m784-144 40 40v56 128h-56v-208z"/><path d="m824 80v96h-56v-80-16z"/><path d="m824-184v80l-40-40z"/><path d="m512 128v136z"/><path d="m512 128v136h-80-56z"/><path d="m-200-8 16 16 208 208z"/><path d="m368 240h-64z"/><path d="m696-392v64 32z"/><path d="m704-400h-8z"/><path d="m696-584v-72h128v128 96h-128z"/><path d="m824-432v32h-120-8v-32z"/><path d="m696-296h8z"/><path d="m704-296h120z"/><path d="m824-304h-120z"/><path d="m824-304h-120v-96h120z"/><path d="m704-296h120v24 88l-40 40-88-88v-32-32z"/><path d="m696-104v-128l88 88-16 16-24 24z"/><path d="m696-104h48l-48 48z"/><path d="m304-584h72-40-32-8z"/><path d="m-128-656h128v72h-200-8v-72z"/><path d="m224-584h-152-72v-72h224z"/><path d="m304-656v72h-8-72v-72z"/><path d="m376-584 24-72h48 152v72z"/><path d="m600-656h72 24v72h-96z"/><path d="m400-656-24 72h-72v-72z"/><path d="m-200-312v48 32z"/><path d="m48-560 24-24-24 24-24 24z"/><path d="m-176-240v32 104 88-8-88z"/><path d="m48-528-96 96-128 128 16-16z"/><path d="m48 208 32 32z"/><path d="m648-312-80-80z"/><path d="m376-584h224v184h-40z"/><path d="m600-584h96v152 32h-96z"/><path d="m648-392v80l-80-80z"/><path d="m648-392h48v96 32l-48-48z"/><path d="m624-296v-8 64z"/><path d="m696-264v32 128h-48v-128-80z"/><path d="m648-104h48v48l-48 48z"/><path d="m648-232v128 96-96z"/><path d="m400 208 112-112-144 144z"/><path d="m624-16-80 80-16 16z"/><path d="m304-560h-32-40-144-8 8 184z"/><path d="m584-344-216-216 88 88 72 72 16 16 48 48z"/><path d="m232-296h48-8-40-64z"/><path d="m360-488v-72h8l216 216v8h-224z"/><path d="m584-336v40h-224v-40z"/><path d="m584-336v-8l8 8 32 32v8h-40z"/><path d="m282.6667-304 53.3333-160 24-24v152 40h-80z"/><path d="m272-336v-64l64-64-53.3333 160h-10.6667z"/><path d="m272-560h32 56v72l-24 24-64 64z"/><path d="m232-360v-200h40v160 64h-40z"/><path d="m272-336v32h-40v-32z"/><path d="m272-304h10.6667l-2.6667 8h-48v-8z"/><path d="m232-560v200l-24 24h-120v-224z"/><path d="m208-336-40 40h-80v-40z"/><path d="m168-296 40-40 24-24v24 32 8z"/><path d="m360-104v-112z"/><path d="m360-24h152v104 16l-112 112-40-40z"/><path d="m360-104h152v80h-152z"/><path d="m512-24v-80h72 40v88l-96 96h-16z"/><path d="m584-104h-72-152v-112-80h224z"/><path d="m624-296v56 136h-40v-192z"/><path d="m512 80v16z"/><path d="m280-24 80-80v80z"/><path d="m360-216-80-80z"/><path d="m360-296v80l-80-80z"/><path d="m208 16 40-40h32 80v192z"/><path d="m248-24-40 40-40-40z"/><path d="m168-296-80 80v-80z"/><path d="m168-296-80 80z"/><path d="m88-104 80 80 40 40v104h-120z"/><path d="m208 120v120h-120v-120z"/><path d="m208 120v-104l152 152 40 40-32 32h-64-96z"/><path d="m-48-336v-96l96-96 32-32h8v224z"/><path d="m88-296v80l-136-45.3333v-74.6667h136z"/><path d="m-176-208v-32-64l128-128v96 74.6667 53.3333z"/><path d="m-48-104h-128v-104h128z"/><path d="m48-104h-96v-104-53.3333l136 45.3333v112z"/><path d="m-40 120-136-136v-88h128 96v224z"/><path d="m48 208-88-88h88z"/><path d="m88-104v224h-40v-224z"/><path d="m88 120v120h-8l-32-32v-88z"/><path d="m-176-336-24 24v-32h24z"/><path d="m-200-560h24v216h-24z"/><path d="m0-560h48l-24 24-200 200v-8-216z"/><path d="m0-584v24h-176-24v-24z"/><path d="m0-584h72l-24 24h-48z"/><path d="m-200-560h-8v-24h8z"/><path d="m-208-560h8v216h-8z"/><path d="m-208-344h8v32 80 112h-8z"/><path d="m-200-120v112l-8-8v-104z"/><path d="m-200-8v16h-8v-24z"/><path d="m-32 216-16-16-152-152v-40-16l224 224z"/><path d="m16 264-48-48h56v48z"/><path d="m24 216 48 48h-48z"/><path d="m-208 8h8v40l-8-8z"/><path d="m72 320h16 120v120h-16z"/><path d="m88 264v16l-16-16z"/><path d="m88 320v-40-16h120v56z"/><path d="m88 280v40h-16l-56-56h8 48z"/><path d="m208 320v-56h88 80 56v176h-32-192z"/><path d="m432 264h80v176h-80z"/><path d="m-208-584v24h-144v-96h144z"/><path d="m-352-344v-96-120h144v216z"/><path d="m-352-216v-128h144v224h-144z"/><path d="m-208-120v104 24h-32l-112-112v-16z"/><path d="m-240 8h32v32z"/><path d="m-48 200 16 16 48 48 56 56h-120z"/><path d="m176 440h-224v-120h120l120 120z"/><path d="m-240 8h-112v-112z"/><path d="m-224 440h-96 32z"/><path d="m-224 440h112z"/><path d="m-112 440h32z"/><path d="m-352 40v32z"/><path d="m-352 40h112z"/><path d="m-352 312h32z"/><path d="m-320 312v128z"/><path d="m-352 312h32v128h-32z"/><path d="m-352 440h32 96z"/><path d="m-352 440h128-128-32z"/><path d="m-352 312v128z"/><path d="m-384 312h32v128h-32z"/><path d="m-544 440h160z"/><path d="m-576 184v80 144-192z"/><path d="m-352 72v-32z"/><path d="m-352 280v-208z"/><path d="m-384 312v-32z"/><path d="m-384 312v128z"/><path d="m-352 280h-32z"/><path d="m-352 280h-32v-16-192h32z"/><path d="m-384 312h32z"/><path d="m-576 184v-144h192v32 192h-192z"/><path d="m-384 264v16 32 128h-160-32v-32-144z"/><path d="m512 440h-112z"/><path d="m176 440h-224z"/><path d="m400 440h-192-16-16 16 16z"/><path d="m304-816h32-32-80-112z"/><path d="m0-656h-128z"/><path d="m-128-656h-80-144z"/><path d="m824-656h-128-24z"/><path d="m672-656h-224z"/><path d="m304-656v-160h-192l-112 160z"/><path d="m304-816v160h-304l112-160z"/><path d="m336-816h-32v160h32 112z"/><path d="m304-816h32l112 160h-112-32z"/><path d="m336-816 112 160z"/><path d="m112-816-112 160z"/><path d="m-352-560v-96 96 120z"/><path d="m-352-216v112 112-64-48z"/><path d="m-352-440v96 128-48z"/><path d="m-208 40-32-32 32 32 8 8 152 152z"/><path d="m304-656h32v32 40h-32z"/><path d="m304-584h32v-40-32h-32z"/><path d="m336-624 40 40h-40z"/><path d="m336-624v40h40z"/><path d="m488-472-88-88-24-24-40-40v-32h112 224 152v64 8 24 32 56 72h-120-8-136z"/><path d="m824-472v-56-32-24-8-64h-152-224-112v32l40 40 24 24 88 88 72 72h136 8 120z"/><path d="m304-656v72h-8-224-72v-72z"/><path d="m72-584h224 8v-72h-304v72z"/><path d="m704-304h120v-96h-120z"/><path d="m824-304h-120v-96h120z"/><path d="m696-296v-32l-48 16v80 128h48z"/><path d="m648-232v-80l48-16v32 192h-48z"/><path d="m648-312 48-16v-64h-128z"/><path d="m696-392v64l-48 16-80-80z"/><path d="m824-152v-120-24h-120-8v192h128z"/><path d="m696-296h8 120v24 120 48h-128z"/><path d="m592-336-48-48-16-16-72-72-88-88-56 168 144 144 168-56z"/><path d="m368-560 88 88 72 72 16 16 48 48 32 32-168 56-144-144z"/><path d="m272-464v-96h32 64l-56 168-8 24h-32z"/><path d="m312-392 56-168h-64-32v96 96h32z"/><path d="m304-368h-32-40v8 16l48 48 80 80 72-24z"/><path d="m280-296-48-48v-16-8h40 32l128 128-72 24z"/><path d="m272-560v96h-96-64l-24-24v-72z"/><path d="m176-464h96v-96h-184v72l24 24z"/><path d="m232-344 48 48h-8-40z"/><path d="m232-344v48h40 8z"/><path d="m624-240v-64l-168 56-24 8v32h96 96z"/><path d="m528-208h-96v-32l24-8 168-56v64 32z"/><path d="m624-208v104h-96v-8-96z"/><path d="m528-112v8h96v-104h-96z"/><path d="m432-112h96v8h-16-80z"/><path d="m512-104h16v-8h-96v8z"/><path d="m360-216 72-24v32 96 8h-72z"/><path d="m432-112v-96-32l-72 24v112h72z"/><path d="m0-584v24h48l24-24z"/><path d="m72-584-24 24h-48v-24z"/><path d="m0-584v24h-176-32v-96h80 128z"/><path d="m0-584v-72h-128-80v96h32 176z"/><path d="m136-392 8-8-56-56v112z"/><path d="m144-400-8 8-48 48v-112z"/><path d="m232-368h-56-32l-128 128 72 24 80-80 64-64z"/><path d="m144-368h32 56v8l-64 64-80 80-72-24z"/><path d="m-176-344v8l200-200 24-24h-48-176z"/><path d="m0-560h48l-24 24-200 200v-8-216z"/><path d="m176-464h-64l64 64z"/><path d="m112-464h64v64z"/><path d="m112-464-24-24v32l56 56 32 32v-32z"/><path d="m88-488 24 24 64 64v32l-32-32-56-56z"/><path d="m-176-304v32l64 64h32 32 64l-48-48z"/><path d="m-176-304 144 48 48 48h-64-32-32l-64-64z"/><path d="m88-344v-112-32-72h-8l-32 32-208 208-16 16 144 48 24 8z"/><path d="m-32-256-144-48 16-16 208-208 32-32h8v72 32 112l-96 96z"/><path d="m-80-176v-32h-32z"/><path d="m-112-208h32v32z"/><path d="m-8-248 24 8 72 24v8 72l-72-72-48-48z"/><path d="m16-208 72 72v-72-8l-72-24-24-8-24-8z"/><path d="m88-136v24h-72v-96z"/><path d="m16-112h72v-24l-72-72z"/><path d="m-176-112h96 32 64 72v8l-72 24-24 8-144 48h-24z"/><path d="m-8-72 24-8 72-24v-8h-72-64-32-96v88h24z"/><path d="m-112-208 32 32v64h-96v-128-32z"/><path d="m-176-240v128h96v-64l-32-32-64-64z"/><path d="m232-360v16 48h-64z"/><path d="m232-344v-16l-64 64h64z"/><path d="m176-368h-32l-8-24 8-8z"/><path d="m144-400-8 8 8 24h32z"/><path d="m-200-344h24v-216h-32v216z"/><path d="m-208-560h32v216h-24-8z"/><path d="m-200-312 24-24v-8h-24z"/><path d="m-176-336-24 24v-32h24z"/><path d="m-200-8v-32-192-32-48-32h-8v352h8z"/><path d="m-200-344v32 48 32 192 32 16h-8v-352z"/><path d="m824-48v-56h-128-48v96 80h176z"/><path d="m648-8v-96h48 128v56 120h-176z"/><path d="m624 16v56h24v-80z"/><path d="m648 72h-24v-56l24-24z"/><path d="m824 72h-176-24v104h144 56z"/><path d="m624 72h24 176v104h-56-144z"/><path d="m624-104h-96-16v50.6667 133.3333h16l16-16 80-80z"/><path d="m512-53.3333v-50.6667h16 96v88l-80 80-16 16h-16z"/><path d="m624 72v-56l-56 56-24 24v80h80z"/><path d="m568 72 56-56v56 104h-80v-80z"/><path d="m432-104h-72l72 24 24 8 56 18.6667v-50.6667z"/><path d="m456-72-24-8-72-24h72 80v50.6667z"/><path d="m512-53.3333-56-18.6667-144 144 2.6667 8h197.3333z"/><path d="m456-72 56 18.6667v133.3333h-197.3333l-2.6667-8z"/><path d="m360-104 72 24-56 56h-96z"/><path d="m432-80-72-24-80 80h96z"/><path d="m314.6667 80-2.6667-8-8-24-32 32z"/><path d="m272 80 32-32 8 24 2.6667 8z"/><path d="m304 48 72-72h-96-8v72 32z"/><path d="m272 48v-72h8 96l-72 72-32 32z"/><path d="m512 96v-16h-197.3333-42.6667v64 96h32 64z"/><path d="m272 144v-64h42.6667 197.3333v16l-144 144h-64-32z"/><path d="m176 48h96v-72h-104-96l72 72z"/><path d="m168-24h104v72h-96-32l-72-72z"/><path d="m512 128-136 136h136z"/><path d="m512 128v136h-136z"/><path d="m208 320v-56h64 24 80 136v32 144h-112-192z"/><path d="m512 296v-32h-136-80-24-64v56 120h192 112z"/><path d="m272 240v-96h-96v96z"/><path d="m272 144v96h-96v-96z"/><path d="m88-104-72 24 56 56h96z"/><path d="m72-24-56-56 72-24 80 80z"/><path d="m-152-24 144-48 48 48z"/><path d="m-152-24h192l-48-48z"/><path d="m144 48-8 24 8 8h32v-32z"/><path d="m176 80h-32l-8-8 8-24h32z"/><path d="m144 80h-56v32h88v-32z"/><path d="m88 112v-32h56 32v32z"/><path d="m24 216-208-208h-16-8v32l160 160 106 106 14-42z"/><path d="m-208 8h8 16l208 208 48 48-14 42-106-106-160-160z"/><path d="m88 24v56 32h-136l-128-128v-8h24 192z"/><path d="m88 112v-32-56l-48-48h-192-24v8l128 128z"/><path d="m136 72 8 8h-56v-56z"/><path d="m88 80h56l-8-8-48-48z"/><path d="m-184 8-16-16v16z"/><path d="m-200-8 16 16h-16z"/><path d="m104 264h104v56h-136l-14-14 14-42z"/><path d="m208 320v-56h-104-32l-14 42 14 14z"/><path d="m176 144v-32h-88-136l96 96 32 32h96z"/><path d="m48 208-96-96h136 88v32 96h-96z"/><path d="m208 440v-120h-136l120 120z"/><path d="m208 320v120h-16l-120-120z"/><path d="m824-656v64z"/><path d="m-184 8-16-16 24 24 192 192 8 8z"/><path d="m48 208 32 32z"/><path d="m48-560 24-24-48 48z"/><path d="m-176-240v128 88 8-8-80z"/><path d="m304-584h32 40-72-8z"/><path d="m304-560h-32-184-8 96 96z"/><path d="m272-464v32 32 32z"/><path d="m272 80v-32 32 32 32z"/><path d="m312-392-8 24z"/><path d="m312 72-8-24z"/><path d="m368-560 88 88z"/><path d="m400-560 88 88z"/><path d="m696-400h8-144z"/><path d="m488-472 72 72-21.3334-21.3333z"/><path d="m824-272v-24 144z"/><path d="m696-328v-64 88 8z"/><path d="m696-296h8z"/><path d="m704-296h120z"/><path d="m824-304h-120z"/><path d="m648-312-80-80z"/><path d="m648-232v128 96-96z"/><path d="m624-304v64z"/><path d="m624-16-80 80z"/><path d="m824 176h-56z"/><path d="m512 264v-136 104 32 32z"/><path d="m456-248-24 8z"/><path d="m312-392 144 144z"/><path d="m304-368 128 128z"/><path d="m528-112v-32-32-32z"/><path d="m456-72-24-8z"/><path d="m432-208v32 32 32z"/><path d="m528-112h-32-32-32z"/><path d="m336-112-56 56z"/><path d="m376-24 56-56-72 72-56 56z"/><path d="m456-72-24 24-120 120z"/><path d="m512 80v16z"/><path d="m512 96-16 16-128 128z"/><path d="m304 240h64-96z"/><path d="m280-296h-8z"/><path d="m272 264h-64-104z"/><path d="m272 144h-32-32-32z"/><path d="m272-464h-32-8-24-32z"/><path d="m16-240-24-8z"/><path d="m232-368h40-32-8-24-32z"/><path d="m88-344 48-48-144 144z"/><path d="m168-296-80 80z"/><path d="m144-368-128 128z"/><path d="m16-208h-32-32z"/><path d="m-8-72 24-8z"/><path d="m16-112h-32-32z"/><path d="m136 72 8-24z"/><path d="m272 48h-32-32-32z"/><path d="m272-48h-96z"/><path d="m272-24h-104z"/><path d="m176 112v-32-32 32 32 32z"/><path d="m88 24-48-48-48-48 48 48 96 96z"/><path d="m72-24-56-56 128 128z"/><path d="m120-104 56 56z"/><path d="m-80-112v-64-32 32 32z"/><path d="m-48-208h-32z"/><path d="m-48-112h-32z"/><path d="m-160-320-16 16z"/><path d="m-200-312v48z"/><path d="m104 264h-32z"/><path d="m824-48v120 104-96z"/><path d="m824-272v120 48 56-56-80z"/><path d="m824-528v56 72 96-96-32z"/><path d="m376 264h-80z"/><path d="m568 72 56-56 24-24-104 104z"/><path d="m512 128-136 136z"/><path d="m544 96v80z"/><path d="m768 176h-144-80z"/><path d="m24 216 48 48z"/><path d="m304 240h-32-96-96 8 120z"/><path d="m704-304v-96z"/><path d="m296-584h-224 152z"/><path d="m-200-232v192 32-112z"/><path d="m24-536-200 200-24 24 24-24z"/><path d="m-176-272v-32 64z"/><path d="m80-560-32 32z"/><path d="m-48 112-128-128 136 136 88 88z"/><path d="m488-472-88-88-24-24 184 184z"/><path d="m696-400h-136 40z"/><path d="m696-392h-48-80z"/><path d="m624-240v32 104 88-88z"/><path d="m648-312v80z"/><path d="m368-560h-8-56z"/><path d="m592-336 32 32z"/><path d="m88-208v72 24 8-112z"/><path d="m168-24-80-80z"/><path d="m176-272-64 64z"/><path d="m112-208v96z"/><path d="m512 80h16z"/><path d="m272-24h8-32-80z"/><path d="m120-104-8-8 64 64z"/><path d="m360-104-80 80z"/><path d="m272-272h-96z"/><path d="m336-112v-96z"/><path d="m280-264 56 56-64-64z"/><path d="m512 264v32 144z"/><path d="m-208-560h-144v-96h144z"/><path d="m-208-656h-144v96h144z"/><path d="m-208-560h-144v120 96h144z"/><path d="m-352-440v-120h144v216h-144z"/><path d="m-208-344h-144v128 112l112 112h32z"/><path d="m-208 8h-32l-112-112v-112-128h144z"/><path d="m-208 8h-32l32 32z"/><path d="m-240 8h32v32z"/><path d="m-48 320v-120 120 120z"/><path d="m58 306-106-106v120h120z"/><path d="m-48 200 106 106 14 14h-120z"/><path d="m72 320h-120v120h224 16z"/><path d="m192 440h-16-224v-120h120z"/><path d="m-352-104v112h112z"/><path d="m-240 8h-112v-112z"/><path d="m-352 8h112z"/><path d="m-384 40h-192z"/><path d="m-384 8v32h-192v-32z"/><path d="m296-848h-144z"/><path d="m296-968v120h-144v-120z"/><path d="m256 648v64z"/><path d="m256 712h-64z"/><path d="m256 648v64h-64v-64z"/><path d="m-576 8v32z"/><path d="m296-848h-24-96-24z"/><path d="m296-968h-144z"/><path d="m152-968v120z"/><path d="m152-968v120-96z"/><path d="m296-848v-120z"/><path d="m296-848v-120h-144v120z"/><path d="m296-968v120h-144v-120z"/><path d="m-384 8v32z"/><path d="m-384 8h-192z"/><path d="m-384-24v32h-192v-32z"/><path d="m256 752h-64z"/><path d="m304 720v-128 160z"/><path d="m144 712h16v8 32h-16z"/><path d="m192 720h-32v-8h32z"/><path d="m160 712h-16v-64h48v64z"/><path d="m304 720v32h-16v-32z"/><path d="m256 712v8 32h-64v-32-8z"/><path d="m256 712v-64-56h48v128h-16-32z"/><path d="m256 592v56h-64-48v-56z"/><path d="m256 720h32z"/><path d="m256 752v-32z"/><path d="m192 648v64z"/><path d="m256 648h-64z"/><path d="m256 760v-8z"/><path d="m256 752v8h-64v-8z"/><path d="m256 760h-64z"/><path d="m-16 144-32-32-112-112-16-16 128 128 96 96z"/><path d="m-176-304v32 32z"/><path d="m-80-400 32-32 32-32 96-96-32 32-208 208z"/><path d="m368-560h-64z"/><path d="m-48-112v-32z"/><path d="m-48-176v-32z"/><path d="m272-400v-32-32 96z"/><path d="m272-432v-32z"/><path d="m272 80v-32z"/><path d="m272 112v-32-32 32 64z"/><path d="m272 144v-32z"/><path d="m304-368 8-24z"/><path d="m304 48 8 24z"/><path d="m368-560-29.3333 88h117.3333z"/><path d="m338.6667-472-24 72h213.3333l-72-72z"/><path d="m456-472 72 72z"/><path d="m544 96v80z"/><path d="m640 200h-96z"/><path d="m824-152v48 176-120-56z"/><path d="m624-104h-80v168l80-80z"/><path d="m640 72h8v-80l-80 80z"/><path d="m648-8v80h120 56v-176h-128-48z"/><path d="m624-104v-104h-80v104z"/><path d="m624-208v-32-64l-80 26.6667v37.3333 32z"/><path d="m544-277.3333 80-26.6667-80-80z"/><path d="m696-296v-8h-48v72 128h48z"/><path d="m824-152v-144h-120-8v192h128z"/><path d="m648-312v-80h-80z"/><path d="m696-392h-48v80 8h48z"/><path d="m704-400v96z"/><path d="m648-392h48-128z"/><path d="m648-304v-8 80z"/><path d="m648-8-24 24-56 56z"/><path d="m624-240v32 104 88-88-104z"/><path d="m544-384 80 80-32-32z"/><path d="m824 72v96 8z"/><path d="m568 72-24 24z"/><path d="m824 72h-56v96h56z"/><path d="m768 168v-96h-120-8v104h128z"/><path d="m768 168v8h56v-8z"/><path d="m640 176v24h-96v-24z"/><path d="m640 176v-104 128z"/><path d="m768 176h-128-96 80z"/><path d="m528-400 16 16z"/><path d="m432-240 24-8z"/><path d="m312-392 88 88 56 56z"/><path d="m312-392 144 144z"/><path d="m314.6667-400-2.6667 8 144 144 88-29.3333v-106.6667l-16-16z"/><path d="m360-216-80-80z"/><path d="m312-392-8 24 128 128 24-8z"/><path d="m304-368 8-24 144 144-24 8z"/><path d="m304-368-24 72 80 80 72-24z"/><path d="m304-368 128 128z"/><path d="m512 80h16z"/><path d="m544 64-16 16z"/><path d="m544-277.3333-88 29.3333-24 8h112z"/><path d="m432-240v32h32 32 32 16v-32z"/><path d="m544-208h-16v32 32 32 8h16z"/><path d="m464-144h32 32v-32h-32-32-32v32z"/><path d="m464-208v32h32v-32z"/><path d="m528-176v-32h-32v32z"/><path d="m496-176v-32h32v32z"/><path d="m464-176v-32h-32v32z"/><path d="m432-176v-32h32v32z"/><path d="m528-112h-32v-32h32z"/><path d="m528-144h-32v32h32z"/><path d="m512-104h16v-8h-32-32-32v8z"/><path d="m464-144v32h32v-32z"/><path d="m464-144h-32v32h32z"/><path d="m464-112h-32v-32h32z"/><path d="m544-104h-16-16v50.6667 133.3333h16l16-16z"/><path d="m432-48 24-24-24-8-72 72-56 56 8 24z"/><path d="m360-8 72-72 24 8-24 24-120 120-8-24z"/><path d="m512-53.3333-56-18.6667-24 24-120 120 2.6667 8h197.3333z"/><path d="m512-104h-80v24l24 8 56 18.6667z"/><path d="m432-208v32z"/><path d="m432-144v32z"/><path d="m528-144h-32z"/><path d="m464-176v-32z"/><path d="m496-208h32z"/><path d="m528-176v-32z"/><path d="m496-176h32z"/><path d="m464-208h-32z"/><path d="m496-144v32z"/><path d="m528-112v-32z"/><path d="m456-72-24 24z"/><path d="m432-104v-8-32-32-32-32l-72 24v112l72 24z"/><path d="m336-112-56 56z"/><path d="m528-176v32 32-96z"/><path d="m432-80 24 8z"/><path d="m432-144v-32-32 96z"/><path d="m464-112h32 32-96z"/><path d="m528-208h-32-32-32z"/><path d="m464-208h32 32-96z"/><path d="m360-216v112z"/><path d="m336-112v-96z"/><path d="m360-104-80 80z"/><path d="m360-8 72-72-56 56-72 72z"/><path d="m432-48 24-24-144 144z"/><path d="m368 240 128-128h-170.6667z"/><path d="m314.6667 80 10.6666 32h170.6667l16-16v-16z"/><path d="m280-56-8 8z"/><path d="m304 48-24-72h-8v72z"/><path d="m368 240-42.6667-128h-53.3333v32 96z"/><path d="m325.3333 112-10.6666-32-2.6667-8-8-24h-32v32 32z"/><path d="m312-392 2.6667-8 24-72 29.3333-88h-64-32v96 32 32 32h32z"/><path d="m272 240h-96-96 96z"/><path d="m240 144h32z"/><path d="m208 144h32 32-96z"/><path d="m176 144h32z"/><path d="m208-464h24 8 32-96z"/><path d="m272-464h-32z"/><path d="m208-464h-32z"/><path d="m208-464h24 8 32v-96h-96v96z"/><path d="m176-560h-96l32 96h64z"/><path d="m112-464-32-96-96 96z"/><path d="m16-240-24-8z"/><path d="m-8-248 24 8z"/><path d="m136-392 8 24z"/><path d="m144-368-8-24z"/><path d="m240-368h32z"/><path d="m208-368h24 8 32-40-56z"/><path d="m176-368h32z"/><path d="m176-400v32z"/><path d="m176-464v32z"/><path d="m176-400v-32-32 64 32z"/><path d="m176-464v32 32 32-32z"/><path d="m240-464v32z"/><path d="m240-432h32z"/><path d="m240-464h32v32h-32z"/><path d="m240-432h32v-32h-32z"/><path d="m272-432h-32v32h32z"/><path d="m240-368h32v-32h-32z"/><path d="m240-400h32v32h-32z"/><path d="m240-400v-32-32h-8v32 32 32h8z"/><path d="m232-464h-24v32h24z"/><path d="m208-432v-32h-32v32z"/><path d="m176-432v-32h32v32z"/><path d="m208-400h24v-32h-24-32v32z"/><path d="m208-400v32h24v-32z"/><path d="m176-368v-32h32v32z"/><path d="m208-368v-32h-32v32z"/><path d="m208-432v-32z"/><path d="m208-400h-32z"/><path d="m112-464 24 72 8 24h32v-32-32-32z"/><path d="m272-368h-32-8-24-32-32l24 72h104z"/><path d="m136-392-48 48-96 96z"/><path d="m136-392 8 24-128 128-24-8z"/><path d="m144-368-8-24-144 144 24 8z"/><path d="m144-368-56 56-72 72z"/><path d="m144-368-128 128z"/><path d="m136-392-24-72h-128l-32 32v170.6667l40 13.3333z"/><path d="m-16-208h32-64z"/><path d="m16-208h-32z"/><path d="m-48-208h32 32v-32l-24-8-40-13.3333z"/><path d="m16-80-24 8z"/><path d="m16-112v-32z"/><path d="m16-144v-32-32 96z"/><path d="m16-176v32 32-96z"/><path d="m16-176v-32z"/><path d="m-16-112h32z"/><path d="m-16-112h32-64z"/><path d="m-16-144v32z"/><path d="m-16-208v32z"/><path d="m-16-176h32z"/><path d="m-16-208h32v32h-32z"/><path d="m-16-176h32v-32h-32z"/><path d="m16-176h-32v32h32z"/><path d="m-16-144v32h32v-32z"/><path d="m16-144v32h-32v-32z"/><path d="m-16-144v-32-32h-32v32 32 32h32z"/><path d="m-48-58.6667 40-13.3333 24-8v-24h-64z"/><path d="m16-104v-8h-32-32v8z"/><path d="m144 48-8 24z"/><path d="m272 48h-32z"/><path d="m208 48h32 32-96z"/><path d="m208 144v-32z"/><path d="m240 112v32z"/><path d="m240 80h32z"/><path d="m240 80h32v-32h-32z"/><path d="m240 48h32v32h-32z"/><path d="m272 80h-32v32h32z"/><path d="m240 144h32v-32h-32z"/><path d="m240 112h32v32h-32z"/><path d="m240 112v-32-32h-32v32 32 32h32z"/><path d="m176 112v-32-32 32 32 32z"/><path d="m176 48v32z"/><path d="m176 144v-32z"/><path d="m208 112h-32z"/><path d="m208 80v-32h-32v32z"/><path d="m176 80v-32h32v32z"/><path d="m208 80h-32v32h32z"/><path d="m176 144v-32h32v32z"/><path d="m208 144v-32h-32v32z"/><path d="m176 144v-32h-53.3333l-10.6667 32z"/><path d="m176 112v-32-32h-32l-8 24-13.3333 40z"/><path d="m40-24-48-48 48 48 48 48 48 48z"/><path d="m16-80 56 56 72 72z"/><path d="m16-80 56 56 72 72z"/><path d="m40-24-48-48 24-8 128 128-8 24z"/><path d="m16-80-24 8 48 48 96 96 8-24z"/><path d="m122.6667 112h-170.6667l32 32h128z"/><path d="m-48 112h170.6667l13.3333-40-96-96h-88z"/><path d="m40-24-48-48-40 13.3333v34.6667z"/><path d="m48 208 32 32h96v-96h-64-128z"/><path d="m272 240v-96h-32-32-32v96z"/><path d="m-80-144v32z"/><path d="m-80-144v-32-32 32 64z"/><path d="m-80-208v32z"/><path d="m-48-208h-32z"/><path d="m-48-208h-32z"/><path d="m-48-432-32 32v128l32 10.6667z"/><path d="m-80-272v64h32v-53.3333z"/><path d="m-48-144h-32z"/><path d="m-80-176v-32h32v32z"/><path d="m-48-176v-32h-32v32z"/><path d="m-48-176h-32v32h32z"/><path d="m-48-112v-32h-32v32z"/><path d="m-80-112v-32h32v32z"/><path d="m-48-112h-32v8h32z"/><path d="m-48-112h-32z"/><path d="m-80-208v-64-128l-80 80v144h80z"/><path d="m-160-176v72h80v-8-32-32z"/><path d="m-160-24h8l104-34.6667v-45.3333h-32-80z"/><path d="m-48-58.6667-104 34.6667h104z"/><path d="m-160 0 112 112v-136h-104-8z"/><path d="m-176-24v8l16 16v-24z"/><path d="m-176-104v80h16v-80z"/><path d="m-160-176v-144l-16 16v64 136h16z"/><path d="m200-848h-16z"/><path d="m232-848h-16z"/><path d="m184-968h16z"/><path d="m216-968h16z"/><path d="m232-968v120z"/><path d="m264-968h-16v120h16z"/><path d="m200-968v120z"/><path d="m216-848v-120z"/><path d="m216-848h16v-120h-16z"/><path d="m184-848v-120z"/><path d="m184-848h16v-120h-16z"/><path d="m-80 440h-32z"/><path d="m112 440h-128-32z"/><path d="m176 440h-64-160z"/><path d="m400 440h-64-88-56-16 16 16z"/><path d="m336-816h-32-192z"/><path d="m-128-656h-224z"/><path d="m0-656h-128z"/><path d="m824-656h-152z"/><path d="m312-776 24-40h-224l24 40z"/><path d="m336-816 112 160z"/><path d="m136-776-24-40z"/><path d="m336-816-24 40z"/><path d="m112-816-112 160z"/><path d="m-352-488v48 176z"/><path d="m-352-488v-168 96 120z"/><path d="m-352-56v64z"/><path d="m-240 8 32 32 160 160z"/><path d="m824-656v64z"/><path d="m824-592v8z"/><path d="m824-584v24z"/><path d="m824-560v88-56z"/><path d="m824-472v72z"/><path d="m544 96v80 24z"/><path d="m640 72h-72z"/><path d="m824-400v96z"/><path d="m640 200v-128h-72l-24 24v104z"/><path d="m512 264v-32z"/><path d="m512 264-32 32h32z"/><path d="m512 264-32 32z"/><path d="m512 296v144z"/><path d="m480 296-144 144h64 112v-144z"/><path d="m336 440-24-40h-104l40 40z"/><path d="m312 400 24 40z"/><path d="m312 400h-104z"/><path d="m208 400h-56l40 40h56z"/><path d="m-312-240-40-24v48 112l30 30 10-6z"/><path d="m-312-80-10 6z"/><path d="m-48 200v120 120z"/><path d="m152 400h-16l-24 40h64 16z"/><path d="m-80 408v-208 208 32z"/><path d="m-80 408v32z"/><path d="m-352 8h112z"/><path d="m-240 8h-112z"/><path d="m-352-104v48l30-18z"/><path d="m-322-74-30 18z"/><path d="m-352 280h96z"/><path d="m-240 40 160 160z"/><path d="m-80 200-160-160z"/><path d="m-256 280v32z"/><path d="m-256 312h32z"/><path d="m-256 312h-96z"/><path d="m-352 280v32h96v-32z"/><path d="m-384-24v32z"/><path d="m-384-56v32h-192v-32z"/><path d="m-384-24h-192z"/><path d="m-352 72h-32z"/><path d="m-352 72h-32v208h32z"/><path d="m144 752h16z"/><path d="m304 752h-16z"/><path d="m336 560v192z"/><path d="m304 592v-32h32v192h-32z"/><path d="m144 592v56 64 40z"/><path d="m304 592h-48-112z"/><path d="m304 560v32h-160v-32z"/><path d="m112 752v-192z"/><path d="m112 560h32v32 160h-32z"/><path d="m896-272v32 88 32z"/><path d="m864 104h32z"/><path d="m896-272v152 16h-32v-168z"/><path d="m896-104v176h-32v-176z"/><path d="m896 72v32h-32v-32z"/><path d="m24 216 24 24 24 24z"/><path d="m24-536-176 176-8 8-16 16-24 24 24-24z"/><path d="m296-584h-192-32z"/><path d="m304-560h-32-96-96l24-24h192 8z"/><path d="m376-584 24 24h-32-64v-24z"/><path d="m376-584 24 24z"/><path d="m272-368v-32z"/><path d="m304-368 8-24z"/><path d="m312 72-8-24z"/><path d="m338.6667-472 29.3333-88h32l88 88z"/><path d="m538.6666-400h-10.6666-213.3333l24-72h149.3333l50.6666 50.6667z"/><path d="m560-400h-16-5.3334v-21.3333z"/><path d="m544-272v32z"/><path d="m640 72h-96z"/><path d="m864-272h-40z"/><path d="m864-104h-40v-168h40z"/><path d="m864 72h-40v-176h40z"/><path d="m768-272h-120-104z"/><path d="m824-272h-56z"/><path d="m704-304v-96z"/><path d="m704-304h120-24z"/><path d="m704-304h-128-32z"/><path d="m560-400h144v96h-160v-80-16z"/><path d="m824-104h-56-120v-136-32h120 56z"/><path d="m648-272v32h-104v-32z"/><path d="m648-240v136h-104v-136z"/><path d="m768 72h-128-96v-152-24h104 120z"/><path d="m824 72h-56v-176h56z"/><path d="m864 104h-96-128v-32h128 56 40z"/><path d="m640 104h128v96h-128z"/><path d="m528-400h10.6666 5.3334v16z"/><path d="m512 128-136 136z"/><path d="m512 232v-104z"/><path d="m456-248-24 8z"/><path d="m512-304v37.3333l-56 18.6667-56-56z"/><path d="m544-304h-32-112l-88-88 2.6667-8h213.3333l16 16z"/><path d="m512-304v32 5.3333z"/><path d="m304-368 32 32v40l-21 21-23 23-12-12v-32z"/><path d="m336-336-32-32 128 128z"/><path d="m432-240 24-8 56-18.6667v26.6667z"/><path d="m512-104v24 26.6667l-56-18.6667-24-8v-24z"/><path d="m432-48 24-24 56 18.6667v133.3333h-80z"/><path d="m528-104h16v24h-32v-24z"/><path d="m496-208v32h-32v-32z"/><path d="m496-208h-32-32v-32h80 16v32z"/><path d="m496-144v32h-32v-32z"/><path d="m528-144h-32-32-32v-32h32 32 32z"/><path d="m512-104h-80v-8h32 32 32v8z"/><path d="m544-104h-16v-8-32-32-32-32h16z"/><path d="m512-80h32z"/><path d="m432-144h32z"/><path d="m496-208v32z"/><path d="m464-176h-32z"/><path d="m432-112h32z"/><path d="m496-112h32z"/><path d="m464-112v-32z"/><path d="m432-80 24 8z"/><path d="m432-48-120 120z"/><path d="m314.6667 80-2.6667-8 120-120v128z"/><path d="m376-24 24-24 32-32-72 72-56 56z"/><path d="m325.3333 112-10.6666-32h117.3333 80v32z"/><path d="m325.3333 112h186.6667v16l-136 136z"/><path d="m512 112v-32 32 16z"/><path d="m376 264h-80-24z"/><path d="m272 112v-32-32h32l8 24 2.6667 8 10.6666 32z"/><path d="m272 240v-96-32h53.3333l50.6667 152h-104z"/><path d="m272-400v-32-32-96h32 64l-29.3333 88-24 72-2.6667 8-8 24h-32z"/><path d="m304-368-24 72-8 24v-96z"/><path d="m272-560v96h-32-32-32v-96z"/><path d="m80-560 32 96h-128z"/><path d="m80-560h96v96h-64z"/><path d="m136-392 8 24z"/><path d="m240-464v32 32 32h-32v-32-32-32z"/><path d="m240-432h32v32h-32z"/><path d="m176-432h32v32h-32z"/><path d="m176-464v32 32 32h-32l-8-24-24-72z"/><path d="m240-368v-32z"/><path d="m272-400h-32z"/><path d="m176-432h32z"/><path d="m208-400v32z"/><path d="m136-392-144 144z"/><path d="m88-312 56-56 16 48-37 37-11 11h-24z"/><path d="m88-312v40 42 14l-72-24z"/><path d="m112-464 24 72-144 144-40-13.3333v-170.6667l32-32z"/><path d="m-48-261.3333 40 13.3333 24 8v32h-32-32z"/><path d="m-8-72 24-8z"/><path d="m16-144h-32v-32h32z"/><path d="m-48-112v-32-32-32h32v32 32 32 8h-32z"/><path d="m-16-112h32v8h-32z"/><path d="m-16-104h32v24l-24 8-40 13.3333v-45.3333z"/><path d="m16-144h-32z"/><path d="m144 48-8 24z"/><path d="m208 48h-32z"/><path d="m136 72 8-24h32v32 32 32h-64z"/><path d="m208 112h-32v-32h32z"/><path d="m272 112h-32v-32h32z"/><path d="m208 112v-32-32h32v32 32 32h-32z"/><path d="m208 48v32z"/><path d="m240 80v-32z"/><path d="m272 112h-32z"/><path d="m176 80h32z"/><path d="m-8-72 48 48 96 96z"/><path d="m-48-58.6667 40-13.3333 144 144-24 72h-128l-32-32z"/><path d="m112 144-32 96-32-32-64-64z"/><path d="m176 144h32 32 32v96h-192l32-96z"/><path d="m272 240v24h-168l-24-24z"/><path d="m-48-261.3333-32-10.6667-80-26.6667v-21.3333l40-40 72-72z"/><path d="m-80-208v-64l32 10.6667v53.3333z"/><path d="m-160-298.6667 80 26.6667v64 32 32 32 8h-80z"/><path d="m-48-144h-32v-32h32z"/><path d="m-80-104v-8h32v8z"/><path d="m-80-176h32z"/><path d="m-48-112h-32z"/><path d="m-48-58.6667-112 37.3334v-82.6667h80 32z"/><path d="m-160-21.3333 112-37.3334v170.6667l-112-112z"/><path d="m24-536 48-48 8 24-96 96-32 32-72 72h-32z"/><path d="m-120-360-40 40v-32l8-8z"/><path d="m80-560-8-24h32z"/><path d="m-176-16 16-5.3333v21.3333z"/><path d="m-160-21.3333-16 5.3333v-88h16z"/><path d="m-176-112v-192l16 5.3333v194.6667h-16z"/><path d="m-160-320v21.3333l-16-5.3333v-32l16-16z"/><path d="m-200-264v-48l24-24v32 192h-24z"/><path d="m-176-112v8 88l-24-24v-72z"/><path d="m-200-264v152 72-192z"/><path d="m-200-40v32z"/><path d="m-176 16v-32l16 16 112 112 32 32 64 64h-32z"/><path d="m48 208v32l-24-24-8-8z"/><path d="m48 208 32 32-8 24-24-24z"/><path d="m104 264h-32l8-24z"/><path d="m-176-16v32l-24-24v-32z"/><path d="m264-848h-16z"/><path d="m248-968h16z"/><path d="m248-848v-120z"/><path d="m264-968v120z"/><path d="m248-848v-120h16v120z"/><path d="m232-848h-16v-120h16z"/><path d="m200-848h-16v-120h16z"/><path d="m112 440h32-32-128z"/><path d="m336 440h-32z"/><path d="m-576-56v32z"/><path d="m-576 40v-64 32z"/><path d="m176-944h-24v96h24z"/><path d="m272-848v32h-96v-32z"/><path d="m272-848h24v-96h-24z"/><path d="m176-944h96 24v-24h-144v24z"/><path d="m272-848v-96 96 32z"/><path d="m296-968h-144z"/><path d="m296-968v24 96z"/><path d="m928-472v168z"/><path d="m0-656h-128z"/><path d="m448-656h224z"/><path d="m672-656h152z"/><path d="m176-816h96 64l-24 40h-176l-24-40z"/><path d="m312-776h-176z"/><path d="m112-816-112 160z"/><path d="m896-120v192 32-32-176z"/><path d="m896-240v88z"/><path d="m928-304h-32z"/><path d="m928-472v168h-32v-168z"/><path d="m-352-488v224-176z"/><path d="m-352-656v168z"/><path d="m-352-232v32-16z"/><path d="m-352-56v64z"/><path d="m-352 312v-32z"/><path d="m-352 72v208z"/><path d="m896-272h-32z"/><path d="m896-304h-32v-96-72h32z"/><path d="m-240 8 192 192z"/><path d="m824-656v64z"/><path d="m824-592v8z"/><path d="m824-584v24z"/><path d="m856-472h8z"/><path d="m824-560v88z"/><path d="m824-472v40 32z"/><path d="m856-400v-32-40h8v72z"/><path d="m544-272v32z"/><path d="m544-48v-32 152z"/><path d="m824-304v-96h32v96z"/><path d="m864-304h-8v-96h8z"/><path d="m824-304h32z"/><path d="m576-304h-32z"/><path d="m824-400v96z"/><path d="m864 104h-96z"/><path d="m640 104v-32 32 96z"/><path d="m640 104h-96z"/><path d="m640 72v32h-96v-32z"/><path d="m512 264v32h-32z"/><path d="m512 128v104z"/><path d="m512-266.6667v-5.3333z"/><path d="m544-304h-32z"/><path d="m544-240h-16-16z"/><path d="m544-240h-32z"/><path d="m512-266.6667v26.6667z"/><path d="m512-240v-26.6667z"/><path d="m512-48v128-133.3333-26.6667z"/><path d="m512 80v-128 32z"/><path d="m344-24-8-24h24 40l-24 24z"/><path d="m360-104v-112z"/><path d="m360-104v96l72-72z"/><path d="m280-24 80-80z"/><path d="m360-104-80 80 24 72 56-56z"/><path d="m512 112v16z"/><path d="m512 112v-32z"/><path d="m280-24h-8z"/><path d="m280-296 24-72h-32v72z"/><path d="m272-296h-104 64z"/><path d="m168-296-24-72-128 128 72 24z"/><path d="m88-208v-8l-72-24v32z"/><path d="m88-216v8z"/><path d="m88-104v-104h-72v32 32 32 8 24z"/><path d="m88-208v104-8-24z"/><path d="m272-24h-104l-24 72h32 32 32 32z"/><path d="m88-104 80 80z"/><path d="m168-24-80-80-72 24 128 128z"/><path d="m512 296v144h-176l144-144z"/><path d="m312 400 24 40h-32-32-24l-40-40z"/><path d="m480 296-144 144z"/><path d="m248 440h-56l-40-40h56z"/><path d="m208 400h-56z"/><path d="m-352-120v-80-32-32l40 24v152h-24l-16-16z"/><path d="m-312-88v8l-10 6-14-14z"/><path d="m-312-88v-152 160z"/><path d="m-352-264 40 24z"/><path d="m-48 200v240z"/><path d="m192 440h-16-32-32l24-40h16z"/><path d="m152 400h-16z"/><path d="m136 400-24 40z"/><path d="m-80 200v208z"/><path d="m-240 40h-112z"/><path d="m-240 40h-112z"/><path d="m-336-88h-16v-16z"/><path d="m-322-74-30 18v-32h16z"/><path d="m-240 40 160 160z"/><path d="m-256 280v32z"/><path d="m-256 312h-96v-32h96z"/><path d="m-512-360h-24-8z"/><path d="m-432-360h-8-72 96z"/><path d="m-384-360h-32z"/><path d="m-512-56h128-192z"/><path d="m-384-56h32z"/><path d="m-432-344h-8v-8-8h8z"/><path d="m-544-328v-32h8v8 96 8h-8z"/><path d="m-536-352v-8h24 72v8z"/><path d="m-432-248v-96-16h16 32v32 64 32 32 64h-48z"/><path d="m-384-136v16 16h-48v-32z"/><path d="m-352-200v80h-32v-16-64z"/><path d="m-352-232h-32v-32h32z"/><path d="m-544-104v-144h8 96 8v112 32z"/><path d="m-536-248v-8h96v8z"/><path d="m-440-256v-88h8v96h-8z"/><path d="m-352-56h-32-128v-32h128 32z"/><path d="m-512-88h-32v-16h112 48v16z"/><path d="m-544-88h32z"/><path d="m-384-360v32z"/><path d="m-384-200v-32z"/><path d="m-384-264v-64z"/><path d="m-384-104v-16 32z"/><path d="m-352-200h-32z"/><path d="m-384-232h32z"/><path d="m-352-264h-32z"/><path d="m-512-88v32z"/><path d="m-536-352h96l-16 16h-64z"/><path d="m-440-352v8 88l-16-16v-64z"/><path d="m-536-352 16 16v64l-16 16z"/><path d="m-384 40v-32-32-32z"/><path d="m-384 40v-96z"/><path d="m-384 280v-208z"/><path d="m-384 72v-32z"/><path d="m-352 280h-32z"/><path d="m-384 280v-208h32v208z"/><path d="m432 720v32z"/><path d="m16 752v-32z"/><path d="m16 720v-128z"/><path d="m16 592v-32z"/><path d="m112 560h-64 96z"/><path d="m144 560h32z"/><path d="m144 560h32 96 32 32-32-160-32z"/><path d="m400 560h32z"/><path d="m304 560h-32z"/><path d="m192 440h56 24v32 56 32h-96v-32-56-32z"/><path d="m272 560v-32z"/><path d="m48 752h-32z"/><path d="m336 752h-32z"/><path d="m432 752h-32z"/><path d="m336 752h64z"/><path d="m400 560h32v32 128 32h-32-64v-192z"/><path d="m112 752h-64-32v-32-128-32h32 64z"/><path d="m336-296v-40l96 96-61.5 20.5-32.5-32.5-2-2z"/><path d="m112-24h56l-24 72-72-72z"/><path d="m280-264 56 56z"/><path d="m336-48-4.5-13.5 7.5-7.5 21 21z"/><path d="m336-112-20 20-23 23-13 13z"/><path d="m336-208v96z"/><path d="m336-208v96z"/><path d="m272-272 8 8z"/><path d="m280-264-8-8z"/><path d="m272-272h-96z"/><path d="m112-208 64-64z"/><path d="m160-320 16 48-21 21-23-23-9-9z"/><path d="m112-272 11-11 9 9-2 2z"/><path d="m112-272h18l-21 21-21 21v-42z"/><path d="m112-112v-96z"/><path d="m112-112 8 8z"/><path d="m272-48h-96z"/><path d="m120-104 56 56-20-20-23-23z"/><path d="m370.5-219.5-34.5 11.5-21-21 23-23z"/><path d="m315-275 21-21v42z"/><path d="m315-275-23 23z"/><path d="m336-254 2 2-23-23z"/><path d="m316-46 15.5-15.5 4.5 13.5 8 24h-50z"/><path d="m316-46-23-23z"/><path d="m130-272 2-2-23 23z"/><path d="m110-68 23 23-21 21h-40l-56-56 61.5-20.5z"/><path d="m133-45 23-23 20 20-8 24h-56z"/><path d="m928-472v168z"/><path d="m928-472h-32z"/><path d="m896-472h32z"/><path d="m896-472h-32z"/><path d="m864-472h32z"/><path d="m864-472h-8z"/><path d="m544-48v-32z"/><path d="m544-16v-32 120 32z"/><path d="m704 200h-32-32z"/><path d="m768 200h-32z"/><path d="m736 200h-32-64 128z"/><path d="m640 168v-32-32 96z"/><path d="m640 136h-96z"/><path d="m640 104v32h-96v-32z"/><path d="m280-24h14 50 32l-72 72z"/><path d="m280-24-8-24 8-8z"/><path d="m88-216 24 8h-96v-32z"/><path d="m292-252 23 23 21 21-56-56z"/><path d="m336-112 96 32-32 32h-40l-21-21-23-23z"/><path d="m293-69 23 23-22 22h-14v-32z"/><path d="m336-112v-96l34.5-11.5 61.5-20.5v32 32 32 32 8 24z"/><path d="m280-264-8-8 8-24z"/><path d="m280-56-8 8z"/><path d="m272-48 8 24 24 72h-32z"/><path d="m272-272h-96z"/><path d="m272-272h-96l-16-48-16-48h32 32 32 32z"/><path d="m132-228 23-23 21-21-64 64z"/><path d="m155-251-23 23z"/><path d="m132-228-20 20-24-8v-14l21-21z"/><path d="m112-208v96z"/><path d="m112-208v96l-24 8-10.5 3.5-61.5 20.5v-24-8-32-32-32z"/><path d="m112-112 8 8h-32z"/><path d="m112-112 8 8z"/><path d="m272-48v96h-32-32-32-32l24-72 8-24z"/><path d="m120-104 13 13-23 23-32.5-32.5 10.5-3.5z"/><path d="m112 440h32z"/><path d="m112 440h-128z"/><path d="m304 440h-32z"/><path d="m544-16v-32z"/><path d="m544-16v120 32z"/><path d="m640 136v32z"/><path d="m640 168h-96z"/><path d="m640 136v32h-96v-32z"/><path d="m512-272v-32z"/><path d="m512-272v-32z"/><path d="m512-304h32z"/><path d="m544-304h-32z"/><path d="m544-16v152 32z"/><path d="m640 200h-96z"/><path d="m640 200v-32z"/><path d="m640 168v32h-96v-32z"/><path d="m292-252 23 23z"/><path d="m315-275-23 23z"/><path d="m338-252-23 23z"/><path d="m338-252-23-23z"/><path d="m339-69-23-23z"/><path d="m316-92 23 23z"/><path d="m293-69 23-23z"/><path d="m316-92-23 23z"/><path d="m339-69-23 23z"/><path d="m316-46 23-23-7.5 7.5z"/><path d="m316-46-23-23z"/><path d="m132-274 23 23z"/><path d="m132-228-23-23z"/><path d="m132-274-23 23z"/><path d="m156-68-23-23z"/><path d="m133-91 23 23z"/><path d="m133-45 23-23z"/><path d="m156-68-23 23z"/><path d="m110-68 23-23z"/><path d="m133-91-23 23z"/><path d="m133-45-23-23z"/><path d="m110-68 23 23z"/><path d="m304 440h32z"/><path d="m336 440h176-112z"/><path d="m624 296h16z"/><path d="m544 264v-64z"/><path d="m640 200v96h-16-48-32v-32-64z"/><path d="m512 80v-96-32z"/><path d="m512-16v-32z"/><path d="m512-16v96z"/><path d="m512 80v32z"/><path d="m512 112v-32z"/><path d="m256 752h-64z"/><path d="m192 720h-32z"/><path d="m192 720h64 32-128z"/><path d="m192 752v-32z"/><path d="m256 752v-32h-64v32z"/><path d="m160 720v32z"/><path d="m256 760v-8z"/><path d="m192 760v-8z"/><path d="m256 752v8h-64v-8z"/><path d="m256 760v-8h-64v8z"/><path d="m256 760h-64z"/><path d="m624 296h-48z"/><path d="m640 296v-96z"/><path d="m640 200h32v96h-32z"/><path d="m292-252 23 23z"/><path d="m338-252-23 23z"/><path d="m155-251-23 23z"/><path d="m132-274 23 23z"/><path d="m132-228-23-23z"/><path d="m110-68 23-23-3 3z"/><path d="m928-472v168z"/><path d="m896-472h-32z"/><path d="m672 296h32z"/><path d="m672 296h-48 16z"/><path d="m864-472h-8z"/><path d="m856-400h-32z"/><path d="m824-400v-32z"/><path d="m824-400v-32z"/><path d="m856-472v40z"/><path d="m856-432v32z"/><path d="m672 200h32z"/><path d="m824-304v-96z"/><path d="m856-400v96z"/><path d="m824-304h32v-96h-32z"/><path d="m824-304h-24z"/><path d="m704 296h-32v-96h32z"/><path d="m672 296v-96z"/><path d="m160 752h-48 32z"/><path d="m256 752h-64z"/><path d="m192 752h64 32-48-80z"/><path d="m288 720v32h-32-64-32v-32z"/><path d="m288 752v-32z"/><path d="m192 752v8z"/><path d="m256 760v-8h-64v8z"/><path d="m928-472h-32z"/><path d="m928-472h-32v168h32z"/><path d="m896-304h-32z"/><path d="m896-472h-32v72 96h32z"/><path d="m824-592v8z"/><path d="m824-584v24z"/><path d="m824-560v88z"/><path d="m824-472v40z"/><path d="m864-472h-8v40 32h8z"/><path d="m856-432v32z"/><path d="m736 200h-32z"/><path d="m856-400v96h8v-96z"/><path d="m864-304h-8z"/><path d="m704 296v-96z"/><path d="m736 296h-32v-96h32z"/><path d="m-576 440h32z"/><path d="m-112 440h32-48z"/><path d="m-48 440h32z"/><path d="m-112 440h-16-96z"/><path d="m176 440h-32z"/><path d="m176 440h96 32-128-32z"/><path d="m-576-8v-48 32 64z"/><path d="m-576 40v144z"/><path d="m-576 216v192 32-64z"/><path d="m-576-8v48 144 32-48z"/><path d="m-576 408v32z"/><path d="m176-816h-64z"/><path d="m336-816h-64z"/><path d="m272-944h-96z"/><path d="m176-848v-96 96 32z"/><path d="m176-944v96z"/><path d="m272-848h-96z"/><path d="m272-816v-32h-96v32z"/><path d="m-352-656h144 80z"/><path d="m336-816 112 160z"/><path d="m-352-656v168z"/><path d="m-352-216v16 80 32 32 64z"/><path d="m-352-440v176 32 16z"/><path d="m-352-120v16 16z"/><path d="m-240 8 192 192z"/><path d="m736 296h-32z"/><path d="m544-272h224z"/><path d="m736 296v-96z"/><path d="m768 296v-96z"/><path d="m736 200h32v96h-32z"/><path d="m512-272v5.3333z"/><path d="m512-80v32z"/><path d="m544-80h-32z"/><path d="m544-240h-32v160h32z"/><path d="m-48 200v240z"/><path d="m-80 408v-208 96 144z"/><path d="m-80 440v-32z"/><path d="m-240 40h-112z"/><path d="m-352 8h112z"/><path d="m-240 8h-112z"/><path d="m-352 312h96v-32h-96z"/><path d="m-240 40 32 32 128 128z"/><path d="m-224 280v32z"/><path d="m-224 280h-32z"/><path d="m-224 312v-32z"/><path d="m-352-232v-32h-32v32z"/><path d="m-352-120v-80h-32v64 16z"/><path d="m-352-56v-32h-32v32z"/><path d="m-352 280v-208h-32v16 192z"/><path d="m-352 312h-32z"/><path d="m-512-88v32z"/><path d="m-384-200v-32-32-64-32 224z"/><path d="m-576-56h64z"/><path d="m-544-88h32z"/><path d="m-544-312v224-48z"/><path d="m-512-56h-64z"/><path d="m-352-88h-32z"/><path d="m-384-120h32z"/><path d="m-544-360v32z"/><path d="m-544-312v-16 80 144 16z"/><path d="m-352 72h-32z"/><path d="m432 720v-128z"/><path d="m432 592v-32z"/><path d="m432 720v-128-32 192z"/><path d="m16 592v128 32-192z"/><path d="m48 560h-32z"/><path d="m400 560h-64-32z"/><path d="m272 560v-32h-96v32z"/><path d="m272 472v-32h-96v32z"/><path d="m272 528v-56z"/><path d="m272 528h-96z"/><path d="m272 472v56z"/><path d="m272 440v32z"/><path d="m176 528v-56z"/><path d="m176 560v-32z"/><path d="m176 472v-32z"/><path d="m112 752h-64z"/><path d="m288 752h16 32 64 32-192z"/><path d="m-352 440h-224 32 160z"/><path d="m-128 440h-80-144 128z"/><path d="m112 440h32z"/><path d="m304 440h32z"/><path d="m512 440h-112z"/><path d="m-576-56v48z"/><path d="m336-816h-64-96-64z"/><path d="m272-944h-96z"/><path d="m272-848v-96z"/><path d="m272-848v-96h-96v96z"/><path d="m-352-216v224-112z"/><path d="m-352-440v224-88z"/><path d="m-352-656v168 48z"/><path d="m-352 40v32 208z"/><path d="m864 296v-96 64z"/><path d="m-240 8 192 192z"/><path d="m-48 200-64-64-96-96-32-32z"/><path d="m768 296h-32z"/><path d="m576 296h-32z"/><path d="m544-272v32 160 32z"/><path d="m544 40v160 64z"/><path d="m544 40v-56 184 32z"/><path d="m768 200h96z"/><path d="m864 296h-96v-96h96z"/><path d="m512 128v168-32-32z"/><path d="m512-272v5.3333z"/><path d="m512-266.6667v26.6667z"/><path d="m512-240v96 96-32z"/><path d="m133-91-3 3z"/><path d="m512 296v144z"/><path d="m-48 200v240z"/><path d="m-240 8h-112z"/><path d="m-80 296v-96l-128-128v208 16z"/><path d="m-208 376v64h80 48v-144h-128z"/><path d="m-208 376v-80-16h-16v32 64z"/><path d="m-240 40h-112v240h128 16v-208z"/><path d="m-352 376h128v-64h-128z"/><path d="m-208 440v-64h-16-128v64z"/><path d="m-352 280h96 32z"/><path d="m-224 312h-32-96z"/><path d="m-384-360h-32-96-32z"/><path d="m-384-360h-160v48 176h160z"/><path d="m-544-136v48h32 128v-48z"/><path d="m-512 168v-32-192h-64v48 176z"/><path d="m-576 216v160h64v-208h-64z"/><path d="m-384 136v-48-176h-128v32 192z"/><path d="m-512 168v208h128v-64-176h-128z"/><path d="m-384 312v64h32v-64z"/><path d="m-352 376h-32-128-64v64h224z"/><path d="m-384 88v48 176-32z"/><path d="m-384-136v48 176-16-32-96-32-32z"/><path d="m-544-360v32 16z"/><path d="m176 560h-32z"/><path d="m144 560h-96-32z"/><path d="m304 560h-32z"/><path d="m432 560h-32-96z"/><path d="m240 560h32-96z"/><path d="m176 472v56z"/><path d="m272 472h-96z"/><path d="m272 528v-56h-96v56z"/><path d="m240 752h-224 32 64 48z"/><path d="m240 560h-64-32-128v192h224z"/><path d="m432 752v-192h-128-32-32v192z"/><path d="m896 72v32z"/><path d="m896-152v32 192-192z"/><path d="m896-152v-88-32 152z"/><path d="m896-272v32z"/><path d="m864 264v-64z"/><path d="m864 168v32z"/><path d="m864-272h32z"/><path d="m896 104h-32z"/><path d="m864 104h32z"/><path d="m832 296h32z"/><path d="m832 296h-64z"/><path d="m832 296h-64 96z"/><path d="m704 296h-128 48 48z"/><path d="m544-104v-168 224z"/><path d="m544-16v56z"/><path d="m544 40v224-128z"/><path d="m544 296v-32z"/><path d="m768-272h-224 80 64 64z"/><path d="m864-272h-96z"/><path d="m768-272h96-40z"/><path d="m800-304h-32-192 128z"/><path d="m800-304h24-56z"/><path d="m576-304h-32z"/><path d="m768 104v64 32z"/><path d="m768 104v32 32z"/><path d="m768 200v-32h96v32z"/><path d="m864 168h-96z"/><path d="m544-304h-32z"/><path d="m272-112v-96z"/><path d="m544-104v56 32 56z"/><path d="m280-216h-8z"/><path d="m280-104v-8h-8v8z"/><path d="m280-216h-8v8 96h8z"/><path d="m272-208v-8h-77.3333l2.6666 8z"/><path d="m194.6667-216h-18.6667v8h21.3333z"/><path d="m176-216h-8v8h8z"/><path d="m168-216v8z"/><path d="m168-208v18.6667l8 2.6666v-21.3333z"/><path d="m168-189.3333v58.6666l8-2.6666v-53.3334z"/><path d="m176-186.6667v53.3334z"/><path d="m272-112h-96z"/><path d="m176-133.3333v21.3333z"/><path d="m168-130.6667v18.6667h8v-21.3333z"/><path d="m168-104h8 32 64z"/><path d="m272-112h-96-8v8h104z"/><path d="m176 440h-224 32 128 32z"/><path d="m400 440h-72-80-56-16 128 32z"/><path d="m232-816h104-224z"/><path d="m-128-656h80 48z"/><path d="m448-656h224z"/><path d="m672-656h152z"/><path d="m22.4-688-22.4 32h88v-32z"/><path d="m232-688h-144v32h144z"/><path d="m232-816h-120l-89.6 128h65.6 144z"/><path d="m448-656-112-160h-104v128 32z"/><path d="m0-656 22.4-32 89.6-128z"/><path d="m896-120v16 208-32z"/><path d="m-352-528v-128 216z"/><path d="m864 168v-32 64z"/><path d="m896-272h-32z"/><path d="m896-104v-16-152h-32v168z"/><path d="m864 104h32v-208h-32z"/><path d="m-208 8v32-128z"/><path d="m824-656v64z"/><path d="m672-656h-224v64h224z"/><path d="m824-592v-64h-152v64z"/><path d="m448-656h-216v64h216z"/><path d="m88-656v32 32h144v-64z"/><path d="m24-624h64v-32h-88-48v32z"/><path d="m24-592h64v-32h-64z"/><path d="m24-624h-72v32h72z"/><path d="m-48-592v-32-32h-80-80v64z"/><path d="m-160-172v24z"/><path d="m-160-216v16 8z"/><path d="m88-584v-8z"/><path d="m824-592v8z"/><path d="m672-592h-224v8h224z"/><path d="m824-584v-8h-152v8z"/><path d="m232-592v8h216v-8z"/><path d="m88-592v8h16 128v-8z"/><path d="m824-584v24z"/><path d="m88-560v-8z"/><path d="m672-584h-224v24h224z"/><path d="m824-560v-24h-152v24z"/><path d="m232-584v24h216v-24z"/><path d="m88-568v8h144v-24h-128z"/><path d="m176-104h-8-22l-13 13 23 23 20 20z"/><path d="m130-88 3-3 13-13h-66-96-32v16z"/><path d="m208-48v-56h-32v56 184h24 8z"/><path d="m200 136h-24-200l160 160h64z"/><path d="m424 136h-160-32-24-8v160h128 96z"/><path d="m512 296v-160h-24-64v160z"/><path d="m264 136v-184h-32v184z"/><path d="m316-92 4 4h192v-16h-48-96-40z"/><path d="m293-69 23-23 12-12h-48-8-64v56h24 32 8z"/><path d="m864 168h-96v-32h96z"/><path d="m768 104v-160h-112v192h112z"/><path d="m656-56h112v-48h-16-64-64-16-64v48z"/><path d="m768-104v48 160h96v-208z"/><path d="m-16-128v-20-24-20-24h-32v112h32z"/><path d="m-16-148v20h96v-20z"/><path d="m-16-172h96v-20h-96z"/><path d="m168-112v-18.6667-58.6666-18.6667-8h-48-40v24 20 24 20 24h66 22z"/><path d="m-16-216h96 40l12-12-4-4h-176v16z"/><path d="m208-464h-32v192h32z"/><path d="m208-528h-120-40l-64 64h104 88 32z"/><path d="m232-464v-32-32h-24v64z"/><path d="m88-560v32h120 24v-32z"/><path d="m328-104h40v-24-20-24-20-16h-32-56v104z"/><path d="m168-216h26.6667 77.3333 8v-48l-8-8h-8-32-24-32l-21 21-23 23-12 12z"/><path d="m318-232-3 3 21 21h32v-8-16z"/><path d="m315-229-23-23-12-12v48 8h56z"/><path d="m368-128h96v-20h-96z"/><path d="m464-172v-20h-96v20z"/><path d="m464-216v-16h-96v16z"/><path d="m544-128h64v-20h-64z"/><path d="m608-192h-64v20h64z"/><path d="m624-216h-16v24 20 24 20 24h16z"/><path d="m512-144v-88h-48v16 24 20 24 20 24h48z"/><path d="m544-216h64 16v-56h-80z"/><path d="m264-464v-32h-32v32 192h32z"/><path d="m752-128h-64v24h64z"/><path d="m688-128v-64-80h-64v56 112h64z"/><path d="m752-272h-64v80h64z"/><path d="m488-496h-40-184v32h224z"/><path d="m656-464v-32h-168v32z"/><path d="m768-304h56v-96-72-24h-152-16v32 160z"/><path d="m864-272h-96-16v80 64 24h16 96z"/><path d="m232-560v32 32h32 184v-64z"/><path d="m672-560h-224v64h40 168 16z"/><path d="m824-496v-64h-152v64z"/><path d="m656-464v32 80 32 16z"/><path d="m752-192h-64z"/><path d="m688-192v64z"/><path d="m752-128v-64z"/><path d="m320-88h192z"/><path d="m608-216h-64z"/><path d="m544-304h112-8-136z"/><path d="m488-464h-224 32z"/><path d="m368-232h96 48-48-96-50z"/><path d="m280-264 12 12-12-12-8-8z"/><path d="m318-232 20-20z"/><path d="m264-272h8z"/><path d="m208-272h24z"/><path d="m232-464h-24z"/><path d="m232-464v192z"/><path d="m368-104h96z"/><path d="m544-104h64z"/><path d="m368-128v24z"/><path d="m368-172v24z"/><path d="m368-216v8 16z"/><path d="m464-192v-24z"/><path d="m464-148v-24z"/><path d="m464-104v-24z"/><path d="m608-172h-64z"/><path d="m608-192v-24z"/><path d="m544-216v24z"/><path d="m544-192h64z"/><path d="m544-148h64z"/><path d="m544-172v24z"/><path d="m608-148v-24z"/><path d="m544-128v24z"/><path d="m608-104v-24z"/><path d="m464-192h-96z"/><path d="m464-148h-96z"/><path d="m464-128h-96z"/><path d="m272-112h-96z"/><path d="m272-208v96z"/><path d="m264 136v-184z"/><path d="m512 136h-24z"/><path d="m339-69-19-19z"/><path d="m272-48h-8z"/><path d="m232-48h-24z"/><path d="m208 136h24z"/><path d="m208 136v-16-168z"/><path d="m-16-216h96z"/><path d="m88-528v-32z"/><path d="m48-528h40z"/><path d="m128-232h-144-32z"/><path d="m176-272-8 8-13 13z"/><path d="m109-251 19 19z"/><path d="m-16-172h96z"/><path d="m80-192v-24z"/><path d="m80-148v-24z"/><path d="m-16-128v24z"/><path d="m-16-172v24z"/><path d="m80-128h-96z"/><path d="m80-104h-64-32z"/><path d="m176 136h-32-72-32-64z"/><path d="m280-208v-8 104 8z"/><path d="m824-560v64 24z"/><path d="m824-472v72-32z"/><path d="m544-128v-20-24-20-24-56 168z"/><path d="m544-56v-48 144 96z"/><path d="m544 136v128 32z"/><path d="m824-400v96z"/><path d="m768-304h-112-112 32z"/><path d="m768 104h96z"/><path d="m512 128v8 160z"/><path d="m292-252 23 23z"/><path d="m512-304v32z"/><path d="m292-252 23-23z"/><path d="m315-229 3-3 20-20z"/><path d="m315-275 23 23z"/><path d="m512-266.6667v26.6667z"/><path d="m512-144v40 16 168-128z"/><path d="m512-240v8 88z"/><path d="m339-69-19-19-4-4z"/><path d="m316-92-23 23z"/><path d="m339-69-23 23z"/><path d="m316-46-23-23z"/><path d="m512 80v48-16z"/><path d="m272-104h8z"/><path d="m272-208h-74.6667-21.3333z"/><path d="m272-216h-77.3333z"/><path d="m132-228 23-23z"/><path d="m194.6667-216h-26.6667 8z"/><path d="m132-274 23 23z"/><path d="m109-251 19 19 4 4z"/><path d="m109-251 23-23z"/><path d="m176-208v21.3333z"/><path d="m168-208v18.6667z"/><path d="m168-189.3333v58.6666z"/><path d="m168-130.6667v18.6667z"/><path d="m168-112v8z"/><path d="m156-68-23-23z"/><path d="m156-68-23 23z"/><path d="m110-68 20-20z"/><path d="m133-45-23-23z"/><path d="m-64-148h-96v20h96z"/><path d="m-160-192v20h96v-20z"/><path d="m-48-216h-16v24 20 24 20 24h16z"/><path d="m-48-232h-112v16h96 16z"/><path d="m-64-172h-96z"/><path d="m-64-192v-24z"/><path d="m-160-192h96z"/><path d="m-64-216h-96z"/><path d="m-64-148v-24z"/><path d="m-64-128h-96z"/><path d="m-48-88h-112z"/><path d="m-48-104h-16-96v16h112z"/><path d="m48-528h-24-8l-64 64h32z"/><path d="m16-528h8v-8z"/><path d="m88-584v16l16-16z"/><path d="m24-536v8z"/><path d="m88-568v-16z"/><path d="m24-528h24z"/><path d="m-16-464h-32z"/><path d="m-160-88h-16z"/><path d="m-160-104h-16v16h16z"/><path d="m-176-104h16v-24-20-24-20-8h-16z"/><path d="m-160-216v-16h-16v32h16z"/><path d="m-176-88h-32z"/><path d="m-176-232h-32v32h32z"/><path d="m-208-104h32v-96h-32z"/><path d="m-176-104h-32v16h32z"/><path d="m-48-464h-160z"/><path d="m16-528h-64-160v64h160z"/><path d="m-208-528h160v-64h-160z"/><path d="m-48-592v64h64l8-8v-56z"/><path d="m-24 136h-24v8l152 152h32z"/><path d="m-48 144v-8h-8z"/><path d="m512 296v144z"/><path d="m328 296h-128-64-32l72 72 72 72h80z"/><path d="m400 440h112v-144h-88-96v144z"/><path d="m-48 200v-56l-8-8h-56z"/><path d="m104 296-152-152v56l168 168h56z"/><path d="m120 368 56 56v-56z"/><path d="m176 424 16 16h56l-72-72z"/><path d="m-352-656v128h112 32v-64-64z"/><path d="m-208-528h-32v64h32z"/><path d="m-240-464v-64h-112v88 136h112z"/><path d="m-352-304v88 112h112v-96-40-64z"/><path d="m-208-464h-32v160 64h32z"/><path d="m-240-240v40h32v-32-8z"/><path d="m-240-200v96h32v-96z"/><path d="m-208 8v-96-16h-32-112l112 112z"/><path d="m-240 8 32 32v-32z"/><path d="m-48 200v240z"/><path d="m176 424-56-56-168-168v240h224 16z"/><path d="m-352-104v112h112z"/><path d="m80-592h8-64z"/><path d="m88-584v-8h-8l-8 8z"/><path d="m88-560v-8l-8 8z"/><path d="m688-128h64z"/><path d="m752-192h-64v64h64z"/><path d="m48-528h40v-32h-8z"/><path d="m24-528h24l32-32 8-8v-16h-16l-48 48z"/><path d="m24-592v56z"/><path d="m72-584 8-8h-56v56z"/><path d="m88-592v8z"/><path d="m72-584 8-8h8v8z"/><path d="m80-560 8-8v8z"/><path d="m688-192h64z"/><path d="m688-192v64z"/><path d="m752-128v-64z"/><path d="m688-128v-64h64v64z"/><path d="m88-528h-40z"/><path d="m88-528h-40l32-32h8z"/><path d="m24-536v8z"/><path d="m80-560-32 32h-24v-8l48-48h16v16z"/><path d="m72-584-48 48v-56h56z"/><path d="m976-400v24z"/><path d="m-448 248v-8h64v8z"/><path d="m-384 240h-64v-32h64z"/><path d="m-544 208v-96-32l32-32h32v160 32h-32-32z"/><path d="m-352 208v-160h32l32 32v32 96 32h-32-32z"/><path d="m40 168v144h-56-32v-32-112-32h24 64z"/><path d="m40 312v-144h32 72 32 32v144z"/><path d="m-208 136v-96l96 96z"/><path d="m133-45-23-23 20-20h6l20 20z"/><path d="m-48-88h-112-16-32v-16h48 96 48 32v16z"/><path d="m16-104h64 40l16 16h-6-114z"/><path d="m156-68-20-20-16-16h48 8v56z"/><path d="m176-48v-56h32v56 168h-32z"/><path d="m208 120v16 32h-32v-32-16z"/><path d="m264 168v112 32h-32-24v-144-32h24 32z"/><path d="m339-69-23 23-23-23 19-19h8z"/><path d="m232 136v-184h32v184z"/><path d="m312-88-19 19-21 21h-8-32-24v-56h72 48z"/><path d="m528-72h16v16h-16z"/><path d="m536-88h-24-192-8l16-16h40 96 72z"/><path d="m544-104h64 48v16h-120v-16z"/><path d="m656-72v-16h16v16z"/><path d="m864 104v32h-96v-32z"/><path d="m-480-200v-32h32 96v144 32 48h-128z"/><path d="m-352-8v24 32 160h-32-64-32v-160-32-24z"/><path d="m-352-232h112v32 80 32h-80-32z"/><path d="m-208-200v80h-32v-80z"/><path d="m-208-120v-80-32h32 16v16 24 20 24 20 24h-48z"/><path d="m-64-172h-96v-20h96z"/><path d="m-160-128v-20h96v20z"/><path d="m-64-216h-96v-16h96z"/><path d="m-16-216v24 20 24 20 24h-48v-24-20-24-20-24-16h16 32z"/><path d="m80-128h-96v-20h96z"/><path d="m80-192v20h-96v-20z"/><path d="m80-128v-20-24-20-24h88v104 8h-48-40z"/><path d="m128-232h8 32v16h-88-96v-16z"/><path d="m136-232 19-19 13-13v32z"/><path d="m168-216h8v8 96h-8z"/><path d="m132-274 23 23-19 19h-8l-19-19z"/><path d="m176-272v-192h32v192z"/><path d="m24-528h24 40 88v32h-32-128v-32z"/><path d="m176-496v-32h56v32 32h-24-32z"/><path d="m-24-592h8v64h-8z"/><path d="m16-528h-32v-64h32 8v56 8z"/><path d="m88-624v32h-64-8v-32z"/><path d="m176-528h-88v-32-8-16-8-32h144v96z"/><path d="m176-112h96 8v8h-72-32-8v-8z"/><path d="m272-208v-8h8v104h-8z"/><path d="m272-216v8h-96v-8z"/><path d="m208-272h24 32 8l8 8v32 16h-8-96-8v-16-32l8-8z"/><path d="m280-112v-104-16h32 6 50v16 24 20 24 20 24h-40-48z"/><path d="m338-252-20 20h-6l-20-20 23-23z"/><path d="m280-232v-32l12 12 20 20z"/><path d="m464-232v16h-96v-16z"/><path d="m608-216h-64v-16h64z"/><path d="m464-216v-16h48 32v16 24h-80z"/><path d="m464-148v-24h80v24z"/><path d="m536-104h-72v-24h80v24z"/><path d="m464-148h80 64v20h-64-80-96v-20z"/><path d="m464-192h80 64v20h-64-80-96v-20z"/><path d="m232-464v-32h32v32 192h-32z"/><path d="m624-496v32h-80v-32z"/><path d="m688 72v-160-32-8h64v144 88h-16-16-32z"/><path d="m656-120v-80h32v8 64 8z"/><path d="m648-232h8v32 80 16h-48v-24-20-24-20-24-16z"/><path d="m648-304v32 40h-40-64-32v-72z"/><path d="m656-232h-8v-40h8z"/><path d="m656-272h-8v-32h8z"/><path d="m688-432v32 48h-32v-80z"/><path d="m752-400v-32h64 32 96 32v32 24 168h-224z"/><path d="m976-208v56 168h-224v-144-64-16z"/><path d="m976 16v56 32h-32-48-32-96-16v-88z"/><path d="m752-624h32 32v32 128 32h-64z"/><path d="m456-496h-160-32-32v-32-96h8 216z"/><path d="m464-624h192v128h-32-80-32-56v-128z"/><path d="m656-496v-128h32v160h-32z"/><path d="m688-432v-32-160h64v192 32h-64z"/><path d="m752-400v192 16h-64v-8-32-88-32-48z"/><path d="m-208-232v32z"/><path d="m-48 312h32z"/><path d="m232 312h32z"/><path d="m232 312h-24z"/><path d="m240-624h-8-144-72z"/><path d="m464-624h-8-216z"/><path d="m688-624h-32-192z"/><path d="m40 136h32z"/><path d="m144 136h32z"/><path d="m-208 136h96 32z"/><path d="m264 136h32z"/><path d="m656 136h32z"/><path d="m944-432h-96z"/><path d="m976-432h-32z"/><path d="m816-592v-32z"/><path d="m816-592v128z"/><path d="m944 104h32z"/><path d="m896 104h48-32z"/><path d="m688 104h32z"/><path d="m672-88h-16z"/><path d="m536-88h120-128-16z"/><path d="m296-464h-32z"/><path d="m544-464h-32z"/><path d="m264-496v32z"/><path d="m296-496h160 56-48z"/><path d="m264-496h32z"/><path d="m512-496h32z"/><path d="m144-496h-128z"/><path d="m656-104v-16 32z"/><path d="m656-200h32z"/><path d="m656-432h32z"/><path d="m528-56h16z"/><path d="m544-56v-16z"/><path d="m672-72v-16z"/><path d="m544-72h-16z"/><path d="m656 136v-32z"/><path d="m-16-528h32z"/><path d="m-24-528h8z"/><path d="m264 136v32z"/><path d="m544 136v160z"/><path d="m864 200v-64 128z"/><path d="m832 296h-64z"/><path d="m864 296h-32z"/><path d="m72 168h-32z"/><path d="m176 168h-32z"/><path d="m40 136v32z"/><path d="m-480 48h-32z"/><path d="m-320 48h-32z"/><path d="m-240-120v32z"/><path d="m-240-200v-32z"/><path d="m-208-120h-32z"/><path d="m-352 48v-32z"/><path d="m-352-8v-48 72z"/><path d="m-352-56v-32z"/><path d="m-320-88h80z"/><path d="m-352-88h32z"/><path d="m-480 16v32z"/><path d="m-480-232v32z"/><path d="m-288 112v96z"/><path d="m-544 80v32z"/><path d="m-448 240h64z"/><path d="m-352 240h32z"/><path d="m-320 240h32z"/><path d="m-480 208h32z"/><path d="m-512 48-32 32z"/><path d="m-448 208v32z"/><path d="m-448 240v8z"/><path d="m-384 248v-8z"/><path d="m864 296v-32z"/><path d="m-208 40 96 96z"/><path d="m-208-464v224 8z"/><path d="m88-592h-8-56z"/><path d="m768 296h-224 32 128 32z"/><path d="m-160-128v24z"/><path d="m88-568v8z"/><path d="m176-272v-192z"/><path d="m176-112v-96 21.3333 53.3334z"/><path d="m176 120v16-184z"/><path d="m656 104v32-192z"/><path d="m688-128h64z"/><path d="m688 136h48 32 96-96-112z"/><path d="m464-216h-96z"/><path d="m264-464v192z"/><path d="m512-464h32 80 32-168z"/><path d="m512-232v-8-26.6667-5.3333-32z"/><path d="m315-275-23 23z"/><path d="m338-252-23-23z"/><path d="m208-464v192z"/><path d="m608-128h-64z"/><path d="m464-172h-96z"/><path d="m272-208h-96z"/><path d="m512 136v-8-48-168z"/><path d="m656-56h-112z"/><path d="m544 136v-192z"/><path d="m544 136v160z"/><path d="m488 136h-192-32 160z"/><path d="m293-69-21 21z"/><path d="m293-69 23 23z"/><path d="m316-46 23-23z"/><path d="m232 136v-184z"/><path d="m144-464h32-88z"/><path d="m16-464h72-104z"/><path d="m88-560v32z"/><path d="m155-251-23-23z"/><path d="m132-274-23 23z"/><path d="m16-88h114-178z"/><path d="m-16-216v24z"/><path d="m-16-192h96z"/><path d="m80-104v-24z"/><path d="m-16-148h96z"/><path d="m176-48-20-20z"/><path d="m133-45 23-23z"/><path d="m130-88-20 20z"/><path d="m110-68 23 23z"/><path d="m-160-104h96z"/><path d="m-48-232h-16-96z"/><path d="m-64-104v-24z"/><path d="m-160-148h96z"/><path d="m88-584v16z"/><path d="m48-528h-24z"/><path d="m-160-232h-16z"/><path d="m-176-232h-32z"/><path d="m24-592v56z"/><path d="m-24 136h-24-8 8z"/><path d="m-56 136h-24-32z"/><path d="m-80 136h24 8z"/><path d="m144 136h-72z"/><path d="m-80 136h32z"/><path d="m264 136v32z"/><path d="m264 168v112z"/><path d="m-48 168v-32z"/><path d="m-48 136v32z"/><path d="m72 168h72z"/><path d="m176 136v32z"/><path d="m40 136v32z"/><path d="m-80 136h32z"/><path d="m144 136h32z"/><path d="m40 136h32z"/><path d="m264 136h32z"/><path d="m-48 168v112z"/><path d="m176 168h-32z"/><path d="m72 168h-32z"/><path d="m176 168v-32z"/><path d="m176 136v32z"/><path d="m16-592v-32z"/><path d="m16-528v-64h-32v64z"/><path d="m-24-528v-64h8v64z"/><path d="m-16-528v-64h-8v64z"/><path d="m-16-528h-8z"/><path d="m-16-528v-64z"/><path d="m-24-528v-64z"/><path d="m-16-592h32z"/><path d="m-24-592h8z"/><path d="m-16-528v-64z"/><path d="m-16-592v64z"/><path d="m-24-528v-64z"/><path d="m-448 240h64z"/><path d="m-384 240h-64z"/><path d="m-384 240v-32z"/><path d="m-480 208v32z"/><path d="m-384 208h-64v32h64z"/><path d="m-448 248v-8z"/><path d="m-384 240v8z"/><path d="m-384 240h-64v8h64z"/><path d="m-384 248h-64v-8h64z"/><path d="m-448 248h64z"/><path d="m976-152v32 192-56z"/><path d="m976-376v32 192-56z"/><path d="m976-400v-32z"/><path d="m976-376v-24-32 88z"/><path d="m976 104v-32z"/><path d="m-208-120v16 16z"/><path d="m208 312h-32-192 56z"/><path d="m208 312h24 32-88z"/><path d="m816-624h-32z"/><path d="m784-624h-32-64z"/><path d="m240-624h-224z"/><path d="m464-624h-224z"/><path d="m688-624h-224z"/><path d="m40 136h32z"/><path d="m144 136h32z"/><path d="m264 136h32z"/><path d="m176 136h88 32-152z"/><path d="m768 136h-32z"/><path d="m736 136h-48z"/><path d="m768 136h-32-48-32-112z"/><path d="m688 72v32z"/><path d="m688-88v160z"/><path d="m688-120v32z"/><path d="m688-232v32z"/><path d="m688-464v32z"/><path d="m688-344v-8 32z"/><path d="m688-320v88z"/><path d="m688-120v32 160 32-88z"/><path d="m688-344v24 88 32 80-16-48-24z"/><path d="m848-432h-32z"/><path d="m816-432v-32z"/><path d="m816-464v-128-32 192z"/><path d="m944 104h32-64z"/><path d="m864 104h32z"/><path d="m736 104h16 16z"/><path d="m720 104h16z"/><path d="m864 104h-96v32h96z"/><path d="m768 104v32z"/><path d="m864 136v-32z"/><path d="m16-496v-32z"/><path d="m16-592v64z"/><path d="m672-88h-16z"/><path d="m176-464h-32z"/><path d="m88-464h56-56-72z"/><path d="m16-464h48 24z"/><path d="m296-464h16 200-24z"/><path d="m656-464h32z"/><path d="m656-464h-32z"/><path d="m688-464h-32z"/><path d="m264-464v-32h-24-64v32z"/><path d="m624-496h-80v32h80z"/><path d="m512-496h32 80 32-192z"/><path d="m544-496v32z"/><path d="m624-496h32z"/><path d="m624-464v-32z"/><path d="m656-496v32z"/><path d="m176-496v32z"/><path d="m144-496h32z"/><path d="m656-200v-32z"/><path d="m656-120v-80-32 48 48 48z"/><path d="m656-320v-32z"/><path d="m656-432v-32z"/><path d="m656-320v16z"/><path d="m688-352v-80h-32v80z"/><path d="m656-352h32z"/><path d="m656-120h32z"/><path d="m688-120v-80h-32v80z"/><path d="m656-56h-112z"/><path d="m656-72v-16z"/><path d="m656-56v-16h16v16z"/><path d="m672-56v-16-16z"/><path d="m656-72h16z"/><path d="m544-72h-16v16h16z"/><path d="m528-72v16z"/><path d="m656 136v-32h-112v32z"/><path d="m656 104h-112z"/><path d="m656 104v-160z"/><path d="m544 104v-160 192z"/><path d="m-16-592h-8z"/><path d="m-16-528v-64h-8v64z"/><path d="m264 168v-32z"/><path d="m264 312v-32z"/><path d="m264 312v-32-112z"/><path d="m544 296v-160z"/><path d="m864 296v-32z"/><path d="m864 264v-128 160z"/><path d="m832 296h32-96z"/><path d="m768 296h-224z"/><path d="m-48 136v32z"/><path d="m-48 280v32z"/><path d="m72 168h-32z"/><path d="m176 168h-32z"/><path d="m176 168h-32-72-32-88z"/><path d="m264 168v-32h-88v32z"/><path d="m-48 168h88v-32h-88z"/><path d="m40 168v-32z"/><path d="m-480 48h-32z"/><path d="m-320 48h-32z"/><path d="m-240-120v-80-32 48 48 48z"/><path d="m-240-200v80h32v-80z"/><path d="m-208-200h-32z"/><path d="m-240-232h-112-96z"/><path d="m-448-232h-32z"/><path d="m-352 16v-72-32 80 56z"/><path d="m-480-176v192 32-56z"/><path d="m-480-176v-24 192 24z"/><path d="m-288 240v-32z"/><path d="m-288 112v-32z"/><path d="m-288 208v-96-32 160z"/><path d="m-544 240v-32z"/><path d="m-544 112v96z"/><path d="m-512 240h-32z"/><path d="m-480 240h-32z"/><path d="m-288 240h-32z"/><path d="m-288 80-32-32z"/><path d="m-384 208h32v32h-32-64-32v-32z"/><path d="m-512 48-32 32z"/><path d="m-352 208h-32z"/><path d="m-352 240v-32z"/><path d="m-480 208h32 64z"/><path d="m-384 248v-8h-64v8z"/><path d="m-448 248h64z"/><path d="m976-120v136 88-32z"/><path d="m976-344v136 88-32z"/><path d="m-208-232v48z"/><path d="m-208-136v-48-48 32 80 32z"/><path d="m-208-88v128 96z"/><path d="m176 312h-224 32z"/><path d="m816-624h-32-96z"/><path d="m-80 136h152z"/><path d="m-80 136h32 88 32z"/><path d="m296 136h-152z"/><path d="m864 136h-96z"/><path d="m688-136v-48z"/><path d="m688-432v-32 32 80 8z"/><path d="m912-432h64-32-96-32z"/><path d="m816-624h-128v128 32 32h128z"/><path d="m912 104h-224 32 16 32 96 32z"/><path d="m912-432h-96-128v88 136h224z"/><path d="m688-208v24 48 16 136h224v-224z"/><path d="m688 16v88h224v-88z"/><path d="m976-344v-88h-64v224h64z"/><path d="m912-208v224h64v-136-88z"/><path d="m912 16v88h64v-88z"/><path d="m16-624v32 64 32z"/><path d="m88-464h56z"/><path d="m296-464h-32-88-32z"/><path d="m312-464h-16-152-56 200z"/><path d="m536-464h-24-200 200z"/><path d="m536-464h120-32-80-32z"/><path d="m240-496h-224 128 32z"/><path d="m464-496h-224 24 32z"/><path d="m240-624h-224v128h224z"/><path d="m464-624h-224v128h224z"/><path d="m656-496h32v-128h-224v128z"/><path d="m656-496v32z"/><path d="m656-496v32h32v-32z"/><path d="m656-136v48z"/><path d="m656-232v48z"/><path d="m656-304v72-40z"/><path d="m656-320v-32-80-32z"/><path d="m672-184h-16z"/><path d="m688-184h-16z"/><path d="m672-136h16-32z"/><path d="m656-136v-48h16v48z"/><path d="m672-136v-48h16v48z"/><path d="m656-56h-112z"/><path d="m656-56h16z"/><path d="m672-88h-16v16 16h16z"/><path d="m656-72v16z"/><path d="m656 104h-112z"/><path d="m544-56v160z"/><path d="m656 104v-160z"/><path d="m656 104v-160z"/><path d="m768 136h-224v160h224z"/><path d="m864 296v-160h-96v160z"/><path d="m768 296h-224z"/><path d="m-48 168v112 32z"/><path d="m264 168h-88z"/><path d="m176 168h-224v144h224z"/><path d="m264 312v-144h-88v144z"/><path d="m-240-184v48z"/><path d="m-240-136v-48h16v48z"/><path d="m-208-184v48h-16v-48z"/><path d="m-224-184h-16 32z"/><path d="m-352-232h112-208-32z"/><path d="m-240-136v-48-48h-112v144h112z"/><path d="m-352-88h32 80z"/><path d="m-352-88v-144h-128v56 168h128z"/><path d="m-480-8v56h128v-56z"/><path d="m-480-232v32 24z"/><path d="m-544 80v32 96 32z"/><path d="m-320 240h-224 32 32 32 64 32z"/><path d="m-288 80-32-32z"/><path d="m-320 48h-32-128-32l-32 32v160h224z"/><path d="m-288 80-32-32v192h32z"/><path d="m-200-136h-8z"/><path d="m-208-136h8v-48h-8z"/><path d="m-208-184h8z"/><path d="m-208-136v-48z"/><path d="m-200-184v48z"/><path d="m648-184v48h8v-48z"/><path d="m656-184v-48-72 144 24z"/><path d="m672-184h-16v48h32v-48z"/><path d="m-240-136h32v-48h-32z"/><path d="m-240-136h16 16z"/><path d="m-200-136h-8v-48h8z"/><path d="m656-136h-8z"/><path d="m656-184v48h-8v-48z"/><path d="m648-184h8z"/><path d="m656-184v48z"/><path d="m648-136v-48z"/><path d="m-208-88v224h128v-72-168h-80-48z"/><path d="m144 64h-208-16v72h152 72z"/><path d="m368 64h-208-16v72h152 72z"/><path d="m512 136v-72h-128-16v72z"/><path d="m160 48h-224v16h208 16z"/><path d="m384 48h-224v16h208 16z"/><path d="m512 64v-16h-128v16z"/><path d="m656 104v-160h-112v160z"/><path d="m-160-384v-80h-48v224h48z"/><path d="m-208-240v8 96 32h48v-56-80z"/><path d="m-80-160v56 168h16v-16-208z"/><path d="m-64-176v-192h-16v208h16z"/><path d="m-80-160v-208-16h-80v144 80z"/><path d="m-160-104h80v-56h-80z"/><path d="m144-384h-80-144v16h16 208z"/><path d="m368-384h-80-144v16h16 208z"/><path d="m384-368h128v-16h-144v16z"/><path d="m512-312v136 88h16v-72-152z"/><path d="m528-384h-16v16 56h16z"/><path d="m656-304v-80h-128v72 152h128z"/><path d="m528-160v72h128v-48-24z"/><path d="m64-464h-48-176v80h80 144z"/><path d="m288-464h-200-24v80h80 144z"/><path d="m512-464h-200-24v80h80 144z"/><path d="m528-384h128v-80h-120-24v80z"/><path d="m-64-176v16 208-184z"/><path d="m512-312v-56 192z"/><path d="m512 48h-128z"/><path d="m160-368h-16-208 168z"/><path d="m384-368h-16-208 72z"/><path d="m-208-240v-224 232z"/><path d="m-208-232v48 48z"/><path d="m-208-104v-32 48z"/><path d="m512 136h-144-72 192z"/><path d="m656-464h-120z"/><path d="m656-464v80 80-16z"/><path d="m512-88v136 16 72z"/><path d="m656-56h-112z"/><path d="m544-56v160z"/><path d="m-160-464h176-32-32-160z"/><path d="m160 88h-224v-40h224z"/><path d="m384 88h-224v-40h224z"/><path d="m512 48h48v40h-176v-40z"/><path d="m-64-136v184 40h-56v-224z"/><path d="m-120-368h56v192 40h-56z"/><path d="m-120-408h224v40h-168-56z"/><path d="m104-408h128v24 16h-72-56z"/><path d="m456-384h-224v-24h224z"/><path d="m560-408v24h-48-56v-24z"/><path d="m560-176v224h-48v-224z"/><path d="m512-368v-16h48v208h-48z"/><path d="m456-368h-72-152v-16h224z"/><path d="m512-384v16h-56v-16z"/><path d="m-64-368v192z"/><path d="m512-176v224-136z"/><path d="m160 48h-224z"/><path d="m384 48h-224z"/><path d="m456-368h56-128z"/></g></defs><path d="m-731-1123h1862v2038h-1862z" fill="#fff"/><g stroke="#000"><use fill="none" stroke-miterlimit="0" stroke-width="15" xlink:href="#a"/><use fill="#fff" xlink:href="#a"/></g></svg>