<svg viewBox="-1104 -896 2264 1728" xmlns="http://www.w3.org/2000/svg" xmlns:xlink="http://www.w3.org/1999/xlink"><defs><g id="a"><path d="m-960 304v176 48-104-16z"/><path d="m-736 144h-224z"/><path d="m-480 144h-112-16z"/><path d="m-704-80v192 32z"/><path d="m-448-112v32z"/><path d="m-608-128h64l32 16h-128z"/><path d="m-704-80v-32h64 128 32v224h-224z"/><path d="m-480 112v32h-128-96v-32z"/><path d="m-480-112h32v32 192h-32z"/><path d="m-448 112v32h-32v-32z"/><path d="m-704 528h-32z"/><path d="m-480 528h16-16-96z"/><path d="m-480 272v192z"/><path d="m-480 464h16z"/><path d="m-480 528v-32-32h16v64z"/><path d="m-704 400v96 32h-32-128v-48-80z"/><path d="m-704 400v-128h64 32 128v192 32h-224z"/><path d="m-480 496v32h-96-128v-32z"/><path d="m-960 304v-48h96v16 128 80h-96z"/><path d="m-864 480v48h-96v-48z"/><path d="m-640 272h-64-160v-16h128 96z"/><path d="m-608 256v16h-32v-16z"/><path d="m-960 168v-16-8h224v112h-128-96z"/><path d="m-736 144h32 96v32 64 16h-32-96z"/><path d="m-608 256v-16h16v32h-16z"/><path d="m-608 176h16v64h-16z"/><path d="m-608 144h16v32h-16z"/><path d="m-864 272v128z"/><path d="m-576 528v16 16 16 16 16 16z"/><path d="m-704 528h128v96h-128z"/><path d="m-960 424v104-96z"/><path d="m-960 408v16z"/><path d="m-960 256v-88 88 48z"/><path d="m-960 152v16z"/><path d="m-960 144v8z"/><path d="m-704-80v-32h64 128 64v32 224h-32-112-16-96z"/><path d="m-448-80v-32h-64-128-64v32 224h96 16 112 32z"/><path d="m-512-112-32-16h-64l-32 16z"/><path d="m-640-112 32-16h64l32 16z"/><path d="m-592 240v-64-32h-16v8 16 88 16h16z"/><path d="m-608 256v-88-16-8h16v32 64 32h-16z"/><path d="m-736 144h32 96v8h-256-96v-8z"/><path d="m-864 152h256v-8h-96-32-224v8z"/><path d="m-608 152v16h-256v-16z"/><path d="m-608 168v-16h-256v16z"/><path d="m-960 168h96 256v88h-256-96z"/><path d="m-608 168h-256-96v88h96 256z"/><path d="m-704 272h96v-16h-256v16z"/><path d="m-608 256v16h-96-160v-16z"/><path d="m-864 400v-128-16h-96v48 104h32 64z"/><path d="m-960 304v-48h96v16 128 8h-64-32z"/><path d="m-480 464v-192h-112-16-96v128 128h128 96z"/><path d="m-704 400v-128h96 16 112v192 64h-96-128z"/><path d="m-480 528v-64h16v64z"/><path d="m-464 528v-64h-16v64z"/><path d="m-736 528h32v-128h-160v8 120z"/><path d="m-704 400v128h-32-128v-120-8z"/><path d="m-576 544v-16h-128v16 16h16 32 32 32 16z"/><path d="m-704 544v-16h128v16 16h-16-32-32-32-16z"/><path d="m-592 576h16v-16h-16z"/><path d="m-592 560h16v16h-16z"/><path d="m-656 560h32v16h-32z"/><path d="m-656 576h32v-16h-32z"/><path d="m-688 576v-16h-16v16z"/><path d="m-704 576v-16h16v16z"/><path d="m-576 608v-16-16h-16-32-32-32-16v16 16 16h128z"/><path d="m-704 608v-16-16h16 32 32 32 16v16 16 16h-128z"/><path d="m-928 424v104h64v-120h-64z"/><path d="m-864 528h-64v-104-16h64z"/><path d="m-928 424h-32v104h32z"/><path d="m-960 528v-104h32v104z"/><path d="m-704 608v16z"/><path d="m-704 592v16z"/><path d="m-704-80v224-176z"/><path d="m-480 528h16 112-128-96z"/><path d="m-480 144h-112z"/><path d="m-448-112v32z"/><path d="m-592 240h240v32h-64-64-112z"/><path d="m-592 176h240v64h-240z"/><path d="m-592 144h112 32 96v32h-240z"/><path d="m-480 272v128 64z"/><path d="m-464 464h112v64h-112z"/><path d="m-576 624v-16z"/><path d="m-576 576v-16-16 16 16 16z"/><path d="m-576 544v-16z"/><path d="m-736 144h-224 96 32 32z"/><path d="m-864 272v32 96z"/><path d="m-736 528h32-96-32-32z"/><path d="m-704 144h-32z"/><path d="m-448 144h-32z"/><path d="m-704-112v32z"/><path d="m-448-80v224-32z"/><path d="m-640-112h-64z"/><path d="m-448-112h-32-32z"/><path d="m-544-128h-64z"/><path d="m-608-128-32 16z"/><path d="m-512-112-32-16z"/><path d="m-736 528h-128-64-32 96z"/><path d="m-704 272v128z"/><path d="m-480 272h-128 16z"/><path d="m-704 400h-160z"/><path d="m-864 272h160z"/><path d="m-704 608v-16-16-16-16-16 96z"/><path d="m-704 624h128z"/><path d="m-704 624v-16z"/><path d="m-704 624h128z"/><path d="m-576 608v16z"/><path d="m-576 608v-16z"/><path d="m-704 608v16h128v-16z"/><path d="m-576 608v16h-128v-16z"/><path d="m-704 608v16h128v-16z"/><path d="m-480 272h-112z"/><path d="m-352 464h-112-16z"/><path d="m-448 144h-32z"/><path d="m-960 304v-136 88 48 104z"/><path d="m-960 144v8z"/><path d="m-704 528v16z"/><path d="m-704 368v-96 128z"/><path d="m-576 272h-128z"/><path d="m-480 272h64 64-224z"/><path d="m-480 272h64z"/><path d="m-352 528v-64z"/><path d="m-480 464v64h128v-64z"/><path d="m-704 368v32h128v-32z"/><path d="m-576 400h-128v128h128 96v-64-64z"/><path d="m-576 272h-128v96h128z"/><path d="m-480 272h-96v96 32h96z"/><path d="m-704 528v16h128v-16z"/><path d="m-704 608v16h128v-16z"/><path d="m-704 592v16h128v-16z"/><path d="m-576 608h-128z"/><path d="m-704 608h128z"/><path d="m-704 624h128z"/><path d="m-800 272h-32-32 160z"/><path d="m-864-112v192 32h-96v-128z"/><path d="m-864 112v32h-96v-32z"/><path d="m-704 144h-32-64v128h96z"/><path d="m-800 144h-32v128h32z"/><path d="m-960 152v-8h96v8z"/><path d="m-864 152v-8h-96v8z"/><path d="m-832 144h-32v8 16 104h32z"/><path d="m-864-112v192z"/><path d="m-864 152v-8-32-32 64 8 16z"/><path d="m-864 168v-16h-96v16z"/><path d="m-960 168v-16h96v16z"/><path d="m-704 144h-32z"/><path d="m-960 152h96z"/><path d="m-864 152h-96z"/><path d="m-864 152v16z"/><path d="m-864 168v-16z"/><path d="m-960 168h96z"/><path d="m-864 168h-96z"/><path d="m-704 528v-128h-96v128z"/><path d="m-864 432v96h32v-128h-32z"/><path d="m-832 400v128h32v-128z"/><path d="m-832 400h32 96-160z"/><path d="m-960 424h32z"/><path d="m-960 408h32z"/><path d="m-960 432v96h96v-96z"/><path d="m-864 432h-64-32z"/><path d="m-864 528h-96 32z"/><path d="m-576 608v16z"/><path d="m-704 624v-16z"/><path d="m-704 624v-16h128v16z"/><path d="m-704 608h128z"/><path d="m-576 624h-128z"/><path d="m160-200v64z"/><path d="m576-400h64z"/><path d="m640-400v64z"/><path d="m640-336h-64z"/><path d="m576-400h64v64h-64z"/><path d="m160-200h-64z"/><path d="m96-200h64v64h-64z"/><path d="m576-400v64h64v-64z"/><path d="m96-200v64h64v-64z"/><path d="m-960-16v128 32 8 16-16z"/><path d="m-864-112-96 96z"/><path d="m-864-112v192z"/><path d="m-864 144v8z"/><path d="m-864 152v-8 128-104z"/><path d="m-864-112v192 64 8h-96v-168z"/><path d="m-864 144v-64-192l-96 96v168h96z"/><path d="m-704 576v-16-16 16 16 16z"/><path d="m-624 576h32z"/><path d="m-592 576h-32z"/><path d="m-656 576h-32z"/><path d="m-688 576h32z"/><path d="m-688 576h32v-16h-32z"/><path d="m-704 560v16h16v-16z"/><path d="m-624 576h32v-16h-32z"/><path d="m-656 576h32v-16h-32z"/><path d="m-592 576h16v-16h-16z"/><path d="m-704 544v16h16 32 32 32 16v-16z"/><path d="m-592 560h-32z"/><path d="m-624 560h32z"/><path d="m-688 560h32z"/><path d="m-656 560h-32z"/><path d="m-576 544h-128z"/><path d="m-624 576v-16z"/><path d="m-624 560v16z"/><path d="m-592 560v16z"/><path d="m-592 576v-16z"/><path d="m-656 560v16z"/><path d="m-656 576v-16z"/><path d="m-688 576v-16z"/><path d="m-688 560v16z"/><path d="m-704 592h128z"/><path d="m-592 576h-32-32-32-16v16h128v-16z"/><path d="m-832-144v112 112z"/><path d="m-864 80v64z"/><path d="m-864-112 32-32v224h-32z"/><path d="m576-400h64z"/><path d="m576-336v-64z"/><path d="m640-336h-64z"/><path d="m640-400v64z"/><path d="m576-336v-64h64v64z"/><path d="m584-368v32h48v-32z"/><path d="m584-400v32h48v-32z"/><path d="m96-136v-64z"/><path d="m160-136h-64z"/><path d="m160-200v64z"/><path d="m96-200h64z"/><path d="m96-136v-64h64v64z"/><path d="m104-200v32h24v-32z"/><path d="m96-168v24h32v-24z"/><path d="m128-168v32h24v-32z"/><path d="m128-192v24h32v-24z"/><path d="m651.2-336 12.8-32-16 40z"/><path d="m512-424h-184-40z"/><path d="m-704 144v128z"/><path d="m-704-112v32z"/><path d="m-640-112h-64z"/><path d="m-480-112h32-64z"/><path d="m16-120h32-176z"/><path d="m640-400h11.2l12.8 32-12.8 32h-11.2z"/><path d="m544-400h32v32h-24-8z"/><path d="m544-424h64l40 16 3.2 8h-11.2-64-32z"/><path d="m328-368h-224l16-40 40-16h64 64 40z"/><path d="m512-424h32v24 32h-216v-56z"/><path d="m328-336h-224v-32h224z"/><path d="m552-336h-224v-32h216 8z"/><path d="m576-368v32h-24v-32z"/><path d="m328-312h-40-32-152v-24h224z"/><path d="m552-312h-8-32-184v-24h224z"/><path d="m576-336h64 11.2l-3.2 8-40 16h-56v-24z"/><path d="m256-312-12 8h-8.8-131.2v-8z"/><path d="m232-296 3.2-8h8.8z"/><path d="m104-304h131.2l-3.2 8-16 40h-112z"/><path d="m104-240v-12-4h112v16z"/><path d="m96-240 8-12v12z"/><path d="m96-240h8 112v8h-136z"/><path d="m48-232h32 136v32h-56-64-80v-32z"/><path d="m160-200h56v24l-16 40h-40z"/><path d="m16-200h80v64h-80z"/><path d="m96-136h64 40l-40 16h-112-32v-16z"/><path d="m-128-120h-224v-112h224z"/><path d="m16-232v32 64 16h-144v-112z"/><path d="m544-312h-32z"/><path d="m216-200v-32-8-16 16 64z"/><path d="m232-296-8 20-8 20z"/><path d="m244-304 12-8-12 8-12 8z"/><path d="m-128-232h-224z"/><path d="m576-368v-32 64z"/><path d="m96-136h64z"/><path d="m96-200v64z"/><path d="m-608-128v-144h64v144z"/><path d="m-608-272v144l-32 16h-64v-144l32-16z"/><path d="m-480-240v128h-32l-32-16v-144z"/><path d="m-432-304h48v64h-48z"/><path d="m-480-240h32v128h-32z"/><path d="m-448-240h16 48 32v8 112 8h-32-48-16z"/><path d="m-384-304h-48 16z"/><path d="m-544-128h-64z"/><path d="m-608-128-32 16z"/><path d="m-512-112-32-16z"/><path d="m-224 80v64 32z"/><path d="m-224 48v-64h128v64z"/><path d="m-224 80v-32h128v32z"/><path d="m-224-48h128v32h-128z"/><path d="m-224-48h-128z"/><path d="m-352 144v-192h128v32 64 32 96h-128z"/><path d="m-224 176v96h-128v-32-64z"/><path d="m-432 144h48 32-96z"/><path d="m-448-80v32 128 64z"/><path d="m-432-48v-64h48v128h-48z"/><path d="m-448-48 12 16v96l-12 16z"/><path d="m-384-112v128z"/><path d="m-436-32v96z"/><path d="m-576 368v-64-32h224v128h-16-112-16-80z"/><path d="m-352 272h128v128h-128z"/><path d="m-464 416-16-8v-8h112l-32 16z"/><path d="m-496 400h16v8z"/><path d="m-352 400h128-144z"/><path d="m-480 408 16 8-32-16z"/><path d="m-832-144 96-96 32-16v144 32 48h-128z"/><path d="m-704-32v176h-32-64-32v-64-112z"/><path d="m-800 144h64v128h-64z"/><path d="m-736 144h32v128h-32z"/><path d="m-832 144h32v128h-32z"/><path d="m632-368v32z"/><path d="m584-336v-32z"/><path d="m584-368h48z"/><path d="m632-336h-48z"/><path d="m584-336v-32h48v32z"/><path d="m632-400v32z"/><path d="m584-368v-32z"/><path d="m632-368h-48z"/><path d="m584-400h48z"/><path d="m584-368v-32h48v32z"/><path d="m104-200h24z"/><path d="m128-168h-24z"/><path d="m128-200v32z"/><path d="m104-168v-32z"/><path d="m104-168v-32h24v32z"/><path d="m128-168v24z"/><path d="m96-144v-24z"/><path d="m128-144h-32z"/><path d="m96-168h32z"/><path d="m96-144v-24h32v24z"/><path d="m152-136h-24z"/><path d="m128-168h24z"/><path d="m128-136v-32z"/><path d="m152-168v32z"/><path d="m128-136v-32h24v32z"/><path d="m128-168v-24z"/><path d="m160-192v24z"/><path d="m160-168h-32z"/><path d="m128-192h32z"/><path d="m128-168v-24h32v24z"/><path d="m-432-207v95h48v-95z"/><path d="m-432-207v26 69z"/><path d="m-432-240v33h48v-33z"/><path d="m544-424h-32z"/><path d="m512-424h-224z"/><path d="m-352-232v-8z"/><path d="m-352-112v-8z"/><path d="m48-120h-176z"/><path d="m-128-120h-224z"/><path d="m544-312h-32z"/><path d="m512-312h-224 40z"/><path d="m48-232h-32-144z"/><path d="m-128-232h-224z"/><path d="m-960 80v72 16 136-32z"/><path d="m-960 80v-82.6667-13.3333 168z"/><path d="m-432-213v32h48v-32z"/><path d="m-432-213v20 81z"/><path d="m-384-181v-26 95z"/><path d="m-432-181v-26h48v26z"/><path d="m-432-181v-32h48v32z"/><path d="m-384-240v33 26z"/><path d="m-432-181v-26-33z"/><path d="m-384-181v-26h-48v26z"/><path d="m1008 32h8v96h-8z"/><path d="m1016 32h-8z"/><path d="m-960 432v-8z"/><path d="m992 16 16 16v96l-16 16z"/><path d="m992 16v128h-80v-128z"/><path d="m992 144h-80z"/><path d="m912 144h-16v-128h16z"/><path d="m912 16h-16z"/><path d="m896 16h-96-128z"/><path d="m896 144h-96v-32-64-32h96z"/><path d="m544-424h-32z"/><path d="m-704 400v128z"/><path d="m-352-232v-8 24z"/><path d="m-352-232v-8z"/><path d="m-352-112v-8z"/><path d="m-352-120v-16 24z"/><path d="m-128-120h-224z"/><path d="m288-312v-16z"/><path d="m544-424v16z"/><path d="m512-312h-224z"/><path d="m544-312v-16h-32v16z"/><path d="m512-424h-224v16h224z"/><path d="m48-232v16z"/><path d="m48-232h-176z"/><path d="m48-120v-16h-176v16z"/><path d="m-128-232h-224v16h224z"/><path d="m-352-240h-32z"/><path d="m32 48v-64h128v64z"/><path d="m32-16v-32h96 32v32z"/><path d="m-96 80h-64-64z"/><path d="m32 80h96-32-192z"/><path d="m32-48v32 64 32h-128v-32-64-32z"/><path d="m-704 272h128v32h-128z"/><path d="m-704 400v-32h128v32z"/><path d="m-704 368v-64h128v64z"/><path d="m-832 304v-32h32 64 32v32 64 32h-32-64-32z"/><path d="m-832 304v96 128-96z"/><path d="m-800 400h64v128h-64z"/><path d="m-832 400h32v128h-32z"/><path d="m-736 400h32v128h-32z"/><path d="m1008 32v96h8v-96z"/><path d="m-432-193v-20h48v20z"/><path d="m-432-163v-30h48v30z"/><path d="m-432-163v28 23z"/><path d="m-384-193v-20 101z"/><path d="m-432-193v30h48v-30z"/><path d="m-432-193v-20-27z"/><path d="m-384-240v27 20z"/><path d="m-384-193v-20h-48v20z"/><path d="m-960 464v192 32-32-96z"/><path d="m-960 432v-8z"/><path d="m-960 424v-16z"/><path d="m-960 48v-32-18.6667 82.6667z"/><path d="m-576 688h40-40-64-96z"/><path d="m-608 656h-128-96z"/><path d="m-896-80 32-32-96 96z"/><path d="m-832-144-32 32z"/><path d="m-736-240-96 96z"/><path d="m-880 48-16-32h-64v32z"/><path d="m-864 144v-64h-96v192h96z"/><path d="m-864 80h32l-48-32h-80v32z"/><path d="m-896-80-64 64v13.3333 18.6667h64z"/><path d="m-864 80h32z"/><path d="m-864 272v32z"/><path d="m-864 304v128-32z"/><path d="m-928 424h-32z"/><path d="m-960 272v32h96v-32z"/><path d="m-928 424v-16z"/><path d="m-960 432h32z"/><path d="m-928 424v8h-32v-8z"/><path d="m-960 424v8h32v-8z"/><path d="m-928 432v224z"/><path d="m-960 464v-32h32v224h-32z"/><path d="m-736 688h-224v-32h32 96 96z"/><path d="m-608 656h32v32h-160v-32z"/><path d="m-960 408v-104z"/><path d="m-928 408h-32z"/><path d="m-928 408v16z"/><path d="m-960 432v32z"/><path d="m-960 432v-8z"/><path d="m-960 424v-16z"/><path d="m-736 688h-128-96z"/><path d="m-832 656h-96z"/><path d="m-576 656h-32z"/><path d="m-608 656h-224z"/><path d="m512-328h-224v16h224z"/><path d="m544-408v-16h-32v16z"/><path d="m512-408h-224v40h224z"/><path d="m-128-136h-224v16h224z"/><path d="m48-216v-16h-176v16z"/><path d="m48-136v-40h-176v40z"/><path d="m-128-216h-224v40h224z"/><path d="m128 80h-96v-32h128v32z"/><path d="m128-48h-96-128 192z"/><path d="m128 80h32z"/><path d="m-960 424v-16h32v16z"/><path d="m-928 424v-16h-32v16z"/><path d="m-928 424v8z"/><path d="m-928 432v-8z"/><path d="m-960 424h32v8h-32z"/><path d="m-928 424h-32v8h32z"/><path d="m-960 432v32 96 96h32v-224z"/><path d="m-928 432v224h-32v-96-96-32z"/><path d="m-928 432v224z"/><path d="m-864 688h128 96 64v-32h-32-224-96-32v32z"/><path d="m-928 656h96 224 32v32h-64-96-128-96v-32z"/><path d="m288-368v56-16z"/><path d="m512-368h-224v40h224z"/><path d="m544-368h-32v40h32z"/><path d="m544-368v-40h-32v40z"/><path d="m-128-176h-224v40h224z"/><path d="m48-176v-40h-176v40z"/><path d="m288-424v16z"/><path d="m544-424v16 40z"/><path d="m544-312v-16z"/><path d="m-960 80v56 72 8 8 48 4 12 16-16-12-12-40-8-8-56-16z"/><path d="m-496 688h80-40-80-40 40z"/><path d="m-536 688h80-24-128-32 64z"/><path d="m992 16h-80z"/><path d="m992 144h-80z"/><path d="m912 16h-16z"/><path d="m912 144h-16z"/><path d="m-928 432h64 32v96 128h-96z"/><path d="m-608 656h-224v-128h32 64 32 32 64z"/><path d="m-576 528v32 64 32h-32v-128z"/><path d="m-464 416h48v-16h-80z"/><path d="m-400 416 32-16h-48v16z"/><path d="m-224 464v64h-192v-64z"/><path d="m-864 304v-16h32v16 128h-32z"/><path d="m-936 288h72v16h-96v-16z"/><path d="m-960 276v-4h4l4 8z"/><path d="m-936 280-3.2 6.4-4.8-2.4z"/><path d="m-960 288v-12l8 4 8 4 4.8 2.4 3.2 1.6z"/><path d="m-832 272v16h-32-72l-3.2-1.6 3.2-6.4 4-8z"/><path d="m-944 260 4.8-2.4 3.2 6.4z"/><path d="m-932 272-4-8-3.2-6.4 3.2-1.6h4 100v16z"/><path d="m-940 240 7.2 14.4-3.2 1.6-3.2 1.6-4.8 2.4-8 4z"/><path d="m-932.8 254.4.8 1.6h-4z"/><path d="m-960 224h12l8 16-12 24-4 8h-4z"/><path d="m-932.8 254.4-7.2-14.4-8-16h12 104v32h-100z"/><path d="m-948 224h-12v-8h8l8 4 8 4z"/><path d="m-832 216v8h-104l-8-4 8-4z"/><path d="m-960 216v-8h4l4 8z"/><path d="m-936 216 4-8h100v8z"/><path d="m-832 200v8h-100l-4-8z"/><path d="m-936 192-8 4-8 4 4-8z"/><path d="m-832 192v8h-104l-8-4 8-4z"/><path d="m-832 176v16h-104-12l8-16z"/><path d="m-936 168h104v8h-108l-4-8z"/><path d="m-944 156 11.2 5.6-3.2 6.4h-8l-8-16z"/><path d="m-936 152h8l-4.8 9.6-11.2-5.6z"/><path d="m-832 152v16h-104l3.2-6.4 4.8-9.6z"/><path d="m-924 144h92v8h-96-8l4-8z"/><path d="m-416 144h-16-16-96v64 128 32h128z"/><path d="m-544 368v32h48 80v-32z"/><path d="m-224 176v-32h-128-32-32v224h192z"/><path d="m-416 368v32h48 144v-32z"/><path d="m-952 24 12 24-12 24-4 8-4-8v-56h4z"/><path d="m-944 68 4.8-2.4 3.2 6.4z"/><path d="m-944 28 4.8 2.4 35.2 17.6h-36l-12-24z"/><path d="m-936 24-3.2 6.4-4.8-2.4z"/><path d="m-932 16-4-8-3.2-6.4 43.2-21.6v36z"/><path d="m-944 132 4.8-2.4 3.2 6.4z"/><path d="m-960 136 4 8 4 8 8 16 4 8-8 16-4 8-4 8h-4z"/><path d="m-944 92 4.8 2.4 6.4 3.2-7.2 14.4-12-24z"/><path d="m-936 88-3.2 6.4-4.8-2.4z"/><path d="m-936 88 4-8h8l-8.8 17.6-6.4-3.2z"/><path d="m-932 144-4-8-3.2-6.4 29.8667-14.9333-14.6667 29.3333z"/><path d="m-948-32h4 12l-20 40-4 8h-4v-48z"/><path d="m-944 4 4.8-2.4 3.2 6.4z"/><path d="m-940 48h36l-35.2 17.6-4.8 2.4-8 4z"/><path d="m-960 80v-8l4 8 4 8 12 24-12 24-4 8-4-8z"/><path d="m-880 48 48 32h-60-32-8l-4-8-3.2-6.4 35.2-17.6z"/><path d="m-892 80-17.3333 34.6667-29.8667 14.9333-4.8 2.4-8 4 12-24 7.2-14.4 8.8-17.6z"/><path d="m-832 80v64h-92l14.6667-29.3333 17.3333-34.6667z"/><path d="m-896 16 16 32h-24l-35.2-17.6 3.2-6.4 4-8z"/><path d="m-448 144v-64h-32-64v64z"/><path d="m-932-32 12-24 24-24v60l-43.2 21.6-4.8 2.4-8 4z"/><path d="m-888-184 56-56h96l-160 160h-8-36z"/><path d="m-960-32v-8l4-8 4 8 4 8z"/><path d="m-896-80-24 24-16 16 4-8 12-24 16-8z"/><path d="m-936-56-3.2-6.4 19.2-9.6-12 24z"/><path d="m-944-60 4.8-2.4 3.2 6.4z"/><path d="m-936-40-5.3333 5.3333-2.6667-1.3333z"/><path d="m-920-72-19.2 9.6-4.8 2.4-8 4 12-24h36z"/><path d="m-944-36 2.6667 1.3333-2.6667 2.6667h-4l-4-8z"/><path d="m-944-32 2.6667-2.6667 5.3333-5.3333 16-16-12 24z"/><path d="m-480-112v-128l-64-32v224h64z"/><path d="m-432-48h16v-64h-16z"/><path d="m-432-240h-48v128h32 16 16v-128z"/><path d="m-436-32-12-16h-32v128h32l12-16z"/><path d="m-432-240h16v-64h-16z"/><path d="m-352-176v-64h-32-32v128h32 32z"/><path d="m-416-304v64h32v-64z"/><path d="m-384-112h-32v64 64h32z"/><path d="m-416-48h-16v64h16z"/><path d="m-480-112v64h32v-64z"/><path d="m160 272v48h-32z"/><path d="m96 336 32-16h32v16z"/><path d="m96 80h32v16z"/><path d="m128 80h32v64l-32-48z"/><path d="m352 272-32 48-32 16v-64z"/><path d="m512 272h-160-64v-128h96 128z"/><path d="m608 144h64l-64 128h-32-64v-128z"/><path d="m576 284-96 36-128-48h160 64z"/><path d="m608 272-32 12v-12z"/><path d="m160 80v-32-64-32l64-16 16-4h48 96v212h-96-32-64-32z"/><path d="m384-68h128 96v212h-96-128z"/><path d="m608-68h22l10 20 32 64v32 64 32h-64z"/><path d="m96-112h64v64h-32-32z"/><path d="m384-68h-96v-12-32h208 16v44z"/><path d="m512-112h96l22 44h-22-96z"/><path d="m288-80v12h-48z"/><path d="m272-112h16v32l-48 12-16 4z"/><path d="m48-120v8h-144-64v-8z"/><path d="m96-120h64v8h-64z"/><path d="m278-136h138 80v24h-208-16z"/><path d="m496-136h48l64 24h-96-16z"/><path d="m278-136 10-40h32 64 32v40z"/><path d="m480-160 64 24h-48-80z"/><path d="m96-176v-56h-16-32v56 40 16h48z"/><path d="m96-232v-8l-16 8z"/><path d="m280-240h8v64h-8z"/><path d="m416-240h8v64h-8z"/><path d="m96-240h8v-12z"/><path d="m104-252v12h112v-16h-112z"/><path d="m232-296 3.2-8h-11.2v28z"/><path d="m235.2-304-3.2 8 12-8z"/><path d="m224-304h-120v48h112l8-20z"/><path d="m104-312v8h120 11.2 8.8l12-8z"/><path d="m288-368v-56h-64-64l-40 16-16 40v56h152 32z"/><path d="m-544-272v224z"/><path d="m280-176h8z"/><path d="m664-368-16 40z"/><path d="m424-240h-8z"/><path d="m424-240v64z"/><path d="m288-240v64z"/><path d="m216-240v16 48z"/><path d="m216-240h-112-8z"/><path d="m544-136-64-24 64 24 64 24z"/><path d="m630-68-22-44 32 64z"/><path d="m160-112v48 8 8z"/><path d="m48-112h-16-64-64z"/><path d="m288 272v-128z"/><path d="m896 16h-224 112z"/><path d="m576 284 32-12-128 48z"/><path d="m96 80h-192z"/><path d="m160 320v-48z"/><path d="m96 336h64z"/><path d="m-544 144v-64 96 32z"/><path d="m-224 144v-64 16z"/><path d="m-352 144h128v-48h-32-64-32z"/><path d="m-480-48v128z"/><path d="m-224 528h-192z"/><path d="m-544 400h-128z"/><path d="m-672 528h-32z"/><path d="m-704 400v96 32z"/><path d="m-832 656h-96z"/><path d="m-576 656h-32z"/><path d="m-536 656h-40z"/><path d="m-496 656h-80 40z"/><path d="m896 144h-224 128z"/><path d="m672 112v-64h128v64z"/><path d="m672 144v-32h128v32z"/><path d="m672 48v-32h128v32z"/><path d="m608-424h-64z"/><path d="m224-424h-64z"/><path d="m288-424h-64z"/><path d="m664-368-12.8-32-3.2-8z"/><path d="m648-408-40-16z"/><path d="m-736-240-96 96-32 32-32 32z"/><path d="m-672-272-32 16-32 16z"/><path d="m-448-112h16z"/><path d="m-384-112h32z"/><path d="m-352-240v64-40z"/><path d="m-352-112v-24-40z"/><path d="m96-120h-48 112z"/><path d="m104-256v-48-8-56 32 24 8 48 4z"/><path d="m288-368v-40-16z"/><path d="m544-368v40 16z"/><path d="m544-312h8 56z"/><path d="m608-312 40-16z"/><path d="m256-312h32z"/><path d="m120-408-16 40z"/><path d="m160-424-40 16z"/><path d="m160-120 40-16z"/><path d="m200-136 16-40z"/><path d="m48-232v16 40z"/><path d="m48-176v40z"/><path d="m48-120v-16z"/><path d="m80-232h-32z"/><path d="m96-240-16 8z"/><path d="m104-252-8 12z"/><path d="m-432-304v64z"/><path d="m-384-240v-64z"/><path d="m-432-240h-16-32z"/><path d="m-544-272h-64-64z"/><path d="m-480-240-64-32z"/><path d="m-224 176v192 32-128z"/><path d="m-160-48h64-128z"/><path d="m160-48h-32z"/><path d="m-352-48v192z"/><path d="m-352 144h-32z"/><path d="m-432 144h-16z"/><path d="m-416 144h32-48z"/><path d="m-448-48v-32-32z"/><path d="m-448 144v-64z"/><path d="m-432-112v64z"/><path d="m-432-48v64z"/><path d="m-416 16h-16 48z"/><path d="m-436-32-12-16z"/><path d="m-448 80 12-16z"/><path d="m-496 400h-48-128-32 128z"/><path d="m-416 416h-48 64z"/><path d="m-400 416 32-16z"/><path d="m-832 256v-32-8-8-8-8-16-8-16-8-64 64 128z"/><path d="m-896-20v-60 96z"/><path d="m-880 48 48 32z"/><path d="m-896 16 16 32z"/><path d="m-832 288v-16 32z"/><path d="m-864 304h-96z"/><path d="m-928 432h64z"/><path d="m-536 688h-40v-32h40z"/><path d="m-536 656h-40v32h40z"/><path d="m-496 688h-40-40v-32h80z"/><path d="m-928-144 40-40-52 104h-20z"/><path d="m-960-40v-16l4 8z"/><path d="m-952-56-4 8-4-8v-24h20z"/><path d="m-888-184-40 40z"/><path d="m96-104v40h64v-40z"/><path d="m-432-112v-23h48v23z"/><path d="m-432-112h48z"/><path d="m-384-135v-28 51z"/><path d="m-432-135v-28h48v28z"/><path d="m-432-135v-105h48v105z"/><path d="m-384-240h-48z"/><path d="m-432-135v-28-77z"/><path d="m-384-240v77 28z"/><path d="m-384-135v-28h-48v28z"/><path d="m96-240v8 56-48z"/><path d="m216-240h-120v16h120z"/><path d="m-448 656h32z"/><path d="m-448 656h32v32h-80v-32z"/><path d="m-960 432v32 96z"/><path d="m-864 688h-96z"/><path d="m-640 688h-96-128 128z"/><path d="m-480 688h24 40z"/><path d="m32 688h128-168z"/><path d="m-480-48h-64z"/><path d="m544-424v56 56z"/><path d="m544-312h64z"/><path d="m608-424h-64z"/><path d="m608-312 40-16z"/><path d="m664-368-16-40z"/><path d="m664-368-16 40z"/><path d="m416-240v64z"/><path d="m288-240v-64h32v128h-32z"/><path d="m160 320v-48z"/><path d="m128 320 32-48v48z"/><path d="m160 320v-48l-32 48z"/><path d="m160 272-32 48z"/><path d="m96 336 32-16h32v16z"/><path d="m160 336v-16h-32l-32 16z"/><path d="m160 336v-16z"/><path d="m96 336h64z"/><path d="m160 336v-16z"/><path d="m128 320-32 16z"/><path d="m-416 464v64z"/><path d="m-224 464h-192z"/><path d="m-224 528h-192z"/><path d="m-224 528v-64z"/><path d="m-224 528v-64h-192v64z"/><path d="m-224 464v64h-192v-64z"/><path d="m-544 336v32z"/><path d="m-544 368v32z"/><path d="m-544 368v32-32-32z"/><path d="m-224 656h-192-32 32z"/><path d="m0 656h-192-32z"/><path d="m-456 688h40v-32h-32-88v32z"/><path d="m-192 688h-40-184v-32h192 32z"/><path d="m32 688h-40-184v-32h192 32z"/><path d="m160 656v32h-128v-32z"/><path d="m-960 432v128h32v-128z"/><path d="m-864 656v32h128v-32z"/><path d="m-448 656h-48-40z"/><path d="m-448 656h32z"/><path d="m-448 656h32v32h-40-80v-32z"/><path d="m-416 464v64z"/><path d="m-416 208v128z"/><path d="m-224 464h-16z"/><path d="m-400 464h160 16-192z"/><path d="m-224 528h-16-32-32-32-32-32-16z"/><path d="m-224 528v-64z"/><path d="m-400 464h160 16v64h-192v-64z"/><path d="m-224 528v-64h-16-160-16v64z"/><path d="m-416 336h-96z"/><path d="m-512 208h96v128h-96z"/><path d="m-960 656v-96 96 32z"/><path d="m-960 304v104 16 8z"/><path d="m-672 688h-64 96 32z"/><path d="m-608 688h128z"/><path d="m-232 688h-24-160-40 40z"/><path d="m-8 688h-24-200 40z"/><path d="m-8 688h168-128-64z"/><path d="m-736 656v32z"/><path d="m216-224h-120v48h120z"/><path d="m-416 208h-96z"/><path d="m-416 208v16 16 64 16 16z"/><path d="m-368 464h32 32 32 32-160z"/><path d="m-272 464h-32z"/><path d="m-240 528h16z"/><path d="m-304 528h32z"/><path d="m-416 528h16z"/><path d="m-368 528h32z"/><path d="m-272 464v64h32v-64z"/><path d="m-336 464v64h32v-64z"/><path d="m-400 464v64h32v-64z"/><path d="m-512 208v128z"/><path d="m-416 336h-96z"/><path d="m-512 208h96v128h-96z"/><path d="m-416 208h-96v128h96z"/><path d="m160 688v-32z"/><path d="m-224 656h-192-32z"/><path d="m0 656h-224z"/><path d="m160 656h-128-32z"/><path d="m-224 656h224 160v32h-168-24-200-24-160v-32z"/><path d="m-256 688h24 200 24 168v-32h-160-224-192v32z"/><path d="m-672 688h64v-32h-64z"/><path d="m-736 656v32h64v-32z"/><path d="m-736 656h-128z"/><path d="m-928 560h-32z"/><path d="m-960 432h32z"/><path d="m-928 304h-32v128h32z"/><path d="m-864 656-64-96h-32l72 96z"/><path d="m-864 688v-32h-24z"/><path d="m-864 688v-32z"/><path d="m-960 656v32h96l-24-32z"/><path d="m-960 560v96h72z"/><path d="m-416 240v64z"/><path d="m-416 208v16z"/><path d="m-512 320v-16-64-16-16 128z"/><path d="m-512 320v16z"/><path d="m-496 240h-16z"/><path d="m-512 224v16h16 64 16v-16z"/><path d="m-432 304h16z"/><path d="m-496 240v64z"/><path d="m-432 240h-64v64h64z"/><path d="m-416 320v-16h-16-64-16v16z"/><path d="m-336 464h-32z"/><path d="m-400 464h-16z"/><path d="m-400 528h32 32 32 32 32 16-192z"/><path d="m-304 464v64z"/><path d="m-272 528v-64z"/><path d="m-240 464v64z"/><path d="m-272 528v-64h32v64z"/><path d="m-368 464v64z"/><path d="m-336 528v-64z"/><path d="m-336 528v-64h32v64z"/><path d="m-400 528v-64z"/><path d="m-400 528v-64h32v64z"/><path d="m-416 240h-16z"/><path d="m-512 304h16z"/><path d="m-432 240v64z"/><path d="m-496 240h64v64h-64z"/><path d="m-416 320v16z"/><path d="m-416 320v-16-64-16 112z"/><path d="m-512 208v16z"/><path d="m-512 304v16 16z"/><path d="m-416 240h-16-64-16z"/><path d="m-512 224h96z"/><path d="m-512 240v-16h96v16z"/><path d="m-512 304h16 64 16z"/><path d="m-416 320h-96z"/><path d="m-416 304v16h-96v-16z"/><path d="m-960 72v-64-40-8-16-24 24 16 8 48 56 8z"/><path d="m-928-144-32 64z"/><path d="m-956-48 4-8z"/><path d="m-224-48h64z"/><path d="m-352-48h128z"/><path d="m-544-48h64z"/><path d="m672-312v-56-64 128z"/><path d="m320-432h-80-144 64z"/><path d="m544-432h-80-144 64z"/><path d="m32-688 64 64v160h-128v-32-192z"/><path d="m96-464v32h-80-48v-32z"/><path d="m-224-560v-32-64-32h96 32v128z"/><path d="m-96-560v-128h32v144z"/><path d="m-64-688h32v192l-32-48z"/><path d="m-352-496v-64h64z"/><path d="m-352-560h64z"/><path d="m-128-688h-96-128z"/><path d="m672-304h-32z"/><path d="m240-304h48-64z"/><path d="m16-312v8h-16l-16-32h32z"/><path d="m-48-432h16 48v96h-32-32z"/><path d="m240-304h-16-208v-8h224z"/><path d="m464-304h-48-32-64-32-48v-8h224z"/><path d="m672-304h-32-176v-8h80 64 56 8z"/><path d="m608-312 40-16 16 16z"/><path d="m664-368h8v56h-8l-16-16z"/><path d="m648-408 24-24v64h-8z"/><path d="m16-336v-96h80 144v120h-224z"/><path d="m240-432h80 144v120h-224z"/><path d="m464-432h80v8 112h-80z"/><path d="m672-432-24 24-40-16v-8z"/><path d="m544-424v-8h64v8z"/><path d="m544-424v112z"/><path d="m544-312h64z"/><path d="m608-424h-64z"/><path d="m648-408-40-16z"/><path d="m608-312 40-16z"/><path d="m664-368-16-40z"/><path d="m416-304v64z"/><path d="m416-304v64z"/><path d="m288-304v64z"/><path d="m320-304h64v128h-64z"/><path d="m384-304h32v64 64h-32z"/><path d="m288-240h-8z"/><path d="m-64-432h16v96l-16-32z"/><path d="m-440-728h-16z"/><path d="m-440-728h-16-24v-24h64v24z"/><path d="m-456-712h16z"/><path d="m-440-728h24v16h-24z"/><path d="m-456-728h16v16h-16z"/><path d="m-480-712v-16h24v16z"/><path d="m-480-688v-24h24 16 24v24z"/><path d="m-544-272h-128z"/><path d="m-544-272h-128v224h128z"/><path d="m288 320v-48 64z"/><path d="m160 272v-32-64-32z"/><path d="m200 320h-32-8v-48h32 64 32v48z"/><path d="m256 272h-64v-128h64z"/><path d="m288 272h-32v-128h32z"/><path d="m192 272h-32v-128h32z"/><path d="m288 528h-128v-64-32-32h32 96z"/><path d="m192 368h96v32h-96z"/><path d="m160 400v32h-24v-32z"/><path d="m120 384h32 8v16h-24-32-8v-16z"/><path d="m128 528h-96l64-64h64v64z"/><path d="m160 352h-8-32-24v-16h64 8v16z"/><path d="m160 352v16 16h-8v-32z"/><path d="m120 384h-24v-32h24z"/><path d="m104 432h32 24v32h-64v-32z"/><path d="m104 432h-8v-32h8z"/><path d="m192 368h-32v-16h8 32 88v16z"/><path d="m160 336v-16h8v16z"/><path d="m200 320h88v16 16h-88z"/><path d="m168 336v-16 32z"/><path d="m152 352h-32z"/><path d="m128 560h-128-96v-32h128 96z"/><path d="m160 528h128l-32 32h-96-32v-32z"/><path d="m-416 208h-96z"/><path d="m-352 80v-128 192-48z"/><path d="m-320 96-32-16v16z"/><path d="m-224 96v-16l-32 16z"/><path d="m-320 192h64l32 16h-128z"/><path d="m-256 192 32 16z"/><path d="m-544 80h64z"/><path d="m-480-48v128z"/><path d="m-672-48v224h128v-96-128z"/><path d="m-672 176v32h128v-32z"/><path d="m-224 560h-224v-32h32 192z"/><path d="m-96 560h-128v-32h128z"/><path d="m-672 208v192h128v-32-32-128z"/><path d="m-416 368v-32-112-16h64 128 32v224h-224z"/><path d="m-192 432v32h-32-176-16v-32z"/><path d="m-192 208h32v32 192h-32z"/><path d="m-160 432v32h-32v-32z"/><path d="m-544 208h32v32 64 32h-32z"/><path d="m-160 208v32z"/><path d="m-512 336h96-128z"/><path d="m-416 464h-32-96z"/><path d="m-416 336v32h-128v-32z"/><path d="m-416 432v32h-128v-32z"/><path d="m-416 368v64h-128v-64z"/><path d="m-448 528h-224z"/><path d="m-416 464v64z"/><path d="m-224 464h-16-32-32-32-32-32z"/><path d="m-224 528v-64z"/><path d="m-512 208v16 16z"/><path d="m-512 240v64z"/><path d="m-544 208v128z"/><path d="m-448 528h-128-32-64z"/><path d="m-448 528v32h-128v-32z"/><path d="m-608 656v32z"/><path d="m256 560-96 96v-96z"/><path d="m-608 656v32h128v-32z"/><path d="m-224 656h-224v-32-64h224z"/><path d="m0 656h-224v-96h128 96z"/><path d="m160 656h-160v-96h128 32z"/><path d="m160 656h-160z"/><path d="m-448 656h-88-40z"/><path d="m-448 560v64h-128v-64z"/><path d="m-448 624v32h-128v-32z"/><path d="m-608 656h-64z"/><path d="m-736-208h32v-48l-32 16z"/><path d="m-672-272-32 16v48 32 128h32z"/><path d="m-704-48v96 128h32v-224z"/><path d="m-704 176v96 128h32v-192-32z"/><path d="m-704-208v32z"/><path d="m-672 400h-32z"/><path d="m-704-256 32-16-64 32z"/><path d="m-736-240h-96z"/><path d="m-864-208 32-32-56 56z"/><path d="m-864-208h32 96v-32h-96z"/><path d="m-936 288h-24v16h32v-16z"/><path d="m-939.2 286.4-4.8-2.4-8-4-8-4v12h24z"/><path d="m-936 280-3.2 6.4 3.2 1.6h8v-16h-4z"/><path d="m-944 284 4.8 2.4 3.2-6.4z"/><path d="m-956 272-4-8v12l8 4z"/><path d="m-948 256-4 8 8-4 4.8-2.4 3.2-1.6z"/><path d="m-936 264-3.2-6.4-4.8 2.4z"/><path d="m-936 264 4 8h4v-16h-8l-3.2 1.6z"/><path d="m-936 256h8v-16h-12l-8 16z"/><path d="m-952 264 4-8 8-16-8-16h-12v40l4 8z"/><path d="m-928 224h-8-12l8 16h12z"/><path d="m-944 220-8-4h-8v8h12 12z"/><path d="m-936 216-8 4 8 4h8v-8z"/><path d="m-960 208v8h8l-4-8z"/><path d="m-928 216v-8h-4l-4 8z"/><path d="m-936 200-3.2-6.4-4.8 2.4z"/><path d="m-928 188-11.2 5.6 3.2 6.4 4 8h4z"/><path d="m-928 152-4.8 9.6-19.2 38.4 8-4 4.8-2.4 11.2-5.6z"/><path d="m-952 200 19.2-38.4-11.2-5.6-8-4h-8v56h4z"/><path d="m-932.8 161.6 4.8-9.6h-8l-8 4z"/><path d="m-936 8 4 8 4-8v-12l-11.2 5.6z"/><path d="m-932 16-4 8-3.2 6.4 6.4 3.2 4.8-9.6v-16z"/><path d="m-939.2 30.4-4.8-2.4-8-4 12 24 7.2-14.4z"/><path d="m-936 136-3.2-6.4-4.8 2.4z"/><path d="m-944 132 4.8-2.4 11.2-5.6v-36l-4.8 9.6-7.2 14.4-12 24z"/><path d="m-956 144-4-8v16h8z"/><path d="m-939.2 94.4-4.8-2.4-8-4 12 24 7.2-14.4z"/><path d="m-932 80-4 8-3.2 6.4 6.4 3.2 4.8-9.6v-16z"/><path d="m-936 72 4 8 4-8v-12l-11.2 5.6z"/><path d="m-952 8 20-40h-4-12-12v40l4 8z"/><path d="m-936 72-3.2-6.4-4.8 2.4z"/><path d="m-944 92 4.8 2.4 3.2-6.4z"/><path d="m-944 68 4.8-2.4 11.2-5.6v-36l-4.8 9.6-7.2 14.4-12 24z"/><path d="m-952 88-4-8-4-8v8 56l4 8 4-8 12-24z"/><path d="m-928 144v-8l-4 8-4 8h8z"/><path d="m-936 136 4 8 4-8v-12l-11.2 5.6z"/><path d="m-952 24-4-8-4-8v64l4 8 4-8 12-24z"/><path d="m-944 28 4.8 2.4 3.2-6.4z"/><path d="m-936 8-3.2-6.4-4.8 2.4z"/><path d="m-908-144h12l64-64h-32l-24 24z"/><path d="m-928-40-4 8-20 40 8-4 4.8-2.4 11.2-5.6z"/><path d="m-939.2-33.6-4.8-2.4-8-4 4 8h12z"/><path d="m-944-60 4.8-2.4 11.2-5.6v-12h-12l-12 24z"/><path d="m-944-36 4.8 2.4 3.2-6.4z"/><path d="m-936-56-3.2-6.4-4.8 2.4z"/><path d="m-936-56 4 8 4-8v-12l-11.2 5.6z"/><path d="m-932-48-4 8-3.2 6.4 3.2 1.6h4l4-8v-16z"/><path d="m-960-40v8h12l-4-8-4-8z"/><path d="m-940-80h12l32-64h-12z"/><path d="m-928 144v8 36 20 8 8 16 16 16 16 16-152z"/><path d="m-960 304h32z"/><path d="m-952 216-4-8z"/><path d="m-944-60 8 4z"/><path d="m-944 220-8-4z"/><path d="m-936-56 4 8z"/><path d="m-956 208 4-8z"/><path d="m-944 196 8 4z"/><path d="m-952 200 8-4z"/><path d="m-936 200 4 8z"/><path d="m-932 208-4 8z"/><path d="m-936 216-8 4z"/><path d="m-936-40-8 4z"/><path d="m-952-40-4-8z"/><path d="m-932-48-4 8z"/><path d="m-944-36-8-4z"/><path d="m-952-56 8-4z"/><path d="m-952 152-4-8z"/><path d="m-944 4 8 4z"/><path d="m-944 156-8-4z"/><path d="m-936 8 4 8z"/><path d="m-956 144 4-8z"/><path d="m-944 132 8 4z"/><path d="m-952 136 8-4z"/><path d="m-936 136 4 8z"/><path d="m-932 144-4 8z"/><path d="m-936 152-8 4z"/><path d="m-936 24-8 4z"/><path d="m-952 24-4-8z"/><path d="m-932 16-4 8z"/><path d="m-944 28-8-4z"/><path d="m-952 8 8-4z"/><path d="m-956 16 4-8z"/><path d="m-952 88-4-8z"/><path d="m-944 68 8 4z"/><path d="m-944 92-8-4z"/><path d="m-936 72 4 8z"/><path d="m-956 80 4-8z"/><path d="m-936 88-8 4z"/><path d="m-952 72 8-4z"/><path d="m-932 80-4 8z"/><path d="m-944 260 8 4z"/><path d="m-944 284-8-4z"/><path d="m-936 264 4 8z"/><path d="m-952 280-4-8z"/><path d="m-936 280-8 4z"/><path d="m-956 272 4-8z"/><path d="m-932 272-4 8z"/><path d="m-952 264 8-4z"/><path d="m-928 304v128z"/><path d="m-928 432v128z"/><path d="m-928-144h20l20-40z"/><path d="m-960-80v24l4 8 4-8 12-24z"/><path d="m-960-56v16l4-8z"/><path d="m-960-80h20l32-64h-20z"/><path d="m-64-432v64l16 32v-96z"/><path d="m-352 688h96 32z"/><path d="m-32 688h64-128z"/><path d="m-256 688h-96-128 64z"/><path d="m-32 688h-64-128-32 24z"/><path d="m-352-496v-64z"/><path d="m-352-560h64z"/><path d="m-352-496 64-64z"/><path d="m-352-560v64l64-64z"/><path d="m-288-560-64 64v-64z"/><path d="m160 688v-32z"/><path d="m32 656v32h128v-32z"/><path d="m-224 656v32h128v-32z"/><path d="m-480 656v32z"/><path d="m-480 656v32h128v-32z"/><path d="m-480 656h-128z"/><path d="m1008 128v-96z"/><path d="m1008 32v96z"/><path d="m1008 128h8v-96h-8z"/><path d="m1008 128h8z"/><path d="m1016 128v-96z"/><path d="m992 144 16-16v-96l-16-16z"/><path d="m1008 32-16-16z"/><path d="m992 144 16-16z"/><path d="m1008 128v-96h8v96z"/><path d="m1008 32h8z"/><path d="m1016 128h-8z"/><path d="m1016 32v96z"/><path d="m1008 128v-96z"/><path d="m-416-752h-64z"/><path d="m-480-712v-16-24 24 16 24z"/><path d="m-288-560h64 128z"/><path d="m-288-560h-64v-32h128v32z"/><path d="m-64-544 32 48z"/><path d="m-96-560 32 16z"/><path d="m-480-688h64z"/><path d="m-416-728v16 24-24-16-24z"/><path d="m-416-688v-24h-24-16-24v24z"/><path d="m-480-688v-24h24 16 24v24z"/><path d="m-456-712v-16h-24v16z"/><path d="m-480-712v-16h24v16z"/><path d="m-440-712v-16h24v16z"/><path d="m-416-712v-16h-24v16z"/><path d="m-440-728h-16-24v-24h64v24z"/><path d="m-456-728h16 24v-24h-64v24z"/><path d="m-440-728h-16z"/><path d="m-456-712h16z"/><path d="m-456-728v16z"/><path d="m-456-712v-16z"/><path d="m-440-712v-16z"/><path d="m-440-728v16z"/><path d="m168 320h32z"/><path d="m160 400v-16-16z"/><path d="m192 400h-32z"/><path d="m200 320v32z"/><path d="m160 368h32z"/><path d="m200 352h-32z"/><path d="m168 320h32v32h-32z"/><path d="m192 368v32z"/><path d="m160 400v-32h32v32z"/><path d="m136 432h-32z"/><path d="m112 376v8h8v-8z"/><path d="m136 408h8v-8h-8z"/><path d="m104 408v-8h8v8z"/><path d="m144 376h8v8h-8z"/><path d="m144 376h-24v-24h32v24z"/><path d="m104 432v-24h8 24v24z"/><path d="m120 384h-8v16h24 8v-16z"/><path d="m144 384h8-32z"/><path d="m120 376v8-32z"/><path d="m152 376v-24 32z"/><path d="m136 408v-8 32z"/><path d="m112 400h-8 32z"/><path d="m104 408v24-32z"/><path d="m-320 96h64z"/><path d="m-320 80v16h64v-16z"/><path d="m-320 96-32-16z"/><path d="m-96 528h-128z"/><path d="m-416 528v-48-16z"/><path d="m-672 528h224z"/><path d="m-416 528h-32z"/><path d="m-224 688v-32z"/><path d="m-96 656v32z"/><path d="m32 688v-32z"/><path d="m32 688v-32h-128v32z"/><path d="m32 656h-128z"/><path d="m-96 656h-128z"/><path d="m-352 656v32z"/><path d="m-256 640h-64l-32 16v32h128v-32z"/><path d="m-352 656h-128z"/><path d="m-456-728v16h16v-16z"/><path d="m992 48v64 32-128z"/><path d="m992 112v-64h-80v64z"/><path d="m992 48v-32h-80v32z"/><path d="m992 144v-32h-80v32z"/><path d="m992 16h-80z"/><path d="m912 112h-16v32h16z"/><path d="m912 16h-16v32h16z"/><path d="m912 48h-16v64h16z"/><path d="m912 144h-16z"/><path d="m896 144h-112-112z"/><path d="m784 16h-112z"/><path d="m896 112h-80l-32 32h112z"/><path d="m896 16h-112l32 32h80z"/><path d="m896 48h-80v64h80z"/><path d="m216-176-16 40z"/><path d="m-416-752h-64z"/><path d="m896-80v-32z"/><path d="m96-48h-192z"/><path d="m896-80-10.6667 32z"/><path d="m768-176h32 64 32v64h-128z"/><path d="m768-112h128v32l-10.6667 32h-21.3333-128z"/><path d="m416-176h8z"/><path d="m216-176h-120z"/><path d="m-480-656v96 128-64z"/><path d="m-480-752v24 16 24z"/><path d="m32-688h-64-32-32-32z"/><path d="m-128-688h-224z"/><path d="m-352-656v-32h128v32z"/><path d="m-352-592v-64h128v64z"/><path d="m-288-304h-64z"/><path d="m-352-304h64v128h-64z"/><path d="m-352-688h-64z"/><path d="m-480-688h64z"/><path d="m-416-752v64-24-16z"/><path d="m-384-560h-64-32v-96-32h64 64v32 64 32z"/><path d="m-480-304h-64z"/><path d="m-544-304h64v128h-64z"/><path d="m96-56v-12-44 64z"/><path d="m96-120v-56 56 8z"/><path d="m424-152v13l-8 3v-40h8z"/><path d="m544-136-64-24v-13l8-3 56 24 37.3333 16z"/><path d="m581.3333-136-37.3333-16 42.6667 16z"/><path d="m480-160-56 21v-13l56-21z"/><path d="m272-176h8 8l-16 64h-16z"/><path d="m200-136 16-40h8v64z"/><path d="m200-136 16-40h-120v56h64z"/><path d="m608-128 48 80h-16l-32-64z"/><path d="m544-136h37.3333 5.3334l21.3333 8v16z"/><path d="m96-120v8h64v-8z"/><path d="m256-112h16l-26.6667 26.6667-21.3333 5.3333z"/><path d="m224-80 21.3333-5.3333-21.3333 21.3333-64 16v-8-8z"/><path d="m160-64v-48h-64v44 12h64z"/><path d="m160-64v8z"/><path d="m608-128 6 10 42 70z"/><path d="m586.6667-136-42.6667-16 42.6667 16 21.3333 8z"/><path d="m224-176v64z"/><path d="m416-136v-40z"/><path d="m424-139 56-21-64 24z"/><path d="m160-112v-8z"/><path d="m224-64-64 16z"/><path d="m288-176-10 40-6 24z"/><path d="m245.3333-85.3333 26.6667-26.6667-48 48z"/><path d="m160-120 40-16z"/><path d="m32-112h-64z"/><path d="m-96-112h-64z"/><path d="m-32-68h64 64v12 8h-192v-20z"/><path d="m288 400v-32-16-16z"/><path d="m672 144h112z"/><path d="m816 48-32-32h32z"/><path d="m800 144h-16l32-32v32z"/><path d="m816 112v-64-32h48v128h-48z"/><path d="m864 16h-48-32-112l-32-64h16 80 128z"/><path d="m885.3333-48-21.3333 64v-64z"/><path d="m864 16v128z"/><path d="m640-48 32 64z"/><path d="m816 112v-64z"/><path d="m816 48-32-32z"/><path d="m784 144 32-32z"/><path d="m816 144h48v64l-64 128v-64-64-64z"/><path d="m672 208h-32l32-64h112 16v64z"/><path d="m672 208h128v64h-160z"/><path d="m608 272v64h-128v-16z"/><path d="m608 336v-64h32 160v64l-64 48h-64-64z"/><path d="m480 336h128v48h-64-64-64-32v-48z"/><path d="m384 384h-32-32v-48h64z"/><path d="m288 336 32-16v16 48l-32 16z"/><path d="m384 336h-64v-16l32-48 128 48v16z"/><path d="m864 208-64 128z"/><path d="m640 208-32 64 64-128z"/><path d="m320 320 32-48z"/><path d="m352 272 128 48z"/><path d="m288 336 32-16z"/><path d="m-96 512v16z"/><path d="m32 528h-128z"/><path d="m112 408v-32h32v32z"/><path d="m-32 512h64v16h-128v-16z"/><path d="m96 336v128h-16v-64-64z"/><path d="m80 464h16l-64 64v-16z"/><path d="m96 336h-16v-16h16 32z"/><path d="m160 240v32l-16 24v-24-32z"/><path d="m128 304v16h-32z"/><path d="m144 296-16 24v-16l16-32z"/><path d="m144 176h16v64h-16-112v-64z"/><path d="m160 144v32h-16v-32z"/><path d="m96 80 32 16v16l-32-16z"/><path d="m96 80v16h-128-64v-16z"/><path d="m160 144h-16l-16-32v-16z"/><path d="m32 176h96 16z"/><path d="m96 96h-128z"/><path d="m96 80 32 16z"/><path d="m128 96 32 48z"/><path d="m144 296 16-24-32 48z"/><path d="m128 320-32 16z"/><path d="m96 464v-128 16 32 16 32z"/><path d="m112 376h8 24z"/><path d="m144 408h-8-24z"/><path d="m112 408v-8-16-8z"/><path d="m144 376v8 16 8z"/><path d="m32 528 64-64z"/><path d="m-96 80h-32-32z"/><path d="m-416 464h-32z"/><path d="m-672 336h32 64 32v32 64 32h-128z"/><path d="m-848 304v48 32 48z"/><path d="m-816 304h-32v128h32z"/><path d="m96-64v-40h64v40z"/><path d="m96-64v-40z"/><path d="m160-104v40z"/><path d="m96-104h64z"/><path d="m160-64h-64z"/><path d="m-848 432v-48h8 16 8v48z"/><path d="m-848 384v-32h8v32z"/><path d="m-824 352h8v32h-8z"/><path d="m-824 352h-16-8v-48h32v48z"/><path d="m-816 432h-32z"/><path d="m-848 304h32z"/><path d="m-816 384v-32-48 128z"/><path d="m-864 688h128z"/><path d="m768-240v-64h32v128h-32z"/><path d="m-544-304v128z"/><path d="m-544-176h64z"/><path d="m-352-176h64z"/><path d="m-480-176v-128z"/><path d="m-352-496v-64z"/><path d="m-352-304v128z"/><path d="m-352-176v-128h64v128z"/><path d="m-288-176v-128h-64v128z"/><path d="m-288-176v-128z"/><path d="m-352-496v64h-32v-128h32z"/><path d="m-544-304h64v128h-64z"/><path d="m-480-304h-64v128h64z"/><path d="m-320 80h64z"/><path d="m-256 80v16z"/><path d="m-320 96v-16z"/><path d="m-320 96v-16h64v16z"/><path d="m-800 272v80 32 112-32z"/><path d="m-928 560v-128z"/><path d="m-928 432v-128z"/><path d="m-864 240v32z"/><path d="m-824 384h-16-24v112h64v-112z"/><path d="m-864 352v32h24v-32z"/><path d="m-824 384h24v-32h-24z"/><path d="m-800 272v-32h-64v32 80h24 16 24z"/><path d="m-824 384h-16z"/><path d="m-840 352h16z"/><path d="m-840 384v-32z"/><path d="m-824 352v32z"/><path d="m-960 432h32v128h-32z"/><path d="m-864 656-64-96z"/><path d="m-864 688v-32h128v32z"/><path d="m-544-192v-16-16-16-16-16-16-16 128z"/><path d="m-544-272v16z"/><path d="m-544-208v16z"/><path d="m-544-240v16z"/><path d="m-544-304v16z"/><path d="m-480-176h-64z"/><path d="m-288-176h-32-32z"/><path d="m-480-288v16 16 16 16 16 16 16-128z"/><path d="m-480-208v-16z"/><path d="m-480-272v-16z"/><path d="m-480-240v-16z"/><path d="m-352-248v16z"/><path d="m-352-276v12z"/><path d="m-352-188v12z"/><path d="m-352-216v12z"/><path d="m-352-188v-16-12-16-16-16-12-16-12 128z"/><path d="m-352-304h64z"/><path d="m-288-264v-12z"/><path d="m-288-292v-12z"/><path d="m-288-232v-16z"/><path d="m-288-204v-12z"/><path d="m-288-292v16 12 16 16 16 12 16 12-128z"/><path d="m-352-292v16h64v-16z"/><path d="m-352-264v16h64v-16z"/><path d="m-352-232v16h64v-16z"/><path d="m-352-204v16h64v-16z"/><path d="m-544-304h64z"/><path d="m-544-272 64-16v-16l-64 16z"/><path d="m-544-208 64-16v-16l-64 16z"/><path d="m-544-176 64-16v-16l-64 16z"/><path d="m-544-240 64-16v-16l-64 16z"/><path d="m-960 464v-32 128z"/><path d="m-960 464v96 96 32-32-36-60z"/><path d="m-672 688h64-32-96z"/><path d="m-736 688v-32z"/><path d="m-672 240v96 128z"/><path d="m-320 96h64z"/><path d="m-256 96 32-16h-128l32 16z"/><path d="m-224 80-32 16z"/><path d="m-672 240v-32h32v128h-32z"/><path d="m-672 656h64v32h-64z"/><path d="m-736 688v-32h64v32z"/><path d="m-672 656h-64z"/><path d="m-960 560h32z"/><path d="m-800 240v32z"/><path d="m-864 240h64z"/><path d="m-800 496h-64z"/><path d="m-864 272v192 32-112-32z"/><path d="m-864 272v-32h64v32 192h-64z"/><path d="m-800 464v32h-64v-32z"/><path d="m-928 432h-32z"/><path d="m-960 432v-128h32v128z"/><path d="m-960 560h32l64 96h-24z"/><path d="m-888 656h24v32z"/><path d="m-864 656v32z"/><path d="m-960 656v-96l72 96z"/><path d="m-960 688v-32h72l24 32z"/><path d="m-472-712v16h48v-16z"/><path d="m-472-728v16h16v-16z"/><path d="m-440-712h16v-16h-16z"/><path d="m-472-744v16h48v-16z"/><path d="m-456-712v-16z"/><path d="m-440-712h-16z"/><path d="m-456-728h16z"/><path d="m-440-728v16z"/><path d="m-544-304v16 16 16 16 16 16 16 16-32z"/><path d="m-480-176v-16z"/><path d="m-352-304v12z"/><path d="m-288-188v-16-12-16-16-16-12-16-12 128z"/><path d="m-288-176v-12z"/><path d="m-352-232h64z"/><path d="m-352-264h64z"/><path d="m-352-292h64z"/><path d="m-288-276h-64z"/><path d="m-352-276v-16h64v16z"/><path d="m-288-248h-64z"/><path d="m-352-248v-16h64v16z"/><path d="m-352-204h64z"/><path d="m-352-216v-16h64v16z"/><path d="m-288-216h-64z"/><path d="m-352-188v-16h64v16z"/><path d="m-288-188h-64z"/><path d="m-480-256-64 16v-16l64-16z"/><path d="m-480-192-64 16v-16l64-16z"/><path d="m-480-224-64 16v-16l64-16z"/><path d="m-480-288-64 16v-16l64-16z"/><path d="m-480-288-64 16z"/><path d="m-544-288 64-16z"/><path d="m-544-192 64-16z"/><path d="m-480-256-64 16z"/><path d="m-544-256 64-16z"/><path d="m-544-224 64-16z"/><path d="m-480-224-64 16z"/><path d="m-480-192-64 16z"/><path d="m264 584v16h16v-16z"/><path d="m264 648v16h16v-16z"/><path d="m192 648v16h16v-16z"/><path d="m104 184v16h16v-16z"/><path d="m104 216v16h16v-16z"/><path d="m-960 336v-32 128 32z"/><path d="m-960 336v128 96z"/><path d="m-192-752h-160-64 64 96z"/><path d="m-480-752h64z"/><path d="m-736 688h-128-96 96z"/><path d="m-608 688h128-160z"/><path d="m160 688h128-32z"/><path d="m896-432v96z"/><path d="m896-304v192-64z"/><path d="m-672 208v32z"/><path d="m-672 240v224-128z"/><path d="m-672 16v160 32 32-32-112z"/><path d="m-672-208v160 64-48-144z"/><path d="m736-48h-80z"/><path d="m-160-48h32 32z"/><path d="m-224-48h-32z"/><path d="m-352-48h32 64 32z"/><path d="m736-304v32 32z"/><path d="m896-432h-8z"/><path d="m736-432h8 144 8v96 32h-32-64-32-16-16z"/><path d="m768-240v64 64z"/><path d="m800-304h64v128h-64z"/><path d="m864-304h32v128h-32z"/><path d="m736-240h-64z"/><path d="m672-304h64v64h-64z"/><path d="m672-432h64v128h-64z"/><path d="m736-496v64h-64v-64z"/><path d="m224-176h-8z"/><path d="m280-176h-8z"/><path d="m-480-720v-32 64 32z"/><path d="m-480-720v64 160-32z"/><path d="m-480-176v-16-16-16-16-16-16-16-16z"/><path d="m-352-496v64z"/><path d="m-352-304v12 16 12 16 16 16 12 16 12z"/><path d="m-64-432h16z"/><path d="m-48-432h16z"/><path d="m608-432h64-64-64z"/><path d="m160-624v32 32 64z"/><path d="m384-432h-64-160v-32-32h224z"/><path d="m608-432h-64-160v-64h224z"/><path d="m672-432h-64v-64h64z"/><path d="m384-496h-224z"/><path d="m608-496h-224 128z"/><path d="m96-464v32-32-160z"/><path d="m96-464v-160-64l64 64v128 32z"/><path d="m160-432h-64v-32h64z"/><path d="m96-688v64l-64-64v-64z"/><path d="m-128-688h-224v-64h160 64z"/><path d="m32-752v64h-160v-64z"/><path d="m32-688h-160z"/><path d="m96-624-64-64z"/><path d="m-32-432v-64 32z"/><path d="m-48-432v64 32z"/><path d="m-48-336v-32-64z"/><path d="m416-304h224v64h-128-88-8z"/><path d="m640-304h32v64h-32z"/><path d="m32-272-32-32h224v64h-160z"/><path d="m224-304h64v64h-8-56z"/><path d="m424-240h-8-128-8v64h8 136z"/><path d="m-32-432h-16v64h16z"/><path d="m-16-336-16-32h-16v32z"/><path d="m32-272-32-32z"/><path d="m640-304h-224 48z"/><path d="m224-304h-224 16z"/><path d="m-16-336h-32z"/><path d="m-16-336 16 32z"/><path d="m280-240v64z"/><path d="m288-304v64z"/><path d="m288-240h-8z"/><path d="m-48-368v-64h-16v64l16 32z"/><path d="m-288-432h128v128z"/><path d="m-160-432v128z"/><path d="m-64-368v-64z"/><path d="m-48-336-16-32z"/><path d="m-352-432v-64l64 64z"/><path d="m-352-432h64l128 128h-16-112-64z"/><path d="m-288-304h112v32 64 32h-112z"/><path d="m-176-208 16 32h-16z"/><path d="m-176-304h16l-16 32z"/><path d="m-352-688h-64v-64h64z"/><path d="m-480-432h32 64 32v128h-128z"/><path d="m-384-432h-64v-128h64z"/><path d="m-448-432h-32v-128h32z"/><path d="m-544-432 64-64v64 128h-64z"/><path d="m96-56v-12z"/><path d="m96-56v8z"/><path d="m245.3333-85.3333-21.3333 5.3333-64 16v8 8l64-16z"/><path d="m272-112h-16l-32 32 21.3333-5.3333z"/><path d="m614-118-6 6 32 64h16z"/><path d="m608-128-21.3333-8h-5.3334-37.3333l64 24 6-6z"/><path d="m416-136 8-3v-13-24h-136l-16 64z"/><path d="m586.6667-136-42.6667-16 37.3333 16z"/><path d="m288-176h-8-8l-16 64h16z"/><path d="m224-176h-8l-16 40 24 24z"/><path d="m581.3333-136-37.3333-16-56-24-8 3v13l64 24z"/><path d="m424-139 56-21v-13l-56 21z"/><path d="m608-112 32 64z"/><path d="m544-136-64-24 128 48z"/><path d="m424-152v-24z"/><path d="m480-173 8-3-8 3-56 21z"/><path d="m544-152-56-24z"/><path d="m256-112-32 32z"/><path d="m272-176-16 64z"/><path d="m200-136 24 24z"/><path d="m216-176-16 40z"/><path d="m224-80-64 16z"/><path d="m96-56h64z"/><path d="m-32-112h64 16v-8h-144v8z"/><path d="m96-48v-8-12h-64-64v20z"/><path d="m-160-176v56 8l-16 16v-80z"/><path d="m-160-120v8h64v-8z"/><path d="m-80-48h48v-20h-64v20z"/><path d="m-320-48h-32-128-64v-128h64 128 32z"/><path d="m-288-176h112v80l-48 48h-32-64v-128z"/><path d="m-160-120v-56 64z"/><path d="m-176-96 16-16-64 64z"/><path d="m-160-112v-8z"/><path d="m32-112h16z"/><path d="m-32-112h-64z"/><path d="m48-120v8z"/><path d="m-96-120h144-208z"/><path d="m-96-48v-20z"/><path d="m32-68h-64z"/><path d="m96-68h-64z"/><path d="m-96-68h64z"/><path d="m-672-432h128v128 96h-128z"/><path d="m-544-208v32 128h-128v-160z"/><path d="m288 528v-128z"/><path d="m864 144v64z"/><path d="m416 384h64z"/><path d="m480 384h64z"/><path d="m672 384h64-96z"/><path d="m544 384h64z"/><path d="m640 384h-32 64z"/><path d="m672 384h64z"/><path d="m864 208-32 64-32 64z"/><path d="m736 384 64-48z"/><path d="m320 352v32h32v-32z"/><path d="m320 384v-32l-32-16v64z"/><path d="m416 384-64-32v32z"/><path d="m320 384h32z"/><path d="m352 384h32 32z"/><path d="m288 400 32-16z"/><path d="m288 528-32 32z"/><path d="m-96 96v-16z"/><path d="m-96 96v-16 128z"/><path d="m96 80h-64-64z"/><path d="m-80 80h48z"/><path d="m-80-48h-16v128h16l16-32v-64z"/><path d="m96 320h-16z"/><path d="m-80 80h-16v16h64v-16z"/><path d="m144 144v32l16-32-16-24z"/><path d="m128 96-32-16v16l32 16z"/><path d="m96 96v-16h-128v16z"/><path d="m144 144v-24l-16-24v16z"/><path d="m144 144v32z"/><path d="m-32 96h-64z"/><path d="m96 96 32 16z"/><path d="m128 112 16 32z"/><path d="m32 176v64z"/><path d="m128 320 16-24v-24l-16 32z"/><path d="m128 240v-64h-96v64z"/><path d="m96 320h32v-16z"/><path d="m144 272v24l16-24-16-32z"/><path d="m144 240h-16z"/><path d="m128 240h-96 112z"/><path d="m144 240v32z"/><path d="m128 304-32 16z"/><path d="m144 272-16 32z"/><path d="m80 400v64z"/><path d="m80 320v16 64z"/><path d="m96 528h64l-64-32-16-8v24 16z"/><path d="m256 336h-32v192h64v-128-64z"/><path d="m160 528h64v-192h-96-32v160z"/><path d="m160 320-32 16h96v-16z"/><path d="m256 336-32-16v16z"/><path d="m96 336v-16h-16v80 64 24l16 8z"/><path d="m96 320v16z"/><path d="m32 512h-64z"/><path d="m-32 512h-64z"/><path d="m64 480 16 8v-24z"/><path d="m64 480-32 32h48v-24z"/><path d="m64 480 16-16-48 48z"/><path d="m80 528v-16h-48-64-64v16z"/><path d="m160 560h96l32-32h-64-64-64z"/><path d="m-160 208h-32-32z"/><path d="m-352 208h-64-96-32z"/><path d="m-544-48v128z"/><path d="m-544 192h224l-32 16h-192z"/><path d="m-544 176v-32h224v48h-224z"/><path d="m-320 144h64v48h-64z"/><path d="m-256 128-64-32h64z"/><path d="m-320 96 64 32h-64l-32-48z"/><path d="m-480 80h128l32 48v16h-224v-64z"/><path d="m-320 144v-16h64v16z"/><path d="m-256 144v-16-32l32-16h64 32 32v16 112h-64-64l-32-16z"/><path d="m-128-48h-32-64-32-64-32v128h128 64 32z"/><path d="m-96-48h-32v128h32z"/><path d="m-480-48v128z"/><path d="m-352-48v128z"/><path d="m-160 80h-64z"/><path d="m-352 80h128z"/><path d="m-256 192h-64z"/><path d="m-320 192-32 16z"/><path d="m-544-48v128 64 32h-128v-160-64z"/><path d="m-544 176v16 16h-32-64-32v-32z"/><path d="m-224 464v64z"/><path d="m-160 464h-64 32z"/><path d="m-160 208h64l-16 32h-48z"/><path d="m-160 240h48v64h-48z"/><path d="m-160 304h48l16 32v128h-64z"/><path d="m-112 240v64z"/><path d="m-96 208-16 32z"/><path d="m-160 240v64 160-32z"/><path d="m-224 528h128z"/><path d="m-384 448v32h128v-32z"/><path d="m-384 512v32h128v-32z"/><path d="m-544 208v128z"/><path d="m-640 208h64v128h-64z"/><path d="m-576 208h32v128h-32z"/><path d="m-416 464v16z"/><path d="m-416 480v48-16z"/><path d="m-448 464h-224 128z"/><path d="m-416 464h-32z"/><path d="m-608 688v-32z"/><path d="m160 688v-32l96-96h32v128z"/><path d="m256 560-96 96z"/><path d="m160 656h-128z"/><path d="m-608 688v-32h128v32z"/><path d="m-704 272v224-96z"/><path d="m-704 48v64 160-96z"/><path d="m-704-176v192 32-96z"/><path d="m-704 112v160z"/><path d="m-736-208h32z"/><path d="m-704-176v-32h-32v224h32z"/><path d="m-736 16v88l32 8v-64-32z"/><path d="m-736-208h-96v224h96z"/><path d="m-832 16v64l96 24v-88z"/><path d="m-832-208-64 64-32 64v96h96z"/><path d="m-928 16v128 8l96-72v-64z"/><path d="m-928 152v152h-32v-128z"/><path d="m-736 104-96-24z"/><path d="m-832-208h96z"/><path d="m-928 16v-96 12 12 16 36 12 16 36 12 16 36 12 8z"/><path d="m-896-144 64-64z"/><path d="m-928-80 32-64z"/><path d="m-928 304h-32z"/><path d="m-920 656-24-36h-16v36z"/><path d="m-944 620-16-60v60z"/><path d="m-864 688-56-32h-40v32z"/><path d="m-424-696h-48z"/><path d="m-424-744v48z"/><path d="m-472-744h48z"/><path d="m-472-696v-48z"/><path d="m-472-696v-48h48v48z"/><path d="m-48-432v96l-16-32v-64z"/><path d="m-64-432h16z"/><path d="m-48-432v96z"/><path d="m-64-368v-64z"/><path d="m-48-336-16-32z"/><path d="m-384 536v8-32z"/><path d="m-384 456v-8z"/><path d="m-384 456v24-32z"/><path d="m-384 480v32z"/><path d="m-224 480v-16z"/><path d="m-224 480v32 16-64z"/><path d="m-256 512v-32z"/><path d="m-256 536v8z"/><path d="m-256 536v-24 32z"/><path d="m-256 456v-8 32z"/><path d="m-240 512v16z"/><path d="m-240 480v32h16v-32z"/><path d="m-240 512v-32-16l-16-8v24 32 24l16-8z"/><path d="m-416 512v16z"/><path d="m-416 480v32h16v-32z"/><path d="m-384 512v-32-24l-16 8v16 32 16l16 8z"/><path d="m-400 480v-16z"/><path d="m-384 544v-8z"/><path d="m-224 528v-16z"/><path d="m-256 448v8z"/><path d="m-240 512v16l-16 8v-24z"/><path d="m-240 512h-16v-32h16 16v32z"/><path d="m-256 456 16 8v16h-16z"/><path d="m-240 464v16z"/><path d="m-240 480h16z"/><path d="m-224 512h-16z"/><path d="m-240 528-16 8z"/><path d="m-256 456 16 8z"/><path d="m-400 512v-32-16l16-8v24 32 24l-16-8z"/><path d="m-416 512v-32h16v32z"/><path d="m-400 512h-16z"/><path d="m-400 464 16-8z"/><path d="m-416 480h16z"/><path d="m-400 528v-16z"/><path d="m-384 536-16-8z"/><path d="m288 688h-32z"/><path d="m-384 480v-24-8z"/><path d="m-384 544v-8-24z"/><path d="m-256 544h-128z"/><path d="m-384 448h128z"/><path d="m-256 448v8 24z"/><path d="m-256 512v24 8z"/><path d="m-384 544v-32h128v32z"/><path d="m-384 480v-32h128v32z"/><path d="m-384 512h128z"/><path d="m-256 480h-128z"/><path d="m160 656v32z"/><path d="m32 688v-32h128v32z"/><path d="m-224 688v-32h128v32z"/><path d="m-480 688v-32z"/><path d="m-224 656-32-16z"/><path d="m-480 688v-32h128v32z"/><path d="m-352 688h-64-64z"/><path d="m-352 688h128z"/><path d="m-96 688h-96-32z"/><path d="m256 688h-128-96 128z"/><path d="m256 688h32-32-128z"/><path d="m808-432h16 64-144z"/><path d="m888-440v8h-64v-16z"/><path d="m808-448v-16h16v16 16h-16z"/><path d="m824-464h-16z"/><path d="m744-432v-8l64-8v16z"/><path d="m744-440v8z"/><path d="m608-112 32 64z"/><path d="m32 656v32h-128v-32z"/><path d="m-352 688v-32l32-16h64l32 16v32z"/><path d="m-224 656v32z"/><path d="m-96 688v-32z"/><path d="m32 656v32z"/><path d="m-352 688v-32z"/><path d="m-256 640h-64z"/><path d="m-320 640-32 16z"/><path d="m-672 528h-32z"/><path d="m-704 528v-32z"/><path d="m-16-424v16 32 16z"/><path d="m16-424h-32v64h32z"/><path d="m-16-424h32z"/><path d="m16-360h-32z"/><path d="m16-376v-32-16 64z"/><path d="m-16-360v-16h8 16 8v16z"/><path d="m-16-376v-32h8v32z"/><path d="m8-408h8v32h-8z"/><path d="m8-408h-16-8v-16h32v16z"/><path d="m104 200v-16h16v16z"/><path d="m104 232v-16h16v16z"/><path d="m120 200h-16z"/><path d="m104 184h16z"/><path d="m104 200v-16z"/><path d="m120 184v16z"/><path d="m104 216h16z"/><path d="m104 232v-16z"/><path d="m120 232h-16z"/><path d="m120 216v16z"/><path d="m32-432-32-48v48z"/><path d="m0-480-32-16v64h32z"/><path d="m32-432-32-48z"/><path d="m-32-496-32-48z"/><path d="m-32-376v-32-24 64z"/><path d="m-16-336 16 32v-72h-8-24v8z"/><path d="m-8-376v-32h-24v32z"/><path d="m-32-432v24h24 8v-24z"/><path d="m8-408h24v-24h-32v24z"/><path d="m32-272v-104h-24-8v72z"/><path d="m32-376v-32h-24v32z"/><path d="m0-408h-8 16z"/><path d="m0-376h8-16z"/><path d="m8-408v32z"/><path d="m-8-376v-32z"/><path d="m0-304-16-32z"/><path d="m-16-336-16-32z"/><path d="m128 192v32h8v-32z"/><path d="m352 352 64 32z"/><path d="m640 384h-64-160 64 64 64z"/><path d="m736 384 64-48z"/><path d="m640 272h-32z"/><path d="m640 208-32 64z"/><path d="m864 208v-64l-64 64v64h32z"/><path d="m800 272v-64h-128l-32 64z"/><path d="m640 208h32z"/><path d="m672 208-32 64z"/><path d="m480 336v-16l-64 16z"/><path d="m736 384 64-48h-224v48z"/><path d="m576 336h-96-64l-64 16 64 32h160z"/><path d="m800 336v-64h-160-32l-32 12v52z"/><path d="m576 284-96 36v16h96z"/><path d="m800 272v64l32-64z"/><path d="m576 284 32-12-64 24-64 24z"/><path d="m416 336 64-16-64 16-64 16z"/><path d="m352 352h-32z"/><path d="m808-464v16z"/><path d="m824-448v-16z"/><path d="m824-432h64v-8l-64-8z"/><path d="m888-432v-8z"/><path d="m888-440-64-8z"/><path d="m808-448v16h16v-16-16h-16z"/><path d="m744-440v8h64v-16z"/><path d="m808-448-64 8z"/><path d="m544 32-128-48v192l128-48z"/><path d="m128 192h8z"/><path d="m136 224h-8z"/><path d="m128 224v-32h8v32z"/><path d="m128 224v-32z"/><path d="m136 192v32z"/><path d="m280 600h8v-16h-8z"/><path d="m256 560v24h32v-24z"/><path d="m288 688v-24h-128v24z"/><path d="m280 664h8v-16h-8z"/><path d="m192 648h-24l-8 8v8h32z"/><path d="m256 648v-88l-88 88z"/><path d="m264 664v-16h-56v16z"/><path d="m256 600v48h32v-48z"/><path d="m256 584v16h8v-16z"/><path d="m208 648v16z"/><path d="m280 600h-16z"/><path d="m264 600v-16z"/><path d="m264 584h16z"/><path d="m280 584v16z"/><path d="m264 648h16z"/><path d="m264 664v-16z"/><path d="m280 664h-16z"/><path d="m280 648v16z"/><path d="m192 648h16z"/><path d="m192 664v-16z"/><path d="m208 664h-16z"/><path d="m256 560h32z"/><path d="m160 688v-32z"/><path d="m288 688h-128z"/><path d="m288 560v128z"/><path d="m256 560h32v128h-128v-32z"/><path d="m160 656 96-96z"/><path d="m-960 176v128 32z"/><path d="m-960 336v224-184z"/><path d="m-64-752h96-160-64z"/><path d="m-352-752h-64z"/><path d="m912 472 16-8z"/><path d="m-640 688h-224 128z"/><path d="m128 688h-96-128 128z"/><path d="m288 688h-32z"/><path d="m928 352v112l-16 8v-32-96z"/><path d="m928 464v-112z"/><path d="m896-336v32 192-192z"/><path d="m896 336 16 8v96l-16 8z"/><path d="m912 344-16-8z"/><path d="m616-560h48l-24 8z"/><path d="m672-552v10.6667l-3.2-1.0667z"/><path d="m664-560h8v8l-3.2 9.6-10.8-3.6-18-6z"/><path d="m672-541.3333v-10.6667-8 8z"/><path d="m-672-304v-128 224z"/><path d="m32-48h64-128z"/><path d="m736-48h-80-16z"/><path d="m-96-48h-80-16-32z"/><path d="m-32-48h-48z"/><path d="m-480-48h128-32-104-24z"/><path d="m-256-48h-64-32-128 128 32z"/><path d="m736-432v128z"/><path d="m736-304h16z"/><path d="m752-304h16z"/><path d="m896-432h-8-64-16-64z"/><path d="m744-432h-8z"/><path d="m896-336v-96h-152-8v128h16 16 128z"/><path d="m896-304h-128v64 128h128z"/><path d="m896-80v-32h-128l-32 64h149.3333z"/><path d="m768-304v64z"/><path d="m768-240v128z"/><path d="m768-112-32 64z"/><path d="m672-240h64z"/><path d="m668.8-542.4-4.8 14.4-6-18z"/><path d="m672-541.3333v37.3333l-8-24 4.8-14.4z"/><path d="m-352-176h-128z"/><path d="m-480-176v-128z"/><path d="m512-560h93.3333l5.8667 17.6 4.8 14.4 6 18-110-36.6667z"/><path d="m616-528-4.8-14.4 10.8-3.6z"/><path d="m658-510-3.6 10.8-14.4-4.8z"/><path d="m672-504v8h-8l-9.6-3.2 3.6-10.8 6-18z"/><path d="m605.3333-560h10.6667l24 8-18 6-10.8 3.6z"/><path d="m512-546.6667 110 36.6667 18 6 14.4 4.8 9.6 3.2h-56-96z"/><path d="m384-496h-224v-64h48 112 64z"/><path d="m448-560h64v13.3333 50.6667h-128v-64z"/><path d="m160-592v-32l16 32z"/><path d="m160-592h16l32 32h-48z"/><path d="m32-432v160l-32-32-32-64v-64-64l32 16z"/><path d="m424-240h88 96v64h-128-56z"/><path d="m416-240h8v64h-8z"/><path d="m-64-544 32 48v64h-64v-64-64z"/><path d="m-224-688h96l64-64h-128-64v64z"/><path d="m-224-560h64v-64h-64z"/><path d="m-160-432v-64h64v64 64 64h-64z"/><path d="m-224-624h64l32-64h-96z"/><path d="m-160-560h64v64h-64z"/><path d="m-96-432h64v64h-64z"/><path d="m-352-752 64 64h32v-64z"/><path d="m-256-688h-32v128h64v-64-64z"/><path d="m-96-208v32h-64l-16-32z"/><path d="m-96-208h-80v-64l16-32h64z"/><path d="m416-240h-128z"/><path d="m384-560h-64z"/><path d="m176-592 32 32z"/><path d="m608-240v64z"/><path d="m-96-208v-96-64 192z"/><path d="m32-272-32-32z"/><path d="m-480-304h128 32z"/><path d="m-352-304v128z"/><path d="m-288-432-64-64z"/><path d="m-160-432h-128z"/><path d="m664-496h8-64z"/><path d="m96-688 64 64-64-64-64-64z"/><path d="m-96-560h-64-64-64z"/><path d="m-32-496 32 16z"/><path d="m-352-496 64-64z"/><path d="m-64-544-32-16z"/><path d="m32-432v24 32 104z"/><path d="m288-240h-224 160 56z"/><path d="m512-240h-88-8-128 128 8z"/><path d="m672-240h-64-96 128z"/><path d="m32-272 32 32z"/><path d="m-176-208v-64z"/><path d="m-176-272 16-32z"/><path d="m-160-176-16-32z"/><path d="m-480-304h128z"/><path d="m-480-304h-8-24z"/><path d="m-480-496-64 64z"/><path d="m160-48v-8z"/><path d="m608-176v64z"/><path d="m480-160v-16h128v64z"/><path d="m480-160-64 24v-40h8 56z"/><path d="m480-160-56 21-8 3z"/><path d="m416-136-144 24h80z"/><path d="m352-112h-80l-16 16v24 24h32 32z"/><path d="m256-72-32 8-64 16h96z"/><path d="m256-72v-24l-32 32z"/><path d="m416-136-144 24z"/><path d="m224-64-64 16z"/><path d="m256-96 16-16-26.6667 26.6667-21.3333 21.3333z"/><path d="m96-48h64v-8h-64z"/><path d="m-160-112h64v64h-128z"/><path d="m-160-112v-64h64v64z"/><path d="m-544-432h-128z"/><path d="m-384 464v64h128v-64z"/><path d="m-96 208h64v32 96h-64l-16-32v-64z"/><path d="m-224 64v-96h112v96z"/><path d="m-80 80h48v-32h-32z"/><path d="m-64 48h32v-64h-32z"/><path d="m-256-48h32v16 96 16l-32 16z"/><path d="m-352-48h32v144l-32-16z"/><path d="m-320-48h64v144h-64z"/><path d="m-32-48h-48l16 32h32z"/><path d="m224 368h64v128h-64z"/><path d="m96 464v-96h64 64v128h-64z"/><path d="m96 368v-32l64 32z"/><path d="m352 528h149.3333l-213.3333 160v-128-32z"/><path d="m288 336 32 16h32l64-16z"/><path d="m352 400v-32h32 80 16v32z"/><path d="m480 352v16h-16z"/><path d="m288 496v-128h64v32 128h-64z"/><path d="m152 256h8v-16h-16z"/><path d="m128 320h32v-48z"/><path d="m160 272v-16h-8z"/><path d="m128 336 32-16h-32-32v16z"/><path d="m85.3333 240 10.6667 16v64 16 32 96h-64l-64-64v-64-96z"/><path d="m64 208 21.3333 32h-117.3333v-32z"/><path d="m256 272v-64h-32v112l32 16z"/><path d="m224 208h-64v32 16 16 48h64z"/><path d="m144 240h16v-32h-32v32z"/><path d="m128 208h32 64 32v-32h-112-16z"/><path d="m192 80h-64v16l32 48z"/><path d="m128 96v-16h-32z"/><path d="m256 176v-96h-64l-32 64-16 32z"/><path d="m288 144v-128-64h-32v128 96h32z"/><path d="m256 176v32 64h32v-96z"/><path d="m96 80h32 64 64v-128h-96-64-64v128z"/><path d="m32-48h-64v32 64 32h64z"/><path d="m288 16 32-64h-32z"/><path d="m352 272-64-128v32 96z"/><path d="m288 336h128l64-16-128-48h-64-32v64z"/><path d="m480 368v-16-32l64-24v40 64h-64z"/><path d="m576 472-32 24-32 24-10.6667 8h-149.3333v-128h128 64 32z"/><path d="m672 400-96 72v-72z"/><path d="m768 496h32l-32 16h-64l-32-16z"/><path d="m800 496v-96-64h96v112z"/><path d="m608 336h32 32 128v64h-32-96-96v-64z"/><path d="m576 400h-32v-64h32z"/><path d="m768 496h-96-128l32-24 96-72h96z"/><path d="m800 400v96h-32v-96z"/><path d="m544 296 64-24v32 32h-32-32z"/><path d="m672 144-32 64h160l64-64z"/><path d="m736 16h-64v128h192v-128z"/><path d="m768 320 32 16h-128l32-16z"/><path d="m608 336v-32l32 32z"/><path d="m640-48 32 64h64v-64z"/><path d="m736-48v64h128l21.3333-64z"/><path d="m768 512h-64z"/><path d="m544 496-32 24z"/><path d="m384 368h-32-64-64-64 128 64z"/><path d="m320-48-32 64z"/><path d="m-112-32h-112 32z"/><path d="m-224-48h32v16h-32z"/><path d="m-224 64h32v16h-32z"/><path d="m-480-48h-32v128h32z"/><path d="m85.3333 240-21.3333-32 16 24 16 24z"/><path d="m-96 80v128z"/><path d="m32 464-64-64z"/><path d="m-416 464h-32z"/><path d="m-384 464v16 32 16z"/><path d="m-448 528h-224 208z"/><path d="m288 560v128z"/><path d="m864 16v128z"/><path d="m885.3333-48-21.3333 64z"/><path d="m640 208h32 128z"/><path d="m800 208 64-64z"/><path d="m320 352-32-16z"/><path d="m160 560h128-32z"/><path d="m-96 464v-128z"/><path d="m-64-16v64z"/><path d="m-80-48 16 32z"/><path d="m-64 48-16 32z"/><path d="m-32 528h128-16-176z"/><path d="m160 320h64z"/><path d="m128 320h-32z"/><path d="m144 176h-16z"/><path d="m128 96 16 24 16 24z"/><path d="m96 80 32 16z"/><path d="m160 144-16 32z"/><path d="m128 208v-32 64z"/><path d="m152 256-8-16 16 32z"/><path d="m160 272-16 24-16 24z"/><path d="m96 336h32z"/><path d="m256 336h32z"/><path d="m128 336 32-16z"/><path d="m224 320 32 16z"/><path d="m96 528 64 32z"/><path d="m-256 96h-64z"/><path d="m-352 80h-128z"/><path d="m-96 80h-32-32-64z"/><path d="m-320 96-32-16z"/><path d="m-224 80-32 16z"/><path d="m-224 528v-16-32-16z"/><path d="m-224 464h64 64z"/><path d="m-96 336-16-32z"/><path d="m-416 464v16 32 16z"/><path d="m-448 464h-224z"/><path d="m-416 528h-32z"/><path d="m-704 272v224z"/><path d="m-704 112v160z"/><path d="m-704 496v32z"/><path d="m-672-208v32l-12-32v-64l12-32z"/><path d="m-684 80v-96l12-16v48 80z"/><path d="m-672 208v32 96l-12-32v-64z"/><path d="m-704 112-32-8z"/><path d="m-896 432v96h128v-96z"/><path d="m-736 104-96-24z"/><path d="m-832 80-96 72-32 24z"/><path d="m-920 656 56 32-96-128 16 60z"/><path d="m-960 560 16 60z"/><path d="m-944 620 24 36z"/><path d="m-920 656 56 32z"/><path d="m864 496h-64l96-48 16-8v32z"/><path d="m544 32v96z"/><path d="m416 176v-192z"/><path d="m416-16 128 48v96l-128 48z"/><path d="m544 128-128 48z"/><path d="m416-16 128 48z"/><path d="m928 352-16-8v128l16-8z"/><path d="m-352-752h-64-64z"/><path d="m736-432v-64z"/><path d="m672-272v-32 32 32z"/><path d="m672-496v64 128z"/><path d="m736-496h-64z"/><path d="m736-304v-128-64h-64v192 32h64z"/><path d="m672-272v32h64v-32z"/><path d="m-480-752v32z"/><path d="m608-240h64z"/><path d="m384-560h64z"/><path d="m512-560h-64z"/><path d="m512-560h104-10.6667z"/><path d="m320-576v16z"/><path d="m384-576v-16z"/><path d="m448-576v16z"/><path d="m512-576v-16z"/><path d="m512-592h-64z"/><path d="m448-592h64v16h-64z"/><path d="m448-576h64v16h-64z"/><path d="m384-592h-64 16z"/><path d="m320-576v-16h64v16z"/><path d="m320-560v-16h64v16z"/><path d="m-256-432h-32-192 184z"/><path d="m-256-432h96-128z"/><path d="m-288-560v-128z"/><path d="m-288-688v128z"/><path d="m-160-496v64-32z"/><path d="m-160-560v64z"/><path d="m-288-560-64 64z"/><path d="m-288-688-64-64z"/><path d="m-352-496v32h32z"/><path d="m-288-432-32-32h-32-128v32z"/><path d="m-480-496v32h128v-32z"/><path d="m-320-464 32 32-64-64z"/><path d="m32-272-32-32z"/><path d="m-32-368 32 64z"/><path d="m-480-464v-32l-32 32z"/><path d="m-512-528-32-32v-128l64-64v32 192z"/><path d="m-480-496-32-32h32z"/><path d="m-480-464h-32l-32 32h64z"/><path d="m-480-432h-64 56z"/><path d="m-512-464 32-32-64 64z"/><path d="m-544-432h-128z"/><path d="m-544-432h-128z"/><path d="m320-592v16z"/><path d="m384-560v-16z"/><path d="m448-576v16l16-8v-8z"/><path d="m496-576v8l16 8v-16z"/><path d="m464-576v8h32v-8z"/><path d="m464-576h32 16v-16h-64v16z"/><path d="m448-592v16z"/><path d="m512-560v-16z"/><path d="m496-576h-32-16 64z"/><path d="m464-576h32 16-64z"/><path d="m336-576v8h32v-8z"/><path d="m368-576v8l16 8v-16z"/><path d="m320-576v16l16-8v-8z"/><path d="m320-592v16h16v-16z"/><path d="m336-592v16h32 16v-16z"/><path d="m336-576h32 16-64z"/><path d="m368-576h-32-16 64z"/><path d="m672-432v-64z"/><path d="m672-432h-16l-16 32v64l16 32h16z"/><path d="m640-400v64z"/><path d="m640-336 16 32z"/><path d="m320-576v16z"/><path d="m384-576v-16z"/><path d="m464-568v-8h32v8z"/><path d="m512-576v16l-16-8v-8z"/><path d="m464-568-16 8v-16h16z"/><path d="m512-592v16h-16-32-16v-16z"/><path d="m512-576v-16z"/><path d="m448-576v16z"/><path d="m512-592h-64z"/><path d="m464-568h32z"/><path d="m496-568 16 8z"/><path d="m448-560 16-8z"/><path d="m336-568-16 8v-16h16z"/><path d="m384-576v16l-16-8v-8z"/><path d="m368-576v8h-32v-8z"/><path d="m320-576v-16h16v16z"/><path d="m368-576h-32v-16h48v16z"/><path d="m384-592h-48-16z"/><path d="m368-568h-32z"/><path d="m384-560-16-8z"/><path d="m336-568-16 8z"/><path d="m896 480-32 16 48-24z"/><path d="m912 440v32-32-96z"/><path d="m912 440v-96 96 32z"/><path d="m928 352-16-8v96 32l16-8z"/><path d="m928 352-16-8z"/><path d="m896 448v-112z"/><path d="m912 344-16-8v112l16-8z"/><path d="m576 176-64-80h-16v16z"/><path d="m576 74.6667-64-10.6667h-16-32-16l-96 16 96 16h16 32 16l64-10.6667z"/><path d="m608 80-32-5.3333v10.6666z"/><path d="m576-16-80 64v16h16z"/><path d="m384 176 80-64v-16h-16z"/><path d="m464 48-80-64 64 80h16z"/><path d="m496 64v-16l-1.6552-9.931-14.3448-86.069-16 96v16z"/><path d="m464 96v16l16 96 16-96v-16z"/><path d="m576 176-64-80z"/><path d="m576 74.6667 32 5.3333-32-5.3333-64-10.6667z"/><path d="m576-16-80 64z"/><path d="m896 448v32l16-8v-32z"/><path d="m864 496h-64z"/><path d="m912 344 16 8v112l-16 8z"/><path d="m928 352v112z"/><path d="m912 472v-128z"/><path d="m928 464-16 8z"/><path d="m912 344 16 8z"/><path d="m632-384v32h8v-32z"/><path d="m320-592v16z"/><path d="m384-560v-16z"/><path d="m512-560v-16z"/><path d="m448-592v16z"/><path d="m448-576h16 32 16z"/><path d="m512-576h-16-32-16z"/><path d="m448-576h64v-16h-64z"/><path d="m448-560h64v-16h-64z"/><path d="m384-576h-16-32-16z"/><path d="m320-576h16 32 16z"/><path d="m320-592v16h64v-16z"/><path d="m384-560v-16h-64v16z"/><path d="m-960 176v160z"/><path d="m864 496 32-16z"/><path d="m-640 688h-32-64-128z"/><path d="m-416 688h-48-176 160z"/><path d="m-192 688h-32-192 64 128z"/><path d="m32 688h-16-176-32 96z"/><path d="m256 688h-96-64-64 96z"/><path d="m800 496-32 16z"/><path d="m-888 656-40-53.3333-32-42.6667 96 128z"/><path d="m-672 432v-96 128z"/><path d="m-672 96v112z"/><path d="m-672-48v-128 144z"/><path d="m-672-432v128z"/><path d="m-488-176h168-32-128-32z"/><path d="m416-240v64z"/><path d="m608-240h-192v64h64 128z"/><path d="m-160-432h-96z"/><path d="m-160-496v-64z"/><path d="m-160-432v24 40z"/><path d="m-96-368h64z"/><path d="m-96-368h-64z"/><path d="m-96-368h-64v192h64z"/><path d="m-320-176h24v-128h-24z"/><path d="m-176-368v-40h-120v104 128h120z"/><path d="m-160-368h-16v192h16z"/><path d="m-176-368h16v-40h-16z"/><path d="m-320-304h24v-104-24h-184v128z"/><path d="m-176-408h16v-24h-96-40v24z"/><path d="m-320-304h-32v128h32z"/><path d="m-480-432h-8v128h8z"/><path d="m-544-304h32 24v-128h-56z"/><path d="m-544-176h32v-128h-32z"/><path d="m-512-176h32v-128h-32z"/><path d="m416-136 64-24v-16h-64z"/><path d="m608-176h-128v16l128 48z"/><path d="m480-160 128 48z"/><path d="m608-112 32 64z"/><path d="m416-176v40z"/><path d="m416-136-64 24z"/><path d="m352-112-32 64z"/><path d="m-96-176v128-64z"/><path d="m-544-48h32 24v-128h-24-32z"/><path d="m-384-48h88v-128h-24-168v128z"/><path d="m-296-176v128h104 16v-128z"/><path d="m-160-176h-16v128h80v-128z"/><path d="m-672-176v128h128v-128z"/><path d="m-672-176h128v-128h-128z"/><path d="m-672-432v128h128v-128z"/><path d="m672 16v128z"/><path d="m800 432v-64 32z"/><path d="m896 336h-96z"/><path d="m896 448v-112h-96v32 64 32 32z"/><path d="m768 512 32-16v-32h-32-32-32-32v32l32 16z"/><path d="m704 432v-64-48l-32 16v16 16 32 64h32z"/><path d="m800 336-32-16h-64v48h32 64z"/><path d="m736 464h32z"/><path d="m704 320h64z"/><path d="m672 496 32 16z"/><path d="m672 336 32-16z"/><path d="m768 320 32 16z"/><path d="m512 520-64 48-160 120 213.3333-160z"/><path d="m640-48 32 64z"/><path d="m96 336v-16-64z"/><path d="m448 368h16-80z"/><path d="m288 16v128z"/><path d="m608 272-128 48z"/><path d="m320-48-32 64z"/><path d="m672 144-64 128 32-64z"/><path d="m352 272-64-128z"/><path d="m480 320-128-48z"/><path d="m608 304v32h32z"/><path d="m608 352v-16-32-32l-128 48v32z"/><path d="m672 368v-16h-64-128l-16 16z"/><path d="m640 336h-32v16h64v-16z"/><path d="m608 272v32z"/><path d="m672 336h-32z"/><path d="m608 304 32 32z"/><path d="m480 320v32z"/><path d="m464 368 16-16z"/><path d="m160 368-64-32v32z"/><path d="m160 368-64-32z"/><path d="m448 416v32 32 32z"/><path d="m512 520 32-24 128-96v-32h-208-16v48 96 56z"/><path d="m288 512v-16 32 32z"/><path d="m352 512h96-32-32z"/><path d="m384 368h-32v48h96v-48z"/><path d="m352 416v-48h-64v128 16h64z"/><path d="m288 560v128l160-120v-56h-96-64z"/><path d="m160 496h64 64z"/><path d="m160 496v-32h-64z"/><path d="m160 368v96 32h128v-128z"/><path d="m160 464v-96h-64v96z"/><path d="m96 464 64 32z"/><path d="m160 688v-128l-64-32v160z"/><path d="m160 560v128h96 32v-128z"/><path d="m288 560h-128z"/><path d="m160 560-64-32z"/><path d="m-488 80h104 32-128-32z"/><path d="m-96 80h-128 32z"/><path d="m-112 64v-96z"/><path d="m-296 64v16h104v-16z"/><path d="m-192-32h-104v96h104 80v-96z"/><path d="m-512-48h-32-128v16 112h160z"/><path d="m-296-48v16h104v-16z"/><path d="m-296 64v-96-16h-88v128h88z"/><path d="m-384-48h32v128h-32z"/><path d="m-112 64h-80-32z"/><path d="m-672 656h32v-32-64h-32z"/><path d="m-640 688h176v-32h-64-48-32-32-32v32z"/><path d="m-640 560h32 144v-32h-208v32z"/><path d="m-384 528v-16h48 32 48v16z"/><path d="m-448 528h-16v32 64 32 32h48v-128-32z"/><path d="m-304 560h-32-80v128h192v-128z"/><path d="m-384 512v-32h48v32z"/><path d="m-304 480h48v32h-48z"/><path d="m-304 480h-32-48v-16h128v16z"/><path d="m-448 432h-40-184v32h224z"/><path d="m-416 464v-32h-32v32z"/><path d="m-224 528v32 128h32 32v-32-32-64-32z"/><path d="m-32 528h-128v32h64 48 64v-32z"/><path d="m-16 656h-112-32v32h176v-32z"/><path d="m-32 384h16v-48h-16z"/><path d="m-160 432v32h64v-32z"/><path d="m-224 432v32h64v-32z"/><path d="m-488 288h-184v48 96h184z"/><path d="m-488 208h-184v80h184z"/><path d="m-16 288v-80h-16-64v128h64 16z"/><path d="m-488 80h-24-160v16 112h184z"/><path d="m-488 208v80 144h40 32 80 32 8v-224z"/><path d="m-296 80h-88-104v128h192z"/><path d="m-296 208v224h72 64 64v-96-128z"/><path d="m-96 80h-96-104v128h200z"/><path d="m96 528h-80v32 96 32h16 64z"/><path d="m32 464h48v-80h-64-32-16v16z"/><path d="m96 368v-32h-16v48 80h16z"/><path d="m16 288h64v-56l-16-24h-80v80z"/><path d="m96 336v-80l-16-24v56 48z"/><path d="m16 384h64-32z"/><path d="m80 336v-48 32 32 32z"/><path d="m-16 656h-32-48-32z"/><path d="m-96 560h-64 32z"/><path d="m-304 432h-32z"/><path d="m-296 432h-8z"/><path d="m-336 560h32z"/><path d="m-464 624v-64 32z"/><path d="m-640 656h32z"/><path d="m-608 656h32z"/><path d="m-464 656h-32-32z"/><path d="m-256 512v-32-16 64z"/><path d="m-96 336h64z"/><path d="m-32 208h-64z"/><path d="m-16 208h80-96z"/><path d="m16 528h80-128z"/><path d="m-160 528h128-64-128z"/><path d="m-96 432v32-128z"/><path d="m80 464h-48 64z"/><path d="m-32 384v-48 64z"/><path d="m-160 464h-64 128z"/><path d="m-224 528v-64z"/><path d="m-384 464h128z"/><path d="m-448 464h-224z"/><path d="m-416 512v-48 64z"/><path d="m-256 528h-128z"/><path d="m-416 528h-32z"/><path d="m672 496v-32-64l-128 96z"/><path d="m544 496h128z"/><path d="m-704 528h16 16z"/><path d="m-672 288h-12v16l12 32z"/><path d="m-672 208-12 32v48h12z"/><path d="m-704 272v-160l-32-8v72 64 88h32z"/><path d="m-736 328v72 128h32v-32-168z"/><path d="m-672 80v-112l-12 16v96l12 16z"/><path d="m-672-176v-128l-12 32v64z"/><path d="m-704 272v56 168z"/><path d="m-684 288v-48 64z"/><path d="m-684-16v96z"/><path d="m-684-272v64z"/><path d="m-672-32-12 16z"/><path d="m-684 304 12 32z"/><path d="m-684 80 12 16z"/><path d="m-672 208-12 32z"/><path d="m-684-208 12 32z"/><path d="m-672-304-12 32z"/><path d="m-704 112-32-8z"/><path d="m-704 528h-32v32 96h48v-96-32z"/><path d="m-688 560v96h16v-96z"/><path d="m-672 656h-16-48v32h64z"/><path d="m-672 528h-16v32h16z"/><path d="m-816 560h-32-80v42.6667l40 53.3333h152v-96z"/><path d="m-816 464h-32-48v-32h128v32z"/><path d="m-816 464h48v32h-48z"/><path d="m-896 496v-32h48v32z"/><path d="m-896 528v-32h48 32 48v32z"/><path d="m-736 328v-88h-64-64-64v136 24h80 112z"/><path d="m-864 216v-16-24h-64v64h64z"/><path d="m-736 176h-64v24 16 24h64z"/><path d="m-928 240v-64-24l-32 24v160 40h32z"/><path d="m-960 376v184l32 42.6667v-42.6667-32-128-24z"/><path d="m-736 104-96-24-96 72v24h64 64 64z"/><path d="m-800 176h-64 24 16z"/><path d="m-800 176v24z"/><path d="m-800 200v16z"/><path d="m-800 216v24z"/><path d="m-864 240h64-24-16z"/><path d="m-848 560h32z"/><path d="m-928 400v128-32-32z"/><path d="m-896 432h128z"/><path d="m-928 152 96-72-128 96z"/><path d="m-768 528h-128z"/><path d="m-896 464v32 32-96z"/><path d="m-768 496v-32-32 96z"/><path d="m-736 656h-152l24 32h128z"/><path d="m864 496 32-16v-32l-96 48z"/><path d="m896 480v-32z"/><path d="m736 464h-32z"/><path d="m768 368h32-64z"/><path d="m768 368h-32v96h32z"/><path d="m448 512h-32z"/><path d="m384 416h-32z"/><path d="m384 416h32 32-96z"/><path d="m384 416v96z"/><path d="m416 416h-32v96h32z"/><path d="m80 384h-32z"/><path d="m16 384h-32z"/><path d="m48 288h32-64z"/><path d="m48 288h-32v96h32z"/><path d="m-16 656h32z"/><path d="m-128 656h-32z"/><path d="m-16 560h32-64z"/><path d="m-128 560h-32z"/><path d="m-48 560v96z"/><path d="m-16 560h-32v96h32z"/><path d="m-128 560v96z"/><path d="m-96 560h-32v96h32z"/><path d="m-528 656h-48z"/><path d="m-464 656h-32z"/><path d="m-576 560h48 32 32-144z"/><path d="m-528 560v96z"/><path d="m-496 560h-32v96h32z"/><path d="m-576 560h-32v96h32z"/><path d="m-864 176h24z"/><path d="m-800 240h-24z"/><path d="m-840 176v64z"/><path d="m-824 176h-16v64h16z"/><path d="m576 176-80-64v-16h16z"/><path d="m576 85.3333-64 10.6667h-16-32-16l-96-16 96-16h16 32 16l64 10.6667z"/><path d="m608 80-32 5.3333v-10.6666z"/><path d="m576-16-64 80h-16v-16z"/><path d="m496 96v16l-16 96-16-96v-16z"/><path d="m480-48 14.3448 86.069 1.6552 9.931v16h-32v-16z"/><path d="m384-16 80 64v16h-16z"/><path d="m464 112-80 64 64-80h16z"/><path d="m384 176 64-80z"/><path d="m496 48-1.6552-9.931z"/><path d="m576-16-64 80z"/><path d="m576 85.3333 32-5.3333-32 5.3333-64 10.6667z"/><path d="m464 112-80 64z"/><path d="m576 176-80-64z"/><path d="m480 208 16-96z"/><path d="m480 208-16-96z"/><path d="m494.3448 38.069-14.3448-86.069z"/><path d="m448 96-96-16z"/><path d="m464 48 16-96z"/><path d="m352 80 96-16z"/><path d="m384-16 80 64z"/><path d="m448 64-64-80z"/><path d="m-336 560h-48-32z"/><path d="m-304 560h80z"/><path d="m-304 480v32z"/><path d="m-336 512v-32z"/><path d="m-336 512v-32-48 128z"/><path d="m-304 512h-32z"/><path d="m-336 480h32z"/><path d="m-336 432v48h32v-48z"/><path d="m-336 512v48h32v-48z"/><path d="m-816 400h80-112z"/><path d="m-848 560h-48-32z"/><path d="m-816 560h80z"/><path d="m-848 496v-32-64 160z"/><path d="m-848 496v-32z"/><path d="m-816 464v32z"/><path d="m-816 496h-32z"/><path d="m-848 464h32z"/><path d="m-848 400v64h32v-64z"/><path d="m-816 496h-32v64h32z"/><path d="m632-352v-32h8v32z"/><path d="m640-352h-8z"/><path d="m632-384h8z"/><path d="m640-384v32z"/><path d="m632-352v-32z"/><path d="m768 464h32z"/><path d="m736 464h32z"/><path d="m800 368h-32z"/><path d="m768 368v96z"/><path d="m736 464v-96z"/><path d="m736 368h32v96h-32z"/><path d="m384 512h-32z"/><path d="m384 512h32 32-96z"/><path d="m352 416v96-32-32z"/><path d="m416 416h-32-32z"/><path d="m416 416h32z"/><path d="m416 416v96z"/><path d="m384 416h32v96h-32z"/><path d="m80 288h-32z"/><path d="m48 288v96z"/><path d="m16 384v-96z"/><path d="m16 288h32v96h-32z"/><path d="m-160 656v-32z"/><path d="m-160 560v64-32z"/><path d="m16 656v-96 32 32z"/><path d="m-48 656h32 32z"/><path d="m-48 656h-48z"/><path d="m16 560h-32z"/><path d="m-48 560h-48z"/><path d="m-96 560h-32-32z"/><path d="m-16 560v96z"/><path d="m-48 560h32v96h-32z"/><path d="m-96 560v96z"/><path d="m-128 560h32v96h-32z"/><path d="m-496 656h32-64z"/><path d="m-608 560h-32z"/><path d="m-576 560h-32z"/><path d="m-576 560h48z"/><path d="m-464 560h-32z"/><path d="m-496 560v96z"/><path d="m-528 560h32v96h-32z"/><path d="m-576 560v96z"/><path d="m-608 656v-96z"/><path d="m-608 560h32v96h-32z"/><path d="m-824 176h24z"/><path d="m-824 176h-16-24 64z"/><path d="m-840 240h16 24-64z"/><path d="m-840 240h-24z"/><path d="m-824 176v64z"/><path d="m-840 176h16v64h-16z"/><path d="m-480-752-64 64z"/><path d="m-736 560v-32-128 64 32z"/><path d="m-544-688v128z"/><path d="m-288-688v128z"/><path d="m-352-496h-128z"/><path d="m-288-560-64 64z"/><path d="m-288-688-64-64z"/><path d="m-544-560 32 32 32 32z"/><path d="m800 432v32z"/><path d="m800 400v-32z"/><path d="m704 368h32z"/><path d="m704 368v32z"/><path d="m704 400v-32 64z"/><path d="m800 432v-32h-96v32z"/><path d="m800 400h-96z"/><path d="m448 416v32z"/><path d="m448 512v-32z"/><path d="m352 512v-32z"/><path d="m448 480v-32h-96v32z"/><path d="m448 448h-96z"/><path d="m-224 560v-32-64 16 32z"/><path d="m80 384h-64 32z"/><path d="m80 288v32z"/><path d="m-16 288h32z"/><path d="m-16 352v-32-32 48 48z"/><path d="m-16 384v-32z"/><path d="m80 352v-32h-96v32z"/><path d="m80 320h-96z"/><path d="m16 560v32z"/><path d="m16 624v-32h-176v32z"/><path d="m16 592h-176z"/><path d="m-296 432h40 32z"/><path d="m-304 560h80-32-80z"/><path d="m-336 432h32v128h-32z"/><path d="m-304 432v48 32 48z"/><path d="m-464 560v32z"/><path d="m-464 624v32z"/><path d="m-640 592v-32 64z"/><path d="m-464 624v-32h-176v32z"/><path d="m-464 592h-176z"/><path d="m-736 400h-80z"/><path d="m-864 200v16z"/><path d="m-800 200h-64v16h64z"/><path d="m-816 560h80-32-80z"/><path d="m-848 400h32v160h-32z"/><path d="m-816 400v64 32 64z"/><path d="m-736 400v64z"/><path d="m-224 480v-16z"/><path d="m-224 560v-48z"/><path d="m-416 480v-16 48z"/><path d="m-224 480h-192z"/><path d="m-224 512v-32h-192v32z"/><path d="m-928 400h32 48z"/><path d="m-736 464h-192z"/><path d="m-736 496v-32h-192v32z"/><path d="m800 432v-32-32z"/><path d="m704 432v32z"/><path d="m800 400v32h-96v-32z"/><path d="m800 432h-96z"/><path d="m448 448v-32 64z"/><path d="m352 448v32 32-96z"/><path d="m352 448v-32z"/><path d="m448 448v32h-96v-32z"/><path d="m448 480h-96z"/><path d="m80 352v32z"/><path d="m80 352v-32-32 96z"/><path d="m-16 288v32z"/><path d="m80 320v32h-96v-32z"/><path d="m80 352h-96z"/><path d="m-160 592v-32z"/><path d="m16 624v-32-32 96z"/><path d="m16 624v32z"/><path d="m16 592v32h-176v-32z"/><path d="m16 624h-176z"/><path d="m-464 592v-32 64z"/><path d="m-640 560v32z"/><path d="m-640 624v32z"/><path d="m-464 592v32h-176v-32z"/><path d="m-464 624h-176z"/><path d="m-800 200v-24 40z"/><path d="m-864 176v24z"/><path d="m-800 216h-64z"/><path d="m-864 200h64z"/><path d="m-864 200h64v16h-64z"/><path d="m0-752h32-96z"/><path d="m616-560h56-8z"/><path d="m32-400v-32z"/><path d="m32-304v-64 96z"/><path d="m288-240h-192-32z"/><path d="m32-272 32 32z"/><path d="m96-496v64z"/><path d="m224-560h64 32-112z"/><path d="m512-560h-64-64-64z"/><path d="m512-560h-192-32 64z"/><path d="m616-560h-104 32 61.3333z"/><path d="m176-592h-80v32h112z"/><path d="m160-624-64-64v96h80z"/><path d="m96-688 64 64z"/><path d="m176-592-16-32z"/><path d="m288-560h-64v64 64 64 32h64z"/><path d="m224-336v32h64v-32z"/><path d="m96-432v64h128v-64z"/><path d="m208-560h-112v64h128v-64z"/><path d="m288-304h-64-128v32 32h192z"/><path d="m224-336v-32 64z"/><path d="m224-432v-64z"/><path d="m288-336v32 64h64v-32-64z"/><path d="m64-720-32-32v224h32z"/><path d="m32-528v96 32 32 64h32v-192-32z"/><path d="m32-304v32l32 32v-32-32z"/><path d="m96-560v-32-96l-32-32v192 32h32z"/><path d="m64-496v192 32h32v-32-64-64-64z"/><path d="m64-272v32h32v-32z"/><path d="m32-752 32 32 32 32z"/><path d="m-160-624v64z"/><path d="m32-528v-224h-32v224z"/><path d="m32-432v-96h-32v48z"/><path d="m0-752h-64v208l10.6667 16h53.3333z"/><path d="m-53.3333-528 21.3333 32 32 16v-48z"/><path d="m-64-752-32 32v160l32 16z"/><path d="m-96-720-32 32-32 64v64h64z"/><path d="m-96-720 32-32-64 64z"/><path d="m-128-688-32 64z"/><path d="m-736 496v64z"/><path d="m-736 496v-32-64 160z"/><path d="m-224 560v-48-32-16z"/><path d="m-416 464v16z"/><path d="m-224 480v32h-192v-32z"/><path d="m-224 512h-192z"/><path d="m-928 528v32z"/><path d="m-928 464v-64z"/><path d="m-928 528v-32z"/><path d="m-736 464v32h-192v-32z"/><path d="m-736 496h-192z"/><path d="m672-432v-64 2.6667 29.3333 160z"/><path d="m672-496v-8-37.3333 37.3333z"/><path d="m32-400v32z"/><path d="m640-400 16-32h16v128h-16l-16-32z"/><path d="m672-304h-16z"/><path d="m656-432h16z"/><path d="m640-400 16-32z"/><path d="m32-432h-128z"/><path d="m-96-560 32 16z"/><path d="m-128-560h-32z"/><path d="m-128-560h32-64z"/><path d="m-128-560v128h32v-128z"/><path d="m32-400v-32h-128-32v32z"/><path d="m-128-432v32z"/><path d="m800 368h-32-32z"/><path d="m704 368v32 32z"/><path d="m-224 464v-32z"/><path d="m80 288h-32-32z"/><path d="m-16 288v32 32 32z"/><path d="m-160 624v-64 32z"/><path d="m-160 656h32 32z"/><path d="m16 560h-32-32z"/><path d="m-416 432v32z"/><path d="m-416 464v16 32z"/><path d="m-416 560v-48 16z"/><path d="m-416 432h32 48z"/><path d="m-224 464v-32h-32v128h32z"/><path d="m-640 560v32 32z"/><path d="m-576 656h-32z"/><path d="m-464 560h-32-32z"/><path d="m-736 400h-80-32 80z"/><path d="m-864 216v24z"/><path d="m-864 176v24 16z"/><path d="m-928 528v-128 64 32z"/><path d="m-736 400h-32v160h32z"/><path d="m32-368v-32-32z"/><path d="m-96-560v128z"/><path d="m-128-432v-128h32v128z"/><path d="m-128-432v-128z"/><path d="m32-400h-160z"/><path d="m-96-432h128v32h-160v-32z"/><path d="m658-546-18-6z"/><path d="m672-552v-8h-8l-24 8 18 6 10.8 3.6z"/><path d="m672-541.3333v-10.6667l-3.2 9.6z"/><path d="m664-560h-48l24 8z"/><path d="m664-560h8-56z"/><path d="m664-528-6-18z"/><path d="m664-528 4.8-14.4-10.8-3.6z"/><path d="m672-504v-37.3333l-3.2-1.0667-4.8 14.4z"/><path d="m576-240h-160 192z"/><path d="m608-240h64z"/><path d="m352-240h-64 128z"/><path d="m608-464h-64z"/><path d="m416-464h-64z"/><path d="m544-536v-24h-32-160v96h64 128z"/><path d="m672-493.3333v-2.6667-8l-8-24-6 18-3.6 10.8z"/><path d="m616-560h-10.6667l5.8667 17.6 10.8-3.6 18-6z"/><path d="m544-464h64 64v-29.3333l-17.6-5.8667-14.4-4.8-18-6-78-26z"/><path d="m616-528-4.8-14.4-5.8667-17.6h-61.3333v24l78 26z"/><path d="m622-546-10.8 3.6 4.8 14.4z"/><path d="m640-504 14.4 4.8 3.6-10.8z"/><path d="m640-504 18-6z"/><path d="m622-510 18 6z"/><path d="m658-510 6-18z"/><path d="m616-528 6 18z"/><path d="m622-546-6 18z"/><path d="m640-552-18 6z"/><path d="m544-272h32 32z"/><path d="m608-464v192z"/><path d="m672-304v-160h-64v192h64z"/><path d="m416-464v192z"/><path d="m544-464h-128v192h128z"/><path d="m576-272h-32-128-64v32h64 160z"/><path d="m672-272h-64-32v32h32 64z"/><path d="m352-464v-96h-64v224h64z"/><path d="m96-368v64z"/><path d="m352-464v128 64z"/><path d="m352-272h64z"/><path d="m544-464v192z"/><path d="m96-432h128z"/><path d="m224-496h-128z"/><path d="m224-368h-128z"/><path d="m96-304h128z"/><path d="m-352-752h-128z"/><path d="m-896 400h-32v128 32h32z"/><path d="m-288-688v128z"/><path d="m-544-688v128z"/><path d="m-160-464v32z"/><path d="m-160-464v-32z"/><path d="m32-432-32-48z"/><path d="m-64-544 32 48-21.3333-32z"/><path d="m-32-496 32 16z"/><path d="m-96-560h-32-32z"/><path d="m-480-496h128z"/><path d="m-352-496 64-64z"/><path d="m-288-688-64-64z"/><path d="m-96-368h64z"/><path d="m0-304-32-64z"/><path d="m-544-560 64 64z"/><path d="m352-112-32 64z"/><path d="m480-160-64 24-64 24z"/><path d="m672 16v128z"/><path d="m640-48 32 64z"/><path d="m288 16v128z"/><path d="m672 144-64 128z"/><path d="m352 272-64-128z"/><path d="m480 320-128-48z"/><path d="m-336 432h40-8z"/><path d="m-384 432h-32v32 48 48h32z"/><path d="m-480-752-64 64z"/><path d="m-480-496h128z"/><path d="m-544-688v128z"/><path d="m-288-688-64-64z"/><path d="m-352-496 64-64z"/><path d="m-544-560 64 64z"/></g></defs><path d="m-1104-896h2264v1728h-2264z" fill="#fff"/><g stroke="#000"><use fill="none" stroke-miterlimit="0" stroke-width="15" xlink:href="#a"/><use fill="#fff" xlink:href="#a"/></g></svg>