<svg viewBox="-515 -1155 2118 1958" xmlns="http://www.w3.org/2000/svg" xmlns:xlink="http://www.w3.org/1999/xlink"><defs><g id="a"><path d="m576 160h32z"/><path d="m608 160h-32v-32h32z"/><path d="m544-64h32 32v192h-32-32z"/><path d="m576-64v-32h32v32z"/><path d="m608-96v32z"/><path d="m544-96h-96z"/><path d="m416-96h-32z"/><path d="m448 160h96z"/><path d="m448-64v-32h96v32 192h-96z"/><path d="m544 128v32h-96v-32z"/><path d="m416-64h32v192h-32z"/><path d="m384-64v-32h32v32 192h-32z"/><path d="m416 128v32h-32v-32z"/><path d="m384-64v192 32z"/><path d="m608-64v-32h-32v32 192 32h32z"/><path d="m576 128v-192-32h32v32 224h-32z"/><path d="m544-64h32v192h-32z"/><path d="m576-64h-32v192h32z"/><path d="m448-64h-32v192h32z"/><path d="m416-64h32v192h-32z"/><path d="m448 128v-192-32h96v32 192 32h-96z"/><path d="m544 128v-192-32h-96v32 192 32h96z"/><path d="m416 128v-192-32h-32v32 224h32z"/><path d="m384-64v-32h32v32 192 32h-32z"/><path d="m576 160h32z"/><path d="m544 160h-96z"/><path d="m448 128v32-16-32z"/><path d="m544-64v-32 16 32z"/><path d="m608-96v32z"/><path d="m544 128h32v-16h-32z"/><path d="m576-64h-32v16h32z"/><path d="m544-96h-96z"/><path d="m416-96h-32z"/><path d="m384-64v224-32z"/><path d="m416-64v-32 16 32z"/><path d="m448-64h-32v16h32z"/><path d="m544 160v-32z"/><path d="m544-64v-32z"/><path d="m608-96h-32z"/><path d="m576 128v32z"/><path d="m576-96v32z"/><path d="m608-64v224-32z"/><path d="m544 128h32z"/><path d="m576-64h-32z"/><path d="m384 160h32z"/><path d="m448-96v32z"/><path d="m448 128v32z"/><path d="m416-64v-32z"/><path d="m416 160v-32z"/><path d="m416 128h32z"/><path d="m448-64h-32z"/><path d="m384-96v32z"/><path d="m0-480h-224z"/><path d="m0-768v32 32z"/><path d="m0-768v64 112h-224v-16-160z"/><path d="m0-592v112h-224v-112z"/><path d="m448 224h-16z"/><path d="m864 96v64z"/><path d="m800 160h64z"/><path d="m608 160h32 160-96-128z"/><path d="m384 160h32z"/><path d="m288 160h16z"/><path d="m800-96v-32l64 64h-64z"/><path d="m768 96h96v64h-64-160v-64z"/><path d="m704-96v-32h96v32z"/><path d="m672 0 32 32h-32z"/><path d="m608-64v-32h64v96 32h-32-32z"/><path d="m640 32h32 32l64 64h-128z"/><path d="m608 32h32v64 64h-32z"/><path d="m704-128v32z"/><path d="m704 32-32-32 16 16 80 80z"/><path d="m608-96h-32z"/><path d="m608-64v96 128z"/><path d="m384-96v32z"/><path d="m336-96h48v32 192h-53.3334l-10.6666-64v-64z"/><path d="m384 128v32h-48l-5.3334-32z"/><path d="m304 64h16z"/><path d="m288 64h16z"/><path d="m320 0h-16z"/><path d="m304 0h-16z"/><path d="m288 0v-96h16z"/><path d="m304-96h-16z"/><path d="m320 0v64h-16v-64z"/><path d="m304 0v64h-16v-64z"/><path d="m304 160h-16v-96z"/><path d="m432 224h16v48z"/><path d="m256 224h64 96l16 48v64l-16 48h-160z"/><path d="m432 384 16-48v48z"/><path d="m448 336h-16v-64h16z"/><path d="m80 384v-32h16v192h-16z"/><path d="m96 544v-192h96v224h-96z"/><path d="m64 352h16v32h-16z"/><path d="m64 544h-128v-160h128 16v160z"/><path d="m-64 384v160h-32v-192h32z"/><path d="m-192 352h96v192 32h-96z"/><path d="m64 544v32h-128v-32z"/><path d="m192 352v128 96z"/><path d="m432 384h16z"/><path d="m416 384h-64-96z"/><path d="m192 576h-96z"/><path d="m64 352v32z"/><path d="m80 544h16-16-16z"/><path d="m-96 352h-96 128z"/><path d="m-224-480h-48l-48-19.2v-89.6l8-3.2h88z"/><path d="m-304-595.2 32-12.8h48v16h-88z"/><path d="m-272-608-32 12.8z"/><path d="m-272-480-32-12.8-16-6.4z"/><path d="m-352-512v-64l32-12.8v89.6z"/><path d="m-352-224h96v96h-96z"/><path d="m-352-128h96z"/><path d="m-256-224v96z"/><path d="m-256-224h-96z"/><path d="m-320-608h-32v128h32z"/><path d="m304 0h-16v64h16z"/><path d="m448 272h-16v64h16z"/><path d="m-192 544v-192 224z"/><path d="m192 480v-128z"/><path d="m64 576h-128z"/><path d="m-96 576h-96z"/><path d="m-64 384v-32z"/><path d="m-64 544v32z"/><path d="m-64 576h128v-32h-128z"/><path d="m64 544v32h-128v-32z"/><path d="m64 544h-128v-160h128 16v160z"/><path d="m64 384h-128v160h128 16v-160z"/><path d="m80 384v-32h-16v32z"/><path d="m64 384v-32h16v32z"/><path d="m96 544v-192h96v128 96h-96z"/><path d="m192 480v-128h-96v192 32h96z"/><path d="m80 384v-32h16v192h-16z"/><path d="m96 352h-16v32 160h16z"/><path d="m64 352v32z"/><path d="m80 544h16-32z"/><path d="m64 576v-32z"/><path d="m80 352h16 96-96-16-16z"/><path d="m96 544v32z"/><path d="m64 384h-128z"/><path d="m-192 352h128z"/><path d="m-96 544h32z"/><path d="m-96 544h-96v-192h128v32 160z"/><path d="m-192 352v192h96 32v-160-32z"/><path d="m-96 576v-32z"/><path d="m-192 576v-32h96v32z"/><path d="m-192 544v32h96v-32z"/><path d="m672 0v-96z"/><path d="m800 96h64-96z"/><path d="m800 96v-16h64v16z"/><path d="m688-96h-16z"/><path d="m688 16v-48l112 112v16h-32z"/><path d="m672-96h16v64 48l-16-16z"/><path d="m688-32 16 16 96 96z"/><path d="m192 352v-16 16 128z"/><path d="m192 480v64 32z"/><path d="m96 288h64z"/><path d="m-96 256v32h-64v-32z"/><path d="m-96 256h-64z"/><path d="m-64 384v-32z"/><path d="m-64 384h128z"/><path d="m192 352h-96-16-16z"/><path d="m96 288h64l32 48v16h-128v-16z"/><path d="m-192 352v-16l32-48h64l32 48v16z"/><path d="m-96 256h-64v32h64z"/><path d="m-192 352v192 32z"/><path d="m-192 352v-16z"/><path d="m864 80v16z"/><path d="m864 96v64z"/><path d="m864 160h-64z"/><path d="m544 160h-96z"/><path d="m416 160h-80 48z"/><path d="m544 144v16-32-16z"/><path d="m800-128v32 32h64z"/><path d="m832 64h-32v-32z"/><path d="m832 64h32v16h-64v-16z"/><path d="m800-128h-96v32h96z"/><path d="m704-16v-48l96 96v32 16z"/><path d="m688-32v-64h16v32 48z"/><path d="m864 64h-32z"/><path d="m576 112v16 32z"/><path d="m576-80v-16 32 16z"/><path d="m800-128h-96z"/><path d="m800-64v-32z"/><path d="m864-64h-64z"/><path d="m800-128 64 64z"/><path d="m864 80h-64z"/><path d="m800-96h-96z"/><path d="m688-32v-64z"/><path d="m672-96h-64-32z"/><path d="m416 112v32 16-32z"/><path d="m448 112h-32v16h32z"/><path d="m64 576h-32-64-32z"/><path d="m-64 576v-32z"/><path d="m-192 336 21.3333-32 10.6667-16z"/><path d="m-32 584v-8h64v8z"/><path d="m1248 32v-48z"/><path d="m1248 32-32 192z"/><path d="m1056 128v-96z"/><path d="m1168-64 80 48v48h-160-32v-96z"/><path d="m1120 224h96z"/><path d="m1088 32h160l-32 192h-96z"/><path d="m864 64v16z"/><path d="m1056-64v96 96h-128v-96-96z"/><path d="m928-64v96h-64v-96z"/><path d="m864 32h64z"/><path d="m1056-64h-128-64z"/><path d="m1056 128h-128z"/><path d="m704-64v-32z"/><path d="m832-96 32 32v96 32h-32l-128-128v-32z"/><path d="m832 64-32-32-96-96z"/><path d="m64 544v32z"/><path d="m96 544v32h-32v-32z"/><path d="m-64 544h-32z"/><path d="m-96 544v32z"/><path d="m-96 544h32v32h-32z"/><path d="m1056 128v-96 128z"/><path d="m272-480h-80z"/><path d="m400-480h-80-16z"/><path d="m432-480h80z"/><path d="m485.3333-832h-5.3333z"/><path d="m480-832h-32z"/><path d="m224-832h-5.3333z"/><path d="m480-832h-32-16v-112-48h80l-26.6667 160z"/><path d="m485.3333-832 26.6667-160z"/><path d="m304-992h96v48h-96z"/><path d="m272-944h32 96 32v112h-208v-112z"/><path d="m272-992v48h-48v-48z"/><path d="m224-944v112h-5.3333l-26.6667-160h32z"/><path d="m448-640h-16-160-48 48 32z"/><path d="m480-832h5.3333l-5.3333 32z"/><path d="m485.3333-832-5.3333 32z"/><path d="m218.6667-832h5.3333v32z"/><path d="m224-832v32z"/><path d="m432-528v-112h16 32l32 160h-80z"/><path d="m480-640 6.4 32 25.6 128z"/><path d="m272-640h160v112h-32-96-32z"/><path d="m400-528v48h-96v-48z"/><path d="m224-640h48v112 48h-80z"/><path d="m0-128v64z"/><path d="m928 128v32z"/><path d="m1056 160h-128z"/><path d="m1056 128v32h-128v-32z"/><path d="m224 160h-224z"/><path d="m448 112v32z"/><path d="m544-48v-32z"/><path d="m544-80v-16z"/><path d="m544 144v16z"/><path d="m544 144v-32z"/><path d="m704-128v32z"/><path d="m800-128 32 32h-128v-32z"/><path d="m832-96h-128z"/><path d="m864-64-32-32z"/><path d="m704-96h-16-16z"/><path d="m576-48h-32z"/><path d="m576-80v32z"/><path d="m544 112h32z"/><path d="m576 160v-32-16z"/><path d="m416 112h32z"/><path d="m448-48h-32z"/><path d="m416-48v-32z"/><path d="m416 144v-32z"/><path d="m192-144h-160z"/><path d="m192-320v-32h32l-9.8462 64h-22.1538z"/><path d="m160-352h32v32h-32z"/><path d="m96-288v-32-32h64v32 32z"/><path d="m9.8462-288h54.1538 32 64 32 22.1538l-22.1538 144h-160z"/><path d="m64-320v-32h32v32z"/><path d="m9.8462-288-9.8462-64h64v32 32z"/><path d="m214.1538-288 9.8462-64-9.8462 64-22.1538 144z"/><path d="m224-128v64h-224v-64z"/><path d="m224-64h-224z"/><path d="m192-48 32 208h-224l32-208z"/><path d="m192-48 32 208z"/><path d="m320 224h32 64z"/><path d="m320 224h-64z"/><path d="m1056 32h32z"/><path d="m928 32v96z"/><path d="m1056 192h-128z"/><path d="m1056 160v32h-128v-32z"/><path d="m704-160v32 32z"/><path d="m800-128h-96z"/><path d="m800-160v32h-96v-32z"/><path d="m800-128 64 64-32-32z"/><path d="m576-96h32z"/><path d="m608-96h64-96z"/><path d="m-192 352v-16 16 224z"/><path d="m-192 352v224-32-128z"/><path d="m1056 224h-128z"/><path d="m1056 192v32h-128v-32z"/><path d="m704-192v16z"/><path d="m704-176v-16h96v16 16h-96z"/><path d="m800-128v-32-16z"/><path d="m800-176v-16z"/><path d="m800-128v-32z"/><path d="m800-160h-96z"/><path d="m704-96h-32-64z"/><path d="m320 0 16-96z"/><path d="m288 0v-96z"/><path d="m304 0h-16v64h16z"/><path d="m320 64v-64h-16v64z"/><path d="m304 0v64z"/><path d="m304 64v-64z"/><path d="m288 64v-64z"/><path d="m288 64 16 96z"/><path d="m416 224v160z"/><path d="m432 272-16-48v160l16-48z"/><path d="m448 224h-16l16 48z"/><path d="m432 272v64h16v-64z"/><path d="m432 384h16v-48z"/><path d="m432 272h16z"/><path d="m448 224v48z"/><path d="m416 224 16 48z"/><path d="m448 272-16-48z"/><path d="m432 336h16z"/><path d="m432 336v-64z"/><path d="m432 272v64z"/><path d="m448 272v64z"/><path d="m448 336v48z"/><path d="m448 336-16 48z"/><path d="m416 384 16-48z"/><path d="m-160 288h64z"/><path d="m-96 288h-64z"/><path d="m-96 288v-32z"/><path d="m-160 256v32z"/><path d="m-96 256h-64v32h64z"/><path d="m64 576h32-64z"/><path d="m64 576h-32z"/><path d="m-32 576h-32z"/><path d="m-96 576h-96z"/><path d="m-64 336v16 32-32z"/><path d="m96 288-10.6667 16h26.6667 32 26.6667l-10.6667-16z"/><path d="m170.6667 304h-26.6667l48 48v-16z"/><path d="m112 304h-26.6667l-21.3333 32v16z"/><path d="m64 352v32z"/><path d="m144 304h-32z"/><path d="m64 384v-32-16 16z"/><path d="m85.3333 304 10.6667-16-32 48z"/><path d="m170.6667 304 21.3333 32-32-48z"/><path d="m96 576v-32z"/><path d="m-144 304h32 26.6667l-10.6667-16h-64l-10.6667 16z"/><path d="m-85.3333 304h-26.6667l48 48v-16z"/><path d="m-144 304h-26.6667l-21.3333 32v16z"/><path d="m-112 304h-32z"/><path d="m-96 288 10.6667 16 21.3333 32z"/><path d="m-32 584v-8z"/><path d="m32 576h-64v8h64z"/><path d="m32 576v8z"/><path d="m-32 584h64z"/><path d="m-320-499.2v-89.6z"/><path d="m-320-499.2v-89.6z"/><path d="m-320-588.8v89.6z"/><path d="m-304-595.2-8 3.2-8 3.2z"/><path d="m-304-595.2-16 6.4v89.6l16 6.4z"/><path d="m-272-480-32-12.8z"/><path d="m-320-499.2-32-12.8z"/><path d="m-96 288h-64v-32h64z"/><path d="m-160 288v-32z"/><path d="m-96 256v32z"/><path d="m-160 256h64z"/><path d="m-96 288h-64z"/><path d="m304 64h-16v-64h16z"/><path d="m288 0h16z"/><path d="m304 64h-16z"/><path d="m288 64v-64z"/><path d="m304 0v64z"/><path d="m448 336h-16v-64h16z"/><path d="m448 336h-16z"/><path d="m432 272h16z"/><path d="m432 336v-64z"/><path d="m448 272v64z"/><path d="m1056 224v-32z"/><path d="m928 224v-32z"/><path d="m704-224v32 16z"/><path d="m800-176v-16-32z"/><path d="m800-224v32h-96v-32z"/><path d="m800-192h-96z"/><path d="m1056 256h-128z"/><path d="m1056 224v32h-128v-32z"/><path d="m-352-512v-64z"/><path d="m432-992h80z"/><path d="m304-992h96z"/><path d="m224-992h48-48-32z"/><path d="m-224-736v-32 160z"/><path d="m64-352h32 64 32 32-32-32-64-32-64z"/><path d="m400-480h-16-64z"/><path d="m432-992v48 112h16 32l32-160z"/><path d="m480-832h-32-16v-112-48h80z"/><path d="m480-832h5.3333l26.6667-160z"/><path d="m485.3333-832h-5.3333v32z"/><path d="m400-992h-96v48h96z"/><path d="m304-944v-48h96v48z"/><path d="m432-832v-112h-32-96-32-48v112z"/><path d="m272-944h32 96 32v112h-208v-112z"/><path d="m448-640h32l6.4 32h-54.4-112-16v-32z"/><path d="m320-608h112 54.4l-6.4-32h-32-144v32z"/><path d="m272-992v48h-48v-48z"/><path d="m272-944v-48h-48v48z"/><path d="m224-944v112l-32-160h32z"/><path d="m224-832v-112-48h-32z"/><path d="m192-992 26.6667 160h5.3333z"/><path d="m224-832h-5.3333l5.3333 32z"/><path d="m272-528v-112h-48l-32 160h80z"/><path d="m224-640h48v112 48h-80z"/><path d="m304-608v-32h-32v112h32z"/><path d="m272-640h32v32 80h-32z"/><path d="m512-480h-80v-48-80h54.4z"/><path d="m432-608v80 48h80l-25.6-128z"/><path d="m320-608v80h80 32v-80z"/><path d="m400-528h-80v-80h112v80z"/><path d="m320-480h80v-48h-80z"/><path d="m400-480h-80v-48h80z"/><path d="m304-528v-80h16v80 48h-16z"/><path d="m320-528v-80h-16v80 48h16z"/><path d="m448-640h-144-32-48 192z"/><path d="m480-832h-32z"/><path d="m486.4-608-6.4-32 32 160z"/><path d="m485.3333-832h-5.3333z"/><path d="m448-832h-16-208 208z"/><path d="m224-832h-5.3333z"/><path d="m432-992v48z"/><path d="m304-992v48z"/><path d="m432-944h-32z"/><path d="m400-944v-48z"/><path d="m272-944v-48z"/><path d="m304-944h-32z"/><path d="m192-992 26.6667 160z"/><path d="m480-640h-32z"/><path d="m480-832v32z"/><path d="m218.6667-832 5.3333 32z"/><path d="m432-528v48z"/><path d="m272-480v-48z"/><path d="m400-528h32z"/><path d="m272-528h32z"/><path d="m304-528v48z"/><path d="m400-480v-48z"/><path d="m224-640-32 160z"/><path d="m0-768h-224z"/><path d="m0-704v128 96-112z"/><path d="m-192-736h16 128 16 32v-32h-224v32z"/><path d="m0-704v-32h-32v144 16h32z"/><path d="m-32-736h-16v16 128h16z"/><path d="m-48-736h-128v16h128z"/><path d="m-176-720v-16h-16v144h16z"/><path d="m-192-592v-144h-32v128 32h32z"/><path d="m-32-576v-16h-16-128-16v16z"/><path d="m0-480v-96h-32-160-32v96z"/><path d="m-176-720v128z"/><path d="m-48-592v-128z"/><path d="m256 224h64z"/><path d="m704 160h-96-32z"/><path d="m224 160h-192-32z"/><path d="m320 0v64z"/><path d="m448 160v-32-16 32z"/><path d="m448 160v-16z"/><path d="m448-64v-32 32 16z"/><path d="m544 160v-16-32 16z"/><path d="m544-64v16-32-16z"/><path d="m704-256v32 48z"/><path d="m800-176v-48-32z"/><path d="m800-224h-96z"/><path d="m800-256v32h-96v-32z"/><path d="m608 64v-128-32h-32v32 192h32z"/><path d="m576 128v32h32v-32z"/><path d="m576-64h-32v192h32z"/><path d="m704 64h-96v64 32h96z"/><path d="m608 64h96z"/><path d="m576-64v-32 16 32z"/><path d="m576-96v16z"/><path d="m544-64h32v16h-32z"/><path d="m544 128v-16h32v16z"/><path d="m544-64v-32h-96v32 192h96z"/><path d="m448 128v32h96v-32z"/><path d="m448-96h96z"/><path d="m333.3333 144 2.6667 16h80v-16z"/><path d="m352 112h-24l5.3333 32h82.6667v-16-16z"/><path d="m352-48v-16-32h-16l-16 96v64l8 48h24z"/><path d="m416-96h-64v32h64z"/><path d="m448-64h-32v16 160 16h32z"/><path d="m352-64v16z"/><path d="m416-48v16 16 16 16 16 16 16 16 16 16z"/><path d="m336-96h16 64-32z"/><path d="m416-96v32 16-32z"/><path d="m416-96v16z"/><path d="m416-64h32v16h-32z"/><path d="m416 128v16 16-16-32z"/><path d="m416 160v-16z"/><path d="m448 128h-32v-16h32z"/><path d="m336 160-2.6667-16-5.3333-32-8-48 10.6666 64z"/><path d="m214.1538-288 9.8462-64h-32v32 32z"/><path d="m192-320v-32h32l-9.8462 64h-22.1538z"/><path d="m192-320v-32h-32v32z"/><path d="m160-320v-32h32v32z"/><path d="m96-288v-32-32h64v32 32z"/><path d="m96-352v32 32h64v-32-32z"/><path d="m214.1538-288h-22.1538-32-64-32-54.1538l22.1538 144h160z"/><path d="m9.8462-288h54.1538 32 64 32 22.1538l-22.1538 144h-160z"/><path d="m64-320v-32h32v32z"/><path d="m64-352v32h32v-32z"/><path d="m9.8462-288-9.8462-64h64v32 32z"/><path d="m64-320v-32h-64l9.8462 64h54.1538z"/><path d="m304-96h-16v96z"/><path d="m224-64v-64h-224v64z"/><path d="m192-48 32 208h-224l32-208z"/><path d="m224 160-32-208h-160l-32 208z"/><path d="m304 160-16-96v96z"/><path d="m192-144h-160z"/><path d="m214.1538-288 9.8462-64-32 208z"/><path d="m192-48 32 208z"/><path d="m224-128h-224z"/><path d="m96-320v32z"/><path d="m160-288v-32z"/><path d="m192-320v32z"/><path d="m192-288h-32z"/><path d="m160-320h32z"/><path d="m64-288v-32z"/><path d="m96-288h-32z"/><path d="m64-320h32z"/><path d="m9.8462-288-9.8462-64 9.8462 64 22.1538 144z"/><path d="m224-128v64z"/><path d="m304-96-16 96z"/><path d="m288 160v-96z"/><path d="m192-48h-160z"/><path d="m32-48-32 208z"/><path d="m928 256v-32z"/><path d="m928 256v32z"/><path d="m1056 288h-128z"/><path d="m1056 256v32h-128v-32z"/><path d="m-80 448h-32v64h32z"/><path d="m64 416v-32h-128v32z"/><path d="m-192 352v64h80 48v-32-32l-48-48h-32z"/><path d="m-112 512v-64-32h-80v128h80z"/><path d="m32 544h96v-32h-32-16-160-32v32z"/><path d="m32 544h-144-80v32h224z"/><path d="m96 576h96v-32h-64-96v32z"/><path d="m-80 448h176 32v-32h-64-128-48v32z"/><path d="m128 416h64v-64l-48-48h-32l-48 48v32 32z"/><path d="m128 448h-32v64h32z"/><path d="m192 480v-64h-64v32 64 32h64z"/><path d="m352 384v-64h-96v64z"/><path d="m416 224h-64v96 64h64z"/><path d="m96 448v64z"/><path d="m352 320h-96z"/><path d="m352 224v96z"/><path d="m-80 512h160-16-16-16-16-16-16-16-16-16z"/><path d="m192 352v64 64z"/><path d="m256 320v-96 160z"/><path d="m192 576h-96z"/><path d="m32 576h-224 96 32 32z"/><path d="m-64 384v-32z"/><path d="m112 304-48 48z"/><path d="m192 352-48-48z"/><path d="m-144 304-48 48z"/><path d="m-64 352-48-48z"/><path d="m-224-480h-48z"/><path d="m-224-576v-32h-48l-32 12.8v102.4l32 12.8h48z"/><path d="m-224-608h-48z"/><path d="m-304-595.2v102.4z"/><path d="m-352-576v64l32 12.8v-89.6z"/><path d="m-352-576 32-12.8z"/><path d="m-320-480h-32z"/><path d="m-320-480h-32v-128h32z"/><path d="m-352-608h32z"/><path d="m-320-608v128z"/><path d="m-352-480v-128z"/><path d="m-48-720h-128v128h128z"/><path d="m352 224h-96v96h96z"/><path d="m-352-224v96z"/><path d="m1056 32v160-32z"/><path d="m1056 320v-32z"/><path d="m1168-64h-112z"/><path d="m1088 32h160v-48l-80-48h-112v96z"/><path d="m1248-16-80-48z"/><path d="m1248 32h-160l32 192h96z"/><path d="m1088 32 32 192z"/><path d="m864 32v32z"/><path d="m1056-64h-192v96h192z"/><path d="m928 32v96 32 32z"/><path d="m704-96v32z"/><path d="m704-176v16 64z"/><path d="m704-288v32 80z"/><path d="m800-176v-80-32z"/><path d="m800-288v32h-96v-32z"/><path d="m800-256h-96z"/><path d="m608-96v32z"/><path d="m608-96v32h96v-32z"/><path d="m416-48v-16z"/><path d="m352 64v16z"/><path d="m352 96v16z"/><path d="m352 96v-16-16-16-16-16-16-16-16-16 160z"/><path d="m352 32v16z"/><path d="m352 0v16z"/><path d="m352-32v16z"/><path d="m416 80v-16z"/><path d="m416 112v-16z"/><path d="m416 16v-16z"/><path d="m416-16v-16z"/><path d="m416 48v-16z"/><path d="m416-48h-64v16h64z"/><path d="m416-16h-64v16h64z"/><path d="m416 16h-64v16h64z"/><path d="m416 48h-64v16h64z"/><path d="m416 80h-64v16h64z"/><path d="m928 256v32 32z"/><path d="m1056 320h-48-80z"/><path d="m1056 288v32h-128v-32z"/><path d="m-80 512v-64z"/><path d="m-80 448h16z"/><path d="m-64 448h16 16 16 16 16 16 16 16 16 16-176z"/><path d="m80 512h16z"/><path d="m80 448h-16v64h16z"/><path d="m48 448h-16v64h16z"/><path d="m16 448h-16v64h16z"/><path d="m-16 448h-16v64h16z"/><path d="m-48 448h-16v64h16z"/><path d="m-256-224h-96v96h96z"/><path d="m-352-224h96v96h-96z"/><path d="m-256-224v96z"/><path d="m-176-592v-128z"/><path d="m-176-720h128z"/><path d="m-48-720v128z"/><path d="m-48-592h-128z"/><path d="m-48-592h-128v-128h128z"/><path d="m400-992h-16z"/><path d="m320-992h-16z"/><path d="m432-992h80z"/><path d="m304-992h16 64 16z"/><path d="m272-992h-48-32z"/><path d="m256 640h-32z"/><path d="m128 640h-64z"/><path d="m-64 640h64z"/><path d="m-224-704v128 96-64z"/><path d="m1056 320v-32 64z"/><path d="m1056 528v-176 80z"/><path d="m0-352h32z"/><path d="m32-352h64 128-32-32-64-32-64z"/><path d="m544-352h-96-64-64 64z"/><path d="m768-352h-64-96-32-32 64z"/><path d="m192-480h80z"/><path d="m320-480h-16z"/><path d="m512-480h-80z"/><path d="m384-480h16z"/><path d="m512-480h128-128-32-48z"/><path d="m720-640 16-32-32 64-64 128z"/><path d="m480-640h-32z"/><path d="m448-832h-32-192 208z"/><path d="m400-992v48z"/><path d="m432-944v-48z"/><path d="m512-992v160h-32z"/><path d="m640-992 80 160h-208v-160z"/><path d="m480-832 32-160z"/><path d="m432-944h-32z"/><path d="m432-944h-32v-48h32z"/><path d="m272-992v48z"/><path d="m304-944h-32z"/><path d="m304-944h-32v-48h32z"/><path d="m96-992h96v160h-96z"/><path d="m224-832h-32v-160z"/><path d="m192-992 32 160z"/><path d="m192-832v32 128 32h-96v-128-64z"/><path d="m416-640h-192-32v-32h224z"/><path d="m512-672v32h-32-32-32v-32z"/><path d="m416-672h-224v-128h224z"/><path d="m512-800v128h-96v-128z"/><path d="m416-800h-224v-32h32 192z"/><path d="m448-832h32 32v32h-96v-32z"/><path d="m720-832 16 32v128l-16 32h-208v-32-128-32z"/><path d="m400-528v48z"/><path d="m432-480v-48z"/><path d="m720-640-80 160h-128v-160z"/><path d="m480-640h32v160z"/><path d="m400-528h32z"/><path d="m400-528h32v48h-32z"/><path d="m272-528v48z"/><path d="m272-528h32z"/><path d="m272-528h32v48h-32z"/><path d="m192-640v160h-96v-160z"/><path d="m192-640h32l-32 160z"/><path d="m224-640-32 160z"/><path d="m0-768h-224 32z"/><path d="m0-736v-32h96v128h-32-64z"/><path d="m0-768v32h-32-16-128-16-32v-32z"/><path d="m-32-592v-144h32v96 64h-32z"/><path d="m-48-720v-16h16v144h-16z"/><path d="m-48-720h-128v-16h128z"/><path d="m-192-592v-144h16v16 128z"/><path d="m-224-704v-32h32v144 16h-32z"/><path d="m-176-592h128 16v16h-160v-16z"/><path d="m-192-576h160 32v96h-128-32-32-32v-96z"/><path d="m-128-480h128v64 64h-128z"/><path d="m64-640h-32-32z"/><path d="m0-480v-96-64h32v64 160h-32z"/><path d="m-128-480h-32z"/><path d="m-48-720h-128z"/><path d="m-176-592h128z"/><path d="m-192-128v32-24z"/><path d="m-192-256v32-8z"/><path d="m-16 224h-16-32 16z"/><path d="m320 160h128-192-32z"/><path d="m448-96v32z"/><path d="m800-288h-96z"/><path d="m800-288v-64z"/><path d="m768-352h32v64h-96v-64z"/><path d="m608-352h96v64h-96z"/><path d="m576-352h32v64h-64z"/><path d="m608-64v32h96v-32z"/><path d="m608-288v192 32h-64v-224z"/><path d="m608-64v32 96h-64v-128z"/><path d="m704-288v112 80h-96v-192z"/><path d="m608-64v-32 32 32z"/><path d="m544 64h64 96-96z"/><path d="m704-64h-96z"/><path d="m608-32v-32 128z"/><path d="m512 64h32z"/><path d="m512-64v-32-128l32-64v224z"/><path d="m544 64h-32v-112-16h32z"/><path d="m496-128-16-32 32-64v128z"/><path d="m480-160 16 32h-32z"/><path d="m544-352h32l-32 64-32 64-32 64-16-32-16-32v-128z"/><path d="m448-128v-96l16 32v64l-16 32z"/><path d="m464-192 16 32-16 32z"/><path d="m416 144h-64v-32h64z"/><path d="m416 96h-64v-16h64z"/><path d="m352 144h64 32v16h-128v-16z"/><path d="m416 0h-64v-16h64z"/><path d="m416 64h-64v-16h64z"/><path d="m416 32h-64v-16h64z"/><path d="m416-32h-64v-16h64z"/><path d="m416-64h-64v-32h64z"/><path d="m320 80v-176h32v32 16 16 16 16 16 16 16 16 16 16 16 32h-32z"/><path d="m416 112v-16-16-16-16-16-16-16-16-16-16-16-32h32v32 208h-32z"/><path d="m320-144v-208h64l64 128v96h-128z"/><path d="m448-128v32h-32-64-32v-32z"/><path d="m448-224-64-128h64z"/><path d="m352-48h64z"/><path d="m416-64h-64z"/><path d="m352 112h64z"/><path d="m416 32h-64z"/><path d="m352-16h64z"/><path d="m416-32h-64z"/><path d="m352 16h64z"/><path d="m416 0h-64z"/><path d="m352 80h64z"/><path d="m352 48h64z"/><path d="m416 64h-64z"/><path d="m416 96h-64z"/><path d="m224-352h96v208h-96z"/><path d="m224-352v208h-32z"/><path d="m0-352 32 208h-32z"/><path d="m0-352 9.8462 64 22.1538 144z"/><path d="m0 0v-48h32l-32 208z"/><path d="m192-48h32v128 80z"/><path d="m224-128v64h-224v-64z"/><path d="m224-64v16h-32-160-32v-16z"/><path d="m32-144h160 32v16h-224v-16z"/><path d="m320-144v16 32 176h-96v-128-16-64-16z"/><path d="m320 80v64 16h-96v-80z"/><path d="m192-48h-160z"/><path d="m32-48-32 208z"/><path d="m-32 0h16-32-16z"/><path d="m-160 0h32-16-32z"/><path d="m-192-224v-32-96h32 32 128v208 16h-192z"/><path d="m0-128v64 16 48h-16-16-128-16-16v-96-32z"/><path d="m-32 16v192 16h-128v-16-192-16h128z"/><path d="m-32 16h-32v192h32z"/><path d="m-32 224v-16h-32v16z"/><path d="m-160 208v16h32v-16z"/><path d="m1008 528h48-48-48z"/><path d="m1008 528h-48-160v-96-16h128 80z"/><path d="m1008 416h-80v-96h80z"/><path d="m800 384v-160h128v32 64 96h-128z"/><path d="m1008 416v-96h48v32 176h-48z"/><path d="m800 384v32 16h-48z"/><path d="m736 528h-224v-48-16-32h224z"/><path d="m752 432h48v96h-64v-96z"/><path d="m-160 352v64 128 32-160-16z"/><path d="m512 528-32 14z"/><path d="m512 432v32l-64-32z"/><path d="m448 432 64 32v16h-176-32v-64h48 64z"/><path d="m416 416h-64v-32z"/><path d="m256 416h-128-96v-96h160 64z"/><path d="m352 320v64 32h-48-48v-96z"/><path d="m512 480v48l-32 14-4.5713 2h-139.4287v-16-32-16z"/><path d="m336 544h139.4287l-171.4287 75v-11-64z"/><path d="m336 544h-32v-16h32z"/><path d="m304 496v-16h32v16z"/><path d="m128 512v-64-32h128 48v64 16 32 16h-112-32-32z"/><path d="m32 416h96v32h-32-16-16-16-16-16-16-16-16-16-16-16-32v-32z"/><path d="m96 448h32v64h-32z"/><path d="m304 544v64h-80-32v-32-32z"/><path d="m304 619-48 21h-32v-32h80z"/><path d="m160 544h32v32h-32z"/><path d="m-80 512h16 16 16 16 16 16 16 16 16 16 16 32v32h-64-64-112v-32z"/><path d="m128 608v32h-64v-32z"/><path d="m-160 352v-128h128 16 32 16v96 96h-144-48z"/><path d="m-48 512h-16v-64h16z"/><path d="m16 512h-16v-64h16z"/><path d="m80 512h-16v-64h16z"/><path d="m0 576v64h-64l-96-64v-32h48 112z"/><path d="m-112 448v64 32h-48v-128h48z"/><path d="m-80 512h-32v-64h32z"/><path d="m0 576v-32h64v32z"/><path d="m48 512h-16v-64h16z"/><path d="m-16 512h-16v-64h16z"/><path d="m352 320v-96 128 32z"/><path d="m192 320h-160 96z"/><path d="m32 224v96z"/><path d="m160 576h32z"/><path d="m128 544h-64z"/><path d="m64 608v32z"/><path d="m64 576v-32z"/><path d="m256 224v96z"/><path d="m-48 448h16z"/><path d="m-16 448h16z"/><path d="m16 448h16z"/><path d="m48 448h16z"/><path d="m80 448h16z"/><path d="m80 448v64z"/><path d="m-64 512h-16z"/><path d="m0 512h-16z"/><path d="m64 512h-16z"/><path d="m32 512h-16z"/><path d="m-32 512h-16z"/><path d="m0 512v-64z"/><path d="m32 512v-64z"/><path d="m64 512v-64z"/><path d="m48 448v64z"/><path d="m16 448v64z"/><path d="m-48 448v64z"/><path d="m-16 448v64z"/><path d="m-32 512v-64z"/><path d="m-64 512v-64z"/><path d="m-224-224h32v96h-32z"/><path d="m-224-128h32z"/><path d="m-192-224h-32z"/><path d="m-256-224h32v96h-32z"/><path d="m-256-128h32z"/><path d="m352 224v96z"/><path d="m352 320h-96z"/><path d="m256 320v-96z"/><path d="m256 224h96z"/><path d="m352 320h-96v-96h96z"/><path d="m1056 288v-32-32-32 160z"/><path d="m1056 224v32z"/><path d="m1056 256v32z"/><path d="m448 160h-128-32-32z"/><path d="m0 160h32z"/><path d="m704-64v-32 32 32z"/><path d="m608-96h96z"/><path d="m704-32h-96z"/><path d="m608-64v-32h96v32z"/><path d="m608-32v32h96v-32z"/><path d="m512 400v32z"/><path d="m512 432h-64z"/><path d="m352 224v96 32z"/><path d="m480 400h-32v-12z"/><path d="m448 432v-32h32 32v32z"/><path d="m448 400v32l-96-48v-32l96 36z"/><path d="m512 400h-32z"/><path d="m448 432-32-16-64-32z"/><path d="m-160-352h32z"/><path d="m608-352h-64-160 96z"/><path d="m800-352h-32z"/><path d="m32-640v64z"/><path d="m-160-480v128z"/><path d="m-160-480h32v128h-32z"/><path d="m32-416v64h-32v-64z"/><path d="m-160-480h-32z"/><path d="m704-32v-32 32 32z"/><path d="m704 0h-96z"/><path d="m608 0v-32z"/><path d="m608-32v32-32-32z"/><path d="m608-64h96z"/><path d="m608-32v-32h96v32z"/><path d="m608 0v32h96v-32z"/><path d="m512 400v-32 48 16z"/><path d="m192 576v32z"/><path d="m352 224v96z"/><path d="m448 368v-12l32 12z"/><path d="m512 400h-32l-32-12v-20h32 32z"/><path d="m448 368v20l-96-36v-32l96 36z"/><path d="m448 388 32 12-32-12-96-36z"/><path d="m224 608v32z"/><path d="m224 640h-32v-32h32z"/><path d="m192 608h32z"/><path d="m128 544h32z"/><path d="m160 576h-32v-32h32z"/><path d="m160 544v32z"/><path d="m480-992h32 128-128-80z"/><path d="m272-992h-96z"/><path d="m144-992h-48z"/><path d="m96-992h48 32 96-80z"/><path d="m704-352h96-32-160z"/><path d="m704-352h-96-128 208z"/><path d="m736-752v32 48-128z"/><path d="m800-720v-32z"/><path d="m736-752h64z"/><path d="m736-720v-32h64v32z"/><path d="m96-480h48z"/><path d="m176-480h96z"/><path d="m272-480h-96-32-48 96z"/><path d="m144-480h32z"/><path d="m640-480h-128z"/><path d="m320 224h32z"/><path d="m704 0v-32 32 32z"/><path d="m608-32h96z"/><path d="m608 0v-32h96v32z"/><path d="m704 32h-96z"/><path d="m608 32v-32z"/><path d="m608 32v32h96v-32z"/><path d="m608 64v-32z"/><path d="m512 368v-16z"/><path d="m512 368h-32z"/><path d="m512 352v16h-32l-32-12v-36z"/><path d="m352 224h96v96 36l-96-36z"/><path d="m448 224v96z"/><path d="m448 356 32 12-32-12-96-36z"/><path d="m752-752h-16v32h16z"/><path d="m384-992h-64z"/><path d="m480-352h-96z"/><path d="m480-352h-96-64 128 16z"/><path d="m320-352h64z"/><path d="m384-480h-64z"/><path d="m304-992v48z"/><path d="m704 96v64z"/><path d="m704 160v-64-32z"/><path d="m704 32v-32 32 32z"/><path d="m608 0h96z"/><path d="m608 32v-32h96v32z"/><path d="m-64 640-96-64z"/><path d="m192 576v32 32z"/><path d="m448 224h32v80 32l-32-16z"/><path d="m480 304 32 16v32l-32-16z"/><path d="m480 224v80z"/><path d="m480 336 32 16-64-32z"/><path d="m128 608v32z"/><path d="m128 544v32z"/><path d="m192 640h-32v-32-32h32z"/><path d="m128 608v-32h32v32z"/><path d="m160 576h-32 32 32z"/><path d="m128 544v32h-64v-32z"/><path d="m128 640v-32h-64v32z"/><path d="m64 608v32h-32-32v-64h64z"/><path d="m128 576h-64z"/><path d="m64 640v-32-32 32z"/><path d="m0 640v-64z"/><path d="m128 608h-64z"/><path d="m0 576h64z"/><path d="m640-992h-128z"/><path d="m480-992h32z"/><path d="m432-992h48z"/><path d="m144-992h32z"/><path d="m96-992v160 64z"/><path d="m736-672v-48z"/><path d="m736-752v-48z"/><path d="m736-720h64z"/><path d="m736-752v32h64v-32z"/><path d="m96-480h48 32 96z"/><path d="m480-480h-48z"/><path d="m512-480h-32z"/><path d="m480-480h32 128-96-112z"/><path d="m704 160h96-64z"/><path d="m704 64v-32 32 32z"/><path d="m608 64v-32h96v32z"/><path d="m544 64h64 96-128z"/><path d="m608 32h96z"/><path d="m608 64h-64z"/><path d="m512 320v48-16z"/><path d="m512 320v-96 144z"/><path d="m480 224h32v96l-32-16z"/><path d="m512 320-32-16z"/><path d="m752-720h-16z"/><path d="m752-720h-16v-32h16z"/><path d="m736-752h16z"/><path d="m736-720v-32z"/><path d="m752-752v32z"/><path d="m400-992h-16-64-16z"/><path d="m400-992h16 16z"/><path d="m272-992h-96-32-48 96z"/><path d="m272-992h32z"/><path d="m256 640h-64 32z"/><path d="m160 640h32 64-128z"/><path d="m192 640h-32z"/><path d="m32 640h-96 64z"/><path d="m1056 352v-160 32 208z"/><path d="m32-352h-32z"/><path d="m736-352h64-96z"/><path d="m400-480h-80 64z"/><path d="m304-480v-48z"/><path d="m32-640h32z"/><path d="m32-640h32-64z"/><path d="m32-576v160 64-64z"/><path d="m32-576v-64h-32v160 64h32z"/><path d="m-160-480h32z"/><path d="m-192-232v8-128 96z"/><path d="m928 224h-128z"/><path d="m544 224h-32-32z"/><path d="m512 224h-32z"/><path d="m480 224h-32z"/><path d="m16 224h16z"/><path d="m864-64v96z"/><path d="m256 160h-192-32 192z"/><path d="m448-64v160 64-16z"/><path d="m496-128 16 32v-64h-32z"/><path d="m480-160-16-32v64h32z"/><path d="m464-192v-160h-16v224h16z"/><path d="m448-128v32l16-32z"/><path d="m544 160v-96h32v96z"/><path d="m576 160v-96h128v96z"/><path d="m736 96v-32h-32v96h32z"/><path d="m864 80v-16-32-96l-64-64v224h64z"/><path d="m800 96v64h64v-64z"/><path d="m688-352h-208-16v160l16 32h32 176z"/><path d="m736-160v-192h-32-16v192z"/><path d="m800-176v-112-64h-64v192 32h64z"/><path d="m736-128v192 32h64v-224z"/><path d="m736 96v64h64v-64z"/><path d="m544 64h-32z"/><path d="m736-128v-32 160 32 32z"/><path d="m448-96 16-32z"/><path d="m704 64v32 64z"/><path d="m512-48v-48 32z"/><path d="m512-48v112z"/><path d="m496-128 16 32z"/><path d="m464-128h32z"/><path d="m448-352h-128v96 112 16h128z"/><path d="m320-128v192 32h128v-160-32-32z"/><path d="m320 96v64h128v-64z"/><path d="m288-256v112z"/><path d="m320-256h-32v112h32z"/><path d="m128 96v-32l-96 96h32z"/><path d="m288 96h-160l-64 64h192 32z"/><path d="m320 160v-64h-32v64z"/><path d="m288 96h32v-32h-32-160v32z"/><path d="m288-144v208h32v-192-16z"/><path d="m128 64-96 96z"/><path d="m704 160v64z"/><path d="m704 224h-128v-16-32-16h128z"/><path d="m576 176-32-16h32z"/><path d="m576 224h-32l32-16z"/><path d="m512 432v-16 64 48z"/><path d="m512 368v-144h32v32 32 128h-32z"/><path d="m736 432h-224v96h224z"/><path d="m800 528v-16-48-32h-48-16v96z"/><path d="m704 416h-128v-128-32h128z"/><path d="m544 416v-128h32v128z"/><path d="m576 288h-32v-32h32z"/><path d="m800 384-48 48h48z"/><path d="m949.3333 512h-65.3333-84v16h160 48v-16z"/><path d="m1008 512v-44l-58.6667 44z"/><path d="m800 464v48h84z"/><path d="m576 224h128v32h-128-32v-32z"/><path d="m928 224h-128v128z"/><path d="m1008 512v16h48v-96l-48 36z"/><path d="m884 512h65.3333.0001z"/><path d="m884 512-84-48z"/><path d="m1008 468 48-36-32 24-74.6666 56h-.0001z"/><path d="m544 416h32 128-160-32z"/><path d="m736 528h-224z"/><path d="m960 528h-160-64 64z"/><path d="m800 352v-128 160z"/><path d="m736 432h16-16-224z"/><path d="m800 384-48 48z"/><path d="m-160 224v128z"/><path d="m256 320h-64z"/><path d="m224 256h32v32h-32z"/><path d="m256 224v32z"/><path d="m224 288h32z"/><path d="m256 288v-32-32 96z"/><path d="m16 224v96z"/><path d="m32 224h-16v96h16z"/><path d="m128 576v32z"/><path d="m160 640h-32v-32h32z"/><path d="m160 608v32z"/><path d="m128 608h32z"/><path d="m128 320h-96v192z"/><path d="m32 640v-64h-48-144l96 64z"/><path d="m-160 416v160h144v-32-128z"/><path d="m-24 400h-136v16h144l8-16z"/><path d="m32 512v-192l-40 80-8 16v128h48z"/><path d="m-16 544v32h48v-32z"/><path d="m32 320h-16l-40 80h16z"/><path d="m16 320-32 64-8 16z"/><path d="m-192-224h-32v96h32z"/><path d="m-256-224v96z"/><path d="m-224-224h-32v96h32z"/><path d="m-224-224h-32z"/><path d="m256 256h-16v32h16z"/><path d="m288-256h-74.6667 42.6667z"/><path d="m288-256h32z"/><path d="m544 160h-32z"/><path d="m704 64h32z"/><path d="m512 64v-112z"/><path d="m704 160v-96z"/><path d="m736 160h-32v-96h32z"/><path d="m544 64v96z"/><path d="m512 64h32v96h-32z"/><path d="m352 480h-16v16 32 16h16z"/><path d="m304 528v16h32v-16z"/><path d="m336 480h-32v16h32z"/><path d="m304 528v-32-16h-16v64h16z"/><path d="m304 480h32 16-64z"/><path d="m304 496h32z"/><path d="m304 528v-32z"/><path d="m336 528h-32z"/><path d="m336 496v32z"/><path d="m208-336h-16v16 32 16h16z"/><path d="m192-336h-22.4v16h22.4z"/><path d="m192-288v-32z"/><path d="m192-320h-22.4-9.6z"/><path d="m-352-224v96z"/><path d="m128 640h128-32-16-112z"/><path d="m64 640h-16-16z"/><path d="m-224-768v32 32z"/><path d="m-192-352h32z"/><path d="m-128-352h-32z"/><path d="m64-352h-32-32-128-32 160 48z"/><path d="m64-352h32-64z"/><path d="m96-352h112 112-96z"/><path d="m544-352h-32-32-128z"/><path d="m32-768h64-96z"/><path d="m32-768h-32-192v96l224-74.6667z"/><path d="m96-768h-64v21.3333z"/><path d="m32-746.6667-224 74.6667z"/><path d="m0-416v-64h-64-64v128h128z"/><path d="m-160-480h32l-64-64v64z"/><path d="m0-640-64 160h64z"/><path d="m-128-480h64z"/><path d="m-128-480-46.7692-46.7692-17.2308-17.2308z"/><path d="m0-640-45.2923 113.2308-18.7077 46.7692z"/><path d="m-128-480h-32v128h32z"/><path d="m0-416v64h32v-64z"/><path d="m-192-480h-32z"/><path d="m-192-672v-96h-32v64 160h32z"/><path d="m-224-544v64h32v-64z"/><path d="m-192 0v-96-32 8 24z"/><path d="m-192-224v-8 8 96 8-8z"/><path d="m-48 224h64-32z"/><path d="m-144 224h-16z"/><path d="m-128 224h-32 16z"/><path d="m0 0v-96z"/><path d="m864-352v64z"/><path d="m1024 224h32v-32-160h-128v160 32z"/><path d="m736 160h32 96-80-80z"/><path d="m704 160h32z"/><path d="m512 160h32-64-32z"/><path d="m768-176v-16l16 16z"/><path d="m768-352h96v64 112h-80l-16-16-32-32v-128z"/><path d="m544-352h192v128h-224v-128z"/><path d="m784-176h80v112 112h-96v-16-32-176z"/><path d="m864 48v112h-96v-112z"/><path d="m768 48v112h-32v-96-32h32z"/><path d="m480-256v-96h32v128l-32 16z"/><path d="m480-176 32 16h-32z"/><path d="m480-352v96h-128v-96z"/><path d="m416-160h-96v-96h32 128v48 32 16z"/><path d="m480-160h32v32l-80 80h-16v-48-64z"/><path d="m368 16 64-64 80-80v80 112h-160v-32z"/><path d="m416-160v64h-64-32v-48-16z"/><path d="m416-48h-48l-16-16v-32h64z"/><path d="m368-48h48 16l-64 64h-3v-64z"/><path d="m336 16v-64h29v64z"/><path d="m352 64h160v96h-64-128v-64-32z"/><path d="m736-224h-192-32z"/><path d="m736-160h-48-176z"/><path d="m512-48v-80-32 64z"/><path d="m736 160v-96z"/><path d="m512 64v96z"/><path d="m169.6-288v16h22.4v-16z"/><path d="m169.6-272v-16-32-16h-73.6v16 32 16z"/><path d="m208-336v64z"/><path d="m288-256h32v96 16h-32z"/><path d="m208-336v64h-112v-16-32-16z"/><path d="m160-320v32z"/><path d="m160-288h9.6 22.4z"/><path d="m169.6-288h-9.6v-32h9.6z"/><path d="m128 64h160z"/><path d="m288-144v208z"/><path d="m320-144v48 32 96 32h-32v-208z"/><path d="m288 64h32v32h-32-160v-32z"/><path d="m288 160h-64-160l64-64h160z"/><path d="m320 96v64h-32v-64z"/><path d="m128 64v32l-64 64h-32z"/><path d="m-144 0h-48 16z"/><path d="m-48 0h32 16z"/><path d="m-144 0h16 64 16 48v-96h-192v96z"/><path d="m-64 208v-192-16h-64v16 192 16h64z"/><path d="m-64 0v16h32v-16z"/><path d="m-128 16h-32v192h32z"/><path d="m-128 16v-16h-32v16z"/><path d="m800 448v-96 32 48 32z"/><path d="m1024 224h-96l-128 128v96h224z"/><path d="m800 448v16l84 48h65.3334l74.6666-56v-8z"/><path d="m1056 432v-208h-32v224 8z"/><path d="m928 224-128 128z"/><path d="m-160 400v16z"/><path d="m480 542-128 56-85.1062 37.2339-10.8938 4.7661 48-21 171.4287-75z"/><path d="m256 256h-32v32h32z"/><path d="m352 480h160v-64l-64 7.1112-160 17.7777v39.1111z"/><path d="m352 480v64 54l128-56 32-14v-48z"/><path d="m352 598v-54h-64-64v96l42.8938-4.7661z"/><path d="m288 480v-39.1111l-64 7.1111v96h64z"/><path d="m224 544v-96 192z"/><path d="m512 416-64 7.1111v.0001z"/><path d="m256 320h-64z"/><path d="m256 288v32z"/><path d="m224 256v32z"/><path d="m256 256h-32z"/><path d="m352 480v64z"/><path d="m352 544h-16-32-16z"/><path d="m288 544v-64z"/><path d="m192 320h-64z"/><path d="m16 224h16v96h-16z"/><path d="m32 224v96z"/><path d="m128 608v-32 32 32z"/><path d="m96 608h-32z"/><path d="m128 576v32h-32-32v-32z"/><path d="m128 640h-32v-32h32z"/><path d="m-16 416v-16-16l32-64h16z"/><path d="m-24 400 8-16v16z"/><path d="m-16 416h-144v-16h136 8z"/><path d="m-16 416h-144z"/><path d="m32 320-40 80-8 16z"/><path d="m-160 400h136z"/><path d="m256 288h-16v-32h16z"/><path d="m256 288h-16z"/><path d="m240 256h16z"/><path d="m256 256v32z"/><path d="m240 288v-32z"/><path d="m365-48h-29v64h29z"/><path d="m208-272v16h5.3333 74.6667 32v-96h-112z"/><path d="m208-272v-80h-112v32 32 16z"/><path d="m320 224h96 32-96z"/><path d="m544-352h160 64-32z"/><path d="m320-256h32z"/><path d="m352-352v96z"/><path d="m352-256h-32v-96h32z"/><path d="m96-320v32z"/><path d="m96-320h-32z"/><path d="m512-992h128-128-32-48z"/><path d="m64 640h32 112-48-112z"/><path d="m288-352h32z"/><path d="m320-352h160 64-192z"/><path d="m96-608v-32 160z"/><path d="m736-768v96-48-32-48z"/><path d="m320-480h-48 32z"/><path d="m432-480h-32z"/><path d="m736-800-16-32-80-160z"/><path d="m736-768v-32l-96-192h-128v160 16 48z"/><path d="m544-608h160l32-64v-96h-224v112 16 32z"/><path d="m320-608h-128-96v128h176 48z"/><path d="m544-608h-32-96-96v128h80 32 112z"/><path d="m640-480 64-128h-160v128z"/><path d="m416-992h-16-96-32-80v160h224z"/><path d="m512-832v-160h-80-16v160z"/><path d="m416-832h-224v16h16 208z"/><path d="m432-816h64 16v-16h-96v16z"/><path d="m416-656h-208-16v16h224z"/><path d="m512-640v-16h-16-64-16v16z"/><path d="m512-768v-48h-16v160h16z"/><path d="m416-640h-224v32h128 96z"/><path d="m512-608v-32h-96v32z"/><path d="m192-816v-16-160h-96v224h96z"/><path d="m96-768v128 32h96v-32-16-112z"/><path d="m208-816h-16v48 112h16z"/><path d="m496-816v16 128 16z"/><path d="m432-816h-16-208z"/><path d="m496-656h-64z"/><path d="m0-640 44.3077-110.7692-12.3077 4.1025-224 74.6667v128l17.2308 17.2308h129.4769z"/><path d="m-174.7692-526.7692 46.7692 46.7692h64l18.7077-46.7692z"/><path d="m64-640h32v-128l-51.6923 17.2308-44.3077 110.7692z"/><path d="m-192-672v128z"/><path d="m64-640h32z"/><path d="m44.3077-750.7692 51.6923-17.2308-64 21.3333z"/><path d="m480 224h-32-32 32 96z"/><path d="m16 224h16z"/><path d="m320-352v96z"/><path d="m288-256h32z"/><path d="m288-256h-32z"/><path d="m320-256h-32v-96h32z"/><path d="m544 224 32-16z"/><path d="m512 400v16h32z"/><path d="m266.8936 635.234v.0001l-10.8936 4.7659 10.8938-4.7661z"/><path d="m352 320h-96-64-64v16h8 216z"/><path d="m368 336 48-16h-64v16z"/><path d="m128 336v16l8-16z"/><path d="m448 407.1111-224 24.8889v16l224-24.8889z"/><path d="m512 416v-16l-64 7.1111v16z"/><path d="m96 608v32h-32v-32z"/><path d="m224 448v-16h-16v208h16z"/><path d="m128 352v-16-16l-96 192h16z"/><path d="m32 224h-16v96h16z"/><path d="m32 320h-16l-40 80h16z"/><path d="m-16 416 8-16h-16-136v16z"/><path d="m48 512h-16v128h16z"/><path d="m208 432v208z"/><path d="m512 400-64 7.1111z"/><path d="m-24 400h-136z"/><path d="m16 224v96z"/><path d="m16 320-40 80z"/><path d="m266.8936 635.234.0002-.0001-42.8938 4.7661z"/><path d="m352 320h64-160z"/><path d="m256 320h-64z"/><path d="m416 224h-96-64v32 32 32h160z"/><path d="m448 423.1111-224 24.8889 64-7.1111 160-17.7777z"/><path d="m32 640v-128 32 32z"/><path d="m128 320-96 192z"/><path d="m64 640v-32z"/><path d="m96 608v32z"/><path d="m-352-128h96z"/><path d="m-256-224h-96z"/><path d="m64-288h-16v16h48v-16z"/><path d="m64-320v-16h-16v48h16z"/><path d="m64-336v16h32v-16z"/><path d="m64-336h32 73.6 22.4 16-112-16-32z"/><path d="m64-320v32z"/><path d="m64-288h32z"/><path d="m96-272h112-16-22.4-73.6-48 32z"/><path d="m96-272h-16v-16h16z"/><path d="m96-320h-16z"/><path d="m96-256h112v-16h-112-16-32v16z"/><path d="m96-320v32z"/><path d="m96-352h-16v16 16h16z"/><path d="m96-288h-16z"/><path d="m96-272v-16h-16v16z"/><path d="m48-288v-48 64z"/><path d="m80-352h16-32z"/><path d="m80-320v-16h16v16z"/><path d="m64-352h-16v16h32v-16z"/><path d="m768-352h96z"/><path d="m480-352h-160-32-32 192z"/><path d="m704-352h-160-64 192z"/><path d="m208-672v-128-16 160z"/><path d="m432-672h48-32-32-48-32-48-32z"/><path d="m224-672h32z"/><path d="m496-816h-64z"/><path d="m432-816h-224v16h16 32 176z"/><path d="m480-800h16v-16h-64v16z"/><path d="m480-720v-32z"/><path d="m496-800h-16v48 32 48h16z"/><path d="m224-720v-80h-16v128h16z"/><path d="m432-672h-176-32-16v16h224z"/><path d="m496-656v-16h-16-48v16z"/><path d="m432-656h-224 208z"/><path d="m288-352v96z"/><path d="m288-256h-32v-96h32z"/><path d="m48-256h-48 96z"/><path d="m48-256v-16-64-16h-48v96z"/><path d="m256 640h-32z"/><path d="m208 640h16-64z"/><path d="m864-352h-96-64z"/><path d="m448-352h-192-32 192z"/><path d="m672-352h-192-32 192z"/><path d="m480-672h-32z"/><path d="m336-672h-48z"/><path d="m288-800h48 32 48 32 32-48-176z"/><path d="m224-800h32z"/><path d="m224-720v48z"/><path d="m224-752v-48 80z"/><path d="m480-672v-48z"/><path d="m480-752v-48z"/><path d="m448-752h32z"/><path d="m368-752h48z"/><path d="m336-752h-48z"/><path d="m224-752h32z"/><path d="m336-752v-48z"/><path d="m416-752v-48z"/><path d="m448-800h-32v48h32z"/><path d="m368-800h-32v48h32z"/><path d="m256-752v-48z"/><path d="m288-800h-32v48h32z"/><path d="m480-720h-32z"/><path d="m416-720h-48z"/><path d="m256-720h-32z"/><path d="m448-752h-32-48-32-48-32-32v32h32 32 48 32 48 32z"/><path d="m480-720v-32h-32v32z"/><path d="m368-720v48z"/><path d="m448-720v48z"/><path d="m416-720v48h32v-48z"/><path d="m288-720v48z"/><path d="m336-720v48h32v-48z"/><path d="m256-720v48h32v-48z"/><path d="m-192-352v128 96z"/><path d="m304 224h-224z"/><path d="m32 224h-16z"/><path d="m-160 224h160 16-64-16-64-16z"/><path d="m0-256v96z"/><path d="m0-160v32 32 96-64z"/><path d="m0 0v160z"/><path d="m256-256h-32v-96h32z"/><path d="m0-256h16 48 32z"/><path d="m208-256h16 32-42.6667z"/><path d="m256-352v96z"/><path d="m208-256h-112z"/><path d="m0-160v-96-96h-160-32v224h192z"/><path d="m-192-128v32h192v-32z"/><path d="m512 480v-64 112z"/><path d="m544 416h-32v-16z"/><path d="m512 400 32 16z"/><path d="m-160 224v128 48z"/><path d="m416 320h32v-96h-32z"/><path d="m448 423.1111-64 7.1112-128 14.2222-32 3.5555v-16l224-24.8889z"/><path d="m512 400v16l-64 7.1111v-16z"/><path d="m344 336h-208-16l8-16h176 40z"/><path d="m384 320h32l-48 16h-24v-16z"/><path d="m384 448v-17.7777l64-7.1112 64-7.1111v64h-128z"/><path d="m304 320h-176-48v-96h224z"/><path d="m384 224v96h-40-40v-96z"/><path d="m384 430.2223v17.7777h-32-64-32v-3.5555z"/><path d="m384 448v32h-32v-32z"/><path d="m80 400v-80h48l-8 16-40 80z"/><path d="m208 432h16v16 32 160h-16z"/><path d="m224 480v-32l32-3.5555v3.5555 32z"/><path d="m136 336-88 176h-16l48-96 40-80z"/><path d="m384 480h128v48l-160 70v-86-32z"/><path d="m352 512v86l-32 14-32 14v-114z"/><path d="m224 640v-160h32 32v32 114l-21.1064 9.2341z"/><path d="m48 333.5714v-13.5714-16-16-64h32v96 80h-32z"/><path d="m16 320v-96h16v64 16 16l-16 32z"/><path d="m48 304v16h-11.9333-4.0667v-16z"/><path d="m16 363 7-15 9 4.2v15.6571 32.1429h-16z"/><path d="m16 352 16-32h4.0667l-6.0667 13-7 15-7 15z"/><path d="m32 400v-32.1429l6-12.8571 7-15 3-6.4286v66.4286z"/><path d="m32 367.8571v-15.6571l6 2.8z"/><path d="m36.0667 320h11.9333v13.5714l-3 6.4286-15-7z"/><path d="m16 320v32l-24 48h-16z"/><path d="m16 363v37h-24l24-48z"/><path d="m-24 400h16l-8 16h-96-48v-16z"/><path d="m32 512h-48v-80-16l8-16h24 16 16 32v16z"/><path d="m-16 432v80h-144l32-64 8-16z"/><path d="m-128 448v-16h8z"/><path d="m32 512h16v128h-16z"/><path d="m-16 512h48v128h-96l-80-53.3334-16-10.6666v-64z"/><path d="m352 598 160-70-192 84z"/><path d="m266.8936 635.2341 21.1064-9.2341 32-14-64 28z"/><path d="m32 288v-64 16 16z"/><path d="m32 304v-16z"/><path d="m-16 416h-16-32-16-32z"/><path d="m48 512v128z"/><path d="m344 336h24-16-216z"/><path d="m416 224v96z"/><path d="m416 320-48 16z"/><path d="m208 432h16z"/><path d="m448 407.1111-224 24.8889z"/><path d="m224 640 42.8936-4.7659v-.0001z"/><path d="m136 336-8 16-80 160z"/><path d="m-192 512h32z"/><path d="m-192 512v-64h32v64z"/><path d="m-192 576v-64h32v64z"/><path d="m-160 512h-32v64h32z"/><path d="m864-352h-160-32z"/><path d="m416-352h-192-32 192z"/><path d="m640-352h-192-32 192z"/><path d="m304 224h-224z"/><path d="m384 224h-80z"/><path d="m480 224h64-96z"/><path d="m48 224h16 16z"/><path d="m-160 224h160z"/><path d="m0-64v64 160-96-16-80z"/><path d="m160-256h32 16-112z"/><path d="m224-256h-16z"/><path d="m224-352v96z"/><path d="m224-352v96h-16-16v-96z"/><path d="m384 320v-96z"/><path d="m416 320h32-32-32z"/><path d="m448 224v96z"/><path d="m480 224h-32v96h32z"/><path d="m416 320h-32v-96h32z"/><path d="m48 288v16z"/><path d="m48 288v-32-16-16z"/><path d="m-112 432h32 16 32 16-104-8z"/><path d="m-16 432v-16z"/><path d="m32 288v-32h16v32z"/><path d="m32 240v-16h16v16z"/><path d="m-112 416h-48z"/><path d="m-32 432h-32v-16h32z"/><path d="m-80 432h-32v-16h32z"/><path d="m1440-320v-64z"/><path d="m1440-320v64 112z"/><path d="m1408-560 32 176z"/><path d="m1440-560h-32z"/><path d="m1408-560h32v176z"/><path d="m1440-320v176h-32z"/><path d="m1424-320v-64h16v64z"/><path d="m1424-320h16z"/><path d="m1424-384v64h-16v-64z"/><path d="m1424-384h-16z"/><path d="m1408-320-32 176z"/><path d="m1248-208v-32z"/><path d="m1344-144h32-64-32z"/><path d="m1344-160v16h-64v-16z"/><path d="m1344-224h-64v-16h64z"/><path d="m1344-384v64 80h-64-32v-48-96z"/><path d="m1344-160v-64-16-80h64l-32 176h-32z"/><path d="m1408-320h-64v-64h64z"/><path d="m1344-384h-96v-32-48-96h128l32 176z"/><path d="m1248-240h32z"/><path d="m1248-560v96l-96-96z"/><path d="m1248-560h-96z"/><path d="m1248-416-16-16-48-48z"/><path d="m1152-560h-32z"/><path d="m1120-560v16z"/><path d="m1248-464v48l-64-64-64-64v-16h32z"/><path d="m1120-144h96z"/><path d="m1120-480h64-32z"/><path d="m1120-544v64z"/><path d="m1120-544 64 64h-64z"/><path d="m1248-288v48 32h-16-16v-48z"/><path d="m1184-224 32-32v48 32h-32z"/><path d="m1184-224v48h-64v-48z"/><path d="m1184-176h32v32h-96v-32z"/><path d="m1216-176v-32 64z"/><path d="m1232-208h16z"/><path d="m832-352h32-192-32z"/><path d="m384-352h-192-32 160z"/><path d="m608-352h-192-32 160z"/><path d="m832-352h-192-32 160z"/><path d="m416-640h-224v-16h16 208z"/><path d="m432-656h64 16v16h-96v-16z"/><path d="m512-656h-16v-16-48-32-48-16h16z"/><path d="m256-752v-48h32v48z"/><path d="m432-752h-16v-48h16 16v48z"/><path d="m336-752v-48h32v48z"/><path d="m432-656h-16-208v-16h16 32 32 48 32 48 16z"/><path d="m448-672h32 16v16h-64v-16z"/><path d="m480-752v-48h16v48z"/><path d="m224-672h-16v-48h16z"/><path d="m208-752v-48h16v48z"/><path d="m496-672h-16v-48h16z"/><path d="m432-800h-16-48-32-48-32-32-16v-16h208 16z"/><path d="m496-816v16h-16-32-16v-16z"/><path d="m368-672h-32v-48h32z"/><path d="m448-672h-16-16v-48h16 16z"/><path d="m288-672h-32v-48h32z"/><path d="m432-720h-16-48-32-48-32-32-16v-32h16 32 32 48 32 48 16z"/><path d="m448-752h32 16v32h-16-32-16v-32z"/><path d="m208-800v48 32 48 16h-16v-160h16z"/><path d="m416-816h-208-16v-16h224z"/><path d="m512-832v16h-16-64-16v-16z"/><path d="m416-672h-48z"/><path d="m448-800h32z"/><path d="m368-800h48z"/><path d="m336-800h-48z"/><path d="m224-800v48z"/><path d="m448-800v48z"/><path d="m368-800v48z"/><path d="m288-800v48z"/><path d="m336-720h-48z"/><path d="m416-672v-48z"/><path d="m336-672v-48z"/><path d="m256-672v-48z"/><path d="m416 224h-32-80z"/><path d="m512 224h32-64z"/><path d="m544 224h-32z"/><path d="m304 224h-224z"/><path d="m544 160h32 128-160-64z"/><path d="m224 160h-128-32-64 32 32z"/><path d="m448 160h-192-32 64 32z"/><path d="m368 16h-3z"/><path d="m365 16h-13-16z"/><path d="m336-48h16 13z"/><path d="m365-48h3z"/><path d="m368-48-16-16z"/><path d="m365-48h-13v64h13z"/><path d="m336-48v64h16v-64z"/><path d="m368-48h-3v64h3z"/><path d="m365 16v-64z"/><path d="m365-48v64z"/><path d="m336 16v-64z"/><path d="m192-256h-32z"/><path d="m192-352v96z"/><path d="m192-256h-32v-96h32z"/><path d="m96 64v96-96-16z"/><path d="m256 64h-32v96h32z"/><path d="m256 64v96-96-16z"/><path d="m64 64v-16 16 96z"/><path d="m96 160v-96h-32v96z"/><path d="m96 64v-16-16h-32v16 16z"/><path d="m576 208v-32z"/><path d="m704 160h-128v16 32 16h128z"/><path d="m576 160h-32l32 16z"/><path d="m576 208-32 16h32z"/><path d="m576 176-32-16z"/><path d="m704 224v32 160-160z"/><path d="m704 416h-160z"/><path d="m576 256h-32v160h160v-160z"/><path d="m544 224v32h32v-32z"/><path d="m576 224v32h128v-32z"/><path d="m256 480v-32z"/><path d="m256 448h32z"/><path d="m448 320h32-32-32z"/><path d="m480 224v96z"/><path d="m512 224h-32v96h32z"/><path d="m448 320h-32v-96h32z"/><path d="m416 320v-96z"/><path d="m288 480h-32z"/><path d="m288 480h-32v-32h32z"/><path d="m288 480v-32z"/><path d="m288 480v32z"/><path d="m1440-384h-16v64h16z"/><path d="m365 16h-29v-64h29z"/><path d="m336-48h29z"/><path d="m365 16h-29z"/><path d="m336 16v-64z"/><path d="m365-48v64z"/><path d="m1248-416v32 96z"/><path d="m1120-480h32z"/><path d="m1152-224h32-64z"/><path d="m1216-288v32l-32 32h-32z"/><path d="m1232-416v144l-16 16v-32-128z"/><path d="m1232-432v16h-16l-64-64h32z"/><path d="m1232-416v-16l16 16v128l-16 16z"/><path d="m1216-256 16-16 16-16-32 32-32 32z"/><path d="m864-352h-32z"/><path d="m544-352h-160-64 16 16z"/><path d="m768-352h-160-64z"/><path d="m304 224h-224z"/><path d="m448 224h-32-112z"/><path d="m128-256h32-64z"/><path d="m160-352v96z"/><path d="m160-256h-32v-96h32z"/><path d="m512 224v96z"/><path d="m544 416v-96z"/><path d="m544 320v96-160-32z"/><path d="m512 320h32v-96h-32z"/><path d="m480 320h32-32-32z"/><path d="m512 320h-32z"/><path d="m448 320v-96z"/><path d="m480 320h-32v-96h32z"/><path d="m1280-224v16z"/><path d="m1280-224v-16z"/><path d="m1248-208h32z"/><path d="m1280-224v16h-32v-32h32z"/><path d="m1152-224h-32z"/><path d="m1152-224h-32l64-64v32z"/><path d="m1216-416v128l-32 32v-32-128z"/><path d="m1216-416h-32l-64-64h32z"/><path d="m1216-416v128z"/><path d="m1184-256 32-32-64 64z"/><path d="m1152-480 64 64z"/><path d="m1232-208h16z"/><path d="m1232-208h-16z"/><path d="m128-352h64 128-160z"/><path d="m864-352h-32-64z"/><path d="m480 224h-32-144z"/><path d="m304 224h-224z"/><path d="m0-160v96z"/><path d="m864-64v16 16 192-112z"/><path d="m864-288v128 16 80-112z"/><path d="m480 160h-128-32-64 192z"/><path d="m224 160h-128z"/><path d="m64 160h-64z"/><path d="m320 32v16 16z"/><path d="m320-64v64 32z"/><path d="m320-96v32z"/><path d="m864-288v-64h-96v128 32 32h96z"/><path d="m736-224h32v-128h-224v112 16z"/><path d="m736-224 32 32v-32z"/><path d="m784-144h80v-16h-96v16z"/><path d="m784 32v128h80v-192h-80z"/><path d="m784-32h80v-16h-80-16v16z"/><path d="m784 32v-64h-16v32 32z"/><path d="m736 0v-160h-192v176 16h192z"/><path d="m704 160h80v-128h-16-32-192v128z"/><path d="m480-240h64v-112h-192l-14 112z"/><path d="m328-160 10-80 14-112h-16l-16 128v96h4z"/><path d="m320-128v32l4-32z"/><path d="m480-240v16h32 32v-16z"/><path d="m480-176v16h32z"/><path d="m480-208 32-16h-32z"/><path d="m368-160h112v-16-32-16-16h-142l-10 80z"/><path d="m368-96v48 64h176v-176h-32-32-112z"/><path d="m352-96h16v-64h-40l-4 32-4 32z"/><path d="m352-96v32l16 16v-48z"/><path d="m368 16-16 16v32 96h128 64v-128-16z"/><path d="m352 160v-96h-32v96z"/><path d="m768-144v96z"/><path d="m784-48h80-16-16-32z"/><path d="m336-352-16 128z"/><path d="m480-208v32z"/><path d="m768 32h-32z"/><path d="m736 0v-160z"/><path d="m736 32v-32z"/><path d="m768 0v32z"/><path d="m768-32v-16-96-16-32 16 176z"/><path d="m768-192-32-32z"/><path d="m544-160h192-224z"/><path d="m512-224-32 16z"/><path d="m480-176 32 16z"/><path d="m352-96h-32z"/><path d="m368-48v64z"/><path d="m352-64v-32z"/><path d="m352 64v-32z"/><path d="m352 32 16-16z"/><path d="m320 64h32z"/><path d="m96-256h32z"/><path d="m128-352v96z"/><path d="m96-256v-96z"/><path d="m128-256h-32v-96h32z"/><path d="m224 64v96-96-16z"/><path d="m224 48v-16z"/><path d="m256 48h48z"/><path d="m320-64v-32-32-96l-16 128v96h16z"/><path d="m304 0v48h16v-16-32z"/><path d="m304 0v-96 96 48z"/><path d="m320 64v-16h-16-48v16z"/><path d="m320 64h-64v96h64z"/><path d="m256 48v-16h-32v16 16h32z"/><path d="m96 48h128z"/><path d="m224 64h-128v96h128z"/><path d="m224 48h-128v16h128z"/><path d="m64 48v-16z"/><path d="m16 48h48z"/><path d="m16-176v-64-16h-16v96 96 32h16z"/><path d="m0-32v80h16v-80z"/><path d="m64-256h-48v16z"/><path d="m16-176v144 80-80z"/><path d="m64 64v-16h-48-16v16z"/><path d="m64 64h-64v96h64z"/><path d="m544 320h-32z"/><path d="m544 320h-32z"/><path d="m352 448h-64z"/><path d="m480 320v-96z"/><path d="m512 320h-32v-96h32z"/><path d="m320 512h32-64z"/><path d="m352 480v-32 32 32z"/><path d="m320 480h-32v-32h64v32z"/><path d="m320 512h-32v-32h32z"/><path d="m1120-448v192 32-192z"/><path d="m1184-416v128z"/><path d="m1120-448v-32l64 64v128l-32 32h-32z"/><path d="m1152-256-32 32v-32z"/><path d="m1120-480 64 64z"/><path d="m1152-256 32-32-64 64z"/><path d="m64-352h32z"/><path d="m96-352h32z"/><path d="m304 224h-224 208z"/><path d="m512 224h-32-176z"/><path d="m32 224h16-16-16-16z"/><path d="m864-144v16 80-16z"/><path d="m800-48h32z"/><path d="m848-48h16z"/><path d="m800-144h32 16 16-80z"/><path d="m832-144h-32z"/><path d="m848-144h-16v96h16z"/><path d="m800-144h-16v96h16z"/><path d="m784-48h-16z"/><path d="m784-144h-16z"/><path d="m96-256h-32z"/><path d="m64-352h32v96h-32z"/><path d="m64-256-48 16z"/><path d="m512 320v-96z"/><path d="m544 224v96h-32v-96z"/><path d="m-160 576v-64z"/><path d="m-160 512v64z"/><path d="m-160 576v-64z"/><path d="m48 240v16z"/><path d="m-112 432h-16z"/><path d="m-16 432h-16z"/><path d="m-64 432h-16z"/><path d="m32 333.9336-2-.9336 15 7z"/><path d="m36.4285 336 8.5715 4z"/><path d="m32 256v32h16v-32z"/><path d="m48 224h-16v16h16z"/><path d="m32 304v29.9336l4.4285 2.0664h11.5715v-32z"/><path d="m32 304v-16-32-16-16 104.7143 5.219.0003z"/><path d="m32 288h16z"/><path d="m48 256h-16z"/><path d="m32 256v-16z"/><path d="m32 240h16z"/><path d="m32 304h16z"/><path d="m30 333-7 15z"/><path d="m-112 416h32 16 32 16-144z"/><path d="m-32 416h16z"/><path d="m-80 416h16z"/><path d="m-80 432v-16z"/><path d="m-32 416h-32v16h32z"/><path d="m-64 416v16z"/><path d="m-32 432v-16z"/><path d="m-80 416h-32v16h32z"/><path d="m-112 416v16z"/><path d="m-144 480 16-32-32 64z"/><path d="m-144 586.6666 80 53.3334-24-16z"/><path d="m-144 480-16 32v64l16 10.6666z"/><path d="m-160 576 16 10.6666z"/><path d="m-128 448v-16z"/><path d="m-160 512h-32z"/><path d="m-160 576h-32z"/><path d="m1248-208v-16 64z"/><path d="m1280-144h-32z"/><path d="m1280-144h-32v-16h32z"/><path d="m1344-160h-32v-16h32z"/><path d="m1280-224h-32v16h32z"/><path d="m1312-208v-16h32v16z"/><path d="m1376-560h-128z"/><path d="m1344-176v-32-16 64z"/><path d="m1280-144v-16z"/><path d="m1312-160h32-64z"/><path d="m1344-224h-32-32z"/><path d="m1248-560h-96z"/><path d="m-192 576h32v-64h-32z"/><path d="m-192 448v64h32v-64z"/><path d="m-120 432h-8v16z"/><path d="m-16 480v-48h-104l-8 16-16 32v106.6666l56 37.3334z"/><path d="m-16 432v48l32-64h-24.7333-7.2667z"/><path d="m32 367.8571v-15.6571l-9-4.2-31.7333 68h24.7333l8-16 8-16z"/><path d="m32 333.9333v-5.219l-2 4.2857z"/><path d="m45 340 1.8667-4h-10.4382z"/><path d="m32 367.8571 6-12.8571-6-2.8z"/><path d="m48 336h-1.1333l-1.8667 4-7 15-6 12.8571v16.1429l24-48z"/><path d="m-192-96v-32-32h32v224 10.6666l-32-42.6666z"/><path d="m32 224h-32-160v192h144 7.2667l31.7333-68 7-15 2-4.2857z"/><path d="m64 224h-16v112h8l8-16z"/><path d="m-128-160h64 64v128 80 16h-160v-224z"/><path d="m16 48h48v16h-64v-16z"/><path d="m352 512h-32v-32h32z"/><path d="m304 64h-16-32v-16h48z"/><path d="m224 64h-128v-16h128z"/><path d="m64 160h-160l-64-85.3334v-10.6666h160 64z"/><path d="m288 160h-160-64v-96h32 128 32 32z"/><path d="m304 64h16 32v96h-64v-96z"/><path d="m352-160h128 32 32v192 32h-192z"/><path d="m544 64v96h-192v-96z"/><path d="m320 0v-96l4-32 4-32h24v224h-32z"/><path d="m-224-224h32v64 32h-32z"/><path d="m-192-256v-192h64v96 64 32 32h-64z"/><path d="m-128-224v64h-32-32v-64z"/><path d="m-128-160v-64-32h32 32v96z"/><path d="m0-160v-96h16v16 64 144h-16z"/><path d="m16-32v80h-16v-80z"/><path d="m16-240v-16h48z"/><path d="m-128-288h32v32h-32z"/><path d="m-64-256v-32-64h64v96 96h-64z"/><path d="m0-352h64v96h-48-16z"/><path d="m-128-448h160 64v64 32h-32-64-64-64z"/><path d="m320-224v96 32 96h-16v-96z"/><path d="m320 0v64h-16v-16-48z"/><path d="m352-160h-24l10-80h126 16v32 32 16z"/><path d="m480-240h32v16l-32 16z"/><path d="m512-160h-32v-16z"/><path d="m336-352h16l-14 112-10 80-4 32h-4v-96z"/><path d="m324-128-4 32v-32z"/><path d="m338-240 14-112h112v16 96z"/><path d="m512-336h32v96h-32-32-16v-96z"/><path d="m320-496h-128v-112h128z"/><path d="m96-448v-160h96v112 112h-96z"/><path d="m192-384v32h-64-32v-32z"/><path d="m358.4-480h153.6v64z"/><path d="m512-352v-64-64h32v128 16h-32z"/><path d="m320-608h96l128 45.7143v82.2857h-32-153.6l-38.4-16z"/><path d="m688 256h16v160h-160v-160z"/><path d="m544 256v-32l32-16 96-48h64l-32 64-16 32z"/><path d="m736 32h32 16v104l-48 24h-64-96-32v-96-32z"/><path d="m544 160h32v16z"/><path d="m576 176v-16h96l-96 48z"/><path d="m688 256 16-32v32z"/><path d="m544-160h128l64 64v96 32h-192z"/><path d="m672-160h64v64z"/><path d="m768 32v-32-32h16v64z"/><path d="m864 96-80 40v-104-64h80z"/><path d="m784-48h16 32 16 16v16h-80-16v-16z"/><path d="m864-160v16h-16-16-32-16-16v-16z"/><path d="m848-48h-16v-96h16z"/><path d="m800-48h-16v-96h16z"/><path d="m544-336v-16h16v112h-16z"/><path d="m736-224-128-128h160v128 32z"/><path d="m560-240v-112h48l128 128h-176z"/><path d="m912-224h-32-16-96v-128h32 128v128z"/><path d="m864-384h16 32 16v32h-128v-32z"/><path d="m768-192v-32h96v16 32 16h-96z"/><path d="m928-208v-16-128-32-16-16h64 16v224h-80z"/><path d="m1008-192v16 32h-80v-48z"/><path d="m800-470.8571 64 22.8571v48 16h-64z"/><path d="m768-352h-160-48-16v-128-82.2857l96 34.2857 128 45.7143z"/><path d="m800-470.8571v86.8571 32h-32v-130.2857z"/><path d="m992-416v-64h16v64z"/><path d="m1040-208v32h-32v-16-224h32z"/><path d="m1040-416h32 32v208h-64z"/><path d="m1104-208v-208h16v192 32h-16z"/><path d="m1120-192v48h-16v-48z"/><path d="m1120-480v32 32h-16-32v-64z"/><path d="m1008-560h112v16 64h-48-64-16-64v-80z"/><path d="m1216-208h16 16v48 16h-32z"/><path d="m864-144v-16-16 48z"/><path d="m864-224v-32 16 32z"/><path d="m864-448v48 32-32z"/><path d="m928-384v32-16-32z"/><path d="m928-224v16-32-16z"/><path d="m1152-560h-32-112 32 96z"/><path d="m1040-176v-32z"/><path d="m544 160h-96-96z"/><path d="m-192-256v32-8z"/><path d="m320-608h-128-96 96z"/><path d="m560-224h176-160z"/><path d="m640-528-96-34.2857-128-45.7143 96 34.2857z"/><path d="m736-96v-64z"/><path d="m736-160h-64z"/><path d="m784 136 80-40-80 40-48 24z"/><path d="m-160 74.6666 64 85.3334-64-85.3333-32-42.6667z"/><path d="m96-448v-160z"/><path d="m192-496h128z"/><path d="m192-384v-112 112 32z"/><path d="m32-448h-160-64 64 64 32z"/><path d="m-96-288h-32z"/><path d="m-96-288v32z"/><path d="m96 32h-32z"/><path d="m-192-224h-32z"/><path d="m-224-128h32z"/><path d="m704 256v-32 32 160z"/><path d="m288 224h-208-16 64 32 64z"/><path d="m512 224h-208-16 96z"/><path d="m512 416v112z"/><path d="m320 612-64 28z"/><path d="m512 528-128 56-64 28z"/><path d="m24 400-8 16-32 64-72 144 40-80z"/><path d="m-88 624 24 16z"/><path d="m1120-480v32z"/><path d="m1120-192v-32 48 32z"/><path d="m320-352h16z"/><path d="m-192 576v-64z"/><path d="m-192 512v-64z"/><path d="m512 224h32-32-208z"/><path d="m0 224h32z"/><path d="m784-48v-96z"/><path d="m864-144h-16z"/><path d="m832-48v-96z"/><path d="m848-144v96z"/><path d="m800-144v96z"/><path d="m64-352v96z"/><path d="m96 48v-16z"/><path d="m256 48v-16z"/><path d="m320-224-16 128z"/><path d="m16-240v64z"/><path d="m512 416h32z"/><path d="m544 256v160-96-96z"/><path d="m-160 224v176 16z"/><path d="m-160 448v64z"/><path d="m352 512h-32z"/><path d="m352 480v32z"/><path d="m320 512v-32z"/><path d="m320 480h32z"/><path d="m48 224v16 16 32 16 32z"/><path d="m-120 432h104-16-32-16-32-16z"/><path d="m30 333 2 .9336v-.0003z"/><path d="m46.8667 336h1.1333-11.5715z"/><path d="m23 348 9 4.2 6 2.8-6-2.8z"/><path d="m38 355 7-15z"/><path d="m-128 448-16 32z"/><path d="m-144 480v106.6666z"/><path d="m-192 448h32z"/><path d="m-256-224h32v96h-32z"/><path d="m-256-128h-96z"/><path d="m736-160h-64l64 64z"/><path d="m-160 576h-32v-64h32z"/><path d="m-192 512h32z"/><path d="m-160 576h-32z"/><path d="m-160 512v64z"/><path d="m-192 576v-64z"/><path d="m320 612 64-28-32 14z"/><path d="m512 416-128 32v136l128-56z"/><path d="m384 448h-32z"/><path d="m384 448h-32v32 118l32-14z"/><path d="m1440-384v-176z"/><path d="m1424-320v-64z"/><path d="m1424-384v64z"/><path d="m1440-384h-16v64h16z"/><path d="m1440-384h-16z"/><path d="m512 640h-128z"/><path d="m160 640h-32-64-128 96 16z"/><path d="m1408-384v64h16v-64z"/><path d="m1408-320h16z"/><path d="m1408-384-32-176z"/><path d="m1312-224v16z"/><path d="m1312-176v16z"/><path d="m1344-176h-32v-32h32z"/><path d="m1312-208h32z"/><path d="m1344-208v32z"/><path d="m1344-176h-32z"/><path d="m1312-224h-64 32z"/><path d="m1008-144h-80z"/><path d="m1008-144v-32z"/><path d="m1040-144h-32v-32h32z"/><path d="m1040-176v-32 48 16z"/><path d="m1008-176h32z"/><path d="m538-240h-16-10 32z"/><path d="m538-240h6z"/><path d="m486-336h16 10-48z"/><path d="m486-336h-22z"/><path d="m512-336v-16z"/><path d="m522-240h16l-36-96h-16z"/><path d="m538-240-36-96z"/><path d="m512-240v16z"/><path d="m-64-256h-32z"/><path d="m-64-288v32z"/><path d="m-64-288v-48-16z"/><path d="m-96-288h32v32h-32z"/><path d="m64 288v-64 96z"/><path d="m64 352v192 32-128z"/><path d="m160 224h-32z"/><path d="m544 224h-32-128z"/><path d="m544 224h-32z"/><path d="m512 416v224z"/><path d="m224 288v64z"/><path d="m320 612 32-14v-118h-64-64v96 64h32z"/><path d="m288 224h-64v64 64 96h64z"/><path d="m224 448v32h64v-32z"/><path d="m352 448h-64v32h64z"/><path d="m384 448 128-32v224h-128z"/><path d="m384 416v-192h-96v224h64 32z"/><path d="m384 416v32 192z"/><path d="m384 448 128-32z"/><path d="m128 640-64-64v64z"/><path d="m224 640v-64l-64 64z"/><path d="m128 224h-64v64z"/><path d="m224 224h-64l64 64z"/><path d="m224 576-64 64z"/><path d="m128 640-64-64z"/><path d="m64 352v-32l-40 80-72 144h112z"/><path d="m-48 544-40 80 24 16h128v-64-32z"/><path d="m64 320-8 16-24 48-8 16z"/><path d="m1440-320h-16v-64h16z"/><path d="m1424-384h16z"/><path d="m1440-320h-16z"/><path d="m1440-384v64z"/><path d="m1424-320v-64z"/><path d="m512-240h10z"/><path d="m512-336h-10z"/><path d="m538-240h-16l-36-96h16z"/><path d="m522-240-36-96z"/><path d="m1440-384v-176h-32l21.8181 120z"/><path d="m-352-224v96z"/><path d="m1429.8181-264 .3357-1.8461 9.8462-54.1539-32 176z"/><path d="m1440-144h-32z"/><path d="m1440-256-9.8462-9.8461-.3357 1.8461-21.8181 120h32z"/><path d="m1440-320-9.8462 54.1539 9.8462 9.8461z"/><path d="m160 640h-32z"/><path d="m1408-336v16-64z"/><path d="m1312-560h64-128z"/><path d="m1312-224v16 32z"/><path d="m1408-384-32-176h-64v224h96z"/><path d="m1312-336v112 48 16 16h64l32-176v-16z"/><path d="m1312-560h-64v96 128h64z"/><path d="m1248-336v96 16h64v-112z"/><path d="m1280-144h32v-16h-64v16z"/><path d="m1312-160h-32-32z"/><path d="m1248-464v-96h-96z"/><path d="m928-560v80z"/><path d="m1040-144h-32z"/><path d="m1120-144h-16z"/><path d="m1120-144h16z"/><path d="m1248-144h-96-16-16 96z"/><path d="m928-560h80z"/><path d="m1104-160v-48 16 48z"/><path d="m1248-336v-128h-16v224h16z"/><path d="m1232-464h16l-96-96h-16z"/><path d="m1248-160v-64-16l-96 96h96z"/><path d="m1248-240h-16l-96 96h16z"/><path d="m1232-240-96 96z"/><path d="m1072-416h-32v-64h32z"/><path d="m1104-224h-64v16h64z"/><path d="m1008-480h-16v64h16z"/><path d="m976-416h-48v-64h48z"/><path d="m1104-144h-64v-16h64z"/><path d="m1040-208v-16 32 32z"/><path d="m992-480h16 32-64z"/><path d="m976-416h16-64z"/><path d="m1040-416h32-32-32z"/><path d="m1008-416v-64z"/><path d="m1040-480h-32 64z"/><path d="m1072-480v64z"/><path d="m976-480h-48 64z"/><path d="m992-480v64z"/><path d="m1104-208h-64z"/><path d="m-64-352h-64z"/><path d="m-128-352v16 48z"/><path d="m-128-336v-16h64v16z"/><path d="m-128-288v16h64v-16z"/><path d="m-64-288h-32-32z"/><path d="m64 288v32 32z"/><path d="m224 352v96 128-96-32z"/><path d="m224 448v-96-64l-64-64h-32l-64 64v64 96z"/><path d="m128 640h32l64-64v-128h-160v128z"/><path d="m224 288-64-64z"/><path d="m128 224-64 64z"/><path d="m-352-224h96z"/><path d="m320-352h48 32 64-112-16z"/><path d="m464-352v16z"/><path d="m538-240h6z"/><path d="m538-240h-16-10 10 16 6z"/><path d="m486-336h16 10-10-16-22z"/><path d="m486-336h-22z"/><path d="m522-240h16l-36-96h-16z"/><path d="m538-240-36-96z"/><path d="m1248-256v-208 128 96z"/><path d="m1120-144h16 16z"/><path d="m1040-560h-32z"/><path d="m1040-560h96z"/><path d="m1232-464v-16l16 16v208h-16z"/><path d="m1248-256v16l-16 16v-16-16z"/><path d="m1232-464-96-96h16l80 80z"/><path d="m1232-240v16l-80 80h-16z"/><path d="m1232-224 16-16-96 96z"/><path d="m1232-256v16-224z"/><path d="m1232-464-96-96z"/><path d="m-192-232v8-224 192z"/><path d="m512-240h10z"/><path d="m512-336h-10z"/><path d="m538-240h-16l-36-96h16z"/><path d="m522-240-36-96z"/><path d="m-192-224h-32v96h32z"/><path d="m-224-224h-32v96h32z"/><path d="m-256-224h32z"/><path d="m-256-128h32z"/><path d="m-256-224h-96v96h96z"/><path d="m464-352h-64-32-48 128z"/><path d="m368-352h-48z"/><path d="m400-352h64z"/><path d="m400-352h-32z"/><path d="m48 64v-48 48 16z"/><path d="m64 32v-16h-16v48h16z"/><path d="m272 16h-16v16 32 16h16z"/><path d="m224 64v16h32v-16z"/><path d="m96 80v-16h-32-16v16z"/><path d="m96 32v-16h-32v16z"/><path d="m256 16h-32v16h32z"/><path d="m224 64v-32-16h-128v16 32 16h128z"/><path d="m64 16h32 128 32 16-224z"/><path d="m224 64v-16-16z"/><path d="m224 32h32z"/><path d="m256 64h-32z"/><path d="m256 32v16 16z"/><path d="m96 32v16 16z"/><path d="m96 64h-32z"/><path d="m64 64v-16-16z"/><path d="m1248-464-16-16-80-80z"/><path d="m864-368v16-32-16z"/><path d="m864-240v64-32z"/><path d="m928-192v-48 32 16 48z"/><path d="m928-368v-48 16z"/><path d="m928-480v-80 80 64z"/><path d="m1104-144h-64z"/><path d="m1040-560h64 48-16z"/><path d="m1104-224v16 48z"/><path d="m1248-336v-128l-96-96h-48v224z"/><path d="m1248-240v-96h-144v112 64 16h16 32z"/><path d="m1040-480v64z"/><path d="m1040-224h64z"/><path d="m1104-560h-64v80 64 80h64z"/><path d="m1040-336v112h64v-112z"/><path d="m1040-144h64v-16h-64z"/><path d="m1104-160h-64z"/><path d="m1040-416h-32-16-16z"/><path d="m976-480h64v-80h-32-80v80z"/><path d="m976-416v-64h-48v64z"/><path d="m976-416v-64z"/><path d="m1040-224v-112-80h-64-48v48 16 96 16 48h112z"/><path d="m928-192v48h80 32v-16-32z"/><path d="m864-352v96h16v-96z"/><path d="m912-256v-96h-32v96z"/><path d="m928-352h-16v96h16z"/><path d="m912-256v32h16v-32z"/><path d="m880-256v32h32v-32z"/><path d="m864-256v32h16v-32z"/><path d="m880-352v-32h-16v32z"/><path d="m912-352v-32h-32v32z"/><path d="m928-352v-32h-16v32z"/><path d="m736 160h-64z"/><path d="m128 160h-80-144 160z"/><path d="m352 160h-32-48-144 160z"/><path d="m-192-160v-64-8 8 96z"/><path d="m-192 32v-32-128 32z"/><path d="m-192-128v32z"/><path d="m448-432v80z"/><path d="m320-432h128z"/><path d="m320-432h128v80h-128z"/><path d="m544-240h16v-16l-48-96v16 96z"/><path d="m560-256v16 16h16z"/><path d="m464-336v16l48 96v-16-96z"/><path d="m464-336v-16h-16l16 32z"/><path d="m560-256 16 32-62.8571-125.7143-1.1429-2.2857z"/><path d="m560-224v-16z"/><path d="m512-240h10 16 6z"/><path d="m560-240h-16z"/><path d="m512-336h-10-16-22z"/><path d="m736-80v80-96z"/><path d="m736 0v32z"/><path d="m544-160h112 16z"/><path d="m544-160h-32z"/><path d="m512-224-32 16z"/><path d="m672-160h-16l80 80v-16z"/><path d="m736-160h-64l64 64z"/><path d="m672-160 64 64z"/><path d="m736-96-64-64z"/><path d="m320 0v80 80h32 96z"/><path d="m272 0h48-64-64z"/><path d="m320-352h-128 64z"/><path d="m96-448h-64z"/><path d="m-32-224v64 160-128z"/><path d="m96-448h-64-64v64z"/><path d="m-160-160h-32v32 128h32z"/><path d="m-32-160h-32-64-32v160h128z"/><path d="m-128-272v-64-112h-64v224h64z"/><path d="m-192-224v64h32 32v-64z"/><path d="m-64-160v-64-48h-64v48 64z"/><path d="m-64-448h-64v112h64z"/><path d="m-32-384v-64h-32v112 64 48h32z"/><path d="m-64-224v64h32v-64z"/><path d="m-128-272v-16-48z"/><path d="m-64-336v48 16z"/><path d="m-64-272h-64z"/><path d="m-128-336h64z"/><path d="m272 80h-16-32-128-48z"/><path d="m272 16v64z"/><path d="m320 0h-48v16 64h48z"/><path d="m272 16v-16h-80-144v16z"/><path d="m272 80h-224v80h80 144z"/><path d="m320 160v-80h-48v80z"/><path d="m-192 0v32l32 42.6667v-10.6667-64z"/><path d="m48 160v-80-16h-80-128v10.6667l64 85.3333z"/><path d="m-160 0v64h128v-64z"/><path d="m48 16v-16h-80v64h80z"/><path d="m688 256 16-32 32-64h-64l-96 48-32 16v32z"/><path d="m576 160h-32l32 16z"/><path d="m672 160h-96v16 32z"/><path d="m704 224-16 32h16z"/><path d="m704 416v-160h-16-144v160z"/><path d="m384 416h128 32v-160-32h-160z"/><path d="m512 416h-128v224h128z"/><path d="m704 224 32-64z"/><path d="m544 160 32 16z"/><path d="m576 176v32z"/><path d="m576 208-32 16z"/><path d="m544 416h-32z"/><path d="m704 416h-160z"/><path d="m384 224v192z"/><path d="m448-368h-128v16h128z"/><path d="m672-160h64v64z"/><path d="m672-160h64z"/><path d="m736-160v64z"/><path d="m736-96-64-64z"/><path d="m864-240v-16-96-16z"/><path d="m864-448v48z"/><path d="m-32-384v160z"/><path d="m-32-384v160-32z"/><path d="m-32-128h-160z"/><path d="m-192-224h160v96h-160z"/><path d="m160 0 24-24-216-72v96z"/><path d="m184-24-24 24h32 64v-96z"/><path d="m544 32v-192h-32-64-128v32 128l51.2 64h172.8z"/><path d="m371.2 64 76.8 96h96v-96z"/><path d="m64-432-96 48v128l96-96z"/><path d="m96-384v-64l-32 16v80h32z"/><path d="m192-352h-32l96 96v-96z"/><path d="m320-160v-48-144h-64v96 128h64z"/><path d="m256-128v32 96h64v-128z"/><path d="m448-208v16l32 16v-32-80l-32-64z"/><path d="m448-160h64l-32-16-32-16z"/><path d="m512-224-32-64v80z"/><path d="m192-496v-112h-96v160 64h96z"/><path d="m96-384v32h64 32v-32z"/><path d="m320-496v-112h-128v112z"/><path d="m448-352v-80h-128v80 144h128z"/><path d="m320-208v48h128v-32-16z"/><path d="m512-416v-157.7143l-96-34.2857h-96v112z"/><path d="m768 32h-32-192v32 96h128 64l48-24v-88-16z"/><path d="m544 32h192v-32-80l-80-80h-112z"/><path d="m864-128v-48h-80v208 16h80z"/><path d="m784 48v88l80-40v-48z"/><path d="m736-224 32 32v-32z"/><path d="m736-349.7143v-144l-96-34.2857-128-45.7143v157.7143 64l1.1429 2.2857z"/><path d="m576-224h160v-45.7143-80h-222.8571z"/><path d="m768-269.7143v-212.5714l-32-11.4286v144 80z"/><path d="m736-224h32v-34.2857-11.4286h-32z"/><path d="m784-176-16-16v192 32h16z"/><path d="m768-482.2857v212.5714 11.4286h96v-141.7143-48z"/><path d="m768-258.2857v34.2857 32l16 16h80v-82.2857z"/><path d="m-32-256v32z"/><path d="m256-128v-128 96 64z"/><path d="m184-24-216-72z"/><path d="m-32-128h-160z"/><path d="m864-128v176 48-128-16z"/><path d="m864-400v141.7143 82.2857-64-128z"/><path d="m672 160h-128-96 96 32z"/><path d="m-192-224v96z"/><path d="m416-608h-96z"/><path d="m320-432v80z"/><path d="m576-224h160z"/><path d="m736-493.7143 32 11.4286 96 34.2857-64-22.8571-32-11.4286-128-45.7143z"/><path d="m512-416v64z"/><path d="m512-416-192-80 38.4 16z"/><path d="m480-288 32 64-48-96-16-32z"/><path d="m480-208v32z"/><path d="m768 32h-32z"/><path d="m736 0v-80z"/><path d="m768 32v-32z"/><path d="m768-192v32 16 96 16 32z"/><path d="m768-192-32-32z"/><path d="m656-160h-112z"/><path d="m480-176 32 16z"/><path d="m736-80-80-80z"/><path d="m371.2 64-51.2-64 128 160z"/><path d="m192 0h-32-192 80z"/><path d="m-32-96v-32 128z"/><path d="m64-432 32-16-128 64z"/><path d="m-32-224h-160z"/><path d="m320-352v-16z"/><path d="m448-368v16z"/><path d="m448-352h-128v-16h128z"/><path d="m448-352h-128z"/><path d="m320-368h128z"/><path d="m-32-128v-32z"/><path d="m-32-128v32z"/><path d="m-32-224h-160z"/><path d="m-32-128v-32h-160v32z"/><path d="m-32-224v32z"/><path d="m-192-160v-32-32 96z"/><path d="m-32-160v-32h-160v32z"/><path d="m-32-192v-32h-160v32z"/><path d="m256-256v-96-32h64v224h-64z"/><path d="m320-160v192h-64v-32-96-64z"/><path d="m192-352h-32-96-96v-32h224z"/><path d="m256-384v32h-64v-32z"/><path d="m160-352h32 64v96z"/><path d="m-32-256v-96h96z"/><path d="m-64-384h32v32 96 96h-32z"/><path d="m-32-160v64 96 32h-32v-192z"/><path d="m184-24-24 24h-192v-96z"/><path d="m184-24 72-72v96h-96z"/><path d="m-32-160v-96 32 32 32 32 32z"/><path d="m160-352h-64-32z"/><path d="m256-96-72 72z"/><path d="m64-352-96 96z"/><path d="m256-256-96-96z"/></g></defs><path d="m-515-1155h2118v1958h-2118z" fill="#fff"/><g stroke="#000"><use fill="none" stroke-miterlimit="0" stroke-width="15" xlink:href="#a"/><use fill="#fff" xlink:href="#a"/></g></svg>