<svg viewBox="-592 -480 1056 944" xmlns="http://www.w3.org/2000/svg" xmlns:xlink="http://www.w3.org/1999/xlink"><defs><g id="a"><path d="m-592-64v224-176z"/><path d="m-592-288v224-176z"/><path d="m-352-480h-160-64z"/><path d="m208 320h-48z"/><path d="m288-240h-224v-224h224z"/><path d="m448-464v224h-160v-224z"/><path d="m-64-384v-96h112v32 192h-112z"/><path d="m48-256v32h-112v-32z"/><path d="m80-160v-64h128v96 128h-128z"/><path d="m208 0v64h-96-32v-64z"/><path d="m-336 288v-16-80-128h224v224z"/><path d="m-112 320h-208l-16-32h224z"/><path d="m-112 288v-224h192 32v224z"/><path d="m112 320h-176-32-16v-32h224z"/><path d="m208 64v32 192h-96v-224z"/><path d="m208 288v32h-48-48v-32z"/><path d="m-128-448v-32h64v96h-64z"/><path d="m-128-448h-64v-32h64z"/><path d="m-112-224h-80v-160h64 64v128 32z"/><path d="m-352-480h32v64h-16-48-128v-48-16z"/><path d="m-192-384v160h-144v-192h16 128z"/><path d="m-384-288v-64-64h48v192 32h-48z"/><path d="m-336-192v32 192h-48v-96-128z"/><path d="m-336 32v32 128h-48v-16-144z"/><path d="m-384-352v64h-128v-64z"/><path d="m-592-464h16v112 64h-16z"/><path d="m-512-464h-64-16v-16h16 64z"/><path d="m-576-464h64v48 64h-64z"/><path d="m-592-288h16 64 128v96 128h-208z"/><path d="m-384-64v96 144h-64-144v-16-224z"/><path d="m-448 176h64v16h-32z"/><path d="m-352 256-64-64h32 48v80z"/><path d="m-336 288-16-32 16 16z"/><path d="m-64-224h112-160z"/><path d="m-128-384v-64z"/><path d="m48-480v32z"/><path d="m64-240v-48-128-48z"/><path d="m448-464v208 16z"/><path d="m448-240h-144-16z"/><path d="m288-464h-224z"/><path d="m-384-352v-32-32z"/><path d="m-192-384h64z"/><path d="m-128-448h-64z"/><path d="m-320-416v-64z"/><path d="m-192-416h-128z"/><path d="m-384-416h-128z"/><path d="m-576-288h32 32z"/><path d="m-576-352v64z"/><path d="m-512-288v-32-32z"/><path d="m-512-416v32 32z"/><path d="m-512-352h-32-32z"/><path d="m80-160v160 64-64z"/><path d="m208-224v96z"/><path d="m-336-192v-32 64z"/><path d="m-320 320-16-32z"/><path d="m-112 64h-224z"/><path d="m-592 176h144z"/><path d="m-448 176 32 16z"/><path d="m-176-240h96z"/><path d="m-80-240v-96z"/><path d="m-80-336h-96z"/><path d="m-176-336v96z"/><path d="m-176-240h96v-96h-96z"/><path d="m464-480v32z"/><path d="m288-480h-224z"/><path d="m304 320h-96z"/><path d="m-112-224h-224 144z"/><path d="m80-224h32 96z"/><path d="m240-224h64z"/><path d="m304-224h16z"/><path d="m320-224h128z"/><path d="m448-224h16z"/><path d="m48-288v64z"/><path d="m48-448v32 128 64-32z"/><path d="m48-416v128z"/><path d="m64-288v-128z"/><path d="m64-240v-48z"/><path d="m288-464h-224v-16h224z"/><path d="m448-480h16l-16 16h-160v-16z"/><path d="m448-256v-208l16-16v32 192z"/><path d="m448-240v-16h16v32z"/><path d="m448-240 16 16h-16-128-16v-16z"/><path d="m304-224v-16z"/><path d="m112-240h-48z"/><path d="m288-240h16-16-48z"/><path d="m240-240h-128z"/><path d="m288-240h-48-128-48z"/><path d="m448-464h-160z"/><path d="m304 304v16z"/><path d="m304-208v32 32z"/><path d="m320 80v160 64-32-64-64z"/><path d="m320-144v160 64-64-64-64z"/><path d="m448 320v-16z"/><path d="m448 48v32z"/><path d="m448-208v80 48z"/><path d="m448 16v-96 128z"/><path d="m352 304h-32z"/><path d="m320-144v-64h128v128 96h-128z"/><path d="m448 16v32 32 160h-128v-160-64z"/><path d="m448 240v64h-96-32v-64z"/><path d="m352 320v-16h96v16z"/><path d="m352 320h-32v-16h32z"/><path d="m80-224v64z"/><path d="m208 320 16-16h80v16z"/><path d="m224 0v-208h80v64 160h-80z"/><path d="m304 16v64 160h-80v-16-208z"/><path d="m304 240v64h-80v-64z"/><path d="m240-224h64v16h-80l-16-16z"/><path d="m208-128v-96l16 16v208h-16z"/><path d="m224 0v16 208h-16v-128-96z"/><path d="m224 224v16 64l-16 16v-96z"/><path d="m208 96v128 96-32z"/><path d="m208-128v128 96-32-64z"/><path d="m-336-160v160 64-32z"/><path d="m80 64h-192z"/><path d="m-112-208h-80-128l-16-16h224z"/><path d="m48-224h32l-16 16h-32-144v-16z"/><path d="m64-144v-64l16-16v64 160h-16z"/><path d="m80 0v64l-16-16v-48z"/><path d="m-64-16v-128h96 32v144 48h-128z"/><path d="m32-144h-96-128v-64h80 144z"/><path d="m64-208v64h-32v-64z"/><path d="m-112 64h-224l16-16h208z"/><path d="m-96 48h32 128l16 16h-192v-16z"/><path d="m-336-160v-64l16 16v192 16h-16z"/><path d="m-320 0v48l-16 16v-64z"/><path d="m-320-208h128v64 128h-128z"/><path d="m-96 48h-16-208v-48-16h128 96z"/><path d="m-64-16v64h-32v-64z"/><path d="m-64-16v-128z"/><path d="m-96-16h-96 96 32z"/><path d="m-192-144v128z"/><path d="m-64-144h-128z"/><path d="m448 464h-96v-16h96l16 16z"/><path d="m464 464-16-16v-128h16z"/><path d="m448 448h-96v-128h96z"/><path d="m352 448v16h-32-16-16v-16z"/><path d="m-160-256v-64h64v64z"/><path d="m-160-320h64z"/><path d="m-80-320v-16z"/><path d="m-176-336v16z"/><path d="m-96-336h-64z"/><path d="m-160-336h-16z"/><path d="m-80-336h-16z"/><path d="m-160-256v-64z"/><path d="m-96-256h-64z"/><path d="m-96-320v64z"/><path d="m-80-256v-64z"/><path d="m-80-240v-16z"/><path d="m-160-240h64z"/><path d="m-96-240h16z"/><path d="m-176-240h16z"/><path d="m-176-320v64z"/><path d="m-176-256v16z"/><path d="m304 304h-128-16-80z"/><path d="m464 448v16-144z"/><path d="m464-448v224-32z"/><path d="m464-480v32z"/><path d="m-592 160v16z"/><path d="m-592-480v16 176z"/><path d="m-592-240v176 48z"/><path d="m-336-480h16-32z"/><path d="m-64-480h112-112-64-64z"/><path d="m288-480h-224z"/><path d="m448-480h-160z"/><path d="m448-480h16z"/><path d="m320 320h-16z"/><path d="m-192-480v32z"/><path d="m304 80v64 64 64 32-64z"/><path d="m304-144v32 64 64 64-64z"/><path d="m304-208v16 16z"/><path d="m320 272v32-16z"/><path d="m320 208v-16-32-16z"/><path d="m320 80v-16-32-16z"/><path d="m320-176v-32 64z"/><path d="m320-48v-16-32-16z"/><path d="m320-176v-16-16z"/><path d="m304-112v-32-32h16v32 32z"/><path d="m304-48h16v64h-16z"/><path d="m304 208h16v64h-16z"/><path d="m304 144v-64h16v64z"/><path d="m304-176v-16h16v16z"/><path d="m304 272h16v16h-16z"/><path d="m320 144v16h-16v-16z"/><path d="m320-112v16h-16v-16z"/><path d="m304-48v-16h16v16z"/><path d="m320 16v16h-16v-16z"/><path d="m304 80v-16h16v16z"/><path d="m304 208v-16h16v16z"/><path d="m304 304v16z"/><path d="m304 304v16h-16-112v-16z"/><path d="m304 320h16 32v128h-64v-128z"/><path d="m-592 176v-16z"/><path d="m288 464h16-224z"/><path d="m-320 320h208 16z"/><path d="m-320 320-8-16-8-16z"/><path d="m-448 176h-128-16z"/><path d="m-352 256 16 32z"/><path d="m-416 192-32-16z"/><path d="m-416 192 64 64z"/><path d="m288 464h-208-16v-16h224z"/><path d="m288 448h-224v-128h16 80 16 112z"/><path d="m304 304v-32 16z"/><path d="m304 320v-16h-128v16z"/><path d="m-192-480h80 48z"/><path d="m-192-448v32h-128v-64h128z"/><path d="m-128-384h-64v-32-32h64z"/><path d="m-192-416v32z"/><path d="m-384-352h-96v-32h96z"/><path d="m-384-416v32h-96-32v-32z"/><path d="m-512-320h32v-32h-32z"/><path d="m-512-288h-32v-32h32z"/><path d="m-544-320v32h-32v-64h32z"/><path d="m-512-352v-32h-32v32z"/><path d="m-544-352v-32 64z"/><path d="m-512-384h32-64z"/><path d="m-480-352h96-128z"/><path d="m304 192v16-64 16z"/><path d="m304 64v16-64 16z"/><path d="m304-64v16-64 16z"/><path d="m304-192v-16 48z"/><path d="m320 288v16-48z"/><path d="m320 160v32 32-96z"/><path d="m320 32v32 32-16-80z"/><path d="m320-192v32-48z"/><path d="m320-96v32 32-96z"/><path d="m320 288v-32h-16v32z"/><path d="m320-96v-32h-16v32z"/><path d="m320 160v-32h-16v32z"/><path d="m320 32v-32h-16v32z"/><path d="m304 320h-128z"/><path d="m304 320v-16z"/><path d="m304 304v-16-32z"/><path d="m304 304v16h-128-16v-16z"/><path d="m160 320h-80-16-128 176z"/><path d="m160 320h48 96v-16h-224v16z"/><path d="m176 304h-16z"/><path d="m176 320v-16z"/><path d="m-592-16v-224z"/><path d="m-592-480v192 48z"/><path d="m-336-480h-16-224z"/><path d="m-576-480h-16z"/><path d="m-336-480h16z"/><path d="m160 304v16h-80v-16z"/><path d="m160 320v-16z"/><path d="m176 320h-16z"/><path d="m176 304h128-144z"/><path d="m-544-384h64v64h-64z"/><path d="m-480-384v32 32z"/><path d="m-480-320h-32-32z"/><path d="m304 0v80 16-32-32z"/><path d="m304 128v96-32-32z"/><path d="m304-128v96-32-32z"/><path d="m304-160v-48 64z"/><path d="m304-208v-16z"/><path d="m320-208h-16z"/><path d="m448-208h-128z"/><path d="m448-208v-16z"/><path d="m320 304v16z"/><path d="m320 80v16 32 96 32 48-208z"/><path d="m320-144v16 96 32 80-208z"/><path d="m320-128v-16-16h-16v16 16z"/><path d="m320 0v-32h-16v32z"/><path d="m320 256v-32h-16v32z"/><path d="m320 128v-32h-16v32z"/><path d="m304-160h16v-32h-16z"/><path d="m304-32h16v-32h-16z"/><path d="m304 96h16v-32h-16z"/><path d="m304 224h16v-32h-16z"/><path d="m80 304h-16v16h16z"/></g><g id="b"><path d="m464-448v192 32z"/><path d="m-112-480h-80-128-16 192z"/><path d="m-192-480h-128z"/><path d="m48-480h-112z"/><path d="m448-480h-160z"/><path d="m-64 320h-16-16z"/><path d="m48-224h-160z"/><path d="m80-224h32-32-32z"/><path d="m240-224h-32-96z"/><path d="m48-480v32z"/><path d="m48-448v32-32-32z"/><path d="m320-224h128 16l-16-16h-144v16z"/><path d="m288-464h-224v48 128 48h48 128 48z"/><path d="m304-240h144v-16-208h-160v224z"/><path d="m464-448v-32l-16 16v208h16z"/><path d="m448-256v16l16 16v-32z"/><path d="m288-480h-224v16h224z"/><path d="m448-464 16-16h-16-160v16z"/><path d="m64-464v-16 16 48z"/><path d="m304 80v16 208-48-32-96-32z"/><path d="m304-144v16 208-80-32-96z"/><path d="m304-144v-64-16 96z"/><path d="m320-208h128z"/><path d="m464-208h-16z"/><path d="m320-224v16z"/><path d="m448-208 8-8-8-8z"/><path d="m456-216-8 8h16z"/><path d="m456-216 8 8h-16v-16z"/><path d="m312-216 8 8v-16z"/><path d="m320-208-8-8-8 8z"/><path d="m312-216 8-8v16h-16z"/><path d="m320-208v48 16z"/><path d="m320 96v208 16-96z"/><path d="m320-128v208 16-96z"/><path d="m448 80v16 208-64z"/><path d="m448-208v80z"/><path d="m80 80v144 80-20-44-128z"/><path d="m80-144v144 80-12-20-48z"/><path d="m-336-224v64z"/><path d="m-96-16h-96-128v16 48h208 16z"/><path d="m-80 48h16v-64h-32v64z"/><path d="m-112 48h-208l-16 16h224z"/><path d="m-80 64v-16h-16-16v16z"/><path d="m-64 80v-32h-16v16 4 204h16z"/><path d="m-80 272v32h16v-32z"/><path d="m-320-16v-192l-16-16v64 160h16z"/><path d="m-336 0v64l16-16v-48z"/><path d="m-320-208v192h128v-128-64z"/><path d="m-64 320h128v-16h-128z"/><path d="m32-208h-144-80v64h128 96z"/><path d="m64-144v-64h-32v64z"/><path d="m80-144v-80l-16 16v64 144h16z"/><path d="m64 0v80 144h16v-144-80z"/><path d="m64 224v80h16v-80z"/><path d="m-112-224h-224l16 16h128 80z"/><path d="m32-208h32l16-16h-32-160v16z"/><path d="m64 0v-144h-32-96v128 64 32h128z"/><path d="m-64 80v192 32h128v-80-144z"/><path d="m-80 64v4z"/><path d="m-112 64h-224z"/><path d="m-80 304h16z"/><path d="m-64 320v-16h-16v16z"/><path d="m80 304h-16z"/><path d="m-96-256v-64h-64v64z"/><path d="m-176-336h96l16-16h-128z"/><path d="m-80-240h-96l-16 16h128z"/><path d="m-192-224 16-16v-96l-16-16z"/><path d="m-80-336v96l16 16v-128z"/><path d="m-64-224v-128z"/><path d="m-192-224h128z"/><path d="m-64-352h-128z"/><path d="m80 320h-16v-16h16z"/><path d="m-80 304h-240v16h224 16z"/><path d="m464 320v-16z"/><path d="m464-480v32z"/><path d="m464-208v64z"/><path d="m448-480h16z"/><path d="m160-480h-112-112 144z"/><path d="m384-480h-112-112 144z"/><path d="m448 320h16z"/><path d="m-96 320h-224z"/><path d="m-112-224h-224z"/><path d="m272-224h32-64-128-32z"/><path d="m48-448v192 32-64-128z"/><path d="m48-448v-32l16 16v208h-16z"/><path d="m64-256v16l-16 16v-32z"/><path d="m272-224h-192-32l16-16h208z"/><path d="m288-240h160l16 16h-160-32v-16z"/><path d="m272-464h-208l-16-16h112 112z"/><path d="m384-480h64 16l-16 16h-160-16v-16z"/><path d="m448-256v-208l16-16v32 192z"/><path d="m448-240v-16h16v32z"/><path d="m288-240h-16-208v-16-208h208 16z"/><path d="m448-464v208 16h-160v-224z"/><path d="m304 96v128 96-16z"/><path d="m304-128v128 96-16z"/><path d="m304-128v-96l16 16v80 128h-16z"/><path d="m320 0v96 128h-16v-128-96z"/><path d="m320 224v96h-16v-96z"/><path d="m448-128v-80l16-16v16 64 144h-16z"/><path d="m464 0v80 144h-16v-128-96z"/><path d="m464 224v80 16h-16v-96z"/><path d="m464-224-16 16h-128l-16-16z"/><path d="m320-208v64 16z"/><path d="m448 96v128 96-16z"/><path d="m448-128v128 96-16-32-128z"/><path d="m80 80v32-24-20z"/><path d="m80 240v-24-80-24z"/><path d="m80-224v80z"/><path d="m-336-160v160 48 16-64z"/><path d="m-64-208h128v208 16h-128z"/><path d="m64 16v32h-128v-32z"/><path d="m64-208 16-16v80 144h-16z"/><path d="m80 0v48h-16v-32-16z"/><path d="m-112-208h-208l-16-16h224z"/><path d="m48-224h32l-16 16h-128-32-16v-16z"/><path d="m-320 0v-208h208 16v224h-224z"/><path d="m-96 16v32h-16-208v-32z"/><path d="m-96-208h32v224h-32z"/><path d="m-64 16v32h-16-16v-32z"/><path d="m-336-160v-64l16 16v208h-16z"/><path d="m-320 0v16 32h-16v-48z"/><path d="m-64 240v-24-80-24z"/><path d="m-64 272v32-40-24z"/><path d="m64 304h16z"/><path d="m80 304h-16z"/><path d="m64 304v-20z"/><path d="m64 272v-32 24 20z"/><path d="m64 112v24 80 24z"/><path d="m64 48v20 20 24z"/><path d="m64 48v64 128 32h-128v-32-128-64z"/><path d="m64 272v12 20h-128v-32z"/><path d="m-64 320v-16h128v16z"/><path d="m-80 64v-16 20z"/><path d="m-112 64h-224l16-16h208z"/><path d="m-96 48h16v16h-32v-16z"/><path d="m-320 48-16 16v-16z"/><path d="m-80 64h-32z"/><path d="m-80 240v24 20z"/><path d="m-80 112v24 80 24z"/><path d="m-80 68v44 128 44 20-32z"/><path d="m-64 304v16h-16v-16z"/><path d="m64 448h-128v-128h128z"/><path d="m-64 464v-16h128v16z"/><path d="m-192-224v-128z"/><path d="m-176-336h96v96h-96z"/><path d="m-64-224-16-16v-96l16-16z"/><path d="m-192-224 16-16h96l16 16z"/><path d="m-64-352-16 16h-96l-16-16z"/><path d="m-176-240-16 16v-128l16 16z"/><path d="m-80 320h-16-192v-16h208z"/><path d="m80 284v-20-24z"/><path d="m80 88v-8-12z"/><path d="m80 216v-8-24-16-24-8z"/><path d="m80 68v-20z"/><path d="m-64 48h-16z"/><path d="m-64 304v-20-12-8z"/><path d="m-64 88v-40 64z"/><path d="m-64 216v-8-24-16-24-8z"/><path d="m64 136v8 24 16 24 8z"/><path d="m64 68v12 8z"/><path d="m64 284v-20 8z"/><path d="m80 240v24h-16v-24-24h16z"/><path d="m80 112v24h-16v-24-24h16z"/><path d="m64 88v-8h16v8z"/><path d="m80 136v8h-16v-8z"/><path d="m80 264v8h-16v-8z"/><path d="m64 216v-8h16v8z"/><path d="m-80 48v20z"/><path d="m-80 284v20z"/><path d="m-80 284v-20 8z"/><path d="m-80 136v8 24 16 24 8z"/><path d="m-80 68v20 24z"/><path d="m-80 240v-24h16v24 24h-16z"/><path d="m-80 112v-24h16v24 24h-16z"/><path d="m-80 88v-8h16v8z"/><path d="m-64 136v8h-16v-8z"/><path d="m-64 264v8h-16v-8z"/><path d="m-80 216v-8h16v8z"/><path d="m-96 320h16 16v128h-32z"/><path d="m-96 448h32v16h-16-16z"/><path d="m464 304v16z"/><path d="m464 448v-128z"/><path d="m464 464v-16z"/><path d="m464-208v-16z"/><path d="m464 304v-80-144z"/><path d="m464 80v-80-144z"/><path d="m464-208v64z"/><path d="m-592-16v176z"/><path d="m-80 464h16z"/><path d="m-80 464h-48-192 224z"/><path d="m64 464h16z"/><path d="m-64 464h128z"/><path d="m304 464h-32-192z"/><path d="m304 464h16z"/><path d="m448 464h16z"/><path d="m320 464h32 96z"/><path d="m80 80v24-16-16-4z"/><path d="m80 284v-12-8z"/><path d="m-64 208v24-16-16-16z"/><path d="m-64 144v24-16-16-16z"/><path d="m-64 48v40-8z"/><path d="m-64 304v-20z"/><path d="m64 284v-12-24 32z"/><path d="m-80 68v12 8z"/><path d="m64 184v-16h16v16z"/><path d="m-80 184v16 16 16-24z"/><path d="m-80 184v-16h16v16z"/><path d="m80 284v-4-16-16 24z"/><path d="m-64 68v-20z"/><path d="m-64 68v-20 32 24-16-16z"/><path d="m80 284h-16z"/><path d="m-80 68v4 16 16-24z"/><path d="m-64 284h-16z"/><path d="m80 232v-24-24 24z"/><path d="m80 280v-8-8z"/><path d="m-64 152v-8-8z"/><path d="m64 120v24 24-24z"/><path d="m64 104h16v-24h-16z"/><path d="m80 72v8h-16v-12h16z"/><path d="m80 120h-16v24h16z"/><path d="m80 120v-16h-16v16z"/><path d="m64 232h16v-24h-16z"/><path d="m80 248h-16v24h16z"/><path d="m64 232v16h16v-16z"/><path d="m64 280v-8h16v8 4h-16z"/><path d="m-80 120v16 16 16-24z"/><path d="m-80 248v16 16 4-12z"/><path d="m-80 200v8 8z"/><path d="m-80 72v8 8z"/><path d="m-64 200v8h-16v-8-16h16z"/><path d="m-64 120h-16v24h16z"/><path d="m-64 72v8h-16v-8-4h16z"/><path d="m-64 120v-16h-16v16z"/><path d="m-80 104h16v-24h-16z"/><path d="m-80 152v-8h16v8 16h-16z"/><path d="m-80 232h16v-24h-16z"/><path d="m-64 248h-16v24h16z"/><path d="m-80 232v16h16v-16z"/><path d="m-80 280v-8h16v12h-16z"/><path d="m80 144v-24 24 24z"/><path d="m80 80v-8 16z"/><path d="m80 80v8 16 16 24 8-40-40z"/><path d="m-64 80v-8 16z"/><path d="m-64 272v-24 24 12z"/><path d="m-64 208v-8 16z"/><path d="m-64 272v8-40-40 8 8 16 16z"/><path d="m64 80v24-24-12z"/><path d="m64 80v-8 40 40-8-24-16z"/><path d="m64 208v-8 40 24 8 8-32-16z"/><path d="m64 208v24-24-24z"/><path d="m80 208h-16v-24h16z"/><path d="m80 80v-8h-16v8z"/><path d="m64 144h16v24h-16z"/><path d="m64 272v8h16v-8z"/><path d="m-80 272v8-16z"/><path d="m-80 272v-8-16-16-16-8-8 40 40z"/><path d="m-80 144v8-16z"/><path d="m-80 80v-8 40 40-8-8-16-16-16z"/><path d="m-64 80v-8h-16v8z"/><path d="m-80 272v8h16v-8z"/></g><g id="c"><path d="m-592 160v-176z"/><path d="m80 284v20z"/><path d="m80 72v40-44z"/><path d="m80 240v-40 8 24 16 16 8 8z"/><path d="m80 152v48 40-128z"/><path d="m-64 68v4 40-64z"/><path d="m-64 280v4 20-32-32z"/><path d="m-64 112v-40 8 8 16 16 16 8 8z"/><path d="m64 200v-48-40 128z"/><path d="m64 284v-4-16-24 32z"/><path d="m64 264v16-8z"/><path d="m64 72v-4-20 64z"/><path d="m64 48v20z"/><path d="m64 68h16z"/><path d="m64 280v4h16v-4z"/><path d="m80 72v-4h-16v4z"/><path d="m80 200v-48h-16v48z"/><path d="m64 152h16v-8h-16z"/><path d="m80 200h-16v8h16z"/><path d="m-80 68h16z"/><path d="m-80 48v20z"/><path d="m-80 68v-20z"/><path d="m-80 284v-4-40 32z"/><path d="m-80 200v-48-40 128z"/><path d="m-64 152h-16v48h16z"/><path d="m-64 72v-4h-16v4z"/><path d="m-80 280v4h16v-4z"/><path d="m-80 152h16v-8h-16z"/><path d="m-64 200h-16v8h16z"/><path d="m-176 160h-16-144z"/><path d="m-192 176 16-16h-160v16z"/><path d="m-176 160-16 16v128l16 16z"/><path d="m-192 176h-144v16 80 16l8 16h8 32 96z"/><path d="m-320 304h-8l8 16z"/><path d="m-192 304h-96v16h112z"/><path d="m-288 304h-32 240z"/><path d="m-352 256 16 32v-16z"/><path d="m-336 192h-80l64 64 16 16z"/><path d="m-576 176-16-16v16z"/><path d="m-336 176h-32-80l32 16h80z"/><path d="m-368 160h-224l16 16h128 80z"/><path d="m-336 160h-32v16h32z"/><path d="m-336 288-16-32z"/><path d="m-416 192 64 64z"/><path d="m-80 464h-48z"/><path d="m-352 448h-224v-128h224z"/><path d="m-320 320v128h-32v-128z"/><path d="m-352 464h-224v-16h224z"/><path d="m-320 448v16h-32v-16z"/><path d="m-352 320h-224v-16h224z"/><path d="m-192 304v16h-128-32v-16z"/><path d="m-352 304h-224v-128h224z"/><path d="m-192 176v108 20h-160v-128z"/><path d="m-80 240v-128-44-20h16v64 128 32h-16z"/><path d="m-64 272v32h-16v-20-12z"/><path d="m64 240v-128-64h16v20 44 128 32h-16z"/><path d="m80 272v12 20h-16v-20-12z"/><path d="m-592 160h16z"/><path d="m-336 160h144-32-64-64z"/><path d="m-192 176v32 64 12z"/><path d="m-192 304v-20 4z"/><path d="m-576 320v-16z"/><path d="m-576 448v-128z"/><path d="m-576 464v-16z"/><path d="m-352 176h-224 32 64 64z"/><path d="m-192 320h16-112-32z"/><path d="m80 284v-12-32 40z"/><path d="m80 48h-16z"/><path d="m-64 112v40 48 40z"/><path d="m-80 112v-40-4z"/><path d="m-80 304h16z"/><path d="m-176 304v-20-108-16 160z"/><path d="m-368 160h-208-16z"/><path d="m-336 160h-16-16z"/><path d="m-320 448v-128h32 192v128z"/><path d="m-320 464v-16h224v16z"/><path d="m-544 160h-16-16z"/><path d="m-416 160h-16-32-16z"/><path d="m-288 160h-16-32-16z"/><path d="m-192 160h-16-16z"/><path d="m-352 160h-64-64-64-32 208z"/><path d="m-176 176v-16z"/><path d="m-176 208v-16-16z"/><path d="m-176 284v-12-64-32z"/><path d="m-192 176v16 16z"/><path d="m-192 272v12z"/><path d="m-192 272v-64h16v64z"/><path d="m-192 208v-16h16v16z"/><path d="m-224 176h16 16z"/><path d="m-288 176h64 32-160z"/><path d="m-576 176h16 16z"/><path d="m-288 160h64v16h-64z"/><path d="m-480 160v16h-64v-16z"/><path d="m-416 160h64v16h-64z"/><path d="m-544 176h-16v-16h16z"/><path d="m-352 160h16v16h-16z"/><path d="m-224 160h16v16h-16z"/><path d="m-288 176h-16v-16h16z"/><path d="m-416 176h-16v-16h16z"/><path d="m-480 160h16v16h-16z"/><path d="m-176 284v-12z"/><path d="m-192 284v-12h16v12 4h-16z"/><path d="m464-448v96 48 80-32z"/><path d="m464-224v16z"/><path d="m-592-304v-48-128 240z"/><path d="m-592-240v224-64z"/><path d="m-576-480h208 32z"/><path d="m-592-480h16z"/><path d="m-64-480h-48z"/><path d="m448-480h-64z"/><path d="m-576 160h16 32z"/><path d="m-464 160h32 32-96z"/><path d="m-336 160h32 32-80-16z"/><path d="m-240-352h-128-96 96z"/><path d="m-16-352h-128-96 96z"/><path d="m208-352h-128-96 96z"/><path d="m-368-480h-208-16l16 16h208z"/><path d="m-144-480h-192-32v16h16 208z"/><path d="m80-480h-144-48-32v16h16 208z"/><path d="m304-480h-144-80v16h16 208z"/><path d="m320-464h128l16-16h-16-64-80v16z"/><path d="m-352-432h-224v32h224z"/><path d="m-128-432h-224v32h224z"/><path d="m96-432h-224v32h224z"/><path d="m320-432h-224v32h224z"/><path d="m448-400v-32h-128v32z"/><path d="m-368-368h-208l-16 16h16 96 16 96z"/><path d="m-144-368h-208-16v16h128 96z"/><path d="m80-368h-208-16v16h128 96z"/><path d="m304-368h-208-16v16h128 96z"/><path d="m336-352h16 96 16l-16-16h-128-16v16z"/><path d="m448-464v32 32 32l16 16v-96-32z"/><path d="m-576-368v-32-32-32l-16-16v128z"/><path d="m-576-400v32z"/><path d="m448-432v-32z"/><path d="m-352-400h-224z"/><path d="m-128-400h-224z"/><path d="m96-400h-224z"/><path d="m320-400h-224z"/><path d="m-352-464h-16-208 208z"/><path d="m-128-464h-16-208 208z"/><path d="m96-464h-16-208 208z"/><path d="m320-464h-16-208 208z"/><path d="m448-432h-128z"/><path d="m448-368h-128z"/><path d="m448-352v48h16v-48z"/><path d="m336-352v48h16v-48z"/><path d="m-480-352v48h16v-48z"/><path d="m-592-352v48h16v-48z"/><path d="m352-352v48-16z"/><path d="m-464-352v48-16z"/><path d="m-576-352v48-16z"/><path d="m-176 192v32-48z"/><path d="m-192 304v16z"/><path d="m-192 304v-16-4z"/><path d="m-192 176h-16-32z"/><path d="m-336 176h32 16-64z"/><path d="m-432 176h16-64 16z"/><path d="m-208 160h-32v16h32z"/><path d="m-336 160h-32v16h32z"/><path d="m-464 160h-32v16h32z"/><path d="m-176 284v-28h-16v28 4h16z"/><path d="m464-352v-128 160z"/><path d="m-592-480h16z"/><path d="m-352-480h-16-208 208z"/><path d="m-128-480h-16-208 208z"/><path d="m96-480h-16-208 208z"/><path d="m320-480h-16-208 208z"/><path d="m448-480h16z"/><path d="m-480-352h-96z"/><path d="m304-352h32-32-96z"/><path d="m448-352h-96z"/><path d="m-368-464h-208l-16-16h16 208z"/><path d="m-144-464h-208-16v-16h16 208z"/><path d="m80-464h-208-16v-16h16 208z"/><path d="m304-464h-208-16v-16h16 208z"/><path d="m320-480h128 16l-16 16h-128-16v-16z"/><path d="m448-400v-32-32l16-16v128l-16-16z"/><path d="m-352-400h-224v-32h224z"/><path d="m-128-400h-224v-32h224z"/><path d="m96-400h-224v-32h224z"/><path d="m320-400h-224v-32h224z"/><path d="m448-432v32h-128v-32z"/><path d="m-368-352h-96-16-96-16l16-16h208z"/><path d="m-144-352h-96-128v-16h16 208z"/><path d="m80-352h-96-128v-16h16 208z"/><path d="m304-352h-96-128v-16h16 208z"/><path d="m320-368h128l16 16h-16-96-16-32v-16z"/><path d="m-592-480 16 16v32 32 32l-16 16z"/><path d="m-576-464v32z"/><path d="m448-368v-32z"/><path d="m448-400h-128z"/><path d="m448-464h-128z"/><path d="m-352-432h-224z"/><path d="m-128-432h-224z"/><path d="m96-432h-224z"/><path d="m320-432h-224z"/><path d="m-352-368h-16-208 208z"/><path d="m-128-368h-16-208 208z"/><path d="m96-368h-16-208 208z"/><path d="m320-368h-16-208 208z"/><path d="m336-352v32 16z"/><path d="m336-320v16z"/><path d="m448-352v32 16z"/><path d="m448-320v16z"/><path d="m464-320h-16v-32h16z"/><path d="m464-320h-16z"/><path d="m352-320h-16v-32h16z"/><path d="m352-320h-16z"/><path d="m-480-320v16z"/><path d="m-480-352v32 16z"/><path d="m-464-320h-16v-32h16z"/><path d="m-464-320h-16z"/><path d="m-576-320h-16v-32h16z"/><path d="m-576-320h-16z"/><path d="m-176 304v-16-4z"/><path d="m-272 160h32-8-104z"/><path d="m-480-304h16z"/><path d="m-592-304h16z"/><path d="m336-304h16z"/><path d="m448-304h16z"/><path d="m-368-304h-96-16-96-16 16z"/><path d="m-144-304h-96-128 16z"/><path d="m80-304h-96-128 16z"/><path d="m304-304h-96-128 16z"/><path d="m448-304v-16h-96v16z"/><path d="m-240-320h-128-96v16h96 128z"/><path d="m-16-320h-128-96v16h96 128z"/><path d="m208-320h-128-96v16h96 128z"/><path d="m304-304h32v-16h-32-96v16z"/><path d="m-480-304v-16h-96v16z"/><path d="m336-320h16 96 16-16-128-16z"/><path d="m352-304v-16z"/><path d="m-464-304v-16z"/><path d="m-576-304v-16z"/><path d="m-176 284v-28z"/><path d="m-192 284v-28-32-48z"/><path d="m-192 256v28z"/><path d="m-192 176v48-32z"/><path d="m-176 256v-32h-16v32z"/><path d="m-192 224h16v-32h-16z"/><path d="m-352 176h-16-32-96-32-48z"/><path d="m-352 176h80-32-32-32z"/><path d="m-400 176h-32-32-32z"/><path d="m-576 176h48-32z"/><path d="m-240 160h-32v16h32z"/><path d="m-368 160h-32v16h32z"/><path d="m-496 160h-32v16h32z"/><path d="m-272 176v-16h-32v16z"/><path d="m-528 176v-16h-32v16z"/><path d="m-400 176v-16h-32v16z"/><path d="m464 320v48 80z"/><path d="m464 448v16z"/><path d="m464 80v64 160z"/><path d="m464-144v64 160z"/><path d="m464-224v-80z"/><path d="m-592-304v64z"/><path d="m-592-480v128 32z"/><path d="m448-480h-128z"/><path d="m-352 464h-224z"/><path d="m-128 464h-48-176 32z"/><path d="m-64 464h-16z"/><path d="m80 464h-16z"/><path d="m64 464h-16-112z"/><path d="m320 464h-16z"/><path d="m464 464h-16z"/><path d="m448 464h-128z"/><path d="m-352 320h-224v128h224z"/><path d="m-192 448v-128h-160v128z"/><path d="m-352 304h-224v16h224z"/><path d="m-192 320v-16h-160v16z"/><path d="m-176 448v-128h-16v128l16 16z"/><path d="m-352 448h-224v16h224z"/><path d="m-176 464-16-16h-160v16z"/><path d="m-352 176h-224v128h224z"/><path d="m-192 304v-20-108h-160v128z"/><path d="m-576-288v-16h-16v64 160h16z"/><path d="m-592-80v64 176h16v-224-16z"/><path d="m-576-464-16-16v160h16z"/><path d="m48 448h-224v16h48 48 16 112z"/><path d="m272 448h-224v16h16 16 192z"/><path d="m304 464h16 128 16l-16-16h-176v16z"/><path d="m464-144v-64-16-80h-16v80 144h16z"/><path d="m448-80v80 144h16v-64-160z"/><path d="m448 144v80 144h16v-48-16-160z"/><path d="m448 368v80l16 16v-16-80z"/><path d="m-352-304h-16-208v-16h208 16z"/><path d="m-128-304h-16-208v-16h208 16z"/><path d="m96-304h-16-208v-16h208 16z"/><path d="m320-304h-16-208v-16h208 16z"/><path d="m448-320v16h-128v-16z"/><path d="m-368-480h-208-16l16 16h208z"/><path d="m-144-480h-208-16v16h16 208z"/><path d="m80-480h-208-16v16h16 208z"/><path d="m304-480h-208-16v16h16 208z"/><path d="m320-464h128l16-16h-16-128-16v16z"/><path d="m464-480-16 16v144h16z"/><path d="m448-304v-16-144 16 224z"/><path d="m-576-64v224-96-64z"/><path d="m-576-288v208 16-160z"/><path d="m-352-464h-16-208z"/><path d="m-128-464h-16-208z"/><path d="m96-464h-16-208z"/><path d="m320-464h-16-208z"/><path d="m448 448h-176z"/><path d="m-176 224v60 20 16 128-64z"/><path d="m-248 160h56 16-176z"/><path d="m-176 160h-16z"/><path d="m-352 160h-224 48 32 96 32z"/><path d="m-192 160h-56 8 32z"/><path d="m320-304h128 16-16-96-16-32z"/><path d="m-368-320h-208-16 16 96 16z"/><path d="m-144-320h-208-16 128z"/><path d="m80-320h-208-16 128z"/><path d="m304-320h-208-16 128z"/><path d="m-176 284v-60-48 48 32z"/><path d="m-176 304v-20 4z"/><path d="m-176 320v-16z"/><path d="m-192 320h16z"/><path d="m-576 176v128z"/><path d="m-192 176h-48-32-80z"/><path d="m448 224v80 144-80z"/><path d="m448 0v224-80z"/><path d="m448-224v224-80z"/><path d="m-576-448v-16 144 16 16z"/><path d="m448-464h-128z"/><path d="m48 448h-112-112z"/><path d="m272 448h-64-48-112z"/><path d="m-64 288v-128h-64-48v64 160h112z"/><path d="m-176 384v64h112v-64z"/><path d="m-352 64h-160-64v96h224z"/><path d="m-128 64h-160-64v96h176 48z"/><path d="m-64 160v-96h-64v96z"/><path d="m-496-400v-32l-16-16v224h16z"/><path d="m-512-224v224h16v-176-48z"/><path d="m-512 0v64l16-16v-48z"/><path d="m-512-448h-64v160 64h64z"/><path d="m-576-224v160 64h64v-224z"/><path d="m-576 0v64h64v-64z"/><path d="m160 64h-224v96 128h224z"/><path d="m-64 288v96 64h112 112v-160z"/><path d="m208 64h-48v224h48z"/><path d="m160 288v160h48v-144-16z"/><path d="m272 448h176v-144h-64-176v144z"/><path d="m-288 48h-208l-16 16h160 64z"/><path d="m-64 48h-208-16v16h160 64z"/><path d="m160 48h-208-16v16h224z"/><path d="m208 64h176l-16-16h-192-16v16z"/><path d="m384 304v-80-160h-176v224 16z"/><path d="m384-448-16 16v32 176h16z"/><path d="m368-224v48 176h16v-224z"/><path d="m368 0v48l16 16v-64z"/><path d="m448-448h-64v224h64z"/><path d="m384-224v224h64v-224z"/><path d="m384 0v64 160h64v-224z"/><path d="m384 224v80h64v-80z"/><path d="m-288-448h-64-160l16 16h208z"/><path d="m-64-448h-64-160v16h16 208z"/><path d="m160-448h-64-160v16h16 208z"/><path d="m176-432h192l16-16h-64-160v16z"/><path d="m-352-464h-224v16h64 160z"/><path d="m-128-464h-224v16h64 160z"/><path d="m96-464h-224v16h64 160z"/><path d="m320-464h-224v16h64 160z"/><path d="m384-448h64v-16h-128v16z"/><path d="m368-432v32z"/><path d="m-496-176v176 48-64z"/><path d="m-496-400v176 48-64z"/><path d="m-272-432h-16-208z"/><path d="m-48-432h-16-208z"/><path d="m176-432h-16-208z"/><path d="m368 48-16-16h-160-16v16z"/><path d="m-176 160v16 48z"/><path d="m-352 160h-224z"/><path d="m352 32v-48h-160v48z"/><path d="m-272 32h-208l-16 16h208 16z"/><path d="m-48 32h-208-16v16h208 16z"/><path d="m176 32h-208-16v16h208 16z"/><path d="m368-400v-32 64 128z"/><path d="m368-176v160 64-48z"/><path d="m368-400v160 64-48z"/><path d="m-496-240v64 160-128z"/><path d="m-496-432v32z"/><path d="m-272-432h-224z"/><path d="m-48-432h-224z"/><path d="m176-432h-224z"/><path d="m368-432h-192z"/><path d="m192-16h160v-16h-64-128v16z"/><path d="m-256-16h-224v48h208 16z"/><path d="m-32-16h-32-160-32v48h208 16z"/><path d="m192-16h-32-192v48h208 16z"/><path d="m-224-16v-16h-32v16z"/><path d="m288-32h64v-48h-64z"/><path d="m160-32h128l-16-16h-160l-16 16z"/><path d="m160-32h-64-160v16h32 192z"/><path d="m-256-32h32l-16-16h-160l-16 16z"/><path d="m-256-32h-160-64v16h224z"/><path d="m-416-32 16-16v-32h-16z"/><path d="m-480-32h64v-48h-64z"/><path d="m272-48 16 16v-48h-16z"/><path d="m272-48h-160z"/><path d="m-240-48h-160z"/><path d="m352-80v-64-160h-64v224z"/><path d="m288-80v-224l-16 16v208z"/><path d="m96-80v48l16-16v-32z"/><path d="m-64-80v48h160v-48z"/><path d="m-224-80v48 16h160v-16-48z"/><path d="m-240-80v32l16 16v-48z"/><path d="m-400-80v-208l-16-16v224z"/><path d="m-416-80v-224h-64v160 64z"/><path d="m-240-80v-208 240z"/><path d="m272-80v-208 240z"/><path d="m112-80v32-240z"/><path d="m-400-80v32-240z"/><path d="m352-144v64 48 16 48l16 16v-64-128z"/><path d="m-496-144v128 64l16-16v-48-16-48-64z"/><path d="m368-240v96 128-160z"/><path d="m368-240v-128h-16v64 160h16z"/><path d="m272-288 16-16h-96-96l16 16z"/><path d="m112-288-16-16v224h16z"/><path d="m-400-288h160l16-16h-32-160z"/><path d="m112-288h160z"/><path d="m-400-288h160z"/><path d="m288-304h64v-64h-160v64z"/><path d="m96-304h-128-32v224h160z"/><path d="m-64-304h-160v224h160z"/><path d="m-224-304-16 16v208h16z"/><path d="m-480-304v-64h-16v128 96h16z"/></g><g id="d"><path d="m-496-368v-64 32 160z"/><path d="m368-432h-192z"/><path d="m368-432-16 16v48h16z"/><path d="m-256-416h-16-208v48h224z"/><path d="m-32-416h-16-208v48h224z"/><path d="m192-416h-16-208v48h224z"/><path d="m352-368v-48h-160v48z"/><path d="m-272-432h-224l16 16h208z"/><path d="m-48-432h-224v16h16 208z"/><path d="m176-432h-224v16h16 208z"/><path d="m192-416h160l16-16h-192v16z"/><path d="m-480-416-16-16v64h16z"/><path d="m-256-368h-224v64h64 160z"/><path d="m-32-368h-224v64h32 160 32z"/><path d="m192-368h-224v64h128 96z"/></g></defs><g stroke="#000"><use fill="none" stroke-miterlimit="0" stroke-width="10" xlink:href="#a"/><use fill="#c4c4c4" xlink:href="#a"/><use fill="none" stroke-miterlimit="0" stroke-width="10" xlink:href="#b"/><use fill="#d9d9d9" xlink:href="#b"/><use fill="none" stroke-miterlimit="0" stroke-width="10" xlink:href="#c"/><use fill="#ebebeb" xlink:href="#c"/><use fill="none" stroke-miterlimit="0" stroke-width="10" xlink:href="#d"/><use fill="#fff" xlink:href="#d"/></g></svg>