<?xml version="1.0" encoding="utf-8" ?>
<svg baseProfile="tiny" height="100%" version="1.2" viewBox="-632.0 -696.0 1526.0 1376.0" width="100%" xmlns="http://www.w3.org/2000/svg" xmlns:ev="http://www.w3.org/2001/xml-events" xmlns:xlink="http://www.w3.org/1999/xlink"><defs><g id="bsp_ref"><polygon points="-518,-582 -518,-384 -518,-384 -518,-582" /><polygon points="-54,-582 -112,-582 -112,-582 -54,-582" /><polygon points="218,-582 -6,-582 -6,-582 42,-582 218,-582" /><polygon points="442,-582 218,-582 218,-582 266,-582 442,-582" /><polygon points="-282,330 -233.6,352 -272,352" /><polygon points="-134,-72 -134,46 -134,152 -304,152 -304,96 -304,46 -304,-72" /><polygon points="-134,152 -134,270 -134,352 -233.6,352 -282,330 -304,320 -304,152" /><polygon points="-22,46 -17,57 -41.2,46" /><polygon points="1.9863,63.6301 -3.8,61 5,57" /><polygon points="-134,270 -134,152 -134,46 -54,46 -41.2,46 -17,57 -6,62 -6,270" /><polygon points="-48,352 -134,352 -134,270 -6,270 -6,285 -6,352" /><polygon points="10,46 5,35 29.2,46" /><polygon points="-13.2329,26.7123 -6,30 -17,35" /><polygon points="-13.2329,26.7123 -17,35 -22,46 -41.2,46 -54,46 -54,8.1818" /><polygon points="29.2,46 5,35 -6,30 -6,-36 9,-69 10.3636,-72 17.6364,-72 128,-72 128,1.4545 128,46" /><polygon points="-2,-64 9,-69 -6,-36 -6,-62.1818" /><polygon points="-6,-62.1818 -6,-65.8182 -2,-64" /><polygon points="-80,-72 -54,-72 -54,8.1818 -54,46 -134,46 -134,-72" /><polygon points="-304,-338 -282,-348 -304,-299.6" /><polygon points="-308,-339.8182 -304,-338 -304,-299.6 -304,-188 -308,-188" /><polygon points="-308,-188 -320,-188 -320,-345.2727 -308,-339.8182" /><polygon points="-405.2,-384 -342.3636,-384 -336,-370 -326,-348" /><polygon points="-518,-582 -320,-582 -320,-409.2727 -320,-405.2 -326,-392 -329.6364,-384 -342.3636,-384 -405.2,-384 -518,-384" /><polygon points="-326,-392 -320,-405.2 -320,-394.7273" /><polygon points="-518,-384 -405.2,-384 -326,-348 -320,-345.2727 -320,-188 -518,-188" /><polygon points="-342.3636,-384 -329.6364,-384 -336,-370" /><polygon points="-264.4,-384 -278.3636,-384 -282,-392" /><polygon points="-272.9091,-368 -272,-370 -271.0909,-368" /><polygon points="-320,-405.2 -320,-409.2727 -304,-402 -320,-394.7273" /><polygon points="10.3636,-72 14,-80 17.6364,-72" /><polygon points="-54,-144 -54,-368 -6,-368 -6,-190.3636 -6,-144" /><polygon points="-6,-97.8182 -9.2329,-99.2877 -31.3333,-109.3333 -54,-119.6364 -54,-144 -6,-144" /><polygon points="-54,-72 -54,-87.6364 -13,-69 -6,-65.8182 -6,-62.1818 -6,-36 -6,30 -13.2329,26.7123 -54,8.1818" /><polygon points="-54,-87.6364 -54,-119.6364 -31.3333,-109.3333 -18,-80 -13,-69" /><polygon points="-31.3333,-109.3333 -9.2329,-99.2877 -13,-91 -18,-80" /><polygon points="14,-80 11.3288,-85.8767 15.8,-87.9091 117.6,-134.1818 128,-129.4545 128,-72 17.6364,-72" /><polygon points="-6,-97.8182 -2,-96 -13,-91 -9.2329,-99.2877" /><polygon points="9,-91 15.8,-87.9091 11.3288,-85.8767" /><polygon points="-6,-368 102,-368 128,-368 128,-161.4546 128,-129.4545 117.6,-134.1818 -6,-190.3636" /><polygon points="-6,-144 -6,-190.3636 117.6,-134.1818 15.8,-87.9091 9,-91 -2,-96 -6,-97.8182" /><polygon points="-304,-144 -304,-188 -304,-299.6 -282,-348 -272.9091,-368 -271.0909,-368 -122,-368 -80,-368 -80,-144" /><polygon points="-80,-72 -134,-72 -304,-72 -304,-144 -80,-144" /><polygon points="-54,-368 -54,-144 -80,-144 -80,-368" /><polygon points="-54,-144 -54,-119.6364 -54,-87.6364 -54,-72 -80,-72 -80,-144" /><polygon points="-264.4,-384 -122,-384 -122,-372 -272.9091,-372 -278.3636,-384" /><polygon points="-122,-372 -122,-368 -271.0909,-368 -272,-370 -272.9091,-372" /><polygon points="-122,-582 -122,-555 -122,-384 -264.4,-384 -282,-392 -304,-402 -320,-409.2727 -320,-582" /><polygon points="-112,-582 -54,-582 -54,-480 -112,-480" /><polygon points="232.3836,168.3562 218,161.8182 184.9178,146.7808 210.8125,89.8125 272,62 283,57" /><polygon points="29.2,46 128,46 230.7273,46 210.8125,89.8125 184.9178,146.7808 1.9863,63.6301 5,57 10,46" /><polygon points="128,46 128,1.4545 272,-64 283,-69 243.8221,17.1916 243.3639,18.1997 231.7674,43.7122 230.7273,46" /><polygon points="264.7671,26.7123 272,30 261,35" /><polygon points="231.7674,43.7122 243.3639,18.1997 256,46 261,57" /><polygon points="230.7273,46 231.7674,43.7122 261,57 266.4693,59.4861 272,62 210.8125,89.8125" /><polygon points="243.8221,17.1916 264.7671,26.7123 261,35 256,46 243.3639,18.1997" /><polygon points="288,46 283,35 307.2,46" /><polygon points="566,320 544,330 551.5342,313.4247" /><polygon points="-6,285 -6,270 -6,62 -3.8,61 1.9863,63.6301 184.9178,146.7808 218,161.8182 218,285" /><polygon points="218,352 176,352 -6,352 -6,285 218,285" /><polygon points="442,352 400,352 218,352 218,285 218,161.8182 232.3836,168.3562 442,263.6364" /><polygon points="456.3836,270.1743 551.5342,313.4247 544,330 534,352 442,352 442,263.6364" /><polygon points="456.3835,270 456.3836,270.1743 442,263.6364 232.3836,168.3562 283,57 288,46 307.2,46 456.3835,46" /><polygon points="467.8219,46 566,46 566,96 566,270 456.3835,270 456.3835,46" /><polygon points="566,270 566,320 551.5342,313.4247 456.3836,270.1743 456.3835,270" /><polygon points="467.8219,46 456.3835,46 307.2,46 283,35 272,30 264.7671,26.7123 243.8221,17.1916 283,-69 284.3636,-72 291.6364,-72 467.8219,-72" /><polygon points="511.0909,-72 566,-72 566,46 467.8219,46 467.8219,-72" /><polygon points="284.3636,-72 288,-80 291.6364,-72" /><polygon points="128,-129.4545 128,-161.4546 166.4001,-144 242.6667,-109.3334 256,-80 261,-69" /><polygon points="264.7671,-99.2877 272,-96 261,-91" /><polygon points="283,-91 302.8,-82 287.0909,-82" /><polygon points="242.6667,-109.3334 264.7671,-99.2877 261,-91 256,-80" /><polygon points="128,-72 128,-129.4545 261,-69 272,-64 128,1.4545" /><polygon points="511.0909,-72 467.8219,-72 291.6364,-72 288,-80 287.0909,-82 302.8,-82 352,-82 511.0909,-82" /><polygon points="566,-82 566,-72 511.0909,-72 511.0909,-82" /><polygon points="534.9091,-368 544,-348 500,-368" /><polygon points="166.4001,-144 128,-161.4546 128,-368 326,-368 352,-368 352,-144" /><polygon points="352,-82 302.8,-82 283,-91 272,-96 264.7671,-99.2877 242.6667,-109.3334 166.4001,-144 352,-144" /><polygon points="500,-368 544,-348 566,-338 566,-178 566,-144 352,-144 352,-368" /><polygon points="566,-144 566,-82 511.0909,-82 352,-82 352,-144" /><polygon points="112,-384 -6,-384 -112,-384 -112,-480 -54,-480 -6,-480 112,-480" /><polygon points="336,-384 218,-384 112,-384 112,-480 218,-480 336,-480" /><polygon points="442,-480 474,-480 474,-443.8182 474,-384 442,-384 336,-384 336,-480" /><polygon points="570,-480 570,-400.1819 566,-402 551.5342,-408.5754 474,-443.8182 474,-480" /><polygon points="551.5342,-408.5754 566,-402 544,-392" /><polygon points="551.5342,-408.5754 544,-392 540.3636,-384 474,-384 474,-443.8182" /><polygon points="218,-480 112,-480 -6,-480 -6,-582 218,-582" /><polygon points="442,-480 336,-480 218,-480 218,-582 442,-582" /><polygon points="570,-582 570,-480 474,-480 442,-480 442,-582" /><polygon points="442,352 534,352 534,352 400,352 400,352" /><polygon points="102,-368 -6,-368 -54,-368 -80,-368 -122,-368 -122,-368 -6,-368 82,-368 102,-368" /><polygon points="326,-368 128,-368 102,-368 102,-368 128,-368 326,-368" /><polygon points="-122,-555 -122,-555 -122,-421 -122,-384 -122,-384" /><polygon points="474,-384 474,-384 442,-384 442,-384" /><polygon points="-6,-480 -6,-480 -6,-582 -6,-582" /><polygon points="-54,-480 -54,-480 -6,-480 -6,-480" /><polygon points="-54,-582 -54,-582 -54,-480 -54,-480" /><polygon points="-304,-402 -304,-402 -320,-394.7273 -320,-394.7273" /><polygon points="-278.3636,-384 -272.9091,-372 -272,-370 -272,-370 -272.9091,-372 -278.3636,-384 -282,-392 -282,-392" /><polygon points="566,-338 566,-338 566,-178 566,-178" /><polygon points="261,-91 261,-91 260.8164,-90.5961 256.9091,-82 256,-80 256,-80" /><polygon points="256,-80 256,-80 261,-69 261,-69" /><polygon points="272,-64 272,-64 283,-69 283,-69" /><polygon points="283,35 283,35 277.0822,32.3101 272,30 272,30" /><polygon points="-13,-91 -13,-91 -17.0909,-82 -18,-80 -18,-80" /><polygon points="-18,-80 -18,-80 -13,-69 -13,-69" /><polygon points="-6,-65.8182 -13,-69 -13,-69 -5.9839,-65.8108 -2,-64 -2,-64" /><polygon points="-6,30 -6,30 -12.7377,33.0626 -17,35 -17,35" /><polygon points="-304,96 -304,152 -304,320 -304,320 -304,270 -304,96" /><polygon points="-304,46 -304,96 -304,96 -304,46" /><polygon points="266.4693,59.4861 261,57 261,57 266.469,59.4859" /><polygon points="256,46 256,46 259.2193,53.0824 261,57 261,57" /><polygon points="-3.8,61 -6,62 -6,62 -2.1416,60.2462 5,57 5,57" /><polygon points="-308,-339.8182 -320,-345.2727 -320,-345.2727 -308,-339.8182" /><polygon points="-320,-345.2727 -326,-348 -326,-348 -320,-345.2727" /><polygon points="-336,-370 -336,-370 -326,-348 -326,-348" /><polygon points="266,-582 218,-582 42,-582 42,-582 90,-582 266,-582" /><polygon points="490,-582 442,-582 266,-582 266,-582 314,-582 490,-582" /><polygon points="490,-582 570,-582 570,-582 442,-582 442,-582" /><polygon points="-6,-582 -6,-582 -6,-480 -6,-480" /><polygon points="-6,-480 -6,-480 42,-480 42,-480" /><polygon points="42,-480 42,-480 42,-582 42,-582" /><polygon points="42,-582 -6,-582 -6,-480 42,-480" /><polygon points="-54,-582 -6,-582 -6,-480 -54,-480" /><polygon points="538,-582 570,-582 570,-582 490,-582 490,-582" /><polygon points="314,-582 266,-582 90,-582 90,-582 138,-582 314,-582" /><polygon points="538,-582 490,-582 314,-582 314,-582 362,-582 426,-582 474,-582 538,-582" /><polygon points="42,-480 42,-480 90,-480 90,-480" /><polygon points="90,-480 90,-480 90,-582 90,-582" /><polygon points="42,-582 42,-582 42,-480 42,-480" /><polygon points="90,-582 42,-582 42,-480 90,-480" /><polygon points="42,-480 -6,-480 -6,-582 42,-582" /><polygon points="90,-582 42,-582 42,-582 90,-582" /><polygon points="-6,-582 -6,-582 -6,-582 -54,-582 -112,-582 -112,-582" /><polygon points="362,-582 314,-582 138,-582 138,-582 186,-582 362,-582" /><polygon points="474,-582 426,-582 426,-582 426,-582 426,-582 426,-582 426,-582 474,-582" /><polygon points="570,-582 570,-582 538,-582 538,-582" /><polygon points="570,-582 538,-582 474,-582 474,-582 474,-582 522,-582 570,-582" /><polygon points="372,-368 474,-368 534.9091,-368 534.9091,-368 500,-368 352,-368 326,-368 326,-368" /><polygon points="-122,-384 -122,-384 -122,-372 -122,-368 -122,-368 -122,-368 -122,-368 -122,-372 -122,-384" /><polygon points="-122,-384 -122,-421 -122,-421 -122,-421 -122,-384" /><polygon points="-6,-384 -6,-384 -6,-384 -112,-384 -112,-384 -112,-384 -112,-384 -112,-384 -6,-384" /><polygon points="218,-384 128,-384 82,-384 -6,-384 -6,-384 112,-384 218,-384" /><polygon points="442,-384 372,-384 326,-384 218,-384 218,-384 336,-384 442,-384" /><polygon points="566,-402 566,-402 570,-400.1819 570,-400.1818" /><polygon points="544,-392 544,-392 566,-402 566,-402" /><polygon points="540.3636,-384 540.3636,-384 544,-392 544,-392" /><polygon points="-112,-421 -112,-555 -112,-582 -112,-582 -112,-582 -112,-480 -112,-384 -112,-384" /><polygon points="-112,-582 -112,-555 -112,-555 -112,-582" /><polygon points="138,-480 138,-480 138,-582 138,-582" /><polygon points="90,-582 90,-582 90,-480 90,-480" /><polygon points="138,-480 138,-582 90,-582 90,-480" /><polygon points="90,-480 42,-480 42,-582 90,-582" /><polygon points="-112,-555 -122,-555 -122,-555 -112,-555" /><polygon points="-122,-421 -112,-421 -112,-421 -122,-421" /><polygon points="-122,-555 -112,-555 -112,-421 -122,-421" /><polygon points="326,-384 326,-384 326,-368 326,-368" /><polygon points="442,-384 474,-384 474,-368 372,-368 372,-384" /><polygon points="218,-384 326,-384 326,-368 128,-368 128,-384" /><polygon points="82,-384 82,-384 82,-368 82,-368" /><polygon points="-6,-368 -6,-368 -6,-384 -6,-384" /><polygon points="82,-368 -6,-368 -6,-384 82,-384" /><polygon points="42,-582 42,-582 42,-582 -6,-582 -6,-582 -6,-582" /><polygon points="426,-582 426,-582 362,-582 362,-582" /><polygon points="138,-582 138,-582 138,-480 138,-480" /><polygon points="138,-480 138,-480 186,-480 186,-480" /><polygon points="186,-480 186,-480 186,-582 186,-582" /><polygon points="186,-582 138,-582 138,-480 186,-480" /><polygon points="138,-480 138,-480 90,-480 90,-480" /><polygon points="128,-582 138,-582 138,-480 90,-480 90,-582" /><polygon points="138,-582 138,-582 128,-582 128,-582" /><polygon points="330,-582 282,-582 282,-582 282,-582 330,-582" /><polygon points="234,-582 282,-582 330,-582 426,-582 426,-582 362,-582 186,-582 186,-582" /><polygon points="426,-582 330,-582 330,-582 330,-582 378,-582 426,-582" /><polygon points="186,-480 186,-480 234,-480 234,-480" /><polygon points="234,-480 234,-480 234,-582 234,-582" /><polygon points="186,-582 186,-582 186,-480 186,-480" /><polygon points="234,-582 186,-582 186,-480 234,-480" /><polygon points="186,-480 138,-480 138,-582 186,-582" /><polygon points="234,-582 282,-582 282,-582 234,-582" /><polygon points="282,-480 282,-480 282,-582 282,-582" /><polygon points="234,-480 234,-480 282,-480 282,-480" /><polygon points="234,-582 234,-582 234,-480 234,-480" /><polygon points="282,-582 234,-582 234,-480 282,-480" /><polygon points="234,-480 186,-480 186,-582 234,-582" /><polygon points="282,-582 282,-582 282,-480 282,-480" /><polygon points="282,-480 282,-480 330,-480 330,-480" /><polygon points="330,-582 282,-582 282,-480 330,-480" /><polygon points="330,-480 330,-480 330,-582 330,-582" /><polygon points="282,-480 234,-480 234,-582 282,-582" /><polygon points="330,-480 330,-480 378,-480 378,-480" /><polygon points="378,-480 378,-480 378,-582 378,-582" /><polygon points="330,-582 330,-582 330,-480 330,-480" /><polygon points="378,-582 330,-582 330,-480 378,-480" /><polygon points="330,-480 282,-480 282,-582 330,-582" /><polygon points="378,-582 426,-582 426,-582 378,-582" /><polygon points="426,-480 426,-480 426,-582 426,-582" /><polygon points="378,-480 378,-480 426,-480 426,-480" /><polygon points="378,-582 378,-582 378,-480 378,-480" /><polygon points="426,-582 378,-582 378,-480 426,-480" /><polygon points="378,-480 330,-480 330,-582 378,-582" /><polygon points="426,-582 426,-582 426,-480 426,-480" /><polygon points="426,-480 426,-480 474,-480 474,-480" /><polygon points="474,-582 426,-582 426,-480 474,-480" /><polygon points="474,-480 474,-480 474,-582 474,-582" /><polygon points="426,-480 378,-480 378,-582 426,-582" /><polygon points="-112,-582 -112,-582 -112,-582 -112,-582 -6,-582 -6,-582 -6,-582 -112,-582" /><polygon points="-6,-368 -6,-368 -122,-368 -122,-368" /><polygon points="102,-368 128,-368 128,-368 102,-368 82,-368 82,-368" /><polygon points="372,-368 372,-368 326,-368 326,-368" /><polygon points="102,-368 82,-368 -6,-368 -122,-368 -122,-368 102,-368" /><polygon points="326,-368 128,-368 102,-368 102,-368 326,-368" /><polygon points="534.9091,-368 534.9091,-368 474,-368 474,-368" /><polygon points="-122,-555 -122,-555 -122,-555 -122,-582 -122,-582 -122,-555" /><polygon points="-122,-555 -122,-555 -122,-421 -122,-421" /><polygon points="82,-384 82,-384 128,-384 128,-384" /><polygon points="352,-384 326,-384 326,-384 372,-384 372,-384" /><polygon points="372,-384 426,-384 426,-384 426,-384 352,-384 352,-384" /><polygon points="426,-384 474,-384 474,-384 426,-384" /><polygon points="474,-384 474,-384 474,-384 540.3636,-384 540.3636,-384 540.3636,-384 474,-384" /><polygon points="-112,-421 -112,-421 -112,-384 -112,-384" /><polygon points="-112,-555 -122,-555 -122,-421 -112,-421" /><polygon points="474,-368 474,-368 474,-384 474,-384" /><polygon points="372,-384 372,-384 372,-368 372,-368" /><polygon points="474,-368 474,-384 426,-384 372,-384 372,-368" /><polygon points="128,-384 128,-384 128,-368 128,-368" /><polygon points="326,-368 326,-384 128,-384 128,-368" /><polygon points="-6,-368 82,-368 82,-384 -6,-384" /><polygon points="522,-480 522,-480 522,-582 522,-582" /><polygon points="474,-480 474,-480 522,-480 522,-480" /><polygon points="474,-582 474,-582 474,-480 474,-480" /><polygon points="522,-582 474,-582 474,-480 522,-480" /><polygon points="474,-480 426,-480 426,-582 474,-582" /><polygon points="522,-582 570,-582 570,-582 522,-582" /><polygon points="522,-582 522,-582 522,-480 522,-480" /><polygon points="570,-400.1818 570,-480 570,-480 570,-480 570,-400.1818" /><polygon points="570,-480 570,-400.1818 570,-400.1818 570,-400.1819 570,-480 570,-582 570,-582 570,-582 570,-582 570,-582 570,-582" /><polygon points="522,-480 522,-480 570,-480 570,-480" /><polygon points="570,-582 522,-582 522,-480 570,-480" /><polygon points="570,-400.1818 570,-400.1818 570,-400.1821 566,-402 566,-402 570,-400.1818" /><polygon points="522,-480 474,-480 474,-582 522,-582" /><polygon points="522,-582 522,-582 474,-582 474,-582 522,-582" /><polygon points="-48,352 -49.8182,352 -272,352 -272,352 -233.6,352 -134,352 -48,352" /><polygon points="176,352 174.1818,352 -48,352 -48,352 -6,352 176,352" /><polygon points="400,352 398.1818,352 176,352 176,352 218,352 400,352" /><polygon points="534.9091,-368 534.9091,-368 474,-368 372,-368 326,-368 326,-368" /><polygon points="-122,-421 -122,-555 -122,-582 -122,-582 -122,-384 -122,-384" /><polygon points="570,-480 522,-480 522,-582 570,-582" /><polygon points="-112,-436 -112,-542 -112,-582 -112,-582 -112,-555 -112,-421 -112,-384 -112,-384" /><polygon points="-111,-542 -112,-542 -112,-436 -111,-436" /><polygon points="534,-370 533.0909,-372 534.9091,-372" /><polygon points="102,-368 -122,-368 -122,-372 102,-372" /><polygon points="326,-368 102,-368 102,-372 326,-372" /><polygon points="426,-372 533.0909,-372 534.9091,-368 326,-368 326,-372" /><polygon points="102,-372 -122,-372 -122,-372 102,-372" /><polygon points="326,-372 102,-372 102,-372 326,-372" /><polygon points="566,-338 570,-339.8182 570,-336.1818" /><polygon points="-84,46 -304,46 -308,46 -308,46 -84,46" /><polygon points="512,46 499.7889,46 321.1868,46 307.2,46 288,46 288,46 512,46" /><polygon points="566,-114 566,-178 566,-338 570,-336.1818 570,-306 570,-114" /><polygon points="570,-82 566,-82 566,-114 570,-114" /><polygon points="511.0909,-82 287.0909,-82 288,-80 291.6364,-72 499.7889,-72 511.0909,-72" /><polygon points="566,-72 566,-82 511.0909,-82 511.0909,-72" /><polygon points="255.0909,-82 256.9091,-82 260.8164,-90.5961 253.9369,-106.5507 242,-111 254.5094,-82" /><polygon points="145.3548,-156.9777 132,-162 128,-160.4959 128,-153.4909 242,-111 253.9369,-106.5507 249,-118" /><polygon points="259.9025,-69.4989 242,-111 128,-153.4909 128,-72 128,-35.4545 264.767,26.7123 269.6393,28.927 286,-9" /><polygon points="255.0909,-82 256,-80 256.9091,-82" /><polygon points="256,-80 255.0909,-82 254.5094,-82 259.9025,-69.4989 261,-69" /><polygon points="291.6364,-72 288,-80 284.3636,-72" /><polygon points="499.7889,-72 291.6364,-72 284.3636,-72 283,-69 275.7889,-53.1356 296,-9 321.1868,46 499.7889,46" /><polygon points="512,46 566,46 566,-72 511.0909,-72 499.7889,-72 499.7889,46" /><polygon points="321.1868,46 296,-9 290.8501,2.2458 277.0822,32.3101 283,35 307.2,46" /><polygon points="288,46 307.2,46 283,35" /><polygon points="283,-69 272,-64 271.018,-63.5536 275.7889,-53.1356" /><polygon points="270.5017,-64.681 271.018,-63.5536 272,-64" /><polygon points="286,-9 290.8501,2.2458 296,-9 275.7889,-53.1356 271.018,-63.5536 270.5017,-64.681 261,-69 259.9025,-69.4989" /><polygon points="128,46 256,46 261,35 264.767,26.7123 128,-35.4545" /><polygon points="268.4878,31.5965 269.6393,28.927 264.767,26.7123 261,35" /><polygon points="269.6393,28.927 268.4878,31.5965 272,30" /><polygon points="286,-9 269.6393,28.927 272,30 277.0822,32.3101 290.8501,2.2458" /><polygon points="9,-91 12.6561,-89.3381 26.9604,-122.4979 15,-118 6.1045,-97.37 4.2824,-93.1443" /><polygon points="128,-153.4909 128,-160.4959 118.6451,-156.9777 26.9604,-122.4979 12.6561,-89.3381 11.2435,-86.0644 14,-80 17.6364,-72 128,-72" /><polygon points="11.2435,-86.0644 12.6561,-89.3381 9,-91" /><polygon points="-17.0909,-82 -18.9091,-82 -18,-80" /><polygon points="17.6364,-72 14,-80 10.3636,-72" /><polygon points="-18,-80 -18.9091,-82 -41.6,-82 -13,-69" /><polygon points="-13,-69 -41.6,-82 -56,-82 -56,-61.4082 -32,-9 -26.8506,-20.2447 -8.0783,-61.2371 -5.9839,-65.8108" /><polygon points="-80,-82 -84,-82 -304,-82 -304,46 -84,46 -80,46" /><polygon points="-56,-61.4082 -56,-82 -80,-82 -80,46 -56,46" /><polygon points="-308,-82 -308,-188 -304,-188 -304,-82" /><polygon points="-2,-64 -8.0783,-61.2371 -26.8506,-20.2447 -22,-9 2.6341,-66.1064" /><polygon points="-6,30 -4.9756,30.4657 -20.1851,-4.7928 -22,-9 -26.8506,-20.2447 -32,-9 -16.28,25.3273" /><polygon points="17.6364,-72 10.3636,-72 9,-69 -20.1851,-4.7928 -4.9756,30.4657 5,35 29.2,46 128,46 128,-35.4545 128,-72" /><polygon points="-22,-9 -20.1851,-4.7928 9,-69 2.6341,-66.1064" /><polygon points="29.2,46 5,35 10,46" /><polygon points="-16.28,25.3273 -14.4348,29.3566 -12.7377,33.0626 -6,30" /><polygon points="-5.9839,-65.8108 -8.0783,-61.2371 -2,-64" /><polygon points="-22,46 -17,35 -14.4348,29.3566 -16.28,25.3273 -32,-9 -56,-61.4082 -56,46" /><polygon points="-12.7377,33.0626 -14.4348,29.3566 -17,35" /><polygon points="26.9604,-122.4979 118.6451,-156.9777 132,-162 132,-162 129.1544,-160.9298 128,-160.4957 15,-118 15,-118 15,-118" /><polygon points="566,-82 570,-82 570,-82 511.0909,-82 511.0909,-82" /><polygon points="-80,-82 -56,-82 -41.6,-82 -18.9091,-82 -17.0909,-82 -17.0909,-82 -84,-82 -84,-82" /><polygon points="566,-178 566,-114 566,-82 566,-72 566,46 566,46 566,-72 566,-82 566,-144 566,-178" /><polygon points="-304,-82 -304,-188 -304,-188 -304,-144 -304,-72 -304,46 -304,46" /><polygon points="283,35 283,35 288,46 288,46" /><polygon points="261,-91 261,-91 272,-96 272,-96" /><polygon points="272,-96 272,-96 283,-91 283,-91" /><polygon points="287.0909,-82 283,-91 283,-91 287.0909,-82 288,-80 288,-80" /><polygon points="284.3636,-72 288,-80 288,-80 284.3636,-72 283,-69 283,-69" /><polygon points="270.5017,-64.681 272,-64 272,-64 261,-69 261,-69" /><polygon points="-13,-91 -13,-91 -2,-96 -2,-96" /><polygon points="256,46 256,46 261,35 261,35" /><polygon points="268.4878,31.5965 261,35 261,35 272,30 272,30" /><polygon points="-4.9756,30.4657 -6,30 -6,30 5,35 5,35" /><polygon points="4.2824,-93.1443 -2,-96 -2,-96 9,-91 9,-91" /><polygon points="11.2435,-86.0644 9,-91 9,-91 11.3288,-85.8767 14,-80 14,-80" /><polygon points="2.6341,-66.1064 9,-69 9,-69 -2,-64 -2,-64" /><polygon points="10.3636,-72 14,-80 14,-80 10.3636,-72 9,-69 9,-69" /><polygon points="5,35 5,35 10,46 10,46" /><polygon points="-22,46 -22,46 -17,35 -17,35" /><polygon points="-308,-188 -308,-188 -304,-188 -304,-188" /><polygon points="566,96 566,270 566,320 566,320 566,270 566,96" /><polygon points="566,46 566,96 566,96 566,46" /><polygon points="566,96 566,46 570,46 570,170 570,270 566,270" /><polygon points="570,270 570,318.1818 566,320 566,270" /><polygon points="272,62 272,62 266.4693,59.4861 266.469,59.4859" /><polygon points="128,142.4957 128,132.5091 22,93 10.0631,88.5506 15,100" /><polygon points="29.2,46 10,46 5.7545,55.34 22,93 128,132.5091 128,46" /><polygon points="-2.1416,60.2462 0.6168,66.6431 5,57" /><polygon points="22,93 5.7545,55.34 5,57 0.6168,66.6431 10.0631,88.5506" /><polygon points="237.0398,104.4978 249,100 266.469,59.4859 261,57 258.0983,55.6811" /><polygon points="259.2193,53.0824 258.0983,55.6811 261,57" /><polygon points="259.2193,53.0824 256,46 128,46 128,132.5091 128,142.4957 132,144 237.0398,104.4978" /><polygon points="-6,62 -6,62 -17,57 -17,57" /><polygon points="5.7545,55.34 10,46 10,46 5,57 5,57" /><polygon points="-308,270 -308,97.8182 -308,46 -304,46 -304,96 -304,270" /><polygon points="-304,320 -308,318.1818 -308,270 -304,270" /><polygon points="570,318.1818 570,321.8182 566,320" /><polygon points="-304,320 -308,321.8182 -308,318.1818" /><polygon points="-308,-188 -308,-188 -320,-188 -320,-188 -308,-188" /><polygon points="-49.8182,356 -273.8182,356 -272,352 -49.8182,352" /><polygon points="174.1818,356 128,356 -49.8182,356 -49.8182,352 -48,352 174.1818,352" /><polygon points="398.1818,356 384,356 352,356 174.1818,356 174.1818,352 176,352 398.1818,352" /><polygon points="400,352 534,352 535.8182,356 440,356 398.1818,356 398.1818,352" /><polygon points="398.1818,356 440,356 440,356 384,356 384,356" /><polygon points="128,356 128,356 128,356 -49.8182,356 -49.8182,356" /><polygon points="-320,566 -310,566 -240,566 -240,566 -240,566 -310,566 -320,566 -422,566 -422,566" /><polygon points="352,566 374,566 374,566 352,566 256,566 256,566" /><polygon points="592,-63 598,-72 684,-72 684,36 582,36 582,-48" /><polygon points="582,-48 582,-58 592,-63" /><polygon points="598,-72 592,-82 684,-82 684,-72" /><polygon points="582,-144 582,-311 582,-334.8 588,-348 597.0909,-368 598.9091,-368 684,-368 684,-188 684,-144" /><polygon points="684,-82 592,-82 582,-87 582,-144 684,-144" /><polygon points="582,-334.8 582,-345.2727 588,-348" /><polygon points="588,-392 605.6,-384 591.6364,-384" /><polygon points="605.6,-384 684,-384 684,-368 598.9091,-368 598,-370 591.6364,-384" /><polygon points="597.0909,-368 598,-370 598.9091,-368" /><polygon points="588,-392 582,-394.7273 582,-582 684,-582 684,-412 684,-384 605.6,-384" /><polygon points="684,-582 684,-582 684,-412 684,-412" /><polygon points="582,-394.7273 588,-392 588,-392 582,-394.7273" /><polygon points="591.6364,-384 598,-370 598,-370 591.6364,-384 588,-392 588,-392" /><polygon points="570,-582 570,-480 570,-480 570,-582" /><polygon points="570,-400.1818 570,-480 570,-582 582,-582 582,-394.7273" /><polygon points="570,46 570,46 570,46 570,46 570,46 570,170 570,170 570,170 570,46" /><polygon points="572,-63 570,-64 570,-66" /><polygon points="582,-48 582,36 570,36 570,-64 582,-58" /><polygon points="-308,-82 -308,-82 -308,-82 -308,-188 -308,-188 -308,-188 -308,-82" /><polygon points="-22,46 -22,46 -56,46 -80,46 -84,46 -84,46" /><polygon points="-84,46 -308,46 -308,46 -262,46 -180,46 -134,46 -84,46" /><polygon points="570,46 570,46 566,46 512,46 512,46" /><polygon points="512,46 288,46 288,46 318,46 394,46 440,46 512,46" /><polygon points="570,36 570,36 524,36 507.4545,36 507.4545,36" /><polygon points="-56,36 -17.4545,36 -17.4545,36 -56,36 -80.6,36 -80.6,36" /><polygon points="508.3636,-72 504,-72 284.3636,-72 284.3636,-72 318,-72 394,-72 440,-72 508.3636,-72" /><polygon points="570,-82 570,-82 524,-82 511.0909,-82 511.0909,-82" /><polygon points="511.0909,-82 287.0909,-82 287.0909,-82 511.0909,-82" /><polygon points="14,-80 11.2435,-86.0644 22,-111 128,-150.5091 128,-72 17.6364,-72" /><polygon points="255.3721,-80 256,-80 259.6364,-72 258.823,-72" /><polygon points="128,-150.5091 132,-152 242,-111 255.3721,-80 258.823,-72 128,-72" /><polygon points="256,-80 256,-80 259.6364,-72 259.6364,-72" /><polygon points="128,-35.4545 128,36 66.7273,36 17.6364,-72 128,-72" /><polygon points="283.4545,36 283,35 285.2,36" /><polygon points="271.0176,-63.5535 272,-64 280,-67.6364 280,-62.4 280,-43.9389" /><polygon points="280,-67.6364 283,-69 280,-62.4" /><polygon points="268.4878,31.5965 269.6393,28.927 272,30" /><polygon points="259.9017,-69.4992 261,-69 270.5011,-64.6813 271.0176,-63.5535 280,-43.9389 296,-9 290.8499,2.246" /><polygon points="264.7671,26.7123 269.6393,28.927 268.4878,31.5965 261,35" /><polygon points="128,-35.4545 264.7671,26.7123 261,35 260.5454,36 229.4545,36 128,36" /><polygon points="272,30 269.6393,28.927 286,-9 290.8499,2.246 277.0823,32.3101" /><polygon points="271.0176,-63.5535 270.5011,-64.6813 272,-64" /><polygon points="296,-9 316.6075,36 285.2,36 283,35 277.0823,32.3101" /><polygon points="504,36 316.6075,36 296,-9 280,-43.9389 280,-62.4 283,-69 284.3636,-72 504,-72" /><polygon points="508.3636,-72 566,-72 570,-66 570,-64 570,36 507.4545,36 504,36 504,-72" /><polygon points="259.6364,-72 261,-69 259.9017,-69.4992 258.823,-72" /><polygon points="258.823,-72 286,-9 269.6393,28.927 264.7671,26.7123 128,-35.4545 128,-72" /><polygon points="-84,-82 -308,-82 -308,-82 -304,-82 -84,-82" /><polygon points="-17.0909,-82 -17.0909,-82 -56,-82 -84,-82 -84,-82" /><polygon points="10.3636,-72 14,-80 17.6364,-72" /><polygon points="-56,-61.4084 -32,-9 -14.4348,29.3565 -17,35 -17.4545,36 -56,36" /><polygon points="-2,-64 -8.0783,-61.2371 -5.9838,-65.8108" /><polygon points="-10,18.8181 -4.9756,30.4657 -6,30 -10,28.1818" /><polygon points="-10,28.1818 -10,31.8182 -12.7377,33.0626 -14.4348,29.3565 -32,-9 -26.8506,-20.2447 -22,-9 -10,18.8181" /><polygon points="66.7273,36 7.2,36 5,35 -4.9756,30.4657 -10,18.8181 -10,-27.2 9,-69 10.3636,-72 17.6364,-72" /><polygon points="-22,-9 -10,-36.8182 -10,-27.2 -10,18.8181" /><polygon points="-10,-27.2 -10,-36.8182 2.6341,-66.1064 9,-69" /><polygon points="5.4545,36 5,35 7.2,36" /><polygon points="-10,28.1818 -6,30 -10,31.8182" /><polygon points="-8.0783,-61.2371 -2,-64 2.6341,-66.1064 -10,-36.8182 -22,-9 -26.8506,-20.2447" /><polygon points="-17,35 -14.4348,29.3565 -12.7377,33.0626" /><polygon points="-14.3636,-72 -13,-69 -19.6,-72" /><polygon points="-13,-69 -5.9838,-65.8108 -8.0783,-61.2371 -26.8506,-20.2447 -32,-9 -56,-61.4084 -56,-72 -19.6,-72" /><polygon points="-84,36 -304.6,36 -308,30.3333 -308,28 -308,-72 -84,-72" /><polygon points="-56,-72 -56,-61.4084 -56,36 -80.6,36 -84,36 -84,-72" /><polygon points="-84,-72 -308,-72 -308,-72 -308,-72 -262,-72 -180,-72 -134,-72 -84,-72" /><polygon points="229.4545,46 10,46 5.4545,36 7.2,36 66.7273,36 128,36 229.4545,36" /><polygon points="260.5454,36 256,46 229.7545,46 229.4545,46 229.4545,36" /><polygon points="229.7544,97.5643 132,134 22,93 5.7546,55.3399 10,46 229.4545,46 229.7545,46" /><polygon points="256,46 259.2193,53.0825 242,93 229.7544,97.5643 229.7545,46" /><polygon points="132,134 132,134 22,93 22,93" /><polygon points="-308,-72 -308,28 -310,27 -320,22 -320,-72" /><polygon points="-308,28 -308,30.3333 -310,27" /><polygon points="-308,-72 -320,-72 -320,-72 -308,-72" /><polygon points="-422,330.3636 -374.4,352 -422,352" /><polygon points="-422,270 -422,128 -422,46 -330,46 -320,51 -320,103.2727 -320,270" /><polygon points="-320,316.8 -326,330 -336,352 -374.4,352 -422,330.3636 -422,270 -320,270" /><polygon points="-320,316.8 -320,327.2727 -326,330" /><polygon points="-336,37 -336.6667,36 -335.4,36" /><polygon points="-336,37 -330,46 -422,46 -422,36 -336.6667,36" /><polygon points="-320,-72 -320,22 -325.3842,19.308 -422,-29 -422,-72" /><polygon points="-320,22 -330,27 -325.3842,19.308" /><polygon points="-336.6667,36 -422,36 -422,-29 -325.3842,19.308 -330,27 -335.4,36" /><polygon points="-422,128 -422,270 -422,330.3636 -422,352 -422,352 -422,224 -422,128" /><polygon points="-422,352 -422,566 -422,566 -422,352" /><polygon points="-55.2727,368 -85.2727,368 -279.2727,368 -279.2727,368 -85.2727,368 -55.2727,368" /><polygon points="352,368 128,368 128,368 288,368 352,368" /><polygon points="352,566 256,566 128,566 128,434 128,368 352,368" /><polygon points="374,368 374,566 352,566 352,368" /><polygon points="-85.2727,434 -192,434 -240,434 -309.2727,434 -282,374 -279.2727,368 -85.2727,368" /><polygon points="-55.2727,368 128,368 128,434 32,434 -85.2727,434 -85.2727,368" /><polygon points="32,566 -192,566 -192,434 -85.2727,434 32,434" /><polygon points="128,434 128,566 32,566 32,434" /><polygon points="-310,381.2727 -304,384 -310,386.7273" /><polygon points="-310,386.7273 -304,384 -282,374 -309.2727,434 -310,434" /><polygon points="-310,434 -309.2727,434 -240,434 -240,566 -310,566" /><polygon points="-192,434 -192,434 -240,434 -240,434" /><polygon points="-282,374 -282,374 -279.2727,368 -279.2727,368" /><polygon points="-240,434 -240,434 -240,566 -240,566" /><polygon points="-192,566 -192,566 -192,434 -192,434" /><polygon points="-374.4,352 -326,374 -320,376.7273 -320,391.2727 -320,434 -320,566 -422,566 -422,352" /><polygon points="-320,391.2727 -320,376.7273 -310,381.2727 -310,386.7273" /><polygon points="-320,434 -320,391.2727 -310,386.7273 -310,434" /><polygon points="-320,434 -310,434 -310,566 -320,566" /><polygon points="-326,374 -374.4,352 -336,352" /><polygon points="-336,352 -336,352 -326,374 -326,374" /><polygon points="-310,381.2727 -326,374 -326,374 -320,376.7273 -310,381.2727" /><polygon points="-518,-384 -518,-384 -518,-188 -518,-188" /><polygon points="-320,-582 -320,-582 -518,-582 -518,-582" /><polygon points="-122,-582 -122,-582 -122,-582 -320,-582 -320,-582" /><polygon points="-122,-384 -122,-372 -122,-372 -122,-384" /><polygon points="426,-372 426,-372 533.0909,-372 534.9091,-372 534.9091,-372 533.0909,-372 426,-372" /><polygon points="102,-372 -122,-372 -122,-372 -48.9091,-372 102,-372" /><polygon points="326,-372 102,-372 102,-372 175.0909,-372 326,-372" /><polygon points="426,-372 426,-372 326,-372 326,-372" /><polygon points="-122,-384 -122,-582 -320,-582 -320,-409.2727 -304,-402 -282,-392 -264.4,-384" /><polygon points="-122,-372 -122,-384 -264.4,-384 -278.3636,-384 -272.9091,-372" /><polygon points="-278.3636,-384 -264.4,-384 -282,-392" /><polygon points="-320,-409.2727 -320,-405.2 -320,-394.7273 -304,-402" /><polygon points="-122,-372 -272.9091,-372 -272.9091,-372 -122,-372" /><polygon points="-304,-402 -304,-402 -282,-392 -282,-392" /><polygon points="-272,-370 -272,-370 -272.9091,-368 -272.9091,-368" /><polygon points="-308,-339.8182 -308,-188 -308,-188 -308,-306 -308,-339.8182" /><polygon points="-304,-338 -304,-338 -308,-339.8182 -308,-339.8182" /><polygon points="-308,-339.8182 -320,-345.2727 -320,-188 -308,-188" /><polygon points="-518,-188 -518,-188 -320,-188 -320,-188" /><polygon points="-336,-370 -342.3636,-384 -405.2,-384 -326,-348" /><polygon points="-320,-394.7273 -320,-405.2 -326,-392" /><polygon points="-518,-384 -405.2,-384 -342.3636,-384 -329.6364,-384 -326,-392 -320,-405.2 -320,-409.2727 -320,-582 -518,-582" /><polygon points="-329.6364,-384 -342.3636,-384 -336,-370" /><polygon points="-326,-348 -405.2,-384 -518,-384 -518,-188 -320,-188 -320,-345.2727" /><polygon points="-320,-394.7273 -326,-392 -326,-392 -320,-394.7273" /><polygon points="-336,-370 -336,-370 -326,-392 -326,-392" /><polygon points="-240,566 -192,566 -192,566 -192,566 -240,566" /><polygon points="374,566 374,566 352,566 352,566" /><polygon points="32,566 -96,566 -144,566 -192,566 -192,566 32,566" /><polygon points="256,566 128,566 32,566 32,566 128,566 256,566" /><polygon points="-144,434 -144,434 -192,434 -192,434" /><polygon points="-96,434 -96,434 -144,434 -144,434" /><polygon points="-96,566 -96,566 -96,434 -96,434" /><polygon points="-96,434 -144,434 -144,566 -96,566" /><polygon points="-192,434 -192,434 -192,566 -192,566" /><polygon points="-144,434 -192,434 -192,566 -144,566" /><polygon points="-192,566 -240,566 -240,434 -192,434" /><polygon points="-96,434 -96,434 -144,434 -144,434" /><polygon points="-144,434 -144,434 -144,566 -144,566" /><polygon points="-96,566 -96,566 -96,434 -96,434" /><polygon points="-144,566 -192,566 -192,434 -144,434" /><polygon points="-56,46 -22,46 -22,46 -84,46 -84,46" /><polygon points="288,46 288,46 288,46 318,46 318,46" /><polygon points="524,46 570,46 570,46 512,46 512,46" /><polygon points="-304.6,36 -304.6,36 -304.6,36 -308,30.3333 -308,30.3333 -304.6,36" /><polygon points="507.4545,36 440,36 394,36 318,36 283.4545,36 283.4545,36 285.2,36 316.6075,36 504,36 507.4545,36" /><polygon points="570,36 570,36 524,36 524,36" /><polygon points="-80.6,36 -134,36 -180,36 -262,36 -304.6,36 -304.6,36 -84,36 -80.6,36" /><polygon points="-17.4545,36 -17.4545,36 -56,36 -56,36" /><polygon points="-262,36 -262,36 -304.6,36 -304.6,36" /><polygon points="524,-72 566,-72 566,-72 508.3636,-72 508.3636,-72" /><polygon points="524,-72 524,-72 566,-72 566,-72" /><polygon points="284.3636,-72 284.3636,-72 318,-72 318,-72" /><polygon points="440,-82 440,-82 394,-82 394,-82" /><polygon points="570,-82 570,-82 524,-82 524,-82" /><polygon points="511.0909,-82 440,-82 394,-82 318,-82 287.0909,-82 287.0909,-82 511.0909,-82" /><polygon points="524,-72 508.3636,-72 440,-72 440,-82 511.0909,-82 524,-82" /><polygon points="318,-72 318,-72 318,-82 318,-82" /><polygon points="318,-72 318,-82 394,-82 394,-72" /><polygon points="566,-72 566,-72 566,-72 570,-66 570,-66 566,-72" /><polygon points="283.4545,36 283.4545,36 283.4545,36 283,35 283,35 283.4545,36" /><polygon points="-17.0909,-82 -17.0909,-82 -56,-82 -56,-82" /><polygon points="-84,-82 -134,-82 -180,-82 -262,-82 -308,-82 -308,-82 -84,-82" /><polygon points="-14.3636,-72 -14.3636,-72 -14.3636,-72 -13,-69 -13,-69 -14.3636,-72" /><polygon points="-56,-72 -14.3636,-72 -14.3636,-72 -19.6,-72 -56,-72 -84,-72 -84,-72" /><polygon points="-56,-72 -84,-72 -134,-72 -134,-82 -84,-82 -56,-82" /><polygon points="-180,-72 -262,-72 -262,-82 -180,-82" /><polygon points="524,46 512,46 440,46 440,36 507.4545,36 524,36" /><polygon points="394,46 318,46 318,36 394,36" /><polygon points="-56,36 -56,36 -56,46 -56,46" /><polygon points="-84,46 -134,46 -134,36 -80.6,36 -56,36 -56,46" /><polygon points="-180,46 -262,46 -262,36 -180,36" /><polygon points="-144,566 -96,566 -96,566 -96,566 -144,566" /><polygon points="128,566 -48,566 -96,566 -96,566 -96,566 32,566 128,566" /><polygon points="352,566 176,566 128,566 128,566 256,566 352,566" /><polygon points="352,566 374,566 374,566 272,566 176,566 176,566" /><polygon points="-48,434 -48,434 -96,434 -96,434" /><polygon points="-48,566 -48,566 -48,434 -48,434" /><polygon points="-96,434 -96,434 -96,566 -96,566" /><polygon points="-48,434 -96,434 -96,566 -48,566" /><polygon points="-96,566 -144,566 -144,434 -96,434" /><polygon points="566,320 566,320 570,321.8182 570,321.8182" /><polygon points="535.8182,356 535.8182,356 440,356 440,356 440,356 535.8182,356" /><polygon points="535.8182,356 535.8182,356 534,352 534,352" /><polygon points="-96,566 -48,566 -48,566 -48,566 -96,566" /><polygon points="176,566 48,566 0,566 -48,566 -48,566 128,566 176,566" /><polygon points="374,566 374,566 320,566 272,566 272,566" /><polygon points="0,434 0,434 -48,434 -48,434" /><polygon points="0,566 0,566 0,434 0,434" /><polygon points="-48,434 -48,434 -48,566 -48,566" /><polygon points="0,434 -48,434 -48,566 0,566" /><polygon points="-48,566 -96,566 -96,434 -48,434" /><polygon points="48,566 0,566 0,566 48,566" /><polygon points="48,434 48,434 0,434 0,434" /><polygon points="0,434 0,434 0,566 0,566" /><polygon points="48,566 48,566 48,434 48,434" /><polygon points="48,434 0,434 0,566 48,566" /><polygon points="0,566 -48,566 -48,434 0,434" /><polygon points="0,566 0,566 -48,566 -48,566 -48,566 0,566" /><polygon points="374,566 374,566 320,566 320,566" /><polygon points="272,566 96,566 48,566 48,566 48,566 176,566 272,566" /><polygon points="-272.9091,-368 -272.9091,-368 -272,-370 -272,-370 -272.9091,-368" /><polygon points="-282,-348 -282,-348 -304,-338 -304,-338 -304,-338" /><polygon points="-272.9091,-368 -272.9091,-368 -272.9091,-368 -282,-348 -282,-348" /><polygon points="-304,320 -304,320 -304,320 -282,330 -282,330" /><polygon points="544,330 544,330 566,320 566,320 566,320 566,320" /><polygon points="566,-338 566,-338 566,-338 544,-348 544,-348" /><polygon points="566,-338 566,-338 570,-339.8182 570,-339.8182 566,-338" /><polygon points="544,-348 544,-348 534.9091,-368 534.9091,-368 534.9091,-368 534.9091,-368 534.9091,-368" /><polygon points="-17,57 -17,57 -17,57 -22,46 -22,46 -22,46 -22,46 -22,46" /><polygon points="288,46 288,46 288,46 288,46 288,46 283,57 283,57" /><polygon points="283,57 283,57 272,62 272,62 272,62" /><polygon points="272,62 272,62 266.469,59.4859 266.4692,59.486" /><polygon points="534,352 534,352 534,352 534,352 544,330 544,330" /><polygon points="-282,330 -282,330 -272,352 -272,352 -272,352" /><polygon points="-304,320 -304,320 -308,321.8182 -308,321.8182 -304,320" /><polygon points="534,352 534,352 535.818,356 535.8182,356 535.8182,356 534,352" /><polygon points="96,434 96,434 48,434 48,434" /><polygon points="96,566 96,566 96,434 96,434" /><polygon points="48,566 0,566 0,434 48,434" /><polygon points="96,434 48,434 48,566 96,566" /><polygon points="48,434 48,434 48,566 48,566" /><polygon points="-96,566 -48,566 -48,566 -85,566 -144,566 -144,566 -144,566" /><polygon points="48,566 48,566 48,566 0,566 0,566 48,566" /><polygon points="320,566 288,566 192,566 144,566 96,566 96,566 272,566 320,566" /><polygon points="440,356 440,356 384,356 384,356" /><polygon points="374,368 374,368 352,368 352,368" /><polygon points="384,356 384,356 384,356 352,356 352,356" /><polygon points="352,356 128,356 128,356 174.1818,356 352,356" /><polygon points="384,356 352,356 352,356 384,356" /><polygon points="374,368 374,368 374,566 374,566 374,566 374,566 374,566 374,566 374,566 374,368" /><polygon points="144,434 144,434 96,434 96,434" /><polygon points="144,566 144,566 144,434 144,434" /><polygon points="96,434 96,434 96,566 96,566" /><polygon points="144,566 144,434 96,434 96,566" /><polygon points="96,566 48,566 48,434 96,434" /><polygon points="192,566 144,566 144,566 192,566" /><polygon points="144,566 144,566 144,566 96,566 96,566" /><polygon points="192,566 192,566 288,566 288,566 240,566 192,566" /><polygon points="192,434 192,434 144,434 144,434" /><polygon points="144,434 144,434 144,566 144,566" /><polygon points="192,434 144,434 144,566 192,566" /><polygon points="192,566 192,566 192,434 192,434" /><polygon points="144,434 144,566 96,566 96,434" /><polygon points="240,434 240,434 192,434 192,434" /><polygon points="240,566 240,566 240,434 240,434" /><polygon points="192,434 192,434 192,566 192,566" /><polygon points="240,434 192,434 192,566 240,566" /><polygon points="192,566 144,566 144,434 192,434" /><polygon points="-308,-306 -308,-188 -308,-82 -308,-82 -308,-82 -308,-114 -308,-306" /><polygon points="-308,-339.8182 -308,-339.8182 -304,-338 -304,-338 -304,-338 -308,-339.8182" /><polygon points="-134,46 -134,46 -180,46 -180,46" /><polygon points="-262,46 -262,46 -308,46 -308,46" /><polygon points="-22,46 -22,46 -22,46 -56,46 -56,46" /><polygon points="-84,46 -134,46 -180,46 -262,46 -308,46 -308,46 -84,46" /><polygon points="440,46 440,46 394,46 394,46" /><polygon points="570,46 570,46 524,46 524,46" /><polygon points="512,46 440,46 394,46 318,46 288,46 288,46 321.187,46 512,46" /><polygon points="524,36 570,36 570,36 507.4545,36 507.4545,36" /><polygon points="394,36 394,36 440,36 440,36" /><polygon points="283.4545,36 283.4545,36 318,36 318,36" /><polygon points="-56,36 -17.4545,36 -17.4545,36 -80.6,36 -80.6,36" /><polygon points="-180,36 -180,36 -134,36 -134,36" /><polygon points="440,-72 440,-72 394,-72 394,-72" /><polygon points="508.3636,-72 440,-72 394,-72 318,-72 284.3636,-72 284.3636,-72 499.7889,-72 508.3636,-72" /><polygon points="287.0909,-82 287.0909,-82 318,-82 318,-82" /><polygon points="524,-82 570,-82 570,-82 511.0909,-82 511.0909,-82" /><polygon points="440,-82 440,-82 440,-72 440,-72" /><polygon points="524,-72 524,-72 524,-82 524,-82" /><polygon points="524,-82 511.0909,-82 440,-82 440,-72 508.3636,-72 524,-72" /><polygon points="394,-72 394,-72 394,-82 394,-82" /><polygon points="318,-72 394,-72 394,-82 318,-82" /><polygon points="-308,-82 -308,-82 -262,-82 -262,-82" /><polygon points="-180,-82 -180,-82 -134,-82 -134,-82" /><polygon points="-56,-82 -17.0909,-82 -17.0909,-82 -84,-82 -84,-82" /><polygon points="-134,-72 -134,-72 -180,-72 -180,-72" /><polygon points="-14.3636,-72 -14.3636,-72 -56,-72 -56,-72" /><polygon points="-84,-72 -134,-72 -180,-72 -262,-72 -308,-72 -308,-72 -84,-72" /><polygon points="-262,-72 -262,-72 -308,-72 -308,-72" /><polygon points="-180,-72 -180,-72 -180,-82 -180,-82" /><polygon points="-134,-82 -134,-82 -134,-72 -134,-72" /><polygon points="-56,-72 -56,-72 -56,-82 -56,-82" /><polygon points="-84,-82 -134,-82 -134,-72 -84,-72 -56,-72 -56,-82" /><polygon points="-262,-82 -262,-82 -262,-72 -262,-72" /><polygon points="-180,-82 -262,-82 -262,-72 -180,-72" /><polygon points="318,36 318,36 318,46 318,46" /><polygon points="440,36 440,36 440,46 440,46" /><polygon points="524,46 524,46 524,36 524,36" /><polygon points="524,36 507.4545,36 440,36 440,46 512,46 524,46" /><polygon points="394,46 394,46 394,36 394,36" /><polygon points="318,46 394,46 394,36 318,36" /><polygon points="-180,46 -180,46 -180,36 -180,36" /><polygon points="-134,36 -134,36 -134,46 -134,46" /><polygon points="-134,46 -84,46 -56,46 -56,36 -80.6,36 -134,36" /><polygon points="-262,36 -262,36 -262,46 -262,46" /><polygon points="-180,36 -262,36 -262,46 -180,46" /><polygon points="-22,46 -22,46 -22,46 -22,46 -17,57 -17,57 -17,57 -22,46" /><polygon points="288,566 240,566 240,566 288,566" /><polygon points="288,566 288,566 288,434 288,434" /><polygon points="288,434 288,434 240,434 240,434" /><polygon points="240,434 240,434 240,566 240,566" /><polygon points="288,434 240,434 240,566 288,566" /><polygon points="240,566 192,566 192,434 240,434" /><polygon points="128,-384 -6,-384 -6,-384 82,-384 128,-384" /><polygon points="-6,-384 128,-384 128,-384 112,-384 -112,-384 -112,-384" /><polygon points="-112,-384 -112,-436 -112,-436 -112,-384" /><polygon points="-112,-542 -112,-582 -112,-582 -112,-542" /><polygon points="-112,-542 -112,-436 -112,-384 -112,-384 -112,-582 -112,-582" /><polygon points="-111,-436 -112,-436 -112,-542 -111,-542" /><polygon points="-111,-436 -111,-542 -111,-542 -111,-436" /><polygon points="-112,-436 -111,-436 -111,-436 -112,-436" /><polygon points="-111,-542 -112,-542 -112,-542 -111,-542" /><polygon points="240,566 240,566 192,566 192,566 192,566 240,566" /><polygon points="374,566 288,566 288,566 288,566 288,566 320,566 374,566" /><polygon points="288,368 374,368 374,368 352,368 288,368" /><polygon points="288,566 288,434 288,434 288,434 288,566" /><polygon points="288,368 288,368 288,434 288,434" /><polygon points="288,434 288,566 374,566 374,368 288,368" /><polygon points="288,566 240,566 240,434 288,434" /><polygon points="-6,-582 112,-582 128,-582 128,-582 128,-582 90,-582 42,-582 -6,-582" /><polygon points="186,-582 234,-582 234,-582 234,-582 186,-582" /><polygon points="234,-582 282,-582 282,-582 282,-582 234,-582" /><polygon points="128,-582 186,-582 186,-582 186,-582 138,-582 128,-582" /><polygon points="378,-582 426,-582 426,-582 426,-582 378,-582" /><polygon points="330,-582 336,-582 378,-582 378,-582 378,-582 330,-582" /><polygon points="282,-582 330,-582 330,-582 330,-582 282,-582" /><polygon points="426,-582 474,-582 474,-582 474,-582 426,-582" /><polygon points="522,-582 570,-582 570,-582 570,-582 522,-582" /><polygon points="582,-582 684,-582 684,-582 582,-582 570,-582 570,-582" /><polygon points="-192,566 -192,566 -144,566 -144,566 -144,566 -144,566" /><polygon points="-240,566 -192,566 -144,566 -144,566 -309,566 -310,566 -310,566 -310,566" /><polygon points="582,-87 582,-144 582,-311 582,-311 582,-144 582,-87" /><polygon points="582,-311 582,-334.8 582,-345.2727 582,-345.2727 582,-334.8 582,-311" /><polygon points="684,36 582,36 582,36 684,36" /><polygon points="684,36 684,-72 598,-72 592,-63 582,-48 582,36" /><polygon points="582,-58 582,-48 592,-63" /><polygon points="684,-72 684,-82 592,-82 598,-72" /><polygon points="684,-188 684,-368 598.9091,-368 597.0909,-368 588,-348 582,-334.8 582,-311 582,-144 684,-144" /><polygon points="582,-144 582,-87 592,-82 684,-82 684,-144" /><polygon points="582,-345.2727 582,-334.8 588,-348" /><polygon points="591.6364,-384 605.6,-384 588,-392" /><polygon points="598.9091,-368 598,-370 597.0909,-368" /><polygon points="605.6,-384 591.6364,-384 598,-370 598.9091,-368 684,-368 684,-384" /><polygon points="582,-582 582,-394.7273 588,-392 605.6,-384 684,-384 684,-412 684,-582" /><polygon points="684,-188 684,-144 684,-82 684,-72 684,36 684,36 684,-72 684,-82 684,-144 684,-188" /><polygon points="684,-412 684,-384 684,-368 684,-188 684,-188 684,-368 684,-384 684,-412" /><polygon points="582,-58 592,-63 592,-63 582,-58" /><polygon points="592,-63 598,-72 598,-72 592,-63" /><polygon points="598,-72 592,-82 592,-82 598,-72" /><polygon points="598,-370 598,-370 588,-348 588,-348" /><polygon points="582,-345.2727 588,-348 588,-348 582,-345.2727" /><polygon points="592,-82 582,-87 582,-87 592,-82" /><polygon points="-320,103.2727 -320,224 -320,316.8 -320,327.2727 -320,327.2727 -320,316.8 -320,270 -320,103.2727" /><polygon points="-320,51 -320,103.2727 -320,103.2727 -320,51" /><polygon points="352,-384 336,-384 128,-384 128,-384 128,-384 326,-384 352,-384" /><polygon points="540.3636,-384 426,-384 426,-384 474,-384 540.3636,-384" /><polygon points="566,-402 551.5342,-408.5754 544,-392" /><polygon points="426,-465.6364 551.5342,-408.5754 566,-402 570,-400.1821 582,-394.7273 582,-582 570,-582 522,-582 474,-582 426,-582" /><polygon points="540.3636,-384 544,-392 551.5342,-408.5754 426,-465.6364 426,-384" /><polygon points="570,-400.1821 570,-400.1818 582,-394.7273 582,-394.7273" /><polygon points="566,-402 544,-392 544,-392 566,-402" /><polygon points="544,-392 540.3636,-384 540.3636,-384 540.3636,-384 544,-392" /><polygon points="112,-582 -6,-582 -112,-582 -112,-384 112,-384" /><polygon points="336,-582 330,-582 282,-582 234,-582 186,-582 128,-582 112,-582 112,-384 128,-384 336,-384" /><polygon points="426,-465.6364 426,-582 378,-582 336,-582 336,-384 352,-384 426,-384" /><polygon points="570,-66 570,-64 572,-63" /><polygon points="582,-48 582,-58 570,-64 570,36 582,36" /><polygon points="582,36 570,36 570,36 570,36 570,36 582,36" /><polygon points="570,-66 572,-63 572,-63 570,-66" /><polygon points="572,-63 582,-58 582,-58 572,-63" /><polygon points="-22,46 -22,46 -56,46 -84,46 -84,46" /><polygon points="-84,46 -308,46 -308,46 -304,46 -298.6,46 -84,46" /><polygon points="288,46 288,46 307.2,46 321.187,46 321.187,46" /><polygon points="545.1873,46 570,46 570,46 524,46 512,46 512,46" /><polygon points="545.1873,46 512,46 321.187,46 321.187,46 499.7887,46 545.1873,46" /><polygon points="507.4545,36 499.7889,36 316.608,36 285.2,36 283.4545,36 283.4545,36 318,36 394,36 440,36 507.4545,36" /><polygon points="-80.6,36 -84,36 -304.6,36 -304.6,36 -262,36 -180,36 -134,36 -80.6,36" /><polygon points="14,-80 11.2435,-86.0644 11.2435,-86.0644 14,-80" /><polygon points="11.2435,-86.0644 22,-111 22,-111 11.2435,-86.0644" /><polygon points="128,-150.5091 132,-152 132,-152 128,-150.5091 22,-111 22,-111" /><polygon points="566,-72 566,-72 524,-72 508.3636,-72 508.3636,-72" /><polygon points="260.8163,-90.5959 253.9367,-106.5509 253.9369,-106.5507 260.8164,-90.5961" /><polygon points="253.9367,-106.5509 249,-118 249,-118 253.9369,-106.5507" /><polygon points="570,-82 570,-82 566,-82 511.0909,-82 511.0909,-82" /><polygon points="511.0909,-82 287.0909,-82 287.0909,-82 318,-82 394,-82 440,-82 511.0909,-82" /><polygon points="132,-152 242,-111 242,-111 132,-152" /><polygon points="249,-118 249,-118 145.3547,-156.9777 145.3548,-156.9777 249,-118" /><polygon points="128,-129.4546 128,-150.5091 22,-111 11.2435,-86.0644 14,-80 17.6364,-72 128,-72" /><polygon points="256,-80 255.3726,-80 258.8235,-72 259.6364,-72" /><polygon points="128,-129.4546 128,-72 254.4,-72" /><polygon points="255.3726,-80 242,-111 132,-152 128,-150.5091 128,-129.4546 254.4,-72 258.8235,-72" /><polygon points="255.3726,-80 256,-80 256,-80 255.3721,-80" /><polygon points="242,-111 255.3726,-80 255.3721,-80 242,-111" /><polygon points="128,-35.4545 128,-72 17.6364,-72 66.7273,36 128,36" /><polygon points="285.2,36 283,35 283.4545,36" /><polygon points="272,-64 272,-61.4093 275.7889,-53.1356 283,-69" /><polygon points="261,-69 259.6364,-72 258.8235,-72 254.4,-72" /><polygon points="229.4545,36 260.5454,36 261,35 264.7671,26.7123 128,-35.4545 128,36" /><polygon points="264.7671,26.7123 261,35 272,30" /><polygon points="272,-64 270.5017,-64.681 272,-61.4093" /><polygon points="316.608,36 296,-9 277.0822,32.3101 283,35 285.2,36" /><polygon points="499.7889,-72 284.3636,-72 283,-69 275.7889,-53.1356 316.608,36 499.7889,36" /><polygon points="507.4545,36 570,36 570,-64 570,-66 566,-72 508.3636,-72 499.7889,-72 499.7889,36" /><polygon points="128,-72 128,-35.4545 264.7671,26.7123 272,30 277.0822,32.3101 296,-9 275.7889,-53.1356 270.5017,-64.681 261,-69 254.4,-72" /><polygon points="283,35 277.0822,32.3101 272,30 272,30 277.0823,32.3101 283,35" /><polygon points="283,-69 284.3636,-72 284.3636,-72 284.3636,-72 284.3636,-72 283,-69" /><polygon points="259.6364,-72 261,-69 261,-69 259.6364,-72" /><polygon points="272,-64 283,-69 283,-69 280,-67.6364 272,-64" /><polygon points="261,-69 270.5017,-64.681 272,-64 272,-64 270.5011,-64.6813 261,-69" /><polygon points="272,30 261,35 261,35 268.4878,31.5965 272,30" /><polygon points="261,35 260.5454,36 260.5454,36 261,35" /><polygon points="15,-118 15,-118 6.1045,-97.3701 6.1045,-97.3701" /><polygon points="15,-118 6.1045,-97.3701 6.1045,-97.37 15,-118" /><polygon points="-84,-82 -308,-82 -308,-82 -262,-82 -180,-82 -134,-82 -84,-82" /><polygon points="-17.0909,-82 -17.0909,-82 -18.9091,-82 -41.6,-82 -65.4295,-82 -80,-82 -84,-82 -84,-82" /><polygon points="6.1045,-97.3701 4.2824,-93.1444 4.2824,-93.1443 6.1045,-97.37" /><polygon points="4.2824,-93.1444 4.2824,-93.1443 -2,-96 -2,-96 4.2824,-93.1443" /><polygon points="17.6364,-72 14,-80 10.3636,-72" /><polygon points="-10,-57.0408 -8.0783,-61.2371 -5.9839,-65.8108 -13,-69 -19.6,-72 -60.8504,-72 -32,-9" /><polygon points="-12.7377,33.0626 -14.4348,29.3566 -17,35" /><polygon points="-84,-72 -308,-72 -308,30.3333 -304.6,36 -84,36" /><polygon points="-80.6,36 -17.4545,36 -17,35 -14.4348,29.3566 -32,-9 -60.8504,-72 -84,-72 -84,36" /><polygon points="17.6364,-72 10.3636,-72 9,-69 -10,-27.2 -10,28.1818 -6,30 5,35 7.2,36 66.7273,36" /><polygon points="7.2,36 5,35 5.4545,36" /><polygon points="-10,31.8182 -6,30 -10,28.1818" /><polygon points="-2,-64 -8.0783,-61.2371 -10,-57.0408 -10,-27.2 9,-69" /><polygon points="-2,-64 -5.9839,-65.8108 -8.0783,-61.2371" /><polygon points="-10,28.1818 -10,-27.2 -10,-57.0408 -32,-9 -14.4348,29.3566 -12.7377,33.0626 -10,31.8182" /><polygon points="-19.6,-72 -13,-69 -14.3636,-72" /><polygon points="10.3636,-72 14,-80 14,-80 10.3636,-72 9,-69 9,-69" /><polygon points="-13,-69 -5.9839,-65.8108 -2,-64 -2,-64 -5.9838,-65.8108 -13,-69" /><polygon points="-2,-64 9,-69 9,-69 2.6341,-66.1064 -2,-64" /><polygon points="-60.8504,-72 -19.6,-72 -14.3636,-72 -14.3636,-72 -56,-72 -84,-72 -84,-72" /><polygon points="-6,30 -10,31.8182 -12.7377,33.0626 -17,35 -17,35 -12.7377,33.0626 -10,31.8182 -6,30" /><polygon points="5,35 -6,30 -6,30 -4.9756,30.4657 5,35" /><polygon points="-17,35 -17.4545,36 -17.4545,36 -17.4545,36 -17.4545,36 -17,35" /><polygon points="5.4545,36 5,35 5,35 5.4545,36" /><polygon points="229.4545,36 128,36 66.7273,36 7.2,36 5.4545,36 10,46 229.4545,46" /><polygon points="229.7545,46 256,46 260.5454,36 229.4545,36 229.4545,46" /><polygon points="10,46 5.4545,36 5.4545,36 10,46" /><polygon points="260.5454,36 256,46 256,46 260.5454,36" /><polygon points="249,100 249,100 266.4693,59.4861 266.4693,59.4861" /><polygon points="249,100 266.4693,59.4861 266.4692,59.486 266.469,59.4859 249,100" /><polygon points="266.4693,59.4861 266.4693,59.4861 266.4693,59.486 272,62 272,62 266.4692,59.486" /><polygon points="242,93 229.7543,97.5643 132,134 132,134 229.7544,97.5643 242,93" /><polygon points="256,46 259.2193,53.0825 259.2193,53.0825 256,46" /><polygon points="259.2193,53.0825 242,93 242,93 259.2193,53.0825" /><polygon points="22,93 5.7546,55.3399 5.7546,55.3399 22,93" /><polygon points="132,134 229.7543,97.5643 229.7545,46 229.4545,46 10,46 5.7546,55.3399 22,93" /><polygon points="229.7543,97.5643 242,93 259.2193,53.0825 256,46 229.7545,46" /><polygon points="5.7546,55.3399 10,46 10,46 5.7546,55.3399" /><polygon points="10.063,88.5506 -2.1416,60.2462 -2.1416,60.2462 0.6168,66.6431 15,100 15,100" /><polygon points="-2.1416,60.2462 10.063,88.5506 10.0631,88.5506 0.6168,66.6431 -2.1416,60.2462" /><polygon points="10.063,88.5506 15,100 15,100 10.0631,88.5506" /><polygon points="-308,-72 -310,-72 -310,27 -308,30.3333" /><polygon points="-310,-72 -320,-72 -320,22 -310,27" /><polygon points="-320,-72 -310,-72 -308,-72 -308,-72 -308,-72 -308,-72 -320,-72" /><polygon points="-310,27 -320,22 -320,22 -310,27" /><polygon points="-308,30.3333 -310,27 -310,27 -308,30.3333" /><polygon points="-320,-72 -320,-72 -320,-72 -422,-72 -422,-72" /><polygon points="-320,327.2727 -320,316.8 -326,330" /><polygon points="-330,46 -422,0 -422,128 -422,224 -320,224 -320,103.2727 -320,51" /><polygon points="-422,224 -422,352 -374.4,352 -336,352 -326,330 -320,316.8 -320,224" /><polygon points="-330,27 -325.3846,19.3077 -359,2.5 -336,37" /><polygon points="-320,22 -325.3846,19.3077 -330,27" /><polygon points="-336,37 -359,2.5 -422,-29 -422,0 -330,46" /><polygon points="-422,-72 -422,-29 -359,2.5 -325.3846,19.3077 -320,22 -320,-72" /><polygon points="-422,0 -422,-29 -422,-72 -422,-72 -422,-29 -422,36 -422,46 -422,128 -422,128" /><polygon points="-320,22 -330,27 -330,27 -320,22" /><polygon points="-326,330 -336,352 -336,352 -326,330" /><polygon points="-320,327.2727 -326,330 -326,330 -320,327.2727" /><polygon points="-330,27 -336,37 -336,37 -335.4,36 -330,27" /><polygon points="-330,46 -320,51 -320,51 -330,46" /><polygon points="-336,37 -330,46 -330,46 -336,37" /><polygon points="128,368 128,368 128,368 -55.2727,368 -55.2727,368" /><polygon points="128,368 138.7273,368 288,368 288,368 288,368 128,368" /><polygon points="-86,434 -309.2727,434 -310,434 -310,434 -309,434 -86,434" /><polygon points="138,434 -85.2727,434 -86,434 -86,434 -85,434 138,434" /><polygon points="-85.2727,368 -279.2727,368 -282,374 -309.2727,434 -86,434 -85.2727,434" /><polygon points="138.7273,368 128,368 -55.2727,368 -85.2727,368 -85.2727,434 138,434 138.7273,434" /><polygon points="288,434 288,368 138.7273,368 138.7273,434" /><polygon points="-310,381.2727 -310,386.7273 -304,384" /><polygon points="-304,384 -310,386.7273 -310,434 -309.2727,434 -282,374" /><polygon points="-304,384 -304,384 -310,381.2727 -310,381.2727" /><polygon points="-282,374 -282,374 -304,384 -304,384" /><polygon points="-320,566 -320,376.7273 -326,374 -374.4,352 -422,352 -422,566" /><polygon points="-374.4,352 -326,374 -336,352" /><polygon points="-310,526 -310,434 -310,386.7273 -310,381.2727 -320,376.7273 -320,566 -310,566" /><polygon points="780,566 780,368 780,368 780,566" /><polygon points="780,356 780,170 780,170 780,356 780,368 780,368" /><polygon points="288,566 288,566 240,566 240,566 288,566" /><polygon points="440,566 582,566 592,566 592,566 582,566 566,566 384,566 384,566 384,566" /><polygon points="596.1818,356 598,352 599.8182,356" /><polygon points="645.2,356 588,330 582,327.2727 582,170 780,170 780,356" /><polygon points="599.8182,356 598,352 588,330 645.2,356" /><polygon points="590.7273,368 596.1818,356 599.8182,356 645.2,356 780,356 780,368" /><polygon points="582,387.2 582,376.7273 588,374" /><polygon points="592,566 582,566 582,387.2 588,374 590.7273,368 780,368 780,566" /><polygon points="588,330 588,330 582,327.2727 582,327.2727" /><polygon points="570,170 570,321.8182 570,321.8182 570,321.8182 570,318.1818 570,270 570,170" /><polygon points="582,170 570,170 570,170 570,170 582,170" /><polygon points="582,170 582,327.2727 570,321.8182 570,170" /><polygon points="570,321.8182 570,321.8182 566,320 566,320 566,320 570,321.8182" /><polygon points="440,356 535.8182,356 541.2727,368 530.8,368 440,368 384,368 384,356" /><polygon points="530.8,368 541.2727,368 544,374" /><polygon points="440,368 530.8,368 544,374 566,384 440,441.2727" /><polygon points="582,387.2 582,566 440,566 440,441.2727 566,384 582,376.7273" /><polygon points="384,368 440,368 440,441.2727 440,566 384,566" /><polygon points="582,376.7273 566,384 566,384 582,376.7273" /><polygon points="-310,434 -310,434 -310,526 -310,526 -310,434" /><polygon points="-16,368 -85,368 -240,368 -240,368 -138,368 -92,368 -16,368" /><polygon points="208,368 139,368 -16,368 -16,368 104,368 150,368 208,368" /><polygon points="374,368 374,368 374,400 374,534 374,566 374,566" /><polygon points="288,434 288,368 374,368 374,566 288,566" /><polygon points="-85,434 -86,434 -309,434 -309,433.4 -282,374 -279.2727,368 -240,368 -85,368" /><polygon points="139,434 138,434 -85,434 -85,368 -16,368 139,368" /><polygon points="208,368 288,368 288,434 139,434 139,368" /><polygon points="-309,381.7273 -304,384 -309,386.2727" /><polygon points="-309,386.2727 -304,384 -282,374 -309,433.4" /><polygon points="-310,434 -310,381.2727 -309,381.7273 -309,386.2727 -309,433.4 -309,434" /><polygon points="139,434 288,434 288,434 138.7273,434 138,434 138,434" /><polygon points="384,352 384,352 240,352 176,352 176,352" /><polygon points="-48.9091,-368 -271.0909,-368 -272.9091,-368 -272.9091,-368 -271.0909,-368 -48.9091,-368" /><polygon points="175.0909,-368 -48.9091,-368 -48.9091,-368 175.0909,-368" /><polygon points="399.0909,-368 175.0909,-368 175.0909,-368 399.0909,-368" /><polygon points="-272.9091,-368 -271.0909,-368 -272,-370" /><polygon points="534.9091,-372 533.0909,-372 534,-370" /><polygon points="-48.9091,-372 -122,-372 -272.9091,-372 -272,-370 -271.0909,-368 -48.9091,-368" /><polygon points="175.0909,-372 102,-372 -48.9091,-372 -48.9091,-368 175.0909,-368" /><polygon points="399.0909,-372 326,-372 175.0909,-372 175.0909,-368 399.0909,-368" /><polygon points="534.9091,-368 533.0909,-372 426,-372 399.0909,-372 399.0909,-368" /><polygon points="399.0909,-372 426,-372 426,-372 326,-372 326,-372" /><polygon points="534.9091,-372 534,-370 534,-370 534.9091,-372" /><polygon points="534,-370 534.9091,-368 534.9091,-368 534.9091,-368 534,-370" /><polygon points="-272,-370 -272.9091,-372 -272.9091,-372 -272,-370" /><polygon points="570,-306 570,-114 570,-82 570,-82 570,-82 570,-82 570,-82 570,-82 570,-114 570,-306" /><polygon points="570,-339.8182 570,-336.1818 570,-306 570,-306 570,-336.1818 570,-339.8182" /><polygon points="-308,321.8182 -308,318.1818 -308,270 -308,97.8182 -308,97.8182 -308,270 -308,318.1818 -308,321.8182" /><polygon points="-308,97.8182 -308,46 -308,46 -308,46 -308,46 -308,46 -308,46 -308,97.8182" /><polygon points="-308,-336.1818 -308,-339.8182 -308,-339.8182 -308,-306 -308,-306" /><polygon points="-304,-338 -304,-338 -304,-338 -282.2,-347.9091 -282,-348 -282,-348 -304,-338" /><polygon points="-304,-338 -308,-339.8182 -308,-336.1818" /><polygon points="534.9091,-368 534.9091,-368 534.9091,-368 544,-348 544,-348 534.9091,-368" /><polygon points="570,-336.1818 570,-339.8182 566,-338" /><polygon points="-80,46 -22,46 -22,46 -84,46 -84,46" /><polygon points="566,46 570,46 570,46 545.1873,46 545.1873,46" /><polygon points="-14.4348,29.3565 -12.7376,33.0625 -17,35" /><polygon points="-5.9838,-65.8108 -2,-64 -8.0783,-61.2371" /><polygon points="-25.1108,6.0438 -32,-9 -8.0783,-61.2371 -2,-64 9,-69" /><polygon points="-6,30 -12.7376,33.0625 -14.4348,29.3565 -16.28,25.3273" /><polygon points="10,46 5,35 29.2,46" /><polygon points="17.6364,-72 128,-72 128,-35.4546 128,46 29.2,46 5,35 -6,30 -16.28,25.3273 -25.1108,6.0438 9,-69 10.3636,-72" /><polygon points="-304,-114 -304,-187 -304,-338 -308,-336.1818 -308,-306 -308,-114" /><polygon points="-308,-82 -304,-82 -304,-114 -308,-114" /><polygon points="-18.9091,-82 -17.0909,-82 -18,-80" /><polygon points="-65.4295,-82 -41.6,-82 -13,-69 -5.9838,-65.8108 -8.0783,-61.2371 -32,-9" /><polygon points="10.3636,-72 14,-80 17.6364,-72" /><polygon points="28.8,-82 128,-82 128,-72 17.6364,-72 14,-80 13.0909,-82" /><polygon points="-304,-82 -84,-82 -80,-82 -80,46 -84,46 -298.6,46 -304,37" /><polygon points="-80,-82 -65.4295,-82 -32,-9 -25.1108,6.0438 -16.28,25.3273 -14.4348,29.3565 -17,35 -22,46 -80,46" /><polygon points="-41.6,-82 -18.9091,-82 -18,-80 -13,-69" /><polygon points="9,-91 28.8,-82 13.0909,-82" /><polygon points="128,-129.4546 128,-82 28.8,-82 9,-91 4.2824,-93.1443 6.1045,-97.3701 15,-118 128,-160.4957" /><polygon points="283,35 277.0826,32.3103 296,-9 321.187,46 307.2,46" /><polygon points="272,-64 283,-69 275.7887,-53.1351 271.0176,-63.5535" /><polygon points="272,30 261,35 264.7671,26.7123" /><polygon points="128,-35.4546 264.7671,26.7123 261,35 256,46 236.8,46 224.6168,46 128,46" /><polygon points="271.0176,-63.5535 270.5011,-64.6813 272,-64" /><polygon points="283,35 307.2,46 288,46" /><polygon points="499.7887,46 321.187,46 296,-9 275.7887,-53.1351 283,-69 284.3636,-72 291.6364,-72 499.7887,-72" /><polygon points="511.0909,-72 566,-72 566,46 545.1873,46 499.7887,46 499.7887,-72" /><polygon points="284.3636,-72 288,-80 291.6364,-72" /><polygon points="128,-129.4546 128,-160.4957 129.1544,-160.9298 242.6667,-109.3333 256,-80 261,-69" /><polygon points="242.6667,-109.3333 255.1919,-103.64 260.8164,-90.596 256,-80" /><polygon points="128,-72 128,-82 128,-129.4546 261,-69 270.5011,-64.6813 271.0176,-63.5535 275.7887,-53.1351 296,-9 277.0826,32.3103 272,30 264.7671,26.7123 128,-35.4546" /><polygon points="242.6667,-109.3333 129.1544,-160.9298 132,-162 145.3547,-156.9777 249,-118 255.1919,-103.64" /><polygon points="511.0909,-72 499.7887,-72 291.6364,-72 288,-80 287.0909,-82 511.0909,-82" /><polygon points="566,-82 566,-72 511.0909,-72 511.0909,-82" /><polygon points="570,-114 570,-306 570,-336.1818 566,-338 566,-178 566,-114" /><polygon points="566,-82 570,-82 570,-114 566,-114" /><polygon points="-304,-187 -304,-114 -304,-82 -304,37 -304,37 -304,-114 -304,-187" /><polygon points="566,-338 566,-338 566,-178 566,-178" /><polygon points="260.8164,-90.596 260.8163,-90.5959 256,-80 256,-80" /><polygon points="287.0909,-82 288,-80 288,-80 287.0909,-82" /><polygon points="256,-80 256,-80 261,-69 261,-69" /><polygon points="272,30 272,30 261,35 261,35" /><polygon points="5,35 5,35 -6,30 -6,30" /><polygon points="-18,-80 -18,-80 -15.1918,-73.8219 -13,-69 -13,-69" /><polygon points="-2,-64 -2,-64 9,-69 9,-69" /><polygon points="145.3547,-156.9777 132,-162 132,-162 145.3548,-156.9777" /><polygon points="255.1919,-103.64 249,-118 249,-118 253.9367,-106.5509 260.8163,-90.5959 260.8164,-90.596" /><polygon points="511.0909,-82 287.0909,-82 287.0909,-82 511.0909,-82" /><polygon points="272,-96 272,-96 283,-91 283,-91" /><polygon points="261,-91 261,-91 272,-96 272,-96" /><polygon points="283,-91 283,-91 287.0909,-82 287.0909,-82 287.0909,-82 287.0909,-82 287.0909,-82 287.0909,-82" /><polygon points="260.8164,-90.596 260.8163,-90.5959 260.8164,-90.5961 261,-91 261,-91" /><polygon points="-84,-82 -304,-82 -308,-82 -308,-82 -84,-82" /><polygon points="-13,-91 -13,-91 -2,-96 -2,-96" /><polygon points="6.1045,-97.3701 4.2824,-93.1443 4.2824,-93.1444 6.1045,-97.3701" /><polygon points="-17.0909,-82 -17.0909,-82 -17.0909,-82 -17.0909,-82 -17.0909,-82 -17.0909,-82 -13,-91 -13,-91" /><polygon points="-298.6,46 -304,46 -304,37" /><polygon points="-304,37 -304,46 -304,46 -304,37" /><polygon points="-304,96 -304,270 -304,320 -304,320 -304,270 -304,96" /><polygon points="-304,46 -304,96 -304,96 -304,46" /><polygon points="566,46 566,170 570,170 570,46" /><polygon points="566,170 566,170 570,170 570,170" /><polygon points="132,144 132,144 128,142.4957 15,100 15,100 15,100" /><polygon points="132,144 224.6168,109.1698 249,100 249,100 249,100 237.0398,104.4978 132,144" /><polygon points="-2.1416,60.2462 5,57 0.6168,66.6431" /><polygon points="261,57 236.8,46 256,46" /><polygon points="224.6168,109.1698 132,144 15,100 0.6168,66.6431 5,57 10,46 29.2,46 128,46 224.6168,46" /><polygon points="236.8,46 261,57 266.4693,59.4861 249,100 224.6168,109.1698 224.6168,46" /><polygon points="266.4693,59.4861 261,57 261,57 266.4693,59.486" /><polygon points="-2.1416,60.2462 -6,62 -6,62 -3.8,61 5,57 5,57" /><polygon points="5,57 5,57 10,46 10,46" /><polygon points="-6,62 -6,62 -17,57 -17,57 -17,57" /><polygon points="-6,62 -2.1416,60.2462 -2.1416,60.2462 -2.1416,60.2462 -6,62" /><polygon points="-304,270 -304,96 -304,46 -308,46 -308,97.8182 -308,270" /><polygon points="-304,320 -304,270 -308,270 -308,318.1818" /><polygon points="-272,352 -272,352 -272,352 -272,352 -272,352 -282,330 -282,330 -272,352" /><polygon points="-308,321.8182 -304,320 -308,318.1818" /><polygon points="-49.8182,352 -272,352 -273.8182,356 -49.8182,356" /><polygon points="174.1818,352 -48,352 -49.8182,352 -49.8182,356 128,356 174.1818,356" /><polygon points="352,356 384,356 384,352 176,352 174.1818,352 174.1818,356" /><polygon points="352,356 174.1818,356 128,356 128,356 352,356" /><polygon points="-49.8182,356 -273.8182,356 -273.8182,356 -49.8182,356" /><polygon points="-273.8182,356 -272,352 -272,352 -272,352 -273.8182,356" /><polygon points="-310,420 -310,420 -310,381.2727 -310,381.2727" /><polygon points="-310,434 -310,420 -310,381.2727 -310,381.2727 -310,434" /><polygon points="-309,420 -310,420 -310,434 -310,526 -309,526" /><polygon points="48,566 48,566 96,566 96,566 96,566" /><polygon points="144,566 144,566 192,566 192,566 192,566" /><polygon points="96,566 144,566 192,566 192,566 139,566 48,566 48,566" /><polygon points="374,566 374,566 288,566 288,566 374,566" /><polygon points="-48,352 -92,352 -138,352 -240,352 -272,352 -272,352 -49.8182,352 -48,352" /><polygon points="176,352 150,352 104,352 -48,352 -48,352 174.1818,352 176,352" /><polygon points="150,352 150,352 128,352 104,352 104,352" /><polygon points="-272,352 -240,352 -240,352 -272,352" /><polygon points="384,368 384,368 384,356 384,356 384,356 384,368" /><polygon points="384,566 384,534 384,400 384,368 384,368 384,566" /><polygon points="240,368 374,368 374,368 288,368 208,368 208,368" /><polygon points="-92,368 -92,368 -92,352 -92,352" /><polygon points="240,352 240,352 240,368 240,368" /><polygon points="150,368 150,368 150,352 150,352" /><polygon points="150,352 176,352 240,352 240,368 208,368 150,368" /><polygon points="-92,352 -48,352 104,352 104,368 -16,368 -92,368" /><polygon points="-138,352 -138,368 -240,368 -240,352" /><polygon points="374,566 374,534 374,534 374,534 374,566" /><polygon points="374,534 384,534 384,534 374,534" /><polygon points="384,400 374,400 374,400 384,400" /><polygon points="384,400 384,534 374,534 374,400" /><polygon points="352,352 240,352 240,352 384,352 384,352" /><polygon points="384,352 384,352 352,352 352,352" /><polygon points="-272,352 -240,352 -138,352 -92,352 -48,352 -48,352 -49.8182,352 -272,352" /><polygon points="-48,352 104,352 128,352 128,352 128,352 -48,352" /><polygon points="-138,352 -138,352 -92,352 -92,352" /><polygon points="384,400 384,400 384,368 384,368 384,400" /><polygon points="384,400 384,534 384,534 384,400" /><polygon points="-279.2727,368 -240,368 -240,368 -240,368 -279.2727,368" /><polygon points="-92,368 -92,368 -138,368 -138,368" /><polygon points="150,368 150,368 104,368 104,368" /><polygon points="-55.2727,368 -92,368 -138,368 -240,368 -279.2727,368 -279.2727,368 -85,368 -55.2727,368" /><polygon points="168.7273,368 150,368 104,368 -55.2727,368 -55.2727,368 139,368 168.7273,368" /><polygon points="374,368 374,368 240,368 240,368" /><polygon points="104,368 104,368 104,352 104,352" /><polygon points="240,352 150,352 150,368 168.7273,368 240,368" /><polygon points="104,352 -48,352 -92,352 -92,368 -55.2727,368 104,368" /><polygon points="-138,368 -138,368 -138,352 -138,352" /><polygon points="-240,352 -240,352 -240,368 -240,368" /><polygon points="-138,368 -138,352 -240,352 -240,368" /><polygon points="374,400 374,368 374,368 374,534 374,534" /><polygon points="374,400 374,400 374,368 374,368" /><polygon points="384,534 384,400 374,400 374,534" /><polygon points="-310,566 -310,526 -310,526 -310,526 -310,566" /><polygon points="-310,420 -310,420 -309,420 -309,420" /><polygon points="-309,420 -309,420 -309,526 -309,526" /><polygon points="-309,526 -309,526 -310,526 -310,526" /><polygon points="-310,420 -309,420 -309,526 -310,526" /><polygon points="592,566 592,566 780,566 780,566" /><polygon points="780,170 780,170 582,170 582,170" /><polygon points="645.2001,356 588,330 598,352 599.8182,356" /><polygon points="599.8182,356 598,352 596.1818,356" /><polygon points="582,170 582,327.2727 588,330 645.2001,356 780,356 780,170" /><polygon points="590.7273,368 588,374 582,387.2 582,566 592,566 780,566 780,368" /><polygon points="582,376.7273 582,387.2 588,374" /><polygon points="780,368 780,356 645.2001,356 599.8182,356 596.1818,356 590.7273,368" /><polygon points="588,374 588,374 582,376.7273 582,376.7273" /><polygon points="590.7273,368 596.1818,356 598,352 598,352 596.1818,356 590.7273,368 588,374 588,374" /><polygon points="588,330 588,330 598,352 598,352" /><polygon points="384,352 495.6,352 534,352 534,352 398.1818,352 352,352 352,352" /><polygon points="352,352 128,352 128,352 150,352 240,352 352,352" /><polygon points="570,318.1818 570,321.8182 582,327.2727 582,170 570,170" /><polygon points="582,327.2727 570,321.8182 570,321.8182 582,327.2727" /><polygon points="566,320 566,320 566,320 544,330 544,330 566,320" /><polygon points="566,-178 566,46 566,46 566,-72 566,-82 566,-114 566,-178" /><polygon points="566,-338 566,-338 566,-178 566,-178" /><polygon points="566,46 566,96 566,170 566,170 566,46" /><polygon points="566,170 566,320 570,318.1818 570,170" /><polygon points="566,320 570,321.8182 570,318.1818" /><polygon points="566,566 566,384 544,374 495.6,352 384,352 384,356 384,368 384,400 384,534 384,566" /><polygon points="535.818,356 534,352 495.6,352 544,374" /><polygon points="566,384 566,566 582,566 582,387.2 582,376.7273" /><polygon points="-85,368 -279.2727,368 -282,374 -309,433.4 -309,566 -144,566 -85,566" /><polygon points="139,368 -55.2727,368 -85,368 -85,566 -48,566 0,566 48,566 139,566" /><polygon points="192,566 240,566 288,566 374,566 374,534 374,368 168.7273,368 139,368 139,566" /><polygon points="-309,433.4 -282,374 -304,384 -309,386.2727" /><polygon points="-304,384 -309,381.7273 -309,386.2727" /><polygon points="-309,433.4 -309,386.2727 -309,381.7273 -310,381.2727 -310,566 -309,566" /><polygon points="384,356 384,352 384,352 384,352 384,352 384,356" /><polygon points="384,566 384,534 384,534 384,534 384,566" /><polygon points="544,374 544,374 541.2727,368 535.8182,356 535.818,356" /><polygon points="566,384 566,384 544,374 544,374" /><polygon points="-310,381.2727 -310,381.2727 -310,420 -310,526 -310,566 -310,566" /><polygon points="374,368 374,368 240,368 168.7273,368 168.7273,368" /><polygon points="-304,384 -304,384 -310,381.2727 -310,381.2727 -310,381.2727 -310,381.2727" /><polygon points="-282,374 -279.2727,368 -279.2727,368 -279.2727,368 -282,374" /><polygon points="-304,384 -282,374 -282,374 -304,384" /><polygon points="352,352 174.1818,352 128,352 128,352 352,352" /><polygon points="534.9091,-368 534.9091,-368 399.0909,-368 399.0909,-368" /><polygon points="-271.0909,-368 -272.9091,-368 -272,-370" /><polygon points="534,-370 533.0909,-372 534.9091,-372" /><polygon points="-48.9091,-368 -271.0909,-368 -272,-370 -272.9091,-372 -48.9091,-372" /><polygon points="175.0909,-368 -48.9091,-368 -48.9091,-372 175.0909,-372" /><polygon points="399.0909,-368 175.0909,-368 175.0909,-372 399.0909,-372" /><polygon points="533.0909,-372 534.9091,-368 399.0909,-368 399.0909,-372" /><polygon points="-48.9091,-372 -272.9091,-372 -272.9091,-372 -48.9091,-372" /><polygon points="175.0909,-372 -48.9091,-372 -48.9091,-372 175.0909,-372" /><polygon points="399.0909,-372 175.0909,-372 175.0909,-372 399.0909,-372" /><polygon points="534.9091,-368 534,-370 534,-370 534.9091,-368" /><polygon points="-272,-370 -272,-370 -272.9091,-372 -272.9091,-372" /><polygon points="570,-336.1818 570,-339.8182 570,-339.8182 570,-126.1818 570,-126.1818" /><polygon points="-308,97.8182 -308,270 -308,318.1818 -308,321.8182 -308,321.8182 -308,152 -308,97.8182" /><polygon points="-308,-126.1818 -308,-114 -308,30.3334 -308,46 -308,97.8182 -308,97.8182 -308,-72 -308,-126.1818" /><polygon points="-308,-339.8182 -304,-338 -308,-336.1819" /><polygon points="566,-338 566,-338 570,-339.8182 570,-339.8182" /><polygon points="566,-338 570,-339.8182 570,-336.1818" /><polygon points="-304,-338 -304,-338 -304,-187 -304,-187" /><polygon points="566,-178 566,-114 566,46 566,46 566,-178" /><polygon points="566,-178 566,-338 570,-336.1818 570,-126.1818 570,-114 566,-114" /><polygon points="570,-114 570,46 566,46 566,-114" /><polygon points="-304,-338 -304,-187 -304,-114 -308,-114 -308,-126.1818 -308,-336.1819" /><polygon points="-304,-114 -304,37 -308,30.3334 -308,-114" /><polygon points="-304,37 -304,46 -308,46 -308,30.3334" /><polygon points="566,96 566,270 566,320 566,320 566,170 566,96" /><polygon points="566,46 566,96 566,96 566,46" /><polygon points="570,46 570,97.8182 570,270 566,270 566,96 566,46" /><polygon points="570,270 570,318.1818 566,320 566,270" /><polygon points="-304,46 -304,96 -304,270 -308,270 -308,97.8182 -308,46" /><polygon points="-304,270 -304,320 -308,318.1818 -308,270" /><polygon points="570,318.1818 570,321.8182 566,320" /><polygon points="-304,320 -308,321.8182 -308,318.1818" /><polygon points="-304,320 -304,320 -308,321.8182 -308,321.8182" /><polygon points="-49.8182,356 -273.8182,356 -272,352 -49.8182,352" /><polygon points="174.1818,356 -49.8182,356 -49.8182,352 -48,352 128,352 174.1818,352" /><polygon points="398.1818,356 174.1818,356 174.1818,352 352,352 398.1818,352" /><polygon points="534,352 535.8182,356 398.1818,356 398.1818,352" /><polygon points="535.8182,356 535.8182,356 398.1818,356 398.1818,356" /><polygon points="534,352 534,352 535.8182,356 535.8182,356" /><polygon points="-233.6,352 -282,330 -272,352" /><polygon points="-304,-72 -308,-72 -308,97.8182 -308,152 -304,152" /><polygon points="-308,152 -308,321.8182 -304,320 -304,152" /><polygon points="-134,-66.4 -134,-72 -180,-72 -304,-72 -304,152 -134,152" /><polygon points="-304,152 -304,320 -282,330 -233.6,352 -134,352 -134,157.6 -134,152" /><polygon points="1.9863,63.6301 5,57 -3.8,61" /><polygon points="-30.863,18.6986 -35.3333,16.6667 -32.6364,22.6 -22,46 -17,35 -13.2329,26.7123" /><polygon points="9,-69 -2,-64 -107.4,-16.0909 -35.3333,16.6667 -30.863,18.6986" /><polygon points="-134,-66.4 -116.452,-27.7945 -19.4001,-71.9091 -19.2,-72 -134,-72" /><polygon points="-63.0915,89.6001 -112.1046,-18.2291 -116.452,-27.7945 -134,-66.4 -134,152 -134,157.6 -32.1818,157.6" /><polygon points="-134,157.6 -134,352 -49.8182,352 56.1818,352 25.7265,285 -32.1818,157.6" /><polygon points="-17,57 -42.9178,45.2192 -62.1458,87.5208 -6,62" /><polygon points="128,46 128,1.4545 128,-72 17.6364,-72 10.3636,-72 9,-69 -30.863,18.6986 -13.2329,26.7123 -6,30 5,35 29.2,46" /><polygon points="-6,30 -13.2329,26.7123 -17,35" /><polygon points="-22,46 -32.6364,22.6 -42.9178,45.2192 -17,57" /><polygon points="29.2,46 5,35 10,46" /><polygon points="-62.1458,87.5208 -42.9178,45.2192 -32.6364,22.6 -35.3333,16.6667 -107.4,-16.0909 -112.1046,-18.2291 -63.0915,89.6001" /><polygon points="-116.452,-27.7945 -112.1046,-18.2291 -107.4,-16.0909 -2,-64 -13,-69 -19.4001,-71.9091" /><polygon points="-308,-290.8 -282.0685,-347.8493 -282.2,-347.9091 -304,-338 -308,-336.1818" /><polygon points="-308,-339.8182 -308,-336.1818 -304,-338" /><polygon points="-282.2,-347.9091 -282.0685,-347.8493 -282,-348" /><polygon points="-180,-176.9091 -180,-368 -271.0909,-368 -272.9091,-368 -282,-348 -282.0685,-347.8493 -308,-290.8 -308,-144 -180,-144" /><polygon points="-308,-144 -308,-126.1818 -308,-72 -304,-72 -180,-72 -180,-82 -180,-144" /><polygon points="-271.0909,-368 -272,-370 -272.9091,-368" /><polygon points="-15.1918,-73.8219 -19.2,-72 -19.4001,-71.9091 -13,-69" /><polygon points="17.6364,-72 14,-80 10.3636,-72" /><polygon points="-18,-80 -17.0909,-82 -18.9091,-82" /><polygon points="-180,-82 -180,-72 -134,-72 -19.2,-72 -15.1918,-73.8219 -18,-80 -18.9091,-82" /><polygon points="15.8,-87.9091 9,-91 11.3288,-85.8767" /><polygon points="-2,-96 -9.2329,-99.2877 -13,-91" /><polygon points="-180,-144 -180,-82 -18.9091,-82 -17.0909,-82 -13,-91 -9.2329,-99.2877 -107.6,-144 -180,-176.9091" /><polygon points="128,-129.4546 128,-138.9091 44,-100.7273 15.8,-87.9091 11.3288,-85.8767 14,-80 17.6364,-72 128,-72" /><polygon points="355.3958,194.2708 348.4545,179 343.8904,189.0411" /><polygon points="160.9091,135.8678 184.9178,146.7808 210.8122,89.8126 230.7273,46 128,46 29.2,46 10,46 5,57 1.9863,63.6301" /><polygon points="283,57 232.3836,168.3562 332.5891,213.9041 343.8904,189.0411 348.4545,179 288,46" /><polygon points="184.9178,146.7808 232.3836,168.3562 283,57 272,62 210.8122,89.8126" /><polygon points="440,232.7273 355.3958,194.2708 343.8904,189.0411 332.5891,213.9041 384.9091,237.6859 440,262.7273" /><polygon points="307.2,46 288,46 348.4545,179 355.3958,194.2708 440,232.7273 440,152 440,46" /><polygon points="230.7273,46 231.7669,43.7125 243.364,18.1989 243.8217,17.192 283,-69 272,-64 128,1.4545 128,46" /><polygon points="272,30 264.7671,26.7123 261,35" /><polygon points="256,46 243.364,18.1989 231.7669,43.7125 261,57" /><polygon points="266.4693,59.486 261,57 231.7669,43.7125 230.7273,46 210.8122,89.8126 272,62" /><polygon points="261,35 264.7671,26.7123 243.8217,17.192 243.364,18.1989 256,46" /><polygon points="307.2,46 283,35 288,46" /><polygon points="440,-72 291.6364,-72 284.3636,-72 283,-69 243.8217,17.192 264.7671,26.7123 272,30 283,35 307.2,46 440,46" /><polygon points="-49.8182,352 -134,352 -233.6,352 -272,352 -273.8182,356 -49.8182,356" /><polygon points="174.1818,352 160.9091,352 56.1818,352 -49.8182,352 -49.8182,356 174.1818,356" /><polygon points="398.1818,352 384.9091,352 174.1818,352 174.1818,356 398.1818,356" /><polygon points="535.8182,356 534,352 398.1818,352 398.1818,356" /><polygon points="566,320 551.5342,313.4247 544,330" /><polygon points="160.9091,135.8678 1.9863,63.6301 -3.8,61 -6,62 -62.1458,87.5208 -63.0915,89.6001 -32.1818,157.6 25.7265,285 160.9091,285" /><polygon points="25.7265,285 56.1818,352 160.9091,352 160.9091,285" /><polygon points="384.9091,237.6859 332.5891,213.9041 232.3836,168.3562 184.9178,146.7808 160.9091,135.8678 160.9091,285 160.9091,352 174.1818,352 384.9091,352" /><polygon points="398.1818,352 534,352 544,330 551.5342,313.4247 440,262.7273 384.9091,237.6859 384.9091,352" /><polygon points="570,97.8182 570,-72 511.0909,-72 440,-72 440,46 440,152 570,152" /><polygon points="440,152 440,232.7273 440,262.7273 551.5342,313.4247 566,320 570,321.8182 570,152" /><polygon points="291.6364,-72 288,-80 284.3636,-72" /><polygon points="302.8,-82 283,-91 287.0909,-82" /><polygon points="272,-96 264.7671,-99.2877 261,-91" /><polygon points="256,-80 242.6667,-109.3333 152.8,-150.1818 139.2,-144 128,-138.9091 128,-129.4546 261,-69" /><polygon points="260.8163,-90.5959 261,-91 264.7671,-99.2877 242.6667,-109.3333 256,-80" /><polygon points="261,-69 128,-129.4546 128,-72 128,1.4545 272,-64" /><polygon points="44,-368 -48.9091,-368 -180,-368 -180,-176.9091 -107.6,-144 44,-144" /><polygon points="-107.6,-144 -9.2329,-99.2877 -2,-96 9,-91 15.8,-87.9091 44,-100.7273 44,-144" /><polygon points="268,-368 175.0909,-368 44,-368 44,-144 139.2,-144 152.8,-150.1818 268,-202.5455" /><polygon points="44,-144 44,-100.7273 128,-138.9091 139.2,-144" /><polygon points="492,-368 399.0909,-368 268,-368 268,-202.5455 376.8,-252 492,-304.3636" /><polygon points="566,-338 544,-348 500,-368 492,-368 492,-304.3636" /><polygon points="511.0909,-82 376.8,-82 302.8,-82 287.0909,-82 288,-80 291.6364,-72 440,-72 511.0909,-72" /><polygon points="570,-72 570,-82 511.0909,-82 511.0909,-72" /><polygon points="376.8,-115.8182 376.8,-252 268,-202.5455 152.8,-150.1818 242.6667,-109.3333 264.7671,-99.2877 272,-96 283,-91 302.8,-82 376.8,-82" /><polygon points="570,-115.8182 570,-126.1818 570,-339.8182 566,-338 492,-304.3636 376.8,-252 376.8,-115.8182" /><polygon points="511.0909,-82 570,-82 570,-115.8182 376.8,-115.8182 376.8,-82" /><polygon points="533.0909,-372 491.2,-372 500,-368 544,-348" /><polygon points="-48.9091,-372 -272.9091,-372 -272,-370 -271.0909,-368 -180,-368 -48.9091,-368" /><polygon points="175.0909,-372 -48.9091,-372 -48.9091,-368 44,-368 175.0909,-368" /><polygon points="399.0909,-372 175.0909,-372 175.0909,-368 268,-368 399.0909,-368" /><polygon points="492,-368 500,-368 491.2,-372 399.0909,-372 399.0909,-368" /><polygon points="533.0909,-372 534,-370 534.9091,-372" /><polygon points="491.2,-372 533.0909,-372 534.9091,-372 534.9091,-372 533.0909,-372 399.0909,-372 399.0909,-372" /><polygon points="-272,-370 -272,-370 -272.9091,-368 -272.9091,-368" /><polygon points="534,-370 534,-370 534.9091,-372 534.9091,-372" /><polygon points="570,97.8182 570,152 570,321.8182 570,321.8182 570,318.1818 570,270 570,97.8182" /><polygon points="570,-126.1818 570,-115.8182 570,-82 570,-72 570,97.8182 570,97.8182 570,46 570,-114 570,-126.1818" /><polygon points="-308,-144 -308,-290.8 -308,-336.1818 -308,-339.8182 -308,-339.8182 -308,-336.1819 -308,-126.1818 -308,-126.1818" /><polygon points="-304,-338 -304,-338 -308,-339.8182 -308,-339.8182" /><polygon points="-282,-348 -272.9091,-368 -272.9091,-368 -272.9091,-368 -272.9091,-368 -282,-348" /><polygon points="-282,330 -304,320 -304,320 -304,320 -304,320 -282,330" /><polygon points="544,-348 566,-338 566,-338 566,-338 566,-338 566,-338 544,-348" /><polygon points="283,35 283,35 288,46 288,46" /><polygon points="272,-96 261,-91 261,-91 272,-96" /><polygon points="283,-91 272,-96 272,-96 283,-91" /><polygon points="261,-91 260.8163,-90.5959 260.8164,-90.596 261,-91" /><polygon points="287.0909,-82 283,-91 283,-91 287.0909,-82" /><polygon points="288,-80 288,-80 284.3636,-72 283,-69 283,-69" /><polygon points="272,-64 272,-64 270.5011,-64.6813 261,-69 261,-69" /><polygon points="283,-69 283,-69 272,-64 272,-64" /><polygon points="-2,-96 -13,-91 -13,-91 -2,-96" /><polygon points="256,46 256,46 261,35 261,35" /><polygon points="272,30 272,30 277.0826,32.3103 283,35 283,35" /><polygon points="-18,-80 -18,-80 -17.0909,-82 -17.0909,-82" /><polygon points="-13,-91 -17.0909,-82 -17.0909,-82 -13,-91" /><polygon points="-2,-96 -2,-96 4.2824,-93.1443 9,-91 9,-91" /><polygon points="-2,-64 -2,-64 -5.9838,-65.8108 -13,-69 -13,-69" /><polygon points="11.3288,-85.8767 9,-91 9,-91 13.0909,-82 14,-80 14,-80" /><polygon points="10.3636,-72 14,-80 14,-80 10.3636,-72 9,-69 9,-69" /><polygon points="-17,35 -17,35 -12.7376,33.0625 -6,30 -6,30" /><polygon points="5,35 5,35 10,46 10,46" /><polygon points="-22,46 -22,46 -17,35 -17,35" /><polygon points="283,57 288,46 288,46 288,46 288,46 288,46 283,57" /><polygon points="272,62 283,57 283,57 272,62" /><polygon points="-17,57 -6,62 -6,62 -17,57" /><polygon points="261,57 261,57 256,46 256,46" /><polygon points="544,330 534,352 534,352 534,352 534,352 544,330" /><polygon points="566,320 566,320 570,321.8182 570,321.8182" /><polygon points="-49.8182,356 -273.8182,356 -273.8182,356 -49.8182,356" /><polygon points="174.1818,356 -49.8182,356 -49.8182,356 174.1818,356" /><polygon points="398.1818,356 174.1818,356 174.1818,356 398.1818,356" /><polygon points="-272,352 -272,352 -273.8182,356 -273.8182,356" /></g></defs><rect fill="#fff" height="1376.0" id="background" width="1526.0" x="-632.0" y="-696.0" /><use fill="none" stroke="black" stroke-miterlimit="0" stroke-width="15" xlink:href="#bsp_ref" /><use fill="white" stroke="black" stroke-width="1" xlink:href="#bsp_ref" /></svg>