<svg viewBox="-1616 -1359 2640 1999" xmlns="http://www.w3.org/2000/svg" xmlns:xlink="http://www.w3.org/1999/xlink"><defs><g id="a"><path d="m-352 481h96-96-64z"/><path d="m-640 321h64 128v128h-192z"/><path d="m-448 321h96v32 128h-64l-32-32z"/><path d="m-512 193h160v32 96h-96-128z"/><path d="m-192 353-64 128h-96v-128z"/><path d="m-128 353h-64-160v-32-96h32 192z"/><path d="m-352 193 32 32h-32z"/><path d="m-448 481v80z"/><path d="m-416 561v-80z"/><path d="m-448 561h32z"/><path d="m-448 481h32v80h-32z"/><path d="m-64-655h64z"/><path d="m-160-655h64z"/><path d="m-256-879v128 96z"/><path d="m0-975h-64z"/><path d="m-192-975h-64z"/><path d="m-96-975h-64z"/><path d="m-160-879v128 96z"/><path d="m-64-879v128 96z"/><path d="m-64-879v-96h64v96 128h-64z"/><path d="m0-751v96h-64v-96z"/><path d="m0-975v96z"/><path d="m-160-879v-96h64v96 128h-64z"/><path d="m-96-751v96h-64v-96z"/><path d="m-96-975v96z"/><path d="m-256-879v-96h64v96 128h-64z"/><path d="m-192-751v96h-64v-96z"/><path d="m-192-975v96z"/><path d="m-896-943h-128z"/><path d="m-896-1295v128z"/><path d="m-1024-1167v96 128z"/><path d="m-896-1295v128 96h-128v-96-128z"/><path d="m-896-1071v128h-128v-128z"/><path d="m-896-943h-16-96-16z"/><path d="m-896-1295h-128z"/><path d="m-896-1295v128z"/><path d="m-896-1167v224-128z"/><path d="m-1024-1167v224z"/><path d="m-1024-1295v128z"/><path d="m-896-943v-224-128h-128v128 224z"/><path d="m-896-1295v128 224h-128v-224-128z"/><path d="m-256-655h64z"/><path d="m-160-655h64z"/><path d="m-64-655h64z"/><path d="m-256-975v96z"/><path d="m-256-879v224-160-32z"/><path d="m-192-975h-64z"/><path d="m-96-975h-64z"/><path d="m-160-975v96z"/><path d="m-160-879v224-96z"/><path d="m-64-975v96z"/><path d="m-64-879v224-96z"/><path d="m-64-879v-96h64v96 224h-64z"/><path d="m0-879v-96h-64v96 224h64z"/><path d="m0-975v96z"/><path d="m0-879v224-96z"/><path d="m-96-879v-96h-64v96 224h64z"/><path d="m-160-879v-96h64v96 224h-64z"/><path d="m-96-975v96z"/><path d="m-96-879v224-96z"/><path d="m-192-879v-96h-64v96 224h64z"/><path d="m-256-879v-96h64v96 224h-64z"/><path d="m-192-975v96z"/><path d="m-192-879v224-96z"/><path d="m-912-1295h16-128z"/><path d="m-896-1167v96 128z"/><path d="m-1024-1183v-16-80-16 128z"/><path d="m-912-959v-32z"/><path d="m-912-1007v-32z"/><path d="m-912-1055v-16-112 112z"/><path d="m-912-1199v-32z"/><path d="m-912-1247v-32z"/><path d="m-896-1167v-128h-16v16 32 16 32 16 112h16z"/><path d="m-912-1071v16 16 32 16 32 16h16v-128z"/><path d="m-944-1183h-32z"/><path d="m-992-1183h-16z"/><path d="m-1008-1279h96v-16h-112v16z"/><path d="m-912-1199h-96z"/><path d="m-1008-1279v32z"/><path d="m-1008-1231v32z"/><path d="m-912-1247h-96z"/><path d="m-912-1231v-16h-96v16z"/><path d="m-1008-1231v-16-32h-16v80h16z"/><path d="m-1008-1183h16 16 32 16 16v-16h-96-16v16z"/><path d="m-1008-1183v128-16z"/><path d="m-1008-1039v32z"/><path d="m-1008-991v32z"/><path d="m-928-1055h16z"/><path d="m-976-1055h32z"/><path d="m-944-1183v128h16v-128z"/><path d="m-992-1183v128h16v-128z"/><path d="m-912-1007h-96z"/><path d="m-912-1039v-16h-16-16-32-16-16v16z"/><path d="m-912-991v-16h-96v16z"/><path d="m-912-959h-96z"/><path d="m-912-943v-16h-96v16z"/><path d="m-1008-959v-32-16-32-16-128h-16v16 224h16z"/><path d="m-352 193h-160z"/><path d="m-640 321v128z"/><path d="m-128 225v128z"/><path d="m-128 225v128z"/><path d="m-416 481h-32z"/><path d="m-352 481h96-96-64z"/><path d="m-640 321h64 128v128h-192z"/><path d="m-448 321h-128-64v128h192z"/><path d="m-448 321h96v32 128h-64l-32-32z"/><path d="m-352 353v-32h-96v128l32 32h64z"/><path d="m-352 225v96h-96-128l64-128h160z"/><path d="m-576 321h128 96v-96-32h-160z"/><path d="m-192 353-64 128h-96v-128z"/><path d="m-352 481h96l64-128h-160z"/><path d="m-128 353h-64-160v-32-96h32 192z"/><path d="m-352 321v32h160 64v-128h-192-32z"/><path d="m-352 193v32h32z"/><path d="m-320 225h-32v-32z"/><path d="m-576 321h-64z"/><path d="m-512 193-64 128z"/><path d="m-128 225h-192z"/><path d="m-320 225-32-32z"/><path d="m-192 353h64z"/><path d="m-448 449 32 32z"/><path d="m-256 481 64-128z"/><path d="m-640 449h192z"/><path d="m-448 481v80z"/><path d="m-416 561v-80z"/><path d="m-448 561h32z"/><path d="m-448 481h32v80h-32z"/><path d="m-448 561h32v-80h-32z"/><path d="m224 625h96-64-64-32z"/><path d="m-128 625h-32-32z"/><path d="m-640-1359h-224 128z"/><path d="m208-335h-16-112-96v-96h16 64 128 16z"/><path d="m256-431h128 64v96h-96-144v-96z"/><path d="m-288-1023h-192-32v-48-144h32 192z"/><path d="m-64-1023h-192-32v-192h32 128l64 64z"/><path d="m0-1087v64h-32-32v-128z"/><path d="m-72-759v-216h8v96 128h-8z"/><path d="m-64-751v96h-8v-96z"/><path d="m-96-879v-96h8v216 8h-8z"/><path d="m-88-751v96h-8v-96z"/><path d="m-88-983v8h-8-64-8v-8z"/><path d="m-64-975h-8v-8h40 32v8z"/><path d="m-88-975v-8h16v8 216h-16z"/><path d="m-72-759v8 96 8h-16v-8-96-8z"/><path d="m-32-983h-40-16-80-16-72v-40h192 32z"/><path d="m0-1023v40h-32v-40z"/><path d="m-168-759v-216h8v96 128h-8z"/><path d="m-160-751v96 8h-8v-104z"/><path d="m-192-975h-64v-8h72v8z"/><path d="m-184-975v-8h16v8 216h-16z"/><path d="m-168-759v8 104h-16v-8-96-8z"/><path d="m-192-879v-96h8v216 8h-8z"/><path d="m-184-751v96h-8v-96z"/><path d="m-32-647h-40v-8h8 64v8z"/><path d="m-32-591h-192-32v-32-24h72 16 8 72 16 40z"/><path d="m0-647v56h-32v-56z"/><path d="m-160-655h64 8v8h-72z"/><path d="m-256-647v-8h64 8v8z"/><path d="m-224-335v-64-80h208v48 96 16 64h-208z"/><path d="m-16-255v32 80h-16-192v-64-48z"/><path d="m-16-479h16v16 32h-16z"/><path d="m-32-591h32v112h-16-208v-112z"/><path d="m-224-479v80h-32v-192h32z"/><path d="m352-335h96v48h-32-64z"/><path d="m352-287h64v64h-64z"/><path d="m352-111v-112h64 32v144 32 48h-96z"/><path d="m448 1v48 176h-96v-112-112z"/><path d="m448 225v48 176h-96v-48-64-112z"/><path d="m448 449v48l-96 96v-144z"/><path d="m192-335h16 144v48 64 112h-160z"/><path d="m352-111v112 112h-160v-160-32-32z"/><path d="m352 113v112 112h-160v-192-32z"/><path d="m352 337v64h-128-32v-32-32z"/><path d="m80-223v-16-64-16-16h112v224h-112z"/><path d="m80-335v16h-80-16v-16z"/><path d="m0-143v-80h80v112h-16-64z"/><path d="m64-239v-64h16v64z"/><path d="m0-239v-64h64v64z"/><path d="m0-319h80v16h-16-64z"/><path d="m0-239h64 16v16h-80z"/><path d="m160-79h-96v-32h16 112v32z"/><path d="m0-303v64 16h-16v-32-64h16z"/><path d="m-16-143v-80h16v80z"/><path d="m-32-111h-224v-32h32 192z"/><path d="m-16-143h16v32h-32v-32z"/><path d="m-256-335h32v80 48h-32z"/><path d="m0 401v-32h192v32z"/><path d="m224 625h-64-160v-64-128-32h192 32z"/><path d="m352 401v48 144l-32 32h-96v-224z"/><path d="m-64 401v-32h64v32 32h-64z"/><path d="m-128 433h64 64v128h-64-64z"/><path d="m-256 481 64-128v240h-64z"/><path d="m-192 353h64v48 32 128 32h-64z"/><path d="m0 625h-64v-32-32h64z"/><path d="m-192 625h-64v-32h64 64v32z"/><path d="m-352 481h96v112 32h-96z"/><path d="m-896-1071v-224h32 192v224z"/><path d="m-672-943h-192-32v-128h224z"/><path d="m-640-1295h128v48 32 144h-160v-224z"/><path d="m-512-1071v48 32 48h-128-32v-128z"/><path d="m-640-1295h-32-192v-64h224z"/><path d="m-512-1359v64h-128v-64z"/><path d="m-912-1247v16h-96v-16z"/><path d="m-912-1183v-16-32-16-32-16h16v224h-16z"/><path d="m-896-1071v128h-16v-16-32-16-32-16-16z"/><path d="m-912-1295v16h-96v-16z"/><path d="m-992-1055h16 32 16 16v16h-96v-16z"/><path d="m-912-959v16h-96v-16z"/><path d="m-912-1007v16h-96v-16z"/><path d="m-912-1199v16h-16-16-32-16-16v-16z"/><path d="m-944-1055v-128h16v128z"/><path d="m-608-879h96v32h-96z"/><path d="m-640-879h-128-96v-64h192 32z"/><path d="m-512-943v64h-96-32v-64z"/><path d="m-768-847v-32h128 32v32 128h-160z"/><path d="m-864-879h96v32h-128v-32z"/><path d="m-1024-1167v-128h16v16 32 16 32 16 112h-16z"/><path d="m-1008-1071v16 16 32 16 32 16h-16v-128z"/><path d="m-992-1055v-128h16v128z"/><path d="m-512 49h64 32v144h-96z"/><path d="m-640 145v-32-64h128v144l-40 80h-88z"/><path d="m-552 273-24 48h-64v-16-32z"/><path d="m-1072 113v-32h176 48v224h-224z"/><path d="m-848 305v64h-208-16v-32-32z"/><path d="m-848 81h144v32 32 128 32h-144z"/><path d="m-704 305v64h-128-16v-64z"/><path d="m-640 145v128h-64v-128z"/><path d="m-448 481v80h32v-80z"/><path d="m-1056 433h-160l-64-64h208 16z"/><path d="m-832 433h-160-64v-64h208 16z"/><path d="m-704 369v64h-64-32-32v-64z"/><path d="m-1072 561h-48-176v-112h80 144z"/><path d="m-848 561h-16-32-128-32-16v-112h80 144z"/><path d="m-800 449v32 32 48h-48v-112z"/><path d="m-992 449h-80-144v-16h160 64z"/><path d="m-832 433h32v16h-48-144v-16z"/><path d="m-1024 561h128v16h-128z"/><path d="m-1024 577h128v16h-128z"/><path d="m-1248 81h128 48v32h-176z"/><path d="m-1248-15h32l96 96h-128z"/><path d="m-1248 81v32h-48-16-16-32-48v-128h160z"/><path d="m-1296 113h48 176v192 32h-224z"/><path d="m-1072 337v32h-208-16v-32z"/><path d="m-1312 113h16v224h-16z"/><path d="m-1296 337v32 80 112h-16v-48-176z"/><path d="m-1328 113h16v224h-16z"/><path d="m-1312 337v176h-16v-32-144z"/><path d="m-1328 513h16v48h-32l-16-16v-32z"/><path d="m-1360 113h32v224h-32z"/><path d="m-1328 337v144h-32v-144z"/><path d="m-1408 273v-160h48v224h-48z"/><path d="m-1360 337v144 32 32l-48-48v-160z"/><path d="m-1408-15v128z"/><path d="m-1408 273v64 160-160z"/><path d="m-512-1295v-64z"/><path d="m-1360 545 16 16-64-64z"/><path d="m0-879v-96-8-40-64 240z"/><path d="m384-431h48 16z"/><path d="m208-431h32 16z"/><path d="m448-223h-32z"/><path d="m416-287v64z"/><path d="m448-335v-96 144z"/><path d="m448 1v-48 96z"/><path d="m352 593 96-96-128 128z"/><path d="m192 145v192 32z"/><path d="m-1008-943h96 16-80-48z"/><path d="m-864-943h-32z"/><path d="m-512-991v48z"/><path d="m-256-1215h-32-192z"/><path d="m-288-1023h32-224z"/><path d="m-1024-1167v96 128-144-64z"/><path d="m0-111h-32z"/><path d="m-256-943v64 32z"/><path d="m-256-623v32 192z"/><path d="m-256-335v128z"/><path d="m-256-143v32z"/><path d="m0 369h-64z"/><path d="m-416 49h64v144h-64z"/><path d="m-768-719h160z"/><path d="m-768-719v-128z"/><path d="m-896-879v32z"/><path d="m-896-847h128z"/><path d="m-448 49h-64z"/><path d="m-512 449h64z"/><path d="m-704 113v-32z"/><path d="m-512 49h-128z"/><path d="m-640 49v64z"/><path d="m-1072 561h16-64z"/><path d="m-896 81h-176-48 128z"/><path d="m-768 433h64z"/><path d="m-800 513v-32z"/><path d="m-1024 577v16z"/><path d="m-896 593v-16z"/><path d="m-896 577v-16z"/><path d="m-256-655h64z"/><path d="m-256-943v-32 96z"/><path d="m0-975h-64z"/><path d="m-160-975v96z"/><path d="m-64-975v96z"/><path d="m0-879v32 32 160z"/><path d="m-96-879v128 96z"/><path d="m-192-879v128 96z"/><path d="m-912-1183h-16z"/><path d="m-912-1279h-96z"/><path d="m-912-1231h-96z"/><path d="m-1008-1055h16z"/><path d="m-944-1055v-128z"/><path d="m-928-1183v128z"/><path d="m-976-1183v128z"/><path d="m-992-1055v-128z"/><path d="m-912-1039h-96z"/><path d="m-912-991h-96z"/><path d="m-416 193h64-160z"/><path d="m-640 321v128z"/><path d="m-416 481h-32z"/><path d="m-192 353h64z"/><path d="m-576 321h-64z"/><path d="m-552 273 40-80-64 128z"/><path d="m-128 225h-192z"/><path d="m-320 225-32-32z"/><path d="m-448 449 32 32z"/><path d="m-256 481 64-128z"/><path d="m-512 449h-128 192z"/><path d="m-112-1135v32h32v-32z"/><path d="m-656-799v32h32v-32z"/><path d="m-752-799v32h32v-32z"/><path d="m-1360 481h32z"/><path d="m-1360 513v-32h32v32z"/><path d="m-1360 513v-32z"/><path d="m-1328 513h-32z"/><path d="m-1328 481v32z"/><path d="m-112-1135h32z"/><path d="m-80-1135v32z"/><path d="m-80-1103h-32z"/><path d="m-112-1103v-32z"/><path d="m-112-1103v-32h32v32z"/><path d="m384-431h16 32z"/><path d="m480-223h-32-32 32z"/><path d="m416-287h32z"/><path d="m480-431v144z"/><path d="m448-431h32v144h-32z"/><path d="m448-79v-144z"/><path d="m448-79v-144h32v144z"/><path d="m448-79v32z"/><path d="m-1376-15h128 32-32-160z"/><path d="m-1376-47v32z"/><path d="m-1248-47v32z"/><path d="m-1248-47v32h-128v-32z"/><path d="m160 625h-224 64z"/><path d="m192 625h-32z"/><path d="m-192 625h-192-32 64 96z"/><path d="m-128 625h-32z"/><path d="m-576 625h64 64 32 32z"/><path d="m0-655v-160z"/><path d="m0-431v-32z"/><path d="m0-1087v32 112 96z"/><path d="m480-431h-32z"/><path d="m384-431h-128z"/><path d="m256-463v-48h128v48 32h-128z"/><path d="m512-223h-32-32 32z"/><path d="m480-287h-32z"/><path d="m512-431v144z"/><path d="m480-431h32v144h-32z"/><path d="m448-287h32 64 32v64h-32-64-32-32v-64z"/><path d="m480-79v-144z"/><path d="m480-79v-144h32v144z"/><path d="m448 369v-96-96z"/><path d="m448 369v128z"/><path d="m448 273v96 128-48z"/><path d="m448 49v128 96-48z"/><path d="m640-47v-16z"/><path d="m640-63v16h-160v-16z"/><path d="m640-47h-160z"/><path d="m448 497-32 32-64 64-32 32z"/><path d="m192 369h-192z"/><path d="m192-47v160 32z"/><path d="m192 145v224z"/><path d="m0-1087-64-64-64-64z"/><path d="m-256-1215h-224z"/><path d="m-128-1215h-128z"/><path d="m-256-1023v40 8 32z"/><path d="m-256-1023h-224z"/><path d="m-1039-1151h15v64h-15z"/><path d="m-1039-1087h15z"/><path d="m-1024-1295v128z"/><path d="m-256-943v96z"/><path d="m-352 49h-64-32z"/><path d="m-128 401v-48-128z"/><path d="m-128 625v-32z"/><path d="m-64 369v32z"/><path d="m0 369h-64z"/><path d="m-64 593v32z"/><path d="m-448 449 32 32v144h-32z"/><path d="m-320 225-32-32v-144h160l64 64v112z"/><path d="m-128 225h-192z"/><path d="m-352 193h-64z"/><path d="m-320 225-32-32z"/><path d="m-416 481h64z"/><path d="m-448 449 32 32z"/><path d="m-416 481h64v144h-64z"/><path d="m-448 49h-64z"/><path d="m-448 449v176h-64v-176z"/><path d="m-1376-79v32z"/><path d="m-1248-79v32z"/><path d="m-1248-47v-32-32h32v96h-32z"/><path d="m-1248-79h-128z"/><path d="m-1248-47h-128z"/><path d="m-1376-79h128v32h-128z"/><path d="m-512 49h-128z"/><path d="m-640 433v-128 16 128z"/><path d="m-640 449h128z"/><path d="m-512 625h-64l-64-64v-96-16h128z"/><path d="m-1616 113v-64h16v64z"/><path d="m-1600 113h-16z"/><path d="m-1600 49v64z"/><path d="m304-495v32h32v-32z"/><path d="m-208 97v32h32v-32z"/><path d="m336-463h-32z"/><path d="m304-495h32z"/><path d="m336-495v32z"/><path d="m304-463v-32z"/><path d="m304-463v-32h32v32z"/><path d="m-176 97v32z"/><path d="m-176 129h-32z"/><path d="m-208 129v-32z"/><path d="m-208 97h32z"/><path d="m-208 129v-32h32v32z"/><path d="m480-79h32z"/><path d="m544-431h-32z"/><path d="m512-287h-32-32 32z"/><path d="m544-431v144z"/><path d="m512-431h32v144h-32z"/><path d="m512-79v-144z"/><path d="m512-79v-144h32v144z"/><path d="m-1248-111v32z"/><path d="m-1376-111h128v32h-128z"/><path d="m192 625h64z"/><path d="m-160 625h32-32-160z"/><path d="m-160 625h-160-64 192z"/><path d="m-512-1359h-128z"/><path d="m-1408-111v96 128-32z"/><path d="m-1408-335v224z"/><path d="m-976-1295h80-16-96-16z"/><path d="m-896-1295h32z"/><path d="m-512-1295v-64z"/><path d="m-864-1311v-32-16 64z"/><path d="m-872-1311h8z"/><path d="m-872-1343h8v32h-8z"/><path d="m0-591v-56-8z"/><path d="m448-431h-16z"/><path d="m208-431h-16z"/><path d="m208-439v8z"/><path d="m400-439v8z"/><path d="m400-431v-8h32v8z"/><path d="m256-431v-16-16z"/><path d="m208-431v-8h32v8z"/><path d="m0-591v-64h15v64z"/><path d="m15-655h-15z"/><path d="m576-223h-32z"/><path d="m544-287h-64 32z"/><path d="m576-431v144z"/><path d="m544-431h32v144h-32z"/><path d="m544-79v-144z"/><path d="m544-79v-144h32v144z"/><path d="m544-63h96-160z"/><path d="m-976-943h80z"/><path d="m-512-1247v-48z"/><path d="m-512-991v48z"/><path d="m-1039-1087h15z"/><path d="m-1024-1151h-15z"/><path d="m-1024-1295v128 16z"/><path d="m-1024-1087v144z"/><path d="m-448 34v15z"/><path d="m-384 49h32-96z"/><path d="m-384 49h32z"/><path d="m-448 49v-15h64v15z"/><path d="m-128 225v-112 64z"/><path d="m-128 241v64 96-176z"/><path d="m-128 433v-32z"/><path d="m-128 593v32z"/><path d="m-128 593v-32z"/><path d="m-128 305v-64h15v64z"/><path d="m-128 241h15z"/><path d="m-64 401v-32z"/><path d="m-64 561v32z"/><path d="m-64 401v32z"/><path d="m-64 433h-64z"/><path d="m-128 561h64z"/><path d="m-512-943v96-32z"/><path d="m-768-719h160z"/><path d="m-768-719v-128z"/><path d="m-608-719v-128z"/><path d="m-608-847h96z"/><path d="m-896-879h32z"/><path d="m-872-927h8v32h-8z"/><path d="m-872-895h8z"/><path d="m-864-895v-32-16 64z"/><path d="m-1216-111v-48 144z"/><path d="m-1216-111v96z"/><path d="m-1248-111h-128z"/><path d="m-1248-335h32v176 48h-32z"/><path d="m-1248-335h-128-32v-32h192v32z"/><path d="m-1376-335h128v224h-128z"/><path d="m-1408-335h32v224h-32z"/><path d="m-1376-111v32z"/><path d="m-1408-111h32v32 32 32h-32z"/><path d="m-704 113v-32 53.3333z"/><path d="m-704 305v-32z"/><path d="m-512 49h-128z"/><path d="m-640 273v32z"/><path d="m-640 369v-64 128z"/><path d="m-640 113v-64z"/><path d="m-640 145v-32z"/><path d="m-704 273h64z"/><path d="m-640 145h-64z"/><path d="m-655 369h15v64h-15z"/><path d="m-640 433h-15z"/><path d="m-1056 561h32z"/><path d="m-864 561h-21.3333-10.6667z"/><path d="m-1024 561v16z"/><path d="m-896 577h-128 21.3333 85.3334z"/><path d="m-1024 577h128-21.3333-85.3334z"/><path d="m-896 577v-16h-21.3333v16z"/><path d="m-1024 593h128-21.3333-85.3334z"/><path d="m-1024 577v16h21.3333v-16z"/><path d="m-896 593v-16h-21.3333v16z"/><path d="m-320 625v15h-64v-15z"/><path d="m-320 640v-15z"/><path d="m-320 640h-64z"/><path d="m544-79h32z"/><path d="m608-431h-32z"/><path d="m608-431v144z"/><path d="m544-223h-32-32z"/><path d="m608-223h-32-32 32z"/><path d="m576-287h-32z"/><path d="m576-431h32v144h-32z"/><path d="m576-79v-144z"/><path d="m576-79v-144h32v144z"/><path d="m-1184-367h-32z"/><path d="m-1216-159v-176-32z"/><path d="m-1184-367v176z"/><path d="m-1216-367h32v176l-32 32z"/><path d="m912-223h64z"/><path d="m976-287h-64z"/><path d="m912-223v-64h64v64z"/></g><g id="b"><path d="m1008-322v-45 80 64 80z"/><path d="m-864-1359h96 32z"/><path d="m-872-1311h8v-32h-8z"/><path d="m-864-1311v16z"/><path d="m-864-1359v16z"/><path d="m-864-1343h-8z"/><path d="m-872-1343v32z"/><path d="m984-391 24 24v45l-24-24z"/><path d="m899-431h5v5z"/><path d="m904-431h40l40 40v45l-80-80z"/><path d="m544-79h32 32z"/><path d="m672-431h-64-32-64-32-32z"/><path d="m899-431h-227 96 64z"/><path d="m432-431h16z"/><path d="m576-431h-32-32z"/><path d="m480-431h32z"/><path d="m240-431h16z"/><path d="m432-431v-8z"/><path d="m400-439v8h32v-8z"/><path d="m432-439h-32z"/><path d="m240-431v-8z"/><path d="m208-439v8h32v-8z"/><path d="m240-439h-32z"/><path d="m640-287h32v64h-32z"/><path d="m608-79v-144h32 32v16 128z"/><path d="m904-295h8v8 64 8h-8z"/><path d="m912-223h64 8v8h-72z"/><path d="m912-215h72v96l-40 40h-40v-128-8z"/><path d="m976-223v-64h8v64z"/><path d="m912-295h72v8h-8-64z"/><path d="m608-431h64v144h-32-32z"/><path d="m984-346v51h-72-8v-131z"/><path d="m672-223v-64-144h227l5 5v131 80 8h-232z"/><path d="m904-207v128h-8-32-128-32-32v-128z"/><path d="m1008-322v179l-24 24v-96-8-64-8-51z"/><path d="m608-79v-144z"/><path d="m976-223v-64z"/><path d="m912-287v64z"/><path d="m608-287h-32-32 32z"/><path d="m960 81v160z"/><path d="m448 209v128 32-192z"/><path d="m640 17h-64-32 64 32 64z"/><path d="m640-47v-16z"/><path d="m736-79h128v96h-112-16z"/><path d="m832 497h128z"/><path d="m768 497h-32-64z"/><path d="m512 497v-32h64v32z"/><path d="m656 225h16v16 64 16h-16z"/><path d="m576 177h64 16v48 96 80h-144v-32-32-128-32z"/><path d="m656 401v64h-16-16-32-16-64v-64z"/><path d="m656 465h96 16v32h-96-32v-32z"/><path d="m672 321h80v144h-96v-64-80z"/><path d="m672 305h64 16v16h-80z"/><path d="m816 465h-32-16-16v-144-16h80v160z"/><path d="m832 465v-160h96 32v192h-128z"/><path d="m672 225h80v16h-16-64z"/><path d="m672 305v-64h64v64z"/><path d="m736 305v-64h16v64z"/><path d="m752 177v48h-80-16v-48z"/><path d="m576 177v-64h64v64z"/><path d="m544 81h32v32 64h-64v-96z"/><path d="m576 113v-32-32h64v64z"/><path d="m544 17h32v32 32h-32z"/><path d="m576 49v-32h64v32z"/><path d="m752 225v-48-160h112 32 32v64 160h-176z"/><path d="m928 241v64h-96-80v-64z"/><path d="m704 17h32 16v160h-96-16v-64-64-32z"/><path d="m928 81h32v160h-32z"/><path d="m480 337v-128h32v128z"/><path d="m448 337v-128h32v128z"/><path d="m-872-895h8v-32h-8z"/><path d="m-864-927h-8z"/><path d="m-864-943v16z"/><path d="m-872-927v32z"/><path d="m-864-895v16z"/><path d="m-1152-367h-32-32z"/><path d="m-1152-367v176z"/><path d="m-1184-367h32v176h-32z"/><path d="m-1184-191-32 32z"/><path d="m864 433v32h32v-32z"/><path d="m864 433h32z"/><path d="m864 465v-32z"/><path d="m896 465h-32z"/><path d="m896 433v32z"/><path d="m864 465v-32h32v32z"/><path d="m-1184-191h32z"/><path d="m-1152-191v-176h32v176z"/><path d="m-800 513v48z"/><path d="m-608-719v-128z"/><path d="m-768-735v16h160v-16z"/><path d="m-752-831v32h128v-32z"/><path d="m-720-767h64v-32h-64z"/><path d="m-768-847v16h160v-16z"/><path d="m-624-831v96h16v-96z"/><path d="m-752-767v32h128v-32z"/><path d="m-768-831v96h16v-96z"/><path d="m-720-799v32z"/><path d="m-656-799h32z"/><path d="m-656-767v-32z"/><path d="m-624-767h-32z"/><path d="m-624-799v32z"/><path d="m-752-799h32z"/><path d="m-720-767h-32z"/><path d="m-752-767v-32z"/><path d="m1008-367v45 35z"/><path d="m224 625h-32 64z"/><path d="m256 625h64z"/><path d="m160 625h-160-64z"/><path d="m-736-1359h160 64-128z"/><path d="m1008-367-24-24-40-40z"/><path d="m-976-1295h-48z"/><path d="m-976-1295h80z"/><path d="m-768-1359v32h32v-32z"/><path d="m-864-1359v16 32 16z"/><path d="m944-431h-40-5z"/><path d="m896-79h8 40z"/><path d="m480-79h-48-16 32z"/><path d="m480-79h32 32z"/><path d="m448-79h32z"/><path d="m64-79h96z"/><path d="m192-79h32-28z"/><path d="m160-79h32z"/><path d="m192-431h16z"/><path d="m192-431h-128z"/><path d="m384-463v-48z"/><path d="m256-511v48z"/><path d="m384-511h-128z"/><path d="m944-79 40-40 24-24z"/><path d="m1008-143-43.5 43.5-20.5 20.5z"/><path d="m640-223v-64z"/><path d="m640-223h-32-32z"/><path d="m576-287h32 32z"/><path d="m576-223v-64z"/><path d="m448 369v-32z"/><path d="m448 209v-32z"/><path d="m448-47v224-128z"/><path d="m480-47v-16z"/><path d="m480-63h64z"/><path d="m512 81v96z"/><path d="m640 497h32z"/><path d="m640 465v32z"/><path d="m784 465h32z"/><path d="m784 473v-8h32v8z"/><path d="m816 473v-8z"/><path d="m592 465h32z"/><path d="m576 497v-32z"/><path d="m624 473v-8z"/><path d="m592 473v-8h32v8z"/><path d="m192-79v32z"/><path d="m448-79h-32v32h32z"/><path d="m448-47h-32v32 192h32z"/><path d="m448 369h-32v160l32-32z"/><path d="m192 369h-192z"/><path d="m192-47v192z"/><path d="m192 145v224h32v-192-32z"/><path d="m192 369 32 32v-32z"/><path d="m256 625h64l32-32h-128v32z"/><path d="m-976-943h-48z"/><path d="m-896-943h64-128-16z"/><path d="m-512-991v-32z"/><path d="m-256-1023v80z"/><path d="m-256-1023 32-32h-32z"/><path d="m-512-1023h32z"/><path d="m-256-1023v-32h-224v32z"/><path d="m-32-111h-64-32-128z"/><path d="m-256-847v32z"/><path d="m-256-943v96h32v-96z"/><path d="m-224-399h-32z"/><path d="m-256-815v160 8 24z"/><path d="m-224-207h16z"/><path d="m-256-207h32-16z"/><path d="m-224-335h-32z"/><path d="m-224-399v64z"/><path d="m-256-143h16 16z"/><path d="m-224-207v64z"/><path d="m-128 454.3334v-21.3334-32 21.3334z"/><path d="m-128 454.3334v-32 10.6666 96 10.6666z"/><path d="m-128 539.6666v-10.6666 32 32-32z"/><path d="m0 369h-64v32h64z"/><path d="m-64 539.6666v21.3334 32-21.3334z"/><path d="m-64 422.3334v-21.3334 32 21.3334z"/><path d="m-64 422.3334v10.6666-32z"/><path d="m-64 454.3334h-64v85.3332h64z"/><path d="m-128 539.6666v21.3334h64v-21.3334z"/><path d="m-64 454.3334v-21.3334h-64v21.3334z"/><path d="m-64 625v-32z"/><path d="m-512-527v-192z"/><path d="m-896-847v-32z"/><path d="m-864-943v16 32 16z"/><path d="m-608-703v-16h96v192h-32-64z"/><path d="m-768-719h160v16h-224-16v-16z"/><path d="m-832-703h224v176h-224z"/><path d="m-848-703h16v176h-16z"/><path d="m-608-527h64v64h-64z"/><path d="m-608-527v64h-224v-64z"/><path d="m-512-351v-48-64 128z"/><path d="m-736-15h-32-192 64z"/><path d="m-608-463h64 32v64h-96z"/><path d="m-608-463v64h-32-192v-32-32z"/><path d="m-1071-399h-1-48-64-111v-32h79 16 32 16 64 16 1z"/><path d="m-1040-431h16 64v32h-111v-32z"/><path d="m-960-463v32h-64v-32z"/><path d="m-1088-463v32h-64v-32z"/><path d="m-1216-431h-79v-32h79z"/><path d="m-1295-431v32h-113v-64h113z"/><path d="m-640-351h-64-160v-48h32 192z"/><path d="m-608-399h96v48h-32-64-32v-48z"/><path d="m-512-351v16h-32v-16z"/><path d="m-544-271h32v16h-96v-16z"/><path d="m-704-255h96 96v112h-32-176v-64-48z"/><path d="m-544-335v16 32 16h-64v-64-16h64z"/><path d="m-624-271v-64h16v64z"/><path d="m-704-271v-64h16v64z"/><path d="m-688-271v-64h64v64z"/><path d="m-624-335h-64-16v-16h64 32v16z"/><path d="m-704-351v16 64 16h-16-144v-96z"/><path d="m-704-255v-16h16 64 16v16z"/><path d="m-544-143v64h-112-64v-64z"/><path d="m-832-175v-32h112v64 64h-112z"/><path d="m-1071-399h111 96v48 96 48h-96-112v-192z"/><path d="m-832-207h-32v-48h144v48z"/><path d="m-1072-47v-144-16h112v32 96 64h-32-80z"/><path d="m-1184-367h-32-192v-32h113 111z"/><path d="m-1120-399v32h-64v-32z"/><path d="m-1120-367v-32h48v192 16h-48z"/><path d="m-1216-159 32-32v144 32h-32z"/><path d="m-1184-191h64 48v144h-16-64-32z"/><path d="m-1088-47h16v32h-16z"/><path d="m-1184-15v-32h32v32z"/><path d="m-960-175v32 64z"/><path d="m-832-431v-21.3333-10.6667z"/><path d="m-720-79h64z"/><path d="m-1184-367h64-32-64z"/><path d="m-1408-367h192z"/><path d="m-1184-191h32 32z"/><path d="m-1120-367v176z"/><path d="m-704 134.3333v10.6667-32z"/><path d="m-704 251.6667v-85.3334 10.6667 64z"/><path d="m-704 251.6667v-10.6667 32 32-32z"/><path d="m-640 305v-21.3333 21.3333 64z"/><path d="m-640 166.3333v10.6667-32z"/><path d="m-640 283.6667v-10.6667-32 10.6667 21.3333 32z"/><path d="m-640 166.3333v85.3334-10.6667-64z"/><path d="m-704 166.3333v85.3334h64v-85.3334z"/><path d="m-640 166.3333v-21.3333h-64v21.3333z"/><path d="m-704 251.6667v21.3333h64v-21.3333z"/><path d="m-917.3333 561h21.3333z"/><path d="m-1034.6666 561h-21.3334 32 21.3333z"/><path d="m-1034.6666 561h10.6666-32z"/><path d="m-1002.6667 561h85.3334 21.3333 10.6667-10.6667-128-10.6666z"/><path d="m-768 81h64-144-48z"/><path d="m-992 81h-128l-96-96h32 32 64 16 80z"/><path d="m-768 81h-128-96v-96h32 192z"/><path d="m-736-15h32v32 32 32h-64v-96z"/><path d="m-1120 81-96-96z"/><path d="m-832 513h32z"/><path d="m-832 513h32v-32h-32z"/><path d="m-1002.6667 593h85.3334v-16h-85.3334z"/><path d="m-1002.6667 577h85.3334v-16h-85.3334z"/><path d="m-1002.6667 561h-21.3333v16h21.3333z"/><path d="m-816-127v32h32v-32z"/><path d="m-768-719v-128z"/><path d="m-768-847h160z"/><path d="m-608-719h-160z"/><path d="m-768-719v-16h160v16z"/><path d="m-752-735v-96h128v96z"/><path d="m-768-831v-16h160v16z"/><path d="m-624-735v-96h16v96z"/><path d="m-768-735v-96h16v96z"/><path d="m-784-127v32z"/><path d="m-784-95h-32z"/><path d="m-816-95v-32z"/><path d="m-816-127h32z"/><path d="m-816-95v-32h32v32z"/><path d="m-736-1327v-32z"/><path d="m-128-143v32z"/><path d="m-128-143v32h32v-32z"/><path d="m-848-527h-128z"/><path d="m-848-719h80z"/><path d="m-848-543v-160-16 16 176z"/><path d="m-848-719v16h-32-32-32-32v-16z"/><path d="m-880-543h32z"/><path d="m-880-703v160z"/><path d="m-848-703v160h-32v-160z"/><path d="m-704 433v-64-64z"/><path d="m-800 433h32z"/><path d="m-800 433v48-32z"/><path d="m-832 513v-32h32v32z"/><path d="m-832 513v-32z"/><path d="m-800 481h-32z"/><path d="m1008-223v-64z"/><path d="m1008-223v80z"/><path d="m1008-223v-64h16v64z"/><path d="m1024-287h-16z"/><path d="m-848-1359h80-96z"/><path d="m-736-1359h-32-80 48z"/><path d="m-768-1359v32z"/><path d="m-768-1327v-32h32v32z"/><path d="m-736-1327h-32z"/><path d="m864-79h32z"/><path d="m736-79h21.3333z"/><path d="m704-79h32z"/><path d="m832-431h67z"/><path d="m832-431h-64z"/><path d="m768-431v-16h64v16z"/><path d="m768-447v16z"/><path d="m384-463v-48z"/><path d="m256-463v-48 48 16z"/><path d="m256-447v16-32z"/><path d="m256-463v-48z"/><path d="m384-511h-128z"/><path d="m964.5-99.5-20.5 20.5z"/><path d="m1008-143-20.5 20.5-23 23z"/><path d="m864 17h-21.3333z"/><path d="m864 17h10.6667 21.3333z"/><path d="m896 17h32z"/><path d="m864 17v-96z"/><path d="m736-79v96z"/><path d="m672 497h-32z"/><path d="m768 465v32z"/><path d="m816 465h16z"/><path d="m768 465h16z"/><path d="m784 465h32 16-64z"/><path d="m784 465v8h32v-8z"/><path d="m784 465v8z"/><path d="m784 473h32z"/><path d="m592 465v8z"/><path d="m592 465v8h32v-8z"/><path d="m592 473h32z"/><path d="m672 512v-15h64v15z"/><path d="m736 512v-15z"/><path d="m-1039-1087h15v-64h-15z"/><path d="m-1024-1151h-15z"/><path d="m-1024-1295v144z"/><path d="m-1039-1151v64z"/><path d="m-1024-1087v144z"/><path d="m0-111h-96 64z"/><path d="m-128-111h-112-16z"/><path d="m-240-111h112 32 96-192z"/><path d="m-240-207h32 16v-128h-16-48v128z"/><path d="m-240-111h48v-32h-16-32-16v32z"/><path d="m-128-111v-32h32v32z"/><path d="m-96-111v-32z"/><path d="m-128-143h32z"/><path d="m-208-143h-16z"/><path d="m-208-143h32v-64h-32-16v64z"/><path d="m-128 561v-32-96-32 192z"/><path d="m-128 433v-10.6666-21.3334z"/><path d="m-128 593v-32z"/><path d="m-64 593v-32 10.6666z"/><path d="m-64 433v-10.6666 32 85.3332 32-10.6666z"/><path d="m-880-703h32z"/><path d="m-912-543h32z"/><path d="m-912-703v160z"/><path d="m-880-703v160h-32v-160z"/><path d="m-960-79v-64h15v64z"/><path d="m-1040-431h-31-1z"/><path d="m-1072-431v-8h32v8z"/><path d="m-1072-439v8z"/><path d="m-1168-431h-32z"/><path d="m-1200-431v-8h32v8z"/><path d="m-1200-439v8z"/><path d="m-704 49v-32z"/><path d="m-704 305v-32z"/><path d="m-704 145v32-10.6667z"/><path d="m-704 49v-32h8v32z"/><path d="m-704 17h8z"/><path d="m-640 145v32 64 32 32-96z"/><path d="m-640 273v10.6667 21.3333z"/><path d="m-640 145v-32z"/><path d="m-864 561h16 48-22.8571z"/><path d="m-1024 561h128 32-128-64z"/><path d="m-896 561h10.6667 21.3333z"/><path d="m-1616 49v64h16v-64z"/><path d="m-1600 49h-16z"/><path d="m-1616 49v64z"/><path d="m-1408-335v224-32z"/><path d="m-912-703h32z"/><path d="m-944-543h32z"/><path d="m-944-703v160z"/><path d="m-912-703v160h-32v-160z"/><path d="m-128 625h-32z"/><path d="m-1408-367v32z"/><path d="m-864-1295h32 32z"/><path d="m0-463v-16-112z"/><path d="m0-815v160z"/><path d="m0-463v32z"/><path d="m0-815v-32z"/><path d="m0-655v64h15v-64z"/><path d="m15-591h-15z"/><path d="m15-591v-64z"/><path d="m480-63v16z"/><path d="m544-63h96z"/><path d="m-32-1119 32 32-128-128z"/><path d="m-512-1039v16 32-32-32z"/><path d="m-128-1215h-128z"/><path d="m-480-1215h-32z"/><path d="m0-943v-112h-32-192v112z"/><path d="m-256-1215h-224v160h224z"/><path d="m-32-1119-96-96h-128v160h32 192z"/><path d="m0-1055v-32l-32-32v64z"/><path d="m-512-1215v160h32v-160z"/><path d="m-224-1055-32 32v80h32z"/><path d="m-512-1055v32h32v-32z"/><path d="m-1024-1167v-128 144 64z"/><path d="m0-815h-224 16 48 64z"/><path d="m-224-815h224v-32h-224z"/><path d="m-224-847h224v-96h-224z"/><path d="m-224-847h-32v32h32z"/><path d="m-256-815h32v32h-32z"/><path d="m-224-399h16 16v-192-32h-64v224z"/><path d="m-256-335v224z"/><path d="m-256-559v224z"/><path d="m-448 34v15h64v-15z"/><path d="m-384 49v-15z"/><path d="m-384 34h-64z"/><path d="m-128 305h15z"/><path d="m-128 241v64h15v-64z"/><path d="m-113 305v-64z"/><path d="m-896-895h32v16 32h-32z"/><path d="m-976-703v160z"/><path d="m-944-703h32z"/><path d="m-976-543h32z"/><path d="m-944-703v160h-32v-160z"/><path d="m-944-543h32 32 32v16h-128v-16z"/><path d="m-544-287v16z"/><path d="m-544-287v-32z"/><path d="m-544-319h8z"/><path d="m-544-287v-32h8v32z"/><path d="m-720-79h64v15h-64z"/><path d="m-720-79h-112z"/><path d="m-1152-431v-32z"/><path d="m-1024-431v-32z"/><path d="m-1072-431h-16z"/><path d="m-1024-431h-16z"/><path d="m-1072-439v8h32v-8z"/><path d="m-1040-431v-8z"/><path d="m-1040-439h-32z"/><path d="m-1152-431h-16z"/><path d="m-1200-439v8h32v-8z"/><path d="m-1168-431v-8z"/><path d="m-1168-439h-32z"/><path d="m-704 49h8z"/><path d="m-704 17v32h8v-32z"/><path d="m-696 49v-32z"/><path d="m-640 305v64z"/><path d="m-655 433h15v-64h-15z"/><path d="m-640 369h-15z"/><path d="m-655 369v64z"/><path d="m-384 625v15z"/><path d="m-320 640v-15h-64v15z"/><path d="m384-463v-48z"/><path d="m384-463v-48h-128v48 32h128z"/><path d="m-976-527h128 16-192z"/><path d="m-832-527h-16z"/><path d="m-1280-783v64 160-32-64z"/><path d="m-896-719h48-128z"/><path d="m-896-719h-80-80-64z"/><path d="m-1120-815v96z"/><path d="m-1120-719h-160v-64-32h160z"/><path d="m-976-703h32z"/><path d="m-1280-719h160 64v192h-192l-32-32z"/><path d="m-1056-719h80v16 160 16h-48-32z"/><path d="m192-79h4 12-48z"/><path d="m-160 625h32-96-128z"/><path d="m-160 625h-192-32 64z"/><path d="m-1408-143v32 192-32z"/><path d="m-1408-367v32z"/><path d="m-1408 113v160z"/><path d="m0-207v-128z"/><path d="m0-111v-32z"/><path d="m0-399v-32z"/><path d="m842.6667-79h21.3333 32-21.3333z"/><path d="m757.3333-79h85.3334 32-10.6667-32-64-32z"/><path d="m224-79h192 16-48-176-12z"/><path d="m384-431h16z"/><path d="m64-431h128z"/><path d="m64-431h-64z"/><path d="m384-431v-32z"/><path d="m64-303v-128h-64v32 64 128h64z"/><path d="m0-207v64 32h64v-96z"/><path d="m64-303v96 96 32z"/><path d="m0-111h64z"/><path d="m64-111v32z"/><path d="m757.3333 17h-21.3333z"/><path d="m874.6667 17h-10.6667 32z"/><path d="m757.3333 17h85.3334v-96h-85.3334z"/><path d="m757.3333-79h-21.3333v96h21.3333z"/><path d="m842.6667 17h21.3333v-96h-21.3333z"/><path d="m416-47v-32h-192v32z"/><path d="m224-79h-32v32h32z"/><path d="m352 593 64-64z"/><path d="m352 593h-128z"/><path d="m224 177v192 32z"/><path d="m416 337h32z"/><path d="m416 209h32z"/><path d="m416-47v32z"/><path d="m416 209h32v-32h-32z"/><path d="m416 369v-32 64 128z"/><path d="m416 369h32v-32h-32z"/><path d="m224-47h-32v192h32z"/><path d="m224 401-32-32h-192v32z"/><path d="m224 593h-224v32h160 32 32z"/><path d="m-512-1215v-32z"/><path d="m-512-1247v32z"/><path d="m-512-991v-32-16z"/><path d="m-512-1039v16z"/><path d="m-512-1039v-16-160z"/><path d="m-160-815h-48 16z"/><path d="m0-815h-96z"/><path d="m-96-399h96z"/><path d="m-176-399h-32-16z"/><path d="m-96-623v32 192-192z"/><path d="m-160-815v192z"/><path d="m-96-623v-192h-64v192 32h64z"/><path d="m-160-591v192h64v-192z"/><path d="m-176-207h176-192-16z"/><path d="m-208-207h-32 16 16 32z"/><path d="m0-335v-64h-96-64-16v64z"/><path d="m-176-335h-32 16 192z"/><path d="m-176-335h-48-32 48z"/><path d="m-176-335v-64h-48v64z"/><path d="m-176-143h176v-64h-176z"/><path d="m-176-143h-32-16-16 32z"/><path d="m-256-335v224-32z"/><path d="m-256-559v224-32z"/><path d="m-256-591v32z"/><path d="m-384 49h-64z"/><path d="m-224 49h-128-32-64z"/><path d="m-224 49h32-160z"/><path d="m-128 113v64z"/><path d="m-128 401v-96z"/><path d="m-128 241v-16z"/><path d="m-128 305v-64z"/><path d="m0 401h-64z"/><path d="m-64 401v32 128 32z"/><path d="m0 593h-64v32h64z"/><path d="m-128 113-64-64z"/><path d="m-1280-815v-64z"/><path d="m-1264-815h128 16-160z"/><path d="m-1264-847v32z"/><path d="m-1136-847v32z"/><path d="m-1136-847h-128z"/><path d="m-1264-847h128v32h-128z"/><path d="m-1216-463h-79-113z"/><path d="m-1088-463h-64z"/><path d="m-960-463h-64z"/><path d="m-832-463v-64z"/><path d="m-448 49h-64z"/><path d="m-448 49h-64z"/><path d="m-704-15h-32z"/><path d="m-960-399v21.3333z"/><path d="m-960-431v10.6667.3333z"/><path d="m-960-399v-32 11z"/><path d="m-960-431v-32 10.6667z"/><path d="m-832-399v-21-11z"/><path d="m-544-319v32h8v-32z"/><path d="m-544-287h8z"/><path d="m-536-287v-32z"/><path d="m-832-399h-32-96z"/><path d="m-1088-463v32z"/><path d="m-1024-431h-16-32-16z"/><path d="m-1216-431v-32z"/><path d="m-1200-431h-16z"/><path d="m-1152-431h-16-32z"/><path d="m-704 145v-96-32-32 128 64 32z"/><path d="m-704 17v-32z"/><path d="m-704 49v-32z"/><path d="m-704 145v-10.6667-53.3333-32z"/><path d="m-704 209v96-32-32-64-32z"/><path d="m-640 561 64 64z"/><path d="m-512 49h-128z"/><path d="m-640 561v-96z"/><path d="m-640 433v16 16z"/><path d="m-640 305v64 64z"/><path d="m-640 209v96 128-160z"/><path d="m-1120 561h-96-80-48 32 16z"/><path d="m-1216 433v16z"/><path d="m-822.8571 433h22.8571 32-22.8571z"/><path d="m-704 433h-96 9.1429 22.8571z"/><path d="m-822.8571 433h32-9.1429-128-64z"/><path d="m-992 433h-224v16h224z"/><path d="m-822.8571 449v-16h-169.1429v16z"/><path d="m-992 449h-224v112h96 64 64z"/><path d="m-864 561h41.1429v-112h-169.1429v112z"/><path d="m-822.8571 449v112h22.8571v-48-32-48h-22.8571z"/><path d="m-1216 449h-80v112h80z"/><path d="m-1408 81v32h112 16v-32z"/><path d="m-1280 337v-192-32h-16v224z"/><path d="m-1296 369h16v-32h-16z"/><path d="m-1296 337v-224h-112v160 64z"/><path d="m-1296 561v-112-80-32h-112v160l64 64z"/><path d="m-1280 145v192 32z"/><path d="m-1296 369h16z"/><path d="m-1296 449v-80z"/><path d="m-1216 449h-80z"/><path d="m-1280 369 64 64z"/><path d="m-976-943h16v-128-96h-64v80 144z"/><path d="m-1264-879v32z"/><path d="m-1136-879v32z"/><path d="m-1136-847v-32-32-32h16v64 64h-16z"/><path d="m-1136-879h-128z"/><path d="m-1264-879h128v32h-128z"/></g><g id="c"><path d="m-352 625h-96-64-64 192z"/><path d="m-1408-175v-192 32 192z"/><path d="m-1408-175v32 192-64z"/><path d="m-832-1295h-32-32-80 16z"/><path d="m-736-1295h-64-32-128 192z"/><path d="m-576-1359h-160-64v64h64 160z"/><path d="m-512-1295v-64h-64v64z"/><path d="m-800-1295v-64h-48-16v64z"/><path d="m0-591v128-128-64z"/><path d="m704-79h32 32-96-64z"/><path d="m896-79h48z"/><path d="m864-79h10.6667 21.3333z"/><path d="m704-79h32z"/><path d="m608-79h-64 64 64 32z"/><path d="m432-79h48z"/><path d="m160-79h-96z"/><path d="m384-431h-128z"/><path d="m64-431v128z"/><path d="m64-303v224-64-32z"/><path d="m960 305v160 32z"/><path d="m736 17h-32z"/><path d="m736 17h-32z"/><path d="m864 17h10.6667-10.6667-21.3333-85.3334-21.3333z"/><path d="m864 17h-128-32-64z"/><path d="m480-47h160v-16h-96-64z"/><path d="m544-63h-64z"/><path d="m512 177v-96z"/><path d="m512 209v128 32 32-96-64-64z"/><path d="m512 401v64z"/><path d="m512 177v32z"/><path d="m512 465v-64-32 32 64 32z"/><path d="m512 337v32z"/><path d="m512 497h64z"/><path d="m640 497v-32z"/><path d="m928 81h32z"/><path d="m928 81v-64z"/><path d="m832 465v32z"/><path d="m960 305h-32z"/><path d="m928 241h32z"/><path d="m960 81h-10.6667-21.3333v160h32z"/><path d="m928 305v-64z"/><path d="m592 465h32z"/><path d="m576 465h16z"/><path d="m624 465h16z"/><path d="m544 81h-32z"/><path d="m608 17v32h32v-32z"/><path d="m544 17v64z"/><path d="m576 465v32z"/><path d="m512 337v-128h-64v128z"/><path d="m448 337h32 32z"/><path d="m512 209h-32-32z"/><path d="m352-47h64-192z"/><path d="m352-47h-128v224h128z"/><path d="m224 177v224h128v-64-128-32z"/><path d="m448 209h-32-64v128h64 32z"/><path d="m224 401h-224v192h224z"/><path d="m352 593 64-64v-128h-64-128v192z"/><path d="m416 337h-64v64h64z"/><path d="m416-15v-32h-64v224h64z"/><path d="m352 177v32h64v-32z"/><path d="m224 593h-224z"/><path d="m224-47v192 32z"/><path d="m416-15v192 32-32z"/><path d="m224 401h-224z"/><path d="m-832-943h-64 32 64z"/><path d="m-576-943h64-160-64z"/><path d="m-512-1215v-32-48 64 32 32z"/><path d="m-512-1247v-48z"/><path d="m-512-1215v48 176-48z"/><path d="m-960-1167v-128h-16-48v128z"/><path d="m-256-111h32z"/><path d="m-256-815h32z"/><path d="m-224-335v192 32h-32v-224z"/><path d="m-224-559v192 32h-32v-224z"/><path d="m-224-783v192 32h-32v-32-192z"/><path d="m-160-399h-32-16 32z"/><path d="m-96-815v192z"/><path d="m0-655v-160h-96v192 32h96z"/><path d="m-96-591v192h96v-32-32-128z"/><path d="m-160-623v-192h-32v192 32h32z"/><path d="m-192-591v192h32v-192z"/><path d="m-160-623v32 192-192z"/><path d="m-192-623v-192h-16-16-32v192z"/><path d="m-192-207h192v-128h-192z"/><path d="m0-143h-192v32h192z"/><path d="m-192-143h192-176-32z"/><path d="m-224-783v-32h-32v224h32z"/><path d="m-256-591v32 192h32v-192-32z"/><path d="m-256-367v32 192h32v-192-32z"/><path d="m-256-143v32h32v-32z"/><path d="m-256-591v32z"/><path d="m-256-815v32 192z"/><path d="m-192 49h-32z"/><path d="m-128 401v96 128-32z"/><path d="m-128 177v96 128-96-64-16z"/><path d="m0 401h-64v192h64z"/><path d="m0 593h-64z"/><path d="m-64 401v192z"/><path d="m-224 49h-224v224h224z"/><path d="m-448 273v224h224v-224z"/><path d="m-448 497v128h96 128v-128z"/><path d="m-128 273v-96-64l-64-64h-32v224z"/><path d="m-128 497v-96-128h-96v224z"/><path d="m-128 625v-128h-96v128z"/><path d="m-128 113-64-64z"/><path d="m-1024-527h-224 192z"/><path d="m-832-527h-192z"/><path d="m-512-527h-32z"/><path d="m-1280-815v32z"/><path d="m-1280-879v64 32 128z"/><path d="m-1280-559 32 32z"/><path d="m-512-943v64 32z"/><path d="m-512-527v-192z"/><path d="m-848-719h-48z"/><path d="m-512-719h-96z"/><path d="m-896-719h-224z"/><path d="m-576-943h-160-64v64h192 32z"/><path d="m-512-879v-64h-64v64z"/><path d="m-976-879h16 64v32h-64-16z"/><path d="m-976-943h16v64h-16z"/><path d="m-896-879h32v-16h-32z"/><path d="m-1024-943h48v64 32h-48z"/><path d="m-832-879v32z"/><path d="m-832-847h64z"/><path d="m-608-879h-192-32z"/><path d="m-768-719v-128z"/><path d="m-864-879h-32-64z"/><path d="m-976-847h16-32-32z"/><path d="m-608-719v-128z"/><path d="m-608-847h96z"/><path d="m-896-879v-16 48z"/><path d="m-832-847v-32h-32-32v32z"/><path d="m-800-879h-64 32z"/><path d="m-800-943h-64v64h64z"/><path d="m-768-847h-64-64z"/><path d="m-864-847h-32z"/><path d="m-864-895h-32z"/><path d="m-1120-815v-64-64 224z"/><path d="m-1120-879v64z"/><path d="m-1264-911v32z"/><path d="m-1136-911v32z"/><path d="m-1136-911h-128z"/><path d="m-1264-911h128v32h-128z"/><path d="m-1280-879v-64h16v32 32 32 32h-16z"/><path d="m-1295-655h15v64h-15z"/><path d="m-1295-591h15z"/><path d="m-512-143v-128z"/><path d="m-512-271v128-112z"/><path d="m-512-463v128z"/><path d="m-448 49h-64v224h64z"/><path d="m-512 273v224h64v-224z"/><path d="m-512 497v128h64v-128z"/><path d="m-832-452.3333v-10.6667z"/><path d="m-960-420v-.3333 10.6666 10.6667z"/><path d="m-832-79v-64-32z"/><path d="m-832-175v-32z"/><path d="m-832-420.3333v-10.6667 11z"/><path d="m-832-431v10.6667 10.3333-21-10.6667-10.6666z"/><path d="m-512-335h-32z"/><path d="m-720-64v-15z"/><path d="m-512-143h-32z"/><path d="m-544-79h-112z"/><path d="m-656-79v15z"/><path d="m-656-64v-15z"/><path d="m-656-64h-64z"/><path d="m-832-79h112z"/><path d="m-945-79h-15z"/><path d="m-704 209v96 64 64-128z"/><path d="m-640 561 64 64z"/><path d="m-512 49h-128v160 64h128z"/><path d="m-640 273v160 64h128v-224z"/><path d="m-640 497v64l64 64h64v-128z"/><path d="m-640 497v-64 32 96z"/><path d="m-640 49v64 32 64z"/><path d="m-736 305v64h32v-64z"/><path d="m-704 113h-32v64h32z"/><path d="m-1280 145v224-32z"/><path d="m-704 113h-64-32 64z"/><path d="m-704 113v-128h-16-48v128z"/><path d="m-736 113h-64v64h64z"/><path d="m-704 305v-96-32h-64v128z"/><path d="m-800 433h96-32-160-32z"/><path d="m-1408 49h128z"/><path d="m-1408 49v32h128v-32z"/><path d="m-992 433h-160-64z"/><path d="m-1280 49v32 32z"/><path d="m-1280 113v32z"/><path d="m-1280 369 64 64z"/><path d="m944-431 21.5 21.5 23 23 19.5 19.5z"/><path d="m965.5-409.5-22.5 22.5 23 23 22.5-22.5z"/><path d="m987.5-122.5 20.5-20.5z"/><path d="m966-364 22.5-22.5z"/><path d="m942-122 22.5 22.5 23-23-22.5-22.5z"/><path d="m942-122 22.5 22.5z"/><path d="m640 49v-32z"/><path d="m-992-943h32-16-48z"/><path d="m-960-1167v96z"/><path d="m-960-1167v96h-32v-96z"/><path d="m-960-1071h-32z"/><path d="m-960-879v32z"/><path d="m-960-879v-64z"/><path d="m-960-847v-32-64h-32v96z"/><path d="m-1136-943v32z"/><path d="m-1264-943h128v32h-128z"/><path d="m-800-175h-32z"/><path d="m-800-175h-32v32h32z"/><path d="m-832-1151h-48z"/><path d="m-544-1151h-16z"/><path d="m-752-1151h-48z"/><path d="m-912-1151h-16z"/><path d="m-592-1151h-48z"/><path d="m-672-1151h-48z"/><path d="m-736-1167h224z"/><path d="m-736-1151h224v-16h-224z"/><path d="m-960-1167v16h224v-16z"/><path d="m-880-1087h48z"/><path d="m-560-1087h16z"/><path d="m-800-1087h48z"/><path d="m-928-1087h16z"/><path d="m-640-1087h48z"/><path d="m-720-1087h48z"/><path d="m-720-1103v16z"/><path d="m-592-1135v-16z"/><path d="m-544-1151v64h32v-64z"/><path d="m-592-1151v64h32v-64z"/><path d="m-672-1135v-16z"/><path d="m-640-1103v16z"/><path d="m-640-1135v32h48v-32z"/><path d="m-672-1151v64h32v-64z"/><path d="m-720-1135v32h48v-32z"/><path d="m-832-1135v-16z"/><path d="m-800-1103v16z"/><path d="m-752-1135v-16z"/><path d="m-752-1151v64h32v-64z"/><path d="m-800-1135v32h48v-32z"/><path d="m-832-1151v64h32v-64z"/><path d="m-880-1103v16z"/><path d="m-880-1135v32h48v-32z"/><path d="m-912-1151v64h32v-64z"/><path d="m-960-1151v64h32v-64z"/><path d="m-736-1071h-224z"/><path d="m-736-1071h224v-16h-224z"/><path d="m-960-1087v16h224v-16z"/><path d="m-992-943h-32z"/><path d="m-960-1071v128z"/><path d="m-960-1167h-32z"/><path d="m-992-1167v96z"/><path d="m-960-1071v-96h-32v96z"/><path d="m-992-847h32-64z"/><path d="m-1024-847h32z"/><path d="m-992-847v-96z"/><path d="m-960-943v64 32h-32v-96z"/><path d="m-960-1071v-96z"/><path d="m-512-1167v96z"/><path d="m-960-1167h224z"/><path d="m-736-1167h224v16h-224z"/><path d="m-960-1151v-16h224v16z"/><path d="m-720-1151v16z"/><path d="m-592-1087v-16z"/><path d="m-544-1087v-64z"/><path d="m-544-1087v-64h32v64z"/><path d="m-560-1151v64z"/><path d="m-592-1087v-64h32v64z"/><path d="m-672-1087v-16z"/><path d="m-640-1151v16z"/><path d="m-640-1135h48z"/><path d="m-592-1103h-48z"/><path d="m-640-1103v-32h48v32z"/><path d="m-672-1087v-64h32v64z"/><path d="m-672-1103h-48z"/><path d="m-720-1135h48z"/><path d="m-720-1103v-32h48v32z"/><path d="m-832-1087v-16z"/><path d="m-800-1151v16z"/><path d="m-752-1087v-16z"/><path d="m-752-1087v-64h32v64z"/><path d="m-800-1135h48z"/><path d="m-752-1103h-48z"/><path d="m-800-1103v-32h48v32z"/><path d="m-832-1087v-64h32v64z"/><path d="m-880-1151v16z"/><path d="m-832-1103h-48z"/><path d="m-880-1135h48z"/><path d="m-880-1103v-32h48v32z"/><path d="m-912-1087v-64z"/><path d="m-912-1087v-64h32v64z"/><path d="m-928-1151v64z"/><path d="m-960-1087v-64h32v64z"/><path d="m-512-1071h-224z"/><path d="m-736-1087h224v16h-224z"/><path d="m-960-1071v-16h224v16z"/><path d="m1008-287v64h16v-64z"/><path d="m1008-223h16z"/><path d="m1024-223v-64z"/><path d="m988.5-386.5 19.5 19.5z"/><path d="m944-431 21.5 21.5z"/><path d="m-1408-207v-160 192z"/><path d="m-992-1295h-160-64 160 32z"/><path d="m-768-1295h-192-32 192z"/><path d="m-672-1295h160-64-160z"/><path d="m-672-1310v15h-64v-15z"/><path d="m-736-1310v15z"/><path d="m966-364-23-23z"/><path d="m943-387 22.5-22.5 23 23-22.5 22.5z"/><path d="m965.5-409.5-22.5 22.5z"/><path d="m944-79h-112 32 32z"/><path d="m768-79h64z"/><path d="m448-431h128 96z"/><path d="m400-431h32z"/><path d="m208-431h32z"/><path d="m768-447v16h64v-16z"/><path d="m832-431v-16z"/><path d="m832-447h-64z"/><path d="m640-287h32z"/><path d="m942-122 23-23 22.5 22.5-23 23z"/><path d="m987.5-122.5-22.5-22.5z"/><path d="m942-122 23-23z"/><path d="m448-431v32z"/><path d="m640-287h-64z"/><path d="m256-431v32z"/><path d="m512 177v64z"/><path d="m512 305v96 64z"/><path d="m512 465v32z"/><path d="m736 497h32-96z"/><path d="m736 497h32z"/><path d="m928 81h21.3333 10.6667-32-10.6667z"/><path d="m608 17v32z"/><path d="m608 49v-32h32v32z"/><path d="m640 49h-32z"/><path d="m512 305h16v-64h-16z"/><path d="m672 497v15h64v-15z"/><path d="m672 497v15z"/><path d="m736 512h-64z"/><path d="m-1152-943h16-128z"/><path d="m-736-943h-64-96z"/><path d="m-736-943h-160-64 128 32z"/><path d="m-960-943h-32-32z"/><path d="m-512-1167v-32h128v96 64h-128z"/><path d="m-512-1039h128-192z"/><path d="m-512-1167v128 32 64-48z"/><path d="m-960-1263v96h-32v-16-64-16z"/><path d="m-992-1295h32v32h-32-96-64v-32z"/><path d="m-1088-1167h96 32v96 128h-64-96-16-16v-128-96z"/><path d="m-1152-1263h64v16 64 16h-64z"/><path d="m-1008-1247h16v64h-16z"/><path d="m-1088-1247h16v64h-16z"/><path d="m-1072-1247h64v64h-64z"/><path d="m-1008-1247h-64-16v-16h96v16z"/><path d="m-1280-1167v-64l64-64h64v32 96 96h-128z"/><path d="m-1152-1071v128h-112-16v-128z"/><path d="m-1088-1167v-16h16 64 16v16z"/><path d="m-1280-1167v96 128-128z"/><path d="m-960-1263v-32 128z"/><path d="m-960-1167v96z"/><path d="m-832-527h-192z"/><path d="m-1024-527h-224z"/><path d="m-1280-591v32z"/><path d="m-1280-943v64z"/><path d="m-1280-879v224-64z"/><path d="m-1280-943v64z"/><path d="m-1280-559 32 32z"/><path d="m-512-847v-32z"/><path d="m-608-879h-224v32h64 160z"/><path d="m-512-847v-32h-96v32z"/><path d="m-672-719h64v-128h-160v128z"/><path d="m-736-943h64v15h-64z"/><path d="m-960-847h96v-32h-96z"/><path d="m-960-847v-32-64h-64v96z"/><path d="m-896-719h-224 64z"/><path d="m-672-719h-96-128 64z"/><path d="m-672-928v-15z"/><path d="m-1120-943v224z"/><path d="m-512-527v-192h-64v192z"/><path d="m-768-719h-80-48z"/><path d="m-512-719h-96z"/><path d="m-1024-943v96z"/><path d="m-608-847h96z"/><path d="m-512-879h-64-32z"/><path d="m-608-719v-128z"/><path d="m-864-847v-32z"/><path d="m-960-879v-64z"/><path d="m-864-847h-96 64z"/><path d="m-1264-943v32z"/><path d="m-1280-655h-15z"/><path d="m-1295-591h15z"/><path d="m-512-463h-32-64 32z"/><path d="m-544-463h32z"/><path d="m-544-527v64z"/><path d="m-832-463v-64z"/><path d="m-512-143v-128h-32-32v128z"/><path d="m-512-463h-64v128h64z"/><path d="m-1152-441.6667v10.6667h64v-10.6667-21.3333h-64z"/><path d="m-832-441.6667v-21.3333 10.6667z"/><path d="m-1152-15h64z"/><path d="m-720-15h-112 64z"/><path d="m-896-15h-64z"/><path d="m-832-15h112 16-32-160z"/><path d="m-960-15v-64z"/><path d="m-960-207v32z"/><path d="m-960-409.6667v-10.6666-10.6667-21.3333 21.3333 32z"/><path d="m-960-377.6667v-21.3333-10.6667 10.6667 192z"/><path d="m-832-79v-64z"/><path d="m-832-377.6667v-21.3333z"/><path d="m-832-399v-11-10.3333.3333z"/><path d="m-832-431v-10.6667z"/><path d="m-832-431v21 11z"/><path d="m-544-271h32z"/><path d="m-544-335h32-64-32z"/><path d="m-544-287v-32z"/><path d="m-544-335v16z"/><path d="m-720-79v15z"/><path d="m-544-143v64z"/><path d="m-656-79h112z"/><path d="m-656-64v-15z"/><path d="m-832-143v-32h32v32z"/><path d="m-832-143h32z"/><path d="m-800-175v32z"/><path d="m-832-207h-128 96z"/><path d="m-832-207v-170.6667h-128v170.6667z"/><path d="m-832-377.6667v-21.3333h-128v21.3333z"/><path d="m-960-143h15z"/><path d="m-960-79h15z"/><path d="m-960-143v64h15v-64z"/><path d="m-945-143v64z"/><path d="m-832-30v15h-64v-15z"/><path d="m-896-30v15z"/><path d="m-1152-15v-32z"/><path d="m-1152-441.6667v-21.3333 32 21.3333z"/><path d="m-1152-271v85.3333 138.6667-32-128z"/><path d="m-1024-239v53.3333 170.6667-64-128z"/><path d="m-1024-441.6667v-21.3333 32 21.3333z"/><path d="m-1088-409.6667v-32 10.6667 160z"/><path d="m-1088-409.6667v-21.3333-32 21.3333z"/><path d="m-1088-47v32z"/><path d="m-1024-239v-170.6667h-64v138.6667 85.3333h64z"/><path d="m-1088-185.6667v138.6667 32h64v-170.6667z"/><path d="m-1024-409.6667v-21.3333h-64v21.3333z"/><path d="m-1088-47h-64z"/><path d="m-1216-409.6667v10.6667 160z"/><path d="m-1152-271v-138.6667h-64v170.6667 53.3333h64z"/><path d="m-1216-185.6667v170.6667h64v-32-138.6667z"/><path d="m-1152-409.6667v-21.3333h-48-16v21.3333z"/><path d="m-1408-207h128-32z"/><path d="m-1280-15v-192h-128v32 160z"/><path d="m-1280-15v64z"/><path d="m-1024-15v32z"/><path d="m-1088-15v32h64v-32z"/><path d="m-1216-15v32h64v-32z"/><path d="m-1408 49h128v-64h-128z"/><path d="m-1232-1247v32h32v-32z"/><path d="m-1200-1247v32z"/><path d="m-1232-1215v-32z"/><path d="m-1200-1215h-32z"/><path d="m-1232-1247h32z"/><path d="m-1232-1215v-32h32v32z"/><path d="m-1472 337v128 96-96z"/><path d="m-1472 17v224z"/><path d="m-1072 625h-112z"/><path d="m-1408-431v-32 64 32z"/><path d="m-1408-367v160z"/><path d="m384-399v-32z"/><path d="m672-223h-32z"/><path d="m1008-223h-32z"/><path d="m896-287h-64-64-96v64h96 64 64z"/><path d="m976-223v-64h-80v64z"/><path d="m832-399h-64v112h64z"/><path d="m832-287h64 80 32z"/><path d="m672-287h96-128z"/><path d="m768-399v-32 144z"/><path d="m832-431v32z"/><path d="m976-287h32z"/><path d="m976-223h32v-64h-32z"/><path d="m768-399v-32z"/><path d="m832-399v-32h-64v32z"/><path d="m672-287h-32v64h32z"/><path d="m832-111v32z"/><path d="m768-223v112h64v-112z"/><path d="m768-79v-32z"/><path d="m768-111v32h64v-32z"/><path d="m448-399v-32h-16-32-16v32z"/><path d="m192-399v-32z"/><path d="m256-399v-32h-16-32-16v32z"/><path d="m-960-431v-21.3333-10.6667h-64v21.3333 10.6667z"/><path d="m-1312-431h96v-32h-192v32z"/><path d="m-832-431v-32 21.3333z"/><path d="m-1312-431v42.6667z"/><path d="m-960-79v-64z"/><path d="m-960-79v64z"/><path d="m-960-175v32z"/><path d="m-832-399v21.3333 170.6667 32z"/><path d="m-832-399v224-96-64z"/><path d="m-832-431v32z"/><path d="m-720-79v15z"/><path d="m-656-79h112-16z"/><path d="m-720-79h64 96-48z"/><path d="m-656-64v-15h-64v15z"/><path d="m-720-79h-112z"/><path d="m-1152-431v-10.6667 32 138.6667z"/><path d="m-960-399v-32h-64v192 32h64z"/><path d="m-1024-207v128h64v-64-32-32z"/><path d="m-1088-271v-160h-64v160 64h64z"/><path d="m-1152-207v128h64v-128z"/><path d="m-1152-79v32h64v-32z"/><path d="m-1024-431v-10.6667 32 170.6667z"/><path d="m-1088-271v64 128 32-138.6667z"/><path d="m-1216-239v-160-32h-96v192 32h32 64z"/><path d="m-1280-207v128h64v-128z"/><path d="m-1408-207h96v192h-96z"/><path d="m-1312-431v42.6667 149.3333z"/><path d="m-1216-79h-64z"/><path d="m-1280-79v-128 192z"/><path d="m-1216-239v32 128 64-170.6667z"/><path d="m-1216-431v32-10.6667-21.3333-32z"/><path d="m-1280 113v32z"/><path d="m-1280 113v-64z"/><path d="m-1088-15v24 8z"/><path d="m-928 433h-32-192 160z"/><path d="m-960 433v32h-96-96v-32z"/><path d="m-1280 401v-32l64 64v32h-64z"/><path d="m-1216 465v-32z"/><path d="m-1152 433h-64z"/><path d="m-1280 369 64 64z"/><path d="m-1056 625h-16-112-96v-48h176 48z"/><path d="m-1008 577h48v48h-80-16v-48z"/><path d="m-1024 561v-64h16v64z"/><path d="m-1024 497v64h-64v-64z"/><path d="m-1056 481h48v16h-16-64-16v-16z"/><path d="m-1088 561h64 16v16h-48-48v-16z"/><path d="m-1056 481h-48-176v-16h64 64 96z"/><path d="m-960 465v16h-48-48v-16z"/><path d="m-1008 561v-64-16h48v96h-48z"/><path d="m-1104 561v-64h16v64z"/><path d="m-1280 481h176v16 64 16h-176z"/><path d="m-1312-15v64 64 96h-96v-192-32z"/><path d="m-1312 209v128 64 32h-96v-192-32z"/><path d="m-1312 433v160l-96-96v-32-32z"/><path d="m-1280 113v32 192h-32v-128-96z"/><path d="m-1280 401v64 16 96 48l-32-32v-160-32z"/><path d="m-1280 337h-32z"/><path d="m-1280 625h-32v-32z"/><path d="m-1312 593v32h-96v-128z"/><path d="m-1472-79 64-128v192 32h-64z"/><path d="m-1408 17v192 32h-64v-224z"/><path d="m-1408 241v192 32h-64v-128-64-32z"/><path d="m-1408 465v32 128l-64-64v-96z"/><path d="m-1088-951v8h64v-8z"/><path d="m1008-367-19.5-19.5-23-23-21.5-21.5z"/><path d="m1008-367-64-64h-45l109 109z"/><path d="m899-431h45z"/><path d="m384-79h-128-64-32 48z"/><path d="m608-79h-160-64 48 48 64z"/><path d="m672-431h96z"/><path d="m384-431h-128z"/><path d="m64-335v32 128h32v-160z"/><path d="m160-79h32v-64h-128v64z"/><path d="m192-143v-32h-32-64-32v32z"/><path d="m160-335v160h32v-160z"/><path d="m256-335v160h32v-160z"/><path d="m384-143v-32h-32-64-32v32z"/><path d="m384-79v-64h-128v64z"/><path d="m448-335v160h32v-160z"/><path d="m352-335v160h32v-160z"/><path d="m576-143v-32h-32-64-32v32z"/><path d="m576-223v-64-48h-32v160h32z"/><path d="m672-143h-96-128v64h160 64z"/><path d="m768-79v-64h-96v64z"/><path d="m672-143h96v-80h-96-32-64v48 32z"/><path d="m832-79h112l64-64v-80h-176z"/><path d="m64-431v64h128v-32-32z"/><path d="m64-367v32h32 64 32v-32z"/><path d="m256-367v32h32 64 32v-32z"/><path d="m256-335v-32-32h-64v32 32 160h64z"/><path d="m192-175v32 64h64v-64-32z"/><path d="m256-431v32 32h128v-32-32z"/><path d="m448-431v32 32h128v-64z"/><path d="m448-335v-32-32h-64v32 32 160h64z"/><path d="m384-175v32 64h64v-64-32z"/><path d="m448-367v32h32 64 32v-32z"/><path d="m768-431h-96-96v64 32 48h64 128z"/><path d="m899-431h-67v144h176v-35z"/><path d="m544-335h-64z"/><path d="m480-175h64z"/><path d="m352-335h-64z"/><path d="m288-175h64z"/><path d="m96-175h64z"/><path d="m160-335h-64z"/><path d="m944-79 20.5-20.5 23-23 20.5-20.5z"/><path d="m768-223h-96z"/><path d="m1008-223h-32-80-64z"/><path d="m832-431v32 112z"/><path d="m832-223v112 32z"/><path d="m768-143v64-32-112z"/><path d="m576-223h64z"/><path d="m576-287v64z"/><path d="m448-399h-64z"/><path d="m256-399h-64z"/><path d="m64-335v-32-64 128z"/><path d="m576 17h32-64z"/><path d="m640 17h-32z"/><path d="m896 17h32-32-32z"/><path d="m512 305v160z"/><path d="m640 241v192 32z"/><path d="m640 433v32z"/><path d="m640 465v32z"/><path d="m928 81h21.3333z"/><path d="m896 81h32-10.6667z"/><path d="m896 81h-32-32z"/><path d="m864 17h-224v64h128 64 32z"/><path d="m896 81v-64h-32v64z"/><path d="m896 17v64h21.3333 10.6667v-64z"/><path d="m832 465v-32 32 32z"/><path d="m896 305h32 32-32z"/><path d="m832 241v64h64v-64z"/><path d="m928 81v160z"/><path d="m928 241h-32 32 32z"/><path d="m896 241v64h32v-64z"/><path d="m832 465h96z"/><path d="m928 305v160z"/><path d="m928 305v160h32v-160z"/><path d="m928 465h-96v32h128z"/><path d="m928 465 32 32v-32z"/><path d="m832 241v-160h-64v160 64h64z"/><path d="m768 305v128h64v-128z"/><path d="m672 497h96v-32h-128v32z"/><path d="m768 465h-128z"/><path d="m768 81v160z"/><path d="m768 433v32 32-32z"/><path d="m768 465v32z"/><path d="m832 433h-64v32h64z"/><path d="m544 305h32v-64h-32z"/><path d="m640 81v-64h-32-32v64 160h64z"/><path d="m576 241v64 128h64v-192z"/><path d="m576 81h-32-32z"/><path d="m576 81v160z"/><path d="m576 305h-32-32z"/><path d="m512 241h16 16z"/><path d="m544 81h-32z"/><path d="m576 81h-32-32 32z"/><path d="m576 17h-32v64h32z"/><path d="m544 305h-16-16z"/><path d="m544 241h-16v64h16z"/><path d="m576 465v-32z"/><path d="m576 433v32h16 32 16v-32z"/><path d="m512 465v32h64v-32z"/><path d="m-384-1199v64z"/><path d="m-384-1135v32-96z"/><path d="m-384-1103v64z"/><path d="m-384-1103v-32h8v32z"/><path d="m-384-1135h8z"/><path d="m-1472 241v32z"/><path d="m-1072 625h16 16z"/><path d="m-1040 633v-8z"/><path d="m-1072 633v-8h32v8z"/><path d="m-1480 241h8v32h-8z"/><path d="m-1472 273h-8z"/><path d="m64-175v-160h32v160z"/><path d="m96-175h64 32v32h-128v-32z"/><path d="m256-175v-160h32v160z"/><path d="m160-175v-160h32v160z"/><path d="m288-175h64 32v32h-128v-32z"/><path d="m352-175v-160h32v160z"/><path d="m448-175v-160h32v160z"/><path d="m480-175h64 32v32h-128v-32z"/><path d="m544-335h32v160h-32z"/><path d="m32-367h32v32 160 32h-32z"/><path d="m160-335h-64-32v-32h128v32z"/><path d="m192-175v-160-32h64v32 160 32h-64z"/><path d="m352-335h-64-32v-32h128v32z"/><path d="m384-175v-160-32h64v32 160 32h-64z"/><path d="m544-335h-64-32v-32h128v32z"/><path d="m288-335v160z"/><path d="m352-175v-160z"/><path d="m480-335v160z"/><path d="m544-175v-160z"/><path d="m96-335v160z"/><path d="m160-175v-160z"/><path d="m512 305v160h64v-160z"/><path d="m928 305h-96v160h96z"/><path d="m576 81h-64v160h64z"/><path d="m928 81h-32-64v160h96z"/><path d="m768 465h-96-32z"/><path d="m640 241v224-64z"/><path d="m768 81v64 32 64z"/><path d="m512 81v96 64z"/><path d="m640 81v160z"/><path d="m768 81h-128z"/><path d="m832 305v128 32z"/><path d="m832 81v160z"/><path d="m928 305h-32-64z"/><path d="m832 241h64 32z"/><path d="m768 241v224-32-128z"/><path d="m512 465h64z"/><path d="m512 241h32 32z"/><path d="m576 465v-32-128z"/><path d="m-384-1103h8z"/><path d="m-384-1135v32h8v-32z"/><path d="m-376-1103v-32z"/><path d="m-1280-591v32z"/><path d="m-1280-591v32-96z"/><path d="m-1295-591h15v-64h-15z"/><path d="m-1280-655h-15z"/><path d="m-1295-655v64z"/><path d="m-768-15h-64z"/><path d="m-832-15v-15z"/><path d="m-1152-15v-32z"/><path d="m-1024-15v-64z"/><path d="m-1088-47v32h-64v-32z"/><path d="m-1152 17v-8-24z"/><path d="m-1152 17v24z"/><path d="m-768 369h64-32-64z"/><path d="m-1024-15v32z"/><path d="m-768 177h64-32-64z"/><path d="m-800 113v64z"/><path d="m-800 305h64 32-64z"/><path d="m-800 369h64v-64h-64z"/><path d="m-1024 17h-64z"/><path d="m-896 433h160-32z"/><path d="m-768 433h32 32v-64h-64z"/><path d="m-1216 17v-32z"/><path d="m-1152 17h-64z"/><path d="m-1024-951v8z"/><path d="m-1088-943v-8z"/><path d="m-1088-943v-8h64v8z"/><path d="m-1024-943h-64z"/><path d="m-1088-951h64z"/><path d="m-1040 625h80-96-16z"/><path d="m-1040 625h80z"/><path d="m-1072 625v8z"/><path d="m-1072 625v8h32v-8z"/><path d="m-1072 633h32z"/><path d="m-1472 241h-8z"/><path d="m-1480 273h8v-32h-8z"/><path d="m-1480 241v32z"/><path d="m-1216-1295-64 64z"/><path d="m-736-1295h-32z"/><path d="m-800-1295h-192-32z"/><path d="m-576-1295h64-160z"/><path d="m-736-1295h64v-15h-64z"/><path d="m-672-1295v-15z"/><path d="m-672-1310h-64z"/><path d="m-896-943h-128-32-64 96 64z"/><path d="m-736-943h64 96-224z"/><path d="m-672-943h160-64z"/><path d="m-576-1231v-64 64 32z"/><path d="m-384-1039h-192z"/><path d="m-384-1199h-128-64z"/><path d="m-576-1199h64v-32h-64z"/><path d="m-576-1231h64v-64h-64z"/><path d="m-384-1103v-32-64 160z"/><path d="m-384-1103v-32z"/><path d="m-576-943h64v-64h-64z"/><path d="m-576-1007h64v-32h-64z"/><path d="m-1024-1167v96 128-64-32z"/><path d="m-1280-1231v64z"/><path d="m-1056-1295h-160l-64 64v64 96h224z"/><path d="m-1280-1071v128h160 64v-128z"/><path d="m-1024-1167v-128h-32v224h32z"/><path d="m-1056-1071v128h32v-128z"/><path d="m-1024-527h-32-192z"/><path d="m-608-527h64 32-64z"/><path d="m-576-527h-32z"/><path d="m-1248-527-32-32z"/><path d="m-608-719h32 64-96-64z"/><path d="m-608-719h-64-160z"/><path d="m-736-943v15z"/><path d="m-736-928h64z"/><path d="m-672-928v-15h-64v15z"/><path d="m-1120-943h-160v64 160h160z"/><path d="m-832-719v192z"/><path d="m-576-527v-192z"/><path d="m-1056-719h-64-160v64 96l32 32h192z"/><path d="m-1024-527h192v-192h-64-160v192z"/><path d="m-608-463h-224z"/><path d="m-832-463v-64z"/><path d="m-608-463v-64h-224v64z"/><path d="m-608-463h64v-64h-64z"/><path d="m-576-335h-16z"/><path d="m-576-463v128z"/><path d="m-576-143h-16z"/><path d="m-576-143v-128z"/><path d="m-832-431v32z"/><path d="m-832-143v-32 32 64z"/><path d="m-832-271v96 32z"/><path d="m-832-399v64-53.3333z"/><path d="m-576-271h32-64z"/><path d="m-608-271h-224z"/><path d="m-576-271h-32 16z"/><path d="m-608-271v-64h-224v64z"/><path d="m-576-335h-16-16z"/><path d="m-608-271h64v-16-32-16h-64z"/><path d="m-720-79h112v-64h-224v64z"/><path d="m-576-143h-16-16z"/><path d="m-608-143h64 32-64z"/><path d="m-608-143v64h48 16v-64z"/><path d="m-832-30h-64z"/><path d="m-896-15h64v-15h-64z"/><path d="m-1280 337v32 32z"/><path d="m-1280 49v-64z"/><path d="m-960 433h32 32z"/><path d="m-960 433v32z"/><path d="m-1216 433h64z"/><path d="m-1280 113h-32z"/><path d="m-1472 273v64z"/><path d="m-1472 241v32z"/><path d="m-1472-79v96z"/><path d="m-1184 625h-96-32-96 96 32z"/><path d="m-1472 561 64 64z"/><path d="m-1408-388.3333v-42.6667 64 160z"/><path d="m-576-1295h-96-64-32-32z"/><path d="m-800-1295h-224z"/><path d="m-800-943h-224 128z"/><path d="m-576-943h-224z"/><path d="m-576-1007v64-64-32z"/><path d="m-384-1199h-192z"/><path d="m-576-1199v160h192v-160z"/><path d="m-1024-1199v-32-64 128z"/><path d="m-576-1231h-24z"/><path d="m-576-1039h-24z"/><path d="m-576-1007h-24z"/><path d="m-608-527h-224z"/><path d="m-576-719h-32z"/><path d="m-608-719h-224v192h224z"/><path d="m-576-527v-192h-32v192z"/><path d="m-592-463h16-32z"/><path d="m-576-271h-16z"/><path d="m-576-463h-16v74.6667 53.3333h16z"/><path d="m-576-143v-128h-16v128z"/><path d="m-832-463v32 32 10.6667z"/><path d="m-592-463h-16-224v74.6667h240z"/><path d="m-1312-431h-96v42.6667h96z"/><path d="m-1312-431h-96z"/><path d="m-608-335h-224z"/><path d="m-832-388.3333v53.3333h224 16v-53.3333z"/><path d="m-608-143h-224z"/><path d="m-592-271h-16-224v128h224 16z"/><path d="m-1312-239v32 192-192z"/><path d="m-1312-207h-96v192h96z"/><path d="m-1408-388.3333v181.3333h96v-32-149.3333z"/><path d="m-1152 465h-64z"/><path d="m-1152 433v-32z"/><path d="m-1152 433v32z"/><path d="m-960 433h-192z"/><path d="m-960 433v-32z"/><path d="m-1056 465h96v-32h-192v32z"/><path d="m-1280 113h32z"/><path d="m-1280 401h32z"/><path d="m-1280 465h64v-32h-64z"/><path d="m-1280 433h64z"/><path d="m-960 465v160-48-96z"/><path d="m-1056 465h-96-64-64v160h96 112 16z"/><path d="m-960 625v-160h-96v160z"/><path d="m-1312-15v64z"/><path d="m-1312 113v-64z"/><path d="m-1312 401v-64z"/><path d="m-1280 401h-32z"/><path d="m-1280 337v-224h-32v96 128z"/><path d="m-1280 625v-160-32-32h-32v32 160z"/><path d="m-1408-15v32 192h96v-96-64-64z"/><path d="m-1408 209v32 192h96v-32-64-128z"/><path d="m-1408 433v32 32l96 96v-160z"/><path d="m-1280 625-32-32v32z"/><path d="m-1408 497v128h96v-32z"/><path d="m-1408-15v-192l-64 128v96h64z"/><path d="m-1472 17v224h64v-32-192z"/><path d="m-1472 241v32 64 128h64v-32-192z"/><path d="m-1472 465v96l64 64v-128-32z"/><path d="m-1408-207-64 128z"/><path d="m672 177h64 32v-32h-128v32z"/><path d="m768 401v-160-64h-32v32 192z"/><path d="m736 433h32v-32h-32z"/><path d="m672 465h96v-32h-32-64z"/><path d="m672 209v-32h-32v64 160h32z"/><path d="m640 401v64h32v-32-32z"/><path d="m736 177h-64z"/><path d="m672 433h64z"/><path d="m672 209v192 32-32z"/><path d="m736 177v32z"/><path d="m640 177v-32-64 160z"/><path d="m768 241v160 32 32z"/><path d="m768 145v-64h-128v64z"/><path d="m-576-1039v-160z"/><path d="m-576-1199h-24z"/><path d="m-1280 337v-224z"/><path d="m-1152 9v8-32z"/><path d="m-1152 177v88 72 64-32z"/><path d="m-800 369h32z"/><path d="m-1024 41v72-64z"/><path d="m-1024 41v8-32-32 32z"/><path d="m-800 177h-224z"/><path d="m-768 177h-32z"/><path d="m-768 113h-32z"/><path d="m-768 113h-32z"/><path d="m-800 113h-224v64h224z"/><path d="m-800 369v-64z"/><path d="m-800 305h-224z"/><path d="m-1024 305v64h64 64 96v-64z"/><path d="m-1088 41v-24-8 8 128z"/><path d="m-1088 41v-24z"/><path d="m-1024 265v-88-64-72h-64v104 120z"/><path d="m-1024 369v-64-40h-64v104z"/><path d="m-1024 41v-24h-64v24z"/><path d="m-896 433h128z"/><path d="m-960 369v32h64v-32z"/><path d="m-896 433v-32z"/><path d="m-960 401v32h64v-32z"/><path d="m-1248 337h-32z"/><path d="m-1216 41v-32 8 32z"/><path d="m-1216 41v-24-32 24z"/><path d="m-1216 337v-72-152z"/><path d="m-1152 177v-136h-64v8 64 152h64z"/><path d="m-1216 265v72h64v-72z"/><path d="m-1152 41v-24h-64v24z"/><path d="m-1248 113h32v-64h-32z"/><path d="m-1248 49h-32z"/><path d="m-1248 113v-64h-32v64z"/><path d="m-1216 401h64v-64h-64-32v64z"/><path d="m-1248 401v-64h-32v64z"/><path d="m-1216 401v32z"/><path d="m-1152 401h-64v32h64z"/><path d="m640 177h32v32 192h-32z"/><path d="m672 401v32 32h-32v-64z"/><path d="m672 433h64 32v32h-96z"/><path d="m736 401v-192-32h32v224z"/><path d="m768 433h-32v-32h32z"/><path d="m768 145v32h-32-64-32v-32z"/><path d="m672 177v32z"/><path d="m736 209v192 32-32z"/><path d="m-1024-79v64h64v-64z"/><path d="m-896 433h128v-64h-32-96z"/><path d="m-960 433v-64h-128-64v32 32z"/><path d="m-1280-15v64h64v-32-32-64h-64z"/><path d="m-1280 113v224h64v-224z"/><path d="m-1280 433h64v-32h-64z"/><path d="m-1024 17v32 64z"/><path d="m-1024 17v-32z"/><path d="m-768 113h-32z"/><path d="m-768 305h-32z"/><path d="m-800 177h-224 32z"/><path d="m-1088 17v-32-32 192z"/><path d="m-1152 145v32 192z"/><path d="m-960-15h64z"/><path d="m-768-15h-64-64z"/><path d="m-1024-79h64z"/><path d="m-1088-47v32z"/><path d="m-1088-47h-64z"/><path d="m-1216-79v64z"/><path d="m-1280-15v-64z"/><path d="m-1280 433v-32z"/><path d="m-1152 145v-128-8 8 24 136z"/><path d="m-960 369h-64-64z"/><path d="m-800 369h-96z"/><path d="m-1024 177v88 40z"/><path d="m-1024 17v-32z"/><path d="m-768 177h-32z"/><path d="m-800 113h-224z"/><path d="m-768 113v-128z"/><path d="m-768 305h-32z"/><path d="m-768 305v-128z"/><path d="m-1088 145v224-104z"/><path d="m-1088-15v32-8z"/><path d="m-960 433v-32-32z"/><path d="m-768 369v64z"/><path d="m-896 369v32 32z"/><path d="m-1280 337h32 32z"/><path d="m-1216 17v-8-24z"/><path d="m-1216 113h-32-32z"/><path d="m-1280 49h32 32z"/><path d="m-1216 401h-32-32z"/><path d="m-576-1007v64z"/><path d="m-576-1199v160z"/><path d="m-576-1231v-64z"/><path d="m-1024-1199v32 128z"/><path d="m-800-1199h-200-24z"/><path d="m-1000-1199h-24z"/><path d="m-776-1231h-24-200v32h200 24z"/><path d="m-600-1199v-32h-176v32z"/><path d="m-776-1231h176 24-224z"/><path d="m-1024-1231h24z"/><path d="m-1000-1231h-24v32h24z"/><path d="m-600-1199h24v-32h-24z"/><path d="m-776-1039h-24-200v32h200 24z"/><path d="m-600-1007v-32h-176v32z"/><path d="m-776-1039h176 24-224z"/><path d="m-800-1007h-200-24z"/><path d="m-1024-1039h24z"/><path d="m-1000-1007h-24z"/><path d="m-600-1007h24v-32h-24z"/><path d="m-1000-1039h-24v32h24z"/><path d="m-1024 273h32v-64-32h-32z"/><path d="m-800 273h-192-32v32h224z"/><path d="m-768 305v-32h-32v32z"/><path d="m-800 209v-32h-192v32z"/><path d="m-768 177h-32v32 64h32z"/><path d="m-1024 113h32v-32-64h-32z"/><path d="m-800 113h32v-32h-32-192v32z"/><path d="m-800 17v64h32v-64z"/><path d="m-800-15h-96-128v32h32 192z"/><path d="m-768 17v-32h-32v32z"/><path d="m-800 81h-192z"/><path d="m-800 273h-192z"/><path d="m-1088-47v192z"/><path d="m-1152 145v224z"/><path d="m-1024 273v-96 128z"/><path d="m-800 113h-192-32z"/><path d="m-768-15v32 64 32z"/><path d="m-896-15h96 32z"/><path d="m-896-15h-64-64z"/><path d="m-768 177v96 32z"/><path d="m-800 305h-224z"/><path d="m-768 177h-32z"/><path d="m-1152 369h64z"/><path d="m-1088-47h-64z"/><path d="m-1088 145v224z"/><path d="m-1152-47v32 32 128z"/></g><g id="d"><path d="m-800-1295h-224v64h224z"/><path d="m-576-1231v-64h-224v64z"/><path d="m-800-1199h-224v160h224z"/><path d="m-576-1039v-160h-224v160z"/><path d="m-800-1007h-224v64h224z"/><path d="m-576-943v-64h-224v64z"/><path d="m-800-15h-224v-64h224z"/><path d="m-768-79v64h-32v-64z"/><path d="m-800 17h-192-32v-32h224z"/><path d="m-768-15v32h-32v-32z"/><path d="m-800 81v-64h32v64z"/><path d="m-800 81h32v32h-32-192v-32z"/><path d="m-1024 145v-32h32 192v64h-192-32z"/><path d="m-800 113h32v64h-32z"/><path d="m-1072-47v-32h48v64 32 96 32h-48z"/><path d="m-1024 145v32 96 32 64h-48v-192-32z"/><path d="m-1024 17h32v64 32h-32z"/><path d="m-800 273v-64h32v64z"/><path d="m-800 177h32v32h-32-192v-32z"/><path d="m-800 305h32v128h-192v-64-64z"/><path d="m-800 305h-160-64v-32h32 192z"/><path d="m-768 273v32h-32v-32z"/><path d="m-992 209v64h-32v-96h32z"/><path d="m-1024 369v-64h64v64z"/><path d="m-1024 369h64v64h-112v-32-32z"/><path d="m-1072-79v32h-16-64v-32z"/><path d="m-1088 145v-192h16v192 32h-16z"/><path d="m-1072 177v192 32h-16v-32-192z"/><path d="m-1152 401v-32h64v32z"/><path d="m-1088 401h16v32h-80v-32z"/><path d="m-576-1295h-224z"/><path d="m-800-943h-224z"/><path d="m-1024-1295v64z"/><path d="m-1024-943v-64z"/><path d="m-576-1199h-24-176-24z"/><path d="m-800-1231h-224 24z"/><path d="m-800-1039h-224 24z"/><path d="m-576-1007h-24-176-24z"/><path d="m-992 17v64z"/><path d="m-992 209v64z"/><path d="m-800 81v-64z"/><path d="m-800 17h-192z"/><path d="m-800 273v-64z"/><path d="m-800 209h-192z"/><path d="m-1152 369h64z"/><path d="m-1152-47h64z"/><path d="m-1088 145v32 192z"/><path d="m-1152-47v192z"/></g></defs><g stroke="#000"><use fill="none" stroke-miterlimit="0" stroke-width="10" xlink:href="#a"/><use fill="#c4c4c4" xlink:href="#a"/><use fill="none" stroke-miterlimit="0" stroke-width="10" xlink:href="#b"/><use fill="#d9d9d9" xlink:href="#b"/><use fill="none" stroke-miterlimit="0" stroke-width="10" xlink:href="#c"/><use fill="#ebebeb" xlink:href="#c"/><use fill="none" stroke-miterlimit="0" stroke-width="10" xlink:href="#d"/><use fill="#fff" xlink:href="#d"/></g></svg>