<?xml version="1.0" encoding="utf-8" ?>
<svg baseProfile="tiny" height="100%" version="1.2" viewBox="-1132.0 -940.0 2232.0 2072.0" width="100%" xmlns="http://www.w3.org/2000/svg" xmlns:ev="http://www.w3.org/2001/xml-events" xmlns:xlink="http://www.w3.org/1999/xlink"><defs><g id="bsp_ref"><polygon points="-128,128 -216,128 -216,128 -128,128" /><polygon points="-128,768 -128,768 -192,768 -192,768" /><polygon points="-128,312 -128,256 -128,224 -128,128 -128,128 -128,128 -128,224 -128,256 -128,320 -128,320" /><polygon points="-128,224 -216,224 -216,128 -128,128" /><polygon points="-224,256 -416,256 -448,256 -448,224 -224,224" /><polygon points="-216,224 -128,224 -128,256 -192,256 -224,256 -224,224" /><polygon points="-416,312 -544,312 -640,312 -640,256 -448,256 -416,256" /><polygon points="-192,312 -208,312 -224,312 -272,312 -320,312 -416,312 -416,256 -224,256 -192,256" /><polygon points="-128,256 -128,312 -192,312 -192,256" /><polygon points="-256,384 -272,384 -272,312 -224,312 -224,384" /><polygon points="-208,432 -208,400 -208,312 -192,312 -128,312 -128,320 -128,448 -208,448" /><polygon points="-224,384 -224,312 -208,312 -208,400" /><polygon points="-256,384 -272,400 -272,384" /><polygon points="-208,432 -208,448 -224,448" /><polygon points="-272,448 -272,432 -256,448" /><polygon points="-128,544 -128,576 -272,576 -272,536 -272,448 -256,448 -224,448 -208,448 -128,448" /><polygon points="-544,464 -544,312 -416,312 -320,312 -320,536 -544,536" /><polygon points="-320,536 -320,576 -544,576 -544,536" /><polygon points="-320,312 -272,312 -272,384 -272,400 -272,432 -272,448 -272,536 -320,536" /><polygon points="-272,536 -272,576 -320,576 -320,536" /><polygon points="-544,688 -544,576 -320,576 -320,768 -416,768 -544,768" /><polygon points="-320,576 -272,576 -128,576 -128,768 -192,768 -320,768" /><polygon points="-544,464 -640,464 -640,464 -544,464" /><polygon points="-640,544 -640,688 -640,768 -640,768 -640,680 -640,544" /><polygon points="-640,544 -640,464 -544,464 -544,536 -544,576 -544,688 -640,688" /><polygon points="-544,688 -544,768 -640,768 -640,688" /><polygon points="-640,312 -640,312 -544,312 -544,312" /><polygon points="-640,312 -640,312 -640,256 -640,256 -640,312" /><polygon points="-216,128 -216,128 -216,224 -216,224" /><polygon points="-216,224 -229.6,224 -229.6,128 -216,128" /><polygon points="-544,312 -544,312 -544,464 -544,464 -544,325.6" /><polygon points="-640,680 -640,544 -640,464 -544,464 -544,576 -544,768 -640,768" /><polygon points="-544,576 -544,464 -640,464 -640,544 -640,680 -640,768 -544,768" /><polygon points="-128,576 -272,576 -544,576 -544,768 -416,768 -192,768 -128,768" /><polygon points="-544,576 -272,576 -128,576 -128,768 -192,768 -416,768 -544,768" /><polygon points="-544,464 -544,325.6 -272,325.6 -272,384 -272,400 -272,432 -272,448 -272,576 -544,576" /><polygon points="-272,448 -272,432 -272,400 -272,384 -272,325.6 -544,325.6 -544,464 -544,576 -272,576" /><polygon points="-272,448 -256,448 -224,448 -208,448 -128,448 -128,544 -128,576 -272,576" /><polygon points="-128,544 -128,448 -208,448 -224,448 -256,448 -272,448 -272,576 -128,576" /><polygon points="-272,400 -256,384 -272,384" /><polygon points="-256,384 -272,400 -272,384" /><polygon points="-208,432 -208,448 -224,448" /><polygon points="-224,448 -208,448 -208,432" /><polygon points="-272,448 -272,432 -256,448" /><polygon points="-272,432 -272,448 -256,448" /><polygon points="-128,256 -128,224 -229.6,224 -448,224 -448,256" /><polygon points="-229.6,224 -128,224 -128,256 -448,256 -448,224" /><polygon points="-224,384 -224,325.6 -208,325.6 -208,400" /><polygon points="-208,325.6 -224,325.6 -224,384 -208,400" /><polygon points="-208,432 -208,400 -208,325.6 -128,325.6 -128,448 -208,448" /><polygon points="-128,325.6 -208,325.6 -208,400 -208,432 -208,448 -128,448" /><polygon points="-448,256 -128,256 -128,320 -128,325.6 -208,325.6 -224,325.6 -272,325.6 -544,325.6 -640,325.6 -640,312 -640,256" /><polygon points="-544,325.6 -272,325.6 -224,325.6 -208,325.6 -128,325.6 -128,320 -128,256 -448,256 -640,256 -640,312 -640,325.6" /><polygon points="-256,384 -272,384 -272,325.6 -224,325.6 -224,384" /><polygon points="-224,325.6 -272,325.6 -272,384 -256,384 -224,384" /><polygon points="-128,224 -128,128 -229.6,128 -229.6,224" /><polygon points="-128,128 -128,224 -229.6,224 -229.6,128" /><polygon points="-128,768 -128,768 -128,768 -192,768 -192,768" /><polygon points="-448,224 -448,256 -448,256 -448,224" /><polygon points="-128,256 -128,224 -128,128 -128,128 -128,320 -128,320" /><polygon points="-229.6,224 -448,224 -448,224 -352,224 -311.2,224" /><polygon points="-544,464 -544,464 -544,464 -544,448 -544,325.6" /><polygon points="-229.6,128 -128,128 -128,128 -216,128" /><polygon points="-416,768 -544,768 -640,768 -640,768 -544,768 -416,768" /><polygon points="-192,768 -416,768 -416,768 -320,768 -192,768" /><polygon points="-128,544 -128,576 -128,768 -128,768 -128,576 -128,544" /><polygon points="-128,320 -128,325.6 -128,448 -128,544 -128,544 -128,448 -128,320" /><polygon points="-229.6,224 -216,224 -216,224 -224,224 -448,224 -448,224" /><polygon points="-448,256 -448,256 -640,256 -640,256" /><polygon points="-448,256 -448,224 -448,224 -448,256" /><polygon points="-224,448 -224,448 -256,448 -256,448" /><polygon points="-272,432 -272,432 -272,400 -272,400" /><polygon points="-208,400 -208,400 -208,432 -208,432" /><polygon points="-256,384 -256,384 -224,384 -224,384" /><polygon points="-272,400 -272,400 -256,384 -256,384" /><polygon points="-208,432 -208,432 -224,448 -224,448" /><polygon points="-256,448 -256,448 -272,432 -272,432" /><polygon points="-224,384 -224,384 -208,400 -208,400" /><polygon points="-640,325.6 -640,312 -640,312" /><polygon points="-640,325.6 -640,312 -544,312 -544,325.6" /><polygon points="-640,464 -640,464 -640,544 -640,544" /><polygon points="-312,-456 -312,-392 -248,-392 -248,-456" /><polygon points="-448,-560 -448,-448 -448,-448 -448,-560" /><polygon points="-448,-400 -448,-192 -448,-176 -448,-176 -448,-400" /><polygon points="-224,-640 -448,-640 -448,-640 -224,-640" /><polygon points="-96,-416 -96,-448 -96,-448 -96,-256 -96,-256" /><polygon points="-96,-640 -96,-640 -96,-560 -96,-560" /><polygon points="-448,-448 -448,-560 -448,-640 -224,-640 -224,-416 -448,-416" /><polygon points="-224,-416 -224,-192 -448,-192 -448,-400 -448,-416" /><polygon points="-224,-192 -224,-170.6667 -280,-152 -448,-176 -448,-192" /><polygon points="-224,-640 -96,-640 -96,-560 -96,-448 -96,-416 -224,-416" /><polygon points="-96,-416 -96,-256 -160,-192 -224,-192 -224,-416" /><polygon points="-160,-192 -224,-170.6667 -224,-192" /><polygon points="-312,-608 -312,-544 -248,-544 -248,-608" /><polygon points="-312,-320 -312,-256 -248,-256 -248,-320" /><polygon points="-208,400 -208,400 -208,432 -208,432" /><polygon points="-208,432 -208,432 -224,448 -224,448" /><polygon points="-256,384 -256,384 -224,384 -224,384" /><polygon points="-224,448 -224,448 -256,448 -256,448" /><polygon points="-272,432 -272,432 -272,400 -272,400" /><polygon points="-224,384 -224,384 -208,400 -208,400" /><polygon points="-272,400 -272,400 -256,384 -256,384" /><polygon points="-256,448 -256,448 -272,432 -272,432" /><polygon points="-248,-456 -248,-456 -248,-392 -248,-392" /><polygon points="-248,-392 -248,-392 -312,-392 -312,-392" /><polygon points="-312,-392 -312,-392 -312,-456 -312,-456" /><polygon points="-312,-456 -312,-456 -248,-456 -248,-456" /><polygon points="-312,-392 -312,-456 -248,-456 -248,-392" /><polygon points="-448,256 -448,256 -448,296 -448,296" /><polygon points="-128,128 -128,128 -229.6,128 -352,128 -224,128 -128,128" /><polygon points="-128,320 -128,128 -128,128 -128,352 -128,352" /><polygon points="-128,544 -128,576 -128,680 -128,768 -128,768 -128,576 -128,544" /><polygon points="-128,320 -128,352 -128,544 -128,544 -128,448 -128,325.6 -128,320" /><polygon points="-311.2,224 -352,224 -352,128 -229.6,128 -229.6,224" /><polygon points="-352,296 -352,448 -352,480 -352,520 -352,488 -352,448 -352,296" /><polygon points="-352,448 -352,296 -352,224 -448,224 -448,256 -448,296 -448,448" /><polygon points="-448,480 -352,480 -352,448 -448,448" /><polygon points="-448,480 -448,520 -352,520 -352,480" /><polygon points="-288,576 -288,680 -128,680 -128,576" /><polygon points="-640,464 -640,464 -640,544 -640,680 -640,680" /><polygon points="-640,680 -640,680 -640,768 -640,768 -640,680" /><polygon points="-544,464 -544,464 -640,464 -640,464" /><polygon points="-544,576 -512,576 -472,576 -504,576 -544,576" /><polygon points="-544,680 -512,680 -512,576 -544,576" /><polygon points="-544,576 -544,464 -640,464 -640,680 -544,680" /><polygon points="-448,-560 -448,-448 -448,-448 -448,-448 -448,-560" /><polygon points="-448,-640 -448,-640 -448,-560 -448,-560" /><polygon points="-448,-448 -448,-448 -448,-416 -448,-400 -448,-400" /><polygon points="-448,-400 -448,-176 -448,-176 -448,-320 -448,-400" /><polygon points="-96,-448 -96,-560 -96,-640 -224,-640 -448,-640 -448,-560 -448,-448 -448,-400 -448,-176 -280,-152 -160,-192 -152,-200 -96,-256" /><polygon points="-448,-400 -448,-448 -448,-560 -448,-640 -224,-640 -96,-640 -96,-560 -96,-448 -96,-256 -152,-200 -160,-192 -280,-152 -448,-176" /><polygon points="-224,-640 -448,-640 -448,-640 -336,-640 -224,-640" /><polygon points="-152,-200 -96,-256 -96,-256 -152,-200" /><polygon points="-96,-640 -96,-640 -96,-640 -96,-560 -96,-560" /><polygon points="-96,-448 -96,-448 -96,-448 -96,-344 -96,-256 -96,-256 -96,-256" /><polygon points="-96,-640 -96,-640 -224,-640 -224,-640" /><polygon points="-96,-560 -96,-448 -96,-448 -96,-560" /><polygon points="-448,-176 -448,-176 -280,-152 -280,-152" /><polygon points="-152,-200 -160,-192 -160,-192 -96,-256 -96,-256" /><polygon points="-280,-152 -280,-152 -224,-170.6667 -160,-192 -160,-192" /><polygon points="-896,472 -896,696 -896,696 -896,544 -896,472" /><polygon points="-896,696 -896,768 -896,768 -896,768 -896,696" /><polygon points="448,480 448,480 448,480 448,416 448,416" /><polygon points="448,640 448,576 448,480 448,416 576,416 672,416 672,640" /><polygon points="672,672 448,672 448,640 672,640" /><polygon points="736,416 736,448 736,640 672,640 672,416" /><polygon points="736,640 736,672 672,672 672,640" /><polygon points="672,416 576,416 576,416 640,416 736,416 736,416" /><polygon points="736,672 736,672 672,672 672,672" /><polygon points="-640,768 -544,768 -544,768 -672,768 -672,768" /><polygon points="-416,768 -544,768 -640,768 -640,768 -544,768 -416,768" /><polygon points="-192,768 -320,768 -416,768 -416,768 -192,768" /><polygon points="384,768 384,768 352,768 352,768" /><polygon points="-448,-96 -448,32 -448,128 -448,128 -448,-96" /><polygon points="-448,-320 -448,-176 -448,-96 -448,-96 -448,-288 -448,-320" /><polygon points="-448,-448 -448,-448 -448,-400 -448,-400" /><polygon points="-448,520 -448,488 -448,544 -448,576 -448,576" /><polygon points="-448,296 -448,448 -448,488 -448,520 -448,480 -448,448 -448,296" /><polygon points="384,768 384,640 384,640 384,640 384,768" /><polygon points="384,640 384,576 384,576 384,640" /><polygon points="384,-320 384,-320 384,-296 384,-200 384,-200" /><polygon points="384,576 384,480 448,480 448,576" /><polygon points="160,-320 -40,-320 -64,-320 -64,-320 -40,-320 128,-320 160,-320" /><polygon points="-64,-320 -40,-320 -40,-256 -64,-256" /><polygon points="-64,-256 -40,-256 -40,-162.6667 -64,-170.6667" /><polygon points="-64,-170.6667 -40,-162.6667 -40,-160 -40,-128 -40,32 -64,32" /><polygon points="-40,-160 -24,-160 -24,-128 -40,-128" /><polygon points="-40,-128 -24,-128 0,-128 48,-128 48,-112 48,32 -24,32 -40,32" /><polygon points="48,-112 48,-128 176,-128 176,-112" /><polygon points="176,32 176,-112 176,-128 192,-128 192,32" /><polygon points="48,32 48,-112 176,-112 176,32" /><polygon points="384,-160 384,-128 192,-128 184,-160" /><polygon points="192,-128 384,-128 384,24 384,32 192,32" /><polygon points="-24,-160 -40,-160 -40,-162.6667 -40,-256 -40,-320 160,-320 184,-320 184,-160" /><polygon points="184,-320 384,-320 384,-200 384,-160 184,-160" /><polygon points="-336,-640 -448,-640 -448,-640 -336,-640" /><polygon points="-224,-640 -336,-640 -336,-640 -304,-640 -224,-640" /><polygon points="-112,-640 -224,-640 -224,-640 -192,-640 -112,-640" /><polygon points="-112,-640 -96,-640 -96,-640 -224,-640 -224,-640" /><polygon points="-64,-256 -64,-170.6667 -96,-181.3333 -128,-192" /><polygon points="-72,32 -96,32 -96,-96 -96,-181.3333 -64,-170.6667 -64,32" /><polygon points="-448,-96 -448,-176 -280,-152 -280,-96" /><polygon points="-224,32 -448,32 -448,-96 -280,-96 -224,-96" /><polygon points="-160,-96 -96,-96 -96,32 -224,32 -224,-96" /><polygon points="-160,-96 -160,-192 -152,-200 -128,-192 -96,-181.3333 -96,-96" /><polygon points="-224,-96 -280,-96 -280,-152 -160,-192 -160,-96" /><polygon points="-160,-192 -160,-192 -152,-200 -152,-200" /><polygon points="-448,-176 -448,-176 -280,-152 -280,-152" /><polygon points="-280,-152 -280,-152 -160,-192 -160,-192" /><polygon points="384,32 384,224 192,224 192,64 192,32" /><polygon points="-40,128 -40,64 -24,64 192,64 192,224 184,224 -40,224" /><polygon points="-40,32 -24,32 -24,64 -40,64" /><polygon points="128,320 128,256 184,256 352,256 352,480 128,480" /><polygon points="352,480 352,640 184,640 128,640 128,576 128,544 128,480" /><polygon points="352,256 384,256 384,480 352,480" /><polygon points="384,480 384,576 384,640 352,640 352,480" /><polygon points="184,256 128,256 0,256 -40,256 -40,224 184,224" /><polygon points="192,224 384,224 384,248 384,256 352,256 184,256 184,224" /><polygon points="-40,256 0,256 0,320 -40,320" /><polygon points="-40,544 -40,512 -40,384 -40,352 -40,320 0,320 128,320 128,480 128,544" /><polygon points="128,576 0,576 -40,576 -40,544 128,544" /><polygon points="-40,576 0,576 0,640 -40,640" /><polygon points="184,768 128,768 -40,768 -40,736 -40,640 0,640 128,640 184,640" /><polygon points="352,640 384,640 384,768 352,768 184,768 184,640" /><polygon points="-40,64 -40,128 -72,128 -72,32 -64,32 -40,32" /><polygon points="-72,128 -40,128 -40,224 -40,256 -40,320 -40,352 -72,352" /><polygon points="-40,352 -40,384 -72,384 -72,352" /><polygon points="-72,384 -40,384 -40,512 -72,512" /><polygon points="-72,512 -40,512 -40,544 -40,576 -40,640 -40,736 -72,736" /><polygon points="-40,736 -40,768 -72,768 -72,736" /><polygon points="-224,128 -352,128 -448,128 -448,32 -224,32" /><polygon points="-96,32 -96,128 -128,128 -224,128 -224,32" /><polygon points="-72,128 -96,128 -96,32 -72,32" /><polygon points="-128,352 -128,384 -128,512 -128,576 -128,576 -128,544 -128,352" /><polygon points="-128,736 -128,768 -128,768 -128,680 -128,680" /><polygon points="-128,128 -96,128 -72,128 -72,352 -128,352" /><polygon points="-72,352 -72,384 -120,384 -128,384 -128,352" /><polygon points="-128,512 -128,384 -120,384 -120,512" /><polygon points="-128,680 -128,576 -128,512 -120,512 -72,512 -72,736 -128,736" /><polygon points="-72,736 -72,768 -96,768 -128,768 -128,736" /><polygon points="-296,680 -128,680 -128,680 -288,680 -328,680" /><polygon points="-328,576 -296,576 -352,576 -352,576" /><polygon points="-296,576 -328,576 -288,576 -128,576 -128,576" /><polygon points="-352,224 -311.2,224 -352,224" /><polygon points="-448,224 -448,128 -352,128 -352,224" /><polygon points="-352,520 -352,576 -352,576 -352,544 -352,488" /><polygon points="-352,224 -352,224 -352,296 -352,296" /><polygon points="-448,448 -448,296 -448,256 -448,224 -352,224 -352,296 -352,448" /><polygon points="-352,488 -448,488 -448,448 -352,448" /><polygon points="-448,520 -448,576 -352,576 -352,520" /><polygon points="-448,680 -328,680 -328,576 -352,576 -448,576" /><polygon points="-296,576 -128,576 -128,680 -296,680" /><polygon points="-296,680 -352,680 -352,576 -296,576" /><polygon points="-328,680 -288,680 -288,576 -328,576" /><polygon points="-640,384 -640,384 -640,448" /><polygon points="-472,680 -504,680 -448,680 -448,680" /><polygon points="-544,680 -504,680 -472,680 -512,680 -544,680 -640,680 -640,680" /><polygon points="-544,576 -504,576 -504,680 -544,680" /><polygon points="-472,680 -448,680 -448,576 -472,576" /><polygon points="-640,608 -640,448 -544,448 -544,464 -544,576 -544,680 -640,680" /><polygon points="-504,576 -448,576 -448,680 -504,680" /><polygon points="-640,448 -640,384 -640,325.6 -544,325.6 -544,448" /><polygon points="-544,464 -544,464 -544,576 -544,576" /><polygon points="-472,576 -512,576 -512,680 -472,680" /><polygon points="-640,384 -704,384 -704,384 -640,384" /><polygon points="-808,608 -808,512 -808,512 -808,640 -808,640" /><polygon points="-808,512 -808,384 -704,384 -640,384 -640,448 -640,608 -808,608" /><polygon points="-640,608 -640,680 -640,768 -672,768 -808,768 -808,640 -808,608" /><polygon points="-808,640 -808,768 -896,768 -896,696" /><polygon points="-896,384 -808,384 -808,512 -896,456" /><polygon points="-896,472 -896,456 -808,512 -808,608 -808,640 -896,696" /><polygon points="-312,-320 -312,-320 -248,-320 -248,-320" /><polygon points="-248,-544 -248,-544 -312,-544 -312,-544" /><polygon points="-248,-608 -248,-608 -248,-544 -248,-544" /><polygon points="-312,-608 -312,-608 -248,-608 -248,-608" /><polygon points="-312,-544 -312,-544 -312,-608 -312,-608" /><polygon points="-312,-544 -312,-608 -248,-608 -248,-544" /><polygon points="-312,-256 -312,-256 -312,-320 -312,-320" /><polygon points="-248,-256 -248,-256 -312,-256 -312,-256" /><polygon points="-248,-320 -248,-320 -248,-256 -248,-256" /><polygon points="-312,-256 -312,-320 -248,-320 -248,-256" /><polygon points="-240,-768 -304,-768 -304,-768 -240,-768" /><polygon points="-896,768 -896,768 -808,768 -672,768 -672,768" /><polygon points="-544,768 -544,768 -544,768 -544,768 -640,768 -672,768 -672,768" /><polygon points="-448,-752 -448,-640 -448,-640 -448,-672 -448,-752" /><polygon points="-96,-640 -96,-640 -112,-640 -112,-640" /><polygon points="-96,-768 -96,-768 -96,-752 -96,-752" /><polygon points="-128,-736 -192,-736 -240,-736 -240,-768 -128,-768" /><polygon points="-96,-768 -96,-752 -96,-736 -128,-736 -128,-768" /><polygon points="-304,-768 -240,-768 -240,-736 -304,-736" /><polygon points="-192,-640 -224,-640 -304,-640 -304,-736 -240,-736 -192,-736" /><polygon points="-128,-736 -96,-736 -96,-640 -112,-640 -192,-640 -192,-736" /><polygon points="-448,-752 -448,-768 -336,-768 -336,-640 -448,-640" /><polygon points="-336,-768 -304,-768 -304,-736 -304,-640 -336,-640" /><polygon points="-96,-560 -96,-448 -96,-448 -96,-560" /><polygon points="-448,680 -352,680 -296,680 -328,680 -448,680" /><polygon points="-448,544 -352,544 -352,576 -448,576" /><polygon points="-448,544 -448,488 -352,488 -352,544" /><polygon points="-352,576 -352,680 -448,680 -448,576" /><polygon points="-448,576 -504,576 -472,576 -448,576" /><polygon points="-704,384 -704,384 -640,384 -640,384 -640,384" /><polygon points="-704,384 -704,384 -808,384 -896,384 -896,384" /><polygon points="-448,-768 -448,-768 -336,-768 -304,-768 -304,-768 -304,-768 -336,-768 -448,-768" /><polygon points="-448,-560 -448,-448 -448,-448 -448,-448 -448,-544 -448,-560" /><polygon points="-448,-672 -448,-640 -448,-560 -448,-560 -448,-672" /><polygon points="-448,-768 -448,-768 -448,-752 -448,-752" /><polygon points="-448,-640 -448,-640 -448,-640 -448,-640 -448,-560 -448,-560" /><polygon points="-448,-352 -448,-448 -448,-448 -448,-400 -448,-320 -448,-320" /><polygon points="-448,-96 -448,128 -448,128 -448,96 -448,-96" /><polygon points="-448,256 -448,256 -448,128 -448,128 -448,128 -448,224 -448,256" /><polygon points="-448,-288 -448,-288 -640,-288 -640,-288" /><polygon points="-640,-352 -448,-352 -448,-320 -448,-288 -640,-288" /><polygon points="-448,256 -448,256 -448,256 -448,256 -640,256 -640,256" /><polygon points="-640,256 -640,256 -640,312 -640,325.6 -640,384 -640,384 -640,384 -640,384" /><polygon points="-632,-344 -632,-296 -624,-296 -624,-344" /><polygon points="192,-128 192,-128 176,-128 48,-128 0,-128 0,-128" /><polygon points="192,-128 192,-128 184,-160 184,-160 192,-128" /><polygon points="-624,-336 -624,-304 -608,-304 -608,-336" /><polygon points="-624,-336 -624,-336 -608,-336 -608,-336" /><polygon points="-608,-304 -608,-304 -624,-304 -624,-304" /><polygon points="-624,-304 -624,-336 -608,-336 -608,-304" /><polygon points="-624,-304 -624,-304 -624,-336 -624,-336" /><polygon points="-608,-336 -608,-336 -608,-304 -608,-304" /><polygon points="-896,544 -896,696 -896,768 -896,768 -896,608 -896,544" /><polygon points="-896,456 -896,456 -896,472 -896,472" /><polygon points="-896,384 -896,384 -896,384 -896,456 -896,456" /><polygon points="-624,-344 -624,-344 -624,-296 -624,-296" /><polygon points="-632,-344 -632,-344 -624,-344 -624,-344" /><polygon points="-624,-296 -624,-296 -632,-296 -632,-296" /><polygon points="-632,-296 -632,-344 -624,-344 -624,-296" /><polygon points="-632,-296 -632,-296 -632,-344 -632,-344" /><polygon points="-808,512 -896,456 -896,472 -896,544 -896,696 -808,640" /><polygon points="-896,544 -896,472 -896,456 -808,512 -808,640 -896,696" /><polygon points="-808,512 -808,512 -808,608 -808,640 -808,640" /><polygon points="-808,512 -808,512 -896,456 -896,456" /><polygon points="-896,456 -896,456 -808,512 -808,512" /><polygon points="-808,640 -808,640 -896,696 -896,696" /><polygon points="-896,696 -896,696 -808,640 -808,640" /><polygon points="448,576 448,576 448,640 448,672 448,672" /><polygon points="-448,-448 -448,-448 -448,-352 -448,-352" /><polygon points="384,640 384,576 384,480 384,480 384,640" /><polygon points="384,480 384,576 448,576 448,480" /><polygon points="384,576 384,576 448,576 448,576" /><polygon points="448,480 448,480 384,480 384,480" /><polygon points="0,32 -24,32 -24,32 48,32 176,32 192,32 192,32" /><polygon points="0,32 192,32 192,32 0,32" /><polygon points="0,-116 0,-128 0,-128" /><polygon points="0,-116 0,-104 0,-104" /><polygon points="0,-116 0,-104 192,-104 192,-128 0,-128" /><polygon points="-24,-128 0,-128 0,-128 0,-128 -24,-128" /><polygon points="-24,-128 -24,32 0,32 0,-104 0,-116 0,-128" /><polygon points="-24,32 -24,32 -24,64 -24,64 -24,32" /><polygon points="-640,-352 -640,-352 -640,-288 -640,-288" /><polygon points="-448,-352 -640,-352 -640,-288 -448,-288" /><polygon points="-448,-352 -448,-352 -640,-352 -640,-352" /><polygon points="448,640 448,480 448,480 448,576 448,672 448,672" /><polygon points="576,416 576,416 448,416 448,416" /><polygon points="736,672 736,672 736,640 736,448 736,448" /><polygon points="736,448 736,448 736,416 736,416" /><polygon points="640,640 640,448 640,416 576,416 448,416 448,480 448,640" /><polygon points="448,672 640,672 640,640 448,640" /><polygon points="672,672 640,672 448,672 448,672 448,672 672,672" /><polygon points="-240,-768 -304,-768 -304,-768 -240,-768" /><polygon points="-240,-768 -240,-768 -224,-768 -112,-768 -96,-768 -96,-768 -128,-768 -240,-768" /><polygon points="-304,-736 -304,-736 -304,-768 -304,-768" /><polygon points="-304,-768 -304,-768 -304,-736 -304,-736" /><polygon points="-240,-736 -240,-768 -304,-768 -304,-736" /><polygon points="-304,-736 -304,-768 -240,-768 -240,-736" /><polygon points="-304,-736 -304,-736 -240,-736 -240,-736" /><polygon points="-240,-736 -240,-736 -304,-736 -304,-736" /><polygon points="-240,-768 -240,-768 -240,-736 -240,-736" /><polygon points="-240,-736 -240,-736 -240,-768 -240,-768" /><polygon points="192,-104 192,-104 192,-128 192,-128" /><polygon points="0,-104 0,-104 0,32 0,32 0,-104" /><polygon points="640,448 640,448 640,640 640,672 640,672" /><polygon points="640,416 640,416 640,448 640,448" /><polygon points="-544,768 -384,768 -384,768 -544,768" /><polygon points="-320,768 -384,768 -544,768 -544,768 -544,768 -416,768 -320,768" /><polygon points="-96,768 -320,768 -320,768 -192,768 -128,768 -96,768" /><polygon points="128,768 -40,768 -96,768 -96,768 -72,768 -40,768 128,768" /><polygon points="352,768 184,768 128,768 128,768 184,768 352,768" /><polygon points="-448,-768 -448,-768 -448,-752 -448,-672 -448,-672" /><polygon points="-448,-344 -448,-448 -448,-448 -448,-352 -448,-288 -448,-288" /><polygon points="-448,-128 -448,-288 -448,-288 -448,-288 -448,-96 -448,-96" /><polygon points="384,248 384,256 384,480 384,480 384,480 384,256 384,248" /><polygon points="384,-320 384,-320 384,-296 384,-296" /><polygon points="384,24 384,32 384,248 384,248 384,224 384,32 384,24" /><polygon points="384,-200 384,-72 384,24 384,24 384,-128 384,-160 384,-200" /><polygon points="128,-320 -40,-320 -40,-256 -40,-160 -24,-160 181.3333,-160" /><polygon points="384,32 384,24 384,-72 256,0 256,32" /><polygon points="384,248 384,32 256,32 224,32 192,32 192,64 192,224 192,256 384,256" /><polygon points="192,256 192,320 192,344 192,480 384,480 384,256" /><polygon points="192,480 192,544 192,576 192,640 384,640 384,480" /><polygon points="181.3333,-160 184,-160 192,-128" /><polygon points="-24,32 -24,-128 -24,-160 -40,-160 -40,-128 -40,64 -24,64" /><polygon points="-40,64 -40,96 -40,224 -24,224 -24,64" /><polygon points="192,64 -24,64 -24,224 0,224 192,224" /><polygon points="128,320 192,320 192,256 128,256" /><polygon points="128,256 192,256 192,224 0,224 0,256" /><polygon points="-16,344 0,344 56,344 72,344 120,344 192,344 192,320 128,320 0,320 -40,320 -40,344" /><polygon points="0,256 0,224 -24,224 -40,224 -40,256 -40,320 0,320" /><polygon points="128,640 184,640 192,640 192,576 160,576 128,576" /><polygon points="160,544 -40,544 -64,544 -64,576 -40,576 0,576 128,576 160,576" /><polygon points="192,576 192,544 160,544 160,576" /><polygon points="-40,640 0,640 0,576 -40,576" /><polygon points="184,640 128,640 0,640 -40,640 -40,768 128,768 184,768" /><polygon points="352,768 384,768 384,640 192,640 184,640 184,768" /><polygon points="-336,-768 -448,-768 -448,-672 -448,-560 -448,-544 -336,-544" /><polygon points="-448,-544 -448,-448 -336,-448 -336,-544" /><polygon points="-224,-768 -240,-768 -304,-768 -336,-768 -336,-544 -224,-544" /><polygon points="-336,-544 -336,-448 -224,-448 -224,-544" /><polygon points="-112,-768 -224,-768 -224,-544 -112,-544" /><polygon points="-224,-544 -224,-448 -112,-448 -112,-544" /><polygon points="-96,-544 -96,-560 -96,-640 -96,-752 -96,-768 -112,-768 -112,-544" /><polygon points="-96,-448 -96,-544 -112,-544 -112,-448" /><polygon points="-224,-448 -336,-448 -448,-448 -448,-344 -352,-344 -224,-344" /><polygon points="-128,-344 -96,-344 -96,-448 -112,-448 -224,-448 -224,-344" /><polygon points="-96,-181.3333 -96,-128 -40,-128 -40,-160 -40,-256 -64,-256 -96,-224" /><polygon points="-40,-320 -64,-320 -64,-256 -40,-256" /><polygon points="-352,-128 -224,-128 -128,-128 -128,-192 -152,-200 -320,-256 -352,-256" /><polygon points="-128,-128 -96,-128 -96,-181.3333 -128,-192" /><polygon points="-96,-224 -128,-192 -96,-181.3333" /><polygon points="-96,-256 -128,-256 -320,-256 -152,-200" /><polygon points="-128,-344 -224,-344 -352,-344 -352,-256 -320,-256 -128,-256" /><polygon points="-96,-256 -96,-344 -128,-344 -128,-256" /><polygon points="-352,-256 -352,-344 -448,-344 -448,-288 -448,-128 -352,-128" /><polygon points="-224,-128 -352,-128 -448,-128 -448,-96 -448,96 -224,96" /><polygon points="-448,96 -448,128 -448,256 -320,256 -304,256 -224,256 -224,96" /><polygon points="-40,64 -40,-128 -96,-128 -128,-128 -224,-128 -224,96 -40,96" /><polygon points="-224,96 -224,256 -64,256 -40,256 -40,224 -40,96" /><polygon points="-40,320 -40,256 -64,256 -64,344 -40,344" /><polygon points="-64,344 -64,256 -224,256 -304,256 -304,384 -272,384 -256,384 -224,384 -208,384 -120,384 -72,384 -64,384" /><polygon points="-208,400 -208,384 -224,384" /><polygon points="-208,400 -208,432 -208,512 -120,512 -120,384 -208,384" /><polygon points="-72,512 -64,512 -64,384 -72,384" /><polygon points="-272,512 -224,512 -224,480 -256,448 -272,432" /><polygon points="-256,384 -272,384 -272,400" /><polygon points="-304,480 -304,512 -272,512 -272,432 -272,400 -272,384 -304,384" /><polygon points="-304,576 -96,576 -64,576 -64,544 -64,512 -72,512 -120,512 -208,512 -224,512 -272,512 -304,512" /><polygon points="-224,480 -224,512 -208,512 -208,432 -224,448" /><polygon points="-224,480 -224,448 -256,448" /><polygon points="-384,320 -384,384 -320,448 -320,320" /><polygon points="-304,480 -304,384 -304,256 -320,256 -320,320 -320,448 -320,480" /><polygon points="-320,576 -304,576 -304,512 -304,480 -320,480" /><polygon points="-448,256 -384,320 -320,320 -320,256" /><polygon points="-96,576 -304,576 -320,576 -320,640 -320,768 -96,768" /><polygon points="-40,768 -40,640 -40,576 -64,576 -96,576 -96,768" /><polygon points="-320,768 -320,640 -384,704 -384,768" /><polygon points="256,32 256,32 224,32 224,32" /><polygon points="352,-320 160,-320 128,-320 128,-320 184,-320 352,-320" /><polygon points="0,-104 0,32 0,32 0,-104" /><polygon points="192,544 192,480 192,344 192,344 192,416 192,432 192,448 192,464 192,544" /><polygon points="0,344 -16,344 -16,344 0,344" /><polygon points="72,344 56,344 56,344 72,344" /><polygon points="160,544 192,544 192,544 136,544 120,544 96,544 80,544 0,544 -16,544 -40,544 -40,544" /><polygon points="-320,576 -320,480 -320,448 -320,448 -320,480 -320,576 -320,640 -320,640" /><polygon points="-64,-256 -64,-320 -64,-320 -64,-256" /><polygon points="352,-320 384,-320 384,-320 184,-320 160,-320 160,-320" /><polygon points="181.3333,-160 -24,-160 -24,-160 184,-160 184,-160" /><polygon points="192,-104 192,-104 0,-104 0,-104" /><polygon points="-24,-160 -24,-128 -24,-128 -24,-128 -24,-160" /><polygon points="-24,32 -24,32 -24,-128 -24,-128" /><polygon points="-96,-752 -96,-640 -96,-640 -96,-736 -96,-752" /><polygon points="-152,-200 -128,-192 -128,-192 -152,-200" /><polygon points="-96,-256 -152,-200 -152,-200 -96,-256" /><polygon points="-128,-192 -96,-224 -64,-256 -64,-256 -128,-192" /><polygon points="-96,-560 -96,-544 -96,-448 -96,-448 -96,-560" /><polygon points="-96,-640 -96,-560 -96,-560 -96,-640" /><polygon points="-72,512 -72,384 -72,384 -72,512" /><polygon points="0,320 128,320 128,320 0,320" /><polygon points="192,64 192,32 192,32 192,32 192,64" /><polygon points="128,256 0,256 0,256 128,256" /><polygon points="-24,64 192,64 192,64 -24,64" /><polygon points="0,256 0,320 0,320 0,256" /><polygon points="128,320 128,256 128,256 128,320" /><polygon points="128,640 128,576 128,576 128,640" /><polygon points="128,576 0,576 0,576 128,576" /><polygon points="0,576 0,640 0,640 0,576" /><polygon points="128,640 128,640 0,640 0,640" /><polygon points="-72,384 -120,384 -120,384 -72,384" /><polygon points="-120,512 -72,512 -72,512 -120,512" /><polygon points="-120,384 -120,512 -120,512 -120,384" /><polygon points="-208,432 -208,400 -208,400 -208,432" /><polygon points="-224,448 -208,432 -208,432 -224,448" /><polygon points="-224,384 -256,384 -256,384 -224,384" /><polygon points="-256,448 -224,448 -224,448 -256,448" /><polygon points="-272,400 -272,432 -272,432 -272,400" /><polygon points="-208,400 -224,384 -224,384 -208,400" /><polygon points="-256,384 -272,400 -272,400 -256,384" /><polygon points="-272,432 -256,448 -256,448 -272,432" /><polygon points="-64,512 -64,544 -64,544 -64,512" /><polygon points="-64,472 -64,496 -64,496 -64,472" /><polygon points="-64,432 -64,456 -64,456 -64,432" /><polygon points="-64,512 -64,496 -64,472 -64,456 -64,432 -64,416 -64,384 -64,368 -64,344 -64,344 -64,384 -64,512 -64,544 -64,544" /><polygon points="192,344 192,344 192,416 192,416" /><polygon points="104,432 16,432 16,432 104,432" /><polygon points="136,344 192,344 192,344 120,344 120,344" /><polygon points="136,416 136,416 136,344 136,344" /><polygon points="136,416 192,416 192,416 136,416" /><polygon points="136,432 192,432 192,416 136,416" /><polygon points="136,416 136,344 120,344 120,368 120,384 120,416 120,432 136,432" /><polygon points="120,416 120,416 72,416 72,416" /><polygon points="32,416 56,416 56,416 32,416" /><polygon points="-24,416 16,416 16,416 -24,416" /><polygon points="120,384 72,384 72,384 120,384" /><polygon points="72,368 120,368 120,368 72,368" /><polygon points="72,344 72,344 72,344 120,344 120,344 120,344 120,344 72,344" /><polygon points="72,384 120,384 120,368 72,368" /><polygon points="72,384 72,368 72,344 56,344 56,368 56,384 56,416 72,416" /><polygon points="56,384 32,384 32,384 56,384" /><polygon points="16,384 -24,384 -24,384 16,384" /><polygon points="-40,384 -64,384 -64,384 -40,384" /><polygon points="56,368 56,368 0,368 0,368" /><polygon points="-16,368 -16,368 -64,368 -64,368" /><polygon points="-16,344 -16,368 0,368 0,344" /><polygon points="-40,384 -24,384 16,384 32,384 56,384 56,368 0,368 -16,368 -64,368 -64,384" /><polygon points="16,384 16,416 32,416 32,384" /><polygon points="-40,384 -40,416 -24,416 -24,384" /><polygon points="0,432 16,432 104,432 120,432 120,416 72,416 56,416 32,416 16,416 -24,416 -40,416 -64,416 -64,432" /><polygon points="-40,544 -40,544 -40,544 -64,544 -64,544 -64,544 -64,544 -40,544" /><polygon points="0,544 80,544 80,544 0,544" /><polygon points="-40,544 -16,544 -16,544 -40,544" /><polygon points="136,544 192,544 192,544 136,544" /><polygon points="96,544 120,544 120,544 96,544" /><polygon points="120,464 120,496 120,496 120,464" /><polygon points="120,432 120,448 120,448 120,432" /><polygon points="192,448 192,448 120,448 120,448" /><polygon points="144,464 160,464 192,464 192,448 120,448 120,464" /><polygon points="136,496 144,496 144,496 136,496 120,496 120,496" /><polygon points="144,464 144,496 160,496 160,464" /><polygon points="136,512 160,512 160,496 144,496 136,496" /><polygon points="136,512 136,496 120,496 120,512 120,544 136,544" /><polygon points="104,496 104,496 16,496 16,496" /><polygon points="0,496 0,496 -64,496 -64,496" /><polygon points="104,432 104,432 104,496 104,496" /><polygon points="120,464 120,448 120,432 104,432 104,496 120,496" /><polygon points="0,456 0,432 0,432 0,456" /><polygon points="16,432 0,432 0,456 0,472 0,496 16,496" /><polygon points="0,456 0,456 -64,456 -64,456" /><polygon points="0,472 0,456 -64,456 -64,472" /><polygon points="120,512 96,512 96,512 120,512" /><polygon points="-16,512 0,512 80,512 96,512 120,512 120,496 104,496 16,496 0,496 -64,496 -64,512" /><polygon points="80,512 80,544 96,544 96,512" /><polygon points="-16,512 -16,544 0,544 0,512" /><polygon points="-64,384 -64,384 -64,416 -64,416" /><polygon points="-64,368 -64,344 -64,344 -64,368" /><polygon points="192,464 192,448 192,432 192,416 192,344 192,344 192,472 192,512 192,544 192,544" /><polygon points="192,464 192,544 192,544 192,464" /><polygon points="192,432 192,448 192,448 192,432" /><polygon points="0,432 0,432 -64,432 -64,432" /><polygon points="136,432 192,432 192,432 136,432 120,432 120,432" /><polygon points="120,368 120,368 120,344 120,344" /><polygon points="120,416 120,416 120,384 120,384" /><polygon points="192,344 192,344 136,344 136,344" /><polygon points="136,416 192,416 192,432 136,432" /><polygon points="120,416 120,384 120,368 120,344 136,344 136,416 136,432 120,432" /><polygon points="-64,416 -64,416 -40,416 -40,416" /><polygon points="72,384 72,384 72,416 72,416" /><polygon points="72,344 72,344 72,368 72,368" /><polygon points="72,368 120,368 120,384 72,384" /><polygon points="56,344 56,344 56,344 0,344 0,344 0,344" /><polygon points="56,368 56,368 56,344 56,344" /><polygon points="56,416 56,416 56,384 56,384" /><polygon points="56,384 56,368 56,344 72,344 72,368 72,384 72,416 56,416" /><polygon points="0,344 0,344 0,368 0,368" /><polygon points="-16,368 -16,368 -16,344 -16,344" /><polygon points="-16,368 -16,344 0,344 0,368" /><polygon points="-16,368 0,368 56,368 56,384 32,384 16,384 -24,384 -40,384 -64,384 -64,368" /><polygon points="-24,384 -24,384 -24,416 -24,416" /><polygon points="16,416 16,416 16,384 16,384" /><polygon points="32,384 32,384 32,416 32,416" /><polygon points="16,416 16,384 32,384 32,416" /><polygon points="-40,416 -40,416 -40,384 -40,384" /><polygon points="-40,416 -40,384 -24,384 -24,416" /><polygon points="-40,416 -24,416 16,416 32,416 56,416 72,416 120,416 120,432 104,432 16,432 0,432 -64,432 -64,416" /><polygon points="-16,544 0,544 80,544 96,544 120,544 136,544 192,544 192,544 160,544 -40,544 -40,544" /><polygon points="120,544 120,544 120,512 120,512" /><polygon points="192,464 192,464 160,464 160,464" /><polygon points="144,464 144,464 120,464 120,464" /><polygon points="192,448 192,464 160,464 144,464 120,464 120,448" /><polygon points="160,496 160,464 160,464 160,496 160,512 160,512" /><polygon points="144,496 144,496 144,464 144,464" /><polygon points="144,496 144,464 160,464 160,496" /><polygon points="136,512 136,512 136,544 136,544" /><polygon points="160,512 160,512 136,512 136,512" /><polygon points="136,496 144,496 160,496 160,512 136,512" /><polygon points="120,512 120,496 136,496 136,512 136,544 120,544" /><polygon points="16,432 16,432 16,496 16,496" /><polygon points="104,432 120,432 120,448 120,464 120,496 104,496" /><polygon points="0,496 0,496 0,472 0,472" /><polygon points="0,472 0,456 0,432 16,432 16,496 0,496" /><polygon points="0,472 0,472 -64,472 -64,472" /><polygon points="0,456 0,472 -64,472 -64,456" /><polygon points="80,512 80,512 0,512 0,512" /><polygon points="-16,512 -16,512 -64,512 -64,512" /><polygon points="0,496 16,496 104,496 120,496 120,512 96,512 80,512 0,512 -16,512 -64,512 -64,496" /><polygon points="0,512 0,512 0,544 0,544" /><polygon points="80,544 80,544 80,512 80,512" /><polygon points="96,512 96,512 96,544 96,544" /><polygon points="80,544 80,512 96,512 96,544" /><polygon points="-16,544 -16,544 -16,512 -16,512" /><polygon points="-16,544 -16,512 0,512 0,544" /><polygon points="928,-128 928,-128 928,-96 928,-96" /><polygon points="896,352 928,352 928,352 800,352 800,352" /><polygon points="896,-128 672,-128 672,-128 800,-128 896,-128" /><polygon points="800,96 896,96 928,96 928,128 928,160 896,160 800,160" /><polygon points="896,96 800,96 672,96 672,-128 896,-128" /><polygon points="928,-128 928,-96 928,96 896,96 896,-128" /><polygon points="896,224 672,224 672,160 800,160 896,160" /><polygon points="928,160 928,224 896,224 896,160" /><polygon points="448,-128 576,-128 640,-128 672,-128 672,96 448,96" /><polygon points="672,96 672,160 672,224 448,224 448,112 448,96" /><polygon points="672,352 576,352 448,352 448,248 448,224 672,224" /><polygon points="896,352 800,352 672,352 672,224 896,224" /><polygon points="928,224 928,352 896,352 896,224" /><polygon points="672,96 672,-64 672,-64 672,160" /><polygon points="-248,768 -208,768 -208,768 -248,768 -320,768 -320,768" /><polygon points="-448,208 -448,256 -448,256 -448,208" /><polygon points="-384,768 -384,704 -320,640 -320,728 -320,768" /><polygon points="-248,760 -248,768 -320,768 -320,728 -248,728" /><polygon points="-248,760 -216,760 -208,760 -208,768 -248,768" /><polygon points="-216,728 -208,728 -208,760 -216,760" /><polygon points="-320,640 -320,576 -208,576 -208,672 -208,704 -208,728 -216,728 -248,728 -320,728" /><polygon points="-144,672 -144,693.125 -144,704 -208,704 -208,672" /><polygon points="-65,743 -64,742.7419 -64,768 -124.6774,768 -127,759" /><polygon points="-104,672 -72,672 -64,672 -64,676.6129 -81,681 -143,697 -144,693.125 -144,672" /><polygon points="-64,676.6129 -64,742.7419 -65,743 -81,681" /><polygon points="-143,697 -127,759 -124.6774,768 -144,768 -144,704 -144,693.125" /><polygon points="-104,576 -104,640 -104,672 -144,672 -208,672 -208,576" /><polygon points="-64,640 -64,672 -72,672 -72,640" /><polygon points="-96,576 -64,576 -64,640 -72,640 -104,640 -104,576" /><polygon points="-320,256 -320,320 -384,320 -448,256" /><polygon points="-320,320 -320,448 -384,384 -384,320" /><polygon points="-320,480 -320,448 -320,320 -320,256 -224,256 -96,256 -96,480" /><polygon points="-96,576 -104,576 -208,576 -320,576 -320,480 -96,480" /><polygon points="-64,256 -64,320 -64,344 -64,480 -96,480 -96,256" /><polygon points="-64,480 -64,544 -64,576 -96,576 -96,480" /><polygon points="-352,-128 -304,-128 -304,96 -352,48" /><polygon points="-224,256 -320,256 -448,256 -448,208 -304,152 -224,120.8889" /><polygon points="-160,96 -80,64.8889 -64,58.6667 -64,96 -64,256 -96,256 -224,256 -224,120.8889" /><polygon points="-80,64.8889 -160,96 -304,96 -304,-128 -128,-128 -80,-128" /><polygon points="-160,96 -224,120.8889 -304,152 -304,96" /><polygon points="-64,58.6667 -80,64.8889 -80,-128 -64,-128" /><polygon points="-128,-128 -304,-128 -352,-128 -352,-256 -128,-256" /><polygon points="-64,-256 -40,-256 -40,-160 -40,-128 -64,-128 -80,-128 -128,-128 -128,-256" /><polygon points="-64,-320 -40,-320 -40,-256 -64,-256" /><polygon points="160,576 -64,576 -64,544 -40,544 160,544" /><polygon points="192,544 192,576 160,576 160,544" /><polygon points="160,344 120,344 72,344 -16,344 -64,344 -64,320 160,320" /><polygon points="192,320 192,344 160,344 160,320" /><polygon points="192,576 192,544 192,512 352,512 384,512 384,544 384,736 192,736" /><polygon points="384,736 384,768 192,768 192,736" /><polygon points="192,472 192,344 192,320 192,248 352,248 352,320 352,472" /><polygon points="352,512 192,512 192,472 352,472" /><polygon points="352,224 384,224 384,248 352,248 192,248 192,224" /><polygon points="0,-128 -40,-128 -40,-160 0,-160" /><polygon points="0,-128 0,-160 181.3333,-160 192,-128 192,-104 0,-104" /><polygon points="352,112 352,224 192,224 192,96 192,32 224,32 256,32 352,32" /><polygon points="384,224 384,112 448,112 448,224 448,248 384,248" /><polygon points="384,112 384,224 352,224 352,112" /><polygon points="352,-8 270.2222,-8 384,-72 384,-8" /><polygon points="256,32 256,0 270.2222,-8 352,-8 352,32" /><polygon points="-40,-256 -40,-320 128,-320 181.3333,-160 0,-160 -40,-160" /><polygon points="-64,58.6667 -64,-128 -64,-128 -64,-32 -64,96 -64,96" /><polygon points="184,-320 128,-320 -40,-320 -40,-320 0,-320 184,-320" /><polygon points="160,320 -64,320 -64,320 160,320" /><polygon points="-40,-128 0,-128 0,-128 -64,-128 -64,-128" /><polygon points="192,96 192,224 192,248 192,320 192,320 192,256 192,96" /><polygon points="192,576 192,576 160,576 160,576" /><polygon points="-128,-256 -352,-256 -352,-256 -352,-256 -224,-256 -128,-256" /><polygon points="-304,96 -304,96 -320,80 -352,48 -352,48" /><polygon points="384,-296 384,-120 384,-72 384,-72 384,-200 384,-296" /><polygon points="224,32 192,32 0,32 0,32 192,32 224,32" /><polygon points="192,-104 192,-104 0,-104 0,-104" /><polygon points="384,-320 384,-320 352,-320 352,-320" /><polygon points="192,-128 192,-128 192,-104 192,-104" /><polygon points="181.3333,-160 128,-320 128,-320 181.3333,-160 192,-128 192,-128" /><polygon points="256,32 256,32 256,0 256,0" /><polygon points="270.2222,-8 256,0 256,0 384,-72 384,-72" /><polygon points="-64,480 -64,344 -64,344 -64,368 -64,384 -64,416 -64,432 -64,456 -64,472 -64,496 -64,512 -64,544 -64,544" /><polygon points="160,344 192,344 192,344 136,344 120,344 120,344" /><polygon points="-16,344 -16,344 -16,344 -16,344 -40,344 -64,344 -64,344 -64,344 -64,344" /><polygon points="72,344 72,344 56,344 0,344 -16,344 -16,344" /><polygon points="-384,768 -384,768 -384,704 -384,704" /><polygon points="-384,384 -384,384 -384,320 -384,320" /><polygon points="-320,448 -320,448 -384,384 -384,384" /><polygon points="-384,704 -384,704 -320,640 -320,640" /><polygon points="-384,320 -384,320 -448,256 -448,256" /><polygon points="-448,208 -448,256 -448,256 -448,192 -448,192" /><polygon points="-304,96 -304,96 -304,152 -304,152" /><polygon points="-304,152 -304,152 -448,208 -448,208" /><polygon points="-352,48 -352,48 -352,48 -352,-128 -352,-128 -352,48" /><polygon points="-320,80 -304,96 -304,152 -320,144" /><polygon points="-320,144 -304,152 -448,208 -448,192" /><polygon points="-896,384 -896,384 -896,456 -896,472 -896,544 -896,544" /><polygon points="576,-128 576,-128 448,-128 448,-128" /><polygon points="-672,768 -704,768 -896,768 -896,768 -896,768 -672,768" /><polygon points="-320,768 -472,768 -528,768 -544,768 -544,768 -384,768 -320,768" /><polygon points="-208,768 -208,768 -208,768 -248,768 -248,768" /><polygon points="192,768 192,768 384,768 384,768" /><polygon points="-448,192 -448,256 -448,256 -448,176 -448,176" /><polygon points="192,576 192,576 192,736 192,768 192,768" /><polygon points="-64,576 -64,576 160,576 160,576" /><polygon points="192,576 192,576 160,576 160,576" /><polygon points="-104,640 -104,640 -72,640 -72,640" /><polygon points="-336,64 -352,48 -352,48 -320,80 -320,80" /><polygon points="-336,64 -320,80 -320,144 -336,136" /><polygon points="-336,136 -320,144 -448,192 -448,176" /><polygon points="-320,80 -320,80 -320,144 -320,144" /><polygon points="-320,144 -320,144 -448,192 -448,192" /><polygon points="-248,760 -248,760 -248,728 -248,728" /><polygon points="-72,672 -72,672 -104,672 -104,672" /><polygon points="-104,672 -104,672 -104,640 -104,640" /><polygon points="-104,672 -104,640 -72,640 -72,672" /><polygon points="-72,640 -72,640 -72,672 -72,672" /><polygon points="-216,728 -216,728 -216,760 -216,760" /><polygon points="-248,760 -248,728 -216,728 -216,760" /><polygon points="-248,728 -248,728 -216,728 -216,728" /><polygon points="-216,760 -216,760 -248,760 -248,760" /><polygon points="-704,384 -704,384 -896,384 -896,384 -896,384" /><polygon points="-672,768 -640,768 -640,704 -704,640 -704,768" /><polygon points="-704,384 -704,512 -640,448 -640,384" /><polygon points="-704,512 -704,384 -896,384 -896,544 -896,608 -704,608" /><polygon points="-896,608 -896,768 -704,768 -704,640 -704,608" /><polygon points="-448,176 -448,256 -448,256 -448,160 -448,160" /><polygon points="-352,48 -352,48 -336,64 -336,64" /><polygon points="-336,128 -336,64 -336,64 -336,136 -336,136" /><polygon points="-352,128 -336,128 -336,136 -448,176 -448,160" /><polygon points="-352,48 -336,64 -336,128 -352,128" /><polygon points="-352,48 -352,128 -352,128 -352,48" /><polygon points="-336,136 -336,136 -448,176 -448,176" /><polygon points="928,128 928,224 928,352 928,352 928,224 928,160 928,128" /><polygon points="928,-96 928,96 928,128 928,128 928,96 928,-96" /><polygon points="-448,960 -320,960 -544,960 -544,960" /><polygon points="-896,240 -896,352 -896,464 -896,464 -896,464 -896,464 -896,384 -896,240" /><polygon points="-896,16 -896,128 -896,240 -896,240 -896,208 -896,16" /><polygon points="576,352 576,352 448,352 448,352 576,352" /><polygon points="800,352 768,352 576,352 576,352 672,352 800,352" /><polygon points="928,-128 928,-128 896,-128 896,-128" /><polygon points="672,-128 672,-128 640,-128 640,-128 672,-128" /><polygon points="800,-64 800,96 800,160 800,10.6667" /><polygon points="928,96 928,-96 928,-128 896,-128 800,-128 800,-64 800,10.6667 800,96" /><polygon points="800,224 928,224 928,128 928,96 800,96" /><polygon points="672,-128 672,-64 800,-64 800,-128" /><polygon points="672,-64 672,96 800,96 800,-64" /><polygon points="800,224 768,224 768,352 800,352 928,352 928,224" /><polygon points="736,416 736,416 640,416 640,416 640,416" /><polygon points="640,672 640,672 640,672 672,672 736,672 736,672" /><polygon points="640,672 640,672 640,448 640,448 640,672" /><polygon points="-208,768 -144,768 -144,768 -208,768" /><polygon points="-64,768 -64,768 -128,768 -144,768 -144,768 -144,768 -124.6774,768 -64,768" /><polygon points="-448,160 -448,256 -448,256 -448,144 -448,128 -448,128" /><polygon points="-64,768 -64,768 -64,742.7419 -64,676.6129 -64,672 -64,640 -64,576 -64,576 -64,576" /><polygon points="-448,128 -448,0 -448,-16 -352,-16 -352,48 -352,128 -448,160" /><polygon points="-352,-16 -352,-128 -352,-128" /><polygon points="-352,-16 -352,-128 -352,-128 -352,48 -352,48" /><polygon points="-352,-256 -352,-256 -352,-128 -352,-128 -352,-128" /><polygon points="-352,128 -352,128 -448,160 -448,160" /><polygon points="-143,697 -81,681 -65,743 -127,759" /><polygon points="-208,768 -208,704 -144,704 -144,768" /><polygon points="-144,704 -144,704 -144,768 -144,768" /><polygon points="-127,759 -127,759 -143,697 -143,697" /><polygon points="-81,681 -81,681 -65,743 -65,743" /><polygon points="-143,697 -143,697 -81,681 -81,681" /><polygon points="-65,743 -65,743 -127,759 -127,759" /><polygon points="-208,704 -208,704 -144,704 -144,704" /><polygon points="-208,768 -208,768 -208,768 -208,760 -208,728 -208,704 -208,704" /><polygon points="-896,-16 -896,-64 -704,-64 -704,-16" /><polygon points="-736,640 -704,664 -704,704 -704,768 -736,768" /><polygon points="-704,768 -704,704 -640,768" /><polygon points="-896,240 -896,128 -808,128 -808,352 -896,352" /><polygon points="-808,352 -808,384 -808,576 -896,576 -896,464 -896,352" /><polygon points="-808,576 -808,608 -808,768 -896,768 -896,688 -896,576" /><polygon points="-808,576 -808,384 -736,384 -736,512 -736,556 -736,596 -736,608 -808,608" /><polygon points="-736,608 -736,640 -736,768 -808,768 -808,608" /><polygon points="-736,384 -704,384 -704,488 -736,512" /><polygon points="-808,352 -808,128 -704,128 -704,144 -704,264 -704,352" /><polygon points="-704,384 -736,384 -808,384 -808,352 -704,352" /><polygon points="-808,128 -896,128 -896,16 -896,-16 -704,-16 -704,128" /><polygon points="-704,128 -704,-16 -640,-16 -512,-16 -512,0 -512,128 -512,144 -640,144 -704,144" /><polygon points="-512,0 -448,0 -448,128 -512,128" /><polygon points="-704,144 -704,144 -704,256 -704,264 -704,264" /><polygon points="-512,144 -512,144 -528,144 -640,144 -640,144" /><polygon points="-640,384 -640,448 -640,448 -640,384" /><polygon points="-704,704 -704,704 -640,768 -640,768" /><polygon points="-448,256 -448,256 -448,256 -448,256 -448,256 -448,256 -448,256 -640,256 -640,256" /><polygon points="-640,256 -640,256 -640,384 -640,384 -640,384" /><polygon points="-640,384 -640,384 -640,448 -640,448" /><polygon points="-640,704 -640,704 -640,768 -640,768" /><polygon points="-704,596 -704,556 -704,512 -704,512 -704,608 -704,640 -704,640" /><polygon points="-704,640 -704,640 -640,704 -640,704" /><polygon points="-640,448 -640,448 -704,512 -704,512" /><polygon points="-808,768 -736,768 -704,768 -640,768 -576,832 -584,832 -808,832" /><polygon points="-808,768 -808,832 -808,920 -896,832 -896,768" /><polygon points="-584,960 -768,960 -808,920 -808,832 -584,832" /><polygon points="-576,832 -528,832 -472,832 -448,832 -448,960 -544,960 -584,960 -584,832" /><polygon points="-448,832 -472,832 -472,832 -472,832 -320,832" /><polygon points="-448,832 -320,832 -320,960 -448,960" /><polygon points="-928,596 -928,556 -928,488 -896,464 -896,576 -896,688 -928,664" /><polygon points="-928,596 -928,596 -928,556 -928,556" /><polygon points="-928,556 -928,556 -928,488 -928,488 -928,556" /><polygon points="-528,768 -528,768 -472,768 -472,768" /><polygon points="-472,832 -472,832 -528,832 -528,832" /><polygon points="-528,832 -528,768 -472,768 -472,832" /><polygon points="-704,556 -704,556 -704,512 -704,512 -704,556" /><polygon points="-736,596 -736,596 -736,640 -736,640 -736,608 -736,596" /><polygon points="-736,596 -736,596 -736,556 -736,556" /><polygon points="-736,596 -736,556 -704,556 -704,596" /><polygon points="-704,556 -704,556 -704,596 -704,596" /><polygon points="928,-128 928,-128 928,-96 928,-96" /><polygon points="-544,960 -768,960 -768,960 -584,960 -544,960" /><polygon points="-64,960 -64,960 -96,960 -96,960" /><polygon points="-896,832 -896,832 -808,920 -768,960 -768,960" /><polygon points="-896,768 -896,688 -896,688 -896,768 -896,832 -896,832" /><polygon points="928,352 928,352 800,352 800,352" /><polygon points="768,224 768,224 800,224 800,224" /><polygon points="800,0 800,96 800,224 800,224 800,96 800,10.6667 800,0" /><polygon points="800,-64 800,0 800,0" /><polygon points="800,96 800,0 800,-64 800,-128 864,-128 928,-128 928,-96 928,96" /><polygon points="928,128 928,224 800,224 800,96 928,96" /><polygon points="672,-64 672,-128 800,-128 800,-64" /><polygon points="672,-64 672,-64 672,-128 672,-128" /><polygon points="672,-64 800,-64 800,0 800,10.6667 800,160 672,160" /><polygon points="800,352 768,352 768,224 800,224 928,224 928,352" /><polygon points="768,224 768,352 640,352 576,352 576,224" /><polygon points="-248,768 -288,768 -472,768 -472,768 -472,768 -320,768 -248,768" /><polygon points="-40,-320 -40,-320 -64,-320 -64,-320 -40,-320" /><polygon points="224,-320 384,-320 384,-320 352,-320 184,-320 184,-320" /><polygon points="0,-320 -40,-320 -40,-320 0,-320" /><polygon points="224,-320 184,-320 0,-320 0,-320 0,-320 144,-320 224,-320" /><polygon points="384,-320 384,-320 384,-176 384,-120 384,-120 384,-296 384,-320" /><polygon points="-704,264 -704,488 -704,488 -704,384 -704,352 -704,264" /><polygon points="-640,144 -640,144 -704,144 -704,144 -704,144 -640,144" /><polygon points="-640,144 -528,144 -528,144 -528,144 -640,144" /><polygon points="-528,144 -512,144 -512,144 -528,144" /><polygon points="-640,384 -640,256 -640,256 -640,384" /><polygon points="-704,488 -704,488 -736,512 -736,512 -704,488" /><polygon points="-64,960 -64,832 -64,832 -64,960" /><polygon points="-472,768 -472,768 -472,768 -472,832 -472,832 -472,832 -472,768" /><polygon points="-288,832 -288,768 -248,768 -208,768 -144,768 -128,768 -128,832" /><polygon points="-96,960 -320,960 -320,832 -288,832 -128,832 -96,832" /><polygon points="-64,832 -64,960 -96,960 -96,832" /><polygon points="-528,832 -528,832 -528,768 -528,768 -528,768 -528,832" /><polygon points="-528,832 -528,832 -528,832 -576,832 -576,832" /><polygon points="-640,768 -576,832 -576,832 -640,768" /><polygon points="-896,688 -896,688 -928,664 -928,664 -896,688" /><polygon points="-960,556 -960,556 -928,556 -928,556" /><polygon points="-960,596 -960,556 -928,556 -928,596" /><polygon points="448,112 448,112 448,112 448,96 448,-128 448,-128 448,-128 448,96 448,112" /><polygon points="384,112 448,112 448,112 384,112" /><polygon points="448,248 384,248 384,248 448,248" /><polygon points="352,248 352,248 352,256 352,307.2 352,320 352,320 352,248" /><polygon points="352,112 384,112 384,112 352,112" /><polygon points="384,248 352,248 352,248 384,248" /><polygon points="352,112 352,180 384,180 384,112" /><polygon points="384,320 384,256 384,272 384,480 384,480" /><polygon points="352,320 352,512 352,472 352,320" /><polygon points="384,320 384,480 384,512 352,512 352,320" /><polygon points="384,180 448,180 448,112 384,112" /><polygon points="448,180 384,180 384,248 448,248" /><polygon points="352,180 352,180 352,248 352,248" /><polygon points="384,180 352,180 352,248 384,248" /><polygon points="448,112 448,112 448,180 448,180" /><polygon points="448,180 448,180 448,248 448,248" /><polygon points="-448,-16 -448,-176 -448,-16 -448,0 -448,0" /><polygon points="-64,96 -64,192 -64,320 -64,320 -64,256 -64,96" /><polygon points="-64,-320 -64,-320 -64,-256 -64,-256" /><polygon points="192,320 192,320 160,320 160,320" /><polygon points="0,-128 0,-320 -40,-320 -64,-320 -64,-256 -64,-128" /><polygon points="192,32 192,32 192,96 192,96" /><polygon points="352,180 352,180 352,112 352,112" /><polygon points="352,81.6 352,104 352,104" /><polygon points="352,81.6 352,104 352,112 352,112 352,112 352,32 352,-8" /><polygon points="352,307.2 352,256 384,256 384,320 352,320" /><polygon points="352,248 352,180 352,112 352,104 192,32 192,96 192,256 352,256" /><polygon points="192,256 192,320 352,256" /><polygon points="192,32 192,32 184,32 0,32 0,32 192,32" /><polygon points="160,320 -64,320 -64,352 -64,544 160,544" /><polygon points="-224,-256 -352,-256 -352,-256 -224,-256" /><polygon points="-64,-256 -64,-256 -128,-256 -128,-256" /><polygon points="-64,-128 -64,-256 -128,-256 -224,-256 -224,-64 -204,-32 -64,-32" /><polygon points="-204,-32 -64,192 -64,96 -64,-32" /><polygon points="-224,-64 -224,-64 -204,-32 -204,-32" /><polygon points="-448,-176 -448,-256 -352,-256 -352,-128 -352,-16 -448,-16" /><polygon points="-448,0 -448,0 -512,0 -512,0" /><polygon points="-512,128 -512,144 -512,144 -512,144 -512,128" /><polygon points="-512,128 -512,128 -448,128 -448,128 -448,128" /><polygon points="-64,352 -64,320 -64,320 -64,352" /><polygon points="192,352 192,544 192,576 192,576 192,544 192,352" /><polygon points="-448,-16 -448,-16 -448,0" /><polygon points="-448,144 -448,128 -448,128 -448,144" /><polygon points="-448,-16 -448,0 -512,0 -512,-16" /><polygon points="-512,-16 -512,0 -512,0 -512,-16" /><polygon points="-528,144 -512,144 -448,144 -448,144 -480,144 -528,144" /><polygon points="-512,144 -512,128 -448,128 -448,144" /><polygon points="928,352 928,352 928,224 928,128 928,128" /><polygon points="928,128 928,128 928,96 928,-96 928,-96" /><polygon points="928,-128 928,-128 928,-96 928,-96" /><polygon points="-960,596 -960,640 -960,640 -960,596" /><polygon points="-960,596 -960,596 -960,596 -960,556 -960,556 -960,556 -960,556 -960,596" /><polygon points="448,112 448,192 448,160 448,96 448,96" /><polygon points="448,192 448,112 448,112 448,180 448,248 448,248" /><polygon points="448,352 448,248 448,248 448,248 448,248 448,352" /><polygon points="640,352 768,352 800,352 800,352" /><polygon points="928,352 928,352 800,352 800,352" /><polygon points="576,352 576,352 768,352" /><polygon points="640,-128 640,-128 640,-128 576,-128 576,-128 576,-128" /><polygon points="864,-128 864,-128 800,-128 672,-128 640,-128 640,-128" /><polygon points="928,-128 928,-128 864,-128 864,-128" /><polygon points="448,-128 448,-128 576,-128 576,-128 576,-128 448,-128" /><polygon points="576,224 768,224 768,224 576,224" /><polygon points="576,224 576,352 768,352 768,224" /><polygon points="576,224 576,192 448,192 448,248 448,352 576,352" /><polygon points="736,672 736,672 736,672 736,448 736,448" /><polygon points="736,448 736,448 736,416 736,416 736,416" /><polygon points="736,672 736,672 672,672 640,672 640,672 640,672 736,672" /><polygon points="-640,768 -640,768 -640,768 -640,768 -544,768 -528,768 -528,768 -528,768" /><polygon points="-128,768 -128,768 -64,768 -64,768" /><polygon points="-472,768 -472,768 -288,768 -288,768" /><polygon points="384,768 384,768 192,768 192,768 384,768" /><polygon points="-448,-320 -448,-256 -448,-256 -448,-320" /><polygon points="-448,-256 -448,-176 -448,-16 -448,-16 -448,-16 -448,-192 -448,-256" /><polygon points="-224,-384 -448,-384 -448,-448 -224,-448" /><polygon points="-192,-448 -96,-448 -96,-384 -224,-384 -224,-448" /><polygon points="-96,-384 -96,-448 -80,-448 -64,-448 -64,-384" /><polygon points="-80,-448 -96,-448 -192,-448 -80,-504" /><polygon points="-64,-512 -64,-448 -80,-448 -80,-504" /><polygon points="-64,320 -64,320 -64,192 -64,192" /><polygon points="320,-320 384,-320 384,-320 224,-320 224,-320" /><polygon points="384,544 384,512 384,512 384,736 384,736" /><polygon points="384,544 384,736 384,768 384,768 384,768 384,736 384,544" /><polygon points="384,480 384,512 384,544 384,544 384,512 384,480" /><polygon points="384,-120 384,-176 384,-176 384,-176 384,-128 384,-80 384,0 384,48 384,48" /><polygon points="384,-120 384,48 384,104 384,-8 384,-72 384,-120" /><polygon points="384,-176 384,-320 384,-320 384,-256 384,-176" /><polygon points="-40,-320 0,-320 0,-128 0,-96 -40,-96" /><polygon points="0,-96 0,32 -40,32 -40,-96" /><polygon points="352,112 352,104 384,104 384,112" /><polygon points="-40,128 -40,32 0,32 184,32 184,256 -40,256" /><polygon points="184,256 184,320 160,320 -40,320 -40,256" /><polygon points="184,32 192,32 352,104 352,112 352,248 352,256 184,256" /><polygon points="352,256 192,320 184,320 184,256" /><polygon points="352,112 384,112 384,248 352,248" /><polygon points="352,256 352,248 384,248 384,256" /><polygon points="-64,-256 -64,-320 -40,-320 -40,-96 -64,-96" /><polygon points="-40,-96 -40,32 -40,128 -64,128 -64,-32 -64,-96" /><polygon points="-40,128 -40,256 -40,320 -64,320 -64,192 -64,128" /><polygon points="0,-320 0,-320 0,-128 0,-128" /><polygon points="352,256 352,307.2 352,256" /><polygon points="384,104 352,104 352,81.6 352,-8 384,-8" /><polygon points="352,256 352,256 192,320 192,320" /><polygon points="192,32 192,32 352,104 352,104" /><polygon points="0,32 0,-96 0,-128 0,-128 0,-128 0,-104 0,32" /><polygon points="192,320 192,320 192,352 192,352" /><polygon points="184,320 192,320 192,352 192,544 160,544 160,320" /><polygon points="-224,-256 -352,-256 -448,-256 -448,-320 -224,-320" /><polygon points="-96,-320 -64,-320 -64,-256 -224,-256 -224,-320" /><polygon points="-224,-320 -448,-320 -448,-384 -224,-384" /><polygon points="-96,-384 -96,-320 -224,-320 -224,-384" /><polygon points="-64,-320 -96,-320 -96,-320 -64,-320" /><polygon points="-224,-64 -224,-256 -64,-256 -64,-96 -64,-32 -204,-32" /><polygon points="-64,-32 -64,128 -64,192 -204,-32" /><polygon points="-224,-64 -224,-64 -224,-256 -224,-256" /><polygon points="-204,-32 -64,192 -64,192 -204,-32" /><polygon points="-352,-256 -352,-256 -352,-256 -352,-128 -352,-128" /><polygon points="-736,556 -704,556 -704,556 -736,556" /><polygon points="-704,384 -704,488 -704,488 -704,264 -704,256 -704,256" /><polygon points="-704,256 -704,256 -704,144 -704,144 -704,144 -704,208 -704,256" /><polygon points="-448,256 -448,256 -448,256 -640,256 -640,256 -640,256" /><polygon points="-640,256 -640,256 -640,384 -640,448 -640,448" /><polygon points="-640,448 -640,448 -640,448 -704,512 -704,512" /><polygon points="-736,512 -736,556 -736,556 -736,556 -736,512" /><polygon points="-736,556 -736,512 -704,488 -704,512 -704,556" /><polygon points="-640,704 -640,704 -640,768 -640,768 -640,768" /><polygon points="-704,596 -736,596 -736,596 -704,596" /><polygon points="-704,664 -704,704 -704,704 -704,704 -704,664" /><polygon points="-704,640 -704,596 -704,596 -704,596 -704,640" /><polygon points="-704,704 -704,704 -704,704 -640,768 -640,768 -640,768 -704,704" /><polygon points="-704,596 -704,640 -704,664 -736,640 -736,596" /><polygon points="-736,640 -704,664 -704,664 -736,640" /><polygon points="-928,596 -928,664 -960,640 -960,596" /><polygon points="-960,556 -960,512 -928,488 -928,556" /><polygon points="-928,664 -896,688 -896,688 -928,664 -960,640 -960,640" /><polygon points="-928,488 -896,464 -896,464 -928,488" /><polygon points="-928,596 -960,596 -960,596 -928,596" /><polygon points="-928,664 -928,596 -928,596 -928,596 -928,664" /><polygon points="448,160 448,192 576,192 576,160" /><polygon points="-64,-384 -64,-384 -64,-448 -64,-512 -64,-512" /><polygon points="-64,-384 -64,-512 -40,-512 -40,-384" /><polygon points="-960,512 -960,512 -960,556 -960,556" /><polygon points="-704,488 -704,384 -704,384 -704,488" /><polygon points="-704,488 -704,512 -704,512 -704,488 -704,384 -704,384" /><polygon points="-704,556 -704,512 -704,488 -736,512 -736,556" /><polygon points="-704,664 -704,704 -704,704 -704,664 -704,640 -704,640" /><polygon points="-736,596 -736,640 -704,664 -704,640 -704,596" /><polygon points="-928,556 -928,488 -960,512 -960,556" /><polygon points="-928,488 -896,464 -896,464 -928,488 -960,512 -960,512" /><polygon points="-960,596 -960,640 -928,664 -928,596" /><polygon points="448,192 448,192 448,192 448,192 448,192 448,192 448,192 448,160 448,160" /><polygon points="576,192 576,192 576,224 576,224" /><polygon points="448,192 576,192 576,224 576,352 448,352" /><polygon points="640,416 640,416 736,416 736,416 736,416 640,416" /><polygon points="640,448 640,416 640,416 640,416 640,448" /><polygon points="640,448 640,672 640,672 640,448" /><polygon points="-40,-384 -16,-384 -16,-384 -40,-384" /><polygon points="-40,-384 -40,-384 -40,-512 -40,-512" /><polygon points="-40,-384 -40,-512 -16,-512 -16,-384" /><polygon points="448,96 448,-64 448,-128 448,-128 448,96" /><polygon points="576,160 576,192 448,192 448,160" /><polygon points="448,192 448,192 448,352 448,352" /><polygon points="448,352 448,352 576,352 576,352" /><polygon points="448,368 448,352 576,352 576,368" /><polygon points="576,368 576,352 576,352 576,368" /><polygon points="-40,-512 -16,-512 -16,-512 -40,-512" /><polygon points="-40,-384 -16,-384 8,-384 8,-384 -40,-384" /><polygon points="-16,-384 -16,-512 8,-512 8,-384" /><polygon points="-16,-384 -16,-384 -16,-512 -16,-512" /><polygon points="384,-320 384,-320 320,-320 320,-320" /><polygon points="384,-256 384,-256 384,-176 384,-176" /><polygon points="320,-320 384,-256 384,-320" /><polygon points="-960,596 -960,596 -928,596 -928,596" /><polygon points="-960,556 -960,596 -928,596 -928,556" /><polygon points="448,192 448,192 448,352 448,368 448,368" /><polygon points="448,384 448,368 576,368 576,384" /><polygon points="576,384 576,368 576,352 576,352 576,384" /><polygon points="448,368 448,368 576,368 576,368" /><polygon points="-448,32 -448,144 -448,256 -448,256 -448,32" /><polygon points="-448,-192 -448,-16 -448,32 -448,32 -448,-192" /><polygon points="-448,144 -448,144 -448,144 -448,256 -448,256 -448,256" /><polygon points="-40,-512 8,-512 8,-512 -16,-512 -40,-512" /><polygon points="-40,-384 8,-384 32,-384 32,-384 -40,-384" /><polygon points="8,-384 8,-384 8,-512 8,-512" /><polygon points="8,-384 8,-512 32,-512 32,-384" /><polygon points="-480,-16 -448,-16 -448,-16 -512,-16 -512,-16" /><polygon points="-640,-16 -512,-16 -512,-16 -512,-16 -640,-16" /><polygon points="-704,-16 -640,-16 -640,-16 -704,-16" /><polygon points="-704,556 -704,556 -736,556 -736,556" /><polygon points="-704,-16 -704,-16 -704,144 -704,144" /><polygon points="-480,-16 -512,-16 -640,-16 -704,-16 -704,144 -640,144 -528,144 -480,144" /><polygon points="-448,32 -448,-16 -480,-16 -480,144 -448,144" /><polygon points="-736,596 -736,596 -704,596 -704,596" /><polygon points="-736,556 -736,596 -704,596 -704,556" /><polygon points="-288,768 -288,768 -288,768 -288,832 -288,832" /><polygon points="-128,832 -128,832 -128,768 -128,768 -128,768" /><polygon points="-288,768 -288,832 -256,832 -256,768" /><polygon points="-528,768 -528,832 -472,832 -472,768" /><polygon points="-928,556 -928,556 -960,556 -960,556" /><polygon points="-896,-16 -896,-64 -896,-64 -896,-16 -896,16 -896,16" /><polygon points="-896,688 -896,688 -896,688 -896,688 -896,768 -896,768" /><polygon points="448,192 448,192 448,368 448,384 448,384" /><polygon points="448,400 448,384 576,384 576,400" /><polygon points="576,400 576,384 576,352 576,352 576,400" /><polygon points="448,384 448,384 576,384 576,384" /><polygon points="-672,768 -736,768 -896,768 -896,768 -736,768 -672,768" /><polygon points="-40,-512 32,-512 32,-512 8,-512 -40,-512" /><polygon points="-40,-384 32,-384 56,-384 56,-384 -40,-384" /><polygon points="32,-384 32,-384 32,-512 32,-512" /><polygon points="32,-384 32,-512 56,-512 56,-384" /><polygon points="360,-240 360,-240 304,-296 304,-296" /><polygon points="344,-240 344,-192 360,-192 360,-240" /><polygon points="344,-240 360,-240 304,-296 304,-280" /><polygon points="344,-192 344,-176 360,-176 360,-192" /><polygon points="256,-280 304,-280 304,-296 256,-296 240,-296 240,-280" /><polygon points="-64,544 -64,576 160,576 160,544" /><polygon points="192,544 192,352 192,320 160,320 160,544" /><polygon points="-896,-64 -704,-64 -704,-64 -896,-64" /><polygon points="-704,-64 -704,-16 -704,-16 -704,-16 -704,-64" /><polygon points="-704,-64 -896,-64 -896,-16 -704,-16" /><polygon points="-704,384 -704,384 -704,384 -704,256 -704,256" /><polygon points="-896,-16 -896,16 -896,208 -704,208 -704,144 -704,-16" /><polygon points="-896,208 -896,240 -896,384 -789.3333,384 -736,384 -704,384 -704,256 -704,208" /><polygon points="-704,488 -704,384 -736,384 -736,512" /><polygon points="-896,464 -789.3333,384 -896,384" /><polygon points="-736,512 -736,384 -789.3333,384 -896,464 -896,556 -736,556" /><polygon points="-736,556 -736,556 -736,556 -736,512 -736,512" /><polygon points="-736,512 -736,512 -704,488 -704,488" /><polygon points="-736,596 -736,596 -736,556 -736,556" /><polygon points="-736,640 -736,640 -736,596 -736,596 -736,596" /><polygon points="-704,664 -736,640 -736,704 -704,704" /><polygon points="-672,768 -640,768 -704,704 -736,704 -736,768" /><polygon points="-704,556 -704,556 -704,596 -704,596" /><polygon points="-704,596 -704,596 -704,596 -704,640 -704,640" /><polygon points="-704,704 -704,704 -704,664 -704,664" /><polygon points="-704,640 -704,640 -704,640 -704,640 -640,704 -640,704 -640,704" /><polygon points="-704,664 -704,664 -736,640 -736,640" /><polygon points="-896,688 -896,768 -736,768 -736,704 -736,640 -736,596 -736,556 -896,556" /><polygon points="-896,464 -928,488 -928,556 -896,556" /><polygon points="-928,488 -928,488 -928,556 -928,556 -928,556" /><polygon points="-896,464 -896,464 -928,488 -928,488" /><polygon points="-928,596 -928,596 -928,596 -928,664 -928,664" /><polygon points="-928,556 -928,556 -928,596 -928,596" /><polygon points="-928,596 -928,664 -896,688 -896,556 -928,556" /><polygon points="-928,664 -928,664 -896,688 -896,688" /><polygon points="576,-32 576,160 576,192 576,192 576,160 576,-32" /><polygon points="576,-32 576,-64 448,-64 448,96 448,160 576,160" /><polygon points="-256,768 -256,832 -208,832 -208,768" /><polygon points="-160,768 -160,832 -128,832 -128,768" /><polygon points="448,192 448,192 448,384 448,400 448,400" /><polygon points="448,-128 448,-64 576,-64 576,-128" /><polygon points="448,416 448,400 576,400 576,416" /><polygon points="448,400 448,400 576,400 576,400" /><polygon points="-40,-512 56,-512 56,-512 32,-512 -40,-512" /><polygon points="-40,-384 56,-384 80,-384 80,-384 -40,-384" /><polygon points="56,-384 56,-384 56,-512 56,-512" /><polygon points="56,-384 56,-512 80,-512 80,-384" /><polygon points="-64,576 -64,576 -64,768 -64,768 -64,768 -64,768 -64,576" /><polygon points="384,736 384,768 384,768 384,736" /><polygon points="256,-296 256,-296 240,-296 240,-296 256,-296" /><polygon points="256,-296 256,-296 304,-296 304,-296" /><polygon points="360,-240 360,-240 360,-192 360,-192" /><polygon points="360,-240 344,-240 304,-280 304,-296" /><polygon points="344,-192 344,-240 360,-240 360,-192" /><polygon points="256,-280 256,-296 304,-296 304,-280" /><polygon points="304,-280 304,-280 256,-280 256,-280" /><polygon points="344,-192 344,-192 344,-240 344,-240" /><polygon points="344,-240 344,-240 304,-280 304,-280" /><polygon points="192,768 192,736 192,576 192,576 192,768" /><polygon points="384,512 192,576 192,736 384,736" /><polygon points="192,736 192,768 384,768 384,736" /><polygon points="160,576 -64,576 -64,576 -64,576 160,576" /><polygon points="192,576 192,544 160,544 160,576" /><polygon points="-208,768 -208,832 -160,832 -160,768" /><polygon points="448,192 448,192 448,400 448,416 448,416" /><polygon points="448,416 448,416 576,416 576,416" /><polygon points="576,432 576,416 576,416 576,432" /><polygon points="448,432 448,416 576,416 576,432" /><polygon points="-40,-512 80,-512 80,-512 56,-512 -40,-512" /><polygon points="-40,-384 80,-384 104,-384 104,-384 -40,-384" /><polygon points="80,-384 80,-512 104,-512 104,-384" /><polygon points="80,-384 80,-384 80,-512 80,-512" /><polygon points="-64,544 -64,576 -64,576 -64,544 -64,352 -64,352" /><polygon points="-64,544 -64,352 -64,320 -40,320 160,320 160,544" /><polygon points="192,544 192,576 160,576 160,544" /><polygon points="736,448 736,672 736,672 736,448" /><polygon points="640,448 640,416 640,416 640,448" /><polygon points="640,640 640,672 736,672 736,640" /><polygon points="640,416 640,640 736,640 736,416" /><polygon points="-40,-320 -40,-320 -64,-320 -64,-320 -40,-320" /><polygon points="144,-320 144,-320 0,-320 -40,-320 -40,-320" /><polygon points="448,160 448,64 448,-56 448,-64 448,160" /><polygon points="448,288 448,192 448,192 448,416 448,432 448,432" /><polygon points="448,288 448,432 448,512 448,512 448,512 448,416 448,352 448,288" /><polygon points="448,64 448,160 448,192 448,288 448,288 448,128 448,64" /><polygon points="480,-384 448,-384 448,-416" /><polygon points="448,-192 448,-256 448,-384 480,-384 512,-352 512,-192" /><polygon points="448,-128 448,-192 512,-192 576,-128" /><polygon points="512,-192 512,-352 512,-352 512,-192" /><polygon points="576,-128 512,-192 512,-192 576,-128" /><polygon points="448,-64 448,-96 448,-128 576,-128 576,-64" /><polygon points="576,-64 576,-64 576,-32 576,-32" /><polygon points="576,-128 576,-128 576,-64 576,-64" /><polygon points="448,-64 576,-64 576,-32 576,160 448,160" /><polygon points="448,608 448,512 448,432 576,432 640,432 640,448 640,672 448,672" /><polygon points="576,432 576,416 640,416 640,432" /><polygon points="736,672 736,672 736,672 672,672 672,672" /><polygon points="640,432 640,416 640,416 640,448 640,448" /><polygon points="448,432 448,432 576,432 576,432" /><polygon points="448,-416 416,-448 416,-448 448,-416" /><polygon points="-208,768 -208,768 -160,768 -160,768" /><polygon points="-160,768 -160,768 -128,768 -128,768" /><polygon points="-288,768 -288,768 -256,768 -256,768" /><polygon points="-256,768 -256,768 -208,768 -208,768" /><polygon points="104,-512 104,-512 80,-512 -40,-512 -40,-512 104,-512" /><polygon points="104,-384 104,-384 104,-512 104,-512" /><polygon points="128,-384 104,-384 104,-512 192,-512 192,-384" /><polygon points="240,-448 240,-384 192,-384 192,-512 240,-464" /><polygon points="240,-464 256,-448 240,-448" /><polygon points="448,-384 384,-384 320,-384 240,-384 240,-448 256,-448 416,-448 448,-416" /><polygon points="320,-384 384,-384 384,-320" /><polygon points="384,-384 448,-384 448,-256 384,-320" /><polygon points="192,-320 320,-320 320,-320 320,-320 224,-320 144,-320 144,-320 144,-320" /><polygon points="192,-384 240,-384 320,-384 320,-320 192,-320 128,-384" /><polygon points="320,-320 320,-384 384,-320" /><polygon points="384,272 384,224 384,224 384,224 384,288 384,288" /><polygon points="384,48 384,224 384,272 384,272 384,256 384,248 384,112 384,104 384,48" /><polygon points="384,272 384,288 384,512 384,512 384,512 384,480 384,272" /><polygon points="384,-80 384,-128 384,-128 384,-96 384,-80" /><polygon points="448,-256 448,-192 448,-128 448,-96 416,-96 384,-128 384,-176 384,-256 384,-320" /><polygon points="448,-96 448,-64 416,-96" /><polygon points="384,608 384,512 448,512 448,608" /><polygon points="384,-256 384,-256 320,-320 320,-320" /><polygon points="320,-320 384,-320 384,-256" /><polygon points="192,608 192,576 384,512 384,608" /><polygon points="-40,576 160,576 192,576 192,608 184,608 -40,608" /><polygon points="184,672.6667 0,688 -40,691.3333 -40,608 184,608" /><polygon points="192,608 384,608 192,672 184,672.6667 184,608" /><polygon points="-40,691.3333 0,688 -40,738" /><polygon points="-64,576 -40,576 -40,608 -40,691.3333 -40,738 -64,768" /><polygon points="-40,738 0,688 0,688 -64,768 -64,768" /><polygon points="192,576 192,576 384,512 384,512" /><polygon points="160,576 -40,576 -64,576 -64,544 160,544" /><polygon points="-160,832 -160,832 -208,832 -208,832" /><polygon points="-128,832 -128,832 -160,832 -160,832" /><polygon points="-256,832 -256,832 -288,832 -288,832" /><polygon points="-208,832 -208,832 -256,832 -256,832" /><polygon points="640,416 640,416 736,416 736,416" /><polygon points="736,672 736,672 640,672 640,672" /><polygon points="736,416 736,416 736,448 736,448" /><polygon points="640,672 640,672 640,448 640,448" /><polygon points="640,672 640,640 736,640 736,672" /><polygon points="640,640 640,416 736,416 736,640" /><polygon points="392,512 392,608 424,608 424,512" /><polygon points="-544,960 -736,960 -768,960 -768,960 -544,960" /><polygon points="-320,960 -512,960 -544,960 -544,960 -320,960" /><polygon points="-96,960 -288,960 -320,960 -320,960 -96,960" /><polygon points="-768,960 -896,832 -896,832 -768,960" /><polygon points="-896,768 -896,768 -896,768 -896,832 -896,832" /><polygon points="-640,768 -640,768 -672,768 -672,768" /><polygon points="-736,832 -736,768 -896,768 -896,832 -768,960 -736,960" /><polygon points="-576,832 -640,768 -672,768 -736,768 -736,832" /><polygon points="-512,832 -528,832 -576,832 -736,832 -736,960 -544,960 -512,960" /><polygon points="-288,832 -472,832 -512,832 -512,960 -320,960 -288,960" /><polygon points="-96,960 -64,960 -64,832 -128,832 -288,832 -288,960" /><polygon points="-64,832 -64,832 -96,832 -128,832 -128,832 -128,832 -128,832" /><polygon points="-128,832 -128,832 -160,832 -208,832 -256,832 -288,832 -288,832" /><polygon points="-288,832 -288,832 -288,832 -288,832 -320,832 -472,832 -472,832 -472,832" /><polygon points="-512,832 -472,832 -472,832 -528,832 -528,832" /><polygon points="-576,832 -528,832 -528,832 -528,832 -576,832" /><polygon points="-576,832 -576,832 -640,768 -640,768 -640,768 -640,768" /><polygon points="160,-320 192,-320 192,-320 144,-320 144,-320" /><polygon points="384,-96 384,-128 384,-128 384,-96" /><polygon points="160,-280 240,-280 240,-296 160,-296" /><polygon points="144,-280 160,-280 160,-296 160,-320 144,-320" /><polygon points="360,-96 360,-176 344,-176 344,-80 360,-80" /><polygon points="360,-96 360,-80 384,-80 384,-96" /><polygon points="144,-320 144,-320 144,-296 144,-280 144,-280" /><polygon points="344,-176 344,-192 344,-192 344,-80 344,-80" /><polygon points="240,-296 256,-296 256,-296 160,-296 160,-296" /><polygon points="360,-176 360,-176 344,-176 344,-176" /><polygon points="240,-280 240,-280 240,-296 240,-296" /><polygon points="360,-176 360,-192 360,-192 360,-192 360,-176" /><polygon points="360,-192 344,-192 344,-192 360,-192" /><polygon points="256,-280 256,-296 256,-296 256,-280" /><polygon points="256,-280 256,-280 256,-280 240,-280 240,-280" /><polygon points="344,-176 344,-176 344,-192 344,-192 344,-192" /><polygon points="448,-64 448,-64 448,-56 448,-56 448,-64" /><polygon points="-40,-512 -40,-512 -40,-512 -40,-512 -40,-512 -40,-512 -40,-512 -40,-512 -64,-512 -64,-512 -40,-512" /><polygon points="192,-512 192,-512 104,-512 104,-512" /><polygon points="192,-512 104,-512 -40,-512 -40,-512 192,-512" /><polygon points="192,-320 192,-320 160,-320 160,-320" /><polygon points="128,-384 128,-384 192,-320 192,-320 192,-320" /><polygon points="384,-128 384,-128 384,-128 416,-96 448,-64 448,-64" /><polygon points="360,-80 384,-80 384,-80 360,-80 344,-80 344,-80" /><polygon points="256,-296 256,-296 256,-280 256,-280" /><polygon points="344,-192 344,-192 360,-192 360,-192" /><polygon points="344,-192 360,-192 360,-96 360,-80 344,-80" /><polygon points="360,-80 360,-96 384,-96 384,-80" /><polygon points="360,-192 360,-192 360,-176 360,-96 360,-96" /><polygon points="360,-96 360,-96 384,-96 384,-96" /><polygon points="144,-280 144,-296 160,-296 256,-296 256,-280" /><polygon points="144,-296 144,-320 160,-320 160,-296" /><polygon points="160,-320 160,-320 160,-296 160,-296" /><polygon points="256,-280 256,-280 240,-280 160,-280 144,-280 144,-280" /><polygon points="928,352 928,352 928,128 928,128" /><polygon points="928,128 928,128 928,-96 928,-96" /><polygon points="928,-128 928,-128 928,-96 928,-96" /><polygon points="448,-56 448,-56 448,-56 448,-64 448,-64 448,-64" /><polygon points="576,352 576,352 576,352 576,352 576,352 576,352 640,352 800,352 800,352" /><polygon points="928,352 928,352 896,352 800,352 800,352" /><polygon points="640,-128 640,-128 576,-128 576,-128 576,-128 576,-128" /><polygon points="864,-128 864,-128 640,-128 640,-128" /><polygon points="928,-128 928,-128 864,-128 864,-128" /><polygon points="512,-352 512,-352 512,-192 512,-192" /><polygon points="512,-192 512,-192 576,-128 576,-128" /><polygon points="512,-352 512,-352 480,-384 448,-416 448,-416" /><polygon points="736,416 736,416 640,416 576,416 576,416 640,416 736,416" /><polygon points="576,352 576,352 576,416 576,416 576,416 576,416 576,400 576,352" /><polygon points="736,672 736,672 736,672 736,448 736,448" /><polygon points="736,448 736,448 736,416 736,416 736,416" /><polygon points="416,-448 416,-448 448,-416 448,-416" /><polygon points="-640,768 -640,768 -640,768 -640,768 -528,768 -528,768 -528,768" /><polygon points="-128,768 -128,768 -128,768 -128,768 -64,768 -64,768 -64,768" /><polygon points="-288,768 -288,768 -256,768 -208,768 -160,768 -128,768 -128,768" /><polygon points="-472,768 -472,768 -472,768 -288,768 -288,768 -288,768 -288,768" /><polygon points="-528,768 -528,768 -472,768 -472,768" /><polygon points="-448,-448 -448,-448 -448,-384 -448,-320 -448,-320 -448,-320" /><polygon points="-448,256 -448,256 -448,128 -448,32 -448,32" /><polygon points="-448,32 -448,32 -448,-96 -448,-192 -448,-192" /><polygon points="-448,-320 -448,-320 -448,-256 -448,-192 -448,-192" /><polygon points="-64,-512 -64,-512 -40,-512 -40,-512" /><polygon points="-40,-512 -40,-512 32,-512 192,-512 192,-512" /><polygon points="-96,-384 -96,-384 -64,-384 -64,-384 -64,-384" /><polygon points="-64,-384 -64,-384 -40,-384 -40,-384 -40,-384 -40,-384 -40,-384 -40,-384 -40,-384 -40,-384 -40,-384" /><polygon points="-40,-384 -40,-384 104,-384 128,-384 128,-384 128,-384" /><polygon points="416,-448 416,-448 256,-448 256,-448" /><polygon points="256,-448 256,-448 240,-464 192,-512 192,-512 192,-512" /><polygon points="-224,-448 -224,-448 -448,-448 -448,-448" /><polygon points="-192,-448 -192,-448 -224,-448 -224,-448" /><polygon points="-64,-512 -64,-512 -64,-512 -80,-504 -192,-448 -192,-448" /><polygon points="-64,-320 -64,-320 -40,-320 -40,-320 -40,-320" /><polygon points="-40,-320 -40,-320 144,-320 144,-320 144,-320 144,-320 144,-320 144,-320 -40,-320" /><polygon points="384,224 384,224 384,48 384,0 384,0" /><polygon points="384,0 384,0 384,-80 384,-80 384,-80 384,-80" /><polygon points="384,-80 384,-80 384,-96 384,-128 384,-128 384,-96 384,-80" /><polygon points="448,-64 448,-64 384,-128 384,-128 384,-128 384,-128 448,-64" /><polygon points="0,688 0,688 -40,738 -64,768 -64,768" /><polygon points="192,672 192,672 384,608 384,608" /><polygon points="0,688 0,688 184,672.6667 192,672 192,672" /><polygon points="-96,-320 -96,-320 -96,-384 -96,-384" /><polygon points="-96,-320 -96,-320 -64,-320 -64,-320" /><polygon points="-704,512 -704,512 -704,556 -704,556 -704,556 -704,556" /><polygon points="-448,256 -448,256 -448,256 -640,256 -640,256" /><polygon points="-640,256 -640,256 -640,448 -640,448" /><polygon points="-640,448 -640,448 -704,512 -704,512 -704,512" /><polygon points="-640,704 -640,704 -640,704 -640,768 -640,768 -640,768 -640,768" /><polygon points="-704,556 -704,556 -704,596 -704,640 -704,640" /><polygon points="-704,640 -704,640 -640,704 -640,704" /><polygon points="384,288 384,384 384,512 384,512 384,288" /><polygon points="384,288 384,224 384,224 384,352 384,384 384,384" /><polygon points="384,512 384,608 448,608 448,512" /><polygon points="384,608 384,608 384,608 448,608 448,608" /><polygon points="448,512 448,512 384,512 384,512" /><polygon points="384,608 384,608 192,672 192,672 384,608" /><polygon points="392,608 392,512 424,512 424,608" /><polygon points="392,512 392,512 424,512 424,512" /><polygon points="424,608 424,608 392,608 392,608" /><polygon points="424,512 424,512 424,608 424,608" /><polygon points="392,608 392,608 392,512 392,512" /><polygon points="448,128 448,288 448,352 448,352 448,320 448,128" /><polygon points="448,-56 448,-56 448,-56 448,64 448,64" /><polygon points="448,640 448,608 448,608 448,608 448,672 448,672" /><polygon points="448,512 448,512 448,608 448,608" /><polygon points="448,352 448,416 576,416 576,352" /><polygon points="736,416 736,416 736,448 736,448 736,416" /><polygon points="640,448 640,416 576,416 448,416 448,512 448,608 448,640 640,640" /><polygon points="448,640 448,672 640,672 640,640" /><polygon points="640,672 672,672 736,672 736,672" /><polygon points="640,448 640,640 640,672 736,672 736,448" /><polygon points="672,672 640,672 448,672 448,672 640,672 672,672" /><polygon points="160,-320 192,-320 192,-320 160,-320 144,-320 144,-320" /><polygon points="192,-320 192,-320 192,-320 128,-384 128,-384 128,-384 192,-320" /><polygon points="384,-80 384,-80 384,-80 384,-80 384,0 384,0 384,-80" /><polygon points="384,-96 384,-128 384,-128 384,-96" /><polygon points="360,-80 344,-80 344,-80 360,-80 384,-80 384,-80" /><polygon points="144,-296 144,-320 144,-320 144,-296 144,-280 144,-280" /><polygon points="256,-280 256,-296 160,-296 144,-296 144,-280" /><polygon points="360,-96 360,-192 344,-192 344,-80 360,-80" /><polygon points="144,-320 144,-296 160,-296 160,-320" /><polygon points="360,-96 360,-80 384,-80 384,-96" /><polygon points="344,-192 344,-192 344,-176 344,-80 344,-80" /><polygon points="256,-296 256,-296 240,-296 160,-296 160,-296" /><polygon points="192,-320 192,-320 160,-320 160,-320" /><polygon points="384,-80 384,-96 384,-128 384,-128 384,-80" /><polygon points="256,-296 256,-296 256,-280 256,-280" /><polygon points="360,-176 360,-192 360,-192 360,-96 360,-96" /><polygon points="360,-96 360,-96 384,-96 384,-96" /><polygon points="360,-80 360,-96 384,-96 384,-80" /><polygon points="344,-80 344,-176 360,-176 360,-96 360,-80" /><polygon points="344,-192 344,-192 360,-192 360,-192" /><polygon points="240,-280 256,-280 256,-280 144,-280 144,-280" /><polygon points="144,-296 144,-320 160,-320 160,-296" /><polygon points="144,-280 144,-296 160,-296 240,-296 240,-280" /><polygon points="160,-320 160,-320 160,-296 160,-296" /><polygon points="96,192 96,224 128,224 128,192" /><polygon points="128,224 128,224 96,224 96,224" /><polygon points="96,224 96,224 96,192 96,192" /><polygon points="128,192 128,192 128,224 128,224" /><polygon points="96,192 96,192 128,192 128,192" /><polygon points="96,224 96,192 128,192 128,224" /><polygon points="128,-384 128,-384 0,-384 -40,-384 -40,-384 128,-384" /><polygon points="320,-384 320,-384 224,-384 128,-384 128,-384" /><polygon points="384,-320 448,-256 448,-256 320,-384 320,-384" /><polygon points="384,-320 320,-384 320,-320" /><polygon points="320,-320 320,-384 128,-384 192,-320" /><polygon points="384,-128 384,-256 384,-256 384,-96 384,-80 384,-80" /><polygon points="448,-256 384,-256 384,-128 448,-64" /><polygon points="384,-256 448,-256 384,-320" /><polygon points="384,-256 384,-320 320,-320" /><polygon points="360,-240 360,-240 304,-296 304,-296" /><polygon points="256,-280 256,-296 256,-296 256,-280" /><polygon points="344,-192 344,-192 360,-192 360,-192" /><polygon points="256,-296 256,-280 304,-280 304,-296" /><polygon points="344,-240 360,-240 304,-296 304,-280" /><polygon points="344,-240 344,-192 360,-192 360,-240" /><polygon points="256,-296 256,-296 240,-296 240,-296 256,-296" /><polygon points="256,-296 256,-296 304,-296 304,-296" /><polygon points="360,-240 360,-240 360,-192 360,-192" /><polygon points="360,-176 360,-192 360,-192 360,-192 360,-176" /><polygon points="360,-176 360,-176 344,-176 344,-176" /><polygon points="344,-192 344,-240 360,-240 360,-192 360,-176 344,-176" /><polygon points="360,-240 344,-240 304,-280 304,-296" /><polygon points="256,-280 256,-296 304,-296 304,-280" /><polygon points="304,-280 304,-280 256,-280 256,-280" /><polygon points="344,-192 344,-192 344,-240 344,-240" /><polygon points="344,-240 344,-240 304,-280 304,-280" /><polygon points="344,-176 344,-176 344,-192 344,-192 344,-192" /><polygon points="256,-280 256,-280 256,-280 240,-280 240,-280" /><polygon points="240,-280 240,-280 240,-296 240,-296" /><polygon points="240,-280 240,-296 256,-296 256,-280" /><polygon points="928,128 928,320 928,352 928,352 928,128" /><polygon points="928,-96 928,96 928,128 928,128 928,-96" /><polygon points="-640,480 -640,448 -704,512 -704,556 -704,640 -672,672 -640,672" /><polygon points="-672,672 -640,704 -640,672" /><polygon points="-416,256 -448,256 -640,256 -640,448 -640,480 -416,480" /><polygon points="-640,480 -640,672 -640,704 -416,704 -416,480" /><polygon points="-640,704 -640,768 -528,768 -472,768 -416,768 -416,704" /><polygon points="-192,256 -224,256 -416,256 -416,480 -192,480" /><polygon points="-416,480 -416,704 -192,704 -192,480" /><polygon points="-416,704 -416,768 -288,768 -192,768 -192,704" /><polygon points="-40,480 -40,352 -40,256 -192,256 -192,480" /><polygon points="-40,704 -40,691.3333 -40,576 -40,480 -192,480 -192,704" /><polygon points="-128,768 -64,768 -40,738 -40,704 -192,704 -192,768" /><polygon points="-224,-320 -448,-320 -448,-192 -448,-96 -224,-96" /><polygon points="-448,-96 -448,32 -448,128 -224,128 -224,-96" /><polygon points="-448,128 -448,256 -416,256 -224,256 -224,128" /><polygon points="-40,-320 -64,-320 -96,-320 -224,-320 -224,-96 -40,-96" /><polygon points="-224,-96 -224,128 -40,128 -40,-96" /><polygon points="-224,128 -224,256 -192,256 -40,256 -40,128" /><polygon points="-224,-384 -448,-384 -448,-320 -224,-320" /><polygon points="-96,-320 -96,-384 -224,-384 -224,-320" /><polygon points="-40,704 -40,738 0,688 -40,691.3333" /><polygon points="184,-320 -40,-320 -40,-96 184,-96" /><polygon points="-40,-96 -40,128 184,128 184,-96" /><polygon points="-40,128 -40,256 -40,352 184,352 184,128" /><polygon points="-40,352 -40,480 -40,576 184,576 184,352" /><polygon points="-40,576 -40,691.3333 0,688 184,672.6667 184,576" /><polygon points="384,-256 320,-320 192,-320 184,-320 184,-96 384,-96" /><polygon points="184,-96 184,128 384,128 384,0 384,-80 384,-96" /><polygon points="184,128 184,352 384,352 384,224 384,128" /><polygon points="184,352 184,576 384,576 384,384 384,352" /><polygon points="184,576 184,672.6667 192,672 384,608 384,576" /><polygon points="448,-256 448,-384 320,-384" /><polygon points="32,-512 -40,-512 -64,-512 -192,-448 0,-448 32,-448" /><polygon points="224,-448 256,-448 192,-512 32,-512 32,-448" /><polygon points="-224,-448 -448,-448 -448,-384 -224,-384" /><polygon points="0,-448 -192,-448 -224,-448 -224,-384 -96,-384 -64,-384 -40,-384 0,-384" /><polygon points="224,-448 32,-448 0,-448 0,-384 128,-384 224,-384" /><polygon points="320,-384 448,-384 448,-416 416,-448 256,-448 224,-448 224,-384" /><polygon points="672,-128 640,-128 576,-128 448,-128 448,-64 448,-56 448,96 672,96" /><polygon points="448,96 448,128 448,320 672,320 672,96" /><polygon points="448,320 448,352 576,352 672,352 672,320" /><polygon points="896,-128 864,-128 672,-128 672,96 896,96" /><polygon points="672,96 672,320 896,320 896,96" /><polygon points="672,320 672,352 800,352 896,352 896,320" /><polygon points="928,-96 928,-128 896,-128 896,96 928,96" /><polygon points="896,96 896,320 928,320 928,128 928,96" /><polygon points="896,320 896,352 928,352 928,320" /><polygon points="576,-128 512,-192 448,-192 448,-128" /><polygon points="448,-384 448,-256 448,-192 512,-192 512,-352 448,-416" /><polygon points="448,-128 448,-192 448,-256 448,-256 448,-64 448,-64" /><polygon points="448,96 448,-56 448,-56 448,64 448,128 448,128" /><polygon points="800,352 672,352 576,352 576,352 576,352 800,352" /><polygon points="448,352 448,352 576,352 576,352" /><polygon points="576,-128 640,-128 640,-128 576,-128" /><polygon points="640,-128 672,-128 864,-128 864,-128 640,-128" /><polygon points="864,-128 896,-128 928,-128 928,-128 864,-128" /><polygon points="512,-352 512,-352 448,-416 448,-416" /><polygon points="736,416 736,416 640,416" /><polygon points="736,448 736,672 736,672 736,672 736,448" /><polygon points="736,416 640,416 640,448 736,448" /><polygon points="-528,768 -640,768 -640,768 -528,768" /><polygon points="-64,768 -128,768 -128,768 -64,768" /><polygon points="-128,768 -192,768 -288,768 -288,768 -128,768" /><polygon points="-288,768 -416,768 -472,768 -472,768 -288,768" /><polygon points="-472,768 -528,768 -528,768 -472,768" /><polygon points="-448,-320 -448,-384 -448,-448 -448,-448 -448,-320" /><polygon points="-448,-320 -448,-320 -448,-192 -448,-192" /><polygon points="-64,-384 -96,-384 -96,-384 -64,-384" /><polygon points="-40,-384 -64,-384 -64,-384 -40,-384" /><polygon points="256,-448 416,-448 416,-448 256,-448" /><polygon points="192,-512 256,-448 256,-448 192,-512" /><polygon points="-448,-448 -224,-448 -224,-448 -448,-448" /><polygon points="-224,-448 -192,-448 -192,-448 -224,-448" /><polygon points="-192,-448 -64,-512 -64,-512 -192,-448" /><polygon points="184,-320 192,-320 192,-320 192,-320 160,-320 144,-320 -40,-320 -40,-320" /><polygon points="320,-320 320,-320 192,-320 192,-320" /><polygon points="384,384 384,576 384,608 384,608 384,512 384,384" /><polygon points="384,0 384,128 384,224 384,224 384,224 384,0" /><polygon points="384,-256 384,-256 320,-320 320,-320" /><polygon points="192,672 184,672.6667 0,688 0,688 192,672" /><polygon points="-96,-384 -96,-320 -96,-320 -96,-384" /><polygon points="-704,556 -704,512 -704,512 -704,556" /><polygon points="-640,256 -448,256 -448,256 -640,256" /><polygon points="-640,448 -640,256 -640,256 -640,448" /><polygon points="-704,512 -640,448 -640,448 -704,512" /><polygon points="-640,768 -640,704 -640,704 -640,768" /><polygon points="-704,640 -704,556 -704,556 -704,640" /><polygon points="-640,704 -672,672 -704,640 -704,640 -640,704" /></g></defs><rect fill="#fff" height="2072.0" id="background" width="2232.0" x="-1132.0" y="-940.0" /><use fill="none" stroke="black" stroke-miterlimit="0" stroke-width="15" xlink:href="#bsp_ref" /><use fill="white" stroke="black" stroke-width="1" xlink:href="#bsp_ref" /></svg>