<svg viewBox="-960 -768 1888 1728" xmlns="http://www.w3.org/2000/svg" xmlns:xlink="http://www.w3.org/1999/xlink"><defs><g id="a"><path d="m-128 128h-88z"/><path d="m-128 768h-64z"/><path d="m-128 312v-56-32-96 96 32 64z"/><path d="m-128 224h-88v-96h88z"/><path d="m-224 256h-192-32v-32h224z"/><path d="m-216 224h88v32h-64-32v-32z"/><path d="m-416 312h-128-96v-56h192 32z"/><path d="m-192 312h-16-16-48-48-96v-56h192 32z"/><path d="m-128 256v56h-64v-56z"/><path d="m-256 384h-16v-72h48v72z"/><path d="m-208 432v-32-88h16 64v8 128h-80z"/><path d="m-224 384v-72h16v88z"/><path d="m-256 384-16 16v-16z"/><path d="m-208 432v16h-16z"/><path d="m-272 448v-16l16 16z"/><path d="m-128 544v32h-144v-40-88h16 32 16 80z"/><path d="m-544 464v-152h128 96v224h-224z"/><path d="m-320 536v40h-224v-40z"/><path d="m-320 312h48v72 16 32 16 88h-48z"/><path d="m-272 536v40h-48v-40z"/><path d="m-544 688v-112h224v192h-96-128z"/><path d="m-320 576h48 144v192h-64-128z"/><path d="m-544 464h-96z"/><path d="m-640 544v144 80-88z"/><path d="m-640 544v-80h96v72 40 112h-96z"/><path d="m-544 688v80h-96v-80z"/><path d="m-640 312h96z"/><path d="m-640 312v-56z"/><path d="m-216 128v96z"/><path d="m-216 224h-13.6v-96h13.6z"/><path d="m-544 312v152-138.4z"/><path d="m-640 680v-136-80h96v112 192h-96z"/><path d="m-544 576v-112h-96v80 136 88h96z"/><path d="m-128 576h-144-272v192h128 224 64z"/><path d="m-544 576h272 144v192h-64-224-128z"/><path d="m-544 464v-138.4h272v58.4 16 32 16 128h-272z"/><path d="m-272 448v-16-32-16-58.4h-272v138.4 112h272z"/><path d="m-272 448h16 32 16 80v96 32h-144z"/><path d="m-128 544v-96h-80-16-32-16v128h144z"/><path d="m-272 400 16-16h-16z"/><path d="m-256 384-16 16v-16z"/><path d="m-208 432v16h-16z"/><path d="m-224 448h16v-16z"/><path d="m-272 448v-16l16 16z"/><path d="m-272 432v16h16z"/><path d="m-128 256v-32h-101.6-218.4v32z"/><path d="m-229.6 224h101.6v32h-320v-32z"/><path d="m-224 384v-58.4h16v74.4z"/><path d="m-208 325.6h-16v58.4l16 16z"/><path d="m-208 432v-32-74.4h80v122.4h-80z"/><path d="m-128 325.6h-80v74.4 32 16h80z"/><path d="m-448 256h320v64 5.6h-80-16-48-272-96v-13.6-56z"/><path d="m-544 325.6h272 48 16 80v-5.6-64h-320-192v56 13.6z"/><path d="m-256 384h-16v-58.4h48v58.4z"/><path d="m-224 325.6h-48v58.4h16 32z"/><path d="m-128 224v-96h-101.6v96z"/><path d="m-128 128v96h-101.6v-96z"/><path d="m-128 768h-64z"/><path d="m-448 224v32z"/><path d="m-128 256v-32-96 192z"/><path d="m-229.6 224h-218.4 96 40.8z"/><path d="m-544 464v-16-122.4z"/><path d="m-229.6 128h101.6-88z"/><path d="m-416 768h-128-96 96z"/><path d="m-192 768h-224 96z"/><path d="m-128 544v32 192-192z"/><path d="m-128 320v5.6 122.4 96-96z"/><path d="m-229.6 224h13.6-8-224z"/><path d="m-448 256h-192z"/><path d="m-448 256v-32z"/><path d="m-224 448h-32z"/><path d="m-272 432v-32z"/><path d="m-208 400v32z"/><path d="m-256 384h32z"/><path d="m-272 400 16-16z"/><path d="m-208 432-16 16z"/><path d="m-256 448-16-16z"/><path d="m-224 384 16 16z"/><path d="m-640 325.6v-13.6z"/><path d="m-640 325.6v-13.6h96v13.6z"/><path d="m-640 464v80z"/><path d="m-312-456v64h64v-64z"/><path d="m-448-560v112z"/><path d="m-448-400v208 16z"/><path d="m-224-640h-224z"/><path d="m-96-416v-32 192z"/><path d="m-96-640v80z"/><path d="m-448-448v-112-80h224v224h-224z"/><path d="m-224-416v224h-224v-208-16z"/><path d="m-224-192v21.3333l-56 18.6667-168-24v-16z"/><path d="m-224-640h128v80 112 32h-128z"/><path d="m-96-416v160l-64 64h-64v-224z"/><path d="m-160-192-64 21.3333v-21.3333z"/><path d="m-312-608v64h64v-64z"/><path d="m-312-320v64h64v-64z"/><path d="m-208 400v32z"/><path d="m-208 432-16 16z"/><path d="m-256 384h32z"/><path d="m-224 448h-32z"/><path d="m-272 432v-32z"/><path d="m-224 384 16 16z"/><path d="m-272 400 16-16z"/><path d="m-256 448-16-16z"/><path d="m-248-456v64z"/><path d="m-248-392h-64z"/><path d="m-312-392v-64z"/><path d="m-312-456h64z"/><path d="m-312-392v-64h64v64z"/><path d="m-448 256v40z"/><path d="m-128 128h-101.6-122.4 128z"/><path d="m-128 320v-192 224z"/><path d="m-128 544v32 104 88-192z"/><path d="m-128 320v32 192-96-122.4z"/><path d="m-311.2 224h-40.8v-96h122.4v96z"/><path d="m-352 296v152 32 40-32-40z"/><path d="m-352 448v-152-72h-96v32 40 152z"/><path d="m-448 480h96v-32h-96z"/><path d="m-448 480v40h96v-40z"/><path d="m-288 576v104h160v-104z"/><path d="m-640 464v80 136z"/><path d="m-640 680v88z"/><path d="m-544 464h-96z"/><path d="m-544 576h32 40-32z"/><path d="m-544 680h32v-104h-32z"/><path d="m-544 576v-112h-96v216h96z"/><path d="m-448-560v112z"/><path d="m-448-640v80z"/><path d="m-448-448v32 16z"/><path d="m-448-400v224-144z"/><path d="m-96-448v-112-80h-128-224v80 112 48 224l168 24 120-40 8-8 56-56z"/><path d="m-448-400v-48-112-80h224 128v80 112 192l-56 56-8 8-120 40-168-24z"/><path d="m-224-640h-224 112z"/><path d="m-152-200 56-56z"/><path d="m-96-640v80z"/><path d="m-96-448v104 88z"/><path d="m-96-640h-128z"/><path d="m-96-560v112z"/><path d="m-448-176 168 24z"/><path d="m-152-200-8 8 64-64z"/><path d="m-280-152 56-18.6667 64-21.3333z"/></g><g id="b"><path d="m-896 472v224-152z"/><path d="m-896 696v72z"/><path d="m448 480v-64z"/><path d="m448 640v-64-96-64h128 96v224z"/><path d="m672 672h-224v-32h224z"/><path d="m736 416v32 192h-64v-224z"/><path d="m736 640v32h-64v-32z"/><path d="m672 416h-96 64 96z"/><path d="m736 672h-64z"/><path d="m-640 768h96-128z"/><path d="m-416 768h-128-96 96z"/><path d="m-192 768h-128-96z"/><path d="m384 768h-32z"/><path d="m-448-96v128 96z"/><path d="m-448-320v144 80-192z"/><path d="m-448-448v48z"/><path d="m-448 520v-32 56 32z"/><path d="m-448 296v152 40 32-40-32z"/><path d="m384 768v-128z"/><path d="m384 640v-64z"/><path d="m384-320v24 96z"/><path d="m384 576v-96h64v96z"/><path d="m160-320h-200-24 24 168z"/><path d="m-64-320h24v64h-24z"/><path d="m-64-256h24v93.3333l-24-8z"/><path d="m-64-170.6667 24 8v2.6667 32 160h-24z"/><path d="m-40-160h16v32h-16z"/><path d="m-40-128h16 24 48v16 144h-72-16z"/><path d="m48-112v-16h128v16z"/><path d="m176 32v-144-16h16v160z"/><path d="m48 32v-144h128v144z"/><path d="m384-160v32h-192l-8-32z"/><path d="m192-128h192v152 8h-192z"/><path d="m-24-160h-16v-2.6667-93.3333-64h200 24v160z"/><path d="m184-320h200v120 40h-200z"/><path d="m-336-640h-112z"/><path d="m-224-640h-112 32z"/><path d="m-112-640h-112 32z"/><path d="m-112-640h16-128z"/><path d="m-64-256v85.3333l-32-10.6666-32-10.6667z"/><path d="m-72 32h-24v-128-85.3333l32 10.6666v202.6667z"/><path d="m-448-96v-80l168 24v56z"/><path d="m-224 32h-224v-128h168 56z"/><path d="m-160-96h64v128h-128v-128z"/><path d="m-160-96v-96l8-8 24 8 32 10.6667v85.3333z"/><path d="m-224-96h-56v-56l120-40v96z"/><path d="m-160-192 8-8z"/><path d="m-448-176 168 24z"/><path d="m-280-152 120-40z"/><path d="m384 32v192h-192v-160-32z"/><path d="m-40 128v-64h16 216v160h-8-224z"/><path d="m-40 32h16v32h-16z"/><path d="m128 320v-64h56 168v224h-224z"/><path d="m352 480v160h-168-56v-64-32-64z"/><path d="m352 256h32v224h-32z"/><path d="m384 480v96 64h-32v-160z"/><path d="m184 256h-56-128-40v-32h224z"/><path d="m192 224h192v24 8h-32-168v-32z"/><path d="m-40 256h40v64h-40z"/><path d="m-40 544v-32-128-32-32h40 128v160 64z"/><path d="m128 576h-128-40v-32h168z"/><path d="m-40 576h40v64h-40z"/><path d="m184 768h-56-168v-32-96h40 128 56z"/><path d="m352 640h32v128h-32-168v-128z"/><path d="m-40 64v64h-32v-96h8 24z"/><path d="m-72 128h32v96 32 64 32h-32z"/><path d="m-40 352v32h-32v-32z"/><path d="m-72 384h32v128h-32z"/><path d="m-72 512h32v32 32 64 96h-32z"/><path d="m-40 736v32h-32v-32z"/><path d="m-224 128h-128-96v-96h224z"/><path d="m-96 32v96h-32-96v-96z"/><path d="m-72 128h-24v-96h24z"/><path d="m-128 352v32 128 64-32z"/><path d="m-128 736v32-88z"/><path d="m-128 128h32 24v224h-56z"/><path d="m-72 352v32h-48-8v-32z"/><path d="m-128 512v-128h8v128z"/><path d="m-128 680v-104-64h8 48v224h-56z"/><path d="m-72 736v32h-24-32v-32z"/><path d="m-296 680h168-160-40z"/><path d="m-328 576h32-56z"/><path d="m-296 576h-32 40 160z"/><path d="m-352 224h40.8z"/><path d="m-448 224v-96h96v96z"/><path d="m-352 520v56-32-56z"/><path d="m-352 224v72z"/><path d="m-448 448v-152-40-32h96v72 152z"/><path d="m-352 488h-96v-40h96z"/><path d="m-448 520v56h96v-56z"/><path d="m-448 680h120v-104h-24-96z"/><path d="m-296 576h168v104h-168z"/><path d="m-296 680h-56v-104h56z"/><path d="m-328 680h40v-104h-40z"/><path d="m-640 384v64z"/><path d="m-472 680h-32 56z"/><path d="m-544 680h40 32-40-32-96z"/><path d="m-544 576h40v104h-40z"/><path d="m-472 680h24v-104h-24z"/><path d="m-640 608v-160h96v16 112 104h-96z"/><path d="m-504 576h56v104h-56z"/><path d="m-640 448v-64-58.4h96v122.4z"/><path d="m-544 464v112z"/><path d="m-472 576h-40v104h40z"/><path d="m-640 384h-64z"/><path d="m-808 608v-96 128z"/><path d="m-808 512v-128h104 64v64 160h-168z"/><path d="m-640 608v72 88h-32-136v-128-32z"/><path d="m-808 640v128h-88v-72z"/><path d="m-896 384h88v128l-88-56z"/><path d="m-896 472v-16l88 56v96 32l-88 56z"/><path d="m-312-320h64z"/><path d="m-248-544h-64z"/><path d="m-248-608v64z"/><path d="m-312-608h64z"/><path d="m-312-544v-64z"/><path d="m-312-544v-64h64v64z"/><path d="m-312-256v-64z"/><path d="m-248-256h-64z"/><path d="m-248-320v64z"/><path d="m-312-256v-64h64v64z"/><path d="m-240-768h-64z"/><path d="m-896 768h88 136z"/><path d="m-544 768h-96-32z"/><path d="m-448-752v112-32z"/><path d="m-96-640h-16z"/><path d="m-96-768v16z"/><path d="m-128-736h-64-48v-32h112z"/><path d="m-96-768v16 16h-32v-32z"/><path d="m-304-768h64v32h-64z"/><path d="m-192-640h-32-80v-96h64 48z"/><path d="m-128-736h32v96h-16-80v-96z"/><path d="m-448-752v-16h112v128h-112z"/><path d="m-336-768h32v32 96h-32z"/><path d="m-96-560v112z"/><path d="m-448 680h96 56-32z"/><path d="m-448 544h96v32h-96z"/><path d="m-448 544v-56h96v56z"/><path d="m-352 576v104h-96v-104z"/><path d="m-448 576h-56 32z"/><path d="m-704 384h64z"/><path d="m-704 384h-104-88z"/><path d="m-448-768h112 32-32z"/><path d="m-448-560v112-96z"/><path d="m-448-672v32 80z"/><path d="m-448-768v16z"/><path d="m-448-640v80z"/><path d="m-448-352v-96 48 80z"/><path d="m-448-96v224-32z"/><path d="m-448 256v-128 96z"/><path d="m-448-288h-192z"/><path d="m-640-352h192v32 32h-192z"/><path d="m-448 256h-192z"/><path d="m-640 256v56 13.6 58.4z"/><path d="m-632-344v48h8v-48z"/><path d="m192-128h-16-128-48z"/><path d="m192-128-8-32z"/><path d="m-624-336v32h16v-32z"/><path d="m-624-336h16z"/><path d="m-608-304h-16z"/><path d="m-624-304v-32h16v32z"/><path d="m-624-304v-32z"/><path d="m-608-336v32z"/><path d="m-896 544v152 72-160z"/><path d="m-896 456v16z"/><path d="m-896 384v72z"/><path d="m-624-344v48z"/><path d="m-632-344h8z"/><path d="m-624-296h-8z"/><path d="m-632-296v-48h8v48z"/><path d="m-632-296v-48z"/><path d="m-808 512-88-56v16 72 152l88-56z"/><path d="m-896 544v-72-16l88 56v128l-88 56z"/><path d="m-808 512v96 32z"/><path d="m-808 512-88-56z"/><path d="m-896 456 88 56z"/><path d="m-808 640-88 56z"/><path d="m-896 696 88-56z"/><path d="m448 576v64 32z"/><path d="m-448-448v96z"/><path d="m384 640v-64-96z"/><path d="m384 480v96h64v-96z"/><path d="m384 576h64z"/><path d="m448 480h-64z"/><path d="m0 32h-24 72 128 16z"/><path d="m0 32h192z"/><path d="m0-116v-12z"/><path d="m0-116v12z"/><path d="m0-116v12h192v-24h-192z"/><path d="m-24-128h24z"/><path d="m-24-128v160h24v-136-12-12z"/><path d="m-24 32v32z"/><path d="m-640-352v64z"/><path d="m-448-352h-192v64h192z"/><path d="m-448-352h-192z"/><path d="m448 640v-160 96 96z"/><path d="m576 416h-128z"/><path d="m736 672v-32-192z"/><path d="m736 448v-32z"/><path d="m640 640v-192-32h-64-128v64 160z"/><path d="m448 672h192v-32h-192z"/><path d="m672 672h-32-192z"/><path d="m-240-768h-64z"/><path d="m-240-768h16 112 16-32z"/><path d="m-304-736v-32z"/><path d="m-304-768v32z"/><path d="m-240-736v-32h-64v32z"/><path d="m-304-736v-32h64v32z"/><path d="m-304-736h64z"/><path d="m-240-736h-64z"/><path d="m-240-768v32z"/><path d="m-240-736v-32z"/><path d="m192-104v-24z"/><path d="m0-104v136z"/></g><g id="c"><path d="m640 448v192 32z"/><path d="m640 416v32z"/><path d="m-544 768h160z"/><path d="m-320 768h-64-160 128z"/><path d="m-96 768h-224 128 64z"/><path d="m128 768h-168-56 24 32z"/><path d="m352 768h-168-56 56z"/><path d="m-448-768v16 80z"/><path d="m-448-344v-104 96 64z"/><path d="m-448-128v-160 192z"/><path d="m384 248v8 224-224z"/><path d="m384-320v24z"/><path d="m384 24v8 216-24-192z"/><path d="m384-200v128 96-152-32z"/><path d="m128-320h-168v64 96h16 205.3333z"/><path d="m384 32v-8-96l-128 72v32z"/><path d="m384 248v-216h-128-32-32v32 160 32h192z"/><path d="m192 256v64 24 136h192v-224z"/><path d="m192 480v64 32 64h192v-160z"/><path d="m181.3333-160h2.6667l8 32z"/><path d="m-24 32v-160-32h-16v32 192h16z"/><path d="m-40 64v32 128h16v-160z"/><path d="m192 64h-216v160h24 192z"/><path d="m128 320h64v-64h-64z"/><path d="m128 256h64v-32h-192v32z"/><path d="m-16 344h16 56 16 48 72v-24h-64-128-40v24z"/><path d="m0 256v-32h-24-16v32 64h40z"/><path d="m128 640h56 8v-64h-32-32z"/><path d="m160 544h-200-24v32h24 40 128 32z"/><path d="m192 576v-32h-32v32z"/><path d="m-40 640h40v-64h-40z"/><path d="m184 640h-56-128-40v128h168 56z"/><path d="m352 768h32v-128h-192-8v128z"/><path d="m-336-768h-112v96 112 16h112z"/><path d="m-448-544v96h112v-96z"/><path d="m-224-768h-16-64-32v224h112z"/><path d="m-336-544v96h112v-96z"/><path d="m-112-768h-112v224h112z"/><path d="m-224-544v96h112v-96z"/><path d="m-96-544v-16-80-112-16h-16v224z"/><path d="m-96-448v-96h-16v96z"/><path d="m-224-448h-112-112v104h96 128z"/><path d="m-128-344h32v-104h-16-112v104z"/><path d="m-96-181.3333v53.3333h56v-32-96h-24l-32 32z"/><path d="m-40-320h-24v64h24z"/><path d="m-352-128h128 96v-64l-24-8-168-56h-32z"/><path d="m-128-128h32v-53.3333l-32-10.6667z"/><path d="m-96-224-32 32 32 10.6667z"/><path d="m-96-256h-32-192l168 56z"/><path d="m-128-344h-96-128v88h32 192z"/><path d="m-96-256v-88h-32v88z"/><path d="m-352-256v-88h-96v56 160h96z"/><path d="m-224-128h-128-96v32 192h224z"/><path d="m-448 96v32 128h128 16 80v-160z"/><path d="m-40 64v-192h-56-32-96v224h184z"/><path d="m-224 96v160h160 24v-32-128z"/><path d="m-40 320v-64h-24v88h24z"/><path d="m-64 344v-88h-160-80v128h32 16 32 16 88 48 8z"/><path d="m-208 400v-16h-16z"/><path d="m-208 400v32 80h88v-128h-88z"/><path d="m-72 512h8v-128h-8z"/><path d="m-272 512h48v-32l-32-32-16-16z"/><path d="m-256 384h-16v16z"/><path d="m-304 480v32h32v-80-32-16h-32z"/><path d="m-304 576h208 32v-32-32h-8-48-88-16-48-32z"/><path d="m-224 480v32h16v-80l-16 16z"/><path d="m-224 480v-32h-32z"/><path d="m-384 320v64l64 64v-128z"/><path d="m-304 480v-96-128h-16v64 128 32z"/><path d="m-320 576h16v-64-32h-16z"/><path d="m-448 256 64 64h64v-64z"/><path d="m-96 576h-208-16v64 128h224z"/><path d="m-40 768v-128-64h-24-32v192z"/><path d="m-320 768v-128l-64 64v64z"/><path d="m256 32h-32z"/><path d="m352-320h-192-32 56z"/><path d="m0-104v136z"/><path d="m192 544v-64-136 72 16 16 16z"/><path d="m0 344h-16z"/><path d="m72 344h-16z"/><path d="m160 544h32-56-16-24-16-80-16-24z"/><path d="m-320 576v-96-32 32 96 64z"/><path d="m-64-256v-64z"/><path d="m352-320h32-200-24z"/><path d="m181.3333-160h-205.3333 208z"/><path d="m192-104h-192z"/><path d="m-24-160v32z"/><path d="m-24 32v-160z"/><path d="m-96-752v112-96z"/><path d="m-152-200 24 8z"/><path d="m-96-256-56 56z"/><path d="m-128-192 32-32 32-32z"/><path d="m-96-560v16 96z"/><path d="m-96-640v80z"/><path d="m-72 512v-128z"/><path d="m0 320h128z"/><path d="m192 64v-32z"/><path d="m128 256h-128z"/><path d="m-24 64h216z"/><path d="m0 256v64z"/><path d="m128 320v-64z"/><path d="m128 640v-64z"/><path d="m128 576h-128z"/><path d="m0 576v64z"/><path d="m128 640h-128z"/><path d="m-72 384h-48z"/><path d="m-120 512h48z"/><path d="m-120 384v128z"/><path d="m-208 432v-32z"/><path d="m-224 448 16-16z"/><path d="m-224 384h-32z"/><path d="m-256 448h32z"/><path d="m-272 400v32z"/><path d="m-208 400-16-16z"/><path d="m-256 384-16 16z"/><path d="m-272 432 16 16z"/><path d="m-64 512v32z"/><path d="m-64 472v24z"/><path d="m-64 432v24z"/><path d="m-64 512v-16-24-16-24-16-32-16-24 40 128 32z"/><path d="m192 344v72z"/><path d="m104 432h-88z"/><path d="m136 344h56-72z"/><path d="m136 416v-72z"/><path d="m136 416h56z"/><path d="m136 432h56v-16h-56z"/><path d="m136 416v-72h-16v24 16 32 16h16z"/><path d="m120 416h-48z"/><path d="m32 416h24z"/><path d="m-24 416h40z"/><path d="m120 384h-48z"/><path d="m72 368h48z"/><path d="m72 344h48z"/><path d="m72 384h48v-16h-48z"/><path d="m72 384v-16-24h-16v24 16 32h16z"/><path d="m56 384h-24z"/><path d="m16 384h-40z"/><path d="m-40 384h-24z"/><path d="m56 368h-56z"/><path d="m-16 368h-48z"/><path d="m-16 344v24h16v-24z"/><path d="m-40 384h16 40 16 24v-16h-56-16-48v16z"/><path d="m16 384v32h16v-32z"/><path d="m-40 384v32h16v-32z"/><path d="m0 432h16 88 16v-16h-48-16-24-16-40-16-24v16z"/><path d="m-40 544h-24z"/><path d="m0 544h80z"/><path d="m-40 544h24z"/><path d="m136 544h56z"/><path d="m96 544h24z"/><path d="m120 464v32z"/><path d="m120 432v16z"/><path d="m192 448h-72z"/><path d="m144 464h16 32v-16h-72v16z"/><path d="m136 496h8-8-16z"/><path d="m144 464v32h16v-32z"/><path d="m136 512h24v-16h-16-8z"/><path d="m136 512v-16h-16v16 32h16z"/><path d="m104 496h-88z"/><path d="m0 496h-64z"/><path d="m104 432v64z"/><path d="m120 464v-16-16h-16v64h16z"/><path d="m0 456v-24z"/><path d="m16 432h-16v24 16 24h16z"/><path d="m0 456h-64z"/><path d="m0 472v-16h-64v16z"/><path d="m120 512h-24z"/><path d="m-16 512h16 80 16 24v-16h-16-88-16-64v16z"/><path d="m80 512v32h16v-32z"/><path d="m-16 512v32h16v-32z"/><path d="m-64 384v32z"/><path d="m-64 368v-24z"/><path d="m192 464v-16-16-16-72 128 40 32z"/><path d="m192 464v80z"/><path d="m192 432v16z"/><path d="m0 432h-64z"/><path d="m136 432h56-56-16z"/><path d="m120 368v-24z"/><path d="m120 416v-32z"/><path d="m192 344h-56z"/><path d="m136 416h56v16h-56z"/><path d="m120 416v-32-16-24h16v72 16h-16z"/><path d="m-64 416h24z"/><path d="m72 384v32z"/><path d="m72 344v24z"/><path d="m72 368h48v16h-48z"/><path d="m56 344h-56z"/><path d="m56 368v-24z"/><path d="m56 416v-32z"/><path d="m56 384v-16-24h16v24 16 32h-16z"/><path d="m0 344v24z"/><path d="m-16 368v-24z"/><path d="m-16 368v-24h16v24z"/><path d="m-16 368h16 56v16h-24-16-40-16-24v-16z"/><path d="m-24 384v32z"/><path d="m16 416v-32z"/><path d="m32 384v32z"/><path d="m16 416v-32h16v32z"/><path d="m-40 416v-32z"/><path d="m-40 416v-32h16v32z"/><path d="m-40 416h16 40 16 24 16 48v16h-16-88-16-64v-16z"/><path d="m-16 544h16 80 16 24 16 56-32-200z"/><path d="m120 544v-32z"/><path d="m192 464h-32z"/><path d="m144 464h-24z"/><path d="m192 448v16h-32-16-24v-16z"/><path d="m160 496v-32 32 16z"/><path d="m144 496v-32z"/><path d="m144 496v-32h16v32z"/><path d="m136 512v32z"/><path d="m160 512h-24z"/><path d="m136 496h8 16v16h-24z"/><path d="m120 512v-16h16v16 32h-16z"/><path d="m16 432v64z"/><path d="m104 432h16v16 16 32h-16z"/><path d="m0 496v-24z"/><path d="m0 472v-16-24h16v64h-16z"/><path d="m0 472h-64z"/><path d="m0 456v16h-64v-16z"/><path d="m80 512h-80z"/><path d="m-16 512h-48z"/><path d="m0 496h16 88 16v16h-24-16-80-16-48v-16z"/><path d="m0 512v32z"/><path d="m80 544v-32z"/><path d="m96 512v32z"/><path d="m80 544v-32h16v32z"/><path d="m-16 544v-32z"/><path d="m-16 544v-32h16v32z"/><path d="m928-128v32z"/><path d="m896 352h32-128z"/><path d="m896-128h-224 128z"/><path d="m800 96h96 32v32 32h-32-96z"/><path d="m896 96h-96-128v-224h224z"/><path d="m928-128v32 192h-32v-224z"/><path d="m896 224h-224v-64h128 96z"/><path d="m928 160v64h-32v-64z"/><path d="m448-128h128 64 32v224h-224z"/><path d="m672 96v64 64h-224v-112-16z"/><path d="m672 352h-96-128v-104-24h224z"/><path d="m896 352h-96-128v-128h224z"/><path d="m928 224v128h-32v-128z"/><path d="m672 96v-160 224z"/><path d="m-248 768h40-40-72z"/><path d="m-448 208v48z"/><path d="m-384 768v-64l64-64v88 40z"/><path d="m-248 760v8h-72v-40h72z"/><path d="m-248 760h32 8v8h-40z"/><path d="m-216 728h8v32h-8z"/><path d="m-320 640v-64h112v96 32 24h-8-32-72z"/><path d="m-144 672v21.125 10.875h-64v-32z"/><path d="m-65 743 1-.2581v25.2581h-60.6774l-2.3226-9z"/><path d="m-104 672h32 8v4.6129l-17 4.3871-62 16-1-3.875v-21.125z"/><path d="m-64 676.6129v66.129l-1 .2581-16-62z"/><path d="m-143 697 16 62 2.3226 9h-19.3226v-64-10.875z"/><path d="m-104 576v64 32h-40-64v-96z"/><path d="m-64 640v32h-8v-32z"/><path d="m-96 576h32v64h-8-32v-64z"/><path d="m-320 256v64h-64l-64-64z"/><path d="m-320 320v128l-64-64v-64z"/><path d="m-320 480v-32-128-64h96 128v224z"/><path d="m-96 576h-8-104-112v-96h224z"/><path d="m-64 256v64 24 136h-32v-224z"/><path d="m-64 480v64 32h-32v-96z"/><path d="m-352-128h48v224l-48-48z"/><path d="m-224 256h-96-128v-48l144-56 80-31.1111z"/><path d="m-160 96 80-31.1111 16-6.2222v37.3333 160h-32-128v-135.1111z"/><path d="m-80 64.8889-80 31.1111h-144v-224h176 48z"/><path d="m-160 96-64 24.8889-80 31.1111v-56z"/><path d="m-64 58.6667-16 6.2222v-192.8889h16z"/><path d="m-128-128h-176-48v-128h224z"/><path d="m-64-256h24v96 32h-24-16-48v-128z"/><path d="m-64-320h24v64h-24z"/><path d="m160 576h-224v-32h24 200z"/><path d="m192 544v32h-32v-32z"/><path d="m160 344h-40-48-88-48v-24h224z"/><path d="m192 320v24h-32v-24z"/><path d="m192 576v-32-32h160 32v32 192h-192z"/><path d="m384 736v32h-192v-32z"/><path d="m192 472v-128-24-72h160v72 152z"/><path d="m352 512h-160v-40h160z"/><path d="m352 224h32v24h-32-160v-24z"/><path d="m0-128h-40v-32h40z"/><path d="m0-128v-32h181.3333l10.6667 32v24h-192z"/><path d="m352 112v112h-160v-128-64h32 32 96z"/><path d="m384 224v-112h64v112 24h-64z"/><path d="m384 112v112h-32v-112z"/><path d="m352-8h-81.7778l113.7778-64v64z"/><path d="m256 32v-32l14.2222-8h81.7778v40z"/><path d="m-40-256v-64h168l53.3333 160h-181.3333-40z"/><path d="m-64 58.6667v-186.6667 96 128z"/><path d="m184-320h-56-168 40z"/><path d="m160 320h-224z"/><path d="m-40-128h40-64z"/><path d="m192 96v128 24 72-64z"/><path d="m192 576h-32z"/><path d="m-128-256h-224 128z"/><path d="m-304 96-16-16-32-32z"/><path d="m384-296v176 48-128z"/><path d="m224 32h-32-192 192z"/><path d="m192-104h-192z"/><path d="m384-320h-32z"/><path d="m192-128v24z"/><path d="m181.3333-160-53.3333-160 53.3333 160 10.6667 32z"/><path d="m256 32v-32z"/><path d="m270.2222-8-14.2222 8 128-72z"/><path d="m-64 480v-136 24 16 32 16 24 16 24 16 32z"/><path d="m160 344h32-56-16z"/><path d="m-16 344h-24-24z"/><path d="m72 344h-16-56-16z"/><path d="m-384 768v-64z"/><path d="m-384 384v-64z"/><path d="m-320 448-64-64z"/><path d="m-384 704 64-64z"/><path d="m-384 320-64-64z"/><path d="m-448 208v48-64z"/><path d="m-304 96v56z"/><path d="m-304 152-144 56z"/><path d="m-352 48v-176z"/><path d="m-320 80 16 16v56l-16-8z"/><path d="m-320 144 16 8-144 56v-16z"/><path d="m-896 384v72 16 72z"/><path d="m576-128h-128z"/><path d="m-672 768h-32-192z"/><path d="m-320 768h-152-56-16 160z"/><path d="m-208 768h-40z"/><path d="m192 768h192z"/><path d="m-448 192v64-80z"/><path d="m192 576v160 32z"/><path d="m-64 576h224z"/><path d="m192 576h-32z"/><path d="m-104 640h32z"/><path d="m-336 64-16-16 32 32z"/><path d="m-336 64 16 16v64l-16-8z"/><path d="m-336 136 16 8-128 48v-16z"/><path d="m-320 80v64z"/><path d="m-320 144-128 48z"/><path d="m-248 760v-32z"/><path d="m-72 672h-32z"/><path d="m-104 672v-32z"/><path d="m-104 672v-32h32v32z"/><path d="m-72 640v32z"/><path d="m-216 728v32z"/><path d="m-248 760v-32h32v32z"/><path d="m-248 728h32z"/><path d="m-216 760h-32z"/><path d="m-704 384h-192z"/><path d="m-672 768h32v-64l-64-64v128z"/><path d="m-704 384v128l64-64v-64z"/><path d="m-704 512v-128h-192v160 64h192z"/><path d="m-896 608v160h192v-128-32z"/><path d="m-448 176v80-96z"/><path d="m-352 48 16 16z"/><path d="m-336 128v-64 72z"/><path d="m-352 128h16v8l-112 40v-16z"/><path d="m-352 48 16 16v64h-16z"/><path d="m-352 48v80z"/><path d="m-336 136-112 40z"/><path d="m928 128v96 128-128-64z"/><path d="m928-96v192 32-32z"/><path d="m-448 960h128-224z"/><path d="m-896 240v112 112-80z"/><path d="m-896 16v112 112-32z"/><path d="m576 352h-128z"/><path d="m800 352h-32-192 96z"/><path d="m928-128h-32z"/><path d="m672-128h-32z"/><path d="m800-64v160 64-149.3333z"/><path d="m928 96v-192-32h-32-96v64 74.6667 85.3333z"/><path d="m800 224h128v-96-32h-128z"/><path d="m672-128v64h128v-64z"/><path d="m672-64v160h128v-160z"/><path d="m800 224h-32v128h32 128v-128z"/><path d="m736 416h-96z"/><path d="m640 672h32 64z"/><path d="m640 672v-224z"/><path d="m-208 768h64z"/><path d="m-64 768h-64-16 19.3226z"/><path d="m-448 160v96-112-16z"/><path d="m-64 768v-25.2581-66.129-4.6129-32-64z"/><path d="m-448 128v-128-16h96v64 80l-96 32z"/><path d="m-352-16v-112z"/><path d="m-352-16v-112 176z"/><path d="m-352-256v128z"/><path d="m-352 128-96 32z"/><path d="m-143 697 62-16 16 62-62 16z"/><path d="m-208 768v-64h64v64z"/><path d="m-144 704v64z"/><path d="m-127 759-16-62z"/><path d="m-81 681 16 62z"/><path d="m-143 697 62-16z"/><path d="m-65 743-62 16z"/><path d="m-208 704h64z"/><path d="m-208 768v-8-32-24z"/><path d="m-896-16v-48h192v48z"/><path d="m-736 640 32 24v40 64h-32z"/><path d="m-704 768v-64l64 64z"/><path d="m-896 240v-112h88v224h-88z"/><path d="m-808 352v32 192h-88v-112-112z"/><path d="m-808 576v32 160h-88v-80-112z"/><path d="m-808 576v-192h72v128 44 40 12h-72z"/><path d="m-736 608v32 128h-72v-160z"/><path d="m-736 384h32v104l-32 24z"/><path d="m-808 352v-224h104v16 120 88z"/><path d="m-704 384h-32-72v-32h104z"/><path d="m-808 128h-88v-112-32h192v144z"/><path d="m-704 128v-144h64 128v16 128 16h-128-64z"/><path d="m-512 0h64v128h-64z"/><path d="m-704 144v112 8z"/><path d="m-512 144h-16-112z"/><path d="m-640 384v64z"/><path d="m-704 704 64 64z"/><path d="m-448 256h-192z"/><path d="m-640 256v128z"/><path d="m-640 384v64z"/><path d="m-640 704v64z"/><path d="m-704 596v-40-44 96 32z"/><path d="m-704 640 64 64z"/><path d="m-640 448-64 64z"/><path d="m-808 768h72 32 64l64 64h-8-224z"/><path d="m-808 768v64 88l-88-88v-64z"/><path d="m-584 960h-184l-40-40v-88h224z"/><path d="m-576 832h48 56 24v128h-96-40v-128z"/><path d="m-448 832h-24 152z"/><path d="m-448 832h128v128h-128z"/><path d="m-928 596v-40-68l32-24v112 112l-32-24z"/><path d="m-928 596v-40z"/><path d="m-928 556v-68z"/><path d="m-528 768h56z"/><path d="m-472 832h-56z"/><path d="m-528 832v-64h56v64z"/><path d="m-704 556v-44z"/><path d="m-736 596v44-32z"/><path d="m-736 596v-40z"/><path d="m-736 596v-40h32v40z"/><path d="m-704 556v40z"/><path d="m928-128v32z"/><path d="m-544 960h-224 184z"/><path d="m-64 960h-32z"/><path d="m-896 832 88 88 40 40z"/><path d="m-896 768v-80 80 64z"/><path d="m928 352h-128z"/><path d="m768 224h32z"/><path d="m800 0v96 128-128-85.3333z"/><path d="m800-64v64z"/><path d="m800 96v-96-64-64h64 64v32 192z"/><path d="m928 128v96h-128v-128h128z"/><path d="m672-64v-64h128v64z"/><path d="m672-64v-64z"/><path d="m672-64h128v64 10.6667 149.3333h-128z"/><path d="m800 352h-32v-128h32 128v128z"/><path d="m768 224v128h-128-64v-128z"/><path d="m-248 768h-40-184 152z"/><path d="m-40-320h-24z"/><path d="m224-320h160-32-168z"/><path d="m0-320h-40z"/><path d="m224-320h-40-184 144z"/><path d="m384-320v144 56-176z"/><path d="m-704 264v224-104-32z"/><path d="m-640 144h-64z"/><path d="m-640 144h112z"/><path d="m-528 144h16z"/><path d="m-640 384v-128z"/><path d="m-704 488-32 24z"/><path d="m-64 960v-128z"/><path d="m-472 768v64z"/><path d="m-288 832v-64h40 40 64 16v64z"/><path d="m-96 960h-224v-128h32 160 32z"/><path d="m-64 832v128h-32v-128z"/><path d="m-528 832v-64z"/><path d="m-528 832h-48z"/><path d="m-640 768 64 64z"/><path d="m-896 688-32-24z"/><path d="m-960 556h32z"/><path d="m-960 596v-40h32v40z"/><path d="m448 112v-16-224 224z"/><path d="m384 112h64z"/><path d="m448 248h-64z"/><path d="m352 248v8 51.2 12.8z"/><path d="m352 112h32z"/><path d="m384 248h-32z"/><path d="m352 112v68h32v-68z"/><path d="m384 320v-64 16 208z"/><path d="m352 320v192-40z"/><path d="m384 320v160 32h-32v-192z"/><path d="m384 180h64v-68h-64z"/><path d="m448 180h-64v68h64z"/><path d="m352 180v68z"/><path d="m384 180h-32v68h32z"/><path d="m448 112v68z"/><path d="m448 180v68z"/><path d="m-448-16v-160 160 16z"/><path d="m-64 96v96 128-64z"/><path d="m-64-320v64z"/><path d="m192 320h-32z"/><path d="m0-128v-192h-40-24v64 128z"/><path d="m192 32v64z"/><path d="m352 180v-68z"/><path d="m352 81.6v22.4z"/><path d="m352 81.6v22.4 8-80-40z"/><path d="m352 307.2v-51.2h32v64h-32z"/><path d="m352 248v-68-68-8l-160-72v64 160h160z"/><path d="m192 256v64l160-64z"/><path d="m192 32h-8-184z"/><path d="m160 320h-224v32 192h224z"/><path d="m-224-256h-128z"/><path d="m-64-256h-64z"/><path d="m-64-128v-128h-64-96v192l20 32h140z"/><path d="m-204-32 140 224v-96-128z"/><path d="m-224-64 20 32z"/><path d="m-448-176v-80h96v128 112h-96z"/><path d="m-448 0h-64z"/><path d="m-512 128v16z"/><path d="m-512 128h64z"/><path d="m-64 352v-32z"/><path d="m192 352v192 32-32z"/><path d="m-448-16v16z"/><path d="m-448 144v-16z"/><path d="m-448-16v16h-64v-16z"/><path d="m-512-16v16z"/><path d="m-528 144h16 64-32z"/><path d="m-512 144v-16h64v16z"/></g><g id="d"><path d="m928 352v-128-96z"/><path d="m928 128v-32-192z"/><path d="m928-128v32z"/><path d="m-960 596v44z"/><path d="m-960 596v-40z"/><path d="m448 112v80-32-64z"/><path d="m448 192v-80 68 68z"/><path d="m448 352v-104z"/><path d="m640 352h128 32z"/><path d="m928 352h-128z"/><path d="m576 352h192z"/><path d="m640-128h-64z"/><path d="m864-128h-64-128-32z"/><path d="m928-128h-64z"/><path d="m448-128h128z"/><path d="m576 224h192z"/><path d="m576 224v128h192v-128z"/><path d="m576 224v-32h-128v56 104h128z"/><path d="m736 672v-224z"/><path d="m736 448v-32z"/><path d="m736 672h-64-32z"/><path d="m-640 768h96 16z"/><path d="m-128 768h64z"/><path d="m-472 768h184z"/><path d="m384 768h-192z"/><path d="m-448-320v64z"/><path d="m-448-256v80 160-176z"/><path d="m-224-384h-224v-64h224z"/><path d="m-192-448h96v64h-128v-64z"/><path d="m-96-384v-64h16 16v64z"/><path d="m-80-448h-16-96l112-56z"/><path d="m-64-512v64h-16v-56z"/><path d="m-64 320v-128z"/><path d="m320-320h64-160z"/><path d="m384 544v-32 224z"/><path d="m384 544v192 32-32z"/><path d="m384 480v32 32-32z"/><path d="m384-120v-56 48 48 80 48z"/><path d="m384-120v168 56-112-64z"/><path d="m384-176v-144 64z"/><path d="m-40-320h40v192 32h-40z"/><path d="m0-96v128h-40v-128z"/><path d="m352 112v-8h32v8z"/><path d="m-40 128v-96h40 184v224h-224z"/><path d="m184 256v64h-24-200v-64z"/><path d="m184 32h8l160 72v8 136 8h-168z"/><path d="m352 256-160 64h-8v-64z"/><path d="m352 112h32v136h-32z"/><path d="m352 256v-8h32v8z"/><path d="m-64-256v-64h24v224h-24z"/><path d="m-40-96v128 96h-24v-160-64z"/><path d="m-40 128v128 64h-24v-128-64z"/><path d="m0-320v192z"/><path d="m352 256v51.2z"/><path d="m384 104h-32v-22.4-89.6h32z"/><path d="m352 256-160 64z"/><path d="m192 32 160 72z"/><path d="m0 32v-128-32 24z"/><path d="m192 320v32z"/><path d="m184 320h8v32 192h-32v-224z"/><path d="m-224-256h-128-96v-64h224z"/><path d="m-96-320h32v64h-160v-64z"/><path d="m-224-320h-224v-64h224z"/><path d="m-96-384v64h-128v-64z"/><path d="m-64-320h-32z"/><path d="m-224-64v-192h160v160 64h-140z"/><path d="m-64-32v160 64l-140-224z"/><path d="m-224-64v-192z"/><path d="m-204-32 140 224z"/><path d="m-352-256v128z"/><path d="m-736 556h32z"/><path d="m-704 384v104-224-8z"/><path d="m-704 256v-112 64z"/><path d="m-448 256h-192z"/><path d="m-640 256v128 64z"/><path d="m-640 448-64 64z"/><path d="m-736 512v44z"/><path d="m-736 556v-44l32-24v24 44z"/><path d="m-640 704v64z"/><path d="m-704 596h-32z"/><path d="m-704 664v40z"/><path d="m-704 640v-44z"/><path d="m-704 704 64 64z"/><path d="m-704 596v44 24l-32-24v-44z"/><path d="m-736 640 32 24z"/><path d="m-928 596v68l-32-24v-44z"/><path d="m-960 556v-44l32-24v68z"/><path d="m-928 664 32 24-32-24-32-24z"/><path d="m-928 488 32-24z"/><path d="m-928 596h-32z"/><path d="m-928 664v-68z"/><path d="m448 160v32h128v-32z"/><path d="m-64-384v-64-64z"/><path d="m-64-384v-128h24v128z"/><path d="m-960 512v44z"/><path d="m-704 488v-104z"/><path d="m-704 488v24-24-104z"/><path d="m-704 556v-44-24l-32 24v44z"/><path d="m-704 664v40-40-24z"/><path d="m-736 596v44l32 24v-24-44z"/><path d="m-928 556v-68l-32 24v44z"/><path d="m-928 488 32-24-32 24-32 24z"/><path d="m-960 596v44l32 24v-68z"/><path d="m448 192v-32z"/><path d="m576 192v32z"/><path d="m448 192h128v32 128h-128z"/><path d="m640 416h96z"/><path d="m640 448v-32z"/><path d="m640 448v224z"/><path d="m-40-384h24z"/><path d="m-40-384v-128z"/><path d="m-40-384v-128h24v128z"/><path d="m448 96v-160-64z"/><path d="m576 160v32h-128v-32z"/><path d="m448 192v160z"/><path d="m448 352h128z"/><path d="m448 368v-16h128v16z"/><path d="m576 368v-16z"/><path d="m-40-512h24z"/><path d="m-40-384h24 24z"/><path d="m-16-384v-128h24v128z"/><path d="m-16-384v-128z"/><path d="m384-320h-64z"/><path d="m384-256v80z"/><path d="m320-320 64 64v-64z"/><path d="m-960 596h32z"/><path d="m-960 556v40h32v-40z"/><path d="m448 192v160 16z"/><path d="m448 384v-16h128v16z"/><path d="m576 384v-16-16z"/><path d="m448 368h128z"/><path d="m-448 32v112 112z"/><path d="m-448-192v176 48z"/><path d="m-448 144v112z"/><path d="m-40-512h48-24z"/><path d="m-40-384h48 24z"/><path d="m8-384v-128z"/><path d="m8-384v-128h24v128z"/><path d="m-480-16h32-64z"/><path d="m-640-16h128z"/><path d="m-704-16h64z"/><path d="m-704 556h-32z"/><path d="m-704-16v160z"/><path d="m-480-16h-32-128-64v160h64 112 48z"/><path d="m-448 32v-48h-32v160h32z"/><path d="m-736 596h32z"/><path d="m-736 556v40h32v-40z"/><path d="m-288 768v64z"/><path d="m-128 832v-64z"/><path d="m-288 768v64h32v-64z"/><path d="m-528 768v64h56v-64z"/><path d="m-928 556h-32z"/><path d="m-896-16v-48 48 32z"/><path d="m-896 688v80z"/><path d="m448 192v176 16z"/><path d="m448 400v-16h128v16z"/><path d="m576 400v-16-32z"/><path d="m448 384h128z"/><path d="m-672 768h-64-160 160z"/><path d="m-40-512h72-24z"/><path d="m-40-384h72 24z"/><path d="m32-384v-128z"/><path d="m32-384v-128h24v128z"/><path d="m360-240-56-56z"/><path d="m344-240v48h16v-48z"/><path d="m344-240h16l-56-56v16z"/><path d="m344-192v16h16v-16z"/><path d="m256-280h48v-16h-48-16v16z"/><path d="m-64 544v32h224v-32z"/><path d="m192 544v-192-32h-32v224z"/><path d="m-896-64h192z"/><path d="m-704-64v48z"/><path d="m-704-64h-192v48h192z"/><path d="m-704 384v-128z"/><path d="m-896-16v32 192h192v-64-160z"/><path d="m-896 208v32 144h106.6667 53.3333 32v-128-48z"/><path d="m-704 488v-104h-32v128z"/><path d="m-896 464 106.6667-80h-106.6667z"/><path d="m-736 512v-128h-53.3333l-106.6667 80v92h160z"/><path d="m-736 556v-44z"/><path d="m-736 512 32-24z"/><path d="m-736 596v-40z"/><path d="m-736 640v-44z"/><path d="m-704 664-32-24v64h32z"/><path d="m-672 768h32l-64-64h-32v64z"/><path d="m-704 556v40z"/><path d="m-704 596v44z"/><path d="m-704 704v-40z"/><path d="m-704 640 64 64z"/><path d="m-704 664-32-24z"/><path d="m-896 688v80h160v-64-64-44-40h-160z"/><path d="m-896 464-32 24v68h32z"/><path d="m-928 488v68z"/><path d="m-896 464-32 24z"/><path d="m-928 596v68z"/><path d="m-928 556v40z"/><path d="m-928 596v68l32 24v-132h-32z"/><path d="m-928 664 32 24z"/><path d="m576-32v192 32-32z"/><path d="m576-32v-32h-128v160 64h128z"/><path d="m-256 768v64h48v-64z"/><path d="m-160 768v64h32v-64z"/><path d="m448 192v192 16z"/><path d="m448-128v64h128v-64z"/><path d="m448 416v-16h128v16z"/><path d="m448 400h128z"/><path d="m-40-512h96-24z"/><path d="m-40-384h96 24z"/><path d="m56-384v-128z"/><path d="m56-384v-128h24v128z"/><path d="m-64 576v192z"/><path d="m384 736v32z"/><path d="m256-296h-16z"/><path d="m256-296h48z"/><path d="m360-240v48z"/><path d="m360-240h-16l-40-40v-16z"/><path d="m344-192v-48h16v48z"/><path d="m256-280v-16h48v16z"/><path d="m304-280h-48z"/><path d="m344-192v-48z"/><path d="m344-240-40-40z"/><path d="m192 768v-32-160z"/><path d="m384 512-192 64v160h192z"/><path d="m192 736v32h192v-32z"/><path d="m160 576h-224z"/><path d="m192 576v-32h-32v32z"/><path d="m-208 768v64h48v-64z"/><path d="m448 192v208 16z"/><path d="m448 416h128z"/><path d="m576 432v-16z"/><path d="m448 432v-16h128v16z"/><path d="m-40-512h120-24z"/><path d="m-40-384h120 24z"/><path d="m80-384v-128h24v128z"/><path d="m80-384v-128z"/><path d="m-64 544v32-32-192z"/><path d="m-64 544v-192-32h24 200v224z"/><path d="m192 544v32h-32v-32z"/><path d="m736 448v224z"/><path d="m640 448v-32z"/><path d="m640 640v32h96v-32z"/><path d="m640 416v224h96v-224z"/><path d="m-40-320h-24z"/><path d="m144-320h-144-40z"/></g><g id="e"><path d="m448 160v-96-120-8z"/><path d="m448 288v-96 224 16z"/><path d="m448 288v144 80-96-64z"/><path d="m448 64v96 32 96-160z"/><path d="m480-384h-32v-32z"/><path d="m448-192v-64-128h32l32 32v160z"/><path d="m448-128v-64h64l64 64z"/><path d="m512-192v-160z"/><path d="m576-128-64-64z"/><path d="m448-64v-32-32h128v64z"/><path d="m576-64v32z"/><path d="m576-128v64z"/><path d="m448-64h128v32 192h-128z"/><path d="m448 608v-96-80h128 64v16 224h-192z"/><path d="m576 432v-16h64v16z"/><path d="m736 672h-64z"/><path d="m640 432v-16 32z"/><path d="m448 432h128z"/><path d="m448-416-32-32z"/><path d="m-208 768h48z"/><path d="m-160 768h32z"/><path d="m-288 768h32z"/><path d="m-256 768h48z"/><path d="m104-512h-24-120z"/><path d="m104-384v-128z"/><path d="m128-384h-24v-128h88v128z"/><path d="m240-448v64h-48v-128l48 48z"/><path d="m240-464 16 16h-16z"/><path d="m448-384h-64-64-80v-64h16 160l32 32z"/><path d="m320-384h64v64z"/><path d="m384-384h64v128l-64-64z"/><path d="m192-320h128-96-80z"/><path d="m192-384h48 80v64h-128l-64-64z"/><path d="m320-320v-64l64 64z"/><path d="m384 272v-48 64z"/><path d="m384 48v176 48-16-8-136-8z"/><path d="m384 272v16 224-32z"/><path d="m384-80v-48 32z"/><path d="m448-256v64 64 32h-32l-32-32v-48-80-64z"/><path d="m448-96v32l-32-32z"/><path d="m384 608v-96h64v96z"/><path d="m384-256-64-64z"/><path d="m320-320h64v64z"/><path d="m192 608v-32l192-64v96z"/><path d="m-40 576h200 32v32h-8-224z"/><path d="m184 672.6667-184 15.3333-40 3.3333v-83.3333h224z"/><path d="m192 608h192l-192 64-8 .6667v-64.6667z"/><path d="m-40 691.3333 40-3.3333-40 50z"/><path d="m-64 576h24v32 83.3333 46.6667l-24 30z"/><path d="m-40 738 40-50-64 80z"/><path d="m192 576 192-64z"/><path d="m160 576h-200-24v-32h224z"/><path d="m-160 832h-48z"/><path d="m-128 832h-32z"/><path d="m-256 832h-32z"/><path d="m-208 832h-48z"/><path d="m640 416h96z"/><path d="m736 672h-96z"/><path d="m736 416v32z"/><path d="m640 672v-224z"/><path d="m640 672v-32h96v32z"/><path d="m640 640v-224h96v224z"/><path d="m392 512v96h32v-96z"/><path d="m-544 960h-192-32z"/><path d="m-320 960h-192-32z"/><path d="m-96 960h-192-32z"/><path d="m-768 960-128-128z"/><path d="m-896 768v64z"/><path d="m-640 768h-32z"/><path d="m-736 832v-64h-160v64l128 128h32z"/><path d="m-576 832-64-64h-32-64v64z"/><path d="m-512 832h-16-48-160v128h192 32z"/><path d="m-288 832h-184-40v128h192 32z"/><path d="m-96 960h32v-128h-64-160v128z"/><path d="m-64 832h-32-32z"/><path d="m-128 832h-32-48-48-32z"/><path d="m-288 832h-32-152z"/><path d="m-512 832h40-56z"/><path d="m-576 832h48z"/><path d="m-576 832-64-64z"/><path d="m160-320h32-48z"/><path d="m384-96v-32z"/><path d="m160-280h80v-16h-80z"/><path d="m144-280h16v-16-24h-16z"/><path d="m360-96v-80h-16v96h16z"/><path d="m360-96v16h24v-16z"/><path d="m144-320v24 16z"/><path d="m344-176v-16 112z"/><path d="m240-296h16-96z"/><path d="m360-176h-16z"/><path d="m240-280v-16z"/><path d="m360-176v-16z"/><path d="m360-192h-16z"/><path d="m256-280v-16z"/><path d="m256-280h-16z"/><path d="m344-176v-16z"/><path d="m448-64v8z"/><path d="m-40-512h-24z"/><path d="m192-512h-88z"/><path d="m192-512h-88-144z"/><path d="m192-320h-32z"/><path d="m128-384 64 64z"/><path d="m384-128 32 32 32 32z"/><path d="m360-80h24-24-16z"/><path d="m256-296v16z"/><path d="m344-192h16z"/><path d="m344-192h16v96 16h-16z"/><path d="m360-80v-16h24v16z"/><path d="m360-192v16 80z"/><path d="m360-96h24z"/><path d="m144-280v-16h16 96v16z"/><path d="m144-296v-24h16v24z"/><path d="m160-320v24z"/><path d="m256-280h-16-80-16z"/><path d="m928 352v-224z"/><path d="m928 128v-224z"/><path d="m928-128v32z"/><path d="m448-56v-8z"/><path d="m576 352h64 160z"/><path d="m928 352h-32-96z"/><path d="m640-128h-64z"/><path d="m864-128h-224z"/><path d="m928-128h-64z"/><path d="m512-352v160z"/><path d="m512-192 64 64z"/><path d="m512-352-32-32-32-32z"/><path d="m736 416h-96-64 64z"/><path d="m576 352v64-16z"/><path d="m736 672v-224z"/><path d="m736 448v-32z"/><path d="m416-448 32 32z"/><path d="m-640 768h112z"/><path d="m-128 768h64z"/><path d="m-288 768h32 48 48 32z"/><path d="m-472 768h184z"/><path d="m-528 768h56z"/><path d="m-448-448v64 64z"/><path d="m-448 256v-128-96z"/><path d="m-448 32v-128-96z"/><path d="m-448-320v64 64z"/><path d="m-64-512h24z"/><path d="m-40-512h72 160z"/><path d="m-96-384h32z"/><path d="m-64-384h24z"/><path d="m-40-384h144 24z"/><path d="m416-448h-160z"/><path d="m256-448-16-16-48-48z"/><path d="m-224-448h-224z"/><path d="m-192-448h-32z"/><path d="m-64-512-16 8-112 56z"/><path d="m-64-320h24z"/><path d="m-40-320h184z"/><path d="m384 224v-176-48z"/><path d="m384 0v-80z"/><path d="m384-80v-16-32 32z"/><path d="m448-64-64-64z"/><path d="m0 688-40 50-24 30z"/><path d="m192 672 192-64z"/><path d="m0 688 184-15.3333 8-.6667z"/><path d="m-96-320v-64z"/><path d="m-96-320h32z"/><path d="m-704 512v44z"/><path d="m-448 256h-192z"/><path d="m-640 256v192z"/><path d="m-640 448-64 64z"/><path d="m-640 704v64z"/><path d="m-704 556v40 44z"/><path d="m-704 640 64 64z"/><path d="m384 288v96 128z"/><path d="m384 288v-64 128 32z"/><path d="m384 512v96h64v-96z"/><path d="m384 608h64z"/><path d="m448 512h-64z"/><path d="m384 608-192 64z"/><path d="m392 608v-96h32v96z"/><path d="m392 512h32z"/><path d="m424 608h-32z"/><path d="m424 512v96z"/><path d="m392 608v-96z"/><path d="m448 128v160 64-32z"/><path d="m448-56v120z"/><path d="m448 640v-32 64z"/><path d="m448 512v96z"/><path d="m448 352v64h128v-64z"/><path d="m736 416v32z"/><path d="m640 448v-32h-64-128v96 96 32h192z"/><path d="m448 640v32h192v-32z"/><path d="m640 672h32 64z"/><path d="m640 448v192 32h96v-224z"/><path d="m672 672h-32-192 192z"/><path d="m160-320h32-32-16z"/><path d="m192-320-64-64z"/><path d="m384-80v80z"/><path d="m384-96v-32z"/><path d="m360-80h-16 16 24z"/><path d="m144-296v-24 24 16z"/><path d="m256-280v-16h-96-16v16z"/><path d="m360-96v-96h-16v112h16z"/><path d="m144-320v24h16v-24z"/><path d="m360-96v16h24v-16z"/><path d="m344-192v16 96z"/><path d="m256-296h-16-80z"/><path d="m192-320h-32z"/><path d="m384-80v-16-32z"/><path d="m256-296v16z"/><path d="m360-176v-16 96z"/><path d="m360-96h24z"/><path d="m360-80v-16h24v16z"/><path d="m344-80v-96h16v80 16z"/><path d="m344-192h16z"/><path d="m240-280h16-112z"/><path d="m144-296v-24h16v24z"/><path d="m144-280v-16h16 80v16z"/><path d="m160-320v24z"/><path d="m96 192v32h32v-32z"/><path d="m128 224h-32z"/><path d="m96 224v-32z"/><path d="m128 192v32z"/><path d="m96 192h32z"/><path d="m96 224v-32h32v32z"/><path d="m128-384h-128-40z"/><path d="m320-384h-96-96z"/><path d="m384-320 64 64-128-128z"/><path d="m384-320-64-64v64z"/><path d="m320-320v-64h-192l64 64z"/><path d="m384-128v-128 160 16z"/><path d="m448-256h-64v128l64 64z"/><path d="m384-256h64l-64-64z"/><path d="m384-256v-64h-64z"/><path d="m360-240-56-56z"/><path d="m256-280v-16z"/><path d="m344-192h16z"/><path d="m256-296v16h48v-16z"/><path d="m344-240h16l-56-56v16z"/><path d="m344-240v48h16v-48z"/><path d="m256-296h-16z"/><path d="m256-296h48z"/><path d="m360-240v48z"/><path d="m360-176v-16z"/><path d="m360-176h-16z"/><path d="m344-192v-48h16v48 16h-16z"/><path d="m360-240h-16l-40-40v-16z"/><path d="m256-280v-16h48v16z"/><path d="m304-280h-48z"/><path d="m344-192v-48z"/><path d="m344-240-40-40z"/><path d="m344-176v-16z"/><path d="m256-280h-16z"/><path d="m240-280v-16z"/><path d="m240-280v-16h16v16z"/></g><g id="f"><path d="m928 128v192 32z"/><path d="m928-96v192 32z"/><path d="m-640 480v-32l-64 64v44 84l32 32h32z"/><path d="m-672 672 32 32v-32z"/><path d="m-416 256h-32-192v192 32h224z"/><path d="m-640 480v192 32h224v-224z"/><path d="m-640 704v64h112 56 56v-64z"/><path d="m-192 256h-32-192v224h224z"/><path d="m-416 480v224h224v-224z"/><path d="m-416 704v64h128 96v-64z"/><path d="m-40 480v-128-96h-152v224z"/><path d="m-40 704v-12.6667-115.3333-96h-152v224z"/><path d="m-128 768h64l24-30v-34h-152v64z"/><path d="m-224-320h-224v128 96h224z"/><path d="m-448-96v128 96h224v-224z"/><path d="m-448 128v128h32 192v-128z"/><path d="m-40-320h-24-32-128v224h184z"/><path d="m-224-96v224h184v-224z"/><path d="m-224 128v128h32 152v-128z"/><path d="m-224-384h-224v64h224z"/><path d="m-96-320v-64h-128v64z"/><path d="m-40 704v34l40-50-40 3.3333z"/><path d="m184-320h-224v224h224z"/><path d="m-40-96v224h224v-224z"/><path d="m-40 128v128 96h224v-224z"/><path d="m-40 352v128 96h224v-224z"/><path d="m-40 576v115.3333l40-3.3333 184-15.3333v-96.6667z"/><path d="m384-256-64-64h-128-8v224h200z"/><path d="m184-96v224h200v-128-80-16z"/><path d="m184 128v224h200v-128-96z"/><path d="m184 352v224h200v-192-32z"/><path d="m184 576v96.6667l8-.6667 192-64v-32z"/><path d="m448-256v-128h-128z"/><path d="m32-512h-72-24l-128 64h192 32z"/><path d="m224-448h32l-64-64h-160v64z"/><path d="m-224-448h-224v64h224z"/><path d="m0-448h-192-32v64h128 32 24 40z"/><path d="m224-448h-192-32v64h128 96z"/><path d="m320-384h128v-32l-32-32h-160-32v64z"/><path d="m672-128h-32-64-128v64 8 152h224z"/><path d="m448 96v32 192h224v-224z"/><path d="m448 320v32h128 96v-32z"/><path d="m896-128h-32-192v224h224z"/><path d="m672 96v224h224v-224z"/><path d="m672 320v32h128 96v-32z"/><path d="m928-96v-32h-32v224h32z"/><path d="m896 96v224h32v-192-32z"/><path d="m896 320v32h32v-32z"/><path d="m576-128-64-64h-64v64z"/><path d="m448-384v128 64h64v-160l-64-64z"/><path d="m448-128v-64-64 192z"/><path d="m448 96v-152 120 64z"/><path d="m800 352h-128-96z"/><path d="m448 352h128z"/><path d="m576-128h64z"/><path d="m640-128h32 192z"/><path d="m864-128h32 32z"/><path d="m512-352-64-64z"/><path d="m736 416h-96z"/><path d="m736 448v224z"/><path d="m736 416h-96v32h96z"/><path d="m-528 768h-112z"/><path d="m-64 768h-64z"/><path d="m-128 768h-64-96z"/><path d="m-288 768h-128-56z"/><path d="m-472 768h-56z"/><path d="m-448-320v-64-64z"/><path d="m-448-320v128z"/><path d="m-64-384h-32z"/><path d="m-40-384h-24z"/><path d="m256-448h160z"/><path d="m192-512 64 64z"/><path d="m-448-448h224z"/><path d="m-224-448h32z"/><path d="m-192-448 128-64z"/><path d="m184-320h8-32-16-184z"/><path d="m320-320h-128z"/><path d="m384 384v192 32-96z"/><path d="m384 0v128 96z"/><path d="m384-256-64-64z"/><path d="m192 672-8 .6667-184 15.3333z"/><path d="m-96-384v64z"/><path d="m-704 556v-44z"/><path d="m-640 256h192z"/><path d="m-640 448v-192z"/><path d="m-704 512 64-64z"/><path d="m-640 768v-64z"/><path d="m-704 640v-84z"/><path d="m-640 704-32-32-32-32z"/></g></defs><g stroke="#000"><use fill="none" stroke-miterlimit="0" stroke-width="10" xlink:href="#a"/><use fill="#bfbfbf" xlink:href="#a"/><use fill="none" stroke-miterlimit="0" stroke-width="10" xlink:href="#b"/><use fill="#ccc" xlink:href="#b"/><use fill="none" stroke-miterlimit="0" stroke-width="10" xlink:href="#c"/><use fill="#d9d9d9" xlink:href="#c"/><use fill="none" stroke-miterlimit="0" stroke-width="10" xlink:href="#d"/><use fill="#e5e5e5" xlink:href="#d"/><use fill="none" stroke-miterlimit="0" stroke-width="10" xlink:href="#e"/><use fill="#f2f2f2" xlink:href="#e"/><use fill="none" stroke-miterlimit="0" stroke-width="10" xlink:href="#f"/><use fill="#fff" xlink:href="#f"/></g></svg>