<svg viewBox="-1289 -1225 1650 2258" xmlns="http://www.w3.org/2000/svg" xmlns:xlink="http://www.w3.org/1999/xlink"><defs><g id="a"><path d="m-623.3442 687.3442-7.6894-15.3442h7.0336 16z"/><path d="m-623.535 687.535.1908-.1908 15.3442-15.3442h31.829v32h-14.5076z"/><path d="m-640 654.1071v-14.1071h.9307l15.0693 30.0714v1.9286h-7.0336z"/><path d="m-656 592v15.2662l-30.4643-15.2662z"/><path d="m-624 670.0714-15.0693-30.0714-16.0359-32h.5695l30.5357 15.302z"/><path d="m-751.4277 575.4277 95.4277-95.4277v112h-30.4643-31.9286l-33.0229-16.5484-.0238-.012z"/><path d="m-768 542.3571v-62.3571-64h80 32v64l-95.4277 95.4277z"/><path d="m-656 592v-112-64h32v128 79.302l-30.5357-15.302-1.4643-.7338z"/><path d="m-448 576v96h-96.3333-31.8377-31.829-16v-1.9286-46.7694-79.302h16 160z"/><path d="m-608 416v128h-16v-128z"/><path d="m-960 512v-160h16v160 32 32h-16z"/><path d="m-944 576v32 32 32 32 32h-16v-160z"/><path d="m-848 544v-32-160h16v128 32 64h-16z"/><path d="m-832 576v160h-16v-32-32-32-32-32z"/><path d="m-944 352h96v160h-96z"/><path d="m-832 352h64v64 64h-64z"/><path d="m-768 416v-64-33.1429l14.7202-29.3746 1.8402-.9221 33.0467-16.5604h30.3929v.7696 143.2304z"/><path d="m-752.3577 287.6423.9181.9181-1.8402.9221z"/><path d="m-624 416h-32-32v-143.2304l1.5357-.7696h30.4643 16 32v48 96z"/><path d="m-640 223.0714v-31.0714h32v80h-32z"/><path d="m-656 256.7338v15.2662h-30.4643z"/><path d="m-656 256.7338v-1.7338l16-31.9286v48.9286h-16z"/><path d="m-415.6667 696v8h-128.6666v-8z"/><path d="m-415.6667 688v4h-128.6666v-4z"/><path d="m-415.6667 692v4h-128.6666v-4z"/><path d="m-448 672h32.3333v16h-128.6666v-16z"/><path d="m-383.8291 672v-31.829l47.1734 47.1732.9061.9062-31.429 15.7496h-16.6505z"/><path d="m-383.8291 640.171-64.1709-64.171v-32h64 64v110.1071l-16.6557 33.2371z"/><path d="m-415.6667 672h-32.3333v-96l64.1709 64.171v31.829z"/><path d="m-848 736h16z"/><path d="m-335.7496 688.2504-31.429 15.7496z"/><path d="m-768 318.8571v33.1429z"/><path d="m-590.6786 704h14.5076 12.0342z"/><path d="m-415.6667 704h-10.6666-107.3334-10.6666z"/><path d="m-383.8291 704h16.6505-28.6847z"/><path d="m-384 544h-64-160 32z"/><path d="m-608 272v-80 128z"/><path d="m-656 255v1.7338z"/><path d="m-718.3929 592h31.9286z"/><path d="m-718.3929 592-33.0229-16.5484z"/><path d="m-656 607.2662 1.4643.7338-31.9286-16z"/><path d="m-320 654.1071-16.6557 33.2371z"/><path d="m-336.6557 687.3442.9061.9062z"/><path d="m-576.171 672h48.1668v32h-24.0983-12.0343-12.0342z"/><path d="m-415.6667 688h-32-.4049-63.8568-.4049-32z"/><path d="m-415.6667 692h-32-.4049-63.8568-.4049-32z"/><path d="m-960 512v64 160z"/><path d="m-768 480h-64z"/><path d="m-944 672v-32z"/><path d="m-944 704v-32z"/><path d="m-832 480v32z"/><path d="m-415.6667 672h-128.6666v16h128.6666z"/><path d="m-415.6667 688h-128.6666 32 64.6666z"/><path d="m-320 544v-32z"/><path d="m-320 544v110.1071z"/><path d="m-352 544h32-64z"/><path d="m-576 192v96z"/><path d="m-352 512h-224 128z"/><path d="m-352 544h-32-192v-32h224z"/><path d="m-320 512v32h-32v-32z"/><path d="m-608 320v-128h32v96 128h-32z"/><path d="m-576 416v96 32h-32v-128z"/><path d="m-608 320v96 128-128z"/><path d="m-944 544v-32z"/><path d="m-944 544v32z"/><path d="m-944 608v-32z"/><path d="m-944 640v-32z"/><path d="m-848 512v32z"/><path d="m-848 640v32z"/><path d="m-848 608v32z"/><path d="m-944 512h96z"/><path d="m-848 544h-96v-32h96z"/><path d="m160-304 32 32z"/><path d="m160-304v.179z"/><path d="m160-95.8568v-207.9642-.179l32 32v.1786 191.8214h-32z"/><path d="m192-80v31.6786.3214l-32 32v-.179-63.821z"/><path d="m192-80v-191.8214l32 63.8571v95.7857l-32 63.8572z"/><path d="m192-48v-.3214z"/><path d="m224-112.1786v-95.7857z"/><path d="m224-112.1786-32 63.8572z"/><path d="m128-96v-208-15.8568l32 16.0358v207.9642h-32z"/><path d="m160-95.8568v15.8568 63.821l-32 16.0358v-95.7136z"/><path d="m160-16.179-32 16.0358z"/><path d="m128-319.8568 32 16.0358z"/><path d="m-16 432.3333-.5.1667.5-.5z"/><path d="m-16 432.3333-.5.1667z"/><path d="m-1024-288v192 32-32-88-16z"/><path d="m-1024-480v32z"/><path d="m-704-384h16-80z"/><path d="m-960-384h-64z"/><path d="m-704-448h16v64h-16z"/><path d="m-800.3937-544 32.0716 64h-191.3558l32.0716-64z"/><path d="m-800.3937-544 16.0357 32 16.0359 32z"/><path d="m-704-448v64h-64v-96h64z"/><path d="m-959.6779-480h191.3558.3221v96h-192v-96z"/><path d="m-1024-384v-64-32h64v96z"/><path d="m-960 736h16z"/><path d="m-848 736h16z"/><path d="m-335.7496 688.2504-31.429 15.7496z"/><path d="m63.6667-320h-31.8812-.1188-63.3334-.1188-31.8812z"/><path d="m-544-320h-224z"/><path d="m-768-384v64z"/><path d="m-63.6667-336v-16h79.8099 47.5235v16z"/><path d="m-63.6667-320v-16h127.3334v16z"/><path d="m63.6667-320v-16h-31.8812v16z"/><path d="m63.6667-336v-16h-31.8812v16z"/><path d="m-63.6667-352v16h31.8812v-16z"/><path d="m-63.6667-336v16h31.8812v-16z"/><path d="m63.6667-336h-31.8812-.1188-63.3334-.1188-31.8812z"/><path d="m-768-384v64h-32-160v-64z"/><path d="m96.1367-304v-16h31.8633v.1432 15.8568z"/><path d="m96.1367-320v16h-.1367v-16z"/><path d="m96 0h32z"/><path d="m96.1367-304h31.8633v208h-32v-208z"/><path d="m128-96v.1432 95.7136.1432h-32v-16-48-32z"/><path d="m-768 480v62.3571z"/><path d="m-768 318.8571v33.1429z"/><path d="m-623.535 687.535 32.8564 16.465z"/><path d="m-590.6786 704h26.5418 12.0343z"/><path d="m-426.3333 704h-10.6667-86-10.6667z"/><path d="m-395.8633 704h28.6847-40.7188z"/><path d="m-768 542.3571 16.5723 33.0706z"/><path d="m-320-64h-64z"/><path d="m-576-64h-192z"/><path d="m-448-96h32l32 32h-64z"/><path d="m-336-96h16v32h-64l-32-32z"/><path d="m-272-96h80l-32 32h-64v-32z"/><path d="m96-96v32h-192v-32z"/><path d="m-768-320h224v224h-224z"/><path d="m-544-96v32h-32-192v-32z"/><path d="m-544-320h96v224h-96z"/><path d="m-448-96v32h-96v-32z"/><path d="m-272-256v128h-64v-128z"/><path d="m-192-96 96-96v96 32h-128z"/><path d="m-96-192-96 96h-80v-32-128-32h16 160z"/><path d="m-448-320h112v32 32 128 32h-80-32z"/><path d="m-336-320h16v32h-16z"/><path d="m-272-288h-16v-32h32v16 16z"/><path d="m-256-304h159.8633.1367v16h-160z"/><path d="m-256-320h159.8633v16h-159.8633z"/><path d="m96-96h-192v-96-96-16h32.3333 127.3334 32.3333z"/><path d="m63.6667-320v16h-127.3334v-16z"/><path d="m63.6667-304h-31.8812.1787 16.0358 48z"/><path d="m-63.6667-320v16h31.8812v-16z"/><path d="m-272-96h-16z"/><path d="m-272-128h-64z"/><path d="m-320-64v-32z"/><path d="m-752.3577 287.6423-.9221 1.8402-14.7202 29.3746z"/><path d="m-320 192v128z"/><path d="m-320 544v-32-64 206.1071z"/><path d="m-271.8689-16.1311.0716-.0716z"/><path d="m64-16v64h-128v-64z"/><path d="m96-64v48h-32-128-32v-48z"/><path d="m-96-64v48 16h-143.4643l-32.333-16.2027 47.7973-47.7973z"/><path d="m96-16h-25.5915-6.4085z"/><path d="m64 48v-64z"/><path d="m-64-16v64z"/><path d="m-96 0h-143.4643z"/><path d="m-224-64-47.7973 47.7973-.0716.0716-16.1311-32.1903v-15.6786z"/><path d="m-271.8689-16.1311-16.1311-32.1903z"/><path d="m-96 448h-224v-32-96h128 96z"/><path d="m-64 320v128h-32v-128z"/><path d="m-16.5 432.5-47.5 15.8333v-.3333-128h48v32 80z"/><path d="m-16 432v-80h79.6667.3333z"/><path d="m32 320h42.3333l-10.6666 32h-79.6667v-32z"/><path d="m32 320h-48-48-32-96l48-16h176z"/><path d="m79.6667 304-5.3334 16h-42.3333v-16z"/><path d="m-80 208h32l-48 48h-.3333l16-48z"/><path d="m-96 256 48-48h128v96h-.3333-47.6667-176z"/><path d="m-80 48h16 128 16v32 128h-128-32z"/><path d="m64 352h-.3333z"/><path d="m80 48v32z"/><path d="m-96.3333 256h.3333z"/><path d="m-144 304 48-48z"/><path d="m74.3333 320 5.3334-16-16 48z"/><path d="m-320 320h128z"/><path d="m-64 448h-32z"/><path d="m-640 192h16 16z"/><path d="m-384-64v192z"/><path d="m-576 128v-192h32 96v224h-128z"/><path d="m-448 160v32h-128v-32z"/><path d="m-384-64v192 32h-64v-224z"/><path d="m-384 160v32h-64v-32z"/><path d="m-576 288v128 96-96z"/><path d="m-320 512h-32z"/><path d="m-448 192h64 64v128 96h-128z"/><path d="m-320 416v32 64h-32-96v-96z"/><path d="m-448 192v224h-128v-128-96z"/><path d="m-448 416v96h-128v-96z"/><path d="m-688 272.7696v-.7696z"/><path d="m-640 192v31.0714z"/><path d="m-656 255v1.7338z"/><path d="m-640 223.0714-16 31.9286z"/><path d="m-656 256.7338-30.4643 15.2662-1.5357.7696z"/><path d="m-688 272h-30.3929z"/><path d="m-718.3929 272-33.0467 16.5604z"/><path d="m-751.4396 288.5604-.9181-.9181z"/><path d="m-639.0693 640h-.9307z"/><path d="m-718.3929 592h31.9286z"/><path d="m-718.3929 592-33.0229-16.5484z"/><path d="m-654.5357 608h-.5695z"/><path d="m-654.5357 608-31.9286-16z"/><path d="m-639.0693 640-16.0359-32z"/><path d="m-655.1052 608 16.0359 32z"/><path d="m-640 640v14.1071z"/><path d="m-320 654.1071-16.6557 33.2371z"/><path d="m-336.6557 687.3442.9061.9062z"/><path d="m-395.8633 704h-12.0341-24.0984v-32h48.1667v32z"/><path d="m-623.3442 687.3442-.1908.1908z"/><path d="m-533.6667 704h10.6667 10.6667v-8h-32v8z"/><path d="m-640 654.1071 8.9664 17.8929 7.6894 15.3442z"/><path d="m-751.4277 575.4277-.0119.0119z"/><path d="m-751.4158 575.4516-.0238-.012z"/><path d="m-768 352h-64-16-96-16z"/><path d="m-1024-288v-32h64 160v224h-224z"/><path d="m-800-96v32h-224v-32z"/><path d="m-800-320h32v224h-32z"/><path d="m-768-96v32h-32v-32z"/><path d="m-960 512v224z"/><path d="m-960 352v160z"/><path d="m-768 480h-64z"/><path d="m-944 640v-32z"/><path d="m-944 736v-32z"/><path d="m-848 576v32z"/><path d="m-848 576v-32z"/><path d="m-848 672v32z"/><path d="m-832 480v32z"/><path d="m-832 512v224-160z"/><path d="m-944 544h96z"/><path d="m-848 576h-96v-32h96z"/><path d="m-1024-384h-16v-64h16z"/><path d="m208-192h-64v64h64z"/><path d="m63.6667-320h-127.3334v16h127.3334z"/><path d="m63.6667-304h-127.3334 32 63.3334z"/><path d="m96-304h.1367z"/><path d="m96-304h-48l12.0073-16h35.9927z"/><path d="m144-192h64z"/><path d="m208-192v64z"/><path d="m208-128h-64z"/><path d="m144-128v-64z"/><path d="m208-128h-64v-64h64z"/><path d="m-704-480v32z"/><path d="m-704-480v-32z"/><path d="m-1024-480v-32h48.3419 32.0161l-16.0359 32z"/><path d="m-975.6581-512 12.0342-32h36.0176l-16.0357 32z"/><path d="m-704-480h-64.3221l-16.0359-32h32.0161 48.3419z"/><path d="m-784.358-512-16.0357-32h36.0176l12.0342 32z"/><path d="m-776.4103-576 12.0342 32h-36.0176-127.2126-36.0176l12.0342-32z"/><path d="m-764.3761-544-12.0342-32 24.0684 64z"/><path d="m-959.6779-480h-.3221-64z"/><path d="m-704-480h-64-.3221z"/><path d="m-800.3937-544h-127.2126z"/><path d="m-943.642-512 16.0357-32-32.0716 64z"/><path d="m-848 608v32z"/><path d="m-848 704v32z"/><path d="m-944 576h96z"/><path d="m-848 608h-96v-32h96z"/><path d="m-864-576h87.5897-175.1794z"/><path d="m-704-608v-160 192z"/><path d="m-688-960h-16v-64h.4289l15.967 64z"/><path d="m-688-896h-16v-64h16z"/><path d="m-703.5711-1024h-.4289z"/><path d="m-703.5711-1024 15.967 64z"/><path d="m-928-1088h32 64 32z"/><path d="m-864-576h-87.5897-72.4103-64v-32h80 144z"/><path d="m-784-608h64 16v32h-72.4103-87.5897v-32z"/><path d="m-1088-704v-64h64 16v128 32h-80z"/><path d="m-1024-768v-56-16-24h16v96z"/><path d="m-1008-640v-128-96h208 16v224z"/><path d="m-864-608h-144v-32h224v32z"/><path d="m-784-864h64v42.6667 181.3333h-64z"/><path d="m-720-640v32h-64v-32z"/><path d="m-1024-960v64h-16v-64z"/><path d="m-1024.4288-1024h.4288v64h-16-.3959z"/><path d="m-800-864h-208-16v-32-64-64l24-32h39.8975 32.1025 128z"/><path d="m-767.8975-1056h39.8975l8 10.6667v181.3333h-64-16v-192z"/><path d="m-928-1080v-4h128v4z"/><path d="m-928-1056v-16h128v16z"/><path d="m-960.1025-1088v32h-39.8975l24-32z"/><path d="m-767.8975-1088h15.8975l24 32h-39.8975z"/><path d="m-928-1072v-8h128v8z"/><path d="m-928-1084v-4h128v4z"/><path d="m-720-864v-181.3333l16 21.3333v64 64 48 26.6667h-16z"/><path d="m-704-821.3333v53.3333 160h-16v-32-181.3333z"/><path d="m-928-1084v4h32v-4z"/><path d="m-928-1080v8h32v-8z"/><path d="m-928-1072v16h32v-16z"/><path d="m-800-1072h-32-64-32z"/><path d="m-800-1080h-32-64-32z"/><path d="m-800-1084v-4h-32v4z"/><path d="m-800-1080v-4h-32v4z"/><path d="m-800-1072v-8h-32v8z"/><path d="m-1040.3959-960h.3959z"/><path d="m-1024-824v-16z"/><path d="m-16 432 80-80z"/><path d="m-16 432.3333v-.3333.0716z"/><path d="m-16 432.3333-.5.1667z"/><path d="m-1024-320v32 88z"/><path d="m-1024-320v32z"/><path d="m-1024-200v16z"/><path d="m-1024-512v32 32z"/><path d="m-688-384h-80z"/><path d="m-960-384h-64z"/><path d="m-704-576v64z"/><path d="m-688-384v-64z"/><path d="m-1024-576h72.4103l-24.0684 64h-48.3419z"/><path d="m-776.4103-576h72.4103v64h-48.3419z"/><path d="m-975.6581-512h-48.3419z"/><path d="m-704-512h-48.3419z"/><path d="m-951.5897-576-12.0342 32-12.0342 32z"/><path d="m-960 736h16z"/><path d="m-544-320h-224z"/><path d="m-320-320h-16-112-96z"/><path d="m-960-320h-64z"/><path d="m-768-384v64z"/><path d="m-960-384v64z"/><path d="m-768 480v62.3571z"/><path d="m-768 352v-33.1429z"/><path d="m-623.535 687.535 32.8564 16.465z"/><path d="m-437 704h-10.6667-.4049-63.8568-.4049-10.6667z"/><path d="m-768 542.3571 16.5723 33.0706z"/><path d="m-320-64h-64z"/><path d="m-576-64h-192z"/><path d="m-320-288v-32z"/><path d="m-320-288h-16z"/><path d="m-320-96h-16z"/><path d="m-752.3577 287.6423-15.6423 31.2148z"/><path d="m-320 448v112 16 78.1071z"/><path d="m64 352h-.3333z"/><path d="m79.6667 304h.3333z"/><path d="m80 80v224-96z"/><path d="m80 48v32z"/><path d="m-80 208h-.3333z"/><path d="m-80 48v160z"/><path d="m-96.3333 256h.3333z"/><path d="m-80.3333 208-16 48z"/><path d="m79.6667 304-16 48z"/><path d="m-144 304-48 16z"/><path d="m-16.5 432.5-47.5 15.8333z"/><path d="m-64 448h-32z"/><path d="m-96 448h-224z"/><path d="m-64 448v.3333z"/><path d="m-576-64v192z"/><path d="m-384-64v192z"/><path d="m-688 272.7696v-.7696z"/><path d="m-640 192v31.0714z"/><path d="m-656 255v1.7338z"/><path d="m-640 223.0714-16 31.9286z"/><path d="m-656 256.7338-32 16.0358z"/><path d="m-688 272h-30.3929z"/><path d="m-718.3929 272-33.0467 16.5604z"/><path d="m-751.4396 288.5604-.9181-.9181z"/><path d="m-639.0693 640h-.9307z"/><path d="m-654.5357 608h-.5695z"/><path d="m-640 640v14.1071z"/><path d="m-623.3442 687.3442-.1908.1908z"/><path d="m-640 654.1071 16.6558 33.2371z"/><path d="m-751.4277 575.4277-.0119.0119z"/><path d="m-751.4158 575.4516-.0238-.012z"/><path d="m-768 352h-192z"/><path d="m-800-64h-224z"/><path d="m-768-64h-32z"/><path d="m-960 512v224z"/><path d="m-960 352v160z"/><path d="m-768 480h-64z"/><path d="m-944 640v32z"/><path d="m-944 704v-32z"/><path d="m-848 640v32z"/><path d="m-832 512v224z"/><path d="m-832 480v32z"/><path d="m-944 608h96z"/><path d="m-848 640h-96v-32h96z"/><path d="m-1024-384h-16z"/><path d="m-1040-448h16z"/><path d="m-1040-448v64z"/><path d="m-784-1056h-160v16h160z"/><path d="m96-16v16z"/><path d="m96-16h-.0261-15.9739-9.5915z"/><path d="m-704-768h32z"/><path d="m-672-768v192z"/><path d="m-704-768h32v192h-32z"/><path d="m-848 672v32z"/><path d="m-944 640h96z"/><path d="m-848 672h-96v-32h96z"/><path d="m-672-576h-32z"/><path d="m-672-768h-32 64z"/><path d="m-640-768v192z"/><path d="m-672-768h32v192h-32z"/><path d="m-16 432 80-80z"/><path d="m-16 432.3333v-.2617-.0716z"/><path d="m-16 432v.0716z"/><path d="m64.0716 352h-.0716z"/><path d="m-15.9284 432h-.0716l80-80h.0716z"/><path d="m-15.9284 432 80-80h-.0716l-80 80z"/><path d="m80.0716 48h-.0716-15.9642-16.0358v32h32.0716z"/><path d="m-512.3333 704h.4049-.2432z"/><path d="m-447.6667 704h-.1617-.2432z"/><path d="m80.0716 48h-.0716z"/><path d="m64 352h-.3333-.0716-31.9284.3333z"/><path d="m80 304h-.3333z"/><path d="m79.6667 304h.3333.0716-32.0716-.3333 31.9284z"/><path d="m80 80v192 32z"/><path d="m80 80v-32h.0716v32 192h-.0716z"/><path d="m80.0716 272v32h-.0716v-32z"/><path d="m-80 208h-.3333z"/><path d="m-80.4049 208h.0716l-16 48h-.0716z"/><path d="m-80.3333 208-16 48z"/><path d="m-144 304 48-48z"/><path d="m79.6667 304h-.0716l-16 48h.0716z"/><path d="m79.5951 304h-31.9284l-5.3334 16-10.6666 32h31.9284z"/><path d="m-192 320v-.0716z"/><path d="m-144 303.9284v.0716l-48 16v-.0716z"/><path d="m-144 304-48 16z"/><path d="m-512.3333 688h.1617v-16h-32.1617v16z"/><path d="m-512.3333 688v4h.1617v-4z"/><path d="m-512.3333 692v-4h-32v4z"/><path d="m-512.3333 696h.1617v-4h-.1617-32v4z"/><path d="m-512.3333 696v8h.1617v-8z"/><path d="m-447.6667 688v4h-.4049v-4z"/><path d="m-447.6667 692v-4h-.4049v4z"/><path d="m-448.0716 672h-63.8568v16h63.8568z"/><path d="m-511.9284 688h-.4049v4h.4049z"/><path d="m-511.9284 692h-.4049v-4h.4049z"/><path d="m-511.9284 688v4h63.8568v-4z"/><path d="m-511.9284 692v4h63.8568v-4z"/><path d="m-511.9284 696v8h63.8568v-8z"/><path d="m-511.9284 696v-4-4-16h-.2432v16 4 4 8h.2432z"/><path d="m-511.9284 688h63.8568.4049 32-128.6666 32z"/><path d="m-447.6667 672v16h32v-16z"/><path d="m-511.9284 692h63.8568.4049 32-128.6666 32z"/><path d="m-447.6667 688v4h32v-4z"/><path d="m-447.6667 692v4h32v-4z"/><path d="m-447.6667 696v8h10.6667 10.6667 10.6666v-8z"/><path d="m-768 352h-192z"/><path d="m-768 480v-32h-64v32z"/><path d="m-944 704v32z"/><path d="m-848 704v32z"/><path d="m-944 672h96z"/><path d="m-848 704h-96v-32h96z"/><path d="m-944-1040v-16z"/><path d="m-784-1056v16z"/><path d="m-784-1040h-160v-16h160z"/><path d="m-784-1040h-160z"/><path d="m-944-1056h160z"/><path d="m-447.6667 688h-64.6666v-16h64.6666z"/><path d="m-512.3333 672h-32 128.6666-32z"/><path d="m-447.6667 672h32v16h-32z"/><path d="m-512.3333 688h-32v-16h32z"/><path d="m-784-1056h-160v16h160z"/><path d="m-16 432h.0716z"/><path d="m-16.5 432.5.5-.1667v-.3333z"/><path d="m64 352h-32l-48 48v32z"/><path d="m-16 432v-32 .3333z"/><path d="m-16.5 432.5.5-.5v-31.6667l-.5.1667z"/><path d="m-320 320v32z"/><path d="m-320 448v-32z"/><path d="m-144 304v-.0716z"/><path d="m-80 208h-.3333-.0716z"/><path d="m-80 48v160z"/><path d="m-96 256h32-.3333z"/><path d="m-96 256h-.4049.0716z"/><path d="m-144 304v32l16-16 16-16z"/><path d="m-144 304v-.0716l-48 16v.0716 32l48-16z"/><path d="m-192 320h-128z"/><path d="m-16.5 432.5-46.5 15.5-1 .3333z"/><path d="m-96 448h-224z"/><path d="m-63 448h-1z"/><path d="m-64 448h1v-32h-33v32z"/><path d="m-447.8284 672h15.7926-95.9284 15.7926.2432 63.8568z"/><path d="m-447.8284 704h.1617v-8-4-4-16h-.1617z"/><path d="m-447.8284 704v-32h-.2432v16 4 4 8z"/><path d="m-96 256h31.6667l16-48h-31.6667-.4049l-16 48z"/><path d="m-64 448v.3333z"/><path d="m-64 448v.3333l1-.3333z"/><path d="m-1024-184v88z"/><path d="m128 0v-.1432z"/><path d="m128 0h-32z"/><path d="m-672-576h32z"/><path d="m-640-576h32z"/><path d="m-640-768h-64 96z"/><path d="m-608-768v192z"/><path d="m-640-768h32v192h-32z"/><path d="m-944 736h-16z"/><path d="m-848 736h16-112z"/><path d="m-832 736h-16z"/><path d="m-272-255.8571v-.1429h-64v.1429z"/><path d="m-272-128.1429v-31.9h-64v31.9z"/><path d="m63.8571 48h.1429v-64h-.1429z"/><path d="m-63.8571 48h31.9v-64h-31.9z"/><path d="m-944 704h96z"/><path d="m-848 736h-96v-32h96z"/><path d="m-272-256h-64z"/><path d="m-336-128v31.7857.2143z"/><path d="m-336-128v-.1429-31.9.0071z"/><path d="m-272-128v-.1429h-64v.1429z"/><path d="m64 48h.0358 15.9642z"/><path d="m64 48h-.1429-31.9.0071z"/><path d="m-64 48h.1429v-64h-.1429z"/><path d="m70.4085-16h9.5915-15.9642z"/><path d="m-1008-200h-16v16h16z"/><path d="m-992-400h-16v16h16z"/><path d="m-720-400h-16v16h16z"/><path d="m31.7855-320h31.8812-127.3334 31.8812.1188 63.3334z"/><path d="m31.7855-336v-16h.1787v32h-.1787z"/><path d="m31.7855-336h31.8812-127.3334 31.8812.1188 63.3334z"/><path d="m-31.7855-320v16h-.1787v-16z"/><path d="m31.7855-304h31.8812v-16h-31.8812z"/><path d="m-272-223.9571v-31.9h-64v31.9z"/><path d="m-272-160.0429v.0071h-64v-.0071z"/><path d="m-31.9571 48h-31.9-.1429 32.0358z"/><path d="m-31.9571 48h-.0071v-64h.0071z"/><path d="m31.9571 48h31.9v-64h-31.9z"/><path d="m-640-576h-64 32z"/><path d="m-704-840v16z"/><path d="m-704-840v16 56-53.3333-26.6667z"/><path d="m-576-768v192z"/><path d="m-608-768h32v192h-32z"/><path d="m-1088-608v-32-64z"/><path d="m-1088-704v-64z"/><path d="m-1104-640v-64h16v64z"/><path d="m-909.9643 896h77.9643z"/><path d="m-1024-96v32-7.9821z"/><path d="m-31.6667-336v-16h-.2975v32h.2975z"/><path d="m-31.6667-320h63.3334v-16h-63.3334z"/><path d="m31.6667-336v-16h-63.3334v16z"/><path d="m31.9642-320v-32h-.2975v16 16z"/><path d="m31.6667-336h.1188v16h-.1188z"/><path d="m31.6667-320h.1188v-16h-.1188z"/><path d="m-31.6667-320h-.1188v-16h.1188z"/><path d="m-31.6667-336h-.1188v16h.1188z"/><path d="m-31.9642-352h.1787v16 16h-.1787z"/><path d="m80-16h-31.9422-.0578 16.0358z"/><path d="m-768 480v62.3571z"/><path d="m-768 448v32z"/><path d="m-768 352v32z"/><path d="m-432.0358 704h.04 15.9958-32-96 15.9958.04z"/><path d="m-272-160.0358v-.0071 31.9.1429 31.7857z"/><path d="m-272-287.7857v31.7857.1429 31.9-.0071z"/><path d="m-272-287.7857v-.1882-.0261 32z"/><path d="m-31.6667-320h-.2975v16h63.6309v-16z"/><path d="m31.6667-304h.2975v-16h-.2975z"/><path d="m31.9642-320v16h-.1787v-16z"/><path d="m-272-223.9642v.0071h-64v-.0071z"/><path d="m-336-223.9642v-16.0358 96-16.0358z"/><path d="m-272-160.0358v-63.9284h-64v63.9284z"/><path d="m-336-96.2143v.1882.0261z"/><path d="m-64.0358 48h.0358-16z"/><path d="m-31.9642 48h63.9284v-64h-63.9284z"/><path d="m31.9642-16h-.0071 31.9.1429 6.4085-6.3727z"/><path d="m31.9642 48h-.0071v-64h.0071z"/><path d="m-31.9642-16h-16.0358-.0145-47.9594 31.9739.1429 31.9z"/><path d="m-527.9642 672h-.04-48.1668 31.8377 32.1617z"/><path d="m-432.0358 672v32h-95.9284v-32z"/><path d="m-1024-184v-16h16v16z"/><path d="m-1024-200h16z"/><path d="m-1008-200v16z"/><path d="m-1008-184h-16z"/><path d="m-768 448v-32h-64v32z"/><path d="m-832 416h64v-32h-192v32z"/><path d="m-832 480v-32-32 96z"/><path d="m-960 512v224-114.3214z"/><path d="m-960 416v-32-32 160z"/><path d="m-768 384v-32h-192v32z"/><path d="m-832 480v-32z"/><path d="m-832 512v224z"/><path d="m-960 736v109.6786z"/><path d="m-960 736h16 112v32l-111.2012 111.2012-16.7988-33.5226z"/><path d="m-832 768v128h-77.9643l-33.1411-16.6077-.0958-.1911z"/><path d="m-943.1054 879.3923-.1912-.0957.0954-.0954z"/><path d="m-992-384h-16v-16h16z"/><path d="m-1008-400h16z"/><path d="m-992-384h-16z"/><path d="m-1008-384v-16z"/><path d="m-992-400v16z"/><path d="m-720-384h-16v-16h16z"/><path d="m-736-384v-16z"/><path d="m-720-384h-16z"/><path d="m-720-400v16z"/><path d="m-736-400h16z"/><path d="m31.6667-304h-63.3334v-16h63.3334z"/><path d="m-31.6667-320h-32 127.3334-32z"/><path d="m31.6667-320h32v16h-32z"/><path d="m-31.6667-304h-32v-16h32z"/><path d="m-320-320h-224z"/><path d="m-960-320h-64z"/><path d="m-960-384v64z"/><path d="m-768-384h-16v64h16z"/><path d="m-768-320v15.7698.2302z"/><path d="m-544-320h-224v16h224z"/><path d="m-384-64h-16z"/><path d="m-576-64h16z"/><path d="m-384-64v-16 .6354z"/><path d="m-320-320v6.4373 25.5627z"/><path d="m-320-64v-16h-64v16z"/><path d="m-576-64v-15.3646-.6354z"/><path d="m-576-64v-16h-192v16z"/><path d="m-576-64v192z"/><path d="m-576 128h16z"/><path d="m-384-64h-16v192h16z"/><path d="m-800-64h-224z"/><path d="m-768-64h-32z"/><path d="m96-16h-.0261z"/><path d="m96 0v-16z"/><path d="m-528.0042 704h-15.9958-46.6786 38.5761z"/><path d="m-431.9958 672h-.04-15.7926.1617 32 31.8376z"/><path d="m-528.0042 672h.04v32h-.04z"/><path d="m-431.9958 704h-.04v-32h.04z"/><path d="m95.9739 0h.0261-47.9422z"/><path d="m95.9739 0v-16h.0261v16z"/><path d="m95.9739-16h-15.9739z"/><path d="m-336-287.9739v-.0261h16v.0261z"/><path d="m-288-96.0261v.0261-47.9422z"/><path d="m-95.9739-16h-.0261 32z"/><path d="m-272-96v-.0261-.1882-31.7857z"/><path d="m-336-288v.0261 31.9739z"/><path d="m-288-288h16v.0261h-16z"/><path d="m-320-288v-25.5627 9.5627 63.9422-47.9161z"/><path d="m-272-288h-16z"/><path d="m-272-96h-16v-.0261h16z"/><path d="m-320-96h-16v-.0261h16z"/><path d="m-320-96v-.0261-47.9161z"/><path d="m-320-96v16 16z"/><path d="m-96-16v16z"/><path d="m-96 0v-16h.0261v16z"/><path d="m-288-313.5627v9.5627-.2302-15.7698z"/><path d="m-288-313.5627v-6.4373 32z"/><path d="m-576-576h-64 32z"/><path d="m-384-576h-192z"/><path d="m-384-768v192h-192v-192z"/><path d="m-909.9643 896h77.9643 32z"/><path d="m-909.9643 896-33.3323-16.7034.1912.0957z"/><path d="m-1024-295.9821v199.9821 24.0179-8.0179z"/><path d="m-1024-96v-199.9821-16.0358-7.9821 120 16z"/><path d="m-768-384h-16z"/><path d="m-960-384h-64z"/><path d="m-704-448h16z"/><path d="m-688-384v-64z"/><path d="m-1024-312.0179v8.0179h64v-16h-64z"/><path d="m-832 896v-128z"/><path d="m-800 896h-32v-128h32z"/><path d="m-1024-384h-16z"/><path d="m-1040-448v64z"/><path d="m-704-840h-16v16h16z"/><path d="m-384-768h-192z"/><path d="m-384-576v-192z"/><path d="m-832-1056h15.9958 48.1067-32.1025z"/><path d="m-896-1088h-32v4h32z"/><path d="m-832-1088h-64v4h64z"/><path d="m-896-1080v8h64v-8z"/><path d="m-896-1084v4h64v-4z"/><path d="m-896-1072v16h64v-16z"/><path d="m-832-1072h32-128 32z"/><path d="m-832-1080h32-128 32z"/><path d="m-832-1056h32v-16h-32z"/><path d="m-800 896h32z"/><path d="m160-304 32 32z"/><path d="m160-304v.179z"/><path d="m160-16.179v.179z"/><path d="m192-271.8214v-.1786z"/><path d="m192-48v-.3214z"/><path d="m224-112.1786v-95.7857z"/><path d="m224-207.9643-32-63.8571z"/><path d="m224-112.1786-32 63.8572z"/><path d="m160-16 32-32z"/><path d="m128 0v-.1432z"/><path d="m128-319.8568v-.1432z"/><path d="m160-16.179-32 16.0358z"/><path d="m128-319.8568 31.6429 15.8568.3571.179z"/><path d="m-1024-304v-8.0179 16.0358z"/><path d="m-785.444-384h1.444 16-65.5018z"/><path d="m-944-384h-16z"/><path d="m-384-544h-192z"/><path d="m-384-576v32h-192v-32z"/><path d="m-16.5 400.5.5-.1667v-.3333z"/><path d="m-335.7496 688.2504-31.429 15.7496z"/><path d="m-64-320h-224 192z"/><path d="m128-320h-31.8633-.1367-35.9927-8.0441-3.9632z"/><path d="m-64-320h16-3.9632-8.0441-36.1294-159.8633-32z"/><path d="m-784-320h16z"/><path d="m-960-320h16z"/><path d="m-784-384h-1.444v64h1.444z"/><path d="m-941.2374-384h-2.7626v64h2.7626z"/><path d="m-785.444-320v-64h-48.0578v64z"/><path d="m-944-384h-16v64h16z"/><path d="m48.0578-16h31.9422 15.9739v16h-47.9161-.0433v-16z"/><path d="m96 0h32-63.9642-16.0213.0433z"/><path d="m48 80v192 32h32.0716v-32-192z"/><path d="m48.0578-16h-.0433-.0145z"/><path d="m48 0h.0145-.0434z"/><path d="m48 0v-16h.0145v16z"/><path d="m-768 480.7338v-161.8767 33.1429 32 32 32 32 62.3571z"/><path d="m-623.535 687.535 32.8564 16.465z"/><path d="m-367.1786 704h-48.8214-15.9958 24.0984z"/><path d="m-768 542.3571 16.5723 33.0706z"/><path d="m-544-304.2302h-224v47.8849h128 63.6547 32.3453z"/><path d="m-288-304.2302v-15.7698z"/><path d="m48-320v15.7698h-96v-15.7698z"/><path d="m48-304.2302v-15.7698h3.9632z"/><path d="m-48-320v15.7698l-3.9632-15.7698z"/><path d="m-320-304v-9.5627-6.4373h-224v16z"/><path d="m-320-304v-.2302.3461z"/><path d="m48-304.2302v.2302h-96v-.2302z"/><path d="m48-304v-.2302l3.9632-15.7698h8.0441z"/><path d="m-48-304.2302v.2302l-12.0073-16h8.0441z"/><path d="m-544-304h-224v-.2302h224z"/><path d="m-320-304.2302v.2302h-224v-.2302z"/><path d="m-400.982-64h.982 16-65.0397z"/><path d="m-272-144v-96-.0578-47.9161.1882 63.8215 63.9284 63.8215.1882-47.9161z"/><path d="m-48-304h16.0358.1787-31.8812-32.3333-.1367z"/><path d="m48-304h-16.0358-.2975-63.6309-16.0358z"/><path d="m-48-304h-48.1367v-16h36.1294z"/><path d="m-336-240v-.0145h16v.0145z"/><path d="m-272-240.0578v.0433h-16v-.0433-47.9161h16z"/><path d="m-320-240.0578v.0433h-16v-47.9594h16z"/><path d="m-288-288v-16-9.5627z"/><path d="m-288-288v.0261 47.9161z"/><path d="m-272-144v.0145h-16v-.0145z"/><path d="m-272-144h-16v-96h16z"/><path d="m-320-144h-16v-96h16z"/><path d="m-384-79.3646v-.6354h64v.6354z"/><path d="m-336-144v.0578 47.9161-.1882-31.7857-32.0358z"/><path d="m-320-143.9422v47.9161h-16v-47.9161z"/><path d="m-272-143.9422v47.9161h-16v-47.9161z"/><path d="m-288-64v-32z"/><path d="m-576-80v.6354h-192v-.6354z"/><path d="m-763.9863 310.8477 10.7065-21.3652.9221-1.8402-15.6423 31.2148z"/><path d="m-320 192v128z"/><path d="m-320 448v-32-64-32 78.1786 161.8214z"/><path d="m-48 48h96 16.0358-.0358-32.0358-63.9284-32.0358-.0358z"/><path d="m-288-48.3214v-15.6786z"/><path d="m-288-64v15.6786z"/><path d="m-271.8689-16.1311.0716-.0716z"/><path d="m48-16v16h-96v-16z"/><path d="m48-16h-96 16.0358 63.9284 32.0716z"/><path d="m-239.4643 0-32.333-16.2027z"/><path d="m-271.7973-16.2027 32.333 16.2027z"/><path d="m-48.0578 0h.0433-16.0213-31.9642z"/><path d="m-96 0h.0261 47.9161z"/><path d="m-271.8689-16.1311-16.1311-32.1903z"/><path d="m-144 416v-64h-48-128v64z"/><path d="m-144 352v-16l-48 16z"/><path d="m42.3333 320h-58.3333v32h47.6667z"/><path d="m-96 416h33l46.5-15.5.5-.5v-48-32h-80-32l-16 16v16 64z"/><path d="m31.6667 352h-47.6667v48l48-48z"/><path d="m-112 304-16 16h32v-16-16z"/><path d="m-96 320h80 58.3333l5.3334-16h-95.6667-48z"/><path d="m-48 208h-.3333l-16 48h.3333l16-16z"/><path d="m-48 304v-32-32l-16 16-32 32v16z"/><path d="m48 80v-32h-96v160 32 32h96z"/><path d="m-48 272v32h95.6667.3333v-32z"/><path d="m-48.3333 208h.3333-32z"/><path d="m-48 48h-16.0358-15.9642v160h32z"/><path d="m-96 288 32-32h-32l-48 48h32z"/><path d="m-192 352v-32h-128v32z"/><path d="m-96 416h-48-176v32h224z"/><path d="m-63 416v32l46.5-15.5v-32z"/><path d="m-352 192h32-64z"/><path d="m-608 192h32z"/><path d="m-608 192h-16z"/><path d="m-558.1583-64h-1.8417v192h1.8417z"/><path d="m-400.982 128h.982v-192h-.982z"/><path d="m-400.982 128v-192h-48.0577v97.7266 94.2734z"/><path d="m-400 128h16z"/><path d="m-560-64h-16v192h16z"/><path d="m-608 672h-16-7.0336l7.6894 15.3442z"/><path d="m-448 672h-160l-15.3442 15.3442-.1908.1908 32.8564 16.465h46.6786 96z"/><path d="m-639.0693 640h-.9307v14.1071l8.9664 17.8929h7.0336v-32z"/><path d="m-654.5357 608h-.5695l16.0359 32h15.0693v-32z"/><path d="m-640 592h-46.4643l31.9286 16h30.5357v-16z"/><path d="m-624 576h-16v16h16z"/><path d="m-656 544h-64l-31.4277 31.4277.0119.0239 33.0229 16.5484h31.9286 46.4643v-16-32z"/><path d="m-656 544v-64l-.7338.7338-63.2662 63.2662z"/><path d="m-608 672h160v-96h-96-80v16 16 32 32z"/><path d="m-640 352v-128.9286l-16 31.9286v1.7338 190.3376h16z"/><path d="m-656 447.0714v32.9286 64h16v-96.9286z"/><path d="m-753.2798 289.4825 1.8402-.9221-.9181-.9181z"/><path d="m-640 352v95.0714 96.9286 32l16-16v-208z"/><path d="m-624 336v-144h-16v31.0714 128.9286h16z"/><path d="m-688 272.7696v-.7696h-30.3929l-33.0467 16.5604-1.8402.9221-10.7065 21.3652z"/><path d="m-656 447.0714v-190.3376l-32 16.0358-75.9863 38.0781-4.0137 8.0094v161.8767h111.2662l.7338-.7338z"/><path d="m-768 480.7338v61.6233l16.5723 33.0706 31.4277-31.4277 63.2662-63.2662z"/><path d="m-336.6557 687.3442-111.3443-111.3442v96 32h32 48.8214l31.429-15.7496z"/><path d="m-320 654.1071v-78.1071h-128l111.3443 111.3442z"/><path d="m-448 576h128v-16h-80-144v16z"/><path d="m-544 560h-80l-16 16h16 80z"/><path d="m-320 560h-80z"/><path d="m-624 336v16 208-208z"/><path d="m-688 272.7696v-.7696z"/><path d="m-640 192v31.0714z"/><path d="m-640 223.0714-16 31.9286z"/><path d="m-656 256.7338-32 16.0358z"/><path d="m-718.3929 272h30.3929z"/><path d="m-751.4396 288.5604 33.0467-16.5604z"/><path d="m-752.3577 287.6423.9181.9181z"/><path d="m-640 640h.9307z"/><path d="m-686.4643 592h-31.9286z"/><path d="m-718.3929 592-33.0229-16.5484z"/><path d="m-655.1052 608h.5695z"/><path d="m-654.5357 608-31.9286-16z"/><path d="m-639.0693 640-16.0359-32z"/><path d="m-640 654.1071v-14.1071z"/><path d="m-320 654.1071-16.6557 33.2371z"/><path d="m-336.6557 687.3442.9061.9062z"/><path d="m-623.535 687.535.1908-.1908z"/><path d="m-631.0336 672-8.9664-17.8929 16.6558 33.2371z"/><path d="m-751.4277 575.4277-.0119.0119.0238.012z"/><path d="m-751.4396 575.4396.0119-.0119z"/><path d="m-751.4158 575.4516-.0238-.012z"/><path d="m-960-304h-64v-.2302h64z"/><path d="m-800-79.3646h-224v-.6354h224z"/><path d="m-768-79.3646h-32v-.6354h32z"/><path d="m-960-304.2302h-64v47.8849h64z"/><path d="m-800-80h-224v8.0179 7.9821h224z"/><path d="m-768-80h-32v16h32z"/><path d="m-960-304v-.2302-15.7698z"/><path d="m-800 416v-32h32z"/><path d="m-768 768h-32z"/><path d="m-800 896v-128z"/><path d="m-768 896h-32v-128h32z"/><path d="m-944-1040v-16z"/><path d="m-784-1056v16z"/><path d="m-784-1040h-160v-16h160z"/><path d="m-784-1040h-160z"/><path d="m-944-1056h160z"/><path d="m-272-240.0145v-.0433.0578z"/><path d="m-272-143.9855v-.0145.0578z"/><path d="m-288-240.0145h16v.0145h-16z"/><path d="m-336-240.0145v.0145 16.0358.0071-31.9-.1429-31.9739z"/><path d="m-336-143.9855v-.0145h16v.0145z"/><path d="m-320-240.0145v-16.0213 128.0716-16.0213-.0145-96z"/><path d="m-288-143.9855v16.0213-128.0716 16.0213.0145 96z"/><path d="m-288-143.9855h16v.0433h-16z"/><path d="m-336-143.9855v.0433-.0578z"/><path d="m-336-143.9855h16v.0433h-16z"/><path d="m-48.0145-16h.0145v16h-.0145z"/><path d="m-48.0145 0h.0145 96-.0289-47.9711-47.7973-16.2385z"/><path d="m-48.0145-16v16h-.0433-47.9161v-16z"/><path d="m47.9711 0h.0434 16.0213-64.0358z"/><path d="m-288-303.8841v47.5388-63.6547 15.7698z"/><path d="m-288-303.8841v-.3461.2302z"/><path d="m-1008-840h-16v16h16z"/><path d="m-704-848v8z"/><path d="m-704-768v-56z"/><path d="m-704-768h128-32z"/><path d="m-720-824v-16z"/><path d="m-704-824h-16v-16h16z"/><path d="m-720-840h16z"/><path d="m-704-824h-16z"/><path d="m-1008-840v16z"/><path d="m-1024-824v-16h16v16z"/><path d="m-1008-824h-16z"/><path d="m-1024-840h16z"/><path d="m-1024-896v32 24z"/><path d="m-1024-768v-56z"/><path d="m-800 896h32 32z"/><path d="m-576-576v32z"/><path d="m-384-512h-192z"/><path d="m-384-544v32h-192v-32z"/><path d="m-768 896v-128z"/><path d="m-736 896v-128z"/><path d="m-736 896h-32v-128h32z"/><path d="m-816.0042-1088h.04 63.9642-15.8975z"/><path d="m-911.9958-1056h15.9958-32-32.1025z"/><path d="m-911.9958-1088v32h-48.1067v-32z"/><path d="m-816.0042-1056v-32h48.1067v32z"/><path d="m-688-960h.3959z"/><path d="m-703.5711-1024h-.4289z"/><path d="m-703.5711-1024 15.5711 62.4132.3959 1.5868z"/><path d="m-688-896h-16z"/><path d="m-688-896v-64z"/><path d="m-752-1088h-63.9642-96.0716-63.9642 176z"/><path d="m-976-1088h63.9642.04-48.1067z"/><path d="m-1088-576v-32z"/><path d="m-1088-608v-32z"/><path d="m-1024.4288-1024-15.9671 64z"/><path d="m-704-1024-16-21.3333-8-10.6667-24-32z"/><path d="m-1088-768h64z"/><path d="m-1040-896h16z"/><path d="m-1040-960v64z"/><path d="m-1024-1024h-.4288z"/><path d="m-815.9642-1056h-96.0716v-32h96.0716z"/><path d="m-976-1088-24 32-24 32z"/><path d="m-815.9642-1056h-.04-15.9958-64-15.9958-.04z"/><path d="m-815.9642-1088h-.04v32h.04z"/><path d="m-912.0358-1056h.04v-32h-.04z"/><path d="m-1040.3959-960h.3959z"/><path d="m-1104-704h16z"/><path d="m-1088-640h-16z"/><path d="m-1104-640v-64z"/><path d="m-576 896h-109.9643z"/><path d="m160-16.179v.179z"/><path d="m192-271.8214v-.1786l-32-32v.179 207.821 16h32z"/><path d="m160-80v63.821.179l32-32v-.3214-31.6786z"/><path d="m224-112.1786v-95.7857l-32-63.8571v191.8214 31.6786z"/><path d="m192-271.8214v-.1786z"/><path d="m224-207.9643-32-63.8571z"/><path d="m160-16 32-32z"/><path d="m-909.9643 896-33.3323-16.7034z"/><path d="m128-319.8568v-.1432z"/><path d="m128-319.8568v15.8568h31.6429z"/><path d="m160-96v-207.821l-.3571-.179h-31.6429v208z"/><path d="m128-96v95.8568l32-16.0358v-63.821-16z"/><path d="m-943.2012 879.2012-16.7988-33.5226z"/><path d="m-1024 64v128z"/><path d="m-1024-127.4224v-72.5776-56.3453-47.8849.2302 8.0179 215.9821.6354z"/><path d="m-1024-512v-64z"/><path d="m-736 896v-128h32v128z"/><path d="m-640 640v-64h96 96v80 48h-128-64z"/><path d="m-704 768v-64h64 64v192h-109.9643-18.0357z"/><path d="m-992 64h32v222.9262l-32-16.0358z"/><path d="m-928 64h16v224h-16z"/><path d="m-912 288v62.7857l-16-31.9286v-30.8571z"/><path d="m-960 286.9262v-222.9262h32v224h-32z"/><path d="m-928 288v30.8571 1.1429l-32-32z"/><path d="m-1024 192v-128h32v206.8904 1.1096h-32z"/><path d="m-768 384h-32v32z"/><path d="m-816 64h48v128 96h-144v-224z"/><path d="m-768 288v96h-32-112v-33.2143-62.7857z"/><path d="m-624 352v208l-16 16v-160-64z"/><path d="m-640 192h16v144 16h-16z"/><path d="m-768 384v-96-96h64 64v160 64h-128z"/><path d="m-640 416v160 64h-128v-160-64z"/><path d="m-640 640v64h-64-64v-64z"/><path d="m-768 64h64v96 32h-64z"/><path d="m-368 656v32 .4116l-31.1071 15.5884h-48.8929v-48z"/><path d="m-368 688v-32h31.0515.9485z"/><path d="m-368 656h-80v-80h128v46.1786l-16.9485 33.8214z"/><path d="m-400 560h80v16h-128-96v-16z"/><path d="m-544 576h-96l16-16h80z"/><path d="m-384-64v-32h-32-33.0397v32z"/><path d="m-271.7973-16.2027 79.7973-79.7973h-96v32 15.6786l16.1311 32.1903z"/><path d="m-47.7973-96h-48.2027-96l-79.7973 79.7973 32.333 16.2027h143.4643 31.9642 16.2385z"/><path d="m0 0h64.0358 63.9642v-.1432-95.8568h-175.7973v96z"/><path d="m-832-127.4224v-.5776-72h-64-128v72.5776z"/><path d="m-896-200v-56.3453h-64-64v56.3453z"/><path d="m-896-256.3453v-63.6547h-64v63.6547z"/><path d="m-832-320h-1.5018-59.8507-2.6475v63.6547 56.3453h64z"/><path d="m-833.5018-384v-64h-59.8507v64 64h59.8507z"/><path d="m-960-384h66.6475v-64h-34.9339-95.7136v64z"/><path d="m-960.358-512h-63.642v64h95.7136z"/><path d="m-800-127.4224h32 128v-.5776h-128-64v.5776z"/><path d="m-768-128v-128.3453-63.6547h-64v120 72z"/><path d="m-768-128h128v-128.3453h-128z"/><path d="m-449.0397-64v-32-33.0397l-61.2337-61.2337v126.2734 97.7266h61.2337z"/><path d="m-510.2734 33.7266v94.2734h61.2337v-94.2734z"/><path d="m-510.2734-190.2734-65.7266-65.7266v128.5776 63.4224h65.7266z"/><path d="m-576-256-.3453-.3453h-63.6547v128.3453.5776h64z"/><path d="m-768-384h80v-64h-16-95.7136-33.7882v64z"/><path d="m-704-512h-63.642l-32.0716 64h95.7136z"/><path d="m-320-127.4224v-.5418-128.0716-.3095h-64v128.9229z"/><path d="m-416-96-33.0397-33.0397v33.0397z"/><path d="m-576-256 65.7266 65.7266 61.2337 61.2337 33.0397 33.0397h32v-31.4224-128.9229h-160-32.3453z"/><path d="m-96-304v-16h-192v63.6547.3095 128.0716 31.9642h96 96z"/><path d="m128-304h-224v208h48.2027 175.7973z"/><path d="m128-304v-15.8568-.1432h-192-32v16z"/><path d="m-384-512v32h-192v-32z"/><path d="m-384-480v-32z"/><path d="m-384-480h-192z"/><path d="m-893.3525-448h59.8507 33.7882-.2864-128.2864z"/><path d="m-704-512v-64z"/><path d="m-1024-512h63.642z"/><path d="m-767.642-512h63.642z"/><path d="m-960.358-512 32.0716 64z"/><path d="m-799.7136-448 32.0716-64z"/><path d="m-960 621.6786v114.3214 109.6786-173.6786z"/><path d="m-320 320v-128 206.1786z"/><path d="m-336 656h-.9485z"/><path d="m-368 688.4116v-.4116z"/><path d="m-448 704h48.8929-176.8929z"/><path d="m-800 384h32-144z"/><path d="m-928 320v-1.1429z"/><path d="m-832 512v-96 .0716 31.9284 96z"/><path d="m-768 704h64z"/><path d="m-768 480v160 64z"/><path d="m-992 272v-1.1096z"/><path d="m-688-384h-80z"/><path d="m-960-384h16 2.7626 47.8849z"/><path d="m-704-512v64-32-32-64z"/><path d="m-576-576v32 32z"/><path d="m-384-512v-32z"/><path d="m-384-544v-32z"/><path d="m-688-384v-64z"/><path d="m128-320h-80-96-16z"/><path d="m-832-320h64-16-1.444-48.0578z"/><path d="m-896-320h2.6475-47.8849-2.7626-16z"/><path d="m-893.3525-384h-47.8849v64h47.8849z"/><path d="m-768-256.3453v-47.8849-15.7698z"/><path d="m-384-256.3453h64v-47.5388-.3461h-224v47.8849z"/><path d="m-576-64h16 1.8417 47.8849z"/><path d="m-384-127.4224v31.4224 32-15.3646z"/><path d="m-320-256.3453v.3095 16.0213-.0433-63.9422.1159z"/><path d="m-288-256.0358v-.3095-47.5388-.1159 16 47.9422.0433z"/><path d="m-320-127.9642v.5418 48.0578-.6354-16-47.9422-.0433z"/><path d="m-288-96v-31.9642-16.0213.0433 47.9422 32z"/><path d="m-320-127.4224h-64v48.0578h64z"/><path d="m-576-127.4224v48.0578 15.3646z"/><path d="m-576-127.4224h-64-128v48.0578h192z"/><path d="m-96 0h-143.4643z"/><path d="m-352 192h-32z"/><path d="m-320 192h-32z"/><path d="m-576 160v32z"/><path d="m-576 128v32z"/><path d="m-384 192v-32-32z"/><path d="m-510.2734 128h-47.8849-1.8417-16z"/><path d="m-384 128h-16-.982-48.0577z"/><path d="m-510.2734 33.7266v-97.7266h-47.8849v192h47.8849z"/><path d="m-400 560h-144-80 80z"/><path d="m-624 192v144z"/><path d="m-960-320v15.7698 47.8849z"/><path d="m-800-127.4224h-32-192v48.0578h224z"/><path d="m-768-127.4224h-32v48.0578h32z"/><path d="m-832 416h-128z"/><path d="m-800 384v32z"/><path d="m-768 384h-32z"/><path d="m-800 416 32-32z"/><path d="m-832 512v32 192z"/><path d="m-960 416v96z"/><path d="m-832 736v32z"/><path d="m-736 768h-32-32z"/><path d="m-832 768h32z"/><path d="m-1024-448h-16v64h16z"/><path d="m-1024-384h-16z"/><path d="m-1040-448v64z"/><path d="m-943.2966 879.2966.0954-.0954z"/><path d="m-1024 192v80z"/><path d="m-576-480v-96 64z"/><path d="m-384-448h-192z"/><path d="m-384-480v-32-32-32 128z"/><path d="m-384-576v32z"/><path d="m-384-544v32z"/><path d="m-384-480v32h-192v-32z"/><path d="m-848 64h32-96-16-32-32-32z"/><path d="m-848 48v-.9485z"/><path d="m-816 64h-32v-16-.9485l32 16.0357z"/><path d="m-848 48v16h-176v-32h160z"/><path d="m-864 32 16 16z"/><path d="m-832 416h-128z"/><path d="m-704-896v32 16z"/><path d="m-704-832v64-56-16-8z"/><path d="m-352-832h-224z"/><path d="m-688-961.5868v1.5868h.3959z"/><path d="m-688-960v-1.5868l-15.5711-62.4132h-.4289v128h16z"/><path d="m-688-960h.3959z"/><path d="m-688-896v-64z"/><path d="m-576-792v-16z"/><path d="m-320-832v32z"/><path d="m-384-768h-192z"/><path d="m-352-768h-32-192v-24-16-24h224z"/><path d="m-320-832v32 32h-32v-64z"/><path d="m-384-768v192z"/><path d="m-320-576h-64v-192h32 32z"/><path d="m-1040-961.5868 15.5712-62.4132-15.9671 64z"/><path d="m-704-1024-48-64z"/><path d="m-704-832v-16-16h-96l32 32z"/><path d="m-800-1088h-176l-48 64v128 32h96 128z"/><path d="m-704-864v-32-128l-48-64h-48v224z"/><path d="m-1040.3959-960h.3959v-1.5868z"/><path d="m-1024-1024h-.4288l-15.5712 62.4132v1.5868 64h16z"/><path d="m-960-832 32-32h-96v32z"/><path d="m-1040-960v64z"/><path d="m-1024-1024h-.4288z"/><path d="m-976-1088-48 64z"/><path d="m-1024-832v-32-32 56 16 56z"/><path d="m-685.9643 896h-224 109.9643 64 32z"/><path d="m-576 896h-109.9643z"/><path d="m-909.9643 896-33.1411-16.6077-.1912-.0957z"/><path d="m-960 845.6786 16.7988 33.5226z"/><path d="m-1024 192v-160 32z"/><path d="m-384 192h32z"/><path d="m-352 192h32z"/><path d="m-32-352.3306-15.8845-63.6694 15.967 64z"/><path d="m-256-464v16z"/><path d="m-256-256v128z"/><path d="m-32-352v96z"/><path d="m-32-352v-.3306l.0825.3306z"/><path d="m-160-256v-223.9175l64 15.967v47.9505 160.0825h-64z"/><path d="m-96-255.9175v63.9175 104.1074l-15.75 7.8926-31.9286 16h-.4646-15.8568v-191.9175z"/><path d="m-256-448v-16-16h96v.0825 223.9175h-96z"/><path d="m-160-256v.0825 191.9175 31.6429l-.179.3571h-95.821v-96-128z"/><path d="m-64-416h-32v-47.9505-.0495l48 48z"/><path d="m-64-416h16 .1155l15.8845 63.6694v.3306 96h-32z"/><path d="m-96-255.9175v-160.0825h32v160 64h-32z"/><path d="m-64-192v64 48h-32v-7.8926-104.1074z"/><path d="m-96-87.8926v7.8926h-15.75z"/><path d="m-160-64h15.8568l-15.8568 31.6429z"/><path d="m-32-256h-32z"/><path d="m-47.8845-416h-.1155z"/><path d="m-96-464v.0495z"/><path d="m-160-479.9175 64 15.967z"/><path d="m-64-192v-64 128z"/><path d="m-64-128v48z"/><path d="m-96-80h32-47.75z"/><path d="m-352-256h96-128z"/><path d="m-576-256h-64z"/><path d="m-352-256h-32-192v-192h192 32z"/><path d="m-256-448v192h-96v-192z"/><path d="m-640-448h40.0895-8.0179z"/><path d="m-576-256h-64v-192h32.0716 31.9284z"/><path d="m-384-256v64z"/><path d="m-384-256v64h-64-128v-64z"/><path d="m-576 160v-32z"/><path d="m-384 128v32 32z"/><path d="m-384 160v32z"/><path d="m-416 192 32-32v-32h-192v32l32 32z"/><path d="m-384 128h-65.0397-61.2337-65.7266z"/><path d="m-816 64v-.9128z"/><path d="m-816 64v-.9128z"/><path d="m-704 64h-64-48z"/><path d="m-816 63.0872-32-16.0357z"/><path d="m-816 63.0872-32-16.0357z"/><path d="m-880 32v-16l16 16z"/><path d="m-887.7852 0 7.7852 15.5357v.4643 16h-144v-32z"/><path d="m-880 32h16-160z"/><path d="m-960 448v173.6786 50.3214z"/><path d="m-960 448v-31.9284-.0716 96 109.6786z"/><path d="m-960 286.9262v1.0738z"/><path d="m-320 448v64 110.1786z"/><path d="m-320 398.1786v17.8214 32 174.1786-46.1786-16z"/><path d="m-704 704v64z"/><path d="m-352 192v128 96z"/><path d="m-320 398.1786v-206.1786h-32v224h32z"/><path d="m-352 416 32 32v-32z"/><path d="m-336.9485 656 16.9485-33.8214z"/><path d="m-576 896v-192z"/><path d="m-576 704v192z"/><path d="m-368 688 32-32z"/><path d="m-399.1071 704h-48.8929-128z"/><path d="m-399.1071 704 31.1071-15.5884z"/><path d="m-768 384h-144z"/><path d="m-912 350.7857v33.2143z"/><path d="m-928 320v-1.1429z"/><path d="m-928 318.8571 16 31.9286z"/><path d="m-960 288 32 32z"/><path d="m-832 544v128 96-32z"/><path d="m-832 448v-31.9284 16.0358.6435z"/><path d="m-768 480v224-64z"/><path d="m-768 384v32 64z"/><path d="m-704 768h-32-64-32z"/><path d="m-832 416.0716v-.0716h-128v.0716 16.0358h128z"/><path d="m-992 272v-1.1096z"/><path d="m-992 270.8904 32 16.0358z"/><path d="m-1024 272h32z"/><path d="m-943.2012 879.2012-.0954.0954z"/><path d="m-1024 192v-192 32z"/><path d="m-256-96v-32 96z"/><path d="m-256-96v64 32z"/><path d="m-256-32h95.821z"/><path d="m-160 0v-32z"/><path d="m-160 0h-96v-32h95.821.179z"/><path d="m-640-256h64-96z"/><path d="m-599.9105-448h8.0179 15.8926-31.9284z"/><path d="m-640-448v192z"/><path d="m-672-448h32v192h-32z"/><path d="m-704 160v32z"/><path d="m-704 120v16 24-96z"/><path d="m-704 120v16z"/><path d="m-704 64v56z"/><path d="m-576-192v-64z"/><path d="m-512-192h64z"/><path d="m-576-192h64-46.1583-1.6627z"/><path d="m-512-192h-64 128z"/><path d="m-896 0h8.2148-136.2148z"/><path d="m-896-16.3929 8.2148 16.3929h-8.2148z"/><path d="m-896-32v15.6071 16.3929h-128v-32z"/><path d="m-1024-32h128z"/><path d="m-887.7852 0 7.7852 15.5357z"/><path d="m-1024-576h-64z"/><path d="m-640-576h64-128z"/><path d="m-704-832h-64z"/><path d="m-960-832h-64z"/><path d="m-896-864h64 32-128z"/><path d="m-800-864h-32z"/><path d="m-928-864-32 32z"/><path d="m-768-832-32-32z"/><path d="m-1024 192v-224 32z"/><path d="m-1024-32v224-96z"/><path d="m-416 192h-128z"/><path d="m-256-96v-32z"/><path d="m-160 32v-32-32z"/><path d="m-256 0h96z"/><path d="m-160 32h-96v-32h96z"/><path d="m-576-463.8926v-16.1074 32z"/><path d="m-576-448v-15.8926z"/><path d="m-591.8926-448h-8.0179-40.0895-32z"/><path d="m-704-448h-95.7136l32.0716-64h63.642z"/><path d="m-928.2864-448h-31.7136-64v-64h63.642z"/><path d="m-1024-448h64l-64 64z"/><path d="m-800-256h-224v-128l64-64h31.7136 128.2864z"/><path d="m-799.7136-448h95.7136 32v192h-32-96v-192z"/><path d="m-672-448v192z"/><path d="m-448-192h64-16.179-.803z"/><path d="m-512-184v-8h64v8z"/><path d="m-512 64h64 64v96l-32 32h-128l-32-32v-96z"/><path d="m-384 160v-96 128z"/><path d="m-384 64h-64 63.8568z"/><path d="m-544 192-32-32z"/><path d="m-384 160-32 32z"/><path d="m-720-208h.0179z"/><path d="m-973.8214-208h-50.1786v-25.1454z"/><path d="m-800-208h-32-48-93.8214l-50.1786-25.1454v-22.8546h224z"/><path d="m-704-256v16.1071l-15.9821 31.8929h-.0179-80v-48z"/><path d="m-704-239.8929-15.9821 31.8929z"/><path d="m-782.25-160 31.9286-16z"/><path d="m-832-208h32 80l-32 32h-64-16z"/><path d="m-816-176h64 1.6786l-31.9286 16h-33.75z"/><path d="m-816-160v.9128l-16 8.0178v-8.9306-16h16z"/><path d="m-880-208h48v32 16h-16-32z"/><path d="m-848-143.0515v-.9485-16h16v8.9306z"/><path d="m-880-112v-.1786-47.8214h32v16z"/><path d="m-816-159.0872v-.9128z"/><path d="m-750.3214-176h-1.6786z"/><path d="m-752-176 32-32z"/><path d="m-816-160h33.75z"/><path d="m-832-151.0694 16-8.0178-32 16.0357z"/><path d="m-1024-208h50.1786 93.8214v48h-16-128z"/><path d="m-896-160h16v47.8214l-16 31.9286z"/><path d="m-1024-160h128v79.75 48.25h-128z"/><path d="m-896-32v-48.25z"/><path d="m-880-112.1786-16 31.9286z"/><path d="m-896-16.3929v-15.6071z"/><path d="m-896-16.3929 8.2148 16.3929z"/><path d="m-960 432.7509v-.6435-16.0358 31.9284z"/><path d="m-320 448v64z"/><path d="m-320 622.1786-16.9485 33.8214z"/><path d="m-832 672v-128-96z"/><path d="m-832 448v-15.2491 48.0578 63.1913 64 64z"/><path d="m-960 432.1074v.6435h128v-.6435z"/><path d="m-832 432.7509h-128v48.0578h128z"/><path d="m-1024.0179-208h.0179z"/><path d="m-1024-208h-.0179l-16.0358-32h2.3751l13.6786 6.8546z"/><path d="m-1152-448h128v64l-111.1534 111.1535-.9062.9061-15.9404-31.8096z"/><path d="m-1024-233.1454-13.6786-6.8546-31.9286-16h45.6072z"/><path d="m-1024-256h-45.6072-31.9286l-33.6176-16.8465 111.1534-111.1535z"/><path d="m-1101.5358-256h31.9286z"/><path d="m-1136.0596-271.9404.9062-.9061z"/><path d="m-1037.6786-240-18.3214-9.1812-13.6072-6.8188z"/><path d="m-1072-384h-64v64h64z"/><path d="m-1136-384h64z"/><path d="m-1136-320v-64z"/><path d="m-1072-320h-64z"/><path d="m-1072-384v64z"/><path d="m-1072-320h-64v-64h64z"/><path d="m-576-808v-24z"/><path d="m-256 32v32z"/><path d="m-160 32v-64 96z"/><path d="m-256 32h96z"/><path d="m-160 64h-96v-32h96z"/><path d="m-448 64h-64z"/><path d="m-448 64h-64v-8h64z"/><path d="m-704 136v24z"/><path d="m-576-768v-24z"/><path d="m-576-576v-16.179h-128v16.179z"/><path d="m-1024-768v-64z"/><path d="m-1024-576v64 64z"/><path d="m-576-448v.1432-.1432-128 96 16.1074z"/><path d="m-256-448h-96-32z"/><path d="m-384-448v15.7112.4678z"/><path d="m-576-448h-15.8926-80.1074-32z"/><path d="m-704-448v-64-64z"/><path d="m-384-256h-16.179v64h16.179z"/><path d="m-1024-576h.1432 16.0358-1.392z"/><path d="m-704.1432-576h.1432-16.179z"/><path d="m-576-576h.1432 16.0358z"/><path d="m-320-576h-64z"/><path d="m-704-768v15.8267.3523z"/><path d="m-704-768v-64z"/><path d="m-352-832h-224z"/><path d="m-320-832h-32z"/><path d="m-576-576v-15.5396-.6394z"/><path d="m-320-832v32z"/><path d="m-320-800v224-192z"/><path d="m-560-808h-16v16h16z"/><path d="m-560-808h-16z"/><path d="m-704.1432-832h-63.8568 47.1335.6875z"/><path d="m-704.1432-832h.1432-64z"/><path d="m-1023.8568-832h63.8568-64z"/><path d="m-800-864h-32z"/><path d="m-896-864h-32z"/><path d="m-832-864h-64z"/><path d="m-896-864h-32z"/><path d="m-928-864-32 32z"/><path d="m-768-832-32-32z"/><path d="m-704.1432-768h.1432v-64h-.1432z"/><path d="m-1024-768h.1432v-64h-.1432z"/><path d="m-704.1432-768v-64h-16.0358v64z"/><path d="m-685.9643 896h-18.0357-128-77.9643z"/><path d="m-685.9643 896h109.9643-32-64-32z"/><path d="m-960 845.6786 16.7988 33.5226z"/><path d="m-256-256.1432v.1432-15.5957-.5833z"/><path d="m-256-96v96 32z"/><path d="m-64-128h-.1432-16.0358.8697z"/><path d="m-256-128h15.7112.4678z"/><path d="m-64-256h32-47.3093-.8697 16.0358z"/><path d="m-64-256h-.1432v128h.1432z"/><path d="m-64.1432-256h-16.0358v128h16.0358z"/><path d="m-160 128h64v64h-160v-64z"/><path d="m-256 64h96v64h-96z"/><path d="m-160 64v-96h64v160h-64z"/><path d="m-143.6786-64h79.6786v32h-32-64-.179l16.0358-32z"/><path d="m-96 128v-160h32v224h-32z"/><path d="m-64-80v16h-79.6786l31.9286-16z"/><path d="m-64-64v-16-48 96z"/><path d="m-160.179-32h.179z"/><path d="m-143.6786-64h-.4646z"/><path d="m-111.75-80-31.9286 16z"/><path d="m-144.1432-64-16.0358 32 .179-.3571z"/><path d="m-256 64h96z"/><path d="m-384-256h-16.179z"/><path d="m-672-256h-32z"/><path d="m-576-256.1432v.1432-15.5957-.5833z"/><path d="m-576-448v.1432 16.0358-.4678z"/><path d="m-575.8568-448h-.1432 16.179z"/><path d="m-384-576h-.1432v128h.1432z"/><path d="m-575.8568-576h-.1432v128h.1432z"/><path d="m-575.8568-576v128h16.0358v-128z"/><path d="m-384.1432-576h-16.0358v128h16.0358z"/><path d="m-256-256.1432v-16.0358h-128v16.0358z"/><path d="m-256-256v-.1432h-128v.1432z"/><path d="m-704-448h-.1432-16.0358z"/><path d="m-704.1432-448h.1432v-128h-.1432z"/><path d="m-1023.8568-576h-.1432v128h.1432z"/><path d="m-704.1432-448v-128h-16.0358v128z"/><path d="m-704-448v15.7112.4678z"/><path d="m-704-256v-.1432-16.0358.5833z"/><path d="m-576-256.1432v-16.0358h-128v16.0358z"/><path d="m-672-256h96v-.1432h-128v.1432z"/><path d="m-704-256v16.1071z"/><path d="m-576 160v-96z"/><path d="m-576 192v-32z"/><path d="m-576 64h.1432z"/><path d="m-384 64h-.1432v128h.1432z"/><path d="m-575.8568 64h-.1432v96 32h.1432z"/><path d="m-384.1432 64h-16.0358v128h16.0358z"/><path d="m-960 832v-160 173.6786z"/><path d="m-960 672v-64-64-63.1913-48.0578 15.2491z"/><path d="m-64 320v-64 64 46.75z"/><path d="m-320 512v64 46.1786z"/><path d="m-143.6786 448h-112.3214z"/><path d="m-96 320h-16-208v-128h64 160z"/><path d="m-64 192v64 64h-32v-128z"/><path d="m-64 366.75-16.6622 33.25h-31.3378v-80h16 32z"/><path d="m-112 400h31.3378.6622l-32 32z"/><path d="m-112 320v80 32 .1253l-31.6786 15.8747h-112.3214-64v-128z"/><path d="m-80 400h-.6622z"/><path d="m-112 432.1253v-.1253z"/><path d="m-112 432.1253-16 8.0179-15.6786 7.8568z"/><path d="m-704 704v64z"/><path d="m-352 416 32 32z"/><path d="m-320 448-32-32v-96h32z"/><path d="m-320 320h-32v-128h32z"/><path d="m-576 704h-32v192h32z"/><path d="m-832 768v-96z"/><path d="m-704 704h-64z"/><path d="m-704 768h-128z"/><path d="m-704 896v-128h-128v64 64z"/><path d="m-928 608h64z"/><path d="m-864 544h-64z"/><path d="m-928 544h64 32v-63.1913h-128v63.1913z"/><path d="m-832 544h-32v64h32z"/><path d="m-928 544h-32v64h32z"/><path d="m-832 768v-96-64h-32-64-32v64 160h128z"/><path d="m-960 832v13.6786l16.7988 33.5226.0958.1911 33.1411 16.6077h77.9643v-64z"/><path d="m-943.2012 879.2012-.0954.0954.1912.0957z"/><path d="m-943.2012 879.2012-.0954.0954z"/><path d="m-96 320h-64v64h64z"/><path d="m-576-792v-16h16v16z"/><path d="m-576-792h16z"/><path d="m-560-808v16z"/><path d="m-720 136h16z"/><path d="m-720 120v16h16v-16z"/><path d="m-96 320v64z"/><path d="m-160 320h64z"/><path d="m-96 384h-64z"/><path d="m-160 384v-64z"/><path d="m-96 384h-64v-64h64z"/><path d="m-704 120h-16z"/><path d="m-704 136h-16v-16h16z"/><path d="m-720 136v-16z"/><path d="m-384-448h-.1432-16.0358z"/><path d="m-560.6582 64h.8372 1.6627z"/><path d="m-1024-576h14.787 48.0578z"/><path d="m-576-576h16.179 1.6627 47.8849z"/><path d="m-400.982-576h.803 16.179 64-64-65.0397z"/><path d="m-384-576h-16.179 16.0358z"/><path d="m-704-592.179v.6394 15.5396z"/><path d="m-576-751.821v-.3523-15.8267z"/><path d="m-576-768v-40 16z"/><path d="m-576-592.179v.6394h-128v-.6394z"/><path d="m-576-752.1733v.3523h-128v-.3523z"/><path d="m-704-751.821h128v-16.179h-128z"/><path d="m-1088-640v32 32-16.179z"/><path d="m-1088-704v-47.821-16.179z"/><path d="m-1009.213-768h1.392-16.0358-.1432z"/><path d="m-704-768h-.1432-16.0358z"/><path d="m-1007.821-832h47.821-63.8568z"/><path d="m-720.8665-832h-47.1335z"/><path d="m-800-864h-32-64-32z"/><path d="m-960-832 32-32z"/><path d="m-800-864 31.0758 31.0758.9242.9242z"/><path d="m-1007.821-832v64h-1.392v-64z"/><path d="m-720.8665-832v64h.6875v-64z"/><path d="m-1007.821-768v-64h-16.0358v64z"/><path d="m-1024-751.821v-.3523-15.8267z"/><path d="m-1024-591.5396v-.6394 16.179z"/><path d="m-1088-591.5396v-.6394h64v.6394z"/><path d="m-1024-751.821h-64v-.3523h64z"/><path d="m-1024-752.1733h-64v48.0578h64z"/><path d="m-1024-592.179h-64v16.179h64z"/><path d="m-1088-751.821h64v-16.179h-64z"/><path d="m-1104-704v64h16v-64z"/><path d="m-1104-704h16z"/><path d="m-1088-640h-16z"/><path d="m-256 192h-64-32-32-.1432-16.0358z"/><path d="m-576 192h16.179-16.0358z"/><path d="m-256-431.821v-.4678-15.7112z"/><path d="m-79.3093-256h47.3093-95.1942z"/><path d="m-240.2888-256h-15.7112 16.179z"/><path d="m-239.821-128h-.4678v-128h.4678z"/><path d="m-79.3093-128h-.8697v-128h.8697z"/><path d="m-79.3093-128v-128h-47.8849v128z"/><path d="m-239.821-128v-128h-16.179v128z"/><path d="m-400.982-256h.803 16.179-65.0397z"/><path d="m-559.821-256h-16.179z"/><path d="m-400.179-576h-.803v128h.803z"/><path d="m-558.1583-576h-1.6627v128h1.6627z"/><path d="m-400.982-448v-128h-48.0577v128z"/><path d="m-384-271.5957v15.5957-.1432-16.0358z"/><path d="m-384-432.2888v-15.7112 63.769z"/><path d="m-256-432.2888v.4678h-128v-.4678z"/><path d="m-256-272.179v.5833h-128v-.5833z"/><path d="m-256-431.821v-16.179h-128v16.179z"/><path d="m-1009.213-448h1.392-16.0358-.1432z"/><path d="m-704-448h-16.179-.6875-48.0577z"/><path d="m-720.179-576h-.6875v128h.6875z"/><path d="m-1007.821-448h-1.392v-128h1.392z"/><path d="m-1007.821-576h-16.0358v128h16.0358z"/><path d="m-576-272.179v.5833h-128v-.5833z"/><path d="m-576-432.2888v.4678h-128v-.4678z"/><path d="m-704-256v-15.5957-48.0577z"/><path d="m-704-448v63.769-48.0578z"/><path d="m-576-271.5957v-48.0577h-128v48.0577z"/><path d="m-576-431.821v-16.0358-.1432h-128v16.179z"/><path d="m-448-192h-64v8h64z"/><path d="m-558.1583-256h-1.6627v64h1.6627z"/><path d="m-400.179-256h-.803v64h.803z"/><path d="m-512-192h64 47.018-48.0577-61.2337-47.8849z"/><path d="m-400.982-192v-64h-48.0577v64z"/><path d="m-448-192v8z"/><path d="m-559.821-256h-16.179v64h16.179z"/><path d="m-512-184v-8z"/><path d="m-512-184h64z"/><path d="m-448 64h47.018.803 16.0358z"/><path d="m-558.1583 64h46.1583-64 .1432 15.1986z"/><path d="m-400.179 64h-.803v128h.803z"/><path d="m-558.1583 64h-1.6627v128h1.6627z"/><path d="m-400.982 192v-128h-47.018-1.0397v128z"/><path d="m-559.821 64h-.8372-15.1986v128h16.0358z"/><path d="m-64 256v-64z"/><path d="m-56 256h-8v-64h8z"/><path d="m-608 704h32z"/><path d="m-672 704h64 32-64-64z"/><path d="m-704 704h32z"/><path d="m-608 704h-64v192h64z"/><path d="m-672 704h-32v64 128h32z"/><path d="m-928 544v64z"/><path d="m-864 608v-64z"/><path d="m-864 544h-64v64h64z"/><path d="m-1008-768h46.8448v-64h-48.0578v64z"/><path d="m-384-288v-31.6534z"/><path d="m-256-288v-31.6534h-128v31.6534 16.4043h128z"/><path d="m-704-608v-31.4245z"/><path d="m-576-608v-31.4245h-128v31.4245 16.4604h128z"/><path d="m-1024-608v-31.4245h-64v47.8849h64z"/><path d="m-448 56h-64z"/><path d="m-448 64h47.018z"/><path d="m-512 56v8h64v-8z"/><path d="m-448 56v8z"/><path d="m-512 64v-8z"/><path d="m-448 64h-64 1.7266 61.2337z"/><path d="m-768.9242-576h48.0577.6875 16.179z"/><path d="m-768.9242-576h64.9242-96z"/><path d="m-510.2734-576h61.2337 65.0397-192z"/><path d="m-704-608v-31.4245-64.691-63.8845z"/><path d="m-704-704.1155v-48.0578-15.8267z"/><path d="m-704-608v32-15.5396z"/><path d="m-320-832h-32z"/><path d="m-576-576v-31.868-.132 16.4604z"/><path d="m-576-768v15.8267 48.0578z"/><path d="m-576-639.4245v31.4245z"/><path d="m-320-576v-192h-32-32v192z"/><path d="m-352-832h-224v24 40h192 32z"/><path d="m-320-768v-32-32h-32v64z"/><path d="m-384-768v160.132 31.868z"/><path d="m-320-800v32 192z"/><path d="m-576-639.4245v-64.691h-128v64.691z"/><path d="m-576-704.1155v-48.0578h-128v48.0578z"/><path d="m-1088-704.1155v-48.0578.3523 47.821 64 47.821.6394-47.8849z"/><path d="m-1008-768h-1.213-14.787z"/><path d="m-961.1552-768h-46.8448z"/><path d="m-704-768h-16.179-.6875-48.0577z"/><path d="m-784-768h-112-65.1552-46.8448 208z"/><path d="m-896-768h112 15.0758v-64-.9242l-31.0758-31.0758h-128l-32 32z"/><path d="m-961.1552-768h65.1552l-64-64h-1.1552z"/><path d="m-961.1552-832h1.1552-47.821-1.392z"/><path d="m-768.9242-832.9242v.9242h.9242z"/><path d="m-768.9242-768h48.0577v-64h-47.1335-.9242z"/><path d="m-1024-768v15.8267 48.0578z"/><path d="m-1024-639.4245v31.4245z"/><path d="m-1024-576v-32 16.4604z"/><path d="m-1024-704.1155h-64v64.691h64z"/><path d="m-1152-320v-128 144.25z"/><path d="m-1024 272v-80z"/><path d="m-1024-128v-32-47.9643-.0357 48 128z"/><path d="m-1024-431.9643v111.9643 80 32 .0357-.0357-112-64z"/><path d="m-416 192h-33.0397-61.2337-65.7266-64 32z"/><path d="m-416 192h160-144.179-.803-48.0577z"/><path d="m-576 192h65.7266-47.8849-1.6627z"/><path d="m-704 192h64 64-32-16-16z"/><path d="m-47.8845-416 .0383.1538 7.9452 31.8462 7.901 31.6694.0825.3306z"/><path d="m-256-464v-16z"/><path d="m-256-448v15.7112 48.0578z"/><path d="m-256-319.6534v31.6534z"/><path d="m-256-256v-32 16.4043z"/><path d="m-256-480h80 16z"/><path d="m-256-480h96z"/><path d="m-32-352v64 32z"/><path d="m-31.9175-352h-.0825z"/><path d="m-64-128h-15.3093-47.8849z"/><path d="m-192.231-128h-48.0578-15.7112z"/><path d="m-192.231-256h65.0368 95.1942-224z"/><path d="m-256-256h15.7112 48.0578z"/><path d="m-160-480v.0825z"/><path d="m-47.8845-416h-.1155z"/><path d="m-96-464v.0495z"/><path d="m-48-416-48-48z"/><path d="m-160-479.9175 64 15.967z"/><path d="m-192.231-128h65.0368v-128h-65.0368z"/><path d="m-192.231-256h-48.0578v128h48.0578z"/><path d="m-510.2734-256h61.2337 65.0397-128-64z"/><path d="m-576-256h16.179 1.6627 47.8849z"/><path d="m-576-319.6534v48.0577 15.5957z"/><path d="m-576-448v15.7112 48.0578z"/><path d="m-510.2734-448h-47.8849-1.6627-16.179z"/><path d="m-384-448h-16.179-.803-48.0577z"/><path d="m-449.0397-576h-61.2337v128h61.2337z"/><path d="m-510.2734-576h-47.8849v128h47.8849z"/><path d="m-384-256v-15.5957-16.4043z"/><path d="m-384-288v-31.6534-64.5776-63.769 64 64z"/><path d="m-256-319.6534v-64.5776h-128v64.5776z"/><path d="m-256-384.231v-48.0578h-128v48.0578z"/><path d="m-961.1552-448h-48.0578-14.787z"/><path d="m-800-448h-161.1552-62.8448z"/><path d="m-800-448h31.0758v-128h-31.0758-161.1552v128z"/><path d="m-768.9242-448h48.0577v-128h-48.0577z"/><path d="m-961.1552-576h-48.0578v128h48.0578z"/><path d="m-704-319.6534v-64.5776-63.769 64 64 64z"/><path d="m-576-384.231h-128v64.5776h128z"/><path d="m-576-384.231v-48.0578h-128v48.0578z"/><path d="m-704 64v96-24-16z"/><path d="m-449.0397-256h-61.2337v64h61.2337z"/><path d="m-510.2734-256h-47.8849v64h47.8849z"/><path d="m-449.0397 64h-61.2337v128h61.2337z"/><path d="m-510.2734 64h-1.7266-46.1583v128h47.8849z"/><path d="m-704-239.8929-15.9821 31.8929z"/><path d="m-896 0 16 16v-.4643l-7.7852-15.5357-8.2148-16.3929z"/><path d="m-896 64h48v-16l-32-32-16-16z"/><path d="m-848 48v16h32v-.9128l-32-16.0357z"/><path d="m-768 192h64v-32-96h-112-32-48v32 96z"/><path d="m-864-128h-16v15.8214.1786z"/><path d="m-896-128h16 16l16-16v-16h-125.8214-50.1786v32z"/><path d="m-896 64v-64-16.3929-15.6071-48.25-47.75h-128v96 128h128z"/><path d="m-1024 96v96h32 32 32 16 16v-96z"/><path d="m-880-112.1786v-15.8214h-16v47.75z"/><path d="m-1024-207.9643v47.9643l16.0119-16.0119z"/><path d="m-973.8214-160-33.4275-16.7511-.7392.7392-16.0119 16.0119z"/><path d="m-816-159.0872v-.9128h-32v16 .9485z"/><path d="m-848-160h32 33.75-49.75-141.8214z"/><path d="m-750.3214-176h-1.6786z"/><path d="m-1007.9881-176.0119.7392-.7392z"/><path d="m-880-112.1786v.1786z"/><path d="m-848-144v.9485z"/><path d="m-864-128-16 16 32-32z"/><path d="m-896-16.3929v-15.6071z"/><path d="m-704 64h-112z"/><path d="m-848 48v-.9485z"/><path d="m-880 15.5357v.4643z"/><path d="m-848 48-16-16-16-16z"/><path d="m-960 286.9262v1.0738z"/><path d="m-640 640v64h64 128v-48-80h-192z"/><path d="m-928 318.8571 16 31.9286v-158.7857h-16z"/><path d="m-960 286.9262v1.0738l32 32v-1.1429-126.8571h-32z"/><path d="m-768 384v-192h-128-16v158.7857 33.2143z"/><path d="m-640 352v-160h-64-64v192 32h128z"/><path d="m-768 416v64 160h128v-64-160z"/><path d="m-768 640v64h64 64v-64z"/><path d="m-399.1071 704 31.1071-15.5884v-.4116-32h-80v48z"/><path d="m-448 656h80 31.0515l16.9485-33.8214v-46.1786h-96-32z"/><path d="m-336 656h-.9485-31.0515v32z"/><path d="m-320 576h-32-64z"/><path d="m-640 352v64 160-160z"/><path d="m-336.9485 656h.9485z"/><path d="m-368 688v.4116z"/><path d="m-336 656-32 32z"/><path d="m-368 688.4116-31.1071 15.5884z"/><path d="m-912 350.7857v33.2143z"/><path d="m-928 318.8571 16 31.9286z"/><path d="m-960 288 32 32z"/><path d="m-768 416v-32 96z"/><path d="m-960 192h-32v78.8904l32 16.0358z"/><path d="m-1024 272h32v-1.1096-78.8904h-32z"/><path d="m-992 270.8904 32 16.0358z"/><path d="m-1024 272h32z"/><path d="m-1152-448h128z"/><path d="m-1037.6786-240h-2.3751z"/><path d="m-1024-431.9643v-16.0357h-128v128h64 32 32z"/><path d="m-1069.6072-256 13.6072 6.8188v-6.8188z"/><path d="m-1024-240v-80h-32v64 6.8188l18.3214 9.1812z"/><path d="m-1135.1534-272.8465 47.1534-47.1535h-64v16.25l15.9404 31.8096z"/><path d="m-1056-320h-32l-47.1534 47.1535 33.6176 16.8465h31.9286 13.6072z"/><path d="m-1135.1534-272.8465 33.6176 16.8465z"/><path d="m-1152-303.75 15.9404 31.8096z"/><path d="m-1037.6786-240h-2.3751l16.0358 32h.0179v-32z"/><path d="m-1040.0537-240 16.0358 32z"/><path d="m-64 192h8z"/><path d="m-56 192h-8v64h8z"/><path d="m-64 256h8z"/><path d="m-56 256v-64z"/><path d="m-800-576h-128-96 62.8448z"/><path d="m-576-736.132v-31.868 63.8845 64.691 31.4245z"/><path d="m-384-768h-192z"/><path d="m-544.132-736.132h-31.868v128.132.132h31.868z"/><path d="m-544.132-736.132h128.264l31.868-31.868h-192v31.868z"/><path d="m-384-576v-31.868h-31.868-128.264-31.868v31.868z"/><path d="m-384-768-31.868 31.868v128.264h31.868z"/><path d="m-415.868-607.868v-128.264l-15.9671 15.967v96.3299z"/><path d="m-415.868-607.868-15.9671-15.9671h-96.3299l-15.967 15.9671z"/><path d="m-800-768h-208-16l16 16h208z"/><path d="m-784-752h64l16-16h-80-16v16z"/><path d="m-704-608v-160l-16 16v160l16 16z"/><path d="m-1008-752-16-16v160 32l16-16z"/><path d="m-800-576h96l-16-16h-64-144v16z"/><path d="m-928-592h-80l-16 16h96z"/><path d="m-720-752v160z"/><path d="m-784-752h-16-208z"/><path d="m-720-592h-64z"/><path d="m-704-768h-64.9242-15.0758z"/><path d="m-1024-768v63.8845 64.691 31.4245z"/><path d="m-576 512v-96h-32-32v160h64z"/><path d="m-640 192v160 64h32v-192-32z"/><path d="m-576 288v-32l-32-32v192h32z"/><path d="m-352 512h-32-192v64h160 64z"/><path d="m-320 576v-64h-32v64z"/><path d="m-352 512h32v-64-128h-64v192z"/><path d="m-80.6622 400h-15.3378v16l16-16z"/><path d="m-128 320v112h16l16-16v-16-80z"/><path d="m-256 448h112.3214l15.6786-7.8568v-8.1432-112h-96-32-64v128z"/><path d="m-128 440.1432 16-8.0179v-.1253h-16z"/><path d="m-384 256v-64h-32-192v32l32 32z"/><path d="m-384 256 64-64h-64z"/><path d="m-320 320h64v-128h-64l-64 64v32 32z"/><path d="m-224 96v-160h-32v128 96h32z"/><path d="m-256 160v32 128h32v-160z"/><path d="m-1024-208v.0357l16.0119 31.9524.7392-.7392 31.2489-31.2489z"/><path d="m-973.8214-160h141.8214v-16-32h-144l-31.2489 31.2489z"/><path d="m-832-384h-64v64h64z"/><path d="m-960-384h-64v64h64z"/><path d="m-750.3214-176h-1.6786-80v16h49.75z"/><path d="m-752-176 32-32h-80-32v32z"/><path d="m-800-320h-32-64-64-64v112h48 144 32z"/><path d="m-720-208h.0179l15.9821-31.8929v-16.1071-64h-64-32v112z"/><path d="m-800-448h-224v16.0357 47.9643h64 64 64 32z"/><path d="m-768-384h64v-64h-96v64z"/><path d="m-704-384h-64v64h64z"/><path d="m-512-320v-64h-64v128h64z"/><path d="m-96-128h-160v64h32 128z"/><path d="m-384-256v-32-32h-64-64v64z"/><path d="m-512-384h64 64v-64h-192v64z"/><path d="m-384-384h-64v64h64z"/><path d="m-224-288v-160h-32v160z"/><path d="m-64-32v-96h-32v64 160h32z"/><path d="m-96 96v224h32v-64-64-96z"/><path d="m-96 320v80h15.3378l16.6622-33.25v-46.75z"/><path d="m-32-256v-32h-32-160-32v32z"/><path d="m-48-416 .1538.1538-.0383-.1538z"/><path d="m-32-352v-.3306l-7.901-31.6694h-24.099v48 48h32z"/><path d="m-32-352.3306v.3306h.0825z"/><path d="m-64-336v-48h-16z"/><path d="m-96-463.9505v63.9505l16 16h16 24.099l-7.9452-31.8462-.1538-.1538-48-48z"/><path d="m-176-480h-80v16 16h32 48z"/><path d="m-160-464-16-16v32 .3333l48 16v-.3333z"/><path d="m-176-480 16 16v-15.9175-.0825z"/><path d="m-160-479.9175v15.9175l32 32 32 32v-63.9505z"/><path d="m-96-64h-128z"/><path d="m-224-448v160z"/><path d="m-64-288h-64-48-48z"/><path d="m-128-432v.3333z"/><path d="m-224-448h48z"/><path d="m-448-384h-64z"/><path d="m-512-320h64z"/><path d="m-768-384h-32-32z"/><path d="m-832-320h32 32z"/><path d="m-768-384v64z"/><path d="m-896-384h-64z"/><path d="m-960-320h64z"/><path d="m-896-384v64z"/><path d="m-384 256v32z"/><path d="m-96-64v160z"/><path d="m-224 96v64 160z"/><path d="m-384 512h-192z"/><path d="m-576 288v128 96z"/><path d="m-1024-448v16.0357z"/><path d="m-384 192h64 64-160z"/><path d="m-256-448v-16 16 63.769 64.5776 31.6534z"/><path d="m-256-64v-64 32 128 32z"/><path d="m-256 160v-96 64 64z"/><path d="m-32-352h.0825z"/><path d="m-96-128h32-63.1942-65.0368-63.769z"/><path d="m-160-479.9175v-.0825z"/><path d="m-48-416-48-48z"/><path d="m-64-32v128 96z"/><path d="m-576-384v-64 63.769 64.5776 63.6534z"/><path d="m-384-448h-65.0397-61.2337-65.7266z"/><path d="m-704-448h-64.9242-31.0758z"/><path d="m-720-208h.0179z"/><path d="m-782.25-160 31.9286-16z"/><path d="m-1024-207.9643 16.0119 31.9524z"/><path d="m-752-176 32-32z"/><path d="m-1007.2489-176.7511 33.4275 16.7511z"/><path d="m-64 256v-64z"/><path d="m-320 576v-64z"/><path d="m-320 512v-64z"/><path d="m-320 448h64z"/><path d="m-80.6622 400 16.6622-33.25z"/><path d="m-96 416-16 16 32-32z"/><path d="m-416 576h-160-64 192z"/><path d="m-640 192v160z"/><path d="m-1008-752v160z"/><path d="m-720-752h-64z"/><path d="m-784-592h-224 80z"/><path d="m-512-384v64z"/><path d="m-64-288v-48z"/><path d="m-64-336-16-48z"/><path d="m-80-384-16-16-32-32z"/><path d="m-176-447.6667v-.3333z"/><path d="m-128-431.6667-48-16z"/><path d="m-448-320v-64z"/><path d="m-448-384h-64v64h64z"/><path d="m-832-384v64z"/><path d="m-768-384h-64v64h64z"/><path d="m-960-384v64z"/><path d="m-896-384h-64v64h64z"/><path d="m-528.165-623.8351v-96.3299l-15.967-15.967v128.264z"/><path d="m-431.8351-720.165 15.9671-15.967h-128.264l15.967 15.967z"/><path d="m-384 288v224-192z"/><path d="m-224 320h96 32z"/><path d="m-96 96v224z"/><path d="m-224-64v160z"/><path d="m-384 256h-192z"/><path d="m-576 256v32z"/></g></defs><path d="m-1289-1225h1650v2258h-1650z" fill="#fff"/><g stroke="#000"><use fill="none" stroke-miterlimit="0" stroke-width="15" xlink:href="#a"/><use fill="#fff" xlink:href="#a"/></g></svg>