<svg viewBox="-988 -716 2360 1688" xmlns="http://www.w3.org/2000/svg" xmlns:xlink="http://www.w3.org/1999/xlink"><defs><g id="a"><path d="m304-272v32h32v-32z"/><path d="m816 752v32h32v-32z"/><path d="m832 0v-64-112h32 96l48 48v176h-176z"/><path d="m1008 48v16l-48 48h-96-32v-64z"/><path d="m640-128v-48h128v112 64 48h-128z"/><path d="m768 48v64h-128v-48-16z"/><path d="m768-176h64v112h-64z"/><path d="m768-64h64v64h-64z"/><path d="m768 48v-48h64v48 64h-64z"/><path d="m864-176h-32-64-128v-16h224z"/><path d="m960 112v16h-96v-16z"/><path d="m960-176v-16l64 64h-16z"/><path d="m1008 48v-176h16v192h-16z"/><path d="m1008 64h16l-64 64v-16z"/><path d="m640-128h-128z"/><path d="m280-240v24h80v-24z"/><path d="m280-272v32h24v-32z"/><path d="m336-240h24v-32h-24z"/><path d="m280-296v24h80v-24z"/><path d="m304-272h32z"/><path d="m304-240v-32z"/><path d="m336-240h-32z"/><path d="m336-272v32z"/><path d="m112-560h-64l-8-16h88z"/><path d="m-112-560h-64l-16-16h88z"/><path d="m16-576v16h-96v-16z"/><path d="m16-560v-16h-8z"/><path d="m-224-208v-16-32h96l-48 48z"/><path d="m-176-160v-48l48-48v32 32 32 96 32h-48z"/><path d="m-128-32v32 48h-48v-80z"/><path d="m-128 48v-48h64v48z"/><path d="m96-160h-160-64v-32h224z"/><path d="m112-192v32h-16v-32z"/><path d="m112-112h-176v-48h160 16z"/><path d="m96-224h-224v-32h64 160z"/><path d="m128-256h32v32h-32-32v-32z"/><path d="m96-192h-224v-32h224z"/><path d="m128-224v32h-16-16v-32z"/><path d="m-128 0v-32-32h64v64z"/><path d="m-128-64v-96h64v48 48z"/><path d="m-128-256h-96v-96-16h48 112v112z"/><path d="m-176-384v-64-96h64 32 16v160 16h-112z"/><path d="m-112-544h-64v-16h64z"/><path d="m-64-368v-16h176 16v16 16 96h-32-160z"/><path d="m128-352h32v96h-32z"/><path d="m-64-544h80 32 64v96 64h-176z"/><path d="m112-544h-64v-16h64z"/><path d="m16-560v16h-80-16v-16z"/><path d="m448-96h64v128h-64z"/><path d="m160 48h-160-64v-48-64-48h176 16 32z"/><path d="m384 48h-160-64v-160h192 32z"/><path d="m448-112v16 128 16h-64v-160z"/><path d="m368-280-48-24h48z"/><path d="m320-304 48 24v72h-176l-32-16v-32-96h64z"/><path d="m112-544v-16l16-16v128h-16z"/><path d="m128-384h-16z"/><path d="m-176-448v64h-16v-64z"/><path d="m128-368v-16z"/><path d="m-176-384v16l-8-8-8-8z"/><path d="m864-192h-224z"/><path d="m960-192 64 64z"/><path d="m1024-128v192z"/><path d="m960 128h-96z"/><path d="m1024 64-64 64z"/><path d="m448 32v24-8z"/><path d="m512-128h96 32z"/><path d="m512-104v8z"/><path d="m368-280v-24 32 32 32z"/><path d="m368-208h-96-16-16-48z"/><path d="m384 48h64v8 8h-224v-16z"/><path d="m352-112h-192-32v-16h32 192z"/><path d="m112-160v-32h16v64l-16 16z"/><path d="m128-112h-16l16-16z"/><path d="m-176-160v128 80l-16 16v-64-64-64-32z"/><path d="m-224-368v-8z"/><path d="m-176-208-8 8h-40v-8z"/><path d="m640-192v16 48z"/><path d="m640 64v48 16z"/><path d="m960-192v16h-96v-16z"/><path d="m864 128h-224v-16h128 64 32z"/><path d="m512 64h128z"/><path d="m512 56v-24-128-8-24h128v176 16h-128z"/><path d="m-80-576v1h96v-1z"/><path d="m280-296h80z"/><path d="m280-216v-80z"/><path d="m360-296v80z"/><path d="m360-216h-80z"/><path d="m280-216v-80h80v80z"/><path d="m-184-376 8 8h-48v-8z"/><path d="m448-96v-16-8z"/><path d="m448 32v32-8z"/><path d="m512 40v-8 24z"/><path d="m512-96v-8z"/><path d="m512-120v-8 24z"/><path d="m516-120h-4v16h4z"/><path d="m512 40v16h4v-16z"/><path d="m512-96h-64z"/><path d="m448 32h64z"/><path d="m-256-200v-8h32v8z"/><path d="m-256-208v-16h32v16z"/><path d="m-256-368v-8h32v8z"/><path d="m-256-368h32v16 128h-32z"/><path d="m-224-200h40l-8 8h-32-32v-8z"/><path d="m-224-352v96 32z"/><path d="m-224-368v16z"/><path d="m-224-208v8z"/><path d="m-224-224v16z"/><path d="m-72-576h8 8 48 8 8 8-96z"/><path d="m-72-576h-8v16z"/><path d="m128-576v64 64z"/><path d="m-192-512v-64l16 16v16 96h-16z"/><path d="m-104-544h-8v-16l8-16z"/><path d="m40-576 8 16v16h-8z"/><path d="m40-544h8-32-8z"/><path d="m-72-544h-8-32 8z"/><path d="m-72-576-8 16v16h8z"/><path d="m8-544h8v-16l-8-16z"/><path d="m128-448v64h-16v-64z"/><path d="m-192-384 8 8h-40-32v-8z"/><path d="m448-128v32-24z"/><path d="m512 40v16z"/><path d="m512 40v-8z"/><path d="m512-120v-8z"/><path d="m516-104h-4z"/><path d="m516-120v16z"/><path d="m512-120h4v16h-4z"/><path d="m512-120h4z"/><path d="m512 40h4z"/><path d="m516 56h-4z"/><path d="m516 40v16z"/><path d="m512 56v-16h4v16z"/><path d="m128-192h-16z"/><path d="m368-272v-32z"/><path d="m368-208v-32z"/><path d="m358-272v32h10v-32z"/><path d="m448 64h-64-64-64-32z"/><path d="m224 64h-224v-16h160 64z"/><path d="m128-192v64z"/><path d="m384-128h-32-192 96 64z"/><path d="m384-128h64v8 8h-64-32v-16z"/><path d="m-288-208v-16-128-16-16h32v192h-32z"/><path d="m-256-192h32-64z"/><path d="m-192-64v64z"/><path d="m-256-384v8 8 144 16 8 8z"/><path d="m0 64h-128-64l16-16h48 64 64z"/><path d="m-192-192 8-8 8-8v48h-16z"/><path d="m356-272v32h4v-32z"/><path d="m-192-384h-64-32z"/><path d="m448-96h64z"/><path d="m512 32h-64z"/><path d="m-288-192h64-96z"/><path d="m-320-368v-16h32v16z"/><path d="m-320-368h32v16 128h-32z"/><path d="m-320-192v-16h32v16z"/><path d="m-320-208v-16h32v16z"/><path d="m-288-224v16z"/><path d="m-288-208v16z"/><path d="m-288-352v128z"/><path d="m-288-384v16z"/><path d="m-288-368v16z"/><path d="m32-576h-16 80 32-88z"/><path d="m-96-544h-8v-32h8z"/><path d="m32-576h8v32h-8z"/><path d="m32-544h8-32-8z"/><path d="m-64-544h-8-32 8z"/><path d="m-64-576h-8v32h8z"/><path d="m0-544h8v-32h-8z"/><path d="m-192-384h-96-32z"/><path d="m-320-384v16 144 16 16z"/><path d="m960-192h-96z"/><path d="m864-192h-224 64 24 16 112z"/><path d="m960-192 16 16 16 16 32 32z"/><path d="m1024-128v32 160z"/><path d="m960 128h-96z"/><path d="m864 128h-224z"/><path d="m1024 64-64 64z"/><path d="m368-240v-32-32 96z"/><path d="m358-272h10z"/><path d="m368-304h-48z"/><path d="m368-240h-10z"/><path d="m358-240v-32z"/><path d="m358-240v-32h10v32z"/><path d="m-352-192h32z"/><path d="m-352-208v-16-128-16-16h32v192h-32z"/><path d="m356-272h4z"/><path d="m360-240h-4z"/><path d="m356-240v-32h4v32z"/><path d="m360-272v32z"/><path d="m356-240v-32z"/><path d="m-192-384h-128-32z"/><path d="m-384-368v-16h32v16z"/><path d="m-384-368h32v16 128h-32z"/><path d="m-384-208v-16h32v16z"/><path d="m-384-192v-16h32v16z"/><path d="m-352-224v16z"/><path d="m-352-208v16z"/><path d="m-352-352v128z"/><path d="m-352-384v16z"/><path d="m-352-368v16z"/><path d="m-192-576h32 80-16-8z"/><path d="m128-512v24 16 24z"/><path d="m-192-576v64z"/><path d="m-192-448v-24-16-24z"/><path d="m128-576h-32v32 32h32z"/><path d="m24-544h-8v-32h16v32z"/><path d="m-56-544h48v-32h-48z"/><path d="m-56-544h-8-32 8z"/><path d="m24-544h8-32-8z"/><path d="m-56-576h-8v32h8z"/><path d="m-8-544h8v-32h-8z"/><path d="m-384-384h-32z"/><path d="m128-448v64z"/><path d="m-192-448v64z"/><path d="m128-384v-64h-32v64z"/><path d="m-192-448v64h32v-64z"/><path d="m640 64v64z"/><path d="m640-160v-32 64z"/><path d="m653 64h19-16z"/><path d="m928-128h-64-160z"/><path d="m928-176h48l-16-16h-88v16z"/><path d="m928-176h-56-16-112-16-24v16h160 64z"/><path d="m992-160-16-16h-48v16z"/><path d="m728-192v16h16v-16z"/><path d="m704-176h24v-16h-24z"/><path d="m744-176h112v-16h-112z"/><path d="m864-192h-8v16h16v-16z"/><path d="m640-160h64v-16-16h-64z"/><path d="m864-160h-160-64v32h64 160z"/><path d="m992-160h-64-64v32h64 96z"/><path d="m872-192h88-96z"/><path d="m704-128h-64v192h13l51-64z"/><path d="m672 64h-19-13v64h32z"/><path d="m960 64h-224v64h128 96z"/><path d="m1024 64h-64v64z"/><path d="m736 64h-64v64h64z"/><path d="m864 128h-128-64-32z"/><path d="m512 64v-8z"/><path d="m640-128h-32v192h32z"/><path d="m608-128v32 128 32z"/><path d="m608-128h-96v8 16 8h96z"/><path d="m640 64h-32-96z"/><path d="m128-224v8 24z"/><path d="m128-320v-32 8z"/><path d="m128-384v24 8-16z"/><path d="m160-224h-32z"/><path d="m160-352h-32z"/><path d="m160-352h-32v32 64 32h32z"/><path d="m128-256v-64h-32v64z"/><path d="m224 64h-96-64-64z"/><path d="m224 64h32-56-16-24-32z"/><path d="m448-128h-64z"/><path d="m256-128h-96 24 16z"/><path d="m384-128h-64 24 16z"/><path d="m128-128h32z"/><path d="m384-128v16 16z"/><path d="m448-128h-64v32h64z"/><path d="m256-128v16 16z"/><path d="m320-128h-64v32h64z"/><path d="m128-128v-64h-32v64z"/><path d="m-128 64h-64z"/><path d="m0 64h-64-64z"/><path d="m-192-192v32 32z"/><path d="m-192-64v-24-16-24z"/><path d="m-192-64v64h32v-64z"/><path d="m-416-192h32z"/><path d="m-384-384v16 144 16 16z"/><path d="m-416-192v-16-16-128-16-16h32v192z"/><path d="m-80-575v-1z"/><path d="m-80-575v-1h96v1z"/><path d="m16-576v1z"/><path d="m-80-576h96z"/><path d="m16-575h-96z"/><path d="m512-120v16z"/><path d="m-384-384h-32-32z"/><path d="m-416-192h32 64-128z"/><path d="m-320-192h-64 32z"/><path d="m-416-384v16z"/><path d="m-416-224v16z"/><path d="m-416-352v128z"/><path d="m-416-208v16z"/><path d="m-416-368v16z"/><path d="m-448-368h32v16 128h-32z"/><path d="m-448-192v-16h32v16z"/><path d="m-448-208v-16h32v16z"/><path d="m-448-368v-16h32v16z"/><path d="m792 784v24h80v-24z"/><path d="m792 752v32h24v-32z"/><path d="m848 784h24v-32h-24z"/><path d="m792 728v24h80v-24z"/><path d="m816 784v-32z"/><path d="m816 752h32z"/><path d="m848 752v32z"/><path d="m848 784h-32z"/><path d="m1232-64v128z"/><path d="m96-448h-32z"/><path d="m64-512h-224 192z"/><path d="m-160-576v32h80v-32z"/><path d="m64-544h-48-96-80v32h224z"/><path d="m96-512v-32h-32v32z"/><path d="m16-544h48 32v-32h-80z"/><path d="m-80-576v32h-8-8v-32z"/><path d="m16-544h8-32-48-32 8z"/><path d="m-160-544v-32h-32v64h32z"/><path d="m816 816h64-32z"/><path d="m784 816h32z"/><path d="m-128 784h64v16h-80z"/><path d="m-256-384h-128-64-32 192z"/><path d="m-192-384h32z"/><path d="m-64-384h-96z"/><path d="m-256-384h64-160-32z"/><path d="m0-384h96v-64h-32-64z"/><path d="m0-448h-64v64h64z"/><path d="m-160-448v64h96v-64z"/><path d="m1200-128 5.3334 10.6667 2.6666 5.3333 24 48z"/><path d="m0-256v64-24-16z"/><path d="m0 784v16z"/><path d="m1224 80 8-16-32 64z"/><path d="m1152 176v16l-64 64v-16z"/><path d="m960 240h128v16h-48-80z"/><path d="m656 240h16 32v16h-64z"/><path d="m672 64h64z"/><path d="m880 64h-144 224z"/><path d="m1088-96v-32h112l32 64v128h-128-16z"/><path d="m960-128h64-96z"/><path d="m960-96v-30 10 180z"/><path d="m960-128v2 30z"/><path d="m1024-128h-64v32h64z"/><path d="m1024-96h-64v160h64z"/><path d="m704-128v128-112-5.3333z"/><path d="m928-128h-224v10.6667 5.3333h224z"/><path d="m736 192v48h-32-32v-48z"/><path d="m736 128v64h-64v-64z"/><path d="m960 240h-64-128-32v-48-64h160 64z"/><path d="m1120 128h32v48l-64 64h-128v-112z"/><path d="m656 128v-48h16v48 64 48h-16z"/><path d="m672 80h208 16v48h-160-64z"/><path d="m896 80h208 16v48h-160-64z"/><path d="m1120 80h104l-24 48h-48-32z"/><path d="m880 80h-208-16v-16h16 64 144z"/><path d="m1104 80h-208-16v-16h80 128 16z"/><path d="m1232 64-8 16h-104-16v-16z"/><path d="m960 240v16z"/><path d="m1152 128h48z"/><path d="m896 240v16z"/><path d="m896 240h64z"/><path d="m512-96v56 16 56z"/><path d="m608-96h-96v128h96z"/><path d="m608 32h-96v8 16 8h96z"/><path d="m160-320v-32 128z"/><path d="m240-320h-80v96l32 16h48z"/><path d="m256-304v-16h-16v112h16z"/><path d="m240-320h16 32l-64-32h-64v32z"/><path d="m272-304h48l-32-16h-32v16z"/><path d="m256-208h16z"/><path d="m272-304h-16z"/><path d="m256-304v96h16v-96z"/><path d="m224-352h-64z"/><path d="m288-320 32 16-96-48z"/><path d="m160-224 32 16z"/><path d="m0-320v64h96v-64z"/><path d="m384-96v128z"/><path d="m384 32v16 16z"/><path d="m448-96h-64v128h64z"/><path d="m448 32h-64v32h64z"/><path d="m256-96v128z"/><path d="m256 32v16 16z"/><path d="m320-96h-64v128h64z"/><path d="m320 32h-64v32h64z"/><path d="m128-128h-32z"/><path d="m64-128h-64z"/><path d="m64-128h32v-64h-96v64z"/><path d="m64-128v160z"/><path d="m64 32v16 16z"/><path d="m96-128h-32v160h64v-160z"/><path d="m64 32v32h64v-32z"/><path d="m896 256v-16z"/><path d="m768 240v16z"/><path d="m768 240h128v16h-128z"/><path d="m896 480v-160h16v112 112h-16z"/><path d="m912 544v112h-16v-48-64z"/><path d="m752 448v-128h16v160 32l-16-16z"/><path d="m896 256v48 16 160h-128v-160-16-48z"/><path d="m896 480v64h-32-64-32v-32-32z"/><path d="m800 544h64v64h-64z"/><path d="m592 640h-144-16-64v-128h80 144z"/><path d="m672 512h96v32 64 32h-96-80v-128z"/><path d="m672 512h-80-144v-16h224z"/><path d="m752 496 16 16h-96v-16z"/><path d="m864 544h32v64h-32z"/><path d="m768 544h32v64h-32z"/><path d="m880 688h16l-16 32z"/><path d="m880 688h-96-16v-16-16-16-32h32 64 32v48 32z"/><path d="m768 688h16v32z"/><path d="m784 720v-32h96v32 64h-96z"/><path d="m672 656h-224v-16h144 80z"/><path d="m768 640v16h-32-32-32v-16z"/><path d="m160 416v-64-80h80 128v16 32 128 48h-208z"/><path d="m368 496v16 128 64 16h-208v-208-16z"/><path d="m368 720v32h-48-64-96v-16-16z"/><path d="m256 752-96 24v-24z"/><path d="m16 320v-32-16h144v80h-32-64-48z"/><path d="m64 416v-64h64v64z"/><path d="m16 352h48v64h-48z"/><path d="m128 416v-64h32v64z"/><path d="m16 448v-32h48 64 32v80 16h-144z"/><path d="m16 512h144v208 16h-160v-224z"/><path d="m160 736v16 24l-32 8h-128v-48z"/><path d="m912 320h16v64 48h-16z"/><path d="m896 256v48z"/><path d="m896 320v-16z"/><path d="m896 656v16 16z"/><path d="m672 496h-224v-16h224z"/><path d="m752 448v48l-16-16v-32z"/><path d="m736 656v16h-32v-16z"/><path d="m768 672v16z"/><path d="m240 272h-80-144v-16h224z"/><path d="m368 496v-48 64z"/><path d="m368 448h16z"/><path d="m368 320h16v128h-16z"/><path d="m16 288v32z"/><path d="m16 512h-16z"/><path d="m320 752v16z"/><path d="m368 640v64z"/><path d="m320 752h48l16 16h-64z"/><path d="m368 720v-16h16v64l-16-16z"/><path d="m160 776 96-24v16l-96 24-32 8v-16z"/><path d="m-224-192h32z"/><path d="m-160-192h-32z"/><path d="m-224-192h32-32-96z"/><path d="m-64-192h-96z"/><path d="m-64-384v192h64v-64-64-64z"/><path d="m-64-384v192z"/><path d="m0-192h-64-96v64h96 64z"/><path d="m-160-192h-32v64h32z"/><path d="m-64-64v-64 24 16z"/><path d="m-64 32v32z"/><path d="m-64-128v64 64 32h64v-160z"/><path d="m-64 32v32h64v-32z"/><path d="m-64-64h-96z"/><path d="m-64 0v-64h-96v64z"/><path d="m-16 736v-32-96-32-8-56h16v224z"/><path d="m0 784h-16v-48h16z"/><path d="m-128 538.6667 80-26.6667h32v56h-112z"/><path d="m-16 576v32h-128v-32z"/><path d="m-144 608h128v96h-128-32v-96z"/><path d="m-128 744v-8h112v48h-48-64z"/><path d="m-144 568h16 112v8h-128-32v-8z"/><path d="m-16 704v32h-112-16v-32z"/><path d="m-176 736h32 16v8h-16-32z"/><path d="m-64 784h48 16z"/><path d="m-128 568h-16v-40l16 10.6667z"/><path d="m-128 744h-16z"/><path d="m-448-192h128-160z"/><path d="m-448-384v16 144 16 16z"/><path d="m-480-192v-16-16-128-16-16h32v192z"/><path d="m784 784v32z"/><path d="m880 784v32h-64-32v-32z"/><path d="m-176 608v96h1v-96z"/><path d="m1088-126v30 160-180z"/><path d="m1088-126v-2 32z"/><path d="m792 728h80z"/><path d="m872 728v80z"/><path d="m792 808v-80z"/><path d="m872 808h-80z"/><path d="m792 808v-80h80v80z"/><path d="m-192-384h-64z"/><path d="m-288-384h-192-32 96 96z"/><path d="m-512-192v-16h32v16z"/><path d="m-480-352v128h-32v-144h32z"/><path d="m-512-368v-16h32v16z"/><path d="m-512-208v-16h32v16z"/><path d="m-480-192h160-80-112z"/><path d="m-480-208v16z"/><path d="m-480-352v128z"/><path d="m-480-384v16z"/><path d="m-480-368v16z"/><path d="m-480-224v16z"/><path d="m488-40h-16v16h16z"/><path d="m472-40v16z"/><path d="m1232-64v16 96 16z"/><path d="m64-448h-32-192 96 64z"/><path d="m96-448h32z"/><path d="m-192-448h32z"/><path d="m32-512h-192-32v24h16 208z"/><path d="m48-488h64 16v-24h-32-32-32v24z"/><path d="m48-488h-16-208v16h208 16z"/><path d="m112-472v-16h-64v16z"/><path d="m32-472h-208-16v24h32 192z"/><path d="m64-448h32 32v-24h-16-64-16v24z"/><path d="m112-488v16h16v-16z"/><path d="m-192-488v16h16v-16z"/><path d="m-192-512h32z"/><path d="m128-512h-32z"/><path d="m96-512h-32z"/><path d="m880 816h-32z"/><path d="m0 800v-16h128v16z"/><path d="m128-384h-32z"/><path d="m96-384h-96z"/><path d="m-224-384h32-64-32z"/><path d="m1208-112-2.6666-5.3333z"/><path d="m1208-112 24 48z"/><path d="m0-344v-16-24 64z"/><path d="m0-128v160z"/><path d="m0 64v-16-16z"/><path d="m1232 64-8 16-8 16-16 32z"/><path d="m1152 192-48 48-16 16z"/><path d="m653 64h3z"/><path d="m1205.3334-117.3333-5.3334-10.6667h-112v2 10 4h120z"/><path d="m704-117.3333v5.3333z"/><path d="m704 0-51 64z"/><path d="m1152 192v-16-48z"/><path d="m704 256v-16z"/><path d="m640 256v-128h16v112z"/><path d="m448-24v-16-56 128z"/><path d="m472-40h16z"/><path d="m512-96h-64v56h24 16 24z"/><path d="m472-40h-24v16h24z"/><path d="m512-40h-24v16h24z"/><path d="m512-24h-24-16-24v56h64z"/><path d="m488-24h-16z"/><path d="m488-40v16z"/><path d="m128-192h-32z"/><path d="m0-192h96z"/><path d="m272-304h96-48z"/><path d="m128-256v24 8z"/><path d="m96-256h-96z"/><path d="m128-256h-32z"/><path d="m112-360v16h16v-8-8z"/><path d="m0-344h112v-16h-112z"/><path d="m0-360h112 16v-24h-32-96z"/><path d="m0-320h96 32v-24h-16-112z"/><path d="m0-320h96z"/><path d="m96-320h32z"/><path d="m112-232h-112v16h112z"/><path d="m128-256h-32-96v24h112 16z"/><path d="m0-192h96 32v-24h-16-112z"/><path d="m112-232v16h16v-8-8z"/><path d="m64 64h-24-16-24z"/><path d="m384 64h-24-16-24z"/><path d="m40 64h24v-16h-24z"/><path d="m0 64h24v-16h-24z"/><path d="m64 32v-160h-64v160 16h24 16 24z"/><path d="m128 32v32h32v-16-160-16h-32z"/><path d="m24 48v16h16v-16z"/><path d="m184 48h-24v16h24z"/><path d="m344 48h-24v16h24z"/><path d="m384 48h-24v16h24z"/><path d="m256 48h-56v16h56z"/><path d="m360 48h-16v16h16z"/><path d="m200 48h-16v16h16z"/><path d="m256 32v-128-16h-56-16-24v160h24 16 56z"/><path d="m384 32v-128-16h-24-16-24v16 128 16h24 16 24z"/><path d="m184-128h-24v16h24z"/><path d="m256-128h-56v16h56z"/><path d="m200-128h-16v16h16z"/><path d="m384-128h-24v16h24z"/><path d="m344-128h-24v16h24z"/><path d="m360-128h-16v16h16z"/><path d="m128-128v160z"/><path d="m128 64v-32z"/><path d="m320-112v-16 32z"/><path d="m320-96v128z"/><path d="m320 48v-16 32z"/><path d="m928 576v-64z"/><path d="m928 448v64z"/><path d="m928 448v-16-48z"/><path d="m0 448v-128h16v32 64 32z"/><path d="m928 432v16 64 64 80h-16v-112-112z"/><path d="m448 480v16 16z"/><path d="m928 320h-16-16z"/><path d="m736 384v64z"/><path d="m736 384v-64h16v128h-16z"/><path d="m704 672h32-32-32z"/><path d="m704 480h32l16 16h-80v-16z"/><path d="m736 480h-32z"/><path d="m672 480h-224 64 64 64z"/><path d="m672 672h-224v-16h224z"/><path d="m704 672h-32v-16h32z"/><path d="m384 320h-16z"/><path d="m384 320v128z"/><path d="m384 768v-64 48z"/><path d="m384 704h-16z"/><path d="m160 792 96-24-48 12-32 8z"/><path d="m0 512h16z"/><path d="m-64 64h-64z"/><path d="m-64-384h-96-32-32v16 160 16h32 32 96z"/><path d="m-160-64h96v-24h-112-16v24z"/><path d="m-128 64h64v-32-32h-96-32v64z"/><path d="m-176-104h112v-24h-96-32v24z"/><path d="m-64-88v-16h-112v16z"/><path d="m-192-104v16h16v-16z"/><path d="m-224-384-16 16h16z"/><path d="m-224-192-16-16h-80v16z"/><path d="m-192-128h32z"/><path d="m-64-128h-96z"/><path d="m-64 32v-32z"/><path d="m-192-64h32z"/><path d="m-64 0h-96z"/><path d="m-192 0h32z"/><path d="m-192 64v-64z"/><path d="m-64 800h-64-16z"/><path d="m-176 696v-8-8-48-8-8-8 96z"/><path d="m-176 568v8 8 8 16-16z"/><path d="m-48 496v16l-80 26.6667-16-10.6667z"/><path d="m0 512h-16-32z"/><path d="m-64 800v-16z"/><path d="m-176 584v-8h32v8z"/><path d="m-144 568h16z"/><path d="m-144 568h-32z"/><path d="m-144 568h-32v24 8h32z"/><path d="m-144 728v8h-32v-8z"/><path d="m-144 696v8 32-8z"/><path d="m-144 584v-8 32 8z"/><path d="m-144 616v-8h-32v8z"/><path d="m-176 696v8h32v-8z"/><path d="m-144 800v-56h16v40z"/><path d="m-144 744h-32z"/><path d="m-640 48v-208h16 112v96 128h-128z"/><path d="m-640-176v-192-16h16v192 32h-16z"/><path d="m-624-384h112v192h-112z"/><path d="m-400-160h80v64 32h-192v-96z"/><path d="m-400-160h-112-112v-32h112 112z"/><path d="m-320-192v32h-80v-32z"/><path d="m-416-384h-96-112-16l16 16h208z"/><path d="m-320-384h-96v16h16 80z"/><path d="m-512-64v118.1538 9.8462z"/><path d="m-320-64-13.3333 160h-2.6667-176v-32-9.8462-118.1538z"/><path d="m-320-192v-16l-16 16z"/><path d="m-320-160v-32h-16v96h16z"/><path d="m-640-176v16 208h16v-224z"/><path d="m-512 64v-9.8462-6.1538h-112l-16 16z"/><path d="m-640 48v16l16-16z"/><path d="m-512-384v16 144 16 16z"/><path d="m816 806v10h32v-10z"/><path d="m816 804v4h32v-4z"/><path d="m960-116v-10-2h-32v16h32z"/><path d="m1088-128v-128 64 64 16-4z"/><path d="m1088-128v12 180h-128v-180-12z"/><path d="m848 806v10z"/><path d="m816 806h32z"/><path d="m960-160v-64-32h128v128h-128z"/><path d="m0 320v128-48-32z"/><path d="m0 800v-16z"/><path d="m704 256h-64z"/><path d="m656 64h-3z"/><path d="m1208-112h-120z"/><path d="m928-112h-224z"/><path d="m960 256v-16z"/><path d="m1152 128v64z"/><path d="m1200 128h-48z"/><path d="m768 240v16z"/><path d="m896 240v16z"/><path d="m960 240h-32-32z"/><path d="m656 128h-16z"/><path d="m656 64v16 48z"/><path d="m704 240v16z"/><path d="m704 240h32 32z"/><path d="m448 640v16 16z"/><path d="m448 512v-16-16z"/><path d="m896 304v16z"/><path d="m896 320h32z"/><path d="m768 320h-16-16z"/><path d="m768 304v16z"/><path d="m432 640h16z"/><path d="m368 288v-16-16 8z"/><path d="m368 320v-32z"/><path d="m368 448v64z"/><path d="m384 448h-16z"/><path d="m368 320h16z"/><path d="m0 448h16z"/><path d="m16 320v-32z"/><path d="m16 320h-16z"/><path d="m16 448v64z"/><path d="m0 512h16z"/><path d="m256 768v-16z"/><path d="m320 768v-16z"/><path d="m368 704h16z"/><path d="m368 640v64z"/><path d="m320 768h64z"/><path d="m256 752h64z"/><path d="m-48 512h48z"/><path d="m-48 512v-16z"/><path d="m-64 784v16z"/><path d="m0 784h-16-48z"/><path d="m960-224v-32z"/><path d="m1152-384-24-48 8-16 64 128h-16z"/><path d="m816 816h32 32-96z"/><path d="m1088-432h40l24 48h-64z"/><path d="m960-432h128v48h-16-112z"/><path d="m896-432h64v48h-240v-48z"/><path d="m720-384h-16v-64l16 16z"/><path d="m1200-128 8 16z"/><path d="m1088-384v32l-16-32z"/><path d="m1152-384 32 64v128h-16l-80-160v-32z"/><path d="m1184-320h16v128h-16z"/><path d="m1040 256h48z"/><path d="m1008 256h-48 80z"/><path d="m1200-128h-48z"/><path d="m1168-192h-16-64v-64-96z"/><path d="m1088-192h64v64h-64z"/><path d="m1152-192v64z"/><path d="m1088-128h64 48l8 16h-120z"/><path d="m720-128h-16z"/><path d="m704-320v96 32h-64v-128z"/><path d="m960-160v32z"/><path d="m960-224v64z"/><path d="m1088-352v96h-128v-64-64h112z"/><path d="m960-384v64h-32-208v-64z"/><path d="m832-160v-64h64v64z"/><path d="m720-192v-32h112v64h-112z"/><path d="m928-224h-32-64-112-16v-96h16 208z"/><path d="m960-320v64 32h-32v-96z"/><path d="m896-160v-64h32 32v64z"/><path d="m704-224h16v32h-16z"/><path d="m720-160h112 64 64v32h-32-208z"/><path d="m704-192h16-80z"/><path d="m960-128v12 4z"/><path d="m704-128h16 208v16h-224z"/><path d="m928-128h32v16h-32z"/><path d="m960-112h-32z"/><path d="m1008 252v4h32v-4z"/><path d="m816 816v-10z"/><path d="m848 806v10z"/><path d="m816 816v-10h32v10z"/><path d="m816 806h32z"/><path d="m368 256v16h-128v-16z"/><path d="m368 288v-24z"/><path d="m368 288v32z"/><path d="m16 264v-8 16 16z"/><path d="m16 264v24z"/><path d="m240 264h-224z"/><path d="m240 256h-224v8h224z"/><path d="m368 264v-8h-128v8z"/><path d="m0 320h16z"/><path d="m0 368v32h4v-32z"/><path d="m160 792-32 8z"/><path d="m160 792 16-4z"/><path d="m208 780 48-12z"/><path d="m176 788 32-8v-4l-32 8z"/><path d="m-176 592v-8h32v8z"/><path d="m-144 720v8h-32v-8z"/><path d="m-144 592v-8 32 8z"/><path d="m-144 688v8 32-8z"/><path d="m-144 624v-8h-32v8z"/><path d="m-176 688v8h32v-8z"/><path d="m880 816v-32z"/><path d="m816 816v-10z"/><path d="m848 804v4z"/><path d="m816 808v-4h32v4z"/><path d="m816 808v-4z"/><path d="m816 804h32z"/><path d="m848 808h-32z"/><path d="m-333.3333 96-2.6667 32v-32z"/><path d="m-336 96v32 64h-48-32-96v-96z"/><path d="m640-176h-64z"/><path d="m640-192h-64v-128h64z"/><path d="m-240-368 16-16h-64-32v16z"/><path d="m-240-368v40 80 16 24z"/><path d="m-240-368v160h16v-160z"/><path d="m-240-208 16 16v-16z"/><path d="m-400-368h-16-208 48 64 64z"/><path d="m-320-368h-80 16 48z"/><path d="m-624-368-16-16v16z"/><path d="m-336-96v-96 64 64 32z"/><path d="m-336-96v64 160l2.6667-32 13.3333-160v-32z"/><path d="m-624 48h112z"/><path d="m-624-176v224-48-128z"/><path d="m-624-368h-16v192h16z"/><path d="m-280-344v16h16v-16z"/><path d="m-280-248v16h16v-16z"/><path d="m-832 160v160 64h-16v-224z"/><path d="m1136-448-8 16h-40-128v-16z"/><path d="m896-448v16h-176l-16-16z"/><path d="m1200-320v32 32 64z"/><path d="m640-176v16z"/><path d="m640-336v16z"/><path d="m576-336v16h-160-32-16v-16z"/><path d="m576-320v128h-64-96v-128z"/><path d="m576-192v16h-48l-16-16z"/><path d="m512-32v-128-32l16 16v16 96 16 80h-16z"/><path d="m528 32v16 96l-16 16v-64-64z"/><path d="m416-192h96v32h-96z"/><path d="m368-320h16v16h-16-96-16v-16z"/><path d="m384-192v-16-96-16h32v128 32h-32z"/><path d="m368-208v-96h16v96z"/><path d="m368-64v-128h16v32 112h-16z"/><path d="m272-208h96 16v16h-16-16-96v-16z"/><path d="m256-208v-96h16v96z"/><path d="m384-48v-112h32 96v128h-128z"/><path d="m352-48h16 16v16h-32z"/><path d="m352 0v-32h32 128v64h-128-32z"/><path d="m224 0h64v32h-64z"/><path d="m160 32h64 64 64 32v64h-160-64z"/><path d="m384 32h128v64h-64-64z"/><path d="m544 160v64l-32-32v-32z"/><path d="m480 224-16 16v-32l16-16z"/><path d="m544 160 16-16v96l-16-16z"/><path d="m448 192h32l-16 16h-16-64v-16z"/><path d="m288 256h-48-176v-48-16h160 64z"/><path d="m320 192v64h-32v-64z"/><path d="m224 192h-160-64v-96h96 64 64z"/><path d="m448 192h-64-64-32-64v-96h160 64z"/><path d="m512 96v64 32h-32-32v-96z"/><path d="m544 144h16l-16 16h-32l16-16z"/><path d="m464 240 16-16h64l16 16z"/><path d="m480 224v-32h32l32 32z"/><path d="m32-16v16h-32v-16z"/><path d="m160 32v64h-64v-64-32h64z"/><path d="m0 32v-32h32v32z"/><path d="m0 96v-64h32 64v64z"/><path d="m576-336h-208l-16-16h96 64 64z"/><path d="m368-336v16h-16v-32z"/><path d="m528-176 16 16h-16z"/><path d="m576-176h64v16h-96l-16-16z"/><path d="m368-192h-16z"/><path d="m560 144 16-16v128l-16-16z"/><path d="m368-64v16l-16-16z"/><path d="m288 0v32z"/><path d="m160 0v32z"/><path d="m320 192h64z"/><path d="m544 144h-16l16-16z"/><path d="m464 208-16 16v-16z"/><path d="m640-336h-64z"/><path d="m576-320v-16h64v16z"/><path d="m576-176v-16h64v16z"/><path d="m272-208v-96z"/><path d="m368-208h-96z"/><path d="m368-304v96z"/><path d="m928 576v80z"/><path d="m928 384v-64 24 16z"/><path d="m448 672v-16-16z"/><path d="m896 656v16z"/><path d="m928 448v-64h-32v64z"/><path d="m928 576v-64h-32v64z"/><path d="m880 720 16-32z"/><path d="m736 384v-24-16-24z"/><path d="m736 384v64h32v-64z"/><path d="m576 672h64-24-16z"/><path d="m672 672h-32-64-64-64z"/><path d="m704 672h32z"/><path d="m736 448v32z"/><path d="m768 656v16z"/><path d="m768 656h-24-8z"/><path d="m704 480h-32z"/><path d="m640 480h-64 24 16z"/><path d="m512 480h-64 24 16z"/><path d="m768 688 16 32h96l16-32v-16h-128z"/><path d="m768 688 16 32z"/><path d="m880 720v96-32z"/><path d="m368 288v-24-8z"/><path d="m368 264h-128z"/><path d="m240 264h-224v-8h48 176z"/><path d="m288 256h32 48v8h-128v-8z"/><path d="m-256 320h64v128h-64-64v-128z"/><path d="m-208 304 16 16h-64v-16z"/><path d="m-192 448h128l16 16h-208v-16z"/><path d="m-64 224v-32l16 16v48 160h-16z"/><path d="m-48 416v48l-16-16v-32z"/><path d="m0 192v16h-48l-16-16z"/><path d="m-264-232h24v-16h-24z"/><path d="m-208 192v-208l16 16v208h-16z"/><path d="m-192 208v16 96l-16-16v-16-80z"/><path d="m-264-232h-16-24v24h64v-24z"/><path d="m-304-248v16h24v-16z"/><path d="m-192 208v-208h128v96 96 32h-128z"/><path d="m-64 224v192 32h-128v-128-96z"/><path d="m-64 96v-96h64v32 64z"/><path d="m0 0h-64-128l-16-16h208z"/><path d="m-304-328v-40h-16v112h16z"/><path d="m-320-256v48h16v-24-16-8z"/><path d="m-240-328h-24-16-24v72 8h24 16 24z"/><path d="m-280-344v-24h-24v40h24z"/><path d="m-280-344h16v-24h-16z"/><path d="m-240-368h-24v24 16h24z"/><path d="m0 192h-64v-96h64z"/><path d="m0-16h-208l-16-16h96 128z"/><path d="m-48 464 16 16h-224v-16z"/><path d="m-48 208 16 16v32h-16z"/><path d="m0 208v8 8h-32l-16-16z"/><path d="m-208 192v16 80h-16v-96z"/><path d="m-208 288v16l-16-16z"/><path d="m-256 304v-16h32l16 16z"/><path d="m-240-208h-64-16z"/><path d="m-304-368h24 16 24-80z"/><path d="m-264-232h-16z"/><path d="m-264-328h-16z"/><path d="m-280-328v-16z"/><path d="m-264-344v16z"/><path d="m-280-344h16z"/><path d="m-280-248h16z"/><path d="m-280-232v-16z"/><path d="m-264-248v16z"/><path d="m-144 600v8h-32v-16h32z"/><path d="m-176 632v48h32v-48z"/><path d="m-144 600v-8 32 8z"/><path d="m-144 680v8 32-8z"/><path d="m-144 632v-8h-32v8z"/><path d="m-176 680v8h32v-8z"/><path d="m-624 448h-16z"/><path d="m-608 192v-32h64v32z"/><path d="m-608 160v-64h64v64z"/><path d="m-608 160v32h-32v-96h32z"/><path d="m-640 192h32 64 32 96v224h-224z"/><path d="m-416 416v32h-32-176-16v-32z"/><path d="m-416 192h32v128 96h-32z"/><path d="m-384 416v32h-32v-32z"/><path d="m-320 448h-16-48v-32-96h48 16z"/><path d="m-384 192h48v64 64h-48z"/><path d="m-608 96v-32h64v32z"/><path d="m-624 48h112v16h-32-64-16z"/><path d="m-624 64h16v32h-32v-32z"/><path d="m-544 160v-64-32h32v128h-32z"/><path d="m-336-208v16l16-16z"/><path d="m-320-368h-16v112h16z"/><path d="m-336-256v48h16v-48z"/><path d="m-336-368h-48v-16h64z"/><path d="m-336-208v-48-112l16-16v192h-16z"/><path d="m-576-368h-48l-16-16h64z"/><path d="m-448-368h-64v-16h64z"/><path d="m-336-32v-32h16v128h-16z"/><path d="m-624 0h-13.3333z"/><path d="m-336 64v64z"/><path d="m-512 64v32 96z"/><path d="m-512 48v6.1538 9.8462z"/><path d="m-336-32v96 64 64-64z"/><path d="m-320-208-16 16z"/><path d="m-624-192v-176 192z"/><path d="m-448 448v64 32h-176v-32-64z"/><path d="m-448 512v-64h32 32v64z"/><path d="m-384 512h48v32h-80-32v-32z"/><path d="m-384 448h48v64h-48z"/><path d="m-624 512h-16z"/><path d="m-624 448v64z"/><path d="m-336 448v64z"/><path d="m-336 544 16 16h-96v-16z"/><path d="m-336 512h16v48l-16-16z"/><path d="m-640 96h-16-154.6667l21.3334-32h101.3333 48z"/><path d="m-656 320v-128h16v224h-16z"/><path d="m-640 416v32h-16v-32z"/><path d="m-640 192h-16v-96h16z"/><path d="m-832 160v-32l21.3333-32h154.6667v96 128h-176z"/><path d="m-656 320v96 32h-32-101.3333l-42.6667-64v-64z"/><path d="m-688 64v-16z"/><path d="m-640 64h-48z"/><path d="m-789.3333 448h101.3333v16h-106.6667z"/><path d="m-176 608h1z"/><path d="m-176 704v-96h1v96z"/><path d="m-175 704h-1z"/><path d="m-176 704v-96z"/><path d="m-175 608v96z"/><path d="m960-448h16 160z"/><path d="m704-384h16z"/><path d="m896-432v-16z"/><path d="m960-448v16z"/><path d="m960-432h-64z"/><path d="m1168-192h16 16z"/><path d="m0 216v-8-16z"/><path d="m368 256h-48z"/><path d="m64 256h-48z"/><path d="m640-192v16z"/><path d="m1152-128h48z"/><path d="m1152-192h16z"/><path d="m1152-192v64z"/><path d="m704-128h16z"/><path d="m720-320h-16-64z"/><path d="m720-384v64z"/><path d="m720-192v32 32z"/><path d="m720-192h-16-16-48z"/><path d="m768 256v-16z"/><path d="m384 192h-64z"/><path d="m384 192v16 8z"/><path d="m0 192h64z"/><path d="m64 256v-16-32z"/><path d="m768 256v48z"/><path d="m896 256h-16v48h16z"/><path d="m768 656v16z"/><path d="m768 656v-16z"/><path d="m384 640h-16 64z"/><path d="m384 512h48 16-80z"/><path d="m-624 0v48 16z"/><path d="m-624 0h-16 2.6667z"/><path d="m-848 160v224-208z"/><path d="m-794.6667 464-53.3333-80h16l42.6667 64z"/><path d="m-848 128h16v32h-16z"/><path d="m896-448h-64z"/><path d="m800-448h32 64-192z"/><path d="m-640-48v48z"/><path d="m-640-128v48z"/><path d="m-640-384v192z"/><path d="m-320-384h-64z"/><path d="m-448-384h-64z"/><path d="m-576-384h-64z"/><path d="m704-448v64z"/><path d="m896-448v16z"/><path d="m800-448v4h32v-4z"/><path d="m-320-384v192z"/><path d="m1200-192h-32z"/><path d="m1196-288v32h4v-32z"/><path d="m1200-320v32z"/><path d="m0 368v-48z"/><path d="m960 256h48z"/><path d="m784 256h-16z"/><path d="m640-352v16z"/><path d="m640-320v-16-16z"/><path d="m1040 252v4z"/><path d="m1008 252h32z"/><path d="m1008 256v-4h32v4z"/><path d="m1008 256v-4z"/><path d="m512-352h-64z"/><path d="m640-352v16h-64v-16z"/><path d="m352-320h16-112z"/><path d="m256-320v16 96 16z"/><path d="m352-128v-64h16v128h-16z"/><path d="m640-160h-64-32z"/><path d="m544-160v32z"/><path d="m544-128v24 16 8 16z"/><path d="m544-160v32 64h-16v-96z"/><path d="m352-192h-96z"/><path d="m352-64 16 16h-16z"/><path d="m544-64-16 16v-16z"/><path d="m544-64v64 64l-16-16v-16-80z"/><path d="m544-64v64z"/><path d="m544 0v24 16 24z"/><path d="m288-32v32z"/><path d="m224-32h64v32h-64z"/><path d="m96 0v-32z"/><path d="m160-32v32h-64v-32z"/><path d="m32-32v16h-32v-16z"/><path d="m288 0h64v32h-64z"/><path d="m160 0h64v32h-64z"/><path d="m96 0v32h-64v-32z"/><path d="m224 0v32z"/><path d="m352 0v32z"/><path d="m96 0v32z"/><path d="m32 0v32z"/><path d="m544 64v64z"/><path d="m576 128-16 16h-16v-16z"/><path d="m544 64v64l-16 16v-96z"/><path d="m448 256 16-16h96l16 16z"/><path d="m448 224 16-16v32l-16 16z"/><path d="m448 224h-64z"/><path d="m448 224h-64v-8-8h64z"/><path d="m880 304h16z"/><path d="m880 256h-96v48h96z"/><path d="m784 256h-16v48h16z"/><path d="m736 448h32z"/><path d="m768 384h-32z"/><path d="m768 384v64h128v-64z"/><path d="m832 576h64v-64h-96l-32 32v32z"/><path d="m800 512-32-32h-32-32l64 64z"/><path d="m736 480h32l-32-32z"/><path d="m768 544v32z"/><path d="m736 448v32z"/><path d="m896 640-64-64v64z"/><path d="m768 576v64h64v-64z"/><path d="m832 640h-64v16 16h128v-16-16z"/><path d="m640 640v16 16z"/><path d="m640 512v128h64v-128z"/><path d="m704 512v-32h-32-32v32z"/><path d="m640 640v32h32 32v-32z"/><path d="m512 640v16 16z"/><path d="m512 512v128h64v-128z"/><path d="m576 512v-32h-64v32z"/><path d="m512 640v32h64v-32z"/><path d="m384 624v16z"/><path d="m384 528v96h48v-96z"/><path d="m384 624v16h48v-16z"/><path d="m432 528v-16h-48v16z"/><path d="m4 400h-4z"/><path d="m0 368h4z"/><path d="m0 400v-32h4v32z"/><path d="m4 400v-32z"/><path d="m176 788 32-8 48-12-64 16-32 8z"/><path d="m176 788v-4z"/><path d="m208 780-32 8v-4l32-8z"/><path d="m208 776v4z"/><path d="m176 784 32-8z"/><path d="m-32 480h-160-64z"/><path d="m-32 256v208 16l-16-16v-48-160z"/><path d="m-32 224h32z"/><path d="m-224-32 16 16v208h-16z"/><path d="m-32 256v-32 32 64 64 80z"/><path d="m-256 288h16 16z"/><path d="m-224 192v96-32z"/><path d="m-176 720v-16 16 8 8 8z"/><path d="m-176 704h32v8 8h-32z"/><path d="m-144 608v-8 32 48 32-8z"/><path d="m-176 704v-96h32v96z"/><path d="m-624-128h32z"/><path d="m-640-128h16z"/><path d="m-384-384v16z"/><path d="m-336-192h16z"/><path d="m-336-128v-64z"/><path d="m-336-128v-64h-32v64z"/><path d="m-640-384 16 16v176h-16z"/><path d="m-512-384v16z"/><path d="m-384-368h-16-48z"/><path d="m-448-384v16z"/><path d="m-448-368v32z"/><path d="m-640-192h16z"/><path d="m-624-192h32z"/><path d="m-576-368v-16z"/><path d="m-576-368v-16 48z"/><path d="m-512-368h-64z"/><path d="m-624-192v16 48z"/><path d="m-640-48v-32-48h16v128h-13.3333-2.6667z"/><path d="m-336-128v64z"/><path d="m-640-80v32h4v-32z"/><path d="m-320 128v128h-16v-64-64z"/><path d="m-416 560h96-144-32z"/><path d="m-496 560h-144z"/><path d="m-416 560h-80-144l16-16h176 32z"/><path d="m-640 560v-48h16v32z"/><path d="m-794.6667 48 5.3334 16-21.3334 32-21.3333 32h-16z"/><path d="m-688 48v16h-101.3333l-5.3334-16z"/><path d="m-688 464v-16z"/><path d="m-794.6667 464h106.6667-32-16z"/><path d="m-320 512v48z"/><path d="m-320 128v128z"/><path d="m640-160v-16-16z"/><path d="m640-352v32z"/><path d="m640-352h-64-64 24 16 8z"/><path d="m-256 448v16 16z"/><path d="m-256 288v16 16z"/><path d="m-256 448h-16-48z"/><path d="m-624 448h-16z"/><path d="m-336 64h16z"/><path d="m-624 64h-16z"/><path d="m-624 64v-64z"/><path d="m-336 256h16z"/><path d="m-336 64v64z"/><path d="m-320 128h-16z"/><path d="m-336 320v-64z"/><path d="m-336 320h16z"/><path d="m-320 512h-16z"/><path d="m-640 512h16z"/><path d="m-624 512v-64z"/><path d="m-336 448v64z"/><path d="m-688 448h32 16z"/><path d="m-688 48v16z"/><path d="m-688 64h48z"/><path d="m-688 448v16z"/><path d="m312 0h-24z"/><path d="m312 0h16 24-64z"/><path d="m184 0h-24z"/><path d="m184 0h16 24-64z"/><path d="m56 0h16 24-64z"/><path d="m56 0h-24z"/><path d="m784 816h96z"/><path d="m0 320v48 32z"/><path d="m0 448v-48z"/><path d="m960 256h48 32 48z"/><path d="m784 256h96z"/><path d="m896 256h-16z"/><path d="m16 256h16 32z"/><path d="m640 256v-128z"/><path d="m1200 64h-48-160z"/><path d="m1232 48h-8v16h8z"/><path d="m1208 48h-8v16h8z"/><path d="m1224 48h-16v16h16z"/><path d="m1232-48h-8-16-8v96h8 16 8z"/><path d="m1208-64v16h16v-16z"/><path d="m1224-48h8v-16h-8z"/><path d="m1200-64v16h8v-16z"/><path d="m1208-112-8-16v64h8 16 8z"/><path d="m1200 48v-96-16-64 112 80z"/><path d="m704 0-7.0956 8.9043 55.0956 55.0957h16z"/><path d="m696.9044 8.9043-43.9044 55.0957h3 96z"/><path d="m704-112v112z"/><path d="m704-128v16z"/><path d="m696.9044 8.9043 7.0956-8.9043-51 64z"/><path d="m640 256h64v-16-112h-48-16z"/><path d="m656 128h48v-32h-48z"/><path d="m784 256h96 16v-16h-128v16z"/><path d="m928 96h-48-176v32 112h64 128 32z"/><path d="m960 240h144v-112-32h-176v144z"/><path d="m1104 240h-144v16h128z"/><path d="m1104 128h48 48l16-32h-112z"/><path d="m1104 240 48-48v-64h-48z"/><path d="m880 80h-112-112v16h48 176z"/><path d="m1104 80h-128-96v16h48 176z"/><path d="m1216 96 8-16h-24-96v16z"/><path d="m768 80-16-16h-96v16z"/><path d="m976 64h-208-16l16 16h112 96z"/><path d="m1200 64h-208-16v16h128 96z"/><path d="m1224 80 8-16h-8-16-8v16z"/><path d="m640 128h16z"/><path d="m656 96v-16-16 64z"/><path d="m768 240h-64z"/><path d="m784 720h96z"/><path d="m880 304h-96z"/><path d="m768 304h16z"/><path d="m512 640h-64v16h24 16 24z"/><path d="m512 656h-24v16h24z"/><path d="m472 656h-24v16h24z"/><path d="m472 656v16h16v-16z"/><path d="m512 512h-64v128h64z"/><path d="m448 512h64v-16h-24-16-24z"/><path d="m512 496v-16h-24v16z"/><path d="m472 480h-24v16h24z"/><path d="m472 480v16h16v-16z"/><path d="m600 480h-24v16h24z"/><path d="m640 656h-24v16h24z"/><path d="m600 656h-24v16h24z"/><path d="m640 640v-128-16h-24-16-24v16 128 16h24 16 24z"/><path d="m640 496v-16h-24v16z"/><path d="m600 656v16h16v-16z"/><path d="m600 480v16h16v-16z"/><path d="m736 656h-8-24v16h32z"/><path d="m728 640v16h8 8v-16z"/><path d="m768 656v-16h-24v16z"/><path d="m728 640h-24v16h24z"/><path d="m896 640v-64h-64z"/><path d="m928 576h-32v64 16h32z"/><path d="m768 576v-32l-64-64v32 128h24 16 24z"/><path d="m768 344h-16v16h16z"/><path d="m768 320h-32v24h16 16z"/><path d="m736 344v16h16v-16z"/><path d="m768 320v24 16h128v-16-24-16h-16-96-16z"/><path d="m912 344v16h16v-16z"/><path d="m912 344h-16v16h16z"/><path d="m768 384h128 32v-24h-16-16-128-16-16v24z"/><path d="m912 344h16v-24h-32v24z"/><path d="m928 448h-32-128-32l64 64h96 32z"/><path d="m896 640v16z"/><path d="m928 512h-32z"/><path d="m896 384h32z"/><path d="m928 448h-32z"/><path d="m928 576h-32z"/><path d="m928 656h-32 16z"/><path d="m736 320h32z"/><path d="m768 320v-16z"/><path d="m896 448h-128z"/><path d="m768 384h128z"/><path d="m488 672h-16-24 64z"/><path d="m704 512v128z"/><path d="m704 656v-16 32z"/><path d="m704 480v32z"/><path d="m896 576h-64z"/><path d="m736 448 32 32 32 32z"/><path d="m800 512h96z"/><path d="m768 544-64-64z"/><path d="m768 576v64z"/><path d="m832 576 64 64z"/><path d="m736 656v16z"/><path d="m576 496v-16 32z"/><path d="m576 656v-16 32z"/><path d="m576 512v128z"/><path d="m640 480v16 16z"/><path d="m640 640v-128z"/><path d="m512 640v-128z"/><path d="m512 496v16-32z"/><path d="m784 816v-96 64z"/><path d="m448 640h-16z"/><path d="m384 640h-16z"/><path d="m0 512v16 96h16v-80-32z"/><path d="m0 320v80 48h16v-128z"/><path d="m224 624h-32-64-112-16v16h128 64 32z"/><path d="m368 640h16l-16-16h-144v16z"/><path d="m368 512v112l16 16v-16-96-16z"/><path d="m448 512h-16v16 96 16h16z"/><path d="m384 320h-16v32 64 32h16z"/><path d="m368 320v-32-32h-16v96h16z"/><path d="m368 352h-48v64h48z"/><path d="m368 512v-64-32h-16v192l16 16z"/><path d="m224 624h144l-16-16h-160v16z"/><path d="m16 544v80l16-16v-64z"/><path d="m16 480h48-32z"/><path d="m128 624v-48 32z"/><path d="m192 624v-48h-32-32v48z"/><path d="m368 512h16z"/><path d="m448 512h-16z"/><path d="m432 512v16z"/><path d="m432 624v16z"/><path d="m432 528v96z"/><path d="m384 512v16z"/><path d="m384 624v-96z"/><path d="m16 448h-16z"/><path d="m16 256v8 24z"/><path d="m16 480v-32 64z"/><path d="m0 800h128v-16h-128z"/><path d="m0 784h128v-144h-128z"/><path d="m256 768v-16h-64v32z"/><path d="m224 640h-32v64h176v-64z"/><path d="m384 704h-16-176v48h64 64 64z"/><path d="m384 768v-16h-64v16z"/><path d="m160 792 32-8v-32-48-64h-64v144 16z"/><path d="m256 752v16z"/><path d="m320 752h-64z"/><path d="m0 800h128z"/><path d="m-32 480h-96-64z"/><path d="m-224-32h56 16 24z"/><path d="m-224 128v-160 224z"/><path d="m-32 224v32z"/><path d="m-32 320v64z"/><path d="m-32 464v16z"/><path d="m-224 256v-64z"/><path d="m-128 522.6667 80-26.6667-96 32z"/><path d="m-176 712v-112-8 16 96 16z"/><path d="m-128 784v-72h-16v88h16z"/><path d="m-128 640v-40h-16-32v112h32 16z"/><path d="m-128 528v-5.3333l-16 5.3333v72h16z"/><path d="m-48 528h48v-16h-48z"/><path d="m-128 800h64v-16h-64z"/><path d="m-16 640h-112v72 72h64 48z"/><path d="m0 624v-96h-48-80v72 40h112 16z"/><path d="m-128 528h80v-16-16l-80 26.6667z"/><path d="m-16 640v144h16v-144z"/><path d="m-48 496v16z"/><path d="m-144 528v40 32z"/><path d="m-144 712v32 56z"/><path d="m-144 712h-32v8 24h32z"/><path d="m-400-128h-112-80-32 208z"/><path d="m-336-128h-32z"/><path d="m-384-192h16z"/><path d="m-384-160v32h16v-64h-16z"/><path d="m-512-192h64z"/><path d="m-448-336v144z"/><path d="m-384-336h-64v144h64z"/><path d="m-384-336v-32h-64v32z"/><path d="m-512-128h112 16v-32h-64-64z"/><path d="m-512-160h64v-32h-64z"/><path d="m-448-192v32h64v-32z"/><path d="m-624-192h32 16-64z"/><path d="m-576-336v144z"/><path d="m-512-336h-64v144h64z"/><path d="m-512-336v-32h-64v32z"/><path d="m-576-160h-16v32h80v-32z"/><path d="m-592-192v32h16v-32z"/><path d="m-576-192v32h64v-32z"/><path d="m-592-160v-32h-32v64h32z"/><path d="m-320 560h-144z"/><path d="m-496 556v4h32v-4z"/><path d="m224 0h-24z"/><path d="m352 0h-24z"/><path d="m200 0h-16z"/><path d="m328 0h-16z"/><path d="m96 0h-24z"/><path d="m72 0h-16z"/><path d="m800-444v-4z"/><path d="m832-448v4z"/><path d="m800-444v-4h32v4z"/><path d="m832-444h-32z"/><path d="m1200-288v-32 16 48z"/><path d="m1200-256v64z"/><path d="m1196-256v-32h4v32z"/><path d="m1196-288h4z"/><path d="m1200-256h-4z"/><path d="m1196-256v-32z"/><path d="m448 256h128z"/><path d="m336-320h16-96z"/><path d="m352-320v-32z"/><path d="m256-320v128z"/><path d="m352-128v64z"/><path d="m352-320v128h32v-128z"/><path d="m336-192h-80 96z"/><path d="m256-320v128h80v-128z"/><path d="m336-320v128h16v-128z"/><path d="m576 256v-128z"/><path d="m576 256v-128z"/><path d="m544-64h-32v64h32z"/><path d="m224 0h-24-16-24z"/><path d="m320 0h32-24-16-24z"/><path d="m96 0h-24-16-24z"/><path d="m32 0v-16-16z"/><path d="m0-32h32z"/><path d="m576 128h-32z"/><path d="m352 0h-32v64h32z"/><path d="m544 64h-32v32 32h32z"/><path d="m384 224v-32 24z"/><path d="m448 224v32z"/><path d="m448 224v-32h-32-32v32z"/><path d="m288 0v8 16 40z"/><path d="m320 0h-32v64h32z"/><path d="m32 0v64h64v-64z"/><path d="m-128 480h96-56-16z"/><path d="m-192 480h-64z"/><path d="m-64-32h64-128z"/><path d="m-224 64v-96 160z"/><path d="m-224 192v-24-16-24z"/><path d="m-64-32h-64v32h64z"/><path d="m-32 384v80z"/><path d="m-32 384v-64h-32v64z"/><path d="m-240 288h-16z"/><path d="m-224 192v64h32v-64z"/><path d="m-384-128h48-32-16-16z"/><path d="m-384-336v144z"/><path d="m-384-384v16 32z"/><path d="m-320-192h-48 32z"/><path d="m-320-384h-64v48 144h16 48z"/><path d="m-448-336v-32-16h-64v48 144h64z"/><path d="m-576-336v-48h-64v192h64z"/><path d="m-512-336v144z"/><path d="m-512-384v16 32z"/><path d="m-640-80h4z"/><path d="m-636-48h-4z"/><path d="m-640-48v-32h4v32z"/><path d="m-636-80v32z"/><path d="m224 24v-24h-64v64h64z"/><path d="m320 256h32 16z"/><path d="m320 208v-16z"/><path d="m320 208v32 16-64z"/><path d="m320 208h-32z"/><path d="m64 208v-16z"/><path d="m64 192h-64z"/><path d="m64 240v16z"/><path d="m288 208h-224v32h224z"/><path d="m320 240v-32h-32v32z"/><path d="m288 240h-224 32z"/><path d="m320 352h48-16z"/><path d="m320 352h-128v64h128z"/><path d="m160 352h32-64z"/><path d="m128 352v128z"/><path d="m160 352h-32v128h32z"/><path d="m192 416v-64h-32v128h32z"/><path d="m128 544v32h32v-32z"/><path d="m160 480h-32v64h32z"/><path d="m160 480v64 32h32v-96z"/><path d="m128 480h-64v64h64z"/><path d="m64 480h-48v32 32h48z"/><path d="m-256 320v-32z"/><path d="m-320 320h48 16z"/><path d="m-272 448h16z"/><path d="m-320 448h-16z"/><path d="m-320 320h-16z"/><path d="m-384-64h48v-64h-48z"/><path d="m-336-64h16z"/><path d="m-640-48v-80 48 32 48z"/><path d="m-640-48v48h16v-48z"/><path d="m-384-48h-32-208v48 64h208 32z"/><path d="m-640-48h16 208v-80h-208-16z"/><path d="m-416-48h32v-16-64h-16-16z"/><path d="m-384-48v112h48 16v-128h-16-48z"/><path d="m1136-448 32 64 32 64z"/><path d="m832-448h64-64-32z"/><path d="m704-448h96z"/><path d="m720-384h-16z"/><path d="m1072-384h96l-32-64h-160v16 48z"/><path d="m976-384v-48h-16-64-64v48z"/><path d="m896-448h-64v16h64z"/><path d="m976-448h-16v16h16z"/><path d="m832-432v-16h-32-96v64h16 112z"/><path d="m960-432v-16z"/><path d="m896-432h64z"/><path d="m1152-304h-40l40 80z"/><path d="m1168-192h32v-64-48h-48v80z"/><path d="m1200-320-32-64h-96l32 64z"/><path d="m1152-304h48v-16h-96l8 16z"/><path d="m0 192v32-8z"/><path d="m448 256h128z"/><path d="m640-192v16 16z"/><path d="m992 64h-64-160 208z"/><path d="m928-16h-144-80v16l64 64h160z"/><path d="m1152-16h-80-64-80v80h64 160z"/><path d="m1200-16h-48v80h48z"/><path d="m1008-32h-48-64-96-16v16h144 80z"/><path d="m1072-32h-16-48v16h64z"/><path d="m784-32v-96h-64-16v112h80z"/><path d="m1200-128h-48-80v96 16h80 48z"/><path d="m688-192h16v-112-16h-16z"/><path d="m784-192h-64v64h64z"/><path d="m704-192h16 64v-64-32-16h-80z"/><path d="m784-256v64 64 96h16v-96-64-64z"/><path d="m800-288h-16v32h16z"/><path d="m720-320h112v-64h-112z"/><path d="m832-320h96 48v-64h-144z"/><path d="m1008-304h-80-144v16h16 96 64 48z"/><path d="m1056-288h16v-16h-64v16z"/><path d="m1056-256v64 64 96h16v-96-128z"/><path d="m1072-288h-16v32h16z"/><path d="m1112-304h-40v16 32 128h80v-64-32z"/><path d="m1152-192h16l-16-32z"/><path d="m1072-384h-96v64h128z"/><path d="m928-320h-96-112-16v16h80 144z"/><path d="m1104-320h-128-48v16h80 64 40z"/><path d="m960-32h48 48-48z"/><path d="m1056-192v-64-32z"/><path d="m1056-128v48 48z"/><path d="m896-288v48h64v-48z"/><path d="m1056-192h-48v64h48z"/><path d="m800-192h48z"/><path d="m688-320h-48z"/><path d="m1168-192h-16z"/><path d="m688-320h16 16-80z"/><path d="m720-320v-64z"/><path d="m720-192v64z"/><path d="m704-16v-112 16 112z"/><path d="m704 0 64 64z"/><path d="m512-320v-32h-64v32z"/><path d="m512-256v32-96z"/><path d="m576-160h64-24-16z"/><path d="m544-160h32l-64-64v32 32z"/><path d="m576-160-16-16-48-48z"/><path d="m544-160h-32l32 32z"/><path d="m512-224-32 32h32z"/><path d="m448-256-32-32v32z"/><path d="m416-192h64l32-32v-32h-64-32z"/><path d="m448-320v64h64v-64z"/><path d="m416-256v-32l-32-32v128h32z"/><path d="m416-288 32 32-64-64z"/><path d="m480-192 32 32v-32z"/><path d="m480-192 24 24 8 8z"/><path d="m416-128h-32v64h32 64z"/><path d="m384-128h-32v64h32z"/><path d="m576 128v128z"/><path d="m416-64 64 64z"/><path d="m512-64h-32-64l64 64h32z"/><path d="m32-32v32z"/><path d="m320 256v-16z"/><path d="m544 128h32z"/><path d="m384 192h32v-64-32h-96v96z"/><path d="m416 192h32v-64h-32z"/><path d="m416 128h32 64v-32h-96z"/><path d="m512 64h-160-32v32h96 96z"/><path d="m512 128h32z"/><path d="m512 128h32z"/><path d="m448 224v-32z"/><path d="m448 224v32z"/><path d="m224 208h64z"/><path d="m288 208h-64-64-64-32z"/><path d="m96 208h64z"/><path d="m160 64v-64z"/><path d="m288 192v-96-32 72 16 56z"/><path d="m288 192v16h32v-16z"/><path d="m320 96h-32v96h32z"/><path d="m320 64h-32v32h32z"/><path d="m224 24v40z"/><path d="m224 64h-64v144h64z"/><path d="m96 0v64z"/><path d="m96 64h-64v96h64z"/><path d="m32 64v-64z"/><path d="m64 192h32v-32h-64-32v32z"/><path d="m96 208v-16h-32v16z"/><path d="m64 192v16z"/><path d="m64 256h32v-16h-32z"/><path d="m256 256h64v-16h-32-192v16z"/><path d="m320 240h-32z"/><path d="m880 816v-96h16v96z"/><path d="m768 704v16 96h-64v-112-32z"/><path d="m880 720h-96-16v-16h128v16z"/><path d="m768 816v-96h16v96z"/><path d="m448 352v-96h128v160h-128z"/><path d="m256 256h-160-32-32v96h96 64 64z"/><path d="m320 352h32v-96h-32-64v96z"/><path d="m384 416h64 128l-32 64h-112-48z"/><path d="m352 416h32v64 160l-32-32z"/><path d="m544 512v64h-112v-96h112z"/><path d="m672 816-32-16-64-96h80 48v112z"/><path d="m480 704-48 24v-24z"/><path d="m656 704h-80-96-48v-64-64h112 64 32l16 24z"/><path d="m704 672v32h-48v-104z"/><path d="m384 480h48v96 64h-48z"/><path d="m384 640h-192v-32h160z"/><path d="m384 640h48v64 24l-16 8h-160l-64-32v-64z"/><path d="m128 352h-96v128h32 64z"/><path d="m32 608h96v-32-32h-64-32z"/><path d="m896 720v-16 16 96z"/><path d="m448 256v96z"/><path d="m576 416-32 64z"/><path d="m432 728 48-24-64 32z"/><path d="m880 816v-96z"/><path d="m784 720v96z"/><path d="m192 416v64 96z"/><path d="m192 576v48-16z"/><path d="m320 416h-128z"/><path d="m352 416h16-48z"/><path d="m256 352h-64 128z"/><path d="m128 608h-96l-16 16h112z"/><path d="m32 352v-96h-16v32 32 128 32h16z"/><path d="m64 480h64z"/><path d="m128 576v-32z"/><path d="m64 544h-48 16z"/><path d="m128 544h-64z"/><path d="m-128 192h96-160z"/><path d="m-192 64h-32z"/><path d="m-64 0v-32z"/><path d="m-128 0v64h64v-64z"/><path d="m-64 96v-32h-64-64v64h96z"/><path d="m-64 96-32 32 64 64h32v-32z"/><path d="m-64 64v32z"/><path d="m-32 192-64-64 24 24 16 16z"/><path d="m-192 128h-32z"/><path d="m-192 64h-32v64h32z"/><path d="m-32 256v24 16 24z"/><path d="m-32 224h32v-32h-32z"/><path d="m0 224h-32z"/><path d="m-192 384v-32z"/><path d="m-192 256h64v-32-32h-64z"/><path d="m-128 224h96v-32h-96z"/><path d="m-128 256h96v-32h-96z"/><path d="m-160 320-32-32v64z"/><path d="m-128 384h64v-64h-96l-32 32v32z"/><path d="m-64 320h-64-32z"/><path d="m-192 288 32 32z"/><path d="m-64 320h32z"/><path d="m-224 288h-16z"/><path d="m-240 288h-16z"/><path d="m-224 256v32z"/><path d="m-224 256h32z"/><path d="m-224 256v32h32z"/><path d="m-192 288h-32-16-16l64 64z"/><path d="m-256 288 64 64z"/><path d="m-192 448v32z"/><path d="m-192 384v64h64v-64z"/><path d="m-128 448h-64v32h64z"/><path d="m-272 336v-16z"/><path d="m-320 336v96h48v-96z"/><path d="m-320 432v16h48v-16z"/><path d="m-272 336v-16h-48v16z"/><path d="m-464 560h144-96-80z"/><path d="m-464 556v4z"/><path d="m-496 560v-4z"/><path d="m-496 560v-4h32v4z"/><path d="m-496 556h32z"/><path d="m768 832v-16h16 96 16v16z"/><path d="m768 816v16h-64v-16z"/><path d="m704 832-32-16h32z"/><path d="m672 816 32 16z"/><path d="m848-112v-16 16 32z"/><path d="m848-192v-48z"/><path d="m976-240h32-32-16z"/><path d="m896-240v-48z"/><path d="m960-80h48z"/><path d="m1008-192h48z"/><path d="m976-208v96z"/><path d="m1008-128v-64-48h-32v32 96h32z"/><path d="m960-240h-64-16v32h96v-32z"/><path d="m880-208v-32h-32v48 64 16h32z"/><path d="m1008-112h-32-96-32v32h48 64 48z"/><path d="m896-80v48z"/><path d="m960-80h-64v48h64z"/><path d="m848-192h-48v64h48z"/><path d="m248 8v16h16v-16z"/><path d="m248 136v16h16v-16z"/><path d="m120 8v16h16v-16z"/><path d="m120 136v16h16v-16z"/><path d="m-848 128v32z"/><path d="m-805.3333 448-21.3334-32-10.6666-16-10.6667-16 53.3333 80z"/><path d="m-640 512v48z"/><path d="m-320 448v-16z"/><path d="m-320 336v-16z"/><path d="m-320 416v16-96z"/><path d="m-320 64v-128z"/><path d="m784-240v176 32 16z"/><path d="m1072-16h-64z"/><path d="m1008-304h-224z"/><path d="m1072-304v64z"/><path d="m800-32h96z"/><path d="m1056-128v-64-96-16h16v64 160h-16z"/><path d="m1072-80v48h-16v-48z"/><path d="m896-288h-96z"/><path d="m1008-288h48-48-48z"/><path d="m1008-288h-48-64-96-16v-16h224z"/><path d="m1056-304v16h-48v-16z"/><path d="m800-64v-64 96z"/><path d="m800-288v32 64z"/><path d="m800-192h48v64h-48z"/><path d="m784-240v-48h16v96 64 64h-16z"/><path d="m800-64v32h-16v-32z"/><path d="m784-32h16 96 64 48v16h-224z"/><path d="m1008-32h48 16v16h-64z"/><path d="m640-192h48z"/><path d="m688-192v-128z"/><path d="m640-192h48v-128h-48z"/><path d="m448-352h-96z"/><path d="m536-352v16h16v-16z"/><path d="m536-352h-24v16h24z"/><path d="m560-192v-128-16h-8-16-24v16 96l48 48z"/><path d="m560-336v-16h-8v16z"/><path d="m640-320v-32h-80v16 16z"/><path d="m384-320h64v-32h-96v32z"/><path d="m560-320v128h48 32v-128z"/><path d="m600-176v16h16v-16z"/><path d="m616-160h24v-16h-24z"/><path d="m600-176h16 24v-16h-32l-16 16z"/><path d="m560-192v16l16 16 16-16 16-16z"/><path d="m576-160h24v-16h-8z"/><path d="m448-256v-64h-64z"/><path d="m368-168h136l-24-24h-96-32v24z"/><path d="m512-160-8-8h-136v16h152z"/><path d="m368-168h-16v16h16z"/><path d="m520-152h-152-16v24h32 32 128z"/><path d="m544-128h-128l24 24h40 48 16z"/><path d="m480-88v-16h-40l24 24h16z"/><path d="m528-104h-48v16h48z"/><path d="m544-104h-16v16h16z"/><path d="m544-80v-8h-16-48v8z"/><path d="m480-64h32 32v-16h-64-16z"/><path d="m416-64h-32-32v64h128z"/><path d="m288 0v-32h-64v32 8h24 16 24z"/><path d="m544 0h-32-32-128v24h176 16z"/><path d="m288 24v-16h-24v16z"/><path d="m248 8h-24v16h24z"/><path d="m544 24h-16v16h16z"/><path d="m528 24h-176v16h176z"/><path d="m288 64v-40h-24-16-24v112h24 16 24z"/><path d="m544 40h-16-176v24h160 32z"/><path d="m288 152v-16h-24v16z"/><path d="m248 136h-24v16h24z"/><path d="m288 152h-24-16-24v56h64z"/><path d="m160 0v-32h-64v32 8h24 16 24z"/><path d="m32 0v-32h-32v192h32z"/><path d="m160 24v-16h-24v16z"/><path d="m120 8h-24v16h24z"/><path d="m160 24h-24-16-24v112h24 16 24z"/><path d="m160 152h-24-16-24v56h64z"/><path d="m120 136h-24v16h24z"/><path d="m160 152v-16h-24v16z"/><path d="m576 128v16 112z"/><path d="m352-320h32z"/><path d="m448-320v-32z"/><path d="m512-336v-16 32z"/><path d="m416-64h-32z"/><path d="m384-64h-32z"/><path d="m512-64h32z"/><path d="m480-64h32z"/><path d="m352-152v-16-24 64z"/><path d="m464-80-24-24-24-24 64 64z"/><path d="m512-160 8 8 24 24z"/><path d="m384-192h-32z"/><path d="m480-192h-64-32z"/><path d="m448-256v-64z"/><path d="m352-128h32z"/><path d="m384-128h32z"/><path d="m512 0h-32z"/><path d="m544 0h-32z"/><path d="m352-64v16 16 32z"/><path d="m160 0v-32z"/><path d="m224-32v32z"/><path d="m224-32h64z"/><path d="m96-32h64z"/><path d="m352 64h160z"/><path d="m512 64h32z"/><path d="m352 40v-16-24 64z"/><path d="m448 128v64z"/><path d="m512 128h-64z"/><path d="m448 224v32z"/><path d="m160 8v16 112 16 56-144-64z"/><path d="m248 152v-16z"/><path d="m248 24v-16z"/><path d="m248 136h16z"/><path d="m264 24h-16z"/><path d="m264 8v16z"/><path d="m248 8h16z"/><path d="m264 152h-16z"/><path d="m264 136v16z"/><path d="m224 152v-16-112 40 144z"/><path d="m224 8v-8 24z"/><path d="m96 152v-16-112-16-8 64 96 32 16z"/><path d="m120 136h16z"/><path d="m136 24h-16z"/><path d="m120 24v-16z"/><path d="m136 8v16z"/><path d="m120 8h16z"/><path d="m136 152h-16z"/><path d="m120 152v-16z"/><path d="m136 136v16z"/><path d="m0 160h32z"/><path d="m32 0v160-96z"/><path d="m448 256v96-80z"/><path d="m576 256v160z"/><path d="m544 512v-32z"/><path d="m576 416-32 64z"/><path d="m-64-32h64z"/><path d="m-256 448v32z"/><path d="m-88 480h56v-16h-56z"/><path d="m-128 480h24v-16h-24z"/><path d="m-104 464v16h16v-16z"/><path d="m-256 288v32 128 32h64v-32-64-32z"/><path d="m-128 296v-8-32h-64-32l32 32 32 32h32z"/><path d="m-224 152v16h16v-16z"/><path d="m-32 384h-32-64v64 16h24 16 56z"/><path d="m-48 280h-72l-8 8v8h80z"/><path d="m-48 280h16v-24h-64l-24 24z"/><path d="m-128 288 8-8 24-24h-32z"/><path d="m-128 320h64 32v-24h-16-80z"/><path d="m-48 280v16h16v-16z"/><path d="m-192 192h160l-24-24h-152-16v24z"/><path d="m-56 168-16-16h-136v16z"/><path d="m-208 152h136l-24-24h-96-32v24z"/><path d="m-128-16v-16h-24v16z"/><path d="m-128 0v-16h-24-16-56v80h32 64z"/><path d="m-168-32h-56v16h56z"/><path d="m-168-32v16h16v-16z"/><path d="m0-32h-64v32 64 32l64 64z"/><path d="m-224 192h32z"/><path d="m-224 64v-80-16z"/><path d="m-192 64h64z"/><path d="m-128-16v16-32z"/><path d="m-128 64v-64z"/><path d="m-64 0v64z"/><path d="m-64 96 64 64z"/><path d="m-96 128h-96z"/><path d="m-224 128h32z"/><path d="m-64 384h-64z"/><path d="m-32 384h-32z"/><path d="m-128 256h32 64-96-64z"/><path d="m-64 320h32z"/><path d="m-224 256 32 32z"/><path d="m-128 464v-16 32z"/><path d="m-128 384v64z"/><path d="m-192 448v-64z"/><path d="m-272 336v96 16h16v-128h-16z"/><path d="m-256 320h-16z"/><path d="m-272 336v96z"/><path d="m-272 448v-16z"/><path d="m-336 448h16z"/><path d="m-416 400h-64-64-80-16v16h224z"/><path d="m-384 416v-16h-16-16v16z"/><path d="m-400 176v64 64 96h16v-80-64-80z"/><path d="m-384 144h-16v32h16z"/><path d="m-416 128h-224v16h16 80 64 64z"/><path d="m-400 144h16v-16h-32v16z"/><path d="m-640 176v16 208h16v-96-64-64z"/><path d="m-624 144h-16v32h16z"/><path d="m-416 416h-224v32h16 208z"/><path d="m-400 448h64 16v-16-16h-64-32v32z"/><path d="m-336 320h-48v80 16h64v-80-16z"/><path d="m-336 256h-48v64h48z"/><path d="m-320 128h-16-48v16 32 80h48 16z"/><path d="m-416 64h-208-16v16 16 32h224z"/><path d="m-336 64h-48-32v64h32 48z"/><path d="m-400 144h-16-64 64z"/><path d="m-544 144h-80z"/><path d="m-400 240v-64-32z"/><path d="m-624 240h48z"/><path d="m-544 144v48h64v-48z"/><path d="m-624 240v64h48v-64z"/><path d="m-320 64h-16z"/><path d="m-624 64h-16z"/><path d="m-320 256h-16z"/><path d="m-336 128h16z"/><path d="m-336 256v64z"/><path d="m-416 512h-208-16v48h144 80z"/><path d="m-320 560v-48h-16-64-16v48z"/><path d="m-400 448h-16-208v64h208 16z"/><path d="m-336 512v-64h-64v64z"/><path d="m-336 512h16z"/><path d="m-640 448h-48z"/><path d="m-736 48h16 32-106.6667z"/><path d="m-656 96h16v-16h-160v16z"/><path d="m-800 80h160v-16h-48-32-16-69.3333l-10.6667 16z"/><path d="m-816 80v16h16v-16z"/><path d="m-720 64h32v-16h-32z"/><path d="m-805.3333 64h69.3333v-16h-58.6667z"/><path d="m-816 80-10.6667 16h10.6667z"/><path d="m-736 48v16h16v-16z"/><path d="m-640 416h-16-152-16-2.6667l21.3334 32h69.3333 16 32 48z"/><path d="m-656 192v208 16h16v-16-208z"/><path d="m-640 176v-32-16-32h-16v80 16h16z"/><path d="m-848 176v208l10.6667 16h13.3333 16 152v-208-16z"/><path d="m-656 96h-144-16-10.6667l-21.3333 32v32 16h192z"/><path d="m-824 400v16h16v-16z"/><path d="m-656 400h-152v16h152z"/><path d="m-824 400h-13.3333l10.6666 16h2.6667z"/><path d="m-826.6667 96 10.6667-16 10.6667-16 10.6666-16-53.3333 80z"/><path d="m-736 448v16h16v-16z"/><path d="m-794.6667 464h58.6667v-16h-69.3333z"/><path d="m-720 464h32v-16h-32z"/><path d="m880-240h-32 32 16z"/><path d="m960-240v-48z"/><path d="m896-240v-48h64v48z"/><path d="m976-208v-32h32v48 64 16h-32z"/><path d="m880-208v-32h16 64 16v32z"/><path d="m848-128v-64-48h32v32 96h-32z"/><path d="m848-112h32 96 32v32h-48-64-48z"/><path d="m896-80h-48z"/><path d="m1008-240v48z"/><path d="m1008-112v-16 16 32z"/><path d="m1008-128h48z"/><path d="m1008-192h48v64h-48z"/><path d="m880-112h96z"/><path d="m880-208v96z"/><path d="m976-208h-96z"/><path d="m960-80v48z"/><path d="m896-80h64v48h-64z"/><path d="m848-128h-48z"/><path d="m-544 304h-32z"/><path d="m-448 240h48z"/><path d="m-480 240h32z"/><path d="m-544 240v-48z"/><path d="m-544 192v-48z"/><path d="m-544 192v48h64v-48z"/><path d="m-544 304h64 32v-64h-32-64-32v64z"/><path d="m-448 240v64h48v-64z"/><path d="m-480 352v48-48-48z"/><path d="m-480 352v48z"/><path d="m-544 352v48z"/><path d="m-544 304v48h64v-48z"/><path d="m-544 352v48h64v-48z"/><path d="m-640 192v176 32 16z"/><path d="m784-304v16 48z"/><path d="m1008-16h-224z"/><path d="m1072-304h-16-48z"/><path d="m1072-240v224-16-48z"/><path d="m-416 128h-224z"/><path d="m-384 416h-32z"/><path d="m-384 144v-16 64z"/><path d="m-400 400h-16-64 64z"/><path d="m-544 400h-80z"/><path d="m-416 144h-64-64-80-16v-16h224z"/><path d="m-384 128v16h-16-16v-16z"/><path d="m-624 400v-32-64z"/><path d="m-624 144v32 64z"/><path d="m-400 304v64 32z"/><path d="m-400 304v-64-96h16v48 176h-16z"/><path d="m-384 368v32h-16v-32z"/><path d="m-624 304v-64h48v64z"/><path d="m-544 400v-48h64v48z"/><path d="m-640 192v-48h16v96 64 64h-16z"/><path d="m-624 368v32h-16v-32z"/><path d="m-416 416h-224v-16h16 80 64 64z"/><path d="m-400 400h16v16h-32v-16z"/><path d="m-448 304h-32z"/><path d="m-576 304h-48z"/><path d="m-448 304h48z"/><path d="m-544 240h64 32v64h-32-64-32v-64z"/><path d="m-544 240v-48h64v48z"/><path d="m-576 240h32z"/><path d="m-480 192v48z"/><path d="m-480 192v-48z"/><path d="m-544 192v-48h64v48z"/><path d="m-448 304v-64h48v64z"/><path d="m-544 352v-48h64v48z"/><path d="m-544 352v-48z"/><path d="m-640 128v16 48z"/><path d="m192 608v-192 160 32 32z"/><path d="m192 416h160 32-32-32z"/><path d="m352 608h-160v32h192v-32z"/><path d="m384 416h-32v192h32z"/><path d="m352 416h-160v192h160z"/><path d="m-384 128h-32z"/><path d="m-416 416h-224z"/><path d="m-384 192v224-16-32z"/><path d="m736 832h-32 64 128z"/><path d="m448 144v-16 64 32 32z"/><path d="m464 128h96 16-32-32-64z"/><path d="m560 128v16h16v-16z"/><path d="m464 144h96v-16h-96z"/><path d="m560 144h-96-16v112h16 96 16v-112z"/><path d="m448 128v16h16v-16z"/><path d="m192 704v-64z"/><path d="m448 416h-64z"/><path d="m448 384v-16-16 64z"/><path d="m576 256v16 96 16 32z"/><path d="m448 416h128v-32h-16-96-16z"/><path d="m448 368v16h16v-16z"/><path d="m464 384h96v-16h-96z"/><path d="m560 368v16h16v-16z"/><path d="m448 256v16h16v-16z"/><path d="m464 272h96v-16h-96z"/><path d="m576 272h-16-96-16v80 16h16 96 16z"/><path d="m560 256v16h16v-16z"/><path d="m192 704 64 32v-16-16-64h-64z"/><path d="m280 720v16h16v-16z"/><path d="m280 720h16 80 16 24v-16h-160v16z"/><path d="m256 704h160 16v-16-48h-48-128z"/><path d="m296 736h80v-16h-80z"/><path d="m392 736h24v-16h-24z"/><path d="m256 736h24v-16h-24z"/><path d="m376 720v16h16v-16z"/><path d="m384 640h48v-64-96h-48z"/><path d="m640 780v-76h-64l64 96z"/><path d="m432 704h48 96 64v-16h-208z"/><path d="m480 704h-48-16v16 16z"/><path d="m656 688 48 19.2v-19.2z"/><path d="m640 688v16 76l16 4v-16-64-16z"/><path d="m704 720v-12.8l-48-19.2v16l32 12.8 16 6.4z"/><path d="m432 576h112v-64-32h-112z"/><path d="m656 600-16-24h-32-64-112v64 48h208 16z"/><path d="m704 688v-16l-48-72v88z"/><path d="m576 416h-128-64v64h48 112z"/><path d="m864 800h-128v16h144v-16z"/><path d="m736 816-80-32-16-4v20l32 16z"/><path d="m880 720v16 64 16h16v-96z"/><path d="m736 736h16 16 48 48 16v-16h-144-32v3.2z"/><path d="m864 736v64h16v-64z"/><path d="m736 816v-16l-48-19.2-32-12.8v16z"/><path d="m736 720-32-12.8v12.8z"/><path d="m704 688v19.2l32 12.8v-16-16l-32-16z"/><path d="m768 704h-32v16h144 16v-16z"/><path d="m736 688v16h32z"/><path d="m656 704v64z"/><path d="m864 800h-32-16-48-16-16z"/><path d="m768 736h-16z"/><path d="m864 736h-48 16z"/><path d="m736 800-32-12.8-16-6.4z"/><path d="m480 704h96z"/><path d="m896 704h-128z"/><path d="m544 512v-32z"/><path d="m544 576v-64z"/><path d="m640 576h-32z"/><path d="m608 576h-64z"/><path d="m736 688 32 16-64-32z"/><path d="m656 600 48 72-48-72-16-24z"/><path d="m384 480v-64 192 32z"/><path d="m256 640h128-192z"/><path d="m392 736h-16-80-16-24 160z"/><path d="m256 736-64-32z"/><path d="m576 704 64 96z"/><path d="m640 800 32 16z"/><path d="m896 816v16z"/><path d="m880 816h-144v16h160v-16z"/><path d="m704 832h32v-16h-64z"/><path d="m688 780.8v-64z"/><path d="m832 800h32z"/><path d="m768 800h48z"/><path d="m816 736h-48z"/><path d="m816 736v64h16v-64z"/><path d="m752 736v64h16v-64z"/><path d="m704 723.2 32 12.8-32-12.8-16-6.4z"/><path d="m736 736h16z"/><path d="m704 723.2v64z"/><path d="m688 716.8v64l16 6.4v-64z"/><path d="m688 780.8-32-12.8z"/><path d="m752 800h16 48 16 32-128z"/><path d="m736 800h16z"/><path d="m752 800v-64z"/><path d="m832 736h32z"/><path d="m816 800v-64z"/><path d="m832 736v64z"/><path d="m816 800v-64h16v64z"/><path d="m768 736v64z"/><path d="m752 800v-64h16v64z"/><path d="m688 780.8 16 6.4z"/><path d="m736 800-32-12.8z"/><path d="m704 723.2-16-6.4z"/><path d="m704 723.2 32 12.8z"/><path d="m688 780.8v-64l16 6.4v64z"/><path d="m656 768 32 12.8 16 6.4v12.8 3.2l-48-19.2z"/><path d="m656 688 48 19.2v12.8 3.2l-16-6.4-32-12.8z"/><path d="m704 787.2 32 12.8h-32z"/><path d="m736 800h128 16v16h-144l-32-12.8v-3.2z"/><path d="m864 800v-64h16v64z"/><path d="m736 720h144v16h-16-112-16l-32-12.8v-3.2z"/><path d="m704 707.2 32 12.8h-32z"/><path d="m864 800v-64z"/><path d="m864 736h-32-16-48-16z"/><path d="m656 704 32 12.8z"/><path d="m656 688v16 64 16l-16-4v-92z"/></g></defs><path d="m-988-716h2360v1688h-2360z" fill="#fff"/><g stroke="#000"><use fill="none" stroke-miterlimit="0" stroke-width="15" xlink:href="#a"/><use fill="#fff" xlink:href="#a"/></g></svg>