<svg viewBox="-371 -499 806 614" xmlns="http://www.w3.org/2000/svg" xmlns:xlink="http://www.w3.org/1999/xlink"><defs><g id="a"><path d="m-320-160v160 64-64z"/><path d="m-320-384v160 64-64z"/><path d="m384-448v64z"/><path d="m384 64h-32z"/><path d="m-96-448h-96-128 128z"/><path d="m128-448h-64-32-128 128z"/><path d="m352-448h-96-64-64 128z"/><path d="m-128-100.5714v-27.4286h128v27.4286z"/><path d="m-320-384v-64h128v128 64 32h-128z"/><path d="m-192-224v96 64 64h-128v-160-64z"/><path d="m-192 0v64h-128v-64z"/><path d="m-128-256v-64h128v64z"/><path d="m32 64h-128-96v-64-64h64 128 32z"/><path d="m64-64h128 64v64 64h-128-96v-128z"/><path d="m32-128h-32-128-64v-96-32h64 128 32z"/><path d="m64-256v32 96h-32v-128z"/><path d="m64-256v-64-128h64 64v128 64 32h-128z"/><path d="m192-224v96 64h-128v-64-96z"/><path d="m32-320h-32-128-64v-128h96 128z"/><path d="m64-448v128h-32v-128z"/><path d="m192-128v-96-32h64v32 96z"/><path d="m256-256v-64-128h96 32v64 160h-128z"/><path d="m384-224v64 160h-128v-64-64-96z"/><path d="m384 0v64h-32-96v-64z"/><path d="m192-320v-128h64v128z"/><path d="m192-128h64z"/><path d="m0-100.5714v-27.4286z"/><path d="m64-256h-32-32z"/><path d="m-192-128h64z"/><path d="m-128-128v27.4286z"/><path d="m-128-128v-128z"/><path d="m0-128v-128-64h-128v64 128 27.4286h128z"/><path d="m0-96v32h-128v-32z"/><path d="m0-128h32 32z"/><path d="m-128-128v-128-64h128v64 128 32h-128z"/><path d="m0-256v-64z"/><path d="m0-256v128z"/><path d="m-320-448v64z"/><path d="m384-160v64 32 128-64z"/><path d="m384-384v64 160-64z"/><path d="m-96 64h-96-128 128z"/><path d="m128 64h-96-128 128z"/><path d="m352 64h-96-128 128z"/><path d="m384-448h-32z"/><path d="m-192-128v64z"/><path d="m-192-256v32 96z"/><path d="m-192-256v-64z"/><path d="m368-320h-112z"/><path d="m192-320h64z"/><path d="m32-320h-32 32 32z"/><path d="m192-320h-128z"/><path d="m-192-320h64z"/><path d="m32-448h-128-96v128h64 128 32z"/><path d="m256-448h-128-96v128h32 128 64z"/><path d="m368-320h16v-64-64h-32-96v128z"/><path d="m256-64h112z"/><path d="m256-64h-64z"/><path d="m32-64h32-32-32z"/><path d="m-128-64h128z"/><path d="m-128-64h-64z"/><path d="m64-64v-32-32z"/><path d="m64-256v-64z"/><path d="m192-128v32 32z"/><path d="m192-320v64z"/><path d="m256-64v-16-48z"/><path d="m256-256v-48-16z"/><path d="m368-320v32z"/><path d="m384-160v-160h-16v32 192h16z"/><path d="m368-96v32h16v-32z"/><path d="m256-256h-64z"/><path d="m256-128h-32-32z"/><path d="m0-128v48 16-32z"/><path d="m64-128h-64z"/><path d="m0-256h64z"/><path d="m-128-64v-16-48 32z"/><path d="m-128-320v64z"/><path d="m-128-256h-64z"/><path d="m-128-128h-64z"/><path d="m32-64h-32-128-64v64 64h96 128z"/><path d="m256-64h-64-128-32v128h96 128z"/><path d="m352 64h32v-128h-16-112v128z"/><path d="m-192-256v-64-128h-128v64 160h128z"/><path d="m-320-224v64 160h128v-64-64-96z"/><path d="m-320 0v64h128v-64z"/><path d="m64-96v32h128v-32z"/><path d="m-320-160v64 32 128-64z"/><path d="m-320-384v64 160-64z"/><path d="m384-448v64z"/><path d="m384 64h-32z"/><path d="m-96-448h-96-128 128z"/><path d="m128-448h-96-128 128z"/><path d="m352-448h-96-128 128z"/><path d="m-192-320v64z"/><path d="m32-320h-32-128-64v-128h96 128z"/><path d="m256-320h-64-128-32v-128h96 128z"/><path d="m352-448h32v64 64h-16-112v-128z"/><path d="m368-288v-32h16v160 64h-16z"/><path d="m384-96v32h-16v-32z"/><path d="m368-288v192 32-32z"/><path d="m-128-304v-16 64z"/><path d="m-192-256h64z"/><path d="m32 64h-128-96v-128h64 128 32z"/><path d="m256 64h-128-96v-128h32 128 64z"/><path d="m368-64h16v128h-32-96v-128z"/><path d="m-192-320h-128v-64-64h128z"/><path d="m-192 64h-128v-128h128z"/><path d="m-320-160v-160h128v64 128 32h-128z"/><path d="m-192-96v32h-128v-32z"/><path d="m64-128v-128z"/><path d="m192-128v-128-64h-128v64 128 32h128z"/><path d="m192-96v32h-128v-32z"/><path d="m64-128v-128-64h128v64 128 32h-128z"/><path d="m192-256v128z"/><path d="m192-256h32 32z"/><path d="m-320-448v64z"/><path d="m384-160v80 16 128-128-32z"/><path d="m384-384v64 16 144-160z"/><path d="m384-160v-144 16 208z"/><path d="m-96 64h-96-128 128z"/><path d="m128 64h-96-128 128z"/><path d="m352 64h-96-128 128z"/><path d="m384-448h-32z"/><path d="m-192-64v-32-32z"/><path d="m-192-256v32 96-96z"/><path d="m192-320h64z"/><path d="m32-320h-32 32 32z"/><path d="m-192-320h64z"/><path d="m32-448h-128-96v128h64 128 32z"/><path d="m256-448h-128-96v128h32 128 64z"/><path d="m384-320v-64-64h-32-96v128z"/><path d="m256-64h-64z"/><path d="m32-64h32-32-32z"/><path d="m-128-64h-64z"/><path d="m64-80v-48 32 32z"/><path d="m64-128v48z"/><path d="m192-80v-48z"/><path d="m192-80v16-32-32z"/><path d="m384-320h-128v16h128z"/><path d="m384-80h-128v16h128z"/><path d="m64-80h128z"/><path d="m192-80h-128v16h128z"/><path d="m0-304v48-64z"/><path d="m-128-304v-16z"/><path d="m0-80h-128v16h128z"/><path d="m0-320h-128v16h128z"/><path d="m32-64h-32-128-64v64 64h96 128z"/><path d="m256-64h-64-128-32v128h96 128z"/><path d="m352 64h32v-128h-128v128z"/><path d="m-192-256v-64-128h-128v64 160h128z"/><path d="m-320-224v64 160h128v-64-64-96z"/><path d="m-320 0v64h128v-64z"/><path d="m-320-160v160 64-64z"/><path d="m-320-384v160 64-64z"/><path d="m384 64v-128z"/><path d="m384 64h-32z"/><path d="m-96-448h-96-128 128 64z"/><path d="m128-448h-96-128 96 64z"/><path d="m352-448h-96-128 64 64z"/><path d="m-192-320v64z"/><path d="m32-320h-32-128-64v-128h96 128z"/><path d="m256-320h-64-128-32v-128h96 128z"/><path d="m352-448h32v128h-128v-128z"/><path d="m32 64h-128-96v-64-64h64 128 32z"/><path d="m256 64h-128-96v-128h32 128 64z"/><path d="m384-64v128h-32-96v-128z"/><path d="m-320-384v-64h128v128 64 32h-128z"/><path d="m-192-224v96 64 64h-128v-160-64z"/><path d="m-192 0v64h-128v-64z"/><path d="m384-304v-16-128 160z"/><path d="m384-448v128z"/><path d="m256-320h128z"/><path d="m256-320h-64z"/><path d="m-128-320h128z"/><path d="m-128-320h-64z"/><path d="m384-64h-128z"/><path d="m192-64h64z"/><path d="m0-64h32 32-32z"/><path d="m192-64h-128z"/><path d="m0-64h-128z"/><path d="m256-80v-48z"/><path d="m256-304v48z"/><path d="m256-304h128z"/><path d="m384-304h-128v-16h128z"/><path d="m384-80h-128z"/><path d="m384-64h-128v-16h128z"/><path d="m192-64h-128v-16h128z"/><path d="m0-128v48z"/><path d="m0-304v48z"/><path d="m-128-80v-48z"/><path d="m-128-304h128z"/><path d="m0-304h-128v-16h128z"/><path d="m0-80h-128z"/><path d="m0-64h-128v-16h128z"/><path d="m-320-448v64z"/><path d="m384-288v64 160-16z"/><path d="m-96 64h-96-128 128z"/><path d="m128 64h-96-128 128z"/><path d="m352 64h-96-128 128z"/><path d="m384-448h-32z"/><path d="m-192-256v32 96h64v-96-32z"/><path d="m-192-256v-64-128h-128v64 160h128z"/><path d="m-320-224v64 160h128v-64-64-96z"/><path d="m-320 0v64h128v-64z"/><path d="m-192-448v128h64v-128z"/><path d="m0-256v-64-128h-96-32v128 16 48 32h128z"/><path d="m-128-224v96 64h128v-64-96z"/><path d="m64-128v64h128v-64z"/><path d="m32-64h-32-128-64v64 64h96 128z"/><path d="m256-64h-64-128-32v128h96 128z"/><path d="m352 64h32v-128h-128v128z"/><path d="m192-320v-128h-64-64v128 64h128z"/><path d="m0-448v128h64v-128z"/><path d="m224-256h-32-128-64v32 96h64 128 32z"/><path d="m256-128v-96-32h-32v128z"/><path d="m192-448v128h64v-128z"/><path d="m384-288v-160h-32-96v128 16 48 32h128z"/><path d="m256-224v96 64h128v-160z"/><path d="m-192-128v64z"/><path d="m64-320h-64 32z"/><path d="m-192-64h64z"/><path d="m64-128v48 16z"/><path d="m64-256v-64z"/><path d="m192-64v-16-48z"/><path d="m192-320v64z"/><path d="m256-128v48 16z"/><path d="m256-320v16z"/><path d="m0-256v-48-16z"/><path d="m0-64v-16-48z"/><path d="m-128-128v48 16z"/><path d="m-128-256v-48z"/><path d="m-128-320v16z"/></g></defs><path d="m-371-499h806v614h-806z" fill="#fff"/><g stroke="#000"><use fill="none" stroke-miterlimit="0" stroke-width="15" xlink:href="#a"/><use fill="#fff" xlink:href="#a"/></g></svg>