<svg viewBox="268 776 2228 2288" xmlns="http://www.w3.org/2000/svg" xmlns:xlink="http://www.w3.org/1999/xlink"><defs><g id="a"><path d="m1600 1920-22 80-58 58-80 22-80-22-58-58-22-80z"/><path d="m1440 1760 80 22 58 58 22 80h-320l22-80 58-58z"/><path d="m1440 2080-80-22z"/><path d="m1280 1920 22-80 58-58 80-22 80 22 58 58 22 80-22 80-58 58-80 22-80-22-58-58z"/><path d="m1600 1920-22-80-58-58-80-22-80 22-58 58-22 80 22 80 58 58 80 22 80-22 58-58z"/><path d="m1578 1840-58-58z"/><path d="m1600 1920-22-80z"/><path d="m1520 1782-80-22z"/><path d="m1302 1840-22 80z"/><path d="m1360 1782-58 58z"/><path d="m1578 2000 22-80z"/><path d="m1520 2058 58-58z"/><path d="m1440 2080 80-22z"/><path d="m1280 1920 22 80z"/><path d="m1440 2080-80-22z"/><path d="m1302 2000 58 58z"/><path d="m1578 1840-58-58z"/><path d="m1302 2000 58 58z"/><path d="m1520 1782-80-22z"/><path d="m1600 1920-22-80z"/><path d="m1280 1920 22 80z"/><path d="m1440 2080 80-22z"/><path d="m1440 1760-80 22z"/><path d="m1520 2058 58-58z"/><path d="m1360 1782-58 58z"/><path d="m1578 2000 22-80z"/><path d="m1302 1840-22 80z"/><path d="m1520 1782 58 58z"/><path d="m1440 1760 80 22z"/><path d="m1578 1840 22 80z"/><path d="m1280 1920 22-80z"/><path d="m1302 1840 58-58z"/><path d="m1440 1760-80 22z"/><path d="m1600 1920-22 80z"/><path d="m1578 2000-58 58z"/><path d="m1520 2058-80 22z"/><path d="m1302 2000-22-80z"/><path d="m1440 2080-80-22z"/><path d="m1360 2058-58-58z"/><path d="m1520 1782 58 58z"/><path d="m1440 1760 80 22z"/><path d="m1578 1840 22 80z"/><path d="m1280 1920 22-80z"/><path d="m1302 1840 58-58z"/><path d="m1440 1760-80 22z"/><path d="m1600 1920-22 80z"/><path d="m1578 2000-58 58z"/><path d="m1520 2058-80 22z"/><path d="m1302 2000-22-80z"/><path d="m1440 2080-80-22z"/><path d="m1360 2058-58-58z"/><path d="m1440 1760 80 22z"/><path d="m1440 1760-80 22z"/><path d="m1302 2000-22-80z"/><path d="m1440 2080-80-22z"/><path d="m1440 1760-80 22z"/><path d="m1578 2000 22-80z"/><path d="m1578 2000-58 58z"/><path d="m1600 1920h58 86z"/><path d="m1520 1782 58 58z"/><path d="m1578 1840 22 80z"/><path d="m1520 1782-80-22v-58z"/><path d="m1302 1840-22 80z"/><path d="m1440 1760-80 22z"/><path d="m1360 1782-58 58z"/><path d="m1302 1840-22 80h-144l38-152z"/><path d="m1520 2058 74 126-1.1882-2.0232z"/><path d="m1440 2080 80-22 72.8118 123.9768-152.8118 42.0232z"/><path d="m1440 2080 80-22z"/><path d="m1360 2058-58-58z"/><path d="m1302 2000 58 58-28.3882 49.6793z"/><path d="m1360 2058-58-58z"/><path d="m1280 1920 22 80-126 72-40-152z"/><path d="m1440 2080v144z"/><path d="m1440 2080v144l-82.3602-21.6737-26.028-94.647 28.3882-49.6793z"/><path d="m1280 1920h-144z"/><path d="m1331.3604 1733.2351 28.6396 48.7649-58 58z"/><path d="m1331.3604 1733.2351-45.3604-77.2351 71.723-18.6294z"/><path d="m1658 1920h-58l-22-80z"/><path d="m1440 1616v86 58z"/><path d="m1440 1616v144l-80 22-28.6396-48.7649 26.3626-95.8645z"/><path d="m2176 784h-144-80z"/><path d="m1920 784h-112-112 32z"/><path d="m528 784h-2-94-47-81z"/><path d="m752 784h-112-96-16z"/><path d="m976 784h-112-112 176 32z"/><path d="m1200 784h-112-112 208z"/><path d="m2248 3056h104-112z"/><path d="m1312 3056h-112z"/><path d="m304 1008v216 8-112z"/><path d="m304 1232v216 8-112z"/><path d="m304 1456v216 8-112z"/><path d="m304 1680v216 8-112z"/><path d="m304 1904v216 8-80-32z"/><path d="m304 2128v216 8-144z"/><path d="m304 2352v216 8-144z"/><path d="m304 2576v216 8-192z"/><path d="m304 2800v128 94 2-192z"/><path d="m304 3024v32z"/><path d="m2256 833v-9-14.5l32-8.5z"/><path d="m2288 1023-37.1357-9.8643-9.8643-37.1357z"/><path d="m2250.8643 1013.1357 37.1357 9.8643 3.7646 1h-211.7646-12.2354v-56h12.2354.9412z"/><path d="m2067.7646 1024h-211.7646-12.2354v-56h12.2354 112 99.7646z"/><path d="m1843.7646 1024h-19.7646-204.2354v-56h12.2354 112 99.7646z"/><path d="m1619.7646 1024h-19.7646-32v-56h51.7646z"/><path d="m2256 784h96l-16 4.25-48 12.75-32 8.5z"/><path d="m2256 809.5v14.5h-112-64-48v-40h144 80z"/><path d="m2032 824h-64-112-48v-40h112 32 80z"/><path d="m1808 824h-64-112-64v-40h128 112z"/><path d="m2126.875 968h112l2.125 8 9.8643 37.1357-169.9231-45.1357z"/><path d="m1704 1488v152 128l-112-112v-168z"/><path d="m1600 1280h104v80 128h-112v-112-96z"/><path d="m1984 1920h-240l-40-152v-128h280z"/><path d="m2080 1640v216 64h-94-2v-280z"/><path d="m1984 1640h-280v-152-128h280z"/><path d="m2080 1360v144 32 96 8h-96v-280z"/><path d="m1704 1280h120 32 128v80h-280z"/><path d="m1984 1280h96v80h-96z"/><path d="m1592 1376v112 168l-152-40v-240z"/><path d="m1440 1280h152v96h-152z"/><path d="m1440 1376v240l-154 40v-168-112z"/><path d="m1376 1280h64v96h-154v-96z"/><path d="m1200 784h112v40h-112-112v-40z"/><path d="m1088 824h-112-112v-40h112 112z"/><path d="m864 824h-64-112-48v-40h112 112z"/><path d="m640 824h-64-32v-40h96z"/><path d="m1200 968h112v56h-224v-56z"/><path d="m1088 1024h-32-32-160v-56h112 112z"/><path d="m864 1024h-64-160v-56h48 112 64z"/><path d="m640 1024h-96v-51.7646l1.125-4.2354h30.875 64z"/><path d="m533.1358 810.8643-7.1358-26.8643h2 16v40h-7.375z"/><path d="m520 807.375 13.1358 3.4893 3.4892 13.1357h-16.625z"/><path d="m526 784 7.1358 26.8643-13.1358-3.4893-24-6.375-64-17z"/><path d="m533.1358 1013.1357 9.8642-37.1357 1-3.7646v51.7646h-13.75z"/><path d="m520 1016.625 13.1358-3.4893-2.8858 10.8643h-10.25z"/><path d="m543 976-9.8642 37.1357-13.1358 3.4893-24 6.375z"/><path d="m520 1240.625v-216.625h10.25 13.75v224h-24z"/><path d="m544 1248v32h-24v-32z"/><path d="m368 801-47 47-17 17v-81h81z"/><path d="m385 784h47l-64 17z"/><path d="m496 801 24 6.375v16.625 1z"/><path d="m304 912v-47l17-17z"/><path d="m336 991 8 8 1 1h-1-16.625l-6.375-24z"/><path d="m304 912 17 64 6.375 24h-23.375z"/><path d="m488 1240.625v-103.5-112l8-2.125 24-6.375v7.375 216.625z"/><path d="m520 1248v32h-32v-30.875-8.5h32z"/><path d="m304 1008v-8h23.375 16.625v112 112h-40z"/><path d="m344 1224v112 112h-40v-216-8z"/><path d="m344 1448v88 112 24h-40v-216-8z"/><path d="m344 1672v88 112 24h-40v-216-8z"/><path d="m344 1896v88 112 24h-40v-216-8z"/><path d="m344 2120v88 96 40h-40v-216-8z"/><path d="m344 2344v72 112 32 8h-40v-216-8z"/><path d="m344 2568v104 105.4117l-3.875 14.5883h-36.125v-216-8z"/><path d="m340.125 2792-19.125 72-17 64v-128-8z"/><path d="m1286 1488v168l-112 112h-168v-280z"/><path d="m1006 1280h18 32 96 134v96 112h-280z"/><path d="m1006 1488v280h-112-94v-136-96-32-16z"/><path d="m800 1280h206v208h-206z"/><path d="m894 1768h112 168l-38 152h-240-2z"/><path d="m800 1920v-64-88h94v152z"/><path d="m488 1392v-112h32 24v224h-56z"/><path d="m544 1504v32 96 96h-56v-80-112-32z"/><path d="m544 1728v128 96h-56v-80-112-32z"/><path d="m544 1952v128 96h-56v-80-112-32z"/><path d="m544 2176v128 32 64h-56v-96-96-32z"/><path d="m544 2400v160h-24-32v-32-112-16z"/><path d="m1594 2352v-168l112-112h168v280z"/><path d="m1874 2560h-18-32-224-6v-96-112h280z"/><path d="m1986 2072h94v8 224 32 16h-206v-280z"/><path d="m2080 2352v208h-206v-208z"/><path d="m1986 2072h-112-168l38-152h240 2z"/><path d="m2080 1920v128 24h-94v-152z"/><path d="m1440 2464v-240l154-40v168 112z"/><path d="m1594 2560h-154v-96h154z"/><path d="m1357.6398 2202.3263 82.3602 21.6737v240h-152v-112-168z"/><path d="m1440 2464v96h-64-88v-96z"/><path d="m2248 3016v-17l40 40-40-10.625z"/><path d="m2288 2817-40 40v-19.353-10.022z"/><path d="m2248 3028.375 40 10.625 48 12.75 16 4.25h-104z"/><path d="m2248 2816h43.7646l-3.7646 1-40 10.625z"/><path d="m2241 2864 7-26.353v19.353z"/><path d="m2080 2816h168v11.625 10.022l-7 26.353-2.125 8h-45.9338-112-.9412-56v-56z"/><path d="m2024 2872h-8-112-104v-56h24 32 168z"/><path d="m1800 2872h-8-112-112v-56h32 200z"/><path d="m2080 3016h112 55.375.625v12.375 27.625h-8-216v-40z"/><path d="m2024 3056h-8-216v-40h104 112 8z"/><path d="m1800 3056h-8-224v-40h112 112 8z"/><path d="m896 1920h240l40 152h-168-112z"/><path d="m800 2072v-152h94 2v152z"/><path d="m1008 2072h168l112 112v168h-280z"/><path d="m800 2336v-32-224-8h96 112v280h-208z"/><path d="m1288 2352v112 96h-136-96-32-16v-208z"/><path d="m1008 2560h-208v-208h208z"/><path d="m1312 2816v56h-64-112-48v-56z"/><path d="m1088 2872h-64-112-48v-56h160 32 32z"/><path d="m864 2872h-64-30.875-112-17.125v-56h160 64z"/><path d="m640 2872h-94.875l-1.125-4.2353v-51.7647h96z"/><path d="m1136 3016h112 64v40h-112-112v-40z"/><path d="m1088 3056h-112-112v-40h48 112 64z"/><path d="m864 3056h-112-112v-40h104 56 64z"/><path d="m640 3056h-96v-40h88 8z"/><path d="m520 2784v-6.5883l1.75 6.5883 21.25 80-23-23z"/><path d="m520 2777.4117v-217.4117h24v224h-22.25z"/><path d="m544 2784v32 51.7647l-1-3.7647-21.25-80z"/><path d="m544 3016v40h-16-8v-40z"/><path d="m488 2814.875v-5.875l8 8z"/><path d="m496 3039 24-24v1 40h-32v-9z"/><path d="m488 2697v-25-112h32v217.4117 6.5883h-32z"/><path d="m520 2784v57l-24-24-8-8v-23.875-1.125z"/><path d="m488 3041.125 8-2.125-8 8z"/><path d="m368 3039-37.1358-9.8642-9.8642-37.1358z"/><path d="m488 3047v9h-56l56-14.875z"/><path d="m336 2849-15 15 19.125-72 3.875-14.5883v6.5883 57z"/><path d="m321 2992 9.8642 37.1358-26.8642-7.1358v-94z"/><path d="m1592.8118 2181.9768 1.1882 2.0232-154 40z"/><path d="m2336 788.25 16-4.25z"/><path d="m2080 1536v96z"/><path d="m2080 1504v-144-80 32z"/><path d="m2126.875 968h-45.9338-.9412 43.75z"/><path d="m2256 824v9z"/><path d="m2256 824h-8.625-46.75-36.375-20.25z"/><path d="m2291.7646 1024-3.7646-1z"/><path d="m344 1000v16.625 46.75 48.625z"/><path d="m1024 1280h-18-206 32z"/><path d="m1600 1280h-8-152-64z"/><path d="m1376 1280h-90-134 160z"/><path d="m1152 1280h-96 32z"/><path d="m1824 1280h32z"/><path d="m1312 824v-40z"/><path d="m1568 968v56z"/><path d="m1568 784v40z"/><path d="m2080 968h-12.2354-99.7646 68.25z"/><path d="m1968 968h-112z"/><path d="m1856 968h-12.2354-99.7646 68.25z"/><path d="m1744 968h-112z"/><path d="m1632 968h-12.2354-51.7646 20.25z"/><path d="m2067.7646 1024h12.2354-32-192z"/><path d="m1619.7646 1024h204.2354-64-160z"/><path d="m1200 968h-112z"/><path d="m1088 968h-112z"/><path d="m976 968h-112z"/><path d="m864 968h-64 28.4445 15.3055z"/><path d="m1312 824h-112z"/><path d="m1088 1024h224-32z"/><path d="m1056 1024h-32z"/><path d="m800 968h-112z"/><path d="m688 968h-48-64z"/><path d="m576 968h-30.875z"/><path d="m520 825-24-24z"/><path d="m545.125 968-1.125 4.2354-1 3.7646z"/><path d="m345 1000-1-1z"/><path d="m488 1137.125v103.5 8.5z"/><path d="m488 1249.125v30.875z"/><path d="m800 1536v-32z"/><path d="m544 1504v-224 32z"/><path d="m488 1280v112z"/><path d="m488 1392v112-96z"/><path d="m488 1504v32z"/><path d="m344 999-8-8z"/><path d="m800 2080v224-96z"/><path d="m800 1856v64 152 8-96z"/><path d="m800 1632v136 88-96z"/><path d="m544 1536v96z"/><path d="m488 1536v112z"/><path d="m488 1648v80 32z"/><path d="m488 1760v112z"/><path d="m488 1872v80 32z"/><path d="m488 1984v112z"/><path d="m488 2096v80 32z"/><path d="m488 2208v96z"/><path d="m2080 2080v-8-24z"/><path d="m1594 2184-1.1882-2.0232z"/><path d="m1856 2560h18 206-32z"/><path d="m1824 2560h-96-128z"/><path d="m1056 2560h-32z"/><path d="m800 2336v16 208-32z"/><path d="m2080 2304v32z"/><path d="m544 2304v32z"/><path d="m488 2304v96 16z"/><path d="m488 2416v112-96z"/><path d="m488 2528v32z"/><path d="m2238.875 2872h-29.75-16.1838z"/><path d="m2248 2857 40-40-47 47z"/><path d="m2238.875 2872 2.125-8z"/><path d="m2336 3051.75-48-12.75z"/><path d="m2248 2999 40 40z"/><path d="m2192 3016h-112 28.4443z"/><path d="m2247.375 3016h-55.375z"/><path d="m1568 2816h32z"/><path d="m1824 2816h32z"/><path d="m1680 3016h-112z"/><path d="m1792 3016h-112z"/><path d="m1904 3016h-104-8z"/><path d="m2016 3016h-112z"/><path d="m2080 3016h-56-8z"/><path d="m1312 2872v-56z"/><path d="m1312 2872h-20.25-43.75z"/><path d="m1056 2816h32z"/><path d="m1024 2816h-160-64 32z"/><path d="m912 3016h-48-64 28.4445 15.3055z"/><path d="m1024 3016h-112z"/><path d="m1136 3016h-48-64 43.75z"/><path d="m1248 3016h-112z"/><path d="m544 2867.7647 1.125 4.2353z"/><path d="m336 2849 8-8z"/><path d="m488 2697v87 1.125z"/><path d="m488 2814.875 8 2.125z"/><path d="m488 2785.125v23.875 5.875z"/><path d="m520 2841 23 23-47-47z"/><path d="m488 2560v112z"/><path d="m488 2672v25z"/><path d="m520 3016v-1z"/><path d="m632 3016h-88-24z"/><path d="m744 3016h-104-8z"/><path d="m800 3016h-56 41z"/><path d="m336 991-15-15z"/><path d="m1744 1920-40-152z"/><path d="m1440 1616 152 40-72 126-80-80z"/><path d="m1704 1768 40 152h-86l-80-80z"/><path d="m1704 1768-126 72-58-58 72-126z"/><path d="m1440 1616-82.277 21.3706-71.723 18.6294z"/><path d="m1286 1656 45.3604 77.2351-29.3604 106.7649-128-72z"/><path d="m1706 2072-128-72z"/><path d="m1744 1920-38 152-128-72 22-80z"/><path d="m1706 2072-112 112-74-126 58-58z"/><path d="m1136 1920 40 152z"/><path d="m1357.6398 2202.3263-69.6398-18.3263 43.6118-76.3207z"/><path d="m1176 2072 126-72 29.6118 107.6793-43.6118 76.3207z"/><path d="m330.8642 3029.1358 37.1358 9.8642 64 17h-128v-32-2z"/><path d="m1594 2184-154 40z"/><path d="m432 3056-64-17z"/><path d="m321 2992-17-64z"/><path d="m304 912 17-64z"/><path d="m368 801 64-17z"/><path d="m321 848 47-47z"/><path d="m368 3039-47-47z"/><path d="m2291.7646 1024h-211.7646z"/><path d="m2256 833 32-32z"/><path d="m2288 801-32 32z"/><path d="m2288 801 48-12.75z"/><path d="m2288 1023-47-47z"/><path d="m2241 976-2.125-8z"/><path d="m432 784 64 17z"/><path d="m496 801 24 24z"/><path d="m496 1023-8 2.125z"/><path d="m543 976-47 47z"/><path d="m345 1000h-1z"/><path d="m2352 3056-16-4.25z"/><path d="m2288 2817 3.7646-1z"/><path d="m2288 2817 3.7646-1z"/><path d="m2248 2999v17z"/><path d="m336 2849 8-8z"/><path d="m543 2864 1 3.7647z"/><path d="m520 3015-24 24z"/><path d="m496 3039-8 2.125-56 14.875z"/><path d="m304 2928 17-64z"/><path d="m321 2864 15-15z"/><path d="m321 2864 15-15z"/><path d="m321 976-17-64z"/><path d="m2080 2304v-224z"/><path d="m2352 3056h-112z"/><path d="m1792 3056h-224z"/><path d="m2016 3056h-224 8z"/><path d="m2240 3056h-224 8z"/><path d="m1312 3056h-112z"/><path d="m528 3056h-224 128 56 32z"/><path d="m752 3056h-224 16 96z"/><path d="m976 3056h-224 112z"/><path d="m1200 3056h-224 112z"/><path d="m1568 3056v-40z"/><path d="m1312 3056v-40z"/><path d="m1568 784h16 112z"/><path d="m432 784-64 17z"/><path d="m2336 1035.75v4.25z"/><path d="m2336 1536v-32-96 224z"/><path d="m2336 1760v-32 224z"/><path d="m2336 1040v-4.25l16 4.25z"/><path d="m2080 2080v224z"/><path d="m2080 1856v224-32-128z"/><path d="m2080 1632v224-216z"/><path d="m2080 1536v-32z"/><path d="m2080 1024v32z"/><path d="m2080 1280h32z"/><path d="m2238.875 968h-112z"/><path d="m2080 968v-8l32-9 17.9512-5.0488-6.2012 22.0488z"/><path d="m2112 841-32-9v-8h43.75l6.2012 22.0488z"/><path d="m2135 928-5.0488 17.9512-17.9512 5.0488z"/><path d="m2129.9512 945.9512 5.0488-17.9512 9-32 20.25-72h36.375l23.375 88 14.875 56h-112-3.125z"/><path d="m2247.375 824h8.625v9l-15 15z"/><path d="m2200.625 824h46.75l-6.375 24-17 64z"/><path d="m2129.9512 846.0488 5.0488 17.9512-23-23z"/><path d="m2135 864-5.0488-17.9512-6.2012-22.0488h20.25 20.25l-20.25 72z"/><path d="m2238.875 968-14.875-56z"/><path d="m2288 801 48-12.75z"/><path d="m2144 824h-20.25-43.75z"/><path d="m2241 976 47 47z"/><path d="m2241 976-2.125-8z"/><path d="m2292 1536h44v96 96 32h-44z"/><path d="m2336 1760v192 32h-44v-224z"/><path d="m2336 1984v128 96h-44v-224z"/><path d="m2336 2208v96h-44v-96z"/><path d="m2124 2080v128 96h-44v-224z"/><path d="m2124 1856v128 96h-44v-224z"/><path d="m2124 1632v128 96h-44v-224z"/><path d="m2080 1536h44v96h-44z"/><path d="m2124 1536v-212h168v180 32z"/><path d="m2292 1504v-180l12-12 32-32v128 96z"/><path d="m2336 1536h-44v-32h44z"/><path d="m2304 1312-12 12h-168l-12-12-32-32h32 192z"/><path d="m2336 1280-32 32v-32z"/><path d="m2112 1312 12 12v212h-44v-32-192z"/><path d="m2080 1280 32 32h-32z"/><path d="m2124 1632v-96h168v224h-168z"/><path d="m2292 1760v224h-168v-128-96z"/><path d="m2292 1984v224h-168v-128-96z"/><path d="m2292 2208v96h-168v-96z"/><path d="m344 1112v112z"/><path d="m344 1224v56 56z"/><path d="m344 1336v112z"/><path d="m344 1448v56 32z"/><path d="m544 1280h32z"/><path d="m1056 1280h-32z"/><path d="m1824 1280h-120-104z"/><path d="m1856 1280h224-96z"/><path d="m1312 1024v-56z"/><path d="m1760 1236h64v44h-224v-44z"/><path d="m1600 1280h-224v-44h160 64z"/><path d="m1376 1280h-64v-44h64z"/><path d="m1536 1068h-224v-44h224z"/><path d="m1760 1068h-224v-44h32 32 160z"/><path d="m1824 1024v44h-64v-44z"/><path d="m1536 1236h-160-64v-168h224z"/><path d="m1760 1236h-160-64v-168h224z"/><path d="m1824 1068v168h-64v-168z"/><path d="m2048 1248-12-12v-168l12-12 32-32v32 192z"/><path d="m2080 1280-32-32h32z"/><path d="m2036 1068v168h-180-32v-168z"/><path d="m2048 1056-12 12h-212v-44h32 192z"/><path d="m2080 1024-32 32v-32z"/><path d="m2036 1236 12 12 32 32h-224v-44z"/><path d="m1856 1280h-32v-44h32z"/><path d="m2080 968h-43.75l-6.2012-22.0488 17.9512 5.0488 32 9z"/><path d="m1995.75 824h84.25v8l-32 9-43.9891 12.3718z"/><path d="m2016 896-5.0488-17.9512 14.0488-14.0488z"/><path d="m2025 864-14.0488 14.0488-6.9403-24.677 43.9891-12.3718z"/><path d="m2048 951-17.9512-5.0488-5.0488-17.9512z"/><path d="m1856 824h112 27.75l8.2609 29.3718 6.9403 24.677 5.0488 17.9512 9 32 5.0488 17.9512 6.2012 22.0488h-68.25-112-43.75v-144z"/><path d="m1812.25 968h-68.25-112-43.75v-144h43.75 112 68.25z"/><path d="m1588.25 968h-20.25v-144h20.25z"/><path d="m1536 1024h-224 48z"/><path d="m2080 824h-84.25-27.75 64z"/><path d="m1968 824h-112z"/><path d="m1856 824h-43.75-68.25 64z"/><path d="m1744 824h-112z"/><path d="m1632 824h-43.75-20.25z"/><path d="m1856 1024h-32 19.7646z"/><path d="m1600 1024h-32z"/><path d="m800 1056v224z"/><path d="m1280 1236h-192-32v-168h224z"/><path d="m1312 1236h-32v-168h32z"/><path d="m1280 1068h-224v-44h32 192z"/><path d="m1312 1068h-32v-44h32z"/><path d="m1312 1280h-160-64v-44h192 32z"/><path d="m1088 1280h-32v-44h32z"/><path d="m828.4445 824h15.3055l11.25 40-23-23-14.0488-14.0488z"/><path d="m855 928-5.0488 17.9512-17.9512 5.0488z"/><path d="m1088 824h112 112v144h-112-112z"/><path d="m864 896 20.25-72h91.75 112v144h-112-112z"/><path d="m843.75 968 6.2012-22.0488 5.0488-17.9512 9-32v72z"/><path d="m828.4445 824-10.4933 2.9512-17.9512 5.0488v-8z"/><path d="m832 951 17.9512-5.0488-6.2012 22.0488h-15.3055l-28.4445-8z"/><path d="m855 864-11.25-40h20.25 20.25l-20.25 72z"/><path d="m800 832 17.9512-5.0488 14.0488 14.0488z"/><path d="m828.4445 968h-28.4445v-8z"/><path d="m832 1248 12-12h212v44h-32-192z"/><path d="m800 1280 32-32v32z"/><path d="m1024 1068h-180l-12-12-32-32h224z"/><path d="m1056 1024v44h-32v-44z"/><path d="m844 1236v-168h180 32v168z"/><path d="m832 1056 12 12v168l-12 12-32 32v-224z"/><path d="m800 1024 32 32h-32z"/><path d="m1312 968h-112z"/><path d="m1200 824h-112z"/><path d="m1088 824h-112z"/><path d="m976 824h-91.75-20.25z"/><path d="m864 824h-20.25-15.3055-28.4445z"/><path d="m1056 1024h32z"/><path d="m1024 1024h-224 64z"/><path d="m576 897-11.1804-3.1445-10.4175-2.93-11.4021-42.9255-6.375-24h39.375 112 27.75l8.2609 29.3718 6.9403 24.677 5.0488 17.9512 9 32 5.0488 17.9512z"/><path d="m736 896-5.0488-17.9512 14.0488-14.0488z"/><path d="m768 951-17.9512-5.0488-5.0488-17.9512z"/><path d="m745 864-14.0488 14.0488-6.9403-24.677 43.9891-12.3718z"/><path d="m554.4021 890.9255 10.4175 2.93-4.8196 18.1445z"/><path d="m520 825v-1h16.625l6.375 24z"/><path d="m800 968h-112-112v-71l174.0488 48.9512 17.9512 5.0488 32 9z"/><path d="m576 968h-30.875l14.875-56 4.8196-18.1445 11.1804 3.1445z"/><path d="m800 832-32 9-43.9891 12.3718-8.2609-29.3718h84.25z"/><path d="m520 825-24-24z"/><path d="m520 825 23 23z"/><path d="m520 824v1z"/><path d="m800 824h-84.25-27.75z"/><path d="m688 824h-112 64z"/><path d="m576 824h-39.375-16.625 16.625 7.375z"/><path d="m432 784 64 17z"/><path d="m496 1023-8 2.125z"/><path d="m496 1023 47-47z"/><path d="m344 1016.625v-16.625h1l23 23z"/><path d="m344 1063.375v-46.75l24 6.375 64 17z"/><path d="m488 1137.125v112 30.875h-136-8v-56-112-48.625l88-23.375 56 14.875z"/><path d="m488 1025.125v29.75l-56-14.875z"/><path d="m488 1054.875v-29.75 112z"/><path d="m800 1504v-224 208z"/><path d="m544 1536v-32z"/><path d="m576 1312 12 12v212h-44v-32-192z"/><path d="m544 1280 32 32h-32z"/><path d="m768 1312-12 12h-168l-12-12-32-32h32 192z"/><path d="m800 1280-32 32v-32z"/><path d="m756 1504v-180l12-12 32-32v224z"/><path d="m800 1536h-44v-32h44z"/><path d="m588 1536v-212h168v180 32z"/><path d="m352 1280h136v112 16h-8-128z"/><path d="m480 1408h8v96 32h-8z"/><path d="m344 1504v-56-112-56h8v128 96z"/><path d="m352 1536h-8v-32h8z"/><path d="m800 1536v96z"/><path d="m544 2080v224-128z"/><path d="m544 1856v224-128z"/><path d="m544 1632v224-128z"/><path d="m756 1536h44v96 128h-44z"/><path d="m800 1760v96 128h-44v-224z"/><path d="m800 1984v96 128h-44v-224z"/><path d="m800 2208v96h-44v-96z"/><path d="m588 1632v-96h168v224h-168z"/><path d="m756 1760v224h-168v-128-96z"/><path d="m756 1984v224h-168v-128-96z"/><path d="m756 2208v96h-168v-96z"/><path d="m588 2080v128 96h-44v-224z"/><path d="m588 1856v128 96h-44v-224z"/><path d="m588 1632v128 96h-44v-224z"/><path d="m544 1536h44v96h-44z"/><path d="m344 1648v-112h8 128 8v112 112h-144z"/><path d="m488 1760v112 112h-144v-112-112z"/><path d="m488 1984v112 112h-144v-112-112z"/><path d="m488 2208v96h-8-128-8v-96z"/><path d="m344 1536v112z"/><path d="m344 1648v112-88z"/><path d="m344 1760v112z"/><path d="m344 1872v112-88z"/><path d="m344 1984v112z"/><path d="m344 2096v112-88z"/><path d="m344 2208v96z"/><path d="m2336 2800v4.25z"/><path d="m2336 2804.25v-4.25h16z"/><path d="m2112 2560h224z"/><path d="m1824 2560h32z"/><path d="m1600 2560h-96-128 64 154z"/><path d="m1376 2560h-96-128 136z"/><path d="m1152 2560h-96z"/><path d="m1024 2560h-224 208z"/><path d="m576 2560h224z"/><path d="m800 2304v32z"/><path d="m2080 2336v224-208z"/><path d="m2124 2516v-180-32h168v212z"/><path d="m2124 2336v180l-12 12-32 32v-224z"/><path d="m2080 2304h44v32h-44z"/><path d="m2112 2528 12-12h168l12 12 32 32h-224z"/><path d="m2080 2560 32-32v32z"/><path d="m2304 2528-12-12v-212h44v128 96z"/><path d="m2336 2560-32-32h32z"/><path d="m544 2336v224-160z"/><path d="m768 2528-12-12v-212h44v32 192z"/><path d="m800 2560-32-32h32z"/><path d="m588 2336v180l-12 12-32 32v-224z"/><path d="m544 2304h44v32h-44z"/><path d="m576 2528 12-12h168l12 12 32 32h-224z"/><path d="m544 2560 32-32v32z"/><path d="m588 2516v-180-32h168v212z"/><path d="m480 2304h8v112 16h-8z"/><path d="m352 2528v-96h128 8v96 32h-136z"/><path d="m344 2528v-112-112h8v128 96z"/><path d="m352 2560h-8v-32h8z"/><path d="m344 2304v112-72z"/><path d="m344 2416v112z"/><path d="m344 2528v32z"/><path d="m800 2592v224z"/><path d="m2080 2560v32z"/><path d="m2080.9412 2872h-.9412z"/><path d="m2080 2816h211.7646-43.7646z"/><path d="m2080 2872.25v-.25h.9412z"/><path d="m2192.9412 2872h-28.6912-55.8057-27.5031z"/><path d="m2248 2999 40 40z"/><path d="m2248 2999-7-7z"/><path d="m2248 2999v17h-.625l-6.375-24z"/><path d="m2248 3016h-.625z"/><path d="m2215.395 2895.6049-6.27-23.6049h29.75l-14.875 56z"/><path d="m2108.4443 2872-10.4931 2.9512-17.9512 5.0488v-7.75l.9412-.25z"/><path d="m2108.4443 2872h55.8057l-15.2012 54.0488-14.0488-14.0488-23-23-14.0488-14.0488z"/><path d="m2149.0488 2926.0488-5.0488 17.9512-9-32z"/><path d="m2144 2944 5.0488-17.9512 15.2012-54.0488h28.6912 16.1838l6.27 23.6049-80.395 80.3951z"/><path d="m2192 3016h-83.5557l-10.4931-2.9512 14.0488-14.0488 23-23 80.395-80.3951 8.605 32.3951 17 64 6.375 24z"/><path d="m2080 2880 17.9512-5.0488 14.0488 14.0488z"/><path d="m2112 2999-14.0488 14.0488-17.9512-5.0488z"/><path d="m2097.9512 3013.0488 10.4931 2.9512h-28.4443v-8z"/><path d="m1792 3016h-112-112v-144h28.4445l195.5555 55z"/><path d="m2016 3016h-112-112v-89l28.4445 8 195.5555 55z"/><path d="m2080 3016h-64v-26l32 9 32 9z"/><path d="m2080 2872.25v7.75l-32 9-17.9512 5.0488-26.0379 7.3231-8.2609-29.3719h20.25 64z"/><path d="m1856 2772h-32v-168h212v168z"/><path d="m2048 2784-12-12v-168l12-12 32-32v32 192z"/><path d="m2080 2816-32-32h32z"/><path d="m1280 2772h-128-96v-168h224z"/><path d="m1504 2772h-128-96v-168h224z"/><path d="m1728 2772h-128-96v-168h224z"/><path d="m1824 2604v168h-96v-168z"/><path d="m1728 2772h96v44h-224v-44z"/><path d="m1600 2816h-32-192v-44h128 96z"/><path d="m1376 2816h-32-32-160v-44h128 96z"/><path d="m1152 2816h-64-32v-44h96z"/><path d="m1280 2604h-224v-44h96 128z"/><path d="m1504 2604h-224v-44h96 128z"/><path d="m1728 2604h-224v-44h96 128z"/><path d="m1824 2560v44h-96v-44z"/><path d="m1856 2772h180l12 12 32 32h-224z"/><path d="m1824 2816v-44h32v44z"/><path d="m2048 2592-12 12h-212v-44h32 192z"/><path d="m2080 2560-32 32v-32z"/><path d="m1921 2872h74.75l8.2609 29.3719 11.9891 42.6281 9 32z"/><path d="m2025 2912-9 32-11.9891-42.6281 26.0379-7.3231z"/><path d="m2025 2912 5.0488-17.9512 17.9512-5.0488z"/><path d="m1820.4445 2935-28.4445-8-195.5555-55h83.5555 112 28.4445z"/><path d="m1904 2872h17l104 104 23 23-32-9-195.5555-55v-63z"/><path d="m1024 2604h-180l-12-12-32-32h224z"/><path d="m1056 2560v44h-32v-44z"/><path d="m832 2784 12-12h212v44h-32-192z"/><path d="m800 2816 32-32v32z"/><path d="m844 2772v-168h180 32v168z"/><path d="m832 2592 12 12v168l-12 12-32 32v-224z"/><path d="m800 2560 32 32h-32z"/><path d="m849.9512 2894.0488 5.0488 17.9512-23-23z"/><path d="m855 2912-5.0488-17.9512-6.2012-22.0488h40.5l-20.25 72z"/><path d="m832 2999 23-23-11.25 40h-15.3055l-10.4933-2.9512z"/><path d="m832 2889-32-9v-8h43.75l6.2012 22.0488z"/><path d="m817.9512 3013.0488 10.4933 2.9512h-28.4445v-8z"/><path d="m1067.75 3016h-43.75-112-68.25l11.25-40 9-32 20.25-72h27.75 112 43.75z"/><path d="m1291.75 3016h-43.75-112-68.25v-144h68.25 112 43.75z"/><path d="m1312 2872v144h-20.25v-144z"/><path d="m832 2999-14.0488 14.0488-17.9512-5.0488z"/><path d="m1376 2816h192-48-176z"/><path d="m1568 2816v56z"/><path d="m1680 2872h-83.5555-28.4445z"/><path d="m1792 2872h-112z"/><path d="m1904 2872h-83.5555-28.4445 8z"/><path d="m2016 2872h-20.25-74.75-17z"/><path d="m2080 2872h-64 8z"/><path d="m1600 2816h224-24z"/><path d="m1856 2816h224-56z"/><path d="m912 2872h-27.75-40.5-43.75 64z"/><path d="m1024 2872h-112z"/><path d="m1136 2872h-68.25-43.75 64z"/><path d="m1248 2872h-112z"/><path d="m1088 2816h64 160z"/><path d="m1056 2816h-32z"/><path d="m1291.75 3016h20.25-64z"/><path d="m657.125 2872h-16.125-66.125-29.75 94.875z"/><path d="m769.125 2872h-53.375-58.625z"/><path d="m800 2872h-30.875z"/><path d="m545.125 2872-1.125-4.2353z"/><path d="m344 2841 24-24z"/><path d="m432 2800-64 17 33-33 87-87v88.125z"/><path d="m488 2785.125v29.75l-56-14.875z"/><path d="m344 2784v-112-112h8 136v112 25l-87 87z"/><path d="m368 2817-24 24v-57h57z"/><path d="m344 2560v112-104z"/><path d="m344 2672v112-6.5883z"/><path d="m344 2784v57z"/><path d="m745 2912-14.0488 14.0488-6.9403-24.6769 43.9891-12.3719z"/><path d="m744 2975-92-92-11-11h16.125 58.625l8.2609 29.3719 6.9403 24.6769 5.0488 17.9512 9 32z"/><path d="m744 3016h-112-112v-1l23-23 109-109 92 92z"/><path d="m745 2976 23 23 17 17h-41v-41z"/><path d="m545.125 2872h29.75l-14.875 56z"/><path d="m560 2928 14.875-56h66.125l11 11-109 109z"/><path d="m715.75 2872h53.375 30.875v8l-32 9-43.9891 12.3719z"/><path d="m736 2944-5.0488-17.9512 14.0488-14.0488z"/><path d="m800 3016h-15l-17-17 32 9z"/><path d="m545.125 2872 14.875 56z"/><path d="m520 3015-24 24z"/><path d="m2376 1828v24 88z"/><path d="m2376 1728h120v100h-24-96z"/><path d="m2472 1940v76z"/><path d="m2472 1940v-112h24v92 96h-24z"/><path d="m2376 2016h96 24v96h-120z"/><path d="m2336 1952v160-128z"/><path d="m2336 1728h16v100 124h-16z"/><path d="m2352 1952v64 96h-16v-160z"/><path d="m2352 1828v-100h24v100z"/><path d="m2352 1952v-124h24v112 76h-24z"/><path d="m2352 2112v-96h24v96z"/><path d="m2376 1940v76z"/><path d="m2464 1828h-88 96z"/><path d="m2384 2016h88-96z"/><path d="m2472 1828v112z"/><path d="m2464 1940v-88-24h8v112 76l-8-4z"/><path d="m2464 1828v24h-80-8v-24z"/><path d="m2376 1940v-88h8v88 32 44h-8z"/><path d="m2400 1980 24 12 16 8 24 12 8 4h-88v-44z"/><path d="m2448 1980-8 20-16-8z"/><path d="m2400 1980-16-8v-32z"/><path d="m2448 1980 16-40v72l-24-12z"/><path d="m2464 1852h-80z"/><path d="m2384 1852v88z"/><path d="m2352 1040-16-4.25z"/><path d="m2080 1056v224-32z"/><path d="m2112 1280h224-32z"/><path d="m2112 1280h-32v-224-32h211.7646l44.2354 11.75v4.25 32 80 128z"/><path d="m2336 1035.75-44.2354-11.75z"/><path d="m576 1280h224-32z"/><path d="m800 1024v32z"/><path d="m544 1280v-32-224z"/><path d="m576 1280h-32v-256h256v32 224z"/><path d="m544 1024h96 160z"/><path d="m2080 2560h32z"/><path d="m544 2560h32z"/><path d="m800 2560v32z"/><path d="m2080 2592v224-32z"/><path d="m2291.7646 2816 44.2354-11.75z"/><path d="m2112 2560h224v128 80 32 4.25l-44.2354 11.75h-211.7646v-224-32z"/><path d="m544 2816v-32-224z"/><path d="m800 2816h-160-96z"/><path d="m544 2816v-256h32 224v32 224z"/><path d="m1952 784h-32z"/><path d="m1312 784h-112-16 112z"/><path d="m528 784h-224z"/><path d="m752 784h-224z"/><path d="m1312 784h-112z"/><path d="m1952 784v-8z"/><path d="m1728 776h192 32v8h-32-192z"/><path d="m1696 784v-8h32v8z"/><path d="m1920 776h-192-32 8 210z"/><path d="m1184 784v-8z"/><path d="m960 776h192 32v8h-208-16z"/><path d="m928 784v-8h32v8z"/><path d="m1152 776h-192-32 8 210z"/><path d="m1568 3056h128-112z"/><path d="m1792 3056h-64-32-128z"/><path d="m2016 3056h-64-160z"/><path d="m2240 3056h-64-160z"/><path d="m928 3056h-176z"/><path d="m528 3056h-224z"/><path d="m752 3056h-224z"/><path d="m976 3056h-16-32-176z"/><path d="m1200 3056h-16-208z"/><path d="m2336 1280v-128z"/><path d="m2336 1408v-128z"/><path d="m2336 1408v192 32z"/><path d="m2336 1728v-96z"/><path d="m2336 2304v-96-96z"/><path d="m2352 1728h-16z"/><path d="m2352 1728h24z"/><path d="m2336 2112h16z"/><path d="m1312 784v240-56-144z"/><path d="m560 912-14.875 56z"/><path d="m496 801-64-17z"/><path d="m560 912-17-64 11.4021 42.9255z"/><path d="m368 1023 64 17z"/><path d="m543 976 2.125-8z"/><path d="m545.125 968-2.125 8z"/><path d="m344 999 1 1z"/><path d="m368 1023-23-23z"/><path d="m344 999-8-8z"/><path d="m336 991 8 8z"/><path d="m2336 2688v-128z"/><path d="m2336 2432v32 96-32z"/><path d="m2336 2432v32z"/><path d="m2336 2432v-128z"/><path d="m2352 2800-16 4.25z"/><path d="m2352 2800-16 4.25z"/><path d="m2288 2817-47 47z"/><path d="m2238.875 2872 2.125-8z"/><path d="m2241 2864-2.125 8z"/><path d="m2224 2928 17 64z"/><path d="m2288 3039 48 12.75z"/><path d="m2224 2928 14.875-56z"/><path d="m1568 3056v-240 56 144z"/><path d="m544 2867.7647 1.125 4.2353z"/><path d="m336 2849 8-8 24-24z"/><path d="m544 2867.7647-1-3.7647z"/><path d="m432 2800-64 17z"/><path d="m432 2800 56 14.875z"/><path d="m496 2817-8-2.125z"/><path d="m543 2864-47-47z"/><path d="m545.125 2872 14.875 56z"/><path d="m543 2992-23 23z"/><path d="m543 2992 17-64z"/><path d="m520 3015-24 24z"/><path d="m321 2864-17 64z"/><path d="m321 976 15 15z"/><path d="m336 991-15-15z"/><path d="m1728 3056h64 160v8h-224z"/><path d="m1696 3064v-8h32v8z"/><path d="m1696 3056v8z"/><path d="m1728 3064h224-8-210z"/><path d="m960 3056h16 208v8h-224z"/><path d="m928 3064v-8h32v8z"/><path d="m928 3056v8z"/><path d="m960 3064h224-8-210z"/><path d="m1696 776v8z"/><path d="m1914 776h-210z"/><path d="m1944 776h8-32z"/><path d="m928 776v8z"/><path d="m1146 776h-210z"/><path d="m1176 776h8-32z"/><path d="m304 896v-112 81 47 88 8z"/><path d="m304 1568v112 112z"/><path d="m304 1344v112 112z"/><path d="m304 1120v112 112z"/><path d="m304 896v112 112z"/><path d="m304 2208v144 80z"/><path d="m304 1792h-36z"/><path d="m268 2048h36z"/><path d="m268 1792h36v112 112h-36z"/><path d="m304 2016v32h-36v-32z"/><path d="m268 2016v32z"/><path d="m1184 3064v-8z"/><path d="m1952 3064v-8z"/><path d="m1734 3064h210z"/><path d="m1704 3064h-8 32z"/><path d="m966 3064h210z"/><path d="m936 3064h-8 32z"/><path d="m2464 1940-16 40-1.4546.7273z"/><path d="m2384 1940v2.6666l15.6086 36.4203.0332.0176z"/><path d="m2446.5217 1980.7826.0237-.0553-22.5454 11.2727.6667.3529z"/><path d="m2424 1992-24-12-.3582-.8955z"/><path d="m2464 1852-8 8h-24-16-24l-8-8z"/><path d="m2384 1940v-88l8 8v38 16 6 20l-8 2.6666z"/><path d="m2384 1942.6666 8-2.6666 6.8572 16 8.1428 19-7.3914 4.0869z"/><path d="m2464 1852v88z"/><path d="m2400 1980 24 12z"/><path d="m2424 1992 22.5454-11.2727 1.4546-.7273z"/><path d="m2384 1940 15.6418 39.1045.3582.8955z"/><path d="m2448 1980 16-40z"/><path d="m1952 784h192 32z"/><path d="m2352 784h-96-80z"/><path d="m1696 784v-8z"/><path d="m1952 776v8z"/><path d="m1184 776v8z"/><path d="m928 784v-8z"/><path d="m1952 3056h64 160z"/><path d="m2176 3056h64 112z"/><path d="m304 1792v-192-32z"/><path d="m304 1568v-192-32z"/><path d="m304 1344v-192-32z"/><path d="m304 1120v-192-32z"/><path d="m304 784v112z"/><path d="m2416 1918h16 24v2h-15-25z"/><path d="m2432 1914h24v4h-24z"/><path d="m2432 1860h24v38h-24z"/><path d="m2392 1860h24v38h-24z"/><path d="m2392 1914h24v4 2h-9-15z"/><path d="m2441 1948v-3-25h15v20l-6.8572 16h-.3193-4.8235-3z"/><path d="m2448 1958 .8235-2h.3193l-8.1428 19z"/><path d="m2444 1956h4.8235l-.8235 2z"/><path d="m2407 1920h9 25v25h-5-7-10-7-5z"/><path d="m2436 1945h5v3z"/><path d="m2419 1945h10v11h-10z"/><path d="m2407 1945h5l-5 3z"/><path d="m2392 1940v-20h15v25 3 8h-2-5.8235-.3193z"/><path d="m2400 1958-.8235-2h5.8235z"/><path d="m2398.8572 1956h.3193l.8235 2 7 17z"/><path d="m2424 1984 5-3 12-6z"/><path d="m2407 1975 12 6 5 3z"/><path d="m2432 1914v4z"/><path d="m2432 1898v-30-8z"/><path d="m2456 1914v-16z"/><path d="m2432 1914h16 8z"/><path d="m2416 1898h-16-8z"/><path d="m2392 1898v16z"/><path d="m2429 1956v-11 9.6666z"/><path d="m2407 1956v-8z"/><path d="m2400 1958 6.1765 15 .8235 2z"/><path d="m2441 1975 5.5217 5.7826-21.855 11.5703-.6667-8.3529z"/><path d="m2449.1428 1956 6.8572-16h8l-17.4546 40.7273-.0237.0553-5.5217-5.7826z"/><path d="m2456 1920v-2-4-16-38l8-8v88h-8z"/><path d="m2424 1984 .6667 8.3529-.6667-.3529-24.3582-12.8955-.0332-.0176 7.3914-4.0869z"/><path d="m2336 1152v-80z"/><path d="m2336 1072v-32z"/><path d="m2336 1040h16z"/><path d="m2352 784-16 4.25z"/><path d="m2336 2800v-32z"/><path d="m2336 2768v-80z"/><path d="m2352 2800h-16z"/><path d="m268 1792h36z"/><path d="m304 2048h-36z"/><path d="m268 1792v224z"/><path d="m268 2048v-32z"/><path d="m1184 3056v8z"/><path d="m1696 3064v-8z"/><path d="m1952 3056v8z"/><path d="m928 3064v-8z"/><path d="m2416 1860h16z"/><path d="m2392 1914v-16h8v16z"/><path d="m2432.8333 1945h-3.8333 7z"/><path d="m2412 1945h7z"/><path d="m2444 1956 4 2-6.1765 15h-.8235v-17z"/><path d="m2429 1956v-1.3334l4 5.3334z"/><path d="m2433 1960-4-5.3334v-9.6666h3.8333l3.1667 19z"/><path d="m2436 1964-3.1667-19h3.1667l5 3v8 17h-1.6001l-2.3999-3z"/><path d="m2412 1964 .2-1.2 2.8-2.8z"/><path d="m2407 1956v-8l5-3h7v11l-4 4-2.8 2.8-5.2 5.2z"/><path d="m2412 1964-1 6-2.3999 3h-1.6001v-5l5.2-5.2z"/><path d="m2400 1958 5-2h2v12 5h-.8235z"/><path d="m2441 1973h.8235l-.8235 2-1.6001-2z"/><path d="m2407 1975-.8235-2h.8235 1.6001z"/><path d="m2419 1981 5 3z"/><path d="m2409.9231 1976.4615-2.9231-1.4615z"/><path d="m2408.6001 1973 2.3999-3-2.3999 3-1.6001 2z"/><path d="m2419 1945v11z"/><path d="m2419 1956h10z"/><path d="m2441 1956h3z"/><path d="m2441 1948v8z"/><path d="m2436 1945 5 3z"/><path d="m2444 1956 4 2z"/><path d="m2424 1984-5-3z"/><path d="m2441.8235 1973 6.1765-15-7 17z"/><path d="m2429 1981-5 3z"/><path d="m2441 1975-12 6z"/><path d="m2405 1956h2z"/><path d="m2407 1948 5-3z"/><path d="m2409.9231 1976.4615 9.0769 4.5385-12-6z"/><path d="m2400 1958 5-2z"/><path d="m2416 1868v-8h16v8z"/><path d="m2432 1918h-16z"/><path d="m2448 1898h-16 24z"/><path d="m2432 1914v-16h16v16z"/><path d="m2448 1914v-16h8v16z"/><path d="m2416 1918v-4z"/><path d="m2416 1868v30-38z"/><path d="m2416 1918v-4-16-30h16v30 16 4z"/><path d="m2400 1914h16-24z"/><path d="m2400 1914v-16h16v16z"/><path d="m2419 1956h10z"/><path d="m2415 1960 4-4z"/><path d="m2429 1956 4 4z"/><path d="m2412 1964 3-4z"/><path d="m2433 1960 3 4z"/><path d="m2411 1970 1-6z"/><path d="m2419 1956h10l4 4 3 4 1 6-8 3h-10l-8-3 1-6 3-4z"/><path d="m2436 1964 1 6z"/><path d="m1704 776h210z"/><path d="m1944 776h-24-6z"/><path d="m936 776h210z"/><path d="m1176 776h-24-6z"/><path d="m2429 1973 8-3 2.3999 3z"/><path d="m2408.6001 1973 2.3999-3 8 3z"/><path d="m2429 1973h10.3999l1.6001 2-12 6-5-8z"/><path d="m2419 1981-9.0769-4.5385-2.9231-1.4615 1.6001-2h10.3999 5z"/><path d="m2429 1973 8-3z"/><path d="m2424 1973h-5 10z"/><path d="m2411 1970 8 3z"/><path d="m2441 1975-12 6z"/><path d="m2439.3999 1973-2.3999-3 2.3999 3 1.6001 2z"/><path d="m2429 1981-5 3z"/><path d="m2419 1981-9.0769-4.5385z"/><path d="m1944 3064h-210z"/><path d="m1704 3064h24 6z"/><path d="m1176 3064h-210z"/><path d="m936 3064h24 6z"/><path d="m1296 784h-112z"/><path d="m1584 3056h112z"/><path d="m1296 3056h-112 16 112z"/><path d="m1584 1024v16-32z"/><path d="m1536 1040h-176-48z"/><path d="m1568 1024h16v-16-224h-16z"/><path d="m1536 1040h48v-16h-16-32-176v16z"/><path d="m1360 1024h-48v16h48z"/><path d="m1568 1024v-240 40 144z"/><path d="m1568 1024h-32z"/><path d="m1312 1040h-16z"/><path d="m1296 784v224z"/><path d="m1312 1024h-16v16h16z"/><path d="m1296 784v224 16h16v-240z"/><path d="m1584 2832v224z"/><path d="m1296 2816v-16 16 16z"/><path d="m1344 2816h-32z"/><path d="m1520 2800h64-224z"/><path d="m1520 2800h-160-64v16h16 32 176z"/><path d="m1568 2816h16v-16h-64v16z"/><path d="m1584 3056v-224-16h-16v240z"/><path d="m1296 2816v16 224h16v-240z"/><path d="m1312 2816v240-40-144z"/><path d="m2424 1973 5 8-5 3-5-3z"/><path d="m2419 1981 5-8z"/><path d="m2429 1981-5 3z"/><path d="m2424 1973 5 8z"/><path d="m2424 1984-5-3z"/><path d="m1696 784h-112z"/><path d="m1312 784h-16-112z"/><path d="m1568 3056h16 112-64z"/><path d="m1184 3056h112z"/><path d="m1584 1008v-224z"/><path d="m1568 1040h16-48z"/><path d="m1568 784v240-64-128z"/><path d="m1584 1008v32h-16v-16-240h16z"/><path d="m1536 1024h32v16h-32-224v-16z"/><path d="m1536 1024h-224 64z"/><path d="m1296 1008v16 16-16z"/><path d="m1312 1040h-16v-16h16z"/><path d="m1296 1024v-16-224h16v240z"/><path d="m1584 2816v-16 16 16z"/><path d="m1296 2832v224z"/><path d="m1568 2816h-192-32z"/><path d="m1360 2800h224v16h-16-224-32-16v-16z"/><path d="m1360 2800h-64z"/><path d="m1568 2816h16v16 224h-16z"/><path d="m1296 3056v-224-16h16v240z"/><path d="m1312 3056v-240z"/><path d="m304 2432v-224z"/><path d="m304 2048v80 80z"/><path d="m352 2304h128z"/><path d="m2144 896-9 32z"/><path d="m2112 841 23 23z"/><path d="m2112 951-32 9z"/><path d="m2080 832 32 9z"/><path d="m2135 928-23 23z"/><path d="m2135 864 9 32z"/><path d="m480 1536h-128z"/><path d="m2025 928-9-32z"/><path d="m2016 896 9-32z"/><path d="m2080 960-32-9z"/><path d="m2025 864 23-23z"/><path d="m2048 951-23-23z"/><path d="m2048 841 32-9z"/><path d="m864 896-9 32z"/><path d="m800 832 32 9z"/><path d="m832 951-32 9z"/><path d="m832 841 23 23z"/><path d="m855 928-23 23z"/><path d="m855 864 9 32z"/><path d="m800 960-32-9z"/><path d="m736 896 9-32z"/><path d="m745 928-9-32z"/><path d="m745 864 23-23z"/><path d="m768 951-23-23z"/><path d="m768 841 32-9z"/><path d="m352 1408h128z"/><path d="m480 1408v128z"/><path d="m352 1536v-32-96z"/><path d="m480 2432h-128z"/><path d="m480 2304v128z"/><path d="m352 2432v-128z"/><path d="m2135 2912 9 32z"/><path d="m2135 2976-23 23z"/><path d="m2080 2880 32 9z"/><path d="m2144 2944-9 32z"/><path d="m2112 2889 23 23z"/><path d="m2112 2999-32 9z"/><path d="m2025 2912 23-23z"/><path d="m2080 3008-32-9z"/><path d="m2016 2944 9-32z"/><path d="m2048 2999-23-23z"/><path d="m2048 2889 32-9z"/><path d="m2025 2976-9-32z"/><path d="m864 2944-9 32z"/><path d="m832 2889 23 23z"/><path d="m855 2976-23 23z"/><path d="m800 2880 32 9z"/><path d="m832 2999-32 9z"/><path d="m855 2912 9 32z"/><path d="m768 2999-23-23z"/><path d="m736 2944 9-32z"/><path d="m800 3008-32-9z"/><path d="m745 2912 23-23z"/><path d="m745 2976-9-32z"/><path d="m768 2889 32-9z"/><path d="m1632 784h64-112-16z"/><path d="m1408 784h-32-64-128 192z"/><path d="m1632 784h-64-160 192z"/><path d="m304 784h34 94 96z"/><path d="m528 784h128 96z"/><path d="m928 784h-176z"/><path d="m1696 3056h-64z"/><path d="m1184 3056h112 16z"/><path d="m304 3056h224z"/><path d="m528 3056h224z"/><path d="m928 3056h-16-160z"/><path d="m304 2832v192 32z"/><path d="m304 2608v192 32z"/><path d="m304 2432v144 32z"/><path d="m1312 1024v-240z"/><path d="m1376 832v128 64h-64v-240h64z"/><path d="m1376 960h128 64v64h-32-160z"/><path d="m1376 784h32 160v48h-64-128z"/><path d="m1504 832h64v128h-64z"/><path d="m1568 1024h-32z"/><path d="m1344 2816h-32z"/><path d="m1376 2880v128 48h-64v-240h32 32z"/><path d="m1376 3008h128v48h-96-32z"/><path d="m1568 2816v64h-64-128v-64z"/><path d="m1568 3056h-64v-48-128h64z"/><path d="m1568 2880v-64 240z"/><path d="m368 3039 64 17z"/><path d="m304 2928 17 64z"/><path d="m321 848-17 64z"/><path d="m368 801-47 47z"/><path d="m321 2992 47 47z"/><path d="m2352 1040-16-4.25z"/><path d="m2336 788.25 16-4.25z"/><path d="m2241 848 15-15 32-32z"/><path d="m2238.875 968-14.875-56z"/><path d="m2224 912 17-64z"/><path d="m2336 788.25-48 12.75z"/><path d="m2288 1023 3.7646 1z"/><path d="m2288 1023 3.7646 1z"/><path d="m2241 976-2.125-8z"/><path d="m496 801 24 24 23 23z"/><path d="m560 912-14.875 56z"/><path d="m432 1040 64-17-8 2.125z"/><path d="m545.125 968-2.125 8z"/><path d="m368 1023-23-23-1-1z"/><path d="m344 999-8-8z"/><path d="m2336 3051.75 16 4.25z"/><path d="m2352 2800-16 4.25z"/><path d="m2336 2804.25-48 12.75 3.7646-1z"/><path d="m2238.875 2872 2.125-8z"/><path d="m2336 3051.75-48-12.75z"/><path d="m2224 2928 14.875-56z"/><path d="m2288 3039-40-40-7-7z"/><path d="m544 2867.7647 1.125 4.2353z"/><path d="m336 2849 32-32z"/><path d="m543 2864 1 3.7647z"/><path d="m432 2800 56 14.875 8 2.125z"/><path d="m545.125 2872 14.875 56z"/><path d="m543 2992-23 23z"/><path d="m520 3015-24 24z"/><path d="m432 3056 64-17z"/><path d="m321 2864 15-15z"/><path d="m336 991-15-15z"/><path d="m304 912 17 64z"/><path d="m2496 1728v160 32-92z"/><path d="m2496 1920v192-96z"/><path d="m432 3056-64-17z"/><path d="m321 2992-17-64z"/><path d="m304 912 17-64z"/><path d="m368 801 64-17z"/><path d="m321 848 47-47z"/><path d="m368 3039-47-47z"/><path d="m2496 2112h-120z"/><path d="m2376 1728h120z"/><path d="m2376 1888v224h120v-192-32z"/><path d="m2496 1728h-120v160h120z"/><path d="m2336 1280v-128 224z"/><path d="m2336 1280v96 32z"/><path d="m2336 1632v32 64z"/><path d="m2336 1920v32z"/><path d="m2336 2112v64 128z"/><path d="m2336 2176v128z"/><path d="m2336 1728h16z"/><path d="m2336 1035.75 16 4.25z"/><path d="m2376 2112h-24z"/><path d="m2352 2112h-16z"/><path d="m2352 1888v-160h-16v160 32 32h16z"/><path d="m2336 1952v160h16v-160z"/><path d="m2352 1888v64 160h24v-224z"/><path d="m2376 1728h-24v160h24z"/><path d="m2241 848 47-47z"/><path d="m2224 912 17-64z"/><path d="m2288 801 48-12.75z"/><path d="m2288 1023-47-47z"/><path d="m2241 976-2.125-8z"/><path d="m2291.7646 1024 44.2354 11.75z"/><path d="m496 801 47 47z"/><path d="m560 912-14.875 56z"/><path d="m432 784 64 17z"/><path d="m543 848 17 64z"/><path d="m496 1023-64 17z"/><path d="m543 976-47 47z"/><path d="m432 1040-64-17z"/><path d="m545.125 968-2.125 8z"/><path d="m368 1023-24-24z"/><path d="m344 999-8-8z"/><path d="m2336 2464v224-128z"/><path d="m2336 2304v128z"/><path d="m2352 3056-16-4.25z"/><path d="m2352 2800-16 4.25z"/><path d="m2336 2804.25-48 12.75z"/><path d="m2241 2864 47-47z"/><path d="m2238.875 2872 2.125-8z"/><path d="m2241 2992-17-64z"/><path d="m2224 2928 14.875-56z"/><path d="m2288 3039-47-47z"/><path d="m544 2867.7647 1.125 4.2353z"/><path d="m336 2849 32-32z"/><path d="m543 2864 1 3.7647z"/><path d="m368 2817 64-17z"/><path d="m432 2800 64 17z"/><path d="m496 2817 47 47z"/><path d="m545.125 2872 14.875 56z"/><path d="m543 2992-23 23z"/><path d="m560 2928-17 64z"/><path d="m520 3015-24 24 15-15z"/><path d="m496 3039-64 17z"/><path d="m304 2928 17-64z"/><path d="m321 2864 15-15z"/><path d="m336 991-15-15z"/><path d="m321 976-17-64z"/><path d="m1920 776h24-30z"/><path d="m1952 776h-8z"/><path d="m1920 776h-6-210-8 32z"/><path d="m1704 776h-8z"/><path d="m1152 776h24-30z"/><path d="m936 776h-8z"/><path d="m1152 776h-6-210-8 32z"/><path d="m1184 776h-8z"/><path d="m1728 3064h-24 30z"/><path d="m1944 3064h8z"/><path d="m1728 3064h6 210 8z"/><path d="m1696 3064h8z"/><path d="m960 3064h-24 30z"/><path d="m928 3064h8z"/><path d="m960 3064h6 210 8z"/><path d="m1176 3064h8z"/><path d="m1920 784h-192-32 80z"/><path d="m2144 784h-192-32 80z"/><path d="m2352 784h-176z"/><path d="m1152 784h-192-32z"/><path d="m1728 784h192 32v-8h-32-192z"/><path d="m1696 776v8h32v-8z"/><path d="m1952 776h-8-24z"/><path d="m960 784h192 32v-8h-32-192z"/><path d="m928 776v8h32v-8z"/><path d="m1184 776h-8-24z"/><path d="m1952 3056h224z"/><path d="m2176 3056h176z"/><path d="m1952 3056h-128z"/><path d="m1408 3056h-32-192 128 64z"/><path d="m1632 3056h-32-192 96 64z"/><path d="m304 1824v192 32-64z"/><path d="m304 1600v192 32-64z"/><path d="m304 1376v192 32-64z"/><path d="m304 1152v192 32-64z"/><path d="m304 928v192 32-64z"/><path d="m304 784v112z"/><path d="m2336 1152v-80z"/><path d="m2336 1072v-32z"/><path d="m2336 1152v80 144z"/><path d="m2336 1600v-192-32z"/><path d="m2336 1664v-32-32z"/><path d="m2336 1888v-160-64z"/><path d="m2336 1920v-32z"/><path d="m2336 2176v-64-160z"/><path d="m2336 1920v32z"/><path d="m2336 2176v128z"/><path d="m2336 1040h16z"/><path d="m2336 788.25 16-4.25z"/><path d="m2273 816-32 32 47-47z"/><path d="m2241 848-17 64z"/><path d="m2336 2800v-32z"/><path d="m2336 2768v-80z"/><path d="m2336 2688v-224z"/><path d="m2336 2464v-32-128z"/><path d="m2352 2800h-16z"/><path d="m2352 3056-16-4.25z"/><path d="m304 1824v-32h-36v224h36z"/><path d="m268 2016v32h36v-32z"/><path d="m268 1792v224z"/><path d="m1728 3064h224v-8h-128-96z"/><path d="m1696 3056v8h32v-8z"/><path d="m1696 3064h8 24z"/><path d="m960 3064h224v-8h-32-192z"/><path d="m928 3056v8h32v-8z"/><path d="m928 3064h8 24z"/></g><g id="b"><path d="m1152 784h-224 176z"/><path d="m1376 784h-192-32 176z"/><path d="m1600 784h-192-32 176z"/><path d="m1696 784h-64z"/><path d="m1184 784h-32z"/><path d="m304 2208v224-31z"/><path d="m304 1984v64 160-31z"/><path d="m304 1760v64 160-31z"/><path d="m304 1536v64 160-31z"/><path d="m304 1312v64 160-31z"/><path d="m304 1088v64 160-31z"/><path d="m304 864v64 160-31-145z"/><path d="m304 864v-80 112 32z"/><path d="m304 2048v160z"/><path d="m432 3056-64-17z"/><path d="m321 2992-17-64z"/><path d="m304 912 17-64z"/><path d="m368 801 64-17z"/><path d="m353 816-8.5 8.5-8.5 8.5-15 15 47-47z"/><path d="m336 3007 8.5 8.5 8.5 8.5 15 15-47-47z"/><path d="m480 2304h-128z"/><path d="m2336 1040v32z"/><path d="m2336 1035.75v4.25z"/><path d="m2352 1040h-16z"/><path d="m2336 1035.75 16 4.25z"/><path d="m1832.5 960h201.5l-1.3583-4.8296-2.5929-9.2192-5.0488-17.9512-9-32-5.0488-17.9512-6.9403-24.677-6.0109-21.3718h-188v128z"/><path d="m1810 832h-36-188v128h22.5 201.5z"/><path d="m1586 832h-36-46v128h82z"/><path d="m1810 832h188l-4.5-16h-168.5-51v16z"/><path d="m1774 816h-173-51v16h36 188z"/><path d="m1550 816h-173-1v16h128 46z"/><path d="m2048 841 32-9 42.6282-11.9893 14.2607-4.0107h-87.8889-55.5l4.5 16 6.0109 21.3718z"/><path d="m2025 864-14.0488 14.0488 5.0488 17.9512z"/><path d="m2112 951 17.9512-5.0488 5.0488-17.9512z"/><path d="m2122.6282 820.0107-42.6282 11.9893 32 9 17.9512 5.0488z"/><path d="m2112 1040h224v-4.25l-44.2354-11.75-3.7646-1-37.1357-9.8643-138.8643-36.8857z"/><path d="m2032.6417 955.1704 1.3583 4.8296 22.5 80h55.5v-63.75z"/><path d="m2241 976-2.125-8-14.875-56-25.5-96h-32l-22.5 80-9 32-5.0488 17.9512-7.323 26.0381 126.7776 35.656z"/><path d="m2273 816h-23.5l-8.5 32z"/><path d="m2198.5 816 25.5 96 17-64 8.5-32z"/><path d="m2241 976 8.4058 31.6453 1.4585 5.4904 37.1357 9.8643z"/><path d="m2249.4058 1007.6453-126.7776-35.656-42.6282-11.9893-32-9-17.9512-5.0488 2.5929 9.2192 79.3583 21.0796 138.8643 36.8857z"/><path d="m2135 864-5.0488-17.9512-17.9512-5.0488z"/><path d="m2166.5 816h-29.6111l-14.2607 4.0107 7.323 26.0381 5.0488 17.9512 9 32z"/><path d="m2112 951-32 9 42.6282 11.9893 7.323-26.0381z"/><path d="m2025 864 23-23-43.9891 12.3718 6.9403 24.677z"/><path d="m2025 928 5.0488 17.9512 17.9512 5.0488z"/><path d="m1888 1040h168.5l-22.5-80h-201.5v80z"/><path d="m1832.5 960h-22.5-201.5v80h55.5 168.5z"/><path d="m1608.5 960h-22.5-82-128v80h64 168.5z"/><path d="m992 1040h92.4445l-156.4445-44-67.5555-19v63z"/><path d="m860.4445 977-17.8164-5.0107-42.6281-11.9893-32-9-17.9512-5.0488-113.6043-31.9512v126h131.5555 92.4445z"/><path d="m636.4445 914-76.4445-21.5v19.5 128h76.4445z"/><path d="m1152 1040h64 160v-80-128-16h-223-1z"/><path d="m1084.4445 1040h67.5555v-224h-223-1v180z"/><path d="m928 816h-41.5l-22.5 80-9 32-5.0488 17.9512-7.3231 26.0381 17.8164 5.0107 67.5555 19z"/><path d="m560 892.5 76.4445 21.5 113.6043 31.9512-5.0488-17.9512-9-32-5.0488-17.9512-6.9403-24.677-10.5109-37.3718h-8.5-145z"/><path d="m832 841-14.0488-14.0488-17.9512 5.0488z"/><path d="m855 864 9 32 22.5-80h-29.6111l-14.2608 4.0107z"/><path d="m832 951-32 9 42.6281 11.9893 7.3231-26.0381z"/><path d="m745 864 23-23-43.9891 12.3718 6.9403 24.677z"/><path d="m750.0488 945.9512 17.9512 5.0488-23-23z"/><path d="m768 841 32-9 17.9512-5.0488 24.6769-6.9405 14.2608-4.0107h-143.3889l10.5109 37.3718z"/><path d="m745 864-14.0488 14.0488 5.0488 17.9512z"/><path d="m832 951 17.9512-5.0488 5.0488-17.9512z"/><path d="m832 841 23 23-12.3719-43.9893-24.6769 6.9405z"/><path d="m533.1358 1013.1357-37.1358 9.8643-64 17 128 34v-34z"/><path d="m560 1238.5v-164.5l-128-34-64-17-32-8.5v42.5 181.5z"/><path d="m336 1281v127h16 128 80v-144-25.5h-224z"/><path d="m560 892.5v-76.5h-25.5l8.5 32 17 64z"/><path d="m519.5 999.5 13.6358 13.6357 9.8642-37.1357z"/><path d="m545.125 968-2.125 8-9.8642 37.1357 26.8642 26.8643v-128z"/><path d="m543 848-8.5-32h-23.5z"/><path d="m344 999-8-8v23.5l32 8.5z"/><path d="m533.1358 1013.1357-13.6358-13.6357-23.5 23.5z"/><path d="m432 784 64 17 15 15h-30-49-79l15-15z"/><path d="m336 1408v97 31h16v-128z"/><path d="m560 1712v-176h-80-128-16v193 31h224z"/><path d="m336 1760v193 31h224v-48-176z"/><path d="m336 1984v193 31h224v-48-176z"/><path d="m336 2208v96h16 128 80v-96z"/><path d="m480 1536h80v-48-80h-80z"/><path d="m2136.8889 816h29.6111 32 51 23.5-23.5-51-54.5-95z"/><path d="m560 1264v144 80-80z"/><path d="m560 1488v48 176-80z"/><path d="m560 1712v48 176-80z"/><path d="m560 1936v48 176-80z"/><path d="m560 2160v48 96z"/><path d="m2112 1040h-55.5-168.5 32z"/><path d="m1888 1040h-55.5-168.5 32z"/><path d="m1664 1040h-55.5-168.5 213.1357z"/><path d="m1440 1040h-64-160 213.1357z"/><path d="m1216 1040h-64-67.5555-92.4445 213.1357z"/><path d="m992 1040h-131.5555-92.4445 213.1358z"/><path d="m768 1040h-131.5555-76.4445 197.1358z"/><path d="m2135 928 9-32z"/><path d="m2241 848 32-32z"/><path d="m2273 816 15-15z"/><path d="m2224 912 14.875 56z"/><path d="m2288 801 48-12.75z"/><path d="m2135 864-23-23z"/><path d="m2080 960 32-9z"/><path d="m2112 841-32-9z"/><path d="m2112 951 23-23z"/><path d="m2144 896-9-32z"/><path d="m2241 976 47 47z"/><path d="m2288 1023 3.7646 1z"/><path d="m2238.875 968 2.125 8z"/><path d="m2291.7646 1024 44.2354 11.75z"/><path d="m352 1536h128z"/><path d="m2016 896 9 32z"/><path d="m2025 864-9 32z"/><path d="m2048 951 32 9z"/><path d="m2048 841-23 23z"/><path d="m2025 928 23 23z"/><path d="m2080 832-32 9z"/><path d="m1504 832v128z"/><path d="m1504 960h-128z"/><path d="m1376 960v-128z"/><path d="m1376 832h128z"/><path d="m855 928 9-32z"/><path d="m832 841-32-9z"/><path d="m800 960 32-9z"/><path d="m855 864-23-23z"/><path d="m832 951 23-23z"/><path d="m864 896-9-32z"/><path d="m511 816-15-15 47 47z"/><path d="m768 951 32 9z"/><path d="m745 864-9 32z"/><path d="m736 896 9 32z"/><path d="m768 841-23 23z"/><path d="m745 928 23 23z"/><path d="m800 832-32 9z"/><path d="m560 912-14.875 56z"/><path d="m432 784 64 17z"/><path d="m543 848 17 64z"/><path d="m496 1023-64 17z"/><path d="m519.5 999.5 23.5-23.5-47 47z"/><path d="m432 1040-64-17z"/><path d="m368 1023-24-24z"/><path d="m480 1408h-128z"/><path d="m480 1536v-128z"/><path d="m352 1408v128z"/><path d="m2336 2800h16z"/><path d="m2336 3051.75 16 4.25z"/><path d="m432 3024h79l-15 15-64 17-64-17-15-15z"/><path d="m529 2656 31-31v-97-96h-80-128-16v193 31z"/><path d="m336 2849 32-32 161-161h-193z"/><path d="m432 2800 37.1358-9.8643 90.8642-24.1357v-14-127l-31 31-161 161z"/><path d="m543 2992 17-17v-47z"/><path d="m543 2992-23 23-9 9h49v-16-33z"/><path d="m560 2880v-80l-26.8642 26.8642 9.8642 37.1358 1 3.7647 1.125 4.2353 14.875 56z"/><path d="m533.1358 2826.8642-13.6358 13.6358 23.5 23.5z"/><path d="m496 2817-26.8642-26.8643-37.1358 9.8643z"/><path d="m533.1358 2826.8642 26.8642-26.8642v-34l-90.8642 24.1357 26.8642 26.8643 23.5 23.5z"/><path d="m560 2928v47 33h217l-9-9-23-23-96-96h-89z"/><path d="m855 2912-5.0488-17.9512-17.9512-5.0488z"/><path d="m849.9512 2894.0488 5.0488 17.9512 9 32 18-64h-36z"/><path d="m832 2999-9 9h23l9-32z"/><path d="m745 2912-14.0488 14.0488 5.0488 17.9512z"/><path d="m768 2889 32-9h-16-66l6.0109 21.3719z"/><path d="m777 3008h7 16l-32-9z"/><path d="m736 2944-5.0488-17.9512-6.9403-24.6769-6.0109-21.3719h-69l96 96z"/><path d="m745 2912 23-23-43.9891 12.3719 6.9403 24.6769z"/><path d="m800 3008h23l9-9z"/><path d="m832 2889 17.9512 5.0488-3.9512-14.0488h-46z"/><path d="m1070 2880h-62-126l-18 64-9 32-9 32h162 62z"/><path d="m1294 2880h-62-162v128h162 62z"/><path d="m1376 3008v-128h-82v128z"/><path d="m784 2800h-224v80h89 69 66z"/><path d="m1008 2800h-224v80h16 46 36 126z"/><path d="m1232 2800h-224v80h62 162z"/><path d="m1376 2810v-10h-144v80h62 82z"/><path d="m480 2432h80v-128h-80z"/><path d="m336 2304v97 31h16v-128z"/><path d="m1600 2800h-144-80v10l224 63z"/><path d="m1824 2800h-144-80v73l24.8889 7 103.1111 29 96 27z"/><path d="m1952 2903v-103h-48-80v136l128 36z"/><path d="m1600 2873-224-63v70h128 96z"/><path d="m1624.8889 2880-24.8889-7v7z"/><path d="m784 3008h-7-217v16h96 128z"/><path d="m1008 3008h-162-23-23-16v16h96 128z"/><path d="m1232 3008h-162-62v16h96 128z"/><path d="m1456 3008h-80-82-62v16h96 128z"/><path d="m1680 3008h-176-48v16h96 128z"/><path d="m1904 3008h-176-48v16h96 128z"/><path d="m2000 3024h136.8889l-38.9377-10.9512-17.9512-5.0488h-128-48v16z"/><path d="m2288 2817-37.1357 9.8642-9.8643 37.1358z"/><path d="m2238.875 2872 2.125-8 9.8643-37.1358-50.1875 13.331 1.4494 5.4568 13.2688 49.9529 8.605 32.3951z"/><path d="m2241 2992 8.5 32h23.5z"/><path d="m2224 3024h25.5l-8.5-32-17-64-8.605-32.3951-80.395 80.3951-23 23-14.0488 14.0488 38.9377 10.9512z"/><path d="m2016 2944-11.9891-42.6281-28.5109-101.3719h-23.5v103l73 73z"/><path d="m2048 2889-17.9512 5.0488-5.0488 17.9512z"/><path d="m2169.0435 2854.9565-71.0923 19.9947 14.0488 14.0488 23 23 14.0488 14.0488z"/><path d="m2144 2944 5.0488-17.9512-14.0488-14.0488z"/><path d="m1728 2909-103.1111-29h-24.8889-96v128h176 48z"/><path d="m1952 2972-128-36-96-27v99h176 48z"/><path d="m2080 3008-32-9-96-27v36z"/><path d="m2097.9512 2874.9512-17.9512 5.0488 32 9z"/><path d="m2080 3008 17.9512 5.0488 14.0488-14.0488z"/><path d="m2025 2912 5.0488-17.9512-26.0379 7.3231 11.9891 42.6281z"/><path d="m1952 2972 96 27-23-23-73-73z"/><path d="m2202.1262 2845.652-33.0827 9.3045-19.9947 71.0923-5.0488 17.9512-9 32 80.395-80.3951z"/><path d="m2200.6768 2840.1952-10.6768-40.1952h-62-152.5l28.5109 101.3719 26.0379-7.3231 17.9512-5.0488 32-9 17.9512-5.0488 71.0923-19.9947 33.0827-9.3045z"/><path d="m2250.8643 2826.8642 37.1357-9.8642 48-12.75v-4.25h-146l10.6768 40.1952z"/><path d="m656 3024h-96-49-79 79z"/><path d="m880 3024h-96-128 25.5z"/><path d="m1104 3024h-96-128 25.5z"/><path d="m1328 3024h-96-128 25.5z"/><path d="m1552 3024h-96-128 25.5z"/><path d="m1776 3024h-96-128 25.5z"/><path d="m2000 3024h-96-128 25.5z"/><path d="m2224 3024h-87.1111-136.8889 25.5z"/><path d="m560 2304v128 96-184.5z"/><path d="m560 2528v97 127-184.5z"/><path d="m560 2752v14 34-34z"/><path d="m2190 2800h146-146-62z"/><path d="m432 3024h-79z"/><path d="m352 2432h128z"/><path d="m480 2432v-128z"/><path d="m352 2304v128z"/><path d="m2336 2804.25-48 12.75z"/><path d="m2241 2864 47-47z"/><path d="m2241 2992-17-64z"/><path d="m2336 3051.75-48-12.75z"/><path d="m2224 2928 14.875-56z"/><path d="m2273 3024 15 15-47-47z"/><path d="m2144 2944-9-32z"/><path d="m2112 2999 23-23z"/><path d="m2112 2889-32-9z"/><path d="m2135 2976 9-32z"/><path d="m2135 2912-23-23z"/><path d="m2080 3008 32-9z"/><path d="m2048 2889-23 23z"/><path d="m2048 2999 32 9z"/><path d="m2025 2912-9 32z"/><path d="m2025 2976 23 23z"/><path d="m2080 2880-32 9z"/><path d="m2016 2944 9 32z"/><path d="m1504 2880v128z"/><path d="m1376 2880h128z"/><path d="m1376 3008v-128z"/><path d="m1456 3008h48-128z"/><path d="m855 2976 9-32z"/><path d="m855 2912-23-23z"/><path d="m832 2999 23-23z"/><path d="m832 2889-32-9z"/><path d="m800 3008 32-9z"/><path d="m864 2944-9-32z"/><path d="m543 2864 1 3.7647z"/><path d="m368 2817 64-17z"/><path d="m432 2800 64 17z"/><path d="m519.5 2840.5-23.5-23.5 47 47z"/><path d="m745 2976 23 23z"/><path d="m745 2912-9 32z"/><path d="m768 2999 32 9z"/><path d="m768 2889-23 23z"/><path d="m736 2944 9 32z"/><path d="m800 2880-32 9z"/><path d="m543 2992-23 23z"/><path d="m560 2928-17 64z"/><path d="m496 3039-64 17z"/><path d="m336 3007-15-15-17-64 17-64 15-15z"/><path d="m336 991-15-15-17-64 17-64 15-15z"/><path d="m304 2928 17-64z"/><path d="m321 2864 15-15z"/><path d="m321 976-17-64z"/><path d="m344.5 3015.5-8.5 8.5h17z"/><path d="m336 3007v17l8.5-8.5z"/><path d="m353 3024h-17z"/><path d="m344.5 824.5-8.5-8.5v17z"/><path d="m336 816 8.5 8.5 8.5-8.5z"/><path d="m336 816v17z"/><path d="m2224 784h128-176-32z"/><path d="m656 784h-128-96 32z"/><path d="m880 784h-128-96 32z"/><path d="m1104 784h-176-48 32z"/><path d="m1328 784h-176-48 32z"/><path d="m1552 784h-176-48 32z"/><path d="m1776 784h-80-96-48 32z"/><path d="m2000 784h-80-144 32z"/><path d="m2224 784h-80-144 32z"/><path d="m1696 784h-64-32z"/><path d="m880 784h48-176z"/><path d="m1152 3056h-16-208 32z"/><path d="m1376 3056h-16-208 32z"/><path d="m1600 3056h-16-208 32z"/><path d="m1824 3056h-16-208 32 64 32z"/><path d="m1824 3056h128-129-15z"/><path d="m528 3056h-64-32-128z"/><path d="m752 3056h-64-160z"/><path d="m432 3056h32z"/><path d="m304 816v-32 80z"/><path d="m304 3056v-32-2-94-79-17z"/><path d="m304 2832v-207-17z"/><path d="m304 2608v-176z"/><path d="m368 801 64-17h-94l-7.1358 26.8643z"/><path d="m336 833v224-42.5-23.5z"/><path d="m336 1057v224-42.5z"/><path d="m336 1281v224-97z"/><path d="m336 1505v224-193z"/><path d="m336 1729v224-193z"/><path d="m336 1953v224-193z"/><path d="m336 2177v224-97-96z"/><path d="m336 2401v224-193z"/><path d="m336 2625v224-193z"/><path d="m336 2849v158z"/><path d="m2352 1040-16-4.25z"/><path d="m2352 784-16 4.25z"/><path d="m432 1264v144 80-8.5z"/><path d="m432 1488v144 80-8.5z"/><path d="m432 1712v144 80-8.5z"/><path d="m432 1936v144 80-8.5z"/><path d="m432 2160v144z"/><path d="m2049 816h-129-95 168.5z"/><path d="m1825 816h-129-42.8643-52.1357 173z"/><path d="m1601 816h-171.8643-52.1357 173z"/><path d="m1377 816h-171.8643-52.1357 223z"/><path d="m1153 816h-171.8642-52.1358 223z"/><path d="m929 816h-171.8642-52.1358 8.5 143.3889 29.6111 41.5z"/><path d="m705 816h-119.5-51-23.5-30 30 23.5 25.5z"/><path d="m481 816h-49z"/><path d="m481 816h30l-15-15-32-8.5-32-8.5v32z"/><path d="m1920 925.25-224-59.5v-49.75h129 95z"/><path d="m2144 984.75-224-59.5v-109.25h129 95z"/><path d="m2198.5 816 25.5 96 17 64 9.8643 37.1357-106.8643-28.3857v-168.75z"/><path d="m2198.5 816h51l-8.5 32-17 64z"/><path d="m2241 848 8.5-32h23.5z"/><path d="m1920 1040h-32-192v-174.25l224 59.5z"/><path d="m2144 1040h-32-192v-114.75l224 59.5z"/><path d="m2250.8643 1013.1357 37.1357 9.8643 48 12.75v4.25h-192v-55.25z"/><path d="m2288 1023-37.1357-9.8643-9.8643-37.1357z"/><path d="m757.1358 1040h-197.1358l-26.8642-26.8643 9.8642-37.1357 17-64 25.5-96h119.5 52.1358z"/><path d="m981.1358 1040h-213.1358-10.8642v-224h171.8642 52.1358z"/><path d="m1205.1357 1040h-213.1357-10.8642v-224h171.8642 52.1357z"/><path d="m1429.1357 1040h-213.1357-10.8643v-224h171.8643 52.1357z"/><path d="m1653.1357 1040h-213.1357-10.8643v-224h171.8643 52.1357z"/><path d="m1696 816v49.75 174.25h-32-10.8643v-224z"/><path d="m585.5 816-25.5 96-17-64-8.5-32z"/><path d="m519.5 999.5 13.6358 13.6357-37.1358 9.8643z"/><path d="m511 816h23.5l8.5 32z"/><path d="m533.1358 1013.1357-13.6358-13.6357 23.5-23.5z"/><path d="m560 2080v80 144h-96v-224z"/><path d="m560 1856v80 144h-96v-224z"/><path d="m560 1632v80 144h-96v-224z"/><path d="m560 1408v80 144h-96v-224z"/><path d="m560 1184v80 144h-96v-224z"/><path d="m464 1031.5 32-8.5 37.1358-9.8643 26.8642 26.8643v144h-96z"/><path d="m464 2080v224h-32v-144-80z"/><path d="m464 1856v224h-32v-144-80z"/><path d="m464 1632v224h-32v-144-80z"/><path d="m464 1408v224h-32v-144-80z"/><path d="m464 1184v224h-32v-144-80z"/><path d="m432 1040 32-8.5v152.5h-32z"/><path d="m2336 1035.75-48-12.75z"/><path d="m511 816 32 32z"/><path d="m560 1184v-144 34 164.5 25.5z"/><path d="m2144 1040h192-224z"/><path d="m353 816h79v-32l-64 17z"/><path d="m432 816h-79z"/><path d="m2336 2800v4.25z"/><path d="m432 2304v56.5 167.5z"/><path d="m432 2528v56.5 167.5z"/><path d="m432 2752v48z"/><path d="m2249.5 3024h23.5-23.5-25.5z"/><path d="m560 2567.5v184.5 14l-90.8642 24.1357-5.1358 1.3643v-207-17z"/><path d="m560 2343.5v184.5 39.5h-96v-207-17z"/><path d="m560 2304v39.5h-96v-39.5z"/><path d="m2241 2864 9.8643-37.1358 37.1357-9.8642z"/><path d="m2190 2800h146v4.25l-48 12.75-37.1357 9.8642-50.1875 13.331z"/><path d="m2128 2800h62l10.6768 40.1952 23.3232 87.8048 17 64 8.5 32h-25.5-198.5v-224z"/><path d="m2025.5 3024h-25.5-198.5v-224h102.5 121.5z"/><path d="m1801.5 3024h-25.5-198.5v-224h102.5 121.5z"/><path d="m1577.5 3024h-25.5-198.5v-224h102.5 121.5z"/><path d="m1353.5 3024h-25.5-198.5v-224h102.5 121.5z"/><path d="m1129.5 3024h-25.5-198.5v-224h102.5 121.5z"/><path d="m905.5 3024h-25.5-198.5v-170.5l53.5-53.5h49 121.5z"/><path d="m681.5 3024h-25.5-145l32-32 138.5-138.5z"/><path d="m2273 3024h-23.5l-8.5-32z"/><path d="m2241 2864-17 64-23.3232-87.8048 50.1875-13.331z"/><path d="m560 2800h34l-34 128-17-64-9.8642-37.1358z"/><path d="m560 2928 34-128h141l-53.5 53.5-138.5 138.5z"/><path d="m519.5 2840.5 13.6358-13.6358 9.8642 37.1358z"/><path d="m464 2791.5 5.1358-1.3643 26.8642 26.8643-32-8.5z"/><path d="m560 2766v34l-26.8642 26.8642-13.6358 13.6358-23.5-23.5-26.8642-26.8643z"/><path d="m2273 3024-32-32z"/><path d="m784 2800h-49-141-34z"/><path d="m1008 2800h-102.5-121.5z"/><path d="m1232 2800h-102.5-121.5z"/><path d="m1456 2800h-102.5-121.5 144z"/><path d="m1680 2800h-102.5-121.5 144z"/><path d="m1904 2800h-102.5-121.5 144z"/><path d="m2128 2800h-102.5-121.5 48 23.5z"/><path d="m464 2584.5v207 17l-32-8.5v-48-167.5z"/><path d="m464 2360.5v207 17h-32v-56.5-167.5z"/><path d="m464 2304v39.5 17h-32v-56.5z"/><path d="m2273 3024 15 15z"/><path d="m496 3039 15-15h-79v32z"/><path d="m511 3024-15 15z"/><path d="m432 3056v-32h-79l15 15z"/><path d="m321 848-17 64v145h32v-224z"/><path d="m304 1057v31 193h32v-224z"/><path d="m304 1281v31 193h32v-224z"/><path d="m304 1505v31 193h32v-224z"/><path d="m304 1729v31 193h32v-224z"/><path d="m304 1953v31 193h32v-224z"/><path d="m304 2177v31 193h32v-224z"/><path d="m304 2401v31 176 17h32v-224z"/><path d="m304 2625v207 17h32v-224z"/><path d="m304 2849v79l17 64 15 15v-158z"/><path d="m321 2992 8.5 32h6.5v-17z"/><path d="m336 3007v17z"/><path d="m353 3024h-17-6.5l1.3642 5.1358 37.1358 9.8642z"/><path d="m353 816h-17z"/><path d="m329.5 816h6.5 17l15-15-37.1358 9.8643z"/><path d="m336 816h-6.5l-8.5 32 15-15z"/><path d="m304 816h25.5l1.3642-5.1357 7.1358-26.8643h-34z"/><path d="m321 848 8.5-32h-25.5v48 48z"/><path d="m329.5 3024h-17.9706l19.3348 5.1358z"/><path d="m321 2992-17-64v94l7.5294 2h17.9706z"/><path d="m304 3022v2h7.5294z"/><path d="m304 3056h128l-64-17-37.1358-9.8642-19.3348-5.1358h-7.5294z"/><path d="m688 784h-32-192 62 68z"/><path d="m912 784h-32-192 112z"/><path d="m1136 784h-32-192 112z"/><path d="m1360 784h-32-192 112z"/><path d="m1584 784h-32-192 112z"/><path d="m1808 784h-32-192 112 106.8643z"/><path d="m2032 784h-32-192 218.8643z"/><path d="m2256 784h-32-192 158z"/><path d="m2256 784h96-128z"/><path d="m432 1255.5v-215.5 144 80z"/><path d="m464 792.5 32 8.5z"/><path d="m464 792.5v-8.5h-32z"/><path d="m432 784 32 8.5z"/><path d="m464 1031.5 32-8.5-32 8.5-32 8.5z"/><path d="m464 1255.5v224-18.3643z"/><path d="m464 1479.5v224-18.3643z"/><path d="m464 1703.5v224-18.3643z"/><path d="m464 1927.5v224-18.3643z"/><path d="m464 2151.5v152.5z"/><path d="m464 1031.5-32 8.5v215.5h32z"/><path d="m432 1255.5v8.5 215.5h32v-224z"/><path d="m432 1479.5v8.5 215.5h32v-224z"/><path d="m432 1703.5v8.5 215.5h32v-224z"/><path d="m432 1927.5v8.5 215.5h32v-224z"/><path d="m432 2151.5v8.5 144h32v-152.5z"/><path d="m464 2304v224-170.8643z"/><path d="m464 2528v224-170.8643z"/><path d="m464 2752v56.5-17z"/><path d="m464 2808.5 32 8.5z"/><path d="m432 2304v224h32v-224z"/><path d="m432 2528v224h32v-224z"/><path d="m432 2752v48l32 8.5v-56.5z"/><path d="m432 2800 32 8.5z"/><path d="m432 3056h32v-8.5z"/><path d="m464 3047.5v8.5z"/><path d="m464 3047.5 32-8.5-64 17z"/></g><g id="c"><path d="m464 3056h15l17-17-32 8.5z"/><path d="m469.1358 2790.1357 26.8642 26.8643 23.5 23.5 13.6358-13.6358 26.8642-26.8642v-34z"/><path d="m496 2817-26.8642-26.8643-5.1358 1.3643v17z"/><path d="m533.1358 2826.8642-13.6358 13.6358 23.5 23.5z"/><path d="m543 2864 17 64 34-128h-34l-26.8642 26.8642z"/><path d="m703 2832 32-32h-141l-34 128-17 64z"/><path d="m703 2832-160 160-32 32-15 15-17 17h209 15z"/><path d="m784 2800h-49l-32 32v224h209 15v-256z"/><path d="m927 3056h209 15v-256h-143-81z"/><path d="m1151 3056h209 15v-256h-143-81z"/><path d="m1375 3056h209 15v-256h-143-81z"/><path d="m1599 3056h209 15v-256h-143-81z"/><path d="m1823 3056h129v-106.25-149.75h-48-81z"/><path d="m2288 2817-37.1357 9.8642-9.8643 37.1358z"/><path d="m2176 2800h-48-176v149.75l224 59.5z"/><path d="m2250.8643 3029.1358-9.8643-37.1358-17-64-23.3232-87.8048-10.6768-40.1952h-14v209.25z"/><path d="m2273 3024-32-32 9.8643 37.1358 37.1357 9.8642z"/><path d="m2241 2864 9.8643-37.1358-50.1875 13.331 23.3232 87.8048z"/><path d="m2250.8643 2826.8642 37.1357-9.8642 48-12.75 16-4.25h-16-146l10.6768 40.1952z"/><path d="m2176 3009.25-224-59.5v106.25h224z"/><path d="m2352 3056-16-4.25-48-12.75-37.1357-9.8642-74.8643-19.8858v46.75z"/><path d="m560 1040-26.8642-26.8643-37.1358 9.8643-32 8.5v205.6357h96z"/><path d="m464 1237.1357v18.3643 205.6357h96v-197.1357-26.8643z"/><path d="m464 1461.1357v18.3643 205.6357h96v-197.1357-26.8643z"/><path d="m464 1685.1357v18.3643 205.6357h96v-197.1357-26.8643z"/><path d="m464 1909.1357v18.3643 205.6357h96v-197.1357-26.8643z"/><path d="m464 2133.1357v18.3643 152.5 53.1357h96v-197.1357-26.8643z"/><path d="m464 2357.1357v170.8643 53.1357h96v-197.1357-26.8643z"/><path d="m464 2581.1357v170.8643 39.5l5.1358-1.3643 90.8642-24.1357v-158-26.8643z"/><path d="m519.5 999.5 13.6358 13.6357 9.8642-37.1357z"/><path d="m533.1358 1013.1357-13.6358-13.6357-23.5 23.5z"/><path d="m496 801 37.1358 9.8643-7.1358-26.8643h-62v8.5z"/><path d="m533.1358 810.8643-37.1358-9.8643 15 15 32 32z"/><path d="m533.1358 810.8643 9.8642 37.1357 17 64 16-60.2354 18-67.7646h-68z"/><path d="m1664 1040h32v-174.25-81.75h-112-112v256z"/><path d="m1472 784h-112-112v256h192 32z"/><path d="m1248 784h-112-112v256h192 32z"/><path d="m1024 784h-112-112v256h192 32z"/><path d="m800 784h-112-94l-18 67.7646v188.2354h192 32z"/><path d="m576 851.7646-16 60.2354-17 64-9.8642 37.1357 26.8642 26.8643h16z"/><path d="m2241 848 9.8643-37.1357-50.1875 13.331 23.3232 87.8047z"/><path d="m2241 976 9.8643 37.1357 37.1357 9.8643z"/><path d="m2026.8643 953.6357 101.1357 26.8643 122.8643 32.6357-9.8643-37.1357-17-64-23.3232-87.8047-10.6768-40.1953h-158-5.1357z"/><path d="m1802.8643 894.1357 101.1357 26.8643 122.8643 32.6357v-169.6357h-218.8643-5.1357z"/><path d="m1696 784v81.75l106.8643 28.3857v-110.1357z"/><path d="m2273 816 15-15-37.1357 9.8643-9.8643 37.1357z"/><path d="m2250.8643 810.8643 37.1357-9.8643 48-12.75 16-4.25h-96-66l10.6768 40.1953z"/><path d="m2336 1040h16l-16-4.25-48-12.75-37.1357-9.8643-122.8643-32.6357v59.5z"/><path d="m2128 980.5-101.1357-26.8643-122.8643-32.6357v119h208 16z"/><path d="m1904 921-101.1357-26.8643-106.8643-28.3857v174.25h192 16z"/><path d="m560 1264v197.1357 26.8643z"/><path d="m560 1488v197.1357 26.8643z"/><path d="m560 1712v197.1357 26.8643z"/><path d="m560 1936v197.1357 26.8643z"/><path d="m560 2160v197.1357 26.8643z"/><path d="m560 2384v197.1357 26.8643z"/><path d="m560 2608v158 34z"/><path d="m2336 1152v-80-32 192z"/><path d="m2112 1040h-208-16 16z"/><path d="m1888 1040h-192-32 16z"/><path d="m1664 1040h-192-32 16z"/><path d="m1440 1040h-192-32 16z"/><path d="m1216 1040h-192-32 16z"/><path d="m992 1040h-192-32 16z"/><path d="m768 1040h-192-16z"/><path d="m2176 2800h14 146-208z"/><path d="m2352 784h-96z"/><path d="m2176 3056h-224z"/><path d="m2352 3056h-176z"/><path d="m688 3056h-209-15 64z"/><path d="m912 3056h-209-15 64z"/><path d="m1136 3056h-209-15 16z"/><path d="m1360 3056h-209-15 16z"/><path d="m1584 3056h-209-15 16z"/><path d="m1808 3056h-209-15 16z"/><path d="m2336 1072v80z"/><path d="m2336 1376v80 144z"/><path d="m2336 1600v64z"/><path d="m2336 1664v16 208z"/><path d="m2336 1888v16 16z"/><path d="m2336 1952v176 48z"/><path d="m2352 1040-16-4.25z"/><path d="m496 801 15 15z"/><path d="m2336 788.25-48 12.75z"/><path d="m2288 801-15 15z"/><path d="m464 784v8.5z"/><path d="m2241 848 32-32z"/><path d="m2241 976-17-64z"/><path d="m2224 912 17-64z"/><path d="m2288 1023-47-47z"/><path d="m496 1023-32 8.5z"/><path d="m543 848 17 64z"/><path d="m560 912-17 64z"/><path d="m519.5 999.5 23.5-23.5-23.5 23.5-23.5 23.5z"/><path d="m464 1237.1357v-205.6357 224z"/><path d="m2336 2768v32z"/><path d="m2336 2688v80z"/><path d="m2336 2464v112 112z"/><path d="m2336 2304v48 112z"/><path d="m2352 2800-16 4.25z"/><path d="m2241 2992-17-64z"/><path d="m2241 2864 47-47z"/><path d="m2224 2928 17-64z"/><path d="m2288 2817 48-12.75z"/><path d="m543 2992-32 32z"/><path d="m519.5 2840.5-23.5-23.5 23.5 23.5 23.5 23.5z"/><path d="m560 2928-17 64z"/><path d="m543 2864 17 64z"/><path d="m2288 3039 48 12.75z"/><path d="m496 3039-32 8.5z"/><path d="m560 1040v224h23.1724 59.2184v-141.6091z"/><path d="m560 1264v224h23.1724v-224z"/><path d="m560 1712v224h14.3448 16v-224z"/><path d="m560 1936v224h14.3448v-224z"/><path d="m560 2608v192l50.3908-50.3907v-141.6093z"/><path d="m560 1040v197.1357 26.8643z"/><path d="m1008 1040h-16-208v23.1724h224z"/><path d="m1680 1040h-16-208v14.6306h224z"/><path d="m1904 1040h-16-208v14.6306 63.2183h224z"/><path d="m2336 1040h-208v62.6765h144.1838z"/><path d="m2336 2576v80 144-32-80z"/><path d="m2336 2352v80 144-112z"/><path d="m2336 2128v80 144-48-128z"/><path d="m2336 1904v80 144-176-32z"/><path d="m2336 1680v32 144 48-16z"/><path d="m2336 1456v32 192-16-64z"/><path d="m2336 1232v32 192-80z"/><path d="m2128 1040h208-208-16z"/><path d="m2336 1488v-32-192h-23.5938v224z"/><path d="m2336 1712v-32-192h-23.5938-83.8889v224z"/><path d="m784 2800h-224 34 141z"/><path d="m1008 2800h-224 143z"/><path d="m1232 2800h-224 143z"/><path d="m1456 2800h-224 143z"/><path d="m1680 2800h-224 143z"/><path d="m1904 2800h-224 143z"/><path d="m2128 2800h-224 48z"/><path d="m1456 2800h224v-14.6305h-224z"/><path d="m2128 2800h208l-63.8162-62.6765h-144.1838z"/><path d="m2336 1984v-80-48h-25.1875v128z"/><path d="m2336 2432v-80-144h-26.0281v224z"/><path d="m2336 2656v-80-144h-26.0281-60.2949v224z"/><path d="m574.3448 2160h59.2184 82.3908v-224h-125.6092-16z"/><path d="m574.3448 2160h-14.3448v224h73.5632v-224z"/><path d="m1456 1054.6306v-14.6306h-16-208v30.3447h224z"/><path d="m1456 1054.6306v15.7141 125.895h224v-78.3908-63.2183z"/><path d="m1680 2785.3695v-63.2184-78.3908h-224v125.8949 15.7143z"/><path d="m1680 2785.3695v14.6305h224v-77.8489h-224z"/><path d="m583.1724 1488h82.3908 59.2184v-224h-82.3908-59.2184z"/><path d="m583.1724 1488h-23.1724v224h30.3448 75.2184v-224z"/><path d="m784 1063.1724v-23.1724h-16-208l82.3908 82.3909h141.6092z"/><path d="m784 1063.1724v59.2185 82.3906h224v-59.2183-82.3908z"/><path d="m2312.4062 1264h23.5938v-32-192l-63.8162 62.6765-20.0727 19.7144v141.6091z"/><path d="m2312.4062 1264h-60.2951-83.8887v224h60.2949 83.8889z"/><path d="m784 2776.8276v23.1724h224v-23.1724z"/><path d="m2310.8125 1856h-84.7292-59.4546v128h59.4546 84.7292z"/><path d="m2309.9719 2208h26.0281v-80-144h-25.1875-84.7292v224z"/><path d="m2309.9719 2208h-83.8886-60.2952v224h83.8889 60.2949z"/><path d="m590.3448 1936h125.6092 16v-224h-66.3908-75.2184z"/><path d="m1232 1070.3447v-30.3447h-16-208v23.1724 82.3908h224z"/><path d="m1232 1070.3447v75.2185 66.3909h224v-15.7144-125.895z"/><path d="m1232 2769.6552v30.3448h224v-14.6305-15.7143z"/><path d="m610.3908 2749.6093 32-32 109.6092-109.6093h-59.2184-82.3908z"/><path d="m2128 1102.6765v-62.6765h-16-208v77.8489 63.2185h224z"/><path d="m2128 1102.6765v78.3909 63.2182l124.1111-121.8947 20.0727-19.7144z"/><path d="m2272.1838 2737.3235-82.802-81.3235-61.3818-60.2858v63.2184 78.3909z"/><path d="m2272.1838 2737.3235 63.8162 62.6765v-144h-86.323-60.2952z"/><path d="m633.5632 2384h59.2184 82.3908v-224h-59.2184-82.3908z"/><path d="m633.5632 2384h-73.5632v224h50.3908 82.3908v-224z"/><path d="m1680 1117.8489v78.3908 63.2183h224v-78.3906-63.2185z"/><path d="m1904 2722.1511v-63.2185-78.3907h-224v63.2184 78.3908z"/><path d="m1904 2722.1511v77.8489h224v-62.6765-78.3909h-224z"/><path d="m642.3908 1264h82.3908 59.2184l-141.6092-141.6091z"/><path d="m642.3908 1122.3909 141.6092 141.6091v-59.2185-82.3906z"/><path d="m2252.1111 1122.3909-124.1111 121.8947-20.0728 19.7144h60.2952 83.8887z"/><path d="m642.3908 2717.6093-32 32-50.3908 50.3907h224v-23.1724-59.2183z"/><path d="m2249.677 2432h-83.8889-60.2952v141.6093l22.5071 22.1049 61.3818 60.2858h60.2952z"/><path d="m665.5632 1712h66.3908 75.2184v-224h-82.3908-59.2184z"/><path d="m1008 1145.5632v59.2183 82.3909h224v-75.2183-66.3909z"/><path d="m2228.5173 1488h-60.2949-83.8889v224h141.7498 2.434z"/><path d="m1008 2694.4368v82.3908 23.1724h224v-30.3448-75.2184z"/><path d="m2226.0833 1856h84.7292 25.1875v-144h-107.4827-2.434z"/><path d="m2226.0833 1984h-59.4546-84.7295v224h83.8889 60.2952z"/><path d="m692.7816 2608h59.2184l32-32 50.3908-50.3907v-141.6093h-59.2184-82.3908z"/><path d="m1904 1181.0674v78.3906 63.2185h144.1838l59.7434-58.6765 20.0728-19.7144v-63.2182z"/><path d="m2128 2658.9326v-63.2184l-22.5071-22.1049-57.3091-56.2858h-144.1838v63.2184 78.3907z"/><path d="m715.954 2160h59.2184 82.3908v-224h-125.6092-16z"/><path d="m1456 1196.2397v15.7144 125.8948h224v-78.3909-63.2183z"/><path d="m1680 2643.7603v-63.2184-78.3908h-224v125.8949 15.7143z"/><path d="m724.7816 1488h82.3908 59.2184v-141.6091l-82.3908-82.3909h-59.2184z"/><path d="m784 1204.7815v59.2185l82.3908 82.3909h141.6092v-59.2185-82.3909z"/><path d="m2168.2224 1264h-60.2952l-59.7434 58.6765-24.1453 23.7144v141.6091h60.295 83.8889z"/><path d="m784 2635.2184v-59.2184l-32 32-109.6092 109.6093h141.6092z"/><path d="m784 2635.2184v82.3909 59.2183h224v-82.3908-59.2184z"/><path d="m2166.6287 1856h-84.7295-59.4544v128h59.4544 84.7295z"/><path d="m2165.7881 2208h-83.8889-60.2951v224h83.8888 60.2952z"/><path d="m731.954 1936h125.6092 16v-224h-66.3908-75.2184z"/><path d="m1232 1211.9541v75.2183 66.3908h224v-15.7143-125.8948z"/><path d="m1232 2628.046v66.3908 75.2184h224v-125.8949-15.7143z"/><path d="m775.1724 2384h59.2184 82.3908v-224h-59.2184-82.3908z"/><path d="m1680 1259.458v78.3909 63.2185h224v-78.3909-63.2185z"/><path d="m1904 2580.5419v-63.2184-78.3909h-224v63.2185 78.3908z"/><path d="m2105.4929 2432h-83.8888-60.295l86.8747 85.3235 57.3091 56.2858z"/><path d="m807.1724 1712h66.3908 75.2184v-224h-82.3908-59.2184z"/><path d="m1008 1287.1724v59.2185 82.3906h224v-75.2183-66.3908z"/><path d="m2084.3335 1488h-60.295-83.8888v224h141.7495 2.4343z"/><path d="m1008 2552.8276v82.3908 59.2184h224v-66.3908-75.2184z"/><path d="m2081.8992 1856h84.7295 59.4546v-144h-141.7498-2.4343z"/><path d="m2081.8992 1984h-59.4544-84.7295v224h83.8888 60.2951z"/><path d="m834.3908 2525.6093 32-32 109.6092-109.6093h-59.2184-82.3908z"/><path d="m1904 1322.6765v78.3909 63.2182l120.0385-117.8947 24.1453-23.7144z"/><path d="m2048.1838 2517.3235-86.8747-85.3235-57.3091-56.2858v63.2184 78.3909z"/><path d="m857.5632 2160h59.2184 82.3908v-224h-125.6092-16z"/><path d="m1456 1337.8489v15.7143 125.8948h224v-78.3906-63.2185z"/><path d="m1680 2502.1511v-63.2185-78.3907h-224v125.8949 15.7143z"/><path d="m866.3908 1488h82.3908 59.2184l-141.6092-141.6091z"/><path d="m866.3908 1346.3909 141.6092 141.6091v-59.2185-82.3906z"/><path d="m2024.0385 1346.3909-120.0385 117.8947-24.1455 23.7144h60.2952 83.8888z"/><path d="m866.3908 2493.6093-32 32-50.3908 50.3907v59.2184h224v-82.3908-59.2183z"/><path d="m2022.4448 1856h-84.7295-59.4544v128h59.4544 84.7295z"/><path d="m2021.6041 2208h-83.8888-60.295v141.6093l26.5797 26.1049 57.3091 56.2858h60.295z"/><path d="m873.5632 1936h125.6092 16v-224h-66.3908-75.2184z"/><path d="m1232 1353.5632v75.2183 66.3909h224v-15.7144-125.8948z"/><path d="m1232 2486.4368v66.3908 75.2184h224v-125.8949-15.7143z"/><path d="m916.7816 2384h59.2184l32-32 50.3907-50.3907v-141.6093h-59.2183-82.3908z"/><path d="m1680 1401.0674v78.3906 63.2185h144.184l55.6705-54.6765 24.1455-23.7144v-63.2182z"/><path d="m1904 2438.9326v-63.2184l-26.5797-26.1049-53.2363-52.2858h-144.184v63.2184 78.3907z"/><path d="m948.7816 1712h66.3908 75.2183v-141.6091l-82.3907-82.3909h-59.2184z"/><path d="m1008 1428.7815v59.2185l82.3907 82.3909h141.6093v-75.2185-66.3909z"/><path d="m1940.1497 1488h-60.2952l-55.6705 54.6765-28.2183 27.7144v141.6091h141.7496 2.4344z"/><path d="m1008 2411.2184v-59.2184l-32 32-109.6092 109.6093h141.6092z"/><path d="m1008 2411.2184v82.3909 59.2183h224v-66.3908-75.2184z"/><path d="m1937.7153 1856h84.7295 59.4544v-144h-141.7495-2.4344z"/><path d="m1937.7153 1984h-59.4544-32.1392-52.5902v224h83.8888 60.295z"/><path d="m999.1724 2160h59.2183 82.3909v-224h-125.6092-16z"/><path d="m1456 1479.458v15.7144 125.895h224v-78.3909-63.2185z"/><path d="m1680 2360.5419v-63.2184-78.3909h-224v125.895 15.7143z"/><path d="m1876 1856h2.2609-32.1392-2.1217z"/><path d="m1876 1856v128h2.2609v-128z"/><path d="m1876 1984v-128h-32v128z"/><path d="m1878.2609 1984h-2.2609-32 2.1217z"/><path d="m1877.4203 2208h-83.8888-60.2952l90.9477 89.3235 53.2363 52.2858z"/><path d="m1015.1724 1936h125.6092 16v-224h-66.3909-75.2183z"/><path d="m1232 1495.1724v75.2185 66.3906h224v-15.7141-125.895z"/><path d="m1232 2344.8276v66.3908 75.2184h224v-125.8949-15.7143z"/><path d="m1844 1984v-128h2.1217v128z"/><path d="m1058.3907 2301.6093 32-32 109.6093-109.6093h-59.2184-82.3909z"/><path d="m1680 1542.6765v78.3909 63.2182l115.9657-113.8947 28.2183-27.7144z"/><path d="m1824.184 2297.3235-90.9477-89.3235-53.2363-52.2858v63.2184 78.3909z"/><path d="m1090.3907 1712h66.3909 75.2184l-141.6093-141.6091z"/><path d="m1090.3907 1570.3909 141.6093 141.6091v-75.2185-66.3906z"/><path d="m1795.9657 1570.3909-115.9657 113.8947-28.2181 27.7144h141.7496 2.4342z"/><path d="m1090.3907 2269.6093-32 32-50.3907 50.3907v59.2184h224v-66.3908-75.2183z"/><path d="m1793.5315 1856h52.5902 32.1392 59.4544v-144h-141.7496-2.4342z"/><path d="m1793.5315 1984h52.5902v-128h-52.5902-65.1637v128z"/><path d="m1793.5315 1984h-65.1637-79.0203v141.6093l30.6525 30.1049 53.2363 52.2858h60.2952z"/><path d="m1140.7816 2160h59.2184l32-32 50.3907-50.3907v-141.6093h-125.6091-16z"/><path d="m1456 1621.0674v15.7141 125.895h144.184l49.1635-48.2856 2.4344-2.3909 28.2181-27.7144v-63.2182z"/><path d="m1680 2218.9326v-63.2184l-30.6525-30.1049-49.1635-48.2858h-144.184v125.8949 15.7142z"/><path d="m1156.7816 1936h125.6091 16v-157.6091l-66.3907-66.3909h-75.2184z"/><path d="m1232 1636.7815v75.2185l66.3907 66.3909h157.6093v-15.7144-125.895z"/><path d="m1232 2203.2184v-75.2184l-32 32-109.6093 109.6093h141.6093z"/><path d="m1232 2203.2184v66.3909 75.2183h224v-125.895-15.7142z"/><path d="m1728.3678 1856h-79.0203-65.1635v128h65.1635 79.0203z"/><path d="m1649.3475 1856h79.0203 65.1637v-144h-141.7496l-2.4344 2.3909z"/><path d="m1649.3475 1984h-65.1635-79.0203l95.0203 93.3235 49.1635 48.2858z"/><path d="m1282.3907 2077.6093 16-16 125.6093-125.6093h-125.6093-16z"/><path d="m1456 1762.6765v15.7144 125.8949l49.1637-48.2858 95.0203-93.3235z"/><path d="m1600.184 1762.6765-95.0203 93.3235h79.0203 65.1635v-141.6091z"/><path d="m1600.184 2077.3235-95.0203-93.3235-49.1637-48.2858v125.8951 15.7142z"/><path d="m1298.3907 1936h125.6093l16-16-141.6093-141.6091z"/><path d="m1298.3907 1778.3909 141.6093 141.6091 16-15.7142v-125.8949z"/><path d="m1298.3907 2061.6093-16 16-50.3907 50.3907v75.2184h224v-125.8949-15.7142z"/><path d="m1584.184 1856h-79.0203l-49.1637 48.2858-16 15.7142 16 15.7142 49.1637 48.2858h79.0203z"/><path d="m1440 1920-16 16-125.6093 125.6093h157.6093v-125.8951z"/></g></defs><g stroke="#000"><use fill="none" stroke-miterlimit="0" stroke-width="10" xlink:href="#a"/><use fill="#ccc" xlink:href="#a"/><use fill="none" stroke-miterlimit="0" stroke-width="10" xlink:href="#b"/><use fill="#e5e5e5" xlink:href="#b"/><use fill="none" stroke-miterlimit="0" stroke-width="10" xlink:href="#c"/><use fill="#fff" xlink:href="#c"/></g></svg>