<svg viewBox="-3840 -1120 7552 2432" xmlns="http://www.w3.org/2000/svg" xmlns:xlink="http://www.w3.org/1999/xlink"><defs><g id="a"><path d="m-2048-1064v120z"/><path d="m-3136-944v116 108z"/><path d="m-2496-944v104 120z"/><path d="m-2048-720h-224z"/><path d="m-2272-1064h-224z"/><path d="m-2496-840v-104-120h224v224z"/><path d="m-2272-720h-224v-120h224z"/><path d="m-2048-1064v120 104h-224v-224z"/><path d="m-2048-840v120h-224v-120z"/><path d="m-2688-1052v108z"/><path d="m-2912-1052h-224z"/><path d="m-2688-720h-224z"/><path d="m-3136-828v-116-108h224v224z"/><path d="m-2912-720h-224v-108h224z"/><path d="m-2688-1052v108 116h-224v-224z"/><path d="m-2688-828v108h-224v-108z"/><path d="m-3776-944v128 96z"/><path d="m-3328-1040v96z"/><path d="m-3552-1040h-224z"/><path d="m-3328-720h-224z"/><path d="m-3776-816v-128-96h224v224z"/><path d="m-3552-720h-224v-96h224z"/><path d="m-3328-1040v96 128h-224v-224z"/><path d="m-3328-816v96h-224v-96z"/><path d="m-2048-944v224-120z"/><path d="m-2048-1064v120z"/><path d="m-3136-944v224z"/><path d="m-3136-1052v108z"/><path d="m-2496-944v224z"/><path d="m-2496-1064v120z"/><path d="m-2272-720h-224z"/><path d="m-2048-720h-224z"/><path d="m-2272-1064h-224 176z"/><path d="m-2048-1064h-224z"/><path d="m-2048-944v-120h-224-224v120 224h224 224z"/><path d="m-2048-944v224h-224-224v-224-120h224 224z"/><path d="m-2688-1052v108z"/><path d="m-2688-944v224-108z"/><path d="m-2688-1052h-224z"/><path d="m-2912-1052h-224 176z"/><path d="m-2912-720h-224z"/><path d="m-2688-720h-224z"/><path d="m-2912-720h224v-224-108h-224-224v108 224z"/><path d="m-2912-1052h224v108 224h-224-224v-224-108z"/><path d="m-3776-944v224z"/><path d="m-3776-1040v96z"/><path d="m-3328-1040v96z"/><path d="m-3328-944v224-96z"/><path d="m-3552-1040h-224 176z"/><path d="m-3328-1040h-224z"/><path d="m-3328-720h-224z"/><path d="m-3552-720h-224z"/><path d="m-3328-944v224h-224-224v-224-96h224 224z"/><path d="m-3328-944v-96h-224-224v96 224h224 224z"/><path d="m-3328-1040h-448v320h448z"/><path d="m-2688-1052h-448v332h448z"/><path d="m-2048-1064h-448v344h448z"/><path d="m-3328-1040v320z"/><path d="m-3776-720v-320z"/><path d="m-3328-720h-448z"/><path d="m-3776-1040h448z"/><path d="m-3328-720h-448v-320h448z"/><path d="m-2688-1052v332z"/><path d="m-3136-720v-332z"/><path d="m-2688-720h-448z"/><path d="m-3136-1052h448z"/><path d="m-2688-720h-448v-332h448z"/><path d="m-2048-1064v344z"/><path d="m-2496-720v-344z"/><path d="m-2048-720h-448z"/><path d="m-2496-1064h448z"/><path d="m-2048-720h-448v-344h448z"/><path d="m-2048-944v224z"/><path d="m-2048-1064v-56 176z"/><path d="m-3136-720v224z"/><path d="m-3136-944v224z"/><path d="m-3136-1052v108z"/><path d="m-2496-1064v120z"/><path d="m-2496-720v224z"/><path d="m-2496-944v224z"/><path d="m-2048-496h-224z"/><path d="m-2320-1104v40h-176v-56h176z"/><path d="m-2224-1064h-48-48v-40h96z"/><path d="m-2320-1104v-16h96v16z"/><path d="m-2048-1064h-176v-40-16h176z"/><path d="m-2272-496h-224v-224h224z"/><path d="m-2048-720v224h-224v-224z"/><path d="m-2272-720h-224z"/><path d="m-2224-1064h176-224z"/><path d="m-2688-496h-224z"/><path d="m-2864-1052h-48-48v-52h96z"/><path d="m-2960-1104v-16h96v16z"/><path d="m-2688-1052h-176v-52-16h176z"/><path d="m-2912-496h-224v-224h224z"/><path d="m-2688-720v224h-224v-224z"/><path d="m-2960-1104v52h-176v-68h176z"/><path d="m-2688-1052v-68 176z"/><path d="m-2688-944v224z"/><path d="m-2864-1052h176-224z"/><path d="m-2912-720h-224z"/><path d="m-3328-496h-224z"/><path d="m-3552-496h-224v-224h224z"/><path d="m-3328-720v224h-224v-224z"/><path d="m-3504-1040h-48-48v-64h96z"/><path d="m-3600-1104v64h-176v-80h176z"/><path d="m-3328-1040h-176v-64-16h176z"/><path d="m-3600-1104v-16h96v16z"/><path d="m-3776-720v224z"/><path d="m-3776-944v224z"/><path d="m-3328-1040v-80 176z"/><path d="m-3776-1040v96z"/><path d="m-3328-944v224z"/><path d="m-3504-1040h176-224z"/><path d="m-3552-720h-224z"/><path d="m-3504-1104h-96v8h96z"/><path d="m-2864-1104h-96v8h96z"/><path d="m-2224-1104h-96v8h96z"/><path d="m-2048-496v-224z"/><path d="m-2048-720v-224z"/><path d="m-2048-1120v176z"/><path d="m-3136-496v-224z"/><path d="m-3136-720v-224z"/><path d="m-3136-1120v68 108z"/><path d="m-2496-496v-224z"/><path d="m-2496-720v-224z"/><path d="m-2496-1120v56 120z"/><path d="m-2496-496h224z"/><path d="m-2048-496h-224z"/><path d="m-2496-1120h176z"/><path d="m-2048-1120h-176z"/><path d="m-3136-496h224z"/><path d="m-2688-496h-224z"/><path d="m-2688-1120h-176 128z"/><path d="m-2688-496v-224z"/><path d="m-2688-720v-224z"/><path d="m-2688-1120v176z"/><path d="m-3776-496h224z"/><path d="m-3328-496h-224z"/><path d="m-3776-496v-224z"/><path d="m-3776-720v-224z"/><path d="m-3776-1120v80 96z"/><path d="m-3328-496v-224z"/><path d="m-3328-720v-224z"/><path d="m-3328-1120v176z"/><path d="m-2320-1120h96z"/><path d="m-2383-1120h14 42 7-107.6667z"/><path d="m-2432-1120h14 28.2686 6.7314-44.6667-13.3333z"/><path d="m-2383-1119v-1h14v1z"/><path d="m-2383-1120v1h14v-1z"/><path d="m-2383-1119v7h10.25v-7z"/><path d="m-2432-1120h-9.1428v8h9.1428z"/><path d="m-2432-1120h14v8h-14z"/><path d="m-2450-1120h-14v8h14z"/><path d="m-2450-1120h8.8572v8h-8.8572z"/><path d="m-3106-1120h18 28 16 33 51-176z"/><path d="m-3088-1120h-18 8.8572z"/><path d="m-3060-1120h-28 14z"/><path d="m-2960-1120h96z"/><path d="m-3044-1112h-16v-8h16z"/><path d="m-3044-1120h-16v8h16z"/><path d="m-3011-1119v-1h-17v8h17z"/><path d="m-3011-1120v1h14v-1z"/><path d="m-3011-1119v-1h14v1z"/><path d="m-3106-1120h-14v8h14z"/><path d="m-3106-1112h-14v-8h14z"/><path d="m-3600-1120h96z"/><path d="m-3620-1120h-16z"/><path d="m-3746-1120h18 28 16 16 16 16 16 20-176z"/><path d="m-3728-1120h-18 8.8572z"/><path d="m-3700-1120h-28z"/><path d="m-3652-1112h-16v-8h16z"/><path d="m-3652-1120h-16v8h16z"/><path d="m-3620-1112h-16v-8h16z"/><path d="m-3620-1120h-16v8h16z"/><path d="m-3684-1120h-16v8h16z"/><path d="m-3684-1112h-16v-8h16z"/><path d="m-3728-1112h-9.1428 9.1382 14.0046z"/><path d="m-3746-1120h-14v8h14z"/><path d="m-3746-1112h-14v-8h14z"/><path d="m-2366-1119h-6.75v7h6.75z"/><path d="m-2366-1112v1h-14v-1z"/><path d="m-2366-1111v-1h-14v1z"/><path d="m-2994-1111h-14 18 14z"/><path d="m-2994-1111h18-14-18z"/><path d="m-2994-1112v-7h1.2656 16.7344v8h-18z"/><path d="m-2994-1119h-6.75v7h6.75z"/><path d="m-3000.75-1112h-10.25-1.7734z"/><path d="m-3000.75-1112v-7h-10.25v7z"/><path d="m-3000.75-1119v7h-10.25v-7z"/><path d="m-3000.75-1119h6.75 1.2656z"/><path d="m-3000.75-1112v-7h6.75v7z"/><path d="m-2372.75-1112h-10.25-1.7734z"/><path d="m-2372.75-1112h-10.25v-7h10.25z"/><path d="m-2372.75-1119h6.75 1.2656z"/><path d="m-2372.75-1112v-7h6.75v7z"/><path d="m-2997-1120h37-51z"/><path d="m-3008-1111v-1h14v1z"/><path d="m-3008-1112v1h14v-1z"/><path d="m-2364.7344-1119h16.7344v8h-18v-1-7z"/><path d="m-2364.7344-1119h-1.2656-6.75z"/><path d="m-2992.7344-1119h-1.2656-6.75z"/><path d="m-3012.7734-1112h1.7734 10.25z"/><path d="m-2384.7734-1112h1.7734 10.25z"/><path d="m-2418-1120h-14v8h14z"/><path d="m-2464-1120h14v8h-14z"/><path d="m-3074-1120h-14-32 14z"/><path d="m-3074-1120h-14v8h14z"/><path d="m-3074-1112h-14v-8h14z"/><path d="m-3714-1112h-14.0046-9.1382 9.1428z"/><path d="m-3714-1120h-14v8h14z"/><path d="m-3714-1112h-14v-8h14z"/><path d="m-2327-1120h-42-3.541z"/><path d="m-2441.1428-1120h9.1428-9-9z"/><path d="m-2320-1120h-7-45.541-4.114-10.345 115 48z"/><path d="m-2224-1120h41.75 134.25z"/><path d="m-2320-1104h96z"/><path d="m-2224-1104h-96z"/><path d="m-2224-1104v-16z"/><path d="m-2224-1120v16z"/><path d="m-2320-1120v16z"/><path d="m-2320-1104v-16z"/><path d="m-2224-1104h-96v-16h96z"/><path d="m-2224-1120h-96v16h96z"/><path d="m-2441.1428-1112h9.1382 14.0046-14z"/><path d="m-2441.1428-1120h9.1428v8h-9.1428z"/><path d="m-2441.1428-1120h-8.8572v8h8.8572z"/><path d="m-3060-1120h16z"/><path d="m-2736-1120h-128-96 169z"/><path d="m-2960-1104h96z"/><path d="m-2864-1104h-96z"/><path d="m-2960-1104v-16z"/><path d="m-2960-1120v16z"/><path d="m-2864-1104v-16z"/><path d="m-2864-1120v16z"/><path d="m-2864-1104h-96v-16h96z"/><path d="m-2864-1120h-96v16h96z"/><path d="m-3097.1428-1112h9.1428 14-14.0046z"/><path d="m-3097.1428-1120h9.1428v8h-9.1428z"/><path d="m-3097.1428-1112h9.1428v-8h-9.1428z"/><path d="m-3097.1428-1112h-8.8572v-8h8.8572z"/><path d="m-3097.1428-1120h-8.8572v8h8.8572z"/><path d="m-3376-1120h-128-96 48z"/><path d="m-3504-1120h128 48z"/><path d="m-3600-1120h-20z"/><path d="m-3700-1120h16z"/><path d="m-3504-1104h-96z"/><path d="m-3600-1104h96z"/><path d="m-3600-1120v16z"/><path d="m-3600-1104v-16z"/><path d="m-3504-1104v-16z"/><path d="m-3504-1120v16z"/><path d="m-3504-1120h-96v16h96z"/><path d="m-3504-1104h-96v-16h96z"/><path d="m-3737.1428-1120h9.1428v8h-9.1428z"/><path d="m-3737.1428-1112h9.1428v-8h-9.1428z"/><path d="m-3737.1428-1112h-8.8572v-8h8.8572z"/><path d="m-3737.1428-1120h-8.8572v8h8.8572z"/><path d="m-3504-1096h-96v-8h96z"/><path d="m-3504-1104v8z"/><path d="m-3600-1096v-8z"/><path d="m-3600-1104h96z"/><path d="m-3504-1096h-96z"/><path d="m-2864-1096h-96v-8h96z"/><path d="m-2864-1104v8z"/><path d="m-2960-1096v-8z"/><path d="m-2960-1104h96z"/><path d="m-2864-1096h-96z"/><path d="m-2224-1096h-96v-8h96z"/><path d="m-2224-1104v8z"/><path d="m-2320-1096v-8z"/><path d="m-2320-1104h96z"/><path d="m-2224-1096h-96z"/><path d="m-3136-1120h16 14z"/><path d="m-3776-1120h16 13.7144-13.7144z"/><path d="m-3776-1120h30z"/><path d="m-2374.6033-1112h-12.3967-13 15.2266 4.7734z"/><path d="m-2374.6033-1119v-1h-12.3967v8h12.3967z"/><path d="m-2374.6033-1119v-1h5.6033v1z"/><path d="m-2374.6033-1120v1h5.6033v-1z"/><path d="m-2374.6033-1119h12.6033 14-16.7344-4.2656z"/><path d="m-2374.6033-1112v-7h12.6033v7z"/><path d="m-3002.6033-1120h5.6033v1h-5.6033z"/><path d="m-3002.6033-1112h12.6033v1h-18v-1z"/><path d="m-3002.6033-1119h5.6033v-1h-5.6033z"/><path d="m-2496-1120h32 13.7144-13.7144z"/><path d="m-2450.2856-1120h9.1428-8.8572-14z"/><path d="m-2450.2856-1120h-13.7144v8h13.7144z"/><path d="m-2450.2856-1112v-8h-13.7144v8z"/><path d="m-2450.2856-1120v8h-13.7144v-8z"/><path d="m-3106.2856-1120h-13.7144-16 16z"/><path d="m-3106.2856-1120h9.1428-8.8572-14z"/><path d="m-3106.2856-1120h-13.7144v8h13.7144z"/><path d="m-3106.2856-1112h-13.7144v-8h13.7144z"/><path d="m-3746.2856-1120h9.1428-8.8572-14z"/><path d="m-3746.2856-1120h-13.7144 14 17.9954 14.0046-14z"/><path d="m-3746.2856-1112h-13.7144 14 9z"/><path d="m-3746.2856-1120h-13.7144v8h13.7144z"/><path d="m-3746.2856-1112h-13.7144v-8h13.7144z"/><path d="m-3088.0046-1120h14.0046v8h-14.0046z"/><path d="m-3728.0046-1120h13.0046 15-14z"/><path d="m-3728.0046-1120h14.0046v8h-14.0046z"/><path d="m-3728.0046-1112h14.0046v-8h-14.0046z"/><path d="m-2432.0046-1112h-9.1382 9.1428 14z"/><path d="m-2432.0046-1112 .0002-8h14.0044v8z"/><path d="m-3088.0046-1112h14.0046-14-9.1428z"/><path d="m-3088.0046-1112h14.0046v-8h-14.0046z"/><path d="m-2432.0044-1120h12.4399 19.5645 10.2686-28.2686z"/><path d="m-2432.0044-1120-.0002 8h14.0046v-8z"/><path d="m-2432.0044-1120h13.0044v8h-13.0046z"/><path d="m-3060-1120h-14-14.0046 13.0046z"/><path d="m-3097-1120h9 13-13.0046z"/><path d="m-3737-1112h-9-14 13.7144z"/><path d="m-2441-1120h9v8h-9z"/><path d="m-2441-1120h-9v8h9z"/><path d="m-2419.5645-1120h.5645.9167z"/><path d="m-2464-1120h-32 55.3333z"/><path d="m-2464-1120h14 9 23-14z"/><path d="m-2464-1120h14v8h-14z"/><path d="m-2419-1112h-13-32 14z"/><path d="m-2464-1112h13.7144 9.2856-9z"/><path d="m-2419-1120h-13v8h13z"/><path d="m-2464-1120h13.7144v8h-13.7144z"/><path d="m-2419-1120h-13.0044l-.0002 8h13.0046z"/><path d="m-3075-1120h-13 28z"/><path d="m-3120-1112h13.7144 9.2856-9z"/><path d="m-3075-1112h-13-32 14z"/><path d="m-3120-1112h13.7144v-8h-13.7144z"/><path d="m-3120-1120h13.7144v8h-13.7144z"/><path d="m-3075-1112h-13v-8h13z"/><path d="m-3075-1120h-13v8h13z"/><path d="m-3075-1112h-13.0046v-8h13.0046z"/><path d="m-3075-1120h-13.0046v8h13.0046z"/><path d="m-3760-1120h-16 30z"/><path d="m-3715-1120h-13 28z"/><path d="m-3715-1112h-13-32 14z"/><path d="m-3715-1112h-13v-8h13z"/><path d="m-3715-1120h-13v8h13z"/><path d="m-3760-1112h13.7144v-8h-13.7144z"/><path d="m-3760-1120h13.7144v8h-13.7144z"/><path d="m-3715-1120h-13.0046v8h13.0046z"/><path d="m-3715-1112h-13.0046v-8h13.0046z"/><path d="m-3044-1120h16 17z"/><path d="m-2400-1120h13 9.9199 8.0801-14z"/><path d="m-2348-1111h-14-18 14z"/><path d="m-2400-1120v8h17v-7-1z"/><path d="m-2400-1112v-8h17v1 7z"/><path d="m-2348-1111v-8h-16.7344-1.2656v7 1z"/><path d="m-2400-1120h13v8h-13z"/><path d="m-2348-1119h-14v7 1h14z"/><path d="m-2400-1112h13 12.3967-5.3967-4.7734z"/><path d="m-2348-1119h-14-12.6033 5.6033 4.2656z"/><path d="m-2976-1119h-16.7344-1.2656v7 1h18z"/><path d="m-3028-1120h17v1 7h-17z"/><path d="m-2432-1120h13-.5645-12.4399-8.9956z"/><path d="m-2450-1120h9.3333 8.6667-9z"/><path d="m-2450-1120h-14v8h14z"/><path d="m-2432-1112h13-31-14z"/><path d="m-2450-1112h9-9.2856-13.7144z"/><path d="m-2432-1120h13v8h-13z"/><path d="m-2432-1120h-9v8h9z"/><path d="m-2450-1120h9v8h-9z"/><path d="m-3018.25-1120h-25.75z"/><path d="m-3014.7048-1120h54.7048-37z"/><path d="m-3018.25-1120h3.25.2952 17.7048-14-17z"/><path d="m-3106-1120h9.3333 8.6667-9z"/><path d="m-2688-1120h-48z"/><path d="m-2791-1120h-169-54.7048-.2952 103 101.75z"/><path d="m-3044-1120v8z"/><path d="m-3044-1112v-8z"/><path d="m-3018.25-1120h3.25v8h-13v-8z"/><path d="m-3014.7048-1112h-.2952-13 15.2266 4.7734 5.3967z"/><path d="m-2990.3-1119h.3 14-16.7344-4.2656-5.6033z"/><path d="m-3044-1112h-16v-8h16z"/><path d="m-3044-1120h-16v8h16z"/><path d="m-3060-1120v8z"/><path d="m-3060-1112v-8z"/><path d="m-3060-1112h16z"/><path d="m-3044-1112h-16z"/><path d="m-3106-1112h9-9.2856-13.7144z"/><path d="m-3088-1112h13-31-14z"/><path d="m-3106-1120h9v8h-9z"/><path d="m-3106-1112h9v-8h-9z"/><path d="m-3088-1112h-9v-8h9z"/><path d="m-3088-1120h-9v8h9z"/><path d="m-3106-1112h-14v-8h14z"/><path d="m-3106-1120h-14v8h14z"/><path d="m-3552-1120h-48-20-16-16-16-16-16-28-18-30z"/><path d="m-3328-1120h-48z"/><path d="m-3652-1120h16z"/><path d="m-3668-1120h16z"/><path d="m-3684-1120h16z"/><path d="m-3746-1120h18-9z"/><path d="m-3728-1120h13-13.0046-8.9954z"/><path d="m-3684-1120h-16v8h16z"/><path d="m-3684-1112h-16v-8h16z"/><path d="m-3620-1112h-16v-8h16z"/><path d="m-3620-1120h-16v8h16z"/><path d="m-3652-1112h-16v-8h16z"/><path d="m-3652-1120h-16v8h16z"/><path d="m-3684-1112v-8z"/><path d="m-3684-1120v8z"/><path d="m-3636-1120v8z"/><path d="m-3636-1112v-8z"/><path d="m-3620-1112v-8z"/><path d="m-3620-1120v8z"/><path d="m-3620-1112h-16z"/><path d="m-3636-1112h16z"/><path d="m-3668-1120v8z"/><path d="m-3668-1112v-8z"/><path d="m-3652-1120v8z"/><path d="m-3652-1112v-8z"/><path d="m-3652-1112h-16z"/><path d="m-3668-1112h16z"/><path d="m-3700-1120v8z"/><path d="m-3700-1112v-8z"/><path d="m-3700-1112h16z"/><path d="m-3684-1112h-16z"/><path d="m-3728-1112h13-31-14z"/><path d="m-3728-1112h-9v-8h9z"/><path d="m-3728-1120h-9v8h9z"/><path d="m-3746-1120h9v8h-9z"/><path d="m-3746-1112h9v-8h-9z"/><path d="m-3746-1112h-14v-8h14z"/><path d="m-3746-1120h-14v8h14z"/><path d="m-2362-1111h14-18-14z"/><path d="m-2387-1120h-13v8h13z"/><path d="m-2362-1112v-7h14v8h-14z"/><path d="m-2387-1120h12.3967v1 7h-12.3967z"/><path d="m-2362-1119h-12.6033v7h12.6033z"/><path d="m-2362-1112v1h-18v-1z"/><path d="m-2362-1111v-1h-18v1z"/><path d="m-3015-1112v-8h-3.25-9.75v8z"/><path d="m-2990-1119v7 1h14v-8z"/><path d="m-2990-1111v-1-7h14v8z"/><path d="m-3015-1112h.2952 12.1015-5.3967-4.7734-15.2266z"/><path d="m-2990-1112v-7h-12.6033v7z"/><path d="m-2990-1119v7h-12.6033v-7z"/><path d="m-2990-1119h-.3-12.3033 5.6033 4.2656 16.7344z"/><path d="m-3015-1120v8h12.3967v-7-1z"/><path d="m-3015-1112v-8h12.3967v1 7z"/><path d="m-2990-1111v-1h-12.6033-5.3967v1z"/><path d="m-3136-1120h39.3333z"/><path d="m-2912-1120h-106.25-25.75-16-28-48z"/><path d="m-2272-1120h-146.0833-22.5834-55.3333z"/><path d="m-2048-720v224z"/><path d="m-2048-944v224z"/><path d="m-3136-1120v176z"/><path d="m-2496-1120v176z"/><path d="m-2272-496h-224z"/><path d="m-2182.25-1120h-41.75-48z"/><path d="m-2912-496h-224z"/><path d="m-2810.25-1120h-101.75z"/><path d="m-2688-1120h-48-55z"/><path d="m-2688-720v224z"/><path d="m-2688-944v224z"/><path d="m-3328-1120h-48-176z"/><path d="m-3552-496h-224z"/><path d="m-3776-1120v176z"/><path d="m-3328-720v224z"/><path d="m-3328-944v224z"/><path d="m-128 224v-236z"/><path d="m1792-48v48z"/><path d="m3072-72v72z"/><path d="m3712-84v84z"/><path d="m3264 0v140 84z"/><path d="m3712 224h-224z"/><path d="m3488-84h-224z"/><path d="m3264 140v-140-84h224v224z"/><path d="m3488 224h-224v-84h224z"/><path d="m3712-84v84 140h-224v-224z"/><path d="m3712 140v84h-224v-84z"/><path d="m2432-60v60z"/><path d="m2624 0v152 72z"/><path d="m3072 224h-224z"/><path d="m2848-72h-224z"/><path d="m2624 152v-152-72h224v224z"/><path d="m2848 224h-224v-72h224z"/><path d="m3072-72v72 152h-224v-224z"/><path d="m3072 152v72h-224v-72z"/><path d="m1984 0v164 60z"/><path d="m2432 224h-224z"/><path d="m2208-60h-224z"/><path d="m1984 164v-164-60h224v224z"/><path d="m2208 224h-224v-60h224z"/><path d="m2432-60v60 164h-224v-224z"/><path d="m2432 164v60h-224v-60z"/><path d="m1152-36v36z"/><path d="m1344 0v176 48z"/><path d="m1568-48h-224z"/><path d="m1792 224h-224z"/><path d="m1344 176v-176-48h224v224z"/><path d="m1568 224h-224v-48h224z"/><path d="m1792-48v48 176h-224v-224z"/><path d="m1792 176v48h-224v-48z"/><path d="m512-24v24z"/><path d="m704 0v188 36z"/><path d="m1152 224h-224z"/><path d="m928-36h-224z"/><path d="m704 188v-188-36h224v224z"/><path d="m928 224h-224v-36h224z"/><path d="m1152-36v36 188h-224v-224z"/><path d="m1152 188v36h-224v-36z"/><path d="m64 0v200 24z"/><path d="m512 224h-224z"/><path d="m288-24h-224z"/><path d="m64 200v-200-24h224v224z"/><path d="m288 224h-224v-24h224z"/><path d="m512-24v24 200h-224v-224z"/><path d="m512 200v24h-224v-24z"/><path d="m-2048 24v200z"/><path d="m-768 224v-224z"/><path d="m-576-12v236z"/><path d="m-352-12h-224z"/><path d="m-128 224h-224z"/><path d="m-352 224h-224v-236h224z"/><path d="m-128-12v236h-224v-236z"/><path d="m-1216 0v224z"/><path d="m-768 224h-224z"/><path d="m-992 0h-224z"/><path d="m-992 224h-224v-224h224z"/><path d="m-768 0v224h-224v-224z"/><path d="m-1856 12v212z"/><path d="m-1408 224v-212z"/><path d="m-1408 224h-224z"/><path d="m-1632 12h-224z"/><path d="m-1632 224h-224v-212h224z"/><path d="m-1408 12v212h-224v-212z"/><path d="m-2048 224h-224z"/><path d="m-2272 24h-224z"/><path d="m-2496 24h224v200h-224z"/><path d="m-2272 24h224v200h-224z"/><path d="m-2688 36v188z"/><path d="m-2912 36h-224z"/><path d="m-2688 224h-224z"/><path d="m-3136 36h224v188h-224z"/><path d="m-2912 36h224v188h-224z"/><path d="m-3328 224v-176z"/><path d="m-3776 48v176z"/><path d="m-3328 224h-224z"/><path d="m-3552 48h-224z"/><path d="m-3552 224h-224v-176h224z"/><path d="m-3328 48v176h-224v-176z"/></g><g id="b"><path d="m-128 224v-236 12z"/><path d="m1792-48v48z"/><path d="m1792 0v224-48z"/><path d="m3072 0v224-72z"/><path d="m3072-72v72z"/><path d="m3712-84v84z"/><path d="m3712 0v224-84z"/><path d="m3264 0v224z"/><path d="m3264-84v84z"/><path d="m3712 224h-224z"/><path d="m3488 224h-224z"/><path d="m3712-84h-224z"/><path d="m3488-84h-224 176z"/><path d="m3712 0v-84h-224-224v84 224h224 224z"/><path d="m3712 0v224h-224-224v-224-84h224 224z"/><path d="m2432-60v60z"/><path d="m2432 0v224-60z"/><path d="m2624 0v224z"/><path d="m2624-72v72z"/><path d="m2848 224h-224z"/><path d="m3072 224h-224z"/><path d="m3072-72h-224z"/><path d="m2848-72h-224 176z"/><path d="m2848-72h224v72 224h-224-224v-224-72z"/><path d="m2848 224h224v-224-72h-224-224v72 224z"/><path d="m1984-60v60z"/><path d="m1984 0v224z"/><path d="m2432 224h-224z"/><path d="m2208 224h-224z"/><path d="m2432-60h-224z"/><path d="m2208-60h-224 176z"/><path d="m2208-60h224v60 224h-224-224v-224-60z"/><path d="m2208 224h224v-224-60h-224-224v60 224z"/><path d="m1152-36v36z"/><path d="m1152 0v224-36z"/><path d="m1344 0v224z"/><path d="m1344-48v48z"/><path d="m1792-48h-224z"/><path d="m1568-48h-224 176z"/><path d="m1792 224h-224z"/><path d="m1568 224h-224z"/><path d="m1568 224h224v-224-48h-224-224v48 224z"/><path d="m1568-48h224v48 224h-224-224v-224-48z"/><path d="m512 0v224-24z"/><path d="m512-24v24z"/><path d="m704 0v224z"/><path d="m704-36v36z"/><path d="m928 224h-224z"/><path d="m1152 224h-224z"/><path d="m928-36h-224 176z"/><path d="m1152-36h-224z"/><path d="m928 224h224v-224-36h-224-224v36 224z"/><path d="m928-36h224v36 224h-224-224v-224-36z"/><path d="m64 0v224z"/><path d="m64-24v24z"/><path d="m512 224h-224z"/><path d="m288 224h-224z"/><path d="m288-24h-224 176z"/><path d="m512-24h-224z"/><path d="m288 224h224v-224-24h-224-224v24 224z"/><path d="m288-24h224v24 224h-224-224v-224-24z"/><path d="m-2048 24v200z"/><path d="m-576-12v236-224z"/><path d="m-128-12h-224z"/><path d="m-352-12h-224 176z"/><path d="m-128 224h-224z"/><path d="m-352 224h-224z"/><path d="m-128-12h-224-224v236h224 224z"/><path d="m-128 224h-224-224v-236h224 224z"/><path d="m-992 0h224v224h-224-224v-224z"/><path d="m-992 224h224v-224h-224-224v224z"/><path d="m-768 224h-224z"/><path d="m-992 0h-224 176z"/><path d="m-992 224h-224z"/><path d="m-768 0h-224z"/><path d="m-1856 12v212z"/><path d="m-1408 224v-212z"/><path d="m-1632 224h224v-212h-224-224v212z"/><path d="m-1632 12h224v212h-224-224v-212z"/><path d="m-1408 224h-224z"/><path d="m-1632 12h-224 176z"/><path d="m-1632 224h-224z"/><path d="m-1408 12h-224z"/><path d="m-3136 36v188z"/><path d="m-2496 24v200z"/><path d="m-2496 24h224 224v200h-224-224z"/><path d="m-2048 24h-224-224v200h224 224z"/><path d="m-2048 224h-224z"/><path d="m-2272 24h-224 176z"/><path d="m-2272 224h-224z"/><path d="m-2048 24h-224z"/><path d="m-2688 36v188z"/><path d="m-3136 36h224 224v188h-224-224z"/><path d="m-2688 36h-224-224v188h224 224z"/><path d="m-2912 36h-224 176z"/><path d="m-2688 224h-224z"/><path d="m-2688 36h-224z"/><path d="m-2912 224h-224z"/><path d="m-3328 224v-176z"/><path d="m-3776 48v176z"/><path d="m-3328 48h-224-224v176h224 224z"/><path d="m-3328 224h-224-224v-176h224 224z"/><path d="m-3328 224h-224z"/><path d="m-3552 48h-224 176z"/><path d="m-3552 224h-224z"/><path d="m-3328 48h-224z"/><path d="m512-24h-448v248h448z"/><path d="m1152-36h-448v260h448z"/><path d="m1792-48h-448v272h448z"/><path d="m2432-60h-448v284h448z"/><path d="m3072-72h-448v296h448z"/><path d="m3712-84h-448v308h448z"/><path d="m-128-12h-448v236h448z"/><path d="m-768 0h-448v224h448z"/><path d="m-1408 12h-448v212h448z"/><path d="m-2048 24h-448v200h448z"/><path d="m-2688 36h-448v188h448z"/><path d="m-3328 48h-448v176h448z"/><path d="m512-24v248z"/><path d="m64 224v-248z"/><path d="m512 224h-448z"/><path d="m64-24h448z"/><path d="m512 224h-448v-248h448z"/><path d="m1152-36v260z"/><path d="m704 224v-260z"/><path d="m1152 224h-448z"/><path d="m704-36h448z"/><path d="m1152 224h-448v-260h448z"/><path d="m1792-48v272z"/><path d="m1344 224v-272z"/><path d="m1792 224h-448z"/><path d="m1344-48h448z"/><path d="m1792 224h-448v-272h448z"/><path d="m2432-60v284z"/><path d="m1984 224v-284z"/><path d="m2432 224h-448z"/><path d="m1984-60h448z"/><path d="m2432 224h-448v-284h448z"/><path d="m3072-72v296z"/><path d="m2624 224v-296z"/><path d="m3072 224h-448z"/><path d="m2624-72h448z"/><path d="m3072 224h-448v-296h448z"/><path d="m3712-84v308z"/><path d="m3264 224v-308z"/><path d="m3712 224h-448z"/><path d="m3264-84h448z"/><path d="m3712 224h-448v-308h448z"/><path d="m-128-12v236z"/><path d="m-576 224v-236z"/><path d="m-128 224h-448z"/><path d="m-576-12h448z"/><path d="m-128 224h-448v-236h448z"/><path d="m-768 0v224z"/><path d="m-1216 224v-224z"/><path d="m-768 224h-448z"/><path d="m-1216 0h448z"/><path d="m-768 224h-448v-224h448z"/><path d="m-1408 12v212z"/><path d="m-1856 224v-212z"/><path d="m-1408 224h-448z"/><path d="m-1856 12h448z"/><path d="m-1408 224h-448v-212h448z"/><path d="m-2048 24v200z"/><path d="m-2496 224v-200z"/><path d="m-2048 224h-448z"/><path d="m-2496 24h448z"/><path d="m-2048 224h-448v-200h448z"/><path d="m-2688 36v188z"/><path d="m-3136 224v-188z"/><path d="m-2688 224h-448z"/><path d="m-3136 36h448z"/><path d="m-2688 224h-448v-188h448z"/><path d="m-3328 48v176z"/><path d="m-3776 224v-176z"/><path d="m-3776 48h448z"/><path d="m-3328 224h-448z"/><path d="m-3328 224h-448v-176h448z"/></g><g id="c"><path d="m-128-12v-164 176z"/><path d="m1792 0v224z"/><path d="m1792-48v-128 176z"/><path d="m3072 0v224z"/><path d="m3072-72v-104 176z"/><path d="m3712 448h-224z"/><path d="m3712-84h-176v-76-16h176z"/><path d="m3440-160v-16h96v16z"/><path d="m3536-84h-48-48v-76h96z"/><path d="m3440-160v76h-176v-92h104 72z"/><path d="m3488 448h-224v-224h224z"/><path d="m3712 224v224h-224v-224z"/><path d="m3712-84v-92 176z"/><path d="m3264 224v224z"/><path d="m3264 0v224z"/><path d="m3712 0v224z"/><path d="m3264-84v84z"/><path d="m3488 224h-224z"/><path d="m3536-84h176-224z"/><path d="m2432 0v224z"/><path d="m2432-60v-116 176z"/><path d="m2896-176h-96z"/><path d="m3072 448h-224z"/><path d="m2800-160v88h-176v-104h176z"/><path d="m2848 448h-224v-224h224z"/><path d="m3072 224v224h-224v-224z"/><path d="m3072-72h-176v-88-16h176z"/><path d="m2800-160v-16h96v16z"/><path d="m2896-72h-48-48v-88h96z"/><path d="m2624 224v224z"/><path d="m2624 0v224z"/><path d="m2624-72v72z"/><path d="m2848 224h-224z"/><path d="m2896-72h176-224z"/><path d="m2432 448h-224z"/><path d="m2160-160v100h-176v-116h176z"/><path d="m2256-60h-48-48v-100h96z"/><path d="m2160-160v-16h96v16z"/><path d="m2208 448h-224v-224h224z"/><path d="m2432 224v224h-224v-224z"/><path d="m2432-60h-176v-100-16h176z"/><path d="m1984 224v224z"/><path d="m1984 0v224z"/><path d="m1984-60v60z"/><path d="m2208 224h-224z"/><path d="m2256-60h176-224z"/><path d="m1152 0v224z"/><path d="m1152-36v-140 176z"/><path d="m1792 448h-224z"/><path d="m1392-176h128v16 112h-176v-128z"/><path d="m1616-48h-48-48v-112h96z"/><path d="m1520-160v-16h96v16z"/><path d="m1792-48h-176v-112-16h176z"/><path d="m1568 448h-224v-224h224z"/><path d="m1792 224v224h-224v-224z"/><path d="m1344 224v224z"/><path d="m1344 0v224z"/><path d="m1344-48v48z"/><path d="m1616-48h176-224z"/><path d="m1568 224h-224z"/><path d="m512 0v224z"/><path d="m512-24v-152 176z"/><path d="m880-176h-96 16 16 16 16 16z"/><path d="m976-176h-96z"/><path d="m1152 448h-224z"/><path d="m880-160v124h-176v-140h80 96z"/><path d="m928 448h-224v-224h224z"/><path d="m1152 224v224h-224v-224z"/><path d="m880-160v-16h96v16z"/><path d="m1152-36h-176v-124-16h176z"/><path d="m976-36h-48-48v-124h96z"/><path d="m704 224v224z"/><path d="m704 0v224z"/><path d="m704-36v36z"/><path d="m928 224h-224z"/><path d="m976-36h176-224z"/><path d="m240-176h-80 16 16 16z"/><path d="m512-176h-176z"/><path d="m512 448h-224z"/><path d="m336-24h-48-48v-136h96z"/><path d="m240-160v136h-176v-152h96 80z"/><path d="m240-160v-16h96v16z"/><path d="m288 448h-224v-224h224z"/><path d="m512 224v224h-224v-224z"/><path d="m512-24h-176v-136-16h176z"/><path d="m64 224v224z"/><path d="m64 0v224z"/><path d="m64-24v24z"/><path d="m288 224h-224z"/><path d="m336-24h176-224z"/><path d="m-2048-176v176z"/><path d="m-768 448v-224z"/><path d="m-768 0v-176z"/><path d="m-128 448h-224z"/><path d="m-400-160v148h-176v-164h120 56z"/><path d="m-304-12h-48-48v-148h96z"/><path d="m-400-160v-16h96v16z"/><path d="m-128-12h-176v-148-16h176z"/><path d="m-352 448h-224v-224h224z"/><path d="m-128 224v224h-224v-224z"/><path d="m-576 224v224z"/><path d="m-576 0v224z"/><path d="m-304-12h176-224z"/><path d="m-352 224h-224z"/><path d="m-1216 224v224z"/><path d="m-1040-176h-176 77 14 42z"/><path d="m-944-176h-96z"/><path d="m-768 448h-224z"/><path d="m-1040-160v160h-176v-176h176z"/><path d="m-992 448h-224v-224h224z"/><path d="m-768 224v224h-224v-224z"/><path d="m-944 0h-48-48v-160h96z"/><path d="m-1040-160v-16h96v16z"/><path d="m-768 0h-176v-160-16h176z"/><path d="m-992 224h-224z"/><path d="m-944 0h176-224z"/><path d="m-1408 448h-224z"/><path d="m-1680-160v172h-176v-12-176h64 112z"/><path d="m-1584 12h-48-48v-172h96z"/><path d="m-1680-160v-16h96v16z"/><path d="m-1632 448h-224v-224h224z"/><path d="m-1408 224v224h-224v-224z"/><path d="m-1408 0v12h-176v-172-16h176z"/><path d="m-1856 224v224z"/><path d="m-1856 0v12 212z"/><path d="m-1408-176v176z"/><path d="m-1632 224h-224z"/><path d="m-1584 12h176-224z"/><path d="m-3600-176h-176 64 16z"/><path d="m-2960-176h-176 48 16 16 16z"/><path d="m-2464-176h-32z"/><path d="m-2384-176h-80 16 16 16 16z"/><path d="m-2320-176h-64z"/><path d="m-3136 224v224z"/><path d="m-3136 0v36 188z"/><path d="m-3136 36v188z"/><path d="m-2496 224v224z"/><path d="m-2496 0v24 200z"/><path d="m-2496 24v200z"/><path d="m-2048 448h-224z"/><path d="m-2272 448h-224v-224h224z"/><path d="m-2048 224v224h-224v-224z"/><path d="m-2048 0v24h-176v-184-16h176z"/><path d="m-2320-160v-16h96v16z"/><path d="m-2224 24h-48-48v-184h96z"/><path d="m-2464-176h80 64v16 184h-176v-24-176z"/><path d="m-2272 224h-224z"/><path d="m-2224 24h176-224z"/><path d="m-2688 448h-224z"/><path d="m-2912 448h-224v-224h224z"/><path d="m-2688 224v224h-224v-224z"/><path d="m-2960-160v196h-176v-36-176h176z"/><path d="m-2864 36h-48-48v-196h96z"/><path d="m-2960-160v-16h96v16z"/><path d="m-2688 0v36h-176v-196-16h176z"/><path d="m-2688-176v176z"/><path d="m-2864 36h176-224z"/><path d="m-2912 224h-224z"/><path d="m-3328 448h-224z"/><path d="m-3600-160v208h-176v-48-176h176z"/><path d="m-3504 48h-48-48v-208h96z"/><path d="m-3600-160v-16h96v16z"/><path d="m-3328 0v48h-176v-208-16h176z"/><path d="m-3552 448h-224v-224h224z"/><path d="m-3328 224v224h-224v-224z"/><path d="m-3328-176v176z"/><path d="m-3776 224v224z"/><path d="m-3776 0v48 176z"/><path d="m-3552 224h-224z"/><path d="m-3504 48h176-224z"/><path d="m336-160h-96v8h96z"/><path d="m976-160h-96v8h96z"/><path d="m1616-160h-96v8h96z"/><path d="m2256-160h-96v8h96z"/><path d="m2896-160h-96v8h96z"/><path d="m3536-160h-96v8h96z"/><path d="m-304-160h-96v8h96z"/><path d="m-944-160h-96v8h96z"/><path d="m-1584-160h-96v8h96z"/><path d="m-2224-160h-96v8h96z"/><path d="m-2864-160h-96v8h96z"/><path d="m-3504-160h-96v8h96z"/><path d="m-128 448v-224z"/><path d="m-128 224v-224z"/><path d="m-128-176v176z"/><path d="m1792 448v-224z"/><path d="m1792 224v-224z"/><path d="m1792-176v176z"/><path d="m3072 448v-224z"/><path d="m3072 224v-224z"/><path d="m3072-176v176z"/><path d="m3264 448h224z"/><path d="m3712 448h-224z"/><path d="m3368-176h-104z"/><path d="m3712 448v-224z"/><path d="m3712 224v-224z"/><path d="m3712-176v176z"/><path d="m3264 448v-224z"/><path d="m3264 224v-224z"/><path d="m3264-176v92 84z"/><path d="m2432 448v-224z"/><path d="m2432 224v-224z"/><path d="m2432-176v176z"/><path d="m2624 448h224z"/><path d="m3072 448h-224z"/><path d="m2624 448v-224z"/><path d="m2624 224v-224z"/><path d="m2624-176v104 72z"/><path d="m1984-176h22 42 14 9 89z"/><path d="m2432-176h-176z"/><path d="m1984 448h224z"/><path d="m2432 448h-224z"/><path d="m1984 448v-224z"/><path d="m1984 224v-224z"/><path d="m1984-176v116 60z"/><path d="m1152 448v-224z"/><path d="m1152 224v-224z"/><path d="m1152-176v176z"/><path d="m1344 448h224z"/><path d="m1792 448h-224z"/><path d="m1392-176h-48z"/><path d="m1344 448v-224z"/><path d="m1344 224v-224z"/><path d="m1344-176v128 48z"/><path d="m512 448v-224z"/><path d="m512 224v-224z"/><path d="m512-176v176z"/><path d="m704 448h224z"/><path d="m1152 448h-224z"/><path d="m704 448v-224z"/><path d="m704 224v-224z"/><path d="m704-176v140 36z"/><path d="m336-176h-96z"/><path d="m336-176h176z"/><path d="m64 448h224z"/><path d="m512 448h-224z"/><path d="m64 448v-224z"/><path d="m64 224v-224z"/><path d="m64-176v152 24z"/><path d="m-2048 448v-224z"/><path d="m-2048 224v-200-24z"/><path d="m-2048-176v176z"/><path d="m-768 224v224z"/><path d="m-768 224v-224z"/><path d="m-768-176v176z"/><path d="m-576 448h224z"/><path d="m-128 448h-224z"/><path d="m-128-176h-176z"/><path d="m-304-176h-96z"/><path d="m-576 448v-224z"/><path d="m-576 224v-224z"/><path d="m-576-176v164 12z"/><path d="m-1216 448v-224z"/><path d="m-1216 0v224z"/><path d="m-1216-176v176z"/><path d="m-1216 448h224z"/><path d="m-768 448h-224z"/><path d="m-1408-176h-176 45z"/><path d="m-1856 448h224z"/><path d="m-1408 448h-224z"/><path d="m-1856 448v-224z"/><path d="m-1856 224v-224z"/><path d="m-1856-176v176z"/><path d="m-1408 448v-224z"/><path d="m-1408 224v-212-12z"/><path d="m-1408-176v176z"/><path d="m-3328-176h-176 128z"/><path d="m-2688-176h-176 128z"/><path d="m-2496-176h32z"/><path d="m-2048-176h-176 64z"/><path d="m-3136 448v-224z"/><path d="m-3136 224v-224z"/><path d="m-3136-176v176z"/><path d="m-2496 448v-224z"/><path d="m-2496 224v-224z"/><path d="m-2496-176v176z"/><path d="m-2496 448h224z"/><path d="m-2048 448h-224z"/><path d="m-3136 448h224z"/><path d="m-2688 448h-224z"/><path d="m-2688 448v-224z"/><path d="m-2688 224v-188-36z"/><path d="m-2688-176v176z"/><path d="m-3776 448h224z"/><path d="m-3328 448h-224z"/><path d="m-3328 448v-224z"/><path d="m-3328 224v-176-48z"/><path d="m-3328-176v176z"/><path d="m-3776 448v-224z"/><path d="m-3776 224v-224z"/><path d="m-3776-176v176z"/><path d="m2800-176h-176 65 9z"/><path d="m2160-176h-89 9 14 14 50z"/><path d="m2160-176h48 48z"/><path d="m-1792-176h-64 48z"/><path d="m-1759-176h14 45.5001 19.4999-112z"/><path d="m-1759-176v1h10.2499 3.7501v-1z"/><path d="m-1759-175v7h10.25l-.0001-7z"/></g><g id="d"><path d="m3440-176h96z"/><path d="m3440-176h-24z"/><path d="m3384-176h16 16 24-72z"/><path d="m3416-176h-16v8h16z"/><path d="m3416-168h-16v-8h16z"/><path d="m3384-176h-16v8h16z"/><path d="m3384-168h-16v-8h16z"/><path d="m3320-175h-14v8h14z"/><path d="m3320-167h-14v-8h14z"/><path d="m2736-176h-29 14 14z"/><path d="m2707-176h-18 8.8572z"/><path d="m2707-176h29 16 48-102-9z"/><path d="m2752-176h-16v8h16z"/><path d="m2752-168h-16v-8h16z"/><path d="m2689-176h-14v8h14z"/><path d="m2689-168h-14v-8h14z"/><path d="m2062-176h-14v8h14z"/><path d="m2062-168h-14v-8h14z"/><path d="m1520-176h21 75z"/><path d="m1457-176h14 14 35z"/><path d="m1408-176h31 18 63-128z"/><path d="m1408-168h-16v-8h16z"/><path d="m1408-176h-16v8h16z"/><path d="m1439-176h-14v8h14z"/><path d="m1439-168h-14v-8h14z"/><path d="m733-176h-1.7736 12.0236z"/><path d="m733-176h10.25 6.75 34-80z"/><path d="m816-176h-16z"/><path d="m848-176h-16z"/><path d="m864-168h-16v-8h16z"/><path d="m864-176h-16v8h16z"/><path d="m832-168h-16v-8h16z"/><path d="m832-176h-16v8h16z"/><path d="m800-176h-16v8h16z"/><path d="m800-168h-16v-8h16z"/><path d="m109-176h10.2501 6.7499 34-96z"/><path d="m109-176h-1.7735 12.0236z"/><path d="m240-176h-32z"/><path d="m208-176h-16v8h16z"/><path d="m208-168h-16v-8h16z"/><path d="m176-176h-16v8h16z"/><path d="m176-168h-16v-8h16z"/><path d="m-456-176h56z"/><path d="m-523-176h-1.7736 12.0236z"/><path d="m-523-176h20.5 30.5 16-120z"/><path d="m-456-168h-16v-8h16z"/><path d="m-456-176h-16v8h16z"/><path d="m-523-176v7h10.25v-7z"/><path d="m-1139-175v-1h-17v8h15.2264 1.7736z"/><path d="m-1139-176v1h10.25 3.75v-1z"/><path d="m-1792-176h16 17z"/><path d="m-1742-175h-6.7501l.0001 7h6.75z"/><path d="m-1742-168v1h-14v-1z"/><path d="m-1742-167v-1h-14v1z"/><path d="m-1792-168h-16v-8h16z"/><path d="m-1792-176h-16v8h16z"/><path d="m-3600-176h96z"/><path d="m-2960-176h96z"/><path d="m-2448-168h-16v-8h16z"/><path d="m-2448-176h-16v8h16z"/><path d="m-2384-168h-16v-8h16z"/><path d="m-2384-176h-16v8h16z"/><path d="m-2416-176h-16v8h16z"/><path d="m-2416-168h-16v-8h16z"/><path d="m-3040-168h-16v-8h16z"/><path d="m-3040-176h-16v8h16z"/><path d="m-3072-176h-16v8h16z"/><path d="m-3072-168h-16v-8h16z"/><path d="m-3696-168h-16v-8h16z"/><path d="m-3696-176h-16v8h16z"/><path d="m750-176h4.5 13.5 16z"/><path d="m750-168h18-14-18z"/><path d="m750-168h-14 18 14z"/><path d="m750-169v-7h4.5 13.5v8h-18z"/><path d="m750-176h-6.75v7h6.75z"/><path d="m126-176h4.5 13.5 16z"/><path d="m126-168h-14 18 14z"/><path d="m126-168h18-14-18z"/><path d="m126-169v-7h4.5 13.5v8h-18z"/><path d="m126-176h-6.7499l-.0001 7h6.75z"/><path d="m-506-176h-6.75v7h6.75z"/><path d="m-506-168v-1h-6.75-7.25v1z"/><path d="m-1122-167h-14 18 14z"/><path d="m-1122-167h18-14-18z"/><path d="m-1122-168v-7h1.2656 16.7344v8h-18z"/><path d="m-1122-175h-6.75v7h6.75z"/><path d="m-1748.7501-175h-10.2499v-1h14v1z"/><path d="m-1748.75-168h-10.25-1.7733z"/><path d="m-1748.75-168h-10.25v-7h10.2499z"/><path d="m-1748.75-168-.0001-7h6.7501v7z"/><path d="m119.2501-176h-12.0236-2.6855 10.759 15.2-4.5z"/><path d="m119.2501-176-.0001 7h-10.25v-7z"/><path d="m743.25-176h-12.0236-2.6854 10.759 15.2-4.5z"/><path d="m743.25-169v-7h-10.25v7z"/><path d="m743.25-176v7h-10.25v-7z"/><path d="m743.25-169v-7h6.75v7z"/><path d="m743.25-169h-7.25v1h14v-1z"/><path d="m119.25-169 .0001-7h-10.2501v7z"/><path d="m119.25-169 .0001-7h6.7499v7z"/><path d="m119.25-169h-7.25v1h14v-1z"/><path d="m-512.75-176h-12.0236-2.6854 10.759 15.2-4.5z"/><path d="m-512.75-176h6.75 3.5-20.5z"/><path d="m-512.75-176v7h-10.25v-7z"/><path d="m-512.75-169v-7h6.75v7z"/><path d="m-512.75-169h6.75v1h-14v-1z"/><path d="m-1128.75-168h-10.25-1.7736z"/><path d="m-1128.75-168v-7h-10.25v7z"/><path d="m-1128.75-175v7h-10.25v-7z"/><path d="m-1128.75-175h-10.25v-1h14v1z"/><path d="m-1128.75-175h6.75 1.2656z"/><path d="m-1128.75-168v-7h6.75v7z"/><path d="m-1128.75-168h-7.25v1h14v-1z"/><path d="m-1745-175h4.2656-1.2656-6.7501z"/><path d="m-1745-175h-3.7501 6.7501 1.2656z"/><path d="m-1740.7344-175h16.7344v8h-18v-1-7z"/><path d="m736-169h-4.7736 1.7736 10.25z"/><path d="m736-169h7.25-10.25-1.7736z"/><path d="m736-168v-1h7.25 6.75v1z"/><path d="m112-169h7.25-10.25-1.7735z"/><path d="m112-169h-4.7735 1.7735 10.25z"/><path d="m112-168v-1h5.3967 12.6033v1z"/><path d="m112-168v-1h7.25 6.75v1z"/><path d="m-520-169h7.25-10.25-1.7736z"/><path d="m-520-169h-4.7736 1.7736 10.25z"/><path d="m-1136-167v-1h5.3967 12.6033v1z"/><path d="m-1136-167v-1h7.25 6.75v1z"/><path d="m-1120.7344-175h-1.2656-6.75z"/><path d="m-1760.7733-168h-15.2267v-8h17v1 7z"/><path d="m-1760.7733-168h1.7733 10.25z"/><path d="m731.2264-169h1.7736v-7h-1.7736-2.6854-12.541v7z"/><path d="m107.2265-169h1.7735v-7h-1.7735-2.6855-12.541v7z"/><path d="m-524.7736-169h-15.2264v-7h12.541 2.6854 1.7736v7z"/><path d="m-524.7736-176h-2.6854-12.541v7h15.2264 1.7736v-7z"/><path d="m-1140.7736-168h1.7736 10.25z"/><path d="m3352-175h-14v8h14z"/><path d="m3352-167h-14v-8h14z"/><path d="m2721-176h-14v8h14z"/><path d="m2721-168h-14v-8h14z"/><path d="m2094-176h-14v8h14z"/><path d="m2094-168h-14v-8h14z"/><path d="m1471-176h-14v8h14.7538z"/><path d="m1471.7538-168h-14.7538v-8h14z"/><path d="m3536-176h56 120z"/><path d="m3536-176h-96-24z"/><path d="m3440-160h96z"/><path d="m3536-160h-96z"/><path d="m3536-160v-16z"/><path d="m3536-176v16z"/><path d="m3440-176v16z"/><path d="m3440-160v-16z"/><path d="m3536-160h-96v-16h96z"/><path d="m3536-176h-96v16h96z"/><path d="m3416-176v8z"/><path d="m3328.8572-167h22.1428-13-9-23 14z"/><path d="m3328.8572-167h9.1382 14.0046-14z"/><path d="m3328.8572-175h22.1428-13-9-23 14z"/><path d="m3328.8572-175h9.1382 14.0046-14z"/><path d="m3328.8572-175h9.1428v8h-9.1428z"/><path d="m3328.8572-167h9.1428v-8h-9.1428z"/><path d="m3328.8572-167h-8.8572v-8h8.8572z"/><path d="m3328.8572-175h-8.8572v8h8.8572z"/><path d="m2735-176h1z"/><path d="m2736-176h16z"/><path d="m2896-176h128 48z"/><path d="m3024-176h-128-96 48z"/><path d="m2896-160h-96z"/><path d="m2800-160h96z"/><path d="m2896-160v-16z"/><path d="m2896-176v16z"/><path d="m2896-160h-96v-16h96z"/><path d="m2896-176h-96v16h96z"/><path d="m2800-160v-16z"/><path d="m2800-176v16z"/><path d="m2697.8572-168h9.1428 14-14.0046z"/><path d="m2697.8572-176h9.1428v8h-9.1428z"/><path d="m2697.8572-168h9.1428v-8h-9.1428z"/><path d="m2697.8572-168h-8.8572v-8h8.8572z"/><path d="m2697.8572-176h-8.8572v8h8.8572z"/><path d="m2070.8572-176h9.1428-9-9z"/><path d="m2108-176h-14-4.5715z"/><path d="m2208-176h-48-2-65-13-96z"/><path d="m2108-176h-18.5715-9.4331 13.0046 65z"/><path d="m2256-176h176z"/><path d="m2256-160h-96z"/><path d="m2160-160h96z"/><path d="m2256-160v-16z"/><path d="m2256-176v16z"/><path d="m2160-176v16z"/><path d="m2160-160v-16z"/><path d="m2256-176h-48-48v16h96z"/><path d="m2256-160h-96v-16h48 48z"/><path d="m2070.8569-168h22.1431-13-9-23 14z"/><path d="m2070.8569-168h9.1385 14.0046-14z"/><path d="m2070.8572-176h9.1428v8h-9.1431z"/><path d="m2070.8569-168h9.1431v-8h-9.1428z"/><path d="m2070.8569-168h-8.8569v-8h8.8572z"/><path d="m2070.8572-176h-8.8572v8h8.8569z"/><path d="m1616-176h176z"/><path d="m1448.1428-176h-9.1388-13.004 13.2461 18.0395 13.7144-14z"/><path d="m1520-176h-35-18.5714-9.143 13.7144 70z"/><path d="m1616-176h-75-70-14z"/><path d="m1448.1428-176h8.8572-18z"/><path d="m1485-176h-14-4.5714z"/><path d="m1520-160h96z"/><path d="m1616-160h-96z"/><path d="m1520-176v16z"/><path d="m1520-160v-16z"/><path d="m1616-160v-16z"/><path d="m1616-176v16z"/><path d="m1616-176h-75-21v16h96z"/><path d="m1616-160h-96v-16h21 75z"/><path d="m1448.1428-168h9.6428 13.2144-14-32 14z"/><path d="m1448.1428-168h9.6428 13.9682-14.7538z"/><path d="m1448.1428-176h8.8572v8h-8.8572z"/><path d="m1448.1428-168h8.8572v-8h-8.8572z"/><path d="m1448.1428-176h-9.1428v8h9.1428z"/><path d="m1448.1428-168h-9.1428v-8h9.1428z"/><path d="m728.541-176h-12.541 9.75 3.545 12.1017-2.0967z"/><path d="m976-176h128 48z"/><path d="m1104-176h-128-96 77 8.037z"/><path d="m976-160h-96z"/><path d="m880-160h96z"/><path d="m976-160v-16z"/><path d="m976-176v16z"/><path d="m880-160v-16z"/><path d="m880-176v16z"/><path d="m976-176h-96v16h96z"/><path d="m976-160h-96v-16h96z"/><path d="m728.541-176h2.6854 1.7736v7h-1.7736-15.2264v-7z"/><path d="m115.3-176h2.0967 12.6033 14-13.5z"/><path d="m336-160h-96z"/><path d="m240-160h96z"/><path d="m336-160v-16z"/><path d="m336-176v16z"/><path d="m240-160v-16z"/><path d="m240-176v16z"/><path d="m336-160h-96v-16h96z"/><path d="m336-176h-96v16h96z"/><path d="m208-176v8z"/><path d="m104.541-176h2.6855 1.7735v7h-1.7735-15.2265v-7z"/><path d="m-304-176h176z"/><path d="m-527.459-176h-12.541 9.7499 3.5451 12.1017-2.0967z"/><path d="m-501.5-176h13.5 16-30.5-3.5z"/><path d="m-400-160h96z"/><path d="m-304-160h-96z"/><path d="m-400-176v16z"/><path d="m-400-160v-16z"/><path d="m-304-160v-16z"/><path d="m-304-176v16z"/><path d="m-304-176h-96v16h96z"/><path d="m-304-160h-96v-16h96z"/><path d="m-456-176v8z"/><path d="m-501.5-176h13.5v8h-18v-1-7z"/><path d="m-1083-176h-42-3.541z"/><path d="m-919-176h151-176z"/><path d="m-919-176h-25-96-43-45.541-2.0623-12.3967 151 53.7501z"/><path d="m-944-160h-96z"/><path d="m-1040-160h96z"/><path d="m-1040-176v16z"/><path d="m-1040-160v-16z"/><path d="m-944-160v-16z"/><path d="m-944-176v16z"/><path d="m-944-160h-96v-16h96z"/><path d="m-944-176h-96v16h96z"/><path d="m-1699.4999-176h-45.5001-3.8361z"/><path d="m-1680-176h96z"/><path d="m-1539-176h-45-96-19.4999-49.3362-1.7672-12.3967 131z"/><path d="m-1584-160h-96z"/><path d="m-1680-160h96z"/><path d="m-1680-160v-16z"/><path d="m-1680-176v16z"/><path d="m-1584-176v16z"/><path d="m-1584-160v-16z"/><path d="m-1584-160h-96v-16h96z"/><path d="m-1584-176h-96v16h96z"/><path d="m-1748.8361-176h-1.7672v1h5.6033v-1z"/><path d="m-3600-176h-96z"/><path d="m-3376-176h-128-96 112z"/><path d="m-2736-176h-128-96 48z"/><path d="m-2320-176h96z"/><path d="m-2160-176h-64-96-64z"/><path d="m-2320-160h96z"/><path d="m-2224-160h-96z"/><path d="m-2320-160v-16z"/><path d="m-2320-176v16z"/><path d="m-2224-160v-16z"/><path d="m-2224-176v16z"/><path d="m-2224-160h-96v-16h96z"/><path d="m-2224-176h-96v16h96z"/><path d="m-2384-176v8z"/><path d="m-2960-160h96z"/><path d="m-2864-160h-96z"/><path d="m-2864-176v16z"/><path d="m-2864-160v-16z"/><path d="m-2864-160h-96v-16h96z"/><path d="m-2864-176h-96v16h96z"/><path d="m-2960-176v16z"/><path d="m-2960-160v-16z"/><path d="m-3504-160h-96z"/><path d="m-3600-160h96z"/><path d="m-3504-176v16z"/><path d="m-3504-160v-16z"/><path d="m-3600-176v16z"/><path d="m-3600-160v-16z"/><path d="m-3504-176h-96v16h96z"/><path d="m-3504-160h-96v-16h96z"/><path d="m336-152h-96v-8h96z"/><path d="m336-160v8z"/><path d="m240-152v-8z"/><path d="m240-160h96z"/><path d="m336-152h-96z"/><path d="m976-152h-96v-8h96z"/><path d="m976-160v8z"/><path d="m880-152v-8z"/><path d="m880-160h96z"/><path d="m976-152h-96z"/><path d="m1616-152h-96v-8h96z"/><path d="m1616-160v8z"/><path d="m1520-152v-8z"/><path d="m1520-160h96z"/><path d="m1616-152h-96z"/><path d="m2256-152h-96v-8h96z"/><path d="m2256-160v8z"/><path d="m2160-152v-8z"/><path d="m2160-160h96z"/><path d="m2256-152h-96z"/><path d="m2896-152h-96v-8h96z"/><path d="m2896-160v8z"/><path d="m2800-152v-8z"/><path d="m2800-160h96z"/><path d="m2896-152h-96z"/><path d="m3536-152h-96v-8h96z"/><path d="m3536-160v8z"/><path d="m3440-152v-8z"/><path d="m3440-160h96z"/><path d="m3536-152h-96z"/><path d="m-304-152h-96v-8h96z"/><path d="m-304-160v8z"/><path d="m-400-152v-8z"/><path d="m-400-160h96z"/><path d="m-304-152h-96z"/><path d="m-944-152h-96v-8h96z"/><path d="m-944-160v8z"/><path d="m-1040-152v-8z"/><path d="m-1040-160h96z"/><path d="m-944-152h-96z"/><path d="m-1584-152h-96v-8h96z"/><path d="m-1584-160v8z"/><path d="m-1680-152v-8z"/><path d="m-1680-160h96z"/><path d="m-1584-152h-96z"/><path d="m-2224-152h-96v-8h96z"/><path d="m-2224-160v8z"/><path d="m-2320-152v-8z"/><path d="m-2320-160h96z"/><path d="m-2224-152h-96z"/><path d="m-2864-152h-96v-8h96z"/><path d="m-2864-160v8z"/><path d="m-2960-152v-8z"/><path d="m-2960-160h96z"/><path d="m-2864-152h-96z"/><path d="m-3504-152h-96v-8h96z"/><path d="m-3504-160v8z"/><path d="m-3600-152v-8z"/><path d="m-3600-160h96z"/><path d="m-3504-152h-96z"/><path d="m1408-176h18 13.004-14.004z"/><path d="m1408-176h17 14z"/><path d="m1408-176v8z"/><path d="m-1750.6033-168h-12.3967-13 15.2267 4.7733z"/><path d="m-1750.6033-175v-1h-12.3967v8h12.3967z"/><path d="m-1750.6033-175v-1h1.7672 3.8361v1z"/><path d="m-1750.6033-175h12.6033 14-16.7344-4.2656z"/><path d="m-1750.6033-168v-7h12.6033v7z"/><path d="m-1130.6033-176h2.0623 3.541v1h-5.6033z"/><path d="m-1130.6033-168v-7h12.6033v7z"/><path d="m-1130.6033-168h-5.3967v1h18v-1z"/><path d="m741.3967-176h12.6033 3.5 10.5-13.5-15.2z"/><path d="m-514.6033-176h12.6033 3.5001 10.4999-13.5-15.2z"/><path d="m741.3967-169h12.6033v1h-18v-1z"/><path d="m-1130.6033-175h5.6033v-1h-3.541-2.0623z"/><path d="m-1130.6033-175v-1h-12.3967v8h12.3967z"/><path d="m117.3967-176h-12.3967 12.037 12.963z"/><path d="m117.3967-169v-7h12.6033v7z"/><path d="m117.3967-176v7h-12.3967v-7z"/><path d="m117.3967-169h-5.3967v1h18v-1z"/><path d="m-514.6033-169h12.6033v1h-18v-1z"/><path d="m3319.7144-167v-8h-13.7144v8z"/><path d="m3319.7144-175v8h-13.7144v-8z"/><path d="m2633-176h42 13.7144-13.7144z"/><path d="m2688.7144-176h9.1428-8.8572-14z"/><path d="m2688.7144-176h-13.7144v8h13.7144z"/><path d="m2688.7144-168h-13.7144v-8h13.7144z"/><path d="m2061.7144-176h9.1428-8.8572-14z"/><path d="m2006-176h42 13.7144-13.7144z"/><path d="m2061.7144-168v-8h-13.7144v8z"/><path d="m2061.7144-176v8h-13.7144v-8z"/><path d="m1457.2856-176 .5 8h13.9682l-.7538-8z"/><path d="m2079.9954-168h-9.1385 9.1431 14z"/><path d="m2079.9954-176v8h14.0046v-8z"/><path d="m2079.9954-168v-8h14.0046v8z"/><path d="m2706.9954-168h14.0046-14-9.1428z"/><path d="m2706.9954-168h14.0046v-8h-14.0044z"/><path d="m3337.9954-167h-9.1382 9.1428 14z"/><path d="m3337.9954-175h-9.1382 9.1428 14z"/><path d="m3337.9954-175v8h14.0046v-8z"/><path d="m3337.9954-167v-8h14.0046v8z"/><path d="m1439.0045-168h-13.0045 14 8.5z"/><path d="m1439.0045-168-.0005-8h-14.004v8z"/><path d="m2706.9956-176h13.0044 16-15z"/><path d="m2706.9956-176h14.0044v8h-14.0046z"/><path d="m1439.004-176h9.1388-9.1428-14z"/><path d="m1439.004-176 .0005 8h-14.0045v-8z"/><path d="m1457.7856-168h-9.6428 8.8572 14.7538z"/><path d="m1457.7856-168-.5-8h13.7144l.7538 8z"/><path d="m880-176h-16z"/><path d="m-1216-176h60 17z"/><path d="m1984-176h87.3333-65.3333z"/><path d="m3329-167h9 13-22.1428-8.8572-14z"/><path d="m3329-175h9 13-22.1428-8.8572-14z"/><path d="m2071-168h9 13-22.1431-8.8569-14z"/><path d="m1448.5-168h-8.5-14 13.0045z"/><path d="m-576-176h36 12.541 2.6854 1.7736z"/><path d="m64-176h28 12.541 2.6855 1.7735z"/><path d="m3306-167h13.7144 9.2856-9z"/><path d="m3306-175h13.7144 9.2856-9z"/><path d="m3351-167h-13v-8h13z"/><path d="m3351-175h-13v8h13z"/><path d="m3306-167h13.7144v-8h-13.7144z"/><path d="m3306-175h13.7144v8h-13.7144z"/><path d="m3351-167h-13.0046v-8h13.0046z"/><path d="m3351-175h-13.0046v8h13.0046z"/><path d="m2675-176h14 32-14z"/><path d="m2720-176h-13 29z"/><path d="m2675-168h13.7144 9.2856-9z"/><path d="m2720-168h-13-32 14z"/><path d="m2675-168h13.7144v-8h-13.7144z"/><path d="m2675-176h13.7144v8h-13.7144z"/><path d="m2720-168h-13v-8h13z"/><path d="m2720-176h-13v8h13z"/><path d="m2720-168h-13.0046l.0002-8h13.0044z"/><path d="m2720-176h-13.0044l-.0002 8h13.0046z"/><path d="m2048-176h14 9 23-14z"/><path d="m2048-168h13.7144 9.2856-9z"/><path d="m2048-168h13.7144v-8h-13.7144z"/><path d="m2048-176h13.7144v8h-13.7144z"/><path d="m2093-168h-13v-8h13z"/><path d="m2093-176h-13v8h13z"/><path d="m2093-168h-13.0046v-8h13.0046z"/><path d="m2093-176h-13.0046v8h13.0046z"/><path d="m1426-168h13.0045l-.0005-8h-13.004z"/><path d="m1426-176h13.004l.0005 8h-13.0045z"/><path d="m1471-168h-14v-8h14z"/><path d="m1471-176h-14v8h14z"/><path d="m1471-176h-13.7144l.5 8h13.2144z"/><path d="m1471-168h-13.2144l-.5-8h13.7144z"/><path d="m784-176h16z"/><path d="m160-176h16z"/><path d="m-472-176h16z"/><path d="m-472-176v8z"/><path d="m704-176h12 12.541 2.6854 1.7736z"/><path d="m-1776-176h13 12.3967 5.6033-14z"/><path d="m-1724-167h-14-18 14z"/><path d="m-1776-176h13v8h-13z"/><path d="m-1724-167v-8h-16.7344-1.2656v7 1z"/><path d="m-1776-176v8h15.2267 1.7733v-7-1z"/><path d="m-1724-175h-14v7 1h14z"/><path d="m-1776-168h13 12.3967-5.3967-4.7733z"/><path d="m-1724-175h-14-12.6033 5.6033 4.2656z"/><path d="m768-176h-10.5 26.5z"/><path d="m768-176h-13.5-4.5v7 1h18z"/><path d="m144-176h-13.5-4.5v7 1h18z"/><path d="m144-176h-14v7 1h14z"/><path d="m92-169h15.2265 4.7735 5.3967-12.3967z"/><path d="m-488-176h-10.4999 26.4999z"/><path d="m-488-168v-8h-13.5-4.5v7 1z"/><path d="m-1156-176h13 12.3967 2.0623 3.541-14z"/><path d="m-1104-175h-16.7344-1.2656v7 1h18z"/><path d="m-1156-176h13v8h-13z"/><path d="m-1104-175h-14v7 1h14z"/><path d="m-1156-168h15.2264 4.7736 5.3967-12.3967z"/><path d="m-1156-176h17v1 7h-1.7736-15.2264z"/><path d="m-1104-175h-16.7344-4.2656-5.6033 12.6033z"/><path d="m1439.2461-176h.7539 17-9z"/><path d="m1439.2461-176h8.7539l.5 8h-8.5z"/><path d="m1439.2461-176h-13.2461v8h14z"/><path d="m3592-176h-56-120-16-16-16z"/><path d="m3400-176h16z"/><path d="m3384-176h16z"/><path d="m3368-176h16z"/><path d="m3416-168h-16v-8h16z"/><path d="m3416-176h-16v8h16z"/><path d="m3384-176h-16v8h16z"/><path d="m3384-168h-16v-8h16z"/><path d="m3400-168v-8z"/><path d="m3400-176v8z"/><path d="m3416-168v-8z"/><path d="m3416-168h-16z"/><path d="m3400-168h16z"/><path d="m3368-168v-8z"/><path d="m3368-176v8z"/><path d="m3384-176v8z"/><path d="m3384-168v-8z"/><path d="m3384-168h-16z"/><path d="m3368-168h16z"/><path d="m3320-167h9-9.2856-13.7144z"/><path d="m3320-175h9-9.2856-13.7144z"/><path d="m3338-167h-9v-8h9z"/><path d="m3338-175h-9v8h9z"/><path d="m3320-175h9v8h-9z"/><path d="m3320-167h9v-8h-9z"/><path d="m3320-167h-14v-8h14z"/><path d="m3320-175h-14v8h14z"/><path d="m2707-176h13-13.0044-8.9956z"/><path d="m2752-176h48z"/><path d="m2689-176h9.3333 8.6667-9z"/><path d="m3072-176h-48z"/><path d="m2848-176h-48-48-16-29-83z"/><path d="m2752-168h-16v-8h16z"/><path d="m2752-176h-16v8h16z"/><path d="m2752-168v-8z"/><path d="m2752-176v8z"/><path d="m2736-168v-8z"/><path d="m2736-176v8z"/><path d="m2736-168h16z"/><path d="m2752-168h-16z"/><path d="m2689-168h9-9.2856-13.7144z"/><path d="m2707-168h13-31-14z"/><path d="m2689-176h9v8h-9z"/><path d="m2689-168h9v-8h-9z"/><path d="m2707-168h-9v-8h9z"/><path d="m2707-176h-9v8h9z"/><path d="m2689-168h-14v-8h14z"/><path d="m2689-176h-14v8h14z"/><path d="m2062-176h9.3333 8.6667-9z"/><path d="m2080-176h13-13.0046-8.9954z"/><path d="m2062-168h9-9.2856-13.7144z"/><path d="m2062-176h9v8h-9z"/><path d="m2062-168h9v-8h-9z"/><path d="m2080-168h-9v-8h9z"/><path d="m2080-176h-9v8h9z"/><path d="m2062-168h-14v-8h14z"/><path d="m2062-176h-14v8h14z"/><path d="m1616-176h-159-17-32-16z"/><path d="m1457-176h14-13.7144-9.2856z"/><path d="m1408-176h32-14z"/><path d="m1392-176h16z"/><path d="m1408-176h-16v8h16z"/><path d="m1408-168h-16v-8h16z"/><path d="m1408-168v-8z"/><path d="m1457-168h14-13.2144-9.6428-9.1428-14z"/><path d="m1440-168h8.5l-.5-8h-8.7539z"/><path d="m1457-168h-8.5l-.5-8h9z"/><path d="m1457-176h-9l.5 8h8.5z"/><path d="m1440-168h-14v-8h13.2461z"/><path d="m1392-168v-8z"/><path d="m1392-176v8z"/><path d="m1392-168h16z"/><path d="m1408-168h-16z"/><path d="m816-176h16z"/><path d="m848-176h16z"/><path d="m729.295-176h-3.545 3.25z"/><path d="m729.295-176h-.295 12.037 12.963-12.6033z"/><path d="m880-176h77z"/><path d="m832-176v8z"/><path d="m832-168v-8z"/><path d="m864-176h-16v8h16z"/><path d="m864-168h-16v-8h16z"/><path d="m848-176v8z"/><path d="m848-168v-8z"/><path d="m864-168v-8z"/><path d="m864-176v8z"/><path d="m848-168h16z"/><path d="m864-168h-16z"/><path d="m784-168v-8z"/><path d="m784-176v8z"/><path d="m832-176h-16v8h16z"/><path d="m832-168h-16v-8h16z"/><path d="m800-168h-16v-8h16z"/><path d="m800-176h-16v8h16z"/><path d="m800-168v-8z"/><path d="m800-176v8z"/><path d="m816-176v8z"/><path d="m816-168v-8z"/><path d="m832-168h-16z"/><path d="m816-168h16z"/><path d="m800-168h-16z"/><path d="m784-168h16z"/><path d="m725.75-176h3.25v7h-13v-7z"/><path d="m757.5-176h-3.5v7 1h14v-8z"/><path d="m160-176h-16-14-12.963z"/><path d="m176-176h16z"/><path d="m192-176h16z"/><path d="m208-176h128-96z"/><path d="m192-176v8z"/><path d="m192-168v-8z"/><path d="m208-176h-16v8h16z"/><path d="m208-168h-16v-8h16z"/><path d="m208-168v-8z"/><path d="m192-168h16z"/><path d="m208-168h-16z"/><path d="m160-176v8z"/><path d="m160-168v-8z"/><path d="m176-176h-16v8h16z"/><path d="m176-168h-16v-8h16z"/><path d="m176-168v-8z"/><path d="m176-176v8z"/><path d="m160-168h16z"/><path d="m176-168h-16z"/><path d="m-456-176h152-96z"/><path d="m-526.705-176h-3.5451 3.2501z"/><path d="m-456-176h-16-26.4999-3.5001-12.963z"/><path d="m-526.705-176h-.295 12.037 12.963-12.6033z"/><path d="m-472-168v-8z"/><path d="m-456-168h-16v-8h16z"/><path d="m-456-176h-16v8h16z"/><path d="m-456-168v-8z"/><path d="m-472-168h16z"/><path d="m-456-168h-16z"/><path d="m-530.2501-176h3.2501v7h-13v-7z"/><path d="m-498.4999-176h-3.5001v7 1h14v-8z"/><path d="m-526.705-176h-.295v7h12.3967v-7z"/><path d="m-1856-176h48z"/><path d="m-1808-176h16z"/><path d="m-1792-176h29-13z"/><path d="m-1408-176h-131z"/><path d="m-1632-176h-131-29-16-48z"/><path d="m-1792-168h-16v-8h16z"/><path d="m-1792-176h-16v8h16z"/><path d="m-1792-168v-8z"/><path d="m-1792-176v8z"/><path d="m-1738-167h14-18-14z"/><path d="m-1763-176h-13v8h13z"/><path d="m-1738-168v-7h14v8h-14z"/><path d="m-1763-176h12.3967v1 7h-12.3967z"/><path d="m-1738-175h-12.6033v7h12.6033z"/><path d="m-1738-168v1h-18v-1z"/><path d="m-1738-167v-1h-18v1z"/><path d="m-1808-176v8z"/><path d="m-1808-168v-8z"/><path d="m-1792-168h-16z"/><path d="m-1808-168h16z"/><path d="m-3712-176h16z"/><path d="m-3328-176h-48z"/><path d="m-3488-176h-112-96-16z"/><path d="m-3136-176h48z"/><path d="m-3088-176h16z"/><path d="m-3072-176h16z"/><path d="m-3056-176h16z"/><path d="m-3040-176h80z"/><path d="m-2912-176h-48-80-16-16-16-48z"/><path d="m-2688-176h-48z"/><path d="m-2464-176h16z"/><path d="m-2448-176h16z"/><path d="m-2432-176h16z"/><path d="m-2416-176h16z"/><path d="m-2400-176h16z"/><path d="m-2384-176h-16-16-16-16-16z"/><path d="m-2416-176h-16v8h16z"/><path d="m-2416-168h-16v-8h16z"/><path d="m-2384-168h-16v-8h16z"/><path d="m-2384-176h-16v8h16z"/><path d="m-2448-168h-16v-8h16z"/><path d="m-2448-176h-16v8h16z"/><path d="m-2416-168v-8z"/><path d="m-2416-176v8z"/><path d="m-2384-168v-8z"/><path d="m-2400-176v8z"/><path d="m-2400-168v-8z"/><path d="m-2400-168h16z"/><path d="m-2384-168h-16z"/><path d="m-2464-176v8z"/><path d="m-2464-168v-8z"/><path d="m-2448-168v-8z"/><path d="m-2448-176v8z"/><path d="m-2432-176v8z"/><path d="m-2432-168v-8z"/><path d="m-2432-168h16z"/><path d="m-2416-168h-16z"/><path d="m-2464-168h16z"/><path d="m-2448-168h-16z"/><path d="m-3040-176h-16v8h16z"/><path d="m-3040-168h-16v-8h16z"/><path d="m-3072-168h-16v-8h16z"/><path d="m-3072-176h-16v8h16z"/><path d="m-3040-176v8z"/><path d="m-3040-168v-8z"/><path d="m-3088-176v8z"/><path d="m-3088-168v-8z"/><path d="m-3056-176v8z"/><path d="m-3056-168v-8z"/><path d="m-3040-168h-16z"/><path d="m-3056-168h16z"/><path d="m-3072-168v-8z"/><path d="m-3072-176v8z"/><path d="m-3072-168h-16z"/><path d="m-3088-168h16z"/><path d="m-3696-168h-16v-8h16z"/><path d="m-3696-176h-16v8h16z"/><path d="m-3696-176v8z"/><path d="m-3696-168v-8z"/><path d="m-3712-168v-8z"/><path d="m-3712-176v8z"/><path d="m-3696-168h-16z"/><path d="m-3712-168h16z"/><path d="m729-169v-7h-3.25-9.75v7z"/><path d="m754-168v-1-7h3.5 10.5v8z"/><path d="m729-169h12.3967-5.3967-4.7736-15.2264z"/><path d="m729-169h-13 15.2264 4.7736 5.3967z"/><path d="m754-169v-7h-12.6033v7z"/><path d="m754-176v7h-12.6033v-7z"/><path d="m729-176v7h12.3967v-7z"/><path d="m729-169v-7h12.3967v7z"/><path d="m754-168v-1h-18v1z"/><path d="m105-176h12.3967-2.0967-10.759-12.541z"/><path d="m105-169h-13v-7h13z"/><path d="m105-176h-13v7h13z"/><path d="m130-169v-7h14v8h-14z"/><path d="m105-169h12.3967-5.3967-4.7735-15.2265z"/><path d="m130-176h-12.6033v7h12.6033z"/><path d="m105-176v7h12.3967v-7z"/><path d="m-502-168h14-18-14z"/><path d="m-502-168h-18 14 18z"/><path d="m-527-169v-7h-3.2501-9.7499v7z"/><path d="m-502-168v-1-7h3.5001 10.4999v8z"/><path d="m-527-169h-13 15.2264 4.7736 5.3967z"/><path d="m-527-169h12.3967-5.3967-4.7736-15.2264z"/><path d="m-502-169v-7h-12.6033v7z"/><path d="m-502-176v7h-12.6033v-7z"/><path d="m-527-169v-7h.295 12.1017v7z"/><path d="m-502-168v-1h-12.6033-5.3967v1z"/><path d="m-1143-176h-13v8h13z"/><path d="m-1118-168v-7h14v8h-14z"/><path d="m-1143-168h12.3967-5.3967-4.7736-15.2264z"/><path d="m-1118-175h-12.6033v7h12.6033z"/><path d="m-1118-175h-12.6033 5.6033 4.2656 16.7344z"/><path d="m-1143-176h12.3967v1 7h-12.3967z"/><path d="m965.037-176h-8.037-77-16-16-16-16-16-16-26.5-3.5-12.963 192.713z"/><path d="m160-176h48-16-16z"/><path d="m-992-176h-151-13-60z"/><path d="m2624-176h74.3333-23.3333-42z"/><path d="m1152-176h-48z"/><path d="m-128 224v224z"/><path d="m-128 0v224z"/><path d="m1792 224v224z"/><path d="m1792 0v224z"/><path d="m3072 224v224z"/><path d="m3072 0v224z"/><path d="m3488 448h-224z"/><path d="m3712-176h-120z"/><path d="m3264-176h104z"/><path d="m3712 224v224z"/><path d="m3712 0v224z"/><path d="m3264-176v176z"/><path d="m2432 224v224z"/><path d="m2432 0v224z"/><path d="m3072-176h-48-176z"/><path d="m2848 448h-224z"/><path d="m2624-176v176z"/><path d="m2256-176h-48z"/><path d="m2208 448h-224z"/><path d="m1984-176v176z"/><path d="m1152 224v224z"/><path d="m1152 0v224z"/><path d="m1568 448h-224z"/><path d="m1792-176h-176z"/><path d="m1344-176h48z"/><path d="m1344-176v176z"/><path d="m512 224v224z"/><path d="m512 0v224z"/><path d="m1152-176h-48-138.963z"/><path d="m933.75-176h-192.713-12.037-3.25-9.75-12z"/><path d="m928 448h-224z"/><path d="m704-176v176z"/><path d="m64-176h96-42.963-12.037-13z"/><path d="m288 448h-224z"/><path d="m64-176v176z"/><path d="m-2048 224v224z"/><path d="m-2048 0v224z"/><path d="m-768 0v224z"/><path d="m-352 448h-224z"/><path d="m-576-176h120-58.963-12.037-3.2501-9.7499z"/><path d="m-576-176v176z"/><path d="m-1216 224v-224z"/><path d="m-1216-176v176z"/><path d="m-938.2499-176h-53.7501z"/><path d="m-768-176h-151z"/><path d="m-992 448h-224z"/><path d="m-1408-176h-131-93z"/><path d="m-1632 448h-224z"/><path d="m-1856-176v176z"/><path d="m-1408 224v224z"/><path d="m-1408 0v224z"/><path d="m-3776-176h64z"/><path d="m-3328-176h-48-112z"/><path d="m-2688-176h-48-176z"/><path d="m-2048-176h-112z"/><path d="m-3136-176v176z"/><path d="m-2496-176v176z"/><path d="m-2272 448h-224z"/><path d="m-2912 448h-224z"/><path d="m-2688 224v224z"/><path d="m-2688 0v224z"/><path d="m-3552 448h-224z"/><path d="m-3328 224v224z"/><path d="m-3328 0v224z"/><path d="m-3776-176v176z"/><path d="m-3296 960v128z"/><path d="m-3456 960h-224 64z"/><path d="m-3680 960h-128z"/><path d="m-3808 960h-32z"/><path d="m-3296 1312h-96z"/><path d="m-3680 1184v-208-16h224v224z"/><path d="m-3456 1312h-160-64v-112-16h224z"/><path d="m-3296 960v128 96h-160v-224z"/><path d="m-3296 1184v128h-96-64v-128z"/><path d="m-3808 976v-16h128v16z"/><path d="m-3840 976v-16h32v16z"/><path d="m-3840 1200v-112-112h32 128v208 16z"/><path d="m-3840 1312v-112h160v112z"/><path d="m-3680 976h-128v16h128z"/><path d="m-3296 1312v-128-96z"/><path d="m-3296 960v128z"/><path d="m-3840 1088v112 112z"/><path d="m-3840 960v16 112z"/><path d="m-3840 1312h160 64z"/><path d="m-3616 1312h160 64z"/><path d="m-3296 1312h-96z"/><path d="m-3392 960h96-160z"/><path d="m-3616 960h-64-128-32z"/><path d="m-3392 960h-64-160z"/><path d="m-3680 960h-128v16h128z"/><path d="m-3680 976h-128v-16h128z"/><path d="m-3680 960v16z"/><path d="m-3680 976v-16z"/><path d="m-3808 976h128z"/><path d="m-3680 976h-128z"/><path d="m-3808 976v-16z"/><path d="m-3808 960v16z"/><path d="m-3680 992h-128v-16h128z"/><path d="m-3680 976v16z"/><path d="m-3808 992v-16z"/><path d="m-3808 976h128z"/><path d="m-3680 992h-128z"/></g><g id="e"><path d="m-3296 1088v96 128z"/><path d="m-3840 1312v-128-96z"/><path d="m-3840 1088v-128z"/><path d="m-3296 960h-96z"/><path d="m-3616 1312h-224z"/><path d="m-3392 1312h-224z"/><path d="m-3616 960h-224v128 96h224z"/><path d="m-3840 1184v128h224v-128z"/><path d="m-3392 960h-224v224h224z"/><path d="m-3616 1184v128h224v-128z"/><path d="m-3296 1184v-96-128h-96v224z"/><path d="m-3296 1312v-128h-96v128z"/></g></defs><g stroke="#000"><use fill="none" stroke-miterlimit="0" stroke-width="10" xlink:href="#a"/><use fill="#c2c2c2" xlink:href="#a"/><use fill="none" stroke-miterlimit="0" stroke-width="10" xlink:href="#b"/><use fill="#d1d1d1" xlink:href="#b"/><use fill="none" stroke-miterlimit="0" stroke-width="10" xlink:href="#c"/><use fill="#e0e0e0" xlink:href="#c"/><use fill="none" stroke-miterlimit="0" stroke-width="10" xlink:href="#d"/><use fill="#f0f0f0" xlink:href="#d"/><use fill="none" stroke-miterlimit="0" stroke-width="10" xlink:href="#e"/><use fill="#fff" xlink:href="#e"/></g></svg>