<svg viewBox="-704 -1536 1856 1600" xmlns="http://www.w3.org/2000/svg" xmlns:xlink="http://www.w3.org/1999/xlink"><defs><g id="a"><path d="m-448-128 64-64h48v112h-64z"/><path d="m-336-80v64l-64-64z"/><path d="m-336-192h64 16v16 96h-80z"/><path d="m-256-80v16l-64 64-16-16v-64z"/><path d="m-384-416v-96h112v112h-112z"/><path d="m-272-400v112h-112v-112z"/><path d="m-272-288v96h-64-48v-96z"/><path d="m-272-512h16v112h-16z"/><path d="m-256-400v112h-16v-112z"/><path d="m-256-288v96h-16v-96z"/><path d="m-256-512h64 48v112h-112z"/><path d="m-144-400v112h-112v-112z"/><path d="m-144-288v112h-112v-16-96z"/><path d="m-144-176v112h-16-96v-16-96z"/><path d="m-144-512h16 96v112h-112z"/><path d="m-32-400v112h-112v-112z"/><path d="m-32-288v112h-112v-112z"/><path d="m-32-176v112h-64-48v-112z"/><path d="m-32-512h16 16v32 80h-32z"/><path d="m0-400v16 96h-32v-112z"/><path d="m0-288v32 80h-32v-112z"/><path d="m0-176v32 80h-32v-112z"/><path d="m-16-528v16h-16-96l112-112z"/><path d="m0-640v48 64h-16v-96z"/><path d="m0-528v16h-16v-16z"/><path d="m0-640 64-64 48 48v64h-112z"/><path d="m112-592v48 48l-16 16h-96v-32-16-64z"/><path d="m96-480-96 96v-16-80z"/><path d="m112-592v-64l80 80-32 32h-48z"/><path d="m160-544-48 48v-48z"/><path d="m0-144v-32-80h112v112z"/><path d="m112-64h-112v-80h112z"/><path d="m112-144v-112h112v112z"/><path d="m224-64h-96-16v-80h112z"/><path d="m224-144v-112h112v112z"/><path d="m336-64h-112v-80h112z"/><path d="m448-256v112h-112v-112z"/><path d="m448-144v80h-96-16v-80z"/><path d="m-400-80 64 64 16 16-64-64-64-64z"/><path d="m448-64h-96z"/><path d="m224-256h-112-112z"/><path d="m0-288v-96 128z"/><path d="m96-480 16-16 48-48 32-32-192 192z"/><path d="m-384-416v16 112 96-128z"/><path d="m400-240v32h32v-32z"/><path d="m400-112v32h32v-32z"/><path d="m-272-528v16h-112v-16z"/><path d="m-192-528v16h-64-16v-16z"/><path d="m-384-640v112 16 96-128z"/><path d="m-272-640v112h-112v-112z"/><path d="m-192-640v112h-80v-112z"/><path d="m-128 0h32-64z"/><path d="m-160 0h32z"/><path d="m-128-64h-32 16 48z"/><path d="m-128-64h-32z"/><path d="m-128-64h32v64h-32z"/><path d="m-128 0h-32v-64h32z"/><path d="m-192-752v-112 96 32z"/><path d="m-272-752v112h-112v-112z"/><path d="m-192-752v16 96h-80v-112z"/><path d="m-256-64h96z"/><path d="m128-64h96-224z"/><path d="m128-64h-128-96 64 32 112z"/><path d="m352-64h-128-96 96 112z"/><path d="m224-64h128 96z"/><path d="m688-560v96h-96v-96z"/><path d="m224-256h224z"/><path d="m688-464h-96z"/><path d="m688-560v96z"/><path d="m192-576-96 96-96 96z"/><path d="m0-384v128z"/><path d="m-384-544v128 96-96z"/><path d="m-192-736v96 128-16-112z"/><path d="m448-256h-112-112z"/><path d="m64-704-64 64-16 16-112 112z"/><path d="m192-576-80-80-48-48z"/><path d="m-128-512h-16-48z"/><path d="m448-64v-80-112z"/><path d="m-384-768v-96 112 112z"/><path d="m-384-864h112v112h-112z"/><path d="m-272-864h80v112h-80z"/><path d="m-96-64v64z"/><path d="m-384-192-64 64z"/><path d="m-320 0 64-64z"/><path d="m-192-864v96z"/><path d="m-384-896v32z"/><path d="m-272-864h80-80-112z"/><path d="m-272-864h-112v-32h112z"/><path d="m-192-896v32h-80v-32z"/><path d="m-96-64h96z"/><path d="m448-64h-224z"/><path d="m224-256h224z"/><path d="m224-256h-224z"/><path d="m688-464v-96h-96v96z"/><path d="m688-560v96h-96v-96z"/><path d="m688-560v40 16 40z"/><path d="m688-464h-40-16-40z"/><path d="m688-560h-96z"/><path d="m592-560v96z"/><path d="m0-384v128z"/><path d="m-192-640v-96-32z"/><path d="m-192-896v32z"/><path d="m-384-928v32 32z"/><path d="m-384-768v128z"/><path d="m-272-896h80-80-112z"/><path d="m-272-896h-112v-32h112z"/><path d="m-192-928v32h-80v-32z"/><path d="m632-480v16h16v-16z"/><path d="m592-520v16h16v-16z"/><path d="m624-496v16h8 16 8v-16z"/><path d="m624-496v-32-16h-16v24 16 24h16z"/><path d="m656-528v-16h-8-16-8v16z"/><path d="m632-560v16h16v-16z"/><path d="m672-520v16h16v-16z"/><path d="m672-504v-16-24h-16v16 32 16h16z"/><path d="m688-464h-40z"/><path d="m688-560v40z"/><path d="m688-504v40z"/><path d="m672-504v24z"/><path d="m608-544v24z"/><path d="m656-544h16-16-8z"/><path d="m624-544h8-8-16z"/><path d="m656-496v-32z"/><path d="m624-528v32z"/><path d="m624-480h-16 16 8z"/><path d="m592-504v-16-40 96z"/><path d="m632-560h16 40-96z"/><path d="m-192-928v32z"/><path d="m-192-928v-32z"/><path d="m-384-864v96z"/><path d="m-272-928h-112v-32h112z"/><path d="m-192-960v32h-80v-32z"/><path d="m-272-928h80-80-112z"/></g><g id="b"><path d="m-192 0h-64z"/><path d="m0-64h-96z"/><path d="m-256-64h96z"/><path d="m896-256v-64z"/><path d="m-704-1088v64 32z"/><path d="m832-256h64z"/><path d="m832-576v32z"/><path d="m832-640h64v64h-64z"/><path d="m832-320h64v64h-64z"/><path d="m704-768v-64l64 64z"/><path d="m496-832h-48-64v-64h112z"/><path d="m608-832h-48-64v-64h80 32z"/><path d="m704-896v64h-32-64v-64z"/><path d="m560-768h-112v-64h48 64z"/><path d="m672-768h-112v-64h48 64z"/><path d="m704-832v64h-32v-64z"/><path d="m384-768v-64h64v64z"/><path d="m176-768h-112v-64h112z"/><path d="m192-832v64h-16v-64z"/><path d="m64-832v64z"/><path d="m784-320h48-32-128z"/><path d="m624-528v-16h8 16 8v16z"/><path d="m608-480v-24-16-24h16v16 32 16z"/><path d="m632-544v-16h16v16z"/><path d="m576-464v-112l16 16v40 16 40l-16 16z"/><path d="m448-464v-48-64h112v112z"/><path d="m560-448h-112v-16h112z"/><path d="m576-576v112h-16v-112z"/><path d="m576-464v16h-16v-16z"/><path d="m632-464v-16h16v16z"/><path d="m648-480h-16-8v-16h32v16z"/><path d="m592-504v-16h16v16z"/><path d="m672-504v-16h16v16z"/><path d="m632-464h16 40l16 16h-32-96l16-16z"/><path d="m448-656v-48-64h112v112z"/><path d="m560-576h-112v-16-64h112z"/><path d="m560-656v-112h112v112z"/><path d="m672-576h-96-16v-80h112z"/><path d="m704-768v112h-32v-112z"/><path d="m704-656v16 64h-32v-80z"/><path d="m688-504v-16-40l16-16v48 80l-16-16z"/><path d="m672-576h32l-16 16h-40-16-40l-16-16z"/><path d="m656-480v-16-32-16h16v24 16 24z"/><path d="m448-336v-112h112v112z"/><path d="m560-320h-112v-16h112z"/><path d="m560-336v-112h16 96v112z"/><path d="m672-320h-112v-16h112z"/><path d="m672-336v-112h32 80v112z"/><path d="m784-320h-112v-16h112z"/><path d="m816-448h16v112h-48v-112z"/><path d="m832-336v16h-48v-16z"/><path d="m704-528v-48-64h64l48 48v64z"/><path d="m816-480v32h-32-80v-80h112z"/><path d="m832-576v32 64h-16v-48-64z"/><path d="m832-480v32h-16v-32z"/><path d="m704-656v-112h64v112z"/><path d="m768-640h-64v-16h64z"/><path d="m592-464h40z"/><path d="m688-560h-40z"/><path d="m632-560h-40z"/><path d="m672-544v24z"/><path d="m688-504h-16z"/><path d="m672-520h16z"/><path d="m608-480v-24z"/><path d="m656-528h-32z"/><path d="m632-544v-16z"/><path d="m648-560v16z"/><path d="m624-496h32z"/><path d="m648-480v16z"/><path d="m656-480h16-16-8z"/><path d="m632-464v-16z"/><path d="m592-520h16z"/><path d="m592-560v40z"/><path d="m608-504h-16z"/><path d="m592-504v40z"/><path d="m112-656 64 64 16 16-128-128z"/><path d="m224-576h112 48-64-32-96z"/><path d="m64-704v-64h112v112h-64z"/><path d="m176-656v64l-64-64z"/><path d="m176-768h16l32 32v32 48h-48z"/><path d="m224-656v64 16h-32l-16-16v-64z"/><path d="m224-736 32 32h-32z"/><path d="m448-704h-64v-64h64z"/><path d="m224-592v-64-48h32 80v112z"/><path d="m336-576h-112v-16h112z"/><path d="m384-704h64v48 64h-112v-112z"/><path d="m448-592v16h-64-48v-16z"/><path d="m384-576h64v64z"/><path d="m0-256v192h224v-192z"/><path d="m-512-320h64 64-32z"/><path d="m-224-1280h-32z"/><path d="m-640-960v192-64-64-64-32z"/><path d="m-640-704v64z"/><path d="m-192-768v128z"/><path d="m-192-1024v32z"/><path d="m-192-1024v-32z"/><path d="m-256-960h64-80-112z"/><path d="m-256-1152v-128h32v192h-32z"/><path d="m-256-1088h32l32 32v32 32 32h-64z"/><path d="m-384-1152v-64l64-64h64v128z"/><path d="m-448-1152h64 128v64 128h-128-64z"/><path d="m-640-992v-96l64-64h128v192h-192z"/><path d="m-384-1216v64z"/><path d="m-384-640v-128z"/><path d="m-448-960v96 128h-192v-32-192z"/><path d="m-448-736v96h-192v-64-32z"/><path d="m-448-960v64 32z"/><path d="m-384-640v96z"/><path d="m-448-416v-224h64v96 128z"/><path d="m-384-320h-64v-96h64z"/><path d="m-448-640v224h-160l-32-32v-192z"/><path d="m-448-416v96h-64l-96-96z"/><path d="m-256-64-128-128v128l64 64z"/><path d="m-384-64v-128l-64 64z"/><path d="m-384-192-64 64z"/><path d="m-320 0 64-64z"/><path d="m-256 64v-64h64z"/><path d="m-256 0v64z"/><path d="m832-640v64h64v-64z"/><path d="m576-896h-64-128z"/><path d="m384-896v128 64z"/><path d="m512-704 64-64v-128h-192v192z"/><path d="m576-768h-64v-128h64z"/><path d="m512-704v-64h64z"/><path d="m0-224v-32z"/><path d="m224-256v32z"/><path d="m0-224v-32h224v32z"/><path d="m0-256h224z"/><path d="m224-224v-32h-224v32z"/><path d="m0-64v-32z"/><path d="m224-96v32z"/><path d="m0-64v-32h224v32z"/><path d="m224-64h-224z"/><path d="m0-96v32h224v-32z"/><path d="m832-640v64z"/><path d="m704-832v-64z"/><path d="m704-832 64 64z"/><path d="m688-896h16-96-32z"/><path d="m688-896h-112v-64h112z"/><path d="m704-960v64h-16v-64z"/><path d="m176-832h16-16-112z"/><path d="m192-848v-48z"/><path d="m176-832h-112v-64h112z"/><path d="m192-896v48 16h-16v-64z"/><path d="m192-832v64z"/><path d="m768-656v-112h64v112z"/><path d="m768-640v-16h64v16 64z"/><path d="m768-656v16-16-112z"/><path d="m832-576-16-16-48-48z"/><path d="m-192-1280h-32-32z"/><path d="m-224-1168v80-192z"/><path d="m-224-1168v-112h32v112z"/><path d="m-192-1088h-32v-80h32z"/><path d="m-192-1088v32l-32-32z"/><path d="m-192-1056-32-32z"/><path d="m-96 0h-32z"/><path d="m-384-192 128 128z"/><path d="m-128-64h32z"/><path d="m-160-64h-96z"/><path d="m896-640v64z"/><path d="m832-656v16-16-112z"/><path d="m896-640h-64z"/><path d="m832-656v-112h64v112z"/><path d="m896-640h-64v-16h64z"/><path d="m896-768h-64z"/><path d="m704-832v-64-64z"/><path d="m688-960h16-16-112z"/><path d="m576-1024v64z"/><path d="m688-960h-112v-64h112z"/><path d="m704-1024v64h-16v-64z"/><path d="m64-960v64z"/><path d="m176-896h16-16-112z"/><path d="m192-896v-64z"/><path d="m176-896h-112v-64h112z"/><path d="m192-960v64h-16v-64z"/><path d="m224-768h32v64l-32-32-32-32z"/><path d="m-160-1280h-32-64z"/><path d="m-192-1168v80-80-112z"/><path d="m-192-1088v64-32z"/><path d="m-160-1120v-48-112 112z"/><path d="m-192-1168v-112h32v112z"/><path d="m-160-1120-32 32v-80h32z"/><path d="m-128-512h-64z"/><path d="m-384-320v128z"/><path d="m-160-64v64h32v-64z"/><path d="m-160-64v64z"/><path d="m-128 0h32v-64h-32z"/><path d="m896-656v16-16-112z"/><path d="m896-656v-112h64v112z"/><path d="m960-640h-64v-16h64z"/><path d="m-128-1152v-16-112 112z"/><path d="m896-768h-64z"/><path d="m832-768h-64z"/><path d="m704-832v-128-64z"/><path d="m704-1088v32z"/><path d="m320-1152v-128 112z"/><path d="m688-1024h16-16-112z"/><path d="m688-1024h-112v-64h112z"/><path d="m704-1088v32 32h-16v-64z"/><path d="m224-1088h32-32-112-48z"/><path d="m0-1280v128-16z"/><path d="m32-1120-32-32v-128l64-64h160v224z"/><path d="m224-1088h-160l-32-32h192z"/><path d="m256-1344 64 64v128l-32 32h-64v-224z"/><path d="m288-1120-32 32h-32v-32z"/><path d="m192-1024h-16-112 48z"/><path d="m192-896v-64-48z"/><path d="m176-960h16-16-112z"/><path d="m176-960h-112v-64h112z"/><path d="m192-1024v16 48h-16v-64z"/><path d="m-160-1168v-112h32v112z"/><path d="m-128-1152-32 32v-48h32z"/><path d="m-192-1088 32-32z"/><path d="m432-208h16v-32h-16z"/><path d="m384-256v16h64v-16z"/><path d="m384-208v96h64v-96z"/><path d="m432-80h16v-32h-16z"/><path d="m384-112v32h16v-32z"/><path d="m384-80v16h64v-16z"/><path d="m384-240v32h16v-32z"/><path d="m432-208h-32z"/><path d="m400-208v-32z"/><path d="m432-240v32z"/><path d="m400-240h32z"/><path d="m400-112h32z"/><path d="m432-112v32z"/><path d="m432-80h-32z"/><path d="m400-80v-32z"/><path d="m1088-416v64z"/><path d="m176-1408h-64-48v-64h32 32 48z"/><path d="m192-1472h32 32v64h-32-48v-64z"/><path d="m128-1488h64v16h-16-48z"/><path d="m128-1504h64v16h-64z"/><path d="m256-1472h-32z"/><path d="m128-1472v-16z"/><path d="m192-1504v16z"/><path d="m192-1504h-64z"/><path d="m672-64h64-32-32-16z"/><path d="m1024-64h-64z"/><path d="m992-800h64v16h-64z"/><path d="m992-784h64v16h-64z"/><path d="m1056-800v16z"/><path d="m992-768v-16z"/><path d="m1056-800h-64z"/><path d="m896-640h64z"/><path d="m960-640v-16-112z"/><path d="m960-640v-128h32 64 32v64 64z"/><path d="m896-576v-64h64 128v160 64h-192z"/><path d="m1088-416v64 160h-192v-64-64-32-64z"/><path d="m1088-192v64l-64 64h-64-64v-128z"/><path d="m-704-992v-32 64z"/><path d="m-704-992v32 64 64 64z"/><path d="m-704-768v64z"/><path d="m-704-640v-64z"/><path d="m112-1344h112 32-32-160z"/><path d="m544-1344h-112-112 192z"/><path d="m112-1344h-48-16-48l64-64h48z"/><path d="m224-1344h-112v-64h64 48z"/><path d="m256-1408 64 64h-64-32v-64z"/><path d="m832-544v192 32-16-112-32z"/><path d="m832-320v64z"/><path d="m896-576h-64z"/><path d="m832-640v64h64v-64z"/><path d="m832-544v-32h64v160 64h-64z"/><path d="m896-352v32h-64v-32z"/><path d="m832-320v64h64v-64z"/><path d="m896-320h-64z"/><path d="m224-768h32z"/><path d="m224-768h-32z"/><path d="m704-1088v-64-16-112 64 64 96z"/><path d="m704-1056v224-192z"/><path d="m432-1280h-48-64v-64h112z"/><path d="m544-1280h-48-64v-64h112z"/><path d="m656-1280h-48-64v-64h96l16 16z"/><path d="m704-1280h-48v-48z"/><path d="m384-1168v-112h48 64v112z"/><path d="m496-1152h-112v-16h112z"/><path d="m496-1168v-112h48 64v112z"/><path d="m608-1152h-32-64-16v-16h112z"/><path d="m656-1280h48v112h-96v-112z"/><path d="m704-1168v16h-16-80v-16z"/><path d="m688-1088h-112v-64h32 80z"/><path d="m704-1152v64h-16v-64z"/><path d="m512-1152h64v64 48h-64z"/><path d="m576-1040v80h-64v-80z"/><path d="m320-1168v-112h64v112z"/><path d="m384-1152v64h-64v-64-16h64z"/><path d="m384-1088v-64z"/><path d="m688-1088h16-16-112z"/><path d="m576-1040v-48 64 64z"/><path d="m320-1280-64-64h64z"/><path d="m256-1088 64-64v64z"/><path d="m48-1328-48 48h-16-48v-64h64 48z"/><path d="m64-1344-16 16v-16z"/><path d="m-16-1152h16l48 48v16h-48-64v-64z"/><path d="m48-1104 16 16h-16z"/><path d="m-128-1168v-112h64 48v112z"/><path d="m-16-1152h-48-64v-16h112z"/><path d="m0-1280v112h-16v-112z"/><path d="m0-1168v16h-16v-16z"/><path d="m-64-1152v64z"/><path d="m-128-1152h64z"/><path d="m320-1280-64-64z"/><path d="m256-1088 32-32 32-32z"/><path d="m48-1104-48-48 32 32 32 32z"/><path d="m48-1328 16-16-64 64z"/><path d="m112-1024h-48l-64-64h48 16 48z"/><path d="m224-1024h-32-80v-64h112z"/><path d="m256-1088h64l-64 64h-32v-64z"/><path d="m256-832h-64z"/><path d="m256-1008v160h-64v-48-112z"/><path d="m224-1024h32v16h-64v-16z"/><path d="m256-848v16h-64v-16z"/><path d="m256-848v-160-16 128 64z"/><path d="m192-1008v-16z"/><path d="m192-832v-16z"/><path d="m448-480v160 64-64-64z"/><path d="m448-480v-32 48 16 112 16z"/><path d="m672-320h-96-64-64 112z"/><path d="m800-256h-128-96v-64h96 128z"/><path d="m832-320v64h-32v-64z"/><path d="m448-256v-64h64v64z"/><path d="m384-768v64z"/><path d="m320-768h64v64h-48-80v-64z"/><path d="m448-64v-192z"/><path d="m672-64h-16-208v-192h64 64 96z"/><path d="m800-256h32 64v64 128h-160-64v-192z"/><path d="m-640-992v32-64z"/><path d="m-640-992v-32-64z"/><path d="m-640-768v32 32z"/><path d="m-640-1088 64-64z"/><path d="m-384-960h-64z"/><path d="m-384-960v32 64z"/><path d="m-704-1024v-64h64v64z"/><path d="m-704-896v-64h64v64z"/><path d="m-704-768v-64h64v64z"/><path d="m-704-640v-64h64v64z"/><path d="m-192-512h64z"/><path d="m-192-512v-128z"/><path d="m832-640h64z"/><path d="m896-640v64z"/><path d="m832-576v-64z"/><path d="m832-576v-64h64v64z"/><path d="m896-576h-64z"/><path d="m384-768v-128h128v128z"/><path d="m512-768v64h-128v-64z"/><path d="m384-256h64z"/><path d="m448-64h-64z"/><path d="m384-64v-192z"/><path d="m448-256v192z"/><path d="m384-64v-192h64v192z"/><path d="m1088-480v32z"/><path d="m1088-448v32-64z"/><path d="m1088-416v-32h64v32z"/><path d="m-128 0h32-32-32z"/><path d="m-160 0h32z"/><path d="m-128-64h-32z"/><path d="m-128-64h-32 32 32z"/><path d="m656-64h-208z"/><path d="m704-64h-32z"/><path d="m672-64h-16z"/><path d="m704-64h32v64h-32z"/><path d="m704 0h-32v-64h32z"/><path d="m-128-64h32v64h-32z"/><path d="m-128 0h-32v-64h32z"/><path d="m1152-480v32z"/><path d="m1152-480v32h-64v-32z"/><path d="m256-1472h-32v64h32z"/><path d="m96-1472h32z"/><path d="m96-1472h-32z"/><path d="m672 0h32z"/><path d="m-608-416-32-32 32 32 96 96z"/><path d="m896-320v64z"/><path d="m896-256h-64z"/><path d="m832-256v-64z"/><path d="m832-320h64z"/><path d="m288-768h32-64-32z"/><path d="m512-1152v112 80z"/><path d="m384-1152h112 16z"/><path d="m-64-1344v64z"/><path d="m-64-1280h-64z"/><path d="m64-768v-64-64 64z"/><path d="m64-896v-128 64z"/><path d="m192-832h64v-64h-192v64z"/><path d="m64-832v64h128v-64z"/><path d="m64-704v-64z"/><path d="m320-576h64z"/><path d="m288-768h-64-32-128v64l32 32 96 96h96z"/><path d="m320-576v-192h-32v192z"/><path d="m96-672-32-32-192 192 32 32h192z"/><path d="m-96-480 96 96 96-96z"/><path d="m192-576-96-96v192z"/><path d="m64-704-192 192z"/><path d="m-448-640h-32z"/><path d="m-416-640h32-64z"/><path d="m-704-640h64z"/><path d="m-640-896v64z"/><path d="m-256-512h-64z"/><path d="m-384-640v128h64 64v-128z"/><path d="m-256-512h64v-128h-64z"/><path d="m-384-512v64l64-64z"/><path d="m-640-640v192z"/><path d="m-416-640h-32-32-160v192l32 32h192z"/><path d="m-608-416 96 96h96v-96z"/><path d="m-384-416v-32-64-128h-32v224z"/><path d="m-384-320v-96h-32v96z"/><path d="m-256 64 64-64h-64z"/><path d="m-256 64 64-64z"/><path d="m224-256h160z"/><path d="m224-256h-224v64h224z"/><path d="m192-1472h32z"/><path d="m128-1488v16h64v-16z"/><path d="m128-1504v16h64v-16z"/><path d="m128-1488v-16z"/><path d="m192-1488v16z"/><path d="m192-1488h-64z"/><path d="m128-1488h64z"/><path d="m992-800v16h64v-16z"/><path d="m992-784v16h64v-16z"/><path d="m1056-784v16z"/><path d="m992-784v-16z"/><path d="m1056-784h-64z"/><path d="m992-784h64z"/></g><g id="c"><path d="m1088-352v32 64 128-64z"/><path d="m1088-320v-32-64z"/><path d="m1088-768v64z"/><path d="m1088-416h64z"/><path d="m96-1408h128v-64h-128z"/><path d="m64-1408v-64z"/><path d="m256-1408v-64z"/><path d="m96-1472v64z"/><path d="m224-1408v-64z"/><path d="m224-1472h-32-64-32z"/><path d="m96-1408v-64h-32v64z"/><path d="m704-1280-48-48-16-16z"/><path d="m1088-128-64 64z"/><path d="m-96-64h96-32-96z"/><path d="m960-64h-64-64-96 160z"/><path d="m960-64h64-128z"/><path d="m896-608v-32 64z"/><path d="m896-608v32 192-32-80-16-32-32z"/><path d="m960-768h-64z"/><path d="m1088-768h-32z"/><path d="m960-768h32z"/><path d="m1088-768h-32-64-32z"/><path d="m960-256h128v-64h-128z"/><path d="m960-320h128z"/><path d="m896-384v64h64z"/><path d="m960-320h-64v64h64z"/><path d="m960-256h-64v64z"/><path d="m-704-896v-64-64-64 128 96z"/><path d="m-704-864v32-64z"/><path d="m0-1344h-64z"/><path d="m608-1344h32-96z"/><path d="m64-1408-64 64z"/><path d="m320-1344-64-64z"/><path d="m672-256h-96-64-64 96 32 64 16z"/><path d="m576-256h-64z"/><path d="m384-1216 128-128h-192v192z"/><path d="m608-1344h-64-32l-128 128h128 96z"/><path d="m704-1280-64-64h-32v128h96z"/><path d="m704-928v-128-96h-128v192 32z"/><path d="m576-896h128v-32h-128z"/><path d="m576-1152h128v-64h-96-96z"/><path d="m704-832v-64h-128-64v64z"/><path d="m512-832v-64h-128v128 64z"/><path d="m256-896v-128h-192v128z"/><path d="m768-448-64 64h64z"/><path d="m832-768h-64v128h64 64v-128z"/><path d="m768-640v64h64v-64z"/><path d="m896-576h-64-64v128 64h16 48 64z"/><path d="m672-256h96v-64h-192v64z"/><path d="m512-320h64 192l16-16v-48h-16-64-256v64z"/><path d="m784-336 48-48h-48z"/><path d="m448-256h64v-64h-64z"/><path d="m-64-1280h64v-64h-64z"/><path d="m-64-1088h64v-64h-64z"/><path d="m-64-1152h64v-128h-64-64v128z"/><path d="m704-832h-192 64 112z"/><path d="m320-1152v-192 64 112 16 64z"/><path d="m256-1024h-80-112z"/><path d="m704-384h-48-112-96z"/><path d="m768-576v-64-128 48 112 112 48z"/><path d="m768-448-32 32-32 32z"/><path d="m832-576v-64z"/><path d="m896-576h-64z"/><path d="m832-640h64z"/><path d="m832-384v64h64v-64z"/><path d="m784-336-16 16h64v-64z"/><path d="m768-256h64v-64h-64z"/><path d="m384-768h-64z"/><path d="m704-1056v128 32 64z"/><path d="m576-960h-64z"/><path d="m512-1216v64h64z"/><path d="m576-1152h-64v192h64z"/><path d="m320-1152h64v-64z"/><path d="m384-1216v64h128v-64z"/><path d="m320-1088h64z"/><path d="m320-1088h64v-64h-64z"/><path d="m576-928v-32 64z"/><path d="m384-896v64 64z"/><path d="m384-896h128 64-80z"/><path d="m-64-1088h64z"/><path d="m-64-1344v64z"/><path d="m0-1088 64 64z"/><path d="m256-1024 64-64z"/><path d="m64-896v-128 128 64z"/><path d="m448-512v32z"/><path d="m512-320h64z"/><path d="m576-320v64z"/><path d="m512-256v-64z"/><path d="m384-704v-64h-64v192h64z"/><path d="m384-576 64 64z"/><path d="m0-384v128z"/><path d="m832-192v128h64v-128z"/><path d="m896-192v-64h-64v64z"/><path d="m832-192v-64h-64z"/><path d="m224-256v192z"/><path d="m448-256h-224v192h224z"/><path d="m0-256v192z"/><path d="m-128-1280h-32-96z"/><path d="m-320-1280h64z"/><path d="m-192-640h-64z"/><path d="m-384-640h128z"/><path d="m-640-640h160 32z"/><path d="m-480-640h-160-64 64z"/><path d="m-640-832v64z"/><path d="m-640-704v64z"/><path d="m-256-1088h64l64-64h-128z"/><path d="m-128-1280h-128v128h128z"/><path d="m-192-864v-128-32-64h-64v32 192z"/><path d="m-256-832v64h64v-96h-64z"/><path d="m-256-1088v-64-128h-64l-64 64v64 96h128z"/><path d="m-384-1056v32 64 128h128v-32-192z"/><path d="m-384-832v64h128v-64z"/><path d="m-416-1152h-160l-64 64v64h64 160z"/><path d="m-384-1024v-32-96h-32v128z"/><path d="m-576-832h128v-32-32h-128z"/><path d="m-576-960h128 64v-64h-32-160z"/><path d="m-256-640h64v-128h-64-128v128z"/><path d="m-576-704h128v-64h-128z"/><path d="m-448-896v-64z"/><path d="m-576-896h128-192z"/><path d="m-640-768h64 128z"/><path d="m-192-992v128 96-96-32-32-32z"/><path d="m-192-1088 32-32 32-32z"/><path d="m-576-768h-64v64h64z"/><path d="m-576-896h-64v64h64z"/><path d="m-576-1024h-64v64h64z"/><path d="m-320-1280-64 64z"/><path d="m-416-1152h32-64-128z"/><path d="m-384-832v-128 96 96z"/><path d="m-448-864v32 64 64 64-96z"/><path d="m-640-896h64z"/><path d="m-640-1024h64z"/><path d="m-576-960h-64z"/><path d="m-640-768h64z"/><path d="m-576-832h-64z"/><path d="m-576-704h-64z"/><path d="m-640-832h-64z"/><path d="m-640-960h-64z"/><path d="m-704-1088v64h64v-64z"/><path d="m-704-1024h64z"/><path d="m-640-1088h-64z"/><path d="m-704-960v64h64v-64z"/><path d="m-704-896h64z"/><path d="m-704-768h64z"/><path d="m-704-832v64h64v-64z"/><path d="m-704-704v64h64v-64z"/><path d="m-704-704h64z"/><path d="m-96-64v64z"/><path d="m736 0v-64z"/><path d="m768-640h64z"/><path d="m832-640v64z"/><path d="m768-576v-64h64v64z"/><path d="m832-576h-64z"/><path d="m768-576h64v-64h-64z"/><path d="m512-320v-64h64v64z"/><path d="m576-384v64z"/><path d="m512-320v-64z"/><path d="m576-320h-64z"/><path d="m512-384v64h64v-64z"/><path d="m-64-1280v-64h64v64z"/><path d="m-64-1344h64z"/><path d="m0-1280h-64z"/><path d="m-64-1280v-64z"/><path d="m0-1344h-64v64h64z"/><path d="m0-1088h-64z"/><path d="m-64-1088v-64z"/><path d="m-64-1088v-64h64v64z"/><path d="m-64-1152h64z"/><path d="m0-1152h-64v64h64z"/><path d="m384-192v-64h64v64z"/><path d="m384-192v-64z"/><path d="m448-256v64z"/><path d="m384-256h64z"/><path d="m448-192v-64h-64v64z"/><path d="m384-256v64z"/><path d="m0-192v-64z"/><path d="m224-256h160v64h-160z"/><path d="m0-192v-64h224v64z"/><path d="m0-256h224z"/><path d="m384-192v-64h-160v64z"/><path d="m1088-416v-32z"/><path d="m1088-480v32h64v-32z"/><path d="m1152-448v32z"/><path d="m1088-480h64z"/><path d="m1088-448v32h64v-32z"/><path d="m-96 0h-32z"/><path d="m736 0h-32z"/><path d="m-256-64-64-64-64-64z"/><path d="m0-64h-32z"/><path d="m672-64v64h32v-64z"/><path d="m672-64v64z"/><path d="m704 0h32v-64h-32z"/><path d="m-160-64v64h32v-64z"/><path d="m-160 0v-64z"/><path d="m-128 0h32v-64h-32z"/><path d="m1088-128v-128z"/><path d="m1088-416v-32-32z"/><path d="m1088-704v160 64-160z"/><path d="m96-1408h160-32-128-32z"/><path d="m96-1408h-32-64v-64h64 32z"/><path d="m-256-1472h64v32h-64z"/><path d="m-144-1408h-112v-32h64 32 16z"/><path d="m-96-1440h32v32h-80v-32z"/><path d="m-160-1472h64v12h-64z"/><path d="m-160-1460h64v20h-48-16z"/><path d="m-192-1472v32z"/><path d="m-192-1440h32z"/><path d="m-96-1472v12z"/><path d="m-160-1440v-20z"/><path d="m-96-1472h-64z"/><path d="m-192-1472h-64z"/><path d="m-32-64h-32-192 96 32z"/><path d="m672-64h-16 16 32z"/><path d="m704-64h32 96z"/><path d="m896-192v128z"/><path d="m896-416v-80-16z"/><path d="m896-704v-16-48 128 32z"/><path d="m1088-768h-128-64z"/><path d="m1088-704v-64h-192v48 16 96 32 32h192z"/><path d="m896-544v32 16 80 32l64 64h128v-96-64-64z"/><path d="m896-384 64 64z"/><path d="m1088-256h-128z"/><path d="m1024-64 64-64v-128h-128l-64 64v128z"/><path d="m960-256-64 64z"/><path d="m-320-128v-64-128h-64v128z"/><path d="m-256-128-64-64v64l64 64z"/><path d="m-640-736v-32h192v64h-192z"/><path d="m-256-384v-128h-64l-64 64v128h64z"/><path d="m-256-64h192v-64h-64-128z"/><path d="m-64-128v-32-32l-64 64z"/><path d="m0-256v-128h-32-32v64 128 32h64z"/><path d="m-64-160v32 64h32 32v-96z"/><path d="m-128-384 64 64v-64z"/><path d="m-32-416-96-96h-64-64v128h128 64 32z"/><path d="m0-384-32-32v32z"/><path d="m-704-864v-96h64v64 64 64 32h-64z"/><path d="m-640-736v32 64h-64v-96z"/><path d="m-448-896v64h-192v-64z"/><path d="m-480-960h-160-64v-128h224z"/><path d="m-448-1088v128h-32v-128z"/><path d="m-80-896h-112v-32-32h112z"/><path d="m-64-960v64h-16v-64z"/><path d="m-192-896h112v112h-112z"/><path d="m-80-784v16h-112v-16z"/><path d="m-80-896h16 32v112h-48z"/><path d="m-32-784v16h-32-16v-16z"/><path d="m-192-1152h48 64v112h-112z"/><path d="m-80-1040v80h-112v-80z"/><path d="m-80-1152h48 32v64 48h-80z"/><path d="m0-1040v16 64h-64-16v-80z"/><path d="m0-1024v-16-48l64 64z"/><path d="m64-1408-64 64v-64z"/><path d="m-256-1408h112v112h-112z"/><path d="m-144-1296v112h-112v-96-16z"/><path d="m-144-1184v32h-48-64v-32z"/><path d="m-144-1408h80 32v112h-112z"/><path d="m-32-1296v112h-112v-112z"/><path d="m-32-1184v32h-48-64v-32z"/><path d="m-32-1408h32v64 48h-32z"/><path d="m0-1296v112h-32v-112z"/><path d="m0-1184v32h-32v-32z"/><path d="m320-400v-112h64 48v112z"/><path d="m432-384h-112v-16h112z"/><path d="m448-512v112h-16v-112z"/><path d="m448-400v16h-16v-16z"/><path d="m320-528v-48-64h64v64 48z"/><path d="m384-512h-64v-16h64z"/><path d="m432-512h-48v-16-48l64 64z"/><path d="m672-256h-16-16-64-32-96v192h208 16z"/><path d="m704-64h128v-128l-64-64h-96v192z"/><path d="m368-272-48-48v-64h112v112z"/><path d="m432-256h-48l-16-16h64z"/><path d="m432-272v-112h16 96v112z"/><path d="m544-256h-96-16v-16h112z"/><path d="m544-272v-112h112v112z"/><path d="m656-256h-16-64-32v-16h112z"/><path d="m656-272v-112h48 64v112z"/><path d="m768-256h-96-16v-16h112z"/><path d="m880-304-32 32h-80v-112h48 64z"/><path d="m848-272-16 16h-64v-16z"/><path d="m896-384v64l-16 16v-80z"/><path d="m816-384h-48-64l32-32h32 48z"/><path d="m880-416h16v32h-16-64v-32z"/><path d="m736-416 32-32v32z"/><path d="m768-832v64l-64-64z"/><path d="m768-768v-64h48 64v112h-112z"/><path d="m880-720v112h-112v-112z"/><path d="m880-608v112h-112v-112z"/><path d="m880-496v80h-64-48v-32-48z"/><path d="m880-832h16v64 48h-16z"/><path d="m896-720v16 96h-16v-112z"/><path d="m896-608v32 32 32 16h-16v-112z"/><path d="m896-496v80h-16v-80z"/><path d="m256-1024 64-64v64z"/><path d="m448-896 64 64-128 128-64-64z"/><path d="m320-1088v-64h64v64z"/><path d="m176-960h-112v-64h112z"/><path d="m256-1024v64h-80v-64z"/><path d="m320-1168v-112h64 48v112z"/><path d="m432-1152h-48-64v-16h112z"/><path d="m432-1168v-112h112v112z"/><path d="m544-1152h-32-80v-16h112z"/><path d="m544-1168v-112h64 32l16 16v96z"/><path d="m656-1152h-32-80v-16h112z"/><path d="m704-1216v32 32h-48v-16-96z"/><path d="m624-1088h-48-64v-64h32 80z"/><path d="m656-1152h48v64h-16-64v-64z"/><path d="m576-976v-112h48 64v112z"/><path d="m576-864v-32-80h112v112z"/><path d="m688-832h-112v-32h112z"/><path d="m688-976v-112h16v112z"/><path d="m688-864v-112h16v16 32 64z"/><path d="m704-832h-16v-32h16z"/><path d="m816-832h-48-64v-32-64h64 32 16z"/><path d="m864-928h32v96h-16-64v-96z"/><path d="m800-948h64v20h-48-16z"/><path d="m704-960h64v32h-64z"/><path d="m800-960h64v12h-64z"/><path d="m320-1408v64l-64-64z"/><path d="m320-1280v-64l64 64z"/><path d="m-320-320v128z"/><path d="m256-1024v64z"/><path d="m608-1280h-64-112-48 64 64z"/><path d="m512-1088v-64z"/><path d="m704-1216v32z"/><path d="m864-960h-64z"/><path d="m768-960h-64z"/><path d="m768-960v32z"/><path d="m864-960v12z"/><path d="m800-928v-20z"/><path d="m576-1088h-64z"/><path d="m384-1088h-64z"/><path d="m384-1152v64z"/><path d="m320-1088h64v64 64l-64-64z"/><path d="m-192-768h-64z"/><path d="m0-1024v64z"/><path d="m176-960h80-80-112z"/><path d="m64-960v-64z"/><path d="m0-960h-64z"/><path d="m-192-1152h-64z"/><path d="m-192-928v32 112 16h-64v-64-64-32z"/><path d="m656-256h16 96-32-96z"/><path d="m-64-192v-128z"/><path d="m-256-128h128z"/><path d="m-704-864v128 96-64-64-64z"/><path d="m64-1408-64 64z"/><path d="m320-1344-64-64z"/><path d="m768-256h-96z"/><path d="m-128-512 96 96 32 32-96-96z"/><path d="m0-1152v-32-112-48 64 128 64z"/><path d="m256-1024 64-64z"/><path d="m0-1088 64 64z"/><path d="m384-640v-64 128z"/><path d="m384-576 64 64z"/><path d="m512-832-128 128z"/><path d="m768-768-64-64z"/><path d="m448-400v-112 32 96z"/><path d="m448-256v192z"/><path d="m832-64v-128z"/><path d="m832-192-64-64z"/><path d="m0-256v96 96z"/><path d="m-640-960v64z"/><path d="m-448-832h-128-64z"/><path d="m-480-960h32-128-64z"/><path d="m-448-704h-128-64z"/><path d="m-448-768v-64z"/><path d="m-448-640v-64z"/><path d="m-384-320v-128 32z"/><path d="m-256-512h64z"/><path d="m-320-512-64 64z"/><path d="m-384-192v-128z"/><path d="m320-640v64l64-64z"/><path d="m384-1088v-64l-64 64z"/><path d="m384-1088v-64z"/><path d="m384-1152v64h-64z"/><path d="m576-1088-64-64v64z"/><path d="m512-1152v64z"/><path d="m256-960v-64l-64 64z"/><path d="m256-960v-64z"/><path d="m256-1024v64h-64z"/><path d="m128-960-64-64v64z"/><path d="m64-1024v64z"/><path d="m0-960v-64l-64 64z"/><path d="m0-960v-64z"/><path d="m0-1024v64h-64z"/><path d="m-192-1152-64-64v64z"/><path d="m-256-1152h64z"/><path d="m-256-1216v64z"/><path d="m320-384h-64z"/><path d="m320-576v-64z"/><path d="m320-576v48 16z"/><path d="m320-400v-112 112 16z"/><path d="m256-400v-112h64v112z"/><path d="m320-384h-64v-16h64z"/><path d="m320-512h-64v-64h64z"/><path d="m256-512h64z"/><path d="m-64-768h32z"/><path d="m-80-768h-112 112 16z"/><path d="m-32-896h-32z"/><path d="m-32-784v-112h32v112z"/><path d="m0-768h-32v-16h32z"/><path d="m-32-784v16-16-112z"/><path d="m0-768v64z"/><path d="m-64-768v21.3333 10.6667z"/><path d="m-80-736h-112v-32h112z"/><path d="m-64-768v32h-16v-32z"/><path d="m320-1536h-64-32z"/><path d="m896-416v32z"/><path d="m896-576v64-32z"/><path d="m896-608v32z"/><path d="m896-608v32-32-96z"/><path d="m960-384v-32z"/><path d="m960-576v-32z"/><path d="m960-512v-64-32-96h32v224h-32z"/><path d="m992-480v96h-32v-32-64z"/><path d="m896-608v-96h64v96z"/><path d="m896-416v-96h64v32 64z"/><path d="m-320-1088v64 32z"/><path d="m256-384h64-96z"/><path d="m256-400v-112 112 16z"/><path d="m0-784v16-16-112z"/><path d="m32-896h-32z"/><path d="m0-784v-112h32v112z"/><path d="m32-768h-32v-16h32z"/><path d="m224-400v-112h32v112z"/><path d="m256-384h-32v-16h32z"/><path d="m-64-736v-10.6667 42.6667z"/><path d="m-192-768v32z"/><path d="m-80-736h-112 112 16z"/><path d="m-80-704h-112v-32h112z"/><path d="m-64-736v32h-16v-32z"/><path d="m768-256h-32z"/><path d="m544-256h-96 96 32z"/><path d="m576-256h-32z"/><path d="m736-256v64h-64-32v-64z"/><path d="m736-256h32v64h-32z"/><path d="m448-192v-64h96v64z"/><path d="m544-256h32v64h-32z"/><path d="m672-160h-224v-32h96 32 64 32z"/><path d="m736-192h32v32h-96v-32z"/><path d="m224-384h96-128z"/><path d="m0-768h32z"/><path d="m32-784v-112h32v112z"/><path d="m64-768h-32v-16h32z"/><path d="m32-784v16-16-112z"/><path d="m224-512h32z"/><path d="m224-512h-32z"/><path d="m224-400v-112 112 16z"/><path d="m192-400v16-16-112z"/><path d="m192-400v-112h32v112z"/><path d="m224-384h-32v-16h32z"/><path d="m-64-672v-32z"/><path d="m-192-704v32z"/><path d="m-192-704v-64 32z"/><path d="m-80-704h-112 112 16z"/><path d="m-80-672h-112v-32h112z"/><path d="m-64-704v32h-16v-32z"/><path d="m320-1472v64z"/><path d="m224-1536h32-32-32z"/><path d="m224-1536h-32-64-64-64z"/><path d="m256-1536h64v64h-64z"/><path d="m128-1536h64v64h-64z"/><path d="m0-1472v-64h64v64z"/><path d="m128-1472h64 64 64v64h-64-160v-64z"/><path d="m-32-1536h32z"/><path d="m960-704h-64z"/><path d="m960-512h-64z"/><path d="m896-576v-32h64v32z"/><path d="m896-384v-32h64v32z"/><path d="m-320-992v32 64 64 64z"/><path d="m-320-736v-32z"/><path d="m-128-384h-128z"/><path d="m112-384h80 128-64-32-128z"/><path d="m256-832v-16-112 64z"/><path d="m384-1344v32 32z"/><path d="m384-1344v64l-64-64z"/><path d="m384-1408v64h-64v-64z"/><path d="m512-1088h64v112 80h-64z"/><path d="m384-1088v-64h48 80v64z"/><path d="m320-960h-64v-64h64l64 64z"/><path d="m0-960v-64h64v64z"/><path d="m64-848v80-16-112z"/><path d="m64-848v-48-64h112v112z"/><path d="m176-768h-80-32v-80h112z"/><path d="m256-960v112h-80v-112z"/><path d="m256-848v16 64h-32-48v-80z"/><path d="m0-896h64-32z"/><path d="m0-896h-32z"/><path d="m0-960v64h-32-32v-64z"/><path d="m-256-1408v112 16z"/><path d="m-320-1408h64v128h-64z"/><path d="m-320-1024v-64h64v64z"/><path d="m-320-896v-64h64v32 32z"/><path d="m-320-768v-64h64v64z"/><path d="m-256-1088v-64z"/><path d="m-256-960v-64-64-64h64v112 80 32h-64z"/><path d="m0-576v64z"/><path d="m0-400v-64-48h112v112z"/><path d="m112-384h-16-96v-16h112z"/><path d="m192-512v112h-80v-112z"/><path d="m192-400v16h-80v-16z"/><path d="m256-576v64h-32-32v-64z"/><path d="m-192-576h112v112h-112z"/><path d="m-80-464v80h-48l-64-64v-16z"/><path d="m-80-576h16 64v64 48h-80z"/><path d="m0-464v64 16h-80v-80z"/><path d="m-64-640v-32-32h64v64z"/><path d="m-80-576h-112v-96h112z"/><path d="m-64-672v32 64h-16v-96z"/><path d="m-192-672v96 112 16-32z"/><path d="m0-640h-64z"/><path d="m-64-640h64v64h-64z"/><path d="m-64-704v-42.6667-21.3333h32 32v64z"/><path d="m-80-672h-112 112 16z"/><path d="m320-384v64z"/><path d="m448-256v64z"/><path d="m448-192v32z"/><path d="m768-192h-32z"/><path d="m576-192h-32z"/><path d="m640-256v64z"/><path d="m-64-320-64-64z"/><path d="m-256-384-64 64z"/><path d="m-128-128 64-64z"/><path d="m-320-192 64 64z"/><path d="m384-1088h-64z"/><path d="m512-1088h64z"/><path d="m512-1088v-64l64 64z"/><path d="m256-960h-64z"/><path d="m64-960h64z"/><path d="m64-960v-64l64 64z"/><path d="m0-960h-64z"/><path d="m-256-1152v-64l64 64z"/><path d="m256-576h-64z"/><path d="m192-576v64l64-64z"/><path d="m192-512v-64h64z"/><path d="m0-512v-64z"/><path d="m-64-576 64 64v-64z"/><path d="m0-576h-64z"/><path d="m0-640v-64l-64 64z"/><path d="m0-640v-64z"/><path d="m0-704v64h-64z"/><path d="m656-256h16z"/><path d="m-96-1440h32z"/><path d="m-160-1460v20h64v-20z"/><path d="m-160-1472v12h64v-12z"/><path d="m-96-1460v20z"/><path d="m-160-1460v-12z"/><path d="m-96-1460h-64z"/><path d="m-160-1460h64z"/><path d="m896-480v-32z"/><path d="m896-480v-32 32 64 32z"/><path d="m896-672v-32z"/><path d="m896-800v96-16-48-64z"/><path d="m896-832v32z"/><path d="m896-832v-96z"/><path d="m896-384h64z"/><path d="m960-704v32z"/><path d="m960-576v64z"/><path d="m960-512v32z"/><path d="m896-576h64z"/><path d="m896-672v96h64v-96z"/><path d="m960-672v-32h-64v32z"/><path d="m960-480h-64v96h64z"/><path d="m960-480v-32h-64v32z"/><path d="m864-928h32z"/><path d="m800-960v12h64v-12z"/><path d="m800-948v20h64v-20z"/><path d="m864-948v20z"/><path d="m800-948v-12z"/><path d="m800-948h64z"/><path d="m864-948h-64z"/><path d="m224-768h-32z"/><path d="m192-768h-64-32 80 48z"/><path d="m128-768h-32z"/><path d="m128-768h64v32h-64z"/><path d="m128-736h-32v-32h32z"/><path d="m192-768h32v32h-32z"/><path d="m672-256h96-112z"/><path d="m480-256h96 64-96-96z"/><path d="m656-256h-16z"/><path d="m576-256h64z"/><path d="m448-256h32z"/><path d="m768-192v-64z"/><path d="m672-192h-32z"/><path d="m640-192h-64z"/><path d="m480-192h-32z"/><path d="m768-192v-64h-96v64z"/><path d="m672-192v-64h-16-16v64z"/><path d="m576-192v-64z"/><path d="m480-192h96v-64h-96z"/><path d="m480-256h-32v64h32z"/><path d="m320-1408h64z"/><path d="m0-1408h-32-32z"/><path d="m-256-1408h-64z"/><path d="m0-1536v64z"/><path d="m256-1472h-64z"/><path d="m128-1472h-32-32z"/><path d="m-256-1440v-32 32 32z"/><path d="m-64-1440v32z"/><path d="m-192-1440h-64v32h192v-32z"/><path d="m-256-1472v32h64v-32z"/><path d="m-64-1440h-32-64-32z"/><path d="m896-320v-64z"/><path d="m896-800v96 128-96-32z"/><path d="m544-384h160-192z"/><path d="m640-1280h-32z"/><path d="m448-1280h-64z"/><path d="m512-1056v-32 192z"/><path d="m704-1184v128 96-16-112-64z"/><path d="m768-928v-32h-64v64 64 64l32 32h32z"/><path d="m736-736 32 32v-32z"/><path d="m896-800v-32-96h-128v192 32h128z"/><path d="m768-704v32 192h128v-32-64-128z"/><path d="m768-480v32 32h128v-64z"/><path d="m768-416v-32l-32 32z"/><path d="m768-384h128v-32h-128-32l-32 32z"/><path d="m768-704v32z"/><path d="m736-416 32-32-64 64z"/><path d="m768-928h32z"/><path d="m896-928h-32-64-32z"/><path d="m576-832h-64z"/><path d="m512-896h64z"/><path d="m704-1056v-128-32l-64-64h-32-96v192 32z"/><path d="m576-896h128v-64-96h-192v160z"/><path d="m704-1216-48-48-16-16z"/><path d="m576-832h128v-64h-128z"/><path d="m576-896v32 32z"/><path d="m704-768v-64h-128-64v64z"/><path d="m320-960h64z"/><path d="m256-960h64z"/><path d="m448-1088h64z"/><path d="m448-1088h-64 128z"/><path d="m448-1280v192h64v-192z"/><path d="m384-1024v-64z"/><path d="m384-960v-64z"/><path d="m384-960v-64h-64z"/><path d="m512-832-64-64-128 128 64 64h64l64-64z"/><path d="m384-640h64v-32-32h-64z"/><path d="m512-384-64-64v32 32z"/><path d="m448-416v-32-192h-64-64v64 160z"/><path d="m320-384h128v-32h-128z"/><path d="m448-672v32 192z"/><path d="m384-640h-64z"/><path d="m512-832-64-64z"/><path d="m448-896-128 128z"/><path d="m384-704v64z"/><path d="m320-768 64 64z"/><path d="m256-576h64z"/><path d="m-256-1024v64z"/><path d="m-256-896v64z"/><path d="m224-576h32-64z"/><path d="m224-576h-32-192z"/><path d="m192-576v64z"/><path d="m192-576v64h-80-112v-64z"/><path d="m0-576h-64z"/><path d="m832-256h-64z"/><path d="m384-256h48 16z"/><path d="m544-384h-32-64-128v64l64 64h64 96z"/><path d="m768-384h-64-160v128h96 16 112z"/><path d="m832-256 64-64v-64h-128v128z"/><path d="m832-256 16-16 32-32 16-16z"/><path d="m320-320 48 48 16 16z"/><path d="m384-640-64 64v-64z"/><path d="m320-640h64z"/><path d="m320-576v-64z"/><path d="m384-640-64 64z"/><path d="m192-576v64z"/><path d="m0-576v64l-64-64z"/><path d="m0-640h-64z"/><path d="m96-736h32 64 32-32-64z"/><path d="m0-1536v64 64z"/><path d="m320-1536v64z"/><path d="m320-1536h32z"/><path d="m64-1536h64z"/><path d="m256-1536h64-96z"/><path d="m128-1472v64z"/><path d="m128-1536v64z"/><path d="m192-1408v-64z"/><path d="m192-1472v-64z"/><path d="m256-1472v64z"/><path d="m256-1536v64z"/><path d="m320-1472v-64h-64v64 64h64z"/><path d="m256-1408v-64h-64v64z"/><path d="m192-1472v-64h-64v64 64h64z"/><path d="m64-1408v-64z"/><path d="m64-1472v-64z"/><path d="m128-1408v-64h-64v64z"/><path d="m64-1472v-64h-64v128h64z"/><path d="m-320-1344v-64z"/><path d="m-320-1024v-64 96z"/><path d="m-320-1088v-32z"/><path d="m-320-992v32-32-32z"/><path d="m-320-832v-64z"/><path d="m96-384h-96-128 48 80z"/><path d="m256-832v64z"/><path d="m256-960v-64z"/><path d="m256-832v-64z"/><path d="m320-1312v224h64v-192-32z"/><path d="m384-1344h-64v32h64z"/><path d="m256-1408 64 64v-64z"/><path d="m320-1024v-64l-64 64z"/><path d="m768-768v64l-64-64z"/><path d="m768-448v64h-64z"/><path d="m512-768-64 64v-64z"/><path d="m448-384v-64l64 64z"/><path d="m320-1344v32z"/><path d="m320-1344v-64z"/><path d="m384-1344v-64z"/><path d="m384-1344v-64h-64v64z"/><path d="m768-672v224-32z"/><path d="m768-704-32-32-32-32z"/><path d="m704-768h-192z"/><path d="m320-1088h64z"/><path d="m384-1088h64v-192h-64z"/><path d="m320-1024h64v-64h-64z"/><path d="m256-1024v64h64v-64z"/><path d="m320-1024v64h64z"/><path d="m448-704v32z"/><path d="m448-448 64 64z"/><path d="m512-768-64 64z"/><path d="m256-384h64v-32-160h-64z"/><path d="m256-768h-32z"/><path d="m96-768h32 64 32 32-192z"/><path d="m192-768h32z"/><path d="m-128-768h64 64z"/><path d="m-64-768h64z"/><path d="m-320-768h64z"/><path d="m0-768h32 32z"/><path d="m64-768h32z"/><path d="m96-768h32z"/><path d="m0-1248v128 96z"/><path d="m0-1408v64z"/><path d="m0-896v-64z"/><path d="m0-960h64z"/><path d="m256-960h-32-160z"/><path d="m0-1408v64l64-64z"/><path d="m64-960-64-64v64z"/><path d="m64-960v64z"/><path d="m64-896v128z"/><path d="m256-896v-64h-192v64z"/><path d="m0-896v128h64v-128z"/><path d="m-64-1344v160z"/><path d="m-64-1120v160l64 64v-64-64-96z"/><path d="m0-1248v-96h-64v160 64h64z"/><path d="m0-1344v-64h-64v64z"/><path d="m-256-1152h64z"/><path d="m-192-1152-64-64v64z"/><path d="m-320-1344v64h64v-64z"/><path d="m-320-1280h64z"/><path d="m-64-1344v-64h-192v64z"/><path d="m-256-1344v-64h-64v64z"/><path d="m-256-1216v-64 96 32z"/><path d="m-256-832h-64z"/><path d="m-192-832h-64z"/><path d="m-192-1056v32 64 64 64-128z"/><path d="m-192-960h-64z"/><path d="m-256-960h-64z"/><path d="m-256-1024h64z"/><path d="m-320-1024h64z"/><path d="m-192-1088h-64z"/><path d="m-256-1088h-64z"/><path d="m-192-1152h-64v64h64z"/><path d="m-256-1024h64v-32-32h-64-64v64z"/><path d="m-192-1024h-64v64h64z"/><path d="m-256-896h64z"/><path d="m-320-896h64z"/><path d="m-256-896h64v-64h-64-64v64z"/><path d="m-192-896h-64v64h64z"/><path d="m-256-768h64 64l-64-64h-64-64v64z"/><path d="m0-640v-64z"/><path d="m0-576v-64z"/><path d="m256-576h-32z"/><path d="m128-736h64v-32h-64z"/><path d="m192-736h32v-32h-32z"/><path d="m128-768h-32v32h32z"/><path d="m224-576h-224v96 96h96 128z"/><path d="m256-384v-192h-32v192z"/><path d="m-192-704v-64 64 32z"/><path d="m0-704h-64z"/><path d="m-128-768h-64v64h128v-64z"/><path d="m-64-704h64v-64h-64z"/><path d="m0-576v-64-64h-64-128v32 192h192z"/><path d="m-192-480v32l64 64h128v-96z"/><path d="m-192-448 64 64z"/><path d="m224-1536h-224 64 64 64z"/><path d="m-320-992v224-64-64-64z"/></g><g id="d"><path d="m224-1408h32-64-64-64z"/><path d="m0-768v-128l-64-64h-128v128l64 64z"/><path d="m0-960v-64l64 64z"/><path d="m-64-1152h-128v96 96h128z"/><path d="m-64-1184v-160h-192v128l64 64h128z"/><path d="m64-1408-64 64v-64z"/><path d="m256-768v-64-64h-192v128z"/><path d="m320-960h-64v-64l64-64z"/><path d="m320-1408v64l-64-64z"/><path d="m256-960v-64z"/><path d="m320-1312v224z"/><path d="m320-1344-64-64z"/><path d="m256-1024 64-64z"/><path d="m0-1344v96z"/><path d="m0-768v-128z"/><path d="m0-1024 64 64z"/><path d="m64-1408-64 64z"/><path d="m256-896h-192z"/><path d="m-64-1184v32 192-160z"/><path d="m0-896-64-64z"/><path d="m-256-1344v64 64z"/><path d="m-64-1344h-192z"/><path d="m-256-1216 64 64z"/><path d="m-192-1152v64 32z"/><path d="m-192-832 64 64z"/></g></defs><g stroke="#000"><use fill="none" stroke-miterlimit="0" stroke-width="10" xlink:href="#a"/><use fill="#c4c4c4" xlink:href="#a"/><use fill="none" stroke-miterlimit="0" stroke-width="10" xlink:href="#b"/><use fill="#d9d9d9" xlink:href="#b"/><use fill="none" stroke-miterlimit="0" stroke-width="10" xlink:href="#c"/><use fill="#ebebeb" xlink:href="#c"/><use fill="none" stroke-miterlimit="0" stroke-width="10" xlink:href="#d"/><use fill="#fff" xlink:href="#d"/></g></svg>