<svg viewBox="-738 -3118 1822 5096" xmlns="http://www.w3.org/2000/svg" xmlns:xlink="http://www.w3.org/1999/xlink"><defs><g id="a"><path d="m-426 488v26 72 126-125z"/><path d="m-426 264v26 198-125z"/><path d="m-426 40v26 198-125z"/><path d="m-426-184v26 198-125z"/><path d="m-426-408v26 198-125z"/><path d="m-426-632v26 198-51z"/><path d="m-426-856v26 198-55z"/><path d="m-426-1080v26 198-55-55z"/><path d="m-426-1304v26 198-110z"/><path d="m-426-1528v26 198-39z"/><path d="m-426-1528v-198h224v224h-224z"/><path d="m-202-1502v224h-224v-26-198z"/><path d="m-202-1278v224h-224v-26-198z"/><path d="m-202-1054v224h-224v-26-198z"/><path d="m-202-830v224h-224v-26-198z"/><path d="m-202-606v224h-224v-26-198z"/><path d="m-202-382v224h-224v-26-198z"/><path d="m-202-158v224h-224v-26-198z"/><path d="m-202 66v224h-224v-26-198z"/><path d="m-202 290v224h-224v-26-198z"/><path d="m-202 514v72h-224v-72z"/><path d="m-202-1726h224v224h-224z"/><path d="m22-1502v224h-224v-224z"/><path d="m22-1278v224h-224v-224z"/><path d="m22-1054v224h-224v-224z"/><path d="m22-830v224h-224v-224z"/><path d="m22-606v224h-224v-224z"/><path d="m22-382v224h-224v-224z"/><path d="m22-158v224h-224v-224z"/><path d="m22 66v224h-224v-224z"/><path d="m22 290v224h-224v-224z"/><path d="m22 514v72h-224v-72z"/><path d="m22-1726h224v224h-224z"/><path d="m246-1502v224h-224v-224z"/><path d="m246-1278v224h-224v-224z"/><path d="m246-1054v224h-224v-224z"/><path d="m246-830v224h-224v-224z"/><path d="m246-606v224h-224v-224z"/><path d="m246-382v224h-224v-224z"/><path d="m246-158v224h-224v-224z"/><path d="m246 66v224h-224v-224z"/><path d="m246 290v224h-224v-224z"/><path d="m246 514v72h-224v-72z"/><path d="m246-1726h224v224h-224z"/><path d="m470-1502v224h-224v-224z"/><path d="m470-1278v224h-224v-224z"/><path d="m470-1054v224h-224v-224z"/><path d="m470-830v224h-224v-224z"/><path d="m470-606v224h-224v-224z"/><path d="m470-382v224h-224v-224z"/><path d="m470-158v224h-224v-224z"/><path d="m470 66v224h-224v-224z"/><path d="m470 290v224h-224v-224z"/><path d="m470 514v72h-224v-72z"/><path d="m470-1726h224v224h-224z"/><path d="m694-1502v224h-224v-224z"/><path d="m694-1278v224h-224v-224z"/><path d="m694-1054v224h-224v-224z"/><path d="m694-830v224h-224v-224z"/><path d="m694-606v224h-224v-224z"/><path d="m694-382v224h-224v-224z"/><path d="m694-158v224h-224v-224z"/><path d="m694 66v224h-224v-224z"/><path d="m694 290v224h-224v-224z"/><path d="m694 514v72h-224v-72z"/><path d="m694-1726h224v224h-224z"/><path d="m918-1502v224h-224v-224z"/><path d="m918-1278v224h-224v-224z"/><path d="m918-1054v224h-224v-224z"/><path d="m918-830v224h-224v-224z"/><path d="m918-606v224h-224v-224z"/><path d="m918-382v224h-224v-224z"/><path d="m918-158v224h-224v-224z"/><path d="m918 66v224h-224v-224z"/><path d="m918 290v224h-224v-224z"/><path d="m918 514v72h-224v-72z"/><path d="m918-1726h166v198 26h-166z"/><path d="m1084-1502v198 26h-166v-224z"/><path d="m1084-1278v198 26h-166v-224z"/><path d="m1084-1054v198 26h-166v-224z"/><path d="m1084-830v198 26h-166v-224z"/><path d="m1084-606v198 26h-166v-224z"/><path d="m1084-382v198 26h-166v-224z"/><path d="m1084-158v198 26h-166v-224z"/><path d="m1084 66v198 26h-166v-224z"/><path d="m1084 290v198 26h-166v-224z"/><path d="m1084 514v72h-166v-72z"/><path d="m-202-1726h-224v-26-100h224z"/><path d="m22-1726h-224v-126h224z"/><path d="m246-1726h-224v-126h224z"/><path d="m470-1726h-224v-126h224z"/><path d="m694-1726h-224v-126h224z"/><path d="m918-1726h-224v-126h224z"/><path d="m1084 586v126 98h-166v-224z"/><path d="m-426-1752v26 198-39z"/><path d="m-426 712v98 126-125z"/><path d="m-426-1852v-124-100h224v224z"/><path d="m-202-1852v-224h224v224z"/><path d="m22-1852v-224h224v224z"/><path d="m246-1852v-224h224v224z"/><path d="m470-1852v-224h224v224z"/><path d="m694-1852v-224h224v224z"/><path d="m1084-1852v100 26h-166v-126z"/><path d="m-426 810v-98-126h224v224z"/><path d="m-202 810v-224h224v224z"/><path d="m22 810v-224h224v224z"/><path d="m246 810v-224h224v224z"/><path d="m470 810v-224h224v224z"/><path d="m694 810v-224h224v224z"/><path d="m1084 810v126h-166v-126z"/><path d="m-426-1976v124 100-39z"/></g><g id="b"><path d="m-197-3118h-224 1z"/><path d="m27-3118h-94-64-66 1z"/><path d="m251-3118h-36-58-130 1z"/><path d="m475-3118h-32-192 1z"/><path d="m699-3118h-35-189 1 210z"/><path d="m923-3118h-134-64-26 211z"/><path d="m-426 811v125 99-8.3333-2.5z"/><path d="m-426 587v125 99z"/><path d="m-426 363v125 99z"/><path d="m-426 139v125 99z"/><path d="m-426-85v125 99z"/><path d="m-426-309v125 99z"/><path d="m-426-911v55 169z"/><path d="m-426-966v55z"/><path d="m-426-2015v-61 100z"/><path d="m-426-1567v39 185z"/><path d="m-426-1791v39 185z"/><path d="m-426-2015v39 185z"/><path d="m1084 712v99 125-126z"/><path d="m1084 488v99 125-126-72z"/><path d="m1084 264v99 125-198z"/><path d="m1084 40v99 125-198z"/><path d="m1084-184v99 125-198z"/><path d="m1084-408v99 125-198z"/><path d="m1084-632v99 125-198z"/><path d="m1084-856v99 125-198z"/><path d="m1084-1080v99 125-198z"/><path d="m1084-1304v99 125-198z"/><path d="m1084-1528v99 125-198z"/><path d="m1084-1752v99 125-198z"/><path d="m1084-1976v99 125-100z"/><path d="m1084-2076v100z"/><path d="m1084-2180v5.238 5.5954 68.1666z"/><path d="m-421 1749v-167h224v224h-224z"/><path d="m-197 1806v167h-224v-167z"/><path d="m-197 1582h66v11 193 20h-66z"/><path d="m-131 1806v167h-66v-167z"/><path d="m27 1973h-158v-167-20h64 84 76v187z"/><path d="m93 1786h122v169 18h-122z"/><path d="m-67 1664h61v23h-61z"/><path d="m-131 1786v-193h64v71 23 99z"/><path d="m-67 1593v-11h48 36v82h-23-61z"/><path d="m17 1708v23 55h-84v-99h61 23z"/><path d="m17 1708h103v23h-103z"/><path d="m17 1731h103 23 72v55h-122-76z"/><path d="m-421 1077v-24h224v224h-224z"/><path d="m-197 1277v224h-224v-200-24z"/><path d="m-197 1501v81h-224v-57-24z"/><path d="m-197 1053h178v186 38h-178z"/><path d="m-19 1277v59 62 79 24h-178v-224z"/><path d="m-19 1501v81h-48-64-66v-81z"/><path d="m76 1542v5h-59v-70h59z"/><path d="m17 1547h59 39v35h-98z"/><path d="m115 1477h-39-59-36v-79h95 39z"/><path d="m76 1542v-65h39v65z"/><path d="m-19 1501v-24h36v70 35h-36z"/><path d="m76 1341v57h-95v-62h95z"/><path d="m115 1336h-39-95v-59-38h134z"/><path d="m76 1341h39v34 23h-39z"/><path d="m543 1582h121v82h-23-103v-82z"/><path d="m241 1708h-98-23-103v-21-23-82h98 126z"/><path d="m465 1708h-98-126v-126h98 126z"/><path d="m538 1582v82 23 21h-23-50v-126z"/><path d="m367 1731h-152-72v-23h98 126z"/><path d="m465 1708h50v23h-76-72v-23z"/><path d="m641 1687h-103v-23h103z"/><path d="m538 1708v-21h103 23v44h-126z"/><path d="m215 1955v-169-55h152 72v224z"/><path d="m439 1973h-188-36v-18h224z"/><path d="m515 1731h23 126v55 169h-225v-224z"/><path d="m664 1955v18h-189-36v-18z"/><path d="m725 1786v-193h64v193z"/><path d="m725 1593v193h-61v-55-44-23-82h61z"/><path d="m888 1973h-189-35v-18-169h61 64 99z"/><path d="m1013 1786h66v187h-156-35v-187z"/><path d="m1013 1786h-125-99v-193-11h99 125z"/><path d="m1079 1582v167 37h-66v-204z"/><path d="m339 1582h-98-126v-35-5-65-79h23 201z"/><path d="m362 1398h158 23v144 5 35h-5-73-126v-184z"/><path d="m543 1547h39 82v13 22h-121z"/><path d="m339 1375h-201-23v-34-5-97h90 134z"/><path d="m429 1239h114v97 5 34h-23-158-23v-136z"/><path d="m362 1398h-23-201v-23h201 23z"/><path d="m520 1375v23h-158v-23z"/><path d="m653 1239h24v38 59h-13-82-39v-97z"/><path d="m582 1542v-201-5h82v211h-82z"/><path d="m543 1398v-23-34h39v201h-39z"/><path d="m399 1053h-194-30v-18h71 153z"/><path d="m470 1035h13v18h-54-30v-18z"/><path d="m205 1239h-90-134v-186h46 148 30z"/><path d="m429 1239h-90-134v-186h194 30z"/><path d="m653 1239h-110-114v-186h54 170z"/><path d="m677 1053v186h-24v-186z"/><path d="m664 1560v-13-211h13 211v224z"/><path d="m888 1582h-99-64-61v-22h224z"/><path d="m901 1336h178v189 35h-191v-224z"/><path d="m1079 1560v22h-66-125v-22z"/><path d="m677 1239v-186h30 194v224h-224z"/><path d="m901 1277v59h-13-211v-59z"/><path d="m901 1053h30 148v24 200h-178z"/><path d="m1079 1277v24 35h-178v-59z"/><path d="m-426 936h224v99h-224z"/><path d="m-202 936h224v99h-41-183z"/><path d="m22 936h224v99h-71-153z"/><path d="m246 936h224v99h-71-153z"/><path d="m470 936h224v99h-17-194-13z"/><path d="m694 936h224v99h-17-207z"/><path d="m918 936h166v99h-166z"/><path d="m-426 488 1510-224v99 125 99 125 99 125h-166-224-224-224-224-224-224v-125-99-125z"/><path d="m-426 488 448-2564h224 224 224 224 166v100 99 125 99 125 99 125 99 125 99 125 99 125 99 125 99 125 99 125 99 125z"/><path d="m-426 488v-125-99-125-99-125-99-125-99-51-173-55-169-55-55-114-110-114-39-185-39-185-39-185-39-61h224 224z"/><path d="m1084 712-1510-672v99 125 99 125 99 125 99 125h224 224 224 224 224 224 166v-125z"/><path d="m1084 712-390-2788h-224-224-224-224-224v61 39 185 39 185 39 185 39 114 110 114 55 55 169 55 173 51 99 125 99 125z"/><path d="m1084 712v-125-99-125-99-125-99-125-99-125-99-125-99-125-99-125-99-125-99-125-99-125-99-125-99-100h-166-224z"/><path d="m-421-2646v-81h224v224h-224z"/><path d="m-197-2503v224h-224v-143-81z"/><path d="m-197-2279v81h-224v-81z"/><path d="m-197-2727h66 64 48v224h-178z"/><path d="m-19-2503v119 105h-178v-224z"/><path d="m-19-2279v81h-178v-81z"/><path d="m115-2384h-121v-97h82 39z"/><path d="m115-2692h-39-82v-35h23 98z"/><path d="m-19-2727h13v35 189h-13z"/><path d="m-6-2503v22 97h-13v-119z"/><path d="m76-2687h39v144 23 34h-39z"/><path d="m-6-2503v-189h82v5 201 5h-82z"/><path d="m-421-3094v-24h224v224h-224z"/><path d="m-197-2894v167h-224v-143-24z"/><path d="m-197-3118h66v224h-66z"/><path d="m-131-2894v156 11h-66v-167z"/><path d="m-67-2738v-94h61v23 82h-13-48z"/><path d="m17-2727h-23v-82h23z"/><path d="m17-2876v44h-23-61v-62-37h84z"/><path d="m157-2931h58v37 18h-72-23-103v-55z"/><path d="m17-2876h103v23 21h-103z"/><path d="m143-2876h72v23h-72z"/><path d="m-131-3118h64v187 37h-64z"/><path d="m-67-2894v62 94h-64v-156z"/><path d="m157-2931h-140-84v-187h94 130z"/><path d="m215-3118v187h-58v-187z"/><path d="m399-2180h-153-71v-18h30 194z"/><path d="m429-2198h54v18h-13-71v-18z"/><path d="m175-2198h-148-46v-81-105h13 121 90v186z"/><path d="m205-2384h134 90v186h-30-194z"/><path d="m429-2384h114 98 12v186h-170-54z"/><path d="m653-2384h24v105 81h-24z"/><path d="m339-2384h-134-90v-97-5-34h23 201z"/><path d="m362-2520h158 23v34 5 97h-114-90v-136z"/><path d="m362-2520h-23-201v-23h201 23z"/><path d="m520-2543v23h-158v-23z"/><path d="m543-2520v-23h39v57h-39z"/><path d="m582-2481h59v97h-98v-97z"/><path d="m582-2486v-57h59v40 22h-59z"/><path d="m339-2543h-201-23v-144-5-35h126 98z"/><path d="m443-2727h100v35 5 65 79h-23-158-23v-184z"/><path d="m582-2687v65h-39v-65z"/><path d="m641-2543v-79-70-35h23 13v224h-36z"/><path d="m677-2503v119h-24-12v-97-22z"/><path d="m641-2692h-59-39v-35h98z"/><path d="m582-2687v-5h59v70h-59z"/><path d="m641-2543h-59-39v-79h39 59z"/><path d="m-426-2139v-41h224v104h-224z"/><path d="m-202-2180h183 41v104h-224z"/><path d="m22-2180h153 71v104h-224z"/><path d="m246-2180h153 71v104h-224z"/><path d="m470-2180h13 194 17v104h-224z"/><path d="m694-2180h207 17v104h-224z"/><path d="m918-2180h166v79 25h-166z"/><path d="m677-2727h48 64 112v224h-224z"/><path d="m901-2503v224h-224v-105-119z"/><path d="m901-2279v81h-194-30v-81z"/><path d="m901-2727h112 66v81 143h-178z"/><path d="m1079-2503v81 143h-178v-224z"/><path d="m1079-2279v81h-148-30v-81z"/><path d="m241-2727h-126-98v-82-23h103 121z"/><path d="m344-2832h99v23 82h-104-98v-105z"/><path d="m215-2931v-187h36 192v224h-228z"/><path d="m443-2894v18 23h-99-129v-23-18z"/><path d="m568-2832h73v23h-198v-23z"/><path d="m664-2727h-23-98-100v-82h198 23z"/><path d="m538-2876h126v23h-96-30z"/><path d="m443-2876h72v23h-72z"/><path d="m443-3118h32 189v224h-221z"/><path d="m664-2894v18h-126-23-72v-18z"/><path d="m344-2832h-103-121v-21h23 72 129z"/><path d="m568-2832h-125-99v-21h99 72 23 30z"/><path d="m664-2853h61v21h-61-23-73v-21z"/><path d="m725-2738v11h-48-13v-82-23h61z"/><path d="m664-3118h35 26v224h-61z"/><path d="m725-2894v41h-61v-23-18z"/><path d="m725-3118h64v224h-64z"/><path d="m789-2894v156h-64v-94-21-41z"/><path d="m789-3118h134 90v224h-224z"/><path d="m1013-2894v167h-112-112v-11-156z"/><path d="m1013-3118h66v24 200h-66z"/><path d="m1079-2894v24 143h-66v-167z"/><path d="m1079-2198h-1-147z"/><path d="m175-2198h-147-1z"/><path d="m1079-3118v24z"/><path d="m-421-2422v143 81-24z"/><path d="m-421-2646v143 81-24z"/><path d="m-421-2870v143 81-24z"/><path d="m-421-3094v200 24-24z"/><path d="m543-2481v-5-34z"/><path d="m582-2692v5 65z"/><path d="m543-2687v43.3334 21.6666h39v-65z"/><path d="m115-2692v5 43.3334-4.7779z"/><path d="m76-2687v65h39v-21.6666-43.3334z"/><path d="m-131-2727v-11-193z"/><path d="m707 1053h-30-24-170z"/><path d="m931 1053h-30-194z"/><path d="m-197 1053h-224 1z"/><path d="m27 1053h-46-178 1z"/><path d="m1079 1973h-1-154-1z"/><path d="m-421 1749v57 167-24z"/><path d="m-421 1525v57 167-24z"/><path d="m-421 1301v200 24-24z"/><path d="m-421 1077v200 24-24z"/><path d="m1079 1053v24z"/><path d="m789 1582v11 193z"/><path d="m725 1593v-11 204z"/><path d="m789 1593h-64v193h64z"/><path d="m725 1582h64v204h-64z"/><path d="m543 1547v-5-43.3333 4.7776z"/><path d="m582 1336v5 65z"/><path d="m582 1341h-39v34 23 8h39z"/><path d="m115 1336v5 34z"/><path d="m76 1547v-5-65z"/><path d="m76 1341v-5 70z"/><path d="m76 1336h39v39 4.5557 26.4443h-39z"/><path d="m-67 1582v11 193z"/><path d="m-131 1582h64v204h-30-34z"/><path d="m-67 1593h-64v193h23.3458 40.6542z"/><path d="m1084-2076v100 124h-166v-224z"/><path d="m-202 936h-224v-126h224z"/><path d="m22 936h-224v-126h224z"/><path d="m246 936h-224v-126h224z"/><path d="m470 936h-224v-126h224z"/><path d="m694 936h-224v-126h224z"/><path d="m918 936h-224v-126h224z"/><path d="m483 1035h-84v18h84z"/><path d="m399 1035h-224v18h224z"/><path d="m399 1053h-224z"/><path d="m399 1035h84z"/><path d="m399-2180h84v-18h-84z"/><path d="m175-2198v18h224v-18z"/><path d="m399-2198h84z"/><path d="m399-2180h-224z"/><path d="m115-2520v-23z"/><path d="m115-2520v34 5z"/><path d="m115-2520h23z"/><path d="m115-2520v-23-8h-39v65h39z"/><path d="m543 1375v-34-5z"/><path d="m543 1375h-23z"/><path d="m543-2520v-4.5555z"/><path d="m543-2520v-4.5555-26.4445h39v70h-39z"/><path d="m115 1375v4.5557z"/><path d="m543-2846v50 147.5555 26.4445-35z"/><path d="m543-2643.6666v-43.3334-5 43.5555z"/><path d="m115-2853v-23-5 35z"/><path d="m115-2629v-14.6666 21.6666 71 8z"/><path d="m115-2520v-4.5555z"/><path d="m443-2881h72 28-100-104z"/><path d="m215-2608v65 23 136-49z"/><path d="m443-2796v-25 164 49z"/><path d="m520-2543h23z"/><path d="m543-2643.6666v-4.7779-147.5555h-28-72v188 36h100z"/><path d="m443-2572v29h77 23v-29z"/><path d="m515-2853v-23-5h-72v60 25h72z"/><path d="m543-2796v-50-7h-5-23v57z"/><path d="m538-2876h5v-5h-28v5z"/><path d="m543-2853v-23h-5v23z"/><path d="m538-2853h-23z"/><path d="m515-2853v-23z"/><path d="m515-2876h23z"/><path d="m538-2876v23z"/><path d="m520-2520h23z"/><path d="m520-2520v-23z"/><path d="m520-2520v-23h-77v23z"/><path d="m543-2384v-136h-23-77v136z"/><path d="m443-2881h-104-124v5 23 32h228z"/><path d="m115-2543h23z"/><path d="m143-2853h-23z"/><path d="m120-2876h23z"/><path d="m120-2876h23 72v-5h-100v5z"/><path d="m143-2876v23z"/><path d="m215-2853v-23h-72v23z"/><path d="m120-2876h-5v23h5z"/><path d="m120-2853v-23z"/><path d="m215-2821v-32h-72-23-5v7 197.5555 4.7779 14.6666h100z"/><path d="m115-2629v86h23 77v-65-21z"/><path d="m138-2520v-23z"/><path d="m215-2543h-77v23h77z"/><path d="m138-2520h-23v136h100v-136z"/><path d="m115-2648.4445v26.4445h-39v-70h39z"/><path d="m543 1375v4.5557z"/><path d="m543 1398v-23z"/><path d="m543 1512v219 5-49z"/><path d="m543 1498.6667v-21.6667-71-8z"/><path d="m543 1503.4443v-26.4443h39v70h-39z"/><path d="m543 1379.5557v-4.5557-39h39v70h-39z"/><path d="m115 1398v-23 9.3333z"/><path d="m115 1398v-13.6667 21.6667 71 21.6667z"/><path d="m115 1379.5557v-4.5557-136 167z"/><path d="m115 1503.4443v-26.4443 35z"/><path d="m115 1498.6667v43.3333 5-43.5557z"/><path d="m339 1736h-124-72-23-5 100z"/><path d="m215 1452v170 54-213z"/><path d="m443 1398v-23-136 213z"/><path d="m543 1398h-23z"/><path d="m443 1239v136h77 23v-136z"/><path d="m520 1375v23z"/><path d="m520 1375h-77v23h77z"/><path d="m443 1676v60h72v-5-23-57h-72z"/><path d="m543 1736v-5h-5-23v5z"/><path d="m515 1708h23v-57h-23z"/><path d="m543 1512v-8.5557h-5v147.5557 57 23h5z"/><path d="m443 1452v51.4443h95 5v-4.7776-100.6667h-23-77z"/><path d="m538 1503.4443h-95v147.5557h72 23z"/><path d="m515 1708h23z"/><path d="m515 1731v-23z"/><path d="m538 1731h-23z"/><path d="m538 1708v23z"/><path d="m443 1676h-228v32 28h124 104z"/><path d="m138 1398h-23z"/><path d="m138 1375v23z"/><path d="m215 1239h-77v136 23h77z"/><path d="m138 1375h-23z"/><path d="m138 1239h-23v136h23z"/><path d="m120 1708h23z"/><path d="m215 1452v-54h-77-23v100.6667 4.7776 8.5557 110h100z"/><path d="m115 1622v86h5 23 72v-32-54z"/><path d="m143 1708v23z"/><path d="m143 1731v5h72v-28h-72z"/><path d="m120 1731v-23z"/><path d="m120 1736h23v-5h-23z"/><path d="m143 1731h-23z"/><path d="m115 1736h5v-5-23h-5z"/><path d="m115 1498.6667v-21.6667h-39v65h39z"/><path d="m115 1384.3333v-9.3333-34h-39v65h39z"/><path d="m543-2543v-8-71-21.6666 71.6666z"/><path d="m543-2543v23z"/><path d="m1078-3118h1-66-90z"/><path d="m707-2198h-224 170 24z"/><path d="m931-2198h-224 194z"/><path d="m-197-2198h-223-1z"/><path d="m27-2198h-223-1 178z"/><path d="m1079-2422v200 24-81z"/><path d="m1079-2646v200 24-81z"/><path d="m1079-2870v200 24-81z"/><path d="m1079-3094v200 24-24z"/><path d="m-421-3118v24z"/><path d="m1078-3117v22z"/><path d="m1079-3094v-24h-1v1 22 201h1z"/><path d="m1078-2894v23 201h1v-200-24z"/><path d="m1078-2670v23 201h1v-200-24z"/><path d="m1078-2446v23 201h1v-200-24z"/><path d="m1078-2222v23 1h1v-24z"/><path d="m-420-2423v201 23-23z"/><path d="m-420-2647v201 23-23z"/><path d="m-420-2871v201 23-23z"/><path d="m-420-3095v201 23-23z"/><path d="m910-3117h-224z"/><path d="m910-3118h-211-13v1h224z"/><path d="m1078-3117v-1h-155-13v1z"/><path d="m-196-3117h-224z"/><path d="m28-3117h-224z"/><path d="m252-3117h-224z"/><path d="m476-3117h-224z"/><path d="m686-3117h-210z"/><path d="m-196-3118h-1-223v1h224z"/><path d="m28-3118h-1-223v1h224z"/><path d="m252-3118h-1-223v1h224z"/><path d="m476-3118h-1-223v1h224z"/><path d="m686-3118h-210v1h210z"/><path d="m1078-2199h-147z"/><path d="m707-2199h-224v1h224z"/><path d="m931-2199h-224v1h224z"/><path d="m1078-2198v-1h-147v1z"/><path d="m175-2199h-147z"/><path d="m-196-2199h-224v1h223 1z"/><path d="m28-2199h-224v1h223 1z"/><path d="m175-2198v-1h-147v1z"/><path d="m-420-3095v-22-1h-1v24 200h1z"/><path d="m-421-2894v24 200h1v-201-23z"/><path d="m-421-2670v24 200h1v-201-23z"/><path d="m-421-2446v24 200h1v-201-23z"/><path d="m-421-2222v24h1v-1-23z"/><path d="m1078 1053h1-148z"/><path d="m28 1053h147-148z"/><path d="m-197 1973h-223-1z"/><path d="m27 1973h-223-1 66z"/><path d="m251 1973h-223-1 66 122z"/><path d="m475 1973h-223-1 188z"/><path d="m699 1973h-223-1 189z"/><path d="m923 1973h-223-1 189z"/><path d="m-421 1053v24z"/><path d="m1079 1749v200 24-187z"/><path d="m1079 1525v200 24-167-22z"/><path d="m1079 1301v200 24-189z"/><path d="m1079 1077v200 24-24z"/><path d="m-420 1748v201 23-23z"/><path d="m-420 1524v201 23-23z"/><path d="m-420 1300v201 23-23z"/><path d="m-420 1076v201 23-23z"/><path d="m1078 1054v22z"/><path d="m1079 1077v-24h-1v1 22 201h1z"/><path d="m1078 1277v23 201h1v-200-24z"/><path d="m1078 1501v23 201h1v-200-24z"/><path d="m1078 1725v23 201h1v-200-24z"/><path d="m1078 1949v23 1h1v-24z"/><path d="m707 1054h-224z"/><path d="m931 1054h-224z"/><path d="m707 1053h-224v1h224z"/><path d="m931 1053h-224v1h224z"/><path d="m1078 1054v-1h-147v1z"/><path d="m-196 1054h-224z"/><path d="m28 1054h-224z"/><path d="m-196 1053h-1-223v1h224z"/><path d="m28 1053h-1-223v1h224z"/><path d="m175 1054v-1h-147v1z"/><path d="m1078 1972h-154z"/><path d="m-196 1972h-224v1h223 1z"/><path d="m28 1972h-224v1h223 1z"/><path d="m252 1972h-224v1h223 1z"/><path d="m476 1972h-224v1h223 1z"/><path d="m700 1972h-224v1h223 1z"/><path d="m924 1972h-224v1h223 1z"/><path d="m1078 1973v-1h-154v1z"/><path d="m-420 1076v-22-1h-1v24 200h1z"/><path d="m-421 1277v24 200h1v-201-23z"/><path d="m-421 1501v24 200h1v-201-23z"/><path d="m-421 1725v24 200h1v-201-23z"/><path d="m-421 1949v24h1v-1-23z"/><path d="m582-2551h-39v8 23 34h39z"/><path d="m543-2622v71h39v-71z"/><path d="m76-2551v70-5z"/><path d="m76-2622v71h39v-71z"/><path d="m582 1477h-39v21.6667 43.3333h39z"/><path d="m582 1406h-39v71h39z"/><path d="m115 1406h-39v71h39z"/><path d="m483-2174.762v-5.238-18z"/><path d="m483-2174.762v11.3096h65 129v-11.3096-5.238h-194z"/><path d="m901-2174.762v-5.238h-207-17v5.238z"/><path d="m1084-2174.762v-5.238h-166-17v5.238z"/><path d="m175-2198v18 5.238z"/><path d="m483 1053v-18-5.238z"/><path d="m677 1029.762v5.238h17 207v-5.238z"/><path d="m901 1029.762v5.238h17 166v-5.238z"/><path d="m677 1029.762v-11.3096h-129-65v11.3096 5.238h194z"/><path d="m175 1029.762v5.238 18z"/><path d="m175 1029.762v-11.3096h-65-129v8.2143 8.3333h41 153z"/><path d="m543-2384h-100z"/><path d="m215-2384h-100z"/><path d="m543-2881v5 23 7z"/><path d="m543-2433v-118 26.4445 4.5555 136z"/><path d="m582-2551v65 5z"/><path d="m582-2622v71z"/><path d="m582-2622v71h-39v-71z"/><path d="m582-2622h-39v-26.4445-43.5555h39z"/><path d="m115-2846v189 35-26.4445z"/><path d="m115-2551v118 49-136-4.5555z"/><path d="m339-2881h-124-100 100z"/><path d="m215-2657v-164 192 21z"/><path d="m443-2608v175 49-136-23-29z"/><path d="m443-2821v-60h100v35 189h-100z"/><path d="m543-2657v35 71 118h-100v-175-49z"/><path d="m543-2433v49h-100v-49z"/><path d="m443-2821h-228z"/><path d="m215-2881h124 104v60h-228z"/><path d="m115-2846v-35h100v60 164h-100z"/><path d="m215-2657v49 175h-100v-118-71-35z"/><path d="m215-2433v49h-100v-49z"/><path d="m76-2551v-71z"/><path d="m76-2622v-65-5z"/><path d="m115-2622v71h-39v-71z"/><path d="m76-2551h39v26.4445 4.5555 39h-39z"/><path d="m115 1239h23 77z"/><path d="m443 1239h100z"/><path d="m543 1239v136 4.5557 26.4443z"/><path d="m543 1477v26.4443 8.5557z"/><path d="m582 1406v71z"/><path d="m582 1477v65 5z"/><path d="m543 1477v-14-57h39v71z"/><path d="m115 1512v175 49-28-86z"/><path d="m443 1736h100-28-72-104z"/><path d="m215 1239v159 54z"/><path d="m443 1452v11 213-25-147.5557z"/><path d="m443 1452v-213h100v167 57h-100z"/><path d="m543 1463v14 35 175h-100v-11-213z"/><path d="m543 1687v49h-100v-49z"/><path d="m215 1676h228z"/><path d="m443 1687v49h-104-124v-49-11h228z"/><path d="m115 1406v-167h100v213 11h-100z"/><path d="m215 1463v213 11h-100v-175-35-14z"/><path d="m215 1687v49h-100v-49z"/><path d="m76 1477v-71z"/><path d="m76 1477v-71h39v57 14z"/><path d="m76 1477h39v26.4443 43.5557h-39z"/><path d="m175 1053v-18z"/><path d="m483 1035v18z"/><path d="m399 1035h84v18h-84z"/><path d="m175 1053v-18h224v18z"/><path d="m483 1053h-84z"/><path d="m175 1035h224z"/><path d="m175-2180v-18z"/><path d="m483-2198v18z"/><path d="m483-2198v18h-84v-18z"/><path d="m399-2180h-224v-18h224z"/><path d="m175-2198h224z"/><path d="m483-2180h-84z"/><path d="m-197-3118h-223-1 1z"/><path d="m27-3118h-223-1 1z"/><path d="m251-3118h-223-1 1 187z"/><path d="m475-3118h-223-1 192z"/><path d="m699-3118h-13-210-1 189 22z"/><path d="m923-3118h-13-211 211z"/><path d="m1078-2198h1-148z"/><path d="m28-2198h147-148z"/><path d="m1079-2894v-37 11.4392 49.5608z"/><path d="m1079-3118v187z"/><path d="m-421-2422v200 24-130z"/><path d="m-421-2646v200 24-81z"/><path d="m1078-2423v201 23-23z"/><path d="m1078-2647v201 23-23z"/><path d="m1078-2871v201 23-23z"/><path d="m1078-3095v201 23-23z"/><path d="m1078-3095v-22-1h1v187 37h-1z"/><path d="m1079-2894v24 200h-1v-201-23z"/><path d="m1079-2670v24 200h-1v-201-23z"/><path d="m1079-2446v24 200h-1v-201-23z"/><path d="m1079-2222v24h-1v-1-23z"/><path d="m-420-3117v22z"/><path d="m910-3117h-224v-1h13 211z"/><path d="m923-3118h155v1h-168v-1z"/><path d="m1078-3117h-168z"/><path d="m-196-3117h-224v-1h223 1z"/><path d="m28-3117h-224v-1h223 1z"/><path d="m252-3117h-224v-1h223 1z"/><path d="m476-3117h-224v-1h223 1z"/><path d="m686-3117h-210v-1h210z"/><path d="m483-2198v-1z"/><path d="m707-2199h-224z"/><path d="m931-2199h-224z"/><path d="m707-2198h-224v-1h224z"/><path d="m931-2198h-224v-1h224z"/><path d="m1078-2199v1h-147v-1z"/><path d="m175-2199v1z"/><path d="m-196-2199h-224z"/><path d="m28-2199h-224z"/><path d="m-196-2198h-1-223v-1h224z"/><path d="m28-2198h-1-223v-1h224z"/><path d="m175-2199v1h-147v-1z"/><path d="m-421-2931v-187h1v1 22 201h-1z"/><path d="m-420-2894v23 201h-1v-200-24z"/><path d="m-420-2670v23 201h-1v-200-24z"/><path d="m-420-2446v23 201h-1v-200-24z"/><path d="m-420-2222v23 1h-1v-24z"/><path d="m483-2198v49.9048-15.3572-11.3096z"/><path d="m707 1053h-224z"/><path d="m931 1053h-224z"/><path d="m-197 1053h-223-1z"/><path d="m27 1053h-223-1 55.3458z"/><path d="m175 1053v-49.9048 15.3572 11.3096z"/><path d="m924 1973h154 1-1-155z"/><path d="m-421 1949v24-187z"/><path d="m-421 1562v163 61-204z"/><path d="m-421 1338v163 61-155z"/><path d="m-421 1114v163 61-155z"/><path d="m1079 1053v61z"/><path d="m-420 1054v22z"/><path d="m1078 1748v201 23-23z"/><path d="m1078 1524v201 23-23z"/><path d="m1078 1300v201 23-23z"/><path d="m1078 1076v201 23-23z"/><path d="m1078 1076v-22-1h1v61 163h-1z"/><path d="m1079 1277v61 163h-1v-201-23z"/><path d="m1079 1501v61 163h-1v-201-23z"/><path d="m1079 1725v61 163h-1v-201-23z"/><path d="m1079 1949v24h-1v-1-23z"/><path d="m483 1054v-1z"/><path d="m1078 1054h-147z"/><path d="m707 1054h-224v-1h224z"/><path d="m931 1054h-224v-1h224z"/><path d="m1078 1053v1h-147v-1z"/><path d="m175 1053v1z"/><path d="m175 1054h-147z"/><path d="m-196 1054h-224v-1h223 1z"/><path d="m28 1054h-224v-1h223 1z"/><path d="m175 1053v1h-147v-1z"/><path d="m-196 1973h-1-223v-1h224z"/><path d="m28 1973h-1-223v-1h224z"/><path d="m252 1973h-1-223v-1h224z"/><path d="m476 1973h-1-223v-1h224z"/><path d="m700 1973h-1-223v-1h224z"/><path d="m924 1973h-1-223v-1h224z"/><path d="m1078 1972v1h-154v-1z"/><path d="m-196 1972h-224z"/><path d="m28 1972h-224z"/><path d="m252 1972h-224z"/><path d="m476 1972h-224z"/><path d="m700 1972h-224z"/><path d="m924 1972h-224z"/><path d="m-421 1114v-61h1v1 22 201h-1z"/><path d="m-420 1277v23 201h-1v-163-61z"/><path d="m-420 1501v23 201h-1v-163-61z"/><path d="m-420 1725v23 201h-1v-163-61z"/><path d="m-420 1949v23 1h-1v-24z"/><path d="m-19-2171.6666v8.2142h129 65v-11.3096-5.238h-153-41z"/><path d="m-202-2171.6666v-8.3334h-224v8.3334z"/><path d="m-19-2171.6666v-8.3334h-183v8.3334z"/><path d="m-426 1026.6667v8.3333h224v-8.3333z"/><path d="m-202 1026.6667v8.3333h183v-8.3333z"/><path d="m-426 1024.1667v-24.1667-3-3-183z"/><path d="m-426 811v-41-183z"/><path d="m-426 587v-41-183z"/><path d="m-426 363v-41-183z"/><path d="m-426 139v-41-183z"/><path d="m-426-85v-41-183z"/><path d="m-426-459v51 99z"/><path d="m-426-2169.1666v-2.5-8.3334 41z"/><path d="m1084 1024.1667v5.5953 5.238-99-125z"/><path d="m1084 811v-99-125z"/><path d="m1084 587v-99-125z"/><path d="m1084 363v-99-125z"/><path d="m1084 139v-99-125z"/><path d="m1084-85v-99-125z"/><path d="m1084-309v-99-125z"/><path d="m1084-533v-99-125z"/><path d="m1084-757v-99-125z"/><path d="m1084-981v-99-125z"/><path d="m1084-1205v-99-125z"/><path d="m1084-1429v-99-125z"/><path d="m1084-1653v-99-125z"/><path d="m1084-1877v-99-100-25z"/><path d="m1084-2169.1666v21.0714.4762 2.619 3 3 38z"/><path d="m-426-2169.1666v24.1666h224v-26.6666h-224z"/><path d="m1084 1024.1667v-21.0715h-153-30v26.6668h183z"/><path d="m-426-687v55 173z"/><path d="m1078-3118h1-1-155z"/><path d="m-421-3118v187z"/><path d="m1079-2931v-187h-1v187z"/><path d="m686-2931v135z"/><path d="m725-2931h-39z"/><path d="m910-3118h-211-13v187h39 64 121z"/><path d="m1078-3118h-155-13v187h105 63z"/><path d="m1078-2931h-63v11.4392h63z"/><path d="m725-2931v204-11z"/><path d="m789-2931h-64v193h64z"/><path d="m-196-2931h-161 36 190z"/><path d="m686-3118h-22v187h22z"/><path d="m664-3118h-189-32v187h221z"/><path d="m443-3118h-192-36v187h228z"/><path d="m-196-3118h-1-223v187h63 161z"/><path d="m28-3118h-1-223v187h65 64 39 45 11z"/><path d="m215-2931v-187h-187v187z"/><path d="m-28-2832v-99 135z"/><path d="m-6-2796v-13-23h-22v36z"/><path d="m-6-2832h23v-53-46h-45v99z"/><path d="m59-2796v-13h-42-23v13z"/><path d="m59-2885h-42v53 23h42z"/><path d="m215-2885h-156v76 13h137 19z"/><path d="m59-2885h156v-46h-187-11v46z"/><path d="m215-2931v46 89h205 23v-85-50z"/><path d="m443-2796h100v-13-72h-100z"/><path d="m644-2796h20v-13h-23-98v13z"/><path d="m641-2809v-23-49h-98v72z"/><path d="m641-2832h23v-49h-23z"/><path d="m443-2931v50h100 98 23v-50z"/><path d="m664-2931v50 49 23 13h22v-135z"/><path d="m196-2796h-137-65-22 7z"/><path d="m420-2796h-205-19 7z"/><path d="m644-2796h-101-100-23 7z"/><path d="m664-2809h-23z"/><path d="m641-2809v-23z"/><path d="m641-2832h23z"/><path d="m664-2832v23z"/><path d="m17-2809h-23z"/><path d="m17-2832v23z"/><path d="m-6-2832h23z"/><path d="m-6-2809v-23z"/><path d="m-67-2931h-64v193h64z"/><path d="m-420-3118h-1v187h1z"/><path d="m-420-2931h-1v11.4392h1z"/><path d="m-197 1973h-134.6542-89.3458 1z"/><path d="m27 1973h-134.6542-89.3458 1z"/><path d="m251 1973h-36-98.6542-89.3458 1z"/><path d="m475 1973h-32-192 1z"/><path d="m699 1973h-35-189 1z"/><path d="m923 1973h-35-189 1z"/><path d="m1079 1973v-24-163z"/><path d="m-331.6542 1786h-25.3458-64v187h89.3458z"/><path d="m1079 1973v-187h-1v187z"/><path d="m1078 1786h1v-11.4392h-1z"/><path d="m-331.6542 1786h200.6542-190z"/><path d="m-67 1786h39z"/><path d="m888 1786h127-36-69-121z"/><path d="m-28 1687v-36 135z"/><path d="m17 1687h-23-15-7v99h45z"/><path d="m-21 1687v-23-13h-7v36z"/><path d="m-21 1687h15v-23h-15z"/><path d="m215 1664h-12-186v23 99h99.3458 98.6542z"/><path d="m203 1651h-7-217v13h15 23 186z"/><path d="m215 1664h228v-13h-23-217v13z"/><path d="m443 1736v-72h-228v122h228z"/><path d="m664 1736h-23-98-100v50h221z"/><path d="m543 1664v-13h-100v13 72h100z"/><path d="m543 1736h98v-49-23h-98z"/><path d="m664 1687h-23v49h23z"/><path d="m641 1664h23v-13h-20-101v13z"/><path d="m686 1651h-22v13 23 49 50h22z"/><path d="m664 1651h22-35-7z"/><path d="m641 1664h23z"/><path d="m641 1687v-23z"/><path d="m664 1687h-23z"/><path d="m664 1664v23z"/><path d="m-6 1664h23z"/><path d="m17 1664v23z"/><path d="m17 1687h-23z"/><path d="m-6 1687v-23z"/><path d="m-107.6542 1786h-23.3458-200.6542v187h134.6542 89.3458z"/><path d="m116.3458 1786h-99.3458-45-39-40.6542v187h134.6542 89.3458z"/><path d="m215 1973v-187h-98.6542v187z"/><path d="m215 1786v187h36 192v-187z"/><path d="m443 1786v187h32 189v-187z"/><path d="m888 1786h-99-64-39-22v187h35 189z"/><path d="m1078 1786h-63-127v187h35 155z"/><path d="m-86-3118h-224 179z"/><path d="m138-3118h-159-7-58 195z"/><path d="m362-3118h-159-65 195z"/><path d="m586-3118h-159-65 188z"/><path d="m1013-3118h-34-190z"/><path d="m1079-3118v167z"/><path d="m-421-2951v20 204-42z"/><path d="m-421-2951v-167h100v64 123h-36-64z"/><path d="m-97-2931h-34-190v-123h11 213z"/><path d="m-86-3054h58v36 87h-39-30v-123z"/><path d="m-28-3054v-64h7v100h-7z"/><path d="m59-2881v81h-80v-85h80z"/><path d="m-86-3054h-11-213v-64h224z"/><path d="m-28-3118v64h-58v-64z"/><path d="m283-2800h-80-144v-81h224z"/><path d="m507-2800h-80-144v-81h224z"/><path d="m599-2881v81h-92v-81z"/><path d="m203-2885h-144-80v-133-100h159 65z"/><path d="m427-2885h-144-80v-233h159 65z"/><path d="m586-3118h13v224 9h-92-80v-233z"/><path d="m949-2931h-160-64v-123h224z"/><path d="m968-3054h11v123h-30v-123z"/><path d="m979-3054v-64h34 66v167 20h-64-36z"/><path d="m679-3118v100 124h-80v-224z"/><path d="m679-2894v94h-28-52v-81-4-9z"/><path d="m679-3118h7v100h-7z"/><path d="m686-3018v-100h39v64 123h-39z"/><path d="m949-3054h-224v-64h85 139z"/><path d="m968-3118v64h-19v-64z"/><path d="m1015-2931v204-192.5608z"/><path d="m1015-2931h64v204h-64z"/><path d="m979-3054h-11-179z"/><path d="m968-3118h-158-21v64h179z"/><path d="m203-2796h-7-217z"/><path d="m427-2796h-7-217z"/><path d="m651-2796h-7-217z"/><path d="m679-2894v-124 218z"/><path d="m679-3018h7z"/><path d="m283-2881h-224z"/><path d="m507-2881h-224z"/><path d="m599-2885h-49-43z"/><path d="m679-2800h-28z"/><path d="m-28-3018h7z"/><path d="m-28-2931v-87 222z"/><path d="m-321-3054v-64h124 66v64z"/><path d="m-421-2931h64v204h-64z"/><path d="m1079-2919.5608v-11.4392h-1v11.4392z"/><path d="m949-2931h30 36-105-121z"/><path d="m789-2931v193 11z"/><path d="m1015-2931v11.4392z"/><path d="m725-2931h64v204h-64z"/><path d="m-28-2931h-39z"/><path d="m651-2796h35-22-20z"/><path d="m-67-2931v193 11z"/><path d="m-131-2931h34 30v204h-64z"/><path d="m-357-2931v11.4392z"/><path d="m-357-2919.5608v-11.4392h-63v11.4392z"/><path d="m910 1973h58-158z"/><path d="m1079 1973h-66z"/><path d="m1079 1786v-37 224z"/><path d="m-357 1786h25.3458 10.6542z"/><path d="m-357 1786v-204z"/><path d="m-357 1786h-64v-37-167h64z"/><path d="m-321 1909v64h-100v-187h64 36z"/><path d="m910 1973h-100-124v-64h224z"/><path d="m968 1909v64h-58v-64z"/><path d="m1079 1973h-66-34v-64-123h36 64z"/><path d="m686 1909v64h-7v-94-6h7z"/><path d="m651 1655h28v218 6h-80v-139-4-81z"/><path d="m679 1879v94h-80v-94z"/><path d="m910 1909h-224v-36-87h39 64 121z"/><path d="m979 1786v123h-11-58v-123z"/><path d="m203 1736h-144-80v-81h224z"/><path d="m427 1736h-144-80v-81h224z"/><path d="m599 1655v81h-92-80v-81z"/><path d="m283 1973h-145-79v-233h224z"/><path d="m507 1973h-145-79v-233h224z"/><path d="m599 1740v139 94h-13-79v-233z"/><path d="m-97 1909h-213-11v-123h190 34z"/><path d="m-67 1786h39v87 36h-58-11v-123z"/><path d="m-21 1973h-7v-64-36h7z"/><path d="m-21 1873v-137h80v4 233h-80z"/><path d="m-86 1973h-224v-64h213 11z"/><path d="m-28 1909v64h-58v-64z"/><path d="m979 1909v64h-190v-64z"/><path d="m686 1651h-7-28z"/><path d="m-28 1651h7z"/><path d="m679 1655v218z"/><path d="m686 1873h-7z"/><path d="m599 1736h-92z"/><path d="m203 1655h-224z"/><path d="m427 1655h-224z"/><path d="m651 1655h-52-172z"/><path d="m283 1740h-224z"/><path d="m507 1740h-224z"/><path d="m-21 1873h-7z"/><path d="m-28 1786v-135 222z"/><path d="m-321 1909h11 179z"/><path d="m-310 1909v64h179v-64z"/><path d="m686 1786h39z"/><path d="m686 1651v135z"/><path d="m1015 1786v-11.4392z"/><path d="m1015 1774.5608v11.4392h63v-11.4392z"/><path d="m196 1651h-217-7 7z"/><path d="m420 1651h-217-7 7z"/><path d="m644 1651h-217-7 23 100z"/><path d="m-131 1786v-193-11z"/><path d="m677-2163.4524v15.3572h95 129v-26.6668h-224z"/><path d="m677-2163.4524v8.4524 15-8.0952z"/><path d="m548-2163.4524v8.4524h129v-8.4524z"/><path d="m175-2163.4524v15.3572-49.9048 23.238z"/><path d="m-19-2163.4524v8.4524h129v-8.4524z"/><path d="m110-2163.4524v8.4524 15-8.0952z"/><path d="m483 1018.4524v-15.3572 49.9048-23.238z"/><path d="m677 1011h-129v7.4524h129z"/><path d="m548 1018.4524v-7.4524-15 7.0952z"/><path d="m-19 1018.4524v-7.4524-15 7.0952z"/><path d="m110 1011h-129v7.4524h129z"/><path d="m-19 1018.4524v-15.3572-3.0952h-183v26.6667h183z"/><path d="m-426-687v-144-80z"/><path d="m-426-911v-55z"/><path d="m-442-982h-72z"/><path d="m-514-1511h-224z"/><path d="m-738-1206v143 81z"/><path d="m-738-1430v143 81z"/><path d="m-442-1511v81z"/><path d="m-738-1430v-81h224v224h-224z"/><path d="m-514-1287v224h-224v-143-81z"/><path d="m-514-1063v81h-224v-81z"/><path d="m-514-1511h72v81 143h-72z"/><path d="m-442-1287v81 143h-72v-224z"/><path d="m-442-1063v81h-72v-81z"/><path d="m-421 1749v37 187z"/><path d="m1079 1749v-167z"/><path d="m1079 1749v37h-64v-204h64z"/><path d="m-426-1190v110 114z"/><path d="m-426-1343v39 114z"/><path d="m1079-2870v143 81-24z"/><path d="m-421-2870v-49.5608-11.4392 37z"/><path d="m-421-2870v143h64v-192.5608h-63-1z"/><path d="m-21-2796h-7z"/><path d="m679-2796h7-35z"/><path d="m-21-2796v-4z"/><path d="m203-2800h-224 80z"/><path d="m427-2800h-224 80z"/><path d="m651-2800h-224 80 92z"/><path d="m203-2796h-224v-4h224z"/><path d="m427-2796h-224v-4h224z"/><path d="m651-2796h-224v-4h224z"/><path d="m679-2800v4h-28v-4z"/><path d="m203 1651h-224 217z"/><path d="m427 1651h-224 217z"/><path d="m651 1651h-224 217z"/><path d="m679 1655v-4z"/><path d="m679 1655h-28z"/><path d="m203 1655h-224v-4h224z"/><path d="m427 1655h-224v-4h224z"/><path d="m651 1655h-224v-4h224z"/><path d="m679 1651v4h-28v-4z"/><path d="m-426-1343v-224z"/><path d="m-426-1567v-224z"/><path d="m-426-1791v-224z"/><path d="m-426-2139v63 61z"/><path d="m-426-2139v-3-3-24.1666z"/><path d="m-738-982h224z"/><path d="m-442-982h-72z"/><path d="m-738-1511h224z"/><path d="m-442-1511h-72z"/><path d="m-738-982v-81-143z"/><path d="m-738-1206v-81-143z"/><path d="m-738-1511v81z"/><path d="m-442-982v-81-143z"/><path d="m-442-1206v-81-143z"/><path d="m-442-1511v81z"/><path d="m679-2796h7z"/><path d="m196-2796h-217-7z"/><path d="m420-2796h-217-7z"/><path d="m644-2796h-217-7z"/><path d="m679-2796v-4z"/><path d="m203-2800h-224v4h217 7z"/><path d="m427-2800h-224v4h217 7z"/><path d="m651-2800h-224v4h217 7z"/><path d="m679-2796v-4h-28v4z"/><path d="m679-2800h-28z"/><path d="m651 1651h28-35z"/><path d="m-21 1651v4z"/><path d="m203 1651h-7-217v4h224z"/><path d="m427 1651h-7-217v4h224z"/><path d="m651 1651h-7-217v4h224z"/><path d="m679 1655v-4h-28v4z"/><path d="m203 1655h-224 80z"/><path d="m427 1655h-224 80z"/><path d="m651 1655h-224 80 92z"/><path d="m-491-1453v-39h-201v39 185h201z"/><path d="m-692-1268v39 185h201v-185-39z"/><path d="m-692-1044v39h201v-39z"/><path d="m-692-1492 10 10v20 9h-10z"/><path d="m-491-1492-10 10h-181l-10-10z"/><path d="m-491-1229v185 39l-10-10v-20-194z"/><path d="m-491-1453v185 39h-10v-9-215z"/><path d="m-692-1005h201v-39h-201z"/><path d="m-491-1044v-224h-201v224z"/><path d="m-491-1268v-224h-201v224z"/><path d="m-692-1453v-39l10 10v29z"/><path d="m-692-1229v-224h10v224z"/><path d="m-491-1492-10 10h-181l-10-10z"/><path d="m-491-1005-10-10v-214h10z"/><path d="m-197-3118h-124-100 219z"/><path d="m-516-1278v-52-88-44h15v9 215h-15z"/><path d="m-501-1238v9 194h-15v-44-75-13-71z"/><path d="m-501-1482v20h-15-2-147-2-15v-20z"/><path d="m-552-1375v-82h34v39 46h-34z"/><path d="m-552-1457v82h-79-34v-43-39z"/><path d="m-553-1372v29h-2-73-2v-29z"/><path d="m-553-1337v-6-29h1 34v42 52h-35z"/><path d="m-682-1453v-9h15v44 88h-15z"/><path d="m-665-1375h34v3h-34z"/><path d="m-665-1372h34 1v29 6 7h-35z"/><path d="m-555-1343v6 53 73 48h-73v-174-6z"/><path d="m-553-1343v6h-2v-6z"/><path d="m-518-1278v-52h2v52z"/><path d="m-552-1167v4h-1v-4z"/><path d="m-665-1163h35 2 73 2 1v38h-79-34z"/><path d="m-518-1167h-34-1v-111h35 2v40 71z"/><path d="m-552-1125v-38-4h34v45h-34z"/><path d="m-628-1343v6h-2v-6z"/><path d="m-630-1167v4h-35v-4z"/><path d="m-667-1330h2 35v163h-35-2-15v-62-101z"/><path d="m-682-1167h15v13 75 44 20h-15z"/><path d="m-631-1122h79 34v43 39h-147v-39-43z"/><path d="m-665-1035h147 2 15v20h-166v-20z"/><path d="m-665-1125h34v3h-34z"/><path d="m-667-1154v-13z"/><path d="m-667-1418v40 48z"/><path d="m-667-1418v-44-5z"/><path d="m-518-1418v-39-5z"/><path d="m-518-1372v-46 46 29 13z"/><path d="m-518-1122v-45 4 6 35 43z"/><path d="m-518-1040v-39 44z"/><path d="m-516-1167v13z"/><path d="m-516-1079v44 5z"/><path d="m-665-1079v39 5z"/><path d="m-518-1462v-5h-147v5z"/><path d="m-552-1375h-79z"/><path d="m-555-1337v53z"/><path d="m-555-1284v73z"/><path d="m-555-1211v48z"/><path d="m-628-1163v-48-73-53z"/><path d="m-518-1040v5h-147v-5z"/><path d="m-667-1167h2z"/><path d="m-682-1229v62 152l-10 10v-39-185z"/><path d="m-682-1453v123 101h-10v-39-185z"/><path d="m-667-1015h166l10 10h-201l10-10z"/><path d="m-501-1462v-20l10-10v39h-10z"/><path d="m-501-1035v20h-181v-20z"/><path d="m-501-1035h-15v-223h15z"/><path d="m-516-1258v-224h15v224z"/><path d="m-682-1462v-20h166v20z"/><path d="m-518-1233v111h-34v-111z"/><path d="m-552-1457h34v224h-34z"/><path d="m-516-1330v163h-2v-163z"/><path d="m-665-1125v-42h35v42z"/><path d="m-628-1372h73v209h-73z"/><path d="m-555-1337v-35h2v35z"/><path d="m-665-1372v-3h34v3z"/><path d="m-665-1122v-3h34v3z"/><path d="m-665-1375v-82h113v82z"/><path d="m-553-1372h1v209h-1z"/><path d="m-630-1337v-35h2v35z"/><path d="m-630-1125v-38h78v38z"/><path d="m-630-1330v163h-37v-163z"/><path d="m-630-1330h-35v-42h35z"/><path d="m-667-1035h-15v-203h15z"/><path d="m-682-1238v-224h15v224z"/><path d="m-665-1040v-82h147v82z"/><path d="m-516-1035v5-137z"/><path d="m-516-1418v88z"/><path d="m-516-1418v-49 5z"/><path d="m-667-1418v-44-5z"/><path d="m-667-1167v137-5z"/><path d="m-667-1330v-88z"/><path d="m-665-1418v88z"/><path d="m-665-1040v5-132z"/><path d="m-665-1457v39-44z"/><path d="m-518-1418v-39-5z"/><path d="m-518-1330v-88z"/><path d="m-516-1330h-2z"/><path d="m-628-1163v-174z"/><path d="m-553-1163v-174z"/><path d="m-665-1330h-2z"/><path d="m-682-1015-10 10v-224h10z"/><path d="m-501-1015 10 10h-201l10-10z"/><path d="m-501-1453v-29l10-10v39z"/><path d="m-501-1229v-224h10v224z"/><path d="m810-3118h158-19z"/><path d="m810 1973h-21-125-78 13 80 7z"/><path d="m-561-1284v73z"/><path d="m-555-1284h-6v73h6z"/><path d="m-555-1211v-73z"/><path d="m-555-1284h-6v73h6z"/><path d="m-555-1211h-6z"/><path d="m-561-1284h6z"/><path d="m-561-1284h6v73h-6z"/><path d="m-555-1284v3 67 3z"/><path d="m-555-1163v-48z"/><path d="m-561-1284h6z"/><path d="m-555-1211h-6z"/><path d="m-561-1211v-73z"/><path d="m-561-1284h6v73h-6z"/><path d="m288.2-2958h-179.2 106z"/><path d="m467.4-2958h-179.2 150.8z"/><path d="m467.4-2968h82.6-217z"/><path d="m288.2-2968h-179.2v10h179.2z"/><path d="m467.4-2968h-134.4-44.8v10h179.2z"/><path d="m550-2958v-10h-82.6v10z"/><path d="m467.4 1813h82.6-43-174z"/><path d="m288.2 1823h-179.2z"/><path d="m467.4 1823h-179.2 44.8z"/><path d="m288.2 1813h-179.2v10h179.2z"/><path d="m467.4 1813h-134.4-44.8v10h179.2z"/><path d="m550 1823v-10h-82.6v10z"/></g><g id="c"><path d="m789-3118h21-85-39-7-80-13z"/><path d="m707-2198h-224z"/><path d="m931-2198h-224z"/><path d="m-197-2198h-224 1z"/><path d="m27-2198h-224 1z"/><path d="m1079-2422v94 130-24z"/><path d="m1079-2646v143 81-24z"/><path d="m-421-2727v-143 200 24z"/><path d="m-357-2727h36z"/><path d="m1015-2727h64v-143-49.5608h-1-63z"/><path d="m789-3054v36z"/><path d="m679-2796h-28-7z"/><path d="m196-2796h-224 7z"/><path d="m420-2796h-224 2z"/><path d="m644-2796h-224 2z"/><path d="m599-3018h80 7 103v-36-64h-203-36v100z"/><path d="m651-2800h28v-218h-80v133 4 81z"/><path d="m550-2968v10 73h49v-133h-49z"/><path d="m283-2881h-224v81h144 80z"/><path d="m507-2881h-224v81h144 80z"/><path d="m599-2800v-81h-92v81z"/><path d="m333-3118h-195-29v100 50h224z"/><path d="m550-2968v-50-100h-188-29v150z"/><path d="m439-2958h-150.8-73.2v54 19h68 156z"/><path d="m507-2885h43v-73h-82.6-28.4v73z"/><path d="m215-2958h-106v54h106z"/><path d="m-21-2904h80 50v-54-10-50h-130z"/><path d="m-28-3018h7 130v-100h-195-45v64 36z"/><path d="m215-2885v-19h-106-50v19z"/><path d="m59-2881v-4-19h-80v104h80z"/><path d="m-28-3018h-103z"/><path d="m-28-3018v114 101 7z"/><path d="m686-3018v87 135z"/><path d="m-21-2904v-114 133 85z"/><path d="m550-2958h-82.6z"/><path d="m109-2958v-10z"/><path d="m550-2968v10z"/><path d="m333-2968h-224 179.2z"/><path d="m599-2881h-92z"/><path d="m59-2881v-4z"/><path d="m599-2881v-4z"/><path d="m283-2885h-68-156 144z"/><path d="m507-2885h-68-156 144z"/><path d="m203-2800h-144-80z"/><path d="m427-2800h-144-80z"/><path d="m651-2800h-52-92-80z"/><path d="m-131-3118h-179v64h179z"/><path d="m-357-2727v-204 11.4392z"/><path d="m483-2328v23 7 91z"/><path d="m483-2198v-9z"/><path d="m979-2328h-48z"/><path d="m979-2727v175z"/><path d="m1079-2503v-143-81h-64-36v175 49z"/><path d="m979-2328h100v-94-81h-100z"/><path d="m707-2328h-224v121 9h224z"/><path d="m931-2328h-224v130h224z"/><path d="m1079-2198v-130h-100-48v130z"/><path d="m175-2207v9z"/><path d="m175-2328h-48z"/><path d="m-321-2552v49 175-175z"/><path d="m-321-2503v-49-175h-36-64v81 143z"/><path d="m-421-2422v94h100v-175h-100z"/><path d="m-197-2328h-124-100v130h224z"/><path d="m27-2328h-124-100v130h224z"/><path d="m175-2198v-9-121h-48-100v130z"/><path d="m1079 1053h-1-147z"/><path d="m82.3458 1053h92.6542-147-1z"/><path d="m-86 1973h-45-179z"/><path d="m138 1973h-29-195 58 7 80z"/><path d="m362 1973h-29-195 145z"/><path d="m586 1973h-36-188 145z"/><path d="m-421 1053v61z"/><path d="m1079 1562v20 192.5608 11.4392-61z"/><path d="m1079 1338v69 155-61z"/><path d="m1079 1114v69 155-61z"/><path d="m-141.6542 1183h-55.3458-124 190z"/><path d="m-197 1053h-224v61 69h100 124z"/><path d="m-141.6542 1053h-55.3458v130h55.3458z"/><path d="m-321 1358v49 175-72z"/><path d="m-321 1407v-49-175h-100v155 69z"/><path d="m-421 1562v20h64 36v-175h-100z"/><path d="m-357 1582h-64v204h64z"/><path d="m1015 1582h-36z"/><path d="m483 1053v9 91 7 23z"/><path d="m707 1183h-224z"/><path d="m931 1183h-224z"/><path d="m707 1053h-224v130h224z"/><path d="m931 1053h-224v130h224z"/><path d="m979 1183h100v-69-61h-148v130z"/><path d="m979 1183v175z"/><path d="m1079 1407v-69-155h-100v175 49z"/><path d="m979 1582h36 64v-20-155h-100z"/><path d="m82.3458 1183h-224 10.6542 34z"/><path d="m82.3458 1053h-55.3458-168.6542v130h224z"/><path d="m175 1183v-130h-92.6542v130z"/><path d="m1015 1582v204-11.4392z"/><path d="m1079 1582h-64v192.5608h63 1z"/><path d="m789 1909v64h21 158v-64z"/><path d="m-131 1909v-36z"/><path d="m196 1651h-224 7z"/><path d="m420 1651h-224 7z"/><path d="m644 1651h-224 7z"/><path d="m679 1651h7-7-33-2z"/><path d="m686 1651h-7z"/><path d="m679 1655h-15v85 133h15z"/><path d="m789 1909v-36h-103-7-15v100h125z"/><path d="m664 1740v-85h-13-52v81 4z"/><path d="m283 1655h-80-144v81h224z"/><path d="m507 1655h-80-144v81h224z"/><path d="m599 1736v-81h-92v81z"/><path d="m664 1873v-133h-65-49v73 10 150h36 78z"/><path d="m283 1740h-224v73h50 174z"/><path d="m507 1740h-224v73h50 174z"/><path d="m550 1813v-73h-43v73z"/><path d="m333 1823h-44.8-179.2v50 100h29 195z"/><path d="m362 1973h188v-150h-82.6-134.4v150z"/><path d="m59 1740v-4-81h-80v158h80z"/><path d="m59 1813h-80v60h130v-50-10z"/><path d="m-86 1973h195v-100h-130-7-103v36 64z"/><path d="m686 1873h103z"/><path d="m-28 1651v7 101 114z"/><path d="m686 1651v135 87z"/><path d="m-21 1813v-158 81 137z"/><path d="m333 1813h-50-174 179.2z"/><path d="m283 1736h-224 144z"/><path d="m507 1736h-224 144z"/><path d="m664 1655h15-28z"/><path d="m59 1740v-4z"/><path d="m599 1740v-4z"/><path d="m550 1740h49-92z"/><path d="m109 1823v-10z"/><path d="m550 1813v10z"/><path d="m550 1823h-82.6z"/><path d="m93-3118h-114-110 76 34z"/><path d="m317-3118h-114-110 122z"/><path d="m541-3118h-114-110 122z"/><path d="m765-3118h-101-123 123 49z"/><path d="m-421-2655v-72h64 36v175 49h-100z"/><path d="m-321-2503v175 23 7 19h-100v-152-72z"/><path d="m-321-2279v72h-100v-72z"/><path d="m-97-2207h-100-124v-72-19h224z"/><path d="m127-2207h-100-124v-91h78 146z"/><path d="m175-2298v91h-48v-91z"/><path d="m-97-2305h-224v-23h224z"/><path d="m127-2305h-224v-23h224z"/><path d="m175-2328v23h-48v-23z"/><path d="m-28-2803 7 7h-7z"/><path d="m-131-3054v-64h110v100h-7-103z"/><path d="m707-2305h-224v-23h224z"/><path d="m931-2305h-224v-23h224z"/><path d="m979-2328v23h-48v-23z"/><path d="m707-2207h-224v-91h224z"/><path d="m931-2207h-224v-91h224z"/><path d="m979-2298h100v91h-100-48v-91z"/><path d="m979-2552v-175h36 64v72 152h-100z"/><path d="m1079-2503v72 133h-100v-7-23-175z"/><path d="m-21-2894v-10-114-100h114 110v224z"/><path d="m203-2803h-5-219v-91h224z"/><path d="m203-2894v-224h114 110v224z"/><path d="m427-2803h-5-219v-91h224z"/><path d="m541-3118h123v64 160h-237v-224z"/><path d="m664-2894v64 27h-18-219v-91z"/><path d="m686-2803v7h-7z"/><path d="m686-3018h-7v-36h110v36z"/><path d="m664-3118h101 24v64h-110-15z"/><path d="m664-2894v-160h15v36 114 74h-15z"/><path d="m679-2830v27h-15v-27z"/><path d="m979-2305v7z"/><path d="m979-2207h100z"/><path d="m1079-2951v-167 224 15z"/><path d="m-28-2904h-5.1081.1081z"/><path d="m-21-2904h-5-.1081z"/><path d="m679-2803v-27-74h5v106z"/><path d="m679-2803v7l5 5v-7z"/><path d="m686-2803h-7l5 5h7z"/><path d="m-21-2803-5 5v7l5-5z"/><path d="m198-2796h-2-217l-5 5h224z"/><path d="m422-2796h-2-222v5h224z"/><path d="m646-2796h-2-222v5h224z"/><path d="m664-2803h15l5 5h-38v-5z"/><path d="m-28-2803v-101h-5v106z"/><path d="m-21-2803h-7l-5 5h7z"/><path d="m-421-2993v42 182-125z"/><path d="m483-2207v9z"/><path d="m979-2305h-48z"/><path d="m979-2207h-48z"/><path d="m707-2298h-224z"/><path d="m931-2298h-224z"/><path d="m175-2198v-9z"/><path d="m127-2207h48-148z"/><path d="m-321-2298v-7z"/><path d="m175-2305h-48z"/><path d="m-97-2298h-224z"/><path d="m-421-2431v152 72-114z"/><path d="m-421-2655v152 72-114z"/><path d="m-421-2769v42 72z"/><path d="m1079-2951v72 152-204z"/><path d="m-421-2993v-125 167z"/><path d="m979-2727h36z"/><path d="m-131-3018v-36z"/><path d="m789-3054v-64h190v64z"/><path d="m646-2796h33 7-7-35z"/><path d="m686-2803v-101-114 222z"/><path d="m789-3018h-103z"/><path d="m-131-3054h-179-11z"/><path d="m707-2328h-224z"/><path d="m931-2328h-224z"/><path d="m979-2552v49 175-175z"/><path d="m175-2298v-7-23 121z"/><path d="m-97-2328h-224 124z"/><path d="m127-2328h-224 124z"/><path d="m-321-2727v175z"/><path d="m789 1973h-24z"/><path d="m-131 1973h42.6168-108.6168z"/><path d="m979 1153v-91h100v72 26h-100z"/><path d="m707 1183h-224v-23h224z"/><path d="m931 1183h-224v-23h224z"/><path d="m979 1160h100v23h-100-48v-23z"/><path d="m707 1153h-224v-91h224z"/><path d="m931 1153h-224v-91h224z"/><path d="m979 1062v91h-48v-91z"/><path d="m979 1407v-49-175h100v175 49z"/><path d="m1079 1582h-64-36v-175h100z"/><path d="m679 1651h7v7z"/><path d="m664 1658h15v101 114h-15z"/><path d="m664 1882v-9h15 7 103v36 64h-24-101z"/><path d="m550 1813v-155h96 18v215 9h-114z"/><path d="m664 1882v91h-114v-91z"/><path d="m203 1813h-94-130v-54-101h219 5z"/><path d="m427 1813h-94-130v-155h219 5z"/><path d="m550 1658v155h-123v-155z"/><path d="m333 1973h-16-208v-100-60h94 130z"/><path d="m427 1813h123v69 91h-9-208v-160z"/><path d="m-97 1153h-224v-91h124 100z"/><path d="m127 1153h-146-78v-91h124 100z"/><path d="m175 1062v91h-48v-91z"/><path d="m-97 1183h-34-190v-23h224z"/><path d="m127 1183h-44.6542-179.3458v-23h78 146z"/><path d="m175 1160v23h-48v-23z"/><path d="m-421 1160v-98h100v91 7 23 103h-100z"/><path d="m-321 1286v72 152h-100v-152-72z"/><path d="m-321 1510v72h-36-64v-72z"/><path d="m-28 1651h7l-7 7z"/><path d="m109 1873h-130v-60h130z"/><path d="m-28 1873h7 130v100h-16-224v-64-36z"/><path d="m979 1153v7z"/><path d="m1079 1062h-100z"/><path d="m1079 1582v152 15z"/><path d="m1079 1062v72z"/><path d="m707 1160h-224 211z"/><path d="m931 1160h-224 211z"/><path d="m707 1062h-224z"/><path d="m931 1062h-224z"/><path d="m979 1153h-48z"/><path d="m-197 1062h-124-100 219z"/><path d="m27 1062h-124-100 219z"/><path d="m-321 1160v-7z"/><path d="m-321 1153h224z"/><path d="m-97 1153h78z"/><path d="m-421 1358v152 72-198z"/><path d="m-421 1160v126 72z"/><path d="m679 1759h5 .1081z"/><path d="m686 1759h5.1081-.1081z"/><path d="m-28 1658h7l-5-5h-7z"/><path d="m198 1658h-219l-5-5h224z"/><path d="m422 1658h-219-5v-5h224z"/><path d="m646 1658h-96-123-5v-5h224z"/><path d="m-21 1651-5-5v7l5 5z"/><path d="m679 1651 5-5h-38v5z"/><path d="m-28 1759h-5.1081-17.5135-4.3784v114h27z"/><path d="m-421 1749v224-125z"/><path d="m-421 1624v125z"/><path d="m-421 1624v-42 167z"/><path d="m-131 1909v64h-66-124v-64z"/><path d="m-321 1582h-36z"/><path d="m-321 1286v-103 175z"/><path d="m979 1183h-48z"/><path d="m979 1358v49 175-175z"/><path d="m175 1160v-7-91-9 130z"/><path d="m127 1183h48-92.6542z"/><path d="m789 1873v36z"/><path d="m789 1909h179 11z"/><path d="m196 1651h-217-7z"/><path d="m420 1651h-222-2z"/><path d="m644 1651h-222-2z"/><path d="m686 1759v-101-7 222z"/><path d="m-131 1873h103z"/><path d="m-555-1281h-4v67h4z"/><path d="m-555-1284v-53 56z"/><path d="m-559-1281v67z"/><path d="m-555-1214v3z"/><path d="m-555-1214v-67z"/><path d="m-555-1281h-4v67h4z"/><path d="m-555-1163h2z"/><path d="m-559-1281h4v3 61 3h-4z"/><path d="m-555-1281v-56 59z"/><path d="m-555-1211v-3-3 6 48z"/><path d="m-559-1281h4z"/><path d="m-555-1214h-4z"/><path d="m-555-1163v-51z"/><path d="m-555-1278v61z"/><path d="m-555-1284v3z"/><path d="m-559-1281h4v67h-4z"/><path d="m-559-1281h4z"/><path d="m-555-1214h-4z"/><path d="m-559-1214v-67z"/><path d="m-516-1030v-5h-2v5z"/><path d="m-518-1030v-5h-147v5z"/><path d="m-665-1030v-5h-2v5z"/><path d="m-667-1030v-5-44z"/><path d="m-518-1462v-5h2v49h-2z"/><path d="m-516-1467v5 44z"/><path d="m-518-1467v5h2v-5z"/><path d="m-516-1079v-75z"/><path d="m-518-1030v-5-44h2v49z"/><path d="m-665-1418v-44 5z"/><path d="m-518-1467v5h-147v-5z"/><path d="m-518-1462v5h-34-113v-5z"/><path d="m-518-1035v5h-147v-5z"/><path d="m-665-1467v5 44h-2v-49z"/><path d="m-667-1467v5h2v-5z"/><path d="m-665-1035v5h-2v-49h2z"/><path d="m-665-1030v-5h-2v5z"/><path d="m-518-1030v-5h-147v5z"/><path d="m-516-1030v-5h-2v5z"/><path d="m-665-1467v5h147v-5z"/><path d="m-667-1467v5h2v-5z"/><path d="m-518-1467v5h2v-5z"/><path d="m-518-1035v-5-127z"/><path d="m-516-1467v49h-2v-49z"/><path d="m-518-1030v-49h2v49z"/><path d="m-518-1467v5h-147v-5z"/><path d="m-518-1462v5h-147v-5z"/><path d="m-665-1030v-5h147v5z"/><path d="m-665-1035v-5h147v5z"/><path d="m-665-1467v49h-2v-49z"/><path d="m-667-1030v-49h2v49z"/><path d="m-18 1800h-7v32h7z"/><path d="m683-2975h-7v32h7z"/><path d="m684-2904h-5 5.1081z"/><path d="m691.1081-2904h-5.1081 5z"/><path d="m684.1081-2904h21.8919-4-16z"/><path d="m691.1081-2904h17.5135 4.3784v-89-25h-27v114z"/><path d="m-26.1081-2904h-21.8919v-114h27v114z"/><path d="m684-2798v-106h.1081 1.8919 5v106z"/><path d="m691-2904h-5v101l5 5z"/><path d="m-26-2904h5v10 91l-5 5z"/><path d="m198-2791h-224v-7h224z"/><path d="m422-2791h-224v-7h224z"/><path d="m646-2791h-224v-7h224z"/><path d="m684-2798v7h-38v-7z"/><path d="m684-2791-5-5h-33v5z"/><path d="m198-2798h-224l5-5h219z"/><path d="m422-2798h-224v-5h5 219z"/><path d="m646-2798h-224v-5h5 219z"/><path d="m-33-2798v-106h5 1.8919.1081v106z"/><path d="m-33.1081 1759h5.1081-5z"/><path d="m-26 1759h5-5.1081z"/><path d="m684 1653v106h-5v-101z"/><path d="m684 1653v-7l-5 5v7z"/><path d="m691 1653h-7l-5 5h7z"/><path d="m691 1653v106h-5-1.8919-.1081v-106z"/><path d="m691 1653-5 5v101h5z"/><path d="m684 1653-5 5h-15-18v-5z"/><path d="m198 1653h-224v-7h224z"/><path d="m422 1653h-224v-7h224z"/><path d="m646 1653h-224v-7h224z"/><path d="m684 1646v7h-38v-7z"/><path d="m198 1646h-224l5 5h217 2z"/><path d="m422 1646h-224v5h222 2z"/><path d="m646 1646h-224v5h222 2z"/><path d="m-26 1653v106h-.1081-1.8919-5v-106z"/><path d="m-33 1759h5v-101l-5-5z"/><path d="m-26 1653 5 5v101h-5z"/><path d="m684.1081 1759h21.8919v96 18h-27v-114z"/><path d="m-131-3118h-66z"/><path d="m1079-3118h-66z"/><path d="m-426 1978h224z"/><path d="m-202 1978h71z"/><path d="m789 1978h-24z"/><path d="m-426 1754v94 125 5z"/><path d="m-426 1530v94 130z"/><path d="m-426 1306v78 146z"/><path d="m-426-2552v7 217-35z"/><path d="m-426-2776v7 217-35z"/><path d="m-426-3000v106 118-35z"/><path d="m1084 1286v-103 123z"/><path d="m1084-2207v-91z"/><path d="m1084-3118v118 30z"/><path d="m979-2207h100 5z"/><path d="m1079-2431v224-91z"/><path d="m1079-2655v209 15-72z"/><path d="m1079-2879v209 15-72z"/><path d="m1079-3118h5v148 76h-5z"/><path d="m1084-2894v148 76h-5v-209-15z"/><path d="m1084-2670v148 76h-5v-209-15z"/><path d="m1084-2446v148 91h-5v-224-15z"/><path d="m-421-3118v125z"/><path d="m-426-3000v-118h5v125 99h-5z"/><path d="m-421-2894v125h-5v-7-118z"/><path d="m27-2207h148-153z"/><path d="m-197-2207h-5-219 100z"/><path d="m27-2207h-5-219 100z"/><path d="m-421-2769v114 110h-5v-7-217z"/><path d="m-421-2545v114 110h-5v-7-217z"/><path d="m-421-2321v114h-5v-114z"/><path d="m1013 1973h-95-129 190z"/><path d="m93 1973h-71-110.3832-42.6168z"/><path d="m317 1973h-71-153 16z"/><path d="m541 1973h-71-153 16z"/><path d="m765 1973h-71-153 9 114z"/><path d="m-197 1973h-5-219 100z"/><path d="m1079 1749v224z"/><path d="m1079 1358v152 72-175z"/><path d="m1079 1134v152 72-175-23z"/><path d="m1079 1134v-72h5v121 103h-5z"/><path d="m1084 1286v20 204h-5v-152-72z"/><path d="m1084 1510v20 204h-5v-152-72z"/><path d="m1084 1734v20 219h-5v-224-15z"/><path d="m175 1062v-9z"/><path d="m-202 1062h-219-5z"/><path d="m22 1062h-219-5z"/><path d="m175 1062h-48-100z"/><path d="m-421 1062v98z"/><path d="m-426 1062h5v98h-5z"/><path d="m-421 1582v42z"/><path d="m-421 1160v198 26h-5v-78-123-23z"/><path d="m-421 1384v198 42h-5v-94-146z"/><path d="m-421 1624v125 99h-5v-94-130z"/><path d="m-421 1848v125h-5v-125z"/><path d="m-202 1978h-224v-5h5 219z"/><path d="m22 1978h-153-71v-5h5 108.6168 110.3832z"/><path d="m246 1978h-153-71v-5h71 153z"/><path d="m470 1978h-153-71v-5h71 153z"/><path d="m694 1978h-153-71v-5h71 153z"/><path d="m918 1978h-129-24-71v-5h71 24 129z"/><path d="m1013 1973h66 5v5h-71-95v-5z"/><path d="m-518-1459v11.8723.1277 29z"/><path d="m-518-1418h2z"/><path d="m-516-1464h-2v5 41h2z"/><path d="m-516-1079h-2z"/><path d="m-516-1079h-2v41 5h2z"/><path d="m-518-1464v31h-51-45-51v-31z"/><path d="m-665-1038v-11.8723-.1277-29z"/><path d="m-518-1459v-5h-147v5z"/><path d="m-555-1278h-2v61h2z"/><path d="m-555-1217v-61z"/><path d="m-518-1033v-5h-147v5z"/><path d="m-518-1038v-11.8723-1.9788-17.1489h-51-45-51v17.1489 1.9788 11.8723z"/><path d="m-667-1418h2z"/><path d="m-665-1459v-5h-2v46h2z"/><path d="m-665-1079h-2z"/><path d="m-665-1038v-41h-2v46h2z"/><path d="m-516-1033h-2v-31h2z"/><path d="m-665-1033h-2v-31h2z"/><path d="m-516-1079v46-31z"/><path d="m-667-1033v-46 15z"/><path d="m-665-1464h147v31h-147z"/><path d="m-518-1464h2v31h-2z"/><path d="m-518-1038v-31h-147v31z"/><path d="m-665-1459v14-.1489z"/><path d="m-665-1038v-13.8511-.1489z"/><path d="m-665-1459v41-29z"/><path d="m-518-1459h-147v31h147z"/><path d="m-516-1459v-5h-149v5z"/><path d="m-518-1459v13.8511.1489z"/><path d="m-518-1038v-14 .1489z"/><path d="m-518-1038v-41 29z"/><path d="m-518-1418h2z"/><path d="m-518-1459v41h2v-41z"/><path d="m-516-1079h-2z"/><path d="m-516-1079h-2v41h2z"/><path d="m-555-1278h-2v61h2z"/><path d="m-667-1418h2z"/><path d="m-665-1464h-2v46h2z"/><path d="m-665-1079h-2z"/><path d="m-665-1079h-2v41h2z"/><path d="m-667-1038v5h151v-5z"/><path d="m-426 1053v9z"/><path d="m1084 1062v91 7 23z"/><path d="m-19-2140h129v-15h-129z"/><path d="m548-2140h129v-15h-129z"/><path d="m483-2198h-84z"/><path d="m483-2148.0952v.4762h65v-.4762-15.3572h-65z"/><path d="m901-2148.0952h95 88v-21.0714-5.5954h-183z"/><path d="m772-2148.0952h-95-129v.4762h159 65z"/><path d="m996-2148.0952h-95-129v.4762h159 65z"/><path d="m677-2148.0952v8.0952h-129v-8.0952z"/><path d="m548-2140v-15-8.4524 15.3572z"/><path d="m-19-2140v-15-8.4524 15.3572z"/><path d="m399-2198h-224v49.9048.0952h224z"/><path d="m483-2148v-.0952-49.9048h-84v50z"/><path d="m399-2148h-224v3h71 153z"/><path d="m110-2148.0952v.4762h65v-.4762-15.3572h-65z"/><path d="m110-2148.0952h-129v.4762h129z"/><path d="m110-2148.0952v8.0952h-129v-8.0952z"/><path d="m110 996h-129v15h129z"/><path d="m677 996h-129v15h129z"/><path d="m707 1053h-224z"/><path d="m931 1053h-224z"/><path d="m205 1053h-30-153-41 194z"/><path d="m429 1053h-30-194 194z"/><path d="m-202 1053h-224z"/><path d="m548 1003.0952v-7.0952h129v7.0952z"/><path d="m1084 1003.0952v-3.0952h-153v3.0952z"/><path d="m677 996v15 7.4524-15.3572z"/><path d="m901 1003.0952h-194-30v15.3572 11.3096h224z"/><path d="m548 1003.0952h-65v15.3572h65z"/><path d="m399 1003h-224v.0952 49.9048h30 194z"/><path d="m429 1053h54v-49.9048-.0952h-84v50z"/><path d="m483 1003v-3h-13-71v3z"/><path d="m-19 1003.0952v-7.0952h129v7.0952z"/><path d="m110 996v15 7.4524-15.3572z"/><path d="m175 1003.0952h-65v15.3572h65z"/><path d="m1084 1062h-5-100z"/><path d="m1084 1053v9h-105v-9z"/><path d="m483 1053v9z"/><path d="m979 1062h-48z"/><path d="m707 1062h-224v-9h224z"/><path d="m931 1062h-224v-9h224z"/><path d="m979 1062h-48v-9h48z"/><path d="m175 1062h-148-5z"/><path d="m-202 1062h-224v-9h224z"/><path d="m22 1062h-224v-9h183 41z"/><path d="m175 1053v9h-153v-9z"/><path d="m-555-1217h-2z"/><path d="m-557-1278h2v61h-2z"/><path d="m-555-1278v-59 53 67z"/><path d="m-557-1278h2z"/><path d="m-557-1217v-61z"/><path d="m-555-1163v-54z"/><path d="m-555-1284v6z"/><path d="m-555-1211v-73z"/><path d="m-557-1278h2z"/><path d="m-557-1217v-61z"/><path d="m-555-1217h-2z"/><path d="m-557-1278h2v61h-2z"/><path d="m-426-2207v9z"/><path d="m-426-2207v-91-7-23 7z"/><path d="m1084-2207v-91 91 9z"/><path d="m979-2198h105-153z"/><path d="m175-2198h-153z"/><path d="m1084-2207v9h-105v-9z"/><path d="m707-2207h-224z"/><path d="m931-2207h-224z"/><path d="m707-2198h-224v-9h224z"/><path d="m931-2198h-224v-9h224z"/><path d="m979-2198h-48v-9h48z"/><path d="m-202-2207h-224 5z"/><path d="m22-2207h-224 5z"/><path d="m-202-2198h-224v-9h224z"/><path d="m22-2198h-224v-9h224z"/><path d="m175-2207v9h-153v-9z"/><path d="m1084-2147.619v-.4762h-88v.4762z"/><path d="m707-2147.619h-159-65v2.619h211 13z"/><path d="m931-2147.619h-159-65v2.619h211 13z"/><path d="m175-2147.619v2.619-3-.0952z"/><path d="m110-2147.619h-129v2.619h41 153v-2.619z"/><path d="m-667-1154v75z"/><path d="m-667-1418v40z"/><path d="m-518-1447v-.1277 1.9788.1489z"/><path d="m-518-1050v.1277 11.8723-41z"/><path d="m-516-1418v-15-31z"/><path d="m-516-1378v48 163 13-134z"/><path d="m-516-1378v-40 88z"/><path d="m-518-1330h2z"/><path d="m-516-1167h-2z"/><path d="m-516-1330h-2v163h2z"/><path d="m-665-1050v.1277-1.9788-.1489z"/><path d="m-665-1122v-3-29-13 4 38 3 43z"/><path d="m-665-1343v-29-3-43 43 3 42z"/><path d="m-665-1447v-.1277-11.8723 41z"/><path d="m-665-1447v2-.1489-1.9788z"/><path d="m-552-1447h34v2h-147v-2z"/><path d="m-630-1343h2 73 2 35v-29h-34-79-34v29z"/><path d="m-518-1418v-29h-34v72 3h34z"/><path d="m-631-1375h79v-72h-113v29 43z"/><path d="m-665-1375v3h34v-3z"/><path d="m-552-1375v3z"/><path d="m-631-1372v-3z"/><path d="m-552-1372h-1-77-1z"/><path d="m-572-1154h20v-3h-20z"/><path d="m-555-1284v-53-6h-73v6 53z"/><path d="m-555-1337h2v-6h-2z"/><path d="m-518-1157h-34v3 29 3h34z"/><path d="m-552-1157h34v-6h-35-2-17v6z"/><path d="m-572-1163h17v-48h-73v48z"/><path d="m-553-1337v174h35v-4-163-13h-35z"/><path d="m-630-1154h58v-3-6h-56-2z"/><path d="m-630-1337h2v-6h-2z"/><path d="m-630-1154v-9-174-6h-35v13 163 13z"/><path d="m-518-1050v-29-43h-34-79-34v43 29z"/><path d="m-631-1125h79v-29h-20-58-35v29z"/><path d="m-665-1125v3h34v-3z"/><path d="m-555-1211h-17-39-17z"/><path d="m-628-1211v-73z"/><path d="m-628-1163h-2z"/><path d="m-553-1337h-2z"/><path d="m-630-1337h2z"/><path d="m-553-1337v59 111 4z"/><path d="m-630-1163v-4-163-7z"/><path d="m-552-1122h-79z"/><path d="m-631-1122v-3z"/><path d="m-552-1125v3z"/><path d="m-631-1125h79z"/><path d="m-667-1330h2z"/><path d="m-665-1330h-2v163h2z"/><path d="m-516-1452.1277v-11.8723 46z"/><path d="m-516-1167v88z"/><path d="m-516-1303v224z"/><path d="m-667-1079v-88z"/><path d="m-665-1079v41-12z"/><path d="m-665-1167v88z"/><path d="m-518-1418v-41 12z"/><path d="m-518-1079v-88z"/><path d="m-516-1167h-2z"/><path d="m-516-1167v-163h-2v163z"/><path d="m-552-1372h-79z"/><path d="m-552-1375v-72h-113v72z"/><path d="m-518-1447h-34v75h34z"/><path d="m-665-1375v3h34v-3z"/><path d="m-631-1375h79z"/><path d="m-552-1375v3z"/><path d="m-631-1372v-3z"/><path d="m-552-1122h-79z"/><path d="m-555-1163h2z"/><path d="m-628-1163h-2z"/><path d="m-555-1337v53z"/><path d="m-555-1163v-48z"/><path d="m-518-1372h-35v161h35z"/><path d="m-552-1211h-1v48h1z"/><path d="m-518-1163v-48h-34v48z"/><path d="m-553-1372h-2v35h2z"/><path d="m-553-1337h-2z"/><path d="m-555-1284h-73z"/><path d="m-555-1372h-73v88h73z"/><path d="m-555-1163v-48h-73v48z"/><path d="m-628-1337v-6h-2v6z"/><path d="m-628-1372h-37v29h37z"/><path d="m-630-1163v-180h-35v180z"/><path d="m-630-1337h2z"/><path d="m-630-1163v-174z"/><path d="m-552-1125v3z"/><path d="m-552-1122h34v-41h-34z"/><path d="m-665-1125v3h34v-3z"/><path d="m-552-1157v-6h-78v6z"/><path d="m-665-1125h113v-32h-113z"/><path d="m-665-1157h35v-6h-35z"/><path d="m-631-1122v-3z"/><path d="m-631-1125h79z"/><path d="m-665-1122v72h147v-72z"/><path d="m-518-1050h-147v-2h147z"/><path d="m-665-1167h-2z"/><path d="m-667-1167h2v-163h-2z"/><path d="m-518-1284v-59-3-72 130 7.4z"/><path d="m-518-1052v-27 10 17.1489z"/><path d="m-518-1052v.1489 1.9788-.1277z"/><path d="m-665-1275.8511v64.8511 54 3 102 .1489-17.1489z"/><path d="m-518-1445v27 72h-54-39-54v-99z"/><path d="m-572-1343h-39v-3h39z"/><path d="m-518-1052v2h-147v-2z"/><path d="m-555-1284h-73z"/><path d="m-611-1343h39 54v59h-37-73-37v-59z"/><path d="m-555-1211v-6-67z"/><path d="m-555-1211v-73h37v3.4 69.6z"/><path d="m-665-1211v-64.8511-8.1489h37v73z"/><path d="m-518-1154h-54 42z"/><path d="m-611-1154h-54 12z"/><path d="m-572-1154v-3z"/><path d="m-572-1157h54-12z"/><path d="m-572-1211h17 37v54h-54z"/><path d="m-518-1157v3h-12v-3z"/><path d="m-611-1157v3z"/><path d="m-611-1157v-54h39v54 3h-39z"/><path d="m-665-1157h54-42z"/><path d="m-665-1157v-54h37 17v54z"/><path d="m-665-1154v-3h12v3z"/><path d="m-611-1154h39 54v75 27h-147v-102z"/><path d="m-665-1275.8511v224-17.1489z"/><path d="m-665-1346v-99h147v99z"/><path d="m-572-1343h-39v-3h39z"/><path d="m-665-1154h147v102h-147z"/><path d="m-518-1211v54h-147v-54z"/><path d="m-611-1157h39v3h-39z"/><path d="m-555-1211v-73h37v73z"/><path d="m-518-1343v59h-147v-59z"/><path d="m-665-1211v-73h37v73z"/><path d="m-572-1154v-3z"/><path d="m-518-1280.6v-137.4z"/><path d="m-518-1079v10 17.1489z"/><path d="m-572-1157h54-12z"/><path d="m-518-1154h-54 42z"/><path d="m-518-1157v3h-12v-3z"/><path d="m-665-1157h54-42z"/><path d="m-611-1157v3z"/><path d="m-611-1154h-54 12z"/><path d="m-665-1154v-3h12v3z"/><path d="m-665-1445v-2h147v2z"/><path d="m-628-1284v73z"/><path d="m-628-1211h73z"/><path d="m-18 1832h-15v-32h15z"/><path d="m-18 1832h-7-8z"/><path d="m-33 1800h8 7z"/><path d="m-18 1800v32z"/><path d="m-33 1832h8v-32h-8z"/><path d="m691-2943h-8-7z"/><path d="m676-2975h15v32h-15z"/><path d="m676-2975h7 8z"/><path d="m676-2943v-32z"/><path d="m691-2975h-8v32h8z"/><path d="m399-2198h-224z"/><path d="m483-2298v-7z"/><path d="m175-2298v-7z"/><path d="m483-2305h-13-71z"/><path d="m399-2305h-224v7 100h224z"/><path d="m483-2198v-100-7h-84v107z"/><path d="m483 1053h-54z"/><path d="m483 1160v-7z"/><path d="m399 1160h-224 30z"/><path d="m175 1153v7z"/><path d="m399 1053h-194-30v100 7h224z"/><path d="m483 1160v-7-100h-54-30v107z"/><path d="m175 1153h-194 146z"/><path d="m1084 1053v9z"/><path d="m1084-2152v-46-9 58z"/><path d="m1084-2298v-30 23 7 91z"/><path d="m1084-2522v194 30-148z"/><path d="m1084-2746v194 30-148z"/><path d="m1084-2970v194 30-148z"/><path d="m1084-3118v45 73z"/><path d="m707-2198h-13-211z"/><path d="m931-2198h-13-211z"/><path d="m-202-2198h-224z"/><path d="m22-2198h-224z"/><path d="m483-2298v100z"/><path d="m175-2198v-100z"/><path d="m399-2198h-153-71v-100h224z"/><path d="m483-2298v100h-13-71v-100z"/><path d="m399-2298h-224z"/><path d="m175-2298h-194 146z"/><path d="m-19-2298h194-48z"/><path d="m-19-2298h-78z"/><path d="m-202-2152h-224v-46h224z"/><path d="m22-2152h-224v-46h224z"/><path d="m246-2152h-224v-46h153 71z"/><path d="m470-2152h-224v-46h153 71z"/><path d="m694-2152h-224v-46h13 211z"/><path d="m918-2152h-224v-46h13 211z"/><path d="m931-2198h153v46h-166v-46z"/><path d="m-202-2145h-224v3h224z"/><path d="m22-2145h-41-183v3h224z"/><path d="m246-2145h-71-153v3h224z"/><path d="m470-2145h-71-153v3h224z"/><path d="m694-2145h-211-13v3h224z"/><path d="m918-2145h-211-13v3h224z"/><path d="m1084-2152v3h-166v-3z"/><path d="m483-2145v-2.619-.4762.0952z"/><path d="m1084-2145v-2.619h-88-65v2.619z"/><path d="m470-2145h13v-3h-84v3z"/><path d="m-202-2145h183v-2.619-.4762-15.3572-8.2142h-183z"/><path d="m1084 1053h-105-48z"/><path d="m22 1053h153-194z"/><path d="m-19 1053h-183z"/><path d="m-202 1053h-224v-46h224z"/><path d="m22 1053h-41-183v-46h224z"/><path d="m175 1007v46h-153v-46z"/><path d="m399 1053h-224v-46h71 153z"/><path d="m470 1007h13v46h-84v-46z"/><path d="m707 1053h-224v-46h211 13z"/><path d="m931 1053h-224v-46h211 13z"/><path d="m1084 1007v46h-153v-46z"/><path d="m931 1000h153v-3h-166v3z"/><path d="m-202 1007h-224v-3h224z"/><path d="m22 1007h-224v-3h224z"/><path d="m246 1007h-71-153v-3h224z"/><path d="m470 1007h-71-153v-3h224z"/><path d="m694 1007h-211-13v-3h224z"/><path d="m918 1007h-211-13v-3h224z"/><path d="m483 1000v3 .0952z"/><path d="m707 1000h-13-211v3.0952h65 129 30z"/><path d="m931 1000h-13-211v3.0952h194 30z"/><path d="m175 1000v3.0952-.0952z"/><path d="m399 1000h-153-71v3h224z"/><path d="m175 1000h-153-41v3.0952h129 65z"/><path d="m-202 1000h-224v24.1667 2.5h224z"/><path d="m483 1053v100z"/><path d="m175 1153v-100z"/><path d="m399 1153h-224v-100h224z"/><path d="m483 1053v100h-84v-100z"/><path d="m483 1153h-84z"/><path d="m-426 1183v-23-7-91 98z"/><path d="m-426 1062v-58 3 46z"/><path d="m-426-2207v9 46 3z"/><path d="m1084 1062v-9-46-3z"/><path d="m1084-2298v91z"/><path d="m979-2298h105v-7h-105z"/><path d="m979-2305h105z"/><path d="m-97-2298h-224z"/><path d="m-426-2305v7h105v-7z"/><path d="m-321-2298h-105z"/><path d="m1084 1153h-105v7h105z"/><path d="m979 1153h105z"/><path d="m-321 1160h-105z"/><path d="m-321 1160h119 105z"/><path d="m-19 1160h194-48z"/><path d="m429 1160h54-84z"/><path d="m205 1160h-30-194 41z"/><path d="m429 1160h-30-194 41z"/><path d="m-19 1153h-78z"/><path d="m-321 1153h-105v7h105z"/><path d="m-516-1288v134 75 15l-12-48v-176z"/><path d="m-667-1079v15 31z"/><path d="m-667-1433v15-46z"/><path d="m-667-1378v90 134-13-163z"/><path d="m-569-1064h-45l4-48h37z"/><path d="m-516-1064h-2l-12-48h2z"/><path d="m-518-1064h2v31h-2z"/><path d="m-614-1064h45 51v31h-147v-31z"/><path d="m-667-1064h2v31h-2z"/><path d="m-665-1433 12 48h-2l-12-48z"/><path d="m-569-1433-4 48h-37l-4-48z"/><path d="m-518-1418v-27-.1489 17.1489z"/><path d="m-518-1280.6v201.6-75-3-54z"/><path d="m-516-1433h-2v-31h2z"/><path d="m-516-1418v40z"/><path d="m-516-1064v-15 46z"/><path d="m-518-1418v-10-5l-12 48v39 3 55h12z"/><path d="m-665-1433h-2v-31h2z"/><path d="m-665-1288v12.1489 206.8511 5l12-48v-5-37-3-54-77z"/><path d="m-665-1288v-140-17.1489.1489 99 3 59 8.1489z"/><path d="m-569-1428h-45l4 48h37z"/><path d="m-518-1433v5h-51v-5z"/><path d="m-614-1428h-51v-5h51z"/><path d="m-569-1433v5l-4 48v-5z"/><path d="m-614-1428v-5l4 48v5z"/><path d="m-614-1428h45 51v-17.1489-1.9788-11.8723h-147v11.8723 1.9788 17.1489z"/><path d="m-665-1064v-5h51v5z"/><path d="m-518-1069v5h-51v-5z"/><path d="m-614-1064v-5l4-48v5z"/><path d="m-569-1069v5l-4-48v-5z"/><path d="m-667-1378v-40-15l12 48v49 48h-12z"/><path d="m-516-1064-12-48v-176h12z"/><path d="m-569-1064h-45l4-48h37z"/><path d="m-665-1064h-2l12-48h2z"/><path d="m-516-1064h-2l-12-48h2z"/><path d="m-518-1064v31h-147v-31z"/><path d="m-667-1288v-145l12 48v97z"/><path d="m-516-1433v-19.1277 149.1277z"/><path d="m-667-1418v115z"/><path d="m-667-1303v224z"/><path d="m-667-1433v15-46z"/><path d="m-665-1433h-2v-31h2z"/><path d="m-518-1288v-145l-12 48v97z"/><path d="m-665-1064 12-48v-176h-12z"/><path d="m-665-1064v-5h51v5z"/><path d="m-569-1069h51v5h-51z"/><path d="m-569-1069v5l-4-48v-5z"/><path d="m-614-1064v-5l4-48v5z"/><path d="m-569-1428h-45l4 48h37z"/><path d="m-614-1428h-51v-5h51z"/><path d="m-518-1433v5h-51v-5z"/><path d="m-569-1433v5l-4 48v-5z"/><path d="m-614-1428v-5l4 48v5z"/><path d="m-665-1428v-17.1489 169.2978z"/><path d="m-518-1079v-201.6z"/><path d="m-518-1418v-27.1489 17.1489z"/><path d="m-426 994v3 4z"/><path d="m-426-350v-109 150z"/><path d="m-426-2146v4 3z"/><path d="m-426-2207v-91z"/><path d="m1084 1062v91z"/><path d="m1084 1062v-58-3 52z"/><path d="m1084 1001v-4-3z"/><path d="m1084-2101v-38 186 35z"/><path d="m1084 811v183 3 3 3.0952 21.0715z"/><path d="m1084 587v183 41z"/><path d="m1084 363v183 41z"/><path d="m1084 139v183 41z"/><path d="m1084-85v183 41z"/><path d="m1084-309v183 41z"/><path d="m1084-533v183 41z"/><path d="m1084-757v183 41z"/><path d="m1084-981v183 41z"/><path d="m1084-1205v183 41z"/><path d="m1084-1429v183 41z"/><path d="m1084-1653v183 41z"/><path d="m1084-1877v183 41z"/><path d="m1084-2101v183 41z"/><path d="m1084-2139v-3-4z"/><path d="m1084-2149v-58-91 100 52z"/><path d="m-202-2142h-224v-4-3h224z"/><path d="m22-2142h-224v-7h224z"/><path d="m246-2142h-224v-7h224z"/><path d="m470-2142h-224v-7h224z"/><path d="m694-2142h-224v-7h224z"/><path d="m918-2142h-224v-7h224z"/><path d="m1084-2149v3 4h-166v-7z"/><path d="m1084-2142v-3h-153-13v3z"/><path d="m-202-2149h-224v-3h224z"/><path d="m22-2149h-224v-3h224z"/><path d="m246-2149h-224v-3h224z"/><path d="m470-2149h-224v-3h224z"/><path d="m694-2149h-224v-3h224z"/><path d="m918-2149h-224v-3h224z"/><path d="m-202 1004h-224v-3-4h224z"/><path d="m22 1004h-224v-7h224z"/><path d="m246 1004h-224v-7h224z"/><path d="m470 1004h-224v-7h224z"/><path d="m694 1004h-224v-7h224z"/><path d="m918 1004h-224v-7h224z"/><path d="m1084 997v4 3h-166v-7z"/><path d="m-202 997h-224v3h224z"/><path d="m22 997h-224v3h183 41z"/><path d="m246 997h-224v3h153 71z"/><path d="m470 997h-224v3h153 71z"/><path d="m694 997h-224v3h13 211z"/><path d="m918 997h-224v3h13 211z"/><path d="m1084 1004v3h-153-13v-3z"/><path d="m-426-687v228z"/><path d="m-422-687h-4v228h4z"/><path d="m176-2773h-219.6216-.3784l-4 4h217 7z"/><path d="m400-2773h-219.6216-4.3784v4h217 7z"/><path d="m624-2773h-219.6216-4.3784v4h217 7z"/><path d="m708.6216-2904h-17.5135-.1081-5 16z"/><path d="m708.6216-2904h.3784 4z"/><path d="m-44-2904h16-5-.1081-17.5135z"/><path d="m-44-2904h-4 21.8919-1.8919z"/><path d="m-50.6216-2780.3784h6.6216v-123.6216h-6.6216-.3784v123.2433z"/><path d="m-50.6216-2780.3784-.3784-.3783v.7567h.7568z"/><path d="m-44-2773.7567v.7567h.3784v-.3784z"/><path d="m709-2904h-.3784-6.6216v123.6216h6.6216.3784z"/><path d="m708.2432-2780h.7568v-.3784h-.3784z"/><path d="m701.6216-2773.3784-.3784.3784h.7568v-.7567z"/><path d="m180.3784-2780h-4.3784-219.6216v6.6216.3784h219.6216 4.3784z"/><path d="m404.3784-2780h-4.3784-219.6216v7h219.6216 4.3784z"/><path d="m628.3784-2780h-4.3784-219.6216v7h219.6216 4.3784z"/><path d="m701.2432-2773 .3784-.3784v-6.6216h-73.2432v7z"/><path d="m702-2773.7567v.7567l4 4z"/><path d="m702-2773.7567 4 4.7567 7-7-4.7568-4z"/><path d="m-43.6216-2780-4.3784 4 4.3784-4.3784z"/><path d="m628.3784-2780h73.2432l4.3784 4h-42-40v-4z"/><path d="m702-2780.3784 4 4.3784-4.3784-4.3784z"/><path d="m701.6216-2780.3784 4.3784 4.3784-4.3784-4z"/><path d="m-43.6216-2780.3784-4.3784 4.3784 4-4.3784z"/><path d="m-51-2780.7567v-123.2433h-4v128l4-4z"/><path d="m-50.2432-2780-4.7568 4 7 7 4-4.7567z"/><path d="m708.6216-2780.3784h-6.6216-.3784l-22.6216-22.6216h7z"/><path d="m701.6216-2780.3784v.3784 6.6216l-22.6216-22.6216v-7z"/><path d="m701.6216-2773.3784.3784-.3783 6.2432-6.2433.3784-.3784-22.6216-22.6216-7 7z"/><path d="m-50.6216-2780.3784.3784.3784 6.2432 6.2433.3784.3783 22.6216-22.6216-7-7z"/><path d="m-43.6216-2780.3784h-.3784-6.6216l22.6216-22.6216h7z"/><path d="m-43.6216-2773.3784v-6.6216-.3784l22.6216-22.6216v7z"/><path d="m-50.6216 1759h17.5135.1081 5-16z"/><path d="m-50.6216 1759h-.3784-4z"/><path d="m-44 1759h16 1.8919-21.8919z"/><path d="m702 1759h-16 5 .1081 17.5135z"/><path d="m702 1759h4-21.8919 1.8919z"/><path d="m-50.2432 1635h-.7568v.3784h.3784z"/><path d="m-43.6216 1628.3784.3784-.3784h-.7568v.7568z"/><path d="m-50.6216 1635.3784h-.3784v123.6216h.3784 6.6216v-123.6216z"/><path d="m708.6216 1635.3784.3784.3784v-.7568h-.7568z"/><path d="m180.3784 1628h-4.3784-219.2432l-.3784.3784v6.6216h219.6216 4.3784z"/><path d="m404.3784 1628h-4.3784-219.6216v7h219.6216 4.3784z"/><path d="m628.3784 1628h-4.3784-219.6216v7h219.6216 4.3784z"/><path d="m701.6216 1635v-6.6216-.3784h-73.2432v7z"/><path d="m702 1628h-.3784v.3784l.3784.3784z"/><path d="m708.6216 1759h.3784v-123.2432l-.3784-.3784h-6.6216v123.6216z"/><path d="m709 1635 4-4-4.7568 4z"/><path d="m708.2432 1635 4.7568-4-7-7-4 4.7568z"/><path d="m628.3784 1628h73.2432.3784l4-4h-82v4z"/><path d="m-44 1628.7568v-.7568l-4-4z"/><path d="m176 1635h-219.6216l-4.3784-4h224z"/><path d="m400 1635h-219.6216-4.3784v-4h224z"/><path d="m624 1635h-219.6216-4.3784v-4h150 74z"/><path d="m-43.6216 1635.3784-4.3784-4.3784 4.3784 4z"/><path d="m-44 1628.7568-4-4.7568-7 7 4.7568 4z"/><path d="m-51 1635.3784v-.3784l-4-4v118 10h4z"/><path d="m701.6216 1628.3784v6.6216.3784l-22.6216 22.6216v-7z"/><path d="m708.6216 1635.3784-.3784-.3784-6.2432-6.2432-.3784-.3784-22.6216 22.6216 7 7z"/><path d="m701.6216 1635.3784h.3784 6.6216l-22.6216 22.6216h-7z"/><path d="m-43.6216 1628.3784-.3784.3784-6.2432 6.2432-.3784.3784 22.6216 22.6216 7-7z"/><path d="m-43.6216 1635.3784v-.3784-6.6216l22.6216 22.6216v7z"/><path d="m-50.6216 1635.3784h6.6216.3784l22.6216 22.6216h-7z"/><path d="m-426 994v-35-189 41z"/><path d="m-426-2146v-52-9 58z"/><path d="m-202-2139h-224z"/><path d="m22-2139h-224z"/><path d="m246-2139h-224z"/><path d="m470-2139h-224z"/><path d="m694-2139h-224z"/><path d="m918-2139h-224z"/><path d="m-202-2146h-224v7h224z"/><path d="m22-2146h-224v7h224z"/><path d="m246-2146h-224v7h224z"/><path d="m470-2146h-224v7h224z"/><path d="m694-2146h-224v7h224z"/><path d="m918-2146h-224v7h224z"/><path d="m1084-2139v-7h-166v7z"/><path d="m1084-2146h-166z"/><path d="m1084 994h-166z"/><path d="m-202 994h-224v7h224z"/><path d="m22 994h-224v7h224z"/><path d="m246 994h-224v7h224z"/><path d="m470 994h-224v7h224z"/><path d="m694 994h-224v7h224z"/><path d="m918 994h-224v7h224z"/><path d="m1084 1001v-7h-166v7z"/><path d="m-202 1001h-224z"/><path d="m22 1001h-224z"/><path d="m246 1001h-224z"/><path d="m470 1001h-224z"/><path d="m694 1001h-224z"/><path d="m918 1001h-224z"/><path d="m-572-1346h42v-39h-43v5 34z"/><path d="m-611-1346h38v-34h-37-43v34z"/><path d="m-653-1385v5h43v-5z"/><path d="m-573-1346h-38v3h39v-3z"/><path d="m-530-1288v-55h-42v132 54h42z"/><path d="m-572-1343h-39-42v55 77h42 39z"/><path d="m-572-1157v-54h-39v54 3h38 1z"/><path d="m-653-1211v54h42v-54z"/><path d="m-530-1112v-42h-42-1v37 5z"/><path d="m-653-1117h43 37v-37h-38-42z"/><path d="m-653-1112h43v-5h-43z"/><path d="m-653-1385h43 37 43 2l-5 28h-117l-5-28z"/><path d="m-528-1336v48 176l-5-28v-196z"/><path d="m-655-1385 5 28v21h-5z"/><path d="m-528-1336v-49l12-48v15 40 90h-12z"/><path d="m-655-1112h2l-12 48h-2z"/><path d="m-530-1385 12-48h2l-12 48z"/><path d="m-530-1288v131 3 42l12 48v-5-10-201.6-7.4z"/><path d="m-653-1343v-3-34-5l-12-48v5 140h12z"/><path d="m-572-1343h42 12z"/><path d="m-653-1343h42-54z"/><path d="m-653-1346v3h-12v-3z"/><path d="m-530-1346h-42 54z"/><path d="m-611-1346h-42-12z"/><path d="m-572-1346v3z"/><path d="m-530-1343v-3h12v3z"/><path d="m-611-1343v-3z"/><path d="m-610-1117-4 48h45l-4-48z"/><path d="m-655-1288v176l-12 48v-15-75-134z"/><path d="m-528-1288v-97l12-48v145z"/><path d="m-610-1385-4-48h45l-4 48z"/><path d="m-655-1385-12-48h2l12 48z"/><path d="m-530-1385 12-48h2l-12 48z"/><path d="m-655-1112-12 48v-224h12z"/><path d="m-573-1117v-37h-80v37z"/><path d="m-611-1157v3h39v-3z"/><path d="m-530-1157v-186h-43v186z"/><path d="m-611-1343h-42v186h42z"/><path d="m-572-1346h-1v3h1z"/><path d="m-610-1385h-1v5h1z"/><path d="m-653-1346h42v-39h-42z"/><path d="m-530-1385h-43v39h43z"/><path d="m-611-1157h38v-223h-38z"/><path d="m-653-1112h43v-5h-43z"/><path d="m-573-1112h43v-42h-43z"/><path d="m-655-1385h127l-5 28h-117z"/><path d="m-528-1385v49h-5v-21z"/><path d="m-528-1336v224l-5-28v-196z"/><path d="m-655-1336v-49l5 28v21z"/><path d="m-655-1112v-224h5v196z"/><path d="m-528-1112h-127l5-28h117z"/><path d="m-530-1112 12 48v-224h-12z"/><path d="m-653-1288v-97l-12-48v145z"/><path d="m-610-1117-4 48h45l-4-48z"/><path d="m-572-1346v3z"/><path d="m-572-1343h42 12z"/><path d="m-530-1346h-42 54z"/><path d="m-530-1343v-3h12v3z"/><path d="m-653-1343h42-54z"/><path d="m-611-1343v-3z"/><path d="m-611-1346h-42-12z"/><path d="m-653-1346v3h-12v-3z"/><path d="m789-3118h-24z"/><path d="m789-3118h224z"/><path d="m-55 1978h-76z"/><path d="m93 1978h-114-34-76 153z"/><path d="m317 1978h-114-110 153z"/><path d="m541 1978h-114-110 153z"/><path d="m765 1978h-52-49-114-9 153z"/><path d="m169-2769h-217-7z"/><path d="m393-2769h-217-7z"/><path d="m617-2769h-217-7z"/><path d="m-55-3018v-100 125z"/><path d="m713-2993v89 128 7-125z"/><path d="m706-2769-4-4h-.7568-72.8648-4.3784v4z"/><path d="m664-3118v100h42 7v-100z"/><path d="m706-2904v-114h-42v124 100h42z"/><path d="m664-2794v18h42v-18z"/><path d="m706-2769h7v-7z"/><path d="m439-3118h-122-102v214 10h224z"/><path d="m215-2894v118h185 39v-118z"/><path d="m664-2894v-124-100h-123-102v224z"/><path d="m624-2776h40v-18-100h-225v118z"/><path d="m176-2904h39v-214h-122-114v100 114z"/><path d="m-48-3018h27v-100h-34v100z"/><path d="m-48-3018v114h27v-114z"/><path d="m176-2904h-197-27v128h224z"/><path d="m215-2776v-118-10h-39v128z"/><path d="m-55-2776v7h7z"/><path d="m-55-2904h4 .3784z"/><path d="m713-3018h-7-27 7z"/><path d="m-48-3018h-7 27 7z"/><path d="m706-3018v114h-21.8919-5.1081v-114z"/><path d="m-55-3018v25 89h4.3784 17.5135 5.1081v-114z"/><path d="m706-2794v18l-4-4.3784v-123.6216h4z"/><path d="m713-2776v-128h-4v123.6216.3784z"/><path d="m713-2776-4-4h-.7568z"/><path d="m176-2776h-224l4.3784-4h219.6216z"/><path d="m400-2776h-185-39v-4h4.3784 219.6216z"/><path d="m624-2776h-185-39v-4h4.3784 219.6216z"/><path d="m-48-2904h4v123.6216l-4 4.3784z"/><path d="m-48-2769 4-4v-.7567z"/><path d="m-55-2776 4.7568-4h-.7568z"/><path d="m624 1624h82 7-96z"/><path d="m-55 1631v-7 125z"/><path d="m713 1749v10 114 100-125z"/><path d="m713 1624h-7l7 7z"/><path d="m706 1759v-128h-42v224h42z"/><path d="m664 1855v18h42v-18z"/><path d="m706 1873h-42v100h49v-100z"/><path d="m664 1631h-40-74v182 42h114z"/><path d="m550 1855v118h114v-100-18z"/><path d="m176 1631h-224v128 54h27 197z"/><path d="m400 1631h-224v182h27 197z"/><path d="m427 1813h123v-182h-150v182z"/><path d="m203 1813h-27-197v60 100h224z"/><path d="m427 1813h-27-197v160h224z"/><path d="m550 1973v-118-42h-123v160z"/><path d="m-48 1624h-7v7z"/><path d="m-48 1813v60h27v-60z"/><path d="m-21 1973v-100h-27-7v100z"/><path d="m713 1759h-4-.3784z"/><path d="m706 1624-4 4v.7568z"/><path d="m706 1759h-4v-123.6216l4-4.3784z"/><path d="m713 1749v-118l-4 4v.7568 123.2432h4z"/><path d="m176 1624h-7-217l4 4h.7568 219.2432z"/><path d="m400 1624h-7-217v4h4.3784 219.6216z"/><path d="m624 1624h-7-217v4h4.3784 219.6216z"/><path d="m-48 1631 4 4.3784v123.6216h-4z"/><path d="m664 1631h42l-4.3784 4h-73.2432-4.3784v-4z"/><path d="m706 1631-4.3784 4.3784v-.3784z"/><path d="m706 1631-4 4.3784h-.3784z"/><path d="m-48 1631 4.3784 4.3784h-.3784z"/><path d="m-55 1631 4 4h.7568z"/><path d="m-55 1873h7 27-7z"/><path d="m706 1873h7-27-7z"/><path d="m713 1873v-114h-4.3784-17.5135-5.1081v114z"/><path d="m-48 1813v-54h21.8919 5.1081v54 60h-27z"/><path d="m664 1973v5h49v-5z"/><path d="m550 1973v5h114v-5z"/><path d="m203 1973h-224v5h114 110z"/><path d="m427 1973h-224v5h114 110z"/><path d="m541 1978h9v-5h-123v5z"/><path d="m-21 1978v-5h-34v5z"/><path d="m713 1973v5z"/><path d="m-650-1336v-21h117v21 196h-117z"/><path d="m-533-1357 5-28v49h-5z"/><path d="m-650-1336v196l-5 28v-176-48z"/><path d="m-533-1140 5 28h-2-43-37-43-2l5-28z"/><path d="m-533-1357v217h-117v-217z"/><path d="m-55-3118h-76z"/><path d="m169-3118h-224z"/><path d="m393-3118h-224z"/><path d="m617-3118h-224z"/><path d="m713-3118h76-24z"/><path d="m617 1978h96-172z"/><path d="m713-2769h-7-82-7z"/><path d="m-55-2993v99 125-7-128z"/><path d="m713-3118v100 25z"/><path d="m-55-2894v-99-125h224v224z"/><path d="m169-2769h-224v-125h224z"/><path d="m169-2894v-224h224v224z"/><path d="m393-2769h-224v-125h224z"/><path d="m393-2894v-224h224v224z"/><path d="m617-2769h-224v-125h224z"/><path d="m713-3118v125 99h-96v-224z"/><path d="m713-2894v125h-96v-125z"/><path d="m169 1624h-224 7z"/><path d="m393 1624h-224 7z"/><path d="m617 1624h-224 7z"/><path d="m-55 1749v99 125-100-114z"/><path d="m713 1624v7 118z"/><path d="m-55 1848v-99-125h224v224z"/><path d="m169 1973h-224v-125h224z"/><path d="m169 1848v-224h224v224z"/><path d="m393 1973h-224v-125h224z"/><path d="m393 1848v-224h224v224z"/><path d="m617 1973h-224v-125h224z"/><path d="m713 1624v125 99h-96v-224z"/><path d="m713 1848v125h-96v-125z"/><path d="m-55 1973v5z"/><path d="m169 1978h-76-148v-5h224z"/><path d="m393 1978h-76-148v-5h224z"/><path d="m617 1978h-76-148v-5h224z"/><path d="m713 1973v5h-96v-5z"/><path d="m-426-831v144 80-151z"/><path d="m-426-966v-16-208z"/><path d="m-422-459h-4z"/><path d="m-426-687h4z"/><path d="m-426-534v-5-1-66-1-80h4v228h-4z"/><path d="m-422-687v228z"/><path d="m-382-612h2-4-2z"/><path d="m-382-601v-11h-4v5 1 5z"/><path d="m-382-601h2v-11h-2z"/><path d="m-382-545h2-4-2z"/><path d="m-382-534h2v-11h-2z"/><path d="m-382-534v-11h-4v5 1 5z"/><path d="m-380-601v-11z"/><path d="m-380-534v-5-6z"/><path d="m-426-540v1z"/><path d="m-426-607v1z"/><path d="m-384-601h4-2-4z"/><path d="m-386-601v-5h2v5z"/><path d="m-386-607v-5h2v5z"/><path d="m-386-607h-40v1h40z"/><path d="m-380-601h-4v-5-1-5h4z"/><path d="m-380-534h-2-4z"/><path d="m-386-540h-40v1h40z"/><path d="m-386-540v-5h2v5z"/><path d="m-384-539h4v5h-6v-5z"/><path d="m-384-540v-5h4v6h-4z"/><path d="m-426-534v-5z"/><path d="m-426-606v66z"/><path d="m-426-966v55 80z"/><path d="m-426-758v151 1 66 1 5z"/><path d="m-426-982v16 135 73z"/><path d="m-426-1206v16 208z"/><path d="m-426-1190v-16-137z"/><path d="m-426-606v-1h42v1z"/><path d="m-384-607v1z"/><path d="m-384-606h-2-40z"/><path d="m-426-607h40 2z"/><path d="m-426-539v-1h42v1z"/><path d="m-384-540v1z"/><path d="m-384-539h-2-40z"/><path d="m-426-540h40 2z"/><path d="m-426 1153v-91z"/><path d="m-426 1062v-9-52 3z"/><path d="m1084-2298h-105z"/><path d="m1084-2198v-100h-105v100z"/><path d="m707-2298h-224v100h211 13z"/><path d="m931-2298h-224v100h211 13z"/><path d="m979-2298h-48v100h48z"/><path d="m979-2298h-48z"/><path d="m399-2298h-224v91 9h71 153z"/><path d="m483-2298h-84v100h71 13z"/><path d="m483-2298h-84z"/><path d="m-97-2298h-224v91h119 105z"/><path d="m127-2298h-146-78v91h119 105z"/><path d="m175-2298h-48v91h48z"/><path d="m-19-2298h-78z"/><path d="m-321-2298h-105v91h105z"/><path d="m-321-2207h-105v9h224v-9z"/><path d="m-202-2198h224v-9h-119-105z"/><path d="m22-2198h153v-9h-48-105z"/><path d="m-202-2198h-224v52h224z"/><path d="m22-2198h-224v52h224z"/><path d="m246-2198h-71-153v52h224z"/><path d="m470-2198h-71-153v52h224z"/><path d="m694-2198h-211-13v52h224z"/><path d="m918-2198h-211-13v52h224z"/><path d="m1084-2146v-52h-105-48-13v52z"/><path d="m-202-2146h-224z"/><path d="m22-2146h-224z"/><path d="m246-2146h-224z"/><path d="m470-2146h-224z"/><path d="m694-2146h-224z"/><path d="m918-2146h-224z"/><path d="m-202 1001h-224v52h224z"/><path d="m22 1001h-224v52h224z"/><path d="m246 1001h-224v52h224z"/><path d="m470 1001h-224v52h224z"/><path d="m694 1001h-224v52h13 211z"/><path d="m918 1001h-224v52h13 211z"/><path d="m931 1053h48 105v-52h-166v52z"/><path d="m1084 1001h-166z"/><path d="m1084 1153v-91-9h-105v100z"/><path d="m707 1053h-13-211v100h224z"/><path d="m931 1053h-13-211v100h224z"/><path d="m979 1053h-48v100h48z"/><path d="m707 1153h-224z"/><path d="m931 1153h-224z"/><path d="m-202 1053h-224v9 91h105 119z"/><path d="m22 1053h-224v100h105 78 41z"/><path d="m246 1053h-224v100h153 71z"/><path d="m483 1053h-13-224v100h153 84z"/><path d="m399 1153h-153-71z"/><path d="m175 1153h-153-41z"/><path d="m-97 1153h-105-119z"/><path d="m-321 1153h-105z"/><path d="m-426-3118h224-219z"/><path d="m-426 1183v-23z"/><path d="m-426 770v-35-189 41z"/><path d="m-426 546v-35-189 41z"/><path d="m-426 322v-35-189 41z"/><path d="m-426 98v-35-189 41z"/><path d="m-426-126v-35-189 41z"/><path d="m-426-350v-35-74z"/><path d="m-426 959v35 166 23z"/><path d="m-426 735v35 189z"/><path d="m-426 511v35 189z"/><path d="m-426 287v35 189z"/><path d="m-426 63v35 189z"/><path d="m-426-161v35 189z"/><path d="m-426-385v35 189z"/><path d="m-426-459v-75z"/><path d="m-426-2305v-23z"/><path d="m-426-2363v35 23 166z"/><path d="m-426-2587v35 189z"/><path d="m-426-2811v35 189z"/><path d="m-426-3035v35 189z"/><path d="m-426-3035v-83 118z"/><path d="m1084 1160v23z"/><path d="m1084 770v189 35-183z"/><path d="m1084 546v189 35-183z"/><path d="m1084 322v189 35-183z"/><path d="m1084 98v189 35-183z"/><path d="m1084-126v189 35-183z"/><path d="m1084-350v189 35-183z"/><path d="m1084-574v189 35-183z"/><path d="m1084-798v189 35-183z"/><path d="m1084-1022v189 35-183z"/><path d="m1084-1246v189 35-183z"/><path d="m1084-1470v189 35-183z"/><path d="m1084-1694v189 35-183z"/><path d="m1084-1918v189 35-183z"/><path d="m1084-2328v23z"/><path d="m1084-3118v45z"/><path d="m1084-2552v151 73-194z"/><path d="m1084-2776v151 73-194z"/><path d="m1084-3000v151 73-194z"/><path d="m-202 1160h-119-105v-166h224z"/><path d="m22 1160h-41-78-105v-166h224z"/><path d="m246 1160h-41-183v-166h224z"/><path d="m470 1160h-41-183v-166h224z"/><path d="m694 1160h-211-13v-166h224z"/><path d="m918 1160h-211-13v-166h224z"/><path d="m1084 994v166h-105-48-13v-166z"/><path d="m-202-2139h-224v-166h105 119z"/><path d="m22-2139h-224v-166h105 119z"/><path d="m246-2139h-224v-166h105 48 71z"/><path d="m470-2139h-224v-166h153 71z"/><path d="m694-2139h-224v-166h13 211z"/><path d="m918-2139h-224v-166h13 211z"/><path d="m931-2305h48 105v128 38h-166v-166z"/><path d="m1084-2139h-166z"/><path d="m707-2305h-13-211z"/><path d="m931-2305h-13-211z"/><path d="m399-2305h-153-71z"/><path d="m-97-2305h-105-119z"/><path d="m127-2305h-105-119z"/><path d="m-426-2305h105z"/><path d="m-202 994h-224z"/><path d="m22 994h-224z"/><path d="m246 994h-224z"/><path d="m470 994h-224z"/><path d="m694 994h-224z"/><path d="m918 994h-224z"/><path d="m1084 1160h-105z"/><path d="m979 1160h-48z"/><path d="m-97 1160h78z"/><path d="m470 1160h13-54z"/></g><g id="d"><path d="m-202-3118h71-66z"/><path d="m713-3118h-96z"/><path d="m1013-3118h71-5z"/><path d="m93 1978h-224 76z"/><path d="m317 1978h-224 76z"/><path d="m541 1978h-224 76z"/><path d="m789 1978h-76 52z"/><path d="m1013 1978h-224 129z"/><path d="m1084 1978h-71z"/><path d="m-426 1183v123z"/><path d="m-426-459v74z"/><path d="m-426-1343v137z"/><path d="m-426-2139v124z"/><path d="m-426-3118v83z"/><path d="m1084 1754v224-5z"/><path d="m1084 1530v224-20z"/><path d="m1084 1306v224-20z"/><path d="m1084 959v224-23-166z"/><path d="m1084 735v224-189z"/><path d="m1084 511v224-189z"/><path d="m1084 287v224-189z"/><path d="m1084 63v224-189z"/><path d="m1084-161v224-189z"/><path d="m1084-385v224-189z"/><path d="m1084-609v224-189z"/><path d="m1084-833v224-189z"/><path d="m1084-1057v224-189z"/><path d="m1084-1281v224-189z"/><path d="m1084-1505v224-189z"/><path d="m1084-1729v224-189z"/><path d="m1084-1953v224-189z"/><path d="m1084-2177v224-186z"/><path d="m1084-2401v224-128-23z"/><path d="m1084-2625v224-151z"/><path d="m1084-2849v224-151z"/><path d="m1084-3073v224-151z"/><path d="m-514-982h-224z"/><path d="m-442-1511h-72z"/><path d="m-738-1511v81z"/><path d="m-442-1206v143 81z"/><path d="m-442-1430v143 81z"/><path d="m-514-1511h-224v81 143h224z"/><path d="m-738-1287v81 143h224v-224z"/><path d="m-738-1063v81h224v-81z"/><path d="m-442-1430v-81h-72v224h72z"/><path d="m-514-1287v224h72v-143-81z"/><path d="m-514-1063v81h72v-81z"/></g></defs><g stroke="#000"><use fill="none" stroke-miterlimit="0" stroke-width="10" xlink:href="#a"/><use fill="#c4c4c4" xlink:href="#a"/><use fill="none" stroke-miterlimit="0" stroke-width="10" xlink:href="#b"/><use fill="#d9d9d9" xlink:href="#b"/><use fill="none" stroke-miterlimit="0" stroke-width="10" xlink:href="#c"/><use fill="#ebebeb" xlink:href="#c"/><use fill="none" stroke-miterlimit="0" stroke-width="10" xlink:href="#d"/><use fill="#fff" xlink:href="#d"/></g></svg>